//Event file generated from Sappy .s format.
	#include "MPlayDef.event"

	#define	ArmyA_grp  voicegroup000
	#define	ArmyA_pri  0
	#define	ArmyA_rev  0
	#define	ArmyA_mvl  127
	#define	ArmyA_key  0
	#define	ArmyA_tbs  1
	#define	ArmyA_exg  0
	#define	ArmyA_cmp  1

	// .rodata
	//	ArmyA
	ALIGN 4


//**************** Track 1 (Midi-Chn.0) ****************//

ArmyA_001:
// 000   ----------------------------------------
 BYTE   KEYSH   ArmyA_key+0
Label_0_01280A4E:
 BYTE   TEMPO   92*ArmyA_tbs/2
 BYTE   VOICE   57
 BYTE   VOL   60*ArmyA_mvl/mxv
 BYTE   N48  Dn3  v100
 BYTE   W48
 BYTE   N18  Cn3
 BYTE   W24
 BYTE   Bn2
 BYTE   W18
 BYTE   N06  Cn3
 BYTE   W06
// 001   ----------------------------------------
Label_0_01280A60:
 BYTE   N24  Bn2  v100
 BYTE   W24
 BYTE   Gn2
 BYTE   W24
 BYTE   N36  An2
 BYTE   W48
 BYTE   PEND 
// 002   ----------------------------------------
 BYTE   N96  Ds2
 BYTE   W96
// 003   ----------------------------------------
 BYTE   W96
// 004   ----------------------------------------
 BYTE   W96
// 005   ----------------------------------------
 BYTE   W12
 BYTE   N04  En3  v100
 BYTE   W04
 BYTE   N04
 BYTE   W04
 BYTE   N04
 BYTE   W04
 BYTE   N24  Fn3
 BYTE   W36
 BYTE   N04  Bn3
 BYTE   W04
 BYTE   N04
 BYTE   W04
 BYTE   N04
 BYTE   W04
 BYTE   N24  Cn4
 BYTE   W24
 BYTE   PEND 
// 006   ----------------------------------------
 BYTE   W12
 BYTE   N04  Cn4  v100
 BYTE   W04
 BYTE   N04
 BYTE   W04
 BYTE   N04
 BYTE   W04
 BYTE   N48  As3
 BYTE   W48
 BYTE   N06
 BYTE   W12
 BYTE   Fn3
 BYTE   W12
 BYTE   PEND 
// 007   ----------------------------------------
 BYTE   N48  An2  v100
 BYTE   W48
 BYTE   N24  Bn2
 BYTE   W24
 BYTE   N18  Dn3
 BYTE   W18
 BYTE   N06  Bn2
 BYTE   W06
 BYTE   PEND 
// 008   ----------------------------------------
 BYTE   N96  Cn3
 BYTE   W96
// 009   ----------------------------------------
 BYTE   W24
 BYTE   N06  An2  v100
 BYTE   W12
 BYTE   N06
 BYTE   W06
 BYTE   N06
 BYTE   W06
 BYTE   N12
 BYTE   W12
 BYTE   Ds3
 BYTE   W36
 BYTE   PEND 
// 010   ----------------------------------------
 BYTE   W24
 BYTE   N04  An2  v100
 BYTE   W04
 BYTE   N04
 BYTE   W04
 BYTE   N04
 BYTE   W04
 BYTE   N04
 BYTE   W04
 BYTE   N04
 BYTE   W04
 BYTE   N04
 BYTE   W04
 BYTE   N12
 BYTE   W12
 BYTE   Ds3
 BYTE   W36
 BYTE   PEND 
// 011   ----------------------------------------
 BYTE   N18  An1  v100
 BYTE   W24
 BYTE   N06
 BYTE   W06
 BYTE   Dn2
 BYTE   W06
 BYTE   Cn2
 BYTE   W06
 BYTE   Dn2
 BYTE   W06
 BYTE   N18  An1
 BYTE   W24
 BYTE   N06  Cn2
 BYTE   W06
 BYTE   En2
 BYTE   W06
 BYTE   Ds2
 BYTE   W06
 BYTE   En2
 BYTE   W06
 BYTE   PEND 
// 012   ----------------------------------------
 BYTE   N18  Cs2  v100
 BYTE   W24
 BYTE   N06
 BYTE   W06
 BYTE   Fn2
 BYTE   W06
 BYTE   Ds2
 BYTE   W06
 BYTE   Fn2
 BYTE   W06
 BYTE   N18  Cs2
 BYTE   W24
 BYTE   N06
 BYTE   W06
 BYTE   Fn2
 BYTE   W06
 BYTE   Ds2
 BYTE   W06
 BYTE   Fn2
 BYTE   W06
 BYTE   PEND 
// 013   ----------------------------------------
 BYTE   N48  Bn2  v100
 BYTE   W48
 BYTE   Fs2
 BYTE   W48
 BYTE   PEND 
// 014   ----------------------------------------
 BYTE   N72  Fn2  v080
 BYTE   W96
// 015   ----------------------------------------
 BYTE   W42
 BYTE   N06  An2  v100
 BYTE   W06
 BYTE   N24  As2
 BYTE   W24
 BYTE   Gs2
 BYTE   W24
 BYTE   PEND 
// 016   ----------------------------------------
 BYTE   N48  An2  v100
 BYTE   W48
 BYTE   N24
 BYTE   W24
 BYTE   N12
 BYTE   W12
 BYTE   N12
 BYTE   W12
 BYTE   PEND 
// 017   ----------------------------------------
 BYTE   N03  An2  v100
 BYTE   W03
 BYTE   N03
 BYTE   W03
 BYTE   N42
 BYTE   W42
 BYTE   N24
 BYTE   W24
 BYTE   N24
 BYTE   W24
 BYTE   PEND 
// 018   ----------------------------------------
 BYTE   GoTo
  POIN2 Label_0_01280A4E
// 019   ----------------------------------------
 BYTE   VOL   60*ArmyA_mvl/mxv
 BYTE   N48  Dn3
 BYTE   W48
 BYTE   N18  Cn3
 BYTE   W24
 BYTE   Bn2
 BYTE   W18
 BYTE   N06  Cn3
 BYTE   W06
 BYTE   PATT
  POIN2 Label_0_01280A60
 BYTE   FINE

//**************** Track 2 (Midi-Chn.1) ****************//

ArmyA_002:
// 000   ----------------------------------------
 BYTE   KEYSH   ArmyA_key+0
Label_1_01280B46:
 BYTE   VOICE   116
 BYTE   VOL   57*ArmyA_mvl/mxv
 BYTE   W96
// 001   ----------------------------------------
 BYTE   W96
// 002   ----------------------------------------
 BYTE   W96
// 003   ----------------------------------------
 BYTE   N12  An2  v100
 BYTE   W48
 BYTE   N12
 BYTE   W48
 BYTE   PEND 
// 004   ----------------------------------------
 BYTE   N12  Gn2  v100
 BYTE   W48
 BYTE   An2
 BYTE   W48
 BYTE   PEND 
// 005   ----------------------------------------
 BYTE   W96
// 006   ----------------------------------------
 BYTE   W96
// 007   ----------------------------------------
 BYTE   En3
 BYTE   W48
 BYTE   N12
 BYTE   W48
// 008   ----------------------------------------
 BYTE   N12
 BYTE   W48
 BYTE   N12
 BYTE   W48
// 009   ----------------------------------------
 BYTE   W96
// 010   ----------------------------------------
 BYTE   W96
// 011   ----------------------------------------
 BYTE   N48  Dn4  v080
 BYTE   W48
 BYTE   N24  An3
 BYTE   W24
 BYTE   An4
 BYTE   W24
 BYTE   PEND 
// 012   ----------------------------------------
 BYTE   N24  Gs4  v080
 BYTE   W24
 BYTE   Fn4
 BYTE   W24
 BYTE   Gs4
 BYTE   W24
 BYTE   As4
 BYTE   W24
 BYTE   PEND 
// 013   ----------------------------------------
 BYTE   N96  Bn4
 BYTE   W96
// 014   ----------------------------------------
 BYTE   N72  Dn4
 BYTE   W96
// 015   ----------------------------------------
 BYTE   VOL   57*ArmyA_mvl/mxv
 BYTE   W96
// 016   ----------------------------------------
 BYTE   W96
// 017   ----------------------------------------
 BYTE   W96
// 018   ----------------------------------------
 BYTE   GoTo
  POIN2 Label_1_01280B46
 BYTE   FINE

//**************** Track 3 (Midi-Chn.2) ****************//

ArmyA_003:
// 000   ----------------------------------------
 BYTE   KEYSH   ArmyA_key+0
Label_2_01280B92:
 BYTE   VOICE   57
 BYTE   VOL   60*ArmyA_mvl/mxv
 BYTE   N48  Gn2  v100
 BYTE   W48
 BYTE   N18  Fs2
 BYTE   W24
 BYTE   N18
 BYTE   W18
 BYTE   N06
 BYTE   W06
// 001   ----------------------------------------
 BYTE   N24  Fn2  v100
 BYTE   W24
 BYTE   Dn2
 BYTE   W24
 BYTE   N36  En2
 BYTE   W48
 BYTE   PEND 
// 002   ----------------------------------------
 BYTE   N96  As1
 BYTE   W96
// 003   ----------------------------------------
 BYTE   W96
// 004   ----------------------------------------
 BYTE   W96
// 005   ----------------------------------------
 BYTE   W12
 BYTE   N04  Cn3  v100
 BYTE   W04
 BYTE   N04
 BYTE   W04
 BYTE   N04
 BYTE   W04
 BYTE   N24  Dn3
 BYTE   W36
 BYTE   N04  Fn3
 BYTE   W04
 BYTE   N04
 BYTE   W04
 BYTE   N04
 BYTE   W04
 BYTE   N24  Gs3
 BYTE   W24
 BYTE   PEND 
// 006   ----------------------------------------
 BYTE   W12
 BYTE   N04  Gs3  v100
 BYTE   W04
 BYTE   N04
 BYTE   W04
 BYTE   N04
 BYTE   W04
 BYTE   N48  Fn3
 BYTE   W48
 BYTE   N06
 BYTE   W12
 BYTE   As2
 BYTE   W12
 BYTE   PEND 
// 007   ----------------------------------------
 BYTE   W96
// 008   ----------------------------------------
 BYTE   W96
// 009   ----------------------------------------
 BYTE   W24
 BYTE   N06  Fn2  v100
 BYTE   W12
 BYTE   N06
 BYTE   W06
 BYTE   N06
 BYTE   W06
 BYTE   N12
 BYTE   W12
 BYTE   Cn3
 BYTE   W36
 BYTE   PEND 
// 010   ----------------------------------------
 BYTE   W24
 BYTE   N04  Fn2  v100
 BYTE   W04
 BYTE   N04
 BYTE   W04
 BYTE   N04
 BYTE   W04
 BYTE   N04
 BYTE   W04
 BYTE   N04
 BYTE   W04
 BYTE   N04
 BYTE   W04
 BYTE   N12
 BYTE   W12
 BYTE   Cn3
 BYTE   W36
 BYTE   PEND 
// 011   ----------------------------------------
 BYTE   N18  Dn2  v100
 BYTE   W24
 BYTE   N06
 BYTE   W06
 BYTE   Fn2
 BYTE   W06
 BYTE   En2
 BYTE   W06
 BYTE   Fn2
 BYTE   W06
 BYTE   N18  Dn2
 BYTE   W24
 BYTE   N06  En2
 BYTE   W06
 BYTE   Gs2
 BYTE   W06
 BYTE   Fs2
 BYTE   W06
 BYTE   Gs2
 BYTE   W06
 BYTE   PEND 
// 012   ----------------------------------------
 BYTE   N18  En2  v100
 BYTE   W24
 BYTE   N06
 BYTE   W06
 BYTE   Gs2
 BYTE   W06
 BYTE   Fs2
 BYTE   W06
 BYTE   Gs2
 BYTE   W06
 BYTE   N18  Fn2
 BYTE   W24
 BYTE   N06  Gs2
 BYTE   W06
 BYTE   Cn3
 BYTE   W06
 BYTE   As2
 BYTE   W06
 BYTE   Cn3
 BYTE   W06
 BYTE   PEND 
// 013   ----------------------------------------
 BYTE   N48  Gs2  v100
 BYTE   W48
 BYTE   En2
 BYTE   W48
 BYTE   PEND 
// 014   ----------------------------------------
 BYTE   N72  Bn1
 BYTE   W96
// 015   ----------------------------------------
 BYTE   W42
 BYTE   N06  En2  v100
 BYTE   W06
 BYTE   N24  Fn2
 BYTE   W24
 BYTE   Ds2
 BYTE   W24
 BYTE   PEND 
// 016   ----------------------------------------
 BYTE   N48  En2  v100
 BYTE   W48
 BYTE   N24
 BYTE   W24
 BYTE   N12
 BYTE   W12
 BYTE   N12
 BYTE   W12
 BYTE   PEND 
// 017   ----------------------------------------
 BYTE   N03  En2  v100
 BYTE   W03
 BYTE   N03
 BYTE   W03
 BYTE   N42
 BYTE   W42
 BYTE   N24
 BYTE   W24
 BYTE   N24
 BYTE   W24
 BYTE   PEND 
// 018   ----------------------------------------
 BYTE   GoTo
  POIN2 Label_2_01280B92
 BYTE   FINE

//**************** Track 4 (Midi-Chn.3) ****************//

ArmyA_004:
// 000   ----------------------------------------
 BYTE   KEYSH   ArmyA_key+0
Label_3_01280C66:
 BYTE   VOICE   116
 BYTE   VOL   62*ArmyA_mvl/mxv
 BYTE   N12  En3  v100
 BYTE   W48
 BYTE   N12
 BYTE   W48
// 001   ----------------------------------------
 BYTE   N12  En3  v100
 BYTE   W48
 BYTE   N12
 BYTE   W24
 BYTE   N03  An4
 BYTE   W06
 BYTE   Cn5
 BYTE   W06
 BYTE   Bn4
 BYTE   W06
 BYTE   Cn5
 BYTE   W06
 BYTE   PEND 
// 002   ----------------------------------------
 BYTE   W48
 BYTE   N48  Gn3
 BYTE   W48
// 003   ----------------------------------------
 BYTE   N12  An3  v100
 BYTE   W48
 BYTE   En3
 BYTE   W48
 BYTE   PEND 
// 004   ----------------------------------------
 BYTE   N12
 BYTE   W48
 BYTE   N12
 BYTE   W48
// 005   ----------------------------------------
 BYTE   W24
 BYTE   N24  Fn3  v100
 BYTE   W24
 BYTE   Gs3
 BYTE   W24
 BYTE   Fn3
 BYTE   W24
 BYTE   PEND 
// 006   ----------------------------------------
 BYTE   N24  Gs3  v100
 BYTE   W24
 BYTE   N72  Fn3
 BYTE   W72
 BYTE   PEND 
// 007   ----------------------------------------
 BYTE   N48  An1  v100
 BYTE   W48
 BYTE   N24  Bn1
 BYTE   W24
 BYTE   N18  Dn2
 BYTE   W18
 BYTE   N06  Bn1
 BYTE   W06
 BYTE   PEND 
// 008   ----------------------------------------
 BYTE   N24  Cn2  v100
 BYTE   W36
 BYTE   N12  Dn2
 BYTE   W12
 BYTE   N48  En2
 BYTE   W48
 BYTE   PEND 
// 009   ----------------------------------------
 BYTE   W96
// 010   ----------------------------------------
 BYTE   W96
// 011   ----------------------------------------
 BYTE   N48  Dn3  v080
 BYTE   W48
 BYTE   N24  An2
 BYTE   W24
 BYTE   An3
 BYTE   W24
 BYTE   PEND 
// 012   ----------------------------------------
 BYTE   N24  Gs3  v080
 BYTE   W24
 BYTE   Fn3
 BYTE   W24
 BYTE   Gs3
 BYTE   W24
 BYTE   As3
 BYTE   W24
 BYTE   PEND 
// 013   ----------------------------------------
 BYTE   TIE  Bn3
 BYTE   W96
// 014   ----------------------------------------
 BYTE   W72
 BYTE   EOT
 BYTE   W24
// 015   ----------------------------------------
 BYTE   W96
// 016   ----------------------------------------
 BYTE   W96
// 017   ----------------------------------------
 BYTE   W96
// 018   ----------------------------------------
 BYTE   GoTo
  POIN2 Label_3_01280C66
 BYTE   FINE

//**************** Track 5 (Midi-Chn.4) ****************//

ArmyA_005:
// 000   ----------------------------------------
 BYTE   KEYSH   ArmyA_key+0
Label_4_01280CE2:
 BYTE   VOICE   116
 BYTE   VOL   62*ArmyA_mvl/mxv
 BYTE   N12  An2  v100
 BYTE   W48
 BYTE   N12
 BYTE   W48
// 001   ----------------------------------------
 BYTE   N12  An2  v100
 BYTE   W48
 BYTE   N12
 BYTE   W24
 BYTE   N03  An3
 BYTE   W06
 BYTE   Cn4
 BYTE   W06
 BYTE   Bn3
 BYTE   W06
 BYTE   Cn4
 BYTE   W06
 BYTE   PEND 
// 002   ----------------------------------------
 BYTE   W48
 BYTE   N48  Dn3
 BYTE   W48
// 003   ----------------------------------------
 BYTE   N12  En3
 BYTE   W48
 BYTE   Cn3
 BYTE   W48
// 004   ----------------------------------------
 BYTE   N12  Bn2  v100
 BYTE   W48
 BYTE   Cn3
 BYTE   W48
 BYTE   PEND 
// 005   ----------------------------------------
 BYTE   W24
 BYTE   N24  Dn4  v100
 BYTE   W24
 BYTE   Cn4
 BYTE   W24
 BYTE   N18  As3
 BYTE   W18
 BYTE   N06  Cn4
 BYTE   W06
 BYTE   PEND 
// 006   ----------------------------------------
 BYTE   N24  As3  v100
 BYTE   W24
 BYTE   Gn3
 BYTE   W24
 BYTE   N48  Gs3
 BYTE   W48
 BYTE   PEND 
// 007   ----------------------------------------
Label_4_01280D24:
 BYTE   N12  An2  v100
 BYTE   W48
 BYTE   N12
 BYTE   W48
 BYTE   PEND 
 BYTE   PATT
  POIN2 Label_4_01280D24
// 008   ----------------------------------------
 BYTE   N72  Dn2  v100
 BYTE   W72
 BYTE   N06
 BYTE   W06
 BYTE   Fn2
 BYTE   W06
 BYTE   En2
 BYTE   W06
 BYTE   Fn2
 BYTE   W06
 BYTE   PEND 
// 009   ----------------------------------------
 BYTE   N72  Dn2  v100
 BYTE   W72
 BYTE   N06
 BYTE   W06
 BYTE   Gn2
 BYTE   W06
 BYTE   Gs2
 BYTE   W06
 BYTE   An2
 BYTE   W06
 BYTE   PEND 
// 010   ----------------------------------------
 BYTE   W96
// 011   ----------------------------------------
 BYTE   W96
// 012   ----------------------------------------
 BYTE   W96
// 013   ----------------------------------------
 BYTE   W72
 BYTE   N06  An2  v100
 BYTE   W06
 BYTE   Cn3
 BYTE   W06
 BYTE   N12  As2
 BYTE   W12
 BYTE   PEND 
// 014   ----------------------------------------
 BYTE   N96  An2
 BYTE   W96
// 015   ----------------------------------------
 BYTE   N36  An2  v080
 BYTE   W48
 BYTE   N24
 BYTE   W24
 BYTE   N24
 BYTE   W24
 BYTE   PEND 
// 016   ----------------------------------------
 BYTE   N24  An2  v080
 BYTE   W24
 BYTE   N24
 BYTE   W24
 BYTE   N24
 BYTE   W24
 BYTE   N24
 BYTE   W24
 BYTE   PEND 
// 017   ----------------------------------------
 BYTE   GoTo
  POIN2 Label_4_01280CE2
 BYTE   FINE

//**************** Track 6 (Midi-Chn.5) ****************//

ArmyA_006:
// 000   ----------------------------------------
 BYTE   KEYSH   ArmyA_key+0
Label_5_01280D7A:
 BYTE   VOICE   58
 BYTE   VOL   45*ArmyA_mvl/mxv
 BYTE   N24  An0  v100
 BYTE   W24
 BYTE   N24
 BYTE   W24
 BYTE   N24
 BYTE   W24
 BYTE   N24
 BYTE   W24
// 001   ----------------------------------------
Label_5_01280D88:
 BYTE   N24  An0  v100
 BYTE   W24
 BYTE   N24
 BYTE   W24
 BYTE   N24
 BYTE   W24
 BYTE   N24
 BYTE   W24
 BYTE   PEND 
// 002   ----------------------------------------
 BYTE   N06  An0  v100
 BYTE   W12
 BYTE   As0
 BYTE   W12
 BYTE   Gs0
 BYTE   W12
 BYTE   As0
 BYTE   W12
 BYTE   An0
 BYTE   W12
 BYTE   As0
 BYTE   W12
 BYTE   N06
 BYTE   W12
 BYTE   Gn0
 BYTE   W12
 BYTE   PEND 
 BYTE   PATT
  POIN2 Label_5_01280D88
 BYTE   PATT
  POIN2 Label_5_01280D88
// 003   ----------------------------------------
 BYTE   TIE  As0  v100
 BYTE   W96
// 004   ----------------------------------------
 BYTE   W72
 BYTE   EOT
 BYTE   N12
 BYTE   W12
 BYTE   En0
 BYTE   W12
 BYTE   PATT
  POIN2 Label_5_01280D88
// 005   ----------------------------------------
 BYTE   N24  An0  v100
 BYTE   W24
 BYTE   N24
 BYTE   W24
 BYTE   N24
 BYTE   W24
 BYTE   N12
 BYTE   W12
 BYTE   N12
 BYTE   W12
 BYTE   PEND 
// 006   ----------------------------------------
Label_5_01280DCC:
 BYTE   N36  Dn1  v100
 BYTE   W36
 BYTE   N12
 BYTE   W12
 BYTE   N36
 BYTE   W36
 BYTE   N12
 BYTE   W12
 BYTE   PEND 
 BYTE   PATT
  POIN2 Label_5_01280DCC
 BYTE   PATT
  POIN2 Label_5_01280DCC
// 007   ----------------------------------------
 BYTE   N96  An0  v100
 BYTE   W96
// 008   ----------------------------------------
 BYTE   En1
 BYTE   W96
// 009   ----------------------------------------
 BYTE   N12  En1  v100
 BYTE   W24
 BYTE   N12
 BYTE   W24
 BYTE   N12
 BYTE   W24
 BYTE   N06  An0
 BYTE   W06
 BYTE   Cn1
 BYTE   W06
 BYTE   N12  As0
 BYTE   W12
 BYTE   PEND 
// 010   ----------------------------------------
 BYTE   N96  An0
 BYTE   W96
// 011   ----------------------------------------
 BYTE   W96
// 012   ----------------------------------------
 BYTE   W72
 BYTE   N12  An0  v100
 BYTE   W12
 BYTE   En0
 BYTE   W12
 BYTE   PEND 
// 013   ----------------------------------------
 BYTE   GoTo
  POIN2 Label_5_01280D7A
 BYTE   FINE

//**************** Track 7 (Midi-Chn.6) ****************//

ArmyA_007:
// 000   ----------------------------------------
 BYTE   KEYSH   ArmyA_key+0
Label_6_01280E0E:
 BYTE   VOICE   57
 BYTE   VOL   60*ArmyA_mvl/mxv
 BYTE   W96
// 001   ----------------------------------------
 BYTE   W96
// 002   ----------------------------------------
 BYTE   W96
// 003   ----------------------------------------
 BYTE   W96
// 004   ----------------------------------------
 BYTE   W96
// 005   ----------------------------------------
 BYTE   W96
// 006   ----------------------------------------
 BYTE   W96
// 007   ----------------------------------------
 BYTE   W96
// 008   ----------------------------------------
 BYTE   W96
// 009   ----------------------------------------
 BYTE   W24
 BYTE   N06  Dn2  v100
 BYTE   W12
 BYTE   N06
 BYTE   W06
 BYTE   N06
 BYTE   W06
 BYTE   N12
 BYTE   W12
 BYTE   Gs2
 BYTE   W36
 BYTE   PEND 
// 010   ----------------------------------------
 BYTE   W24
 BYTE   N04  Dn2  v100
 BYTE   W04
 BYTE   N04
 BYTE   W04
 BYTE   N04
 BYTE   W04
 BYTE   N04
 BYTE   W04
 BYTE   N04
 BYTE   W04
 BYTE   N04
 BYTE   W04
 BYTE   N12
 BYTE   W12
 BYTE   Gs2
 BYTE   W36
 BYTE   PEND 
// 011   ----------------------------------------
 BYTE   W96
// 012   ----------------------------------------
 BYTE   W96
// 013   ----------------------------------------
 BYTE   W96
// 014   ----------------------------------------
 BYTE   W72
 BYTE   N06  Gs1  v100
 BYTE   W06
 BYTE   Cn2
 BYTE   W06
 BYTE   N12  As1
 BYTE   W12
 BYTE   PEND 
// 015   ----------------------------------------
 BYTE   N96  An1
 BYTE   W96
// 016   ----------------------------------------
 BYTE   N48  An1  v100
 BYTE   W48
 BYTE   N24
 BYTE   W24
 BYTE   N24
 BYTE   W24
 BYTE   PEND 
// 017   ----------------------------------------
 BYTE   N24  An1  v100
 BYTE   W24
 BYTE   N24
 BYTE   W24
 BYTE   N24
 BYTE   W24
 BYTE   N24
 BYTE   W24
 BYTE   PEND 
// 018   ----------------------------------------
 BYTE   GoTo
  POIN2 Label_6_01280E0E
 BYTE   FINE

//**************** Track 8 (Midi-Chn.7) ****************//

ArmyA_008:
// 000   ----------------------------------------
 BYTE   KEYSH   ArmyA_key+0
Label_7_01280E6A:
 BYTE   VOICE   47
 BYTE   VOL   44*ArmyA_mvl/mxv
 BYTE   N12  An2  v100
 BYTE   W12
 BYTE   N06  An2  v060
 BYTE   W06
 BYTE   N06
 BYTE   W06
 BYTE   N12  An2  v100
 BYTE   W12
 BYTE   N06  An2  v060
 BYTE   W06
 BYTE   N06
 BYTE   W06
 BYTE   N12  An2  v100
 BYTE   W12
 BYTE   N06  An2  v060
 BYTE   W06
 BYTE   N06
 BYTE   W06
 BYTE   N12  An2  v100
 BYTE   W12
 BYTE   N06  An2  v060
 BYTE   W06
 BYTE   N06
 BYTE   W06
// 001   ----------------------------------------
Label_7_01280E96:
 BYTE   N12  An2  v100
 BYTE   W12
 BYTE   N06  An2  v060
 BYTE   W06
 BYTE   N06
 BYTE   W06
 BYTE   N12  An2  v100
 BYTE   W12
 BYTE   N06  An2  v060
 BYTE   W06
 BYTE   N06
 BYTE   W06
 BYTE   N12  An2  v100
 BYTE   W12
 BYTE   N06  An2  v060
 BYTE   W06
 BYTE   N06
 BYTE   W06
 BYTE   N12  An2  v100
 BYTE   W12
 BYTE   N06  An2  v060
 BYTE   W06
 BYTE   N06
 BYTE   W06
 BYTE   PEND 
// 002   ----------------------------------------
 BYTE   N12  An2  v068
 BYTE   W12
 BYTE   An2  v072
 BYTE   W12
 BYTE   An2  v076
 BYTE   W12
 BYTE   An2  v080
 BYTE   W12
 BYTE   An2  v088
 BYTE   W12
 BYTE   An2  v092
 BYTE   W12
 BYTE   An2  v096
 BYTE   W12
 BYTE   An2  v100
 BYTE   W12
 BYTE   PEND 
 BYTE   PATT
  POIN2 Label_7_01280E96
 BYTE   PATT
  POIN2 Label_7_01280E96
// 003   ----------------------------------------
 BYTE   N12  As2  v100
 BYTE   W24
 BYTE   N04  An2
 BYTE   W04
 BYTE   N04
 BYTE   W04
 BYTE   N04
 BYTE   W04
 BYTE   N12  Gn2
 BYTE   W12
 BYTE   As2
 BYTE   W24
 BYTE   N04  An2
 BYTE   W04
 BYTE   N04
 BYTE   W04
 BYTE   N04
 BYTE   W04
 BYTE   N12  Gn2
 BYTE   W12
 BYTE   PEND 
// 004   ----------------------------------------
 BYTE   N12  As2  v100
 BYTE   W24
 BYTE   N04  An2
 BYTE   W04
 BYTE   N04
 BYTE   W04
 BYTE   N04
 BYTE   W04
 BYTE   N12  Gn2
 BYTE   W12
 BYTE   As2
 BYTE   W24
 BYTE   N12
 BYTE   W12
 BYTE   Gn2
 BYTE   W12
 BYTE   PEND 
 BYTE   PATT
  POIN2 Label_7_01280E96
 BYTE   PATT
  POIN2 Label_7_01280E96
// 005   ----------------------------------------
Label_7_01280F1D:
 BYTE   N12  An2  v100
 BYTE   W36
 BYTE   N04
 BYTE   W04
 BYTE   N04
 BYTE   W04
 BYTE   N04
 BYTE   W04
 BYTE   N12  Dn2
 BYTE   W36
 BYTE   N06  An2
 BYTE   W06
 BYTE   N06
 BYTE   W06
 BYTE   PEND 
 BYTE   PATT
  POIN2 Label_7_01280F1D
 BYTE   PATT
  POIN2 Label_7_01280F1D
 BYTE   PATT
  POIN2 Label_7_01280F1D
// 006   ----------------------------------------
 BYTE   N12  An2  v100
 BYTE   W84
 BYTE   N06
 BYTE   W06
 BYTE   N06
 BYTE   W06
 BYTE   PEND 
// 007   ----------------------------------------
 BYTE   N12  An2  v100
 BYTE   W24
 BYTE   N12
 BYTE   W24
 BYTE   N12
 BYTE   W24
 BYTE   N04
 BYTE   W04
 BYTE   N04
 BYTE   W04
 BYTE   N04
 BYTE   W04
 BYTE   N04
 BYTE   W04
 BYTE   N04
 BYTE   W04
 BYTE   N04
 BYTE   W04
 BYTE   PEND 
// 008   ----------------------------------------
 BYTE   N12  An2  v100
 BYTE   W48
 BYTE   N12
 BYTE   W24
 BYTE   N12
 BYTE   W24
 BYTE   PEND 
// 009   ----------------------------------------
Label_7_01280F66:
 BYTE   N12  An2  v100
 BYTE   W24
 BYTE   N12
 BYTE   W12
 BYTE   N06
 BYTE   W06
 BYTE   N06
 BYTE   W06
 BYTE   N12
 BYTE   W24
 BYTE   N12
 BYTE   W12
 BYTE   N06
 BYTE   W06
 BYTE   N06
 BYTE   W06
 BYTE   PEND 
 BYTE   PATT
  POIN2 Label_7_01280F66
// 010   ----------------------------------------
 BYTE   GoTo
  POIN2 Label_7_01280E6A
 BYTE   FINE

//**************** Track 9 (Midi-Chn.8) ****************//

ArmyA_009:
// 000   ----------------------------------------
 BYTE   KEYSH   ArmyA_key+0
Label_8_01280F86:
 BYTE   VOICE   47
 BYTE   VOL   50*ArmyA_mvl/mxv
 BYTE   N12  An1  v100
 BYTE   W12
 BYTE   N06  An1  v060
 BYTE   W06
 BYTE   N06
 BYTE   W06
 BYTE   N12  An1  v100
 BYTE   W12
 BYTE   N06  An1  v060
 BYTE   W06
 BYTE   N06
 BYTE   W06
 BYTE   N12  An1  v100
 BYTE   W12
 BYTE   N06  An1  v060
 BYTE   W06
 BYTE   N06
 BYTE   W06
 BYTE   N12  An1  v100
 BYTE   W12
 BYTE   N06  An1  v060
 BYTE   W06
 BYTE   N06
 BYTE   W06
// 001   ----------------------------------------
Label_8_01280FB2:
 BYTE   N12  An1  v100
 BYTE   W12
 BYTE   N06  An1  v060
 BYTE   W06
 BYTE   N06
 BYTE   W06
 BYTE   N12  An1  v100
 BYTE   W12
 BYTE   N06  An1  v060
 BYTE   W06
 BYTE   N06
 BYTE   W06
 BYTE   N12  An1  v100
 BYTE   W12
 BYTE   N06  An1  v060
 BYTE   W06
 BYTE   N06
 BYTE   W06
 BYTE   N12  An1  v100
 BYTE   W12
 BYTE   N06  An1  v060
 BYTE   W06
 BYTE   N06
 BYTE   W06
 BYTE   PEND 
// 002   ----------------------------------------
 BYTE   N12  An1  v068
 BYTE   W12
 BYTE   An1  v072
 BYTE   W12
 BYTE   An1  v076
 BYTE   W12
 BYTE   An1  v080
 BYTE   W12
 BYTE   An1  v088
 BYTE   W12
 BYTE   An1  v092
 BYTE   W12
 BYTE   An1  v096
 BYTE   W12
 BYTE   An1  v100
 BYTE   W12
 BYTE   PEND 
 BYTE   PATT
  POIN2 Label_8_01280FB2
 BYTE   PATT
  POIN2 Label_8_01280FB2
// 003   ----------------------------------------
 BYTE   N12  As1  v100
 BYTE   W24
 BYTE   N04  An1
 BYTE   W04
 BYTE   N04
 BYTE   W04
 BYTE   N04
 BYTE   W04
 BYTE   N12  Gn1
 BYTE   W12
 BYTE   As1
 BYTE   W24
 BYTE   N04  An1
 BYTE   W04
 BYTE   N04
 BYTE   W04
 BYTE   N04
 BYTE   W04
 BYTE   N12  Gn1
 BYTE   W12
 BYTE   PEND 
// 004   ----------------------------------------
 BYTE   N12  As1  v100
 BYTE   W24
 BYTE   N04  An1
 BYTE   W04
 BYTE   N04
 BYTE   W04
 BYTE   N04
 BYTE   W04
 BYTE   N12  Gn1
 BYTE   W12
 BYTE   As1
 BYTE   W24
 BYTE   N12
 BYTE   W12
 BYTE   Gn1
 BYTE   W12
 BYTE   PEND 
 BYTE   PATT
  POIN2 Label_8_01280FB2
 BYTE   PATT
  POIN2 Label_8_01280FB2
// 005   ----------------------------------------
Label_8_01281039:
 BYTE   N12  An1  v100
 BYTE   W36
 BYTE   N04
 BYTE   W04
 BYTE   N04
 BYTE   W04
 BYTE   N04
 BYTE   W04
 BYTE   N12  Dn1
 BYTE   W36
 BYTE   N06  An1
 BYTE   W06
 BYTE   N06
 BYTE   W06
 BYTE   PEND 
 BYTE   PATT
  POIN2 Label_8_01281039
 BYTE   PATT
  POIN2 Label_8_01281039
 BYTE   PATT
  POIN2 Label_8_01281039
// 006   ----------------------------------------
 BYTE   N12  An1  v100
 BYTE   W84
 BYTE   N06
 BYTE   W06
 BYTE   N06
 BYTE   W06
 BYTE   PEND 
// 007   ----------------------------------------
 BYTE   N12  An1  v100
 BYTE   W24
 BYTE   N12
 BYTE   W24
 BYTE   N12
 BYTE   W24
 BYTE   N04
 BYTE   W04
 BYTE   N04
 BYTE   W04
 BYTE   N04
 BYTE   W04
 BYTE   N04
 BYTE   W04
 BYTE   N04
 BYTE   W04
 BYTE   N04
 BYTE   W04
 BYTE   PEND 
// 008   ----------------------------------------
 BYTE   N12  An1  v100
 BYTE   W48
 BYTE   N12
 BYTE   W24
 BYTE   N12
 BYTE   W24
 BYTE   PEND 
// 009   ----------------------------------------
Label_8_01281082:
 BYTE   N12  An1  v100
 BYTE   W24
 BYTE   N12
 BYTE   W12
 BYTE   N06
 BYTE   W06
 BYTE   N06
 BYTE   W06
 BYTE   N12
 BYTE   W24
 BYTE   N12
 BYTE   W12
 BYTE   N06
 BYTE   W06
 BYTE   N06
 BYTE   W06
 BYTE   PEND 
 BYTE   PATT
  POIN2 Label_8_01281082
// 010   ----------------------------------------
 BYTE   GoTo
  POIN2 Label_8_01280F86
 BYTE   FINE

//******************************************************//
	ALIGN 4

ArmyA:
	BYTE	9	// NumTrks
	BYTE	0	// NumBlks
	BYTE	ArmyA_pri	// Priority
	BYTE	ArmyA_rev	// Reverb.
    
	POIN2	ArmyA_grp
    
	POIN2	ArmyA_001
	POIN2	ArmyA_002
	POIN2	ArmyA_003
	POIN2	ArmyA_004
	POIN2	ArmyA_005
	POIN2	ArmyA_006
	POIN2	ArmyA_007
	POIN2	ArmyA_008
	POIN2	ArmyA_009

	
