//Event file generated from Sappy .s format.
	#include "MPlayDef.event"

	#define	ArmyOfVerdane_grp  voicegroup000
	#define	ArmyOfVerdane_pri  0
	#define	ArmyOfVerdane_rev  0
	#define	ArmyOfVerdane_mvl  85
	#define	ArmyOfVerdane_key  0
	#define	ArmyOfVerdane_tbs  1
	#define	ArmyOfVerdane_exg  0
	#define	ArmyOfVerdane_cmp  1

	// .rodata
	//	ArmyOfVerdane
	ALIGN 4

//**************** Track 1 (Midi-Chn.2) ****************//

ArmyOfVerdane_1:
	BYTE	KEYSH   ArmyOfVerdane_key+0
// 000   ----------------------------------------
	BYTE	TEMPO   122*ArmyOfVerdane_tbs/2
	BYTE		VOICE   50
	BYTE	W96
// 001   ----------------------------------------
	BYTE	W96
ArmyOfVerdane_1_B1:
// 002   ----------------------------------------
	BYTE	W96
// 003   ----------------------------------------
	BYTE		VOL     127*ArmyOfVerdane_mvl/mxv
	BYTE		PAN     c_v-49
	BYTE	W40
	BYTE		N05     Gs3   v040
	BYTE	W06
	BYTE		        As3 
	BYTE	W06
	BYTE		N40     Cn4   v044
	BYTE	W44
// 004   ----------------------------------------
	BYTE	W96
// 005   ----------------------------------------
	BYTE	W04
	BYTE	W24
	BYTE		N05     Gs2   v052
	BYTE	W06
	BYTE		        As2   v032
	BYTE	W06
	BYTE		        Gs2   v040
	BYTE	W06
	BYTE		        As2 
	BYTE	W06
	BYTE		        Cn3   v044
	BYTE	W06
	BYTE		        Dn3   v032
	BYTE	W06
	BYTE		        Cn3   v040
	BYTE	W06
	BYTE		        Dn3   v032
	BYTE	W06
	BYTE		        Ds3   v044
	BYTE	W06
	BYTE		        Fn3   v028
	BYTE	W06
	BYTE		        Ds3   v040
	BYTE	W06
	BYTE		        Fn3   v032
	BYTE	W02
// 006   ----------------------------------------
	BYTE	W96
// 007   ----------------------------------------
	BYTE	W96
// 008   ----------------------------------------
	BYTE	W04
	BYTE	W72
	BYTE		N04     Gs3   v040
	BYTE	W12
	BYTE		        As3   v044
	BYTE	W08
// 009   ----------------------------------------
	BYTE	W04
	BYTE		N11     Cn4   v040
	BYTE	W12
	BYTE		N03     Dn4 
	BYTE	W12
	BYTE		N44     As3   v044
	BYTE	W68
// 010   ----------------------------------------
	BYTE	W96
// 011   ----------------------------------------
	BYTE	W96
// 012   ----------------------------------------
	BYTE	W04
	BYTE	W48
	BYTE		N05     Fn3 
	BYTE	W06
	BYTE		        Gn3 
	BYTE	W06
	BYTE		        Fn3   v040
	BYTE	W06
	BYTE		        Gn3   v032
	BYTE	W06
	BYTE		        Gs3 
	BYTE	W06
	BYTE		        As3   v028
	BYTE	W06
	BYTE		        Gs3   v032
	BYTE	W06
	BYTE		        As3   v028
	BYTE	W02
// 013   ----------------------------------------
	BYTE	W04
	BYTE		        Cn4   v040
	BYTE	W06
	BYTE		        Dn4   v028
	BYTE	W06
	BYTE		        Cn4   v032
	BYTE	W06
	BYTE		        Dn4 
	BYTE	W06
	BYTE		        Ds4   v028
	BYTE	W06
	BYTE		        Fn4 
	BYTE	W06
	BYTE		        Ds4   v032
	BYTE	W06
	BYTE		        Fn4   v028
	BYTE	W06
	BYTE		        Gn4   v044
	BYTE	W06
	BYTE		        Gs4   v028
	BYTE	W06
	BYTE		        Gn4   v020
	BYTE	W06
	BYTE		        Gs4 
	BYTE	W06
	BYTE		        As4   v032
	BYTE	W06
	BYTE		        Cn5   v028
	BYTE	W06
	BYTE		        As4 
	BYTE	W06
	BYTE		        Cn5   v040
	BYTE	W02
// 014   ----------------------------------------
	BYTE	W96
// 015   ----------------------------------------
	BYTE		PAN     c_v-43
	BYTE	W48
	BYTE		        c_v-25
	BYTE		N05     Gs4   v064
	BYTE	W06
	BYTE		VOL     125*ArmyOfVerdane_mvl/mxv
	BYTE		N03     Gs4   v040
	BYTE	W01
	BYTE		VOL     122*ArmyOfVerdane_mvl/mxv
	BYTE	W01
	BYTE		        118*ArmyOfVerdane_mvl/mxv
	BYTE	W01
	BYTE		        115*ArmyOfVerdane_mvl/mxv
	BYTE	W01
	BYTE		        111*ArmyOfVerdane_mvl/mxv
	BYTE	W01
	BYTE		        107*ArmyOfVerdane_mvl/mxv
	BYTE		N03   
	BYTE	W01
	BYTE		VOL     104*ArmyOfVerdane_mvl/mxv
	BYTE	W01
	BYTE		        100*ArmyOfVerdane_mvl/mxv
	BYTE	W01
	BYTE		        97*ArmyOfVerdane_mvl/mxv
	BYTE	W01
	BYTE		        93*ArmyOfVerdane_mvl/mxv
	BYTE		N03   
	BYTE	W01
	BYTE		VOL     90*ArmyOfVerdane_mvl/mxv
	BYTE	W01
	BYTE		        86*ArmyOfVerdane_mvl/mxv
	BYTE	W01
	BYTE		        83*ArmyOfVerdane_mvl/mxv
	BYTE	W01
	BYTE		        79*ArmyOfVerdane_mvl/mxv
	BYTE	W01
	BYTE		        75*ArmyOfVerdane_mvl/mxv
	BYTE		N03   
	BYTE	W01
	BYTE		VOL     72*ArmyOfVerdane_mvl/mxv
	BYTE	W01
	BYTE		        68*ArmyOfVerdane_mvl/mxv
	BYTE	W01
	BYTE		        65*ArmyOfVerdane_mvl/mxv
	BYTE	W01
	BYTE		        127*ArmyOfVerdane_mvl/mxv
	BYTE		N14     Fn4   v056
	BYTE	W15
	BYTE		N03     Fn4   v032
	BYTE	W05
	BYTE		        Fn4   v020
	BYTE	W04
// 016   ----------------------------------------
	BYTE	W96
// 017   ----------------------------------------
	BYTE	W48
	BYTE		N04     Gn4   v052
	BYTE	W05
	BYTE		N02     Gn4   v032
	BYTE	W04
	BYTE		        Gn4   v020
	BYTE	W03
	BYTE		N03     Gn4   v064
	BYTE	W05
	BYTE		        Gn4   v040
	BYTE	W04
	BYTE		N02     Gn4   v028
	BYTE	W03
	BYTE		N18     Gs4   v052
	BYTE	W19
	BYTE		N04     Gs4   v040
	BYTE	W05
// 018   ----------------------------------------
	BYTE	W96
// 019   ----------------------------------------
	BYTE	W96
// 020   ----------------------------------------
	BYTE	W96
// 021   ----------------------------------------
	BYTE	W96
// 022   ----------------------------------------
	BYTE	W96
// 023   ----------------------------------------
	BYTE	W96
// 024   ----------------------------------------
	BYTE	W96
// 025   ----------------------------------------
	BYTE	W92
	BYTE	W03
	BYTE	GoTo
	 POIN2	ArmyOfVerdane_1_B1
ArmyOfVerdane_1_B2:
	BYTE	FINE

//**************** Track 2 (Midi-Chn.3) ****************//

ArmyOfVerdane_2:
	BYTE	KEYSH   ArmyOfVerdane_key+0
// 000   ----------------------------------------
	BYTE		VOICE   61
	BYTE	W96
// 001   ----------------------------------------
	BYTE	W96
ArmyOfVerdane_2_B1:
// 002   ----------------------------------------
	BYTE	W24
	BYTE		VOL     127*ArmyOfVerdane_mvl/mxv
	BYTE		PAN     c_v-14
	BYTE		N10     Fn2   v084
	BYTE	W18
	BYTE		N04     Fn2   v076
	BYTE	W12
	BYTE		N07     Fn2   v064
	BYTE	W12
	BYTE		N03     Fn2   v076
	BYTE	W18
	BYTE		N10     Fn2   v064
	BYTE	W12
// 003   ----------------------------------------
ArmyOfVerdane_2_003:
	BYTE	W24
	BYTE		N11     Fn2   v084
	BYTE	W18
	BYTE		N05     Fn2   v064
	BYTE	W12
	BYTE		N08   
	BYTE	W12
	BYTE		N04     Fn2   v076
	BYTE	W18
	BYTE		N10     Fn2   v064
	BYTE	W12
	BYTE	PEND
// 004   ----------------------------------------
ArmyOfVerdane_2_004:
	BYTE	W24
	BYTE		N10     As2   v084
	BYTE	W18
	BYTE		N05     As2   v076
	BYTE	W12
	BYTE		N07     As2   v064
	BYTE	W12
	BYTE		N03   
	BYTE	W18
	BYTE		N10     As2   v076
	BYTE	W12
	BYTE	PEND
// 005   ----------------------------------------
	BYTE	W24
	BYTE		N10   
	BYTE	W18
	BYTE		N04     As2   v064
	BYTE	W12
	BYTE		N08   
	BYTE	W12
	BYTE		N02     As2   v076
	BYTE	W12
	BYTE		N11     As2   v072
	BYTE	W18
// 006   ----------------------------------------
	BYTE	W24
	BYTE		N10     Fn2   v084
	BYTE	W18
	BYTE		N04     Fn2   v076
	BYTE	W12
	BYTE		N07     Fn2   v064
	BYTE	W12
	BYTE		N03     Fn2   v076
	BYTE	W18
	BYTE		N10     Fn2   v064
	BYTE	W12
// 007   ----------------------------------------
	BYTE	PATT
	 POIN2	ArmyOfVerdane_2_003
// 008   ----------------------------------------
	BYTE	PATT
	 POIN2	ArmyOfVerdane_2_004
// 009   ----------------------------------------
	BYTE	W24
	BYTE		N10     As2   v076
	BYTE	W18
	BYTE		N04     As2   v064
	BYTE	W12
	BYTE		N08   
	BYTE	W12
	BYTE		N02     As2   v076
	BYTE	W12
	BYTE		N12     As2   v084
	BYTE	W18
// 010   ----------------------------------------
	BYTE	W24
	BYTE		N10     Fn2 
	BYTE	W18
	BYTE		N05     Fn2   v076
	BYTE	W12
	BYTE		N07     Fn2   v064
	BYTE	W12
	BYTE		N03   
	BYTE	W18
	BYTE		N10     Fn2   v076
	BYTE	W12
// 011   ----------------------------------------
	BYTE	W24
	BYTE		N10   
	BYTE	W18
	BYTE		N04     Fn2   v064
	BYTE	W12
	BYTE		N08   
	BYTE	W12
	BYTE		N02     Fn2   v076
	BYTE	W12
	BYTE		N08     Fn2   v064
	BYTE	W18
// 012   ----------------------------------------
	BYTE	PATT
	 POIN2	ArmyOfVerdane_2_004
// 013   ----------------------------------------
	BYTE	W24
	BYTE		N10     As2   v076
	BYTE	W18
	BYTE		N04     As2   v064
	BYTE	W12
	BYTE		N08   
	BYTE	W12
	BYTE		N02     As2   v076
	BYTE	W12
	BYTE		N09     As2   v072
	BYTE	W18
// 014   ----------------------------------------
	BYTE		N04     Fn2 
	BYTE	W12
	BYTE		N02     Fn2   v084
	BYTE	W18
	BYTE		TIE   
	BYTE	W66
// 015   ----------------------------------------
	BYTE	W68
	BYTE	W03
	BYTE		EOT   
	BYTE	W24
	BYTE	W01
// 016   ----------------------------------------
	BYTE		N04     Fn2   v064
	BYTE	W12
	BYTE		N02     Fn2   v084
	BYTE	W18
	BYTE		TIE   
	BYTE	W66
// 017   ----------------------------------------
	BYTE	W68
	BYTE	W03
	BYTE		EOT   
	BYTE	W24
	BYTE	W01
// 018   ----------------------------------------
ArmyOfVerdane_2_018:
	BYTE	W24
	BYTE		N10     Cn2   v084
	BYTE	W18
	BYTE		N05     Cn2   v076
	BYTE	W12
	BYTE		N07     Cn2   v064
	BYTE	W12
	BYTE		N03   
	BYTE	W18
	BYTE		N10     Cn2   v076
	BYTE	W12
	BYTE	PEND
// 019   ----------------------------------------
ArmyOfVerdane_2_019:
	BYTE	W24
	BYTE		N10     Cn2   v076
	BYTE	W18
	BYTE		N04     Cn2   v064
	BYTE	W12
	BYTE		N08   
	BYTE	W12
	BYTE		N02     Cn2   v076
	BYTE	W12
	BYTE		N08     Cn2   v060
	BYTE	W18
	BYTE	PEND
// 020   ----------------------------------------
	BYTE	PATT
	 POIN2	ArmyOfVerdane_2_018
// 021   ----------------------------------------
	BYTE	PATT
	 POIN2	ArmyOfVerdane_2_019
// 022   ----------------------------------------
	BYTE	PATT
	 POIN2	ArmyOfVerdane_2_018
// 023   ----------------------------------------
	BYTE	PATT
	 POIN2	ArmyOfVerdane_2_019
// 024   ----------------------------------------
	BYTE	PATT
	 POIN2	ArmyOfVerdane_2_018
// 025   ----------------------------------------
	BYTE	W24
	BYTE		N10     Cn2   v076
	BYTE	W18
	BYTE		N04     Cn2   v064
	BYTE	W12
	BYTE		N08   
	BYTE	W12
	BYTE		N02     Cn2   v076
	BYTE	W12
	BYTE		N08     Cn2   v060
	BYTE	W17
	BYTE	GoTo
	 POIN2	ArmyOfVerdane_2_B1
ArmyOfVerdane_2_B2:
	BYTE	FINE

//**************** Track 3 (Midi-Chn.4) ****************//

ArmyOfVerdane_3:
	BYTE	KEYSH   ArmyOfVerdane_key+0
// 000   ----------------------------------------
	BYTE		VOICE   50
	BYTE	W96
// 001   ----------------------------------------
	BYTE	W96
ArmyOfVerdane_3_B1:
// 002   ----------------------------------------
	BYTE	W96
// 003   ----------------------------------------
	BYTE		VOL     127*ArmyOfVerdane_mvl/mxv
	BYTE		PAN     c_v-25
	BYTE	W36
	BYTE		N05     Gs3   v072
	BYTE	W06
	BYTE		        As3 
	BYTE	W06
	BYTE		N40     Cn4   v084
	BYTE	W48
// 004   ----------------------------------------
	BYTE	W96
// 005   ----------------------------------------
	BYTE	W24
	BYTE		N05     Gs2   v076
	BYTE	W06
	BYTE		        As2   v060
	BYTE	W06
	BYTE		        Gs2   v064
	BYTE	W06
	BYTE		        As2 
	BYTE	W06
	BYTE		        Cn3   v072
	BYTE	W06
	BYTE		        Dn3   v060
	BYTE	W06
	BYTE		        Cn3   v064
	BYTE	W06
	BYTE		        Dn3   v060
	BYTE	W06
	BYTE		        Ds3   v072
	BYTE	W06
	BYTE		        Fn3   v052
	BYTE	W06
	BYTE		        Ds3   v064
	BYTE	W06
	BYTE		        Fn3   v060
	BYTE	W06
// 006   ----------------------------------------
	BYTE	W96
// 007   ----------------------------------------
	BYTE	W96
// 008   ----------------------------------------
	BYTE	W72
	BYTE		N04     Gs3   v064
	BYTE	W12
	BYTE		        As3   v072
	BYTE	W12
// 009   ----------------------------------------
	BYTE		N11     Cn4   v064
	BYTE	W12
	BYTE		N03     Dn4 
	BYTE	W12
	BYTE		N44     As3   v076
	BYTE	W72
// 010   ----------------------------------------
	BYTE	W96
// 011   ----------------------------------------
	BYTE	W96
// 012   ----------------------------------------
	BYTE	W48
	BYTE		N05     Fn3   v072
	BYTE	W06
	BYTE		        Gn3 
	BYTE	W06
	BYTE		        Fn3   v076
	BYTE	W06
	BYTE		        Gn3   v060
	BYTE	W06
	BYTE		        Gs3 
	BYTE	W06
	BYTE		        As3   v052
	BYTE	W06
	BYTE		        Gs3   v060
	BYTE	W06
	BYTE		        As3   v052
	BYTE	W06
// 013   ----------------------------------------
	BYTE		        Cn4   v064
	BYTE	W06
	BYTE		        Dn4   v052
	BYTE	W06
	BYTE		        Cn4   v060
	BYTE	W06
	BYTE		        Dn4 
	BYTE	W06
	BYTE		        Ds4   v052
	BYTE	W06
	BYTE		        Fn4 
	BYTE	W06
	BYTE		        Ds4   v060
	BYTE	W06
	BYTE		        Fn4   v052
	BYTE	W06
	BYTE		        Gn4   v072
	BYTE	W06
	BYTE		        Gs4   v052
	BYTE	W06
	BYTE		        Gn4   v040
	BYTE	W06
	BYTE		        Gs4   v044
	BYTE	W06
	BYTE		        As4   v060
	BYTE	W06
	BYTE		        Cn5   v052
	BYTE	W06
	BYTE		        As4 
	BYTE	W06
	BYTE		        Cn5   v064
	BYTE	W06
// 014   ----------------------------------------
	BYTE	W96
// 015   ----------------------------------------
	BYTE	W48
	BYTE		        Ds5 
	BYTE	W06
	BYTE		VOL     125*ArmyOfVerdane_mvl/mxv
	BYTE		N03     Ds5   v040
	BYTE	W01
	BYTE		VOL     122*ArmyOfVerdane_mvl/mxv
	BYTE	W01
	BYTE		        118*ArmyOfVerdane_mvl/mxv
	BYTE	W01
	BYTE		        115*ArmyOfVerdane_mvl/mxv
	BYTE	W01
	BYTE		        111*ArmyOfVerdane_mvl/mxv
	BYTE	W01
	BYTE		        107*ArmyOfVerdane_mvl/mxv
	BYTE		N03   
	BYTE	W01
	BYTE		VOL     104*ArmyOfVerdane_mvl/mxv
	BYTE	W01
	BYTE		        100*ArmyOfVerdane_mvl/mxv
	BYTE	W01
	BYTE		        97*ArmyOfVerdane_mvl/mxv
	BYTE	W01
	BYTE		        93*ArmyOfVerdane_mvl/mxv
	BYTE		N03   
	BYTE	W01
	BYTE		VOL     90*ArmyOfVerdane_mvl/mxv
	BYTE	W01
	BYTE		        86*ArmyOfVerdane_mvl/mxv
	BYTE	W01
	BYTE		        83*ArmyOfVerdane_mvl/mxv
	BYTE	W01
	BYTE		        79*ArmyOfVerdane_mvl/mxv
	BYTE	W01
	BYTE		        75*ArmyOfVerdane_mvl/mxv
	BYTE		N03   
	BYTE	W01
	BYTE		VOL     72*ArmyOfVerdane_mvl/mxv
	BYTE	W01
	BYTE		        68*ArmyOfVerdane_mvl/mxv
	BYTE	W01
	BYTE		        65*ArmyOfVerdane_mvl/mxv
	BYTE	W01
	BYTE		        127*ArmyOfVerdane_mvl/mxv
	BYTE		N14     Cn5   v060
	BYTE	W15
	BYTE		N03     Cn5   v032
	BYTE	W05
	BYTE		        Cn5   v020
	BYTE	W04
// 016   ----------------------------------------
	BYTE	W96
// 017   ----------------------------------------
	BYTE	W48
	BYTE		N04     Cn5   v056
	BYTE	W05
	BYTE		N02     Cn5   v032
	BYTE	W04
	BYTE		        Cn5   v020
	BYTE	W03
	BYTE		N03     Cn5   v068
	BYTE	W05
	BYTE		        Cn5   v040
	BYTE	W04
	BYTE		N02     Cn5   v028
	BYTE	W03
	BYTE		N18     Ds5   v052
	BYTE	W19
	BYTE		N04     Ds5   v040
	BYTE	W05
// 018   ----------------------------------------
	BYTE	W96
// 019   ----------------------------------------
	BYTE	W96
// 020   ----------------------------------------
	BYTE	W96
// 021   ----------------------------------------
	BYTE	W96
// 022   ----------------------------------------
	BYTE	W96
// 023   ----------------------------------------
	BYTE	W96
// 024   ----------------------------------------
	BYTE	W96
// 025   ----------------------------------------
	BYTE	W92
	BYTE	W03
	BYTE	GoTo
	 POIN2	ArmyOfVerdane_3_B1
ArmyOfVerdane_3_B2:
	BYTE	FINE

//**************** Track 4 (Midi-Chn.5) ****************//

ArmyOfVerdane_4:
	BYTE		VOL     127*ArmyOfVerdane_mvl/mxv
	BYTE	KEYSH   ArmyOfVerdane_key+0
// 000   ----------------------------------------
	BYTE		VOICE   51
	BYTE	W96
// 001   ----------------------------------------
	BYTE	W96
ArmyOfVerdane_4_B1:
// 002   ----------------------------------------
	BYTE	W12
	BYTE		N05     Fn3   v044
	BYTE	W06
	BYTE		        Gn3   v052
	BYTE	W06
	BYTE		N04     Gs3   v064
	BYTE	W12
	BYTE		N05   
	BYTE	W12
	BYTE		N11   
	BYTE	W12
	BYTE		N05     As3   v060
	BYTE	W12
	BYTE		N08     As3   v064
	BYTE	W12
	BYTE		N05     Gn3   v052
	BYTE	W12
// 003   ----------------------------------------
	BYTE		        Fn3   v056
	BYTE	W06
	BYTE		        Gn3 
	BYTE	W06
	BYTE		VOL     115*ArmyOfVerdane_mvl/mxv
	BYTE		N72     Gs3   v076
	BYTE	W01
	BYTE		VOL     116*ArmyOfVerdane_mvl/mxv
	BYTE	W02
	BYTE		        117*ArmyOfVerdane_mvl/mxv
	BYTE	W02
	BYTE		        118*ArmyOfVerdane_mvl/mxv
	BYTE	W02
	BYTE		        119*ArmyOfVerdane_mvl/mxv
	BYTE	W02
	BYTE		        120*ArmyOfVerdane_mvl/mxv
	BYTE	W02
	BYTE		        121*ArmyOfVerdane_mvl/mxv
	BYTE	W03
	BYTE		        122*ArmyOfVerdane_mvl/mxv
	BYTE	W02
	BYTE		        123*ArmyOfVerdane_mvl/mxv
	BYTE	W02
	BYTE		        124*ArmyOfVerdane_mvl/mxv
	BYTE	W02
	BYTE		        125*ArmyOfVerdane_mvl/mxv
	BYTE	W02
	BYTE		        126*ArmyOfVerdane_mvl/mxv
	BYTE	W02
	BYTE		        127*ArmyOfVerdane_mvl/mxv
	BYTE	W60
// 004   ----------------------------------------
	BYTE	W12
	BYTE		N05     Fn3   v060
	BYTE	W06
	BYTE		        Gn3   v044
	BYTE	W06
	BYTE		N06     Gs3   v064
	BYTE	W12
	BYTE		N04     Gs3   v060
	BYTE	W12
	BYTE		N11     Gs3   v064
	BYTE	W12
	BYTE		N05     As3 
	BYTE	W12
	BYTE		N08   
	BYTE	W12
	BYTE		N05     Gn3   v060
	BYTE	W12
// 005   ----------------------------------------
	BYTE		        Fn3   v052
	BYTE	W06
	BYTE		        Gn3   v060
	BYTE	W06
	BYTE		VOL     117*ArmyOfVerdane_mvl/mxv
	BYTE		N52     Gs3   v072
	BYTE	W01
	BYTE		VOL     118*ArmyOfVerdane_mvl/mxv
	BYTE	W02
	BYTE		        119*ArmyOfVerdane_mvl/mxv
	BYTE	W02
	BYTE		        120*ArmyOfVerdane_mvl/mxv
	BYTE	W02
	BYTE		        121*ArmyOfVerdane_mvl/mxv
	BYTE	W02
	BYTE		        122*ArmyOfVerdane_mvl/mxv
	BYTE	W02
	BYTE		        123*ArmyOfVerdane_mvl/mxv
	BYTE	W02
	BYTE		        124*ArmyOfVerdane_mvl/mxv
	BYTE	W02
	BYTE		        125*ArmyOfVerdane_mvl/mxv
	BYTE	W02
	BYTE		        126*ArmyOfVerdane_mvl/mxv
	BYTE	W02
	BYTE		        127*ArmyOfVerdane_mvl/mxv
	BYTE	W40
	BYTE	W01
	BYTE		N05     Cn4   v052
	BYTE	W12
	BYTE		N05   
	BYTE	W12
// 006   ----------------------------------------
	BYTE		N09     Cn4   v076
	BYTE	W12
	BYTE		PAN     c_v+25
	BYTE		N03     Gn4   v072
	BYTE	W12
	BYTE		PAN     c_v+14
	BYTE		N04     Cn4   v060
	BYTE	W12
	BYTE		        Cn4   v064
	BYTE	W12
	BYTE		N17     Cn4   v076
	BYTE	W24
	BYTE		N05     Gs3   v064
	BYTE	W12
	BYTE		N04     Gs3   v060
	BYTE	W12
// 007   ----------------------------------------
	BYTE		N09     Gs3   v064
	BYTE	W12
	BYTE		PAN     c_v+25
	BYTE		N03     Dn4   v072
	BYTE	W12
	BYTE		PAN     c_v+14
	BYTE		N03     Gs3   v064
	BYTE	W12
	BYTE		N02     Gs3   v052
	BYTE	W12
	BYTE		N23     Gs3   v064
	BYTE	W24
	BYTE		N05     Fn3 
	BYTE	W12
	BYTE		N04   
	BYTE	W12
// 008   ----------------------------------------
	BYTE		N11     Fn3   v052
	BYTE	W12
	BYTE		N03     As3   v056
	BYTE	W12
	BYTE		N11     Fn3   v064
	BYTE	W12
	BYTE		N52     Fn3   v072
	BYTE	W60
// 009   ----------------------------------------
	BYTE	W72
	BYTE		N05     Cn4   v064
	BYTE	W12
	BYTE		N05   
	BYTE	W12
// 010   ----------------------------------------
	BYTE		N09     Cn4   v076
	BYTE	W12
	BYTE		PAN     c_v+25
	BYTE		N03     Gn4   v072
	BYTE	W12
	BYTE		PAN     c_v+14
	BYTE		N04     Cn4   v056
	BYTE	W12
	BYTE		        Cn4   v068
	BYTE	W12
	BYTE		N17     Cn4   v076
	BYTE	W24
	BYTE		N05     Gs3   v064
	BYTE	W12
	BYTE		N04     Gs3   v060
	BYTE	W12
// 011   ----------------------------------------
	BYTE		N09     Gs3   v064
	BYTE	W12
	BYTE		PAN     c_v+25
	BYTE		N04     Dn4   v072
	BYTE	W12
	BYTE		PAN     c_v+14
	BYTE		N04     Gs3   v064
	BYTE	W12
	BYTE		        Gs3   v052
	BYTE	W12
	BYTE		N22     Gs3   v064
	BYTE	W24
	BYTE		N05     Fn3 
	BYTE	W12
	BYTE		N04   
	BYTE	W12
// 012   ----------------------------------------
	BYTE		N11     Fn3   v052
	BYTE	W12
	BYTE		N04     As3 
	BYTE	W12
	BYTE		N11     Fn3   v064
	BYTE	W12
	BYTE		VOL     115*ArmyOfVerdane_mvl/mxv
	BYTE		N52     Fn3   v068
	BYTE	W01
	BYTE		VOL     116*ArmyOfVerdane_mvl/mxv
	BYTE	W02
	BYTE		        117*ArmyOfVerdane_mvl/mxv
	BYTE	W02
	BYTE		        118*ArmyOfVerdane_mvl/mxv
	BYTE	W02
	BYTE		        119*ArmyOfVerdane_mvl/mxv
	BYTE	W02
	BYTE		        120*ArmyOfVerdane_mvl/mxv
	BYTE	W02
	BYTE		        121*ArmyOfVerdane_mvl/mxv
	BYTE	W03
	BYTE		        122*ArmyOfVerdane_mvl/mxv
	BYTE	W02
	BYTE		        123*ArmyOfVerdane_mvl/mxv
	BYTE	W02
	BYTE		        124*ArmyOfVerdane_mvl/mxv
	BYTE	W02
	BYTE		        125*ArmyOfVerdane_mvl/mxv
	BYTE	W02
	BYTE		        126*ArmyOfVerdane_mvl/mxv
	BYTE	W02
	BYTE		        127*ArmyOfVerdane_mvl/mxv
	BYTE	W36
// 013   ----------------------------------------
	BYTE	W96
// 014   ----------------------------------------
	BYTE		PAN     c_v-25
	BYTE	W24
	BYTE		N24     Gn2   v060
	BYTE	W36
	BYTE		N15     Gs2   v052
	BYTE	W24
	BYTE		N02     As2   v064
	BYTE	W12
// 015   ----------------------------------------
	BYTE		N16     Gn2 
	BYTE	W24
	BYTE		N20     Gs2   v072
	BYTE	W24
	BYTE		N09     As3   v076
	BYTE	W24
	BYTE		N16     Gn3   v072
	BYTE	W24
// 016   ----------------------------------------
	BYTE	W24
	BYTE		N24     Gn2   v052
	BYTE	W36
	BYTE		N15     Gs2 
	BYTE	W24
	BYTE		N03     As2   v064
	BYTE	W12
// 017   ----------------------------------------
	BYTE		N16     Gn2 
	BYTE	W24
	BYTE		N20     Gs2   v072
	BYTE	W24
	BYTE		N04     Gn3   v064
	BYTE	W12
	BYTE		N04   
	BYTE	W12
	BYTE		N19     As3 
	BYTE	W24
// 018   ----------------------------------------
	BYTE	W96
// 019   ----------------------------------------
	BYTE		N10     Cn3   v060
	BYTE	W12
	BYTE		N05     Dn3 
	BYTE	W06
	BYTE		        Cn3   v052
	BYTE	W06
	BYTE		N04     As2   v076
	BYTE	W12
	BYTE		N02     An2   v072
	BYTE	W12
	BYTE		N23     As2   v064
	BYTE	W48
// 020   ----------------------------------------
	BYTE		N11     Gn2 
	BYTE	W12
	BYTE		N05     Gs2   v060
	BYTE	W06
	BYTE		        Gn2   v052
	BYTE	W06
	BYTE		N04     Fn2   v060
	BYTE	W12
	BYTE		N03     Ds2   v064
	BYTE	W12
	BYTE		N20     Dn2 
	BYTE	W24
	BYTE		        Cn2 
	BYTE	W24
// 021   ----------------------------------------
	BYTE	W96
// 022   ----------------------------------------
	BYTE		N22     Dn2   v072
	BYTE	W24
	BYTE		N05     Ds2   v064
	BYTE	W12
	BYTE		N04     Fn2 
	BYTE	W12
	BYTE		N19     Ds2   v072
	BYTE	W24
	BYTE		VOL     117*ArmyOfVerdane_mvl/mxv
	BYTE		N28     Ds2   v056
	BYTE	W01
	BYTE		VOL     118*ArmyOfVerdane_mvl/mxv
	BYTE	W02
	BYTE		        119*ArmyOfVerdane_mvl/mxv
	BYTE	W02
	BYTE		        120*ArmyOfVerdane_mvl/mxv
	BYTE	W02
	BYTE		        121*ArmyOfVerdane_mvl/mxv
	BYTE	W02
	BYTE		        122*ArmyOfVerdane_mvl/mxv
	BYTE	W02
	BYTE		        123*ArmyOfVerdane_mvl/mxv
	BYTE	W02
	BYTE		        124*ArmyOfVerdane_mvl/mxv
	BYTE	W02
	BYTE		        125*ArmyOfVerdane_mvl/mxv
	BYTE	W02
	BYTE		        126*ArmyOfVerdane_mvl/mxv
	BYTE	W02
	BYTE		        127*ArmyOfVerdane_mvl/mxv
	BYTE	W05
// 023   ----------------------------------------
	BYTE	W12
	BYTE		N02     Gn2   v072
	BYTE	W12
	BYTE		N04     Fn2 
	BYTE	W12
	BYTE		N02     Gn2   v084
	BYTE	W12
	BYTE		N20     Fn2   v064
	BYTE	W24
	BYTE		N19     Ds2   v076
	BYTE	W24
// 024   ----------------------------------------
	BYTE		PAN     c_v+14
	BYTE		N22     Gs3   v052
	BYTE	W24
	BYTE		N16     As3   v064
	BYTE	W18
	BYTE		        Cn4   v060
	BYTE	W18
	BYTE		N03     As3 
	BYTE	W12
	BYTE		        Gs3   v064
	BYTE	W12
	BYTE		        Gn3   v060
	BYTE	W12
// 025   ----------------------------------------
	BYTE		N16     Fn3   v056
	BYTE	W24
	BYTE		N15     Gn3   v060
	BYTE	W18
	BYTE		VOL     108*ArmyOfVerdane_mvl/mxv
	BYTE		N48     Ds3   v088
	BYTE	W01
	BYTE		VOL     109*ArmyOfVerdane_mvl/mxv
	BYTE	W01
	BYTE		        110*ArmyOfVerdane_mvl/mxv
	BYTE	W01
	BYTE		        111*ArmyOfVerdane_mvl/mxv
	BYTE	W01
	BYTE		        112*ArmyOfVerdane_mvl/mxv
	BYTE	W01
	BYTE		        113*ArmyOfVerdane_mvl/mxv
	BYTE	W01
	BYTE		        114*ArmyOfVerdane_mvl/mxv
	BYTE	W01
	BYTE		        115*ArmyOfVerdane_mvl/mxv
	BYTE	W01
	BYTE		        116*ArmyOfVerdane_mvl/mxv
	BYTE	W01
	BYTE		        117*ArmyOfVerdane_mvl/mxv
	BYTE	W01
	BYTE		        118*ArmyOfVerdane_mvl/mxv
	BYTE	W01
	BYTE		        119*ArmyOfVerdane_mvl/mxv
	BYTE	W01
	BYTE		        120*ArmyOfVerdane_mvl/mxv
	BYTE	W01
	BYTE		        121*ArmyOfVerdane_mvl/mxv
	BYTE	W01
	BYTE		        122*ArmyOfVerdane_mvl/mxv
	BYTE	W01
	BYTE		        123*ArmyOfVerdane_mvl/mxv
	BYTE	W01
	BYTE		        124*ArmyOfVerdane_mvl/mxv
	BYTE	W01
	BYTE		        125*ArmyOfVerdane_mvl/mxv
	BYTE	W01
	BYTE		        126*ArmyOfVerdane_mvl/mxv
	BYTE	W01
	BYTE		        127*ArmyOfVerdane_mvl/mxv
	BYTE	W32
	BYTE	W02
	BYTE	GoTo
	 POIN2	ArmyOfVerdane_4_B1
ArmyOfVerdane_4_B2:
	BYTE	FINE

//**************** Track 5 (Midi-Chn.6) ****************//

ArmyOfVerdane_5:
	BYTE	KEYSH   ArmyOfVerdane_key+0
// 000   ----------------------------------------
	BYTE		VOICE   51
	BYTE		VOL     127*ArmyOfVerdane_mvl/mxv
	BYTE		PAN     c_v-14
	BYTE	W24
	BYTE		N10     Fn2   v084
	BYTE	W18
	BYTE		N04     Fn2   v076
	BYTE	W12
	BYTE		N07     Fn2   v064
	BYTE	W12
	BYTE		N03     Fn2   v076
	BYTE	W18
	BYTE		N10     Fn2   v064
	BYTE	W12
// 001   ----------------------------------------
	BYTE	W24
	BYTE		N11     Fn2   v084
	BYTE	W18
	BYTE		N05     Fn2   v064
	BYTE	W12
	BYTE		N08   
	BYTE	W12
	BYTE		N04     Fn2   v076
	BYTE	W18
	BYTE		N10     Fn2   v064
	BYTE	W12
ArmyOfVerdane_5_B1:
// 002   ----------------------------------------
	BYTE	W12
	BYTE		N05     Gs3   v052
	BYTE	W06
	BYTE		        As3   v060
	BYTE	W06
	BYTE		N04     Cn4   v064
	BYTE	W12
	BYTE		N05   
	BYTE	W12
	BYTE		N11     Cn4   v072
	BYTE	W12
	BYTE		N05     Dn4 
	BYTE	W12
	BYTE		N08     Dn4   v064
	BYTE	W12
	BYTE		N05     As3   v060
	BYTE	W12
// 003   ----------------------------------------
	BYTE		        Gs3   v064
	BYTE	W06
	BYTE		        As3 
	BYTE	W06
	BYTE		VOL     115*ArmyOfVerdane_mvl/mxv
	BYTE		N72     Cn4   v080
	BYTE	W01
	BYTE		VOL     116*ArmyOfVerdane_mvl/mxv
	BYTE	W02
	BYTE		        117*ArmyOfVerdane_mvl/mxv
	BYTE	W02
	BYTE		        118*ArmyOfVerdane_mvl/mxv
	BYTE	W02
	BYTE		        119*ArmyOfVerdane_mvl/mxv
	BYTE	W02
	BYTE		        120*ArmyOfVerdane_mvl/mxv
	BYTE	W02
	BYTE		        121*ArmyOfVerdane_mvl/mxv
	BYTE	W03
	BYTE		        122*ArmyOfVerdane_mvl/mxv
	BYTE	W02
	BYTE		        123*ArmyOfVerdane_mvl/mxv
	BYTE	W02
	BYTE		        124*ArmyOfVerdane_mvl/mxv
	BYTE	W02
	BYTE		        125*ArmyOfVerdane_mvl/mxv
	BYTE	W02
	BYTE		        126*ArmyOfVerdane_mvl/mxv
	BYTE	W02
	BYTE		        127*ArmyOfVerdane_mvl/mxv
	BYTE	W60
// 004   ----------------------------------------
	BYTE	W12
	BYTE		N05     Gs3   v064
	BYTE	W06
	BYTE		        As3   v052
	BYTE	W06
	BYTE		N06     Cn4   v072
	BYTE	W12
	BYTE		N04     Cn4   v064
	BYTE	W12
	BYTE		N11     Cn4   v084
	BYTE	W12
	BYTE		N05     Dn4   v072
	BYTE	W12
	BYTE		N08   
	BYTE	W12
	BYTE		N05     As3   v064
	BYTE	W12
// 005   ----------------------------------------
	BYTE		        Gs3 
	BYTE	W06
	BYTE		        As3 
	BYTE	W06
	BYTE		VOL     117*ArmyOfVerdane_mvl/mxv
	BYTE		N52     Cn4   v084
	BYTE	W01
	BYTE		VOL     118*ArmyOfVerdane_mvl/mxv
	BYTE	W02
	BYTE		        119*ArmyOfVerdane_mvl/mxv
	BYTE	W02
	BYTE		        120*ArmyOfVerdane_mvl/mxv
	BYTE	W02
	BYTE		        121*ArmyOfVerdane_mvl/mxv
	BYTE	W02
	BYTE		        122*ArmyOfVerdane_mvl/mxv
	BYTE	W02
	BYTE		        123*ArmyOfVerdane_mvl/mxv
	BYTE	W02
	BYTE		        124*ArmyOfVerdane_mvl/mxv
	BYTE	W02
	BYTE		        125*ArmyOfVerdane_mvl/mxv
	BYTE	W02
	BYTE		        126*ArmyOfVerdane_mvl/mxv
	BYTE	W02
	BYTE		        127*ArmyOfVerdane_mvl/mxv
	BYTE	W40
	BYTE	W01
	BYTE		N05     Fn4   v064
	BYTE	W12
	BYTE		        Gn4   v060
	BYTE	W12
// 006   ----------------------------------------
	BYTE		N10     Gs4   v076
	BYTE	W24
	BYTE		N04     Fn4   v084
	BYTE	W12
	BYTE		        En4 
	BYTE	W12
	BYTE		N17     Fn4   v088
	BYTE	W24
	BYTE		N05     Cn4   v084
	BYTE	W12
	BYTE		N04     Dn4 
	BYTE	W12
// 007   ----------------------------------------
	BYTE		N10     Ds4   v072
	BYTE	W24
	BYTE		N03     Cn4   v084
	BYTE	W12
	BYTE		N02     Bn3 
	BYTE	W12
	BYTE		N23     Cn4 
	BYTE	W24
	BYTE		N05     Gs3   v064
	BYTE	W12
	BYTE		N04     As3   v072
	BYTE	W12
// 008   ----------------------------------------
	BYTE		N11     Cn4   v064
	BYTE	W12
	BYTE		N03     Dn4 
	BYTE	W12
	BYTE		N11     As3   v072
	BYTE	W12
	BYTE		N52     As3   v080
	BYTE	W60
// 009   ----------------------------------------
	BYTE	W72
	BYTE		N05     Fn4   v072
	BYTE	W12
	BYTE		        Gn4   v064
	BYTE	W12
// 010   ----------------------------------------
	BYTE		N10     Gs4   v084
	BYTE	W24
	BYTE		N04     Fn4 
	BYTE	W12
	BYTE		        En4 
	BYTE	W12
	BYTE		N17     Fn4 
	BYTE	W24
	BYTE		N05     Cn4 
	BYTE	W12
	BYTE		N04     Dn4 
	BYTE	W12
// 011   ----------------------------------------
	BYTE		N10     Ds4   v072
	BYTE	W24
	BYTE		N04     Cn4   v084
	BYTE	W12
	BYTE		        Bn3 
	BYTE	W12
	BYTE		N22     Cn4 
	BYTE	W24
	BYTE		N05     Gs3   v064
	BYTE	W12
	BYTE		N04     As3   v072
	BYTE	W12
// 012   ----------------------------------------
	BYTE		N11     Cn4   v064
	BYTE	W12
	BYTE		N04     Dn4 
	BYTE	W12
	BYTE		N11     As3   v072
	BYTE	W12
	BYTE		VOL     115*ArmyOfVerdane_mvl/mxv
	BYTE		N52     As3   v076
	BYTE	W01
	BYTE		VOL     116*ArmyOfVerdane_mvl/mxv
	BYTE	W02
	BYTE		        117*ArmyOfVerdane_mvl/mxv
	BYTE	W02
	BYTE		        118*ArmyOfVerdane_mvl/mxv
	BYTE	W02
	BYTE		        119*ArmyOfVerdane_mvl/mxv
	BYTE	W02
	BYTE		        120*ArmyOfVerdane_mvl/mxv
	BYTE	W02
	BYTE		        121*ArmyOfVerdane_mvl/mxv
	BYTE	W03
	BYTE		        122*ArmyOfVerdane_mvl/mxv
	BYTE	W02
	BYTE		        123*ArmyOfVerdane_mvl/mxv
	BYTE	W02
	BYTE		        124*ArmyOfVerdane_mvl/mxv
	BYTE	W02
	BYTE		        125*ArmyOfVerdane_mvl/mxv
	BYTE	W02
	BYTE		        126*ArmyOfVerdane_mvl/mxv
	BYTE	W02
	BYTE		        127*ArmyOfVerdane_mvl/mxv
	BYTE	W36
// 013   ----------------------------------------
	BYTE	W96
// 014   ----------------------------------------
	BYTE		PAN     c_v+25
	BYTE	W24
	BYTE		N24     Dn3   v064
	BYTE	W36
	BYTE		N15     Ds3 
	BYTE	W24
	BYTE		N02     Fn3   v072
	BYTE	W12
// 015   ----------------------------------------
	BYTE		N16     Dn3 
	BYTE	W24
	BYTE		N20     Ds3   v084
	BYTE	W24
	BYTE		N09     Ds4 
	BYTE	W24
	BYTE		N16     Cn4   v076
	BYTE	W24
// 016   ----------------------------------------
	BYTE	W24
	BYTE		N24     Dn3   v064
	BYTE	W36
	BYTE		N15     Ds3 
	BYTE	W24
	BYTE		N03     Fn3   v072
	BYTE	W12
// 017   ----------------------------------------
	BYTE		N16     Dn3 
	BYTE	W24
	BYTE		N20     Ds3   v084
	BYTE	W24
	BYTE		N04     Cn4   v076
	BYTE	W12
	BYTE		N04   
	BYTE	W12
	BYTE		N19     Ds4 
	BYTE	W24
// 018   ----------------------------------------
	BYTE	W96
// 019   ----------------------------------------
	BYTE		N10     Ds4   v072
	BYTE	W12
	BYTE		N05     Fn4   v064
	BYTE	W06
	BYTE		        Ds4   v060
	BYTE	W06
	BYTE		N04     Dn4   v084
	BYTE	W12
	BYTE		N02     Cn4 
	BYTE	W12
	BYTE		N23     Dn4   v072
	BYTE	W48
// 020   ----------------------------------------
	BYTE		N11     As3 
	BYTE	W12
	BYTE		N05     Cn4   v064
	BYTE	W06
	BYTE		        As3   v060
	BYTE	W06
	BYTE		N04     Gs3   v064
	BYTE	W12
	BYTE		N03     Gn3   v072
	BYTE	W12
	BYTE		N20     Fn3 
	BYTE	W24
	BYTE		        Ds3 
	BYTE	W24
// 021   ----------------------------------------
	BYTE	W96
// 022   ----------------------------------------
	BYTE		N22     Fn3 
	BYTE	W24
	BYTE		N05     Gn3 
	BYTE	W12
	BYTE		N04     Gs3   v064
	BYTE	W12
	BYTE		N19     Gn3   v072
	BYTE	W24
	BYTE		VOL     117*ArmyOfVerdane_mvl/mxv
	BYTE		N28     Cn4   v068
	BYTE	W01
	BYTE		VOL     118*ArmyOfVerdane_mvl/mxv
	BYTE	W02
	BYTE		        119*ArmyOfVerdane_mvl/mxv
	BYTE	W02
	BYTE		        120*ArmyOfVerdane_mvl/mxv
	BYTE	W02
	BYTE		        121*ArmyOfVerdane_mvl/mxv
	BYTE	W02
	BYTE		        122*ArmyOfVerdane_mvl/mxv
	BYTE	W02
	BYTE		        123*ArmyOfVerdane_mvl/mxv
	BYTE	W02
	BYTE		        124*ArmyOfVerdane_mvl/mxv
	BYTE	W02
	BYTE		        125*ArmyOfVerdane_mvl/mxv
	BYTE	W02
	BYTE		        126*ArmyOfVerdane_mvl/mxv
	BYTE	W02
	BYTE		        127*ArmyOfVerdane_mvl/mxv
	BYTE	W05
// 023   ----------------------------------------
	BYTE	W12
	BYTE		N04     Cn4   v064
	BYTE	W12
	BYTE		        Cn4   v072
	BYTE	W12
	BYTE		        Cn4   v064
	BYTE	W12
	BYTE		N20     Cn4   v072
	BYTE	W24
	BYTE		N19     Cn4   v084
	BYTE	W24
// 024   ----------------------------------------
	BYTE		N22     Cn4   v060
	BYTE	W24
	BYTE		N16     Cs4   v072
	BYTE	W18
	BYTE		        Ds4 
	BYTE	W18
	BYTE		N03     Cs4   v064
	BYTE	W12
	BYTE		        Cn4   v072
	BYTE	W12
	BYTE		        As3   v064
	BYTE	W12
// 025   ----------------------------------------
	BYTE		N16     Gs3   v060
	BYTE	W24
	BYTE		N15     As3   v068
	BYTE	W18
	BYTE		VOL     108*ArmyOfVerdane_mvl/mxv
	BYTE		N48     Gn3   v080
	BYTE	W01
	BYTE		VOL     109*ArmyOfVerdane_mvl/mxv
	BYTE	W01
	BYTE		        110*ArmyOfVerdane_mvl/mxv
	BYTE	W01
	BYTE		        111*ArmyOfVerdane_mvl/mxv
	BYTE	W01
	BYTE		        112*ArmyOfVerdane_mvl/mxv
	BYTE	W01
	BYTE		        113*ArmyOfVerdane_mvl/mxv
	BYTE	W01
	BYTE		        114*ArmyOfVerdane_mvl/mxv
	BYTE	W01
	BYTE		        115*ArmyOfVerdane_mvl/mxv
	BYTE	W01
	BYTE		        116*ArmyOfVerdane_mvl/mxv
	BYTE	W01
	BYTE		        117*ArmyOfVerdane_mvl/mxv
	BYTE	W01
	BYTE		        118*ArmyOfVerdane_mvl/mxv
	BYTE	W01
	BYTE		        119*ArmyOfVerdane_mvl/mxv
	BYTE	W01
	BYTE		        120*ArmyOfVerdane_mvl/mxv
	BYTE	W01
	BYTE		        121*ArmyOfVerdane_mvl/mxv
	BYTE	W01
	BYTE		        122*ArmyOfVerdane_mvl/mxv
	BYTE	W01
	BYTE		        123*ArmyOfVerdane_mvl/mxv
	BYTE	W01
	BYTE		        124*ArmyOfVerdane_mvl/mxv
	BYTE	W01
	BYTE		        125*ArmyOfVerdane_mvl/mxv
	BYTE	W01
	BYTE		        126*ArmyOfVerdane_mvl/mxv
	BYTE	W01
	BYTE		        127*ArmyOfVerdane_mvl/mxv
	BYTE	W32
	BYTE	W02
	BYTE	GoTo
	 POIN2	ArmyOfVerdane_5_B1
ArmyOfVerdane_5_B2:
	BYTE	FINE

//**************** Track 6 (Midi-Chn.7) ****************//

ArmyOfVerdane_6:
	BYTE	KEYSH   ArmyOfVerdane_key+0
// 000   ----------------------------------------
	BYTE		VOICE   48
	BYTE		VOL     127*ArmyOfVerdane_mvl/mxv
	BYTE		PAN     c_v+14
	BYTE		N40     Fn1   v084
	BYTE	W48
	BYTE		N19   
	BYTE	W24
	BYTE		N15     Fn1   v072
	BYTE	W24
// 001   ----------------------------------------
	BYTE		N36     Fn1   v084
	BYTE	W48
	BYTE		N19     Fn1   v092
	BYTE	W24
	BYTE		N15     Fn1   v084
	BYTE	W24
ArmyOfVerdane_6_B1:
// 002   ----------------------------------------
	BYTE		N36     Fn1   v084
	BYTE	W48
	BYTE		N17   
	BYTE	W24
	BYTE		N14     Fn1   v072
	BYTE	W24
// 003   ----------------------------------------
ArmyOfVerdane_6_003:
	BYTE		N32     Fn1   v084
	BYTE	W48
	BYTE		N17     Fn1   v092
	BYTE	W24
	BYTE		N14     Fn1   v084
	BYTE	W24
	BYTE	PEND
// 004   ----------------------------------------
ArmyOfVerdane_6_004:
	BYTE		N36     As1   v092
	BYTE	W48
	BYTE		N17     As1   v072
	BYTE	W24
	BYTE		N14   
	BYTE	W24
	BYTE	PEND
// 005   ----------------------------------------
ArmyOfVerdane_6_005:
	BYTE		N32     As1   v072
	BYTE	W48
	BYTE		N17   
	BYTE	W24
	BYTE		N14     As1   v084
	BYTE	W24
	BYTE	PEND
// 006   ----------------------------------------
ArmyOfVerdane_6_006:
	BYTE		N36     Fn1   v084
	BYTE	W48
	BYTE		N17   
	BYTE	W24
	BYTE		N14     Fn1   v072
	BYTE	W24
	BYTE	PEND
// 007   ----------------------------------------
	BYTE	PATT
	 POIN2	ArmyOfVerdane_6_003
// 008   ----------------------------------------
	BYTE	PATT
	 POIN2	ArmyOfVerdane_6_004
// 009   ----------------------------------------
	BYTE	PATT
	 POIN2	ArmyOfVerdane_6_005
// 010   ----------------------------------------
	BYTE	PATT
	 POIN2	ArmyOfVerdane_6_006
// 011   ----------------------------------------
	BYTE	PATT
	 POIN2	ArmyOfVerdane_6_003
// 012   ----------------------------------------
	BYTE	PATT
	 POIN2	ArmyOfVerdane_6_004
// 013   ----------------------------------------
	BYTE	PATT
	 POIN2	ArmyOfVerdane_6_005
// 014   ----------------------------------------
ArmyOfVerdane_6_014:
	BYTE		N04     Fn1   v072
	BYTE	W12
	BYTE		N01     Fn1   v076
	BYTE	W12
	BYTE		TIE   
	BYTE	W72
	BYTE	PEND
// 015   ----------------------------------------
	BYTE	W68
	BYTE	W03
	BYTE		EOT   
	BYTE	W24
	BYTE	W01
// 016   ----------------------------------------
	BYTE	PATT
	 POIN2	ArmyOfVerdane_6_014
// 017   ----------------------------------------
	BYTE	W68
	BYTE	W03
	BYTE		EOT     Fn1 
	BYTE	W24
	BYTE	W01
// 018   ----------------------------------------
ArmyOfVerdane_6_018:
	BYTE		N32     Cn1   v092
	BYTE	W48
	BYTE		N16     Cn1   v072
	BYTE	W24
	BYTE		N14   
	BYTE	W24
	BYTE	PEND
// 019   ----------------------------------------
	BYTE		N32   
	BYTE	W48
	BYTE		N17   
	BYTE	W24
	BYTE		        Cn1   v092
	BYTE	W24
// 020   ----------------------------------------
	BYTE	PATT
	 POIN2	ArmyOfVerdane_6_018
// 021   ----------------------------------------
ArmyOfVerdane_6_021:
	BYTE		N32     Cn1   v072
	BYTE	W48
	BYTE		N17   
	BYTE	W24
	BYTE		N19     Cn1   v092
	BYTE	W24
	BYTE	PEND
// 022   ----------------------------------------
	BYTE	PATT
	 POIN2	ArmyOfVerdane_6_018
// 023   ----------------------------------------
	BYTE	PATT
	 POIN2	ArmyOfVerdane_6_021
// 024   ----------------------------------------
	BYTE	PATT
	 POIN2	ArmyOfVerdane_6_018
// 025   ----------------------------------------
	BYTE		N32     Cn1   v072
	BYTE	W48
	BYTE		N17   
	BYTE	W24
	BYTE		N20     Cn1   v096
	BYTE	W23
	BYTE	GoTo
	 POIN2	ArmyOfVerdane_6_B1
ArmyOfVerdane_6_B2:
	BYTE	FINE

//**************** Track 7 (Midi-Chn.9) ****************//

ArmyOfVerdane_7:
	BYTE		VOL     127*ArmyOfVerdane_mvl/mxv
	BYTE	KEYSH   ArmyOfVerdane_key+0
// 000   ----------------------------------------
	BYTE		VOICE   127
	BYTE		N11     Cn2   v096
	BYTE	W12
	BYTE		N11   
	BYTE	W12
	BYTE		N17     Cs2   v104
	BYTE	W18
	BYTE		N11     Cn2   v064
	BYTE	W12
	BYTE		N11   
	BYTE	W12
	BYTE		N05     Cn2   v084
	BYTE	W06
	BYTE		N11     Cs2   v108
	BYTE	W12
	BYTE		        Cn2   v076
	BYTE	W12
// 001   ----------------------------------------
	BYTE		        Cn2   v096
	BYTE	W12
	BYTE		N11   
	BYTE	W12
	BYTE		N17     Cs2   v104
	BYTE	W18
	BYTE		N11     Cn2   v064
	BYTE	W12
	BYTE		N11   
	BYTE	W12
	BYTE		N05     Cn2   v084
	BYTE	W06
	BYTE		N11     Cs2   v108
	BYTE	W12
	BYTE		N05     Cn2   v076
	BYTE	W06
	BYTE		        Dn2 
	BYTE	W06
ArmyOfVerdane_7_B1:
// 002   ----------------------------------------
ArmyOfVerdane_7_002:
	BYTE		N11     Cn2   v096
	BYTE	W12
	BYTE		N11   
	BYTE	W12
	BYTE		N17     Cs2   v104
	BYTE	W18
	BYTE		N11     Cn2   v064
	BYTE	W12
	BYTE		N11   
	BYTE	W12
	BYTE		N05     Cn2   v084
	BYTE	W06
	BYTE		N11     Cs2   v108
	BYTE	W12
	BYTE		        Cn2   v076
	BYTE	W12
	BYTE	PEND
// 003   ----------------------------------------
ArmyOfVerdane_7_003:
	BYTE		N11     Cn2   v096
	BYTE	W12
	BYTE		N11   
	BYTE	W12
	BYTE		N17     Cs2   v104
	BYTE	W18
	BYTE		N11     Cn2   v064
	BYTE	W12
	BYTE		N11   
	BYTE	W12
	BYTE		N05     Cn2   v084
	BYTE	W06
	BYTE		N11     Cs2   v108
	BYTE	W12
	BYTE		N05     Cn2   v076
	BYTE	W06
	BYTE		        Ds2 
	BYTE	W06
	BYTE	PEND
// 004   ----------------------------------------
ArmyOfVerdane_7_004:
	BYTE		N11     Cn2   v096
	BYTE	W12
	BYTE		N11   
	BYTE	W12
	BYTE		N17     Cs2   v108
	BYTE	W18
	BYTE		N11     Cn2   v064
	BYTE	W12
	BYTE		N11   
	BYTE	W12
	BYTE		N05     Cn2   v084
	BYTE	W06
	BYTE		N11     Cs2   v100
	BYTE	W12
	BYTE		        Cn2   v076
	BYTE	W12
	BYTE	PEND
// 005   ----------------------------------------
ArmyOfVerdane_7_005:
	BYTE		N11     Cn2   v096
	BYTE	W12
	BYTE		N11   
	BYTE	W12
	BYTE		N17     Cs2   v108
	BYTE	W18
	BYTE		N11     Cn2   v064
	BYTE	W12
	BYTE		N11   
	BYTE	W12
	BYTE		N05     Cn2   v084
	BYTE	W06
	BYTE		N11     Cs2   v112
	BYTE	W12
	BYTE		N05     Cn2   v076
	BYTE	W06
	BYTE		        Dn2 
	BYTE	W06
	BYTE	PEND
// 006   ----------------------------------------
	BYTE	PATT
	 POIN2	ArmyOfVerdane_7_002
// 007   ----------------------------------------
	BYTE	PATT
	 POIN2	ArmyOfVerdane_7_003
// 008   ----------------------------------------
	BYTE	PATT
	 POIN2	ArmyOfVerdane_7_004
// 009   ----------------------------------------
	BYTE	PATT
	 POIN2	ArmyOfVerdane_7_005
// 010   ----------------------------------------
	BYTE	PATT
	 POIN2	ArmyOfVerdane_7_002
// 011   ----------------------------------------
	BYTE	PATT
	 POIN2	ArmyOfVerdane_7_003
// 012   ----------------------------------------
	BYTE	PATT
	 POIN2	ArmyOfVerdane_7_004
// 013   ----------------------------------------
	BYTE	PATT
	 POIN2	ArmyOfVerdane_7_005
// 014   ----------------------------------------
	BYTE	PATT
	 POIN2	ArmyOfVerdane_7_002
// 015   ----------------------------------------
	BYTE	PATT
	 POIN2	ArmyOfVerdane_7_003
// 016   ----------------------------------------
	BYTE	PATT
	 POIN2	ArmyOfVerdane_7_004
// 017   ----------------------------------------
	BYTE	PATT
	 POIN2	ArmyOfVerdane_7_005
// 018   ----------------------------------------
	BYTE	PATT
	 POIN2	ArmyOfVerdane_7_002
// 019   ----------------------------------------
	BYTE	PATT
	 POIN2	ArmyOfVerdane_7_003
// 020   ----------------------------------------
	BYTE	PATT
	 POIN2	ArmyOfVerdane_7_004
// 021   ----------------------------------------
	BYTE	PATT
	 POIN2	ArmyOfVerdane_7_005
// 022   ----------------------------------------
	BYTE	PATT
	 POIN2	ArmyOfVerdane_7_002
// 023   ----------------------------------------
	BYTE	PATT
	 POIN2	ArmyOfVerdane_7_003
// 024   ----------------------------------------
	BYTE	PATT
	 POIN2	ArmyOfVerdane_7_004
// 025   ----------------------------------------
	BYTE		N11     Cn2   v096
	BYTE	W12
	BYTE		N11   
	BYTE	W12
	BYTE		N17     Cs2   v100
	BYTE	W18
	BYTE		N11     Cn2   v064
	BYTE	W12
	BYTE		N11   
	BYTE	W12
	BYTE		N05     Cn2   v084
	BYTE	W06
	BYTE		N11     Cs2   v116
	BYTE	W12
	BYTE		N05     Cn2   v076
	BYTE	W06
	BYTE		        Dn2 
	BYTE	W05
	BYTE	GoTo
	 POIN2	ArmyOfVerdane_7_B1
ArmyOfVerdane_7_B2:
	BYTE	FINE

//******************************************************//
	ALIGN 4

ArmyOfVerdane:
	BYTE	7	// NumTrks
	BYTE	0	// NumBlks
	BYTE	ArmyOfVerdane_pri	// Priority
	BYTE	ArmyOfVerdane_rev	// Reverb.

	POIN2	ArmyOfVerdane_grp

	POIN2	ArmyOfVerdane_1
	POIN2	ArmyOfVerdane_2
	POIN2	ArmyOfVerdane_3
	POIN2	ArmyOfVerdane_4
	POIN2	ArmyOfVerdane_5
	POIN2	ArmyOfVerdane_6
	POIN2	ArmyOfVerdane_7

	
