//Event file generated from Sappy .s format.
	#include "MPlayDef.event"

	#define	AtDoomsGate_grp  voicegroup000
	#define	AtDoomsGate_pri  0
	#define	AtDoomsGate_rev  0
	#define	AtDoomsGate_mvl  60
	#define	AtDoomsGate_key  0
	#define	AtDoomsGate_tbs  1
	#define	AtDoomsGate_exg  0
	#define	AtDoomsGate_cmp  1

	// .rodata
	//	AtDoomsGate
	ALIGN 4

//**************** Track 1 (Midi-Chn.2) ****************//

AtDoomsGate_1:
	BYTE	KEYSH   AtDoomsGate_key+0
AtDoomsGate_1_B1:
// 000   ----------------------------------------
	BYTE	TEMPO   89*AtDoomsGate_tbs/2
	BYTE		VOICE   30
	BYTE		PAN     c_v-11
	BYTE		VOL     100*AtDoomsGate_mvl/mxv
	BYTE	W96
// 001   ----------------------------------------
	BYTE	W96
// 002   ----------------------------------------
	BYTE	W96
// 003   ----------------------------------------
	BYTE	W40
	BYTE	W01
	BYTE		N01     En1   v108
	BYTE	W05
	BYTE		N05     En1   v116
	BYTE	W05
	BYTE		N04     En2 
	BYTE	W05
	BYTE		N01     En1   v112
	BYTE	W06
	BYTE		N05   
	BYTE	W05
	BYTE		N04     Dn2 
	BYTE	W05
	BYTE		N01     En1   v104
	BYTE	W05
	BYTE		N05     En1   v112
	BYTE	W05
	BYTE		N04     Cn2   v116
	BYTE	W05
	BYTE		N01     En1   v108
	BYTE	W05
	BYTE		N05     En1   v112
	BYTE	W04
// 004   ----------------------------------------
	BYTE	W01
	BYTE		        As1 
	BYTE	W06
	BYTE		N02     En1 
	BYTE	W05
	BYTE		N13   
	BYTE	W05
	BYTE		N04     Bn1 
	BYTE	W05
	BYTE		        Cn2   v120
	BYTE	W05
	BYTE		N01     En1   v112
	BYTE	W05
	BYTE		N06   
	BYTE	W06
	BYTE		N04     En2   v116
	BYTE	W05
	BYTE		N01     En1   v108
	BYTE	W05
	BYTE		N05   
	BYTE	W05
	BYTE		        Dn2 
	BYTE	W05
	BYTE		N01     En1   v116
	BYTE	W05
	BYTE		N05     En1   v108
	BYTE	W06
	BYTE		N04     Cn2   v120
	BYTE	W05
	BYTE		N01     En1   v112
	BYTE	W05
	BYTE		N30     En1   v116
	BYTE	W05
	BYTE		N24     As1 
	BYTE	W12
// 005   ----------------------------------------
	BYTE	W14
	BYTE		N01     En1   v108
	BYTE	W05
	BYTE		N07   
	BYTE	W05
	BYTE		N05     En2   v116
	BYTE	W05
	BYTE		N01     En1   v108
	BYTE	W05
	BYTE		N05     En1   v112
	BYTE	W05
	BYTE		        Dn2 
	BYTE	W06
	BYTE		N02     En1 
	BYTE	W05
	BYTE		N05     En1   v116
	BYTE	W05
	BYTE		N04     Cn2   v120
	BYTE	W05
	BYTE		N01     En1   v108
	BYTE	W05
	BYTE		N05   
	BYTE	W05
	BYTE		        As1   v116
	BYTE	W05
	BYTE		N01     En1   v112
	BYTE	W05
	BYTE		N13   
	BYTE	W06
	BYTE		N04     Bn1 
	BYTE	W05
	BYTE		        Cn2 
	BYTE	W05
// 006   ----------------------------------------
	BYTE		N01     En1 
	BYTE	W05
	BYTE		N08     En1   v108
	BYTE	W05
	BYTE		N05     En2   v120
	BYTE	W05
	BYTE		N01     En1   v112
	BYTE	W06
	BYTE		N06     En1   v108
	BYTE	W05
	BYTE		N05     Dn2   v112
	BYTE	W05
	BYTE		N01     En1   v116
	BYTE	W05
	BYTE		N03   
	BYTE	W05
	BYTE		N02     Ds3   v112
	BYTE	W03
	BYTE		        Cn3   v108
	BYTE	W02
	BYTE		        Bn2   v112
	BYTE	W03
	BYTE		        Ds3   v104
	BYTE	W03
	BYTE		        Fs3   v112
	BYTE	W02
	BYTE		        En3   v104
	BYTE	W03
	BYTE		        Ds3   v116
	BYTE	W02
	BYTE		        Bn2   v104
	BYTE	W03
	BYTE		        Ds3   v112
	BYTE	W02
	BYTE		        En3   v104
	BYTE	W03
	BYTE		        Fs3   v112
	BYTE	W02
	BYTE		        Gn3   v104
	BYTE	W03
	BYTE		        Fs3   v112
	BYTE	W03
	BYTE		        En3   v100
	BYTE	W02
	BYTE		        Ds3   v116
	BYTE	W03
	BYTE		        Bn2   v104
	BYTE	W02
	BYTE		N01     En1   v108
	BYTE	W05
	BYTE		N05     En1   v116
	BYTE	W06
	BYTE		        En2 
	BYTE	W03
// 007   ----------------------------------------
	BYTE	W02
	BYTE		N01     En1   v112
	BYTE	W05
	BYTE		N05   
	BYTE	W05
	BYTE		N04     Dn2 
	BYTE	W05
	BYTE		N01     En1   v104
	BYTE	W05
	BYTE		N05     En1   v112
	BYTE	W06
	BYTE		N04     Cn2   v116
	BYTE	W05
	BYTE		N01     En1   v108
	BYTE	W05
	BYTE		N05     En1   v112
	BYTE	W05
	BYTE		N04     As1 
	BYTE	W05
	BYTE		N02     En1 
	BYTE	W05
	BYTE		N13   
	BYTE	W05
	BYTE		N05     Bn1 
	BYTE	W06
	BYTE		N04     Cn2   v120
	BYTE	W05
	BYTE		N01     En1   v112
	BYTE	W05
	BYTE		N06   
	BYTE	W05
	BYTE		N04     En2   v116
	BYTE	W05
	BYTE		N01     En1   v108
	BYTE	W05
	BYTE		N05   
	BYTE	W05
	BYTE		        Dn2 
	BYTE	W02
// 008   ----------------------------------------
	BYTE	W04
	BYTE		N01     En1   v116
	BYTE	W05
	BYTE		N05     En1   v108
	BYTE	W05
	BYTE		N04     Cn2   v120
	BYTE	W05
	BYTE		N01     En1   v112
	BYTE	W05
	BYTE		N30     En1   v116
	BYTE	W05
	BYTE		N24     As1 
	BYTE	W24
	BYTE	W02
	BYTE		N01     En1   v108
	BYTE	W05
	BYTE		N07   
	BYTE	W05
	BYTE		N05     En2   v116
	BYTE	W05
	BYTE		N01     En1   v108
	BYTE	W06
	BYTE		N05     En1   v112
	BYTE	W05
	BYTE		        Dn2 
	BYTE	W05
	BYTE		N01     En1 
	BYTE	W05
	BYTE		N05     En1   v116
	BYTE	W05
// 009   ----------------------------------------
	BYTE		N04     Cn2   v120
	BYTE	W05
	BYTE		N01     En1   v108
	BYTE	W06
	BYTE		N05   
	BYTE	W05
	BYTE		        As1   v116
	BYTE	W05
	BYTE		N01     En1   v112
	BYTE	W05
	BYTE		N13   
	BYTE	W05
	BYTE		N05     Bn1 
	BYTE	W05
	BYTE		        Cn2 
	BYTE	W06
	BYTE		N01     En1 
	BYTE	W05
	BYTE		N08     En1   v108
	BYTE	W05
	BYTE		N05     En2   v120
	BYTE	W05
	BYTE		N01     En1   v112
	BYTE	W05
	BYTE		N06     En1   v108
	BYTE	W05
	BYTE		N05     Dn2   v112
	BYTE	W05
	BYTE		N01     En1   v116
	BYTE	W05
	BYTE		N02   
	BYTE	W06
	BYTE		        Gn3   v112
	BYTE	W02
	BYTE		        En3   v108
	BYTE	W03
	BYTE		        Bn2   v112
	BYTE	W02
	BYTE		        En3   v104
	BYTE	W03
	BYTE		        Gn3   v112
	BYTE	W03
// 010   ----------------------------------------
	BYTE		        En3   v104
	BYTE	W02
	BYTE		        Gn3   v116
	BYTE	W03
	BYTE		        Bn3   v104
	BYTE	W02
	BYTE		        Gn3   v112
	BYTE	W03
	BYTE		        En3   v104
	BYTE	W02
	BYTE		        Gn3   v112
	BYTE	W03
	BYTE		        En3   v104
	BYTE	W03
	BYTE		        Gn3   v112
	BYTE	W02
	BYTE		        Bn3   v100
	BYTE	W03
	BYTE		        En4   v116
	BYTE	W02
	BYTE		        Gn4   v104
	BYTE	W03
	BYTE		N01     An1   v108
	BYTE	W05
	BYTE		N05     An1   v116
	BYTE	W05
	BYTE		        An2 
	BYTE	W05
	BYTE		N01     An1   v112
	BYTE	W05
	BYTE		N05   
	BYTE	W05
	BYTE		N04     Gn2 
	BYTE	W06
	BYTE		N01     An1   v104
	BYTE	W05
	BYTE		N05     An1   v112
	BYTE	W05
	BYTE		N04     Fn2   v116
	BYTE	W05
	BYTE		N01     An1   v108
	BYTE	W05
	BYTE		N05     An1   v112
	BYTE	W05
	BYTE		N04     Ds2 
	BYTE	W06
	BYTE		N02     An1 
	BYTE	W05
	BYTE		N13   
	BYTE	W01
// 011   ----------------------------------------
	BYTE	W04
	BYTE		N05     En2 
	BYTE	W05
	BYTE		N04     Fn2   v120
	BYTE	W05
	BYTE		N01     An1   v112
	BYTE	W05
	BYTE		N06   
	BYTE	W06
	BYTE		N04     An2   v116
	BYTE	W05
	BYTE		N01     An1   v108
	BYTE	W05
	BYTE		N05   
	BYTE	W05
	BYTE		        Gn2 
	BYTE	W05
	BYTE		N01     An1   v116
	BYTE	W05
	BYTE		N05     An1   v108
	BYTE	W05
	BYTE		N04     Fn2   v120
	BYTE	W05
	BYTE		N01     An1   v112
	BYTE	W06
	BYTE		N30     An1   v116
	BYTE	W05
	BYTE		N24     Ds2 
	BYTE	W24
	BYTE	W01
// 012   ----------------------------------------
	BYTE	W01
	BYTE		N01     An1   v108
	BYTE	W05
	BYTE		N07   
	BYTE	W05
	BYTE		N05     An2   v116
	BYTE	W05
	BYTE		N01     An1   v108
	BYTE	W05
	BYTE		N05     An1   v112
	BYTE	W05
	BYTE		        Gn2 
	BYTE	W05
	BYTE		N02     An1 
	BYTE	W06
	BYTE		N05     An1   v116
	BYTE	W05
	BYTE		N04     Fn2   v120
	BYTE	W05
	BYTE		N01     An1   v108
	BYTE	W05
	BYTE		N05   
	BYTE	W05
	BYTE		        Ds2   v116
	BYTE	W05
	BYTE		N01     An1   v112
	BYTE	W05
	BYTE		N13   
	BYTE	W06
	BYTE		N05     En2 
	BYTE	W05
	BYTE		        Fn2 
	BYTE	W05
	BYTE		N01     An1 
	BYTE	W05
	BYTE		N09     An1   v108
	BYTE	W05
	BYTE		N05     An2   v120
	BYTE	W03
// 013   ----------------------------------------
	BYTE	W02
	BYTE		N01     An1   v112
	BYTE	W06
	BYTE		N06     An1   v108
	BYTE	W05
	BYTE		N05     Gn2   v112
	BYTE	W05
	BYTE		N01     An1   v116
	BYTE	W05
	BYTE		N02   
	BYTE	W05
	BYTE		        An3   v112
	BYTE	W03
	BYTE		        Fn3   v108
	BYTE	W02
	BYTE		        En3   v112
	BYTE	W03
	BYTE		        An3   v104
	BYTE	W02
	BYTE		        En3   v112
	BYTE	W03
	BYTE		        Cn3   v104
	BYTE	W02
	BYTE		        En3   v116
	BYTE	W03
	BYTE		        An3   v104
	BYTE	W03
	BYTE		        Cn4   v112
	BYTE	W02
	BYTE		        An3   v104
	BYTE	W03
	BYTE		        En3   v112
	BYTE	W02
	BYTE		        An3   v104
	BYTE	W03
	BYTE		        En3   v112
	BYTE	W03
	BYTE		        An3   v100
	BYTE	W02
	BYTE		        En3   v116
	BYTE	W03
	BYTE		        Cn3   v104
	BYTE	W02
	BYTE		N01     En1   v108
	BYTE	W05
	BYTE		N05     En1   v116
	BYTE	W06
	BYTE		N04     En2 
	BYTE	W05
	BYTE		N01     En1   v112
	BYTE	W05
	BYTE		N05   
	BYTE	W05
	BYTE		N04     Dn2 
	BYTE	W01
// 014   ----------------------------------------
	BYTE	W04
	BYTE		N01     En1   v104
	BYTE	W05
	BYTE		N05     En1   v112
	BYTE	W06
	BYTE		N04     Cn2   v116
	BYTE	W05
	BYTE		N01     En1   v108
	BYTE	W05
	BYTE		N05     En1   v112
	BYTE	W05
	BYTE		N04     As1 
	BYTE	W05
	BYTE		N02     En1 
	BYTE	W05
	BYTE		N13   
	BYTE	W05
	BYTE		N04     Bn1 
	BYTE	W05
	BYTE		        Cn2   v120
	BYTE	W06
	BYTE		N01     En1   v112
	BYTE	W05
	BYTE		N06   
	BYTE	W05
	BYTE		N04     En2   v116
	BYTE	W05
	BYTE		N01     En1   v108
	BYTE	W05
	BYTE		N05   
	BYTE	W05
	BYTE		N04     Dn2 
	BYTE	W06
	BYTE		N01     En1   v116
	BYTE	W05
	BYTE		N05     En1   v108
	BYTE	W04
// 015   ----------------------------------------
	BYTE	W01
	BYTE		N04     Cn2   v120
	BYTE	W05
	BYTE		N01     En1   v112
	BYTE	W05
	BYTE		N30     En1   v116
	BYTE	W05
	BYTE		N24     As1 
	BYTE	W24
	BYTE	W02
	BYTE		N01     En1   v108
	BYTE	W05
	BYTE		N07   
	BYTE	W05
	BYTE		N04     En2   v116
	BYTE	W05
	BYTE		N01     En1   v108
	BYTE	W06
	BYTE		N05     En1   v112
	BYTE	W05
	BYTE		        Dn2 
	BYTE	W05
	BYTE		N02     En1 
	BYTE	W05
	BYTE		N05     En1   v116
	BYTE	W05
	BYTE		        Cn2   v120
	BYTE	W05
	BYTE		N01     En1   v108
	BYTE	W06
	BYTE		N05   
	BYTE	W02
// 016   ----------------------------------------
	BYTE	W03
	BYTE		        As1   v116
	BYTE	W05
	BYTE		N01     En1   v112
	BYTE	W05
	BYTE		N13   
	BYTE	W05
	BYTE		N05     Bn1 
	BYTE	W05
	BYTE		        Cn2 
	BYTE	W05
	BYTE		N01     En1 
	BYTE	W05
	BYTE		N08     En1   v108
	BYTE	W06
	BYTE		N05     En2   v120
	BYTE	W05
	BYTE		N01     En1   v112
	BYTE	W05
	BYTE		N06     En1   v108
	BYTE	W05
	BYTE		N05     Dn2   v112
	BYTE	W05
	BYTE		N01     En1   v116
	BYTE	W05
	BYTE		N05   
	BYTE	W06
	BYTE		N07     Cn2   v120
	BYTE	W05
	BYTE		N01     En1   v112
	BYTE	W05
	BYTE		N30     En1   v116
	BYTE	W05
	BYTE		N24     As1 
	BYTE	W11
// 017   ----------------------------------------
	BYTE	W15
	BYTE		N01     Cs2   v108
	BYTE	W05
	BYTE		N05     Cs2   v116
	BYTE	W05
	BYTE		N04     Cs3 
	BYTE	W05
	BYTE		N01     Cs2   v112
	BYTE	W05
	BYTE		N05   
	BYTE	W05
	BYTE		N04     Bn2 
	BYTE	W06
	BYTE		N01     Cs2   v104
	BYTE	W05
	BYTE		N05     Cs2   v112
	BYTE	W05
	BYTE		        An2   v116
	BYTE	W05
	BYTE		N01     Cs2   v108
	BYTE	W05
	BYTE		N05     Cs2   v112
	BYTE	W06
	BYTE		N04     Gn2 
	BYTE	W05
	BYTE		N02     Cs2 
	BYTE	W05
	BYTE		N13   
	BYTE	W05
	BYTE		N04     Gs2 
	BYTE	W05
	BYTE		        An2   v120
	BYTE	W04
// 018   ----------------------------------------
	BYTE	W01
	BYTE		N01     Bn1   v112
	BYTE	W05
	BYTE		N06   
	BYTE	W05
	BYTE		N04     Bn2   v116
	BYTE	W05
	BYTE		N01     Bn1   v108
	BYTE	W06
	BYTE		N05   
	BYTE	W05
	BYTE		N04     An2 
	BYTE	W05
	BYTE		N01     Bn1   v116
	BYTE	W05
	BYTE		N05     Bn1   v108
	BYTE	W05
	BYTE		N04     Gn2   v120
	BYTE	W06
	BYTE		N02     As1   v112
	BYTE	W05
	BYTE		N30     An1   v116
	BYTE	W05
	BYTE		N24     Fn2 
	BYTE	W24
	BYTE	W02
	BYTE		N01     En1   v108
	BYTE	W05
	BYTE		N07   
	BYTE	W05
	BYTE		N04     En2   v116
	BYTE	W02
// 019   ----------------------------------------
	BYTE	W03
	BYTE		N01     En1   v108
	BYTE	W05
	BYTE		N05     En1   v112
	BYTE	W05
	BYTE		        Dn2 
	BYTE	W05
	BYTE		N02     En1 
	BYTE	W06
	BYTE		N05     En1   v116
	BYTE	W05
	BYTE		        Cn2   v120
	BYTE	W05
	BYTE		N01     En1   v108
	BYTE	W05
	BYTE		N05   
	BYTE	W05
	BYTE		        As1   v116
	BYTE	W05
	BYTE		N01     En1   v112
	BYTE	W06
	BYTE		N13   
	BYTE	W05
	BYTE		N05     Bn1 
	BYTE	W05
	BYTE		N04     Cn2 
	BYTE	W05
	BYTE		N01     En1 
	BYTE	W05
	BYTE		N08     En1   v108
	BYTE	W05
	BYTE		N05     En2   v120
	BYTE	W05
	BYTE		N01     En1   v112
	BYTE	W05
	BYTE		N06     En1   v108
	BYTE	W06
// 020   ----------------------------------------
	BYTE		N05     Dn2   v112
	BYTE	W05
	BYTE		N01     En1   v116
	BYTE	W05
	BYTE		N05   
	BYTE	W05
	BYTE		N02     Gn3   v112
	BYTE	W03
	BYTE		        Bn3   v108
	BYTE	W02
	BYTE		        En3   v112
	BYTE	W03
	BYTE		        Bn2   v104
	BYTE	W02
	BYTE		        Gn3   v112
	BYTE	W03
	BYTE		        En3   v104
	BYTE	W03
	BYTE		        Bn3   v116
	BYTE	W02
	BYTE		        Gn3   v104
	BYTE	W03
	BYTE		        Bn3   v112
	BYTE	W02
	BYTE		        Gn3   v104
	BYTE	W03
	BYTE		        En3   v112
	BYTE	W02
	BYTE		        Bn2   v104
	BYTE	W03
	BYTE		        Gn3   v112
	BYTE	W03
	BYTE		        Bn3   v100
	BYTE	W02
	BYTE		        En4   v116
	BYTE	W03
	BYTE		        Gn4   v104
	BYTE	W03
	BYTE	GoTo
	 POIN2	AtDoomsGate_1_B1
AtDoomsGate_1_B2:
	BYTE	FINE

//**************** Track 2 (Midi-Chn.3) ****************//

AtDoomsGate_2:
	BYTE	KEYSH   AtDoomsGate_key+0
AtDoomsGate_2_B1:
// 000   ----------------------------------------
	BYTE		VOICE   36
	BYTE		VOL     99*AtDoomsGate_mvl/mxv
	BYTE		PAN     c_v+0
	BYTE		N12     En1   v120
	BYTE	W80
	BYTE	W02
	BYTE		        En1   v127
	BYTE	W14
// 001   ----------------------------------------
	BYTE	W68
	BYTE		N12   
	BYTE	W28
// 002   ----------------------------------------
	BYTE	W54
	BYTE	W01
	BYTE		N12   
	BYTE	W40
	BYTE	W01
// 003   ----------------------------------------
	BYTE	W40
	BYTE	W01
	BYTE		N11     En1   v124
	BYTE	W54
	BYTE	W01
// 004   ----------------------------------------
	BYTE	W24
	BYTE	W03
	BYTE		N20     En1   v127
	BYTE	W68
	BYTE	W01
// 005   ----------------------------------------
	BYTE	W14
	BYTE		N11   
	BYTE	W80
	BYTE	W02
// 006   ----------------------------------------
	BYTE		N28     En1   v116
	BYTE	W80
	BYTE	W02
	BYTE		N07     En1   v088
	BYTE	W11
	BYTE		N08     En1   v092
	BYTE	W03
// 007   ----------------------------------------
	BYTE	W07
	BYTE		N04     En1   v088
	BYTE	W10
	BYTE		        En1   v092
	BYTE	W11
	BYTE		N04   
	BYTE	W10
	BYTE		N04   
	BYTE	W10
	BYTE		        En1   v084
	BYTE	W10
	BYTE		N04   
	BYTE	W11
	BYTE		        En1   v092
	BYTE	W10
	BYTE		N04   
	BYTE	W10
	BYTE		N04   
	BYTE	W07
// 008   ----------------------------------------
	BYTE	W04
	BYTE		        En1   v084
	BYTE	W10
	BYTE		        En1   v092
	BYTE	W10
	BYTE		N04   
	BYTE	W11
	BYTE		        En1   v088
	BYTE	W10
	BYTE		        En1   v072
	BYTE	W10
	BYTE		        En1   v080
	BYTE	W10
	BYTE		        En1   v092
	BYTE	W11
	BYTE		N04   
	BYTE	W10
	BYTE		N04   
	BYTE	W10
// 009   ----------------------------------------
	BYTE		        En1   v100
	BYTE	W11
	BYTE		        En1   v092
	BYTE	W10
	BYTE		        En1   v088
	BYTE	W10
	BYTE		        En1   v092
	BYTE	W11
	BYTE		N04   
	BYTE	W10
	BYTE		        En1   v084
	BYTE	W10
	BYTE		        En1   v092
	BYTE	W10
	BYTE		        En1   v100
	BYTE	W11
	BYTE		        En1   v104
	BYTE	W10
	BYTE		        En1   v100
	BYTE	W03
// 010   ----------------------------------------
	BYTE	W07
	BYTE		        En1   v092
	BYTE	W11
	BYTE		        En1   v104
	BYTE	W10
	BYTE		N03     An0   v088
	BYTE	W10
	BYTE		N04     An0   v092
	BYTE	W10
	BYTE		        An0   v088
	BYTE	W11
	BYTE		        An0   v092
	BYTE	W10
	BYTE		N04   
	BYTE	W10
	BYTE		N04   
	BYTE	W11
	BYTE		        An0   v084
	BYTE	W06
// 011   ----------------------------------------
	BYTE	W04
	BYTE		N04   
	BYTE	W10
	BYTE		        An0   v092
	BYTE	W11
	BYTE		N04   
	BYTE	W10
	BYTE		N04   
	BYTE	W10
	BYTE		        An0   v084
	BYTE	W10
	BYTE		        An0   v092
	BYTE	W11
	BYTE		N04   
	BYTE	W10
	BYTE		        An0   v088
	BYTE	W10
	BYTE		        An0   v072
	BYTE	W10
// 012   ----------------------------------------
	BYTE	W01
	BYTE		        An0   v080
	BYTE	W10
	BYTE		        An0   v092
	BYTE	W10
	BYTE		N04   
	BYTE	W10
	BYTE		N04   
	BYTE	W11
	BYTE		        An0   v100
	BYTE	W10
	BYTE		        An0   v092
	BYTE	W10
	BYTE		        An0   v088
	BYTE	W11
	BYTE		        An0   v092
	BYTE	W10
	BYTE		N04   
	BYTE	W10
	BYTE		        An0   v084
	BYTE	W03
// 013   ----------------------------------------
	BYTE	W08
	BYTE		        An0   v092
	BYTE	W10
	BYTE		        An0   v100
	BYTE	W10
	BYTE		        An0   v104
	BYTE	W10
	BYTE		        An0   v100
	BYTE	W11
	BYTE		        An0   v092
	BYTE	W10
	BYTE		        An0   v104
	BYTE	W10
	BYTE		N03     En1   v088
	BYTE	W11
	BYTE		        En1   v092
	BYTE	W10
	BYTE		N04     En1   v088
	BYTE	W06
// 014   ----------------------------------------
	BYTE	W04
	BYTE		        En1   v092
	BYTE	W11
	BYTE		N04   
	BYTE	W10
	BYTE		N04   
	BYTE	W10
	BYTE		        En1   v084
	BYTE	W10
	BYTE		N04   
	BYTE	W11
	BYTE		        En1   v092
	BYTE	W10
	BYTE		N04   
	BYTE	W10
	BYTE		N04   
	BYTE	W11
	BYTE		        En1   v084
	BYTE	W09
// 015   ----------------------------------------
	BYTE	W01
	BYTE		        En1   v092
	BYTE	W10
	BYTE		N04   
	BYTE	W10
	BYTE		        En1   v088
	BYTE	W11
	BYTE		        En1   v072
	BYTE	W10
	BYTE		        En1   v080
	BYTE	W10
	BYTE		        En1   v092
	BYTE	W11
	BYTE		N04   
	BYTE	W10
	BYTE		N04   
	BYTE	W10
	BYTE		        En1   v100
	BYTE	W11
	BYTE		        En1   v092
	BYTE	W02
// 016   ----------------------------------------
	BYTE	W08
	BYTE		        En1   v088
	BYTE	W10
	BYTE		        En1   v092
	BYTE	W10
	BYTE		N04   
	BYTE	W11
	BYTE		        En1   v084
	BYTE	W10
	BYTE		        En1   v092
	BYTE	W10
	BYTE		        En1   v100
	BYTE	W11
	BYTE		        En1   v104
	BYTE	W10
	BYTE		        En1   v100
	BYTE	W10
	BYTE		        En1   v092
	BYTE	W06
// 017   ----------------------------------------
	BYTE	W04
	BYTE		        En1   v104
	BYTE	W11
	BYTE		N05     Cs1   v112
	BYTE	W10
	BYTE		N06     Cs1   v100
	BYTE	W10
	BYTE		        Cs1   v092
	BYTE	W11
	BYTE		N05     Cs1   v104
	BYTE	W10
	BYTE		        Cs1   v116
	BYTE	W10
	BYTE		N06     Cs1   v104
	BYTE	W11
	BYTE		N06   
	BYTE	W10
	BYTE		        Cs1   v100
	BYTE	W09
// 018   ----------------------------------------
	BYTE	W01
	BYTE		        Bn0   v080
	BYTE	W10
	BYTE		        Bn0   v092
	BYTE	W11
	BYTE		        Bn0   v104
	BYTE	W10
	BYTE		N05     Bn0   v088
	BYTE	W10
	BYTE		N06     An0   v100
	BYTE	W11
	BYTE		N06   
	BYTE	W10
	BYTE		        An0   v088
	BYTE	W10
	BYTE		        An0   v092
	BYTE	W11
	BYTE		N05     En1   v080
	BYTE	W10
	BYTE		N06     En1   v084
	BYTE	W02
// 019   ----------------------------------------
	BYTE	W08
	BYTE		N06   
	BYTE	W10
	BYTE		N06   
	BYTE	W11
	BYTE		        En1   v080
	BYTE	W10
	BYTE		        En1   v076
	BYTE	W10
	BYTE		        En1   v092
	BYTE	W11
	BYTE		        En1   v084
	BYTE	W10
	BYTE		N05     En1   v088
	BYTE	W10
	BYTE		        En1   v100
	BYTE	W10
	BYTE		N06     En1   v092
	BYTE	W06
// 020   ----------------------------------------
	BYTE	W05
	BYTE		N07     En1   v104
	BYTE	W10
	BYTE		N05     En0 
	BYTE	W42
	BYTE	GoTo
	 POIN2	AtDoomsGate_2_B1
AtDoomsGate_2_B2:
	BYTE	FINE

//**************** Track 3 (Midi-Chn.4) ****************//

AtDoomsGate_3:
	BYTE	KEYSH   AtDoomsGate_key+0
AtDoomsGate_3_B1:
// 000   ----------------------------------------
	BYTE		VOICE   127
	BYTE		VOL     100*AtDoomsGate_mvl/mxv
	BYTE		N04     Cn1   v124
	BYTE		N05     Dn1   v116
	BYTE		N05     Fn1   v120
	BYTE	W80
	BYTE	W02
	BYTE		N04     Cn1   v124
	BYTE		N04     Dn1 
	BYTE		N04     Fn1 
	BYTE	W14
// 001   ----------------------------------------
	BYTE	W68
	BYTE		N03     Cn1 
	BYTE		N04     Dn1 
	BYTE		N04     Fn1 
	BYTE	W28
// 002   ----------------------------------------
	BYTE	W54
	BYTE	W01
	BYTE		N03     Cn1   v120
	BYTE		N04     Dn1 
	BYTE		N04     Fn1   v124
	BYTE	W40
	BYTE	W01
// 003   ----------------------------------------
	BYTE	W40
	BYTE	W01
	BYTE		N03     Cn1 
	BYTE		N03     Dn1 
	BYTE		N03     Fn1 
	BYTE		N03     Cs2   v072
	BYTE		N03     An2   v064
	BYTE	W08
	BYTE		N01     Cs2   v024
	BYTE		N01     An2 
	BYTE	W44
	BYTE	W03
// 004   ----------------------------------------
	BYTE	W24
	BYTE	W03
	BYTE		N03     Cn1   v124
	BYTE		N03     Dn1 
	BYTE		N03     Fn1 
	BYTE		N03     Cs2   v072
	BYTE		N03     An2   v064
	BYTE	W08
	BYTE		N01     Cs2   v024
	BYTE		N01     An2 
	BYTE	W60
	BYTE	W01
// 005   ----------------------------------------
	BYTE	W14
	BYTE		N04     Cn1   v124
	BYTE		N04     Dn1 
	BYTE		N04     Fn1 
	BYTE		N03     Cs2   v076
	BYTE		N02     An2   v056
	BYTE	W07
	BYTE		N01     Cs2   v024
	BYTE		N01     An2 
	BYTE	W72
	BYTE	W03
// 006   ----------------------------------------
	BYTE		N03     Cn1   v124
	BYTE		N04     Dn1 
	BYTE		N04     Fn1 
	BYTE		N03     Cs2   v076
	BYTE		N02     An2   v068
	BYTE	W08
	BYTE		N01     Cs2   v024
	BYTE		N01     An2 
	BYTE	W32
	BYTE	W01
	BYTE		N02     Cn1   v096
	BYTE		N02     Dn1   v092
	BYTE		N02     Fn1 
	BYTE	W05
	BYTE		        Cn1   v088
	BYTE		N01     Dn1   v084
	BYTE		N01     Fn1   v096
	BYTE	W06
	BYTE		N02     Cn1   v088
	BYTE		N02     Dn1 
	BYTE		N02     Fn1   v092
	BYTE	W05
	BYTE		        Cn1   v088
	BYTE		N02     Dn1   v076
	BYTE		N02     Fn1   v092
	BYTE	W05
	BYTE		        Cn1   v096
	BYTE		N02     Dn1   v088
	BYTE		N02     Fn1 
	BYTE	W05
	BYTE		        Cn1   v096
	BYTE		N02     Dn1   v084
	BYTE		N02     Fn1   v088
	BYTE	W05
	BYTE		        Cn1   v092
	BYTE		N02     Dn1 
	BYTE		N02     Fn1   v096
	BYTE	W05
	BYTE		        Cn1 
	BYTE		N02     Dn1   v092
	BYTE		N02     Fn1   v096
	BYTE	W05
	BYTE		N04     Cn1   v120
	BYTE	W01
	BYTE		N03     As1   v072
	BYTE	W10
	BYTE		        Dn1   v120
	BYTE		N03     As1   v088
	BYTE	W03
// 007   ----------------------------------------
	BYTE	W07
	BYTE		N02     Cn1   v116
	BYTE	W01
	BYTE		N03     As1   v084
	BYTE	W04
	BYTE		        Cn1   v120
	BYTE	W05
	BYTE		        Dn1   v124
	BYTE	W01
	BYTE		        As1   v084
	BYTE	W10
	BYTE		N04     Cn1   v124
	BYTE		N04     As1   v076
	BYTE	W10
	BYTE		N03     Dn1   v120
	BYTE	W01
	BYTE		        As1   v072
	BYTE	W09
	BYTE		N02     Cn1   v116
	BYTE	W01
	BYTE		N03     As1   v076
	BYTE	W04
	BYTE		        Cn1   v124
	BYTE	W05
	BYTE		        Dn1 
	BYTE	W01
	BYTE		        As1   v080
	BYTE	W10
	BYTE		        Cn1   v124
	BYTE		N03     As1   v068
	BYTE	W10
	BYTE		        Dn1   v124
	BYTE	W01
	BYTE		        As1   v072
	BYTE	W09
	BYTE		N02     Cn1   v116
	BYTE	W01
	BYTE		N03     As1   v068
	BYTE	W04
	BYTE		        Cn1   v120
	BYTE	W02
// 008   ----------------------------------------
	BYTE	W04
	BYTE		        Dn1   v124
	BYTE		N03     As1   v076
	BYTE	W10
	BYTE		N04     Cn1   v124
	BYTE		N03     As1   v076
	BYTE	W10
	BYTE		        Dn1   v120
	BYTE		N03     As1   v072
	BYTE	W10
	BYTE		        As1   v076
	BYTE	W01
	BYTE		N02     Cn1   v124
	BYTE	W05
	BYTE		N03     Cn1   v120
	BYTE	W05
	BYTE		        Dn1   v124
	BYTE		N03     As1   v072
	BYTE	W10
	BYTE		N04     Cn1   v124
	BYTE		N03     As1   v076
	BYTE	W10
	BYTE		        Dn1   v124
	BYTE		N03     As1   v072
	BYTE	W11
	BYTE		N02     Cn1   v124
	BYTE		N03     As1   v080
	BYTE	W05
	BYTE		N02     Cn1   v116
	BYTE	W05
	BYTE		        Dn1   v124
	BYTE		N03     As1   v072
	BYTE	W10
// 009   ----------------------------------------
	BYTE		        Cn1   v124
	BYTE	W01
	BYTE		        As1   v068
	BYTE	W10
	BYTE		        Dn1   v124
	BYTE		N03     As1   v076
	BYTE	W10
	BYTE		N04     Cn1   v124
	BYTE		N03     As1   v072
	BYTE	W10
	BYTE		        Dn1   v124
	BYTE	W01
	BYTE		        As1   v072
	BYTE	W10
	BYTE		        Cn1   v124
	BYTE		N03     As1   v072
	BYTE	W10
	BYTE		        Dn1   v124
	BYTE		N03     As1   v076
	BYTE	W10
	BYTE		N02     Cn1   v124
	BYTE		N03     As1   v072
	BYTE	W05
	BYTE		        Cn1   v124
	BYTE	W05
	BYTE		        Dn1   v120
	BYTE	W01
	BYTE		        As1   v076
	BYTE	W10
	BYTE		N01     Cn1   v084
	BYTE		N01     Dn1 
	BYTE		N01     Dn2   v092
	BYTE	W05
	BYTE		        Cn1 
	BYTE	W05
	BYTE		N01   
	BYTE		N01     Dn1   v088
	BYTE	W01
	BYTE		        Bn1 
	BYTE	W02
// 010   ----------------------------------------
	BYTE	W02
	BYTE		        Cn1   v096
	BYTE	W05
	BYTE		        Cn1   v088
	BYTE	W01
	BYTE		        Dn1   v092
	BYTE		N01     An1   v096
	BYTE	W04
	BYTE		        Cn1 
	BYTE	W06
	BYTE		N01   
	BYTE		N01     Dn1   v092
	BYTE	W01
	BYTE		        Fn1   v076
	BYTE	W04
	BYTE		        Cn1   v096
	BYTE		N01     Dn1   v092
	BYTE		N01     Fn1   v088
	BYTE	W05
	BYTE		N04     Cn1   v120
	BYTE		N03     Ds2   v112
	BYTE	W10
	BYTE		        Dn1   v120
	BYTE		N02     Ds2   v116
	BYTE	W10
	BYTE		        Cn1 
	BYTE		N03     Ds2 
	BYTE	W05
	BYTE		        Cn1   v120
	BYTE	W06
	BYTE		N02     Dn1   v124
	BYTE		N02     Ds2   v112
	BYTE	W10
	BYTE		N03     Cn1   v124
	BYTE		N03     Ds2   v120
	BYTE	W10
	BYTE		        Dn1 
	BYTE		N03     Ds2 
	BYTE	W11
	BYTE		N02     Cn1   v116
	BYTE		N03     Ds2   v112
	BYTE	W05
	BYTE		        Cn1   v124
	BYTE	W01
// 011   ----------------------------------------
	BYTE	W04
	BYTE		        Dn1 
	BYTE		N03     Ds2   v112
	BYTE	W10
	BYTE		N04     Cn1   v124
	BYTE		N03     Ds2   v108
	BYTE	W11
	BYTE		        Dn1   v124
	BYTE		N02     Ds2   v112
	BYTE	W10
	BYTE		        Cn1   v116
	BYTE		N03     Ds2   v104
	BYTE	W05
	BYTE		N02     Cn1   v120
	BYTE	W05
	BYTE		N03     Dn1   v124
	BYTE		N03     Ds2   v112
	BYTE	W10
	BYTE		N04     Cn1   v124
	BYTE		N03     Ds2   v108
	BYTE	W11
	BYTE		        Dn1   v120
	BYTE		N03     Ds2   v108
	BYTE	W10
	BYTE		N02     Cn1   v124
	BYTE		N02     Ds2   v120
	BYTE	W05
	BYTE		N03     Cn1 
	BYTE	W05
	BYTE		N02     Dn1   v124
	BYTE		N03     Ds2   v108
	BYTE	W10
// 012   ----------------------------------------
	BYTE	W01
	BYTE		N04     Cn1   v124
	BYTE		N03     Ds2   v108
	BYTE	W10
	BYTE		        Dn1   v124
	BYTE		N03     Ds2   v116
	BYTE	W10
	BYTE		N02     Cn1   v124
	BYTE		N03     Ds2   v108
	BYTE	W05
	BYTE		        Cn1   v116
	BYTE	W05
	BYTE		N02     Dn1   v124
	BYTE		N03     Ds2   v116
	BYTE	W11
	BYTE		        Cn1   v124
	BYTE		N03     Ds2   v112
	BYTE	W10
	BYTE		        Dn1   v124
	BYTE		N02     Ds2   v120
	BYTE	W10
	BYTE		N03     Cn1   v124
	BYTE		N03     Ds2   v112
	BYTE	W11
	BYTE		        Dn1   v124
	BYTE		N03     Ds2   v112
	BYTE	W10
	BYTE		N04     Cn1   v124
	BYTE		N03     Ds2   v120
	BYTE	W10
	BYTE		        Dn1   v124
	BYTE		N02     Ds2   v116
	BYTE	W03
// 013   ----------------------------------------
	BYTE	W08
	BYTE		        Cn1   v124
	BYTE		N03     Ds2   v120
	BYTE	W05
	BYTE		        Cn1   v124
	BYTE	W05
	BYTE		        Dn1   v120
	BYTE		N03     Ds2 
	BYTE	W10
	BYTE		N02     Ds2   v116
	BYTE	W01
	BYTE		N01     Dn1   v084
	BYTE	W02
	BYTE		        Dn1   v088
	BYTE	W02
	BYTE		        Cn1   v080
	BYTE	W05
	BYTE		        Dn1   v096
	BYTE	W06
	BYTE		        Cn1   v088
	BYTE	W02
	BYTE		N01   
	BYTE	W03
	BYTE		        Dn1   v096
	BYTE	W02
	BYTE		        Dn1   v088
	BYTE	W03
	BYTE		        Cn1 
	BYTE	W03
	BYTE		        Cn1   v096
	BYTE	W02
	BYTE		        Dn1 
	BYTE	W03
	BYTE		        Dn1   v088
	BYTE	W02
	BYTE		        Cn1   v096
	BYTE	W05
	BYTE		N04     Cn1   v120
	BYTE		N03     As1   v072
	BYTE	W11
	BYTE		        Dn1   v120
	BYTE		N03     As1   v088
	BYTE	W10
	BYTE		N02     Cn1   v116
	BYTE		N03     As1   v084
	BYTE	W05
	BYTE		        Cn1   v120
	BYTE	W01
// 014   ----------------------------------------
	BYTE	W04
	BYTE		        Dn1   v124
	BYTE	W01
	BYTE		        As1   v084
	BYTE	W10
	BYTE		        Cn1   v124
	BYTE		N03     As1   v076
	BYTE	W10
	BYTE		        Dn1   v120
	BYTE		N03     As1   v072
	BYTE	W10
	BYTE		N02     Cn1   v116
	BYTE		N03     As1   v076
	BYTE	W05
	BYTE		N02     Cn1   v124
	BYTE	W05
	BYTE		N03     Dn1 
	BYTE	W01
	BYTE		        As1   v080
	BYTE	W10
	BYTE		N04     Cn1   v124
	BYTE		N03     As1   v068
	BYTE	W10
	BYTE		        Dn1   v124
	BYTE		N03     As1   v072
	BYTE	W10
	BYTE		N02     Cn1   v116
	BYTE	W01
	BYTE		N03     As1   v068
	BYTE	W04
	BYTE		N02     Cn1   v120
	BYTE	W06
	BYTE		N03     Dn1   v124
	BYTE		N03     As1   v076
	BYTE	W09
// 015   ----------------------------------------
	BYTE	W01
	BYTE		N04     Cn1   v124
	BYTE		N03     As1   v076
	BYTE	W10
	BYTE		        Dn1   v120
	BYTE		N03     As1   v072
	BYTE	W10
	BYTE		N02     Cn1   v124
	BYTE		N03     As1   v076
	BYTE	W05
	BYTE		        Cn1   v120
	BYTE	W06
	BYTE		N02     Dn1   v124
	BYTE		N03     As1   v072
	BYTE	W10
	BYTE		N04     Cn1   v124
	BYTE		N03     As1   v076
	BYTE	W10
	BYTE		        Dn1   v124
	BYTE		N03     As1   v072
	BYTE	W11
	BYTE		N02     Cn1   v124
	BYTE		N03     As1   v080
	BYTE	W05
	BYTE		        Cn1   v116
	BYTE	W05
	BYTE		N02     Dn1   v124
	BYTE		N03     As1   v072
	BYTE	W10
	BYTE		        Cn1   v124
	BYTE	W01
	BYTE		        As1   v068
	BYTE	W10
	BYTE		        Dn1   v124
	BYTE		N03     As1   v076
	BYTE	W02
// 016   ----------------------------------------
	BYTE	W08
	BYTE		        Cn1   v124
	BYTE		N03     As1   v072
	BYTE	W10
	BYTE		        Dn1   v124
	BYTE	W01
	BYTE		        As1   v072
	BYTE	W09
	BYTE		        Cn1   v124
	BYTE	W01
	BYTE		        As1   v072
	BYTE	W09
	BYTE		        As1   v076
	BYTE	W01
	BYTE		        Dn1   v124
	BYTE	W10
	BYTE		N02     Cn1 
	BYTE		N03     As1   v072
	BYTE	W05
	BYTE		        Cn1   v124
	BYTE	W05
	BYTE		        Dn1   v120
	BYTE	W01
	BYTE		        As1   v076
	BYTE	W10
	BYTE		N01     Cs1   v088
	BYTE		N01     Dn1   v092
	BYTE	W04
	BYTE		        Cn1   v088
	BYTE	W05
	BYTE		        Cs1   v084
	BYTE	W01
	BYTE		        Dn1   v092
	BYTE	W05
	BYTE		        Cn1 
	BYTE	W05
	BYTE		        Cs1   v080
	BYTE		N01     Dn1   v088
	BYTE	W02
	BYTE		        Cs1   v080
	BYTE	W01
	BYTE		        Dn1   v092
	BYTE	W02
	BYTE		        Cn1   v096
	BYTE	W01
// 017   ----------------------------------------
	BYTE	W04
	BYTE		        Cs1   v088
	BYTE		N01     Dn1   v096
	BYTE	W05
	BYTE		        Cn1 
	BYTE	W06
	BYTE		N04     Cn1   v120
	BYTE		N03     An2   v080
	BYTE	W10
	BYTE		        Dn1   v120
	BYTE		N01     Fn2   v124
	BYTE	W10
	BYTE		N02     Cn1   v116
	BYTE		N01     Fn2   v127
	BYTE	W05
	BYTE		N03     Cn1   v120
	BYTE	W05
	BYTE		N01     Fn2   v124
	BYTE	W01
	BYTE		N03     Dn1 
	BYTE	W10
	BYTE		N04     Cn1 
	BYTE		N01     Fn2 
	BYTE	W10
	BYTE		N03     Dn1   v120
	BYTE		N01     Fn2   v116
	BYTE	W11
	BYTE		N02     Cn1 
	BYTE		N01     Fn2   v120
	BYTE	W05
	BYTE		N02     Cn1   v124
	BYTE	W05
	BYTE		N03     Dn1 
	BYTE		N01     Fn2 
	BYTE	W09
// 018   ----------------------------------------
	BYTE	W01
	BYTE		N03     Cn1 
	BYTE		N04     Cs2   v080
	BYTE	W10
	BYTE		N03     Dn1   v124
	BYTE		N01     Fn2 
	BYTE	W10
	BYTE		        Fn2   v120
	BYTE	W01
	BYTE		N02     Cn1   v116
	BYTE	W05
	BYTE		        Cn1   v120
	BYTE	W05
	BYTE		N03     Dn1   v124
	BYTE		N01     Fn2 
	BYTE	W10
	BYTE		N04     Cn1 
	BYTE		N01     Fn2   v127
	BYTE	W11
	BYTE		N03     Dn1   v120
	BYTE		N01     Fn2   v127
	BYTE	W10
	BYTE		N02     Cn1   v124
	BYTE		N01     Fn2   v127
	BYTE	W05
	BYTE		N03     Cn1   v120
	BYTE	W05
	BYTE		        Dn1   v124
	BYTE		N01     Fn2   v127
	BYTE	W11
	BYTE		N04     Cn1   v124
	BYTE		N03     An2   v080
	BYTE	W10
	BYTE		        Dn1   v124
	BYTE		N01     Fn2   v127
	BYTE	W02
// 019   ----------------------------------------
	BYTE	W08
	BYTE		N02     Cn1   v124
	BYTE		N01     Fn2   v127
	BYTE	W05
	BYTE		N03     Cn1   v116
	BYTE	W05
	BYTE		N02     Dn1   v124
	BYTE		N01     Fn2 
	BYTE	W10
	BYTE		N01   
	BYTE	W01
	BYTE		N03     Cn1 
	BYTE	W10
	BYTE		        Dn1 
	BYTE		N01     Fn2   v127
	BYTE	W10
	BYTE		N03     Cn1   v124
	BYTE		N01     Fn2   v127
	BYTE	W11
	BYTE		N03     Dn1   v124
	BYTE		N01     Fn2   v120
	BYTE	W10
	BYTE		N03     Cn1   v124
	BYTE		N01     Fn2 
	BYTE	W10
	BYTE		N03     Dn1 
	BYTE		N01     Fn2   v127
	BYTE	W10
	BYTE		N02     Cn1   v124
	BYTE	W01
	BYTE		N01     Fn2 
	BYTE	W05
// 020   ----------------------------------------
	BYTE		N03     Cn1 
	BYTE	W05
	BYTE		N02     Dn1   v120
	BYTE		N01     Fn2   v127
	BYTE	W10
	BYTE		        Cn1   v100
	BYTE		N01     Cs1   v116
	BYTE		N01     Dn1   v124
	BYTE		N01     Fn2   v127
	BYTE	W42
	BYTE	GoTo
	 POIN2	AtDoomsGate_3_B1
AtDoomsGate_3_B2:
	BYTE	FINE

//**************** Track 4 (Midi-Chn.5) ****************//

AtDoomsGate_4:
	BYTE	KEYSH   AtDoomsGate_key+0
AtDoomsGate_4_B1:
// 000   ----------------------------------------
	BYTE		VOICE   103
	BYTE		VOL     100*AtDoomsGate_mvl/mxv
	BYTE		PAN     c_v+11
	BYTE		N01     En1   v108
	BYTE	W05
	BYTE		N05     En1   v116
	BYTE	W05
	BYTE		        En2 
	BYTE	W05
	BYTE		N01     En1   v112
	BYTE	W05
	BYTE		N05   
	BYTE	W05
	BYTE		N04     Dn2 
	BYTE	W06
	BYTE		N01     En1   v104
	BYTE	W05
	BYTE		N05     En1   v112
	BYTE	W05
	BYTE		N04     Cn2   v116
	BYTE	W05
	BYTE		N01     En1   v108
	BYTE	W05
	BYTE		N05     En1   v112
	BYTE	W05
	BYTE		        As1 
	BYTE	W05
	BYTE		N02     En1 
	BYTE	W05
	BYTE		N14   
	BYTE	W06
	BYTE		N04     Bn1 
	BYTE	W05
	BYTE		        Cn2   v120
	BYTE	W05
	BYTE		N01     En1   v112
	BYTE	W05
	BYTE		N06   
	BYTE	W05
	BYTE		N04     En2   v116
	BYTE	W04
// 001   ----------------------------------------
	BYTE	W01
	BYTE		N01     En1   v108
	BYTE	W06
	BYTE		N05   
	BYTE	W05
	BYTE		        Dn2 
	BYTE	W05
	BYTE		N01     En1   v116
	BYTE	W05
	BYTE		N05     En1   v108
	BYTE	W05
	BYTE		N04     Cn2   v120
	BYTE	W05
	BYTE		N01     En1   v112
	BYTE	W06
	BYTE		N30     En1   v116
	BYTE	W05
	BYTE		N24     As1 
	BYTE	W24
	BYTE	W01
	BYTE		N01     En1   v108
	BYTE	W05
	BYTE		N07   
	BYTE	W06
	BYTE		N05     En2   v116
	BYTE	W05
	BYTE		N01     En1   v108
	BYTE	W05
	BYTE		N05     En1   v112
	BYTE	W05
	BYTE		        Dn2 
	BYTE	W02
// 002   ----------------------------------------
	BYTE	W03
	BYTE		N02     En1 
	BYTE	W05
	BYTE		N05     En1   v116
	BYTE	W06
	BYTE		N04     Cn2   v120
	BYTE	W05
	BYTE		N01     En1   v108
	BYTE	W05
	BYTE		N05   
	BYTE	W05
	BYTE		        As1   v116
	BYTE	W05
	BYTE		N01     En1   v112
	BYTE	W05
	BYTE		N13   
	BYTE	W05
	BYTE		N05     Bn1 
	BYTE	W06
	BYTE		N04     Cn2 
	BYTE	W05
	BYTE		N01     En1 
	BYTE	W05
	BYTE		N08     En1   v108
	BYTE	W05
	BYTE		N05     En2   v120
	BYTE	W05
	BYTE		N01     En1   v112
	BYTE	W05
	BYTE		N06     En1   v108
	BYTE	W05
	BYTE		N05     Dn2   v112
	BYTE	W06
	BYTE		N01     En1   v116
	BYTE	W05
	BYTE		N05   
	BYTE	W05
// 003   ----------------------------------------
	BYTE		N07     Cn2   v120
	BYTE	W05
	BYTE		N01     En1   v112
	BYTE	W05
	BYTE		N30     En1   v116
	BYTE	W05
	BYTE		N24     As1 
	BYTE	W24
	BYTE	W02
	BYTE		N01     En1   v108
	BYTE	W05
	BYTE		N05     En1   v116
	BYTE	W05
	BYTE		        En2 
	BYTE	W05
	BYTE		N01     En1   v112
	BYTE	W06
	BYTE		N05   
	BYTE	W05
	BYTE		N04     Dn2 
	BYTE	W05
	BYTE		N01     En1   v104
	BYTE	W05
	BYTE		N05     En1   v112
	BYTE	W05
	BYTE		N04     Cn2   v116
	BYTE	W05
	BYTE		N01     En1   v108
	BYTE	W06
	BYTE		N05     En1   v112
	BYTE	W03
// 004   ----------------------------------------
	BYTE	W02
	BYTE		N04     As1 
	BYTE	W05
	BYTE		N02     En1 
	BYTE	W05
	BYTE		N13   
	BYTE	W05
	BYTE		N05     Bn1 
	BYTE	W05
	BYTE		N04     Cn2   v120
	BYTE	W06
	BYTE		N01     En1   v112
	BYTE	W05
	BYTE		N06   
	BYTE	W05
	BYTE		N04     En2   v116
	BYTE	W05
	BYTE		N01     En1   v108
	BYTE	W05
	BYTE		N05   
	BYTE	W05
	BYTE		        Dn2 
	BYTE	W05
	BYTE		N01     En1   v116
	BYTE	W05
	BYTE		N05     En1   v108
	BYTE	W06
	BYTE		N04     Cn2   v120
	BYTE	W05
	BYTE		N01     En1   v112
	BYTE	W05
	BYTE		N30     En1   v116
	BYTE	W05
	BYTE		N24     As1 
	BYTE	W12
// 005   ----------------------------------------
	BYTE	W14
	BYTE		N01     En1   v108
	BYTE	W05
	BYTE		N07   
	BYTE	W05
	BYTE		N05     En2   v116
	BYTE	W05
	BYTE		N01     En1   v108
	BYTE	W05
	BYTE		N05     En1   v112
	BYTE	W05
	BYTE		        Dn2 
	BYTE	W06
	BYTE		N01     En1 
	BYTE	W05
	BYTE		N05     En1   v116
	BYTE	W05
	BYTE		N04     Cn2   v120
	BYTE	W05
	BYTE		N01     En1   v108
	BYTE	W05
	BYTE		N05   
	BYTE	W05
	BYTE		        As1   v116
	BYTE	W06
	BYTE		N01     En1   v112
	BYTE	W05
	BYTE		N13   
	BYTE	W05
	BYTE		N05     Bn1 
	BYTE	W05
	BYTE		        Cn2 
	BYTE	W05
// 006   ----------------------------------------
	BYTE		N01     En1 
	BYTE	W05
	BYTE		N08     En1   v108
	BYTE	W06
	BYTE		N05     En2   v120
	BYTE	W05
	BYTE		N01     En1   v112
	BYTE	W05
	BYTE		N06     En1   v108
	BYTE	W05
	BYTE		N05     Dn2   v112
	BYTE	W05
	BYTE		N01     En1   v116
	BYTE	W05
	BYTE		N02   
	BYTE	W05
	BYTE		        Fs3   v112
	BYTE	W03
	BYTE		        En3   v108
	BYTE	W02
	BYTE		        Ds3   v112
	BYTE	W03
	BYTE		        Fs3   v104
	BYTE	W03
	BYTE		        An3   v112
	BYTE	W02
	BYTE		        Gn3   v104
	BYTE	W03
	BYTE		        Fs3   v116
	BYTE	W02
	BYTE		        Ds3   v104
	BYTE	W03
	BYTE		        Fs3   v112
	BYTE	W02
	BYTE		        Gn3   v104
	BYTE	W03
	BYTE		        An3   v112
	BYTE	W03
	BYTE		        Bn3   v104
	BYTE	W02
	BYTE		        An3   v112
	BYTE	W03
	BYTE		        Gn3   v100
	BYTE	W02
	BYTE		        Fs3   v116
	BYTE	W03
	BYTE		        Ds3   v104
	BYTE	W03
	BYTE		N01     En1   v108
	BYTE	W05
	BYTE		N05     En1   v116
	BYTE	W05
	BYTE		        En2 
	BYTE	W03
// 007   ----------------------------------------
	BYTE	W02
	BYTE		N01     En1   v112
	BYTE	W05
	BYTE		N05   
	BYTE	W05
	BYTE		N04     Dn2 
	BYTE	W05
	BYTE		N01     En1   v104
	BYTE	W06
	BYTE		N05     En1   v112
	BYTE	W05
	BYTE		N04     Cn2   v116
	BYTE	W05
	BYTE		N01     En1   v108
	BYTE	W05
	BYTE		N05     En1   v112
	BYTE	W05
	BYTE		N04     As1 
	BYTE	W05
	BYTE		N02     En1 
	BYTE	W05
	BYTE		N13   
	BYTE	W06
	BYTE		N05     Bn1 
	BYTE	W05
	BYTE		N04     Cn2   v120
	BYTE	W05
	BYTE		N01     En1   v112
	BYTE	W05
	BYTE		N06   
	BYTE	W05
	BYTE		N04     En2   v116
	BYTE	W05
	BYTE		N01     En1   v108
	BYTE	W06
	BYTE		N05   
	BYTE	W05
	BYTE		        Dn2 
	BYTE	W01
// 008   ----------------------------------------
	BYTE	W04
	BYTE		N01     En1   v116
	BYTE	W05
	BYTE		N05     En1   v108
	BYTE	W05
	BYTE		N04     Cn2   v120
	BYTE	W05
	BYTE		N01     En1   v112
	BYTE	W05
	BYTE		N30     En1   v116
	BYTE	W05
	BYTE		N24     As1 
	BYTE	W24
	BYTE	W02
	BYTE		N01     En1   v108
	BYTE	W05
	BYTE		N07   
	BYTE	W06
	BYTE		N05     En2   v116
	BYTE	W05
	BYTE		N01     En1   v108
	BYTE	W05
	BYTE		N05     En1   v112
	BYTE	W05
	BYTE		        Dn2 
	BYTE	W05
	BYTE		N02     En1 
	BYTE	W05
	BYTE		N05     En1   v116
	BYTE	W05
// 009   ----------------------------------------
	BYTE	W01
	BYTE		N04     Cn2   v120
	BYTE	W05
	BYTE		N01     En1   v108
	BYTE	W05
	BYTE		N05   
	BYTE	W05
	BYTE		        As1   v116
	BYTE	W05
	BYTE		N01     En1   v112
	BYTE	W05
	BYTE		N13   
	BYTE	W05
	BYTE		N05     Bn1 
	BYTE	W05
	BYTE		        Cn2 
	BYTE	W06
	BYTE		N01     En1 
	BYTE	W05
	BYTE		N09     En1   v108
	BYTE	W05
	BYTE		N05     En2   v120
	BYTE	W05
	BYTE		N01     En1   v112
	BYTE	W05
	BYTE		N06     En1   v108
	BYTE	W05
	BYTE		N05     Dn2   v112
	BYTE	W06
	BYTE		N01     En1   v116
	BYTE	W05
	BYTE		N02   
	BYTE	W05
	BYTE		        Bn3   v112
	BYTE	W03
	BYTE		        Gn3   v108
	BYTE	W02
	BYTE		        En3   v112
	BYTE	W03
	BYTE		        Gn3   v104
	BYTE	W02
	BYTE		        Bn3   v112
	BYTE	W03
// 010   ----------------------------------------
	BYTE		        Gn3   v104
	BYTE	W02
	BYTE		        Bn3   v116
	BYTE	W03
	BYTE		        En4   v104
	BYTE	W02
	BYTE		        Bn3   v112
	BYTE	W03
	BYTE		        Gn3   v104
	BYTE	W02
	BYTE		        Bn3   v112
	BYTE	W03
	BYTE		        Gn3   v104
	BYTE	W03
	BYTE		        Bn3   v112
	BYTE	W02
	BYTE		        En4   v100
	BYTE	W03
	BYTE		        Gn4   v116
	BYTE	W02
	BYTE		        Bn4   v104
	BYTE	W03
	BYTE		N01     An1   v108
	BYTE	W05
	BYTE		N05     An1   v116
	BYTE	W05
	BYTE		N04     An2 
	BYTE	W05
	BYTE		N01     An1   v112
	BYTE	W06
	BYTE		N05   
	BYTE	W05
	BYTE		N04     Gn2 
	BYTE	W05
	BYTE		N01     An1   v104
	BYTE	W05
	BYTE		N05     An1   v112
	BYTE	W05
	BYTE		        Fn2   v116
	BYTE	W05
	BYTE		N01     An1   v108
	BYTE	W06
	BYTE		N05     An1   v112
	BYTE	W05
	BYTE		N04     Ds2 
	BYTE	W05
	BYTE		N02     An1 
	BYTE	W05
	BYTE		N13   
	BYTE	W01
// 011   ----------------------------------------
	BYTE	W04
	BYTE		N04     En2 
	BYTE	W05
	BYTE		        Fn2   v120
	BYTE	W05
	BYTE		N01     An1   v112
	BYTE	W05
	BYTE		N06   
	BYTE	W06
	BYTE		N04     An2   v116
	BYTE	W05
	BYTE		N01     An1   v108
	BYTE	W05
	BYTE		N05   
	BYTE	W05
	BYTE		N04     Gn2 
	BYTE	W05
	BYTE		N01     An1   v116
	BYTE	W05
	BYTE		N05     An1   v108
	BYTE	W06
	BYTE		N04     Fn2   v120
	BYTE	W05
	BYTE		N01     An1   v112
	BYTE	W05
	BYTE		N30     An1   v116
	BYTE	W05
	BYTE		N24     Ds2 
	BYTE	W24
	BYTE	W01
// 012   ----------------------------------------
	BYTE	W01
	BYTE		N01     An1   v108
	BYTE	W05
	BYTE		N07   
	BYTE	W05
	BYTE		N04     An2   v116
	BYTE	W05
	BYTE		N01     An1   v108
	BYTE	W05
	BYTE		N05     An1   v112
	BYTE	W05
	BYTE		        Gn2 
	BYTE	W06
	BYTE		N02     An1 
	BYTE	W05
	BYTE		N05     An1   v116
	BYTE	W05
	BYTE		        Fn2   v120
	BYTE	W05
	BYTE		N01     An1   v108
	BYTE	W05
	BYTE		N05   
	BYTE	W05
	BYTE		        Ds2   v116
	BYTE	W06
	BYTE		N01     An1   v112
	BYTE	W05
	BYTE		N13   
	BYTE	W05
	BYTE		N05     En2 
	BYTE	W05
	BYTE		        Fn2 
	BYTE	W05
	BYTE		N01     An1 
	BYTE	W05
	BYTE		N08     An1   v108
	BYTE	W05
	BYTE		N05     An2   v120
	BYTE	W03
// 013   ----------------------------------------
	BYTE	W02
	BYTE		N01     An1   v112
	BYTE	W06
	BYTE		N06     An1   v108
	BYTE	W05
	BYTE		N05     Gn2   v112
	BYTE	W05
	BYTE		N01     An1   v116
	BYTE	W05
	BYTE		N02   
	BYTE	W05
	BYTE		        En3   v112
	BYTE	W03
	BYTE		        Dn3   v108
	BYTE	W02
	BYTE		        Cn3   v112
	BYTE	W03
	BYTE		        En3   v104
	BYTE	W03
	BYTE		        Cn3   v112
	BYTE	W02
	BYTE		        An2   v104
	BYTE	W03
	BYTE		        Cn3   v116
	BYTE	W02
	BYTE		        En3   v104
	BYTE	W03
	BYTE		        An3   v112
	BYTE	W03
	BYTE		        En3   v104
	BYTE	W02
	BYTE		        Cn3   v112
	BYTE	W03
	BYTE		        En3   v104
	BYTE	W02
	BYTE		        Cn3   v112
	BYTE	W03
	BYTE		        En3   v100
	BYTE	W02
	BYTE		        Cn3   v116
	BYTE	W03
	BYTE		        An2   v104
	BYTE	W03
	BYTE		N01     En1   v108
	BYTE	W05
	BYTE		N05     En1   v116
	BYTE	W05
	BYTE		N04     En2 
	BYTE	W05
	BYTE		N01     En1   v112
	BYTE	W05
	BYTE		N05   
	BYTE	W05
	BYTE		N04     Dn2 
	BYTE	W01
// 014   ----------------------------------------
	BYTE	W04
	BYTE		N01     En1   v104
	BYTE	W05
	BYTE		N05     En1   v112
	BYTE	W06
	BYTE		        Cn2   v116
	BYTE	W05
	BYTE		N01     En1   v108
	BYTE	W05
	BYTE		N05     En1   v112
	BYTE	W05
	BYTE		N04     As1 
	BYTE	W05
	BYTE		N02     En1 
	BYTE	W05
	BYTE		N13   
	BYTE	W06
	BYTE		N04     Bn1 
	BYTE	W05
	BYTE		        Cn2   v120
	BYTE	W05
	BYTE		N01     En1   v112
	BYTE	W05
	BYTE		N06   
	BYTE	W05
	BYTE		N04     En2   v116
	BYTE	W05
	BYTE		N01     En1   v108
	BYTE	W05
	BYTE		N05   
	BYTE	W05
	BYTE		        Dn2 
	BYTE	W06
	BYTE		N01     En1   v116
	BYTE	W05
	BYTE		N05     En1   v108
	BYTE	W04
// 015   ----------------------------------------
	BYTE	W01
	BYTE		N04     Cn2   v120
	BYTE	W05
	BYTE		N01     En1   v112
	BYTE	W05
	BYTE		N30     En1   v116
	BYTE	W05
	BYTE		N24     As1 
	BYTE	W24
	BYTE	W02
	BYTE		N01     En1   v108
	BYTE	W06
	BYTE		N07   
	BYTE	W05
	BYTE		N04     En2   v116
	BYTE	W05
	BYTE		N01     En1   v108
	BYTE	W05
	BYTE		N05     En1   v112
	BYTE	W05
	BYTE		        Dn2 
	BYTE	W05
	BYTE		N02     En1 
	BYTE	W05
	BYTE		N05     En1   v116
	BYTE	W05
	BYTE		        Cn2   v120
	BYTE	W05
	BYTE		N01     En1   v108
	BYTE	W06
	BYTE		N05   
	BYTE	W02
// 016   ----------------------------------------
	BYTE	W03
	BYTE		        As1   v116
	BYTE	W05
	BYTE		N01     En1   v112
	BYTE	W05
	BYTE		N13   
	BYTE	W05
	BYTE		N05     Bn1 
	BYTE	W06
	BYTE		N04     Cn2 
	BYTE	W05
	BYTE		N01     En1 
	BYTE	W05
	BYTE		N08     En1   v108
	BYTE	W05
	BYTE		N05     En2   v120
	BYTE	W05
	BYTE		N01     En1   v112
	BYTE	W05
	BYTE		N06     En1   v108
	BYTE	W05
	BYTE		N05     Dn2   v112
	BYTE	W05
	BYTE		N01     En1   v116
	BYTE	W06
	BYTE		N05   
	BYTE	W05
	BYTE		N07     Cn2   v120
	BYTE	W05
	BYTE		N01     En1   v112
	BYTE	W05
	BYTE		N30     En1   v116
	BYTE	W05
	BYTE		N24     As1 
	BYTE	W11
// 017   ----------------------------------------
	BYTE	W15
	BYTE		N01     Cs2   v108
	BYTE	W05
	BYTE		N05     Cs2   v116
	BYTE	W05
	BYTE		N04     Cs3 
	BYTE	W06
	BYTE		N01     Cs2   v112
	BYTE	W05
	BYTE		N05   
	BYTE	W05
	BYTE		N04     Bn2 
	BYTE	W05
	BYTE		N01     Cs2   v104
	BYTE	W05
	BYTE		N05     Cs2   v112
	BYTE	W05
	BYTE		N04     An2   v116
	BYTE	W05
	BYTE		N01     Cs2   v108
	BYTE	W05
	BYTE		N05     Cs2   v112
	BYTE	W06
	BYTE		        Gn2 
	BYTE	W05
	BYTE		N02     Cs2 
	BYTE	W05
	BYTE		N13   
	BYTE	W05
	BYTE		N04     Gs2 
	BYTE	W05
	BYTE		        An2   v120
	BYTE	W04
// 018   ----------------------------------------
	BYTE	W01
	BYTE		N01     Bn1   v112
	BYTE	W06
	BYTE		N06   
	BYTE	W05
	BYTE		N04     Bn2   v116
	BYTE	W05
	BYTE		N01     Bn1   v108
	BYTE	W05
	BYTE		N05   
	BYTE	W05
	BYTE		        An2 
	BYTE	W05
	BYTE		N01     Bn1   v116
	BYTE	W05
	BYTE		N05     Bn1   v108
	BYTE	W06
	BYTE		N04     Gn2   v120
	BYTE	W05
	BYTE		N01     As1   v112
	BYTE	W05
	BYTE		N30     An1   v116
	BYTE	W05
	BYTE		N24     Fn2 
	BYTE	W24
	BYTE	W02
	BYTE		N01     En1   v108
	BYTE	W05
	BYTE		N07   
	BYTE	W05
	BYTE		N05     En2   v116
	BYTE	W02
// 019   ----------------------------------------
	BYTE	W03
	BYTE		N01     En1   v108
	BYTE	W05
	BYTE		N05     En1   v112
	BYTE	W06
	BYTE		        Dn2 
	BYTE	W05
	BYTE		N02     En1 
	BYTE	W05
	BYTE		N05     En1   v116
	BYTE	W05
	BYTE		        Cn2   v120
	BYTE	W05
	BYTE		N01     En1   v108
	BYTE	W05
	BYTE		N05   
	BYTE	W05
	BYTE		        As1   v116
	BYTE	W05
	BYTE		N01     En1   v112
	BYTE	W06
	BYTE		N13   
	BYTE	W05
	BYTE		N04     Bn1 
	BYTE	W05
	BYTE		        Cn2 
	BYTE	W05
	BYTE		N01     En1 
	BYTE	W05
	BYTE		N08     En1   v108
	BYTE	W05
	BYTE		N05     En2   v120
	BYTE	W06
	BYTE		N01     En1   v112
	BYTE	W05
	BYTE		N06     En1   v108
	BYTE	W05
// 020   ----------------------------------------
	BYTE		N05     Dn2   v112
	BYTE	W05
	BYTE		N01     En1   v116
	BYTE	W05
	BYTE		N05   
	BYTE	W05
	BYTE		N02     En3   v112
	BYTE	W03
	BYTE		        Gn3   v108
	BYTE	W03
	BYTE		        Bn2   v112
	BYTE	W02
	BYTE		        Gn2   v104
	BYTE	W03
	BYTE		        En3   v112
	BYTE	W02
	BYTE		        Bn2   v104
	BYTE	W03
	BYTE		        Gn3   v116
	BYTE	W02
	BYTE		        En3   v104
	BYTE	W03
	BYTE		        Gn3   v112
	BYTE	W02
	BYTE		        En3   v104
	BYTE	W03
	BYTE		        Bn2   v112
	BYTE	W02
	BYTE		        Gn2   v104
	BYTE	W03
	BYTE		        En3   v112
	BYTE	W03
	BYTE		        Gn3   v100
	BYTE	W02
	BYTE		        Bn3   v116
	BYTE	W03
	BYTE		        En4   v104
	BYTE	W03
	BYTE	GoTo
	 POIN2	AtDoomsGate_4_B1
AtDoomsGate_4_B2:
	BYTE	FINE

//******************************************************//
	ALIGN 4

AtDoomsGate:
	BYTE	4	// NumTrks
	BYTE	0	// NumBlks
	BYTE	AtDoomsGate_pri	// Priority
	BYTE	AtDoomsGate_rev	// Reverb.

	POIN2	AtDoomsGate_grp

	POIN2	AtDoomsGate_1
	POIN2	AtDoomsGate_2
	POIN2	AtDoomsGate_3
	POIN2	AtDoomsGate_4

	
