//Event file generated from Sappy .s format.
	#include "MPlayDef.event"

	#define	BattleTalesOfPhantasia_grp  voicegroup000
	#define	BattleTalesOfPhantasia_pri  0
	#define	BattleTalesOfPhantasia_rev  0
	#define	BattleTalesOfPhantasia_mvl  80
	#define	BattleTalesOfPhantasia_key  0
	#define	BattleTalesOfPhantasia_tbs  1
	#define	BattleTalesOfPhantasia_exg  0
	#define	BattleTalesOfPhantasia_cmp  1

	// .rodata
	//	BattleTalesOfPhantasia
	ALIGN 4

//**************** Track 1 (Midi-Chn.1) ****************//

BattleTalesOfPhantasia_1:
	BYTE	KEYSH   BattleTalesOfPhantasia_key+0
// 000   ----------------------------------------
	BYTE	TEMPO   160*BattleTalesOfPhantasia_tbs/2
	BYTE		VOICE   30
	BYTE		VOL     69*BattleTalesOfPhantasia_mvl/mxv
	BYTE		PAN     c_v+0
	BYTE		BEND    c_v+0
	BYTE	W96
// 001   ----------------------------------------
	BYTE	W96
BattleTalesOfPhantasia_1_B1:
// 002   ----------------------------------------
BattleTalesOfPhantasia_1_002:
	BYTE		N11     Bn2   v092
	BYTE		N11     En3   v104
	BYTE	W12
	BYTE		        Dn3   v092
	BYTE		N11     Fs3   v104
	BYTE	W12
	BYTE		N32     En3   v092
	BYTE		N32     Gn3   v104
	BYTE	W36
	BYTE		N11     Bn2   v092
	BYTE		N11     En3   v104
	BYTE	W12
	BYTE		        Dn3   v092
	BYTE		N11     Fs3   v104
	BYTE	W12
	BYTE		        En3   v092
	BYTE		N11     Gn3   v104
	BYTE	W12
	BYTE	PEND
// 003   ----------------------------------------
	BYTE		N32     Fs3   v092
	BYTE		N32     An3   v104
	BYTE	W36
	BYTE		N23     Dn3   v092
	BYTE		N23     Fs3   v104
	BYTE	W24
	BYTE		        An2   v092
	BYTE		N23     Dn3   v104
	BYTE	W24
	BYTE		N11     Dn3   v092
	BYTE		N11     Fs3   v104
	BYTE	W12
// 004   ----------------------------------------
	BYTE		TIE     Bn2   v092
	BYTE		TIE     En3   v104
	BYTE	W96
// 005   ----------------------------------------
	BYTE	W90
	BYTE		EOT     Bn2 
	BYTE		        En3 
	BYTE		N06     Bn2   v064
	BYTE	W06
// 006   ----------------------------------------
	BYTE	PATT
	 POIN2	BattleTalesOfPhantasia_1_002
// 007   ----------------------------------------
	BYTE		N32     Fs3   v092
	BYTE		N32     An3   v104
	BYTE	W36
	BYTE		N23     Dn3   v092
	BYTE		N23     Fs3   v104
	BYTE	W24
	BYTE		        An2   v092
	BYTE		N23     Dn3   v104
	BYTE	W24
	BYTE		N11     An3   v092
	BYTE		N11     Cn4   v104
	BYTE	W12
// 008   ----------------------------------------
	BYTE		N92     Gn3   v092
	BYTE		TIE     Bn3   v104
	BYTE	W96
// 009   ----------------------------------------
	BYTE		N90     Gs3   v092
	BYTE	W90
	BYTE		EOT     Bn3 
	BYTE		N06   
	BYTE	W06
// 010   ----------------------------------------
	BYTE	W96
// 011   ----------------------------------------
	BYTE	W96
// 012   ----------------------------------------
	BYTE	W96
// 013   ----------------------------------------
	BYTE	W96
// 014   ----------------------------------------
	BYTE		        An4 
	BYTE	W12
	BYTE		N05     Bn4 
	BYTE	W12
	BYTE		N06     Cn5 
	BYTE	W12
	BYTE		N05     En5 
	BYTE	W12
	BYTE		N11     Dn5 
	BYTE	W12
	BYTE		N12     Cn5 
	BYTE	W12
	BYTE		        Bn4 
	BYTE	W12
	BYTE		        An4 
	BYTE	W12
// 015   ----------------------------------------
	BYTE		N06     Gn4 
	BYTE	W12
	BYTE		N05     An4 
	BYTE	W12
	BYTE		N06     Bn4 
	BYTE	W12
	BYTE		N05     Dn5 
	BYTE	W12
	BYTE		N11     Cn5 
	BYTE	W12
	BYTE		N12     Bn4 
	BYTE	W12
	BYTE		        An4 
	BYTE	W12
	BYTE		        Gn4 
	BYTE	W12
// 016   ----------------------------------------
	BYTE		N05     Fn4 
	BYTE	W06
	BYTE		N06     Gn4 
	BYTE	W06
	BYTE		N32     An4 
	BYTE	W36
	BYTE		N05     Gn4 
	BYTE	W06
	BYTE		N06     An4 
	BYTE	W06
	BYTE		N32     Bn4 
	BYTE	W36
// 017   ----------------------------------------
	BYTE		N17     Gs4 
	BYTE	W18
	BYTE		N18     An4 
	BYTE	W18
	BYTE		N11     Bn4 
	BYTE	W12
	BYTE		N17     En5 
	BYTE	W18
	BYTE		N18     Bn4 
	BYTE	W18
	BYTE		N11     Gs4 
	BYTE	W12
// 018   ----------------------------------------
	BYTE		N92     An3   v112
	BYTE	W96
// 019   ----------------------------------------
BattleTalesOfPhantasia_1_019:
	BYTE		N44     Gn3   v112
	BYTE	W48
	BYTE		N48     Bn3 
	BYTE	W48
	BYTE	PEND
// 020   ----------------------------------------
	BYTE		N92     Cn4 
	BYTE	W96
// 021   ----------------------------------------
	BYTE		N44     Dn4 
	BYTE	W48
	BYTE		N48     Bn3 
	BYTE	W48
// 022   ----------------------------------------
	BYTE		N92     An3 
	BYTE	W96
// 023   ----------------------------------------
	BYTE	PATT
	 POIN2	BattleTalesOfPhantasia_1_019
// 024   ----------------------------------------
	BYTE		N92     Cn4   v112
	BYTE	W96
// 025   ----------------------------------------
	BYTE	W96
	BYTE	GoTo
	 POIN2	BattleTalesOfPhantasia_1_B1
BattleTalesOfPhantasia_1_B2:
// 026   ----------------------------------------
	BYTE	W72
	BYTE	FINE

//**************** Track 2 (Midi-Chn.2) ****************//

BattleTalesOfPhantasia_2:
	BYTE	KEYSH   BattleTalesOfPhantasia_key+0
// 000   ----------------------------------------
	BYTE		VOICE   56
	BYTE		LFODL   0
	BYTE		MODT    0
	BYTE		LFOS    0
	BYTE		MOD     0
	BYTE		VOL     98*BattleTalesOfPhantasia_mvl/mxv
	BYTE		PAN     c_v+0
	BYTE		BEND    c_v+0
	BYTE	W96
// 001   ----------------------------------------
	BYTE	W96
BattleTalesOfPhantasia_2_B1:
// 002   ----------------------------------------
	BYTE	W96
// 003   ----------------------------------------
	BYTE	W96
// 004   ----------------------------------------
	BYTE	W96
// 005   ----------------------------------------
	BYTE	W96
// 006   ----------------------------------------
	BYTE	W96
// 007   ----------------------------------------
	BYTE	W96
// 008   ----------------------------------------
	BYTE	W96
// 009   ----------------------------------------
	BYTE	W96
// 010   ----------------------------------------
BattleTalesOfPhantasia_2_010:
	BYTE		N06     An4   v092
	BYTE	W12
	BYTE		N05     Bn4 
	BYTE	W12
	BYTE		N06     Cn5 
	BYTE	W12
	BYTE		N05     En5 
	BYTE	W12
	BYTE		N11     Dn5 
	BYTE	W12
	BYTE		N12     Cn5 
	BYTE	W12
	BYTE		        Bn4 
	BYTE	W12
	BYTE		        An4 
	BYTE	W12
	BYTE	PEND
// 011   ----------------------------------------
BattleTalesOfPhantasia_2_011:
	BYTE		N06     Gn4   v092
	BYTE	W12
	BYTE		N05     An4 
	BYTE	W12
	BYTE		N06     Bn4 
	BYTE	W12
	BYTE		N05     Dn5 
	BYTE	W12
	BYTE		N11     Cn5 
	BYTE	W12
	BYTE		N12     Bn4 
	BYTE	W12
	BYTE		        An4 
	BYTE	W12
	BYTE		        Gn4 
	BYTE	W12
	BYTE	PEND
// 012   ----------------------------------------
BattleTalesOfPhantasia_2_012:
	BYTE		N05     Fn4   v092
	BYTE	W06
	BYTE		N06     Gn4 
	BYTE	W06
	BYTE		N32     An4 
	BYTE	W36
	BYTE		N05     Gn4 
	BYTE	W06
	BYTE		N06     An4 
	BYTE	W06
	BYTE		N32     Bn4 
	BYTE	W36
	BYTE	PEND
// 013   ----------------------------------------
	BYTE		N05     An4 
	BYTE	W06
	BYTE		N06     Bn4 
	BYTE	W06
	BYTE		N32     Cn5 
	BYTE	W36
	BYTE		N05     Bn4 
	BYTE	W06
	BYTE		N06     Cn5 
	BYTE	W06
	BYTE		N32     Dn5 
	BYTE	W36
// 014   ----------------------------------------
	BYTE	PATT
	 POIN2	BattleTalesOfPhantasia_2_010
// 015   ----------------------------------------
	BYTE	PATT
	 POIN2	BattleTalesOfPhantasia_2_011
// 016   ----------------------------------------
	BYTE	PATT
	 POIN2	BattleTalesOfPhantasia_2_012
// 017   ----------------------------------------
	BYTE		N17     Gs4   v092
	BYTE	W18
	BYTE		N18     An4 
	BYTE	W18
	BYTE		N11     Bn4 
	BYTE	W12
	BYTE		N17     En5 
	BYTE	W18
	BYTE		N18     Bn4 
	BYTE	W18
	BYTE		N11     Gs4 
	BYTE	W12
// 018   ----------------------------------------
	BYTE	W96
// 019   ----------------------------------------
	BYTE	W96
// 020   ----------------------------------------
	BYTE	W96
// 021   ----------------------------------------
	BYTE	W96
// 022   ----------------------------------------
	BYTE	W96
// 023   ----------------------------------------
	BYTE	W96
// 024   ----------------------------------------
	BYTE	W96
// 025   ----------------------------------------
	BYTE	W96
	BYTE	GoTo
	 POIN2	BattleTalesOfPhantasia_2_B1
BattleTalesOfPhantasia_2_B2:
// 026   ----------------------------------------
	BYTE	W72
	BYTE	FINE

//**************** Track 3 (Midi-Chn.3) ****************//

BattleTalesOfPhantasia_3:
	BYTE	KEYSH   BattleTalesOfPhantasia_key+0
// 000   ----------------------------------------
	BYTE		VOICE   52
	BYTE		LFODL   0
	BYTE		MODT    0
	BYTE		LFOS    0
	BYTE		MOD     0
	BYTE		VOL     87*BattleTalesOfPhantasia_mvl/mxv
	BYTE		PAN     c_v+0
	BYTE		BEND    c_v+0
	BYTE		N23     Fn2   v088
	BYTE		N23     An2 
	BYTE	W24
	BYTE		        En2 
	BYTE		N23     Gs2 
	BYTE	W24
	BYTE		        An2 
	BYTE		N23     Cn3 
	BYTE	W24
	BYTE		        Gs2 
	BYTE		N23     Bn2 
	BYTE	W24
// 001   ----------------------------------------
	BYTE		        Cn3 
	BYTE		N23     En3 
	BYTE	W24
	BYTE		        Bn2 
	BYTE		N23     Ds3 
	BYTE	W24
	BYTE		        En3 
	BYTE		N23     Gn3 
	BYTE	W24
	BYTE		        Ds3 
	BYTE		N23     Fs3 
	BYTE	W24
BattleTalesOfPhantasia_3_B1:
// 002   ----------------------------------------
	BYTE	W96
// 003   ----------------------------------------
	BYTE	W96
// 004   ----------------------------------------
	BYTE	W96
// 005   ----------------------------------------
	BYTE	W96
// 006   ----------------------------------------
	BYTE	W96
// 007   ----------------------------------------
	BYTE	W96
// 008   ----------------------------------------
	BYTE	W96
// 009   ----------------------------------------
	BYTE	W96
// 010   ----------------------------------------
	BYTE		N92     En2   v080
	BYTE		N92     Cn3 
	BYTE	W96
// 011   ----------------------------------------
	BYTE		        Dn2 
	BYTE		N92     Bn2 
	BYTE	W96
// 012   ----------------------------------------
	BYTE		N44     Cn2 
	BYTE		N44     An2 
	BYTE	W48
	BYTE		        Dn2 
	BYTE		N44     Bn2 
	BYTE	W48
// 013   ----------------------------------------
	BYTE		        Fn2 
	BYTE		N44     An2 
	BYTE	W48
	BYTE		        En2 
	BYTE		N44     Gn2 
	BYTE	W48
// 014   ----------------------------------------
	BYTE		N92     Fn2 
	BYTE		N92     An2 
	BYTE	W96
// 015   ----------------------------------------
	BYTE		        Gn2 
	BYTE		N92     Bn2 
	BYTE	W96
// 016   ----------------------------------------
	BYTE		N44     An2 
	BYTE		N44     Cn3 
	BYTE	W48
	BYTE		        Gn2 
	BYTE		N44     Bn2 
	BYTE	W48
// 017   ----------------------------------------
	BYTE		        Gs2 
	BYTE		N44     Bn2 
	BYTE	W48
	BYTE		N44   
	BYTE		N44     En3 
	BYTE	W48
// 018   ----------------------------------------
	BYTE		N92     Cn3   v088
	BYTE	W96
// 019   ----------------------------------------
BattleTalesOfPhantasia_3_019:
	BYTE		N44     Bn2   v088
	BYTE	W48
	BYTE		N48     Gn2 
	BYTE	W48
	BYTE	PEND
// 020   ----------------------------------------
	BYTE		N92     An2 
	BYTE	W96
// 021   ----------------------------------------
	BYTE		N44     Gn2 
	BYTE	W48
	BYTE		N48     Bn2 
	BYTE	W48
// 022   ----------------------------------------
	BYTE		N92     Cn3 
	BYTE	W96
// 023   ----------------------------------------
	BYTE	PATT
	 POIN2	BattleTalesOfPhantasia_3_019
// 024   ----------------------------------------
	BYTE		N92     An2   v088
	BYTE	W96
// 025   ----------------------------------------
	BYTE	W96
	BYTE	GoTo
	 POIN2	BattleTalesOfPhantasia_3_B1
BattleTalesOfPhantasia_3_B2:
// 026   ----------------------------------------
	BYTE	W72
	BYTE	FINE

//**************** Track 4 (Midi-Chn.4) ****************//

BattleTalesOfPhantasia_4:
	BYTE	KEYSH   BattleTalesOfPhantasia_key+0
// 000   ----------------------------------------
	BYTE		VOICE   71
	BYTE		VOL     75*BattleTalesOfPhantasia_mvl/mxv
	BYTE		PAN     c_v+0
	BYTE		BEND    c_v+0
	BYTE	W96
// 001   ----------------------------------------
	BYTE	W96
BattleTalesOfPhantasia_4_B1:
// 002   ----------------------------------------
	BYTE	W96
// 003   ----------------------------------------
	BYTE	W96
// 004   ----------------------------------------
	BYTE	W96
// 005   ----------------------------------------
	BYTE	W96
// 006   ----------------------------------------
	BYTE	W96
// 007   ----------------------------------------
	BYTE	W96
// 008   ----------------------------------------
	BYTE	W96
// 009   ----------------------------------------
	BYTE	W96
// 010   ----------------------------------------
	BYTE	W96
// 011   ----------------------------------------
	BYTE	W96
// 012   ----------------------------------------
	BYTE	W96
// 013   ----------------------------------------
	BYTE	W96
// 014   ----------------------------------------
	BYTE	W96
// 015   ----------------------------------------
	BYTE	W96
// 016   ----------------------------------------
	BYTE	W96
// 017   ----------------------------------------
	BYTE	W96
// 018   ----------------------------------------
	BYTE	W96
// 019   ----------------------------------------
	BYTE	W96
// 020   ----------------------------------------
	BYTE	W96
// 021   ----------------------------------------
	BYTE	W96
// 022   ----------------------------------------
	BYTE	W96
// 023   ----------------------------------------
	BYTE	W96
// 024   ----------------------------------------
	BYTE	W96
// 025   ----------------------------------------
	BYTE		N44     Fn3   v052
	BYTE		N44     Cn4 
	BYTE		N44     An4 
	BYTE	W48
	BYTE		        Gn3 
	BYTE		N44     Dn4 
	BYTE		N44     Bn4 
	BYTE	W48
	BYTE	GoTo
	 POIN2	BattleTalesOfPhantasia_4_B1
BattleTalesOfPhantasia_4_B2:
// 026   ----------------------------------------
	BYTE	W72
	BYTE	FINE

//**************** Track 5 (Midi-Chn.5) ****************//

BattleTalesOfPhantasia_5:
	BYTE	KEYSH   BattleTalesOfPhantasia_key+0
// 000   ----------------------------------------
	BYTE		VOICE   34
	BYTE		VOL     83*BattleTalesOfPhantasia_mvl/mxv
	BYTE		PAN     c_v+0
	BYTE		BEND    c_v+0
	BYTE		N23     An0   v112
	BYTE	W24
	BYTE		N24     Gs0 
	BYTE	W24
	BYTE		        Cn1 
	BYTE	W24
	BYTE		        Bn0 
	BYTE	W24
// 001   ----------------------------------------
	BYTE		        En1 
	BYTE	W24
	BYTE		        Ds1 
	BYTE	W24
	BYTE		N11     Bn0 
	BYTE	W12
	BYTE		N12     Bn1 
	BYTE	W12
	BYTE		        Bn0 
	BYTE	W12
	BYTE		N05     Bn1 
	BYTE	W06
	BYTE		N05   
	BYTE	W06
BattleTalesOfPhantasia_5_B1:
// 002   ----------------------------------------
	BYTE	W01
	BYTE		N11     En0   v112
	BYTE	W11
	BYTE		N11   
	BYTE	W12
	BYTE		N05     En1 
	BYTE	W06
	BYTE		N06     En0 
	BYTE	W06
	BYTE		        Bn0 
	BYTE	W06
	BYTE		        En1 
	BYTE	W06
	BYTE		N11     En0 
	BYTE	W12
	BYTE		N11   
	BYTE	W12
	BYTE		N05     En1 
	BYTE	W06
	BYTE		N06     En0 
	BYTE	W06
	BYTE		        Bn0 
	BYTE	W06
	BYTE		        En1 
	BYTE	W06
// 003   ----------------------------------------
	BYTE		N11     Dn1 
	BYTE	W12
	BYTE		N11   
	BYTE	W12
	BYTE		N05     An0 
	BYTE	W06
	BYTE		N06     Dn1 
	BYTE	W06
	BYTE		        An1 
	BYTE	W06
	BYTE		        Dn1 
	BYTE	W06
	BYTE		N11   
	BYTE	W12
	BYTE		N11   
	BYTE	W12
	BYTE		N05     An0 
	BYTE	W06
	BYTE		N06     Gn0 
	BYTE	W06
	BYTE		        Fs0 
	BYTE	W06
	BYTE		        Fn0 
	BYTE	W06
// 004   ----------------------------------------
BattleTalesOfPhantasia_5_004:
	BYTE		N11     En0   v112
	BYTE	W12
	BYTE		N11   
	BYTE	W12
	BYTE		N05     En1 
	BYTE	W06
	BYTE		N06     En0 
	BYTE	W06
	BYTE		        Bn0 
	BYTE	W06
	BYTE		        En1 
	BYTE	W06
	BYTE		N11     En0 
	BYTE	W12
	BYTE		N11   
	BYTE	W12
	BYTE		N05     En1 
	BYTE	W06
	BYTE		N06     En0 
	BYTE	W06
	BYTE		        Bn0 
	BYTE	W06
	BYTE		        En1 
	BYTE	W06
	BYTE	PEND
// 005   ----------------------------------------
	BYTE	PATT
	 POIN2	BattleTalesOfPhantasia_5_004
// 006   ----------------------------------------
	BYTE	PATT
	 POIN2	BattleTalesOfPhantasia_5_004
// 007   ----------------------------------------
	BYTE		N11     Dn1   v112
	BYTE	W12
	BYTE		N11   
	BYTE	W12
	BYTE		N05     An0 
	BYTE	W06
	BYTE		N06     Dn1 
	BYTE	W06
	BYTE		        An1 
	BYTE	W06
	BYTE		        Dn1 
	BYTE	W06
	BYTE		N11   
	BYTE	W12
	BYTE		N11   
	BYTE	W12
	BYTE		N05     An0 
	BYTE	W06
	BYTE		N05   
	BYTE	W06
	BYTE		N06     As0 
	BYTE	W06
	BYTE		        Bn0 
	BYTE	W06
// 008   ----------------------------------------
	BYTE	PATT
	 POIN2	BattleTalesOfPhantasia_5_004
// 009   ----------------------------------------
	BYTE	PATT
	 POIN2	BattleTalesOfPhantasia_5_004
// 010   ----------------------------------------
	BYTE		N11     An0   v112
	BYTE	W12
	BYTE		N11   
	BYTE	W12
	BYTE		N05     An1 
	BYTE	W06
	BYTE		N06     An0 
	BYTE	W06
	BYTE		        En1 
	BYTE	W06
	BYTE		        An1 
	BYTE	W06
	BYTE		N11     An0 
	BYTE	W12
	BYTE		N11   
	BYTE	W12
	BYTE		N05     An1 
	BYTE	W06
	BYTE		N06     An0 
	BYTE	W06
	BYTE		        En1 
	BYTE	W06
	BYTE		        An1 
	BYTE	W06
// 011   ----------------------------------------
BattleTalesOfPhantasia_5_011:
	BYTE		N11     Gn0   v112
	BYTE	W12
	BYTE		N11   
	BYTE	W12
	BYTE		N05     Gn1 
	BYTE	W06
	BYTE		N06     Gn0 
	BYTE	W06
	BYTE		        Dn1 
	BYTE	W06
	BYTE		        Gn1 
	BYTE	W06
	BYTE		N11     Gn0 
	BYTE	W12
	BYTE		N11   
	BYTE	W12
	BYTE		N05     Gn1 
	BYTE	W06
	BYTE		N06     Gn0 
	BYTE	W06
	BYTE		        Dn1 
	BYTE	W06
	BYTE		        Gn1 
	BYTE	W06
	BYTE	PEND
// 012   ----------------------------------------
	BYTE		N11     Fn1 
	BYTE	W12
	BYTE		N12     Cn1 
	BYTE	W12
	BYTE		        Fn1 
	BYTE	W12
	BYTE		        Cn1 
	BYTE	W12
	BYTE		        Gn1 
	BYTE	W12
	BYTE		        Dn1 
	BYTE	W12
	BYTE		        Gn0 
	BYTE	W12
	BYTE		        Gn1 
	BYTE	W12
// 013   ----------------------------------------
	BYTE		        Dn1 
	BYTE	W12
	BYTE		        An0 
	BYTE	W12
	BYTE		        Dn1 
	BYTE	W12
	BYTE		        An0 
	BYTE	W12
	BYTE		        En1 
	BYTE	W12
	BYTE		        Bn0 
	BYTE	W12
	BYTE		        En1 
	BYTE	W12
	BYTE		        Bn0 
	BYTE	W12
// 014   ----------------------------------------
	BYTE		        Fn0 
	BYTE	W12
	BYTE		N11   
	BYTE	W12
	BYTE		N05     Fn1 
	BYTE	W06
	BYTE		N06     Fn0 
	BYTE	W06
	BYTE		        Cn1 
	BYTE	W06
	BYTE		        Fn1 
	BYTE	W06
	BYTE		N11     Fn0 
	BYTE	W12
	BYTE		N11   
	BYTE	W12
	BYTE		N05     Fn1 
	BYTE	W06
	BYTE		N06     Fn0 
	BYTE	W06
	BYTE		        Cn1 
	BYTE	W06
	BYTE		        Fn1 
	BYTE	W06
// 015   ----------------------------------------
	BYTE	PATT
	 POIN2	BattleTalesOfPhantasia_5_011
// 016   ----------------------------------------
	BYTE		N11     Fn0   v112
	BYTE	W12
	BYTE		N12     Fn1 
	BYTE	W12
	BYTE		        Fn0 
	BYTE	W12
	BYTE		        Fn1 
	BYTE	W12
	BYTE		        Gn0 
	BYTE	W12
	BYTE		        Gn1 
	BYTE	W12
	BYTE		        Gn0 
	BYTE	W12
	BYTE		        Gn1 
	BYTE	W12
// 017   ----------------------------------------
	BYTE		        Gs0 
	BYTE	W12
	BYTE		        Gs1 
	BYTE	W12
	BYTE		        Gs0 
	BYTE	W12
	BYTE		        Gs1 
	BYTE	W12
	BYTE		        En0 
	BYTE	W12
	BYTE		        En1 
	BYTE	W12
	BYTE		        En0 
	BYTE	W12
	BYTE		        En1 
	BYTE	W12
// 018   ----------------------------------------
BattleTalesOfPhantasia_5_018:
	BYTE		N11     An0   v112
	BYTE	W12
	BYTE		N05     An1 
	BYTE	W06
	BYTE		N05   
	BYTE	W06
	BYTE		N11     An0 
	BYTE	W12
	BYTE		N05     An1 
	BYTE	W06
	BYTE		N05   
	BYTE	W06
	BYTE		N11     An0 
	BYTE	W12
	BYTE		N05     An1 
	BYTE	W06
	BYTE		N05   
	BYTE	W06
	BYTE		N11     An0 
	BYTE	W12
	BYTE		N05     An1 
	BYTE	W06
	BYTE		N05   
	BYTE	W06
	BYTE	PEND
// 019   ----------------------------------------
BattleTalesOfPhantasia_5_019:
	BYTE		N11     Gn0   v112
	BYTE	W12
	BYTE		N05     Gn1 
	BYTE	W06
	BYTE		N05   
	BYTE	W06
	BYTE		N11     Gn0 
	BYTE	W12
	BYTE		N05     Gn1 
	BYTE	W06
	BYTE		N05   
	BYTE	W06
	BYTE		N11     Gn0 
	BYTE	W12
	BYTE		N05     Gn1 
	BYTE	W06
	BYTE		N05   
	BYTE	W06
	BYTE		N11     Gn0 
	BYTE	W12
	BYTE		N05     Gn1 
	BYTE	W06
	BYTE		N05   
	BYTE	W06
	BYTE	PEND
// 020   ----------------------------------------
BattleTalesOfPhantasia_5_020:
	BYTE		N11     Fn0   v112
	BYTE	W12
	BYTE		N05     Fn1 
	BYTE	W06
	BYTE		N05   
	BYTE	W06
	BYTE		N11     Fn0 
	BYTE	W12
	BYTE		N05     Fn1 
	BYTE	W06
	BYTE		N05   
	BYTE	W06
	BYTE		N11     Fn0 
	BYTE	W12
	BYTE		N05     Fn1 
	BYTE	W06
	BYTE		N05   
	BYTE	W06
	BYTE		N11     Fn0 
	BYTE	W12
	BYTE		N05     Fn1 
	BYTE	W06
	BYTE		N05   
	BYTE	W06
	BYTE	PEND
// 021   ----------------------------------------
	BYTE	PATT
	 POIN2	BattleTalesOfPhantasia_5_019
// 022   ----------------------------------------
	BYTE	PATT
	 POIN2	BattleTalesOfPhantasia_5_020
// 023   ----------------------------------------
	BYTE	PATT
	 POIN2	BattleTalesOfPhantasia_5_019
// 024   ----------------------------------------
	BYTE	PATT
	 POIN2	BattleTalesOfPhantasia_5_018
// 025   ----------------------------------------
	BYTE		N11     Fn0   v112
	BYTE	W12
	BYTE		N05     Fn1 
	BYTE	W06
	BYTE		N05   
	BYTE	W06
	BYTE		N11     Fn0 
	BYTE	W12
	BYTE		N05     Fn1 
	BYTE	W06
	BYTE		N05   
	BYTE	W06
	BYTE		N11     Gn0 
	BYTE	W12
	BYTE		N05     Gn1 
	BYTE	W06
	BYTE		N05   
	BYTE	W06
	BYTE		N11     Gn0 
	BYTE	W12
	BYTE		N05     Gn1 
	BYTE	W06
	BYTE		N05   
	BYTE	W06
	BYTE	GoTo
	 POIN2	BattleTalesOfPhantasia_5_B1
BattleTalesOfPhantasia_5_B2:
// 026   ----------------------------------------
	BYTE		N11     An0   v112
	BYTE	W12
	BYTE		N05     An1 
	BYTE	W06
	BYTE		N05   
	BYTE	W06
	BYTE		N11     An0 
	BYTE	W12
	BYTE		N05     An1 
	BYTE	W06
	BYTE		N05   
	BYTE	W06
	BYTE		N11     An0 
	BYTE	W12
	BYTE		N05     An1 
	BYTE	W06
	BYTE		N05   
	BYTE	W06
	BYTE	FINE

//**************** Track 6 (Midi-Chn.6) ****************//

BattleTalesOfPhantasia_6:
	BYTE	KEYSH   BattleTalesOfPhantasia_key+0
// 000   ----------------------------------------
	BYTE		VOICE   73
	BYTE		LFODL   0
	BYTE		MODT    0
	BYTE		LFOS    0
	BYTE		MOD     0
	BYTE		VOL     63*BattleTalesOfPhantasia_mvl/mxv
	BYTE		PAN     c_v+0
	BYTE		BEND    c_v+0
	BYTE	W96
// 001   ----------------------------------------
	BYTE	W96
BattleTalesOfPhantasia_6_B1:
// 002   ----------------------------------------
BattleTalesOfPhantasia_6_002:
	BYTE		N11     En4   v080
	BYTE	W12
	BYTE		N12     Fs4 
	BYTE	W12
	BYTE		N32     Gn4 
	BYTE	W36
	BYTE		N11     En4 
	BYTE	W12
	BYTE		N12     Fs4 
	BYTE	W12
	BYTE		        Gn4 
	BYTE	W12
	BYTE	PEND
// 003   ----------------------------------------
	BYTE		N32     An4 
	BYTE	W36
	BYTE		N23     Fs4 
	BYTE	W24
	BYTE		N24     Dn4 
	BYTE	W24
	BYTE		N11     Fs4 
	BYTE	W12
// 004   ----------------------------------------
	BYTE		TIE     En4 
	BYTE	W96
// 005   ----------------------------------------
	BYTE	W90
	BYTE		EOT   
	BYTE	W06
// 006   ----------------------------------------
	BYTE	PATT
	 POIN2	BattleTalesOfPhantasia_6_002
// 007   ----------------------------------------
	BYTE		N32     An4   v080
	BYTE	W36
	BYTE		N23     Fs4 
	BYTE	W24
	BYTE		N24     Dn4 
	BYTE	W24
	BYTE		N11     Cn5 
	BYTE	W12
// 008   ----------------------------------------
	BYTE		TIE     Bn4 
	BYTE	W96
// 009   ----------------------------------------
	BYTE	W90
	BYTE		EOT   
	BYTE	W06
// 010   ----------------------------------------
	BYTE	W96
// 011   ----------------------------------------
	BYTE	W96
// 012   ----------------------------------------
	BYTE	W96
// 013   ----------------------------------------
	BYTE	W96
// 014   ----------------------------------------
	BYTE	W96
// 015   ----------------------------------------
	BYTE	W96
// 016   ----------------------------------------
	BYTE	W96
// 017   ----------------------------------------
	BYTE	W96
// 018   ----------------------------------------
	BYTE		N92     An4   v072
	BYTE	W96
// 019   ----------------------------------------
BattleTalesOfPhantasia_6_019:
	BYTE		N44     Gn4   v072
	BYTE	W48
	BYTE		N48     Bn4 
	BYTE	W48
	BYTE	PEND
// 020   ----------------------------------------
	BYTE		N92     Cn5 
	BYTE	W96
// 021   ----------------------------------------
	BYTE		N44     Dn5 
	BYTE	W48
	BYTE		N48     Bn4 
	BYTE	W48
// 022   ----------------------------------------
	BYTE		N92     An4 
	BYTE	W96
// 023   ----------------------------------------
	BYTE	PATT
	 POIN2	BattleTalesOfPhantasia_6_019
// 024   ----------------------------------------
	BYTE		N92     Cn5   v072
	BYTE	W96
// 025   ----------------------------------------
	BYTE	W96
	BYTE	GoTo
	 POIN2	BattleTalesOfPhantasia_6_B1
BattleTalesOfPhantasia_6_B2:
// 026   ----------------------------------------
	BYTE	W72
	BYTE	FINE

//**************** Track 7 (Midi-Chn.7) ****************//

BattleTalesOfPhantasia_7:
	BYTE	KEYSH   BattleTalesOfPhantasia_key+0
// 000   ----------------------------------------
	BYTE		VOICE   46
	BYTE		PAN     c_v-1
	BYTE		VOL     63*BattleTalesOfPhantasia_mvl/mxv
	BYTE		BEND    c_v+0
	BYTE		N05     Cn5   v032
	BYTE	W06
	BYTE		N06     An4 
	BYTE	W06
	BYTE		        En4 
	BYTE	W06
	BYTE		        An4 
	BYTE	W06
	BYTE		        Bn4   v036
	BYTE	W06
	BYTE		        Gs4 
	BYTE	W06
	BYTE		        En4 
	BYTE	W06
	BYTE		        Gs4 
	BYTE	W06
	BYTE		        Ds5 
	BYTE	W06
	BYTE		        Cn5   v040
	BYTE	W06
	BYTE		        An4 
	BYTE	W06
	BYTE		        Cn5 
	BYTE	W06
	BYTE		        Dn5 
	BYTE	W06
	BYTE		        Bn4 
	BYTE	W06
	BYTE		        Gs4   v044
	BYTE	W06
	BYTE		        Bn4 
	BYTE	W06
// 001   ----------------------------------------
	BYTE		        En5 
	BYTE	W06
	BYTE		        Cn5 
	BYTE	W06
	BYTE		        An4 
	BYTE	W06
	BYTE		        Cn5   v048
	BYTE	W06
	BYTE		        Ds5 
	BYTE	W06
	BYTE		        Bn4 
	BYTE	W06
	BYTE		        Fs4 
	BYTE	W06
	BYTE		        Bn4 
	BYTE	W06
	BYTE		        Gn5   v052
	BYTE	W06
	BYTE		        En5 
	BYTE	W06
	BYTE		        Bn4 
	BYTE	W06
	BYTE		        En5 
	BYTE	W06
	BYTE		        Fs5 
	BYTE	W06
	BYTE		        Ds5   v056
	BYTE	W06
	BYTE		        Bn4 
	BYTE	W06
	BYTE		        Ds5 
	BYTE	W06
BattleTalesOfPhantasia_7_B1:
// 002   ----------------------------------------
	BYTE	W01
	BYTE		N05     Bn3   v036
	BYTE	W05
	BYTE		N06     En4 
	BYTE	W06
	BYTE		        Gn4 
	BYTE	W06
	BYTE		        Bn4 
	BYTE	W06
	BYTE		        En4 
	BYTE	W06
	BYTE		        Gn4 
	BYTE	W06
	BYTE		        Bn4 
	BYTE	W06
	BYTE		        En5 
	BYTE	W06
	BYTE		        Gn4 
	BYTE	W06
	BYTE		        Bn4 
	BYTE	W06
	BYTE		        En5 
	BYTE	W06
	BYTE		        Gn5 
	BYTE	W06
	BYTE		        Bn4 
	BYTE	W06
	BYTE		        En5 
	BYTE	W06
	BYTE		        Gn5 
	BYTE	W06
	BYTE		        Bn5 
	BYTE	W06
// 003   ----------------------------------------
BattleTalesOfPhantasia_7_003:
	BYTE		N05     An3   v036
	BYTE	W06
	BYTE		N06     Dn4 
	BYTE	W06
	BYTE		        Fs4 
	BYTE	W06
	BYTE		        An4 
	BYTE	W06
	BYTE		        Dn4 
	BYTE	W06
	BYTE		        Fs4 
	BYTE	W06
	BYTE		        An4 
	BYTE	W06
	BYTE		        Dn5 
	BYTE	W06
	BYTE		        Fs4 
	BYTE	W06
	BYTE		        An4 
	BYTE	W06
	BYTE		        Dn5 
	BYTE	W06
	BYTE		        Fs5 
	BYTE	W06
	BYTE		        An4 
	BYTE	W06
	BYTE		        Dn5 
	BYTE	W06
	BYTE		        Fs5 
	BYTE	W06
	BYTE		        An5 
	BYTE	W06
	BYTE	PEND
// 004   ----------------------------------------
BattleTalesOfPhantasia_7_004:
	BYTE		N05     Bn3   v036
	BYTE	W06
	BYTE		N06     En4 
	BYTE	W06
	BYTE		        Gn4 
	BYTE	W06
	BYTE		        Bn4 
	BYTE	W06
	BYTE		        En4 
	BYTE	W06
	BYTE		        Gn4 
	BYTE	W06
	BYTE		        Bn4 
	BYTE	W06
	BYTE		        En5 
	BYTE	W06
	BYTE		        Gn4 
	BYTE	W06
	BYTE		        Bn4 
	BYTE	W06
	BYTE		        En5 
	BYTE	W06
	BYTE		        Gn5 
	BYTE	W06
	BYTE		        Bn4 
	BYTE	W06
	BYTE		        En5 
	BYTE	W06
	BYTE		        Gn5 
	BYTE	W06
	BYTE		        Bn5 
	BYTE	W06
	BYTE	PEND
// 005   ----------------------------------------
	BYTE		        En5 
	BYTE	W06
	BYTE		        Gn5 
	BYTE	W06
	BYTE		        Bn4 
	BYTE	W06
	BYTE		        En5 
	BYTE	W06
	BYTE		        Gn4 
	BYTE	W06
	BYTE		        Bn4 
	BYTE	W06
	BYTE		        En4 
	BYTE	W06
	BYTE		        Gn4 
	BYTE	W06
	BYTE		        Bn3 
	BYTE	W06
	BYTE		        En4 
	BYTE	W06
	BYTE		        Gn4 
	BYTE	W06
	BYTE		        Bn4 
	BYTE	W06
	BYTE		        Gn4 
	BYTE	W06
	BYTE		        En4 
	BYTE	W06
	BYTE		        Bn3 
	BYTE	W06
	BYTE		        Gn3 
	BYTE	W06
// 006   ----------------------------------------
	BYTE	PATT
	 POIN2	BattleTalesOfPhantasia_7_004
// 007   ----------------------------------------
	BYTE	PATT
	 POIN2	BattleTalesOfPhantasia_7_003
// 008   ----------------------------------------
	BYTE	PATT
	 POIN2	BattleTalesOfPhantasia_7_004
// 009   ----------------------------------------
	BYTE		N05     Gs5   v036
	BYTE	W06
	BYTE		N06     Bn5 
	BYTE	W06
	BYTE		        En5 
	BYTE	W06
	BYTE		        Gs5 
	BYTE	W06
	BYTE		        Bn4 
	BYTE	W06
	BYTE		        En5 
	BYTE	W06
	BYTE		        Gs4 
	BYTE	W06
	BYTE		        Bn4 
	BYTE	W06
	BYTE		        En4 
	BYTE	W06
	BYTE		        Gs4 
	BYTE	W06
	BYTE		        Bn3 
	BYTE	W06
	BYTE		        En4 
	BYTE	W06
	BYTE		        Gs3 
	BYTE	W06
	BYTE		        Bn3 
	BYTE	W06
	BYTE		        En4 
	BYTE	W06
	BYTE		        Gs4 
	BYTE	W06
// 010   ----------------------------------------
	BYTE	W96
// 011   ----------------------------------------
	BYTE	W96
// 012   ----------------------------------------
	BYTE	W96
// 013   ----------------------------------------
	BYTE	W96
// 014   ----------------------------------------
	BYTE	W96
// 015   ----------------------------------------
	BYTE	W96
// 016   ----------------------------------------
	BYTE	W96
// 017   ----------------------------------------
	BYTE	W96
// 018   ----------------------------------------
	BYTE		N05     An3 
	BYTE	W06
	BYTE		N06     Cn4 
	BYTE	W06
	BYTE		        En4 
	BYTE	W06
	BYTE		        An4 
	BYTE	W06
	BYTE		        Cn4 
	BYTE	W06
	BYTE		        En4 
	BYTE	W06
	BYTE		        An4 
	BYTE	W06
	BYTE		        Cn5 
	BYTE	W06
	BYTE		        En4 
	BYTE	W06
	BYTE		        An4 
	BYTE	W06
	BYTE		        Cn5 
	BYTE	W06
	BYTE		        En5 
	BYTE	W06
	BYTE		        An4 
	BYTE	W06
	BYTE		        Cn5 
	BYTE	W06
	BYTE		        En5 
	BYTE	W06
	BYTE		        An5 
	BYTE	W06
// 019   ----------------------------------------
	BYTE		N05     Bn3 
	BYTE	W06
	BYTE		N06     Dn4 
	BYTE	W06
	BYTE		        Gn4 
	BYTE	W06
	BYTE		        Bn4 
	BYTE	W06
	BYTE		        Dn4 
	BYTE	W06
	BYTE		        Gn4 
	BYTE	W06
	BYTE		        Bn4 
	BYTE	W06
	BYTE		        Dn5 
	BYTE	W06
	BYTE		        Gn4 
	BYTE	W06
	BYTE		        Bn4 
	BYTE	W06
	BYTE		        Dn5 
	BYTE	W06
	BYTE		        Gn5 
	BYTE	W06
	BYTE		        Bn4 
	BYTE	W06
	BYTE		        Dn5 
	BYTE	W06
	BYTE		        Gn5 
	BYTE	W06
	BYTE		        Bn5 
	BYTE	W06
// 020   ----------------------------------------
	BYTE		N05     An3 
	BYTE	W06
	BYTE		N06     Cn4 
	BYTE	W06
	BYTE		        Fn4 
	BYTE	W06
	BYTE		        An4 
	BYTE	W06
	BYTE		        Cn4 
	BYTE	W06
	BYTE		        Fn4 
	BYTE	W06
	BYTE		        An4 
	BYTE	W06
	BYTE		        Cn5 
	BYTE	W06
	BYTE		        Fn4 
	BYTE	W06
	BYTE		        An4 
	BYTE	W06
	BYTE		        Cn5 
	BYTE	W06
	BYTE		        Fn5 
	BYTE	W06
	BYTE		        An4 
	BYTE	W06
	BYTE		        Cn5 
	BYTE	W06
	BYTE		        Fn5 
	BYTE	W06
	BYTE		        An5 
	BYTE	W06
// 021   ----------------------------------------
	BYTE		N05     Bn3 
	BYTE	W06
	BYTE		N06     Dn4 
	BYTE	W06
	BYTE		        Gn4 
	BYTE	W06
	BYTE		        Bn4 
	BYTE	W06
	BYTE		        Dn4 
	BYTE	W06
	BYTE		        Gn4 
	BYTE	W06
	BYTE		        Bn4 
	BYTE	W06
	BYTE		        Dn5 
	BYTE	W06
	BYTE		        Bn3 
	BYTE	W06
	BYTE		        Dn4 
	BYTE	W06
	BYTE		        Gn4 
	BYTE	W06
	BYTE		        Bn4 
	BYTE	W06
	BYTE		        Dn5 
	BYTE	W06
	BYTE		        Bn4 
	BYTE	W06
	BYTE		        Gn4 
	BYTE	W06
	BYTE		        Dn4 
	BYTE	W06
// 022   ----------------------------------------
	BYTE		N05     An3 
	BYTE	W06
	BYTE		N06     Cn4 
	BYTE	W06
	BYTE		        Fn4 
	BYTE	W06
	BYTE		        An4 
	BYTE	W06
	BYTE		        Cn4 
	BYTE	W06
	BYTE		        Fn4 
	BYTE	W06
	BYTE		        An4 
	BYTE	W06
	BYTE		        Cn5 
	BYTE	W06
	BYTE		        Cn4 
	BYTE	W06
	BYTE		        Fn4 
	BYTE	W06
	BYTE		        An4 
	BYTE	W06
	BYTE		        Cn5 
	BYTE	W06
	BYTE		        Fn4 
	BYTE	W06
	BYTE		        An4 
	BYTE	W06
	BYTE		        Cn5 
	BYTE	W06
	BYTE		        Fn5 
	BYTE	W06
// 023   ----------------------------------------
	BYTE		N05     Bn3 
	BYTE	W06
	BYTE		N06     Dn4 
	BYTE	W06
	BYTE		        Gn4 
	BYTE	W06
	BYTE		        Bn4 
	BYTE	W06
	BYTE		        Dn4 
	BYTE	W06
	BYTE		        Gn4 
	BYTE	W06
	BYTE		        Bn4 
	BYTE	W06
	BYTE		        Dn5 
	BYTE	W06
	BYTE		        Gn4 
	BYTE	W06
	BYTE		        Bn4 
	BYTE	W06
	BYTE		        Dn5 
	BYTE	W06
	BYTE		        Gn5 
	BYTE	W06
	BYTE		        Dn5 
	BYTE	W06
	BYTE		        Bn4 
	BYTE	W06
	BYTE		        Gn4 
	BYTE	W06
	BYTE		        Dn4 
	BYTE	W06
// 024   ----------------------------------------
	BYTE		        An3 
	BYTE	W06
	BYTE		        Bn3 
	BYTE	W06
	BYTE		        Cn4 
	BYTE	W06
	BYTE		        En4 
	BYTE	W06
	BYTE		        Bn3 
	BYTE	W06
	BYTE		        Cn4 
	BYTE	W06
	BYTE		        En4 
	BYTE	W06
	BYTE		        An4 
	BYTE	W06
	BYTE		        En4 
	BYTE	W06
	BYTE		        An4 
	BYTE	W06
	BYTE		        Bn4 
	BYTE	W06
	BYTE		        Cn5 
	BYTE	W06
	BYTE		        En5 
	BYTE	W06
	BYTE		        Cn5 
	BYTE	W06
	BYTE		        Bn4 
	BYTE	W06
	BYTE		        An4 
	BYTE	W06
// 025   ----------------------------------------
	BYTE	W96
	BYTE	GoTo
	 POIN2	BattleTalesOfPhantasia_7_B1
BattleTalesOfPhantasia_7_B2:
// 026   ----------------------------------------
	BYTE		N05     An3   v036
	BYTE	W06
	BYTE		N06     Cn4 
	BYTE	W06
	BYTE		        En4 
	BYTE	W06
	BYTE		        An4 
	BYTE	W06
	BYTE		        Cn4 
	BYTE	W06
	BYTE		        En4 
	BYTE	W06
	BYTE		        An4 
	BYTE	W06
	BYTE		        Cn5 
	BYTE	W06
	BYTE		        En4 
	BYTE	W06
	BYTE		        An4 
	BYTE	W06
	BYTE		        Cn5 
	BYTE	W06
	BYTE		        En5 
	BYTE	W06
	BYTE	FINE

//**************** Track 8 (Midi-Chn.8) ****************//

BattleTalesOfPhantasia_8:
	BYTE	KEYSH   BattleTalesOfPhantasia_key+0
// 000   ----------------------------------------
	BYTE		VOICE   127
	BYTE		VOL     88*BattleTalesOfPhantasia_mvl/mxv
	BYTE		PAN     c_v+0
	BYTE		BEND    c_v+0
	BYTE		N05     Cn1   v072
	BYTE	W12
	BYTE		N12     Cn1   v076
	BYTE	W12
	BYTE		        Cn1   v080
	BYTE	W12
	BYTE		        Cn1   v084
	BYTE	W12
	BYTE		        Cn1   v088
	BYTE	W12
	BYTE		        Cn1   v092
	BYTE	W12
	BYTE		        Cn1   v096
	BYTE	W12
	BYTE		        Cn1   v100
	BYTE	W12
// 001   ----------------------------------------
	BYTE		N06     Cn2   v080
	BYTE	W06
	BYTE		N05   
	BYTE	W06
	BYTE		N05   
	BYTE	W06
	BYTE		N05   
	BYTE	W06
	BYTE		N06     An1 
	BYTE	W06
	BYTE		N05   
	BYTE	W06
	BYTE		N05   
	BYTE	W06
	BYTE		N05   
	BYTE	W06
	BYTE		N06     Fn1 
	BYTE		N23     Cs2   v064
	BYTE	W06
	BYTE		N05     Fn1   v080
	BYTE	W06
	BYTE		N05   
	BYTE	W06
	BYTE		N05   
	BYTE	W06
	BYTE		N06     Dn1   v112
	BYTE		N23     Cs2   v064
	BYTE	W06
	BYTE		N05     Dn1   v112
	BYTE	W06
	BYTE		N05   
	BYTE	W06
	BYTE		N05   
	BYTE	W06
BattleTalesOfPhantasia_8_B1:
// 002   ----------------------------------------
BattleTalesOfPhantasia_8_002:
	BYTE		N05     Cn1   v100
	BYTE		N23     Cs2   v064
	BYTE	W12
	BYTE		N05     Cn1   v100
	BYTE	W12
	BYTE		N11     Dn1   v112
	BYTE		N11     As1   v036
	BYTE	W12
	BYTE		N06     As1   v032
	BYTE	W06
	BYTE		N05     Cn1   v100
	BYTE	W06
	BYTE		N05   
	BYTE		N11     As1   v036
	BYTE	W12
	BYTE		N05     Cn1   v100
	BYTE		N11     As1   v032
	BYTE	W12
	BYTE		        Dn1   v112
	BYTE		N11     As1   v036
	BYTE	W12
	BYTE		N05     Cn1   v100
	BYTE		N11     As1   v032
	BYTE	W06
	BYTE		N05     Cn1   v100
	BYTE	W06
	BYTE	PEND
// 003   ----------------------------------------
BattleTalesOfPhantasia_8_003:
	BYTE		N05     Cn1   v100
	BYTE		N11     As1   v036
	BYTE	W12
	BYTE		N05     Cn1   v100
	BYTE		N11     As1   v032
	BYTE	W12
	BYTE		        Dn1   v112
	BYTE		N11     As1   v036
	BYTE	W12
	BYTE		N06     As1   v032
	BYTE	W06
	BYTE		N05     Cn1   v100
	BYTE	W06
	BYTE		N05   
	BYTE		N11     As1   v036
	BYTE	W12
	BYTE		N05     Cn1   v100
	BYTE		N11     As1   v032
	BYTE	W12
	BYTE		        Dn1   v112
	BYTE		N11     As1   v036
	BYTE	W12
	BYTE		N05     Cn1   v100
	BYTE		N11     As1   v032
	BYTE	W06
	BYTE		N05     Cn1   v100
	BYTE	W06
	BYTE	PEND
// 004   ----------------------------------------
	BYTE	PATT
	 POIN2	BattleTalesOfPhantasia_8_002
// 005   ----------------------------------------
	BYTE		N05     Cn1   v100
	BYTE		N11     As1   v036
	BYTE	W12
	BYTE		N05     Cn1   v100
	BYTE		N11     As1   v032
	BYTE	W12
	BYTE		        Dn1   v112
	BYTE		N11     As1   v036
	BYTE	W12
	BYTE		N06     As1   v032
	BYTE	W06
	BYTE		N05     Cn1   v100
	BYTE	W06
	BYTE		N05   
	BYTE		N11     As1   v036
	BYTE	W12
	BYTE		N05     Cn1   v100
	BYTE		N11     As1   v032
	BYTE	W12
	BYTE		N05     Dn1   v112
	BYTE	W06
	BYTE		N05   
	BYTE	W06
	BYTE		N05   
	BYTE	W06
	BYTE		N05   
	BYTE	W06
// 006   ----------------------------------------
	BYTE	PATT
	 POIN2	BattleTalesOfPhantasia_8_002
// 007   ----------------------------------------
	BYTE	PATT
	 POIN2	BattleTalesOfPhantasia_8_003
// 008   ----------------------------------------
	BYTE	PATT
	 POIN2	BattleTalesOfPhantasia_8_002
// 009   ----------------------------------------
	BYTE		N05     Cn1   v100
	BYTE		N11     As1   v036
	BYTE	W12
	BYTE		N05     Cn1   v100
	BYTE		N11     As1   v032
	BYTE	W12
	BYTE		        Dn1   v112
	BYTE		N11     As1   v036
	BYTE	W12
	BYTE		N06     As1   v032
	BYTE	W06
	BYTE		N05     Cn1   v100
	BYTE	W06
	BYTE		N06     Cn2   v080
	BYTE	W06
	BYTE		N05   
	BYTE	W06
	BYTE		N05   
	BYTE	W06
	BYTE		N05   
	BYTE	W06
	BYTE		N06     An1 
	BYTE	W06
	BYTE		N05   
	BYTE	W06
	BYTE		N06     Fn1 
	BYTE	W06
	BYTE		N05   
	BYTE	W06
// 010   ----------------------------------------
	BYTE		N23     Cs2   v064
	BYTE	W01
	BYTE		N05     Cn1   v100
	BYTE	W11
	BYTE		N05   
	BYTE	W12
	BYTE		N11     Dn1   v112
	BYTE		N11     As1   v036
	BYTE	W12
	BYTE		N12     As1   v032
	BYTE	W12
	BYTE		N05     Cn1   v100
	BYTE		N11     As1   v036
	BYTE	W06
	BYTE		N05     Dn1   v112
	BYTE	W06
	BYTE		N06     As1   v032
	BYTE	W06
	BYTE		N05     Cn1   v100
	BYTE	W06
	BYTE		N11     Dn1   v112
	BYTE		N11     As1   v036
	BYTE	W12
	BYTE		        Dn1   v112
	BYTE		N11     As1   v032
	BYTE	W12
// 011   ----------------------------------------
BattleTalesOfPhantasia_8_011:
	BYTE		N05     Cn1   v100
	BYTE		N11     As1   v036
	BYTE	W12
	BYTE		N05     Cn1   v100
	BYTE		N11     As1   v032
	BYTE	W12
	BYTE		        Dn1   v112
	BYTE		N11     As1   v036
	BYTE	W12
	BYTE		N12     As1   v032
	BYTE	W12
	BYTE		N05     Cn1   v100
	BYTE		N11     As1   v036
	BYTE	W06
	BYTE		N05     Dn1   v112
	BYTE	W06
	BYTE		N12     As1   v032
	BYTE	W12
	BYTE		N11     Dn1   v112
	BYTE		N11     As1   v036
	BYTE	W12
	BYTE		N12     As1   v032
	BYTE	W12
	BYTE	PEND
// 012   ----------------------------------------
	BYTE		N05     Cn1   v100
	BYTE		N23     Cs2   v064
	BYTE	W12
	BYTE		N05     Cn1   v100
	BYTE	W12
	BYTE		N11     Dn1   v112
	BYTE		N11     As1   v036
	BYTE	W12
	BYTE		N12     As1   v032
	BYTE	W12
	BYTE		N05     Cn1   v100
	BYTE		N11     As1   v036
	BYTE	W06
	BYTE		N05     Dn1   v112
	BYTE	W06
	BYTE		N06     As1   v032
	BYTE	W06
	BYTE		N05     Cn1   v100
	BYTE	W06
	BYTE		N11     Dn1   v112
	BYTE		N11     As1   v036
	BYTE	W12
	BYTE		        Dn1   v112
	BYTE		N11     As1   v032
	BYTE	W12
// 013   ----------------------------------------
	BYTE		N05     Cn1   v100
	BYTE		N11     As1   v036
	BYTE	W12
	BYTE		N05     Cn1   v100
	BYTE		N11     As1   v032
	BYTE	W12
	BYTE		        Dn1   v112
	BYTE		N11     As1   v036
	BYTE	W12
	BYTE		N06     As1   v032
	BYTE	W06
	BYTE		        Dn1   v112
	BYTE	W06
	BYTE		        As1   v036
	BYTE	W06
	BYTE		N05     Dn1   v112
	BYTE	W06
	BYTE		N11     Cn1   v100
	BYTE		N11     As1   v032
	BYTE	W12
	BYTE		N05     Cn2   v080
	BYTE	W06
	BYTE		N05   
	BYTE	W06
	BYTE		N06     An1 
	BYTE	W06
	BYTE		        Fn1 
	BYTE	W06
// 014   ----------------------------------------
	BYTE		N23     Cs2   v064
	BYTE	W01
	BYTE		N05     Cn1   v100
	BYTE	W11
	BYTE		N05   
	BYTE	W12
	BYTE		N11     Dn1   v112
	BYTE		N11     As1   v036
	BYTE	W12
	BYTE		N12     As1   v032
	BYTE	W12
	BYTE		N05     Cn1   v100
	BYTE		N11     As1   v036
	BYTE	W06
	BYTE		N05     Dn1   v112
	BYTE	W06
	BYTE		N12     As1   v032
	BYTE	W12
	BYTE		N11     Dn1   v112
	BYTE		N11     As1   v036
	BYTE	W12
	BYTE		        Dn1   v112
	BYTE		N11     As1   v032
	BYTE	W12
// 015   ----------------------------------------
	BYTE	PATT
	 POIN2	BattleTalesOfPhantasia_8_011
// 016   ----------------------------------------
	BYTE		N05     Cn1   v100
	BYTE		N23     Cs2   v064
	BYTE	W24
	BYTE		N11     Dn1   v112
	BYTE		N11     As1   v036
	BYTE	W12
	BYTE		N12     As1   v032
	BYTE	W12
	BYTE		N05     Cn1   v100
	BYTE		N11     As1   v036
	BYTE	W12
	BYTE		N12     As1   v032
	BYTE	W12
	BYTE		N11     Dn1   v112
	BYTE		N11     As1   v036
	BYTE	W12
	BYTE		N12     As1   v032
	BYTE	W12
// 017   ----------------------------------------
	BYTE		N05     Cn1   v100
	BYTE		N23     Cs2   v064
	BYTE	W24
	BYTE		N11     Dn1   v112
	BYTE		N11     As1   v036
	BYTE	W12
	BYTE		N12     As1   v032
	BYTE	W12
	BYTE		N05     Cn1   v100
	BYTE		N11     As1   v036
	BYTE	W12
	BYTE		N06     As1   v032
	BYTE	W06
	BYTE		N05     Cn1   v100
	BYTE	W06
	BYTE		N06     Dn1   v112
	BYTE	W06
	BYTE		N05   
	BYTE	W06
	BYTE		N05   
	BYTE	W06
	BYTE		N05   
	BYTE	W06
// 018   ----------------------------------------
BattleTalesOfPhantasia_8_018:
	BYTE		N05     Cn1   v100
	BYTE		N23     Cs2   v064
	BYTE	W12
	BYTE		N05     Cn1   v100
	BYTE	W12
	BYTE		N11     Dn1   v112
	BYTE		N11     As1   v036
	BYTE	W12
	BYTE		N12     As1   v032
	BYTE	W12
	BYTE		N05     Cn1   v100
	BYTE		N11     As1   v036
	BYTE	W12
	BYTE		N05     Cn1   v100
	BYTE		N11     As1   v032
	BYTE	W12
	BYTE		        Dn1   v112
	BYTE		N11     As1   v036
	BYTE	W12
	BYTE		N12     As1   v032
	BYTE	W12
	BYTE	PEND
// 019   ----------------------------------------
BattleTalesOfPhantasia_8_019:
	BYTE		N05     Cn1   v100
	BYTE		N11     As1   v036
	BYTE	W12
	BYTE		N05     Cn1   v100
	BYTE		N11     As1   v032
	BYTE	W12
	BYTE		        Dn1   v112
	BYTE		N11     As1   v036
	BYTE	W12
	BYTE		N12     As1   v032
	BYTE	W12
	BYTE		N05     Cn1   v100
	BYTE		N11     As1   v036
	BYTE	W12
	BYTE		N05     Cn1   v100
	BYTE		N11     As1   v032
	BYTE	W12
	BYTE		        Dn1   v112
	BYTE		N11     As1   v036
	BYTE	W12
	BYTE		N12     As1   v032
	BYTE	W12
	BYTE	PEND
// 020   ----------------------------------------
	BYTE	PATT
	 POIN2	BattleTalesOfPhantasia_8_018
// 021   ----------------------------------------
	BYTE		N05     Cn1   v100
	BYTE		N11     As1   v036
	BYTE	W12
	BYTE		N05     Cn1   v100
	BYTE		N11     As1   v032
	BYTE	W12
	BYTE		        Dn1   v112
	BYTE		N11     As1   v036
	BYTE	W12
	BYTE		N12     As1   v032
	BYTE	W12
	BYTE		N05     Cn1   v100
	BYTE		N11     As1   v036
	BYTE	W12
	BYTE		N05     Cn1   v100
	BYTE		N11     As1   v032
	BYTE	W12
	BYTE		N05     Dn1   v112
	BYTE	W06
	BYTE		N05   
	BYTE	W06
	BYTE		N05   
	BYTE	W06
	BYTE		N05   
	BYTE	W06
// 022   ----------------------------------------
	BYTE	PATT
	 POIN2	BattleTalesOfPhantasia_8_018
// 023   ----------------------------------------
	BYTE	PATT
	 POIN2	BattleTalesOfPhantasia_8_019
// 024   ----------------------------------------
	BYTE	PATT
	 POIN2	BattleTalesOfPhantasia_8_018
// 025   ----------------------------------------
	BYTE		N11     Dn1   v112
	BYTE		N23     Cs2   v064
	BYTE	W12
	BYTE		N05     Cn1   v100
	BYTE	W12
	BYTE		N11     Dn1   v112
	BYTE		N11     As1   v036
	BYTE	W12
	BYTE		N12     As1   v032
	BYTE	W12
	BYTE		        Dn1   v112
	BYTE		N23     Cs2   v064
	BYTE	W12
	BYTE		N05     Cn1   v100
	BYTE	W12
	BYTE		N11     Dn1   v112
	BYTE		N23     Cs2   v064
	BYTE	W12
	BYTE		N05     Dn1   v112
	BYTE	W06
	BYTE		N05   
	BYTE	W06
	BYTE	GoTo
	 POIN2	BattleTalesOfPhantasia_8_B1
BattleTalesOfPhantasia_8_B2:
// 026   ----------------------------------------
	BYTE		N05     Cn1   v100
	BYTE		N23     Cs2   v064
	BYTE	W12
	BYTE		N05     Cn1   v100
	BYTE	W12
	BYTE		N11     Dn1   v112
	BYTE		N11     As1   v036
	BYTE	W12
	BYTE		N12     As1   v032
	BYTE	W12
	BYTE		N05     Cn1   v100
	BYTE		N11     As1   v036
	BYTE	W12
	BYTE		N05     Cn1   v100
	BYTE		N11     As1   v032
	BYTE	W12
	BYTE	FINE

//**************** Track 9 (Midi-Chn.9) ****************//

BattleTalesOfPhantasia_9:
	BYTE	KEYSH   BattleTalesOfPhantasia_key+0
// 000   ----------------------------------------
	BYTE		VOICE   18
	BYTE		VOL     91*BattleTalesOfPhantasia_mvl/mxv
	BYTE		LFODL   0
	BYTE		MODT    0
	BYTE		LFOS    0
	BYTE		MOD     0
	BYTE		PAN     c_v+0
	BYTE		BEND    c_v+0
	BYTE		N23     Fn2   v088
	BYTE		N23     An2 
	BYTE	W24
	BYTE		        En2 
	BYTE		N23     Gs2 
	BYTE	W24
	BYTE		        An2 
	BYTE		N23     Cn3 
	BYTE	W24
	BYTE		        Gs2 
	BYTE		N23     Bn2 
	BYTE	W24
// 001   ----------------------------------------
	BYTE		        Cn3 
	BYTE		N23     En3 
	BYTE	W24
	BYTE		        Bn2 
	BYTE		N23     Ds3 
	BYTE	W24
	BYTE		        En3 
	BYTE		N23     Gn3 
	BYTE	W24
	BYTE		        Ds3 
	BYTE		N23     Fs3 
	BYTE	W24
BattleTalesOfPhantasia_9_B1:
// 002   ----------------------------------------
	BYTE	W96
// 003   ----------------------------------------
	BYTE	W96
// 004   ----------------------------------------
	BYTE	W96
// 005   ----------------------------------------
	BYTE	W96
// 006   ----------------------------------------
	BYTE	W96
// 007   ----------------------------------------
	BYTE	W96
// 008   ----------------------------------------
	BYTE	W96
// 009   ----------------------------------------
	BYTE	W96
// 010   ----------------------------------------
	BYTE	W96
// 011   ----------------------------------------
	BYTE	W96
// 012   ----------------------------------------
	BYTE	W96
// 013   ----------------------------------------
	BYTE	W96
// 014   ----------------------------------------
	BYTE	W96
// 015   ----------------------------------------
	BYTE	W96
// 016   ----------------------------------------
	BYTE	W96
// 017   ----------------------------------------
	BYTE	W96
// 018   ----------------------------------------
	BYTE	W96
// 019   ----------------------------------------
	BYTE	W96
// 020   ----------------------------------------
	BYTE	W96
// 021   ----------------------------------------
	BYTE	W96
// 022   ----------------------------------------
	BYTE	W96
// 023   ----------------------------------------
	BYTE	W96
// 024   ----------------------------------------
	BYTE	W96
// 025   ----------------------------------------
	BYTE	W96
	BYTE	GoTo
	 POIN2	BattleTalesOfPhantasia_9_B1
BattleTalesOfPhantasia_9_B2:
// 026   ----------------------------------------
	BYTE	W72
	BYTE	FINE

//******************************************************//
	ALIGN 4

BattleTalesOfPhantasia:
	BYTE	9	// NumTrks
	BYTE	0	// NumBlks
	BYTE	BattleTalesOfPhantasia_pri	// Priority
	BYTE	BattleTalesOfPhantasia_rev	// Reverb.

	POIN2	BattleTalesOfPhantasia_grp

	POIN2	BattleTalesOfPhantasia_1
	POIN2	BattleTalesOfPhantasia_2
	POIN2	BattleTalesOfPhantasia_3
	POIN2	BattleTalesOfPhantasia_4
	POIN2	BattleTalesOfPhantasia_5
	POIN2	BattleTalesOfPhantasia_6
	POIN2	BattleTalesOfPhantasia_7
	POIN2	BattleTalesOfPhantasia_8
	POIN2	BattleTalesOfPhantasia_9

	
