//Event file generated from Sappy .s format.
	#include "MPlayDef.event"

	#define	BattleFFL2_grp  voicegroup000
	#define	BattleFFL2_pri  0
	#define	BattleFFL2_rev  0
	#define	BattleFFL2_mvl  50
	#define	BattleFFL2_key  0
	#define	BattleFFL2_tbs  1
	#define	BattleFFL2_exg  0
	#define	BattleFFL2_cmp  1

	// .rodata
	//	BattleFFL2
	ALIGN 4

//**************** Track 1 (Midi-Chn.1) ****************//

BattleFFL2_1:
	BYTE	KEYSH   BattleFFL2_key+0
BattleFFL2_1_B1:
// 000   ----------------------------------------
	BYTE	TEMPO   175*BattleFFL2_tbs/2
	BYTE		VOICE   56
	BYTE		VOL     73*BattleFFL2_mvl/mxv
	BYTE		PAN     c_v+11
	BYTE		N11     Cs3   v127
	BYTE	W12
	BYTE		        Fs2   v120
	BYTE	W12
	BYTE		N09     An2   v100
	BYTE	W12
	BYTE		        En3 
	BYTE	W12
	BYTE		N11     Ds3   v127
	BYTE	W12
	BYTE		        Bn2   v100
	BYTE	W24
	BYTE		N08   
	BYTE	W12
// 001   ----------------------------------------
	BYTE		N11     Cs3   v127
	BYTE	W12
	BYTE		        Fs2   v116
	BYTE	W12
	BYTE		N10     En3   v100
	BYTE	W12
	BYTE		        Ds3 
	BYTE	W24
	BYTE		N05     Cs4   v127
	BYTE	W06
	BYTE		        Dn4   v124
	BYTE	W06
	BYTE		        Cs4   v120
	BYTE	W06
	BYTE		        Bn3   v116
	BYTE	W06
	BYTE		        An3   v112
	BYTE	W06
	BYTE		        Gs3   v100
	BYTE	W06
// 002   ----------------------------------------
	BYTE		N11     Cs3   v127
	BYTE	W12
	BYTE		        Fs2   v116
	BYTE	W12
	BYTE		N08     An2   v100
	BYTE	W12
	BYTE		        En3 
	BYTE	W12
	BYTE		N11     Ds3   v127
	BYTE	W12
	BYTE		        Bn2   v100
	BYTE	W24
	BYTE		N07   
	BYTE	W12
// 003   ----------------------------------------
	BYTE		N11     Cs3   v124
	BYTE	W12
	BYTE		        Fs2   v116
	BYTE	W12
	BYTE		        En3   v100
	BYTE	W12
	BYTE		N10     Ds3 
	BYTE	W24
	BYTE		N05     Fs2   v127
	BYTE	W06
	BYTE		        Gs2   v124
	BYTE	W06
	BYTE		        An2   v120
	BYTE	W06
	BYTE		        Bn2   v116
	BYTE	W06
	BYTE		        Cs3   v108
	BYTE	W06
	BYTE		        En3   v100
	BYTE	W06
// 004   ----------------------------------------
	BYTE		N36     Fs3   v127
	BYTE	W36
	BYTE		N05     En3   v100
	BYTE	W06
	BYTE		        Fs3 
	BYTE	W06
	BYTE		N36     Gs3   v127
	BYTE	W36
	BYTE		N05     Fs3   v100
	BYTE	W06
	BYTE		        Gs3 
	BYTE	W06
// 005   ----------------------------------------
	BYTE		N36     An3   v127
	BYTE	W36
	BYTE		N05     Gs3   v100
	BYTE	W06
	BYTE		        Fs3 
	BYTE	W06
	BYTE		N23     Gs3   v127
	BYTE	W24
	BYTE		N20     En3   v108
	BYTE	W24
// 006   ----------------------------------------
BattleFFL2_1_006:
	BYTE		N11     An3   v127
	BYTE	W12
	BYTE		        Gs3   v116
	BYTE	W12
	BYTE		N08     Fs3   v100
	BYTE	W12
	BYTE		        Gs3 
	BYTE	W12
	BYTE		N05     An3   v127
	BYTE	W24
	BYTE		N24     Cs4   v100
	BYTE	W24
	BYTE	PEND
// 007   ----------------------------------------
	BYTE		N11     Bn3   v127
	BYTE	W12
	BYTE		        Cs4   v116
	BYTE	W12
	BYTE		N08     Bn3   v100
	BYTE	W12
	BYTE		        An3 
	BYTE	W12
	BYTE		N05     Gs3   v127
	BYTE	W24
	BYTE		N23     En3   v100
	BYTE	W24
// 008   ----------------------------------------
	BYTE		N11     An3   v127
	BYTE	W12
	BYTE		        Gs3   v116
	BYTE	W12
	BYTE		N72     Fs3   v100
	BYTE	W72
// 009   ----------------------------------------
	BYTE	W06
	BYTE		N06     Bn3   v127
	BYTE	W06
	BYTE		        An3   v124
	BYTE	W06
	BYTE		        Gs3   v116
	BYTE	W06
	BYTE		        Fs3   v108
	BYTE	W06
	BYTE		        Gs3   v104
	BYTE	W06
	BYTE		        Fs3   v096
	BYTE	W06
	BYTE		        Cs3   v088
	BYTE	W06
	BYTE		        Dn3   v092
	BYTE	W06
	BYTE		        En3   v100
	BYTE	W06
	BYTE		        Fs3   v104
	BYTE	W06
	BYTE		        Gs3   v112
	BYTE	W06
	BYTE		        An3   v116
	BYTE	W06
	BYTE		        Bn3   v124
	BYTE	W06
	BYTE		        Cs4 
	BYTE	W06
	BYTE		        Dn4   v127
	BYTE	W06
// 010   ----------------------------------------
	BYTE	PATT
	 POIN2	BattleFFL2_1_006
// 011   ----------------------------------------
	BYTE		N19     Cn4   v127
	BYTE	W24
	BYTE		N11   
	BYTE	W12
	BYTE		        Cs4   v116
	BYTE	W12
	BYTE		N05     Ds4   v127
	BYTE	W24
	BYTE		N23     Fs4 
	BYTE	W24
// 012   ----------------------------------------
	BYTE		N11     En4 
	BYTE	W12
	BYTE		        Ds4   v120
	BYTE	W12
	BYTE		N72     En4   v100
	BYTE	W72
// 013   ----------------------------------------
	BYTE	W06
	BYTE		N06     Fs3   v116
	BYTE	W06
	BYTE		        En3   v112
	BYTE	W06
	BYTE		        Dn3   v100
	BYTE	W06
	BYTE		        En3 
	BYTE	W06
	BYTE		        Fs3   v108
	BYTE	W06
	BYTE		        En3   v100
	BYTE	W06
	BYTE		        Dn3   v084
	BYTE	W06
	BYTE		        Cs3 
	BYTE	W06
	BYTE		        Dn3   v092
	BYTE	W06
	BYTE		        En3   v096
	BYTE	W06
	BYTE		        Fs3   v100
	BYTE	W06
	BYTE		        Gs3   v108
	BYTE	W06
	BYTE		        An3   v116
	BYTE	W06
	BYTE		        Bn3   v124
	BYTE	W06
	BYTE		        Cs4   v127
	BYTE	W06
// 014   ----------------------------------------
	BYTE	W96
// 015   ----------------------------------------
	BYTE	W96
// 016   ----------------------------------------
	BYTE	W96
// 017   ----------------------------------------
	BYTE	W96
// 018   ----------------------------------------
	BYTE	W96
// 019   ----------------------------------------
	BYTE	W96
// 020   ----------------------------------------
	BYTE	W96
// 021   ----------------------------------------
	BYTE	W96
// 022   ----------------------------------------
	BYTE		N05     Fs4 
	BYTE	W06
	BYTE		        Gn4 
	BYTE	W06
	BYTE		        Fs4   v124
	BYTE	W06
	BYTE		        En4   v120
	BYTE	W06
	BYTE		        Dn4   v116
	BYTE	W06
	BYTE		        Cs4   v112
	BYTE	W06
	BYTE		        Bn3   v108
	BYTE	W06
	BYTE		        An3   v100
	BYTE	W06
	BYTE		        Gs3 
	BYTE	W06
	BYTE		        An3   v108
	BYTE	W06
	BYTE		        Bn3   v112
	BYTE	W06
	BYTE		        An3   v116
	BYTE	W06
	BYTE		        Bn3 
	BYTE	W06
	BYTE		        Cs4   v120
	BYTE	W06
	BYTE		        Dn4   v124
	BYTE	W06
	BYTE		        Fs4   v127
	BYTE	W06
// 023   ----------------------------------------
	BYTE		        En4 
	BYTE	W06
	BYTE		        Fs4   v120
	BYTE	W06
	BYTE		        En4   v104
	BYTE	W06
	BYTE		        Dn4 
	BYTE	W06
	BYTE		        Cs4   v127
	BYTE	W06
	BYTE		        Dn4   v124
	BYTE	W06
	BYTE		        Cs4   v100
	BYTE	W06
	BYTE		        Bn3 
	BYTE	W06
	BYTE		        Gs3   v124
	BYTE	W06
	BYTE		        An3   v120
	BYTE	W06
	BYTE		        Bn3   v100
	BYTE	W06
	BYTE		        Cs4 
	BYTE	W06
	BYTE		        An3   v127
	BYTE	W06
	BYTE		        Bn3   v120
	BYTE	W06
	BYTE		        Cs4   v100
	BYTE	W06
	BYTE		        An3 
	BYTE	W06
// 024   ----------------------------------------
	BYTE	W96
// 025   ----------------------------------------
	BYTE	W96
// 026   ----------------------------------------
	BYTE		        Fs4   v127
	BYTE	W06
	BYTE		        Gn4 
	BYTE	W06
	BYTE		        Fs4   v124
	BYTE	W06
	BYTE		        En4   v116
	BYTE	W06
	BYTE		        Dn4   v112
	BYTE	W06
	BYTE		        Cs4 
	BYTE	W06
	BYTE		        Bn3   v104
	BYTE	W06
	BYTE		        An3   v096
	BYTE	W06
	BYTE		        Gs3   v100
	BYTE	W06
	BYTE		        An3   v104
	BYTE	W06
	BYTE		        Bn3   v108
	BYTE	W06
	BYTE		        An3   v112
	BYTE	W06
	BYTE		        Bn3   v116
	BYTE	W06
	BYTE		        Cs4   v120
	BYTE	W06
	BYTE		        Dn4   v124
	BYTE	W06
	BYTE		        Fs4   v127
	BYTE	W06
// 027   ----------------------------------------
	BYTE		        En4 
	BYTE	W06
	BYTE		        Fs4   v120
	BYTE	W06
	BYTE		        En4   v100
	BYTE	W06
	BYTE		        Dn4 
	BYTE	W06
	BYTE		        Cs4   v127
	BYTE	W06
	BYTE		        Dn4   v124
	BYTE	W06
	BYTE		        Cs4   v100
	BYTE	W06
	BYTE		        Bn3 
	BYTE	W06
	BYTE		        Gs3   v127
	BYTE	W06
	BYTE		        An3   v124
	BYTE	W06
	BYTE		        Bn3   v100
	BYTE	W06
	BYTE		        Cs4 
	BYTE	W06
	BYTE		        An3   v127
	BYTE	W06
	BYTE		        Bn3   v124
	BYTE	W06
	BYTE		        Cs4   v100
	BYTE	W06
	BYTE		        An3 
	BYTE	W06
// 028   ----------------------------------------
	BYTE		        Bn3   v127
	BYTE	W06
	BYTE		        Cs4   v120
	BYTE	W06
	BYTE		        Dn4   v100
	BYTE	W06
	BYTE		        Bn3 
	BYTE	W06
	BYTE		        Cs4   v127
	BYTE	W06
	BYTE		        Dn4   v120
	BYTE	W06
	BYTE		        En4   v100
	BYTE	W06
	BYTE		        Cs4 
	BYTE	W06
	BYTE		        Dn4   v127
	BYTE	W06
	BYTE		        En4   v124
	BYTE	W06
	BYTE		        Fs4   v100
	BYTE	W06
	BYTE		        Dn4 
	BYTE	W06
	BYTE		        En4 
	BYTE	W06
	BYTE		        Fs4 
	BYTE	W06
	BYTE		N02     Gs4   v112
	BYTE	W03
	BYTE		        An4   v120
	BYTE	W03
	BYTE		N05     Bn4   v127
	BYTE	W03
	BYTE		N02     Cs5 
	BYTE	W03
	BYTE	GoTo
	 POIN2	BattleFFL2_1_B1
BattleFFL2_1_B2:
// 029   ----------------------------------------
	BYTE		PAN     c_v+11
	BYTE		N11     Cs3   v127
	BYTE	W12
	BYTE		        Fs2   v120
	BYTE	W12
	BYTE		N09     An2   v100
	BYTE	W12
	BYTE		        En3 
	BYTE	W12
	BYTE		N11     Ds3   v127
	BYTE	W12
	BYTE		        Bn2   v100
	BYTE	W24
	BYTE		N08   
	BYTE	W12
// 030   ----------------------------------------
	BYTE	FINE

//**************** Track 2 (Midi-Chn.2) ****************//

BattleFFL2_2:
	BYTE	KEYSH   BattleFFL2_key+0
BattleFFL2_2_B1:
// 000   ----------------------------------------
	BYTE		VOICE   57
	BYTE		VOL     73*BattleFFL2_mvl/mxv
	BYTE		PAN     c_v-24
	BYTE		N11     Cs2   v127
	BYTE	W12
	BYTE		        Fs1   v120
	BYTE	W12
	BYTE		N09     An1   v100
	BYTE	W12
	BYTE		        En2 
	BYTE	W12
	BYTE		N11     Ds2   v127
	BYTE	W12
	BYTE		        Bn1   v100
	BYTE	W24
	BYTE		N08   
	BYTE	W12
// 001   ----------------------------------------
	BYTE		N11     Cs2   v127
	BYTE	W12
	BYTE		        Fs1   v116
	BYTE	W12
	BYTE		N10     En2   v100
	BYTE	W12
	BYTE		        Ds2 
	BYTE	W24
	BYTE		N05     Cs3   v127
	BYTE	W06
	BYTE		        Dn3   v124
	BYTE	W06
	BYTE		        Cs3   v120
	BYTE	W06
	BYTE		        Bn2   v116
	BYTE	W06
	BYTE		        An2   v112
	BYTE	W06
	BYTE		        Gs2   v100
	BYTE	W06
// 002   ----------------------------------------
	BYTE		N11     Cs2   v127
	BYTE	W12
	BYTE		        Fs1   v116
	BYTE	W12
	BYTE		N08     An1   v100
	BYTE	W12
	BYTE		        En2 
	BYTE	W12
	BYTE		N11     Ds2   v127
	BYTE	W12
	BYTE		        Bn1   v100
	BYTE	W24
	BYTE		N07   
	BYTE	W12
// 003   ----------------------------------------
	BYTE		N11     Cs2   v124
	BYTE	W12
	BYTE		        Fs1   v116
	BYTE	W12
	BYTE		N10     En2   v100
	BYTE	W12
	BYTE		        Ds2 
	BYTE	W24
	BYTE		N05     Fs1   v127
	BYTE	W06
	BYTE		        Gs1   v124
	BYTE	W06
	BYTE		        An1   v120
	BYTE	W06
	BYTE		        Bn1   v116
	BYTE	W06
	BYTE		        Cs2   v108
	BYTE	W06
	BYTE		        En2   v100
	BYTE	W06
// 004   ----------------------------------------
	BYTE		N36     Fs2   v127
	BYTE	W36
	BYTE		N05     En2   v100
	BYTE	W06
	BYTE		        Fs2 
	BYTE	W06
	BYTE		N36     Gs2   v127
	BYTE	W36
	BYTE		N05     Fs2   v100
	BYTE	W06
	BYTE		        Gs2 
	BYTE	W06
// 005   ----------------------------------------
	BYTE		N36     An2   v127
	BYTE	W36
	BYTE		N05     Gs2   v100
	BYTE	W06
	BYTE		        Fs2 
	BYTE	W06
	BYTE		N23     Gs2   v127
	BYTE	W24
	BYTE		N20     En2   v108
	BYTE	W24
// 006   ----------------------------------------
BattleFFL2_2_006:
	BYTE		N11     An2   v127
	BYTE	W12
	BYTE		        Gs2   v116
	BYTE	W12
	BYTE		N08     Fs2   v100
	BYTE	W12
	BYTE		        Gs2 
	BYTE	W12
	BYTE		N05     An2   v127
	BYTE	W24
	BYTE		N24     Cs3   v100
	BYTE	W24
	BYTE	PEND
// 007   ----------------------------------------
	BYTE		N11     Bn2   v127
	BYTE	W12
	BYTE		        Cs3   v116
	BYTE	W12
	BYTE		N08     Bn2   v100
	BYTE	W12
	BYTE		        An2 
	BYTE	W12
	BYTE		N05     Gs2   v127
	BYTE	W24
	BYTE		N23     En2   v100
	BYTE	W24
// 008   ----------------------------------------
	BYTE		N11     An2   v127
	BYTE	W12
	BYTE		        Gs2   v116
	BYTE	W12
	BYTE		N72     Fs2   v100
	BYTE	W72
// 009   ----------------------------------------
	BYTE	W06
	BYTE		N06     Bn2   v127
	BYTE	W06
	BYTE		        An2   v124
	BYTE	W06
	BYTE		        Gs2   v116
	BYTE	W06
	BYTE		        Fs2   v108
	BYTE	W06
	BYTE		        Gs2   v104
	BYTE	W06
	BYTE		        Fs2   v096
	BYTE	W06
	BYTE		        Cs2   v088
	BYTE	W06
	BYTE		        Dn2   v092
	BYTE	W06
	BYTE		        En2   v100
	BYTE	W06
	BYTE		        Fs2   v104
	BYTE	W06
	BYTE		        Gs2   v112
	BYTE	W06
	BYTE		        An2   v116
	BYTE	W06
	BYTE		        Bn2   v124
	BYTE	W06
	BYTE		        Cs3 
	BYTE	W06
	BYTE		        Dn3   v127
	BYTE	W06
// 010   ----------------------------------------
	BYTE	PATT
	 POIN2	BattleFFL2_2_006
// 011   ----------------------------------------
	BYTE		N19     Cn3   v127
	BYTE	W24
	BYTE		N11   
	BYTE	W12
	BYTE		        Cs3   v116
	BYTE	W12
	BYTE		N05     Ds3   v127
	BYTE	W24
	BYTE		N23     Fs3 
	BYTE	W24
// 012   ----------------------------------------
	BYTE		N11     En3 
	BYTE	W12
	BYTE		        Ds3   v120
	BYTE	W12
	BYTE		N72     En3   v100
	BYTE	W72
// 013   ----------------------------------------
	BYTE	W06
	BYTE		N06     Fs2   v116
	BYTE	W06
	BYTE		        En2   v112
	BYTE	W06
	BYTE		        Dn2   v100
	BYTE	W06
	BYTE		        En2 
	BYTE	W06
	BYTE		        Fs2   v108
	BYTE	W06
	BYTE		        En2   v100
	BYTE	W06
	BYTE		        Dn2   v084
	BYTE	W06
	BYTE		        Cs2 
	BYTE	W06
	BYTE		        Dn2   v092
	BYTE	W06
	BYTE		        En2   v096
	BYTE	W06
	BYTE		        Fs2   v100
	BYTE	W06
	BYTE		        Gs2   v108
	BYTE	W06
	BYTE		        An2   v116
	BYTE	W06
	BYTE		        Bn2   v124
	BYTE	W06
	BYTE		        Cs3   v127
	BYTE	W06
// 014   ----------------------------------------
	BYTE	W96
// 015   ----------------------------------------
	BYTE	W96
// 016   ----------------------------------------
	BYTE	W96
// 017   ----------------------------------------
	BYTE	W96
// 018   ----------------------------------------
	BYTE	W96
// 019   ----------------------------------------
	BYTE	W96
// 020   ----------------------------------------
	BYTE	W96
// 021   ----------------------------------------
	BYTE	W96
// 022   ----------------------------------------
	BYTE		N05     Dn3   v108
	BYTE	W06
	BYTE		        En3   v124
	BYTE	W06
	BYTE		        Dn3 
	BYTE	W06
	BYTE		        Cs3   v116
	BYTE	W06
	BYTE		        Bn2   v104
	BYTE	W06
	BYTE		        An2   v100
	BYTE	W06
	BYTE		        Gs2   v096
	BYTE	W06
	BYTE		        Fs2   v092
	BYTE	W06
	BYTE		        En2   v100
	BYTE	W06
	BYTE		        Fs2   v104
	BYTE	W06
	BYTE		        Gs2 
	BYTE	W06
	BYTE		        Fs2   v108
	BYTE	W06
	BYTE		        Gs2   v112
	BYTE	W06
	BYTE		        An2   v116
	BYTE	W06
	BYTE		        Bn2   v120
	BYTE	W06
	BYTE		        Dn3   v127
	BYTE	W06
// 023   ----------------------------------------
	BYTE		        Cs3   v108
	BYTE	W06
	BYTE		        Dn3   v127
	BYTE	W06
	BYTE		        Cs3   v120
	BYTE	W06
	BYTE		        Bn2   v112
	BYTE	W06
	BYTE		        An2   v108
	BYTE	W06
	BYTE		        Bn2   v127
	BYTE	W06
	BYTE		        An2   v120
	BYTE	W06
	BYTE		        Gs2   v116
	BYTE	W06
	BYTE		        En2   v100
	BYTE	W06
	BYTE		        Fs2   v108
	BYTE	W06
	BYTE		        Gs2   v120
	BYTE	W06
	BYTE		        An2   v127
	BYTE	W06
	BYTE		        Fs2   v116
	BYTE	W06
	BYTE		        Gs2   v127
	BYTE	W06
	BYTE		        An2   v120
	BYTE	W06
	BYTE		        Fs2   v112
	BYTE	W06
// 024   ----------------------------------------
	BYTE	W96
// 025   ----------------------------------------
	BYTE	W96
// 026   ----------------------------------------
	BYTE		        Dn3   v116
	BYTE	W06
	BYTE		        En3   v127
	BYTE	W06
	BYTE		        Dn3   v124
	BYTE	W06
	BYTE		        Cs3   v116
	BYTE	W06
	BYTE		        Bn2   v112
	BYTE	W06
	BYTE		        An2   v124
	BYTE	W06
	BYTE		        Gs2   v120
	BYTE	W06
	BYTE		        Fs2   v112
	BYTE	W06
	BYTE		        En2 
	BYTE	W06
	BYTE		        Fs2   v127
	BYTE	W06
	BYTE		        Gs2   v120
	BYTE	W06
	BYTE		        Fs2   v100
	BYTE	W06
	BYTE		        Gs2   v112
	BYTE	W06
	BYTE		        An2   v116
	BYTE	W06
	BYTE		        Bn2   v124
	BYTE	W06
	BYTE		        Dn3   v127
	BYTE	W06
// 027   ----------------------------------------
	BYTE		        Cs3   v116
	BYTE	W06
	BYTE		        Dn3   v127
	BYTE	W06
	BYTE		        Cs3   v120
	BYTE	W06
	BYTE		        Bn2   v112
	BYTE	W06
	BYTE		        An2   v100
	BYTE	W06
	BYTE		        Bn2   v127
	BYTE	W06
	BYTE		        An2   v116
	BYTE	W06
	BYTE		        Gs2   v100
	BYTE	W06
	BYTE		        En2 
	BYTE	W06
	BYTE		        Fs2   v108
	BYTE	W06
	BYTE		        Gs2   v116
	BYTE	W06
	BYTE		        An2   v127
	BYTE	W06
	BYTE		        Fs2   v112
	BYTE	W06
	BYTE		        Gs2   v120
	BYTE	W06
	BYTE		        An2   v124
	BYTE	W06
	BYTE		        Fs2   v100
	BYTE	W06
// 028   ----------------------------------------
	BYTE		        Bn2   v127
	BYTE	W06
	BYTE		        An2   v116
	BYTE	W06
	BYTE		        Gs2   v104
	BYTE	W06
	BYTE		        Fs2   v100
	BYTE	W06
	BYTE		        Cs3   v127
	BYTE	W06
	BYTE		        Bn2   v120
	BYTE	W06
	BYTE		        An2   v112
	BYTE	W06
	BYTE		        Gs2   v100
	BYTE	W06
	BYTE		        Dn3   v127
	BYTE	W06
	BYTE		        Cs3   v124
	BYTE	W06
	BYTE		        Bn2   v112
	BYTE	W06
	BYTE		        An2   v100
	BYTE	W06
	BYTE		        Cs3   v092
	BYTE	W06
	BYTE		        Dn3   v100
	BYTE	W06
	BYTE		N02     En3   v112
	BYTE	W03
	BYTE		        Fs3   v120
	BYTE	W03
	BYTE		N05     Gs3   v124
	BYTE	W03
	BYTE		N02     An3   v127
	BYTE	W03
	BYTE	GoTo
	 POIN2	BattleFFL2_2_B1
BattleFFL2_2_B2:
// 029   ----------------------------------------
	BYTE		PAN     c_v-24
	BYTE		N11     Cs2   v127
	BYTE	W12
	BYTE		        Fs1   v120
	BYTE	W12
	BYTE		N09     An1   v100
	BYTE	W12
	BYTE		        En2 
	BYTE	W12
	BYTE		N11     Ds2   v127
	BYTE	W12
	BYTE		        Bn1   v100
	BYTE	W24
	BYTE		N08   
	BYTE	W12
// 030   ----------------------------------------
	BYTE	FINE

//**************** Track 3 (Midi-Chn.4) ****************//

BattleFFL2_3:
	BYTE	KEYSH   BattleFFL2_key+0
BattleFFL2_3_B1:
// 000   ----------------------------------------
	BYTE		VOICE   30
	BYTE		VOL     100*BattleFFL2_mvl/mxv
	BYTE		PAN     c_v+0
	BYTE		N12     Fs1   v100
	BYTE		N12     Bn2 
	BYTE	W12
	BYTE		N05     Fs1 
	BYTE	W12
	BYTE		N05   
	BYTE	W12
	BYTE		N12   
	BYTE		N12     Bn2 
	BYTE	W12
	BYTE		N05     Bn1 
	BYTE	W12
	BYTE		N05   
	BYTE	W12
	BYTE		N12   
	BYTE		N12     Bn2 
	BYTE	W12
	BYTE		N05     Bn1 
	BYTE	W12
// 001   ----------------------------------------
	BYTE		        Fs1 
	BYTE	W12
	BYTE		N05   
	BYTE	W12
	BYTE		N11   
	BYTE		N11     Bn2 
	BYTE	W12
	BYTE		N05     Bn1 
	BYTE	W60
// 002   ----------------------------------------
	BYTE		N12     Fs1 
	BYTE		N12     Bn2 
	BYTE	W12
	BYTE		N06     Fs1 
	BYTE	W12
	BYTE		N05   
	BYTE	W12
	BYTE		N12   
	BYTE		N12     Bn2 
	BYTE	W12
	BYTE		N05     Bn1 
	BYTE	W12
	BYTE		N05   
	BYTE	W12
	BYTE		N11   
	BYTE		N11     Bn2 
	BYTE	W12
	BYTE		N05     Bn1 
	BYTE	W12
// 003   ----------------------------------------
	BYTE		        Fs1 
	BYTE	W12
	BYTE		N06   
	BYTE	W12
	BYTE		N12   
	BYTE		N12     Bn2 
	BYTE	W12
	BYTE		N05     Bn1 
	BYTE	W60
// 004   ----------------------------------------
	BYTE		        Dn2 
	BYTE	W12
	BYTE		N06   
	BYTE	W12
	BYTE		N12   
	BYTE		N12     Dn3 
	BYTE	W12
	BYTE		N06     Dn2 
	BYTE	W12
	BYTE		        Cs2 
	BYTE	W12
	BYTE		N12   
	BYTE		N12     Cs3 
	BYTE	W12
	BYTE		N06     Cs2 
	BYTE	W12
	BYTE		N06   
	BYTE	W12
// 005   ----------------------------------------
	BYTE		N11     Bn1 
	BYTE		N11     Bn2 
	BYTE	W12
	BYTE		N06     Bn1 
	BYTE	W12
	BYTE		N06   
	BYTE	W12
	BYTE		N12   
	BYTE		N12     Bn2 
	BYTE	W12
	BYTE		N06     Cs2 
	BYTE	W12
	BYTE		        Bn1 
	BYTE	W12
	BYTE		N12     An1 
	BYTE		N12     An2 
	BYTE	W12
	BYTE		N06     Gs1 
	BYTE	W12
// 006   ----------------------------------------
	BYTE		N05     Fs1 
	BYTE	W12
	BYTE		N05   
	BYTE	W12
	BYTE		N12   
	BYTE		N12     Fs2 
	BYTE	W12
	BYTE		N05     Fs1 
	BYTE	W12
	BYTE		N05   
	BYTE	W12
	BYTE		N12   
	BYTE		N12     Fs2 
	BYTE	W12
	BYTE		N05     Fs1 
	BYTE	W12
	BYTE		N06   
	BYTE	W12
// 007   ----------------------------------------
	BYTE		N12     Dn1 
	BYTE		N12     Dn2 
	BYTE	W12
	BYTE		N06     Dn1 
	BYTE	W12
	BYTE		N06   
	BYTE	W12
	BYTE		N11   
	BYTE		N11     Dn2 
	BYTE	W12
	BYTE		N06     En1 
	BYTE	W12
	BYTE		N06   
	BYTE	W12
	BYTE		N12   
	BYTE		N12     En2 
	BYTE	W12
	BYTE		N06     En1 
	BYTE	W12
// 008   ----------------------------------------
	BYTE		        Fs1 
	BYTE	W12
	BYTE		N06   
	BYTE	W12
	BYTE		N12   
	BYTE		N12     Fs2 
	BYTE	W12
	BYTE		N06     Fs1 
	BYTE	W12
	BYTE		        En1 
	BYTE	W12
	BYTE		N12   
	BYTE		N12     En2 
	BYTE	W12
	BYTE		N06     En1 
	BYTE	W12
	BYTE		N06   
	BYTE	W12
// 009   ----------------------------------------
	BYTE		N12     Dn1 
	BYTE		N12     Dn2 
	BYTE	W12
	BYTE		N06     Dn1 
	BYTE	W12
	BYTE		N06   
	BYTE	W12
	BYTE		N12   
	BYTE		N12     Dn2 
	BYTE	W12
	BYTE		N06     En1 
	BYTE	W12
	BYTE		N06   
	BYTE	W12
	BYTE		N11   
	BYTE		N11     En2 
	BYTE	W12
	BYTE		N06     En1 
	BYTE	W12
// 010   ----------------------------------------
	BYTE		        Fs1 
	BYTE	W12
	BYTE		N06   
	BYTE	W12
	BYTE		N12   
	BYTE		N12     Fs2 
	BYTE	W12
	BYTE		N06     Fs1 
	BYTE	W12
	BYTE		N06   
	BYTE	W12
	BYTE		N11   
	BYTE		N11     Fs2 
	BYTE	W12
	BYTE		N06     Fs1 
	BYTE	W12
	BYTE		N06   
	BYTE	W12
// 011   ----------------------------------------
	BYTE		N12     Gs1 
	BYTE		N12     Gs2 
	BYTE	W12
	BYTE		N07     Gs1 
	BYTE	W12
	BYTE		N07   
	BYTE	W12
	BYTE		N12   
	BYTE		N12     Gs2 
	BYTE	W12
	BYTE		N06     As1 
	BYTE	W12
	BYTE		N06   
	BYTE	W12
	BYTE		N12     Cn2 
	BYTE		N12     Cn3 
	BYTE	W12
	BYTE		N06     Cn2 
	BYTE	W12
// 012   ----------------------------------------
	BYTE		        Cs2 
	BYTE	W12
	BYTE		N06   
	BYTE	W12
	BYTE		N12   
	BYTE		N12     Cs3 
	BYTE	W12
	BYTE		N06     Cs2 
	BYTE	W12
	BYTE		        Cn2 
	BYTE	W12
	BYTE		N12   
	BYTE		N12     Cn3 
	BYTE	W12
	BYTE		N06     Cn2 
	BYTE	W12
	BYTE		N06   
	BYTE	W12
// 013   ----------------------------------------
	BYTE		N11     Bn1 
	BYTE		N09     Bn2 
	BYTE	W12
	BYTE		N06     Bn1 
	BYTE	W12
	BYTE		N06   
	BYTE	W12
	BYTE		N11   
	BYTE		N09     Bn2 
	BYTE	W12
	BYTE		N06     As1 
	BYTE	W12
	BYTE		N06   
	BYTE	W12
	BYTE		N12   
	BYTE		N12     As2 
	BYTE	W12
	BYTE		N06     As1 
	BYTE	W12
// 014   ----------------------------------------
	BYTE		        Fs1 
	BYTE	W12
	BYTE		N06   
	BYTE	W12
	BYTE		N12   
	BYTE		N12     Fs2 
	BYTE	W12
	BYTE		N06     Fs1 
	BYTE	W12
	BYTE		        Gs1 
	BYTE	W12
	BYTE		N12   
	BYTE		N12     Gs2 
	BYTE	W12
	BYTE		N06     As1 
	BYTE	W12
	BYTE		N06   
	BYTE	W12
// 015   ----------------------------------------
	BYTE		N11     Bn1 
	BYTE		N09     Bn2 
	BYTE	W12
	BYTE		N06     Bn1 
	BYTE	W12
	BYTE		N06   
	BYTE	W12
	BYTE		N12   
	BYTE		N12     Bn2 
	BYTE	W12
	BYTE		N05     Bn1 
	BYTE	W12
	BYTE		N05   
	BYTE	W12
	BYTE		N11   
	BYTE		N09     Bn2 
	BYTE	W12
	BYTE		N05     Bn1 
	BYTE	W12
// 016   ----------------------------------------
	BYTE		        En1 
	BYTE	W12
	BYTE		N05   
	BYTE	W12
	BYTE		N11   
	BYTE		N11     En2 
	BYTE	W12
	BYTE		N06     En1 
	BYTE	W12
	BYTE		N05     Fs1 
	BYTE	W12
	BYTE		N12   
	BYTE		N12     Fs2 
	BYTE	W12
	BYTE		N05     Gs1 
	BYTE	W12
	BYTE		N06   
	BYTE	W12
// 017   ----------------------------------------
	BYTE		N11     An1 
	BYTE		N09     An2 
	BYTE	W12
	BYTE		N05     An1 
	BYTE	W12
	BYTE		N05   
	BYTE	W12
	BYTE		N11   
	BYTE		N11     An2 
	BYTE	W12
	BYTE		N06     An1 
	BYTE	W12
	BYTE		N05   
	BYTE	W12
	BYTE		N11   
	BYTE		N09     An2 
	BYTE	W12
	BYTE		N05     An1 
	BYTE	W12
// 018   ----------------------------------------
	BYTE		        Dn1 
	BYTE	W12
	BYTE		N06   
	BYTE	W12
	BYTE		N12   
	BYTE		N12     Dn2 
	BYTE	W12
	BYTE		N05     Dn1 
	BYTE	W12
	BYTE		N05   
	BYTE	W12
	BYTE		N12   
	BYTE		N12     Dn2 
	BYTE	W12
	BYTE		N05     Dn1 
	BYTE	W12
	BYTE		N05   
	BYTE	W12
// 019   ----------------------------------------
	BYTE		N12     Bn0 
	BYTE		N12     Fs1 
	BYTE	W12
	BYTE		N05     Bn0 
	BYTE	W12
	BYTE		N05   
	BYTE	W12
	BYTE		N12   
	BYTE		N12     Fs1 
	BYTE	W12
	BYTE		N06     Bn0 
	BYTE	W12
	BYTE		N06   
	BYTE	W12
	BYTE		N12   
	BYTE		N12     Fs1 
	BYTE	W12
	BYTE		N05     Bn0 
	BYTE	W12
// 020   ----------------------------------------
	BYTE		N12     Cs1 
	BYTE		N12     Gs2 
	BYTE	W12
	BYTE		        Cs1 
	BYTE		N12     Gs2 
	BYTE	W12
	BYTE		        Cs1 
	BYTE		N12     Gs2 
	BYTE	W12
	BYTE		        Cs1 
	BYTE		N12     Cs2 
	BYTE	W36
	BYTE		N11     Cs1 
	BYTE		N09     Cs2 
	BYTE		N09     Gs2 
	BYTE	W12
	BYTE		N11     Gs1 
	BYTE		N09     Cs2 
	BYTE		N09     Gs2 
	BYTE	W12
// 021   ----------------------------------------
	BYTE		N23     Cs2 
	BYTE		N19     Fs2 
	BYTE	W24
	BYTE		N23     Bn1 
	BYTE		N19     Fn2 
	BYTE	W24
	BYTE		N23     An1 
	BYTE		N19     Fs2 
	BYTE	W24
	BYTE		N23     Gs1 
	BYTE		N19     Dn2 
	BYTE	W24
// 022   ----------------------------------------
	BYTE		N05     Dn1 
	BYTE	W12
	BYTE		N06   
	BYTE	W12
	BYTE		N09   
	BYTE		N44     Dn2 
	BYTE	W12
	BYTE		N06     Dn1 
	BYTE	W12
	BYTE		        En1 
	BYTE	W12
	BYTE		N09   
	BYTE		N44     En2 
	BYTE	W12
	BYTE		N05     En1 
	BYTE	W12
	BYTE		N05   
	BYTE	W12
// 023   ----------------------------------------
	BYTE		N09     An1 
	BYTE		N36     An2 
	BYTE	W12
	BYTE		N05     An1 
	BYTE	W12
	BYTE		N05   
	BYTE	W12
	BYTE		N12   
	BYTE		N12     An2 
	BYTE	W12
	BYTE		N05     Dn1 
	BYTE	W12
	BYTE		N05   
	BYTE	W12
	BYTE		N09   
	BYTE		N44     Dn2 
	BYTE	W12
	BYTE		N06     Dn1 
	BYTE	W12
// 024   ----------------------------------------
	BYTE		        Bn1 
	BYTE	W12
	BYTE		N06   
	BYTE	W12
	BYTE		N12   
	BYTE		N12     Bn2 
	BYTE	W12
	BYTE		N06     Bn1 
	BYTE	W12
	BYTE		        Cs2 
	BYTE	W12
	BYTE		N12   
	BYTE		N12     Cs3 
	BYTE	W12
	BYTE		N06     Cs2 
	BYTE	W12
	BYTE		N06   
	BYTE	W12
// 025   ----------------------------------------
	BYTE		N12     Dn2 
	BYTE		N12     Dn3 
	BYTE	W12
	BYTE		N06     Dn2 
	BYTE	W12
	BYTE		N05   
	BYTE	W12
	BYTE		N12   
	BYTE		N12     Dn3 
	BYTE	W12
	BYTE		N06     Cs2 
	BYTE	W12
	BYTE		N06   
	BYTE	W12
	BYTE		N12   
	BYTE		N12     Cs3 
	BYTE	W12
	BYTE		N06     Cs2 
	BYTE	W12
// 026   ----------------------------------------
	BYTE		        Dn1 
	BYTE	W12
	BYTE		N06   
	BYTE	W12
	BYTE		N09   
	BYTE		N44     Dn2 
	BYTE	W12
	BYTE		N06     Dn1 
	BYTE	W12
	BYTE		        En1 
	BYTE	W12
	BYTE		N12   
	BYTE		N12     En2 
	BYTE	W12
	BYTE		N06     En1 
	BYTE	W12
	BYTE		N06   
	BYTE	W12
// 027   ----------------------------------------
	BYTE		N09     An1 
	BYTE		N36     An2 
	BYTE	W12
	BYTE		N06     An1 
	BYTE	W12
	BYTE		N06   
	BYTE	W12
	BYTE		N12   
	BYTE		N12     An2 
	BYTE	W12
	BYTE		N06     Dn1 
	BYTE	W12
	BYTE		N06   
	BYTE	W12
	BYTE		N09   
	BYTE		N44     Dn2 
	BYTE	W12
	BYTE		N06     Dn1 
	BYTE	W12
// 028   ----------------------------------------
	BYTE		N12     Bn0 
	BYTE		N12     Bn1 
	BYTE	W12
	BYTE		N05     Bn0 
	BYTE	W12
	BYTE		N09     Cs1 
	BYTE		N23     Cs2 
	BYTE	W12
	BYTE		N06     Cs1 
	BYTE	W12
	BYTE		N09     Dn1 
	BYTE		N12     Dn2 
	BYTE	W12
	BYTE		N06     Dn1 
	BYTE		N06     Dn2 
	BYTE	W12
	BYTE		N09     En1 
	BYTE		N12     En2 
	BYTE	W12
	BYTE		N06     En1 
	BYTE		N06     En2 
	BYTE	W12
	BYTE	GoTo
	 POIN2	BattleFFL2_3_B1
BattleFFL2_3_B2:
// 029   ----------------------------------------
	BYTE		N12     Fs1   v100
	BYTE		N12     Bn2 
	BYTE	W12
	BYTE		N05     Fs1 
	BYTE	W12
	BYTE		N05   
	BYTE	W12
	BYTE		N12   
	BYTE		N12     Bn2 
	BYTE	W12
	BYTE		N05     Bn1 
	BYTE	W12
	BYTE		N05   
	BYTE	W12
	BYTE		N12   
	BYTE		N12     Bn2 
	BYTE	W12
	BYTE		N05     Bn1 
	BYTE	W12
// 030   ----------------------------------------
	BYTE	FINE

//**************** Track 4 (Midi-Chn.5) ****************//

BattleFFL2_4:
	BYTE	KEYSH   BattleFFL2_key+0
BattleFFL2_4_B1:
// 000   ----------------------------------------
	BYTE		VOICE   33
	BYTE		VOL     100*BattleFFL2_mvl/mxv
	BYTE		PAN     c_v+0
	BYTE		        c_v-29
	BYTE		N06     Fs0   v100
	BYTE	W12
	BYTE		N06   
	BYTE	W12
	BYTE		N06   
	BYTE	W12
	BYTE		N06   
	BYTE	W12
	BYTE		        Bn0 
	BYTE	W12
	BYTE		N06   
	BYTE	W12
	BYTE		N06   
	BYTE	W12
	BYTE		N06   
	BYTE	W12
// 001   ----------------------------------------
	BYTE		N07     Fs0 
	BYTE	W12
	BYTE		N07   
	BYTE	W12
	BYTE		N06   
	BYTE	W12
	BYTE		        Bn0 
	BYTE	W60
// 002   ----------------------------------------
	BYTE		N05     Fs0 
	BYTE	W12
	BYTE		N05   
	BYTE	W12
	BYTE		N05   
	BYTE	W12
	BYTE		N05   
	BYTE	W12
	BYTE		        Bn0 
	BYTE	W12
	BYTE		N05   
	BYTE	W12
	BYTE		N05   
	BYTE	W12
	BYTE		N05   
	BYTE	W12
// 003   ----------------------------------------
	BYTE		        Fs0 
	BYTE	W12
	BYTE		N05   
	BYTE	W12
	BYTE		N05   
	BYTE	W12
	BYTE		        Bn0 
	BYTE	W60
// 004   ----------------------------------------
	BYTE		N44     Dn1 
	BYTE	W48
	BYTE		        Cs1 
	BYTE	W48
// 005   ----------------------------------------
	BYTE		        Bn0 
	BYTE	W48
	BYTE		N11     Cs1 
	BYTE	W12
	BYTE		        Bn0 
	BYTE	W12
	BYTE		        An0 
	BYTE	W12
	BYTE		        Gs0 
	BYTE	W12
// 006   ----------------------------------------
	BYTE		N12     Fs0 
	BYTE	W12
	BYTE		N12   
	BYTE		N12     Fs1 
	BYTE	W12
	BYTE		        Fs0 
	BYTE	W12
	BYTE		N12   
	BYTE		N12     Fs1 
	BYTE	W12
	BYTE		        Fs0 
	BYTE	W12
	BYTE		N12   
	BYTE		N12     Fs1 
	BYTE	W12
	BYTE		        Fs0 
	BYTE	W12
	BYTE		N12   
	BYTE		N12     Fs1 
	BYTE	W12
// 007   ----------------------------------------
	BYTE		        Dn0 
	BYTE	W12
	BYTE		N12   
	BYTE		N12     Dn1 
	BYTE	W12
	BYTE		        Dn0 
	BYTE	W12
	BYTE		N12   
	BYTE		N12     Dn1 
	BYTE	W12
	BYTE		        En0 
	BYTE	W12
	BYTE		N12   
	BYTE		N12     En1 
	BYTE	W12
	BYTE		        En0 
	BYTE	W12
	BYTE		N12   
	BYTE		N12     En1 
	BYTE	W12
// 008   ----------------------------------------
	BYTE		N36     Fs0 
	BYTE		N36     Fs1 
	BYTE	W36
	BYTE		N12     Fs0 
	BYTE	W12
	BYTE		N36     En0 
	BYTE		N36     En1 
	BYTE	W36
	BYTE		N12     En0 
	BYTE	W12
// 009   ----------------------------------------
	BYTE		N36     Dn0 
	BYTE		N36     Dn1 
	BYTE	W36
	BYTE		N12     Dn0 
	BYTE	W12
	BYTE		N36     En0 
	BYTE		N36     En1 
	BYTE	W36
	BYTE		N12     En0 
	BYTE	W12
// 010   ----------------------------------------
	BYTE		N11     Fs0 
	BYTE	W12
	BYTE		N12   
	BYTE		N12     Fs1 
	BYTE	W12
	BYTE		        Fs0 
	BYTE	W12
	BYTE		N12   
	BYTE		N12     Fs1 
	BYTE	W12
	BYTE		        Fs0 
	BYTE	W12
	BYTE		N12   
	BYTE		N12     Fs1 
	BYTE	W12
	BYTE		        Fs0 
	BYTE	W12
	BYTE		N12   
	BYTE		N12     Fs1 
	BYTE	W12
// 011   ----------------------------------------
	BYTE		        Gs0 
	BYTE	W12
	BYTE		N12   
	BYTE		N12     Gs1 
	BYTE	W12
	BYTE		        Gs0 
	BYTE	W12
	BYTE		N12   
	BYTE		N12     Gs1 
	BYTE	W12
	BYTE		        As0 
	BYTE	W12
	BYTE		N12   
	BYTE		N12     As1 
	BYTE	W12
	BYTE		        Cn1 
	BYTE	W12
	BYTE		N12   
	BYTE		N12     Cn2 
	BYTE	W12
// 012   ----------------------------------------
	BYTE		N36     Cs1 
	BYTE		N36     Cs2 
	BYTE	W36
	BYTE		N12     Cs1 
	BYTE	W12
	BYTE		N36     Cn1 
	BYTE		N36     Cn2 
	BYTE	W36
	BYTE		N12     Cn1 
	BYTE	W12
// 013   ----------------------------------------
	BYTE		N36     Bn0 
	BYTE		N36     Bn1 
	BYTE	W36
	BYTE		N12     Bn0 
	BYTE	W12
	BYTE		N36     As0 
	BYTE		N36     As1 
	BYTE	W36
	BYTE		N11     As0 
	BYTE	W12
// 014   ----------------------------------------
	BYTE		        Fs0 
	BYTE	W12
	BYTE		N11   
	BYTE		N11     Fs1 
	BYTE	W12
	BYTE		N12     Fs0 
	BYTE	W12
	BYTE		N12   
	BYTE		N12     Fs1 
	BYTE	W12
	BYTE		        Gs0 
	BYTE	W12
	BYTE		N12   
	BYTE		N12     An1 
	BYTE	W12
	BYTE		        As0 
	BYTE	W12
	BYTE		N12   
	BYTE		N12     As1 
	BYTE	W12
// 015   ----------------------------------------
	BYTE		        Bn0 
	BYTE	W12
	BYTE		N12   
	BYTE		N12     Bn1 
	BYTE	W12
	BYTE		        Bn0 
	BYTE	W12
	BYTE		N12   
	BYTE		N12     Bn1 
	BYTE	W12
	BYTE		N11     Bn0 
	BYTE	W12
	BYTE		N11   
	BYTE		N11     Bn1 
	BYTE	W12
	BYTE		N12     Bn0 
	BYTE	W12
	BYTE		N12   
	BYTE		N12     Bn1 
	BYTE	W12
// 016   ----------------------------------------
	BYTE		N11     En0 
	BYTE	W12
	BYTE		N12   
	BYTE		N12     En1 
	BYTE	W12
	BYTE		        En0 
	BYTE	W12
	BYTE		N12   
	BYTE		N12     En1 
	BYTE	W12
	BYTE		        Fs0 
	BYTE	W12
	BYTE		N12   
	BYTE		N12     Fs1 
	BYTE	W12
	BYTE		N11     Gs0 
	BYTE	W12
	BYTE		N11   
	BYTE		N11     Gs1 
	BYTE	W12
// 017   ----------------------------------------
	BYTE		        An0 
	BYTE	W12
	BYTE		N12   
	BYTE		N12     An1 
	BYTE	W12
	BYTE		        An0 
	BYTE	W12
	BYTE		N12   
	BYTE		N12     An1 
	BYTE	W12
	BYTE		        An0 
	BYTE	W12
	BYTE		N12   
	BYTE		N12     An1 
	BYTE	W12
	BYTE		        An0 
	BYTE	W12
	BYTE		N12   
	BYTE		N12     An1 
	BYTE	W12
// 018   ----------------------------------------
	BYTE		N36     An0 
	BYTE		N36     An1 
	BYTE	W36
	BYTE		N28     An0 
	BYTE		N28     Dn1 
	BYTE	W36
	BYTE		N24     An0 
	BYTE		N24     An1 
	BYTE	W24
// 019   ----------------------------------------
	BYTE		N36     Bn0 
	BYTE		N28     Bn1 
	BYTE	W36
	BYTE		N24     Fs1 
	BYTE		N24     Bn1 
	BYTE	W36
	BYTE		        Bn0 
	BYTE		N24     Bn1 
	BYTE	W24
// 020   ----------------------------------------
	BYTE		N36     Cs1 
	BYTE		N36     Cs2 
	BYTE	W36
	BYTE		N12     Cs1 
	BYTE		N12     Cs2 
	BYTE	W36
	BYTE		N09     Cs1 
	BYTE		N09     Cs2 
	BYTE	W12
	BYTE		        Gs1 
	BYTE		N09     Gs2 
	BYTE	W12
// 021   ----------------------------------------
	BYTE		N24     Cs1 
	BYTE	W24
	BYTE		        Bn0 
	BYTE	W24
	BYTE		        An0 
	BYTE	W24
	BYTE		        Gs0 
	BYTE	W24
// 022   ----------------------------------------
BattleFFL2_4_022:
	BYTE		N48     Dn0   v100
	BYTE	W48
	BYTE		        En0 
	BYTE	W48
	BYTE	PEND
// 023   ----------------------------------------
BattleFFL2_4_023:
	BYTE		N48     An0   v100
	BYTE	W48
	BYTE		        Dn0 
	BYTE	W48
	BYTE	PEND
// 024   ----------------------------------------
	BYTE		N28     Bn0 
	BYTE		N23     Bn1 
	BYTE	W36
	BYTE		N09     Bn0 
	BYTE		N11     Bn1 
	BYTE	W12
	BYTE		N36     Cs1 
	BYTE		N44     Cs2 
	BYTE	W48
// 025   ----------------------------------------
	BYTE		N28     Dn1 
	BYTE		N23     Dn2 
	BYTE	W36
	BYTE		N09     Dn1 
	BYTE		N11     Dn2 
	BYTE	W12
	BYTE		N36     Cs1 
	BYTE		N44     Cs2 
	BYTE	W48
// 026   ----------------------------------------
	BYTE	PATT
	 POIN2	BattleFFL2_4_022
// 027   ----------------------------------------
	BYTE	PATT
	 POIN2	BattleFFL2_4_023
// 028   ----------------------------------------
	BYTE		N24     BnM1  v100
	BYTE	W24
	BYTE		        Cs0 
	BYTE	W24
	BYTE		        Dn0 
	BYTE	W24
	BYTE		        En0 
	BYTE	W24
	BYTE	GoTo
	 POIN2	BattleFFL2_4_B1
BattleFFL2_4_B2:
// 029   ----------------------------------------
	BYTE		PAN     c_v-29
	BYTE		N06     Fs0   v100
	BYTE	W12
	BYTE		N06   
	BYTE	W12
	BYTE		N06   
	BYTE	W12
	BYTE		N06   
	BYTE	W12
	BYTE		        Bn0 
	BYTE	W12
	BYTE		N06   
	BYTE	W12
	BYTE		N06   
	BYTE	W12
	BYTE		N06   
	BYTE	W12
// 030   ----------------------------------------
	BYTE	FINE

//**************** Track 5 (Midi-Chn.6) ****************//

BattleFFL2_5:
	BYTE	KEYSH   BattleFFL2_key+0
BattleFFL2_5_B1:
// 000   ----------------------------------------
	BYTE		VOICE   34
	BYTE		VOL     100*BattleFFL2_mvl/mxv
	BYTE		PAN     c_v+0
	BYTE		N07     Fs0   v100
	BYTE	W12
	BYTE		N06   
	BYTE	W12
	BYTE		N06   
	BYTE	W12
	BYTE		N07   
	BYTE	W12
	BYTE		        Bn0 
	BYTE	W12
	BYTE		N07   
	BYTE	W12
	BYTE		N06   
	BYTE	W12
	BYTE		N06   
	BYTE	W12
// 001   ----------------------------------------
	BYTE		        Fs0 
	BYTE	W12
	BYTE		N06   
	BYTE	W12
	BYTE		N06   
	BYTE	W12
	BYTE		        Bn0 
	BYTE	W60
// 002   ----------------------------------------
	BYTE		N05     Fs0 
	BYTE	W12
	BYTE		N05   
	BYTE	W12
	BYTE		N05   
	BYTE	W12
	BYTE		N05   
	BYTE	W12
	BYTE		        Bn0 
	BYTE	W12
	BYTE		N05   
	BYTE	W12
	BYTE		N05   
	BYTE	W12
	BYTE		N05   
	BYTE	W12
// 003   ----------------------------------------
	BYTE		        Fs0 
	BYTE	W12
	BYTE		N05   
	BYTE	W12
	BYTE		N05   
	BYTE	W12
	BYTE		        Bn0 
	BYTE	W60
// 004   ----------------------------------------
	BYTE		N44     Dn1 
	BYTE	W48
	BYTE		        Cs1 
	BYTE	W48
// 005   ----------------------------------------
	BYTE		        Bn0 
	BYTE	W48
	BYTE		N11     Cs1 
	BYTE	W12
	BYTE		N12     Bn0 
	BYTE	W12
	BYTE		        An0 
	BYTE	W12
	BYTE		        Gs0 
	BYTE	W12
// 006   ----------------------------------------
	BYTE		        Fs0 
	BYTE	W12
	BYTE		N12   
	BYTE		N12     Fs1 
	BYTE	W12
	BYTE		        Fs0 
	BYTE	W12
	BYTE		N12   
	BYTE		N12     Fs1 
	BYTE	W12
	BYTE		        Fs0 
	BYTE	W12
	BYTE		N12   
	BYTE		N12     Fs1 
	BYTE	W12
	BYTE		        Fs0 
	BYTE	W12
	BYTE		N11   
	BYTE		N11     Fs1 
	BYTE	W12
// 007   ----------------------------------------
	BYTE		N12     Dn0 
	BYTE	W12
	BYTE		N12   
	BYTE		N12     Dn1 
	BYTE	W12
	BYTE		        Dn0 
	BYTE	W12
	BYTE		N12   
	BYTE		N12     Dn1 
	BYTE	W12
	BYTE		        En0 
	BYTE	W12
	BYTE		N12   
	BYTE		N12     En1 
	BYTE	W12
	BYTE		        En0 
	BYTE	W12
	BYTE		N12   
	BYTE		N12     En1 
	BYTE	W12
// 008   ----------------------------------------
	BYTE		        Fs0 
	BYTE		N12     Fs1 
	BYTE	W12
	BYTE		        Fs0 
	BYTE	W12
	BYTE		N12   
	BYTE	W12
	BYTE		N12   
	BYTE	W12
	BYTE		        En0 
	BYTE		N12     En1 
	BYTE	W12
	BYTE		        En0 
	BYTE	W12
	BYTE		N12   
	BYTE	W12
	BYTE		N12   
	BYTE	W12
// 009   ----------------------------------------
	BYTE		        Dn0 
	BYTE		N12     Dn1 
	BYTE	W12
	BYTE		        Dn0 
	BYTE	W12
	BYTE		N12   
	BYTE	W12
	BYTE		N12   
	BYTE	W12
	BYTE		        En0 
	BYTE		N12     En1 
	BYTE	W12
	BYTE		        En0 
	BYTE	W12
	BYTE		N12   
	BYTE	W12
	BYTE		N11   
	BYTE	W12
// 010   ----------------------------------------
	BYTE		N12     Fs0 
	BYTE	W12
	BYTE		N12   
	BYTE		N12     Fs1 
	BYTE	W12
	BYTE		        Fs0 
	BYTE	W12
	BYTE		N12   
	BYTE		N12     Fs1 
	BYTE	W12
	BYTE		        Fs0 
	BYTE	W12
	BYTE		N12   
	BYTE		N12     Fs1 
	BYTE	W12
	BYTE		        Fs0 
	BYTE	W12
	BYTE		N12   
	BYTE		N12     Fs1 
	BYTE	W12
// 011   ----------------------------------------
	BYTE		        Gs0 
	BYTE	W12
	BYTE		N12   
	BYTE		N12     Gs1 
	BYTE	W12
	BYTE		        Gs0 
	BYTE	W12
	BYTE		N12   
	BYTE		N12     Gs1 
	BYTE	W12
	BYTE		        As0 
	BYTE	W12
	BYTE		N12   
	BYTE		N12     As1 
	BYTE	W12
	BYTE		        Cn1 
	BYTE	W12
	BYTE		N11   
	BYTE		N11     Cn2 
	BYTE	W12
// 012   ----------------------------------------
	BYTE		N12     Cs1 
	BYTE		N12     Cs2 
	BYTE	W12
	BYTE		        Cs1 
	BYTE	W12
	BYTE		N12   
	BYTE	W12
	BYTE		N12   
	BYTE	W12
	BYTE		        Cn1 
	BYTE		N12     Cn2 
	BYTE	W12
	BYTE		        Cn1 
	BYTE	W12
	BYTE		N12   
	BYTE	W12
	BYTE		N12   
	BYTE	W12
// 013   ----------------------------------------
	BYTE		        Bn0 
	BYTE		N12     Bn1 
	BYTE	W12
	BYTE		        Bn0 
	BYTE	W12
	BYTE		N12   
	BYTE	W12
	BYTE		N12   
	BYTE	W12
	BYTE		        As0 
	BYTE		N12     As1 
	BYTE	W12
	BYTE		        As0 
	BYTE	W12
	BYTE		N12   
	BYTE	W12
	BYTE		N12   
	BYTE	W12
// 014   ----------------------------------------
	BYTE		N11     Fs0 
	BYTE	W12
	BYTE		N11   
	BYTE		N11     Fs1 
	BYTE	W12
	BYTE		N12     Fs0 
	BYTE	W12
	BYTE		N12   
	BYTE		N12     Fs1 
	BYTE	W12
	BYTE		        Gs0 
	BYTE	W12
	BYTE		N12   
	BYTE		N12     An1 
	BYTE	W12
	BYTE		        As0 
	BYTE	W12
	BYTE		N12   
	BYTE		N12     As1 
	BYTE	W12
// 015   ----------------------------------------
	BYTE		N11     Bn0 
	BYTE	W12
	BYTE		N09   
	BYTE		N09     Bn1 
	BYTE	W12
	BYTE		N11     Bn0 
	BYTE	W12
	BYTE		N09   
	BYTE		N05     Bn1 
	BYTE	W12
	BYTE		N11     Bn0 
	BYTE	W12
	BYTE		N09   
	BYTE		N09     Bn1 
	BYTE	W12
	BYTE		N11     Bn0 
	BYTE	W12
	BYTE		N09   
	BYTE		N09     Bn1 
	BYTE	W12
// 016   ----------------------------------------
	BYTE		N11     En0 
	BYTE	W12
	BYTE		N09   
	BYTE		N09     En1 
	BYTE	W12
	BYTE		N11     En0 
	BYTE	W12
	BYTE		N09   
	BYTE		N05     En1 
	BYTE	W12
	BYTE		N11     Fs0 
	BYTE	W12
	BYTE		N09   
	BYTE		N09     Fs1 
	BYTE	W12
	BYTE		N11     Gs0 
	BYTE	W12
	BYTE		N09   
	BYTE		N09     Gs1 
	BYTE	W12
// 017   ----------------------------------------
	BYTE		N11     An0 
	BYTE	W12
	BYTE		N12   
	BYTE		N12     An1 
	BYTE	W12
	BYTE		        An0 
	BYTE	W12
	BYTE		N12   
	BYTE		N12     An1 
	BYTE	W12
	BYTE		        An0 
	BYTE	W12
	BYTE		N12   
	BYTE		N12     An1 
	BYTE	W12
	BYTE		        An0 
	BYTE	W12
	BYTE		N12   
	BYTE		N12     An1 
	BYTE	W12
// 018   ----------------------------------------
	BYTE		N09     An0 
	BYTE		N09     Dn2 
	BYTE	W12
	BYTE		        An0 
	BYTE	W12
	BYTE		N09   
	BYTE	W12
	BYTE		N09   
	BYTE		N09     An1 
	BYTE	W12
	BYTE		        An0 
	BYTE	W12
	BYTE		N09   
	BYTE	W12
	BYTE		N09   
	BYTE		N09     Dn2 
	BYTE	W12
	BYTE		        An0 
	BYTE	W12
// 019   ----------------------------------------
	BYTE		        Bn0 
	BYTE		N09     Bn1 
	BYTE	W12
	BYTE		        Bn0 
	BYTE	W12
	BYTE		N09   
	BYTE	W12
	BYTE		N09   
	BYTE		N13     Fs2 
	BYTE	W12
	BYTE		N09     Bn0 
	BYTE	W12
	BYTE		N09   
	BYTE	W12
	BYTE		N09   
	BYTE		N09     Bn1 
	BYTE	W12
	BYTE		        Bn0 
	BYTE	W12
// 020   ----------------------------------------
	BYTE		        Cs1 
	BYTE	W12
	BYTE		N09   
	BYTE	W12
	BYTE		N09   
	BYTE	W12
	BYTE		N11   
	BYTE		N09     Cs2 
	BYTE	W36
	BYTE		N11     Cs1 
	BYTE		N09     Cs2 
	BYTE	W12
	BYTE		N11     Gs1 
	BYTE		N09     Gs2 
	BYTE	W12
// 021   ----------------------------------------
	BYTE		N23     Cs1 
	BYTE		N19     Fs1 
	BYTE	W24
	BYTE		N23     Bn0 
	BYTE		N19     Fn1 
	BYTE	W24
	BYTE		N23     An0 
	BYTE		N19     Fs1 
	BYTE	W24
	BYTE		N23     Gs0 
	BYTE		N19     Dn1 
	BYTE	W24
// 022   ----------------------------------------
BattleFFL2_5_022:
	BYTE		N12     Dn0   v100
	BYTE		N09     Dn1 
	BYTE	W12
	BYTE		N12     Dn0 
	BYTE	W12
	BYTE		N12   
	BYTE		N09     Dn1 
	BYTE	W12
	BYTE		N12     Dn0 
	BYTE	W12
	BYTE		        En0 
	BYTE		N09     En1 
	BYTE	W12
	BYTE		N12     En0 
	BYTE	W12
	BYTE		N12   
	BYTE		N09     En1 
	BYTE	W12
	BYTE		N12     En0 
	BYTE	W12
	BYTE	PEND
// 023   ----------------------------------------
BattleFFL2_5_023:
	BYTE		N12     An0   v100
	BYTE		N09     An1 
	BYTE	W12
	BYTE		N12     An0 
	BYTE	W12
	BYTE		N12   
	BYTE		N09     An1 
	BYTE	W12
	BYTE		N12     An0 
	BYTE	W12
	BYTE		        Dn0 
	BYTE		N09     Dn1 
	BYTE	W12
	BYTE		N12     Dn0 
	BYTE	W12
	BYTE		N12   
	BYTE		N09     Dn1 
	BYTE	W12
	BYTE		N12     Dn0 
	BYTE	W12
	BYTE	PEND
// 024   ----------------------------------------
	BYTE		N09     Bn0 
	BYTE		N23     Bn1 
	BYTE	W12
	BYTE		N09     Bn0 
	BYTE	W12
	BYTE		N09   
	BYTE	W12
	BYTE		N09   
	BYTE		N11     Bn1 
	BYTE	W12
	BYTE		N09     Cs1 
	BYTE		N24     Cs2 
	BYTE	W12
	BYTE		N09     Cs1 
	BYTE	W12
	BYTE		N09   
	BYTE		N09     Cs2 
	BYTE	W12
	BYTE		        Cs1 
	BYTE	W12
// 025   ----------------------------------------
	BYTE		N12     Dn1 
	BYTE		N09     Dn2 
	BYTE	W12
	BYTE		        Dn1 
	BYTE	W12
	BYTE		N09   
	BYTE	W12
	BYTE		N09   
	BYTE		N11     Dn2 
	BYTE	W12
	BYTE		N09     Cs1 
	BYTE		N36     Cs2 
	BYTE	W12
	BYTE		N09     Cs1 
	BYTE	W12
	BYTE		N09   
	BYTE	W12
	BYTE		N09   
	BYTE		N09     Cs2 
	BYTE	W12
// 026   ----------------------------------------
	BYTE	PATT
	 POIN2	BattleFFL2_5_022
// 027   ----------------------------------------
	BYTE	PATT
	 POIN2	BattleFFL2_5_023
// 028   ----------------------------------------
	BYTE		N09     BnM1  v100
	BYTE		N23     Bn0 
	BYTE	W12
	BYTE		N09     BnM1
	BYTE	W12
	BYTE		        Cs0 
	BYTE		N23     Cs1 
	BYTE	W12
	BYTE		N09     Cs0 
	BYTE	W12
	BYTE		        Dn0 
	BYTE		N12     Dn1 
	BYTE	W12
	BYTE		N09     Dn0 
	BYTE		N09     Dn1 
	BYTE	W12
	BYTE		        En0 
	BYTE		N12     En1 
	BYTE	W12
	BYTE		N09     En0 
	BYTE		N09     En1 
	BYTE	W12
	BYTE	GoTo
	 POIN2	BattleFFL2_5_B1
BattleFFL2_5_B2:
// 029   ----------------------------------------
	BYTE		N07     Fs0   v100
	BYTE	W12
	BYTE		N06   
	BYTE	W12
	BYTE		N06   
	BYTE	W12
	BYTE		N07   
	BYTE	W12
	BYTE		        Bn0 
	BYTE	W12
	BYTE		N07   
	BYTE	W12
	BYTE		N06   
	BYTE	W12
	BYTE		N06   
	BYTE	W12
// 030   ----------------------------------------
	BYTE	FINE

//**************** Track 6 (Midi-Chn.9) ****************//

BattleFFL2_6:
	BYTE	KEYSH   BattleFFL2_key+0
BattleFFL2_6_B1:
// 000   ----------------------------------------
	BYTE		VOICE   49
	BYTE		VOL     127*BattleFFL2_mvl/mxv
	BYTE		PAN     c_v-19
	BYTE		N11     Cs3   v100
	BYTE	W12
	BYTE		        Fs2 
	BYTE	W12
	BYTE		        An2 
	BYTE	W12
	BYTE		        En3 
	BYTE	W12
	BYTE		        Ds3 
	BYTE	W12
	BYTE		        Bn2 
	BYTE	W24
	BYTE		N11   
	BYTE	W12
// 001   ----------------------------------------
	BYTE		        Cs3 
	BYTE	W12
	BYTE		        Fs2 
	BYTE	W12
	BYTE		        En3 
	BYTE	W12
	BYTE		        Ds3 
	BYTE	W24
	BYTE		N05     Cs4 
	BYTE	W06
	BYTE		        Dn4 
	BYTE	W06
	BYTE		        Cs4 
	BYTE	W06
	BYTE		        Bn3 
	BYTE	W06
	BYTE		        An3 
	BYTE	W06
	BYTE		        Gs3 
	BYTE	W06
// 002   ----------------------------------------
	BYTE		N11     Cs3 
	BYTE	W12
	BYTE		        Fs2 
	BYTE	W12
	BYTE		        An2 
	BYTE	W12
	BYTE		        En3 
	BYTE	W12
	BYTE		        Ds3 
	BYTE	W12
	BYTE		        Bn2 
	BYTE	W24
	BYTE		N11   
	BYTE	W12
// 003   ----------------------------------------
	BYTE		        Cs3 
	BYTE	W12
	BYTE		        Fs2 
	BYTE	W12
	BYTE		        En3 
	BYTE	W12
	BYTE		        Ds3 
	BYTE	W24
	BYTE		N05     Fs2 
	BYTE	W06
	BYTE		        Gs2 
	BYTE	W06
	BYTE		        An2 
	BYTE	W06
	BYTE		        Bn2 
	BYTE	W06
	BYTE		        Cs3 
	BYTE	W06
	BYTE		        En3 
	BYTE	W06
// 004   ----------------------------------------
	BYTE	W12
	BYTE		N11     Dn3 
	BYTE	W12
	BYTE		        An2 
	BYTE	W12
	BYTE		N05     Cs3 
	BYTE	W06
	BYTE		        Dn3 
	BYTE	W18
	BYTE		N11     En3 
	BYTE	W12
	BYTE		        Bn2 
	BYTE	W12
	BYTE		N05     Dn3 
	BYTE	W06
	BYTE		        En3 
	BYTE	W06
// 005   ----------------------------------------
	BYTE	W12
	BYTE		N11     Fs3 
	BYTE	W12
	BYTE		        Dn3 
	BYTE	W12
	BYTE		N05     En3 
	BYTE	W06
	BYTE		        Dn3 
	BYTE	W06
	BYTE		        En3 
	BYTE	W06
	BYTE		        Fs3 
	BYTE	W06
	BYTE		        En3 
	BYTE	W06
	BYTE		        Dn3 
	BYTE	W06
	BYTE		        Cs3 
	BYTE	W06
	BYTE		        Dn3 
	BYTE	W06
	BYTE		        Cs3 
	BYTE	W06
	BYTE		        Bn2 
	BYTE	W06
// 006   ----------------------------------------
BattleFFL2_6_006:
	BYTE		N05     An2   v100
	BYTE	W12
	BYTE		N05   
	BYTE	W06
	BYTE		        Gs2 
	BYTE	W06
	BYTE		        An2 
	BYTE	W12
	BYTE		N05   
	BYTE	W06
	BYTE		        Gs2 
	BYTE	W06
	BYTE		        An2 
	BYTE	W12
	BYTE		N05   
	BYTE	W06
	BYTE		        Gs2 
	BYTE	W06
	BYTE		        An2 
	BYTE	W12
	BYTE		N05   
	BYTE	W06
	BYTE		        Gs2 
	BYTE	W06
	BYTE	PEND
// 007   ----------------------------------------
	BYTE		        Fs2 
	BYTE	W12
	BYTE		N05   
	BYTE	W06
	BYTE		        En2 
	BYTE	W06
	BYTE		        Fs2 
	BYTE	W12
	BYTE		N05   
	BYTE	W06
	BYTE		        En2 
	BYTE	W06
	BYTE		        Gs2 
	BYTE	W12
	BYTE		N05   
	BYTE	W06
	BYTE		        Fs2 
	BYTE	W06
	BYTE		        Gs2 
	BYTE	W12
	BYTE		N05   
	BYTE	W06
	BYTE		        Fs2 
	BYTE	W06
// 008   ----------------------------------------
	BYTE		        Cs3 
	BYTE	W06
	BYTE		        Dn3 
	BYTE	W06
	BYTE		        Cs3 
	BYTE	W06
	BYTE		        Bn2 
	BYTE	W06
	BYTE		        Cs3 
	BYTE	W06
	BYTE		        Dn3 
	BYTE	W06
	BYTE		        Cs3 
	BYTE	W06
	BYTE		        Bn2 
	BYTE	W06
	BYTE		        Cs3 
	BYTE	W06
	BYTE		        Dn3 
	BYTE	W06
	BYTE		        Cs3 
	BYTE	W06
	BYTE		        Bn2 
	BYTE	W06
	BYTE		        Cs3 
	BYTE	W06
	BYTE		        Dn3 
	BYTE	W06
	BYTE		        Cs3 
	BYTE	W06
	BYTE		        Bn2 
	BYTE	W06
// 009   ----------------------------------------
	BYTE		N06     Cs3 
	BYTE	W06
	BYTE		        Dn3 
	BYTE	W06
	BYTE		        Cs3 
	BYTE	W06
	BYTE		        Bn2 
	BYTE	W06
	BYTE		        An2 
	BYTE	W06
	BYTE		        Bn2 
	BYTE	W06
	BYTE		        An2 
	BYTE	W06
	BYTE		        Fs2 
	BYTE	W06
	BYTE		        Gs2 
	BYTE	W06
	BYTE		        An2 
	BYTE	W06
	BYTE		        Bn2 
	BYTE	W06
	BYTE		        Cs3 
	BYTE	W06
	BYTE		        Dn3 
	BYTE	W06
	BYTE		        En3 
	BYTE	W06
	BYTE		        Fs3 
	BYTE	W06
	BYTE		        Gs3 
	BYTE	W06
// 010   ----------------------------------------
	BYTE	PATT
	 POIN2	BattleFFL2_6_006
// 011   ----------------------------------------
	BYTE		N05     Cn3   v100
	BYTE	W12
	BYTE		N05   
	BYTE	W06
	BYTE		        Bn2 
	BYTE	W06
	BYTE		        Cn3 
	BYTE	W12
	BYTE		N05   
	BYTE	W06
	BYTE		        Bn2 
	BYTE	W06
	BYTE		        Cn3 
	BYTE	W12
	BYTE		N05   
	BYTE	W06
	BYTE		        Bn2 
	BYTE	W06
	BYTE		        Cn3 
	BYTE	W12
	BYTE		N05   
	BYTE	W06
	BYTE		        Bn2 
	BYTE	W06
// 012   ----------------------------------------
	BYTE		        Gs2 
	BYTE	W06
	BYTE		        An2 
	BYTE	W06
	BYTE		        Gs2 
	BYTE	W06
	BYTE		        Fs2 
	BYTE	W06
	BYTE		        Gs2 
	BYTE	W06
	BYTE		        An2 
	BYTE	W06
	BYTE		        Gs2 
	BYTE	W06
	BYTE		        Fs2 
	BYTE	W06
	BYTE		        Gs2 
	BYTE	W06
	BYTE		        An2 
	BYTE	W06
	BYTE		        Gs2 
	BYTE	W06
	BYTE		        Fs2 
	BYTE	W06
	BYTE		        Gs2 
	BYTE	W06
	BYTE		        An2 
	BYTE	W06
	BYTE		        Gs2 
	BYTE	W06
	BYTE		        Fs2 
	BYTE	W06
// 013   ----------------------------------------
	BYTE		N06     Gs2 
	BYTE	W06
	BYTE		        An2 
	BYTE	W06
	BYTE		        Gs2 
	BYTE	W06
	BYTE		        Fs2 
	BYTE	W06
	BYTE		        Gs2 
	BYTE	W06
	BYTE		        An2 
	BYTE	W06
	BYTE		        Gs2 
	BYTE	W06
	BYTE		        Fs2 
	BYTE	W06
	BYTE		        En2 
	BYTE	W06
	BYTE		        Fs2 
	BYTE	W06
	BYTE		        Gs2 
	BYTE	W06
	BYTE		        An2 
	BYTE	W06
	BYTE		        Bn2 
	BYTE	W06
	BYTE		        Cs3 
	BYTE	W06
	BYTE		        Dn3 
	BYTE	W06
	BYTE		        En3 
	BYTE	W06
// 014   ----------------------------------------
	BYTE		N19     Fs1 
	BYTE		N23     Fs3   v127
	BYTE	W24
	BYTE		N11   
	BYTE	W12
	BYTE		N09     Gn3   v120
	BYTE	W12
	BYTE		N19     Fs1   v100
	BYTE		N06     Fs3   v127
	BYTE	W24
	BYTE		N19     En1   v100
	BYTE		N24     En3   v127
	BYTE	W24
// 015   ----------------------------------------
	BYTE		N09     Dn1   v100
	BYTE		N11     Dn3   v127
	BYTE	W12
	BYTE		N08     Cs3   v116
	BYTE	W12
	BYTE		N19     Dn1   v100
	BYTE		N24     Dn3 
	BYTE	W24
	BYTE		N11     Bn2   v127
	BYTE	W12
	BYTE		        Cs3   v120
	BYTE	W12
	BYTE		N08     Dn3   v100
	BYTE	W12
	BYTE		        Fs3 
	BYTE	W12
// 016   ----------------------------------------
	BYTE		N19     En1 
	BYTE		N23     En3   v127
	BYTE	W24
	BYTE		N11   
	BYTE	W12
	BYTE		N09     Fs3   v116
	BYTE	W12
	BYTE		N19     En1   v100
	BYTE		N05     En3   v127
	BYTE	W24
	BYTE		N19     Dn1   v100
	BYTE		N23     Dn3   v127
	BYTE	W24
// 017   ----------------------------------------
	BYTE		N09     Cs1   v100
	BYTE		N11     Cs3   v127
	BYTE	W12
	BYTE		N08     Bn2   v120
	BYTE	W12
	BYTE		N19     Cs1   v100
	BYTE		N23     Cs3   v127
	BYTE	W24
	BYTE		N11     An2 
	BYTE	W12
	BYTE		        Bn2   v120
	BYTE	W12
	BYTE		N08     Cs3   v100
	BYTE	W12
	BYTE		        En3 
	BYTE	W12
// 018   ----------------------------------------
	BYTE		N19     Dn1 
	BYTE		N23     Dn3   v127
	BYTE	W24
	BYTE		N11   
	BYTE	W12
	BYTE		N08     Cs3   v120
	BYTE	W12
	BYTE		N19     Bn0   v100
	BYTE		N05     Bn2   v127
	BYTE	W24
	BYTE		N19     An0   v100
	BYTE		N23     An2   v127
	BYTE	W24
// 019   ----------------------------------------
	BYTE		N19     Gs0   v100
	BYTE		N23     Gs2   v127
	BYTE	W24
	BYTE		N19     An0   v100
	BYTE		N23     An2   v108
	BYTE	W24
	BYTE		N19     Bn0   v100
	BYTE		N16     Bn2   v124
	BYTE	W24
	BYTE		N19     Gs0   v100
	BYTE		N17     Gs2 
	BYTE	W24
// 020   ----------------------------------------
	BYTE		N04     Cs1 
	BYTE		N05     Cs3   v127
	BYTE	W06
	BYTE		N04     Dn1   v100
	BYTE		N05     Dn3   v124
	BYTE	W06
	BYTE		N04     En1   v100
	BYTE		N05     En3   v120
	BYTE	W06
	BYTE		N04     Dn1   v100
	BYTE		N05     Dn3   v112
	BYTE	W06
	BYTE		N09     Cs1   v100
	BYTE		N05     Cs3   v104
	BYTE	W12
	BYTE		N04     Cs1   v100
	BYTE		N05     Cs3   v127
	BYTE	W06
	BYTE		N04     Dn1   v100
	BYTE		N05     Dn3   v124
	BYTE	W06
	BYTE		N04     En1   v100
	BYTE		N05     En3   v116
	BYTE	W06
	BYTE		N04     Dn1   v100
	BYTE		N05     Dn3   v108
	BYTE	W06
	BYTE		N09     Cs1   v100
	BYTE		N05     Cs3 
	BYTE	W12
	BYTE		N04     Cs1 
	BYTE		N05     Cs3   v127
	BYTE	W06
	BYTE		N04     Dn1   v100
	BYTE		N05     Dn3   v124
	BYTE	W06
	BYTE		N04     En1   v100
	BYTE		N05     En3   v116
	BYTE	W06
	BYTE		N04     Dn1   v100
	BYTE		N05     Dn3   v108
	BYTE	W06
// 021   ----------------------------------------
	BYTE		N76     Cs1   v100
	BYTE		N96     Cs3   v127
	BYTE	W96
// 022   ----------------------------------------
BattleFFL2_6_022:
	BYTE		N36     Dn1   v100
	BYTE		N36     Dn3 
	BYTE	W48
	BYTE		        En1 
	BYTE		N36     En3 
	BYTE	W48
	BYTE	PEND
// 023   ----------------------------------------
BattleFFL2_6_023:
	BYTE		N36     An1   v100
	BYTE		N36     An3 
	BYTE	W48
	BYTE		        Dn1 
	BYTE		N36     Dn3 
	BYTE	W48
	BYTE	PEND
// 024   ----------------------------------------
	BYTE		N09     Bn0 
	BYTE		N11     Bn2   v127
	BYTE	W12
	BYTE		        Cs3   v120
	BYTE	W12
	BYTE		N08     Dn3   v100
	BYTE	W12
	BYTE		N09     Bn2 
	BYTE	W12
	BYTE		N19     Cs1 
	BYTE		N05     Cs3   v127
	BYTE	W24
	BYTE		N19     En1   v100
	BYTE		N23     En3   v127
	BYTE	W24
// 025   ----------------------------------------
	BYTE		N28     Fs1   v100
	BYTE		N36     Fs3   v127
	BYTE	W36
	BYTE		N05     Gs3 
	BYTE	W06
	BYTE		        Fs3   v116
	BYTE	W06
	BYTE		N19     Fn1   v100
	BYTE		N06     Fn3   v127
	BYTE	W24
	BYTE		N19     Cs1   v100
	BYTE		N23     Cs3   v127
	BYTE	W24
// 026   ----------------------------------------
	BYTE	PATT
	 POIN2	BattleFFL2_6_022
// 027   ----------------------------------------
	BYTE	PATT
	 POIN2	BattleFFL2_6_023
// 028   ----------------------------------------
	BYTE		N19     Bn0   v100
	BYTE		N19     Bn2 
	BYTE	W24
	BYTE		        Cs1 
	BYTE		N19     Cs3 
	BYTE	W24
	BYTE		        Dn1 
	BYTE		N19     Dn3 
	BYTE	W24
	BYTE		        En1 
	BYTE		N19     En3 
	BYTE	W24
	BYTE	GoTo
	 POIN2	BattleFFL2_6_B1
BattleFFL2_6_B2:
// 029   ----------------------------------------
	BYTE		PAN     c_v-19
	BYTE		N11     Cs3   v100
	BYTE	W12
	BYTE		        Fs2 
	BYTE	W12
	BYTE		        An2 
	BYTE	W12
	BYTE		        En3 
	BYTE	W12
	BYTE		        Ds3 
	BYTE	W12
	BYTE		        Bn2 
	BYTE	W24
	BYTE		N11   
	BYTE	W12
// 030   ----------------------------------------
	BYTE	FINE

//**************** Track 7 (Midi-Chn.11) ****************//

BattleFFL2_7:
	BYTE	KEYSH   BattleFFL2_key+0
BattleFFL2_7_B1:
// 000   ----------------------------------------
	BYTE		VOICE   40
	BYTE		VOL     101*BattleFFL2_mvl/mxv
	BYTE		PAN     c_v+0
	BYTE	W96
// 001   ----------------------------------------
	BYTE	W96
// 002   ----------------------------------------
	BYTE		        c_v+46
	BYTE	W96
// 003   ----------------------------------------
	BYTE	W96
// 004   ----------------------------------------
	BYTE		N48     Fs3   v084
	BYTE	W48
	BYTE		        Gs3   v116
	BYTE	W48
// 005   ----------------------------------------
	BYTE		        An3   v127
	BYTE	W48
	BYTE		N24     Gs3   v100
	BYTE	W24
	BYTE		        En3   v080
	BYTE	W24
// 006   ----------------------------------------
	BYTE		N11     An3   v127
	BYTE	W12
	BYTE		        Gs3   v116
	BYTE	W12
	BYTE		N07     Fs3   v104
	BYTE	W12
	BYTE		N08     Gs3   v100
	BYTE	W12
	BYTE		N05     An3   v127
	BYTE	W24
	BYTE		N06     Cs4   v100
	BYTE	W24
// 007   ----------------------------------------
	BYTE		N11     Bn3   v127
	BYTE	W12
	BYTE		        Cs4   v116
	BYTE	W12
	BYTE		N07     Bn3   v108
	BYTE	W12
	BYTE		N08     An3   v096
	BYTE	W12
	BYTE		N05     Gs3   v127
	BYTE	W24
	BYTE		        En3   v100
	BYTE	W24
// 008   ----------------------------------------
	BYTE		N44     Fs3   v080
	BYTE	W48
	BYTE		N48     Gs3   v096
	BYTE	W48
// 009   ----------------------------------------
	BYTE		        An3   v116
	BYTE	W48
	BYTE		        Bn3   v127
	BYTE	W48
// 010   ----------------------------------------
	BYTE		N11     An3 
	BYTE	W12
	BYTE		        Gs3   v116
	BYTE	W12
	BYTE		N08     Fs3   v100
	BYTE	W12
	BYTE		        Gs3 
	BYTE	W12
	BYTE		N05     An3   v127
	BYTE	W24
	BYTE		N24     Cs4   v100
	BYTE	W24
// 011   ----------------------------------------
	BYTE		N19     Cn4   v127
	BYTE	W24
	BYTE		N11   
	BYTE	W12
	BYTE		        Cs4   v116
	BYTE	W12
	BYTE		N05     Ds4   v127
	BYTE	W24
	BYTE		N23     Fs4 
	BYTE	W24
// 012   ----------------------------------------
	BYTE		N48     Cs4 
	BYTE	W48
	BYTE		        Cn4   v116
	BYTE	W48
// 013   ----------------------------------------
	BYTE		        Bn3   v104
	BYTE	W48
	BYTE		        As3   v088
	BYTE	W48
// 014   ----------------------------------------
	BYTE		N19     Fs2   v100
	BYTE		N19     Fs3 
	BYTE		N23     Fs4   v127
	BYTE	W24
	BYTE		N09     Fs3   v100
	BYTE		N11     Fs4   v127
	BYTE	W12
	BYTE		N09     Gn3   v100
	BYTE		N09     Gn4   v120
	BYTE	W12
	BYTE		N19     Fs2   v100
	BYTE		N19     Fs3 
	BYTE		N06     Fs4   v127
	BYTE	W24
	BYTE		N19     En2   v100
	BYTE		N19     En3 
	BYTE		N24     En4   v127
	BYTE	W24
// 015   ----------------------------------------
	BYTE		N09     Dn2   v100
	BYTE		N09     Dn3 
	BYTE		N11     Dn4   v127
	BYTE	W12
	BYTE		N09     Cs3   v100
	BYTE		N08     Cs4   v116
	BYTE	W12
	BYTE		N19     Dn2   v100
	BYTE		N19     Dn3 
	BYTE		N24     Dn4 
	BYTE	W24
	BYTE		N09     Bn2 
	BYTE		N11     Bn3   v127
	BYTE	W12
	BYTE		N09     Cs3   v100
	BYTE		N11     Cs4   v120
	BYTE	W12
	BYTE		N09     Dn3   v100
	BYTE		N08     Dn4 
	BYTE	W12
	BYTE		N09     Fs3 
	BYTE		N08     Fs4 
	BYTE	W12
// 016   ----------------------------------------
	BYTE		N19     En2 
	BYTE		N19     En3 
	BYTE		N23     En4   v127
	BYTE	W24
	BYTE		N09     En3   v100
	BYTE		N11     En4   v127
	BYTE	W12
	BYTE		N09     Fs3   v100
	BYTE		N09     Fs4   v116
	BYTE	W12
	BYTE		N19     En2   v100
	BYTE		N19     En3 
	BYTE		N05     En4   v127
	BYTE	W24
	BYTE		N19     Dn2   v100
	BYTE		N19     Dn3 
	BYTE		N23     Dn4   v127
	BYTE	W24
// 017   ----------------------------------------
	BYTE		N09     Cs2   v100
	BYTE		N09     Cs3 
	BYTE		N11     Cs4   v127
	BYTE	W12
	BYTE		N09     Bn2   v100
	BYTE		N08     Bn3   v120
	BYTE	W12
	BYTE		N19     Cs2   v100
	BYTE		N19     Cs3 
	BYTE		N23     Cs4   v127
	BYTE	W24
	BYTE		N09     An2   v100
	BYTE		N11     An3   v127
	BYTE	W12
	BYTE		N09     Bn2   v100
	BYTE		N11     Bn3   v120
	BYTE	W12
	BYTE		N09     Cs3   v100
	BYTE		N08     Cs4 
	BYTE	W12
	BYTE		N09     En3 
	BYTE		N08     En4 
	BYTE	W12
// 018   ----------------------------------------
	BYTE		N19     Dn2 
	BYTE		N19     Dn3 
	BYTE		N23     Dn4   v127
	BYTE	W24
	BYTE		N09     Dn3   v100
	BYTE		N11     Dn4   v127
	BYTE	W12
	BYTE		N09     Cs3   v100
	BYTE		N08     Cs4   v120
	BYTE	W12
	BYTE		N19     Bn1   v100
	BYTE		N19     Bn2 
	BYTE		N05     Bn3   v127
	BYTE	W24
	BYTE		N19     An1   v100
	BYTE		N19     An2 
	BYTE		N23     An3   v127
	BYTE	W24
// 019   ----------------------------------------
	BYTE		N19     Gs1   v100
	BYTE		N19     Gs2 
	BYTE		N23     Gs3   v127
	BYTE	W24
	BYTE		N19     An1   v100
	BYTE		N19     An2 
	BYTE		N23     An3   v108
	BYTE	W24
	BYTE		N19     Bn1   v100
	BYTE		N19     Bn2 
	BYTE		N16     Bn3   v124
	BYTE	W24
	BYTE		N19     Gs1   v100
	BYTE		N19     Gs2 
	BYTE		N17     Gs3 
	BYTE	W24
// 020   ----------------------------------------
	BYTE		N04     Cs3 
	BYTE		N05     Cs4   v127
	BYTE	W06
	BYTE		N04     Dn3   v100
	BYTE		N05     Dn4   v124
	BYTE	W06
	BYTE		N04     En3   v100
	BYTE		N05     En4   v120
	BYTE	W06
	BYTE		N04     Dn3   v100
	BYTE		N05     Dn4   v112
	BYTE	W06
	BYTE		N09     Cs3   v100
	BYTE		N05     Cs4   v104
	BYTE	W12
	BYTE		N04     Cs3   v100
	BYTE		N05     Cs4   v127
	BYTE	W06
	BYTE		N04     Dn3   v100
	BYTE		N05     Dn4   v124
	BYTE	W06
	BYTE		N04     En3   v100
	BYTE		N05     En4   v116
	BYTE	W06
	BYTE		N04     Dn3   v100
	BYTE		N05     Dn4   v108
	BYTE	W06
	BYTE		N09     Cs3   v100
	BYTE		N05     Cs4 
	BYTE	W12
	BYTE		N04     Cs3 
	BYTE		N05     Cs4   v127
	BYTE	W06
	BYTE		N04     Dn3   v100
	BYTE		N05     Dn4   v124
	BYTE	W06
	BYTE		N04     En3   v100
	BYTE		N05     En4   v116
	BYTE	W06
	BYTE		N04     Dn3   v100
	BYTE		N05     Dn4   v108
	BYTE	W06
// 021   ----------------------------------------
	BYTE		N76     Cs2   v100
	BYTE		N76     Cs3 
	BYTE		N96     Cs4   v127
	BYTE	W96
// 022   ----------------------------------------
BattleFFL2_7_022:
	BYTE		N48     Dn3   v092
	BYTE	W48
	BYTE		        En3   v120
	BYTE	W48
	BYTE	PEND
// 023   ----------------------------------------
	BYTE		        An3   v127
	BYTE	W48
	BYTE		        Dn3   v100
	BYTE	W48
// 024   ----------------------------------------
	BYTE		N09     Bn1 
	BYTE		N09     Bn2 
	BYTE		N11     Bn3   v127
	BYTE	W12
	BYTE		N09     Cs3   v100
	BYTE		N11     Cs4   v120
	BYTE	W12
	BYTE		N09     Dn3   v100
	BYTE		N08     Dn4 
	BYTE	W12
	BYTE		N09     Bn3 
	BYTE	W12
	BYTE		N19     Cs2 
	BYTE		N19     Cs3 
	BYTE		N05     Cs4   v127
	BYTE	W24
	BYTE		N19     En2   v100
	BYTE		N19     En3 
	BYTE		N23     En4   v127
	BYTE	W24
// 025   ----------------------------------------
	BYTE		N28     Fs2   v100
	BYTE		N28     Fs3 
	BYTE		N36     Fs4   v127
	BYTE	W36
	BYTE		N04     Gs3   v100
	BYTE		N05     Gs4   v127
	BYTE	W06
	BYTE		N04     Fs3   v100
	BYTE		N05     Fs4   v116
	BYTE	W06
	BYTE		N19     Fn2   v100
	BYTE		N19     Fn3 
	BYTE		N06     Fn4   v127
	BYTE	W24
	BYTE		N19     Cs2   v100
	BYTE		N19     Cs3 
	BYTE		N23     Cs4   v127
	BYTE	W24
// 026   ----------------------------------------
	BYTE	PATT
	 POIN2	BattleFFL2_7_022
// 027   ----------------------------------------
	BYTE		N48     An3   v127
	BYTE	W48
	BYTE		        Dn3   v092
	BYTE	W48
// 028   ----------------------------------------
	BYTE		N24     Bn2   v080
	BYTE	W24
	BYTE		        Cs3   v100
	BYTE	W24
	BYTE		        Dn3   v104
	BYTE	W24
	BYTE		        En3   v124
	BYTE	W24
	BYTE	GoTo
	 POIN2	BattleFFL2_7_B1
BattleFFL2_7_B2:
// 029   ----------------------------------------
	BYTE	W96
// 030   ----------------------------------------
	BYTE	FINE

//**************** Track 8 (Midi-Chn.12) ****************//

BattleFFL2_8:
	BYTE	KEYSH   BattleFFL2_key+0
BattleFFL2_8_B1:
// 000   ----------------------------------------
	BYTE		VOICE   123
	BYTE		VOL     100*BattleFFL2_mvl/mxv
	BYTE		PAN     c_v+0
	BYTE		N09     Cn1   v127
	BYTE		N09     Cs2 
	BYTE	W12
	BYTE		        Cn1   v100
	BYTE	W12
	BYTE		        Dn1   v127
	BYTE	W12
	BYTE		        Cn1   v100
	BYTE	W12
	BYTE		N09   
	BYTE	W12
	BYTE		N09   
	BYTE	W12
	BYTE		        Dn1   v127
	BYTE	W12
	BYTE		        Cn1   v100
	BYTE	W12
// 001   ----------------------------------------
BattleFFL2_8_001:
	BYTE		N19     Cn1   v100
	BYTE	W24
	BYTE		N09     Dn1   v127
	BYTE	W12
	BYTE		        Cn1   v100
	BYTE	W24
	BYTE		N04   
	BYTE	W06
	BYTE		N04   
	BYTE	W06
	BYTE		N09     Dn1   v127
	BYTE	W24
	BYTE	PEND
// 002   ----------------------------------------
	BYTE		        Cn1   v100
	BYTE	W12
	BYTE		N09   
	BYTE	W12
	BYTE		        Dn1   v127
	BYTE	W12
	BYTE		        Cn1   v100
	BYTE	W12
	BYTE		N09   
	BYTE	W12
	BYTE		N09   
	BYTE	W12
	BYTE		        Dn1   v127
	BYTE	W12
	BYTE		        Cn1   v100
	BYTE	W12
// 003   ----------------------------------------
	BYTE	PATT
	 POIN2	BattleFFL2_8_001
// 004   ----------------------------------------
	BYTE		N09     Cn1   v127
	BYTE		N09     Cs2 
	BYTE	W12
	BYTE		        Cn1   v100
	BYTE	W12
	BYTE		        Dn1   v127
	BYTE	W24
	BYTE		        Cn1   v100
	BYTE	W12
	BYTE		        Dn1   v127
	BYTE	W36
// 005   ----------------------------------------
	BYTE		        Cn1 
	BYTE		N09     Cs2 
	BYTE	W12
	BYTE		        Cn1   v100
	BYTE	W12
	BYTE		        Dn1   v127
	BYTE	W24
	BYTE		N04     Cn1 
	BYTE		N04     Cs2 
	BYTE	W06
	BYTE		        Cn1   v100
	BYTE	W06
	BYTE		N09     Dn1   v127
	BYTE	W12
	BYTE		        Cn1 
	BYTE		N09     Cs2 
	BYTE	W12
	BYTE		        Dn1 
	BYTE	W12
// 006   ----------------------------------------
BattleFFL2_8_006:
	BYTE		N09     Cn1   v127
	BYTE		N09     Cs2 
	BYTE	W24
	BYTE		        Cn1   v100
	BYTE	W36
	BYTE		N09   
	BYTE	W12
	BYTE		        Dn1   v127
	BYTE	W24
	BYTE	PEND
// 007   ----------------------------------------
BattleFFL2_8_007:
	BYTE		N09     Cn1   v100
	BYTE	W12
	BYTE		N09   
	BYTE	W12
	BYTE		        Dn1   v127
	BYTE	W36
	BYTE		        Cn1   v100
	BYTE	W12
	BYTE		        Dn1   v127
	BYTE	W24
	BYTE	PEND
// 008   ----------------------------------------
	BYTE		        Cn1 
	BYTE		N09     Cs2 
	BYTE	W24
	BYTE		        Dn1 
	BYTE	W24
	BYTE		        Cn1   v100
	BYTE		N09     Cs2 
	BYTE	W12
	BYTE		        Dn1   v127
	BYTE	W36
// 009   ----------------------------------------
BattleFFL2_8_009:
	BYTE		N09     Cn1   v127
	BYTE		N09     Cs2 
	BYTE	W24
	BYTE		        Dn1 
	BYTE	W24
	BYTE		        Cn1 
	BYTE		N09     Cs2 
	BYTE	W12
	BYTE		        Dn1 
	BYTE	W12
	BYTE		        Cn1 
	BYTE		N09     Dn1 
	BYTE		N09     Cs2 
	BYTE	W12
	BYTE		        Dn1 
	BYTE	W12
	BYTE	PEND
// 010   ----------------------------------------
	BYTE	PATT
	 POIN2	BattleFFL2_8_006
// 011   ----------------------------------------
	BYTE	PATT
	 POIN2	BattleFFL2_8_007
// 012   ----------------------------------------
	BYTE		N09     Cn1   v127
	BYTE		N09     Cs2 
	BYTE	W24
	BYTE		        Dn1 
	BYTE	W24
	BYTE		        Cn1 
	BYTE		N09     Cs2 
	BYTE	W12
	BYTE		        Dn1 
	BYTE	W36
// 013   ----------------------------------------
	BYTE	PATT
	 POIN2	BattleFFL2_8_009
// 014   ----------------------------------------
	BYTE	PATT
	 POIN2	BattleFFL2_8_006
// 015   ----------------------------------------
	BYTE	PATT
	 POIN2	BattleFFL2_8_007
// 016   ----------------------------------------
	BYTE		N09     Cn1   v100
	BYTE	W24
	BYTE		N09   
	BYTE	W36
	BYTE		N09   
	BYTE	W12
	BYTE		        Dn1   v127
	BYTE	W24
// 017   ----------------------------------------
	BYTE	PATT
	 POIN2	BattleFFL2_8_007
// 018   ----------------------------------------
BattleFFL2_8_018:
	BYTE		N09     Dn1   v127
	BYTE		N09     Cs2 
	BYTE	W12
	BYTE		        Cn1   v100
	BYTE	W12
	BYTE		N09   
	BYTE	W12
	BYTE		        Dn1   v127
	BYTE	W12
	BYTE		        Cn1   v100
	BYTE	W12
	BYTE		N09   
	BYTE	W12
	BYTE		        Dn1   v127
	BYTE	W12
	BYTE		        Cn1   v100
	BYTE	W12
	BYTE	PEND
// 019   ----------------------------------------
	BYTE	PATT
	 POIN2	BattleFFL2_8_018
// 020   ----------------------------------------
	BYTE		N09     Dn1   v127
	BYTE		N09     Cs2 
	BYTE	W12
	BYTE		        Cn1   v100
	BYTE	W12
	BYTE		N09   
	BYTE	W12
	BYTE		        Dn1   v127
	BYTE		N09     Cs2 
	BYTE	W12
	BYTE		        Cn1   v100
	BYTE	W12
	BYTE		N09   
	BYTE	W12
	BYTE		        Dn1   v127
	BYTE		N09     Cs2 
	BYTE	W12
	BYTE		        Cn1   v100
	BYTE	W12
// 021   ----------------------------------------
	BYTE		        Cn1   v127
	BYTE		N09     Cs2 
	BYTE	W12
	BYTE		        Cn1   v100
	BYTE	W12
	BYTE		        Dn1   v127
	BYTE	W24
	BYTE		        Cn1   v100
	BYTE	W12
	BYTE		        Dn1   v127
	BYTE	W12
	BYTE		N09   
	BYTE	W12
	BYTE		N09   
	BYTE	W12
// 022   ----------------------------------------
	BYTE	PATT
	 POIN2	BattleFFL2_8_006
// 023   ----------------------------------------
	BYTE	PATT
	 POIN2	BattleFFL2_8_007
// 024   ----------------------------------------
	BYTE	PATT
	 POIN2	BattleFFL2_8_006
// 025   ----------------------------------------
	BYTE	PATT
	 POIN2	BattleFFL2_8_007
// 026   ----------------------------------------
	BYTE	PATT
	 POIN2	BattleFFL2_8_006
// 027   ----------------------------------------
	BYTE		N09     Cn1   v127
	BYTE		N09     Cs2 
	BYTE	W12
	BYTE		        Cn1   v100
	BYTE	W12
	BYTE		        Dn1   v127
	BYTE	W36
	BYTE		        Cn1   v100
	BYTE	W12
	BYTE		        Dn1   v127
	BYTE	W24
// 028   ----------------------------------------
	BYTE		        Cn1 
	BYTE		N09     Cs2 
	BYTE	W24
	BYTE		        Dn1 
	BYTE		N09     Cs2 
	BYTE	W24
	BYTE		        Cn1 
	BYTE		N09     Cs2 
	BYTE	W12
	BYTE		        Dn1 
	BYTE	W12
	BYTE		        Cn1 
	BYTE		N09     Dn1 
	BYTE		N09     Cs2 
	BYTE	W12
	BYTE		        Dn1 
	BYTE	W12
	BYTE	GoTo
	 POIN2	BattleFFL2_8_B1
BattleFFL2_8_B2:
// 029   ----------------------------------------
	BYTE		N09     Cn1   v127
	BYTE		N09     Cs2 
	BYTE	W12
	BYTE		        Cn1   v100
	BYTE	W12
	BYTE		        Dn1   v127
	BYTE	W12
	BYTE		        Cn1   v100
	BYTE	W12
	BYTE		N09   
	BYTE	W12
	BYTE		N09   
	BYTE	W12
	BYTE		        Dn1   v127
	BYTE	W12
	BYTE		        Cn1   v100
	BYTE	W12
// 030   ----------------------------------------
	BYTE	FINE

//**************** Track 9 (Midi-Chn.13) ****************//

BattleFFL2_9:
	BYTE	KEYSH   BattleFFL2_key+0
BattleFFL2_9_B1:
// 000   ----------------------------------------
	BYTE		VOICE   123
	BYTE		VOL     100*BattleFFL2_mvl/mxv
	BYTE		PAN     c_v+0
	BYTE		N09     Gs1   v100
	BYTE	W12
	BYTE		N09   
	BYTE	W12
	BYTE		N09   
	BYTE	W12
	BYTE		N09   
	BYTE	W12
	BYTE		N09   
	BYTE	W12
	BYTE		N09   
	BYTE	W12
	BYTE		N09   
	BYTE	W12
	BYTE		N09   
	BYTE	W12
// 001   ----------------------------------------
BattleFFL2_9_001:
	BYTE		N09     Gs1   v100
	BYTE	W12
	BYTE		N09   
	BYTE	W12
	BYTE		N09   
	BYTE	W12
	BYTE		N09   
	BYTE	W12
	BYTE		N04   
	BYTE	W06
	BYTE		        As1 
	BYTE	W06
	BYTE		        Gs1 
	BYTE	W06
	BYTE		        As1 
	BYTE	W06
	BYTE		        Gs1 
	BYTE	W06
	BYTE		        As1 
	BYTE	W06
	BYTE		        Gs1 
	BYTE	W06
	BYTE		        As1 
	BYTE	W06
	BYTE	PEND
// 002   ----------------------------------------
BattleFFL2_9_002:
	BYTE		N09     Gs1   v100
	BYTE	W12
	BYTE		N09   
	BYTE	W12
	BYTE		N09   
	BYTE	W12
	BYTE		N09   
	BYTE	W12
	BYTE		N09   
	BYTE	W12
	BYTE		N09   
	BYTE	W12
	BYTE		N09   
	BYTE	W12
	BYTE		N09   
	BYTE	W12
	BYTE	PEND
// 003   ----------------------------------------
	BYTE	PATT
	 POIN2	BattleFFL2_9_001
// 004   ----------------------------------------
	BYTE	PATT
	 POIN2	BattleFFL2_9_002
// 005   ----------------------------------------
	BYTE	PATT
	 POIN2	BattleFFL2_9_002
// 006   ----------------------------------------
BattleFFL2_9_006:
	BYTE		N09     Gs1   v100
	BYTE		N09     Ds2 
	BYTE	W12
	BYTE		        Gs1 
	BYTE	W12
	BYTE		N09   
	BYTE		N09     Ds2 
	BYTE	W12
	BYTE		        Gs1 
	BYTE	W12
	BYTE		N09   
	BYTE		N09     Ds2 
	BYTE	W12
	BYTE		        Gs1 
	BYTE	W12
	BYTE		N09   
	BYTE		N09     Ds2 
	BYTE	W12
	BYTE		        Gs1 
	BYTE	W12
	BYTE	PEND
// 007   ----------------------------------------
	BYTE	PATT
	 POIN2	BattleFFL2_9_006
// 008   ----------------------------------------
	BYTE	PATT
	 POIN2	BattleFFL2_9_002
// 009   ----------------------------------------
	BYTE	PATT
	 POIN2	BattleFFL2_9_002
// 010   ----------------------------------------
	BYTE	PATT
	 POIN2	BattleFFL2_9_006
// 011   ----------------------------------------
	BYTE	PATT
	 POIN2	BattleFFL2_9_006
// 012   ----------------------------------------
	BYTE	PATT
	 POIN2	BattleFFL2_9_002
// 013   ----------------------------------------
	BYTE	PATT
	 POIN2	BattleFFL2_9_002
// 014   ----------------------------------------
	BYTE	PATT
	 POIN2	BattleFFL2_9_006
// 015   ----------------------------------------
	BYTE	PATT
	 POIN2	BattleFFL2_9_006
// 016   ----------------------------------------
	BYTE	PATT
	 POIN2	BattleFFL2_9_006
// 017   ----------------------------------------
	BYTE	PATT
	 POIN2	BattleFFL2_9_006
// 018   ----------------------------------------
BattleFFL2_9_018:
	BYTE		N04     Ds2   v100
	BYTE	W06
	BYTE		N04   
	BYTE	W06
	BYTE		N04   
	BYTE	W06
	BYTE		N04   
	BYTE	W06
	BYTE		N09     Gs1 
	BYTE	W12
	BYTE		N04     Ds2 
	BYTE	W06
	BYTE		N04   
	BYTE	W06
	BYTE		N04   
	BYTE	W06
	BYTE		N04   
	BYTE	W06
	BYTE		N09     Fs1 
	BYTE	W12
	BYTE		N04     Ds2 
	BYTE	W06
	BYTE		N04   
	BYTE	W06
	BYTE		N09     Fs1 
	BYTE	W12
	BYTE	PEND
// 019   ----------------------------------------
	BYTE	PATT
	 POIN2	BattleFFL2_9_018
// 020   ----------------------------------------
	BYTE		N04     Ds2   v100
	BYTE	W06
	BYTE		N04   
	BYTE	W06
	BYTE		N04   
	BYTE	W06
	BYTE		N04   
	BYTE	W06
	BYTE		N09     Gs1 
	BYTE	W12
	BYTE		N04     Ds2 
	BYTE	W06
	BYTE		N04   
	BYTE	W06
	BYTE		N04   
	BYTE	W06
	BYTE		N04   
	BYTE	W06
	BYTE		N09     Gs1 
	BYTE	W12
	BYTE		N04     Ds2 
	BYTE	W06
	BYTE		N04   
	BYTE	W06
	BYTE		N04   
	BYTE	W06
	BYTE		N04   
	BYTE	W06
// 021   ----------------------------------------
	BYTE	PATT
	 POIN2	BattleFFL2_9_002
// 022   ----------------------------------------
	BYTE	PATT
	 POIN2	BattleFFL2_9_006
// 023   ----------------------------------------
	BYTE	PATT
	 POIN2	BattleFFL2_9_006
// 024   ----------------------------------------
BattleFFL2_9_024:
	BYTE		N09     Gs1   v100
	BYTE		N09     Bn2 
	BYTE	W12
	BYTE		        Gs1 
	BYTE		N09     Bn2 
	BYTE	W12
	BYTE		        Gs1 
	BYTE		N09     Bn2 
	BYTE	W12
	BYTE		        Gs1 
	BYTE		N09     Bn2 
	BYTE	W12
	BYTE		        Gs1 
	BYTE		N09     Bn2 
	BYTE	W12
	BYTE		        Gs1 
	BYTE		N09     Bn2 
	BYTE	W12
	BYTE		        Gs1 
	BYTE		N09     Bn2 
	BYTE	W12
	BYTE		        Gs1 
	BYTE		N09     Bn2 
	BYTE	W12
	BYTE	PEND
// 025   ----------------------------------------
	BYTE	PATT
	 POIN2	BattleFFL2_9_024
// 026   ----------------------------------------
	BYTE	PATT
	 POIN2	BattleFFL2_9_006
// 027   ----------------------------------------
	BYTE	PATT
	 POIN2	BattleFFL2_9_006
// 028   ----------------------------------------
	BYTE	PATT
	 POIN2	BattleFFL2_9_001
	BYTE	GoTo
	 POIN2	BattleFFL2_9_B1
BattleFFL2_9_B2:
// 029   ----------------------------------------
	BYTE	PATT
	 POIN2	BattleFFL2_9_002
// 030   ----------------------------------------
	BYTE	FINE

//******************************************************//
	ALIGN 4

BattleFFL2:
	BYTE	9	// NumTrks
	BYTE	0	// NumBlks
	BYTE	BattleFFL2_pri	// Priority
	BYTE	BattleFFL2_rev	// Reverb.

	POIN2	BattleFFL2_grp

	POIN2	BattleFFL2_1
	POIN2	BattleFFL2_2
	POIN2	BattleFFL2_3
	POIN2	BattleFFL2_4
	POIN2	BattleFFL2_5
	POIN2	BattleFFL2_6
	POIN2	BattleFFL2_7
	POIN2	BattleFFL2_8
	POIN2	BattleFFL2_9

	
