//Event file generated from Sappy .s format.
	#include "MPlayDef.event"

	#define	Battle1Elona_grp  voicegroup000
	#define	Battle1Elona_pri  0
	#define	Battle1Elona_rev  0
	#define	Battle1Elona_mvl  45
	#define	Battle1Elona_key  0
	#define	Battle1Elona_tbs  1
	#define	Battle1Elona_exg  0
	#define	Battle1Elona_cmp  1

	// .rodata
	//	Battle1Elona
	ALIGN 4

//**************** Track 1 (Midi-Chn.1) ****************//

Battle1Elona_1:
	BYTE	KEYSH   Battle1Elona_key+0
Battle1Elona_1_B1:
// 000   ----------------------------------------
	BYTE	TEMPO   154*Battle1Elona_tbs/2
	BYTE		VOICE   56
	BYTE		PAN     c_v+0
	BYTE		VOL     120*Battle1Elona_mvl/mxv
	BYTE		N06     Cn3   v116
	BYTE	W06
	BYTE		        Dn3 
	BYTE	W06
	BYTE		        Ds3   v112
	BYTE	W06
	BYTE		N05     Fn3   v108
	BYTE	W05
	BYTE	W01
	BYTE		N10     Ds3   v112
	BYTE		N10     Gn3 
	BYTE	W12
	BYTE		        En3 
	BYTE		N10     Cn4 
	BYTE	W12
	BYTE		        Gn3 
	BYTE		N10     Dn4 
	BYTE	W12
	BYTE		        Gs3 
	BYTE		N10     Gn4 
	BYTE	W12
	BYTE		        Gn3 
	BYTE		N10     Fn4 
	BYTE	W12
	BYTE		        Fn3 
	BYTE		N10     Cn4 
	BYTE	W12
// 001   ----------------------------------------
Battle1Elona_1_001:
	BYTE	W12
	BYTE		N10     Ds3   v112
	BYTE		N10     Gn3 
	BYTE	W12
	BYTE		        En3 
	BYTE		N10     Cn4 
	BYTE	W12
	BYTE		        Gs3 
	BYTE		N10     Gn4 
	BYTE	W12
	BYTE		        Gn3 
	BYTE		N10     Fn4 
	BYTE	W12
	BYTE		        Fn3 
	BYTE		N10     Cn4 
	BYTE	W24
	BYTE		        Ds3 
	BYTE		N10     Gn3 
	BYTE	W12
	BYTE	PEND
// 002   ----------------------------------------
Battle1Elona_1_002:
	BYTE		N10     En3   v112
	BYTE		N10     Cn4 
	BYTE	W12
	BYTE		        Gs3 
	BYTE		N10     Gn4 
	BYTE	W12
	BYTE		        Gn3 
	BYTE		N10     Fn4 
	BYTE	W12
	BYTE		        Fn3 
	BYTE		N10     Cn4 
	BYTE	W12
	BYTE		        Ds3 
	BYTE		N10     Dn4 
	BYTE	W12
	BYTE		        Fn3 
	BYTE		N10     Ds4 
	BYTE	W12
	BYTE		        Gn3 
	BYTE		N10     Fn4 
	BYTE	W12
	BYTE		        As3 
	BYTE		N10     Ds4 
	BYTE	W12
	BYTE	PEND
// 003   ----------------------------------------
	BYTE		        Gn3 
	BYTE		N10     Fn4 
	BYTE	W12
	BYTE		        Fn3 
	BYTE		N10     Gn4 
	BYTE	W12
	BYTE		N96     Fn3 
	BYTE		N96     Gs4 
	BYTE	W72
// 004   ----------------------------------------
	BYTE	W24
	BYTE		N68     Gn3 
	BYTE		N68     Gn4 
	BYTE	W72
// 005   ----------------------------------------
	BYTE		N06     Cn3   v116
	BYTE	W06
	BYTE		        Dn3 
	BYTE	W06
	BYTE		        Ds3   v112
	BYTE	W06
	BYTE		N05     Fn3   v108
	BYTE	W06
	BYTE		N10     Ds3   v112
	BYTE		N10     Gn3 
	BYTE	W12
	BYTE		        En3 
	BYTE		N10     Cn4 
	BYTE	W12
	BYTE		        Gn3 
	BYTE		N10     Dn4 
	BYTE	W12
	BYTE		        Gs3 
	BYTE		N10     Gn4 
	BYTE	W12
	BYTE		        Gn3 
	BYTE		N10     Fn4 
	BYTE	W12
	BYTE		        Fn3 
	BYTE		N10     Cn4 
	BYTE	W12
// 006   ----------------------------------------
	BYTE	PATT
	 POIN2	Battle1Elona_1_001
// 007   ----------------------------------------
	BYTE	PATT
	 POIN2	Battle1Elona_1_002
// 008   ----------------------------------------
	BYTE		N10     Gn3   v112
	BYTE		N10     Fn4 
	BYTE	W12
	BYTE		        Fn3 
	BYTE		N10     Gn4 
	BYTE	W12
	BYTE		N96     Fn3   v116
	BYTE		N96     Gs4 
	BYTE	W01
	BYTE	W05
	BYTE	W03
	BYTE	W01
	BYTE	W02
	BYTE	W01
	BYTE	W02
	BYTE	W01
	BYTE	W02
	BYTE	W01
	BYTE	W02
	BYTE	W01
	BYTE	W06
	BYTE	W08
	BYTE	W04
	BYTE	W06
	BYTE	W05
	BYTE	W03
	BYTE	W04
	BYTE	W03
	BYTE	W03
	BYTE	W03
	BYTE	W03
	BYTE	W02
// 009   ----------------------------------------
	BYTE	W01
	BYTE	W03
	BYTE	W03
	BYTE	W03
	BYTE	W02
	BYTE	W12
	BYTE		        Fs3   v120
	BYTE		N96     An4 
	BYTE	W01
	BYTE	W05
	BYTE	W03
	BYTE	W01
	BYTE	W02
	BYTE	W01
	BYTE	W02
	BYTE	W01
	BYTE	W02
	BYTE	W01
	BYTE	W02
	BYTE	W01
	BYTE	W06
	BYTE	W08
	BYTE	W04
	BYTE	W06
	BYTE	W05
	BYTE	W03
	BYTE	W04
	BYTE	W03
	BYTE	W03
	BYTE	W03
	BYTE	W03
	BYTE	W02
// 010   ----------------------------------------
	BYTE	W01
	BYTE	W03
	BYTE	W03
	BYTE	W03
	BYTE	W02
	BYTE	W12
	BYTE		N12     Dn4 
	BYTE		N10     As4 
	BYTE	W24
	BYTE		N24     Cn3   v112
	BYTE	W24
	BYTE		N16     Ds3 
	BYTE	W16
	BYTE		        Gn3 
	BYTE	W08
// 011   ----------------------------------------
	BYTE	W08
	BYTE		        Cn4 
	BYTE	W16
	BYTE		N12     Bn3 
	BYTE	W12
	BYTE		        Gn3 
	BYTE	W12
	BYTE		N72     Ds3 
	BYTE	W48
// 012   ----------------------------------------
	BYTE	W48
	BYTE		N24     Cn3 
	BYTE	W24
	BYTE		N16     Ds3 
	BYTE	W16
	BYTE		        Gn3 
	BYTE	W08
// 013   ----------------------------------------
	BYTE	W08
	BYTE		        Cn4 
	BYTE	W16
	BYTE		N12     Bn3 
	BYTE	W12
	BYTE		        Cn4 
	BYTE	W12
	BYTE		N72     Dn4 
	BYTE	W48
// 014   ----------------------------------------
	BYTE	W48
	BYTE		N24     Cn4 
	BYTE	W24
	BYTE		N16     Bn3 
	BYTE	W16
	BYTE		        Gn3 
	BYTE	W08
// 015   ----------------------------------------
	BYTE	W08
	BYTE		        Ds3 
	BYTE	W16
	BYTE		N72     Dn3 
	BYTE	W72
// 016   ----------------------------------------
	BYTE	W12
	BYTE		N06     Cn3 
	BYTE	W06
	BYTE		N05     Dn3   v108
	BYTE	W06
	BYTE		N48     Ds3   v112
	BYTE	W48
	BYTE		        Fn3 
	BYTE	W24
// 017   ----------------------------------------
	BYTE	W24
	BYTE		        Gn3   v116
	BYTE	W48
	BYTE		N24     Gs3 
	BYTE	W24
// 018   ----------------------------------------
	BYTE		N23     Bn3   v120
	BYTE	W48
	BYTE		N24     Cn3   v112
	BYTE	W24
	BYTE		N16     Ds3 
	BYTE	W16
	BYTE		        Gn3 
	BYTE	W08
// 019   ----------------------------------------
	BYTE	W08
	BYTE		        Cn4 
	BYTE	W16
	BYTE		N12     Bn3 
	BYTE	W12
	BYTE		        Cn4 
	BYTE	W12
	BYTE		N72     Ds3 
	BYTE	W48
// 020   ----------------------------------------
	BYTE	W48
	BYTE		N24     Cn3 
	BYTE	W24
	BYTE		N16     Ds3 
	BYTE	W16
	BYTE		        Cn4 
	BYTE	W08
// 021   ----------------------------------------
	BYTE	W08
	BYTE		        Gn3 
	BYTE	W16
	BYTE		N12     Bn3 
	BYTE	W12
	BYTE		        Cn4 
	BYTE	W12
	BYTE		N72     Dn4 
	BYTE	W48
// 022   ----------------------------------------
	BYTE	W48
	BYTE		N24     Cn4 
	BYTE	W24
	BYTE		N16     Bn3 
	BYTE	W16
	BYTE		        Cn4 
	BYTE	W08
// 023   ----------------------------------------
	BYTE	W08
	BYTE		        Dn4 
	BYTE	W16
	BYTE		N72     Ds4 
	BYTE	W72
// 024   ----------------------------------------
	BYTE	W12
	BYTE		N06     Cn4 
	BYTE	W06
	BYTE		N05     Dn4   v108
	BYTE	W06
	BYTE		N48     Ds4   v112
	BYTE	W48
	BYTE		        Fn4 
	BYTE	W24
// 025   ----------------------------------------
	BYTE	W24
	BYTE		        Fs4   v116
	BYTE	W48
	BYTE		        Gs4   v120
	BYTE	W24
// 026   ----------------------------------------
	BYTE	W24
	BYTE		N05     Fs4 
	BYTE		N05     An4 
	BYTE	W06
	BYTE		        Fs4 
	BYTE		N05     An4 
	BYTE	W06
	BYTE		        Fs4 
	BYTE		N05     An4 
	BYTE	W06
	BYTE		        Fs4 
	BYTE		N05     An4 
	BYTE	W06
	BYTE	TEMPO   150*Battle1Elona_tbs/2
	BYTE		N10     Fs4 
	BYTE		N10     An4 
	BYTE	W48
// 027   ----------------------------------------
	BYTE	W24
	BYTE	TEMPO   154*Battle1Elona_tbs/2
	BYTE	W72
// 028   ----------------------------------------
	BYTE	W24
	BYTE		N05     Fs4 
	BYTE		N05     An4 
	BYTE	W06
	BYTE		        Fs4 
	BYTE		N05     An4 
	BYTE	W06
	BYTE		        Fs4 
	BYTE		N05     An4 
	BYTE	W06
	BYTE		        Fs4 
	BYTE		N05     An4 
	BYTE	W06
	BYTE	TEMPO   148*Battle1Elona_tbs/2
	BYTE		N10     Fs4 
	BYTE		N10     An4 
	BYTE	W48
// 029   ----------------------------------------
	BYTE	TEMPO   150*Battle1Elona_tbs/2
	BYTE	W24
	BYTE	TEMPO   154*Battle1Elona_tbs/2
	BYTE	W72
// 030   ----------------------------------------
	BYTE	W24
	BYTE		N36     Gn3   v112
	BYTE		N36     Ds4 
	BYTE	W36
	BYTE		N12     Gs3 
	BYTE		N12     Fn4 
	BYTE	W24
	BYTE		        Fn3 
	BYTE		N12     Dn4 
	BYTE	W12
// 031   ----------------------------------------
Battle1Elona_1_031:
	BYTE	W12
	BYTE		N12     Gn3   v112
	BYTE		N12     Ds4 
	BYTE	W24
	BYTE		        Ds3 
	BYTE		N12     Cn4 
	BYTE	W24
	BYTE		        Fn3 
	BYTE		N12     Dn4 
	BYTE	W12
	BYTE		N24     Dn3 
	BYTE		N24     Gn3 
	BYTE	W24
	BYTE	PEND
// 032   ----------------------------------------
Battle1Elona_1_032:
	BYTE		N12     Ds3   v112
	BYTE		N12     Gs3 
	BYTE	W12
	BYTE		        Fn3 
	BYTE		N12     As3 
	BYTE	W12
	BYTE		N36     Gn3 
	BYTE		N36     Ds4 
	BYTE	W36
	BYTE		N12     Gs3 
	BYTE		N12     Fn4 
	BYTE	W24
	BYTE		        Fn3 
	BYTE		N12     Dn4 
	BYTE	W12
	BYTE	PEND
// 033   ----------------------------------------
	BYTE	W12
	BYTE		        Gn3 
	BYTE		N12     Ds4 
	BYTE	W12
	BYTE		N24     Cn4 
	BYTE		N24     Gn4 
	BYTE	W24
	BYTE		        As3 
	BYTE		N24     Fn4 
	BYTE	W24
	BYTE		        Gn3 
	BYTE		N24     Dn4 
	BYTE	W24
// 034   ----------------------------------------
	BYTE		        Dn3 
	BYTE		N24     As3 
	BYTE	W24
	BYTE		N36     Gn3 
	BYTE		N36     Ds4 
	BYTE	W36
	BYTE		N12     Gs3 
	BYTE		N12     Fn4 
	BYTE	W24
	BYTE		        Fn3 
	BYTE		N12     Dn4 
	BYTE	W12
// 035   ----------------------------------------
	BYTE	PATT
	 POIN2	Battle1Elona_1_031
// 036   ----------------------------------------
	BYTE	PATT
	 POIN2	Battle1Elona_1_032
// 037   ----------------------------------------
	BYTE	W12
	BYTE		N12     Gn3   v112
	BYTE		N12     Ds4 
	BYTE	W12
	BYTE		N24     Gs3 
	BYTE		N24     Fn4 
	BYTE	W24
	BYTE		        An3 
	BYTE		N24     Fs4 
	BYTE	W24
	BYTE		        As3   v116
	BYTE		N24     Gn4 
	BYTE	W24
// 038   ----------------------------------------
	BYTE		        Bn3   v120
	BYTE		N24     Gs4 
	BYTE	W24
	BYTE	TEMPO   152*Battle1Elona_tbs/2
	BYTE		N10     Cn4 
	BYTE		N10     An4 
	BYTE	W12
	BYTE		        Cn4 
	BYTE		N10     An4 
	BYTE	W60
// 039   ----------------------------------------
	BYTE		        Cn4 
	BYTE		N10     An4 
	BYTE	W12
	BYTE		        Cn4 
	BYTE		N10     An4 
	BYTE	W60
	BYTE		        Cn4 
	BYTE		N10     An4 
	BYTE	W12
	BYTE		        Cn4 
	BYTE		N10     An4 
	BYTE	W12
// 040   ----------------------------------------
	BYTE	W48
	BYTE		        Cn4 
	BYTE		N10     An4 
	BYTE	W12
	BYTE		        Cn4 
	BYTE		N10     An4 
	BYTE	W36
// 041   ----------------------------------------
	BYTE	W24
	BYTE		        Cs4 
	BYTE		N10     As4 
	BYTE	W12
	BYTE		        Cs4 
	BYTE		N10     As4 
	BYTE	W60
// 042   ----------------------------------------
	BYTE		        Cs4 
	BYTE		N10     As4 
	BYTE	W12
	BYTE		        Cs4 
	BYTE		N10     As4 
	BYTE	W60
	BYTE		        Cs4 
	BYTE		N10     As4 
	BYTE	W12
	BYTE		        Cs4 
	BYTE		N10     As4 
	BYTE	W12
// 043   ----------------------------------------
	BYTE	W48
	BYTE		        Cs4 
	BYTE		N10     As4 
	BYTE	W12
	BYTE		        Cs4 
	BYTE		N10     As4 
	BYTE	W12
	BYTE	TEMPO   154*Battle1Elona_tbs/2
	BYTE	W06
	BYTE	TEMPO   152*Battle1Elona_tbs/2
	BYTE	W06
	BYTE	TEMPO   150*Battle1Elona_tbs/2
	BYTE	W06
	BYTE	TEMPO   148*Battle1Elona_tbs/2
	BYTE	W06
// 044   ----------------------------------------
	BYTE	TEMPO   152*Battle1Elona_tbs/2
	BYTE		N06     En3   v116
	BYTE	W06
	BYTE		        Fs3 
	BYTE	W06
	BYTE		        Gn3   v112
	BYTE	W06
	BYTE		N05     An3   v108
	BYTE	W06
	BYTE	TEMPO   154*Battle1Elona_tbs/2
	BYTE		N24     Bn3   v112
	BYTE	W24
	BYTE		N12     Fs3 
	BYTE	W12
	BYTE		N11     Bn3 
	BYTE	W24
	BYTE		N12   
	BYTE	W12
// 045   ----------------------------------------
Battle1Elona_1_045:
	BYTE		N24     Gn3   v112
	BYTE	W24
	BYTE		N12     An3 
	BYTE	W12
	BYTE		        Bn3 
	BYTE	W12
	BYTE		N24     Fs3 
	BYTE	W24
	BYTE		N12     Gn3 
	BYTE	W12
	BYTE		        An3 
	BYTE	W12
	BYTE	PEND
// 046   ----------------------------------------
	BYTE		        Bn3 
	BYTE	W12
	BYTE		        Cn4 
	BYTE	W12
	BYTE		N24     Fs3 
	BYTE	W24
	BYTE		        Cn4 
	BYTE	W24
	BYTE		N12     Gn3 
	BYTE	W12
	BYTE		N11     Cn4 
	BYTE	W12
// 047   ----------------------------------------
	BYTE	W12
	BYTE		N12   
	BYTE	W12
	BYTE		N24     Gn3 
	BYTE	W24
	BYTE		        Gs3 
	BYTE	W24
	BYTE		        An3 
	BYTE	W24
// 048   ----------------------------------------
	BYTE		        As3 
	BYTE	W24
	BYTE		        Bn3 
	BYTE	W24
	BYTE		N12     Fs3 
	BYTE	W12
	BYTE		N11     Bn3 
	BYTE	W24
	BYTE		N12   
	BYTE	W12
// 049   ----------------------------------------
	BYTE	PATT
	 POIN2	Battle1Elona_1_045
// 050   ----------------------------------------
	BYTE		N12     Bn3   v112
	BYTE	W12
	BYTE		        Cn4 
	BYTE	W12
	BYTE	TEMPO   153*Battle1Elona_tbs/2
	BYTE		N24     Dn4 
	BYTE	W24
	BYTE		        Cs4 
	BYTE	W24
	BYTE		        Cn4 
	BYTE	W24
// 051   ----------------------------------------
	BYTE		        Bn3 
	BYTE	W24
	BYTE		        As3 
	BYTE	W24
	BYTE		        An3 
	BYTE	W24
	BYTE		        Gs3 
	BYTE	W24
// 052   ----------------------------------------
	BYTE		        Gn3 
	BYTE	W24
	BYTE		        Fs3 
	BYTE	W24
	BYTE		        Fn3 
	BYTE	W24
	BYTE		        En3 
	BYTE	W24
// 053   ----------------------------------------
	BYTE		        Ds3 
	BYTE	W24
	BYTE		        Dn3 
	BYTE	W24
	BYTE		        Cs3 
	BYTE	W24
	BYTE		        Cn3 
	BYTE	W24
// 054   ----------------------------------------
	BYTE		        Bn2 
	BYTE	W24
	BYTE	TEMPO   154*Battle1Elona_tbs/2
	BYTE		N96     As2 
	BYTE	W72
// 055   ----------------------------------------
	BYTE	W24
	BYTE		        An2 
	BYTE	W72
// 056   ----------------------------------------
	BYTE	W24
	BYTE		TIE     Gn2 
	BYTE	W72
// 057   ----------------------------------------
	BYTE	W92
	BYTE	W02
	BYTE		EOT   
	BYTE	W02
	BYTE	GoTo
	 POIN2	Battle1Elona_1_B1
Battle1Elona_1_B2:
// 058   ----------------------------------------
	BYTE		N06     Cn3   v116
	BYTE	W06
	BYTE		        Dn3 
	BYTE	W06
	BYTE		        Ds3   v112
	BYTE	W06
	BYTE		N05     Fn3   v108
	BYTE	W06
	BYTE		MOD     0
	BYTE	FINE

//**************** Track 2 (Midi-Chn.2) ****************//

Battle1Elona_2:
	BYTE	KEYSH   Battle1Elona_key+0
Battle1Elona_2_B1:
// 000   ----------------------------------------
	BYTE		VOICE   60
	BYTE		PAN     c_v+0
	BYTE		VOL     105*Battle1Elona_mvl/mxv
	BYTE		N06     Cn3   v116
	BYTE	W06
	BYTE		        Dn3 
	BYTE	W06
	BYTE		        Ds3   v112
	BYTE	W06
	BYTE		N05     Fn3   v108
	BYTE	W06
	BYTE		N10     Gn3   v112
	BYTE	W12
	BYTE		        Cn4 
	BYTE	W12
	BYTE		        Dn4 
	BYTE	W12
	BYTE		        Gn4 
	BYTE	W12
	BYTE		        Fn4 
	BYTE	W12
	BYTE		        Cn4 
	BYTE	W12
// 001   ----------------------------------------
Battle1Elona_2_001:
	BYTE	W12
	BYTE		N10     Gn3   v112
	BYTE	W12
	BYTE		        Cn4 
	BYTE	W12
	BYTE		        Gn4 
	BYTE	W12
	BYTE		        Fn4 
	BYTE	W12
	BYTE		        Cn4 
	BYTE	W24
	BYTE		        Gn3 
	BYTE	W12
	BYTE	PEND
// 002   ----------------------------------------
Battle1Elona_2_002:
	BYTE		N10     Cn4   v112
	BYTE	W12
	BYTE		        Gn4 
	BYTE	W12
	BYTE		        Fn4 
	BYTE	W12
	BYTE		        Cn4 
	BYTE	W12
	BYTE		        Dn4 
	BYTE	W12
	BYTE		        Ds4 
	BYTE	W12
	BYTE		        Fn4 
	BYTE	W12
	BYTE		        Ds4 
	BYTE	W12
	BYTE	PEND
// 003   ----------------------------------------
	BYTE		        Fn4 
	BYTE	W12
	BYTE		        Gn4 
	BYTE	W12
	BYTE		N96     Gs4 
	BYTE	W72
// 004   ----------------------------------------
	BYTE	W24
	BYTE		N68     Gn4 
	BYTE	W72
// 005   ----------------------------------------
	BYTE		N06     Cn3   v116
	BYTE	W06
	BYTE		        Dn3 
	BYTE	W06
	BYTE		        Ds3   v112
	BYTE	W06
	BYTE		N05     Fn3   v108
	BYTE	W06
	BYTE		N10     Gn3   v112
	BYTE	W12
	BYTE		        Cn4 
	BYTE	W12
	BYTE		        Dn4 
	BYTE	W12
	BYTE		        Gn4 
	BYTE	W12
	BYTE		        Fn4 
	BYTE	W12
	BYTE		        Cn4 
	BYTE	W12
// 006   ----------------------------------------
	BYTE	PATT
	 POIN2	Battle1Elona_2_001
// 007   ----------------------------------------
	BYTE	PATT
	 POIN2	Battle1Elona_2_002
// 008   ----------------------------------------
	BYTE		N10     Fn4   v112
	BYTE	W12
	BYTE		        Gn4 
	BYTE	W12
	BYTE		N96     Gs4   v116
	BYTE	W01
	BYTE	W05
	BYTE	W03
	BYTE	W01
	BYTE	W02
	BYTE	W01
	BYTE	W02
	BYTE	W01
	BYTE	W02
	BYTE	W01
	BYTE	W02
	BYTE	W01
	BYTE	W06
	BYTE	W08
	BYTE	W04
	BYTE	W06
	BYTE	W05
	BYTE	W03
	BYTE	W04
	BYTE	W03
	BYTE	W03
	BYTE	W03
	BYTE	W03
	BYTE	W02
// 009   ----------------------------------------
	BYTE	W01
	BYTE	W03
	BYTE	W03
	BYTE	W03
	BYTE	W02
	BYTE	W12
	BYTE		        An4   v120
	BYTE	W01
	BYTE	W05
	BYTE	W03
	BYTE	W01
	BYTE	W02
	BYTE	W01
	BYTE	W02
	BYTE	W01
	BYTE	W02
	BYTE	W01
	BYTE	W02
	BYTE	W01
	BYTE	W06
	BYTE	W08
	BYTE	W04
	BYTE	W06
	BYTE	W05
	BYTE	W03
	BYTE	W04
	BYTE	W03
	BYTE	W03
	BYTE	W03
	BYTE	W03
	BYTE	W02
// 010   ----------------------------------------
	BYTE	W01
	BYTE	W03
	BYTE	W03
	BYTE	W03
	BYTE	W02
	BYTE	W12
	BYTE		N10     As4 
	BYTE	W24
	BYTE		N24     Cn3   v112
	BYTE	W24
	BYTE		N16     Ds3 
	BYTE	W16
	BYTE		        Gn3 
	BYTE	W08
// 011   ----------------------------------------
	BYTE	W08
	BYTE		        Cn4 
	BYTE	W16
	BYTE		N12     Bn3 
	BYTE	W12
	BYTE		        Gn3 
	BYTE	W12
	BYTE		N72     Ds3 
	BYTE	W48
// 012   ----------------------------------------
	BYTE	W48
	BYTE		N24     Cn3 
	BYTE	W24
	BYTE		N16     Ds3 
	BYTE	W16
	BYTE		        Gn3 
	BYTE	W08
// 013   ----------------------------------------
	BYTE	W08
	BYTE		        Cn4 
	BYTE	W16
	BYTE		N12     Bn3 
	BYTE	W12
	BYTE		        Cn4 
	BYTE	W12
	BYTE		N72     Dn4 
	BYTE	W48
// 014   ----------------------------------------
	BYTE	W48
	BYTE		N24     Cn4 
	BYTE	W24
	BYTE		N16     Bn3 
	BYTE	W16
	BYTE		        Gn3 
	BYTE	W08
// 015   ----------------------------------------
	BYTE	W08
	BYTE		        Ds3 
	BYTE	W16
	BYTE		N72     Dn3 
	BYTE	W72
// 016   ----------------------------------------
	BYTE	W12
	BYTE		N06     Cn3 
	BYTE	W06
	BYTE		N05     Dn3   v108
	BYTE	W06
	BYTE		N48     Ds3   v112
	BYTE	W48
	BYTE		        Fn3 
	BYTE	W24
// 017   ----------------------------------------
	BYTE	W24
	BYTE		        Gn3   v116
	BYTE	W48
	BYTE		N24     Gs3 
	BYTE	W24
// 018   ----------------------------------------
	BYTE		N23     Bn3   v120
	BYTE	W48
	BYTE		N24     Cn3   v112
	BYTE	W24
	BYTE		N16     Ds3 
	BYTE	W16
	BYTE		        Gn3 
	BYTE	W08
// 019   ----------------------------------------
	BYTE	W08
	BYTE		        Cn4 
	BYTE	W16
	BYTE		N12     Bn3 
	BYTE	W12
	BYTE		        Cn4 
	BYTE	W12
	BYTE		N72     Ds3 
	BYTE	W48
// 020   ----------------------------------------
	BYTE	W48
	BYTE		N24     Cn3 
	BYTE	W24
	BYTE		N16     Ds3 
	BYTE	W16
	BYTE		        Cn4 
	BYTE	W08
// 021   ----------------------------------------
	BYTE	W08
	BYTE		        Gn3 
	BYTE	W16
	BYTE		N12     Bn3 
	BYTE	W12
	BYTE		        Cn4 
	BYTE	W12
	BYTE		N72     Dn4 
	BYTE	W48
// 022   ----------------------------------------
	BYTE	W48
	BYTE		N24     Cn4 
	BYTE	W24
	BYTE		N16     Bn3 
	BYTE	W16
	BYTE		        Cn4 
	BYTE	W08
// 023   ----------------------------------------
	BYTE	W08
	BYTE		        Dn4 
	BYTE	W16
	BYTE		N72     Ds4 
	BYTE	W72
// 024   ----------------------------------------
	BYTE	W12
	BYTE		N06     Cn4 
	BYTE	W06
	BYTE		N05     Dn4   v108
	BYTE	W06
	BYTE		N48     Ds4   v112
	BYTE	W48
	BYTE		        Fn4 
	BYTE	W24
// 025   ----------------------------------------
	BYTE	W24
	BYTE		        Fs4   v116
	BYTE	W48
	BYTE		        Gs4   v120
	BYTE	W24
// 026   ----------------------------------------
	BYTE	W24
	BYTE		N05     An4 
	BYTE	W06
	BYTE		N05   
	BYTE	W06
	BYTE		N05   
	BYTE	W06
	BYTE		N05   
	BYTE	W06
	BYTE		N10   
	BYTE	W48
// 027   ----------------------------------------
	BYTE	W96
// 028   ----------------------------------------
	BYTE	W24
	BYTE		N05   
	BYTE	W06
	BYTE		N06   
	BYTE	W06
	BYTE		N06   
	BYTE	W06
	BYTE		N05   
	BYTE	W06
	BYTE		N10   
	BYTE	W48
// 029   ----------------------------------------
	BYTE	W96
// 030   ----------------------------------------
	BYTE	W24
	BYTE		N36     Ds4   v112
	BYTE	W36
	BYTE		N12     Fn4 
	BYTE	W24
	BYTE		        Dn4 
	BYTE	W12
// 031   ----------------------------------------
Battle1Elona_2_031:
	BYTE	W12
	BYTE		N12     Ds4   v112
	BYTE	W24
	BYTE		        Cn4 
	BYTE	W24
	BYTE		        Dn4 
	BYTE	W12
	BYTE		N24     Gn3 
	BYTE	W24
	BYTE	PEND
// 032   ----------------------------------------
Battle1Elona_2_032:
	BYTE		N12     Gs3   v112
	BYTE	W12
	BYTE		        As3 
	BYTE	W12
	BYTE		N36     Ds4 
	BYTE	W36
	BYTE		N12     Fn4 
	BYTE	W24
	BYTE		        Dn4 
	BYTE	W12
	BYTE	PEND
// 033   ----------------------------------------
	BYTE	W12
	BYTE		        Ds4 
	BYTE	W12
	BYTE		N24     Gn4 
	BYTE	W24
	BYTE		        Fn4 
	BYTE	W24
	BYTE		        Dn4 
	BYTE	W24
// 034   ----------------------------------------
	BYTE		        As3 
	BYTE	W24
	BYTE		N36     Ds4 
	BYTE	W36
	BYTE		N12     Fn4 
	BYTE	W24
	BYTE		        Dn4 
	BYTE	W12
// 035   ----------------------------------------
	BYTE	PATT
	 POIN2	Battle1Elona_2_031
// 036   ----------------------------------------
	BYTE	PATT
	 POIN2	Battle1Elona_2_032
// 037   ----------------------------------------
	BYTE	W12
	BYTE		N12     Ds4   v112
	BYTE	W12
	BYTE		N24     Fn4 
	BYTE	W24
	BYTE		        Fs4 
	BYTE	W24
	BYTE		        Gn4   v116
	BYTE	W24
// 038   ----------------------------------------
	BYTE		        Gs4   v120
	BYTE	W24
	BYTE		N10     An4 
	BYTE	W12
	BYTE		N10   
	BYTE	W60
// 039   ----------------------------------------
	BYTE		N10   
	BYTE	W12
	BYTE		N10   
	BYTE	W60
	BYTE		N10   
	BYTE	W12
	BYTE		N10   
	BYTE	W12
// 040   ----------------------------------------
	BYTE	W48
	BYTE		N10   
	BYTE	W12
	BYTE		N10   
	BYTE	W36
// 041   ----------------------------------------
	BYTE	W24
	BYTE		        As4 
	BYTE	W12
	BYTE		N10   
	BYTE	W60
// 042   ----------------------------------------
	BYTE		N10   
	BYTE	W12
	BYTE		N10   
	BYTE	W60
	BYTE		N10   
	BYTE	W12
	BYTE		N10   
	BYTE	W12
// 043   ----------------------------------------
	BYTE	W48
	BYTE		N10   
	BYTE	W12
	BYTE		N10   
	BYTE	W36
// 044   ----------------------------------------
	BYTE		N06     En3   v116
	BYTE	W06
	BYTE		        Fs3 
	BYTE	W06
	BYTE		        Gn3   v112
	BYTE	W06
	BYTE		N05     An3   v108
	BYTE	W06
	BYTE		N24     Bn3   v112
	BYTE	W24
	BYTE		N12     Fs3 
	BYTE	W12
	BYTE		N11     Bn3 
	BYTE	W24
	BYTE		N12   
	BYTE	W12
// 045   ----------------------------------------
Battle1Elona_2_045:
	BYTE		N24     Gn3   v112
	BYTE	W24
	BYTE		N12     An3 
	BYTE	W12
	BYTE		        Bn3 
	BYTE	W12
	BYTE		N24     Fs3 
	BYTE	W24
	BYTE		N12     Gn3 
	BYTE	W12
	BYTE		        An3 
	BYTE	W12
	BYTE	PEND
// 046   ----------------------------------------
	BYTE		        Bn3 
	BYTE	W12
	BYTE		        Cn4 
	BYTE	W12
	BYTE		N24     Fs3 
	BYTE	W24
	BYTE		        Cn4 
	BYTE	W24
	BYTE		N12     Gn3 
	BYTE	W12
	BYTE		N11     Cn4 
	BYTE	W12
// 047   ----------------------------------------
	BYTE	W12
	BYTE		N12   
	BYTE	W12
	BYTE		N24     Gn3 
	BYTE	W24
	BYTE		        Gs3 
	BYTE	W24
	BYTE		        An3 
	BYTE	W24
// 048   ----------------------------------------
	BYTE		        As3 
	BYTE	W24
	BYTE		        Bn3 
	BYTE	W24
	BYTE		N12     Fs3 
	BYTE	W12
	BYTE		N11     Bn3 
	BYTE	W24
	BYTE		N12   
	BYTE	W12
// 049   ----------------------------------------
	BYTE	PATT
	 POIN2	Battle1Elona_2_045
// 050   ----------------------------------------
	BYTE		N12     Bn3   v112
	BYTE	W12
	BYTE		        Cn4 
	BYTE	W12
	BYTE		N24     Dn4 
	BYTE	W24
	BYTE		        Cs4 
	BYTE	W24
	BYTE		        Cn4 
	BYTE	W24
// 051   ----------------------------------------
	BYTE		        Bn3 
	BYTE	W24
	BYTE		        As3 
	BYTE	W24
	BYTE		        An3 
	BYTE	W24
	BYTE		        Gs3 
	BYTE	W24
// 052   ----------------------------------------
	BYTE		        Gn3 
	BYTE	W24
	BYTE		        Fs3 
	BYTE	W24
	BYTE		        Fn3 
	BYTE	W24
	BYTE		        En3 
	BYTE	W24
// 053   ----------------------------------------
	BYTE		        Ds3 
	BYTE	W24
	BYTE		        Dn3 
	BYTE	W24
	BYTE		        Cs3 
	BYTE	W24
	BYTE		        Cn3 
	BYTE	W24
// 054   ----------------------------------------
	BYTE		        Bn2 
	BYTE	W24
	BYTE		N96     As2 
	BYTE	W72
// 055   ----------------------------------------
	BYTE	W24
	BYTE		        An2 
	BYTE	W72
// 056   ----------------------------------------
	BYTE	W24
	BYTE		TIE     Gn2 
	BYTE	W72
// 057   ----------------------------------------
	BYTE	W92
	BYTE	W02
	BYTE		EOT   
	BYTE	W02
	BYTE	GoTo
	 POIN2	Battle1Elona_2_B1
Battle1Elona_2_B2:
// 058   ----------------------------------------
	BYTE		N06     Cn3   v116
	BYTE	W06
	BYTE		        Dn3 
	BYTE	W06
	BYTE		        Ds3   v112
	BYTE	W06
	BYTE		N05     Fn3   v108
	BYTE	W06
	BYTE	FINE

//**************** Track 3 (Midi-Chn.3) ****************//

Battle1Elona_3:
	BYTE	KEYSH   Battle1Elona_key+0
Battle1Elona_3_B1:
// 000   ----------------------------------------
	BYTE		VOICE   57
	BYTE		PAN     c_v+20
	BYTE		VOL     100*Battle1Elona_mvl/mxv
	BYTE		N05     Cn2   v116
	BYTE	W06
	BYTE		        Dn2 
	BYTE	W06
	BYTE		        Ds2   v112
	BYTE	W06
	BYTE		        Fn2   v108
	BYTE	W06
	BYTE		N10     Gn2   v112
	BYTE	W12
	BYTE		        Cn3 
	BYTE	W12
	BYTE		        As2 
	BYTE	W12
	BYTE		        Cn3 
	BYTE	W12
	BYTE		        As2 
	BYTE	W12
	BYTE		        Gn2 
	BYTE	W12
// 001   ----------------------------------------
Battle1Elona_3_001:
	BYTE	W12
	BYTE		N10     Gn2   v112
	BYTE	W12
	BYTE		N10   
	BYTE	W12
	BYTE		        Cn3 
	BYTE	W12
	BYTE		        As2 
	BYTE	W12
	BYTE		        Gn2 
	BYTE	W24
	BYTE		N10   
	BYTE	W12
	BYTE	PEND
// 002   ----------------------------------------
Battle1Elona_3_002:
	BYTE		N10     Gn2   v112
	BYTE	W12
	BYTE		        Cn3 
	BYTE	W12
	BYTE		        As2 
	BYTE	W12
	BYTE		        Gn2 
	BYTE	W12
	BYTE		N10   
	BYTE	W12
	BYTE		        Cn3 
	BYTE	W12
	BYTE		        As2 
	BYTE	W12
	BYTE		        Cn3 
	BYTE	W12
	BYTE	PEND
// 003   ----------------------------------------
	BYTE		        As2 
	BYTE	W12
	BYTE		        Gn2 
	BYTE	W12
	BYTE		N96     Gs2 
	BYTE	W72
// 004   ----------------------------------------
	BYTE	W24
	BYTE		N68     Gn2 
	BYTE	W72
// 005   ----------------------------------------
	BYTE		N05     Cn2   v116
	BYTE	W06
	BYTE		        Dn2 
	BYTE	W06
	BYTE		        Ds2   v112
	BYTE	W06
	BYTE		        Fn2   v108
	BYTE	W06
	BYTE		N10     Gn2   v112
	BYTE	W12
	BYTE		        Cn3 
	BYTE	W12
	BYTE		        As2 
	BYTE	W12
	BYTE		        Cn3 
	BYTE	W12
	BYTE		        As2 
	BYTE	W12
	BYTE		        Gn2 
	BYTE	W12
// 006   ----------------------------------------
	BYTE	PATT
	 POIN2	Battle1Elona_3_001
// 007   ----------------------------------------
	BYTE	PATT
	 POIN2	Battle1Elona_3_002
// 008   ----------------------------------------
	BYTE		N10     As2   v112
	BYTE	W12
	BYTE		        Gn2 
	BYTE	W12
	BYTE		N96     Gs2   v116
	BYTE	W01
	BYTE	W05
	BYTE	W03
	BYTE	W01
	BYTE	W02
	BYTE	W01
	BYTE	W02
	BYTE	W01
	BYTE	W02
	BYTE	W01
	BYTE	W02
	BYTE	W01
	BYTE	W06
	BYTE	W08
	BYTE	W04
	BYTE	W06
	BYTE	W05
	BYTE	W03
	BYTE	W04
	BYTE	W03
	BYTE	W03
	BYTE	W03
	BYTE	W03
	BYTE	W02
// 009   ----------------------------------------
	BYTE	W01
	BYTE	W03
	BYTE	W03
	BYTE	W03
	BYTE	W02
	BYTE	W12
	BYTE		        An2   v120
	BYTE	W01
	BYTE	W05
	BYTE	W03
	BYTE	W01
	BYTE	W02
	BYTE	W01
	BYTE	W02
	BYTE	W01
	BYTE	W02
	BYTE	W01
	BYTE	W02
	BYTE	W01
	BYTE	W06
	BYTE	W08
	BYTE	W04
	BYTE	W06
	BYTE	W05
	BYTE	W03
	BYTE	W04
	BYTE	W03
	BYTE	W03
	BYTE	W03
	BYTE	W03
	BYTE	W02
// 010   ----------------------------------------
	BYTE	W01
	BYTE	W03
	BYTE	W03
	BYTE	W03
	BYTE	W02
	BYTE	W12
	BYTE		N10     Gn2 
	BYTE	W72
// 011   ----------------------------------------
	BYTE	W96
// 012   ----------------------------------------
	BYTE	W96
// 013   ----------------------------------------
	BYTE	W96
// 014   ----------------------------------------
	BYTE	W96
// 015   ----------------------------------------
	BYTE	W96
// 016   ----------------------------------------
	BYTE	W96
// 017   ----------------------------------------
	BYTE	W96
// 018   ----------------------------------------
	BYTE	W96
// 019   ----------------------------------------
	BYTE	W96
// 020   ----------------------------------------
	BYTE	W96
// 021   ----------------------------------------
	BYTE	W96
// 022   ----------------------------------------
	BYTE	W96
// 023   ----------------------------------------
	BYTE	W96
// 024   ----------------------------------------
	BYTE	W96
// 025   ----------------------------------------
	BYTE	W96
// 026   ----------------------------------------
	BYTE	W24
	BYTE		N05     An2 
	BYTE	W06
	BYTE		N05   
	BYTE	W06
	BYTE		N05   
	BYTE	W06
	BYTE		N05   
	BYTE	W06
	BYTE		N10   
	BYTE	W12
	BYTE		N09   
	BYTE	W12
	BYTE		        Cn2 
	BYTE	W12
	BYTE		        Ds2 
	BYTE	W12
// 027   ----------------------------------------
	BYTE		TIE     An1 
	BYTE	W96
// 028   ----------------------------------------
	BYTE	W01
	BYTE	W02
	BYTE	W01
	BYTE	W02
	BYTE	W01
	BYTE	W02
	BYTE	W01
	BYTE	W02
	BYTE	W01
	BYTE	W02
	BYTE	W01
	BYTE	W02
	BYTE	W01
	BYTE	W02
	BYTE		EOT   
	BYTE	W01
	BYTE	W01
	BYTE	W01
	BYTE		N05     An2 
	BYTE	W06
	BYTE		N05   
	BYTE	W06
	BYTE		N05   
	BYTE	W06
	BYTE		N05   
	BYTE	W06
	BYTE		N10   
	BYTE	W12
	BYTE		N09   
	BYTE	W12
	BYTE		        Cn2 
	BYTE	W12
	BYTE		        Ds2 
	BYTE	W12
// 029   ----------------------------------------
	BYTE		N76     An1 
	BYTE	W48
	BYTE	W01
	BYTE	W03
	BYTE	W02
	BYTE	W01
	BYTE	W02
	BYTE	W01
	BYTE	W02
	BYTE	W01
	BYTE	W02
	BYTE	W01
	BYTE	W02
	BYTE	W01
	BYTE	W02
	BYTE	W01
	BYTE	W02
	BYTE	W01
	BYTE	W02
	BYTE	W21
// 030   ----------------------------------------
	BYTE	W72
	BYTE	W24
// 031   ----------------------------------------
	BYTE	W96
// 032   ----------------------------------------
	BYTE	W96
// 033   ----------------------------------------
	BYTE	W24
	BYTE		N24     Gn2   v112
	BYTE		N24     Cn3 
	BYTE	W24
	BYTE		        Fn2 
	BYTE		N24     As2 
	BYTE	W24
	BYTE		        Dn2 
	BYTE		N24     Gn2 
	BYTE	W24
// 034   ----------------------------------------
	BYTE		N24   
	BYTE		N24     As2 
	BYTE	W96
// 035   ----------------------------------------
	BYTE	W96
// 036   ----------------------------------------
	BYTE	W96
// 037   ----------------------------------------
	BYTE	W24
	BYTE		        Fn2   v080
	BYTE		N24     Gs2 
	BYTE	W24
	BYTE		        Fs2   v092
	BYTE		N24     An2 
	BYTE	W24
	BYTE		        Gn2   v100
	BYTE		N24     As2 
	BYTE	W24
// 038   ----------------------------------------
	BYTE		        Gs2   v112
	BYTE		N24     Bn2 
	BYTE	W24
	BYTE		N10     Ds3   v120
	BYTE	W12
	BYTE		N10   
	BYTE	W24
	BYTE		N32     Cn2 
	BYTE	W13
	BYTE	W02
	BYTE	W01
	BYTE	W02
	BYTE	W01
	BYTE	W02
	BYTE	W01
	BYTE	W02
	BYTE	W01
	BYTE	W02
	BYTE	W01
	BYTE	W02
	BYTE	W01
	BYTE	W02
	BYTE	W01
	BYTE	W01
	BYTE	W01
// 039   ----------------------------------------
	BYTE		N10     Ds3 
	BYTE	W12
	BYTE		N10   
	BYTE	W24
	BYTE		N32     Cn2 
	BYTE	W13
	BYTE	W02
	BYTE	W01
	BYTE	W02
	BYTE	W01
	BYTE	W02
	BYTE	W01
	BYTE	W02
	BYTE	W01
	BYTE	W02
	BYTE	W01
	BYTE	W02
	BYTE	W01
	BYTE	W02
	BYTE	W01
	BYTE	W01
	BYTE	W01
	BYTE		N10     Ds3 
	BYTE	W12
	BYTE		N10   
	BYTE	W12
// 040   ----------------------------------------
	BYTE	W12
	BYTE		N32     Cn2 
	BYTE	W13
	BYTE	W02
	BYTE	W01
	BYTE	W02
	BYTE	W01
	BYTE	W02
	BYTE	W01
	BYTE	W02
	BYTE	W01
	BYTE	W02
	BYTE	W01
	BYTE	W02
	BYTE	W01
	BYTE	W02
	BYTE	W01
	BYTE	W01
	BYTE	W01
	BYTE		N10     Ds3 
	BYTE	W12
	BYTE		N10   
	BYTE	W36
// 041   ----------------------------------------
	BYTE	W24
	BYTE		        En3 
	BYTE	W12
	BYTE		N10   
	BYTE	W24
	BYTE		N32     Cs2 
	BYTE	W13
	BYTE	W02
	BYTE	W01
	BYTE	W02
	BYTE	W01
	BYTE	W02
	BYTE	W01
	BYTE	W02
	BYTE	W01
	BYTE	W02
	BYTE	W01
	BYTE	W02
	BYTE	W01
	BYTE	W02
	BYTE	W01
	BYTE	W01
	BYTE	W01
// 042   ----------------------------------------
	BYTE		N10     En3 
	BYTE	W12
	BYTE		N10   
	BYTE	W24
	BYTE		N32     Cs2 
	BYTE	W13
	BYTE	W02
	BYTE	W01
	BYTE	W02
	BYTE	W01
	BYTE	W02
	BYTE	W01
	BYTE	W02
	BYTE	W01
	BYTE	W02
	BYTE	W01
	BYTE	W02
	BYTE	W01
	BYTE	W02
	BYTE	W01
	BYTE	W01
	BYTE	W01
	BYTE		N10     En3 
	BYTE	W12
	BYTE		N10   
	BYTE	W12
// 043   ----------------------------------------
	BYTE	W12
	BYTE		N32     Cs2 
	BYTE	W13
	BYTE	W02
	BYTE	W01
	BYTE	W02
	BYTE	W01
	BYTE	W02
	BYTE	W01
	BYTE	W02
	BYTE	W01
	BYTE	W02
	BYTE	W01
	BYTE	W02
	BYTE	W01
	BYTE	W02
	BYTE	W01
	BYTE	W01
	BYTE	W01
	BYTE		N10     En3 
	BYTE	W12
	BYTE		N10   
	BYTE	W36
// 044   ----------------------------------------
	BYTE	W96
// 045   ----------------------------------------
	BYTE	W96
// 046   ----------------------------------------
	BYTE	W96
// 047   ----------------------------------------
	BYTE	W96
// 048   ----------------------------------------
	BYTE	W96
// 049   ----------------------------------------
	BYTE	W96
// 050   ----------------------------------------
	BYTE	W96
// 051   ----------------------------------------
	BYTE	W96
// 052   ----------------------------------------
	BYTE	W96
// 053   ----------------------------------------
	BYTE	W96
// 054   ----------------------------------------
	BYTE	W96
// 055   ----------------------------------------
	BYTE	W24
	BYTE		N96     Dn2 
	BYTE		N96     Fn2 
	BYTE	W03
	BYTE	W01
	BYTE	W03
	BYTE	W02
	BYTE	W01
	BYTE	W03
	BYTE	W02
	BYTE	W01
	BYTE	W03
	BYTE	W02
	BYTE	W01
	BYTE	W03
	BYTE	W02
	BYTE	W01
	BYTE	W03
	BYTE	W02
	BYTE	W01
	BYTE	W03
	BYTE	W02
	BYTE	W01
	BYTE	W03
	BYTE	W02
	BYTE	W01
	BYTE	W03
	BYTE	W02
	BYTE	W01
	BYTE	W03
	BYTE	W02
	BYTE	W01
	BYTE	W03
	BYTE	W02
	BYTE	W01
	BYTE	W03
	BYTE	W02
	BYTE	W01
	BYTE	W02
// 056   ----------------------------------------
	BYTE	W01
	BYTE	W02
	BYTE	W01
	BYTE	W03
	BYTE	W02
	BYTE	W01
	BYTE	W03
	BYTE	W02
	BYTE	W01
	BYTE	W03
	BYTE	W02
	BYTE	W01
	BYTE	W02
	BYTE		TIE     Ds2 
	BYTE	W72
// 057   ----------------------------------------
	BYTE	W24
	BYTE	W01
	BYTE	W08
	BYTE	W04
	BYTE	W03
	BYTE	W02
	BYTE	W03
	BYTE	W01
	BYTE	W02
	BYTE	W01
	BYTE	W02
	BYTE	W01
	BYTE	W02
	BYTE	W01
	BYTE	W02
	BYTE	W01
	BYTE	W02
	BYTE	W01
	BYTE	W02
	BYTE	W01
	BYTE	W02
	BYTE	W01
	BYTE	W02
	BYTE	W01
	BYTE	W02
	BYTE	W01
	BYTE	W02
	BYTE	W01
	BYTE	W02
	BYTE	W01
	BYTE	W02
	BYTE	W01
	BYTE	W02
	BYTE	W01
	BYTE	W02
	BYTE	W01
	BYTE	W02
	BYTE	W01
	BYTE	W02
	BYTE	W01
	BYTE		EOT   
	BYTE	W01
	BYTE	W01
	BYTE	GoTo
	 POIN2	Battle1Elona_3_B1
Battle1Elona_3_B2:
// 058   ----------------------------------------
	BYTE		N05     Cn2   v116
	BYTE	W06
	BYTE		        Dn2 
	BYTE	W06
	BYTE		        Ds2   v112
	BYTE	W06
	BYTE		        Fn2   v108
	BYTE	W06
	BYTE	FINE

//**************** Track 4 (Midi-Chn.4) ****************//

Battle1Elona_4:
	BYTE	KEYSH   Battle1Elona_key+0
Battle1Elona_4_B1:
// 000   ----------------------------------------
	BYTE		VOICE   34
	BYTE		PAN     c_v+0
	BYTE		VOL     120*Battle1Elona_mvl/mxv
	BYTE		N12     As1   v100
	BYTE	W12
	BYTE		N12   
	BYTE	W12
	BYTE		        Cn2 
	BYTE	W12
	BYTE		N12   
	BYTE	W12
	BYTE		N12   
	BYTE	W12
	BYTE		N12   
	BYTE	W12
	BYTE		N12   
	BYTE	W12
	BYTE		N12   
	BYTE	W12
// 001   ----------------------------------------
Battle1Elona_4_001:
	BYTE		N12     As1   v100
	BYTE	W12
	BYTE		N12   
	BYTE	W12
	BYTE		        Cn2 
	BYTE	W12
	BYTE		N12   
	BYTE	W12
	BYTE		N12   
	BYTE	W12
	BYTE		N12   
	BYTE	W12
	BYTE		N12   
	BYTE	W12
	BYTE		N12   
	BYTE	W12
	BYTE	PEND
// 002   ----------------------------------------
Battle1Elona_4_002:
	BYTE		N12     As1   v100
	BYTE	W12
	BYTE		N12   
	BYTE	W12
	BYTE		        Cn2 
	BYTE	W12
	BYTE		N12   
	BYTE	W12
	BYTE		        As1 
	BYTE	W12
	BYTE		N12   
	BYTE	W12
	BYTE		        Gs1 
	BYTE	W12
	BYTE		N12   
	BYTE	W12
	BYTE	PEND
// 003   ----------------------------------------
Battle1Elona_4_003:
	BYTE		N12     Gn1   v100
	BYTE	W12
	BYTE		N12   
	BYTE	W12
	BYTE		        Fn1 
	BYTE	W12
	BYTE		N12   
	BYTE	W12
	BYTE		N12   
	BYTE	W12
	BYTE		N12   
	BYTE	W12
	BYTE		N12   
	BYTE	W12
	BYTE		N12   
	BYTE	W12
	BYTE	PEND
// 004   ----------------------------------------
	BYTE		N12   
	BYTE	W12
	BYTE		N12   
	BYTE	W12
	BYTE		        Gn1 
	BYTE	W12
	BYTE		N12   
	BYTE	W12
	BYTE		        As1 
	BYTE	W12
	BYTE		N12   
	BYTE	W12
	BYTE		        Cn2 
	BYTE	W12
	BYTE		N12   
	BYTE	W12
// 005   ----------------------------------------
	BYTE	PATT
	 POIN2	Battle1Elona_4_001
// 006   ----------------------------------------
	BYTE	PATT
	 POIN2	Battle1Elona_4_001
// 007   ----------------------------------------
	BYTE	PATT
	 POIN2	Battle1Elona_4_002
// 008   ----------------------------------------
	BYTE	PATT
	 POIN2	Battle1Elona_4_003
// 009   ----------------------------------------
	BYTE		N12     Fn1   v100
	BYTE	W12
	BYTE		N12   
	BYTE	W12
	BYTE		        Fs1 
	BYTE	W12
	BYTE		N12   
	BYTE	W12
	BYTE		N12   
	BYTE	W12
	BYTE		N12   
	BYTE	W12
	BYTE		N12   
	BYTE	W12
	BYTE		N12   
	BYTE	W12
// 010   ----------------------------------------
	BYTE		N12   
	BYTE	W12
	BYTE		N12   
	BYTE	W12
	BYTE		        Gn1 
	BYTE	W12
	BYTE		        As1 
	BYTE	W12
	BYTE		        Cn2 
	BYTE	W12
	BYTE		        Ds2 
	BYTE	W12
	BYTE		        Cn2 
	BYTE	W12
	BYTE		        Ds2 
	BYTE	W12
// 011   ----------------------------------------
Battle1Elona_4_011:
	BYTE		N12     Cn2   v100
	BYTE	W12
	BYTE		        As1 
	BYTE	W12
	BYTE		        Gn1 
	BYTE	W12
	BYTE		        An1 
	BYTE	W12
	BYTE		        Bn1 
	BYTE	W12
	BYTE		        Ds2 
	BYTE	W12
	BYTE		        Bn1 
	BYTE	W12
	BYTE		        Ds2 
	BYTE	W12
	BYTE	PEND
// 012   ----------------------------------------
Battle1Elona_4_012:
	BYTE		N12     Bn1   v100
	BYTE	W12
	BYTE		        An1 
	BYTE	W12
	BYTE		        Gn1 
	BYTE	W12
	BYTE		        As1 
	BYTE	W12
	BYTE		        Cn2 
	BYTE	W12
	BYTE		        Ds2 
	BYTE	W12
	BYTE		        Cn2 
	BYTE	W12
	BYTE		        Ds2 
	BYTE	W12
	BYTE	PEND
// 013   ----------------------------------------
Battle1Elona_4_013:
	BYTE		N12     Cn2   v100
	BYTE	W12
	BYTE		        As1 
	BYTE	W12
	BYTE		        Gn1 
	BYTE	W12
	BYTE		        An1 
	BYTE	W12
	BYTE		        Bn1 
	BYTE	W12
	BYTE		        Dn2 
	BYTE	W12
	BYTE		        Bn1 
	BYTE	W12
	BYTE		        Dn2 
	BYTE	W12
	BYTE	PEND
// 014   ----------------------------------------
Battle1Elona_4_014:
	BYTE		N12     Bn1   v100
	BYTE	W12
	BYTE		        An1 
	BYTE	W12
	BYTE		        Gn1 
	BYTE	W12
	BYTE		        As1 
	BYTE	W12
	BYTE		        Cn2 
	BYTE	W12
	BYTE		        Ds2 
	BYTE	W12
	BYTE		        Bn1 
	BYTE	W12
	BYTE		        Ds2 
	BYTE	W12
	BYTE	PEND
// 015   ----------------------------------------
	BYTE		        Bn1 
	BYTE	W12
	BYTE		        An1 
	BYTE	W12
	BYTE		        Fn1 
	BYTE	W12
	BYTE		        Gs1 
	BYTE	W12
	BYTE		        Cn2 
	BYTE	W12
	BYTE		        Dn2 
	BYTE	W12
	BYTE		        Cn2 
	BYTE	W12
	BYTE		        Dn2 
	BYTE	W12
// 016   ----------------------------------------
	BYTE		        Cn2 
	BYTE	W12
	BYTE		        Gs1 
	BYTE	W12
	BYTE		        Cn2 
	BYTE	W12
	BYTE		        Ds2 
	BYTE	W12
	BYTE		        Gn1 
	BYTE	W12
	BYTE		        Ds2 
	BYTE	W12
	BYTE		        Dn2 
	BYTE	W12
	BYTE		        Fn2 
	BYTE	W12
// 017   ----------------------------------------
	BYTE		        Gs1 
	BYTE	W12
	BYTE		        Fn2 
	BYTE	W12
	BYTE		        Ds2 
	BYTE	W12
	BYTE		        Gn2 
	BYTE	W12
	BYTE		        As1 
	BYTE	W12
	BYTE		        Gn2 
	BYTE	W12
	BYTE		        Gs2 
	BYTE	W12
	BYTE		        Dn2 
	BYTE	W12
// 018   ----------------------------------------
	BYTE		        Gn2 
	BYTE	W12
	BYTE		        Dn2 
	BYTE	W12
	BYTE		        Gn1 
	BYTE	W12
	BYTE		        As1 
	BYTE	W12
	BYTE		        Cn2 
	BYTE	W12
	BYTE		        Ds2 
	BYTE	W12
	BYTE		        Cn2 
	BYTE	W12
	BYTE		        Ds2 
	BYTE	W12
// 019   ----------------------------------------
	BYTE	PATT
	 POIN2	Battle1Elona_4_011
// 020   ----------------------------------------
	BYTE	PATT
	 POIN2	Battle1Elona_4_012
// 021   ----------------------------------------
	BYTE	PATT
	 POIN2	Battle1Elona_4_013
// 022   ----------------------------------------
	BYTE	PATT
	 POIN2	Battle1Elona_4_014
// 023   ----------------------------------------
	BYTE		N12     Bn1   v100
	BYTE	W12
	BYTE		        An1 
	BYTE	W12
	BYTE		        Cn2 
	BYTE	W12
	BYTE		        Gn1 
	BYTE	W12
	BYTE		        Cn2 
	BYTE	W12
	BYTE		        Ds2 
	BYTE	W12
	BYTE		        Cn2 
	BYTE	W12
	BYTE		        Ds2 
	BYTE	W12
// 024   ----------------------------------------
	BYTE		        Cn2 
	BYTE	W12
	BYTE		        Gn1 
	BYTE	W12
	BYTE		        Cn2 
	BYTE	W12
	BYTE		        Gs1 
	BYTE	W12
	BYTE		        As1 
	BYTE	W12
	BYTE		        Cn2 
	BYTE	W12
	BYTE		        Dn2 
	BYTE	W12
	BYTE		        As1 
	BYTE	W12
// 025   ----------------------------------------
	BYTE		        Cn2 
	BYTE	W12
	BYTE		        Dn2 
	BYTE	W12
	BYTE		        Ds2 
	BYTE	W12
	BYTE		        Cn2 
	BYTE	W12
	BYTE		        Dn2 
	BYTE	W12
	BYTE		        Ds2 
	BYTE	W12
	BYTE		        Fn2 
	BYTE	W12
	BYTE		        Dn2 
	BYTE	W12
// 026   ----------------------------------------
	BYTE		        Ds2 
	BYTE	W12
	BYTE		        Fn2 
	BYTE	W12
	BYTE		N06     Dn2 
	BYTE	W06
	BYTE		N06   
	BYTE	W06
	BYTE		N06   
	BYTE	W06
	BYTE		N06   
	BYTE	W06
	BYTE		N12   
	BYTE	W48
// 027   ----------------------------------------
	BYTE	W96
// 028   ----------------------------------------
	BYTE	W24
	BYTE		N06   
	BYTE	W06
	BYTE		N06   
	BYTE	W06
	BYTE		N06   
	BYTE	W06
	BYTE		N06   
	BYTE	W06
	BYTE		N12   
	BYTE	W48
// 029   ----------------------------------------
	BYTE	W96
// 030   ----------------------------------------
	BYTE	W24
	BYTE		        Cn2 
	BYTE	W12
	BYTE		N12   
	BYTE	W12
	BYTE		N12   
	BYTE	W12
	BYTE		N12   
	BYTE	W12
	BYTE		N12   
	BYTE	W12
	BYTE		N12   
	BYTE	W12
// 031   ----------------------------------------
Battle1Elona_4_031:
	BYTE		N12     Cn2   v100
	BYTE	W12
	BYTE		N12   
	BYTE	W12
	BYTE		N12   
	BYTE	W12
	BYTE		N12   
	BYTE	W12
	BYTE		N12   
	BYTE	W12
	BYTE		N12   
	BYTE	W12
	BYTE		        Gn1 
	BYTE	W12
	BYTE		N12   
	BYTE	W12
	BYTE	PEND
// 032   ----------------------------------------
Battle1Elona_4_032:
	BYTE		N12     Gn1   v100
	BYTE	W12
	BYTE		N12   
	BYTE	W12
	BYTE		N12   
	BYTE	W12
	BYTE		N12   
	BYTE	W12
	BYTE		N12   
	BYTE	W12
	BYTE		N12   
	BYTE	W12
	BYTE		N12   
	BYTE	W12
	BYTE		N12   
	BYTE	W12
	BYTE	PEND
// 033   ----------------------------------------
	BYTE		        Gs1 
	BYTE	W12
	BYTE		        As1 
	BYTE	W12
	BYTE		        Cn2 
	BYTE	W12
	BYTE		        Ds2 
	BYTE	W12
	BYTE		        Gn2 
	BYTE	W12
	BYTE		        Gs2 
	BYTE	W12
	BYTE		        Gn2 
	BYTE	W12
	BYTE		        Fn2 
	BYTE	W12
// 034   ----------------------------------------
	BYTE		        Dn2 
	BYTE	W12
	BYTE		        Gn1 
	BYTE	W12
	BYTE		        Cn2 
	BYTE	W12
	BYTE		N12   
	BYTE	W12
	BYTE		N12   
	BYTE	W12
	BYTE		N12   
	BYTE	W12
	BYTE		N12   
	BYTE	W12
	BYTE		N12   
	BYTE	W12
// 035   ----------------------------------------
	BYTE	PATT
	 POIN2	Battle1Elona_4_031
// 036   ----------------------------------------
	BYTE	PATT
	 POIN2	Battle1Elona_4_032
// 037   ----------------------------------------
	BYTE		N12     Gs1   v100
	BYTE	W12
	BYTE		        As1 
	BYTE	W12
	BYTE		        Cn2 
	BYTE	W12
	BYTE		        Cs2 
	BYTE	W12
	BYTE		        Dn2 
	BYTE	W12
	BYTE		        Ds2 
	BYTE	W12
	BYTE		        En2 
	BYTE	W12
	BYTE		        Fn2 
	BYTE	W12
// 038   ----------------------------------------
	BYTE		        Fs2 
	BYTE	W12
	BYTE		        Bn1 
	BYTE	W12
	BYTE		        Cn2 
	BYTE	W12
	BYTE		N12   
	BYTE	W60
// 039   ----------------------------------------
	BYTE		N12   
	BYTE	W12
	BYTE		N12   
	BYTE	W60
	BYTE		N12   
	BYTE	W12
	BYTE		N12   
	BYTE	W12
// 040   ----------------------------------------
	BYTE	W48
	BYTE		N12   
	BYTE	W12
	BYTE		N12   
	BYTE	W36
// 041   ----------------------------------------
	BYTE	W24
	BYTE		        Cs2 
	BYTE	W12
	BYTE		N12   
	BYTE	W60
// 042   ----------------------------------------
	BYTE		N12   
	BYTE	W12
	BYTE		N12   
	BYTE	W60
	BYTE		N12   
	BYTE	W12
	BYTE		N12   
	BYTE	W12
// 043   ----------------------------------------
	BYTE	W48
	BYTE		N12   
	BYTE	W12
	BYTE		N12   
	BYTE	W36
// 044   ----------------------------------------
	BYTE	W24
	BYTE		        En1 
	BYTE	W12
	BYTE		        Bn1 
	BYTE	W12
	BYTE		        En2 
	BYTE	W12
	BYTE		        Fs2 
	BYTE	W12
	BYTE		        Gn2 
	BYTE	W12
	BYTE		        Fs2 
	BYTE	W12
// 045   ----------------------------------------
	BYTE		        Bn1 
	BYTE	W12
	BYTE		        En2 
	BYTE	W12
	BYTE		        Ds2 
	BYTE	W12
	BYTE		        En2 
	BYTE	W12
	BYTE		        Fs2 
	BYTE	W12
	BYTE		        Gn2 
	BYTE	W12
	BYTE		N24     En2 
	BYTE	W24
// 046   ----------------------------------------
	BYTE		N12     Ds2 
	BYTE	W12
	BYTE		        En2 
	BYTE	W12
	BYTE		        Fs2 
	BYTE	W12
	BYTE		        Gn2 
	BYTE	W12
	BYTE		        En2 
	BYTE	W12
	BYTE		        Dn2 
	BYTE	W12
	BYTE		        Cn2 
	BYTE	W12
	BYTE		        Gn1 
	BYTE	W12
// 047   ----------------------------------------
	BYTE		        Cn2 
	BYTE	W12
	BYTE		        Dn2 
	BYTE	W12
	BYTE		N24     Gn2 
	BYTE	W24
	BYTE		        Fs2 
	BYTE	W24
	BYTE		        En2 
	BYTE	W24
// 048   ----------------------------------------
	BYTE		        Bn1 
	BYTE	W24
	BYTE		N12     En1 
	BYTE	W12
	BYTE		        Bn1 
	BYTE	W12
	BYTE		        En2 
	BYTE	W12
	BYTE		        Fs2 
	BYTE	W12
	BYTE		        Gn2 
	BYTE	W12
	BYTE		        Fs2 
	BYTE	W12
// 049   ----------------------------------------
	BYTE		        Bn1 
	BYTE	W12
	BYTE		        En2 
	BYTE	W12
	BYTE		        Ds2 
	BYTE	W12
	BYTE		        En2 
	BYTE	W12
	BYTE		        Fs2 
	BYTE	W12
	BYTE		        Gn2 
	BYTE	W12
	BYTE		        En2 
	BYTE	W12
	BYTE		        Fs2 
	BYTE	W12
// 050   ----------------------------------------
	BYTE		        Gn2 
	BYTE	W12
	BYTE		        An2 
	BYTE	W12
	BYTE		N24     Bn2 
	BYTE	W24
	BYTE		        As2 
	BYTE	W24
	BYTE		        An2 
	BYTE	W24
// 051   ----------------------------------------
	BYTE		        Gs2 
	BYTE	W24
	BYTE		        Gn2 
	BYTE	W24
	BYTE		        Fs2 
	BYTE	W24
	BYTE		        Fn2 
	BYTE	W24
// 052   ----------------------------------------
	BYTE		        En2 
	BYTE	W24
	BYTE		        Ds2 
	BYTE	W24
	BYTE		        Dn2 
	BYTE	W24
	BYTE		        Cs2 
	BYTE	W24
// 053   ----------------------------------------
	BYTE		        Cn2 
	BYTE	W24
	BYTE		        Bn1 
	BYTE	W24
	BYTE		        As1 
	BYTE	W24
	BYTE		        An1 
	BYTE	W24
// 054   ----------------------------------------
	BYTE		        Gs1 
	BYTE	W24
	BYTE		TIE     Gn1 
	BYTE	W72
// 055   ----------------------------------------
	BYTE	W36
	BYTE		EOT   
	BYTE		N12   
	BYTE	W12
	BYTE		N12   
	BYTE	W12
	BYTE		N12   
	BYTE	W12
	BYTE		N12   
	BYTE	W12
	BYTE		N12   
	BYTE	W12
// 056   ----------------------------------------
	BYTE		N12   
	BYTE	W12
	BYTE		N12   
	BYTE	W12
	BYTE		        Cn2 
	BYTE	W12
	BYTE		N12   
	BYTE	W12
	BYTE		N12   
	BYTE	W12
	BYTE		N12   
	BYTE	W12
	BYTE		N12   
	BYTE	W12
	BYTE		N12   
	BYTE	W12
// 057   ----------------------------------------
	BYTE	PATT
	 POIN2	Battle1Elona_4_001
	BYTE	GoTo
	 POIN2	Battle1Elona_4_B1
Battle1Elona_4_B2:
// 058   ----------------------------------------
	BYTE		N12     As1   v100
	BYTE	W12
	BYTE		N12   
	BYTE	W12
	BYTE	FINE

//**************** Track 5 (Midi-Chn.5) ****************//

Battle1Elona_5:
	BYTE	KEYSH   Battle1Elona_key+0
Battle1Elona_5_B1:
// 000   ----------------------------------------
	BYTE		VOICE   48
	BYTE		VOL     75*Battle1Elona_mvl/mxv
	BYTE		PAN     c_v-30
	BYTE	W96
// 001   ----------------------------------------
	BYTE	W96
// 002   ----------------------------------------
	BYTE	W96
// 003   ----------------------------------------
	BYTE	W96
// 004   ----------------------------------------
	BYTE	W24
	BYTE		N05     Gn3   v120
	BYTE	W06
	BYTE		        Cn4   v116
	BYTE	W06
	BYTE		        Dn4   v112
	BYTE	W06
	BYTE		        Gn4 
	BYTE	W06
	BYTE		        Cn5 
	BYTE	W06
	BYTE		        Dn5 
	BYTE	W06
	BYTE		        Gn5 
	BYTE	W06
	BYTE		        Fn5 
	BYTE	W06
	BYTE		        Cn5 
	BYTE	W06
	BYTE		        Gn4 
	BYTE	W06
	BYTE		        Fn4 
	BYTE	W06
	BYTE		        Cn4 
	BYTE	W06
// 005   ----------------------------------------
	BYTE	W96
// 006   ----------------------------------------
	BYTE	W96
// 007   ----------------------------------------
	BYTE	W96
// 008   ----------------------------------------
	BYTE	W96
// 009   ----------------------------------------
	BYTE	W72
	BYTE		        An2 
	BYTE	W06
	BYTE		        Dn3 
	BYTE	W06
	BYTE		        Fs3 
	BYTE	W06
	BYTE		        An3 
	BYTE	W06
// 010   ----------------------------------------
	BYTE		        As3 
	BYTE	W06
	BYTE		        Dn4 
	BYTE	W06
	BYTE		        Fs4 
	BYTE	W06
	BYTE		        An4 
	BYTE	W06
	BYTE		N10     As4 
	BYTE	W24
	BYTE		N06     Cn4   v080
	BYTE	W06
	BYTE		        Ds4 
	BYTE	W06
	BYTE		        Gn4 
	BYTE	W06
	BYTE		        As4 
	BYTE	W06
	BYTE		        Cn5 
	BYTE	W06
	BYTE		        As4 
	BYTE	W06
	BYTE		        Gn4 
	BYTE	W06
	BYTE		        Ds4 
	BYTE	W06
// 011   ----------------------------------------
Battle1Elona_5_011:
	BYTE		N06     Cn4   v080
	BYTE	W06
	BYTE		        As3 
	BYTE	W06
	BYTE		        Gn3 
	BYTE	W06
	BYTE		        Ds3 
	BYTE	W06
	BYTE		        Bn2 
	BYTE	W06
	BYTE		        Ds3 
	BYTE	W06
	BYTE		        Gn3 
	BYTE	W06
	BYTE		        An3 
	BYTE	W06
	BYTE		        Bn3 
	BYTE	W06
	BYTE		        Ds4 
	BYTE	W06
	BYTE		        Gn4 
	BYTE	W06
	BYTE		        An4 
	BYTE	W06
	BYTE		        Bn4 
	BYTE	W06
	BYTE		        An4 
	BYTE	W06
	BYTE		        Gn4 
	BYTE	W06
	BYTE		        Ds4 
	BYTE	W06
	BYTE	PEND
// 012   ----------------------------------------
Battle1Elona_5_012:
	BYTE		N06     Bn3   v080
	BYTE	W06
	BYTE		        An3 
	BYTE	W06
	BYTE		        Gn3 
	BYTE	W06
	BYTE		        Ds3 
	BYTE	W06
	BYTE		        Cn3 
	BYTE	W06
	BYTE		        Ds3 
	BYTE	W06
	BYTE		        Gn3 
	BYTE	W06
	BYTE		        As3 
	BYTE	W06
	BYTE		        Cn4 
	BYTE	W06
	BYTE		        Ds4 
	BYTE	W06
	BYTE		        Gn4 
	BYTE	W06
	BYTE		        As4 
	BYTE	W06
	BYTE		        Cn5 
	BYTE	W06
	BYTE		        As4 
	BYTE	W06
	BYTE		        Gn4 
	BYTE	W06
	BYTE		        Ds4 
	BYTE	W06
	BYTE	PEND
// 013   ----------------------------------------
Battle1Elona_5_013:
	BYTE		N06     Cn4   v080
	BYTE	W06
	BYTE		        As3 
	BYTE	W06
	BYTE		        Gn3 
	BYTE	W06
	BYTE		        Ds3 
	BYTE	W06
	BYTE		        Bn2 
	BYTE	W06
	BYTE		        Dn3 
	BYTE	W06
	BYTE		        Fn3 
	BYTE	W06
	BYTE		        Gn3 
	BYTE	W06
	BYTE		        Bn3 
	BYTE	W06
	BYTE		        Dn4 
	BYTE	W06
	BYTE		        Fn4 
	BYTE	W06
	BYTE		        Gn4 
	BYTE	W06
	BYTE		        Bn4 
	BYTE	W06
	BYTE		        Gn4 
	BYTE	W06
	BYTE		        Fn4 
	BYTE	W06
	BYTE		        Dn4 
	BYTE	W06
	BYTE	PEND
// 014   ----------------------------------------
Battle1Elona_5_014:
	BYTE		N06     Bn3   v080
	BYTE	W06
	BYTE		        Gn3 
	BYTE	W06
	BYTE		        Fn3 
	BYTE	W06
	BYTE		        Dn3 
	BYTE	W06
	BYTE		        Cn3 
	BYTE	W06
	BYTE		        Ds3 
	BYTE	W06
	BYTE		        Gn3 
	BYTE	W06
	BYTE		        As3 
	BYTE	W06
	BYTE		        Cn4 
	BYTE	W06
	BYTE		        Ds4 
	BYTE	W06
	BYTE		        Gn4 
	BYTE	W06
	BYTE		        As4 
	BYTE	W06
	BYTE		        Bn4 
	BYTE	W06
	BYTE		        An4 
	BYTE	W06
	BYTE		        Gn4 
	BYTE	W06
	BYTE		        Ds4 
	BYTE	W06
	BYTE	PEND
// 015   ----------------------------------------
	BYTE		        Bn3 
	BYTE	W06
	BYTE		        An3 
	BYTE	W06
	BYTE		        Gn3 
	BYTE	W06
	BYTE		        Ds3 
	BYTE	W06
	BYTE		        Dn3 
	BYTE	W06
	BYTE		        Fn3 
	BYTE	W06
	BYTE		        Gs3 
	BYTE	W06
	BYTE		        Cn4 
	BYTE	W06
	BYTE		        Fn3 
	BYTE	W06
	BYTE		        Gs3 
	BYTE	W06
	BYTE		        Dn4 
	BYTE	W06
	BYTE		        Fn4 
	BYTE	W06
	BYTE		        Gs4 
	BYTE	W06
	BYTE		        Fn4 
	BYTE	W06
	BYTE		        Dn4 
	BYTE	W06
	BYTE		        Cn4 
	BYTE	W06
// 016   ----------------------------------------
	BYTE		        Gs3 
	BYTE	W06
	BYTE		        Cn4 
	BYTE	W06
	BYTE		        Ds4   v084
	BYTE	W06
	BYTE		        Fn4 
	BYTE	W06
	BYTE		N10     Gn4 
	BYTE	W12
	BYTE		N06     As3 
	BYTE	W06
	BYTE		        Cn4   v088
	BYTE	W06
	BYTE		        Dn4 
	BYTE	W06
	BYTE		        Ds4 
	BYTE	W06
	BYTE		        Fn4 
	BYTE	W06
	BYTE		        Gn4 
	BYTE	W06
	BYTE		N10     Gs4 
	BYTE	W12
	BYTE		N06     Cn4   v092
	BYTE	W06
	BYTE		        Dn4 
	BYTE	W06
// 017   ----------------------------------------
	BYTE		        Ds4 
	BYTE	W06
	BYTE		        Fn4 
	BYTE	W06
	BYTE		        Gn4   v096
	BYTE	W06
	BYTE		        Gs4 
	BYTE	W06
	BYTE		N10     As4 
	BYTE	W12
	BYTE		N06     Dn4 
	BYTE	W06
	BYTE		        Ds4   v100
	BYTE	W06
	BYTE		        Fn4 
	BYTE	W06
	BYTE		        Gn4 
	BYTE	W06
	BYTE		        Gs4 
	BYTE	W06
	BYTE		        As4 
	BYTE	W06
	BYTE		        Cn5 
	BYTE	W06
	BYTE		        Gs4 
	BYTE	W06
	BYTE		        Fn4   v096
	BYTE	W06
	BYTE		        Dn4 
	BYTE	W06
// 018   ----------------------------------------
	BYTE		        Bn3   v092
	BYTE	W06
	BYTE		        Gn3   v088
	BYTE	W06
	BYTE		        Fn3 
	BYTE	W06
	BYTE		        Dn3   v084
	BYTE	W06
	BYTE		        Cn3   v080
	BYTE	W06
	BYTE		        Ds3 
	BYTE	W06
	BYTE		        Gn3 
	BYTE	W06
	BYTE		        As3 
	BYTE	W06
	BYTE		        Cn4 
	BYTE	W06
	BYTE		        Ds4 
	BYTE	W06
	BYTE		        Gn4 
	BYTE	W06
	BYTE		        As4 
	BYTE	W06
	BYTE		        Cn5 
	BYTE	W06
	BYTE		        As4 
	BYTE	W06
	BYTE		        Gn4 
	BYTE	W06
	BYTE		        Ds4 
	BYTE	W06
// 019   ----------------------------------------
	BYTE	PATT
	 POIN2	Battle1Elona_5_011
// 020   ----------------------------------------
	BYTE	PATT
	 POIN2	Battle1Elona_5_012
// 021   ----------------------------------------
	BYTE	PATT
	 POIN2	Battle1Elona_5_013
// 022   ----------------------------------------
	BYTE	PATT
	 POIN2	Battle1Elona_5_014
// 023   ----------------------------------------
	BYTE		N06     Bn3   v080
	BYTE	W06
	BYTE		        An3 
	BYTE	W06
	BYTE		        Gn3 
	BYTE	W06
	BYTE		        Ds3 
	BYTE	W06
	BYTE		        Cn3 
	BYTE	W06
	BYTE		        Ds3 
	BYTE	W06
	BYTE		        Gn3 
	BYTE	W06
	BYTE		        Gs3 
	BYTE	W06
	BYTE		        Cn4 
	BYTE	W06
	BYTE		        Ds4 
	BYTE	W06
	BYTE		        Gn4 
	BYTE	W06
	BYTE		        Gs4 
	BYTE	W06
	BYTE		        Cn5 
	BYTE	W06
	BYTE		        Gs4 
	BYTE	W06
	BYTE		        Gn4 
	BYTE	W06
	BYTE		        Ds4   v084
	BYTE	W06
// 024   ----------------------------------------
	BYTE		        Cn4 
	BYTE	W06
	BYTE		        Ds4   v088
	BYTE	W06
	BYTE		        Gn4 
	BYTE	W06
	BYTE		        Gs4   v092
	BYTE	W06
	BYTE		N48     Cn5 
	BYTE	W48
	BYTE		        Dn5   v096
	BYTE	W24
// 025   ----------------------------------------
	BYTE	W24
	BYTE		        Ds5 
	BYTE	W48
	BYTE		        Fn5   v100
	BYTE	W24
// 026   ----------------------------------------
Battle1Elona_5_026:
	BYTE	W24
	BYTE		N05     Fs5   v100
	BYTE	W06
	BYTE		N05   
	BYTE	W06
	BYTE		N05   
	BYTE	W06
	BYTE		N05   
	BYTE	W06
	BYTE		N10   
	BYTE	W48
	BYTE	PEND
// 027   ----------------------------------------
	BYTE	W96
// 028   ----------------------------------------
	BYTE	PATT
	 POIN2	Battle1Elona_5_026
// 029   ----------------------------------------
	BYTE	W72
	BYTE		N05     Gn3   v120
	BYTE	W06
	BYTE		        As3   v112
	BYTE	W06
	BYTE		        Dn4   v108
	BYTE	W06
	BYTE		        Gn4   v100
	BYTE	W06
// 030   ----------------------------------------
	BYTE		        Dn4   v120
	BYTE	W06
	BYTE		        Gn4   v112
	BYTE	W06
	BYTE		        As4   v108
	BYTE	W06
	BYTE		        Dn5   v100
	BYTE	W06
	BYTE		TIE     Cn5   v080
	BYTE	W72
// 031   ----------------------------------------
	BYTE	W72
	BYTE		EOT   
	BYTE		N48     As4 
	BYTE	W24
// 032   ----------------------------------------
	BYTE	W24
	BYTE		N72     Cn5 
	BYTE	W72
// 033   ----------------------------------------
	BYTE		N24     Dn5   v088
	BYTE	W24
	BYTE		        Ds5   v092
	BYTE	W24
	BYTE		        Dn5 
	BYTE	W24
	BYTE		        As4 
	BYTE	W24
// 034   ----------------------------------------
	BYTE		N05     Gn4   v100
	BYTE	W04
	BYTE		        Gs4   v092
	BYTE	W05
	BYTE		        An4   v088
	BYTE	W05
	BYTE		        As4   v084
	BYTE	W05
	BYTE		N04     Bn4   v080
	BYTE	W05
	BYTE		TIE     Cn5 
	BYTE	W72
// 035   ----------------------------------------
	BYTE	W72
	BYTE		EOT   
	BYTE		N48     As4 
	BYTE	W24
// 036   ----------------------------------------
	BYTE	W24
	BYTE		N96     Cn5 
	BYTE	W72
// 037   ----------------------------------------
	BYTE	W24
	BYTE		N24     Bn4 
	BYTE	W24
	BYTE		        Cn5   v088
	BYTE	W24
	BYTE		        Cs5   v092
	BYTE	W24
// 038   ----------------------------------------
	BYTE		        Dn5   v096
	BYTE	W24
	BYTE		N10     Fs4   v100
	BYTE	W12
	BYTE		N10   
	BYTE	W60
// 039   ----------------------------------------
	BYTE		N10   
	BYTE	W12
	BYTE		N10   
	BYTE	W60
	BYTE		N10   
	BYTE	W12
	BYTE		N10   
	BYTE	W12
// 040   ----------------------------------------
	BYTE	W48
	BYTE		N10   
	BYTE	W12
	BYTE		N10   
	BYTE	W12
	BYTE		N05     Cn3   v120
	BYTE	W06
	BYTE		        Ds3   v112
	BYTE	W06
	BYTE		        Fs3 
	BYTE	W06
	BYTE		        An3 
	BYTE	W06
// 041   ----------------------------------------
	BYTE		        Cn4 
	BYTE	W06
	BYTE		        Ds4 
	BYTE	W06
	BYTE		        Fs4 
	BYTE	W06
	BYTE		        An4 
	BYTE	W06
	BYTE		N10     Gn4   v100
	BYTE	W12
	BYTE		N10   
	BYTE	W60
// 042   ----------------------------------------
	BYTE		N10   
	BYTE	W12
	BYTE		N10   
	BYTE	W60
	BYTE		N10   
	BYTE	W12
	BYTE		N10   
	BYTE	W12
// 043   ----------------------------------------
	BYTE	W48
	BYTE		N10   
	BYTE	W12
	BYTE		N10   
	BYTE	W36
// 044   ----------------------------------------
	BYTE	W24
	BYTE		N96     En3   v080
	BYTE	W72
// 045   ----------------------------------------
	BYTE	W24
	BYTE		N48     Fs3 
	BYTE	W48
	BYTE		        En3 
	BYTE	W24
// 046   ----------------------------------------
	BYTE	W24
	BYTE		N24     Ds3 
	BYTE	W24
	BYTE		N48     En3 
	BYTE	W48
// 047   ----------------------------------------
	BYTE		N24     Fs3   v088
	BYTE	W24
	BYTE		        En3   v092
	BYTE	W24
	BYTE		        Ds3 
	BYTE	W24
	BYTE		        En3 
	BYTE	W24
// 048   ----------------------------------------
	BYTE		        Fs3 
	BYTE	W24
	BYTE		N96     En3   v080
	BYTE	W72
// 049   ----------------------------------------
	BYTE	W24
	BYTE		N48     Fs3 
	BYTE	W48
	BYTE		N05     En3   v120
	BYTE	W06
	BYTE		        Gn3   v112
	BYTE	W06
	BYTE		        Bn3 
	BYTE	W06
	BYTE		        En4 
	BYTE	W06
// 050   ----------------------------------------
	BYTE		        Gn4 
	BYTE	W06
	BYTE		        Bn4 
	BYTE	W06
	BYTE		N10     En5 
	BYTE	W12
	BYTE		N06     Gs5   v100
	BYTE	W06
	BYTE		        Fn5   v092
	BYTE	W06
	BYTE		        Dn5   v088
	BYTE	W06
	BYTE		N05     Bn4   v080
	BYTE	W06
	BYTE		N06     Gn5   v100
	BYTE	W06
	BYTE		        En5   v092
	BYTE	W06
	BYTE		        Cs5   v088
	BYTE	W06
	BYTE		N05     As4   v080
	BYTE	W06
	BYTE		N06     Fs5   v100
	BYTE	W06
	BYTE		        Ds5   v092
	BYTE	W06
	BYTE		        Cn5   v088
	BYTE	W06
	BYTE		N05     An4   v080
	BYTE	W06
// 051   ----------------------------------------
	BYTE		N06     Fn5   v100
	BYTE	W06
	BYTE		        Dn5   v092
	BYTE	W06
	BYTE		        Bn4   v088
	BYTE	W06
	BYTE		N05     Gs4   v080
	BYTE	W06
	BYTE		N06     En5   v100
	BYTE	W06
	BYTE		        Cs5   v092
	BYTE	W06
	BYTE		        As4   v088
	BYTE	W06
	BYTE		N05     Gn4   v080
	BYTE	W06
	BYTE		N06     Ds5   v100
	BYTE	W06
	BYTE		        Cn5   v092
	BYTE	W06
	BYTE		        An4   v088
	BYTE	W06
	BYTE		N05     Fs4   v080
	BYTE	W06
	BYTE		N06     Dn5   v100
	BYTE	W06
	BYTE		        Bn4   v092
	BYTE	W06
	BYTE		        Gs4   v088
	BYTE	W06
	BYTE		N05     Fn4   v080
	BYTE	W06
// 052   ----------------------------------------
	BYTE		N06     Cs5   v100
	BYTE	W06
	BYTE		        As4   v092
	BYTE	W06
	BYTE		        Gn4   v088
	BYTE	W06
	BYTE		N05     En4   v080
	BYTE	W06
	BYTE		N06     Cn5   v100
	BYTE	W06
	BYTE		        An4   v092
	BYTE	W06
	BYTE		        Fs4   v088
	BYTE	W06
	BYTE		N05     Ds4   v080
	BYTE	W06
	BYTE		N06     Bn4   v100
	BYTE	W06
	BYTE		        Gs4   v092
	BYTE	W06
	BYTE		        Fn4   v088
	BYTE	W06
	BYTE		N05     Dn4   v080
	BYTE	W06
	BYTE		N06     As4   v100
	BYTE	W06
	BYTE		        Gn4   v092
	BYTE	W06
	BYTE		        En4   v088
	BYTE	W06
	BYTE		N05     Cs4   v080
	BYTE	W06
// 053   ----------------------------------------
	BYTE		N06     An4   v100
	BYTE	W06
	BYTE		        Fs4   v092
	BYTE	W06
	BYTE		        Ds4   v088
	BYTE	W06
	BYTE		N05     Cn4   v080
	BYTE	W06
	BYTE		N06     Gs4   v100
	BYTE	W06
	BYTE		        Fn4   v092
	BYTE	W06
	BYTE		        Dn4   v088
	BYTE	W06
	BYTE		N05     Bn3   v080
	BYTE	W06
	BYTE		N06     Gn4   v100
	BYTE	W06
	BYTE		        En4   v092
	BYTE	W06
	BYTE		        Cs4   v088
	BYTE	W06
	BYTE		N05     As3   v080
	BYTE	W06
	BYTE		N06     Fs4   v100
	BYTE	W06
	BYTE		        Ds4   v092
	BYTE	W06
	BYTE		        Cn4   v088
	BYTE	W06
	BYTE		N05     An3   v080
	BYTE	W06
// 054   ----------------------------------------
	BYTE		N06     Fn4   v100
	BYTE	W06
	BYTE		        Dn4   v092
	BYTE	W06
	BYTE		        Bn3   v088
	BYTE	W06
	BYTE		N05     Gs3   v080
	BYTE	W06
	BYTE		N04     Gn3   v112
	BYTE	W04
	BYTE		        Gs3 
	BYTE	W04
	BYTE		        An3   v108
	BYTE	W04
	BYTE		        As3 
	BYTE	W04
	BYTE		        Bn3 
	BYTE	W04
	BYTE		        Cn4 
	BYTE	W04
	BYTE		        Cs4   v104
	BYTE	W04
	BYTE		        Dn4 
	BYTE	W04
	BYTE		        Ds4 
	BYTE	W04
	BYTE		        En4 
	BYTE	W04
	BYTE		        Fn4   v100
	BYTE	W04
	BYTE		        Fs4 
	BYTE	W04
	BYTE		        Gn4 
	BYTE	W04
	BYTE		        Gs4 
	BYTE	W04
	BYTE		        An4 
	BYTE	W04
	BYTE		        As4   v104
	BYTE	W04
	BYTE		        Bn4 
	BYTE	W04
	BYTE		        Cn5 
	BYTE	W04
// 055   ----------------------------------------
	BYTE		        Cs5 
	BYTE	W04
	BYTE		        Dn5   v108
	BYTE	W04
	BYTE		        Ds5 
	BYTE	W04
	BYTE		        En5 
	BYTE	W04
	BYTE		        Fn5 
	BYTE	W04
	BYTE		        Fs5   v112
	BYTE	W04
	BYTE		        Gn5 
	BYTE	W04
	BYTE		        Fs5 
	BYTE	W04
	BYTE		        Fn5   v108
	BYTE	W04
	BYTE		        En5 
	BYTE	W04
	BYTE		        Ds5 
	BYTE	W04
	BYTE		        Dn5 
	BYTE	W04
	BYTE		        Cs5   v104
	BYTE	W04
	BYTE		        Cn5 
	BYTE	W04
	BYTE		        Bn4 
	BYTE	W04
	BYTE		        As4 
	BYTE	W04
	BYTE		        An4   v100
	BYTE	W04
	BYTE		        Gs4 
	BYTE	W04
	BYTE		        Gn4 
	BYTE	W04
	BYTE		        Fs4 
	BYTE	W04
	BYTE		        Fn4 
	BYTE	W04
	BYTE		        En4   v104
	BYTE	W04
	BYTE		        Ds4 
	BYTE	W04
	BYTE		        Dn4 
	BYTE	W04
// 056   ----------------------------------------
	BYTE		        Cs4 
	BYTE	W04
	BYTE		        Cn4   v108
	BYTE	W04
	BYTE		        Bn3 
	BYTE	W04
	BYTE		        As3 
	BYTE	W04
	BYTE		        An3 
	BYTE	W04
	BYTE		        Gs3   v112
	BYTE	W04
	BYTE		TIE     Gn3 
	BYTE	W72
// 057   ----------------------------------------
	BYTE	W96
	BYTE		EOT   
	BYTE	GoTo
	 POIN2	Battle1Elona_5_B1
Battle1Elona_5_B2:
// 058   ----------------------------------------
	BYTE	W24
	BYTE	FINE

//**************** Track 6 (Midi-Chn.6) ****************//

Battle1Elona_6:
	BYTE	KEYSH   Battle1Elona_key+0
Battle1Elona_6_B1:
// 000   ----------------------------------------
	BYTE		VOICE   48
	BYTE		VOL     76*Battle1Elona_mvl/mxv
	BYTE		PAN     c_v+30
	BYTE	W96
// 001   ----------------------------------------
	BYTE	W96
// 002   ----------------------------------------
	BYTE	W96
// 003   ----------------------------------------
	BYTE	W96
// 004   ----------------------------------------
	BYTE	W24
	BYTE		N05     Ds3   v120
	BYTE	W06
	BYTE		        En3   v116
	BYTE	W06
	BYTE		        Gn3   v112
	BYTE	W06
	BYTE		        Ds4 
	BYTE	W06
	BYTE		        En4 
	BYTE	W06
	BYTE		        Gn4 
	BYTE	W06
	BYTE		        Gs4 
	BYTE	W06
	BYTE		        Gn4 
	BYTE	W06
	BYTE		        Fn4 
	BYTE	W06
	BYTE		        Gs3 
	BYTE	W06
	BYTE		        Gn3 
	BYTE	W06
	BYTE		        Fn3 
	BYTE	W06
// 005   ----------------------------------------
	BYTE	W96
// 006   ----------------------------------------
	BYTE	W96
// 007   ----------------------------------------
	BYTE	W96
// 008   ----------------------------------------
	BYTE	W96
// 009   ----------------------------------------
	BYTE	W72
	BYTE		        Dn2 
	BYTE	W06
	BYTE		        Fs2 
	BYTE	W06
	BYTE		        An2 
	BYTE	W06
	BYTE		        Dn3 
	BYTE	W06
// 010   ----------------------------------------
	BYTE		        Fs3 
	BYTE	W06
	BYTE		        An3 
	BYTE	W06
	BYTE		        As3 
	BYTE	W06
	BYTE		        Dn4 
	BYTE	W06
	BYTE		N10   
	BYTE	W24
	BYTE		N06     Gn3   v080
	BYTE	W06
	BYTE		        Cn4 
	BYTE	W06
	BYTE		        Ds4 
	BYTE	W06
	BYTE		        Gn4 
	BYTE	W06
	BYTE		N06   
	BYTE	W06
	BYTE		        Ds4 
	BYTE	W06
	BYTE		        Cn4 
	BYTE	W06
	BYTE		        As3 
	BYTE	W06
// 011   ----------------------------------------
Battle1Elona_6_011:
	BYTE		N06     Gn3   v080
	BYTE	W06
	BYTE		        Ds3 
	BYTE	W06
	BYTE		        Cn3 
	BYTE	W06
	BYTE		        Gn2 
	BYTE	W06
	BYTE		N06   
	BYTE	W06
	BYTE		        Bn2 
	BYTE	W06
	BYTE		        Ds3 
	BYTE	W06
	BYTE		        Gn3 
	BYTE	W06
	BYTE		        An3 
	BYTE	W06
	BYTE		        Bn3 
	BYTE	W06
	BYTE		        Ds4 
	BYTE	W06
	BYTE		N06   
	BYTE	W06
	BYTE		        Gn4 
	BYTE	W06
	BYTE		        Ds4 
	BYTE	W06
	BYTE		        Bn3 
	BYTE	W06
	BYTE		        An3 
	BYTE	W06
	BYTE	PEND
// 012   ----------------------------------------
Battle1Elona_6_012:
	BYTE		N06     Gn3   v080
	BYTE	W06
	BYTE		        Ds3 
	BYTE	W06
	BYTE		        Bn2 
	BYTE	W06
	BYTE		        Gn2 
	BYTE	W06
	BYTE		N06   
	BYTE	W06
	BYTE		        Cn3 
	BYTE	W06
	BYTE		        Ds3 
	BYTE	W06
	BYTE		        Gn3 
	BYTE	W06
	BYTE		        As3 
	BYTE	W06
	BYTE		        Cn4 
	BYTE	W06
	BYTE		        Ds4 
	BYTE	W06
	BYTE		        Gn4 
	BYTE	W06
	BYTE		N06   
	BYTE	W06
	BYTE		        Ds4 
	BYTE	W06
	BYTE		        Cn4 
	BYTE	W06
	BYTE		        As3 
	BYTE	W06
	BYTE	PEND
// 013   ----------------------------------------
Battle1Elona_6_013:
	BYTE		N06     Gn3   v080
	BYTE	W06
	BYTE		        Ds3 
	BYTE	W06
	BYTE		        Cn3 
	BYTE	W06
	BYTE		        Gn2 
	BYTE	W06
	BYTE		N06   
	BYTE	W06
	BYTE		        Bn2 
	BYTE	W06
	BYTE		        Dn3 
	BYTE	W06
	BYTE		        Fn3 
	BYTE	W06
	BYTE		        Gn3 
	BYTE	W06
	BYTE		        Bn3 
	BYTE	W06
	BYTE		        Dn4 
	BYTE	W06
	BYTE		        Fn4 
	BYTE	W06
	BYTE		        Gn4 
	BYTE	W06
	BYTE		        Fn4 
	BYTE	W06
	BYTE		        Dn4 
	BYTE	W06
	BYTE		        Bn3 
	BYTE	W06
	BYTE	PEND
// 014   ----------------------------------------
Battle1Elona_6_014:
	BYTE		N06     Gn3   v080
	BYTE	W06
	BYTE		        Fn3 
	BYTE	W06
	BYTE		        Dn3 
	BYTE	W06
	BYTE		        Bn2 
	BYTE	W06
	BYTE		        Gn2 
	BYTE	W06
	BYTE		        Cn3 
	BYTE	W06
	BYTE		        Ds3 
	BYTE	W06
	BYTE		        Gn3 
	BYTE	W06
	BYTE		        As3 
	BYTE	W06
	BYTE		        Cn4 
	BYTE	W06
	BYTE		        Ds4 
	BYTE	W06
	BYTE		        Gn4 
	BYTE	W06
	BYTE		N06   
	BYTE	W06
	BYTE		        Ds4 
	BYTE	W06
	BYTE		        Bn3 
	BYTE	W06
	BYTE		        An3 
	BYTE	W06
	BYTE	PEND
// 015   ----------------------------------------
	BYTE		        Gn3 
	BYTE	W06
	BYTE		        Ds3 
	BYTE	W06
	BYTE		        Bn2 
	BYTE	W06
	BYTE		        Gn2 
	BYTE	W06
	BYTE		        Gs2 
	BYTE	W06
	BYTE		        Dn3 
	BYTE	W06
	BYTE		        Fn3 
	BYTE	W06
	BYTE		        Gs3 
	BYTE	W06
	BYTE		        Dn3 
	BYTE	W06
	BYTE		        Fn3 
	BYTE	W06
	BYTE		        Gs3 
	BYTE	W06
	BYTE		        Dn4 
	BYTE	W06
	BYTE		        Fn4 
	BYTE	W06
	BYTE		        Dn4 
	BYTE	W06
	BYTE		        Gs3 
	BYTE	W06
	BYTE		        Fn3 
	BYTE	W06
// 016   ----------------------------------------
	BYTE		N06   
	BYTE	W06
	BYTE		        Gs3 
	BYTE	W06
	BYTE		        Cn4   v084
	BYTE	W06
	BYTE		        Dn4 
	BYTE	W06
	BYTE		N10     Ds4 
	BYTE	W12
	BYTE		N06     Gn3 
	BYTE	W06
	BYTE		        Gs3   v088
	BYTE	W06
	BYTE		        As3 
	BYTE	W06
	BYTE		        Cn4 
	BYTE	W06
	BYTE		        Dn4 
	BYTE	W06
	BYTE		        Ds4 
	BYTE	W06
	BYTE		N10     Fn4 
	BYTE	W12
	BYTE		N06     Gs3   v092
	BYTE	W06
	BYTE		        As3 
	BYTE	W06
// 017   ----------------------------------------
	BYTE		        Cn4 
	BYTE	W06
	BYTE		        Dn4 
	BYTE	W06
	BYTE		        Ds4   v096
	BYTE	W06
	BYTE		        Fn4 
	BYTE	W06
	BYTE		N10     Gn4 
	BYTE	W12
	BYTE		N06     As3 
	BYTE	W06
	BYTE		        Cn4   v100
	BYTE	W06
	BYTE		        Dn4 
	BYTE	W06
	BYTE		        Ds4 
	BYTE	W06
	BYTE		        Fn4 
	BYTE	W06
	BYTE		        Gn4 
	BYTE	W06
	BYTE		        Gs4 
	BYTE	W06
	BYTE		        Fn4 
	BYTE	W06
	BYTE		        Dn4   v096
	BYTE	W06
	BYTE		        Gs3 
	BYTE	W06
// 018   ----------------------------------------
	BYTE		        Gn3   v092
	BYTE	W06
	BYTE		        Fn3   v088
	BYTE	W06
	BYTE		        Dn3 
	BYTE	W06
	BYTE		        Bn2   v084
	BYTE	W06
	BYTE		        Gn2   v080
	BYTE	W06
	BYTE		        Cn3 
	BYTE	W06
	BYTE		        Ds3 
	BYTE	W06
	BYTE		        Gn3 
	BYTE	W06
	BYTE		        As3 
	BYTE	W06
	BYTE		        Cn4 
	BYTE	W06
	BYTE		        Ds4 
	BYTE	W06
	BYTE		        Gn4 
	BYTE	W06
	BYTE		N06   
	BYTE	W06
	BYTE		        Ds4 
	BYTE	W06
	BYTE		        Cn4 
	BYTE	W06
	BYTE		        As3 
	BYTE	W06
// 019   ----------------------------------------
	BYTE	PATT
	 POIN2	Battle1Elona_6_011
// 020   ----------------------------------------
	BYTE	PATT
	 POIN2	Battle1Elona_6_012
// 021   ----------------------------------------
	BYTE	PATT
	 POIN2	Battle1Elona_6_013
// 022   ----------------------------------------
	BYTE	PATT
	 POIN2	Battle1Elona_6_014
// 023   ----------------------------------------
	BYTE		N06     Gn3   v080
	BYTE	W06
	BYTE		        Ds3 
	BYTE	W06
	BYTE		        Bn2 
	BYTE	W06
	BYTE		        Gn2 
	BYTE	W06
	BYTE		N06   
	BYTE	W06
	BYTE		        Cn3 
	BYTE	W06
	BYTE		        Ds3 
	BYTE	W06
	BYTE		        Gn3 
	BYTE	W06
	BYTE		        Gs3 
	BYTE	W06
	BYTE		        Cn4 
	BYTE	W06
	BYTE		        Ds4 
	BYTE	W06
	BYTE		        Gn4 
	BYTE	W06
	BYTE		N06   
	BYTE	W06
	BYTE		        Ds4 
	BYTE	W06
	BYTE		        Cn4 
	BYTE	W06
	BYTE		        As3   v084
	BYTE	W06
// 024   ----------------------------------------
	BYTE		        Gn3 
	BYTE	W06
	BYTE		        Ds3   v088
	BYTE	W06
	BYTE		        Cn3 
	BYTE	W06
	BYTE		        Ds3   v092
	BYTE	W06
	BYTE		N48     Gs3 
	BYTE	W48
	BYTE		        As3   v096
	BYTE	W24
// 025   ----------------------------------------
	BYTE	W24
	BYTE		        Bn3 
	BYTE	W48
	BYTE		        Cs4   v100
	BYTE	W24
// 026   ----------------------------------------
Battle1Elona_6_026:
	BYTE	W24
	BYTE		N05     Ds4   v100
	BYTE	W06
	BYTE		N05   
	BYTE	W06
	BYTE		N05   
	BYTE	W06
	BYTE		N05   
	BYTE	W06
	BYTE		N10   
	BYTE	W48
	BYTE	PEND
// 027   ----------------------------------------
	BYTE	W96
// 028   ----------------------------------------
	BYTE	PATT
	 POIN2	Battle1Elona_6_026
// 029   ----------------------------------------
	BYTE	W72
	BYTE		N05     As2   v120
	BYTE	W06
	BYTE		        Dn3   v112
	BYTE	W06
	BYTE		        Gn3   v108
	BYTE	W06
	BYTE		        As3   v100
	BYTE	W06
// 030   ----------------------------------------
	BYTE		        Gn3   v120
	BYTE	W06
	BYTE		        As3   v112
	BYTE	W06
	BYTE		        Dn4   v108
	BYTE	W06
	BYTE		        Fn4   v100
	BYTE	W06
	BYTE		TIE     Gn4   v080
	BYTE	W72
// 031   ----------------------------------------
	BYTE	W72
	BYTE		EOT   
	BYTE		N48     Fn4 
	BYTE	W24
// 032   ----------------------------------------
	BYTE	W24
	BYTE		N72     Gn4 
	BYTE	W72
// 033   ----------------------------------------
	BYTE		N24     Fn4   v088
	BYTE	W24
	BYTE		        Gn4   v092
	BYTE	W24
	BYTE		        Fn4 
	BYTE	W24
	BYTE		        Dn4 
	BYTE	W24
// 034   ----------------------------------------
	BYTE		N05     Dn4   v100
	BYTE	W04
	BYTE		        Ds4   v092
	BYTE	W05
	BYTE		        En4   v088
	BYTE	W05
	BYTE		        Fn4   v084
	BYTE	W05
	BYTE		N04     Fs4   v080
	BYTE	W05
	BYTE		TIE     Gn4 
	BYTE	W72
// 035   ----------------------------------------
	BYTE	W72
	BYTE		EOT   
	BYTE		N48     Fn4 
	BYTE	W24
// 036   ----------------------------------------
	BYTE	W24
	BYTE		N96     Gn4 
	BYTE	W72
// 037   ----------------------------------------
	BYTE	W24
	BYTE		N24     Fn4 
	BYTE	W24
	BYTE		        Fs4   v088
	BYTE	W24
	BYTE		        Gn4   v092
	BYTE	W24
// 038   ----------------------------------------
	BYTE		        Gs4   v096
	BYTE	W24
	BYTE		N10     Ds4   v100
	BYTE	W12
	BYTE		N10   
	BYTE	W60
// 039   ----------------------------------------
	BYTE		N10   
	BYTE	W12
	BYTE		N10   
	BYTE	W60
	BYTE		N10   
	BYTE	W12
	BYTE		N10   
	BYTE	W12
// 040   ----------------------------------------
	BYTE	W48
	BYTE		N10   
	BYTE	W12
	BYTE		N10   
	BYTE	W12
	BYTE		N05     An2   v120
	BYTE	W06
	BYTE		        Cn3   v112
	BYTE	W06
	BYTE		        Ds3 
	BYTE	W06
	BYTE		        Fs3 
	BYTE	W06
// 041   ----------------------------------------
	BYTE		        An3 
	BYTE	W06
	BYTE		        Cn4 
	BYTE	W06
	BYTE		        Ds4 
	BYTE	W06
	BYTE		        Fs4 
	BYTE	W06
	BYTE		N10     En4   v100
	BYTE	W12
	BYTE		N10   
	BYTE	W60
// 042   ----------------------------------------
	BYTE		N10   
	BYTE	W12
	BYTE		N10   
	BYTE	W60
	BYTE		N10   
	BYTE	W12
	BYTE		N10   
	BYTE	W12
// 043   ----------------------------------------
	BYTE	W48
	BYTE		N10   
	BYTE	W12
	BYTE		N10   
	BYTE	W36
// 044   ----------------------------------------
	BYTE	W24
	BYTE		N96     Bn2   v080
	BYTE	W72
// 045   ----------------------------------------
	BYTE	W24
	BYTE		N48   
	BYTE	W48
	BYTE		N48   
	BYTE	W24
// 046   ----------------------------------------
	BYTE	W24
	BYTE		N24   
	BYTE	W24
	BYTE		N48   
	BYTE	W48
// 047   ----------------------------------------
	BYTE		N24     An2   v088
	BYTE	W24
	BYTE		        Bn2   v092
	BYTE	W24
	BYTE		N24   
	BYTE	W24
	BYTE		N24   
	BYTE	W24
// 048   ----------------------------------------
	BYTE		N12     Cn3 
	BYTE	W12
	BYTE		        Dn3   v088
	BYTE	W12
	BYTE		N96     Bn2   v080
	BYTE	W72
// 049   ----------------------------------------
	BYTE	W24
	BYTE		N48   
	BYTE	W48
	BYTE		N05     Bn2   v120
	BYTE	W06
	BYTE		        En3   v112
	BYTE	W06
	BYTE		        Gn3 
	BYTE	W06
	BYTE		        Bn3 
	BYTE	W06
// 050   ----------------------------------------
	BYTE		        En4 
	BYTE	W06
	BYTE		        Gn4 
	BYTE	W06
	BYTE		N10     Bn4 
	BYTE	W12
	BYTE		N06     Fn5   v100
	BYTE	W06
	BYTE		        Dn5   v092
	BYTE	W06
	BYTE		        Bn4   v088
	BYTE	W06
	BYTE		N05     Gs4   v080
	BYTE	W06
	BYTE		N06     En5   v100
	BYTE	W06
	BYTE		        Cs5   v092
	BYTE	W06
	BYTE		        As4   v088
	BYTE	W06
	BYTE		N05     Gn4   v080
	BYTE	W06
	BYTE		N06     Ds5   v100
	BYTE	W06
	BYTE		        Cn5   v092
	BYTE	W06
	BYTE		        An4   v088
	BYTE	W06
	BYTE		N05     Fs4   v080
	BYTE	W06
// 051   ----------------------------------------
	BYTE		N06     Dn5   v100
	BYTE	W06
	BYTE		        Bn4   v092
	BYTE	W06
	BYTE		        Gs4   v088
	BYTE	W06
	BYTE		N05     Fn4   v080
	BYTE	W06
	BYTE		N06     Cs5   v100
	BYTE	W06
	BYTE		        As4   v092
	BYTE	W06
	BYTE		        Gn4   v088
	BYTE	W06
	BYTE		N05     En4   v080
	BYTE	W06
	BYTE		N06     Cn5   v100
	BYTE	W06
	BYTE		        An4   v092
	BYTE	W06
	BYTE		        Fs4   v088
	BYTE	W06
	BYTE		N05     Ds4   v080
	BYTE	W06
	BYTE		N06     Bn4   v100
	BYTE	W06
	BYTE		        Gs4   v092
	BYTE	W06
	BYTE		        Fn4   v088
	BYTE	W06
	BYTE		N05     Dn4   v080
	BYTE	W06
// 052   ----------------------------------------
	BYTE		N06     As4   v100
	BYTE	W06
	BYTE		        Gn4   v092
	BYTE	W06
	BYTE		        En4   v088
	BYTE	W06
	BYTE		N05     Cs4   v080
	BYTE	W06
	BYTE		N06     An4   v100
	BYTE	W06
	BYTE		        Fs4   v092
	BYTE	W06
	BYTE		        Ds4   v088
	BYTE	W06
	BYTE		N05     Cn4   v080
	BYTE	W06
	BYTE		N06     Gs4   v100
	BYTE	W06
	BYTE		        Fn4   v092
	BYTE	W06
	BYTE		        Dn4   v088
	BYTE	W06
	BYTE		N05     Bn3   v080
	BYTE	W06
	BYTE		N06     Gn4   v100
	BYTE	W06
	BYTE		        En4   v092
	BYTE	W06
	BYTE		        Cs4   v088
	BYTE	W06
	BYTE		N05     As3   v080
	BYTE	W06
// 053   ----------------------------------------
	BYTE		N06     Fs4   v100
	BYTE	W06
	BYTE		        Ds4   v092
	BYTE	W06
	BYTE		        Cn4   v088
	BYTE	W06
	BYTE		N05     An3   v080
	BYTE	W06
	BYTE		N06     Fn4   v100
	BYTE	W06
	BYTE		        Dn4   v092
	BYTE	W06
	BYTE		        Bn3   v088
	BYTE	W06
	BYTE		N05     Gs3   v080
	BYTE	W06
	BYTE		N06     En4   v100
	BYTE	W06
	BYTE		        Cs4   v092
	BYTE	W06
	BYTE		        As3   v088
	BYTE	W06
	BYTE		N05     Gn3   v080
	BYTE	W06
	BYTE		N06     Ds4   v100
	BYTE	W06
	BYTE		        Cn4   v092
	BYTE	W06
	BYTE		        An3   v088
	BYTE	W06
	BYTE		N05     Fs3   v080
	BYTE	W06
// 054   ----------------------------------------
	BYTE		N06     Dn4   v100
	BYTE	W06
	BYTE		        Bn3   v092
	BYTE	W06
	BYTE		        Gs3   v088
	BYTE	W06
	BYTE		N05     Fn3   v080
	BYTE	W06
	BYTE		N04     Ds3   v112
	BYTE	W04
	BYTE		        En3 
	BYTE	W04
	BYTE		        Fn3   v108
	BYTE	W04
	BYTE		        Fs3 
	BYTE	W04
	BYTE		        Gn3 
	BYTE	W04
	BYTE		        Gs3 
	BYTE	W04
	BYTE		        An3   v104
	BYTE	W04
	BYTE		        As3 
	BYTE	W04
	BYTE		        Bn3 
	BYTE	W04
	BYTE		        Cn4 
	BYTE	W04
	BYTE		        Cs4   v100
	BYTE	W04
	BYTE		        Dn4 
	BYTE	W04
	BYTE		        Ds4 
	BYTE	W04
	BYTE		        En4 
	BYTE	W04
	BYTE		        Fn4 
	BYTE	W04
	BYTE		        Fs4   v104
	BYTE	W04
	BYTE		        Gn4 
	BYTE	W04
	BYTE		        Gs4 
	BYTE	W04
// 055   ----------------------------------------
	BYTE		        An4 
	BYTE	W04
	BYTE		        As4   v108
	BYTE	W04
	BYTE		        Bn4 
	BYTE	W04
	BYTE		        Cn5 
	BYTE	W04
	BYTE		        Cs5 
	BYTE	W04
	BYTE		        Dn5   v112
	BYTE	W04
	BYTE		        Ds5 
	BYTE	W04
	BYTE		        Dn5 
	BYTE	W04
	BYTE		        Cs5   v108
	BYTE	W04
	BYTE		        Cn5 
	BYTE	W04
	BYTE		        Bn4 
	BYTE	W04
	BYTE		        As4 
	BYTE	W04
	BYTE		        An4   v104
	BYTE	W04
	BYTE		        Gs4 
	BYTE	W04
	BYTE		        Gn4 
	BYTE	W04
	BYTE		        Fs4 
	BYTE	W04
	BYTE		        Fn4   v100
	BYTE	W04
	BYTE		        En4 
	BYTE	W04
	BYTE		        Ds4 
	BYTE	W04
	BYTE		        Dn4 
	BYTE	W04
	BYTE		        Cs4 
	BYTE	W04
	BYTE		        Cn4   v104
	BYTE	W04
	BYTE		        Bn3 
	BYTE	W04
	BYTE		        As3 
	BYTE	W04
// 056   ----------------------------------------
	BYTE		        An3 
	BYTE	W04
	BYTE		        Gs3   v108
	BYTE	W04
	BYTE		        Gn3 
	BYTE	W04
	BYTE		        Fs3 
	BYTE	W04
	BYTE		        Fn3 
	BYTE	W04
	BYTE		        En3   v112
	BYTE	W04
	BYTE		TIE     Ds3 
	BYTE	W72
// 057   ----------------------------------------
	BYTE	W96
	BYTE		EOT   
	BYTE	GoTo
	 POIN2	Battle1Elona_6_B1
Battle1Elona_6_B2:
// 058   ----------------------------------------
	BYTE	W24
	BYTE	FINE

//**************** Track 7 (Midi-Chn.7) ****************//

Battle1Elona_7:
	BYTE	KEYSH   Battle1Elona_key+0
Battle1Elona_7_B1:
// 000   ----------------------------------------
	BYTE		VOICE   48
	BYTE		VOL     76*Battle1Elona_mvl/mxv
	BYTE		PAN     c_v+0
	BYTE	W96
// 001   ----------------------------------------
	BYTE	W96
// 002   ----------------------------------------
	BYTE	W96
// 003   ----------------------------------------
	BYTE	W96
// 004   ----------------------------------------
	BYTE	W96
// 005   ----------------------------------------
	BYTE	W96
// 006   ----------------------------------------
	BYTE	W96
// 007   ----------------------------------------
	BYTE	W96
// 008   ----------------------------------------
	BYTE	W96
// 009   ----------------------------------------
	BYTE	W96
// 010   ----------------------------------------
	BYTE	W96
// 011   ----------------------------------------
	BYTE	W96
// 012   ----------------------------------------
	BYTE	W96
// 013   ----------------------------------------
	BYTE	W96
// 014   ----------------------------------------
	BYTE	W96
// 015   ----------------------------------------
	BYTE	W96
// 016   ----------------------------------------
	BYTE	W96
// 017   ----------------------------------------
	BYTE	W96
// 018   ----------------------------------------
	BYTE	W96
// 019   ----------------------------------------
	BYTE	W96
// 020   ----------------------------------------
	BYTE	W96
// 021   ----------------------------------------
	BYTE	W96
// 022   ----------------------------------------
	BYTE	W96
// 023   ----------------------------------------
	BYTE	W96
// 024   ----------------------------------------
	BYTE	W96
// 025   ----------------------------------------
	BYTE	W96
// 026   ----------------------------------------
Battle1Elona_7_026:
	BYTE	W24
	BYTE		N05     Cn5   v100
	BYTE	W06
	BYTE		N05   
	BYTE	W06
	BYTE		N05   
	BYTE	W06
	BYTE		N05   
	BYTE	W06
	BYTE		N10   
	BYTE	W48
	BYTE	PEND
// 027   ----------------------------------------
	BYTE	W96
// 028   ----------------------------------------
	BYTE	PATT
	 POIN2	Battle1Elona_7_026
// 029   ----------------------------------------
	BYTE	W96
// 030   ----------------------------------------
	BYTE	W96
// 031   ----------------------------------------
	BYTE	W96
// 032   ----------------------------------------
	BYTE	W96
// 033   ----------------------------------------
	BYTE	W96
// 034   ----------------------------------------
	BYTE	W96
// 035   ----------------------------------------
	BYTE	W96
// 036   ----------------------------------------
	BYTE	W96
// 037   ----------------------------------------
	BYTE	W96
// 038   ----------------------------------------
	BYTE	W24
	BYTE		N10     Ds5   v100
	BYTE	W12
	BYTE		N10   
	BYTE	W60
// 039   ----------------------------------------
	BYTE	W96
// 040   ----------------------------------------
	BYTE	W96
// 041   ----------------------------------------
	BYTE	W24
	BYTE		        En5 
	BYTE	W12
	BYTE		N10   
	BYTE	W60
// 042   ----------------------------------------
	BYTE	W96
// 043   ----------------------------------------
	BYTE	W96
// 044   ----------------------------------------
	BYTE	W96
// 045   ----------------------------------------
	BYTE	W96
// 046   ----------------------------------------
	BYTE	W96
// 047   ----------------------------------------
	BYTE	W96
// 048   ----------------------------------------
	BYTE	W96
// 049   ----------------------------------------
	BYTE	W96
// 050   ----------------------------------------
	BYTE	W96
// 051   ----------------------------------------
	BYTE	W96
// 052   ----------------------------------------
	BYTE	W96
// 053   ----------------------------------------
	BYTE	W96
// 054   ----------------------------------------
	BYTE	W96
// 055   ----------------------------------------
	BYTE	W96
// 056   ----------------------------------------
	BYTE	W96
// 057   ----------------------------------------
	BYTE	W96
	BYTE	GoTo
	 POIN2	Battle1Elona_7_B1
Battle1Elona_7_B2:
// 058   ----------------------------------------
	BYTE	W24
	BYTE	FINE

//**************** Track 8 (Midi-Chn.8) ****************//

Battle1Elona_8:
	BYTE	KEYSH   Battle1Elona_key+0
Battle1Elona_8_B1:
// 000   ----------------------------------------
	BYTE		VOICE   60
	BYTE		PAN     c_v-20
	BYTE		VOL     85*Battle1Elona_mvl/mxv
	BYTE	W96
// 001   ----------------------------------------
	BYTE	W96
// 002   ----------------------------------------
	BYTE	W72
	BYTE	W24
// 003   ----------------------------------------
	BYTE	W48
	BYTE		N20     Fn2   v112
	BYTE		N20     Cn3 
	BYTE	W24
	BYTE		        Gn2 
	BYTE		N20     Dn3 
	BYTE	W24
// 004   ----------------------------------------
	BYTE		        Gs2 
	BYTE		N20     Ds3 
	BYTE	W24
	BYTE		N84     Cn3 
	BYTE		N84     Gn3 
	BYTE	W24
	BYTE	W01
	BYTE	W08
	BYTE	W03
	BYTE	W03
	BYTE	W01
	BYTE	W03
	BYTE	W02
	BYTE	W01
	BYTE	W02
	BYTE	W01
	BYTE	W02
	BYTE	W01
	BYTE	W02
	BYTE	W01
	BYTE	W02
	BYTE	W01
	BYTE	W02
	BYTE	W01
	BYTE	W02
	BYTE	W01
	BYTE	W02
	BYTE	W01
	BYTE	W02
	BYTE	W01
	BYTE	W02
// 005   ----------------------------------------
	BYTE	W01
	BYTE	W02
	BYTE	W01
	BYTE	W02
	BYTE	W01
	BYTE	W02
	BYTE	W01
	BYTE	W02
	BYTE	W01
	BYTE	W02
	BYTE	W01
	BYTE	W02
	BYTE	W78
// 006   ----------------------------------------
	BYTE	W96
// 007   ----------------------------------------
	BYTE	W96
// 008   ----------------------------------------
	BYTE	W96
// 009   ----------------------------------------
	BYTE	W96
// 010   ----------------------------------------
	BYTE	W96
// 011   ----------------------------------------
	BYTE	W96
// 012   ----------------------------------------
	BYTE	W96
// 013   ----------------------------------------
	BYTE	W96
// 014   ----------------------------------------
	BYTE	W96
// 015   ----------------------------------------
	BYTE	W96
// 016   ----------------------------------------
	BYTE	W96
// 017   ----------------------------------------
	BYTE	W96
// 018   ----------------------------------------
	BYTE	W48
	BYTE		N24     Gn2 
	BYTE	W24
	BYTE		N16     Cn3 
	BYTE	W16
	BYTE		        Ds3 
	BYTE	W08
// 019   ----------------------------------------
	BYTE	W08
	BYTE		        Gn3 
	BYTE	W16
	BYTE		N12   
	BYTE	W12
	BYTE		        Ds3 
	BYTE	W12
	BYTE		N72     Bn2 
	BYTE	W48
// 020   ----------------------------------------
	BYTE	W48
	BYTE		N24     Gn2 
	BYTE	W24
	BYTE		N16     Cn3 
	BYTE	W16
	BYTE		        Gn3 
	BYTE	W08
// 021   ----------------------------------------
	BYTE	W08
	BYTE		        Ds3 
	BYTE	W16
	BYTE		N12     Dn3 
	BYTE	W12
	BYTE		        Fn3 
	BYTE	W12
	BYTE		N72     Gn3 
	BYTE	W48
// 022   ----------------------------------------
	BYTE	W48
	BYTE		N24   
	BYTE	W24
	BYTE		N16   
	BYTE	W16
	BYTE		N16   
	BYTE	W08
// 023   ----------------------------------------
	BYTE	W08
	BYTE		N16   
	BYTE	W16
	BYTE		N72   
	BYTE	W72
// 024   ----------------------------------------
	BYTE	W24
	BYTE		N48     Ds3   v096
	BYTE	W48
	BYTE		        Fn3   v100
	BYTE	W24
// 025   ----------------------------------------
	BYTE	W24
	BYTE		        Fs3   v108
	BYTE	W48
	BYTE		        Gs3   v112
	BYTE	W24
// 026   ----------------------------------------
Battle1Elona_8_026:
	BYTE	W24
	BYTE		N05     An3   v120
	BYTE	W06
	BYTE		N05   
	BYTE	W06
	BYTE		N05   
	BYTE	W06
	BYTE		N05   
	BYTE	W06
	BYTE		N10   
	BYTE	W48
	BYTE	PEND
// 027   ----------------------------------------
	BYTE	W96
// 028   ----------------------------------------
	BYTE	PATT
	 POIN2	Battle1Elona_8_026
// 029   ----------------------------------------
	BYTE	W96
// 030   ----------------------------------------
	BYTE	W24
	BYTE		TIE     Ds3   v100
	BYTE	W72
// 031   ----------------------------------------
	BYTE	W72
	BYTE		EOT   
	BYTE		N16     As2 
	BYTE	W16
	BYTE		        Cn3 
	BYTE	W08
// 032   ----------------------------------------
Battle1Elona_8_032:
	BYTE	W08
	BYTE		N16     Dn3   v100
	BYTE	W16
	BYTE		N96     Ds3 
	BYTE	W72
	BYTE	PEND
// 033   ----------------------------------------
	BYTE	W24
	BYTE		N24   
	BYTE	W24
	BYTE		        Dn3 
	BYTE	W24
	BYTE		        As2 
	BYTE	W24
// 034   ----------------------------------------
	BYTE		        Gn2 
	BYTE	W24
	BYTE		TIE     Ds3 
	BYTE	W72
// 035   ----------------------------------------
	BYTE	W72
	BYTE		EOT   
	BYTE		N16     As2 
	BYTE	W16
	BYTE		        Cn3 
	BYTE	W08
// 036   ----------------------------------------
	BYTE	PATT
	 POIN2	Battle1Elona_8_032
// 037   ----------------------------------------
	BYTE	W24
	BYTE		N24     Dn3   v100
	BYTE	W24
	BYTE		        Ds3   v108
	BYTE	W24
	BYTE		        En3   v112
	BYTE	W24
// 038   ----------------------------------------
	BYTE		        Fn3   v116
	BYTE	W24
	BYTE		N10     Fs3   v120
	BYTE	W12
	BYTE		N10   
	BYTE	W60
// 039   ----------------------------------------
	BYTE		N10   
	BYTE	W12
	BYTE		N10   
	BYTE	W60
	BYTE		N10   
	BYTE	W12
	BYTE		N10   
	BYTE	W12
// 040   ----------------------------------------
	BYTE	W48
	BYTE		N10   
	BYTE	W12
	BYTE		N10   
	BYTE	W12
	BYTE		N04     Cn3 
	BYTE	W04
	BYTE		        Cs3   v116
	BYTE	W04
	BYTE		        Dn3   v112
	BYTE	W04
	BYTE		        Ds3   v108
	BYTE	W04
	BYTE		        En3   v112
	BYTE	W04
	BYTE		        Fn3   v116
	BYTE	W04
// 041   ----------------------------------------
	BYTE		N23     Fs3   v120
	BYTE	W24
	BYTE		N10     Gn3 
	BYTE	W12
	BYTE		N10   
	BYTE	W60
// 042   ----------------------------------------
	BYTE		N10   
	BYTE	W12
	BYTE		N10   
	BYTE	W60
	BYTE		N10   
	BYTE	W12
	BYTE		N10   
	BYTE	W12
// 043   ----------------------------------------
	BYTE	W48
	BYTE		N10   
	BYTE	W12
	BYTE		N10   
	BYTE	W36
// 044   ----------------------------------------
	BYTE	W96
// 045   ----------------------------------------
	BYTE	W96
// 046   ----------------------------------------
	BYTE	W96
// 047   ----------------------------------------
	BYTE	W96
// 048   ----------------------------------------
	BYTE	W96
// 049   ----------------------------------------
	BYTE	W96
// 050   ----------------------------------------
	BYTE	W48
	BYTE		N24     Cs3   v112
	BYTE	W24
	BYTE		N16     En3 
	BYTE	W16
	BYTE		        Gs3 
	BYTE	W08
// 051   ----------------------------------------
	BYTE	W08
	BYTE		        Cs4 
	BYTE	W16
	BYTE		        Cn4 
	BYTE	W16
	BYTE		        An3 
	BYTE	W16
	BYTE		        Fs3 
	BYTE	W16
	BYTE		        Ds3   v116
	BYTE	W16
	BYTE		        Cn3 
	BYTE	W08
// 052   ----------------------------------------
	BYTE	W08
	BYTE		        An2   v120
	BYTE	W16
	BYTE		N24     Fs2 
	BYTE	W24
	BYTE		        Fn3   v112
	BYTE	W24
	BYTE		N16     Gs3 
	BYTE	W16
	BYTE		        Cn4 
	BYTE	W08
// 053   ----------------------------------------
	BYTE	W08
	BYTE		        Fn3 
	BYTE	W16
	BYTE		        En3 
	BYTE	W16
	BYTE		        Gs3 
	BYTE	W16
	BYTE		        En3 
	BYTE	W16
	BYTE		        Ds3   v116
	BYTE	W16
	BYTE		        Fs3 
	BYTE	W08
// 054   ----------------------------------------
	BYTE	W08
	BYTE		        Ds3   v108
	BYTE		N16     An3   v120
	BYTE	W16
	BYTE		N96     Dn3   v112
	BYTE		N96     As3   v120
	BYTE	W01
	BYTE	W14
	BYTE	W06
	BYTE	W04
	BYTE	W03
	BYTE	W03
	BYTE	W03
	BYTE	W03
	BYTE	W03
	BYTE	W02
	BYTE	W03
	BYTE	W01
	BYTE	W03
	BYTE	W02
	BYTE	W01
	BYTE	W02
	BYTE	W01
	BYTE	W02
	BYTE	W01
	BYTE	W02
	BYTE	W01
	BYTE	W02
	BYTE	W01
	BYTE	W02
	BYTE	W01
	BYTE	W02
	BYTE	W01
	BYTE	W02
// 055   ----------------------------------------
	BYTE	W01
	BYTE	W02
	BYTE	W01
	BYTE	W02
	BYTE	W01
	BYTE	W02
	BYTE	W01
	BYTE	W02
	BYTE	W01
	BYTE	W02
	BYTE	W01
	BYTE	W02
	BYTE	W01
	BYTE	W02
	BYTE	W01
	BYTE	W02
	BYTE		        Dn3   v112
	BYTE		N96     An3   v120
	BYTE	W03
	BYTE	W01
	BYTE	W03
	BYTE	W02
	BYTE	W01
	BYTE	W03
	BYTE	W02
	BYTE	W01
	BYTE	W03
	BYTE	W02
	BYTE	W01
	BYTE	W03
	BYTE	W02
	BYTE	W01
	BYTE	W03
	BYTE	W02
	BYTE	W01
	BYTE	W03
	BYTE	W02
	BYTE	W01
	BYTE	W03
	BYTE	W02
	BYTE	W01
	BYTE	W03
	BYTE	W02
	BYTE	W01
	BYTE	W03
	BYTE	W02
	BYTE	W01
	BYTE	W03
	BYTE	W02
	BYTE	W01
	BYTE	W03
	BYTE	W02
	BYTE	W01
	BYTE	W02
// 056   ----------------------------------------
	BYTE	W01
	BYTE	W02
	BYTE	W01
	BYTE	W03
	BYTE	W02
	BYTE	W01
	BYTE	W03
	BYTE	W02
	BYTE	W01
	BYTE	W03
	BYTE	W02
	BYTE	W01
	BYTE	W02
	BYTE		TIE     Ds3   v112
	BYTE		TIE     Gn3   v120
	BYTE	W72
// 057   ----------------------------------------
	BYTE	W24
	BYTE	W01
	BYTE	W08
	BYTE	W04
	BYTE	W03
	BYTE	W02
	BYTE	W03
	BYTE	W01
	BYTE	W02
	BYTE	W01
	BYTE	W02
	BYTE	W01
	BYTE	W02
	BYTE	W01
	BYTE	W02
	BYTE	W01
	BYTE	W02
	BYTE	W01
	BYTE	W02
	BYTE	W01
	BYTE	W02
	BYTE	W01
	BYTE	W02
	BYTE	W01
	BYTE	W02
	BYTE	W01
	BYTE	W02
	BYTE	W01
	BYTE	W02
	BYTE	W01
	BYTE	W02
	BYTE	W01
	BYTE	W02
	BYTE	W01
	BYTE	W02
	BYTE	W01
	BYTE	W02
	BYTE	W01
	BYTE	W02
	BYTE	W01
	BYTE	W02
	BYTE		EOT     Ds3 
	BYTE		        Gn3 
	BYTE	GoTo
	 POIN2	Battle1Elona_8_B1
Battle1Elona_8_B2:
// 058   ----------------------------------------
	BYTE	W24
	BYTE	FINE

//**************** Track 9 (Midi-Chn.9) ****************//

Battle1Elona_9:
	BYTE	KEYSH   Battle1Elona_key+0
Battle1Elona_9_B1:
// 000   ----------------------------------------
	BYTE		VOICE   47
	BYTE		PAN     c_v+0
	BYTE		VOL     100*Battle1Elona_mvl/mxv
	BYTE	W96
// 001   ----------------------------------------
	BYTE	W96
// 002   ----------------------------------------
	BYTE	W96
// 003   ----------------------------------------
	BYTE	W96
// 004   ----------------------------------------
	BYTE	W96
// 005   ----------------------------------------
	BYTE	W96
// 006   ----------------------------------------
	BYTE	W96
// 007   ----------------------------------------
	BYTE	W96
// 008   ----------------------------------------
	BYTE	W96
// 009   ----------------------------------------
	BYTE	W96
// 010   ----------------------------------------
	BYTE	W96
// 011   ----------------------------------------
	BYTE	W96
// 012   ----------------------------------------
	BYTE	W96
// 013   ----------------------------------------
	BYTE	W96
// 014   ----------------------------------------
	BYTE	W96
// 015   ----------------------------------------
	BYTE	W96
// 016   ----------------------------------------
	BYTE	W96
// 017   ----------------------------------------
	BYTE	W96
// 018   ----------------------------------------
	BYTE	W96
// 019   ----------------------------------------
	BYTE	W96
// 020   ----------------------------------------
	BYTE	W96
// 021   ----------------------------------------
	BYTE	W96
// 022   ----------------------------------------
	BYTE	W96
// 023   ----------------------------------------
	BYTE	W96
// 024   ----------------------------------------
	BYTE	W96
// 025   ----------------------------------------
	BYTE	W96
// 026   ----------------------------------------
	BYTE	W60
	BYTE		N12     An1   v100
	BYTE	W12
	BYTE		        Cn2 
	BYTE	W12
	BYTE		        Ds2 
	BYTE	W12
// 027   ----------------------------------------
	BYTE		TIE     An1 
	BYTE	W96
// 028   ----------------------------------------
	BYTE	W24
	BYTE		EOT   
	BYTE	W36
	BYTE		N12   
	BYTE	W12
	BYTE		        Cn2 
	BYTE	W12
	BYTE		        Ds2 
	BYTE	W12
// 029   ----------------------------------------
	BYTE		N72     An1 
	BYTE	W96
// 030   ----------------------------------------
	BYTE	W96
// 031   ----------------------------------------
	BYTE	W96
// 032   ----------------------------------------
	BYTE	W96
// 033   ----------------------------------------
	BYTE	W96
// 034   ----------------------------------------
	BYTE	W96
// 035   ----------------------------------------
	BYTE	W96
// 036   ----------------------------------------
	BYTE	W96
// 037   ----------------------------------------
	BYTE	W96
// 038   ----------------------------------------
	BYTE	W96
// 039   ----------------------------------------
	BYTE	W96
// 040   ----------------------------------------
	BYTE	W96
// 041   ----------------------------------------
	BYTE	W96
// 042   ----------------------------------------
	BYTE	W96
// 043   ----------------------------------------
	BYTE	W96
// 044   ----------------------------------------
	BYTE	W96
// 045   ----------------------------------------
	BYTE	W96
// 046   ----------------------------------------
	BYTE	W96
// 047   ----------------------------------------
	BYTE	W96
// 048   ----------------------------------------
	BYTE	W96
// 049   ----------------------------------------
	BYTE	W96
// 050   ----------------------------------------
	BYTE	W96
// 051   ----------------------------------------
	BYTE	W96
// 052   ----------------------------------------
	BYTE	W96
// 053   ----------------------------------------
	BYTE	W96
// 054   ----------------------------------------
	BYTE	W96
// 055   ----------------------------------------
	BYTE	W96
// 056   ----------------------------------------
	BYTE	W96
// 057   ----------------------------------------
	BYTE	W96
	BYTE	GoTo
	 POIN2	Battle1Elona_9_B1
Battle1Elona_9_B2:
// 058   ----------------------------------------
	BYTE	W24
	BYTE	FINE

//**************** Track 10 (Midi-Chn.11) ****************//

Battle1Elona_10:
	BYTE	KEYSH   Battle1Elona_key+0
Battle1Elona_10_B1:
// 000   ----------------------------------------
	BYTE		VOICE   127
	BYTE		PAN     c_v+0
	BYTE		VOL     125*Battle1Elona_mvl/mxv
	BYTE		N01     Dn1   v100
	BYTE	W06
	BYTE		        Dn1   v092
	BYTE	W06
	BYTE		        Dn1   v096
	BYTE	W06
	BYTE		        Dn1   v100
	BYTE	W06
	BYTE		        Cn1 
	BYTE		N01     Cs2 
	BYTE	W12
	BYTE		        Fs1   v060
	BYTE	W12
	BYTE		        Dn1   v100
	BYTE		N01     Fs1   v072
	BYTE	W12
	BYTE		        Fs1   v060
	BYTE	W12
	BYTE		        Cn1   v100
	BYTE		N01     Fs1   v072
	BYTE	W12
	BYTE		        Fs1   v060
	BYTE	W12
// 001   ----------------------------------------
Battle1Elona_10_001:
	BYTE		N01     Dn1   v100
	BYTE		N01     Fs1   v072
	BYTE	W12
	BYTE		        Fs1   v060
	BYTE	W12
	BYTE		        Cn1   v100
	BYTE		N01     Fs1   v072
	BYTE	W12
	BYTE		        Fs1   v060
	BYTE	W12
	BYTE		        Dn1   v100
	BYTE		N01     Fs1   v072
	BYTE	W12
	BYTE		        Fs1   v060
	BYTE	W12
	BYTE		        Cn1   v100
	BYTE		N01     Fs1   v072
	BYTE	W12
	BYTE		        Fs1   v060
	BYTE	W12
	BYTE	PEND
// 002   ----------------------------------------
	BYTE	PATT
	 POIN2	Battle1Elona_10_001
// 003   ----------------------------------------
	BYTE	PATT
	 POIN2	Battle1Elona_10_001
// 004   ----------------------------------------
	BYTE	PATT
	 POIN2	Battle1Elona_10_001
// 005   ----------------------------------------
	BYTE		N01     Dn1   v100
	BYTE		N01     Fs1   v072
	BYTE	W12
	BYTE		        Dn1   v096
	BYTE	W06
	BYTE		        Dn1   v092
	BYTE	W06
	BYTE		        Cn1   v100
	BYTE		N01     Cs2 
	BYTE	W12
	BYTE		        Fs1   v060
	BYTE	W12
	BYTE		        Dn1   v100
	BYTE		N01     Fs1   v072
	BYTE	W12
	BYTE		        Fs1   v060
	BYTE	W12
	BYTE		        Cn1   v100
	BYTE		N01     Fs1   v072
	BYTE	W12
	BYTE		        Fs1   v060
	BYTE	W12
// 006   ----------------------------------------
	BYTE	PATT
	 POIN2	Battle1Elona_10_001
// 007   ----------------------------------------
	BYTE	PATT
	 POIN2	Battle1Elona_10_001
// 008   ----------------------------------------
	BYTE	PATT
	 POIN2	Battle1Elona_10_001
// 009   ----------------------------------------
	BYTE		N01     Dn1   v100
	BYTE		N01     Fs1   v072
	BYTE	W12
	BYTE		        Fs1   v060
	BYTE	W12
	BYTE		        Cn1   v100
	BYTE		N01     Fs1   v072
	BYTE	W12
	BYTE		        Fs1   v060
	BYTE	W12
	BYTE		        Dn1   v100
	BYTE		N01     Fs1   v072
	BYTE	W12
	BYTE		        Fs1   v060
	BYTE	W12
	BYTE		        Cn1   v100
	BYTE		N01     Dn1 
	BYTE		N01     Cs2   v032
	BYTE	W04
	BYTE		        An2 
	BYTE	W02
	BYTE		        Dn1   v092
	BYTE	W02
	BYTE		        Cs2   v032
	BYTE	W04
	BYTE		        Dn1   v092
	BYTE		N01     An2   v036
	BYTE	W04
	BYTE		        Cs2   v040
	BYTE	W02
	BYTE		        Dn1   v096
	BYTE	W02
	BYTE		        An2   v044
	BYTE	W04
// 010   ----------------------------------------
	BYTE		        Cn1   v100
	BYTE		N01     Dn1 
	BYTE		N01     Cs2   v048
	BYTE	W04
	BYTE		        An2   v056
	BYTE	W02
	BYTE		        Dn1   v096
	BYTE	W02
	BYTE		        Cs2   v064
	BYTE	W04
	BYTE		        Dn1   v100
	BYTE		N01     An2   v072
	BYTE	W04
	BYTE		        Cs2   v080
	BYTE	W02
	BYTE		        Dn1   v108
	BYTE	W02
	BYTE		        An2   v088
	BYTE	W04
	BYTE		        Cn1   v100
	BYTE		N01     Cs2 
	BYTE	W12
	BYTE		        Fs1   v060
	BYTE	W12
	BYTE		        Dn1   v100
	BYTE		N01     Fs1   v072
	BYTE	W12
	BYTE		        Fs1   v060
	BYTE	W12
	BYTE		        Cn1   v100
	BYTE		N01     Fs1   v072
	BYTE	W12
	BYTE		        Fs1   v060
	BYTE	W12
// 011   ----------------------------------------
	BYTE	PATT
	 POIN2	Battle1Elona_10_001
// 012   ----------------------------------------
	BYTE	PATT
	 POIN2	Battle1Elona_10_001
// 013   ----------------------------------------
	BYTE	PATT
	 POIN2	Battle1Elona_10_001
// 014   ----------------------------------------
	BYTE	PATT
	 POIN2	Battle1Elona_10_001
// 015   ----------------------------------------
	BYTE	PATT
	 POIN2	Battle1Elona_10_001
// 016   ----------------------------------------
Battle1Elona_10_016:
	BYTE		N01     Dn1   v100
	BYTE		N01     Fs1   v072
	BYTE	W12
	BYTE		        Fs1   v060
	BYTE	W12
	BYTE		        Cn1   v100
	BYTE		N01     Fs1   v072
	BYTE	W12
	BYTE		        Cn1   v100
	BYTE		N01     Fs1   v060
	BYTE	W12
	BYTE		        Dn1   v100
	BYTE		N01     Cs2 
	BYTE	W24
	BYTE		        Cn1 
	BYTE		N01     Fs1   v072
	BYTE	W12
	BYTE		        Cn1   v100
	BYTE		N01     Fs1   v060
	BYTE	W12
	BYTE	PEND
// 017   ----------------------------------------
	BYTE		        Dn1   v100
	BYTE		N01     An2 
	BYTE	W24
	BYTE		        Cn1 
	BYTE		N01     Fs1   v072
	BYTE	W12
	BYTE		        Cn1   v100
	BYTE		N01     Fs1   v060
	BYTE	W12
	BYTE		        Dn1   v100
	BYTE		N01     Cs2 
	BYTE	W24
	BYTE		        Cn1 
	BYTE		N01     Fs1   v072
	BYTE	W12
	BYTE		        Dn1   v096
	BYTE	W12
// 018   ----------------------------------------
	BYTE		        Dn1   v100
	BYTE		N01     An2 
	BYTE	W12
	BYTE		        Dn1 
	BYTE	W06
	BYTE		        Dn1   v092
	BYTE	W06
	BYTE		        Cn1   v100
	BYTE		N01     Cs2 
	BYTE	W12
	BYTE		        Fs1   v060
	BYTE	W12
	BYTE		        Dn1   v100
	BYTE		N01     Fs1   v072
	BYTE	W12
	BYTE		        Fs1   v060
	BYTE	W12
	BYTE		        Cn1   v100
	BYTE		N01     Fs1   v072
	BYTE	W12
	BYTE		        Fs1   v060
	BYTE	W12
// 019   ----------------------------------------
Battle1Elona_10_019:
	BYTE		N01     Dn1   v100
	BYTE		N01     Fs1   v072
	BYTE	W12
	BYTE		        Fs1   v060
	BYTE	W12
	BYTE		        Cn1   v100
	BYTE		N01     Fs1   v072
	BYTE	W12
	BYTE		        Fs1   v060
	BYTE	W12
	BYTE		        Dn1   v100
	BYTE		N01     Fs1   v072
	BYTE	W12
	BYTE		        Fs1   v060
	BYTE	W12
	BYTE		        Cn1   v100
	BYTE		N01     Fs1   v072
	BYTE	W12
	BYTE		        Cn1   v100
	BYTE		N01     Fs1   v060
	BYTE	W12
	BYTE	PEND
// 020   ----------------------------------------
	BYTE	PATT
	 POIN2	Battle1Elona_10_001
// 021   ----------------------------------------
	BYTE	PATT
	 POIN2	Battle1Elona_10_019
// 022   ----------------------------------------
	BYTE	PATT
	 POIN2	Battle1Elona_10_001
// 023   ----------------------------------------
	BYTE	PATT
	 POIN2	Battle1Elona_10_019
// 024   ----------------------------------------
	BYTE	PATT
	 POIN2	Battle1Elona_10_016
// 025   ----------------------------------------
	BYTE		N01     Dn1   v100
	BYTE		N01     An2 
	BYTE	W24
	BYTE		        Cn1 
	BYTE		N01     Fs1   v072
	BYTE	W12
	BYTE		        Cn1   v100
	BYTE		N01     Fs1   v060
	BYTE	W12
	BYTE		        Cn1   v100
	BYTE		N01     Dn1 
	BYTE		N01     Cs2 
	BYTE	W12
	BYTE		        Dn1 
	BYTE	W06
	BYTE		        Dn1   v092
	BYTE	W06
	BYTE		        Cn1   v100
	BYTE		N01     Dn1 
	BYTE	W04
	BYTE		        Dn1   v092
	BYTE	W04
	BYTE		        Dn1   v080
	BYTE	W04
	BYTE		        Dn1   v100
	BYTE	W06
	BYTE		        Cn1 
	BYTE		N01     Cs2 
	BYTE	W06
// 026   ----------------------------------------
	BYTE		        An1 
	BYTE	W06
	BYTE		        Dn1 
	BYTE	W06
	BYTE		        Cn1 
	BYTE		N01     An1 
	BYTE	W06
	BYTE		        Fn1 
	BYTE	W06
	BYTE		        Cn1 
	BYTE		N01     Dn1 
	BYTE	W06
	BYTE		        Dn1   v092
	BYTE	W06
	BYTE		        Dn1   v096
	BYTE	W06
	BYTE		        Dn1   v092
	BYTE	W06
	BYTE		        Cn1   v100
	BYTE		N01     Dn1 
	BYTE		N01     Cs2 
	BYTE	W48
// 027   ----------------------------------------
	BYTE	W24
	BYTE		        Cn1 
	BYTE		N01     Dn1 
	BYTE	W03
	BYTE		        Dn1   v080
	BYTE	W04
	BYTE		        Dn1   v092
	BYTE	W05
	BYTE		N01   
	BYTE	W06
	BYTE		        Cn1   v100
	BYTE		N01     Cn2 
	BYTE	W03
	BYTE		        Cn2   v080
	BYTE	W04
	BYTE		        Cn2   v092
	BYTE	W05
	BYTE		N01   
	BYTE	W06
	BYTE		        Cn1   v100
	BYTE		N01     An1 
	BYTE	W03
	BYTE		        An1   v080
	BYTE	W04
	BYTE		        An1   v092
	BYTE	W05
	BYTE		        Cn1   v100
	BYTE		N01     An1   v096
	BYTE	W06
	BYTE		        Dn1   v100
	BYTE	W06
	BYTE		        Cn1 
	BYTE		N01     Cn2 
	BYTE	W06
	BYTE		        An1 
	BYTE	W06
// 028   ----------------------------------------
	BYTE		        Dn1 
	BYTE	W06
	BYTE		        Dn1   v092
	BYTE	W06
	BYTE		        Cn1   v100
	BYTE		N01     Fn1 
	BYTE	W12
	BYTE		        Cn1 
	BYTE		N01     Dn1 
	BYTE	W06
	BYTE		        Dn1   v092
	BYTE	W06
	BYTE		        Dn1   v096
	BYTE	W06
	BYTE		        Dn1   v092
	BYTE	W06
	BYTE		        Cn1   v100
	BYTE		N01     Dn1 
	BYTE		N01     Cs2 
	BYTE	W48
// 029   ----------------------------------------
	BYTE	W24
	BYTE		        Cn1 
	BYTE	W12
	BYTE		        Dn1 
	BYTE	W12
	BYTE		N01   
	BYTE	W06
	BYTE		        Dn1   v092
	BYTE	W06
	BYTE		        Cn1   v100
	BYTE	W06
	BYTE		        Dn1 
	BYTE	W06
	BYTE		        Cn1 
	BYTE	W06
	BYTE		        Dn1 
	BYTE	W06
	BYTE		        An1   v108
	BYTE	W12
// 030   ----------------------------------------
	BYTE		        Cn1   v100
	BYTE		N01     An1 
	BYTE	W06
	BYTE		        An1   v096
	BYTE	W06
	BYTE		        Fn1   v100
	BYTE	W06
	BYTE		        Fn1   v096
	BYTE	W06
	BYTE		        Cn1   v100
	BYTE		N01     Cs2 
	BYTE	W12
	BYTE		        Fs1   v060
	BYTE	W12
	BYTE		        Dn1   v100
	BYTE		N01     Fs1   v072
	BYTE	W12
	BYTE		        Cn1   v100
	BYTE		N01     Fs1   v060
	BYTE	W12
	BYTE		        Fs1   v072
	BYTE	W12
	BYTE		        Cn1   v100
	BYTE		N01     Fs1   v060
	BYTE	W12
// 031   ----------------------------------------
	BYTE	PATT
	 POIN2	Battle1Elona_10_019
// 032   ----------------------------------------
Battle1Elona_10_032:
	BYTE		N01     Dn1   v100
	BYTE		N01     Fs1   v072
	BYTE	W12
	BYTE		        Fs1   v060
	BYTE	W12
	BYTE		        Cn1   v100
	BYTE		N01     Fs1   v072
	BYTE	W12
	BYTE		        Fs1   v060
	BYTE	W12
	BYTE		        Dn1   v100
	BYTE		N01     Fs1   v072
	BYTE	W12
	BYTE		        Cn1   v100
	BYTE		N01     Fs1   v060
	BYTE	W12
	BYTE		        Fs1   v072
	BYTE	W12
	BYTE		        Cn1   v100
	BYTE		N01     Fs1   v060
	BYTE	W12
	BYTE	PEND
// 033   ----------------------------------------
	BYTE		        Dn1   v100
	BYTE		N01     As1   v068
	BYTE	W12
	BYTE		        Cn1   v100
	BYTE	W12
	BYTE		N01   
	BYTE		N01     Dn1 
	BYTE		N01     Cs2 
	BYTE	W24
	BYTE		        Cn1 
	BYTE		N01     Dn1 
	BYTE		N01     An2 
	BYTE	W24
	BYTE		        Dn1 
	BYTE		N01     Cs2 
	BYTE	W12
	BYTE		        Cn1 
	BYTE	W12
// 034   ----------------------------------------
	BYTE		        Dn1 
	BYTE		N01     An2 
	BYTE	W12
	BYTE		        Cn1 
	BYTE	W12
	BYTE		N01   
	BYTE		N01     Cs2 
	BYTE	W12
	BYTE		        Fs1   v060
	BYTE	W12
	BYTE		        Dn1   v100
	BYTE		N01     Fs1   v072
	BYTE	W12
	BYTE		        Cn1   v100
	BYTE		N01     Fs1   v060
	BYTE	W12
	BYTE		        Fs1   v072
	BYTE	W12
	BYTE		        Cn1   v100
	BYTE		N01     Fs1   v060
	BYTE	W12
// 035   ----------------------------------------
	BYTE		        Dn1   v100
	BYTE		N01     Fs1   v072
	BYTE	W12
	BYTE		        Fs1   v060
	BYTE	W12
	BYTE		        Cn1   v100
	BYTE		N01     Fs1   v072
	BYTE	W12
	BYTE		        Cn1   v100
	BYTE		N01     Fs1   v060
	BYTE	W12
	BYTE		        Dn1   v100
	BYTE		N01     Fs1   v072
	BYTE	W12
	BYTE		        Fs1   v060
	BYTE	W12
	BYTE		        Cn1   v100
	BYTE		N01     Fs1   v072
	BYTE	W12
	BYTE		        Cn1   v100
	BYTE		N01     Fs1   v060
	BYTE	W12
// 036   ----------------------------------------
	BYTE	PATT
	 POIN2	Battle1Elona_10_032
// 037   ----------------------------------------
	BYTE		N01     Dn1   v100
	BYTE		N01     As1   v068
	BYTE	W12
	BYTE		        Dn1   v100
	BYTE	W06
	BYTE		        Dn1   v092
	BYTE	W06
	BYTE		        Cn1   v100
	BYTE		N01     Dn1 
	BYTE		N01     Cs2 
	BYTE	W24
	BYTE		        Cn1 
	BYTE		N01     Dn1 
	BYTE		N01     An2 
	BYTE	W24
	BYTE		        Cn1 
	BYTE		N01     Dn1 
	BYTE		N01     Cs2 
	BYTE	W12
	BYTE		        An1 
	BYTE	W06
	BYTE		        An1   v096
	BYTE	W06
// 038   ----------------------------------------
	BYTE		        Cn1   v100
	BYTE		N01     Dn1 
	BYTE	W06
	BYTE		N01   
	BYTE	W06
	BYTE		        Fn1 
	BYTE	W06
	BYTE		        Fn1   v096
	BYTE	W06
	BYTE		        Cn1   v100
	BYTE		N01     Dn1 
	BYTE		N01     Cs2 
	BYTE	W12
	BYTE		        Cn1 
	BYTE		N01     Dn1 
	BYTE		N01     An2 
	BYTE	W24
	BYTE		        Cn1 
	BYTE	W36
// 039   ----------------------------------------
Battle1Elona_10_039:
	BYTE		N01     Cn1   v100
	BYTE		N01     Dn1 
	BYTE		N01     Cs2 
	BYTE	W12
	BYTE		        Cn1 
	BYTE		N01     Dn1 
	BYTE		N01     An2 
	BYTE	W24
	BYTE		        Cn1 
	BYTE	W36
	BYTE		N01   
	BYTE		N01     Dn1 
	BYTE		N01     Cs2 
	BYTE	W12
	BYTE		        Cn1 
	BYTE		N01     Dn1 
	BYTE		N01     An2 
	BYTE	W12
	BYTE	PEND
// 040   ----------------------------------------
	BYTE	W12
	BYTE		        Cn1 
	BYTE	W36
	BYTE		N01   
	BYTE		N01     Dn1 
	BYTE		N01     Cs2 
	BYTE	W12
	BYTE		        Cn1 
	BYTE		N01     Dn1 
	BYTE		N01     An2 
	BYTE	W12
	BYTE		        Cn1 
	BYTE		N01     An1 
	BYTE	W06
	BYTE		        An1   v096
	BYTE	W06
	BYTE		        Cn2   v100
	BYTE	W06
	BYTE		        Cn2   v096
	BYTE	W05
	BYTE		        Dn1   v080
	BYTE	W01
// 041   ----------------------------------------
	BYTE		        Cn1   v100
	BYTE	W01
	BYTE		        Dn1 
	BYTE	W05
	BYTE		        Dn1   v096
	BYTE	W06
	BYTE		        An1   v100
	BYTE	W06
	BYTE		        Fn1   v096
	BYTE	W06
	BYTE		        Cn1   v100
	BYTE		N01     Dn1 
	BYTE		N01     Cs2 
	BYTE	W12
	BYTE		        Cn1 
	BYTE		N01     Dn1 
	BYTE		N01     An2 
	BYTE	W24
	BYTE		        Cn1 
	BYTE	W36
// 042   ----------------------------------------
	BYTE	PATT
	 POIN2	Battle1Elona_10_039
// 043   ----------------------------------------
	BYTE	W12
	BYTE		N01     Cn1   v100
	BYTE	W36
	BYTE		N01   
	BYTE		N01     Dn1 
	BYTE		N01     Cs2 
	BYTE	W12
	BYTE		        Cn1 
	BYTE		N01     Dn1 
	BYTE		N01     An2 
	BYTE	W12
	BYTE		        Dn1 
	BYTE	W06
	BYTE		        An1 
	BYTE	W06
	BYTE		        Fn1 
	BYTE	W06
	BYTE		        Fn1   v096
	BYTE	W05
	BYTE		        Dn1   v100
	BYTE	W01
// 044   ----------------------------------------
	BYTE	W02
	BYTE		        Dn1   v112
	BYTE	W22
	BYTE		        Cn1   v100
	BYTE		N01     Cs2 
	BYTE	W12
	BYTE		        As1   v060
	BYTE	W12
	BYTE		        Cn1   v100
	BYTE		N01     Fs1   v072
	BYTE	W12
	BYTE		        Dn1   v100
	BYTE		N01     Fs1   v060
	BYTE	W12
	BYTE		        Fs1   v072
	BYTE	W12
	BYTE		        Cn1   v100
	BYTE		N01     Fs1   v060
	BYTE	W12
// 045   ----------------------------------------
	BYTE		        Dn1   v100
	BYTE		N01     As1   v068
	BYTE	W24
	BYTE		        Cn1   v100
	BYTE		N01     As1   v072
	BYTE	W24
	BYTE		        Dn1   v100
	BYTE		N01     As1   v072
	BYTE	W24
	BYTE		        Cn1   v100
	BYTE		N01     As1   v060
	BYTE	W12
	BYTE		        Cn1   v100
	BYTE		N01     Fs1   v060
	BYTE	W12
// 046   ----------------------------------------
	BYTE		        Dn1   v100
	BYTE		N01     As1   v068
	BYTE	W12
	BYTE		        Cn1   v100
	BYTE		N01     Fs1   v060
	BYTE	W12
	BYTE		        Dn1   v100
	BYTE		N01     As1   v072
	BYTE	W24
	BYTE		        Cn1   v100
	BYTE		N01     Fs1   v072
	BYTE	W12
	BYTE		        Fs1   v060
	BYTE	W12
	BYTE		        Dn1   v100
	BYTE		N01     As1   v068
	BYTE	W12
	BYTE		        Cn1   v100
	BYTE		N01     Fs1   v060
	BYTE	W12
// 047   ----------------------------------------
	BYTE		        Dn1   v100
	BYTE		N01     As1   v072
	BYTE	W12
	BYTE		        Cn2   v100
	BYTE	W06
	BYTE		        An1 
	BYTE	W06
	BYTE		        Cn1 
	BYTE		N01     Dn1 
	BYTE		N01     Cs2 
	BYTE	W24
	BYTE		        Dn1 
	BYTE		N01     An2 
	BYTE	W24
	BYTE		        Dn1 
	BYTE		N01     Cs2 
	BYTE	W24
// 048   ----------------------------------------
	BYTE		        Cn1 
	BYTE		N01     Dn1 
	BYTE	W06
	BYTE		N01   
	BYTE	W06
	BYTE		        Cn2 
	BYTE	W06
	BYTE		        An1 
	BYTE	W06
	BYTE		        Cn1 
	BYTE		N01     Cs2 
	BYTE	W12
	BYTE		        As1   v060
	BYTE	W12
	BYTE		        Cn1   v100
	BYTE		N01     Fs1   v072
	BYTE	W12
	BYTE		        Dn1   v100
	BYTE		N01     Fs1   v060
	BYTE	W12
	BYTE		        As1   v064
	BYTE	W12
	BYTE		        Cn1   v100
	BYTE		N01     Fs1   v060
	BYTE	W12
// 049   ----------------------------------------
	BYTE		        Dn1   v100
	BYTE		N01     As1   v068
	BYTE	W24
	BYTE		        Dn1   v100
	BYTE		N01     As1   v072
	BYTE	W12
	BYTE		        Cn1   v100
	BYTE	W12
	BYTE		        Dn1 
	BYTE		N01     As1   v072
	BYTE	W24
	BYTE		        Cn1   v100
	BYTE		N01     Fs1   v072
	BYTE		N01     Cs2   v032
	BYTE	W04
	BYTE		        An2 
	BYTE	W04
	BYTE		        Cs2 
	BYTE	W04
	BYTE		        Cn1   v100
	BYTE		N01     As1   v068
	BYTE		N01     An2   v036
	BYTE	W04
	BYTE		        Cs2   v040
	BYTE	W04
	BYTE		        An2   v044
	BYTE	W04
// 050   ----------------------------------------
	BYTE		        Dn1   v100
	BYTE		N01     As1   v072
	BYTE		N01     Cs2   v048
	BYTE	W04
	BYTE		        An2   v056
	BYTE	W04
	BYTE		        Cs2   v064
	BYTE	W04
	BYTE		        Dn1   v100
	BYTE		N01     An2   v072
	BYTE	W04
	BYTE		        Cs2   v080
	BYTE	W02
	BYTE		        Dn1   v092
	BYTE	W02
	BYTE		        An2   v088
	BYTE	W04
	BYTE		        Cn1   v100
	BYTE		N01     Cs2 
	BYTE	W12
	BYTE		        Fs1   v072
	BYTE	W06
	BYTE		        Fs1   v060
	BYTE	W06
	BYTE		        Cn1   v100
	BYTE		N01     As1   v060
	BYTE	W12
	BYTE		        Fs1   v072
	BYTE	W06
	BYTE		        Fs1   v060
	BYTE	W06
	BYTE		        Cn1   v100
	BYTE		N01     As1   v060
	BYTE	W12
	BYTE		        Fs1   v072
	BYTE	W06
	BYTE		        Fs1   v060
	BYTE	W06
// 051   ----------------------------------------
Battle1Elona_10_051:
	BYTE		N01     Cn1   v100
	BYTE		N01     As1   v060
	BYTE	W12
	BYTE		        Fs1   v072
	BYTE	W06
	BYTE		        Fs1   v060
	BYTE	W06
	BYTE		        Cn1   v100
	BYTE		N01     As1   v060
	BYTE	W12
	BYTE		        Fs1   v072
	BYTE	W06
	BYTE		        Fs1   v060
	BYTE	W06
	BYTE		        Cn1   v100
	BYTE		N01     As1   v060
	BYTE	W12
	BYTE		        Fs1   v072
	BYTE	W06
	BYTE		        Fs1   v060
	BYTE	W06
	BYTE		        Cn1   v100
	BYTE		N01     As1   v060
	BYTE	W12
	BYTE		        Fs1   v072
	BYTE	W06
	BYTE		        Fs1   v060
	BYTE	W06
	BYTE	PEND
// 052   ----------------------------------------
	BYTE	PATT
	 POIN2	Battle1Elona_10_051
// 053   ----------------------------------------
	BYTE	PATT
	 POIN2	Battle1Elona_10_051
// 054   ----------------------------------------
	BYTE		N01     Cn1   v100
	BYTE		N01     As1   v060
	BYTE	W12
	BYTE		        Fs1   v072
	BYTE	W06
	BYTE		        Fs1   v060
	BYTE	W06
	BYTE		        Cn1   v100
	BYTE		N01     As1   v060
	BYTE		N01     Cs2   v032
	BYTE	W04
	BYTE		        An2 
	BYTE	W04
	BYTE		        Cs2 
	BYTE	W04
	BYTE		        An2 
	BYTE	W04
	BYTE		        Cs2 
	BYTE	W04
	BYTE		        An2 
	BYTE	W04
	BYTE		        Cs2 
	BYTE	W04
	BYTE		        An2 
	BYTE	W04
	BYTE		        Cs2 
	BYTE	W04
	BYTE		        An2 
	BYTE	W04
	BYTE		        Cs2   v036
	BYTE	W04
	BYTE		        An2 
	BYTE	W04
	BYTE		        Cs2 
	BYTE	W04
	BYTE		        An2 
	BYTE	W04
	BYTE		        Cs2 
	BYTE	W04
	BYTE		        An2   v040
	BYTE	W04
	BYTE		        Cs2 
	BYTE	W04
	BYTE		        An2 
	BYTE	W04
// 055   ----------------------------------------
	BYTE		        Cs2 
	BYTE	W04
	BYTE		        An2   v044
	BYTE	W04
	BYTE		        Cs2 
	BYTE	W04
	BYTE		        An2 
	BYTE	W04
	BYTE		        Cs2 
	BYTE	W04
	BYTE		        An2   v048
	BYTE	W04
	BYTE		        Cs2 
	BYTE	W04
	BYTE		        An2   v052
	BYTE	W04
	BYTE		        Cs2 
	BYTE	W04
	BYTE		        Dn1   v092
	BYTE		N01     Fn1 
	BYTE		N01     An2   v052
	BYTE	W04
	BYTE		        Cs2   v056
	BYTE	W04
	BYTE		        An2 
	BYTE	W04
	BYTE		        Dn1   v080
	BYTE		N01     Fn1   v088
	BYTE		N01     Cs2   v060
	BYTE	W04
	BYTE		        An2 
	BYTE	W04
	BYTE		        Cs2   v064
	BYTE	W04
	BYTE		        Dn1   v092
	BYTE		N01     Fn1 
	BYTE		N01     An2   v064
	BYTE	W04
	BYTE		        Cs2   v068
	BYTE	W04
	BYTE		        An2 
	BYTE	W04
	BYTE		        Dn1   v096
	BYTE		N01     Fn1 
	BYTE		N01     Cs2   v072
	BYTE	W04
	BYTE		        An2 
	BYTE	W04
	BYTE		        Cs2   v076
	BYTE	W04
	BYTE		        Dn1   v100
	BYTE		N01     Fn1 
	BYTE		N01     An2   v076
	BYTE	W04
	BYTE		        Cs2   v080
	BYTE	W04
	BYTE		        An2   v084
	BYTE	W04
// 056   ----------------------------------------
	BYTE		        Dn1   v108
	BYTE		N01     Fn1 
	BYTE		N01     Cs2   v084
	BYTE	W04
	BYTE		        An2   v088
	BYTE	W04
	BYTE		        Cs2 
	BYTE	W04
	BYTE		        Dn1   v112
	BYTE		N01     Fn1 
	BYTE		N01     An2   v092
	BYTE	W04
	BYTE		        Cs2   v096
	BYTE	W04
	BYTE		        An2   v100
	BYTE	W04
	BYTE		        Cn1 
	BYTE		N01     Cs2 
	BYTE	W12
	BYTE		        Fs1   v060
	BYTE	W12
	BYTE		        Dn1   v100
	BYTE		N01     Fs1   v072
	BYTE	W12
	BYTE		        Fs1   v060
	BYTE	W12
	BYTE		        Cn1   v100
	BYTE		N01     Fs1   v072
	BYTE	W12
	BYTE		        Fs1   v060
	BYTE	W12
// 057   ----------------------------------------
	BYTE	PATT
	 POIN2	Battle1Elona_10_001
	BYTE	GoTo
	 POIN2	Battle1Elona_10_B1
Battle1Elona_10_B2:
// 058   ----------------------------------------
	BYTE		N01     Dn1   v100
	BYTE	W06
	BYTE		        Dn1   v092
	BYTE	W06
	BYTE		        Dn1   v096
	BYTE	W06
	BYTE		        Dn1   v100
	BYTE	W06
	BYTE	FINE

//******************************************************//
	ALIGN 4

Battle1Elona:
	BYTE	10	// NumTrks
	BYTE	0	// NumBlks
	BYTE	Battle1Elona_pri	// Priority
	BYTE	Battle1Elona_rev	// Reverb.

	POIN2	Battle1Elona_grp

	POIN2	Battle1Elona_1
	POIN2	Battle1Elona_2
	POIN2	Battle1Elona_3
	POIN2	Battle1Elona_4
	POIN2	Battle1Elona_5
	POIN2	Battle1Elona_6
	POIN2	Battle1Elona_7
	POIN2	Battle1Elona_8
	POIN2	Battle1Elona_9
	POIN2	Battle1Elona_10

	
