//Event file generated from Sappy .s format.
	#include "MPlayDef.event"

	#define	BlasterMasterStage1_grp  voicegroup000
	#define	BlasterMasterStage1_pri  0
	#define	BlasterMasterStage1_rev  0
	#define	BlasterMasterStage1_mvl  50
	#define	BlasterMasterStage1_key  0
	#define	BlasterMasterStage1_tbs  1
	#define	BlasterMasterStage1_exg  0
	#define	BlasterMasterStage1_cmp  1

	// .rodata
	//	BlasterMasterStage1
	ALIGN 4

//**************** Track 1 (Midi-Chn.1) ****************//

BlasterMasterStage1_1:
	BYTE	KEYSH   BlasterMasterStage1_key+0
// 000   ----------------------------------------
	BYTE	TEMPO   126*BlasterMasterStage1_tbs/2
	BYTE		VOICE   0
	BYTE		PAN     c_v-64
	BYTE		VOL     100*BlasterMasterStage1_mvl/mxv
	BYTE		N06     Dn1   v100
	BYTE	W12
	BYTE		N06   
	BYTE	W06
	BYTE		N06   
	BYTE	W06
	BYTE		N06   
	BYTE	W12
	BYTE		N06   
	BYTE	W06
	BYTE		N06   
	BYTE	W06
	BYTE		N06   
	BYTE	W12
	BYTE		N06   
	BYTE	W06
	BYTE		N06   
	BYTE	W06
	BYTE		N06   
	BYTE	W06
	BYTE		N06   
	BYTE	W06
	BYTE		N06   
	BYTE	W06
	BYTE		N06   
	BYTE	W06
// 001   ----------------------------------------
BlasterMasterStage1_1_001:
	BYTE		N06     Dn1   v100
	BYTE	W12
	BYTE		N06   
	BYTE	W06
	BYTE		N06   
	BYTE	W06
	BYTE		N06   
	BYTE	W12
	BYTE		N06   
	BYTE	W06
	BYTE		N06   
	BYTE	W06
	BYTE		N06   
	BYTE	W12
	BYTE		N06   
	BYTE	W06
	BYTE		N06   
	BYTE	W06
	BYTE		N06   
	BYTE	W06
	BYTE		N06   
	BYTE	W06
	BYTE		N06   
	BYTE	W06
	BYTE		N06   
	BYTE	W06
	BYTE	PEND
// 002   ----------------------------------------
	BYTE	PATT
	 POIN2	BlasterMasterStage1_1_001
// 003   ----------------------------------------
	BYTE		N06     Dn1   v100
	BYTE	W06
	BYTE		N06   
	BYTE	W06
	BYTE		N06   
	BYTE	W06
	BYTE		N06   
	BYTE	W06
	BYTE		N06   
	BYTE	W06
	BYTE		N06   
	BYTE	W06
	BYTE		N06   
	BYTE	W06
	BYTE		N06   
	BYTE	W06
	BYTE		N06   
	BYTE	W06
	BYTE		N06   
	BYTE	W06
	BYTE		N06   
	BYTE	W06
	BYTE		N06   
	BYTE	W06
	BYTE		N06   
	BYTE	W06
	BYTE		N06   
	BYTE	W06
	BYTE		N06   
	BYTE	W06
	BYTE		N06   
	BYTE	W06
// 004   ----------------------------------------
BlasterMasterStage1_1_004:
	BYTE		N06     Gn0   v100
	BYTE	W06
	BYTE		N06   
	BYTE	W06
	BYTE		        Gn1 
	BYTE	W06
	BYTE		N06   
	BYTE	W06
	BYTE		        Gn0 
	BYTE	W06
	BYTE		N06   
	BYTE	W06
	BYTE		        Gn1 
	BYTE	W06
	BYTE		N06   
	BYTE	W06
	BYTE		        Gn0 
	BYTE	W06
	BYTE		N06   
	BYTE	W06
	BYTE		        Gn1 
	BYTE	W06
	BYTE		N06   
	BYTE	W06
	BYTE		        Gn0 
	BYTE	W06
	BYTE		N06   
	BYTE	W06
	BYTE		        Gn1 
	BYTE	W06
	BYTE		N06   
	BYTE	W06
	BYTE	PEND
// 005   ----------------------------------------
BlasterMasterStage1_1_005:
	BYTE		N06     Gn0   v100
	BYTE	W06
	BYTE		N06   
	BYTE	W06
	BYTE		        Gn1 
	BYTE	W06
	BYTE		N06   
	BYTE	W06
	BYTE		        Gn0 
	BYTE	W06
	BYTE		N06   
	BYTE	W06
	BYTE		        Gn1 
	BYTE	W06
	BYTE		N06   
	BYTE	W06
	BYTE		        Gn0 
	BYTE	W06
	BYTE		N06   
	BYTE	W06
	BYTE		        Gn1 
	BYTE	W06
	BYTE		N06   
	BYTE	W06
	BYTE		        Gn0 
	BYTE	W06
	BYTE	PEND
BlasterMasterStage1_1_B1:
	BYTE		N06     Gn0   v100
	BYTE	W06
	BYTE		        Gn1 
	BYTE	W06
	BYTE		N06   
	BYTE	W06
// 006   ----------------------------------------
	BYTE	PATT
	 POIN2	BlasterMasterStage1_1_004
// 007   ----------------------------------------
BlasterMasterStage1_1_007:
	BYTE		N06     Ds0   v100
	BYTE	W06
	BYTE		N06   
	BYTE	W06
	BYTE		        Ds1 
	BYTE	W06
	BYTE		N06   
	BYTE	W06
	BYTE		        Fn0 
	BYTE	W06
	BYTE		N06   
	BYTE	W06
	BYTE		        Fn1 
	BYTE	W06
	BYTE		N06   
	BYTE	W06
	BYTE		        Ds0 
	BYTE	W06
	BYTE		N06   
	BYTE	W06
	BYTE		        Ds1 
	BYTE	W06
	BYTE		N06   
	BYTE	W06
	BYTE		        Fn0 
	BYTE	W06
	BYTE		N06   
	BYTE	W06
	BYTE		        Fn1 
	BYTE	W06
	BYTE		N06   
	BYTE	W06
	BYTE	PEND
// 008   ----------------------------------------
	BYTE	PATT
	 POIN2	BlasterMasterStage1_1_004
// 009   ----------------------------------------
	BYTE	PATT
	 POIN2	BlasterMasterStage1_1_004
// 010   ----------------------------------------
	BYTE	PATT
	 POIN2	BlasterMasterStage1_1_004
// 011   ----------------------------------------
	BYTE	PATT
	 POIN2	BlasterMasterStage1_1_007
// 012   ----------------------------------------
	BYTE	PATT
	 POIN2	BlasterMasterStage1_1_004
// 013   ----------------------------------------
	BYTE	PATT
	 POIN2	BlasterMasterStage1_1_004
// 014   ----------------------------------------
	BYTE	PATT
	 POIN2	BlasterMasterStage1_1_004
// 015   ----------------------------------------
	BYTE	PATT
	 POIN2	BlasterMasterStage1_1_007
// 016   ----------------------------------------
	BYTE	PATT
	 POIN2	BlasterMasterStage1_1_004
// 017   ----------------------------------------
	BYTE	PATT
	 POIN2	BlasterMasterStage1_1_004
// 018   ----------------------------------------
	BYTE	PATT
	 POIN2	BlasterMasterStage1_1_004
// 019   ----------------------------------------
	BYTE	PATT
	 POIN2	BlasterMasterStage1_1_007
// 020   ----------------------------------------
	BYTE	PATT
	 POIN2	BlasterMasterStage1_1_004
// 021   ----------------------------------------
	BYTE	PATT
	 POIN2	BlasterMasterStage1_1_004
// 022   ----------------------------------------
BlasterMasterStage1_1_022:
	BYTE		N24     An0   v100
	BYTE	W24
	BYTE		N24   
	BYTE	W24
	BYTE		N24   
	BYTE	W24
	BYTE		N24   
	BYTE	W24
	BYTE	PEND
// 023   ----------------------------------------
	BYTE	PATT
	 POIN2	BlasterMasterStage1_1_022
// 024   ----------------------------------------
	BYTE	PATT
	 POIN2	BlasterMasterStage1_1_022
// 025   ----------------------------------------
	BYTE	PATT
	 POIN2	BlasterMasterStage1_1_022
// 026   ----------------------------------------
	BYTE	PATT
	 POIN2	BlasterMasterStage1_1_022
// 027   ----------------------------------------
	BYTE	PATT
	 POIN2	BlasterMasterStage1_1_022
// 028   ----------------------------------------
BlasterMasterStage1_1_028:
	BYTE		N24     Fs0   v100
	BYTE	W24
	BYTE		N24   
	BYTE	W24
	BYTE		N24   
	BYTE	W24
	BYTE		N24   
	BYTE	W24
	BYTE	PEND
// 029   ----------------------------------------
	BYTE	PATT
	 POIN2	BlasterMasterStage1_1_028
// 030   ----------------------------------------
	BYTE	PATT
	 POIN2	BlasterMasterStage1_1_007
// 031   ----------------------------------------
	BYTE	PATT
	 POIN2	BlasterMasterStage1_1_007
// 032   ----------------------------------------
	BYTE	PATT
	 POIN2	BlasterMasterStage1_1_007
// 033   ----------------------------------------
	BYTE	PATT
	 POIN2	BlasterMasterStage1_1_007
// 034   ----------------------------------------
	BYTE	PATT
	 POIN2	BlasterMasterStage1_1_004
// 035   ----------------------------------------
	BYTE	PATT
	 POIN2	BlasterMasterStage1_1_004
// 036   ----------------------------------------
	BYTE	PATT
	 POIN2	BlasterMasterStage1_1_004
// 037   ----------------------------------------
	BYTE	PATT
	 POIN2	BlasterMasterStage1_1_004
// 038   ----------------------------------------
	BYTE	PATT
	 POIN2	BlasterMasterStage1_1_004
// 039   ----------------------------------------
	BYTE	PATT
	 POIN2	BlasterMasterStage1_1_005
	BYTE	GoTo
	 POIN2	BlasterMasterStage1_1_B1
BlasterMasterStage1_1_B2:
	BYTE		N06     Gn0   v100
	BYTE	W06
	BYTE		        Gn1 
	BYTE	W06
	BYTE		N06   
	BYTE	W06
// 040   ----------------------------------------
	BYTE		        Gn0 
	BYTE	W06
	BYTE		N06   
	BYTE	W06
	BYTE		        Gn1 
	BYTE	W06
	BYTE		N06   
	BYTE	W06
	BYTE		        Gn0 
	BYTE	W06
	BYTE		N06   
	BYTE	W06
	BYTE		        Gn1 
	BYTE	W06
	BYTE		N06   
	BYTE	W06
	BYTE		        Gn0 
	BYTE	W06
	BYTE		N06   
	BYTE	W06
	BYTE		        Gn1 
	BYTE	W06
	BYTE		N06   
	BYTE	W06
	BYTE		        Gn0 
	BYTE	W06
	BYTE		N06   
	BYTE	W06
	BYTE		        Gn1 
	BYTE	W06
	BYTE	FINE

//**************** Track 2 (Midi-Chn.2) ****************//

BlasterMasterStage1_2:
	BYTE	KEYSH   BlasterMasterStage1_key+0
// 000   ----------------------------------------
	BYTE		VOICE   2
	BYTE		PAN     c_v+63
	BYTE		VOL     100*BlasterMasterStage1_mvl/mxv
	BYTE		N06     Dn1   v100
	BYTE	W12
	BYTE		N06   
	BYTE	W06
	BYTE		N06   
	BYTE	W06
	BYTE		N06   
	BYTE	W12
	BYTE		N06   
	BYTE	W06
	BYTE		N06   
	BYTE	W06
	BYTE		N06   
	BYTE	W12
	BYTE		N06   
	BYTE	W06
	BYTE		N06   
	BYTE	W06
	BYTE		N06   
	BYTE	W06
	BYTE		N06   
	BYTE	W06
	BYTE		N06   
	BYTE	W06
	BYTE		N06   
	BYTE	W06
// 001   ----------------------------------------
BlasterMasterStage1_2_001:
	BYTE		N06     Dn1   v100
	BYTE	W12
	BYTE		N06   
	BYTE	W06
	BYTE		N06   
	BYTE	W06
	BYTE		N06   
	BYTE	W12
	BYTE		N06   
	BYTE	W06
	BYTE		N06   
	BYTE	W06
	BYTE		N06   
	BYTE	W12
	BYTE		N06   
	BYTE	W06
	BYTE		N06   
	BYTE	W06
	BYTE		N06   
	BYTE	W06
	BYTE		N06   
	BYTE	W06
	BYTE		N06   
	BYTE	W06
	BYTE		N06   
	BYTE	W06
	BYTE	PEND
// 002   ----------------------------------------
	BYTE	PATT
	 POIN2	BlasterMasterStage1_2_001
// 003   ----------------------------------------
	BYTE		N06     Dn1   v100
	BYTE	W06
	BYTE		N06   
	BYTE	W06
	BYTE		N06   
	BYTE	W06
	BYTE		N06   
	BYTE	W06
	BYTE		N06   
	BYTE	W06
	BYTE		N06   
	BYTE	W06
	BYTE		N06   
	BYTE	W06
	BYTE		N06   
	BYTE	W06
	BYTE		N06   
	BYTE	W06
	BYTE		N06   
	BYTE	W06
	BYTE		N06   
	BYTE	W06
	BYTE		N06   
	BYTE	W06
	BYTE		N06   
	BYTE	W06
	BYTE		N06   
	BYTE	W06
	BYTE		N06   
	BYTE	W06
	BYTE		N06   
	BYTE	W06
// 004   ----------------------------------------
BlasterMasterStage1_2_004:
	BYTE		N06     Gn0   v100
	BYTE	W06
	BYTE		N06   
	BYTE	W06
	BYTE		        Gn1 
	BYTE	W06
	BYTE		N06   
	BYTE	W06
	BYTE		        Gn0 
	BYTE	W06
	BYTE		N06   
	BYTE	W06
	BYTE		        Gn1 
	BYTE	W06
	BYTE		N06   
	BYTE	W06
	BYTE		        Gn0 
	BYTE	W06
	BYTE		N06   
	BYTE	W06
	BYTE		        Gn1 
	BYTE	W06
	BYTE		N06   
	BYTE	W06
	BYTE		        Gn0 
	BYTE	W06
	BYTE		N06   
	BYTE	W06
	BYTE		        Gn1 
	BYTE	W06
	BYTE		N06   
	BYTE	W06
	BYTE	PEND
// 005   ----------------------------------------
BlasterMasterStage1_2_005:
	BYTE		N06     Gn0   v100
	BYTE	W06
	BYTE		N06   
	BYTE	W06
	BYTE		        Gn1 
	BYTE	W06
	BYTE		N06   
	BYTE	W06
	BYTE		        Gn0 
	BYTE	W06
	BYTE		N06   
	BYTE	W06
	BYTE		        Gn1 
	BYTE	W06
	BYTE		N06   
	BYTE	W06
	BYTE		        Gn0 
	BYTE	W06
	BYTE		N06   
	BYTE	W06
	BYTE		        Gn1 
	BYTE	W06
	BYTE		N06   
	BYTE	W06
	BYTE		        Gn0 
	BYTE	W06
	BYTE	PEND
BlasterMasterStage1_2_B1:
	BYTE		N06     Gn0   v100
	BYTE	W06
	BYTE		        Gn1 
	BYTE	W06
	BYTE		N06   
	BYTE	W06
// 006   ----------------------------------------
	BYTE	PATT
	 POIN2	BlasterMasterStage1_2_004
// 007   ----------------------------------------
BlasterMasterStage1_2_007:
	BYTE		N06     Ds0   v100
	BYTE	W06
	BYTE		N06   
	BYTE	W06
	BYTE		        Ds1 
	BYTE	W06
	BYTE		N06   
	BYTE	W06
	BYTE		        Fn0 
	BYTE	W06
	BYTE		N06   
	BYTE	W06
	BYTE		        Fn1 
	BYTE	W06
	BYTE		N06   
	BYTE	W06
	BYTE		        Ds0 
	BYTE	W06
	BYTE		N06   
	BYTE	W06
	BYTE		        Ds1 
	BYTE	W06
	BYTE		N06   
	BYTE	W06
	BYTE		        Fn0 
	BYTE	W06
	BYTE		N06   
	BYTE	W06
	BYTE		        Fn1 
	BYTE	W06
	BYTE		N06   
	BYTE	W06
	BYTE	PEND
// 008   ----------------------------------------
	BYTE	PATT
	 POIN2	BlasterMasterStage1_2_004
// 009   ----------------------------------------
	BYTE	PATT
	 POIN2	BlasterMasterStage1_2_004
// 010   ----------------------------------------
	BYTE	PATT
	 POIN2	BlasterMasterStage1_2_004
// 011   ----------------------------------------
	BYTE	PATT
	 POIN2	BlasterMasterStage1_2_007
// 012   ----------------------------------------
	BYTE	PATT
	 POIN2	BlasterMasterStage1_2_004
// 013   ----------------------------------------
	BYTE	PATT
	 POIN2	BlasterMasterStage1_2_004
// 014   ----------------------------------------
	BYTE	PATT
	 POIN2	BlasterMasterStage1_2_004
// 015   ----------------------------------------
	BYTE	PATT
	 POIN2	BlasterMasterStage1_2_007
// 016   ----------------------------------------
	BYTE	PATT
	 POIN2	BlasterMasterStage1_2_004
// 017   ----------------------------------------
	BYTE	PATT
	 POIN2	BlasterMasterStage1_2_004
// 018   ----------------------------------------
	BYTE	PATT
	 POIN2	BlasterMasterStage1_2_004
// 019   ----------------------------------------
	BYTE	PATT
	 POIN2	BlasterMasterStage1_2_007
// 020   ----------------------------------------
	BYTE	PATT
	 POIN2	BlasterMasterStage1_2_004
// 021   ----------------------------------------
	BYTE	PATT
	 POIN2	BlasterMasterStage1_2_004
// 022   ----------------------------------------
BlasterMasterStage1_2_022:
	BYTE		N24     An0   v100
	BYTE	W24
	BYTE		N24   
	BYTE	W24
	BYTE		N24   
	BYTE	W24
	BYTE		N24   
	BYTE	W24
	BYTE	PEND
// 023   ----------------------------------------
	BYTE	PATT
	 POIN2	BlasterMasterStage1_2_022
// 024   ----------------------------------------
	BYTE	PATT
	 POIN2	BlasterMasterStage1_2_022
// 025   ----------------------------------------
	BYTE	PATT
	 POIN2	BlasterMasterStage1_2_022
// 026   ----------------------------------------
	BYTE	PATT
	 POIN2	BlasterMasterStage1_2_022
// 027   ----------------------------------------
	BYTE	PATT
	 POIN2	BlasterMasterStage1_2_022
// 028   ----------------------------------------
BlasterMasterStage1_2_028:
	BYTE		N24     Fs0   v100
	BYTE	W24
	BYTE		N24   
	BYTE	W24
	BYTE		N24   
	BYTE	W24
	BYTE		N24   
	BYTE	W24
	BYTE	PEND
// 029   ----------------------------------------
	BYTE	PATT
	 POIN2	BlasterMasterStage1_2_028
// 030   ----------------------------------------
	BYTE	PATT
	 POIN2	BlasterMasterStage1_2_007
// 031   ----------------------------------------
	BYTE	PATT
	 POIN2	BlasterMasterStage1_2_007
// 032   ----------------------------------------
	BYTE	PATT
	 POIN2	BlasterMasterStage1_2_007
// 033   ----------------------------------------
	BYTE	PATT
	 POIN2	BlasterMasterStage1_2_007
// 034   ----------------------------------------
	BYTE	PATT
	 POIN2	BlasterMasterStage1_2_004
// 035   ----------------------------------------
	BYTE	PATT
	 POIN2	BlasterMasterStage1_2_004
// 036   ----------------------------------------
	BYTE	PATT
	 POIN2	BlasterMasterStage1_2_004
// 037   ----------------------------------------
	BYTE	PATT
	 POIN2	BlasterMasterStage1_2_004
// 038   ----------------------------------------
	BYTE	PATT
	 POIN2	BlasterMasterStage1_2_004
// 039   ----------------------------------------
	BYTE	PATT
	 POIN2	BlasterMasterStage1_2_005
	BYTE	GoTo
	 POIN2	BlasterMasterStage1_2_B1
BlasterMasterStage1_2_B2:
	BYTE		N06     Gn0   v100
	BYTE	W06
	BYTE		        Gn1 
	BYTE	W06
	BYTE		N06   
	BYTE	W06
// 040   ----------------------------------------
	BYTE		        Gn0 
	BYTE	W06
	BYTE		N06   
	BYTE	W06
	BYTE		        Gn1 
	BYTE	W06
	BYTE		N06   
	BYTE	W06
	BYTE		        Gn0 
	BYTE	W06
	BYTE		N06   
	BYTE	W06
	BYTE		        Gn1 
	BYTE	W06
	BYTE		N06   
	BYTE	W06
	BYTE		        Gn0 
	BYTE	W06
	BYTE		N06   
	BYTE	W06
	BYTE		        Gn1 
	BYTE	W06
	BYTE		N06   
	BYTE	W06
	BYTE		        Gn0 
	BYTE	W06
	BYTE		N06   
	BYTE	W06
	BYTE		        Gn1 
	BYTE	W06
	BYTE	FINE

//**************** Track 3 (Midi-Chn.3) ****************//

BlasterMasterStage1_3:
	BYTE	KEYSH   BlasterMasterStage1_key+0
// 000   ----------------------------------------
	BYTE		VOICE   69
	BYTE		PAN     c_v+32
	BYTE		VOL     115*BlasterMasterStage1_mvl/mxv
	BYTE	W96
// 001   ----------------------------------------
	BYTE	W96
// 002   ----------------------------------------
	BYTE		N06     Cn4   v100
	BYTE	W12
	BYTE		N06   
	BYTE	W06
	BYTE		N06   
	BYTE	W06
	BYTE		N06   
	BYTE	W12
	BYTE		N06   
	BYTE	W06
	BYTE		N06   
	BYTE	W06
	BYTE		N06   
	BYTE	W12
	BYTE		N06   
	BYTE	W06
	BYTE		N06   
	BYTE	W06
	BYTE		N06   
	BYTE	W06
	BYTE		N06   
	BYTE	W06
	BYTE		N06   
	BYTE	W06
	BYTE		N06   
	BYTE	W06
// 003   ----------------------------------------
	BYTE		N06   
	BYTE	W06
	BYTE		N06   
	BYTE	W06
	BYTE		N06   
	BYTE	W06
	BYTE		N06   
	BYTE	W06
	BYTE		N06   
	BYTE	W06
	BYTE		N06   
	BYTE	W06
	BYTE		N06   
	BYTE	W06
	BYTE		N06   
	BYTE	W06
	BYTE		N06   
	BYTE	W06
	BYTE		N06   
	BYTE	W06
	BYTE		N06   
	BYTE	W06
	BYTE		N06   
	BYTE	W06
	BYTE		N06   
	BYTE	W06
	BYTE		N06   
	BYTE	W06
	BYTE		N06   
	BYTE	W06
	BYTE		N06   
	BYTE	W06
// 004   ----------------------------------------
BlasterMasterStage1_3_004:
	BYTE		N60     Gn3   v112
	BYTE	W60
	BYTE		N12   
	BYTE	W12
	BYTE		N06     Bn3 
	BYTE	W06
	BYTE		N12     Dn4 
	BYTE	W12
	BYTE		N54     Fn4 
	BYTE	W06
	BYTE	PEND
// 005   ----------------------------------------
BlasterMasterStage1_3_005:
	BYTE	W48
	BYTE		N06     Fn4   v112
	BYTE	W06
	BYTE		        En4 
	BYTE	W06
	BYTE		        Dn4 
	BYTE	W06
	BYTE		        Cn4 
	BYTE	W12
	BYTE	PEND
BlasterMasterStage1_3_B1:
	BYTE		N12     En4   v112
	BYTE	W12
	BYTE		TIE     Dn4 
	BYTE	W06
// 006   ----------------------------------------
	BYTE	W96
	BYTE		EOT   
// 007   ----------------------------------------
BlasterMasterStage1_3_007:
	BYTE	W12
	BYTE		N06     As2   v112
	BYTE	W06
	BYTE		N06   
	BYTE	W06
	BYTE		N06   
	BYTE	W06
	BYTE		        Cn3 
	BYTE	W18
	BYTE		        As2 
	BYTE	W06
	BYTE		N06   
	BYTE	W06
	BYTE		N06   
	BYTE	W06
	BYTE		        Cn3 
	BYTE	W30
	BYTE	PEND
// 008   ----------------------------------------
	BYTE	PATT
	 POIN2	BlasterMasterStage1_3_004
// 009   ----------------------------------------
BlasterMasterStage1_3_009:
	BYTE	W48
	BYTE		N06     Fn4   v112
	BYTE	W06
	BYTE		        An4 
	BYTE	W06
	BYTE		        Gn4 
	BYTE	W06
	BYTE		        Fn4 
	BYTE	W06
	BYTE		        En4 
	BYTE	W06
	BYTE		        Cn4 
	BYTE	W06
	BYTE		        En4 
	BYTE	W06
	BYTE		TIE     Dn4 
	BYTE	W06
	BYTE	PEND
// 010   ----------------------------------------
	BYTE	W96
	BYTE		EOT   
// 011   ----------------------------------------
	BYTE	PATT
	 POIN2	BlasterMasterStage1_3_007
// 012   ----------------------------------------
	BYTE	PATT
	 POIN2	BlasterMasterStage1_3_004
// 013   ----------------------------------------
	BYTE	W48
	BYTE		N06     Fn4   v112
	BYTE	W06
	BYTE		        En4 
	BYTE	W06
	BYTE		        Dn4 
	BYTE	W06
	BYTE		        Cn4 
	BYTE	W12
	BYTE		N12     En4 
	BYTE	W12
	BYTE		TIE     Dn4 
	BYTE	W06
// 014   ----------------------------------------
	BYTE	W96
	BYTE		EOT   
// 015   ----------------------------------------
	BYTE	PATT
	 POIN2	BlasterMasterStage1_3_007
// 016   ----------------------------------------
	BYTE	PATT
	 POIN2	BlasterMasterStage1_3_004
// 017   ----------------------------------------
	BYTE	PATT
	 POIN2	BlasterMasterStage1_3_009
// 018   ----------------------------------------
	BYTE	W96
	BYTE		EOT     Dn4 
// 019   ----------------------------------------
	BYTE	W12
	BYTE		N06     As2   v112
	BYTE	W06
	BYTE		N06   
	BYTE	W06
	BYTE		N06   
	BYTE	W06
	BYTE		        Cn3 
	BYTE	W18
	BYTE		        As2 
	BYTE	W06
	BYTE		N06   
	BYTE	W06
	BYTE		N06   
	BYTE	W06
	BYTE		        Cn3 
	BYTE	W12
	BYTE		        Ds4 
	BYTE	W12
	BYTE		TIE     Dn4 
	BYTE	W06
// 020   ----------------------------------------
	BYTE	W96
// 021   ----------------------------------------
	BYTE	W96
	BYTE		EOT   
// 022   ----------------------------------------
	BYTE	W96
// 023   ----------------------------------------
	BYTE	W48
	BYTE		N18     Bn2   v100
	BYTE	W18
	BYTE		        Cs3 
	BYTE	W18
	BYTE		N12     Dn3 
	BYTE	W12
// 024   ----------------------------------------
	BYTE		N72     En3 
	BYTE	W72
	BYTE		N24     An3 
	BYTE	W24
// 025   ----------------------------------------
	BYTE		N18     Bn3 
	BYTE	W18
	BYTE		        Gn3 
	BYTE	W18
	BYTE		N12     Dn3 
	BYTE	W12
	BYTE		N24     Gn3 
	BYTE	W24
	BYTE		        Bn2 
	BYTE	W24
// 026   ----------------------------------------
	BYTE		N96     En3 
	BYTE	W96
// 027   ----------------------------------------
	BYTE		N18     Bn2 
	BYTE	W18
	BYTE		N54     Gn3 
	BYTE	W54
	BYTE		N24     Dn3 
	BYTE	W24
// 028   ----------------------------------------
	BYTE		N18     Fs3 
	BYTE	W18
	BYTE		        Cs3 
	BYTE	W18
	BYTE		N12     As2 
	BYTE	W12
	BYTE		N18     Cs3 
	BYTE	W18
	BYTE		        Fs2 
	BYTE	W18
	BYTE		TIE     As2 
	BYTE	W12
// 029   ----------------------------------------
	BYTE	W96
	BYTE		EOT   
// 030   ----------------------------------------
	BYTE	PATT
	 POIN2	BlasterMasterStage1_3_007
// 031   ----------------------------------------
BlasterMasterStage1_3_031:
	BYTE		N06     As2   v112
	BYTE	W06
	BYTE		N06   
	BYTE	W06
	BYTE		N06   
	BYTE	W06
	BYTE		N06   
	BYTE	W06
	BYTE		N06   
	BYTE	W06
	BYTE		        Cn3 
	BYTE	W18
	BYTE		        As2 
	BYTE	W06
	BYTE		N06   
	BYTE	W06
	BYTE		N06   
	BYTE	W06
	BYTE		        Cn3 
	BYTE	W30
	BYTE	PEND
// 032   ----------------------------------------
	BYTE	PATT
	 POIN2	BlasterMasterStage1_3_007
// 033   ----------------------------------------
	BYTE	PATT
	 POIN2	BlasterMasterStage1_3_031
// 034   ----------------------------------------
	BYTE		N72     Gn3   v112
	BYTE	W72
	BYTE		N06   
	BYTE	W06
	BYTE		        Dn3 
	BYTE	W06
	BYTE		        Gn3 
	BYTE	W06
	BYTE		N66     Fn3 
	BYTE	W06
// 035   ----------------------------------------
	BYTE	W60
	BYTE		N12     En3 
	BYTE	W24
	BYTE		        Dn3 
	BYTE	W12
// 036   ----------------------------------------
	BYTE		N72     Gn3 
	BYTE	W72
	BYTE		N06   
	BYTE	W06
	BYTE		        Dn3 
	BYTE	W06
	BYTE		        Gn3 
	BYTE	W06
	BYTE		N12     Fn3 
	BYTE	W06
// 037   ----------------------------------------
	BYTE	W18
	BYTE		        An3 
	BYTE	W18
	BYTE		        Cn4 
	BYTE	W12
	BYTE		N48     Fn4 
	BYTE	W48
// 038   ----------------------------------------
	BYTE	PATT
	 POIN2	BlasterMasterStage1_3_004
// 039   ----------------------------------------
	BYTE	PATT
	 POIN2	BlasterMasterStage1_3_005
	BYTE	GoTo
	 POIN2	BlasterMasterStage1_3_B1
BlasterMasterStage1_3_B2:
	BYTE		N12     En4   v112
	BYTE	W18
// 040   ----------------------------------------
	BYTE	W90
	BYTE	FINE

//**************** Track 4 (Midi-Chn.4) ****************//

BlasterMasterStage1_4:
	BYTE	KEYSH   BlasterMasterStage1_key+0
// 000   ----------------------------------------
	BYTE		VOICE   56
	BYTE		PAN     c_v-32
	BYTE		VOL     115*BlasterMasterStage1_mvl/mxv
	BYTE	W96
// 001   ----------------------------------------
BlasterMasterStage1_4_001:
	BYTE		N06     Gn3   v100
	BYTE	W12
	BYTE		N06   
	BYTE	W06
	BYTE		N06   
	BYTE	W06
	BYTE		N06   
	BYTE	W12
	BYTE		N06   
	BYTE	W06
	BYTE		N06   
	BYTE	W06
	BYTE		N06   
	BYTE	W12
	BYTE		N06   
	BYTE	W06
	BYTE		N06   
	BYTE	W06
	BYTE		N06   
	BYTE	W06
	BYTE		N06   
	BYTE	W06
	BYTE		N06   
	BYTE	W06
	BYTE		N06   
	BYTE	W06
	BYTE	PEND
// 002   ----------------------------------------
	BYTE	PATT
	 POIN2	BlasterMasterStage1_4_001
// 003   ----------------------------------------
	BYTE		N06     Gn3   v100
	BYTE	W06
	BYTE		N06   
	BYTE	W06
	BYTE		N06   
	BYTE	W06
	BYTE		N06   
	BYTE	W06
	BYTE		N06   
	BYTE	W06
	BYTE		N06   
	BYTE	W06
	BYTE		N06   
	BYTE	W06
	BYTE		N06   
	BYTE	W06
	BYTE		N06   
	BYTE	W06
	BYTE		N06   
	BYTE	W06
	BYTE		N06   
	BYTE	W06
	BYTE		N06   
	BYTE	W06
	BYTE		N06   
	BYTE	W06
	BYTE		N06   
	BYTE	W06
	BYTE		N06   
	BYTE	W06
	BYTE		N06   
	BYTE	W06
// 004   ----------------------------------------
BlasterMasterStage1_4_004:
	BYTE		N60     Bn2   v112
	BYTE	W60
	BYTE		N12   
	BYTE	W12
	BYTE		N06     Dn3 
	BYTE	W06
	BYTE		N12     Gn3 
	BYTE	W12
	BYTE		N60     An3 
	BYTE	W06
	BYTE	PEND
// 005   ----------------------------------------
BlasterMasterStage1_4_005:
	BYTE	W54
	BYTE		N06     Cn4   v112
	BYTE	W06
	BYTE		        Bn3 
	BYTE	W06
	BYTE		        An3 
	BYTE	W12
	BYTE	PEND
BlasterMasterStage1_4_B1:
	BYTE		N12     Cn4   v112
	BYTE	W12
	BYTE		TIE     Bn3 
	BYTE	W06
// 006   ----------------------------------------
	BYTE	W96
	BYTE		EOT   
// 007   ----------------------------------------
BlasterMasterStage1_4_007:
	BYTE	W12
	BYTE		N06     Gn2   v112
	BYTE	W06
	BYTE		N06   
	BYTE	W06
	BYTE		N06   
	BYTE	W06
	BYTE		        An2 
	BYTE	W18
	BYTE		        Gn2 
	BYTE	W06
	BYTE		N06   
	BYTE	W06
	BYTE		N06   
	BYTE	W06
	BYTE		        An2 
	BYTE	W30
	BYTE	PEND
// 008   ----------------------------------------
	BYTE	PATT
	 POIN2	BlasterMasterStage1_4_004
// 009   ----------------------------------------
BlasterMasterStage1_4_009:
	BYTE	W54
	BYTE		N06     Cn4   v112
	BYTE	W06
	BYTE		        Bn3 
	BYTE	W06
	BYTE		        An3 
	BYTE	W06
	BYTE		        Gn3 
	BYTE	W06
	BYTE		        En3 
	BYTE	W06
	BYTE		        Gn3 
	BYTE	W06
	BYTE		TIE     Bn3 
	BYTE	W06
	BYTE	PEND
// 010   ----------------------------------------
	BYTE	W96
	BYTE		EOT   
// 011   ----------------------------------------
	BYTE	PATT
	 POIN2	BlasterMasterStage1_4_007
// 012   ----------------------------------------
	BYTE	PATT
	 POIN2	BlasterMasterStage1_4_004
// 013   ----------------------------------------
	BYTE	W54
	BYTE		N06     Cn4   v112
	BYTE	W06
	BYTE		        Bn3 
	BYTE	W06
	BYTE		        An3 
	BYTE	W12
	BYTE		N12     Cn4 
	BYTE	W12
	BYTE		TIE     Bn3 
	BYTE	W06
// 014   ----------------------------------------
	BYTE	W96
	BYTE		EOT   
// 015   ----------------------------------------
	BYTE	PATT
	 POIN2	BlasterMasterStage1_4_007
// 016   ----------------------------------------
	BYTE	PATT
	 POIN2	BlasterMasterStage1_4_004
// 017   ----------------------------------------
	BYTE	PATT
	 POIN2	BlasterMasterStage1_4_009
// 018   ----------------------------------------
	BYTE	W96
	BYTE		EOT     Bn3 
// 019   ----------------------------------------
	BYTE	W12
	BYTE		N06     Gn2   v112
	BYTE	W06
	BYTE		N06   
	BYTE	W06
	BYTE		N06   
	BYTE	W06
	BYTE		        An2 
	BYTE	W18
	BYTE		        Gn2 
	BYTE	W06
	BYTE		N06   
	BYTE	W06
	BYTE		N06   
	BYTE	W06
	BYTE		        An2 
	BYTE	W12
	BYTE		        Cn4 
	BYTE	W12
	BYTE		N54     Bn3 
	BYTE	W06
// 020   ----------------------------------------
	BYTE	W48
	BYTE		N18     Gn3 
	BYTE	W18
	BYTE		        Dn3 
	BYTE	W18
	BYTE		N12     Cn3 
	BYTE	W12
// 021   ----------------------------------------
	BYTE		N96     Bn2 
	BYTE	W96
// 022   ----------------------------------------
BlasterMasterStage1_4_022:
	BYTE		N72     Cs4   v116
	BYTE	W72
	BYTE		N08     Dn4 
	BYTE	W08
	BYTE		        En4 
	BYTE	W08
	BYTE		        An3 
	BYTE	W08
	BYTE	PEND
// 023   ----------------------------------------
	BYTE		N18     Gn3 
	BYTE	W18
	BYTE		N78     Dn4 
	BYTE	W78
// 024   ----------------------------------------
	BYTE		N72     Cs4 
	BYTE	W72
	BYTE		N08     Dn4 
	BYTE	W08
	BYTE		        En4 
	BYTE	W08
	BYTE		        An4 
	BYTE	W08
// 025   ----------------------------------------
	BYTE		N18     Gn4 
	BYTE	W18
	BYTE		        Dn4 
	BYTE	W18
	BYTE		N12     Bn3 
	BYTE	W12
	BYTE		N24     Dn4 
	BYTE	W24
	BYTE		        Gn3 
	BYTE	W24
// 026   ----------------------------------------
	BYTE	PATT
	 POIN2	BlasterMasterStage1_4_022
// 027   ----------------------------------------
	BYTE		N18     Gn3   v116
	BYTE	W18
	BYTE		N54     Dn4 
	BYTE	W54
	BYTE		N24     Bn3 
	BYTE	W24
// 028   ----------------------------------------
	BYTE		N18     Cs4 
	BYTE	W18
	BYTE		        As3 
	BYTE	W18
	BYTE		N12     Fs3 
	BYTE	W12
	BYTE		N18     As3 
	BYTE	W18
	BYTE		        Cs3 
	BYTE	W18
	BYTE		TIE     Fs3 
	BYTE	W12
// 029   ----------------------------------------
	BYTE	W96
	BYTE		EOT   
// 030   ----------------------------------------
	BYTE	PATT
	 POIN2	BlasterMasterStage1_4_007
// 031   ----------------------------------------
BlasterMasterStage1_4_031:
	BYTE		N06     Gn2   v112
	BYTE	W06
	BYTE		N06   
	BYTE	W06
	BYTE		N06   
	BYTE	W06
	BYTE		N06   
	BYTE	W06
	BYTE		N06   
	BYTE	W06
	BYTE		        An2 
	BYTE	W18
	BYTE		        Gn2 
	BYTE	W06
	BYTE		N06   
	BYTE	W06
	BYTE		N06   
	BYTE	W06
	BYTE		        An2 
	BYTE	W30
	BYTE	PEND
// 032   ----------------------------------------
	BYTE	PATT
	 POIN2	BlasterMasterStage1_4_007
// 033   ----------------------------------------
	BYTE	PATT
	 POIN2	BlasterMasterStage1_4_031
// 034   ----------------------------------------
	BYTE		N72     Bn2   v112
	BYTE	W72
	BYTE		N06   
	BYTE	W06
	BYTE		N06   
	BYTE	W06
	BYTE		N06   
	BYTE	W06
	BYTE		N66     An2 
	BYTE	W06
// 035   ----------------------------------------
	BYTE	W60
	BYTE		N12     Cn3 
	BYTE	W24
	BYTE		        Bn2 
	BYTE	W12
// 036   ----------------------------------------
	BYTE		N72   
	BYTE	W72
	BYTE		N06   
	BYTE	W06
	BYTE		N06   
	BYTE	W06
	BYTE		N06   
	BYTE	W06
	BYTE		N12     An2 
	BYTE	W06
// 037   ----------------------------------------
	BYTE	W18
	BYTE		        Cn3 
	BYTE	W18
	BYTE		        Fn3 
	BYTE	W12
	BYTE		N48     An3 
	BYTE	W48
// 038   ----------------------------------------
	BYTE	PATT
	 POIN2	BlasterMasterStage1_4_004
// 039   ----------------------------------------
	BYTE	PATT
	 POIN2	BlasterMasterStage1_4_005
	BYTE	GoTo
	 POIN2	BlasterMasterStage1_4_B1
BlasterMasterStage1_4_B2:
	BYTE		N12     Cn4   v112
	BYTE	W18
// 040   ----------------------------------------
	BYTE	W90
	BYTE	FINE

//**************** Track 5 (Midi-Chn.5) ****************//

BlasterMasterStage1_5:
	BYTE	KEYSH   BlasterMasterStage1_key+0
// 000   ----------------------------------------
	BYTE		VOICE   58
	BYTE		PAN     c_v+0
	BYTE		VOL     115*BlasterMasterStage1_mvl/mxv
	BYTE		N06     Dn3   v100
	BYTE	W12
	BYTE		N06   
	BYTE	W06
	BYTE		N06   
	BYTE	W06
	BYTE		N06   
	BYTE	W12
	BYTE		N06   
	BYTE	W06
	BYTE		N06   
	BYTE	W06
	BYTE		N06   
	BYTE	W12
	BYTE		N06   
	BYTE	W06
	BYTE		N06   
	BYTE	W06
	BYTE		N06   
	BYTE	W06
	BYTE		N06   
	BYTE	W06
	BYTE		N06   
	BYTE	W06
	BYTE		N06   
	BYTE	W06
// 001   ----------------------------------------
BlasterMasterStage1_5_001:
	BYTE		N06     Dn3   v100
	BYTE	W12
	BYTE		N06   
	BYTE	W06
	BYTE		N06   
	BYTE	W06
	BYTE		N06   
	BYTE	W12
	BYTE		N06   
	BYTE	W06
	BYTE		N06   
	BYTE	W06
	BYTE		N06   
	BYTE	W12
	BYTE		N06   
	BYTE	W06
	BYTE		N06   
	BYTE	W06
	BYTE		N06   
	BYTE	W06
	BYTE		N06   
	BYTE	W06
	BYTE		N06   
	BYTE	W06
	BYTE		N06   
	BYTE	W06
	BYTE	PEND
// 002   ----------------------------------------
	BYTE	PATT
	 POIN2	BlasterMasterStage1_5_001
// 003   ----------------------------------------
	BYTE		N06     Dn3   v100
	BYTE	W06
	BYTE		N06   
	BYTE	W06
	BYTE		N06   
	BYTE	W06
	BYTE		N06   
	BYTE	W06
	BYTE		N06   
	BYTE	W06
	BYTE		N06   
	BYTE	W06
	BYTE		N06   
	BYTE	W06
	BYTE		N06   
	BYTE	W06
	BYTE		N06   
	BYTE	W06
	BYTE		N06   
	BYTE	W06
	BYTE		N06   
	BYTE	W06
	BYTE		N06   
	BYTE	W06
	BYTE		N06   
	BYTE	W06
	BYTE		N06   
	BYTE	W06
	BYTE		N06   
	BYTE	W06
	BYTE		N06   
	BYTE	W06
// 004   ----------------------------------------
	BYTE	W96
// 005   ----------------------------------------
	BYTE	W78
BlasterMasterStage1_5_B1:
	BYTE	W18
// 006   ----------------------------------------
	BYTE	W96
// 007   ----------------------------------------
	BYTE	W96
// 008   ----------------------------------------
	BYTE	W96
// 009   ----------------------------------------
	BYTE	W96
// 010   ----------------------------------------
	BYTE	W96
// 011   ----------------------------------------
	BYTE	W96
// 012   ----------------------------------------
	BYTE	W96
// 013   ----------------------------------------
	BYTE	W96
// 014   ----------------------------------------
	BYTE	W96
// 015   ----------------------------------------
	BYTE	W96
// 016   ----------------------------------------
	BYTE	W96
// 017   ----------------------------------------
	BYTE	W96
// 018   ----------------------------------------
	BYTE	W96
// 019   ----------------------------------------
	BYTE	W96
// 020   ----------------------------------------
	BYTE	W96
// 021   ----------------------------------------
	BYTE	W96
// 022   ----------------------------------------
BlasterMasterStage1_5_022:
	BYTE		N06     An2   v100
	BYTE	W06
	BYTE		        Cs3 
	BYTE	W06
	BYTE		        En3 
	BYTE	W06
	BYTE		        An3 
	BYTE	W06
	BYTE		        An2 
	BYTE	W06
	BYTE		        Cs3 
	BYTE	W06
	BYTE		        En3 
	BYTE	W06
	BYTE		        An3 
	BYTE	W06
	BYTE		        An2 
	BYTE	W06
	BYTE		        Cs3 
	BYTE	W06
	BYTE		        En3 
	BYTE	W06
	BYTE		        An3 
	BYTE	W06
	BYTE		        An2 
	BYTE	W06
	BYTE		        Cs3 
	BYTE	W06
	BYTE		        En3 
	BYTE	W06
	BYTE		        An3 
	BYTE	W06
	BYTE	PEND
// 023   ----------------------------------------
BlasterMasterStage1_5_023:
	BYTE		N06     Gn2   v100
	BYTE	W06
	BYTE		        Bn2 
	BYTE	W06
	BYTE		        Dn3 
	BYTE	W06
	BYTE		        Gn3 
	BYTE	W06
	BYTE		        Gn2 
	BYTE	W06
	BYTE		        Bn2 
	BYTE	W06
	BYTE		        Dn3 
	BYTE	W06
	BYTE		        Gn3 
	BYTE	W06
	BYTE		        Gn2 
	BYTE	W06
	BYTE		        Bn2 
	BYTE	W06
	BYTE		        Dn3 
	BYTE	W06
	BYTE		        Gn3 
	BYTE	W06
	BYTE		        Gn2 
	BYTE	W06
	BYTE		        Bn2 
	BYTE	W06
	BYTE		        Dn3 
	BYTE	W06
	BYTE		        Gn3 
	BYTE	W06
	BYTE	PEND
// 024   ----------------------------------------
	BYTE	PATT
	 POIN2	BlasterMasterStage1_5_022
// 025   ----------------------------------------
	BYTE	PATT
	 POIN2	BlasterMasterStage1_5_023
// 026   ----------------------------------------
	BYTE	PATT
	 POIN2	BlasterMasterStage1_5_022
// 027   ----------------------------------------
	BYTE	PATT
	 POIN2	BlasterMasterStage1_5_023
// 028   ----------------------------------------
	BYTE		N06     As2   v100
	BYTE	W06
	BYTE		        Cs3 
	BYTE	W06
	BYTE		        Fs3 
	BYTE	W06
	BYTE		        As3 
	BYTE	W06
	BYTE		        As2 
	BYTE	W06
	BYTE		        Cs3 
	BYTE	W06
	BYTE		        Fs3 
	BYTE	W06
	BYTE		        As3 
	BYTE	W06
	BYTE		        As2 
	BYTE	W06
	BYTE		        Cs3 
	BYTE	W06
	BYTE		        Fs3 
	BYTE	W06
	BYTE		        As3 
	BYTE	W06
	BYTE		        As2 
	BYTE	W06
	BYTE		        Cs3 
	BYTE	W06
	BYTE		        Fs3 
	BYTE	W06
	BYTE		        As3 
	BYTE	W06
// 029   ----------------------------------------
	BYTE		        As2 
	BYTE	W06
	BYTE		        Cs3 
	BYTE	W06
	BYTE		        Fs3 
	BYTE	W06
	BYTE		        As3 
	BYTE	W06
	BYTE		        Cs3 
	BYTE	W06
	BYTE		        Fs3 
	BYTE	W06
	BYTE		        As3 
	BYTE	W06
	BYTE		        Cs4 
	BYTE	W06
	BYTE		        Fs4 
	BYTE	W06
	BYTE		        Cs4 
	BYTE	W06
	BYTE		        As3 
	BYTE	W06
	BYTE		        Fs3 
	BYTE	W06
	BYTE		        As3 
	BYTE	W06
	BYTE		        Fs3 
	BYTE	W06
	BYTE		        Cs3 
	BYTE	W06
	BYTE		        As2 
	BYTE	W06
// 030   ----------------------------------------
	BYTE	W96
// 031   ----------------------------------------
	BYTE	W96
// 032   ----------------------------------------
	BYTE	W96
// 033   ----------------------------------------
	BYTE	W96
// 034   ----------------------------------------
	BYTE	W96
// 035   ----------------------------------------
	BYTE	W96
// 036   ----------------------------------------
	BYTE	W96
// 037   ----------------------------------------
	BYTE	W96
// 038   ----------------------------------------
	BYTE	W96
// 039   ----------------------------------------
	BYTE	W78
	BYTE	GoTo
	 POIN2	BlasterMasterStage1_5_B1
BlasterMasterStage1_5_B2:
	BYTE	W18
// 040   ----------------------------------------
	BYTE	W90
	BYTE	FINE

//**************** Track 6 (Midi-Chn.6) ****************//

BlasterMasterStage1_6:
	BYTE	KEYSH   BlasterMasterStage1_key+0
// 000   ----------------------------------------
	BYTE		VOICE   127
	BYTE		PAN     c_v+0
	BYTE		VOL     100*BlasterMasterStage1_mvl/mxv
	BYTE		N24     Cn1   v092
	BYTE		N06     Fs1   v100
	BYTE	W06
	BYTE		N06   
	BYTE	W06
	BYTE		N12     As1 
	BYTE	W12
	BYTE		N24     Cn1   v092
	BYTE		N06     Fs1   v100
	BYTE		N06     Gs1 
	BYTE	W06
	BYTE		        Fs1 
	BYTE	W06
	BYTE		N12     As1 
	BYTE	W12
	BYTE		N24     Cn1   v092
	BYTE		N06     Fs1   v100
	BYTE		N06     Gs1 
	BYTE	W06
	BYTE		        Fs1 
	BYTE	W06
	BYTE		N12     As1 
	BYTE	W12
	BYTE		N24     Cn1   v092
	BYTE		N06     Fs1   v100
	BYTE		N06     Gs1 
	BYTE	W06
	BYTE		        Fs1 
	BYTE	W06
	BYTE		N12     As1 
	BYTE	W12
// 001   ----------------------------------------
	BYTE		N24     Cn1   v092
	BYTE		N06     Fs1   v100
	BYTE		N06     Gs1 
	BYTE	W06
	BYTE		        Fs1 
	BYTE	W06
	BYTE		N12     As1 
	BYTE	W12
	BYTE		N24     Cn1   v092
	BYTE		N06     Fs1   v100
	BYTE		N06     Gs1 
	BYTE	W06
	BYTE		        Fs1 
	BYTE	W06
	BYTE		N12     As1 
	BYTE	W12
	BYTE		N24     Cn1   v092
	BYTE		N06     Fs1   v100
	BYTE		N06     Gs1 
	BYTE	W06
	BYTE		        Fs1 
	BYTE	W06
	BYTE		N12     As1 
	BYTE	W12
	BYTE		N24     Cn1   v092
	BYTE		N06     Fs1   v100
	BYTE		N06     Gs1 
	BYTE	W06
	BYTE		        Fs1 
	BYTE	W06
	BYTE		N12     As1 
	BYTE	W12
// 002   ----------------------------------------
	BYTE		N24     Cn1   v092
	BYTE		N06     Fs1   v100
	BYTE	W06
	BYTE		N06   
	BYTE	W06
	BYTE		N12     As1 
	BYTE	W12
	BYTE		N24     Cn1   v092
	BYTE		N06     Fs1   v100
	BYTE	W06
	BYTE		N06   
	BYTE	W06
	BYTE		N12     As1 
	BYTE	W12
	BYTE		N24     Cn1   v092
	BYTE		N06     Fs1   v100
	BYTE	W06
	BYTE		N06   
	BYTE	W06
	BYTE		N12     As1 
	BYTE	W12
	BYTE		N24     Cn1   v092
	BYTE		N06     Fs1   v100
	BYTE	W06
	BYTE		N06   
	BYTE	W06
	BYTE		N12     As1 
	BYTE	W12
// 003   ----------------------------------------
	BYTE		N24     Cn1   v092
	BYTE		N06     Fs1   v100
	BYTE	W06
	BYTE		N06   
	BYTE	W06
	BYTE		N12     En1   v120
	BYTE	W06
	BYTE		N06     Fs1   v100
	BYTE	W06
	BYTE		N24     Cn1   v092
	BYTE		N06     Fs1   v100
	BYTE	W06
	BYTE		N06   
	BYTE	W06
	BYTE		N12     En1   v120
	BYTE	W06
	BYTE		N06     Fs1   v100
	BYTE	W06
	BYTE		N24     Cn1   v092
	BYTE		N06     Fs1   v100
	BYTE	W06
	BYTE		N12     En1   v120
	BYTE	W06
	BYTE		N06     Fs1   v100
	BYTE	W06
	BYTE		N06   
	BYTE	W06
	BYTE		N24     Cn1   v092
	BYTE		N12     En1   v120
	BYTE	W06
	BYTE		N06     Fs1   v100
	BYTE	W06
	BYTE		N06   
	BYTE	W06
	BYTE		N06   
	BYTE	W06
// 004   ----------------------------------------
BlasterMasterStage1_6_004:
	BYTE		N24     Cn1   v092
	BYTE		N06     Fs1   v100
	BYTE		N24     An2   v120
	BYTE	W06
	BYTE		N06     Fs1   v100
	BYTE	W06
	BYTE		        As1 
	BYTE	W06
	BYTE		N06   
	BYTE	W06
	BYTE		N24     Cn1   v092
	BYTE		N06     Dn1   v127
	BYTE		N06     Gs1   v100
	BYTE	W06
	BYTE		        Fs1 
	BYTE	W06
	BYTE		        As1 
	BYTE	W06
	BYTE		N06   
	BYTE	W06
	BYTE		N24     Cn1   v092
	BYTE		N06     Fs1   v100
	BYTE		N06     Gs1 
	BYTE	W06
	BYTE		        Fs1 
	BYTE	W06
	BYTE		        As1 
	BYTE	W06
	BYTE		N06   
	BYTE	W06
	BYTE		N24     Cn1   v092
	BYTE		N06     Dn1   v127
	BYTE		N06     Gs1   v100
	BYTE	W06
	BYTE		        Fs1 
	BYTE	W06
	BYTE		        As1 
	BYTE	W06
	BYTE		N06   
	BYTE	W06
	BYTE	PEND
// 005   ----------------------------------------
BlasterMasterStage1_6_005:
	BYTE		N24     Cn1   v092
	BYTE		N06     Fs1   v100
	BYTE		N06     Gs1 
	BYTE	W06
	BYTE		        Fs1 
	BYTE	W06
	BYTE		        As1 
	BYTE	W06
	BYTE		N06   
	BYTE	W06
	BYTE		N24     Cn1   v092
	BYTE		N06     Dn1   v127
	BYTE		N06     Gs1   v100
	BYTE	W06
	BYTE		        Fs1 
	BYTE	W06
	BYTE		        As1 
	BYTE	W06
	BYTE		N06   
	BYTE	W06
	BYTE		N24     Cn1   v092
	BYTE		N06     Fs1   v100
	BYTE		N06     Gs1 
	BYTE	W06
	BYTE		        Fs1 
	BYTE	W06
	BYTE		        As1 
	BYTE	W06
	BYTE		N06   
	BYTE	W06
	BYTE		N24     Cn1   v092
	BYTE		N06     Dn1   v127
	BYTE		N06     Gs1   v100
	BYTE	W06
	BYTE	PEND
BlasterMasterStage1_6_B1:
	BYTE		N06     Fs1   v100
	BYTE	W06
	BYTE		        As1 
	BYTE	W06
	BYTE		N06   
	BYTE	W06
// 006   ----------------------------------------
BlasterMasterStage1_6_006:
	BYTE		N24     Cn1   v092
	BYTE		N06     Fs1   v100
	BYTE		N06     Gs1 
	BYTE	W06
	BYTE		        Fs1 
	BYTE	W06
	BYTE		        As1 
	BYTE	W06
	BYTE		N06   
	BYTE	W06
	BYTE		N24     Cn1   v092
	BYTE		N06     Dn1   v127
	BYTE		N06     Gs1   v100
	BYTE	W06
	BYTE		        Fs1 
	BYTE	W06
	BYTE		        As1 
	BYTE	W06
	BYTE		N06   
	BYTE	W06
	BYTE		N24     Cn1   v092
	BYTE		N06     Fs1   v100
	BYTE		N06     Gs1 
	BYTE	W06
	BYTE		        Fs1 
	BYTE	W06
	BYTE		        As1 
	BYTE	W06
	BYTE		N06   
	BYTE	W06
	BYTE		N24     Cn1   v092
	BYTE		N06     Dn1   v127
	BYTE		N06     Gs1   v100
	BYTE	W06
	BYTE		        Fs1 
	BYTE	W06
	BYTE		        As1 
	BYTE	W06
	BYTE		N06   
	BYTE	W06
	BYTE	PEND
// 007   ----------------------------------------
BlasterMasterStage1_6_007:
	BYTE		N24     Cn1   v092
	BYTE		N06     Fs1   v100
	BYTE		N06     Gs1 
	BYTE	W06
	BYTE		        Fs1 
	BYTE	W06
	BYTE		        As1 
	BYTE	W06
	BYTE		N06   
	BYTE	W06
	BYTE		N24     Cn1   v092
	BYTE		N06     As1   v100
	BYTE	W06
	BYTE		        Dn1   v127
	BYTE		N06     Gs1   v100
	BYTE	W06
	BYTE		        Fs1 
	BYTE	W06
	BYTE		N06   
	BYTE	W06
	BYTE		N24     Cn1   v092
	BYTE		N06     As1   v100
	BYTE	W06
	BYTE		N06   
	BYTE	W06
	BYTE		N06   
	BYTE	W06
	BYTE		        Fs1 
	BYTE		N06     Gs1 
	BYTE	W06
	BYTE		N24     Cn1   v092
	BYTE		N06     Fs1   v100
	BYTE	W06
	BYTE		        Dn1   v127
	BYTE	W06
	BYTE		        As1   v100
	BYTE	W06
	BYTE		N06   
	BYTE	W06
	BYTE	PEND
// 008   ----------------------------------------
	BYTE	PATT
	 POIN2	BlasterMasterStage1_6_006
// 009   ----------------------------------------
	BYTE	PATT
	 POIN2	BlasterMasterStage1_6_006
// 010   ----------------------------------------
	BYTE	PATT
	 POIN2	BlasterMasterStage1_6_006
// 011   ----------------------------------------
	BYTE	PATT
	 POIN2	BlasterMasterStage1_6_007
// 012   ----------------------------------------
	BYTE	PATT
	 POIN2	BlasterMasterStage1_6_006
// 013   ----------------------------------------
	BYTE	PATT
	 POIN2	BlasterMasterStage1_6_006
// 014   ----------------------------------------
	BYTE	PATT
	 POIN2	BlasterMasterStage1_6_006
// 015   ----------------------------------------
	BYTE	PATT
	 POIN2	BlasterMasterStage1_6_007
// 016   ----------------------------------------
	BYTE	PATT
	 POIN2	BlasterMasterStage1_6_006
// 017   ----------------------------------------
	BYTE	PATT
	 POIN2	BlasterMasterStage1_6_006
// 018   ----------------------------------------
	BYTE	PATT
	 POIN2	BlasterMasterStage1_6_006
// 019   ----------------------------------------
	BYTE	PATT
	 POIN2	BlasterMasterStage1_6_007
// 020   ----------------------------------------
	BYTE	PATT
	 POIN2	BlasterMasterStage1_6_006
// 021   ----------------------------------------
	BYTE		N24     Cn1   v092
	BYTE		N06     Fs1   v100
	BYTE		N06     Gs1 
	BYTE	W06
	BYTE		        Fs1 
	BYTE	W06
	BYTE		        As1 
	BYTE	W06
	BYTE		N06   
	BYTE	W06
	BYTE		N24     Cn1   v092
	BYTE		N06     Dn1   v127
	BYTE		N06     Gs1   v100
	BYTE	W06
	BYTE		        Fs1 
	BYTE	W06
	BYTE		        As1 
	BYTE	W06
	BYTE		N06   
	BYTE	W06
	BYTE		N24     Cn1   v092
	BYTE		N06     Fs1   v100
	BYTE		N06     Gs1 
	BYTE	W06
	BYTE		        Fs1 
	BYTE	W06
	BYTE		        As1 
	BYTE	W06
	BYTE		N06   
	BYTE	W06
	BYTE		N24     Cn1   v092
	BYTE		N06     Dn1   v127
	BYTE		N06     Gs1   v100
	BYTE	W06
	BYTE		        Dn1   v127
	BYTE	W06
	BYTE		N06   
	BYTE	W06
	BYTE		N06   
	BYTE	W06
// 022   ----------------------------------------
	BYTE	PATT
	 POIN2	BlasterMasterStage1_6_004
// 023   ----------------------------------------
	BYTE	PATT
	 POIN2	BlasterMasterStage1_6_006
// 024   ----------------------------------------
BlasterMasterStage1_6_024:
	BYTE		N24     Cn1   v092
	BYTE		N06     Fs1   v100
	BYTE	W06
	BYTE		N06   
	BYTE	W06
	BYTE		        As1 
	BYTE	W06
	BYTE		N06   
	BYTE	W06
	BYTE		N24     Cn1   v092
	BYTE		N06     Dn1   v127
	BYTE		N06     Gs1   v100
	BYTE	W06
	BYTE		        Fs1 
	BYTE	W06
	BYTE		        As1 
	BYTE	W06
	BYTE		N06   
	BYTE	W06
	BYTE		N24     Cn1   v092
	BYTE		N06     Fs1   v100
	BYTE		N06     Gs1 
	BYTE	W06
	BYTE		        Fs1 
	BYTE	W06
	BYTE		        As1 
	BYTE	W06
	BYTE		N06   
	BYTE	W06
	BYTE		N24     Cn1   v092
	BYTE		N06     Dn1   v127
	BYTE		N06     Gs1   v100
	BYTE	W06
	BYTE		        Fs1 
	BYTE	W06
	BYTE		        As1 
	BYTE	W06
	BYTE		N06   
	BYTE	W06
	BYTE	PEND
// 025   ----------------------------------------
	BYTE	PATT
	 POIN2	BlasterMasterStage1_6_006
// 026   ----------------------------------------
	BYTE	PATT
	 POIN2	BlasterMasterStage1_6_024
// 027   ----------------------------------------
	BYTE	PATT
	 POIN2	BlasterMasterStage1_6_006
// 028   ----------------------------------------
	BYTE	PATT
	 POIN2	BlasterMasterStage1_6_006
// 029   ----------------------------------------
	BYTE		N24     Cn1   v092
	BYTE		N06     Dn1   v127
	BYTE		N06     Gs1   v100
	BYTE	W06
	BYTE		        Fs1 
	BYTE	W06
	BYTE		        As1 
	BYTE	W06
	BYTE		N06   
	BYTE	W06
	BYTE		N24     Cn1   v092
	BYTE		N06     Fs1   v100
	BYTE		N06     Gs1 
	BYTE	W06
	BYTE		        Fs1 
	BYTE	W06
	BYTE		        As1 
	BYTE	W06
	BYTE		N06   
	BYTE	W06
	BYTE		N24     Cn1   v092
	BYTE		N06     Fs1   v100
	BYTE		N06     Gs1 
	BYTE	W06
	BYTE		        Fs1 
	BYTE	W06
	BYTE		        As1 
	BYTE	W06
	BYTE		N06   
	BYTE	W06
	BYTE		N24     Cn1   v092
	BYTE		N06     As1   v100
	BYTE	W06
	BYTE		N06   
	BYTE	W06
	BYTE		        Fs1 
	BYTE		N06     Gs1 
	BYTE	W06
	BYTE		        Fs1 
	BYTE	W06
// 030   ----------------------------------------
	BYTE		N24     Cn1   v092
	BYTE		N06     Fs1   v100
	BYTE		N06     Gs1 
	BYTE	W06
	BYTE		        Fs1 
	BYTE	W06
	BYTE		        As1 
	BYTE	W06
	BYTE		N06   
	BYTE	W06
	BYTE		N24     Cn1   v092
	BYTE		N06     As1   v100
	BYTE	W06
	BYTE		        Dn1   v127
	BYTE		N06     Gs1   v100
	BYTE	W06
	BYTE		        Fs1 
	BYTE	W06
	BYTE		N06   
	BYTE	W06
	BYTE		N24     Cn1   v092
	BYTE		N06     As1   v100
	BYTE	W06
	BYTE		N06   
	BYTE	W06
	BYTE		N06   
	BYTE	W06
	BYTE		        Fs1 
	BYTE		N06     Gs1 
	BYTE	W06
	BYTE		N24     Cn1   v092
	BYTE		N06     Fs1   v100
	BYTE	W06
	BYTE		        Dn1   v127
	BYTE	W06
	BYTE		        Fs1   v100
	BYTE	W06
	BYTE		N06   
	BYTE	W06
// 031   ----------------------------------------
BlasterMasterStage1_6_031:
	BYTE		N24     Cn1   v092
	BYTE		N06     Fs1   v100
	BYTE	W06
	BYTE		N06   
	BYTE	W06
	BYTE		        As1 
	BYTE	W06
	BYTE		N06   
	BYTE	W06
	BYTE		N24     Cn1   v092
	BYTE		N06     As1   v100
	BYTE	W06
	BYTE		        Dn1   v127
	BYTE		N06     Gs1   v100
	BYTE	W06
	BYTE		        Fs1 
	BYTE	W06
	BYTE		N06   
	BYTE	W06
	BYTE		N24     Cn1   v092
	BYTE		N06     As1   v100
	BYTE	W06
	BYTE		N06   
	BYTE	W06
	BYTE		N06   
	BYTE	W06
	BYTE		        Fs1 
	BYTE		N06     Gs1 
	BYTE	W06
	BYTE		N24     Cn1   v092
	BYTE		N06     Fs1   v100
	BYTE	W06
	BYTE		        Dn1   v127
	BYTE	W06
	BYTE		        Fs1   v100
	BYTE	W06
	BYTE		N06   
	BYTE	W06
	BYTE	PEND
// 032   ----------------------------------------
	BYTE	PATT
	 POIN2	BlasterMasterStage1_6_031
// 033   ----------------------------------------
	BYTE		N24     Cn1   v092
	BYTE		N06     Fs1   v100
	BYTE	W06
	BYTE		N06   
	BYTE	W06
	BYTE		        As1 
	BYTE	W12
	BYTE		N24     Cn1   v092
	BYTE		N06     Fs1   v100
	BYTE		N06     Gs1 
	BYTE	W06
	BYTE		        Dn1   v127
	BYTE	W06
	BYTE		        As1   v100
	BYTE	W06
	BYTE		        Dn1   v127
	BYTE		N06     As1   v100
	BYTE	W06
	BYTE		N24     Cn1   v092
	BYTE		N06     Fs1   v100
	BYTE		N06     Gs1 
	BYTE	W06
	BYTE		        Fs1 
	BYTE	W06
	BYTE		        Dn1   v127
	BYTE	W06
	BYTE		        As1   v100
	BYTE	W06
	BYTE		N24     Cn1   v092
	BYTE		N06     Fs1   v100
	BYTE		N06     Gs1 
	BYTE	W06
	BYTE		        Dn1   v127
	BYTE	W06
	BYTE		        As1   v100
	BYTE	W06
	BYTE		N06   
	BYTE	W06
// 034   ----------------------------------------
	BYTE		N24     Cn1   v092
	BYTE		N06     Fs1   v100
	BYTE		N06     Gs1 
	BYTE		N24     Cs2   v120
	BYTE	W06
	BYTE		N06     Fs1   v100
	BYTE	W06
	BYTE		        As1 
	BYTE	W06
	BYTE		N06   
	BYTE	W06
	BYTE		N24     Cn1   v092
	BYTE		N06     Dn1   v127
	BYTE		N06     Gs1   v100
	BYTE	W06
	BYTE		        Fs1 
	BYTE	W06
	BYTE		        As1 
	BYTE	W06
	BYTE		N06   
	BYTE	W06
	BYTE		N24     Cn1   v092
	BYTE		N06     Fs1   v100
	BYTE		N06     Gs1 
	BYTE	W06
	BYTE		        Fs1 
	BYTE	W06
	BYTE		        As1 
	BYTE	W06
	BYTE		N06   
	BYTE	W06
	BYTE		N24     Cn1   v092
	BYTE		N06     Dn1   v127
	BYTE		N06     Gs1   v100
	BYTE	W06
	BYTE		        Fs1 
	BYTE	W06
	BYTE		        As1 
	BYTE	W06
	BYTE		N06   
	BYTE	W06
// 035   ----------------------------------------
	BYTE	PATT
	 POIN2	BlasterMasterStage1_6_006
// 036   ----------------------------------------
	BYTE	PATT
	 POIN2	BlasterMasterStage1_6_006
// 037   ----------------------------------------
	BYTE		N24     Cn1   v092
	BYTE		N06     Fs1   v100
	BYTE		N06     Gs1 
	BYTE	W06
	BYTE		        Fs1 
	BYTE	W06
	BYTE		        As1 
	BYTE	W06
	BYTE		N06   
	BYTE	W06
	BYTE		N24     Cn1   v092
	BYTE		N06     Dn1   v127
	BYTE		N06     Gs1   v100
	BYTE	W06
	BYTE		        Fs1 
	BYTE	W06
	BYTE		        As1 
	BYTE	W06
	BYTE		N06   
	BYTE	W06
	BYTE		N24     Cn1   v092
	BYTE		N06     Dn1   v127
	BYTE		N06     Fs1   v100
	BYTE		N06     Gs1 
	BYTE	W06
	BYTE		        Fs1 
	BYTE	W06
	BYTE		        Dn1   v127
	BYTE	W06
	BYTE		        As1   v100
	BYTE	W06
	BYTE		N24     Cn1   v092
	BYTE		N06     Dn1   v127
	BYTE		N06     Gs1   v100
	BYTE	W06
	BYTE		        Dn1   v127
	BYTE	W06
	BYTE		N06   
	BYTE	W06
	BYTE		N06   
	BYTE	W06
// 038   ----------------------------------------
	BYTE	PATT
	 POIN2	BlasterMasterStage1_6_004
// 039   ----------------------------------------
	BYTE	PATT
	 POIN2	BlasterMasterStage1_6_005
	BYTE	GoTo
	 POIN2	BlasterMasterStage1_6_B1
BlasterMasterStage1_6_B2:
	BYTE		N06     Fs1   v100
	BYTE	W06
	BYTE		        As1 
	BYTE	W06
	BYTE		N06   
	BYTE	W06
// 040   ----------------------------------------
	BYTE		N24     Cn1   v092
	BYTE		N06     Fs1   v100
	BYTE		N06     Gs1 
	BYTE	W06
	BYTE		        Fs1 
	BYTE	W06
	BYTE		        As1 
	BYTE	W06
	BYTE		N06   
	BYTE	W06
	BYTE		N24     Cn1   v092
	BYTE		N06     Dn1   v127
	BYTE		N06     Gs1   v100
	BYTE	W06
	BYTE		        Fs1 
	BYTE	W06
	BYTE		        As1 
	BYTE	W06
	BYTE		N06   
	BYTE	W06
	BYTE		N24     Cn1   v092
	BYTE		N06     Fs1   v100
	BYTE		N06     Gs1 
	BYTE	W06
	BYTE		        Fs1 
	BYTE	W06
	BYTE		        As1 
	BYTE	W06
	BYTE		N06   
	BYTE	W06
	BYTE		N18     Cn1   v092
	BYTE		N06     Dn1   v127
	BYTE		N06     Gs1   v100
	BYTE	W06
	BYTE		        Fs1 
	BYTE	W06
	BYTE		        As1 
	BYTE	W06
	BYTE	FINE

//******************************************************//
	ALIGN 4

BlasterMasterStage1:
	BYTE	6	// NumTrks
	BYTE	0	// NumBlks
	BYTE	BlasterMasterStage1_pri	// Priority
	BYTE	BlasterMasterStage1_rev	// Reverb.

	POIN2	BlasterMasterStage1_grp

	POIN2	BlasterMasterStage1_1
	POIN2	BlasterMasterStage1_2
	POIN2	BlasterMasterStage1_3
	POIN2	BlasterMasterStage1_4
	POIN2	BlasterMasterStage1_5
	POIN2	BlasterMasterStage1_6

	
