//Event file generated from Sappy .s format.
	#include "MPlayDef.event"

	#define	BossFE5_grp  voicegroup000
	#define	BossFE5_pri  0
	#define	BossFE5_rev  0
	#define	BossFE5_mvl  127
	#define	BossFE5_key  0
	#define	BossFE5_tbs  1
	#define	BossFE5_exg  0
	#define	BossFE5_cmp  1

	// .rodata
	//	BossFE5
	ALIGN 4


//**************** Track 1 (Midi-Chn.0) ****************//

BossFE5_001:
// 000   ----------------------------------------
 BYTE   KEYSH   BossFE5_key+0
 BYTE   TEMPO   170*BossFE5_tbs/2
 BYTE   VOICE   57
 BYTE   VOL   60*BossFE5_mvl/mxv
 BYTE   PAN   c_v+0
 BYTE   W18
 BYTE   N11  As2  v127
 BYTE   W24
 BYTE   N12  Fn2  v104
 BYTE   W12
 BYTE   As2  v112
 BYTE   W12
 BYTE   Cn3
 BYTE   W12
 BYTE   N48  Cs3  v120
 BYTE   W18
// 001   ----------------------------------------
Label_0_0127F390:
 BYTE   W30
 BYTE   N48  Ds3  v116
 BYTE   W48
 BYTE   N24  Fn3
 BYTE   W18
 BYTE   PEND 
// 002   ----------------------------------------
 BYTE   W06
 BYTE   Ds3  v108
 BYTE   W90
// 003   ----------------------------------------
 BYTE   W42
 BYTE   N24  Cs3  v116
 BYTE   W24
 BYTE   N12  Cn3  v104
 BYTE   W12
 BYTE   N32  Cs3  v116
 BYTE   W18
 BYTE   PEND 
// 004   ----------------------------------------
 BYTE   W18
 BYTE   N12  Dn3  v104
 BYTE   W12
 BYTE   N32  Ds3  v116
 BYTE   W36
 BYTE   N23  En3  v120
 BYTE   W30
 BYTE   PEND 
// 005   ----------------------------------------
 BYTE   W06
 BYTE   N12  Fn3  v120
 BYTE   W24
 BYTE   N18  As3  v127
 BYTE   W48
 BYTE   N18
 BYTE   W18
 BYTE   PEND 
// 006   ----------------------------------------
 BYTE   W30
 BYTE   N18  As3  v127
 BYTE   W48
 BYTE   N24
 BYTE   W18
 BYTE   PEND 
// 007   ----------------------------------------
 BYTE   W06
 BYTE   N06  As2  v127
 BYTE   W06
 BYTE   Cn3
 BYTE   W06
 BYTE   Cs3
 BYTE   W06
 BYTE   Ds3  v124
 BYTE   W18
 BYTE   N09  Gs2  v108
 BYTE   W12
 BYTE   N12  En3  v120
 BYTE   W12
 BYTE   Ds3  v108
 BYTE   W12
 BYTE   N36  En3  v120
 BYTE   W18
 BYTE   PEND 
// 008   ----------------------------------------
 BYTE   W18
 BYTE   N12  Ds3  v104
 BYTE   W12
 BYTE   N36  Fs3  v120
 BYTE   W36
 BYTE   N12  En3  v112
 BYTE   W12
 BYTE   N36  Gs3  v124
 BYTE   W18
 BYTE   PEND 
// 009   ----------------------------------------
 BYTE   W18
 BYTE   N12  Fs3  v108
 BYTE   W12
 BYTE   N36  Cs4  v124
 BYTE   W36
 BYTE   N12  Gs3  v116
 BYTE   W12
 BYTE   N36  Ds4  v127
 BYTE   W18
 BYTE   PEND 
// 010   ----------------------------------------
 BYTE   W18
 BYTE   N12  Gs3  v120
 BYTE   W12
 BYTE   N36  En4  v127
 BYTE   W36
 BYTE   N12  Gs3  v112
 BYTE   W12
 BYTE   N36  Ds4  v127
 BYTE   W18
 BYTE   PEND 
// 011   ----------------------------------------
 BYTE   W18
 BYTE   N11  Gs3  v116
 BYTE   W24
 BYTE   N12  Fn2  v104
 BYTE   W12
 BYTE   As2  v112
 BYTE   W12
 BYTE   Cn3
 BYTE   W12
 BYTE   N48  Cs3  v120
 BYTE   W18
// 012   ----------------------------------------
 BYTE   GoTo
  POIN2 Label_0_0127F390
 BYTE   FINE

//**************** Track 2 (Midi-Chn.1) ****************//

BossFE5_002:
// 000   ----------------------------------------
 BYTE   KEYSH   BossFE5_key+0
 BYTE   VOICE   57
 BYTE   VOL   60*BossFE5_mvl/mxv
 BYTE   PAN   c_v+0
 BYTE   W18
 BYTE   N12  As2  v127
 BYTE   W24
 BYTE   As1  v112
 BYTE   W12
 BYTE   Fn2  v120
 BYTE   W12
 BYTE   Gn2  v116
 BYTE   W12
 BYTE   N48  Gs2  v120
 BYTE   W18
// 001   ----------------------------------------
Label_1_0127F452:
 BYTE   W30
 BYTE   N42  Gn2  v112
 BYTE   W48
 BYTE   N21  Fs2  v108
 BYTE   W18
 BYTE   PEND 
// 002   ----------------------------------------
 BYTE   W06
 BYTE   N18  Fs2  v124
 BYTE   W90
// 003   ----------------------------------------
 BYTE   W96
// 004   ----------------------------------------
 BYTE   W96
// 005   ----------------------------------------
 BYTE   W96
// 006   ----------------------------------------
 BYTE   W96
// 007   ----------------------------------------
 BYTE   W96
// 008   ----------------------------------------
 BYTE   W96
// 009   ----------------------------------------
 BYTE   W96
// 010   ----------------------------------------
 BYTE   W96
// 011   ----------------------------------------
 BYTE   W42
 BYTE   N12  As1  v112
 BYTE   W12
 BYTE   Fn2  v120
 BYTE   W12
 BYTE   Gn2  v116
 BYTE   W12
 BYTE   N48  Gs2  v120
 BYTE   W18
// 012   ----------------------------------------
 BYTE   GoTo
  POIN2 Label_1_0127F452
 BYTE   FINE

//**************** Track 3 (Midi-Chn.2) ****************//

BossFE5_003:
// 000   ----------------------------------------
 BYTE   KEYSH   BossFE5_key+0
 BYTE   VOICE   57
 BYTE   VOL   60*BossFE5_mvl/mxv
 BYTE   PAN   c_v+0
 BYTE   W90
 BYTE   N12  Fn2  v108
 BYTE   W06
// 001   ----------------------------------------
Label_2_0127F48D:
 BYTE   W06
 BYTE   N12  As2  v108
 BYTE   W12
 BYTE   Cn3  v100
 BYTE   W12
 BYTE   N48  Cs3  v112
 BYTE   W48
 BYTE   N24  Ds3  v127
 BYTE   W18
 BYTE   PEND 
// 002   ----------------------------------------
 BYTE   W06
 BYTE   Bn2  v116
 BYTE   W90
// 003   ----------------------------------------
 BYTE   W30
 BYTE   N12  Fn2  v092
 BYTE   W12
 BYTE   As2  v116
 BYTE   W12
 BYTE   Gs2  v104
 BYTE   W12
 BYTE   An2  v112
 BYTE   W12
 BYTE   As2
 BYTE   W12
 BYTE   Fn2  v120
 BYTE   W06
 BYTE   PEND 
// 004   ----------------------------------------
 BYTE   W06
 BYTE   N12  As2  v112
 BYTE   W12
 BYTE   N06  Bn2  v104
 BYTE   W06
 BYTE   As2  v112
 BYTE   W06
 BYTE   N12  Fs2  v100
 BYTE   W12
 BYTE   N24  Gn2  v116
 BYTE   W24
 BYTE   Gs2  v120
 BYTE   W24
 BYTE   N12  An2  v127
 BYTE   W06
 BYTE   PEND 
// 005   ----------------------------------------
 BYTE   W06
 BYTE   N11  As2
 BYTE   W90
// 006   ----------------------------------------
 BYTE   W96
// 007   ----------------------------------------
 BYTE   W96
// 008   ----------------------------------------
 BYTE   W96
// 009   ----------------------------------------
 BYTE   W96
// 010   ----------------------------------------
 BYTE   W96
// 011   ----------------------------------------
 BYTE   W90
 BYTE   N12  Fn2  v108
 BYTE   W06
// 012   ----------------------------------------
 BYTE   GoTo
  POIN2 Label_2_0127F48D
 BYTE   FINE

//**************** Track 4 (Midi-Chn.3) ****************//

BossFE5_004:
// 000   ----------------------------------------
 BYTE   KEYSH   BossFE5_key+0
 BYTE   VOICE   48
 BYTE   VOL   34*BossFE5_mvl/mxv
 BYTE   PAN   c_v+0
 BYTE   W18
 BYTE   N12  Ds4  v127
 BYTE   W78
// 001   ----------------------------------------
Label_3_0127F4F5:
 BYTE   W96
// 002   ----------------------------------------
 BYTE   W30
 BYTE   N06  Fn4  v127
 BYTE   W06
 BYTE   Ds4  v124
 BYTE   W06
 BYTE   Cs4  v116
 BYTE   W06
 BYTE   Cn4  v108
 BYTE   W06
 BYTE   Ds4  v116
 BYTE   W06
 BYTE   Cs4  v108
 BYTE   W06
 BYTE   Cn4  v100
 BYTE   W06
 BYTE   As3  v096
 BYTE   W06
 BYTE   Cs4  v104
 BYTE   W06
 BYTE   Cn4  v096
 BYTE   W06
 BYTE   As3  v092
 BYTE   W06
 BYTE   PEND 
// 003   ----------------------------------------
 BYTE   N06  Gs3  v088
 BYTE   W06
 BYTE   Cn4  v096
 BYTE   W06
 BYTE   As3  v088
 BYTE   W06
 BYTE   Gs3  v084
 BYTE   W06
 BYTE   Fs3  v076
 BYTE   W72
 BYTE   PEND 
// 004   ----------------------------------------
 BYTE   W96
// 005   ----------------------------------------
 BYTE   W30
 BYTE   N24  As3  v116
 BYTE   W36
 BYTE   N03  Fn3  v108
 BYTE   W03
 BYTE   As3  v116
 BYTE   W03
 BYTE   Cs4  v124
 BYTE   W03
 BYTE   Fn4  v127
 BYTE   W03
 BYTE   N24  As3  v100
 BYTE   W18
 BYTE   PEND 
// 006   ----------------------------------------
 BYTE   W18
 BYTE   N03  Fs3  v100
 BYTE   W03
 BYTE   As3  v104
 BYTE   W03
 BYTE   Cs4  v112
 BYTE   W03
 BYTE   Fs4  v120
 BYTE   W03
 BYTE   N24  As3  v124
 BYTE   W36
 BYTE   N03  Gn3  v096
 BYTE   W03
 BYTE   As3  v104
 BYTE   W03
 BYTE   Cs4  v112
 BYTE   W03
 BYTE   Gn4  v116
 BYTE   W03
 BYTE   N24  As3  v127
 BYTE   W18
 BYTE   PEND 
// 007   ----------------------------------------
 BYTE   W18
 BYTE   N03  Fs3  v104
 BYTE   W03
 BYTE   As3
 BYTE   W03
 BYTE   Cs4  v120
 BYTE   W03
 BYTE   Fs4  v127
 BYTE   W15
 BYTE   N36  Gs2  v100
 BYTE   W36
 BYTE   N12  En3
 BYTE   W12
 BYTE   N36  Cs3  v108
 BYTE   W06
 BYTE   PEND 
// 008   ----------------------------------------
 BYTE   W30
 BYTE   N12  Fs3  v100
 BYTE   W12
 BYTE   N36  En3  v108
 BYTE   W36
 BYTE   N12  Gs3  v112
 BYTE   W12
 BYTE   N36  Fs3  v116
 BYTE   W06
 BYTE   PEND 
// 009   ----------------------------------------
 BYTE   W30
 BYTE   N18  Cs4  v124
 BYTE   W24
 BYTE   N06  Cs4  v112
 BYTE   W06
 BYTE   Gs3  v124
 BYTE   W06
 BYTE   En3
 BYTE   W06
 BYTE   Gs3
 BYTE   W06
 BYTE   N18  Ds4
 BYTE   W18
 BYTE   PEND 
// 010   ----------------------------------------
 BYTE   W06
 BYTE   N06  Ds4  v124
 BYTE   W06
 BYTE   Gs3
 BYTE   W06
 BYTE   En3  v127
 BYTE   W06
 BYTE   Gs3  v116
 BYTE   W06
 BYTE   N18  En4  v124
 BYTE   W24
 BYTE   N06  En4  v120
 BYTE   W06
 BYTE   Gs3
 BYTE   W06
 BYTE   En3  v124
 BYTE   W06
 BYTE   Gs3
 BYTE   W06
 BYTE   N18  Ds4
 BYTE   W18
 BYTE   PEND 
// 011   ----------------------------------------
 BYTE   W06
 BYTE   N06  Ds4  v120
 BYTE   W06
 BYTE   Gs3  v116
 BYTE   W06
 BYTE   En3
 BYTE   W06
 BYTE   Gs3  v120
 BYTE   W72
 BYTE   PEND 
// 012   ----------------------------------------
 BYTE   GoTo
  POIN2 Label_3_0127F4F5
 BYTE   FINE

//**************** Track 5 (Midi-Chn.4) ****************//

BossFE5_005:
// 000   ----------------------------------------
 BYTE   KEYSH   BossFE5_key+0
 BYTE   VOICE   34
 BYTE   VOL   60*BossFE5_mvl/mxv
 BYTE   PAN   c_v+0
 BYTE   W30
 BYTE   N12  As0  v112
 BYTE   W12
 BYTE   As0  v096
 BYTE   W12
 BYTE   As0  v104
 BYTE   W12
 BYTE   N06  As0  v096
 BYTE   W06
 BYTE   Fn1  v100
 BYTE   W06
 BYTE   N12  As0  v108
 BYTE   W12
 BYTE   As0  v096
 BYTE   W06
// 001   ----------------------------------------
Label_4_0127F5FD:
 BYTE   W06
 BYTE   N12  As0  v112
 BYTE   W12
 BYTE   N06  As0  v096
 BYTE   W06
 BYTE   Fn1  v104
 BYTE   W06
 BYTE   N12  Ds1  v108
 BYTE   W12
 BYTE   N21  As0  v100
 BYTE   W24
 BYTE   N12  As0  v096
 BYTE   W12
 BYTE   Bn0  v104
 BYTE   W12
 BYTE   N18  Fs1  v116
 BYTE   W06
 BYTE   PEND 
// 002   ----------------------------------------
 BYTE   W18
 BYTE   N10  Fs1  v112
 BYTE   W78
// 003   ----------------------------------------
 BYTE   W30
 BYTE   N12  As0  v108
 BYTE   W12
 BYTE   As0  v100
 BYTE   W12
 BYTE   As0  v104
 BYTE   W12
 BYTE   N06
 BYTE   W06
 BYTE   Fn1  v100
 BYTE   W06
 BYTE   N12  As0  v104
 BYTE   W12
 BYTE   As0  v096
 BYTE   W06
 BYTE   PEND 
// 004   ----------------------------------------
 BYTE   W06
 BYTE   N12  As0  v104
 BYTE   W12
 BYTE   N06
 BYTE   W06
 BYTE   Fn1  v096
 BYTE   W06
 BYTE   N12  Bn0  v104
 BYTE   W12
 BYTE   N21  Bn0  v096
 BYTE   W24
 BYTE   N24  Cn1  v104
 BYTE   W24
 BYTE   N12  Cs1  v112
 BYTE   W06
 BYTE   PEND 
// 005   ----------------------------------------
 BYTE   W06
 BYTE   N24  Ds1  v124
 BYTE   W24
 BYTE   N12  As0  v108
 BYTE   W12
 BYTE   As0  v100
 BYTE   W12
 BYTE   As0  v104
 BYTE   W12
 BYTE   N06  As0  v096
 BYTE   W06
 BYTE   Fn1  v100
 BYTE   W06
 BYTE   N12  As0  v104
 BYTE   W12
 BYTE   As0  v096
 BYTE   W06
 BYTE   PEND 
// 006   ----------------------------------------
 BYTE   W06
 BYTE   N12  As0  v104
 BYTE   W12
 BYTE   N06  As0  v096
 BYTE   W06
 BYTE   Fn1
 BYTE   W06
 BYTE   N12  As0  v104
 BYTE   W12
 BYTE   As0  v096
 BYTE   W12
 BYTE   As0  v104
 BYTE   W12
 BYTE   N06  As0  v096
 BYTE   W06
 BYTE   Fn1  v100
 BYTE   W06
 BYTE   N12  As0
 BYTE   W12
 BYTE   As0  v096
 BYTE   W06
 BYTE   PEND 
// 007   ----------------------------------------
 BYTE   W06
 BYTE   N12  As0  v112
 BYTE   W12
 BYTE   N06  As0  v096
 BYTE   W06
 BYTE   Fn1
 BYTE   W06
 BYTE   N12  Cs1  v100
 BYTE   W12
 BYTE   N12
 BYTE   W12
 BYTE   Cs1  v116
 BYTE   W12
 BYTE   N06  Cs1  v100
 BYTE   W06
 BYTE   Gs1
 BYTE   W06
 BYTE   N12  Cs1
 BYTE   W12
 BYTE   N12
 BYTE   W06
 BYTE   PEND 
// 008   ----------------------------------------
 BYTE   W06
 BYTE   N12  Cs1  v116
 BYTE   W12
 BYTE   N06  Cs1  v100
 BYTE   W06
 BYTE   Gs1
 BYTE   W06
 BYTE   N12  Cs1
 BYTE   W12
 BYTE   N12
 BYTE   W12
 BYTE   Cs1  v116
 BYTE   W12
 BYTE   N06  Cs1  v100
 BYTE   W06
 BYTE   Gs1
 BYTE   W06
 BYTE   N12  Cs1  v116
 BYTE   W12
 BYTE   Cs1  v100
 BYTE   W06
 BYTE   PEND 
// 009   ----------------------------------------
 BYTE   W06
 BYTE   N12  Cs1  v100
 BYTE   W12
 BYTE   N06
 BYTE   W06
 BYTE   Gs1
 BYTE   W06
 BYTE   N12  Cs1
 BYTE   W12
 BYTE   N12
 BYTE   W12
 BYTE   N12
 BYTE   W12
 BYTE   N06
 BYTE   W06
 BYTE   Gs1
 BYTE   W06
 BYTE   N12  Cs1
 BYTE   W12
 BYTE   N12
 BYTE   W06
 BYTE   PEND 
// 010   ----------------------------------------
 BYTE   W06
 BYTE   N12  Cs1  v100
 BYTE   W12
 BYTE   N06
 BYTE   W06
 BYTE   Gs1
 BYTE   W06
 BYTE   N12  Cs1
 BYTE   W12
 BYTE   N12
 BYTE   W12
 BYTE   N12
 BYTE   W12
 BYTE   N06
 BYTE   W06
 BYTE   Gs1  v116
 BYTE   W06
 BYTE   N12  Cs1  v100
 BYTE   W12
 BYTE   Cs1  v116
 BYTE   W06
 BYTE   PEND 
// 011   ----------------------------------------
 BYTE   W06
 BYTE   Cs1  v100
 BYTE   W12
 BYTE   N06
 BYTE   W06
 BYTE   Gs1
 BYTE   W06
 BYTE   N12  As0  v112
 BYTE   W12
 BYTE   As0  v096
 BYTE   W12
 BYTE   As0  v104
 BYTE   W12
 BYTE   N06  As0  v096
 BYTE   W06
 BYTE   Fn1  v100
 BYTE   W06
 BYTE   N12  As0  v108
 BYTE   W12
 BYTE   As0  v096
 BYTE   W06
// 012   ----------------------------------------
 BYTE   GoTo
  POIN2 Label_4_0127F5FD
 BYTE   FINE

//**************** Track 6 (Midi-Chn.5) ****************//

BossFE5_006:
// 000   ----------------------------------------
 BYTE   KEYSH   BossFE5_key+0
 BYTE   VOICE   47
 BYTE   VOL   60*BossFE5_mvl/mxv
 BYTE   PAN   c_v+0
 BYTE   W30
 BYTE   N06  An1  v120
 BYTE   W06
 BYTE   An1  v112
 BYTE   W42
 BYTE   An1  v108
 BYTE   W12
 BYTE   An1  v100
 BYTE   W06
// 001   ----------------------------------------
Label_5_0127F74A:
 BYTE   W30
 BYTE   N06  Dn2  v092
 BYTE   W12
 BYTE   N12  An1  v108
 BYTE   W24
 BYTE   An1  v112
 BYTE   W24
 BYTE   An1  v108
 BYTE   W06
 BYTE   PEND 
// 002   ----------------------------------------
 BYTE   W18
 BYTE   N12  An1  v088
 BYTE   W12
 BYTE   N24  As1  v124
 BYTE   W36
 BYTE   As1  v120
 BYTE   W30
 BYTE   PEND 
// 003   ----------------------------------------
 BYTE   W06
 BYTE   N06  As1  v124
 BYTE   W06
 BYTE   As1  v120
 BYTE   W06
 BYTE   N12  En1  v108
 BYTE   W12
 BYTE   N24  An1  v116
 BYTE   W36
 BYTE   N06  An1  v108
 BYTE   W06
 BYTE   An1  v104
 BYTE   W06
 BYTE   An1  v112
 BYTE   W12
 BYTE   An1  v100
 BYTE   W06
 BYTE   PEND 
// 004   ----------------------------------------
 BYTE   W18
 BYTE   N12  En1  v100
 BYTE   W12
 BYTE   An1  v116
 BYTE   W12
 BYTE   N12
 BYTE   W24
 BYTE   An1  v120
 BYTE   W24
 BYTE   An1  v124
 BYTE   W06
 BYTE   PEND 
// 005   ----------------------------------------
 BYTE   W06
 BYTE   N18  En1  v104
 BYTE   W24
 BYTE   An1  v112
 BYTE   W24
 BYTE   N06  An1  v124
 BYTE   W06
 BYTE   N06
 BYTE   W06
 BYTE   N12  En1  v104
 BYTE   W30
 BYTE   PEND 
// 006   ----------------------------------------
 BYTE   W06
 BYTE   N06  An1  v127
 BYTE   W06
 BYTE   N06
 BYTE   W06
 BYTE   N12  En1  v116
 BYTE   W36
 BYTE   N06  An1  v124
 BYTE   W06
 BYTE   N06
 BYTE   W06
 BYTE   N12  En1  v112
 BYTE   W30
 BYTE   PEND 
// 007   ----------------------------------------
 BYTE   W06
 BYTE   N06  An1  v127
 BYTE   W06
 BYTE   N06
 BYTE   W06
 BYTE   N12  En1  v116
 BYTE   W12
 BYTE   An1  v120
 BYTE   W36
 BYTE   N06  An1  v100
 BYTE   W06
 BYTE   N06
 BYTE   W06
 BYTE   N12  An1  v116
 BYTE   W18
 BYTE   PEND 
// 008   ----------------------------------------
 BYTE   W18
 BYTE   N06  An1  v100
 BYTE   W06
 BYTE   N06
 BYTE   W06
 BYTE   N12  An1  v116
 BYTE   W36
 BYTE   N06  An1  v100
 BYTE   W06
 BYTE   N06
 BYTE   W06
 BYTE   N12
 BYTE   W12
 BYTE   An1  v096
 BYTE   W06
 BYTE   PEND 
// 009   ----------------------------------------
 BYTE   W06
 BYTE   N12  An1  v104
 BYTE   W12
 BYTE   An1  v120
 BYTE   W24
 BYTE   N18  As1  v127
 BYTE   W48
 BYTE   N18
 BYTE   W06
 BYTE   PEND 
// 010   ----------------------------------------
 BYTE   W42
 BYTE   N18  As1  v127
 BYTE   W48
 BYTE   N12  As1  v112
 BYTE   W06
 BYTE   PEND 
// 011   ----------------------------------------
 BYTE   W06
 BYTE   N12  Fn1  v120
 BYTE   W12
 BYTE   As1  v127
 BYTE   W12
 BYTE   N06  An1  v120
 BYTE   W06
 BYTE   An1  v112
 BYTE   W42
 BYTE   An1  v108
 BYTE   W12
 BYTE   An1  v100
 BYTE   W06
 BYTE   PEND 
// 012   ----------------------------------------
 BYTE   GoTo
  POIN2 Label_5_0127F74A
 BYTE   FINE

//**************** Track 7 (Midi-Chn.6) ****************//

BossFE5_007:
// 000   ----------------------------------------
 BYTE   KEYSH   BossFE5_key+0
 BYTE   VOICE   47
 BYTE   VOL   60*BossFE5_mvl/mxv
 BYTE   PAN   c_v+0
 BYTE   W96
// 001   ----------------------------------------
Label_6_0127F82D:
 BYTE   W96
// 002   ----------------------------------------
 BYTE   W78
 BYTE   N06  En1  v108
 BYTE   W18
// 003   ----------------------------------------
 BYTE   W96
// 004   ----------------------------------------
 BYTE   W96
// 005   ----------------------------------------
 BYTE   W96
// 006   ----------------------------------------
 BYTE   W96
// 007   ----------------------------------------
 BYTE   W96
// 008   ----------------------------------------
 BYTE   W96
// 009   ----------------------------------------
 BYTE   W96
// 010   ----------------------------------------
 BYTE   W96
// 011   ----------------------------------------
 BYTE   W96
// 012   ----------------------------------------
 BYTE   GoTo
  POIN2 Label_6_0127F82D
 BYTE   FINE

//**************** Track 8 (Midi-Chn.7) ****************//

BossFE5_008:
// 000   ----------------------------------------
 BYTE   KEYSH   BossFE5_key+0
 BYTE   VOICE   48
 BYTE   VOL   60*BossFE5_mvl/mxv
 BYTE   PAN   c_v+0
 BYTE   W18
 BYTE   N12  Ds3  v127
 BYTE   W78
// 001   ----------------------------------------
Label_7_0127F851:
 BYTE   W96
// 002   ----------------------------------------
 BYTE   W30
 BYTE   N06  Fn3  v124
 BYTE   W06
 BYTE   Ds3
 BYTE   W06
 BYTE   Cs3  v116
 BYTE   W06
 BYTE   Cn3  v112
 BYTE   W06
 BYTE   Ds3
 BYTE   W06
 BYTE   Cs3  v108
 BYTE   W06
 BYTE   Cn3  v100
 BYTE   W06
 BYTE   As2  v096
 BYTE   W06
 BYTE   Cs3  v104
 BYTE   W06
 BYTE   Cn3  v100
 BYTE   W06
 BYTE   As2  v092
 BYTE   W06
 BYTE   PEND 
// 003   ----------------------------------------
 BYTE   N06  Gs2  v088
 BYTE   W06
 BYTE   Cn3  v096
 BYTE   W06
 BYTE   As2  v092
 BYTE   W06
 BYTE   Gs2  v084
 BYTE   W06
 BYTE   Fs2  v080
 BYTE   W72
 BYTE   PEND 
// 004   ----------------------------------------
 BYTE   W96
// 005   ----------------------------------------
 BYTE   W30
 BYTE   N48  Fn2  v108
 BYTE   W48
 BYTE   Fs2  v116
 BYTE   W18
 BYTE   PEND 
// 006   ----------------------------------------
 BYTE   W30
 BYTE   N48  Gn2  v127
 BYTE   W48
 BYTE   Fs2  v116
 BYTE   W18
 BYTE   PEND 
// 007   ----------------------------------------
 BYTE   W30
 BYTE   N48  Gs2  v100
 BYTE   W48
 BYTE   An2  v112
 BYTE   W18
 BYTE   PEND 
// 008   ----------------------------------------
 BYTE   W30
 BYTE   N48  As2  v124
 BYTE   W48
 BYTE   An2  v112
 BYTE   W18
 BYTE   PEND 
// 009   ----------------------------------------
 BYTE   W30
 BYTE   N48  Gs2  v112
 BYTE   W48
 BYTE   Bn2  v124
 BYTE   W18
 BYTE   PEND 
// 010   ----------------------------------------
 BYTE   W30
 BYTE   N48  As2  v120
 BYTE   W48
 BYTE   An2  v112
 BYTE   W18
 BYTE   PEND 
// 011   ----------------------------------------
 BYTE   W96
// 012   ----------------------------------------
 BYTE   GoTo
  POIN2 Label_7_0127F851
 BYTE   FINE

//**************** Track 9 (Midi-Chn.8) ****************//

BossFE5_009:
// 000   ----------------------------------------
 BYTE   KEYSH   BossFE5_key+0
 BYTE   VOICE   48
 BYTE   VOL   60*BossFE5_mvl/mxv
 BYTE   PAN   c_v+0
 BYTE   W18
 BYTE   N12  Ds4  v100
 BYTE   W78
// 001   ----------------------------------------
Label_8_0127F8D1:
 BYTE   W96
// 002   ----------------------------------------
 BYTE   W96
// 003   ----------------------------------------
 BYTE   W96
// 004   ----------------------------------------
 BYTE   W96
// 005   ----------------------------------------
 BYTE   W96
// 006   ----------------------------------------
 BYTE   W96
// 007   ----------------------------------------
 BYTE   W96
// 008   ----------------------------------------
 BYTE   W96
// 009   ----------------------------------------
 BYTE   W96
// 010   ----------------------------------------
 BYTE   W96
// 011   ----------------------------------------
 BYTE   W96
// 012   ----------------------------------------
 BYTE   GoTo
  POIN2 Label_8_0127F8D1
 BYTE   FINE

//**************** Track 10 (Midi-Chn.9) ****************//

BossFE5_010:
// 000   ----------------------------------------
 BYTE   KEYSH   BossFE5_key+0
 BYTE   VOICE   48
 BYTE   VOL   60*BossFE5_mvl/mxv
 BYTE   PAN   c_v+0
 BYTE   W18
 BYTE   N12  Ds3  v100
 BYTE   W78
// 001   ----------------------------------------
Label_9_0127F8F1:
 BYTE   W96
// 002   ----------------------------------------
 BYTE   W96
// 003   ----------------------------------------
 BYTE   W96
// 004   ----------------------------------------
 BYTE   W96
// 005   ----------------------------------------
 BYTE   W30
 BYTE   N48  Fn2  v108
 BYTE   W48
 BYTE   Fs2  v116
 BYTE   W18
 BYTE   PEND 
// 006   ----------------------------------------
 BYTE   W30
 BYTE   N48  Gn2  v127
 BYTE   W48
 BYTE   Fs2  v116
 BYTE   W18
 BYTE   PEND 
// 007   ----------------------------------------
 BYTE   W30
 BYTE   N48  Gs2  v100
 BYTE   W48
 BYTE   An2  v112
 BYTE   W18
 BYTE   PEND 
// 008   ----------------------------------------
 BYTE   W30
 BYTE   N48  As2  v124
 BYTE   W48
 BYTE   An2  v112
 BYTE   W18
 BYTE   PEND 
// 009   ----------------------------------------
 BYTE   W30
 BYTE   N48  Gs2  v112
 BYTE   W48
 BYTE   Bn2  v124
 BYTE   W18
 BYTE   PEND 
// 010   ----------------------------------------
 BYTE   W30
 BYTE   N48  As2  v120
 BYTE   W48
 BYTE   An2  v112
 BYTE   W18
 BYTE   PEND 
// 011   ----------------------------------------
 BYTE   W96
// 012   ----------------------------------------
 BYTE   GoTo
  POIN2 Label_9_0127F8F1
 BYTE   FINE

//******************************************************//
	ALIGN 4

BossFE5:
	BYTE	10	// NumTrks
	BYTE	0	// NumBlks
	BYTE	BossFE5_pri	// Priority
	BYTE	BossFE5_rev	// Reverb.
    
	POIN2	BossFE5_grp
    
	POIN2	BossFE5_001
	POIN2	BossFE5_002
	POIN2	BossFE5_003
	POIN2	BossFE5_004
	POIN2	BossFE5_005
	POIN2	BossFE5_006
	POIN2	BossFE5_007
	POIN2	BossFE5_008
	POIN2	BossFE5_009
	POIN2	BossFE5_010

	
