//Event file generated from Sappy .s format.
	#include "MPlayDef.event"

	#define	BossMadouMonogatari_grp  voicegroup000
	#define	BossMadouMonogatari_pri  0
	#define	BossMadouMonogatari_rev  0
	#define	BossMadouMonogatari_mvl  85
	#define	BossMadouMonogatari_key  0
	#define	BossMadouMonogatari_tbs  1
	#define	BossMadouMonogatari_exg  0
	#define	BossMadouMonogatari_cmp  1

	// .rodata
	//	BossMadouMonogatari
	ALIGN 4

//**************** Track 1 (Midi-Chn.1) ****************//

BossMadouMonogatari_1:
	BYTE	KEYSH   BossMadouMonogatari_key+0
BossMadouMonogatari_1_B1:
// 000   ----------------------------------------
	BYTE	TEMPO   143*BossMadouMonogatari_tbs/2
	BYTE		VOICE   41
	BYTE		VOL     79*BossMadouMonogatari_mvl/mxv
	BYTE		PAN     c_v+0
	BYTE		N18     Bn3   v100
	BYTE	W18
	BYTE		N06   
	BYTE	W42
	BYTE		N36     An3 
	BYTE	W36
// 001   ----------------------------------------
	BYTE		N18     Gn3 
	BYTE	W18
	BYTE		N06   
	BYTE	W18
	BYTE		N12     Fs3 
	BYTE	W24
	BYTE		N24     An3 
	BYTE	W24
	BYTE		N12   
	BYTE	W12
// 002   ----------------------------------------
BossMadouMonogatari_1_002:
	BYTE		N18     Bn3   v100
	BYTE	W18
	BYTE		N06   
	BYTE	W42
	BYTE		N36     An3 
	BYTE	W36
	BYTE	PEND
// 003   ----------------------------------------
	BYTE		N18     Gn3 
	BYTE	W18
	BYTE		N06   
	BYTE	W18
	BYTE		N12     Fs3 
	BYTE	W24
	BYTE		        Cs5 
	BYTE	W12
	BYTE		N06     Cs4 
	BYTE	W06
	BYTE		N18     An4 
	BYTE	W18
// 004   ----------------------------------------
	BYTE	PATT
	 POIN2	BossMadouMonogatari_1_002
// 005   ----------------------------------------
	BYTE		N18     Gn3   v100
	BYTE	W18
	BYTE		N06   
	BYTE	W18
	BYTE		N12     Fs3 
	BYTE	W24
	BYTE		        An3 
	BYTE	W12
	BYTE		        Gn3 
	BYTE	W12
	BYTE		        An3 
	BYTE	W12
// 006   ----------------------------------------
	BYTE	PATT
	 POIN2	BossMadouMonogatari_1_002
// 007   ----------------------------------------
	BYTE		N18     Gn3   v100
	BYTE	W18
	BYTE		N06     Gn4 
	BYTE	W18
	BYTE		N36     Fs3 
	BYTE	W48
	BYTE		N12   
	BYTE	W12
// 008   ----------------------------------------
BossMadouMonogatari_1_008:
	BYTE		N18     En4   v100
	BYTE	W18
	BYTE		N06   
	BYTE	W66
	BYTE		N12     Bn3 
	BYTE	W12
	BYTE	PEND
// 009   ----------------------------------------
BossMadouMonogatari_1_009:
	BYTE		N18     En4   v100
	BYTE	W18
	BYTE		N06   
	BYTE	W66
	BYTE		N12     Ds4 
	BYTE	W12
	BYTE	PEND
// 010   ----------------------------------------
	BYTE	PATT
	 POIN2	BossMadouMonogatari_1_008
// 011   ----------------------------------------
	BYTE	PATT
	 POIN2	BossMadouMonogatari_1_009
// 012   ----------------------------------------
	BYTE	PATT
	 POIN2	BossMadouMonogatari_1_008
// 013   ----------------------------------------
	BYTE	PATT
	 POIN2	BossMadouMonogatari_1_009
// 014   ----------------------------------------
	BYTE	PATT
	 POIN2	BossMadouMonogatari_1_008
// 015   ----------------------------------------
	BYTE		N18     En4   v100
	BYTE	W18
	BYTE		N06   
	BYTE	W24
	BYTE		        En5 
	BYTE	W06
	BYTE		N12     En4 
	BYTE	W18
	BYTE		N06     As5 
	BYTE	W06
	BYTE		N12     As4 
	BYTE	W12
	BYTE		        Cs5 
	BYTE	W12
	BYTE	GoTo
	 POIN2	BossMadouMonogatari_1_B1
BossMadouMonogatari_1_B2:
// 016   ----------------------------------------
	BYTE		N18     En4   v100
	BYTE	W18
	BYTE	FINE

//**************** Track 2 (Midi-Chn.2) ****************//

BossMadouMonogatari_2:
	BYTE	KEYSH   BossMadouMonogatari_key+0
BossMadouMonogatari_2_B1:
// 000   ----------------------------------------
	BYTE		VOICE   33
	BYTE		VOL     79*BossMadouMonogatari_mvl/mxv
	BYTE		PAN     c_v+0
	BYTE		        c_v+45
	BYTE		N06     Bn1   v100
	BYTE	W06
	BYTE		        Fs2 
	BYTE	W06
	BYTE		N24     Bn2 
	BYTE	W24
	BYTE		N06     An1 
	BYTE	W06
	BYTE		        En2 
	BYTE	W06
	BYTE		N36     An2 
	BYTE	W36
	BYTE		N06     Fs1 
	BYTE	W06
	BYTE		        Dn2 
	BYTE	W06
// 001   ----------------------------------------
BossMadouMonogatari_2_001:
	BYTE		N24     Gn2   v100
	BYTE	W24
	BYTE		N12   
	BYTE	W12
	BYTE		N24     Fs2 
	BYTE	W24
	BYTE		N12     Fs1 
	BYTE	W12
	BYTE		        Cs2 
	BYTE	W12
	BYTE		        Fs2 
	BYTE	W12
	BYTE	PEND
// 002   ----------------------------------------
BossMadouMonogatari_2_002:
	BYTE	W12
	BYTE		N06     Bn1   v100
	BYTE	W06
	BYTE		        Fs2 
	BYTE	W06
	BYTE		N24     Bn2 
	BYTE	W24
	BYTE		N06     An1 
	BYTE	W06
	BYTE		        En2 
	BYTE	W06
	BYTE		N24     An2 
	BYTE	W24
	BYTE		N06     Fs1 
	BYTE	W06
	BYTE		        Dn2 
	BYTE	W06
	BYTE	PEND
// 003   ----------------------------------------
	BYTE		N24     Gn2 
	BYTE	W24
	BYTE		N12   
	BYTE	W12
	BYTE		N24     Fs2 
	BYTE	W24
	BYTE		        Gn2 
	BYTE	W24
	BYTE		N12     An2 
	BYTE	W12
// 004   ----------------------------------------
	BYTE		N06     Bn1 
	BYTE	W06
	BYTE		        Fs2 
	BYTE	W06
	BYTE		N24     Bn2 
	BYTE	W24
	BYTE		N06     An1 
	BYTE	W06
	BYTE		        En2 
	BYTE	W06
	BYTE		N36     An2 
	BYTE	W36
	BYTE		N06     Fs1 
	BYTE	W06
	BYTE		        Dn2 
	BYTE	W06
// 005   ----------------------------------------
	BYTE	PATT
	 POIN2	BossMadouMonogatari_2_001
// 006   ----------------------------------------
	BYTE	PATT
	 POIN2	BossMadouMonogatari_2_002
// 007   ----------------------------------------
	BYTE		N24     Gn2   v100
	BYTE	W24
	BYTE		N12   
	BYTE	W12
	BYTE		N24     Fs2 
	BYTE	W24
	BYTE		VOICE   61
	BYTE		PAN     c_v-53
	BYTE		N12     Fs3 
	BYTE	W12
	BYTE		        Gn3 
	BYTE	W12
	BYTE		        An3 
	BYTE	W12
// 008   ----------------------------------------
BossMadouMonogatari_2_008:
	BYTE		N84     Bn3   v100
	BYTE	W84
	BYTE		N02   
	BYTE	W06
	BYTE		N02   
	BYTE	W06
	BYTE	PEND
// 009   ----------------------------------------
BossMadouMonogatari_2_009:
	BYTE		N02     As3   v100
	BYTE	W06
	BYTE		N02   
	BYTE	W06
	BYTE		N84   
	BYTE	W84
	BYTE	PEND
// 010   ----------------------------------------
	BYTE	PATT
	 POIN2	BossMadouMonogatari_2_008
// 011   ----------------------------------------
	BYTE		N02     As3   v100
	BYTE	W06
	BYTE		N02   
	BYTE	W06
	BYTE		N48   
	BYTE	W48
	BYTE		N12     Fs3 
	BYTE	W12
	BYTE		        Gn3 
	BYTE	W12
	BYTE		        An3 
	BYTE	W12
// 012   ----------------------------------------
	BYTE	PATT
	 POIN2	BossMadouMonogatari_2_008
// 013   ----------------------------------------
	BYTE	PATT
	 POIN2	BossMadouMonogatari_2_009
// 014   ----------------------------------------
	BYTE	PATT
	 POIN2	BossMadouMonogatari_2_008
// 015   ----------------------------------------
	BYTE		N02     As3   v100
	BYTE	W06
	BYTE		N02   
	BYTE	W06
	BYTE		N36   
	BYTE	W36
	BYTE		N24     Gs3 
	BYTE	W24
	BYTE		        As3 
	BYTE	W24
	BYTE	GoTo
	 POIN2	BossMadouMonogatari_2_B1
BossMadouMonogatari_2_B2:
// 016   ----------------------------------------
	BYTE		N84     Bn3   v100
	BYTE	W84
	BYTE	FINE

//**************** Track 3 (Midi-Chn.3) ****************//

BossMadouMonogatari_3:
	BYTE	KEYSH   BossMadouMonogatari_key+0
BossMadouMonogatari_3_B1:
// 000   ----------------------------------------
	BYTE		VOICE   33
	BYTE		VOL     54*BossMadouMonogatari_mvl/mxv
	BYTE		PAN     c_v+0
	BYTE	W12
	BYTE		        c_v+45
	BYTE		N06     Bn1   v100
	BYTE	W06
	BYTE		        Fs2 
	BYTE	W06
	BYTE		N24     Bn2 
	BYTE	W24
	BYTE		N06     An1 
	BYTE	W06
	BYTE		        En2 
	BYTE	W06
	BYTE		N36     An2 
	BYTE	W36
// 001   ----------------------------------------
BossMadouMonogatari_3_001:
	BYTE		N06     Fs1   v100
	BYTE	W06
	BYTE		        Dn2 
	BYTE	W06
	BYTE		N24     Gn2 
	BYTE	W24
	BYTE		N12   
	BYTE	W12
	BYTE		N24     Fs2 
	BYTE	W24
	BYTE		N12     Fs1 
	BYTE	W12
	BYTE		        Cs2 
	BYTE	W12
	BYTE	PEND
// 002   ----------------------------------------
BossMadouMonogatari_3_002:
	BYTE		N12     Fs2   v100
	BYTE	W24
	BYTE		N06     Bn1 
	BYTE	W06
	BYTE		        Fs2 
	BYTE	W06
	BYTE		N24     Bn2 
	BYTE	W24
	BYTE		N06     An1 
	BYTE	W06
	BYTE		        En2 
	BYTE	W06
	BYTE		N24     An2 
	BYTE	W24
	BYTE	PEND
// 003   ----------------------------------------
	BYTE		N06     Fs1 
	BYTE	W06
	BYTE		        Dn2 
	BYTE	W06
	BYTE		N24     Gn2 
	BYTE	W24
	BYTE		N12   
	BYTE	W12
	BYTE		N24     Fs2 
	BYTE	W24
	BYTE		        Gn2 
	BYTE	W24
// 004   ----------------------------------------
	BYTE		N12     An2 
	BYTE	W12
	BYTE		N06     Bn1 
	BYTE	W06
	BYTE		        Fs2 
	BYTE	W06
	BYTE		N24     Bn2 
	BYTE	W24
	BYTE		N06     An1 
	BYTE	W06
	BYTE		        En2 
	BYTE	W06
	BYTE		N36     An2 
	BYTE	W36
// 005   ----------------------------------------
	BYTE	PATT
	 POIN2	BossMadouMonogatari_3_001
// 006   ----------------------------------------
	BYTE	PATT
	 POIN2	BossMadouMonogatari_3_002
// 007   ----------------------------------------
	BYTE		N06     Fs1   v100
	BYTE	W06
	BYTE		        Dn2 
	BYTE	W06
	BYTE		N24     Gn2 
	BYTE	W24
	BYTE		N12   
	BYTE	W12
	BYTE		N24     Fs2 
	BYTE	W24
	BYTE		VOICE   57
	BYTE		PAN     c_v-53
	BYTE		N12     Fs3 
	BYTE	W12
	BYTE		        Gn3 
	BYTE	W12
// 008   ----------------------------------------
BossMadouMonogatari_3_008:
	BYTE		N12     An3   v100
	BYTE	W12
	BYTE		N84     Bn3 
	BYTE	W84
	BYTE	PEND
// 009   ----------------------------------------
BossMadouMonogatari_3_009:
	BYTE		N02     Bn3   v100
	BYTE	W06
	BYTE		N02   
	BYTE	W06
	BYTE		        As3 
	BYTE	W06
	BYTE		N02   
	BYTE	W06
	BYTE		N84   
	BYTE	W72
	BYTE	PEND
// 010   ----------------------------------------
	BYTE	W12
	BYTE		        Bn3 
	BYTE	W84
// 011   ----------------------------------------
	BYTE		N02   
	BYTE	W06
	BYTE		N02   
	BYTE	W06
	BYTE		        As3 
	BYTE	W06
	BYTE		N02   
	BYTE	W06
	BYTE		N48   
	BYTE	W48
	BYTE		N12     Fs3 
	BYTE	W12
	BYTE		        Gn3 
	BYTE	W12
// 012   ----------------------------------------
	BYTE	PATT
	 POIN2	BossMadouMonogatari_3_008
// 013   ----------------------------------------
	BYTE	PATT
	 POIN2	BossMadouMonogatari_3_009
// 014   ----------------------------------------
	BYTE	W12
	BYTE		N84     Bn3   v100
	BYTE	W84
// 015   ----------------------------------------
	BYTE		N02   
	BYTE	W06
	BYTE		N02   
	BYTE	W06
	BYTE		        As3 
	BYTE	W06
	BYTE		N02   
	BYTE	W06
	BYTE		N36   
	BYTE	W36
	BYTE		N24     Gs3 
	BYTE	W24
	BYTE		        As3 
	BYTE	W12
	BYTE	GoTo
	 POIN2	BossMadouMonogatari_3_B1
BossMadouMonogatari_3_B2:
// 016   ----------------------------------------
	BYTE	W12
	BYTE	FINE

//**************** Track 4 (Midi-Chn.4) ****************//

BossMadouMonogatari_4:
	BYTE	KEYSH   BossMadouMonogatari_key+0
BossMadouMonogatari_4_B1:
// 000   ----------------------------------------
	BYTE		VOICE   33
	BYTE		VOL     54*BossMadouMonogatari_mvl/mxv
	BYTE		PAN     c_v+0
	BYTE		N36     Bn3   v100
	BYTE	W36
	BYTE		N60     Cs4 
	BYTE	W60
// 001   ----------------------------------------
	BYTE		N36     Dn4 
	BYTE	W36
	BYTE		        En4 
	BYTE	W36
	BYTE		N12     Fs4 
	BYTE	W12
	BYTE		        An4 
	BYTE	W12
// 002   ----------------------------------------
	BYTE	W12
	BYTE		N36     Bn3 
	BYTE	W36
	BYTE		N48     Cs4 
	BYTE	W48
// 003   ----------------------------------------
	BYTE		N36     Dn4 
	BYTE	W36
	BYTE		        Cs4 
	BYTE	W36
	BYTE		N12     Bn3 
	BYTE	W12
	BYTE		        Cs4 
	BYTE	W12
// 004   ----------------------------------------
	BYTE		N36     Dn4 
	BYTE	W36
	BYTE		N60     En4 
	BYTE	W60
// 005   ----------------------------------------
	BYTE		N36     Fs4 
	BYTE	W36
	BYTE		        As4 
	BYTE	W36
	BYTE		N12     Bn3 
	BYTE	W12
	BYTE		        Cs4 
	BYTE	W12
// 006   ----------------------------------------
	BYTE	W12
	BYTE		N36     Dn4 
	BYTE	W36
	BYTE		N48     En4 
	BYTE	W48
// 007   ----------------------------------------
	BYTE		N36     Fs4 
	BYTE	W36
	BYTE		N24     En4 
	BYTE	W24
	BYTE		VOICE   57
	BYTE		PAN     c_v+53
	BYTE		N12     Bn3 
	BYTE	W12
	BYTE		        Cn4 
	BYTE	W12
	BYTE		        Dn4 
	BYTE	W12
// 008   ----------------------------------------
BossMadouMonogatari_4_008:
	BYTE		N84     En4   v100
	BYTE	W84
	BYTE		N02   
	BYTE	W06
	BYTE		N02   
	BYTE	W06
	BYTE	PEND
// 009   ----------------------------------------
BossMadouMonogatari_4_009:
	BYTE		N02     En4   v100
	BYTE	W06
	BYTE		N02   
	BYTE	W06
	BYTE		N84   
	BYTE	W84
	BYTE	PEND
// 010   ----------------------------------------
	BYTE	PATT
	 POIN2	BossMadouMonogatari_4_008
// 011   ----------------------------------------
	BYTE	PATT
	 POIN2	BossMadouMonogatari_4_009
// 012   ----------------------------------------
	BYTE	PATT
	 POIN2	BossMadouMonogatari_4_008
// 013   ----------------------------------------
	BYTE	PATT
	 POIN2	BossMadouMonogatari_4_009
// 014   ----------------------------------------
	BYTE	PATT
	 POIN2	BossMadouMonogatari_4_008
// 015   ----------------------------------------
	BYTE		N02     En4   v100
	BYTE	W06
	BYTE		N02   
	BYTE	W06
	BYTE		N36   
	BYTE	W36
	BYTE		N24     Dn4 
	BYTE	W24
	BYTE		        En4 
	BYTE	W24
	BYTE	GoTo
	 POIN2	BossMadouMonogatari_4_B1
BossMadouMonogatari_4_B2:
// 016   ----------------------------------------
	BYTE		N84     En4   v100
	BYTE	W84
	BYTE	FINE

//**************** Track 5 (Midi-Chn.5) ****************//

BossMadouMonogatari_5:
	BYTE	KEYSH   BossMadouMonogatari_key+0
BossMadouMonogatari_5_B1:
// 000   ----------------------------------------
	BYTE		VOICE   63
	BYTE		VOL     70*BossMadouMonogatari_mvl/mxv
	BYTE		PAN     c_v+0
	BYTE		        c_v-45
	BYTE		N06     Fs3   v100
	BYTE	W06
	BYTE		        Bn3 
	BYTE	W06
	BYTE		N36     Dn4 
	BYTE	W36
	BYTE		N48     Cs4 
	BYTE	W48
// 001   ----------------------------------------
BossMadouMonogatari_5_001:
	BYTE		N36     Bn3   v100
	BYTE	W36
	BYTE		N60     As3 
	BYTE	W60
	BYTE	PEND
// 002   ----------------------------------------
BossMadouMonogatari_5_002:
	BYTE	W12
	BYTE		N06     Fs3   v100
	BYTE	W06
	BYTE		        Bn3 
	BYTE	W06
	BYTE		N24     Dn4 
	BYTE	W24
	BYTE		N48     Cs4 
	BYTE	W48
	BYTE	PEND
// 003   ----------------------------------------
	BYTE	PATT
	 POIN2	BossMadouMonogatari_5_001
// 004   ----------------------------------------
	BYTE		N06     Fs3   v100
	BYTE	W06
	BYTE		        Bn3 
	BYTE	W06
	BYTE		N36     Dn4 
	BYTE	W36
	BYTE		N48     Cs4 
	BYTE	W48
// 005   ----------------------------------------
	BYTE	PATT
	 POIN2	BossMadouMonogatari_5_001
// 006   ----------------------------------------
	BYTE	PATT
	 POIN2	BossMadouMonogatari_5_002
// 007   ----------------------------------------
	BYTE		N24     Bn3   v100
	BYTE	W24
	BYTE		N12   
	BYTE	W12
	BYTE		N24     As3 
	BYTE	W24
	BYTE		VOICE   63
	BYTE		PAN     c_v+0
	BYTE		N06     Fs4 
	BYTE	W06
	BYTE		        En4 
	BYTE	W06
	BYTE		        As3 
	BYTE	W06
	BYTE		        Fs3 
	BYTE	W06
	BYTE		        En3 
	BYTE	W06
	BYTE		        As2 
	BYTE	W06
// 008   ----------------------------------------
BossMadouMonogatari_5_008:
	BYTE		N12     Bn3   v100
	BYTE	W12
	BYTE		        Bn2 
	BYTE	W12
	BYTE		        Gn3 
	BYTE	W12
	BYTE		        Bn2 
	BYTE	W12
	BYTE		        En3 
	BYTE	W12
	BYTE		        Bn2 
	BYTE	W12
	BYTE		        Gn3 
	BYTE	W12
	BYTE		        Bn2 
	BYTE	W12
	BYTE	PEND
// 009   ----------------------------------------
BossMadouMonogatari_5_009:
	BYTE		N12     As3   v100
	BYTE	W12
	BYTE		        As2 
	BYTE	W12
	BYTE		        Gn3 
	BYTE	W12
	BYTE		        As2 
	BYTE	W12
	BYTE		        En3 
	BYTE	W12
	BYTE		        As2 
	BYTE	W12
	BYTE		        Gn3 
	BYTE	W12
	BYTE		        As2 
	BYTE	W12
	BYTE	PEND
// 010   ----------------------------------------
	BYTE	PATT
	 POIN2	BossMadouMonogatari_5_008
// 011   ----------------------------------------
	BYTE	PATT
	 POIN2	BossMadouMonogatari_5_009
// 012   ----------------------------------------
	BYTE	PATT
	 POIN2	BossMadouMonogatari_5_008
// 013   ----------------------------------------
	BYTE	PATT
	 POIN2	BossMadouMonogatari_5_009
// 014   ----------------------------------------
	BYTE	PATT
	 POIN2	BossMadouMonogatari_5_008
// 015   ----------------------------------------
	BYTE	PATT
	 POIN2	BossMadouMonogatari_5_009
	BYTE	GoTo
	 POIN2	BossMadouMonogatari_5_B1
BossMadouMonogatari_5_B2:
// 016   ----------------------------------------
	BYTE		N12     Bn3   v100
	BYTE	W12
	BYTE	FINE

//**************** Track 6 (Midi-Chn.6) ****************//

BossMadouMonogatari_6:
	BYTE	KEYSH   BossMadouMonogatari_key+0
BossMadouMonogatari_6_B1:
// 000   ----------------------------------------
	BYTE		VOICE   33
	BYTE		VOL     72*BossMadouMonogatari_mvl/mxv
	BYTE		PAN     c_v+0
	BYTE	W06
	BYTE		        c_v-45
	BYTE		N06     Fs3   v100
	BYTE	W06
	BYTE		        Bn3 
	BYTE	W06
	BYTE		N36     Dn4 
	BYTE	W36
	BYTE		N48     Cs4 
	BYTE	W42
// 001   ----------------------------------------
BossMadouMonogatari_6_001:
	BYTE	W06
	BYTE		N36     Bn3   v100
	BYTE	W36
	BYTE		N60     As3 
	BYTE	W54
	BYTE	PEND
// 002   ----------------------------------------
BossMadouMonogatari_6_002:
	BYTE	W18
	BYTE		N06     Fs3   v100
	BYTE	W06
	BYTE		        Bn3 
	BYTE	W06
	BYTE		N24     Dn4 
	BYTE	W24
	BYTE		N48     Cs4 
	BYTE	W42
	BYTE	PEND
// 003   ----------------------------------------
	BYTE	PATT
	 POIN2	BossMadouMonogatari_6_001
// 004   ----------------------------------------
	BYTE	W06
	BYTE		N06     Fs3   v100
	BYTE	W06
	BYTE		        Bn3 
	BYTE	W06
	BYTE		N36     Dn4 
	BYTE	W36
	BYTE		N48     Cs4 
	BYTE	W42
// 005   ----------------------------------------
	BYTE	PATT
	 POIN2	BossMadouMonogatari_6_001
// 006   ----------------------------------------
	BYTE	PATT
	 POIN2	BossMadouMonogatari_6_002
// 007   ----------------------------------------
	BYTE	W06
	BYTE		N24     Bn3   v100
	BYTE	W24
	BYTE		N12   
	BYTE	W12
	BYTE		N24     As3 
	BYTE	W24
	BYTE		VOICE   63
	BYTE		PAN     c_v+0
	BYTE		N06     Fs4 
	BYTE	W06
	BYTE		        En4 
	BYTE	W06
	BYTE		        As3 
	BYTE	W06
	BYTE		        Fs3 
	BYTE	W06
	BYTE		        En3 
	BYTE	W06
// 008   ----------------------------------------
	BYTE		        As2 
	BYTE	W06
	BYTE		N12     Bn3 
	BYTE	W12
	BYTE		        Bn2 
	BYTE	W12
	BYTE		        Gn3 
	BYTE	W12
	BYTE		        Bn2 
	BYTE	W12
	BYTE		        En3 
	BYTE	W12
	BYTE		        Bn2 
	BYTE	W12
	BYTE		        Gn3 
	BYTE	W12
	BYTE		        Bn2 
	BYTE	W06
// 009   ----------------------------------------
BossMadouMonogatari_6_009:
	BYTE	W06
	BYTE		N12     As3   v100
	BYTE	W12
	BYTE		        As2 
	BYTE	W12
	BYTE		        Gn3 
	BYTE	W12
	BYTE		        As2 
	BYTE	W12
	BYTE		        En3 
	BYTE	W12
	BYTE		        As2 
	BYTE	W12
	BYTE		        Gn3 
	BYTE	W12
	BYTE		        As2 
	BYTE	W06
	BYTE	PEND
// 010   ----------------------------------------
BossMadouMonogatari_6_010:
	BYTE	W06
	BYTE		N12     Bn3   v100
	BYTE	W12
	BYTE		        Bn2 
	BYTE	W12
	BYTE		        Gn3 
	BYTE	W12
	BYTE		        Bn2 
	BYTE	W12
	BYTE		        En3 
	BYTE	W12
	BYTE		        Bn2 
	BYTE	W12
	BYTE		        Gn3 
	BYTE	W12
	BYTE		        Bn2 
	BYTE	W06
	BYTE	PEND
// 011   ----------------------------------------
	BYTE	PATT
	 POIN2	BossMadouMonogatari_6_009
// 012   ----------------------------------------
	BYTE	PATT
	 POIN2	BossMadouMonogatari_6_010
// 013   ----------------------------------------
	BYTE	PATT
	 POIN2	BossMadouMonogatari_6_009
// 014   ----------------------------------------
	BYTE	PATT
	 POIN2	BossMadouMonogatari_6_010
// 015   ----------------------------------------
	BYTE	PATT
	 POIN2	BossMadouMonogatari_6_009
	BYTE	GoTo
	 POIN2	BossMadouMonogatari_6_B1
BossMadouMonogatari_6_B2:
// 016   ----------------------------------------
	BYTE	W06
	BYTE		N12     Bn3   v100
	BYTE	W12
	BYTE	FINE

//**************** Track 7 (Midi-Chn.7) ****************//

BossMadouMonogatari_7:
	BYTE	KEYSH   BossMadouMonogatari_key+0
BossMadouMonogatari_7_B1:
// 000   ----------------------------------------
	BYTE		VOICE   127
	BYTE		VOL     88*BossMadouMonogatari_mvl/mxv
	BYTE		N06     An2   v100
	BYTE	W06
	BYTE		        Fs1 
	BYTE	W06
	BYTE		        Gs1 
	BYTE	W06
	BYTE		        Fs1 
	BYTE	W06
	BYTE		        Cs2 
	BYTE		N06     An2 
	BYTE	W06
	BYTE		        Fs1 
	BYTE	W06
	BYTE		        Gs1 
	BYTE	W06
	BYTE		        Fs1 
	BYTE		N06     Cs2 
	BYTE	W06
	BYTE		        An2 
	BYTE	W06
	BYTE		        Fs1 
	BYTE	W06
	BYTE		        Gs1 
	BYTE	W06
	BYTE		        Fs1 
	BYTE	W06
	BYTE		        Cs2 
	BYTE		N06     An2 
	BYTE	W06
	BYTE		        Fs1 
	BYTE	W06
	BYTE		        Gs1 
	BYTE	W06
	BYTE		        Fs1 
	BYTE		N06     Cs2 
	BYTE	W06
// 001   ----------------------------------------
BossMadouMonogatari_7_001:
	BYTE		N06     An2   v100
	BYTE	W06
	BYTE		        Fs1 
	BYTE	W06
	BYTE		        Gs1 
	BYTE	W06
	BYTE		        Fs1 
	BYTE	W06
	BYTE		        Cs2 
	BYTE		N06     An2 
	BYTE	W06
	BYTE		        Fs1 
	BYTE	W06
	BYTE		        Gs1 
	BYTE	W06
	BYTE		        Fs1 
	BYTE		N06     Cs2 
	BYTE	W06
	BYTE		        An2 
	BYTE	W06
	BYTE		        Fs1 
	BYTE	W06
	BYTE		        Gs1 
	BYTE	W06
	BYTE		        Fs1 
	BYTE	W06
	BYTE		        Cs2 
	BYTE		N06     An2 
	BYTE	W06
	BYTE		        Fs1 
	BYTE	W06
	BYTE		        Gs1 
	BYTE	W06
	BYTE		        Fs1 
	BYTE		N06     Cs2 
	BYTE	W06
	BYTE	PEND
// 002   ----------------------------------------
	BYTE	PATT
	 POIN2	BossMadouMonogatari_7_001
// 003   ----------------------------------------
BossMadouMonogatari_7_003:
	BYTE		N06     An2   v100
	BYTE	W06
	BYTE		        Fs1 
	BYTE	W06
	BYTE		        Gs1 
	BYTE	W06
	BYTE		        Fs1 
	BYTE	W06
	BYTE		        Cs2 
	BYTE		N06     An2 
	BYTE	W06
	BYTE		        Fs1 
	BYTE	W06
	BYTE		        Gs1 
	BYTE	W06
	BYTE		        Fs1 
	BYTE		N06     Cs2 
	BYTE	W06
	BYTE		        An2 
	BYTE	W06
	BYTE		        Fs1 
	BYTE		N06     Cs2 
	BYTE	W06
	BYTE		        Gs1 
	BYTE	W06
	BYTE		        Fs1 
	BYTE	W06
	BYTE		        Cs2 
	BYTE		N06     An2 
	BYTE	W06
	BYTE		        Fs1 
	BYTE	W06
	BYTE		        Cs2 
	BYTE		N06     An2 
	BYTE	W06
	BYTE		        Fs1 
	BYTE		N06     Cs2 
	BYTE	W06
	BYTE	PEND
// 004   ----------------------------------------
	BYTE	PATT
	 POIN2	BossMadouMonogatari_7_001
// 005   ----------------------------------------
	BYTE	PATT
	 POIN2	BossMadouMonogatari_7_001
// 006   ----------------------------------------
	BYTE	PATT
	 POIN2	BossMadouMonogatari_7_001
// 007   ----------------------------------------
	BYTE		N06     An2   v100
	BYTE	W06
	BYTE		        Fs1 
	BYTE		N06     Cs2 
	BYTE	W06
	BYTE		        Gs1 
	BYTE		N06     Cs2 
	BYTE	W06
	BYTE		        Fs1 
	BYTE	W06
	BYTE		        Cs2 
	BYTE		N06     An2 
	BYTE	W06
	BYTE		        Fs1 
	BYTE	W06
	BYTE		        Gs1 
	BYTE	W06
	BYTE		        Fs1 
	BYTE		N06     Cs2 
	BYTE	W06
	BYTE		        An2 
	BYTE	W06
	BYTE		        Fs1 
	BYTE	W06
	BYTE		        Gs1 
	BYTE		N06     Cs2 
	BYTE	W06
	BYTE		        Fs1 
	BYTE	W06
	BYTE		        Cs2 
	BYTE		N06     An2 
	BYTE	W06
	BYTE		        Fs1 
	BYTE	W06
	BYTE		        Cs2 
	BYTE		N06     An2 
	BYTE	W06
	BYTE		        Fs1 
	BYTE		N06     Cs2 
	BYTE	W06
// 008   ----------------------------------------
BossMadouMonogatari_7_008:
	BYTE		N24     En2   v100
	BYTE		N06     An2 
	BYTE	W06
	BYTE		        Fs1 
	BYTE	W06
	BYTE		        Gs1 
	BYTE	W06
	BYTE		        Fs1 
	BYTE	W06
	BYTE		        Cs2 
	BYTE		N06     An2 
	BYTE	W06
	BYTE		        Fs1 
	BYTE	W06
	BYTE		        Gs1 
	BYTE	W06
	BYTE		        Fs1 
	BYTE		N06     Cs2 
	BYTE	W06
	BYTE		        An2 
	BYTE	W06
	BYTE		        Fs1 
	BYTE	W06
	BYTE		        Gs1 
	BYTE	W06
	BYTE		        Fs1 
	BYTE	W06
	BYTE		        Cs2 
	BYTE		N06     An2 
	BYTE	W06
	BYTE		        Fs1 
	BYTE	W06
	BYTE		        Gs1 
	BYTE	W06
	BYTE		        Fs1 
	BYTE		N06     Cs2 
	BYTE	W06
	BYTE	PEND
// 009   ----------------------------------------
	BYTE	PATT
	 POIN2	BossMadouMonogatari_7_001
// 010   ----------------------------------------
	BYTE	PATT
	 POIN2	BossMadouMonogatari_7_001
// 011   ----------------------------------------
	BYTE	PATT
	 POIN2	BossMadouMonogatari_7_003
// 012   ----------------------------------------
	BYTE	PATT
	 POIN2	BossMadouMonogatari_7_008
// 013   ----------------------------------------
	BYTE	PATT
	 POIN2	BossMadouMonogatari_7_001
// 014   ----------------------------------------
	BYTE		N06     An2   v100
	BYTE	W06
	BYTE		        Fs1 
	BYTE	W06
	BYTE		        Gs1 
	BYTE	W06
	BYTE		        Fs1 
	BYTE	W06
	BYTE		        Cs2 
	BYTE		N06     An2 
	BYTE	W06
	BYTE		        Fs1 
	BYTE	W06
	BYTE		        Gs1 
	BYTE	W06
	BYTE		        Fs1 
	BYTE		N06     Cs2 
	BYTE	W06
	BYTE		        An2 
	BYTE	W06
	BYTE		        Fs1 
	BYTE	W06
	BYTE		        Gs1 
	BYTE	W06
	BYTE		        Fs1 
	BYTE	W06
	BYTE		        Cs2 
	BYTE		N06     An2 
	BYTE	W06
	BYTE		        Fs1 
	BYTE	W06
	BYTE		        Gs1 
	BYTE		N06     Cs2 
	BYTE	W06
	BYTE		        Fs1 
	BYTE		N06     Cs2 
	BYTE	W06
// 015   ----------------------------------------
	BYTE		        An2 
	BYTE	W06
	BYTE		        Fs1 
	BYTE		N06     Cs2 
	BYTE	W06
	BYTE		        Gs1 
	BYTE	W06
	BYTE		        Fs1 
	BYTE		N06     Cs2 
	BYTE	W06
	BYTE		N06   
	BYTE		N06     An2 
	BYTE	W06
	BYTE		        Fs1 
	BYTE	W06
	BYTE		        Gs1 
	BYTE	W06
	BYTE		        Fs1 
	BYTE		N06     Cs2 
	BYTE	W06
	BYTE		        An2 
	BYTE	W06
	BYTE		        Fs1 
	BYTE	W06
	BYTE		        Cs2 
	BYTE		N06     An2 
	BYTE	W06
	BYTE		        Fs1 
	BYTE	W06
	BYTE		        Cs2 
	BYTE		N06     An2 
	BYTE	W06
	BYTE		        Fs1 
	BYTE	W06
	BYTE		        Cs2 
	BYTE		N06     An2 
	BYTE	W06
	BYTE		        Fs1 
	BYTE		N06     Cs2 
	BYTE	W06
	BYTE	GoTo
	 POIN2	BossMadouMonogatari_7_B1
BossMadouMonogatari_7_B2:
// 016   ----------------------------------------
	BYTE		N24     En2   v100
	BYTE		N06     An2 
	BYTE	W06
	BYTE		        Fs1 
	BYTE	W18
	BYTE	FINE

//******************************************************//
	ALIGN 4

BossMadouMonogatari:
	BYTE	7	// NumTrks
	BYTE	0	// NumBlks
	BYTE	BossMadouMonogatari_pri	// Priority
	BYTE	BossMadouMonogatari_rev	// Reverb.

	POIN2	BossMadouMonogatari_grp

	POIN2	BossMadouMonogatari_1
	POIN2	BossMadouMonogatari_2
	POIN2	BossMadouMonogatari_3
	POIN2	BossMadouMonogatari_4
	POIN2	BossMadouMonogatari_5
	POIN2	BossMadouMonogatari_6
	POIN2	BossMadouMonogatari_7

	
