//Event file generated from Sappy .s format.
	#include "MPlayDef.event"

	#define	DesertedChateau_grp  voicegroup000
	#define	DesertedChateau_pri  0
	#define	DesertedChateau_rev  0
	#define	DesertedChateau_mvl  45
	#define	DesertedChateau_key  0
	#define	DesertedChateau_tbs  1
	#define	DesertedChateau_exg  0
	#define	DesertedChateau_cmp  1

	// .rodata
	//	DesertedChateau
	ALIGN 4

//**************** Track 1 (Midi-Chn.1) ****************//

DesertedChateau_1:
	BYTE	KEYSH   DesertedChateau_key+0
// 000   ----------------------------------------
	BYTE	TEMPO   135*DesertedChateau_tbs/2
	BYTE		VOICE   10
	BYTE		VOL     127*DesertedChateau_mvl/mxv
	BYTE	W21
	BYTE	W12
	BYTE		N07     En3   v100
	BYTE	W12
	BYTE		        Gn3 
	BYTE	W12
	BYTE		        Dn4 
	BYTE	W12
	BYTE		N30     Bn3 
	BYTE	W24
	BYTE	W03
// 001   ----------------------------------------
DesertedChateau_1_001:
	BYTE	W32
	BYTE	W01
	BYTE		N07     Dn3   v100
	BYTE	W12
	BYTE		        Fs3 
	BYTE	W12
	BYTE		        Cs4 
	BYTE	W12
	BYTE		N30     An3 
	BYTE	W24
	BYTE	W03
	BYTE	PEND
// 002   ----------------------------------------
	BYTE	W32
	BYTE	W01
	BYTE		N07     En3 
	BYTE	W12
	BYTE		        Gn3 
	BYTE	W12
	BYTE		        Dn4 
	BYTE	W12
	BYTE		N30     Bn3 
	BYTE	W24
	BYTE	W03
// 003   ----------------------------------------
	BYTE	PATT
	 POIN2	DesertedChateau_1_001
// 004   ----------------------------------------
	BYTE	W96
// 005   ----------------------------------------
	BYTE	W96
// 006   ----------------------------------------
	BYTE	W96
// 007   ----------------------------------------
	BYTE	W96
// 008   ----------------------------------------
	BYTE	W60
DesertedChateau_1_B1:
	BYTE	W36
// 009   ----------------------------------------
	BYTE	W96
// 010   ----------------------------------------
	BYTE	W96
// 011   ----------------------------------------
	BYTE	W96
// 012   ----------------------------------------
	BYTE	W96
// 013   ----------------------------------------
	BYTE	W96
// 014   ----------------------------------------
	BYTE	W96
// 015   ----------------------------------------
	BYTE	W96
// 016   ----------------------------------------
	BYTE	W96
// 017   ----------------------------------------
	BYTE	W96
// 018   ----------------------------------------
	BYTE	W96
// 019   ----------------------------------------
	BYTE	W96
// 020   ----------------------------------------
	BYTE	W96
// 021   ----------------------------------------
	BYTE	W96
// 022   ----------------------------------------
	BYTE	W96
// 023   ----------------------------------------
	BYTE	W96
// 024   ----------------------------------------
	BYTE	W96
// 025   ----------------------------------------
	BYTE	W96
// 026   ----------------------------------------
	BYTE	W96
// 027   ----------------------------------------
	BYTE	W96
// 028   ----------------------------------------
	BYTE	W96
// 029   ----------------------------------------
	BYTE	W96
// 030   ----------------------------------------
	BYTE	W96
// 031   ----------------------------------------
	BYTE	W96
// 032   ----------------------------------------
	BYTE	W96
// 033   ----------------------------------------
	BYTE	W96
// 034   ----------------------------------------
	BYTE	W96
// 035   ----------------------------------------
	BYTE	W96
// 036   ----------------------------------------
	BYTE	W96
// 037   ----------------------------------------
	BYTE	W60
	BYTE	GoTo
	 POIN2	DesertedChateau_1_B1
DesertedChateau_1_B2:
	BYTE	W36
// 038   ----------------------------------------
	BYTE	W21
	BYTE		N24     Bn3   v100
	BYTE	W24
	BYTE		N12     Gn3 
	BYTE	W12
	BYTE		N36     An3 
	BYTE	W36
	BYTE	W03
// 039   ----------------------------------------
	BYTE	FINE

//**************** Track 2 (Midi-Chn.2) ****************//

DesertedChateau_2:
	BYTE	KEYSH   DesertedChateau_key+0
// 000   ----------------------------------------
	BYTE		VOICE   46
	BYTE	W21
	BYTE		VOL     100*DesertedChateau_mvl/mxv
	BYTE		N96     Gn3   v100
	BYTE		N96     Bn3 
	BYTE	W72
	BYTE	W03
// 001   ----------------------------------------
DesertedChateau_2_001:
	BYTE	W21
	BYTE		N96     Fs3   v100
	BYTE		N96     An3 
	BYTE	W72
	BYTE	W03
	BYTE	PEND
// 002   ----------------------------------------
DesertedChateau_2_002:
	BYTE	W21
	BYTE		N96     Gn3   v100
	BYTE		N96     Bn3 
	BYTE	W72
	BYTE	W03
	BYTE	PEND
// 003   ----------------------------------------
	BYTE	PATT
	 POIN2	DesertedChateau_2_001
// 004   ----------------------------------------
DesertedChateau_2_004:
	BYTE	W21
	BYTE		TIE     Gn3   v100
	BYTE		N96     Bn3 
	BYTE	W72
	BYTE	W03
	BYTE	PEND
// 005   ----------------------------------------
DesertedChateau_2_005:
	BYTE	W21
	BYTE		N96     As3   v100
	BYTE	W72
	BYTE	W03
	BYTE	PEND
// 006   ----------------------------------------
	BYTE	W21
	BYTE		EOT     Gn3 
	BYTE		TIE   
	BYTE		N96     Bn3 
	BYTE	W72
	BYTE	W03
// 007   ----------------------------------------
	BYTE	PATT
	 POIN2	DesertedChateau_2_005
// 008   ----------------------------------------
	BYTE	W21
	BYTE		EOT     Gn3 
	BYTE	W36
	BYTE	W03
DesertedChateau_2_B1:
	BYTE	W36
// 009   ----------------------------------------
	BYTE	PATT
	 POIN2	DesertedChateau_2_002
// 010   ----------------------------------------
	BYTE	PATT
	 POIN2	DesertedChateau_2_001
// 011   ----------------------------------------
DesertedChateau_2_011:
	BYTE	W21
	BYTE		N96     En3   v100
	BYTE		N96     Gn3 
	BYTE	W72
	BYTE	W03
	BYTE	PEND
// 012   ----------------------------------------
DesertedChateau_2_012:
	BYTE	W21
	BYTE		N96     Dn3   v100
	BYTE		N96     Fs3 
	BYTE	W72
	BYTE	W03
	BYTE	PEND
// 013   ----------------------------------------
	BYTE	PATT
	 POIN2	DesertedChateau_2_002
// 014   ----------------------------------------
	BYTE	PATT
	 POIN2	DesertedChateau_2_001
// 015   ----------------------------------------
	BYTE	PATT
	 POIN2	DesertedChateau_2_011
// 016   ----------------------------------------
	BYTE	PATT
	 POIN2	DesertedChateau_2_012
// 017   ----------------------------------------
	BYTE	PATT
	 POIN2	DesertedChateau_2_002
// 018   ----------------------------------------
	BYTE	PATT
	 POIN2	DesertedChateau_2_001
// 019   ----------------------------------------
	BYTE	PATT
	 POIN2	DesertedChateau_2_002
// 020   ----------------------------------------
	BYTE	PATT
	 POIN2	DesertedChateau_2_001
// 021   ----------------------------------------
	BYTE	PATT
	 POIN2	DesertedChateau_2_011
// 022   ----------------------------------------
	BYTE	PATT
	 POIN2	DesertedChateau_2_012
// 023   ----------------------------------------
	BYTE	PATT
	 POIN2	DesertedChateau_2_002
// 024   ----------------------------------------
	BYTE	PATT
	 POIN2	DesertedChateau_2_001
// 025   ----------------------------------------
	BYTE	PATT
	 POIN2	DesertedChateau_2_011
// 026   ----------------------------------------
	BYTE	PATT
	 POIN2	DesertedChateau_2_012
// 027   ----------------------------------------
	BYTE	PATT
	 POIN2	DesertedChateau_2_002
// 028   ----------------------------------------
	BYTE	PATT
	 POIN2	DesertedChateau_2_001
// 029   ----------------------------------------
	BYTE	W96
// 030   ----------------------------------------
	BYTE	W96
// 031   ----------------------------------------
	BYTE	W96
// 032   ----------------------------------------
	BYTE	W96
// 033   ----------------------------------------
	BYTE	PATT
	 POIN2	DesertedChateau_2_004
// 034   ----------------------------------------
	BYTE	PATT
	 POIN2	DesertedChateau_2_005
// 035   ----------------------------------------
	BYTE	W21
	BYTE		EOT     Gn3 
	BYTE		TIE     Gn3   v100
	BYTE		N96     Bn3 
	BYTE	W72
	BYTE	W03
// 036   ----------------------------------------
	BYTE	PATT
	 POIN2	DesertedChateau_2_005
// 037   ----------------------------------------
	BYTE	W21
	BYTE		EOT     Gn3 
	BYTE	W36
	BYTE	W03
	BYTE	GoTo
	 POIN2	DesertedChateau_2_B1
DesertedChateau_2_B2:
	BYTE	W36
// 038   ----------------------------------------
	BYTE	W96
// 039   ----------------------------------------
	BYTE	FINE

//**************** Track 3 (Midi-Chn.3) ****************//

DesertedChateau_3:
	BYTE	KEYSH   DesertedChateau_key+0
// 000   ----------------------------------------
	BYTE		VOICE   0
	BYTE		VOL     36*DesertedChateau_mvl/mxv
	BYTE	W21
	BYTE		N02     En4   v100
	BYTE	W06
	BYTE		N02   
	BYTE	W06
	BYTE		N02   
	BYTE	W06
	BYTE		N02   
	BYTE	W06
	BYTE		N02   
	BYTE	W06
	BYTE		N02   
	BYTE	W06
	BYTE		N02   
	BYTE	W06
	BYTE		N02   
	BYTE	W06
	BYTE		N02   
	BYTE	W06
	BYTE		N02   
	BYTE	W06
	BYTE		N02   
	BYTE	W06
	BYTE		N02   
	BYTE	W06
	BYTE		N02   
	BYTE	W03
// 001   ----------------------------------------
DesertedChateau_3_001:
	BYTE	W03
	BYTE		N02     En4   v100
	BYTE	W06
	BYTE		N02   
	BYTE	W06
	BYTE		N02   
	BYTE	W06
	BYTE		        Dn4 
	BYTE	W06
	BYTE		N02   
	BYTE	W06
	BYTE		N02   
	BYTE	W06
	BYTE		N02   
	BYTE	W06
	BYTE		N02   
	BYTE	W06
	BYTE		N02   
	BYTE	W06
	BYTE		N02   
	BYTE	W06
	BYTE		N02   
	BYTE	W06
	BYTE		N02   
	BYTE	W06
	BYTE		N02   
	BYTE	W06
	BYTE		N02   
	BYTE	W06
	BYTE		N02   
	BYTE	W06
	BYTE		N02   
	BYTE	W03
	BYTE	PEND
// 002   ----------------------------------------
DesertedChateau_3_002:
	BYTE	W03
	BYTE		N02     Dn4   v100
	BYTE	W06
	BYTE		N02   
	BYTE	W06
	BYTE		N02   
	BYTE	W06
	BYTE		        En4 
	BYTE	W06
	BYTE		N02   
	BYTE	W06
	BYTE		N02   
	BYTE	W06
	BYTE		N02   
	BYTE	W06
	BYTE		N02   
	BYTE	W06
	BYTE		N02   
	BYTE	W06
	BYTE		N02   
	BYTE	W06
	BYTE		N02   
	BYTE	W06
	BYTE		N02   
	BYTE	W06
	BYTE		N02   
	BYTE	W06
	BYTE		N02   
	BYTE	W06
	BYTE		N02   
	BYTE	W06
	BYTE		N02   
	BYTE	W03
	BYTE	PEND
// 003   ----------------------------------------
	BYTE	PATT
	 POIN2	DesertedChateau_3_001
// 004   ----------------------------------------
	BYTE	PATT
	 POIN2	DesertedChateau_3_002
// 005   ----------------------------------------
DesertedChateau_3_005:
	BYTE	W03
	BYTE		N02     En4   v100
	BYTE	W06
	BYTE		N02   
	BYTE	W06
	BYTE		N02   
	BYTE	W06
	BYTE		N02   
	BYTE	W06
	BYTE		N02   
	BYTE	W06
	BYTE		N02   
	BYTE	W06
	BYTE		N02   
	BYTE	W06
	BYTE		N02   
	BYTE	W06
	BYTE		N02   
	BYTE	W06
	BYTE		N02   
	BYTE	W06
	BYTE		N02   
	BYTE	W06
	BYTE		N02   
	BYTE	W06
	BYTE		N02   
	BYTE	W06
	BYTE		N02   
	BYTE	W06
	BYTE		N02   
	BYTE	W06
	BYTE		N02   
	BYTE	W03
	BYTE	PEND
// 006   ----------------------------------------
	BYTE	PATT
	 POIN2	DesertedChateau_3_005
// 007   ----------------------------------------
	BYTE	PATT
	 POIN2	DesertedChateau_3_005
// 008   ----------------------------------------
DesertedChateau_3_008:
	BYTE	W03
	BYTE		N02     En4   v100
	BYTE	W06
	BYTE		N02   
	BYTE	W06
	BYTE		N02   
	BYTE	W06
	BYTE		N02   
	BYTE	W06
	BYTE		N02   
	BYTE	W06
	BYTE		N02   
	BYTE	W06
	BYTE		N02   
	BYTE	W06
	BYTE		N02   
	BYTE	W06
	BYTE		N02   
	BYTE	W06
	BYTE		N02   
	BYTE	W03
	BYTE	PEND
DesertedChateau_3_B1:
	BYTE	W03
	BYTE		N02     En4   v100
	BYTE	W06
	BYTE		N02   
	BYTE	W06
	BYTE		N02   
	BYTE	W06
	BYTE		N02   
	BYTE	W06
	BYTE		N02   
	BYTE	W06
	BYTE		N02   
	BYTE	W03
// 009   ----------------------------------------
	BYTE	PATT
	 POIN2	DesertedChateau_3_005
// 010   ----------------------------------------
	BYTE	PATT
	 POIN2	DesertedChateau_3_005
// 011   ----------------------------------------
	BYTE	PATT
	 POIN2	DesertedChateau_3_005
// 012   ----------------------------------------
	BYTE	PATT
	 POIN2	DesertedChateau_3_005
// 013   ----------------------------------------
	BYTE	PATT
	 POIN2	DesertedChateau_3_005
// 014   ----------------------------------------
	BYTE	PATT
	 POIN2	DesertedChateau_3_005
// 015   ----------------------------------------
	BYTE	PATT
	 POIN2	DesertedChateau_3_005
// 016   ----------------------------------------
	BYTE	PATT
	 POIN2	DesertedChateau_3_005
// 017   ----------------------------------------
	BYTE	PATT
	 POIN2	DesertedChateau_3_005
// 018   ----------------------------------------
	BYTE	PATT
	 POIN2	DesertedChateau_3_005
// 019   ----------------------------------------
	BYTE	PATT
	 POIN2	DesertedChateau_3_005
// 020   ----------------------------------------
	BYTE	PATT
	 POIN2	DesertedChateau_3_005
// 021   ----------------------------------------
	BYTE	PATT
	 POIN2	DesertedChateau_3_005
// 022   ----------------------------------------
	BYTE	PATT
	 POIN2	DesertedChateau_3_005
// 023   ----------------------------------------
	BYTE	PATT
	 POIN2	DesertedChateau_3_005
// 024   ----------------------------------------
	BYTE	PATT
	 POIN2	DesertedChateau_3_005
// 025   ----------------------------------------
	BYTE	PATT
	 POIN2	DesertedChateau_3_005
// 026   ----------------------------------------
	BYTE	PATT
	 POIN2	DesertedChateau_3_005
// 027   ----------------------------------------
	BYTE	PATT
	 POIN2	DesertedChateau_3_005
// 028   ----------------------------------------
	BYTE	PATT
	 POIN2	DesertedChateau_3_005
// 029   ----------------------------------------
	BYTE	PATT
	 POIN2	DesertedChateau_3_005
// 030   ----------------------------------------
	BYTE	PATT
	 POIN2	DesertedChateau_3_005
// 031   ----------------------------------------
	BYTE	PATT
	 POIN2	DesertedChateau_3_005
// 032   ----------------------------------------
	BYTE	PATT
	 POIN2	DesertedChateau_3_005
// 033   ----------------------------------------
	BYTE	PATT
	 POIN2	DesertedChateau_3_005
// 034   ----------------------------------------
	BYTE	PATT
	 POIN2	DesertedChateau_3_005
// 035   ----------------------------------------
	BYTE	PATT
	 POIN2	DesertedChateau_3_005
// 036   ----------------------------------------
	BYTE	PATT
	 POIN2	DesertedChateau_3_005
// 037   ----------------------------------------
	BYTE	PATT
	 POIN2	DesertedChateau_3_008
	BYTE	GoTo
	 POIN2	DesertedChateau_3_B1
DesertedChateau_3_B2:
	BYTE	W03
	BYTE		N02     En4   v100
	BYTE	W06
	BYTE		N02   
	BYTE	W06
	BYTE		N02   
	BYTE	W06
	BYTE		N02   
	BYTE	W06
	BYTE		N02   
	BYTE	W06
	BYTE		N02   
	BYTE	W03
// 038   ----------------------------------------
	BYTE	W03
	BYTE		N02   
	BYTE	W06
	BYTE		N02   
	BYTE	W06
	BYTE		N02   
	BYTE	W06
	BYTE		N02   
	BYTE	W06
	BYTE		N02   
	BYTE	W06
	BYTE		N02   
	BYTE	W06
	BYTE		N02   
	BYTE	W06
	BYTE		N02   
	BYTE	W06
	BYTE		N02   
	BYTE	W06
	BYTE		N02   
	BYTE	W06
	BYTE		N02   
	BYTE	W06
	BYTE		N02   
	BYTE	W06
	BYTE		N02   
	BYTE	W06
	BYTE		N02   
	BYTE	W06
	BYTE		N02   
	BYTE	W09
// 039   ----------------------------------------
	BYTE	FINE

//**************** Track 4 (Midi-Chn.4) ****************//

DesertedChateau_4:
	BYTE	KEYSH   DesertedChateau_key+0
// 000   ----------------------------------------
	BYTE		VOICE   40
	BYTE	W96
// 001   ----------------------------------------
	BYTE	W96
// 002   ----------------------------------------
	BYTE	W96
// 003   ----------------------------------------
	BYTE	W96
// 004   ----------------------------------------
	BYTE	W21
	BYTE		VOL     80*DesertedChateau_mvl/mxv
	BYTE		N23     En2   v100
	BYTE	W36
	BYTE		N15     Bn2 
	BYTE	W18
	BYTE		N11     As2 
	BYTE	W18
	BYTE		N07     An2 
	BYTE	W03
// 005   ----------------------------------------
DesertedChateau_4_005:
	BYTE	W09
	BYTE		N07     Gn2   v100
	BYTE	W12
	BYTE		        En2 
	BYTE	W12
	BYTE		N15   
	BYTE	W24
	BYTE		        Bn2 
	BYTE	W18
	BYTE		N11     As2 
	BYTE	W18
	BYTE		N07     An2 
	BYTE	W03
	BYTE	PEND
// 006   ----------------------------------------
DesertedChateau_4_006:
	BYTE	W09
	BYTE		N07     Gn2   v100
	BYTE	W12
	BYTE		N23     En2 
	BYTE	W36
	BYTE		N15     Bn2 
	BYTE	W18
	BYTE		N11     As2 
	BYTE	W18
	BYTE		N07     An2 
	BYTE	W03
	BYTE	PEND
// 007   ----------------------------------------
DesertedChateau_4_007:
	BYTE	W09
	BYTE		N07     Gn2   v100
	BYTE	W12
	BYTE		        En2 
	BYTE	W12
	BYTE		N15   
	BYTE	W24
	BYTE		        Bn2 
	BYTE	W18
	BYTE		N11     As2 
	BYTE	W18
	BYTE		N15     An2 
	BYTE	W03
	BYTE	PEND
// 008   ----------------------------------------
DesertedChateau_4_008:
	BYTE	W21
	BYTE		VOL     100*DesertedChateau_mvl/mxv
	BYTE		N07     En2   v127
	BYTE	W12
	BYTE		N15   
	BYTE	W24
	BYTE		        Bn2 
	BYTE	W03
	BYTE	PEND
DesertedChateau_4_B1:
	BYTE	W15
	BYTE		N11     As2   v127
	BYTE	W18
	BYTE		N07     An2 
	BYTE	W03
// 009   ----------------------------------------
	BYTE	W09
	BYTE		N03     Gn2 
	BYTE	W06
	BYTE		N03   
	BYTE	W06
	BYTE		VOL     80*DesertedChateau_mvl/mxv
	BYTE		N23     En2   v100
	BYTE	W36
	BYTE		N15   
	BYTE	W18
	BYTE		N11     Bn2 
	BYTE	W18
	BYTE		N07     Gn2 
	BYTE	W03
// 010   ----------------------------------------
DesertedChateau_4_010:
	BYTE	W09
	BYTE		N07     An2   v100
	BYTE	W12
	BYTE		        En2 
	BYTE	W12
	BYTE		N15   
	BYTE	W24
	BYTE		N15   
	BYTE	W18
	BYTE		N11     Bn2 
	BYTE	W18
	BYTE		N07     Gn2 
	BYTE	W03
	BYTE	PEND
// 011   ----------------------------------------
DesertedChateau_4_011:
	BYTE	W09
	BYTE		N07     An2   v100
	BYTE	W12
	BYTE		N23     En2 
	BYTE	W36
	BYTE		N15   
	BYTE	W18
	BYTE		N11     Bn2 
	BYTE	W18
	BYTE		N07     Gn2 
	BYTE	W03
	BYTE	PEND
// 012   ----------------------------------------
	BYTE	PATT
	 POIN2	DesertedChateau_4_010
// 013   ----------------------------------------
	BYTE	PATT
	 POIN2	DesertedChateau_4_011
// 014   ----------------------------------------
	BYTE	PATT
	 POIN2	DesertedChateau_4_010
// 015   ----------------------------------------
	BYTE	PATT
	 POIN2	DesertedChateau_4_011
// 016   ----------------------------------------
	BYTE	PATT
	 POIN2	DesertedChateau_4_010
// 017   ----------------------------------------
	BYTE	PATT
	 POIN2	DesertedChateau_4_010
// 018   ----------------------------------------
DesertedChateau_4_018:
	BYTE	W09
	BYTE		N07     An2   v100
	BYTE	W12
	BYTE		        En2 
	BYTE	W12
	BYTE		N15   
	BYTE	W24
	BYTE		N15   
	BYTE	W18
	BYTE		N11     Gn2 
	BYTE	W18
	BYTE		N15     An2 
	BYTE	W03
	BYTE	PEND
// 019   ----------------------------------------
	BYTE	W21
	BYTE		N07     En2 
	BYTE	W12
	BYTE		N15   
	BYTE	W24
	BYTE		N15   
	BYTE	W18
	BYTE		N11     Bn2 
	BYTE	W18
	BYTE		N07     Gn2 
	BYTE	W03
// 020   ----------------------------------------
	BYTE	PATT
	 POIN2	DesertedChateau_4_010
// 021   ----------------------------------------
	BYTE	PATT
	 POIN2	DesertedChateau_4_010
// 022   ----------------------------------------
	BYTE	PATT
	 POIN2	DesertedChateau_4_010
// 023   ----------------------------------------
	BYTE	PATT
	 POIN2	DesertedChateau_4_010
// 024   ----------------------------------------
	BYTE	PATT
	 POIN2	DesertedChateau_4_010
// 025   ----------------------------------------
	BYTE	PATT
	 POIN2	DesertedChateau_4_010
// 026   ----------------------------------------
	BYTE	PATT
	 POIN2	DesertedChateau_4_010
// 027   ----------------------------------------
	BYTE	PATT
	 POIN2	DesertedChateau_4_010
// 028   ----------------------------------------
	BYTE	PATT
	 POIN2	DesertedChateau_4_018
// 029   ----------------------------------------
	BYTE	W96
// 030   ----------------------------------------
	BYTE	W96
// 031   ----------------------------------------
	BYTE	W96
// 032   ----------------------------------------
	BYTE	W68
	BYTE	W01
	BYTE		VOL     100*DesertedChateau_mvl/mxv
	BYTE		N11     Bn2   v100
	BYTE	W18
	BYTE		N13     An2 
	BYTE	W09
// 033   ----------------------------------------
	BYTE	W09
	BYTE		N07     Gn2 
	BYTE	W12
	BYTE		VOL     80*DesertedChateau_mvl/mxv
	BYTE		N23     En2 
	BYTE	W36
	BYTE		N15     Bn2 
	BYTE	W18
	BYTE		N11     As2 
	BYTE	W18
	BYTE		N07     An2 
	BYTE	W03
// 034   ----------------------------------------
	BYTE	PATT
	 POIN2	DesertedChateau_4_005
// 035   ----------------------------------------
	BYTE	PATT
	 POIN2	DesertedChateau_4_006
// 036   ----------------------------------------
	BYTE	PATT
	 POIN2	DesertedChateau_4_007
// 037   ----------------------------------------
	BYTE	PATT
	 POIN2	DesertedChateau_4_008
	BYTE	GoTo
	 POIN2	DesertedChateau_4_B1
DesertedChateau_4_B2:
	BYTE	W15
	BYTE		N11     As2   v127
	BYTE	W18
	BYTE		N07     An2 
	BYTE	W03
// 038   ----------------------------------------
	BYTE	W09
	BYTE		N03     Gn2 
	BYTE	W06
	BYTE		N03   
	BYTE	W06
	BYTE		VOL     80*DesertedChateau_mvl/mxv
	BYTE		N23     En2   v100
	BYTE	W36
	BYTE		N15   
	BYTE	W18
	BYTE		N11     Bn2 
	BYTE	W21
// 039   ----------------------------------------
	BYTE	FINE

//**************** Track 5 (Midi-Chn.5) ****************//

DesertedChateau_5:
	BYTE	KEYSH   DesertedChateau_key+0
// 000   ----------------------------------------
	BYTE		VOICE   33
	BYTE	W21
	BYTE		VOL     100*DesertedChateau_mvl/mxv
	BYTE		N12     En2   v112
	BYTE	W12
	BYTE		N12   
	BYTE	W60
	BYTE		N06   
	BYTE	W03
// 001   ----------------------------------------
	BYTE	W03
	BYTE		N18     Gn2 
	BYTE	W18
	BYTE		N12     Dn2 
	BYTE	W12
	BYTE		N12   
	BYTE	W60
	BYTE	W03
// 002   ----------------------------------------
	BYTE	W21
	BYTE		        En2 
	BYTE	W12
	BYTE		N12   
	BYTE	W60
	BYTE		N06   
	BYTE	W03
// 003   ----------------------------------------
	BYTE	W03
	BYTE		N18     Gn2 
	BYTE	W18
	BYTE		N12     Dn2 
	BYTE	W12
	BYTE		N12   
	BYTE	W48
	BYTE		N06     Dn3 
	BYTE	W06
	BYTE		        En3 
	BYTE	W06
	BYTE		        As2 
	BYTE	W03
// 004   ----------------------------------------
	BYTE	W03
	BYTE		        An2 
	BYTE	W06
	BYTE		        Gn2 
	BYTE	W06
	BYTE		        Dn2 
	BYTE	W06
	BYTE		N12     En2 
	BYTE	W12
	BYTE		        Gn2 
	BYTE	W12
	BYTE		        An2 
	BYTE	W12
	BYTE		        Bn2 
	BYTE	W12
	BYTE		N06     En2 
	BYTE	W06
	BYTE		N18     As2 
	BYTE	W18
	BYTE		N12     An2 
	BYTE	W03
// 005   ----------------------------------------
DesertedChateau_5_005:
	BYTE	W09
	BYTE		N12     Gn2   v112
	BYTE	W12
	BYTE		        En2 
	BYTE	W12
	BYTE		        Gn2 
	BYTE	W12
	BYTE		        An2 
	BYTE	W12
	BYTE		        Bn2 
	BYTE	W12
	BYTE		N06     En2 
	BYTE	W06
	BYTE		N18     As2 
	BYTE	W18
	BYTE		N12     An2 
	BYTE	W03
	BYTE	PEND
// 006   ----------------------------------------
	BYTE	PATT
	 POIN2	DesertedChateau_5_005
// 007   ----------------------------------------
DesertedChateau_5_007:
	BYTE	W09
	BYTE		N12     Gn2   v112
	BYTE	W12
	BYTE		        En2 
	BYTE	W12
	BYTE		        Gn2 
	BYTE	W12
	BYTE		        An2 
	BYTE	W12
	BYTE		        Bn2 
	BYTE	W12
	BYTE		N06     En2 
	BYTE	W06
	BYTE		N18     As2 
	BYTE	W18
	BYTE		N24     An2 
	BYTE	W03
	BYTE	PEND
// 008   ----------------------------------------
DesertedChateau_5_008:
	BYTE	W21
	BYTE		N48     En2   v112
	BYTE	W36
	BYTE	W03
	BYTE	PEND
DesertedChateau_5_B1:
	BYTE	W36
// 009   ----------------------------------------
	BYTE	W21
	BYTE		N12     En2   v112
	BYTE	W12
	BYTE		        Gn2 
	BYTE	W12
	BYTE		        An2 
	BYTE	W12
	BYTE		        Bn2 
	BYTE	W12
	BYTE		N06     En2 
	BYTE	W06
	BYTE		N18   
	BYTE	W18
	BYTE		N12     Gn2 
	BYTE	W03
// 010   ----------------------------------------
DesertedChateau_5_010:
	BYTE	W09
	BYTE		N12     An2   v112
	BYTE	W12
	BYTE		        En2 
	BYTE	W12
	BYTE		        Gn2 
	BYTE	W12
	BYTE		        An2 
	BYTE	W12
	BYTE		        Bn2 
	BYTE	W12
	BYTE		N06     En2 
	BYTE	W06
	BYTE		N18   
	BYTE	W18
	BYTE		N12     Gn2 
	BYTE	W03
	BYTE	PEND
// 011   ----------------------------------------
	BYTE	PATT
	 POIN2	DesertedChateau_5_010
// 012   ----------------------------------------
DesertedChateau_5_012:
	BYTE	W09
	BYTE		N12     An2   v112
	BYTE	W12
	BYTE		        En2 
	BYTE	W12
	BYTE		        Gn2 
	BYTE	W12
	BYTE		        An2 
	BYTE	W12
	BYTE		        Bn2 
	BYTE	W18
	BYTE		N06     En2 
	BYTE	W06
	BYTE		        Dn3 
	BYTE	W06
	BYTE		        En3 
	BYTE	W06
	BYTE		        As2 
	BYTE	W03
	BYTE	PEND
// 013   ----------------------------------------
DesertedChateau_5_013:
	BYTE	W03
	BYTE		N06     An2   v112
	BYTE	W06
	BYTE		        Gn2 
	BYTE	W06
	BYTE		        An2 
	BYTE	W06
	BYTE		N12     En2 
	BYTE	W12
	BYTE		        Gn2 
	BYTE	W12
	BYTE		        An2 
	BYTE	W12
	BYTE		        Bn2 
	BYTE	W12
	BYTE		N06     En2 
	BYTE	W06
	BYTE		N18   
	BYTE	W18
	BYTE		N12     Gn2 
	BYTE	W03
	BYTE	PEND
// 014   ----------------------------------------
	BYTE	PATT
	 POIN2	DesertedChateau_5_010
// 015   ----------------------------------------
	BYTE	PATT
	 POIN2	DesertedChateau_5_010
// 016   ----------------------------------------
DesertedChateau_5_016:
	BYTE	W09
	BYTE		N12     An2   v112
	BYTE	W12
	BYTE		        En2 
	BYTE	W12
	BYTE		        Gn2 
	BYTE	W12
	BYTE		        An2 
	BYTE	W12
	BYTE		        Bn2 
	BYTE	W18
	BYTE		N06     En2 
	BYTE	W06
	BYTE		        En3 
	BYTE	W06
	BYTE		        En2 
	BYTE	W09
	BYTE	PEND
// 017   ----------------------------------------
DesertedChateau_5_017:
	BYTE	W03
	BYTE		N06     En2   v112
	BYTE	W06
	BYTE		        Dn2 
	BYTE	W06
	BYTE		        Ds2 
	BYTE	W06
	BYTE		N12     En2 
	BYTE	W12
	BYTE		        Gn2 
	BYTE	W12
	BYTE		        An2 
	BYTE	W12
	BYTE		        Bn2 
	BYTE	W12
	BYTE		N06     En2 
	BYTE	W06
	BYTE		N18   
	BYTE	W18
	BYTE		N12     Gn2 
	BYTE	W03
	BYTE	PEND
// 018   ----------------------------------------
	BYTE	W09
	BYTE		        An2 
	BYTE	W12
	BYTE		        En2 
	BYTE	W12
	BYTE		        Gn2 
	BYTE	W12
	BYTE		        An2 
	BYTE	W12
	BYTE		        Bn2 
	BYTE	W12
	BYTE		N06     En2 
	BYTE	W06
	BYTE		N18     Gn2 
	BYTE	W18
	BYTE		N12     An2 
	BYTE	W03
// 019   ----------------------------------------
	BYTE	W09
	BYTE		        Dn3 
	BYTE	W12
	BYTE		        En2 
	BYTE	W12
	BYTE		        Gn2 
	BYTE	W12
	BYTE		        An2 
	BYTE	W12
	BYTE		        Bn2 
	BYTE	W12
	BYTE		N06     En2 
	BYTE	W06
	BYTE		N18   
	BYTE	W18
	BYTE		N12     Gn2 
	BYTE	W03
// 020   ----------------------------------------
	BYTE	PATT
	 POIN2	DesertedChateau_5_010
// 021   ----------------------------------------
	BYTE	PATT
	 POIN2	DesertedChateau_5_010
// 022   ----------------------------------------
	BYTE	PATT
	 POIN2	DesertedChateau_5_012
// 023   ----------------------------------------
	BYTE	PATT
	 POIN2	DesertedChateau_5_013
// 024   ----------------------------------------
	BYTE	PATT
	 POIN2	DesertedChateau_5_010
// 025   ----------------------------------------
	BYTE	PATT
	 POIN2	DesertedChateau_5_010
// 026   ----------------------------------------
	BYTE	PATT
	 POIN2	DesertedChateau_5_016
// 027   ----------------------------------------
	BYTE	PATT
	 POIN2	DesertedChateau_5_017
// 028   ----------------------------------------
	BYTE	W09
	BYTE		N12     An2   v112
	BYTE	W12
	BYTE		        En2 
	BYTE	W12
	BYTE		        Gn2 
	BYTE	W12
	BYTE		        An2 
	BYTE	W12
	BYTE		        Bn2 
	BYTE	W12
	BYTE		N06     En2 
	BYTE	W06
	BYTE		N18     Bn2 
	BYTE	W18
	BYTE		N24     An2 
	BYTE	W03
// 029   ----------------------------------------
	BYTE	W21
	BYTE		VOL     120*DesertedChateau_mvl/mxv
	BYTE		N12     En2 
	BYTE	W12
	BYTE		N12   
	BYTE	W60
	BYTE	W03
// 030   ----------------------------------------
	BYTE	W96
// 031   ----------------------------------------
	BYTE	W21
	BYTE		N12   
	BYTE	W12
	BYTE		N12   
	BYTE	W60
	BYTE	W03
// 032   ----------------------------------------
	BYTE	W68
	BYTE	W01
	BYTE		VOL     100*DesertedChateau_mvl/mxv
	BYTE		N18     Bn2 
	BYTE	W18
	BYTE		        An2 
	BYTE	W09
// 033   ----------------------------------------
	BYTE	PATT
	 POIN2	DesertedChateau_5_005
// 034   ----------------------------------------
	BYTE	PATT
	 POIN2	DesertedChateau_5_005
// 035   ----------------------------------------
	BYTE	PATT
	 POIN2	DesertedChateau_5_005
// 036   ----------------------------------------
	BYTE	PATT
	 POIN2	DesertedChateau_5_007
// 037   ----------------------------------------
	BYTE	PATT
	 POIN2	DesertedChateau_5_008
	BYTE	GoTo
	 POIN2	DesertedChateau_5_B1
DesertedChateau_5_B2:
	BYTE	W36
// 038   ----------------------------------------
	BYTE	W21
	BYTE		N12     En2   v112
	BYTE	W12
	BYTE		        Gn2 
	BYTE	W12
	BYTE		        An2 
	BYTE	W12
	BYTE		        Bn2 
	BYTE	W12
	BYTE		N06     En2 
	BYTE	W06
	BYTE		N18   
	BYTE	W21
// 039   ----------------------------------------
	BYTE	FINE

//**************** Track 6 (Midi-Chn.6) ****************//

DesertedChateau_6:
	BYTE	KEYSH   DesertedChateau_key+0
// 000   ----------------------------------------
	BYTE		VOICE   127
	BYTE		VOL     79*DesertedChateau_mvl/mxv
	BYTE	W21
	BYTE		N15     Cn1   v127
	BYTE		N03     Gs1   v092
	BYTE	W06
	BYTE		N03   
	BYTE	W06
	BYTE		N03   
	BYTE		N15     An4   v100
	BYTE	W06
	BYTE		N03     Fs1   v092
	BYTE	W06
	BYTE		N15     Cn1   v127
	BYTE		N03     Gs1   v092
	BYTE	W06
	BYTE		        Fs1 
	BYTE	W06
	BYTE		        Gs1 
	BYTE		N19     An4   v100
	BYTE	W06
	BYTE		N03     Fs1   v092
	BYTE	W06
	BYTE		N15     Cn1   v127
	BYTE		N03     Gs1   v092
	BYTE	W06
	BYTE		N03   
	BYTE	W06
	BYTE		N03   
	BYTE		N15     An4   v100
	BYTE	W06
	BYTE		N03     Gs1   v092
	BYTE	W06
	BYTE		N15     Cn1   v127
	BYTE		N03     Gs1   v092
	BYTE	W03
// 001   ----------------------------------------
	BYTE	W03
	BYTE		        Fs1 
	BYTE	W06
	BYTE		        Gs1 
	BYTE		N07     An4   v100
	BYTE	W06
	BYTE		N03     Gs1   v092
	BYTE	W06
	BYTE		N15     Cn1   v127
	BYTE		N03     Gs1   v092
	BYTE	W06
	BYTE		N03   
	BYTE	W06
	BYTE		N03   
	BYTE	W06
	BYTE		        Fs1 
	BYTE	W06
	BYTE		N15     Cn1   v127
	BYTE		N03     Gs1   v092
	BYTE	W06
	BYTE		        Fs1 
	BYTE	W06
	BYTE		        Gs1 
	BYTE	W06
	BYTE		        Fs1 
	BYTE	W06
	BYTE		N15     Cn1   v127
	BYTE		N03     Gs1   v092
	BYTE	W06
	BYTE		N03   
	BYTE	W06
	BYTE		N03   
	BYTE	W06
	BYTE		N03   
	BYTE	W06
	BYTE		N15     Cn1   v127
	BYTE		N03     Gs1   v092
	BYTE	W03
// 002   ----------------------------------------
	BYTE	W03
	BYTE		        Fs1 
	BYTE	W06
	BYTE		        Gs1 
	BYTE	W06
	BYTE		N03   
	BYTE	W06
	BYTE		N15     Cn1   v127
	BYTE		N03     Gs1   v092
	BYTE	W06
	BYTE		N03   
	BYTE	W06
	BYTE		N03   
	BYTE		N15     An4   v100
	BYTE	W06
	BYTE		N03     Fs1   v092
	BYTE	W06
	BYTE		N15     Cn1   v127
	BYTE		N03     Gs1   v092
	BYTE	W06
	BYTE		        Fs1 
	BYTE	W06
	BYTE		        Gs1 
	BYTE		N19     An4   v100
	BYTE	W06
	BYTE		N03     Fs1   v092
	BYTE	W06
	BYTE		N15     Cn1   v127
	BYTE		N03     Gs1   v092
	BYTE	W06
	BYTE		N03   
	BYTE	W06
	BYTE		N03   
	BYTE		N15     An4   v100
	BYTE	W06
	BYTE		N03     Gs1   v092
	BYTE	W06
	BYTE		N15     Cn1   v127
	BYTE		N03     Gs1   v092
	BYTE	W03
// 003   ----------------------------------------
	BYTE	W03
	BYTE		        Fs1 
	BYTE	W06
	BYTE		        Gs1 
	BYTE		N07     An4   v100
	BYTE	W06
	BYTE		N03     Gs1   v092
	BYTE	W06
	BYTE		N15     Cn1   v127
	BYTE		N03     Gs1   v092
	BYTE	W06
	BYTE		N03   
	BYTE	W06
	BYTE		N03   
	BYTE	W06
	BYTE		        Fs1 
	BYTE	W06
	BYTE		N15     Cn1   v127
	BYTE		N03     Gs1   v092
	BYTE	W06
	BYTE		        Fs1 
	BYTE	W06
	BYTE		        Gs1 
	BYTE	W06
	BYTE		        Fs1 
	BYTE	W06
	BYTE		N15     Cn1   v127
	BYTE		N03     Dn1   v092
	BYTE		N03     En1   v060
	BYTE		N03     Gs1   v092
	BYTE	W06
	BYTE		        Dn1 
	BYTE		N03     En1   v060
	BYTE		N03     Gs1   v092
	BYTE	W06
	BYTE		        Dn1 
	BYTE		N03     En1   v060
	BYTE		N03     Gs1   v092
	BYTE	W06
	BYTE		        Dn1 
	BYTE		N03     En1   v060
	BYTE		N03     Gs1   v092
	BYTE	W06
	BYTE		N15     Cn1   v127
	BYTE		N03     Dn1   v092
	BYTE		N03     En1   v060
	BYTE		N03     Gs1   v092
	BYTE	W03
// 004   ----------------------------------------
	BYTE	W03
	BYTE		        Dn1 
	BYTE		N03     En1   v060
	BYTE		N03     Gs1   v092
	BYTE	W06
	BYTE		        Dn1 
	BYTE		N03     En1   v060
	BYTE		N03     Gs1   v092
	BYTE	W06
	BYTE		        Dn1 
	BYTE		N03     En1   v060
	BYTE		N03     Gs1   v092
	BYTE	W06
	BYTE		N15     Cn1   v127
	BYTE		N03     Gs1   v092
	BYTE	W06
	BYTE		N03   
	BYTE	W06
	BYTE		N03   
	BYTE	W06
	BYTE		        Fs1 
	BYTE	W06
	BYTE		N15     Cn1   v127
	BYTE		N03     Dn1   v092
	BYTE		N03     En1   v060
	BYTE		N03     Gs1   v092
	BYTE	W06
	BYTE		N03   
	BYTE	W06
	BYTE		        Fs1 
	BYTE		N03     Gs1 
	BYTE	W06
	BYTE		        Dn1 
	BYTE		N03     En1   v060
	BYTE		N03     Gs1   v092
	BYTE	W06
	BYTE		N15     Cn1   v127
	BYTE		N03     Gs1   v092
	BYTE	W06
	BYTE		        Dn1 
	BYTE		N03     En1   v060
	BYTE		N03     Gs1   v092
	BYTE	W06
	BYTE		        Fs1 
	BYTE		N03     Gs1 
	BYTE	W06
	BYTE		N03   
	BYTE	W06
	BYTE		N07     Cn1   v127
	BYTE		N03     Dn1   v092
	BYTE		N03     En1   v060
	BYTE		N03     Gs1   v092
	BYTE	W03
// 005   ----------------------------------------
DesertedChateau_6_005:
	BYTE	W03
	BYTE		N03     Gs1   v092
	BYTE	W06
	BYTE		N07     Cn1   v127
	BYTE		N03     Gs1   v092
	BYTE	W06
	BYTE		        Dn1 
	BYTE		N03     En1   v060
	BYTE	W06
	BYTE		N11     Cn1   v127
	BYTE		N03     Gs1   v092
	BYTE	W06
	BYTE		        Dn1 
	BYTE		N03     En1   v060
	BYTE		N03     Gs1   v092
	BYTE	W06
	BYTE		N03   
	BYTE	W06
	BYTE		        Cn1   v127
	BYTE		N03     Fs1   v092
	BYTE	W06
	BYTE		N15     Cn1   v127
	BYTE		N03     Dn1   v092
	BYTE		N03     En1   v060
	BYTE		N03     Gs1   v092
	BYTE	W06
	BYTE		N03   
	BYTE	W06
	BYTE		        Fs1 
	BYTE		N03     Gs1 
	BYTE	W06
	BYTE		        Dn1 
	BYTE		N03     En1   v060
	BYTE		N03     Gs1   v092
	BYTE	W06
	BYTE		N15     Cn1   v127
	BYTE		N03     Gs1   v092
	BYTE	W06
	BYTE		        Dn1 
	BYTE		N03     En1   v060
	BYTE		N03     Gs1   v092
	BYTE	W06
	BYTE		        Fs1 
	BYTE		N03     Gs1 
	BYTE	W06
	BYTE		N03   
	BYTE	W06
	BYTE		N15     Cn1   v127
	BYTE		N03     Dn1   v092
	BYTE		N03     En1   v060
	BYTE		N03     Gs1   v092
	BYTE	W03
	BYTE	PEND
// 006   ----------------------------------------
DesertedChateau_6_006:
	BYTE	W03
	BYTE		N03     Dn1   v092
	BYTE		N03     En1   v060
	BYTE		N03     Gs1   v092
	BYTE	W06
	BYTE		N02     Dn1 
	BYTE		N02     En1   v060
	BYTE		N02     Gs1   v092
	BYTE	W04
	BYTE		        Dn1 
	BYTE		N02     En1   v060
	BYTE	W04
	BYTE		        Dn1   v092
	BYTE		N02     En1   v060
	BYTE	W04
	BYTE		N15     Cn1   v127
	BYTE		N03     Gs1   v092
	BYTE	W06
	BYTE		N03   
	BYTE	W06
	BYTE		N03   
	BYTE	W06
	BYTE		        Fs1 
	BYTE	W06
	BYTE		N15     Cn1   v127
	BYTE		N03     Dn1   v092
	BYTE		N03     En1   v060
	BYTE		N03     Gs1   v092
	BYTE	W06
	BYTE		N03   
	BYTE	W06
	BYTE		        Fs1 
	BYTE		N03     Gs1 
	BYTE	W06
	BYTE		        Dn1 
	BYTE		N03     En1   v060
	BYTE		N03     Gs1   v092
	BYTE	W06
	BYTE		N15     Cn1   v127
	BYTE		N03     Gs1   v092
	BYTE	W06
	BYTE		        Dn1 
	BYTE		N03     En1   v060
	BYTE		N03     Gs1   v092
	BYTE	W06
	BYTE		        Fs1 
	BYTE		N03     Gs1 
	BYTE	W06
	BYTE		N03   
	BYTE	W06
	BYTE		N07     Cn1   v127
	BYTE		N03     Dn1   v092
	BYTE		N03     En1   v060
	BYTE		N03     Gs1   v092
	BYTE	W03
	BYTE	PEND
// 007   ----------------------------------------
	BYTE	PATT
	 POIN2	DesertedChateau_6_005
// 008   ----------------------------------------
DesertedChateau_6_008:
	BYTE	W03
	BYTE		N03     Dn1   v092
	BYTE		N03     En1   v060
	BYTE		N03     Gs1   v092
	BYTE	W06
	BYTE		        Dn1 
	BYTE		N03     En1   v060
	BYTE		N03     Gs1   v092
	BYTE	W06
	BYTE		        Dn1 
	BYTE		N03     En1   v060
	BYTE	W06
	BYTE		N11     Cn1   v127
	BYTE		N03     Gs1   v092
	BYTE	W06
	BYTE		        Fs1 
	BYTE		N03     Gs1 
	BYTE	W06
	BYTE		N03   
	BYTE	W06
	BYTE		        Cn1   v127
	BYTE		N03     Gs1   v092
	BYTE	W06
	BYTE		N15     Cn1   v127
	BYTE		N03     Gs1   v092
	BYTE	W06
	BYTE		N03   
	BYTE	W06
	BYTE		N03   
	BYTE	W03
	BYTE	PEND
DesertedChateau_6_B1:
	BYTE	W03
	BYTE		N03     Fs1   v092
	BYTE		N03     Gs1 
	BYTE	W06
	BYTE		N15     Cn1   v127
	BYTE		N03     Dn1   v092
	BYTE		N03     En1   v060
	BYTE		N03     Gs1   v092
	BYTE	W06
	BYTE		        Dn1 
	BYTE		N03     En1   v060
	BYTE		N03     Gs1   v092
	BYTE	W06
	BYTE		        Dn1 
	BYTE		N03     En1   v060
	BYTE		N03     Gs1   v092
	BYTE	W06
	BYTE		        Dn1 
	BYTE		N03     En1   v060
	BYTE		N03     Gs1   v092
	BYTE	W06
	BYTE		N07     Cn1   v127
	BYTE		N03     Dn1   v092
	BYTE		N03     En1   v060
	BYTE		N03     Gs1   v092
	BYTE	W03
// 009   ----------------------------------------
	BYTE	W03
	BYTE		        Dn1 
	BYTE		N03     En1   v060
	BYTE		N03     Gs1   v092
	BYTE	W06
	BYTE		N07     Cn1   v127
	BYTE		N03     Dn1   v092
	BYTE		N03     En1   v060
	BYTE		N03     Gs1   v092
	BYTE	W06
	BYTE		        Dn1 
	BYTE		N03     En1   v060
	BYTE		N03     Gs1   v092
	BYTE	W06
	BYTE		N15     Cn1   v127
	BYTE		N03     Gs1   v092
	BYTE	W06
	BYTE		N03   
	BYTE	W06
	BYTE		N03   
	BYTE	W06
	BYTE		        Fs1 
	BYTE	W06
	BYTE		N15     Cn1   v127
	BYTE		N03     Dn1   v092
	BYTE		N03     En1   v060
	BYTE		N03     Gs1   v092
	BYTE	W06
	BYTE		N03   
	BYTE	W06
	BYTE		        Fs1 
	BYTE		N03     Gs1 
	BYTE	W06
	BYTE		        Dn1 
	BYTE		N03     En1   v060
	BYTE		N03     Gs1   v092
	BYTE	W06
	BYTE		N15     Cn1   v127
	BYTE		N03     Gs1   v092
	BYTE	W06
	BYTE		        Dn1 
	BYTE		N03     En1   v060
	BYTE		N03     Gs1   v092
	BYTE	W06
	BYTE		        Fs1 
	BYTE		N03     Gs1 
	BYTE	W06
	BYTE		N03   
	BYTE	W06
	BYTE		N07     Cn1   v127
	BYTE		N03     Dn1   v092
	BYTE		N03     En1   v060
	BYTE		N03     Gs1   v092
	BYTE	W03
// 010   ----------------------------------------
DesertedChateau_6_010:
	BYTE	W03
	BYTE		N03     Gs1   v092
	BYTE	W06
	BYTE		N07     Cn1   v127
	BYTE		N03     Gs1   v092
	BYTE	W06
	BYTE		        Dn1 
	BYTE		N03     En1   v060
	BYTE	W06
	BYTE		N11     Cn1   v127
	BYTE		N03     Gs1   v092
	BYTE	W06
	BYTE		        Dn1 
	BYTE		N03     En1   v060
	BYTE		N03     Gs1   v092
	BYTE	W06
	BYTE		N03   
	BYTE	W06
	BYTE		        Cn1   v127
	BYTE		N03     Fs1   v092
	BYTE	W06
	BYTE		N15     Cn1   v127
	BYTE		N03     Dn1   v092
	BYTE		N03     En1   v060
	BYTE		N03     Gs1   v092
	BYTE	W06
	BYTE		N03   
	BYTE	W06
	BYTE		        Fs1 
	BYTE		N03     Gs1 
	BYTE	W06
	BYTE		        Dn1 
	BYTE		N03     En1   v060
	BYTE		N03     Gs1   v092
	BYTE	W06
	BYTE		N15     Cn1   v127
	BYTE		N03     Gs1   v092
	BYTE	W06
	BYTE		        Dn1 
	BYTE		N03     En1   v060
	BYTE		N03     Gs1   v092
	BYTE	W06
	BYTE		        Fs1 
	BYTE		N03     Gs1 
	BYTE	W06
	BYTE		N03   
	BYTE	W06
	BYTE		N07     Cn1   v127
	BYTE		N03     Dn1   v092
	BYTE		N03     En1   v060
	BYTE		N03     Gs1   v092
	BYTE	W03
	BYTE	PEND
// 011   ----------------------------------------
DesertedChateau_6_011:
	BYTE	W03
	BYTE		N03     Gs1   v092
	BYTE	W06
	BYTE		N07     Cn1   v127
	BYTE		N07     Gs1   v092
	BYTE	W12
	BYTE		N15     Cn1   v127
	BYTE		N03     Gs1   v092
	BYTE	W06
	BYTE		N03   
	BYTE	W06
	BYTE		N03   
	BYTE	W06
	BYTE		        Fs1 
	BYTE	W06
	BYTE		N15     Cn1   v127
	BYTE		N03     Dn1   v092
	BYTE		N03     En1   v060
	BYTE		N03     Gs1   v092
	BYTE	W06
	BYTE		N03   
	BYTE	W06
	BYTE		        Fs1 
	BYTE		N03     Gs1 
	BYTE	W06
	BYTE		        Dn1 
	BYTE		N03     En1   v060
	BYTE		N03     Gs1   v092
	BYTE	W06
	BYTE		N15     Cn1   v127
	BYTE		N03     Gs1   v092
	BYTE	W06
	BYTE		        Dn1 
	BYTE		N03     En1   v060
	BYTE		N03     Gs1   v092
	BYTE	W06
	BYTE		        Fs1 
	BYTE		N03     Gs1 
	BYTE	W06
	BYTE		N03   
	BYTE	W06
	BYTE		N07     Cn1   v127
	BYTE		N03     Dn1   v092
	BYTE		N03     En1   v060
	BYTE		N03     Gs1   v092
	BYTE	W03
	BYTE	PEND
// 012   ----------------------------------------
	BYTE	W03
	BYTE		N03   
	BYTE	W06
	BYTE		N07     Cn1   v127
	BYTE		N03     Gs1   v092
	BYTE	W06
	BYTE		        Dn1 
	BYTE		N03     En1   v060
	BYTE	W06
	BYTE		N11     Cn1   v127
	BYTE		N03     Gs1   v092
	BYTE	W06
	BYTE		        Dn1 
	BYTE		N03     En1   v060
	BYTE		N03     Gs1   v092
	BYTE	W06
	BYTE		N03   
	BYTE	W06
	BYTE		        Cn1   v127
	BYTE		N03     Fs1   v092
	BYTE	W06
	BYTE		N15     Cn1   v127
	BYTE		N03     Dn1   v092
	BYTE		N03     En1   v060
	BYTE		N03     Gs1   v092
	BYTE	W06
	BYTE		N03   
	BYTE	W06
	BYTE		        Fs1 
	BYTE		N03     Gs1 
	BYTE	W06
	BYTE		        Dn1 
	BYTE		N03     En1   v060
	BYTE		N03     Gs1   v092
	BYTE	W06
	BYTE		N15     Cn1   v127
	BYTE		N03     Gs1   v092
	BYTE	W06
	BYTE		        Dn1 
	BYTE		N03     En1   v060
	BYTE		N03     Gs1   v092
	BYTE	W06
	BYTE		        Fs1 
	BYTE		N03     Gs1 
	BYTE	W06
	BYTE		        En1   v060
	BYTE		N03     Gs1   v092
	BYTE	W06
	BYTE		N07     Cn1   v127
	BYTE		N03     Dn1   v092
	BYTE		N03     En1   v060
	BYTE		N03     Gs1   v092
	BYTE	W03
// 013   ----------------------------------------
DesertedChateau_6_013:
	BYTE	W03
	BYTE		N03     Dn1   v092
	BYTE		N03     En1   v060
	BYTE		N03     Gs1   v092
	BYTE	W06
	BYTE		N07     Cn1   v127
	BYTE		N03     Gs1   v092
	BYTE	W06
	BYTE		        Dn1 
	BYTE		N03     En1   v060
	BYTE	W06
	BYTE		N15     Cn1   v127
	BYTE		N03     Gs1   v092
	BYTE	W06
	BYTE		N03   
	BYTE	W06
	BYTE		N03   
	BYTE	W06
	BYTE		        Fs1 
	BYTE	W06
	BYTE		N15     Cn1   v127
	BYTE		N03     Dn1   v092
	BYTE		N03     En1   v060
	BYTE		N03     Gs1   v092
	BYTE	W06
	BYTE		N03   
	BYTE	W06
	BYTE		        Fs1 
	BYTE		N03     Gs1 
	BYTE	W06
	BYTE		        Dn1 
	BYTE		N03     En1   v060
	BYTE		N03     Gs1   v092
	BYTE	W06
	BYTE		N15     Cn1   v127
	BYTE		N03     Gs1   v092
	BYTE	W06
	BYTE		        Dn1 
	BYTE		N03     En1   v060
	BYTE		N03     Gs1   v092
	BYTE	W06
	BYTE		        Fs1 
	BYTE		N03     Gs1 
	BYTE	W06
	BYTE		N03   
	BYTE	W06
	BYTE		N07     Cn1   v127
	BYTE		N03     Dn1   v092
	BYTE		N03     En1   v060
	BYTE		N03     Gs1   v092
	BYTE	W03
	BYTE	PEND
// 014   ----------------------------------------
	BYTE	PATT
	 POIN2	DesertedChateau_6_010
// 015   ----------------------------------------
	BYTE	PATT
	 POIN2	DesertedChateau_6_011
// 016   ----------------------------------------
DesertedChateau_6_016:
	BYTE	W03
	BYTE		N03     Gs1   v092
	BYTE	W06
	BYTE		N07     Cn1   v127
	BYTE		N03     Gs1   v092
	BYTE	W06
	BYTE		        Dn1 
	BYTE		N03     En1   v060
	BYTE	W06
	BYTE		N11     Cn1   v127
	BYTE		N03     Gs1   v092
	BYTE	W06
	BYTE		        Dn1 
	BYTE		N03     En1   v060
	BYTE		N03     Gs1   v092
	BYTE	W06
	BYTE		N03   
	BYTE	W06
	BYTE		        Cn1   v127
	BYTE		N03     Fs1   v092
	BYTE	W06
	BYTE		N15     Cn1   v127
	BYTE		N03     Dn1   v092
	BYTE		N03     En1   v060
	BYTE		N03     Gs1   v092
	BYTE	W06
	BYTE		N03   
	BYTE	W06
	BYTE		        Fs1 
	BYTE		N03     Gs1 
	BYTE	W06
	BYTE		        Dn1 
	BYTE		N03     En1   v060
	BYTE		N03     Gs1   v092
	BYTE	W06
	BYTE		N15     Cn1   v127
	BYTE		N03     Gs1   v092
	BYTE	W06
	BYTE		        Dn1 
	BYTE		N03     En1   v060
	BYTE		N03     Gs1   v092
	BYTE	W06
	BYTE		        Fs1 
	BYTE		N03     Gs1 
	BYTE	W06
	BYTE		        Dn1 
	BYTE		N03     En1   v060
	BYTE		N03     Gs1   v092
	BYTE	W06
	BYTE		N07     Cn1   v127
	BYTE		N03     Gs1   v092
	BYTE	W03
	BYTE	PEND
// 017   ----------------------------------------
DesertedChateau_6_017:
	BYTE	W03
	BYTE		N03     Dn1   v092
	BYTE		N03     En1   v060
	BYTE		N03     Gs1   v092
	BYTE	W06
	BYTE		N07     Cn1   v127
	BYTE		N03     Dn1   v092
	BYTE		N03     En1   v060
	BYTE		N03     Gs1   v092
	BYTE	W06
	BYTE		        Dn1 
	BYTE		N03     En1   v060
	BYTE	W06
	BYTE		N15     Cn1   v127
	BYTE		N03     Gs1   v092
	BYTE	W06
	BYTE		N03   
	BYTE	W06
	BYTE		N03   
	BYTE	W06
	BYTE		        Fs1 
	BYTE	W06
	BYTE		N15     Cn1   v127
	BYTE		N03     Dn1   v092
	BYTE		N03     En1   v060
	BYTE		N03     Gs1   v092
	BYTE	W06
	BYTE		N03   
	BYTE	W06
	BYTE		        Fs1 
	BYTE		N03     Gs1 
	BYTE	W06
	BYTE		        Dn1 
	BYTE		N03     En1   v060
	BYTE		N03     Gs1   v092
	BYTE	W06
	BYTE		N15     Cn1   v127
	BYTE		N03     Gs1   v092
	BYTE	W06
	BYTE		        Dn1 
	BYTE		N03     En1   v060
	BYTE		N03     Gs1   v092
	BYTE	W06
	BYTE		        Fs1 
	BYTE		N03     Gs1 
	BYTE	W06
	BYTE		N03   
	BYTE	W06
	BYTE		N07     Cn1   v127
	BYTE		N03     Dn1   v092
	BYTE		N03     En1   v060
	BYTE		N03     Gs1   v092
	BYTE	W03
	BYTE	PEND
// 018   ----------------------------------------
	BYTE	W03
	BYTE		N03   
	BYTE	W06
	BYTE		N07     Cn1   v127
	BYTE		N03     Gs1   v092
	BYTE	W06
	BYTE		        Dn1 
	BYTE		N03     En1   v060
	BYTE	W06
	BYTE		N11     Cn1   v127
	BYTE		N03     Gs1   v092
	BYTE	W06
	BYTE		        Dn1 
	BYTE		N03     En1   v060
	BYTE		N03     Gs1   v092
	BYTE	W06
	BYTE		N03   
	BYTE	W06
	BYTE		        Cn1   v127
	BYTE		N03     Fs1   v092
	BYTE	W06
	BYTE		N15     Cn1   v127
	BYTE		N03     Dn1   v092
	BYTE		N03     En1   v060
	BYTE		N03     Gs1   v092
	BYTE	W06
	BYTE		N03   
	BYTE	W06
	BYTE		        Fs1 
	BYTE		N03     Gs1 
	BYTE	W06
	BYTE		        Dn1 
	BYTE		N03     En1   v060
	BYTE		N03     Gs1   v092
	BYTE	W06
	BYTE		        Cn1   v127
	BYTE		N03     Fs1   v092
	BYTE		N03     Gs1 
	BYTE	W06
	BYTE		N11     Cn1   v127
	BYTE		N03     Gs1   v092
	BYTE	W06
	BYTE		N03   
	BYTE	W06
	BYTE		        Fs1 
	BYTE		N03     Gs1 
	BYTE	W06
	BYTE		N07     Cn1   v127
	BYTE		N03     Gs1   v092
	BYTE	W03
// 019   ----------------------------------------
	BYTE	W03
	BYTE		N03   
	BYTE	W06
	BYTE		N02     Cn1   v127
	BYTE		N07     Gs1   v092
	BYTE	W04
	BYTE		N02     Cn1   v127
	BYTE	W04
	BYTE		N02   
	BYTE	W04
	BYTE		N15   
	BYTE		N03     Gs1   v092
	BYTE	W06
	BYTE		N03   
	BYTE	W06
	BYTE		N03   
	BYTE	W06
	BYTE		        Fs1 
	BYTE	W06
	BYTE		N15     Cn1   v127
	BYTE		N03     Dn1   v092
	BYTE		N03     En1   v060
	BYTE		N03     Gs1   v092
	BYTE	W06
	BYTE		N03   
	BYTE	W06
	BYTE		        Fs1 
	BYTE		N03     Gs1 
	BYTE	W06
	BYTE		        Dn1 
	BYTE		N03     En1   v060
	BYTE		N03     Gs1   v092
	BYTE	W06
	BYTE		N15     Cn1   v127
	BYTE		N03     Gs1   v092
	BYTE	W06
	BYTE		        Dn1 
	BYTE		N03     En1   v060
	BYTE		N03     Gs1   v092
	BYTE	W06
	BYTE		        Fs1 
	BYTE		N03     Gs1 
	BYTE	W06
	BYTE		N03   
	BYTE	W06
	BYTE		N07     Cn1   v127
	BYTE		N03     Dn1   v092
	BYTE		N03     En1   v060
	BYTE		N03     Gs1   v092
	BYTE	W03
// 020   ----------------------------------------
	BYTE	PATT
	 POIN2	DesertedChateau_6_010
// 021   ----------------------------------------
	BYTE	PATT
	 POIN2	DesertedChateau_6_011
// 022   ----------------------------------------
	BYTE	W03
	BYTE		N03     Gs1   v092
	BYTE	W06
	BYTE		N07     Cn1   v127
	BYTE		N03     Gs1   v092
	BYTE	W06
	BYTE		        Dn1 
	BYTE		N03     En1   v060
	BYTE	W06
	BYTE		N11     Cn1   v127
	BYTE		N03     Gs1   v092
	BYTE	W06
	BYTE		        Dn1 
	BYTE		N03     En1   v060
	BYTE		N03     Gs1   v092
	BYTE	W06
	BYTE		N03   
	BYTE	W06
	BYTE		        Cn1   v127
	BYTE		N03     Fs1   v092
	BYTE	W06
	BYTE		N15     Cn1   v127
	BYTE		N03     Dn1   v092
	BYTE		N03     En1   v060
	BYTE		N03     Gs1   v092
	BYTE	W06
	BYTE		N03   
	BYTE	W06
	BYTE		        Fs1 
	BYTE		N03     Gs1 
	BYTE	W06
	BYTE		        Dn1 
	BYTE		N03     En1   v060
	BYTE		N03     Gs1   v092
	BYTE	W06
	BYTE		N15     Cn1   v127
	BYTE		N03     Gs1   v092
	BYTE	W06
	BYTE		        Dn1 
	BYTE		N03     En1   v060
	BYTE		N03     Gs1   v092
	BYTE	W06
	BYTE		        Fs1 
	BYTE		N03     Gs1 
	BYTE	W06
	BYTE		        Dn1 
	BYTE		N03     En1   v060
	BYTE		N03     Gs1   v092
	BYTE	W06
	BYTE		N07     Cn1   v127
	BYTE		N03     Dn1   v092
	BYTE		N03     En1   v060
	BYTE		N03     Gs1   v092
	BYTE	W03
// 023   ----------------------------------------
	BYTE	PATT
	 POIN2	DesertedChateau_6_013
// 024   ----------------------------------------
	BYTE	PATT
	 POIN2	DesertedChateau_6_010
// 025   ----------------------------------------
	BYTE	PATT
	 POIN2	DesertedChateau_6_011
// 026   ----------------------------------------
	BYTE	PATT
	 POIN2	DesertedChateau_6_016
// 027   ----------------------------------------
	BYTE	PATT
	 POIN2	DesertedChateau_6_017
// 028   ----------------------------------------
	BYTE	W03
	BYTE		N03     Gs1   v092
	BYTE	W06
	BYTE		N07     Cn1   v127
	BYTE		N03     Gs1   v092
	BYTE	W06
	BYTE		        Dn1 
	BYTE		N03     En1   v060
	BYTE	W06
	BYTE		N15     Cn1   v127
	BYTE		N03     Gs1   v092
	BYTE	W06
	BYTE		N03   
	BYTE	W06
	BYTE		N03   
	BYTE	W06
	BYTE		        Fs1 
	BYTE	W06
	BYTE		N15     Cn1   v127
	BYTE		N03     Dn1   v092
	BYTE		N03     En1   v060
	BYTE		N03     Gs1   v092
	BYTE	W06
	BYTE		N03   
	BYTE	W06
	BYTE		        Fs1 
	BYTE		N03     Gs1 
	BYTE	W06
	BYTE		        Dn1 
	BYTE		N03     En1   v060
	BYTE		N03     Gs1   v092
	BYTE	W06
	BYTE		N15     Cn1   v127
	BYTE		N03     Fs1   v092
	BYTE		N03     Gs1 
	BYTE	W06
	BYTE		        Dn1 
	BYTE		N03     En1   v060
	BYTE		N03     Gs1   v092
	BYTE	W06
	BYTE		        Dn1 
	BYTE		N03     En1   v060
	BYTE		N03     Gs1   v092
	BYTE	W06
	BYTE		        Dn1 
	BYTE		N03     En1   v060
	BYTE		N03     Gs1   v092
	BYTE	W06
	BYTE		N07     Cn1   v127
	BYTE		N03     Dn1   v092
	BYTE		N03     En1   v060
	BYTE		N03     Gs1   v092
	BYTE	W03
// 029   ----------------------------------------
	BYTE	W03
	BYTE		        Dn1 
	BYTE		N03     En1   v060
	BYTE		N03     Gs1   v092
	BYTE	W06
	BYTE		N07     Cn1   v127
	BYTE		N03     Dn1   v092
	BYTE		N03     En1   v060
	BYTE		N03     Gs1   v092
	BYTE	W06
	BYTE		        Dn1 
	BYTE		N03     En1   v060
	BYTE	W06
	BYTE		N11     Cn1   v127
	BYTE		N03     Gs1   v092
	BYTE	W06
	BYTE		        Dn1 
	BYTE		N03     En1   v060
	BYTE		N03     Gs1   v092
	BYTE	W06
	BYTE		N03   
	BYTE	W06
	BYTE		        Cn1   v127
	BYTE		N03     Fs1   v092
	BYTE		N03     Gs1 
	BYTE	W06
	BYTE		N15     Cn1   v127
	BYTE		N03     Dn1   v092
	BYTE		N03     En1   v060
	BYTE		N03     Gs1   v092
	BYTE	W06
	BYTE		        Dn1 
	BYTE		N03     En1   v060
	BYTE		N03     Gs1   v092
	BYTE	W06
	BYTE		N03   
	BYTE	W06
	BYTE		        Dn1 
	BYTE		N03     En1   v060
	BYTE		N03     Gs1   v092
	BYTE	W06
	BYTE		N15     Cn1   v127
	BYTE		N03     Fs1   v092
	BYTE		N03     Gs1 
	BYTE	W06
	BYTE		        Dn1 
	BYTE		N03     En1   v060
	BYTE		N03     Gs1   v092
	BYTE	W06
	BYTE		N03   
	BYTE	W06
	BYTE		N03   
	BYTE	W06
	BYTE		N07     Cn1   v127
	BYTE		N03     Dn1   v092
	BYTE		N03     En1   v060
	BYTE		N03     Gs1   v092
	BYTE	W03
// 030   ----------------------------------------
DesertedChateau_6_030:
	BYTE	W03
	BYTE		N03     Gs1   v092
	BYTE	W06
	BYTE		N07     Cn1   v127
	BYTE		N03     Gs1   v092
	BYTE	W06
	BYTE		        Dn1 
	BYTE		N03     En1   v060
	BYTE		N03     Gs1   v092
	BYTE	W06
	BYTE		N11     Cn1   v127
	BYTE		N03     Gs1   v092
	BYTE	W06
	BYTE		        Dn1 
	BYTE		N03     En1   v060
	BYTE		N03     Gs1   v092
	BYTE	W06
	BYTE		N03   
	BYTE	W06
	BYTE		        Cn1   v127
	BYTE		N03     Fs1   v092
	BYTE		N03     Gs1 
	BYTE	W06
	BYTE		N15     Cn1   v127
	BYTE		N03     Dn1   v092
	BYTE		N03     En1   v060
	BYTE		N03     Gs1   v092
	BYTE	W06
	BYTE		        Dn1 
	BYTE		N03     En1   v060
	BYTE		N03     Gs1   v092
	BYTE	W06
	BYTE		N03   
	BYTE	W06
	BYTE		        Dn1 
	BYTE		N03     En1   v060
	BYTE		N03     Gs1   v092
	BYTE	W06
	BYTE		N15     Cn1   v127
	BYTE		N03     Fs1   v092
	BYTE		N03     Gs1 
	BYTE	W06
	BYTE		        Dn1 
	BYTE		N03     En1   v060
	BYTE		N03     Gs1   v092
	BYTE	W06
	BYTE		N03   
	BYTE	W06
	BYTE		N03   
	BYTE	W06
	BYTE		N07     Cn1   v127
	BYTE		N03     Dn1   v092
	BYTE		N03     En1   v060
	BYTE		N03     Gs1   v092
	BYTE	W03
	BYTE	PEND
// 031   ----------------------------------------
	BYTE	PATT
	 POIN2	DesertedChateau_6_030
// 032   ----------------------------------------
	BYTE	W03
	BYTE		N03     Gs1   v092
	BYTE	W06
	BYTE		N07     Cn1   v127
	BYTE		N03     Gs1   v092
	BYTE	W06
	BYTE		        Dn1 
	BYTE		N03     En1   v060
	BYTE		N03     Gs1   v092
	BYTE	W06
	BYTE		N11     Cn1   v127
	BYTE		N03     Gs1   v092
	BYTE	W06
	BYTE		        Dn1 
	BYTE		N03     En1   v060
	BYTE		N03     Gs1   v092
	BYTE	W06
	BYTE		N03   
	BYTE	W06
	BYTE		        Cn1   v127
	BYTE		N03     Fs1   v092
	BYTE		N03     Gs1 
	BYTE	W06
	BYTE		N15     Cn1   v127
	BYTE		N03     Dn1   v092
	BYTE		N03     En1   v060
	BYTE		N03     Gs1   v092
	BYTE	W06
	BYTE		        Dn1 
	BYTE		N03     En1   v060
	BYTE		N03     Gs1   v092
	BYTE	W06
	BYTE		N03   
	BYTE	W06
	BYTE		        Dn1 
	BYTE		N03     En1   v060
	BYTE		N03     Gs1   v092
	BYTE	W06
	BYTE		N11     Cn1   v127
	BYTE		N03     Fs1   v092
	BYTE		N03     Gs1 
	BYTE	W06
	BYTE		        Dn1 
	BYTE		N03     En1   v060
	BYTE		N03     Gs1   v092
	BYTE	W06
	BYTE		        Dn1 
	BYTE		N03     En1   v060
	BYTE		N03     Gs1   v092
	BYTE	W06
	BYTE		        Cn1   v127
	BYTE		N03     Fs1   v092
	BYTE		N03     Gs1 
	BYTE	W06
	BYTE		        Dn1 
	BYTE		N03     En1   v060
	BYTE		N03     Gs1   v092
	BYTE	W03
// 033   ----------------------------------------
	BYTE	W03
	BYTE		        Fs1 
	BYTE		N03     Gs1 
	BYTE	W06
	BYTE		N07     Cn1   v127
	BYTE		N03     Dn1   v092
	BYTE		N03     En1   v060
	BYTE		N03     Gs1   v092
	BYTE	W06
	BYTE		        Dn1 
	BYTE		N03     En1   v060
	BYTE		N03     Gs1   v092
	BYTE	W06
	BYTE		N15     Cn1   v127
	BYTE		N03     Gs1   v092
	BYTE	W06
	BYTE		N03   
	BYTE	W06
	BYTE		N03   
	BYTE	W06
	BYTE		        Fs1 
	BYTE	W06
	BYTE		N15     Cn1   v127
	BYTE		N03     Dn1   v092
	BYTE		N03     En1   v060
	BYTE		N03     Gs1   v092
	BYTE	W06
	BYTE		N03   
	BYTE	W06
	BYTE		        Fs1 
	BYTE		N03     Gs1 
	BYTE	W06
	BYTE		        Dn1 
	BYTE		N03     En1   v060
	BYTE		N03     Gs1   v092
	BYTE	W06
	BYTE		N15     Cn1   v127
	BYTE		N03     Gs1   v092
	BYTE	W06
	BYTE		        Dn1 
	BYTE		N03     En1   v060
	BYTE		N03     Gs1   v092
	BYTE	W06
	BYTE		        Fs1 
	BYTE		N03     Gs1 
	BYTE	W06
	BYTE		N03   
	BYTE	W06
	BYTE		N07     Cn1   v127
	BYTE		N03     Dn1   v092
	BYTE		N03     En1   v060
	BYTE		N03     Gs1   v092
	BYTE	W03
// 034   ----------------------------------------
	BYTE	PATT
	 POIN2	DesertedChateau_6_005
// 035   ----------------------------------------
	BYTE	PATT
	 POIN2	DesertedChateau_6_006
// 036   ----------------------------------------
	BYTE	PATT
	 POIN2	DesertedChateau_6_005
// 037   ----------------------------------------
	BYTE	PATT
	 POIN2	DesertedChateau_6_008
	BYTE	GoTo
	 POIN2	DesertedChateau_6_B1
DesertedChateau_6_B2:
	BYTE	W03
	BYTE		N03     Fs1   v092
	BYTE		N03     Gs1 
	BYTE	W06
	BYTE		N15     Cn1   v127
	BYTE		N03     Dn1   v092
	BYTE		N03     En1   v060
	BYTE		N03     Gs1   v092
	BYTE	W06
	BYTE		        Dn1 
	BYTE		N03     En1   v060
	BYTE		N03     Gs1   v092
	BYTE	W06
	BYTE		        Dn1 
	BYTE		N03     En1   v060
	BYTE		N03     Gs1   v092
	BYTE	W06
	BYTE		        Dn1 
	BYTE		N03     En1   v060
	BYTE		N03     Gs1   v092
	BYTE	W06
	BYTE		N07     Cn1   v127
	BYTE		N03     Dn1   v092
	BYTE		N03     En1   v060
	BYTE		N03     Gs1   v092
	BYTE	W03
// 038   ----------------------------------------
	BYTE	W03
	BYTE		        Dn1 
	BYTE		N03     En1   v060
	BYTE		N03     Gs1   v092
	BYTE	W06
	BYTE		N07     Cn1   v127
	BYTE		N03     Dn1   v092
	BYTE		N03     En1   v060
	BYTE		N03     Gs1   v092
	BYTE	W06
	BYTE		        Dn1 
	BYTE		N03     En1   v060
	BYTE		N03     Gs1   v092
	BYTE	W06
	BYTE		N15     Cn1   v127
	BYTE		N03     Gs1   v092
	BYTE	W06
	BYTE		N03   
	BYTE	W06
	BYTE		N03   
	BYTE	W06
	BYTE		        Fs1 
	BYTE	W06
	BYTE		N15     Cn1   v127
	BYTE		N03     Dn1   v092
	BYTE		N03     En1   v060
	BYTE		N03     Gs1   v092
	BYTE	W06
	BYTE		N03   
	BYTE	W06
	BYTE		        Fs1 
	BYTE		N03     Gs1 
	BYTE	W06
	BYTE		        Dn1 
	BYTE		N03     En1   v060
	BYTE		N03     Gs1   v092
	BYTE	W06
	BYTE		N15     Cn1   v127
	BYTE		N03     Gs1   v092
	BYTE	W06
	BYTE		        Dn1 
	BYTE		N03     En1   v060
	BYTE		N03     Gs1   v092
	BYTE	W06
	BYTE		        Fs1 
	BYTE		N03     Gs1 
	BYTE	W06
	BYTE		N03   
	BYTE	W09
// 039   ----------------------------------------
	BYTE	FINE

//**************** Track 7 (Midi-Chn.7) ****************//

DesertedChateau_7:
	BYTE	KEYSH   DesertedChateau_key+0
// 000   ----------------------------------------
	BYTE		VOICE   57
	BYTE		VOL     113*DesertedChateau_mvl/mxv
	BYTE	W96
// 001   ----------------------------------------
	BYTE	W96
// 002   ----------------------------------------
	BYTE	W96
// 003   ----------------------------------------
	BYTE	W96
// 004   ----------------------------------------
	BYTE	W96
// 005   ----------------------------------------
	BYTE	W96
// 006   ----------------------------------------
	BYTE	W96
// 007   ----------------------------------------
	BYTE	W96
// 008   ----------------------------------------
	BYTE	W60
DesertedChateau_7_B1:
	BYTE	W36
// 009   ----------------------------------------
	BYTE	W21
	BYTE		N24     Bn3   v100
	BYTE	W24
	BYTE		N12     Gn3 
	BYTE	W12
	BYTE		N36     An3 
	BYTE	W36
	BYTE		N24     Fs3 
	BYTE	W03
// 010   ----------------------------------------
	BYTE	W21
	BYTE		N12     Gn3 
	BYTE	W12
	BYTE		        Fs3 
	BYTE	W12
	BYTE		        Dn3 
	BYTE	W12
	BYTE		N96     Bn2 
	BYTE	W36
	BYTE	W03
// 011   ----------------------------------------
	BYTE	W56
	BYTE	W01
	BYTE		N06     Gn2 
	BYTE	W06
	BYTE		        An2 
	BYTE	W06
	BYTE		N36     Bn2 
	BYTE	W24
	BYTE	W03
// 012   ----------------------------------------
	BYTE	W09
	BYTE		N84     Dn3 
	BYTE	W84
	BYTE		N06     En3 
	BYTE	W03
// 013   ----------------------------------------
	BYTE	W03
	BYTE		        Fs3 
	BYTE	W06
	BYTE		        Gn3 
	BYTE	W06
	BYTE		        An3 
	BYTE	W06
	BYTE		N24     Bn3 
	BYTE	W24
	BYTE		N12     Gn3 
	BYTE	W12
	BYTE		N24     An3 
	BYTE	W24
	BYTE		        Dn4 
	BYTE	W15
// 014   ----------------------------------------
	BYTE	W09
	BYTE		N72     Fs3 
	BYTE	W72
	BYTE		N12     Dn3 
	BYTE	W12
	BYTE		        En3 
	BYTE	W03
// 015   ----------------------------------------
	BYTE	W09
	BYTE		        Fs3 
	BYTE	W12
	BYTE		N36   
	BYTE	W36
	BYTE		        An3 
	BYTE	W36
	BYTE		N60     Bn3 
	BYTE	W03
// 016   ----------------------------------------
	BYTE	W56
	BYTE	W01
	BYTE		N36     Fs3 
	BYTE	W36
	BYTE		N24     An3 
	BYTE	W03
// 017   ----------------------------------------
	BYTE	W21
	BYTE		N96     Gn3 
	BYTE	W72
	BYTE	W03
// 018   ----------------------------------------
	BYTE	W96
// 019   ----------------------------------------
DesertedChateau_7_019:
	BYTE	W32
	BYTE	W01
	BYTE		N12     Gn3   v100
	BYTE	W12
	BYTE		        An3 
	BYTE	W12
	BYTE		        Bn3 
	BYTE	W12
	BYTE		N36     En3 
	BYTE	W24
	BYTE	W03
	BYTE	PEND
// 020   ----------------------------------------
	BYTE	W09
	BYTE		N06   
	BYTE	W06
	BYTE		        Gn3 
	BYTE	W06
	BYTE		N12     Fs3 
	BYTE	W12
	BYTE		        Gn3 
	BYTE	W12
	BYTE		        An3 
	BYTE	W12
	BYTE		N06     Dn4 
	BYTE	W06
	BYTE		TIE     Bn3 
	BYTE	W32
	BYTE	W01
// 021   ----------------------------------------
	BYTE	W68
	BYTE	W01
	BYTE		EOT   
	BYTE		N06     Dn4 
	BYTE	W06
	BYTE		        Bn3 
	BYTE	W06
	BYTE		        En3 
	BYTE	W06
	BYTE		        An3 
	BYTE	W09
// 022   ----------------------------------------
	BYTE	W03
	BYTE		N12     Gn3 
	BYTE	W12
	BYTE		N06     Bn3 
	BYTE	W06
	BYTE		N24     An3 
	BYTE	W24
	BYTE		        Fs3 
	BYTE	W24
	BYTE		        Dn3 
	BYTE	W24
	BYTE		        Bn2 
	BYTE	W03
// 023   ----------------------------------------
	BYTE	PATT
	 POIN2	DesertedChateau_7_019
// 024   ----------------------------------------
	BYTE	W09
	BYTE		N06     En3   v100
	BYTE	W06
	BYTE		        Gn3 
	BYTE	W06
	BYTE		N12     Fs3 
	BYTE	W12
	BYTE		        Gn3 
	BYTE	W12
	BYTE		        An3 
	BYTE	W12
	BYTE		N06     Dn4 
	BYTE	W06
	BYTE		N30     Bn3 
	BYTE	W30
	BYTE		N12     Cn4 
	BYTE	W03
// 025   ----------------------------------------
	BYTE	W09
	BYTE		        Dn4 
	BYTE	W12
	BYTE		N36     En4 
	BYTE	W36
	BYTE		        An3 
	BYTE	W36
	BYTE		N24     Bn3 
	BYTE	W03
// 026   ----------------------------------------
	BYTE	W21
	BYTE		N36     Dn4 
	BYTE	W36
	BYTE		        An3 
	BYTE	W36
	BYTE		TIE     Bn3 
	BYTE	W03
// 027   ----------------------------------------
	BYTE	W96
// 028   ----------------------------------------
	BYTE	W21
	BYTE		EOT   
	BYTE	W72
	BYTE	W03
// 029   ----------------------------------------
	BYTE	W96
// 030   ----------------------------------------
	BYTE	W96
// 031   ----------------------------------------
	BYTE	W96
// 032   ----------------------------------------
	BYTE	W96
// 033   ----------------------------------------
	BYTE	W96
// 034   ----------------------------------------
	BYTE	W96
// 035   ----------------------------------------
	BYTE	W96
// 036   ----------------------------------------
	BYTE	W96
// 037   ----------------------------------------
	BYTE	W60
	BYTE	GoTo
	 POIN2	DesertedChateau_7_B1
DesertedChateau_7_B2:
	BYTE	W36
// 038   ----------------------------------------
	BYTE	W96
// 039   ----------------------------------------
	BYTE	FINE

//**************** Track 8 (Midi-Chn.8) ****************//

DesertedChateau_8:
	BYTE	KEYSH   DesertedChateau_key+0
// 000   ----------------------------------------
	BYTE		VOICE   60
	BYTE		VOL     112*DesertedChateau_mvl/mxv
	BYTE	W96
// 001   ----------------------------------------
	BYTE	W96
// 002   ----------------------------------------
	BYTE	W96
// 003   ----------------------------------------
	BYTE	W96
// 004   ----------------------------------------
	BYTE	W96
// 005   ----------------------------------------
	BYTE	W96
// 006   ----------------------------------------
	BYTE	W96
// 007   ----------------------------------------
	BYTE	W96
// 008   ----------------------------------------
	BYTE	W60
DesertedChateau_8_B1:
	BYTE	W36
// 009   ----------------------------------------
	BYTE	W96
// 010   ----------------------------------------
	BYTE	W96
// 011   ----------------------------------------
	BYTE	W96
// 012   ----------------------------------------
	BYTE	W96
// 013   ----------------------------------------
	BYTE	W03
	BYTE		N06     Fs3   v100
	BYTE	W06
	BYTE		        Gn3 
	BYTE	W06
	BYTE		        An3 
	BYTE	W06
	BYTE		N24     Bn3 
	BYTE	W24
	BYTE		N12     Gn3 
	BYTE	W12
	BYTE		N24     An3 
	BYTE	W24
	BYTE		        Dn4 
	BYTE	W15
// 014   ----------------------------------------
	BYTE	W09
	BYTE		N72     Fs3 
	BYTE	W72
	BYTE		N12     Dn3 
	BYTE	W12
	BYTE		        En3 
	BYTE	W03
// 015   ----------------------------------------
	BYTE	W09
	BYTE		        Fs3 
	BYTE	W12
	BYTE		N36   
	BYTE	W36
	BYTE		        An3 
	BYTE	W36
	BYTE		N60     Bn3 
	BYTE	W03
// 016   ----------------------------------------
	BYTE	W56
	BYTE	W01
	BYTE		N36     Fs3 
	BYTE	W36
	BYTE		N24     An3 
	BYTE	W03
// 017   ----------------------------------------
	BYTE	W21
	BYTE		N96     Gn3 
	BYTE	W72
	BYTE	W03
// 018   ----------------------------------------
	BYTE	W96
// 019   ----------------------------------------
DesertedChateau_8_019:
	BYTE	W32
	BYTE	W01
	BYTE		N12     Gn3   v100
	BYTE	W12
	BYTE		        An3 
	BYTE	W12
	BYTE		        Bn3 
	BYTE	W12
	BYTE		N36     En3 
	BYTE	W24
	BYTE	W03
	BYTE	PEND
// 020   ----------------------------------------
	BYTE	W09
	BYTE		N06   
	BYTE	W06
	BYTE		        Gn3 
	BYTE	W06
	BYTE		N12     Fs3 
	BYTE	W12
	BYTE		        Gn3 
	BYTE	W12
	BYTE		        An3 
	BYTE	W12
	BYTE		N06     Dn4 
	BYTE	W06
	BYTE		TIE     Bn3 
	BYTE	W32
	BYTE	W01
// 021   ----------------------------------------
	BYTE	W68
	BYTE	W01
	BYTE		EOT   
	BYTE		N06     Dn4 
	BYTE	W06
	BYTE		        Bn3 
	BYTE	W06
	BYTE		        En3 
	BYTE	W06
	BYTE		        An3 
	BYTE	W09
// 022   ----------------------------------------
	BYTE	W03
	BYTE		N12     Gn3 
	BYTE	W12
	BYTE		N06     Bn3 
	BYTE	W06
	BYTE		N24     An3 
	BYTE	W24
	BYTE		        Fs3 
	BYTE	W24
	BYTE		        Dn3 
	BYTE	W24
	BYTE		        Bn2 
	BYTE	W03
// 023   ----------------------------------------
	BYTE	PATT
	 POIN2	DesertedChateau_8_019
// 024   ----------------------------------------
	BYTE	W09
	BYTE		N06     En3   v100
	BYTE	W06
	BYTE		        Gn3 
	BYTE	W06
	BYTE		N12     Fs3 
	BYTE	W12
	BYTE		        Gn3 
	BYTE	W12
	BYTE		        An3 
	BYTE	W12
	BYTE		N06     Dn4 
	BYTE	W06
	BYTE		N30     Bn3 
	BYTE	W30
	BYTE		N12     Cn4 
	BYTE	W03
// 025   ----------------------------------------
	BYTE	W09
	BYTE		        Dn4 
	BYTE	W12
	BYTE		N36     En4 
	BYTE	W36
	BYTE		        An3 
	BYTE	W36
	BYTE		N24     Bn3 
	BYTE	W03
// 026   ----------------------------------------
	BYTE	W21
	BYTE		N36     Dn4 
	BYTE	W36
	BYTE		        An3 
	BYTE	W36
	BYTE		TIE     Bn3 
	BYTE	W03
// 027   ----------------------------------------
	BYTE	W96
// 028   ----------------------------------------
	BYTE	W21
	BYTE		EOT   
	BYTE	W72
	BYTE	W03
// 029   ----------------------------------------
	BYTE	W96
// 030   ----------------------------------------
	BYTE	W96
// 031   ----------------------------------------
	BYTE	W96
// 032   ----------------------------------------
	BYTE	W96
// 033   ----------------------------------------
	BYTE	W96
// 034   ----------------------------------------
	BYTE	W96
// 035   ----------------------------------------
	BYTE	W96
// 036   ----------------------------------------
	BYTE	W96
// 037   ----------------------------------------
	BYTE	W60
	BYTE	GoTo
	 POIN2	DesertedChateau_8_B1
DesertedChateau_8_B2:
	BYTE	W36
// 038   ----------------------------------------
	BYTE	W96
// 039   ----------------------------------------
	BYTE	FINE

//**************** Track 9 (Midi-Chn.9) ****************//

DesertedChateau_9:
	BYTE	KEYSH   DesertedChateau_key+0
// 000   ----------------------------------------
	BYTE		VOICE   52
	BYTE		VOL     127*DesertedChateau_mvl/mxv
	BYTE	W96
// 001   ----------------------------------------
	BYTE	W96
// 002   ----------------------------------------
	BYTE	W96
// 003   ----------------------------------------
	BYTE	W96
// 004   ----------------------------------------
	BYTE	W96
// 005   ----------------------------------------
	BYTE	W96
// 006   ----------------------------------------
	BYTE	W96
// 007   ----------------------------------------
	BYTE	W96
// 008   ----------------------------------------
	BYTE	W60
DesertedChateau_9_B1:
	BYTE	W36
// 009   ----------------------------------------
	BYTE	W96
// 010   ----------------------------------------
	BYTE	W96
// 011   ----------------------------------------
	BYTE	W96
// 012   ----------------------------------------
	BYTE	W96
// 013   ----------------------------------------
	BYTE	W96
// 014   ----------------------------------------
	BYTE	W96
// 015   ----------------------------------------
	BYTE	W96
// 016   ----------------------------------------
	BYTE	W96
// 017   ----------------------------------------
	BYTE	W96
// 018   ----------------------------------------
	BYTE	W96
// 019   ----------------------------------------
DesertedChateau_9_019:
	BYTE	W32
	BYTE	W01
	BYTE		N12     Gn3   v100
	BYTE	W12
	BYTE		        An3 
	BYTE	W12
	BYTE		        Bn3 
	BYTE	W12
	BYTE		N36     En3 
	BYTE	W24
	BYTE	W03
	BYTE	PEND
// 020   ----------------------------------------
	BYTE	W09
	BYTE		N06   
	BYTE	W06
	BYTE		        Gn3 
	BYTE	W06
	BYTE		N12     Fs3 
	BYTE	W12
	BYTE		        Gn3 
	BYTE	W12
	BYTE		        An3 
	BYTE	W12
	BYTE		N06     Dn4 
	BYTE	W06
	BYTE		TIE     Bn3 
	BYTE	W32
	BYTE	W01
// 021   ----------------------------------------
	BYTE	W68
	BYTE	W01
	BYTE		EOT   
	BYTE		N06     Dn4 
	BYTE	W06
	BYTE		        Bn3 
	BYTE	W06
	BYTE		        En3 
	BYTE	W06
	BYTE		        An3 
	BYTE	W09
// 022   ----------------------------------------
	BYTE	W03
	BYTE		N12     Gn3 
	BYTE	W12
	BYTE		N06     Bn3 
	BYTE	W06
	BYTE		N24     An3 
	BYTE	W24
	BYTE		        Fs3 
	BYTE	W24
	BYTE		        Dn3 
	BYTE	W24
	BYTE		        Bn2 
	BYTE	W03
// 023   ----------------------------------------
	BYTE	PATT
	 POIN2	DesertedChateau_9_019
// 024   ----------------------------------------
	BYTE	W09
	BYTE		N06     En3   v100
	BYTE	W06
	BYTE		        Gn3 
	BYTE	W06
	BYTE		N12     Fs3 
	BYTE	W12
	BYTE		        Gn3 
	BYTE	W12
	BYTE		        An3 
	BYTE	W12
	BYTE		N06     Dn4 
	BYTE	W06
	BYTE		N30     Bn3 
	BYTE	W30
	BYTE		N12     Cn4 
	BYTE	W03
// 025   ----------------------------------------
	BYTE	W09
	BYTE		        Dn4 
	BYTE	W12
	BYTE		N36     En4 
	BYTE	W36
	BYTE		        An3 
	BYTE	W36
	BYTE		N24     Bn3 
	BYTE	W03
// 026   ----------------------------------------
	BYTE	W21
	BYTE		N36     Dn4 
	BYTE	W36
	BYTE		        An3 
	BYTE	W36
	BYTE		TIE     Bn3 
	BYTE	W03
// 027   ----------------------------------------
	BYTE	W96
// 028   ----------------------------------------
	BYTE	W21
	BYTE		EOT   
	BYTE	W72
	BYTE	W03
// 029   ----------------------------------------
	BYTE	W96
// 030   ----------------------------------------
	BYTE	W96
// 031   ----------------------------------------
	BYTE	W96
// 032   ----------------------------------------
	BYTE	W96
// 033   ----------------------------------------
	BYTE	W96
// 034   ----------------------------------------
	BYTE	W96
// 035   ----------------------------------------
	BYTE	W96
// 036   ----------------------------------------
	BYTE	W96
// 037   ----------------------------------------
	BYTE	W60
	BYTE	GoTo
	 POIN2	DesertedChateau_9_B1
DesertedChateau_9_B2:
	BYTE	W36
// 038   ----------------------------------------
	BYTE	W96
// 039   ----------------------------------------
	BYTE	FINE

//**************** Track 10 (Midi-Chn.11) ****************//

DesertedChateau_10:
	BYTE	KEYSH   DesertedChateau_key+0
// 000   ----------------------------------------
	BYTE		VOICE   68
	BYTE		VOL     84*DesertedChateau_mvl/mxv
	BYTE	W96
// 001   ----------------------------------------
	BYTE	W96
// 002   ----------------------------------------
	BYTE	W96
// 003   ----------------------------------------
	BYTE	W96
// 004   ----------------------------------------
	BYTE	W21
	BYTE		N36     En3   v100
	BYTE	W36
	BYTE		N60     Bn3 
	BYTE	W36
	BYTE	W03
// 005   ----------------------------------------
DesertedChateau_10_005:
	BYTE	W21
	BYTE		N96     As3   v100
	BYTE	W72
	BYTE	W03
	BYTE	PEND
// 006   ----------------------------------------
DesertedChateau_10_006:
	BYTE	W21
	BYTE		N36     En3   v100
	BYTE	W36
	BYTE		N60     Bn3 
	BYTE	W36
	BYTE	W03
	BYTE	PEND
// 007   ----------------------------------------
	BYTE	PATT
	 POIN2	DesertedChateau_10_005
// 008   ----------------------------------------
	BYTE	W60
DesertedChateau_10_B1:
	BYTE	W36
// 009   ----------------------------------------
	BYTE	W96
// 010   ----------------------------------------
	BYTE	W96
// 011   ----------------------------------------
	BYTE	W96
// 012   ----------------------------------------
	BYTE	W96
// 013   ----------------------------------------
	BYTE	W96
// 014   ----------------------------------------
	BYTE	W96
// 015   ----------------------------------------
	BYTE	W96
// 016   ----------------------------------------
	BYTE	W96
// 017   ----------------------------------------
	BYTE	W96
// 018   ----------------------------------------
	BYTE	W96
// 019   ----------------------------------------
	BYTE	W96
// 020   ----------------------------------------
	BYTE	W96
// 021   ----------------------------------------
	BYTE	W96
// 022   ----------------------------------------
	BYTE	W96
// 023   ----------------------------------------
	BYTE	W96
// 024   ----------------------------------------
	BYTE	W96
// 025   ----------------------------------------
	BYTE	W96
// 026   ----------------------------------------
	BYTE	W96
// 027   ----------------------------------------
	BYTE	W96
// 028   ----------------------------------------
	BYTE	W96
// 029   ----------------------------------------
	BYTE	W96
// 030   ----------------------------------------
	BYTE	W96
// 031   ----------------------------------------
	BYTE	W96
// 032   ----------------------------------------
	BYTE	W96
// 033   ----------------------------------------
	BYTE	PATT
	 POIN2	DesertedChateau_10_006
// 034   ----------------------------------------
	BYTE	PATT
	 POIN2	DesertedChateau_10_005
// 035   ----------------------------------------
	BYTE	PATT
	 POIN2	DesertedChateau_10_006
// 036   ----------------------------------------
	BYTE	PATT
	 POIN2	DesertedChateau_10_005
// 037   ----------------------------------------
	BYTE	W60
	BYTE	GoTo
	 POIN2	DesertedChateau_10_B1
DesertedChateau_10_B2:
	BYTE	W36
// 038   ----------------------------------------
	BYTE	W96
// 039   ----------------------------------------
	BYTE	FINE

//******************************************************//
	ALIGN 4

DesertedChateau:
	BYTE	10	// NumTrks
	BYTE	0	// NumBlks
	BYTE	DesertedChateau_pri	// Priority
	BYTE	DesertedChateau_rev	// Reverb.

	POIN2	DesertedChateau_grp

	POIN2	DesertedChateau_1
	POIN2	DesertedChateau_2
	POIN2	DesertedChateau_3
	POIN2	DesertedChateau_4
	POIN2	DesertedChateau_5
	POIN2	DesertedChateau_6
	POIN2	DesertedChateau_7
	POIN2	DesertedChateau_8
	POIN2	DesertedChateau_9
	POIN2	DesertedChateau_10

	
