//Event file generated from Sappy .s format.
	#include "MPlayDef.event"

	#define	DurantSortie_grp  voicegroup000
	#define	DurantSortie_pri  0
	#define	DurantSortie_rev  0
	#define	DurantSortie_mvl  127
	#define	DurantSortie_key  0
	#define	DurantSortie_tbs  1
	#define	DurantSortie_exg  0
	#define	DurantSortie_cmp  1

	// .rodata
	//	DurantSortie
	ALIGN 4


//**************** Track 1 (Midi-Chn.0) ****************//

DurantSortie_001:
// 000   ----------------------------------------
 BYTE   KEYSH   DurantSortie_key+0
 BYTE   TEMPO   150*DurantSortie_tbs/2
 BYTE   VOICE   57
 BYTE   VOL   57*DurantSortie_mvl/mxv
 BYTE   PAN   c_v+26
 BYTE   W12
 BYTE   N12  En3  v088
 BYTE   N12  An3  v100
 BYTE   W18
 BYTE   N06  An3  v088
 BYTE   N06  En4  v100
 BYTE   W06
 BYTE   En4  v088
 BYTE   N06  An4  v100
 BYTE   W12
 BYTE   N12  En3  v088
 BYTE   N12  Gs3  v100
 BYTE   W18
 BYTE   N06  Gs3  v088
 BYTE   N06  En4  v100
 BYTE   W06
 BYTE   En4  v088
 BYTE   N06  Gs4  v100
 BYTE   W12
 BYTE   N12  Gn3  v088
 BYTE   N12  Cn4  v100
 BYTE   W12
// 001   ----------------------------------------
 BYTE   W06
 BYTE   N06  Cn4  v088
 BYTE   N06  Gn4  v100
 BYTE   W06
 BYTE   Gn4  v088
 BYTE   N06  Cn5  v100
 BYTE   W12
 BYTE   N12  Gn3  v088
 BYTE   N12  Bn3  v100
 BYTE   W18
 BYTE   N06  Bn3  v088
 BYTE   N06  Gn4  v100
 BYTE   W06
 BYTE   Gn4  v088
 BYTE   N06  Bn4  v100
 BYTE   W12
 BYTE   N12  An3  v088
 BYTE   N12  Dn4  v100
 BYTE   W18
 BYTE   N04  Dn4  v088
 BYTE   N04  An4  v100
 BYTE   W18
// 002   ----------------------------------------
 BYTE   W12
Label_0_010333AF:
 BYTE   W84
// 003   ----------------------------------------
 BYTE   W96
// 004   ----------------------------------------
 BYTE   W96
// 005   ----------------------------------------
 BYTE   W96
// 006   ----------------------------------------
 BYTE   W96
// 007   ----------------------------------------
 BYTE   W96
// 008   ----------------------------------------
 BYTE   W96
// 009   ----------------------------------------
 BYTE   W96
// 010   ----------------------------------------
 BYTE   W12
 BYTE   N12  Cn3  v088
 BYTE   N12  Fn3  v127
 BYTE   W12
 BYTE   N06  Fn3  v088
 BYTE   N06  An3  v127
 BYTE   W12
 BYTE   N12  Cn4  v088
 BYTE   N12  En4  v127
 BYTE   W12
 BYTE   N36  An3  v088
 BYTE   N36  Dn4  v127
 BYTE   W36
 BYTE   N24  Fn3  v088
 BYTE   N24  Cn4  v127
 BYTE   W12
// 011   ----------------------------------------
 BYTE   W12
 BYTE   N18  Fn3  v088
 BYTE   N18  Bn3  v127
 BYTE   W18
 BYTE   Fn3  v088
 BYTE   N18  Cn4  v127
 BYTE   W18
 BYTE   N12  An3  v088
 BYTE   N12  Dn4  v127
 BYTE   W12
 BYTE   N18  Dn4  v088
 BYTE   N18  Gn4  v127
 BYTE   W18
 BYTE   Cn4  v088
 BYTE   N18  Fn4  v127
 BYTE   W18
// 012   ----------------------------------------
 BYTE   N12  Dn3  v088
 BYTE   N12  An3  v127
 BYTE   W12
 BYTE   N48  An3  v088
 BYTE   N48  En4  v127
 BYTE   W48
 BYTE   N42  En3  v088
 BYTE   N42  An3  v127
 BYTE   W36
// 013   ----------------------------------------
 BYTE   W12
 BYTE   N18  An3  v088
 BYTE   N18  Dn4  v127
 BYTE   W18
 BYTE   An3  v088
 BYTE   N18  Cn4  v127
 BYTE   W18
 BYTE   N12  Gn3  v088
 BYTE   N12  Bn3  v127
 BYTE   W12
 BYTE   N18  En4  v088
 BYTE   N18  Gn4  v127
 BYTE   W18
 BYTE   N03  Dn4  v088
 BYTE   N03  Fs4  v127
 BYTE   W03
 BYTE   Cs4  v088
 BYTE   N03  Fn4  v127
 BYTE   W03
 BYTE   N24  Cn4  v088
 BYTE   N24  En4  v127
 BYTE   W12
// 014   ----------------------------------------
 BYTE   W12
 BYTE   N30  Dn4  v088
 BYTE   N30  Fn4  v127
 BYTE   W36
 BYTE   As3  v088
 BYTE   N30  Dn4  v127
 BYTE   W36
 BYTE   N06  Fn3  v088
 BYTE   N06  As3  v127
 BYTE   W06
 BYTE   As3  v088
 BYTE   N06  Dn4  v127
 BYTE   W06
// 015   ----------------------------------------
 BYTE   Cn4  v088
 BYTE   N06  En4  v127
 BYTE   W06
 BYTE   Dn4  v088
 BYTE   N06  Fn4  v127
 BYTE   W06
 BYTE   N18  Dn4  v088
 BYTE   N18  Gn4  v127
 BYTE   W18
 BYTE   Dn4  v088
 BYTE   N18  Fn4  v127
 BYTE   W18
 BYTE   N12  Bn3  v088
 BYTE   N12  En4  v127
 BYTE   W12
 BYTE   N24  Bn3  v088
 BYTE   N24  Dn4  v127
 BYTE   W24
 BYTE   Dn4  v088
 BYTE   N24  Fn4  v127
 BYTE   W12
// 016   ----------------------------------------
 BYTE   W12
 BYTE   N90  Bn3  v088
 BYTE   N90  En4  v127
 BYTE   W84
// 017   ----------------------------------------
 BYTE   W12
 BYTE   N12  Bn3  v088
 BYTE   N12  En4  v127
 BYTE   W18
 BYTE   N06  Bn3  v088
 BYTE   N06  En4  v127
 BYTE   W18
 BYTE   Bn3  v088
 BYTE   N06  En4  v127
 BYTE   W06
 BYTE   Bn3  v088
 BYTE   N06  En4  v127
 BYTE   W06
 BYTE   N12  En4  v088
 BYTE   N12  Bn4  v127
 BYTE   W18
 BYTE   N04  En4  v088
 BYTE   N04  Bn4  v127
 BYTE   W18
// 018   ----------------------------------------
 BYTE   W12
 BYTE   GoTo
  POIN2 Label_0_010333AF
 BYTE   FINE

//**************** Track 2 (Midi-Chn.1) ****************//

DurantSortie_002:
// 000   ----------------------------------------
 BYTE   KEYSH   DurantSortie_key+0
 BYTE   VOICE   65
 BYTE   VOL   51*DurantSortie_mvl/mxv
 BYTE   PAN   c_v+26
 BYTE   W18
 BYTE   N12  An3  v072
 BYTE   W18
 BYTE   N06  En4
 BYTE   W06
 BYTE   An4
 BYTE   W12
 BYTE   N12  Gs3
 BYTE   W18
 BYTE   N06  En4
 BYTE   W06
 BYTE   Gs4
 BYTE   W12
 BYTE   N12  Cn4
 BYTE   W06
// 001   ----------------------------------------
 BYTE   W12
 BYTE   N06  Gn4
 BYTE   W06
 BYTE   Cn5
 BYTE   W12
 BYTE   N12  Bn3
 BYTE   W18
 BYTE   N06  Gn4
 BYTE   W06
 BYTE   Bn4
 BYTE   W12
 BYTE   N12  Dn4
 BYTE   W24
 BYTE   N06  An3
 BYTE   W06
// 002   ----------------------------------------
Label_1_010334F5:
 BYTE   N06  Bn3  v072
 BYTE   W06
 BYTE   Cn4
 BYTE   W06
 BYTE   PEND 
Label_1_010334FC:
 BYTE   N06  Dn4  v072
 BYTE   W06
 BYTE   N36  En4
 BYTE   W36
 BYTE   N48  An3
 BYTE   W42
// 003   ----------------------------------------
 BYTE   W06
 BYTE   N36  Dn4
 BYTE   W36
 BYTE   N24  Cn4
 BYTE   W24
 BYTE   N18  Bn3
 BYTE   W18
 BYTE   Cn4
 BYTE   W12
// 004   ----------------------------------------
 BYTE   W06
 BYTE   N12  An3
 BYTE   W12
 BYTE   N48  Gn3
 BYTE   W48
 BYTE   N36  Dn4
 BYTE   W30
// 005   ----------------------------------------
 BYTE   W06
 BYTE   Fn4
 BYTE   W36
 BYTE   N24  En4
 BYTE   W24
 BYTE   Dn4
 BYTE   W24
 BYTE   Cn4
 BYTE   W06
// 006   ----------------------------------------
 BYTE   W18
 BYTE   N36  An3
 BYTE   W36
 BYTE   Bn3
 BYTE   W36
 BYTE   N12  Cn4
 BYTE   W06
// 007   ----------------------------------------
 BYTE   W06
 BYTE   N36  En4
 BYTE   W36
 BYTE   N24  Dn4
 BYTE   W24
 BYTE   N18  Bn3
 BYTE   W18
 BYTE   Cn4
 BYTE   W12
// 008   ----------------------------------------
 BYTE   W06
 BYTE   N12  Gn4
 BYTE   W12
 BYTE   N60
 BYTE   W60
 BYTE   N12
 BYTE   W12
 BYTE   Dn4
 BYTE   W06
// 009   ----------------------------------------
 BYTE   W06
 BYTE   N60  An4
 BYTE   W60
 BYTE   N06  Bn4
 BYTE   W06
 BYTE   An4
 BYTE   W06
 BYTE   Gs4
 BYTE   W06
 BYTE   En4
 BYTE   W06
 BYTE   Bn3
 BYTE   W06
// 010   ----------------------------------------
 BYTE   An3
 BYTE   W06
 BYTE   Gs3
 BYTE   W06
 BYTE   N04  En3
 BYTE   W06
 BYTE   N12  Fn3
 BYTE   W12
 BYTE   N06  An3
 BYTE   W12
 BYTE   N12  En4
 BYTE   W12
 BYTE   N30  Dn4
 BYTE   W36
 BYTE   N24  Cn4
 BYTE   W06
// 011   ----------------------------------------
 BYTE   W18
 BYTE   N18  Bn3
 BYTE   W18
 BYTE   Cn4
 BYTE   W18
 BYTE   N12  Dn4
 BYTE   W12
 BYTE   N18  Gn4
 BYTE   W18
 BYTE   Fn4
 BYTE   W12
// 012   ----------------------------------------
 BYTE   W06
 BYTE   N12  An3
 BYTE   W12
 BYTE   N48  En4
 BYTE   W48
 BYTE   N42  An3
 BYTE   W30
// 013   ----------------------------------------
 BYTE   W18
 BYTE   N18  Dn4
 BYTE   W18
 BYTE   Cn4
 BYTE   W18
 BYTE   N12  Bn3
 BYTE   W12
 BYTE   N18  Gn4
 BYTE   W18
 BYTE   N03  Fs4
 BYTE   W03
 BYTE   Fn4
 BYTE   W03
 BYTE   N24  En4
 BYTE   W06
// 014   ----------------------------------------
 BYTE   W18
 BYTE   N30  Fn4
 BYTE   W36
 BYTE   Dn4
 BYTE   W36
 BYTE   N06  As3
 BYTE   W06
// 015   ----------------------------------------
 BYTE   Dn4
 BYTE   W06
 BYTE   En4
 BYTE   W06
 BYTE   Fn4
 BYTE   W06
 BYTE   N18  Gn4
 BYTE   W18
 BYTE   Fn4
 BYTE   W18
 BYTE   N12  En4
 BYTE   W12
 BYTE   N24  Dn4
 BYTE   W24
 BYTE   Fn4
 BYTE   W06
// 016   ----------------------------------------
 BYTE   W18
 BYTE   N90  En4
 BYTE   W78
// 017   ----------------------------------------
 BYTE   W18
 BYTE   N12
 BYTE   W18
 BYTE   N06
 BYTE   W18
 BYTE   N06
 BYTE   W06
 BYTE   N06
 BYTE   W06
 BYTE   N12  Bn4
 BYTE   W24
 BYTE   N06  An3
 BYTE   W06
 BYTE   PATT
  POIN2 Label_1_010334F5
// 018   ----------------------------------------
 BYTE   GoTo
  POIN2 Label_1_010334FC
 BYTE   FINE

//**************** Track 3 (Midi-Chn.2) ****************//

DurantSortie_003:
// 000   ----------------------------------------
 BYTE   KEYSH   DurantSortie_key+0
 BYTE   VOICE   41
 BYTE   VOL   51*DurantSortie_mvl/mxv
 BYTE   W12
 BYTE   N06  En3  v096
 BYTE   W06
 BYTE   An3
 BYTE   W06
 BYTE   En4
 BYTE   W06
 BYTE   An4
 BYTE   W06
 BYTE   En5
 BYTE   W06
 BYTE   An4
 BYTE   W06
 BYTE   En3
 BYTE   W06
 BYTE   Gs3
 BYTE   W06
 BYTE   En4
 BYTE   W06
 BYTE   Gs4
 BYTE   W06
 BYTE   En5
 BYTE   W06
 BYTE   Gs4
 BYTE   W06
 BYTE   Gn3
 BYTE   W06
 BYTE   Cn4
 BYTE   W06
// 001   ----------------------------------------
 BYTE   Gn4
 BYTE   W06
 BYTE   Cn5
 BYTE   W06
 BYTE   Gn5
 BYTE   W06
 BYTE   Cn5
 BYTE   W06
 BYTE   Gn4
 BYTE   W06
 BYTE   Bn3
 BYTE   W06
 BYTE   Gn3
 BYTE   W06
 BYTE   Bn2
 BYTE   W06
 BYTE   Gn3
 BYTE   W06
 BYTE   Bn3
 BYTE   W06
 BYTE   An3
 BYTE   W06
 BYTE   Dn4
 BYTE   W06
 BYTE   An4
 BYTE   W06
 BYTE   Dn5
 BYTE   W06
 BYTE   En3
 BYTE   W06
 BYTE   Gn3
 BYTE   W06
// 002   ----------------------------------------
 BYTE   An3
 BYTE   W06
 BYTE   Bn3
 BYTE   W06
Label_2_01033619:
 BYTE   N36  Cn4  v096
 BYTE   W36
 BYTE   N48  En3  v088
 BYTE   W48
// 003   ----------------------------------------
 BYTE   N36  An3
 BYTE   W36
 BYTE   N24
 BYTE   W24
 BYTE   N18  Gn3
 BYTE   W18
 BYTE   An3
 BYTE   W18
// 004   ----------------------------------------
 BYTE   N12  Dn3
 BYTE   W12
 BYTE   N48
 BYTE   W48
 BYTE   N36  Gn3
 BYTE   W36
// 005   ----------------------------------------
 BYTE   Cn4
 BYTE   W36
 BYTE   N24  Gn3
 BYTE   W24
 BYTE   N24
 BYTE   W24
 BYTE   N24
 BYTE   W12
// 006   ----------------------------------------
 BYTE   W12
 BYTE   N36  En3
 BYTE   W36
 BYTE   Gn3
 BYTE   W36
 BYTE   N12  An3
 BYTE   W12
// 007   ----------------------------------------
 BYTE   N36  Cn4
 BYTE   W36
 BYTE   N24  Bn3
 BYTE   W24
 BYTE   N18  Gn3
 BYTE   W18
 BYTE   An3
 BYTE   W18
// 008   ----------------------------------------
 BYTE   N12  Cn4
 BYTE   W12
 BYTE   N60  Dn4
 BYTE   W60
 BYTE   N12
 BYTE   W12
 BYTE   Gn3
 BYTE   W12
// 009   ----------------------------------------
 BYTE   N54  Dn3
 BYTE   W96
// 010   ----------------------------------------
 BYTE   W12
 BYTE   TIE  Fn5  v068
 BYTE   W84
// 011   ----------------------------------------
 BYTE   W96
// 012   ----------------------------------------
 BYTE   W12
 BYTE   EOT
 BYTE   TIE  En5
 BYTE   W84
// 013   ----------------------------------------
 BYTE   W96
// 014   ----------------------------------------
 BYTE   W12
 BYTE   EOT
 BYTE   N96  Dn5
 BYTE   W84
// 015   ----------------------------------------
 BYTE   W12
 BYTE   N96
 BYTE   W84
// 016   ----------------------------------------
 BYTE   W12
 BYTE   En5
 BYTE   W84
// 017   ----------------------------------------
 BYTE   W80
 BYTE   W02
 BYTE   N06  En3  v088
 BYTE   W06
 BYTE   Gn3
 BYTE   W06
 BYTE   An3
 BYTE   W02
// 018   ----------------------------------------
 BYTE   W04
 BYTE   Bn3
 BYTE   W08
 BYTE   GoTo
  POIN2 Label_2_01033619
 BYTE   FINE

//**************** Track 4 (Midi-Chn.3) ****************//

DurantSortie_004:
// 000   ----------------------------------------
 BYTE   KEYSH   DurantSortie_key+0
 BYTE   VOICE   0
 BYTE   VOL   38*DurantSortie_mvl/mxv
 BYTE   PAN   c_v+26
 BYTE   W12
 BYTE   N36  An3  v127
 BYTE   W36
 BYTE   Gs3
 BYTE   W36
 BYTE   Cn4
 BYTE   W12
// 001   ----------------------------------------
 BYTE   W24
 BYTE   Bn3
 BYTE   W36
 BYTE   N12  Dn4
 BYTE   W12
 BYTE   N03  Dn4  v064
 BYTE   W06
 BYTE   N06  Dn4  v127
 BYTE   W06
 BYTE   N03  Dn4  v064
 BYTE   W12
// 002   ----------------------------------------
 BYTE   W12
Label_3_010336AC:
 BYTE   W12
 BYTE   N06  Cn4  v127
 BYTE   W06
 BYTE   N03  Cn4  v064
 BYTE   W12
 BYTE   N06  Cn4  v127
 BYTE   W06
 BYTE   N03  Cn4  v064
 BYTE   W12
 BYTE   N06  Cn4  v127
 BYTE   W06
 BYTE   N03  Cn4  v064
 BYTE   W12
 BYTE   N06  Bn3  v127
 BYTE   W06
 BYTE   N03  Bn3  v064
 BYTE   W12
// 003   ----------------------------------------
Label_3_010336CD:
 BYTE   N12  Cn4  v127
 BYTE   W12
 BYTE   N03  Cn4  v064
 BYTE   W12
 BYTE   N06  Cn4  v127
 BYTE   W06
 BYTE   N03  Cn4  v064
 BYTE   W12
 BYTE   N06  Cn4  v127
 BYTE   W06
 BYTE   N03  Cn4  v064
 BYTE   W12
 BYTE   N06  Cn4  v127
 BYTE   W06
 BYTE   N03  Cn4  v064
 BYTE   W12
 BYTE   N06  Cn4  v127
 BYTE   W06
 BYTE   N03  Cn4  v064
 BYTE   W12
 BYTE   PEND 
// 004   ----------------------------------------
Label_3_010336F6:
 BYTE   N06  Cn4  v127
 BYTE   W06
 BYTE   N03  Cn4  v064
 BYTE   W18
 BYTE   N06  Bn3  v127
 BYTE   W06
 BYTE   N03  Bn3  v064
 BYTE   W12
 BYTE   N06  Bn3  v127
 BYTE   W06
 BYTE   N03  Bn3  v064
 BYTE   W12
 BYTE   N06  Bn3  v127
 BYTE   W06
 BYTE   N03  Bn3  v064
 BYTE   W12
 BYTE   N06  Bn3  v127
 BYTE   W06
 BYTE   N03  Bn3  v064
 BYTE   W12
 BYTE   PEND 
// 005   ----------------------------------------
 BYTE   N12  Cn4  v127
 BYTE   W12
 BYTE   N03  Cn4  v064
 BYTE   W12
 BYTE   N06  Cn4  v127
 BYTE   W06
 BYTE   N03  Cn4  v064
 BYTE   W12
 BYTE   N06  Cn4  v127
 BYTE   W06
 BYTE   N03  Cn4  v064
 BYTE   W12
 BYTE   N06  Bn3  v127
 BYTE   W06
 BYTE   N03  Bn3  v064
 BYTE   W12
 BYTE   N06  Bn3  v127
 BYTE   W06
 BYTE   N03  Bn3  v064
 BYTE   W12
// 006   ----------------------------------------
 BYTE   N06  Bn3  v127
 BYTE   W06
 BYTE   N03  Bn3  v064
 BYTE   W18
 BYTE   N06  Cn4  v127
 BYTE   W06
 BYTE   N03  Cn4  v064
 BYTE   W12
 BYTE   N06  Cn4  v127
 BYTE   W06
 BYTE   N03  Cn4  v064
 BYTE   W12
 BYTE   N06  Cn4  v127
 BYTE   W06
 BYTE   N03  Cn4  v064
 BYTE   W12
 BYTE   N06  Bn3  v127
 BYTE   W06
 BYTE   N03  Bn3  v064
 BYTE   W12
 BYTE   PATT
  POIN2 Label_3_010336CD
 BYTE   PATT
  POIN2 Label_3_010336F6
// 007   ----------------------------------------
 BYTE   N12  Dn4  v127
 BYTE   W12
 BYTE   N03  Dn4  v064
 BYTE   W12
 BYTE   N06  Dn4  v127
 BYTE   W06
 BYTE   N03  Dn4  v064
 BYTE   W12
 BYTE   N06  Dn4  v127
 BYTE   W06
 BYTE   N03  Dn4  v064
 BYTE   W12
 BYTE   N06  Bn3  v127
 BYTE   W06
 BYTE   N03  Bn3  v064
 BYTE   W12
 BYTE   N06  Bn3  v127
 BYTE   W06
 BYTE   N03  Bn3  v064
 BYTE   W12
// 008   ----------------------------------------
 BYTE   N06  Bn3  v127
 BYTE   W06
 BYTE   N03  Bn3  v064
 BYTE   W18
 BYTE   N06  Cn4  v127
 BYTE   W06
 BYTE   N03  Cn4  v064
 BYTE   W12
 BYTE   N06  Cn4  v127
 BYTE   W06
 BYTE   N03  Cn4  v064
 BYTE   W12
 BYTE   N06  Cn4  v127
 BYTE   W06
 BYTE   N03  Cn4  v064
 BYTE   W12
 BYTE   N06  Cn4  v127
 BYTE   W06
 BYTE   N03  Cn4  v064
 BYTE   W12
// 009   ----------------------------------------
 BYTE   N06  Cn4  v127
 BYTE   W06
 BYTE   N03  Cn4  v064
 BYTE   W18
 BYTE   N06  Cn4  v127
 BYTE   W06
 BYTE   N03  Cn4  v064
 BYTE   W12
 BYTE   N06  Cn4  v127
 BYTE   W06
 BYTE   N03  Cn4  v064
 BYTE   W12
 BYTE   N06  Cn4  v127
 BYTE   W06
 BYTE   N03  Cn4  v064
 BYTE   W12
 BYTE   N06  Cn4  v127
 BYTE   W06
 BYTE   N03  Cn4  v064
 BYTE   W12
// 010   ----------------------------------------
Label_3_010337F1:
 BYTE   N06  Dn4  v127
 BYTE   W06
 BYTE   N03  Dn4  v064
 BYTE   W18
 BYTE   N06  En4  v127
 BYTE   W06
 BYTE   N03  En4  v064
 BYTE   W12
 BYTE   N06  En4  v127
 BYTE   W06
 BYTE   N03  En4  v064
 BYTE   W12
 BYTE   N06  En4  v127
 BYTE   W06
 BYTE   N03  En4  v064
 BYTE   W12
 BYTE   N06  En4  v127
 BYTE   W06
 BYTE   N03  En4  v064
 BYTE   W12
 BYTE   PEND 
// 011   ----------------------------------------
 BYTE   N06  En4  v127
 BYTE   W06
 BYTE   N03  En4  v064
 BYTE   W18
 BYTE   N06  En4  v127
 BYTE   W06
 BYTE   N03  En4  v064
 BYTE   W12
 BYTE   N06  En4  v127
 BYTE   W06
 BYTE   N03  En4  v064
 BYTE   W12
 BYTE   N06  En4  v127
 BYTE   W06
 BYTE   N03  En4  v064
 BYTE   W12
 BYTE   N06  En4  v127
 BYTE   W06
 BYTE   N03  En4  v064
 BYTE   W12
// 012   ----------------------------------------
Label_3_01033842:
 BYTE   N06  Dn4  v127
 BYTE   W06
 BYTE   N03  Dn4  v064
 BYTE   W18
 BYTE   N06  Dn4  v127
 BYTE   W06
 BYTE   N03  Dn4  v064
 BYTE   W12
 BYTE   N06  Dn4  v127
 BYTE   W06
 BYTE   N03  Dn4  v064
 BYTE   W12
 BYTE   N06  Dn4  v127
 BYTE   W06
 BYTE   N03  Dn4  v064
 BYTE   W12
 BYTE   N06  Dn4  v127
 BYTE   W06
 BYTE   N03  Dn4  v064
 BYTE   W12
 BYTE   PEND 
 BYTE   PATT
  POIN2 Label_3_01033842
 BYTE   PATT
  POIN2 Label_3_010337F1
// 013   ----------------------------------------
 BYTE   N06  En4  v127
 BYTE   W06
 BYTE   N03  En4  v064
 BYTE   W06
 BYTE   N12  Gs4  v127
 BYTE   W12
 BYTE   N03  Gs4  v064
 BYTE   W06
 BYTE   N06  Gs4  v127
 BYTE   W06
 BYTE   N03  Gs4  v064
 BYTE   W12
 BYTE   N06  Gs4  v127
 BYTE   W06
 BYTE   N06
 BYTE   W06
 BYTE   N12  Bn4
 BYTE   W12
 BYTE   N03  Bn4  v064
 BYTE   W06
 BYTE   N06  Bn4  v127
 BYTE   W06
 BYTE   N03  Bn4  v064
 BYTE   W12
// 014   ----------------------------------------
 BYTE   W12
 BYTE   GoTo
  POIN2 Label_3_010336AC
 BYTE   FINE

//**************** Track 5 (Midi-Chn.4) ****************//

DurantSortie_005:
// 000   ----------------------------------------
 BYTE   KEYSH   DurantSortie_key+0
 BYTE   VOICE   1
 BYTE   VOL   38*DurantSortie_mvl/mxv
 BYTE   PAN   c_v+26
 BYTE   W12
 BYTE   N36  En3  v127
 BYTE   W36
 BYTE   N36
 BYTE   W36
 BYTE   Gn3
 BYTE   W12
// 001   ----------------------------------------
 BYTE   W24
 BYTE   N36
 BYTE   W36
 BYTE   N12  An3
 BYTE   W12
 BYTE   N03  An3  v064
 BYTE   W06
 BYTE   N06  An3  v127
 BYTE   W06
 BYTE   N03  An3  v064
 BYTE   W12
// 002   ----------------------------------------
 BYTE   W12
Label_4_010338D0:
 BYTE   W12
 BYTE   N06  Gn3  v127
 BYTE   W06
 BYTE   N03  Gn3  v064
 BYTE   W12
 BYTE   N06  Gn3  v127
 BYTE   W06
 BYTE   N03  Gn3  v064
 BYTE   W12
 BYTE   N06  Gn3  v127
 BYTE   W06
 BYTE   N03  Gn3  v064
 BYTE   W12
 BYTE   N06  Gn3  v127
 BYTE   W06
 BYTE   N03  Gn3  v064
 BYTE   W12
// 003   ----------------------------------------
Label_4_010338F1:
 BYTE   N12  An3  v127
 BYTE   W12
 BYTE   N03  An3  v064
 BYTE   W12
 BYTE   N06  An3  v127
 BYTE   W06
 BYTE   N03  An3  v064
 BYTE   W12
 BYTE   N06  An3  v127
 BYTE   W06
 BYTE   N03  An3  v064
 BYTE   W12
 BYTE   N06  An3  v127
 BYTE   W06
 BYTE   N03  An3  v064
 BYTE   W12
 BYTE   N06  An3  v127
 BYTE   W06
 BYTE   N03  An3  v064
 BYTE   W12
 BYTE   PEND 
// 004   ----------------------------------------
Label_4_0103391A:
 BYTE   N06  An3  v127
 BYTE   W06
 BYTE   N03  An3  v064
 BYTE   W18
 BYTE   N06  Gn3  v127
 BYTE   W06
 BYTE   N03  Gn3  v064
 BYTE   W12
 BYTE   N06  Gn3  v127
 BYTE   W06
 BYTE   N03  Gn3  v064
 BYTE   W12
 BYTE   N06  Gn3  v127
 BYTE   W06
 BYTE   N03  Gn3  v064
 BYTE   W12
 BYTE   N06  Gn3  v127
 BYTE   W06
 BYTE   N03  Gn3  v064
 BYTE   W12
 BYTE   PEND 
// 005   ----------------------------------------
 BYTE   N12  Gn3  v127
 BYTE   W12
 BYTE   N03  Gn3  v064
 BYTE   W12
 BYTE   N06  Gn3  v127
 BYTE   W06
 BYTE   N03  Gn3  v064
 BYTE   W12
 BYTE   N06  Gn3  v127
 BYTE   W06
 BYTE   N03  Gn3  v064
 BYTE   W12
 BYTE   N06  Gn3  v127
 BYTE   W06
 BYTE   N03  Gn3  v064
 BYTE   W12
 BYTE   N06  Gn3  v127
 BYTE   W06
 BYTE   N03  Gn3  v064
 BYTE   W12
// 006   ----------------------------------------
 BYTE   N06  Gn3  v127
 BYTE   W06
 BYTE   N03  Gn3  v064
 BYTE   W18
 BYTE   N06  Gn3  v127
 BYTE   W06
 BYTE   N03  Gn3  v064
 BYTE   W12
 BYTE   N06  Gn3  v127
 BYTE   W06
 BYTE   N03  Gn3  v064
 BYTE   W12
 BYTE   N06  Gn3  v127
 BYTE   W06
 BYTE   N03  Gn3  v064
 BYTE   W12
 BYTE   N06  Gn3  v127
 BYTE   W06
 BYTE   N03  Gn3  v064
 BYTE   W12
 BYTE   PATT
  POIN2 Label_4_010338F1
 BYTE   PATT
  POIN2 Label_4_0103391A
// 007   ----------------------------------------
 BYTE   N12  An3  v127
 BYTE   W12
 BYTE   N03  An3  v064
 BYTE   W12
 BYTE   N06  An3  v127
 BYTE   W06
 BYTE   N03  An3  v064
 BYTE   W12
 BYTE   N06  An3  v127
 BYTE   W06
 BYTE   N03  An3  v064
 BYTE   W12
 BYTE   N06  Gs3  v127
 BYTE   W06
 BYTE   N03  Gs3  v064
 BYTE   W12
 BYTE   N06  Gs3  v127
 BYTE   W06
 BYTE   N03  Gs3  v064
 BYTE   W12
// 008   ----------------------------------------
 BYTE   N06  Gs3  v127
 BYTE   W06
 BYTE   N03  Gs3  v064
 BYTE   W18
 BYTE   N06  An3  v127
 BYTE   W06
 BYTE   N03  An3  v064
 BYTE   W12
 BYTE   N06  An3  v127
 BYTE   W06
 BYTE   N03  An3  v064
 BYTE   W12
 BYTE   N06  An3  v127
 BYTE   W06
 BYTE   N03  An3  v064
 BYTE   W12
 BYTE   N06  An3  v127
 BYTE   W06
 BYTE   N03  An3  v064
 BYTE   W12
// 009   ----------------------------------------
 BYTE   N06  An3  v127
 BYTE   W06
 BYTE   N03  An3  v064
 BYTE   W18
 BYTE   N06  An3  v127
 BYTE   W06
 BYTE   N03  An3  v064
 BYTE   W12
 BYTE   N06  An3  v127
 BYTE   W06
 BYTE   N03  An3  v064
 BYTE   W12
 BYTE   N06  An3  v127
 BYTE   W06
 BYTE   N03  An3  v064
 BYTE   W12
 BYTE   N06  An3  v127
 BYTE   W06
 BYTE   N03  An3  v064
 BYTE   W12
// 010   ----------------------------------------
 BYTE   N06  Bn3  v127
 BYTE   W06
 BYTE   N03  Bn3  v064
 BYTE   W18
 BYTE   N06  Cn4  v127
 BYTE   W06
 BYTE   N03  Cn4  v064
 BYTE   W12
 BYTE   N06  Cn4  v127
 BYTE   W06
 BYTE   N03  Cn4  v064
 BYTE   W12
 BYTE   N06  Cn4  v127
 BYTE   W06
 BYTE   N03  Cn4  v064
 BYTE   W12
 BYTE   N06  Cn4  v127
 BYTE   W06
 BYTE   N03  Cn4  v064
 BYTE   W12
// 011   ----------------------------------------
 BYTE   N06  Cn4  v127
 BYTE   W06
 BYTE   N03  Cn4  v064
 BYTE   W18
 BYTE   N06  Cn4  v127
 BYTE   W06
 BYTE   N03  Cn4  v064
 BYTE   W12
 BYTE   N06  Cn4  v127
 BYTE   W06
 BYTE   N03  Cn4  v064
 BYTE   W12
 BYTE   N06  Cn4  v127
 BYTE   W06
 BYTE   N03  Cn4  v064
 BYTE   W12
 BYTE   N06  Cn4  v127
 BYTE   W06
 BYTE   N03  Cn4  v064
 BYTE   W12
// 012   ----------------------------------------
 BYTE   N06  An3  v127
 BYTE   W06
 BYTE   N03  An3  v064
 BYTE   W18
 BYTE   N06  As3  v127
 BYTE   W06
 BYTE   N03  As3  v064
 BYTE   W12
 BYTE   N06  As3  v127
 BYTE   W06
 BYTE   N03  As3  v064
 BYTE   W12
 BYTE   N06  As3  v127
 BYTE   W06
 BYTE   N03  As3  v064
 BYTE   W12
 BYTE   N06  As3  v127
 BYTE   W06
 BYTE   N03  As3  v064
 BYTE   W12
// 013   ----------------------------------------
 BYTE   N06  As3  v127
 BYTE   W06
 BYTE   N03  As3  v064
 BYTE   W18
 BYTE   N06  Bn3  v127
 BYTE   W06
 BYTE   N03  Bn3  v064
 BYTE   W12
 BYTE   N06  Bn3  v127
 BYTE   W06
 BYTE   N03  Bn3  v064
 BYTE   W12
 BYTE   N06  Bn3  v127
 BYTE   W06
 BYTE   N03  Bn3  v064
 BYTE   W12
 BYTE   N06  Bn3  v127
 BYTE   W06
 BYTE   N03  Bn3  v064
 BYTE   W12
// 014   ----------------------------------------
 BYTE   N06  Bn3  v127
 BYTE   W06
 BYTE   N03  Bn3  v064
 BYTE   W18
 BYTE   N06  Bn3  v127
 BYTE   W06
 BYTE   N03  Bn3  v064
 BYTE   W12
 BYTE   N06  Bn3  v127
 BYTE   W06
 BYTE   N03  Bn3  v064
 BYTE   W12
 BYTE   N06  Bn3  v127
 BYTE   W06
 BYTE   N03  Bn3  v064
 BYTE   W12
 BYTE   N06  Bn3  v127
 BYTE   W06
 BYTE   N03  Bn3  v064
 BYTE   W12
// 015   ----------------------------------------
 BYTE   N06  Bn3  v127
 BYTE   W06
 BYTE   N03  Bn3  v064
 BYTE   W06
 BYTE   N12  En4  v127
 BYTE   W12
 BYTE   N03  En4  v064
 BYTE   W06
 BYTE   N06  En4  v127
 BYTE   W06
 BYTE   N03  En4  v064
 BYTE   W12
 BYTE   N06  En4  v127
 BYTE   W06
 BYTE   N06
 BYTE   W06
 BYTE   N12  Gs4
 BYTE   W12
 BYTE   N03  Gs4  v064
 BYTE   W06
 BYTE   N06  Gs4  v127
 BYTE   W06
 BYTE   N03  Gs4  v064
 BYTE   W12
// 016   ----------------------------------------
 BYTE   W12
 BYTE   GoTo
  POIN2 Label_4_010338D0
 BYTE   FINE

//**************** Track 6 (Midi-Chn.5) ****************//

DurantSortie_006:
// 000   ----------------------------------------
 BYTE   KEYSH   DurantSortie_key+0
 BYTE   VOICE   34
 BYTE   VOL   57*DurantSortie_mvl/mxv
 BYTE   W12
 BYTE   N06  En1  v100
 BYTE   W06
 BYTE   Bn1
 BYTE   W06
 BYTE   En2
 BYTE   W06
 BYTE   Bn1
 BYTE   W06
 BYTE   En1
 BYTE   W06
 BYTE   Bn1
 BYTE   W06
 BYTE   En2
 BYTE   W06
 BYTE   Bn1
 BYTE   W06
 BYTE   En1
 BYTE   W06
 BYTE   Bn1
 BYTE   W06
 BYTE   En2
 BYTE   W06
 BYTE   Bn1
 BYTE   W06
 BYTE   Gn1
 BYTE   W06
 BYTE   Dn2
 BYTE   W06
// 001   ----------------------------------------
 BYTE   Gn2
 BYTE   W06
 BYTE   Dn2
 BYTE   W06
 BYTE   Gn1
 BYTE   W06
 BYTE   Dn2
 BYTE   W06
 BYTE   Gn2
 BYTE   W06
 BYTE   Dn2
 BYTE   W06
 BYTE   Gn1
 BYTE   W06
 BYTE   Dn2
 BYTE   W06
 BYTE   Gn2
 BYTE   W06
 BYTE   Dn2
 BYTE   W06
 BYTE   An1
 BYTE   W06
 BYTE   En2
 BYTE   W06
 BYTE   An2
 BYTE   W06
 BYTE   En2
 BYTE   W06
 BYTE   N24  En1
 BYTE   W12
// 002   ----------------------------------------
 BYTE   W12
Label_5_01033B59:
 BYTE   N12  An1  v100
 BYTE   W12
 BYTE   N06  An2
 BYTE   W12
 BYTE   N06
 BYTE   W06
 BYTE   En2
 BYTE   W06
 BYTE   An1
 BYTE   W06
 BYTE   Gn1
 BYTE   W06
 BYTE   N12  An1
 BYTE   W12
 BYTE   N06  An2
 BYTE   W06
 BYTE   N12  An1
 BYTE   W12
 BYTE   N06  En2
 BYTE   W06
// 003   ----------------------------------------
 BYTE   N24  Fn1
 BYTE   W24
 BYTE   N06  Fn2
 BYTE   W12
 BYTE   N06
 BYTE   W06
 BYTE   Cn2
 BYTE   W06
 BYTE   Fn1
 BYTE   W06
 BYTE   En1
 BYTE   W06
 BYTE   N12  Fn1
 BYTE   W12
 BYTE   N06  Fn2
 BYTE   W06
 BYTE   N12  Cn2
 BYTE   W12
 BYTE   N06  Fn2
 BYTE   W06
// 004   ----------------------------------------
Label_5_01033B8E:
 BYTE   N06  Cn3  v100
 BYTE   W06
 BYTE   Fn1
 BYTE   W06
 BYTE   N12  Gn1
 BYTE   W12
 BYTE   N06  Gn2
 BYTE   W12
 BYTE   N06
 BYTE   W06
 BYTE   Dn2
 BYTE   W06
 BYTE   Gn1
 BYTE   W06
 BYTE   Fn1
 BYTE   W06
 BYTE   N12  Gn1
 BYTE   W12
 BYTE   N06  Gn2
 BYTE   W06
 BYTE   N12  Gn1
 BYTE   W12
 BYTE   N06  Dn2
 BYTE   W06
 BYTE   PEND 
// 005   ----------------------------------------
 BYTE   N24  Cn2
 BYTE   W24
 BYTE   N06  Cn3
 BYTE   W12
 BYTE   Cn2
 BYTE   W06
 BYTE   Gn1
 BYTE   W06
 BYTE   Cn2
 BYTE   W06
 BYTE   Cn3
 BYTE   W06
 BYTE   N12  Bn1
 BYTE   W12
 BYTE   N06  Bn2
 BYTE   W06
 BYTE   N12  Bn1
 BYTE   W12
 BYTE   N06  Bn2
 BYTE   W06
// 006   ----------------------------------------
 BYTE   Gn1
 BYTE   W06
 BYTE   Gn2
 BYTE   W06
 BYTE   N12  An1
 BYTE   W12
 BYTE   N06  An2
 BYTE   W12
 BYTE   N06
 BYTE   W06
 BYTE   En2
 BYTE   W06
 BYTE   An1
 BYTE   W06
 BYTE   Gn1
 BYTE   W06
 BYTE   N12  An1
 BYTE   W12
 BYTE   N06  An2
 BYTE   W06
 BYTE   N12  An1
 BYTE   W12
 BYTE   N06  En2
 BYTE   W04
 BYTE   N24  Fn1
 BYTE   W02
// 007   ----------------------------------------
 BYTE   W24
 BYTE   N06  Fn2
 BYTE   W12
 BYTE   N06
 BYTE   W06
 BYTE   Cn2
 BYTE   W04
 BYTE   Fn1
 BYTE   W08
 BYTE   En1
 BYTE   W06
 BYTE   N12  Fn1
 BYTE   W12
 BYTE   N06  Fn2
 BYTE   W04
 BYTE   N12  Cn2
 BYTE   W14
 BYTE   N06  Fn2
 BYTE   W06
 BYTE   PATT
  POIN2 Label_5_01033B8E
// 008   ----------------------------------------
 BYTE   N24  Dn1  v100
 BYTE   W24
 BYTE   N06  Dn2
 BYTE   W12
 BYTE   N06
 BYTE   W06
 BYTE   An1
 BYTE   W06
 BYTE   Dn1
 BYTE   W06
 BYTE   Cn2
 BYTE   W06
 BYTE   N12  En1
 BYTE   W12
 BYTE   N06  En2
 BYTE   W06
 BYTE   N12  En1
 BYTE   W12
 BYTE   N06  En2
 BYTE   W06
// 009   ----------------------------------------
 BYTE   N06
 BYTE   W06
 BYTE   En1
 BYTE   W06
 BYTE   N12  Fn1
 BYTE   W12
 BYTE   N06  Fn2
 BYTE   W12
 BYTE   N06
 BYTE   W06
 BYTE   Cn2
 BYTE   W06
 BYTE   Fn1
 BYTE   W06
 BYTE   En1
 BYTE   W06
 BYTE   N12  Fn1
 BYTE   W12
 BYTE   N06
 BYTE   W06
 BYTE   N12  An1
 BYTE   W12
 BYTE   N06
 BYTE   W06
// 010   ----------------------------------------
 BYTE   Cn2
 BYTE   W06
 BYTE   Fn1
 BYTE   W06
 BYTE   N12
 BYTE   W12
 BYTE   N06  Fn2
 BYTE   W12
 BYTE   N06
 BYTE   W06
 BYTE   Cn2
 BYTE   W06
 BYTE   Fn1
 BYTE   W06
 BYTE   En1
 BYTE   W06
 BYTE   N12  Fn1
 BYTE   W12
 BYTE   N06
 BYTE   W06
 BYTE   N12  An1
 BYTE   W12
 BYTE   N06
 BYTE   W06
// 011   ----------------------------------------
 BYTE   Gn1
 BYTE   W06
 BYTE   N06
 BYTE   W06
 BYTE   N12  An1
 BYTE   W12
 BYTE   N06  An2
 BYTE   W12
 BYTE   N06
 BYTE   W06
 BYTE   Gn2
 BYTE   W06
 BYTE   Dn2
 BYTE   W06
 BYTE   Gn1
 BYTE   W06
 BYTE   N12  An1
 BYTE   W12
 BYTE   N06
 BYTE   W06
 BYTE   N12  Gn1
 BYTE   W12
 BYTE   N06
 BYTE   W06
// 012   ----------------------------------------
 BYTE   Cn2
 BYTE   W06
 BYTE   N06
 BYTE   W06
 BYTE   N12  An1
 BYTE   W12
 BYTE   N06  An2
 BYTE   W12
 BYTE   N06
 BYTE   W06
 BYTE   Gn2
 BYTE   W06
 BYTE   Dn2
 BYTE   W06
 BYTE   Gn1
 BYTE   W06
 BYTE   N12  An1
 BYTE   W12
 BYTE   N06
 BYTE   W06
 BYTE   N12  Cs2
 BYTE   W12
 BYTE   N06
 BYTE   W06
// 013   ----------------------------------------
 BYTE   En2
 BYTE   W06
 BYTE   An1
 BYTE   W06
 BYTE   N12  As1
 BYTE   W12
 BYTE   N06  As2
 BYTE   W12
 BYTE   N06
 BYTE   W06
 BYTE   Fn2
 BYTE   W06
 BYTE   As1
 BYTE   W06
 BYTE   An1
 BYTE   W06
 BYTE   N12  As1
 BYTE   W12
 BYTE   N06
 BYTE   W06
 BYTE   N12  Dn2
 BYTE   W12
 BYTE   N06
 BYTE   W06
// 014   ----------------------------------------
 BYTE   Fn2
 BYTE   W06
 BYTE   As1
 BYTE   W06
 BYTE   N12  Bn1
 BYTE   W12
 BYTE   N06  Bn2
 BYTE   W12
 BYTE   N06
 BYTE   W06
 BYTE   Fn2
 BYTE   W06
 BYTE   Bn1
 BYTE   W06
 BYTE   As1
 BYTE   W06
 BYTE   N12  Bn1
 BYTE   W12
 BYTE   N06
 BYTE   W06
 BYTE   N12  Dn2
 BYTE   W12
 BYTE   N06
 BYTE   W06
// 015   ----------------------------------------
 BYTE   Fn2
 BYTE   W06
 BYTE   Bn1
 BYTE   W06
 BYTE   N12  En1
 BYTE   W12
 BYTE   N06  En2
 BYTE   W12
 BYTE   N06
 BYTE   W06
 BYTE   Gs1
 BYTE   W06
 BYTE   En1
 BYTE   W06
 BYTE   N06
 BYTE   W06
 BYTE   N12  En2
 BYTE   W12
 BYTE   N06  En1
 BYTE   W06
 BYTE   N12  Gs1
 BYTE   W12
 BYTE   N06  En1
 BYTE   W06
// 016   ----------------------------------------
 BYTE   Bn1
 BYTE   W06
 BYTE   En1
 BYTE   W06
 BYTE   N12
 BYTE   W18
 BYTE   N06
 BYTE   W12
 BYTE   Bn1
 BYTE   W06
 BYTE   Gs1
 BYTE   W06
 BYTE   Dn1
 BYTE   W06
 BYTE   N12  En1
 BYTE   W18
 BYTE   N06
 BYTE   W06
 BYTE   Dn1
 BYTE   W06
 BYTE   En1
 BYTE   W06
// 017   ----------------------------------------
 BYTE   Fn1
 BYTE   W06
 BYTE   Gn1
 BYTE   W06
 BYTE   GoTo
  POIN2 Label_5_01033B59
 BYTE   FINE

//**************** Track 7 (Midi-Chn.6) ****************//

DurantSortie_007:
// 000   ----------------------------------------
 BYTE   KEYSH   DurantSortie_key+0
 BYTE   VOICE   40
 BYTE   VOL   51*DurantSortie_mvl/mxv
 BYTE   W12
 BYTE   N12  En3  v088
 BYTE   N12  An3  v100
 BYTE   W18
 BYTE   N06  An3  v088
 BYTE   N06  En4  v100
 BYTE   W06
 BYTE   En4  v088
 BYTE   N06  An4  v100
 BYTE   W12
 BYTE   N12  En3  v088
 BYTE   N12  Gs3  v100
 BYTE   W18
 BYTE   N06  Gs3  v088
 BYTE   N06  En4  v100
 BYTE   W06
 BYTE   En4  v088
 BYTE   N06  Gs4  v100
 BYTE   W12
 BYTE   N12  Gn3  v088
 BYTE   N12  Cn4  v100
 BYTE   W12
// 001   ----------------------------------------
 BYTE   W06
 BYTE   N06  Cn4  v088
 BYTE   N06  Gn4  v100
 BYTE   W06
 BYTE   Gn4  v088
 BYTE   N06  Cn5  v100
 BYTE   W12
 BYTE   N12  Gn3  v088
 BYTE   N12  Bn3  v100
 BYTE   W18
 BYTE   N06  Bn3  v088
 BYTE   N06  Gn4  v100
 BYTE   W06
 BYTE   Gn4  v088
 BYTE   N06  Bn4  v100
 BYTE   W12
 BYTE   N12  An3  v088
 BYTE   N12  Dn4  v100
 BYTE   W18
 BYTE   N04  Dn4  v088
 BYTE   N04  An4  v100
 BYTE   W18
// 002   ----------------------------------------
 BYTE   W12
Label_6_01033D6F:
 BYTE   W84
// 003   ----------------------------------------
 BYTE   W96
// 004   ----------------------------------------
 BYTE   W96
// 005   ----------------------------------------
 BYTE   W96
// 006   ----------------------------------------
 BYTE   W96
// 007   ----------------------------------------
 BYTE   W96
// 008   ----------------------------------------
 BYTE   W96
// 009   ----------------------------------------
 BYTE   W60
 BYTE   N06  Bn4  v096
 BYTE   W06
 BYTE   An4
 BYTE   W06
 BYTE   Gs4
 BYTE   W06
 BYTE   En4
 BYTE   W06
 BYTE   Bn3
 BYTE   W06
 BYTE   An3
 BYTE   W06
// 010   ----------------------------------------
 BYTE   Gs3
 BYTE   W06
 BYTE   N04  En3
 BYTE   W90
// 011   ----------------------------------------
 BYTE   W96
// 012   ----------------------------------------
 BYTE   W96
// 013   ----------------------------------------
 BYTE   W96
// 014   ----------------------------------------
 BYTE   W96
// 015   ----------------------------------------
 BYTE   W96
// 016   ----------------------------------------
 BYTE   W96
// 017   ----------------------------------------
 BYTE   W96
// 018   ----------------------------------------
 BYTE   W12
 BYTE   GoTo
  POIN2 Label_6_01033D6F
 BYTE   FINE

//**************** Track 8 (Midi-Chn.7) ****************//

DurantSortie_008:
// 000   ----------------------------------------
 BYTE   KEYSH   DurantSortie_key+0
 BYTE   VOICE   42
 BYTE   VOL   45*DurantSortie_mvl/mxv
 BYTE   PAN   c_v-26
 BYTE   W96
// 001   ----------------------------------------
 BYTE   W96
// 002   ----------------------------------------
 BYTE   N06  An3  v072
 BYTE   W06
 BYTE   Bn3
 BYTE   W06
Label_7_01033DA8:
 BYTE   N06  Cn4  v072
 BYTE   W06
 BYTE   Dn4
 BYTE   W06
 BYTE   N36  En4
 BYTE   W36
 BYTE   N48  An3
 BYTE   W36
// 003   ----------------------------------------
 BYTE   W12
 BYTE   N36  Dn4
 BYTE   W36
 BYTE   N24  Cn4
 BYTE   W24
 BYTE   N18  Bn3
 BYTE   W18
 BYTE   Cn4
 BYTE   W06
// 004   ----------------------------------------
 BYTE   W12
 BYTE   N12  An3
 BYTE   W12
 BYTE   N48  Gn3
 BYTE   W48
 BYTE   N36  Dn4
 BYTE   W24
// 005   ----------------------------------------
 BYTE   W12
 BYTE   Fn4
 BYTE   W36
 BYTE   N24  En4
 BYTE   W24
 BYTE   Dn4
 BYTE   W24
// 006   ----------------------------------------
 BYTE   Cn4
 BYTE   W24
 BYTE   N36  An3
 BYTE   W36
 BYTE   Bn3
 BYTE   W36
// 007   ----------------------------------------
 BYTE   N12  Cn4
 BYTE   W12
 BYTE   N36  En4
 BYTE   W36
 BYTE   N24  Dn4
 BYTE   W24
 BYTE   N18  Bn3
 BYTE   W18
 BYTE   Cn4
 BYTE   W06
// 008   ----------------------------------------
 BYTE   W12
 BYTE   N12  Gn4
 BYTE   W12
 BYTE   N60
 BYTE   W60
 BYTE   N12
 BYTE   W12
// 009   ----------------------------------------
 BYTE   Dn4
 BYTE   W12
 BYTE   N60  An4
 BYTE   W60
 BYTE   N06  Bn4
 BYTE   W06
 BYTE   An4
 BYTE   W06
 BYTE   Gs4
 BYTE   W06
 BYTE   En4
 BYTE   W06
// 010   ----------------------------------------
 BYTE   Bn3
 BYTE   W06
 BYTE   An3
 BYTE   W06
 BYTE   Gs3
 BYTE   W06
 BYTE   N04  En3
 BYTE   W78
// 011   ----------------------------------------
 BYTE   W96
// 012   ----------------------------------------
 BYTE   W96
// 013   ----------------------------------------
 BYTE   W96
// 014   ----------------------------------------
 BYTE   W96
// 015   ----------------------------------------
 BYTE   W96
// 016   ----------------------------------------
 BYTE   W96
// 017   ----------------------------------------
 BYTE   W84
 BYTE   N06  An3  v127
 BYTE   W06
 BYTE   Bn3
 BYTE   W06
// 018   ----------------------------------------
 BYTE   Cn4
 BYTE   W06
 BYTE   Dn4
 BYTE   W06
 BYTE   GoTo
  POIN2 Label_7_01033DA8
 BYTE   FINE

//**************** Track 9 (Midi-Chn.8) ****************//

DurantSortie_009:
// 000   ----------------------------------------
 BYTE   KEYSH   DurantSortie_key+0
 BYTE   VOICE   41
 BYTE   VOL   57*DurantSortie_mvl/mxv
 BYTE   PAN   c_v-26
 BYTE   W96
// 001   ----------------------------------------
 BYTE   W84
 BYTE   N06  An3  v100
 BYTE   W06
 BYTE   Bn3
 BYTE   W06
// 002   ----------------------------------------
 BYTE   Cn4
 BYTE   W06
 BYTE   Dn4
 BYTE   W06
Label_8_01033E34:
 BYTE   N36  En4  v100
 BYTE   W36
 BYTE   N48  An3
 BYTE   W48
// 003   ----------------------------------------
 BYTE   N36  Dn4
 BYTE   W36
 BYTE   N24  Cn4
 BYTE   W24
 BYTE   N18  Bn3
 BYTE   W18
 BYTE   Cn4
 BYTE   W18
// 004   ----------------------------------------
 BYTE   N12  An3
 BYTE   W12
 BYTE   N48  Gn3
 BYTE   W48
 BYTE   N36  Dn4
 BYTE   W36
// 005   ----------------------------------------
 BYTE   Fn4
 BYTE   W36
 BYTE   N24  En4
 BYTE   W24
 BYTE   Dn4
 BYTE   W24
 BYTE   Cn4
 BYTE   W12
// 006   ----------------------------------------
 BYTE   W12
 BYTE   N36  An3
 BYTE   W36
 BYTE   Bn3
 BYTE   W36
 BYTE   N12  Cn4
 BYTE   W12
// 007   ----------------------------------------
 BYTE   N36  En4
 BYTE   W36
 BYTE   N24  Dn4
 BYTE   W24
 BYTE   N18  Bn3
 BYTE   W18
 BYTE   Cn4
 BYTE   W18
// 008   ----------------------------------------
 BYTE   N12  Gn4
 BYTE   W12
 BYTE   N60
 BYTE   W60
 BYTE   N12
 BYTE   W12
 BYTE   Dn4
 BYTE   W12
// 009   ----------------------------------------
 BYTE   N60  An4
 BYTE   W60
 BYTE   N06  Bn4
 BYTE   W06
 BYTE   An4
 BYTE   W06
 BYTE   Gs4
 BYTE   W06
 BYTE   En4
 BYTE   W06
 BYTE   Bn3
 BYTE   W06
 BYTE   An3
 BYTE   W06
// 010   ----------------------------------------
 BYTE   Gs3
 BYTE   W06
 BYTE   N04  En3
 BYTE   W90
// 011   ----------------------------------------
 BYTE   W96
// 012   ----------------------------------------
 BYTE   W96
// 013   ----------------------------------------
 BYTE   W96
// 014   ----------------------------------------
 BYTE   W96
// 015   ----------------------------------------
 BYTE   W96
// 016   ----------------------------------------
 BYTE   W96
// 017   ----------------------------------------
 BYTE   W84
 BYTE   N06  An3  v127
 BYTE   W06
 BYTE   Bn3
 BYTE   W06
// 018   ----------------------------------------
 BYTE   Cn4
 BYTE   W06
 BYTE   Dn4
 BYTE   W06
 BYTE   GoTo
  POIN2 Label_8_01033E34
 BYTE   FINE

//**************** Track 10 (Midi-Chn.9) ****************//

DurantSortie_010:
// 000   ----------------------------------------
 BYTE   KEYSH   DurantSortie_key+0
 BYTE   VOICE   127
 BYTE   VOL   57*DurantSortie_mvl/mxv
 BYTE   W12
 BYTE   N12  Cn1  v108
 BYTE   N06  Cs2  v076
 BYTE   W12
 BYTE   Dn1  v092
 BYTE   N06  Fs1  v052
 BYTE   W06
 BYTE   Dn1  v092
 BYTE   N06  Fs1  v040
 BYTE   W06
 BYTE   N12  Cn1  v108
 BYTE   N06  Fs1  v056
 BYTE   W06
 BYTE   Fs1  v044
 BYTE   W06
 BYTE   N12  Cn1  v108
 BYTE   N06  Cs2  v060
 BYTE   W12
 BYTE   Dn1  v092
 BYTE   N06  Fs1  v056
 BYTE   W06
 BYTE   Dn1  v092
 BYTE   N06  Fs1  v044
 BYTE   W06
 BYTE   N12  Cn1  v108
 BYTE   N06  Fs1  v052
 BYTE   W06
 BYTE   Fs1  v040
 BYTE   W06
 BYTE   N12  Cn1  v108
 BYTE   N06  Cs2  v076
 BYTE   N96  Fn2  v116
 BYTE   W12
// 001   ----------------------------------------
 BYTE   N06  Dn1  v092
 BYTE   N06  Fs1  v056
 BYTE   W06
 BYTE   Dn1  v092
 BYTE   N06  Fs1  v048
 BYTE   W06
 BYTE   N12  Cn1  v108
 BYTE   N06  Fs1  v056
 BYTE   W06
 BYTE   Fs1  v044
 BYTE   W06
 BYTE   N12  Cn1  v108
 BYTE   N06  Cs2  v064
 BYTE   W12
 BYTE   Dn1  v092
 BYTE   N06  Fs1  v056
 BYTE   W06
 BYTE   Dn1  v092
 BYTE   N06  Fs1  v044
 BYTE   W06
 BYTE   N12  Cn1  v108
 BYTE   N06  Fs1  v052
 BYTE   W06
 BYTE   Fs1  v040
 BYTE   W06
 BYTE   N12  Dn1  v092
 BYTE   N06  Fs1  v056
 BYTE   W06
 BYTE   Fs1  v044
 BYTE   W06
 BYTE   Cn1  v108
 BYTE   N06  Fs1  v052
 BYTE   W06
 BYTE   Dn1  v092
 BYTE   N06  Fs1  v040
 BYTE   W06
 BYTE   N12  Cn1  v108
 BYTE   N12  Fn1  v127
 BYTE   W12
// 002   ----------------------------------------
 BYTE   W12
Label_9_01033F41:
 BYTE   N12  Cn1  v108
 BYTE   N06  Cs2  v076
 BYTE   W12
 BYTE   N12  Cn1  v108
 BYTE   W12
 BYTE   Dn1  v092
 BYTE   N06  As1  v060
 BYTE   W18
 BYTE   Cn1  v108
 BYTE   W06
 BYTE   N12
 BYTE   N06  As1  v060
 BYTE   W18
 BYTE   Cn1  v108
 BYTE   W06
 BYTE   N12  Dn1  v092
 BYTE   N06  As1  v060
 BYTE   W12
// 003   ----------------------------------------
 BYTE   N12  Cn1  v108
 BYTE   W12
 BYTE   N06  As1  v060
 BYTE   W12
 BYTE   N12  Cn1  v108
 BYTE   W12
 BYTE   Dn1  v092
 BYTE   N06  As1  v060
 BYTE   W18
 BYTE   Cn1  v108
 BYTE   W06
 BYTE   N12
 BYTE   N06  As1  v060
 BYTE   W18
 BYTE   Cn1  v108
 BYTE   W06
 BYTE   N12  Dn1  v092
 BYTE   N06  As1  v060
 BYTE   W12
// 004   ----------------------------------------
 BYTE   N12  Cn1  v108
 BYTE   W12
 BYTE   N12
 BYTE   N06  As1  v060
 BYTE   W12
 BYTE   N12  Cn1  v108
 BYTE   W12
 BYTE   Dn1  v092
 BYTE   N06  As1  v060
 BYTE   W18
 BYTE   Cn1  v108
 BYTE   W06
 BYTE   N12
 BYTE   N06  As1  v060
 BYTE   W18
 BYTE   Cn1  v108
 BYTE   W06
 BYTE   N12  Dn1  v092
 BYTE   N06  As1  v060
 BYTE   W12
// 005   ----------------------------------------
 BYTE   N12  Cn1  v108
 BYTE   N06  Cs2  v076
 BYTE   W24
 BYTE   N12  Cn1  v108
 BYTE   W12
 BYTE   Dn1  v092
 BYTE   N06  As1  v060
 BYTE   W18
 BYTE   Dn1  v092
 BYTE   W06
 BYTE   N12  Cn1  v108
 BYTE   N06  As1  v060
 BYTE   W18
 BYTE   Cn1  v108
 BYTE   W06
 BYTE   Dn1  v092
 BYTE   N06  As1  v060
 BYTE   W06
 BYTE   Dn1  v092
 BYTE   W06
// 006   ----------------------------------------
Label_9_01033FD4:
 BYTE   N12  Fn1  v127
 BYTE   W12
 BYTE   Cn1  v108
 BYTE   N06  Cs2  v076
 BYTE   W12
 BYTE   N12  Cn1  v108
 BYTE   W12
 BYTE   Dn1  v092
 BYTE   N06  As1  v060
 BYTE   W18
 BYTE   Cn1  v108
 BYTE   W06
 BYTE   N12
 BYTE   N06  As1  v060
 BYTE   W18
 BYTE   Cn1  v108
 BYTE   W06
 BYTE   N12  Dn1  v092
 BYTE   N06  As1  v060
 BYTE   W12
 BYTE   PEND 
// 007   ----------------------------------------
 BYTE   N12  Cn1  v108
 BYTE   N06  Cs2  v076
 BYTE   W24
 BYTE   N12  Cn1  v108
 BYTE   W12
 BYTE   Dn1  v092
 BYTE   N06  As1  v060
 BYTE   W18
 BYTE   Cn1  v108
 BYTE   W06
 BYTE   N12
 BYTE   N06  As1  v060
 BYTE   W18
 BYTE   Cn1  v108
 BYTE   W06
 BYTE   N12  Dn1  v092
 BYTE   N06  As1  v060
 BYTE   W12
// 008   ----------------------------------------
 BYTE   W06
 BYTE   Dn1  v092
 BYTE   W06
 BYTE   N12  Cn1  v108
 BYTE   N06  As1  v060
 BYTE   W12
 BYTE   N12  Cn1  v108
 BYTE   W12
 BYTE   Dn1  v092
 BYTE   N06  As1  v060
 BYTE   W18
 BYTE   Cn1  v108
 BYTE   W06
 BYTE   N12
 BYTE   N06  As1  v060
 BYTE   W12
 BYTE   N12  Dn1  v092
 BYTE   N06  Cs2  v076
 BYTE   W12
 BYTE   N12  Dn1  v092
 BYTE   W12
// 009   ----------------------------------------
 BYTE   Cn1  v108
 BYTE   N06  Cs2  v076
 BYTE   W24
 BYTE   Dn1  v092
 BYTE   N06  As1  v060
 BYTE   W06
 BYTE   Dn1  v092
 BYTE   W06
 BYTE   Cn1  v108
 BYTE   N06  Cs2  v076
 BYTE   W06
 BYTE   Dn1  v092
 BYTE   W06
 BYTE   N12
 BYTE   W12
 BYTE   N06
 BYTE   N06  As1  v060
 BYTE   W06
 BYTE   N12  Dn1  v092
 BYTE   W12
 BYTE   N06
 BYTE   W06
 BYTE   N06
 BYTE   W06
 BYTE   Cn2  v127
 BYTE   W06
// 010   ----------------------------------------
 BYTE   An1
 BYTE   W06
 BYTE   Fn1
 BYTE   W06
 BYTE   N12  Cn1  v108
 BYTE   N06  Cs2  v076
 BYTE   W12
 BYTE   N12  Cn1  v108
 BYTE   W12
 BYTE   Dn1  v092
 BYTE   N06  As1  v060
 BYTE   W18
 BYTE   Cn1  v108
 BYTE   W06
 BYTE   N12
 BYTE   N06  As1  v060
 BYTE   W18
 BYTE   Cn1  v108
 BYTE   W06
 BYTE   N12  Dn1  v092
 BYTE   N06  As1  v060
 BYTE   W12
// 011   ----------------------------------------
 BYTE   W12
 BYTE   N12  Cn1  v108
 BYTE   N06  As1  v060
 BYTE   W12
 BYTE   N12  Cn1  v108
 BYTE   W12
 BYTE   Dn1  v092
 BYTE   N06  As1  v060
 BYTE   W18
 BYTE   Cn1  v108
 BYTE   W06
 BYTE   N12
 BYTE   N06  As1  v060
 BYTE   W18
 BYTE   Cn1  v108
 BYTE   W06
 BYTE   Dn1  v092
 BYTE   N06  As1  v060
 BYTE   W06
 BYTE   N12  Cn1  v108
 BYTE   W06
// 012   ----------------------------------------
 BYTE   W12
 BYTE   N12
 BYTE   N06  As1  v060
 BYTE   W12
 BYTE   N12  Cn1  v108
 BYTE   W12
 BYTE   Dn1  v092
 BYTE   N06  As1  v060
 BYTE   W18
 BYTE   Cn1  v108
 BYTE   W06
 BYTE   N12
 BYTE   N06  As1  v060
 BYTE   W18
 BYTE   Cn1  v108
 BYTE   W06
 BYTE   N12  Dn1  v092
 BYTE   N06  As1  v060
 BYTE   W12
// 013   ----------------------------------------
 BYTE   W12
 BYTE   N12  Cn1  v108
 BYTE   N06  As1  v060
 BYTE   W12
 BYTE   N12  Cn1  v108
 BYTE   W12
 BYTE   Dn1  v092
 BYTE   N06  As1  v060
 BYTE   W18
 BYTE   Dn1  v092
 BYTE   W06
 BYTE   N12  Cn1  v108
 BYTE   N06  As1  v060
 BYTE   W18
 BYTE   Cn1  v108
 BYTE   W06
 BYTE   Dn1  v092
 BYTE   N06  As1  v060
 BYTE   W06
 BYTE   Dn1  v092
 BYTE   W06
 BYTE   PATT
  POIN2 Label_9_01033FD4
// 014   ----------------------------------------
 BYTE   W06
 BYTE   N06  Dn1  v092
 BYTE   W06
 BYTE   N12  Cn1  v108
 BYTE   N06  Cs2  v076
 BYTE   W12
 BYTE   N12  Cn1  v108
 BYTE   W12
 BYTE   Dn1  v092
 BYTE   N06  As1  v060
 BYTE   W18
 BYTE   Cn1  v108
 BYTE   W06
 BYTE   N12
 BYTE   N06  As1  v060
 BYTE   W18
 BYTE   Cn1  v108
 BYTE   W06
 BYTE   Dn1  v092
 BYTE   N06  As1  v060
 BYTE   W06
 BYTE   N12  Cn1  v108
 BYTE   W06
// 015   ----------------------------------------
 BYTE   W06
 BYTE   N06  Dn1  v092
 BYTE   W06
 BYTE   N12  Cn1  v108
 BYTE   N06  As1  v060
 BYTE   W12
 BYTE   N12  Cn1  v108
 BYTE   W12
 BYTE   Dn1  v092
 BYTE   N06  Cs2  v076
 BYTE   W18
 BYTE   Cn1  v108
 BYTE   W06
 BYTE   N06
 BYTE   N06  As1  v060
 BYTE   W06
 BYTE   N12  Dn1  v092
 BYTE   W12
 BYTE   N06  Cn1  v108
 BYTE   W06
 BYTE   Dn1  v092
 BYTE   N06  As1  v060
 BYTE   W06
 BYTE   Dn1  v092
 BYTE   W06
// 016   ----------------------------------------
 BYTE   An1  v127
 BYTE   W06
 BYTE   Fn1
 BYTE   W06
 BYTE   N12  Cn1  v108
 BYTE   N06  As1  v060
 BYTE   W12
 BYTE   Fs1  v056
 BYTE   W06
 BYTE   N12  Cn1  v108
 BYTE   N06  As1  v060
 BYTE   W12
 BYTE   Fs1  v056
 BYTE   W06
 BYTE   Dn1  v092
 BYTE   W06
 BYTE   N06
 BYTE   W06
 BYTE   N12  Cn1  v108
 BYTE   N06  Cs2  v076
 BYTE   W18
 BYTE   Cn1  v108
 BYTE   N06  Cs2  v076
 BYTE   W06
 BYTE   N12  Fn1  v127
 BYTE   W12
// 017   ----------------------------------------
 BYTE   W12
 BYTE   GoTo
  POIN2 Label_9_01033F41
 BYTE   FINE

//******************************************************//
	ALIGN 4

DurantSortie:
	BYTE	10	// NumTrks
	BYTE	0	// NumBlks
	BYTE	DurantSortie_pri	// Priority
	BYTE	DurantSortie_rev	// Reverb.
    
	POIN2	DurantSortie_grp
    
	POIN2	DurantSortie_001
	POIN2	DurantSortie_002
	POIN2	DurantSortie_003
	POIN2	DurantSortie_004
	POIN2	DurantSortie_005
	POIN2	DurantSortie_006
	POIN2	DurantSortie_007
	POIN2	DurantSortie_008
	POIN2	DurantSortie_009
	POIN2	DurantSortie_010

	
