//Event file generated from Sappy .s format.
	#include "MPlayDef.event"

	#define	FatefulShowdown_grp  voicegroup000
	#define	FatefulShowdown_pri  0
	#define	FatefulShowdown_rev  0
	#define	FatefulShowdown_mvl  127
	#define	FatefulShowdown_key  0
	#define	FatefulShowdown_tbs  1
	#define	FatefulShowdown_exg  0
	#define	FatefulShowdown_cmp  1

	// .rodata
	//	FatefulShowdown
	ALIGN 4

//**************** Track 1 (Midi-Chn.1) ****************//

FatefulShowdown_1:
	BYTE	KEYSH   FatefulShowdown_key+0
// 000   ----------------------------------------
	BYTE	TEMPO   160*FatefulShowdown_tbs/2
	BYTE		VOICE   36
	BYTE		VOL     57*FatefulShowdown_mvl/mxv
	BYTE		N96     Gn0   v100
	BYTE		N96     Gn1 
	BYTE		N96     Gn2 
	BYTE	W96
// 001   ----------------------------------------
FatefulShowdown_1_001:
	BYTE		N96     Gs0   v100
	BYTE		N96     Gs1 
	BYTE		N96     Gs2 
	BYTE	W96
	BYTE	PEND
FatefulShowdown_1_B1:
// 002   ----------------------------------------
FatefulShowdown_1_002:
	BYTE		N12     Gn1   v100
	BYTE	W36
	BYTE		N12   
	BYTE	W36
	BYTE		N12   
	BYTE	W24
	BYTE	PEND
// 003   ----------------------------------------
FatefulShowdown_1_003:
	BYTE	W12
	BYTE		N12     Gn1   v100
	BYTE	W36
	BYTE		N12   
	BYTE	W24
	BYTE		N12   
	BYTE	W24
	BYTE	PEND
// 004   ----------------------------------------
	BYTE	PATT
	 POIN2	FatefulShowdown_1_002
// 005   ----------------------------------------
	BYTE	PATT
	 POIN2	FatefulShowdown_1_003
// 006   ----------------------------------------
	BYTE		N96     Gn0   v100
	BYTE		N96     Gn1 
	BYTE		N96     Gn2 
	BYTE	W96
// 007   ----------------------------------------
	BYTE	PATT
	 POIN2	FatefulShowdown_1_001
// 008   ----------------------------------------
	BYTE		N12     As1   v100
	BYTE	W12
	BYTE		        Bn1 
	BYTE	W12
	BYTE		        Cs2 
	BYTE	W12
	BYTE		        Ds2 
	BYTE	W12
	BYTE		N48     Fn2 
	BYTE	W48
// 009   ----------------------------------------
	BYTE		        Fs2 
	BYTE	W48
	BYTE		        Gn2 
	BYTE	W48
// 010   ----------------------------------------
	BYTE		N06     Fn1   v124
	BYTE	W06
	BYTE		N06   
	BYTE	W06
	BYTE		N06   
	BYTE	W06
	BYTE		N06   
	BYTE	W06
	BYTE		        Fn1   v120
	BYTE	W06
	BYTE		        Fn1   v072
	BYTE	W06
	BYTE		N06   
	BYTE	W06
	BYTE		N06   
	BYTE	W06
	BYTE		N06   
	BYTE	W06
	BYTE		N06   
	BYTE	W06
	BYTE		        Fn1   v120
	BYTE	W06
	BYTE		        Fn1   v072
	BYTE	W06
	BYTE		N06   
	BYTE	W06
	BYTE		N06   
	BYTE	W06
	BYTE		N06   
	BYTE	W06
	BYTE		N06   
	BYTE	W06
// 011   ----------------------------------------
FatefulShowdown_1_011:
	BYTE		N06     Fn1   v120
	BYTE	W06
	BYTE		        Fn1   v072
	BYTE	W06
	BYTE		N06   
	BYTE	W06
	BYTE		N06   
	BYTE	W06
	BYTE		        Fn1   v120
	BYTE	W06
	BYTE		        Fn1   v072
	BYTE	W06
	BYTE		N06   
	BYTE	W06
	BYTE		N06   
	BYTE	W06
	BYTE		        Fn1   v120
	BYTE	W06
	BYTE		        Fn1   v072
	BYTE	W06
	BYTE		N06   
	BYTE	W06
	BYTE		N06   
	BYTE	W06
	BYTE		        Fn1   v120
	BYTE	W06
	BYTE		        Fn1   v072
	BYTE	W06
	BYTE		N06   
	BYTE	W06
	BYTE		N06   
	BYTE	W06
	BYTE	PEND
// 012   ----------------------------------------
	BYTE		        Fs1   v120
	BYTE	W06
	BYTE		        Fs1   v072
	BYTE	W06
	BYTE		N06   
	BYTE	W06
	BYTE		N06   
	BYTE	W06
	BYTE		        Fs1   v120
	BYTE	W06
	BYTE		        Fs1   v072
	BYTE	W06
	BYTE		N06   
	BYTE	W06
	BYTE		N06   
	BYTE	W06
	BYTE		        Fs1   v120
	BYTE	W06
	BYTE		        Fs1   v072
	BYTE	W06
	BYTE		N06   
	BYTE	W06
	BYTE		N06   
	BYTE	W06
	BYTE		        Fs1   v120
	BYTE	W06
	BYTE		        Fs1   v072
	BYTE	W06
	BYTE		N06   
	BYTE	W06
	BYTE		N06   
	BYTE	W06
// 013   ----------------------------------------
	BYTE		        Gs1   v120
	BYTE	W06
	BYTE		        Gs1   v072
	BYTE	W06
	BYTE		N06   
	BYTE	W06
	BYTE		N06   
	BYTE	W06
	BYTE		        Gs1   v120
	BYTE	W06
	BYTE		        Gs1   v072
	BYTE	W06
	BYTE		N06   
	BYTE	W06
	BYTE		N06   
	BYTE	W06
	BYTE		        Gs1   v120
	BYTE	W06
	BYTE		        Gs1   v072
	BYTE	W06
	BYTE		N06   
	BYTE	W06
	BYTE		N06   
	BYTE	W06
	BYTE		        Gs1   v120
	BYTE	W06
	BYTE		        Gs1   v072
	BYTE	W06
	BYTE		N06   
	BYTE	W06
	BYTE		N06   
	BYTE	W06
// 014   ----------------------------------------
	BYTE	PATT
	 POIN2	FatefulShowdown_1_011
// 015   ----------------------------------------
	BYTE		N06     An1   v120
	BYTE	W06
	BYTE		        An1   v072
	BYTE	W06
	BYTE		N06   
	BYTE	W06
	BYTE		N06   
	BYTE	W06
	BYTE		        An1   v120
	BYTE	W06
	BYTE		        An1   v072
	BYTE	W06
	BYTE		N06   
	BYTE	W06
	BYTE		N06   
	BYTE	W06
	BYTE		        An1   v120
	BYTE	W06
	BYTE		        An1   v072
	BYTE	W06
	BYTE		N06   
	BYTE	W06
	BYTE		N06   
	BYTE	W06
	BYTE		        An1   v120
	BYTE	W06
	BYTE		        An1   v072
	BYTE	W06
	BYTE		N06   
	BYTE	W06
	BYTE		N06   
	BYTE	W06
// 016   ----------------------------------------
	BYTE		        An0   v100
	BYTE		N06     Gn1 
	BYTE	W12
	BYTE		N84     An0 
	BYTE		N84     Gn1 
	BYTE	W84
// 017   ----------------------------------------
	BYTE		N06     Bn0 
	BYTE		N06     An1 
	BYTE	W12
	BYTE		N84     Bn0 
	BYTE		N84     An1 
	BYTE	W84
// 018   ----------------------------------------
	BYTE		N06     Cn1 
	BYTE		N06     As1 
	BYTE	W12
	BYTE		N84     Cn1 
	BYTE		N84     As1 
	BYTE	W84
// 019   ----------------------------------------
	BYTE	W96
	BYTE	GoTo
	 POIN2	FatefulShowdown_1_B1
FatefulShowdown_1_B2:
// 020   ----------------------------------------
	BYTE	FINE

//**************** Track 2 (Midi-Chn.2) ****************//

FatefulShowdown_2:
	BYTE	KEYSH   FatefulShowdown_key+0
// 000   ----------------------------------------
	BYTE		VOICE   41
	BYTE		PAN     c_v-26
	BYTE		VOL     51*FatefulShowdown_mvl/mxv
	BYTE	W24
	BYTE		N24     As2   v088
	BYTE		N24     As3   v100
	BYTE	W24
	BYTE		N12     As2   v072
	BYTE		N12     As3 
	BYTE	W12
	BYTE		N24     Cn3   v100
	BYTE		N24     Cn4 
	BYTE	W24
	BYTE		N12     Cn3   v072
	BYTE		N12     Cn4 
	BYTE	W12
// 001   ----------------------------------------
	BYTE		N96     Cs3   v088
	BYTE		N96     Cs4   v100
	BYTE	W96
FatefulShowdown_2_B1:
// 002   ----------------------------------------
	BYTE		N12     As2   v100
	BYTE	W12
	BYTE		        As2   v072
	BYTE	W12
	BYTE		        As2   v056
	BYTE	W12
	BYTE		        Cn3   v100
	BYTE	W12
	BYTE		        Cn3   v072
	BYTE	W12
	BYTE		        Cn3   v056
	BYTE	W12
	BYTE		        An2   v100
	BYTE	W12
	BYTE		        An2   v072
	BYTE	W12
// 003   ----------------------------------------
	BYTE		        An2   v056
	BYTE	W12
	BYTE		        As2   v100
	BYTE	W12
	BYTE		        As2   v072
	BYTE	W12
	BYTE		        As2   v056
	BYTE	W12
	BYTE		        Gn2   v100
	BYTE	W12
	BYTE		        Gn2   v072
	BYTE	W12
	BYTE		        Gn2   v056
	BYTE		N12     An2   v100
	BYTE	W12
	BYTE		        An2   v072
	BYTE	W12
// 004   ----------------------------------------
	BYTE		        Fn2   v100
	BYTE		N12     An2   v056
	BYTE	W12
	BYTE		        Fn2   v072
	BYTE	W12
	BYTE		        Fn2   v056
	BYTE	W12
	BYTE		        Gn2   v100
	BYTE	W12
	BYTE		        Gn2   v072
	BYTE	W12
	BYTE		        Gn2   v056
	BYTE	W12
	BYTE		        Dn2   v100
	BYTE	W12
	BYTE		        Dn2   v072
	BYTE	W12
// 005   ----------------------------------------
	BYTE		        Dn2   v056
	BYTE	W12
	BYTE		        Ds2   v100
	BYTE	W12
	BYTE		        Ds2   v072
	BYTE	W12
	BYTE		        Ds2   v056
	BYTE	W12
	BYTE		        Fn2   v100
	BYTE	W12
	BYTE		        Fn2   v072
	BYTE	W12
	BYTE		        Fn2   v056
	BYTE		N12     Gn2   v100
	BYTE	W12
	BYTE		        Gn2   v072
	BYTE	W12
// 006   ----------------------------------------
	BYTE		        Gn2   v056
	BYTE		N06     Gn3   v100
	BYTE	W06
	BYTE		        Fn3 
	BYTE	W06
	BYTE		        Cn4 
	BYTE	W06
	BYTE		N78   
	BYTE	W78
// 007   ----------------------------------------
	BYTE		N06   
	BYTE	W06
	BYTE		        As3 
	BYTE	W06
	BYTE		        Cs4 
	BYTE	W06
	BYTE		N78   
	BYTE	W78
// 008   ----------------------------------------
	BYTE		N12   
	BYTE	W12
	BYTE		        Cn4 
	BYTE	W12
	BYTE		        Ds4 
	BYTE	W12
	BYTE		        Cs4 
	BYTE	W12
	BYTE		        Cn4 
	BYTE	W12
	BYTE		        As3 
	BYTE	W12
	BYTE		        Gs3 
	BYTE	W12
	BYTE		        Fs3 
	BYTE	W12
// 009   ----------------------------------------
	BYTE		        Fn3 
	BYTE	W12
	BYTE		        Ds3 
	BYTE	W12
	BYTE		        Fs3 
	BYTE	W12
	BYTE		        As3 
	BYTE	W12
	BYTE		        Cs4 
	BYTE	W12
	BYTE		        Cn4 
	BYTE	W12
	BYTE		        Ds4 
	BYTE	W12
	BYTE		        Cs4 
	BYTE	W12
// 010   ----------------------------------------
	BYTE		        Cn4 
	BYTE	W12
	BYTE		        Cn4   v072
	BYTE	W12
	BYTE		        Cn4   v056
	BYTE	W12
	BYTE		        Cn4   v028
	BYTE	W60
// 011   ----------------------------------------
	BYTE	W96
// 012   ----------------------------------------
	BYTE		N96     Cs3   v100
	BYTE		N96     As3   v080
	BYTE	W96
// 013   ----------------------------------------
	BYTE		        Ds3   v100
	BYTE		N96     Cn4   v080
	BYTE	W96
// 014   ----------------------------------------
	BYTE		        Fn3   v100
	BYTE		N96     Cs4   v080
	BYTE	W96
// 015   ----------------------------------------
	BYTE		        An3   v100
	BYTE		N96     Ds4   v080
	BYTE	W96
// 016   ----------------------------------------
FatefulShowdown_2_016:
	BYTE		N06     Dn4   v100
	BYTE	W06
	BYTE		        Dn4   v056
	BYTE	W06
	BYTE		N12     Dn4   v100
	BYTE	W12
	BYTE		        Dn4   v056
	BYTE	W12
	BYTE		        Dn4   v072
	BYTE	W12
	BYTE		        Dn4   v028
	BYTE	W12
	BYTE		        Dn4   v056
	BYTE	W36
	BYTE	PEND
// 017   ----------------------------------------
	BYTE	PATT
	 POIN2	FatefulShowdown_2_016
// 018   ----------------------------------------
	BYTE	PATT
	 POIN2	FatefulShowdown_2_016
// 019   ----------------------------------------
	BYTE		N48     Gn2   v100
	BYTE		N48     Gn3 
	BYTE	W48
	BYTE		        Fs2 
	BYTE		N48     Fs3 
	BYTE	W48
	BYTE	GoTo
	 POIN2	FatefulShowdown_2_B1
FatefulShowdown_2_B2:
// 020   ----------------------------------------
	BYTE	FINE

//**************** Track 3 (Midi-Chn.3) ****************//

FatefulShowdown_3:
	BYTE	KEYSH   FatefulShowdown_key+0
// 000   ----------------------------------------
	BYTE		VOICE   41
	BYTE		VOL     51*FatefulShowdown_mvl/mxv
	BYTE		N96     Gn1   v100
	BYTE	W96
// 001   ----------------------------------------
	BYTE		        Gs1 
	BYTE	W96
FatefulShowdown_3_B1:
// 002   ----------------------------------------
	BYTE	W96
// 003   ----------------------------------------
	BYTE	W96
// 004   ----------------------------------------
	BYTE	W96
// 005   ----------------------------------------
	BYTE	W96
// 006   ----------------------------------------
	BYTE	W48
	BYTE		N06     Gn4   v100
	BYTE	W06
	BYTE		        Dn4 
	BYTE		N06     Gn4   v056
	BYTE	W06
	BYTE		        An3   v100
	BYTE		N06     Dn4   v056
	BYTE	W06
	BYTE		        Fn3   v100
	BYTE		N06     An3   v056
	BYTE	W06
	BYTE		        Dn3   v100
	BYTE		N06     Fn3   v056
	BYTE	W06
	BYTE		        An2   v100
	BYTE		N06     Dn3   v056
	BYTE	W06
	BYTE		        En2   v100
	BYTE		N06     An2   v056
	BYTE	W06
	BYTE		        Bn1   v100
	BYTE		N06     En2   v056
	BYTE	W06
// 007   ----------------------------------------
	BYTE		        Bn1 
	BYTE	W48
	BYTE		        Gs4   v100
	BYTE	W06
	BYTE		        Ds4 
	BYTE		N06     Gs4   v056
	BYTE	W06
	BYTE		        As3   v100
	BYTE		N06     Ds4   v056
	BYTE	W06
	BYTE		        Fs3   v100
	BYTE		N06     As3   v056
	BYTE	W06
	BYTE		        Ds3   v100
	BYTE		N06     Fs3   v056
	BYTE		N06     Ds4   v100
	BYTE	W06
	BYTE		        As2 
	BYTE		N06     Ds3   v056
	BYTE		N06     As3   v100
	BYTE		N06     Ds4   v056
	BYTE	W06
	BYTE		        Fn2   v100
	BYTE		N06     As2   v056
	BYTE		N06     Fn3   v100
	BYTE		N06     As3   v056
	BYTE	W06
	BYTE		        Cn2   v100
	BYTE		N06     Fn2   v056
	BYTE		N06     Cs3   v100
	BYTE		N06     Fn3   v056
	BYTE	W06
// 008   ----------------------------------------
	BYTE		        Cn2 
	BYTE		N06     Cs3 
	BYTE	W96
// 009   ----------------------------------------
	BYTE	W96
// 010   ----------------------------------------
	BYTE	W96
// 011   ----------------------------------------
	BYTE	W96
// 012   ----------------------------------------
	BYTE	W96
// 013   ----------------------------------------
	BYTE	W96
// 014   ----------------------------------------
	BYTE	W96
// 015   ----------------------------------------
	BYTE	W96
// 016   ----------------------------------------
	BYTE		N96     Gn2   v072
	BYTE	W96
// 017   ----------------------------------------
	BYTE		        An2 
	BYTE	W96
// 018   ----------------------------------------
	BYTE		        As2 
	BYTE	W96
// 019   ----------------------------------------
	BYTE	W96
	BYTE	GoTo
	 POIN2	FatefulShowdown_3_B1
FatefulShowdown_3_B2:
// 020   ----------------------------------------
	BYTE	FINE

//**************** Track 4 (Midi-Chn.4) ****************//

FatefulShowdown_4:
	BYTE	KEYSH   FatefulShowdown_key+0
// 000   ----------------------------------------
	BYTE		VOICE   57
	BYTE		PAN     c_v+26
	BYTE		VOL     51*FatefulShowdown_mvl/mxv
	BYTE	W24
	BYTE		N24     As2   v088
	BYTE		N24     As3   v100
	BYTE	W24
	BYTE		N12     As2   v072
	BYTE		N12     As3 
	BYTE	W12
	BYTE		N24     Cn3   v100
	BYTE		N24     Cn4 
	BYTE	W24
	BYTE		N12     Cn3   v072
	BYTE		N12     Cn4 
	BYTE	W12
// 001   ----------------------------------------
	BYTE		N96     Cs3   v088
	BYTE		N96     Cs4   v100
	BYTE	W96
FatefulShowdown_4_B1:
// 002   ----------------------------------------
	BYTE		N12     As3   v100
	BYTE	W12
	BYTE		        As3   v072
	BYTE	W12
	BYTE		        As3   v056
	BYTE	W12
	BYTE		        Cn4   v100
	BYTE	W12
	BYTE		        Cn4   v072
	BYTE	W12
	BYTE		        Cn4   v056
	BYTE	W12
	BYTE		        An3   v100
	BYTE	W12
	BYTE		        An3   v072
	BYTE	W12
// 003   ----------------------------------------
	BYTE		        An3   v056
	BYTE	W12
	BYTE		        As3   v100
	BYTE	W12
	BYTE		        As3   v072
	BYTE	W12
	BYTE		        As3   v056
	BYTE	W12
	BYTE		        Gn3   v100
	BYTE	W12
	BYTE		        Gn3   v072
	BYTE	W12
	BYTE		        Gn3   v056
	BYTE		N12     An3   v100
	BYTE	W12
	BYTE		        An3   v072
	BYTE	W12
// 004   ----------------------------------------
	BYTE		        Fn3   v100
	BYTE		N12     An3   v056
	BYTE	W12
	BYTE		        Fn3   v072
	BYTE	W12
	BYTE		        Fn3   v056
	BYTE	W12
	BYTE		        Gn3   v100
	BYTE	W12
	BYTE		        Gn3   v072
	BYTE	W12
	BYTE		        Gn3   v056
	BYTE	W12
	BYTE		        Dn3   v100
	BYTE	W12
	BYTE		        Dn3   v072
	BYTE	W12
// 005   ----------------------------------------
	BYTE		        Dn3   v056
	BYTE	W12
	BYTE		        Ds3   v100
	BYTE	W12
	BYTE		        Ds3   v072
	BYTE	W12
	BYTE		        Ds3   v056
	BYTE	W12
	BYTE		        Fn3   v100
	BYTE	W12
	BYTE		        Fn3   v072
	BYTE	W12
	BYTE		        Fn3   v056
	BYTE		N12     Gn3   v100
	BYTE	W12
	BYTE		        Gn3   v072
	BYTE	W12
// 006   ----------------------------------------
	BYTE		N96     Gn3   v100
	BYTE	W96
// 007   ----------------------------------------
	BYTE		        Gs3 
	BYTE	W96
// 008   ----------------------------------------
	BYTE	W96
// 009   ----------------------------------------
	BYTE	W96
// 010   ----------------------------------------
	BYTE	W24
	BYTE		N12     Fn3 
	BYTE		N12     Fn4   v072
	BYTE	W12
	BYTE		        Fn3 
	BYTE		N12     Fn4   v056
	BYTE	W12
	BYTE		        Fn3 
	BYTE		N12     Fn4   v028
	BYTE	W12
	BYTE		        Fs3   v100
	BYTE		N12     Fs4   v072
	BYTE	W12
	BYTE		        Fs3 
	BYTE		N12     Fs4   v056
	BYTE	W12
	BYTE		        Fs3 
	BYTE		N12     Fs4   v028
	BYTE	W12
// 011   ----------------------------------------
	BYTE		        Fn3   v100
	BYTE		N12     Fn4   v072
	BYTE	W12
	BYTE		        Fn3 
	BYTE		N12     Fn4   v056
	BYTE	W12
	BYTE		        Fn3 
	BYTE		N12     Fn4   v028
	BYTE	W24
	BYTE		N06     Gs3   v100
	BYTE		N06     Gs4   v072
	BYTE	W06
	BYTE		        Gs3 
	BYTE		N06     Gs4   v028
	BYTE	W06
	BYTE		N24     Fs3   v100
	BYTE		N24     Fs4   v072
	BYTE	W24
	BYTE		N06     Fs3 
	BYTE		N06     Fs4   v028
	BYTE	W12
// 012   ----------------------------------------
	BYTE	W96
// 013   ----------------------------------------
	BYTE	W96
// 014   ----------------------------------------
	BYTE	W96
// 015   ----------------------------------------
	BYTE	W96
// 016   ----------------------------------------
	BYTE	W96
// 017   ----------------------------------------
	BYTE	W96
// 018   ----------------------------------------
	BYTE	W96
// 019   ----------------------------------------
	BYTE	W96
	BYTE	GoTo
	 POIN2	FatefulShowdown_4_B1
FatefulShowdown_4_B2:
// 020   ----------------------------------------
	BYTE	FINE

//**************** Track 5 (Midi-Chn.5) ****************//

FatefulShowdown_5:
	BYTE	KEYSH   FatefulShowdown_key+0
// 000   ----------------------------------------
	BYTE		VOICE   28
	BYTE		VOL     51*FatefulShowdown_mvl/mxv
	BYTE	W96
// 001   ----------------------------------------
	BYTE	W96
FatefulShowdown_5_B1:
// 002   ----------------------------------------
FatefulShowdown_5_002:
	BYTE		N12     Gn1   v100
	BYTE	W12
	BYTE		        Fs0 
	BYTE	W12
	BYTE		N12   
	BYTE	W12
	BYTE		        Gn1 
	BYTE	W12
	BYTE		        Fs0 
	BYTE	W12
	BYTE		N12   
	BYTE	W12
	BYTE		        Gn1 
	BYTE	W12
	BYTE		        Fs0 
	BYTE	W12
	BYTE	PEND
// 003   ----------------------------------------
FatefulShowdown_5_003:
	BYTE		N12     Fs0   v100
	BYTE	W12
	BYTE		        Gn1 
	BYTE	W12
	BYTE		        Fs0 
	BYTE	W12
	BYTE		N12   
	BYTE	W12
	BYTE		        Gn1 
	BYTE	W12
	BYTE		        Fs0 
	BYTE	W12
	BYTE		        Gn1 
	BYTE	W12
	BYTE		        Fs0 
	BYTE	W12
	BYTE	PEND
// 004   ----------------------------------------
	BYTE	PATT
	 POIN2	FatefulShowdown_5_002
// 005   ----------------------------------------
	BYTE	PATT
	 POIN2	FatefulShowdown_5_003
// 006   ----------------------------------------
	BYTE		N96     Gn0   v100
	BYTE		N96     Gn1 
	BYTE		N96     Gn2 
	BYTE	W96
// 007   ----------------------------------------
	BYTE		        Gs0 
	BYTE		N96     Gs1 
	BYTE		N96     Gs2 
	BYTE	W96
// 008   ----------------------------------------
	BYTE		N12     As0 
	BYTE	W12
	BYTE		        Bn0 
	BYTE	W12
	BYTE		        Cs1 
	BYTE	W12
	BYTE		        Ds1 
	BYTE	W12
	BYTE		N48     Fn1 
	BYTE	W48
// 009   ----------------------------------------
	BYTE		        Fs1 
	BYTE	W48
	BYTE		        Gn1 
	BYTE	W48
// 010   ----------------------------------------
	BYTE		N06     Fn1 
	BYTE	W06
	BYTE		N06   
	BYTE	W06
	BYTE		N06   
	BYTE	W06
	BYTE		N06   
	BYTE	W06
	BYTE		N12   
	BYTE	W12
	BYTE		N06     Fn1   v072
	BYTE	W06
	BYTE		N06   
	BYTE	W06
	BYTE		N06   
	BYTE	W06
	BYTE		N06   
	BYTE	W06
	BYTE		N12     Fn1   v100
	BYTE	W12
	BYTE		N06     Fn1   v072
	BYTE	W06
	BYTE		N06   
	BYTE	W06
	BYTE		N06   
	BYTE	W06
	BYTE		N06   
	BYTE	W06
// 011   ----------------------------------------
FatefulShowdown_5_011:
	BYTE		N12     Fn1   v100
	BYTE	W12
	BYTE		N06     Fn1   v072
	BYTE	W06
	BYTE		N06   
	BYTE	W06
	BYTE		N12     Fn1   v100
	BYTE	W12
	BYTE		N06     Fn1   v072
	BYTE	W06
	BYTE		N06   
	BYTE	W06
	BYTE		N12     Fn1   v100
	BYTE	W12
	BYTE		N06     Fn1   v072
	BYTE	W06
	BYTE		N06   
	BYTE	W06
	BYTE		N12     Fn1   v100
	BYTE	W12
	BYTE		N06     Fn1   v072
	BYTE	W06
	BYTE		N06   
	BYTE	W06
	BYTE	PEND
// 012   ----------------------------------------
	BYTE		N12     Fs1   v100
	BYTE	W12
	BYTE		N06     Fs1   v072
	BYTE	W06
	BYTE		N06   
	BYTE	W06
	BYTE		N12     Fs1   v100
	BYTE	W12
	BYTE		N06     Fs1   v072
	BYTE	W06
	BYTE		N06   
	BYTE	W06
	BYTE		N12     Fs1   v100
	BYTE	W12
	BYTE		N06     Fs1   v072
	BYTE	W06
	BYTE		N06   
	BYTE	W06
	BYTE		N12     Fs1   v100
	BYTE	W12
	BYTE		N06     Fs1   v072
	BYTE	W06
	BYTE		N06   
	BYTE	W06
// 013   ----------------------------------------
	BYTE		N12     Gs1   v100
	BYTE	W12
	BYTE		N06     Gs1   v072
	BYTE	W06
	BYTE		N06   
	BYTE	W06
	BYTE		N12     Gs1   v100
	BYTE	W12
	BYTE		N06     Gs1   v072
	BYTE	W06
	BYTE		N06   
	BYTE	W06
	BYTE		N12     Gs1   v100
	BYTE	W12
	BYTE		N06     Gs1   v072
	BYTE	W06
	BYTE		N06   
	BYTE	W06
	BYTE		N12     Gs1   v100
	BYTE	W12
	BYTE		N06     Gs1   v072
	BYTE	W06
	BYTE		N06   
	BYTE	W06
// 014   ----------------------------------------
	BYTE	PATT
	 POIN2	FatefulShowdown_5_011
// 015   ----------------------------------------
	BYTE		N12     An1   v100
	BYTE	W12
	BYTE		N06     An1   v072
	BYTE	W06
	BYTE		N06   
	BYTE	W06
	BYTE		N12     An1   v100
	BYTE	W12
	BYTE		N06     An1   v072
	BYTE	W06
	BYTE		N06   
	BYTE	W06
	BYTE		N12     An1   v100
	BYTE	W12
	BYTE		N06     An1   v072
	BYTE	W06
	BYTE		N06   
	BYTE	W06
	BYTE		N12     An1   v100
	BYTE	W12
	BYTE		N06     An1   v072
	BYTE	W06
	BYTE		N06   
	BYTE	W06
// 016   ----------------------------------------
	BYTE		        An0   v100
	BYTE		N06     Gn1 
	BYTE	W12
	BYTE		N12     An0 
	BYTE		N12     Gn1 
	BYTE	W84
// 017   ----------------------------------------
	BYTE		N06     Bn0 
	BYTE		N06     An1 
	BYTE	W12
	BYTE		N12     Bn0 
	BYTE		N12     An1 
	BYTE	W84
// 018   ----------------------------------------
	BYTE		N06     Cn1 
	BYTE		N06     As1 
	BYTE	W12
	BYTE		N12     Cn1 
	BYTE		N12     As1 
	BYTE	W84
// 019   ----------------------------------------
	BYTE	W96
	BYTE	GoTo
	 POIN2	FatefulShowdown_5_B1
FatefulShowdown_5_B2:
// 020   ----------------------------------------
	BYTE	FINE

//**************** Track 6 (Midi-Chn.6) ****************//

FatefulShowdown_6:
	BYTE	KEYSH   FatefulShowdown_key+0
// 000   ----------------------------------------
	BYTE		VOICE   61
	BYTE		VOL     51*FatefulShowdown_mvl/mxv
	BYTE	W96
// 001   ----------------------------------------
	BYTE	W96
FatefulShowdown_6_B1:
// 002   ----------------------------------------
	BYTE	W96
// 003   ----------------------------------------
	BYTE	W48
	BYTE		N12     As1   v100
	BYTE	W12
	BYTE		        Fn2   v104
	BYTE	W12
	BYTE		        Ds2 
	BYTE	W12
	BYTE		        Gn2 
	BYTE	W12
// 004   ----------------------------------------
	BYTE	W96
// 005   ----------------------------------------
	BYTE	W48
	BYTE		        As1 
	BYTE	W12
	BYTE		        Fn2 
	BYTE	W12
	BYTE		        Ds2 
	BYTE	W12
	BYTE		        Gn2 
	BYTE	W12
// 006   ----------------------------------------
	BYTE		N96     Gn2   v100
	BYTE	W96
// 007   ----------------------------------------
	BYTE		        Gs2 
	BYTE	W96
// 008   ----------------------------------------
	BYTE		N12     As1 
	BYTE	W12
	BYTE		        Bn1 
	BYTE	W12
	BYTE		        Cs2 
	BYTE	W12
	BYTE		        Ds2 
	BYTE	W12
	BYTE		N48     Fn2 
	BYTE	W48
// 009   ----------------------------------------
	BYTE		        Fs2 
	BYTE	W48
	BYTE		        Gn2 
	BYTE	W48
// 010   ----------------------------------------
	BYTE	W96
// 011   ----------------------------------------
	BYTE	W96
// 012   ----------------------------------------
	BYTE	W96
// 013   ----------------------------------------
	BYTE	W96
// 014   ----------------------------------------
	BYTE	W96
// 015   ----------------------------------------
	BYTE	W96
// 016   ----------------------------------------
FatefulShowdown_6_016:
	BYTE		N06     Dn4   v100
	BYTE	W06
	BYTE		        Dn4   v056
	BYTE	W06
	BYTE		N12     Dn4   v100
	BYTE	W12
	BYTE		        Dn4   v072
	BYTE	W12
	BYTE		        Dn4   v056
	BYTE	W12
	BYTE		        Dn4   v028
	BYTE	W48
	BYTE	PEND
// 017   ----------------------------------------
	BYTE	PATT
	 POIN2	FatefulShowdown_6_016
// 018   ----------------------------------------
	BYTE	PATT
	 POIN2	FatefulShowdown_6_016
// 019   ----------------------------------------
	BYTE	W96
	BYTE	GoTo
	 POIN2	FatefulShowdown_6_B1
FatefulShowdown_6_B2:
// 020   ----------------------------------------
	BYTE	FINE

//**************** Track 7 (Midi-Chn.7) ****************//

FatefulShowdown_7:
	BYTE	KEYSH   FatefulShowdown_key+0
// 000   ----------------------------------------
	BYTE		VOICE   52
	BYTE		VOL     51*FatefulShowdown_mvl/mxv
	BYTE	W96
// 001   ----------------------------------------
	BYTE	W96
FatefulShowdown_7_B1:
// 002   ----------------------------------------
	BYTE	W96
// 003   ----------------------------------------
	BYTE	W96
// 004   ----------------------------------------
	BYTE	W96
// 005   ----------------------------------------
	BYTE	W96
// 006   ----------------------------------------
	BYTE	W96
// 007   ----------------------------------------
	BYTE	W96
// 008   ----------------------------------------
	BYTE	W96
// 009   ----------------------------------------
	BYTE	W96
// 010   ----------------------------------------
	BYTE	W96
// 011   ----------------------------------------
	BYTE	W96
// 012   ----------------------------------------
	BYTE		N96     As3   v080
	BYTE	W96
// 013   ----------------------------------------
	BYTE		        Cn4 
	BYTE	W96
// 014   ----------------------------------------
	BYTE		        Cs4 
	BYTE	W96
// 015   ----------------------------------------
	BYTE		        Ds4 
	BYTE	W96
// 016   ----------------------------------------
	BYTE	W96
// 017   ----------------------------------------
	BYTE	W96
// 018   ----------------------------------------
	BYTE	W96
// 019   ----------------------------------------
	BYTE	W96
	BYTE	GoTo
	 POIN2	FatefulShowdown_7_B1
FatefulShowdown_7_B2:
// 020   ----------------------------------------
	BYTE	FINE

//**************** Track 8 (Midi-Chn.8) ****************//

FatefulShowdown_8:
	BYTE	KEYSH   FatefulShowdown_key+0
// 000   ----------------------------------------
	BYTE		VOICE   30
	BYTE		VOL     63*FatefulShowdown_mvl/mxv
	BYTE		N96     Gn1   v112
	BYTE	W96
// 001   ----------------------------------------
	BYTE		        Gs1 
	BYTE	W96
FatefulShowdown_8_B1:
// 002   ----------------------------------------
FatefulShowdown_8_002:
	BYTE		N12     Gn1   v112
	BYTE	W12
	BYTE		N06     Gn0 
	BYTE	W12
	BYTE		N06   
	BYTE	W12
	BYTE		N12     Gn1 
	BYTE	W12
	BYTE		N06     Gn0 
	BYTE	W12
	BYTE		N06   
	BYTE	W12
	BYTE		N12     Gn1 
	BYTE	W12
	BYTE		N06     Gn0 
	BYTE	W12
	BYTE	PEND
// 003   ----------------------------------------
FatefulShowdown_8_003:
	BYTE		N06     Gn0   v112
	BYTE	W12
	BYTE		N12     Gn1 
	BYTE	W12
	BYTE		N06     Gn0 
	BYTE	W12
	BYTE		N06   
	BYTE		N12     Gn1 
	BYTE	W24
	BYTE		N06     Gn0 
	BYTE	W12
	BYTE		N12     Gn1 
	BYTE	W12
	BYTE		N06     Gn0 
	BYTE	W12
	BYTE	PEND
// 004   ----------------------------------------
	BYTE	PATT
	 POIN2	FatefulShowdown_8_002
// 005   ----------------------------------------
	BYTE	PATT
	 POIN2	FatefulShowdown_8_003
// 006   ----------------------------------------
	BYTE		N96     Gn1   v100
	BYTE	W96
// 007   ----------------------------------------
	BYTE		        Gs1 
	BYTE	W96
// 008   ----------------------------------------
	BYTE	W96
// 009   ----------------------------------------
	BYTE	W96
// 010   ----------------------------------------
	BYTE		N06     Fn1   v112
	BYTE	W06
	BYTE		N06   
	BYTE	W06
	BYTE		N06   
	BYTE	W06
	BYTE		N06   
	BYTE	W06
	BYTE		N12   
	BYTE	W12
	BYTE		N06     Fn1   v072
	BYTE	W06
	BYTE		N06   
	BYTE	W06
	BYTE		N06   
	BYTE	W06
	BYTE		N06   
	BYTE	W06
	BYTE		N12     Fn1   v112
	BYTE	W12
	BYTE		N06     Fn1   v072
	BYTE	W06
	BYTE		N06   
	BYTE	W06
	BYTE		N06   
	BYTE	W06
	BYTE		N06   
	BYTE	W06
// 011   ----------------------------------------
FatefulShowdown_8_011:
	BYTE		N12     Fn1   v112
	BYTE	W12
	BYTE		N06     Fn1   v072
	BYTE	W06
	BYTE		N06   
	BYTE	W06
	BYTE		N12     Fn1   v112
	BYTE	W12
	BYTE		N06     Fn1   v072
	BYTE	W06
	BYTE		N06   
	BYTE	W06
	BYTE		N12     Fn1   v112
	BYTE	W12
	BYTE		N06     Fn1   v072
	BYTE	W06
	BYTE		N06   
	BYTE	W06
	BYTE		N12     Fn1   v112
	BYTE	W12
	BYTE		N06     Fn1   v072
	BYTE	W06
	BYTE		N06   
	BYTE	W06
	BYTE	PEND
// 012   ----------------------------------------
	BYTE		N12     Fs1   v112
	BYTE	W12
	BYTE		N06     Fs1   v072
	BYTE	W06
	BYTE		N06   
	BYTE	W06
	BYTE		N12     Fs1   v112
	BYTE	W12
	BYTE		N06     Fs1   v072
	BYTE	W06
	BYTE		N06   
	BYTE	W06
	BYTE		N12     Fs1   v112
	BYTE	W12
	BYTE		N06     Fs1   v072
	BYTE	W06
	BYTE		N06   
	BYTE	W06
	BYTE		N12     Fs1   v112
	BYTE	W12
	BYTE		N06     Fs1   v072
	BYTE	W06
	BYTE		N06   
	BYTE	W06
// 013   ----------------------------------------
	BYTE		N12     Gs1   v112
	BYTE	W12
	BYTE		N06     Gs1   v072
	BYTE	W06
	BYTE		N06   
	BYTE	W06
	BYTE		N12     Gs1   v112
	BYTE	W12
	BYTE		N06     Gs1   v072
	BYTE	W06
	BYTE		N06   
	BYTE	W06
	BYTE		N12     Gs1   v112
	BYTE	W12
	BYTE		N06     Gs1   v072
	BYTE	W06
	BYTE		N06   
	BYTE	W06
	BYTE		N12     Gs1   v112
	BYTE	W12
	BYTE		N06     Gs1   v072
	BYTE	W06
	BYTE		N06   
	BYTE	W06
// 014   ----------------------------------------
	BYTE	PATT
	 POIN2	FatefulShowdown_8_011
// 015   ----------------------------------------
	BYTE		N12     An1   v112
	BYTE	W12
	BYTE		N06     An1   v072
	BYTE	W06
	BYTE		N06   
	BYTE	W06
	BYTE		N12     An1   v112
	BYTE	W12
	BYTE		N06     An1   v072
	BYTE	W06
	BYTE		N06   
	BYTE	W06
	BYTE		N12     An1   v112
	BYTE	W12
	BYTE		N06     An1   v072
	BYTE	W06
	BYTE		N06   
	BYTE	W06
	BYTE		N12     An1   v112
	BYTE	W12
	BYTE		N06     An1   v072
	BYTE	W06
	BYTE		N06   
	BYTE	W06
// 016   ----------------------------------------
	BYTE		N96     Gn1   v112
	BYTE	W96
// 017   ----------------------------------------
	BYTE		        An1 
	BYTE	W96
// 018   ----------------------------------------
	BYTE		        As1 
	BYTE	W96
// 019   ----------------------------------------
	BYTE		N48     Gn1 
	BYTE	W48
	BYTE		        Fs1 
	BYTE	W48
	BYTE	GoTo
	 POIN2	FatefulShowdown_8_B1
FatefulShowdown_8_B2:
// 020   ----------------------------------------
	BYTE	FINE

//**************** Track 9 (Midi-Chn.9) ****************//

FatefulShowdown_9:
	BYTE	KEYSH   FatefulShowdown_key+0
// 000   ----------------------------------------
	BYTE		VOICE   31
	BYTE		VOL     51*FatefulShowdown_mvl/mxv
	BYTE	W96
// 001   ----------------------------------------
	BYTE	W96
FatefulShowdown_9_B1:
// 002   ----------------------------------------
	BYTE	W96
// 003   ----------------------------------------
	BYTE	W96
// 004   ----------------------------------------
	BYTE	W96
// 005   ----------------------------------------
	BYTE	W96
// 006   ----------------------------------------
	BYTE	W96
// 007   ----------------------------------------
	BYTE	W72
	BYTE		N36     Ds3   v100
	BYTE	W24
// 008   ----------------------------------------
	BYTE	W96
// 009   ----------------------------------------
	BYTE	W96
// 010   ----------------------------------------
	BYTE	W96
// 011   ----------------------------------------
	BYTE	W96
// 012   ----------------------------------------
	BYTE	W96
// 013   ----------------------------------------
	BYTE	W96
// 014   ----------------------------------------
	BYTE	W96
// 015   ----------------------------------------
	BYTE	W96
// 016   ----------------------------------------
	BYTE	W96
// 017   ----------------------------------------
	BYTE	W96
// 018   ----------------------------------------
	BYTE	W96
// 019   ----------------------------------------
	BYTE	W72
	BYTE		N24     En3 
	BYTE	W24
	BYTE	GoTo
	 POIN2	FatefulShowdown_9_B1
FatefulShowdown_9_B2:
// 020   ----------------------------------------
	BYTE	FINE

//**************** Track 10 (Midi-Chn.10) ****************//

FatefulShowdown_10:
	BYTE	KEYSH   FatefulShowdown_key+0
// 000   ----------------------------------------
	BYTE		VOICE   127
	BYTE		VOL     57*FatefulShowdown_mvl/mxv
	BYTE		N96     Cs2   v100
	BYTE		N96     Gn2 
	BYTE		N96     An2   v072
	BYTE	W24
	BYTE		N12     Cn1   v100
	BYTE	W36
	BYTE		N12   
	BYTE	W36
// 001   ----------------------------------------
	BYTE		N12   
	BYTE		N12     Dn1   v127
	BYTE	W24
	BYTE		        Cn1   v100
	BYTE		N12     Dn1   v127
	BYTE	W24
	BYTE		        Cn1   v100
	BYTE		N06     Dn1   v127
	BYTE	W06
	BYTE		N06   
	BYTE	W06
	BYTE		N06   
	BYTE	W06
	BYTE		N06   
	BYTE	W06
	BYTE		N12     Cn1   v100
	BYTE		N06     Dn1   v127
	BYTE	W06
	BYTE		N06   
	BYTE	W06
	BYTE		N06   
	BYTE	W06
	BYTE		N06   
	BYTE	W06
FatefulShowdown_10_B1:
// 002   ----------------------------------------
	BYTE		N12     Cn1   v100
	BYTE		N96     Cs2 
	BYTE		N96     Gn2 
	BYTE		N96     An2   v072
	BYTE	W36
	BYTE		N12     Cn1   v100
	BYTE	W36
	BYTE		N12   
	BYTE	W24
// 003   ----------------------------------------
	BYTE	W12
	BYTE		N12   
	BYTE	W24
	BYTE		N12   
	BYTE	W24
	BYTE		        As1 
	BYTE	W12
	BYTE		        Cn1 
	BYTE		N12     Dn1 
	BYTE	W12
	BYTE		        Dn1   v072
	BYTE		N12     As1   v100
	BYTE	W12
// 004   ----------------------------------------
	BYTE		        Cn1 
	BYTE	W36
	BYTE		N12   
	BYTE	W36
	BYTE		N12   
	BYTE	W24
// 005   ----------------------------------------
	BYTE	W12
	BYTE		N12   
	BYTE	W24
	BYTE		N12   
	BYTE	W12
	BYTE		N12   
	BYTE	W12
	BYTE		        As1 
	BYTE	W12
	BYTE		        Cn1 
	BYTE		N12     Dn1 
	BYTE	W12
	BYTE		        Dn1   v072
	BYTE		N12     As1   v100
	BYTE	W12
// 006   ----------------------------------------
	BYTE		N96     Cs2 
	BYTE		N96     Gn2 
	BYTE		N96     An2   v072
	BYTE	W48
	BYTE		N06     En1   v100
	BYTE	W06
	BYTE		N06   
	BYTE	W06
	BYTE		N06   
	BYTE	W06
	BYTE		N06   
	BYTE	W06
	BYTE		        Dn1 
	BYTE	W06
	BYTE		N06   
	BYTE	W06
	BYTE		N06   
	BYTE	W06
	BYTE		N06   
	BYTE	W06
// 007   ----------------------------------------
	BYTE		N96     Cs2 
	BYTE		N96     Gn2 
	BYTE		N96     An2   v072
	BYTE	W48
	BYTE		N06     Dn1   v100
	BYTE	W06
	BYTE		N06   
	BYTE	W06
	BYTE		N06   
	BYTE	W06
	BYTE		N06   
	BYTE	W06
	BYTE		        Cn1 
	BYTE	W06
	BYTE		N06   
	BYTE	W06
	BYTE		N06   
	BYTE	W06
	BYTE		N06   
	BYTE	W06
// 008   ----------------------------------------
	BYTE		N12   
	BYTE	W24
	BYTE		N12   
	BYTE	W24
	BYTE		N12   
	BYTE	W24
	BYTE		N12   
	BYTE	W24
// 009   ----------------------------------------
	BYTE		N12   
	BYTE		N12     Dn1 
	BYTE		N12     As1 
	BYTE	W24
	BYTE		        Cn1 
	BYTE		N12     Dn1 
	BYTE		N12     As1 
	BYTE	W24
	BYTE		        Cn1 
	BYTE		N12     Dn1 
	BYTE		N12     As1 
	BYTE	W24
	BYTE		N06     Cn1 
	BYTE		N12     Dn1 
	BYTE		N12     As1 
	BYTE	W06
	BYTE		N06     Cn1 
	BYTE	W06
	BYTE		N06   
	BYTE	W06
	BYTE		N06   
	BYTE	W06
// 010   ----------------------------------------
	BYTE		N12     As1 
	BYTE		N96     Cs2 
	BYTE		N96     Gn2 
	BYTE		N96     An2   v072
	BYTE	W24
	BYTE		N12     As1   v100
	BYTE	W24
	BYTE		N12   
	BYTE	W24
	BYTE		N12   
	BYTE	W24
// 011   ----------------------------------------
FatefulShowdown_10_011:
	BYTE		N12     Cn1   v100
	BYTE		N12     As1 
	BYTE	W24
	BYTE		        Cn1 
	BYTE		N12     As1 
	BYTE	W24
	BYTE		        Cn1 
	BYTE		N12     As1 
	BYTE	W24
	BYTE		        Cn1 
	BYTE		N12     As1 
	BYTE	W24
	BYTE	PEND
// 012   ----------------------------------------
	BYTE		N12   
	BYTE	W24
	BYTE		N12   
	BYTE	W24
	BYTE		N12   
	BYTE	W24
	BYTE		N12   
	BYTE	W24
// 013   ----------------------------------------
	BYTE	PATT
	 POIN2	FatefulShowdown_10_011
// 014   ----------------------------------------
FatefulShowdown_10_014:
	BYTE		N12     Cn1   v100
	BYTE		N12     Dn1 
	BYTE		N12     As1 
	BYTE	W24
	BYTE		        Cn1 
	BYTE		N12     Dn1 
	BYTE		N12     As1 
	BYTE	W24
	BYTE		        Cn1 
	BYTE		N12     Dn1 
	BYTE		N12     As1 
	BYTE	W24
	BYTE		        Cn1 
	BYTE		N12     Dn1 
	BYTE		N12     As1 
	BYTE	W24
	BYTE	PEND
// 015   ----------------------------------------
	BYTE	PATT
	 POIN2	FatefulShowdown_10_014
// 016   ----------------------------------------
FatefulShowdown_10_016:
	BYTE		N96     Cs2   v100
	BYTE		N96     Gn2 
	BYTE		N96     An2   v072
	BYTE	W24
	BYTE		N12     Cn1   v100
	BYTE	W24
	BYTE		N12   
	BYTE	W24
	BYTE		N12   
	BYTE	W24
	BYTE	PEND
// 017   ----------------------------------------
	BYTE	PATT
	 POIN2	FatefulShowdown_10_016
// 018   ----------------------------------------
	BYTE	PATT
	 POIN2	FatefulShowdown_10_016
// 019   ----------------------------------------
	BYTE		N12     Cn1   v100
	BYTE		N12     Dn1 
	BYTE	W24
	BYTE		        Cn1 
	BYTE		N12     Dn1 
	BYTE	W24
	BYTE		        Cn1 
	BYTE		N12     Dn1 
	BYTE	W24
	BYTE		        Cn1 
	BYTE		N12     Dn1 
	BYTE	W24
	BYTE	GoTo
	 POIN2	FatefulShowdown_10_B1
FatefulShowdown_10_B2:
// 020   ----------------------------------------
	BYTE	FINE

//******************************************************//
	ALIGN 4

FatefulShowdown:
	BYTE	10	// NumTrks
	BYTE	0	// NumBlks
	BYTE	FatefulShowdown_pri	// Priority
	BYTE	FatefulShowdown_rev	// Reverb.

	POIN2	FatefulShowdown_grp

	POIN2	FatefulShowdown_1
	POIN2	FatefulShowdown_2
	POIN2	FatefulShowdown_3
	POIN2	FatefulShowdown_4
	POIN2	FatefulShowdown_5
	POIN2	FatefulShowdown_6
	POIN2	FatefulShowdown_7
	POIN2	FatefulShowdown_8
	POIN2	FatefulShowdown_9
	POIN2	FatefulShowdown_10

	
