//Event file generated from Sappy .s format.
	#include "MPlayDef.event"

	#define	GritsTheme_grp  GritsThemeInstrumentTable
	#define	GritsTheme_pri  10
	#define	GritsTheme_rev  128
	#define	GritsTheme_mvl  127
	#define	GritsTheme_key  0
	#define	GritsTheme_tbs  1
	#define	GritsTheme_exg  0
	#define	GritsTheme_cmp  1

	// .rodata
	//	GritsTheme
	ALIGN 4


//**************** Track 1 (Midi-Chn.0) ****************//

GritsTheme_001:
// 000   ----------------------------------------
 BYTE   KEYSH   GritsTheme_key+0
 BYTE   TEMPO   106*GritsTheme_tbs/2
 BYTE   VOICE   0
 BYTE   VOL   55*GritsTheme_mvl/mxv
 BYTE   W96
// 001   ----------------------------------------
 BYTE   W22
 BYTE   TEMPO   98*GritsTheme_tbs/2
 BYTE   W12
 BYTE   TEMPO   94*GritsTheme_tbs/2
 BYTE   W12
 BYTE   TEMPO   90*GritsTheme_tbs/2
 BYTE   W12
 BYTE   TEMPO   86*GritsTheme_tbs/2
 BYTE   W12
 BYTE   TEMPO   84*GritsTheme_tbs/2
 BYTE   W12
 BYTE   TEMPO   80*GritsTheme_tbs/2
 BYTE   W12
 BYTE   TEMPO   78*GritsTheme_tbs/2
 BYTE   W02
// 002   ----------------------------------------
 BYTE   W10
 BYTE   TEMPO   74*GritsTheme_tbs/2
 BYTE   W12
 BYTE   TEMPO   72*GritsTheme_tbs/2
 BYTE   W12
 BYTE   TEMPO   70*GritsTheme_tbs/2
 BYTE   W12
 BYTE   TEMPO   68*GritsTheme_tbs/2
 BYTE   W12
 BYTE   TEMPO   66*GritsTheme_tbs/2
 BYTE   W12
 BYTE   TEMPO   64*GritsTheme_tbs/2
 BYTE   W12
 BYTE   TEMPO   62*GritsTheme_tbs/2
 BYTE   W12
 BYTE   TEMPO   60*GritsTheme_tbs/2
 BYTE   W02
// 003   ----------------------------------------
 BYTE   W10
 BYTE   TEMPO   60*GritsTheme_tbs/2
 BYTE   W12
 BYTE   TEMPO   58*GritsTheme_tbs/2
 BYTE   W12
 BYTE   TEMPO   56*GritsTheme_tbs/2
 BYTE   W17
 BYTE   TEMPO   54*GritsTheme_tbs/2
 BYTE   W16
 BYTE   TEMPO   54*GritsTheme_tbs/2
 BYTE   W05
 BYTE   TEMPO   108*GritsTheme_tbs/2
 BYTE   CsM2
 BYTE   N08  DnM2  v092
 BYTE   W03
 BYTE   VOL   56*GritsTheme_mvl/mxv
 BYTE   W03
 BYTE   DsM2
 BYTE   W02
 BYTE   N08  DnM2  v088
 BYTE   W01
 BYTE   VOL   58*GritsTheme_mvl/mxv
 BYTE   W03
 BYTE   EnM2
 BYTE   W03
 BYTE   FnM2
 BYTE   W01
 BYTE   N08  DnM2  v076
 BYTE   W02
 BYTE   VOL   61*GritsTheme_mvl/mxv
 BYTE   W03
 BYTE   FsM2
 BYTE   W03
// 004   ----------------------------------------
Label_0_0100008C:
 BYTE   VOL   64*GritsTheme_mvl/mxv
 BYTE   N24  DsM2  v124
 BYTE   W16
 BYTE   VOL   64*GritsTheme_mvl/mxv
 BYTE   W01
 BYTE   FsM2
 BYTE   W01
 BYTE   FnM2
 BYTE   W01
 BYTE   CsM2
 BYTE   W01
 BYTE   GnM2
 BYTE   W01
 BYTE   GsM2
 BYTE   W01
 BYTE   AnM2
 BYTE   W01
 BYTE   AsM2
 BYTE   W01
 BYTE   BnM2
 BYTE   N08  DnM2  v096
 BYTE   W08
 BYTE   DnM2  v076
 BYTE   W08
 BYTE   DnM2  v080
 BYTE   W08
 BYTE   N22  CnM1  v124
 BYTE   W24
 BYTE   N08  DnM2  v096
 BYTE   W08
 BYTE   DnM2  v076
 BYTE   W08
 BYTE   DnM2  v080
 BYTE   W08
// 005   ----------------------------------------
Label_0_010000BC:
 BYTE   N22  CnM1  v124
 BYTE   W24
 BYTE   N08  DnM2  v096
 BYTE   W08
 BYTE   DnM2  v076
 BYTE   W08
 BYTE   DnM2  v080
 BYTE   W08
 BYTE   DnM2  v096
 BYTE   W08
 BYTE   DnM2  v076
 BYTE   W08
 BYTE   DnM2  v080
 BYTE   W08
 BYTE   N02  DnM2  v084
 BYTE   W02
 BYTE   N02
 BYTE   W02
 BYTE   N04
 BYTE   W04
 BYTE   N08
 BYTE   W08
 BYTE   DnM2  v076
 BYTE   W08
 BYTE   PEND 
// 006   ----------------------------------------
Label_0_010000E1:
 BYTE   N22  CnM1  v124
 BYTE   W24
 BYTE   N08  DnM2  v096
 BYTE   W08
 BYTE   DnM2  v076
 BYTE   W08
 BYTE   DnM2  v080
 BYTE   W08
 BYTE   N22  CnM1  v124
 BYTE   W24
 BYTE   N08  DnM2  v096
 BYTE   W08
 BYTE   DnM2  v076
 BYTE   W08
 BYTE   DnM2  v080
 BYTE   W08
 BYTE   PEND 
// 007   ----------------------------------------
Label_0_010000FE:
 BYTE   N22  CnM1  v124
 BYTE   W24
 BYTE   N08  DnM2  v096
 BYTE   W08
 BYTE   DnM2  v076
 BYTE   W08
 BYTE   DnM2  v080
 BYTE   W08
 BYTE   DnM2  v096
 BYTE   W08
 BYTE   DnM2  v076
 BYTE   W08
 BYTE   DnM2  v080
 BYTE   W08
 BYTE   N02  DnM2  v127
 BYTE   W02
 BYTE   N02
 BYTE   W02
 BYTE   N04  DnM2  v084
 BYTE   W04
 BYTE   N08
 BYTE   W08
 BYTE   DnM2  v076
 BYTE   W08
 BYTE   PEND 
// 008   ----------------------------------------
 BYTE   PATT
  POIN2 Label_0_010000E1
// 009   ----------------------------------------
 BYTE   PATT
  POIN2 Label_0_010000FE
// 010   ----------------------------------------
 BYTE   PATT
  POIN2 Label_0_010000E1
// 011   ----------------------------------------
Label_0_01000134:
 BYTE   N22  CnM1  v124
 BYTE   W24
 BYTE   N02  DnM2  v084
 BYTE   W02
 BYTE   VOL   55*GritsTheme_mvl/mxv
 BYTE   N02
 BYTE   W01
 BYTE   VOL   41*GritsTheme_mvl/mxv
 BYTE   W01
 BYTE   CsM1
 BYTE   N02
 BYTE   W02
 BYTE   N02
 BYTE   W01
 BYTE   VOL   40*GritsTheme_mvl/mxv
 BYTE   W01
 BYTE   N02
 BYTE   W02
 BYTE   VOL   48*GritsTheme_mvl/mxv
 BYTE   N02
 BYTE   W02
 BYTE   N02
 BYTE   W01
 BYTE   VOL   56*GritsTheme_mvl/mxv
 BYTE   W01
 BYTE   N02
 BYTE   W02
 BYTE   VOL   53*GritsTheme_mvl/mxv
 BYTE   N08
 BYTE   W03
 BYTE   VOL   52*GritsTheme_mvl/mxv
 BYTE   W03
 BYTE   CnM1
 BYTE   W02
 BYTE   N08  DnM2  v096
 BYTE   W01
 BYTE   VOL   50*GritsTheme_mvl/mxv
 BYTE   W03
 BYTE   DnM1
 BYTE   W04
 BYTE   DsM1
 BYTE   N08  DnM2  v076
 BYTE   W04
 BYTE   VOL   44*GritsTheme_mvl/mxv
 BYTE   W04
 BYTE   N08  DnM2  v080
 BYTE   W08
 BYTE   VOL   55*GritsTheme_mvl/mxv
 BYTE   N02  DnM2  v084
 BYTE   W02
 BYTE   N02
 BYTE   W02
 BYTE   VOL   38*GritsTheme_mvl/mxv
 BYTE   N04
 BYTE   W03
 BYTE   VOL   41*GritsTheme_mvl/mxv
 BYTE   W01
 BYTE   N08
 BYTE   W02
 BYTE   VOL   45*GritsTheme_mvl/mxv
 BYTE   W03
 BYTE   DsM1
 BYTE   W03
 BYTE   DnM2
 BYTE   N08  DnM2  v076
 BYTE   W02
 BYTE   VOL   56*GritsTheme_mvl/mxv
 BYTE   W03
 BYTE   FnM2
 BYTE   W03
 BYTE   PEND 
// 012   ----------------------------------------
Label_0_01000197:
 BYTE   VOL   64*GritsTheme_mvl/mxv
 BYTE   N24  DsM2  v124
 BYTE   W16
 BYTE   VOL   64*GritsTheme_mvl/mxv
 BYTE   W01
 BYTE   FsM2
 BYTE   W01
 BYTE   FnM2
 BYTE   W01
 BYTE   CsM2
 BYTE   W01
 BYTE   GnM2
 BYTE   W01
 BYTE   GsM2
 BYTE   W01
 BYTE   AnM2
 BYTE   W01
 BYTE   AsM2
 BYTE   W01
 BYTE   EnM1
 BYTE   N08  DnM2  v096
 BYTE   W08
 BYTE   DnM2  v076
 BYTE   W08
 BYTE   DnM2  v080
 BYTE   W08
 BYTE   N22  CnM1  v124
 BYTE   W24
 BYTE   N08  DnM2  v096
 BYTE   W08
 BYTE   DnM2  v076
 BYTE   W08
 BYTE   DnM2  v080
 BYTE   W08
 BYTE   PEND 
// 013   ----------------------------------------
 BYTE   PATT
  POIN2 Label_0_010000BC
// 014   ----------------------------------------
 BYTE   PATT
  POIN2 Label_0_010000E1
// 015   ----------------------------------------
 BYTE   PATT
  POIN2 Label_0_010000FE
// 016   ----------------------------------------
 BYTE   PATT
  POIN2 Label_0_010000E1
// 017   ----------------------------------------
 BYTE   PATT
  POIN2 Label_0_010000FE
// 018   ----------------------------------------
 BYTE   PATT
  POIN2 Label_0_010000E1
// 019   ----------------------------------------
 BYTE   PATT
  POIN2 Label_0_01000134
// 020   ----------------------------------------
 BYTE   PATT
  POIN2 Label_0_01000197
// 021   ----------------------------------------
 BYTE   PATT
  POIN2 Label_0_010000BC
// 022   ----------------------------------------
 BYTE   PATT
  POIN2 Label_0_010000E1
// 023   ----------------------------------------
 BYTE   PATT
  POIN2 Label_0_010000FE
// 024   ----------------------------------------
 BYTE   PATT
  POIN2 Label_0_010000E1
// 025   ----------------------------------------
 BYTE   PATT
  POIN2 Label_0_010000FE
// 026   ----------------------------------------
 BYTE   PATT
  POIN2 Label_0_010000E1
// 027   ----------------------------------------
 BYTE   PATT
  POIN2 Label_0_01000134
// 028   ----------------------------------------
 BYTE   GoTo
  POIN2 Label_0_0100008C
// 029   ----------------------------------------
 BYTE   VOL   55*GritsTheme_mvl/mxv
 BYTE   W96
 BYTE   FINE

//**************** Track 2 (Midi-Chn.1) ****************//

GritsTheme_002:
// 000   ----------------------------------------
 BYTE   KEYSH   GritsTheme_key+0
 BYTE   VOICE   17
 BYTE   PAN   c_v+0
 BYTE   VOL   61*GritsTheme_mvl/mxv
 BYTE   W01
 BYTE   N10  Gs3  v124
 BYTE   W11
 BYTE   N12  En3
 BYTE   W12
 BYTE   Gs3
 BYTE   W12
 BYTE   Dn3
 BYTE   W24
 BYTE   VOL   58*GritsTheme_mvl/mxv
 BYTE   N36  En3
 BYTE   W01
 BYTE   VOL   56*GritsTheme_mvl/mxv
 BYTE   W01
 BYTE   Gn2
 BYTE   W02
 BYTE   Fn2
 BYTE   W01
 BYTE   En2
 BYTE   W01
 BYTE   Dn2
 BYTE   W02
 BYTE   Cs2
 BYTE   W01
 BYTE   Bn1
 BYTE   W02
 BYTE   As1
 BYTE   W01
 BYTE   Gs1
 BYTE   W01
 BYTE   Fs1
 BYTE   W02
 BYTE   Fn1
 BYTE   W01
 BYTE   Ds1
 BYTE   W02
 BYTE   Dn1
 BYTE   W01
 BYTE   Cn1
 BYTE   W01
 BYTE   Bn0
 BYTE   W02
 BYTE   An0
 BYTE   W01
 BYTE   Gn0
 BYTE   W01
 BYTE   Fs0
 BYTE   W02
 BYTE   En0
 BYTE   W01
 BYTE   Dn0
 BYTE   W02
 BYTE   Cs0
 BYTE   W01
 BYTE   BnM1
 BYTE   W01
 BYTE   AnM1
 BYTE   W02
 BYTE   GnM1
 BYTE   W01
 BYTE   FnM1
 BYTE   W02
// 001   ----------------------------------------
 BYTE   Fn3
 BYTE   W02
 BYTE   BEND   c_v+0
 BYTE   N32  An3
 BYTE   W01
 BYTE   BEND   c_v-3
 BYTE   W01
 BYTE   VOL   62*GritsTheme_mvl/mxv
 BYTE   BEND   c_v-7
 BYTE   W01
 BYTE   VOL   61*GritsTheme_mvl/mxv
 BYTE   BEND   c_v-7
 BYTE   W01
 BYTE   VOL   60*GritsTheme_mvl/mxv
 BYTE   BEND   c_v-7
 BYTE   W01
 BYTE   VOL   57*GritsTheme_mvl/mxv
 BYTE   BEND   c_v-8
 BYTE   W01
 BYTE   VOL   56*GritsTheme_mvl/mxv
 BYTE   BEND   c_v-8
 BYTE   W01
 BYTE   VOL   55*GritsTheme_mvl/mxv
 BYTE   BEND   c_v-8
 BYTE   W01
 BYTE   VOL   54*GritsTheme_mvl/mxv
 BYTE   BEND   c_v-8
 BYTE   W01
 BYTE   VOL   50*GritsTheme_mvl/mxv
 BYTE   BEND   c_v-7
 BYTE   W01
 BYTE   VOL   49*GritsTheme_mvl/mxv
 BYTE   BEND   c_v-6
 BYTE   W01
 BYTE   VOL   47*GritsTheme_mvl/mxv
 BYTE   BEND   c_v-6
 BYTE   W01
 BYTE   Bn2
 BYTE   W01
 BYTE   VOL   46*GritsTheme_mvl/mxv
 BYTE   BEND   c_v-4
 BYTE   W01
 BYTE   VOL   45*GritsTheme_mvl/mxv
 BYTE   BEND   c_v-3
 BYTE   W01
 BYTE   Dn3
 BYTE   W01
 BYTE   VOL   44*GritsTheme_mvl/mxv
 BYTE   BEND   c_v-2
 BYTE   W01
 BYTE   VOL   41*GritsTheme_mvl/mxv
 BYTE   BEND   c_v-1
 BYTE   W01
 BYTE   VOL   38*GritsTheme_mvl/mxv
 BYTE   BEND   c_v+0
 BYTE   W01
 BYTE   VOL   36*GritsTheme_mvl/mxv
 BYTE   W02
 BYTE   As0
 BYTE   W01
 BYTE   Gs0
 BYTE   W01
 BYTE   Fn0
 BYTE   W02
 BYTE   Ds0
 BYTE   W01
 BYTE   Cs0
 BYTE   W01
 BYTE   AsM1
 BYTE   W01
 BYTE   GsM1
 BYTE   W02
 BYTE   FnM1
 BYTE   W01
 BYTE   DsM1
 BYTE   W01
 BYTE   CsM1
 BYTE   W02
 BYTE   Cs3
 BYTE   N12  Gn3
 BYTE   W03
 BYTE   VOL   60*GritsTheme_mvl/mxv
 BYTE   W03
 BYTE   Cn3
 BYTE   W06
 BYTE   N12  An3
 BYTE   W12
 BYTE   VOL   39*GritsTheme_mvl/mxv
 BYTE   N12  Gn3
 BYTE   W03
 BYTE   VOL   39*GritsTheme_mvl/mxv
 BYTE   W03
 BYTE   Dn1
 BYTE   W03
 BYTE   Dn1
 BYTE   W03
 BYTE   Ds3
 BYTE   N12  An3
 BYTE   W12
 BYTE   Gn3
 BYTE   W12
// 002   ----------------------------------------
 BYTE   VOL   52*GritsTheme_mvl/mxv
 BYTE   W01
 BYTE   Cs2
 BYTE   W01
 BYTE   Bn1
 BYTE   N36  Gs3
 BYTE   W01
 BYTE   VOL   45*GritsTheme_mvl/mxv
 BYTE   W01
 BYTE   Gn1
 BYTE   W01
 BYTE   Fn1
 BYTE   W01
 BYTE   Dn1
 BYTE   W01
 BYTE   Cn1
 BYTE   W01
 BYTE   As0
 BYTE   W01
 BYTE   Gs0
 BYTE   W01
 BYTE   Fs0
 BYTE   W01
 BYTE   Fn0
 BYTE   W01
 BYTE   En0
 BYTE   W01
 BYTE   En0
 BYTE   W01
 BYTE   Ds0
 BYTE   W01
 BYTE   Dn0
 BYTE   W01
 BYTE   Cs0
 BYTE   BEND   c_v+0
 BYTE   W01
 BYTE   VOL   24*GritsTheme_mvl/mxv
 BYTE   W01
 BYTE   BnM1
 BYTE   W01
 BYTE   BnM1
 BYTE   W01
 BYTE   AsM1
 BYTE   W01
 BYTE   GsM1
 BYTE   W01
 BYTE   GsM1
 BYTE   W01
 BYTE   GnM1
 BYTE   W01
 BYTE   GnM1
 BYTE   W01
 BYTE   FsM1
 BYTE   W01
 BYTE   FsM1
 BYTE   W01
 BYTE   FnM1
 BYTE   W01
 BYTE   FnM1
 BYTE   W01
 BYTE   EnM1
 BYTE   W01
 BYTE   EnM1
 BYTE   W01
 BYTE   DsM1
 BYTE   W01
 BYTE   DsM1
 BYTE   W01
 BYTE   DnM1
 BYTE   W01
 BYTE   DnM1
 BYTE   W01
 BYTE   CsM1
 BYTE   W01
 BYTE   CsM1
 BYTE   W01
 BYTE   CnM1
 BYTE   W01
 BYTE   GsM2
 BYTE   N12  Dn3
 BYTE   W01
 BYTE   VOL   54*GritsTheme_mvl/mxv
 BYTE   W11
 BYTE   N12  En3
 BYTE   W02
 BYTE   BEND   c_v+0
 BYTE   W01
 BYTE   Fn3
 BYTE   W01
 BYTE   VOL   54*GritsTheme_mvl/mxv
 BYTE   BEND   c_v+1
 BYTE   W01
 BYTE   Fs3
 BYTE   W01
 BYTE   Fs3
 BYTE   W01
 BYTE   Gn3
 BYTE   W01
 BYTE   Gn3
 BYTE   W01
 BYTE   Gs3
 BYTE   W01
 BYTE   Gs3
 BYTE   W02
 BYTE   En3
 BYTE   N12  Dn3
 BYTE   W08
 BYTE   BEND   c_v+0
 BYTE   W04
 BYTE   N12  En3
 BYTE   W12
 BYTE   Dn3
 BYTE   W10
// 003   ----------------------------------------
 BYTE   BEND   c_v-4
 BYTE   W01
 BYTE   Cn3
 BYTE   W01
 BYTE   VOL   54*GritsTheme_mvl/mxv
 BYTE   BEND   c_v-4
 BYTE   N90  En3
 BYTE   W01
 BYTE   VOL   52*GritsTheme_mvl/mxv
 BYTE   BEND   c_v-4
 BYTE   W01
 BYTE   Cs3
 BYTE   W01
 BYTE   VOL   50*GritsTheme_mvl/mxv
 BYTE   BEND   c_v-3
 BYTE   W01
 BYTE   Cs3
 BYTE   W01
 BYTE   VOL   49*GritsTheme_mvl/mxv
 BYTE   BEND   c_v-3
 BYTE   W01
 BYTE   VOL   47*GritsTheme_mvl/mxv
 BYTE   BEND   c_v-3
 BYTE   W01
 BYTE   Dn3
 BYTE   W01
 BYTE   VOL   46*GritsTheme_mvl/mxv
 BYTE   BEND   c_v-2
 BYTE   W01
 BYTE   Dn3
 BYTE   W01
 BYTE   VOL   44*GritsTheme_mvl/mxv
 BYTE   BEND   c_v-2
 BYTE   W01
 BYTE   Dn3
 BYTE   W01
 BYTE   VOL   41*GritsTheme_mvl/mxv
 BYTE   BEND   c_v-1
 BYTE   W01
 BYTE   Ds3
 BYTE   W01
 BYTE   VOL   39*GritsTheme_mvl/mxv
 BYTE   BEND   c_v-1
 BYTE   W01
 BYTE   Ds3
 BYTE   W01
 BYTE   VOL   38*GritsTheme_mvl/mxv
 BYTE   BEND   c_v+0
 BYTE   W01
 BYTE   VOL   36*GritsTheme_mvl/mxv
 BYTE   W02
 BYTE   As0
 BYTE   W01
 BYTE   An0
 BYTE   W02
 BYTE   Gn0
 BYTE   W01
 BYTE   Fn0
 BYTE   W02
 BYTE   En0
 BYTE   W01
 BYTE   Dn0
 BYTE   W02
 BYTE   Cs0
 BYTE   W02
 BYTE   BnM1
 BYTE   W01
 BYTE   AsM1
 BYTE   W02
 BYTE   AsM1
 BYTE   W02
 BYTE   AnM1
 BYTE   W02
 BYTE   GsM1
 BYTE   W01
 BYTE   GnM1
 BYTE   W02
 BYTE   GnM1
 BYTE   BEND   c_v-1
 BYTE   W01
 BYTE   Ds3
 BYTE   W01
 BYTE   VOL   18*GritsTheme_mvl/mxv
 BYTE   BEND   c_v-1
 BYTE   W01
 BYTE   Ds3
 BYTE   W01
 BYTE   VOL   18*GritsTheme_mvl/mxv
 BYTE   BEND   c_v-1
 BYTE   W01
 BYTE   Ds3
 BYTE   W01
 BYTE   VOL   17*GritsTheme_mvl/mxv
 BYTE   BEND   c_v-2
 BYTE   W01
 BYTE   VOL   16*GritsTheme_mvl/mxv
 BYTE   BEND   c_v-2
 BYTE   W01
 BYTE   Dn3
 BYTE   W01
 BYTE   VOL   16*GritsTheme_mvl/mxv
 BYTE   BEND   c_v-2
 BYTE   W01
 BYTE   Dn3
 BYTE   W01
 BYTE   VOL   15*GritsTheme_mvl/mxv
 BYTE   BEND   c_v-2
 BYTE   W01
 BYTE   Cs3
 BYTE   W01
 BYTE   VOL   15*GritsTheme_mvl/mxv
 BYTE   BEND   c_v-3
 BYTE   W01
 BYTE   Cs3
 BYTE   W01
 BYTE   VOL   14*GritsTheme_mvl/mxv
 BYTE   BEND   c_v-3
 BYTE   W01
 BYTE   VOL   13*GritsTheme_mvl/mxv
 BYTE   BEND   c_v-3
 BYTE   W01
 BYTE   Cs3
 BYTE   W01
 BYTE   VOL   13*GritsTheme_mvl/mxv
 BYTE   BEND   c_v-4
 BYTE   W01
 BYTE   Cn3
 BYTE   W01
 BYTE   VOL   12*GritsTheme_mvl/mxv
 BYTE   BEND   c_v-4
 BYTE   W01
 BYTE   Cn3
 BYTE   W01
 BYTE   VOL   12*GritsTheme_mvl/mxv
 BYTE   BEND   c_v-4
 BYTE   W01
 BYTE   Cn3
 BYTE   W01
 BYTE   VOL   11*GritsTheme_mvl/mxv
 BYTE   BEND   c_v-4
 BYTE   W01
 BYTE   VOL   10*GritsTheme_mvl/mxv
 BYTE   BEND   c_v-5
 BYTE   W01
 BYTE   As2
 BYTE   W01
 BYTE   VOL   10*GritsTheme_mvl/mxv
 BYTE   BEND   c_v-6
 BYTE   W01
 BYTE   An2
 BYTE   W01
 BYTE   VOL   9*GritsTheme_mvl/mxv
 BYTE   BEND   c_v-8
 BYTE   W01
 BYTE   Gs2
 BYTE   W01
 BYTE   VOL   9*GritsTheme_mvl/mxv
 BYTE   BEND   c_v-9
 BYTE   W01
 BYTE   VOL   8*GritsTheme_mvl/mxv
 BYTE   BEND   c_v-10
 BYTE   W02
 BYTE   VOL   7*GritsTheme_mvl/mxv
 BYTE   BEND   c_v-10
 BYTE   W01
 BYTE   Fn2
 BYTE   W01
 BYTE   VOL   7*GritsTheme_mvl/mxv
 BYTE   BEND   c_v-12
 BYTE   W01
 BYTE   En2
 BYTE   W01
 BYTE   VOL   6*GritsTheme_mvl/mxv
 BYTE   BEND   c_v-13
 BYTE   W01
 BYTE   Dn2
 BYTE   W01
 BYTE   VOL   6*GritsTheme_mvl/mxv
 BYTE   BEND   c_v-14
 BYTE   W01
 BYTE   VOL   5*GritsTheme_mvl/mxv
 BYTE   BEND   c_v-15
 BYTE   W01
 BYTE   Cn2
 BYTE   W01
 BYTE   VOL   4*GritsTheme_mvl/mxv
 BYTE   W01
 BYTE   BEND   c_v-16
 BYTE   W01
 BYTE   VOL   4*GritsTheme_mvl/mxv
 BYTE   BEND   c_v-23
 BYTE   W01
 BYTE   As0
 BYTE   W01
 BYTE   VOL   3*GritsTheme_mvl/mxv
 BYTE   W01
 BYTE   BEND   c_v-37
 BYTE   W01
 BYTE   VOL   3*GritsTheme_mvl/mxv
 BYTE   BEND   c_v-44
 BYTE   W01
 BYTE   VOL   2*GritsTheme_mvl/mxv
 BYTE   W01
 BYTE   BEND   c_v-51
 BYTE   W01
 BYTE   VOL   1*GritsTheme_mvl/mxv
 BYTE   BEND   c_v-58
 BYTE   W02
// 004   ----------------------------------------
Label_1_01000497:
 BYTE   VOL   1*GritsTheme_mvl/mxv
 BYTE   BEND   c_v-64
 BYTE   W02
 BYTE   VOL   0*GritsTheme_mvl/mxv
 BYTE   W01
 BYTE   BEND   c_v-58
 BYTE   W01
 BYTE   VOL   0*GritsTheme_mvl/mxv
 BYTE   W02
 BYTE   BEND   c_v-50
 BYTE   W03
 BYTE   BnM1
 BYTE   W02
 BYTE   Fs0
 BYTE   W03
 BYTE   Cn1
 BYTE   W03
 BYTE   Gs1
 BYTE   W03
 BYTE   Cn2
 BYTE   W03
 BYTE   En2
 BYTE   W02
 BYTE   As2
 BYTE   W03
 BYTE   Cn3
 BYTE   W03
 BYTE   En3
 BYTE   W03
 BYTE   Gs3
 BYTE   W01
 BYTE   En3
 BYTE   W01
 BYTE   Gs3
 BYTE   W01
 BYTE   Gn3
 BYTE   W01
 BYTE   Gn3
 BYTE   W01
 BYTE   Gn3
 BYTE   W01
 BYTE   Fs3
 BYTE   W01
 BYTE   Fs3
 BYTE   W01
 BYTE   Fs3
 BYTE   W01
 BYTE   Fn3
 BYTE   W01
 BYTE   Fn3
 BYTE   W01
 BYTE   Fn3
 BYTE   W01
 BYTE   En3
 BYTE   W01
 BYTE   En3
 BYTE   W01
 BYTE   En3
 BYTE   W02
 BYTE   En3
 BYTE   W02
 BYTE   Ds3
 BYTE   W01
 BYTE   Cn3
 BYTE   W01
 BYTE   Bn2
 BYTE   W01
 BYTE   An2
 BYTE   W01
 BYTE   Gs2
 BYTE   W01
 BYTE   Fs2
 BYTE   W05
 BYTE   En2
 BYTE   W01
 BYTE   En2
 BYTE   W01
 BYTE   Fs2
 BYTE   W01
 BYTE   Gs2
 BYTE   W01
 BYTE   As2
 BYTE   W01
 BYTE   Dn3
 BYTE   W01
 BYTE   En3
 BYTE   W04
 BYTE   En3
 BYTE   W24
// 005   ----------------------------------------
 BYTE   W96
// 006   ----------------------------------------
 BYTE   W96
// 007   ----------------------------------------
 BYTE   W96
// 008   ----------------------------------------
 BYTE   W96
// 009   ----------------------------------------
 BYTE   W96
// 010   ----------------------------------------
 BYTE   W96
// 011   ----------------------------------------
 BYTE   W96
// 012   ----------------------------------------
 BYTE   W96
// 013   ----------------------------------------
 BYTE   W96
// 014   ----------------------------------------
 BYTE   W96
// 015   ----------------------------------------
 BYTE   W96
// 016   ----------------------------------------
 BYTE   W96
// 017   ----------------------------------------
 BYTE   W96
// 018   ----------------------------------------
 BYTE   W06
 BYTE   VOL   65*GritsTheme_mvl/mxv
 BYTE   W90
// 019   ----------------------------------------
 BYTE   W96
// 020   ----------------------------------------
 BYTE   BEND   c_v-64
 BYTE   N16  Gs3  v124
 BYTE   W01
 BYTE   BEND   c_v-57
 BYTE   W01
 BYTE   DsM1
 BYTE   W01
 BYTE   BnM1
 BYTE   W01
 BYTE   Gn0
 BYTE   W01
 BYTE   Ds1
 BYTE   W01
 BYTE   Bn1
 BYTE   W01
 BYTE   Gn2
 BYTE   W01
 BYTE   En3
 BYTE   W08
 BYTE   N06  En3
 BYTE   W08
 BYTE   N16  Gs3
 BYTE   W16
 BYTE   N24  Dn3
 BYTE   W24
 BYTE   N36  En3
 BYTE   W04
 BYTE   BEND   c_v+0
 BYTE   W01
 BYTE   En3
 BYTE   W01
 BYTE   Fn3
 BYTE   W01
 BYTE   Fs3
 BYTE   W01
 BYTE   Gn3
 BYTE   W01
 BYTE   Gs3
 BYTE   W01
 BYTE   An3
 BYTE   W01
 BYTE   As3
 BYTE   W01
 BYTE   Cn4
 BYTE   W01
 BYTE   As3
 BYTE   W01
 BYTE   Gs3
 BYTE   W01
 BYTE   Fs3
 BYTE   W01
 BYTE   En3
 BYTE   W04
 BYTE   En3
 BYTE   W01
 BYTE   Fn3
 BYTE   W01
 BYTE   Fs3
 BYTE   W01
 BYTE   Gs3
 BYTE   W01
 BYTE   As3
 BYTE   W01
 BYTE   An3
 BYTE   W01
 BYTE   Gs3
 BYTE   W01
 BYTE   Gn3
 BYTE   W01
 BYTE   Gn3
 BYTE   W01
 BYTE   Fs3
 BYTE   W01
 BYTE   Fn3
 BYTE   W01
 BYTE   En3
 BYTE   W01
// 021   ----------------------------------------
 BYTE   En3
 BYTE   W16
 BYTE   CnM2
 BYTE   N06
 BYTE   W01
 BYTE   BEND   c_v-33
 BYTE   W01
 BYTE   En3
 BYTE   W06
 BYTE   N12  Bn2
 BYTE   W03
 BYTE   BEND   c_v+0
 BYTE   W13
 BYTE   N06  Dn3
 BYTE   W24
 BYTE   Bn2
 BYTE   W08
 BYTE   N12  En3
 BYTE   W16
 BYTE   N06  Dn3
 BYTE   W08
// 022   ----------------------------------------
 BYTE   N24  An2
 BYTE   W24
 BYTE   En3
 BYTE   W24
 BYTE   BEND   c_v-64
 BYTE   N12  An3
 BYTE   W01
 BYTE   BEND   c_v-49
 BYTE   W01
 BYTE   Gn0
 BYTE   W01
 BYTE   Bn1
 BYTE   W01
 BYTE   En3
 BYTE   W12
 BYTE   N18  En3
 BYTE   W24
 BYTE   Dn3
 BYTE   W08
// 023   ----------------------------------------
 BYTE   W16
 BYTE   N06
 BYTE   W08
 BYTE   N12  An2
 BYTE   W16
 BYTE   En3
 BYTE   W24
 BYTE   N06
 BYTE   W08
 BYTE   Dn3
 BYTE   W08
 BYTE   En3
 BYTE   W08
 BYTE   Dn3
 BYTE   W08
// 024   ----------------------------------------
 BYTE   W24
 BYTE   VOL   56*GritsTheme_mvl/mxv
 BYTE   BEND   c_v-64
 BYTE   N42  Gn4
 BYTE   W01
 BYTE   VOL   53*GritsTheme_mvl/mxv
 BYTE   BEND   c_v-57
 BYTE   W01
 BYTE   VOL   51*GritsTheme_mvl/mxv
 BYTE   BEND   c_v-49
 BYTE   W01
 BYTE   BnM1
 BYTE   W01
 BYTE   VOL   50*GritsTheme_mvl/mxv
 BYTE   BEND   c_v-33
 BYTE   W01
 BYTE   VOL   49*GritsTheme_mvl/mxv
 BYTE   BEND   c_v-25
 BYTE   W01
 BYTE   Bn1
 BYTE   W01
 BYTE   VOL   47*GritsTheme_mvl/mxv
 BYTE   BEND   c_v-9
 BYTE   W01
 BYTE   VOL   45*GritsTheme_mvl/mxv
 BYTE   BEND   c_v+0
 BYTE   W01
 BYTE   VOL   44*GritsTheme_mvl/mxv
 BYTE   W02
 BYTE   Fn1
 BYTE   W01
 BYTE   En1
 BYTE   W02
 BYTE   Dn1
 BYTE   W01
 BYTE   Cs1
 BYTE   W01
 BYTE   Bn0
 BYTE   BEND   c_v+0
 BYTE   W01
 BYTE   Ds3
 BYTE   W01
 BYTE   VOL   33*GritsTheme_mvl/mxv
 BYTE   BEND   c_v-2
 BYTE   W01
 BYTE   VOL   31*GritsTheme_mvl/mxv
 BYTE   BEND   c_v-3
 BYTE   W01
 BYTE   Cs3
 BYTE   W01
 BYTE   VOL   30*GritsTheme_mvl/mxv
 BYTE   BEND   c_v-4
 BYTE   W01
 BYTE   VOL   28*GritsTheme_mvl/mxv
 BYTE   BEND   c_v-5
 BYTE   W01
 BYTE   As2
 BYTE   W01
 BYTE   VOL   27*GritsTheme_mvl/mxv
 BYTE   BEND   c_v-6
 BYTE   W01
 BYTE   VOL   26*GritsTheme_mvl/mxv
 BYTE   BEND   c_v-5
 BYTE   W01
 BYTE   VOL   24*GritsTheme_mvl/mxv
 BYTE   BEND   c_v-4
 BYTE   W01
 BYTE   Dn3
 BYTE   W01
 BYTE   VOL   22*GritsTheme_mvl/mxv
 BYTE   BEND   c_v+0
 BYTE   W01
 BYTE   VOL   20*GritsTheme_mvl/mxv
 BYTE   W02
 BYTE   GnM1
 BYTE   W01
 BYTE   FnM1
 BYTE   BEND   c_v+0
 BYTE   W01
 BYTE   VOL   15*GritsTheme_mvl/mxv
 BYTE   BEND   c_v-2
 BYTE   W01
 BYTE   Cs3
 BYTE   W01
 BYTE   VOL   14*GritsTheme_mvl/mxv
 BYTE   BEND   c_v-5
 BYTE   W01
 BYTE   VOL   12*GritsTheme_mvl/mxv
 BYTE   BEND   c_v-6
 BYTE   W01
 BYTE   Bn2
 BYTE   W01
 BYTE   VOL   10*GritsTheme_mvl/mxv
 BYTE   BEND   c_v-4
 BYTE   W01
 BYTE   VOL   8*GritsTheme_mvl/mxv
 BYTE   BEND   c_v-2
 BYTE   W01
 BYTE   VOL   7*GritsTheme_mvl/mxv
 BYTE   BEND   c_v+0
 BYTE   W02
 BYTE   VOL   6*GritsTheme_mvl/mxv
 BYTE   W01
 BYTE   EnM2
 BYTE   W02
 BYTE   DnM2
 BYTE   W01
 BYTE   CsM2
 BYTE   W02
 BYTE   Gn2
 BYTE   N18
 BYTE   W01
 BYTE   VOL   53*GritsTheme_mvl/mxv
 BYTE   W01
 BYTE   Ds2
 BYTE   W02
 BYTE   Dn2
 BYTE   W01
 BYTE   Cn2
 BYTE   W02
 BYTE   As1
 BYTE   W01
 BYTE   An1
 BYTE   W01
 BYTE   Gs1
 BYTE   W02
 BYTE   Fn1
 BYTE   W01
 BYTE   Ds1
 BYTE   W02
 BYTE   Dn1
 BYTE   W01
 BYTE   Cn1
 BYTE   W01
 BYTE   Bn0
 BYTE   W02
 BYTE   An0
 BYTE   W01
 BYTE   Gn0
 BYTE   W02
 BYTE   Fs0
 BYTE   W01
 BYTE   En0
 BYTE   W02
// 025   ----------------------------------------
 BYTE   Gs2
 BYTE   N36  Fs4
 BYTE   W01
 BYTE   VOL   53*GritsTheme_mvl/mxv
 BYTE   W01
 BYTE   Ds2
 BYTE   W02
 BYTE   Dn2
 BYTE   W01
 BYTE   Cs2
 BYTE   W02
 BYTE   Bn1
 BYTE   W01
 BYTE   An1
 BYTE   W01
 BYTE   Gs1
 BYTE   W02
 BYTE   Fn1
 BYTE   W01
 BYTE   En1
 BYTE   W02
 BYTE   Dn1
 BYTE   W01
 BYTE   Cs1
 BYTE   W01
 BYTE   Bn0
 BYTE   W02
 BYTE   An0
 BYTE   W01
 BYTE   Gn0
 BYTE   W02
 BYTE   Fs0
 BYTE   W01
 BYTE   En0
 BYTE   W02
 BYTE   Ds0
 BYTE   W01
 BYTE   Dn0
 BYTE   W01
 BYTE   Cn0
 BYTE   W02
 BYTE   AsM1
 BYTE   W01
 BYTE   GsM1
 BYTE   W02
 BYTE   GnM1
 BYTE   W01
 BYTE   FnM1
 BYTE   W01
 BYTE   DsM1
 BYTE   W02
 BYTE   DnM1
 BYTE   W01
 BYTE   CnM1
 BYTE   W02
 BYTE   AsM2
 BYTE   W01
 BYTE   GsM2
 BYTE   W01
 BYTE   Gn2
 BYTE   BEND   c_v-64
 BYTE   N24
 BYTE   W01
 BYTE   VOL   53*GritsTheme_mvl/mxv
 BYTE   BEND   c_v-57
 BYTE   W01
 BYTE   VOL   51*GritsTheme_mvl/mxv
 BYTE   BEND   c_v-49
 BYTE   W01
 BYTE   BnM1
 BYTE   W01
 BYTE   VOL   50*GritsTheme_mvl/mxv
 BYTE   BEND   c_v-33
 BYTE   W01
 BYTE   VOL   47*GritsTheme_mvl/mxv
 BYTE   BEND   c_v-25
 BYTE   W01
 BYTE   VOL   46*GritsTheme_mvl/mxv
 BYTE   BEND   c_v-17
 BYTE   W01
 BYTE   Gn2
 BYTE   W01
 BYTE   VOL   45*GritsTheme_mvl/mxv
 BYTE   BEND   c_v+0
 BYTE   W01
 BYTE   VOL   43*GritsTheme_mvl/mxv
 BYTE   W02
 BYTE   Fn1
 BYTE   W01
 BYTE   Ds1
 BYTE   W01
 BYTE   Cs1
 BYTE   W02
 BYTE   Cn1
 BYTE   W01
 BYTE   As0
 BYTE   W02
 BYTE   Gs0
 BYTE   W01
 BYTE   Gn0
 BYTE   W01
 BYTE   Fn0
 BYTE   W02
 BYTE   En0
 BYTE   W01
 BYTE   Dn0
 BYTE   W01
 BYTE   Gs2
 BYTE   N06  En4
 BYTE   W08
 BYTE   N16  Cs4
 BYTE   W16
 BYTE   N12  En4
 BYTE   W08
// 026   ----------------------------------------
 BYTE   W24
 BYTE   N06  Cs4
 BYTE   W08
 BYTE   N06
 BYTE   W08
 BYTE   N06
 BYTE   W08
 BYTE   BEND   c_v-64
 BYTE   N12  En4
 BYTE   W01
 BYTE   BEND   c_v-49
 BYTE   W01
 BYTE   Gn0
 BYTE   W01
 BYTE   Bn1
 BYTE   W01
 BYTE   En3
 BYTE   W12
 BYTE   N06
 BYTE   W08
 BYTE   N16  Fs4
 BYTE   W16
 BYTE   N06  En4
 BYTE   W08
// 027   ----------------------------------------
 BYTE   W24
 BYTE   BEND   c_v-64
 BYTE   N16  Gn4
 BYTE   W01
 BYTE   BEND   c_v-49
 BYTE   W01
 BYTE   Gn0
 BYTE   W01
 BYTE   Bn1
 BYTE   W01
 BYTE   En3
 BYTE   W12
 BYTE   N06  Fs4
 BYTE   W24
 BYTE   BEND   c_v-64
 BYTE   N06  En4
 BYTE   W01
 BYTE   BEND   c_v-2
 BYTE   W01
 BYTE   Dn3
 BYTE   W02
 BYTE   Ds3
 BYTE   W01
 BYTE   En3
 BYTE   W03
 BYTE   N12  Fs4
 BYTE   W16
 BYTE   N06  En4
 BYTE   W08
// 028   ----------------------------------------
 BYTE   GoTo
  POIN2 Label_1_01000497
// 029   ----------------------------------------
 BYTE   W96
 BYTE   FINE

//**************** Track 3 (Midi-Chn.2) ****************//

GritsTheme_003:
// 000   ----------------------------------------
 BYTE   KEYSH   GritsTheme_key+0
 BYTE   VOICE   18
 BYTE   VOL   26*GritsTheme_mvl/mxv
 BYTE   W96
// 001   ----------------------------------------
 BYTE   W96
// 002   ----------------------------------------
 BYTE   W96
// 003   ----------------------------------------
 BYTE   W96
// 004   ----------------------------------------
Label_2_0100073C:
 BYTE   VOL   26*GritsTheme_mvl/mxv
 BYTE   W24
 BYTE   N06  Dn3  v127
 BYTE   W08
 BYTE   En3
 BYTE   W08
 BYTE   Dn3
 BYTE   W08
 BYTE   N16  En3
 BYTE   W16
 BYTE   N30  Gs3
 BYTE   W32
// 005   ----------------------------------------
Label_2_0100074D:
 BYTE   BEND   c_v-64
 BYTE   N16  Gs3  v127
 BYTE   W01
 BYTE   BEND   c_v-57
 BYTE   W01
 BYTE   DsM1
 BYTE   W01
 BYTE   BnM1
 BYTE   W01
 BYTE   Gn0
 BYTE   W01
 BYTE   Ds1
 BYTE   W01
 BYTE   Bn1
 BYTE   W01
 BYTE   Gn2
 BYTE   W01
 BYTE   En3
 BYTE   W01
 BYTE   Bn2
 BYTE   W01
 BYTE   Cn3
 BYTE   W01
 BYTE   Dn3
 BYTE   W01
 BYTE   En3
 BYTE   W04
 BYTE   N06  Bn3
 BYTE   W08
 BYTE   N12  Cs4
 BYTE   W16
 BYTE   N24  En4
 BYTE   W04
 BYTE   BEND   c_v+0
 BYTE   W01
 BYTE   Dn3
 BYTE   W01
 BYTE   Fn2
 BYTE   W01
 BYTE   Cn2
 BYTE   W01
 BYTE   As1
 BYTE   W01
 BYTE   Gs1
 BYTE   W01
 BYTE   An1
 BYTE   W01
 BYTE   Bn1
 BYTE   W01
 BYTE   Fn2
 BYTE   W01
 BYTE   Bn2
 BYTE   W01
 BYTE   En3
 BYTE   W02
 BYTE   En3
 BYTE   W01
 BYTE   Cn3
 BYTE   W01
 BYTE   An2
 BYTE   W01
 BYTE   Fn2
 BYTE   W01
 BYTE   Dn2
 BYTE   W01
 BYTE   En2
 BYTE   W01
 BYTE   Bn2
 BYTE   W01
 BYTE   Dn3
 BYTE   W01
 BYTE   En3
 BYTE   N30  Cs4
 BYTE   W18
 BYTE   BEND   c_v+0
 BYTE   W01
 BYTE   Dn3
 BYTE   W01
 BYTE   As2
 BYTE   W01
 BYTE   Gs2
 BYTE   W02
 BYTE   Fs2
 BYTE   W01
 BYTE   En2
 BYTE   W01
 BYTE   Dn2
 BYTE   W03
 BYTE   Fs2
 BYTE   W02
 BYTE   Gs2
 BYTE   W01
 BYTE   Bn2
 BYTE   W01
 BYTE   PEND 
// 006   ----------------------------------------
 BYTE   En3
 BYTE   N12  Gn4
 BYTE   W16
 BYTE   N06
 BYTE   W08
 BYTE   N12  Fs4
 BYTE   W16
 BYTE   N06
 BYTE   W08
 BYTE   N12  En4
 BYTE   W16
 BYTE   Cs4
 BYTE   W24
 BYTE   BEND   c_v-64
 BYTE   N18  Gn4
 BYTE   W01
 BYTE   BEND   c_v-57
 BYTE   W01
 BYTE   DsM1
 BYTE   W01
 BYTE   BnM1
 BYTE   W01
 BYTE   Gn0
 BYTE   W01
 BYTE   Ds1
 BYTE   W01
 BYTE   Bn1
 BYTE   W01
 BYTE   Gn2
 BYTE   W01
// 007   ----------------------------------------
 BYTE   En3
 BYTE   W16
 BYTE   N12  Fs4
 BYTE   W24
 BYTE   En4
 BYTE   W24
 BYTE   N06  Cs4
 BYTE   W08
 BYTE   N24  En4
 BYTE   W24
// 008   ----------------------------------------
 BYTE   W24
 BYTE   N06  Dn3
 BYTE   W08
 BYTE   En3
 BYTE   W08
 BYTE   Dn3
 BYTE   W08
 BYTE   N16  En3
 BYTE   W16
 BYTE   N30  Gs3
 BYTE   W32
// 009   ----------------------------------------
 BYTE   PATT
  POIN2 Label_2_0100074D
// 010   ----------------------------------------
 BYTE   BEND   c_v+0
 BYTE   N12  Gn4  v127
 BYTE   W16
 BYTE   N06
 BYTE   W08
 BYTE   N12  Fs4
 BYTE   W16
 BYTE   N06
 BYTE   W08
 BYTE   N12  En4
 BYTE   W16
 BYTE   An4
 BYTE   W24
 BYTE   BEND   c_v-64
 BYTE   N18  Gn4
 BYTE   W01
 BYTE   BEND   c_v-57
 BYTE   W01
 BYTE   DsM1
 BYTE   W01
 BYTE   BnM1
 BYTE   W01
 BYTE   Gn0
 BYTE   W01
 BYTE   Ds1
 BYTE   W01
 BYTE   Bn1
 BYTE   W01
 BYTE   Gn2
 BYTE   W01
// 011   ----------------------------------------
 BYTE   En3
 BYTE   W16
 BYTE   N12  Fs4
 BYTE   W24
 BYTE   En4
 BYTE   W24
 BYTE   N06  Cs4
 BYTE   W08
 BYTE   N12  En4
 BYTE   W16
 BYTE   N06  Cs4
 BYTE   W08
// 012   ----------------------------------------
 BYTE   W23
 BYTE   BEND   c_v+2
 BYTE   W07
 BYTE   Cs4
 BYTE   W01
 BYTE   Fs4
 BYTE   W01
 BYTE   Cs5
 BYTE   N60  An4
 BYTE   W01
 BYTE   BEND   c_v+26
 BYTE   W01
 BYTE   An5
 BYTE   W01
 BYTE   Cn6
 BYTE   W01
 BYTE   Ds6
 BYTE   W01
 BYTE   Gn6
 BYTE   W01
 BYTE   Bn6
 BYTE   W01
 BYTE   Dn7
 BYTE   W01
 BYTE   Bn7
 BYTE   W01
 BYTE   Dn8
 BYTE   W01
 BYTE   Ds8
 BYTE   W01
 BYTE   Fs8
 BYTE   W01
 BYTE   Gn8
 BYTE   W06
 BYTE   VOL   26*GritsTheme_mvl/mxv
 BYTE   W02
 BYTE   Cs0
 BYTE   W02
 BYTE   BEND   c_v+60
 BYTE   W01
 BYTE   VOL   24*GritsTheme_mvl/mxv
 BYTE   BEND   c_v+60
 BYTE   W02
 BYTE   Fs8
 BYTE   W01
 BYTE   VOL   20*GritsTheme_mvl/mxv
 BYTE   W01
 BYTE   BEND   c_v+63
 BYTE   W02
 BYTE   VOL   18*GritsTheme_mvl/mxv
 BYTE   W03
 BYTE   FnM1
 BYTE   W03
 BYTE   DsM1
 BYTE   W02
 BYTE   BEND   c_v+62
 BYTE   W01
 BYTE   VOL   12*GritsTheme_mvl/mxv
 BYTE   BEND   c_v+58
 BYTE   W01
 BYTE   Bn7
 BYTE   W01
 BYTE   As7
 BYTE   W01
 BYTE   VOL   11*GritsTheme_mvl/mxv
 BYTE   BEND   c_v+56
 BYTE   W01
 BYTE   Dn8
 BYTE   W01
 BYTE   VOL   10*GritsTheme_mvl/mxv
 BYTE   BEND   c_v+62
 BYTE   W01
 BYTE   Gn8
 BYTE   W02
 BYTE   VOL   8*GritsTheme_mvl/mxv
 BYTE   BEND   c_v+60
 BYTE   W01
 BYTE   Bn7
 BYTE   W01
 BYTE   As6
 BYTE   W01
 BYTE   VOL   5*GritsTheme_mvl/mxv
 BYTE   BEND   c_v+34
 BYTE   W01
 BYTE   Dn5
 BYTE   W01
 BYTE   Cs4
 BYTE   W01
 BYTE   VOL   4*GritsTheme_mvl/mxv
 BYTE   BEND   c_v-2
 BYTE   W01
 BYTE   En3
 BYTE   W02
 BYTE   VOL   3*GritsTheme_mvl/mxv
 BYTE   W03
 BYTE   CsM2
 BYTE   W03
 BYTE   CnM2
 BYTE   W03
// 013   ----------------------------------------
 BYTE   Ds0
 BYTE   W02
 BYTE   Dn0
 BYTE   W03
 BYTE   Cs0
 BYTE   W01
 BYTE   BEND   c_v+0
 BYTE   N54  Gn4
 BYTE   W01
 BYTE   BEND   c_v+2
 BYTE   W01
 BYTE   VOL   24*GritsTheme_mvl/mxv
 BYTE   BEND   c_v+3
 BYTE   W01
 BYTE   Gs3
 BYTE   W01
 BYTE   An3
 BYTE   W01
 BYTE   VOL   21*GritsTheme_mvl/mxv
 BYTE   BEND   c_v+6
 BYTE   W01
 BYTE   Bn3
 BYTE   W01
 BYTE   Cn4
 BYTE   W01
 BYTE   VOL   19*GritsTheme_mvl/mxv
 BYTE   BEND   c_v+9
 BYTE   W01
 BYTE   Dn4
 BYTE   W01
 BYTE   Ds4
 BYTE   W01
 BYTE   VOL   18*GritsTheme_mvl/mxv
 BYTE   BEND   c_v+12
 BYTE   W01
 BYTE   Fn4
 BYTE   W01
 BYTE   Fs4
 BYTE   W01
 BYTE   VOL   17*GritsTheme_mvl/mxv
 BYTE   BEND   c_v+15
 BYTE   W01
 BYTE   Gs4
 BYTE   W01
 BYTE   An4
 BYTE   W01
 BYTE   VOL   15*GritsTheme_mvl/mxv
 BYTE   BEND   c_v+18
 BYTE   W01
 BYTE   Bn4
 BYTE   W01
 BYTE   An4
 BYTE   W01
 BYTE   VOL   12*GritsTheme_mvl/mxv
 BYTE   BEND   c_v+16
 BYTE   W01
 BYTE   Gn4
 BYTE   W01
 BYTE   Fs4
 BYTE   W01
 BYTE   VOL   12*GritsTheme_mvl/mxv
 BYTE   BEND   c_v+13
 BYTE   W01
 BYTE   En4
 BYTE   W01
 BYTE   VOL   11*GritsTheme_mvl/mxv
 BYTE   BEND   c_v+11
 BYTE   W01
 BYTE   Dn4
 BYTE   W01
 BYTE   Cs4
 BYTE   W01
 BYTE   VOL   9*GritsTheme_mvl/mxv
 BYTE   BEND   c_v+8
 BYTE   W01
 BYTE   Bn3
 BYTE   W01
 BYTE   As3
 BYTE   W01
 BYTE   VOL   8*GritsTheme_mvl/mxv
 BYTE   BEND   c_v+5
 BYTE   W01
 BYTE   Gs3
 BYTE   W01
 BYTE   En3
 BYTE   W01
 BYTE   VOL   5*GritsTheme_mvl/mxv
 BYTE   W03
 BYTE   FnM2
 BYTE   W03
 BYTE   DsM2
 BYTE   W03
 BYTE   DnM2
 BYTE   W03
 BYTE   CsM2
 BYTE   W03
 BYTE   CnM2
 BYTE   W03
 BYTE   CnM2
 BYTE   W02
 BYTE   Fs0
 BYTE   W02
 BYTE   BEND   c_v+3
 BYTE   N06  En4
 BYTE   W01
 BYTE   BEND   c_v+5
 BYTE   W01
 BYTE   Bn3
 BYTE   W01
 BYTE   Cs4
 BYTE   W01
 BYTE   En3
 BYTE   W02
 BYTE   VOL   30*GritsTheme_mvl/mxv
 BYTE   N06  Dn4
 BYTE   W04
 BYTE   BEND   c_v+10
 BYTE   W01
 BYTE   Cn4
 BYTE   W01
 BYTE   As3
 BYTE   N06  Bn3
 BYTE   W01
 BYTE   BEND   c_v+5
 BYTE   W01
 BYTE   Gn3
 BYTE   W01
 BYTE   Fn3
 BYTE   W01
 BYTE   En3
 BYTE   W02
 BYTE   N06  Dn4
 BYTE   W06
 BYTE   N04  En4
 BYTE   W04
 BYTE   N06  Gn4
 BYTE   W06
// 014   ----------------------------------------
 BYTE   W04
 BYTE   BEND   c_v+0
 BYTE   N16  An4
 BYTE   W01
 BYTE   BEND   c_v+20
 BYTE   W01
 BYTE   As6
 BYTE   W01
 BYTE   Gs7
 BYTE   W01
 BYTE   Dn8
 BYTE   W01
 BYTE   En8
 BYTE   W02
 BYTE   Fn7
 BYTE   W01
 BYTE   En6
 BYTE   W01
 BYTE   Dn5
 BYTE   W01
 BYTE   En3
 BYTE   W06
 BYTE   N06  Gn4
 BYTE   W08
 BYTE   En4
 BYTE   W08
 BYTE   Gn4
 BYTE   W08
 BYTE   An4
 BYTE   W08
 BYTE   N12  Bn4
 BYTE   W16
 BYTE   N06
 BYTE   W08
 BYTE   Dn5
 BYTE   W08
 BYTE   Bn4
 BYTE   W08
 BYTE   Dn5
 BYTE   W04
// 015   ----------------------------------------
 BYTE   W06
 BYTE   N12  An5
 BYTE   W02
 BYTE   BEND   c_v+4
 BYTE   W01
 BYTE   Ds6
 BYTE   W01
 BYTE   Fs7
 BYTE   W01
 BYTE   Fn8
 BYTE   W01
 BYTE   Gn8
 BYTE   W02
 BYTE   Gn8
 BYTE   W01
 BYTE   Bn5
 BYTE   W01
 BYTE   En3
 BYTE   W06
 BYTE   N06
 BYTE   W04
 BYTE   BEND   c_v+0
 BYTE   W04
 BYTE   N06  Gn5
 BYTE   W08
 BYTE   En5
 BYTE   W08
 BYTE   Dn5
 BYTE   W08
 BYTE   N16  En5
 BYTE   W16
 BYTE   N30  Gn5
 BYTE   W05
 BYTE   BEND   c_v+0
 BYTE   W01
 BYTE   As3
 BYTE   W01
 BYTE   Cn5
 BYTE   W01
 BYTE   En5
 BYTE   W01
 BYTE   Gs5
 BYTE   W02
 BYTE   En5
 BYTE   W01
 BYTE   Dn4
 BYTE   W01
 BYTE   En3
 BYTE   W09
 BYTE   Fs3
 BYTE   W01
 BYTE   Fs4
 BYTE   W01
 BYTE   En4
 BYTE   W01
 BYTE   As3
 BYTE   W01
// 016   ----------------------------------------
 BYTE   Fs3
 BYTE   W01
 BYTE   En3
 BYTE   W11
 BYTE   Gs3
 BYTE   W01
 BYTE   En5
 BYTE   W01
 BYTE   VOL   29*GritsTheme_mvl/mxv
 BYTE   BEND   c_v+46
 BYTE   N12  An5
 BYTE   W01
 BYTE   BEND   c_v+59
 BYTE   W01
 BYTE   Fs8
 BYTE   W01
 BYTE   VOL   26*GritsTheme_mvl/mxv
 BYTE   BEND   c_v+60
 BYTE   W01
 BYTE   Gn7
 BYTE   W01
 BYTE   En6
 BYTE   W01
 BYTE   VOL   24*GritsTheme_mvl/mxv
 BYTE   BEND   c_v-1
 BYTE   W01
 BYTE   Fn2
 BYTE   W01
 BYTE   Dn2
 BYTE   W01
 BYTE   VOL   20*GritsTheme_mvl/mxv
 BYTE   W01
 BYTE   BEND   c_v-7
 BYTE   W01
 BYTE   En3
 BYTE   W01
 BYTE   VOL   29*GritsTheme_mvl/mxv
 BYTE   N06  Gn5
 BYTE   W04
 BYTE   VOL   29*GritsTheme_mvl/mxv
 BYTE   W04
 BYTE   N06  En5
 BYTE   W06
 BYTE   Dn5
 BYTE   W06
 BYTE   En5
 BYTE   W05
 BYTE   BEND   c_v+0
 BYTE   W01
 BYTE   VOL   27*GritsTheme_mvl/mxv
 BYTE   BEND   c_v+14
 BYTE   N16  An5
 BYTE   W01
 BYTE   BEND   c_v+23
 BYTE   W01
 BYTE   VOL   24*GritsTheme_mvl/mxv
 BYTE   BEND   c_v+43
 BYTE   W01
 BYTE   Gn7
 BYTE   W01
 BYTE   As7
 BYTE   W01
 BYTE   VOL   19*GritsTheme_mvl/mxv
 BYTE   W01
 BYTE   BEND   c_v+51
 BYTE   W01
 BYTE   Cn7
 BYTE   W01
 BYTE   VOL   16*GritsTheme_mvl/mxv
 BYTE   BEND   c_v+25
 BYTE   W01
 BYTE   En3
 BYTE   W02
 BYTE   VOL   12*GritsTheme_mvl/mxv
 BYTE   W03
 BYTE   GsM2
 BYTE   W02
 BYTE   Fn0
 BYTE   N06  Gn5
 BYTE   W08
 BYTE   VOL   29*GritsTheme_mvl/mxv
 BYTE   N06  En5
 BYTE   W06
 BYTE   Dn5
 BYTE   W06
 BYTE   En5
 BYTE   W05
 BYTE   BEND   c_v+6
 BYTE   W01
 BYTE   VOL   33*GritsTheme_mvl/mxv
 BYTE   BEND   c_v+21
 BYTE   N16  An5
 BYTE   W01
 BYTE   BEND   c_v+30
 BYTE   W01
// 017   ----------------------------------------
 BYTE   VOL   28*GritsTheme_mvl/mxv
 BYTE   BEND   c_v+42
 BYTE   W01
 BYTE   Dn7
 BYTE   W01
 BYTE   Fs7
 BYTE   W01
 BYTE   VOL   24*GritsTheme_mvl/mxv
 BYTE   BEND   c_v+50
 BYTE   W01
 BYTE   Ds7
 BYTE   W01
 BYTE   Gn6
 BYTE   W01
 BYTE   VOL   17*GritsTheme_mvl/mxv
 BYTE   BEND   c_v+34
 BYTE   W01
 BYTE   Ds5
 BYTE   W01
 BYTE   En3
 BYTE   W01
 BYTE   VOL   11*GritsTheme_mvl/mxv
 BYTE   W03
 BYTE   FsM2
 BYTE   W02
 BYTE   An0
 BYTE   N06  Gn5
 BYTE   W04
 BYTE   VOL   31*GritsTheme_mvl/mxv
 BYTE   W04
 BYTE   N06  En5
 BYTE   W06
 BYTE   Dn5
 BYTE   W06
 BYTE   En5
 BYTE   W05
 BYTE   BEND   c_v+0
 BYTE   W01
 BYTE   VOL   27*GritsTheme_mvl/mxv
 BYTE   BEND   c_v+15
 BYTE   N16  An5
 BYTE   W01
 BYTE   BEND   c_v+31
 BYTE   W01
 BYTE   Ds7
 BYTE   W01
 BYTE   VOL   24*GritsTheme_mvl/mxv
 BYTE   BEND   c_v+63
 BYTE   W02
 BYTE   Gn8
 BYTE   W01
 BYTE   VOL   18*GritsTheme_mvl/mxv
 BYTE   W01
 BYTE   BEND   c_v+62
 BYTE   W01
 BYTE   Dn7
 BYTE   W01
 BYTE   VOL   14*GritsTheme_mvl/mxv
 BYTE   BEND   c_v+31
 BYTE   W01
 BYTE   Gn4
 BYTE   W01
 BYTE   En3
 BYTE   W01
 BYTE   VOL   9*GritsTheme_mvl/mxv
 BYTE   W03
 BYTE   FnM2
 BYTE   W01
 BYTE   Gn0
 BYTE   N06  Gn5
 BYTE   W04
 BYTE   VOL   31*GritsTheme_mvl/mxv
 BYTE   W04
 BYTE   N06  En5
 BYTE   W06
 BYTE   Dn5
 BYTE   W06
 BYTE   N48  En5
 BYTE   W12
 BYTE   VOL   31*GritsTheme_mvl/mxv
 BYTE   W02
 BYTE   Fn0
 BYTE   W03
 BYTE   Dn0
 BYTE   BEND   c_v-2
 BYTE   W01
 BYTE   Cs4
 BYTE   W01
 BYTE   Dn5
 BYTE   W01
// 018   ----------------------------------------
 BYTE   VOL   26*GritsTheme_mvl/mxv
 BYTE   W03
 BYTE   Cn0
 BYTE   BEND   c_v+22
 BYTE   W01
 BYTE   An4
 BYTE   W01
 BYTE   En4
 BYTE   W01
 BYTE   VOL   23*GritsTheme_mvl/mxv
 BYTE   BEND   c_v+7
 BYTE   W01
 BYTE   Fs3
 BYTE   W02
 BYTE   VOL   20*GritsTheme_mvl/mxv
 BYTE   BEND   c_v+0
 BYTE   W01
 BYTE   En3
 BYTE   W01
 BYTE   En3
 BYTE   W01
 BYTE   VOL   18*GritsTheme_mvl/mxv
 BYTE   BEND   c_v+0
 BYTE   W01
 BYTE   En3
 BYTE   W01
 BYTE   En3
 BYTE   W01
 BYTE   VOL   17*GritsTheme_mvl/mxv
 BYTE   W03
 BYTE   DsM1
 BYTE   BEND   c_v+0
 BYTE   W01
 BYTE   En3
 BYTE   W01
 BYTE   En3
 BYTE   W01
 BYTE   VOL   12*GritsTheme_mvl/mxv
 BYTE   BEND   c_v+1
 BYTE   W01
 BYTE   Fn3
 BYTE   W01
 BYTE   Fn3
 BYTE   W01
 BYTE   VOL   12*GritsTheme_mvl/mxv
 BYTE   BEND   c_v+1
 BYTE   W01
 BYTE   Fn3
 BYTE   W01
 BYTE   Fn3
 BYTE   W01
 BYTE   VOL   10*GritsTheme_mvl/mxv
 BYTE   BEND   c_v+1
 BYTE   W01
 BYTE   Fn3
 BYTE   W01
 BYTE   Fn3
 BYTE   W01
 BYTE   VOL   8*GritsTheme_mvl/mxv
 BYTE   BEND   c_v+2
 BYTE   W01
 BYTE   Fn3
 BYTE   W01
 BYTE   Fn3
 BYTE   W01
 BYTE   VOL   7*GritsTheme_mvl/mxv
 BYTE   BEND   c_v+0
 BYTE   W01
 BYTE   En3
 BYTE   W01
 BYTE   Cn2
 BYTE   W01
 BYTE   VOL   34*GritsTheme_mvl/mxv
 BYTE   BEND   c_v-20
 BYTE   N24  Gn5
 BYTE   W02
 BYTE   BEND   c_v-7
 BYTE   W01
 BYTE   En3
 BYTE   W01
 BYTE   VOL   34*GritsTheme_mvl/mxv
 BYTE   W05
 BYTE   BEND   c_v-2
 BYTE   W01
 BYTE   Fs2
 BYTE   W01
 BYTE   Dn2
 BYTE   W02
 BYTE   Gn2
 BYTE   W01
 BYTE   En3
 BYTE   W04
 BYTE   Gs2
 BYTE   W01
 BYTE   Fs2
 BYTE   W01
 BYTE   En2
 BYTE   W01
 BYTE   Fn2
 BYTE   W01
 BYTE   As2
 BYTE   W01
 BYTE   Dn3
 BYTE   W01
 BYTE   En3
 BYTE   TIE  An5
 BYTE   W01
 BYTE   BEND   c_v+0
 BYTE   W03
 BYTE   VOL   33*GritsTheme_mvl/mxv
 BYTE   W03
 BYTE   Gn0
 BYTE   W03
 BYTE   Fs0
 BYTE   W01
 BYTE   BEND   c_v+0
 BYTE   W01
 BYTE   As2
 BYTE   W01
 BYTE   VOL   28*GritsTheme_mvl/mxv
 BYTE   BEND   c_v-12
 BYTE   W01
 BYTE   Fs2
 BYTE   W01
 BYTE   En3
 BYTE   W01
 BYTE   VOL   26*GritsTheme_mvl/mxv
 BYTE   BEND   c_v+0
 BYTE   W03
 BYTE   VOL   26*GritsTheme_mvl/mxv
 BYTE   BEND   c_v+0
 BYTE   W01
 BYTE   Gs2
 BYTE   W01
 BYTE   En2
 BYTE   W01
 BYTE   VOL   24*GritsTheme_mvl/mxv
 BYTE   BEND   c_v-5
 BYTE   W01
 BYTE   En3
 BYTE   W02
 BYTE   VOL   24*GritsTheme_mvl/mxv
 BYTE   W01
 BYTE   BEND   c_v+0
 BYTE   W01
 BYTE   As2
 BYTE   W01
 BYTE   VOL   21*GritsTheme_mvl/mxv
 BYTE   BEND   c_v-12
 BYTE   W01
 BYTE   Dn2
 BYTE   W02
 BYTE   VOL   19*GritsTheme_mvl/mxv
 BYTE   W02
 BYTE   BEND   c_v-10
 BYTE   W01
 BYTE   VOL   18*GritsTheme_mvl/mxv
 BYTE   BEND   c_v-8
 BYTE   W01
 BYTE   VOL   18*GritsTheme_mvl/mxv
 BYTE   BEND   c_v-1
 BYTE   W01
// 019   ----------------------------------------
 BYTE   Cn3
 BYTE   W01
 BYTE   Gs2
 BYTE   W01
 BYTE   VOL   18*GritsTheme_mvl/mxv
 BYTE   BEND   c_v-10
 BYTE   W02
 BYTE   As2
 BYTE   W01
 BYTE   VOL   17*GritsTheme_mvl/mxv
 BYTE   BEND   c_v+0
 BYTE   W03
 BYTE   VOL   16*GritsTheme_mvl/mxv
 BYTE   W03
 BYTE   DsM1
 BYTE   W02
 BYTE   DsM1
 BYTE   W03
 BYTE   DsM1
 BYTE   W03
 BYTE   CnM1
 BYTE   W03
 BYTE   CnM1
 BYTE   W03
 BYTE   CnM1
 BYTE   W03
 BYTE   BnM2
 BYTE   W03
 BYTE   BnM2
 BYTE   W03
 BYTE   AsM2
 BYTE   W02
 BYTE   AsM2
 BYTE   W03
 BYTE   AnM2
 BYTE   W03
 BYTE   GsM2
 BYTE   W03
 BYTE   GsM2
 BYTE   W03
 BYTE   GnM2
 BYTE   W03
 BYTE   FsM2
 BYTE   W03
 BYTE   FnM2
 BYTE   W02
 BYTE   FnM2
 BYTE   W03
 BYTE   FnM2
 BYTE   W03
 BYTE   EnM2
 BYTE   W03
 BYTE   DsM2
 BYTE   W03
 BYTE   DsM2
 BYTE   W03
 BYTE   DsM2
 BYTE   W01
 BYTE   EOT
 BYTE   W02
 BYTE   VOL   2*GritsTheme_mvl/mxv
 BYTE   W02
 BYTE   Dn0
 BYTE   W18
 BYTE   CnM2
 BYTE   W02
// 020   ----------------------------------------
 BYTE   W96
// 021   ----------------------------------------
 BYTE   W96
// 022   ----------------------------------------
 BYTE   W96
// 023   ----------------------------------------
 BYTE   W96
// 024   ----------------------------------------
 BYTE   W96
// 025   ----------------------------------------
 BYTE   W96
// 026   ----------------------------------------
 BYTE   W96
// 027   ----------------------------------------
 BYTE   W96
// 028   ----------------------------------------
 BYTE   GoTo
  POIN2 Label_2_0100073C
// 029   ----------------------------------------
 BYTE   W96
 BYTE   FINE

//**************** Track 4 (Midi-Chn.3) ****************//

GritsTheme_004:
// 000   ----------------------------------------
 BYTE   KEYSH   GritsTheme_key+0
 BYTE   VOICE   18
 BYTE   VOL   22*GritsTheme_mvl/mxv
 BYTE   W96
// 001   ----------------------------------------
 BYTE   W96
// 002   ----------------------------------------
 BYTE   W96
// 003   ----------------------------------------
 BYTE   W96
// 004   ----------------------------------------
Label_3_01000BF0:
 BYTE   W72
 BYTE   N36  En3  v127
 BYTE   N36  Bn3
 BYTE   W24
// 005   ----------------------------------------
Label_3_01000BF7:
 BYTE   W16
 BYTE   N06  En3  v127
 BYTE   N06  Bn3
 BYTE   W08
 BYTE   N36  En3
 BYTE   N36  Bn3
 BYTE   W40
 BYTE   N06  En3
 BYTE   N06  Bn3
 BYTE   W08
 BYTE   N24  En3
 BYTE   N24  Bn3
 BYTE   W24
 BYTE   PEND 
// 006   ----------------------------------------
 BYTE   An3
 BYTE   N24  Dn4
 BYTE   W24
 BYTE   An3
 BYTE   N24  Dn4
 BYTE   W24
 BYTE   N16  An3
 BYTE   N16  Dn4
 BYTE   W16
 BYTE   N06  An3
 BYTE   N06  Cs4
 BYTE   W24
 BYTE   N12  En3
 BYTE   N12  An3
 BYTE   W08
// 007   ----------------------------------------
 BYTE   W16
 BYTE   En3
 BYTE   N12  An3
 BYTE   W24
 BYTE   En3
 BYTE   N12  An3
 BYTE   W24
 BYTE   N06  En3
 BYTE   N06  An3
 BYTE   W08
 BYTE   N24  En3
 BYTE   N24  An3
 BYTE   W24
// 008   ----------------------------------------
 BYTE   W72
 BYTE   N36  En3
 BYTE   N36  Bn3
 BYTE   W24
// 009   ----------------------------------------
 BYTE   PATT
  POIN2 Label_3_01000BF7
// 010   ----------------------------------------
 BYTE   N24  An3  v127
 BYTE   N24  Dn4
 BYTE   W24
 BYTE   An3
 BYTE   N24  Dn4
 BYTE   W24
 BYTE   N12  An3
 BYTE   N12  Dn4
 BYTE   W16
 BYTE   N06  An3
 BYTE   N06  En4
 BYTE   W24
 BYTE   N12  En3
 BYTE   N12  An3
 BYTE   W08
// 011   ----------------------------------------
Label_3_01000C5C:
 BYTE   W16
 BYTE   N12  En3  v127
 BYTE   N12  An3
 BYTE   W24
 BYTE   En3
 BYTE   N12  An3
 BYTE   W24
 BYTE   N06  En3
 BYTE   N06  An3
 BYTE   W08
 BYTE   N18  En3
 BYTE   N18  An3
 BYTE   W24
 BYTE   PEND 
// 012   ----------------------------------------
 BYTE   N60  Gn3
 BYTE   N60  Dn4
 BYTE   W72
 BYTE   N12  Gn3
 BYTE   N12  Dn4
 BYTE   W24
// 013   ----------------------------------------
 BYTE   N66  Bn3
 BYTE   N66  Fs4
 BYTE   W72
 BYTE   N12  Bn3
 BYTE   N12  Fs4
 BYTE   W24
// 014   ----------------------------------------
Label_3_01000C86:
 BYTE   N66  Cs4  v127
 BYTE   N66  Gs4
 BYTE   W72
 BYTE   N12  Cs4
 BYTE   N12  Gs4
 BYTE   W24
 BYTE   PEND 
// 015   ----------------------------------------
 BYTE   PATT
  POIN2 Label_3_01000C86
// 016   ----------------------------------------
 BYTE   VOL   22*GritsTheme_mvl/mxv
 BYTE   BEND   c_v-64
 BYTE   N66  En4  v127
 BYTE   N66  Bn4
 BYTE   W02
 BYTE   VOL   20*GritsTheme_mvl/mxv
 BYTE   W01
 BYTE   BEND   c_v-58
 BYTE   W02
 BYTE   VOL   19*GritsTheme_mvl/mxv
 BYTE   W01
 BYTE   BEND   c_v-50
 BYTE   W02
 BYTE   VOL   18*GritsTheme_mvl/mxv
 BYTE   W01
 BYTE   BEND   c_v-41
 BYTE   W02
 BYTE   VOL   17*GritsTheme_mvl/mxv
 BYTE   BEND   c_v-34
 BYTE   W03
 BYTE   VOL   17*GritsTheme_mvl/mxv
 BYTE   BEND   c_v-28
 BYTE   W02
 BYTE   VOL   16*GritsTheme_mvl/mxv
 BYTE   W01
 BYTE   BEND   c_v-20
 BYTE   W02
 BYTE   VOL   15*GritsTheme_mvl/mxv
 BYTE   W01
 BYTE   BEND   c_v-16
 BYTE   W02
 BYTE   VOL   14*GritsTheme_mvl/mxv
 BYTE   W01
 BYTE   BEND   c_v-12
 BYTE   W02
 BYTE   VOL   12*GritsTheme_mvl/mxv
 BYTE   BEND   c_v-6
 BYTE   W03
 BYTE   VOL   12*GritsTheme_mvl/mxv
 BYTE   BEND   c_v-4
 BYTE   W02
 BYTE   VOL   11*GritsTheme_mvl/mxv
 BYTE   W01
 BYTE   BEND   c_v+0
 BYTE   W02
 BYTE   VOL   10*GritsTheme_mvl/mxv
 BYTE   W01
 BYTE   BEND   c_v+4
 BYTE   W01
 BYTE   En3
 BYTE   W01
 BYTE   VOL   9*GritsTheme_mvl/mxv
 BYTE   BEND   c_v+4
 BYTE   W01
 BYTE   Gn3
 BYTE   W01
 BYTE   Gn3
 BYTE   W01
 BYTE   VOL   9*GritsTheme_mvl/mxv
 BYTE   BEND   c_v+3
 BYTE   W01
 BYTE   Fs3
 BYTE   W01
 BYTE   Fs3
 BYTE   W01
 BYTE   VOL   8*GritsTheme_mvl/mxv
 BYTE   BEND   c_v+2
 BYTE   W01
 BYTE   Fn3
 BYTE   W01
 BYTE   VOL   7*GritsTheme_mvl/mxv
 BYTE   BEND   c_v+0
 BYTE   W03
 BYTE   VOL   5*GritsTheme_mvl/mxv
 BYTE   W03
 BYTE   FnM2
 BYTE   W03
 BYTE   EnM2
 BYTE   W03
 BYTE   DsM2
 BYTE   W02
 BYTE   DnM2
 BYTE   W03
 BYTE   DnM2
 BYTE   W03
 BYTE   CsM2
 BYTE   W03
 BYTE   CnM2
 BYTE   W03
 BYTE   CnM2
 BYTE   W02
 BYTE   Cs0
 BYTE   N36  En3
 BYTE   N36  Bn3
 BYTE   W05
 BYTE   VOL   25*GritsTheme_mvl/mxv
 BYTE   W05
 BYTE   Cn0
 BYTE   W14
// 017   ----------------------------------------
 BYTE   PATT
  POIN2 Label_3_01000BF7
// 018   ----------------------------------------
 BYTE   N24  An3  v127
 BYTE   N24  Dn4
 BYTE   W24
 BYTE   An3
 BYTE   N24  Dn4
 BYTE   W24
 BYTE   N12  An3
 BYTE   N12  Dn4
 BYTE   W16
 BYTE   N06  An3
 BYTE   N06  Dn4
 BYTE   W24
 BYTE   N12  En3
 BYTE   N12  An3
 BYTE   W08
// 019   ----------------------------------------
 BYTE   PATT
  POIN2 Label_3_01000C5C
// 020   ----------------------------------------
 BYTE   BEND   c_v-64
 BYTE   N36  En4  v127
 BYTE   N66  Bn4
 BYTE   W03
 BYTE   BEND   c_v-58
 BYTE   W03
 BYTE   DnM1
 BYTE   W03
 BYTE   BnM1
 BYTE   W02
 BYTE   Fs0
 BYTE   W03
 BYTE   Cn1
 BYTE   W03
 BYTE   Gs1
 BYTE   W03
 BYTE   Cn2
 BYTE   W03
 BYTE   En2
 BYTE   W02
 BYTE   As2
 BYTE   W03
 BYTE   Cn3
 BYTE   W03
 BYTE   En3
 BYTE   W03
 BYTE   Gs3
 BYTE   W01
 BYTE   En3
 BYTE   W01
 BYTE   Gs3
 BYTE   W01
 BYTE   Gn3
 BYTE   W01
 BYTE   Gn3
 BYTE   W01
 BYTE   Gn3
 BYTE   W01
 BYTE   Fs3
 BYTE   TIE  En5
 BYTE   W01
 BYTE   BEND   c_v+2
 BYTE   W01
 BYTE   Fs3
 BYTE   W01
 BYTE   Fn3
 BYTE   W01
 BYTE   Fn3
 BYTE   W01
 BYTE   Fn3
 BYTE   W01
 BYTE   En3
 BYTE   W01
 BYTE   En3
 BYTE   W01
 BYTE   En3
 BYTE   W02
 BYTE   En3
 BYTE   W02
 BYTE   Ds3
 BYTE   W01
 BYTE   Cn3
 BYTE   W01
 BYTE   VOL   24*GritsTheme_mvl/mxv
 BYTE   BEND   c_v-5
 BYTE   W01
 BYTE   An2
 BYTE   W01
 BYTE   VOL   24*GritsTheme_mvl/mxv
 BYTE   BEND   c_v-8
 BYTE   W01
 BYTE   Fs2
 BYTE   W02
 BYTE   VOL   23*GritsTheme_mvl/mxv
 BYTE   W03
 BYTE   BnM1
 BYTE   BEND   c_v-12
 BYTE   W01
 BYTE   En2
 BYTE   W01
 BYTE   Fs2
 BYTE   W01
 BYTE   VOL   22*GritsTheme_mvl/mxv
 BYTE   BEND   c_v-8
 BYTE   W01
 BYTE   As2
 BYTE   W01
 BYTE   VOL   21*GritsTheme_mvl/mxv
 BYTE   BEND   c_v-2
 BYTE   W01
 BYTE   En3
 BYTE   W02
 BYTE   VOL   20*GritsTheme_mvl/mxv
 BYTE   W03
 BYTE   GnM1
 BYTE   W03
 BYTE   GnM1
 BYTE   W02
 BYTE   BEND   c_v+0
 BYTE   W01
 BYTE   VOL   18*GritsTheme_mvl/mxv
 BYTE   W02
 BYTE   FsM1
 BYTE   BEND   c_v+0
 BYTE   W01
 BYTE   Dn3
 BYTE   W01
 BYTE   Bn2
 BYTE   W01
 BYTE   VOL   17*GritsTheme_mvl/mxv
 BYTE   BEND   c_v-6
 BYTE   W01
 BYTE   Gs2
 BYTE   W02
 BYTE   VOL   17*GritsTheme_mvl/mxv
 BYTE   BEND   c_v-10
 BYTE   W02
 BYTE   En2
 BYTE   W01
 BYTE   VOL   16*GritsTheme_mvl/mxv
 BYTE   W01
 BYTE   BEND   c_v-14
 BYTE   W01
 BYTE   Cn2
 BYTE   W01
 BYTE   VOL   16*GritsTheme_mvl/mxv
 BYTE   W02
 BYTE   DsM1
 BYTE   W01
// 021   ----------------------------------------
 BYTE   BEND   c_v-18
 BYTE   W02
 BYTE   VOL   15*GritsTheme_mvl/mxv
 BYTE   W01
 BYTE   BEND   c_v-17
 BYTE   W02
 BYTE   VOL   14*GritsTheme_mvl/mxv
 BYTE   W01
 BYTE   BEND   c_v-15
 BYTE   W02
 BYTE   VOL   13*GritsTheme_mvl/mxv
 BYTE   W01
 BYTE   BEND   c_v-13
 BYTE   W02
 BYTE   VOL   12*GritsTheme_mvl/mxv
 BYTE   W01
 BYTE   BEND   c_v-11
 BYTE   W01
 BYTE   VOL   12*GritsTheme_mvl/mxv
 BYTE   W02
 BYTE   BEND   c_v-10
 BYTE   W01
 BYTE   VOL   11*GritsTheme_mvl/mxv
 BYTE   W02
 BYTE   BEND   c_v-8
 BYTE   W01
 BYTE   VOL   11*GritsTheme_mvl/mxv
 BYTE   W02
 BYTE   BEND   c_v-6
 BYTE   W01
 BYTE   VOL   10*GritsTheme_mvl/mxv
 BYTE   W02
 BYTE   AsM2
 BYTE   BEND   c_v-4
 BYTE   W03
 BYTE   VOL   9*GritsTheme_mvl/mxv
 BYTE   BEND   c_v-2
 BYTE   W03
 BYTE   VOL   9*GritsTheme_mvl/mxv
 BYTE   BEND   c_v+0
 BYTE   W03
 BYTE   VOL   8*GritsTheme_mvl/mxv
 BYTE   W03
 BYTE   GsM2
 BYTE   W02
 BYTE   GnM2
 BYTE   W03
 BYTE   FsM2
 BYTE   W03
 BYTE   FnM2
 BYTE   W03
 BYTE   FnM2
 BYTE   W03
 BYTE   EnM2
 BYTE   W02
 BYTE   EnM2
 BYTE   W03
 BYTE   DsM2
 BYTE   W03
 BYTE   DsM2
 BYTE   W03
 BYTE   DnM2
 BYTE   W03
 BYTE   DnM2
 BYTE   W02
 BYTE   CsM2
 BYTE   W03
 BYTE   CsM2
 BYTE   W01
 BYTE   EOT
 BYTE   W02
 BYTE   VOL   0*GritsTheme_mvl/mxv
 BYTE   W03
 BYTE   CnM2
 BYTE   W03
 BYTE   CnM2
 BYTE   W18
// 022   ----------------------------------------
 BYTE   Dn0
 BYTE   TIE  Dn5
 BYTE   TIE  An5
 BYTE   W02
 BYTE   VOL   25*GritsTheme_mvl/mxv
 BYTE   BEND   c_v+0
 BYTE   W01
 BYTE   Gn3
 BYTE   W01
 BYTE   An3
 BYTE   W01
 BYTE   VOL   24*GritsTheme_mvl/mxv
 BYTE   BEND   c_v+11
 BYTE   W01
 BYTE   An4
 BYTE   W01
 BYTE   Dn5
 BYTE   W01
 BYTE   VOL   24*GritsTheme_mvl/mxv
 BYTE   BEND   c_v+27
 BYTE   W01
 BYTE   Bn5
 BYTE   W01
 BYTE   En6
 BYTE   W01
 BYTE   VOL   23*GritsTheme_mvl/mxv
 BYTE   BEND   c_v+40
 BYTE   W01
 BYTE   Bn6
 BYTE   W01
 BYTE   Ds7
 BYTE   W01
 BYTE   VOL   23*GritsTheme_mvl/mxv
 BYTE   BEND   c_v+50
 BYTE   W01
 BYTE   Gs7
 BYTE   W01
 BYTE   VOL   22*GritsTheme_mvl/mxv
 BYTE   BEND   c_v+57
 BYTE   W01
 BYTE   Ds8
 BYTE   W01
 BYTE   En8
 BYTE   W01
 BYTE   VOL   21*GritsTheme_mvl/mxv
 BYTE   BEND   c_v+62
 BYTE   W01
 BYTE   Fs8
 BYTE   W01
 BYTE   Gn8
 BYTE   W01
 BYTE   VOL   19*GritsTheme_mvl/mxv
 BYTE   BEND   c_v+63
 BYTE   W01
 BYTE   Gn8
 BYTE   W02
 BYTE   VOL   19*GritsTheme_mvl/mxv
 BYTE   W03
 BYTE   FsM1
 BYTE   W02
 BYTE   FsM1
 BYTE   W03
 BYTE   FnM1
 BYTE   W03
 BYTE   EnM1
 BYTE   W03
 BYTE   EnM1
 BYTE   W03
 BYTE   DsM1
 BYTE   W02
 BYTE   DnM1
 BYTE   W03
 BYTE   CsM1
 BYTE   W03
 BYTE   CnM1
 BYTE   W03
 BYTE   CnM1
 BYTE   W03
 BYTE   BnM2
 BYTE   W03
 BYTE   AsM2
 BYTE   W02
 BYTE   AsM2
 BYTE   W03
 BYTE   AnM2
 BYTE   W03
 BYTE   AnM2
 BYTE   W03
 BYTE   GsM2
 BYTE   W03
 BYTE   GnM2
 BYTE   W02
 BYTE   FnM2
 BYTE   W03
 BYTE   FnM2
 BYTE   BEND   c_v+62
 BYTE   W01
 BYTE   Gn8
 BYTE   W01
 BYTE   Gn8
 BYTE   W01
 BYTE   VOL   4*GritsTheme_mvl/mxv
 BYTE   BEND   c_v+62
 BYTE   W01
 BYTE   En8
 BYTE   W01
 BYTE   Ds8
 BYTE   W01
 BYTE   VOL   4*GritsTheme_mvl/mxv
 BYTE   BEND   c_v+57
 BYTE   W01
 BYTE   As7
 BYTE   W01
 BYTE   Gn7
 BYTE   W01
 BYTE   VOL   3*GritsTheme_mvl/mxv
 BYTE   BEND   c_v+48
 BYTE   W01
 BYTE   Cn7
 BYTE   W01
 BYTE   VOL   2*GritsTheme_mvl/mxv
 BYTE   BEND   c_v+40
 BYTE   W01
 BYTE   En6
 BYTE   W01
 BYTE   Fs5
 BYTE   W01
 BYTE   VOL   2*GritsTheme_mvl/mxv
 BYTE   BEND   c_v+21
 BYTE   W01
 BYTE   Fs4
 BYTE   W01
 BYTE   Cn4
 BYTE   W01
 BYTE   VOL   1*GritsTheme_mvl/mxv
 BYTE   BEND   c_v+2
 BYTE   W01
// 023   ----------------------------------------
 BYTE   En3
 BYTE   W02
 BYTE   VOL   1*GritsTheme_mvl/mxv
 BYTE   W03
 BYTE   CnM2
 BYTE   W01
 BYTE   EOT
 BYTE   Dn5  v093
 BYTE   W01
 BYTE   BEND   c_v+0
 BYTE   W01
 BYTE   VOL   0*GritsTheme_mvl/mxv
 BYTE   W08
 BYTE   Dn0
 BYTE   BEND   c_v+16
 BYTE   N18
 BYTE   W01
 BYTE   BEND   c_v+31
 BYTE   W01
 BYTE   Bn6
 BYTE   W01
 BYTE   Gn7
 BYTE   W01
 BYTE   Cs8
 BYTE   W01
 BYTE   En8
 BYTE   W05
 BYTE   VOL   26*GritsTheme_mvl/mxv
 BYTE   BEND   c_v+58
 BYTE   W01
 BYTE   As7
 BYTE   W01
 BYTE   Cn7
 BYTE   W01
 BYTE   Gs5
 BYTE   W01
 BYTE   En3
 BYTE   W03
 BYTE   En3
 BYTE   W07
 BYTE   Cn5
 BYTE   N30
 BYTE   W01
 BYTE   BEND   c_v+37
 BYTE   W01
 BYTE   Fs7
 BYTE   W01
 BYTE   Dn8
 BYTE   W01
 BYTE   Gn8
 BYTE   W01
 BYTE   Gn8
 BYTE   W13
 BYTE   Gn8
 BYTE   W01
 BYTE   Fs8
 BYTE   W01
 BYTE   Ds8
 BYTE   W01
 BYTE   An7
 BYTE   W01
 BYTE   Cs7
 BYTE   W01
 BYTE   Dn6
 BYTE   W01
 BYTE   Dn5
 BYTE   W01
 BYTE   En3
 BYTE   W02
 BYTE   En3
 BYTE   W05
 BYTE   N24  Gn5
 BYTE   W24
// 024   ----------------------------------------
 BYTE   N60  Gn2
 BYTE   N60  Dn3
 BYTE   W72
 BYTE   N12  Gn2
 BYTE   N12  Dn3
 BYTE   W24
// 025   ----------------------------------------
 BYTE   N66  Bn2
 BYTE   N66  Fs3
 BYTE   W72
 BYTE   N12  Bn2
 BYTE   N12  Fs3
 BYTE   W24
// 026   ----------------------------------------
Label_3_01000F57:
 BYTE   N66  Cs3  v127
 BYTE   N66  Gs3
 BYTE   W72
 BYTE   N12  Cs3
 BYTE   N12  Gs3
 BYTE   W24
 BYTE   PEND 
// 027   ----------------------------------------
 BYTE   PATT
  POIN2 Label_3_01000F57
// 028   ----------------------------------------
 BYTE   GoTo
  POIN2 Label_3_01000BF0
// 029   ----------------------------------------
 BYTE   W96
 BYTE   FINE

//**************** Track 5 (Midi-Chn.4) ****************//

GritsTheme_005:
// 000   ----------------------------------------
 BYTE   KEYSH   GritsTheme_key+0
 BYTE   VOICE   19
 BYTE   VOL   65*GritsTheme_mvl/mxv
 BYTE   BEND   c_v-64
 BYTE   W01
 BYTE   CnM2
 BYTE   W01
 BYTE   CnM2
 BYTE   W02
 BYTE   CnM2
 BYTE   W01
 BYTE   CnM2
 BYTE   W02
 BYTE   CsM2
 BYTE   W01
 BYTE   CsM2
 BYTE   W01
 BYTE   CsM2
 BYTE   W02
 BYTE   CsM2
 BYTE   W01
 BYTE   CsM2
 BYTE   W02
 BYTE   DnM2
 BYTE   W01
 BYTE   DnM2
 BYTE   W01
 BYTE   DnM2
 BYTE   W02
 BYTE   DnM2
 BYTE   W01
 BYTE   DsM2
 BYTE   W02
 BYTE   DsM2
 BYTE   W01
 BYTE   DsM2
 BYTE   W01
 BYTE   DsM2
 BYTE   W02
 BYTE   DsM2
 BYTE   W01
 BYTE   EnM2
 BYTE   W02
 BYTE   EnM2
 BYTE   W01
 BYTE   EnM2
 BYTE   W01
 BYTE   EnM2
 BYTE   W02
 BYTE   FnM2
 BYTE   TIE  En4  v127
 BYTE   W01
 BYTE   BEND   c_v-59
 BYTE   W02
 BYTE   FnM2
 BYTE   W01
 BYTE   FnM2
 BYTE   W01
 BYTE   FsM2
 BYTE   W05
 BYTE   CnM2
 BYTE   W02
 BYTE   BnM2
 BYTE   W02
 BYTE   AsM1
 BYTE   W02
 BYTE   As0
 BYTE   W01
 BYTE   Cs1
 BYTE   W01
 BYTE   En1
 BYTE   W02
 BYTE   VOL   65*GritsTheme_mvl/mxv
 BYTE   BEND   c_v-20
 BYTE   W01
 BYTE   Bn1
 BYTE   W01
 BYTE   VOL   65*GritsTheme_mvl/mxv
 BYTE   W01
 BYTE   BEND   c_v-13
 BYTE   W01
 BYTE   Fs2
 BYTE   W01
 BYTE   VOL   65*GritsTheme_mvl/mxv
 BYTE   W01
 BYTE   BEND   c_v-6
 BYTE   W01
 BYTE   Dn3
 BYTE   W01
 BYTE   VOL   62*GritsTheme_mvl/mxv
 BYTE   BEND   c_v-6
 BYTE   W02
 BYTE   En3
 BYTE   W01
 BYTE   VOL   60*GritsTheme_mvl/mxv
 BYTE   W02
 BYTE   As2
 BYTE   BEND   c_v+0
 BYTE   W02
 BYTE   As1
 BYTE   W01
 BYTE   VOL   55*GritsTheme_mvl/mxv
 BYTE   W01
 BYTE   BEND   c_v-20
 BYTE   W01
 BYTE   Fn2
 BYTE   W01
 BYTE   VOL   53*GritsTheme_mvl/mxv
 BYTE   W01
 BYTE   BEND   c_v+0
 BYTE   W01
 BYTE   En3
 BYTE   W01
 BYTE   VOL   52*GritsTheme_mvl/mxv
 BYTE   BEND   c_v-8
 BYTE   W01
 BYTE   As1
 BYTE   W01
 BYTE   Fs1
 BYTE   W01
 BYTE   VOL   50*GritsTheme_mvl/mxv
 BYTE   W01
 BYTE   BEND   c_v-12
 BYTE   W01
 BYTE   VOL   48*GritsTheme_mvl/mxv
 BYTE   BEND   c_v-6
 BYTE   W01
 BYTE   En3
 BYTE   W02
 BYTE   VOL   45*GritsTheme_mvl/mxv
 BYTE   W02
 BYTE   BEND   c_v+0
 BYTE   W01
 BYTE   VOL   43*GritsTheme_mvl/mxv
 BYTE   BEND   c_v-8
 BYTE   W01
 BYTE   Cs2
 BYTE   W01
 BYTE   Cn2
 BYTE   W01
 BYTE   VOL   40*GritsTheme_mvl/mxv
 BYTE   BEND   c_v-12
 BYTE   W01
 BYTE   As2
 BYTE   W01
 BYTE   VOL   38*GritsTheme_mvl/mxv
 BYTE   BEND   c_v-1
 BYTE   W01
 BYTE   En3
 BYTE   W02
 BYTE   VOL   36*GritsTheme_mvl/mxv
 BYTE   W03
// 001   ----------------------------------------
 BYTE   As0
 BYTE   W03
 BYTE   Gs0
 BYTE   W03
 BYTE   Fn0
 BYTE   W02
 BYTE   En0
 BYTE   W03
 BYTE   Dn0
 BYTE   W03
 BYTE   Cn0
 BYTE   W02
 BYTE   BnM1
 BYTE   W03
 BYTE   AnM1
 BYTE   W03
 BYTE   GnM1
 BYTE   W02
 BYTE   FsM1
 BYTE   W03
 BYTE   FnM1
 BYTE   W03
 BYTE   DnM1
 BYTE   W02
 BYTE   CnM1
 BYTE   W03
 BYTE   BnM2
 BYTE   W03
 BYTE   AsM2
 BYTE   W02
 BYTE   AnM2
 BYTE   W02
 BYTE   AnM2
 BYTE   W02
 BYTE   AnM2
 BYTE   W03
 BYTE   GsM2
 BYTE   W02
 BYTE   FsM2
 BYTE   W02
 BYTE   FnM2
 BYTE   W01
 BYTE   BEND   c_v-1
 BYTE   W01
 BYTE   Dn3
 BYTE   W01
 BYTE   VOL   4*GritsTheme_mvl/mxv
 BYTE   BEND   c_v-3
 BYTE   W01
 BYTE   Cn3
 BYTE   W01
 BYTE   VOL   4*GritsTheme_mvl/mxv
 BYTE   BEND   c_v-5
 BYTE   W02
 BYTE   VOL   4*GritsTheme_mvl/mxv
 BYTE   BEND   c_v-6
 BYTE   W01
 BYTE   An2
 BYTE   W01
 BYTE   Gn2
 BYTE   W01
 BYTE   VOL   3*GritsTheme_mvl/mxv
 BYTE   BEND   c_v-10
 BYTE   W02
 BYTE   VOL   3*GritsTheme_mvl/mxv
 BYTE   BEND   c_v-11
 BYTE   W01
 BYTE   En2
 BYTE   W01
 BYTE   VOL   2*GritsTheme_mvl/mxv
 BYTE   W01
 BYTE   BEND   c_v-13
 BYTE   W01
 BYTE   Cs2
 BYTE   W01
 BYTE   VOL   1*GritsTheme_mvl/mxv
 BYTE   BEND   c_v-18
 BYTE   W01
 BYTE   Ds1
 BYTE   W01
 BYTE   VOL   1*GritsTheme_mvl/mxv
 BYTE   BEND   c_v-32
 BYTE   W01
 BYTE   Ds0
 BYTE   W01
 BYTE   VOL   0*GritsTheme_mvl/mxv
 BYTE   BEND   c_v-42
 BYTE   W01
 BYTE   GnM1
 BYTE   W02
 BYTE   VOL   0*GritsTheme_mvl/mxv
 BYTE   W01
 BYTE   BEND   c_v-44
 BYTE   W01
 BYTE   VOL   0*GritsTheme_mvl/mxv
 BYTE   BEND   c_v-42
 BYTE   W01
 BYTE   Cs0
 BYTE   W01
 BYTE   VOL   0*GritsTheme_mvl/mxv
 BYTE   BEND   c_v-36
 BYTE   W01
 BYTE   Fs0
 BYTE   W01
 BYTE   An0
 BYTE   W01
 BYTE   VOL   1*GritsTheme_mvl/mxv
 BYTE   BEND   c_v-28
 BYTE   W01
 BYTE   Ds1
 BYTE   W01
 BYTE   An1
 BYTE   W01
 BYTE   VOL   0*GritsTheme_mvl/mxv
 BYTE   BEND   c_v-13
 BYTE   W01
 BYTE   Gs2
 BYTE   W01
 BYTE   Bn2
 BYTE   W01
 BYTE   Dn3
 BYTE   W01
 BYTE   VOL   0*GritsTheme_mvl/mxv
 BYTE   BEND   c_v+0
 BYTE   W03
 BYTE   VOL   0*GritsTheme_mvl/mxv
 BYTE   W04
// 002   ----------------------------------------
 BYTE   CnM2
 BYTE   W02
 BYTE   EOT
 BYTE   W02
 BYTE   VOL   0*GritsTheme_mvl/mxv
 BYTE   W92
// 003   ----------------------------------------
 BYTE   W06
 BYTE   Fn3
 BYTE   W90
// 004   ----------------------------------------
Label_4_010010D4:
 BYTE   VOL   65*GritsTheme_mvl/mxv
 BYTE   N24  En2  v127
 BYTE   W02
 BYTE   VOL   65*GritsTheme_mvl/mxv
 BYTE   W03
 BYTE   Fn3
 BYTE   W03
 BYTE   Fn3
 BYTE   W03
 BYTE   Fn3
 BYTE   W03
 BYTE   Fs2
 BYTE   W04
 BYTE   Fs0
 BYTE   W06
 BYTE   Fn3
 BYTE   N24
 BYTE   W02
 BYTE   VOL   65*GritsTheme_mvl/mxv
 BYTE   W03
 BYTE   Fn3
 BYTE   W03
 BYTE   Fn3
 BYTE   W03
 BYTE   Fn3
 BYTE   W03
 BYTE   Fs2
 BYTE   W10
 BYTE   Fn3
 BYTE   N24
 BYTE   W02
 BYTE   VOL   65*GritsTheme_mvl/mxv
 BYTE   W03
 BYTE   Fn3
 BYTE   W03
 BYTE   Fn3
 BYTE   W03
 BYTE   Fn3
 BYTE   W03
 BYTE   Fs2
 BYTE   W10
 BYTE   Fn3
 BYTE   N16
 BYTE   W02
 BYTE   VOL   65*GritsTheme_mvl/mxv
 BYTE   W03
 BYTE   Fn3
 BYTE   W03
 BYTE   Fn3
 BYTE   W03
 BYTE   Fn3
 BYTE   W03
 BYTE   Fs2
 BYTE   W02
 BYTE   Fn3
 BYTE   N08
 BYTE   W08
 BYTE   PEND 
// 005   ----------------------------------------
Label_4_01001115:
 BYTE   N24  En2  v127
 BYTE   W05
 BYTE   VOL   65*GritsTheme_mvl/mxv
 BYTE   W03
 BYTE   Fn3
 BYTE   W03
 BYTE   Fn3
 BYTE   W03
 BYTE   Fs2
 BYTE   W04
 BYTE   Fs0
 BYTE   W06
 BYTE   Fn3
 BYTE   N24
 BYTE   W05
 BYTE   VOL   65*GritsTheme_mvl/mxv
 BYTE   W03
 BYTE   Fn3
 BYTE   W03
 BYTE   Fn3
 BYTE   W03
 BYTE   Fs2
 BYTE   W10
 BYTE   Fn3
 BYTE   N16
 BYTE   W02
 BYTE   VOL   65*GritsTheme_mvl/mxv
 BYTE   W03
 BYTE   Fn3
 BYTE   W03
 BYTE   Fn3
 BYTE   W03
 BYTE   Fn3
 BYTE   W03
 BYTE   Fs2
 BYTE   W02
 BYTE   Fn3
 BYTE   N08
 BYTE   W08
 BYTE   N16  Dn3
 BYTE   W16
 BYTE   N08  En2
 BYTE   W08
 BYTE   PEND 
// 006   ----------------------------------------
Label_4_01001148:
 BYTE   VOL   65*GritsTheme_mvl/mxv
 BYTE   N24  Dn3  v127
 BYTE   W02
 BYTE   VOL   65*GritsTheme_mvl/mxv
 BYTE   W03
 BYTE   Fn3
 BYTE   W03
 BYTE   Fn3
 BYTE   W03
 BYTE   Fn3
 BYTE   W03
 BYTE   Fs2
 BYTE   W04
 BYTE   Fs0
 BYTE   W06
 BYTE   Fn3
 BYTE   N24
 BYTE   W02
 BYTE   VOL   65*GritsTheme_mvl/mxv
 BYTE   W03
 BYTE   Fn3
 BYTE   W03
 BYTE   Fn3
 BYTE   W03
 BYTE   Fn3
 BYTE   W03
 BYTE   Fs2
 BYTE   W10
 BYTE   Fn3
 BYTE   N24
 BYTE   W02
 BYTE   VOL   65*GritsTheme_mvl/mxv
 BYTE   W03
 BYTE   Fn3
 BYTE   W03
 BYTE   Fn3
 BYTE   W03
 BYTE   Fn3
 BYTE   W03
 BYTE   Fs2
 BYTE   W10
 BYTE   Fn3
 BYTE   N16
 BYTE   W02
 BYTE   VOL   65*GritsTheme_mvl/mxv
 BYTE   W03
 BYTE   Fn3
 BYTE   W03
 BYTE   Fn3
 BYTE   W03
 BYTE   Fn3
 BYTE   W03
 BYTE   Fs2
 BYTE   W02
 BYTE   Fn3
 BYTE   N08
 BYTE   W08
 BYTE   PEND 
// 007   ----------------------------------------
Label_4_01001189:
 BYTE   VOL   65*GritsTheme_mvl/mxv
 BYTE   N24  An2  v127
 BYTE   W02
 BYTE   VOL   65*GritsTheme_mvl/mxv
 BYTE   W03
 BYTE   Fn3
 BYTE   W03
 BYTE   Fn3
 BYTE   W03
 BYTE   Fn3
 BYTE   W03
 BYTE   Fs2
 BYTE   W10
 BYTE   Fn3
 BYTE   N24
 BYTE   W02
 BYTE   VOL   65*GritsTheme_mvl/mxv
 BYTE   W03
 BYTE   Fn3
 BYTE   W03
 BYTE   Fn3
 BYTE   W03
 BYTE   Fn3
 BYTE   W03
 BYTE   Fs2
 BYTE   W10
 BYTE   Fn3
 BYTE   N16
 BYTE   W02
 BYTE   VOL   65*GritsTheme_mvl/mxv
 BYTE   W03
 BYTE   Fn3
 BYTE   W03
 BYTE   Fn3
 BYTE   W03
 BYTE   Fn3
 BYTE   W03
 BYTE   Fs2
 BYTE   W02
 BYTE   Fn3
 BYTE   N08
 BYTE   W08
 BYTE   N16  Gn2
 BYTE   W16
 BYTE   N08  An2
 BYTE   W08
 BYTE   PEND 
// 008   ----------------------------------------
 BYTE   PATT
  POIN2 Label_4_010010D4
// 009   ----------------------------------------
 BYTE   PATT
  POIN2 Label_4_01001115
// 010   ----------------------------------------
 BYTE   PATT
  POIN2 Label_4_01001148
// 011   ----------------------------------------
 BYTE   PATT
  POIN2 Label_4_01001189
// 012   ----------------------------------------
 BYTE   VOL   65*GritsTheme_mvl/mxv
 BYTE   N24  Gn2  v127
 BYTE   W02
 BYTE   VOL   65*GritsTheme_mvl/mxv
 BYTE   W03
 BYTE   Fn3
 BYTE   W03
 BYTE   Fn3
 BYTE   W03
 BYTE   Fn3
 BYTE   W03
 BYTE   Fs2
 BYTE   W04
 BYTE   Fs0
 BYTE   W06
 BYTE   Fn3
 BYTE   N24
 BYTE   W02
 BYTE   VOL   65*GritsTheme_mvl/mxv
 BYTE   W03
 BYTE   Fn3
 BYTE   W03
 BYTE   Fn3
 BYTE   W03
 BYTE   Fn3
 BYTE   W03
 BYTE   Fs2
 BYTE   W10
 BYTE   Fn3
 BYTE   N24
 BYTE   W02
 BYTE   VOL   65*GritsTheme_mvl/mxv
 BYTE   W03
 BYTE   Fn3
 BYTE   W03
 BYTE   Fn3
 BYTE   W03
 BYTE   Fn3
 BYTE   W03
 BYTE   Fs2
 BYTE   W10
 BYTE   Fn3
 BYTE   N16
 BYTE   W02
 BYTE   VOL   65*GritsTheme_mvl/mxv
 BYTE   W03
 BYTE   Fn3
 BYTE   W03
 BYTE   Fn3
 BYTE   W03
 BYTE   Fn3
 BYTE   W03
 BYTE   Fs2
 BYTE   W02
 BYTE   Fn3
 BYTE   N08
 BYTE   W08
// 013   ----------------------------------------
 BYTE   VOL   65*GritsTheme_mvl/mxv
 BYTE   N24  Bn2
 BYTE   W02
 BYTE   VOL   65*GritsTheme_mvl/mxv
 BYTE   W03
 BYTE   Fn3
 BYTE   W03
 BYTE   Fn3
 BYTE   W03
 BYTE   Fn3
 BYTE   W03
 BYTE   Fs2
 BYTE   W04
 BYTE   Fs0
 BYTE   W06
 BYTE   Fn3
 BYTE   N24
 BYTE   W02
 BYTE   VOL   65*GritsTheme_mvl/mxv
 BYTE   W03
 BYTE   Fn3
 BYTE   W03
 BYTE   Fn3
 BYTE   W03
 BYTE   Fn3
 BYTE   W03
 BYTE   Fs2
 BYTE   W10
 BYTE   Fn3
 BYTE   N24
 BYTE   W02
 BYTE   VOL   65*GritsTheme_mvl/mxv
 BYTE   W03
 BYTE   Fn3
 BYTE   W03
 BYTE   Fn3
 BYTE   W03
 BYTE   Fn3
 BYTE   W03
 BYTE   Fs2
 BYTE   W10
 BYTE   Fn3
 BYTE   N16
 BYTE   W02
 BYTE   VOL   65*GritsTheme_mvl/mxv
 BYTE   W03
 BYTE   Fn3
 BYTE   W03
 BYTE   Fn3
 BYTE   W03
 BYTE   Fn3
 BYTE   W03
 BYTE   Fs2
 BYTE   W02
 BYTE   Fn3
 BYTE   N08
 BYTE   W08
// 014   ----------------------------------------
Label_4_01001253:
 BYTE   VOL   65*GritsTheme_mvl/mxv
 BYTE   N24  Cs3  v127
 BYTE   W02
 BYTE   VOL   65*GritsTheme_mvl/mxv
 BYTE   W03
 BYTE   Fn3
 BYTE   W03
 BYTE   Fn3
 BYTE   W03
 BYTE   Fn3
 BYTE   W03
 BYTE   Fs2
 BYTE   W04
 BYTE   Fs0
 BYTE   W06
 BYTE   Fn3
 BYTE   N24
 BYTE   W02
 BYTE   VOL   65*GritsTheme_mvl/mxv
 BYTE   W03
 BYTE   Fn3
 BYTE   W03
 BYTE   Fn3
 BYTE   W03
 BYTE   Fn3
 BYTE   W03
 BYTE   Fs2
 BYTE   W10
 BYTE   Fn3
 BYTE   N24
 BYTE   W02
 BYTE   VOL   65*GritsTheme_mvl/mxv
 BYTE   W03
 BYTE   Fn3
 BYTE   W03
 BYTE   Fn3
 BYTE   W03
 BYTE   Fn3
 BYTE   W03
 BYTE   Fs2
 BYTE   W10
 BYTE   Fn3
 BYTE   N16
 BYTE   W02
 BYTE   VOL   65*GritsTheme_mvl/mxv
 BYTE   W03
 BYTE   Fn3
 BYTE   W03
 BYTE   Fn3
 BYTE   W03
 BYTE   Fn3
 BYTE   W03
 BYTE   Fs2
 BYTE   W02
 BYTE   Fn3
 BYTE   N08
 BYTE   W08
 BYTE   PEND 
// 015   ----------------------------------------
 BYTE   PATT
  POIN2 Label_4_01001253
// 016   ----------------------------------------
 BYTE   PATT
  POIN2 Label_4_010010D4
// 017   ----------------------------------------
 BYTE   PATT
  POIN2 Label_4_01001115
// 018   ----------------------------------------
 BYTE   PATT
  POIN2 Label_4_01001148
// 019   ----------------------------------------
 BYTE   PATT
  POIN2 Label_4_01001189
// 020   ----------------------------------------
 BYTE   PATT
  POIN2 Label_4_010010D4
// 021   ----------------------------------------
 BYTE   PATT
  POIN2 Label_4_01001115
// 022   ----------------------------------------
 BYTE   PATT
  POIN2 Label_4_01001148
// 023   ----------------------------------------
 BYTE   PATT
  POIN2 Label_4_01001189
// 024   ----------------------------------------
 BYTE   N78  Gn2  v127
 BYTE   W04
 BYTE   VOL   65*GritsTheme_mvl/mxv
 BYTE   W02
 BYTE   Fn3
 BYTE   W03
 BYTE   Fn3
 BYTE   W03
 BYTE   Fn3
 BYTE   W03
 BYTE   Fn3
 BYTE   W03
 BYTE   Fn3
 BYTE   W03
 BYTE   Fn3
 BYTE   W03
 BYTE   Fn3
 BYTE   W02
 BYTE   Fn3
 BYTE   W03
 BYTE   Fn3
 BYTE   W03
 BYTE   Fn3
 BYTE   W03
 BYTE   Fn3
 BYTE   W03
 BYTE   Fn3
 BYTE   W03
 BYTE   Fn3
 BYTE   W03
 BYTE   Fn3
 BYTE   W02
 BYTE   Fn3
 BYTE   W03
 BYTE   Cs3
 BYTE   W03
 BYTE   Fs2
 BYTE   W03
 BYTE   Dn2
 BYTE   W03
 BYTE   An1
 BYTE   W03
 BYTE   Ds1
 BYTE   W03
 BYTE   As0
 BYTE   W02
 BYTE   En0
 BYTE   W03
 BYTE   Cn0
 BYTE   W03
 BYTE   FsM1
 BYTE   W03
 BYTE   CnM1
 BYTE   W03
 BYTE   AnM2
 BYTE   W03
 BYTE   DnM2
 BYTE   W03
 BYTE   Fn3
 BYTE   W04
 BYTE   N08
 BYTE   W08
// 025   ----------------------------------------
 BYTE   N84  Bn2
 BYTE   W08
 BYTE   VOL   65*GritsTheme_mvl/mxv
 BYTE   W02
 BYTE   Fn3
 BYTE   W03
 BYTE   Fn3
 BYTE   W03
 BYTE   Fn3
 BYTE   W03
 BYTE   Fn3
 BYTE   W03
 BYTE   Fn3
 BYTE   W03
 BYTE   Fn3
 BYTE   W02
 BYTE   Fn3
 BYTE   W03
 BYTE   Fn3
 BYTE   W03
 BYTE   Fn3
 BYTE   W03
 BYTE   Fn3
 BYTE   W03
 BYTE   Fn3
 BYTE   W03
 BYTE   Fn3
 BYTE   W03
 BYTE   Fn3
 BYTE   W02
 BYTE   Fn3
 BYTE   W03
 BYTE   Cn3
 BYTE   W03
 BYTE   Fs2
 BYTE   W03
 BYTE   Dn2
 BYTE   W03
 BYTE   Gs1
 BYTE   W03
 BYTE   Cs1
 BYTE   W02
 BYTE   Gn0
 BYTE   W03
 BYTE   Dn0
 BYTE   W03
 BYTE   GnM1
 BYTE   W03
 BYTE   CsM1
 BYTE   W03
 BYTE   AnM2
 BYTE   W03
 BYTE   DsM2
 BYTE   W03
 BYTE   CnM2
 BYTE   W04
 BYTE   Fn3
 BYTE   W02
 BYTE   N08
 BYTE   W08
// 026   ----------------------------------------
 BYTE   N90  Cs3
 BYTE   W08
 BYTE   VOL   65*GritsTheme_mvl/mxv
 BYTE   W02
 BYTE   Fn3
 BYTE   W03
 BYTE   Fn3
 BYTE   W03
 BYTE   Fn3
 BYTE   W03
 BYTE   Fn3
 BYTE   W03
 BYTE   Fn3
 BYTE   W03
 BYTE   Fn3
 BYTE   W03
 BYTE   Fn3
 BYTE   W02
 BYTE   Fn3
 BYTE   W03
 BYTE   Fn3
 BYTE   W03
 BYTE   Fn3
 BYTE   W03
 BYTE   Fn3
 BYTE   W03
 BYTE   Fn3
 BYTE   W03
 BYTE   Fn3
 BYTE   W03
 BYTE   Fn3
 BYTE   W03
 BYTE   Fn3
 BYTE   W02
 BYTE   Fn3
 BYTE   W03
 BYTE   Cs3
 BYTE   W03
 BYTE   An2
 BYTE   W03
 BYTE   En2
 BYTE   W03
 BYTE   Cn2
 BYTE   W03
 BYTE   En1
 BYTE   W03
 BYTE   Cn1
 BYTE   W02
 BYTE   Gn0
 BYTE   W03
 BYTE   Ds0
 BYTE   W03
 BYTE   AsM1
 BYTE   W03
 BYTE   EnM1
 BYTE   W03
 BYTE   BnM2
 BYTE   W03
 BYTE   FnM2
 BYTE   W03
 BYTE   DnM2
 BYTE   W03
 BYTE   Fn3
 BYTE   W02
// 027   ----------------------------------------
 BYTE   PATT
  POIN2 Label_4_01001253
// 028   ----------------------------------------
 BYTE   GoTo
  POIN2 Label_4_010010D4
// 029   ----------------------------------------
 BYTE   W96
 BYTE   FINE

//**************** Track 6 (Midi-Chn.5) ****************//

GritsTheme_006:
// 000   ----------------------------------------
 BYTE   KEYSH   GritsTheme_key+0
 BYTE   VOICE   17
 BYTE   VOL   63*GritsTheme_mvl/mxv
 BYTE   BEND   c_v-2
 BYTE   N96  Bn2  v124
 BYTE   W01
 BYTE   BEND   c_v-2
 BYTE   W01
 BYTE   Dn3
 BYTE   W01
 BYTE   VOL   60*GritsTheme_mvl/mxv
 BYTE   BEND   c_v-2
 BYTE   W01
 BYTE   Ds3
 BYTE   N90  Bn3
 BYTE   W01
 BYTE   BEND   c_v-1
 BYTE   W01
 BYTE   VOL   57*GritsTheme_mvl/mxv
 BYTE   BEND   c_v-1
 BYTE   W01
 BYTE   Ds3
 BYTE   W01
 BYTE   Ds3
 BYTE   W01
 BYTE   VOL   55*GritsTheme_mvl/mxv
 BYTE   BEND   c_v+0
 BYTE   W01
 BYTE   En3
 BYTE   W01
 BYTE   En3
 BYTE   W01
 BYTE   VOL   52*GritsTheme_mvl/mxv
 BYTE   BEND   c_v+0
 BYTE   W01
 BYTE   En3
 BYTE   W01
 BYTE   Fn3
 BYTE   W01
 BYTE   VOL   50*GritsTheme_mvl/mxv
 BYTE   BEND   c_v+1
 BYTE   W01
 BYTE   Fn3
 BYTE   W01
 BYTE   Fn3
 BYTE   W01
 BYTE   VOL   47*GritsTheme_mvl/mxv
 BYTE   BEND   c_v+1
 BYTE   W01
 BYTE   Fn3
 BYTE   W01
 BYTE   Fs3
 BYTE   W01
 BYTE   VOL   44*GritsTheme_mvl/mxv
 BYTE   BEND   c_v+2
 BYTE   W01
 BYTE   Fs3
 BYTE   W01
 BYTE   Fs3
 BYTE   W01
 BYTE   VOL   41*GritsTheme_mvl/mxv
 BYTE   BEND   c_v+2
 BYTE   W01
 BYTE   Fs3
 BYTE   W01
 BYTE   Fs3
 BYTE   W01
 BYTE   VOL   39*GritsTheme_mvl/mxv
 BYTE   BEND   c_v+2
 BYTE   W01
 BYTE   Gn3
 BYTE   W01
 BYTE   Gn3
 BYTE   W01
 BYTE   VOL   36*GritsTheme_mvl/mxv
 BYTE   BEND   c_v+3
 BYTE   W01
 BYTE   Gn3
 BYTE   W01
 BYTE   Gn3
 BYTE   W01
 BYTE   VOL   34*GritsTheme_mvl/mxv
 BYTE   BEND   c_v+3
 BYTE   W01
 BYTE   Gn3
 BYTE   W01
 BYTE   Gn3
 BYTE   W01
 BYTE   VOL   32*GritsTheme_mvl/mxv
 BYTE   BEND   c_v+3
 BYTE   W01
 BYTE   Gn3
 BYTE   W01
 BYTE   Gn3
 BYTE   W01
 BYTE   VOL   30*GritsTheme_mvl/mxv
 BYTE   BEND   c_v+3
 BYTE   W01
 BYTE   Gn3
 BYTE   W01
 BYTE   Gn3
 BYTE   W01
 BYTE   VOL   28*GritsTheme_mvl/mxv
 BYTE   BEND   c_v+3
 BYTE   W01
 BYTE   Gn3
 BYTE   W01
 BYTE   Gn3
 BYTE   W01
 BYTE   VOL   26*GritsTheme_mvl/mxv
 BYTE   BEND   c_v+3
 BYTE   W01
 BYTE   Gn3
 BYTE   W02
 BYTE   VOL   24*GritsTheme_mvl/mxv
 BYTE   BEND   c_v+3
 BYTE   W02
 BYTE   Gn3
 BYTE   W01
 BYTE   VOL   22*GritsTheme_mvl/mxv
 BYTE   BEND   c_v+3
 BYTE   W01
 BYTE   Gn3
 BYTE   W01
 BYTE   Gn3
 BYTE   W01
 BYTE   VOL   20*GritsTheme_mvl/mxv
 BYTE   BEND   c_v+3
 BYTE   W01
 BYTE   Gn3
 BYTE   W01
 BYTE   VOL   19*GritsTheme_mvl/mxv
 BYTE   BEND   c_v+3
 BYTE   W01
 BYTE   Gn3
 BYTE   W01
 BYTE   Gn3
 BYTE   W01
 BYTE   VOL   18*GritsTheme_mvl/mxv
 BYTE   BEND   c_v+3
 BYTE   W01
 BYTE   Gn3
 BYTE   W01
 BYTE   Gn3
 BYTE   W01
 BYTE   VOL   17*GritsTheme_mvl/mxv
 BYTE   BEND   c_v+3
 BYTE   W01
 BYTE   Gn3
 BYTE   W01
 BYTE   Gn3
 BYTE   W01
 BYTE   VOL   16*GritsTheme_mvl/mxv
 BYTE   BEND   c_v+3
 BYTE   W01
 BYTE   Gn3
 BYTE   W01
 BYTE   Fs3
 BYTE   W01
 BYTE   VOL   15*GritsTheme_mvl/mxv
 BYTE   BEND   c_v+2
 BYTE   W01
 BYTE   Fs3
 BYTE   W01
 BYTE   VOL   14*GritsTheme_mvl/mxv
 BYTE   BEND   c_v+2
 BYTE   W01
 BYTE   Fs3
 BYTE   W01
 BYTE   Fs3
 BYTE   W01
 BYTE   VOL   13*GritsTheme_mvl/mxv
 BYTE   BEND   c_v+2
 BYTE   W01
 BYTE   Fs3
 BYTE   W01
 BYTE   Fn3
 BYTE   W01
 BYTE   VOL   13*GritsTheme_mvl/mxv
 BYTE   BEND   c_v+1
 BYTE   W01
 BYTE   Fn3
 BYTE   W01
 BYTE   Fn3
 BYTE   W01
 BYTE   VOL   12*GritsTheme_mvl/mxv
 BYTE   BEND   c_v+1
 BYTE   W01
 BYTE   Fn3
 BYTE   W01
 BYTE   Fn3
 BYTE   W01
 BYTE   VOL   11*GritsTheme_mvl/mxv
 BYTE   BEND   c_v+0
 BYTE   W01
 BYTE   En3
 BYTE   W01
 BYTE   VOL   10*GritsTheme_mvl/mxv
 BYTE   BEND   c_v+0
 BYTE   W01
 BYTE   En3
 BYTE   W01
 BYTE   En3
 BYTE   W01
 BYTE   VOL   9*GritsTheme_mvl/mxv
 BYTE   BEND   c_v-1
 BYTE   W01
 BYTE   Ds3
 BYTE   W01
 BYTE   Ds3
 BYTE   W01
 BYTE   VOL   8*GritsTheme_mvl/mxv
 BYTE   BEND   c_v-1
 BYTE   W01
 BYTE   Ds3
 BYTE   W01
 BYTE   Dn3
 BYTE   W01
 BYTE   VOL   7*GritsTheme_mvl/mxv
 BYTE   BEND   c_v-2
 BYTE   W01
 BYTE   Dn3
 BYTE   W01
 BYTE   Dn3
 BYTE   W01
// 001   ----------------------------------------
 BYTE   VOL   62*GritsTheme_mvl/mxv
 BYTE   BEND   c_v+0
 BYTE   N96  An2
 BYTE   W01
 BYTE   VOL   57*GritsTheme_mvl/mxv
 BYTE   W02
 BYTE   En2
 BYTE   BEND   c_v+0
 BYTE   W01
 BYTE   VOL   47*GritsTheme_mvl/mxv
 BYTE   W02
 BYTE   Fn1
 BYTE   BEND   c_v+1
 BYTE   N90  Cs4
 BYTE   W01
 BYTE   VOL   44*GritsTheme_mvl/mxv
 BYTE   W02
 BYTE   As1
 BYTE   BEND   c_v+1
 BYTE   W01
 BYTE   VOL   49*GritsTheme_mvl/mxv
 BYTE   W02
 BYTE   Cs2
 BYTE   BEND   c_v+2
 BYTE   W01
 BYTE   VOL   46*GritsTheme_mvl/mxv
 BYTE   W02
 BYTE   Fs1
 BYTE   BEND   c_v+3
 BYTE   W01
 BYTE   VOL   39*GritsTheme_mvl/mxv
 BYTE   W01
 BYTE   En1
 BYTE   W01
 BYTE   BEND   c_v+4
 BYTE   W01
 BYTE   VOL   42*GritsTheme_mvl/mxv
 BYTE   W01
 BYTE   Gs1
 BYTE   BEND   c_v+3
 BYTE   W02
 BYTE   VOL   46*GritsTheme_mvl/mxv
 BYTE   W01
 BYTE   Fn1
 BYTE   BEND   c_v+2
 BYTE   W01
 BYTE   VOL   36*GritsTheme_mvl/mxv
 BYTE   W02
 BYTE   Gs0
 BYTE   BEND   c_v+2
 BYTE   W01
 BYTE   VOL   34*GritsTheme_mvl/mxv
 BYTE   W02
 BYTE   Cn1
 BYTE   BEND   c_v+1
 BYTE   W01
 BYTE   VOL   39*GritsTheme_mvl/mxv
 BYTE   W02
 BYTE   Fn1
 BYTE   BEND   c_v+1
 BYTE   W01
 BYTE   VOL   38*GritsTheme_mvl/mxv
 BYTE   W01
 BYTE   Bn0
 BYTE   W01
 BYTE   BEND   c_v+0
 BYTE   W01
 BYTE   VOL   33*GritsTheme_mvl/mxv
 BYTE   W01
 BYTE   Fs0
 BYTE   W01
 BYTE   Ds0
 BYTE   BEND   c_v-4
 BYTE   W01
 BYTE   Cn3
 BYTE   W01
 BYTE   VOL   27*GritsTheme_mvl/mxv
 BYTE   BEND   c_v-4
 BYTE   W01
 BYTE   Cn3
 BYTE   W01
 BYTE   VOL   28*GritsTheme_mvl/mxv
 BYTE   BEND   c_v-4
 BYTE   W01
 BYTE   VOL   26*GritsTheme_mvl/mxv
 BYTE   BEND   c_v-4
 BYTE   W01
 BYTE   VOL   24*GritsTheme_mvl/mxv
 BYTE   BEND   c_v-4
 BYTE   W01
 BYTE   VOL   21*GritsTheme_mvl/mxv
 BYTE   BEND   c_v-4
 BYTE   W01
 BYTE   VOL   19*GritsTheme_mvl/mxv
 BYTE   BEND   c_v-4
 BYTE   W01
 BYTE   Cn3
 BYTE   W01
 BYTE   VOL   17*GritsTheme_mvl/mxv
 BYTE   BEND   c_v-4
 BYTE   W01
 BYTE   VOL   18*GritsTheme_mvl/mxv
 BYTE   BEND   c_v-4
 BYTE   W01
 BYTE   VOL   20*GritsTheme_mvl/mxv
 BYTE   BEND   c_v-4
 BYTE   W01
 BYTE   VOL   22*GritsTheme_mvl/mxv
 BYTE   BEND   c_v-4
 BYTE   W01
 BYTE   VOL   24*GritsTheme_mvl/mxv
 BYTE   BEND   c_v-4
 BYTE   W01
 BYTE   Cs3
 BYTE   W01
 BYTE   VOL   26*GritsTheme_mvl/mxv
 BYTE   BEND   c_v-3
 BYTE   W01
 BYTE   VOL   24*GritsTheme_mvl/mxv
 BYTE   BEND   c_v-3
 BYTE   W01
 BYTE   VOL   22*GritsTheme_mvl/mxv
 BYTE   BEND   c_v-3
 BYTE   W01
 BYTE   VOL   19*GritsTheme_mvl/mxv
 BYTE   BEND   c_v-3
 BYTE   W01
 BYTE   VOL   17*GritsTheme_mvl/mxv
 BYTE   BEND   c_v-3
 BYTE   W01
 BYTE   Cs3
 BYTE   W01
 BYTE   VOL   15*GritsTheme_mvl/mxv
 BYTE   BEND   c_v-3
 BYTE   W01
 BYTE   VOL   16*GritsTheme_mvl/mxv
 BYTE   BEND   c_v-3
 BYTE   W01
 BYTE   VOL   18*GritsTheme_mvl/mxv
 BYTE   BEND   c_v-3
 BYTE   W01
 BYTE   VOL   20*GritsTheme_mvl/mxv
 BYTE   BEND   c_v-3
 BYTE   W01
 BYTE   VOL   23*GritsTheme_mvl/mxv
 BYTE   BEND   c_v-3
 BYTE   W01
 BYTE   Dn3
 BYTE   W01
 BYTE   VOL   25*GritsTheme_mvl/mxv
 BYTE   BEND   c_v-2
 BYTE   W01
 BYTE   VOL   23*GritsTheme_mvl/mxv
 BYTE   BEND   c_v-2
 BYTE   W01
 BYTE   VOL   20*GritsTheme_mvl/mxv
 BYTE   BEND   c_v-2
 BYTE   W01
 BYTE   VOL   17*GritsTheme_mvl/mxv
 BYTE   BEND   c_v-2
 BYTE   W01
 BYTE   VOL   15*GritsTheme_mvl/mxv
 BYTE   BEND   c_v-2
 BYTE   W01
 BYTE   Dn3
 BYTE   W01
 BYTE   VOL   15*GritsTheme_mvl/mxv
 BYTE   BEND   c_v-2
 BYTE   W01
 BYTE   VOL   16*GritsTheme_mvl/mxv
 BYTE   BEND   c_v-2
 BYTE   W01
 BYTE   VOL   18*GritsTheme_mvl/mxv
 BYTE   BEND   c_v-2
 BYTE   W01
 BYTE   Ds3
 BYTE   W01
 BYTE   VOL   21*GritsTheme_mvl/mxv
 BYTE   BEND   c_v-1
 BYTE   W01
 BYTE   VOL   18*GritsTheme_mvl/mxv
 BYTE   BEND   c_v-1
 BYTE   W01
 BYTE   VOL   16*GritsTheme_mvl/mxv
 BYTE   BEND   c_v-1
 BYTE   W01
 BYTE   VOL   14*GritsTheme_mvl/mxv
 BYTE   BEND   c_v-1
 BYTE   W01
 BYTE   VOL   12*GritsTheme_mvl/mxv
 BYTE   BEND   c_v-1
 BYTE   W01
 BYTE   Ds3
 BYTE   W01
 BYTE   VOL   10*GritsTheme_mvl/mxv
 BYTE   BEND   c_v-1
 BYTE   W01
 BYTE   VOL   11*GritsTheme_mvl/mxv
 BYTE   BEND   c_v+0
 BYTE   W01
 BYTE   VOL   12*GritsTheme_mvl/mxv
 BYTE   BEND   c_v+0
 BYTE   W01
 BYTE   VOL   14*GritsTheme_mvl/mxv
 BYTE   BEND   c_v+0
 BYTE   W01
 BYTE   VOL   15*GritsTheme_mvl/mxv
 BYTE   BEND   c_v+0
 BYTE   W01
 BYTE   En3
 BYTE   W01
 BYTE   VOL   17*GritsTheme_mvl/mxv
 BYTE   BEND   c_v+0
 BYTE   W01
 BYTE   VOL   14*GritsTheme_mvl/mxv
 BYTE   BEND   c_v+1
 BYTE   W01
 BYTE   VOL   12*GritsTheme_mvl/mxv
 BYTE   BEND   c_v+1
 BYTE   W01
 BYTE   VOL   9*GritsTheme_mvl/mxv
 BYTE   BEND   c_v+1
 BYTE   W01
 BYTE   VOL   7*GritsTheme_mvl/mxv
 BYTE   BEND   c_v+1
 BYTE   W01
 BYTE   VOL   4*GritsTheme_mvl/mxv
 BYTE   BEND   c_v+1
 BYTE   W01
 BYTE   VOL   2*GritsTheme_mvl/mxv
 BYTE   BEND   c_v+1
 BYTE   W01
 BYTE   Fn3
 BYTE   W01
// 002   ----------------------------------------
 BYTE   VOL   64*GritsTheme_mvl/mxv
 BYTE   BEND   c_v-4
 BYTE   TIE  Bn2
 BYTE   W01
 BYTE   VOL   61*GritsTheme_mvl/mxv
 BYTE   BEND   c_v-4
 BYTE   W01
 BYTE   VOL   58*GritsTheme_mvl/mxv
 BYTE   BEND   c_v-4
 BYTE   W01
 BYTE   VOL   55*GritsTheme_mvl/mxv
 BYTE   BEND   c_v-3
 BYTE   W01
 BYTE   VOL   53*GritsTheme_mvl/mxv
 BYTE   BEND   c_v-3
 BYTE   W01
 BYTE   VOL   50*GritsTheme_mvl/mxv
 BYTE   BEND   c_v-3
 BYTE   W01
 BYTE   VOL   47*GritsTheme_mvl/mxv
 BYTE   BEND   c_v-2
 BYTE   TIE  Bn3
 BYTE   W01
 BYTE   VOL   44*GritsTheme_mvl/mxv
 BYTE   BEND   c_v-2
 BYTE   W01
 BYTE   VOL   41*GritsTheme_mvl/mxv
 BYTE   BEND   c_v-2
 BYTE   W01
 BYTE   VOL   44*GritsTheme_mvl/mxv
 BYTE   BEND   c_v-2
 BYTE   W01
 BYTE   VOL   47*GritsTheme_mvl/mxv
 BYTE   BEND   c_v-1
 BYTE   W01
 BYTE   VOL   50*GritsTheme_mvl/mxv
 BYTE   BEND   c_v-1
 BYTE   W01
 BYTE   VOL   53*GritsTheme_mvl/mxv
 BYTE   BEND   c_v-1
 BYTE   W01
 BYTE   VOL   49*GritsTheme_mvl/mxv
 BYTE   BEND   c_v-1
 BYTE   W01
 BYTE   VOL   46*GritsTheme_mvl/mxv
 BYTE   BEND   c_v+0
 BYTE   W01
 BYTE   VOL   43*GritsTheme_mvl/mxv
 BYTE   BEND   c_v+0
 BYTE   W01
 BYTE   VOL   39*GritsTheme_mvl/mxv
 BYTE   BEND   c_v+0
 BYTE   W01
 BYTE   VOL   36*GritsTheme_mvl/mxv
 BYTE   BEND   c_v+0
 BYTE   W01
 BYTE   VOL   33*GritsTheme_mvl/mxv
 BYTE   BEND   c_v+0
 BYTE   W01
 BYTE   VOL   34*GritsTheme_mvl/mxv
 BYTE   BEND   c_v+1
 BYTE   W01
 BYTE   VOL   36*GritsTheme_mvl/mxv
 BYTE   BEND   c_v+1
 BYTE   W01
 BYTE   VOL   37*GritsTheme_mvl/mxv
 BYTE   BEND   c_v+1
 BYTE   W01
 BYTE   VOL   39*GritsTheme_mvl/mxv
 BYTE   BEND   c_v+1
 BYTE   W01
 BYTE   VOL   40*GritsTheme_mvl/mxv
 BYTE   BEND   c_v+1
 BYTE   W01
 BYTE   VOL   42*GritsTheme_mvl/mxv
 BYTE   W01
 BYTE   Ds1
 BYTE   W01
 BYTE   Bn0
 BYTE   W01
 BYTE   Gs0
 BYTE   W01
 BYTE   En0
 BYTE   W01
 BYTE   Ds0
 BYTE   W01
 BYTE   Dn0
 BYTE   W01
 BYTE   Cn0
 BYTE   W01
 BYTE   BnM1
 BYTE   W01
 BYTE   Cn0
 BYTE   W01
 BYTE   Dn0
 BYTE   W01
 BYTE   Ds0
 BYTE   W01
 BYTE   Fn0
 BYTE   W01
 BYTE   Fs0
 BYTE   W01
 BYTE   Gs0
 BYTE   W01
 BYTE   Fs0
 BYTE   W01
 BYTE   En0
 BYTE   W01
 BYTE   Ds0
 BYTE   W01
 BYTE   Cs0
 BYTE   W01
 BYTE   BnM1
 BYTE   W01
 BYTE   AnM1
 BYTE   W01
 BYTE   AsM1
 BYTE   W01
 BYTE   Cn0
 BYTE   W01
 BYTE   Cs0
 BYTE   W01
 BYTE   Dn0
 BYTE   W01
 BYTE   Cn0
 BYTE   W01
 BYTE   BnM1
 BYTE   W01
 BYTE   AnM1
 BYTE   W01
 BYTE   GnM1
 BYTE   W01
 BYTE   FnM1
 BYTE   W01
 BYTE   EnM1
 BYTE   W02
 BYTE   GnM1
 BYTE   W02
 BYTE   CsM1
 BYTE   W02
 BYTE   GsM2
 BYTE   W02
 BYTE   CnM1
 BYTE   W02
 BYTE   FnM1
 BYTE   W02
 BYTE   BnM1
 BYTE   W02
 BYTE   EnM1
 BYTE   W02
 BYTE   CnM1
 BYTE   W02
 BYTE   GnM2
 BYTE   W02
 BYTE   AsM2
 BYTE   W02
 BYTE   DsM1
 BYTE   W02
 BYTE   FsM1
 BYTE   W02
 BYTE   CsM1
 BYTE   W02
 BYTE   AnM2
 BYTE   W02
 BYTE   FsM2
 BYTE   W02
 BYTE   GsM2
 BYTE   W02
 BYTE   BnM2
 BYTE   W02
 BYTE   DnM1
 BYTE   W02
 BYTE   AsM2
 BYTE   W02
 BYTE   FsM2
 BYTE   W02
// 003   ----------------------------------------
 BYTE   EnM2
 BYTE   W02
 BYTE   FsM2
 BYTE   W02
 BYTE   AnM2
 BYTE   W02
 BYTE   AsM2
 BYTE   W02
 BYTE   GnM2
 BYTE   W02
 BYTE   EnM2
 BYTE   W02
 BYTE   DsM2
 BYTE   W02
 BYTE   EnM2
 BYTE   W02
 BYTE   FsM2
 BYTE   W02
 BYTE   GnM2
 BYTE   W02
 BYTE   FnM2
 BYTE   W02
 BYTE   DsM2
 BYTE   W02
 BYTE   DnM2
 BYTE   W02
 BYTE   DsM2
 BYTE   W02
 BYTE   EnM2
 BYTE   W02
 BYTE   FnM2
 BYTE   W02
 BYTE   DsM2
 BYTE   W02
 BYTE   DnM2
 BYTE   W02
 BYTE   CsM2
 BYTE   W02
 BYTE   CsM2
 BYTE   W02
 BYTE   DnM2
 BYTE   W02
 BYTE   DsM2
 BYTE   W02
 BYTE   CsM2
 BYTE   W02
 BYTE   CsM2
 BYTE   W02
 BYTE   CnM2
 BYTE   W28
 BYTE   EOT
 BYTE   W02
 BYTE   EOT
 BYTE   Bn2
 BYTE   W18
// 004   ----------------------------------------
Label_5_01001736:
 BYTE   VOL   41*GritsTheme_mvl/mxv
 BYTE   BEND   c_v-4
 BYTE   N36  En4  v124
 BYTE   N68  Bn4
 BYTE   W03
 BYTE   VOL   40*GritsTheme_mvl/mxv
 BYTE   W03
 BYTE   Ds1
 BYTE   W01
 BYTE   Dn1
 BYTE   W01
 BYTE   Cs1
 BYTE   W02
 BYTE   Cs1
 BYTE   W01
 BYTE   Cn1
 BYTE   W02
 BYTE   Bn0
 BYTE   W01
 BYTE   Bn0
 BYTE   W02
 BYTE   As0
 BYTE   W01
 BYTE   As0
 BYTE   W02
 BYTE   An0
 BYTE   W01
 BYTE   An0
 BYTE   W02
 BYTE   Gs0
 BYTE   W01
 BYTE   Gs0
 BYTE   W01
 BYTE   Gn0
 BYTE   BEND   c_v-4
 BYTE   W02
 BYTE   VOL   30*GritsTheme_mvl/mxv
 BYTE   BEND   c_v-4
 BYTE   W01
 BYTE   VOL   29*GritsTheme_mvl/mxv
 BYTE   BEND   c_v-4
 BYTE   W01
 BYTE   Cn3
 BYTE   W01
 BYTE   VOL   29*GritsTheme_mvl/mxv
 BYTE   BEND   c_v-4
 BYTE   W01
 BYTE   VOL   28*GritsTheme_mvl/mxv
 BYTE   BEND   c_v-4
 BYTE   W01
 BYTE   Cn3
 BYTE   W01
 BYTE   VOL   27*GritsTheme_mvl/mxv
 BYTE   BEND   c_v-4
 BYTE   W01
 BYTE   VOL   27*GritsTheme_mvl/mxv
 BYTE   BEND   c_v-4
 BYTE   W01
 BYTE   Cn3
 BYTE   W01
 BYTE   VOL   26*GritsTheme_mvl/mxv
 BYTE   BEND   c_v-4
 BYTE   W01
 BYTE   VOL   26*GritsTheme_mvl/mxv
 BYTE   BEND   c_v-4
 BYTE   W01
 BYTE   Cn3
 BYTE   W01
 BYTE   VOL   25*GritsTheme_mvl/mxv
 BYTE   BEND   c_v-4
 BYTE   W01
 BYTE   Cn3
 BYTE   W01
 BYTE   VOL   42*GritsTheme_mvl/mxv
 BYTE   BEND   c_v-4
 BYTE   N30  En5
 BYTE   W01
 BYTE   VOL   40*GritsTheme_mvl/mxv
 BYTE   BEND   c_v-4
 BYTE   W01
 BYTE   VOL   38*GritsTheme_mvl/mxv
 BYTE   BEND   c_v-4
 BYTE   W01
 BYTE   Cn3
 BYTE   W01
 BYTE   VOL   36*GritsTheme_mvl/mxv
 BYTE   BEND   c_v-4
 BYTE   W01
 BYTE   VOL   34*GritsTheme_mvl/mxv
 BYTE   BEND   c_v-4
 BYTE   W01
 BYTE   Cn3
 BYTE   W01
 BYTE   VOL   32*GritsTheme_mvl/mxv
 BYTE   BEND   c_v-4
 BYTE   W01
 BYTE   VOL   30*GritsTheme_mvl/mxv
 BYTE   BEND   c_v-3
 BYTE   W01
 BYTE   Cs3
 BYTE   W01
 BYTE   VOL   28*GritsTheme_mvl/mxv
 BYTE   BEND   c_v-3
 BYTE   W01
 BYTE   VOL   27*GritsTheme_mvl/mxv
 BYTE   BEND   c_v-3
 BYTE   W01
 BYTE   VOL   24*GritsTheme_mvl/mxv
 BYTE   BEND   c_v-3
 BYTE   W01
 BYTE   Cs3
 BYTE   W01
 BYTE   VOL   22*GritsTheme_mvl/mxv
 BYTE   BEND   c_v-3
 BYTE   W01
 BYTE   VOL   20*GritsTheme_mvl/mxv
 BYTE   BEND   c_v-3
 BYTE   W01
 BYTE   Cs3
 BYTE   W01
 BYTE   VOL   18*GritsTheme_mvl/mxv
 BYTE   BEND   c_v-3
 BYTE   W01
 BYTE   VOL   16*GritsTheme_mvl/mxv
 BYTE   BEND   c_v-2
 BYTE   W01
 BYTE   Dn3
 BYTE   W01
 BYTE   VOL   14*GritsTheme_mvl/mxv
 BYTE   BEND   c_v-2
 BYTE   W01
 BYTE   VOL   13*GritsTheme_mvl/mxv
 BYTE   BEND   c_v-2
 BYTE   W01
 BYTE   Dn3
 BYTE   W01
 BYTE   VOL   12*GritsTheme_mvl/mxv
 BYTE   BEND   c_v-2
 BYTE   W01
 BYTE   VOL   10*GritsTheme_mvl/mxv
 BYTE   BEND   c_v-2
 BYTE   W01
 BYTE   Dn3
 BYTE   W01
 BYTE   VOL   9*GritsTheme_mvl/mxv
 BYTE   BEND   c_v-1
 BYTE   W01
 BYTE   VOL   7*GritsTheme_mvl/mxv
 BYTE   BEND   c_v-1
 BYTE   W01
 BYTE   Ds3
 BYTE   W01
 BYTE   VOL   6*GritsTheme_mvl/mxv
 BYTE   BEND   c_v-1
 BYTE   W01
 BYTE   VOL   5*GritsTheme_mvl/mxv
 BYTE   BEND   c_v-1
 BYTE   W01
 BYTE   Ds3
 BYTE   W01
 BYTE   VOL   3*GritsTheme_mvl/mxv
 BYTE   BEND   c_v+0
 BYTE   W06
 BYTE   VOL   39*GritsTheme_mvl/mxv
 BYTE   W18
// 005   ----------------------------------------
 BYTE   W96
// 006   ----------------------------------------
 BYTE   W96
// 007   ----------------------------------------
 BYTE   W96
// 008   ----------------------------------------
 BYTE   Fn1
 BYTE   BEND   c_v-64
 BYTE   N36  En4
 BYTE   N68  Bn4
 BYTE   W01
 BYTE   VOL   41*GritsTheme_mvl/mxv
 BYTE   W01
 BYTE   En1
 BYTE   W01
 BYTE   BEND   c_v-58
 BYTE   W01
 BYTE   VOL   39*GritsTheme_mvl/mxv
 BYTE   W01
 BYTE   Ds1
 BYTE   W01
 BYTE   BEND   c_v-50
 BYTE   W01
 BYTE   VOL   38*GritsTheme_mvl/mxv
 BYTE   W01
 BYTE   Cs1
 BYTE   W01
 BYTE   BEND   c_v-41
 BYTE   W01
 BYTE   VOL   37*GritsTheme_mvl/mxv
 BYTE   W01
 BYTE   Cn1
 BYTE   BEND   c_v-34
 BYTE   W02
 BYTE   VOL   35*GritsTheme_mvl/mxv
 BYTE   W01
 BYTE   Bn0
 BYTE   BEND   c_v-28
 BYTE   W02
 BYTE   VOL   34*GritsTheme_mvl/mxv
 BYTE   W01
 BYTE   As0
 BYTE   BEND   c_v-20
 BYTE   W02
 BYTE   VOL   33*GritsTheme_mvl/mxv
 BYTE   W01
 BYTE   An0
 BYTE   BEND   c_v-16
 BYTE   W02
 BYTE   VOL   32*GritsTheme_mvl/mxv
 BYTE   W01
 BYTE   Gs0
 BYTE   BEND   c_v-12
 BYTE   W01
 BYTE   VOL   31*GritsTheme_mvl/mxv
 BYTE   BEND   c_v-4
 BYTE   W01
 BYTE   As2
 BYTE   W01
 BYTE   VOL   30*GritsTheme_mvl/mxv
 BYTE   BEND   c_v-4
 BYTE   W01
 BYTE   VOL   29*GritsTheme_mvl/mxv
 BYTE   BEND   c_v-4
 BYTE   W01
 BYTE   Cn3
 BYTE   W01
 BYTE   VOL   29*GritsTheme_mvl/mxv
 BYTE   BEND   c_v-4
 BYTE   W01
 BYTE   VOL   28*GritsTheme_mvl/mxv
 BYTE   BEND   c_v-4
 BYTE   W01
 BYTE   Cn3
 BYTE   W01
 BYTE   VOL   27*GritsTheme_mvl/mxv
 BYTE   BEND   c_v-4
 BYTE   W01
 BYTE   VOL   27*GritsTheme_mvl/mxv
 BYTE   BEND   c_v-4
 BYTE   W01
 BYTE   Cn3
 BYTE   W01
 BYTE   VOL   26*GritsTheme_mvl/mxv
 BYTE   BEND   c_v-4
 BYTE   W01
 BYTE   VOL   26*GritsTheme_mvl/mxv
 BYTE   BEND   c_v-4
 BYTE   W01
 BYTE   Cn3
 BYTE   W01
 BYTE   VOL   25*GritsTheme_mvl/mxv
 BYTE   BEND   c_v-4
 BYTE   W01
 BYTE   Cn3
 BYTE   W01
 BYTE   VOL   42*GritsTheme_mvl/mxv
 BYTE   BEND   c_v-4
 BYTE   N30  En5
 BYTE   W01
 BYTE   VOL   40*GritsTheme_mvl/mxv
 BYTE   BEND   c_v-4
 BYTE   W01
 BYTE   VOL   38*GritsTheme_mvl/mxv
 BYTE   BEND   c_v-4
 BYTE   W01
 BYTE   Cn3
 BYTE   W01
 BYTE   VOL   36*GritsTheme_mvl/mxv
 BYTE   BEND   c_v-4
 BYTE   W01
 BYTE   VOL   34*GritsTheme_mvl/mxv
 BYTE   BEND   c_v-4
 BYTE   W01
 BYTE   Cn3
 BYTE   W01
 BYTE   VOL   32*GritsTheme_mvl/mxv
 BYTE   BEND   c_v-4
 BYTE   W01
 BYTE   VOL   30*GritsTheme_mvl/mxv
 BYTE   BEND   c_v-3
 BYTE   W01
 BYTE   Cs3
 BYTE   W01
 BYTE   VOL   28*GritsTheme_mvl/mxv
 BYTE   BEND   c_v-3
 BYTE   W01
 BYTE   VOL   27*GritsTheme_mvl/mxv
 BYTE   BEND   c_v-3
 BYTE   W01
 BYTE   VOL   24*GritsTheme_mvl/mxv
 BYTE   BEND   c_v-1
 BYTE   W01
 BYTE   Cs3
 BYTE   W01
 BYTE   VOL   22*GritsTheme_mvl/mxv
 BYTE   BEND   c_v-5
 BYTE   W01
 BYTE   VOL   20*GritsTheme_mvl/mxv
 BYTE   BEND   c_v-3
 BYTE   W01
 BYTE   Cs3
 BYTE   W01
 BYTE   VOL   18*GritsTheme_mvl/mxv
 BYTE   BEND   c_v-3
 BYTE   W01
 BYTE   VOL   16*GritsTheme_mvl/mxv
 BYTE   BEND   c_v-2
 BYTE   W01
 BYTE   Dn3
 BYTE   W01
 BYTE   VOL   14*GritsTheme_mvl/mxv
 BYTE   BEND   c_v-2
 BYTE   W01
 BYTE   VOL   13*GritsTheme_mvl/mxv
 BYTE   BEND   c_v-2
 BYTE   W01
 BYTE   En2
 BYTE   W01
 BYTE   VOL   12*GritsTheme_mvl/mxv
 BYTE   BEND   c_v-12
 BYTE   W01
 BYTE   VOL   10*GritsTheme_mvl/mxv
 BYTE   BEND   c_v-2
 BYTE   W01
 BYTE   Gs2
 BYTE   W01
 BYTE   VOL   9*GritsTheme_mvl/mxv
 BYTE   BEND   c_v-1
 BYTE   W01
 BYTE   VOL   7*GritsTheme_mvl/mxv
 BYTE   BEND   c_v-1
 BYTE   W01
 BYTE   Ds3
 BYTE   W01
 BYTE   VOL   6*GritsTheme_mvl/mxv
 BYTE   BEND   c_v-1
 BYTE   W01
 BYTE   VOL   5*GritsTheme_mvl/mxv
 BYTE   BEND   c_v-1
 BYTE   W01
 BYTE   Ds3
 BYTE   W01
 BYTE   VOL   3*GritsTheme_mvl/mxv
 BYTE   BEND   c_v+0
 BYTE   W06
 BYTE   VOL   39*GritsTheme_mvl/mxv
 BYTE   BEND   c_v+0
 BYTE   W03
 BYTE   En3
 BYTE   W01
 BYTE   Dn3
 BYTE   W01
 BYTE   Bn2
 BYTE   W01
 BYTE   As2
 BYTE   W01
 BYTE   Gs2
 BYTE   W02
 BYTE   Fs2
 BYTE   W02
 BYTE   En2
 BYTE   W02
 BYTE   Dn2
 BYTE   W01
 BYTE   Cn2
 BYTE   W04
// 009   ----------------------------------------
 BYTE   W02
 BYTE   Dn2
 BYTE   W01
 BYTE   En2
 BYTE   W01
 BYTE   Fs2
 BYTE   W02
 BYTE   Gs2
 BYTE   W01
 BYTE   As2
 BYTE   W01
 BYTE   Dn3
 BYTE   W01
 BYTE   En3
 BYTE   W06
 BYTE   En3
 BYTE   W01
 BYTE   Cs3
 BYTE   W01
 BYTE   As2
 BYTE   W01
 BYTE   Gs2
 BYTE   W01
 BYTE   Fs2
 BYTE   W01
 BYTE   En2
 BYTE   W01
 BYTE   Cs2
 BYTE   W01
 BYTE   Cn2
 BYTE   W01
 BYTE   As1
 BYTE   W01
 BYTE   Gs1
 BYTE   W01
 BYTE   Fs1
 BYTE   W01
 BYTE   En1
 BYTE   W01
 BYTE   Dn1
 BYTE   W01
 BYTE   Cn1
 BYTE   W10
 BYTE   Cn1
 BYTE   W01
 BYTE   Dn1
 BYTE   W01
 BYTE   An1
 BYTE   W01
 BYTE   Bn1
 BYTE   W01
 BYTE   Dn2
 BYTE   W01
 BYTE   Fn2
 BYTE   W01
 BYTE   Fs2
 BYTE   W01
 BYTE   An2
 BYTE   W01
 BYTE   Cn3
 BYTE   W01
 BYTE   Dn3
 BYTE   W01
 BYTE   Dn3
 BYTE   W01
 BYTE   En3
 BYTE   W03
 BYTE   En3
 BYTE   W01
 BYTE   En3
 BYTE   W01
 BYTE   Dn3
 BYTE   W01
 BYTE   Cs3
 BYTE   W01
 BYTE   Gn2
 BYTE   W01
 BYTE   Fs2
 BYTE   W01
 BYTE   En2
 BYTE   W01
 BYTE   Ds2
 BYTE   W01
 BYTE   Cn2
 BYTE   W02
 BYTE   As1
 BYTE   W03
 BYTE   Gs1
 BYTE   W01
 BYTE   An1
 BYTE   W01
 BYTE   As1
 BYTE   W02
 BYTE   Cn2
 BYTE   W01
 BYTE   Dn2
 BYTE   W01
 BYTE   En2
 BYTE   W01
 BYTE   Fs2
 BYTE   W01
 BYTE   Gs2
 BYTE   W01
 BYTE   As2
 BYTE   W02
 BYTE   Cn3
 BYTE   W03
 BYTE   Dn3
 BYTE   W01
 BYTE   En3
 BYTE   W16
// 010   ----------------------------------------
 BYTE   W96
// 011   ----------------------------------------
 BYTE   W96
// 012   ----------------------------------------
 BYTE   W96
// 013   ----------------------------------------
 BYTE   W96
// 014   ----------------------------------------
 BYTE   W96
// 015   ----------------------------------------
 BYTE   W96
// 016   ----------------------------------------
 BYTE   W96
// 017   ----------------------------------------
 BYTE   W96
// 018   ----------------------------------------
 BYTE   W96
// 019   ----------------------------------------
 BYTE   W96
// 020   ----------------------------------------
 BYTE   W96
// 021   ----------------------------------------
 BYTE   W96
// 022   ----------------------------------------
 BYTE   W96
// 023   ----------------------------------------
 BYTE   W96
// 024   ----------------------------------------
 BYTE   W96
// 025   ----------------------------------------
 BYTE   W96
// 026   ----------------------------------------
 BYTE   W96
// 027   ----------------------------------------
 BYTE   W96
// 028   ----------------------------------------
 BYTE   GoTo
  POIN2 Label_5_01001736
// 029   ----------------------------------------
 BYTE   W96
 BYTE   FINE

//**************** Track 7 (Midi-Chn.6) ****************//

GritsTheme_007:
// 000   ----------------------------------------
 BYTE   KEYSH   GritsTheme_key+0
 BYTE   VOICE   18
 BYTE   VOL   14*GritsTheme_mvl/mxv
 BYTE   TUNE 0
 BYTE   En4
 BYTE   W96
// 001   ----------------------------------------
 BYTE   W96
// 002   ----------------------------------------
 BYTE   W96
// 003   ----------------------------------------
 BYTE   W92
 BYTE   W02
 BYTE   VOL   15*GritsTheme_mvl/mxv
 BYTE   W02
// 004   ----------------------------------------
Label_6_010019E0:
 BYTE   VOICE   18
 BYTE   TUNE 0
 BYTE   En4
 BYTE   VOL   17*GritsTheme_mvl/mxv
 BYTE   W04
 BYTE   TUNE 0
 BYTE   Cn4
 BYTE   W02
 BYTE   Gs3
 BYTE   W24
 BYTE   W02
 BYTE   N06  Dn3  v127
 BYTE   W08
 BYTE   En3
 BYTE   W08
 BYTE   Dn3
 BYTE   W08
 BYTE   N16  En3
 BYTE   W16
 BYTE   N30  Gs3
 BYTE   W24
// 005   ----------------------------------------
Label_6_010019FB:
 BYTE   W08
 BYTE   BEND   c_v-64
 BYTE   N16  Gs3  v127
 BYTE   W01
 BYTE   BEND   c_v-57
 BYTE   W01
 BYTE   DsM1
 BYTE   W01
 BYTE   BnM1
 BYTE   W01
 BYTE   Gn0
 BYTE   W01
 BYTE   Ds1
 BYTE   W01
 BYTE   Bn1
 BYTE   W01
 BYTE   Gn2
 BYTE   W01
 BYTE   En3
 BYTE   W01
 BYTE   Bn2
 BYTE   W01
 BYTE   Cn3
 BYTE   W01
 BYTE   Dn3
 BYTE   W01
 BYTE   En3
 BYTE   W04
 BYTE   N06  Bn3
 BYTE   W08
 BYTE   N12  Cs4
 BYTE   W16
 BYTE   N24  En4
 BYTE   W04
 BYTE   BEND   c_v+0
 BYTE   W01
 BYTE   Dn3
 BYTE   W01
 BYTE   Fn2
 BYTE   W01
 BYTE   Cn2
 BYTE   W01
 BYTE   As1
 BYTE   W01
 BYTE   Gs1
 BYTE   W01
 BYTE   An1
 BYTE   W01
 BYTE   Bn1
 BYTE   W01
 BYTE   Fn2
 BYTE   W01
 BYTE   Bn2
 BYTE   W01
 BYTE   En3
 BYTE   W02
 BYTE   En3
 BYTE   W01
 BYTE   Cn3
 BYTE   W01
 BYTE   An2
 BYTE   W01
 BYTE   Fn2
 BYTE   W01
 BYTE   Dn2
 BYTE   W01
 BYTE   En2
 BYTE   W01
 BYTE   Bn2
 BYTE   W01
 BYTE   Dn3
 BYTE   W01
 BYTE   En3
 BYTE   N30  Cs4
 BYTE   W18
 BYTE   BEND   c_v+0
 BYTE   W01
 BYTE   Dn3
 BYTE   W01
 BYTE   As2
 BYTE   W01
 BYTE   Gs2
 BYTE   W02
 BYTE   Fs2
 BYTE   W01
 BYTE   PEND 
// 006   ----------------------------------------
 BYTE   En2
 BYTE   W01
 BYTE   Dn2
 BYTE   W03
 BYTE   Fs2
 BYTE   W02
 BYTE   Gs2
 BYTE   W01
 BYTE   Bn2
 BYTE   W01
 BYTE   En3
 BYTE   N12  Gn4
 BYTE   W16
 BYTE   N06
 BYTE   W08
 BYTE   N12  Fs4
 BYTE   W16
 BYTE   N06
 BYTE   W08
 BYTE   N12  En4
 BYTE   W16
 BYTE   Cs4
 BYTE   W24
// 007   ----------------------------------------
 BYTE   BEND   c_v-64
 BYTE   N18  Gn4
 BYTE   W01
 BYTE   BEND   c_v-57
 BYTE   W01
 BYTE   DsM1
 BYTE   W01
 BYTE   BnM1
 BYTE   W01
 BYTE   Gn0
 BYTE   W01
 BYTE   Ds1
 BYTE   W01
 BYTE   Bn1
 BYTE   W01
 BYTE   Gn2
 BYTE   W01
 BYTE   En3
 BYTE   W16
 BYTE   N12  Fs4
 BYTE   W24
 BYTE   En4
 BYTE   W24
 BYTE   N06  Cs4
 BYTE   W08
 BYTE   N24  En4
 BYTE   W16
// 008   ----------------------------------------
 BYTE   W32
 BYTE   N06  Dn3
 BYTE   W08
 BYTE   En3
 BYTE   W08
 BYTE   Dn3
 BYTE   W08
 BYTE   N16  En3
 BYTE   W16
 BYTE   N30  Gs3
 BYTE   W24
// 009   ----------------------------------------
 BYTE   PATT
  POIN2 Label_6_010019FB
// 010   ----------------------------------------
 BYTE   BEND   c_v-12
 BYTE   W01
 BYTE   Dn2
 BYTE   W03
 BYTE   Fs2
 BYTE   W02
 BYTE   Gs2
 BYTE   W01
 BYTE   Bn2
 BYTE   W01
 BYTE   En3
 BYTE   N12  Gn4  v127
 BYTE   W16
 BYTE   N06
 BYTE   W08
 BYTE   N12  Fs4
 BYTE   W16
 BYTE   N06
 BYTE   W08
 BYTE   N12  En4
 BYTE   W16
 BYTE   An4
 BYTE   W24
// 011   ----------------------------------------
 BYTE   BEND   c_v-64
 BYTE   N18  Gn4
 BYTE   W01
 BYTE   BEND   c_v-57
 BYTE   W01
 BYTE   DsM1
 BYTE   W01
 BYTE   BnM1
 BYTE   W01
 BYTE   Gn0
 BYTE   W01
 BYTE   Ds1
 BYTE   W01
 BYTE   Bn1
 BYTE   W01
 BYTE   Gn2
 BYTE   W01
 BYTE   En3
 BYTE   W16
 BYTE   N12  Fs4
 BYTE   W24
 BYTE   En4
 BYTE   W24
 BYTE   N06  Cs4
 BYTE   W08
 BYTE   N12  En4
 BYTE   W16
// 012   ----------------------------------------
 BYTE   N06  Cs4
 BYTE   W30
 BYTE   W01
 BYTE   BEND   c_v+2
 BYTE   W07
 BYTE   Cs4
 BYTE   W01
 BYTE   Fs4
 BYTE   W01
 BYTE   Cs5
 BYTE   N60  An4
 BYTE   W01
 BYTE   BEND   c_v+26
 BYTE   W01
 BYTE   An5
 BYTE   W01
 BYTE   Cn6
 BYTE   W01
 BYTE   Ds6
 BYTE   W01
 BYTE   Gn6
 BYTE   W01
 BYTE   Bn6
 BYTE   W01
 BYTE   Dn7
 BYTE   W01
 BYTE   Bn7
 BYTE   W01
 BYTE   Dn8
 BYTE   W01
 BYTE   Ds8
 BYTE   W01
 BYTE   Fs8
 BYTE   W01
 BYTE   Gn8
 BYTE   W06
 BYTE   VOL   15*GritsTheme_mvl/mxv
 BYTE   W02
 BYTE   DnM1
 BYTE   W02
 BYTE   BEND   c_v+60
 BYTE   W01
 BYTE   VOL   13*GritsTheme_mvl/mxv
 BYTE   BEND   c_v+60
 BYTE   W02
 BYTE   Fs8
 BYTE   W01
 BYTE   VOL   12*GritsTheme_mvl/mxv
 BYTE   W01
 BYTE   BEND   c_v+63
 BYTE   W02
 BYTE   VOL   10*GritsTheme_mvl/mxv
 BYTE   W03
 BYTE   AsM2
 BYTE   W03
 BYTE   AnM2
 BYTE   W02
 BYTE   BEND   c_v+62
 BYTE   W01
 BYTE   VOL   7*GritsTheme_mvl/mxv
 BYTE   BEND   c_v+58
 BYTE   W01
 BYTE   Bn7
 BYTE   W01
 BYTE   As7
 BYTE   W01
 BYTE   VOL   7*GritsTheme_mvl/mxv
 BYTE   BEND   c_v+56
 BYTE   W01
 BYTE   Dn8
 BYTE   W01
 BYTE   VOL   6*GritsTheme_mvl/mxv
 BYTE   BEND   c_v+62
 BYTE   W01
 BYTE   Gn8
 BYTE   W02
 BYTE   VOL   5*GritsTheme_mvl/mxv
 BYTE   BEND   c_v+60
 BYTE   W01
 BYTE   Bn7
 BYTE   W01
 BYTE   As6
 BYTE   W01
 BYTE   VOL   3*GritsTheme_mvl/mxv
 BYTE   BEND   c_v+34
 BYTE   W01
 BYTE   Dn5
 BYTE   W01
 BYTE   Cs4
 BYTE   W01
 BYTE   VOL   2*GritsTheme_mvl/mxv
 BYTE   BEND   c_v-2
 BYTE   W01
 BYTE   En3
 BYTE   W02
 BYTE   VOL   2*GritsTheme_mvl/mxv
 BYTE   W01
// 013   ----------------------------------------
 BYTE   W02
 BYTE   CsM2
 BYTE   W03
 BYTE   CnM2
 BYTE   W03
 BYTE   DsM1
 BYTE   W02
 BYTE   DsM1
 BYTE   W03
 BYTE   DnM1
 BYTE   W01
 BYTE   BEND   c_v+0
 BYTE   N54  Gn4
 BYTE   W01
 BYTE   BEND   c_v+2
 BYTE   W01
 BYTE   VOL   13*GritsTheme_mvl/mxv
 BYTE   BEND   c_v+3
 BYTE   W01
 BYTE   Gs3
 BYTE   W01
 BYTE   An3
 BYTE   W01
 BYTE   VOL   12*GritsTheme_mvl/mxv
 BYTE   BEND   c_v+6
 BYTE   W01
 BYTE   Bn3
 BYTE   W01
 BYTE   Cn4
 BYTE   W01
 BYTE   VOL   11*GritsTheme_mvl/mxv
 BYTE   BEND   c_v+9
 BYTE   W01
 BYTE   Dn4
 BYTE   W01
 BYTE   Ds4
 BYTE   W01
 BYTE   VOL   10*GritsTheme_mvl/mxv
 BYTE   BEND   c_v+12
 BYTE   W01
 BYTE   Fn4
 BYTE   W01
 BYTE   Fs4
 BYTE   W01
 BYTE   VOL   10*GritsTheme_mvl/mxv
 BYTE   BEND   c_v+15
 BYTE   W01
 BYTE   Gs4
 BYTE   W01
 BYTE   An4
 BYTE   W01
 BYTE   VOL   9*GritsTheme_mvl/mxv
 BYTE   BEND   c_v+18
 BYTE   W01
 BYTE   Bn4
 BYTE   W01
 BYTE   An4
 BYTE   W01
 BYTE   VOL   8*GritsTheme_mvl/mxv
 BYTE   BEND   c_v+16
 BYTE   W01
 BYTE   Gn4
 BYTE   W01
 BYTE   Fs4
 BYTE   W01
 BYTE   VOL   7*GritsTheme_mvl/mxv
 BYTE   BEND   c_v+13
 BYTE   W01
 BYTE   En4
 BYTE   W01
 BYTE   VOL   6*GritsTheme_mvl/mxv
 BYTE   BEND   c_v+11
 BYTE   W01
 BYTE   Dn4
 BYTE   W01
 BYTE   Cs4
 BYTE   W01
 BYTE   VOL   5*GritsTheme_mvl/mxv
 BYTE   BEND   c_v+8
 BYTE   W01
 BYTE   Bn3
 BYTE   W01
 BYTE   As3
 BYTE   W01
 BYTE   VOL   5*GritsTheme_mvl/mxv
 BYTE   BEND   c_v+5
 BYTE   W01
 BYTE   Gs3
 BYTE   W01
 BYTE   En3
 BYTE   W01
 BYTE   VOL   3*GritsTheme_mvl/mxv
 BYTE   W03
 BYTE   DsM2
 BYTE   W03
 BYTE   DnM2
 BYTE   W03
 BYTE   CsM2
 BYTE   W03
 BYTE   CsM2
 BYTE   W03
 BYTE   CnM2
 BYTE   W03
 BYTE   CnM2
 BYTE   W02
 BYTE   FnM1
 BYTE   W02
 BYTE   BEND   c_v+3
 BYTE   N06  En4
 BYTE   W01
 BYTE   BEND   c_v+5
 BYTE   W01
 BYTE   Bn3
 BYTE   W01
 BYTE   Cs4
 BYTE   W01
 BYTE   En3
 BYTE   W02
 BYTE   VOL   17*GritsTheme_mvl/mxv
 BYTE   N06  Dn4
 BYTE   W04
 BYTE   BEND   c_v+10
 BYTE   W01
 BYTE   Cn4
 BYTE   W01
 BYTE   As3
 BYTE   N06  Bn3
 BYTE   W01
 BYTE   BEND   c_v+5
 BYTE   W01
 BYTE   Gn3
 BYTE   W01
 BYTE   Fn3
 BYTE   W01
 BYTE   En3
 BYTE   W02
 BYTE   N06  Dn4
 BYTE   W06
 BYTE   N04  En4
 BYTE   W02
// 014   ----------------------------------------
 BYTE   W02
 BYTE   N06  Gn4
 BYTE   W10
 BYTE   BEND   c_v+0
 BYTE   N16  An4
 BYTE   W01
 BYTE   BEND   c_v+20
 BYTE   W01
 BYTE   As6
 BYTE   W01
 BYTE   Gs7
 BYTE   W01
 BYTE   Dn8
 BYTE   W01
 BYTE   En8
 BYTE   W02
 BYTE   Fn7
 BYTE   W01
 BYTE   En6
 BYTE   W01
 BYTE   Dn5
 BYTE   W01
 BYTE   En3
 BYTE   W06
 BYTE   N06  Gn4
 BYTE   W08
 BYTE   En4
 BYTE   W08
 BYTE   Gn4
 BYTE   W08
 BYTE   An4
 BYTE   W08
 BYTE   N12  Bn4
 BYTE   W16
 BYTE   N06
 BYTE   W08
 BYTE   Dn5
 BYTE   W08
 BYTE   Bn4
 BYTE   W04
// 015   ----------------------------------------
 BYTE   W04
 BYTE   Dn5
 BYTE   W10
 BYTE   N12  An5
 BYTE   W02
 BYTE   BEND   c_v+4
 BYTE   W01
 BYTE   Ds6
 BYTE   W01
 BYTE   Fs7
 BYTE   W01
 BYTE   Fn8
 BYTE   W01
 BYTE   Gn8
 BYTE   W02
 BYTE   Gn8
 BYTE   W01
 BYTE   Bn5
 BYTE   W01
 BYTE   En3
 BYTE   W06
 BYTE   N06
 BYTE   W04
 BYTE   BEND   c_v+0
 BYTE   W04
 BYTE   N06  Gn5
 BYTE   W08
 BYTE   En5
 BYTE   W08
 BYTE   Dn5
 BYTE   W08
 BYTE   N16  En5
 BYTE   W16
 BYTE   N30  Gn5
 BYTE   W05
 BYTE   BEND   c_v+0
 BYTE   W01
 BYTE   As3
 BYTE   W01
 BYTE   Cn5
 BYTE   W01
 BYTE   En5
 BYTE   W01
 BYTE   Gs5
 BYTE   W02
 BYTE   En5
 BYTE   W01
 BYTE   Dn4
 BYTE   W01
 BYTE   En3
 BYTE   W05
// 016   ----------------------------------------
 BYTE   W04
 BYTE   Fs3
 BYTE   W01
 BYTE   Fs4
 BYTE   W01
 BYTE   En4
 BYTE   W01
 BYTE   As3
 BYTE   W01
 BYTE   Fs3
 BYTE   W01
 BYTE   En3
 BYTE   W11
 BYTE   Gs3
 BYTE   W01
 BYTE   En5
 BYTE   W01
 BYTE   VOL   17*GritsTheme_mvl/mxv
 BYTE   BEND   c_v+46
 BYTE   N12  An5
 BYTE   W01
 BYTE   BEND   c_v+59
 BYTE   W01
 BYTE   Fs8
 BYTE   W01
 BYTE   VOL   15*GritsTheme_mvl/mxv
 BYTE   BEND   c_v+60
 BYTE   W01
 BYTE   Gn7
 BYTE   W01
 BYTE   En6
 BYTE   W01
 BYTE   VOL   13*GritsTheme_mvl/mxv
 BYTE   BEND   c_v-1
 BYTE   W01
 BYTE   Fn2
 BYTE   W01
 BYTE   Dn2
 BYTE   W01
 BYTE   VOL   11*GritsTheme_mvl/mxv
 BYTE   W01
 BYTE   BEND   c_v-7
 BYTE   W01
 BYTE   En3
 BYTE   W01
 BYTE   VOL   17*GritsTheme_mvl/mxv
 BYTE   N06  Gn5
 BYTE   W04
 BYTE   VOL   17*GritsTheme_mvl/mxv
 BYTE   W04
 BYTE   N06  En5
 BYTE   W06
 BYTE   Dn5
 BYTE   W06
 BYTE   En5
 BYTE   W05
 BYTE   BEND   c_v+0
 BYTE   W01
 BYTE   VOL   15*GritsTheme_mvl/mxv
 BYTE   BEND   c_v+14
 BYTE   N16  An5
 BYTE   W01
 BYTE   BEND   c_v+23
 BYTE   W01
 BYTE   VOL   14*GritsTheme_mvl/mxv
 BYTE   BEND   c_v+43
 BYTE   W01
 BYTE   Gn7
 BYTE   W01
 BYTE   As7
 BYTE   W01
 BYTE   VOL   11*GritsTheme_mvl/mxv
 BYTE   W01
 BYTE   BEND   c_v+51
 BYTE   W01
 BYTE   Cn7
 BYTE   W01
 BYTE   VOL   9*GritsTheme_mvl/mxv
 BYTE   BEND   c_v+25
 BYTE   W01
 BYTE   En3
 BYTE   W02
 BYTE   VOL   7*GritsTheme_mvl/mxv
 BYTE   W03
 BYTE   FnM2
 BYTE   W02
 BYTE   FnM1
 BYTE   N06  Gn5
 BYTE   W08
 BYTE   VOL   17*GritsTheme_mvl/mxv
 BYTE   N06  En5
 BYTE   W06
 BYTE   Dn5
 BYTE   W06
// 017   ----------------------------------------
 BYTE   En5
 BYTE   W05
 BYTE   BEND   c_v+6
 BYTE   W01
 BYTE   VOL   19*GritsTheme_mvl/mxv
 BYTE   BEND   c_v+21
 BYTE   N16  An5
 BYTE   W01
 BYTE   BEND   c_v+30
 BYTE   W01
 BYTE   VOL   16*GritsTheme_mvl/mxv
 BYTE   BEND   c_v+42
 BYTE   W01
 BYTE   Dn7
 BYTE   W01
 BYTE   Fs7
 BYTE   W01
 BYTE   VOL   13*GritsTheme_mvl/mxv
 BYTE   BEND   c_v+50
 BYTE   W01
 BYTE   Ds7
 BYTE   W01
 BYTE   Gn6
 BYTE   W01
 BYTE   VOL   10*GritsTheme_mvl/mxv
 BYTE   BEND   c_v+34
 BYTE   W01
 BYTE   Ds5
 BYTE   W01
 BYTE   En3
 BYTE   W01
 BYTE   VOL   7*GritsTheme_mvl/mxv
 BYTE   W03
 BYTE   EnM2
 BYTE   W02
 BYTE   GnM1
 BYTE   N06  Gn5
 BYTE   W04
 BYTE   VOL   18*GritsTheme_mvl/mxv
 BYTE   W04
 BYTE   N06  En5
 BYTE   W06
 BYTE   Dn5
 BYTE   W06
 BYTE   En5
 BYTE   W05
 BYTE   BEND   c_v+0
 BYTE   W01
 BYTE   VOL   15*GritsTheme_mvl/mxv
 BYTE   BEND   c_v+15
 BYTE   N16  An5
 BYTE   W01
 BYTE   BEND   c_v+31
 BYTE   W01
 BYTE   Ds7
 BYTE   W01
 BYTE   VOL   13*GritsTheme_mvl/mxv
 BYTE   BEND   c_v+63
 BYTE   W02
 BYTE   Gn8
 BYTE   W01
 BYTE   VOL   10*GritsTheme_mvl/mxv
 BYTE   W01
 BYTE   BEND   c_v+62
 BYTE   W01
 BYTE   Dn7
 BYTE   W01
 BYTE   VOL   8*GritsTheme_mvl/mxv
 BYTE   BEND   c_v+31
 BYTE   W01
 BYTE   Gn4
 BYTE   W01
 BYTE   En3
 BYTE   W01
 BYTE   VOL   5*GritsTheme_mvl/mxv
 BYTE   W03
 BYTE   DsM2
 BYTE   W01
 BYTE   FsM1
 BYTE   N06  Gn5
 BYTE   W04
 BYTE   VOL   18*GritsTheme_mvl/mxv
 BYTE   W04
 BYTE   N06  En5
 BYTE   W06
 BYTE   Dn5
 BYTE   W06
 BYTE   N48  En5
 BYTE   W12
// 018   ----------------------------------------
 BYTE   VOL   17*GritsTheme_mvl/mxv
 BYTE   W02
 BYTE   FnM1
 BYTE   W03
 BYTE   DsM1
 BYTE   BEND   c_v-2
 BYTE   W01
 BYTE   Cs4
 BYTE   W01
 BYTE   Dn5
 BYTE   W01
 BYTE   VOL   15*GritsTheme_mvl/mxv
 BYTE   W03
 BYTE   DnM1
 BYTE   BEND   c_v+22
 BYTE   W01
 BYTE   An4
 BYTE   W01
 BYTE   En4
 BYTE   W01
 BYTE   VOL   13*GritsTheme_mvl/mxv
 BYTE   BEND   c_v+7
 BYTE   W01
 BYTE   Fs3
 BYTE   W02
 BYTE   VOL   12*GritsTheme_mvl/mxv
 BYTE   BEND   c_v+0
 BYTE   W01
 BYTE   En3
 BYTE   W01
 BYTE   En3
 BYTE   W01
 BYTE   VOL   10*GritsTheme_mvl/mxv
 BYTE   BEND   c_v+0
 BYTE   W01
 BYTE   En3
 BYTE   W01
 BYTE   En3
 BYTE   W01
 BYTE   VOL   10*GritsTheme_mvl/mxv
 BYTE   W03
 BYTE   AnM2
 BYTE   BEND   c_v+0
 BYTE   W01
 BYTE   En3
 BYTE   W01
 BYTE   En3
 BYTE   W01
 BYTE   VOL   8*GritsTheme_mvl/mxv
 BYTE   BEND   c_v+1
 BYTE   W01
 BYTE   Fn3
 BYTE   W01
 BYTE   Fn3
 BYTE   W01
 BYTE   VOL   7*GritsTheme_mvl/mxv
 BYTE   BEND   c_v+1
 BYTE   W01
 BYTE   Fn3
 BYTE   W01
 BYTE   Fn3
 BYTE   W01
 BYTE   VOL   6*GritsTheme_mvl/mxv
 BYTE   BEND   c_v+1
 BYTE   W01
 BYTE   Fn3
 BYTE   W01
 BYTE   Fn3
 BYTE   W01
 BYTE   VOL   5*GritsTheme_mvl/mxv
 BYTE   BEND   c_v+2
 BYTE   W01
 BYTE   Fn3
 BYTE   W01
 BYTE   Fn3
 BYTE   W01
 BYTE   VOL   4*GritsTheme_mvl/mxv
 BYTE   BEND   c_v+0
 BYTE   W01
 BYTE   En3
 BYTE   W01
 BYTE   Cn2
 BYTE   W01
 BYTE   VOL   19*GritsTheme_mvl/mxv
 BYTE   BEND   c_v-20
 BYTE   N24  Gn5
 BYTE   W02
 BYTE   BEND   c_v-7
 BYTE   W01
 BYTE   En3
 BYTE   W01
 BYTE   VOL   19*GritsTheme_mvl/mxv
 BYTE   W05
 BYTE   BEND   c_v-2
 BYTE   W01
 BYTE   Fs2
 BYTE   W01
 BYTE   Dn2
 BYTE   W02
 BYTE   Gn2
 BYTE   W01
 BYTE   En3
 BYTE   W04
 BYTE   Gs2
 BYTE   W01
 BYTE   Fs2
 BYTE   W01
 BYTE   En2
 BYTE   W01
 BYTE   Fn2
 BYTE   W01
 BYTE   As2
 BYTE   W01
 BYTE   Dn3
 BYTE   W01
 BYTE   En3
 BYTE   TIE  An5
 BYTE   W01
 BYTE   BEND   c_v+0
 BYTE   W03
 BYTE   VOL   19*GritsTheme_mvl/mxv
 BYTE   W03
 BYTE   FsM1
 BYTE   W03
 BYTE   FnM1
 BYTE   W01
 BYTE   BEND   c_v+0
 BYTE   W01
 BYTE   As2
 BYTE   W01
 BYTE   VOL   16*GritsTheme_mvl/mxv
 BYTE   BEND   c_v-12
 BYTE   W01
 BYTE   Fs2
 BYTE   W01
 BYTE   En3
 BYTE   W01
 BYTE   VOL   15*GritsTheme_mvl/mxv
 BYTE   BEND   c_v+0
 BYTE   W03
 BYTE   VOL   15*GritsTheme_mvl/mxv
 BYTE   BEND   c_v+0
 BYTE   W01
 BYTE   Gs2
 BYTE   W01
 BYTE   En2
 BYTE   W01
 BYTE   VOL   14*GritsTheme_mvl/mxv
 BYTE   BEND   c_v-5
 BYTE   W01
 BYTE   En3
 BYTE   W02
 BYTE   VOL   13*GritsTheme_mvl/mxv
 BYTE   W01
 BYTE   BEND   c_v+0
 BYTE   W01
 BYTE   As2
 BYTE   W01
// 019   ----------------------------------------
 BYTE   VOL   12*GritsTheme_mvl/mxv
 BYTE   BEND   c_v-12
 BYTE   W01
 BYTE   Dn2
 BYTE   W02
 BYTE   VOL   11*GritsTheme_mvl/mxv
 BYTE   W02
 BYTE   BEND   c_v-10
 BYTE   W01
 BYTE   VOL   10*GritsTheme_mvl/mxv
 BYTE   BEND   c_v-8
 BYTE   W01
 BYTE   VOL   10*GritsTheme_mvl/mxv
 BYTE   BEND   c_v-1
 BYTE   W01
 BYTE   Cn3
 BYTE   W01
 BYTE   Gs2
 BYTE   W01
 BYTE   VOL   10*GritsTheme_mvl/mxv
 BYTE   BEND   c_v-10
 BYTE   W02
 BYTE   As2
 BYTE   W01
 BYTE   VOL   10*GritsTheme_mvl/mxv
 BYTE   BEND   c_v+0
 BYTE   W03
 BYTE   VOL   9*GritsTheme_mvl/mxv
 BYTE   W03
 BYTE   AnM2
 BYTE   W02
 BYTE   AnM2
 BYTE   W03
 BYTE   AnM2
 BYTE   W03
 BYTE   GsM2
 BYTE   W03
 BYTE   GnM2
 BYTE   W03
 BYTE   GnM2
 BYTE   W03
 BYTE   GnM2
 BYTE   W03
 BYTE   FsM2
 BYTE   W03
 BYTE   FsM2
 BYTE   W02
 BYTE   FsM2
 BYTE   W03
 BYTE   FnM2
 BYTE   W03
 BYTE   FnM2
 BYTE   W03
 BYTE   FnM2
 BYTE   W03
 BYTE   EnM2
 BYTE   W03
 BYTE   EnM2
 BYTE   W03
 BYTE   DsM2
 BYTE   W02
 BYTE   DsM2
 BYTE   W03
 BYTE   DsM2
 BYTE   W03
 BYTE   EOT
 BYTE   VOL   2*GritsTheme_mvl/mxv
 BYTE   W03
 BYTE   DnM2
 BYTE   W03
 BYTE   DnM2
 BYTE   W03
 BYTE   DnM2
 BYTE   W03
 BYTE   CsM2
 BYTE   W02
 BYTE   DsM1
 BYTE   W06
 BYTE   DsM1
 BYTE   W06
// 020   ----------------------------------------
 BYTE   W10
 BYTE   VOICE   17
 BYTE   BEND   c_v-64
 BYTE   N16  Gs3  v124
 BYTE   W01
 BYTE   BEND   c_v-57
 BYTE   W01
 BYTE   DsM1
 BYTE   W01
 BYTE   BnM1
 BYTE   W01
 BYTE   Gn0
 BYTE   W01
 BYTE   Ds1
 BYTE   W01
 BYTE   Bn1
 BYTE   W01
 BYTE   Gn2
 BYTE   W01
 BYTE   En3
 BYTE   W08
 BYTE   N06  En3
 BYTE   W08
 BYTE   N16  Gs3
 BYTE   W16
 BYTE   N24  Dn3
 BYTE   W24
 BYTE   N36  En3
 BYTE   W04
 BYTE   BEND   c_v+0
 BYTE   W01
 BYTE   En3
 BYTE   W01
 BYTE   Fn3
 BYTE   W01
 BYTE   Fs3
 BYTE   W01
 BYTE   Gn3
 BYTE   W01
 BYTE   Gs3
 BYTE   W01
 BYTE   An3
 BYTE   W01
 BYTE   As3
 BYTE   W01
 BYTE   Cn4
 BYTE   W01
 BYTE   As3
 BYTE   W01
 BYTE   Gs3
 BYTE   W01
 BYTE   Fs3
 BYTE   W01
 BYTE   En3
 BYTE   W04
 BYTE   En3
 BYTE   W01
 BYTE   Fn3
 BYTE   W01
// 021   ----------------------------------------
 BYTE   Fs3
 BYTE   W01
 BYTE   Gs3
 BYTE   W01
 BYTE   As3
 BYTE   W01
 BYTE   An3
 BYTE   W01
 BYTE   Gs3
 BYTE   W01
 BYTE   Gn3
 BYTE   W01
 BYTE   Gn3
 BYTE   W01
 BYTE   Fs3
 BYTE   W01
 BYTE   Fn3
 BYTE   W01
 BYTE   En3
 BYTE   W01
 BYTE   En3
 BYTE   W16
 BYTE   CnM2
 BYTE   N06
 BYTE   W01
 BYTE   BEND   c_v-33
 BYTE   W01
 BYTE   En3
 BYTE   W06
 BYTE   N12  Bn2
 BYTE   W03
 BYTE   BEND   c_v+0
 BYTE   W13
 BYTE   N06  Dn3
 BYTE   W24
 BYTE   Bn2
 BYTE   W08
 BYTE   N12  En3
 BYTE   W14
// 022   ----------------------------------------
 BYTE   W02
 BYTE   N06  Dn3
 BYTE   W08
 BYTE   N24  An2
 BYTE   W24
 BYTE   En3
 BYTE   W24
 BYTE   BEND   c_v-64
 BYTE   N12  An3
 BYTE   W01
 BYTE   BEND   c_v-49
 BYTE   W01
 BYTE   Gn0
 BYTE   W01
 BYTE   Bn1
 BYTE   W01
 BYTE   En3
 BYTE   W12
 BYTE   N18  En3
 BYTE   W22
// 023   ----------------------------------------
 BYTE   W02
 BYTE   Dn3
 BYTE   W24
 BYTE   N06
 BYTE   W08
 BYTE   N12  An2
 BYTE   W16
 BYTE   En3
 BYTE   W24
 BYTE   N06
 BYTE   W08
 BYTE   Dn3
 BYTE   W08
 BYTE   En3
 BYTE   W06
// 024   ----------------------------------------
 BYTE   W02
 BYTE   Dn3
 BYTE   W28
 BYTE   VOL   32*GritsTheme_mvl/mxv
 BYTE   BEND   c_v-64
 BYTE   N42  Gn4
 BYTE   W01
 BYTE   VOL   31*GritsTheme_mvl/mxv
 BYTE   BEND   c_v-57
 BYTE   W01
 BYTE   VOL   30*GritsTheme_mvl/mxv
 BYTE   BEND   c_v-49
 BYTE   W01
 BYTE   BnM1
 BYTE   W01
 BYTE   VOL   29*GritsTheme_mvl/mxv
 BYTE   BEND   c_v-33
 BYTE   W01
 BYTE   VOL   29*GritsTheme_mvl/mxv
 BYTE   BEND   c_v-25
 BYTE   W01
 BYTE   Bn1
 BYTE   W01
 BYTE   VOL   27*GritsTheme_mvl/mxv
 BYTE   BEND   c_v-9
 BYTE   W01
 BYTE   VOL   26*GritsTheme_mvl/mxv
 BYTE   BEND   c_v+0
 BYTE   W01
 BYTE   VOL   25*GritsTheme_mvl/mxv
 BYTE   W02
 BYTE   Cs0
 BYTE   W01
 BYTE   Cn0
 BYTE   W02
 BYTE   AsM1
 BYTE   W01
 BYTE   AsM1
 BYTE   W01
 BYTE   GsM1
 BYTE   BEND   c_v+0
 BYTE   W01
 BYTE   Ds3
 BYTE   W01
 BYTE   VOL   19*GritsTheme_mvl/mxv
 BYTE   BEND   c_v-2
 BYTE   W01
 BYTE   VOL   17*GritsTheme_mvl/mxv
 BYTE   BEND   c_v-3
 BYTE   W01
 BYTE   Cs3
 BYTE   W01
 BYTE   VOL   17*GritsTheme_mvl/mxv
 BYTE   BEND   c_v-4
 BYTE   W01
 BYTE   VOL   16*GritsTheme_mvl/mxv
 BYTE   BEND   c_v-5
 BYTE   W01
 BYTE   As2
 BYTE   W01
 BYTE   VOL   15*GritsTheme_mvl/mxv
 BYTE   BEND   c_v-6
 BYTE   W01
 BYTE   VOL   14*GritsTheme_mvl/mxv
 BYTE   BEND   c_v-5
 BYTE   W01
 BYTE   VOL   14*GritsTheme_mvl/mxv
 BYTE   BEND   c_v-4
 BYTE   W01
 BYTE   Dn3
 BYTE   W01
 BYTE   VOL   12*GritsTheme_mvl/mxv
 BYTE   BEND   c_v+0
 BYTE   W01
 BYTE   VOL   11*GritsTheme_mvl/mxv
 BYTE   W02
 BYTE   AsM2
 BYTE   W01
 BYTE   AsM2
 BYTE   BEND   c_v+0
 BYTE   W01
 BYTE   VOL   8*GritsTheme_mvl/mxv
 BYTE   BEND   c_v-2
 BYTE   W01
 BYTE   Cs3
 BYTE   W01
 BYTE   VOL   7*GritsTheme_mvl/mxv
 BYTE   BEND   c_v-5
 BYTE   W01
 BYTE   VOL   6*GritsTheme_mvl/mxv
 BYTE   BEND   c_v-6
 BYTE   W01
 BYTE   Bn2
 BYTE   W01
 BYTE   VOL   6*GritsTheme_mvl/mxv
 BYTE   BEND   c_v-4
 BYTE   W01
 BYTE   VOL   5*GritsTheme_mvl/mxv
 BYTE   BEND   c_v-2
 BYTE   W01
 BYTE   VOL   3*GritsTheme_mvl/mxv
 BYTE   BEND   c_v+0
 BYTE   W02
 BYTE   VOL   2*GritsTheme_mvl/mxv
 BYTE   W01
 BYTE   CsM2
 BYTE   W02
 BYTE   CsM2
 BYTE   W01
 BYTE   CnM2
 BYTE   W02
 BYTE   Gs0
 BYTE   N18
 BYTE   W01
 BYTE   VOL   31*GritsTheme_mvl/mxv
 BYTE   W01
 BYTE   Fs0
 BYTE   W02
 BYTE   Fn0
 BYTE   W01
 BYTE   En0
 BYTE   W02
 BYTE   Ds0
 BYTE   W01
 BYTE   Dn0
 BYTE   W01
 BYTE   Cs0
 BYTE   W02
 BYTE   Cn0
 BYTE   W01
 BYTE   BnM1
 BYTE   W02
 BYTE   AsM1
 BYTE   W01
 BYTE   AnM1
 BYTE   W01
 BYTE   GnM1
 BYTE   W02
// 025   ----------------------------------------
 BYTE   GnM1
 BYTE   W01
 BYTE   FnM1
 BYTE   W02
 BYTE   FnM1
 BYTE   W01
 BYTE   DsM1
 BYTE   W02
 BYTE   Gs0
 BYTE   N36  Fs4
 BYTE   W01
 BYTE   VOL   31*GritsTheme_mvl/mxv
 BYTE   W01
 BYTE   Fs0
 BYTE   W02
 BYTE   Fn0
 BYTE   W01
 BYTE   Fn0
 BYTE   W02
 BYTE   Ds0
 BYTE   W01
 BYTE   Dn0
 BYTE   W01
 BYTE   Cs0
 BYTE   W02
 BYTE   Cs0
 BYTE   W01
 BYTE   Cn0
 BYTE   W02
 BYTE   AsM1
 BYTE   W01
 BYTE   AsM1
 BYTE   W01
 BYTE   GsM1
 BYTE   W02
 BYTE   GnM1
 BYTE   W01
 BYTE   FnM1
 BYTE   W02
 BYTE   FnM1
 BYTE   W01
 BYTE   EnM1
 BYTE   W02
 BYTE   DsM1
 BYTE   W01
 BYTE   DnM1
 BYTE   W01
 BYTE   DnM1
 BYTE   W02
 BYTE   CnM1
 BYTE   W01
 BYTE   BnM2
 BYTE   W02
 BYTE   AsM2
 BYTE   W01
 BYTE   AsM2
 BYTE   W01
 BYTE   GsM2
 BYTE   W02
 BYTE   GnM2
 BYTE   W01
 BYTE   FsM2
 BYTE   W02
 BYTE   FsM2
 BYTE   W01
 BYTE   FnM2
 BYTE   W01
 BYTE   Gs0
 BYTE   BEND   c_v-64
 BYTE   N24
 BYTE   W01
 BYTE   VOL   31*GritsTheme_mvl/mxv
 BYTE   BEND   c_v-57
 BYTE   W01
 BYTE   VOL   30*GritsTheme_mvl/mxv
 BYTE   BEND   c_v-49
 BYTE   W01
 BYTE   BnM1
 BYTE   W01
 BYTE   VOL   29*GritsTheme_mvl/mxv
 BYTE   BEND   c_v-33
 BYTE   W01
 BYTE   VOL   28*GritsTheme_mvl/mxv
 BYTE   BEND   c_v-25
 BYTE   W01
 BYTE   VOL   27*GritsTheme_mvl/mxv
 BYTE   BEND   c_v-17
 BYTE   W01
 BYTE   Gn2
 BYTE   W01
 BYTE   VOL   26*GritsTheme_mvl/mxv
 BYTE   BEND   c_v+0
 BYTE   W01
 BYTE   VOL   25*GritsTheme_mvl/mxv
 BYTE   W02
 BYTE   Cn0
 BYTE   W01
 BYTE   BnM1
 BYTE   W01
 BYTE   AsM1
 BYTE   W02
 BYTE   AnM1
 BYTE   W01
 BYTE   GnM1
 BYTE   W02
 BYTE   GnM1
 BYTE   W01
 BYTE   FnM1
 BYTE   W01
 BYTE   EnM1
 BYTE   W02
 BYTE   DsM1
 BYTE   W01
 BYTE   DnM1
 BYTE   W01
 BYTE   Gs0
 BYTE   N06  En4
 BYTE   W08
 BYTE   N16  Cs4
 BYTE   W16
 BYTE   N12  En4
 BYTE   W02
// 026   ----------------------------------------
 BYTE   W30
 BYTE   N06  Cs4
 BYTE   W08
 BYTE   N06
 BYTE   W08
 BYTE   N06
 BYTE   W08
 BYTE   BEND   c_v-64
 BYTE   N12  En4
 BYTE   W01
 BYTE   BEND   c_v-49
 BYTE   W01
 BYTE   Gn0
 BYTE   W01
 BYTE   Bn1
 BYTE   W01
 BYTE   En3
 BYTE   W12
 BYTE   N06
 BYTE   W08
 BYTE   N16  Fs4
 BYTE   W16
 BYTE   N06  En4
 BYTE   W02
// 027   ----------------------------------------
 BYTE   W30
 BYTE   BEND   c_v-64
 BYTE   N16  Gn4
 BYTE   W01
 BYTE   BEND   c_v-49
 BYTE   W01
 BYTE   Gn0
 BYTE   W01
 BYTE   Bn1
 BYTE   W01
 BYTE   En3
 BYTE   W12
 BYTE   N06  Fs4
 BYTE   W24
 BYTE   BEND   c_v-64
 BYTE   N06  En4
 BYTE   W01
 BYTE   BEND   c_v-2
 BYTE   W01
 BYTE   Dn3
 BYTE   W02
 BYTE   Ds3
 BYTE   W01
 BYTE   En3
 BYTE   W03
 BYTE   N12  Fs4
 BYTE   W18
// 028   ----------------------------------------
 BYTE   GoTo
  POIN2 Label_6_010019E0
// 029   ----------------------------------------
 BYTE   W96
 BYTE   FINE

//******************************************************//
	ALIGN 4

GritsTheme:
	BYTE	7	// NumTrks
	BYTE	0	// NumBlks
	BYTE	GritsTheme_pri	// Priority
	BYTE	GritsTheme_rev	// Reverb.
    
	POIN2	GritsTheme_grp
    
	POIN2	GritsTheme_001
	POIN2	GritsTheme_002
	POIN2	GritsTheme_003
	POIN2	GritsTheme_004
	POIN2	GritsTheme_005
	POIN2	GritsTheme_006
	POIN2	GritsTheme_007

	
