//Event file generated from Sappy .s format.
	#include "MPlayDef.event"

	#define	HiryuNoKen2_grp  voicegroup000
	#define	HiryuNoKen2_pri  0
	#define	HiryuNoKen2_rev  0
	#define	HiryuNoKen2_mvl  80
	#define	HiryuNoKen2_key  0
	#define	HiryuNoKen2_tbs  1
	#define	HiryuNoKen2_exg  0
	#define	HiryuNoKen2_cmp  1

	// .rodata
	//	HiryuNoKen2
	ALIGN 4

//**************** Track 1 (Midi-Chn.1) ****************//

HiryuNoKen2_1:
	BYTE	KEYSH   HiryuNoKen2_key+0
HiryuNoKen2_1_B1:
// 000   ----------------------------------------
	BYTE	TEMPO   117*HiryuNoKen2_tbs/2
	BYTE		VOICE   41
	BYTE		VOL     56*HiryuNoKen2_mvl/mxv
	BYTE		PAN     c_v+0
	BYTE	W96
// 001   ----------------------------------------
	BYTE	W96
// 002   ----------------------------------------
HiryuNoKen2_1_002:
	BYTE		N16     An2   v120
	BYTE		N16     Dn3 
	BYTE	W18
	BYTE		N17     Cn3 
	BYTE		N17     Fn3 
	BYTE	W18
	BYTE		TIE     Dn3 
	BYTE		TIE     Gn3 
	BYTE	W60
	BYTE	PEND
// 003   ----------------------------------------
	BYTE	W68
	BYTE	W03
	BYTE		EOT     Dn3 
	BYTE		        Gn3 
	BYTE	W13
	BYTE		N05     Dn3 
	BYTE		N05     Gn3 
	BYTE	W06
	BYTE		        Cn3 
	BYTE		N05     Fn3 
	BYTE	W06
// 004   ----------------------------------------
HiryuNoKen2_1_004:
	BYTE		N05     Dn3   v120
	BYTE		N05     Gn3 
	BYTE	W06
	BYTE		        Dn3 
	BYTE		N05     Gn3 
	BYTE	W06
	BYTE		        Cn3 
	BYTE		N05     Fn3 
	BYTE	W06
	BYTE		N24     An2 
	BYTE		N24     Dn3 
	BYTE	W78
	BYTE	PEND
// 005   ----------------------------------------
	BYTE	W96
// 006   ----------------------------------------
	BYTE	PATT
	 POIN2	HiryuNoKen2_1_002
// 007   ----------------------------------------
	BYTE	W68
	BYTE	W03
	BYTE		EOT     Dn3 
	BYTE		        Gn3 
	BYTE	W13
	BYTE		N05     Dn3   v120
	BYTE		N05     Gn3 
	BYTE	W06
	BYTE		        Cn3 
	BYTE		N05     Fn3 
	BYTE	W06
// 008   ----------------------------------------
	BYTE	PATT
	 POIN2	HiryuNoKen2_1_004
// 009   ----------------------------------------
	BYTE	W96
// 010   ----------------------------------------
	BYTE	PATT
	 POIN2	HiryuNoKen2_1_002
// 011   ----------------------------------------
	BYTE	W68
	BYTE	W03
	BYTE		EOT     Dn3 
	BYTE		        Gn3 
	BYTE	W13
	BYTE		N05     Dn3   v120
	BYTE		N05     Gn3 
	BYTE	W06
	BYTE		        Cn3 
	BYTE		N05     Fn3 
	BYTE	W06
// 012   ----------------------------------------
HiryuNoKen2_1_012:
	BYTE		N24     Dn3   v120
	BYTE		N24     Gn3 
	BYTE	W24
	BYTE		N11     En3 
	BYTE		N12     An3 
	BYTE	W12
	BYTE		N24     Cn3 
	BYTE		N24     Fn3 
	BYTE	W24
	BYTE		        An2 
	BYTE		N24     Dn3 
	BYTE	W36
	BYTE	PEND
// 013   ----------------------------------------
	BYTE	W96
// 014   ----------------------------------------
	BYTE	PATT
	 POIN2	HiryuNoKen2_1_002
// 015   ----------------------------------------
	BYTE	W68
	BYTE	W03
	BYTE		EOT     Dn3 
	BYTE		        Gn3 
	BYTE	W13
	BYTE		N05     Dn3   v120
	BYTE		N05     Gn3 
	BYTE	W06
	BYTE		        Cn3 
	BYTE		N05     Fn3 
	BYTE	W06
// 016   ----------------------------------------
HiryuNoKen2_1_016:
	BYTE		N24     Dn3   v120
	BYTE		N24     Gn3 
	BYTE	W24
	BYTE		N11     En3 
	BYTE		N12     An3 
	BYTE	W12
	BYTE		N24     Cn3 
	BYTE		N24     Fn3 
	BYTE	W24
	BYTE		TIE     An2 
	BYTE		TIE     Dn3 
	BYTE	W36
	BYTE	PEND
// 017   ----------------------------------------
	BYTE	W84
	BYTE		EOT     An2 
	BYTE		        Dn3 
	BYTE	W12
// 018   ----------------------------------------
	BYTE	W96
// 019   ----------------------------------------
HiryuNoKen2_1_019:
	BYTE	W84
	BYTE		N04     Dn3   v120
	BYTE	W06
	BYTE		N05     En3 
	BYTE	W06
	BYTE	PEND
// 020   ----------------------------------------
HiryuNoKen2_1_020:
	BYTE		N04     Fn3   v120
	BYTE	W06
	BYTE		        En3 
	BYTE	W06
	BYTE		        Dn3 
	BYTE	W06
	BYTE		N05     En3 
	BYTE	W06
	BYTE		N04     Fn3 
	BYTE	W06
	BYTE		        Gn3 
	BYTE	W06
	BYTE		        As3 
	BYTE	W06
	BYTE		N05     Dn4 
	BYTE	W06
	BYTE		N23     Fn4 
	BYTE	W36
	BYTE		N11   
	BYTE	W12
	BYTE	PEND
// 021   ----------------------------------------
HiryuNoKen2_1_021:
	BYTE		N04     En4   v120
	BYTE	W06
	BYTE		        Dn4 
	BYTE	W06
	BYTE		        Cn4 
	BYTE	W06
	BYTE		N05     Dn4 
	BYTE	W06
	BYTE		N04     En4 
	BYTE	W06
	BYTE		        Gn4 
	BYTE	W06
	BYTE		        Cn5 
	BYTE	W06
	BYTE		N05     Dn5 
	BYTE	W06
	BYTE		N23     En5 
	BYTE	W36
	BYTE		N11   
	BYTE	W12
	BYTE	PEND
// 022   ----------------------------------------
HiryuNoKen2_1_022:
	BYTE		N04     An4   v120
	BYTE		N04     Dn5 
	BYTE	W06
	BYTE		        An4 
	BYTE		N04     Dn5 
	BYTE	W06
	BYTE		        An4 
	BYTE		N04     Dn5 
	BYTE	W06
	BYTE		        An4 
	BYTE		N04     Dn5 
	BYTE	W12
	BYTE		        An4 
	BYTE		N04     Dn5 
	BYTE	W12
	BYTE		        An4 
	BYTE		N04     Dn5 
	BYTE	W06
	BYTE		        Gn4 
	BYTE		N04     Dn5 
	BYTE	W12
	BYTE		        Gn4 
	BYTE		N04     Dn5 
	BYTE	W12
	BYTE		        Gn4 
	BYTE		N04     Cn5 
	BYTE	W06
	BYTE		        En4 
	BYTE		N04     An4 
	BYTE	W06
	BYTE		        Cn5 
	BYTE		N04     En5 
	BYTE	W06
	BYTE		        An4 
	BYTE		N04     Dn5 
	BYTE	W06
	BYTE	PEND
// 023   ----------------------------------------
	BYTE	W96
// 024   ----------------------------------------
	BYTE	W96
// 025   ----------------------------------------
	BYTE	PATT
	 POIN2	HiryuNoKen2_1_002
// 026   ----------------------------------------
	BYTE	W68
	BYTE	W03
	BYTE		EOT     Dn3 
	BYTE		        Gn3 
	BYTE	W13
	BYTE		N05     Dn3   v120
	BYTE		N05     Gn3 
	BYTE	W06
	BYTE		        Cn3 
	BYTE		N05     Fn3 
	BYTE	W06
// 027   ----------------------------------------
	BYTE	PATT
	 POIN2	HiryuNoKen2_1_004
// 028   ----------------------------------------
	BYTE	W96
// 029   ----------------------------------------
	BYTE	PATT
	 POIN2	HiryuNoKen2_1_002
// 030   ----------------------------------------
	BYTE	W68
	BYTE	W03
	BYTE		EOT     Dn3 
	BYTE		        Gn3 
	BYTE	W13
	BYTE		N05     Dn3   v120
	BYTE		N05     Gn3 
	BYTE	W06
	BYTE		        Cn3 
	BYTE		N05     Fn3 
	BYTE	W06
// 031   ----------------------------------------
	BYTE	PATT
	 POIN2	HiryuNoKen2_1_004
// 032   ----------------------------------------
	BYTE	W96
// 033   ----------------------------------------
	BYTE	PATT
	 POIN2	HiryuNoKen2_1_002
// 034   ----------------------------------------
	BYTE	W68
	BYTE	W03
	BYTE		EOT     Dn3 
	BYTE		        Gn3 
	BYTE	W13
	BYTE		N05     Dn3   v120
	BYTE		N05     Gn3 
	BYTE	W06
	BYTE		        Cn3 
	BYTE		N05     Fn3 
	BYTE	W06
// 035   ----------------------------------------
	BYTE	PATT
	 POIN2	HiryuNoKen2_1_012
// 036   ----------------------------------------
	BYTE	W96
// 037   ----------------------------------------
	BYTE	PATT
	 POIN2	HiryuNoKen2_1_002
// 038   ----------------------------------------
	BYTE	W68
	BYTE	W03
	BYTE		EOT     Dn3 
	BYTE		        Gn3 
	BYTE	W13
	BYTE		N05     Dn3   v120
	BYTE		N05     Gn3 
	BYTE	W06
	BYTE		        Cn3 
	BYTE		N05     Fn3 
	BYTE	W06
// 039   ----------------------------------------
	BYTE	PATT
	 POIN2	HiryuNoKen2_1_016
// 040   ----------------------------------------
	BYTE	W84
	BYTE		EOT     An2 
	BYTE		        Dn3 
	BYTE	W12
// 041   ----------------------------------------
	BYTE	W96
// 042   ----------------------------------------
	BYTE	PATT
	 POIN2	HiryuNoKen2_1_019
// 043   ----------------------------------------
	BYTE	PATT
	 POIN2	HiryuNoKen2_1_020
// 044   ----------------------------------------
	BYTE	PATT
	 POIN2	HiryuNoKen2_1_021
// 045   ----------------------------------------
	BYTE	PATT
	 POIN2	HiryuNoKen2_1_022
// 046   ----------------------------------------
	BYTE	W96
// 047   ----------------------------------------
	BYTE	W96
// 048   ----------------------------------------
	BYTE	PATT
	 POIN2	HiryuNoKen2_1_002
// 049   ----------------------------------------
	BYTE	W68
	BYTE	W03
	BYTE		EOT     Dn3 
	BYTE		        Gn3 
	BYTE	W13
	BYTE		N05     Dn3   v120
	BYTE		N05     Gn3 
	BYTE	W06
	BYTE		        Cn3 
	BYTE		N05     Fn3 
	BYTE	W06
// 050   ----------------------------------------
	BYTE	PATT
	 POIN2	HiryuNoKen2_1_004
// 051   ----------------------------------------
	BYTE	W96
// 052   ----------------------------------------
	BYTE	PATT
	 POIN2	HiryuNoKen2_1_002
// 053   ----------------------------------------
	BYTE	W68
	BYTE	W03
	BYTE		EOT     Dn3 
	BYTE		        Gn3 
	BYTE	W13
	BYTE		N05     Dn3   v120
	BYTE		N05     Gn3 
	BYTE	W06
	BYTE		        Cn3 
	BYTE		N05     Fn3 
	BYTE	W06
// 054   ----------------------------------------
	BYTE	PATT
	 POIN2	HiryuNoKen2_1_004
// 055   ----------------------------------------
	BYTE	W96
// 056   ----------------------------------------
	BYTE	PATT
	 POIN2	HiryuNoKen2_1_002
// 057   ----------------------------------------
	BYTE	W68
	BYTE	W03
	BYTE		EOT     Dn3 
	BYTE		        Gn3 
	BYTE	W13
	BYTE		N05     Dn3   v120
	BYTE		N05     Gn3 
	BYTE	W06
	BYTE		        Cn3 
	BYTE		N05     Fn3 
	BYTE	W06
// 058   ----------------------------------------
	BYTE	PATT
	 POIN2	HiryuNoKen2_1_012
// 059   ----------------------------------------
	BYTE	W96
// 060   ----------------------------------------
	BYTE	PATT
	 POIN2	HiryuNoKen2_1_002
// 061   ----------------------------------------
	BYTE	W68
	BYTE	W03
	BYTE		EOT     Dn3 
	BYTE		        Gn3 
	BYTE	W13
	BYTE		N05     Dn3   v120
	BYTE		N05     Gn3 
	BYTE	W06
	BYTE		        Cn3 
	BYTE		N05     Fn3 
	BYTE	W06
// 062   ----------------------------------------
	BYTE	PATT
	 POIN2	HiryuNoKen2_1_016
// 063   ----------------------------------------
	BYTE	W84
	BYTE		EOT     An2 
	BYTE		        Dn3 
	BYTE	W12
// 064   ----------------------------------------
	BYTE	W96
// 065   ----------------------------------------
	BYTE	PATT
	 POIN2	HiryuNoKen2_1_019
// 066   ----------------------------------------
	BYTE	PATT
	 POIN2	HiryuNoKen2_1_020
// 067   ----------------------------------------
	BYTE	PATT
	 POIN2	HiryuNoKen2_1_021
// 068   ----------------------------------------
	BYTE	PATT
	 POIN2	HiryuNoKen2_1_022
// 069   ----------------------------------------
	BYTE	W96
// 070   ----------------------------------------
	BYTE	W96
// 071   ----------------------------------------
	BYTE	PATT
	 POIN2	HiryuNoKen2_1_002
// 072   ----------------------------------------
	BYTE	W68
	BYTE	W03
	BYTE		EOT     Dn3 
	BYTE		        Gn3 
	BYTE	W13
	BYTE		N05     Dn3   v120
	BYTE		N05     Gn3 
	BYTE	W06
	BYTE		        Cn3 
	BYTE		N05     Fn3 
	BYTE	W06
// 073   ----------------------------------------
	BYTE	PATT
	 POIN2	HiryuNoKen2_1_004
// 074   ----------------------------------------
	BYTE	W96
// 075   ----------------------------------------
	BYTE	PATT
	 POIN2	HiryuNoKen2_1_002
// 076   ----------------------------------------
	BYTE	W68
	BYTE	W03
	BYTE		EOT     Dn3 
	BYTE		        Gn3 
	BYTE	W13
	BYTE		N05     Dn3   v120
	BYTE		N05     Gn3 
	BYTE	W06
	BYTE		        Cn3 
	BYTE		N05     Fn3 
	BYTE	W06
// 077   ----------------------------------------
	BYTE	PATT
	 POIN2	HiryuNoKen2_1_004
// 078   ----------------------------------------
	BYTE	W96
// 079   ----------------------------------------
	BYTE	PATT
	 POIN2	HiryuNoKen2_1_002
// 080   ----------------------------------------
	BYTE	W68
	BYTE	W03
	BYTE		EOT     Dn3 
	BYTE		        Gn3 
	BYTE	W13
	BYTE		N05     Dn3   v120
	BYTE		N05     Gn3 
	BYTE	W06
	BYTE		        Cn3 
	BYTE		N05     Fn3 
	BYTE	W06
// 081   ----------------------------------------
	BYTE	PATT
	 POIN2	HiryuNoKen2_1_012
// 082   ----------------------------------------
	BYTE	W96
// 083   ----------------------------------------
	BYTE	PATT
	 POIN2	HiryuNoKen2_1_002
// 084   ----------------------------------------
	BYTE	W68
	BYTE	W03
	BYTE		EOT     Dn3 
	BYTE		        Gn3 
	BYTE	W13
	BYTE		N05     Dn3   v120
	BYTE		N05     Gn3 
	BYTE	W06
	BYTE		        Cn3 
	BYTE		N05     Fn3 
	BYTE	W06
// 085   ----------------------------------------
	BYTE	PATT
	 POIN2	HiryuNoKen2_1_016
// 086   ----------------------------------------
	BYTE	W84
	BYTE		EOT     An2 
	BYTE		        Dn3 
	BYTE	W12
// 087   ----------------------------------------
	BYTE	W96
// 088   ----------------------------------------
	BYTE	PATT
	 POIN2	HiryuNoKen2_1_019
// 089   ----------------------------------------
	BYTE	PATT
	 POIN2	HiryuNoKen2_1_020
// 090   ----------------------------------------
	BYTE	PATT
	 POIN2	HiryuNoKen2_1_021
// 091   ----------------------------------------
	BYTE		N04     An4   v120
	BYTE		N04     Dn5 
	BYTE	W06
	BYTE		        An4 
	BYTE		N04     Dn5 
	BYTE	W06
	BYTE		        An4 
	BYTE		N04     Dn5 
	BYTE	W06
	BYTE		        An4 
	BYTE		N04     Dn5 
	BYTE	W12
	BYTE		        An4 
	BYTE		N04     Dn5 
	BYTE	W12
	BYTE		        An4 
	BYTE		N04     Dn5 
	BYTE	W06
	BYTE		        Gn4 
	BYTE		N04     Dn5 
	BYTE	W12
	BYTE		        Gn4 
	BYTE		N04     Dn5 
	BYTE	W12
	BYTE		        Gn4 
	BYTE		N04     Cn5 
	BYTE	W06
	BYTE		        En4 
	BYTE		N04     An4 
	BYTE	W06
	BYTE		        Cn5 
	BYTE		N04     En5 
	BYTE	W06
	BYTE		        An4 
	BYTE		N04     Dn5 
	BYTE	W05
	BYTE	GoTo
	 POIN2	HiryuNoKen2_1_B1
HiryuNoKen2_1_B2:
	BYTE	FINE

//**************** Track 2 (Midi-Chn.2) ****************//

HiryuNoKen2_2:
	BYTE	KEYSH   HiryuNoKen2_key+0
HiryuNoKen2_2_B1:
// 000   ----------------------------------------
	BYTE		VOICE   40
	BYTE		VOL     32*HiryuNoKen2_mvl/mxv
	BYTE		PAN     c_v+0
	BYTE	W96
// 001   ----------------------------------------
	BYTE	W96
// 002   ----------------------------------------
HiryuNoKen2_2_002:
	BYTE	W12
	BYTE		N16     An2   v120
	BYTE		N16     Dn3 
	BYTE	W18
	BYTE		N17     Cn3 
	BYTE		N17     Fn3 
	BYTE	W18
	BYTE		TIE     Dn3 
	BYTE		TIE     Gn3 
	BYTE	W48
	BYTE	PEND
// 003   ----------------------------------------
	BYTE	W80
	BYTE	W03
	BYTE		EOT     Dn3 
	BYTE		        Gn3 
	BYTE	W13
// 004   ----------------------------------------
HiryuNoKen2_2_004:
	BYTE		N05     Dn3   v120
	BYTE		N05     Gn3 
	BYTE	W06
	BYTE		        Cn3 
	BYTE		N05     Fn3 
	BYTE	W06
	BYTE		        Dn3 
	BYTE		N05     Gn3 
	BYTE	W06
	BYTE		        Dn3 
	BYTE		N05     Gn3 
	BYTE	W06
	BYTE		        Cn3 
	BYTE		N05     Fn3 
	BYTE	W06
	BYTE		N24     An2 
	BYTE		N24     Dn3 
	BYTE	W66
	BYTE	PEND
// 005   ----------------------------------------
	BYTE	W96
// 006   ----------------------------------------
	BYTE	PATT
	 POIN2	HiryuNoKen2_2_002
// 007   ----------------------------------------
	BYTE	W80
	BYTE	W03
	BYTE		EOT     Dn3 
	BYTE		        Gn3 
	BYTE	W13
// 008   ----------------------------------------
	BYTE	PATT
	 POIN2	HiryuNoKen2_2_004
// 009   ----------------------------------------
	BYTE	W96
// 010   ----------------------------------------
	BYTE	PATT
	 POIN2	HiryuNoKen2_2_002
// 011   ----------------------------------------
	BYTE	W80
	BYTE	W03
	BYTE		EOT     Dn3 
	BYTE		        Gn3 
	BYTE	W13
// 012   ----------------------------------------
HiryuNoKen2_2_012:
	BYTE		N05     Dn3   v120
	BYTE		N05     Gn3 
	BYTE	W06
	BYTE		        Cn3 
	BYTE		N05     Fn3 
	BYTE	W06
	BYTE		N24     Dn3 
	BYTE		N24     Gn3 
	BYTE	W24
	BYTE		N11     En3 
	BYTE		N12     An3 
	BYTE	W12
	BYTE		N24     Cn3 
	BYTE		N24     Fn3 
	BYTE	W24
	BYTE		        An2 
	BYTE		N24     Dn3 
	BYTE	W24
	BYTE	PEND
// 013   ----------------------------------------
	BYTE	W96
// 014   ----------------------------------------
	BYTE	PATT
	 POIN2	HiryuNoKen2_2_002
// 015   ----------------------------------------
	BYTE	W80
	BYTE	W03
	BYTE		EOT     Dn3 
	BYTE		        Gn3 
	BYTE	W13
// 016   ----------------------------------------
HiryuNoKen2_2_016:
	BYTE		N05     Dn3   v120
	BYTE		N05     Gn3 
	BYTE	W06
	BYTE		        Cn3 
	BYTE		N05     Fn3 
	BYTE	W06
	BYTE		N24     Dn3 
	BYTE		N24     Gn3 
	BYTE	W24
	BYTE		N11     En3 
	BYTE		N12     An3 
	BYTE	W12
	BYTE		N24     Cn3 
	BYTE		N24     Fn3 
	BYTE	W24
	BYTE		TIE     An2 
	BYTE		TIE     Dn3 
	BYTE	W24
	BYTE	PEND
// 017   ----------------------------------------
	BYTE	W96
	BYTE		EOT     An2 
	BYTE		        Dn3 
// 018   ----------------------------------------
	BYTE	W96
// 019   ----------------------------------------
	BYTE	W96
// 020   ----------------------------------------
HiryuNoKen2_2_020:
	BYTE		N04     Dn3   v120
	BYTE	W06
	BYTE		N05     En3 
	BYTE	W06
	BYTE		N04     Fn3 
	BYTE	W06
	BYTE		        En3 
	BYTE	W06
	BYTE		        Dn3 
	BYTE	W06
	BYTE		N05     En3 
	BYTE	W06
	BYTE		N04     Fn3 
	BYTE	W06
	BYTE		        Gn3 
	BYTE	W06
	BYTE		        As3 
	BYTE	W06
	BYTE		N05     Dn4 
	BYTE	W06
	BYTE		N23     Fn4 
	BYTE	W36
	BYTE	PEND
// 021   ----------------------------------------
HiryuNoKen2_2_021:
	BYTE		N11     Fn4   v120
	BYTE	W12
	BYTE		N04     En4 
	BYTE	W06
	BYTE		        Dn4 
	BYTE	W06
	BYTE		        Cn4 
	BYTE	W06
	BYTE		N05     Dn4 
	BYTE	W06
	BYTE		N04     En4 
	BYTE	W06
	BYTE		        Gn4 
	BYTE	W06
	BYTE		        Cn5 
	BYTE	W06
	BYTE		N05     Dn5 
	BYTE	W06
	BYTE		N23     En5 
	BYTE	W36
	BYTE	PEND
// 022   ----------------------------------------
HiryuNoKen2_2_022:
	BYTE		N11     En5   v120
	BYTE	W12
	BYTE		N04     An4 
	BYTE		N04     Dn5 
	BYTE	W06
	BYTE		        An4 
	BYTE		N04     Dn5 
	BYTE	W06
	BYTE		        An4 
	BYTE		N04     Dn5 
	BYTE	W06
	BYTE		        An4 
	BYTE		N04     Dn5 
	BYTE	W12
	BYTE		        An4 
	BYTE		N04     Dn5 
	BYTE	W12
	BYTE		        An4 
	BYTE		N04     Dn5 
	BYTE	W06
	BYTE		        Gn4 
	BYTE		N04     Dn5 
	BYTE	W12
	BYTE		        Gn4 
	BYTE		N04     Dn5 
	BYTE	W12
	BYTE		        Gn4 
	BYTE		N04     Cn5 
	BYTE	W06
	BYTE		        En4 
	BYTE		N04     An4 
	BYTE	W06
	BYTE	PEND
// 023   ----------------------------------------
	BYTE		        Cn5 
	BYTE		N04     En5 
	BYTE	W06
	BYTE		        An4 
	BYTE		N04     Dn5 
	BYTE	W90
// 024   ----------------------------------------
	BYTE	W96
// 025   ----------------------------------------
	BYTE	PATT
	 POIN2	HiryuNoKen2_2_002
// 026   ----------------------------------------
	BYTE	W80
	BYTE	W03
	BYTE		EOT     Dn3 
	BYTE		        Gn3 
	BYTE	W13
// 027   ----------------------------------------
	BYTE	PATT
	 POIN2	HiryuNoKen2_2_004
// 028   ----------------------------------------
	BYTE	W96
// 029   ----------------------------------------
	BYTE	PATT
	 POIN2	HiryuNoKen2_2_002
// 030   ----------------------------------------
	BYTE	W80
	BYTE	W03
	BYTE		EOT     Dn3 
	BYTE		        Gn3 
	BYTE	W13
// 031   ----------------------------------------
	BYTE	PATT
	 POIN2	HiryuNoKen2_2_004
// 032   ----------------------------------------
	BYTE	W96
// 033   ----------------------------------------
	BYTE	PATT
	 POIN2	HiryuNoKen2_2_002
// 034   ----------------------------------------
	BYTE	W80
	BYTE	W03
	BYTE		EOT     Dn3 
	BYTE		        Gn3 
	BYTE	W13
// 035   ----------------------------------------
	BYTE	PATT
	 POIN2	HiryuNoKen2_2_012
// 036   ----------------------------------------
	BYTE	W96
// 037   ----------------------------------------
	BYTE	PATT
	 POIN2	HiryuNoKen2_2_002
// 038   ----------------------------------------
	BYTE	W80
	BYTE	W03
	BYTE		EOT     Dn3 
	BYTE		        Gn3 
	BYTE	W13
// 039   ----------------------------------------
	BYTE	PATT
	 POIN2	HiryuNoKen2_2_016
// 040   ----------------------------------------
	BYTE	W96
	BYTE		EOT     An2 
	BYTE		        Dn3 
// 041   ----------------------------------------
	BYTE	W96
// 042   ----------------------------------------
	BYTE	W96
// 043   ----------------------------------------
	BYTE	PATT
	 POIN2	HiryuNoKen2_2_020
// 044   ----------------------------------------
	BYTE	PATT
	 POIN2	HiryuNoKen2_2_021
// 045   ----------------------------------------
	BYTE	PATT
	 POIN2	HiryuNoKen2_2_022
// 046   ----------------------------------------
	BYTE	W96
// 047   ----------------------------------------
	BYTE	W96
// 048   ----------------------------------------
	BYTE	PATT
	 POIN2	HiryuNoKen2_2_002
// 049   ----------------------------------------
	BYTE	W80
	BYTE	W03
	BYTE		EOT     Dn3 
	BYTE		        Gn3 
	BYTE	W13
// 050   ----------------------------------------
	BYTE	PATT
	 POIN2	HiryuNoKen2_2_004
// 051   ----------------------------------------
	BYTE	W96
// 052   ----------------------------------------
	BYTE	PATT
	 POIN2	HiryuNoKen2_2_002
// 053   ----------------------------------------
	BYTE	W80
	BYTE	W03
	BYTE		EOT     Dn3 
	BYTE		        Gn3 
	BYTE	W13
// 054   ----------------------------------------
	BYTE	PATT
	 POIN2	HiryuNoKen2_2_004
// 055   ----------------------------------------
	BYTE	W96
// 056   ----------------------------------------
	BYTE	PATT
	 POIN2	HiryuNoKen2_2_002
// 057   ----------------------------------------
	BYTE	W80
	BYTE	W03
	BYTE		EOT     Dn3 
	BYTE		        Gn3 
	BYTE	W13
// 058   ----------------------------------------
	BYTE	PATT
	 POIN2	HiryuNoKen2_2_012
// 059   ----------------------------------------
	BYTE	W96
// 060   ----------------------------------------
	BYTE	PATT
	 POIN2	HiryuNoKen2_2_002
// 061   ----------------------------------------
	BYTE	W80
	BYTE	W03
	BYTE		EOT     Dn3 
	BYTE		        Gn3 
	BYTE	W13
// 062   ----------------------------------------
	BYTE	PATT
	 POIN2	HiryuNoKen2_2_016
// 063   ----------------------------------------
	BYTE	W96
	BYTE		EOT     An2 
	BYTE		        Dn3 
// 064   ----------------------------------------
	BYTE	W96
// 065   ----------------------------------------
	BYTE	W96
// 066   ----------------------------------------
	BYTE	PATT
	 POIN2	HiryuNoKen2_2_020
// 067   ----------------------------------------
	BYTE	PATT
	 POIN2	HiryuNoKen2_2_021
// 068   ----------------------------------------
	BYTE	PATT
	 POIN2	HiryuNoKen2_2_022
// 069   ----------------------------------------
	BYTE	W96
// 070   ----------------------------------------
	BYTE	W96
// 071   ----------------------------------------
	BYTE	PATT
	 POIN2	HiryuNoKen2_2_002
// 072   ----------------------------------------
	BYTE	W80
	BYTE	W03
	BYTE		EOT     Dn3 
	BYTE		        Gn3 
	BYTE	W13
// 073   ----------------------------------------
	BYTE	PATT
	 POIN2	HiryuNoKen2_2_004
// 074   ----------------------------------------
	BYTE	W96
// 075   ----------------------------------------
	BYTE	PATT
	 POIN2	HiryuNoKen2_2_002
// 076   ----------------------------------------
	BYTE	W80
	BYTE	W03
	BYTE		EOT     Dn3 
	BYTE		        Gn3 
	BYTE	W13
// 077   ----------------------------------------
	BYTE	PATT
	 POIN2	HiryuNoKen2_2_004
// 078   ----------------------------------------
	BYTE	W96
// 079   ----------------------------------------
	BYTE	PATT
	 POIN2	HiryuNoKen2_2_002
// 080   ----------------------------------------
	BYTE	W80
	BYTE	W03
	BYTE		EOT     Dn3 
	BYTE		        Gn3 
	BYTE	W13
// 081   ----------------------------------------
	BYTE	PATT
	 POIN2	HiryuNoKen2_2_012
// 082   ----------------------------------------
	BYTE	W96
// 083   ----------------------------------------
	BYTE	PATT
	 POIN2	HiryuNoKen2_2_002
// 084   ----------------------------------------
	BYTE	W80
	BYTE	W03
	BYTE		EOT     Dn3 
	BYTE		        Gn3 
	BYTE	W13
// 085   ----------------------------------------
	BYTE	PATT
	 POIN2	HiryuNoKen2_2_016
// 086   ----------------------------------------
	BYTE	W96
	BYTE		EOT     An2 
	BYTE		        Dn3 
// 087   ----------------------------------------
	BYTE	W96
// 088   ----------------------------------------
	BYTE	W96
// 089   ----------------------------------------
	BYTE	PATT
	 POIN2	HiryuNoKen2_2_020
// 090   ----------------------------------------
	BYTE	PATT
	 POIN2	HiryuNoKen2_2_021
// 091   ----------------------------------------
	BYTE		N11     En5   v120
	BYTE	W12
	BYTE		N04     An4 
	BYTE		N04     Dn5 
	BYTE	W06
	BYTE		        An4 
	BYTE		N04     Dn5 
	BYTE	W06
	BYTE		        An4 
	BYTE		N04     Dn5 
	BYTE	W06
	BYTE		        An4 
	BYTE		N04     Dn5 
	BYTE	W12
	BYTE		        An4 
	BYTE		N04     Dn5 
	BYTE	W12
	BYTE		        An4 
	BYTE		N04     Dn5 
	BYTE	W06
	BYTE		        Gn4 
	BYTE		N04     Dn5 
	BYTE	W12
	BYTE		        Gn4 
	BYTE		N04     Dn5 
	BYTE	W12
	BYTE		        Gn4 
	BYTE		N04     Cn5 
	BYTE	W06
	BYTE		        En4 
	BYTE		N04     An4 
	BYTE	W05
	BYTE	GoTo
	 POIN2	HiryuNoKen2_2_B1
HiryuNoKen2_2_B2:
	BYTE	FINE

//**************** Track 3 (Midi-Chn.3) ****************//

HiryuNoKen2_3:
	BYTE	KEYSH   HiryuNoKen2_key+0
HiryuNoKen2_3_B1:
// 000   ----------------------------------------
	BYTE		VOICE   30
	BYTE		VOL     47*HiryuNoKen2_mvl/mxv
	BYTE		PAN     c_v-20
	BYTE		N04     Dn1   v120
	BYTE	W06
	BYTE		N16   
	BYTE	W18
	BYTE		N09     Dn2 
	BYTE	W12
	BYTE		N03     Dn1 
	BYTE	W06
	BYTE		N10   
	BYTE	W12
	BYTE		N16     An0 
	BYTE	W18
	BYTE		N09     Cn1 
	BYTE	W12
	BYTE		N10     Cs1 
	BYTE	W12
// 001   ----------------------------------------
HiryuNoKen2_3_001:
	BYTE		N04     Dn1   v120
	BYTE	W06
	BYTE		N16   
	BYTE	W18
	BYTE		N09     Dn2 
	BYTE	W12
	BYTE		N03     Dn1 
	BYTE	W06
	BYTE		N10   
	BYTE	W12
	BYTE		N16     An0 
	BYTE	W18
	BYTE		N09     Cn1 
	BYTE	W12
	BYTE		N10     Cs1 
	BYTE	W12
	BYTE	PEND
// 002   ----------------------------------------
	BYTE	PATT
	 POIN2	HiryuNoKen2_3_001
// 003   ----------------------------------------
	BYTE	PATT
	 POIN2	HiryuNoKen2_3_001
// 004   ----------------------------------------
	BYTE	PATT
	 POIN2	HiryuNoKen2_3_001
// 005   ----------------------------------------
	BYTE	PATT
	 POIN2	HiryuNoKen2_3_001
// 006   ----------------------------------------
	BYTE	PATT
	 POIN2	HiryuNoKen2_3_001
// 007   ----------------------------------------
	BYTE	PATT
	 POIN2	HiryuNoKen2_3_001
// 008   ----------------------------------------
	BYTE	PATT
	 POIN2	HiryuNoKen2_3_001
// 009   ----------------------------------------
HiryuNoKen2_3_009:
	BYTE		N04     Dn1   v120
	BYTE	W06
	BYTE		N16   
	BYTE	W18
	BYTE		N09   
	BYTE	W12
	BYTE		N03   
	BYTE	W06
	BYTE		N10   
	BYTE	W12
	BYTE		N16   
	BYTE	W18
	BYTE		N09     Fn1 
	BYTE	W12
	BYTE		N10     Fs1 
	BYTE	W12
	BYTE	PEND
// 010   ----------------------------------------
HiryuNoKen2_3_010:
	BYTE		N04     Gn1   v120
	BYTE	W06
	BYTE		N16   
	BYTE	W18
	BYTE		N09     Gn2 
	BYTE	W12
	BYTE		N03     Gn1 
	BYTE	W06
	BYTE		N10   
	BYTE	W12
	BYTE		N16     Dn1 
	BYTE	W18
	BYTE		N09     Fn1 
	BYTE	W12
	BYTE		N10     Fs1 
	BYTE	W12
	BYTE	PEND
// 011   ----------------------------------------
	BYTE	PATT
	 POIN2	HiryuNoKen2_3_010
// 012   ----------------------------------------
	BYTE	PATT
	 POIN2	HiryuNoKen2_3_001
// 013   ----------------------------------------
	BYTE	PATT
	 POIN2	HiryuNoKen2_3_009
// 014   ----------------------------------------
	BYTE	PATT
	 POIN2	HiryuNoKen2_3_010
// 015   ----------------------------------------
	BYTE	PATT
	 POIN2	HiryuNoKen2_3_010
// 016   ----------------------------------------
	BYTE	PATT
	 POIN2	HiryuNoKen2_3_001
// 017   ----------------------------------------
HiryuNoKen2_3_017:
	BYTE		N04     Dn1   v120
	BYTE	W06
	BYTE		N16   
	BYTE	W18
	BYTE		N09   
	BYTE	W12
	BYTE		N03   
	BYTE	W06
	BYTE		N10   
	BYTE	W12
	BYTE		N16   
	BYTE	W18
	BYTE		N09   
	BYTE	W12
	BYTE		N10   
	BYTE	W12
	BYTE	PEND
// 018   ----------------------------------------
HiryuNoKen2_3_018:
	BYTE		N24     Fn1   v120
	BYTE	W24
	BYTE		        En1 
	BYTE	W24
	BYTE		        Cn1 
	BYTE	W24
	BYTE		        An0 
	BYTE	W24
	BYTE	PEND
// 019   ----------------------------------------
HiryuNoKen2_3_019:
	BYTE		N17     Bn0   v120
	BYTE	W18
	BYTE		N06     An0 
	BYTE	W18
	BYTE		N36     Gn0 
	BYTE	W60
	BYTE	PEND
// 020   ----------------------------------------
HiryuNoKen2_3_020:
	BYTE		N48     As0   v120
	BYTE	W60
	BYTE		N03   
	BYTE	W06
	BYTE		        An0 
	BYTE	W06
	BYTE		        Gn0 
	BYTE	W06
	BYTE		        As0 
	BYTE	W06
	BYTE		        Dn1 
	BYTE	W06
	BYTE		        An1 
	BYTE	W06
	BYTE	PEND
// 021   ----------------------------------------
HiryuNoKen2_3_021:
	BYTE		N48     Gn1   v120
	BYTE	W60
	BYTE		N03   
	BYTE	W06
	BYTE		        Fn1 
	BYTE	W06
	BYTE		        En1 
	BYTE	W06
	BYTE		        Gn1 
	BYTE	W06
	BYTE		        Cn2 
	BYTE	W06
	BYTE		        En2 
	BYTE	W06
	BYTE	PEND
// 022   ----------------------------------------
HiryuNoKen2_3_022:
	BYTE		N05     Fn1   v120
	BYTE	W06
	BYTE		N05   
	BYTE	W06
	BYTE		N05   
	BYTE	W06
	BYTE		N05   
	BYTE	W12
	BYTE		N05   
	BYTE	W12
	BYTE		N05   
	BYTE	W06
	BYTE		        En1 
	BYTE	W12
	BYTE		N05   
	BYTE	W12
	BYTE		N05   
	BYTE	W06
	BYTE		        Cn1 
	BYTE	W06
	BYTE		        An1 
	BYTE	W06
	BYTE		        Fn1 
	BYTE	W06
	BYTE	PEND
// 023   ----------------------------------------
	BYTE	PATT
	 POIN2	HiryuNoKen2_3_001
// 024   ----------------------------------------
	BYTE	PATT
	 POIN2	HiryuNoKen2_3_001
// 025   ----------------------------------------
	BYTE	PATT
	 POIN2	HiryuNoKen2_3_001
// 026   ----------------------------------------
	BYTE	PATT
	 POIN2	HiryuNoKen2_3_001
// 027   ----------------------------------------
	BYTE	PATT
	 POIN2	HiryuNoKen2_3_001
// 028   ----------------------------------------
	BYTE	PATT
	 POIN2	HiryuNoKen2_3_001
// 029   ----------------------------------------
	BYTE	PATT
	 POIN2	HiryuNoKen2_3_001
// 030   ----------------------------------------
	BYTE	PATT
	 POIN2	HiryuNoKen2_3_001
// 031   ----------------------------------------
	BYTE	PATT
	 POIN2	HiryuNoKen2_3_001
// 032   ----------------------------------------
	BYTE	PATT
	 POIN2	HiryuNoKen2_3_009
// 033   ----------------------------------------
	BYTE	PATT
	 POIN2	HiryuNoKen2_3_010
// 034   ----------------------------------------
	BYTE	PATT
	 POIN2	HiryuNoKen2_3_010
// 035   ----------------------------------------
	BYTE	PATT
	 POIN2	HiryuNoKen2_3_001
// 036   ----------------------------------------
	BYTE	PATT
	 POIN2	HiryuNoKen2_3_009
// 037   ----------------------------------------
	BYTE	PATT
	 POIN2	HiryuNoKen2_3_010
// 038   ----------------------------------------
	BYTE	PATT
	 POIN2	HiryuNoKen2_3_010
// 039   ----------------------------------------
	BYTE	PATT
	 POIN2	HiryuNoKen2_3_001
// 040   ----------------------------------------
	BYTE	PATT
	 POIN2	HiryuNoKen2_3_017
// 041   ----------------------------------------
	BYTE	PATT
	 POIN2	HiryuNoKen2_3_018
// 042   ----------------------------------------
	BYTE	PATT
	 POIN2	HiryuNoKen2_3_019
// 043   ----------------------------------------
	BYTE	PATT
	 POIN2	HiryuNoKen2_3_020
// 044   ----------------------------------------
	BYTE	PATT
	 POIN2	HiryuNoKen2_3_021
// 045   ----------------------------------------
	BYTE	PATT
	 POIN2	HiryuNoKen2_3_022
// 046   ----------------------------------------
	BYTE	PATT
	 POIN2	HiryuNoKen2_3_001
// 047   ----------------------------------------
	BYTE	PATT
	 POIN2	HiryuNoKen2_3_001
// 048   ----------------------------------------
	BYTE	PATT
	 POIN2	HiryuNoKen2_3_001
// 049   ----------------------------------------
	BYTE	PATT
	 POIN2	HiryuNoKen2_3_001
// 050   ----------------------------------------
	BYTE	PATT
	 POIN2	HiryuNoKen2_3_001
// 051   ----------------------------------------
	BYTE	PATT
	 POIN2	HiryuNoKen2_3_001
// 052   ----------------------------------------
	BYTE	PATT
	 POIN2	HiryuNoKen2_3_001
// 053   ----------------------------------------
	BYTE	PATT
	 POIN2	HiryuNoKen2_3_001
// 054   ----------------------------------------
	BYTE	PATT
	 POIN2	HiryuNoKen2_3_001
// 055   ----------------------------------------
	BYTE	PATT
	 POIN2	HiryuNoKen2_3_009
// 056   ----------------------------------------
	BYTE	PATT
	 POIN2	HiryuNoKen2_3_010
// 057   ----------------------------------------
	BYTE	PATT
	 POIN2	HiryuNoKen2_3_010
// 058   ----------------------------------------
	BYTE	PATT
	 POIN2	HiryuNoKen2_3_001
// 059   ----------------------------------------
	BYTE	PATT
	 POIN2	HiryuNoKen2_3_009
// 060   ----------------------------------------
	BYTE	PATT
	 POIN2	HiryuNoKen2_3_010
// 061   ----------------------------------------
	BYTE	PATT
	 POIN2	HiryuNoKen2_3_010
// 062   ----------------------------------------
	BYTE	PATT
	 POIN2	HiryuNoKen2_3_001
// 063   ----------------------------------------
	BYTE	PATT
	 POIN2	HiryuNoKen2_3_017
// 064   ----------------------------------------
	BYTE	PATT
	 POIN2	HiryuNoKen2_3_018
// 065   ----------------------------------------
	BYTE	PATT
	 POIN2	HiryuNoKen2_3_019
// 066   ----------------------------------------
	BYTE	PATT
	 POIN2	HiryuNoKen2_3_020
// 067   ----------------------------------------
	BYTE	PATT
	 POIN2	HiryuNoKen2_3_021
// 068   ----------------------------------------
	BYTE	PATT
	 POIN2	HiryuNoKen2_3_022
// 069   ----------------------------------------
	BYTE	PATT
	 POIN2	HiryuNoKen2_3_001
// 070   ----------------------------------------
	BYTE	PATT
	 POIN2	HiryuNoKen2_3_001
// 071   ----------------------------------------
	BYTE	PATT
	 POIN2	HiryuNoKen2_3_001
// 072   ----------------------------------------
	BYTE	PATT
	 POIN2	HiryuNoKen2_3_001
// 073   ----------------------------------------
	BYTE	PATT
	 POIN2	HiryuNoKen2_3_001
// 074   ----------------------------------------
	BYTE	PATT
	 POIN2	HiryuNoKen2_3_001
// 075   ----------------------------------------
	BYTE	PATT
	 POIN2	HiryuNoKen2_3_001
// 076   ----------------------------------------
	BYTE	PATT
	 POIN2	HiryuNoKen2_3_001
// 077   ----------------------------------------
	BYTE	PATT
	 POIN2	HiryuNoKen2_3_001
// 078   ----------------------------------------
	BYTE	PATT
	 POIN2	HiryuNoKen2_3_009
// 079   ----------------------------------------
	BYTE	PATT
	 POIN2	HiryuNoKen2_3_010
// 080   ----------------------------------------
	BYTE	PATT
	 POIN2	HiryuNoKen2_3_010
// 081   ----------------------------------------
	BYTE	PATT
	 POIN2	HiryuNoKen2_3_001
// 082   ----------------------------------------
	BYTE	PATT
	 POIN2	HiryuNoKen2_3_009
// 083   ----------------------------------------
	BYTE	PATT
	 POIN2	HiryuNoKen2_3_010
// 084   ----------------------------------------
	BYTE	PATT
	 POIN2	HiryuNoKen2_3_010
// 085   ----------------------------------------
	BYTE	PATT
	 POIN2	HiryuNoKen2_3_001
// 086   ----------------------------------------
	BYTE	PATT
	 POIN2	HiryuNoKen2_3_017
// 087   ----------------------------------------
	BYTE	PATT
	 POIN2	HiryuNoKen2_3_018
// 088   ----------------------------------------
	BYTE	PATT
	 POIN2	HiryuNoKen2_3_019
// 089   ----------------------------------------
	BYTE	PATT
	 POIN2	HiryuNoKen2_3_020
// 090   ----------------------------------------
	BYTE	PATT
	 POIN2	HiryuNoKen2_3_021
// 091   ----------------------------------------
	BYTE		N05     Fn1   v120
	BYTE	W06
	BYTE		N05   
	BYTE	W06
	BYTE		N05   
	BYTE	W06
	BYTE		N05   
	BYTE	W12
	BYTE		N05   
	BYTE	W12
	BYTE		N05   
	BYTE	W06
	BYTE		        En1 
	BYTE	W12
	BYTE		N05   
	BYTE	W12
	BYTE		N05   
	BYTE	W06
	BYTE		        Cn1 
	BYTE	W06
	BYTE		        An1 
	BYTE	W06
	BYTE		        Fn1 
	BYTE	W05
	BYTE	GoTo
	 POIN2	HiryuNoKen2_3_B1
HiryuNoKen2_3_B2:
	BYTE	FINE

//**************** Track 4 (Midi-Chn.4) ****************//

HiryuNoKen2_4:
	BYTE	KEYSH   HiryuNoKen2_key+0
HiryuNoKen2_4_B1:
// 000   ----------------------------------------
	BYTE		VOICE   30
	BYTE		VOL     47*HiryuNoKen2_mvl/mxv
	BYTE		PAN     c_v+20
	BYTE		N04     Dn1   v120
	BYTE	W06
	BYTE		N16   
	BYTE	W18
	BYTE		N09     Dn2 
	BYTE	W12
	BYTE		N03     Dn1 
	BYTE	W06
	BYTE		N10   
	BYTE	W12
	BYTE		N16     An0 
	BYTE	W18
	BYTE		N09     Cn1 
	BYTE	W12
	BYTE		N10     Cs1 
	BYTE	W12
// 001   ----------------------------------------
HiryuNoKen2_4_001:
	BYTE		N04     Dn1   v120
	BYTE	W06
	BYTE		N16   
	BYTE	W18
	BYTE		N09     Dn2 
	BYTE	W12
	BYTE		N03     Dn1 
	BYTE	W06
	BYTE		N10   
	BYTE	W12
	BYTE		N16     An0 
	BYTE	W18
	BYTE		N09     Cn1 
	BYTE	W12
	BYTE		N10     Cs1 
	BYTE	W12
	BYTE	PEND
// 002   ----------------------------------------
	BYTE	PATT
	 POIN2	HiryuNoKen2_4_001
// 003   ----------------------------------------
	BYTE	PATT
	 POIN2	HiryuNoKen2_4_001
// 004   ----------------------------------------
	BYTE	PATT
	 POIN2	HiryuNoKen2_4_001
// 005   ----------------------------------------
	BYTE	PATT
	 POIN2	HiryuNoKen2_4_001
// 006   ----------------------------------------
	BYTE	PATT
	 POIN2	HiryuNoKen2_4_001
// 007   ----------------------------------------
	BYTE	PATT
	 POIN2	HiryuNoKen2_4_001
// 008   ----------------------------------------
	BYTE	PATT
	 POIN2	HiryuNoKen2_4_001
// 009   ----------------------------------------
HiryuNoKen2_4_009:
	BYTE		N04     Dn1   v120
	BYTE	W06
	BYTE		N16   
	BYTE	W18
	BYTE		N09   
	BYTE	W12
	BYTE		N03   
	BYTE	W06
	BYTE		N10   
	BYTE	W12
	BYTE		N16   
	BYTE	W18
	BYTE		N09     Fn1 
	BYTE	W12
	BYTE		N10     Fs1 
	BYTE	W12
	BYTE	PEND
// 010   ----------------------------------------
HiryuNoKen2_4_010:
	BYTE		N04     Gn1   v120
	BYTE	W06
	BYTE		N16   
	BYTE	W18
	BYTE		N09     Gn2 
	BYTE	W12
	BYTE		N03     Gn1 
	BYTE	W06
	BYTE		N10   
	BYTE	W12
	BYTE		N16     Dn1 
	BYTE	W18
	BYTE		N09     Fn1 
	BYTE	W12
	BYTE		N10     Fs1 
	BYTE	W12
	BYTE	PEND
// 011   ----------------------------------------
	BYTE	PATT
	 POIN2	HiryuNoKen2_4_010
// 012   ----------------------------------------
	BYTE	PATT
	 POIN2	HiryuNoKen2_4_001
// 013   ----------------------------------------
	BYTE	PATT
	 POIN2	HiryuNoKen2_4_009
// 014   ----------------------------------------
	BYTE	PATT
	 POIN2	HiryuNoKen2_4_010
// 015   ----------------------------------------
	BYTE	PATT
	 POIN2	HiryuNoKen2_4_010
// 016   ----------------------------------------
	BYTE	PATT
	 POIN2	HiryuNoKen2_4_001
// 017   ----------------------------------------
HiryuNoKen2_4_017:
	BYTE		N04     Dn1   v120
	BYTE	W06
	BYTE		N16   
	BYTE	W18
	BYTE		N09   
	BYTE	W12
	BYTE		N03   
	BYTE	W06
	BYTE		N10   
	BYTE	W12
	BYTE		N16   
	BYTE	W18
	BYTE		N09   
	BYTE	W12
	BYTE		N10   
	BYTE	W12
	BYTE	PEND
// 018   ----------------------------------------
HiryuNoKen2_4_018:
	BYTE		N24     Fn1   v120
	BYTE	W24
	BYTE		        En1 
	BYTE	W24
	BYTE		        Cn1 
	BYTE	W24
	BYTE		        An0 
	BYTE	W24
	BYTE	PEND
// 019   ----------------------------------------
HiryuNoKen2_4_019:
	BYTE		N17     Bn0   v120
	BYTE	W18
	BYTE		N06     An0 
	BYTE	W18
	BYTE		N36     Gn0 
	BYTE	W60
	BYTE	PEND
// 020   ----------------------------------------
HiryuNoKen2_4_020:
	BYTE		N48     As0   v120
	BYTE	W60
	BYTE		N03   
	BYTE	W06
	BYTE		        An0 
	BYTE	W06
	BYTE		        Gn0 
	BYTE	W06
	BYTE		        As0 
	BYTE	W06
	BYTE		        Dn1 
	BYTE	W06
	BYTE		        An1 
	BYTE	W06
	BYTE	PEND
// 021   ----------------------------------------
HiryuNoKen2_4_021:
	BYTE		N48     Gn1   v120
	BYTE	W60
	BYTE		N03   
	BYTE	W06
	BYTE		        Fn1 
	BYTE	W06
	BYTE		        En1 
	BYTE	W06
	BYTE		        Gn1 
	BYTE	W06
	BYTE		        Cn2 
	BYTE	W06
	BYTE		        En2 
	BYTE	W06
	BYTE	PEND
// 022   ----------------------------------------
HiryuNoKen2_4_022:
	BYTE		N05     Fn1   v120
	BYTE	W06
	BYTE		N05   
	BYTE	W06
	BYTE		N05   
	BYTE	W06
	BYTE		N05   
	BYTE	W12
	BYTE		N05   
	BYTE	W12
	BYTE		N05   
	BYTE	W06
	BYTE		        En1 
	BYTE	W12
	BYTE		N05   
	BYTE	W12
	BYTE		N05   
	BYTE	W06
	BYTE		        Cn1 
	BYTE	W06
	BYTE		        An1 
	BYTE	W06
	BYTE		        Fn1 
	BYTE	W06
	BYTE	PEND
// 023   ----------------------------------------
	BYTE	PATT
	 POIN2	HiryuNoKen2_4_001
// 024   ----------------------------------------
	BYTE	PATT
	 POIN2	HiryuNoKen2_4_001
// 025   ----------------------------------------
	BYTE	PATT
	 POIN2	HiryuNoKen2_4_001
// 026   ----------------------------------------
	BYTE	PATT
	 POIN2	HiryuNoKen2_4_001
// 027   ----------------------------------------
	BYTE	PATT
	 POIN2	HiryuNoKen2_4_001
// 028   ----------------------------------------
	BYTE	PATT
	 POIN2	HiryuNoKen2_4_001
// 029   ----------------------------------------
	BYTE	PATT
	 POIN2	HiryuNoKen2_4_001
// 030   ----------------------------------------
	BYTE	PATT
	 POIN2	HiryuNoKen2_4_001
// 031   ----------------------------------------
	BYTE	PATT
	 POIN2	HiryuNoKen2_4_001
// 032   ----------------------------------------
	BYTE	PATT
	 POIN2	HiryuNoKen2_4_009
// 033   ----------------------------------------
	BYTE	PATT
	 POIN2	HiryuNoKen2_4_010
// 034   ----------------------------------------
	BYTE	PATT
	 POIN2	HiryuNoKen2_4_010
// 035   ----------------------------------------
	BYTE	PATT
	 POIN2	HiryuNoKen2_4_001
// 036   ----------------------------------------
	BYTE	PATT
	 POIN2	HiryuNoKen2_4_009
// 037   ----------------------------------------
	BYTE	PATT
	 POIN2	HiryuNoKen2_4_010
// 038   ----------------------------------------
	BYTE	PATT
	 POIN2	HiryuNoKen2_4_010
// 039   ----------------------------------------
	BYTE	PATT
	 POIN2	HiryuNoKen2_4_001
// 040   ----------------------------------------
	BYTE	PATT
	 POIN2	HiryuNoKen2_4_017
// 041   ----------------------------------------
	BYTE	PATT
	 POIN2	HiryuNoKen2_4_018
// 042   ----------------------------------------
	BYTE	PATT
	 POIN2	HiryuNoKen2_4_019
// 043   ----------------------------------------
	BYTE	PATT
	 POIN2	HiryuNoKen2_4_020
// 044   ----------------------------------------
	BYTE	PATT
	 POIN2	HiryuNoKen2_4_021
// 045   ----------------------------------------
	BYTE	PATT
	 POIN2	HiryuNoKen2_4_022
// 046   ----------------------------------------
	BYTE	PATT
	 POIN2	HiryuNoKen2_4_001
// 047   ----------------------------------------
	BYTE	PATT
	 POIN2	HiryuNoKen2_4_001
// 048   ----------------------------------------
	BYTE	PATT
	 POIN2	HiryuNoKen2_4_001
// 049   ----------------------------------------
	BYTE	PATT
	 POIN2	HiryuNoKen2_4_001
// 050   ----------------------------------------
	BYTE	PATT
	 POIN2	HiryuNoKen2_4_001
// 051   ----------------------------------------
	BYTE	PATT
	 POIN2	HiryuNoKen2_4_001
// 052   ----------------------------------------
	BYTE	PATT
	 POIN2	HiryuNoKen2_4_001
// 053   ----------------------------------------
	BYTE	PATT
	 POIN2	HiryuNoKen2_4_001
// 054   ----------------------------------------
	BYTE	PATT
	 POIN2	HiryuNoKen2_4_001
// 055   ----------------------------------------
	BYTE	PATT
	 POIN2	HiryuNoKen2_4_009
// 056   ----------------------------------------
	BYTE	PATT
	 POIN2	HiryuNoKen2_4_010
// 057   ----------------------------------------
	BYTE	PATT
	 POIN2	HiryuNoKen2_4_010
// 058   ----------------------------------------
	BYTE	PATT
	 POIN2	HiryuNoKen2_4_001
// 059   ----------------------------------------
	BYTE	PATT
	 POIN2	HiryuNoKen2_4_009
// 060   ----------------------------------------
	BYTE	PATT
	 POIN2	HiryuNoKen2_4_010
// 061   ----------------------------------------
	BYTE	PATT
	 POIN2	HiryuNoKen2_4_010
// 062   ----------------------------------------
	BYTE	PATT
	 POIN2	HiryuNoKen2_4_001
// 063   ----------------------------------------
	BYTE	PATT
	 POIN2	HiryuNoKen2_4_017
// 064   ----------------------------------------
	BYTE	PATT
	 POIN2	HiryuNoKen2_4_018
// 065   ----------------------------------------
	BYTE	PATT
	 POIN2	HiryuNoKen2_4_019
// 066   ----------------------------------------
	BYTE	PATT
	 POIN2	HiryuNoKen2_4_020
// 067   ----------------------------------------
	BYTE	PATT
	 POIN2	HiryuNoKen2_4_021
// 068   ----------------------------------------
	BYTE	PATT
	 POIN2	HiryuNoKen2_4_022
// 069   ----------------------------------------
	BYTE	PATT
	 POIN2	HiryuNoKen2_4_001
// 070   ----------------------------------------
	BYTE	PATT
	 POIN2	HiryuNoKen2_4_001
// 071   ----------------------------------------
	BYTE	PATT
	 POIN2	HiryuNoKen2_4_001
// 072   ----------------------------------------
	BYTE	PATT
	 POIN2	HiryuNoKen2_4_001
// 073   ----------------------------------------
	BYTE	PATT
	 POIN2	HiryuNoKen2_4_001
// 074   ----------------------------------------
	BYTE	PATT
	 POIN2	HiryuNoKen2_4_001
// 075   ----------------------------------------
	BYTE	PATT
	 POIN2	HiryuNoKen2_4_001
// 076   ----------------------------------------
	BYTE	PATT
	 POIN2	HiryuNoKen2_4_001
// 077   ----------------------------------------
	BYTE	PATT
	 POIN2	HiryuNoKen2_4_001
// 078   ----------------------------------------
	BYTE	PATT
	 POIN2	HiryuNoKen2_4_009
// 079   ----------------------------------------
	BYTE	PATT
	 POIN2	HiryuNoKen2_4_010
// 080   ----------------------------------------
	BYTE	PATT
	 POIN2	HiryuNoKen2_4_010
// 081   ----------------------------------------
	BYTE	PATT
	 POIN2	HiryuNoKen2_4_001
// 082   ----------------------------------------
	BYTE	PATT
	 POIN2	HiryuNoKen2_4_009
// 083   ----------------------------------------
	BYTE	PATT
	 POIN2	HiryuNoKen2_4_010
// 084   ----------------------------------------
	BYTE	PATT
	 POIN2	HiryuNoKen2_4_010
// 085   ----------------------------------------
	BYTE	PATT
	 POIN2	HiryuNoKen2_4_001
// 086   ----------------------------------------
	BYTE	PATT
	 POIN2	HiryuNoKen2_4_017
// 087   ----------------------------------------
	BYTE	PATT
	 POIN2	HiryuNoKen2_4_018
// 088   ----------------------------------------
	BYTE	PATT
	 POIN2	HiryuNoKen2_4_019
// 089   ----------------------------------------
	BYTE	PATT
	 POIN2	HiryuNoKen2_4_020
// 090   ----------------------------------------
	BYTE	PATT
	 POIN2	HiryuNoKen2_4_021
// 091   ----------------------------------------
	BYTE		N05     Fn1   v120
	BYTE	W06
	BYTE		N05   
	BYTE	W06
	BYTE		N05   
	BYTE	W06
	BYTE		N05   
	BYTE	W12
	BYTE		N05   
	BYTE	W12
	BYTE		N05   
	BYTE	W06
	BYTE		        En1 
	BYTE	W12
	BYTE		N05   
	BYTE	W12
	BYTE		N05   
	BYTE	W06
	BYTE		        Cn1 
	BYTE	W06
	BYTE		        An1 
	BYTE	W06
	BYTE		        Fn1 
	BYTE	W05
	BYTE	GoTo
	 POIN2	HiryuNoKen2_4_B1
HiryuNoKen2_4_B2:
	BYTE	FINE

//**************** Track 5 (Midi-Chn.5) ****************//

HiryuNoKen2_5:
	BYTE	KEYSH   HiryuNoKen2_key+0
HiryuNoKen2_5_B1:
// 000   ----------------------------------------
	BYTE		VOICE   1
	BYTE		VOL     52*HiryuNoKen2_mvl/mxv
	BYTE		PAN     c_v+0
	BYTE	W96
// 001   ----------------------------------------
	BYTE	W96
// 002   ----------------------------------------
	BYTE	W96
// 003   ----------------------------------------
	BYTE	W96
// 004   ----------------------------------------
HiryuNoKen2_5_004:
	BYTE	W54
	BYTE		N04     En3   v120
	BYTE		N04     An3 
	BYTE	W06
	BYTE		N04   
	BYTE		N04     Dn4 
	BYTE	W06
	BYTE		N04   
	BYTE		N04     Fn4 
	BYTE	W06
	BYTE		N05     En4 
	BYTE		N05     Gn4 
	BYTE	W06
	BYTE		N04     Fn4 
	BYTE		N04     Gs4 
	BYTE	W06
	BYTE		        An4 
	BYTE		N04     Cn5 
	BYTE	W06
	BYTE		N05     An4 
	BYTE		N05     Dn5 
	BYTE	W06
	BYTE	PEND
// 005   ----------------------------------------
HiryuNoKen2_5_005:
	BYTE		N04     Cn5   v120
	BYTE		N04     Fn5 
	BYTE	W06
	BYTE		        An4 
	BYTE		N04     Dn5 
	BYTE	W06
	BYTE		N04   
	BYTE		N04     Gn5 
	BYTE	W06
	BYTE		N05     An4 
	BYTE		N05     Dn5 
	BYTE	W06
	BYTE		N04   
	BYTE		N04     Gs5 
	BYTE	W06
	BYTE		        An4 
	BYTE		N04     Dn5 
	BYTE	W06
	BYTE		N04   
	BYTE		N04     Gn5 
	BYTE	W06
	BYTE		N05     An4 
	BYTE		N05     Dn5 
	BYTE	W06
	BYTE		N04     Cn5 
	BYTE		N10     Fn5 
	BYTE	W06
	BYTE		N04     Cn5 
	BYTE	W06
	BYTE		        Dn5 
	BYTE		N04     Gn5 
	BYTE	W06
	BYTE		N16     An4 
	BYTE		N16     Dn5 
	BYTE	W30
	BYTE	PEND
// 006   ----------------------------------------
	BYTE	W96
// 007   ----------------------------------------
	BYTE	W96
// 008   ----------------------------------------
	BYTE	PATT
	 POIN2	HiryuNoKen2_5_004
// 009   ----------------------------------------
	BYTE	PATT
	 POIN2	HiryuNoKen2_5_005
// 010   ----------------------------------------
	BYTE	W96
// 011   ----------------------------------------
	BYTE	W96
// 012   ----------------------------------------
	BYTE	W96
// 013   ----------------------------------------
HiryuNoKen2_5_013:
	BYTE	W12
	BYTE		N04     An4   v120
	BYTE		N04     Dn5 
	BYTE	W06
	BYTE		        An4 
	BYTE		N05     Dn5 
	BYTE	W06
	BYTE		N09     An4 
	BYTE		N10     Dn5 
	BYTE	W12
	BYTE		N05     Gn4 
	BYTE		N05     Cn5 
	BYTE	W06
	BYTE		        En4 
	BYTE		N05     An4 
	BYTE	W06
	BYTE		        Gn4 
	BYTE		N05     Cn5 
	BYTE	W06
	BYTE		        En4 
	BYTE		N05     An4 
	BYTE	W06
	BYTE		        En4 
	BYTE		N05     An4 
	BYTE	W06
	BYTE		        Dn4 
	BYTE		N05     Gn4 
	BYTE	W06
	BYTE		N11     En4 
	BYTE		N11     An4 
	BYTE	W24
	BYTE	PEND
// 014   ----------------------------------------
	BYTE	W96
// 015   ----------------------------------------
	BYTE	W96
// 016   ----------------------------------------
	BYTE	W96
// 017   ----------------------------------------
	BYTE	W96
// 018   ----------------------------------------
HiryuNoKen2_5_018:
	BYTE		N24     An4   v120
	BYTE		N24     Dn5 
	BYTE	W24
	BYTE		        Gn4 
	BYTE		N24     Cn5 
	BYTE	W24
	BYTE		        En4 
	BYTE		N24     An4 
	BYTE	W24
	BYTE		        Cn4 
	BYTE		N24     Fn4 
	BYTE	W24
	BYTE	PEND
// 019   ----------------------------------------
HiryuNoKen2_5_019:
	BYTE		N17     Dn4   v120
	BYTE		N17     Gn4 
	BYTE	W18
	BYTE		N06     Cn4 
	BYTE		N06     Fn4 
	BYTE	W18
	BYTE		N28     Bn3 
	BYTE		N28     Dn4 
	BYTE	W60
	BYTE	PEND
// 020   ----------------------------------------
HiryuNoKen2_5_020:
	BYTE		N52     Gn2   v120
	BYTE	W54
	BYTE		N06   
	BYTE	W06
	BYTE		N11     Dn3 
	BYTE	W12
	BYTE		        Gn2 
	BYTE	W12
	BYTE		N11   
	BYTE	W12
	BYTE	PEND
// 021   ----------------------------------------
HiryuNoKen2_5_021:
	BYTE		N52     An2   v120
	BYTE	W54
	BYTE		N06   
	BYTE	W06
	BYTE		N11     En3 
	BYTE	W12
	BYTE		        An2 
	BYTE	W12
	BYTE		N11   
	BYTE	W12
	BYTE	PEND
// 022   ----------------------------------------
HiryuNoKen2_5_022:
	BYTE		N48     As2   v120
	BYTE	W48
	BYTE		N36     Cn3 
	BYTE	W36
	BYTE		N12     Dn3 
	BYTE	W12
	BYTE	PEND
// 023   ----------------------------------------
	BYTE	W96
// 024   ----------------------------------------
	BYTE	W96
// 025   ----------------------------------------
	BYTE	W96
// 026   ----------------------------------------
	BYTE	W96
// 027   ----------------------------------------
	BYTE	PATT
	 POIN2	HiryuNoKen2_5_004
// 028   ----------------------------------------
	BYTE	PATT
	 POIN2	HiryuNoKen2_5_005
// 029   ----------------------------------------
	BYTE	W96
// 030   ----------------------------------------
	BYTE	W96
// 031   ----------------------------------------
	BYTE	PATT
	 POIN2	HiryuNoKen2_5_004
// 032   ----------------------------------------
	BYTE	PATT
	 POIN2	HiryuNoKen2_5_005
// 033   ----------------------------------------
	BYTE	W96
// 034   ----------------------------------------
	BYTE	W96
// 035   ----------------------------------------
	BYTE	W96
// 036   ----------------------------------------
	BYTE	PATT
	 POIN2	HiryuNoKen2_5_013
// 037   ----------------------------------------
	BYTE	W96
// 038   ----------------------------------------
	BYTE	W96
// 039   ----------------------------------------
	BYTE	W96
// 040   ----------------------------------------
	BYTE	W96
// 041   ----------------------------------------
	BYTE	PATT
	 POIN2	HiryuNoKen2_5_018
// 042   ----------------------------------------
	BYTE	PATT
	 POIN2	HiryuNoKen2_5_019
// 043   ----------------------------------------
	BYTE	PATT
	 POIN2	HiryuNoKen2_5_020
// 044   ----------------------------------------
	BYTE	PATT
	 POIN2	HiryuNoKen2_5_021
// 045   ----------------------------------------
	BYTE	PATT
	 POIN2	HiryuNoKen2_5_022
// 046   ----------------------------------------
	BYTE	W96
// 047   ----------------------------------------
	BYTE	W96
// 048   ----------------------------------------
	BYTE	W96
// 049   ----------------------------------------
	BYTE	W96
// 050   ----------------------------------------
	BYTE	PATT
	 POIN2	HiryuNoKen2_5_004
// 051   ----------------------------------------
	BYTE	PATT
	 POIN2	HiryuNoKen2_5_005
// 052   ----------------------------------------
	BYTE	W96
// 053   ----------------------------------------
	BYTE	W96
// 054   ----------------------------------------
	BYTE	PATT
	 POIN2	HiryuNoKen2_5_004
// 055   ----------------------------------------
	BYTE	PATT
	 POIN2	HiryuNoKen2_5_005
// 056   ----------------------------------------
	BYTE	W96
// 057   ----------------------------------------
	BYTE	W96
// 058   ----------------------------------------
	BYTE	W96
// 059   ----------------------------------------
	BYTE	PATT
	 POIN2	HiryuNoKen2_5_013
// 060   ----------------------------------------
	BYTE	W96
// 061   ----------------------------------------
	BYTE	W96
// 062   ----------------------------------------
	BYTE	W96
// 063   ----------------------------------------
	BYTE	W96
// 064   ----------------------------------------
	BYTE	PATT
	 POIN2	HiryuNoKen2_5_018
// 065   ----------------------------------------
	BYTE	PATT
	 POIN2	HiryuNoKen2_5_019
// 066   ----------------------------------------
	BYTE	PATT
	 POIN2	HiryuNoKen2_5_020
// 067   ----------------------------------------
	BYTE	PATT
	 POIN2	HiryuNoKen2_5_021
// 068   ----------------------------------------
	BYTE	PATT
	 POIN2	HiryuNoKen2_5_022
// 069   ----------------------------------------
	BYTE	W96
// 070   ----------------------------------------
	BYTE	W96
// 071   ----------------------------------------
	BYTE	W96
// 072   ----------------------------------------
	BYTE	W96
// 073   ----------------------------------------
	BYTE	PATT
	 POIN2	HiryuNoKen2_5_004
// 074   ----------------------------------------
	BYTE	PATT
	 POIN2	HiryuNoKen2_5_005
// 075   ----------------------------------------
	BYTE	W96
// 076   ----------------------------------------
	BYTE	W96
// 077   ----------------------------------------
	BYTE	PATT
	 POIN2	HiryuNoKen2_5_004
// 078   ----------------------------------------
	BYTE	PATT
	 POIN2	HiryuNoKen2_5_005
// 079   ----------------------------------------
	BYTE	W96
// 080   ----------------------------------------
	BYTE	W96
// 081   ----------------------------------------
	BYTE	W96
// 082   ----------------------------------------
	BYTE	PATT
	 POIN2	HiryuNoKen2_5_013
// 083   ----------------------------------------
	BYTE	W96
// 084   ----------------------------------------
	BYTE	W96
// 085   ----------------------------------------
	BYTE	W96
// 086   ----------------------------------------
	BYTE	W96
// 087   ----------------------------------------
	BYTE	PATT
	 POIN2	HiryuNoKen2_5_018
// 088   ----------------------------------------
	BYTE	PATT
	 POIN2	HiryuNoKen2_5_019
// 089   ----------------------------------------
	BYTE	PATT
	 POIN2	HiryuNoKen2_5_020
// 090   ----------------------------------------
	BYTE	PATT
	 POIN2	HiryuNoKen2_5_021
// 091   ----------------------------------------
	BYTE		N48     As2   v120
	BYTE	W48
	BYTE		N36     Cn3 
	BYTE	W36
	BYTE		N11     Dn3 
	BYTE	W11
	BYTE	GoTo
	 POIN2	HiryuNoKen2_5_B1
HiryuNoKen2_5_B2:
	BYTE	FINE

//**************** Track 6 (Midi-Chn.6) ****************//

HiryuNoKen2_6:
	BYTE	KEYSH   HiryuNoKen2_key+0
HiryuNoKen2_6_B1:
// 000   ----------------------------------------
	BYTE		VOICE   1
	BYTE		VOL     32*HiryuNoKen2_mvl/mxv
	BYTE		PAN     c_v+0
	BYTE	W96
// 001   ----------------------------------------
	BYTE	W96
// 002   ----------------------------------------
	BYTE	W96
// 003   ----------------------------------------
	BYTE	W96
// 004   ----------------------------------------
HiryuNoKen2_6_004:
	BYTE	W66
	BYTE		N04     En3   v120
	BYTE		N04     An3 
	BYTE	W06
	BYTE		N04   
	BYTE		N04     Dn4 
	BYTE	W06
	BYTE		N04   
	BYTE		N04     Fn4 
	BYTE	W06
	BYTE		N05     En4 
	BYTE		N05     Gn4 
	BYTE	W06
	BYTE		N04     Fn4 
	BYTE		N04     Gs4 
	BYTE	W06
	BYTE	PEND
// 005   ----------------------------------------
HiryuNoKen2_6_005:
	BYTE		N04     An4   v120
	BYTE		N04     Cn5 
	BYTE	W06
	BYTE		N05     An4 
	BYTE		N05     Dn5 
	BYTE	W06
	BYTE		N04     Cn5 
	BYTE		N04     Fn5 
	BYTE	W06
	BYTE		        An4 
	BYTE		N04     Dn5 
	BYTE	W06
	BYTE		N04   
	BYTE		N04     Gn5 
	BYTE	W06
	BYTE		N05     An4 
	BYTE		N05     Dn5 
	BYTE	W06
	BYTE		N04   
	BYTE		N04     Gs5 
	BYTE	W06
	BYTE		        An4 
	BYTE		N04     Dn5 
	BYTE	W06
	BYTE		N04   
	BYTE		N04     Gn5 
	BYTE	W06
	BYTE		N05     An4 
	BYTE		N05     Dn5 
	BYTE	W06
	BYTE		N04     Cn5 
	BYTE		N10     Fn5 
	BYTE	W06
	BYTE		N04     Cn5 
	BYTE	W06
	BYTE		        Dn5 
	BYTE		N04     Gn5 
	BYTE	W06
	BYTE		N16     An4 
	BYTE		N16     Dn5 
	BYTE	W18
	BYTE	PEND
// 006   ----------------------------------------
	BYTE	W96
// 007   ----------------------------------------
	BYTE	W96
// 008   ----------------------------------------
	BYTE	PATT
	 POIN2	HiryuNoKen2_6_004
// 009   ----------------------------------------
	BYTE	PATT
	 POIN2	HiryuNoKen2_6_005
// 010   ----------------------------------------
	BYTE	W96
// 011   ----------------------------------------
	BYTE	W96
// 012   ----------------------------------------
	BYTE	W96
// 013   ----------------------------------------
HiryuNoKen2_6_013:
	BYTE	W23
	BYTE		N04     An4   v120
	BYTE		N04     Dn5 
	BYTE	W06
	BYTE		        An4 
	BYTE		N05     Dn5 
	BYTE	W06
	BYTE		N09     An4 
	BYTE		N10     Dn5 
	BYTE	W12
	BYTE		N05     Gn4 
	BYTE		N05     Cn5 
	BYTE	W06
	BYTE		        En4 
	BYTE		N05     An4 
	BYTE	W06
	BYTE		        Gn4 
	BYTE		N05     Cn5 
	BYTE	W06
	BYTE		        En4 
	BYTE		N05     An4 
	BYTE	W06
	BYTE		        En4 
	BYTE		N05     An4 
	BYTE	W06
	BYTE		        Dn4 
	BYTE		N05     Gn4 
	BYTE	W06
	BYTE		N11     En4 
	BYTE		N11     An4 
	BYTE	W13
	BYTE	PEND
// 014   ----------------------------------------
	BYTE	W96
// 015   ----------------------------------------
	BYTE	W96
// 016   ----------------------------------------
	BYTE	W96
// 017   ----------------------------------------
	BYTE	W96
// 018   ----------------------------------------
HiryuNoKen2_6_018:
	BYTE	W11
	BYTE		N24     An4   v120
	BYTE		N24     Dn5 
	BYTE	W24
	BYTE		        Gn4 
	BYTE		N24     Cn5 
	BYTE	W24
	BYTE		        En4 
	BYTE		N24     An4 
	BYTE	W24
	BYTE		        Cn4 
	BYTE		N24     Fn4 
	BYTE	W13
	BYTE	PEND
// 019   ----------------------------------------
HiryuNoKen2_6_019:
	BYTE	W11
	BYTE		N17     Dn4   v120
	BYTE		N17     Gn4 
	BYTE	W18
	BYTE		N06     Cn4 
	BYTE		N06     Fn4 
	BYTE	W18
	BYTE		N28     Bn3 
	BYTE		N28     Dn4 
	BYTE	W48
	BYTE	W01
	BYTE	PEND
// 020   ----------------------------------------
HiryuNoKen2_6_020:
	BYTE	W11
	BYTE		N52     Gn2   v120
	BYTE	W54
	BYTE		N06   
	BYTE	W06
	BYTE		N11     Dn3 
	BYTE	W12
	BYTE		        Gn2 
	BYTE	W12
	BYTE		N11   
	BYTE	W01
	BYTE	PEND
// 021   ----------------------------------------
HiryuNoKen2_6_021:
	BYTE	W11
	BYTE		N52     An2   v120
	BYTE	W54
	BYTE		N06   
	BYTE	W06
	BYTE		N11     En3 
	BYTE	W12
	BYTE		        An2 
	BYTE	W12
	BYTE		N11   
	BYTE	W01
	BYTE	PEND
// 022   ----------------------------------------
HiryuNoKen2_6_022:
	BYTE	W11
	BYTE		N48     As2   v120
	BYTE	W48
	BYTE		N36     Cn3 
	BYTE	W36
	BYTE		N12     Dn3 
	BYTE	W01
	BYTE	PEND
// 023   ----------------------------------------
	BYTE	W96
// 024   ----------------------------------------
	BYTE	W96
// 025   ----------------------------------------
	BYTE	W96
// 026   ----------------------------------------
	BYTE	W96
// 027   ----------------------------------------
	BYTE	PATT
	 POIN2	HiryuNoKen2_6_004
// 028   ----------------------------------------
	BYTE	PATT
	 POIN2	HiryuNoKen2_6_005
// 029   ----------------------------------------
	BYTE	W96
// 030   ----------------------------------------
	BYTE	W96
// 031   ----------------------------------------
	BYTE	PATT
	 POIN2	HiryuNoKen2_6_004
// 032   ----------------------------------------
	BYTE	PATT
	 POIN2	HiryuNoKen2_6_005
// 033   ----------------------------------------
	BYTE	W96
// 034   ----------------------------------------
	BYTE	W96
// 035   ----------------------------------------
	BYTE	W96
// 036   ----------------------------------------
	BYTE	PATT
	 POIN2	HiryuNoKen2_6_013
// 037   ----------------------------------------
	BYTE	W96
// 038   ----------------------------------------
	BYTE	W96
// 039   ----------------------------------------
	BYTE	W96
// 040   ----------------------------------------
	BYTE	W96
// 041   ----------------------------------------
	BYTE	PATT
	 POIN2	HiryuNoKen2_6_018
// 042   ----------------------------------------
	BYTE	PATT
	 POIN2	HiryuNoKen2_6_019
// 043   ----------------------------------------
	BYTE	PATT
	 POIN2	HiryuNoKen2_6_020
// 044   ----------------------------------------
	BYTE	PATT
	 POIN2	HiryuNoKen2_6_021
// 045   ----------------------------------------
	BYTE	PATT
	 POIN2	HiryuNoKen2_6_022
// 046   ----------------------------------------
	BYTE	W96
// 047   ----------------------------------------
	BYTE	W96
// 048   ----------------------------------------
	BYTE	W96
// 049   ----------------------------------------
	BYTE	W96
// 050   ----------------------------------------
	BYTE	PATT
	 POIN2	HiryuNoKen2_6_004
// 051   ----------------------------------------
	BYTE	PATT
	 POIN2	HiryuNoKen2_6_005
// 052   ----------------------------------------
	BYTE	W96
// 053   ----------------------------------------
	BYTE	W96
// 054   ----------------------------------------
	BYTE	PATT
	 POIN2	HiryuNoKen2_6_004
// 055   ----------------------------------------
	BYTE	PATT
	 POIN2	HiryuNoKen2_6_005
// 056   ----------------------------------------
	BYTE	W96
// 057   ----------------------------------------
	BYTE	W96
// 058   ----------------------------------------
	BYTE	W96
// 059   ----------------------------------------
	BYTE	PATT
	 POIN2	HiryuNoKen2_6_013
// 060   ----------------------------------------
	BYTE	W96
// 061   ----------------------------------------
	BYTE	W96
// 062   ----------------------------------------
	BYTE	W96
// 063   ----------------------------------------
	BYTE	W96
// 064   ----------------------------------------
	BYTE	PATT
	 POIN2	HiryuNoKen2_6_018
// 065   ----------------------------------------
	BYTE	PATT
	 POIN2	HiryuNoKen2_6_019
// 066   ----------------------------------------
	BYTE	PATT
	 POIN2	HiryuNoKen2_6_020
// 067   ----------------------------------------
	BYTE	PATT
	 POIN2	HiryuNoKen2_6_021
// 068   ----------------------------------------
	BYTE	PATT
	 POIN2	HiryuNoKen2_6_022
// 069   ----------------------------------------
	BYTE	W96
// 070   ----------------------------------------
	BYTE	W96
// 071   ----------------------------------------
	BYTE	W96
// 072   ----------------------------------------
	BYTE	W96
// 073   ----------------------------------------
	BYTE	PATT
	 POIN2	HiryuNoKen2_6_004
// 074   ----------------------------------------
	BYTE	PATT
	 POIN2	HiryuNoKen2_6_005
// 075   ----------------------------------------
	BYTE	W96
// 076   ----------------------------------------
	BYTE	W96
// 077   ----------------------------------------
	BYTE	PATT
	 POIN2	HiryuNoKen2_6_004
// 078   ----------------------------------------
	BYTE	PATT
	 POIN2	HiryuNoKen2_6_005
// 079   ----------------------------------------
	BYTE	W96
// 080   ----------------------------------------
	BYTE	W96
// 081   ----------------------------------------
	BYTE	W96
// 082   ----------------------------------------
	BYTE	PATT
	 POIN2	HiryuNoKen2_6_013
// 083   ----------------------------------------
	BYTE	W96
// 084   ----------------------------------------
	BYTE	W96
// 085   ----------------------------------------
	BYTE	W96
// 086   ----------------------------------------
	BYTE	W96
// 087   ----------------------------------------
	BYTE	PATT
	 POIN2	HiryuNoKen2_6_018
// 088   ----------------------------------------
	BYTE	PATT
	 POIN2	HiryuNoKen2_6_019
// 089   ----------------------------------------
	BYTE	PATT
	 POIN2	HiryuNoKen2_6_020
// 090   ----------------------------------------
	BYTE	PATT
	 POIN2	HiryuNoKen2_6_021
// 091   ----------------------------------------
	BYTE	W11
	BYTE		N48     As2   v120
	BYTE	W48
	BYTE		N32     Cn3 
	BYTE	W36
	BYTE	GoTo
	 POIN2	HiryuNoKen2_6_B1
HiryuNoKen2_6_B2:
	BYTE	FINE

//**************** Track 7 (Midi-Chn.7) ****************//

HiryuNoKen2_7:
	BYTE	KEYSH   HiryuNoKen2_key+0
HiryuNoKen2_7_B1:
// 000   ----------------------------------------
	BYTE		VOICE   127
	BYTE		VOL     37*HiryuNoKen2_mvl/mxv
	BYTE		PAN     c_v-20
	BYTE		N05     Dn1   v120
	BYTE	W06
	BYTE		N04     An1 
	BYTE	W06
	BYTE		        Cn2 
	BYTE	W06
	BYTE		N05     An1 
	BYTE	W06
	BYTE		N10     Cn2 
	BYTE	W12
	BYTE		N04     An1 
	BYTE	W06
	BYTE		N11     Cn2 
	BYTE	W12
	BYTE		N10   
	BYTE	W12
	BYTE		N05     An1 
	BYTE	W06
	BYTE		        Cn2 
	BYTE	W06
	BYTE		N04     An1 
	BYTE	W06
	BYTE		N11     Dn2 
	BYTE	W12
// 001   ----------------------------------------
HiryuNoKen2_7_001:
	BYTE		N05     Dn1   v120
	BYTE	W06
	BYTE		N04     An1 
	BYTE	W06
	BYTE		        Cn2 
	BYTE	W06
	BYTE		N05     An1 
	BYTE	W06
	BYTE		N10     Cn2 
	BYTE	W12
	BYTE		N04     An1 
	BYTE	W06
	BYTE		N11     Cn2 
	BYTE	W12
	BYTE		N10   
	BYTE	W12
	BYTE		N05     An1 
	BYTE	W06
	BYTE		        Cn2 
	BYTE	W06
	BYTE		N04     An1 
	BYTE	W06
	BYTE		N11     Dn2 
	BYTE	W12
	BYTE	PEND
// 002   ----------------------------------------
	BYTE	PATT
	 POIN2	HiryuNoKen2_7_001
// 003   ----------------------------------------
	BYTE	PATT
	 POIN2	HiryuNoKen2_7_001
// 004   ----------------------------------------
	BYTE	PATT
	 POIN2	HiryuNoKen2_7_001
// 005   ----------------------------------------
	BYTE	PATT
	 POIN2	HiryuNoKen2_7_001
// 006   ----------------------------------------
	BYTE	PATT
	 POIN2	HiryuNoKen2_7_001
// 007   ----------------------------------------
	BYTE	PATT
	 POIN2	HiryuNoKen2_7_001
// 008   ----------------------------------------
	BYTE	PATT
	 POIN2	HiryuNoKen2_7_001
// 009   ----------------------------------------
	BYTE	PATT
	 POIN2	HiryuNoKen2_7_001
// 010   ----------------------------------------
HiryuNoKen2_7_010:
	BYTE		N05     Gn1   v120
	BYTE	W06
	BYTE		N04     Dn2 
	BYTE	W06
	BYTE		        Gn2 
	BYTE	W06
	BYTE		N05     Dn2 
	BYTE	W06
	BYTE		N10     Gn2 
	BYTE	W12
	BYTE		N04     Dn2 
	BYTE	W06
	BYTE		N11     Gn2 
	BYTE	W12
	BYTE		N10   
	BYTE	W12
	BYTE		N05     Dn2 
	BYTE	W06
	BYTE		        Gn2 
	BYTE	W06
	BYTE		N04     Dn2 
	BYTE	W06
	BYTE		N11     Dn3 
	BYTE	W12
	BYTE	PEND
// 011   ----------------------------------------
	BYTE	PATT
	 POIN2	HiryuNoKen2_7_010
// 012   ----------------------------------------
	BYTE	PATT
	 POIN2	HiryuNoKen2_7_001
// 013   ----------------------------------------
	BYTE	PATT
	 POIN2	HiryuNoKen2_7_001
// 014   ----------------------------------------
	BYTE	PATT
	 POIN2	HiryuNoKen2_7_010
// 015   ----------------------------------------
	BYTE	PATT
	 POIN2	HiryuNoKen2_7_010
// 016   ----------------------------------------
	BYTE	PATT
	 POIN2	HiryuNoKen2_7_001
// 017   ----------------------------------------
	BYTE	PATT
	 POIN2	HiryuNoKen2_7_001
// 018   ----------------------------------------
	BYTE	W96
// 019   ----------------------------------------
	BYTE	W96
// 020   ----------------------------------------
	BYTE	W96
// 021   ----------------------------------------
	BYTE	W96
// 022   ----------------------------------------
	BYTE	W96
// 023   ----------------------------------------
	BYTE	PATT
	 POIN2	HiryuNoKen2_7_001
// 024   ----------------------------------------
	BYTE	PATT
	 POIN2	HiryuNoKen2_7_001
// 025   ----------------------------------------
	BYTE	PATT
	 POIN2	HiryuNoKen2_7_001
// 026   ----------------------------------------
	BYTE	PATT
	 POIN2	HiryuNoKen2_7_001
// 027   ----------------------------------------
	BYTE	PATT
	 POIN2	HiryuNoKen2_7_001
// 028   ----------------------------------------
	BYTE	PATT
	 POIN2	HiryuNoKen2_7_001
// 029   ----------------------------------------
	BYTE	PATT
	 POIN2	HiryuNoKen2_7_001
// 030   ----------------------------------------
	BYTE	PATT
	 POIN2	HiryuNoKen2_7_001
// 031   ----------------------------------------
	BYTE	PATT
	 POIN2	HiryuNoKen2_7_001
// 032   ----------------------------------------
	BYTE	PATT
	 POIN2	HiryuNoKen2_7_001
// 033   ----------------------------------------
	BYTE	PATT
	 POIN2	HiryuNoKen2_7_010
// 034   ----------------------------------------
	BYTE	PATT
	 POIN2	HiryuNoKen2_7_010
// 035   ----------------------------------------
	BYTE	PATT
	 POIN2	HiryuNoKen2_7_001
// 036   ----------------------------------------
	BYTE	PATT
	 POIN2	HiryuNoKen2_7_001
// 037   ----------------------------------------
	BYTE	PATT
	 POIN2	HiryuNoKen2_7_010
// 038   ----------------------------------------
	BYTE	PATT
	 POIN2	HiryuNoKen2_7_010
// 039   ----------------------------------------
	BYTE	PATT
	 POIN2	HiryuNoKen2_7_001
// 040   ----------------------------------------
	BYTE	PATT
	 POIN2	HiryuNoKen2_7_001
// 041   ----------------------------------------
	BYTE	W96
// 042   ----------------------------------------
	BYTE	W96
// 043   ----------------------------------------
	BYTE	W96
// 044   ----------------------------------------
	BYTE	W96
// 045   ----------------------------------------
	BYTE	W96
// 046   ----------------------------------------
	BYTE	PATT
	 POIN2	HiryuNoKen2_7_001
// 047   ----------------------------------------
	BYTE	PATT
	 POIN2	HiryuNoKen2_7_001
// 048   ----------------------------------------
	BYTE	PATT
	 POIN2	HiryuNoKen2_7_001
// 049   ----------------------------------------
	BYTE	PATT
	 POIN2	HiryuNoKen2_7_001
// 050   ----------------------------------------
	BYTE	PATT
	 POIN2	HiryuNoKen2_7_001
// 051   ----------------------------------------
	BYTE	PATT
	 POIN2	HiryuNoKen2_7_001
// 052   ----------------------------------------
	BYTE	PATT
	 POIN2	HiryuNoKen2_7_001
// 053   ----------------------------------------
	BYTE	PATT
	 POIN2	HiryuNoKen2_7_001
// 054   ----------------------------------------
	BYTE	PATT
	 POIN2	HiryuNoKen2_7_001
// 055   ----------------------------------------
	BYTE	PATT
	 POIN2	HiryuNoKen2_7_001
// 056   ----------------------------------------
	BYTE	PATT
	 POIN2	HiryuNoKen2_7_010
// 057   ----------------------------------------
	BYTE	PATT
	 POIN2	HiryuNoKen2_7_010
// 058   ----------------------------------------
	BYTE	PATT
	 POIN2	HiryuNoKen2_7_001
// 059   ----------------------------------------
	BYTE	PATT
	 POIN2	HiryuNoKen2_7_001
// 060   ----------------------------------------
	BYTE	PATT
	 POIN2	HiryuNoKen2_7_010
// 061   ----------------------------------------
	BYTE	PATT
	 POIN2	HiryuNoKen2_7_010
// 062   ----------------------------------------
	BYTE	PATT
	 POIN2	HiryuNoKen2_7_001
// 063   ----------------------------------------
	BYTE	PATT
	 POIN2	HiryuNoKen2_7_001
// 064   ----------------------------------------
	BYTE	W96
// 065   ----------------------------------------
	BYTE	W96
// 066   ----------------------------------------
	BYTE	W96
// 067   ----------------------------------------
	BYTE	W96
// 068   ----------------------------------------
	BYTE	W96
// 069   ----------------------------------------
	BYTE	PATT
	 POIN2	HiryuNoKen2_7_001
// 070   ----------------------------------------
	BYTE	PATT
	 POIN2	HiryuNoKen2_7_001
// 071   ----------------------------------------
	BYTE	PATT
	 POIN2	HiryuNoKen2_7_001
// 072   ----------------------------------------
	BYTE	PATT
	 POIN2	HiryuNoKen2_7_001
// 073   ----------------------------------------
	BYTE	PATT
	 POIN2	HiryuNoKen2_7_001
// 074   ----------------------------------------
	BYTE	PATT
	 POIN2	HiryuNoKen2_7_001
// 075   ----------------------------------------
	BYTE	PATT
	 POIN2	HiryuNoKen2_7_001
// 076   ----------------------------------------
	BYTE	PATT
	 POIN2	HiryuNoKen2_7_001
// 077   ----------------------------------------
	BYTE	PATT
	 POIN2	HiryuNoKen2_7_001
// 078   ----------------------------------------
	BYTE	PATT
	 POIN2	HiryuNoKen2_7_001
// 079   ----------------------------------------
	BYTE	PATT
	 POIN2	HiryuNoKen2_7_010
// 080   ----------------------------------------
	BYTE	PATT
	 POIN2	HiryuNoKen2_7_010
// 081   ----------------------------------------
	BYTE	PATT
	 POIN2	HiryuNoKen2_7_001
// 082   ----------------------------------------
	BYTE	PATT
	 POIN2	HiryuNoKen2_7_001
// 083   ----------------------------------------
	BYTE	PATT
	 POIN2	HiryuNoKen2_7_010
// 084   ----------------------------------------
	BYTE	PATT
	 POIN2	HiryuNoKen2_7_010
// 085   ----------------------------------------
	BYTE		N05     Dn1   v120
	BYTE	W06
	BYTE		N04     An1 
	BYTE	W06
	BYTE		        Cn2 
	BYTE	W06
	BYTE		N05     An1 
	BYTE	W06
	BYTE		N10     Cn2 
	BYTE	W12
	BYTE		N04     An1 
	BYTE	W06
	BYTE		N11     Cn2 
	BYTE	W12
	BYTE		N10   
	BYTE	W12
	BYTE		N05     An1 
	BYTE	W06
	BYTE		        Cn2 
	BYTE	W06
	BYTE		N04     An1 
	BYTE	W06
	BYTE		N10     Dn2 
	BYTE	W12
// 086   ----------------------------------------
	BYTE		N04     Dn1 
	BYTE	W06
	BYTE		        An1 
	BYTE	W06
	BYTE		        Cn2 
	BYTE	W06
	BYTE		        An1 
	BYTE	W06
	BYTE		N09     Cn2 
	BYTE	W12
	BYTE		N04     An1 
	BYTE	W06
	BYTE		N10     Cn2 
	BYTE	W12
	BYTE		N10   
	BYTE	W12
	BYTE		N04     An1 
	BYTE	W06
	BYTE		        Cn2 
	BYTE	W06
	BYTE		        An1 
	BYTE	W06
	BYTE		N10     Dn2 
	BYTE	W12
// 087   ----------------------------------------
	BYTE	W96
// 088   ----------------------------------------
	BYTE	W96
// 089   ----------------------------------------
	BYTE	W96
// 090   ----------------------------------------
	BYTE	W96
// 091   ----------------------------------------
	BYTE	W92
	BYTE	W03
	BYTE	GoTo
	 POIN2	HiryuNoKen2_7_B1
HiryuNoKen2_7_B2:
	BYTE	FINE

//**************** Track 8 (Midi-Chn.8) ****************//

HiryuNoKen2_8:
	BYTE	KEYSH   HiryuNoKen2_key+0
HiryuNoKen2_8_B1:
// 000   ----------------------------------------
	BYTE		VOICE   92
	BYTE		VOL     47*HiryuNoKen2_mvl/mxv
	BYTE		PAN     c_v+0
	BYTE	W60
	BYTE		N04     An1   v120
	BYTE		N05     Dn2 
	BYTE		N04     An2 
	BYTE		N05     Dn3 
	BYTE	W12
	BYTE		N04     An1 
	BYTE		N04     Dn2 
	BYTE		N04     An2 
	BYTE		N04     Dn3 
	BYTE	W06
	BYTE		        An1 
	BYTE		N04     Dn2 
	BYTE		N04     An2 
	BYTE		N04     Dn3 
	BYTE	W06
	BYTE		        An1 
	BYTE		N04     Dn2 
	BYTE		N04     An2 
	BYTE		N04     Dn3 
	BYTE	W12
// 001   ----------------------------------------
HiryuNoKen2_8_001:
	BYTE	W60
	BYTE		N04     An1   v120
	BYTE		N05     Dn2 
	BYTE		N04     An2 
	BYTE		N05     Dn3 
	BYTE	W12
	BYTE		N04     An1 
	BYTE		N04     Dn2 
	BYTE		N04     An2 
	BYTE		N04     Dn3 
	BYTE	W06
	BYTE		        An1 
	BYTE		N04     Dn2 
	BYTE		N04     An2 
	BYTE		N04     Dn3 
	BYTE	W06
	BYTE		        An1 
	BYTE		N04     Dn2 
	BYTE		N04     An2 
	BYTE		N04     Dn3 
	BYTE	W12
	BYTE	PEND
// 002   ----------------------------------------
	BYTE	W96
// 003   ----------------------------------------
	BYTE	W96
// 004   ----------------------------------------
	BYTE	W96
// 005   ----------------------------------------
	BYTE	PATT
	 POIN2	HiryuNoKen2_8_001
// 006   ----------------------------------------
	BYTE	W96
// 007   ----------------------------------------
	BYTE	W96
// 008   ----------------------------------------
	BYTE	W96
// 009   ----------------------------------------
	BYTE	PATT
	 POIN2	HiryuNoKen2_8_001
// 010   ----------------------------------------
	BYTE	W96
// 011   ----------------------------------------
HiryuNoKen2_8_011:
	BYTE	W60
	BYTE		N04     Dn2   v120
	BYTE		N05     Gn2 
	BYTE		N04     Dn3 
	BYTE		N05     Gn3 
	BYTE	W12
	BYTE		N04     Dn2 
	BYTE		N04     Gn2 
	BYTE		N04     Dn3 
	BYTE		N04     Gn3 
	BYTE	W06
	BYTE		        Dn2 
	BYTE		N04     Gn2 
	BYTE		N04     Dn3 
	BYTE		N04     Gn3 
	BYTE	W06
	BYTE		        Dn2 
	BYTE		N04     Gn2 
	BYTE		N04     Dn3 
	BYTE		N04     Gn3 
	BYTE	W12
	BYTE	PEND
// 012   ----------------------------------------
	BYTE	W96
// 013   ----------------------------------------
	BYTE	PATT
	 POIN2	HiryuNoKen2_8_001
// 014   ----------------------------------------
	BYTE	W96
// 015   ----------------------------------------
	BYTE	PATT
	 POIN2	HiryuNoKen2_8_011
// 016   ----------------------------------------
	BYTE	W96
// 017   ----------------------------------------
	BYTE	PATT
	 POIN2	HiryuNoKen2_8_001
// 018   ----------------------------------------
HiryuNoKen2_8_018:
	BYTE		N24     An3   v120
	BYTE		N24     Dn4 
	BYTE		N24     An4 
	BYTE		N24     Dn5 
	BYTE	W24
	BYTE		        Gn3 
	BYTE		N24     Cn4 
	BYTE		N24     Gn4 
	BYTE		N24     Cn5 
	BYTE	W24
	BYTE		        En3 
	BYTE		N24     An3 
	BYTE		N24     En4 
	BYTE		N24     An4 
	BYTE	W24
	BYTE		        Cn3 
	BYTE		N24     Fn3 
	BYTE		N24     Cn4 
	BYTE		N24     Fn4 
	BYTE	W24
	BYTE	PEND
// 019   ----------------------------------------
HiryuNoKen2_8_019:
	BYTE		N17     Dn3   v120
	BYTE		N17     Gn3 
	BYTE		N17     Dn4 
	BYTE		N17     Gn4 
	BYTE	W18
	BYTE		N06     Cn3 
	BYTE		N06     Fn3 
	BYTE		N06     Cn4 
	BYTE		N06     Fn4 
	BYTE	W18
	BYTE		N28     Bn2 
	BYTE		N28     Dn3 
	BYTE		N28     Bn3 
	BYTE		N28     Dn4 
	BYTE	W48
	BYTE		N04     Dn2 
	BYTE		N04     Dn3 
	BYTE	W06
	BYTE		N05     En2 
	BYTE		N05     En3 
	BYTE	W06
	BYTE	PEND
// 020   ----------------------------------------
HiryuNoKen2_8_020:
	BYTE		N04     Fn2   v120
	BYTE		N04     Fn3 
	BYTE	W06
	BYTE		        En2 
	BYTE		N04     En3 
	BYTE	W06
	BYTE		        Dn2 
	BYTE		N04     Dn3 
	BYTE	W06
	BYTE		N05     En2 
	BYTE		N05     En3 
	BYTE	W06
	BYTE		N04     Fn2 
	BYTE		N04     Fn3 
	BYTE	W06
	BYTE		        Gn2 
	BYTE		N04     Gn3 
	BYTE	W06
	BYTE		        As2 
	BYTE		N04     As3 
	BYTE	W06
	BYTE		N05     Dn3 
	BYTE		N05     Dn4 
	BYTE	W06
	BYTE		N23     Fn3 
	BYTE		N23     Fn4 
	BYTE	W36
	BYTE		N11     Fn3 
	BYTE		N11     Fn4 
	BYTE	W12
	BYTE	PEND
// 021   ----------------------------------------
HiryuNoKen2_8_021:
	BYTE		N04     En3   v120
	BYTE		N04     En4 
	BYTE	W06
	BYTE		        Dn3 
	BYTE		N04     Dn4 
	BYTE	W06
	BYTE		        Cn3 
	BYTE		N04     Cn4 
	BYTE	W06
	BYTE		N05     Dn3 
	BYTE		N05     Dn4 
	BYTE	W06
	BYTE		N04     En3 
	BYTE		N04     En4 
	BYTE	W06
	BYTE		        Gn3 
	BYTE		N04     Gn4 
	BYTE	W06
	BYTE		        Cn4 
	BYTE		N04     Cn5 
	BYTE	W06
	BYTE		N05     Dn4 
	BYTE		N05     Dn5 
	BYTE	W06
	BYTE		N23     En4 
	BYTE		N23     En5 
	BYTE	W36
	BYTE		N11     En4 
	BYTE		N11     En5 
	BYTE	W12
	BYTE	PEND
// 022   ----------------------------------------
HiryuNoKen2_8_022:
	BYTE		N04     An3   v120
	BYTE		N04     Dn4 
	BYTE		N04     An4 
	BYTE		N04     Dn5 
	BYTE	W06
	BYTE		        An3 
	BYTE		N04     Dn4 
	BYTE		N04     An4 
	BYTE		N04     Dn5 
	BYTE	W06
	BYTE		        An3 
	BYTE		N04     Dn4 
	BYTE		N04     An4 
	BYTE		N04     Dn5 
	BYTE	W06
	BYTE		        An3 
	BYTE		N04     Dn4 
	BYTE		N04     An4 
	BYTE		N04     Dn5 
	BYTE	W12
	BYTE		        An3 
	BYTE		N04     Dn4 
	BYTE		N04     An4 
	BYTE		N04     Dn5 
	BYTE	W12
	BYTE		        An3 
	BYTE		N04     Dn4 
	BYTE		N04     An4 
	BYTE		N04     Dn5 
	BYTE	W06
	BYTE		        Gn3 
	BYTE		N04     Dn4 
	BYTE		N04     Gn4 
	BYTE		N04     Dn5 
	BYTE	W12
	BYTE		        Gn3 
	BYTE		N04     Dn4 
	BYTE		N04     Gn4 
	BYTE		N04     Dn5 
	BYTE	W12
	BYTE		        Gn3 
	BYTE		N04     Cn4 
	BYTE		N04     Gn4 
	BYTE		N04     Cn5 
	BYTE	W06
	BYTE		        En3 
	BYTE		N04     An3 
	BYTE		N04     En4 
	BYTE		N04     An4 
	BYTE	W06
	BYTE		        Cn4 
	BYTE		N04     En4 
	BYTE		N04     Cn5 
	BYTE		N04     En5 
	BYTE	W06
	BYTE		        An3 
	BYTE		N04     Dn4 
	BYTE		N04     An4 
	BYTE		N04     Dn5 
	BYTE	W06
	BYTE	PEND
// 023   ----------------------------------------
	BYTE	PATT
	 POIN2	HiryuNoKen2_8_001
// 024   ----------------------------------------
	BYTE	PATT
	 POIN2	HiryuNoKen2_8_001
// 025   ----------------------------------------
	BYTE	W96
// 026   ----------------------------------------
	BYTE	W96
// 027   ----------------------------------------
	BYTE	W96
// 028   ----------------------------------------
	BYTE	PATT
	 POIN2	HiryuNoKen2_8_001
// 029   ----------------------------------------
	BYTE	W96
// 030   ----------------------------------------
	BYTE	W96
// 031   ----------------------------------------
	BYTE	W96
// 032   ----------------------------------------
	BYTE	PATT
	 POIN2	HiryuNoKen2_8_001
// 033   ----------------------------------------
	BYTE	W96
// 034   ----------------------------------------
	BYTE	PATT
	 POIN2	HiryuNoKen2_8_011
// 035   ----------------------------------------
	BYTE	W96
// 036   ----------------------------------------
	BYTE	PATT
	 POIN2	HiryuNoKen2_8_001
// 037   ----------------------------------------
	BYTE	W96
// 038   ----------------------------------------
	BYTE	PATT
	 POIN2	HiryuNoKen2_8_011
// 039   ----------------------------------------
	BYTE	W96
// 040   ----------------------------------------
	BYTE	PATT
	 POIN2	HiryuNoKen2_8_001
// 041   ----------------------------------------
	BYTE	PATT
	 POIN2	HiryuNoKen2_8_018
// 042   ----------------------------------------
	BYTE	PATT
	 POIN2	HiryuNoKen2_8_019
// 043   ----------------------------------------
	BYTE	PATT
	 POIN2	HiryuNoKen2_8_020
// 044   ----------------------------------------
	BYTE	PATT
	 POIN2	HiryuNoKen2_8_021
// 045   ----------------------------------------
	BYTE	PATT
	 POIN2	HiryuNoKen2_8_022
// 046   ----------------------------------------
	BYTE	PATT
	 POIN2	HiryuNoKen2_8_001
// 047   ----------------------------------------
	BYTE	PATT
	 POIN2	HiryuNoKen2_8_001
// 048   ----------------------------------------
	BYTE	W96
// 049   ----------------------------------------
	BYTE	W96
// 050   ----------------------------------------
	BYTE	W96
// 051   ----------------------------------------
	BYTE	PATT
	 POIN2	HiryuNoKen2_8_001
// 052   ----------------------------------------
	BYTE	W96
// 053   ----------------------------------------
	BYTE	W96
// 054   ----------------------------------------
	BYTE	W96
// 055   ----------------------------------------
	BYTE	PATT
	 POIN2	HiryuNoKen2_8_001
// 056   ----------------------------------------
	BYTE	W96
// 057   ----------------------------------------
	BYTE	PATT
	 POIN2	HiryuNoKen2_8_011
// 058   ----------------------------------------
	BYTE	W96
// 059   ----------------------------------------
	BYTE	PATT
	 POIN2	HiryuNoKen2_8_001
// 060   ----------------------------------------
	BYTE	W96
// 061   ----------------------------------------
	BYTE	PATT
	 POIN2	HiryuNoKen2_8_011
// 062   ----------------------------------------
	BYTE	W96
// 063   ----------------------------------------
	BYTE	PATT
	 POIN2	HiryuNoKen2_8_001
// 064   ----------------------------------------
	BYTE	PATT
	 POIN2	HiryuNoKen2_8_018
// 065   ----------------------------------------
	BYTE	PATT
	 POIN2	HiryuNoKen2_8_019
// 066   ----------------------------------------
	BYTE	PATT
	 POIN2	HiryuNoKen2_8_020
// 067   ----------------------------------------
	BYTE	PATT
	 POIN2	HiryuNoKen2_8_021
// 068   ----------------------------------------
	BYTE	PATT
	 POIN2	HiryuNoKen2_8_022
// 069   ----------------------------------------
	BYTE	PATT
	 POIN2	HiryuNoKen2_8_001
// 070   ----------------------------------------
	BYTE	PATT
	 POIN2	HiryuNoKen2_8_001
// 071   ----------------------------------------
	BYTE	W96
// 072   ----------------------------------------
	BYTE	W96
// 073   ----------------------------------------
	BYTE	W96
// 074   ----------------------------------------
	BYTE	PATT
	 POIN2	HiryuNoKen2_8_001
// 075   ----------------------------------------
	BYTE	W96
// 076   ----------------------------------------
	BYTE	W96
// 077   ----------------------------------------
	BYTE	W96
// 078   ----------------------------------------
	BYTE	PATT
	 POIN2	HiryuNoKen2_8_001
// 079   ----------------------------------------
	BYTE	W96
// 080   ----------------------------------------
	BYTE	PATT
	 POIN2	HiryuNoKen2_8_011
// 081   ----------------------------------------
	BYTE	W96
// 082   ----------------------------------------
	BYTE	PATT
	 POIN2	HiryuNoKen2_8_001
// 083   ----------------------------------------
	BYTE	W96
// 084   ----------------------------------------
	BYTE	PATT
	 POIN2	HiryuNoKen2_8_011
// 085   ----------------------------------------
	BYTE	W96
// 086   ----------------------------------------
	BYTE	PATT
	 POIN2	HiryuNoKen2_8_001
// 087   ----------------------------------------
	BYTE	PATT
	 POIN2	HiryuNoKen2_8_018
// 088   ----------------------------------------
	BYTE	PATT
	 POIN2	HiryuNoKen2_8_019
// 089   ----------------------------------------
	BYTE	PATT
	 POIN2	HiryuNoKen2_8_020
// 090   ----------------------------------------
	BYTE	PATT
	 POIN2	HiryuNoKen2_8_021
// 091   ----------------------------------------
	BYTE		N04     An3   v120
	BYTE		N04     Dn4 
	BYTE		N04     An4 
	BYTE		N04     Dn5 
	BYTE	W06
	BYTE		        An3 
	BYTE		N04     Dn4 
	BYTE		N04     An4 
	BYTE		N04     Dn5 
	BYTE	W06
	BYTE		        An3 
	BYTE		N04     Dn4 
	BYTE		N04     An4 
	BYTE		N04     Dn5 
	BYTE	W06
	BYTE		        An3 
	BYTE		N04     Dn4 
	BYTE		N04     An4 
	BYTE		N04     Dn5 
	BYTE	W12
	BYTE		        An3 
	BYTE		N04     Dn4 
	BYTE		N04     An4 
	BYTE		N04     Dn5 
	BYTE	W12
	BYTE		        An3 
	BYTE		N04     Dn4 
	BYTE		N04     An4 
	BYTE		N04     Dn5 
	BYTE	W06
	BYTE		        Gn3 
	BYTE		N04     Dn4 
	BYTE		N04     Gn4 
	BYTE		N04     Dn5 
	BYTE	W12
	BYTE		        Gn3 
	BYTE		N04     Dn4 
	BYTE		N04     Gn4 
	BYTE		N04     Dn5 
	BYTE	W12
	BYTE		        Gn3 
	BYTE		N04     Cn4 
	BYTE		N04     Gn4 
	BYTE		N04     Cn5 
	BYTE	W06
	BYTE		        En3 
	BYTE		N04     An3 
	BYTE		N04     En4 
	BYTE		N04     An4 
	BYTE	W06
	BYTE		        Cn4 
	BYTE		N04     En4 
	BYTE		N04     Cn5 
	BYTE		N04     En5 
	BYTE	W06
	BYTE		        An3 
	BYTE		N04     Dn4 
	BYTE		N04     An4 
	BYTE		N04     Dn5 
	BYTE	W05
	BYTE	GoTo
	 POIN2	HiryuNoKen2_8_B1
HiryuNoKen2_8_B2:
	BYTE	FINE

//**************** Track 9 (Midi-Chn.9) ****************//

HiryuNoKen2_9:
	BYTE	KEYSH   HiryuNoKen2_key+0
HiryuNoKen2_9_B1:
// 000   ----------------------------------------
	BYTE		VOICE   92
	BYTE		VOL     32*HiryuNoKen2_mvl/mxv
	BYTE		PAN     c_v+0
	BYTE	W68
	BYTE	W03
	BYTE		N04     An1   v120
	BYTE		N05     Dn2 
	BYTE		N04     An2 
	BYTE		N05     Dn3 
	BYTE	W12
	BYTE		N04     An1 
	BYTE		N04     Dn2 
	BYTE		N04     An2 
	BYTE		N04     Dn3 
	BYTE	W06
	BYTE		        An1 
	BYTE		N04     Dn2 
	BYTE		N04     An2 
	BYTE		N04     Dn3 
	BYTE	W06
	BYTE		        An1 
	BYTE		N04     Dn2 
	BYTE		N04     An2 
	BYTE		N04     Dn3 
	BYTE	W01
// 001   ----------------------------------------
HiryuNoKen2_9_001:
	BYTE	W68
	BYTE	W03
	BYTE		N04     An1   v120
	BYTE		N05     Dn2 
	BYTE		N04     An2 
	BYTE		N05     Dn3 
	BYTE	W12
	BYTE		N04     An1 
	BYTE		N04     Dn2 
	BYTE		N04     An2 
	BYTE		N04     Dn3 
	BYTE	W06
	BYTE		        An1 
	BYTE		N04     Dn2 
	BYTE		N04     An2 
	BYTE		N04     Dn3 
	BYTE	W06
	BYTE		        An1 
	BYTE		N04     Dn2 
	BYTE		N04     An2 
	BYTE		N04     Dn3 
	BYTE	W01
	BYTE	PEND
// 002   ----------------------------------------
	BYTE	W96
// 003   ----------------------------------------
	BYTE	W96
// 004   ----------------------------------------
	BYTE	W96
// 005   ----------------------------------------
	BYTE	PATT
	 POIN2	HiryuNoKen2_9_001
// 006   ----------------------------------------
	BYTE	W96
// 007   ----------------------------------------
	BYTE	W96
// 008   ----------------------------------------
	BYTE	W96
// 009   ----------------------------------------
	BYTE	PATT
	 POIN2	HiryuNoKen2_9_001
// 010   ----------------------------------------
	BYTE	W96
// 011   ----------------------------------------
HiryuNoKen2_9_011:
	BYTE	W68
	BYTE	W03
	BYTE		N04     Dn2   v120
	BYTE		N05     Gn2 
	BYTE		N04     Dn3 
	BYTE		N05     Gn3 
	BYTE	W12
	BYTE		N04     Dn2 
	BYTE		N04     Gn2 
	BYTE		N04     Dn3 
	BYTE		N04     Gn3 
	BYTE	W06
	BYTE		        Dn2 
	BYTE		N04     Gn2 
	BYTE		N04     Dn3 
	BYTE		N04     Gn3 
	BYTE	W06
	BYTE		        Dn2 
	BYTE		N04     Gn2 
	BYTE		N04     Dn3 
	BYTE		N04     Gn3 
	BYTE	W01
	BYTE	PEND
// 012   ----------------------------------------
	BYTE	W96
// 013   ----------------------------------------
	BYTE	PATT
	 POIN2	HiryuNoKen2_9_001
// 014   ----------------------------------------
	BYTE	W96
// 015   ----------------------------------------
	BYTE	PATT
	 POIN2	HiryuNoKen2_9_011
// 016   ----------------------------------------
	BYTE	W96
// 017   ----------------------------------------
	BYTE	PATT
	 POIN2	HiryuNoKen2_9_001
// 018   ----------------------------------------
HiryuNoKen2_9_018:
	BYTE	W11
	BYTE		N24     An3   v120
	BYTE		N24     Dn4 
	BYTE		N24     An4 
	BYTE		N24     Dn5 
	BYTE	W24
	BYTE		        Gn3 
	BYTE		N24     Cn4 
	BYTE		N24     Gn4 
	BYTE		N24     Cn5 
	BYTE	W24
	BYTE		        En3 
	BYTE		N24     An3 
	BYTE		N24     En4 
	BYTE		N24     An4 
	BYTE	W24
	BYTE		        Cn3 
	BYTE		N24     Fn3 
	BYTE		N24     Cn4 
	BYTE		N24     Fn4 
	BYTE	W13
	BYTE	PEND
// 019   ----------------------------------------
HiryuNoKen2_9_019:
	BYTE	W11
	BYTE		N17     Dn3   v120
	BYTE		N17     Gn3 
	BYTE		N17     Dn4 
	BYTE		N17     Gn4 
	BYTE	W18
	BYTE		N06     Cn3 
	BYTE		N06     Fn3 
	BYTE		N06     Cn4 
	BYTE		N06     Fn4 
	BYTE	W18
	BYTE		N28     Bn2 
	BYTE		N28     Dn3 
	BYTE		N28     Bn3 
	BYTE		N28     Dn4 
	BYTE	W48
	BYTE		N04     Dn2 
	BYTE		N04     Dn3 
	BYTE	W01
	BYTE	PEND
// 020   ----------------------------------------
HiryuNoKen2_9_020:
	BYTE	W05
	BYTE		N05     En2   v120
	BYTE		N05     En3 
	BYTE	W06
	BYTE		N04     Fn2 
	BYTE		N04     Fn3 
	BYTE	W06
	BYTE		        En2 
	BYTE		N04     En3 
	BYTE	W06
	BYTE		        Dn2 
	BYTE		N04     Dn3 
	BYTE	W06
	BYTE		N05     En2 
	BYTE		N05     En3 
	BYTE	W06
	BYTE		N04     Fn2 
	BYTE		N04     Fn3 
	BYTE	W06
	BYTE		        Gn2 
	BYTE		N04     Gn3 
	BYTE	W06
	BYTE		        As2 
	BYTE		N04     As3 
	BYTE	W06
	BYTE		N05     Dn3 
	BYTE		N05     Dn4 
	BYTE	W06
	BYTE		N23     Fn3 
	BYTE		N23     Fn4 
	BYTE	W36
	BYTE		N11     Fn3 
	BYTE		N11     Fn4 
	BYTE	W01
	BYTE	PEND
// 021   ----------------------------------------
HiryuNoKen2_9_021:
	BYTE	W11
	BYTE		N04     En3   v120
	BYTE		N04     En4 
	BYTE	W06
	BYTE		        Dn3 
	BYTE		N04     Dn4 
	BYTE	W06
	BYTE		        Cn3 
	BYTE		N04     Cn4 
	BYTE	W06
	BYTE		N05     Dn3 
	BYTE		N05     Dn4 
	BYTE	W06
	BYTE		N04     En3 
	BYTE		N04     En4 
	BYTE	W06
	BYTE		        Gn3 
	BYTE		N04     Gn4 
	BYTE	W06
	BYTE		        Cn4 
	BYTE		N04     Cn5 
	BYTE	W06
	BYTE		N05     Dn4 
	BYTE		N05     Dn5 
	BYTE	W06
	BYTE		N23     En4 
	BYTE		N23     En5 
	BYTE	W36
	BYTE		N11     En4 
	BYTE		N11     En5 
	BYTE	W01
	BYTE	PEND
// 022   ----------------------------------------
HiryuNoKen2_9_022:
	BYTE	W11
	BYTE		N04     An3   v120
	BYTE		N04     Dn4 
	BYTE		N04     An4 
	BYTE		N04     Dn5 
	BYTE	W06
	BYTE		        An3 
	BYTE		N04     Dn4 
	BYTE		N04     An4 
	BYTE		N04     Dn5 
	BYTE	W06
	BYTE		        An3 
	BYTE		N04     Dn4 
	BYTE		N04     An4 
	BYTE		N04     Dn5 
	BYTE	W06
	BYTE		        An3 
	BYTE		N04     Dn4 
	BYTE		N04     An4 
	BYTE		N04     Dn5 
	BYTE	W12
	BYTE		        An3 
	BYTE		N04     Dn4 
	BYTE		N04     An4 
	BYTE		N04     Dn5 
	BYTE	W12
	BYTE		        An3 
	BYTE		N04     Dn4 
	BYTE		N04     An4 
	BYTE		N04     Dn5 
	BYTE	W06
	BYTE		        Gn3 
	BYTE		N04     Dn4 
	BYTE		N04     Gn4 
	BYTE		N04     Dn5 
	BYTE	W12
	BYTE		        Gn3 
	BYTE		N04     Dn4 
	BYTE		N04     Gn4 
	BYTE		N04     Dn5 
	BYTE	W12
	BYTE		        Gn3 
	BYTE		N04     Cn4 
	BYTE		N04     Gn4 
	BYTE		N04     Cn5 
	BYTE	W06
	BYTE		        En3 
	BYTE		N04     An3 
	BYTE		N04     En4 
	BYTE		N04     An4 
	BYTE	W06
	BYTE		        Cn4 
	BYTE		N04     En4 
	BYTE		N04     Cn5 
	BYTE		N04     En5 
	BYTE	W01
	BYTE	PEND
// 023   ----------------------------------------
	BYTE	W05
	BYTE		        An3 
	BYTE		N04     Dn4 
	BYTE		N04     An4 
	BYTE		N04     Dn5 
	BYTE	W66
	BYTE		        An1 
	BYTE		N05     Dn2 
	BYTE		N04     An2 
	BYTE		N05     Dn3 
	BYTE	W12
	BYTE		N04     An1 
	BYTE		N04     Dn2 
	BYTE		N04     An2 
	BYTE		N04     Dn3 
	BYTE	W06
	BYTE		        An1 
	BYTE		N04     Dn2 
	BYTE		N04     An2 
	BYTE		N04     Dn3 
	BYTE	W06
	BYTE		        An1 
	BYTE		N04     Dn2 
	BYTE		N04     An2 
	BYTE		N04     Dn3 
	BYTE	W01
// 024   ----------------------------------------
	BYTE	PATT
	 POIN2	HiryuNoKen2_9_001
// 025   ----------------------------------------
	BYTE	W96
// 026   ----------------------------------------
	BYTE	W96
// 027   ----------------------------------------
	BYTE	W96
// 028   ----------------------------------------
	BYTE	PATT
	 POIN2	HiryuNoKen2_9_001
// 029   ----------------------------------------
	BYTE	W96
// 030   ----------------------------------------
	BYTE	W96
// 031   ----------------------------------------
	BYTE	W96
// 032   ----------------------------------------
	BYTE	PATT
	 POIN2	HiryuNoKen2_9_001
// 033   ----------------------------------------
	BYTE	W96
// 034   ----------------------------------------
	BYTE	PATT
	 POIN2	HiryuNoKen2_9_011
// 035   ----------------------------------------
	BYTE	W96
// 036   ----------------------------------------
	BYTE	PATT
	 POIN2	HiryuNoKen2_9_001
// 037   ----------------------------------------
	BYTE	W96
// 038   ----------------------------------------
	BYTE	PATT
	 POIN2	HiryuNoKen2_9_011
// 039   ----------------------------------------
	BYTE	W96
// 040   ----------------------------------------
	BYTE	PATT
	 POIN2	HiryuNoKen2_9_001
// 041   ----------------------------------------
	BYTE	PATT
	 POIN2	HiryuNoKen2_9_018
// 042   ----------------------------------------
	BYTE	PATT
	 POIN2	HiryuNoKen2_9_019
// 043   ----------------------------------------
	BYTE	PATT
	 POIN2	HiryuNoKen2_9_020
// 044   ----------------------------------------
	BYTE	PATT
	 POIN2	HiryuNoKen2_9_021
// 045   ----------------------------------------
	BYTE	PATT
	 POIN2	HiryuNoKen2_9_022
// 046   ----------------------------------------
	BYTE	PATT
	 POIN2	HiryuNoKen2_9_001
// 047   ----------------------------------------
	BYTE	PATT
	 POIN2	HiryuNoKen2_9_001
// 048   ----------------------------------------
	BYTE	W96
// 049   ----------------------------------------
	BYTE	W96
// 050   ----------------------------------------
	BYTE	W96
// 051   ----------------------------------------
	BYTE	PATT
	 POIN2	HiryuNoKen2_9_001
// 052   ----------------------------------------
	BYTE	W96
// 053   ----------------------------------------
	BYTE	W96
// 054   ----------------------------------------
	BYTE	W96
// 055   ----------------------------------------
	BYTE	PATT
	 POIN2	HiryuNoKen2_9_001
// 056   ----------------------------------------
	BYTE	W96
// 057   ----------------------------------------
	BYTE	PATT
	 POIN2	HiryuNoKen2_9_011
// 058   ----------------------------------------
	BYTE	W96
// 059   ----------------------------------------
	BYTE	PATT
	 POIN2	HiryuNoKen2_9_001
// 060   ----------------------------------------
	BYTE	W96
// 061   ----------------------------------------
	BYTE	PATT
	 POIN2	HiryuNoKen2_9_011
// 062   ----------------------------------------
	BYTE	W96
// 063   ----------------------------------------
	BYTE	PATT
	 POIN2	HiryuNoKen2_9_001
// 064   ----------------------------------------
	BYTE	PATT
	 POIN2	HiryuNoKen2_9_018
// 065   ----------------------------------------
	BYTE	PATT
	 POIN2	HiryuNoKen2_9_019
// 066   ----------------------------------------
	BYTE	PATT
	 POIN2	HiryuNoKen2_9_020
// 067   ----------------------------------------
	BYTE	PATT
	 POIN2	HiryuNoKen2_9_021
// 068   ----------------------------------------
	BYTE	PATT
	 POIN2	HiryuNoKen2_9_022
// 069   ----------------------------------------
	BYTE	PATT
	 POIN2	HiryuNoKen2_9_001
// 070   ----------------------------------------
	BYTE	PATT
	 POIN2	HiryuNoKen2_9_001
// 071   ----------------------------------------
	BYTE	W96
// 072   ----------------------------------------
	BYTE	W96
// 073   ----------------------------------------
	BYTE	W96
// 074   ----------------------------------------
	BYTE	PATT
	 POIN2	HiryuNoKen2_9_001
// 075   ----------------------------------------
	BYTE	W96
// 076   ----------------------------------------
	BYTE	W96
// 077   ----------------------------------------
	BYTE	W96
// 078   ----------------------------------------
	BYTE	PATT
	 POIN2	HiryuNoKen2_9_001
// 079   ----------------------------------------
	BYTE	W96
// 080   ----------------------------------------
	BYTE	PATT
	 POIN2	HiryuNoKen2_9_011
// 081   ----------------------------------------
	BYTE	W96
// 082   ----------------------------------------
	BYTE	PATT
	 POIN2	HiryuNoKen2_9_001
// 083   ----------------------------------------
	BYTE	W96
// 084   ----------------------------------------
	BYTE	PATT
	 POIN2	HiryuNoKen2_9_011
// 085   ----------------------------------------
	BYTE	W96
// 086   ----------------------------------------
	BYTE	PATT
	 POIN2	HiryuNoKen2_9_001
// 087   ----------------------------------------
	BYTE	PATT
	 POIN2	HiryuNoKen2_9_018
// 088   ----------------------------------------
	BYTE	PATT
	 POIN2	HiryuNoKen2_9_019
// 089   ----------------------------------------
	BYTE	PATT
	 POIN2	HiryuNoKen2_9_020
// 090   ----------------------------------------
	BYTE	PATT
	 POIN2	HiryuNoKen2_9_021
// 091   ----------------------------------------
	BYTE	W11
	BYTE		N04     An3   v120
	BYTE		N04     Dn4 
	BYTE		N04     An4 
	BYTE		N04     Dn5 
	BYTE	W06
	BYTE		        An3 
	BYTE		N04     Dn4 
	BYTE		N04     An4 
	BYTE		N04     Dn5 
	BYTE	W06
	BYTE		        An3 
	BYTE		N04     Dn4 
	BYTE		N04     An4 
	BYTE		N04     Dn5 
	BYTE	W06
	BYTE		        An3 
	BYTE		N04     Dn4 
	BYTE		N04     An4 
	BYTE		N04     Dn5 
	BYTE	W12
	BYTE		        An3 
	BYTE		N04     Dn4 
	BYTE		N04     An4 
	BYTE		N04     Dn5 
	BYTE	W12
	BYTE		        An3 
	BYTE		N04     Dn4 
	BYTE		N04     An4 
	BYTE		N04     Dn5 
	BYTE	W06
	BYTE		        Gn3 
	BYTE		N04     Dn4 
	BYTE		N04     Gn4 
	BYTE		N04     Dn5 
	BYTE	W12
	BYTE		        Gn3 
	BYTE		N04     Dn4 
	BYTE		N04     Gn4 
	BYTE		N04     Dn5 
	BYTE	W12
	BYTE		        Gn3 
	BYTE		N04     Cn4 
	BYTE		N04     Gn4 
	BYTE		N04     Cn5 
	BYTE	W06
	BYTE		        En3 
	BYTE		N04     An3 
	BYTE		N04     En4 
	BYTE		N04     An4 
	BYTE	W06
	BYTE	GoTo
	 POIN2	HiryuNoKen2_9_B1
HiryuNoKen2_9_B2:
	BYTE	FINE

//**************** Track 10 (Midi-Chn.11) ****************//

HiryuNoKen2_10:
	BYTE	KEYSH   HiryuNoKen2_key+0
HiryuNoKen2_10_B1:
// 000   ----------------------------------------
	BYTE		VOICE   127
	BYTE		VOL     47*HiryuNoKen2_mvl/mxv
	BYTE		PAN     c_v+0
	BYTE		N06     Cn1   v120
	BYTE		N06     Gs1   v068
	BYTE		N96     Cs2   v120
	BYTE	W06
	BYTE		N06     Fs1   v068
	BYTE	W06
	BYTE		        En1   v120
	BYTE		N06     As1   v068
	BYTE	W06
	BYTE		        En1   v120
	BYTE		N06     Gs1   v068
	BYTE	W06
	BYTE		        Cn1   v120
	BYTE		N06     Fs1   v068
	BYTE	W06
	BYTE		N06   
	BYTE	W06
	BYTE		        En1   v120
	BYTE		N06     As1   v068
	BYTE	W06
	BYTE		        En1   v120
	BYTE		N06     Gs1   v068
	BYTE	W06
	BYTE		        Cn1   v120
	BYTE		N01     Gs1   v068
	BYTE	W06
	BYTE		N06     Fs1 
	BYTE	W06
	BYTE		        En1   v120
	BYTE		N06     As1   v068
	BYTE	W06
	BYTE		        En1   v120
	BYTE		N06     Gs1   v068
	BYTE	W06
	BYTE		        Cn1   v120
	BYTE		N06     Fs1   v068
	BYTE	W06
	BYTE		N06   
	BYTE	W06
	BYTE		        En1   v120
	BYTE		N06     As1   v068
	BYTE	W06
	BYTE		        En1   v120
	BYTE		N06     Gs1   v068
	BYTE	W06
// 001   ----------------------------------------
HiryuNoKen2_10_001:
	BYTE		N06     Cn1   v120
	BYTE		N01     Gs1   v068
	BYTE	W06
	BYTE		N06     Fs1 
	BYTE	W06
	BYTE		        En1   v120
	BYTE		N06     As1   v068
	BYTE	W06
	BYTE		        En1   v120
	BYTE		N06     Gs1   v068
	BYTE	W06
	BYTE		        Cn1   v120
	BYTE		N06     Fs1   v068
	BYTE	W06
	BYTE		N06   
	BYTE	W06
	BYTE		        En1   v120
	BYTE		N06     As1   v068
	BYTE	W06
	BYTE		        En1   v120
	BYTE		N06     Gs1   v068
	BYTE	W06
	BYTE		        Cn1   v120
	BYTE		N01     Gs1   v068
	BYTE	W06
	BYTE		N06     Fs1 
	BYTE	W06
	BYTE		        En1   v120
	BYTE		N06     As1   v068
	BYTE	W06
	BYTE		        En1   v120
	BYTE		N06     Gs1   v068
	BYTE	W06
	BYTE		        Cn1   v120
	BYTE		N06     Fs1   v068
	BYTE	W06
	BYTE		N06   
	BYTE	W06
	BYTE		        En1   v120
	BYTE		N06     As1   v068
	BYTE	W06
	BYTE		        En1   v120
	BYTE		N06     Gs1   v068
	BYTE	W06
	BYTE	PEND
// 002   ----------------------------------------
HiryuNoKen2_10_002:
	BYTE		N06     Cn1   v120
	BYTE		N01     Gs1   v068
	BYTE		N96     Cs2   v120
	BYTE	W06
	BYTE		N06     Fs1   v068
	BYTE	W06
	BYTE		        En1   v120
	BYTE		N06     As1   v068
	BYTE	W06
	BYTE		        En1   v120
	BYTE		N06     Gs1   v068
	BYTE	W06
	BYTE		        Cn1   v120
	BYTE		N06     Fs1   v068
	BYTE	W06
	BYTE		N06   
	BYTE	W06
	BYTE		        En1   v120
	BYTE		N06     As1   v068
	BYTE	W06
	BYTE		        En1   v120
	BYTE		N06     Gs1   v068
	BYTE	W06
	BYTE		        Cn1   v120
	BYTE		N01     Gs1   v068
	BYTE	W06
	BYTE		N06     Fs1 
	BYTE	W06
	BYTE		        En1   v120
	BYTE		N06     As1   v068
	BYTE	W06
	BYTE		        En1   v120
	BYTE		N06     Gs1   v068
	BYTE	W06
	BYTE		        Cn1   v120
	BYTE		N06     Fs1   v068
	BYTE	W06
	BYTE		N06   
	BYTE	W06
	BYTE		        En1   v120
	BYTE		N06     As1   v068
	BYTE	W06
	BYTE		        En1   v120
	BYTE		N06     Gs1   v068
	BYTE	W06
	BYTE	PEND
// 003   ----------------------------------------
	BYTE	PATT
	 POIN2	HiryuNoKen2_10_001
// 004   ----------------------------------------
	BYTE	PATT
	 POIN2	HiryuNoKen2_10_001
// 005   ----------------------------------------
	BYTE	PATT
	 POIN2	HiryuNoKen2_10_001
// 006   ----------------------------------------
	BYTE	PATT
	 POIN2	HiryuNoKen2_10_002
// 007   ----------------------------------------
	BYTE	PATT
	 POIN2	HiryuNoKen2_10_001
// 008   ----------------------------------------
	BYTE	PATT
	 POIN2	HiryuNoKen2_10_001
// 009   ----------------------------------------
HiryuNoKen2_10_009:
	BYTE		N06     Cn1   v120
	BYTE		N01     Gs1   v068
	BYTE	W06
	BYTE		N06     Fs1 
	BYTE	W06
	BYTE		        En1   v120
	BYTE		N06     As1   v068
	BYTE	W06
	BYTE		        En1   v120
	BYTE		N06     Gs1   v068
	BYTE	W06
	BYTE		        Cn1   v120
	BYTE		N06     Fs1   v068
	BYTE	W06
	BYTE		N06   
	BYTE	W06
	BYTE		        En1   v120
	BYTE		N06     As1   v068
	BYTE	W06
	BYTE		        En1   v120
	BYTE		N06     Gs1   v068
	BYTE	W06
	BYTE		        Cn1   v120
	BYTE		N01     Gs1   v068
	BYTE	W06
	BYTE		N06     Fs1 
	BYTE	W06
	BYTE		        En1   v120
	BYTE		N06     As1   v068
	BYTE	W06
	BYTE		        En1   v120
	BYTE		N06     Gs1   v068
	BYTE	W06
	BYTE		N01     En1   v120
	BYTE		N06     Fs1   v068
	BYTE	W06
	BYTE		        Cn1   v120
	BYTE		N06     Fs1   v068
	BYTE	W06
	BYTE		        En1   v120
	BYTE		N06     As1   v068
	BYTE	W06
	BYTE		        En1   v120
	BYTE		N06     Gs1   v068
	BYTE	W06
	BYTE	PEND
// 010   ----------------------------------------
	BYTE	PATT
	 POIN2	HiryuNoKen2_10_002
// 011   ----------------------------------------
	BYTE	PATT
	 POIN2	HiryuNoKen2_10_001
// 012   ----------------------------------------
	BYTE	PATT
	 POIN2	HiryuNoKen2_10_001
// 013   ----------------------------------------
	BYTE	PATT
	 POIN2	HiryuNoKen2_10_001
// 014   ----------------------------------------
	BYTE	PATT
	 POIN2	HiryuNoKen2_10_002
// 015   ----------------------------------------
	BYTE	PATT
	 POIN2	HiryuNoKen2_10_001
// 016   ----------------------------------------
	BYTE	PATT
	 POIN2	HiryuNoKen2_10_001
// 017   ----------------------------------------
HiryuNoKen2_10_017:
	BYTE		N06     Cn1   v120
	BYTE		N01     Gs1   v068
	BYTE	W06
	BYTE		N06     Fs1 
	BYTE	W06
	BYTE		        En1   v120
	BYTE		N06     As1   v068
	BYTE	W06
	BYTE		        En1   v120
	BYTE		N06     Gs1   v068
	BYTE	W06
	BYTE		        Cn1   v120
	BYTE		N06     Fs1   v068
	BYTE	W06
	BYTE		N06   
	BYTE	W06
	BYTE		        En1   v120
	BYTE		N06     As1   v068
	BYTE	W06
	BYTE		        En1   v120
	BYTE		N06     Gs1   v068
	BYTE	W06
	BYTE		        Cn1   v120
	BYTE		N01     Gs1   v068
	BYTE	W06
	BYTE		N06     Fs1 
	BYTE	W06
	BYTE		        En1   v120
	BYTE		N06     As1   v068
	BYTE	W06
	BYTE		        En1   v120
	BYTE		N06     Gs1   v068
	BYTE	W06
	BYTE		N01     En1   v120
	BYTE		N06     Fs1   v068
	BYTE	W06
	BYTE		        En1   v120
	BYTE		N06     Fs1   v068
	BYTE	W06
	BYTE		        En1   v120
	BYTE		N06     As1   v068
	BYTE	W06
	BYTE		        En1   v120
	BYTE		N06     Gs1   v068
	BYTE	W06
	BYTE	PEND
// 018   ----------------------------------------
HiryuNoKen2_10_018:
	BYTE		N11     Cn1   v120
	BYTE		N96     Cs2 
	BYTE	W24
	BYTE		N11     Cn1 
	BYTE	W24
	BYTE		N11   
	BYTE	W24
	BYTE		N11   
	BYTE	W24
	BYTE	PEND
// 019   ----------------------------------------
HiryuNoKen2_10_019:
	BYTE		N11     Cn1   v120
	BYTE		N96     Cs2 
	BYTE	W24
	BYTE		N11     Cn1 
	BYTE	W24
	BYTE		N11   
	BYTE	W24
	BYTE		N11   
	BYTE		N06     En1 
	BYTE	W06
	BYTE		N06   
	BYTE	W06
	BYTE		N06   
	BYTE	W12
	BYTE	PEND
// 020   ----------------------------------------
HiryuNoKen2_10_020:
	BYTE		N11     Cn1   v120
	BYTE		N96     Cs2 
	BYTE	W24
	BYTE		N11     Cn1 
	BYTE	W24
	BYTE		N11   
	BYTE	W24
	BYTE		N11   
	BYTE		N11     En1 
	BYTE	W24
	BYTE	PEND
// 021   ----------------------------------------
HiryuNoKen2_10_021:
	BYTE		N11     Cn1   v120
	BYTE	W24
	BYTE		N11   
	BYTE	W24
	BYTE		N11   
	BYTE	W24
	BYTE		N11   
	BYTE		N11     En1 
	BYTE		N11     Cs2 
	BYTE	W24
	BYTE	PEND
// 022   ----------------------------------------
HiryuNoKen2_10_022:
	BYTE		N06     Cn1   v120
	BYTE		N72     Cs2 
	BYTE	W06
	BYTE		N06     Cn1 
	BYTE	W06
	BYTE		        En1 
	BYTE	W06
	BYTE		N06   
	BYTE	W06
	BYTE		        Cn1 
	BYTE	W06
	BYTE		N11     En1 
	BYTE	W12
	BYTE		N06     Cn1 
	BYTE	W06
	BYTE		        En1 
	BYTE	W06
	BYTE		        Cn1 
	BYTE	W06
	BYTE		N11     En1 
	BYTE	W12
	BYTE		N06     Cn1 
	BYTE		N24     Cs2 
	BYTE	W06
	BYTE		N06     Cn1 
	BYTE	W06
	BYTE		        En1 
	BYTE	W06
	BYTE		N06   
	BYTE	W06
	BYTE	PEND
// 023   ----------------------------------------
HiryuNoKen2_10_023:
	BYTE		N06     Cn1   v120
	BYTE		N06     Gs1   v068
	BYTE		N96     Cs2   v120
	BYTE	W06
	BYTE		N06     Fs1   v068
	BYTE	W06
	BYTE		        En1   v120
	BYTE		N06     As1   v068
	BYTE	W06
	BYTE		        En1   v120
	BYTE		N06     Gs1   v068
	BYTE	W06
	BYTE		        Cn1   v120
	BYTE		N06     Fs1   v068
	BYTE	W06
	BYTE		N06   
	BYTE	W06
	BYTE		        En1   v120
	BYTE		N06     As1   v068
	BYTE	W06
	BYTE		        En1   v120
	BYTE		N06     Gs1   v068
	BYTE	W06
	BYTE		        Cn1   v120
	BYTE		N01     Gs1   v068
	BYTE	W06
	BYTE		N06     Fs1 
	BYTE	W06
	BYTE		        En1   v120
	BYTE		N06     As1   v068
	BYTE	W06
	BYTE		        En1   v120
	BYTE		N06     Gs1   v068
	BYTE	W06
	BYTE		        Cn1   v120
	BYTE		N06     Fs1   v068
	BYTE	W06
	BYTE		N06   
	BYTE	W06
	BYTE		        En1   v120
	BYTE		N06     As1   v068
	BYTE	W06
	BYTE		        En1   v120
	BYTE		N06     Gs1   v068
	BYTE	W06
	BYTE	PEND
// 024   ----------------------------------------
	BYTE	PATT
	 POIN2	HiryuNoKen2_10_001
// 025   ----------------------------------------
	BYTE	PATT
	 POIN2	HiryuNoKen2_10_002
// 026   ----------------------------------------
	BYTE	PATT
	 POIN2	HiryuNoKen2_10_001
// 027   ----------------------------------------
	BYTE	PATT
	 POIN2	HiryuNoKen2_10_001
// 028   ----------------------------------------
	BYTE	PATT
	 POIN2	HiryuNoKen2_10_001
// 029   ----------------------------------------
	BYTE	PATT
	 POIN2	HiryuNoKen2_10_002
// 030   ----------------------------------------
	BYTE	PATT
	 POIN2	HiryuNoKen2_10_001
// 031   ----------------------------------------
	BYTE	PATT
	 POIN2	HiryuNoKen2_10_001
// 032   ----------------------------------------
	BYTE	PATT
	 POIN2	HiryuNoKen2_10_009
// 033   ----------------------------------------
	BYTE	PATT
	 POIN2	HiryuNoKen2_10_002
// 034   ----------------------------------------
	BYTE	PATT
	 POIN2	HiryuNoKen2_10_001
// 035   ----------------------------------------
	BYTE	PATT
	 POIN2	HiryuNoKen2_10_001
// 036   ----------------------------------------
	BYTE	PATT
	 POIN2	HiryuNoKen2_10_001
// 037   ----------------------------------------
	BYTE	PATT
	 POIN2	HiryuNoKen2_10_002
// 038   ----------------------------------------
	BYTE	PATT
	 POIN2	HiryuNoKen2_10_001
// 039   ----------------------------------------
	BYTE	PATT
	 POIN2	HiryuNoKen2_10_001
// 040   ----------------------------------------
	BYTE	PATT
	 POIN2	HiryuNoKen2_10_017
// 041   ----------------------------------------
	BYTE	PATT
	 POIN2	HiryuNoKen2_10_018
// 042   ----------------------------------------
	BYTE	PATT
	 POIN2	HiryuNoKen2_10_019
// 043   ----------------------------------------
	BYTE	PATT
	 POIN2	HiryuNoKen2_10_020
// 044   ----------------------------------------
	BYTE	PATT
	 POIN2	HiryuNoKen2_10_021
// 045   ----------------------------------------
	BYTE	PATT
	 POIN2	HiryuNoKen2_10_022
// 046   ----------------------------------------
	BYTE	PATT
	 POIN2	HiryuNoKen2_10_023
// 047   ----------------------------------------
	BYTE	PATT
	 POIN2	HiryuNoKen2_10_001
// 048   ----------------------------------------
	BYTE	PATT
	 POIN2	HiryuNoKen2_10_002
// 049   ----------------------------------------
	BYTE	PATT
	 POIN2	HiryuNoKen2_10_001
// 050   ----------------------------------------
	BYTE	PATT
	 POIN2	HiryuNoKen2_10_001
// 051   ----------------------------------------
	BYTE	PATT
	 POIN2	HiryuNoKen2_10_001
// 052   ----------------------------------------
	BYTE	PATT
	 POIN2	HiryuNoKen2_10_002
// 053   ----------------------------------------
	BYTE	PATT
	 POIN2	HiryuNoKen2_10_001
// 054   ----------------------------------------
	BYTE	PATT
	 POIN2	HiryuNoKen2_10_001
// 055   ----------------------------------------
	BYTE	PATT
	 POIN2	HiryuNoKen2_10_009
// 056   ----------------------------------------
	BYTE	PATT
	 POIN2	HiryuNoKen2_10_002
// 057   ----------------------------------------
	BYTE	PATT
	 POIN2	HiryuNoKen2_10_001
// 058   ----------------------------------------
	BYTE	PATT
	 POIN2	HiryuNoKen2_10_001
// 059   ----------------------------------------
	BYTE	PATT
	 POIN2	HiryuNoKen2_10_001
// 060   ----------------------------------------
	BYTE	PATT
	 POIN2	HiryuNoKen2_10_002
// 061   ----------------------------------------
	BYTE	PATT
	 POIN2	HiryuNoKen2_10_001
// 062   ----------------------------------------
	BYTE	PATT
	 POIN2	HiryuNoKen2_10_001
// 063   ----------------------------------------
	BYTE	PATT
	 POIN2	HiryuNoKen2_10_017
// 064   ----------------------------------------
	BYTE	PATT
	 POIN2	HiryuNoKen2_10_018
// 065   ----------------------------------------
	BYTE	PATT
	 POIN2	HiryuNoKen2_10_019
// 066   ----------------------------------------
	BYTE	PATT
	 POIN2	HiryuNoKen2_10_020
// 067   ----------------------------------------
	BYTE	PATT
	 POIN2	HiryuNoKen2_10_021
// 068   ----------------------------------------
	BYTE	PATT
	 POIN2	HiryuNoKen2_10_022
// 069   ----------------------------------------
	BYTE	PATT
	 POIN2	HiryuNoKen2_10_023
// 070   ----------------------------------------
	BYTE	PATT
	 POIN2	HiryuNoKen2_10_001
// 071   ----------------------------------------
	BYTE	PATT
	 POIN2	HiryuNoKen2_10_002
// 072   ----------------------------------------
	BYTE	PATT
	 POIN2	HiryuNoKen2_10_001
// 073   ----------------------------------------
	BYTE	PATT
	 POIN2	HiryuNoKen2_10_001
// 074   ----------------------------------------
	BYTE	PATT
	 POIN2	HiryuNoKen2_10_001
// 075   ----------------------------------------
	BYTE	PATT
	 POIN2	HiryuNoKen2_10_002
// 076   ----------------------------------------
	BYTE	PATT
	 POIN2	HiryuNoKen2_10_001
// 077   ----------------------------------------
	BYTE	PATT
	 POIN2	HiryuNoKen2_10_001
// 078   ----------------------------------------
	BYTE	PATT
	 POIN2	HiryuNoKen2_10_009
// 079   ----------------------------------------
	BYTE	PATT
	 POIN2	HiryuNoKen2_10_002
// 080   ----------------------------------------
	BYTE	PATT
	 POIN2	HiryuNoKen2_10_001
// 081   ----------------------------------------
	BYTE	PATT
	 POIN2	HiryuNoKen2_10_001
// 082   ----------------------------------------
	BYTE	PATT
	 POIN2	HiryuNoKen2_10_001
// 083   ----------------------------------------
	BYTE	PATT
	 POIN2	HiryuNoKen2_10_002
// 084   ----------------------------------------
	BYTE	PATT
	 POIN2	HiryuNoKen2_10_001
// 085   ----------------------------------------
	BYTE	PATT
	 POIN2	HiryuNoKen2_10_001
// 086   ----------------------------------------
	BYTE	PATT
	 POIN2	HiryuNoKen2_10_017
// 087   ----------------------------------------
	BYTE	PATT
	 POIN2	HiryuNoKen2_10_018
// 088   ----------------------------------------
	BYTE	PATT
	 POIN2	HiryuNoKen2_10_019
// 089   ----------------------------------------
	BYTE	PATT
	 POIN2	HiryuNoKen2_10_020
// 090   ----------------------------------------
	BYTE	PATT
	 POIN2	HiryuNoKen2_10_021
// 091   ----------------------------------------
	BYTE		N05     Cn1   v120
	BYTE		N68     Cs2 
	BYTE	W06
	BYTE		N05     Cn1 
	BYTE	W06
	BYTE		        En1 
	BYTE	W06
	BYTE		N05   
	BYTE	W06
	BYTE		        Cn1 
	BYTE	W06
	BYTE		N11     En1 
	BYTE	W12
	BYTE		N05     Cn1 
	BYTE	W06
	BYTE		        En1 
	BYTE	W06
	BYTE		        Cn1 
	BYTE	W06
	BYTE		N11     En1 
	BYTE	W12
	BYTE		N05     Cn1 
	BYTE		N23     Cs2 
	BYTE	W06
	BYTE		N05     Cn1 
	BYTE	W06
	BYTE		        En1 
	BYTE	W06
	BYTE		N05   
	BYTE	W05
	BYTE	GoTo
	 POIN2	HiryuNoKen2_10_B1
HiryuNoKen2_10_B2:
	BYTE	FINE

//******************************************************//
	ALIGN 4

HiryuNoKen2:
	BYTE	10	// NumTrks
	BYTE	0	// NumBlks
	BYTE	HiryuNoKen2_pri	// Priority
	BYTE	HiryuNoKen2_rev	// Reverb.

	POIN2	HiryuNoKen2_grp

	POIN2	HiryuNoKen2_1
	POIN2	HiryuNoKen2_2
	POIN2	HiryuNoKen2_3
	POIN2	HiryuNoKen2_4
	POIN2	HiryuNoKen2_5
	POIN2	HiryuNoKen2_6
	POIN2	HiryuNoKen2_7
	POIN2	HiryuNoKen2_8
	POIN2	HiryuNoKen2_9
	POIN2	HiryuNoKen2_10

	
