//Event file generated from Sappy .s format.
	#include "MPlayDef.event"

	#define	KnightErrand_grp  voicegroup000
	#define	KnightErrand_pri  0
	#define	KnightErrand_rev  0
	#define	KnightErrand_mvl  50
	#define	KnightErrand_key  0
	#define	KnightErrand_tbs  1
	#define	KnightErrand_exg  0
	#define	KnightErrand_cmp  1

	// .rodata
	//	KnightErrand
	ALIGN 4

//**************** Track 1 (Midi-Chn.1) ****************//

KnightErrand_1:
	BYTE	KEYSH   KnightErrand_key+0
// 000   ----------------------------------------
	BYTE	TEMPO   161*KnightErrand_tbs/2
	BYTE		VOICE   57
	BYTE		VOL     127*KnightErrand_mvl/mxv
	BYTE		PAN     c_v+0
	BYTE	W24
// 001   ----------------------------------------
	BYTE	W24
// 002   ----------------------------------------
	BYTE	W24
// 003   ----------------------------------------
	BYTE	W24
KnightErrand_1_B1:
// 004   ----------------------------------------
	BYTE	W24
// 005   ----------------------------------------
	BYTE	W24
// 006   ----------------------------------------
	BYTE	W24
// 007   ----------------------------------------
	BYTE	W24
// 008   ----------------------------------------
	BYTE	W24
// 009   ----------------------------------------
	BYTE	W24
// 010   ----------------------------------------
	BYTE	W24
// 011   ----------------------------------------
	BYTE	W24
// 012   ----------------------------------------
	BYTE	W24
// 013   ----------------------------------------
	BYTE	W24
// 014   ----------------------------------------
	BYTE	W24
// 015   ----------------------------------------
	BYTE	W24
// 016   ----------------------------------------
	BYTE	W24
// 017   ----------------------------------------
	BYTE	W12
	BYTE		BEND    c_v-26
	BYTE		N24     An2   v108
	BYTE	W01
	BYTE		BEND    c_v-20
	BYTE	W01
	BYTE		        c_v-16
	BYTE	W01
	BYTE		        c_v-12
	BYTE	W01
	BYTE		        c_v-10
	BYTE	W01
	BYTE		        c_v-8
	BYTE	W01
	BYTE		        c_v-6
	BYTE	W01
	BYTE		        c_v-5
	BYTE	W01
	BYTE		        c_v-3
	BYTE	W02
	BYTE		        c_v+0
	BYTE	W01
	BYTE		        c_v+5
	BYTE	W01
// 018   ----------------------------------------
	BYTE		        c_v-6
	BYTE	W04
	BYTE		        c_v+5
	BYTE	W04
	BYTE		        c_v-6
	BYTE	W04
	BYTE		        c_v+0
	BYTE		N06     Gn2 
	BYTE	W06
	BYTE		        Fn2 
	BYTE	W06
// 019   ----------------------------------------
	BYTE		BEND    c_v+0
	BYTE		N48     En2 
	BYTE	W24
// 020   ----------------------------------------
KnightErrand_1_020:
	BYTE		BEND    c_v+4
	BYTE	W06
	BYTE		        c_v-4
	BYTE	W06
	BYTE		        c_v+4
	BYTE	W06
	BYTE		        c_v-4
	BYTE	W06
	BYTE	PEND
// 021   ----------------------------------------
KnightErrand_1_021:
	BYTE		BEND    c_v+0
	BYTE		N12     En2   v108
	BYTE	W12
	BYTE		        Fn2 
	BYTE	W12
	BYTE	PEND
// 022   ----------------------------------------
KnightErrand_1_022:
	BYTE		N12     En2   v108
	BYTE	W12
	BYTE		N36     Cn2 
	BYTE	W12
	BYTE	PEND
// 023   ----------------------------------------
	BYTE	W24
// 024   ----------------------------------------
	BYTE		N72     An1 
	BYTE	W24
// 025   ----------------------------------------
	BYTE	PATT
	 POIN2	KnightErrand_1_020
// 026   ----------------------------------------
	BYTE	PATT
	 POIN2	KnightErrand_1_020
// 027   ----------------------------------------
	BYTE	PATT
	 POIN2	KnightErrand_1_020
// 028   ----------------------------------------
	BYTE		BEND    c_v+0
	BYTE		N12     Dn2   v108
	BYTE	W12
	BYTE		        En2 
	BYTE	W12
// 029   ----------------------------------------
KnightErrand_1_029:
	BYTE		N12     Fn2   v108
	BYTE	W12
	BYTE		        An2 
	BYTE	W12
	BYTE	PEND
// 030   ----------------------------------------
	BYTE	W12
	BYTE		BEND    c_v-43
	BYTE		N24     Gn2 
	BYTE	W01
	BYTE		BEND    c_v-20
	BYTE	W01
	BYTE		        c_v-9
	BYTE	W01
	BYTE		        c_v-4
	BYTE	W01
	BYTE		        c_v-2
	BYTE	W01
	BYTE		        c_v-1
	BYTE	W01
	BYTE		        c_v+0
	BYTE	W06
// 031   ----------------------------------------
	BYTE	W12
	BYTE		N12     Fn2 
	BYTE	W12
// 032   ----------------------------------------
	BYTE		        Gn2 
	BYTE	W12
	BYTE		N52     En2 
	BYTE	W12
// 033   ----------------------------------------
	BYTE		BEND    c_v+0
	BYTE	W12
	BYTE		        c_v-1
	BYTE	W06
	BYTE		        c_v-2
	BYTE	W03
	BYTE		        c_v-3
	BYTE	W03
// 034   ----------------------------------------
	BYTE		        c_v-4
	BYTE	W02
	BYTE		        c_v-5
	BYTE	W01
	BYTE		        c_v-6
	BYTE	W02
	BYTE		        c_v-7
	BYTE	W01
	BYTE		        c_v-8
	BYTE	W01
	BYTE		        c_v-9
	BYTE	W01
	BYTE		        c_v-11
	BYTE	W01
	BYTE		        c_v-12
	BYTE	W01
	BYTE		        c_v-13
	BYTE	W01
	BYTE		        c_v-15
	BYTE	W01
	BYTE		        c_v-17
	BYTE	W01
	BYTE		        c_v-19
	BYTE	W01
	BYTE		        c_v-22
	BYTE	W01
	BYTE		        c_v-24
	BYTE	W01
	BYTE		        c_v-28
	BYTE	W01
	BYTE		        c_v-31
	BYTE	W01
	BYTE		        c_v-35
	BYTE	W01
	BYTE		        c_v-39
	BYTE	W01
	BYTE		        c_v-44
	BYTE	W01
	BYTE		        c_v-50
	BYTE	W01
	BYTE		        c_v+0
	BYTE	W02
// 035   ----------------------------------------
	BYTE		        c_v+0
	BYTE		N48     Fn2 
	BYTE	W24
// 036   ----------------------------------------
	BYTE	PATT
	 POIN2	KnightErrand_1_020
// 037   ----------------------------------------
	BYTE		BEND    c_v+0
	BYTE		N12     Fn2   v108
	BYTE	W12
	BYTE		        En2 
	BYTE	W12
// 038   ----------------------------------------
	BYTE		        Fn2 
	BYTE	W12
	BYTE		N24     Gn2 
	BYTE	W12
// 039   ----------------------------------------
	BYTE	W12
	BYTE		        En2 
	BYTE	W12
// 040   ----------------------------------------
	BYTE	W12
	BYTE		N16     Cn2 
	BYTE	W12
// 041   ----------------------------------------
	BYTE	W12
	BYTE		N08   
	BYTE	W12
// 042   ----------------------------------------
	BYTE		BEND    c_v-41
	BYTE		N12     As2 
	BYTE	W01
	BYTE		BEND    c_v-19
	BYTE	W01
	BYTE		        c_v-9
	BYTE	W01
	BYTE		        c_v-4
	BYTE	W01
	BYTE		        c_v-2
	BYTE	W01
	BYTE		        c_v+0
	BYTE	W07
	BYTE		N60     An2 
	BYTE	W12
// 043   ----------------------------------------
KnightErrand_1_043:
	BYTE	W12
	BYTE		BEND    c_v+4
	BYTE	W06
	BYTE		        c_v-4
	BYTE	W06
	BYTE	PEND
// 044   ----------------------------------------
	BYTE	PATT
	 POIN2	KnightErrand_1_020
// 045   ----------------------------------------
	BYTE		BEND    c_v+4
	BYTE	W06
	BYTE		        c_v-4
	BYTE	W06
	BYTE		        c_v-45
	BYTE		N24     An2   v108
	BYTE	W01
	BYTE		BEND    c_v-28
	BYTE	W01
	BYTE		        c_v-17
	BYTE	W01
	BYTE		        c_v-10
	BYTE	W01
	BYTE		        c_v-6
	BYTE	W01
	BYTE		        c_v-3
	BYTE	W01
	BYTE		        c_v-2
	BYTE	W01
	BYTE		        c_v-1
	BYTE	W01
	BYTE		        c_v+0
	BYTE	W04
// 046   ----------------------------------------
	BYTE	W12
	BYTE		N06     Gn2 
	BYTE	W06
	BYTE		        Fn2 
	BYTE	W06
// 047   ----------------------------------------
	BYTE		N12     Gn2 
	BYTE	W12
	BYTE		        An2 
	BYTE	W12
// 048   ----------------------------------------
	BYTE		        Gn2 
	BYTE	W12
	BYTE		        Fn2 
	BYTE	W12
// 049   ----------------------------------------
	BYTE		        En2 
	BYTE	W12
	BYTE		        Cn2 
	BYTE	W12
// 050   ----------------------------------------
	BYTE		        An1 
	BYTE	W12
	BYTE		BEND    c_v-49
	BYTE		N60     En2 
	BYTE	W01
	BYTE		BEND    c_v-30
	BYTE	W01
	BYTE		        c_v-19
	BYTE	W01
	BYTE		        c_v-11
	BYTE	W01
	BYTE		        c_v-7
	BYTE	W01
	BYTE		        c_v-4
	BYTE	W01
	BYTE		        c_v-2
	BYTE	W01
	BYTE		        c_v-1
	BYTE	W02
	BYTE		        c_v+0
	BYTE	W03
// 051   ----------------------------------------
	BYTE	PATT
	 POIN2	KnightErrand_1_020
// 052   ----------------------------------------
	BYTE	PATT
	 POIN2	KnightErrand_1_020
// 053   ----------------------------------------
	BYTE	PATT
	 POIN2	KnightErrand_1_021
// 054   ----------------------------------------
	BYTE	PATT
	 POIN2	KnightErrand_1_022
// 055   ----------------------------------------
	BYTE	W24
// 056   ----------------------------------------
	BYTE		N72     An1   v108
	BYTE	W24
// 057   ----------------------------------------
	BYTE	PATT
	 POIN2	KnightErrand_1_020
// 058   ----------------------------------------
	BYTE	PATT
	 POIN2	KnightErrand_1_020
// 059   ----------------------------------------
	BYTE	PATT
	 POIN2	KnightErrand_1_020
// 060   ----------------------------------------
	BYTE		BEND    c_v-43
	BYTE		N12     Dn2   v108
	BYTE	W01
	BYTE		BEND    c_v-20
	BYTE	W01
	BYTE		        c_v-9
	BYTE	W01
	BYTE		        c_v-4
	BYTE	W01
	BYTE		        c_v-2
	BYTE	W01
	BYTE		        c_v-1
	BYTE	W01
	BYTE		        c_v+0
	BYTE	W06
	BYTE		N12     En2 
	BYTE	W12
// 061   ----------------------------------------
	BYTE	PATT
	 POIN2	KnightErrand_1_029
// 062   ----------------------------------------
	BYTE	W12
	BYTE		N24     Gn2   v108
	BYTE	W12
// 063   ----------------------------------------
	BYTE	W12
	BYTE		N12     Fn2 
	BYTE	W12
// 064   ----------------------------------------
	BYTE		        Gn2 
	BYTE	W12
	BYTE		N42     En2 
	BYTE	W12
// 065   ----------------------------------------
	BYTE	PATT
	 POIN2	KnightErrand_1_020
// 066   ----------------------------------------
	BYTE		BEND    c_v+4
	BYTE	W06
	BYTE		        c_v-4
	BYTE	W06
	BYTE		        c_v+0
	BYTE		N06     Fn2   v108
	BYTE	W06
	BYTE		        Gn2 
	BYTE	W06
// 067   ----------------------------------------
	BYTE		N48     An2 
	BYTE	W24
// 068   ----------------------------------------
	BYTE	PATT
	 POIN2	KnightErrand_1_020
// 069   ----------------------------------------
	BYTE		BEND    c_v+0
	BYTE		N12     An2   v108
	BYTE	W12
	BYTE		        Cn3 
	BYTE	W12
// 070   ----------------------------------------
	BYTE		        As2 
	BYTE	W12
	BYTE		N60     An2 
	BYTE	W12
// 071   ----------------------------------------
	BYTE	PATT
	 POIN2	KnightErrand_1_043
// 072   ----------------------------------------
	BYTE	PATT
	 POIN2	KnightErrand_1_020
// 073   ----------------------------------------
	BYTE		BEND    c_v+0
	BYTE		N12     Gn2   v108
	BYTE	W12
	BYTE		        Fn2 
	BYTE	W12
// 074   ----------------------------------------
	BYTE		        Gn2 
	BYTE	W12
	BYTE		TIE     An2 
	BYTE	W12
// 075   ----------------------------------------
	BYTE	PATT
	 POIN2	KnightErrand_1_043
// 076   ----------------------------------------
	BYTE	PATT
	 POIN2	KnightErrand_1_020
// 077   ----------------------------------------
	BYTE	PATT
	 POIN2	KnightErrand_1_020
// 078   ----------------------------------------
	BYTE	PATT
	 POIN2	KnightErrand_1_020
// 079   ----------------------------------------
	BYTE		BEND    c_v+4
	BYTE	W06
	BYTE		        c_v-4
	BYTE	W06
	BYTE		        c_v+4
	BYTE	W06
	BYTE		        c_v+0
	BYTE	W06
	BYTE		EOT     An2 
// 080   ----------------------------------------
	BYTE	W24
// 081   ----------------------------------------
	BYTE	W24
// 082   ----------------------------------------
	BYTE	W24
// 083   ----------------------------------------
	BYTE		BEND    c_v-52
	BYTE		N60     Fn3   v092
	BYTE	W01
	BYTE		BEND    c_v-37
	BYTE	W01
	BYTE		        c_v-25
	BYTE	W01
	BYTE		        c_v-18
	BYTE	W01
	BYTE		        c_v-12
	BYTE	W01
	BYTE		        c_v-8
	BYTE	W01
	BYTE		        c_v-6
	BYTE	W01
	BYTE		        c_v-4
	BYTE	W01
	BYTE		        c_v-3
	BYTE	W01
	BYTE		        c_v-2
	BYTE	W01
	BYTE		        c_v-1
	BYTE	W02
	BYTE		        c_v+0
	BYTE	W12
// 084   ----------------------------------------
	BYTE	W24
// 085   ----------------------------------------
	BYTE	W12
	BYTE		N12     Dn3 
	BYTE	W12
// 086   ----------------------------------------
	BYTE		        En3 
	BYTE	W12
	BYTE		        Fn3 
	BYTE	W12
// 087   ----------------------------------------
	BYTE		BEND    c_v-52
	BYTE		N24     Gn3 
	BYTE	W01
	BYTE		BEND    c_v-37
	BYTE	W01
	BYTE		        c_v-25
	BYTE	W01
	BYTE		        c_v-18
	BYTE	W01
	BYTE		        c_v-12
	BYTE	W01
	BYTE		        c_v-8
	BYTE	W01
	BYTE		        c_v-6
	BYTE	W01
	BYTE		        c_v-4
	BYTE	W01
	BYTE		        c_v-3
	BYTE	W01
	BYTE		        c_v-2
	BYTE	W01
	BYTE		        c_v-1
	BYTE	W02
	BYTE		        c_v+0
	BYTE	W12
// 088   ----------------------------------------
	BYTE		N24     Fn3 
	BYTE	W24
// 089   ----------------------------------------
	BYTE		        En3 
	BYTE	W24
// 090   ----------------------------------------
	BYTE		        Dn3 
	BYTE	W24
// 091   ----------------------------------------
	BYTE		N40     Cn3 
	BYTE	W24
// 092   ----------------------------------------
	BYTE	W24
// 093   ----------------------------------------
	BYTE		N24   
	BYTE	W24
// 094   ----------------------------------------
	BYTE		N12     An2 
	BYTE	W12
	BYTE		BEND    c_v-24
	BYTE		N72     Dn3 
	BYTE	W01
	BYTE		BEND    c_v-15
	BYTE	W01
	BYTE		        c_v-9
	BYTE	W01
	BYTE		        c_v-5
	BYTE	W01
	BYTE		        c_v-3
	BYTE	W01
	BYTE		        c_v-2
	BYTE	W01
	BYTE		        c_v-1
	BYTE	W01
	BYTE		        c_v+0
	BYTE	W05
// 095   ----------------------------------------
	BYTE	W24
// 096   ----------------------------------------
	BYTE	W24
// 097   ----------------------------------------
	BYTE	W24
// 098   ----------------------------------------
	BYTE		N12   
	BYTE	W12
	BYTE		        En3 
	BYTE	W12
// 099   ----------------------------------------
	BYTE		BEND    c_v-13
	BYTE		N40     Fn3 
	BYTE	W01
	BYTE		BEND    c_v-9
	BYTE	W01
	BYTE		        c_v-6
	BYTE	W01
	BYTE		        c_v-4
	BYTE	W01
	BYTE		        c_v-3
	BYTE	W01
	BYTE		        c_v-2
	BYTE	W01
	BYTE		        c_v-1
	BYTE	W02
	BYTE		        c_v+0
	BYTE	W16
// 100   ----------------------------------------
	BYTE	W24
// 101   ----------------------------------------
KnightErrand_1_101:
	BYTE		N12     Fn3   v092
	BYTE	W12
	BYTE		        Dn3 
	BYTE	W12
	BYTE	PEND
// 102   ----------------------------------------
	BYTE		        En3 
	BYTE	W12
	BYTE		        Fn3 
	BYTE	W12
// 103   ----------------------------------------
KnightErrand_1_103:
	BYTE		BEND    c_v-49
	BYTE		N24     Gn3   v092
	BYTE	W01
	BYTE		BEND    c_v-30
	BYTE	W01
	BYTE		        c_v-19
	BYTE	W01
	BYTE		        c_v-11
	BYTE	W01
	BYTE		        c_v-7
	BYTE	W01
	BYTE		        c_v-4
	BYTE	W01
	BYTE		        c_v-2
	BYTE	W01
	BYTE		        c_v-1
	BYTE	W02
	BYTE		        c_v+0
	BYTE	W15
	BYTE	PEND
// 104   ----------------------------------------
	BYTE		N24     En3 
	BYTE	W24
// 105   ----------------------------------------
	BYTE		        Cn3 
	BYTE	W24
// 106   ----------------------------------------
	BYTE		BEND    c_v-45
	BYTE		N12     As3 
	BYTE	W01
	BYTE		BEND    c_v-28
	BYTE	W01
	BYTE		        c_v-17
	BYTE	W01
	BYTE		        c_v-10
	BYTE	W01
	BYTE		        c_v-6
	BYTE	W01
	BYTE		        c_v-3
	BYTE	W01
	BYTE		        c_v-2
	BYTE	W01
	BYTE		        c_v-1
	BYTE	W01
	BYTE		        c_v+0
	BYTE	W04
	BYTE		TIE     An3 
	BYTE	W12
// 107   ----------------------------------------
	BYTE	W24
// 108   ----------------------------------------
	BYTE	W24
// 109   ----------------------------------------
	BYTE	W24
// 110   ----------------------------------------
	BYTE	W24
	BYTE		EOT   
// 111   ----------------------------------------
	BYTE	W24
// 112   ----------------------------------------
	BYTE	W24
// 113   ----------------------------------------
	BYTE		N06     Dn2 
	BYTE	W06
	BYTE		        Fn2 
	BYTE	W06
	BYTE		        An2 
	BYTE	W06
	BYTE		        Cs3 
	BYTE	W06
// 114   ----------------------------------------
	BYTE		        Dn3 
	BYTE	W06
	BYTE		        Cs3 
	BYTE	W06
	BYTE		        Dn3 
	BYTE	W06
	BYTE		        En3 
	BYTE	W06
// 115   ----------------------------------------
	BYTE		BEND    c_v-27
	BYTE		N48     Fn3 
	BYTE	W01
	BYTE		BEND    c_v-20
	BYTE	W01
	BYTE		        c_v-15
	BYTE	W01
	BYTE		        c_v-11
	BYTE	W01
	BYTE		        c_v-8
	BYTE	W01
	BYTE		        c_v-6
	BYTE	W01
	BYTE		        c_v-4
	BYTE	W01
	BYTE		        c_v-3
	BYTE	W01
	BYTE		        c_v-2
	BYTE	W02
	BYTE		        c_v-1
	BYTE	W02
	BYTE		        c_v+0
	BYTE	W12
// 116   ----------------------------------------
	BYTE	W24
// 117   ----------------------------------------
	BYTE	PATT
	 POIN2	KnightErrand_1_101
// 118   ----------------------------------------
	BYTE		N12     En3   v092
	BYTE	W12
	BYTE		        Fn3 
	BYTE	W12
// 119   ----------------------------------------
	BYTE	PATT
	 POIN2	KnightErrand_1_103
// 120   ----------------------------------------
	BYTE		N24     Fn3   v092
	BYTE	W24
// 121   ----------------------------------------
	BYTE		        En3 
	BYTE	W24
// 122   ----------------------------------------
	BYTE		        Dn3 
	BYTE	W24
// 123   ----------------------------------------
	BYTE		N48     Cn3 
	BYTE	W24
// 124   ----------------------------------------
	BYTE	W24
// 125   ----------------------------------------
	BYTE		N24   
	BYTE	W24
// 126   ----------------------------------------
	BYTE		N12     An2 
	BYTE	W12
	BYTE		N60     Dn3 
	BYTE	W12
// 127   ----------------------------------------
	BYTE	W24
// 128   ----------------------------------------
	BYTE	W24
// 129   ----------------------------------------
	BYTE	W12
	BYTE		N12   
	BYTE	W12
// 130   ----------------------------------------
	BYTE		        En3 
	BYTE	W12
	BYTE		BEND    c_v-21
	BYTE		N24     Fn3 
	BYTE	W01
	BYTE		BEND    c_v-10
	BYTE	W01
	BYTE		        c_v-4
	BYTE	W01
	BYTE		        c_v-2
	BYTE	W01
	BYTE		        c_v-1
	BYTE	W01
	BYTE		        c_v+0
	BYTE	W07
// 131   ----------------------------------------
	BYTE	W12
	BYTE		N12     En3 
	BYTE	W12
// 132   ----------------------------------------
	BYTE		N06     Dn3 
	BYTE	W12
	BYTE		BEND    c_v-43
	BYTE		N24     Gn3 
	BYTE	W01
	BYTE		BEND    c_v-20
	BYTE	W01
	BYTE		        c_v-9
	BYTE	W01
	BYTE		        c_v-4
	BYTE	W01
	BYTE		        c_v-2
	BYTE	W01
	BYTE		        c_v-1
	BYTE	W01
	BYTE		        c_v+0
	BYTE	W06
// 133   ----------------------------------------
	BYTE	W12
	BYTE		N12     Fn3 
	BYTE	W12
// 134   ----------------------------------------
	BYTE		N06     En3 
	BYTE	W12
	BYTE		BEND    c_v-43
	BYTE		N24     An3 
	BYTE	W01
	BYTE		BEND    c_v-20
	BYTE	W01
	BYTE		        c_v-9
	BYTE	W01
	BYTE		        c_v-4
	BYTE	W01
	BYTE		        c_v-2
	BYTE	W01
	BYTE		        c_v-1
	BYTE	W01
	BYTE		        c_v+0
	BYTE	W06
// 135   ----------------------------------------
	BYTE	W12
	BYTE		N12     Gn3 
	BYTE	W12
// 136   ----------------------------------------
	BYTE		N06     Fn3 
	BYTE	W12
	BYTE		BEND    c_v-43
	BYTE		N24     As3 
	BYTE	W01
	BYTE		BEND    c_v-20
	BYTE	W01
	BYTE		        c_v-9
	BYTE	W01
	BYTE		        c_v-4
	BYTE	W01
	BYTE		        c_v-2
	BYTE	W01
	BYTE		        c_v-1
	BYTE	W01
	BYTE		        c_v+0
	BYTE	W06
// 137   ----------------------------------------
	BYTE	W12
	BYTE		N12     An3 
	BYTE	W12
// 138   ----------------------------------------
	BYTE		        Gn3 
	BYTE	W12
	BYTE		BEND    c_v-49
	BYTE		N12     As3 
	BYTE	W01
	BYTE		BEND    c_v-30
	BYTE	W01
	BYTE		        c_v-19
	BYTE	W01
	BYTE		        c_v-11
	BYTE	W01
	BYTE		        c_v-7
	BYTE	W01
	BYTE		        c_v-4
	BYTE	W01
	BYTE		        c_v-2
	BYTE	W01
	BYTE		        c_v-1
	BYTE	W02
	BYTE		        c_v+0
	BYTE	W03
// 139   ----------------------------------------
	BYTE		TIE     An3 
	BYTE	W24
// 140   ----------------------------------------
	BYTE	W24
// 141   ----------------------------------------
	BYTE	W24
// 142   ----------------------------------------
	BYTE	W24
// 143   ----------------------------------------
	BYTE	W24
	BYTE		EOT   
// 144   ----------------------------------------
	BYTE	W24
// 145   ----------------------------------------
	BYTE		BEND    c_v-49
	BYTE		N12   
	BYTE	W01
	BYTE		BEND    c_v-30
	BYTE	W01
	BYTE		        c_v-19
	BYTE	W01
	BYTE		        c_v-11
	BYTE	W01
	BYTE		        c_v-7
	BYTE	W01
	BYTE		        c_v-4
	BYTE	W01
	BYTE		        c_v-2
	BYTE	W01
	BYTE		        c_v-1
	BYTE	W02
	BYTE		        c_v+0
	BYTE	W03
	BYTE		N12     Cn4 
	BYTE	W12
// 146   ----------------------------------------
	BYTE		        An3 
	BYTE	W12
	BYTE		TIE     Dn4 
	BYTE	W12
// 147   ----------------------------------------
	BYTE	W24
// 148   ----------------------------------------
	BYTE	W24
// 149   ----------------------------------------
	BYTE	W24
// 150   ----------------------------------------
	BYTE	W24
// 151   ----------------------------------------
	BYTE	W24
// 152   ----------------------------------------
	BYTE	W24
// 153   ----------------------------------------
	BYTE	W24
// 154   ----------------------------------------
	BYTE	W24
// 155   ----------------------------------------
	BYTE	W24
// 156   ----------------------------------------
	BYTE	W24
// 157   ----------------------------------------
	BYTE	W24
// 158   ----------------------------------------
	BYTE	W24
// 159   ----------------------------------------
	BYTE	W24
// 160   ----------------------------------------
	BYTE	W24
// 161   ----------------------------------------
	BYTE	W24
// 162   ----------------------------------------
	BYTE	W23
	BYTE		EOT   
	BYTE	W01
	BYTE	GoTo
	 POIN2	KnightErrand_1_B1
KnightErrand_1_B2:
// 163   ----------------------------------------
	BYTE	W24
// 164   ----------------------------------------
	BYTE	W24
// 165   ----------------------------------------
	BYTE	FINE

//**************** Track 2 (Midi-Chn.2) ****************//

KnightErrand_2:
	BYTE	KEYSH   KnightErrand_key+0
// 000   ----------------------------------------
	BYTE		VOICE   29
	BYTE		VOL     101*KnightErrand_mvl/mxv
	BYTE		PAN     c_v-1
	BYTE	W24
// 001   ----------------------------------------
	BYTE	W24
// 002   ----------------------------------------
	BYTE	W24
// 003   ----------------------------------------
	BYTE	W24
KnightErrand_2_B1:
// 004   ----------------------------------------
	BYTE	W24
// 005   ----------------------------------------
KnightErrand_2_005:
	BYTE		N06     Dn2   v076
	BYTE	W06
	BYTE		N06   
	BYTE	W06
	BYTE		N12   
	BYTE	W12
	BYTE	PEND
// 006   ----------------------------------------
	BYTE	W24
// 007   ----------------------------------------
KnightErrand_2_007:
	BYTE		N06     Cn2   v076
	BYTE	W06
	BYTE		N06   
	BYTE	W18
	BYTE	PEND
// 008   ----------------------------------------
KnightErrand_2_008:
	BYTE		N06     Dn2   v076
	BYTE	W06
	BYTE		N06   
	BYTE	W18
	BYTE	PEND
// 009   ----------------------------------------
KnightErrand_2_009:
	BYTE		N12     An1   v076
	BYTE	W12
	BYTE		BEND    c_v-8
	BYTE		N18     An2 
	BYTE	W01
	BYTE		BEND    c_v-5
	BYTE	W01
	BYTE		        c_v-3
	BYTE	W01
	BYTE		        c_v-2
	BYTE	W01
	BYTE		        c_v-1
	BYTE	W01
	BYTE		        c_v+0
	BYTE	W07
	BYTE	PEND
// 010   ----------------------------------------
KnightErrand_2_010:
	BYTE	W06
	BYTE		N06     Gn2   v076
	BYTE	W06
	BYTE		        Fn2 
	BYTE	W06
	BYTE		        En2 
	BYTE	W06
	BYTE	PEND
// 011   ----------------------------------------
	BYTE	PATT
	 POIN2	KnightErrand_2_005
// 012   ----------------------------------------
	BYTE	W24
// 013   ----------------------------------------
	BYTE	PATT
	 POIN2	KnightErrand_2_005
// 014   ----------------------------------------
	BYTE	W24
// 015   ----------------------------------------
	BYTE		N12     As1   v076
	BYTE	W12
	BYTE		        An1 
	BYTE	W12
// 016   ----------------------------------------
	BYTE		        Gn1 
	BYTE	W12
	BYTE		        An1 
	BYTE	W12
// 017   ----------------------------------------
	BYTE	W24
// 018   ----------------------------------------
	BYTE	W24
// 019   ----------------------------------------
KnightErrand_2_019:
	BYTE		N03     Dn2   v076
	BYTE	W12
	BYTE		N03   
	BYTE	W12
	BYTE	PEND
// 020   ----------------------------------------
KnightErrand_2_020:
	BYTE		N12     Dn2   v076
	BYTE		N12     An2 
	BYTE	W12
	BYTE		N03     Dn2 
	BYTE	W12
	BYTE	PEND
// 021   ----------------------------------------
KnightErrand_2_021:
	BYTE		N03     Dn2   v076
	BYTE	W12
	BYTE		N12   
	BYTE		N12     An2 
	BYTE	W12
	BYTE	PEND
// 022   ----------------------------------------
	BYTE	PATT
	 POIN2	KnightErrand_2_019
// 023   ----------------------------------------
	BYTE	PATT
	 POIN2	KnightErrand_2_020
// 024   ----------------------------------------
	BYTE	PATT
	 POIN2	KnightErrand_2_021
// 025   ----------------------------------------
	BYTE	PATT
	 POIN2	KnightErrand_2_019
// 026   ----------------------------------------
KnightErrand_2_026:
	BYTE		N12     Cn2   v076
	BYTE		N12     Gn2 
	BYTE	W12
	BYTE		N03     Cn2 
	BYTE	W12
	BYTE	PEND
// 027   ----------------------------------------
KnightErrand_2_027:
	BYTE		N03     As1   v076
	BYTE	W12
	BYTE		N03   
	BYTE	W12
	BYTE	PEND
// 028   ----------------------------------------
KnightErrand_2_028:
	BYTE		N12     As1   v076
	BYTE		N12     Fn2 
	BYTE	W12
	BYTE		N03     As1 
	BYTE	W12
	BYTE	PEND
// 029   ----------------------------------------
KnightErrand_2_029:
	BYTE		N03     As1   v076
	BYTE	W12
	BYTE		N12   
	BYTE		N12     Fn2 
	BYTE	W12
	BYTE	PEND
// 030   ----------------------------------------
KnightErrand_2_030:
	BYTE		N03     As1   v076
	BYTE	W12
	BYTE		N24     Cn2 
	BYTE		N24     Gn2 
	BYTE	W12
	BYTE	PEND
// 031   ----------------------------------------
	BYTE	W12
	BYTE		N03     Cn2 
	BYTE	W12
// 032   ----------------------------------------
	BYTE	PATT
	 POIN2	KnightErrand_2_026
// 033   ----------------------------------------
	BYTE		N04     Cn2   v076
	BYTE		N04     Gn2 
	BYTE	W06
	BYTE		        Cn2 
	BYTE		N04     Gn2 
	BYTE	W06
	BYTE		N09     Cn2 
	BYTE		N09     Gn2 
	BYTE	W12
// 034   ----------------------------------------
	BYTE		        Cn2 
	BYTE		N09     Gn2 
	BYTE	W12
	BYTE		        Bn1 
	BYTE	W12
// 035   ----------------------------------------
	BYTE	PATT
	 POIN2	KnightErrand_2_027
// 036   ----------------------------------------
	BYTE	PATT
	 POIN2	KnightErrand_2_028
// 037   ----------------------------------------
	BYTE	PATT
	 POIN2	KnightErrand_2_029
// 038   ----------------------------------------
	BYTE	PATT
	 POIN2	KnightErrand_2_030
// 039   ----------------------------------------
	BYTE	W12
	BYTE		N03     Cn2   v076
	BYTE	W12
// 040   ----------------------------------------
KnightErrand_2_040:
	BYTE		N03     Cn2   v076
	BYTE	W12
	BYTE		N12   
	BYTE		N12     Gn2 
	BYTE	W12
	BYTE	PEND
// 041   ----------------------------------------
	BYTE	PATT
	 POIN2	KnightErrand_2_040
// 042   ----------------------------------------
KnightErrand_2_042:
	BYTE		N03     Cn2   v076
	BYTE	W12
	BYTE		N03   
	BYTE	W12
	BYTE	PEND
// 043   ----------------------------------------
KnightErrand_2_043:
	BYTE		N03     Fn2   v076
	BYTE	W12
	BYTE		N03   
	BYTE	W12
	BYTE	PEND
// 044   ----------------------------------------
	BYTE		N12     Cn2 
	BYTE		N12     Fn2 
	BYTE	W12
	BYTE		N03   
	BYTE	W12
// 045   ----------------------------------------
	BYTE		N03   
	BYTE	W12
	BYTE		N12     Cn2 
	BYTE		N12     Fn2 
	BYTE	W12
// 046   ----------------------------------------
	BYTE	PATT
	 POIN2	KnightErrand_2_043
// 047   ----------------------------------------
KnightErrand_2_047:
	BYTE	W12
	BYTE		N12     As1   v076
	BYTE		N12     Fn2 
	BYTE	W12
	BYTE	PEND
// 048   ----------------------------------------
KnightErrand_2_048:
	BYTE	W12
	BYTE		N12     An1   v076
	BYTE		N12     En2 
	BYTE	W12
	BYTE	PEND
// 049   ----------------------------------------
	BYTE	W12
	BYTE		N08     An1 
	BYTE	W12
// 050   ----------------------------------------
	BYTE		N12   
	BYTE	W12
	BYTE		N24     Dn2 
	BYTE		N24     An2 
	BYTE	W12
// 051   ----------------------------------------
	BYTE	W12
	BYTE		N03     Dn2 
	BYTE	W12
// 052   ----------------------------------------
	BYTE	PATT
	 POIN2	KnightErrand_2_020
// 053   ----------------------------------------
	BYTE	PATT
	 POIN2	KnightErrand_2_021
// 054   ----------------------------------------
	BYTE	PATT
	 POIN2	KnightErrand_2_019
// 055   ----------------------------------------
	BYTE	PATT
	 POIN2	KnightErrand_2_020
// 056   ----------------------------------------
	BYTE	PATT
	 POIN2	KnightErrand_2_021
// 057   ----------------------------------------
	BYTE	PATT
	 POIN2	KnightErrand_2_019
// 058   ----------------------------------------
	BYTE	PATT
	 POIN2	KnightErrand_2_026
// 059   ----------------------------------------
	BYTE	PATT
	 POIN2	KnightErrand_2_027
// 060   ----------------------------------------
	BYTE	PATT
	 POIN2	KnightErrand_2_028
// 061   ----------------------------------------
	BYTE	PATT
	 POIN2	KnightErrand_2_029
// 062   ----------------------------------------
	BYTE	PATT
	 POIN2	KnightErrand_2_030
// 063   ----------------------------------------
	BYTE	W12
	BYTE		N03     Cn2   v076
	BYTE	W12
// 064   ----------------------------------------
	BYTE	PATT
	 POIN2	KnightErrand_2_040
// 065   ----------------------------------------
	BYTE	PATT
	 POIN2	KnightErrand_2_042
// 066   ----------------------------------------
	BYTE	PATT
	 POIN2	KnightErrand_2_026
// 067   ----------------------------------------
	BYTE	PATT
	 POIN2	KnightErrand_2_027
// 068   ----------------------------------------
	BYTE	PATT
	 POIN2	KnightErrand_2_028
// 069   ----------------------------------------
	BYTE	PATT
	 POIN2	KnightErrand_2_029
// 070   ----------------------------------------
	BYTE	PATT
	 POIN2	KnightErrand_2_030
// 071   ----------------------------------------
	BYTE	W12
	BYTE		N03     Cn2   v076
	BYTE	W12
// 072   ----------------------------------------
	BYTE	PATT
	 POIN2	KnightErrand_2_026
// 073   ----------------------------------------
	BYTE	PATT
	 POIN2	KnightErrand_2_040
// 074   ----------------------------------------
	BYTE		N03     Cn2   v076
	BYTE	W12
	BYTE		N24     An1 
	BYTE		N24     En2 
	BYTE	W12
// 075   ----------------------------------------
	BYTE	W12
	BYTE		N08     An1 
	BYTE	W12
// 076   ----------------------------------------
	BYTE		N09   
	BYTE	W12
	BYTE		N10   
	BYTE	W12
// 077   ----------------------------------------
	BYTE		N12   
	BYTE	W12
	BYTE		        An1   v048
	BYTE		N12     En2 
	BYTE	W12
// 078   ----------------------------------------
	BYTE		        An1   v060
	BYTE		N12     En2 
	BYTE	W12
	BYTE		        An1   v076
	BYTE		N12     En2 
	BYTE	W12
// 079   ----------------------------------------
	BYTE	PATT
	 POIN2	KnightErrand_2_047
// 080   ----------------------------------------
	BYTE	PATT
	 POIN2	KnightErrand_2_048
// 081   ----------------------------------------
	BYTE	W24
// 082   ----------------------------------------
	BYTE	W24
// 083   ----------------------------------------
	BYTE		TIE     As1   v076
	BYTE		TIE     Fn2 
	BYTE	W24
// 084   ----------------------------------------
	BYTE	W24
// 085   ----------------------------------------
	BYTE	W24
// 086   ----------------------------------------
	BYTE	W24
// 087   ----------------------------------------
	BYTE	W24
// 088   ----------------------------------------
	BYTE	W24
// 089   ----------------------------------------
	BYTE	W24
// 090   ----------------------------------------
	BYTE	W24
	BYTE		EOT     As1 
	BYTE		        Fn2 
// 091   ----------------------------------------
	BYTE		N72     An1 
	BYTE		N72     En2 
	BYTE	W24
// 092   ----------------------------------------
	BYTE	W24
// 093   ----------------------------------------
	BYTE	W24
// 094   ----------------------------------------
	BYTE		N12     An1 
	BYTE	W12
	BYTE		N84     Dn2 
	BYTE		N84     An2 
	BYTE	W12
// 095   ----------------------------------------
	BYTE	W24
// 096   ----------------------------------------
	BYTE	W24
// 097   ----------------------------------------
	BYTE	W24
// 098   ----------------------------------------
	BYTE		N24     Cn2 
	BYTE		N24     Gn2 
	BYTE	W24
// 099   ----------------------------------------
	BYTE		        As1 
	BYTE		N24     Fn2 
	BYTE	W24
// 100   ----------------------------------------
	BYTE		N03   
	BYTE	W12
	BYTE		N60     As1 
	BYTE		N60     Fn2 
	BYTE	W12
// 101   ----------------------------------------
	BYTE	W24
// 102   ----------------------------------------
	BYTE	W24
// 103   ----------------------------------------
	BYTE		N24     Cn2 
	BYTE		N24     Gn2 
	BYTE	W24
// 104   ----------------------------------------
	BYTE		N03     Cn2 
	BYTE	W12
	BYTE		N36   
	BYTE		N36     Gn2 
	BYTE	W12
// 105   ----------------------------------------
	BYTE	W24
// 106   ----------------------------------------
	BYTE		N12     Cn2 
	BYTE		N12     Gn2 
	BYTE	W12
	BYTE		        Dn2 
	BYTE		N12     An2 
	BYTE	W12
// 107   ----------------------------------------
	BYTE	W12
	BYTE		BEND    c_v-6
	BYTE		N12     Dn2 
	BYTE		N12     Dn3   v068
	BYTE	W01
	BYTE		BEND    c_v-3
	BYTE	W01
	BYTE		        c_v-2
	BYTE	W01
	BYTE		        c_v-1
	BYTE	W01
	BYTE		        c_v+0
	BYTE	W08
// 108   ----------------------------------------
	BYTE		N12     En2   v076
	BYTE		N12     En3   v068
	BYTE	W12
	BYTE		        Fn2   v076
	BYTE		N12     Fn3   v068
	BYTE	W12
// 109   ----------------------------------------
	BYTE		        Dn2   v076
	BYTE		N12     Dn3   v068
	BYTE	W12
	BYTE		        En2   v076
	BYTE		N12     En3   v068
	BYTE	W12
// 110   ----------------------------------------
	BYTE		        Fn2   v076
	BYTE		N12     Fn3   v068
	BYTE	W12
	BYTE		        Gn2   v076
	BYTE		N12     Gn3   v068
	BYTE	W12
// 111   ----------------------------------------
	BYTE	W12
	BYTE		BEND    c_v-13
	BYTE		N18     An2   v076
	BYTE		N18     An3   v068
	BYTE	W01
	BYTE		BEND    c_v-9
	BYTE	W01
	BYTE		        c_v-7
	BYTE	W01
	BYTE		        c_v-5
	BYTE	W01
	BYTE		        c_v-3
	BYTE	W01
	BYTE		        c_v-2
	BYTE	W02
	BYTE		        c_v-1
	BYTE	W02
	BYTE		        c_v+0
	BYTE	W03
// 112   ----------------------------------------
	BYTE	W06
	BYTE		N06     As2   v076
	BYTE		N06     As3   v068
	BYTE	W06
	BYTE		        An2   v076
	BYTE		N06     An3   v068
	BYTE	W06
	BYTE		        Gs2   v076
	BYTE		N06     Gs3   v068
	BYTE	W06
// 113   ----------------------------------------
	BYTE		N12     An2   v076
	BYTE		N12     An3   v068
	BYTE	W12
	BYTE		N04     Dn2   v076
	BYTE	W12
// 114   ----------------------------------------
	BYTE		N12   
	BYTE		N12     An2 
	BYTE	W12
	BYTE		        Cn2 
	BYTE		N12     Gn2 
	BYTE	W12
// 115   ----------------------------------------
KnightErrand_2_115:
	BYTE		N12     As1   v076
	BYTE		N12     Fn2 
	BYTE	W12
	BYTE		N03     As1   v056
	BYTE	W06
	BYTE		        As1   v068
	BYTE	W06
	BYTE	PEND
// 116   ----------------------------------------
	BYTE	PATT
	 POIN2	KnightErrand_2_115
// 117   ----------------------------------------
	BYTE	PATT
	 POIN2	KnightErrand_2_115
// 118   ----------------------------------------
	BYTE	PATT
	 POIN2	KnightErrand_2_115
// 119   ----------------------------------------
	BYTE	PATT
	 POIN2	KnightErrand_2_115
// 120   ----------------------------------------
	BYTE	PATT
	 POIN2	KnightErrand_2_115
// 121   ----------------------------------------
	BYTE	PATT
	 POIN2	KnightErrand_2_115
// 122   ----------------------------------------
	BYTE	PATT
	 POIN2	KnightErrand_2_115
// 123   ----------------------------------------
KnightErrand_2_123:
	BYTE		N12     An1   v076
	BYTE		N12     En2 
	BYTE	W12
	BYTE		N03     An1   v056
	BYTE	W06
	BYTE		        An1   v068
	BYTE	W06
	BYTE	PEND
// 124   ----------------------------------------
	BYTE	PATT
	 POIN2	KnightErrand_2_123
// 125   ----------------------------------------
	BYTE	PATT
	 POIN2	KnightErrand_2_123
// 126   ----------------------------------------
	BYTE	PATT
	 POIN2	KnightErrand_2_123
// 127   ----------------------------------------
KnightErrand_2_127:
	BYTE		N12     Dn2   v076
	BYTE		N12     An2 
	BYTE	W12
	BYTE		N03     Dn2   v056
	BYTE	W06
	BYTE		        Dn2   v068
	BYTE	W06
	BYTE	PEND
// 128   ----------------------------------------
	BYTE	PATT
	 POIN2	KnightErrand_2_127
// 129   ----------------------------------------
	BYTE		N06     Dn2   v076
	BYTE		N06     An2 
	BYTE	W06
	BYTE		N03     Dn2   v056
	BYTE	W06
	BYTE		N12     Dn2   v076
	BYTE	W12
// 130   ----------------------------------------
	BYTE		        Cn2 
	BYTE	W12
	BYTE		N36     As1 
	BYTE		N36     Fn2 
	BYTE	W12
// 131   ----------------------------------------
	BYTE	W24
// 132   ----------------------------------------
	BYTE	W12
	BYTE		        Cn2 
	BYTE		N36     Gn2 
	BYTE	W12
// 133   ----------------------------------------
	BYTE	W24
// 134   ----------------------------------------
KnightErrand_2_134:
	BYTE	W12
	BYTE		N36     As1   v076
	BYTE		N36     Fn2 
	BYTE	W12
	BYTE	PEND
// 135   ----------------------------------------
	BYTE	W24
// 136   ----------------------------------------
	BYTE	PATT
	 POIN2	KnightErrand_2_134
// 137   ----------------------------------------
	BYTE	W24
// 138   ----------------------------------------
	BYTE	PATT
	 POIN2	KnightErrand_2_047
// 139   ----------------------------------------
	BYTE		N36     An1   v076
	BYTE		N36     En2 
	BYTE	W24
// 140   ----------------------------------------
	BYTE	W12
	BYTE		N12     An1   v048
	BYTE		N12     En2 
	BYTE	W12
// 141   ----------------------------------------
	BYTE		        An1   v052
	BYTE		N12     En2 
	BYTE	W12
	BYTE		        An1   v060
	BYTE		N12     En2 
	BYTE	W12
// 142   ----------------------------------------
	BYTE		        An1   v068
	BYTE		N12     En2 
	BYTE	W12
	BYTE		        An1   v076
	BYTE		N12     En2 
	BYTE	W12
// 143   ----------------------------------------
	BYTE		N06     An1 
	BYTE	W06
	BYTE		N04   
	BYTE	W06
	BYTE		N04   
	BYTE	W06
	BYTE		N04   
	BYTE	W06
// 144   ----------------------------------------
	BYTE		N12   
	BYTE	W24
// 145   ----------------------------------------
	BYTE	W24
// 146   ----------------------------------------
	BYTE	W24
// 147   ----------------------------------------
	BYTE	PATT
	 POIN2	KnightErrand_2_005
// 148   ----------------------------------------
	BYTE	W24
// 149   ----------------------------------------
	BYTE	PATT
	 POIN2	KnightErrand_2_005
// 150   ----------------------------------------
	BYTE	W24
// 151   ----------------------------------------
	BYTE	PATT
	 POIN2	KnightErrand_2_007
// 152   ----------------------------------------
	BYTE	PATT
	 POIN2	KnightErrand_2_008
// 153   ----------------------------------------
	BYTE	PATT
	 POIN2	KnightErrand_2_009
// 154   ----------------------------------------
	BYTE	PATT
	 POIN2	KnightErrand_2_010
// 155   ----------------------------------------
	BYTE	PATT
	 POIN2	KnightErrand_2_005
// 156   ----------------------------------------
	BYTE	W24
// 157   ----------------------------------------
	BYTE	PATT
	 POIN2	KnightErrand_2_005
// 158   ----------------------------------------
	BYTE	W24
// 159   ----------------------------------------
	BYTE	PATT
	 POIN2	KnightErrand_2_007
// 160   ----------------------------------------
	BYTE	PATT
	 POIN2	KnightErrand_2_008
// 161   ----------------------------------------
	BYTE	PATT
	 POIN2	KnightErrand_2_009
// 162   ----------------------------------------
	BYTE	W06
	BYTE		N06     Gn2   v076
	BYTE	W06
	BYTE		        Fn2 
	BYTE	W12
	BYTE	GoTo
	 POIN2	KnightErrand_2_B1
KnightErrand_2_B2:
// 163   ----------------------------------------
	BYTE	W24
// 164   ----------------------------------------
	BYTE	W24
// 165   ----------------------------------------
	BYTE	FINE

//**************** Track 3 (Midi-Chn.3) ****************//

KnightErrand_3:
	BYTE	KEYSH   KnightErrand_key+0
// 000   ----------------------------------------
	BYTE		VOICE   29
	BYTE		VOL     66*KnightErrand_mvl/mxv
	BYTE		PAN     c_v+0
	BYTE	W24
// 001   ----------------------------------------
	BYTE		N02     Cn5   v056
	BYTE	W01
	BYTE		        Bn4 
	BYTE	W02
	BYTE		        As4 
	BYTE	W01
	BYTE		        An4 
	BYTE	W02
	BYTE		        Gs4 
	BYTE	W01
	BYTE		        Gn4 
	BYTE	W02
	BYTE		        Fs4 
	BYTE	W01
	BYTE		        Fn4 
	BYTE	W02
	BYTE		        En4 
	BYTE	W01
	BYTE		        Ds4 
	BYTE	W02
	BYTE		        Dn4 
	BYTE	W01
	BYTE		        Cs4 
	BYTE	W02
	BYTE		        Cn4 
	BYTE	W01
	BYTE		        Bn3 
	BYTE	W02
	BYTE		        As3 
	BYTE	W01
	BYTE		        An3 
	BYTE	W02
// 002   ----------------------------------------
	BYTE		        Gs3 
	BYTE	W01
	BYTE		        Gn3 
	BYTE	W02
	BYTE		        Fs3 
	BYTE	W01
	BYTE		        Fn3 
	BYTE	W02
	BYTE		        En3 
	BYTE	W01
	BYTE		        Ds3 
	BYTE	W02
	BYTE		        Dn3 
	BYTE	W01
	BYTE		        Cs3 
	BYTE	W02
	BYTE		        Cn3 
	BYTE	W01
	BYTE		        Bn2 
	BYTE	W02
	BYTE		        As2 
	BYTE	W01
	BYTE		        An2 
	BYTE	W02
	BYTE		        Gs2 
	BYTE	W01
	BYTE		        Gn2 
	BYTE	W02
	BYTE		        Fs2 
	BYTE	W01
	BYTE		N01     Fn2 
	BYTE	W02
// 003   ----------------------------------------
	BYTE		N06     Dn2   v076
	BYTE	W06
	BYTE		N06   
	BYTE	W06
	BYTE		N12   
	BYTE	W12
KnightErrand_3_B1:
// 004   ----------------------------------------
KnightErrand_3_004:
	BYTE		N12     Dn3   v076
	BYTE	W12
	BYTE		        Cn3 
	BYTE	W12
	BYTE	PEND
// 005   ----------------------------------------
	BYTE	W12
	BYTE		        Fn2 
	BYTE	W12
// 006   ----------------------------------------
KnightErrand_3_006:
	BYTE		N12     Dn2   v076
	BYTE	W12
	BYTE		        Fn2 
	BYTE	W12
	BYTE	PEND
// 007   ----------------------------------------
	BYTE	W12
	BYTE		N08     An2 
	BYTE	W12
// 008   ----------------------------------------
	BYTE	W12
	BYTE		N08   
	BYTE	W12
// 009   ----------------------------------------
	BYTE	W12
	BYTE		N12     Cn3 
	BYTE	W12
// 010   ----------------------------------------
	BYTE		        Dn3 
	BYTE	W12
	BYTE		        En3 
	BYTE	W12
// 011   ----------------------------------------
	BYTE	W24
// 012   ----------------------------------------
	BYTE	PATT
	 POIN2	KnightErrand_3_004
// 013   ----------------------------------------
	BYTE	W12
	BYTE		N12     Fn2   v076
	BYTE	W12
// 014   ----------------------------------------
	BYTE	PATT
	 POIN2	KnightErrand_3_006
// 015   ----------------------------------------
	BYTE		N12     As2   v076
	BYTE		N12     Dn3 
	BYTE	W12
	BYTE		N06     An2 
	BYTE		N06     Dn3 
	BYTE	W12
// 016   ----------------------------------------
	BYTE		N12     Gn2 
	BYTE		N12     Dn3 
	BYTE	W12
	BYTE		        An2 
	BYTE		N12     Cs3 
	BYTE	W12
// 017   ----------------------------------------
	BYTE	W24
// 018   ----------------------------------------
	BYTE	W24
// 019   ----------------------------------------
	BYTE	W24
// 020   ----------------------------------------
	BYTE	W24
// 021   ----------------------------------------
	BYTE	W24
// 022   ----------------------------------------
	BYTE	W24
// 023   ----------------------------------------
	BYTE	W24
// 024   ----------------------------------------
	BYTE	W24
// 025   ----------------------------------------
	BYTE	W24
// 026   ----------------------------------------
	BYTE	W24
// 027   ----------------------------------------
	BYTE	W24
// 028   ----------------------------------------
	BYTE	W24
// 029   ----------------------------------------
	BYTE	W24
// 030   ----------------------------------------
	BYTE	W24
// 031   ----------------------------------------
	BYTE	W24
// 032   ----------------------------------------
	BYTE	W24
// 033   ----------------------------------------
	BYTE	W24
// 034   ----------------------------------------
	BYTE	W24
// 035   ----------------------------------------
	BYTE	W24
// 036   ----------------------------------------
	BYTE	W24
// 037   ----------------------------------------
	BYTE	W24
// 038   ----------------------------------------
	BYTE	W24
// 039   ----------------------------------------
	BYTE	W24
// 040   ----------------------------------------
	BYTE	W24
// 041   ----------------------------------------
	BYTE	W24
// 042   ----------------------------------------
	BYTE	W24
// 043   ----------------------------------------
	BYTE	W24
// 044   ----------------------------------------
	BYTE	W24
// 045   ----------------------------------------
	BYTE	W24
// 046   ----------------------------------------
	BYTE	W24
// 047   ----------------------------------------
	BYTE	W12
	BYTE		        As2 
	BYTE	W12
// 048   ----------------------------------------
	BYTE	W12
	BYTE		        An2 
	BYTE	W12
// 049   ----------------------------------------
	BYTE	W24
// 050   ----------------------------------------
	BYTE	W24
// 051   ----------------------------------------
	BYTE	W24
// 052   ----------------------------------------
	BYTE	W24
// 053   ----------------------------------------
	BYTE	W24
// 054   ----------------------------------------
	BYTE	W24
// 055   ----------------------------------------
	BYTE	W24
// 056   ----------------------------------------
	BYTE	W24
// 057   ----------------------------------------
	BYTE	W24
// 058   ----------------------------------------
	BYTE	W24
// 059   ----------------------------------------
	BYTE	W24
// 060   ----------------------------------------
	BYTE	W24
// 061   ----------------------------------------
	BYTE	W24
// 062   ----------------------------------------
	BYTE	W24
// 063   ----------------------------------------
	BYTE	W24
// 064   ----------------------------------------
	BYTE	W24
// 065   ----------------------------------------
	BYTE	W24
// 066   ----------------------------------------
	BYTE	W24
// 067   ----------------------------------------
	BYTE	W24
// 068   ----------------------------------------
	BYTE	W24
// 069   ----------------------------------------
	BYTE	W24
// 070   ----------------------------------------
	BYTE	W24
// 071   ----------------------------------------
	BYTE	W24
// 072   ----------------------------------------
	BYTE	W24
// 073   ----------------------------------------
	BYTE	W24
// 074   ----------------------------------------
	BYTE	W24
// 075   ----------------------------------------
	BYTE	W24
// 076   ----------------------------------------
	BYTE	W24
// 077   ----------------------------------------
	BYTE	W24
// 078   ----------------------------------------
	BYTE	W24
// 079   ----------------------------------------
	BYTE	W12
	BYTE		        As2 
	BYTE	W12
// 080   ----------------------------------------
	BYTE	W12
	BYTE		        An2 
	BYTE	W12
// 081   ----------------------------------------
	BYTE	W24
// 082   ----------------------------------------
	BYTE	W24
// 083   ----------------------------------------
	BYTE	W24
// 084   ----------------------------------------
	BYTE	W24
// 085   ----------------------------------------
	BYTE	W24
// 086   ----------------------------------------
	BYTE	W24
// 087   ----------------------------------------
	BYTE	W24
// 088   ----------------------------------------
	BYTE	W24
// 089   ----------------------------------------
	BYTE	W24
// 090   ----------------------------------------
	BYTE	W24
// 091   ----------------------------------------
	BYTE	W24
// 092   ----------------------------------------
	BYTE	W24
// 093   ----------------------------------------
	BYTE	W24
// 094   ----------------------------------------
	BYTE	W24
// 095   ----------------------------------------
	BYTE	W24
// 096   ----------------------------------------
	BYTE	W24
// 097   ----------------------------------------
	BYTE	W24
// 098   ----------------------------------------
	BYTE	W24
// 099   ----------------------------------------
	BYTE	W24
// 100   ----------------------------------------
	BYTE	W24
// 101   ----------------------------------------
	BYTE	W24
// 102   ----------------------------------------
	BYTE	W24
// 103   ----------------------------------------
	BYTE	W24
// 104   ----------------------------------------
	BYTE	W24
// 105   ----------------------------------------
	BYTE	W24
// 106   ----------------------------------------
	BYTE	W24
// 107   ----------------------------------------
	BYTE	W24
// 108   ----------------------------------------
	BYTE	W24
// 109   ----------------------------------------
	BYTE	W24
// 110   ----------------------------------------
	BYTE	W24
// 111   ----------------------------------------
	BYTE	W24
// 112   ----------------------------------------
	BYTE	W24
// 113   ----------------------------------------
	BYTE	W24
// 114   ----------------------------------------
	BYTE	W24
// 115   ----------------------------------------
	BYTE	W24
// 116   ----------------------------------------
	BYTE	W24
// 117   ----------------------------------------
	BYTE	W24
// 118   ----------------------------------------
	BYTE	W24
// 119   ----------------------------------------
	BYTE	W24
// 120   ----------------------------------------
	BYTE	W24
// 121   ----------------------------------------
	BYTE	W24
// 122   ----------------------------------------
	BYTE	W24
// 123   ----------------------------------------
	BYTE	W24
// 124   ----------------------------------------
	BYTE	W24
// 125   ----------------------------------------
	BYTE	W24
// 126   ----------------------------------------
	BYTE	W24
// 127   ----------------------------------------
	BYTE	W24
// 128   ----------------------------------------
	BYTE	W24
// 129   ----------------------------------------
	BYTE	W24
// 130   ----------------------------------------
	BYTE	W24
// 131   ----------------------------------------
	BYTE	W24
// 132   ----------------------------------------
	BYTE	W24
// 133   ----------------------------------------
	BYTE	W24
// 134   ----------------------------------------
	BYTE	W24
// 135   ----------------------------------------
	BYTE	W24
// 136   ----------------------------------------
	BYTE	W24
// 137   ----------------------------------------
	BYTE	W24
// 138   ----------------------------------------
	BYTE	W24
// 139   ----------------------------------------
	BYTE	W24
// 140   ----------------------------------------
	BYTE	W24
// 141   ----------------------------------------
	BYTE	W24
// 142   ----------------------------------------
	BYTE	W24
// 143   ----------------------------------------
	BYTE		N12   
	BYTE	W12
	BYTE		        An1 
	BYTE	W12
// 144   ----------------------------------------
	BYTE		N12   
	BYTE	W24
// 145   ----------------------------------------
	BYTE	W24
// 146   ----------------------------------------
	BYTE	W24
// 147   ----------------------------------------
	BYTE	W24
// 148   ----------------------------------------
	BYTE	W24
// 149   ----------------------------------------
	BYTE	W24
// 150   ----------------------------------------
	BYTE	W24
// 151   ----------------------------------------
	BYTE	W24
// 152   ----------------------------------------
	BYTE	W24
// 153   ----------------------------------------
	BYTE	W24
// 154   ----------------------------------------
	BYTE	W24
// 155   ----------------------------------------
	BYTE	W24
// 156   ----------------------------------------
	BYTE	W24
// 157   ----------------------------------------
	BYTE	W24
// 158   ----------------------------------------
	BYTE	W24
// 159   ----------------------------------------
	BYTE	W24
// 160   ----------------------------------------
	BYTE	W24
// 161   ----------------------------------------
	BYTE	W24
// 162   ----------------------------------------
	BYTE	W24
	BYTE	GoTo
	 POIN2	KnightErrand_3_B1
KnightErrand_3_B2:
// 163   ----------------------------------------
	BYTE	W24
// 164   ----------------------------------------
	BYTE	W24
// 165   ----------------------------------------
	BYTE	FINE

//**************** Track 4 (Midi-Chn.4) ****************//

KnightErrand_4:
	BYTE	KEYSH   KnightErrand_key+0
// 000   ----------------------------------------
	BYTE		VOICE   30
	BYTE		VOL     81*KnightErrand_mvl/mxv
	BYTE		PAN     c_v+0
	BYTE	W24
// 001   ----------------------------------------
	BYTE		N02     Cn5   v056
	BYTE	W01
	BYTE		        Bn4 
	BYTE	W02
	BYTE		        As4 
	BYTE	W01
	BYTE		        An4 
	BYTE	W02
	BYTE		        Gs4 
	BYTE	W01
	BYTE		        Gn4 
	BYTE	W02
	BYTE		        Fs4 
	BYTE	W01
	BYTE		        Fn4 
	BYTE	W02
	BYTE		        En4 
	BYTE	W01
	BYTE		        Ds4 
	BYTE	W02
	BYTE		        Dn4 
	BYTE	W01
	BYTE		        Cs4 
	BYTE	W02
	BYTE		        Cn4 
	BYTE	W01
	BYTE		        Bn3 
	BYTE	W02
	BYTE		        As3 
	BYTE	W01
	BYTE		        An3 
	BYTE	W02
// 002   ----------------------------------------
	BYTE		        Gs3 
	BYTE	W01
	BYTE		        Gn3 
	BYTE	W02
	BYTE		        Fs3 
	BYTE	W01
	BYTE		        Fn3 
	BYTE	W02
	BYTE		        En3 
	BYTE	W01
	BYTE		        Ds3 
	BYTE	W02
	BYTE		        Dn3 
	BYTE	W01
	BYTE		        Cs3 
	BYTE	W02
	BYTE		        Cn3 
	BYTE	W01
	BYTE		        Bn2 
	BYTE	W02
	BYTE		        As2 
	BYTE	W01
	BYTE		        An2 
	BYTE	W02
	BYTE		        Gs2 
	BYTE	W01
	BYTE		        Gn2 
	BYTE	W02
	BYTE		        Fs2 
	BYTE	W01
	BYTE		N01     Fn2 
	BYTE	W02
// 003   ----------------------------------------
	BYTE		N06     Dn2   v076
	BYTE	W06
	BYTE		N06   
	BYTE	W06
	BYTE		N12   
	BYTE	W12
KnightErrand_4_B1:
// 004   ----------------------------------------
KnightErrand_4_004:
	BYTE		N12     Fn3   v072
	BYTE	W12
	BYTE		        En3 
	BYTE	W12
	BYTE	PEND
// 005   ----------------------------------------
	BYTE	W12
	BYTE		        Cn3 
	BYTE	W12
// 006   ----------------------------------------
KnightErrand_4_006:
	BYTE		N12     Gn2   v072
	BYTE	W12
	BYTE		        An2 
	BYTE	W12
	BYTE	PEND
// 007   ----------------------------------------
	BYTE	W12
	BYTE		N08     Cn3 
	BYTE	W12
// 008   ----------------------------------------
	BYTE	W12
	BYTE		        Dn3 
	BYTE	W12
// 009   ----------------------------------------
	BYTE	W12
	BYTE		N12     En3 
	BYTE	W12
// 010   ----------------------------------------
	BYTE		        Fn3 
	BYTE	W12
	BYTE		        Gn3 
	BYTE	W12
// 011   ----------------------------------------
	BYTE	W24
// 012   ----------------------------------------
	BYTE	PATT
	 POIN2	KnightErrand_4_004
// 013   ----------------------------------------
	BYTE	W12
	BYTE		N12     Cn3   v072
	BYTE	W12
// 014   ----------------------------------------
	BYTE	PATT
	 POIN2	KnightErrand_4_006
// 015   ----------------------------------------
	BYTE		N12     As3   v072
	BYTE	W12
	BYTE		N06     An3 
	BYTE	W12
// 016   ----------------------------------------
	BYTE		N12     Gn3 
	BYTE	W12
	BYTE		        An3 
	BYTE	W12
// 017   ----------------------------------------
	BYTE	W24
// 018   ----------------------------------------
	BYTE	W24
// 019   ----------------------------------------
	BYTE	W24
// 020   ----------------------------------------
	BYTE	W24
// 021   ----------------------------------------
	BYTE	W24
// 022   ----------------------------------------
	BYTE	W24
// 023   ----------------------------------------
	BYTE	W24
// 024   ----------------------------------------
	BYTE	W24
// 025   ----------------------------------------
	BYTE	W24
// 026   ----------------------------------------
	BYTE	W24
// 027   ----------------------------------------
	BYTE	W24
// 028   ----------------------------------------
	BYTE	W24
// 029   ----------------------------------------
	BYTE	W24
// 030   ----------------------------------------
	BYTE	W24
// 031   ----------------------------------------
	BYTE	W24
// 032   ----------------------------------------
	BYTE	W24
// 033   ----------------------------------------
	BYTE	W24
// 034   ----------------------------------------
	BYTE	W24
// 035   ----------------------------------------
	BYTE	W24
// 036   ----------------------------------------
	BYTE	W24
// 037   ----------------------------------------
	BYTE	W24
// 038   ----------------------------------------
	BYTE	W24
// 039   ----------------------------------------
	BYTE	W24
// 040   ----------------------------------------
	BYTE	W24
// 041   ----------------------------------------
	BYTE	W24
// 042   ----------------------------------------
	BYTE	W24
// 043   ----------------------------------------
	BYTE	W24
// 044   ----------------------------------------
	BYTE	W24
// 045   ----------------------------------------
	BYTE	W24
// 046   ----------------------------------------
	BYTE	W24
// 047   ----------------------------------------
	BYTE	W12
	BYTE		        Fn3 
	BYTE	W12
// 048   ----------------------------------------
	BYTE	W12
	BYTE		        En3 
	BYTE	W12
// 049   ----------------------------------------
	BYTE	W24
// 050   ----------------------------------------
	BYTE	W24
// 051   ----------------------------------------
	BYTE	W24
// 052   ----------------------------------------
	BYTE	W24
// 053   ----------------------------------------
	BYTE	W24
// 054   ----------------------------------------
	BYTE	W24
// 055   ----------------------------------------
	BYTE	W24
// 056   ----------------------------------------
	BYTE	W24
// 057   ----------------------------------------
	BYTE	W24
// 058   ----------------------------------------
	BYTE	W24
// 059   ----------------------------------------
	BYTE	W24
// 060   ----------------------------------------
	BYTE	W24
// 061   ----------------------------------------
	BYTE	W24
// 062   ----------------------------------------
	BYTE	W24
// 063   ----------------------------------------
	BYTE	W24
// 064   ----------------------------------------
	BYTE	W24
// 065   ----------------------------------------
	BYTE	W24
// 066   ----------------------------------------
	BYTE	W24
// 067   ----------------------------------------
	BYTE	W24
// 068   ----------------------------------------
	BYTE	W24
// 069   ----------------------------------------
	BYTE	W24
// 070   ----------------------------------------
	BYTE	W24
// 071   ----------------------------------------
	BYTE	W24
// 072   ----------------------------------------
	BYTE	W24
// 073   ----------------------------------------
	BYTE	W24
// 074   ----------------------------------------
	BYTE	W24
// 075   ----------------------------------------
	BYTE	W24
// 076   ----------------------------------------
	BYTE	W24
// 077   ----------------------------------------
	BYTE	W24
// 078   ----------------------------------------
	BYTE	W24
// 079   ----------------------------------------
	BYTE	W12
	BYTE		        Fn3 
	BYTE	W12
// 080   ----------------------------------------
	BYTE	W12
	BYTE		        En3 
	BYTE	W12
// 081   ----------------------------------------
	BYTE	W24
// 082   ----------------------------------------
	BYTE	W24
// 083   ----------------------------------------
	BYTE	W24
// 084   ----------------------------------------
	BYTE	W24
// 085   ----------------------------------------
	BYTE	W24
// 086   ----------------------------------------
	BYTE	W24
// 087   ----------------------------------------
	BYTE	W24
// 088   ----------------------------------------
	BYTE	W24
// 089   ----------------------------------------
	BYTE	W24
// 090   ----------------------------------------
	BYTE	W24
// 091   ----------------------------------------
	BYTE	W24
// 092   ----------------------------------------
	BYTE	W24
// 093   ----------------------------------------
	BYTE	W24
// 094   ----------------------------------------
	BYTE	W24
// 095   ----------------------------------------
	BYTE	W24
// 096   ----------------------------------------
	BYTE	W24
// 097   ----------------------------------------
	BYTE	W24
// 098   ----------------------------------------
	BYTE	W24
// 099   ----------------------------------------
	BYTE	W24
// 100   ----------------------------------------
	BYTE	W24
// 101   ----------------------------------------
	BYTE	W24
// 102   ----------------------------------------
	BYTE	W24
// 103   ----------------------------------------
	BYTE	W24
// 104   ----------------------------------------
	BYTE	W24
// 105   ----------------------------------------
	BYTE	W24
// 106   ----------------------------------------
	BYTE	W24
// 107   ----------------------------------------
	BYTE	W24
// 108   ----------------------------------------
	BYTE	W24
// 109   ----------------------------------------
	BYTE	W24
// 110   ----------------------------------------
	BYTE	W24
// 111   ----------------------------------------
	BYTE	W24
// 112   ----------------------------------------
	BYTE	W24
// 113   ----------------------------------------
	BYTE	W24
// 114   ----------------------------------------
	BYTE	W24
// 115   ----------------------------------------
	BYTE	W24
// 116   ----------------------------------------
	BYTE	W24
// 117   ----------------------------------------
	BYTE	W24
// 118   ----------------------------------------
	BYTE	W24
// 119   ----------------------------------------
	BYTE	W24
// 120   ----------------------------------------
	BYTE	W24
// 121   ----------------------------------------
	BYTE	W24
// 122   ----------------------------------------
	BYTE	W24
// 123   ----------------------------------------
	BYTE	W24
// 124   ----------------------------------------
	BYTE	W24
// 125   ----------------------------------------
	BYTE	W24
// 126   ----------------------------------------
	BYTE	W24
// 127   ----------------------------------------
	BYTE	W24
// 128   ----------------------------------------
	BYTE	W24
// 129   ----------------------------------------
	BYTE	W24
// 130   ----------------------------------------
	BYTE	W24
// 131   ----------------------------------------
	BYTE	W24
// 132   ----------------------------------------
	BYTE	W24
// 133   ----------------------------------------
	BYTE	W24
// 134   ----------------------------------------
	BYTE	W24
// 135   ----------------------------------------
	BYTE	W24
// 136   ----------------------------------------
	BYTE	W24
// 137   ----------------------------------------
	BYTE	W24
// 138   ----------------------------------------
	BYTE	W24
// 139   ----------------------------------------
	BYTE	W24
// 140   ----------------------------------------
	BYTE	W24
// 141   ----------------------------------------
	BYTE	W24
// 142   ----------------------------------------
	BYTE	W24
// 143   ----------------------------------------
	BYTE		        An3 
	BYTE	W12
	BYTE		        An2 
	BYTE	W12
// 144   ----------------------------------------
	BYTE		N12   
	BYTE	W24
// 145   ----------------------------------------
	BYTE	W24
// 146   ----------------------------------------
	BYTE	W24
// 147   ----------------------------------------
	BYTE	W24
// 148   ----------------------------------------
	BYTE	W24
// 149   ----------------------------------------
	BYTE	W24
// 150   ----------------------------------------
	BYTE	W24
// 151   ----------------------------------------
	BYTE	W24
// 152   ----------------------------------------
	BYTE	W24
// 153   ----------------------------------------
	BYTE	W24
// 154   ----------------------------------------
	BYTE	W24
// 155   ----------------------------------------
	BYTE	W24
// 156   ----------------------------------------
	BYTE	W24
// 157   ----------------------------------------
	BYTE	W24
// 158   ----------------------------------------
	BYTE	W24
// 159   ----------------------------------------
	BYTE	W24
// 160   ----------------------------------------
	BYTE	W24
// 161   ----------------------------------------
	BYTE	W24
// 162   ----------------------------------------
	BYTE	W24
	BYTE	GoTo
	 POIN2	KnightErrand_4_B1
KnightErrand_4_B2:
// 163   ----------------------------------------
	BYTE	W24
// 164   ----------------------------------------
	BYTE	W24
// 165   ----------------------------------------
	BYTE	FINE

//**************** Track 5 (Midi-Chn.5) ****************//

KnightErrand_5:
	BYTE	KEYSH   KnightErrand_key+0
// 000   ----------------------------------------
	BYTE		VOICE   73
	BYTE		VOL     81*KnightErrand_mvl/mxv
	BYTE		PAN     c_v+0
	BYTE	W24
// 001   ----------------------------------------
	BYTE		N02     Cn5   v056
	BYTE	W01
	BYTE		        Bn4 
	BYTE	W02
	BYTE		        As4 
	BYTE	W01
	BYTE		        An4 
	BYTE	W02
	BYTE		        Gs4 
	BYTE	W01
	BYTE		        Gn4 
	BYTE	W02
	BYTE		        Fs4 
	BYTE	W01
	BYTE		        Fn4 
	BYTE	W02
	BYTE		        En4 
	BYTE	W01
	BYTE		        Ds4 
	BYTE	W02
	BYTE		        Dn4 
	BYTE	W01
	BYTE		        Cs4 
	BYTE	W02
	BYTE		        Cn4 
	BYTE	W01
	BYTE		        Bn3 
	BYTE	W02
	BYTE		        As3 
	BYTE	W01
	BYTE		        An3 
	BYTE	W02
// 002   ----------------------------------------
	BYTE		        Gs3 
	BYTE	W01
	BYTE		        Gn3 
	BYTE	W02
	BYTE		        Fs3 
	BYTE	W01
	BYTE		        Fn3 
	BYTE	W02
	BYTE		        En3 
	BYTE	W01
	BYTE		        Ds3 
	BYTE	W02
	BYTE		        Dn3 
	BYTE	W01
	BYTE		        Cs3 
	BYTE	W02
	BYTE		        Cn3 
	BYTE	W01
	BYTE		        Bn2 
	BYTE	W02
	BYTE		        As2 
	BYTE	W01
	BYTE		        An2 
	BYTE	W02
	BYTE		        Gs2 
	BYTE	W01
	BYTE		        Gn2 
	BYTE	W02
	BYTE		        Fs2 
	BYTE	W01
	BYTE		N01     Fn2 
	BYTE	W02
// 003   ----------------------------------------
	BYTE		N06     Dn2   v076
	BYTE	W06
	BYTE		N06   
	BYTE	W06
	BYTE		N12   
	BYTE	W12
KnightErrand_5_B1:
// 004   ----------------------------------------
KnightErrand_5_004:
	BYTE		N12     Dn4   v080
	BYTE		N12     Fn4 
	BYTE	W12
	BYTE		        Cn4 
	BYTE		N12     En4 
	BYTE	W12
	BYTE	PEND
// 005   ----------------------------------------
KnightErrand_5_005:
	BYTE	W12
	BYTE		N12     Fn3   v080
	BYTE		N12     Cn4 
	BYTE	W12
	BYTE	PEND
// 006   ----------------------------------------
KnightErrand_5_006:
	BYTE		N12     Dn3   v080
	BYTE		N12     Gn3 
	BYTE	W12
	BYTE		        Fn3 
	BYTE		N12     An3 
	BYTE	W12
	BYTE	PEND
// 007   ----------------------------------------
	BYTE	W12
	BYTE		N12   
	BYTE		N12     Cn4 
	BYTE	W12
// 008   ----------------------------------------
	BYTE	W12
	BYTE		        An3 
	BYTE		N12     Dn4 
	BYTE	W12
// 009   ----------------------------------------
	BYTE	W12
	BYTE		        Cn4 
	BYTE		N12     En4 
	BYTE	W12
// 010   ----------------------------------------
	BYTE		        Dn4 
	BYTE		N12     Fn4 
	BYTE	W12
	BYTE		        En4 
	BYTE		N12     Gn4 
	BYTE	W12
// 011   ----------------------------------------
	BYTE	W24
// 012   ----------------------------------------
	BYTE	PATT
	 POIN2	KnightErrand_5_004
// 013   ----------------------------------------
	BYTE	PATT
	 POIN2	KnightErrand_5_005
// 014   ----------------------------------------
	BYTE	PATT
	 POIN2	KnightErrand_5_006
// 015   ----------------------------------------
	BYTE		N12     As3   v080
	BYTE		N12     Dn4 
	BYTE	W12
	BYTE		        An3 
	BYTE		N12     Dn4 
	BYTE	W12
// 016   ----------------------------------------
	BYTE		        Gn3 
	BYTE		N12     Dn4 
	BYTE	W12
	BYTE		        An3 
	BYTE		N12     Cs4 
	BYTE	W12
// 017   ----------------------------------------
	BYTE	W24
// 018   ----------------------------------------
	BYTE	W24
// 019   ----------------------------------------
	BYTE		TIE     Fn3   v040
	BYTE		TIE     An3 
	BYTE	W24
// 020   ----------------------------------------
	BYTE	W24
// 021   ----------------------------------------
	BYTE	W24
// 022   ----------------------------------------
	BYTE	W24
// 023   ----------------------------------------
	BYTE	W24
// 024   ----------------------------------------
	BYTE	W24
// 025   ----------------------------------------
	BYTE	W23
	BYTE		EOT     Fn3 
	BYTE		        An3 
	BYTE	W01
// 026   ----------------------------------------
	BYTE		N23     En3 
	BYTE		N23     Gn3 
	BYTE	W24
// 027   ----------------------------------------
	BYTE		N80     Fn3 
	BYTE		N80     An3 
	BYTE	W24
// 028   ----------------------------------------
	BYTE	W24
// 029   ----------------------------------------
	BYTE	W24
// 030   ----------------------------------------
KnightErrand_5_030:
	BYTE	W12
	BYTE		TIE     En3   v040
	BYTE		TIE     Gn3 
	BYTE	W12
	BYTE	PEND
// 031   ----------------------------------------
	BYTE	W24
// 032   ----------------------------------------
	BYTE	W24
// 033   ----------------------------------------
	BYTE	W24
// 034   ----------------------------------------
	BYTE	W23
	BYTE		EOT     En3 
	BYTE		        Gn3 
	BYTE	W01
// 035   ----------------------------------------
	BYTE		N80     Dn3 
	BYTE		N80     Fn3 
	BYTE	W24
// 036   ----------------------------------------
	BYTE	W24
// 037   ----------------------------------------
	BYTE	W24
// 038   ----------------------------------------
	BYTE	PATT
	 POIN2	KnightErrand_5_030
// 039   ----------------------------------------
	BYTE	W24
// 040   ----------------------------------------
	BYTE	W24
// 041   ----------------------------------------
	BYTE	W24
// 042   ----------------------------------------
	BYTE	W24
	BYTE		EOT     En3 
	BYTE		        Gn3 
// 043   ----------------------------------------
	BYTE		N96     Fn3   v040
	BYTE		N96     An3 
	BYTE	W24
// 044   ----------------------------------------
	BYTE	W24
// 045   ----------------------------------------
	BYTE	W24
// 046   ----------------------------------------
	BYTE	W24
// 047   ----------------------------------------
KnightErrand_5_047:
	BYTE	W12
	BYTE		N12     As3   v080
	BYTE		N12     Fn4 
	BYTE	W12
	BYTE	PEND
// 048   ----------------------------------------
	BYTE	W12
	BYTE		        An3 
	BYTE		N12     En4 
	BYTE	W12
// 049   ----------------------------------------
	BYTE	W12
	BYTE		        Cn3 
	BYTE		N12     An3 
	BYTE	W12
// 050   ----------------------------------------
	BYTE		        Cn3 
	BYTE		N12     An3 
	BYTE	W12
	BYTE		TIE     Fn3   v040
	BYTE		TIE     An3 
	BYTE	W12
// 051   ----------------------------------------
	BYTE	W24
// 052   ----------------------------------------
	BYTE	W24
// 053   ----------------------------------------
	BYTE	W24
// 054   ----------------------------------------
	BYTE	W24
// 055   ----------------------------------------
	BYTE	W24
// 056   ----------------------------------------
	BYTE	W24
// 057   ----------------------------------------
	BYTE	W24
	BYTE		EOT     Fn3 
	BYTE		        An3 
// 058   ----------------------------------------
	BYTE		N24     En3 
	BYTE		N24     Gn3 
	BYTE	W24
// 059   ----------------------------------------
	BYTE		N80     Fn3 
	BYTE		N80     An3 
	BYTE	W24
// 060   ----------------------------------------
	BYTE	W24
// 061   ----------------------------------------
	BYTE	W24
// 062   ----------------------------------------
	BYTE	PATT
	 POIN2	KnightErrand_5_030
// 063   ----------------------------------------
	BYTE	W24
// 064   ----------------------------------------
	BYTE	W24
// 065   ----------------------------------------
	BYTE	W24
// 066   ----------------------------------------
	BYTE	W24
	BYTE		EOT     En3 
	BYTE		        Gn3 
// 067   ----------------------------------------
	BYTE		N80     Fn3   v040
	BYTE		N80     An3 
	BYTE	W24
// 068   ----------------------------------------
	BYTE	W24
// 069   ----------------------------------------
	BYTE	W24
// 070   ----------------------------------------
	BYTE	W12
	BYTE		N92     Gn3 
	BYTE		N92     Dn4 
	BYTE	W12
// 071   ----------------------------------------
	BYTE	W24
// 072   ----------------------------------------
	BYTE	W24
// 073   ----------------------------------------
	BYTE	W24
// 074   ----------------------------------------
	BYTE	W12
	BYTE		TIE     An3 
	BYTE		TIE     Dn4 
	BYTE	W12
// 075   ----------------------------------------
	BYTE	W24
// 076   ----------------------------------------
	BYTE	W24
// 077   ----------------------------------------
	BYTE	W24
// 078   ----------------------------------------
	BYTE	W24
	BYTE		EOT     An3 
	BYTE		        Dn4 
// 079   ----------------------------------------
	BYTE	PATT
	 POIN2	KnightErrand_5_047
// 080   ----------------------------------------
	BYTE	W12
	BYTE		N10     An3   v080
	BYTE		N10     En4 
	BYTE	W12
// 081   ----------------------------------------
	BYTE		N06     An2 
	BYTE		N06     Cs3 
	BYTE	W06
	BYTE		        Cs3   v036
	BYTE		N06     En3 
	BYTE	W06
	BYTE		        En3   v044
	BYTE		N06     An3   v040
	BYTE	W06
	BYTE		        An3   v044
	BYTE		N06     Cs4   v036
	BYTE	W06
// 082   ----------------------------------------
	BYTE		        Cs4   v040
	BYTE		N06     En4   v056
	BYTE	W06
	BYTE		        En3   v036
	BYTE		N06     An3   v044
	BYTE	W06
	BYTE		        An3   v056
	BYTE		N06     Cs4   v040
	BYTE	W06
	BYTE		        Cs4   v056
	BYTE		N06     En4 
	BYTE	W06
// 083   ----------------------------------------
KnightErrand_5_083:
	BYTE		N96     Dn4   v072
	BYTE		N96     As4   v056
	BYTE	W24
	BYTE	PEND
// 084   ----------------------------------------
	BYTE	W24
// 085   ----------------------------------------
	BYTE	W24
// 086   ----------------------------------------
	BYTE	W24
// 087   ----------------------------------------
	BYTE		N48     Dn4   v044
	BYTE		N48     As4   v056
	BYTE	W24
// 088   ----------------------------------------
	BYTE	W24
// 089   ----------------------------------------
	BYTE		N24     Dn4 
	BYTE		N24     Cn5 
	BYTE	W24
// 090   ----------------------------------------
	BYTE		        Dn4   v044
	BYTE		N24     As4   v064
	BYTE	W24
// 091   ----------------------------------------
	BYTE		N80     En4   v056
	BYTE		N80     Cn5   v064
	BYTE	W24
// 092   ----------------------------------------
	BYTE	W24
// 093   ----------------------------------------
	BYTE	W24
// 094   ----------------------------------------
	BYTE	W12
	BYTE		N60     An4   v044
	BYTE		N60     Dn5   v056
	BYTE	W12
// 095   ----------------------------------------
	BYTE	W24
// 096   ----------------------------------------
	BYTE	W24
// 097   ----------------------------------------
	BYTE		N48     Dn4 
	BYTE		N48     An4   v044
	BYTE	W24
// 098   ----------------------------------------
	BYTE	W24
// 099   ----------------------------------------
	BYTE	PATT
	 POIN2	KnightErrand_5_083
// 100   ----------------------------------------
	BYTE	W24
// 101   ----------------------------------------
	BYTE	W24
// 102   ----------------------------------------
	BYTE	W24
// 103   ----------------------------------------
	BYTE		N72     En4   v040
	BYTE		N72     Cn5   v056
	BYTE	W24
// 104   ----------------------------------------
	BYTE	W24
// 105   ----------------------------------------
	BYTE	W24
// 106   ----------------------------------------
	BYTE		N12     En4   v064
	BYTE		N12     Cn5 
	BYTE	W12
	BYTE		TIE     Dn4   v056
	BYTE		TIE     Dn5   v072
	BYTE	W12
// 107   ----------------------------------------
	BYTE	W24
// 108   ----------------------------------------
	BYTE	W24
// 109   ----------------------------------------
	BYTE	W24
// 110   ----------------------------------------
	BYTE	W24
	BYTE		EOT     Dn4 
	BYTE		        Dn5 
// 111   ----------------------------------------
	BYTE	W12
	BYTE		N18     An3   v084
	BYTE	W12
// 112   ----------------------------------------
	BYTE	W06
	BYTE		N06     As3 
	BYTE	W06
	BYTE		        An3 
	BYTE	W06
	BYTE		        Gs3 
	BYTE	W06
// 113   ----------------------------------------
	BYTE		        An3 
	BYTE	W12
	BYTE		        Dn3   v064
	BYTE		N06     An3   v056
	BYTE	W12
// 114   ----------------------------------------
	BYTE		        Dn3   v044
	BYTE		N06     An3 
	BYTE	W12
	BYTE		        Dn3   v064
	BYTE		N06     An3   v056
	BYTE	W12
// 115   ----------------------------------------
KnightErrand_5_115:
	BYTE		N12     Dn3   v056
	BYTE		N12     As3   v040
	BYTE	W24
	BYTE	PEND
// 116   ----------------------------------------
	BYTE	PATT
	 POIN2	KnightErrand_5_115
// 117   ----------------------------------------
KnightErrand_5_117:
	BYTE		N12     Dn3   v044
	BYTE		N12     As3   v036
	BYTE	W24
	BYTE	PEND
// 118   ----------------------------------------
	BYTE	PATT
	 POIN2	KnightErrand_5_117
// 119   ----------------------------------------
	BYTE	PATT
	 POIN2	KnightErrand_5_115
// 120   ----------------------------------------
	BYTE	PATT
	 POIN2	KnightErrand_5_115
// 121   ----------------------------------------
	BYTE	PATT
	 POIN2	KnightErrand_5_117
// 122   ----------------------------------------
	BYTE	PATT
	 POIN2	KnightErrand_5_117
// 123   ----------------------------------------
	BYTE		N12     En3   v056
	BYTE		N12     Cn4   v064
	BYTE	W24
// 124   ----------------------------------------
	BYTE		        En3   v032
	BYTE		N12     Cn4   v044
	BYTE	W24
// 125   ----------------------------------------
	BYTE		        En3   v056
	BYTE		N12     Cn4 
	BYTE	W24
// 126   ----------------------------------------
	BYTE		        En3   v044
	BYTE		N12     Cn4 
	BYTE	W24
// 127   ----------------------------------------
	BYTE		        Dn3 
	BYTE		N12     An3 
	BYTE	W24
// 128   ----------------------------------------
	BYTE		        Dn3   v036
	BYTE		N12     An3   v032
	BYTE	W24
// 129   ----------------------------------------
	BYTE		        Dn3   v044
	BYTE		N12     An3 
	BYTE	W24
// 130   ----------------------------------------
	BYTE		N06     Dn3 
	BYTE		N06     An3   v040
	BYTE	W12
	BYTE		N36     Fn3   v044
	BYTE		N36     Dn4   v064
	BYTE	W12
// 131   ----------------------------------------
	BYTE	W24
// 132   ----------------------------------------
	BYTE	W12
	BYTE		        Gn3   v056
	BYTE		N36     Cn4 
	BYTE	W12
// 133   ----------------------------------------
	BYTE	W24
// 134   ----------------------------------------
	BYTE	W12
	BYTE		        An3   v040
	BYTE		N36     Dn4   v056
	BYTE	W12
// 135   ----------------------------------------
	BYTE	W24
// 136   ----------------------------------------
	BYTE	W12
	BYTE		        As3 
	BYTE		N36     Dn4 
	BYTE	W12
// 137   ----------------------------------------
	BYTE	W24
// 138   ----------------------------------------
	BYTE	W12
	BYTE		N12     Dn4   v064
	BYTE		N12     Fn4 
	BYTE	W12
// 139   ----------------------------------------
	BYTE		N96     Cs4 
	BYTE		N96     En4   v056
	BYTE	W24
// 140   ----------------------------------------
	BYTE	W24
// 141   ----------------------------------------
	BYTE	W24
// 142   ----------------------------------------
	BYTE	W24
// 143   ----------------------------------------
	BYTE		N06     En3 
	BYTE		N06     Cs4 
	BYTE	W06
	BYTE		        An3   v040
	BYTE		N06     An4   v032
	BYTE	W06
	BYTE		        An3   v040
	BYTE		N06     An4 
	BYTE	W06
	BYTE		        An3   v056
	BYTE		N06     An4   v044
	BYTE	W06
// 144   ----------------------------------------
	BYTE		N12     An3   v064
	BYTE		N12     An4   v056
	BYTE	W24
// 145   ----------------------------------------
	BYTE	W24
// 146   ----------------------------------------
	BYTE	W24
// 147   ----------------------------------------
	BYTE		N06     An3   v064
	BYTE	W06
	BYTE		        Dn4 
	BYTE	W06
	BYTE		        Fn4   v072
	BYTE	W06
	BYTE		        An3 
	BYTE	W06
// 148   ----------------------------------------
	BYTE		        Dn4 
	BYTE	W06
	BYTE		        Fn4 
	BYTE	W06
	BYTE		        An3   v044
	BYTE	W06
	BYTE		        Dn4   v056
	BYTE	W06
// 149   ----------------------------------------
	BYTE		        Fn4   v064
	BYTE	W06
	BYTE		        An3   v040
	BYTE	W06
	BYTE		        Dn4   v044
	BYTE	W06
	BYTE		        Fn4   v072
	BYTE	W06
// 150   ----------------------------------------
	BYTE		        An3   v036
	BYTE	W06
	BYTE		        Dn4   v044
	BYTE	W06
	BYTE		        Fn4   v064
	BYTE	W06
	BYTE		        An3   v072
	BYTE	W06
// 151   ----------------------------------------
	BYTE		        Gn3   v064
	BYTE	W06
	BYTE		        En4 
	BYTE	W06
	BYTE		        Cn4   v056
	BYTE	W06
	BYTE		        Gn3   v044
	BYTE	W06
// 152   ----------------------------------------
	BYTE		        Fn3   v064
	BYTE	W06
	BYTE		        An3   v056
	BYTE	W06
	BYTE		        Dn4 
	BYTE	W06
	BYTE		        An3   v044
	BYTE	W06
// 153   ----------------------------------------
	BYTE		        Gn3   v056
	BYTE	W06
	BYTE		        An3 
	BYTE	W06
	BYTE		        En4   v064
	BYTE	W06
	BYTE		        An3   v044
	BYTE	W06
// 154   ----------------------------------------
	BYTE		        An4   v064
	BYTE	W06
	BYTE		        An3   v036
	BYTE	W06
	BYTE		        En4   v064
	BYTE	W06
	BYTE		        An3   v056
	BYTE	W06
// 155   ----------------------------------------
	BYTE		        Dn4   v044
	BYTE	W06
	BYTE		        Fn4 
	BYTE	W06
	BYTE		        An4 
	BYTE	W06
	BYTE		        An3   v056
	BYTE	W06
// 156   ----------------------------------------
	BYTE		        Dn4   v044
	BYTE	W06
	BYTE		        Fn4   v056
	BYTE	W06
	BYTE		        An4   v064
	BYTE	W06
	BYTE		        An3   v056
	BYTE	W06
// 157   ----------------------------------------
	BYTE		        Dn4   v044
	BYTE	W06
	BYTE		        Fn4   v072
	BYTE	W06
	BYTE		        An4   v056
	BYTE	W06
	BYTE		        An3 
	BYTE	W06
// 158   ----------------------------------------
	BYTE		        Dn4 
	BYTE	W06
	BYTE		        Fn4 
	BYTE	W06
	BYTE		        An4   v064
	BYTE	W06
	BYTE		        An3   v072
	BYTE	W06
// 159   ----------------------------------------
	BYTE		        As4   v056
	BYTE	W06
	BYTE		        An4   v044
	BYTE	W06
	BYTE		        Gs4 
	BYTE	W06
	BYTE		        Gn4 
	BYTE	W06
// 160   ----------------------------------------
	BYTE		        Fs4   v040
	BYTE	W06
	BYTE		        Fn4   v044
	BYTE	W06
	BYTE		        En4   v056
	BYTE	W06
	BYTE		        Ds4   v036
	BYTE	W06
// 161   ----------------------------------------
	BYTE		        Dn4   v040
	BYTE	W06
	BYTE		        Cs4   v048
	BYTE	W06
	BYTE		        Cn4   v044
	BYTE	W06
	BYTE		        Bn3   v036
	BYTE	W06
// 162   ----------------------------------------
	BYTE		        As3   v044
	BYTE	W06
	BYTE		        An3   v056
	BYTE	W06
	BYTE		        Gn3 
	BYTE	W12
	BYTE	GoTo
	 POIN2	KnightErrand_5_B1
KnightErrand_5_B2:
// 163   ----------------------------------------
	BYTE	W24
// 164   ----------------------------------------
	BYTE	W24
// 165   ----------------------------------------
	BYTE	FINE

//**************** Track 6 (Midi-Chn.6) ****************//

KnightErrand_6:
	BYTE	KEYSH   KnightErrand_key+0
// 000   ----------------------------------------
	BYTE		VOICE   21
	BYTE		VOL     104*KnightErrand_mvl/mxv
	BYTE	W24
// 001   ----------------------------------------
	BYTE	W24
// 002   ----------------------------------------
	BYTE	W24
// 003   ----------------------------------------
	BYTE	W24
KnightErrand_6_B1:
// 004   ----------------------------------------
	BYTE	W24
// 005   ----------------------------------------
	BYTE	W24
// 006   ----------------------------------------
	BYTE	W24
// 007   ----------------------------------------
	BYTE	W24
// 008   ----------------------------------------
	BYTE	W24
// 009   ----------------------------------------
	BYTE	W24
// 010   ----------------------------------------
	BYTE	W24
// 011   ----------------------------------------
	BYTE	W24
// 012   ----------------------------------------
	BYTE	W24
// 013   ----------------------------------------
	BYTE	W24
// 014   ----------------------------------------
	BYTE	W24
// 015   ----------------------------------------
	BYTE	W24
// 016   ----------------------------------------
	BYTE	W24
// 017   ----------------------------------------
	BYTE	W24
// 018   ----------------------------------------
	BYTE	W24
// 019   ----------------------------------------
	BYTE	W24
// 020   ----------------------------------------
	BYTE	W24
// 021   ----------------------------------------
	BYTE	W24
// 022   ----------------------------------------
	BYTE	W24
// 023   ----------------------------------------
	BYTE	W24
// 024   ----------------------------------------
	BYTE	W24
// 025   ----------------------------------------
	BYTE	W24
// 026   ----------------------------------------
	BYTE	W24
// 027   ----------------------------------------
	BYTE	W24
// 028   ----------------------------------------
	BYTE	W24
// 029   ----------------------------------------
	BYTE	W24
// 030   ----------------------------------------
	BYTE	W24
// 031   ----------------------------------------
	BYTE	W24
// 032   ----------------------------------------
	BYTE	W24
// 033   ----------------------------------------
	BYTE	W24
// 034   ----------------------------------------
	BYTE	W24
// 035   ----------------------------------------
	BYTE	W24
// 036   ----------------------------------------
	BYTE	W24
// 037   ----------------------------------------
	BYTE	W24
// 038   ----------------------------------------
	BYTE	W24
// 039   ----------------------------------------
	BYTE	W24
// 040   ----------------------------------------
	BYTE	W24
// 041   ----------------------------------------
	BYTE	W24
// 042   ----------------------------------------
	BYTE	W24
// 043   ----------------------------------------
	BYTE	W24
// 044   ----------------------------------------
	BYTE	W24
// 045   ----------------------------------------
	BYTE	W24
// 046   ----------------------------------------
	BYTE	W24
// 047   ----------------------------------------
	BYTE		N12     Gn2   v108
	BYTE	W12
	BYTE		        An2 
	BYTE	W12
// 048   ----------------------------------------
	BYTE		        Gn2 
	BYTE	W12
	BYTE		        Fn2 
	BYTE	W12
// 049   ----------------------------------------
	BYTE		        En2 
	BYTE	W12
	BYTE		        Cn2 
	BYTE	W12
// 050   ----------------------------------------
	BYTE		        An1 
	BYTE	W12
	BYTE		BEND    c_v-49
	BYTE		N60     En2 
	BYTE	W01
	BYTE		BEND    c_v-30
	BYTE	W01
	BYTE		        c_v-19
	BYTE	W01
	BYTE		        c_v-11
	BYTE	W01
	BYTE		        c_v-7
	BYTE	W01
	BYTE		        c_v-4
	BYTE	W01
	BYTE		        c_v-2
	BYTE	W01
	BYTE		        c_v-1
	BYTE	W02
	BYTE		        c_v+0
	BYTE	W03
// 051   ----------------------------------------
KnightErrand_6_051:
	BYTE		BEND    c_v+4
	BYTE	W06
	BYTE		        c_v-4
	BYTE	W06
	BYTE		        c_v+4
	BYTE	W06
	BYTE		        c_v-4
	BYTE	W06
	BYTE	PEND
// 052   ----------------------------------------
	BYTE	PATT
	 POIN2	KnightErrand_6_051
// 053   ----------------------------------------
	BYTE		BEND    c_v+0
	BYTE		N12     En2   v108
	BYTE	W12
	BYTE		        Fn2 
	BYTE	W12
// 054   ----------------------------------------
	BYTE		        En2 
	BYTE	W12
	BYTE		N36     Cn2 
	BYTE	W12
// 055   ----------------------------------------
	BYTE	W24
// 056   ----------------------------------------
	BYTE		N72     An1 
	BYTE	W24
// 057   ----------------------------------------
	BYTE	PATT
	 POIN2	KnightErrand_6_051
// 058   ----------------------------------------
	BYTE	PATT
	 POIN2	KnightErrand_6_051
// 059   ----------------------------------------
	BYTE	PATT
	 POIN2	KnightErrand_6_051
// 060   ----------------------------------------
	BYTE		BEND    c_v-43
	BYTE		N12     Dn2   v108
	BYTE	W01
	BYTE		BEND    c_v-20
	BYTE	W01
	BYTE		        c_v-9
	BYTE	W01
	BYTE		        c_v-4
	BYTE	W01
	BYTE		        c_v-2
	BYTE	W01
	BYTE		        c_v-1
	BYTE	W01
	BYTE		        c_v+0
	BYTE	W06
	BYTE		N12     En2 
	BYTE	W12
// 061   ----------------------------------------
	BYTE		        Fn2 
	BYTE	W12
	BYTE		        An2 
	BYTE	W12
// 062   ----------------------------------------
	BYTE	W12
	BYTE		N24     Gn2 
	BYTE	W12
// 063   ----------------------------------------
	BYTE	W12
	BYTE		N12     Fn2 
	BYTE	W12
// 064   ----------------------------------------
	BYTE		        Gn2 
	BYTE	W12
	BYTE		N42     En2 
	BYTE	W12
// 065   ----------------------------------------
	BYTE	PATT
	 POIN2	KnightErrand_6_051
// 066   ----------------------------------------
	BYTE		BEND    c_v+4
	BYTE	W06
	BYTE		        c_v-4
	BYTE	W06
	BYTE		        c_v+0
	BYTE		N06     Fn2   v108
	BYTE	W06
	BYTE		        Gn2 
	BYTE	W06
// 067   ----------------------------------------
	BYTE		N48     An2 
	BYTE	W24
// 068   ----------------------------------------
	BYTE	PATT
	 POIN2	KnightErrand_6_051
// 069   ----------------------------------------
	BYTE		BEND    c_v+0
	BYTE		N12     An2   v108
	BYTE	W12
	BYTE		        Cn3 
	BYTE	W12
// 070   ----------------------------------------
	BYTE		        As2 
	BYTE	W12
	BYTE		N60     An2 
	BYTE	W12
// 071   ----------------------------------------
KnightErrand_6_071:
	BYTE	W12
	BYTE		BEND    c_v+4
	BYTE	W06
	BYTE		        c_v-4
	BYTE	W06
	BYTE	PEND
// 072   ----------------------------------------
	BYTE	PATT
	 POIN2	KnightErrand_6_051
// 073   ----------------------------------------
	BYTE		BEND    c_v+0
	BYTE		N12     Gn2   v108
	BYTE	W12
	BYTE		        Fn2 
	BYTE	W12
// 074   ----------------------------------------
	BYTE		        Gn2 
	BYTE	W12
	BYTE		TIE     An2 
	BYTE	W12
// 075   ----------------------------------------
	BYTE	PATT
	 POIN2	KnightErrand_6_071
// 076   ----------------------------------------
	BYTE	PATT
	 POIN2	KnightErrand_6_051
// 077   ----------------------------------------
	BYTE	PATT
	 POIN2	KnightErrand_6_051
// 078   ----------------------------------------
	BYTE	PATT
	 POIN2	KnightErrand_6_051
// 079   ----------------------------------------
	BYTE		BEND    c_v+4
	BYTE	W06
	BYTE		        c_v-4
	BYTE	W06
	BYTE		        c_v+4
	BYTE	W06
	BYTE		        c_v+0
	BYTE	W06
	BYTE		EOT     An2 
// 080   ----------------------------------------
	BYTE	W24
// 081   ----------------------------------------
	BYTE	W24
// 082   ----------------------------------------
	BYTE	W24
// 083   ----------------------------------------
	BYTE	W24
// 084   ----------------------------------------
	BYTE	W24
// 085   ----------------------------------------
	BYTE	W24
// 086   ----------------------------------------
	BYTE	W24
// 087   ----------------------------------------
	BYTE	W24
// 088   ----------------------------------------
	BYTE	W24
// 089   ----------------------------------------
	BYTE	W24
// 090   ----------------------------------------
	BYTE	W24
// 091   ----------------------------------------
	BYTE	W24
// 092   ----------------------------------------
	BYTE	W24
// 093   ----------------------------------------
	BYTE	W24
// 094   ----------------------------------------
	BYTE	W24
// 095   ----------------------------------------
	BYTE	W24
// 096   ----------------------------------------
	BYTE	W24
// 097   ----------------------------------------
	BYTE	W24
// 098   ----------------------------------------
	BYTE		N12     Dn3   v092
	BYTE	W12
	BYTE		        En3 
	BYTE	W12
// 099   ----------------------------------------
	BYTE		BEND    c_v-13
	BYTE		N40     Fn3 
	BYTE	W01
	BYTE		BEND    c_v-9
	BYTE	W01
	BYTE		        c_v-6
	BYTE	W01
	BYTE		        c_v-4
	BYTE	W01
	BYTE		        c_v-3
	BYTE	W01
	BYTE		        c_v-2
	BYTE	W01
	BYTE		        c_v-1
	BYTE	W02
	BYTE		        c_v+0
	BYTE	W16
// 100   ----------------------------------------
	BYTE	W24
// 101   ----------------------------------------
	BYTE		N12   
	BYTE	W12
	BYTE		        Dn3 
	BYTE	W12
// 102   ----------------------------------------
	BYTE		        En3 
	BYTE	W12
	BYTE		        Fn3 
	BYTE	W12
// 103   ----------------------------------------
	BYTE		BEND    c_v-49
	BYTE		N24     Gn3 
	BYTE	W01
	BYTE		BEND    c_v-30
	BYTE	W01
	BYTE		        c_v-19
	BYTE	W01
	BYTE		        c_v-11
	BYTE	W01
	BYTE		        c_v-7
	BYTE	W01
	BYTE		        c_v-4
	BYTE	W01
	BYTE		        c_v-2
	BYTE	W01
	BYTE		        c_v-1
	BYTE	W02
	BYTE		        c_v+0
	BYTE	W15
// 104   ----------------------------------------
	BYTE		N24     En3 
	BYTE	W24
// 105   ----------------------------------------
	BYTE		        Cn3 
	BYTE	W24
// 106   ----------------------------------------
	BYTE		BEND    c_v-45
	BYTE		N12     As3 
	BYTE	W01
	BYTE		BEND    c_v-28
	BYTE	W01
	BYTE		        c_v-17
	BYTE	W01
	BYTE		        c_v-10
	BYTE	W01
	BYTE		        c_v-6
	BYTE	W01
	BYTE		        c_v-3
	BYTE	W01
	BYTE		        c_v-2
	BYTE	W01
	BYTE		        c_v-1
	BYTE	W01
	BYTE		        c_v+0
	BYTE	W04
	BYTE		TIE     An3 
	BYTE	W12
// 107   ----------------------------------------
	BYTE	W24
// 108   ----------------------------------------
	BYTE	W24
// 109   ----------------------------------------
	BYTE	W24
// 110   ----------------------------------------
	BYTE	W24
	BYTE		EOT   
// 111   ----------------------------------------
	BYTE	W24
// 112   ----------------------------------------
	BYTE	W24
// 113   ----------------------------------------
	BYTE	W24
// 114   ----------------------------------------
	BYTE	W24
// 115   ----------------------------------------
	BYTE	W24
// 116   ----------------------------------------
	BYTE	W24
// 117   ----------------------------------------
	BYTE	W24
// 118   ----------------------------------------
	BYTE	W24
// 119   ----------------------------------------
	BYTE	W24
// 120   ----------------------------------------
	BYTE	W24
// 121   ----------------------------------------
	BYTE	W24
// 122   ----------------------------------------
	BYTE	W24
// 123   ----------------------------------------
	BYTE	W24
// 124   ----------------------------------------
	BYTE	W24
// 125   ----------------------------------------
	BYTE	W24
// 126   ----------------------------------------
	BYTE	W24
// 127   ----------------------------------------
	BYTE	W24
// 128   ----------------------------------------
	BYTE	W24
// 129   ----------------------------------------
	BYTE	W24
// 130   ----------------------------------------
	BYTE		N12     En3 
	BYTE	W12
	BYTE		BEND    c_v-21
	BYTE		N24     Fn3 
	BYTE	W01
	BYTE		BEND    c_v-10
	BYTE	W01
	BYTE		        c_v-4
	BYTE	W01
	BYTE		        c_v-2
	BYTE	W01
	BYTE		        c_v-1
	BYTE	W01
	BYTE		        c_v+0
	BYTE	W07
// 131   ----------------------------------------
	BYTE	W12
	BYTE		N12     En3 
	BYTE	W12
// 132   ----------------------------------------
	BYTE		N06     Dn3 
	BYTE	W12
	BYTE		BEND    c_v-43
	BYTE		N24     Gn3 
	BYTE	W01
	BYTE		BEND    c_v-20
	BYTE	W01
	BYTE		        c_v-9
	BYTE	W01
	BYTE		        c_v-4
	BYTE	W01
	BYTE		        c_v-2
	BYTE	W01
	BYTE		        c_v-1
	BYTE	W01
	BYTE		        c_v+0
	BYTE	W06
// 133   ----------------------------------------
	BYTE	W12
	BYTE		N12     Fn3 
	BYTE	W12
// 134   ----------------------------------------
	BYTE		N06     En3 
	BYTE	W12
	BYTE		BEND    c_v-43
	BYTE		N24     An3 
	BYTE	W01
	BYTE		BEND    c_v-20
	BYTE	W01
	BYTE		        c_v-9
	BYTE	W01
	BYTE		        c_v-4
	BYTE	W01
	BYTE		        c_v-2
	BYTE	W01
	BYTE		        c_v-1
	BYTE	W01
	BYTE		        c_v+0
	BYTE	W06
// 135   ----------------------------------------
	BYTE	W12
	BYTE		N12     Gn3 
	BYTE	W12
// 136   ----------------------------------------
	BYTE		N06     Fn3 
	BYTE	W12
	BYTE		BEND    c_v-43
	BYTE		N24     As3 
	BYTE	W01
	BYTE		BEND    c_v-20
	BYTE	W01
	BYTE		        c_v-9
	BYTE	W01
	BYTE		        c_v-4
	BYTE	W01
	BYTE		        c_v-2
	BYTE	W01
	BYTE		        c_v-1
	BYTE	W01
	BYTE		        c_v+0
	BYTE	W06
// 137   ----------------------------------------
	BYTE	W12
	BYTE		N12     An3 
	BYTE	W12
// 138   ----------------------------------------
	BYTE		        Gn3 
	BYTE	W12
	BYTE		BEND    c_v-49
	BYTE		N12     As3 
	BYTE	W01
	BYTE		BEND    c_v-30
	BYTE	W01
	BYTE		        c_v-19
	BYTE	W01
	BYTE		        c_v-11
	BYTE	W01
	BYTE		        c_v-7
	BYTE	W01
	BYTE		        c_v-4
	BYTE	W01
	BYTE		        c_v-2
	BYTE	W01
	BYTE		        c_v-1
	BYTE	W02
	BYTE		        c_v+0
	BYTE	W03
// 139   ----------------------------------------
	BYTE		TIE     An3 
	BYTE	W24
// 140   ----------------------------------------
	BYTE	W24
// 141   ----------------------------------------
	BYTE	W24
// 142   ----------------------------------------
	BYTE	W24
// 143   ----------------------------------------
	BYTE	W24
	BYTE		EOT   
// 144   ----------------------------------------
	BYTE	W24
// 145   ----------------------------------------
	BYTE		BEND    c_v-49
	BYTE		N12   
	BYTE	W01
	BYTE		BEND    c_v-30
	BYTE	W01
	BYTE		        c_v-19
	BYTE	W01
	BYTE		        c_v-11
	BYTE	W01
	BYTE		        c_v-7
	BYTE	W01
	BYTE		        c_v-4
	BYTE	W01
	BYTE		        c_v-2
	BYTE	W01
	BYTE		        c_v-1
	BYTE	W02
	BYTE		        c_v+0
	BYTE	W03
	BYTE		N12     Cn4 
	BYTE	W12
// 146   ----------------------------------------
	BYTE		        An3 
	BYTE	W12
	BYTE		TIE     Dn4 
	BYTE	W12
// 147   ----------------------------------------
	BYTE	W24
// 148   ----------------------------------------
	BYTE	W24
// 149   ----------------------------------------
	BYTE	W24
// 150   ----------------------------------------
	BYTE	W24
// 151   ----------------------------------------
	BYTE	W24
// 152   ----------------------------------------
	BYTE	W24
// 153   ----------------------------------------
	BYTE	W24
// 154   ----------------------------------------
	BYTE	W24
// 155   ----------------------------------------
	BYTE	W24
// 156   ----------------------------------------
	BYTE	W24
// 157   ----------------------------------------
	BYTE	W24
// 158   ----------------------------------------
	BYTE	W24
// 159   ----------------------------------------
	BYTE	W24
// 160   ----------------------------------------
	BYTE	W24
// 161   ----------------------------------------
	BYTE	W24
// 162   ----------------------------------------
	BYTE	W23
	BYTE		EOT   
	BYTE	W01
	BYTE	GoTo
	 POIN2	KnightErrand_6_B1
KnightErrand_6_B2:
// 163   ----------------------------------------
	BYTE	W24
// 164   ----------------------------------------
	BYTE	W24
// 165   ----------------------------------------
	BYTE	FINE

//**************** Track 7 (Midi-Chn.7) ****************//

KnightErrand_7:
	BYTE	KEYSH   KnightErrand_key+0
// 000   ----------------------------------------
	BYTE		VOICE   56
	BYTE		VOL     66*KnightErrand_mvl/mxv
	BYTE	W09
	BYTE		PAN     c_v+0
	BYTE	W15
// 001   ----------------------------------------
	BYTE	W24
// 002   ----------------------------------------
	BYTE	W24
// 003   ----------------------------------------
	BYTE	W24
KnightErrand_7_B1:
// 004   ----------------------------------------
	BYTE	W24
// 005   ----------------------------------------
	BYTE	W24
// 006   ----------------------------------------
	BYTE	W24
// 007   ----------------------------------------
	BYTE	W24
// 008   ----------------------------------------
	BYTE	W24
// 009   ----------------------------------------
	BYTE	W24
// 010   ----------------------------------------
	BYTE	W24
// 011   ----------------------------------------
	BYTE	W24
// 012   ----------------------------------------
	BYTE	W24
// 013   ----------------------------------------
	BYTE	W24
// 014   ----------------------------------------
	BYTE	W24
// 015   ----------------------------------------
	BYTE	W24
// 016   ----------------------------------------
	BYTE	W24
// 017   ----------------------------------------
	BYTE	W24
// 018   ----------------------------------------
	BYTE	W24
// 019   ----------------------------------------
	BYTE		TIE     An2   v084
	BYTE	W24
// 020   ----------------------------------------
	BYTE	W24
// 021   ----------------------------------------
	BYTE	W24
// 022   ----------------------------------------
	BYTE	W24
// 023   ----------------------------------------
	BYTE	W24
// 024   ----------------------------------------
	BYTE	W24
// 025   ----------------------------------------
	BYTE	W23
	BYTE		EOT   
	BYTE	W01
// 026   ----------------------------------------
	BYTE		N23     Gn2   v076
	BYTE	W24
// 027   ----------------------------------------
	BYTE		N80     An2 
	BYTE	W24
// 028   ----------------------------------------
	BYTE	W24
// 029   ----------------------------------------
	BYTE	W24
// 030   ----------------------------------------
	BYTE	W12
	BYTE		TIE     Gn2   v084
	BYTE	W12
// 031   ----------------------------------------
	BYTE	W24
// 032   ----------------------------------------
	BYTE	W24
// 033   ----------------------------------------
	BYTE	W24
// 034   ----------------------------------------
	BYTE	W23
	BYTE		EOT   
	BYTE	W01
// 035   ----------------------------------------
	BYTE		N80     Fn2   v060
	BYTE	W24
// 036   ----------------------------------------
	BYTE	W24
// 037   ----------------------------------------
	BYTE	W24
// 038   ----------------------------------------
KnightErrand_7_038:
	BYTE	W12
	BYTE		TIE     Gn2   v076
	BYTE	W12
	BYTE	PEND
// 039   ----------------------------------------
	BYTE	W24
// 040   ----------------------------------------
	BYTE	W24
// 041   ----------------------------------------
	BYTE	W24
// 042   ----------------------------------------
	BYTE	W23
	BYTE		EOT   
	BYTE	W01
// 043   ----------------------------------------
	BYTE		N96     An2 
	BYTE	W24
// 044   ----------------------------------------
	BYTE	W24
// 045   ----------------------------------------
	BYTE	W24
// 046   ----------------------------------------
	BYTE	W24
// 047   ----------------------------------------
	BYTE	W24
// 048   ----------------------------------------
	BYTE	W24
// 049   ----------------------------------------
	BYTE	W24
// 050   ----------------------------------------
	BYTE	W12
	BYTE		TIE     An2   v092
	BYTE	W12
// 051   ----------------------------------------
	BYTE	W24
// 052   ----------------------------------------
	BYTE	W24
// 053   ----------------------------------------
	BYTE	W24
// 054   ----------------------------------------
	BYTE	W24
// 055   ----------------------------------------
	BYTE	W24
// 056   ----------------------------------------
	BYTE	W24
// 057   ----------------------------------------
	BYTE	W23
	BYTE		EOT   
	BYTE	W01
// 058   ----------------------------------------
	BYTE		N23     Gn2   v076
	BYTE	W24
// 059   ----------------------------------------
	BYTE		N80     An2 
	BYTE	W24
// 060   ----------------------------------------
	BYTE	W24
// 061   ----------------------------------------
	BYTE	W24
// 062   ----------------------------------------
	BYTE	PATT
	 POIN2	KnightErrand_7_038
// 063   ----------------------------------------
	BYTE	W24
// 064   ----------------------------------------
	BYTE	W24
// 065   ----------------------------------------
	BYTE	W24
// 066   ----------------------------------------
	BYTE	W23
	BYTE		EOT     Gn2 
	BYTE	W01
// 067   ----------------------------------------
	BYTE		N80     Fn2   v064
	BYTE	W24
// 068   ----------------------------------------
	BYTE	W24
// 069   ----------------------------------------
	BYTE	W24
// 070   ----------------------------------------
	BYTE	W12
	BYTE		N92     Gn2   v084
	BYTE	W12
// 071   ----------------------------------------
	BYTE	W24
// 072   ----------------------------------------
	BYTE	W24
// 073   ----------------------------------------
	BYTE	W24
// 074   ----------------------------------------
	BYTE	W12
	BYTE		TIE     An2 
	BYTE	W12
// 075   ----------------------------------------
	BYTE	W24
// 076   ----------------------------------------
	BYTE	W24
// 077   ----------------------------------------
	BYTE	W24
// 078   ----------------------------------------
	BYTE	W24
// 079   ----------------------------------------
	BYTE	W24
// 080   ----------------------------------------
	BYTE	W24
// 081   ----------------------------------------
	BYTE	W23
	BYTE		EOT   
	BYTE	W01
// 082   ----------------------------------------
	BYTE		N05     Cn1   v092
	BYTE	W03
	BYTE		        Dn1   v032
	BYTE	W03
	BYTE		        En1   v028
	BYTE	W03
	BYTE		        Fn1 
	BYTE	W03
	BYTE		        Gn1 
	BYTE	W03
	BYTE		        An1   v092
	BYTE	W03
	BYTE		        Bn1   v084
	BYTE	W03
	BYTE		N03     Cn2   v092
	BYTE	W03
// 083   ----------------------------------------
	BYTE		TIE     Dn3   v076
	BYTE	W24
// 084   ----------------------------------------
	BYTE	W24
// 085   ----------------------------------------
	BYTE	W24
// 086   ----------------------------------------
	BYTE	W24
// 087   ----------------------------------------
	BYTE	W24
// 088   ----------------------------------------
	BYTE	W24
// 089   ----------------------------------------
	BYTE	W24
// 090   ----------------------------------------
	BYTE	W23
	BYTE		EOT   
	BYTE	W01
// 091   ----------------------------------------
	BYTE		N80     Cn3   v084
	BYTE	W24
// 092   ----------------------------------------
	BYTE	W24
// 093   ----------------------------------------
	BYTE	W24
// 094   ----------------------------------------
	BYTE	W12
	BYTE		TIE     Dn3 
	BYTE	W12
// 095   ----------------------------------------
	BYTE	W24
// 096   ----------------------------------------
	BYTE	W24
// 097   ----------------------------------------
	BYTE	W24
// 098   ----------------------------------------
	BYTE	W23
	BYTE		EOT   
	BYTE	W01
// 099   ----------------------------------------
	BYTE		N92   
	BYTE	W24
// 100   ----------------------------------------
	BYTE	W24
// 101   ----------------------------------------
	BYTE	W24
// 102   ----------------------------------------
	BYTE	W24
// 103   ----------------------------------------
	BYTE		N80     En3   v092
	BYTE	W24
// 104   ----------------------------------------
	BYTE	W24
// 105   ----------------------------------------
	BYTE	W24
// 106   ----------------------------------------
	BYTE	W12
	BYTE		TIE     Fn3   v100
	BYTE	W12
// 107   ----------------------------------------
	BYTE	W24
// 108   ----------------------------------------
	BYTE	W24
// 109   ----------------------------------------
	BYTE	W24
// 110   ----------------------------------------
	BYTE	W23
	BYTE		EOT   
	BYTE	W01
// 111   ----------------------------------------
	BYTE		N05     Fn3   v072
	BYTE	W03
	BYTE		        En3 
	BYTE	W03
	BYTE		        Dn3 
	BYTE	W03
	BYTE		        Cn3 
	BYTE	W03
	BYTE		        Bn2 
	BYTE	W03
	BYTE		        An2 
	BYTE	W03
	BYTE		        Gn2 
	BYTE	W03
	BYTE		        Fn2 
	BYTE	W03
// 112   ----------------------------------------
	BYTE		        Dn3   v060
	BYTE	W03
	BYTE		        Cn3 
	BYTE	W03
	BYTE		        Bn2 
	BYTE	W03
	BYTE		        An2 
	BYTE	W03
	BYTE		        Gn2 
	BYTE	W03
	BYTE		        Fn2 
	BYTE	W03
	BYTE		        En2 
	BYTE	W03
	BYTE		        Dn2 
	BYTE	W03
// 113   ----------------------------------------
	BYTE		        An2   v052
	BYTE	W03
	BYTE		        Gn2 
	BYTE	W03
	BYTE		        Fn2 
	BYTE	W03
	BYTE		        En2 
	BYTE	W03
	BYTE		        Dn2 
	BYTE	W03
	BYTE		        Cn2 
	BYTE	W03
	BYTE		        Bn1 
	BYTE	W03
	BYTE		        An1 
	BYTE	W03
// 114   ----------------------------------------
	BYTE		        Gn1 
	BYTE	W03
	BYTE		        Fn1 
	BYTE	W03
	BYTE		        En1 
	BYTE	W03
	BYTE		        Dn1 
	BYTE	W03
	BYTE		        Cn1 
	BYTE	W03
	BYTE		        Bn0 
	BYTE	W03
	BYTE		        An0 
	BYTE	W06
// 115   ----------------------------------------
	BYTE		N17     Dn3   v072
	BYTE	W24
// 116   ----------------------------------------
	BYTE		        Dn3   v080
	BYTE	W24
// 117   ----------------------------------------
	BYTE		N17   
	BYTE	W24
// 118   ----------------------------------------
	BYTE		        Dn3   v064
	BYTE	W24
// 119   ----------------------------------------
	BYTE		        Dn3   v072
	BYTE	W24
// 120   ----------------------------------------
	BYTE		N17   
	BYTE	W24
// 121   ----------------------------------------
	BYTE		        Dn3   v080
	BYTE	W24
// 122   ----------------------------------------
	BYTE		N17   
	BYTE	W24
// 123   ----------------------------------------
	BYTE		        Cn3   v072
	BYTE	W24
// 124   ----------------------------------------
	BYTE		N17   
	BYTE	W24
// 125   ----------------------------------------
	BYTE		N17   
	BYTE	W24
// 126   ----------------------------------------
	BYTE		N17   
	BYTE	W24
// 127   ----------------------------------------
	BYTE		        Dn3   v080
	BYTE	W24
// 128   ----------------------------------------
	BYTE		N17   
	BYTE	W24
// 129   ----------------------------------------
	BYTE		N17   
	BYTE	W24
// 130   ----------------------------------------
	BYTE		N05     Dn3   v072
	BYTE	W12
	BYTE		N40     Dn3   v092
	BYTE	W12
// 131   ----------------------------------------
	BYTE	W24
// 132   ----------------------------------------
	BYTE	W12
	BYTE		        Cn3   v084
	BYTE	W12
// 133   ----------------------------------------
	BYTE	W24
// 134   ----------------------------------------
	BYTE	W12
	BYTE		N44     Dn3   v100
	BYTE	W12
// 135   ----------------------------------------
	BYTE	W24
// 136   ----------------------------------------
	BYTE	W12
	BYTE		        Dn3   v076
	BYTE	W12
// 137   ----------------------------------------
	BYTE	W24
// 138   ----------------------------------------
	BYTE	W12
	BYTE		N05     Dn3   v092
	BYTE	W12
// 139   ----------------------------------------
	BYTE		N92     Cs3   v076
	BYTE	W24
// 140   ----------------------------------------
	BYTE	W24
// 141   ----------------------------------------
	BYTE	W24
// 142   ----------------------------------------
	BYTE	W24
// 143   ----------------------------------------
	BYTE	W24
// 144   ----------------------------------------
	BYTE	W24
// 145   ----------------------------------------
	BYTE		N05     An2   v072
	BYTE	W03
	BYTE		        Gn2 
	BYTE	W03
	BYTE		        Fs2 
	BYTE	W03
	BYTE		        En2 
	BYTE	W03
	BYTE		        Dn2 
	BYTE	W03
	BYTE		        Cn2 
	BYTE	W03
	BYTE		        Bn1 
	BYTE	W03
	BYTE		        An1 
	BYTE	W03
// 146   ----------------------------------------
	BYTE		        Gn1 
	BYTE	W03
	BYTE		        Fs1 
	BYTE	W03
	BYTE		        En1 
	BYTE	W03
	BYTE		        Dn1 
	BYTE	W03
	BYTE		        Cn1 
	BYTE	W03
	BYTE		        Bn0 
	BYTE	W03
	BYTE		        An0 
	BYTE	W06
// 147   ----------------------------------------
	BYTE	W12
	BYTE		        Fn3   v092
	BYTE	W12
// 148   ----------------------------------------
	BYTE	W06
	BYTE		N05   
	BYTE	W18
// 149   ----------------------------------------
	BYTE		        Fn3   v084
	BYTE	W18
	BYTE		        Fn3   v092
	BYTE	W06
// 150   ----------------------------------------
	BYTE	W12
	BYTE		        Fn3   v084
	BYTE	W12
// 151   ----------------------------------------
	BYTE	W06
	BYTE		        En3 
	BYTE	W18
// 152   ----------------------------------------
	BYTE	W24
// 153   ----------------------------------------
	BYTE	W12
	BYTE		N05   
	BYTE	W12
// 154   ----------------------------------------
	BYTE		        An3 
	BYTE	W12
	BYTE		        En3 
	BYTE	W12
// 155   ----------------------------------------
	BYTE	W12
	BYTE		        An3   v064
	BYTE	W12
// 156   ----------------------------------------
	BYTE	W12
	BYTE		        An3   v084
	BYTE	W12
// 157   ----------------------------------------
	BYTE	W12
	BYTE		        An3   v076
	BYTE	W12
// 158   ----------------------------------------
	BYTE	W12
	BYTE		        An3   v084
	BYTE	W12
// 159   ----------------------------------------
	BYTE		        As3   v076
	BYTE	W06
	BYTE		        An3   v064
	BYTE	W06
	BYTE		        Gs3 
	BYTE	W06
	BYTE		        Gn3 
	BYTE	W06
// 160   ----------------------------------------
	BYTE		        Fs3   v060
	BYTE	W06
	BYTE		        Fn3   v064
	BYTE	W06
	BYTE		        En3   v076
	BYTE	W06
	BYTE		        Ds3   v056
	BYTE	W06
// 161   ----------------------------------------
	BYTE		        Dn3   v060
	BYTE	W06
	BYTE		        Cs3   v068
	BYTE	W06
	BYTE		        Cn3   v064
	BYTE	W06
	BYTE		        Bn2   v056
	BYTE	W06
// 162   ----------------------------------------
	BYTE		        As2   v064
	BYTE	W06
	BYTE		        An2   v076
	BYTE	W06
	BYTE		        Gn2 
	BYTE	W06
	BYTE		        En2   v084
	BYTE	W06
	BYTE	GoTo
	 POIN2	KnightErrand_7_B1
KnightErrand_7_B2:
// 163   ----------------------------------------
	BYTE	W24
// 164   ----------------------------------------
	BYTE	W24
// 165   ----------------------------------------
	BYTE	FINE

//**************** Track 8 (Midi-Chn.8) ****************//

KnightErrand_8:
	BYTE	KEYSH   KnightErrand_key+0
// 000   ----------------------------------------
	BYTE		VOICE   57
	BYTE		VOL     66*KnightErrand_mvl/mxv
	BYTE		PAN     c_v+0
	BYTE	W24
// 001   ----------------------------------------
	BYTE	W24
// 002   ----------------------------------------
	BYTE	W24
// 003   ----------------------------------------
	BYTE	W24
KnightErrand_8_B1:
// 004   ----------------------------------------
KnightErrand_8_004:
	BYTE		N12     Fn3   v092
	BYTE	W12
	BYTE		        En3 
	BYTE	W12
	BYTE	PEND
// 005   ----------------------------------------
	BYTE	W12
	BYTE		        Cn3 
	BYTE	W12
// 006   ----------------------------------------
KnightErrand_8_006:
	BYTE		N12     Gn2   v092
	BYTE	W12
	BYTE		        An2 
	BYTE	W12
	BYTE	PEND
// 007   ----------------------------------------
	BYTE	W12
	BYTE		        Cn3 
	BYTE	W12
// 008   ----------------------------------------
	BYTE	W12
	BYTE		        Dn3 
	BYTE	W12
// 009   ----------------------------------------
	BYTE	W12
	BYTE		        En3 
	BYTE	W12
// 010   ----------------------------------------
	BYTE		        Fn3 
	BYTE	W12
	BYTE		        Gn3 
	BYTE	W12
// 011   ----------------------------------------
	BYTE	W24
// 012   ----------------------------------------
	BYTE	PATT
	 POIN2	KnightErrand_8_004
// 013   ----------------------------------------
	BYTE	W12
	BYTE		N12     Cn3   v092
	BYTE	W12
// 014   ----------------------------------------
	BYTE	PATT
	 POIN2	KnightErrand_8_006
// 015   ----------------------------------------
	BYTE	W24
// 016   ----------------------------------------
	BYTE	W24
// 017   ----------------------------------------
	BYTE	W24
// 018   ----------------------------------------
	BYTE	W24
// 019   ----------------------------------------
	BYTE		TIE     Fn2   v092
	BYTE	W24
// 020   ----------------------------------------
	BYTE	W24
// 021   ----------------------------------------
	BYTE	W24
// 022   ----------------------------------------
	BYTE	W24
// 023   ----------------------------------------
	BYTE	W24
// 024   ----------------------------------------
	BYTE	W24
// 025   ----------------------------------------
	BYTE	W23
	BYTE		EOT   
	BYTE	W01
// 026   ----------------------------------------
	BYTE		N23     En2 
	BYTE	W24
// 027   ----------------------------------------
	BYTE		N80     Fn2   v084
	BYTE	W24
// 028   ----------------------------------------
	BYTE	W24
// 029   ----------------------------------------
	BYTE	W24
// 030   ----------------------------------------
KnightErrand_8_030:
	BYTE	W12
	BYTE		TIE     En2   v084
	BYTE	W12
	BYTE	PEND
// 031   ----------------------------------------
	BYTE	W24
// 032   ----------------------------------------
	BYTE	W24
// 033   ----------------------------------------
	BYTE	W24
// 034   ----------------------------------------
	BYTE	W23
	BYTE		EOT   
	BYTE	W01
// 035   ----------------------------------------
	BYTE		N80     Dn2   v072
	BYTE	W24
// 036   ----------------------------------------
	BYTE	W24
// 037   ----------------------------------------
	BYTE	W24
// 038   ----------------------------------------
	BYTE	PATT
	 POIN2	KnightErrand_8_030
// 039   ----------------------------------------
	BYTE	W24
// 040   ----------------------------------------
	BYTE	W24
// 041   ----------------------------------------
	BYTE	W24
// 042   ----------------------------------------
	BYTE	W23
	BYTE		EOT     En2 
	BYTE	W01
// 043   ----------------------------------------
	BYTE		N96     Fn2   v076
	BYTE	W24
// 044   ----------------------------------------
	BYTE	W24
// 045   ----------------------------------------
	BYTE	W24
// 046   ----------------------------------------
	BYTE	W24
// 047   ----------------------------------------
	BYTE	W24
// 048   ----------------------------------------
	BYTE	W24
// 049   ----------------------------------------
	BYTE	W24
// 050   ----------------------------------------
	BYTE	W12
	BYTE		TIE     Fn2   v092
	BYTE	W12
// 051   ----------------------------------------
	BYTE	W24
// 052   ----------------------------------------
	BYTE	W24
// 053   ----------------------------------------
	BYTE	W24
// 054   ----------------------------------------
	BYTE	W24
// 055   ----------------------------------------
	BYTE	W24
// 056   ----------------------------------------
	BYTE	W24
// 057   ----------------------------------------
	BYTE	W23
	BYTE		EOT   
	BYTE	W01
// 058   ----------------------------------------
	BYTE		N23     En2   v076
	BYTE	W24
// 059   ----------------------------------------
	BYTE		N80     Fn2   v084
	BYTE	W24
// 060   ----------------------------------------
	BYTE	W24
// 061   ----------------------------------------
	BYTE	W24
// 062   ----------------------------------------
	BYTE	PATT
	 POIN2	KnightErrand_8_030
// 063   ----------------------------------------
	BYTE	W24
// 064   ----------------------------------------
	BYTE	W24
// 065   ----------------------------------------
	BYTE	W24
// 066   ----------------------------------------
	BYTE	W23
	BYTE		EOT     En2 
	BYTE	W01
// 067   ----------------------------------------
	BYTE		N80     Dn2   v084
	BYTE	W24
// 068   ----------------------------------------
	BYTE	W24
// 069   ----------------------------------------
	BYTE	W24
// 070   ----------------------------------------
	BYTE	W12
	BYTE		N92     En2   v092
	BYTE	W12
// 071   ----------------------------------------
	BYTE	W24
// 072   ----------------------------------------
	BYTE	W24
// 073   ----------------------------------------
	BYTE	W24
// 074   ----------------------------------------
	BYTE	W12
	BYTE		TIE   
	BYTE	W12
// 075   ----------------------------------------
	BYTE	W24
// 076   ----------------------------------------
	BYTE	W24
// 077   ----------------------------------------
	BYTE	W24
// 078   ----------------------------------------
	BYTE	W24
// 079   ----------------------------------------
	BYTE	W24
// 080   ----------------------------------------
	BYTE	W24
// 081   ----------------------------------------
	BYTE	W23
	BYTE		EOT   
	BYTE	W01
// 082   ----------------------------------------
	BYTE	W24
// 083   ----------------------------------------
	BYTE		TIE     As2 
	BYTE	W24
// 084   ----------------------------------------
	BYTE	W24
// 085   ----------------------------------------
	BYTE	W24
// 086   ----------------------------------------
	BYTE	W24
// 087   ----------------------------------------
	BYTE	W24
// 088   ----------------------------------------
	BYTE	W24
// 089   ----------------------------------------
	BYTE	W24
// 090   ----------------------------------------
	BYTE	W23
	BYTE		EOT   
	BYTE	W01
// 091   ----------------------------------------
	BYTE		N80     An2 
	BYTE	W24
// 092   ----------------------------------------
	BYTE	W24
// 093   ----------------------------------------
	BYTE	W24
// 094   ----------------------------------------
	BYTE	W12
	BYTE		TIE     An2   v104
	BYTE	W12
// 095   ----------------------------------------
	BYTE	W24
// 096   ----------------------------------------
	BYTE	W24
// 097   ----------------------------------------
	BYTE	W24
// 098   ----------------------------------------
	BYTE	W23
	BYTE		EOT   
	BYTE	W01
// 099   ----------------------------------------
	BYTE		N92     As2   v092
	BYTE	W24
// 100   ----------------------------------------
	BYTE	W24
// 101   ----------------------------------------
	BYTE	W24
// 102   ----------------------------------------
	BYTE	W24
// 103   ----------------------------------------
	BYTE		N80     Cn3 
	BYTE	W24
// 104   ----------------------------------------
	BYTE	W24
// 105   ----------------------------------------
	BYTE	W24
// 106   ----------------------------------------
	BYTE	W12
	BYTE		TIE     Dn3   v112
	BYTE	W12
// 107   ----------------------------------------
	BYTE	W24
// 108   ----------------------------------------
	BYTE	W24
// 109   ----------------------------------------
	BYTE	W24
// 110   ----------------------------------------
	BYTE	W23
	BYTE		EOT   
	BYTE	W01
// 111   ----------------------------------------
	BYTE	W24
// 112   ----------------------------------------
	BYTE	W24
// 113   ----------------------------------------
	BYTE	W24
// 114   ----------------------------------------
	BYTE	W24
// 115   ----------------------------------------
	BYTE		N17     As2   v084
	BYTE	W24
// 116   ----------------------------------------
	BYTE		        As2   v072
	BYTE	W24
// 117   ----------------------------------------
	BYTE		        As2   v084
	BYTE	W24
// 118   ----------------------------------------
	BYTE		N17   
	BYTE	W24
// 119   ----------------------------------------
	BYTE		N17   
	BYTE	W24
// 120   ----------------------------------------
	BYTE		N17   
	BYTE	W24
// 121   ----------------------------------------
	BYTE		N17   
	BYTE	W24
// 122   ----------------------------------------
	BYTE		N17   
	BYTE	W24
// 123   ----------------------------------------
	BYTE		        An2   v072
	BYTE	W24
// 124   ----------------------------------------
	BYTE		        An2   v084
	BYTE	W24
// 125   ----------------------------------------
	BYTE		N17   
	BYTE	W24
// 126   ----------------------------------------
	BYTE		N17   
	BYTE	W24
// 127   ----------------------------------------
	BYTE		        An2   v072
	BYTE	W24
// 128   ----------------------------------------
	BYTE		        An2   v084
	BYTE	W24
// 129   ----------------------------------------
	BYTE		        An2   v072
	BYTE	W24
// 130   ----------------------------------------
	BYTE		N05     An2   v084
	BYTE	W12
	BYTE		N40     As2   v104
	BYTE	W12
// 131   ----------------------------------------
	BYTE	W24
// 132   ----------------------------------------
	BYTE	W12
	BYTE		        Gn2   v092
	BYTE	W12
// 133   ----------------------------------------
	BYTE	W24
// 134   ----------------------------------------
	BYTE	W12
	BYTE		N44     As2   v064
	BYTE	W12
// 135   ----------------------------------------
	BYTE	W24
// 136   ----------------------------------------
	BYTE	W12
	BYTE		        As2   v112
	BYTE	W12
// 137   ----------------------------------------
	BYTE	W24
// 138   ----------------------------------------
	BYTE	W12
	BYTE		N05     As2   v084
	BYTE	W12
// 139   ----------------------------------------
	BYTE		N92     An2   v092
	BYTE	W24
// 140   ----------------------------------------
	BYTE	W24
// 141   ----------------------------------------
	BYTE	W24
// 142   ----------------------------------------
	BYTE	W24
// 143   ----------------------------------------
	BYTE		N17   
	BYTE	W24
// 144   ----------------------------------------
	BYTE		N17   
	BYTE	W24
// 145   ----------------------------------------
	BYTE	W24
// 146   ----------------------------------------
	BYTE	W24
// 147   ----------------------------------------
	BYTE	W06
	BYTE		N05     Dn3 
	BYTE	W18
// 148   ----------------------------------------
	BYTE		        Dn3   v104
	BYTE	W18
	BYTE		        Dn3   v084
	BYTE	W06
// 149   ----------------------------------------
	BYTE	W12
	BYTE		        Dn3   v076
	BYTE	W12
// 150   ----------------------------------------
	BYTE	W06
	BYTE		N05   
	BYTE	W18
// 151   ----------------------------------------
	BYTE	W12
	BYTE		        Cn3   v084
	BYTE	W12
// 152   ----------------------------------------
	BYTE	W12
	BYTE		        Dn3 
	BYTE	W12
// 153   ----------------------------------------
	BYTE	W24
// 154   ----------------------------------------
	BYTE	W24
// 155   ----------------------------------------
	BYTE	W06
	BYTE		        Fn3   v076
	BYTE	W18
// 156   ----------------------------------------
	BYTE	W06
	BYTE		        Fn3   v084
	BYTE	W18
// 157   ----------------------------------------
	BYTE	W06
	BYTE		        Fn3   v104
	BYTE	W18
// 158   ----------------------------------------
	BYTE	W06
	BYTE		        Fn3   v084
	BYTE	W18
// 159   ----------------------------------------
	BYTE	W24
// 160   ----------------------------------------
	BYTE	W24
// 161   ----------------------------------------
	BYTE	W24
// 162   ----------------------------------------
	BYTE	W24
	BYTE	GoTo
	 POIN2	KnightErrand_8_B1
KnightErrand_8_B2:
// 163   ----------------------------------------
	BYTE	W24
// 164   ----------------------------------------
	BYTE	W24
// 165   ----------------------------------------
	BYTE	FINE

//**************** Track 9 (Midi-Chn.9) ****************//

KnightErrand_9:
	BYTE	KEYSH   KnightErrand_key+0
// 000   ----------------------------------------
	BYTE		VOICE   58
	BYTE		VOL     66*KnightErrand_mvl/mxv
	BYTE		PAN     c_v+0
	BYTE	W24
// 001   ----------------------------------------
	BYTE	W24
// 002   ----------------------------------------
	BYTE	W24
// 003   ----------------------------------------
	BYTE	W24
KnightErrand_9_B1:
// 004   ----------------------------------------
KnightErrand_9_004:
	BYTE		N12     Dn3   v092
	BYTE	W12
	BYTE		        Cn3 
	BYTE	W12
	BYTE	PEND
// 005   ----------------------------------------
	BYTE	W12
	BYTE		        Fn2 
	BYTE	W12
// 006   ----------------------------------------
KnightErrand_9_006:
	BYTE		N12     Dn2   v092
	BYTE	W12
	BYTE		        Fn2 
	BYTE	W12
	BYTE	PEND
// 007   ----------------------------------------
	BYTE	W12
	BYTE		        An2 
	BYTE	W12
// 008   ----------------------------------------
	BYTE	W12
	BYTE		N12   
	BYTE	W12
// 009   ----------------------------------------
	BYTE	W12
	BYTE		        Cn3 
	BYTE	W12
// 010   ----------------------------------------
	BYTE		        Dn3 
	BYTE	W12
	BYTE		        En3 
	BYTE	W12
// 011   ----------------------------------------
	BYTE	W24
// 012   ----------------------------------------
	BYTE	PATT
	 POIN2	KnightErrand_9_004
// 013   ----------------------------------------
	BYTE	W12
	BYTE		N12     Fn2   v092
	BYTE	W12
// 014   ----------------------------------------
	BYTE	PATT
	 POIN2	KnightErrand_9_006
// 015   ----------------------------------------
	BYTE	W24
// 016   ----------------------------------------
	BYTE	W24
// 017   ----------------------------------------
	BYTE	W24
// 018   ----------------------------------------
	BYTE	W24
// 019   ----------------------------------------
	BYTE		TIE     Dn2   v084
	BYTE	W24
// 020   ----------------------------------------
	BYTE	W24
// 021   ----------------------------------------
	BYTE	W24
// 022   ----------------------------------------
	BYTE	W24
// 023   ----------------------------------------
	BYTE	W24
// 024   ----------------------------------------
	BYTE	W24
// 025   ----------------------------------------
	BYTE	W23
	BYTE		EOT   
	BYTE	W01
// 026   ----------------------------------------
	BYTE		N23     Cn2   v076
	BYTE	W24
// 027   ----------------------------------------
	BYTE		N80     Dn2   v084
	BYTE	W24
// 028   ----------------------------------------
	BYTE	W24
// 029   ----------------------------------------
	BYTE	W24
// 030   ----------------------------------------
	BYTE	W12
	BYTE		TIE     Cn2 
	BYTE	W12
// 031   ----------------------------------------
	BYTE	W24
// 032   ----------------------------------------
	BYTE	W24
// 033   ----------------------------------------
	BYTE	W24
// 034   ----------------------------------------
	BYTE	W23
	BYTE		EOT   
	BYTE	W01
// 035   ----------------------------------------
	BYTE		N80     As1   v076
	BYTE	W24
// 036   ----------------------------------------
	BYTE	W24
// 037   ----------------------------------------
	BYTE	W24
// 038   ----------------------------------------
	BYTE	W12
	BYTE		TIE     Cn2 
	BYTE	W12
// 039   ----------------------------------------
	BYTE	W24
// 040   ----------------------------------------
	BYTE	W24
// 041   ----------------------------------------
	BYTE	W24
// 042   ----------------------------------------
	BYTE	W23
	BYTE		EOT   
	BYTE	W01
// 043   ----------------------------------------
	BYTE		N96   
	BYTE	W24
// 044   ----------------------------------------
	BYTE	W24
// 045   ----------------------------------------
	BYTE	W24
// 046   ----------------------------------------
	BYTE	W24
// 047   ----------------------------------------
	BYTE	W24
// 048   ----------------------------------------
	BYTE	W24
// 049   ----------------------------------------
	BYTE	W24
// 050   ----------------------------------------
	BYTE	W12
	BYTE		TIE     Dn2   v104
	BYTE	W12
// 051   ----------------------------------------
	BYTE	W24
// 052   ----------------------------------------
	BYTE	W24
// 053   ----------------------------------------
	BYTE	W24
// 054   ----------------------------------------
	BYTE	W24
// 055   ----------------------------------------
	BYTE	W24
// 056   ----------------------------------------
	BYTE	W24
// 057   ----------------------------------------
	BYTE	W23
	BYTE		EOT   
	BYTE	W01
// 058   ----------------------------------------
	BYTE		N23     Cn2   v072
	BYTE	W24
// 059   ----------------------------------------
	BYTE		N80     Dn2   v076
	BYTE	W24
// 060   ----------------------------------------
	BYTE	W24
// 061   ----------------------------------------
	BYTE	W24
// 062   ----------------------------------------
	BYTE	W12
	BYTE		TIE     Cn2   v072
	BYTE	W12
// 063   ----------------------------------------
	BYTE	W24
// 064   ----------------------------------------
	BYTE	W24
// 065   ----------------------------------------
	BYTE	W24
// 066   ----------------------------------------
	BYTE	W23
	BYTE		EOT   
	BYTE	W01
// 067   ----------------------------------------
	BYTE		N80     As1   v092
	BYTE	W24
// 068   ----------------------------------------
	BYTE	W24
// 069   ----------------------------------------
	BYTE	W24
// 070   ----------------------------------------
	BYTE	W12
	BYTE		N92     Cn2   v084
	BYTE	W12
// 071   ----------------------------------------
	BYTE	W24
// 072   ----------------------------------------
	BYTE	W24
// 073   ----------------------------------------
	BYTE	W24
// 074   ----------------------------------------
	BYTE	W12
	BYTE		TIE     Dn2   v092
	BYTE	W12
// 075   ----------------------------------------
	BYTE	W24
// 076   ----------------------------------------
	BYTE	W24
// 077   ----------------------------------------
	BYTE	W24
// 078   ----------------------------------------
	BYTE	W23
	BYTE		EOT   
	BYTE	W01
// 079   ----------------------------------------
	BYTE		N68     Cs2   v072
	BYTE	W24
// 080   ----------------------------------------
	BYTE	W24
// 081   ----------------------------------------
	BYTE	W24
// 082   ----------------------------------------
	BYTE	W24
// 083   ----------------------------------------
	BYTE		TIE     Fn2   v104
	BYTE	W24
// 084   ----------------------------------------
	BYTE	W24
// 085   ----------------------------------------
	BYTE	W24
// 086   ----------------------------------------
	BYTE	W24
// 087   ----------------------------------------
	BYTE	W24
// 088   ----------------------------------------
	BYTE	W24
// 089   ----------------------------------------
	BYTE	W24
// 090   ----------------------------------------
	BYTE	W23
	BYTE		EOT   
	BYTE	W01
// 091   ----------------------------------------
	BYTE		N80     En2   v084
	BYTE	W24
// 092   ----------------------------------------
	BYTE	W24
// 093   ----------------------------------------
	BYTE	W24
// 094   ----------------------------------------
	BYTE	W12
	BYTE		TIE     Fn2   v092
	BYTE	W12
// 095   ----------------------------------------
	BYTE	W24
// 096   ----------------------------------------
	BYTE	W24
// 097   ----------------------------------------
	BYTE	W24
// 098   ----------------------------------------
	BYTE	W23
	BYTE		EOT   
	BYTE	W01
// 099   ----------------------------------------
	BYTE		N92     Fn2   v072
	BYTE	W24
// 100   ----------------------------------------
	BYTE	W24
// 101   ----------------------------------------
	BYTE	W24
// 102   ----------------------------------------
	BYTE	W24
// 103   ----------------------------------------
	BYTE		N80     Gn2   v104
	BYTE	W24
// 104   ----------------------------------------
	BYTE	W24
// 105   ----------------------------------------
	BYTE	W24
// 106   ----------------------------------------
	BYTE	W12
	BYTE		TIE     An2   v092
	BYTE	W12
// 107   ----------------------------------------
	BYTE	W24
// 108   ----------------------------------------
	BYTE	W24
// 109   ----------------------------------------
	BYTE	W24
// 110   ----------------------------------------
	BYTE	W23
	BYTE		EOT   
	BYTE	W01
// 111   ----------------------------------------
	BYTE	W24
// 112   ----------------------------------------
	BYTE	W24
// 113   ----------------------------------------
	BYTE	W24
// 114   ----------------------------------------
	BYTE	W24
// 115   ----------------------------------------
	BYTE		N17     Fn2 
	BYTE	W24
// 116   ----------------------------------------
	BYTE		        Fn2   v072
	BYTE	W24
// 117   ----------------------------------------
	BYTE		N17   
	BYTE	W24
// 118   ----------------------------------------
	BYTE		        Fn2   v064
	BYTE	W24
// 119   ----------------------------------------
	BYTE		        Fn2   v072
	BYTE	W24
// 120   ----------------------------------------
	BYTE		N17   
	BYTE	W24
// 121   ----------------------------------------
	BYTE		N17   
	BYTE	W24
// 122   ----------------------------------------
	BYTE		        Fn2   v084
	BYTE	W24
// 123   ----------------------------------------
	BYTE		        En2 
	BYTE	W24
// 124   ----------------------------------------
	BYTE		N17   
	BYTE	W24
// 125   ----------------------------------------
	BYTE		N17   
	BYTE	W24
// 126   ----------------------------------------
	BYTE		N17   
	BYTE	W24
// 127   ----------------------------------------
	BYTE		        Fn2   v072
	BYTE	W24
// 128   ----------------------------------------
	BYTE		        Fn2   v084
	BYTE	W24
// 129   ----------------------------------------
	BYTE		        Fn2   v072
	BYTE	W24
// 130   ----------------------------------------
	BYTE		N05     Fn2   v084
	BYTE	W12
	BYTE		N40     Fn2   v104
	BYTE	W12
// 131   ----------------------------------------
	BYTE	W24
// 132   ----------------------------------------
	BYTE	W12
	BYTE		        En2   v092
	BYTE	W12
// 133   ----------------------------------------
	BYTE	W24
// 134   ----------------------------------------
	BYTE	W12
	BYTE		N44     Fn2   v084
	BYTE	W12
// 135   ----------------------------------------
	BYTE	W24
// 136   ----------------------------------------
	BYTE	W12
	BYTE		        Fn2   v056
	BYTE	W12
// 137   ----------------------------------------
	BYTE	W24
// 138   ----------------------------------------
	BYTE	W12
	BYTE		N05     Fn2   v076
	BYTE	W12
// 139   ----------------------------------------
	BYTE		N92     En2   v104
	BYTE	W24
// 140   ----------------------------------------
	BYTE	W24
// 141   ----------------------------------------
	BYTE	W24
// 142   ----------------------------------------
	BYTE	W24
// 143   ----------------------------------------
	BYTE		N17   
	BYTE	W24
// 144   ----------------------------------------
	BYTE		        En2   v112
	BYTE	W24
// 145   ----------------------------------------
	BYTE	W24
// 146   ----------------------------------------
	BYTE	W24
// 147   ----------------------------------------
	BYTE		N05     An2   v092
	BYTE	W18
	BYTE		        An2   v104
	BYTE	W06
// 148   ----------------------------------------
	BYTE	W12
	BYTE		        An2   v076
	BYTE	W12
// 149   ----------------------------------------
	BYTE	W06
	BYTE		        An2   v072
	BYTE	W18
// 150   ----------------------------------------
	BYTE		        An2   v068
	BYTE	W18
	BYTE		        An2   v104
	BYTE	W06
// 151   ----------------------------------------
	BYTE		        Gn2   v092
	BYTE	W18
	BYTE		        Gn2   v076
	BYTE	W06
// 152   ----------------------------------------
	BYTE		        Fn2   v092
	BYTE	W06
	BYTE		        An2   v096
	BYTE	W12
	BYTE		        An2   v084
	BYTE	W06
// 153   ----------------------------------------
	BYTE		        Gn2 
	BYTE	W06
	BYTE		        An2   v096
	BYTE	W12
	BYTE		N05   
	BYTE	W06
// 154   ----------------------------------------
	BYTE	W06
	BYTE		        An2   v088
	BYTE	W12
	BYTE		        An2   v104
	BYTE	W06
// 155   ----------------------------------------
KnightErrand_9_155:
	BYTE		N05     Dn3   v076
	BYTE	W18
	BYTE		        An2   v084
	BYTE	W06
	BYTE	PEND
// 156   ----------------------------------------
	BYTE	PATT
	 POIN2	KnightErrand_9_155
// 157   ----------------------------------------
	BYTE	PATT
	 POIN2	KnightErrand_9_155
// 158   ----------------------------------------
	BYTE		N05     Dn3   v084
	BYTE	W18
	BYTE		        An2   v104
	BYTE	W06
// 159   ----------------------------------------
	BYTE	W24
// 160   ----------------------------------------
	BYTE	W24
// 161   ----------------------------------------
	BYTE	W24
// 162   ----------------------------------------
	BYTE	W24
	BYTE	GoTo
	 POIN2	KnightErrand_9_B1
KnightErrand_9_B2:
// 163   ----------------------------------------
	BYTE	W24
// 164   ----------------------------------------
	BYTE	W24
// 165   ----------------------------------------
	BYTE	FINE

//**************** Track 10 (Midi-Chn.11) ****************//

KnightErrand_10:
	BYTE	KEYSH   KnightErrand_key+0
// 000   ----------------------------------------
	BYTE		VOICE   34
	BYTE		VOL     64*KnightErrand_mvl/mxv
	BYTE	W09
	BYTE		PAN     c_v+0
	BYTE	W15
// 001   ----------------------------------------
	BYTE	W24
// 002   ----------------------------------------
	BYTE	W24
// 003   ----------------------------------------
KnightErrand_10_003:
	BYTE		N06     Dn4   v088
	BYTE	W06
	BYTE		N06   
	BYTE	W06
	BYTE		N12   
	BYTE	W12
	BYTE	PEND
KnightErrand_10_B1:
// 004   ----------------------------------------
	BYTE	W24
// 005   ----------------------------------------
	BYTE	PATT
	 POIN2	KnightErrand_10_003
// 006   ----------------------------------------
	BYTE	W24
// 007   ----------------------------------------
KnightErrand_10_007:
	BYTE		N06     Cn4   v088
	BYTE	W06
	BYTE		N06   
	BYTE	W18
	BYTE	PEND
// 008   ----------------------------------------
KnightErrand_10_008:
	BYTE		N06     Dn4   v088
	BYTE	W06
	BYTE		N06   
	BYTE	W18
	BYTE	PEND
// 009   ----------------------------------------
KnightErrand_10_009:
	BYTE		N12     An3   v088
	BYTE	W12
	BYTE		N18     An4 
	BYTE	W12
	BYTE	PEND
// 010   ----------------------------------------
KnightErrand_10_010:
	BYTE	W06
	BYTE		N06     Gn4   v088
	BYTE	W06
	BYTE		        Fn4 
	BYTE	W06
	BYTE		        En4 
	BYTE	W06
	BYTE	PEND
// 011   ----------------------------------------
	BYTE	PATT
	 POIN2	KnightErrand_10_003
// 012   ----------------------------------------
	BYTE	W24
// 013   ----------------------------------------
	BYTE	PATT
	 POIN2	KnightErrand_10_003
// 014   ----------------------------------------
	BYTE	W24
// 015   ----------------------------------------
	BYTE		N12     As3   v088
	BYTE	W12
	BYTE		        An3 
	BYTE	W12
// 016   ----------------------------------------
	BYTE		        Gn3 
	BYTE	W12
	BYTE		        An3 
	BYTE	W12
// 017   ----------------------------------------
	BYTE	W24
// 018   ----------------------------------------
	BYTE	W24
// 019   ----------------------------------------
KnightErrand_10_019:
	BYTE		N09     Dn4   v088
	BYTE	W12
	BYTE		N09   
	BYTE	W12
	BYTE	PEND
// 020   ----------------------------------------
	BYTE	PATT
	 POIN2	KnightErrand_10_019
// 021   ----------------------------------------
	BYTE	PATT
	 POIN2	KnightErrand_10_019
// 022   ----------------------------------------
	BYTE	PATT
	 POIN2	KnightErrand_10_019
// 023   ----------------------------------------
	BYTE	PATT
	 POIN2	KnightErrand_10_019
// 024   ----------------------------------------
	BYTE	PATT
	 POIN2	KnightErrand_10_019
// 025   ----------------------------------------
	BYTE	PATT
	 POIN2	KnightErrand_10_019
// 026   ----------------------------------------
KnightErrand_10_026:
	BYTE		N09     Cn4   v088
	BYTE	W12
	BYTE		N09   
	BYTE	W12
	BYTE	PEND
// 027   ----------------------------------------
KnightErrand_10_027:
	BYTE		N09     As3   v088
	BYTE	W12
	BYTE		N09   
	BYTE	W12
	BYTE	PEND
// 028   ----------------------------------------
	BYTE	PATT
	 POIN2	KnightErrand_10_027
// 029   ----------------------------------------
	BYTE	PATT
	 POIN2	KnightErrand_10_027
// 030   ----------------------------------------
KnightErrand_10_030:
	BYTE		N09     As3   v088
	BYTE	W12
	BYTE		N21     Cn4 
	BYTE	W12
	BYTE	PEND
// 031   ----------------------------------------
	BYTE	W12
	BYTE		N09   
	BYTE	W12
// 032   ----------------------------------------
	BYTE	PATT
	 POIN2	KnightErrand_10_026
// 033   ----------------------------------------
	BYTE	PATT
	 POIN2	KnightErrand_10_026
// 034   ----------------------------------------
	BYTE		N09     Cn4   v088
	BYTE	W12
	BYTE		        Bn3 
	BYTE	W12
// 035   ----------------------------------------
	BYTE	PATT
	 POIN2	KnightErrand_10_027
// 036   ----------------------------------------
	BYTE	PATT
	 POIN2	KnightErrand_10_027
// 037   ----------------------------------------
	BYTE	PATT
	 POIN2	KnightErrand_10_027
// 038   ----------------------------------------
	BYTE	PATT
	 POIN2	KnightErrand_10_030
// 039   ----------------------------------------
	BYTE	W12
	BYTE		N09     Cn4   v088
	BYTE	W12
// 040   ----------------------------------------
	BYTE	PATT
	 POIN2	KnightErrand_10_026
// 041   ----------------------------------------
	BYTE	PATT
	 POIN2	KnightErrand_10_026
// 042   ----------------------------------------
	BYTE	PATT
	 POIN2	KnightErrand_10_026
// 043   ----------------------------------------
KnightErrand_10_043:
	BYTE		N09     Fn3   v088
	BYTE	W12
	BYTE		N09   
	BYTE	W12
	BYTE	PEND
// 044   ----------------------------------------
	BYTE	PATT
	 POIN2	KnightErrand_10_043
// 045   ----------------------------------------
	BYTE	PATT
	 POIN2	KnightErrand_10_043
// 046   ----------------------------------------
	BYTE	PATT
	 POIN2	KnightErrand_10_043
// 047   ----------------------------------------
	BYTE	W12
	BYTE		N12     As3   v088
	BYTE	W12
// 048   ----------------------------------------
	BYTE	W12
	BYTE		        An3 
	BYTE	W12
// 049   ----------------------------------------
	BYTE	W12
	BYTE		N09   
	BYTE	W12
// 050   ----------------------------------------
	BYTE		N09   
	BYTE	W12
	BYTE		N21     Dn4 
	BYTE	W12
// 051   ----------------------------------------
	BYTE	W12
	BYTE		N09   
	BYTE	W12
// 052   ----------------------------------------
	BYTE	PATT
	 POIN2	KnightErrand_10_019
// 053   ----------------------------------------
	BYTE	PATT
	 POIN2	KnightErrand_10_019
// 054   ----------------------------------------
	BYTE	PATT
	 POIN2	KnightErrand_10_019
// 055   ----------------------------------------
	BYTE	PATT
	 POIN2	KnightErrand_10_019
// 056   ----------------------------------------
	BYTE	PATT
	 POIN2	KnightErrand_10_019
// 057   ----------------------------------------
	BYTE	PATT
	 POIN2	KnightErrand_10_019
// 058   ----------------------------------------
	BYTE	PATT
	 POIN2	KnightErrand_10_026
// 059   ----------------------------------------
	BYTE	PATT
	 POIN2	KnightErrand_10_027
// 060   ----------------------------------------
	BYTE	PATT
	 POIN2	KnightErrand_10_027
// 061   ----------------------------------------
	BYTE	PATT
	 POIN2	KnightErrand_10_027
// 062   ----------------------------------------
	BYTE	PATT
	 POIN2	KnightErrand_10_030
// 063   ----------------------------------------
	BYTE	W12
	BYTE		N09     Cn4   v088
	BYTE	W12
// 064   ----------------------------------------
	BYTE	PATT
	 POIN2	KnightErrand_10_026
// 065   ----------------------------------------
	BYTE	PATT
	 POIN2	KnightErrand_10_026
// 066   ----------------------------------------
	BYTE	PATT
	 POIN2	KnightErrand_10_026
// 067   ----------------------------------------
	BYTE	PATT
	 POIN2	KnightErrand_10_027
// 068   ----------------------------------------
	BYTE	PATT
	 POIN2	KnightErrand_10_027
// 069   ----------------------------------------
	BYTE	PATT
	 POIN2	KnightErrand_10_027
// 070   ----------------------------------------
	BYTE	PATT
	 POIN2	KnightErrand_10_030
// 071   ----------------------------------------
	BYTE	W12
	BYTE		N09     Cn4   v088
	BYTE	W12
// 072   ----------------------------------------
	BYTE	PATT
	 POIN2	KnightErrand_10_026
// 073   ----------------------------------------
	BYTE	PATT
	 POIN2	KnightErrand_10_026
// 074   ----------------------------------------
	BYTE		N09     Cn4   v088
	BYTE	W12
	BYTE		N21     An3 
	BYTE	W12
// 075   ----------------------------------------
	BYTE	W12
	BYTE		N09   
	BYTE	W12
// 076   ----------------------------------------
KnightErrand_10_076:
	BYTE		N09     An3   v088
	BYTE	W12
	BYTE		N09   
	BYTE	W12
	BYTE	PEND
// 077   ----------------------------------------
	BYTE	PATT
	 POIN2	KnightErrand_10_076
// 078   ----------------------------------------
	BYTE	PATT
	 POIN2	KnightErrand_10_076
// 079   ----------------------------------------
	BYTE	W12
	BYTE		N12     As3   v088
	BYTE	W12
// 080   ----------------------------------------
	BYTE	W12
	BYTE		        An3 
	BYTE	W12
// 081   ----------------------------------------
	BYTE	W12
	BYTE		N04   
	BYTE		N01     En4 
	BYTE	W06
	BYTE		N04     Dn4 
	BYTE		N04     En4 
	BYTE	W06
// 082   ----------------------------------------
	BYTE		BEND    c_v+0
	BYTE		N24     An4 
	BYTE	W06
	BYTE		BEND    c_v-1
	BYTE	W03
	BYTE		        c_v-2
	BYTE	W02
	BYTE		        c_v-3
	BYTE	W01
	BYTE		        c_v-4
	BYTE	W01
	BYTE		        c_v-6
	BYTE	W01
	BYTE		        c_v-7
	BYTE	W01
	BYTE		        c_v-9
	BYTE	W01
	BYTE		        c_v-12
	BYTE	W01
	BYTE		        c_v-15
	BYTE	W01
	BYTE		        c_v-19
	BYTE	W01
	BYTE		        c_v-24
	BYTE	W01
	BYTE		        c_v-31
	BYTE	W01
	BYTE		        c_v-39
	BYTE	W01
	BYTE		        c_v-50
	BYTE	W01
	BYTE		        c_v-64
	BYTE	W01
// 083   ----------------------------------------
	BYTE		        c_v+0
	BYTE		N36     As3 
	BYTE	W24
// 084   ----------------------------------------
	BYTE	W12
	BYTE		N12   
	BYTE	W12
// 085   ----------------------------------------
	BYTE		N60   
	BYTE	W24
// 086   ----------------------------------------
	BYTE	W24
// 087   ----------------------------------------
	BYTE	W12
	BYTE		N06     Gs3 
	BYTE	W06
	BYTE		        As3 
	BYTE	W06
// 088   ----------------------------------------
	BYTE		N12     Fn3 
	BYTE	W12
	BYTE		N24     As3 
	BYTE	W12
// 089   ----------------------------------------
	BYTE	W12
	BYTE		N12   
	BYTE	W12
// 090   ----------------------------------------
	BYTE		        Cn4 
	BYTE	W12
	BYTE		        As3 
	BYTE	W12
// 091   ----------------------------------------
	BYTE		N36     An3 
	BYTE	W24
// 092   ----------------------------------------
	BYTE	W12
	BYTE		N12   
	BYTE	W12
// 093   ----------------------------------------
	BYTE		N36   
	BYTE	W24
// 094   ----------------------------------------
	BYTE	W12
	BYTE		N24     Dn4 
	BYTE	W12
// 095   ----------------------------------------
	BYTE	W12
	BYTE		N12     Dn5 
	BYTE	W12
// 096   ----------------------------------------
	BYTE		N01   
	BYTE	W12
	BYTE		N24     Dn4 
	BYTE	W12
// 097   ----------------------------------------
	BYTE	W12
	BYTE		N12   
	BYTE	W12
// 098   ----------------------------------------
KnightErrand_10_098:
	BYTE		N12     Dn4   v088
	BYTE	W12
	BYTE		        Cn4 
	BYTE	W12
	BYTE	PEND
// 099   ----------------------------------------
	BYTE		N36     As3 
	BYTE	W24
// 100   ----------------------------------------
	BYTE	W12
	BYTE		BEND    c_v-6
	BYTE		N48     As4 
	BYTE	W01
	BYTE		BEND    c_v-3
	BYTE	W01
	BYTE		        c_v-2
	BYTE	W01
	BYTE		        c_v-1
	BYTE	W01
	BYTE		        c_v+0
	BYTE	W08
// 101   ----------------------------------------
	BYTE	W24
// 102   ----------------------------------------
	BYTE	W12
	BYTE		N12     As3 
	BYTE	W12
// 103   ----------------------------------------
	BYTE		N36     Cn4 
	BYTE	W24
// 104   ----------------------------------------
	BYTE	W12
	BYTE		BEND    c_v-6
	BYTE		N36     Cn5 
	BYTE	W01
	BYTE		BEND    c_v-3
	BYTE	W01
	BYTE		        c_v-2
	BYTE	W01
	BYTE		        c_v-1
	BYTE	W01
	BYTE		        c_v+0
	BYTE	W08
// 105   ----------------------------------------
	BYTE	W24
// 106   ----------------------------------------
	BYTE		N12     Cn4 
	BYTE	W12
	BYTE		        Dn4 
	BYTE	W12
// 107   ----------------------------------------
	BYTE	W12
	BYTE		N12   
	BYTE	W12
// 108   ----------------------------------------
	BYTE		        En4 
	BYTE	W12
	BYTE		        Fn4 
	BYTE	W12
// 109   ----------------------------------------
	BYTE		        Dn4 
	BYTE	W12
	BYTE		        En4 
	BYTE	W12
// 110   ----------------------------------------
	BYTE		        Fn4 
	BYTE	W12
	BYTE		        Gn4 
	BYTE	W12
// 111   ----------------------------------------
	BYTE		        Dn4 
	BYTE	W24
// 112   ----------------------------------------
	BYTE	W24
// 113   ----------------------------------------
	BYTE	W12
	BYTE		N12   
	BYTE	W12
// 114   ----------------------------------------
	BYTE	PATT
	 POIN2	KnightErrand_10_098
// 115   ----------------------------------------
KnightErrand_10_115:
	BYTE		N12     As3   v088
	BYTE	W12
	BYTE		N06   
	BYTE	W06
	BYTE		N06   
	BYTE	W06
	BYTE	PEND
// 116   ----------------------------------------
	BYTE	PATT
	 POIN2	KnightErrand_10_115
// 117   ----------------------------------------
	BYTE	PATT
	 POIN2	KnightErrand_10_115
// 118   ----------------------------------------
	BYTE	PATT
	 POIN2	KnightErrand_10_115
// 119   ----------------------------------------
	BYTE	PATT
	 POIN2	KnightErrand_10_115
// 120   ----------------------------------------
	BYTE	PATT
	 POIN2	KnightErrand_10_115
// 121   ----------------------------------------
	BYTE	PATT
	 POIN2	KnightErrand_10_115
// 122   ----------------------------------------
	BYTE	PATT
	 POIN2	KnightErrand_10_115
// 123   ----------------------------------------
KnightErrand_10_123:
	BYTE		N12     An3   v088
	BYTE	W12
	BYTE		N06   
	BYTE	W06
	BYTE		N06   
	BYTE	W06
	BYTE	PEND
// 124   ----------------------------------------
	BYTE	PATT
	 POIN2	KnightErrand_10_123
// 125   ----------------------------------------
	BYTE	PATT
	 POIN2	KnightErrand_10_123
// 126   ----------------------------------------
	BYTE	PATT
	 POIN2	KnightErrand_10_123
// 127   ----------------------------------------
	BYTE		N12     Dn4   v088
	BYTE	W12
	BYTE		N06   
	BYTE	W06
	BYTE		N06   
	BYTE	W06
// 128   ----------------------------------------
	BYTE		N12   
	BYTE	W12
	BYTE		N06   
	BYTE	W06
	BYTE		        En4 
	BYTE	W06
// 129   ----------------------------------------
	BYTE		        Fn4 
	BYTE	W06
	BYTE		        An4 
	BYTE	W06
	BYTE		N12     Dn5 
	BYTE	W12
// 130   ----------------------------------------
	BYTE		        Cn4 
	BYTE	W12
	BYTE		N21     As3 
	BYTE	W12
// 131   ----------------------------------------
	BYTE	W12
	BYTE		N09   
	BYTE	W12
// 132   ----------------------------------------
KnightErrand_10_132:
	BYTE		N09     As3   v088
	BYTE	W12
	BYTE		N21   
	BYTE	W12
	BYTE	PEND
// 133   ----------------------------------------
	BYTE	W12
	BYTE		N09   
	BYTE	W12
// 134   ----------------------------------------
	BYTE	PATT
	 POIN2	KnightErrand_10_132
// 135   ----------------------------------------
	BYTE	W12
	BYTE		N09     As3   v088
	BYTE	W12
// 136   ----------------------------------------
	BYTE	PATT
	 POIN2	KnightErrand_10_132
// 137   ----------------------------------------
	BYTE	W12
	BYTE		N09     As3   v088
	BYTE	W12
// 138   ----------------------------------------
	BYTE	PATT
	 POIN2	KnightErrand_10_027
// 139   ----------------------------------------
	BYTE	PATT
	 POIN2	KnightErrand_10_123
// 140   ----------------------------------------
	BYTE	PATT
	 POIN2	KnightErrand_10_123
// 141   ----------------------------------------
	BYTE	PATT
	 POIN2	KnightErrand_10_123
// 142   ----------------------------------------
	BYTE		N06     An3   v088
	BYTE	W06
	BYTE		N06   
	BYTE	W06
	BYTE		        Dn4 
	BYTE	W06
	BYTE		        En4 
	BYTE	W06
// 143   ----------------------------------------
	BYTE		        An4 
	BYTE	W06
	BYTE		        An3 
	BYTE	W06
	BYTE		N06   
	BYTE	W06
	BYTE		N06   
	BYTE	W06
// 144   ----------------------------------------
	BYTE		N12   
	BYTE	W24
// 145   ----------------------------------------
	BYTE	W24
// 146   ----------------------------------------
	BYTE	W24
// 147   ----------------------------------------
	BYTE	PATT
	 POIN2	KnightErrand_10_003
// 148   ----------------------------------------
	BYTE	W24
// 149   ----------------------------------------
	BYTE	PATT
	 POIN2	KnightErrand_10_003
// 150   ----------------------------------------
	BYTE	W24
// 151   ----------------------------------------
	BYTE	PATT
	 POIN2	KnightErrand_10_007
// 152   ----------------------------------------
	BYTE	PATT
	 POIN2	KnightErrand_10_008
// 153   ----------------------------------------
	BYTE	PATT
	 POIN2	KnightErrand_10_009
// 154   ----------------------------------------
	BYTE	PATT
	 POIN2	KnightErrand_10_010
// 155   ----------------------------------------
	BYTE	PATT
	 POIN2	KnightErrand_10_003
// 156   ----------------------------------------
	BYTE	W24
// 157   ----------------------------------------
	BYTE	PATT
	 POIN2	KnightErrand_10_003
// 158   ----------------------------------------
	BYTE	W24
// 159   ----------------------------------------
	BYTE	PATT
	 POIN2	KnightErrand_10_007
// 160   ----------------------------------------
	BYTE	PATT
	 POIN2	KnightErrand_10_008
// 161   ----------------------------------------
	BYTE	PATT
	 POIN2	KnightErrand_10_009
// 162   ----------------------------------------
	BYTE	W06
	BYTE		N06     Gn4   v088
	BYTE	W06
	BYTE		        Fn4 
	BYTE	W12
	BYTE	GoTo
	 POIN2	KnightErrand_10_B1
KnightErrand_10_B2:
// 163   ----------------------------------------
	BYTE	W24
// 164   ----------------------------------------
	BYTE	W24
// 165   ----------------------------------------
	BYTE	FINE

//**************** Track 11 (Midi-Chn.12) ****************//

KnightErrand_11:
	BYTE	KEYSH   KnightErrand_key+0
// 000   ----------------------------------------
	BYTE		VOICE   123
	BYTE		VOL     85*KnightErrand_mvl/mxv
	BYTE	W09
	BYTE		PAN     c_v+0
	BYTE	W15
// 001   ----------------------------------------
	BYTE	W24
// 002   ----------------------------------------
	BYTE	W24
// 003   ----------------------------------------
KnightErrand_11_003:
	BYTE		N06     Cn1   v100
	BYTE		N06     Dn1   v096
	BYTE		N06     Cs2   v068
	BYTE	W06
	BYTE		        Dn1   v096
	BYTE	W06
	BYTE		N06   
	BYTE	W12
	BYTE	PEND
KnightErrand_11_B1:
// 004   ----------------------------------------
KnightErrand_11_004:
	BYTE		N06     Cn1   v100
	BYTE	W06
	BYTE		N06   
	BYTE	W06
	BYTE		N06   
	BYTE	W06
	BYTE		N06   
	BYTE	W06
	BYTE	PEND
// 005   ----------------------------------------
KnightErrand_11_005:
	BYTE		N06     Cn1   v100
	BYTE		N06     Dn1   v096
	BYTE		N06     An2   v068
	BYTE	W06
	BYTE		        Dn1   v096
	BYTE	W06
	BYTE		N06   
	BYTE	W12
	BYTE	PEND
// 006   ----------------------------------------
	BYTE	PATT
	 POIN2	KnightErrand_11_004
// 007   ----------------------------------------
	BYTE		N06     Cn1   v100
	BYTE		N06     Dn1   v096
	BYTE		N06     Cs2   v068
	BYTE	W06
	BYTE		        Dn1   v096
	BYTE	W06
	BYTE		        Cn2   v076
	BYTE	W06
	BYTE		        As1   v024
	BYTE	W06
// 008   ----------------------------------------
	BYTE		        Cn1   v100
	BYTE		N06     An2   v068
	BYTE	W06
	BYTE		        Fs1   v028
	BYTE		N06     An1   v076
	BYTE	W06
	BYTE		N06   
	BYTE	W06
	BYTE		N06   
	BYTE	W06
// 009   ----------------------------------------
KnightErrand_11_009:
	BYTE		N06     Cn1   v100
	BYTE	W12
	BYTE		        Dn1   v096
	BYTE	W12
	BYTE	PEND
// 010   ----------------------------------------
	BYTE		        Cn1   v100
	BYTE		N06     Fn1   v076
	BYTE	W06
	BYTE		        Cn2 
	BYTE	W06
	BYTE		        Dn1   v096
	BYTE	W06
	BYTE		        An1   v076
	BYTE	W06
// 011   ----------------------------------------
	BYTE	PATT
	 POIN2	KnightErrand_11_003
// 012   ----------------------------------------
	BYTE	PATT
	 POIN2	KnightErrand_11_004
// 013   ----------------------------------------
	BYTE	PATT
	 POIN2	KnightErrand_11_005
// 014   ----------------------------------------
	BYTE	PATT
	 POIN2	KnightErrand_11_004
// 015   ----------------------------------------
	BYTE		N06     Cn1   v100
	BYTE		N06     Dn1   v096
	BYTE	W12
	BYTE		        An1   v076
	BYTE	W12
// 016   ----------------------------------------
	BYTE		        Fn1 
	BYTE		N06     As1   v036
	BYTE	W12
	BYTE		        Cn1   v100
	BYTE		N06     Fs1   v028
	BYTE	W12
// 017   ----------------------------------------
	BYTE	W24
// 018   ----------------------------------------
	BYTE	W12
	BYTE		        Dn1   v088
	BYTE		N06     As1   v060
	BYTE	W12
// 019   ----------------------------------------
	BYTE		        Cn1   v100
	BYTE		N06     An2   v076
	BYTE	W12
	BYTE		        Fs1   v024
	BYTE	W12
// 020   ----------------------------------------
KnightErrand_11_020:
	BYTE		N06     Dn1   v096
	BYTE		N06     Fs1   v032
	BYTE	W12
	BYTE		        Fs1   v024
	BYTE	W12
	BYTE	PEND
// 021   ----------------------------------------
KnightErrand_11_021:
	BYTE		N06     Cn1   v100
	BYTE		N06     Fs1   v044
	BYTE	W12
	BYTE		        Fs1   v024
	BYTE	W12
	BYTE	PEND
// 022   ----------------------------------------
KnightErrand_11_022:
	BYTE		N06     Dn1   v096
	BYTE		N06     Fs1   v032
	BYTE	W12
	BYTE		        Cn1   v100
	BYTE		N06     Fs1   v024
	BYTE	W12
	BYTE	PEND
// 023   ----------------------------------------
KnightErrand_11_023:
	BYTE		N06     Fs1   v044
	BYTE	W12
	BYTE		        Cn1   v100
	BYTE		N06     Fs1   v024
	BYTE	W12
	BYTE	PEND
// 024   ----------------------------------------
	BYTE	PATT
	 POIN2	KnightErrand_11_020
// 025   ----------------------------------------
KnightErrand_11_025:
	BYTE		N06     Cn1   v100
	BYTE		N06     Fs1   v044
	BYTE	W12
	BYTE		        Cn1   v100
	BYTE		N06     Fs1   v024
	BYTE	W12
	BYTE	PEND
// 026   ----------------------------------------
	BYTE	PATT
	 POIN2	KnightErrand_11_020
// 027   ----------------------------------------
	BYTE	PATT
	 POIN2	KnightErrand_11_021
// 028   ----------------------------------------
	BYTE	PATT
	 POIN2	KnightErrand_11_020
// 029   ----------------------------------------
	BYTE		N06     Cn1   v100
	BYTE		N06     Fs1   v044
	BYTE	W12
	BYTE		        As1   v036
	BYTE	W12
// 030   ----------------------------------------
	BYTE		        Dn1   v096
	BYTE		N06     Fs1   v032
	BYTE	W12
	BYTE		        Cn1   v100
	BYTE		N06     As1   v036
	BYTE	W12
// 031   ----------------------------------------
KnightErrand_11_031:
	BYTE	W12
	BYTE		N06     Cn1   v100
	BYTE		N06     Fs1   v024
	BYTE	W12
	BYTE	PEND
// 032   ----------------------------------------
	BYTE	PATT
	 POIN2	KnightErrand_11_020
// 033   ----------------------------------------
KnightErrand_11_033:
	BYTE		N06     Cn1   v100
	BYTE		N06     Fs1   v044
	BYTE	W06
	BYTE		        Cn1   v100
	BYTE	W06
	BYTE		N06   
	BYTE		N06     Fs1   v024
	BYTE	W12
	BYTE	PEND
// 034   ----------------------------------------
	BYTE	PATT
	 POIN2	KnightErrand_11_022
// 035   ----------------------------------------
	BYTE	PATT
	 POIN2	KnightErrand_11_021
// 036   ----------------------------------------
	BYTE	PATT
	 POIN2	KnightErrand_11_020
// 037   ----------------------------------------
	BYTE	PATT
	 POIN2	KnightErrand_11_021
// 038   ----------------------------------------
	BYTE	PATT
	 POIN2	KnightErrand_11_022
// 039   ----------------------------------------
	BYTE	PATT
	 POIN2	KnightErrand_11_023
// 040   ----------------------------------------
	BYTE	PATT
	 POIN2	KnightErrand_11_020
// 041   ----------------------------------------
	BYTE	PATT
	 POIN2	KnightErrand_11_025
// 042   ----------------------------------------
	BYTE	PATT
	 POIN2	KnightErrand_11_020
// 043   ----------------------------------------
	BYTE	PATT
	 POIN2	KnightErrand_11_021
// 044   ----------------------------------------
	BYTE	PATT
	 POIN2	KnightErrand_11_020
// 045   ----------------------------------------
	BYTE	PATT
	 POIN2	KnightErrand_11_021
// 046   ----------------------------------------
	BYTE		N06     Dn1   v096
	BYTE		N06     Fs1   v032
	BYTE	W12
	BYTE		        Cn1   v100
	BYTE		N06     As1   v024
	BYTE	W06
	BYTE		        Dn1   v040
	BYTE		N06     Fs1   v028
	BYTE		N06     As1   v024
	BYTE	W06
// 047   ----------------------------------------
	BYTE		        Cn1   v100
	BYTE		N06     Dn1   v096
	BYTE		N06     Fs1   v044
	BYTE	W12
	BYTE		        As1   v020
	BYTE		N06     Cn2   v076
	BYTE	W12
// 048   ----------------------------------------
KnightErrand_11_048:
	BYTE		N06     Cn1   v100
	BYTE		N06     Fs1   v064
	BYTE	W12
	BYTE		        An1   v076
	BYTE		N06     As1   v020
	BYTE	W12
	BYTE	PEND
// 049   ----------------------------------------
	BYTE		        Cn1   v100
	BYTE		N06     Fs1   v064
	BYTE	W12
	BYTE		        Fn1   v076
	BYTE	W12
// 050   ----------------------------------------
	BYTE		        Dn1   v096
	BYTE	W12
	BYTE		        Cn1   v100
	BYTE		N06     An2   v076
	BYTE	W12
// 051   ----------------------------------------
	BYTE	W12
	BYTE		        Fs1   v024
	BYTE	W12
// 052   ----------------------------------------
	BYTE	PATT
	 POIN2	KnightErrand_11_020
// 053   ----------------------------------------
	BYTE	PATT
	 POIN2	KnightErrand_11_021
// 054   ----------------------------------------
	BYTE	PATT
	 POIN2	KnightErrand_11_020
// 055   ----------------------------------------
	BYTE	PATT
	 POIN2	KnightErrand_11_021
// 056   ----------------------------------------
	BYTE	PATT
	 POIN2	KnightErrand_11_020
// 057   ----------------------------------------
	BYTE	PATT
	 POIN2	KnightErrand_11_025
// 058   ----------------------------------------
	BYTE	PATT
	 POIN2	KnightErrand_11_020
// 059   ----------------------------------------
	BYTE	PATT
	 POIN2	KnightErrand_11_021
// 060   ----------------------------------------
	BYTE	PATT
	 POIN2	KnightErrand_11_020
// 061   ----------------------------------------
	BYTE	PATT
	 POIN2	KnightErrand_11_021
// 062   ----------------------------------------
	BYTE		N06     Dn1   v096
	BYTE		N06     Fs1   v032
	BYTE	W12
	BYTE		        Cn1   v100
	BYTE		N06     As1   v024
	BYTE	W12
// 063   ----------------------------------------
	BYTE	PATT
	 POIN2	KnightErrand_11_031
// 064   ----------------------------------------
	BYTE	PATT
	 POIN2	KnightErrand_11_020
// 065   ----------------------------------------
	BYTE	PATT
	 POIN2	KnightErrand_11_033
// 066   ----------------------------------------
	BYTE	PATT
	 POIN2	KnightErrand_11_022
// 067   ----------------------------------------
	BYTE	PATT
	 POIN2	KnightErrand_11_021
// 068   ----------------------------------------
	BYTE	PATT
	 POIN2	KnightErrand_11_020
// 069   ----------------------------------------
	BYTE	PATT
	 POIN2	KnightErrand_11_021
// 070   ----------------------------------------
	BYTE	PATT
	 POIN2	KnightErrand_11_022
// 071   ----------------------------------------
	BYTE	PATT
	 POIN2	KnightErrand_11_023
// 072   ----------------------------------------
	BYTE	PATT
	 POIN2	KnightErrand_11_020
// 073   ----------------------------------------
	BYTE	PATT
	 POIN2	KnightErrand_11_025
// 074   ----------------------------------------
	BYTE		N06     Dn1   v096
	BYTE		N06     Fs1   v032
	BYTE	W12
	BYTE		        Cn1   v100
	BYTE		N06     As1   v060
	BYTE	W12
// 075   ----------------------------------------
	BYTE	PATT
	 POIN2	KnightErrand_11_031
// 076   ----------------------------------------
	BYTE	PATT
	 POIN2	KnightErrand_11_020
// 077   ----------------------------------------
	BYTE	PATT
	 POIN2	KnightErrand_11_021
// 078   ----------------------------------------
	BYTE	PATT
	 POIN2	KnightErrand_11_022
// 079   ----------------------------------------
	BYTE		N06     Cn1   v100
	BYTE		N06     Fs1   v044
	BYTE	W12
	BYTE		        As1   v020
	BYTE		N06     Cn2   v076
	BYTE	W12
// 080   ----------------------------------------
	BYTE	PATT
	 POIN2	KnightErrand_11_048
// 081   ----------------------------------------
	BYTE		N06     Fs1   v004
	BYTE	W12
	BYTE		        Cn1   v044
	BYTE	W06
	BYTE		        Cn1   v100
	BYTE	W06
// 082   ----------------------------------------
	BYTE		        Dn1   v096
	BYTE	W12
	BYTE		        Fn1   v076
	BYTE	W12
// 083   ----------------------------------------
	BYTE		        Cn1   v100
	BYTE	W12
	BYTE		        Gs1   v040
	BYTE		N06     Ds2   v028
	BYTE	W12
// 084   ----------------------------------------
KnightErrand_11_084:
	BYTE		N06     Ds2   v080
	BYTE	W12
	BYTE		        Cn1   v100
	BYTE		N06     Gs1   v040
	BYTE	W12
	BYTE	PEND
// 085   ----------------------------------------
KnightErrand_11_085:
	BYTE		N06     Dn1   v096
	BYTE		N06     Ds2   v080
	BYTE	W12
	BYTE		        Gs1   v040
	BYTE	W12
	BYTE	PEND
// 086   ----------------------------------------
	BYTE		        Ds2   v080
	BYTE	W12
	BYTE		        Cn1   v100
	BYTE		N06     Gs1   v040
	BYTE		N06     Ds2   v084
	BYTE	W12
// 087   ----------------------------------------
KnightErrand_11_087:
	BYTE		N06     Cn1   v100
	BYTE	W12
	BYTE		        Gs1   v040
	BYTE		N06     Ds2   v084
	BYTE	W12
	BYTE	PEND
// 088   ----------------------------------------
	BYTE	PATT
	 POIN2	KnightErrand_11_087
// 089   ----------------------------------------
	BYTE		N06     Dn1   v096
	BYTE	W12
	BYTE		        Gs1   v040
	BYTE		N06     Ds2   v044
	BYTE	W12
// 090   ----------------------------------------
	BYTE		        Ds2   v056
	BYTE	W12
	BYTE		        Cn1   v100
	BYTE		N06     Gs1   v040
	BYTE		N06     Ds2   v072
	BYTE	W12
// 091   ----------------------------------------
	BYTE		        Cn1   v100
	BYTE		N06     Ds2   v080
	BYTE	W12
	BYTE		        Gs1   v040
	BYTE		N06     Ds2   v028
	BYTE	W12
// 092   ----------------------------------------
	BYTE	PATT
	 POIN2	KnightErrand_11_084
// 093   ----------------------------------------
	BYTE	PATT
	 POIN2	KnightErrand_11_085
// 094   ----------------------------------------
	BYTE		N06     Ds2   v080
	BYTE	W12
	BYTE		        Cn1   v100
	BYTE		N06     Gs1   v040
	BYTE		N06     Cs2   v060
	BYTE	W12
// 095   ----------------------------------------
	BYTE	PATT
	 POIN2	KnightErrand_11_087
// 096   ----------------------------------------
	BYTE	PATT
	 POIN2	KnightErrand_11_087
// 097   ----------------------------------------
	BYTE		N06     Dn1   v096
	BYTE	W12
	BYTE		        Cn1   v100
	BYTE		N06     Gs1   v040
	BYTE		N06     Ds2   v028
	BYTE	W12
// 098   ----------------------------------------
	BYTE		        Ds2   v080
	BYTE	W12
	BYTE		        Cn1   v100
	BYTE		N06     Gs1   v040
	BYTE		N06     Ds2   v028
	BYTE	W12
// 099   ----------------------------------------
KnightErrand_11_099:
	BYTE		N06     Cn1   v100
	BYTE		N06     Ds2   v080
	BYTE	W12
	BYTE		        Gs1   v040
	BYTE	W12
	BYTE	PEND
// 100   ----------------------------------------
	BYTE	PATT
	 POIN2	KnightErrand_11_084
// 101   ----------------------------------------
	BYTE	PATT
	 POIN2	KnightErrand_11_085
// 102   ----------------------------------------
	BYTE	PATT
	 POIN2	KnightErrand_11_084
// 103   ----------------------------------------
	BYTE	PATT
	 POIN2	KnightErrand_11_099
// 104   ----------------------------------------
	BYTE	PATT
	 POIN2	KnightErrand_11_084
// 105   ----------------------------------------
	BYTE		N06     Dn1   v096
	BYTE		N06     Ds2   v080
	BYTE	W12
	BYTE		        Cn1   v100
	BYTE		N06     Gs1   v040
	BYTE	W12
// 106   ----------------------------------------
	BYTE		        Fn1   v076
	BYTE	W12
	BYTE		        Cn1   v100
	BYTE		N06     Gs1   v040
	BYTE		N06     Cs2   v076
	BYTE	W12
// 107   ----------------------------------------
	BYTE	W12
	BYTE		        Cn1   v100
	BYTE		N06     Gs1   v040
	BYTE		N06     Ds2   v028
	BYTE	W12
// 108   ----------------------------------------
	BYTE	PATT
	 POIN2	KnightErrand_11_084
// 109   ----------------------------------------
	BYTE		N06     Dn1   v096
	BYTE		N06     Ds2   v080
	BYTE	W12
	BYTE		        Gs1   v040
	BYTE		N06     Cn2   v076
	BYTE	W12
// 110   ----------------------------------------
	BYTE		        An1 
	BYTE	W12
	BYTE		        Cn1   v100
	BYTE		N06     Fn1   v076
	BYTE		N06     Gs1   v040
	BYTE	W12
// 111   ----------------------------------------
	BYTE		        Cn1   v100
	BYTE		N06     Dn1   v096
	BYTE	W12
	BYTE		        Gs1   v040
	BYTE	W12
// 112   ----------------------------------------
	BYTE	W12
	BYTE		N06   
	BYTE	W11
	BYTE		N01     Dn1   v096
	BYTE	W01
// 113   ----------------------------------------
	BYTE		N06     Cn1   v100
	BYTE		N05     Dn1   v096
	BYTE		N06     Cs2   v068
	BYTE	W12
	BYTE		        Cn1   v100
	BYTE		N06     Dn1   v052
	BYTE		N06     Fn1   v032
	BYTE		N06     Gs1   v040
	BYTE	W12
// 114   ----------------------------------------
	BYTE		        Dn1   v068
	BYTE		N06     Fn1   v048
	BYTE	W12
	BYTE		        Dn1   v096
	BYTE		N06     Fn1   v076
	BYTE		N06     Gs1   v040
	BYTE	W12
// 115   ----------------------------------------
	BYTE		        Cn1   v100
	BYTE		N06     An2   v068
	BYTE	W18
	BYTE		        Cn1   v060
	BYTE	W06
// 116   ----------------------------------------
KnightErrand_11_116:
	BYTE		N06     Cn1   v100
	BYTE		N06     Dn1   v096
	BYTE		N06     As1   v024
	BYTE	W24
	BYTE	PEND
// 117   ----------------------------------------
KnightErrand_11_117:
	BYTE		N06     Cn1   v100
	BYTE		N06     As1   v024
	BYTE	W18
	BYTE		        Cn1   v060
	BYTE	W06
	BYTE	PEND
// 118   ----------------------------------------
KnightErrand_11_118:
	BYTE		N06     Cn1   v100
	BYTE		N06     Dn1   v096
	BYTE		N06     As1   v024
	BYTE	W18
	BYTE		        Cn1   v060
	BYTE	W06
	BYTE	PEND
// 119   ----------------------------------------
	BYTE	PATT
	 POIN2	KnightErrand_11_117
// 120   ----------------------------------------
	BYTE	PATT
	 POIN2	KnightErrand_11_116
// 121   ----------------------------------------
	BYTE	PATT
	 POIN2	KnightErrand_11_117
// 122   ----------------------------------------
	BYTE	PATT
	 POIN2	KnightErrand_11_118
// 123   ----------------------------------------
	BYTE	PATT
	 POIN2	KnightErrand_11_117
// 124   ----------------------------------------
	BYTE	PATT
	 POIN2	KnightErrand_11_116
// 125   ----------------------------------------
	BYTE	PATT
	 POIN2	KnightErrand_11_117
// 126   ----------------------------------------
	BYTE	PATT
	 POIN2	KnightErrand_11_116
// 127   ----------------------------------------
	BYTE	PATT
	 POIN2	KnightErrand_11_117
// 128   ----------------------------------------
	BYTE	PATT
	 POIN2	KnightErrand_11_116
// 129   ----------------------------------------
	BYTE		N06     Cn1   v100
	BYTE		N06     As1   v024
	BYTE	W06
	BYTE		        Dn1   v096
	BYTE	W06
	BYTE		N06   
	BYTE	W06
	BYTE		        Gs1   v052
	BYTE	W06
// 130   ----------------------------------------
	BYTE		        Dn1   v096
	BYTE	W12
	BYTE		        Cn1   v100
	BYTE		N06     Gs1   v052
	BYTE		N06     Cs2   v076
	BYTE	W12
// 131   ----------------------------------------
	BYTE	W12
	BYTE		        Fs1   v024
	BYTE		N06     Cn2   v076
	BYTE	W06
	BYTE		N06   
	BYTE	W06
// 132   ----------------------------------------
	BYTE		        Cn1   v100
	BYTE		N06     Fs1   v024
	BYTE		N06     An1   v076
	BYTE	W12
	BYTE		        Cn1   v100
	BYTE		N06     An2   v076
	BYTE	W12
// 133   ----------------------------------------
	BYTE		        An1 
	BYTE	W06
	BYTE		N06   
	BYTE	W06
	BYTE		        Cn1   v100
	BYTE		N06     Fn1   v076
	BYTE		N06     Fs1   v024
	BYTE	W12
// 134   ----------------------------------------
	BYTE		        Dn1   v096
	BYTE		N06     Fs1   v024
	BYTE		N06     Cs2   v076
	BYTE	W12
	BYTE		        Cn1   v100
	BYTE		N06     As1   v060
	BYTE		N06     An2   v076
	BYTE	W12
// 135   ----------------------------------------
	BYTE	W12
	BYTE		        Fn1 
	BYTE		N06     Fs1   v024
	BYTE	W06
	BYTE		        Fn1   v076
	BYTE	W06
// 136   ----------------------------------------
	BYTE		        Cn1   v100
	BYTE		N06     Dn1   v096
	BYTE		N06     Fs1   v024
	BYTE		N06     Cs2   v076
	BYTE	W12
	BYTE		        Cn1   v100
	BYTE		N06     As1   v060
	BYTE		N06     An2   v076
	BYTE	W12
// 137   ----------------------------------------
	BYTE	W12
	BYTE		        Dn1   v096
	BYTE		N06     Fs1   v024
	BYTE	W12
// 138   ----------------------------------------
	BYTE		        Dn1   v096
	BYTE		N06     Fs1   v024
	BYTE	W12
	BYTE		        Cn1   v100
	BYTE		N06     As1   v052
	BYTE	W12
// 139   ----------------------------------------
	BYTE		        Cn1   v100
	BYTE	W18
	BYTE		N06   
	BYTE	W06
// 140   ----------------------------------------
KnightErrand_11_140:
	BYTE		N06     Dn1   v096
	BYTE		N06     As1   v024
	BYTE	W24
	BYTE	PEND
// 141   ----------------------------------------
	BYTE		        Cn1   v100
	BYTE		N06     As1   v024
	BYTE	W24
// 142   ----------------------------------------
	BYTE	PATT
	 POIN2	KnightErrand_11_140
// 143   ----------------------------------------
	BYTE		N06     Cn1   v100
	BYTE		N06     Dn1   v096
	BYTE	W06
	BYTE		N06   
	BYTE	W06
	BYTE		        Fn1   v076
	BYTE	W06
	BYTE		        Dn1   v096
	BYTE		N06     As1   v024
	BYTE	W06
// 144   ----------------------------------------
	BYTE		        Cn1   v100
	BYTE		N06     Dn1   v096
	BYTE		N06     Fs1   v028
	BYTE	W24
// 145   ----------------------------------------
	BYTE	W24
// 146   ----------------------------------------
	BYTE	W12
	BYTE		        Cn1   v100
	BYTE	W12
// 147   ----------------------------------------
KnightErrand_11_147:
	BYTE		N06     Dn1   v096
	BYTE		N06     Cs2   v068
	BYTE	W06
	BYTE		        Dn1   v096
	BYTE	W06
	BYTE		N06   
	BYTE	W12
	BYTE	PEND
// 148   ----------------------------------------
	BYTE	PATT
	 POIN2	KnightErrand_11_004
// 149   ----------------------------------------
KnightErrand_11_149:
	BYTE		N06     Dn1   v096
	BYTE		N06     An2   v068
	BYTE	W06
	BYTE		        Dn1   v096
	BYTE	W06
	BYTE		N06   
	BYTE	W12
	BYTE	PEND
// 150   ----------------------------------------
	BYTE	PATT
	 POIN2	KnightErrand_11_004
// 151   ----------------------------------------
	BYTE		N06     Dn1   v096
	BYTE		N06     Cs2   v068
	BYTE	W06
	BYTE		        Dn1   v096
	BYTE	W06
	BYTE		        Cn2   v076
	BYTE	W06
	BYTE		        Cn1   v100
	BYTE	W06
// 152   ----------------------------------------
	BYTE		N06   
	BYTE		N06     An2   v068
	BYTE	W06
	BYTE		        An1   v076
	BYTE	W06
	BYTE		        Cn1   v100
	BYTE	W06
	BYTE		N06   
	BYTE	W06
// 153   ----------------------------------------
	BYTE	PATT
	 POIN2	KnightErrand_11_009
// 154   ----------------------------------------
	BYTE		N06     Fn1   v076
	BYTE	W06
	BYTE		        Cn2 
	BYTE	W06
	BYTE		        Dn1   v096
	BYTE	W06
	BYTE		        An1   v076
	BYTE	W06
// 155   ----------------------------------------
	BYTE	PATT
	 POIN2	KnightErrand_11_147
// 156   ----------------------------------------
	BYTE	PATT
	 POIN2	KnightErrand_11_004
// 157   ----------------------------------------
	BYTE	PATT
	 POIN2	KnightErrand_11_149
// 158   ----------------------------------------
	BYTE	PATT
	 POIN2	KnightErrand_11_004
// 159   ----------------------------------------
	BYTE		N06     Dn1   v096
	BYTE		N06     Cs2   v068
	BYTE	W12
	BYTE		        Dn1   v096
	BYTE	W12
// 160   ----------------------------------------
	BYTE		N06   
	BYTE		N06     An2   v068
	BYTE	W12
	BYTE		        Dn1   v096
	BYTE	W06
	BYTE		        Cn2   v076
	BYTE	W06
// 161   ----------------------------------------
	BYTE		        Cn1   v100
	BYTE	W06
	BYTE		        Cn2   v076
	BYTE	W06
	BYTE		        An1 
	BYTE	W06
	BYTE		        As1   v024
	BYTE	W06
// 162   ----------------------------------------
	BYTE		        Cn1   v100
	BYTE		N06     Fs1   v028
	BYTE		N06     An1   v076
	BYTE	W06
	BYTE		        Fn1 
	BYTE	W06
	BYTE		        Dn1   v096
	BYTE		N06     As1   v024
	BYTE	W12
	BYTE	GoTo
	 POIN2	KnightErrand_11_B1
KnightErrand_11_B2:
// 163   ----------------------------------------
	BYTE	W24
// 164   ----------------------------------------
	BYTE	W24
// 165   ----------------------------------------
	BYTE	FINE

//******************************************************//
	ALIGN 4

KnightErrand:
	BYTE	11	// NumTrks
	BYTE	0	// NumBlks
	BYTE	KnightErrand_pri	// Priority
	BYTE	KnightErrand_rev	// Reverb.

	POIN2	KnightErrand_grp

	POIN2	KnightErrand_1
	POIN2	KnightErrand_2
	POIN2	KnightErrand_3
	POIN2	KnightErrand_4
	POIN2	KnightErrand_5
	POIN2	KnightErrand_6
	POIN2	KnightErrand_7
	POIN2	KnightErrand_8
	POIN2	KnightErrand_9
	POIN2	KnightErrand_10
	POIN2	KnightErrand_11

	
