//Event file generated from Sappy .s format.
	#include "MPlayDef.event"

	#define	OnTheHunt_grp  voicegroup000
	#define	OnTheHunt_pri  0
	#define	OnTheHunt_rev  0
	#define	OnTheHunt_mvl  75
	#define	OnTheHunt_key  0
	#define	OnTheHunt_tbs  1
	#define	OnTheHunt_exg  0
	#define	OnTheHunt_cmp  1

	// .rodata
	//	OnTheHunt
	ALIGN 4

//**************** Track 1 (Midi-Chn.1) ****************//

OnTheHunt_1:
	BYTE	KEYSH   OnTheHunt_key+0
// 000   ----------------------------------------
	BYTE	TEMPO   120*OnTheHunt_tbs/2
	BYTE		VOICE   61
	BYTE		VOL     54*OnTheHunt_mvl/mxv
	BYTE		PAN     c_v+0
	BYTE		TIE     En3   v088
	BYTE		TIE     Fn3 
	BYTE		TIE     Bn3   v104
	BYTE	W96
// 001   ----------------------------------------
	BYTE	W96
// 002   ----------------------------------------
	BYTE	W96
// 003   ----------------------------------------
	BYTE	W96
// 004   ----------------------------------------
	BYTE	W96
// 005   ----------------------------------------
	BYTE	W80
	BYTE		EOT     En3 
	BYTE		        Fn3 
	BYTE		        Bn3 
OnTheHunt_1_B1:
	BYTE	W16
// 006   ----------------------------------------
	BYTE	W96
// 007   ----------------------------------------
	BYTE	W96
// 008   ----------------------------------------
	BYTE	W96
// 009   ----------------------------------------
	BYTE	W96
// 010   ----------------------------------------
	BYTE	W96
// 011   ----------------------------------------
	BYTE	W96
// 012   ----------------------------------------
	BYTE	W96
// 013   ----------------------------------------
	BYTE	W96
// 014   ----------------------------------------
	BYTE	W96
// 015   ----------------------------------------
	BYTE	W96
// 016   ----------------------------------------
	BYTE	W96
// 017   ----------------------------------------
	BYTE	W96
// 018   ----------------------------------------
	BYTE	W96
// 019   ----------------------------------------
	BYTE	W96
// 020   ----------------------------------------
	BYTE	W96
// 021   ----------------------------------------
	BYTE	W96
// 022   ----------------------------------------
	BYTE	W96
// 023   ----------------------------------------
	BYTE	W96
// 024   ----------------------------------------
	BYTE	W96
// 025   ----------------------------------------
	BYTE	W96
// 026   ----------------------------------------
	BYTE	W96
// 027   ----------------------------------------
	BYTE	W96
// 028   ----------------------------------------
	BYTE	W96
// 029   ----------------------------------------
	BYTE	W96
// 030   ----------------------------------------
	BYTE	W96
// 031   ----------------------------------------
	BYTE	W96
// 032   ----------------------------------------
	BYTE	W96
// 033   ----------------------------------------
	BYTE	W96
// 034   ----------------------------------------
	BYTE	W96
// 035   ----------------------------------------
	BYTE	W96
// 036   ----------------------------------------
	BYTE	W96
// 037   ----------------------------------------
	BYTE	W96
// 038   ----------------------------------------
	BYTE	W96
// 039   ----------------------------------------
	BYTE	W96
// 040   ----------------------------------------
	BYTE	W80
	BYTE	GoTo
	 POIN2	OnTheHunt_1_B1
OnTheHunt_1_B2:
	BYTE	FINE

//**************** Track 2 (Midi-Chn.2) ****************//

OnTheHunt_2:
	BYTE	KEYSH   OnTheHunt_key+0
// 000   ----------------------------------------
	BYTE		VOICE   47
	BYTE		PAN     c_v+15
	BYTE		VOL     69*OnTheHunt_mvl/mxv
	BYTE		N30     En1   v127
	BYTE	W32
	BYTE	W03
	BYTE		N24     En1   v120
	BYTE	W32
	BYTE	W03
	BYTE		N28     En1   v127
	BYTE	W24
	BYTE	W02
// 001   ----------------------------------------
	BYTE	W09
	BYTE		N10   
	BYTE	W17
	BYTE		N09     En1   v120
	BYTE	W18
	BYTE		N24     En1   v127
	BYTE	W32
	BYTE	W03
	BYTE		N24   
	BYTE	W17
// 002   ----------------------------------------
	BYTE	W18
	BYTE		N24   
	BYTE	W32
	BYTE	W03
	BYTE		N07     En1   v116
	BYTE	W17
	BYTE		N08     En1   v120
	BYTE	W18
	BYTE		N24     En1   v100
	BYTE	W08
// 003   ----------------------------------------
	BYTE	W24
	BYTE	W03
	BYTE		        En1   v124
	BYTE	W32
	BYTE	W03
	BYTE		N24   
	BYTE	W32
	BYTE	W02
// 004   ----------------------------------------
	BYTE	W01
	BYTE		N08     En1   v120
	BYTE	W17
	BYTE		N07     En1   v112
	BYTE	W18
	BYTE		N24     En1   v127
	BYTE	W32
	BYTE	W03
	BYTE		        En1   v120
	BYTE	W24
	BYTE	W01
// 005   ----------------------------------------
	BYTE	W10
	BYTE		        En1   v124
	BYTE	W32
	BYTE	W03
	BYTE		N07   
	BYTE	W17
	BYTE		N06     En1   v127
	BYTE	W18
OnTheHunt_2_B1:
	BYTE	W16
// 006   ----------------------------------------
	BYTE	W96
// 007   ----------------------------------------
	BYTE	W96
// 008   ----------------------------------------
	BYTE	W96
// 009   ----------------------------------------
	BYTE	W96
// 010   ----------------------------------------
	BYTE	W96
// 011   ----------------------------------------
	BYTE	W96
// 012   ----------------------------------------
	BYTE	W96
// 013   ----------------------------------------
	BYTE	W96
// 014   ----------------------------------------
	BYTE	W96
// 015   ----------------------------------------
	BYTE	W96
// 016   ----------------------------------------
	BYTE	W96
// 017   ----------------------------------------
	BYTE	W96
// 018   ----------------------------------------
	BYTE	W96
// 019   ----------------------------------------
	BYTE	W96
// 020   ----------------------------------------
	BYTE	W96
// 021   ----------------------------------------
	BYTE	W96
// 022   ----------------------------------------
	BYTE	W96
// 023   ----------------------------------------
	BYTE	W96
// 024   ----------------------------------------
	BYTE	W96
// 025   ----------------------------------------
	BYTE	W96
// 026   ----------------------------------------
	BYTE	W96
// 027   ----------------------------------------
	BYTE	W96
// 028   ----------------------------------------
	BYTE	W96
// 029   ----------------------------------------
	BYTE	W96
// 030   ----------------------------------------
	BYTE	W96
// 031   ----------------------------------------
	BYTE	W96
// 032   ----------------------------------------
	BYTE	W96
// 033   ----------------------------------------
	BYTE	W96
// 034   ----------------------------------------
	BYTE	W96
// 035   ----------------------------------------
	BYTE	W96
// 036   ----------------------------------------
	BYTE	W96
// 037   ----------------------------------------
	BYTE	W96
// 038   ----------------------------------------
	BYTE	W96
// 039   ----------------------------------------
	BYTE	W96
// 040   ----------------------------------------
	BYTE	W80
	BYTE	GoTo
	 POIN2	OnTheHunt_2_B1
OnTheHunt_2_B2:
	BYTE	FINE

//**************** Track 3 (Midi-Chn.3) ****************//

OnTheHunt_3:
	BYTE	KEYSH   OnTheHunt_key+0
// 000   ----------------------------------------
	BYTE		VOICE   8
	BYTE		PAN     c_v-30
	BYTE		VOL     0*OnTheHunt_mvl/mxv
	BYTE		N08     Bn4   v068
	BYTE	W08
	BYTE		        Cn5 
	BYTE	W09
	BYTE		N09     Bn4   v060
	BYTE	W09
	BYTE		        Cn5 
	BYTE	W09
	BYTE		N08     Bn4 
	BYTE	W02
	BYTE		VOL     1*OnTheHunt_mvl/mxv
	BYTE	W02
	BYTE		        3*OnTheHunt_mvl/mxv
	BYTE	W03
	BYTE		        5*OnTheHunt_mvl/mxv
	BYTE	W01
	BYTE		        6*OnTheHunt_mvl/mxv
	BYTE		N08     Cn5   v056
	BYTE	W03
	BYTE		VOL     8*OnTheHunt_mvl/mxv
	BYTE	W02
	BYTE		        10*OnTheHunt_mvl/mxv
	BYTE	W03
	BYTE		        12*OnTheHunt_mvl/mxv
	BYTE	W01
	BYTE		N09     Bn4   v068
	BYTE	W01
	BYTE		VOL     14*OnTheHunt_mvl/mxv
	BYTE	W01
	BYTE		        15*OnTheHunt_mvl/mxv
	BYTE	W02
	BYTE		        16*OnTheHunt_mvl/mxv
	BYTE	W01
	BYTE		        17*OnTheHunt_mvl/mxv
	BYTE	W01
	BYTE		        18*OnTheHunt_mvl/mxv
	BYTE	W01
	BYTE		        19*OnTheHunt_mvl/mxv
	BYTE	W02
	BYTE		        20*OnTheHunt_mvl/mxv
	BYTE		N09     Cn5   v048
	BYTE	W01
	BYTE		VOL     21*OnTheHunt_mvl/mxv
	BYTE	W01
	BYTE		        22*OnTheHunt_mvl/mxv
	BYTE	W01
	BYTE		        23*OnTheHunt_mvl/mxv
	BYTE	W03
	BYTE		        25*OnTheHunt_mvl/mxv
	BYTE	W03
	BYTE		        27*OnTheHunt_mvl/mxv
	BYTE		N08     Bn4   v060
	BYTE	W04
	BYTE		VOL     30*OnTheHunt_mvl/mxv
	BYTE	W04
	BYTE		        31*OnTheHunt_mvl/mxv
	BYTE		N08     Cn5   v048
	BYTE	W01
	BYTE		VOL     32*OnTheHunt_mvl/mxv
	BYTE	W02
	BYTE		        33*OnTheHunt_mvl/mxv
	BYTE	W04
	BYTE		        35*OnTheHunt_mvl/mxv
	BYTE	W02
	BYTE		N09     Bn4   v056
	BYTE	W01
	BYTE		VOL     36*OnTheHunt_mvl/mxv
	BYTE	W01
	BYTE		        37*OnTheHunt_mvl/mxv
	BYTE	W03
	BYTE		        38*OnTheHunt_mvl/mxv
	BYTE	W01
	BYTE		        39*OnTheHunt_mvl/mxv
	BYTE	W03
// 001   ----------------------------------------
	BYTE		        40*OnTheHunt_mvl/mxv
	BYTE		N09     Cn5   v060
	BYTE	W01
	BYTE		VOL     41*OnTheHunt_mvl/mxv
	BYTE	W03
	BYTE		        42*OnTheHunt_mvl/mxv
	BYTE	W01
	BYTE		        43*OnTheHunt_mvl/mxv
	BYTE	W04
	BYTE		        44*OnTheHunt_mvl/mxv
	BYTE		N08     Bn4   v056
	BYTE	W01
	BYTE		VOL     45*OnTheHunt_mvl/mxv
	BYTE	W04
	BYTE		        47*OnTheHunt_mvl/mxv
	BYTE	W02
	BYTE		        48*OnTheHunt_mvl/mxv
	BYTE	W01
	BYTE		N08     Cn5   v076
	BYTE	W03
	BYTE		VOL     50*OnTheHunt_mvl/mxv
	BYTE	W01
	BYTE		        51*OnTheHunt_mvl/mxv
	BYTE	W03
	BYTE		        52*OnTheHunt_mvl/mxv
	BYTE	W02
	BYTE		N09     Bn4   v060
	BYTE	W01
	BYTE		VOL     54*OnTheHunt_mvl/mxv
	BYTE	W04
	BYTE		        56*OnTheHunt_mvl/mxv
	BYTE	W03
	BYTE		        57*OnTheHunt_mvl/mxv
	BYTE	W01
	BYTE		        58*OnTheHunt_mvl/mxv
	BYTE		N09     Cn5 
	BYTE	W02
	BYTE		VOL     59*OnTheHunt_mvl/mxv
	BYTE	W04
	BYTE		        61*OnTheHunt_mvl/mxv
	BYTE	W03
	BYTE		N08     Bn4   v076
	BYTE	W01
	BYTE		VOL     63*OnTheHunt_mvl/mxv
	BYTE	W03
	BYTE		        64*OnTheHunt_mvl/mxv
	BYTE	W04
	BYTE		        66*OnTheHunt_mvl/mxv
	BYTE		N08     Cn5 
	BYTE	W04
	BYTE		VOL     68*OnTheHunt_mvl/mxv
	BYTE	W01
	BYTE		        69*OnTheHunt_mvl/mxv
	BYTE	W02
	BYTE		        70*OnTheHunt_mvl/mxv
	BYTE	W02
	BYTE		N09     Bn4   v068
	BYTE	W09
	BYTE		        Cn5   v076
	BYTE	W09
	BYTE		N08     Bn4 
	BYTE	W08
	BYTE		        Cn5   v060
	BYTE	W09
// 002   ----------------------------------------
	BYTE		N09     Bn4   v056
	BYTE	W09
	BYTE		        Cn5   v048
	BYTE	W09
	BYTE		N08     Bn4   v060
	BYTE	W08
	BYTE		        Cn5   v068
	BYTE	W09
	BYTE		N09     Bn4   v060
	BYTE	W09
	BYTE		        Cn5   v068
	BYTE	W09
	BYTE		N08     Bn4   v060
	BYTE	W08
	BYTE		        Cn5 
	BYTE	W09
	BYTE		N09     Bn4   v068
	BYTE	W09
	BYTE		        Cn5 
	BYTE	W09
	BYTE		N08     Bn4   v060
	BYTE	W08
// 003   ----------------------------------------
	BYTE		        Cn5 
	BYTE	W09
	BYTE		N09     Bn4   v068
	BYTE	W09
	BYTE		        Cn5 
	BYTE	W09
	BYTE		N08     Bn4   v076
	BYTE	W08
	BYTE		        Cn5   v060
	BYTE	W09
	BYTE		N09     Bn4   v068
	BYTE	W09
	BYTE		        Cn5 
	BYTE	W09
	BYTE		N08     Bn4   v064
	BYTE	W08
	BYTE		        Cn5   v056
	BYTE	W09
	BYTE		N09     Bn4   v076
	BYTE	W09
	BYTE		        Cn5   v056
	BYTE	W08
// 004   ----------------------------------------
	BYTE	W01
	BYTE		N08     Bn4   v076
	BYTE	W08
	BYTE		        Cn5   v060
	BYTE	W09
	BYTE		N09     Bn4   v068
	BYTE	W09
	BYTE		        Cn5 
	BYTE	W09
	BYTE		N08     Bn4 
	BYTE	W08
	BYTE		        Cn5 
	BYTE	W09
	BYTE		N09     Bn4   v060
	BYTE	W09
	BYTE		        Cn5   v056
	BYTE	W09
	BYTE		N08     Bn4   v068
	BYTE	W08
	BYTE		        Cn5   v060
	BYTE	W09
	BYTE		N09     Bn4   v080
	BYTE	W08
// 005   ----------------------------------------
	BYTE	W01
	BYTE		        Cn5   v060
	BYTE	W09
	BYTE		N08     Bn4   v064
	BYTE	W08
	BYTE		        Cn5   v060
	BYTE	W09
	BYTE		N09     Bn4   v076
	BYTE	W09
	BYTE		        Cn5   v056
	BYTE	W09
	BYTE		N08     Bn4   v068
	BYTE	W08
	BYTE		        Cn5 
	BYTE	W09
	BYTE		N09     Bn4   v060
	BYTE	W09
	BYTE		        Cn5   v076
	BYTE	W09
OnTheHunt_3_B1:
	BYTE	W16
// 006   ----------------------------------------
	BYTE	W96
// 007   ----------------------------------------
	BYTE	W96
// 008   ----------------------------------------
	BYTE	W96
// 009   ----------------------------------------
	BYTE	W96
// 010   ----------------------------------------
	BYTE	W96
// 011   ----------------------------------------
	BYTE	W96
// 012   ----------------------------------------
	BYTE	W96
// 013   ----------------------------------------
	BYTE	W96
// 014   ----------------------------------------
	BYTE	W96
// 015   ----------------------------------------
	BYTE	W96
// 016   ----------------------------------------
	BYTE	W96
// 017   ----------------------------------------
	BYTE	W96
// 018   ----------------------------------------
	BYTE	W96
// 019   ----------------------------------------
	BYTE	W96
// 020   ----------------------------------------
	BYTE	W96
// 021   ----------------------------------------
	BYTE	W96
// 022   ----------------------------------------
	BYTE	W96
// 023   ----------------------------------------
	BYTE	W96
// 024   ----------------------------------------
	BYTE	W96
// 025   ----------------------------------------
	BYTE	W96
// 026   ----------------------------------------
	BYTE	W96
// 027   ----------------------------------------
	BYTE	W96
// 028   ----------------------------------------
	BYTE	W96
// 029   ----------------------------------------
	BYTE	W96
// 030   ----------------------------------------
	BYTE	W96
// 031   ----------------------------------------
	BYTE	W96
// 032   ----------------------------------------
	BYTE	W96
// 033   ----------------------------------------
	BYTE	W96
// 034   ----------------------------------------
	BYTE	W96
// 035   ----------------------------------------
	BYTE	W96
// 036   ----------------------------------------
	BYTE	W96
// 037   ----------------------------------------
	BYTE	W96
// 038   ----------------------------------------
	BYTE	W96
// 039   ----------------------------------------
	BYTE	W96
// 040   ----------------------------------------
	BYTE	W80
	BYTE	GoTo
	 POIN2	OnTheHunt_3_B1
OnTheHunt_3_B2:
	BYTE	FINE

//**************** Track 4 (Midi-Chn.4) ****************//

OnTheHunt_4:
	BYTE	KEYSH   OnTheHunt_key+0
// 000   ----------------------------------------
	BYTE		VOICE   61
	BYTE		PAN     c_v-24
	BYTE		VOL     84*OnTheHunt_mvl/mxv
	BYTE	W96
// 001   ----------------------------------------
	BYTE	W96
// 002   ----------------------------------------
	BYTE	W96
// 003   ----------------------------------------
	BYTE	W96
// 004   ----------------------------------------
	BYTE	W96
// 005   ----------------------------------------
	BYTE	W80
OnTheHunt_4_B1:
	BYTE		N17     Bn2   v092
	BYTE	W16
// 006   ----------------------------------------
	BYTE	W10
	BYTE		N09     Bn2   v096
	BYTE	W17
	BYTE		N08     Bn2   v092
	BYTE	W18
	BYTE		N04     Bn2   v088
	BYTE	W09
	BYTE		N17     Bn2   v096
	BYTE	W24
	BYTE	W02
	BYTE		N09     Bn2   v092
	BYTE	W16
// 007   ----------------------------------------
	BYTE	W01
	BYTE		N08   
	BYTE	W18
	BYTE		N04     Bn2   v088
	BYTE	W09
	BYTE		N17     Bn2   v092
	BYTE	W24
	BYTE	W02
	BYTE		N09     Bn2   v096
	BYTE	W17
	BYTE		N08   
	BYTE	W18
	BYTE		N04     Bn2   v092
	BYTE	W07
// 008   ----------------------------------------
	BYTE	W02
	BYTE		N17   
	BYTE	W24
	BYTE	W02
	BYTE		N09   
	BYTE	W17
	BYTE		N08     Bn2   v096
	BYTE	W18
	BYTE		N04     Bn2   v088
	BYTE	W09
	BYTE		N17     Bn2   v096
	BYTE	W24
// 009   ----------------------------------------
	BYTE	W02
	BYTE		N09     Bn2   v088
	BYTE	W17
	BYTE		N08     Bn2   v096
	BYTE	W18
	BYTE		N04     Bn2   v088
	BYTE	W09
	BYTE		N17     Bn2   v092
	BYTE	W24
	BYTE	W02
	BYTE		N09   
	BYTE	W17
	BYTE		N08   
	BYTE	W07
// 010   ----------------------------------------
	BYTE	W11
	BYTE		N04     Bn2   v088
	BYTE	W09
	BYTE		N17     Bn2   v092
	BYTE	W24
	BYTE	W02
	BYTE		N09   
	BYTE	W17
	BYTE		N08   
	BYTE	W18
	BYTE		N04     Bn2   v096
	BYTE	W09
	BYTE		N17     Bn2   v092
	BYTE	W06
// 011   ----------------------------------------
	BYTE	W20
	BYTE		N09   
	BYTE	W17
	BYTE		N04   
	BYTE	W09
	BYTE		N18     Bn2   v096
	BYTE	W18
	BYTE		N17     En3 
	BYTE	W24
	BYTE	W02
	BYTE		N09   
	BYTE	W06
// 012   ----------------------------------------
	BYTE	W11
	BYTE		N08   
	BYTE	W18
	BYTE		N04     En3   v092
	BYTE	W09
	BYTE		N17   
	BYTE	W24
	BYTE	W02
	BYTE		N09   
	BYTE	W17
	BYTE		N08   
	BYTE	W15
// 013   ----------------------------------------
	BYTE	W03
	BYTE		N04   
	BYTE	W09
	BYTE		N17   
	BYTE	W24
	BYTE	W02
	BYTE		N09   
	BYTE	W17
	BYTE		N08   
	BYTE	W18
	BYTE		N04   
	BYTE	W09
	BYTE		N17   
	BYTE	W14
// 014   ----------------------------------------
	BYTE	W12
	BYTE		N09     En3   v096
	BYTE	W17
	BYTE		N04     En3   v092
	BYTE	W09
	BYTE		N18   
	BYTE	W18
	BYTE		N17     Bn2 
	BYTE	W24
	BYTE	W02
	BYTE		N09     Bn2   v088
	BYTE	W14
// 015   ----------------------------------------
	BYTE	W03
	BYTE		N08     Bn2   v092
	BYTE	W18
	BYTE		N04   
	BYTE	W09
	BYTE		N17     Bn2   v096
	BYTE	W24
	BYTE	W02
	BYTE		N09   
	BYTE	W17
	BYTE		N08     Bn2   v092
	BYTE	W18
	BYTE		N04     Bn2   v088
	BYTE	W05
// 016   ----------------------------------------
	BYTE	W04
	BYTE		N17     Bn2   v092
	BYTE	W24
	BYTE	W02
	BYTE		N09   
	BYTE	W17
	BYTE		N08   
	BYTE	W18
	BYTE		N04   
	BYTE	W09
	BYTE		N17   
	BYTE	W22
// 017   ----------------------------------------
	BYTE	W04
	BYTE		N09   
	BYTE	W17
	BYTE		N04   
	BYTE	W09
	BYTE		N18     Bn2   v088
	BYTE	W18
	BYTE		N17     Fs3   v092
	BYTE	W24
	BYTE	W02
	BYTE		N09   
	BYTE	W17
	BYTE		N08     Fs3   v096
	BYTE	W05
// 018   ----------------------------------------
	BYTE	W13
	BYTE		N04     Fs3   v092
	BYTE	W09
	BYTE		N17     Fs3   v096
	BYTE	W24
	BYTE	W02
	BYTE		N09     Fs3   v092
	BYTE	W17
	BYTE		N04   
	BYTE	W09
	BYTE		N18   
	BYTE	W18
	BYTE		N17     En3 
	BYTE	W04
// 019   ----------------------------------------
	BYTE	W22
	BYTE		N09   
	BYTE	W17
	BYTE		N08   
	BYTE	W18
	BYTE		N04   
	BYTE	W09
	BYTE		N17     En3   v096
	BYTE	W24
	BYTE	W02
	BYTE		N09   
	BYTE	W04
// 020   ----------------------------------------
	BYTE	W13
	BYTE		N04     En3   v092
	BYTE	W09
	BYTE		N18   
	BYTE	W18
	BYTE		N17     Bn2   v096
	BYTE	W24
	BYTE	W02
	BYTE		N09     Bn2   v092
	BYTE	W17
	BYTE		N08     Bn2   v096
	BYTE	W13
// 021   ----------------------------------------
	BYTE	W05
	BYTE		N04     Bn2   v088
	BYTE	W09
	BYTE		N17     Bn2   v096
	BYTE	W24
	BYTE	W02
	BYTE		N09   
	BYTE	W17
	BYTE		N08     Bn2   v092
	BYTE	W18
	BYTE		N04   
	BYTE	W09
	BYTE		N17     Bn2   v096
	BYTE	W12
// 022   ----------------------------------------
	BYTE	W14
	BYTE		N09   
	BYTE	W17
	BYTE		N08   
	BYTE	W18
	BYTE		N04     Bn2   v092
	BYTE	W09
	BYTE		N17   
	BYTE	W24
	BYTE	W02
	BYTE		N09     Bn2   v088
	BYTE	W12
// 023   ----------------------------------------
	BYTE	W05
	BYTE		N08     Bn2   v092
	BYTE	W18
	BYTE		N09     An2   v088
	BYTE	W09
	BYTE		N17     Bn2   v092
	BYTE	W24
	BYTE	W02
	BYTE		N09     Bn2   v096
	BYTE	W17
	BYTE		N08     Bn2   v092
	BYTE	W18
	BYTE		N04     Bn2   v088
	BYTE	W03
// 024   ----------------------------------------
	BYTE	W06
	BYTE		N17     Bn2   v096
	BYTE	W24
	BYTE	W02
	BYTE		N09     Bn2   v092
	BYTE	W17
	BYTE		N08   
	BYTE	W18
	BYTE		N04     Bn2   v088
	BYTE	W09
	BYTE		N17     Bn2   v092
	BYTE	W20
// 025   ----------------------------------------
	BYTE	W06
	BYTE		N09     Bn2   v096
	BYTE	W17
	BYTE		N08   
	BYTE	W18
	BYTE		N04     Bn2   v092
	BYTE	W09
	BYTE		N17   
	BYTE	W24
	BYTE	W02
	BYTE		N09   
	BYTE	W17
	BYTE		N08     Bn2   v096
	BYTE	W03
// 026   ----------------------------------------
	BYTE	W15
	BYTE		N04     Bn2   v088
	BYTE	W09
	BYTE		N17     Bn2   v096
	BYTE	W24
	BYTE	W02
	BYTE		N09     Bn2   v088
	BYTE	W17
	BYTE		N08     Bn2   v096
	BYTE	W18
	BYTE		N04     Bn2   v088
	BYTE	W09
	BYTE		N17     Bn2   v092
	BYTE	W02
// 027   ----------------------------------------
	BYTE	W24
	BYTE		N09   
	BYTE	W17
	BYTE		N08   
	BYTE	W18
	BYTE		N04     Bn2   v088
	BYTE	W09
	BYTE		N17     Bn2   v092
	BYTE	W24
	BYTE	W02
	BYTE		N09   
	BYTE	W02
// 028   ----------------------------------------
	BYTE	W15
	BYTE		N08   
	BYTE	W18
	BYTE		N04     Bn2   v096
	BYTE	W09
	BYTE		N17     Bn2   v092
	BYTE	W24
	BYTE	W02
	BYTE		N09   
	BYTE	W17
	BYTE		N04   
	BYTE	W09
	BYTE		N18     Bn2   v096
	BYTE	W02
// 029   ----------------------------------------
	BYTE	W16
	BYTE		N17     En3 
	BYTE	W24
	BYTE	W02
	BYTE		N09   
	BYTE	W17
	BYTE		N08   
	BYTE	W18
	BYTE		N04     En3   v092
	BYTE	W09
	BYTE		N17   
	BYTE	W10
// 030   ----------------------------------------
	BYTE	W16
	BYTE		N09   
	BYTE	W17
	BYTE		N08   
	BYTE	W18
	BYTE		N04   
	BYTE	W09
	BYTE		N17   
	BYTE	W24
	BYTE	W02
	BYTE		N09   
	BYTE	W10
// 031   ----------------------------------------
	BYTE	W07
	BYTE		N08   
	BYTE	W18
	BYTE		N04   
	BYTE	W09
	BYTE		N17   
	BYTE	W24
	BYTE	W02
	BYTE		N09     En3   v096
	BYTE	W17
	BYTE		N04     En3   v092
	BYTE	W09
	BYTE		N18   
	BYTE	W10
// 032   ----------------------------------------
	BYTE	W08
	BYTE		N17     Bn2 
	BYTE	W24
	BYTE	W02
	BYTE		N09     Bn2   v088
	BYTE	W17
	BYTE		N08     Bn2   v092
	BYTE	W18
	BYTE		N04   
	BYTE	W09
	BYTE		N17     Bn2   v096
	BYTE	W18
// 033   ----------------------------------------
	BYTE	W08
	BYTE		N09   
	BYTE	W17
	BYTE		N08     Bn2   v092
	BYTE	W18
	BYTE		N04     Bn2   v088
	BYTE	W09
	BYTE		N17     Bn2   v092
	BYTE	W24
	BYTE	W02
	BYTE		N09   
	BYTE	W17
	BYTE		N08   
	BYTE	W01
// 034   ----------------------------------------
	BYTE	W17
	BYTE		N04   
	BYTE	W09
	BYTE		N17   
	BYTE	W24
	BYTE	W02
	BYTE		N09   
	BYTE	W17
	BYTE		N04   
	BYTE	W09
	BYTE		N18     Bn2   v088
	BYTE	W18
// 035   ----------------------------------------
	BYTE		N17     Fs3   v092
	BYTE	W24
	BYTE	W02
	BYTE		N09   
	BYTE	W17
	BYTE		N08     Fs3   v096
	BYTE	W18
	BYTE		N04     Fs3   v092
	BYTE	W09
	BYTE		N17     Fs3   v096
	BYTE	W24
	BYTE	W02
// 036   ----------------------------------------
	BYTE		N09     Fs3   v092
	BYTE	W17
	BYTE		N04   
	BYTE	W09
	BYTE		N18   
	BYTE	W18
	BYTE		N17     En3 
	BYTE	W24
	BYTE	W02
	BYTE		N09   
	BYTE	W17
	BYTE		N08   
	BYTE	W09
// 037   ----------------------------------------
	BYTE	W09
	BYTE		N04   
	BYTE	W09
	BYTE		N17     En3   v096
	BYTE	W24
	BYTE	W02
	BYTE		N09   
	BYTE	W17
	BYTE		N04     En3   v092
	BYTE	W09
	BYTE		N18   
	BYTE	W18
	BYTE		N17     Bn2   v096
	BYTE	W08
// 038   ----------------------------------------
	BYTE	W18
	BYTE		N09     Bn2   v092
	BYTE	W17
	BYTE		N08     Bn2   v096
	BYTE	W18
	BYTE		N04     Bn2   v088
	BYTE	W09
	BYTE		N17     Bn2   v096
	BYTE	W24
	BYTE	W02
	BYTE		N09   
	BYTE	W08
// 039   ----------------------------------------
	BYTE	W09
	BYTE		N08     Bn2   v092
	BYTE	W18
	BYTE		N04   
	BYTE	W09
	BYTE		N17     Bn2   v096
	BYTE	W24
	BYTE	W02
	BYTE		N09   
	BYTE	W17
	BYTE		N08   
	BYTE	W17
// 040   ----------------------------------------
	BYTE	W01
	BYTE		N04     Bn2   v092
	BYTE	W09
	BYTE		N17   
	BYTE	W24
	BYTE	W02
	BYTE		N09     Bn2   v088
	BYTE	W17
	BYTE		N08     Bn2   v092
	BYTE	W18
	BYTE		N09     An2   v088
	BYTE	W09
	BYTE	GoTo
	 POIN2	OnTheHunt_4_B1
OnTheHunt_4_B2:
	BYTE	FINE

//**************** Track 5 (Midi-Chn.5) ****************//

OnTheHunt_5:
	BYTE	KEYSH   OnTheHunt_key+0
// 000   ----------------------------------------
	BYTE		VOICE   61
	BYTE		VOL     83*OnTheHunt_mvl/mxv
	BYTE		PAN     c_v+40
	BYTE	W96
// 001   ----------------------------------------
	BYTE	W96
// 002   ----------------------------------------
	BYTE	W96
// 003   ----------------------------------------
	BYTE	W96
// 004   ----------------------------------------
	BYTE	W96
// 005   ----------------------------------------
	BYTE	W80
OnTheHunt_5_B1:
	BYTE		N17     En2   v096
	BYTE	W16
// 006   ----------------------------------------
	BYTE	W10
	BYTE		N09     Fn2 
	BYTE	W17
	BYTE		N08     Fn2   v092
	BYTE	W18
	BYTE		N04     Fn2   v088
	BYTE	W09
	BYTE		N17     En2   v092
	BYTE	W24
	BYTE	W02
	BYTE		N09     Fn2   v096
	BYTE	W16
// 007   ----------------------------------------
	BYTE	W01
	BYTE		N08     Fn2   v092
	BYTE	W18
	BYTE		N04     Fn2   v088
	BYTE	W09
	BYTE		N17     En2   v092
	BYTE	W24
	BYTE	W02
	BYTE		N09     Fn2   v096
	BYTE	W17
	BYTE		N08     Fn2   v088
	BYTE	W18
	BYTE		N04   
	BYTE	W07
// 008   ----------------------------------------
	BYTE	W02
	BYTE		N17     En2   v092
	BYTE	W24
	BYTE	W02
	BYTE		N09     Fn2   v100
	BYTE	W17
	BYTE		N08     Fn2   v088
	BYTE	W18
	BYTE		N04     Fn2   v092
	BYTE	W09
	BYTE		N17     En2   v088
	BYTE	W24
// 009   ----------------------------------------
	BYTE	W02
	BYTE		N09     Fn2   v092
	BYTE	W17
	BYTE		N08     Fn2   v096
	BYTE	W18
	BYTE		N04     Fn2   v088
	BYTE	W09
	BYTE		N17     En2 
	BYTE	W24
	BYTE	W02
	BYTE		N09     Fn2   v092
	BYTE	W17
	BYTE		N08   
	BYTE	W07
// 010   ----------------------------------------
	BYTE	W11
	BYTE		N04   
	BYTE	W09
	BYTE		N17     En2 
	BYTE	W24
	BYTE	W02
	BYTE		N09     Fn2   v096
	BYTE	W17
	BYTE		N08     Fn2   v092
	BYTE	W18
	BYTE		N04   
	BYTE	W09
	BYTE		N17     En2 
	BYTE	W06
// 011   ----------------------------------------
	BYTE	W20
	BYTE		N09     Fn2   v096
	BYTE	W17
	BYTE		N04     Fn2   v092
	BYTE	W09
	BYTE		N18     En2 
	BYTE	W18
	BYTE		N17     An2 
	BYTE	W24
	BYTE	W02
	BYTE		N09     As2 
	BYTE	W06
// 012   ----------------------------------------
	BYTE	W11
	BYTE		N08     As2   v096
	BYTE	W18
	BYTE		N04     As2   v092
	BYTE	W09
	BYTE		N17     An2 
	BYTE	W24
	BYTE	W02
	BYTE		N09     As2 
	BYTE	W17
	BYTE		N08   
	BYTE	W15
// 013   ----------------------------------------
	BYTE	W03
	BYTE		N04   
	BYTE	W09
	BYTE		N17     An2 
	BYTE	W24
	BYTE	W02
	BYTE		N09     As2   v100
	BYTE	W17
	BYTE		N08     As2   v096
	BYTE	W18
	BYTE		N04     As2   v100
	BYTE	W09
	BYTE		N17     An2   v092
	BYTE	W14
// 014   ----------------------------------------
	BYTE	W12
	BYTE		N09     As2 
	BYTE	W17
	BYTE		N04   
	BYTE	W09
	BYTE		N18     An2   v088
	BYTE	W18
	BYTE		N17     En2 
	BYTE	W24
	BYTE	W02
	BYTE		N09     Fn2   v096
	BYTE	W14
// 015   ----------------------------------------
	BYTE	W03
	BYTE		N08     Fn2   v092
	BYTE	W18
	BYTE		N04     Fn2   v088
	BYTE	W09
	BYTE		N17     En2 
	BYTE	W24
	BYTE	W02
	BYTE		N09     Fn2   v096
	BYTE	W17
	BYTE		N08   
	BYTE	W18
	BYTE		N04     Fn2   v088
	BYTE	W05
// 016   ----------------------------------------
	BYTE	W04
	BYTE		N17     En2   v092
	BYTE	W24
	BYTE	W02
	BYTE		N09     Fn2 
	BYTE	W17
	BYTE		N08   
	BYTE	W18
	BYTE		N04   
	BYTE	W09
	BYTE		N17     En2   v088
	BYTE	W22
// 017   ----------------------------------------
	BYTE	W04
	BYTE		N09     Fn2   v092
	BYTE	W17
	BYTE		N04   
	BYTE	W09
	BYTE		N18     En2   v088
	BYTE	W18
	BYTE		N17     Bn2   v092
	BYTE	W24
	BYTE	W02
	BYTE		N09     Cn3 
	BYTE	W17
	BYTE		N08   
	BYTE	W05
// 018   ----------------------------------------
	BYTE	W13
	BYTE		N04   
	BYTE	W09
	BYTE		N17     Bn2   v096
	BYTE	W24
	BYTE	W02
	BYTE		N09     Cn3 
	BYTE	W17
	BYTE		N04     Cn3   v092
	BYTE	W09
	BYTE		N18     Bn2   v088
	BYTE	W18
	BYTE		N17     An2   v092
	BYTE	W04
// 019   ----------------------------------------
	BYTE	W22
	BYTE		N09     As2   v096
	BYTE	W17
	BYTE		N08     As2   v092
	BYTE	W18
	BYTE		N04   
	BYTE	W09
	BYTE		N17     An2 
	BYTE	W24
	BYTE	W02
	BYTE		N09     As2   v096
	BYTE	W04
// 020   ----------------------------------------
	BYTE	W13
	BYTE		N04     As2   v092
	BYTE	W09
	BYTE		N18     An2 
	BYTE	W18
	BYTE		N17     En2   v096
	BYTE	W24
	BYTE	W02
	BYTE		N09     Fn2   v092
	BYTE	W17
	BYTE		N08   
	BYTE	W13
// 021   ----------------------------------------
	BYTE	W05
	BYTE		N04     Fn2   v088
	BYTE	W09
	BYTE		N17     En2   v096
	BYTE	W24
	BYTE	W02
	BYTE		N09     Fn2 
	BYTE	W17
	BYTE		N08   
	BYTE	W18
	BYTE		N04     Fn2   v092
	BYTE	W09
	BYTE		N17     En2   v096
	BYTE	W12
// 022   ----------------------------------------
	BYTE	W14
	BYTE		N09     Fn2 
	BYTE	W17
	BYTE		N08   
	BYTE	W18
	BYTE		N04     Fn2   v092
	BYTE	W09
	BYTE		N17     En2 
	BYTE	W24
	BYTE	W02
	BYTE		N09     Fn2 
	BYTE	W12
// 023   ----------------------------------------
	BYTE	W05
	BYTE		N08     En2 
	BYTE	W18
	BYTE		N09     Dn2 
	BYTE	W09
	BYTE		N17     En2   v096
	BYTE	W24
	BYTE	W02
	BYTE		N09     Fn2 
	BYTE	W17
	BYTE		N08     Fn2   v092
	BYTE	W18
	BYTE		N04     Fn2   v088
	BYTE	W03
// 024   ----------------------------------------
	BYTE	W06
	BYTE		N17     En2   v092
	BYTE	W24
	BYTE	W02
	BYTE		N09     Fn2   v096
	BYTE	W17
	BYTE		N08     Fn2   v092
	BYTE	W18
	BYTE		N04     Fn2   v088
	BYTE	W09
	BYTE		N17     En2   v092
	BYTE	W20
// 025   ----------------------------------------
	BYTE	W06
	BYTE		N09     Fn2   v096
	BYTE	W17
	BYTE		N08     Fn2   v088
	BYTE	W18
	BYTE		N04   
	BYTE	W09
	BYTE		N17     En2   v092
	BYTE	W24
	BYTE	W02
	BYTE		N09     Fn2   v100
	BYTE	W17
	BYTE		N08     Fn2   v088
	BYTE	W03
// 026   ----------------------------------------
	BYTE	W15
	BYTE		N04     Fn2   v092
	BYTE	W09
	BYTE		N17     En2   v088
	BYTE	W24
	BYTE	W02
	BYTE		N09     Fn2   v092
	BYTE	W17
	BYTE		N08     Fn2   v096
	BYTE	W18
	BYTE		N04     Fn2   v088
	BYTE	W09
	BYTE		N17     En2 
	BYTE	W02
// 027   ----------------------------------------
	BYTE	W24
	BYTE		N09     Fn2   v092
	BYTE	W17
	BYTE		N08   
	BYTE	W18
	BYTE		N04   
	BYTE	W09
	BYTE		N17     En2 
	BYTE	W24
	BYTE	W02
	BYTE		N09     Fn2   v096
	BYTE	W02
// 028   ----------------------------------------
	BYTE	W15
	BYTE		N08     Fn2   v092
	BYTE	W18
	BYTE		N04   
	BYTE	W09
	BYTE		N17     En2 
	BYTE	W24
	BYTE	W02
	BYTE		N09     Fn2   v096
	BYTE	W17
	BYTE		N04     Fn2   v092
	BYTE	W09
	BYTE		N18     En2 
	BYTE	W02
// 029   ----------------------------------------
	BYTE	W16
	BYTE		N17     An2 
	BYTE	W24
	BYTE	W02
	BYTE		N09     As2 
	BYTE	W17
	BYTE		N08     As2   v096
	BYTE	W18
	BYTE		N04     As2   v092
	BYTE	W09
	BYTE		N17     An2 
	BYTE	W10
// 030   ----------------------------------------
	BYTE	W16
	BYTE		N09     As2 
	BYTE	W17
	BYTE		N08   
	BYTE	W18
	BYTE		N04   
	BYTE	W09
	BYTE		N17     An2 
	BYTE	W24
	BYTE	W02
	BYTE		N09     As2   v100
	BYTE	W10
// 031   ----------------------------------------
	BYTE	W07
	BYTE		N08     As2   v096
	BYTE	W18
	BYTE		N04     As2   v100
	BYTE	W09
	BYTE		N17     An2   v092
	BYTE	W24
	BYTE	W02
	BYTE		N09     As2 
	BYTE	W17
	BYTE		N04   
	BYTE	W09
	BYTE		N18     An2   v088
	BYTE	W10
// 032   ----------------------------------------
	BYTE	W08
	BYTE		N17     En2 
	BYTE	W24
	BYTE	W02
	BYTE		N09     Fn2   v096
	BYTE	W17
	BYTE		N08     Fn2   v092
	BYTE	W18
	BYTE		N04     Fn2   v088
	BYTE	W09
	BYTE		N17     En2 
	BYTE	W18
// 033   ----------------------------------------
	BYTE	W08
	BYTE		N09     Fn2   v096
	BYTE	W17
	BYTE		N08   
	BYTE	W18
	BYTE		N04     Fn2   v088
	BYTE	W09
	BYTE		N17     En2   v092
	BYTE	W24
	BYTE	W02
	BYTE		N09     Fn2 
	BYTE	W17
	BYTE		N08   
	BYTE	W01
// 034   ----------------------------------------
	BYTE	W17
	BYTE		N04   
	BYTE	W09
	BYTE		N17     En2   v088
	BYTE	W24
	BYTE	W02
	BYTE		N09     Fn2   v092
	BYTE	W17
	BYTE		N04   
	BYTE	W09
	BYTE		N18     En2   v088
	BYTE	W18
// 035   ----------------------------------------
	BYTE		N17     Bn2   v096
	BYTE	W24
	BYTE	W02
	BYTE		N09     Cn3   v092
	BYTE	W17
	BYTE		N08   
	BYTE	W18
	BYTE		N04   
	BYTE	W09
	BYTE		N17     Bn2   v096
	BYTE	W24
	BYTE	W02
// 036   ----------------------------------------
	BYTE		N09     Cn3 
	BYTE	W17
	BYTE		N04     Cn3   v092
	BYTE	W09
	BYTE		N18     Bn2   v088
	BYTE	W18
	BYTE		N17     An2   v092
	BYTE	W24
	BYTE	W02
	BYTE		N09     As2   v096
	BYTE	W17
	BYTE		N08     As2   v092
	BYTE	W09
// 037   ----------------------------------------
	BYTE	W09
	BYTE		N04   
	BYTE	W09
	BYTE		N17     An2 
	BYTE	W24
	BYTE	W02
	BYTE		N09     As2   v096
	BYTE	W17
	BYTE		N04     As2   v092
	BYTE	W09
	BYTE		N18     An2 
	BYTE	W18
	BYTE		N17     En2   v096
	BYTE	W08
// 038   ----------------------------------------
	BYTE	W18
	BYTE		N09     Fn2   v092
	BYTE	W17
	BYTE		N08   
	BYTE	W18
	BYTE		N04     Fn2   v088
	BYTE	W09
	BYTE		N17     En2   v096
	BYTE	W24
	BYTE	W02
	BYTE		N09     Fn2 
	BYTE	W08
// 039   ----------------------------------------
	BYTE	W09
	BYTE		N08   
	BYTE	W18
	BYTE		N04     Fn2   v092
	BYTE	W09
	BYTE		N17     En2   v096
	BYTE	W24
	BYTE	W02
	BYTE		N09     Fn2 
	BYTE	W17
	BYTE		N08   
	BYTE	W17
// 040   ----------------------------------------
	BYTE	W01
	BYTE		N04     Fn2   v092
	BYTE	W09
	BYTE		N17     En2 
	BYTE	W24
	BYTE	W02
	BYTE		N09     Fn2 
	BYTE	W17
	BYTE		N08     En2 
	BYTE	W18
	BYTE		N09     Dn2 
	BYTE	W09
	BYTE	GoTo
	 POIN2	OnTheHunt_5_B1
OnTheHunt_5_B2:
	BYTE	FINE

//**************** Track 6 (Midi-Chn.6) ****************//

OnTheHunt_6:
	BYTE	KEYSH   OnTheHunt_key+0
// 000   ----------------------------------------
	BYTE		VOICE   33
	BYTE		VOL     79*OnTheHunt_mvl/mxv
	BYTE		PAN     c_v+0
	BYTE	W96
// 001   ----------------------------------------
	BYTE	W96
// 002   ----------------------------------------
	BYTE	W96
// 003   ----------------------------------------
	BYTE	W96
// 004   ----------------------------------------
	BYTE	W96
// 005   ----------------------------------------
	BYTE	W80
OnTheHunt_6_B1:
	BYTE		N30     En1   v127
	BYTE	W16
// 006   ----------------------------------------
	BYTE	W19
	BYTE		N24     Fn1   v120
	BYTE	W32
	BYTE	W03
	BYTE		N28     En1   v127
	BYTE	W32
	BYTE	W03
	BYTE		N10     Fn1 
	BYTE	W07
// 007   ----------------------------------------
	BYTE	W10
	BYTE		N09     Dn1   v120
	BYTE	W18
	BYTE		N24     En1   v127
	BYTE	W32
	BYTE	W03
	BYTE		        Fn1 
	BYTE	W32
	BYTE	W01
// 008   ----------------------------------------
	BYTE	W02
	BYTE		        En1 
	BYTE	W32
	BYTE	W03
	BYTE		N07     Fn1   v116
	BYTE	W17
	BYTE		N08     Dn1   v120
	BYTE	W18
	BYTE		N24     En1   v100
	BYTE	W24
// 009   ----------------------------------------
	BYTE	W11
	BYTE		        Fn1   v124
	BYTE	W32
	BYTE	W03
	BYTE		        En1 
	BYTE	W32
	BYTE	W03
	BYTE		N08     Fn1   v120
	BYTE	W15
// 010   ----------------------------------------
	BYTE	W02
	BYTE		N07     Dn1   v112
	BYTE	W18
	BYTE		N24     En1   v127
	BYTE	W32
	BYTE	W03
	BYTE		        Fn1   v120
	BYTE	W32
	BYTE	W03
	BYTE		        En1   v124
	BYTE	W06
// 011   ----------------------------------------
	BYTE	W28
	BYTE	W01
	BYTE		N07     Fn1 
	BYTE	W17
	BYTE		N06     En1   v127
	BYTE	W18
	BYTE		N30     An1 
	BYTE	W32
// 012   ----------------------------------------
	BYTE	W03
	BYTE		N24     As1   v120
	BYTE	W32
	BYTE	W03
	BYTE		N28     An1   v127
	BYTE	W32
	BYTE	W03
	BYTE		N10     As1 
	BYTE	W17
	BYTE		N09     Gn1   v120
	BYTE	W06
// 013   ----------------------------------------
	BYTE	W12
	BYTE		N24     An1   v127
	BYTE	W32
	BYTE	W03
	BYTE		        As1 
	BYTE	W32
	BYTE	W03
	BYTE		        An1 
	BYTE	W14
// 014   ----------------------------------------
	BYTE	W21
	BYTE		N07     As1   v116
	BYTE	W17
	BYTE		N08     Gn1   v120
	BYTE	W18
	BYTE		N30     En1   v127
	BYTE	W32
	BYTE	W03
	BYTE		N24     Fn1   v120
	BYTE	W05
// 015   ----------------------------------------
	BYTE	W30
	BYTE		N28     En1   v127
	BYTE	W32
	BYTE	W03
	BYTE		N10     Fn1 
	BYTE	W17
	BYTE		N09     Dn1   v120
	BYTE	W14
// 016   ----------------------------------------
	BYTE	W04
	BYTE		N24     En1   v127
	BYTE	W32
	BYTE	W03
	BYTE		        Fn1 
	BYTE	W32
	BYTE	W03
	BYTE		        En1 
	BYTE	W22
// 017   ----------------------------------------
	BYTE	W13
	BYTE		N07     Fn1   v116
	BYTE	W17
	BYTE		N08     Dn1   v120
	BYTE	W18
	BYTE		N30     Bn1   v127
	BYTE	W32
	BYTE	W03
	BYTE		N24     Cn2   v120
	BYTE	W13
// 018   ----------------------------------------
	BYTE	W22
	BYTE		N28     Bn1   v127
	BYTE	W32
	BYTE	W03
	BYTE		N10     Cn2 
	BYTE	W17
	BYTE		N09     Bn1   v120
	BYTE	W18
	BYTE		N30     An1   v127
	BYTE	W04
// 019   ----------------------------------------
	BYTE	W30
	BYTE	W01
	BYTE		N24     As1   v120
	BYTE	W32
	BYTE	W03
	BYTE		N28     An1   v127
	BYTE	W30
// 020   ----------------------------------------
	BYTE	W05
	BYTE		N10     As1 
	BYTE	W17
	BYTE		N09     An1   v120
	BYTE	W18
	BYTE		N30     En1   v127
	BYTE	W32
	BYTE	W03
	BYTE		N24     Fn1   v120
	BYTE	W21
// 021   ----------------------------------------
	BYTE	W14
	BYTE		N28     En1   v127
	BYTE	W32
	BYTE	W03
	BYTE		N10     Fn1 
	BYTE	W17
	BYTE		N09     Dn1   v120
	BYTE	W18
	BYTE		N24     En1   v127
	BYTE	W12
// 022   ----------------------------------------
	BYTE	W23
	BYTE		        Fn1 
	BYTE	W32
	BYTE	W03
	BYTE		        En1 
	BYTE	W32
	BYTE	W03
	BYTE		N07     Dn1   v116
	BYTE	W03
// 023   ----------------------------------------
	BYTE	W14
	BYTE		N08     Fn1   v120
	BYTE	W18
	BYTE		N30     En1   v127
	BYTE	W32
	BYTE	W03
	BYTE		N24     Dn1   v120
	BYTE	W28
	BYTE	W01
// 024   ----------------------------------------
	BYTE	W06
	BYTE		N28     En1   v127
	BYTE	W32
	BYTE	W03
	BYTE		N10     Fn1 
	BYTE	W17
	BYTE		N09     Dn1   v120
	BYTE	W18
	BYTE		N24     En1   v127
	BYTE	W20
// 025   ----------------------------------------
	BYTE	W15
	BYTE		        Dn1 
	BYTE	W32
	BYTE	W03
	BYTE		        En1 
	BYTE	W32
	BYTE	W03
	BYTE		N07     Fn1   v116
	BYTE	W11
// 026   ----------------------------------------
	BYTE	W06
	BYTE		N08     Dn1   v120
	BYTE	W18
	BYTE		N24     En1   v100
	BYTE	W32
	BYTE	W03
	BYTE		        Dn1   v124
	BYTE	W32
	BYTE	W03
	BYTE		        En1 
	BYTE	W02
// 027   ----------------------------------------
	BYTE	W32
	BYTE	W01
	BYTE		N08     Fn1   v120
	BYTE	W17
	BYTE		N07     Dn1   v112
	BYTE	W18
	BYTE		N24     En1   v127
	BYTE	W28
// 028   ----------------------------------------
	BYTE	W07
	BYTE		        Dn1   v120
	BYTE	W32
	BYTE	W03
	BYTE		        En1   v124
	BYTE	W32
	BYTE	W03
	BYTE		N07     Fn1 
	BYTE	W17
	BYTE		N06     En1   v127
	BYTE	W02
// 029   ----------------------------------------
	BYTE	W16
	BYTE		N30     An1 
	BYTE	W32
	BYTE	W03
	BYTE		N24     Gn1   v120
	BYTE	W32
	BYTE	W03
	BYTE		N28     An1   v127
	BYTE	W10
// 030   ----------------------------------------
	BYTE	W24
	BYTE	W01
	BYTE		N10     As1 
	BYTE	W17
	BYTE		N09     Gn1   v120
	BYTE	W18
	BYTE		N24     An1   v127
	BYTE	W32
	BYTE	W03
	BYTE		        Gn1 
	BYTE	W01
// 031   ----------------------------------------
	BYTE	W32
	BYTE	W02
	BYTE		        An1 
	BYTE	W32
	BYTE	W03
	BYTE		N07     As1   v116
	BYTE	W17
	BYTE		N08     An1   v120
	BYTE	W10
// 032   ----------------------------------------
	BYTE	W08
	BYTE		N30     En1   v127
	BYTE	W32
	BYTE	W03
	BYTE		N24     Dn1   v120
	BYTE	W32
	BYTE	W03
	BYTE		N28     En1   v127
	BYTE	W18
// 033   ----------------------------------------
	BYTE	W17
	BYTE		N10     Fn1 
	BYTE	W17
	BYTE		N09     Dn1   v120
	BYTE	W18
	BYTE		N24     En1   v127
	BYTE	W32
	BYTE	W03
	BYTE		        Dn1 
	BYTE	W09
// 034   ----------------------------------------
	BYTE	W24
	BYTE	W02
	BYTE		        En1 
	BYTE	W32
	BYTE	W03
	BYTE		N07     Fn1   v116
	BYTE	W17
	BYTE		N08     En1   v120
	BYTE	W18
// 035   ----------------------------------------
	BYTE		N30     Bn1   v127
	BYTE	W32
	BYTE	W03
	BYTE		N24     An1   v120
	BYTE	W32
	BYTE	W03
	BYTE		N28     Bn1   v127
	BYTE	W24
	BYTE	W02
// 036   ----------------------------------------
	BYTE	W09
	BYTE		N10     Cn2 
	BYTE	W17
	BYTE		N09     Bn1   v120
	BYTE	W18
	BYTE		N30     An1   v127
	BYTE	W32
	BYTE	W03
	BYTE		N24     Gn1   v120
	BYTE	W17
// 037   ----------------------------------------
	BYTE	W18
	BYTE		N28     An1   v127
	BYTE	W32
	BYTE	W03
	BYTE		N10     As1 
	BYTE	W17
	BYTE		N09     An1   v120
	BYTE	W18
	BYTE		N30     En1   v127
	BYTE	W08
// 038   ----------------------------------------
	BYTE	W24
	BYTE	W03
	BYTE		N24     Dn1   v120
	BYTE	W32
	BYTE	W03
	BYTE		N28     En1   v127
	BYTE	W32
	BYTE	W02
// 039   ----------------------------------------
	BYTE	W01
	BYTE		N10     Fn1 
	BYTE	W17
	BYTE		N09     Dn1   v120
	BYTE	W18
	BYTE		N24     En1   v127
	BYTE	W32
	BYTE	W03
	BYTE		        Dn1 
	BYTE	W24
	BYTE	W01
// 040   ----------------------------------------
	BYTE	W10
	BYTE		        En1 
	BYTE	W32
	BYTE	W03
	BYTE		N07     Fn1   v116
	BYTE	W17
	BYTE		N08     Dn1   v120
	BYTE	W18
	BYTE	GoTo
	 POIN2	OnTheHunt_6_B1
OnTheHunt_6_B2:
	BYTE	FINE

//**************** Track 7 (Midi-Chn.7) ****************//

OnTheHunt_7:
	BYTE	KEYSH   OnTheHunt_key+0
// 000   ----------------------------------------
	BYTE		VOICE   108
	BYTE		VOL     76*OnTheHunt_mvl/mxv
	BYTE		PAN     c_v+11
	BYTE	W96
// 001   ----------------------------------------
	BYTE	W96
// 002   ----------------------------------------
	BYTE	W96
// 003   ----------------------------------------
	BYTE	W96
// 004   ----------------------------------------
	BYTE	W96
// 005   ----------------------------------------
	BYTE	W80
OnTheHunt_7_B1:
	BYTE		N08     Bn4   v068
	BYTE	W08
	BYTE		        Cn5 
	BYTE	W08
// 006   ----------------------------------------
	BYTE	W01
	BYTE		N09     Bn4   v060
	BYTE	W09
	BYTE		        Cn5 
	BYTE	W09
	BYTE		N08     Bn4 
	BYTE	W08
	BYTE		        Cn5   v056
	BYTE	W09
	BYTE		N09     Bn4   v068
	BYTE	W09
	BYTE		        Cn5   v048
	BYTE	W09
	BYTE		N08     Bn4   v060
	BYTE	W08
	BYTE		        Cn5   v048
	BYTE	W09
	BYTE		N09     Bn4   v056
	BYTE	W09
	BYTE		        Cn5   v060
	BYTE	W09
	BYTE		N08     Bn4   v056
	BYTE	W07
// 007   ----------------------------------------
	BYTE	W01
	BYTE		        Cn5   v076
	BYTE	W09
	BYTE		N09     Bn4   v060
	BYTE	W09
	BYTE		        Cn5 
	BYTE	W09
	BYTE		N08     Bn4   v076
	BYTE	W08
	BYTE		        Cn5 
	BYTE	W09
	BYTE		N09     Bn4   v068
	BYTE	W09
	BYTE		        Cn5   v076
	BYTE	W09
	BYTE		N08     Bn4 
	BYTE	W08
	BYTE		        Cn5   v060
	BYTE	W09
	BYTE		N09     Bn4   v056
	BYTE	W09
	BYTE		        Cn5   v048
	BYTE	W07
// 008   ----------------------------------------
	BYTE	W02
	BYTE		N08     Bn4   v060
	BYTE	W08
	BYTE		        Cn5   v068
	BYTE	W09
	BYTE		N09     Bn4   v060
	BYTE	W09
	BYTE		        Cn5   v068
	BYTE	W09
	BYTE		N08     Bn4   v060
	BYTE	W08
	BYTE		        Cn5 
	BYTE	W09
	BYTE		N09     Bn4   v068
	BYTE	W09
	BYTE		        Cn5 
	BYTE	W09
	BYTE		N08     Bn4   v060
	BYTE	W08
	BYTE		        Cn5 
	BYTE	W09
	BYTE		N09     Bn4   v068
	BYTE	W07
// 009   ----------------------------------------
	BYTE	W02
	BYTE		        Cn5 
	BYTE	W09
	BYTE		N08     Bn4   v076
	BYTE	W08
	BYTE		        Cn5   v060
	BYTE	W09
	BYTE		N09     Bn4   v068
	BYTE	W09
	BYTE		        Cn5 
	BYTE	W09
	BYTE		N08     Bn4   v064
	BYTE	W08
	BYTE		        Cn5   v056
	BYTE	W09
	BYTE		N09     Bn4   v076
	BYTE	W09
	BYTE		        Cn5   v056
	BYTE	W09
	BYTE		N08     Bn4   v076
	BYTE	W08
	BYTE		        Cn5   v060
	BYTE	W07
// 010   ----------------------------------------
	BYTE	W02
	BYTE		N09     Bn4   v068
	BYTE	W09
	BYTE		        Cn5 
	BYTE	W09
	BYTE		N08     Bn4 
	BYTE	W08
	BYTE		        Cn5 
	BYTE	W09
	BYTE		N09     Bn4   v060
	BYTE	W09
	BYTE		        Cn5   v056
	BYTE	W09
	BYTE		N08     Bn4   v068
	BYTE	W08
	BYTE		        Cn5   v060
	BYTE	W09
	BYTE		N09     Bn4   v080
	BYTE	W09
	BYTE		        Cn5   v060
	BYTE	W09
	BYTE		N08     Bn4   v064
	BYTE	W06
// 011   ----------------------------------------
	BYTE	W02
	BYTE		        Cn5   v060
	BYTE	W09
	BYTE		N09     Bn4   v076
	BYTE	W09
	BYTE		        Cn5   v056
	BYTE	W09
	BYTE		N08     Bn4   v068
	BYTE	W08
	BYTE		        Cn5 
	BYTE	W09
	BYTE		N09     Bn4   v060
	BYTE	W09
	BYTE		        Cn5   v076
	BYTE	W09
	BYTE		N08     En5   v068
	BYTE	W08
	BYTE		        Fn5 
	BYTE	W09
	BYTE		N09     En5   v060
	BYTE	W09
	BYTE		        Fn5 
	BYTE	W06
// 012   ----------------------------------------
	BYTE	W03
	BYTE		N08     En5 
	BYTE	W08
	BYTE		        Fn5   v056
	BYTE	W09
	BYTE		N09     En5   v068
	BYTE	W09
	BYTE		        Fn5   v048
	BYTE	W09
	BYTE		N08     En5   v060
	BYTE	W08
	BYTE		        Fn5   v048
	BYTE	W09
	BYTE		N09     En5   v056
	BYTE	W09
	BYTE		        Fn5   v060
	BYTE	W09
	BYTE		N08     En5   v056
	BYTE	W08
	BYTE		        Fn5   v076
	BYTE	W09
	BYTE		N09     En5   v060
	BYTE	W06
// 013   ----------------------------------------
	BYTE	W03
	BYTE		        Fn5 
	BYTE	W09
	BYTE		N08     En5   v076
	BYTE	W08
	BYTE		        Fn5 
	BYTE	W09
	BYTE		N09     En5   v068
	BYTE	W09
	BYTE		        Fn5   v076
	BYTE	W09
	BYTE		N08     En5 
	BYTE	W08
	BYTE		        Fn5   v060
	BYTE	W09
	BYTE		N09     En5   v056
	BYTE	W09
	BYTE		        Fn5   v048
	BYTE	W09
	BYTE		N08     En5   v060
	BYTE	W08
	BYTE		        Fn5   v068
	BYTE	W06
// 014   ----------------------------------------
	BYTE	W03
	BYTE		N09     En5   v060
	BYTE	W09
	BYTE		        Fn5   v068
	BYTE	W09
	BYTE		N08     En5   v060
	BYTE	W08
	BYTE		        Fn5 
	BYTE	W09
	BYTE		N09     En5   v068
	BYTE	W09
	BYTE		        Fn5 
	BYTE	W09
	BYTE		N08     Bn4 
	BYTE	W08
	BYTE		        Cn5 
	BYTE	W09
	BYTE		N09     Bn4   v060
	BYTE	W09
	BYTE		        Cn5 
	BYTE	W09
	BYTE		N08     Bn4 
	BYTE	W05
// 015   ----------------------------------------
	BYTE	W03
	BYTE		        Cn5   v056
	BYTE	W09
	BYTE		N09     Bn4   v068
	BYTE	W09
	BYTE		        Cn5   v048
	BYTE	W09
	BYTE		N08     Bn4   v060
	BYTE	W08
	BYTE		        Cn5   v048
	BYTE	W09
	BYTE		N09     Bn4   v056
	BYTE	W09
	BYTE		        Cn5   v060
	BYTE	W09
	BYTE		N08     Bn4   v056
	BYTE	W08
	BYTE		        Cn5   v076
	BYTE	W09
	BYTE		N09     Bn4   v060
	BYTE	W09
	BYTE		        Cn5 
	BYTE	W05
// 016   ----------------------------------------
	BYTE	W04
	BYTE		N08     Bn4   v076
	BYTE	W08
	BYTE		        Cn5 
	BYTE	W09
	BYTE		N09     Bn4   v068
	BYTE	W09
	BYTE		        Cn5   v076
	BYTE	W09
	BYTE		N08     Bn4 
	BYTE	W08
	BYTE		        Cn5   v060
	BYTE	W09
	BYTE		N09     Bn4   v056
	BYTE	W09
	BYTE		        Cn5   v048
	BYTE	W09
	BYTE		N08     Bn4   v060
	BYTE	W08
	BYTE		        Cn5   v068
	BYTE	W09
	BYTE		N09     Bn4   v060
	BYTE	W05
// 017   ----------------------------------------
	BYTE	W04
	BYTE		        Cn5   v068
	BYTE	W09
	BYTE		N08     Bn4   v060
	BYTE	W08
	BYTE		        Cn5 
	BYTE	W09
	BYTE		N09     Bn4   v068
	BYTE	W09
	BYTE		        Cn5 
	BYTE	W09
	BYTE		N08     Fs4 
	BYTE	W08
	BYTE		        Gn4 
	BYTE	W09
	BYTE		N09     Fs4   v060
	BYTE	W09
	BYTE		        Gn4 
	BYTE	W09
	BYTE		N08     Fs4 
	BYTE	W08
	BYTE		        Gn4   v056
	BYTE	W05
// 018   ----------------------------------------
	BYTE	W04
	BYTE		N09     Fs4   v068
	BYTE	W09
	BYTE		        Gn4   v048
	BYTE	W09
	BYTE		N08     Fs4   v060
	BYTE	W08
	BYTE		        Gn4   v048
	BYTE	W09
	BYTE		N09     Fs4   v056
	BYTE	W09
	BYTE		        Gn4   v060
	BYTE	W09
	BYTE		N08     Fs4   v056
	BYTE	W08
	BYTE		        Gn4   v076
	BYTE	W09
	BYTE		N09     Fs4   v060
	BYTE	W09
	BYTE		        Gn4 
	BYTE	W09
	BYTE		N08     En4   v068
	BYTE	W04
// 019   ----------------------------------------
	BYTE	W04
	BYTE		        Fn4 
	BYTE	W09
	BYTE		N09     En4   v060
	BYTE	W09
	BYTE		        Fn4 
	BYTE	W09
	BYTE		N08     En4 
	BYTE	W08
	BYTE		        Fn4   v056
	BYTE	W09
	BYTE		N09     En4   v068
	BYTE	W09
	BYTE		        Fn4   v048
	BYTE	W09
	BYTE		N08     En4   v060
	BYTE	W08
	BYTE		        Fn4   v048
	BYTE	W09
	BYTE		N09     En4   v056
	BYTE	W09
	BYTE		        Fn4   v060
	BYTE	W04
// 020   ----------------------------------------
	BYTE	W05
	BYTE		N08     En4   v056
	BYTE	W08
	BYTE		        Fn4   v076
	BYTE	W09
	BYTE		N09     En4   v060
	BYTE	W09
	BYTE		        Fn4 
	BYTE	W09
	BYTE		N08     Bn4   v068
	BYTE	W08
	BYTE		        Cn5 
	BYTE	W09
	BYTE		N09     Bn4   v060
	BYTE	W09
	BYTE		        Cn5 
	BYTE	W09
	BYTE		N08     Bn4 
	BYTE	W08
	BYTE		        Cn5   v056
	BYTE	W09
	BYTE		N09     Bn4   v068
	BYTE	W04
// 021   ----------------------------------------
	BYTE	W05
	BYTE		        Cn5   v048
	BYTE	W09
	BYTE		N08     Bn4   v060
	BYTE	W08
	BYTE		        Cn5   v048
	BYTE	W09
	BYTE		N09     Bn4   v056
	BYTE	W09
	BYTE		        Cn5   v060
	BYTE	W09
	BYTE		N08     Bn4   v056
	BYTE	W08
	BYTE		        Cn5   v076
	BYTE	W09
	BYTE		N09     Bn4   v060
	BYTE	W09
	BYTE		        Cn5 
	BYTE	W09
	BYTE		N08     Bn4   v076
	BYTE	W08
	BYTE		        Cn5 
	BYTE	W04
// 022   ----------------------------------------
	BYTE	W05
	BYTE		N09     Bn4   v068
	BYTE	W09
	BYTE		        Cn5   v076
	BYTE	W09
	BYTE		N08     Bn4 
	BYTE	W08
	BYTE		        Cn5   v060
	BYTE	W09
	BYTE		N09     Bn4   v056
	BYTE	W09
	BYTE		        Cn5   v048
	BYTE	W09
	BYTE		N08     Bn4   v060
	BYTE	W08
	BYTE		        Cn5   v068
	BYTE	W09
	BYTE		N09     Bn4   v060
	BYTE	W09
	BYTE		        Cn5   v068
	BYTE	W09
	BYTE		N08     Bn4   v060
	BYTE	W03
// 023   ----------------------------------------
	BYTE	W05
	BYTE		        Cn5 
	BYTE	W09
	BYTE		N09     Bn4   v068
	BYTE	W09
	BYTE		        Cn5 
	BYTE	W09
	BYTE		N08     Bn4 
	BYTE	W08
	BYTE		        Cn5 
	BYTE	W09
	BYTE		N09     Bn4   v060
	BYTE	W09
	BYTE		        Cn5 
	BYTE	W09
	BYTE		N08     Bn4 
	BYTE	W08
	BYTE		        Cn5   v056
	BYTE	W09
	BYTE		N09     Bn4   v068
	BYTE	W09
	BYTE		        Cn5   v048
	BYTE	W03
// 024   ----------------------------------------
	BYTE	W06
	BYTE		N08     Bn4   v060
	BYTE	W08
	BYTE		        Cn5   v048
	BYTE	W09
	BYTE		N09     Bn4   v056
	BYTE	W09
	BYTE		        Cn5   v060
	BYTE	W09
	BYTE		N08     Bn4   v056
	BYTE	W08
	BYTE		        Cn5   v076
	BYTE	W09
	BYTE		N09     Bn4   v060
	BYTE	W09
	BYTE		        Cn5 
	BYTE	W09
	BYTE		N08     Bn4   v076
	BYTE	W08
	BYTE		        Cn5 
	BYTE	W09
	BYTE		N09     Bn4   v068
	BYTE	W03
// 025   ----------------------------------------
	BYTE	W06
	BYTE		        Cn5   v076
	BYTE	W09
	BYTE		N08     Bn4 
	BYTE	W08
	BYTE		        Cn5   v060
	BYTE	W09
	BYTE		N09     Bn4   v056
	BYTE	W09
	BYTE		        Cn5   v048
	BYTE	W09
	BYTE		N08     Bn4   v060
	BYTE	W08
	BYTE		        Cn5   v068
	BYTE	W09
	BYTE		N09     Bn4   v060
	BYTE	W09
	BYTE		        Cn5   v068
	BYTE	W09
	BYTE		N08     Bn4   v060
	BYTE	W08
	BYTE		        Cn5 
	BYTE	W03
// 026   ----------------------------------------
	BYTE	W06
	BYTE		N09     Bn4   v068
	BYTE	W09
	BYTE		        Cn5 
	BYTE	W09
	BYTE		N08     Bn4   v060
	BYTE	W08
	BYTE		        Cn5 
	BYTE	W09
	BYTE		N09     Bn4   v068
	BYTE	W09
	BYTE		        Cn5 
	BYTE	W09
	BYTE		N08     Bn4   v076
	BYTE	W08
	BYTE		        Cn5   v060
	BYTE	W09
	BYTE		N09     Bn4   v068
	BYTE	W09
	BYTE		        Cn5 
	BYTE	W09
	BYTE		N08     Bn4   v064
	BYTE	W02
// 027   ----------------------------------------
	BYTE	W06
	BYTE		        Cn5   v056
	BYTE	W09
	BYTE		N09     Bn4   v076
	BYTE	W09
	BYTE		        Cn5   v056
	BYTE	W09
	BYTE		N08     Bn4   v076
	BYTE	W08
	BYTE		        Cn5   v060
	BYTE	W09
	BYTE		N09     Bn4   v068
	BYTE	W09
	BYTE		        Cn5 
	BYTE	W09
	BYTE		N08     Bn4 
	BYTE	W08
	BYTE		        Cn5 
	BYTE	W09
	BYTE		N09     Bn4   v060
	BYTE	W09
	BYTE		        Cn5   v056
	BYTE	W02
// 028   ----------------------------------------
	BYTE	W07
	BYTE		N08     Bn4   v068
	BYTE	W08
	BYTE		        Cn5   v060
	BYTE	W09
	BYTE		N09     Bn4   v080
	BYTE	W09
	BYTE		        Cn5   v060
	BYTE	W09
	BYTE		N08     Bn4   v064
	BYTE	W08
	BYTE		        Cn5   v060
	BYTE	W09
	BYTE		N09     Bn4   v076
	BYTE	W09
	BYTE		        Cn5   v056
	BYTE	W09
	BYTE		N08     Bn4   v068
	BYTE	W08
	BYTE		        Cn5 
	BYTE	W09
	BYTE		N09     Bn4   v060
	BYTE	W02
// 029   ----------------------------------------
	BYTE	W07
	BYTE		        Cn5   v076
	BYTE	W09
	BYTE		N08     En5   v068
	BYTE	W08
	BYTE		        Fn5 
	BYTE	W09
	BYTE		N09     En5   v060
	BYTE	W09
	BYTE		        Fn5 
	BYTE	W09
	BYTE		N08     En5 
	BYTE	W08
	BYTE		        Fn5   v056
	BYTE	W09
	BYTE		N09     En5   v068
	BYTE	W09
	BYTE		        Fn5   v048
	BYTE	W09
	BYTE		N08     En5   v060
	BYTE	W08
	BYTE		        Fn5   v048
	BYTE	W02
// 030   ----------------------------------------
	BYTE	W07
	BYTE		N09     En5   v056
	BYTE	W09
	BYTE		        Fn5   v060
	BYTE	W09
	BYTE		N08     En5   v056
	BYTE	W08
	BYTE		        Fn5   v076
	BYTE	W09
	BYTE		N09     En5   v060
	BYTE	W09
	BYTE		        Fn5 
	BYTE	W09
	BYTE		N08     En5   v076
	BYTE	W08
	BYTE		        Fn5 
	BYTE	W09
	BYTE		N09     En5   v068
	BYTE	W09
	BYTE		        Fn5   v076
	BYTE	W09
	BYTE		N08     En5 
	BYTE	W01
// 031   ----------------------------------------
	BYTE	W07
	BYTE		        Fn5   v060
	BYTE	W09
	BYTE		N09     En5   v056
	BYTE	W09
	BYTE		        Fn5   v048
	BYTE	W09
	BYTE		N08     En5   v060
	BYTE	W08
	BYTE		        Fn5   v068
	BYTE	W09
	BYTE		N09     En5   v060
	BYTE	W09
	BYTE		        Fn5   v068
	BYTE	W09
	BYTE		N08     En5   v060
	BYTE	W08
	BYTE		        Fn5 
	BYTE	W09
	BYTE		N09     En5   v068
	BYTE	W09
	BYTE		        Fn5 
	BYTE	W01
// 032   ----------------------------------------
	BYTE	W08
	BYTE		N08     Bn4 
	BYTE	W08
	BYTE		        Cn5 
	BYTE	W09
	BYTE		N09     Bn4   v060
	BYTE	W09
	BYTE		        Cn5 
	BYTE	W09
	BYTE		N08     Bn4 
	BYTE	W08
	BYTE		        Cn5   v056
	BYTE	W09
	BYTE		N09     Bn4   v068
	BYTE	W09
	BYTE		        Cn5   v048
	BYTE	W09
	BYTE		N08     Bn4   v060
	BYTE	W08
	BYTE		        Cn5   v048
	BYTE	W09
	BYTE		N09     Bn4   v056
	BYTE	W01
// 033   ----------------------------------------
	BYTE	W08
	BYTE		        Cn5   v060
	BYTE	W09
	BYTE		N08     Bn4   v056
	BYTE	W08
	BYTE		        Cn5   v076
	BYTE	W09
	BYTE		N09     Bn4   v060
	BYTE	W09
	BYTE		        Cn5 
	BYTE	W09
	BYTE		N08     Bn4   v076
	BYTE	W08
	BYTE		        Cn5 
	BYTE	W09
	BYTE		N09     Bn4   v068
	BYTE	W09
	BYTE		        Cn5   v076
	BYTE	W09
	BYTE		N08     Bn4 
	BYTE	W08
	BYTE		        Cn5   v060
	BYTE	W01
// 034   ----------------------------------------
	BYTE	W08
	BYTE		N09     Bn4   v056
	BYTE	W09
	BYTE		        Cn5   v048
	BYTE	W09
	BYTE		N08     Bn4   v060
	BYTE	W08
	BYTE		        Cn5   v068
	BYTE	W09
	BYTE		N09     Bn4   v060
	BYTE	W09
	BYTE		        Cn5   v068
	BYTE	W09
	BYTE		N08     Bn4   v060
	BYTE	W08
	BYTE		        Cn5 
	BYTE	W09
	BYTE		N09     Bn4   v068
	BYTE	W09
	BYTE		        Cn5 
	BYTE	W09
// 035   ----------------------------------------
	BYTE		N08     Fs4 
	BYTE	W08
	BYTE		        Gn4 
	BYTE	W09
	BYTE		N09     Fs4   v060
	BYTE	W09
	BYTE		        Gn4 
	BYTE	W09
	BYTE		N08     Fs4 
	BYTE	W08
	BYTE		        Gn4   v056
	BYTE	W09
	BYTE		N09     Fs4   v068
	BYTE	W09
	BYTE		        Gn4   v048
	BYTE	W09
	BYTE		N08     Fs4   v060
	BYTE	W08
	BYTE		        Gn4   v048
	BYTE	W09
	BYTE		N09     Fs4   v056
	BYTE	W09
// 036   ----------------------------------------
	BYTE		        Gn4   v060
	BYTE	W09
	BYTE		N08     Fs4   v056
	BYTE	W08
	BYTE		        Gn4   v076
	BYTE	W09
	BYTE		N09     Fs4   v060
	BYTE	W09
	BYTE		        Gn4 
	BYTE	W09
	BYTE		N08     En4   v068
	BYTE	W08
	BYTE		        Fn4 
	BYTE	W09
	BYTE		N09     En4   v060
	BYTE	W09
	BYTE		        Fn4 
	BYTE	W09
	BYTE		N08     En4 
	BYTE	W08
	BYTE		        Fn4   v056
	BYTE	W09
// 037   ----------------------------------------
	BYTE		N09     En4   v068
	BYTE	W09
	BYTE		        Fn4   v048
	BYTE	W09
	BYTE		N08     En4   v060
	BYTE	W08
	BYTE		        Fn4   v048
	BYTE	W09
	BYTE		N09     En4   v056
	BYTE	W09
	BYTE		        Fn4   v060
	BYTE	W09
	BYTE		N08     En4   v056
	BYTE	W08
	BYTE		        Fn4   v076
	BYTE	W09
	BYTE		N09     En4   v060
	BYTE	W09
	BYTE		        Fn4 
	BYTE	W09
	BYTE		N08     Bn4   v068
	BYTE	W08
// 038   ----------------------------------------
	BYTE		        Cn5 
	BYTE	W09
	BYTE		N09     Bn4   v060
	BYTE	W09
	BYTE		        Cn5 
	BYTE	W09
	BYTE		N08     Bn4 
	BYTE	W08
	BYTE		        Cn5   v056
	BYTE	W09
	BYTE		N09     Bn4   v068
	BYTE	W09
	BYTE		        Cn5   v048
	BYTE	W09
	BYTE		N08     Bn4   v060
	BYTE	W08
	BYTE		        Cn5   v048
	BYTE	W09
	BYTE		N09     Bn4   v056
	BYTE	W09
	BYTE		        Cn5   v060
	BYTE	W08
// 039   ----------------------------------------
	BYTE	W01
	BYTE		N08     Bn4   v056
	BYTE	W08
	BYTE		        Cn5   v076
	BYTE	W09
	BYTE		N09     Bn4   v060
	BYTE	W09
	BYTE		        Cn5 
	BYTE	W09
	BYTE		N08     Bn4   v076
	BYTE	W08
	BYTE		        Cn5 
	BYTE	W09
	BYTE		N09     Bn4   v068
	BYTE	W09
	BYTE		        Cn5   v076
	BYTE	W09
	BYTE		N08     Bn4 
	BYTE	W08
	BYTE		        Cn5   v060
	BYTE	W09
	BYTE		N09     Bn4   v056
	BYTE	W08
// 040   ----------------------------------------
	BYTE	W01
	BYTE		        Cn5   v048
	BYTE	W09
	BYTE		N08     Bn4   v060
	BYTE	W08
	BYTE		        Cn5   v068
	BYTE	W09
	BYTE		N09     Bn4   v060
	BYTE	W09
	BYTE		        Cn5   v068
	BYTE	W09
	BYTE		N08     Bn4   v060
	BYTE	W08
	BYTE		        Cn5 
	BYTE	W09
	BYTE		N09     Bn4   v068
	BYTE	W09
	BYTE		        Cn5 
	BYTE	W09
	BYTE	GoTo
	 POIN2	OnTheHunt_7_B1
OnTheHunt_7_B2:
	BYTE	FINE

//**************** Track 8 (Midi-Chn.8) ****************//

OnTheHunt_8:
	BYTE	KEYSH   OnTheHunt_key+0
// 000   ----------------------------------------
	BYTE		VOICE   81
	BYTE		VOL     69*OnTheHunt_mvl/mxv
	BYTE		PAN     c_v+0
	BYTE	W96
// 001   ----------------------------------------
	BYTE	W96
// 002   ----------------------------------------
	BYTE	W96
// 003   ----------------------------------------
	BYTE	W96
// 004   ----------------------------------------
	BYTE	W96
// 005   ----------------------------------------
	BYTE	W80
OnTheHunt_8_B1:
	BYTE	W16
// 006   ----------------------------------------
	BYTE	W96
// 007   ----------------------------------------
	BYTE	W96
// 008   ----------------------------------------
	BYTE	W96
// 009   ----------------------------------------
	BYTE	W96
// 010   ----------------------------------------
	BYTE	W96
// 011   ----------------------------------------
	BYTE	W96
// 012   ----------------------------------------
	BYTE	W96
// 013   ----------------------------------------
	BYTE	W96
// 014   ----------------------------------------
	BYTE	W96
// 015   ----------------------------------------
	BYTE	W96
// 016   ----------------------------------------
	BYTE	W96
// 017   ----------------------------------------
	BYTE	W96
// 018   ----------------------------------------
	BYTE	W96
// 019   ----------------------------------------
	BYTE	W96
// 020   ----------------------------------------
	BYTE	W96
// 021   ----------------------------------------
	BYTE	W96
// 022   ----------------------------------------
	BYTE	W96
// 023   ----------------------------------------
	BYTE	W32
	BYTE		N17     Gs3   v084
	BYTE	W24
	BYTE	W02
	BYTE		N09     An3 
	BYTE	W17
	BYTE		N08   
	BYTE	W18
	BYTE		N04   
	BYTE	W03
// 024   ----------------------------------------
	BYTE	W06
	BYTE		N17     Gs3 
	BYTE	W24
	BYTE	W02
	BYTE		N09     An3 
	BYTE	W17
	BYTE		N08   
	BYTE	W18
	BYTE		N04   
	BYTE	W09
	BYTE		N17     Gs3 
	BYTE	W20
// 025   ----------------------------------------
	BYTE	W06
	BYTE		N09     An3 
	BYTE	W17
	BYTE		N08   
	BYTE	W18
	BYTE		N04   
	BYTE	W09
	BYTE		N17     Gs3 
	BYTE	W24
	BYTE	W02
	BYTE		N09     An3 
	BYTE	W17
	BYTE		N08   
	BYTE	W03
// 026   ----------------------------------------
	BYTE	W15
	BYTE		N04   
	BYTE	W09
	BYTE		N17     Gs3 
	BYTE	W24
	BYTE	W02
	BYTE		N09     An3 
	BYTE	W17
	BYTE		N08   
	BYTE	W18
	BYTE		N04   
	BYTE	W09
	BYTE		N17     Gs3 
	BYTE	W02
// 027   ----------------------------------------
	BYTE	W24
	BYTE		N09     An3 
	BYTE	W17
	BYTE		N08   
	BYTE	W18
	BYTE		N04   
	BYTE	W09
	BYTE		N17     Gs3 
	BYTE	W24
	BYTE	W02
	BYTE		N09     An3 
	BYTE	W02
// 028   ----------------------------------------
	BYTE	W15
	BYTE		N08   
	BYTE	W18
	BYTE		N04   
	BYTE	W09
	BYTE		N17     Gs3 
	BYTE	W24
	BYTE	W02
	BYTE		N09     An3 
	BYTE	W17
	BYTE		N04   
	BYTE	W09
	BYTE		N18     Gs3 
	BYTE	W02
// 029   ----------------------------------------
	BYTE	W16
	BYTE		N17     Cs4 
	BYTE	W24
	BYTE	W02
	BYTE		N09     Dn4 
	BYTE	W17
	BYTE		N08   
	BYTE	W18
	BYTE		N04   
	BYTE	W09
	BYTE		N17     Cs4 
	BYTE	W10
// 030   ----------------------------------------
	BYTE	W16
	BYTE		N09     Dn4 
	BYTE	W17
	BYTE		N08   
	BYTE	W18
	BYTE		N04   
	BYTE	W09
	BYTE		N17     Cs4 
	BYTE	W24
	BYTE	W02
	BYTE		N09     Dn4 
	BYTE	W10
// 031   ----------------------------------------
	BYTE	W07
	BYTE		N08   
	BYTE	W18
	BYTE		N04   
	BYTE	W09
	BYTE		N17     Cs4 
	BYTE	W24
	BYTE	W02
	BYTE		N09     Dn4 
	BYTE	W17
	BYTE		N06   
	BYTE	W09
	BYTE		N18     Cs4 
	BYTE	W10
// 032   ----------------------------------------
	BYTE	W08
	BYTE		N17     Gs3 
	BYTE	W24
	BYTE	W02
	BYTE		N09     An3 
	BYTE	W17
	BYTE		N08   
	BYTE	W18
	BYTE		N04   
	BYTE	W09
	BYTE		N17     Gs3 
	BYTE	W18
// 033   ----------------------------------------
	BYTE	W08
	BYTE		N09     An3 
	BYTE	W17
	BYTE		N08   
	BYTE	W18
	BYTE		N04   
	BYTE	W09
	BYTE		N17     Gs3 
	BYTE	W24
	BYTE	W02
	BYTE		N09     An3 
	BYTE	W17
	BYTE		N08   
	BYTE	W01
// 034   ----------------------------------------
	BYTE	W17
	BYTE		N04   
	BYTE	W09
	BYTE		N17     Gs3 
	BYTE	W24
	BYTE	W02
	BYTE		N09     An3 
	BYTE	W17
	BYTE		N04   
	BYTE	W09
	BYTE		N18     Gs3 
	BYTE	W18
// 035   ----------------------------------------
	BYTE		N17     Ds4 
	BYTE	W24
	BYTE	W02
	BYTE		N09     En4 
	BYTE	W17
	BYTE		N08   
	BYTE	W18
	BYTE		N04   
	BYTE	W09
	BYTE		N17     Ds4 
	BYTE	W24
	BYTE	W02
// 036   ----------------------------------------
	BYTE		N09     En4 
	BYTE	W17
	BYTE		N04   
	BYTE	W09
	BYTE		N18     Ds4 
	BYTE	W18
	BYTE		N17     Cs4 
	BYTE	W24
	BYTE	W02
	BYTE		N09     Dn4 
	BYTE	W17
	BYTE		N08   
	BYTE	W09
// 037   ----------------------------------------
	BYTE	W09
	BYTE		N04   
	BYTE	W09
	BYTE		N17     Cs4 
	BYTE	W24
	BYTE	W02
	BYTE		N09     Dn4 
	BYTE	W17
	BYTE		N08   
	BYTE	W09
	BYTE		N18     Cs4 
	BYTE	W18
	BYTE		N17     Gs3 
	BYTE	W08
// 038   ----------------------------------------
	BYTE	W18
	BYTE		N09     An3 
	BYTE	W17
	BYTE		N08   
	BYTE	W18
	BYTE		N04   
	BYTE	W09
	BYTE		N17     Gs3 
	BYTE	W24
	BYTE	W02
	BYTE		N09     An3 
	BYTE	W08
// 039   ----------------------------------------
	BYTE	W09
	BYTE		N08   
	BYTE	W18
	BYTE		N04   
	BYTE	W09
	BYTE		N17     Gs3 
	BYTE	W24
	BYTE	W02
	BYTE		N09     An3 
	BYTE	W17
	BYTE		N08   
	BYTE	W17
// 040   ----------------------------------------
	BYTE	W01
	BYTE		N04   
	BYTE	W09
	BYTE		N17     Gs3 
	BYTE	W24
	BYTE	W02
	BYTE		N13     An3 
	BYTE	W17
	BYTE		        Gs3 
	BYTE	W18
	BYTE		N09     Fs3 
	BYTE	W09
	BYTE	GoTo
	 POIN2	OnTheHunt_8_B1
OnTheHunt_8_B2:
	BYTE	FINE

//**************** Track 9 (Midi-Chn.9) ****************//

OnTheHunt_9:
	BYTE	KEYSH   OnTheHunt_key+0
// 000   ----------------------------------------
	BYTE		VOICE   123
	BYTE		VOL     103*OnTheHunt_mvl/mxv
	BYTE		PAN     c_v+0
	BYTE	W96
// 001   ----------------------------------------
	BYTE	W96
// 002   ----------------------------------------
	BYTE	W96
// 003   ----------------------------------------
	BYTE	W96
// 004   ----------------------------------------
	BYTE	W36
	BYTE		N02     Cn1   v124
	BYTE		N01     Dn1   v072
	BYTE	W01
	BYTE		        Dn1   v092
	BYTE	W03
	BYTE		N02     Cn1   v116
	BYTE	W04
	BYTE		        Dn1   v088
	BYTE	W04
	BYTE		N01     Cn1   v104
	BYTE	W05
	BYTE		        Cn1   v127
	BYTE		N01     Dn1   v092
	BYTE	W04
	BYTE		N02     Dn1   v060
	BYTE	W05
	BYTE		N01     Dn1   v104
	BYTE	W04
	BYTE		N02     Cn1   v127
	BYTE		N02     An1   v112
	BYTE	W09
	BYTE		N01     Cn1   v127
	BYTE		N01     Gn1   v112
	BYTE	W04
	BYTE		        Cn2   v100
	BYTE	W04
	BYTE		        Cn1   v124
	BYTE		N02     Cn2   v080
	BYTE	W05
	BYTE		N01     Cn1   v112
	BYTE		N03     An1   v092
	BYTE	W04
	BYTE		N01     Cn1   v116
	BYTE		N04     Dn2   v112
	BYTE	W04
// 005   ----------------------------------------
	BYTE		N03     Bn1   v116
	BYTE	W04
	BYTE		N01     Cn1   v112
	BYTE	W01
	BYTE		N02     Cn2   v116
	BYTE	W04
	BYTE		N01     Cn1   v112
	BYTE		N02     An1   v104
	BYTE	W04
	BYTE		        Cn1   v124
	BYTE	W05
	BYTE		N08     Bn1   v100
	BYTE	W04
	BYTE		N01     Cn1   v116
	BYTE	W04
	BYTE		N01   
	BYTE	W01
	BYTE		N07     An1   v100
	BYTE	W04
	BYTE		N01     Cn1   v127
	BYTE	W05
	BYTE		N03     Bn1   v100
	BYTE	W04
	BYTE		N02     Cn1   v124
	BYTE	W05
	BYTE		N01     Cn1   v127
	BYTE		N01     Bn1   v116
	BYTE	W01
	BYTE		        Bn1   v092
	BYTE	W03
	BYTE		        Cn1   v116
	BYTE		N01     Bn1   v076
	BYTE	W03
	BYTE		        Bn1   v092
	BYTE	W01
	BYTE		        Cn1   v112
	BYTE	W02
	BYTE		N02     Bn1   v080
	BYTE	W02
	BYTE		N01   
	BYTE	W01
	BYTE		        Cn1   v112
	BYTE	W03
	BYTE		        An1 
	BYTE	W01
	BYTE		        Cn1   v124
	BYTE	W01
	BYTE		        An1   v092
	BYTE	W03
	BYTE		        Cn1   v104
	BYTE		N02     An1   v100
	BYTE	W03
	BYTE		N01     Gn1   v104
	BYTE	W01
	BYTE		N02     Cn1   v116
	BYTE	W02
	BYTE		N01     Gn1   v088
	BYTE	W02
	BYTE		N02     Cn1   v104
	BYTE	W02
	BYTE		N01     Fn1   v100
	BYTE	W02
	BYTE		        Cn1 
	BYTE	W02
OnTheHunt_9_B1:
	BYTE		N03     An2   v100
	BYTE	W16
// 006   ----------------------------------------
	BYTE	W01
	BYTE		N06     Dn1   v072
	BYTE		N03     An2   v092
	BYTE	W09
	BYTE		N06     Cn1 
	BYTE	W08
	BYTE		N03     An2 
	BYTE	W09
	BYTE		N05     Cn1   v072
	BYTE	W09
	BYTE		N04     Dn1   v084
	BYTE		N04     An2   v076
	BYTE	W09
	BYTE		        Cn1   v072
	BYTE	W09
	BYTE		N12     Cn1   v100
	BYTE		N04     An2   v052
	BYTE	W17
	BYTE		        Dn1   v080
	BYTE	W01
	BYTE		        An2   v064
	BYTE	W08
	BYTE		N06     Cn1   v096
	BYTE	W09
	BYTE		N03     An2   v080
	BYTE	W07
// 007   ----------------------------------------
	BYTE	W01
	BYTE		N05     Cn1   v072
	BYTE	W09
	BYTE		N04     Dn1   v084
	BYTE		N04     An2   v064
	BYTE	W09
	BYTE		        Cn1   v080
	BYTE	W09
	BYTE		N12     Cn1   v104
	BYTE		N04     An2   v072
	BYTE	W17
	BYTE		        Dn1   v080
	BYTE		N04     An2   v064
	BYTE	W09
	BYTE		N06     Cn1   v092
	BYTE	W08
	BYTE		N04     An2   v048
	BYTE	W09
	BYTE		N06     Cn1   v092
	BYTE	W08
	BYTE		N04     An2   v060
	BYTE	W01
	BYTE		        Dn1   v096
	BYTE	W09
	BYTE		        Cn1   v080
	BYTE	W07
// 008   ----------------------------------------
	BYTE	W01
	BYTE		N05     An2   v064
	BYTE	W01
	BYTE		N12     Cn1   v084
	BYTE	W17
	BYTE		N04     Dn1   v092
	BYTE		N04     An2   v060
	BYTE	W09
	BYTE		        Cn1   v084
	BYTE	W09
	BYTE		        Cn1   v080
	BYTE		N05     An2   v060
	BYTE	W08
	BYTE		        Cn1   v072
	BYTE	W09
	BYTE		N04     Dn1   v096
	BYTE		N04     An2   v056
	BYTE	W09
	BYTE		        Cn1   v092
	BYTE	W08
	BYTE		        An2   v064
	BYTE	W01
	BYTE		N11     Cn1   v084
	BYTE	W17
	BYTE		N04     Dn1   v072
	BYTE		N04     An2   v056
	BYTE	W07
// 009   ----------------------------------------
	BYTE	W02
	BYTE		N06     Cn1   v100
	BYTE	W08
	BYTE		N05     An2   v064
	BYTE	W09
	BYTE		N06     Cn1   v092
	BYTE	W09
	BYTE		N04     Dn1   v096
	BYTE		N04     An2   v064
	BYTE	W09
	BYTE		        Cn1   v072
	BYTE	W08
	BYTE		        An2   v060
	BYTE	W01
	BYTE		N12     Cn1   v108
	BYTE	W17
	BYTE		N04     Dn1   v080
	BYTE		N04     An2   v060
	BYTE	W09
	BYTE		N06     Cn1   v108
	BYTE	W08
	BYTE		N04     An2   v064
	BYTE	W09
	BYTE		N05     Cn1   v084
	BYTE	W07
// 010   ----------------------------------------
	BYTE	W02
	BYTE		N04     Dn1   v096
	BYTE		N04     An2   v052
	BYTE	W09
	BYTE		        Cn1   v096
	BYTE	W08
	BYTE		        An2   v064
	BYTE	W01
	BYTE		N11     Cn1   v108
	BYTE	W17
	BYTE		N05     Dn1   v084
	BYTE		N04     An2   v068
	BYTE	W09
	BYTE		N07     Cn1   v108
	BYTE	W09
	BYTE		N04     An2   v056
	BYTE	W08
	BYTE		N05     Cn1   v092
	BYTE	W09
	BYTE		N04     Dn1   v096
	BYTE		N04     An2   v060
	BYTE	W09
	BYTE		N05     Cn1   v104
	BYTE	W09
	BYTE		N04     Dn1   v084
	BYTE		N04     An2   v048
	BYTE	W06
// 011   ----------------------------------------
	BYTE	W02
	BYTE		N05     Cn1   v104
	BYTE	W09
	BYTE		N04     Dn1   v096
	BYTE		N04     An2   v064
	BYTE	W09
	BYTE		N05     Cn1   v108
	BYTE	W08
	BYTE		N04     An2   v064
	BYTE	W01
	BYTE		N03     Dn1   v084
	BYTE	W08
	BYTE		N05     Cn1   v108
	BYTE	W09
	BYTE		N04     Dn1   v084
	BYTE		N03     An2   v064
	BYTE	W09
	BYTE		N05     Cn1   v096
	BYTE	W08
	BYTE		N01     An2   v052
	BYTE	W01
	BYTE		N12     Cn1   v096
	BYTE		N06     Cs2   v080
	BYTE	W17
	BYTE		N04     Dn1   v068
	BYTE		N03     An2   v064
	BYTE	W09
	BYTE		N06     Cn1   v092
	BYTE	W06
// 012   ----------------------------------------
	BYTE	W02
	BYTE		N03     An2   v064
	BYTE	W09
	BYTE		N05     Cn1   v104
	BYTE	W09
	BYTE		N04     Dn1   v080
	BYTE		N04     An2   v072
	BYTE	W09
	BYTE		        Cn1   v096
	BYTE	W08
	BYTE		        An2   v048
	BYTE	W01
	BYTE		N06     Cn1   v096
	BYTE	W17
	BYTE		N04     Dn1   v084
	BYTE		N04     An2   v072
	BYTE	W09
	BYTE		N06     Cn1   v108
	BYTE	W08
	BYTE		N04     An2   v052
	BYTE	W09
	BYTE		N05     Cn1   v104
	BYTE	W09
	BYTE		N04     Dn1   v096
	BYTE		N04     An2   v060
	BYTE	W06
// 013   ----------------------------------------
	BYTE	W03
	BYTE		        Cn1   v100
	BYTE	W08
	BYTE		        An2   v056
	BYTE	W01
	BYTE		N09     Cn1   v108
	BYTE	W17
	BYTE		N04     Dn1   v080
	BYTE		N04     An2   v056
	BYTE	W09
	BYTE		N06     Cn1   v100
	BYTE	W09
	BYTE		N04     An2   v052
	BYTE	W08
	BYTE		N05     Cn1   v084
	BYTE	W09
	BYTE		N04     Dn1 
	BYTE		N04     An2   v064
	BYTE	W09
	BYTE		        Cn1   v092
	BYTE	W08
	BYTE		N01     An2   v080
	BYTE	W01
	BYTE		N06     Cn1   v108
	BYTE		N02     An2   v052
	BYTE	W14
// 014   ----------------------------------------
	BYTE	W03
	BYTE		N03     Dn1   v060
	BYTE		N04     An2   v048
	BYTE	W09
	BYTE		        Cn1   v104
	BYTE	W08
	BYTE		        An2   v056
	BYTE	W09
	BYTE		        Cn1   v092
	BYTE	W09
	BYTE		        Dn1   v096
	BYTE		N04     An2   v076
	BYTE	W18
	BYTE		N06     Cn1   v096
	BYTE		N04     An2   v068
	BYTE	W17
	BYTE		        Dn1   v092
	BYTE		N04     An2   v064
	BYTE	W09
	BYTE		N05     Cn1   v104
	BYTE	W08
	BYTE		N04     An2   v048
	BYTE	W06
// 015   ----------------------------------------
	BYTE	W03
	BYTE		N05     Cn1   v084
	BYTE	W09
	BYTE		N03     Dn1   v096
	BYTE		N04     An2   v056
	BYTE	W09
	BYTE		        Dn1   v092
	BYTE	W09
	BYTE		N08     Cn1   v108
	BYTE		N04     An2   v056
	BYTE	W17
	BYTE		        Dn1   v092
	BYTE		N04     An2   v056
	BYTE	W09
	BYTE		N06     Cn1   v108
	BYTE	W09
	BYTE		N04     An2   v056
	BYTE	W08
	BYTE		        Cn1   v096
	BYTE	W09
	BYTE		N03     Dn1   v084
	BYTE		N04     An2   v052
	BYTE	W09
	BYTE		        Dn1   v100
	BYTE	W05
// 016   ----------------------------------------
	BYTE	W04
	BYTE		N07     Cn1   v108
	BYTE		N04     An2   v056
	BYTE	W17
	BYTE		        Dn1   v096
	BYTE		N04     An2   v060
	BYTE	W09
	BYTE		N06     Cn1   v108
	BYTE	W09
	BYTE		N03     An2   v060
	BYTE	W08
	BYTE		N04     Cn1   v092
	BYTE	W09
	BYTE		        Dn1   v096
	BYTE		N04     An2   v060
	BYTE	W09
	BYTE		        Cn1   v096
	BYTE	W09
	BYTE		N07   
	BYTE		N04     An2   v064
	BYTE	W17
	BYTE		        Dn1   v100
	BYTE		N04     An2   v048
	BYTE	W05
// 017   ----------------------------------------
	BYTE	W04
	BYTE		N05     Cn1   v108
	BYTE	W09
	BYTE		N04     An2   v064
	BYTE	W08
	BYTE		        Cn1   v104
	BYTE	W09
	BYTE		        Dn1   v100
	BYTE	W01
	BYTE		N03     An2   v056
	BYTE	W08
	BYTE		        Cn1   v084
	BYTE	W09
	BYTE		N07     Cn1   v100
	BYTE		N04     An2   v060
	BYTE	W17
	BYTE		        Dn1   v096
	BYTE		N03     An2   v056
	BYTE	W09
	BYTE		N05     Cn1   v108
	BYTE	W09
	BYTE		N04     An2   v060
	BYTE	W08
	BYTE		N05     Cn1   v072
	BYTE	W05
// 018   ----------------------------------------
	BYTE	W04
	BYTE		N04     Dn1   v096
	BYTE		N04     An2   v052
	BYTE	W09
	BYTE		        Cn1   v100
	BYTE	W08
	BYTE		        An2   v068
	BYTE	W01
	BYTE		N05     Cn1   v108
	BYTE	W17
	BYTE		N04     Dn1   v092
	BYTE		N04     An2   v056
	BYTE	W09
	BYTE		N05     Cn1   v108
	BYTE	W08
	BYTE		N04     An2   v068
	BYTE	W09
	BYTE		N05     Cn1   v104
	BYTE	W09
	BYTE		N04     Dn1   v096
	BYTE		N03     An2   v064
	BYTE	W09
	BYTE		N04     Cn1   v092
	BYTE	W09
	BYTE		N05     Cn1   v100
	BYTE		N04     Cs2   v096
	BYTE	W04
// 019   ----------------------------------------
	BYTE	W13
	BYTE		        Dn1   v092
	BYTE	W01
	BYTE		N03     An2   v060
	BYTE	W08
	BYTE		N05     Cn1   v100
	BYTE	W09
	BYTE		N04     An2   v056
	BYTE	W08
	BYTE		        Cn1   v104
	BYTE	W09
	BYTE		        Dn1   v096
	BYTE		N04     An2   v060
	BYTE	W09
	BYTE		        Cn1   v096
	BYTE	W08
	BYTE		        An2   v060
	BYTE	W01
	BYTE		N05     Cn1   v108
	BYTE	W17
	BYTE		N04     Dn1   v092
	BYTE		N03     An2   v064
	BYTE	W09
	BYTE		N05     Cn1   v108
	BYTE	W04
// 020   ----------------------------------------
	BYTE	W05
	BYTE		N04     An2   v060
	BYTE	W08
	BYTE		        Cn1   v096
	BYTE	W09
	BYTE		        Dn1   v104
	BYTE		N03     An2   v064
	BYTE	W09
	BYTE		N04     Cn1   v096
	BYTE	W09
	BYTE		        Cn1   v108
	BYTE		N04     An2   v076
	BYTE	W16
	BYTE		N03   
	BYTE	W01
	BYTE		N04     Dn1   v104
	BYTE	W09
	BYTE		N05     Cn1   v108
	BYTE	W09
	BYTE		N03     An2   v056
	BYTE	W08
	BYTE		N04     Cn1   v084
	BYTE	W09
	BYTE		        Dn1   v096
	BYTE	W01
	BYTE		N03     An2   v068
	BYTE	W03
// 021   ----------------------------------------
	BYTE	W05
	BYTE		        Cn1   v096
	BYTE	W08
	BYTE		        An2   v060
	BYTE	W01
	BYTE		N05     Cn1   v108
	BYTE	W17
	BYTE		N04     Dn1   v080
	BYTE		N03     An2   v064
	BYTE	W09
	BYTE		N05     Cn1   v108
	BYTE	W08
	BYTE		N03     An2   v064
	BYTE	W09
	BYTE		N05     Cn1   v092
	BYTE	W08
	BYTE		N03     An2   v056
	BYTE	W01
	BYTE		N04     Dn1   v084
	BYTE	W09
	BYTE		N03     Cn1   v108
	BYTE	W09
	BYTE		N01     Dn1   v124
	BYTE	W04
	BYTE		N02     Dn1   v104
	BYTE	W04
	BYTE		N01     Dn1   v116
	BYTE	W04
// 022   ----------------------------------------
	BYTE	W01
	BYTE		        Gn1   v112
	BYTE	W04
	BYTE		N02     Gn1   v092
	BYTE	W04
	BYTE		N03     Dn1   v104
	BYTE	W05
	BYTE		N02     Bn1 
	BYTE	W04
	BYTE		N04     Dn1   v116
	BYTE	W05
	BYTE		N03     Cn2   v127
	BYTE	W04
	BYTE		N02     An1   v120
	BYTE	W04
	BYTE		N03     Dn2   v127
	BYTE	W05
	BYTE		        Bn1 
	BYTE	W04
	BYTE		N02     Cn2   v124
	BYTE	W04
	BYTE		        Cn2   v092
	BYTE	W05
	BYTE		        An1   v116
	BYTE	W04
	BYTE		        Bn1   v112
	BYTE	W05
	BYTE		        Bn1   v104
	BYTE	W04
	BYTE		N04     Dn1 
	BYTE	W04
	BYTE		N01     Bn1   v127
	BYTE	W05
	BYTE		N02     Bn1   v120
	BYTE	W04
	BYTE		N05     Dn1   v116
	BYTE	W04
	BYTE		N03     An1   v112
	BYTE	W05
	BYTE		        Cn1   v116
	BYTE	W04
	BYTE		        An1   v127
	BYTE	W05
	BYTE		        Dn1   v112
	BYTE	W03
// 023   ----------------------------------------
	BYTE	W01
	BYTE		        Gn1   v127
	BYTE	W04
	BYTE		        Dn1   v112
	BYTE	W05
	BYTE		N02     An1   v127
	BYTE	W04
	BYTE		N03     Bn1   v064
	BYTE	W04
	BYTE		N02     An1   v127
	BYTE	W05
	BYTE		N03     Gn1   v064
	BYTE	W04
	BYTE		        Fn1 
	BYTE	W05
	BYTE		N17     Cn1   v072
	BYTE		N01     Cs2   v116
	BYTE	W17
	BYTE		N06     Dn1   v072
	BYTE		N06     Ds2   v092
	BYTE	W09
	BYTE		        Cn1 
	BYTE	W09
	BYTE		        Ds2   v068
	BYTE	W08
	BYTE		N05     Cn1   v072
	BYTE	W09
	BYTE		N04     Dn1   v084
	BYTE		N06     Ds2   v096
	BYTE	W09
	BYTE		N04     Cn1   v072
	BYTE	W03
// 024   ----------------------------------------
	BYTE	W06
	BYTE		N12     Cn1   v100
	BYTE		N05     Ds2   v064
	BYTE	W17
	BYTE		N04     Dn1   v080
	BYTE		N05     Ds2   v076
	BYTE	W09
	BYTE		N06     Cn1   v096
	BYTE	W09
	BYTE		N05     Ds2   v076
	BYTE	W08
	BYTE		        Cn1   v072
	BYTE	W09
	BYTE		N04     Dn1   v084
	BYTE		N05     Ds2   v076
	BYTE	W09
	BYTE		N04     Cn1   v080
	BYTE	W09
	BYTE		N12     Cn1   v104
	BYTE		N05     Ds2   v076
	BYTE	W17
	BYTE		N04     Dn1   v080
	BYTE		N05     Ds2   v092
	BYTE	W03
// 025   ----------------------------------------
	BYTE	W06
	BYTE		N06     Cn1 
	BYTE	W09
	BYTE		N05     Ds2   v068
	BYTE	W08
	BYTE		N06     Cn1   v092
	BYTE	W09
	BYTE		N04     Dn1   v096
	BYTE		N05     Ds2   v092
	BYTE	W09
	BYTE		N04     Cn1   v080
	BYTE	W09
	BYTE		N12     Cn1   v084
	BYTE		N05     Ds2 
	BYTE	W17
	BYTE		N04     Dn1   v092
	BYTE		N06     Ds2 
	BYTE	W09
	BYTE		N04     Cn1   v084
	BYTE	W09
	BYTE		        Cn1   v080
	BYTE		N05     Ds2   v064
	BYTE	W08
	BYTE		        Cn1   v072
	BYTE	W03
// 026   ----------------------------------------
	BYTE	W06
	BYTE		N04     Dn1   v096
	BYTE		N06     Ds2 
	BYTE	W09
	BYTE		N04     Cn1   v092
	BYTE	W09
	BYTE		N11     Cn1   v084
	BYTE		N06     Ds2   v068
	BYTE	W17
	BYTE		N04     Dn1   v072
	BYTE		N05     Ds2   v092
	BYTE	W09
	BYTE		N06     Cn1   v100
	BYTE	W09
	BYTE		N04     Ds2   v076
	BYTE	W08
	BYTE		N06     Cn1   v092
	BYTE	W09
	BYTE		N04     Dn1   v096
	BYTE		N06     Ds2   v076
	BYTE	W09
	BYTE		N04     Cn1   v072
	BYTE	W09
	BYTE		N12     Cn1   v108
	BYTE		N05     Ds2   v076
	BYTE	W02
// 027   ----------------------------------------
	BYTE	W15
	BYTE		N04     Dn1   v080
	BYTE		N05     Ds2   v068
	BYTE	W09
	BYTE		N06     Cn1   v108
	BYTE	W09
	BYTE		N04     Ds2   v080
	BYTE	W08
	BYTE		N05     Cn1   v084
	BYTE	W09
	BYTE		N04     Dn1   v096
	BYTE		N05     Ds2   v092
	BYTE	W09
	BYTE		N04     Cn1   v096
	BYTE	W09
	BYTE		N11     Cn1   v108
	BYTE		N05     Ds2   v064
	BYTE	W17
	BYTE		        Dn1   v084
	BYTE		N05     Ds2 
	BYTE	W09
	BYTE		N07     Cn1   v108
	BYTE	W02
// 028   ----------------------------------------
	BYTE	W07
	BYTE		N04     Ds2   v092
	BYTE	W08
	BYTE		N05     Cn1 
	BYTE	W09
	BYTE		N04     Dn1   v096
	BYTE		N05     Ds2   v092
	BYTE	W09
	BYTE		        Cn1   v104
	BYTE	W09
	BYTE		N04     Dn1   v084
	BYTE		N05     Ds2   v076
	BYTE	W08
	BYTE		        Cn1   v104
	BYTE	W09
	BYTE		N04     Dn1   v096
	BYTE		N05     Ds2   v084
	BYTE	W09
	BYTE		        Cn1   v108
	BYTE	W09
	BYTE		N03     Dn1   v084
	BYTE		N05     Ds2   v088
	BYTE	W08
	BYTE		        Cn1   v108
	BYTE	W09
	BYTE		N04     Dn1   v084
	BYTE		N06     Ds2   v076
	BYTE	W02
// 029   ----------------------------------------
	BYTE	W07
	BYTE		N05     Cn1   v096
	BYTE	W09
	BYTE		N12   
	BYTE		N06     An2   v080
	BYTE	W17
	BYTE		N04     Dn1   v068
	BYTE		N05     Bn2   v060
	BYTE	W09
	BYTE		N06     Cn1   v092
	BYTE	W09
	BYTE		N04     Bn2   v068
	BYTE	W08
	BYTE		N05     Cn1   v104
	BYTE	W09
	BYTE		N04     Dn1   v080
	BYTE		N04     Bn2   v072
	BYTE	W09
	BYTE		        Cn1   v096
	BYTE	W09
	BYTE		N06   
	BYTE		N04     Bn2   v080
	BYTE	W10
// 030   ----------------------------------------
	BYTE	W07
	BYTE		        Dn1   v084
	BYTE		N05     Bn2   v076
	BYTE	W09
	BYTE		N06     Cn1   v108
	BYTE	W09
	BYTE		N05     Bn2   v072
	BYTE	W08
	BYTE		        Cn1   v104
	BYTE	W09
	BYTE		N04     Dn1   v096
	BYTE		N06     Bn2   v076
	BYTE	W09
	BYTE		N04     Cn1   v100
	BYTE	W09
	BYTE		N09     Cn1   v108
	BYTE		N05     Bn2   v076
	BYTE	W17
	BYTE		N04     Dn1   v080
	BYTE		N05     Bn2   v068
	BYTE	W09
	BYTE		N06     Cn1   v100
	BYTE	W09
	BYTE		N04     Bn2   v080
	BYTE	W01
// 031   ----------------------------------------
	BYTE	W07
	BYTE		N05     Cn1   v084
	BYTE	W09
	BYTE		N04     Dn1 
	BYTE		N05     Bn2   v076
	BYTE	W09
	BYTE		N04     Cn1   v092
	BYTE	W09
	BYTE		N06     Cn1   v108
	BYTE		N05     Bn2   v068
	BYTE	W17
	BYTE		N03     Dn1   v060
	BYTE		N04     Bn2   v068
	BYTE	W09
	BYTE		        Cn1   v104
	BYTE	W09
	BYTE		        Bn2   v068
	BYTE	W08
	BYTE		        Cn1   v092
	BYTE	W09
	BYTE		        Dn1   v096
	BYTE		N04     Bn2   v080
	BYTE	W10
// 032   ----------------------------------------
	BYTE	W08
	BYTE		N06     Cn1   v096
	BYTE		N03     Cs2 
	BYTE	W17
	BYTE		N04     Dn1   v092
	BYTE	W09
	BYTE		N05     Cn1   v104
	BYTE	W09
	BYTE		N04     Ds2   v068
	BYTE	W08
	BYTE		N05     Cn1   v084
	BYTE	W09
	BYTE		N03     Dn1   v096
	BYTE		N04     Ds2   v092
	BYTE	W09
	BYTE		        Dn1 
	BYTE	W09
	BYTE		N08     Cn1   v108
	BYTE		N05     Ds2   v076
	BYTE	W17
	BYTE		N04     Dn1   v092
	BYTE		N04     Ds2   v076
	BYTE	W01
// 033   ----------------------------------------
	BYTE	W08
	BYTE		N06     Cn1   v108
	BYTE	W09
	BYTE		N04     Ds2   v056
	BYTE	W08
	BYTE		        Cn1   v096
	BYTE	W09
	BYTE		N03     Dn1   v084
	BYTE		N04     Ds2   v092
	BYTE	W09
	BYTE		        Dn1   v100
	BYTE	W09
	BYTE		N07     Cn1   v108
	BYTE		N04     Ds2   v068
	BYTE	W17
	BYTE		        Dn1   v096
	BYTE		N04     Ds2   v076
	BYTE	W09
	BYTE		N06     Cn1   v108
	BYTE	W09
	BYTE		N04     Ds2   v076
	BYTE	W08
	BYTE		        Cn1   v092
	BYTE	W01
// 034   ----------------------------------------
	BYTE	W08
	BYTE		        Dn1   v096
	BYTE		N05     Ds2   v084
	BYTE	W09
	BYTE		N04     Cn1   v096
	BYTE	W09
	BYTE		N07   
	BYTE		N04     Ds2   v100
	BYTE	W17
	BYTE		        Dn1 
	BYTE		N04     Ds2   v104
	BYTE	W09
	BYTE		N05     Cn1   v108
	BYTE	W09
	BYTE		N04     Ds2   v092
	BYTE	W08
	BYTE		        Cn1   v104
	BYTE	W09
	BYTE		        Dn1   v100
	BYTE		N04     Ds2 
	BYTE	W09
	BYTE		N03     Cn1   v084
	BYTE	W09
// 035   ----------------------------------------
	BYTE		N07     Cn1   v100
	BYTE		N04     Cs2   v092
	BYTE	W17
	BYTE		        Dn1   v096
	BYTE		N04     Cs2   v080
	BYTE	W09
	BYTE		N05     Cn1   v108
	BYTE	W09
	BYTE		N04     Cs2   v084
	BYTE	W08
	BYTE		N05     Cn1   v072
	BYTE	W09
	BYTE		N04     Dn1   v096
	BYTE		N05     Cs2   v092
	BYTE	W09
	BYTE		N04     Cn1   v100
	BYTE	W09
	BYTE		N05     Cn1   v108
	BYTE		N04     Cs2   v100
	BYTE	W17
	BYTE		        Dn1   v092
	BYTE		N04     Cs2   v072
	BYTE	W09
// 036   ----------------------------------------
	BYTE		N05     Cn1   v108
	BYTE	W09
	BYTE		N03     Cs2   v092
	BYTE	W08
	BYTE		N05     Cn1   v104
	BYTE	W09
	BYTE		N04     Dn1   v096
	BYTE		N04     Cs2   v100
	BYTE	W09
	BYTE		        Cn1   v092
	BYTE	W09
	BYTE		N05     Cn1   v100
	BYTE		N03     Cs2 
	BYTE	W17
	BYTE		N04     Dn1   v092
	BYTE		N04     Cs2   v100
	BYTE	W09
	BYTE		N05     Cn1 
	BYTE	W09
	BYTE		N04     Cs2   v092
	BYTE	W08
	BYTE		        Cn1   v104
	BYTE	W09
// 037   ----------------------------------------
	BYTE		        Dn1   v096
	BYTE		N04     Cs2   v104
	BYTE	W09
	BYTE		        Cn1   v096
	BYTE	W09
	BYTE		N05     Cn1   v108
	BYTE		N04     Cs2   v100
	BYTE	W17
	BYTE		        Dn1   v092
	BYTE		N05     Cs2   v100
	BYTE	W09
	BYTE		        Cn1   v108
	BYTE	W09
	BYTE		N04     Cs2   v068
	BYTE	W08
	BYTE		        Cn1   v096
	BYTE	W09
	BYTE		        Dn1   v104
	BYTE		N04     Cs2   v080
	BYTE	W09
	BYTE		        Cn1   v096
	BYTE	W09
	BYTE		        Cn1   v108
	BYTE		N04     Cs2   v100
	BYTE	W08
// 038   ----------------------------------------
	BYTE	W09
	BYTE		        Dn1   v104
	BYTE		N04     Cs2   v100
	BYTE	W09
	BYTE		N05     Cn1   v108
	BYTE	W09
	BYTE		N03     Cs2   v100
	BYTE	W08
	BYTE		N04     Cn1   v084
	BYTE	W09
	BYTE		        Dn1   v096
	BYTE		N04     Cs2   v080
	BYTE	W09
	BYTE		N03     Cn1   v096
	BYTE	W09
	BYTE		N05     Cn1   v108
	BYTE		N04     Cs2   v100
	BYTE	W17
	BYTE		        Dn1   v080
	BYTE		N04     Cs2   v092
	BYTE	W09
	BYTE		N05     Cn1   v108
	BYTE	W08
// 039   ----------------------------------------
	BYTE	W01
	BYTE		N03     Cs2   v096
	BYTE	W08
	BYTE		N05     Cn1   v092
	BYTE	W09
	BYTE		N04     Dn1   v084
	BYTE		N04     Cs2   v100
	BYTE	W09
	BYTE		N03     Cn1   v108
	BYTE	W09
	BYTE		N05   
	BYTE		N04     Cs2   v100
	BYTE	W17
	BYTE		        Dn1   v096
	BYTE		N04     Cs2   v080
	BYTE	W09
	BYTE		N05     Cn1   v108
	BYTE	W09
	BYTE		N04     Cs2   v080
	BYTE	W08
	BYTE		        Cn1   v104
	BYTE	W09
	BYTE		        Dn1   v108
	BYTE		N04     Cs2   v088
	BYTE	W08
// 040   ----------------------------------------
	BYTE	W01
	BYTE		        Cn1   v108
	BYTE	W09
	BYTE		N03     Dn1 
	BYTE		N03     Cs2   v096
	BYTE	W08
	BYTE		N04     Cn1   v108
	BYTE	W09
	BYTE		        Dn1   v104
	BYTE		N04     Cs2   v100
	BYTE	W09
	BYTE		        Cn1   v108
	BYTE	W09
	BYTE		N03     Dn1   v104
	BYTE		N03     Cs2   v084
	BYTE	W08
	BYTE		        Dn1   v100
	BYTE	W09
	BYTE		N05     Cn1   v108
	BYTE		N04     Cs2   v100
	BYTE	W09
	BYTE		N03     Dn1   v108
	BYTE	W09
	BYTE	GoTo
	 POIN2	OnTheHunt_9_B1
OnTheHunt_9_B2:
	BYTE	FINE

//******************************************************//
	ALIGN 4

OnTheHunt:
	BYTE	9	// NumTrks
	BYTE	0	// NumBlks
	BYTE	OnTheHunt_pri	// Priority
	BYTE	OnTheHunt_rev	// Reverb.

	POIN2	OnTheHunt_grp

	POIN2	OnTheHunt_1
	POIN2	OnTheHunt_2
	POIN2	OnTheHunt_3
	POIN2	OnTheHunt_4
	POIN2	OnTheHunt_5
	POIN2	OnTheHunt_6
	POIN2	OnTheHunt_7
	POIN2	OnTheHunt_8
	POIN2	OnTheHunt_9

	
