//Event file generated from Sappy .s format.
	#include "MPlayDef.event"

	#define	RebelstarBGM1_grp  RebelstarBGM1InstrumentTable
	#define	RebelstarBGM1_pri  10
	#define	RebelstarBGM1_rev  128
	#define	RebelstarBGM1_mvl  127
	#define	RebelstarBGM1_key  0
	#define	RebelstarBGM1_tbs  1
	#define	RebelstarBGM1_exg  0
	#define	RebelstarBGM1_cmp  1

	// .rodata
	//	RebelstarBGM1
	ALIGN 4


//**************** Track 1 (Midi-Chn.0) ****************//

RebelstarBGM1_001:
// 000   ----------------------------------------
 BYTE   KEYSH   RebelstarBGM1_key+0
Label_0_011F6F0E:
 BYTE   TEMPO   88*RebelstarBGM1_tbs/2
 BYTE   VOICE   1
 BYTE   VOL   100*RebelstarBGM1_mvl/mxv
 BYTE   PAN   c_v-33
 BYTE   N48  Ds3  v092
 BYTE   W48
 BYTE   N48
 BYTE   W48
// 001   ----------------------------------------
 BYTE   En3
 BYTE   W48
 BYTE   As3  v112
 BYTE   W48
// 002   ----------------------------------------
 BYTE   An3  v104
 BYTE   W48
 BYTE   En3
 BYTE   W48
// 003   ----------------------------------------
 BYTE   Ds3  v096
 BYTE   W48
 BYTE   As2  v092
 BYTE   W48
// 004   ----------------------------------------
 BYTE   W96
// 005   ----------------------------------------
 BYTE   W96
// 006   ----------------------------------------
 BYTE   W96
// 007   ----------------------------------------
 BYTE   W96
// 008   ----------------------------------------
 BYTE   W96
// 009   ----------------------------------------
 BYTE   W96
// 010   ----------------------------------------
 BYTE   W96
// 011   ----------------------------------------
 BYTE   W96
// 012   ----------------------------------------
 BYTE   W96
// 013   ----------------------------------------
 BYTE   W96
// 014   ----------------------------------------
 BYTE   W96
// 015   ----------------------------------------
 BYTE   W96
// 016   ----------------------------------------
 BYTE   W96
// 017   ----------------------------------------
 BYTE   W96
// 018   ----------------------------------------
 BYTE   W96
// 019   ----------------------------------------
 BYTE   W96
// 020   ----------------------------------------
 BYTE   W96
// 021   ----------------------------------------
 BYTE   W96
// 022   ----------------------------------------
 BYTE   W96
// 023   ----------------------------------------
 BYTE   W96
// 024   ----------------------------------------
 BYTE   W96
// 025   ----------------------------------------
 BYTE   W96
// 026   ----------------------------------------
 BYTE   W96
// 027   ----------------------------------------
 BYTE   W96
// 028   ----------------------------------------
 BYTE   GoTo
  POIN2 Label_0_011F6F0E
 BYTE   FINE

//**************** Track 2 (Midi-Chn.1) ****************//

RebelstarBGM1_002:
// 000   ----------------------------------------
 BYTE   VOL   100*RebelstarBGM1_mvl/mxv
 BYTE   KEYSH   RebelstarBGM1_key+0
Label_1_011F6F4E:
 BYTE   VOICE   2
 BYTE   PAN   c_v+33
 BYTE   N06  Ds2  v124
 BYTE   W06
 BYTE   Ds1  v092
 BYTE   W06
 BYTE   Ds2  v124
 BYTE   W06
 BYTE   Ds1
 BYTE   W18
 BYTE   Ds2  v127
 BYTE   W06
 BYTE   Ds1  v108
 BYTE   W06
 BYTE   Ds2  v127
 BYTE   W06
 BYTE   Ds1  v116
 BYTE   W24
 BYTE   As1  v124
 BYTE   W12
 BYTE   An1  v116
 BYTE   W06
// 001   ----------------------------------------
 BYTE   Ds2  v124
 BYTE   W06
 BYTE   Ds1  v116
 BYTE   W06
 BYTE   Ds2  v112
 BYTE   W06
 BYTE   Ds1  v124
 BYTE   W18
 BYTE   Ds2
 BYTE   W06
 BYTE   Ds1  v108
 BYTE   W06
 BYTE   Ds2  v127
 BYTE   W06
 BYTE   Ds1  v124
 BYTE   W42
// 002   ----------------------------------------
 BYTE   Ds2  v127
 BYTE   W06
 BYTE   Ds1  v112
 BYTE   W06
 BYTE   Ds2  v116
 BYTE   W06
 BYTE   Ds1
 BYTE   W18
 BYTE   Ds2  v127
 BYTE   W06
 BYTE   Ds1  v112
 BYTE   W06
 BYTE   Ds2  v124
 BYTE   W06
 BYTE   Ds1
 BYTE   W24
 BYTE   As1
 BYTE   W12
 BYTE   An1  v104
 BYTE   W06
// 003   ----------------------------------------
 BYTE   Ds2  v116
 BYTE   W06
 BYTE   Ds1  v112
 BYTE   W06
 BYTE   Ds2  v116
 BYTE   W06
 BYTE   Ds1  v124
 BYTE   W18
 BYTE   Ds2  v116
 BYTE   W06
 BYTE   Ds1
 BYTE   W06
 BYTE   Ds2
 BYTE   W06
 BYTE   Ds1  v124
 BYTE   W42
// 004   ----------------------------------------
 BYTE   W96
// 005   ----------------------------------------
 BYTE   W96
// 006   ----------------------------------------
 BYTE   W96
// 007   ----------------------------------------
 BYTE   W96
// 008   ----------------------------------------
Label_1_011F6FBC:
 BYTE   N05  An1  v124
 BYTE   W12
 BYTE   N04  An1  v127
 BYTE   W24
 BYTE   An0  v124
 BYTE   W12
 BYTE   N08
 BYTE   W48
 BYTE   PEND 
// 009   ----------------------------------------
Label_1_011F6FCA:
 BYTE   N04  An1  v127
 BYTE   W12
 BYTE   N04
 BYTE   W24
 BYTE   An0  v124
 BYTE   W12
 BYTE   N06  An0  v127
 BYTE   W48
 BYTE   PEND 
// 010   ----------------------------------------
Label_1_011F6FD8:
 BYTE   N05  An1  v124
 BYTE   W12
 BYTE   N06  An1  v127
 BYTE   W24
 BYTE   N03  An0
 BYTE   W12
 BYTE   N06  An0  v124
 BYTE   W48
 BYTE   PEND 
// 011   ----------------------------------------
Label_1_011F6FE8:
 BYTE   N05  An1  v127
 BYTE   W12
 BYTE   N05
 BYTE   W24
 BYTE   N04  An0
 BYTE   W12
 BYTE   N06  An0  v124
 BYTE   W48
 BYTE   PEND 
 BYTE   PATT
  POIN2 Label_1_011F6FBC
 BYTE   PATT
  POIN2 Label_1_011F6FCA
 BYTE   PATT
  POIN2 Label_1_011F6FD8
 BYTE   PATT
  POIN2 Label_1_011F6FE8
// 012   ----------------------------------------
 BYTE   N05  Gn1  v127
 BYTE   W12
 BYTE   Gn1  v116
 BYTE   W24
 BYTE   N04  Gn1  v108
 BYTE   W12
 BYTE   Gn1  v127
 BYTE   W48
// 013   ----------------------------------------
 BYTE   N05
 BYTE   W12
 BYTE   N04
 BYTE   W24
 BYTE   N03  Gn1  v116
 BYTE   W12
 BYTE   Gn1  v127
 BYTE   W48
// 014   ----------------------------------------
 BYTE   N05  An1  v124
 BYTE   W12
 BYTE   An1  v127
 BYTE   W24
 BYTE   N04  An0  v124
 BYTE   W12
 BYTE   N06  An0  v127
 BYTE   W48
// 015   ----------------------------------------
 BYTE   N04  An1  v124
 BYTE   W12
 BYTE   An1  v127
 BYTE   W24
 BYTE   An0  v124
 BYTE   W12
 BYTE   N05
 BYTE   W48
 BYTE   PATT
  POIN2 Label_1_011F6FBC
 BYTE   PATT
  POIN2 Label_1_011F6FCA
 BYTE   PATT
  POIN2 Label_1_011F6FD8
 BYTE   PATT
  POIN2 Label_1_011F6FE8
// 016   ----------------------------------------
 BYTE   N05  Gn1  v127
 BYTE   W12
 BYTE   N04
 BYTE   W24
 BYTE   Gn1  v116
 BYTE   W12
 BYTE   Gn1  v127
 BYTE   W48
// 017   ----------------------------------------
 BYTE   Fn1
 BYTE   W12
 BYTE   N04
 BYTE   W24
 BYTE   N03  Fn2  v116
 BYTE   W12
 BYTE   N04  Fn2  v127
 BYTE   W48
// 018   ----------------------------------------
 BYTE   En2  v124
 BYTE   W12
 BYTE   N04
 BYTE   W24
 BYTE   N03  En1
 BYTE   W12
 BYTE   N04  En1  v127
 BYTE   W36
 BYTE   N02  En1  v096
 BYTE   W06
 BYTE   N03  En1  v088
 BYTE   W06
// 019   ----------------------------------------
 BYTE   N04  An1  v127
 BYTE   W12
 BYTE   An1  v124
 BYTE   W24
 BYTE   N03  An0
 BYTE   W12
 BYTE   N04
 BYTE   W36
 BYTE   N02  An1
 BYTE   W06
 BYTE   N02
 BYTE   W06
// 020   ----------------------------------------
 BYTE   GoTo
  POIN2 Label_1_011F6F4E
 BYTE   FINE

//**************** Track 3 (Midi-Chn.2) ****************//

RebelstarBGM1_003:
// 000   ----------------------------------------
 BYTE   KEYSH   RebelstarBGM1_key+0
Label_2_011F7097:
 BYTE   VOICE   3
 BYTE   VOL   36*RebelstarBGM1_mvl/mxv
 BYTE   PAN   c_v+28
 BYTE   W96
// 001   ----------------------------------------
 BYTE   W96
// 002   ----------------------------------------
 BYTE   TIE  Ds3  v104
 BYTE   W24
 BYTE   N22  An3  v112
 BYTE   W24
 BYTE   N23  As3  v092
 BYTE   W24
 BYTE   Ds4  v116
 BYTE   N03  En4  v092
 BYTE   W24
// 003   ----------------------------------------
 BYTE   N24  Dn4  v096
 BYTE   W24
 BYTE   N22  Gs4  v088
 BYTE   W24
 BYTE   N23  Gn4  v096
 BYTE   W24
 BYTE   N20  Ds4  v104
 BYTE   W21
 BYTE   EOT
 BYTE   Ds3
 BYTE   W03
// 004   ----------------------------------------
 BYTE   N72  En2  v116
 BYTE   N72  An2  v108
 BYTE   N78  En4  v080
 BYTE   W72
 BYTE   N24  An2  v096
 BYTE   N24  En3  v127
 BYTE   W24
// 005   ----------------------------------------
 BYTE   N48  An2  v092
 BYTE   N48  Fn3  v116
 BYTE   W48
 BYTE   Fn3  v108
 BYTE   N48  An3
 BYTE   W48
// 006   ----------------------------------------
 BYTE   An3  v116
 BYTE   N48  Cn4
 BYTE   W48
 BYTE   N48
 BYTE   N48  Fn4
 BYTE   W48
// 007   ----------------------------------------
 BYTE   N44  Fs3  v108
 BYTE   N44  Ds4  v100
 BYTE   W48
 BYTE   Ds3
 BYTE   N44  As3  v116
 BYTE   W48
// 008   ----------------------------------------
 BYTE   N48  Cn4  v124
 BYTE   W96
// 009   ----------------------------------------
 BYTE   W96
// 010   ----------------------------------------
 BYTE   W96
// 011   ----------------------------------------
 BYTE   W96
// 012   ----------------------------------------
 BYTE   N44  En4  v112
 BYTE   W48
 BYTE   N22  An4  v116
 BYTE   W24
 BYTE   N21  Gn4  v104
 BYTE   W24
// 013   ----------------------------------------
 BYTE   N44  Fn4  v116
 BYTE   W48
 BYTE   N21  Cn4
 BYTE   W24
 BYTE   N20  Dn4  v108
 BYTE   W24
// 014   ----------------------------------------
 BYTE   N44  En4  v116
 BYTE   W48
 BYTE   N92  An3  v112
 BYTE   W48
// 015   ----------------------------------------
 BYTE   W96
// 016   ----------------------------------------
 BYTE   N90  Dn4  v108
 BYTE   W96
// 017   ----------------------------------------
 BYTE   N44  Fn4
 BYTE   W48
 BYTE   N32  En4
 BYTE   W36
 BYTE   N10  Dn4
 BYTE   W12
// 018   ----------------------------------------
 BYTE   TIE  En4  v100
 BYTE   W96
// 019   ----------------------------------------
 BYTE   W24
 BYTE   W01
 BYTE   EOT
 BYTE   W68
 BYTE   W03
// 020   ----------------------------------------
 BYTE   N68  En4  v108
 BYTE   W72
 BYTE   N21  An4
 BYTE   W24
// 021   ----------------------------------------
 BYTE   N44  Gn4  v092
 BYTE   W48
 BYTE   N21  Fn4  v104
 BYTE   W24
 BYTE   N23  En4  v100
 BYTE   W24
// 022   ----------------------------------------
 BYTE   N32  Dn4  v108
 BYTE   W36
 BYTE   N12  Fn4  v104
 BYTE   W12
 BYTE   TIE  En4  v100
 BYTE   W48
// 023   ----------------------------------------
 BYTE   W68
 BYTE   W01
 BYTE   EOT
 BYTE   W03
 BYTE   N21  An3  v112
 BYTE   W24
// 024   ----------------------------------------
 BYTE   N68  As3  v108
 BYTE   W72
 BYTE   N24  Cn4
 BYTE   W24
// 025   ----------------------------------------
 BYTE   N44  Dn4
 BYTE   W48
 BYTE   Gn3
 BYTE   W48
// 026   ----------------------------------------
 BYTE   TIE  An3  v092
 BYTE   W96
// 027   ----------------------------------------
 BYTE   W44
 BYTE   EOT
 BYTE   W52
// 028   ----------------------------------------
 BYTE   GoTo
  POIN2 Label_2_011F7097
 BYTE   FINE

//**************** Track 4 (Midi-Chn.3) ****************//

RebelstarBGM1_004:
// 000   ----------------------------------------
 BYTE   VOL   100*RebelstarBGM1_mvl/mxv
 BYTE   KEYSH   RebelstarBGM1_key+0
Label_3_011F7177:
 BYTE   VOICE   4
 BYTE   W96
// 001   ----------------------------------------
 BYTE   W96
// 002   ----------------------------------------
 BYTE   W96
// 003   ----------------------------------------
 BYTE   W96
// 004   ----------------------------------------
 BYTE   W96
// 005   ----------------------------------------
 BYTE   W96
// 006   ----------------------------------------
 BYTE   W96
// 007   ----------------------------------------
 BYTE   W90
 BYTE   N04  Gn0  v076
 BYTE   W06
// 008   ----------------------------------------
 BYTE   N13  An0  v088
 BYTE   W18
 BYTE   N06  An0  v096
 BYTE   W24
 BYTE   N03  An0  v112
 BYTE   W06
 BYTE   N08  AnM1
 BYTE   W12
 BYTE   N07  AnM1  v116
 BYTE   W18
 BYTE   N04
 BYTE   W12
 BYTE   N02  Gn0  v108
 BYTE   W06
// 009   ----------------------------------------
 BYTE   N15  An0
 BYTE   W18
 BYTE   N05  An0  v112
 BYTE   W24
 BYTE   N03  An0  v100
 BYTE   W06
 BYTE   Gn1  v116
 BYTE   W06
 BYTE   An0  v100
 BYTE   W06
 BYTE   N04  Gn1  v127
 BYTE   W06
 BYTE   N03  An1  v088
 BYTE   W12
 BYTE   An0  v108
 BYTE   W12
 BYTE   Gn0
 BYTE   W06
// 010   ----------------------------------------
 BYTE   N14  An0
 BYTE   W18
 BYTE   N05  An0  v116
 BYTE   W24
 BYTE   N02  AnM1  v100
 BYTE   W06
 BYTE   N08  AnM1  v127
 BYTE   W12
 BYTE   N06  AnM1  v124
 BYTE   W30
 BYTE   N01  Gn0  v104
 BYTE   W06
// 011   ----------------------------------------
 BYTE   N14  An0  v112
 BYTE   W18
 BYTE   N04  An0  v124
 BYTE   W24
 BYTE   N01  AnM1  v096
 BYTE   W06
 BYTE   N02  AnM1  v116
 BYTE   W06
 BYTE   N03  AnM1  v112
 BYTE   W06
 BYTE   N02  Gn0  v127
 BYTE   W06
 BYTE   N03  AnM1  v112
 BYTE   W06
 BYTE   N04  Gn1  v116
 BYTE   W06
 BYTE   N03  An1  v092
 BYTE   W06
 BYTE   An0  v112
 BYTE   W06
 BYTE   N02  Gn1  v116
 BYTE   W06
// 012   ----------------------------------------
 BYTE   N15  An0  v112
 BYTE   W18
 BYTE   N03  An0  v108
 BYTE   W24
 BYTE   N01  AnM1
 BYTE   W06
 BYTE   N08  AnM1  v124
 BYTE   W12
 BYTE   AnM1  v116
 BYTE   W30
 BYTE   N01  Gn0  v108
 BYTE   W06
// 013   ----------------------------------------
 BYTE   N14  An0
 BYTE   W18
 BYTE   N04  An0  v112
 BYTE   W24
 BYTE   N01  AnM1  v068
 BYTE   W06
 BYTE   N08  AnM1  v124
 BYTE   W12
 BYTE   N02  Gn1  v127
 BYTE   W06
 BYTE   N03  AnM1  v112
 BYTE   W06
 BYTE   N04  Gn1  v116
 BYTE   W06
 BYTE   N02  An1  v088
 BYTE   W06
 BYTE   N04  AnM1  v116
 BYTE   W06
 BYTE   N02  Gn0  v104
 BYTE   W06
// 014   ----------------------------------------
 BYTE   N14  An0  v112
 BYTE   W18
 BYTE   N02  An0  v116
 BYTE   W24
 BYTE   N01  AnM1  v088
 BYTE   W06
 BYTE   N10  AnM1  v127
 BYTE   W12
 BYTE   N08  AnM1  v124
 BYTE   W30
 BYTE   N02  Gn0  v092
 BYTE   W06
// 015   ----------------------------------------
 BYTE   N15  An0  v112
 BYTE   W18
 BYTE   N04  An0  v116
 BYTE   W24
 BYTE   N02  An0  v108
 BYTE   W06
 BYTE   N08  An0  v124
 BYTE   W18
 BYTE   N03
 BYTE   W12
 BYTE   An0  v127
 BYTE   W06
 BYTE   N05  As0  v092
 BYTE   W06
 BYTE   N04  An0  v116
 BYTE   W06
// 016   ----------------------------------------
 BYTE   N14  Gn0  v108
 BYTE   W18
 BYTE   N04
 BYTE   W24
 BYTE   N02  Dn1
 BYTE   W06
 BYTE   N12  Gn1  v127
 BYTE   W18
 BYTE   N03
 BYTE   W24
 BYTE   N02  Gn0  v088
 BYTE   W06
// 017   ----------------------------------------
 BYTE   N12  Gn0  v116
 BYTE   W18
 BYTE   N04
 BYTE   W48
 BYTE   N02  Gn0  v104
 BYTE   W06
 BYTE   N05  An0  v127
 BYTE   W06
 BYTE   N07  As0  v104
 BYTE   W12
 BYTE   N04  Gn0  v096
 BYTE   W06
// 018   ----------------------------------------
 BYTE   N14  An0  v124
 BYTE   W18
 BYTE   N04
 BYTE   W24
 BYTE   N01  AnM1  v092
 BYTE   W06
 BYTE   N08  AnM1  v124
 BYTE   W12
 BYTE   N06  AnM1  v116
 BYTE   W30
 BYTE   N02  An0  v088
 BYTE   W06
// 019   ----------------------------------------
 BYTE   N13  An0  v112
 BYTE   W18
 BYTE   N03  An0  v116
 BYTE   W12
 BYTE   N02  An0  v112
 BYTE   W06
 BYTE   N04  Gn1  v116
 BYTE   W06
 BYTE   N02  Fn1  v096
 BYTE   W06
 BYTE   An0  v116
 BYTE   W06
 BYTE   N03  An0  v100
 BYTE   W06
 BYTE   N05  Fn1  v116
 BYTE   W06
 BYTE   N02  En1  v080
 BYTE   W06
 BYTE   N03  An0  v116
 BYTE   W06
 BYTE   An0  v096
 BYTE   W06
 BYTE   N04  Dn1  v116
 BYTE   W06
 BYTE   N02  Cn1  v104
 BYTE   W06
// 020   ----------------------------------------
 BYTE   N13  An0  v124
 BYTE   W18
 BYTE   N03  An0  v116
 BYTE   W24
 BYTE   N02  AnM1  v112
 BYTE   W06
 BYTE   N06  AnM1  v116
 BYTE   W12
 BYTE   N04
 BYTE   W18
 BYTE   N02  AnM1  v124
 BYTE   W06
 BYTE   N04  Gn0  v116
 BYTE   W06
 BYTE   N02  An0  v088
 BYTE   W06
// 021   ----------------------------------------
 BYTE   N13  An0  v100
 BYTE   W18
 BYTE   N03  An0  v112
 BYTE   W24
 BYTE   N01  An0  v096
 BYTE   W06
 BYTE   N03  An0  v124
 BYTE   W12
 BYTE   N04  An1  v108
 BYTE   W06
 BYTE   N02  Gn1
 BYTE   W06
 BYTE   An0  v100
 BYTE   W06
 BYTE   N03  An0  v108
 BYTE   W06
 BYTE   N04  Gn1  v116
 BYTE   W06
 BYTE   N02  Fn1  v104
 BYTE   W06
// 022   ----------------------------------------
 BYTE   N13  An0  v124
 BYTE   W18
 BYTE   N03  An0  v116
 BYTE   W24
 BYTE   N01  AnM1  v100
 BYTE   W06
 BYTE   N07  AnM1  v116
 BYTE   W12
 BYTE   N06
 BYTE   W18
 BYTE   N02  AnM1  v124
 BYTE   W06
 BYTE   N03  Gn0  v104
 BYTE   W06
 BYTE   N02  An0  v092
 BYTE   W06
// 023   ----------------------------------------
 BYTE   N10  An0  v112
 BYTE   W18
 BYTE   N01  Gs0  v100
 BYTE   N04  An0
 BYTE   W24
 BYTE   N02  An0  v096
 BYTE   W06
 BYTE   N10  An0  v116
 BYTE   W18
 BYTE   N03
 BYTE   W12
 BYTE   An0  v108
 BYTE   W06
 BYTE   As0
 BYTE   W06
 BYTE   N02  An0  v100
 BYTE   W06
// 024   ----------------------------------------
 BYTE   N13  Gn0  v108
 BYTE   W18
 BYTE   N03
 BYTE   W24
 BYTE   Gn0  v104
 BYTE   W06
 BYTE   N06  Gn1  v127
 BYTE   W12
 BYTE   N03
 BYTE   W30
 BYTE   N02  Gn0  v096
 BYTE   W06
// 025   ----------------------------------------
 BYTE   N13  Fn0  v116
 BYTE   W18
 BYTE   N03  Fn0  v108
 BYTE   W24
 BYTE   N02
 BYTE   W06
 BYTE   N04  Fn1  v116
 BYTE   W12
 BYTE   N04
 BYTE   W18
 BYTE   Fn0  v108
 BYTE   W06
 BYTE   N05  Fn1  v096
 BYTE   W06
 BYTE   N04  En1  v064
 BYTE   W06
// 026   ----------------------------------------
 BYTE   N12  En0  v116
 BYTE   W18
 BYTE   N03  En0  v112
 BYTE   W24
 BYTE   N02  En0  v092
 BYTE   W06
 BYTE   N07  En0  v116
 BYTE   W12
 BYTE   N06  En0  v112
 BYTE   W18
 BYTE   N04  En0  v116
 BYTE   W06
 BYTE   N05  Gn0  v104
 BYTE   W06
 BYTE   N04  An0  v080
 BYTE   W06
// 027   ----------------------------------------
 BYTE   N12  AnM1  v124
 BYTE   W18
 BYTE   N03
 BYTE   W12
 BYTE   N02  AnM1  v100
 BYTE   W06
 BYTE   N03  An1  v112
 BYTE   W06
 BYTE   N02  Gn1  v116
 BYTE   W12
 BYTE   N04  An0
 BYTE   W12
 BYTE   N02  Cn1  v127
 BYTE   W12
 BYTE   Gn0  v096
 BYTE   W06
 BYTE   N04  Gn0  v127
 BYTE   W06
 BYTE   N05  AnM1  v108
 BYTE   W06
// 028   ----------------------------------------
 BYTE   GoTo
  POIN2 Label_3_011F7177
 BYTE   FINE

//**************** Track 5 (Midi-Chn.4) ****************//

RebelstarBGM1_005:
// 000   ----------------------------------------
 BYTE   VOL   100*RebelstarBGM1_mvl/mxv
 BYTE   KEYSH   RebelstarBGM1_key+0
Label_4_011F73DC:
 BYTE   VOICE   5
 BYTE   PAN   c_v-32
 BYTE   N04  An1  v100
 BYTE   W06
 BYTE   N05  An2  v108
 BYTE   W06
 BYTE   N04  An1  v116
 BYTE   W06
 BYTE   An2  v112
 BYTE   W06
 BYTE   An3
 BYTE   W06
 BYTE   An1  v100
 BYTE   W06
 BYTE   N05  An2  v108
 BYTE   W06
 BYTE   N04  An3  v112
 BYTE   W06
 BYTE   N03  An1  v096
 BYTE   W06
 BYTE   N04  An2  v108
 BYTE   W06
 BYTE   An1  v092
 BYTE   W06
 BYTE   N05  An2  v112
 BYTE   W06
 BYTE   An3  v108
 BYTE   W06
 BYTE   N04  An1
 BYTE   W06
 BYTE   N06  An2  v100
 BYTE   W06
 BYTE   N03  An3  v116
 BYTE   W06
// 001   ----------------------------------------
 BYTE   As1  v108
 BYTE   W06
 BYTE   As2  v104
 BYTE   W06
 BYTE   As1  v127
 BYTE   W06
 BYTE   N05  As2  v108
 BYTE   W06
 BYTE   N04  As3  v116
 BYTE   W06
 BYTE   As1  v104
 BYTE   W06
 BYTE   N05  As2
 BYTE   W06
 BYTE   As3  v127
 BYTE   W06
 BYTE   N04  As1  v108
 BYTE   W06
 BYTE   As2
 BYTE   W06
 BYTE   As1  v104
 BYTE   W06
 BYTE   As2  v116
 BYTE   W06
 BYTE   As3  v127
 BYTE   W06
 BYTE   As1  v116
 BYTE   W06
 BYTE   As2
 BYTE   W06
 BYTE   N03  As3  v127
 BYTE   W06
// 002   ----------------------------------------
 BYTE   N04  Ds2  v108
 BYTE   W06
 BYTE   Ds3  v104
 BYTE   W06
 BYTE   Ds2  v116
 BYTE   W06
 BYTE   N05  Ds3  v104
 BYTE   W06
 BYTE   N06  Ds4  v108
 BYTE   W06
 BYTE   N03  Ds2
 BYTE   W06
 BYTE   N05  Ds3
 BYTE   W06
 BYTE   N06  Ds4
 BYTE   W06
 BYTE   N04  Ds2
 BYTE   W06
 BYTE   N05  Ds3  v096
 BYTE   W06
 BYTE   N04  Ds2  v108
 BYTE   W06
 BYTE   N05  Ds3  v104
 BYTE   W06
 BYTE   N07  Ds4  v108
 BYTE   W06
 BYTE   N05  Ds2
 BYTE   W06
 BYTE   N06  Ds3  v104
 BYTE   W06
 BYTE   N05  Ds4  v116
 BYTE   W06
// 003   ----------------------------------------
 BYTE   N04  Ds2  v108
 BYTE   W06
 BYTE   N05  Ds3  v104
 BYTE   W06
 BYTE   N04  Ds2  v108
 BYTE   W06
 BYTE   N05  Ds3
 BYTE   W06
 BYTE   N03  Ds4
 BYTE   W06
 BYTE   N04  Ds2
 BYTE   W06
 BYTE   N06  Ds3
 BYTE   W06
 BYTE   N04  Ds4  v116
 BYTE   W06
 BYTE   N05  En2  v112
 BYTE   W06
 BYTE   N06  En3  v092
 BYTE   W06
 BYTE   N09  En4  v108
 BYTE   W06
 BYTE   N03  En2  v116
 BYTE   W06
 BYTE   N04  Fs2  v100
 BYTE   W06
 BYTE   N05  Fs3  v096
 BYTE   W06
 BYTE   Fs4
 BYTE   W06
 BYTE   N04  Fs2  v116
 BYTE   W06
// 004   ----------------------------------------
 BYTE   En3  v112
 BYTE   W06
 BYTE   N02  Fn3  v096
 BYTE   W06
 BYTE   N03  An3  v092
 BYTE   W06
 BYTE   N02  Cn4
 BYTE   W06
 BYTE   N03  An3
 BYTE   W06
 BYTE   Fn3  v088
 BYTE   W06
 BYTE   N04  En3  v108
 BYTE   W06
 BYTE   N03  Fn3  v096
 BYTE   W06
 BYTE   An3  v088
 BYTE   W06
 BYTE   Cn4  v092
 BYTE   W06
 BYTE   An3  v088
 BYTE   W06
 BYTE   Fn3
 BYTE   W06
 BYTE   En3  v096
 BYTE   W06
 BYTE   N02  Fn3  v092
 BYTE   W06
 BYTE   N03  An3
 BYTE   W06
 BYTE   Cn4  v096
 BYTE   W06
// 005   ----------------------------------------
 BYTE   N04  En3  v076
 BYTE   W06
 BYTE   N03  Fn3  v104
 BYTE   W06
 BYTE   An3  v092
 BYTE   W06
 BYTE   Cn4
 BYTE   W06
 BYTE   An3  v096
 BYTE   W06
 BYTE   Fn3  v092
 BYTE   W06
 BYTE   N04  En3  v096
 BYTE   W06
 BYTE   N02  Fn3  v104
 BYTE   W06
 BYTE   An3  v088
 BYTE   W06
 BYTE   N03  Cn4
 BYTE   W06
 BYTE   N02  An3  v096
 BYTE   W06
 BYTE   N03  Fn3
 BYTE   W06
 BYTE   En3  v100
 BYTE   W06
 BYTE   N02  Fn3  v104
 BYTE   W06
 BYTE   An3  v092
 BYTE   W06
 BYTE   Cn4  v088
 BYTE   W06
// 006   ----------------------------------------
 BYTE   N03  En3  v100
 BYTE   W06
 BYTE   Fn3  v104
 BYTE   W06
 BYTE   N02  An3  v096
 BYTE   W06
 BYTE   Cn4  v084
 BYTE   W06
 BYTE   An3  v100
 BYTE   W06
 BYTE   Fn3  v080
 BYTE   W06
 BYTE   N03  En3  v100
 BYTE   W06
 BYTE   N02  Fn3  v096
 BYTE   W06
 BYTE   An3  v088
 BYTE   W06
 BYTE   Cn4
 BYTE   W06
 BYTE   An3  v108
 BYTE   W06
 BYTE   N03  Fn3  v092
 BYTE   W06
 BYTE   En3  v096
 BYTE   W06
 BYTE   Fn3
 BYTE   W06
 BYTE   An3
 BYTE   W06
 BYTE   Cn4  v108
 BYTE   W06
// 007   ----------------------------------------
 BYTE   As3
 BYTE   W06
 BYTE   Bn3  v088
 BYTE   W06
 BYTE   Ds4  v096
 BYTE   W06
 BYTE   Fs4  v084
 BYTE   W06
 BYTE   N04  Ds4  v104
 BYTE   W06
 BYTE   N03  Bn3  v080
 BYTE   W06
 BYTE   As3  v116
 BYTE   W06
 BYTE   Bn3  v096
 BYTE   W06
 BYTE   Ds4  v108
 BYTE   W06
 BYTE   Fs4  v084
 BYTE   W06
 BYTE   N04  Ds4  v108
 BYTE   W06
 BYTE   N03  Bn3  v092
 BYTE   W06
 BYTE   As3  v116
 BYTE   W06
 BYTE   Bn3  v092
 BYTE   W06
 BYTE   Ds4  v104
 BYTE   W06
 BYTE   Fs4  v084
 BYTE   W06
// 008   ----------------------------------------
 BYTE   En3  v100
 BYTE   N03  As3  v104
 BYTE   W06
 BYTE   Fn3
 BYTE   W06
 BYTE   An3  v108
 BYTE   W06
 BYTE   Cn4
 BYTE   W06
 BYTE   N04  An3
 BYTE   W06
 BYTE   N03  Fn3  v116
 BYTE   W06
 BYTE   En3  v092
 BYTE   W06
 BYTE   Fn3  v108
 BYTE   W06
 BYTE   An3  v116
 BYTE   W06
 BYTE   Cn4
 BYTE   W06
 BYTE   N04  An3  v108
 BYTE   W06
 BYTE   N03  Fn3
 BYTE   W06
 BYTE   En3  v088
 BYTE   W06
 BYTE   Fn3  v104
 BYTE   W06
 BYTE   N04  An3  v116
 BYTE   W06
 BYTE   Cn4
 BYTE   W06
// 009   ----------------------------------------
Label_4_011F75BE:
 BYTE   N03  En3  v096
 BYTE   W06
 BYTE   Fn3  v108
 BYTE   W06
 BYTE   An3  v116
 BYTE   W06
 BYTE   Cn4
 BYTE   W06
 BYTE   N04  An3
 BYTE   W06
 BYTE   N03  Fn3  v108
 BYTE   W06
 BYTE   En3  v088
 BYTE   W06
 BYTE   N04  Fn3  v108
 BYTE   W06
 BYTE   N03  An3  v112
 BYTE   W06
 BYTE   Cn4  v116
 BYTE   W06
 BYTE   N04  An3  v112
 BYTE   W06
 BYTE   N03  Fn3  v108
 BYTE   W06
 BYTE   En3  v096
 BYTE   W06
 BYTE   N04  Fn3  v108
 BYTE   W06
 BYTE   An3
 BYTE   W06
 BYTE   N05  Cn4  v116
 BYTE   W06
 BYTE   PEND 
// 010   ----------------------------------------
Label_4_011F75F5:
 BYTE   N03  En3  v092
 BYTE   W06
 BYTE   Fn3  v108
 BYTE   W06
 BYTE   An3
 BYTE   W06
 BYTE   Cn4
 BYTE   W06
 BYTE   N05  An3  v112
 BYTE   W06
 BYTE   N03  Fn3  v108
 BYTE   W06
 BYTE   N04  En3  v084
 BYTE   W06
 BYTE   N03  Fn3  v104
 BYTE   W06
 BYTE   An3  v108
 BYTE   W06
 BYTE   Cn4
 BYTE   W06
 BYTE   N05  An3  v112
 BYTE   W06
 BYTE   N02  Fn3  v108
 BYTE   W06
 BYTE   N03  En3  v092
 BYTE   W06
 BYTE   N04  Fn3  v108
 BYTE   W06
 BYTE   N03  An3  v116
 BYTE   W06
 BYTE   N04  Cn4
 BYTE   W06
 BYTE   PEND 
// 011   ----------------------------------------
Label_4_011F762D:
 BYTE   N03  En3  v096
 BYTE   W06
 BYTE   N04  Fn3  v108
 BYTE   W06
 BYTE   N03  An3  v124
 BYTE   W06
 BYTE   Cn4  v108
 BYTE   W06
 BYTE   An3  v112
 BYTE   W06
 BYTE   Fn3  v108
 BYTE   W06
 BYTE   En3  v088
 BYTE   W06
 BYTE   Fn3  v096
 BYTE   W06
 BYTE   An3  v108
 BYTE   W06
 BYTE   Cn4
 BYTE   W06
 BYTE   N05  An3  v100
 BYTE   W06
 BYTE   N03  Fn3  v104
 BYTE   W06
 BYTE   En3  v096
 BYTE   W06
 BYTE   Fn3  v108
 BYTE   W06
 BYTE   N04  An3
 BYTE   W06
 BYTE   N03  Cn4  v116
 BYTE   W06
 BYTE   PEND 
// 012   ----------------------------------------
Label_4_011F7663:
 BYTE   N03  En3  v100
 BYTE   W06
 BYTE   Fn3  v104
 BYTE   W06
 BYTE   An3  v108
 BYTE   W06
 BYTE   Cn4
 BYTE   W06
 BYTE   N04  An3
 BYTE   W06
 BYTE   N03  Fn3  v116
 BYTE   W06
 BYTE   En3  v092
 BYTE   W06
 BYTE   Fn3  v108
 BYTE   W06
 BYTE   An3  v116
 BYTE   W06
 BYTE   Cn4
 BYTE   W06
 BYTE   N04  An3  v108
 BYTE   W06
 BYTE   N03  Fn3
 BYTE   W06
 BYTE   En3  v088
 BYTE   W06
 BYTE   Fn3  v104
 BYTE   W06
 BYTE   N04  An3  v116
 BYTE   W06
 BYTE   Cn4
 BYTE   W06
 BYTE   PEND 
 BYTE   PATT
  POIN2 Label_4_011F75BE
 BYTE   PATT
  POIN2 Label_4_011F75F5
 BYTE   PATT
  POIN2 Label_4_011F762D
 BYTE   PATT
  POIN2 Label_4_011F7663
 BYTE   PATT
  POIN2 Label_4_011F75BE
 BYTE   PATT
  POIN2 Label_4_011F75F5
 BYTE   PATT
  POIN2 Label_4_011F762D
 BYTE   PATT
  POIN2 Label_4_011F7663
 BYTE   PATT
  POIN2 Label_4_011F75BE
 BYTE   PATT
  POIN2 Label_4_011F75F5
 BYTE   PATT
  POIN2 Label_4_011F762D
 BYTE   PATT
  POIN2 Label_4_011F7663
 BYTE   PATT
  POIN2 Label_4_011F75BE
 BYTE   PATT
  POIN2 Label_4_011F75F5
 BYTE   PATT
  POIN2 Label_4_011F762D
// 013   ----------------------------------------
 BYTE   GoTo
  POIN2 Label_4_011F73DC
 BYTE   FINE

//**************** Track 6 (Midi-Chn.5) ****************//

RebelstarBGM1_006:
// 000   ----------------------------------------
 BYTE   VOL   100*RebelstarBGM1_mvl/mxv
 BYTE   KEYSH   RebelstarBGM1_key+0
Label_5_011F76EA:
 BYTE   VOICE   0
 BYTE   N02  FsM2  v112
 BYTE   W06
 BYTE   N04  FsM2  v108
 BYTE   W30
 BYTE   N01  GnM2
 BYTE   W06
 BYTE   N03  GnM2  v116
 BYTE   W54
// 001   ----------------------------------------
 BYTE   N02  FsM2
 BYTE   W06
 BYTE   N04  FsM2  v124
 BYTE   W30
 BYTE   N02  GnM2  v116
 BYTE   W06
 BYTE   N03  GnM2  v108
 BYTE   W30
 BYTE   GsM2  v127
 BYTE   W06
 BYTE   N04  GsM2  v112
 BYTE   W18
// 002   ----------------------------------------
 BYTE   N02  FsM2  v124
 BYTE   W06
 BYTE   N04  FsM2  v116
 BYTE   W30
 BYTE   N02  GnM2
 BYTE   W06
 BYTE   N03
 BYTE   W54
// 003   ----------------------------------------
 BYTE   N02  FsM2
 BYTE   W06
 BYTE   N04  FsM2  v112
 BYTE   W30
 BYTE   N02  GnM2  v108
 BYTE   W06
 BYTE   N03  GnM2  v116
 BYTE   W30
 BYTE   GsM2  v127
 BYTE   W06
 BYTE   GsM2  v116
 BYTE   W12
 BYTE   N02  GsM2  v124
 BYTE   W06
// 004   ----------------------------------------
 BYTE   FsM2
 BYTE   W06
 BYTE   N04  FsM2  v108
 BYTE   W18
 BYTE   GnM2  v116
 BYTE   W12
 BYTE   N03  GsM2
 BYTE   W06
 BYTE   N02  GsM2  v080
 BYTE   W30
 BYTE   GnM2  v108
 BYTE   W06
 BYTE   N03  GnM2  v104
 BYTE   W18
// 005   ----------------------------------------
 BYTE   FsM2  v116
 BYTE   W06
 BYTE   N04  FsM2  v112
 BYTE   W30
 BYTE   N02  GnM2  v108
 BYTE   W06
 BYTE   N03  GnM2  v104
 BYTE   W18
 BYTE   N06  GsM2  v127
 BYTE   W12
 BYTE   N05  GnM2  v104
 BYTE   W06
 BYTE   N07  GsM2  v124
 BYTE   W18
// 006   ----------------------------------------
 BYTE   N02  FsM2  v116
 BYTE   W06
 BYTE   N04  FsM2  v112
 BYTE   W30
 BYTE   N01  GnM2  v108
 BYTE   W06
 BYTE   N02
 BYTE   W42
 BYTE   GsM2  v112
 BYTE   W06
 BYTE   GsM2  v088
 BYTE   W06
// 007   ----------------------------------------
 BYTE   N09  FsM2  v112
 BYTE   W24
 BYTE   N06
 BYTE   W24
 BYTE   N02  GsM2
 BYTE   W06
 BYTE   GsM2  v084
 BYTE   W06
 BYTE   GsM2  v080
 BYTE   W06
 BYTE   GsM2  v092
 BYTE   W06
 BYTE   GsM2  v088
 BYTE   W06
 BYTE   N03  GsM2  v084
 BYTE   W06
 BYTE   N02  FsM2  v108
 BYTE   W06
 BYTE   N02
 BYTE   W06
// 008   ----------------------------------------
 BYTE   FsM2  v112
 BYTE   W06
 BYTE   N03  FsM2  v096
 BYTE   W06
 BYTE   N01  GnM2
 BYTE   W06
 BYTE   N03  GnM2  v080
 BYTE   W06
 BYTE   N04  GsM2  v124
 BYTE   W12
 BYTE   FsM2  v112
 BYTE   W06
 BYTE   N02  GnM2  v076
 BYTE   W06
 BYTE   N01  GnM2  v104
 BYTE   W06
 BYTE   N02  GnM2  v096
 BYTE   W06
 BYTE   GnM2  v084
 BYTE   W06
 BYTE   N03  GnM2  v072
 BYTE   W06
 BYTE   GsM2  v116
 BYTE   W06
 BYTE   N06  FsM2  v112
 BYTE   W12
 BYTE   N04  GnM2  v104
 BYTE   W06
// 009   ----------------------------------------
 BYTE   FsM2  v108
 BYTE   W06
 BYTE   GnM2  v104
 BYTE   W06
 BYTE   FsM2  v112
 BYTE   W06
 BYTE   GnM2  v104
 BYTE   W06
 BYTE   GsM2  v127
 BYTE   W06
 BYTE   GnM2  v104
 BYTE   W06
 BYTE   N02  FsM2  v100
 BYTE   W06
 BYTE   N04  FsM2  v108
 BYTE   W12
 BYTE   N01  GnM2  v104
 BYTE   W06
 BYTE   N03  GnM2  v108
 BYTE   W06
 BYTE   N02  FsM2  v092
 BYTE   W06
 BYTE   N04  GsM2  v127
 BYTE   W06
 BYTE   N02  GnM2  v084
 BYTE   W06
 BYTE   GnM2  v104
 BYTE   W06
 BYTE   N03  GnM2  v092
 BYTE   W06
// 010   ----------------------------------------
 BYTE   N02  FsM2  v112
 BYTE   W06
 BYTE   N04  FsM2  v108
 BYTE   W06
 BYTE   N02  GnM2  v104
 BYTE   W06
 BYTE   N03
 BYTE   W06
 BYTE   N04  GsM2  v116
 BYTE   W06
 BYTE   GnM2  v104
 BYTE   W06
 BYTE   FsM2  v116
 BYTE   W06
 BYTE   GnM2  v096
 BYTE   W06
 BYTE   N05  FsM2  v112
 BYTE   W06
 BYTE   N01  GnM2  v092
 BYTE   W06
 BYTE   N04  GnM2  v104
 BYTE   W12
 BYTE   GsM2  v127
 BYTE   W06
 BYTE   N02  GnM2  v088
 BYTE   W06
 BYTE   N04  GnM2  v104
 BYTE   W06
 BYTE   N01  FsM2  v092
 BYTE   W06
// 011   ----------------------------------------
 BYTE   N02  FsM2  v112
 BYTE   W06
 BYTE   N04  FsM2  v108
 BYTE   W06
 BYTE   N01  GnM2  v096
 BYTE   W06
 BYTE   N03  GnM2  v080
 BYTE   W06
 BYTE   N04  GsM2  v116
 BYTE   W06
 BYTE   GnM2  v096
 BYTE   W06
 BYTE   N03  FsM2  v112
 BYTE   W06
 BYTE   N04  GnM2  v096
 BYTE   W06
 BYTE   FsM2  v112
 BYTE   W06
 BYTE   N02  GnM2  v092
 BYTE   W06
 BYTE   N04  GnM2  v096
 BYTE   W06
 BYTE   N02  FsM2  v100
 BYTE   W06
 BYTE   N03  GsM2  v124
 BYTE   W06
 BYTE   GsM2  v092
 BYTE   W06
 BYTE   N04  GnM2  v104
 BYTE   W06
 BYTE   N03  GsM2  v116
 BYTE   W06
// 012   ----------------------------------------
Label_5_011F7877:
 BYTE   N02  FsM2  v092
 BYTE   W06
 BYTE   N04  FsM2  v100
 BYTE   W06
 BYTE   N02  GnM2  v108
 BYTE   W06
 BYTE   N03  GnM2  v096
 BYTE   W06
 BYTE   N04  GsM2  v116
 BYTE   W06
 BYTE   GnM2  v096
 BYTE   W06
 BYTE   N03  FsM2  v108
 BYTE   W06
 BYTE   N05  GnM2  v088
 BYTE   W06
 BYTE   N04  FsM2  v112
 BYTE   W06
 BYTE   N01  GnM2  v080
 BYTE   W06
 BYTE   N05  GnM2  v104
 BYTE   W12
 BYTE   N04  GsM2  v124
 BYTE   W06
 BYTE   N02  GnM2  v096
 BYTE   W06
 BYTE   N03  GnM2  v104
 BYTE   W06
 BYTE   N02  FsM2  v100
 BYTE   W06
 BYTE   PEND 
// 013   ----------------------------------------
Label_5_011F78B3:
 BYTE   N02  FsM2  v116
 BYTE   W06
 BYTE   N04  FsM2  v108
 BYTE   W06
 BYTE   N02  GnM2  v104
 BYTE   W06
 BYTE   N04  GnM2  v092
 BYTE   W06
 BYTE   GsM2  v112
 BYTE   W06
 BYTE   GnM2  v096
 BYTE   W06
 BYTE   N03  FsM2  v108
 BYTE   W06
 BYTE   N04  GnM2  v096
 BYTE   W06
 BYTE   FsM2  v112
 BYTE   W06
 BYTE   N01  GnM2  v096
 BYTE   W06
 BYTE   N04  GnM2  v108
 BYTE   W12
 BYTE   GsM2  v124
 BYTE   W06
 BYTE   N02  GnM2  v096
 BYTE   W06
 BYTE   N04  GnM2  v108
 BYTE   W06
 BYTE   N01  FsM2  v096
 BYTE   W06
 BYTE   PEND 
// 014   ----------------------------------------
Label_5_011F78EC:
 BYTE   N02  FsM2  v108
 BYTE   W06
 BYTE   N04
 BYTE   W06
 BYTE   N02  GnM2  v096
 BYTE   W06
 BYTE   N03  GnM2  v092
 BYTE   W06
 BYTE   GsM2  v116
 BYTE   W06
 BYTE   GnM2  v104
 BYTE   W06
 BYTE   FsM2  v112
 BYTE   W06
 BYTE   N04  GnM2  v096
 BYTE   W06
 BYTE   FsM2  v116
 BYTE   W06
 BYTE   N01  GnM2  v092
 BYTE   W06
 BYTE   N05  GnM2  v116
 BYTE   W12
 BYTE   N04  GsM2  v124
 BYTE   W06
 BYTE   N02  GnM2  v092
 BYTE   W06
 BYTE   N04  GnM2  v104
 BYTE   W06
 BYTE   N01  FsM2  v092
 BYTE   W06
 BYTE   PEND 
// 015   ----------------------------------------
Label_5_011F7923:
 BYTE   N04  FsM2  v112
 BYTE   W06
 BYTE   N01  GnM2  v092
 BYTE   W06
 BYTE   N04  GnM2  v104
 BYTE   W12
 BYTE   GsM2  v116
 BYTE   W06
 BYTE   N03  GnM2  v104
 BYTE   W06
 BYTE   FsM2  v108
 BYTE   W06
 BYTE   N04  GnM2  v104
 BYTE   W06
 BYTE   FsM2  v108
 BYTE   W06
 BYTE   N01  GnM2  v080
 BYTE   W06
 BYTE   N04  GnM2  v104
 BYTE   W06
 BYTE   N02  FsM2  v092
 BYTE   W06
 BYTE   N04  GsM2  v116
 BYTE   W06
 BYTE   GnM2  v104
 BYTE   W06
 BYTE   N03  FsM2  v108
 BYTE   W06
 BYTE   N04  GnM2  v104
 BYTE   W06
 BYTE   PEND 
// 016   ----------------------------------------
Label_5_011F795C:
 BYTE   N04  FsM2  v108
 BYTE   W06
 BYTE   N01  GnM2  v096
 BYTE   W06
 BYTE   N04  GnM2  v104
 BYTE   W06
 BYTE   N02  FsM2  v092
 BYTE   W06
 BYTE   N04  GsM2  v116
 BYTE   W06
 BYTE   GnM2  v096
 BYTE   W06
 BYTE   N03  FsM2
 BYTE   W06
 BYTE   N04  GnM2  v084
 BYTE   W06
 BYTE   FsM2  v116
 BYTE   W06
 BYTE   N01  GnM2  v088
 BYTE   W06
 BYTE   N05  GnM2  v104
 BYTE   W12
 BYTE   N04  GsM2  v116
 BYTE   W06
 BYTE   N02  GnM2  v080
 BYTE   W06
 BYTE   N04  GnM2  v096
 BYTE   W12
 BYTE   PEND 
// 017   ----------------------------------------
Label_5_011F7992:
 BYTE   N03  FsM2  v116
 BYTE   W06
 BYTE   N02  GnM2  v088
 BYTE   W06
 BYTE   N04  GnM2  v096
 BYTE   W12
 BYTE   GsM2  v124
 BYTE   W06
 BYTE   GnM2  v092
 BYTE   W06
 BYTE   N03  FsM2  v096
 BYTE   W06
 BYTE   N04  GnM2  v104
 BYTE   W06
 BYTE   FsM2  v108
 BYTE   W06
 BYTE   N01  GnM2  v104
 BYTE   W06
 BYTE   N04
 BYTE   W12
 BYTE   GsM2  v124
 BYTE   W06
 BYTE   N02  GnM2  v096
 BYTE   W06
 BYTE   N05  GnM2  v104
 BYTE   W12
 BYTE   PEND 
// 018   ----------------------------------------
Label_5_011F79C1:
 BYTE   N04  FsM2  v116
 BYTE   W06
 BYTE   N02  GnM2  v104
 BYTE   W06
 BYTE   N04
 BYTE   W06
 BYTE   N02  FsM2  v108
 BYTE   W06
 BYTE   N04  GsM2  v116
 BYTE   W06
 BYTE   GnM2  v108
 BYTE   W06
 BYTE   FsM2  v112
 BYTE   W06
 BYTE   GnM2  v104
 BYTE   W06
 BYTE   FsM2  v112
 BYTE   W06
 BYTE   N01  GnM2  v092
 BYTE   W06
 BYTE   N05  GnM2  v104
 BYTE   W12
 BYTE   N04  GsM2  v124
 BYTE   W06
 BYTE   N01  GnM2  v084
 BYTE   W06
 BYTE   N03  GnM2  v104
 BYTE   W06
 BYTE   N02  FsM2  v112
 BYTE   W06
 BYTE   PEND 
// 019   ----------------------------------------
Label_5_011F79F8:
 BYTE   N02  FsM2  v112
 BYTE   W06
 BYTE   N04  FsM2  v108
 BYTE   W06
 BYTE   N02  GnM2  v096
 BYTE   W06
 BYTE   N04  GnM2  v092
 BYTE   W06
 BYTE   GsM2  v116
 BYTE   W06
 BYTE   GnM2  v096
 BYTE   W06
 BYTE   N03  FsM2  v108
 BYTE   W06
 BYTE   N04  GnM2  v096
 BYTE   W06
 BYTE   FsM2  v112
 BYTE   W06
 BYTE   N01  GnM2  v092
 BYTE   W06
 BYTE   N04  GnM2  v096
 BYTE   W06
 BYTE   N02  FsM2  v100
 BYTE   W06
 BYTE   N04  GsM2  v116
 BYTE   W06
 BYTE   N02  GnM2  v096
 BYTE   W06
 BYTE   GnM2  v092
 BYTE   W06
 BYTE   N03  GnM2  v104
 BYTE   W06
 BYTE   PEND 
 BYTE   PATT
  POIN2 Label_5_011F7877
 BYTE   PATT
  POIN2 Label_5_011F78B3
 BYTE   PATT
  POIN2 Label_5_011F78EC
 BYTE   PATT
  POIN2 Label_5_011F7923
 BYTE   PATT
  POIN2 Label_5_011F795C
 BYTE   PATT
  POIN2 Label_5_011F7992
 BYTE   PATT
  POIN2 Label_5_011F79C1
 BYTE   PATT
  POIN2 Label_5_011F79F8
// 020   ----------------------------------------
 BYTE   GoTo
  POIN2 Label_5_011F76EA
 BYTE   FINE

//******************************************************//
	ALIGN 4

RebelstarBGM1:
	BYTE	6	// NumTrks
	BYTE	0	// NumBlks
	BYTE	RebelstarBGM1_pri	// Priority
	BYTE	RebelstarBGM1_rev	// Reverb.
    
	POIN2	RebelstarBGM1_grp
    
	POIN2	RebelstarBGM1_001
	POIN2	RebelstarBGM1_002
	POIN2	RebelstarBGM1_003
	POIN2	RebelstarBGM1_004
	POIN2	RebelstarBGM1_005
	POIN2	RebelstarBGM1_006

	
