//Event file generated from Sappy .s format.
	#include "MPlayDef.event"

	#define	Redial_grp  voicegroup000
	#define	Redial_pri  0
	#define	Redial_rev  0
	#define	Redial_mvl  35
	#define	Redial_key  0
	#define	Redial_tbs  1
	#define	Redial_exg  0
	#define	Redial_cmp  1

	// .rodata
	//	Redial
	ALIGN 4

//**************** Track 1 (Midi-Chn.1) ****************//

Redial_1:
	BYTE	KEYSH   Redial_key+0
// 000   ----------------------------------------
	BYTE	TEMPO   145*Redial_tbs/2
	BYTE		VOICE   4
	BYTE		VOL     100*Redial_mvl/mxv
	BYTE	W96
// 001   ----------------------------------------
	BYTE	W96
// 002   ----------------------------------------
	BYTE	W96
// 003   ----------------------------------------
	BYTE	W96
// 004   ----------------------------------------
	BYTE	W96
// 005   ----------------------------------------
Redial_1_005:
	BYTE		N02     Ds3   v127
	BYTE	W03
	BYTE		N08     En3 
	BYTE	W09
	BYTE		N11     Gn3 
	BYTE	W84
	BYTE	PEND
// 006   ----------------------------------------
Redial_1_006:
	BYTE	W12
	BYTE		N02     Gs2   v127
	BYTE	W03
	BYTE		N08     An2 
	BYTE	W09
	BYTE		N11     Cn3 
	BYTE	W12
	BYTE		        An2 
	BYTE	W12
	BYTE		N23     Cn3 
	BYTE	W24
	BYTE		N11     Dn3 
	BYTE	W12
	BYTE		        Cn3 
	BYTE	W12
	BYTE	PEND
// 007   ----------------------------------------
	BYTE		N02     Ds3 
	BYTE	W03
	BYTE		N08     En3 
	BYTE	W09
	BYTE		N11     Gn3 
	BYTE	W24
Redial_1_B1:
	BYTE	W60
// 008   ----------------------------------------
	BYTE	PATT
	 POIN2	Redial_1_006
// 009   ----------------------------------------
	BYTE	PATT
	 POIN2	Redial_1_005
// 010   ----------------------------------------
	BYTE	PATT
	 POIN2	Redial_1_006
// 011   ----------------------------------------
	BYTE	PATT
	 POIN2	Redial_1_005
// 012   ----------------------------------------
	BYTE	PATT
	 POIN2	Redial_1_006
// 013   ----------------------------------------
Redial_1_013:
	BYTE		N02     Ds3   v127
	BYTE		N02     Ds4 
	BYTE	W03
	BYTE		N08     En3 
	BYTE		N08     En4 
	BYTE	W09
	BYTE		N11     Gn3 
	BYTE		N11     Gn4 
	BYTE	W84
	BYTE	PEND
// 014   ----------------------------------------
Redial_1_014:
	BYTE	W12
	BYTE		N02     Gs2   v127
	BYTE		N02     Gs3 
	BYTE	W03
	BYTE		N08     An2 
	BYTE		N08     An3 
	BYTE	W09
	BYTE		N11     Cn3 
	BYTE		N11     Cn4 
	BYTE	W12
	BYTE		        An2 
	BYTE		N11     An3 
	BYTE	W12
	BYTE		N23     Cn3 
	BYTE		N23     Cn4 
	BYTE	W24
	BYTE		N11     Dn3 
	BYTE		N11     Dn4 
	BYTE	W12
	BYTE		        Cn3 
	BYTE		N11     Cn4 
	BYTE	W12
	BYTE	PEND
// 015   ----------------------------------------
	BYTE	PATT
	 POIN2	Redial_1_013
// 016   ----------------------------------------
	BYTE	PATT
	 POIN2	Redial_1_014
// 017   ----------------------------------------
	BYTE	PATT
	 POIN2	Redial_1_013
// 018   ----------------------------------------
	BYTE	PATT
	 POIN2	Redial_1_014
// 019   ----------------------------------------
	BYTE	PATT
	 POIN2	Redial_1_013
// 020   ----------------------------------------
	BYTE	PATT
	 POIN2	Redial_1_014
// 021   ----------------------------------------
	BYTE	W96
// 022   ----------------------------------------
	BYTE	W96
// 023   ----------------------------------------
	BYTE	W96
// 024   ----------------------------------------
	BYTE	W96
// 025   ----------------------------------------
	BYTE	W96
// 026   ----------------------------------------
	BYTE	W96
// 027   ----------------------------------------
	BYTE	W96
// 028   ----------------------------------------
	BYTE	W96
// 029   ----------------------------------------
	BYTE	W96
// 030   ----------------------------------------
	BYTE	W96
// 031   ----------------------------------------
	BYTE	W96
// 032   ----------------------------------------
	BYTE	W96
// 033   ----------------------------------------
	BYTE	W96
// 034   ----------------------------------------
	BYTE	W96
// 035   ----------------------------------------
	BYTE	W96
// 036   ----------------------------------------
	BYTE	W96
// 037   ----------------------------------------
	BYTE	PATT
	 POIN2	Redial_1_005
// 038   ----------------------------------------
	BYTE	PATT
	 POIN2	Redial_1_006
// 039   ----------------------------------------
	BYTE		N02     Ds3   v127
	BYTE	W03
	BYTE		N08     En3 
	BYTE	W09
	BYTE		N11     Gn3 
	BYTE	W28
	BYTE	W01
	BYTE	GoTo
	 POIN2	Redial_1_B1
Redial_1_B2:
	BYTE	W54
	BYTE	W01
// 040   ----------------------------------------
	BYTE	PATT
	 POIN2	Redial_1_006
// 041   ----------------------------------------
	BYTE	PATT
	 POIN2	Redial_1_005
// 042   ----------------------------------------
	BYTE	PATT
	 POIN2	Redial_1_006
// 043   ----------------------------------------
	BYTE	PATT
	 POIN2	Redial_1_005
// 044   ----------------------------------------
	BYTE	PATT
	 POIN2	Redial_1_006
// 045   ----------------------------------------
	BYTE	PATT
	 POIN2	Redial_1_013
// 046   ----------------------------------------
	BYTE	PATT
	 POIN2	Redial_1_014
// 047   ----------------------------------------
	BYTE	PATT
	 POIN2	Redial_1_013
// 048   ----------------------------------------
	BYTE	PATT
	 POIN2	Redial_1_014
// 049   ----------------------------------------
	BYTE	PATT
	 POIN2	Redial_1_013
// 050   ----------------------------------------
	BYTE	PATT
	 POIN2	Redial_1_014
// 051   ----------------------------------------
	BYTE	PATT
	 POIN2	Redial_1_013
// 052   ----------------------------------------
	BYTE	PATT
	 POIN2	Redial_1_014
// 053   ----------------------------------------
	BYTE	W96
// 054   ----------------------------------------
	BYTE	W96
// 055   ----------------------------------------
	BYTE	W96
// 056   ----------------------------------------
	BYTE	W96
// 057   ----------------------------------------
	BYTE	W96
// 058   ----------------------------------------
	BYTE	W96
// 059   ----------------------------------------
	BYTE	W96
// 060   ----------------------------------------
	BYTE	W96
// 061   ----------------------------------------
	BYTE	W96
// 062   ----------------------------------------
	BYTE	W96
// 063   ----------------------------------------
	BYTE	W96
// 064   ----------------------------------------
	BYTE	W96
// 065   ----------------------------------------
	BYTE	W96
// 066   ----------------------------------------
	BYTE	W96
// 067   ----------------------------------------
	BYTE	W96
// 068   ----------------------------------------
	BYTE	W96
// 069   ----------------------------------------
	BYTE	W92
	BYTE	W03
	BYTE	FINE

//**************** Track 2 (Midi-Chn.2) ****************//

Redial_2:
	BYTE	KEYSH   Redial_key+0
// 000   ----------------------------------------
	BYTE		VOICE   4
	BYTE	W72
	BYTE		VOL     100*Redial_mvl/mxv
	BYTE	W24
// 001   ----------------------------------------
	BYTE	W96
// 002   ----------------------------------------
	BYTE	W96
// 003   ----------------------------------------
	BYTE	W96
// 004   ----------------------------------------
	BYTE	W96
// 005   ----------------------------------------
	BYTE		N92     Cn3   v127
	BYTE		N92     En3 
	BYTE	W96
// 006   ----------------------------------------
Redial_2_006:
	BYTE		N44     An2   v127
	BYTE		N44     Cn3 
	BYTE	W48
	BYTE		        Bn2 
	BYTE		N44     Dn3 
	BYTE	W48
	BYTE	PEND
// 007   ----------------------------------------
	BYTE		N92     Cn3 
	BYTE		N92     En3 
	BYTE	W36
Redial_2_B1:
	BYTE	W60
// 008   ----------------------------------------
	BYTE	PATT
	 POIN2	Redial_2_006
// 009   ----------------------------------------
	BYTE		N92     Cn3   v127
	BYTE		N92     En3 
	BYTE	W96
// 010   ----------------------------------------
	BYTE	PATT
	 POIN2	Redial_2_006
// 011   ----------------------------------------
	BYTE		N92     Cn3   v127
	BYTE		N92     En3 
	BYTE	W96
// 012   ----------------------------------------
	BYTE	PATT
	 POIN2	Redial_2_006
// 013   ----------------------------------------
	BYTE		N92     Cn3   v127
	BYTE		N92     En3 
	BYTE	W96
// 014   ----------------------------------------
	BYTE	PATT
	 POIN2	Redial_2_006
// 015   ----------------------------------------
	BYTE		N92     Cn3   v127
	BYTE		N92     En3 
	BYTE	W96
// 016   ----------------------------------------
	BYTE	PATT
	 POIN2	Redial_2_006
// 017   ----------------------------------------
	BYTE		N92     Cn3   v127
	BYTE		N92     En3 
	BYTE	W96
// 018   ----------------------------------------
	BYTE	PATT
	 POIN2	Redial_2_006
// 019   ----------------------------------------
	BYTE		N92     Cn3   v127
	BYTE		N92     En3 
	BYTE	W96
// 020   ----------------------------------------
	BYTE	PATT
	 POIN2	Redial_2_006
// 021   ----------------------------------------
	BYTE	W96
// 022   ----------------------------------------
	BYTE	W96
// 023   ----------------------------------------
	BYTE	W96
// 024   ----------------------------------------
	BYTE	W96
// 025   ----------------------------------------
	BYTE	W96
// 026   ----------------------------------------
	BYTE	W96
// 027   ----------------------------------------
	BYTE	W96
// 028   ----------------------------------------
	BYTE	W96
// 029   ----------------------------------------
	BYTE	W96
// 030   ----------------------------------------
	BYTE	W96
// 031   ----------------------------------------
	BYTE	W96
// 032   ----------------------------------------
	BYTE	W96
// 033   ----------------------------------------
	BYTE	W96
// 034   ----------------------------------------
	BYTE	W96
// 035   ----------------------------------------
	BYTE	W96
// 036   ----------------------------------------
	BYTE	W96
// 037   ----------------------------------------
	BYTE		N92     Cn3   v127
	BYTE		N92     En3 
	BYTE	W96
// 038   ----------------------------------------
	BYTE	PATT
	 POIN2	Redial_2_006
// 039   ----------------------------------------
	BYTE		N92     Cn3   v127
	BYTE		N92     En3 
	BYTE	W40
	BYTE	W01
	BYTE	GoTo
	 POIN2	Redial_2_B1
Redial_2_B2:
	BYTE	W54
	BYTE	W01
// 040   ----------------------------------------
	BYTE	PATT
	 POIN2	Redial_2_006
// 041   ----------------------------------------
	BYTE		N92     Cn3   v127
	BYTE		N92     En3 
	BYTE	W96
// 042   ----------------------------------------
	BYTE	PATT
	 POIN2	Redial_2_006
// 043   ----------------------------------------
	BYTE		N92     Cn3   v127
	BYTE		N92     En3 
	BYTE	W96
// 044   ----------------------------------------
	BYTE	PATT
	 POIN2	Redial_2_006
// 045   ----------------------------------------
	BYTE		N92     Cn3   v127
	BYTE		N92     En3 
	BYTE	W96
// 046   ----------------------------------------
	BYTE	PATT
	 POIN2	Redial_2_006
// 047   ----------------------------------------
	BYTE		N92     Cn3   v127
	BYTE		N92     En3 
	BYTE	W96
// 048   ----------------------------------------
	BYTE	PATT
	 POIN2	Redial_2_006
// 049   ----------------------------------------
	BYTE		N92     Cn3   v127
	BYTE		N92     En3 
	BYTE	W96
// 050   ----------------------------------------
	BYTE	PATT
	 POIN2	Redial_2_006
// 051   ----------------------------------------
	BYTE		N92     Cn3   v127
	BYTE		N92     En3 
	BYTE	W96
// 052   ----------------------------------------
	BYTE	PATT
	 POIN2	Redial_2_006
// 053   ----------------------------------------
	BYTE	W96
// 054   ----------------------------------------
	BYTE	W96
// 055   ----------------------------------------
	BYTE	W96
// 056   ----------------------------------------
	BYTE	W96
// 057   ----------------------------------------
	BYTE	W96
// 058   ----------------------------------------
	BYTE	W96
// 059   ----------------------------------------
	BYTE	W96
// 060   ----------------------------------------
	BYTE	W96
// 061   ----------------------------------------
	BYTE	W96
// 062   ----------------------------------------
	BYTE	W96
// 063   ----------------------------------------
	BYTE	W96
// 064   ----------------------------------------
	BYTE	W96
// 065   ----------------------------------------
	BYTE	W96
// 066   ----------------------------------------
	BYTE	W96
// 067   ----------------------------------------
	BYTE	W96
// 068   ----------------------------------------
	BYTE	W96
// 069   ----------------------------------------
	BYTE	W92
	BYTE	W03
	BYTE	FINE

//**************** Track 3 (Midi-Chn.3) ****************//

Redial_3:
	BYTE	KEYSH   Redial_key+0
// 000   ----------------------------------------
	BYTE		VOICE   39
	BYTE		VOL     119*Redial_mvl/mxv
	BYTE	W96
// 001   ----------------------------------------
	BYTE	W96
// 002   ----------------------------------------
	BYTE	W96
// 003   ----------------------------------------
	BYTE	W96
// 004   ----------------------------------------
	BYTE	W96
// 005   ----------------------------------------
Redial_3_005:
	BYTE		N11     Fn0   v127
	BYTE	W12
	BYTE		        Fn1 
	BYTE	W24
	BYTE		        Fn0 
	BYTE	W12
	BYTE		N32     Fn1 
	BYTE	W36
	BYTE		N11     Fn0 
	BYTE	W12
	BYTE	PEND
// 006   ----------------------------------------
Redial_3_006:
	BYTE		N11     Dn0   v127
	BYTE	W12
	BYTE		        Dn1 
	BYTE	W24
	BYTE		        Dn0 
	BYTE	W12
	BYTE		        En0 
	BYTE	W12
	BYTE		        En1 
	BYTE	W24
	BYTE		        En0 
	BYTE	W12
	BYTE	PEND
// 007   ----------------------------------------
	BYTE		        Fn0 
	BYTE	W12
	BYTE		        Fn1 
	BYTE	W24
Redial_3_B1:
	BYTE		N11     Fn0   v127
	BYTE	W12
	BYTE		N32     Fn1 
	BYTE	W36
	BYTE		N11     Fn0 
	BYTE	W12
// 008   ----------------------------------------
	BYTE	PATT
	 POIN2	Redial_3_006
// 009   ----------------------------------------
	BYTE	PATT
	 POIN2	Redial_3_005
// 010   ----------------------------------------
	BYTE	PATT
	 POIN2	Redial_3_006
// 011   ----------------------------------------
	BYTE	PATT
	 POIN2	Redial_3_005
// 012   ----------------------------------------
	BYTE	PATT
	 POIN2	Redial_3_006
// 013   ----------------------------------------
	BYTE	PATT
	 POIN2	Redial_3_005
// 014   ----------------------------------------
	BYTE	PATT
	 POIN2	Redial_3_006
// 015   ----------------------------------------
	BYTE	PATT
	 POIN2	Redial_3_005
// 016   ----------------------------------------
	BYTE	PATT
	 POIN2	Redial_3_006
// 017   ----------------------------------------
	BYTE	PATT
	 POIN2	Redial_3_005
// 018   ----------------------------------------
	BYTE	PATT
	 POIN2	Redial_3_006
// 019   ----------------------------------------
	BYTE	PATT
	 POIN2	Redial_3_005
// 020   ----------------------------------------
	BYTE	PATT
	 POIN2	Redial_3_006
// 021   ----------------------------------------
	BYTE	W96
// 022   ----------------------------------------
	BYTE	W96
// 023   ----------------------------------------
	BYTE	W96
// 024   ----------------------------------------
	BYTE	W96
// 025   ----------------------------------------
	BYTE	W96
// 026   ----------------------------------------
	BYTE	W96
// 027   ----------------------------------------
	BYTE	W96
// 028   ----------------------------------------
	BYTE	W96
// 029   ----------------------------------------
	BYTE	W96
// 030   ----------------------------------------
	BYTE	W96
// 031   ----------------------------------------
	BYTE	W96
// 032   ----------------------------------------
	BYTE	W96
// 033   ----------------------------------------
	BYTE	W96
// 034   ----------------------------------------
	BYTE	W96
// 035   ----------------------------------------
	BYTE	W96
// 036   ----------------------------------------
	BYTE	W96
// 037   ----------------------------------------
	BYTE	PATT
	 POIN2	Redial_3_005
// 038   ----------------------------------------
	BYTE	PATT
	 POIN2	Redial_3_006
// 039   ----------------------------------------
	BYTE		N11     Fn0   v127
	BYTE	W12
	BYTE		        Fn1 
	BYTE	W24
	BYTE		        Fn0 
	BYTE	W05
	BYTE	GoTo
	 POIN2	Redial_3_B1
Redial_3_B2:
	BYTE	W07
	BYTE		N32     Fn1   v127
	BYTE	W36
	BYTE		N11     Fn0 
	BYTE	W12
// 040   ----------------------------------------
	BYTE	PATT
	 POIN2	Redial_3_006
// 041   ----------------------------------------
	BYTE	PATT
	 POIN2	Redial_3_005
// 042   ----------------------------------------
	BYTE	PATT
	 POIN2	Redial_3_006
// 043   ----------------------------------------
	BYTE	PATT
	 POIN2	Redial_3_005
// 044   ----------------------------------------
	BYTE	PATT
	 POIN2	Redial_3_006
// 045   ----------------------------------------
	BYTE	PATT
	 POIN2	Redial_3_005
// 046   ----------------------------------------
	BYTE	PATT
	 POIN2	Redial_3_006
// 047   ----------------------------------------
	BYTE	PATT
	 POIN2	Redial_3_005
// 048   ----------------------------------------
	BYTE	PATT
	 POIN2	Redial_3_006
// 049   ----------------------------------------
	BYTE	PATT
	 POIN2	Redial_3_005
// 050   ----------------------------------------
	BYTE	PATT
	 POIN2	Redial_3_006
// 051   ----------------------------------------
	BYTE	PATT
	 POIN2	Redial_3_005
// 052   ----------------------------------------
	BYTE	PATT
	 POIN2	Redial_3_006
// 053   ----------------------------------------
	BYTE	W96
// 054   ----------------------------------------
	BYTE	W96
// 055   ----------------------------------------
	BYTE	W96
// 056   ----------------------------------------
	BYTE	W96
// 057   ----------------------------------------
	BYTE	W96
// 058   ----------------------------------------
	BYTE	W96
// 059   ----------------------------------------
	BYTE	W96
// 060   ----------------------------------------
	BYTE	W96
// 061   ----------------------------------------
	BYTE	W96
// 062   ----------------------------------------
	BYTE	W96
// 063   ----------------------------------------
	BYTE	W96
// 064   ----------------------------------------
	BYTE	W96
// 065   ----------------------------------------
	BYTE	W96
// 066   ----------------------------------------
	BYTE	W96
// 067   ----------------------------------------
	BYTE	W96
// 068   ----------------------------------------
	BYTE	W96
// 069   ----------------------------------------
	BYTE	W92
	BYTE	W03
	BYTE	FINE

//**************** Track 4 (Midi-Chn.4) ****************//

Redial_4:
	BYTE	KEYSH   Redial_key+0
// 000   ----------------------------------------
	BYTE		VOICE   71
	BYTE		VOL     127*Redial_mvl/mxv
	BYTE	W96
// 001   ----------------------------------------
	BYTE	W96
// 002   ----------------------------------------
	BYTE	W96
// 003   ----------------------------------------
	BYTE	W96
// 004   ----------------------------------------
	BYTE	W96
// 005   ----------------------------------------
Redial_4_005:
	BYTE		N02     Ds3   v127
	BYTE	W03
	BYTE		N08     En3 
	BYTE	W09
	BYTE		N11     Gn3 
	BYTE	W84
	BYTE	PEND
// 006   ----------------------------------------
Redial_4_006:
	BYTE	W12
	BYTE		N02     Gs2   v127
	BYTE	W03
	BYTE		N08     An2 
	BYTE	W09
	BYTE		N11     Cn3 
	BYTE	W12
	BYTE		        An2 
	BYTE	W12
	BYTE		N23     Cn3 
	BYTE	W24
	BYTE		N11     Dn3 
	BYTE	W12
	BYTE		        Cn3 
	BYTE	W12
	BYTE	PEND
// 007   ----------------------------------------
	BYTE		N02     Ds3 
	BYTE	W03
	BYTE		N08     En3 
	BYTE	W09
	BYTE		N11     Gn3 
	BYTE	W24
Redial_4_B1:
	BYTE	W60
// 008   ----------------------------------------
	BYTE	PATT
	 POIN2	Redial_4_006
// 009   ----------------------------------------
	BYTE	PATT
	 POIN2	Redial_4_005
// 010   ----------------------------------------
	BYTE	PATT
	 POIN2	Redial_4_006
// 011   ----------------------------------------
	BYTE	PATT
	 POIN2	Redial_4_005
// 012   ----------------------------------------
	BYTE	PATT
	 POIN2	Redial_4_006
// 013   ----------------------------------------
Redial_4_013:
	BYTE		N02     Ds3   v127
	BYTE		N02     Ds4 
	BYTE	W03
	BYTE		N08     En3 
	BYTE		N08     En4 
	BYTE	W09
	BYTE		N11     Gn3 
	BYTE		N11     Gn4 
	BYTE	W84
	BYTE	PEND
// 014   ----------------------------------------
Redial_4_014:
	BYTE	W12
	BYTE		N02     Gs2   v127
	BYTE		N02     Gs3 
	BYTE	W03
	BYTE		N08     An2 
	BYTE		N08     An3 
	BYTE	W09
	BYTE		N11     Cn3 
	BYTE		N11     Cn4 
	BYTE	W12
	BYTE		        An2 
	BYTE		N11     An3 
	BYTE	W12
	BYTE		N23     Cn3 
	BYTE		N23     Cn4 
	BYTE	W24
	BYTE		N11     Dn3 
	BYTE		N11     Dn4 
	BYTE	W12
	BYTE		        Cn3 
	BYTE		N11     Cn4 
	BYTE	W12
	BYTE	PEND
// 015   ----------------------------------------
	BYTE	PATT
	 POIN2	Redial_4_013
// 016   ----------------------------------------
	BYTE	PATT
	 POIN2	Redial_4_014
// 017   ----------------------------------------
	BYTE	PATT
	 POIN2	Redial_4_013
// 018   ----------------------------------------
	BYTE	PATT
	 POIN2	Redial_4_014
// 019   ----------------------------------------
	BYTE	PATT
	 POIN2	Redial_4_013
// 020   ----------------------------------------
	BYTE	PATT
	 POIN2	Redial_4_014
// 021   ----------------------------------------
Redial_4_021:
	BYTE		N02     Ds2   v127
	BYTE		N02     Ds3 
	BYTE	W03
	BYTE		N44     En2 
	BYTE		N44     En3 
	BYTE	W44
	BYTE	W01
	BYTE		N23     Dn2 
	BYTE		N23     Dn3 
	BYTE	W24
	BYTE		        An1 
	BYTE		N23     An2 
	BYTE	W24
	BYTE	PEND
// 022   ----------------------------------------
	BYTE	PATT
	 POIN2	Redial_4_021
// 023   ----------------------------------------
Redial_4_023:
	BYTE		N02     Cs2   v127
	BYTE		N02     Cs3 
	BYTE	W03
	BYTE		N44     Dn2 
	BYTE		N44     Dn3 
	BYTE	W44
	BYTE	W01
	BYTE		N23     Cn2 
	BYTE		N23     Cn3 
	BYTE	W24
	BYTE		        Gn1 
	BYTE		N23     Gn2 
	BYTE	W24
	BYTE	PEND
// 024   ----------------------------------------
Redial_4_024:
	BYTE		N02     Cs2   v127
	BYTE		N02     Cs3 
	BYTE	W03
	BYTE		N44     Dn2 
	BYTE		N44     Dn3 
	BYTE	W44
	BYTE	W01
	BYTE		        Cn2 
	BYTE		N44     Cn3 
	BYTE	W48
	BYTE	PEND
// 025   ----------------------------------------
	BYTE	PATT
	 POIN2	Redial_4_023
// 026   ----------------------------------------
Redial_4_026:
	BYTE		N02     Cs2   v127
	BYTE		N02     Cs3 
	BYTE	W03
	BYTE		N44     Dn2 
	BYTE		N44     Dn3 
	BYTE	W44
	BYTE	W01
	BYTE		N23     Cn2 
	BYTE		N23     Cn3 
	BYTE	W24
	BYTE		        As1 
	BYTE		N23     As2 
	BYTE	W24
	BYTE	PEND
// 027   ----------------------------------------
Redial_4_027:
	BYTE		N44     An1   v127
	BYTE		N44     An2 
	BYTE	W48
	BYTE		N23     Gn1 
	BYTE		N23     Gn2 
	BYTE	W24
	BYTE		N02     An1 
	BYTE		N02     An2 
	BYTE	W03
	BYTE		N20     As1 
	BYTE		N20     As2 
	BYTE	W21
	BYTE	PEND
// 028   ----------------------------------------
	BYTE		N92     An1 
	BYTE		N92     An2 
	BYTE	W96
// 029   ----------------------------------------
	BYTE	PATT
	 POIN2	Redial_4_021
// 030   ----------------------------------------
	BYTE	PATT
	 POIN2	Redial_4_021
// 031   ----------------------------------------
	BYTE	PATT
	 POIN2	Redial_4_023
// 032   ----------------------------------------
	BYTE	PATT
	 POIN2	Redial_4_024
// 033   ----------------------------------------
	BYTE	PATT
	 POIN2	Redial_4_023
// 034   ----------------------------------------
	BYTE	PATT
	 POIN2	Redial_4_026
// 035   ----------------------------------------
	BYTE	PATT
	 POIN2	Redial_4_027
// 036   ----------------------------------------
	BYTE		N92     An1   v127
	BYTE		N92     An2 
	BYTE	W96
// 037   ----------------------------------------
	BYTE	PATT
	 POIN2	Redial_4_005
// 038   ----------------------------------------
	BYTE	PATT
	 POIN2	Redial_4_006
// 039   ----------------------------------------
	BYTE		N02     Ds3   v127
	BYTE	W03
	BYTE		N08     En3 
	BYTE	W09
	BYTE		N11     Gn3 
	BYTE	W28
	BYTE	W01
	BYTE	GoTo
	 POIN2	Redial_4_B1
Redial_4_B2:
	BYTE	W54
	BYTE	W01
// 040   ----------------------------------------
	BYTE	PATT
	 POIN2	Redial_4_006
// 041   ----------------------------------------
	BYTE	PATT
	 POIN2	Redial_4_005
// 042   ----------------------------------------
	BYTE	PATT
	 POIN2	Redial_4_006
// 043   ----------------------------------------
	BYTE	PATT
	 POIN2	Redial_4_005
// 044   ----------------------------------------
	BYTE	PATT
	 POIN2	Redial_4_006
// 045   ----------------------------------------
	BYTE	PATT
	 POIN2	Redial_4_013
// 046   ----------------------------------------
	BYTE	PATT
	 POIN2	Redial_4_014
// 047   ----------------------------------------
	BYTE	PATT
	 POIN2	Redial_4_013
// 048   ----------------------------------------
	BYTE	PATT
	 POIN2	Redial_4_014
// 049   ----------------------------------------
	BYTE	PATT
	 POIN2	Redial_4_013
// 050   ----------------------------------------
	BYTE	PATT
	 POIN2	Redial_4_014
// 051   ----------------------------------------
	BYTE	PATT
	 POIN2	Redial_4_013
// 052   ----------------------------------------
	BYTE	PATT
	 POIN2	Redial_4_014
// 053   ----------------------------------------
	BYTE	PATT
	 POIN2	Redial_4_021
// 054   ----------------------------------------
	BYTE	PATT
	 POIN2	Redial_4_021
// 055   ----------------------------------------
	BYTE	PATT
	 POIN2	Redial_4_023
// 056   ----------------------------------------
	BYTE	PATT
	 POIN2	Redial_4_024
// 057   ----------------------------------------
	BYTE	PATT
	 POIN2	Redial_4_023
// 058   ----------------------------------------
	BYTE	PATT
	 POIN2	Redial_4_026
// 059   ----------------------------------------
	BYTE	PATT
	 POIN2	Redial_4_027
// 060   ----------------------------------------
	BYTE		N92     An1   v127
	BYTE		N92     An2 
	BYTE	W96
// 061   ----------------------------------------
	BYTE	PATT
	 POIN2	Redial_4_021
// 062   ----------------------------------------
	BYTE	PATT
	 POIN2	Redial_4_021
// 063   ----------------------------------------
	BYTE	PATT
	 POIN2	Redial_4_023
// 064   ----------------------------------------
	BYTE	PATT
	 POIN2	Redial_4_024
// 065   ----------------------------------------
	BYTE	PATT
	 POIN2	Redial_4_023
// 066   ----------------------------------------
	BYTE	PATT
	 POIN2	Redial_4_026
// 067   ----------------------------------------
	BYTE	PATT
	 POIN2	Redial_4_027
// 068   ----------------------------------------
	BYTE		N92     An1   v127
	BYTE		N92     An2 
	BYTE	W96
// 069   ----------------------------------------
	BYTE	W92
	BYTE	W03
	BYTE	FINE

//**************** Track 5 (Midi-Chn.5) ****************//

Redial_5:
	BYTE	KEYSH   Redial_key+0
// 000   ----------------------------------------
	BYTE		VOICE   51
	BYTE	W96
// 001   ----------------------------------------
	BYTE	W24
	BYTE		VOL     90*Redial_mvl/mxv
	BYTE	W72
// 002   ----------------------------------------
	BYTE	W96
// 003   ----------------------------------------
	BYTE	W96
// 004   ----------------------------------------
	BYTE	W96
// 005   ----------------------------------------
	BYTE	W96
// 006   ----------------------------------------
	BYTE	W96
// 007   ----------------------------------------
	BYTE	W36
Redial_5_B1:
	BYTE	W60
// 008   ----------------------------------------
	BYTE	W96
// 009   ----------------------------------------
	BYTE	W96
// 010   ----------------------------------------
	BYTE	W96
// 011   ----------------------------------------
	BYTE	W96
// 012   ----------------------------------------
	BYTE	W96
// 013   ----------------------------------------
	BYTE	W96
// 014   ----------------------------------------
	BYTE	W96
// 015   ----------------------------------------
	BYTE	W96
// 016   ----------------------------------------
	BYTE	W96
// 017   ----------------------------------------
	BYTE	W96
// 018   ----------------------------------------
	BYTE	W96
// 019   ----------------------------------------
	BYTE	W96
// 020   ----------------------------------------
	BYTE	W96
// 021   ----------------------------------------
Redial_5_021:
	BYTE		TIE     Fn2   v127
	BYTE		TIE     An2 
	BYTE		TIE     Cn3 
	BYTE	W96
	BYTE	PEND
// 022   ----------------------------------------
	BYTE	W92
	BYTE	W03
	BYTE		EOT     Fn2 
	BYTE		        An2 
	BYTE		        Cn3 
	BYTE	W01
// 023   ----------------------------------------
Redial_5_023:
	BYTE		TIE     En2   v127
	BYTE		TIE     Gn2 
	BYTE		TIE     Bn2 
	BYTE	W96
	BYTE	PEND
// 024   ----------------------------------------
	BYTE	W92
	BYTE	W03
	BYTE		EOT     En2 
	BYTE		        Gn2 
	BYTE		        Bn2 
	BYTE	W01
// 025   ----------------------------------------
Redial_5_025:
	BYTE		TIE     Ds2   v127
	BYTE		TIE     Gn2 
	BYTE		TIE     As2 
	BYTE	W96
	BYTE	PEND
// 026   ----------------------------------------
	BYTE	W92
	BYTE	W03
	BYTE		EOT     Ds2 
	BYTE		        Gn2 
	BYTE		        As2 
	BYTE	W01
// 027   ----------------------------------------
Redial_5_027:
	BYTE		N92     Ds2   v127
	BYTE		TIE     An2 
	BYTE		TIE     Cs3 
	BYTE	W96
	BYTE	PEND
// 028   ----------------------------------------
Redial_5_028:
	BYTE		N92     En2   v127
	BYTE	W92
	BYTE	W03
	BYTE	PEND
	BYTE		EOT     An2 
	BYTE		        Cs3 
	BYTE	W01
// 029   ----------------------------------------
	BYTE	PATT
	 POIN2	Redial_5_021
// 030   ----------------------------------------
	BYTE	W92
	BYTE	W03
	BYTE		EOT     Fn2 
	BYTE		        An2 
	BYTE		        Cn3 
	BYTE	W01
// 031   ----------------------------------------
	BYTE	PATT
	 POIN2	Redial_5_023
// 032   ----------------------------------------
	BYTE	W92
	BYTE	W03
	BYTE		EOT     En2 
	BYTE		        Gn2 
	BYTE		        Bn2 
	BYTE	W01
// 033   ----------------------------------------
	BYTE	PATT
	 POIN2	Redial_5_025
// 034   ----------------------------------------
	BYTE	W92
	BYTE	W03
	BYTE		EOT     Ds2 
	BYTE		        Gn2 
	BYTE		        As2 
	BYTE	W01
// 035   ----------------------------------------
	BYTE	PATT
	 POIN2	Redial_5_027
// 036   ----------------------------------------
	BYTE	PATT
	 POIN2	Redial_5_028
	BYTE		EOT     An2 
	BYTE		        Cs3 
	BYTE	W01
// 037   ----------------------------------------
	BYTE	W96
// 038   ----------------------------------------
	BYTE	W96
// 039   ----------------------------------------
	BYTE	W40
	BYTE	W01
	BYTE	GoTo
	 POIN2	Redial_5_B1
Redial_5_B2:
	BYTE	W54
	BYTE	W01
// 040   ----------------------------------------
	BYTE	W96
// 041   ----------------------------------------
	BYTE	W96
// 042   ----------------------------------------
	BYTE	W96
// 043   ----------------------------------------
	BYTE	W96
// 044   ----------------------------------------
	BYTE	W96
// 045   ----------------------------------------
	BYTE	W96
// 046   ----------------------------------------
	BYTE	W96
// 047   ----------------------------------------
	BYTE	W96
// 048   ----------------------------------------
	BYTE	W96
// 049   ----------------------------------------
	BYTE	W96
// 050   ----------------------------------------
	BYTE	W96
// 051   ----------------------------------------
	BYTE	W96
// 052   ----------------------------------------
	BYTE	W96
// 053   ----------------------------------------
	BYTE	PATT
	 POIN2	Redial_5_021
// 054   ----------------------------------------
	BYTE	W92
	BYTE	W03
	BYTE		EOT     Fn2 
	BYTE		        An2 
	BYTE		        Cn3 
	BYTE	W01
// 055   ----------------------------------------
	BYTE	PATT
	 POIN2	Redial_5_023
// 056   ----------------------------------------
	BYTE	W92
	BYTE	W03
	BYTE		EOT     En2 
	BYTE		        Gn2 
	BYTE		        Bn2 
	BYTE	W01
// 057   ----------------------------------------
	BYTE	PATT
	 POIN2	Redial_5_025
// 058   ----------------------------------------
	BYTE	W92
	BYTE	W03
	BYTE		EOT     Ds2 
	BYTE		        Gn2 
	BYTE		        As2 
	BYTE	W01
// 059   ----------------------------------------
	BYTE	PATT
	 POIN2	Redial_5_027
// 060   ----------------------------------------
	BYTE	PATT
	 POIN2	Redial_5_028
	BYTE		EOT     An2 
	BYTE		        Cs3 
	BYTE	W01
// 061   ----------------------------------------
	BYTE	PATT
	 POIN2	Redial_5_021
// 062   ----------------------------------------
	BYTE	W92
	BYTE	W03
	BYTE		EOT     Fn2 
	BYTE		        An2 
	BYTE		        Cn3 
	BYTE	W01
// 063   ----------------------------------------
	BYTE	PATT
	 POIN2	Redial_5_023
// 064   ----------------------------------------
	BYTE	W92
	BYTE	W03
	BYTE		EOT     En2 
	BYTE		        Gn2 
	BYTE		        Bn2 
	BYTE	W01
// 065   ----------------------------------------
	BYTE	PATT
	 POIN2	Redial_5_025
// 066   ----------------------------------------
	BYTE	W92
	BYTE	W03
	BYTE		EOT     Ds2 
	BYTE		        Gn2 
	BYTE		        As2 
	BYTE	W01
// 067   ----------------------------------------
	BYTE	PATT
	 POIN2	Redial_5_027
// 068   ----------------------------------------
	BYTE	PATT
	 POIN2	Redial_5_028
	BYTE		EOT     An2 
	BYTE		        Cs3 
	BYTE	W01
// 069   ----------------------------------------
	BYTE	W92
	BYTE	W03
	BYTE	FINE

//**************** Track 6 (Midi-Chn.6) ****************//

Redial_6:
	BYTE	KEYSH   Redial_key+0
// 000   ----------------------------------------
	BYTE		VOICE   79
	BYTE		VOL     90*Redial_mvl/mxv
	BYTE	W96
// 001   ----------------------------------------
	BYTE	W96
// 002   ----------------------------------------
	BYTE	W96
// 003   ----------------------------------------
	BYTE	W96
// 004   ----------------------------------------
	BYTE	W96
// 005   ----------------------------------------
	BYTE	W96
// 006   ----------------------------------------
	BYTE	W96
// 007   ----------------------------------------
	BYTE	W36
Redial_6_B1:
	BYTE	W60
// 008   ----------------------------------------
	BYTE	W96
// 009   ----------------------------------------
	BYTE	W96
// 010   ----------------------------------------
	BYTE	W96
// 011   ----------------------------------------
	BYTE	W96
// 012   ----------------------------------------
	BYTE	W96
// 013   ----------------------------------------
	BYTE	W96
// 014   ----------------------------------------
	BYTE	W96
// 015   ----------------------------------------
	BYTE	W96
// 016   ----------------------------------------
	BYTE	W96
// 017   ----------------------------------------
	BYTE	W96
// 018   ----------------------------------------
	BYTE	W96
// 019   ----------------------------------------
	BYTE	W96
// 020   ----------------------------------------
	BYTE	W96
// 021   ----------------------------------------
	BYTE	W96
// 022   ----------------------------------------
	BYTE	W96
// 023   ----------------------------------------
	BYTE	W96
// 024   ----------------------------------------
	BYTE	W96
// 025   ----------------------------------------
	BYTE	W96
// 026   ----------------------------------------
	BYTE	W96
// 027   ----------------------------------------
	BYTE	W96
// 028   ----------------------------------------
	BYTE	W96
// 029   ----------------------------------------
Redial_6_029:
	BYTE		BEND    c_v-24
	BYTE		N68     En5   v127
	BYTE	W01
	BYTE		BEND    c_v-24
	BYTE	W01
	BYTE		        c_v-23
	BYTE	W01
	BYTE		        c_v-21
	BYTE	W01
	BYTE		        c_v-20
	BYTE	W01
	BYTE		        c_v-20
	BYTE	W01
	BYTE		        c_v-18
	BYTE	W01
	BYTE		        c_v-17
	BYTE	W01
	BYTE		        c_v-16
	BYTE	W01
	BYTE		        c_v-15
	BYTE	W01
	BYTE		        c_v-14
	BYTE	W01
	BYTE		        c_v-13
	BYTE	W01
	BYTE		        c_v-12
	BYTE	W01
	BYTE		        c_v-11
	BYTE	W01
	BYTE		        c_v-10
	BYTE	W01
	BYTE		        c_v-8
	BYTE	W01
	BYTE		        c_v-8
	BYTE	W01
	BYTE		        c_v-7
	BYTE	W01
	BYTE		        c_v-5
	BYTE	W01
	BYTE		        c_v-4
	BYTE	W01
	BYTE		        c_v-4
	BYTE	W01
	BYTE		        c_v-2
	BYTE	W01
	BYTE		        c_v+0
	BYTE	W20
	BYTE		        c_v-7
	BYTE	W01
	BYTE		        c_v-14
	BYTE	W01
	BYTE		        c_v-21
	BYTE	W01
	BYTE		        c_v-36
	BYTE	W01
	BYTE		        c_v-43
	BYTE	W01
	BYTE		        c_v-50
	BYTE	W01
	BYTE		        c_v-64
	BYTE	W24
	BYTE		        c_v+0
	BYTE		N23     An4 
	BYTE	W24
	BYTE	PEND
// 030   ----------------------------------------
	BYTE	PATT
	 POIN2	Redial_6_029
// 031   ----------------------------------------
Redial_6_031:
	BYTE		BEND    c_v-24
	BYTE		N72     Dn5   v127
	BYTE	W01
	BYTE		BEND    c_v-24
	BYTE	W01
	BYTE		        c_v-23
	BYTE	W01
	BYTE		        c_v-21
	BYTE	W01
	BYTE		        c_v-20
	BYTE	W01
	BYTE		        c_v-20
	BYTE	W01
	BYTE		        c_v-18
	BYTE	W01
	BYTE		        c_v-17
	BYTE	W01
	BYTE		        c_v-16
	BYTE	W01
	BYTE		        c_v-15
	BYTE	W01
	BYTE		        c_v-14
	BYTE	W01
	BYTE		        c_v-13
	BYTE	W01
	BYTE		        c_v-12
	BYTE	W01
	BYTE		        c_v-11
	BYTE	W01
	BYTE		        c_v-10
	BYTE	W01
	BYTE		        c_v-8
	BYTE	W01
	BYTE		        c_v-8
	BYTE	W01
	BYTE		        c_v-7
	BYTE	W01
	BYTE		        c_v-5
	BYTE	W01
	BYTE		        c_v-4
	BYTE	W01
	BYTE		        c_v-4
	BYTE	W01
	BYTE		        c_v-2
	BYTE	W01
	BYTE		        c_v+0
	BYTE	W20
	BYTE		        c_v-7
	BYTE	W01
	BYTE		        c_v-14
	BYTE	W01
	BYTE		        c_v-21
	BYTE	W01
	BYTE		        c_v-36
	BYTE	W01
	BYTE		        c_v-43
	BYTE	W01
	BYTE		        c_v-50
	BYTE	W01
	BYTE		        c_v-64
	BYTE	W24
	BYTE		        c_v+0
	BYTE		N24     Gn4 
	BYTE	W24
	BYTE	PEND
// 032   ----------------------------------------
Redial_6_032:
	BYTE		BEND    c_v-24
	BYTE		N92     Dn5   v127
	BYTE	W01
	BYTE		BEND    c_v-24
	BYTE	W01
	BYTE		        c_v-23
	BYTE	W01
	BYTE		        c_v-21
	BYTE	W01
	BYTE		        c_v-20
	BYTE	W01
	BYTE		        c_v-20
	BYTE	W01
	BYTE		        c_v-18
	BYTE	W01
	BYTE		        c_v-17
	BYTE	W01
	BYTE		        c_v-16
	BYTE	W01
	BYTE		        c_v-15
	BYTE	W01
	BYTE		        c_v-14
	BYTE	W01
	BYTE		        c_v-13
	BYTE	W01
	BYTE		        c_v-12
	BYTE	W01
	BYTE		        c_v-11
	BYTE	W01
	BYTE		        c_v-10
	BYTE	W01
	BYTE		        c_v-8
	BYTE	W01
	BYTE		        c_v-8
	BYTE	W01
	BYTE		        c_v-7
	BYTE	W01
	BYTE		        c_v-5
	BYTE	W01
	BYTE		        c_v-4
	BYTE	W01
	BYTE		        c_v-4
	BYTE	W01
	BYTE		        c_v-2
	BYTE	W01
	BYTE		        c_v+0
	BYTE	W20
	BYTE		        c_v-7
	BYTE	W01
	BYTE		        c_v-14
	BYTE	W01
	BYTE		        c_v-21
	BYTE	W01
	BYTE		        c_v-36
	BYTE	W01
	BYTE		        c_v-43
	BYTE	W01
	BYTE		        c_v-50
	BYTE	W01
	BYTE		        c_v-64
	BYTE	W48
	BYTE	PEND
// 033   ----------------------------------------
	BYTE	PATT
	 POIN2	Redial_6_031
// 034   ----------------------------------------
Redial_6_034:
	BYTE		BEND    c_v-24
	BYTE		N72     Dn5   v127
	BYTE	W01
	BYTE		BEND    c_v-24
	BYTE	W01
	BYTE		        c_v-23
	BYTE	W01
	BYTE		        c_v-21
	BYTE	W01
	BYTE		        c_v-20
	BYTE	W01
	BYTE		        c_v-20
	BYTE	W01
	BYTE		        c_v-18
	BYTE	W01
	BYTE		        c_v-17
	BYTE	W01
	BYTE		        c_v-16
	BYTE	W01
	BYTE		        c_v-15
	BYTE	W01
	BYTE		        c_v-14
	BYTE	W01
	BYTE		        c_v-13
	BYTE	W01
	BYTE		        c_v-12
	BYTE	W01
	BYTE		        c_v-11
	BYTE	W01
	BYTE		        c_v-10
	BYTE	W01
	BYTE		        c_v-8
	BYTE	W01
	BYTE		        c_v-8
	BYTE	W01
	BYTE		        c_v-7
	BYTE	W01
	BYTE		        c_v-5
	BYTE	W01
	BYTE		        c_v-4
	BYTE	W01
	BYTE		        c_v-4
	BYTE	W01
	BYTE		        c_v-2
	BYTE	W01
	BYTE		        c_v+0
	BYTE	W20
	BYTE		        c_v-7
	BYTE	W01
	BYTE		        c_v-14
	BYTE	W01
	BYTE		        c_v-21
	BYTE	W01
	BYTE		        c_v-36
	BYTE	W01
	BYTE		        c_v-43
	BYTE	W01
	BYTE		        c_v-50
	BYTE	W01
	BYTE		        c_v-64
	BYTE	W24
	BYTE		        c_v+0
	BYTE		N23     As4 
	BYTE	W24
	BYTE	PEND
// 035   ----------------------------------------
Redial_6_035:
	BYTE		BEND    c_v-24
	BYTE		TIE     An4   v127
	BYTE	W01
	BYTE		BEND    c_v-24
	BYTE	W01
	BYTE		        c_v-23
	BYTE	W01
	BYTE		        c_v-21
	BYTE	W01
	BYTE		        c_v-20
	BYTE	W01
	BYTE		        c_v-20
	BYTE	W01
	BYTE		        c_v-18
	BYTE	W01
	BYTE		        c_v-17
	BYTE	W01
	BYTE		        c_v-16
	BYTE	W01
	BYTE		        c_v-15
	BYTE	W01
	BYTE		        c_v-14
	BYTE	W01
	BYTE		        c_v-13
	BYTE	W01
	BYTE		        c_v-12
	BYTE	W01
	BYTE		        c_v-11
	BYTE	W01
	BYTE		        c_v-10
	BYTE	W01
	BYTE		        c_v-8
	BYTE	W01
	BYTE		        c_v-8
	BYTE	W01
	BYTE		        c_v-7
	BYTE	W01
	BYTE		        c_v-5
	BYTE	W01
	BYTE		        c_v-4
	BYTE	W01
	BYTE		        c_v-4
	BYTE	W01
	BYTE		        c_v-2
	BYTE	W01
	BYTE		        c_v+0
	BYTE	W20
	BYTE		        c_v-7
	BYTE	W01
	BYTE		        c_v-14
	BYTE	W01
	BYTE		        c_v-21
	BYTE	W01
	BYTE		        c_v-36
	BYTE	W01
	BYTE		        c_v-43
	BYTE	W01
	BYTE		        c_v-50
	BYTE	W01
	BYTE		        c_v-64
	BYTE	W22
	BYTE		        c_v-54
	BYTE	W01
	BYTE		        c_v-43
	BYTE	W01
	BYTE		        c_v-22
	BYTE	W01
	BYTE		        c_v-11
	BYTE	W01
	BYTE		        c_v+0
	BYTE	W01
	BYTE		        c_v+21
	BYTE	W01
	BYTE		        c_v+34
	BYTE	W17
	BYTE		        c_v+33
	BYTE	W01
	BYTE		        c_v+27
	BYTE	W01
	BYTE		        c_v+22
	BYTE	W01
	BYTE	PEND
// 036   ----------------------------------------
Redial_6_036:
	BYTE		BEND    c_v+11
	BYTE	W01
	BYTE		        c_v+1
	BYTE	W92
	BYTE	W02
	BYTE	PEND
	BYTE		EOT     An4 
	BYTE	W01
// 037   ----------------------------------------
	BYTE		BEND    c_v+0
	BYTE	W96
// 038   ----------------------------------------
	BYTE	W96
// 039   ----------------------------------------
	BYTE	W40
	BYTE	W01
	BYTE	GoTo
	 POIN2	Redial_6_B1
Redial_6_B2:
	BYTE	W54
	BYTE	W01
// 040   ----------------------------------------
	BYTE	W96
// 041   ----------------------------------------
	BYTE	W96
// 042   ----------------------------------------
	BYTE	W96
// 043   ----------------------------------------
	BYTE	W96
// 044   ----------------------------------------
	BYTE	W96
// 045   ----------------------------------------
	BYTE	W96
// 046   ----------------------------------------
	BYTE	W96
// 047   ----------------------------------------
	BYTE	W96
// 048   ----------------------------------------
	BYTE	W96
// 049   ----------------------------------------
	BYTE	W96
// 050   ----------------------------------------
	BYTE	W96
// 051   ----------------------------------------
	BYTE	W96
// 052   ----------------------------------------
	BYTE	W96
// 053   ----------------------------------------
	BYTE	W96
// 054   ----------------------------------------
	BYTE	W96
// 055   ----------------------------------------
	BYTE	W96
// 056   ----------------------------------------
	BYTE	W96
// 057   ----------------------------------------
	BYTE	W96
// 058   ----------------------------------------
	BYTE	W96
// 059   ----------------------------------------
	BYTE	W96
// 060   ----------------------------------------
	BYTE	W96
// 061   ----------------------------------------
	BYTE	PATT
	 POIN2	Redial_6_029
// 062   ----------------------------------------
	BYTE	PATT
	 POIN2	Redial_6_029
// 063   ----------------------------------------
	BYTE	PATT
	 POIN2	Redial_6_031
// 064   ----------------------------------------
	BYTE	PATT
	 POIN2	Redial_6_032
// 065   ----------------------------------------
	BYTE	PATT
	 POIN2	Redial_6_031
// 066   ----------------------------------------
	BYTE	PATT
	 POIN2	Redial_6_034
// 067   ----------------------------------------
	BYTE	PATT
	 POIN2	Redial_6_035
// 068   ----------------------------------------
	BYTE	PATT
	 POIN2	Redial_6_036
	BYTE		EOT     An4 
	BYTE	W01
// 069   ----------------------------------------
	BYTE		BEND    c_v+0
	BYTE	W92
	BYTE	W03
	BYTE	FINE

//**************** Track 7 (Midi-Chn.8) ****************//

Redial_7:
	BYTE	KEYSH   Redial_key+0
// 000   ----------------------------------------
	BYTE		VOICE   127
	BYTE		VOL     78*Redial_mvl/mxv
	BYTE	W96
// 001   ----------------------------------------
Redial_7_001:
	BYTE		N05     Bn0   v127
	BYTE		N05     Fs1 
	BYTE		N05     Cs2 
	BYTE		N05     Ds2 
	BYTE	W06
	BYTE		        Fs1 
	BYTE	W06
	BYTE		N05   
	BYTE		N05     Ds2 
	BYTE	W06
	BYTE		        Fs1 
	BYTE	W06
	BYTE		        Dn1 
	BYTE		N05     En1 
	BYTE		N05     Fs1 
	BYTE		N05     Ds2 
	BYTE	W06
	BYTE		        Fs1 
	BYTE	W06
	BYTE		N05   
	BYTE		N05     Ds2 
	BYTE	W06
	BYTE		        Dn1 
	BYTE		N05     En1 
	BYTE		N05     Fs1 
	BYTE	W06
	BYTE		N05   
	BYTE		N05     Ds2 
	BYTE	W06
	BYTE		        Dn1 
	BYTE		N05     En1 
	BYTE		N05     Fs1 
	BYTE	W06
	BYTE		        Bn0 
	BYTE		N05     Fs1 
	BYTE		N05     Ds2 
	BYTE	W06
	BYTE		        Fs1 
	BYTE	W06
	BYTE		        Dn1 
	BYTE		N05     En1 
	BYTE		N05     Fs1 
	BYTE		N05     Ds2 
	BYTE	W06
	BYTE		        Fs1 
	BYTE	W06
	BYTE		        Bn0 
	BYTE		N05     Fs1 
	BYTE		N05     Ds2 
	BYTE	W06
	BYTE		        Fs1 
	BYTE	W06
	BYTE	PEND
// 002   ----------------------------------------
Redial_7_002:
	BYTE		N05     Bn0   v127
	BYTE		N05     Fs1 
	BYTE		N05     Ds2 
	BYTE	W06
	BYTE		        Fs1 
	BYTE	W06
	BYTE		N05   
	BYTE		N05     Ds2 
	BYTE	W06
	BYTE		        Fs1 
	BYTE	W06
	BYTE		        Dn1 
	BYTE		N05     En1 
	BYTE		N05     Fs1 
	BYTE		N05     Ds2 
	BYTE	W06
	BYTE		        Fs1 
	BYTE	W06
	BYTE		N05   
	BYTE		N05     Ds2 
	BYTE	W06
	BYTE		        Dn1 
	BYTE		N05     En1 
	BYTE		N05     Fs1 
	BYTE	W06
	BYTE		N05   
	BYTE		N05     Ds2 
	BYTE	W06
	BYTE		        Dn1 
	BYTE		N05     En1 
	BYTE		N05     Fs1 
	BYTE	W06
	BYTE		        Bn0 
	BYTE		N05     Fs1 
	BYTE		N05     Ds2 
	BYTE	W06
	BYTE		        Fs1 
	BYTE	W06
	BYTE		        Dn1 
	BYTE		N05     En1 
	BYTE		N05     Fs1 
	BYTE		N05     Ds2 
	BYTE	W06
	BYTE		        Fs1 
	BYTE	W06
	BYTE		        Bn0 
	BYTE		N05     Fs1 
	BYTE		N05     Ds2 
	BYTE	W06
	BYTE		        Fs1 
	BYTE	W06
	BYTE	PEND
// 003   ----------------------------------------
	BYTE	PATT
	 POIN2	Redial_7_002
// 004   ----------------------------------------
Redial_7_004:
	BYTE		N05     Dn1   v127
	BYTE		N05     En1 
	BYTE		N05     Fs1 
	BYTE		N05     Ds2 
	BYTE	W06
	BYTE		        Dn1 
	BYTE		N05     En1 
	BYTE		N05     Fs1 
	BYTE	W06
	BYTE		        Bn0 
	BYTE		N05     Fs1 
	BYTE		N05     Ds2 
	BYTE	W06
	BYTE		        Fs1 
	BYTE	W06
	BYTE		N05   
	BYTE		N05     Ds2 
	BYTE	W06
	BYTE		        Fs1 
	BYTE	W06
	BYTE		        Dn1 
	BYTE		N05     En1 
	BYTE		N05     Fs1 
	BYTE		N05     Ds2 
	BYTE	W06
	BYTE		        Dn1 
	BYTE		N05     En1 
	BYTE		N05     Fs1 
	BYTE	W06
	BYTE		        Bn0 
	BYTE		N05     Fs1 
	BYTE		N05     Ds2 
	BYTE	W06
	BYTE		        Fs1 
	BYTE	W06
	BYTE		N05   
	BYTE		N05     Ds2 
	BYTE	W06
	BYTE		        Fs1 
	BYTE	W06
	BYTE		        Dn1 
	BYTE		N05     En1 
	BYTE		N05     Fs1 
	BYTE		N05     Ds2 
	BYTE	W06
	BYTE		        Dn1 
	BYTE		N05     En1 
	BYTE		N05     Fs1 
	BYTE	W06
	BYTE		        Bn0 
	BYTE		N05     Fs1 
	BYTE		N05     Ds2 
	BYTE	W06
	BYTE		        Fs1 
	BYTE	W06
	BYTE	PEND
// 005   ----------------------------------------
	BYTE	PATT
	 POIN2	Redial_7_001
// 006   ----------------------------------------
	BYTE	PATT
	 POIN2	Redial_7_002
// 007   ----------------------------------------
	BYTE		N05     Bn0   v127
	BYTE		N05     Fs1 
	BYTE		N05     Ds2 
	BYTE	W06
	BYTE		        Fs1 
	BYTE	W06
	BYTE		N05   
	BYTE		N05     Ds2 
	BYTE	W06
	BYTE		        Fs1 
	BYTE	W06
	BYTE		        Dn1 
	BYTE		N05     En1 
	BYTE		N05     Fs1 
	BYTE		N05     Ds2 
	BYTE	W06
	BYTE		        Fs1 
	BYTE	W06
Redial_7_B1:
	BYTE		N05     Fs1   v127
	BYTE		N05     Ds2 
	BYTE	W06
	BYTE		        Dn1 
	BYTE		N05     En1 
	BYTE		N05     Fs1 
	BYTE	W06
	BYTE		N05   
	BYTE		N05     Ds2 
	BYTE	W06
	BYTE		        Dn1 
	BYTE		N05     En1 
	BYTE		N05     Fs1 
	BYTE	W06
	BYTE		        Bn0 
	BYTE		N05     Fs1 
	BYTE		N05     Ds2 
	BYTE	W06
	BYTE		        Fs1 
	BYTE	W06
	BYTE		        Dn1 
	BYTE		N05     En1 
	BYTE		N05     Fs1 
	BYTE		N05     Ds2 
	BYTE	W06
	BYTE		        Fs1 
	BYTE	W06
	BYTE		        Bn0 
	BYTE		N05     Fs1 
	BYTE		N05     Ds2 
	BYTE	W06
	BYTE		        Fs1 
	BYTE	W06
// 008   ----------------------------------------
	BYTE	PATT
	 POIN2	Redial_7_002
// 009   ----------------------------------------
	BYTE	PATT
	 POIN2	Redial_7_002
// 010   ----------------------------------------
	BYTE	PATT
	 POIN2	Redial_7_002
// 011   ----------------------------------------
	BYTE	PATT
	 POIN2	Redial_7_002
// 012   ----------------------------------------
	BYTE	PATT
	 POIN2	Redial_7_004
// 013   ----------------------------------------
	BYTE	PATT
	 POIN2	Redial_7_001
// 014   ----------------------------------------
	BYTE	PATT
	 POIN2	Redial_7_002
// 015   ----------------------------------------
	BYTE	PATT
	 POIN2	Redial_7_002
// 016   ----------------------------------------
	BYTE	PATT
	 POIN2	Redial_7_002
// 017   ----------------------------------------
	BYTE	PATT
	 POIN2	Redial_7_002
// 018   ----------------------------------------
	BYTE	PATT
	 POIN2	Redial_7_002
// 019   ----------------------------------------
	BYTE	PATT
	 POIN2	Redial_7_002
// 020   ----------------------------------------
	BYTE	PATT
	 POIN2	Redial_7_004
// 021   ----------------------------------------
	BYTE	PATT
	 POIN2	Redial_7_001
// 022   ----------------------------------------
	BYTE	PATT
	 POIN2	Redial_7_002
// 023   ----------------------------------------
	BYTE	PATT
	 POIN2	Redial_7_002
// 024   ----------------------------------------
	BYTE	PATT
	 POIN2	Redial_7_002
// 025   ----------------------------------------
	BYTE	PATT
	 POIN2	Redial_7_002
// 026   ----------------------------------------
	BYTE	PATT
	 POIN2	Redial_7_002
// 027   ----------------------------------------
	BYTE	PATT
	 POIN2	Redial_7_002
// 028   ----------------------------------------
	BYTE	PATT
	 POIN2	Redial_7_004
// 029   ----------------------------------------
	BYTE	PATT
	 POIN2	Redial_7_001
// 030   ----------------------------------------
	BYTE	PATT
	 POIN2	Redial_7_002
// 031   ----------------------------------------
	BYTE	PATT
	 POIN2	Redial_7_002
// 032   ----------------------------------------
	BYTE	PATT
	 POIN2	Redial_7_002
// 033   ----------------------------------------
	BYTE	PATT
	 POIN2	Redial_7_002
// 034   ----------------------------------------
	BYTE	PATT
	 POIN2	Redial_7_002
// 035   ----------------------------------------
	BYTE	PATT
	 POIN2	Redial_7_002
// 036   ----------------------------------------
	BYTE	PATT
	 POIN2	Redial_7_004
// 037   ----------------------------------------
	BYTE	PATT
	 POIN2	Redial_7_001
// 038   ----------------------------------------
	BYTE	PATT
	 POIN2	Redial_7_002
// 039   ----------------------------------------
	BYTE		N05     Bn0   v127
	BYTE		N05     Fs1 
	BYTE		N05     Ds2 
	BYTE	W06
	BYTE		        Fs1 
	BYTE	W06
	BYTE		N05   
	BYTE		N05     Ds2 
	BYTE	W06
	BYTE		        Fs1 
	BYTE	W06
	BYTE		        Dn1 
	BYTE		N05     En1 
	BYTE		N05     Fs1 
	BYTE		N05     Ds2 
	BYTE	W06
	BYTE		        Fs1 
	BYTE	W06
	BYTE		N05   
	BYTE		N05     Ds2 
	BYTE	W05
	BYTE	GoTo
	 POIN2	Redial_7_B1
Redial_7_B2:
	BYTE	W01
	BYTE		N05     Dn1   v127
	BYTE		N05     En1 
	BYTE		N05     Fs1 
	BYTE	W06
	BYTE		N05   
	BYTE		N05     Ds2 
	BYTE	W06
	BYTE		        Dn1 
	BYTE		N05     En1 
	BYTE		N05     Fs1 
	BYTE	W06
	BYTE		        Bn0 
	BYTE		N05     Fs1 
	BYTE		N05     Ds2 
	BYTE	W06
	BYTE		        Fs1 
	BYTE	W06
	BYTE		        Dn1 
	BYTE		N05     En1 
	BYTE		N05     Fs1 
	BYTE		N05     Ds2 
	BYTE	W06
	BYTE		        Fs1 
	BYTE	W06
	BYTE		        Bn0 
	BYTE		N05     Fs1 
	BYTE		N05     Ds2 
	BYTE	W06
	BYTE		        Fs1 
	BYTE	W06
// 040   ----------------------------------------
	BYTE	PATT
	 POIN2	Redial_7_002
// 041   ----------------------------------------
	BYTE	PATT
	 POIN2	Redial_7_002
// 042   ----------------------------------------
	BYTE	PATT
	 POIN2	Redial_7_002
// 043   ----------------------------------------
	BYTE	PATT
	 POIN2	Redial_7_002
// 044   ----------------------------------------
	BYTE	PATT
	 POIN2	Redial_7_004
// 045   ----------------------------------------
	BYTE	PATT
	 POIN2	Redial_7_001
// 046   ----------------------------------------
	BYTE	PATT
	 POIN2	Redial_7_002
// 047   ----------------------------------------
	BYTE	PATT
	 POIN2	Redial_7_002
// 048   ----------------------------------------
	BYTE	PATT
	 POIN2	Redial_7_002
// 049   ----------------------------------------
	BYTE	PATT
	 POIN2	Redial_7_002
// 050   ----------------------------------------
	BYTE	PATT
	 POIN2	Redial_7_002
// 051   ----------------------------------------
	BYTE	PATT
	 POIN2	Redial_7_002
// 052   ----------------------------------------
	BYTE	PATT
	 POIN2	Redial_7_004
// 053   ----------------------------------------
	BYTE	PATT
	 POIN2	Redial_7_001
// 054   ----------------------------------------
	BYTE	PATT
	 POIN2	Redial_7_002
// 055   ----------------------------------------
	BYTE	PATT
	 POIN2	Redial_7_002
// 056   ----------------------------------------
	BYTE	PATT
	 POIN2	Redial_7_002
// 057   ----------------------------------------
	BYTE	PATT
	 POIN2	Redial_7_002
// 058   ----------------------------------------
	BYTE	PATT
	 POIN2	Redial_7_002
// 059   ----------------------------------------
	BYTE	PATT
	 POIN2	Redial_7_002
// 060   ----------------------------------------
	BYTE	PATT
	 POIN2	Redial_7_004
// 061   ----------------------------------------
	BYTE	PATT
	 POIN2	Redial_7_001
// 062   ----------------------------------------
	BYTE	PATT
	 POIN2	Redial_7_002
// 063   ----------------------------------------
	BYTE	PATT
	 POIN2	Redial_7_002
// 064   ----------------------------------------
	BYTE	PATT
	 POIN2	Redial_7_002
// 065   ----------------------------------------
	BYTE	PATT
	 POIN2	Redial_7_002
// 066   ----------------------------------------
	BYTE	PATT
	 POIN2	Redial_7_002
// 067   ----------------------------------------
	BYTE	PATT
	 POIN2	Redial_7_002
// 068   ----------------------------------------
	BYTE	PATT
	 POIN2	Redial_7_004
// 069   ----------------------------------------
	BYTE		N92     Bn0   v127
	BYTE		N05     Cs2 
	BYTE	W92
	BYTE	W03
	BYTE	FINE

//******************************************************//
	ALIGN 4

Redial:
	BYTE	7	// NumTrks
	BYTE	0	// NumBlks
	BYTE	Redial_pri	// Priority
	BYTE	Redial_rev	// Reverb.

	POIN2	Redial_grp

	POIN2	Redial_1
	POIN2	Redial_2
	POIN2	Redial_3
	POIN2	Redial_4
	POIN2	Redial_5
	POIN2	Redial_6
	POIN2	Redial_7

	
