//Event file generated from Sappy .s format.
	#include "MPlayDef.event"

	#define	Route209_grp  voicegroup000
	#define	Route209_pri  0
	#define	Route209_rev  0
	#define	Route209_mvl  75
	#define	Route209_key  0
	#define	Route209_tbs  1
	#define	Route209_exg  0
	#define	Route209_cmp  1

	// .rodata
	//	Route209
	ALIGN 4


//**************** Track 1 (Midi-Chn.0) ****************//

Route209_001:
// 000   ----------------------------------------
 BYTE   KEYSH   Route209_key+0
 BYTE   TEMPO   86*Route209_tbs/2
 BYTE   VOICE   69
 BYTE   PAN   c_v+33
 BYTE   VOL   46*Route209_mvl/mxv
 BYTE   MOD 0
 BYTE   CnM2
 BYTE   BEND   c_v+0
 BYTE   W96
// 001   ----------------------------------------
Label_0_01648833:
 BYTE   VOICE   68
 BYTE   N02  Gn3  v104
 BYTE   W01
 BYTE   N21  Gs3
 BYTE   W23
 BYTE   N23  Ds3
 BYTE   W24
 BYTE   N11  Cn4
 BYTE   W12
 BYTE   Cs4
 BYTE   W12
 BYTE   Ds4
 BYTE   W12
 BYTE   N01  Gn4  v096
 BYTE   W01
 BYTE   N32  Gs4
 BYTE   W11
// 002   ----------------------------------------
 BYTE   W24
 BYTE   N23  Ds4  v104
 BYTE   W24
 BYTE   N11  Cn4
 BYTE   W12
 BYTE   Cs4
 BYTE   W12
 BYTE   Ds4
 BYTE   W12
 BYTE   N32  Gs4  v092
 BYTE   W12
// 003   ----------------------------------------
 BYTE   W24
 BYTE   N23  Ds4  v104
 BYTE   W24
 BYTE   N11  Cn5
 BYTE   W12
 BYTE   Cs5
 BYTE   W12
 BYTE   Ds5  v096
 BYTE   W12
 BYTE   N32  Gs4  v092
 BYTE   W12
// 004   ----------------------------------------
 BYTE   W24
 BYTE   N23  Ds4  v104
 BYTE   W24
 BYTE   N11  As4
 BYTE   W12
 BYTE   Bn4
 BYTE   W12
 BYTE   As4
 BYTE   W12
 BYTE   TIE  Gs4
 BYTE   W12
// 005   ----------------------------------------
 BYTE   W96
// 006   ----------------------------------------
 BYTE   W80
 BYTE   W03
 BYTE   EOT
 BYTE   W13
// 007   ----------------------------------------
 BYTE   VOICE   46
 BYTE   N11  Cn5  v127
 BYTE   W12
 BYTE   Gs5
 BYTE   W12
 BYTE   Gn5
 BYTE   W12
 BYTE   N23  Gs5
 BYTE   W24
 BYTE   N11  Ds5
 BYTE   W12
 BYTE   As5
 BYTE   W12
 BYTE   Ds6
 BYTE   W12
// 008   ----------------------------------------
 BYTE   As5
 BYTE   W12
 BYTE   Gs5
 BYTE   W12
 BYTE   Gn5
 BYTE   W12
 BYTE   N23  Gs5
 BYTE   W24
 BYTE   N11  Ds5
 BYTE   W12
 BYTE   As5
 BYTE   W12
 BYTE   Ds6
 BYTE   W12
// 009   ----------------------------------------
 BYTE   VOICE   2
 BYTE   N23  Gs3
 BYTE   W24
 BYTE   N11  Ds3
 BYTE   W12
 BYTE   N05  Cn4
 BYTE   W06
 BYTE   Cs4
 BYTE   W06
 BYTE   N11  Ds4
 BYTE   W12
 BYTE   Fn4
 BYTE   W12
 BYTE   N05  Ds4
 BYTE   W06
 BYTE   Cs4
 BYTE   W06
 BYTE   Cn4
 BYTE   W06
 BYTE   As3
 BYTE   W06
// 010   ----------------------------------------
 BYTE   N11  Gs3
 BYTE   W12
 BYTE   Ds3
 BYTE   W12
 BYTE   Gs3
 BYTE   W12
 BYTE   N23  As3
 BYTE   W24
 BYTE   N11  Cs4
 BYTE   W12
 BYTE   Cn4
 BYTE   W12
 BYTE   Gs3
 BYTE   W12
// 011   ----------------------------------------
 BYTE   As3
 BYTE   W12
 BYTE   Gs3
 BYTE   W12
 BYTE   Ds3
 BYTE   W12
 BYTE   N05  Cn4
 BYTE   W06
 BYTE   Cs4
 BYTE   W06
 BYTE   N11  Ds4
 BYTE   W12
 BYTE   Fn4
 BYTE   W12
 BYTE   N05  Ds4
 BYTE   W06
 BYTE   Cs4
 BYTE   W06
 BYTE   Cn4
 BYTE   W06
 BYTE   As3
 BYTE   W06
// 012   ----------------------------------------
 BYTE   N11  Gs3
 BYTE   W12
 BYTE   Ds3
 BYTE   W12
 BYTE   Gs3
 BYTE   W12
 BYTE   N23  As3
 BYTE   W24
 BYTE   N11  Cn4
 BYTE   W12
 BYTE   As3
 BYTE   W12
 BYTE   Gs3
 BYTE   W12
// 013   ----------------------------------------
 BYTE   Gn3
 BYTE   W12
 BYTE   Gs3
 BYTE   W12
 BYTE   N05  Gs3  v040
 BYTE   W12
 BYTE   Gn3  v127
 BYTE   W06
 BYTE   Fn3
 BYTE   W06
 BYTE   N11  Gn3
 BYTE   W12
 BYTE   Gs3
 BYTE   W12
 BYTE   N05  Gs3  v040
 BYTE   W12
 BYTE   Gn3  v127
 BYTE   W06
 BYTE   Fn3
 BYTE   W06
// 014   ----------------------------------------
 BYTE   N11  Gn3
 BYTE   W12
 BYTE   Gs3
 BYTE   W12
 BYTE   Ds4
 BYTE   W12
 BYTE   N23  Gs4
 BYTE   W24
 BYTE   VOICE   71
 BYTE   N11  Ds3
 BYTE   W12
 BYTE   Gs3
 BYTE   W12
 BYTE   Gn3
 BYTE   W12
// 015   ----------------------------------------
 BYTE   Gs3
 BYTE   W12
 BYTE   Ds3
 BYTE   W12
 BYTE   Gs3
 BYTE   W12
 BYTE   N23  Gn3
 BYTE   W24
 BYTE   N11  Gs3
 BYTE   W12
 BYTE   As3
 BYTE   W12
 BYTE   N23  Bn3
 BYTE   W12
// 016   ----------------------------------------
 BYTE   W12
 BYTE   N11  As3
 BYTE   W12
 BYTE   Bn3
 BYTE   W12
 BYTE   N23  Cs4
 BYTE   W24
 BYTE   N11  Bn3
 BYTE   W12
 BYTE   Cs4
 BYTE   W12
 BYTE   TIE  Ds4
 BYTE   W12
// 017   ----------------------------------------
 BYTE   W88
 BYTE   W01
 BYTE   EOT
 BYTE   W07
// 018   ----------------------------------------
 BYTE   VOICE   73
 BYTE   N11  Gs4
 BYTE   W12
 BYTE   Ds4
 BYTE   W12
 BYTE   Gs4
 BYTE   W12
 BYTE   N23  Bn4
 BYTE   W24
 BYTE   N11  As4
 BYTE   W12
 BYTE   Gs4
 BYTE   W12
 BYTE   N23  As4
 BYTE   W12
// 019   ----------------------------------------
 BYTE   W12
 BYTE   N11
 BYTE   W12
 BYTE   N64  Gs4
 BYTE   W72
// 020   ----------------------------------------
 BYTE   W96
// 021   ----------------------------------------
 BYTE   N05
 BYTE   W06
 BYTE   Ds4
 BYTE   W06
 BYTE   Ds4  v040
 BYTE   W06
 BYTE   Gs4  v127
 BYTE   W06
 BYTE   Gs4  v040
 BYTE   W12
 BYTE   Cn5  v127
 BYTE   W06
 BYTE   Cs5
 BYTE   W06
 BYTE   Ds5
 BYTE   W06
 BYTE   Fn5  v096
 BYTE   W06
 BYTE   Fn5  v040
 BYTE   W06
 BYTE   Ds5  v127
 BYTE   W06
 BYTE   Ds5  v040
 BYTE   W06
 BYTE   Cs5  v127
 BYTE   W06
 BYTE   Cn5
 BYTE   W06
 BYTE   As4
 BYTE   W06
// 022   ----------------------------------------
 BYTE   Gs4
 BYTE   W06
 BYTE   Ds4
 BYTE   W06
 BYTE   Ds4  v040
 BYTE   W06
 BYTE   Gs4  v127
 BYTE   W06
 BYTE   Gs4  v040
 BYTE   W12
 BYTE   Cs5  v127
 BYTE   W06
 BYTE   Cn5
 BYTE   W06
 BYTE   Cn5  v040
 BYTE   W06
 BYTE   Gs4  v127
 BYTE   W06
 BYTE   Gs4  v040
 BYTE   W06
 BYTE   Ds4  v127
 BYTE   W06
 BYTE   N05
 BYTE   W06
 BYTE   Gs4
 BYTE   W06
 BYTE   As4
 BYTE   W06
 BYTE   Gs4
 BYTE   W06
// 023   ----------------------------------------
 BYTE   Gs4  v040
 BYTE   W06
 BYTE   Ds4  v127
 BYTE   W06
 BYTE   Ds4  v040
 BYTE   W06
 BYTE   Gs4  v127
 BYTE   W06
 BYTE   Gs4  v040
 BYTE   W12
 BYTE   Cn5  v127
 BYTE   W06
 BYTE   Cs5
 BYTE   W06
 BYTE   Cn5
 BYTE   W06
 BYTE   As4
 BYTE   W06
 BYTE   Gs4
 BYTE   W06
 BYTE   Ds4
 BYTE   W06
 BYTE   Ds4  v040
 BYTE   W06
 BYTE   Gs4  v127
 BYTE   W06
 BYTE   Cn5
 BYTE   W06
 BYTE   Cs5
 BYTE   W06
// 024   ----------------------------------------
 BYTE   Ds5
 BYTE   W06
 BYTE   N05
 BYTE   W06
 BYTE   Ds5  v040
 BYTE   W06
 BYTE   Gs4  v127
 BYTE   W06
 BYTE   Gs4  v040
 BYTE   W12
 BYTE   Fn5  v127
 BYTE   W06
 BYTE   Ds5
 BYTE   W06
 BYTE   Cn5
 BYTE   W06
 BYTE   Gs4
 BYTE   W06
 BYTE   Gs4  v040
 BYTE   W06
 BYTE   Ds4  v127
 BYTE   W06
 BYTE   Ds4  v040
 BYTE   W06
 BYTE   Cs5  v127
 BYTE   W06
 BYTE   Cn5
 BYTE   W06
 BYTE   Gs4
 BYTE   W06
// 025   ----------------------------------------
 BYTE   As4
 BYTE   W03
 BYTE   TEMPO   86*Route209_tbs/2
 BYTE   W03
 BYTE   TIE  Gs4
 BYTE   W90
// 026   ----------------------------------------
 BYTE   W44
 BYTE   W03
 BYTE   EOT
 BYTE   W48
 BYTE   GoTo
  POIN2 Label_0_01648833
 BYTE   FINE

//**************** Track 2 (Midi-Chn.1) ****************//

Route209_002:
// 000   ----------------------------------------
 BYTE   KEYSH   Route209_key+0
 BYTE   VOICE   69
 BYTE   PAN   c_v-32
 BYTE   MOD 0
 BYTE   CnM2
 BYTE   VOL   22*Route209_mvl/mxv
 BYTE   BEND   c_v+1
 BYTE   W96
// 001   ----------------------------------------
Label_1_01648A25:
 BYTE   VOICE   68
 BYTE   VOL   17*Route209_mvl/mxv
 BYTE   W04
 BYTE   N21  Gs3  v104
 BYTE   W23
 BYTE   N23  Ds3
 BYTE   W24
 BYTE   N11  Cn4
 BYTE   W12
 BYTE   Cs4
 BYTE   W12
 BYTE   Ds4
 BYTE   W13
 BYTE   N32  Gs4
 BYTE   W08
// 002   ----------------------------------------
 BYTE   W24
 BYTE   W03
 BYTE   N23  Ds4
 BYTE   W24
 BYTE   N11  Cn4
 BYTE   W12
 BYTE   Cs4
 BYTE   W12
 BYTE   Ds4
 BYTE   W12
 BYTE   N32  Gs4
 BYTE   W09
// 003   ----------------------------------------
 BYTE   W24
 BYTE   W03
 BYTE   N23  Ds4
 BYTE   W24
 BYTE   N11  Cn5
 BYTE   W12
 BYTE   Cs5
 BYTE   W12
 BYTE   Ds5
 BYTE   W12
 BYTE   N32  Gs4
 BYTE   W09
// 004   ----------------------------------------
 BYTE   W24
 BYTE   W03
 BYTE   N23  Ds4
 BYTE   W24
 BYTE   N11  As4
 BYTE   W12
 BYTE   Bn4
 BYTE   W12
 BYTE   As4
 BYTE   W12
 BYTE   TIE  Gs4
 BYTE   W09
// 005   ----------------------------------------
 BYTE   W96
// 006   ----------------------------------------
 BYTE   W48
 BYTE   VOL   17*Route209_mvl/mxv
 BYTE   W06
 BYTE   DnM1
 BYTE   W06
 BYTE   BnM2
 BYTE   W06
 BYTE   FsM2
 BYTE   W20
 BYTE   EOT
 BYTE   W10
// 007   ----------------------------------------
 BYTE   VOL   22*Route209_mvl/mxv
 BYTE   W03
 BYTE   VOICE   46
 BYTE   N11  Cn5  v127
 BYTE   W12
 BYTE   Gs5
 BYTE   W12
 BYTE   Gn5
 BYTE   W12
 BYTE   N23  Gs5
 BYTE   W24
 BYTE   N11  Ds5
 BYTE   W12
 BYTE   As5
 BYTE   W12
 BYTE   Ds6
 BYTE   W09
// 008   ----------------------------------------
 BYTE   W03
 BYTE   As5
 BYTE   W12
 BYTE   Gs5
 BYTE   W12
 BYTE   Gn5
 BYTE   W12
 BYTE   N23  Gs5
 BYTE   W24
 BYTE   N11  Ds5
 BYTE   W12
 BYTE   As5
 BYTE   W12
 BYTE   Ds6
 BYTE   W09
// 009   ----------------------------------------
 BYTE   W03
 BYTE   VOICE   2
 BYTE   N23  Gs3
 BYTE   W24
 BYTE   N11  Ds3
 BYTE   W12
 BYTE   N05  Cn4
 BYTE   W06
 BYTE   Cs4
 BYTE   W06
 BYTE   N11  Ds4
 BYTE   W12
 BYTE   Fn4
 BYTE   W12
 BYTE   N05  Ds4
 BYTE   W06
 BYTE   Cs4
 BYTE   W06
 BYTE   Cn4
 BYTE   W06
 BYTE   As3
 BYTE   W03
// 010   ----------------------------------------
 BYTE   W03
 BYTE   N11  Gs3
 BYTE   W12
 BYTE   Ds3
 BYTE   W12
 BYTE   Gs3
 BYTE   W12
 BYTE   N23  As3
 BYTE   W24
 BYTE   N11  Cs4
 BYTE   W12
 BYTE   Cn4
 BYTE   W12
 BYTE   Gs3
 BYTE   W09
// 011   ----------------------------------------
 BYTE   W03
 BYTE   As3
 BYTE   W12
 BYTE   Gs3
 BYTE   W12
 BYTE   Ds3
 BYTE   W12
 BYTE   N05  Cn4
 BYTE   W06
 BYTE   Cs4
 BYTE   W06
 BYTE   N11  Ds4
 BYTE   W12
 BYTE   Fn4
 BYTE   W12
 BYTE   N05  Ds4
 BYTE   W06
 BYTE   Cs4
 BYTE   W06
 BYTE   Cn4
 BYTE   W06
 BYTE   As3
 BYTE   W03
// 012   ----------------------------------------
 BYTE   W03
 BYTE   N11  Gs3
 BYTE   W12
 BYTE   Ds3
 BYTE   W12
 BYTE   Gs3
 BYTE   W12
 BYTE   N23  As3
 BYTE   W24
 BYTE   N11  Cn4
 BYTE   W12
 BYTE   As3
 BYTE   W12
 BYTE   Gs3
 BYTE   W09
// 013   ----------------------------------------
 BYTE   W03
 BYTE   Gn3
 BYTE   W12
 BYTE   Gs3
 BYTE   W12
 BYTE   N05  Gs3  v040
 BYTE   W12
 BYTE   Gn3  v127
 BYTE   W06
 BYTE   Fn3
 BYTE   W06
 BYTE   N11  Gn3
 BYTE   W12
 BYTE   Gs3
 BYTE   W12
 BYTE   N05  Gs3  v040
 BYTE   W12
 BYTE   Gn3  v127
 BYTE   W06
 BYTE   Fn3
 BYTE   W03
// 014   ----------------------------------------
 BYTE   W03
 BYTE   N11  Gn3
 BYTE   W12
 BYTE   Gs3
 BYTE   W12
 BYTE   Ds4
 BYTE   W12
 BYTE   N23  Gs4
 BYTE   W24
 BYTE   VOICE   71
 BYTE   N11  Ds3
 BYTE   W12
 BYTE   Gs3
 BYTE   W12
 BYTE   Gn3
 BYTE   W09
// 015   ----------------------------------------
 BYTE   W03
 BYTE   Gs3
 BYTE   W12
 BYTE   Ds3
 BYTE   W12
 BYTE   Gs3
 BYTE   W12
 BYTE   N23  Gn3
 BYTE   W24
 BYTE   N11  Gs3
 BYTE   W12
 BYTE   As3
 BYTE   W12
 BYTE   N23  Bn3
 BYTE   W09
// 016   ----------------------------------------
 BYTE   W15
 BYTE   N11  As3
 BYTE   W12
 BYTE   Bn3
 BYTE   W12
 BYTE   N23  Cs4
 BYTE   W24
 BYTE   N11  Bn3
 BYTE   W12
 BYTE   Cs4
 BYTE   W12
 BYTE   TIE  Ds4
 BYTE   W09
// 017   ----------------------------------------
 BYTE   W60
 BYTE   VOL   20*Route209_mvl/mxv
 BYTE   W06
 BYTE   DsM1
 BYTE   W06
 BYTE   AsM2
 BYTE   W06
 BYTE   FsM2
 BYTE   W06
 BYTE   DsM2
 BYTE   W08
 BYTE   EOT
 BYTE   W04
// 018   ----------------------------------------
 BYTE   VOL   22*Route209_mvl/mxv
 BYTE   W03
 BYTE   VOICE   73
 BYTE   N11  Gs4
 BYTE   W12
 BYTE   Ds4
 BYTE   W12
 BYTE   Gs4
 BYTE   W12
 BYTE   N23  Bn4
 BYTE   W24
 BYTE   N11  As4
 BYTE   W12
 BYTE   Gs4
 BYTE   W12
 BYTE   N23  As4
 BYTE   W09
// 019   ----------------------------------------
 BYTE   W15
 BYTE   N11
 BYTE   W12
 BYTE   N64  Gs4
 BYTE   W68
 BYTE   W01
// 020   ----------------------------------------
 BYTE   W96
// 021   ----------------------------------------
 BYTE   W03
 BYTE   N05
 BYTE   W06
 BYTE   Ds4
 BYTE   W06
 BYTE   Ds4  v040
 BYTE   W06
 BYTE   Gs4  v127
 BYTE   W06
 BYTE   Gs4  v040
 BYTE   W12
 BYTE   Cn5  v127
 BYTE   W06
 BYTE   Cs5
 BYTE   W06
 BYTE   Ds5
 BYTE   W06
 BYTE   Fn5  v096
 BYTE   W06
 BYTE   Fn5  v040
 BYTE   W06
 BYTE   Ds5  v127
 BYTE   W06
 BYTE   Ds5  v040
 BYTE   W06
 BYTE   Cs5  v127
 BYTE   W06
 BYTE   Cn5
 BYTE   W06
 BYTE   As4
 BYTE   W03
// 022   ----------------------------------------
 BYTE   W03
 BYTE   Gs4
 BYTE   W06
 BYTE   Ds4
 BYTE   W06
 BYTE   Ds4  v040
 BYTE   W06
 BYTE   Gs4  v127
 BYTE   W06
 BYTE   Gs4  v040
 BYTE   W12
 BYTE   Cs5  v127
 BYTE   W06
 BYTE   Cn5
 BYTE   W06
 BYTE   Cn5  v040
 BYTE   W06
 BYTE   Gs4  v127
 BYTE   W06
 BYTE   Gs4  v040
 BYTE   W06
 BYTE   Ds4  v127
 BYTE   W06
 BYTE   N05
 BYTE   W06
 BYTE   Gs4
 BYTE   W06
 BYTE   As4
 BYTE   W06
 BYTE   Gs4
 BYTE   W03
// 023   ----------------------------------------
 BYTE   W03
 BYTE   Gs4  v040
 BYTE   W06
 BYTE   Ds4  v127
 BYTE   W06
 BYTE   Ds4  v040
 BYTE   W06
 BYTE   Gs4  v127
 BYTE   W06
 BYTE   Gs4  v040
 BYTE   W12
 BYTE   Cn5  v127
 BYTE   W06
 BYTE   Cs5
 BYTE   W06
 BYTE   Cn5
 BYTE   W06
 BYTE   As4
 BYTE   W06
 BYTE   Gs4
 BYTE   W06
 BYTE   Ds4
 BYTE   W06
 BYTE   Ds4  v040
 BYTE   W06
 BYTE   Gs4  v127
 BYTE   W06
 BYTE   Cn5
 BYTE   W06
 BYTE   Cs5
 BYTE   W03
// 024   ----------------------------------------
 BYTE   W03
 BYTE   Ds5
 BYTE   W06
 BYTE   N05
 BYTE   W06
 BYTE   Ds5  v040
 BYTE   W06
 BYTE   Gs4  v127
 BYTE   W06
 BYTE   Gs4  v040
 BYTE   W12
 BYTE   Fn5  v127
 BYTE   W06
 BYTE   Ds5
 BYTE   W06
 BYTE   Cn5
 BYTE   W06
 BYTE   Gs4
 BYTE   W06
 BYTE   Gs4  v040
 BYTE   W06
 BYTE   Ds4  v127
 BYTE   W06
 BYTE   Ds4  v040
 BYTE   W06
 BYTE   Cs5  v127
 BYTE   W06
 BYTE   Cn5
 BYTE   W06
 BYTE   Gs4
 BYTE   W03
// 025   ----------------------------------------
 BYTE   W03
 BYTE   As4
 BYTE   W06
 BYTE   TIE  Gs4
 BYTE   W84
 BYTE   W03
// 026   ----------------------------------------
 BYTE   W12
 BYTE   VOL   18*Route209_mvl/mxv
 BYTE   W06
 BYTE   CnM1
 BYTE   W06
 BYTE   GnM2
 BYTE   W24
 BYTE   W02
 BYTE   EOT
 BYTE   W44
 BYTE   W01
 BYTE   GoTo
  POIN2 Label_1_01648A25
 BYTE   FINE

//**************** Track 3 (Midi-Chn.2) ****************//

Route209_003:
// 000   ----------------------------------------
 BYTE   KEYSH   Route209_key+0
 BYTE   VOICE   46
 BYTE   PAN   c_v+0
 BYTE   VOL   45*Route209_mvl/mxv
 BYTE   MOD 0
 BYTE   CnM2
 BYTE   PAN   c_v-47
 BYTE   VOL   45*Route209_mvl/mxv
 BYTE   BEND   c_v+0
 BYTE   N11  As5  v112
 BYTE   W12
 BYTE   Ds5
 BYTE   W12
 BYTE   PAN   c_v-33
 BYTE   N11  As5
 BYTE   W12
 BYTE   Ds5
 BYTE   W12
 BYTE   PAN   c_v-15
 BYTE   N11  As5
 BYTE   W12
 BYTE   Ds5
 BYTE   W12
 BYTE   PAN   c_v+15
 BYTE   N11
 BYTE   W12
 BYTE   Gs4
 BYTE   W12
// 001   ----------------------------------------
Label_2_01648C5A:
 BYTE   PAN   c_v-46
 BYTE   VOL   34*Route209_mvl/mxv
 BYTE   N11  Gs4  v112
 BYTE   W12
 BYTE   Ds4
 BYTE   W12
 BYTE   Gs4
 BYTE   W12
 BYTE   N05  Cn5
 BYTE   W06
 BYTE   Cs5
 BYTE   W06
 BYTE   N17  Ds5
 BYTE   W18
 BYTE   N05  Fn5
 BYTE   W06
 BYTE   Ds5
 BYTE   W06
 BYTE   Cs5
 BYTE   W06
 BYTE   Cn5
 BYTE   W06
 BYTE   As4
 BYTE   W06
// 002   ----------------------------------------
 BYTE   N11  Cn5
 BYTE   W12
 BYTE   Cs5
 BYTE   W12
 BYTE   Cn5
 BYTE   W12
 BYTE   As4
 BYTE   W12
 BYTE   Gs4
 BYTE   W12
 BYTE   Ds4
 BYTE   W12
 BYTE   Gs4
 BYTE   W12
 BYTE   N05  Cn5
 BYTE   W06
 BYTE   Cs5
 BYTE   W06
// 003   ----------------------------------------
 BYTE   N11  Ds5
 BYTE   W12
 BYTE   Gs4
 BYTE   W12
 BYTE   Ds4
 BYTE   W12
 BYTE   N05  Cn5
 BYTE   W06
 BYTE   Cs5
 BYTE   W06
 BYTE   Ds5
 BYTE   W06
 BYTE   Cs5
 BYTE   W06
 BYTE   Cn5
 BYTE   W06
 BYTE   As4
 BYTE   W06
 BYTE   N11  Gs4
 BYTE   W12
 BYTE   Ds4
 BYTE   W12
// 004   ----------------------------------------
 BYTE   Bn4
 BYTE   W12
 BYTE   As4
 BYTE   W12
 BYTE   N05  Gs4
 BYTE   W06
 BYTE   Ds4
 BYTE   W06
 BYTE   Bn3
 BYTE   W06
 BYTE   Cs4
 BYTE   W06
 BYTE   N11  En4
 BYTE   W12
 BYTE   Gs4
 BYTE   W12
 BYTE   Bn4
 BYTE   W12
 BYTE   As4
 BYTE   W12
// 005   ----------------------------------------
 BYTE   PAN   c_v-33
 BYTE   W12
 BYTE   N05  Ds2
 BYTE   W06
 BYTE   N28
 BYTE   W30
 BYTE   PAN   c_v+0
 BYTE   N05  Ds3
 BYTE   W06
 BYTE   N28
 BYTE   W18
 BYTE   PAN   c_v+31
 BYTE   W12
 BYTE   N05  Cn4
 BYTE   W06
 BYTE   N17
 BYTE   W06
// 006   ----------------------------------------
 BYTE   PAN   c_v-32
 BYTE   W12
 BYTE   N05  Fn2
 BYTE   W06
 BYTE   N28
 BYTE   W30
 BYTE   PAN   c_v+0
 BYTE   N05  Fn3
 BYTE   W06
 BYTE   N28
 BYTE   W18
 BYTE   PAN   c_v+33
 BYTE   W12
 BYTE   N05  Cs4
 BYTE   W06
 BYTE   N17
 BYTE   W06
// 007   ----------------------------------------
 BYTE   PAN   c_v+50
 BYTE   W12
 BYTE   N11  Ds5
 BYTE   W12
 BYTE   Ds5  v072
 BYTE   W12
 BYTE   Ds5  v040
 BYTE   W12
 BYTE   PAN   c_v-34
 BYTE   N11  Cn5  v112
 BYTE   W12
 BYTE   Cn5  v072
 BYTE   W12
 BYTE   N17  Cn5  v040
 BYTE   W24
// 008   ----------------------------------------
 BYTE   PAN   c_v+50
 BYTE   W12
 BYTE   N11  Fn5  v112
 BYTE   W12
 BYTE   Fn5  v072
 BYTE   W12
 BYTE   Fn5  v040
 BYTE   W12
 BYTE   PAN   c_v-34
 BYTE   N11  Cs5  v112
 BYTE   W12
 BYTE   Cs5  v072
 BYTE   W12
 BYTE   N17  Cs5  v040
 BYTE   W24
// 009   ----------------------------------------
 BYTE   VOL   29*Route209_mvl/mxv
 BYTE   W24
 BYTE   N23  Ds2  v112
 BYTE   W24
 BYTE   Gs2
 BYTE   W24
 BYTE   N11  As2
 BYTE   W12
 BYTE   N23  Gs2
 BYTE   W12
// 010   ----------------------------------------
 BYTE   W12
 BYTE   N11
 BYTE   W12
 BYTE   N23  Cs2
 BYTE   W24
 BYTE   Gs2
 BYTE   W24
 BYTE   N11  As2
 BYTE   W12
 BYTE   N23  Gs2
 BYTE   W12
// 011   ----------------------------------------
 BYTE   W12
 BYTE   N11
 BYTE   W12
 BYTE   N23  Ds2
 BYTE   W24
 BYTE   Gs2
 BYTE   W24
 BYTE   N11  As2
 BYTE   W12
 BYTE   N23  Cn3
 BYTE   W12
// 012   ----------------------------------------
 BYTE   W12
 BYTE   N11
 BYTE   W12
 BYTE   N23  Gs2
 BYTE   W24
 BYTE   Gn2
 BYTE   W24
 BYTE   PAN   c_v-15
 BYTE   N11  Cn3
 BYTE   W12
 BYTE   PAN   c_v+0
 BYTE   N11  Gn3
 BYTE   W12
// 013   ----------------------------------------
 BYTE   PAN   c_v+23
 BYTE   N11  Gs3
 BYTE   W12
 BYTE   N11
 BYTE   W12
 BYTE   N05  Gs3  v040
 BYTE   W24
 BYTE   N11  Gs3  v112
 BYTE   W12
 BYTE   N11
 BYTE   W12
 BYTE   N05  Gs3  v040
 BYTE   W24
// 014   ----------------------------------------
 BYTE   N11  Gs3  v112
 BYTE   W12
 BYTE   N11
 BYTE   W12
 BYTE   N05  Gs3  v040
 BYTE   W12
 BYTE   N17  Gs3  v112
 BYTE   W18
 BYTE   N05  Gs3  v040
 BYTE   W42
// 015   ----------------------------------------
 BYTE   W84
 BYTE   Gs3  v112
 BYTE   W06
 BYTE   As3
 BYTE   W06
// 016   ----------------------------------------
 BYTE   Bn3
 BYTE   W06
 BYTE   N05
 BYTE   W06
 BYTE   Bn3  v040
 BYTE   W24
 BYTE   As3  v112
 BYTE   W06
 BYTE   Bn3
 BYTE   W06
 BYTE   Cs4
 BYTE   W06
 BYTE   N05
 BYTE   W06
 BYTE   Cs4  v040
 BYTE   W24
 BYTE   Bn3  v112
 BYTE   W06
 BYTE   Cs4
 BYTE   W06
// 017   ----------------------------------------
 BYTE   PAN   c_v-26
 BYTE   VOL   38*Route209_mvl/mxv
 BYTE   N23  Ds4
 BYTE   W24
 BYTE   N11  As3
 BYTE   W12
 BYTE   N23  Gs3
 BYTE   W24
 BYTE   N11  Ds3
 BYTE   W12
 BYTE   N05  Gs3
 BYTE   W06
 BYTE   Ds3
 BYTE   W06
 BYTE   As2
 BYTE   W06
 BYTE   Gs2
 BYTE   W06
// 018   ----------------------------------------
 BYTE   N11  En2
 BYTE   W12
 BYTE   N05  Gs2
 BYTE   W06
 BYTE   N11  Bn2
 BYTE   W12
 BYTE   N05  Gs2
 BYTE   W06
 BYTE   Bn2
 BYTE   W06
 BYTE   Ds3
 BYTE   W06
 BYTE   N11  Fs2
 BYTE   W12
 BYTE   N05  As2
 BYTE   W06
 BYTE   N11  Cs3
 BYTE   W12
 BYTE   N05  As2
 BYTE   W06
 BYTE   Cs3
 BYTE   W06
 BYTE   As3
 BYTE   W06
// 019   ----------------------------------------
 BYTE   W24
 BYTE   PAN   c_v-48
 BYTE   N05  Gs5  v064
 BYTE   W06
 BYTE   Ds5
 BYTE   W06
 BYTE   Cn6  v072
 BYTE   W06
 BYTE   Cs6
 BYTE   W06
 BYTE   Ds6
 BYTE   W06
 BYTE   Ds5  v080
 BYTE   W06
 BYTE   Gs5  v084
 BYTE   W06
 BYTE   Ds6
 BYTE   W06
 BYTE   PAN   c_v-29
 BYTE   N05  Cs6
 BYTE   W06
 BYTE   Cn6  v080
 BYTE   W06
 BYTE   Gs5
 BYTE   W06
 BYTE   Ds5  v076
 BYTE   W06
// 020   ----------------------------------------
 BYTE   PAN   c_v+11
 BYTE   N05  Cs5  v112
 BYTE   W06
 BYTE   Cn5
 BYTE   W06
 BYTE   Gs4
 BYTE   W06
 BYTE   Ds4
 BYTE   W06
 BYTE   PAN   c_v+39
 BYTE   N05  Cs4
 BYTE   W06
 BYTE   Cn4
 BYTE   W06
 BYTE   Gs3
 BYTE   W06
 BYTE   Ds3
 BYTE   W06
 BYTE   Gs3
 BYTE   W06
 BYTE   Ds3
 BYTE   W06
 BYTE   Cn4
 BYTE   W06
 BYTE   Cs4
 BYTE   W06
 BYTE   PAN   c_v-6
 BYTE   N05  Ds4
 BYTE   W06
 BYTE   Gs4
 BYTE   W06
 BYTE   As4
 BYTE   W06
 BYTE   Cn5
 BYTE   W06
// 021   ----------------------------------------
 BYTE   PAN   c_v+36
 BYTE   W12
 BYTE   N05  Gn3
 BYTE   W06
 BYTE   Gn3  v040
 BYTE   W12
 BYTE   Gn3  v112
 BYTE   W06
 BYTE   Gn3  v040
 BYTE   W24
 BYTE   As3  v112
 BYTE   W06
 BYTE   As3  v040
 BYTE   W12
 BYTE   As3  v112
 BYTE   W06
 BYTE   As3  v040
 BYTE   W12
// 022   ----------------------------------------
 BYTE   W12
 BYTE   Cn4  v112
 BYTE   W06
 BYTE   Cn4  v040
 BYTE   W12
 BYTE   Cn4  v112
 BYTE   W06
 BYTE   Cn4  v040
 BYTE   W24
 BYTE   Cs4  v112
 BYTE   W06
 BYTE   Cs4  v040
 BYTE   W06
 BYTE   Cs4  v112
 BYTE   W06
 BYTE   N05
 BYTE   W06
 BYTE   Cs4  v040
 BYTE   W06
 BYTE   Gn3  v112
 BYTE   W06
// 023   ----------------------------------------
 BYTE   Gn3  v040
 BYTE   W06
 BYTE   Gn3  v112
 BYTE   W06
 BYTE   Gn3  v040
 BYTE   W12
 BYTE   Gn3  v112
 BYTE   W06
 BYTE   N05
 BYTE   W06
 BYTE   Gn3  v040
 BYTE   W06
 BYTE   As3  v112
 BYTE   W06
 BYTE   As3  v040
 BYTE   W06
 BYTE   As3  v112
 BYTE   W06
 BYTE   As3  v040
 BYTE   W12
 BYTE   As3  v112
 BYTE   W06
 BYTE   N05
 BYTE   W06
 BYTE   As3  v040
 BYTE   W06
 BYTE   Cn4  v112
 BYTE   W06
// 024   ----------------------------------------
 BYTE   Cn4  v040
 BYTE   W06
 BYTE   Cn4  v112
 BYTE   W06
 BYTE   Cn4  v040
 BYTE   W12
 BYTE   Cn4  v112
 BYTE   W06
 BYTE   N05
 BYTE   W06
 BYTE   Cn4  v040
 BYTE   W06
 BYTE   Cs4  v112
 BYTE   W06
 BYTE   Cs4  v040
 BYTE   W06
 BYTE   Cs4  v112
 BYTE   W06
 BYTE   Cs4  v040
 BYTE   W06
 BYTE   Cs3  v112
 BYTE   W06
 BYTE   N05
 BYTE   W06
 BYTE   N05
 BYTE   W06
 BYTE   Cs3  v040
 BYTE   W06
 BYTE   Cs3  v112
 BYTE   W06
// 025   ----------------------------------------
 BYTE   PAN   c_v-47
 BYTE   N11  As5
 BYTE   W12
 BYTE   Ds5
 BYTE   W12
 BYTE   PAN   c_v-33
 BYTE   N11  As5
 BYTE   W12
 BYTE   Ds5
 BYTE   W12
 BYTE   PAN   c_v-15
 BYTE   N11  As5
 BYTE   W12
 BYTE   Ds5
 BYTE   W12
 BYTE   PAN   c_v+15
 BYTE   N11
 BYTE   W12
 BYTE   Gs4
 BYTE   W12
// 026   ----------------------------------------
 BYTE   PAN   c_v-47
 BYTE   N11  As5
 BYTE   W12
 BYTE   Cs5
 BYTE   W12
 BYTE   PAN   c_v-33
 BYTE   N11  As5
 BYTE   W12
 BYTE   Cs5
 BYTE   W12
 BYTE   PAN   c_v-15
 BYTE   N11  As5
 BYTE   W12
 BYTE   Cs5
 BYTE   W12
 BYTE   PAN   c_v+15
 BYTE   N11
 BYTE   W12
 BYTE   Gs4
 BYTE   W11
 BYTE   GoTo
  POIN2 Label_2_01648C5A
 BYTE   FINE

//**************** Track 4 (Midi-Chn.3) ****************//

Route209_004:
// 000   ----------------------------------------
 BYTE   KEYSH   Route209_key+0
 BYTE   VOICE   48
 BYTE   PAN   c_v+0
 BYTE   VOL   45*Route209_mvl/mxv
 BYTE   MOD 0
 BYTE   CnM2
 BYTE   VOL   45*Route209_mvl/mxv
 BYTE   BEND   c_v+0
 BYTE   W96
// 001   ----------------------------------------
Label_3_01648EFF:
 BYTE   VOL   45*Route209_mvl/mxv
 BYTE   PAN   c_v+32
 BYTE   N05  Ds3  v112
 BYTE   W06
 BYTE   N02  Ds3  v040
 BYTE   W06
 BYTE   N01  Ds3  v112
 BYTE   W04
 BYTE   N01
 BYTE   W04
 BYTE   N01
 BYTE   W04
 BYTE   N05
 BYTE   W06
 BYTE   N02  Ds3  v040
 BYTE   W06
 BYTE   Gs3  v112
 BYTE   W03
 BYTE   N02
 BYTE   W03
 BYTE   Gs3  v040
 BYTE   W06
 BYTE   N05  Ds3  v112
 BYTE   W06
 BYTE   N02  Ds3  v040
 BYTE   W06
 BYTE   N01  Ds3  v112
 BYTE   W04
 BYTE   N01
 BYTE   W04
 BYTE   N01
 BYTE   W04
 BYTE   N05
 BYTE   W06
 BYTE   N02  Ds3  v040
 BYTE   W06
 BYTE   Gs3  v112
 BYTE   W03
 BYTE   N02
 BYTE   W03
 BYTE   Gs3  v040
 BYTE   W06
// 002   ----------------------------------------
 BYTE   N05  Cn3  v112
 BYTE   W06
 BYTE   N02  Cn3  v040
 BYTE   W06
 BYTE   N01  Cn3  v112
 BYTE   W04
 BYTE   N01
 BYTE   W04
 BYTE   N01
 BYTE   W04
 BYTE   N05
 BYTE   W06
 BYTE   N02  Cn3  v040
 BYTE   W06
 BYTE   Gs3  v112
 BYTE   W03
 BYTE   N02
 BYTE   W03
 BYTE   Gs3  v040
 BYTE   W06
 BYTE   N05  Cn3  v112
 BYTE   W06
 BYTE   N02  Cn3  v040
 BYTE   W06
 BYTE   N01  Cn3  v112
 BYTE   W04
 BYTE   N01
 BYTE   W04
 BYTE   N01
 BYTE   W04
 BYTE   N05
 BYTE   W06
 BYTE   N02  Cn3  v040
 BYTE   W06
 BYTE   Gs3  v112
 BYTE   W03
 BYTE   N02
 BYTE   W03
 BYTE   Gs3  v040
 BYTE   W06
// 003   ----------------------------------------
 BYTE   N05  Cs3  v112
 BYTE   W06
 BYTE   N02  Cs3  v040
 BYTE   W06
 BYTE   N01  Cs3  v112
 BYTE   W04
 BYTE   N01
 BYTE   W04
 BYTE   N01
 BYTE   W04
 BYTE   N05
 BYTE   W06
 BYTE   N02  Cs3  v040
 BYTE   W06
 BYTE   Gs3  v112
 BYTE   W03
 BYTE   N02
 BYTE   W03
 BYTE   Gs3  v040
 BYTE   W06
 BYTE   N05  Ds3  v112
 BYTE   W06
 BYTE   N02  Ds3  v040
 BYTE   W06
 BYTE   N01  Ds3  v112
 BYTE   W04
 BYTE   N01
 BYTE   W04
 BYTE   N01
 BYTE   W04
 BYTE   N05
 BYTE   W06
 BYTE   N02  Ds3  v040
 BYTE   W06
 BYTE   Gs3  v112
 BYTE   W03
 BYTE   N02
 BYTE   W03
 BYTE   Gs3  v040
 BYTE   W06
// 004   ----------------------------------------
 BYTE   N05  Bn2  v112
 BYTE   W06
 BYTE   N02  Bn2  v040
 BYTE   W06
 BYTE   N01  Bn2  v112
 BYTE   W04
 BYTE   N01
 BYTE   W04
 BYTE   N01
 BYTE   W04
 BYTE   N05
 BYTE   W06
 BYTE   N02  Bn2  v040
 BYTE   W06
 BYTE   Gs3  v112
 BYTE   W03
 BYTE   N02
 BYTE   W03
 BYTE   Gs3  v040
 BYTE   W06
 BYTE   N05  Cs3  v112
 BYTE   W06
 BYTE   N02  Cs3  v040
 BYTE   W06
 BYTE   N01  Cs3  v112
 BYTE   W04
 BYTE   N01
 BYTE   W04
 BYTE   N01
 BYTE   W04
 BYTE   N05
 BYTE   W06
 BYTE   N02  Cs3  v040
 BYTE   W06
 BYTE   N01  Fs3  v112
 BYTE   W04
 BYTE   N01
 BYTE   W04
 BYTE   N01
 BYTE   W04
// 005   ----------------------------------------
 BYTE   W24
 BYTE   PAN   c_v-17
 BYTE   N05  Gs2
 BYTE   W06
 BYTE   N28
 BYTE   W18
 BYTE   PAN   c_v+16
 BYTE   W12
 BYTE   N05  Gs3
 BYTE   W06
 BYTE   N44
 BYTE   W30
// 006   ----------------------------------------
 BYTE   W24
 BYTE   PAN   c_v-16
 BYTE   N05  Gs2
 BYTE   W06
 BYTE   N28
 BYTE   W18
 BYTE   PAN   c_v+16
 BYTE   W12
 BYTE   N05  Gs3
 BYTE   W06
 BYTE   N28
 BYTE   W30
// 007   ----------------------------------------
 BYTE   PAN   c_v+50
 BYTE   W15
 BYTE   N11  Cn5
 BYTE   W12
 BYTE   Cn5  v072
 BYTE   W12
 BYTE   Cn5  v040
 BYTE   W09
 BYTE   PAN   c_v-34
 BYTE   W03
 BYTE   N11  Gs4  v112
 BYTE   W12
 BYTE   Gs4  v072
 BYTE   W12
 BYTE   N17  Gs4  v040
 BYTE   W21
// 008   ----------------------------------------
 BYTE   PAN   c_v+50
 BYTE   W15
 BYTE   N11  Cs5  v112
 BYTE   W12
 BYTE   Cs5  v072
 BYTE   W12
 BYTE   Cs5  v040
 BYTE   W09
 BYTE   PAN   c_v-34
 BYTE   W03
 BYTE   N11  Gs4  v112
 BYTE   W12
 BYTE   Gs4  v072
 BYTE   W12
 BYTE   N17  Gs4  v040
 BYTE   W21
// 009   ----------------------------------------
 BYTE   PAN   c_v+45
 BYTE   VOL   37*Route209_mvl/mxv
 BYTE   W24
 BYTE   N23  Gn3  v112
 BYTE   W48
 BYTE   As3
 BYTE   W24
// 010   ----------------------------------------
 BYTE   W24
 BYTE   Cn4
 BYTE   W48
 BYTE   Cs4
 BYTE   W24
// 011   ----------------------------------------
 BYTE   W24
 BYTE   Gn3
 BYTE   W48
 BYTE   As3
 BYTE   W24
// 012   ----------------------------------------
 BYTE   W24
 BYTE   Cn4
 BYTE   W48
 BYTE   N23
 BYTE   W24
// 013   ----------------------------------------
 BYTE   VOL   37*Route209_mvl/mxv
 BYTE   N11
 BYTE   W12
 BYTE   N11
 BYTE   W12
 BYTE   N05  Cn4  v040
 BYTE   W24
 BYTE   N11  Cn4  v112
 BYTE   W12
 BYTE   N11
 BYTE   W12
 BYTE   N05  Cn4  v040
 BYTE   W24
// 014   ----------------------------------------
 BYTE   N11  Cn4  v112
 BYTE   W12
 BYTE   N11
 BYTE   W12
 BYTE   N05  Cn4  v040
 BYTE   W12
 BYTE   N17  Cn4  v112
 BYTE   W18
 BYTE   N05  Cn4  v040
 BYTE   W42
// 015   ----------------------------------------
 BYTE   Cs4  v112
 BYTE   W06
 BYTE   Cs4  v040
 BYTE   W06
 BYTE   N03  Cs4  v112
 BYTE   W04
 BYTE   N03
 BYTE   W04
 BYTE   N03
 BYTE   W04
 BYTE   N05  Gs3
 BYTE   W06
 BYTE   N11  Cs4
 BYTE   W12
 BYTE   N05  Gs3
 BYTE   W06
 BYTE   Ds4
 BYTE   W06
 BYTE   Ds4  v040
 BYTE   W06
 BYTE   N03  Ds4  v112
 BYTE   W04
 BYTE   N03
 BYTE   W04
 BYTE   N03
 BYTE   W04
 BYTE   N05  As3
 BYTE   W06
 BYTE   N11  Ds4
 BYTE   W12
 BYTE   N05  As3
 BYTE   W06
// 016   ----------------------------------------
 BYTE   En4
 BYTE   W06
 BYTE   En4  v040
 BYTE   W06
 BYTE   N03  En4  v112
 BYTE   W04
 BYTE   N03
 BYTE   W04
 BYTE   N03
 BYTE   W04
 BYTE   N05  Bn3
 BYTE   W06
 BYTE   N11  En4
 BYTE   W12
 BYTE   N05  Bn3
 BYTE   W06
 BYTE   Fs4
 BYTE   W06
 BYTE   Fs4  v040
 BYTE   W06
 BYTE   N03  Fs4  v112
 BYTE   W04
 BYTE   N03
 BYTE   W04
 BYTE   N03
 BYTE   W04
 BYTE   N05  Cs4
 BYTE   W06
 BYTE   Fs4
 BYTE   W06
 BYTE   Fs4  v040
 BYTE   W06
 BYTE   Gn4  v112
 BYTE   W06
// 017   ----------------------------------------
 BYTE   VOL   45*Route209_mvl/mxv
 BYTE   N76  Gs4
 BYTE   W54
 BYTE   VOL   42*Route209_mvl/mxv
 BYTE   W06
 BYTE   An0
 BYTE   W06
 BYTE   Cs0
 BYTE   W06
 BYTE   DsM1
 BYTE   W06
 BYTE   AnM2
 BYTE   W18
// 018   ----------------------------------------
 BYTE   An1
 BYTE   W12
 BYTE   N11  Ds3
 BYTE   W12
 BYTE   N05  Ds3  v040
 BYTE   W06
 BYTE   Ds3  v112
 BYTE   W06
 BYTE   Ds3  v040
 BYTE   W24
 BYTE   N11  Fn3  v112
 BYTE   W12
 BYTE   N05  Fn3  v040
 BYTE   W06
 BYTE   Fn3  v112
 BYTE   W06
 BYTE   Fn3  v040
 BYTE   W12
// 019   ----------------------------------------
 BYTE   N11  Gs3  v112
 BYTE   W12
 BYTE   N05  Gs3  v040
 BYTE   W06
 BYTE   Gs3  v112
 BYTE   W06
 BYTE   Gs3  v040
 BYTE   W72
// 020   ----------------------------------------
 BYTE   N17  Gs3  v112
 BYTE   W18
 BYTE   N52  Gs3  v096
 BYTE   W54
 BYTE   PAN   c_v-6
 BYTE   W06
 BYTE   N05  Gs3  v112
 BYTE   W06
 BYTE   Gs3  v040
 BYTE   W12
// 021   ----------------------------------------
 BYTE   PAN   c_v+22
 BYTE   W12
 BYTE   N05  Ds3  v112
 BYTE   W06
 BYTE   Ds3  v040
 BYTE   W12
 BYTE   Ds3  v112
 BYTE   W06
 BYTE   Ds3  v040
 BYTE   W24
 BYTE   Gn3  v112
 BYTE   W06
 BYTE   Gn3  v040
 BYTE   W12
 BYTE   Gn3  v112
 BYTE   W06
 BYTE   Gn3  v040
 BYTE   W12
// 022   ----------------------------------------
 BYTE   W12
 BYTE   Gs3  v112
 BYTE   W06
 BYTE   Gs3  v040
 BYTE   W12
 BYTE   Gs3  v112
 BYTE   W06
 BYTE   Gs3  v040
 BYTE   W24
 BYTE   As3  v112
 BYTE   W06
 BYTE   As3  v040
 BYTE   W06
 BYTE   As3  v112
 BYTE   W06
 BYTE   N05
 BYTE   W06
 BYTE   As3  v040
 BYTE   W06
 BYTE   Ds3  v112
 BYTE   W06
// 023   ----------------------------------------
 BYTE   Ds3  v040
 BYTE   W06
 BYTE   Ds3  v112
 BYTE   W06
 BYTE   Ds3  v040
 BYTE   W12
 BYTE   Ds3  v112
 BYTE   W06
 BYTE   N05
 BYTE   W06
 BYTE   Ds3  v040
 BYTE   W06
 BYTE   Fs3  v112
 BYTE   W06
 BYTE   Fs3  v040
 BYTE   W06
 BYTE   Fs3  v112
 BYTE   W06
 BYTE   Fs3  v040
 BYTE   W12
 BYTE   Fs3  v112
 BYTE   W06
 BYTE   N05
 BYTE   W06
 BYTE   Fs3  v040
 BYTE   W06
 BYTE   Gs3  v112
 BYTE   W06
// 024   ----------------------------------------
 BYTE   Gs3  v040
 BYTE   W06
 BYTE   Gs3  v112
 BYTE   W06
 BYTE   Gs3  v040
 BYTE   W12
 BYTE   Gs3  v112
 BYTE   W06
 BYTE   N05
 BYTE   W06
 BYTE   Gs3  v040
 BYTE   W06
 BYTE   As3  v112
 BYTE   W06
 BYTE   As3  v040
 BYTE   W06
 BYTE   As3  v112
 BYTE   W06
 BYTE   As3  v040
 BYTE   W06
 BYTE   As3  v112
 BYTE   W06
 BYTE   N05
 BYTE   W06
 BYTE   N05
 BYTE   W06
 BYTE   As3  v040
 BYTE   W06
 BYTE   Gs3  v112
 BYTE   W06
// 025   ----------------------------------------
 BYTE   W96
// 026   ----------------------------------------
 BYTE   W92
 BYTE   W03
 BYTE   GoTo
  POIN2 Label_3_01648EFF
 BYTE   FINE

//**************** Track 5 (Midi-Chn.4) ****************//

Route209_005:
// 000   ----------------------------------------
 BYTE   KEYSH   Route209_key+0
 BYTE   VOICE   46
 BYTE   PAN   c_v+0
 BYTE   VOL   45*Route209_mvl/mxv
 BYTE   MOD 0
 BYTE   CnM2
 BYTE   PAN   c_v+32
 BYTE   VOL   45*Route209_mvl/mxv
 BYTE   BEND   c_v+0
 BYTE   W12
 BYTE   N11  Ds2  v112
 BYTE   W12
 BYTE   PAN   c_v+16
 BYTE   N11  Gs2
 BYTE   W12
 BYTE   As2
 BYTE   W12
 BYTE   PAN   c_v+0
 BYTE   N11  Cn3
 BYTE   W12
 BYTE   Ds3
 BYTE   W12
 BYTE   PAN   c_v-16
 BYTE   N11  Gs3
 BYTE   W12
 BYTE   Cn4
 BYTE   W12
// 001   ----------------------------------------
Label_4_016491F2:
 BYTE   VOICE   48
 BYTE   VOL   45*Route209_mvl/mxv
 BYTE   PAN   c_v-26
 BYTE   N05  Cn3  v112
 BYTE   W06
 BYTE   N02  Cn3  v040
 BYTE   W06
 BYTE   N01  Cn3  v112
 BYTE   W04
 BYTE   N01
 BYTE   W04
 BYTE   N01
 BYTE   W04
 BYTE   N05
 BYTE   W06
 BYTE   N02  Cn3  v040
 BYTE   W06
 BYTE   Ds3  v112
 BYTE   W03
 BYTE   N02
 BYTE   W03
 BYTE   Ds3  v040
 BYTE   W06
 BYTE   N05  Cn3  v112
 BYTE   W06
 BYTE   N02  Cn3  v040
 BYTE   W06
 BYTE   N01  Cn3  v112
 BYTE   W04
 BYTE   N01
 BYTE   W04
 BYTE   N01
 BYTE   W04
 BYTE   N05
 BYTE   W06
 BYTE   N02  Cn3  v040
 BYTE   W06
 BYTE   Ds3  v112
 BYTE   W03
 BYTE   N02
 BYTE   W03
 BYTE   Ds3  v040
 BYTE   W06
// 002   ----------------------------------------
 BYTE   N05  Gs2  v112
 BYTE   W06
 BYTE   N02  Gs2  v040
 BYTE   W06
 BYTE   N01  Gs2  v112
 BYTE   W04
 BYTE   N01
 BYTE   W04
 BYTE   N01
 BYTE   W04
 BYTE   N05
 BYTE   W06
 BYTE   N02  Gs2  v040
 BYTE   W06
 BYTE   Ds3  v112
 BYTE   W03
 BYTE   N02
 BYTE   W03
 BYTE   Ds3  v040
 BYTE   W06
 BYTE   N05  Gs2  v112
 BYTE   W06
 BYTE   N02  Gs2  v040
 BYTE   W06
 BYTE   N01  Gs2  v112
 BYTE   W04
 BYTE   N01
 BYTE   W04
 BYTE   N01
 BYTE   W04
 BYTE   N05
 BYTE   W06
 BYTE   N02  Gs2  v040
 BYTE   W06
 BYTE   Ds3  v112
 BYTE   W03
 BYTE   N02
 BYTE   W03
 BYTE   Ds3  v040
 BYTE   W06
// 003   ----------------------------------------
 BYTE   N05  Gs2  v112
 BYTE   W06
 BYTE   N02  Gs2  v040
 BYTE   W06
 BYTE   N01  Gs2  v112
 BYTE   W04
 BYTE   N01
 BYTE   W04
 BYTE   N01
 BYTE   W04
 BYTE   N05
 BYTE   W06
 BYTE   N02  Gs2  v040
 BYTE   W06
 BYTE   Cs3  v112
 BYTE   W03
 BYTE   N02
 BYTE   W03
 BYTE   Cs3  v040
 BYTE   W06
 BYTE   N05  Gs2  v112
 BYTE   W06
 BYTE   N02  Gs2  v040
 BYTE   W06
 BYTE   N01  Gs2  v112
 BYTE   W04
 BYTE   N01
 BYTE   W04
 BYTE   N01
 BYTE   W04
 BYTE   N05
 BYTE   W06
 BYTE   N02  Gs2  v040
 BYTE   W06
 BYTE   Cn3  v112
 BYTE   W03
 BYTE   N02
 BYTE   W03
 BYTE   Cn3  v040
 BYTE   W06
// 004   ----------------------------------------
 BYTE   N05  Gs2  v112
 BYTE   W06
 BYTE   N02  Gs2  v040
 BYTE   W06
 BYTE   N01  Gs2  v112
 BYTE   W04
 BYTE   N01
 BYTE   W04
 BYTE   N01
 BYTE   W04
 BYTE   N05
 BYTE   W06
 BYTE   N02  Gs2  v040
 BYTE   W06
 BYTE   En3  v112
 BYTE   W03
 BYTE   N02
 BYTE   W03
 BYTE   En3  v040
 BYTE   W06
 BYTE   N05  As2  v112
 BYTE   W06
 BYTE   N02  As2  v040
 BYTE   W06
 BYTE   N01  As2  v112
 BYTE   W04
 BYTE   N01
 BYTE   W04
 BYTE   N01
 BYTE   W04
 BYTE   N05
 BYTE   W06
 BYTE   N02  As2  v040
 BYTE   W06
 BYTE   N01  Cs3  v112
 BYTE   W04
 BYTE   N01
 BYTE   W04
 BYTE   N01
 BYTE   W04
// 005   ----------------------------------------
 BYTE   VOICE   2
 BYTE   W24
 BYTE   PAN   c_v-17
 BYTE   W12
 BYTE   N05  Cn3
 BYTE   W06
 BYTE   N28
 BYTE   W06
 BYTE   PAN   c_v+15
 BYTE   W24
 BYTE   N05  As3
 BYTE   W06
 BYTE   N32
 BYTE   W18
// 006   ----------------------------------------
 BYTE   W24
 BYTE   PAN   c_v-16
 BYTE   W12
 BYTE   N05  Cs3
 BYTE   W06
 BYTE   N28
 BYTE   W06
 BYTE   PAN   c_v+14
 BYTE   W24
 BYTE   N05  As3
 BYTE   W06
 BYTE   N23
 BYTE   W18
// 007   ----------------------------------------
 BYTE   VOICE   46
 BYTE   PAN   c_v+50
 BYTE   W18
 BYTE   N11  Gs4
 BYTE   W12
 BYTE   Gs4  v072
 BYTE   W12
 BYTE   Gs4  v040
 BYTE   W06
 BYTE   PAN   c_v-34
 BYTE   W06
 BYTE   N11  Ds4  v112
 BYTE   W12
 BYTE   Ds4  v072
 BYTE   W12
 BYTE   N17  Ds4  v040
 BYTE   W18
// 008   ----------------------------------------
 BYTE   PAN   c_v+50
 BYTE   W18
 BYTE   N11  Gs4  v112
 BYTE   W12
 BYTE   Gs4  v072
 BYTE   W12
 BYTE   Gs4  v040
 BYTE   W06
 BYTE   PAN   c_v-34
 BYTE   W06
 BYTE   N11  Fn4  v112
 BYTE   W12
 BYTE   Fn4  v072
 BYTE   W12
 BYTE   N17  Fn4  v040
 BYTE   W18
// 009   ----------------------------------------
 BYTE   VOICE   46
 BYTE   PAN   c_v+23
 BYTE   W24
 BYTE   N23  Ds3  v112
 BYTE   W48
 BYTE   Gn3
 BYTE   W24
// 010   ----------------------------------------
 BYTE   W24
 BYTE   Gs3
 BYTE   W48
 BYTE   As3
 BYTE   W24
// 011   ----------------------------------------
 BYTE   W24
 BYTE   Ds3
 BYTE   W48
 BYTE   Gn3
 BYTE   W24
// 012   ----------------------------------------
 BYTE   W24
 BYTE   Gs3
 BYTE   W48
 BYTE   Gn3
 BYTE   W24
// 013   ----------------------------------------
 BYTE   VOICE   48
 BYTE   VOL   40*Route209_mvl/mxv
 BYTE   PAN   c_v-20
 BYTE   N11  Fn3
 BYTE   W12
 BYTE   N11
 BYTE   W12
 BYTE   N05  Fn3  v040
 BYTE   W24
 BYTE   N11  En3  v112
 BYTE   W12
 BYTE   N11
 BYTE   W12
 BYTE   N05  En3  v040
 BYTE   W24
// 014   ----------------------------------------
 BYTE   N11  Ds3  v112
 BYTE   W12
 BYTE   N11
 BYTE   W12
 BYTE   N05  Ds3  v040
 BYTE   W12
 BYTE   N17  Fn3  v112
 BYTE   W18
 BYTE   N05  Fn3  v040
 BYTE   W42
// 015   ----------------------------------------
 BYTE   Gs3  v112
 BYTE   W06
 BYTE   Gs3  v040
 BYTE   W06
 BYTE   N03  Gs3  v112
 BYTE   W04
 BYTE   N03
 BYTE   W04
 BYTE   N03
 BYTE   W04
 BYTE   N05  Cs3
 BYTE   W06
 BYTE   N11  Fn3
 BYTE   W12
 BYTE   N05  Cs3
 BYTE   W06
 BYTE   As3
 BYTE   W06
 BYTE   As3  v040
 BYTE   W06
 BYTE   N03  As3  v112
 BYTE   W04
 BYTE   N03
 BYTE   W04
 BYTE   N03
 BYTE   W04
 BYTE   N05  Ds3
 BYTE   W06
 BYTE   N11  Gn3
 BYTE   W12
 BYTE   N05  Ds3
 BYTE   W06
// 016   ----------------------------------------
 BYTE   Bn3
 BYTE   W06
 BYTE   Bn3  v040
 BYTE   W06
 BYTE   N03  Bn3  v112
 BYTE   W04
 BYTE   N03
 BYTE   W04
 BYTE   N03
 BYTE   W04
 BYTE   N05  En3
 BYTE   W06
 BYTE   N11  Gs3
 BYTE   W12
 BYTE   N05  En3
 BYTE   W06
 BYTE   Cs4
 BYTE   W06
 BYTE   Cs4  v040
 BYTE   W06
 BYTE   N03  Cs4  v112
 BYTE   W04
 BYTE   N03
 BYTE   W04
 BYTE   N03
 BYTE   W04
 BYTE   N05  Fs3
 BYTE   W06
 BYTE   As3
 BYTE   W06
 BYTE   As3  v040
 BYTE   W06
 BYTE   Cs4  v112
 BYTE   W06
// 017   ----------------------------------------
 BYTE   VOL   45*Route209_mvl/mxv
 BYTE   N76  Cn4
 BYTE   W54
 BYTE   VOL   42*Route209_mvl/mxv
 BYTE   W06
 BYTE   An0
 BYTE   W06
 BYTE   Cs0
 BYTE   W06
 BYTE   DsM1
 BYTE   W06
 BYTE   AnM2
 BYTE   W18
// 018   ----------------------------------------
 BYTE   VOICE   4
 BYTE   VOL   45*Route209_mvl/mxv
 BYTE   W12
 BYTE   N11  Bn2
 BYTE   W12
 BYTE   N05  Bn2  v040
 BYTE   W06
 BYTE   Bn2  v112
 BYTE   W06
 BYTE   Bn2  v040
 BYTE   W24
 BYTE   N11  Cs3  v112
 BYTE   W12
 BYTE   N05  Cs3  v040
 BYTE   W06
 BYTE   Cs3  v112
 BYTE   W06
 BYTE   Cs3  v040
 BYTE   W12
// 019   ----------------------------------------
 BYTE   N11  Ds3  v112
 BYTE   W12
 BYTE   N05  Ds3  v040
 BYTE   W06
 BYTE   Ds3  v112
 BYTE   W06
 BYTE   Ds3  v040
 BYTE   W72
// 020   ----------------------------------------
 BYTE   VOICE   2
 BYTE   N17  Fn3  v112
 BYTE   W18
 BYTE   N52  Fn3  v096
 BYTE   W54
 BYTE   VOICE   4
 BYTE   PAN   c_v-6
 BYTE   W06
 BYTE   N05  Ds4  v112
 BYTE   W06
 BYTE   Ds4  v040
 BYTE   W12
// 021   ----------------------------------------
 BYTE   PAN   c_v-32
 BYTE   W12
 BYTE   N05  Cn3  v112
 BYTE   W06
 BYTE   Cn3  v040
 BYTE   W12
 BYTE   Cn3  v112
 BYTE   W06
 BYTE   Cn3  v040
 BYTE   W24
 BYTE   Ds3  v112
 BYTE   W06
 BYTE   Ds3  v040
 BYTE   W12
 BYTE   Ds3  v112
 BYTE   W06
 BYTE   Ds3  v040
 BYTE   W12
// 022   ----------------------------------------
 BYTE   W12
 BYTE   Fn3  v112
 BYTE   W06
 BYTE   Fn3  v040
 BYTE   W12
 BYTE   Fn3  v112
 BYTE   W06
 BYTE   Fn3  v040
 BYTE   W24
 BYTE   Gs3  v112
 BYTE   W06
 BYTE   Gs3  v040
 BYTE   W06
 BYTE   Gs3  v112
 BYTE   W06
 BYTE   N05
 BYTE   W06
 BYTE   Gs3  v040
 BYTE   W06
 BYTE   Cn3  v112
 BYTE   W06
// 023   ----------------------------------------
 BYTE   Cn3  v040
 BYTE   W06
 BYTE   Cn3  v112
 BYTE   W06
 BYTE   Cn3  v040
 BYTE   W12
 BYTE   Cn3  v112
 BYTE   W06
 BYTE   N05
 BYTE   W06
 BYTE   Cn3  v040
 BYTE   W06
 BYTE   Ds3  v112
 BYTE   W06
 BYTE   Ds3  v040
 BYTE   W06
 BYTE   Ds3  v112
 BYTE   W06
 BYTE   Ds3  v040
 BYTE   W12
 BYTE   Ds3  v112
 BYTE   W06
 BYTE   N05
 BYTE   W06
 BYTE   Ds3  v040
 BYTE   W06
 BYTE   Fn3  v112
 BYTE   W06
// 024   ----------------------------------------
 BYTE   Fn3  v040
 BYTE   W06
 BYTE   Fn3  v112
 BYTE   W06
 BYTE   Fn3  v040
 BYTE   W12
 BYTE   Fn3  v112
 BYTE   W06
 BYTE   N05
 BYTE   W06
 BYTE   Fn3  v040
 BYTE   W06
 BYTE   Gs3  v112
 BYTE   W06
 BYTE   Gs3  v040
 BYTE   W06
 BYTE   Gs3  v112
 BYTE   W06
 BYTE   Gs3  v040
 BYTE   W06
 BYTE   Gs3  v112
 BYTE   W06
 BYTE   N05
 BYTE   W06
 BYTE   N05
 BYTE   W06
 BYTE   Gs3  v040
 BYTE   W06
 BYTE   Ds3  v112
 BYTE   W06
// 025   ----------------------------------------
 BYTE   VOICE   46
 BYTE   PAN   c_v+32
 BYTE   N11  Gs1
 BYTE   W12
 BYTE   Ds2
 BYTE   W12
 BYTE   PAN   c_v+16
 BYTE   N11  Gs2
 BYTE   W12
 BYTE   As2
 BYTE   W12
 BYTE   PAN   c_v+0
 BYTE   N11  Cn3
 BYTE   W12
 BYTE   Ds3
 BYTE   W12
 BYTE   PAN   c_v-16
 BYTE   N11  Gs3
 BYTE   W12
 BYTE   Cn4
 BYTE   W12
// 026   ----------------------------------------
 BYTE   PAN   c_v+32
 BYTE   N11  Gs1
 BYTE   W12
 BYTE   Fn2
 BYTE   W12
 BYTE   PAN   c_v+16
 BYTE   N11  Gs2
 BYTE   W12
 BYTE   As2
 BYTE   W12
 BYTE   PAN   c_v+0
 BYTE   N11  Cs3
 BYTE   W12
 BYTE   Fn3
 BYTE   W12
 BYTE   PAN   c_v-16
 BYTE   N11  Gs3
 BYTE   W12
 BYTE   As3
 BYTE   W11
 BYTE   GoTo
  POIN2 Label_4_016491F2
 BYTE   FINE

//**************** Track 6 (Midi-Chn.5) ****************//

Route209_006:
// 000   ----------------------------------------
 BYTE   KEYSH   Route209_key+0
 BYTE   VOICE   14
 BYTE   PAN   c_v+0
 BYTE   VOL   45*Route209_mvl/mxv
 BYTE   MOD 0
 BYTE   CnM2
 BYTE   BEND   c_v+0
 BYTE   W72
 BYTE   N23  Ds3  v112
 BYTE   W24
// 001   ----------------------------------------
Label_5_01649515:
 BYTE   PAN   c_v+42
 BYTE   VOL   36*Route209_mvl/mxv
 BYTE   N44  Gs3  v112
 BYTE   W48
 BYTE   N23  Cn4
 BYTE   W24
 BYTE   N11  Ds4
 BYTE   W12
 BYTE   N56  Gs3
 BYTE   W12
// 002   ----------------------------------------
Label_5_01649526:
 BYTE   W48
 BYTE   N23  Cn4  v112
 BYTE   W24
 BYTE   N11  Ds4
 BYTE   W12
 BYTE   N56  Gs3
 BYTE   W12
 BYTE   PEND 
 BYTE   PATT
  POIN2 Label_5_01649526
// 003   ----------------------------------------
 BYTE   W48
 BYTE   N23  Bn3  v112
 BYTE   W24
 BYTE   As3
 BYTE   W24
// 004   ----------------------------------------
 BYTE   N11  Gs3
 BYTE   W12
 BYTE   Cn3
 BYTE   W12
 BYTE   Ds3
 BYTE   W12
 BYTE   Gs3
 BYTE   W12
 BYTE   As3
 BYTE   W12
 BYTE   Cn4
 BYTE   W12
 BYTE   Ds4
 BYTE   W12
 BYTE   N23  Gs4
 BYTE   W12
// 005   ----------------------------------------
 BYTE   W12
 BYTE   N11  Cs3
 BYTE   W12
 BYTE   Fn3
 BYTE   W12
 BYTE   Gs3
 BYTE   W12
 BYTE   As3
 BYTE   W12
 BYTE   Cs4
 BYTE   W12
 BYTE   Fn4
 BYTE   W12
 BYTE   N23  Gs4
 BYTE   W12
// 006   ----------------------------------------
 BYTE   W96
// 007   ----------------------------------------
 BYTE   W96
// 008   ----------------------------------------
 BYTE   W96
// 009   ----------------------------------------
 BYTE   W96
// 010   ----------------------------------------
 BYTE   W96
// 011   ----------------------------------------
 BYTE   W96
// 012   ----------------------------------------
 BYTE   W96
// 013   ----------------------------------------
 BYTE   W96
// 014   ----------------------------------------
 BYTE   W96
// 015   ----------------------------------------
 BYTE   W96
// 016   ----------------------------------------
 BYTE   N44  Gs3
 BYTE   W96
// 017   ----------------------------------------
 BYTE   Bn2
 BYTE   W48
 BYTE   Cs3
 BYTE   W48
// 018   ----------------------------------------
 BYTE   N11  Ds3
 BYTE   W12
 BYTE   Gs3
 BYTE   W12
 BYTE   As3
 BYTE   W12
 BYTE   N52  Gs3
 BYTE   W60
// 019   ----------------------------------------
 BYTE   W96
// 020   ----------------------------------------
 BYTE   W96
// 021   ----------------------------------------
 BYTE   W96
// 022   ----------------------------------------
 BYTE   W96
// 023   ----------------------------------------
 BYTE   W96
// 024   ----------------------------------------
 BYTE   W96
// 025   ----------------------------------------
 BYTE   W72
 BYTE   N23  Ds3
 BYTE   W23
 BYTE   GoTo
  POIN2 Label_5_01649515
 BYTE   FINE

//**************** Track 7 (Midi-Chn.6) ****************//

Route209_007:
// 000   ----------------------------------------
 BYTE   KEYSH   Route209_key+0
 BYTE   VOICE   46
 BYTE   PAN   c_v+0
 BYTE   VOL   45*Route209_mvl/mxv
 BYTE   MOD 0
 BYTE   CnM2
 BYTE   VOL   45*Route209_mvl/mxv
 BYTE   PAN   c_v-47
 BYTE   BEND   c_v+0
 BYTE   W06
 BYTE   N11  Gs5  v112
 BYTE   W12
 BYTE   N11
 BYTE   W06
 BYTE   PAN   c_v-33
 BYTE   W06
 BYTE   N11
 BYTE   W12
 BYTE   N11
 BYTE   W06
 BYTE   PAN   c_v-15
 BYTE   W06
 BYTE   N11
 BYTE   W12
 BYTE   N11
 BYTE   W06
 BYTE   PAN   c_v+15
 BYTE   W06
 BYTE   N11  As4
 BYTE   W12
 BYTE   N05  Ds4
 BYTE   W06
// 001   ----------------------------------------
Label_6_016495BA:
 BYTE   VOICE   45
 BYTE   PAN   c_v+51
 BYTE   VOL   30*Route209_mvl/mxv
 BYTE   W06
 BYTE   N02  Ds3  v112
 BYTE   W03
 BYTE   Ds3  v040
 BYTE   W03
 BYTE   Gs3  v112
 BYTE   W03
 BYTE   Gs3  v040
 BYTE   W03
 BYTE   Ds4  v112
 BYTE   W03
 BYTE   Ds4  v040
 BYTE   W03
 BYTE   Cs4  v112
 BYTE   W03
 BYTE   Cs4  v040
 BYTE   W03
 BYTE   Cn4  v112
 BYTE   W03
 BYTE   Cn4  v040
 BYTE   W03
 BYTE   Gs3  v112
 BYTE   W03
 BYTE   Gs3  v040
 BYTE   W03
 BYTE   Ds3  v112
 BYTE   W03
 BYTE   Ds3  v040
 BYTE   W03
 BYTE   Gn2  v112
 BYTE   W03
 BYTE   Gn2  v040
 BYTE   W03
 BYTE   Ds3  v112
 BYTE   W03
 BYTE   Ds3  v040
 BYTE   W03
 BYTE   Gs3  v112
 BYTE   W03
 BYTE   Gs3  v040
 BYTE   W03
 BYTE   Ds4  v112
 BYTE   W03
 BYTE   Ds4  v040
 BYTE   W03
 BYTE   Cs4  v112
 BYTE   W03
 BYTE   Cs4  v040
 BYTE   W03
 BYTE   Cn4  v112
 BYTE   W03
 BYTE   Cn4  v040
 BYTE   W03
 BYTE   Gs3  v112
 BYTE   W03
 BYTE   Gs3  v040
 BYTE   W03
 BYTE   Ds3  v112
 BYTE   W03
 BYTE   Ds3  v040
 BYTE   W03
// 002   ----------------------------------------
 BYTE   Fn2  v112
 BYTE   W03
 BYTE   Fn2  v040
 BYTE   W03
 BYTE   Ds3  v112
 BYTE   W03
 BYTE   Ds3  v040
 BYTE   W03
 BYTE   Gs3  v112
 BYTE   W03
 BYTE   Gs3  v040
 BYTE   W03
 BYTE   Ds4  v112
 BYTE   W03
 BYTE   Ds4  v040
 BYTE   W03
 BYTE   Cs4  v112
 BYTE   W03
 BYTE   Cs4  v040
 BYTE   W03
 BYTE   Cn4  v112
 BYTE   W03
 BYTE   Cn4  v040
 BYTE   W03
 BYTE   Gs3  v112
 BYTE   W03
 BYTE   Gs3  v040
 BYTE   W03
 BYTE   Ds3  v112
 BYTE   W03
 BYTE   Ds3  v040
 BYTE   W03
 BYTE   Ds2  v112
 BYTE   W03
 BYTE   Ds2  v040
 BYTE   W03
 BYTE   Ds3  v112
 BYTE   W03
 BYTE   Ds3  v040
 BYTE   W03
 BYTE   Gs3  v112
 BYTE   W03
 BYTE   Gs3  v040
 BYTE   W03
 BYTE   Ds4  v112
 BYTE   W03
 BYTE   Ds4  v040
 BYTE   W03
 BYTE   Cs4  v112
 BYTE   W03
 BYTE   Cs4  v040
 BYTE   W03
 BYTE   Cn4  v112
 BYTE   W03
 BYTE   Cn4  v040
 BYTE   W03
 BYTE   Gs3  v112
 BYTE   W03
 BYTE   Gs3  v040
 BYTE   W03
 BYTE   Ds3  v112
 BYTE   W03
 BYTE   Ds3  v040
 BYTE   W03
// 003   ----------------------------------------
 BYTE   Cs2  v112
 BYTE   W03
 BYTE   Cs2  v040
 BYTE   W03
 BYTE   Ds3  v112
 BYTE   W03
 BYTE   Ds3  v040
 BYTE   W03
 BYTE   Gs3  v112
 BYTE   W03
 BYTE   Gs3  v040
 BYTE   W03
 BYTE   Ds4  v112
 BYTE   W03
 BYTE   Ds4  v040
 BYTE   W03
 BYTE   Cs4  v112
 BYTE   W03
 BYTE   Cs4  v040
 BYTE   W03
 BYTE   Cn4  v112
 BYTE   W03
 BYTE   Cn4  v040
 BYTE   W03
 BYTE   Gs3  v112
 BYTE   W03
 BYTE   Gs3  v040
 BYTE   W03
 BYTE   Ds3  v112
 BYTE   W03
 BYTE   Ds3  v040
 BYTE   W03
 BYTE   Cn2  v112
 BYTE   W03
 BYTE   Cn2  v040
 BYTE   W03
 BYTE   Ds3  v112
 BYTE   W03
 BYTE   Ds3  v040
 BYTE   W03
 BYTE   Gs3  v112
 BYTE   W03
 BYTE   Gs3  v040
 BYTE   W03
 BYTE   Ds4  v112
 BYTE   W03
 BYTE   Ds4  v040
 BYTE   W03
 BYTE   Cs4  v112
 BYTE   W03
 BYTE   Cs4  v040
 BYTE   W03
 BYTE   Cn4  v112
 BYTE   W03
 BYTE   Cn4  v040
 BYTE   W03
 BYTE   Gs3  v112
 BYTE   W03
 BYTE   Gs3  v040
 BYTE   W03
 BYTE   Ds3  v112
 BYTE   W03
 BYTE   Ds3  v040
 BYTE   W03
// 004   ----------------------------------------
 BYTE   En2  v112
 BYTE   W03
 BYTE   En2  v040
 BYTE   W03
 BYTE   Bn2  v112
 BYTE   W03
 BYTE   Bn2  v040
 BYTE   W03
 BYTE   En3  v112
 BYTE   W03
 BYTE   En3  v040
 BYTE   W03
 BYTE   Gs3  v112
 BYTE   W03
 BYTE   Gs3  v040
 BYTE   W03
 BYTE   Bn3  v112
 BYTE   W03
 BYTE   Bn3  v040
 BYTE   W03
 BYTE   En4  v112
 BYTE   W03
 BYTE   En4  v040
 BYTE   W03
 BYTE   Bn3  v112
 BYTE   W03
 BYTE   Bn3  v040
 BYTE   W03
 BYTE   Gs4  v112
 BYTE   W03
 BYTE   Gs4  v040
 BYTE   W03
 BYTE   Fs2  v112
 BYTE   W03
 BYTE   Fs2  v040
 BYTE   W03
 BYTE   Cs3  v112
 BYTE   W03
 BYTE   Cs3  v040
 BYTE   W03
 BYTE   Fs3  v112
 BYTE   W03
 BYTE   Fs3  v040
 BYTE   W03
 BYTE   As3  v112
 BYTE   W03
 BYTE   As3  v040
 BYTE   W03
 BYTE   Cs4  v112
 BYTE   W03
 BYTE   Cs4  v040
 BYTE   W03
 BYTE   Fs4  v112
 BYTE   W03
 BYTE   Fs4  v040
 BYTE   W03
 BYTE   Cs4  v112
 BYTE   W03
 BYTE   Cs4  v040
 BYTE   W03
 BYTE   As4  v112
 BYTE   W03
 BYTE   As4  v040
 BYTE   W03
// 005   ----------------------------------------
 BYTE   VOICE   2
 BYTE   N05  Gs5  v112
 BYTE   W06
 BYTE   Ds5
 BYTE   W06
 BYTE   N05
 BYTE   W06
 BYTE   Gs4
 BYTE   W06
 BYTE   N05
 BYTE   W06
 BYTE   Ds4
 BYTE   W06
 BYTE   N05
 BYTE   W06
 BYTE   Gs3
 BYTE   W06
 BYTE   N05
 BYTE   W06
 BYTE   Ds3
 BYTE   W06
 BYTE   N05
 BYTE   W06
 BYTE   Gs3
 BYTE   W06
 BYTE   N05
 BYTE   W06
 BYTE   Ds4
 BYTE   W06
 BYTE   Gs4
 BYTE   W06
 BYTE   Ds5
 BYTE   W06
// 006   ----------------------------------------
Label_6_01649760:
 BYTE   N05  Gs5  v112
 BYTE   W06
 BYTE   Cs5
 BYTE   W06
 BYTE   N05
 BYTE   W06
 BYTE   Gs4
 BYTE   W06
 BYTE   N05
 BYTE   W06
 BYTE   Cs4
 BYTE   W06
 BYTE   N05
 BYTE   W06
 BYTE   Gs3
 BYTE   W06
 BYTE   N05
 BYTE   W06
 BYTE   Cs3
 BYTE   W06
 BYTE   N05
 BYTE   W06
 BYTE   Gs3
 BYTE   W06
 BYTE   N05
 BYTE   W06
 BYTE   Cs4
 BYTE   W06
 BYTE   Gs4
 BYTE   W06
 BYTE   Cs5
 BYTE   W06
 BYTE   PEND 
// 007   ----------------------------------------
 BYTE   Gs5
 BYTE   W06
 BYTE   Ds5
 BYTE   W06
 BYTE   N05
 BYTE   W06
 BYTE   Gs4
 BYTE   W06
 BYTE   N05
 BYTE   W06
 BYTE   Ds4
 BYTE   W06
 BYTE   N05
 BYTE   W06
 BYTE   Gs3
 BYTE   W06
 BYTE   N05
 BYTE   W06
 BYTE   Ds3
 BYTE   W06
 BYTE   N05
 BYTE   W06
 BYTE   Gs3
 BYTE   W06
 BYTE   N05
 BYTE   W06
 BYTE   Ds4
 BYTE   W06
 BYTE   Gs4
 BYTE   W06
 BYTE   Ds5
 BYTE   W06
 BYTE   PATT
  POIN2 Label_6_01649760
// 008   ----------------------------------------
 BYTE   VOICE   46
 BYTE   PAN   c_v-23
 BYTE   W24
 BYTE   N23  Cn3  v112
 BYTE   W48
 BYTE   Ds3
 BYTE   W24
// 009   ----------------------------------------
 BYTE   W24
 BYTE   Fn3
 BYTE   W48
 BYTE   Gs3
 BYTE   W24
// 010   ----------------------------------------
 BYTE   W24
 BYTE   Cn3
 BYTE   W48
 BYTE   Ds3
 BYTE   W24
// 011   ----------------------------------------
 BYTE   W24
 BYTE   Fn3
 BYTE   W48
 BYTE   N23
 BYTE   W24
// 012   ----------------------------------------
 BYTE   PAN   c_v-28
 BYTE   W18
 BYTE   N05  Fn4
 BYTE   W06
 BYTE   Gs4
 BYTE   W06
 BYTE   N11  Cn5
 BYTE   W36
 BYTE   N05  En4
 BYTE   W06
 BYTE   Gs4
 BYTE   W06
 BYTE   N11  Cn5
 BYTE   W18
// 013   ----------------------------------------
 BYTE   W18
 BYTE   N05  Ds4
 BYTE   W06
 BYTE   Gs4
 BYTE   W06
 BYTE   Cn5
 BYTE   W06
 BYTE   Ds5
 BYTE   W06
 BYTE   N28  Gs5
 BYTE   W54
// 014   ----------------------------------------
 BYTE   VOICE   60
 BYTE   PAN   c_v-48
 BYTE   VOL   30*Route209_mvl/mxv
 BYTE   N11  Cs3
 BYTE   W12
 BYTE   N02  Gs2
 BYTE   W03
 BYTE   Gs2  v040
 BYTE   W03
 BYTE   N11  Cs3  v112
 BYTE   W12
 BYTE   N02  Gs2
 BYTE   W03
 BYTE   Gs2  v040
 BYTE   W03
 BYTE   Cs3  v112
 BYTE   W03
 BYTE   Cs3  v040
 BYTE   W03
 BYTE   Gs3  v112
 BYTE   W03
 BYTE   Gs3  v040
 BYTE   W03
 BYTE   N11  Ds3  v112
 BYTE   W12
 BYTE   N02  As2
 BYTE   W03
 BYTE   As2  v040
 BYTE   W03
 BYTE   N11  Ds3  v112
 BYTE   W12
 BYTE   N02  As2
 BYTE   W03
 BYTE   As2  v040
 BYTE   W03
 BYTE   Ds3  v112
 BYTE   W03
 BYTE   Ds3  v040
 BYTE   W03
 BYTE   As3  v112
 BYTE   W03
 BYTE   As3  v040
 BYTE   W03
// 015   ----------------------------------------
 BYTE   N11  En3  v112
 BYTE   W12
 BYTE   N02  Bn2
 BYTE   W03
 BYTE   Bn2  v040
 BYTE   W03
 BYTE   N11  En3  v112
 BYTE   W12
 BYTE   N02  Bn2
 BYTE   W03
 BYTE   Bn2  v040
 BYTE   W03
 BYTE   En3  v112
 BYTE   W03
 BYTE   En3  v040
 BYTE   W03
 BYTE   Bn3  v112
 BYTE   W03
 BYTE   Bn3  v040
 BYTE   W03
 BYTE   N11  Fs3  v112
 BYTE   W12
 BYTE   N02  Cs3
 BYTE   W03
 BYTE   Cs3  v040
 BYTE   W03
 BYTE   N11  Fs3  v112
 BYTE   W12
 BYTE   N02  Cs3
 BYTE   W03
 BYTE   Cs3  v040
 BYTE   W03
 BYTE   Fs3  v112
 BYTE   W03
 BYTE   Fs3  v040
 BYTE   W03
 BYTE   Cs4  v112
 BYTE   W03
 BYTE   Cs4  v040
 BYTE   W03
// 016   ----------------------------------------
 BYTE   VOICE   46
 BYTE   PAN   c_v+51
 BYTE   VOL   40*Route209_mvl/mxv
 BYTE   W12
 BYTE   N11  Ds4  v112
 BYTE   W12
 BYTE   N05  As4
 BYTE   W06
 BYTE   N17  Gs4
 BYTE   W18
 BYTE   N05  Ds4
 BYTE   W06
 BYTE   Gs4
 BYTE   W06
 BYTE   As4
 BYTE   W06
 BYTE   N17  Gs4
 BYTE   W18
 BYTE   N11  Ds4
 BYTE   W12
// 017   ----------------------------------------
 BYTE   W96
// 018   ----------------------------------------
 BYTE   W96
// 019   ----------------------------------------
 BYTE   VOICE   2
 BYTE   N17  Cs3
 BYTE   W18
 BYTE   N52  Cs3  v096
 BYTE   W54
 BYTE   VOICE   4
 BYTE   W06
 BYTE   N05  As3  v112
 BYTE   W06
 BYTE   As3  v040
 BYTE   W12
// 020   ----------------------------------------
 BYTE   W96
// 021   ----------------------------------------
 BYTE   W96
// 022   ----------------------------------------
 BYTE   W96
// 023   ----------------------------------------
 BYTE   W96
// 024   ----------------------------------------
 BYTE   VOICE   2
 BYTE   PAN   c_v-47
 BYTE   W06
 BYTE   N11  Gs5  v112
 BYTE   W12
 BYTE   N11
 BYTE   W06
 BYTE   PAN   c_v-33
 BYTE   W06
 BYTE   N11
 BYTE   W12
 BYTE   N11
 BYTE   W06
 BYTE   PAN   c_v-15
 BYTE   W06
 BYTE   N11
 BYTE   W12
 BYTE   N11
 BYTE   W06
 BYTE   PAN   c_v+15
 BYTE   W06
 BYTE   N11  As4
 BYTE   W12
 BYTE   N05  Ds4
 BYTE   W06
// 025   ----------------------------------------
 BYTE   PAN   c_v-47
 BYTE   W06
 BYTE   N11  Gs5
 BYTE   W12
 BYTE   N11
 BYTE   W06
 BYTE   PAN   c_v-33
 BYTE   W06
 BYTE   N11
 BYTE   W12
 BYTE   N11
 BYTE   W06
 BYTE   PAN   c_v-15
 BYTE   W06
 BYTE   N11
 BYTE   W12
 BYTE   N11
 BYTE   W06
 BYTE   PAN   c_v+15
 BYTE   W06
 BYTE   N11  As4
 BYTE   W12
 BYTE   N05  Ds4
 BYTE   W05
 BYTE   GoTo
  POIN2 Label_6_016495BA
 BYTE   FINE

//**************** Track 8 (Midi-Chn.7) ****************//

Route209_008:
// 000   ----------------------------------------
 BYTE   KEYSH   Route209_key+0
 BYTE   VOICE   49
 BYTE   PAN   c_v+0
 BYTE   VOL   45*Route209_mvl/mxv
 BYTE   MOD 0
 BYTE   CnM2
 BYTE   VOL   53*Route209_mvl/mxv
 BYTE   BEND   c_v+0
 BYTE   W96
// 001   ----------------------------------------
Label_7_016498F7:
 BYTE   N20  Gs1  v127
 BYTE   W21
 BYTE   N02  Gs1  v040
 BYTE   W03
 BYTE   N20  Gs1  v127
 BYTE   W21
 BYTE   N02  Gs1  v040
 BYTE   W03
 BYTE   N20  Gn1  v127
 BYTE   W21
 BYTE   N02  Gn1  v040
 BYTE   W03
 BYTE   N20  Gn1  v127
 BYTE   W21
 BYTE   N02  Gn1  v040
 BYTE   W03
// 002   ----------------------------------------
 BYTE   N20  Fn1  v127
 BYTE   W21
 BYTE   N02  Fn1  v040
 BYTE   W03
 BYTE   N20  Fn1  v127
 BYTE   W21
 BYTE   N02  Fn1  v040
 BYTE   W03
 BYTE   N20  Ds1  v127
 BYTE   W21
 BYTE   N02  Ds1  v040
 BYTE   W03
 BYTE   N20  Ds1  v127
 BYTE   W21
 BYTE   N02  Ds1  v040
 BYTE   W03
// 003   ----------------------------------------
 BYTE   N20  Cs1  v127
 BYTE   W21
 BYTE   N02  Cs1  v040
 BYTE   W03
 BYTE   N20  Cs1  v127
 BYTE   W21
 BYTE   N02  Cs1  v040
 BYTE   W03
 BYTE   N20  Cn1  v127
 BYTE   W21
 BYTE   N02  Cn1  v040
 BYTE   W03
 BYTE   N20  Cn1  v127
 BYTE   W21
 BYTE   N02  Cn1  v040
 BYTE   W03
// 004   ----------------------------------------
 BYTE   N20  En1  v127
 BYTE   W21
 BYTE   N02  En1  v040
 BYTE   W03
 BYTE   N20  En1  v127
 BYTE   W21
 BYTE   N02  En1  v040
 BYTE   W03
 BYTE   N20  Fs1  v127
 BYTE   W21
 BYTE   N02  Fs1  v040
 BYTE   W03
 BYTE   N20  Fs1  v127
 BYTE   W21
 BYTE   N02  Fs1  v040
 BYTE   W03
// 005   ----------------------------------------
Label_7_01649977:
 BYTE   N68  Gs0  v127
 BYTE   W72
 BYTE   N11  Gs0  v040
 BYTE   W24
 BYTE   PEND 
 BYTE   PATT
  POIN2 Label_7_01649977
// 006   ----------------------------------------
Label_7_01649985:
 BYTE   N17  Gs0  v127
 BYTE   W18
 BYTE   N56
 BYTE   W60
 BYTE   N11  Gs0  v040
 BYTE   W18
 BYTE   PEND 
 BYTE   PATT
  POIN2 Label_7_01649985
// 007   ----------------------------------------
Label_7_01649995:
 BYTE   N05  Gs0  v127
 BYTE   W06
 BYTE   N02  Gs0  v040
 BYTE   W06
 BYTE   N05  Gs0  v127
 BYTE   W06
 BYTE   N02  Gs0  v040
 BYTE   W18
 BYTE   N05  Gs0  v127
 BYTE   W06
 BYTE   N02  Gs0  v040
 BYTE   W06
 BYTE   N05  Cn1  v127
 BYTE   W06
 BYTE   N02  Cn1  v040
 BYTE   W06
 BYTE   N05  Cn1  v127
 BYTE   W06
 BYTE   N02  Cn1  v040
 BYTE   W18
 BYTE   N05  Cn1  v127
 BYTE   W06
 BYTE   N02  Cn1  v040
 BYTE   W06
 BYTE   PEND 
// 008   ----------------------------------------
 BYTE   N05  Cs1  v127
 BYTE   W06
 BYTE   N02  Cs1  v040
 BYTE   W06
 BYTE   N05  Cs1  v127
 BYTE   W06
 BYTE   N02  Cs1  v040
 BYTE   W18
 BYTE   N05  Cs1  v127
 BYTE   W06
 BYTE   N02  Cs1  v040
 BYTE   W06
 BYTE   N05  Ds1  v127
 BYTE   W06
 BYTE   N02  Ds1  v040
 BYTE   W06
 BYTE   N05  Ds1  v127
 BYTE   W06
 BYTE   N02  Ds1  v040
 BYTE   W18
 BYTE   N05  Ds1  v127
 BYTE   W06
 BYTE   N02  Ds1  v040
 BYTE   W06
 BYTE   PATT
  POIN2 Label_7_01649995
// 009   ----------------------------------------
 BYTE   N05  Cs1  v127
 BYTE   W06
 BYTE   N02  Cs1  v040
 BYTE   W06
 BYTE   N05  Cs1  v127
 BYTE   W06
 BYTE   N02  Cs1  v040
 BYTE   W18
 BYTE   N05  Cs1  v127
 BYTE   W06
 BYTE   N02  Cs1  v040
 BYTE   W06
 BYTE   N05  Cn1  v127
 BYTE   W06
 BYTE   N02  Cn1  v040
 BYTE   W06
 BYTE   N05  Cn1  v127
 BYTE   W06
 BYTE   N02  Cn1  v040
 BYTE   W18
 BYTE   N05  Cn1  v127
 BYTE   W06
 BYTE   N02  Cn1  v040
 BYTE   W06
// 010   ----------------------------------------
 BYTE   W24
 BYTE   N05  Fn1  v127
 BYTE   W06
 BYTE   N11
 BYTE   W12
 BYTE   N02  Fn1  v040
 BYTE   W30
 BYTE   N05  En1  v127
 BYTE   W06
 BYTE   N11
 BYTE   W12
 BYTE   N02  En1  v040
 BYTE   W06
// 011   ----------------------------------------
 BYTE   N11  Ds1  v127
 BYTE   W12
 BYTE   N11
 BYTE   W12
 BYTE   N05  Ds1  v040
 BYTE   W12
 BYTE   N11  Dn1  v127
 BYTE   W12
 BYTE   N05  Dn1  v040
 BYTE   W48
// 012   ----------------------------------------
 BYTE   N11  Cs1  v127
 BYTE   W12
 BYTE   N11
 BYTE   W12
 BYTE   N05  Cs1  v040
 BYTE   W06
 BYTE   Gs1  v127
 BYTE   W06
 BYTE   Gs1  v040
 BYTE   W06
 BYTE   Cs1  v127
 BYTE   W06
 BYTE   N11  Ds1
 BYTE   W12
 BYTE   N11
 BYTE   W12
 BYTE   N05  Ds1  v040
 BYTE   W06
 BYTE   As1  v127
 BYTE   W06
 BYTE   As1  v040
 BYTE   W06
 BYTE   Ds1  v127
 BYTE   W06
// 013   ----------------------------------------
 BYTE   N11  En1
 BYTE   W12
 BYTE   N11
 BYTE   W12
 BYTE   N05  En1  v040
 BYTE   W06
 BYTE   Bn1  v127
 BYTE   W06
 BYTE   Bn1  v040
 BYTE   W06
 BYTE   En1  v127
 BYTE   W06
 BYTE   N11  Fs1
 BYTE   W12
 BYTE   N11
 BYTE   W12
 BYTE   N05  Fs1  v040
 BYTE   W06
 BYTE   Cs2  v127
 BYTE   W06
 BYTE   Cs2  v040
 BYTE   W06
 BYTE   Fs1  v127
 BYTE   W06
// 014   ----------------------------------------
 BYTE   Gs1
 BYTE   W06
 BYTE   Gs0
 BYTE   W06
 BYTE   N68
 BYTE   W72
 BYTE   N11  Gs1
 BYTE   W12
// 015   ----------------------------------------
 BYTE   Gs0
 BYTE   W12
 BYTE   N05  Gs0  v040
 BYTE   W06
 BYTE   N40  Gs0  v127
 BYTE   W42
 BYTE   N23  Cs1
 BYTE   W24
 BYTE   N11  Ds1
 BYTE   W12
// 016   ----------------------------------------
 BYTE   Gs0
 BYTE   W12
 BYTE   N05  Gs0  v040
 BYTE   W06
 BYTE   N28  Gs0  v127
 BYTE   W30
 BYTE   N05  Gs0  v040
 BYTE   W48
// 017   ----------------------------------------
 BYTE   N11  Gs0  v127
 BYTE   W12
 BYTE   N05  Gs0  v040
 BYTE   W06
 BYTE   N28  Gs0  v127
 BYTE   W30
 BYTE   N05  Gs0  v040
 BYTE   W30
 BYTE   Ds1  v127
 BYTE   W06
 BYTE   Ds1  v040
 BYTE   W06
 BYTE   Ds1  v127
 BYTE   W06
// 018   ----------------------------------------
 BYTE   N02  Gs0
 BYTE   W03
 BYTE   Gs0  v040
 BYTE   W03
 BYTE   Gs0  v127
 BYTE   W03
 BYTE   Gs0  v040
 BYTE   W36
 BYTE   W03
 BYTE   Cn1  v127
 BYTE   W03
 BYTE   Cn1  v040
 BYTE   W03
 BYTE   Cn1  v127
 BYTE   W03
 BYTE   Cn1  v040
 BYTE   W36
 BYTE   W03
// 019   ----------------------------------------
 BYTE   Cs1  v127
 BYTE   W03
 BYTE   Cs1  v040
 BYTE   W03
 BYTE   Cs1  v127
 BYTE   W03
 BYTE   Cs1  v040
 BYTE   W36
 BYTE   W03
 BYTE   Ds1  v127
 BYTE   W03
 BYTE   Ds1  v040
 BYTE   W03
 BYTE   Ds1  v127
 BYTE   W03
 BYTE   Ds1  v040
 BYTE   W36
 BYTE   W03
// 020   ----------------------------------------
 BYTE   W06
 BYTE   Gs1  v127
 BYTE   W03
 BYTE   Gs1  v040
 BYTE   W03
 BYTE   Gs0  v127
 BYTE   W03
 BYTE   Gs0  v040
 BYTE   W03
 BYTE   Gs0  v127
 BYTE   W03
 BYTE   Gs0  v040
 BYTE   W09
 BYTE   Gs0  v127
 BYTE   W03
 BYTE   Gs0  v040
 BYTE   W03
 BYTE   Cn1  v127
 BYTE   W03
 BYTE   Cn1  v040
 BYTE   W03
 BYTE   Gs0  v127
 BYTE   W03
 BYTE   Gs0  v040
 BYTE   W09
 BYTE   Cn2  v127
 BYTE   W03
 BYTE   Cn2  v040
 BYTE   W03
 BYTE   Cn1  v127
 BYTE   W03
 BYTE   Cn1  v040
 BYTE   W03
 BYTE   Cn1  v127
 BYTE   W03
 BYTE   Cn1  v040
 BYTE   W09
 BYTE   Ds1  v127
 BYTE   W03
 BYTE   Ds1  v040
 BYTE   W03
 BYTE   Fs1  v127
 BYTE   W03
 BYTE   Fs1  v040
 BYTE   W03
 BYTE   Ds1  v127
 BYTE   W03
 BYTE   Ds1  v040
 BYTE   W03
// 021   ----------------------------------------
 BYTE   W06
 BYTE   Cs2  v127
 BYTE   W03
 BYTE   Cs2  v040
 BYTE   W03
 BYTE   Cs1  v127
 BYTE   W03
 BYTE   Cs1  v040
 BYTE   W03
 BYTE   Cs1  v127
 BYTE   W03
 BYTE   Cs1  v040
 BYTE   W09
 BYTE   Cs1  v127
 BYTE   W03
 BYTE   Cs1  v040
 BYTE   W03
 BYTE   Gs1  v127
 BYTE   W03
 BYTE   Gs1  v040
 BYTE   W03
 BYTE   Fn1  v127
 BYTE   W03
 BYTE   Fn1  v040
 BYTE   W09
 BYTE   Ds2  v127
 BYTE   W03
 BYTE   Ds2  v040
 BYTE   W03
 BYTE   Ds1  v127
 BYTE   W03
 BYTE   Ds1  v040
 BYTE   W03
 BYTE   Ds1  v127
 BYTE   W03
 BYTE   Ds1  v040
 BYTE   W09
 BYTE   Ds1  v127
 BYTE   W03
 BYTE   Ds1  v040
 BYTE   W03
 BYTE   As1  v127
 BYTE   W03
 BYTE   As1  v040
 BYTE   W03
 BYTE   Gs1  v127
 BYTE   W03
 BYTE   Gs1  v040
 BYTE   W03
// 022   ----------------------------------------
 BYTE   VOL   53*Route209_mvl/mxv
 BYTE   W96
// 023   ----------------------------------------
 BYTE   W36
 BYTE   N11  Gs2  v092
 BYTE   W12
 BYTE   Cs2
 BYTE   W12
 BYTE   As1  v088
 BYTE   W12
 BYTE   Gs1
 BYTE   W12
 BYTE   Ds1
 BYTE   W11
 BYTE   GoTo
  POIN2 Label_7_016498F7
 BYTE   FINE

//**************** Track 9 (Midi-Chn.8) ****************//

Route209_009:
// 000   ----------------------------------------
 BYTE   KEYSH   Route209_key+0
 BYTE   VOICE   124
 BYTE   PAN   c_v+0
 BYTE   VOL   45*Route209_mvl/mxv
 BYTE   MOD 0
 BYTE   CnM2
 BYTE   VOL   40*Route209_mvl/mxv
 BYTE   N11  Fs1  v112
 BYTE   W12
 BYTE   N11
 BYTE   W12
 BYTE   N11
 BYTE   W12
 BYTE   N03  Fs1  v096
 BYTE   W04
 BYTE   N03
 BYTE   W04
 BYTE   N03
 BYTE   W04
 BYTE   N11  Fs1  v112
 BYTE   W12
 BYTE   N11
 BYTE   W12
 BYTE   N11
 BYTE   W12
 BYTE   N03  Fs1  v096
 BYTE   W04
 BYTE   N03
 BYTE   W04
 BYTE   N03
 BYTE   W04
// 001   ----------------------------------------
Label_8_01649BE4:
 BYTE   N11  Fs1  v112
 BYTE   W12
 BYTE   N11
 BYTE   W12
 BYTE   N11
 BYTE   N44  An2
 BYTE   W12
 BYTE   N03  Fs1  v096
 BYTE   W04
 BYTE   N03
 BYTE   W04
 BYTE   N03
 BYTE   W04
 BYTE   N11  Fs1  v112
 BYTE   W12
 BYTE   N11
 BYTE   W12
 BYTE   N11
 BYTE   N44  An2
 BYTE   W12
 BYTE   N03  Fs1  v096
 BYTE   W04
 BYTE   N03
 BYTE   W04
 BYTE   N03
 BYTE   W04
 BYTE   PEND 
 BYTE   PATT
  POIN2 Label_8_01649BE4
 BYTE   PATT
  POIN2 Label_8_01649BE4
// 002   ----------------------------------------
 BYTE   N11  Fs1  v112
 BYTE   W12
 BYTE   N11
 BYTE   W12
 BYTE   N11
 BYTE   N44  An2
 BYTE   W12
 BYTE   N03  Fs1  v096
 BYTE   W04
 BYTE   N03
 BYTE   W04
 BYTE   N03
 BYTE   W04
 BYTE   N11  Fs1  v112
 BYTE   W12
 BYTE   N11
 BYTE   W12
 BYTE   N11
 BYTE   N23  An2
 BYTE   W12
 BYTE   N03  Fs1  v096
 BYTE   W04
 BYTE   N03
 BYTE   W04
 BYTE   N03
 BYTE   W04
// 003   ----------------------------------------
 BYTE   N17  Gs1  v127
 BYTE   N56  Cs2  v112
 BYTE   W18
 BYTE   N05  Cn1  v127
 BYTE   W06
 BYTE   N11  En1  v112
 BYTE   W12
 BYTE   N23  Gs1
 BYTE   W24
 BYTE   N11  En1
 BYTE   N23  Gs1
 BYTE   W12
 BYTE   N05  Cn1  v127
 BYTE   W06
 BYTE   N11  En1  v112
 BYTE   W06
 BYTE   Gs1
 BYTE   W06
 BYTE   N05  Cn1  v127
 BYTE   W06
// 004   ----------------------------------------
 BYTE   N17
 BYTE   N56  Cs2  v112
 BYTE   W18
 BYTE   N05  Cn1  v127
 BYTE   W06
 BYTE   N11  En1  v112
 BYTE   W12
 BYTE   N23  Gs1
 BYTE   W24
 BYTE   N11  En1
 BYTE   N23  Gs1
 BYTE   W12
 BYTE   N05  Cn1  v127
 BYTE   W06
 BYTE   N11  En1  v112
 BYTE   W06
 BYTE   Gs1
 BYTE   W06
 BYTE   N05  Cn1  v127
 BYTE   W06
// 005   ----------------------------------------
 BYTE   N11
 BYTE   W12
 BYTE   As1  v112
 BYTE   W12
 BYTE   N05  Bn1
 BYTE   W06
 BYTE   N05
 BYTE   W06
 BYTE   Gs1
 BYTE   W06
 BYTE   En1
 BYTE   W06
 BYTE   Bn1
 BYTE   W06
 BYTE   N05
 BYTE   W06
 BYTE   Gs1
 BYTE   W06
 BYTE   En1
 BYTE   W06
 BYTE   Gn1
 BYTE   W06
 BYTE   N05
 BYTE   W06
 BYTE   Gs1
 BYTE   W06
 BYTE   En1
 BYTE   W06
// 006   ----------------------------------------
 BYTE   N11  Cn1  v127
 BYTE   W12
 BYTE   En1  v112
 BYTE   W12
 BYTE   N05  Dn2
 BYTE   W06
 BYTE   En1
 BYTE   W06
 BYTE   Gs1
 BYTE   W06
 BYTE   En1
 BYTE   W06
 BYTE   Dn2
 BYTE   W06
 BYTE   En1
 BYTE   W06
 BYTE   Gs1
 BYTE   W06
 BYTE   En1
 BYTE   W06
 BYTE   Gn1
 BYTE   W06
 BYTE   Bn1
 BYTE   W06
 BYTE   Gs1
 BYTE   W06
 BYTE   Gn1
 BYTE   W06
// 007   ----------------------------------------
 BYTE   VOL   42*Route209_mvl/mxv
 BYTE   N11  Cn1  v127
 BYTE   W12
 BYTE   N11
 BYTE   W12
 BYTE   As3  v112
 BYTE   N23  En4
 BYTE   W12
 BYTE   N11  An3
 BYTE   W12
 BYTE   Cn1  v127
 BYTE   W12
 BYTE   N11
 BYTE   W12
 BYTE   As3  v112
 BYTE   N23  En4
 BYTE   W12
 BYTE   N11  An3
 BYTE   W12
// 008   ----------------------------------------
Label_8_01649CDA:
 BYTE   N11  Cn1  v127
 BYTE   W12
 BYTE   N11
 BYTE   W12
 BYTE   As3  v112
 BYTE   N23  En4
 BYTE   W12
 BYTE   N11  An3
 BYTE   W12
 BYTE   Cn1  v127
 BYTE   W12
 BYTE   N11
 BYTE   W12
 BYTE   As3  v112
 BYTE   N23  En4
 BYTE   W12
 BYTE   N11  An3
 BYTE   W12
 BYTE   PEND 
 BYTE   PATT
  POIN2 Label_8_01649CDA
 BYTE   PATT
  POIN2 Label_8_01649CDA
// 009   ----------------------------------------
 BYTE   N11  Cn1  v127
 BYTE   W12
 BYTE   N11
 BYTE   W12
 BYTE   Fs1  v112
 BYTE   W12
 BYTE   Cs1
 BYTE   W12
 BYTE   Cn1  v127
 BYTE   W12
 BYTE   N11
 BYTE   W12
 BYTE   Fs1  v112
 BYTE   W12
 BYTE   Cs1
 BYTE   W12
// 010   ----------------------------------------
 BYTE   Cn1  v127
 BYTE   W12
 BYTE   N11
 BYTE   W12
 BYTE   N05  En1  v112
 BYTE   W06
 BYTE   Dn1
 BYTE   W06
 BYTE   N32  As1
 BYTE   W36
 BYTE   VOL   32*Route209_mvl/mxv
 BYTE   N05  En1
 BYTE   W06
 BYTE   N11
 BYTE   W12
 BYTE   N05  Dn1
 BYTE   W06
// 011   ----------------------------------------
 BYTE   N11  Cn1
 BYTE   N11  Gs1
 BYTE   W12
 BYTE   Cs1
 BYTE   N11  Gs1
 BYTE   W12
 BYTE   N05  Dn1
 BYTE   N11  Gs1
 BYTE   W06
 BYTE   Cs1
 BYTE   W06
 BYTE   Gs1
 BYTE   W06
 BYTE   N05  Cs1
 BYTE   W06
 BYTE   N11  Cn1
 BYTE   N11  Gs1
 BYTE   W12
 BYTE   Cs1
 BYTE   N11  Gs1
 BYTE   W12
 BYTE   N05  Dn1
 BYTE   N11  Gs1
 BYTE   W06
 BYTE   Cs1
 BYTE   W06
 BYTE   Gs1
 BYTE   W06
 BYTE   N05  Cs1
 BYTE   W06
// 012   ----------------------------------------
 BYTE   N11  Cn1
 BYTE   N11  Gs1
 BYTE   W12
 BYTE   Cs1
 BYTE   N11  Gs1
 BYTE   W12
 BYTE   N05  Dn1
 BYTE   N11  Gs1
 BYTE   W06
 BYTE   Cs1
 BYTE   W06
 BYTE   Gs1
 BYTE   W06
 BYTE   N05  Cs1
 BYTE   W06
 BYTE   N11  Cn1
 BYTE   N11  Gs1
 BYTE   W12
 BYTE   Cn1
 BYTE   N11  Gs1
 BYTE   W12
 BYTE   N05  Dn1
 BYTE   N11  Gs1
 BYTE   W06
 BYTE   Dn1
 BYTE   W06
 BYTE   Gs1
 BYTE   W06
 BYTE   N05  Cn1
 BYTE   W06
// 013   ----------------------------------------
 BYTE   VOL   40*Route209_mvl/mxv
 BYTE   N17  Dn1  v127
 BYTE   W18
 BYTE   N52  Cs2  v112
 BYTE   W54
 BYTE   N05  Dn1
 BYTE   W06
 BYTE   N17
 BYTE   W18
// 014   ----------------------------------------
 BYTE   N11  Cn1  v127
 BYTE   W12
 BYTE   N11
 BYTE   W12
 BYTE   Dn1  v112
 BYTE   W06
 BYTE   Cn1  v127
 BYTE   W18
 BYTE   Cs1  v112
 BYTE   W12
 BYTE   Cn1  v127
 BYTE   W12
 BYTE   Dn1  v112
 BYTE   W06
 BYTE   Cn1  v127
 BYTE   W18
// 015   ----------------------------------------
 BYTE   N11
 BYTE   W12
 BYTE   N11
 BYTE   W12
 BYTE   Dn1  v112
 BYTE   W12
 BYTE   Cn1  v127
 BYTE   W12
 BYTE   N11
 BYTE   W12
 BYTE   N11
 BYTE   W12
 BYTE   Dn1  v112
 BYTE   W12
 BYTE   Cn1  v127
 BYTE   W12
// 016   ----------------------------------------
 BYTE   W12
 BYTE   N11
 BYTE   W12
 BYTE   Dn1  v112
 BYTE   W12
 BYTE   Cn1  v127
 BYTE   W12
 BYTE   Gs1  v112
 BYTE   W12
 BYTE   Dn1
 BYTE   N11  As1
 BYTE   W12
 BYTE   N05  Cn1  v127
 BYTE   N05  Gs1  v112
 BYTE   W06
 BYTE   En1
 BYTE   N17  As1
 BYTE   W06
 BYTE   N05  Cs1
 BYTE   W06
 BYTE   Dn1
 BYTE   W06
// 017   ----------------------------------------
Label_8_01649DDC:
 BYTE   N11  Cn1  v127
 BYTE   W06
 BYTE   Gs1  v112
 BYTE   W06
 BYTE   Cs1
 BYTE   W06
 BYTE   Gs1
 BYTE   W06
 BYTE   Fs1
 BYTE   W06
 BYTE   Gs1
 BYTE   W06
 BYTE   Cs1
 BYTE   W06
 BYTE   Gs1
 BYTE   W06
 BYTE   Cn1  v127
 BYTE   W06
 BYTE   Gs1  v112
 BYTE   W06
 BYTE   Cs1
 BYTE   W06
 BYTE   Gs1
 BYTE   W06
 BYTE   Fs1
 BYTE   W06
 BYTE   Gs1
 BYTE   W06
 BYTE   Cs1
 BYTE   W06
 BYTE   Gs1
 BYTE   W06
 BYTE   PEND 
 BYTE   PATT
  POIN2 Label_8_01649DDC
 BYTE   PATT
  POIN2 Label_8_01649DDC
// 018   ----------------------------------------
 BYTE   N11  Cn1  v127
 BYTE   W06
 BYTE   Gs1  v112
 BYTE   W06
 BYTE   Cs1
 BYTE   W06
 BYTE   Gs1
 BYTE   W06
 BYTE   Fs1
 BYTE   W06
 BYTE   Gs1
 BYTE   W06
 BYTE   Cs1
 BYTE   W06
 BYTE   Gs1
 BYTE   W06
 BYTE   Cn1  v127
 BYTE   W06
 BYTE   Gs1  v112
 BYTE   W06
 BYTE   Cs1
 BYTE   W06
 BYTE   Gs1
 BYTE   W06
 BYTE   Fs1
 BYTE   W06
 BYTE   Gs1
 BYTE   W06
 BYTE   Cs1
 BYTE   W06
 BYTE   N05  Gs1
 BYTE   W06
// 019   ----------------------------------------
 BYTE   VOL   30*Route209_mvl/mxv
 BYTE   N11  Fs1
 BYTE   W12
 BYTE   N11
 BYTE   W12
 BYTE   N11
 BYTE   W12
 BYTE   N03  Fs1  v096
 BYTE   W04
 BYTE   N03
 BYTE   W04
 BYTE   N03
 BYTE   W04
 BYTE   N11  Fs1  v112
 BYTE   W12
 BYTE   N11
 BYTE   W12
 BYTE   N11
 BYTE   W12
 BYTE   N03  Fs1  v096
 BYTE   W04
 BYTE   N03
 BYTE   W04
 BYTE   N03
 BYTE   W04
// 020   ----------------------------------------
 BYTE   N11  Fs1  v112
 BYTE   W12
 BYTE   N11
 BYTE   W12
 BYTE   N11
 BYTE   W12
 BYTE   N03  Fs1  v096
 BYTE   W04
 BYTE   N03
 BYTE   W04
 BYTE   N03
 BYTE   W04
 BYTE   N11  Fs1  v112
 BYTE   W12
 BYTE   N11
 BYTE   W12
 BYTE   N11
 BYTE   W12
 BYTE   N03  Fs1  v096
 BYTE   W04
 BYTE   N03
 BYTE   W04
 BYTE   N03
 BYTE   W03
 BYTE   GoTo
  POIN2 Label_8_01649BE4
 BYTE   FINE

//******************************************************//
	ALIGN 4

Route209:
	BYTE	9	// NumTrks
	BYTE	0	// NumBlks
	BYTE	Route209_pri	// Priority
	BYTE	Route209_rev	// Reverb.
    
	POIN2	Route209_grp
    
	POIN2	Route209_001
	POIN2	Route209_002
	POIN2	Route209_003
	POIN2	Route209_004
	POIN2	Route209_005
	POIN2	Route209_006
	POIN2	Route209_007
	POIN2	Route209_008
	POIN2	Route209_009

	
