//Event file generated from Sappy .s format.
	#include "MPlayDef.event"

	#define	SelfDiscipline_grp  voicegroup000
	#define	SelfDiscipline_pri  0
	#define	SelfDiscipline_rev  0
	#define	SelfDiscipline_mvl  60
	#define	SelfDiscipline_key  0
	#define	SelfDiscipline_tbs  1
	#define	SelfDiscipline_exg  0
	#define	SelfDiscipline_cmp  1

	// .rodata
	//	SelfDiscipline
	ALIGN 4

//**************** Track 1 (Midi-Chn.1) ****************//

SelfDiscipline_1:
	BYTE	KEYSH   SelfDiscipline_key+0
// 000   ----------------------------------------
	BYTE	TEMPO   156*SelfDiscipline_tbs/2
	BYTE		VOICE   57
	BYTE		VOL     127*SelfDiscipline_mvl/mxv
	BYTE		N09     En3   v100
	BYTE	W01
	BYTE		VOL     127*SelfDiscipline_mvl/mxv
	BYTE	W01
	BYTE		        127*SelfDiscipline_mvl/mxv
	BYTE	W01
	BYTE		        127*SelfDiscipline_mvl/mxv
	BYTE	W09
	BYTE		N09     Bn2 
	BYTE	W12
	BYTE		        En2 
	BYTE	W12
	BYTE		        Fs3 
	BYTE	W12
	BYTE		        Dn3 
	BYTE	W12
	BYTE		        An2 
	BYTE	W12
	BYTE		        Gn3 
	BYTE	W12
	BYTE		        En3 
	BYTE	W12
// 001   ----------------------------------------
SelfDiscipline_1_001:
	BYTE		N09     Cn3   v100
	BYTE	W12
	BYTE		        An3 
	BYTE	W12
	BYTE		        Fs3 
	BYTE	W12
	BYTE		        Dn3 
	BYTE	W12
	BYTE		        Bn3 
	BYTE	W12
	BYTE		N06     Gn3 
	BYTE	W06
	BYTE		        An3 
	BYTE	W06
	BYTE		        Bn3 
	BYTE	W06
	BYTE		        Cn4 
	BYTE	W06
	BYTE		        Dn4 
	BYTE	W06
	BYTE		        En4 
	BYTE	W06
	BYTE	PEND
// 002   ----------------------------------------
	BYTE		        En3 
	BYTE	W06
SelfDiscipline_1_B1:
	BYTE		N06     Fs3   v100
	BYTE	W06
	BYTE		        Gn3 
	BYTE	W06
	BYTE		        Bn3 
	BYTE	W06
	BYTE		N54     En4 
	BYTE	W60
	BYTE		N12     Gn4 
	BYTE	W12
// 003   ----------------------------------------
SelfDiscipline_1_003:
	BYTE		N18     Fs4   v100
	BYTE	W18
	BYTE		        Dn4 
	BYTE	W18
	BYTE		N12     An3 
	BYTE	W12
	BYTE		N30     Bn3 
	BYTE	W36
	BYTE		N06     Cn4 
	BYTE	W06
	BYTE		        Dn4 
	BYTE	W06
	BYTE	PEND
// 004   ----------------------------------------
	BYTE		N18     En4 
	BYTE	W18
	BYTE		        Dn4 
	BYTE	W18
	BYTE		N12     En4 
	BYTE	W12
	BYTE		N18     Bn3 
	BYTE	W18
	BYTE		        An3 
	BYTE	W18
	BYTE		N12     Gn3 
	BYTE	W12
// 005   ----------------------------------------
	BYTE		N36     An3 
	BYTE	W36
	BYTE		N06     Gn3 
	BYTE	W06
	BYTE		        An3 
	BYTE	W06
	BYTE		N42     Fs3 
	BYTE	W48
// 006   ----------------------------------------
	BYTE		N06     En3 
	BYTE	W06
	BYTE		        Fs3 
	BYTE	W06
	BYTE		        Gn3 
	BYTE	W06
	BYTE		        Bn3 
	BYTE	W06
	BYTE		N54     En4 
	BYTE	W60
	BYTE		N12     Gn4 
	BYTE	W12
// 007   ----------------------------------------
	BYTE	PATT
	 POIN2	SelfDiscipline_1_003
// 008   ----------------------------------------
	BYTE		N18     En4   v100
	BYTE	W18
	BYTE		        Dn4 
	BYTE	W18
	BYTE		N12     En4 
	BYTE	W12
	BYTE		N42     Bn3 
	BYTE	W48
// 009   ----------------------------------------
	BYTE		N18     Gn4 
	BYTE	W18
	BYTE		        Fs4 
	BYTE	W18
	BYTE		N12     Dn4 
	BYTE	W12
	BYTE		N18     Fs4 
	BYTE	W18
	BYTE		        Gn4 
	BYTE	W18
	BYTE		N12     An4 
	BYTE	W12
// 010   ----------------------------------------
	BYTE	W96
// 011   ----------------------------------------
	BYTE	W96
// 012   ----------------------------------------
	BYTE	W96
// 013   ----------------------------------------
	BYTE	W96
// 014   ----------------------------------------
	BYTE	W96
// 015   ----------------------------------------
	BYTE	W96
// 016   ----------------------------------------
	BYTE	W96
// 017   ----------------------------------------
	BYTE	W96
// 018   ----------------------------------------
	BYTE	W96
// 019   ----------------------------------------
	BYTE	W96
// 020   ----------------------------------------
	BYTE	W96
// 021   ----------------------------------------
	BYTE	W96
// 022   ----------------------------------------
	BYTE	W96
// 023   ----------------------------------------
	BYTE	W96
// 024   ----------------------------------------
	BYTE		VOL     127*SelfDiscipline_mvl/mxv
	BYTE		N09     En3 
	BYTE	W01
	BYTE		VOL     127*SelfDiscipline_mvl/mxv
	BYTE	W01
	BYTE		        127*SelfDiscipline_mvl/mxv
	BYTE	W01
	BYTE		        127*SelfDiscipline_mvl/mxv
	BYTE	W09
	BYTE		N09     Bn2 
	BYTE	W12
	BYTE		        En2 
	BYTE	W12
	BYTE		        Fs3 
	BYTE	W12
	BYTE		        Dn3 
	BYTE	W12
	BYTE		        An2 
	BYTE	W12
	BYTE		        Gn3 
	BYTE	W12
	BYTE		        En3 
	BYTE	W12
// 025   ----------------------------------------
	BYTE	PATT
	 POIN2	SelfDiscipline_1_001
// 026   ----------------------------------------
	BYTE		N06     En3   v100
	BYTE	W06
	BYTE	GoTo
	 POIN2	SelfDiscipline_1_B1
SelfDiscipline_1_B2:
	BYTE		N06     Fs3   v100
	BYTE	W06
	BYTE		        Gn3 
	BYTE	W06
	BYTE		        Bn3 
	BYTE	W06
	BYTE	FINE

//**************** Track 2 (Midi-Chn.2) ****************//

SelfDiscipline_2:
	BYTE	KEYSH   SelfDiscipline_key+0
// 000   ----------------------------------------
	BYTE		VOICE   29
	BYTE		VOL     127*SelfDiscipline_mvl/mxv
	BYTE	W96
// 001   ----------------------------------------
	BYTE	W96
// 002   ----------------------------------------
	BYTE	W06
SelfDiscipline_2_B1:
	BYTE	W90
// 003   ----------------------------------------
	BYTE	W96
// 004   ----------------------------------------
	BYTE	W96
// 005   ----------------------------------------
	BYTE	W96
// 006   ----------------------------------------
	BYTE	W96
// 007   ----------------------------------------
	BYTE	W96
// 008   ----------------------------------------
	BYTE	W96
// 009   ----------------------------------------
	BYTE	W96
// 010   ----------------------------------------
SelfDiscipline_2_010:
	BYTE		N02     An4   v100
	BYTE	W02
	BYTE		N10     Gn4 
	BYTE	W10
	BYTE		N12     Fs4 
	BYTE	W12
	BYTE		        Dn4 
	BYTE	W12
	BYTE		        An3 
	BYTE	W12
	BYTE		        Bn3 
	BYTE	W12
	BYTE		        Dn4 
	BYTE	W12
	BYTE		        Fs4 
	BYTE	W12
	BYTE		        Bn3 
	BYTE	W12
	BYTE	PEND
// 011   ----------------------------------------
SelfDiscipline_2_011:
	BYTE		N12     Gn4   v100
	BYTE	W12
	BYTE		        Bn3 
	BYTE	W12
	BYTE		        Fs4 
	BYTE	W12
	BYTE		        Bn3 
	BYTE	W12
	BYTE		        En4 
	BYTE	W12
	BYTE		        Fs4 
	BYTE	W12
	BYTE		        Gn4 
	BYTE	W12
	BYTE		        Bn3 
	BYTE	W12
	BYTE	PEND
// 012   ----------------------------------------
SelfDiscipline_2_012:
	BYTE		N12     En4   v100
	BYTE	W12
	BYTE		        Bn4 
	BYTE	W12
	BYTE		        An4 
	BYTE	W12
	BYTE		        Gn4 
	BYTE	W12
	BYTE		        Fs4 
	BYTE	W12
	BYTE		        Gn4 
	BYTE	W12
	BYTE		        An4 
	BYTE	W12
	BYTE		        Dn4 
	BYTE	W12
	BYTE	PEND
// 013   ----------------------------------------
SelfDiscipline_2_013:
	BYTE		N12     Bn4   v100
	BYTE	W12
	BYTE		        An4 
	BYTE	W12
	BYTE		        Bn4 
	BYTE	W12
	BYTE		        Cn5 
	BYTE	W12
	BYTE		        Bn4 
	BYTE	W12
	BYTE		        An4 
	BYTE	W12
	BYTE		        Gn4 
	BYTE	W12
	BYTE		        Fs4 
	BYTE	W12
	BYTE	PEND
// 014   ----------------------------------------
	BYTE	PATT
	 POIN2	SelfDiscipline_2_010
// 015   ----------------------------------------
	BYTE	PATT
	 POIN2	SelfDiscipline_2_011
// 016   ----------------------------------------
	BYTE	PATT
	 POIN2	SelfDiscipline_2_012
// 017   ----------------------------------------
	BYTE	PATT
	 POIN2	SelfDiscipline_2_013
// 018   ----------------------------------------
	BYTE	W96
// 019   ----------------------------------------
	BYTE	W96
// 020   ----------------------------------------
	BYTE	W96
// 021   ----------------------------------------
	BYTE	W96
// 022   ----------------------------------------
	BYTE	W96
// 023   ----------------------------------------
	BYTE	W96
// 024   ----------------------------------------
	BYTE	W96
// 025   ----------------------------------------
	BYTE	W96
// 026   ----------------------------------------
	BYTE	W06
	BYTE	GoTo
	 POIN2	SelfDiscipline_2_B1
SelfDiscipline_2_B2:
	BYTE	W18
	BYTE	FINE

//**************** Track 3 (Midi-Chn.3) ****************//

SelfDiscipline_3:
	BYTE	KEYSH   SelfDiscipline_key+0
// 000   ----------------------------------------
	BYTE		VOICE   18
	BYTE		VOL     127*SelfDiscipline_mvl/mxv
	BYTE	W96
// 001   ----------------------------------------
	BYTE	W96
// 002   ----------------------------------------
	BYTE	W06
SelfDiscipline_3_B1:
	BYTE	W90
// 003   ----------------------------------------
	BYTE	W96
// 004   ----------------------------------------
	BYTE	W96
// 005   ----------------------------------------
	BYTE	W96
// 006   ----------------------------------------
	BYTE	W96
// 007   ----------------------------------------
	BYTE	W96
// 008   ----------------------------------------
	BYTE	W96
// 009   ----------------------------------------
	BYTE	W96
// 010   ----------------------------------------
SelfDiscipline_3_010:
	BYTE		N12     Gn4   v100
	BYTE	W12
	BYTE		        Fs4 
	BYTE	W12
	BYTE		        Dn4 
	BYTE	W12
	BYTE		        An3 
	BYTE	W12
	BYTE		        Bn3 
	BYTE	W12
	BYTE		        Dn4 
	BYTE	W12
	BYTE		        Fs4 
	BYTE	W12
	BYTE		        Bn3 
	BYTE	W12
	BYTE	PEND
// 011   ----------------------------------------
SelfDiscipline_3_011:
	BYTE		N12     Gn4   v100
	BYTE	W12
	BYTE		        Bn3 
	BYTE	W12
	BYTE		        Fs4 
	BYTE	W12
	BYTE		        Bn3 
	BYTE	W12
	BYTE		        En4 
	BYTE	W12
	BYTE		        Fs4 
	BYTE	W12
	BYTE		        Gn4 
	BYTE	W12
	BYTE		        Bn3 
	BYTE	W12
	BYTE	PEND
// 012   ----------------------------------------
SelfDiscipline_3_012:
	BYTE		N12     En4   v100
	BYTE	W12
	BYTE		        Bn4 
	BYTE	W12
	BYTE		        An4 
	BYTE	W12
	BYTE		        Gn4 
	BYTE	W12
	BYTE		        Fs4 
	BYTE	W12
	BYTE		        Gn4 
	BYTE	W12
	BYTE		        An4 
	BYTE	W12
	BYTE		        Dn4 
	BYTE	W12
	BYTE	PEND
// 013   ----------------------------------------
SelfDiscipline_3_013:
	BYTE		N12     Bn4   v100
	BYTE	W12
	BYTE		        An4 
	BYTE	W12
	BYTE		        Bn4 
	BYTE	W12
	BYTE		        Cn5 
	BYTE	W12
	BYTE		        Bn4 
	BYTE	W12
	BYTE		        An4 
	BYTE	W12
	BYTE		        Gn4 
	BYTE	W12
	BYTE		        Fs4 
	BYTE	W12
	BYTE	PEND
// 014   ----------------------------------------
	BYTE	PATT
	 POIN2	SelfDiscipline_3_010
// 015   ----------------------------------------
	BYTE	PATT
	 POIN2	SelfDiscipline_3_011
// 016   ----------------------------------------
	BYTE	PATT
	 POIN2	SelfDiscipline_3_012
// 017   ----------------------------------------
	BYTE	PATT
	 POIN2	SelfDiscipline_3_013
// 018   ----------------------------------------
	BYTE	W96
// 019   ----------------------------------------
	BYTE	W96
// 020   ----------------------------------------
	BYTE	W96
// 021   ----------------------------------------
	BYTE	W96
// 022   ----------------------------------------
	BYTE	W96
// 023   ----------------------------------------
	BYTE	W96
// 024   ----------------------------------------
	BYTE	W96
// 025   ----------------------------------------
	BYTE	W96
// 026   ----------------------------------------
	BYTE	W06
	BYTE	GoTo
	 POIN2	SelfDiscipline_3_B1
SelfDiscipline_3_B2:
	BYTE	W18
	BYTE	FINE

//**************** Track 4 (Midi-Chn.4) ****************//

SelfDiscipline_4:
	BYTE	KEYSH   SelfDiscipline_key+0
// 000   ----------------------------------------
	BYTE		VOICE   21
	BYTE		VOL     127*SelfDiscipline_mvl/mxv
	BYTE	W96
// 001   ----------------------------------------
	BYTE	W96
// 002   ----------------------------------------
	BYTE	W06
SelfDiscipline_4_B1:
	BYTE	W90
// 003   ----------------------------------------
	BYTE	W96
// 004   ----------------------------------------
	BYTE	W96
// 005   ----------------------------------------
	BYTE	W96
// 006   ----------------------------------------
	BYTE	W96
// 007   ----------------------------------------
	BYTE	W96
// 008   ----------------------------------------
	BYTE	W96
// 009   ----------------------------------------
	BYTE	W96
// 010   ----------------------------------------
	BYTE	W96
// 011   ----------------------------------------
	BYTE	W96
// 012   ----------------------------------------
	BYTE	W96
// 013   ----------------------------------------
	BYTE	W96
// 014   ----------------------------------------
	BYTE	W96
// 015   ----------------------------------------
	BYTE	W96
// 016   ----------------------------------------
	BYTE	W96
// 017   ----------------------------------------
	BYTE	W96
// 018   ----------------------------------------
	BYTE		N06     En3   v100
	BYTE	W06
	BYTE		        Ds3 
	BYTE	W06
	BYTE		        En3 
	BYTE	W06
	BYTE		        Fs3 
	BYTE	W06
	BYTE		N30     Gn3 
	BYTE	W36
	BYTE		N12     Fs3 
	BYTE	W12
	BYTE		        Gn3 
	BYTE	W12
	BYTE		        An3 
	BYTE	W12
// 019   ----------------------------------------
	BYTE		N18     Bn3 
	BYTE	W18
	BYTE		N03     An3 
	BYTE	W03
	BYTE		        Gn3 
	BYTE	W03
	BYTE		N42     Fs3 
	BYTE	W48
	BYTE		N24     Dn3 
	BYTE	W24
// 020   ----------------------------------------
	BYTE		N06     Gn3 
	BYTE	W06
	BYTE		        Fs3 
	BYTE	W06
	BYTE		        Gn3 
	BYTE	W06
	BYTE		        An3 
	BYTE	W06
	BYTE		N30     Bn3 
	BYTE	W36
	BYTE		N12     An3 
	BYTE	W12
	BYTE		        Bn3 
	BYTE	W12
	BYTE		        Dn4 
	BYTE	W12
// 021   ----------------------------------------
	BYTE		N18     Cs4 
	BYTE	W18
	BYTE		N03     Cn4 
	BYTE	W03
	BYTE		        Bn3 
	BYTE	W03
	BYTE		N48     An3 
	BYTE	W60
	BYTE		N06   
	BYTE	W06
	BYTE		        Bn3 
	BYTE	W06
// 022   ----------------------------------------
	BYTE		N36     Gn3 
	BYTE		N36     Cn4 
	BYTE	W36
	BYTE		N36   
	BYTE		N36     En4 
	BYTE	W36
	BYTE		N24   
	BYTE		N24     Gn4 
	BYTE	W24
// 023   ----------------------------------------
	BYTE		        Dn4 
	BYTE		N24     Fs4 
	BYTE	W24
	BYTE		        An3 
	BYTE		N24     Dn4 
	BYTE	W24
	BYTE		        Dn3 
	BYTE		N24     An3 
	BYTE	W24
	BYTE		N24   
	BYTE		N24     Dn4 
	BYTE	W24
// 024   ----------------------------------------
	BYTE		TIE     Bn3 
	BYTE		TIE     En4 
	BYTE	W96
// 025   ----------------------------------------
	BYTE	W84
	BYTE		EOT     Bn3 
	BYTE		        En4 
	BYTE	W12
// 026   ----------------------------------------
	BYTE	W06
	BYTE	GoTo
	 POIN2	SelfDiscipline_4_B1
SelfDiscipline_4_B2:
	BYTE	W18
	BYTE	FINE

//**************** Track 5 (Midi-Chn.5) ****************//

SelfDiscipline_5:
	BYTE	KEYSH   SelfDiscipline_key+0
// 000   ----------------------------------------
	BYTE		VOICE   48
	BYTE		VOL     60*SelfDiscipline_mvl/mxv
	BYTE		N36     Gn4   v100
	BYTE		N36     Bn4 
	BYTE	W36
	BYTE		        Fs4 
	BYTE		N36     An4 
	BYTE	W36
	BYTE		        En4 
	BYTE		N36     Gn4 
	BYTE	W24
// 001   ----------------------------------------
SelfDiscipline_5_001:
	BYTE	W12
	BYTE		N36     Dn4   v100
	BYTE		N36     Fs4 
	BYTE	W36
	BYTE		N24     Cn4 
	BYTE		N24     En4 
	BYTE	W24
	BYTE		        Bn3 
	BYTE		N24     Dn4 
	BYTE	W24
	BYTE	PEND
// 002   ----------------------------------------
	BYTE		N96     En4 
	BYTE		N96     Gn4 
	BYTE	W06
SelfDiscipline_5_B1:
	BYTE	W90
// 003   ----------------------------------------
	BYTE		N96     Dn4   v100
	BYTE		N96     Fs4 
	BYTE	W96
// 004   ----------------------------------------
	BYTE		        Cn4 
	BYTE		N96     En4 
	BYTE	W96
// 005   ----------------------------------------
	BYTE		        Dn4 
	BYTE		N96     Fs4 
	BYTE	W96
// 006   ----------------------------------------
	BYTE		        En4 
	BYTE		N96     Gn4 
	BYTE	W96
// 007   ----------------------------------------
	BYTE		        Dn4 
	BYTE		N96     Fs4 
	BYTE	W96
// 008   ----------------------------------------
	BYTE		        Cn4 
	BYTE		N96     En4 
	BYTE	W96
// 009   ----------------------------------------
	BYTE		        Dn4 
	BYTE		N96     Fs4 
	BYTE	W96
// 010   ----------------------------------------
SelfDiscipline_5_010:
	BYTE		N48     Bn3   v100
	BYTE		N48     Gn4 
	BYTE	W48
	BYTE		        Dn4 
	BYTE		N48     An4 
	BYTE	W48
	BYTE	PEND
// 011   ----------------------------------------
SelfDiscipline_5_011:
	BYTE		N48     En4   v100
	BYTE		N48     Bn4 
	BYTE	W48
	BYTE		        Bn3 
	BYTE		N48     Gn4 
	BYTE	W48
	BYTE	PEND
// 012   ----------------------------------------
	BYTE	PATT
	 POIN2	SelfDiscipline_5_010
// 013   ----------------------------------------
SelfDiscipline_5_013:
	BYTE		N48     En4   v100
	BYTE		N48     Bn4 
	BYTE	W48
	BYTE		        Gn4 
	BYTE		N48     Dn5 
	BYTE	W48
	BYTE	PEND
// 014   ----------------------------------------
	BYTE	PATT
	 POIN2	SelfDiscipline_5_010
// 015   ----------------------------------------
	BYTE	PATT
	 POIN2	SelfDiscipline_5_011
// 016   ----------------------------------------
	BYTE	PATT
	 POIN2	SelfDiscipline_5_010
// 017   ----------------------------------------
	BYTE	PATT
	 POIN2	SelfDiscipline_5_013
// 018   ----------------------------------------
	BYTE	W96
// 019   ----------------------------------------
	BYTE	W96
// 020   ----------------------------------------
	BYTE	W96
// 021   ----------------------------------------
	BYTE	W96
// 022   ----------------------------------------
	BYTE	W96
// 023   ----------------------------------------
	BYTE	W96
// 024   ----------------------------------------
	BYTE		N36     Gn4   v100
	BYTE		N36     Bn4 
	BYTE	W36
	BYTE		        Fs4 
	BYTE		N36     An4 
	BYTE	W36
	BYTE		        En4 
	BYTE		N36     Gn4 
	BYTE	W24
// 025   ----------------------------------------
	BYTE	PATT
	 POIN2	SelfDiscipline_5_001
// 026   ----------------------------------------
	BYTE	W06
	BYTE	GoTo
	 POIN2	SelfDiscipline_5_B1
SelfDiscipline_5_B2:
	BYTE	W18
	BYTE	FINE

//**************** Track 6 (Midi-Chn.6) ****************//

SelfDiscipline_6:
	BYTE	KEYSH   SelfDiscipline_key+0
// 000   ----------------------------------------
	BYTE		VOICE   1
	BYTE		VOL     50*SelfDiscipline_mvl/mxv
	BYTE		N09     Bn3   v100
	BYTE	W12
	BYTE		        En3 
	BYTE	W12
	BYTE		        Bn2 
	BYTE	W12
	BYTE		        Dn4 
	BYTE	W12
	BYTE		        Fs3 
	BYTE	W12
	BYTE		        Dn3 
	BYTE	W12
	BYTE		        En4 
	BYTE	W12
	BYTE		        Cn4 
	BYTE	W12
// 001   ----------------------------------------
SelfDiscipline_6_001:
	BYTE		N09     Gn3   v100
	BYTE	W12
	BYTE		        Fs4 
	BYTE	W12
	BYTE		        Dn4 
	BYTE	W12
	BYTE		        Bn3 
	BYTE	W12
	BYTE		        Gn4 
	BYTE	W12
	BYTE		N06     En4 
	BYTE	W06
	BYTE		        Fs4 
	BYTE	W06
	BYTE		        Gn4 
	BYTE	W06
	BYTE		        An4 
	BYTE	W06
	BYTE		        Bn4 
	BYTE	W06
	BYTE		        Cn5 
	BYTE	W06
	BYTE	PEND
// 002   ----------------------------------------
	BYTE		        Gn3 
	BYTE		N06     Bn3 
	BYTE	W06
SelfDiscipline_6_B1:
	BYTE	W06
	BYTE		N06     Gn3   v100
	BYTE		N06     Bn3 
	BYTE	W12
	BYTE		        Gn3 
	BYTE		N06     Bn3 
	BYTE	W12
	BYTE		        Fs3 
	BYTE		N06     An3 
	BYTE	W12
	BYTE		        Fs3 
	BYTE		N06     An3 
	BYTE	W12
	BYTE		        Fs3 
	BYTE		N06     An3 
	BYTE	W12
	BYTE		        En3 
	BYTE		N06     Gn3 
	BYTE	W12
	BYTE		        En3 
	BYTE		N06     Gn3 
	BYTE	W12
// 003   ----------------------------------------
SelfDiscipline_6_003:
	BYTE		N06     Fs3   v100
	BYTE		N06     An3 
	BYTE	W12
	BYTE		        Fs3 
	BYTE		N06     An3 
	BYTE	W12
	BYTE		        Fs3 
	BYTE		N06     An3 
	BYTE	W12
	BYTE		        Gn3 
	BYTE		N06     Bn3 
	BYTE	W12
	BYTE		        Gn3 
	BYTE		N06     Bn3 
	BYTE	W12
	BYTE		        Gn3 
	BYTE		N06     Bn3 
	BYTE	W12
	BYTE		        En3 
	BYTE		N06     An3 
	BYTE	W12
	BYTE		        En3 
	BYTE		N06     Gn3 
	BYTE	W12
	BYTE	PEND
// 004   ----------------------------------------
SelfDiscipline_6_004:
	BYTE		N06     Gn3   v100
	BYTE		N06     Bn3 
	BYTE	W12
	BYTE		        Gn3 
	BYTE		N06     Bn3 
	BYTE	W12
	BYTE		        Gn3 
	BYTE		N06     Bn3 
	BYTE	W12
	BYTE		        Fs3 
	BYTE		N06     An3 
	BYTE	W12
	BYTE		        Fs3 
	BYTE		N06     An3 
	BYTE	W12
	BYTE		        Fs3 
	BYTE		N06     An3 
	BYTE	W12
	BYTE		        En3 
	BYTE		N06     Gn3 
	BYTE	W12
	BYTE		        En3 
	BYTE		N06     Gn3 
	BYTE	W12
	BYTE	PEND
// 005   ----------------------------------------
SelfDiscipline_6_005:
	BYTE		N06     Fs3   v100
	BYTE		N06     An3 
	BYTE	W12
	BYTE		        Fs3 
	BYTE		N06     An3 
	BYTE	W12
	BYTE		        Fs3 
	BYTE		N06     An3 
	BYTE	W12
	BYTE		        Fs3 
	BYTE		N06     An3 
	BYTE	W12
	BYTE		        Dn3 
	BYTE		N06     Fs3 
	BYTE	W12
	BYTE		        Dn3 
	BYTE		N06     Fs3 
	BYTE	W12
	BYTE		        Dn3 
	BYTE		N06     Fs3 
	BYTE	W12
	BYTE		        Dn3 
	BYTE		N06     Fs3 
	BYTE	W12
	BYTE	PEND
// 006   ----------------------------------------
	BYTE	PATT
	 POIN2	SelfDiscipline_6_004
// 007   ----------------------------------------
	BYTE	PATT
	 POIN2	SelfDiscipline_6_003
// 008   ----------------------------------------
	BYTE	PATT
	 POIN2	SelfDiscipline_6_004
// 009   ----------------------------------------
	BYTE	PATT
	 POIN2	SelfDiscipline_6_005
// 010   ----------------------------------------
SelfDiscipline_6_010:
	BYTE		N06     Bn2   v100
	BYTE		N06     En3 
	BYTE	W12
	BYTE		        Bn2 
	BYTE		N06     En3 
	BYTE	W12
	BYTE		        Bn2 
	BYTE		N06     En3 
	BYTE	W12
	BYTE		        Bn2 
	BYTE		N06     En3 
	BYTE	W12
	BYTE		        Dn3 
	BYTE		N06     Fs3 
	BYTE	W12
	BYTE		        Dn3 
	BYTE		N06     Fs3 
	BYTE	W12
	BYTE		        Dn3 
	BYTE		N06     Fs3 
	BYTE	W12
	BYTE		        Dn3 
	BYTE		N06     Fs3 
	BYTE	W12
	BYTE	PEND
// 011   ----------------------------------------
SelfDiscipline_6_011:
	BYTE		N06     En3   v100
	BYTE		N06     Gn3 
	BYTE	W12
	BYTE		        En3 
	BYTE		N06     Gn3 
	BYTE	W12
	BYTE		        En3 
	BYTE		N06     Gn3 
	BYTE	W12
	BYTE		        En3 
	BYTE		N06     Gn3 
	BYTE	W12
	BYTE		N06   
	BYTE		N06     Bn3 
	BYTE	W12
	BYTE		        Gn3 
	BYTE		N06     Bn3 
	BYTE	W12
	BYTE		        Gn3 
	BYTE		N06     Bn3 
	BYTE	W12
	BYTE		        Gn3 
	BYTE		N06     Bn3 
	BYTE	W12
	BYTE	PEND
// 012   ----------------------------------------
SelfDiscipline_6_012:
	BYTE		N06     En3   v100
	BYTE		N06     Bn3 
	BYTE	W12
	BYTE		        En3 
	BYTE		N06     Bn3 
	BYTE	W12
	BYTE		        En3 
	BYTE		N06     Bn3 
	BYTE	W12
	BYTE		        En3 
	BYTE		N06     Bn3 
	BYTE	W12
	BYTE		        Fs3 
	BYTE		N06     Dn4 
	BYTE	W12
	BYTE		        Fs3 
	BYTE		N06     Dn4 
	BYTE	W12
	BYTE		        Fs3 
	BYTE		N06     Dn4 
	BYTE	W12
	BYTE		        Fs3 
	BYTE		N06     Dn4 
	BYTE	W12
	BYTE	PEND
// 013   ----------------------------------------
SelfDiscipline_6_013:
	BYTE		N06     Gn3   v100
	BYTE		N06     En4 
	BYTE	W12
	BYTE		        Gn3 
	BYTE		N06     En4 
	BYTE	W12
	BYTE		        Gn3 
	BYTE		N06     En4 
	BYTE	W12
	BYTE		        Gn3 
	BYTE		N06     En4 
	BYTE	W12
	BYTE		        En3 
	BYTE		N06     Bn3 
	BYTE	W12
	BYTE		        En3 
	BYTE		N06     Bn3 
	BYTE	W12
	BYTE		        En3 
	BYTE		N06     Bn3 
	BYTE	W12
	BYTE		        En3 
	BYTE		N06     Bn3 
	BYTE	W12
	BYTE	PEND
// 014   ----------------------------------------
	BYTE	PATT
	 POIN2	SelfDiscipline_6_010
// 015   ----------------------------------------
	BYTE	PATT
	 POIN2	SelfDiscipline_6_011
// 016   ----------------------------------------
	BYTE	PATT
	 POIN2	SelfDiscipline_6_012
// 017   ----------------------------------------
	BYTE	PATT
	 POIN2	SelfDiscipline_6_013
// 018   ----------------------------------------
	BYTE		N06     En3   v100
	BYTE		N06     Bn3 
	BYTE	W12
	BYTE		        En3 
	BYTE		N06     Bn3 
	BYTE	W12
	BYTE		        En3 
	BYTE		N06     Bn3 
	BYTE	W12
	BYTE		        En3 
	BYTE		N06     Bn3 
	BYTE	W12
	BYTE		        En3 
	BYTE		N06     Bn3 
	BYTE	W12
	BYTE		        En3 
	BYTE		N06     Bn3 
	BYTE	W12
	BYTE		        En3 
	BYTE		N06     Bn3 
	BYTE	W12
	BYTE		        En3 
	BYTE		N06     Bn3 
	BYTE	W12
// 019   ----------------------------------------
	BYTE		        Fs3 
	BYTE		N06     Bn3 
	BYTE	W12
	BYTE		        Fs3 
	BYTE		N06     Bn3 
	BYTE	W12
	BYTE		        Fs3 
	BYTE		N06     Bn3 
	BYTE	W12
	BYTE		        Fs3 
	BYTE		N06     Bn3 
	BYTE	W12
	BYTE		        Fs3 
	BYTE		N06     Bn3 
	BYTE	W12
	BYTE		        Fs3 
	BYTE		N06     Bn3 
	BYTE	W12
	BYTE		        Fs3 
	BYTE		N06     Bn3 
	BYTE	W12
	BYTE		        Fs3 
	BYTE		N06     Bn3 
	BYTE	W12
// 020   ----------------------------------------
	BYTE		        Gn3 
	BYTE		N06     Dn4 
	BYTE	W12
	BYTE		        Gn3 
	BYTE		N06     Dn4 
	BYTE	W12
	BYTE		        Gn3 
	BYTE		N06     Dn4 
	BYTE	W12
	BYTE		        Gn3 
	BYTE		N06     Dn4 
	BYTE	W12
	BYTE		        Gn3 
	BYTE		N06     Dn4 
	BYTE	W12
	BYTE		        Gn3 
	BYTE		N06     Dn4 
	BYTE	W12
	BYTE		        Gn3 
	BYTE		N06     Dn4 
	BYTE	W12
	BYTE		        Gn3 
	BYTE		N06     Dn4 
	BYTE	W12
// 021   ----------------------------------------
	BYTE		        An3 
	BYTE		N06     En4 
	BYTE	W12
	BYTE		        An3 
	BYTE		N06     En4 
	BYTE	W12
	BYTE		        An3 
	BYTE		N06     En4 
	BYTE	W12
	BYTE		        An3 
	BYTE		N06     En4 
	BYTE	W12
	BYTE		        An3 
	BYTE		N06     En4 
	BYTE	W12
	BYTE		        An3 
	BYTE		N06     En4 
	BYTE	W12
	BYTE		        An3 
	BYTE		N06     En4 
	BYTE	W12
	BYTE		        An3 
	BYTE		N06     En4 
	BYTE	W12
// 022   ----------------------------------------
	BYTE		        Cn4 
	BYTE		N06     Gn4 
	BYTE	W12
	BYTE		        Cn4 
	BYTE		N06     Gn4 
	BYTE	W12
	BYTE		        Cn4 
	BYTE		N06     Gn4 
	BYTE	W12
	BYTE		        Cn4 
	BYTE		N06     Gn4 
	BYTE	W12
	BYTE		        Cn4 
	BYTE		N06     Gn4 
	BYTE	W12
	BYTE		        Cn4 
	BYTE		N06     Gn4 
	BYTE	W12
	BYTE		        Cn4 
	BYTE		N06     Gn4 
	BYTE	W12
	BYTE		        Cn4 
	BYTE		N06     Gn4 
	BYTE	W12
// 023   ----------------------------------------
	BYTE		        Dn4 
	BYTE		N06     An4 
	BYTE	W12
	BYTE		        Dn4 
	BYTE		N06     An4 
	BYTE	W12
	BYTE		        Dn4 
	BYTE		N06     An4 
	BYTE	W12
	BYTE		        Dn4 
	BYTE		N06     An4 
	BYTE	W12
	BYTE		        Dn4 
	BYTE		N06     An4 
	BYTE	W12
	BYTE		        Dn4 
	BYTE		N06     An4 
	BYTE	W12
	BYTE		        An3 
	BYTE		N06     Fs4 
	BYTE	W12
	BYTE		        Fs3 
	BYTE		N06     Dn4 
	BYTE	W12
// 024   ----------------------------------------
	BYTE		N09     Bn3 
	BYTE	W12
	BYTE		        En3 
	BYTE	W12
	BYTE		        Bn2 
	BYTE	W12
	BYTE		        Dn4 
	BYTE	W12
	BYTE		        Fs3 
	BYTE	W12
	BYTE		        Dn3 
	BYTE	W12
	BYTE		        En4 
	BYTE	W12
	BYTE		        Cn4 
	BYTE	W12
// 025   ----------------------------------------
	BYTE	PATT
	 POIN2	SelfDiscipline_6_001
// 026   ----------------------------------------
	BYTE		N06     Gn3   v100
	BYTE		N06     Bn3 
	BYTE	W06
	BYTE	GoTo
	 POIN2	SelfDiscipline_6_B1
SelfDiscipline_6_B2:
	BYTE	W06
	BYTE		N06     Gn3   v100
	BYTE		N06     Bn3 
	BYTE	W12
	BYTE	FINE

//**************** Track 7 (Midi-Chn.7) ****************//

SelfDiscipline_7:
	BYTE	KEYSH   SelfDiscipline_key+0
// 000   ----------------------------------------
	BYTE		VOICE   33
	BYTE		VOL     109*SelfDiscipline_mvl/mxv
	BYTE		N36     En2   v100
	BYTE	W36
	BYTE		        Dn2 
	BYTE	W36
	BYTE		        Cn2 
	BYTE	W24
// 001   ----------------------------------------
SelfDiscipline_7_001:
	BYTE	W12
	BYTE		N36     Bn1   v100
	BYTE	W36
	BYTE		N24     An1 
	BYTE	W24
	BYTE		N12     Gn1 
	BYTE	W12
	BYTE		        Dn1 
	BYTE	W12
	BYTE	PEND
// 002   ----------------------------------------
	BYTE		        En1 
	BYTE	W06
SelfDiscipline_7_B1:
	BYTE	W06
	BYTE		N12     En1   v100
	BYTE	W12
	BYTE		        Bn1 
	BYTE	W12
	BYTE		N06     An1 
	BYTE	W06
	BYTE		        Bn1 
	BYTE	W06
	BYTE		N12     En1 
	BYTE	W12
	BYTE		N12   
	BYTE	W12
	BYTE		        Bn1 
	BYTE	W12
	BYTE		N06     An1 
	BYTE	W06
	BYTE		        Bn1 
	BYTE	W06
// 003   ----------------------------------------
SelfDiscipline_7_003:
	BYTE		N12     En1   v100
	BYTE	W12
	BYTE		N12   
	BYTE	W12
	BYTE		        Bn1 
	BYTE	W12
	BYTE		N06     An1 
	BYTE	W06
	BYTE		        Bn1 
	BYTE	W06
	BYTE		N12     En1 
	BYTE	W12
	BYTE		N12   
	BYTE	W12
	BYTE		        Bn1 
	BYTE	W12
	BYTE		N06     An1 
	BYTE	W06
	BYTE		        Bn1 
	BYTE	W06
	BYTE	PEND
// 004   ----------------------------------------
SelfDiscipline_7_004:
	BYTE		N12     Cn1   v100
	BYTE	W12
	BYTE		N12   
	BYTE	W12
	BYTE		        Gn1 
	BYTE	W12
	BYTE		N06     Fs1 
	BYTE	W06
	BYTE		        Gn1 
	BYTE	W06
	BYTE		N12     Cn1 
	BYTE	W12
	BYTE		N12   
	BYTE	W12
	BYTE		        Gn1 
	BYTE	W12
	BYTE		N06     Fs1 
	BYTE	W06
	BYTE		        Gn1 
	BYTE	W06
	BYTE	PEND
// 005   ----------------------------------------
SelfDiscipline_7_005:
	BYTE		N12     Dn1   v100
	BYTE	W12
	BYTE		N12   
	BYTE	W12
	BYTE		        Dn2 
	BYTE	W12
	BYTE		N06     An1 
	BYTE	W06
	BYTE		        Dn2 
	BYTE	W06
	BYTE		N12     Dn1 
	BYTE	W12
	BYTE		N12   
	BYTE	W12
	BYTE		N06     Dn2 
	BYTE	W06
	BYTE		        An1 
	BYTE	W06
	BYTE		N12     Dn1 
	BYTE	W12
	BYTE	PEND
// 006   ----------------------------------------
	BYTE	PATT
	 POIN2	SelfDiscipline_7_003
// 007   ----------------------------------------
	BYTE	PATT
	 POIN2	SelfDiscipline_7_003
// 008   ----------------------------------------
	BYTE	PATT
	 POIN2	SelfDiscipline_7_004
// 009   ----------------------------------------
	BYTE	PATT
	 POIN2	SelfDiscipline_7_005
// 010   ----------------------------------------
SelfDiscipline_7_010:
	BYTE		N12     Cn1   v100
	BYTE	W12
	BYTE		N12   
	BYTE	W12
	BYTE		        Gn1 
	BYTE	W12
	BYTE		N06     Cn1 
	BYTE	W06
	BYTE		        Gn1 
	BYTE	W06
	BYTE		N12     Dn1 
	BYTE	W12
	BYTE		N12   
	BYTE	W12
	BYTE		        An1 
	BYTE	W12
	BYTE		N06     Dn1 
	BYTE	W06
	BYTE		        An1 
	BYTE	W06
	BYTE	PEND
// 011   ----------------------------------------
SelfDiscipline_7_011:
	BYTE		N12     En1   v100
	BYTE	W12
	BYTE		N12   
	BYTE	W12
	BYTE		        Bn1 
	BYTE	W12
	BYTE		N06     An1 
	BYTE	W06
	BYTE		        Bn1 
	BYTE	W06
	BYTE		N12     Gn1 
	BYTE	W12
	BYTE		N12   
	BYTE	W12
	BYTE		N06     Gn2 
	BYTE	W06
	BYTE		        Dn2 
	BYTE	W06
	BYTE		N12     Gn1 
	BYTE	W12
	BYTE	PEND
// 012   ----------------------------------------
	BYTE	PATT
	 POIN2	SelfDiscipline_7_010
// 013   ----------------------------------------
	BYTE	PATT
	 POIN2	SelfDiscipline_7_011
// 014   ----------------------------------------
	BYTE	PATT
	 POIN2	SelfDiscipline_7_010
// 015   ----------------------------------------
	BYTE	PATT
	 POIN2	SelfDiscipline_7_011
// 016   ----------------------------------------
	BYTE	PATT
	 POIN2	SelfDiscipline_7_010
// 017   ----------------------------------------
	BYTE	PATT
	 POIN2	SelfDiscipline_7_011
// 018   ----------------------------------------
	BYTE		N12     En1   v100
	BYTE	W12
	BYTE		N12   
	BYTE	W12
	BYTE		        En2 
	BYTE	W12
	BYTE		N06     Bn1 
	BYTE	W06
	BYTE		        En2 
	BYTE	W06
	BYTE		N12     En1 
	BYTE	W12
	BYTE		N12   
	BYTE	W12
	BYTE		        En2 
	BYTE	W12
	BYTE		N06     Bn1 
	BYTE	W06
	BYTE		        En2 
	BYTE	W06
// 019   ----------------------------------------
	BYTE		N12     Fs1 
	BYTE	W12
	BYTE		N12   
	BYTE	W12
	BYTE		        Fs2 
	BYTE	W12
	BYTE		N06     Dn2 
	BYTE	W06
	BYTE		        Fs2 
	BYTE	W06
	BYTE		N12     Fs1 
	BYTE	W12
	BYTE		N12   
	BYTE	W12
	BYTE		        Fs2 
	BYTE	W12
	BYTE		N06     Dn2 
	BYTE	W06
	BYTE		        Fs2 
	BYTE	W06
// 020   ----------------------------------------
	BYTE		N12     Gn1 
	BYTE	W12
	BYTE		N12   
	BYTE	W12
	BYTE		        Gn2 
	BYTE	W12
	BYTE		N06     Dn2 
	BYTE	W06
	BYTE		        Gn2 
	BYTE	W06
	BYTE		N12     Gn1 
	BYTE	W12
	BYTE		N12   
	BYTE	W12
	BYTE		        Gn2 
	BYTE	W12
	BYTE		N06     Dn2 
	BYTE	W06
	BYTE		        Gn2 
	BYTE	W06
// 021   ----------------------------------------
	BYTE		N12     An1 
	BYTE	W12
	BYTE		N12   
	BYTE	W12
	BYTE		        An2 
	BYTE	W12
	BYTE		N06     En2 
	BYTE	W06
	BYTE		        An2 
	BYTE	W06
	BYTE		N12     An1 
	BYTE	W12
	BYTE		N12   
	BYTE	W12
	BYTE		N06     An2 
	BYTE	W06
	BYTE		        En2 
	BYTE	W06
	BYTE		N12     An1 
	BYTE	W12
// 022   ----------------------------------------
	BYTE		        Cn2 
	BYTE	W12
	BYTE		N12   
	BYTE	W12
	BYTE		        Gn2 
	BYTE	W12
	BYTE		N06     Cn2 
	BYTE	W06
	BYTE		        Gn2 
	BYTE	W06
	BYTE		N12     Cn2 
	BYTE	W12
	BYTE		N12   
	BYTE	W12
	BYTE		        Gn2 
	BYTE	W12
	BYTE		N06     Cn2 
	BYTE	W06
	BYTE		        Gn2 
	BYTE	W06
// 023   ----------------------------------------
	BYTE		N12     Dn1 
	BYTE	W12
	BYTE		N12   
	BYTE	W12
	BYTE		        Dn2 
	BYTE	W12
	BYTE		N06     An1 
	BYTE	W06
	BYTE		        Dn2 
	BYTE	W06
	BYTE		N12     Dn1 
	BYTE	W12
	BYTE		N12   
	BYTE	W12
	BYTE		        Dn2 
	BYTE	W12
	BYTE		N06     An1 
	BYTE	W06
	BYTE		        Dn2 
	BYTE	W06
// 024   ----------------------------------------
	BYTE		N36     En2 
	BYTE	W36
	BYTE		        Dn2 
	BYTE	W36
	BYTE		        Cn2 
	BYTE	W24
// 025   ----------------------------------------
	BYTE	PATT
	 POIN2	SelfDiscipline_7_001
// 026   ----------------------------------------
	BYTE		N12     En1   v100
	BYTE	W06
	BYTE	GoTo
	 POIN2	SelfDiscipline_7_B1
SelfDiscipline_7_B2:
	BYTE	W06
	BYTE		N12     En1   v100
	BYTE	W12
	BYTE	FINE

//**************** Track 8 (Midi-Chn.8) ****************//

SelfDiscipline_8:
	BYTE	KEYSH   SelfDiscipline_key+0
// 000   ----------------------------------------
	BYTE		VOICE   56
	BYTE		VOL     110*SelfDiscipline_mvl/mxv
	BYTE	W06
	BYTE		N09     En3   v100
	BYTE	W12
	BYTE		        Bn2 
	BYTE	W12
	BYTE		        En2 
	BYTE	W12
	BYTE		        Fs3 
	BYTE	W12
	BYTE		        Dn3 
	BYTE	W12
	BYTE		        An2 
	BYTE	W12
	BYTE		        Gn3 
	BYTE	W12
	BYTE		        En3 
	BYTE	W06
// 001   ----------------------------------------
SelfDiscipline_8_001:
	BYTE	W06
	BYTE		N09     Cn3   v100
	BYTE	W12
	BYTE		        An3 
	BYTE	W12
	BYTE		        Fs3 
	BYTE	W12
	BYTE		        Dn3 
	BYTE	W12
	BYTE		        Bn3 
	BYTE	W12
	BYTE		N06     Gn3 
	BYTE	W06
	BYTE		        An3 
	BYTE	W06
	BYTE		        Bn3 
	BYTE	W06
	BYTE		        Cn4 
	BYTE	W06
	BYTE		        Dn4 
	BYTE	W06
	BYTE	PEND
// 002   ----------------------------------------
	BYTE		        En4 
	BYTE	W06
SelfDiscipline_8_B1:
	BYTE		N06     En3   v100
	BYTE	W06
	BYTE		        Fs3 
	BYTE	W06
	BYTE		        Gn3 
	BYTE	W06
	BYTE		        Bn3 
	BYTE	W06
	BYTE		N54     En4 
	BYTE	W60
	BYTE		N12     Gn4 
	BYTE	W06
// 003   ----------------------------------------
SelfDiscipline_8_003:
	BYTE	W06
	BYTE		N18     Fs4   v100
	BYTE	W18
	BYTE		        Dn4 
	BYTE	W18
	BYTE		N12     An3 
	BYTE	W12
	BYTE		N30     Bn3 
	BYTE	W36
	BYTE		N06     Cn4 
	BYTE	W06
	BYTE	PEND
// 004   ----------------------------------------
	BYTE		        Dn4 
	BYTE	W06
	BYTE		N18     En4 
	BYTE	W18
	BYTE		        Dn4 
	BYTE	W18
	BYTE		N12     En4 
	BYTE	W12
	BYTE		N18     Bn3 
	BYTE	W18
	BYTE		        An3 
	BYTE	W18
	BYTE		N12     Gn3 
	BYTE	W06
// 005   ----------------------------------------
	BYTE	W06
	BYTE		N36     An3 
	BYTE	W36
	BYTE		N06     Gn3 
	BYTE	W06
	BYTE		        An3 
	BYTE	W06
	BYTE		N42     Fs3 
	BYTE	W42
// 006   ----------------------------------------
	BYTE	W06
	BYTE		N06     En3 
	BYTE	W06
	BYTE		        Fs3 
	BYTE	W06
	BYTE		        Gn3 
	BYTE	W06
	BYTE		        Bn3 
	BYTE	W06
	BYTE		N54     En4 
	BYTE	W60
	BYTE		N12     Gn4 
	BYTE	W06
// 007   ----------------------------------------
	BYTE	PATT
	 POIN2	SelfDiscipline_8_003
// 008   ----------------------------------------
	BYTE		N06     Dn4   v100
	BYTE	W06
	BYTE		N18     En4 
	BYTE	W18
	BYTE		        Dn4 
	BYTE	W18
	BYTE		N12     En4 
	BYTE	W12
	BYTE		N42     Bn3 
	BYTE	W42
// 009   ----------------------------------------
	BYTE	W06
	BYTE		N18     Gn4 
	BYTE	W18
	BYTE		        Fs4 
	BYTE	W18
	BYTE		N12     Dn4 
	BYTE	W12
	BYTE		N18     Fs4 
	BYTE	W18
	BYTE		        Gn4 
	BYTE	W18
	BYTE		N12     An4 
	BYTE	W06
// 010   ----------------------------------------
	BYTE	W96
// 011   ----------------------------------------
	BYTE	W96
// 012   ----------------------------------------
	BYTE	W96
// 013   ----------------------------------------
	BYTE	W96
// 014   ----------------------------------------
	BYTE	W96
// 015   ----------------------------------------
	BYTE	W96
// 016   ----------------------------------------
	BYTE	W96
// 017   ----------------------------------------
	BYTE	W96
// 018   ----------------------------------------
	BYTE	W96
// 019   ----------------------------------------
	BYTE	W96
// 020   ----------------------------------------
	BYTE	W96
// 021   ----------------------------------------
	BYTE	W96
// 022   ----------------------------------------
	BYTE	W96
// 023   ----------------------------------------
	BYTE	W96
// 024   ----------------------------------------
	BYTE	W06
	BYTE		N09     En3 
	BYTE	W12
	BYTE		        Bn2 
	BYTE	W12
	BYTE		        En2 
	BYTE	W12
	BYTE		        Fs3 
	BYTE	W12
	BYTE		        Dn3 
	BYTE	W12
	BYTE		        An2 
	BYTE	W12
	BYTE		        Gn3 
	BYTE	W12
	BYTE		        En3 
	BYTE	W06
// 025   ----------------------------------------
	BYTE	PATT
	 POIN2	SelfDiscipline_8_001
// 026   ----------------------------------------
	BYTE		N06     En4   v100
	BYTE	W06
	BYTE	GoTo
	 POIN2	SelfDiscipline_8_B1
SelfDiscipline_8_B2:
	BYTE		N06     En3   v100
	BYTE	W06
	BYTE		        Fs3 
	BYTE	W06
	BYTE		        Gn3 
	BYTE	W06
	BYTE	FINE

//**************** Track 9 (Midi-Chn.9) ****************//

SelfDiscipline_9:
	BYTE	KEYSH   SelfDiscipline_key+0
// 000   ----------------------------------------
	BYTE		VOICE   52
	BYTE		VOL     98*SelfDiscipline_mvl/mxv
	BYTE	W96
// 001   ----------------------------------------
	BYTE	W96
// 002   ----------------------------------------
	BYTE	W06
SelfDiscipline_9_B1:
	BYTE	W90
// 003   ----------------------------------------
	BYTE	W96
// 004   ----------------------------------------
	BYTE	W96
// 005   ----------------------------------------
	BYTE	W96
// 006   ----------------------------------------
	BYTE	W96
// 007   ----------------------------------------
	BYTE	W96
// 008   ----------------------------------------
	BYTE	W96
// 009   ----------------------------------------
	BYTE	W96
// 010   ----------------------------------------
	BYTE	W96
// 011   ----------------------------------------
	BYTE	W96
// 012   ----------------------------------------
	BYTE	W96
// 013   ----------------------------------------
	BYTE	W96
// 014   ----------------------------------------
	BYTE	W96
// 015   ----------------------------------------
	BYTE	W96
// 016   ----------------------------------------
	BYTE	W96
// 017   ----------------------------------------
	BYTE	W96
// 018   ----------------------------------------
	BYTE		N96     Gn3   v100
	BYTE		N96     Bn3 
	BYTE	W96
// 019   ----------------------------------------
	BYTE		        Fs3 
	BYTE		N96     Bn3 
	BYTE	W96
// 020   ----------------------------------------
	BYTE		        Dn3 
	BYTE		N96     Bn3 
	BYTE	W96
// 021   ----------------------------------------
	BYTE		        En3 
	BYTE		N96     An3 
	BYTE	W96
// 022   ----------------------------------------
	BYTE		N01     En3 
	BYTE		N96     Gn3 
	BYTE	W96
// 023   ----------------------------------------
	BYTE		        Fs3 
	BYTE		N96     An3 
	BYTE	W96
// 024   ----------------------------------------
	BYTE	W96
// 025   ----------------------------------------
	BYTE	W96
// 026   ----------------------------------------
	BYTE	W06
	BYTE	GoTo
	 POIN2	SelfDiscipline_9_B1
SelfDiscipline_9_B2:
	BYTE	W18
	BYTE	FINE

//**************** Track 10 (Midi-Chn.11) ****************//

SelfDiscipline_10:
	BYTE	KEYSH   SelfDiscipline_key+0
// 000   ----------------------------------------
	BYTE		VOICE   124
	BYTE		VOL     118*SelfDiscipline_mvl/mxv
	BYTE		N06     Cn1   v100
	BYTE	W12
	BYTE		N06   
	BYTE	W12
	BYTE		        Dn1 
	BYTE	W18
	BYTE		N06   
	BYTE	W06
	BYTE		        Cn1 
	BYTE	W12
	BYTE		N06   
	BYTE	W12
	BYTE		        Dn1 
	BYTE	W24
// 001   ----------------------------------------
SelfDiscipline_10_001:
	BYTE		N06     Cn1   v100
	BYTE	W12
	BYTE		N06   
	BYTE	W12
	BYTE		        Dn1 
	BYTE	W18
	BYTE		N06   
	BYTE	W06
	BYTE		        Cn1 
	BYTE	W12
	BYTE		N06   
	BYTE	W12
	BYTE		        Dn1 
	BYTE	W24
	BYTE	PEND
// 002   ----------------------------------------
	BYTE		        Cn1 
	BYTE	W06
SelfDiscipline_10_B1:
	BYTE	W06
	BYTE		N06     Cn1   v100
	BYTE	W12
	BYTE		        Dn1 
	BYTE	W18
	BYTE		N06   
	BYTE	W06
	BYTE		        Cn1 
	BYTE	W12
	BYTE		N06   
	BYTE	W12
	BYTE		        Dn1 
	BYTE	W24
// 003   ----------------------------------------
	BYTE	PATT
	 POIN2	SelfDiscipline_10_001
// 004   ----------------------------------------
SelfDiscipline_10_004:
	BYTE		VOL     118*SelfDiscipline_mvl/mxv
	BYTE		N06     Cn1   v100
	BYTE	W12
	BYTE		N06   
	BYTE	W12
	BYTE		        Dn1 
	BYTE	W18
	BYTE		N06   
	BYTE	W06
	BYTE		        Cn1 
	BYTE	W12
	BYTE		N06   
	BYTE	W12
	BYTE		        Dn1 
	BYTE	W24
	BYTE	PEND
// 005   ----------------------------------------
	BYTE	PATT
	 POIN2	SelfDiscipline_10_001
// 006   ----------------------------------------
	BYTE	PATT
	 POIN2	SelfDiscipline_10_001
// 007   ----------------------------------------
	BYTE	PATT
	 POIN2	SelfDiscipline_10_001
// 008   ----------------------------------------
	BYTE	PATT
	 POIN2	SelfDiscipline_10_004
// 009   ----------------------------------------
	BYTE	PATT
	 POIN2	SelfDiscipline_10_001
// 010   ----------------------------------------
	BYTE	PATT
	 POIN2	SelfDiscipline_10_001
// 011   ----------------------------------------
	BYTE	PATT
	 POIN2	SelfDiscipline_10_001
// 012   ----------------------------------------
	BYTE	PATT
	 POIN2	SelfDiscipline_10_004
// 013   ----------------------------------------
	BYTE	PATT
	 POIN2	SelfDiscipline_10_001
// 014   ----------------------------------------
	BYTE	PATT
	 POIN2	SelfDiscipline_10_001
// 015   ----------------------------------------
	BYTE	PATT
	 POIN2	SelfDiscipline_10_001
// 016   ----------------------------------------
	BYTE	PATT
	 POIN2	SelfDiscipline_10_004
// 017   ----------------------------------------
	BYTE	PATT
	 POIN2	SelfDiscipline_10_001
// 018   ----------------------------------------
	BYTE	PATT
	 POIN2	SelfDiscipline_10_001
// 019   ----------------------------------------
	BYTE	PATT
	 POIN2	SelfDiscipline_10_001
// 020   ----------------------------------------
	BYTE	PATT
	 POIN2	SelfDiscipline_10_004
// 021   ----------------------------------------
	BYTE	PATT
	 POIN2	SelfDiscipline_10_001
// 022   ----------------------------------------
	BYTE	PATT
	 POIN2	SelfDiscipline_10_001
// 023   ----------------------------------------
	BYTE	PATT
	 POIN2	SelfDiscipline_10_001
// 024   ----------------------------------------
	BYTE	PATT
	 POIN2	SelfDiscipline_10_004
// 025   ----------------------------------------
	BYTE	PATT
	 POIN2	SelfDiscipline_10_001
// 026   ----------------------------------------
	BYTE		N06     Cn1   v100
	BYTE	W06
	BYTE	GoTo
	 POIN2	SelfDiscipline_10_B1
SelfDiscipline_10_B2:
	BYTE	W06
	BYTE		N06     Cn1   v100
	BYTE	W12
	BYTE	FINE

//******************************************************//
	ALIGN 4

SelfDiscipline:
	BYTE	10	// NumTrks
	BYTE	0	// NumBlks
	BYTE	SelfDiscipline_pri	// Priority
	BYTE	SelfDiscipline_rev	// Reverb.

	POIN2	SelfDiscipline_grp

	POIN2	SelfDiscipline_1
	POIN2	SelfDiscipline_2
	POIN2	SelfDiscipline_3
	POIN2	SelfDiscipline_4
	POIN2	SelfDiscipline_5
	POIN2	SelfDiscipline_6
	POIN2	SelfDiscipline_7
	POIN2	SelfDiscipline_8
	POIN2	SelfDiscipline_9
	POIN2	SelfDiscipline_10

	
