//Event file generated from Sappy .s format.
	#include "MPlayDef.event"

	#define	StrongerMonsters_grp  voicegroup000
	#define	StrongerMonsters_pri  0
	#define	StrongerMonsters_rev  0
	#define	StrongerMonsters_mvl  127
	#define	StrongerMonsters_key  0
	#define	StrongerMonsters_tbs  1
	#define	StrongerMonsters_exg  0
	#define	StrongerMonsters_cmp  1

	// .rodata
	//	StrongerMonsters
	ALIGN 4

//**************** Track 1 (Midi-Chn.1) ****************//

StrongerMonsters_1:
	BYTE	KEYSH   StrongerMonsters_key+0
// 000   ----------------------------------------
	BYTE	TEMPO   200*StrongerMonsters_tbs/2
	BYTE		VOICE   41
	BYTE		VOL     51*StrongerMonsters_mvl/mxv
	BYTE		PAN     c_v+24
	BYTE		N96     Gn2   v064
	BYTE	W96
// 001   ----------------------------------------
	BYTE		        An2 
	BYTE	W96
// 002   ----------------------------------------
	BYTE		        As2 
	BYTE	W96
// 003   ----------------------------------------
	BYTE		        Cn3 
	BYTE	W96
StrongerMonsters_1_B1:
// 004   ----------------------------------------
	BYTE		N96     Dn3   v056
	BYTE	W96
// 005   ----------------------------------------
	BYTE		        En3 
	BYTE	W96
// 006   ----------------------------------------
	BYTE		        Ds3 
	BYTE	W96
// 007   ----------------------------------------
	BYTE		        Dn3 
	BYTE	W96
// 008   ----------------------------------------
	BYTE		N96   
	BYTE	W96
// 009   ----------------------------------------
	BYTE		        En3 
	BYTE	W96
// 010   ----------------------------------------
	BYTE		        Ds3 
	BYTE	W96
// 011   ----------------------------------------
	BYTE		        Dn3 
	BYTE	W96
// 012   ----------------------------------------
	BYTE		        Cn3 
	BYTE	W96
// 013   ----------------------------------------
	BYTE		        Fn3 
	BYTE	W96
// 014   ----------------------------------------
	BYTE		        Ds3 
	BYTE	W96
// 015   ----------------------------------------
	BYTE		N48     Cn3 
	BYTE	W48
	BYTE		        Ds3 
	BYTE	W48
// 016   ----------------------------------------
	BYTE		N96     Dn3 
	BYTE	W96
// 017   ----------------------------------------
	BYTE		        Ds3 
	BYTE	W96
// 018   ----------------------------------------
	BYTE		        En3 
	BYTE	W96
// 019   ----------------------------------------
	BYTE		        An2 
	BYTE	W96
// 020   ----------------------------------------
	BYTE		TIE     Gn3   v064
	BYTE	W96
// 021   ----------------------------------------
	BYTE	W48
	BYTE		EOT   
	BYTE		N96     An3 
	BYTE	W48
// 022   ----------------------------------------
	BYTE	W48
	BYTE		N48     As3 
	BYTE	W48
// 023   ----------------------------------------
	BYTE		TIE     Cn4 
	BYTE	W96
// 024   ----------------------------------------
	BYTE	W48
	BYTE		EOT   
	BYTE		N96     Dn4 
	BYTE	W48
// 025   ----------------------------------------
	BYTE	W48
	BYTE		N48     Ds4 
	BYTE	W48
// 026   ----------------------------------------
	BYTE		N96     Fs3 
	BYTE	W96
// 027   ----------------------------------------
	BYTE		        Dn3 
	BYTE	W96
// 028   ----------------------------------------
	BYTE		        Gn2 
	BYTE	W96
// 029   ----------------------------------------
	BYTE		        An2 
	BYTE	W96
// 030   ----------------------------------------
	BYTE		        As2 
	BYTE	W96
// 031   ----------------------------------------
	BYTE		        Cn3 
	BYTE	W96
// 032   ----------------------------------------
	BYTE		        Gn2 
	BYTE	W96
// 033   ----------------------------------------
	BYTE		        An2 
	BYTE	W96
// 034   ----------------------------------------
	BYTE		        As2 
	BYTE	W96
// 035   ----------------------------------------
	BYTE		        Cn3 
	BYTE	W96
	BYTE	GoTo
	 POIN2	StrongerMonsters_1_B1
StrongerMonsters_1_B2:
// 036   ----------------------------------------
	BYTE	FINE

//**************** Track 2 (Midi-Chn.2) ****************//

StrongerMonsters_2:
	BYTE	KEYSH   StrongerMonsters_key+0
// 000   ----------------------------------------
	BYTE		VOICE   42
	BYTE		VOL     51*StrongerMonsters_mvl/mxv
	BYTE		PAN     c_v-26
	BYTE	W12
	BYTE		N96     Gn2   v036
	BYTE	W84
// 001   ----------------------------------------
	BYTE	W12
	BYTE		        An2 
	BYTE	W84
// 002   ----------------------------------------
	BYTE	W12
	BYTE		        As2 
	BYTE	W84
// 003   ----------------------------------------
	BYTE	W12
	BYTE		        Cn3 
	BYTE	W84
StrongerMonsters_2_B1:
// 004   ----------------------------------------
	BYTE	W96
// 005   ----------------------------------------
	BYTE	W96
// 006   ----------------------------------------
	BYTE	W96
// 007   ----------------------------------------
	BYTE	W96
// 008   ----------------------------------------
	BYTE	W96
// 009   ----------------------------------------
	BYTE	W96
// 010   ----------------------------------------
	BYTE	W96
// 011   ----------------------------------------
	BYTE	W96
// 012   ----------------------------------------
	BYTE	W96
// 013   ----------------------------------------
	BYTE	W96
// 014   ----------------------------------------
	BYTE	W96
// 015   ----------------------------------------
	BYTE	W96
// 016   ----------------------------------------
	BYTE	W96
// 017   ----------------------------------------
	BYTE	W96
// 018   ----------------------------------------
	BYTE	W96
// 019   ----------------------------------------
	BYTE	W96
// 020   ----------------------------------------
	BYTE	W96
// 021   ----------------------------------------
	BYTE	W96
// 022   ----------------------------------------
	BYTE	W96
// 023   ----------------------------------------
	BYTE	W96
// 024   ----------------------------------------
	BYTE	W96
// 025   ----------------------------------------
	BYTE	W96
// 026   ----------------------------------------
	BYTE	W96
// 027   ----------------------------------------
	BYTE	W96
// 028   ----------------------------------------
	BYTE		N96     Gn2   v036
	BYTE	W96
// 029   ----------------------------------------
	BYTE		        An2 
	BYTE	W96
// 030   ----------------------------------------
	BYTE		        As2 
	BYTE	W96
// 031   ----------------------------------------
	BYTE		        Cn3 
	BYTE	W96
// 032   ----------------------------------------
	BYTE	W12
	BYTE		        Gn2 
	BYTE	W84
// 033   ----------------------------------------
	BYTE	W12
	BYTE		        An2 
	BYTE	W84
// 034   ----------------------------------------
	BYTE	W12
	BYTE		        As2 
	BYTE	W84
// 035   ----------------------------------------
	BYTE	W12
	BYTE		        Cn3 
	BYTE	W84
	BYTE	GoTo
	 POIN2	StrongerMonsters_2_B1
StrongerMonsters_2_B2:
// 036   ----------------------------------------
	BYTE	W12
	BYTE	FINE

//**************** Track 3 (Midi-Chn.3) ****************//

StrongerMonsters_3:
	BYTE	KEYSH   StrongerMonsters_key+0
// 000   ----------------------------------------
	BYTE		VOICE   57
	BYTE		VOL     51*StrongerMonsters_mvl/mxv
	BYTE		PAN     c_v-13
	BYTE	W96
// 001   ----------------------------------------
	BYTE	W96
// 002   ----------------------------------------
	BYTE	W96
// 003   ----------------------------------------
	BYTE	W96
StrongerMonsters_3_B1:
// 004   ----------------------------------------
StrongerMonsters_3_004:
	BYTE		N36     Gn3   v064
	BYTE	W36
	BYTE		        As3 
	BYTE	W36
	BYTE		N24     Dn4 
	BYTE	W24
	BYTE	PEND
// 005   ----------------------------------------
StrongerMonsters_3_005:
	BYTE		N36     Cs4   v064
	BYTE	W36
	BYTE		        An3 
	BYTE	W36
	BYTE		N24     Cs4 
	BYTE	W24
	BYTE	PEND
// 006   ----------------------------------------
	BYTE		N36     Cn4 
	BYTE	W36
	BYTE		        Gs3 
	BYTE	W36
	BYTE		N24     Cn4 
	BYTE	W24
// 007   ----------------------------------------
	BYTE		N36     As3 
	BYTE	W36
	BYTE		N48     Gn3 
	BYTE	W48
	BYTE		N12     Gn3   v036
	BYTE	W12
// 008   ----------------------------------------
	BYTE	PATT
	 POIN2	StrongerMonsters_3_004
// 009   ----------------------------------------
	BYTE	PATT
	 POIN2	StrongerMonsters_3_005
// 010   ----------------------------------------
	BYTE		N36     Cn4   v064
	BYTE	W36
	BYTE		        Dn4 
	BYTE	W36
	BYTE		N24     Ds4 
	BYTE	W24
// 011   ----------------------------------------
	BYTE		N12     Dn4 
	BYTE	W12
	BYTE		N24     As3 
	BYTE	W24
	BYTE		N48     Gn3 
	BYTE	W48
	BYTE		N12     Gn3   v036
	BYTE	W12
// 012   ----------------------------------------
	BYTE		N36     Fn3   v064
	BYTE	W36
	BYTE		        Gn3 
	BYTE	W36
	BYTE		N24     Gs3 
	BYTE	W24
// 013   ----------------------------------------
	BYTE		N36     As3 
	BYTE	W36
	BYTE		        Gs3 
	BYTE	W36
	BYTE		N24     Gn3 
	BYTE	W24
// 014   ----------------------------------------
	BYTE		N36     Fn3 
	BYTE	W36
	BYTE		        Gn3 
	BYTE	W36
	BYTE		N24     Fn3 
	BYTE	W24
// 015   ----------------------------------------
	BYTE		N36     Ds3 
	BYTE	W36
	BYTE		        Dn3 
	BYTE	W36
	BYTE		N24     Cn3 
	BYTE	W24
// 016   ----------------------------------------
	BYTE		BEND    c_v-32
	BYTE		N96     Gn2 
	BYTE		N96     Bn2 
	BYTE	W12
	BYTE		BEND    c_v+0
	BYTE	W84
// 017   ----------------------------------------
	BYTE		        c_v-32
	BYTE		N96     An2 
	BYTE		N96     Cn3 
	BYTE	W12
	BYTE		BEND    c_v+0
	BYTE	W84
// 018   ----------------------------------------
	BYTE		        c_v-32
	BYTE		N96     As2 
	BYTE		N96     Cs3 
	BYTE	W12
	BYTE		BEND    c_v+0
	BYTE	W84
// 019   ----------------------------------------
	BYTE		        c_v-32
	BYTE		N96     Fs2 
	BYTE		N96     Dn3 
	BYTE	W12
	BYTE		BEND    c_v+0
	BYTE	W84
// 020   ----------------------------------------
StrongerMonsters_3_020:
	BYTE		N36     Ds3   v064
	BYTE	W36
	BYTE		N24     Gn3 
	BYTE	W24
	BYTE		        As3 
	BYTE	W24
	BYTE		N12     Gn3 
	BYTE	W12
	BYTE	PEND
// 021   ----------------------------------------
	BYTE		        An3 
	BYTE	W12
	BYTE		        An3   v044
	BYTE	W12
	BYTE		        Fn3   v064
	BYTE	W12
	BYTE		        Fn3   v044
	BYTE	W12
	BYTE		N36     Gn3   v064
	BYTE	W36
	BYTE		N24     Fn3 
	BYTE	W12
// 022   ----------------------------------------
	BYTE	W12
	BYTE		        Gn3 
	BYTE	W24
	BYTE		N12     Dn3 
	BYTE	W12
	BYTE		        Ds3 
	BYTE	W12
	BYTE		        Ds3   v044
	BYTE	W12
	BYTE		        Fn3   v064
	BYTE	W12
	BYTE		        Fn3   v044
	BYTE	W12
// 023   ----------------------------------------
	BYTE	PATT
	 POIN2	StrongerMonsters_3_020
// 024   ----------------------------------------
	BYTE		N12     An3   v064
	BYTE	W12
	BYTE		        An3   v044
	BYTE	W12
	BYTE		        Cn4   v064
	BYTE	W12
	BYTE		        Cn4   v044
	BYTE	W12
	BYTE		N36     As3   v064
	BYTE	W36
	BYTE		N24     Gn3 
	BYTE	W12
// 025   ----------------------------------------
	BYTE	W12
	BYTE		        An3 
	BYTE	W24
	BYTE		N12     Fn3 
	BYTE	W12
	BYTE		        Ds3 
	BYTE	W12
	BYTE		        Ds3   v044
	BYTE	W12
	BYTE		        Fn3   v064
	BYTE	W12
	BYTE		        Fn3   v044
	BYTE	W12
// 026   ----------------------------------------
	BYTE		MOD     0
	BYTE		TIE     Dn3   v064
	BYTE	W06
	BYTE		BEND    c_v+32
	BYTE	W06
	BYTE		        c_v+0
	BYTE	W06
	BYTE		        c_v+32
	BYTE	W06
	BYTE		        c_v+0
	BYTE	W06
	BYTE		        c_v+32
	BYTE	W06
	BYTE		        c_v+0
	BYTE	W06
	BYTE		        c_v+32
	BYTE	W06
	BYTE		        c_v+0
	BYTE	W06
	BYTE		        c_v+32
	BYTE	W06
	BYTE		        c_v+0
	BYTE	W06
	BYTE		        c_v+32
	BYTE	W06
	BYTE		        c_v+0
	BYTE	W06
	BYTE		        c_v+32
	BYTE	W06
	BYTE		        c_v+0
	BYTE	W06
	BYTE		        c_v+32
	BYTE	W06
// 027   ----------------------------------------
	BYTE		        c_v+0
	BYTE	W06
	BYTE		        c_v+32
	BYTE	W06
	BYTE		        c_v+0
	BYTE	W06
	BYTE		        c_v+32
	BYTE	W06
	BYTE		        c_v+0
	BYTE	W06
	BYTE		        c_v+32
	BYTE	W06
	BYTE		        c_v+0
	BYTE	W06
	BYTE		        c_v+32
	BYTE	W06
	BYTE		        c_v+0
	BYTE	W06
	BYTE		        c_v+32
	BYTE	W06
	BYTE		        c_v+0
	BYTE	W06
	BYTE		        c_v+32
	BYTE	W06
	BYTE		        c_v+0
	BYTE	W06
	BYTE		        c_v+32
	BYTE	W06
	BYTE		        c_v+0
	BYTE	W06
	BYTE		        c_v+32
	BYTE	W06
	BYTE		EOT   
// 028   ----------------------------------------
	BYTE		BEND    c_v+0
	BYTE	W96
// 029   ----------------------------------------
	BYTE	W96
// 030   ----------------------------------------
	BYTE	W96
// 031   ----------------------------------------
	BYTE	W96
// 032   ----------------------------------------
	BYTE		N12     As2 
	BYTE		N12     Dn3 
	BYTE	W12
	BYTE		        As2   v036
	BYTE		N12     Dn3 
	BYTE	W48
	BYTE		        As2   v064
	BYTE		N12     Dn3 
	BYTE	W12
	BYTE		        As2   v036
	BYTE		N12     Dn3 
	BYTE	W24
// 033   ----------------------------------------
	BYTE		        Cn3   v064
	BYTE		N12     En3 
	BYTE	W12
	BYTE		        Cn3   v036
	BYTE		N12     En3 
	BYTE	W48
	BYTE		        Cn3   v064
	BYTE		N12     En3 
	BYTE	W12
	BYTE		        Cn3   v036
	BYTE		N12     En3 
	BYTE	W24
// 034   ----------------------------------------
	BYTE		        Dn3   v064
	BYTE		N12     Fn3 
	BYTE	W12
	BYTE		        Dn3   v036
	BYTE		N12     Fn3 
	BYTE	W48
	BYTE		        Dn3   v064
	BYTE		N12     Fn3 
	BYTE	W12
	BYTE		        Dn3   v036
	BYTE		N12     Fn3 
	BYTE	W24
// 035   ----------------------------------------
	BYTE		        Ds3   v064
	BYTE		N12     Gn3 
	BYTE	W12
	BYTE		        Ds3   v036
	BYTE		N12     Gn3 
	BYTE	W24
	BYTE		N48     Fs3   v064
	BYTE		N48     An3 
	BYTE	W48
	BYTE		N12     Fs3   v036
	BYTE		N12     An3 
	BYTE	W12
	BYTE	GoTo
	 POIN2	StrongerMonsters_3_B1
StrongerMonsters_3_B2:
// 036   ----------------------------------------
	BYTE	FINE

//**************** Track 4 (Midi-Chn.4) ****************//

StrongerMonsters_4:
	BYTE	KEYSH   StrongerMonsters_key+0
// 000   ----------------------------------------
	BYTE		VOICE   57
	BYTE		VOL     57*StrongerMonsters_mvl/mxv
	BYTE	W96
// 001   ----------------------------------------
	BYTE	W96
// 002   ----------------------------------------
	BYTE	W96
// 003   ----------------------------------------
	BYTE	W96
StrongerMonsters_4_B1:
// 004   ----------------------------------------
StrongerMonsters_4_004:
	BYTE	W12
	BYTE		N36     Gn3   v036
	BYTE	W36
	BYTE		        As3 
	BYTE	W36
	BYTE		N24     Dn4 
	BYTE	W12
	BYTE	PEND
// 005   ----------------------------------------
StrongerMonsters_4_005:
	BYTE	W12
	BYTE		N36     Cs4   v036
	BYTE	W36
	BYTE		        An3 
	BYTE	W36
	BYTE		N24     Cs4 
	BYTE	W12
	BYTE	PEND
// 006   ----------------------------------------
	BYTE	W12
	BYTE		N36     Cn4 
	BYTE	W36
	BYTE		        Gs3 
	BYTE	W36
	BYTE		N24     Cn4 
	BYTE	W12
// 007   ----------------------------------------
	BYTE	W12
	BYTE		N36     As3 
	BYTE	W36
	BYTE		N48     Gn3 
	BYTE	W48
// 008   ----------------------------------------
	BYTE	PATT
	 POIN2	StrongerMonsters_4_004
// 009   ----------------------------------------
	BYTE	PATT
	 POIN2	StrongerMonsters_4_005
// 010   ----------------------------------------
	BYTE	W12
	BYTE		N36     Cn4   v036
	BYTE	W36
	BYTE		        Dn4 
	BYTE	W36
	BYTE		N24     Ds4 
	BYTE	W12
// 011   ----------------------------------------
	BYTE	W12
	BYTE		N12     Dn4 
	BYTE	W12
	BYTE		N24     As3 
	BYTE	W24
	BYTE		N48     Gn3 
	BYTE	W48
// 012   ----------------------------------------
	BYTE	W12
	BYTE		N36     Fn3 
	BYTE	W36
	BYTE		        Gn3 
	BYTE	W36
	BYTE		N24     Gs3 
	BYTE	W12
// 013   ----------------------------------------
	BYTE	W12
	BYTE		N36     As3 
	BYTE	W36
	BYTE		        Gs3 
	BYTE	W36
	BYTE		N24     Gn3 
	BYTE	W12
// 014   ----------------------------------------
	BYTE	W12
	BYTE		N36     Fn3 
	BYTE	W36
	BYTE		        Gn3 
	BYTE	W36
	BYTE		N24     Fn3 
	BYTE	W12
// 015   ----------------------------------------
	BYTE	W12
	BYTE		N36     Ds3 
	BYTE	W36
	BYTE		        Dn3 
	BYTE	W36
	BYTE		N24     Cn3 
	BYTE	W12
// 016   ----------------------------------------
	BYTE	W12
	BYTE		N96     Bn2 
	BYTE	W84
// 017   ----------------------------------------
	BYTE	W12
	BYTE		        Cn3 
	BYTE	W84
// 018   ----------------------------------------
	BYTE	W12
	BYTE		        Cs3 
	BYTE	W84
// 019   ----------------------------------------
	BYTE	W12
	BYTE		        Dn3 
	BYTE	W84
// 020   ----------------------------------------
	BYTE	W12
	BYTE		N36     Ds3 
	BYTE	W36
	BYTE		N24     Gn3 
	BYTE	W24
	BYTE		        As3 
	BYTE	W24
// 021   ----------------------------------------
	BYTE		N12     Gn3 
	BYTE	W24
	BYTE		        An3 
	BYTE	W24
	BYTE		        Fn3 
	BYTE	W12
	BYTE		N36     Gn3 
	BYTE	W36
// 022   ----------------------------------------
	BYTE		N24     Fn3 
	BYTE	W24
	BYTE		        Gn3 
	BYTE	W24
	BYTE		N12     Dn3 
	BYTE	W24
	BYTE		        Ds3 
	BYTE	W24
// 023   ----------------------------------------
	BYTE		        Fn3 
	BYTE	W12
	BYTE		N36     Ds3 
	BYTE	W36
	BYTE		N24     Gn3 
	BYTE	W24
	BYTE		        As3 
	BYTE	W24
// 024   ----------------------------------------
	BYTE		N12     Gn3 
	BYTE	W24
	BYTE		        An3 
	BYTE	W24
	BYTE		        Cn4 
	BYTE	W12
	BYTE		N36     As3 
	BYTE	W36
// 025   ----------------------------------------
	BYTE		N24     Gn3 
	BYTE	W24
	BYTE		        An3 
	BYTE	W24
	BYTE		N12     Fn3 
	BYTE	W24
	BYTE		        Ds3 
	BYTE	W24
// 026   ----------------------------------------
	BYTE		        Fn3 
	BYTE	W96
// 027   ----------------------------------------
	BYTE	W96
// 028   ----------------------------------------
	BYTE	W96
// 029   ----------------------------------------
	BYTE	W96
// 030   ----------------------------------------
	BYTE	W96
// 031   ----------------------------------------
	BYTE	W96
// 032   ----------------------------------------
	BYTE	W96
// 033   ----------------------------------------
	BYTE	W96
// 034   ----------------------------------------
	BYTE	W96
// 035   ----------------------------------------
	BYTE	W96
	BYTE	GoTo
	 POIN2	StrongerMonsters_4_B1
StrongerMonsters_4_B2:
// 036   ----------------------------------------
	BYTE	FINE

//**************** Track 5 (Midi-Chn.5) ****************//

StrongerMonsters_5:
	BYTE	KEYSH   StrongerMonsters_key+0
// 000   ----------------------------------------
	BYTE		VOICE   61
	BYTE		VOL     45*StrongerMonsters_mvl/mxv
	BYTE		PAN     c_v+24
	BYTE	W96
// 001   ----------------------------------------
	BYTE	W96
// 002   ----------------------------------------
	BYTE	W96
// 003   ----------------------------------------
	BYTE	W96
StrongerMonsters_5_B1:
// 004   ----------------------------------------
StrongerMonsters_5_004:
	BYTE		N12     As3   v064
	BYTE		N12     Dn4 
	BYTE	W12
	BYTE		        As3   v036
	BYTE		N12     Dn4 
	BYTE	W48
	BYTE		        As3   v064
	BYTE		N12     Dn4 
	BYTE	W12
	BYTE		        As3   v036
	BYTE		N12     Dn4 
	BYTE	W24
	BYTE	PEND
// 005   ----------------------------------------
StrongerMonsters_5_005:
	BYTE		N12     An3   v064
	BYTE		N12     Cs4 
	BYTE	W12
	BYTE		        An3   v036
	BYTE		N12     Cs4 
	BYTE	W48
	BYTE		        An3   v064
	BYTE		N12     Cs4 
	BYTE	W12
	BYTE		        An3   v036
	BYTE		N12     Cs4 
	BYTE	W24
	BYTE	PEND
// 006   ----------------------------------------
StrongerMonsters_5_006:
	BYTE		N12     Gs3   v064
	BYTE		N12     Cn4 
	BYTE	W12
	BYTE		        Gs3   v036
	BYTE		N12     Cn4 
	BYTE	W48
	BYTE		        Gs3   v064
	BYTE		N12     Cn4 
	BYTE	W12
	BYTE		        Gs3   v036
	BYTE		N12     Cn4 
	BYTE	W24
	BYTE	PEND
// 007   ----------------------------------------
StrongerMonsters_5_007:
	BYTE		N12     Gn3   v064
	BYTE		N12     As3 
	BYTE	W12
	BYTE		        Gn3   v036
	BYTE		N12     As3 
	BYTE	W24
	BYTE		        Gn3   v064
	BYTE	W12
	BYTE		        Gn3   v036
	BYTE	W12
	BYTE		        Dn3   v064
	BYTE	W12
	BYTE		        Dn3   v036
	BYTE		N12     Fn3   v064
	BYTE	W12
	BYTE		        Fn3   v036
	BYTE		N12     Gn3   v064
	BYTE	W12
	BYTE	PEND
// 008   ----------------------------------------
	BYTE	PATT
	 POIN2	StrongerMonsters_5_004
// 009   ----------------------------------------
	BYTE	PATT
	 POIN2	StrongerMonsters_5_005
// 010   ----------------------------------------
	BYTE	PATT
	 POIN2	StrongerMonsters_5_006
// 011   ----------------------------------------
	BYTE	PATT
	 POIN2	StrongerMonsters_5_007
// 012   ----------------------------------------
	BYTE		N12     Fn3   v064
	BYTE		N12     Cn4 
	BYTE	W12
	BYTE		        Fn3   v036
	BYTE		N12     Cn4 
	BYTE	W48
	BYTE		        Fn3   v064
	BYTE		N12     Cn4 
	BYTE	W12
	BYTE		        Fn3   v036
	BYTE		N12     Cn4 
	BYTE	W24
// 013   ----------------------------------------
	BYTE		        Gn3   v064
	BYTE		N12     Dn4 
	BYTE	W12
	BYTE		        Gn3   v036
	BYTE		N12     Dn4 
	BYTE	W48
	BYTE		        Gn3   v064
	BYTE		N12     Dn4 
	BYTE	W12
	BYTE		        Gn3   v036
	BYTE		N12     Dn4 
	BYTE	W24
// 014   ----------------------------------------
	BYTE		        Gs3   v064
	BYTE		N12     Ds4 
	BYTE	W12
	BYTE		        Gs3   v036
	BYTE		N12     Ds4 
	BYTE	W48
	BYTE		        Gs3   v064
	BYTE		N12     Ds4 
	BYTE	W12
	BYTE		        Gs3   v036
	BYTE		N12     Ds4 
	BYTE	W24
// 015   ----------------------------------------
	BYTE		        Gn3   v064
	BYTE		N12     Cn4 
	BYTE	W12
	BYTE		        Gn3   v036
	BYTE		N12     Cn4 
	BYTE	W48
	BYTE		        Gn3   v064
	BYTE		N12     Cn4 
	BYTE	W12
	BYTE		        Gn3   v036
	BYTE		N12     Cn4 
	BYTE	W24
// 016   ----------------------------------------
	BYTE	W96
// 017   ----------------------------------------
	BYTE	W96
// 018   ----------------------------------------
	BYTE	W96
// 019   ----------------------------------------
	BYTE	W96
// 020   ----------------------------------------
	BYTE	W96
// 021   ----------------------------------------
	BYTE	W96
// 022   ----------------------------------------
	BYTE	W96
// 023   ----------------------------------------
	BYTE	W96
// 024   ----------------------------------------
	BYTE	W96
// 025   ----------------------------------------
	BYTE	W96
// 026   ----------------------------------------
	BYTE	W96
// 027   ----------------------------------------
	BYTE	W96
// 028   ----------------------------------------
	BYTE	W96
// 029   ----------------------------------------
	BYTE	W96
// 030   ----------------------------------------
	BYTE	W96
// 031   ----------------------------------------
	BYTE	W96
// 032   ----------------------------------------
	BYTE		        As2   v064
	BYTE		N12     Dn3 
	BYTE	W12
	BYTE		        As2   v036
	BYTE		N12     Dn3 
	BYTE	W48
	BYTE		        As2   v064
	BYTE		N12     Dn3 
	BYTE	W12
	BYTE		        As2   v036
	BYTE		N12     Dn3 
	BYTE	W24
// 033   ----------------------------------------
	BYTE		        Cn3   v064
	BYTE		N12     En3 
	BYTE	W12
	BYTE		        Cn3   v036
	BYTE		N12     En3 
	BYTE	W48
	BYTE		        Cn3   v064
	BYTE		N12     En3 
	BYTE	W12
	BYTE		        Cn3   v036
	BYTE		N12     En3 
	BYTE	W24
// 034   ----------------------------------------
	BYTE		        Dn3   v064
	BYTE		N12     Fn3 
	BYTE	W12
	BYTE		        Dn3   v036
	BYTE		N12     Fn3 
	BYTE	W48
	BYTE		        Dn3   v064
	BYTE		N12     Fn3 
	BYTE	W12
	BYTE		        Dn3   v036
	BYTE		N12     Fn3 
	BYTE	W24
// 035   ----------------------------------------
	BYTE		        Ds3   v064
	BYTE		N12     Gn3 
	BYTE	W12
	BYTE		        Ds3   v036
	BYTE		N12     Gn3 
	BYTE	W24
	BYTE		N48     Fs3   v064
	BYTE		N48     An3 
	BYTE	W48
	BYTE		N12     Fs3   v036
	BYTE		N12     An3 
	BYTE	W12
	BYTE	GoTo
	 POIN2	StrongerMonsters_5_B1
StrongerMonsters_5_B2:
// 036   ----------------------------------------
	BYTE	FINE

//**************** Track 6 (Midi-Chn.6) ****************//

StrongerMonsters_6:
	BYTE	KEYSH   StrongerMonsters_key+0
// 000   ----------------------------------------
	BYTE		VOICE   31
	BYTE		VOL     51*StrongerMonsters_mvl/mxv
	BYTE	W96
// 001   ----------------------------------------
	BYTE	W96
// 002   ----------------------------------------
	BYTE	W96
// 003   ----------------------------------------
	BYTE	W96
StrongerMonsters_6_B1:
// 004   ----------------------------------------
	BYTE	W96
// 005   ----------------------------------------
	BYTE	W96
// 006   ----------------------------------------
	BYTE	W96
// 007   ----------------------------------------
	BYTE	W96
// 008   ----------------------------------------
	BYTE	W96
// 009   ----------------------------------------
	BYTE	W96
// 010   ----------------------------------------
	BYTE	W96
// 011   ----------------------------------------
	BYTE	W96
// 012   ----------------------------------------
	BYTE	W96
// 013   ----------------------------------------
	BYTE	W96
// 014   ----------------------------------------
	BYTE	W96
// 015   ----------------------------------------
	BYTE	W96
// 016   ----------------------------------------
	BYTE	W96
// 017   ----------------------------------------
	BYTE	W96
// 018   ----------------------------------------
	BYTE	W96
// 019   ----------------------------------------
	BYTE	W96
// 020   ----------------------------------------
	BYTE	W96
// 021   ----------------------------------------
	BYTE	W96
// 022   ----------------------------------------
	BYTE	W96
// 023   ----------------------------------------
	BYTE	W96
// 024   ----------------------------------------
	BYTE	W96
// 025   ----------------------------------------
	BYTE	W96
// 026   ----------------------------------------
	BYTE	W96
// 027   ----------------------------------------
	BYTE	W96
// 028   ----------------------------------------
	BYTE	W96
// 029   ----------------------------------------
	BYTE	W96
// 030   ----------------------------------------
	BYTE	W96
// 031   ----------------------------------------
	BYTE	W60
	BYTE		N48     En1   v064
	BYTE		N48     En2 
	BYTE	W36
// 032   ----------------------------------------
	BYTE	W96
// 033   ----------------------------------------
	BYTE	W96
// 034   ----------------------------------------
	BYTE	W96
// 035   ----------------------------------------
	BYTE	W96
	BYTE	GoTo
	 POIN2	StrongerMonsters_6_B1
StrongerMonsters_6_B2:
// 036   ----------------------------------------
	BYTE	FINE

//**************** Track 7 (Midi-Chn.7) ****************//

StrongerMonsters_7:
	BYTE	KEYSH   StrongerMonsters_key+0
// 000   ----------------------------------------
	BYTE		VOICE   30
	BYTE		VOL     57*StrongerMonsters_mvl/mxv
	BYTE		PAN     c_v+24
	BYTE	W96
// 001   ----------------------------------------
	BYTE	W96
// 002   ----------------------------------------
	BYTE	W96
// 003   ----------------------------------------
	BYTE	W96
StrongerMonsters_7_B1:
// 004   ----------------------------------------
	BYTE	W96
// 005   ----------------------------------------
	BYTE	W96
// 006   ----------------------------------------
	BYTE	W96
// 007   ----------------------------------------
	BYTE	W96
// 008   ----------------------------------------
	BYTE	W96
// 009   ----------------------------------------
	BYTE	W96
// 010   ----------------------------------------
	BYTE	W96
// 011   ----------------------------------------
	BYTE	W96
// 012   ----------------------------------------
	BYTE	W96
// 013   ----------------------------------------
	BYTE	W96
// 014   ----------------------------------------
	BYTE	W96
// 015   ----------------------------------------
	BYTE	W96
// 016   ----------------------------------------
	BYTE	W96
// 017   ----------------------------------------
	BYTE	W96
// 018   ----------------------------------------
	BYTE	W96
// 019   ----------------------------------------
	BYTE	W96
// 020   ----------------------------------------
StrongerMonsters_7_020:
	BYTE		N24     Ds2   v064
	BYTE	W24
	BYTE		N06   
	BYTE	W12
	BYTE		N24   
	BYTE	W24
	BYTE		N06   
	BYTE	W12
	BYTE		N24   
	BYTE	W24
	BYTE	PEND
// 021   ----------------------------------------
StrongerMonsters_7_021:
	BYTE		N12     Fn2   v064
	BYTE	W24
	BYTE		N12   
	BYTE	W24
	BYTE		N24     Ds2 
	BYTE	W24
	BYTE		N06   
	BYTE	W12
	BYTE		N24   
	BYTE	W12
	BYTE	PEND
// 022   ----------------------------------------
StrongerMonsters_7_022:
	BYTE	W12
	BYTE		N06     Ds2   v064
	BYTE	W12
	BYTE		N24   
	BYTE	W24
	BYTE		N12     Cn2 
	BYTE	W24
	BYTE		        Dn2 
	BYTE	W24
	BYTE	PEND
// 023   ----------------------------------------
	BYTE	PATT
	 POIN2	StrongerMonsters_7_020
// 024   ----------------------------------------
	BYTE	PATT
	 POIN2	StrongerMonsters_7_021
// 025   ----------------------------------------
	BYTE	PATT
	 POIN2	StrongerMonsters_7_022
// 026   ----------------------------------------
StrongerMonsters_7_026:
	BYTE		N09     Dn2   v064
	BYTE	W12
	BYTE		N09   
	BYTE	W12
	BYTE		N09   
	BYTE	W12
	BYTE		N09   
	BYTE	W12
	BYTE		N09   
	BYTE	W12
	BYTE		N09   
	BYTE	W12
	BYTE		N09   
	BYTE	W12
	BYTE		N09   
	BYTE	W12
	BYTE	PEND
// 027   ----------------------------------------
	BYTE	PATT
	 POIN2	StrongerMonsters_7_026
// 028   ----------------------------------------
	BYTE	W96
// 029   ----------------------------------------
	BYTE	W96
// 030   ----------------------------------------
	BYTE	W96
// 031   ----------------------------------------
	BYTE	W96
// 032   ----------------------------------------
	BYTE		N09     Gn1   v064
	BYTE	W12
	BYTE		N09   
	BYTE	W12
	BYTE		N09   
	BYTE	W12
	BYTE		N09   
	BYTE	W12
	BYTE		N09   
	BYTE	W12
	BYTE		N09   
	BYTE	W12
	BYTE		N09   
	BYTE	W12
	BYTE		N09   
	BYTE	W12
// 033   ----------------------------------------
	BYTE		        An1 
	BYTE	W12
	BYTE		N09   
	BYTE	W12
	BYTE		N09   
	BYTE	W12
	BYTE		N09   
	BYTE	W12
	BYTE		N09   
	BYTE	W12
	BYTE		N09   
	BYTE	W12
	BYTE		N09   
	BYTE	W12
	BYTE		N09   
	BYTE	W12
// 034   ----------------------------------------
	BYTE		        As1 
	BYTE	W12
	BYTE		N09   
	BYTE	W12
	BYTE		N09   
	BYTE	W12
	BYTE		N09   
	BYTE	W12
	BYTE		N09   
	BYTE	W12
	BYTE		N09   
	BYTE	W12
	BYTE		N09   
	BYTE	W12
	BYTE		N09   
	BYTE	W12
// 035   ----------------------------------------
	BYTE		        Cn2 
	BYTE	W12
	BYTE		N09   
	BYTE	W12
	BYTE		N09   
	BYTE	W12
	BYTE		N09   
	BYTE	W12
	BYTE		N09   
	BYTE	W12
	BYTE		N09   
	BYTE	W12
	BYTE		N09   
	BYTE	W12
	BYTE		N09   
	BYTE	W12
	BYTE	GoTo
	 POIN2	StrongerMonsters_7_B1
StrongerMonsters_7_B2:
// 036   ----------------------------------------
	BYTE	FINE

//**************** Track 8 (Midi-Chn.8) ****************//

StrongerMonsters_8:
	BYTE	KEYSH   StrongerMonsters_key+0
// 000   ----------------------------------------
	BYTE		VOICE   34
	BYTE		VOL     57*StrongerMonsters_mvl/mxv
	BYTE		PAN     c_v-13
	BYTE		N09     Gn1   v064
	BYTE	W12
	BYTE		N09   
	BYTE	W12
	BYTE		N09   
	BYTE	W12
	BYTE		N09   
	BYTE	W12
	BYTE		N09   
	BYTE	W12
	BYTE		N09   
	BYTE	W12
	BYTE		N09   
	BYTE	W12
	BYTE		N09   
	BYTE	W12
// 001   ----------------------------------------
StrongerMonsters_8_001:
	BYTE		N09     An1   v064
	BYTE	W12
	BYTE		N09   
	BYTE	W12
	BYTE		N09   
	BYTE	W12
	BYTE		N09   
	BYTE	W12
	BYTE		N09   
	BYTE	W12
	BYTE		N09   
	BYTE	W12
	BYTE		N09   
	BYTE	W12
	BYTE		N09   
	BYTE	W12
	BYTE	PEND
// 002   ----------------------------------------
StrongerMonsters_8_002:
	BYTE		N09     As1   v064
	BYTE	W12
	BYTE		N09   
	BYTE	W12
	BYTE		N09   
	BYTE	W12
	BYTE		N09   
	BYTE	W12
	BYTE		N09   
	BYTE	W12
	BYTE		N09   
	BYTE	W12
	BYTE		N09   
	BYTE	W12
	BYTE		N09   
	BYTE	W12
	BYTE	PEND
// 003   ----------------------------------------
	BYTE		        Cn2 
	BYTE	W12
	BYTE		N09   
	BYTE	W12
	BYTE		N09   
	BYTE	W12
	BYTE		N09   
	BYTE	W12
	BYTE		N09   
	BYTE	W12
	BYTE		N09   
	BYTE	W12
	BYTE		N09   
	BYTE	W12
	BYTE		N09   
	BYTE	W12
StrongerMonsters_8_B1:
// 004   ----------------------------------------
StrongerMonsters_8_004:
	BYTE		N09     Gn1   v064
	BYTE	W12
	BYTE		N09   
	BYTE	W12
	BYTE		N09   
	BYTE	W12
	BYTE		N09   
	BYTE	W12
	BYTE		N09   
	BYTE	W12
	BYTE		N09   
	BYTE	W12
	BYTE		N09   
	BYTE	W12
	BYTE		N09   
	BYTE	W12
	BYTE	PEND
// 005   ----------------------------------------
	BYTE	PATT
	 POIN2	StrongerMonsters_8_004
// 006   ----------------------------------------
	BYTE	PATT
	 POIN2	StrongerMonsters_8_004
// 007   ----------------------------------------
	BYTE	PATT
	 POIN2	StrongerMonsters_8_004
// 008   ----------------------------------------
	BYTE	PATT
	 POIN2	StrongerMonsters_8_004
// 009   ----------------------------------------
	BYTE	PATT
	 POIN2	StrongerMonsters_8_004
// 010   ----------------------------------------
	BYTE	PATT
	 POIN2	StrongerMonsters_8_004
// 011   ----------------------------------------
	BYTE	PATT
	 POIN2	StrongerMonsters_8_004
// 012   ----------------------------------------
StrongerMonsters_8_012:
	BYTE		N09     Fn1   v064
	BYTE	W12
	BYTE		N09   
	BYTE	W12
	BYTE		N09   
	BYTE	W12
	BYTE		N09   
	BYTE	W12
	BYTE		N09   
	BYTE	W12
	BYTE		N09   
	BYTE	W12
	BYTE		N09   
	BYTE	W12
	BYTE		N09   
	BYTE	W12
	BYTE	PEND
// 013   ----------------------------------------
	BYTE	PATT
	 POIN2	StrongerMonsters_8_012
// 014   ----------------------------------------
	BYTE	PATT
	 POIN2	StrongerMonsters_8_012
// 015   ----------------------------------------
	BYTE	PATT
	 POIN2	StrongerMonsters_8_012
// 016   ----------------------------------------
	BYTE	PATT
	 POIN2	StrongerMonsters_8_004
// 017   ----------------------------------------
	BYTE	PATT
	 POIN2	StrongerMonsters_8_004
// 018   ----------------------------------------
	BYTE	PATT
	 POIN2	StrongerMonsters_8_004
// 019   ----------------------------------------
StrongerMonsters_8_019:
	BYTE		N09     Dn2   v064
	BYTE	W12
	BYTE		N09   
	BYTE	W12
	BYTE		N09   
	BYTE	W12
	BYTE		N09   
	BYTE	W12
	BYTE		N09   
	BYTE	W12
	BYTE		N09   
	BYTE	W12
	BYTE		N09   
	BYTE	W12
	BYTE		N09   
	BYTE	W12
	BYTE	PEND
// 020   ----------------------------------------
StrongerMonsters_8_020:
	BYTE		N12     Ds2   v064
	BYTE	W12
	BYTE		N06   
	BYTE	W12
	BYTE		N06   
	BYTE	W12
	BYTE		N12   
	BYTE	W12
	BYTE		N06   
	BYTE	W12
	BYTE		N06   
	BYTE	W12
	BYTE		N12   
	BYTE	W24
	BYTE	PEND
// 021   ----------------------------------------
StrongerMonsters_8_021:
	BYTE		N12     Fn2   v064
	BYTE	W24
	BYTE		N12   
	BYTE	W24
	BYTE		        Ds2 
	BYTE	W12
	BYTE		N06   
	BYTE	W12
	BYTE		N06   
	BYTE	W12
	BYTE		N12   
	BYTE	W12
	BYTE	PEND
// 022   ----------------------------------------
StrongerMonsters_8_022:
	BYTE		N06     Ds2   v064
	BYTE	W12
	BYTE		N06   
	BYTE	W12
	BYTE		N12   
	BYTE	W24
	BYTE		        Cn2 
	BYTE	W24
	BYTE		        Dn2 
	BYTE	W24
	BYTE	PEND
// 023   ----------------------------------------
	BYTE	PATT
	 POIN2	StrongerMonsters_8_020
// 024   ----------------------------------------
	BYTE	PATT
	 POIN2	StrongerMonsters_8_021
// 025   ----------------------------------------
	BYTE	PATT
	 POIN2	StrongerMonsters_8_022
// 026   ----------------------------------------
	BYTE	PATT
	 POIN2	StrongerMonsters_8_019
// 027   ----------------------------------------
	BYTE		N09     Dn2   v064
	BYTE	W12
	BYTE		        An1 
	BYTE	W12
	BYTE		        Dn2 
	BYTE	W12
	BYTE		        An1 
	BYTE	W12
	BYTE		        Dn2 
	BYTE	W12
	BYTE		        An1 
	BYTE	W12
	BYTE		        Dn2 
	BYTE	W12
	BYTE		        An1 
	BYTE	W12
// 028   ----------------------------------------
	BYTE	PATT
	 POIN2	StrongerMonsters_8_004
// 029   ----------------------------------------
	BYTE	PATT
	 POIN2	StrongerMonsters_8_001
// 030   ----------------------------------------
	BYTE	PATT
	 POIN2	StrongerMonsters_8_002
// 031   ----------------------------------------
	BYTE		N09     Cn2   v064
	BYTE	W12
	BYTE		N09   
	BYTE	W12
	BYTE		N09   
	BYTE	W12
	BYTE		N09   
	BYTE	W12
	BYTE		N09   
	BYTE	W12
	BYTE		N09   
	BYTE	W12
	BYTE		        As1 
	BYTE	W12
	BYTE		        An1 
	BYTE	W12
// 032   ----------------------------------------
	BYTE	PATT
	 POIN2	StrongerMonsters_8_004
// 033   ----------------------------------------
	BYTE	PATT
	 POIN2	StrongerMonsters_8_001
// 034   ----------------------------------------
	BYTE	PATT
	 POIN2	StrongerMonsters_8_002
// 035   ----------------------------------------
	BYTE		N09     Cn2   v064
	BYTE	W12
	BYTE		N09   
	BYTE	W12
	BYTE		N09   
	BYTE	W12
	BYTE		        Dn2 
	BYTE	W12
	BYTE		N09   
	BYTE	W12
	BYTE		N09   
	BYTE	W12
	BYTE		        An1 
	BYTE	W12
	BYTE		        Gs1 
	BYTE	W12
	BYTE	GoTo
	 POIN2	StrongerMonsters_8_B1
StrongerMonsters_8_B2:
// 036   ----------------------------------------
	BYTE	FINE

//**************** Track 9 (Midi-Chn.9) ****************//

StrongerMonsters_9:
	BYTE	KEYSH   StrongerMonsters_key+0
// 000   ----------------------------------------
	BYTE		VOICE   124
	BYTE		VOL     57*StrongerMonsters_mvl/mxv
	BYTE		N12     Cn1   v080
	BYTE		N96     Cs2   v064
	BYTE		N96     Gn2 
	BYTE		N96     An2 
	BYTE	W12
	BYTE		N12     Dn1   v080
	BYTE	W12
	BYTE		        Cn1 
	BYTE		N12     As1   v064
	BYTE	W12
	BYTE		        Dn1   v080
	BYTE	W12
	BYTE		        Cn1 
	BYTE		N12     As1   v064
	BYTE	W12
	BYTE		        Dn1   v080
	BYTE	W12
	BYTE		        Cn1 
	BYTE		N12     As1   v064
	BYTE	W12
	BYTE		        Dn1   v080
	BYTE	W12
// 001   ----------------------------------------
StrongerMonsters_9_001:
	BYTE		N12     Cn1   v080
	BYTE		N12     As1   v064
	BYTE	W12
	BYTE		        Dn1   v080
	BYTE	W12
	BYTE		        Cn1 
	BYTE		N12     As1   v064
	BYTE	W12
	BYTE		        Dn1   v080
	BYTE	W12
	BYTE		        Cn1 
	BYTE		N12     As1   v064
	BYTE	W12
	BYTE		        Dn1   v080
	BYTE	W12
	BYTE		        Cn1 
	BYTE		N12     As1   v064
	BYTE	W12
	BYTE		        Dn1   v080
	BYTE	W12
	BYTE	PEND
// 002   ----------------------------------------
	BYTE	PATT
	 POIN2	StrongerMonsters_9_001
// 003   ----------------------------------------
StrongerMonsters_9_003:
	BYTE		N12     Cn1   v080
	BYTE		N12     As1   v064
	BYTE	W12
	BYTE		        Dn1   v080
	BYTE	W12
	BYTE		        Cn1 
	BYTE		N12     As1   v064
	BYTE	W12
	BYTE		        Dn1   v080
	BYTE	W12
	BYTE		N06     Cn1 
	BYTE	W06
	BYTE		        Dn2   v064
	BYTE	W06
	BYTE		N06   
	BYTE	W06
	BYTE		N06   
	BYTE	W06
	BYTE		        Cn2 
	BYTE	W06
	BYTE		N06   
	BYTE	W06
	BYTE		        Gn1 
	BYTE	W06
	BYTE		N06   
	BYTE	W06
	BYTE	PEND
StrongerMonsters_9_B1:
// 004   ----------------------------------------
StrongerMonsters_9_004:
	BYTE		N12     Cn1   v080
	BYTE		N96     Cs2   v064
	BYTE		N96     Gn2 
	BYTE		N96     An2 
	BYTE	W24
	BYTE		N12     Dn1   v080
	BYTE	W24
	BYTE		        Cn1 
	BYTE		N06     Gs1   v072
	BYTE	W12
	BYTE		N12     Cn1   v080
	BYTE		N06     Gs1   v072
	BYTE	W12
	BYTE		N12     Dn1   v080
	BYTE		N06     Gs1   v072
	BYTE	W12
	BYTE		N06   
	BYTE	W12
	BYTE	PEND
// 005   ----------------------------------------
StrongerMonsters_9_005:
	BYTE		N12     Cn1   v080
	BYTE		N06     Gs1   v072
	BYTE	W12
	BYTE		N06   
	BYTE	W12
	BYTE		N12     Dn1   v080
	BYTE		N06     Gs1   v072
	BYTE	W12
	BYTE		N06   
	BYTE	W12
	BYTE		N06   
	BYTE	W12
	BYTE		N12     Dn1   v080
	BYTE		N06     Gs1   v072
	BYTE	W12
	BYTE		N06   
	BYTE	W12
	BYTE		N06   
	BYTE	W12
	BYTE	PEND
// 006   ----------------------------------------
StrongerMonsters_9_006:
	BYTE		N12     Cn1   v080
	BYTE		N06     Gs1   v072
	BYTE	W12
	BYTE		N06   
	BYTE	W12
	BYTE		N12     Dn1   v080
	BYTE		N06     Gs1   v072
	BYTE	W12
	BYTE		N06   
	BYTE	W12
	BYTE		N12     Cn1   v080
	BYTE		N06     Gs1   v072
	BYTE	W12
	BYTE		N12     Cn1   v080
	BYTE		N06     Gs1   v072
	BYTE	W12
	BYTE		N12     Dn1   v080
	BYTE		N06     Gs1   v072
	BYTE	W12
	BYTE		N06   
	BYTE	W12
	BYTE	PEND
// 007   ----------------------------------------
StrongerMonsters_9_007:
	BYTE		N12     Cn1   v080
	BYTE		N06     Gs1   v072
	BYTE	W12
	BYTE		N06   
	BYTE	W12
	BYTE		N12     Dn1   v080
	BYTE		N06     Gs1   v072
	BYTE	W12
	BYTE		N06   
	BYTE	W12
	BYTE		        Cn1   v080
	BYTE	W06
	BYTE		        Dn1 
	BYTE	W06
	BYTE		N06   
	BYTE	W06
	BYTE		N06   
	BYTE	W06
	BYTE		N06   
	BYTE	W06
	BYTE		N06   
	BYTE	W06
	BYTE		N06   
	BYTE	W06
	BYTE		N06   
	BYTE	W06
	BYTE	PEND
// 008   ----------------------------------------
	BYTE	PATT
	 POIN2	StrongerMonsters_9_004
// 009   ----------------------------------------
	BYTE	PATT
	 POIN2	StrongerMonsters_9_005
// 010   ----------------------------------------
	BYTE	PATT
	 POIN2	StrongerMonsters_9_006
// 011   ----------------------------------------
	BYTE	PATT
	 POIN2	StrongerMonsters_9_007
// 012   ----------------------------------------
	BYTE	PATT
	 POIN2	StrongerMonsters_9_004
// 013   ----------------------------------------
	BYTE	PATT
	 POIN2	StrongerMonsters_9_005
// 014   ----------------------------------------
	BYTE	PATT
	 POIN2	StrongerMonsters_9_006
// 015   ----------------------------------------
	BYTE	PATT
	 POIN2	StrongerMonsters_9_007
// 016   ----------------------------------------
StrongerMonsters_9_016:
	BYTE		N12     Cn1   v080
	BYTE		N96     Cs2   v064
	BYTE		N96     Gn2 
	BYTE		N96     An2 
	BYTE	W12
	BYTE		N12     Cn1   v080
	BYTE	W12
	BYTE		        Dn1 
	BYTE	W12
	BYTE		        Cn1 
	BYTE	W24
	BYTE		N12   
	BYTE	W12
	BYTE		        Dn1 
	BYTE	W24
	BYTE	PEND
// 017   ----------------------------------------
	BYTE	PATT
	 POIN2	StrongerMonsters_9_016
// 018   ----------------------------------------
	BYTE	PATT
	 POIN2	StrongerMonsters_9_016
// 019   ----------------------------------------
	BYTE		N12     Cn1   v080
	BYTE		N24     Cs2   v064
	BYTE		N96     Gn2 
	BYTE		N96     An2 
	BYTE	W12
	BYTE		N12     Cn1   v080
	BYTE	W12
	BYTE		        Dn1 
	BYTE		N24     Cs2   v064
	BYTE	W12
	BYTE		N12     Cn1   v080
	BYTE	W12
	BYTE		N06   
	BYTE		N24     Cs2   v064
	BYTE	W06
	BYTE		N06     Dn1   v080
	BYTE	W06
	BYTE		N06   
	BYTE	W06
	BYTE		N06   
	BYTE	W06
	BYTE		N06   
	BYTE		N24     Cs2   v064
	BYTE	W06
	BYTE		N06     Dn1   v080
	BYTE	W06
	BYTE		N06   
	BYTE	W06
	BYTE		N06   
	BYTE	W06
// 020   ----------------------------------------
StrongerMonsters_9_020:
	BYTE		N12     Cn1   v080
	BYTE		N06     Gs1   v072
	BYTE	W12
	BYTE		N06   
	BYTE	W12
	BYTE		N12     Cn1   v080
	BYTE		N06     Gs1   v072
	BYTE	W12
	BYTE		N12     Dn1   v080
	BYTE		N06     Gs1   v072
	BYTE	W12
	BYTE		N06   
	BYTE	W12
	BYTE		N12     Cn1   v080
	BYTE		N06     Gs1   v072
	BYTE	W12
	BYTE		N12     Dn1   v080
	BYTE		N06     Gs1   v072
	BYTE	W12
	BYTE		N06   
	BYTE	W12
	BYTE	PEND
// 021   ----------------------------------------
StrongerMonsters_9_021:
	BYTE		N12     Cn1   v080
	BYTE		N24     Cs2   v064
	BYTE		N24     Gn2 
	BYTE	W24
	BYTE		N12     Cn1   v080
	BYTE		N24     Cs2   v064
	BYTE		N24     Gn2 
	BYTE	W24
	BYTE		N12     Cn1   v080
	BYTE		N06     Gs1   v072
	BYTE	W12
	BYTE		N06   
	BYTE	W12
	BYTE		N12     Cn1   v080
	BYTE		N06     Gs1   v072
	BYTE	W12
	BYTE		N12     Dn1   v080
	BYTE		N06     Gs1   v072
	BYTE	W12
	BYTE	PEND
// 022   ----------------------------------------
StrongerMonsters_9_022:
	BYTE		N06     Gs1   v072
	BYTE	W12
	BYTE		N12     Cn1   v080
	BYTE		N06     Gs1   v072
	BYTE	W12
	BYTE		N12     Dn1   v080
	BYTE		N06     Gs1   v072
	BYTE	W12
	BYTE		N06   
	BYTE	W12
	BYTE		N12     Cn1   v080
	BYTE		N24     Cs2   v064
	BYTE		N24     Gn2 
	BYTE	W24
	BYTE		N12     Cn1   v080
	BYTE		N24     Cs2   v064
	BYTE		N24     Gn2 
	BYTE	W24
	BYTE	PEND
// 023   ----------------------------------------
	BYTE	PATT
	 POIN2	StrongerMonsters_9_020
// 024   ----------------------------------------
	BYTE	PATT
	 POIN2	StrongerMonsters_9_021
// 025   ----------------------------------------
	BYTE	PATT
	 POIN2	StrongerMonsters_9_022
// 026   ----------------------------------------
	BYTE		N12     Cn1   v080
	BYTE		N96     Cs2   v064
	BYTE		N96     Gn2 
	BYTE		N96     An2 
	BYTE	W24
	BYTE		N12     Dn1   v080
	BYTE	W12
	BYTE		        Cn1 
	BYTE	W24
	BYTE		N12   
	BYTE	W12
	BYTE		        Dn1 
	BYTE	W12
	BYTE		        Cn1 
	BYTE	W12
// 027   ----------------------------------------
	BYTE		N12   
	BYTE		N24     Cs2   v064
	BYTE	W24
	BYTE		N12     Cn1   v080
	BYTE		N24     Cs2   v064
	BYTE	W24
	BYTE		N12     Cn1   v080
	BYTE		N24     Cs2   v064
	BYTE		N24     Gn2 
	BYTE	W24
	BYTE		N12     Cn1   v080
	BYTE		N24     Cs2   v064
	BYTE		N24     Gn2 
	BYTE	W24
// 028   ----------------------------------------
	BYTE		N12     Cn1   v080
	BYTE		N96     Cs2   v064
	BYTE		N96     Gn2 
	BYTE		N96     An2 
	BYTE	W12
	BYTE		N12     Dn1   v080
	BYTE	W12
	BYTE		        Cn1 
	BYTE		N12     As1   v064
	BYTE	W12
	BYTE		        Dn1   v080
	BYTE	W12
	BYTE		        Cn1 
	BYTE		N12     As1   v064
	BYTE	W12
	BYTE		        Dn1   v080
	BYTE	W12
	BYTE		        Cn1 
	BYTE		N12     As1   v064
	BYTE	W12
	BYTE		        Dn1   v080
	BYTE	W12
// 029   ----------------------------------------
	BYTE	PATT
	 POIN2	StrongerMonsters_9_001
// 030   ----------------------------------------
	BYTE	PATT
	 POIN2	StrongerMonsters_9_001
// 031   ----------------------------------------
	BYTE	PATT
	 POIN2	StrongerMonsters_9_003
// 032   ----------------------------------------
	BYTE	PATT
	 POIN2	StrongerMonsters_9_004
// 033   ----------------------------------------
	BYTE	PATT
	 POIN2	StrongerMonsters_9_005
// 034   ----------------------------------------
	BYTE	PATT
	 POIN2	StrongerMonsters_9_006
// 035   ----------------------------------------
	BYTE	PATT
	 POIN2	StrongerMonsters_9_007
	BYTE	GoTo
	 POIN2	StrongerMonsters_9_B1
StrongerMonsters_9_B2:
// 036   ----------------------------------------
	BYTE	FINE

//******************************************************//
	ALIGN 4

StrongerMonsters:
	BYTE	9	// NumTrks
	BYTE	0	// NumBlks
	BYTE	StrongerMonsters_pri	// Priority
	BYTE	StrongerMonsters_rev	// Reverb.

	POIN2	StrongerMonsters_grp

	POIN2	StrongerMonsters_1
	POIN2	StrongerMonsters_2
	POIN2	StrongerMonsters_3
	POIN2	StrongerMonsters_4
	POIN2	StrongerMonsters_5
	POIN2	StrongerMonsters_6
	POIN2	StrongerMonsters_7
	POIN2	StrongerMonsters_8
	POIN2	StrongerMonsters_9

	
