//Event file generated from Sappy .s format.
	#include "MPlayDef.event"

	#define	Taisen4_grp  voicegroup000
	#define	Taisen4_pri  0
	#define	Taisen4_rev  0
	#define	Taisen4_mvl  50
	#define	Taisen4_key  0
	#define	Taisen4_tbs  1
	#define	Taisen4_exg  0
	#define	Taisen4_cmp  1

	// .rodata
	//	Taisen4
	ALIGN 4

//**************** Track 1 (Midi-Chn.1) ****************//

Taisen4_1:
	BYTE	KEYSH   Taisen4_key+0
Taisen4_1_B1:
// 000   ----------------------------------------
	BYTE	TEMPO   180*Taisen4_tbs/2
	BYTE		VOICE   30
	BYTE		VOL     31*Taisen4_mvl/mxv
	BYTE		PAN     c_v-14
	BYTE		MOD     10
	BYTE		BEND    c_v-64
	BYTE		N11     En3   v127
	BYTE	W05
	BYTE		BEND    c_v+0
	BYTE	W19
	BYTE		N10   
	BYTE	W12
	BYTE		N08     Dn3 
	BYTE	W12
	BYTE		N11     En3 
	BYTE	W12
	BYTE		N12     Dn3 
	BYTE	W12
	BYTE		        En3 
	BYTE	W12
	BYTE		N09     Gn3 
	BYTE	W12
// 001   ----------------------------------------
	BYTE		N11     An3 
	BYTE	W12
	BYTE		        Bn3 
	BYTE	W12
	BYTE		N08     An3 
	BYTE	W12
	BYTE		        Gn3 
	BYTE	W12
	BYTE		N36     En3 
	BYTE	W48
// 002   ----------------------------------------
	BYTE		N14     Dn3 
	BYTE	W24
	BYTE		N11   
	BYTE	W12
	BYTE		N12     Cn3 
	BYTE	W12
	BYTE		N11     Dn3 
	BYTE	W12
	BYTE		N10     En3 
	BYTE	W12
	BYTE		        Dn3 
	BYTE	W12
	BYTE		N14     En3 
	BYTE	W12
// 003   ----------------------------------------
	BYTE		N13     Dn3 
	BYTE	W12
	BYTE		N10     En3 
	BYTE	W12
	BYTE		N09     Dn3 
	BYTE	W12
	BYTE		N11     En3 
	BYTE	W12
	BYTE		N42     Bn2 
	BYTE	W48
// 004   ----------------------------------------
	BYTE		N11     En3 
	BYTE	W24
	BYTE		N10   
	BYTE	W12
	BYTE		N08     Dn3 
	BYTE	W12
	BYTE		N11     En3 
	BYTE	W12
	BYTE		N12     Dn3 
	BYTE	W12
	BYTE		N07     En3 
	BYTE	W12
	BYTE		N09     Gn3 
	BYTE	W12
// 005   ----------------------------------------
	BYTE		N11     An3 
	BYTE	W12
	BYTE		N10     Bn3 
	BYTE	W12
	BYTE		N08     An3 
	BYTE	W12
	BYTE		        Gn3 
	BYTE	W12
	BYTE		N36     En3 
	BYTE	W48
// 006   ----------------------------------------
	BYTE		N14     Dn3 
	BYTE	W24
	BYTE		N11   
	BYTE	W12
	BYTE		N12     Bn2 
	BYTE	W12
	BYTE		N11     Dn3 
	BYTE	W12
	BYTE		N10     Bn2 
	BYTE	W12
	BYTE		        Dn3 
	BYTE	W12
	BYTE		N13     Gn3 
	BYTE	W12
// 007   ----------------------------------------
	BYTE	W12
	BYTE		N12     Fs3 
	BYTE	W12
	BYTE		N10     Dn3 
	BYTE	W12
	BYTE		N09     Bn2 
	BYTE	W12
	BYTE		N11     Dn3 
	BYTE	W12
	BYTE		N28     Fs3 
	BYTE	W36
// 008   ----------------------------------------
	BYTE		N19     Bn3 
	BYTE	W24
	BYTE		N14     Dn4 
	BYTE	W24
	BYTE		        Cn4 
	BYTE	W24
	BYTE		N07     An3 
	BYTE	W12
	BYTE		N16     Bn3 
	BYTE	W12
// 009   ----------------------------------------
	BYTE	W12
	BYTE		N13     Dn4 
	BYTE	W24
	BYTE		N16     Cn4 
	BYTE	W24
	BYTE		N24     An3 
	BYTE	W36
// 010   ----------------------------------------
	BYTE		N13     Bn3 
	BYTE	W24
	BYTE		        Dn4 
	BYTE	W24
	BYTE		N08     Cn4 
	BYTE	W12
	BYTE		N10     Bn3 
	BYTE	W12
	BYTE		N05     An3 
	BYTE	W12
	BYTE		N23     Bn3 
	BYTE	W12
// 011   ----------------------------------------
	BYTE	W12
	BYTE		N06     An3 
	BYTE	W12
	BYTE		        Gn3 
	BYTE	W12
	BYTE		N44     Fs3 
	BYTE	W60
// 012   ----------------------------------------
	BYTE		N12     Bn3 
	BYTE	W24
	BYTE		N09     Dn4 
	BYTE	W24
	BYTE		N12     Cn4 
	BYTE	W12
	BYTE		N06     Bn3 
	BYTE	W12
	BYTE		N05     An3 
	BYTE	W12
	BYTE		N21     Bn3 
	BYTE	W12
// 013   ----------------------------------------
	BYTE	W24
	BYTE		N12     Dn4 
	BYTE	W24
	BYTE		N09     Cn4 
	BYTE	W12
	BYTE		N05     Bn3 
	BYTE	W12
	BYTE		N07     An3 
	BYTE	W12
	BYTE		N24     Bn3 
	BYTE	W12
// 014   ----------------------------------------
	BYTE	W24
	BYTE		N11     Dn4 
	BYTE	W24
	BYTE		N09     Cn4 
	BYTE	W12
	BYTE		N10     Bn3 
	BYTE	W12
	BYTE		N06     An3 
	BYTE	W12
	BYTE		N19     Bn3 
	BYTE	W12
// 015   ----------------------------------------
	BYTE	W12
	BYTE		N11     An3 
	BYTE	W12
	BYTE		N09     Gn3 
	BYTE	W12
	BYTE		N17     An3 
	BYTE	W24
	BYTE		N11     Gn3 
	BYTE	W12
	BYTE		N17     Fs3 
	BYTE	W23
	BYTE		BEND    c_v-50
	BYTE	W01
// 016   ----------------------------------------
	BYTE		N36     En3 
	BYTE	W03
	BYTE		BEND    c_v+0
	BYTE	W44
	BYTE	W01
	BYTE		N09   
	BYTE	W12
	BYTE		        Fs3 
	BYTE	W12
	BYTE		N05     Gn3 
	BYTE	W12
	BYTE		N90     Fs3 
	BYTE	W12
// 017   ----------------------------------------
	BYTE	W96
// 018   ----------------------------------------
	BYTE		N32   
	BYTE	W48
	BYTE		N11   
	BYTE	W12
	BYTE		N07     Gn3 
	BYTE	W12
	BYTE		N06     An3 
	BYTE	W12
	BYTE		N92     Gn3 
	BYTE	W12
// 019   ----------------------------------------
	BYTE	W96
// 020   ----------------------------------------
	BYTE		N32     En3 
	BYTE	W48
	BYTE		N11   
	BYTE	W12
	BYTE		N06     Fs3 
	BYTE	W12
	BYTE		N08     Gn3 
	BYTE	W12
	BYTE		N84     Fs3 
	BYTE	W12
// 021   ----------------------------------------
	BYTE	W96
// 022   ----------------------------------------
	BYTE		N32   
	BYTE	W48
	BYTE		N11   
	BYTE	W12
	BYTE		N06     Gn3 
	BYTE	W12
	BYTE		N07     An3 
	BYTE	W12
	BYTE		N32     Bn3 
	BYTE	W12
// 023   ----------------------------------------
	BYTE	W24
	BYTE		N06     An3 
	BYTE	W12
	BYTE		N13     Gn3 
	BYTE	W24
	BYTE		N28     Dn4 
	BYTE	W36
// 024   ----------------------------------------
	BYTE		N02     An3 
	BYTE	W03
	BYTE		N36     Bn3 
	BYTE	W44
	BYTE	W01
	BYTE		N11     Gn3 
	BYTE	W12
	BYTE		N07     An3 
	BYTE	W12
	BYTE		N08     Bn3 
	BYTE	W12
	BYTE		N44     An3 
	BYTE	W12
// 025   ----------------------------------------
	BYTE	W48
	BYTE		N11     Fs3 
	BYTE	W12
	BYTE		N07     Gn3 
	BYTE	W12
	BYTE		N09     An3 
	BYTE	W12
	BYTE		N44     Fs3 
	BYTE	W12
// 026   ----------------------------------------
	BYTE	W36
	BYTE		N36     Gn3 
	BYTE	W36
	BYTE		N15     An3 
	BYTE	W24
// 027   ----------------------------------------
	BYTE		N23     Dn4 
	BYTE	W24
	BYTE		N11     Cn4 
	BYTE	W11
	BYTE		N17     Bn3 
	BYTE	W24
	BYTE	W01
	BYTE		N19     An3 
	BYTE	W36
// 028   ----------------------------------------
	BYTE		N44     Cn4 
	BYTE	W48
	BYTE		N12   
	BYTE	W12
	BYTE		N08     Dn4 
	BYTE	W12
	BYTE		N10     En4 
	BYTE	W12
	BYTE		N54     Cn4 
	BYTE	W12
// 029   ----------------------------------------
	BYTE	W48
	BYTE		BEND    c_v-64
	BYTE		N42     An3 
	BYTE	W01
	BYTE		BEND    c_v-64
	BYTE	W01
	BYTE		        c_v-63
	BYTE	W01
	BYTE		        c_v-54
	BYTE	W01
	BYTE		        c_v-50
	BYTE	W01
	BYTE		        c_v-45
	BYTE	W01
	BYTE		        c_v-36
	BYTE	W01
	BYTE		        c_v-31
	BYTE	W01
	BYTE		        c_v-26
	BYTE	W01
	BYTE		        c_v-16
	BYTE	W01
	BYTE		        c_v-11
	BYTE	W01
	BYTE		        c_v-6
	BYTE	W01
	BYTE		        c_v+0
	BYTE	W36
// 030   ----------------------------------------
	BYTE		N96     Bn3 
	BYTE	W96
// 031   ----------------------------------------
	BYTE		BEND    c_v+63
	BYTE	W24
	BYTE		N04     Bn3   v100
	BYTE	W01
	BYTE		BEND    c_v+63
	BYTE	W01
	BYTE		        c_v+63
	BYTE	W02
	BYTE		        c_v+63
	BYTE	W01
	BYTE		        c_v+63
	BYTE		N66     En4 
	BYTE	W02
	BYTE		BEND    c_v+60
	BYTE	W01
	BYTE		        c_v+58
	BYTE	W02
	BYTE		        c_v+54
	BYTE	W01
	BYTE		        c_v+51
	BYTE	W02
	BYTE		        c_v+49
	BYTE	W01
	BYTE		        c_v+45
	BYTE	W02
	BYTE		        c_v+43
	BYTE	W01
	BYTE		        c_v+40
	BYTE	W02
	BYTE		        c_v+36
	BYTE	W01
	BYTE		        c_v+33
	BYTE	W02
	BYTE		        c_v+30
	BYTE	W01
	BYTE		        c_v+26
	BYTE	W02
	BYTE		        c_v+24
	BYTE	W01
	BYTE		        c_v+20
	BYTE	W02
	BYTE		        c_v+16
	BYTE	W01
	BYTE		        c_v+14
	BYTE	W02
	BYTE		        c_v+10
	BYTE	W01
	BYTE		        c_v+7
	BYTE	W02
	BYTE		        c_v+3
	BYTE	W01
	BYTE		        c_v+0
	BYTE	W02
	BYTE		        c_v-3
	BYTE	W01
	BYTE		        c_v-7
	BYTE	W02
	BYTE		        c_v-11
	BYTE	W01
	BYTE		        c_v-13
	BYTE	W02
	BYTE		        c_v-17
	BYTE	W01
	BYTE		        c_v-21
	BYTE	W02
	BYTE		        c_v-23
	BYTE	W01
	BYTE		        c_v-27
	BYTE	W02
	BYTE		        c_v-29
	BYTE	W01
	BYTE		        c_v-33
	BYTE	W02
	BYTE		        c_v-37
	BYTE	W01
	BYTE		        c_v-39
	BYTE	W02
	BYTE		        c_v-43
	BYTE	W01
	BYTE		        c_v-46
	BYTE	W02
	BYTE		        c_v-48
	BYTE	W01
	BYTE		        c_v-52
	BYTE	W02
	BYTE		        c_v-55
	BYTE	W01
	BYTE		        c_v-57
	BYTE	W02
	BYTE		        c_v-61
	BYTE	W01
	BYTE		        c_v-63
	BYTE	W02
	BYTE		        c_v-64
	BYTE	W01
	BYTE		        c_v-64
	BYTE	W02
	BYTE		        c_v-64
	BYTE	W01
	BYTE		        c_v+0
	BYTE	W01
// 032   ----------------------------------------
	BYTE		TIE     En3   v127
	BYTE		N88     Bn3   v100
	BYTE	W96
// 033   ----------------------------------------
	BYTE		N90     An3 
	BYTE	W15
	BYTE		EOT     En3 
	BYTE	W09
	BYTE		N19     Fs3   v127
	BYTE	W24
	BYTE		        Gn3 
	BYTE	W24
	BYTE		N13     Fs3 
	BYTE	W12
	BYTE		TIE     En3 
	BYTE	W12
// 034   ----------------------------------------
	BYTE		N84     Gn3   v100
	BYTE	W84
	BYTE	W01
	BYTE		EOT     En3 
	BYTE	W11
// 035   ----------------------------------------
	BYTE		N30     Dn3   v127
	BYTE		N90     An3   v100
	BYTE	W32
	BYTE	W03
	BYTE		N16     Bn2   v127
	BYTE	W24
	BYTE	W01
	BYTE		N30     Dn3 
	BYTE	W36
// 036   ----------------------------------------
	BYTE		N04     En3 
	BYTE		N88     Bn3   v100
	BYTE	W06
	BYTE		N04     Fs3   v127
	BYTE	W06
	BYTE		        Gn3 
	BYTE	W06
	BYTE		        Fs3 
	BYTE	W06
	BYTE		        En3 
	BYTE	W06
	BYTE		        Fs3 
	BYTE	W06
	BYTE		        En3 
	BYTE	W06
	BYTE		        Gn3 
	BYTE	W06
	BYTE		        En3 
	BYTE	W06
	BYTE		        Gn3 
	BYTE	W06
	BYTE		        Fs3 
	BYTE	W06
	BYTE		        En3 
	BYTE	W06
	BYTE		        Gn3 
	BYTE	W06
	BYTE		        Fs3 
	BYTE	W06
	BYTE		        En3 
	BYTE	W06
	BYTE		        Gn3 
	BYTE	W06
// 037   ----------------------------------------
	BYTE		        Fs3 
	BYTE		N24     An3   v100
	BYTE	W06
	BYTE		N04     Gn3   v127
	BYTE	W06
	BYTE		        Fs3 
	BYTE	W06
	BYTE		        Gn3 
	BYTE	W06
	BYTE		        An3 
	BYTE	W06
	BYTE		        Gn3 
	BYTE	W06
	BYTE		        Fs3 
	BYTE	W06
	BYTE		        An3 
	BYTE	W06
	BYTE		        Gn3 
	BYTE	W06
	BYTE		        An3 
	BYTE	W06
	BYTE		        Fs3 
	BYTE	W06
	BYTE		        An3 
	BYTE	W06
	BYTE		        Fs3 
	BYTE	W06
	BYTE		        Gn3 
	BYTE	W06
	BYTE		        An3 
	BYTE	W06
	BYTE		        Gn3 
	BYTE	W06
// 038   ----------------------------------------
	BYTE		N06     Gn3   v100
	BYTE		N04     Bn3   v127
	BYTE	W06
	BYTE		        Gn3 
	BYTE	W06
	BYTE		        Bn3 
	BYTE	W06
	BYTE		        An3 
	BYTE	W06
	BYTE		        Bn3 
	BYTE	W06
	BYTE		        Gn3 
	BYTE	W06
	BYTE		        Bn3 
	BYTE	W06
	BYTE		        An3 
	BYTE	W06
	BYTE		        Gn3 
	BYTE	W06
	BYTE		        Bn3 
	BYTE	W06
	BYTE		        Gn3 
	BYTE	W06
	BYTE		        Bn3 
	BYTE	W06
	BYTE		        An3 
	BYTE	W06
	BYTE		        Bn3 
	BYTE	W06
	BYTE		N03     Gn3 
	BYTE	W06
	BYTE		N04     Bn3 
	BYTE	W05
	BYTE		N02     Cs4 
	BYTE	W01
// 039   ----------------------------------------
	BYTE		N54     Gn3   v100
	BYTE		N32     Dn4   v127
	BYTE	W32
	BYTE		BEND    c_v-4
	BYTE	W01
	BYTE		        c_v-9
	BYTE	W01
	BYTE		        c_v-12
	BYTE	W01
	BYTE		        c_v-9
	BYTE	W01
	BYTE		N20     Cn4 
	BYTE	W01
	BYTE		BEND    c_v-7
	BYTE	W01
	BYTE		        c_v-4
	BYTE	W02
	BYTE		        c_v+0
	BYTE	W12
	BYTE		        c_v-4
	BYTE	W01
	BYTE		        c_v-8
	BYTE	W01
	BYTE		        c_v-12
	BYTE	W01
	BYTE		        c_v-20
	BYTE	W01
	BYTE		        c_v-23
	BYTE	W01
	BYTE		        c_v-27
	BYTE	W01
	BYTE		        c_v-36
	BYTE	W01
	BYTE		        c_v-39
	BYTE	W01
	BYTE		        c_v-34
	BYTE		N21     An3 
	BYTE	W01
	BYTE		BEND    c_v-23
	BYTE	W01
	BYTE		        c_v-18
	BYTE	W01
	BYTE		        c_v-12
	BYTE	W01
	BYTE		        c_v+0
	BYTE	W32
// 040   ----------------------------------------
	BYTE		N88     Gn3   v100
	BYTE		N68     Bn3   v127
	BYTE	W72
	BYTE		N04     En4 
	BYTE	W06
	BYTE		        Fs4 
	BYTE	W06
	BYTE		        Gn4 
	BYTE	W06
	BYTE		        An4 
	BYTE	W06
// 041   ----------------------------------------
	BYTE		N90     Fs3   v100
	BYTE		N56     Bn4   v127
	BYTE	W60
	BYTE		N04     En4 
	BYTE	W06
	BYTE		        Fs4 
	BYTE	W06
	BYTE		        Gn4 
	BYTE	W06
	BYTE		        An4 
	BYTE	W06
	BYTE		N10     Bn4 
	BYTE	W12
// 042   ----------------------------------------
	BYTE		N84     En3   v100
	BYTE		N04     Gn4   v127
	BYTE	W06
	BYTE		        An4 
	BYTE	W06
	BYTE		        Gn4 
	BYTE	W06
	BYTE		        Fs4 
	BYTE	W06
	BYTE		        Dn4 
	BYTE	W06
	BYTE		        En4 
	BYTE	W06
	BYTE		        Fs4 
	BYTE	W06
	BYTE		        An4 
	BYTE	W06
	BYTE		        Gn4 
	BYTE	W06
	BYTE		        En4 
	BYTE	W06
	BYTE		        An4 
	BYTE	W06
	BYTE		        Fs4 
	BYTE	W06
	BYTE		        En4 
	BYTE	W06
	BYTE		        Fs4 
	BYTE	W06
	BYTE		        An4 
	BYTE	W06
	BYTE		        Gn4 
	BYTE	W06
// 043   ----------------------------------------
	BYTE		N90     Fs3   v100
	BYTE		N04     An4   v127
	BYTE	W06
	BYTE		        Gn4 
	BYTE	W06
	BYTE		        Fs4 
	BYTE	W06
	BYTE		        Gn4 
	BYTE	W06
	BYTE		N10     En4 
	BYTE	W12
	BYTE		        Dn4 
	BYTE	W12
	BYTE		N04     En4 
	BYTE	W06
	BYTE		        Dn4 
	BYTE	W06
	BYTE		        Cn4 
	BYTE	W06
	BYTE		        Bn3 
	BYTE	W06
	BYTE		        An3 
	BYTE	W06
	BYTE		        Dn4 
	BYTE	W06
	BYTE		        An3 
	BYTE	W06
	BYTE		        Cn4 
	BYTE	W06
// 044   ----------------------------------------
	BYTE		N88     Gn3   v100
	BYTE		N04     Bn3   v127
	BYTE	W06
	BYTE		        Cn4 
	BYTE	W06
	BYTE		        Bn3 
	BYTE	W06
	BYTE		        Cn4 
	BYTE	W06
	BYTE		N40     Bn3 
	BYTE	W48
	BYTE		N04     En4 
	BYTE	W06
	BYTE		        Fs4 
	BYTE	W06
	BYTE		        Gn4 
	BYTE	W06
	BYTE		        An4 
	BYTE	W06
// 045   ----------------------------------------
	BYTE		N90     Fs3   v100
	BYTE		N10     Bn4   v127
	BYTE	W12
	BYTE		N04     En4 
	BYTE	W06
	BYTE		        Fs4 
	BYTE	W06
	BYTE		        Gn4 
	BYTE	W06
	BYTE		        An4 
	BYTE	W06
	BYTE		        Gn4 
	BYTE	W06
	BYTE		        Fs4 
	BYTE	W06
	BYTE		        En4 
	BYTE	W06
	BYTE		        Dn4 
	BYTE	W06
	BYTE		        En4 
	BYTE	W06
	BYTE		        Cn4 
	BYTE	W06
	BYTE		        An3 
	BYTE	W06
	BYTE		        Bn3 
	BYTE	W06
	BYTE		        Cn4 
	BYTE	W06
	BYTE		        An3 
	BYTE	W06
// 046   ----------------------------------------
	BYTE		N84     En3   v100
	BYTE		N04     Bn3   v127
	BYTE	W06
	BYTE		        Cn4 
	BYTE	W06
	BYTE		        Bn3 
	BYTE	W06
	BYTE		        Cn4 
	BYTE	W06
	BYTE		        Bn3 
	BYTE	W06
	BYTE		        An3 
	BYTE	W06
	BYTE		N10     En2 
	BYTE	W12
	BYTE		        Gn3 
	BYTE	W12
	BYTE		        An3 
	BYTE	W12
	BYTE		N04     Dn4 
	BYTE	W06
	BYTE		        An3 
	BYTE	W06
	BYTE		        Cn4 
	BYTE	W06
	BYTE		        An3 
	BYTE	W06
// 047   ----------------------------------------
	BYTE		N30     En3   v100
	BYTE		N04     Gn3   v127
	BYTE	W06
	BYTE		        Fs3 
	BYTE	W06
	BYTE		        En2 
	BYTE	W06
	BYTE		        Fs3 
	BYTE	W06
	BYTE		        Bn3 
	BYTE	W06
	BYTE		        An3 
	BYTE	W06
	BYTE		N19     En3   v100
	BYTE		N04     Bn3   v127
	BYTE	W06
	BYTE		        An3 
	BYTE	W06
	BYTE		        Gn3 
	BYTE	W06
	BYTE		        An3 
	BYTE	W06
	BYTE		N24     Fs3   v100
	BYTE		N04     Bn3   v127
	BYTE	W06
	BYTE		N28     Ds4 
	BYTE	W30
	BYTE	GoTo
	 POIN2	Taisen4_1_B1
Taisen4_1_B2:
// 048   ----------------------------------------
	BYTE		BEND    c_v+0
	BYTE	FINE

//**************** Track 2 (Midi-Chn.3) ****************//

Taisen4_2:
	BYTE	KEYSH   Taisen4_key+0
Taisen4_2_B1:
// 000   ----------------------------------------
	BYTE		VOICE   36
	BYTE		VOL     85*Taisen4_mvl/mxv
	BYTE		PAN     c_v-1
	BYTE		BEND    c_v+0
	BYTE		N10     En2   v127
	BYTE	W12
	BYTE		N04   
	BYTE	W06
	BYTE		N04   
	BYTE	W06
	BYTE		N10   
	BYTE	W12
	BYTE		N10   
	BYTE	W12
	BYTE		N10   
	BYTE	W12
	BYTE		N04   
	BYTE	W06
	BYTE		N04   
	BYTE	W06
	BYTE		N04   
	BYTE	W06
	BYTE		N04   
	BYTE	W06
	BYTE		N21     Bn1 
	BYTE	W12
// 001   ----------------------------------------
	BYTE	W12
	BYTE		N04   
	BYTE	W06
	BYTE		N04   
	BYTE	W06
	BYTE		N10   
	BYTE	W12
	BYTE		N10   
	BYTE	W12
	BYTE		N10   
	BYTE	W12
	BYTE		N04   
	BYTE	W06
	BYTE		N04   
	BYTE	W06
	BYTE		N10   
	BYTE	W12
	BYTE		N04   
	BYTE	W06
	BYTE		N04   
	BYTE	W06
// 002   ----------------------------------------
	BYTE		N10     Cn2 
	BYTE	W12
	BYTE		N04   
	BYTE	W06
	BYTE		N04   
	BYTE	W06
	BYTE		N10   
	BYTE	W12
	BYTE		N10   
	BYTE	W12
	BYTE		N10   
	BYTE	W12
	BYTE		N04   
	BYTE	W06
	BYTE		N04   
	BYTE	W06
	BYTE		N04   
	BYTE	W06
	BYTE		N04   
	BYTE	W06
	BYTE		N10   
	BYTE	W12
// 003   ----------------------------------------
	BYTE		        Dn2 
	BYTE	W12
	BYTE		N04   
	BYTE	W06
	BYTE		N04   
	BYTE	W06
	BYTE		N10   
	BYTE	W12
	BYTE		N10   
	BYTE	W12
	BYTE		N10   
	BYTE	W12
	BYTE		N04   
	BYTE	W06
	BYTE		N04   
	BYTE	W06
	BYTE		N10   
	BYTE	W12
	BYTE		N04   
	BYTE	W06
	BYTE		N04   
	BYTE	W06
// 004   ----------------------------------------
	BYTE		N10     En2 
	BYTE	W12
	BYTE		N04   
	BYTE	W06
	BYTE		N04   
	BYTE	W06
	BYTE		N10   
	BYTE	W12
	BYTE		N10   
	BYTE	W12
	BYTE		N10   
	BYTE	W12
	BYTE		N04   
	BYTE	W06
	BYTE		N04   
	BYTE	W06
	BYTE		N04   
	BYTE	W06
	BYTE		N04   
	BYTE	W06
	BYTE		N22     Bn1 
	BYTE	W12
// 005   ----------------------------------------
Taisen4_2_005:
	BYTE	W12
	BYTE		N04     Bn1   v127
	BYTE	W06
	BYTE		N04   
	BYTE	W06
	BYTE		N10   
	BYTE	W12
	BYTE		N10   
	BYTE	W12
	BYTE		N10   
	BYTE	W12
	BYTE		N04   
	BYTE	W06
	BYTE		N04   
	BYTE	W06
	BYTE		N10   
	BYTE	W12
	BYTE		N10   
	BYTE	W12
	BYTE	PEND
// 006   ----------------------------------------
	BYTE		        Cn2 
	BYTE	W12
	BYTE		N04   
	BYTE	W06
	BYTE		N04   
	BYTE	W06
	BYTE		N10   
	BYTE	W12
	BYTE		N10   
	BYTE	W12
	BYTE		N10   
	BYTE	W12
	BYTE		N04   
	BYTE	W06
	BYTE		N04   
	BYTE	W06
	BYTE		N04   
	BYTE	W06
	BYTE		N04   
	BYTE	W06
	BYTE		N22     Dn2 
	BYTE	W12
// 007   ----------------------------------------
	BYTE	W12
	BYTE		N04   
	BYTE	W06
	BYTE		N04   
	BYTE	W06
	BYTE		N10   
	BYTE	W12
	BYTE		N10   
	BYTE	W12
	BYTE		N10   
	BYTE	W12
	BYTE		N04   
	BYTE	W06
	BYTE		N04   
	BYTE	W06
	BYTE		N10   
	BYTE	W12
	BYTE		N04   
	BYTE	W06
	BYTE		N04   
	BYTE	W06
// 008   ----------------------------------------
Taisen4_2_008:
	BYTE		N10     En2   v127
	BYTE	W12
	BYTE		N04   
	BYTE	W06
	BYTE		N04   
	BYTE	W06
	BYTE		N10   
	BYTE	W12
	BYTE		N10   
	BYTE	W12
	BYTE		N10   
	BYTE	W12
	BYTE		N04   
	BYTE	W06
	BYTE		N04   
	BYTE	W06
	BYTE		N10   
	BYTE	W12
	BYTE		N22     Bn1 
	BYTE	W12
	BYTE	PEND
// 009   ----------------------------------------
	BYTE	PATT
	 POIN2	Taisen4_2_005
// 010   ----------------------------------------
	BYTE		N10     Cn2   v127
	BYTE	W12
	BYTE		N04   
	BYTE	W06
	BYTE		N04   
	BYTE	W06
	BYTE		N10   
	BYTE	W12
	BYTE		N10   
	BYTE	W12
	BYTE		N10   
	BYTE	W12
	BYTE		N04   
	BYTE	W06
	BYTE		N04   
	BYTE	W06
	BYTE		N10   
	BYTE	W12
	BYTE		N22     Dn2 
	BYTE	W12
// 011   ----------------------------------------
Taisen4_2_011:
	BYTE	W12
	BYTE		N04     Dn2   v127
	BYTE	W06
	BYTE		N04   
	BYTE	W06
	BYTE		N10   
	BYTE	W12
	BYTE		N10   
	BYTE	W12
	BYTE		N10   
	BYTE	W12
	BYTE		N04   
	BYTE	W06
	BYTE		N04   
	BYTE	W06
	BYTE		N10   
	BYTE	W12
	BYTE		N10   
	BYTE	W12
	BYTE	PEND
// 012   ----------------------------------------
	BYTE	PATT
	 POIN2	Taisen4_2_008
// 013   ----------------------------------------
	BYTE	W12
	BYTE		N04     Bn1   v127
	BYTE	W06
	BYTE		N04   
	BYTE	W06
	BYTE		N10   
	BYTE	W12
	BYTE		N10   
	BYTE	W12
	BYTE		N10   
	BYTE	W12
	BYTE		N04   
	BYTE	W06
	BYTE		N04   
	BYTE	W06
	BYTE		N10   
	BYTE	W12
	BYTE		N22     Cn2 
	BYTE	W12
// 014   ----------------------------------------
	BYTE	W12
	BYTE		N04   
	BYTE	W06
	BYTE		N04   
	BYTE	W06
	BYTE		N10   
	BYTE	W12
	BYTE		N10   
	BYTE	W12
	BYTE		N10   
	BYTE	W12
	BYTE		N04   
	BYTE	W06
	BYTE		N04   
	BYTE	W06
	BYTE		N10   
	BYTE	W12
	BYTE		N22     Dn2 
	BYTE	W12
// 015   ----------------------------------------
	BYTE	PATT
	 POIN2	Taisen4_2_011
// 016   ----------------------------------------
Taisen4_2_016:
	BYTE		N10     Cn2   v127
	BYTE	W12
	BYTE		N04   
	BYTE	W06
	BYTE		N04   
	BYTE	W06
	BYTE		N10   
	BYTE	W12
	BYTE		N04   
	BYTE	W06
	BYTE		N04   
	BYTE	W06
	BYTE		N10   
	BYTE	W12
	BYTE		N04   
	BYTE	W06
	BYTE		N04   
	BYTE	W06
	BYTE		N10   
	BYTE	W12
	BYTE		N04   
	BYTE	W06
	BYTE		N04   
	BYTE	W06
	BYTE	PEND
// 017   ----------------------------------------
Taisen4_2_017:
	BYTE		N10     Dn2   v127
	BYTE	W12
	BYTE		N04   
	BYTE	W06
	BYTE		N04   
	BYTE	W06
	BYTE		N10   
	BYTE	W12
	BYTE		N04   
	BYTE	W06
	BYTE		N04   
	BYTE	W06
	BYTE		N10   
	BYTE	W12
	BYTE		N04   
	BYTE	W06
	BYTE		N04   
	BYTE	W06
	BYTE		N10   
	BYTE	W12
	BYTE		N04   
	BYTE	W06
	BYTE		N04   
	BYTE	W06
	BYTE	PEND
// 018   ----------------------------------------
Taisen4_2_018:
	BYTE		N10     Bn1   v127
	BYTE	W12
	BYTE		N04   
	BYTE	W06
	BYTE		N04   
	BYTE	W06
	BYTE		N10   
	BYTE	W12
	BYTE		N04   
	BYTE	W06
	BYTE		N04   
	BYTE	W06
	BYTE		N10   
	BYTE	W12
	BYTE		N04   
	BYTE	W06
	BYTE		N04   
	BYTE	W06
	BYTE		N10   
	BYTE	W12
	BYTE		N04   
	BYTE	W06
	BYTE		N04   
	BYTE	W06
	BYTE	PEND
// 019   ----------------------------------------
	BYTE		N10     En2 
	BYTE	W12
	BYTE		N04   
	BYTE	W06
	BYTE		N04   
	BYTE	W06
	BYTE		N10   
	BYTE	W12
	BYTE		N04     Dn2 
	BYTE	W06
	BYTE		N04   
	BYTE	W06
	BYTE		N10   
	BYTE	W12
	BYTE		N04   
	BYTE	W06
	BYTE		N04   
	BYTE	W06
	BYTE		N10   
	BYTE	W12
	BYTE		N04   
	BYTE	W06
	BYTE		N04   
	BYTE	W06
// 020   ----------------------------------------
	BYTE	PATT
	 POIN2	Taisen4_2_016
// 021   ----------------------------------------
	BYTE	PATT
	 POIN2	Taisen4_2_017
// 022   ----------------------------------------
	BYTE		N10     Gn1   v127
	BYTE	W12
	BYTE		N04   
	BYTE	W06
	BYTE		N04   
	BYTE	W06
	BYTE		N10   
	BYTE	W12
	BYTE		N04   
	BYTE	W06
	BYTE		N04   
	BYTE	W06
	BYTE		N10   
	BYTE	W12
	BYTE		N04   
	BYTE	W06
	BYTE		N04   
	BYTE	W06
	BYTE		N10   
	BYTE	W12
	BYTE		N04   
	BYTE	W06
	BYTE		N04   
	BYTE	W06
// 023   ----------------------------------------
	BYTE		N10   
	BYTE	W12
	BYTE		N04   
	BYTE	W06
	BYTE		N04   
	BYTE	W06
	BYTE		N10   
	BYTE	W12
	BYTE		N04   
	BYTE	W06
	BYTE		N04   
	BYTE	W06
	BYTE		N10   
	BYTE	W12
	BYTE		N04   
	BYTE	W06
	BYTE		N04   
	BYTE	W06
	BYTE		N05   
	BYTE	W06
	BYTE		        Gn3 
	BYTE	W06
	BYTE		N04     Gn1 
	BYTE	W06
	BYTE		N04   
	BYTE	W06
// 024   ----------------------------------------
	BYTE		N10     Cn2 
	BYTE	W11
	BYTE		N04   
	BYTE	W06
	BYTE		N04   
	BYTE	W06
	BYTE		N10   
	BYTE	W12
	BYTE		N04   
	BYTE	W06
	BYTE		N04   
	BYTE	W06
	BYTE		N10   
	BYTE	W12
	BYTE		N04   
	BYTE	W06
	BYTE		N04   
	BYTE	W06
	BYTE		N10   
	BYTE	W12
	BYTE		N04   
	BYTE	W06
	BYTE		N04   
	BYTE	W06
	BYTE		N10     Dn2 
	BYTE	W01
// 025   ----------------------------------------
	BYTE	W11
	BYTE		N04   
	BYTE	W06
	BYTE		N04   
	BYTE	W06
	BYTE		N10   
	BYTE	W12
	BYTE		N04   
	BYTE	W06
	BYTE		N04   
	BYTE	W06
	BYTE		N10   
	BYTE	W12
	BYTE		N04   
	BYTE	W06
	BYTE		N04   
	BYTE	W06
	BYTE		N10   
	BYTE	W12
	BYTE		N04   
	BYTE	W06
	BYTE		N04   
	BYTE	W06
	BYTE		N10     Bn1 
	BYTE	W01
// 026   ----------------------------------------
	BYTE	W11
	BYTE		N04   
	BYTE	W06
	BYTE		N04   
	BYTE	W06
	BYTE		N10   
	BYTE	W12
	BYTE		N04   
	BYTE	W06
	BYTE		N04   
	BYTE	W06
	BYTE		N10   
	BYTE	W12
	BYTE		N04   
	BYTE	W06
	BYTE		N04   
	BYTE	W06
	BYTE		N10   
	BYTE	W12
	BYTE		N04   
	BYTE	W06
	BYTE		N04   
	BYTE	W06
	BYTE		N10     En2 
	BYTE	W01
// 027   ----------------------------------------
	BYTE	W11
	BYTE		N04   
	BYTE	W06
	BYTE		N04   
	BYTE	W06
	BYTE		N10   
	BYTE	W12
	BYTE		N04     Dn2 
	BYTE	W06
	BYTE		N04   
	BYTE	W06
	BYTE		N10   
	BYTE	W12
	BYTE		N04   
	BYTE	W06
	BYTE		N04   
	BYTE	W06
	BYTE		N10   
	BYTE	W12
	BYTE		N04   
	BYTE	W06
	BYTE		N04   
	BYTE	W07
// 028   ----------------------------------------
	BYTE	PATT
	 POIN2	Taisen4_2_016
// 029   ----------------------------------------
	BYTE	PATT
	 POIN2	Taisen4_2_016
// 030   ----------------------------------------
	BYTE	PATT
	 POIN2	Taisen4_2_018
// 031   ----------------------------------------
	BYTE		N22     Bn1   v127
	BYTE	W24
	BYTE		N10   
	BYTE	W12
	BYTE		N04   
	BYTE	W06
	BYTE		N04   
	BYTE	W06
	BYTE		N10   
	BYTE	W12
	BYTE		N04   
	BYTE	W06
	BYTE		N04   
	BYTE	W06
	BYTE		N10   
	BYTE	W12
	BYTE		N04   
	BYTE	W06
	BYTE		N04   
	BYTE	W06
// 032   ----------------------------------------
Taisen4_2_032:
	BYTE		N09     En2   v127
	BYTE	W12
	BYTE		N05   
	BYTE	W06
	BYTE		N05   
	BYTE	W06
	BYTE		N09   
	BYTE	W12
	BYTE		N05   
	BYTE	W06
	BYTE		N05   
	BYTE	W06
	BYTE		N09   
	BYTE	W12
	BYTE		N05   
	BYTE	W06
	BYTE		N05   
	BYTE	W06
	BYTE		N09   
	BYTE	W12
	BYTE		N05   
	BYTE	W06
	BYTE		N05   
	BYTE	W06
	BYTE	PEND
// 033   ----------------------------------------
Taisen4_2_033:
	BYTE		N08     Dn2   v127
	BYTE	W12
	BYTE		N05   
	BYTE	W06
	BYTE		N05   
	BYTE	W06
	BYTE		N08   
	BYTE	W12
	BYTE		N05   
	BYTE	W06
	BYTE		N05   
	BYTE	W06
	BYTE		N08   
	BYTE	W12
	BYTE		N05   
	BYTE	W06
	BYTE		N05   
	BYTE	W06
	BYTE		N06   
	BYTE	W06
	BYTE		        Dn3 
	BYTE	W06
	BYTE		N10     Dn2 
	BYTE	W12
	BYTE	PEND
// 034   ----------------------------------------
Taisen4_2_034:
	BYTE		N08     Cn2   v127
	BYTE	W12
	BYTE		N05   
	BYTE	W06
	BYTE		N05   
	BYTE	W06
	BYTE		N08   
	BYTE	W12
	BYTE		N05   
	BYTE	W06
	BYTE		N05   
	BYTE	W06
	BYTE		N08   
	BYTE	W12
	BYTE		N05   
	BYTE	W06
	BYTE		N05   
	BYTE	W06
	BYTE		N08   
	BYTE	W12
	BYTE		N05   
	BYTE	W06
	BYTE		N05   
	BYTE	W06
	BYTE	PEND
// 035   ----------------------------------------
Taisen4_2_035:
	BYTE		N08     Dn2   v127
	BYTE	W12
	BYTE		N05   
	BYTE	W06
	BYTE		N05   
	BYTE	W06
	BYTE		N08   
	BYTE	W12
	BYTE		N05   
	BYTE	W06
	BYTE		N05   
	BYTE	W06
	BYTE		N08   
	BYTE	W12
	BYTE		N05   
	BYTE	W06
	BYTE		N05   
	BYTE	W06
	BYTE		N05   
	BYTE	W06
	BYTE		N05   
	BYTE	W06
	BYTE		        Dn3 
	BYTE	W06
	BYTE		        Dn2 
	BYTE	W06
	BYTE	PEND
// 036   ----------------------------------------
	BYTE	PATT
	 POIN2	Taisen4_2_032
// 037   ----------------------------------------
Taisen4_2_037:
	BYTE		N09     Dn2   v127
	BYTE	W12
	BYTE		N05   
	BYTE	W06
	BYTE		N05   
	BYTE	W06
	BYTE		N09   
	BYTE	W12
	BYTE		N05   
	BYTE	W06
	BYTE		N05   
	BYTE	W06
	BYTE		N09   
	BYTE	W12
	BYTE		N05   
	BYTE	W06
	BYTE		N05   
	BYTE	W06
	BYTE		N09   
	BYTE	W12
	BYTE		N05   
	BYTE	W06
	BYTE		N05   
	BYTE	W06
	BYTE	PEND
// 038   ----------------------------------------
Taisen4_2_038:
	BYTE		N09     Cn2   v127
	BYTE	W12
	BYTE		N05   
	BYTE	W06
	BYTE		N05   
	BYTE	W06
	BYTE		N09   
	BYTE	W12
	BYTE		N05   
	BYTE	W06
	BYTE		N05   
	BYTE	W06
	BYTE		N09   
	BYTE	W12
	BYTE		N05   
	BYTE	W06
	BYTE		N05   
	BYTE	W06
	BYTE		N09   
	BYTE	W12
	BYTE		N05   
	BYTE	W06
	BYTE		N05   
	BYTE	W06
	BYTE	PEND
// 039   ----------------------------------------
	BYTE		N09   
	BYTE	W12
	BYTE		N05   
	BYTE	W06
	BYTE		N05   
	BYTE	W06
	BYTE		N09   
	BYTE	W12
	BYTE		N05   
	BYTE	W06
	BYTE		N05   
	BYTE	W06
	BYTE		N09     Dn2 
	BYTE	W12
	BYTE		N05   
	BYTE	W06
	BYTE		N05   
	BYTE	W06
	BYTE		N09   
	BYTE	W12
	BYTE		N05   
	BYTE	W06
	BYTE		N05   
	BYTE	W06
// 040   ----------------------------------------
	BYTE	PATT
	 POIN2	Taisen4_2_032
// 041   ----------------------------------------
	BYTE	PATT
	 POIN2	Taisen4_2_033
// 042   ----------------------------------------
	BYTE	PATT
	 POIN2	Taisen4_2_034
// 043   ----------------------------------------
	BYTE	PATT
	 POIN2	Taisen4_2_035
// 044   ----------------------------------------
	BYTE	PATT
	 POIN2	Taisen4_2_032
// 045   ----------------------------------------
	BYTE	PATT
	 POIN2	Taisen4_2_037
// 046   ----------------------------------------
	BYTE	PATT
	 POIN2	Taisen4_2_038
// 047   ----------------------------------------
	BYTE		N09     Cn2   v127
	BYTE	W12
	BYTE		N05   
	BYTE	W06
	BYTE		N05   
	BYTE	W06
	BYTE		N09   
	BYTE	W12
	BYTE		N05   
	BYTE	W06
	BYTE		N05   
	BYTE	W06
	BYTE		N09   
	BYTE	W12
	BYTE		N05   
	BYTE	W06
	BYTE		N05   
	BYTE	W06
	BYTE		N09     Dn2 
	BYTE	W12
	BYTE		N05   
	BYTE	W06
	BYTE		N05   
	BYTE	W05
	BYTE		BEND    c_v+0
	BYTE	W01
	BYTE	GoTo
	 POIN2	Taisen4_2_B1
Taisen4_2_B2:
// 048   ----------------------------------------
	BYTE	FINE

//**************** Track 3 (Midi-Chn.4) ****************//

Taisen4_3:
	BYTE	KEYSH   Taisen4_key+0
Taisen4_3_B1:
// 000   ----------------------------------------
	BYTE		VOICE   48
	BYTE		VOL     58*Taisen4_mvl/mxv
	BYTE		PAN     c_v-41
	BYTE		MOD     5
	BYTE		BEND    c_v+0
	BYTE	W96
// 001   ----------------------------------------
	BYTE	W96
// 002   ----------------------------------------
	BYTE	W72
	BYTE		        c_v+0
	BYTE	W24
// 003   ----------------------------------------
	BYTE	W96
// 004   ----------------------------------------
	BYTE		N11     Gn2   v127
	BYTE	W24
	BYTE		N10   
	BYTE	W12
	BYTE		N09     Fs2 
	BYTE	W12
	BYTE		N08     Gn2 
	BYTE	W12
	BYTE		N09     Fs2 
	BYTE	W12
	BYTE		        Gn2 
	BYTE	W12
	BYTE		        Bn2 
	BYTE	W12
// 005   ----------------------------------------
	BYTE		N11     Cn3 
	BYTE	W12
	BYTE		N13     Dn3 
	BYTE	W12
	BYTE		N09     Cn3 
	BYTE	W12
	BYTE		N06     Bn2 
	BYTE	W12
	BYTE		N36     Gn2 
	BYTE	W48
// 006   ----------------------------------------
	BYTE		N14     Fs2 
	BYTE	W24
	BYTE		N11   
	BYTE	W12
	BYTE		N12     Dn2 
	BYTE	W12
	BYTE		N11     Fs2 
	BYTE	W12
	BYTE		N10     Dn2 
	BYTE	W12
	BYTE		        Fs2 
	BYTE	W12
	BYTE		N14     Bn2 
	BYTE	W12
// 007   ----------------------------------------
	BYTE	W12
	BYTE		N13     An2 
	BYTE	W12
	BYTE		N10     Fs2 
	BYTE	W12
	BYTE		N09     Dn2 
	BYTE	W12
	BYTE		N11     Fs2 
	BYTE	W12
	BYTE		N28     An2 
	BYTE	W36
// 008   ----------------------------------------
	BYTE	W96
// 009   ----------------------------------------
	BYTE	W96
// 010   ----------------------------------------
	BYTE	W96
// 011   ----------------------------------------
	BYTE	W96
// 012   ----------------------------------------
	BYTE		N12     Dn3 
	BYTE	W30
	BYTE		N09     Fs3 
	BYTE	W18
	BYTE		N12     En3 
	BYTE	W12
	BYTE		N06     Dn3 
	BYTE	W12
	BYTE		N05     Cn3 
	BYTE	W12
	BYTE		N21     Dn3 
	BYTE	W12
// 013   ----------------------------------------
	BYTE	W24
	BYTE		N13     Fs3 
	BYTE	W24
	BYTE		N09     En3 
	BYTE	W12
	BYTE		N05     Dn3 
	BYTE	W12
	BYTE		N07     Cn3 
	BYTE	W12
	BYTE		N24     Dn3 
	BYTE	W12
// 014   ----------------------------------------
	BYTE	W24
	BYTE		N11     Fs3 
	BYTE	W24
	BYTE		N09     En3 
	BYTE	W12
	BYTE		N10     Dn3 
	BYTE	W12
	BYTE		N06     Cn3 
	BYTE	W12
	BYTE		N24     Dn3 
	BYTE	W12
// 015   ----------------------------------------
	BYTE	W12
	BYTE		N13     Cn3 
	BYTE	W12
	BYTE		N11     Bn2 
	BYTE	W12
	BYTE		N17     Cn3 
	BYTE	W24
	BYTE		N11     Bn2 
	BYTE	W12
	BYTE		N17     An2 
	BYTE	W24
// 016   ----------------------------------------
	BYTE	W96
// 017   ----------------------------------------
	BYTE	W96
// 018   ----------------------------------------
	BYTE	W96
// 019   ----------------------------------------
	BYTE	W96
// 020   ----------------------------------------
	BYTE	W96
// 021   ----------------------------------------
	BYTE	W96
// 022   ----------------------------------------
	BYTE	W96
// 023   ----------------------------------------
	BYTE	W96
// 024   ----------------------------------------
	BYTE	W96
// 025   ----------------------------------------
	BYTE	W96
// 026   ----------------------------------------
	BYTE	W96
// 027   ----------------------------------------
	BYTE	W96
// 028   ----------------------------------------
	BYTE	W96
// 029   ----------------------------------------
	BYTE	W96
// 030   ----------------------------------------
	BYTE	W96
// 031   ----------------------------------------
	BYTE	W24
	BYTE	W03
	BYTE		BEND    c_v+63
	BYTE	W02
	BYTE		        c_v+63
	BYTE	W01
	BYTE		        c_v+63
	BYTE	W02
	BYTE		        c_v+63
	BYTE	W01
	BYTE		        c_v+62
	BYTE	W02
	BYTE		        c_v+60
	BYTE	W01
	BYTE		        c_v+56
	BYTE	W02
	BYTE		        c_v+53
	BYTE	W01
	BYTE		        c_v+50
	BYTE	W02
	BYTE		        c_v+47
	BYTE	W01
	BYTE		        c_v+44
	BYTE	W02
	BYTE		        c_v+41
	BYTE	W01
	BYTE		        c_v+37
	BYTE	W02
	BYTE		        c_v+35
	BYTE	W01
	BYTE		        c_v+31
	BYTE	W02
	BYTE		        c_v+27
	BYTE	W01
	BYTE		        c_v+24
	BYTE	W02
	BYTE		        c_v+21
	BYTE	W01
	BYTE		        c_v+17
	BYTE	W02
	BYTE		        c_v+14
	BYTE	W01
	BYTE		        c_v+10
	BYTE	W02
	BYTE		        c_v+7
	BYTE	W01
	BYTE		        c_v+3
	BYTE	W02
	BYTE		        c_v+0
	BYTE	W01
	BYTE		        c_v-4
	BYTE	W02
	BYTE		        c_v-8
	BYTE	W01
	BYTE		        c_v-11
	BYTE	W02
	BYTE		        c_v-15
	BYTE	W01
	BYTE		        c_v-18
	BYTE	W02
	BYTE		        c_v-22
	BYTE	W01
	BYTE		        c_v-25
	BYTE	W02
	BYTE		        c_v-28
	BYTE	W01
	BYTE		        c_v-32
	BYTE	W02
	BYTE		        c_v-36
	BYTE	W01
	BYTE		        c_v-38
	BYTE	W02
	BYTE		        c_v-42
	BYTE	W01
	BYTE		        c_v-45
	BYTE	W02
	BYTE		        c_v-48
	BYTE	W01
	BYTE		        c_v-51
	BYTE	W02
	BYTE		        c_v-54
	BYTE	W01
	BYTE		        c_v-57
	BYTE	W02
	BYTE		        c_v-61
	BYTE	W01
	BYTE		        c_v-63
	BYTE	W02
	BYTE		        c_v-64
	BYTE	W01
	BYTE		        c_v-64
	BYTE	W02
	BYTE		        c_v+0
	BYTE	W01
// 032   ----------------------------------------
	BYTE		        c_v-64
	BYTE		TIE     Gn2 
	BYTE	W01
	BYTE		BEND    c_v-56
	BYTE	W01
	BYTE		        c_v-13
	BYTE	W01
	BYTE		        c_v+0
	BYTE	W92
	BYTE	W01
// 033   ----------------------------------------
	BYTE	W15
	BYTE		EOT   
	BYTE	W09
	BYTE		N19     An2 
	BYTE	W24
	BYTE		        Bn2 
	BYTE	W24
	BYTE		N13     An2 
	BYTE	W12
	BYTE		TIE     Gn2 
	BYTE	W12
// 034   ----------------------------------------
	BYTE	W84
	BYTE	W01
	BYTE		EOT   
	BYTE	W11
// 035   ----------------------------------------
	BYTE		N30     Fs2 
	BYTE	W36
	BYTE		N16     Dn2 
	BYTE	W24
	BYTE		N30     Fs2 
	BYTE	W36
// 036   ----------------------------------------
	BYTE		N04     Gn2 
	BYTE	W06
	BYTE		        An2 
	BYTE	W06
	BYTE		        Bn2 
	BYTE	W06
	BYTE		        An2 
	BYTE	W06
	BYTE		        Gn2 
	BYTE	W06
	BYTE		        An2 
	BYTE	W06
	BYTE		        Gn2 
	BYTE	W06
	BYTE		        Bn2 
	BYTE	W06
	BYTE		        Gn2 
	BYTE	W06
	BYTE		        Bn2 
	BYTE	W06
	BYTE		        An2 
	BYTE	W06
	BYTE		        Gn2 
	BYTE	W06
	BYTE		        Bn2 
	BYTE	W06
	BYTE		        An2 
	BYTE	W06
	BYTE		        Gn2 
	BYTE	W06
	BYTE		        Bn2 
	BYTE	W06
// 037   ----------------------------------------
	BYTE		        An2 
	BYTE	W06
	BYTE		        Bn2 
	BYTE	W06
	BYTE		        An2 
	BYTE	W06
	BYTE		        Bn2 
	BYTE	W06
	BYTE		        Cn3 
	BYTE	W06
	BYTE		        Bn2 
	BYTE	W06
	BYTE		        An2 
	BYTE	W06
	BYTE		        Cn3 
	BYTE	W06
	BYTE		        Bn2 
	BYTE	W06
	BYTE		        Cn3 
	BYTE	W06
	BYTE		        An2 
	BYTE	W06
	BYTE		        Cn3 
	BYTE	W06
	BYTE		        An2 
	BYTE	W06
	BYTE		        Bn2 
	BYTE	W06
	BYTE		        Cn3 
	BYTE	W06
	BYTE		        Bn2 
	BYTE	W06
// 038   ----------------------------------------
	BYTE		        Dn3 
	BYTE	W06
	BYTE		        Bn2 
	BYTE	W06
	BYTE		        Dn3 
	BYTE	W06
	BYTE		        Cn3 
	BYTE	W06
	BYTE		        Dn3 
	BYTE	W06
	BYTE		        Bn2 
	BYTE	W06
	BYTE		        Dn3 
	BYTE	W06
	BYTE		        Cn3 
	BYTE	W06
	BYTE		        Bn2 
	BYTE	W06
	BYTE		        Dn3 
	BYTE	W06
	BYTE		        Bn2 
	BYTE	W06
	BYTE		        Dn3 
	BYTE	W06
	BYTE		        Cn3 
	BYTE	W06
	BYTE		        Dn3 
	BYTE	W06
	BYTE		        Bn2 
	BYTE	W06
	BYTE		N02     Fn3 
	BYTE	W06
// 039   ----------------------------------------
	BYTE		N28     Fs3 
	BYTE	W32
	BYTE		BEND    c_v-4
	BYTE	W01
	BYTE		        c_v-9
	BYTE	W01
	BYTE		        c_v-12
	BYTE	W01
	BYTE		        c_v-9
	BYTE	W01
	BYTE		N14     En3 
	BYTE	W01
	BYTE		BEND    c_v-7
	BYTE	W01
	BYTE		        c_v-4
	BYTE	W02
	BYTE		        c_v+0
	BYTE	W12
	BYTE		        c_v-4
	BYTE	W01
	BYTE		        c_v-8
	BYTE	W01
	BYTE		        c_v-12
	BYTE	W01
	BYTE		        c_v-20
	BYTE	W01
	BYTE		        c_v-23
	BYTE	W01
	BYTE		        c_v-27
	BYTE	W01
	BYTE		        c_v-36
	BYTE	W01
	BYTE		        c_v-39
	BYTE	W01
	BYTE		        c_v-34
	BYTE		N28     Cn3 
	BYTE	W01
	BYTE		BEND    c_v-23
	BYTE	W01
	BYTE		        c_v-18
	BYTE	W01
	BYTE		        c_v-12
	BYTE	W01
	BYTE		        c_v+0
	BYTE	W32
// 040   ----------------------------------------
	BYTE		N68     Gn2 
	BYTE	W72
	BYTE		N04     Cn3 
	BYTE	W06
	BYTE		        Dn3 
	BYTE	W06
	BYTE		        En3 
	BYTE	W06
	BYTE		        Fs3 
	BYTE	W06
// 041   ----------------------------------------
	BYTE		N56     Gn3 
	BYTE	W60
	BYTE		N04     Cn3 
	BYTE	W06
	BYTE		        Dn3 
	BYTE	W06
	BYTE		        En3 
	BYTE	W06
	BYTE		        Fs3 
	BYTE	W06
	BYTE		N10     Gn3 
	BYTE	W12
// 042   ----------------------------------------
	BYTE		N04     En3 
	BYTE	W06
	BYTE		        Fs3 
	BYTE	W06
	BYTE		        Dn3 
	BYTE	W06
	BYTE		        En3 
	BYTE	W06
	BYTE		        Cn3 
	BYTE	W06
	BYTE		        Dn3 
	BYTE	W06
	BYTE		        En3 
	BYTE	W06
	BYTE		        Fs3 
	BYTE	W06
	BYTE		        En3 
	BYTE	W06
	BYTE		        Cn3 
	BYTE	W06
	BYTE		        Dn3 
	BYTE	W06
	BYTE		        Fs3 
	BYTE	W06
	BYTE		        Cn3 
	BYTE	W06
	BYTE		        Dn3 
	BYTE	W06
	BYTE		        Fs3 
	BYTE	W06
	BYTE		        En3 
	BYTE	W06
// 043   ----------------------------------------
	BYTE		        Fs3 
	BYTE	W06
	BYTE		        En3 
	BYTE	W06
	BYTE		N10     Dn3 
	BYTE	W12
	BYTE		        Cn3 
	BYTE	W12
	BYTE		        An2 
	BYTE	W12
	BYTE		N04     Cn3 
	BYTE	W06
	BYTE		        Bn2 
	BYTE	W06
	BYTE		        An2 
	BYTE	W06
	BYTE		        Gn2 
	BYTE	W06
	BYTE		        Fs2 
	BYTE	W06
	BYTE		        Bn2 
	BYTE	W06
	BYTE		        Gn2 
	BYTE	W06
	BYTE		        An2 
	BYTE	W06
// 044   ----------------------------------------
	BYTE		        Gn2 
	BYTE	W06
	BYTE		        An2 
	BYTE	W06
	BYTE		        Gn2 
	BYTE	W06
	BYTE		        An2 
	BYTE	W06
	BYTE		N40     Gn2 
	BYTE	W48
	BYTE		N04     Bn2 
	BYTE	W06
	BYTE		        Cn3 
	BYTE	W06
	BYTE		        Dn3 
	BYTE	W06
	BYTE		        En3 
	BYTE	W06
// 045   ----------------------------------------
	BYTE		N10     Fs3 
	BYTE	W12
	BYTE		N04     Cn3 
	BYTE	W06
	BYTE		        Dn3 
	BYTE	W06
	BYTE		        En3 
	BYTE	W06
	BYTE		        Fs3 
	BYTE	W06
	BYTE		        En3 
	BYTE	W06
	BYTE		        Dn3 
	BYTE	W06
	BYTE		        Cn3 
	BYTE	W06
	BYTE		        An2 
	BYTE	W06
	BYTE		        Cn3 
	BYTE	W06
	BYTE		        Gn2 
	BYTE	W06
	BYTE		        En2 
	BYTE	W06
	BYTE		        Fs2 
	BYTE	W06
	BYTE		        Gn2 
	BYTE	W06
	BYTE		        En2 
	BYTE	W06
// 046   ----------------------------------------
	BYTE		        Fs2 
	BYTE	W06
	BYTE		        Gn2 
	BYTE	W06
	BYTE		        Fs2 
	BYTE	W06
	BYTE		        Gn2 
	BYTE	W06
	BYTE		        Fs2 
	BYTE	W06
	BYTE		        En2 
	BYTE	W06
	BYTE		N10     Bn1 
	BYTE	W12
	BYTE		        Dn2 
	BYTE	W12
	BYTE		        En2 
	BYTE	W12
	BYTE		N04     An2 
	BYTE	W06
	BYTE		        Fs2 
	BYTE	W06
	BYTE		        Gn2 
	BYTE	W06
	BYTE		        Fs2 
	BYTE	W06
// 047   ----------------------------------------
	BYTE		        En2 
	BYTE	W06
	BYTE		        Dn2 
	BYTE	W06
	BYTE		        Cn2 
	BYTE	W06
	BYTE		        Dn2 
	BYTE	W06
	BYTE		        Gn2 
	BYTE	W06
	BYTE		        Fs2 
	BYTE	W06
	BYTE		        Gn2 
	BYTE	W06
	BYTE		        Fs2 
	BYTE	W06
	BYTE		        En2 
	BYTE	W06
	BYTE		        Fs2 
	BYTE	W06
	BYTE		        Gn2 
	BYTE	W06
	BYTE		N28     Bn2 
	BYTE	W28
	BYTE		BEND    c_v+0
	BYTE	W02
	BYTE	GoTo
	 POIN2	Taisen4_3_B1
Taisen4_3_B2:
// 048   ----------------------------------------
	BYTE	FINE

//**************** Track 4 (Midi-Chn.5) ****************//

Taisen4_4:
	BYTE	KEYSH   Taisen4_key+0
Taisen4_4_B1:
// 000   ----------------------------------------
	BYTE		VOICE   13
	BYTE		VOL     45*Taisen4_mvl/mxv
	BYTE		PAN     c_v-41
	BYTE		MOD     5
	BYTE		BEND    c_v+0
	BYTE	W02
	BYTE		N05     Bn3   v108
	BYTE	W92
	BYTE	W02
// 001   ----------------------------------------
	BYTE	W96
// 002   ----------------------------------------
	BYTE	W72
	BYTE		BEND    c_v+0
	BYTE	W24
// 003   ----------------------------------------
	BYTE	W96
// 004   ----------------------------------------
	BYTE	W96
// 005   ----------------------------------------
	BYTE	W96
// 006   ----------------------------------------
	BYTE	W96
// 007   ----------------------------------------
	BYTE	W96
// 008   ----------------------------------------
	BYTE	W96
// 009   ----------------------------------------
	BYTE	W96
// 010   ----------------------------------------
	BYTE	W96
// 011   ----------------------------------------
	BYTE	W96
// 012   ----------------------------------------
	BYTE	W96
// 013   ----------------------------------------
	BYTE	W96
// 014   ----------------------------------------
	BYTE	W96
// 015   ----------------------------------------
	BYTE	W96
// 016   ----------------------------------------
Taisen4_4_016:
	BYTE	W06
	BYTE		N06     Cn4   v100
	BYTE	W06
	BYTE		        Gn3 
	BYTE	W06
	BYTE		        En3 
	BYTE	W06
	BYTE		        Cn3 
	BYTE	W06
	BYTE		        Cn4 
	BYTE	W06
	BYTE		        En4 
	BYTE	W06
	BYTE		        Gn4 
	BYTE	W06
	BYTE		        Cn5 
	BYTE	W06
	BYTE		        Cn3 
	BYTE	W06
	BYTE		        En3 
	BYTE	W06
	BYTE		        Gn3 
	BYTE	W06
	BYTE		        Cn4 
	BYTE	W06
	BYTE		        Cn5 
	BYTE	W06
	BYTE		        Gn4 
	BYTE	W06
	BYTE		        En4 
	BYTE	W06
	BYTE	PEND
// 017   ----------------------------------------
Taisen4_4_017:
	BYTE		N06     Cn4   v100
	BYTE	W06
	BYTE		        Dn4 
	BYTE	W06
	BYTE		        An3 
	BYTE	W06
	BYTE		        Fs3 
	BYTE	W06
	BYTE		        Dn3 
	BYTE	W06
	BYTE		        Dn4 
	BYTE	W06
	BYTE		        Fs4 
	BYTE	W06
	BYTE		        An4 
	BYTE	W06
	BYTE		        Dn5 
	BYTE	W06
	BYTE		        Dn3 
	BYTE	W06
	BYTE		        Fs3 
	BYTE	W06
	BYTE		        An3 
	BYTE	W06
	BYTE		        Dn4 
	BYTE	W06
	BYTE		        Dn5 
	BYTE	W06
	BYTE		        An4 
	BYTE	W06
	BYTE		        Fs4 
	BYTE	W06
	BYTE	PEND
// 018   ----------------------------------------
Taisen4_4_018:
	BYTE		N06     Dn4   v100
	BYTE	W06
	BYTE		        Bn3 
	BYTE	W06
	BYTE		        Fs3 
	BYTE	W06
	BYTE		        Dn3 
	BYTE	W06
	BYTE		        Bn2 
	BYTE	W06
	BYTE		        Bn3 
	BYTE	W06
	BYTE		        Dn4 
	BYTE	W06
	BYTE		        Fs4 
	BYTE	W06
	BYTE		        Bn4 
	BYTE	W06
	BYTE		        Bn2 
	BYTE	W06
	BYTE		        Dn3 
	BYTE	W06
	BYTE		        Fs3 
	BYTE	W06
	BYTE		        Bn3 
	BYTE	W06
	BYTE		        Bn4 
	BYTE	W06
	BYTE		        Fs4 
	BYTE	W06
	BYTE		        Dn4 
	BYTE	W06
	BYTE	PEND
// 019   ----------------------------------------
Taisen4_4_019:
	BYTE		N06     Bn3   v100
	BYTE	W06
	BYTE		        Gn2 
	BYTE	W06
	BYTE		        Bn2 
	BYTE	W06
	BYTE		        En3 
	BYTE	W06
	BYTE		        Gn3 
	BYTE	W06
	BYTE		        Bn2 
	BYTE	W06
	BYTE		        En3 
	BYTE	W06
	BYTE		        Gn3 
	BYTE	W06
	BYTE		        Bn3 
	BYTE	W06
	BYTE		        En3 
	BYTE	W06
	BYTE		        Gn3 
	BYTE	W06
	BYTE		        Bn3 
	BYTE	W06
	BYTE		        En4 
	BYTE	W06
	BYTE		        Gn3 
	BYTE	W06
	BYTE		        Bn3 
	BYTE	W06
	BYTE		        En4 
	BYTE	W06
	BYTE	PEND
// 020   ----------------------------------------
Taisen4_4_020:
	BYTE		N06     Gn4   v100
	BYTE	W06
	BYTE		        Cn4 
	BYTE	W06
	BYTE		        Gn3 
	BYTE	W06
	BYTE		        En3 
	BYTE	W06
	BYTE		        Cn3 
	BYTE	W06
	BYTE		        Cn4 
	BYTE	W06
	BYTE		        En4 
	BYTE	W06
	BYTE		        Gn4 
	BYTE	W06
	BYTE		        Cn5 
	BYTE	W06
	BYTE		        Cn3 
	BYTE	W06
	BYTE		        En3 
	BYTE	W06
	BYTE		        Gn3 
	BYTE	W06
	BYTE		        Cn4 
	BYTE	W06
	BYTE		        Cn5 
	BYTE	W06
	BYTE		        Gn4 
	BYTE	W06
	BYTE		        En4 
	BYTE	W06
	BYTE	PEND
// 021   ----------------------------------------
	BYTE		        Cn4 
	BYTE	W06
	BYTE		        Bn2 
	BYTE	W06
	BYTE		        Dn3 
	BYTE	W06
	BYTE		        Fs3 
	BYTE	W06
	BYTE		        An3 
	BYTE	W06
	BYTE		        Fs3 
	BYTE	W06
	BYTE		        An3 
	BYTE	W06
	BYTE		        Dn4 
	BYTE	W06
	BYTE		        Fs4 
	BYTE	W06
	BYTE		        An4 
	BYTE	W06
	BYTE		        Fs4 
	BYTE	W06
	BYTE		        Dn4 
	BYTE	W06
	BYTE		        An3 
	BYTE	W06
	BYTE		        Fs3 
	BYTE	W06
	BYTE		        An3 
	BYTE	W06
	BYTE		        Fs3 
	BYTE	W06
// 022   ----------------------------------------
	BYTE		        Dn3 
	BYTE	W06
	BYTE		        Bn3 
	BYTE	W06
	BYTE		        Gn3 
	BYTE	W06
	BYTE		        Dn3 
	BYTE	W06
	BYTE		        Bn2 
	BYTE	W06
	BYTE		        Bn3 
	BYTE	W06
	BYTE		        Dn4 
	BYTE	W06
	BYTE		        Gn4 
	BYTE	W06
	BYTE		        Bn4 
	BYTE	W06
	BYTE		        Bn2 
	BYTE	W06
	BYTE		        Dn3 
	BYTE	W06
	BYTE		        Gn3 
	BYTE	W06
	BYTE		        Bn3 
	BYTE	W06
	BYTE		        Bn4 
	BYTE	W06
	BYTE		        Gn4 
	BYTE	W06
	BYTE		        Dn4 
	BYTE	W06
// 023   ----------------------------------------
	BYTE		        Bn3 
	BYTE	W06
	BYTE		        Gn2 
	BYTE	W06
	BYTE		        Bn2 
	BYTE	W06
	BYTE		        Dn3 
	BYTE	W06
	BYTE		        Gn3 
	BYTE	W06
	BYTE		        Bn2 
	BYTE	W06
	BYTE		        Dn3 
	BYTE	W06
	BYTE		        Gn3 
	BYTE	W06
	BYTE		        Bn3 
	BYTE	W06
	BYTE		        Dn3 
	BYTE	W06
	BYTE		        Gn3 
	BYTE	W06
	BYTE		        Bn3 
	BYTE	W06
	BYTE		        Dn4 
	BYTE	W06
	BYTE		        Gn3 
	BYTE	W06
	BYTE		        Bn3 
	BYTE	W06
	BYTE		        Dn4 
	BYTE	W06
// 024   ----------------------------------------
	BYTE	PATT
	 POIN2	Taisen4_4_016
// 025   ----------------------------------------
	BYTE	PATT
	 POIN2	Taisen4_4_017
// 026   ----------------------------------------
	BYTE	PATT
	 POIN2	Taisen4_4_018
// 027   ----------------------------------------
	BYTE	PATT
	 POIN2	Taisen4_4_019
// 028   ----------------------------------------
	BYTE	PATT
	 POIN2	Taisen4_4_020
// 029   ----------------------------------------
	BYTE		N06     Cn4   v100
	BYTE	W06
	BYTE		N06   
	BYTE	W06
	BYTE		        Gn3 
	BYTE	W06
	BYTE		        En3 
	BYTE	W06
	BYTE		        Cn3 
	BYTE	W06
	BYTE		        Cn4 
	BYTE	W06
	BYTE		        En4 
	BYTE	W06
	BYTE		        Gn4 
	BYTE	W06
	BYTE		        Cn5 
	BYTE	W06
	BYTE		        Cn3 
	BYTE	W06
	BYTE		        En3 
	BYTE	W06
	BYTE		        Gn3 
	BYTE	W06
	BYTE		        Cn4 
	BYTE	W06
	BYTE		        Cn5 
	BYTE	W06
	BYTE		        Gn4 
	BYTE	W06
	BYTE		        En4 
	BYTE	W06
// 030   ----------------------------------------
	BYTE		        Cn4 
	BYTE	W06
	BYTE		        Bn2 
	BYTE	W06
	BYTE		        Ds3 
	BYTE	W06
	BYTE		        Fs3 
	BYTE	W06
	BYTE		        Bn3 
	BYTE	W06
	BYTE		        Fs3 
	BYTE	W06
	BYTE		        Bn3 
	BYTE	W06
	BYTE		        Ds4 
	BYTE	W06
	BYTE		        Fs4 
	BYTE	W06
	BYTE		        Bn3 
	BYTE	W06
	BYTE		        Ds4 
	BYTE	W06
	BYTE		        Fs4 
	BYTE	W06
	BYTE		        Bn4 
	BYTE	W06
	BYTE		        Ds4 
	BYTE	W06
	BYTE		        Fs4 
	BYTE	W06
	BYTE		        Bn4 
	BYTE	W06
// 031   ----------------------------------------
	BYTE		        Ds5 
	BYTE	W06
	BYTE		        Ds5   v036
	BYTE	W21
	BYTE		BEND    c_v+63
	BYTE	W01
	BYTE		N68     Bn5   v127
	BYTE	W01
	BYTE		BEND    c_v+63
	BYTE	W01
	BYTE		        c_v+63
	BYTE	W02
	BYTE		        c_v+63
	BYTE	W01
	BYTE		        c_v+62
	BYTE	W02
	BYTE		        c_v+60
	BYTE	W01
	BYTE		        c_v+56
	BYTE	W02
	BYTE		        c_v+53
	BYTE	W01
	BYTE		        c_v+50
	BYTE	W02
	BYTE		        c_v+47
	BYTE	W01
	BYTE		        c_v+44
	BYTE	W02
	BYTE		        c_v+41
	BYTE	W01
	BYTE		        c_v+37
	BYTE	W02
	BYTE		        c_v+35
	BYTE	W01
	BYTE		        c_v+31
	BYTE	W02
	BYTE		        c_v+27
	BYTE	W01
	BYTE		        c_v+24
	BYTE	W02
	BYTE		        c_v+21
	BYTE	W01
	BYTE		        c_v+17
	BYTE	W02
	BYTE		        c_v+14
	BYTE	W01
	BYTE		        c_v+10
	BYTE	W02
	BYTE		        c_v+7
	BYTE	W01
	BYTE		        c_v+3
	BYTE	W02
	BYTE		        c_v+0
	BYTE	W01
	BYTE		        c_v-4
	BYTE	W02
	BYTE		        c_v-8
	BYTE	W01
	BYTE		        c_v-11
	BYTE	W02
	BYTE		        c_v-15
	BYTE	W01
	BYTE		        c_v-18
	BYTE	W02
	BYTE		        c_v-22
	BYTE	W01
	BYTE		        c_v-25
	BYTE	W02
	BYTE		        c_v-28
	BYTE	W01
	BYTE		        c_v-32
	BYTE	W02
	BYTE		        c_v-36
	BYTE	W01
	BYTE		        c_v-38
	BYTE	W02
	BYTE		        c_v-42
	BYTE	W01
	BYTE		        c_v-45
	BYTE	W02
	BYTE		        c_v-48
	BYTE	W01
	BYTE		        c_v-51
	BYTE	W02
	BYTE		        c_v-54
	BYTE	W01
	BYTE		        c_v-57
	BYTE	W02
	BYTE		        c_v-61
	BYTE	W01
	BYTE		        c_v-63
	BYTE	W02
	BYTE		        c_v-64
	BYTE	W01
	BYTE		        c_v-64
	BYTE	W02
	BYTE		        c_v+0
	BYTE	W01
// 032   ----------------------------------------
	BYTE		        c_v-64
	BYTE	W01
	BYTE		        c_v-56
	BYTE	W01
	BYTE		        c_v-13
	BYTE	W01
	BYTE		        c_v+0
	BYTE	W92
	BYTE	W01
// 033   ----------------------------------------
	BYTE	W96
// 034   ----------------------------------------
	BYTE	W96
// 035   ----------------------------------------
	BYTE	W96
// 036   ----------------------------------------
	BYTE	W96
// 037   ----------------------------------------
	BYTE	W96
// 038   ----------------------------------------
	BYTE	W96
// 039   ----------------------------------------
	BYTE	W32
	BYTE		        c_v-4
	BYTE	W01
	BYTE		        c_v-9
	BYTE	W01
	BYTE		        c_v-12
	BYTE	W01
	BYTE		        c_v-9
	BYTE	W02
	BYTE		        c_v-7
	BYTE	W01
	BYTE		        c_v-4
	BYTE	W02
	BYTE		        c_v+0
	BYTE	W12
	BYTE		        c_v-4
	BYTE	W01
	BYTE		        c_v-8
	BYTE	W01
	BYTE		        c_v-12
	BYTE	W01
	BYTE		        c_v-20
	BYTE	W01
	BYTE		        c_v-23
	BYTE	W01
	BYTE		        c_v-27
	BYTE	W01
	BYTE		        c_v-36
	BYTE	W01
	BYTE		        c_v-39
	BYTE	W01
	BYTE		        c_v-34
	BYTE	W01
	BYTE		        c_v-23
	BYTE	W01
	BYTE		        c_v-18
	BYTE	W01
	BYTE		        c_v-12
	BYTE	W01
	BYTE		        c_v+0
	BYTE	W32
// 040   ----------------------------------------
	BYTE	W96
// 041   ----------------------------------------
	BYTE	W96
// 042   ----------------------------------------
	BYTE	W96
// 043   ----------------------------------------
	BYTE	W96
// 044   ----------------------------------------
	BYTE	W96
// 045   ----------------------------------------
	BYTE	W96
// 046   ----------------------------------------
	BYTE	W96
// 047   ----------------------------------------
	BYTE	W96
	BYTE	GoTo
	 POIN2	Taisen4_4_B1
Taisen4_4_B2:
// 048   ----------------------------------------
	BYTE	FINE

//**************** Track 5 (Midi-Chn.6) ****************//

Taisen4_5:
	BYTE	KEYSH   Taisen4_key+0
Taisen4_5_B1:
// 000   ----------------------------------------
	BYTE		VOICE   10
	BYTE		PAN     c_v-18
	BYTE		VOL     28*Taisen4_mvl/mxv
	BYTE		MOD     2
	BYTE		BEND    c_v+0
	BYTE	W96
// 001   ----------------------------------------
	BYTE	W96
// 002   ----------------------------------------
	BYTE	W96
// 003   ----------------------------------------
	BYTE	W96
// 004   ----------------------------------------
	BYTE	W96
// 005   ----------------------------------------
	BYTE	W96
// 006   ----------------------------------------
	BYTE	W96
// 007   ----------------------------------------
	BYTE	W96
// 008   ----------------------------------------
	BYTE	W96
// 009   ----------------------------------------
	BYTE	W96
// 010   ----------------------------------------
	BYTE	W96
// 011   ----------------------------------------
	BYTE	W96
// 012   ----------------------------------------
	BYTE	W96
// 013   ----------------------------------------
	BYTE	W96
// 014   ----------------------------------------
	BYTE	W96
// 015   ----------------------------------------
	BYTE	W96
// 016   ----------------------------------------
Taisen4_5_016:
	BYTE		N05     Cn4   v127
	BYTE	W06
	BYTE		        Gn3 
	BYTE	W06
	BYTE		        En3 
	BYTE	W06
	BYTE		        Cn3 
	BYTE	W06
	BYTE		        Cn4 
	BYTE	W06
	BYTE		        En4 
	BYTE	W06
	BYTE		        Gn4 
	BYTE	W06
	BYTE		        Cn5 
	BYTE	W06
	BYTE		        Cn3 
	BYTE	W06
	BYTE		        En3 
	BYTE	W06
	BYTE		        Gn3 
	BYTE	W06
	BYTE		        Cn4 
	BYTE	W06
	BYTE		        Cn5 
	BYTE	W06
	BYTE		        Gn4 
	BYTE	W06
	BYTE		        En4 
	BYTE	W06
	BYTE		        Cn4 
	BYTE	W06
	BYTE	PEND
// 017   ----------------------------------------
Taisen4_5_017:
	BYTE		N05     Dn4   v127
	BYTE	W06
	BYTE		        An3 
	BYTE	W06
	BYTE		        Fs3 
	BYTE	W06
	BYTE		        Dn3 
	BYTE	W06
	BYTE		        Dn4 
	BYTE	W06
	BYTE		        Fs4 
	BYTE	W06
	BYTE		        An4 
	BYTE	W06
	BYTE		        Dn5 
	BYTE	W06
	BYTE		        Dn3 
	BYTE	W06
	BYTE		        Fs3 
	BYTE	W06
	BYTE		        An3 
	BYTE	W06
	BYTE		        Dn4 
	BYTE	W06
	BYTE		        Dn5 
	BYTE	W06
	BYTE		        An4 
	BYTE	W06
	BYTE		        Fs4 
	BYTE	W06
	BYTE		        Dn4 
	BYTE	W06
	BYTE	PEND
// 018   ----------------------------------------
Taisen4_5_018:
	BYTE		N05     Bn3   v127
	BYTE	W06
	BYTE		        Fs3 
	BYTE	W06
	BYTE		        Dn3 
	BYTE	W06
	BYTE		        Bn2 
	BYTE	W06
	BYTE		        Bn3 
	BYTE	W06
	BYTE		        Dn4 
	BYTE	W06
	BYTE		        Fs4 
	BYTE	W06
	BYTE		        Bn4 
	BYTE	W06
	BYTE		        Bn2 
	BYTE	W06
	BYTE		        Dn3 
	BYTE	W06
	BYTE		        Fs3 
	BYTE	W06
	BYTE		        Bn3 
	BYTE	W06
	BYTE		        Bn4 
	BYTE	W06
	BYTE		        Fs4 
	BYTE	W06
	BYTE		        Dn4 
	BYTE	W06
	BYTE		        Bn3 
	BYTE	W06
	BYTE	PEND
// 019   ----------------------------------------
Taisen4_5_019:
	BYTE		N05     Gn2   v127
	BYTE	W06
	BYTE		        Bn2 
	BYTE	W06
	BYTE		        En3 
	BYTE	W06
	BYTE		        Gn3 
	BYTE	W06
	BYTE		        Bn2 
	BYTE	W06
	BYTE		        En3 
	BYTE	W06
	BYTE		        Gn3 
	BYTE	W06
	BYTE		        Bn3 
	BYTE	W06
	BYTE		        En3 
	BYTE	W06
	BYTE		        Gn3 
	BYTE	W06
	BYTE		        Bn3 
	BYTE	W06
	BYTE		        En4 
	BYTE	W06
	BYTE		        Gn3 
	BYTE	W06
	BYTE		        Bn3 
	BYTE	W06
	BYTE		        En4 
	BYTE	W06
	BYTE		        Gn4 
	BYTE	W06
	BYTE	PEND
// 020   ----------------------------------------
	BYTE	PATT
	 POIN2	Taisen4_5_016
// 021   ----------------------------------------
	BYTE		N05     Bn2   v127
	BYTE	W06
	BYTE		        Dn3 
	BYTE	W06
	BYTE		        Fs3 
	BYTE	W06
	BYTE		        An3 
	BYTE	W06
	BYTE		        Fs3 
	BYTE	W06
	BYTE		        An3 
	BYTE	W06
	BYTE		        Dn4 
	BYTE	W06
	BYTE		        Fs4 
	BYTE	W06
	BYTE		        An4 
	BYTE	W06
	BYTE		        Fs4 
	BYTE	W06
	BYTE		        Dn4 
	BYTE	W06
	BYTE		        An3 
	BYTE	W06
	BYTE		        Fs3 
	BYTE	W06
	BYTE		        An3 
	BYTE	W06
	BYTE		        Fs3 
	BYTE	W06
	BYTE		        Dn3 
	BYTE	W06
// 022   ----------------------------------------
	BYTE		        Bn3 
	BYTE	W06
	BYTE		        Gn3 
	BYTE	W06
	BYTE		        Dn3 
	BYTE	W06
	BYTE		        Bn2 
	BYTE	W06
	BYTE		        Bn3 
	BYTE	W06
	BYTE		        Dn4 
	BYTE	W06
	BYTE		        Gn4 
	BYTE	W06
	BYTE		        Bn4 
	BYTE	W06
	BYTE		        Bn2 
	BYTE	W06
	BYTE		        Dn3 
	BYTE	W06
	BYTE		        Gn3 
	BYTE	W06
	BYTE		        Bn3 
	BYTE	W06
	BYTE		        Bn4 
	BYTE	W06
	BYTE		        Gn4 
	BYTE	W06
	BYTE		        Dn4 
	BYTE	W06
	BYTE		        Bn3 
	BYTE	W06
// 023   ----------------------------------------
	BYTE		        Gn2 
	BYTE	W06
	BYTE		        Bn2 
	BYTE	W06
	BYTE		        Dn3 
	BYTE	W06
	BYTE		        Gn3 
	BYTE	W06
	BYTE		        Bn2 
	BYTE	W06
	BYTE		        Dn3 
	BYTE	W06
	BYTE		        Gn3 
	BYTE	W06
	BYTE		        Bn3 
	BYTE	W06
	BYTE		        Dn3 
	BYTE	W06
	BYTE		        Gn3 
	BYTE	W06
	BYTE		        Bn3 
	BYTE	W06
	BYTE		        Dn4 
	BYTE	W06
	BYTE		        Gn3 
	BYTE	W06
	BYTE		        Bn3 
	BYTE	W06
	BYTE		        Dn4 
	BYTE	W06
	BYTE		        Gn4 
	BYTE	W06
// 024   ----------------------------------------
	BYTE	PATT
	 POIN2	Taisen4_5_016
// 025   ----------------------------------------
	BYTE	PATT
	 POIN2	Taisen4_5_017
// 026   ----------------------------------------
	BYTE	PATT
	 POIN2	Taisen4_5_018
// 027   ----------------------------------------
	BYTE	PATT
	 POIN2	Taisen4_5_019
// 028   ----------------------------------------
	BYTE	PATT
	 POIN2	Taisen4_5_016
// 029   ----------------------------------------
	BYTE	PATT
	 POIN2	Taisen4_5_016
// 030   ----------------------------------------
	BYTE		N05     Bn2   v127
	BYTE	W06
	BYTE		        Ds3 
	BYTE	W06
	BYTE		        Fs3 
	BYTE	W06
	BYTE		        Bn3 
	BYTE	W06
	BYTE		        Fs3 
	BYTE	W06
	BYTE		        Bn3 
	BYTE	W06
	BYTE		        Ds4 
	BYTE	W06
	BYTE		        Fs4 
	BYTE	W06
	BYTE		        Bn3 
	BYTE	W06
	BYTE		        Ds4 
	BYTE	W06
	BYTE		        Fs4 
	BYTE	W06
	BYTE		        Bn4 
	BYTE	W06
	BYTE		        Ds4 
	BYTE	W06
	BYTE		        Fs4 
	BYTE	W06
	BYTE		        Bn4 
	BYTE	W06
	BYTE		N28     Ds5 
	BYTE	W06
// 031   ----------------------------------------
	BYTE	W23
	BYTE		BEND    c_v+0
	BYTE	W72
	BYTE	W01
// 032   ----------------------------------------
	BYTE	W96
// 033   ----------------------------------------
	BYTE	W96
// 034   ----------------------------------------
	BYTE	W96
// 035   ----------------------------------------
	BYTE	W96
// 036   ----------------------------------------
	BYTE	W96
// 037   ----------------------------------------
	BYTE	W96
// 038   ----------------------------------------
	BYTE	W96
// 039   ----------------------------------------
	BYTE	W96
// 040   ----------------------------------------
	BYTE	W96
// 041   ----------------------------------------
	BYTE	W96
// 042   ----------------------------------------
	BYTE	W96
// 043   ----------------------------------------
	BYTE	W96
// 044   ----------------------------------------
	BYTE	W96
// 045   ----------------------------------------
	BYTE	W96
// 046   ----------------------------------------
	BYTE	W96
// 047   ----------------------------------------
	BYTE	W96
	BYTE	GoTo
	 POIN2	Taisen4_5_B1
Taisen4_5_B2:
// 048   ----------------------------------------
	BYTE	FINE

//**************** Track 6 (Midi-Chn.7) ****************//

Taisen4_6:
	BYTE	KEYSH   Taisen4_key+0
Taisen4_6_B1:
// 000   ----------------------------------------
	BYTE		VOICE   31
	BYTE		VOL     47*Taisen4_mvl/mxv
	BYTE		PAN     c_v+0
	BYTE		BEND    c_v+0
	BYTE	W96
// 001   ----------------------------------------
	BYTE	W96
// 002   ----------------------------------------
	BYTE	W96
// 003   ----------------------------------------
	BYTE	W96
// 004   ----------------------------------------
	BYTE	W96
// 005   ----------------------------------------
	BYTE	W96
// 006   ----------------------------------------
	BYTE	W96
// 007   ----------------------------------------
	BYTE	W96
// 008   ----------------------------------------
	BYTE	W96
// 009   ----------------------------------------
	BYTE	W96
// 010   ----------------------------------------
	BYTE	W96
// 011   ----------------------------------------
	BYTE	W96
// 012   ----------------------------------------
	BYTE	W96
// 013   ----------------------------------------
	BYTE	W96
// 014   ----------------------------------------
	BYTE	W96
// 015   ----------------------------------------
	BYTE	W96
// 016   ----------------------------------------
	BYTE	W96
// 017   ----------------------------------------
	BYTE	W96
// 018   ----------------------------------------
	BYTE	W96
// 019   ----------------------------------------
	BYTE	W96
// 020   ----------------------------------------
	BYTE	W96
// 021   ----------------------------------------
	BYTE	W96
// 022   ----------------------------------------
	BYTE	W96
// 023   ----------------------------------------
	BYTE	W96
// 024   ----------------------------------------
	BYTE	W96
// 025   ----------------------------------------
	BYTE	W96
// 026   ----------------------------------------
	BYTE	W96
// 027   ----------------------------------------
	BYTE	W96
// 028   ----------------------------------------
	BYTE	W96
// 029   ----------------------------------------
	BYTE	W96
// 030   ----------------------------------------
	BYTE	W96
// 031   ----------------------------------------
	BYTE	W24
	BYTE		N68     Dn3   v127
	BYTE		N68     Ds3 
	BYTE	W68
	BYTE	W03
	BYTE		BEND    c_v+0
	BYTE	W01
// 032   ----------------------------------------
	BYTE	W96
// 033   ----------------------------------------
	BYTE	W96
// 034   ----------------------------------------
	BYTE	W96
// 035   ----------------------------------------
	BYTE	W96
// 036   ----------------------------------------
	BYTE	W96
// 037   ----------------------------------------
	BYTE	W96
// 038   ----------------------------------------
	BYTE	W96
// 039   ----------------------------------------
	BYTE	W96
// 040   ----------------------------------------
	BYTE	W96
// 041   ----------------------------------------
	BYTE	W96
// 042   ----------------------------------------
	BYTE	W96
// 043   ----------------------------------------
	BYTE	W96
// 044   ----------------------------------------
	BYTE	W96
// 045   ----------------------------------------
	BYTE	W96
// 046   ----------------------------------------
	BYTE	W96
// 047   ----------------------------------------
	BYTE	W96
	BYTE	GoTo
	 POIN2	Taisen4_6_B1
Taisen4_6_B2:
// 048   ----------------------------------------
	BYTE	FINE

//**************** Track 7 (Midi-Chn.8) ****************//

Taisen4_7:
	BYTE	KEYSH   Taisen4_key+0
Taisen4_7_B1:
// 000   ----------------------------------------
	BYTE		VOICE   61
	BYTE		MOD     2
	BYTE		VOL     86*Taisen4_mvl/mxv
	BYTE		PAN     c_v+30
	BYTE		BEND    c_v-55
	BYTE	W01
	BYTE		        c_v-60
	BYTE	W01
	BYTE		        c_v-63
	BYTE		N11     En3   v127
	BYTE	W02
	BYTE		BEND    c_v-64
	BYTE	W01
	BYTE		        c_v-64
	BYTE	W02
	BYTE		        c_v+0
	BYTE	W01
	BYTE		        c_v+1
	BYTE	W18
	BYTE		N10   
	BYTE	W12
	BYTE		N08     Dn3 
	BYTE	W12
	BYTE		N11     En3 
	BYTE	W12
	BYTE		N12     Dn3 
	BYTE	W12
	BYTE		        En3 
	BYTE	W12
	BYTE		N09     Gn3 
	BYTE	W10
// 001   ----------------------------------------
	BYTE	W02
	BYTE		N11     An3 
	BYTE	W12
	BYTE		N13     Bn3 
	BYTE	W12
	BYTE		N08     An3 
	BYTE	W12
	BYTE		        Gn3 
	BYTE	W12
	BYTE		N36     En3 
	BYTE	W44
	BYTE	W02
// 002   ----------------------------------------
	BYTE	W02
	BYTE		N14     Dn3 
	BYTE	W24
	BYTE		N11   
	BYTE	W12
	BYTE		N12     Cn3 
	BYTE	W12
	BYTE		N11     Dn3 
	BYTE	W12
	BYTE		N10     En3 
	BYTE	W12
	BYTE		        Dn3 
	BYTE	W12
	BYTE		N14     En3 
	BYTE	W10
// 003   ----------------------------------------
	BYTE	W02
	BYTE		N13     Dn3 
	BYTE	W12
	BYTE		N10     En3 
	BYTE	W12
	BYTE		N09     Dn3 
	BYTE	W12
	BYTE		N11     En3 
	BYTE	W12
	BYTE		N42     Bn2 
	BYTE	W44
	BYTE	W02
// 004   ----------------------------------------
	BYTE	W02
	BYTE		N11     En3 
	BYTE	W24
	BYTE		N10   
	BYTE	W12
	BYTE		N08     Dn3 
	BYTE	W12
	BYTE		N11     En3 
	BYTE	W12
	BYTE		N12     Dn3 
	BYTE	W12
	BYTE		N07     En3 
	BYTE	W12
	BYTE		N09     Gn3 
	BYTE	W10
// 005   ----------------------------------------
	BYTE	W02
	BYTE		N11     An3 
	BYTE	W12
	BYTE		N10     Bn3 
	BYTE	W12
	BYTE		N08     An3 
	BYTE	W12
	BYTE		        Gn3 
	BYTE	W12
	BYTE		N36     En3 
	BYTE	W44
	BYTE	W02
// 006   ----------------------------------------
	BYTE	W02
	BYTE		N14     Dn3 
	BYTE	W24
	BYTE		N11   
	BYTE	W12
	BYTE		N12     Bn2 
	BYTE	W12
	BYTE		N11     Dn3 
	BYTE	W12
	BYTE		N10     Bn2 
	BYTE	W12
	BYTE		        Dn3 
	BYTE	W12
	BYTE		N13     Gn3 
	BYTE	W10
// 007   ----------------------------------------
	BYTE	W14
	BYTE		N12     Fs3 
	BYTE	W12
	BYTE		N10     Dn3 
	BYTE	W12
	BYTE		N09     Bn2 
	BYTE	W12
	BYTE		N11     Dn3 
	BYTE	W12
	BYTE		N28     Fs3 
	BYTE	W32
	BYTE	W02
// 008   ----------------------------------------
	BYTE	W02
	BYTE		N19     Bn3 
	BYTE	W24
	BYTE		N14     Dn4 
	BYTE	W24
	BYTE		        Cn4 
	BYTE	W24
	BYTE		N07     An3 
	BYTE	W12
	BYTE		N16     Bn3 
	BYTE	W10
// 009   ----------------------------------------
	BYTE	W14
	BYTE		N13     Dn4 
	BYTE	W24
	BYTE		N16     Cn4 
	BYTE	W24
	BYTE		N24     An3 
	BYTE	W32
	BYTE	W02
// 010   ----------------------------------------
	BYTE	W02
	BYTE		N13     Bn3 
	BYTE	W24
	BYTE		        Dn4 
	BYTE	W24
	BYTE		N08     Cn4 
	BYTE	W12
	BYTE		N10     Bn3 
	BYTE	W12
	BYTE		N05     An3 
	BYTE	W12
	BYTE		N23     Bn3 
	BYTE	W10
// 011   ----------------------------------------
	BYTE	W14
	BYTE		N06     An3 
	BYTE	W12
	BYTE		        Gn3 
	BYTE	W12
	BYTE		N44     Fs3 
	BYTE	W56
	BYTE	W02
// 012   ----------------------------------------
	BYTE	W02
	BYTE		N12     Bn3 
	BYTE	W24
	BYTE		N09     Dn4 
	BYTE	W24
	BYTE		N12     Cn4 
	BYTE	W12
	BYTE		N06     Bn3 
	BYTE	W12
	BYTE		N05     An3 
	BYTE	W12
	BYTE		N21     Bn3 
	BYTE	W10
// 013   ----------------------------------------
	BYTE	W24
	BYTE	W02
	BYTE		N12     Dn4 
	BYTE	W24
	BYTE		N09     Cn4 
	BYTE	W12
	BYTE		N05     Bn3 
	BYTE	W12
	BYTE		N07     An3 
	BYTE	W12
	BYTE		N24     Bn3 
	BYTE	W10
// 014   ----------------------------------------
	BYTE	W24
	BYTE	W02
	BYTE		N11     Dn4 
	BYTE	W24
	BYTE		N09     Cn4 
	BYTE	W12
	BYTE		N10     Bn3 
	BYTE	W12
	BYTE		N06     An3 
	BYTE	W12
	BYTE		N19     Bn3 
	BYTE	W10
// 015   ----------------------------------------
	BYTE	W14
	BYTE		N11     An3 
	BYTE	W12
	BYTE		N09     Gn3 
	BYTE	W12
	BYTE		N17     An3 
	BYTE	W24
	BYTE		N11     Gn3 
	BYTE	W12
	BYTE		N17     Fs3 
	BYTE	W20
	BYTE		N36     En3 
	BYTE	W02
// 016   ----------------------------------------
	BYTE	W03
	BYTE		BEND    c_v-50
	BYTE	W04
	BYTE		        c_v+0
	BYTE	W36
	BYTE	W03
	BYTE		N09   
	BYTE	W12
	BYTE		        Fs3 
	BYTE	W12
	BYTE		N05     Gn3 
	BYTE	W12
	BYTE		N90     Fs3 
	BYTE	W14
// 017   ----------------------------------------
Taisen4_7_017:
	BYTE	W92
	BYTE	W02
	BYTE		N32     Fs3   v127
	BYTE	W02
	BYTE	PEND
// 018   ----------------------------------------
	BYTE	W44
	BYTE	W02
	BYTE		N11   
	BYTE	W12
	BYTE		N07     Gn3 
	BYTE	W12
	BYTE		N06     An3 
	BYTE	W12
	BYTE		N92     Gn3 
	BYTE	W14
// 019   ----------------------------------------
	BYTE	W92
	BYTE	W02
	BYTE		N32     En3 
	BYTE	W02
// 020   ----------------------------------------
	BYTE	W44
	BYTE	W02
	BYTE		N11   
	BYTE	W12
	BYTE		N06     Fs3 
	BYTE	W12
	BYTE		N08     Gn3 
	BYTE	W12
	BYTE		N84     Fs3 
	BYTE	W14
// 021   ----------------------------------------
	BYTE	PATT
	 POIN2	Taisen4_7_017
// 022   ----------------------------------------
	BYTE	W44
	BYTE	W02
	BYTE		N11     Fs3   v127
	BYTE	W12
	BYTE		N06     Gn3 
	BYTE	W12
	BYTE		N07     An3 
	BYTE	W12
	BYTE		N32     Bn3 
	BYTE	W14
// 023   ----------------------------------------
	BYTE	W22
	BYTE		N06     An3 
	BYTE	W12
	BYTE		N13     Gn3 
	BYTE	W24
	BYTE		N28     Dn4 
	BYTE	W36
	BYTE		N02     An3 
	BYTE	W02
// 024   ----------------------------------------
	BYTE	W01
	BYTE		N36     Bn3 
	BYTE	W44
	BYTE	W01
	BYTE		N11     Gn3 
	BYTE	W12
	BYTE		N07     An3 
	BYTE	W12
	BYTE		N08     Bn3 
	BYTE	W12
	BYTE		N44     An3 
	BYTE	W14
// 025   ----------------------------------------
	BYTE	W44
	BYTE	W02
	BYTE		N11     Fs3 
	BYTE	W12
	BYTE		N07     Gn3 
	BYTE	W12
	BYTE		N09     An3 
	BYTE	W12
	BYTE		N44     Fs3 
	BYTE	W14
// 026   ----------------------------------------
	BYTE	W32
	BYTE	W02
	BYTE		N36     Gn3 
	BYTE	W36
	BYTE		N15     An3 
	BYTE	W24
	BYTE		N23     Dn4 
	BYTE	W02
// 027   ----------------------------------------
	BYTE	W22
	BYTE		N11     Cn4 
	BYTE	W11
	BYTE		N17     Bn3 
	BYTE	W24
	BYTE	W01
	BYTE		N19     An3 
	BYTE	W36
	BYTE		N44     Cn4 
	BYTE	W02
// 028   ----------------------------------------
	BYTE	W44
	BYTE	W02
	BYTE		N12   
	BYTE	W12
	BYTE		N08     Dn4 
	BYTE	W12
	BYTE		N10     En4 
	BYTE	W12
	BYTE		N54     Cn4 
	BYTE	W14
// 029   ----------------------------------------
	BYTE	W44
	BYTE	W02
	BYTE		N42     An3 
	BYTE	W06
	BYTE		BEND    c_v-64
	BYTE	W01
	BYTE		        c_v-64
	BYTE	W01
	BYTE		        c_v-63
	BYTE	W01
	BYTE		        c_v-54
	BYTE	W01
	BYTE		        c_v-50
	BYTE	W01
	BYTE		        c_v-45
	BYTE	W01
	BYTE		        c_v-36
	BYTE	W01
	BYTE		        c_v-31
	BYTE	W01
	BYTE		        c_v-26
	BYTE	W01
	BYTE		        c_v-16
	BYTE	W01
	BYTE		        c_v-11
	BYTE	W01
	BYTE		        c_v-6
	BYTE	W01
	BYTE		        c_v+0
	BYTE	W30
	BYTE		N96     Bn3 
	BYTE	W02
// 030   ----------------------------------------
	BYTE	W96
// 031   ----------------------------------------
	BYTE	W22
	BYTE		N64     Fs4   v104
	BYTE	W05
	BYTE		BEND    c_v+63
	BYTE	W02
	BYTE		        c_v+63
	BYTE	W01
	BYTE		        c_v+63
	BYTE	W02
	BYTE		        c_v+63
	BYTE	W01
	BYTE		        c_v+62
	BYTE	W02
	BYTE		        c_v+60
	BYTE	W01
	BYTE		        c_v+56
	BYTE	W02
	BYTE		        c_v+53
	BYTE	W01
	BYTE		        c_v+50
	BYTE	W02
	BYTE		        c_v+47
	BYTE	W01
	BYTE		        c_v+44
	BYTE	W02
	BYTE		        c_v+41
	BYTE	W01
	BYTE		        c_v+37
	BYTE	W02
	BYTE		        c_v+35
	BYTE	W01
	BYTE		        c_v+31
	BYTE	W02
	BYTE		        c_v+27
	BYTE	W01
	BYTE		        c_v+24
	BYTE	W02
	BYTE		        c_v+21
	BYTE	W01
	BYTE		        c_v+17
	BYTE	W02
	BYTE		        c_v+14
	BYTE	W01
	BYTE		        c_v+10
	BYTE	W02
	BYTE		        c_v+7
	BYTE	W01
	BYTE		        c_v+3
	BYTE	W02
	BYTE		        c_v+0
	BYTE	W01
	BYTE		        c_v-4
	BYTE	W02
	BYTE		        c_v-8
	BYTE	W01
	BYTE		        c_v-11
	BYTE	W02
	BYTE		        c_v-15
	BYTE	W01
	BYTE		        c_v-18
	BYTE	W02
	BYTE		        c_v-22
	BYTE	W01
	BYTE		        c_v-25
	BYTE	W02
	BYTE		        c_v-28
	BYTE	W01
	BYTE		        c_v-32
	BYTE	W02
	BYTE		        c_v-36
	BYTE	W01
	BYTE		        c_v-38
	BYTE	W02
	BYTE		        c_v-42
	BYTE	W01
	BYTE		        c_v-45
	BYTE	W02
	BYTE		        c_v-48
	BYTE	W01
	BYTE		        c_v-51
	BYTE	W02
	BYTE		        c_v-54
	BYTE	W01
	BYTE		        c_v-57
	BYTE	W02
	BYTE		        c_v-61
	BYTE	W01
	BYTE		        c_v-63
	BYTE	W02
	BYTE		        c_v-64
	BYTE		TIE     En3   v127
	BYTE	W01
	BYTE		BEND    c_v-64
	BYTE	W02
	BYTE		        c_v-64
	BYTE	W01
// 032   ----------------------------------------
	BYTE		        c_v-64
	BYTE	W01
	BYTE		        c_v+0
	BYTE	W01
	BYTE		        c_v-13
	BYTE	W01
	BYTE		        c_v+0
	BYTE	W92
	BYTE	W01
// 033   ----------------------------------------
	BYTE	W11
	BYTE		EOT   
	BYTE	W09
	BYTE		N19     Fs3 
	BYTE	W24
	BYTE		        Gn3 
	BYTE	W24
	BYTE		N13     Fs3 
	BYTE	W12
	BYTE		TIE     En3 
	BYTE	W16
// 034   ----------------------------------------
	BYTE	W80
	BYTE	W01
	BYTE		EOT   
	BYTE	W11
	BYTE		N30     Dn3 
	BYTE	W04
// 035   ----------------------------------------
	BYTE	W30
	BYTE	W01
	BYTE		N16     Bn2 
	BYTE	W24
	BYTE	W01
	BYTE		N30     Dn3 
	BYTE	W36
	BYTE		N04     En3 
	BYTE	W04
// 036   ----------------------------------------
	BYTE	W02
	BYTE		        Fs3 
	BYTE	W06
	BYTE		        Gn3 
	BYTE	W06
	BYTE		        Fs3 
	BYTE	W06
	BYTE		        En3 
	BYTE	W06
	BYTE		        Fs3 
	BYTE	W06
	BYTE		        En3 
	BYTE	W06
	BYTE		        Gn3 
	BYTE	W06
	BYTE		        En3 
	BYTE	W06
	BYTE		        Gn3 
	BYTE	W06
	BYTE		        Fs3 
	BYTE	W06
	BYTE		        En3 
	BYTE	W06
	BYTE		        Gn3 
	BYTE	W06
	BYTE		        Fs3 
	BYTE	W06
	BYTE		        En3 
	BYTE	W06
	BYTE		        Gn3 
	BYTE	W06
	BYTE		        Fs3 
	BYTE	W04
// 037   ----------------------------------------
	BYTE	W02
	BYTE		        Gn3 
	BYTE	W06
	BYTE		        Fs3 
	BYTE	W06
	BYTE		        Gn3 
	BYTE	W06
	BYTE		        An3 
	BYTE	W06
	BYTE		        Gn3 
	BYTE	W06
	BYTE		        Fs3 
	BYTE	W06
	BYTE		        An3 
	BYTE	W06
	BYTE		        Gn3 
	BYTE	W06
	BYTE		        An3 
	BYTE	W06
	BYTE		        Fs3 
	BYTE	W06
	BYTE		        An3 
	BYTE	W06
	BYTE		        Fs3 
	BYTE	W06
	BYTE		        Gn3 
	BYTE	W06
	BYTE		        An3 
	BYTE	W06
	BYTE		        Gn3 
	BYTE	W06
	BYTE		        Bn3 
	BYTE	W04
// 038   ----------------------------------------
	BYTE	W02
	BYTE		        Gn3 
	BYTE	W06
	BYTE		        Bn3 
	BYTE	W06
	BYTE		        An3 
	BYTE	W06
	BYTE		        Bn3 
	BYTE	W06
	BYTE		        Gn3 
	BYTE	W06
	BYTE		        Bn3 
	BYTE	W06
	BYTE		        An3 
	BYTE	W06
	BYTE		        Gn3 
	BYTE	W06
	BYTE		        Bn3 
	BYTE	W06
	BYTE		        Gn3 
	BYTE	W06
	BYTE		        Bn3 
	BYTE	W06
	BYTE		        An3 
	BYTE	W06
	BYTE		        Bn3 
	BYTE	W06
	BYTE		        Gn3 
	BYTE	W06
	BYTE		        Bn3 
	BYTE	W05
	BYTE		N02     Cs4 
	BYTE	W01
	BYTE		N28     Dn4 
	BYTE	W04
// 039   ----------------------------------------
	BYTE	W32
	BYTE		N14     Cn4 
	BYTE	W02
	BYTE		BEND    c_v-4
	BYTE	W01
	BYTE		        c_v-9
	BYTE	W01
	BYTE		        c_v-12
	BYTE	W01
	BYTE		        c_v-9
	BYTE	W02
	BYTE		        c_v-7
	BYTE	W01
	BYTE		        c_v-4
	BYTE	W02
	BYTE		        c_v+0
	BYTE	W12
	BYTE		        c_v-4
	BYTE	W01
	BYTE		        c_v-8
	BYTE	W01
	BYTE		        c_v-12
	BYTE		N28     An3 
	BYTE	W01
	BYTE		BEND    c_v-20
	BYTE	W01
	BYTE		        c_v-23
	BYTE	W01
	BYTE		        c_v-27
	BYTE	W01
	BYTE		        c_v-36
	BYTE	W01
	BYTE		        c_v-39
	BYTE	W01
	BYTE		        c_v-34
	BYTE	W01
	BYTE		        c_v-23
	BYTE	W01
	BYTE		        c_v-18
	BYTE	W01
	BYTE		        c_v-12
	BYTE	W01
	BYTE		        c_v+0
	BYTE	W24
	BYTE	W02
	BYTE		N68     Bn3 
	BYTE	W04
// 040   ----------------------------------------
	BYTE	W68
	BYTE		N04     En3 
	BYTE	W06
	BYTE		        Fs3 
	BYTE	W06
	BYTE		        Gn3 
	BYTE	W06
	BYTE		        An3 
	BYTE	W06
	BYTE		N56     Bn3 
	BYTE	W04
// 041   ----------------------------------------
	BYTE	W56
	BYTE		N04     En3 
	BYTE	W06
	BYTE		        Fs3 
	BYTE	W06
	BYTE		        Gn3 
	BYTE	W06
	BYTE		        An3 
	BYTE	W06
	BYTE		N10     Bn3 
	BYTE	W12
	BYTE		N04     Gn3 
	BYTE	W04
// 042   ----------------------------------------
	BYTE	W02
	BYTE		        An3 
	BYTE	W06
	BYTE		        Gn3 
	BYTE	W06
	BYTE		        Fs3 
	BYTE	W06
	BYTE		        Dn3 
	BYTE	W06
	BYTE		        En3 
	BYTE	W06
	BYTE		        Fs3 
	BYTE	W06
	BYTE		        An3 
	BYTE	W06
	BYTE		        Gn3 
	BYTE	W06
	BYTE		        En3 
	BYTE	W06
	BYTE		        An3 
	BYTE	W06
	BYTE		        Fs3 
	BYTE	W06
	BYTE		        En3 
	BYTE	W06
	BYTE		        Fs3 
	BYTE	W06
	BYTE		        An3 
	BYTE	W06
	BYTE		        Gn3 
	BYTE	W06
	BYTE		        An3 
	BYTE	W04
// 043   ----------------------------------------
	BYTE	W02
	BYTE		        Gn3 
	BYTE	W06
	BYTE		        Fs3 
	BYTE	W06
	BYTE		        Gn3 
	BYTE	W06
	BYTE		N10     En3 
	BYTE	W12
	BYTE		        Dn3 
	BYTE	W12
	BYTE		N04     En3 
	BYTE	W06
	BYTE		        Dn3 
	BYTE	W06
	BYTE		        Cn3 
	BYTE	W06
	BYTE		        Bn2 
	BYTE	W06
	BYTE		        An2 
	BYTE	W06
	BYTE		        Dn3 
	BYTE	W06
	BYTE		        An2 
	BYTE	W06
	BYTE		        Cn3 
	BYTE	W06
	BYTE		        Bn2 
	BYTE	W04
// 044   ----------------------------------------
	BYTE	W02
	BYTE		        Cn3 
	BYTE	W06
	BYTE		        Bn2 
	BYTE	W06
	BYTE		        Cn3 
	BYTE	W06
	BYTE		N40     Bn2 
	BYTE	W48
	BYTE		N04     En3 
	BYTE	W06
	BYTE		        Fs3 
	BYTE	W06
	BYTE		        Gn3 
	BYTE	W06
	BYTE		        An3 
	BYTE	W06
	BYTE		N10     Bn3 
	BYTE	W04
// 045   ----------------------------------------
	BYTE	W08
	BYTE		N04     En3 
	BYTE	W06
	BYTE		        Fs3 
	BYTE	W06
	BYTE		        Gn3 
	BYTE	W06
	BYTE		        An3 
	BYTE	W06
	BYTE		        Gn3 
	BYTE	W06
	BYTE		        Fs3 
	BYTE	W06
	BYTE		        En3 
	BYTE	W06
	BYTE		        Dn3 
	BYTE	W06
	BYTE		        En3 
	BYTE	W06
	BYTE		        Cn3 
	BYTE	W06
	BYTE		        An2 
	BYTE	W06
	BYTE		        Bn2 
	BYTE	W06
	BYTE		        Cn3 
	BYTE	W06
	BYTE		        An2 
	BYTE	W06
	BYTE		        Bn2 
	BYTE	W04
// 046   ----------------------------------------
	BYTE	W02
	BYTE		        Cn3 
	BYTE	W06
	BYTE		        Bn2 
	BYTE	W06
	BYTE		        Cn3 
	BYTE	W06
	BYTE		        Bn2 
	BYTE	W06
	BYTE		        An2 
	BYTE	W06
	BYTE		N10     En2 
	BYTE	W12
	BYTE		        Gn2 
	BYTE	W12
	BYTE		        An2 
	BYTE	W12
	BYTE		N04     Dn3 
	BYTE	W06
	BYTE		        An2 
	BYTE	W06
	BYTE		        Cn3 
	BYTE	W06
	BYTE		        An2 
	BYTE	W06
	BYTE		        Gn2 
	BYTE	W04
// 047   ----------------------------------------
	BYTE	W02
	BYTE		        Fs2 
	BYTE	W06
	BYTE		        En2 
	BYTE	W06
	BYTE		        Fs2 
	BYTE	W06
	BYTE		        Bn2 
	BYTE	W06
	BYTE		        An2 
	BYTE	W06
	BYTE		        Bn2 
	BYTE	W06
	BYTE		        An2 
	BYTE	W06
	BYTE		        Gn2 
	BYTE	W06
	BYTE		        An2 
	BYTE	W06
	BYTE		        Bn2 
	BYTE	W06
	BYTE		N28     Ds3 
	BYTE	W30
	BYTE		BEND    c_v+0
	BYTE	W04
	BYTE	GoTo
	 POIN2	Taisen4_7_B1
Taisen4_7_B2:
// 048   ----------------------------------------
	BYTE	FINE

//**************** Track 8 (Midi-Chn.12) ****************//

Taisen4_8:
	BYTE	KEYSH   Taisen4_key+0
Taisen4_8_B1:
// 000   ----------------------------------------
	BYTE		VOICE   11
	BYTE		VOL     75*Taisen4_mvl/mxv
	BYTE		PAN     c_v+0
	BYTE		BEND    c_v+0
	BYTE	W24
	BYTE		N42     En3   v127
	BYTE	W60
	BYTE		N88     Dn3 
	BYTE	W12
// 001   ----------------------------------------
	BYTE	W96
// 002   ----------------------------------------
	BYTE		N68     Cn3 
	BYTE	W96
// 003   ----------------------------------------
	BYTE		N76     Dn3 
	BYTE	W96
// 004   ----------------------------------------
	BYTE	W01
	BYTE		N68     En3 
	BYTE	W92
	BYTE	W02
	BYTE		N52     Dn3 
	BYTE	W01
// 005   ----------------------------------------
	BYTE	W96
// 006   ----------------------------------------
	BYTE	W01
	BYTE		N48     Cn3 
	BYTE	W84
	BYTE		N72     Dn3 
	BYTE	W11
// 007   ----------------------------------------
	BYTE	W96
// 008   ----------------------------------------
	BYTE	W01
	BYTE		N64     En3 
	BYTE	W80
	BYTE	W03
	BYTE		N76     Dn3 
	BYTE	W12
// 009   ----------------------------------------
	BYTE	W96
// 010   ----------------------------------------
	BYTE		N68     Cn3 
	BYTE	W84
	BYTE	W02
	BYTE		N84     Dn3 
	BYTE	W10
// 011   ----------------------------------------
	BYTE	W96
// 012   ----------------------------------------
	BYTE	W01
	BYTE		N68     En3 
	BYTE	W84
	BYTE	W02
	BYTE		N52     Dn3 
	BYTE	W09
// 013   ----------------------------------------
	BYTE	W84
	BYTE	W03
	BYTE		N48     Cn3 
	BYTE	W09
// 014   ----------------------------------------
	BYTE	W84
	BYTE	W01
	BYTE		N72     Dn3 
	BYTE	W11
// 015   ----------------------------------------
	BYTE	W64
	BYTE		BEND    c_v+0
	BYTE	W32
// 016   ----------------------------------------
	BYTE	W96
// 017   ----------------------------------------
	BYTE	W96
// 018   ----------------------------------------
	BYTE	W96
// 019   ----------------------------------------
	BYTE	W96
// 020   ----------------------------------------
	BYTE	W96
// 021   ----------------------------------------
	BYTE	W96
// 022   ----------------------------------------
	BYTE	W96
// 023   ----------------------------------------
	BYTE	W96
// 024   ----------------------------------------
	BYTE	W96
// 025   ----------------------------------------
	BYTE	W96
// 026   ----------------------------------------
	BYTE	W96
// 027   ----------------------------------------
	BYTE	W96
// 028   ----------------------------------------
	BYTE	W96
// 029   ----------------------------------------
	BYTE	W96
// 030   ----------------------------------------
	BYTE	W96
// 031   ----------------------------------------
	BYTE	W96
// 032   ----------------------------------------
	BYTE	W96
// 033   ----------------------------------------
	BYTE	W96
// 034   ----------------------------------------
	BYTE	W96
// 035   ----------------------------------------
	BYTE	W96
// 036   ----------------------------------------
	BYTE	W96
// 037   ----------------------------------------
	BYTE	W96
// 038   ----------------------------------------
	BYTE	W96
// 039   ----------------------------------------
	BYTE	W96
// 040   ----------------------------------------
	BYTE	W96
// 041   ----------------------------------------
	BYTE	W96
// 042   ----------------------------------------
	BYTE	W96
// 043   ----------------------------------------
	BYTE	W96
// 044   ----------------------------------------
	BYTE	W96
// 045   ----------------------------------------
	BYTE	W96
// 046   ----------------------------------------
	BYTE	W96
// 047   ----------------------------------------
	BYTE	W96
	BYTE	GoTo
	 POIN2	Taisen4_8_B1
Taisen4_8_B2:
// 048   ----------------------------------------
	BYTE	FINE

//**************** Track 9 (Midi-Chn.13) ****************//

Taisen4_9:
	BYTE	KEYSH   Taisen4_key+0
Taisen4_9_B1:
// 000   ----------------------------------------
	BYTE		VOICE   48
	BYTE		VOL     65*Taisen4_mvl/mxv
	BYTE		PAN     c_v+22
	BYTE		BEND    c_v+0
	BYTE	W96
// 001   ----------------------------------------
	BYTE	W96
// 002   ----------------------------------------
	BYTE	W96
// 003   ----------------------------------------
	BYTE	W96
// 004   ----------------------------------------
	BYTE	W96
// 005   ----------------------------------------
	BYTE	W96
// 006   ----------------------------------------
	BYTE	W96
// 007   ----------------------------------------
	BYTE	W96
// 008   ----------------------------------------
	BYTE	W96
// 009   ----------------------------------------
	BYTE	W96
// 010   ----------------------------------------
	BYTE	W96
// 011   ----------------------------------------
	BYTE	W96
// 012   ----------------------------------------
	BYTE	W96
// 013   ----------------------------------------
	BYTE	W96
// 014   ----------------------------------------
	BYTE	W96
// 015   ----------------------------------------
	BYTE	W96
// 016   ----------------------------------------
	BYTE	W96
// 017   ----------------------------------------
	BYTE	W96
// 018   ----------------------------------------
	BYTE	W96
// 019   ----------------------------------------
	BYTE	W96
// 020   ----------------------------------------
	BYTE	W96
// 021   ----------------------------------------
	BYTE	W96
// 022   ----------------------------------------
	BYTE	W96
// 023   ----------------------------------------
	BYTE	W96
// 024   ----------------------------------------
	BYTE	W96
// 025   ----------------------------------------
	BYTE	W96
// 026   ----------------------------------------
	BYTE	W96
// 027   ----------------------------------------
	BYTE	W96
// 028   ----------------------------------------
	BYTE	W96
// 029   ----------------------------------------
	BYTE	W96
// 030   ----------------------------------------
	BYTE	W96
// 031   ----------------------------------------
	BYTE	W96
// 032   ----------------------------------------
Taisen4_9_032:
	BYTE	W02
	BYTE		N88     En4   v100
	BYTE	W92
	BYTE	W02
	BYTE	PEND
// 033   ----------------------------------------
Taisen4_9_033:
	BYTE	W02
	BYTE		N90     Dn4   v100
	BYTE	W92
	BYTE	W02
	BYTE	PEND
// 034   ----------------------------------------
Taisen4_9_034:
	BYTE	W02
	BYTE		N84     Cn4   v100
	BYTE	W92
	BYTE	W02
	BYTE	PEND
// 035   ----------------------------------------
	BYTE	PATT
	 POIN2	Taisen4_9_033
// 036   ----------------------------------------
	BYTE	PATT
	 POIN2	Taisen4_9_032
// 037   ----------------------------------------
	BYTE	PATT
	 POIN2	Taisen4_9_033
// 038   ----------------------------------------
	BYTE	PATT
	 POIN2	Taisen4_9_034
// 039   ----------------------------------------
	BYTE	W02
	BYTE		N54     Cn4   v100
	BYTE	W60
	BYTE		N21     Dn4 
	BYTE	W32
	BYTE	W02
// 040   ----------------------------------------
	BYTE	PATT
	 POIN2	Taisen4_9_032
// 041   ----------------------------------------
	BYTE	PATT
	 POIN2	Taisen4_9_033
// 042   ----------------------------------------
	BYTE	PATT
	 POIN2	Taisen4_9_034
// 043   ----------------------------------------
	BYTE	PATT
	 POIN2	Taisen4_9_033
// 044   ----------------------------------------
	BYTE	PATT
	 POIN2	Taisen4_9_032
// 045   ----------------------------------------
	BYTE	PATT
	 POIN2	Taisen4_9_033
// 046   ----------------------------------------
	BYTE	PATT
	 POIN2	Taisen4_9_034
// 047   ----------------------------------------
	BYTE	W02
	BYTE		N30     Cn4   v100
	BYTE	W36
	BYTE		N19   
	BYTE	W24
	BYTE		N24     Ds4 
	BYTE	W24
	BYTE	W03
	BYTE		BEND    c_v+0
	BYTE	W07
	BYTE	GoTo
	 POIN2	Taisen4_9_B1
Taisen4_9_B2:
// 048   ----------------------------------------
	BYTE	FINE

//**************** Track 10 (Midi-Chn.14) ****************//

Taisen4_10:
	BYTE	KEYSH   Taisen4_key+0
Taisen4_10_B1:
// 000   ----------------------------------------
	BYTE		VOICE   11
	BYTE		PAN     c_v-25
	BYTE		VOL     73*Taisen4_mvl/mxv
	BYTE		MOD     3
	BYTE		BEND    c_v+0
	BYTE		N11     En3   v127
	BYTE	W06
	BYTE		BEND    c_v+0
	BYTE	W18
	BYTE		N10   
	BYTE	W12
	BYTE		N08     Dn3 
	BYTE	W12
	BYTE		N11     En3 
	BYTE	W12
	BYTE		N12     Dn3 
	BYTE	W12
	BYTE		        En3 
	BYTE	W12
	BYTE		N09     Gn3 
	BYTE	W12
// 001   ----------------------------------------
	BYTE		N11     An3 
	BYTE	W12
	BYTE		N13     Bn3 
	BYTE	W12
	BYTE		N08     An3 
	BYTE	W12
	BYTE		        Gn3 
	BYTE	W12
	BYTE		N36     En3 
	BYTE	W48
// 002   ----------------------------------------
	BYTE		N14     Dn3 
	BYTE	W24
	BYTE		N11   
	BYTE	W12
	BYTE		N12     Cn3 
	BYTE	W12
	BYTE		N11     Dn3 
	BYTE	W12
	BYTE		N10     En3 
	BYTE	W12
	BYTE		        Dn3 
	BYTE	W12
	BYTE		N14     En3 
	BYTE	W12
// 003   ----------------------------------------
	BYTE		N13     Dn3 
	BYTE	W12
	BYTE		N10     En3 
	BYTE	W12
	BYTE		N09     Dn3 
	BYTE	W12
	BYTE		N11     En3 
	BYTE	W12
	BYTE		N42     Bn2 
	BYTE	W48
// 004   ----------------------------------------
	BYTE		N11     En3 
	BYTE	W24
	BYTE		N10   
	BYTE	W12
	BYTE		N08     Dn3 
	BYTE	W12
	BYTE		N11     En3 
	BYTE	W12
	BYTE		N12     Dn3 
	BYTE	W12
	BYTE		N07     En3 
	BYTE	W12
	BYTE		N09     Gn3 
	BYTE	W12
// 005   ----------------------------------------
	BYTE		N11     An3 
	BYTE	W12
	BYTE		N10     Bn3 
	BYTE	W12
	BYTE		N08     An3 
	BYTE	W12
	BYTE		        Gn3 
	BYTE	W12
	BYTE		N36     En3 
	BYTE	W48
// 006   ----------------------------------------
	BYTE		N14     Dn3 
	BYTE	W24
	BYTE		N11   
	BYTE	W12
	BYTE		N12     Bn2 
	BYTE	W12
	BYTE		N11     Dn3 
	BYTE	W12
	BYTE		N10     Bn2 
	BYTE	W12
	BYTE		        Dn3 
	BYTE	W12
	BYTE		N13     Gn3 
	BYTE	W12
// 007   ----------------------------------------
	BYTE	W12
	BYTE		N12     Fs3 
	BYTE	W12
	BYTE		N10     Dn3 
	BYTE	W12
	BYTE		N09     Bn2 
	BYTE	W12
	BYTE		N11     Dn3 
	BYTE	W12
	BYTE		N28     Fs3 
	BYTE	W36
// 008   ----------------------------------------
	BYTE		N19     Bn3 
	BYTE	W24
	BYTE		N14     Dn4 
	BYTE	W24
	BYTE		        Cn4 
	BYTE	W24
	BYTE		N07     An3 
	BYTE	W12
	BYTE		N16     Bn3 
	BYTE	W12
// 009   ----------------------------------------
	BYTE	W12
	BYTE		N13     Dn4 
	BYTE	W24
	BYTE		N16     Cn4 
	BYTE	W24
	BYTE		N24     An3 
	BYTE	W36
// 010   ----------------------------------------
	BYTE		N13     Bn3 
	BYTE	W24
	BYTE		        Dn4 
	BYTE	W24
	BYTE		N08     Cn4 
	BYTE	W12
	BYTE		N10     Bn3 
	BYTE	W12
	BYTE		N05     An3 
	BYTE	W12
	BYTE		N23     Bn3 
	BYTE	W12
// 011   ----------------------------------------
	BYTE	W12
	BYTE		N06     An3 
	BYTE	W12
	BYTE		        Gn3 
	BYTE	W12
	BYTE		N44     Fs3 
	BYTE	W60
// 012   ----------------------------------------
	BYTE		N12     Bn3 
	BYTE	W24
	BYTE		N09     Dn4 
	BYTE	W24
	BYTE		N12     Cn4 
	BYTE	W12
	BYTE		N06     Bn3 
	BYTE	W12
	BYTE		N05     An3 
	BYTE	W12
	BYTE		N21     Bn3 
	BYTE	W12
// 013   ----------------------------------------
	BYTE	W24
	BYTE		N12     Dn4 
	BYTE	W24
	BYTE		N09     Cn4 
	BYTE	W12
	BYTE		N05     Bn3 
	BYTE	W12
	BYTE		N07     An3 
	BYTE	W12
	BYTE		N24     Bn3 
	BYTE	W12
// 014   ----------------------------------------
	BYTE	W24
	BYTE		N11     Dn4 
	BYTE	W24
	BYTE		N09     Cn4 
	BYTE	W12
	BYTE		N10     Bn3 
	BYTE	W12
	BYTE		N06     An3 
	BYTE	W12
	BYTE		N19     Bn3 
	BYTE	W12
// 015   ----------------------------------------
	BYTE	W12
	BYTE		N11     An3 
	BYTE	W12
	BYTE		N09     Gn3 
	BYTE	W12
	BYTE		N17     An3 
	BYTE	W24
	BYTE		N11     Gn3 
	BYTE	W12
	BYTE		N17     Fs3 
	BYTE	W24
// 016   ----------------------------------------
	BYTE		N36     En3 
	BYTE	W05
	BYTE		BEND    c_v-50
	BYTE	W04
	BYTE		        c_v+0
	BYTE	W36
	BYTE	W03
	BYTE		N09   
	BYTE	W12
	BYTE		        Fs3 
	BYTE	W12
	BYTE		N05     Gn3 
	BYTE	W12
	BYTE		N90     Fs3 
	BYTE	W12
// 017   ----------------------------------------
	BYTE	W96
// 018   ----------------------------------------
	BYTE		N32   
	BYTE	W48
	BYTE		N11   
	BYTE	W12
	BYTE		N07     Gn3 
	BYTE	W12
	BYTE		N06     An3 
	BYTE	W12
	BYTE		N92     Gn3 
	BYTE	W12
// 019   ----------------------------------------
	BYTE	W96
// 020   ----------------------------------------
	BYTE		N32     En3 
	BYTE	W48
	BYTE		N11   
	BYTE	W12
	BYTE		N06     Fs3 
	BYTE	W12
	BYTE		N08     Gn3 
	BYTE	W12
	BYTE		N84     Fs3 
	BYTE	W12
// 021   ----------------------------------------
	BYTE	W96
// 022   ----------------------------------------
	BYTE		N32   
	BYTE	W48
	BYTE		N11   
	BYTE	W12
	BYTE		N06     Gn3 
	BYTE	W12
	BYTE		N07     An3 
	BYTE	W12
	BYTE		N32     Bn3 
	BYTE	W12
// 023   ----------------------------------------
	BYTE	W24
	BYTE		N06     An3 
	BYTE	W12
	BYTE		N13     Gn3 
	BYTE	W24
	BYTE		N28     Dn4 
	BYTE	W36
// 024   ----------------------------------------
	BYTE		N02     An3 
	BYTE	W03
	BYTE		N36     Bn3 
	BYTE	W44
	BYTE	W01
	BYTE		N11     Gn3 
	BYTE	W12
	BYTE		N07     An3 
	BYTE	W12
	BYTE		N08     Bn3 
	BYTE	W12
	BYTE		N44     An3 
	BYTE	W12
// 025   ----------------------------------------
	BYTE	W48
	BYTE		N11     Fs3 
	BYTE	W12
	BYTE		N07     Gn3 
	BYTE	W12
	BYTE		N09     An3 
	BYTE	W12
	BYTE		N44     Fs3 
	BYTE	W12
// 026   ----------------------------------------
	BYTE	W36
	BYTE		N36     Gn3 
	BYTE	W36
	BYTE		N15     An3 
	BYTE	W24
// 027   ----------------------------------------
	BYTE		N23     Dn4 
	BYTE	W24
	BYTE		N11     Cn4 
	BYTE	W11
	BYTE		N17     Bn3 
	BYTE	W24
	BYTE	W01
	BYTE		N19     An3 
	BYTE	W36
// 028   ----------------------------------------
	BYTE		N44     Cn4 
	BYTE	W48
	BYTE		N12   
	BYTE	W12
	BYTE		N08     Dn4 
	BYTE	W12
	BYTE		N10     En4 
	BYTE	W12
	BYTE		N54     Cn4 
	BYTE	W12
// 029   ----------------------------------------
	BYTE	W48
	BYTE		N42     An3 
	BYTE	W06
	BYTE		BEND    c_v-64
	BYTE	W01
	BYTE		        c_v-64
	BYTE	W01
	BYTE		        c_v-63
	BYTE	W01
	BYTE		        c_v-54
	BYTE	W01
	BYTE		        c_v-50
	BYTE	W01
	BYTE		        c_v-45
	BYTE	W01
	BYTE		        c_v-36
	BYTE	W01
	BYTE		        c_v-31
	BYTE	W01
	BYTE		        c_v-26
	BYTE	W01
	BYTE		        c_v-16
	BYTE	W01
	BYTE		        c_v-11
	BYTE	W01
	BYTE		        c_v-6
	BYTE	W01
	BYTE		        c_v+0
	BYTE	W30
// 030   ----------------------------------------
	BYTE		N96     Bn3 
	BYTE	W96
// 031   ----------------------------------------
	BYTE	W92
	BYTE	W02
	BYTE		TIE     Gn3 
	BYTE	W02
// 032   ----------------------------------------
	BYTE	W96
// 033   ----------------------------------------
	BYTE	W13
	BYTE		EOT   
	BYTE	W09
	BYTE		N19     An3 
	BYTE	W24
	BYTE		        Bn3 
	BYTE	W24
	BYTE		N13     An3 
	BYTE	W12
	BYTE		TIE     Gn3 
	BYTE	W14
// 034   ----------------------------------------
	BYTE	W80
	BYTE	W03
	BYTE		EOT   
	BYTE	W11
	BYTE		N30     Fs3 
	BYTE	W02
// 035   ----------------------------------------
	BYTE	W32
	BYTE	W02
	BYTE		N16     Dn3 
	BYTE	W24
	BYTE		N30     Fs3 
	BYTE	W36
	BYTE		N04     Gn3 
	BYTE	W02
// 036   ----------------------------------------
	BYTE	W04
	BYTE		        An3 
	BYTE	W06
	BYTE		        Bn3 
	BYTE	W06
	BYTE		        An3 
	BYTE	W06
	BYTE		        Gn3 
	BYTE	W06
	BYTE		        An3 
	BYTE	W06
	BYTE		        Gn3 
	BYTE	W06
	BYTE		        Bn3 
	BYTE	W06
	BYTE		        Gn3 
	BYTE	W06
	BYTE		        Bn3 
	BYTE	W06
	BYTE		        An3 
	BYTE	W06
	BYTE		        Gn3 
	BYTE	W06
	BYTE		        Bn3 
	BYTE	W06
	BYTE		        An3 
	BYTE	W06
	BYTE		        Gn3 
	BYTE	W06
	BYTE		        Bn3 
	BYTE	W06
	BYTE		        An3 
	BYTE	W02
// 037   ----------------------------------------
	BYTE	W04
	BYTE		        Bn3 
	BYTE	W06
	BYTE		        An3 
	BYTE	W06
	BYTE		        Bn3 
	BYTE	W06
	BYTE		        Cn4 
	BYTE	W06
	BYTE		        Bn3 
	BYTE	W06
	BYTE		        An3 
	BYTE	W06
	BYTE		        Cn4 
	BYTE	W06
	BYTE		        Bn3 
	BYTE	W06
	BYTE		        Cn4 
	BYTE	W06
	BYTE		        An3 
	BYTE	W06
	BYTE		        Cn4 
	BYTE	W06
	BYTE		        An3 
	BYTE	W06
	BYTE		        Bn3 
	BYTE	W06
	BYTE		        Cn4 
	BYTE	W06
	BYTE		        Bn3 
	BYTE	W06
	BYTE		        Dn4 
	BYTE	W02
// 038   ----------------------------------------
	BYTE	W04
	BYTE		        Bn3 
	BYTE	W06
	BYTE		        Dn4 
	BYTE	W06
	BYTE		        Cn4 
	BYTE	W06
	BYTE		        Dn4 
	BYTE	W06
	BYTE		        Bn3 
	BYTE	W06
	BYTE		        Dn4 
	BYTE	W06
	BYTE		        Cn4 
	BYTE	W06
	BYTE		        Bn3 
	BYTE	W06
	BYTE		        Dn4 
	BYTE	W06
	BYTE		        Bn3 
	BYTE	W06
	BYTE		        Dn4 
	BYTE	W06
	BYTE		        Cn4 
	BYTE	W06
	BYTE		        Dn4 
	BYTE	W06
	BYTE		        Bn3 
	BYTE	W06
	BYTE		N02     Fn4 
	BYTE	W06
	BYTE		N28     Fs4 
	BYTE	W02
// 039   ----------------------------------------
	BYTE	W32
	BYTE	W02
	BYTE		N14     En4 
	BYTE	W02
	BYTE		BEND    c_v-4
	BYTE	W01
	BYTE		        c_v-9
	BYTE	W01
	BYTE		        c_v-12
	BYTE	W01
	BYTE		        c_v-9
	BYTE	W02
	BYTE		        c_v-7
	BYTE	W01
	BYTE		        c_v-4
	BYTE	W02
	BYTE		        c_v+0
	BYTE	W12
	BYTE		        c_v-4
	BYTE	W01
	BYTE		        c_v-8
	BYTE	W01
	BYTE		        c_v-12
	BYTE		N28     Cn4 
	BYTE	W01
	BYTE		BEND    c_v-20
	BYTE	W01
	BYTE		        c_v-23
	BYTE	W01
	BYTE		        c_v-27
	BYTE	W01
	BYTE		        c_v-36
	BYTE	W01
	BYTE		        c_v-39
	BYTE	W01
	BYTE		        c_v-34
	BYTE	W01
	BYTE		        c_v-23
	BYTE	W01
	BYTE		        c_v-18
	BYTE	W01
	BYTE		        c_v-12
	BYTE	W01
	BYTE		        c_v+0
	BYTE	W24
	BYTE	W02
	BYTE		N68     Gn3 
	BYTE	W02
// 040   ----------------------------------------
	BYTE	W68
	BYTE	W02
	BYTE		N04     Cn4 
	BYTE	W06
	BYTE		        Dn4 
	BYTE	W06
	BYTE		        En4 
	BYTE	W06
	BYTE		        Fs4 
	BYTE	W06
	BYTE		N56     Gn4 
	BYTE	W02
// 041   ----------------------------------------
	BYTE	W56
	BYTE	W02
	BYTE		N04     Cn4 
	BYTE	W06
	BYTE		        Dn4 
	BYTE	W06
	BYTE		        En4 
	BYTE	W06
	BYTE		        Fs4 
	BYTE	W06
	BYTE		N10     Gn4 
	BYTE	W12
	BYTE		N04     En4 
	BYTE	W02
// 042   ----------------------------------------
	BYTE	W04
	BYTE		        Fs4 
	BYTE	W06
	BYTE		        Dn4 
	BYTE	W06
	BYTE		        En4 
	BYTE	W06
	BYTE		        Cn4 
	BYTE	W06
	BYTE		        Dn4 
	BYTE	W06
	BYTE		        En4 
	BYTE	W06
	BYTE		        Fs4 
	BYTE	W06
	BYTE		        En4 
	BYTE	W06
	BYTE		        Cn4 
	BYTE	W06
	BYTE		        Dn4 
	BYTE	W06
	BYTE		        Fs4 
	BYTE	W06
	BYTE		        Cn4 
	BYTE	W06
	BYTE		        Dn4 
	BYTE	W06
	BYTE		        Fs4 
	BYTE	W06
	BYTE		        En4 
	BYTE	W06
	BYTE		        Fs4 
	BYTE	W02
// 043   ----------------------------------------
	BYTE	W04
	BYTE		        En4 
	BYTE	W06
	BYTE		N10     Dn4 
	BYTE	W12
	BYTE		        Cn4 
	BYTE	W12
	BYTE		        An3 
	BYTE	W12
	BYTE		N04     Cn4 
	BYTE	W06
	BYTE		        Bn3 
	BYTE	W06
	BYTE		        An3 
	BYTE	W06
	BYTE		        Gn3 
	BYTE	W06
	BYTE		        Fs3 
	BYTE	W06
	BYTE		        Bn3 
	BYTE	W06
	BYTE		        Gn3 
	BYTE	W06
	BYTE		        An3 
	BYTE	W06
	BYTE		        Gn3 
	BYTE	W02
// 044   ----------------------------------------
	BYTE	W04
	BYTE		        An3 
	BYTE	W06
	BYTE		        Gn3 
	BYTE	W06
	BYTE		        An3 
	BYTE	W06
	BYTE		N40     Gn3 
	BYTE	W48
	BYTE		N04     Bn3 
	BYTE	W06
	BYTE		        Cn4 
	BYTE	W06
	BYTE		        Dn4 
	BYTE	W06
	BYTE		        En4 
	BYTE	W06
	BYTE		N10     Fs4 
	BYTE	W02
// 045   ----------------------------------------
	BYTE	W10
	BYTE		N04     Cn4 
	BYTE	W06
	BYTE		        Dn4 
	BYTE	W06
	BYTE		        En4 
	BYTE	W06
	BYTE		        Fs4 
	BYTE	W06
	BYTE		        En4 
	BYTE	W06
	BYTE		        Dn4 
	BYTE	W06
	BYTE		        Cn4 
	BYTE	W06
	BYTE		        An3 
	BYTE	W06
	BYTE		        Cn4 
	BYTE	W06
	BYTE		        Gn3 
	BYTE	W06
	BYTE		        En3 
	BYTE	W06
	BYTE		        Fs3 
	BYTE	W06
	BYTE		        Gn3 
	BYTE	W06
	BYTE		        En3 
	BYTE	W06
	BYTE		        Fs3 
	BYTE	W02
// 046   ----------------------------------------
	BYTE	W04
	BYTE		        Gn3 
	BYTE	W06
	BYTE		        Fs3 
	BYTE	W06
	BYTE		        Gn3 
	BYTE	W06
	BYTE		        Fs3 
	BYTE	W06
	BYTE		        En3 
	BYTE	W06
	BYTE		N10     Bn2 
	BYTE	W12
	BYTE		        Dn3 
	BYTE	W12
	BYTE		        En3 
	BYTE	W12
	BYTE		N04     An3 
	BYTE	W06
	BYTE		        Fs3 
	BYTE	W06
	BYTE		        Gn3 
	BYTE	W06
	BYTE		        Fs3 
	BYTE	W06
	BYTE		        En3 
	BYTE	W02
// 047   ----------------------------------------
	BYTE	W04
	BYTE		        Dn3 
	BYTE	W06
	BYTE		        Cn3 
	BYTE	W06
	BYTE		        Dn3 
	BYTE	W06
	BYTE		        Gn3 
	BYTE	W06
	BYTE		        Fs3 
	BYTE	W06
	BYTE		        Gn3 
	BYTE	W06
	BYTE		        Fs3 
	BYTE	W06
	BYTE		        En3 
	BYTE	W06
	BYTE		        Fs3 
	BYTE	W06
	BYTE		        Gn3 
	BYTE	W06
	BYTE		N28     Bn3 
	BYTE	W28
	BYTE		BEND    c_v+0
	BYTE	W04
	BYTE	GoTo
	 POIN2	Taisen4_10_B1
Taisen4_10_B2:
// 048   ----------------------------------------
	BYTE	FINE

//**************** Track 11 (Midi-Chn.16) ****************//

Taisen4_11:
	BYTE	KEYSH   Taisen4_key+0
Taisen4_11_B1:
// 000   ----------------------------------------
	BYTE		VOICE   123
	BYTE		VOL     61*Taisen4_mvl/mxv
	BYTE		PAN     c_v+0
	BYTE		BEND    c_v+0
	BYTE		N11     Cn1   v127
	BYTE		N12     Gs1   v100
	BYTE	W12
	BYTE		N06     Cn1   v127
	BYTE	W06
	BYTE		N06   
	BYTE	W06
	BYTE		N12     Dn1 
	BYTE		N36     Cs2 
	BYTE	W24
	BYTE		N12     Cn1 
	BYTE		N12     Gs1   v100
	BYTE	W12
	BYTE		        Cn1   v127
	BYTE	W12
	BYTE		        Dn1 
	BYTE		N12     Gs1   v100
	BYTE	W12
	BYTE		        Cn1   v127
	BYTE	W12
// 001   ----------------------------------------
Taisen4_11_001:
	BYTE		N12     Gs1   v100
	BYTE	W12
	BYTE		        Cn1   v127
	BYTE	W12
	BYTE		        Dn1 
	BYTE		N12     Gs1   v100
	BYTE	W24
	BYTE		        Cn1   v127
	BYTE		N12     Gs1   v100
	BYTE	W12
	BYTE		        Cn1   v127
	BYTE		N12     Fs1   v080
	BYTE	W12
	BYTE		        Dn1   v127
	BYTE		N12     Gs1   v100
	BYTE	W12
	BYTE		        Cn1   v127
	BYTE	W12
	BYTE	PEND
// 002   ----------------------------------------
Taisen4_11_002:
	BYTE		N12     Gs1   v100
	BYTE	W12
	BYTE		        Cn1   v127
	BYTE	W12
	BYTE		        Dn1 
	BYTE		N12     Gs1   v100
	BYTE	W24
	BYTE		        Cn1   v127
	BYTE		N12     Gs1   v100
	BYTE	W12
	BYTE		        Cn1   v127
	BYTE	W12
	BYTE		        Dn1 
	BYTE		N12     Gs1   v100
	BYTE	W12
	BYTE		        Cn1   v127
	BYTE	W12
	BYTE	PEND
// 003   ----------------------------------------
	BYTE		        Gs1   v100
	BYTE	W12
	BYTE		        Cn1   v127
	BYTE	W12
	BYTE		        Dn1 
	BYTE		N12     Gs1   v100
	BYTE	W24
	BYTE		        Cn1   v127
	BYTE		N12     Gs1   v100
	BYTE	W12
	BYTE		        Dn1   v127
	BYTE		N12     Fs1   v080
	BYTE	W12
	BYTE		        Cn1   v127
	BYTE		N12     Gs1   v100
	BYTE	W12
	BYTE		        Cn1   v127
	BYTE		N36     Gs1   v100
	BYTE	W12
// 004   ----------------------------------------
Taisen4_11_004:
	BYTE	W12
	BYTE		N06     Cn1   v127
	BYTE	W06
	BYTE		N06   
	BYTE	W06
	BYTE		N12     Dn1 
	BYTE		N36     Cs2 
	BYTE	W24
	BYTE		N12     Cn1 
	BYTE		N12     Gs1   v100
	BYTE	W12
	BYTE		        Cn1   v127
	BYTE		N12     Fs1   v080
	BYTE	W12
	BYTE		        Dn1   v127
	BYTE		N06     Fs1   v080
	BYTE		N12     Gs1   v100
	BYTE	W06
	BYTE		N06     Fs1   v080
	BYTE	W06
	BYTE		N12     Cn1   v127
	BYTE	W12
	BYTE	PEND
// 005   ----------------------------------------
	BYTE		        Gs1   v100
	BYTE	W12
	BYTE		        Cn1   v127
	BYTE	W12
	BYTE		        Dn1 
	BYTE		N12     Gs1   v100
	BYTE	W24
	BYTE		        Cn1   v127
	BYTE		N12     Gs1   v100
	BYTE	W12
	BYTE		        Dn1   v127
	BYTE	W12
	BYTE		        Cn1 
	BYTE		N36     Cs2 
	BYTE	W12
	BYTE		N12     Cn1 
	BYTE	W12
// 006   ----------------------------------------
Taisen4_11_006:
	BYTE		N12     Gs1   v100
	BYTE	W12
	BYTE		        Cn1   v127
	BYTE	W12
	BYTE		        Dn1 
	BYTE		N12     Gs1   v100
	BYTE	W24
	BYTE		        Cn1   v127
	BYTE		N12     Gs1   v100
	BYTE	W12
	BYTE		        Dn1   v127
	BYTE	W12
	BYTE		N06   
	BYTE		N12     Cn2 
	BYTE	W06
	BYTE		N06     Dn1 
	BYTE	W06
	BYTE		N12     Cn1 
	BYTE		N24     Cs2 
	BYTE	W12
	BYTE	PEND
// 007   ----------------------------------------
	BYTE		N12     Gs1   v100
	BYTE	W12
	BYTE		        Cn1   v127
	BYTE	W12
	BYTE		        Dn1 
	BYTE		N12     Gs1   v100
	BYTE	W12
	BYTE		N06     Cn1   v127
	BYTE	W06
	BYTE		N06   
	BYTE	W06
	BYTE		N12     Dn1 
	BYTE		N36     An2 
	BYTE	W12
	BYTE		N12     Cn1 
	BYTE	W12
	BYTE		        Dn1 
	BYTE		N12     Gs1   v100
	BYTE	W12
	BYTE		        Cn1   v127
	BYTE		N36     An2 
	BYTE	W12
// 008   ----------------------------------------
	BYTE	W12
	BYTE		N06     Cn1 
	BYTE	W06
	BYTE		N06   
	BYTE	W06
	BYTE		N12     Dn1 
	BYTE		N36     Cs2 
	BYTE	W24
	BYTE		N12     Cn1 
	BYTE		N12     Gs1   v100
	BYTE	W12
	BYTE		        Cn1   v127
	BYTE	W12
	BYTE		        Dn1 
	BYTE		N12     Gs1   v100
	BYTE	W12
	BYTE		        Cn1   v127
	BYTE	W12
// 009   ----------------------------------------
	BYTE	PATT
	 POIN2	Taisen4_11_001
// 010   ----------------------------------------
	BYTE	PATT
	 POIN2	Taisen4_11_002
// 011   ----------------------------------------
Taisen4_11_011:
	BYTE		N12     Gs1   v100
	BYTE	W12
	BYTE		        Cn1   v127
	BYTE	W12
	BYTE		        Dn1 
	BYTE		N12     Gs1   v100
	BYTE	W24
	BYTE		        Cn1   v127
	BYTE		N12     Gs1   v100
	BYTE	W12
	BYTE		        Dn1   v127
	BYTE		N12     Fs1   v080
	BYTE	W12
	BYTE		        Cn1   v127
	BYTE		N12     Gs1   v100
	BYTE	W12
	BYTE		        Cn1   v127
	BYTE		N12     Fs1   v080
	BYTE		N24     Cs2   v127
	BYTE	W12
	BYTE	PEND
// 012   ----------------------------------------
	BYTE	PATT
	 POIN2	Taisen4_11_004
// 013   ----------------------------------------
Taisen4_11_013:
	BYTE		N12     Gs1   v100
	BYTE	W12
	BYTE		        Cn1   v127
	BYTE	W12
	BYTE		        Dn1 
	BYTE		N12     Gs1   v100
	BYTE	W24
	BYTE		        Cn1   v127
	BYTE		N12     Gs1   v100
	BYTE	W12
	BYTE		        Dn1   v127
	BYTE	W12
	BYTE		        Cn1 
	BYTE		N36     Cs2 
	BYTE	W12
	BYTE		N12     Cn1 
	BYTE		N12     Dn1 
	BYTE	W12
	BYTE	PEND
// 014   ----------------------------------------
	BYTE	PATT
	 POIN2	Taisen4_11_006
// 015   ----------------------------------------
	BYTE		N12     Gs1   v100
	BYTE	W12
	BYTE		        Cn1   v127
	BYTE	W12
	BYTE		        Dn1 
	BYTE		N12     Gs1   v100
	BYTE	W12
	BYTE		N06     Cn1   v127
	BYTE	W06
	BYTE		N06   
	BYTE	W06
	BYTE		N12     Dn1 
	BYTE		N24     An2 
	BYTE	W12
	BYTE		N12     Cn1 
	BYTE	W06
	BYTE		        Gs1   v100
	BYTE	W06
	BYTE		        Dn1   v127
	BYTE		N12     An2 
	BYTE	W12
	BYTE		        Cn1 
	BYTE	W12
// 016   ----------------------------------------
Taisen4_11_016:
	BYTE		N12     Cn1   v127
	BYTE	W12
	BYTE		N06   
	BYTE	W06
	BYTE		N06   
	BYTE	W06
	BYTE		N12     Dn1 
	BYTE		N36     Cs2 
	BYTE	W24
	BYTE		N12     Cn1 
	BYTE		N12     Gs1   v100
	BYTE	W12
	BYTE		        Cn1   v127
	BYTE	W12
	BYTE		        Dn1 
	BYTE		N12     Gs1   v100
	BYTE	W12
	BYTE		        Cn1   v127
	BYTE	W12
	BYTE	PEND
// 017   ----------------------------------------
	BYTE	PATT
	 POIN2	Taisen4_11_001
// 018   ----------------------------------------
	BYTE	PATT
	 POIN2	Taisen4_11_002
// 019   ----------------------------------------
	BYTE	PATT
	 POIN2	Taisen4_11_011
// 020   ----------------------------------------
	BYTE	PATT
	 POIN2	Taisen4_11_004
// 021   ----------------------------------------
	BYTE	PATT
	 POIN2	Taisen4_11_013
// 022   ----------------------------------------
	BYTE	PATT
	 POIN2	Taisen4_11_006
// 023   ----------------------------------------
	BYTE		N12     Gs1   v100
	BYTE	W12
	BYTE		        Cn1   v127
	BYTE	W12
	BYTE		        Dn1 
	BYTE		N12     Gs1   v100
	BYTE	W12
	BYTE		N06     Cn1   v127
	BYTE	W06
	BYTE		N06   
	BYTE	W06
	BYTE		N12     Dn1 
	BYTE		N36     An2 
	BYTE	W12
	BYTE		N12     Cn1 
	BYTE	W12
	BYTE		N06     Dn1 
	BYTE		N12     Gs1   v100
	BYTE	W06
	BYTE		N06     Dn1   v127
	BYTE	W06
	BYTE		N12   
	BYTE		N36     An2 
	BYTE	W12
// 024   ----------------------------------------
	BYTE	PATT
	 POIN2	Taisen4_11_016
// 025   ----------------------------------------
	BYTE	PATT
	 POIN2	Taisen4_11_001
// 026   ----------------------------------------
	BYTE	PATT
	 POIN2	Taisen4_11_002
// 027   ----------------------------------------
	BYTE	PATT
	 POIN2	Taisen4_11_011
// 028   ----------------------------------------
	BYTE	PATT
	 POIN2	Taisen4_11_004
// 029   ----------------------------------------
	BYTE		N12     Gs1   v100
	BYTE	W12
	BYTE		        Cn1   v127
	BYTE	W12
	BYTE		        Dn1 
	BYTE		N12     Gs1   v100
	BYTE	W24
	BYTE		        Cn1   v127
	BYTE		N12     Gs1   v100
	BYTE	W12
	BYTE		        Dn1   v127
	BYTE	W12
	BYTE		        Cn1 
	BYTE		N36     Cs2 
	BYTE	W12
	BYTE		N12     Dn1 
	BYTE	W12
// 030   ----------------------------------------
	BYTE	PATT
	 POIN2	Taisen4_11_006
// 031   ----------------------------------------
	BYTE		N12     Gs1   v100
	BYTE	W12
	BYTE		        Cn1   v127
	BYTE	W12
	BYTE		        Dn1 
	BYTE		N24     An2 
	BYTE	W12
	BYTE		N06     Cn1 
	BYTE	W06
	BYTE		N06   
	BYTE	W06
	BYTE		N12     Dn1 
	BYTE		N12     An2 
	BYTE	W12
	BYTE		        Cn1 
	BYTE	W12
	BYTE		N06     Dn1 
	BYTE		N36     Cs2 
	BYTE	W06
	BYTE		N06     Dn1 
	BYTE	W06
	BYTE		N12   
	BYTE	W12
// 032   ----------------------------------------
	BYTE	PATT
	 POIN2	Taisen4_11_016
// 033   ----------------------------------------
	BYTE	PATT
	 POIN2	Taisen4_11_001
// 034   ----------------------------------------
	BYTE	PATT
	 POIN2	Taisen4_11_002
// 035   ----------------------------------------
	BYTE	PATT
	 POIN2	Taisen4_11_011
// 036   ----------------------------------------
	BYTE	PATT
	 POIN2	Taisen4_11_004
// 037   ----------------------------------------
	BYTE	PATT
	 POIN2	Taisen4_11_013
// 038   ----------------------------------------
	BYTE		N03     Fs1   v080
	BYTE		N12     Gs1   v100
	BYTE	W12
	BYTE		        Cn1   v127
	BYTE		N03     Fs1   v080
	BYTE	W12
	BYTE		N12     Dn1   v127
	BYTE		N03     Fs1   v080
	BYTE		N12     Gs1   v100
	BYTE	W12
	BYTE		N03     Fs1   v080
	BYTE	W12
	BYTE		N12     Cn1   v127
	BYTE		N03     Fs1   v080
	BYTE		N12     Gs1   v100
	BYTE	W12
	BYTE		        Dn1   v127
	BYTE		N03     Fs1   v080
	BYTE	W12
	BYTE		N06     Dn1   v127
	BYTE		N03     Fs1   v080
	BYTE		N12     Cn2   v127
	BYTE	W06
	BYTE		N06     Dn1 
	BYTE	W06
	BYTE		N12     Cn1 
	BYTE		N03     Fs1   v080
	BYTE		N24     Cs2   v127
	BYTE	W12
// 039   ----------------------------------------
	BYTE		N03     Fs1   v080
	BYTE		N12     Gs1   v100
	BYTE	W12
	BYTE		        Cn1   v127
	BYTE		N03     Fs1   v080
	BYTE	W12
	BYTE		N12     Dn1   v127
	BYTE		N03     Fs1   v080
	BYTE		N12     Gs1   v100
	BYTE	W12
	BYTE		N06     Cn1   v127
	BYTE		N03     Fs1   v080
	BYTE	W06
	BYTE		N06     Cn1   v127
	BYTE	W06
	BYTE		N12     Dn1 
	BYTE		N03     Fs1   v080
	BYTE		N36     Cs2   v127
	BYTE	W12
	BYTE		N12     Cn1 
	BYTE		N03     Fs1   v080
	BYTE	W12
	BYTE		N06     Dn1   v127
	BYTE		N03     Fs1   v080
	BYTE		N12     Gs1   v100
	BYTE	W06
	BYTE		N06     Dn1   v127
	BYTE	W06
	BYTE		N12   
	BYTE		N03     Fs1   v080
	BYTE		N36     Cs2   v127
	BYTE	W12
// 040   ----------------------------------------
Taisen4_11_040:
	BYTE		N06     Dn1   v127
	BYTE		N03     Fs1   v080
	BYTE		N12     Gn2   v112
	BYTE	W06
	BYTE		N05     Cn1   v124
	BYTE	W06
	BYTE		N05   
	BYTE		N03     Fs1   v080
	BYTE	W06
	BYTE		N05     Cn1   v124
	BYTE	W06
	BYTE		N06     Dn1   v127
	BYTE		N03     Fs1   v080
	BYTE		N12     Gn2   v112
	BYTE	W06
	BYTE		N05     Cn1   v124
	BYTE	W06
	BYTE		N05   
	BYTE		N03     Fs1   v080
	BYTE	W06
	BYTE		N05     Cn1   v124
	BYTE	W06
	BYTE		N06     Dn1   v127
	BYTE		N03     Fs1   v080
	BYTE		N12     Gn2   v112
	BYTE	W06
	BYTE		N05     Cn1   v124
	BYTE	W06
	BYTE		N05   
	BYTE		N03     Fs1   v080
	BYTE	W06
	BYTE		N05     Cn1   v124
	BYTE	W06
	BYTE		N06     Dn1   v127
	BYTE		N03     Fs1   v080
	BYTE		N12     Gn2   v112
	BYTE	W06
	BYTE		N05     Cn1   v124
	BYTE	W06
	BYTE		N05   
	BYTE		N03     Fs1   v080
	BYTE	W06
	BYTE		N05     Cn1   v124
	BYTE	W06
	BYTE	PEND
// 041   ----------------------------------------
	BYTE		N06     Dn1   v127
	BYTE		N03     Fs1   v080
	BYTE		N12     Gn2   v112
	BYTE	W06
	BYTE		N05     Cn1   v124
	BYTE	W06
	BYTE		N05   
	BYTE		N03     Fs1   v080
	BYTE	W06
	BYTE		N05     Cn1   v124
	BYTE	W06
	BYTE		N06     Dn1   v127
	BYTE		N03     Fs1   v080
	BYTE		N12     Gn2   v112
	BYTE	W06
	BYTE		N05     Cn1   v124
	BYTE	W06
	BYTE		N05   
	BYTE		N03     Fs1   v080
	BYTE	W06
	BYTE		N05     Cn1   v124
	BYTE		N03     Fs1   v080
	BYTE	W06
	BYTE		N06     Dn1   v127
	BYTE		N03     Fs1   v080
	BYTE		N12     Gn2   v112
	BYTE	W06
	BYTE		N05     Cn1   v124
	BYTE		N03     Fs1   v080
	BYTE	W06
	BYTE		N05     Cn1   v124
	BYTE		N03     Fs1   v080
	BYTE	W06
	BYTE		N05     Cn1   v124
	BYTE		N03     Fs1   v080
	BYTE	W06
	BYTE		N06     Dn1   v127
	BYTE		N03     Fs1   v080
	BYTE		N12     Gn2   v112
	BYTE	W06
	BYTE		N05     Cn1   v124
	BYTE		N03     Fs1   v080
	BYTE	W06
	BYTE		N05     Cn1   v124
	BYTE		N03     Fs1   v080
	BYTE	W06
	BYTE		N05     Cn1   v124
	BYTE	W06
// 042   ----------------------------------------
	BYTE	PATT
	 POIN2	Taisen4_11_040
// 043   ----------------------------------------
	BYTE		N06     Dn1   v127
	BYTE		N03     Fs1   v080
	BYTE		N12     Gn2   v112
	BYTE	W06
	BYTE		N05     Cn1   v124
	BYTE	W06
	BYTE		N05   
	BYTE		N03     Fs1   v080
	BYTE	W06
	BYTE		N05     Cn1   v124
	BYTE	W06
	BYTE		N06     Dn1   v127
	BYTE		N03     Fs1   v080
	BYTE		N12     Gn2   v112
	BYTE	W06
	BYTE		N05     Cn1   v124
	BYTE	W06
	BYTE		N05   
	BYTE		N03     Fs1   v080
	BYTE	W06
	BYTE		N05     Cn1   v124
	BYTE	W06
	BYTE		N06     Dn1   v127
	BYTE		N03     Fs1   v080
	BYTE	W06
	BYTE		N05     Cn1   v124
	BYTE	W06
	BYTE		N05   
	BYTE		N03     Fs1   v080
	BYTE		N05     Dn2   v127
	BYTE	W06
	BYTE		        Cn1   v124
	BYTE		N05     Dn2   v127
	BYTE	W06
	BYTE		N06     Dn1 
	BYTE		N03     Fs1   v080
	BYTE		N05     Cn2   v127
	BYTE	W06
	BYTE		        Cn1   v124
	BYTE		N05     Cn2   v127
	BYTE	W06
	BYTE		        Cn1   v124
	BYTE		N03     Fs1   v080
	BYTE		N05     Bn1   v127
	BYTE	W06
	BYTE		        Cn1   v124
	BYTE		N05     Bn1   v127
	BYTE	W06
// 044   ----------------------------------------
	BYTE	PATT
	 POIN2	Taisen4_11_040
// 045   ----------------------------------------
	BYTE		N06     Dn1   v127
	BYTE		N03     Fs1   v080
	BYTE		N12     Gn2   v112
	BYTE	W06
	BYTE		N05     Cn1   v124
	BYTE	W06
	BYTE		N05   
	BYTE		N03     Fs1   v080
	BYTE	W06
	BYTE		N05     Cn1   v124
	BYTE		N03     Fs1   v080
	BYTE	W06
	BYTE		N06     Dn1   v127
	BYTE		N03     Fs1   v080
	BYTE		N12     Gn2   v112
	BYTE	W06
	BYTE		N05     Cn1   v124
	BYTE	W06
	BYTE		N05   
	BYTE		N03     Fs1   v080
	BYTE	W06
	BYTE		N05     Cn1   v124
	BYTE		N03     Fs1   v080
	BYTE	W06
	BYTE		N06     Dn1   v127
	BYTE		N03     Fs1   v080
	BYTE		N12     Gn2   v112
	BYTE	W06
	BYTE		N05     Cn1   v124
	BYTE		N03     Fs1   v080
	BYTE	W06
	BYTE		N05     Cn1   v124
	BYTE		N03     Fs1   v080
	BYTE	W06
	BYTE		N05     Cn1   v124
	BYTE		N03     Fs1   v080
	BYTE	W06
	BYTE		N06     Dn1   v127
	BYTE		N03     Fs1   v080
	BYTE		N12     Gn2   v112
	BYTE	W06
	BYTE		N05     Cn1   v124
	BYTE		N03     Fs1   v080
	BYTE	W06
	BYTE		N05     Cn1   v124
	BYTE	W06
	BYTE		N05   
	BYTE	W06
// 046   ----------------------------------------
	BYTE	PATT
	 POIN2	Taisen4_11_040
// 047   ----------------------------------------
	BYTE		N06     Dn1   v127
	BYTE		N03     Fs1   v080
	BYTE		N12     Gn2   v112
	BYTE	W06
	BYTE		N05     Cn1   v124
	BYTE	W06
	BYTE		N05   
	BYTE		N03     Fs1   v080
	BYTE	W06
	BYTE		N05     Cn1   v124
	BYTE	W06
	BYTE		N06     Dn1   v127
	BYTE		N03     Fs1   v080
	BYTE		N12     Gn2   v112
	BYTE	W06
	BYTE		N05     Cn1   v124
	BYTE	W06
	BYTE		N05   
	BYTE		N03     Fs1   v080
	BYTE		N05     Dn2   v127
	BYTE	W06
	BYTE		        Cn1   v124
	BYTE		N05     Cn2   v127
	BYTE	W06
	BYTE		        Cn1   v124
	BYTE		N03     Fs1   v080
	BYTE		N05     Bn1   v127
	BYTE	W06
	BYTE		        Cn1   v124
	BYTE		N05     Cn2   v127
	BYTE	W06
	BYTE		        Cn1   v124
	BYTE		N03     Fs1   v080
	BYTE		N05     Bn1   v127
	BYTE	W06
	BYTE		        Cn1   v124
	BYTE		N05     An1   v127
	BYTE	W06
	BYTE		        Dn1   v124
	BYTE		N03     Fs1   v080
	BYTE	W06
	BYTE		N05     Dn1   v124
	BYTE	W06
	BYTE		N05   
	BYTE		N03     Fs1   v080
	BYTE	W06
	BYTE		N05     Dn1   v124
	BYTE	W05
	BYTE		BEND    c_v+0
	BYTE	W01
	BYTE	GoTo
	 POIN2	Taisen4_11_B1
Taisen4_11_B2:
// 048   ----------------------------------------
	BYTE	FINE

//******************************************************//
	ALIGN 4

Taisen4:
	BYTE	11	// NumTrks
	BYTE	0	// NumBlks
	BYTE	Taisen4_pri	// Priority
	BYTE	Taisen4_rev	// Reverb.

	POIN2	Taisen4_grp

	POIN2	Taisen4_1
	POIN2	Taisen4_2
	POIN2	Taisen4_3
	POIN2	Taisen4_4
	POIN2	Taisen4_5
	POIN2	Taisen4_6
	POIN2	Taisen4_7
	POIN2	Taisen4_8
	POIN2	Taisen4_9
	POIN2	Taisen4_10
	POIN2	Taisen4_11

	
