//Event file generated from Sappy .s format.
	#include "MPlayDef.event"

	#define	TrainRush_grp  voicegroup000
	#define	TrainRush_pri  0
	#define	TrainRush_rev  0
	#define	TrainRush_mvl  127
	#define	TrainRush_key  0
	#define	TrainRush_tbs  1
	#define	TrainRush_exg  0
	#define	TrainRush_cmp  1

	// .rodata
	//	TrainRush
	ALIGN 4

//**************** Track 1 (Midi-Chn.1) ****************//

TrainRush_1:
	BYTE	KEYSH   TrainRush_key+0
// 000   ----------------------------------------
	BYTE	TEMPO   124*TrainRush_tbs/2
	BYTE		VOICE   59
	BYTE		VOL     81*TrainRush_mvl/mxv
	BYTE		PAN     c_v+0
	BYTE	W96
// 001   ----------------------------------------
	BYTE	W96
TrainRush_1_B1:
// 002   ----------------------------------------
	BYTE	W96
// 003   ----------------------------------------
	BYTE	W96
// 004   ----------------------------------------
	BYTE	W96
// 005   ----------------------------------------
	BYTE	W96
// 006   ----------------------------------------
	BYTE	W96
// 007   ----------------------------------------
	BYTE	W96
// 008   ----------------------------------------
	BYTE	W96
// 009   ----------------------------------------
	BYTE	W96
// 010   ----------------------------------------
	BYTE	W96
// 011   ----------------------------------------
	BYTE	W96
// 012   ----------------------------------------
	BYTE	W96
// 013   ----------------------------------------
	BYTE	W96
// 014   ----------------------------------------
	BYTE	W96
// 015   ----------------------------------------
	BYTE	W96
// 016   ----------------------------------------
	BYTE	W96
// 017   ----------------------------------------
	BYTE	W96
// 018   ----------------------------------------
	BYTE	W96
// 019   ----------------------------------------
	BYTE	W96
// 020   ----------------------------------------
	BYTE	W96
// 021   ----------------------------------------
	BYTE	W96
// 022   ----------------------------------------
	BYTE	W96
// 023   ----------------------------------------
	BYTE	W96
// 024   ----------------------------------------
	BYTE	W96
// 025   ----------------------------------------
	BYTE	W96
// 026   ----------------------------------------
TrainRush_1_026:
	BYTE		N06     Cn3   v064
	BYTE	W07
	BYTE		N04   
	BYTE	W05
	BYTE		N06     Gn2 
	BYTE	W07
	BYTE		N15     Cn3 
	BYTE	W17
	BYTE		N06     Gn2 
	BYTE	W07
	BYTE		N04     Cn3 
	BYTE	W05
	BYTE		N06   
	BYTE	W07
	BYTE		N04   
	BYTE	W05
	BYTE		N06     Gn2 
	BYTE	W07
	BYTE		N15     Cn3 
	BYTE	W17
	BYTE		N06     Gn2 
	BYTE	W07
	BYTE		N04     Cn3 
	BYTE	W05
	BYTE	PEND
// 027   ----------------------------------------
	BYTE	PATT
	 POIN2	TrainRush_1_026
// 028   ----------------------------------------
	BYTE	PATT
	 POIN2	TrainRush_1_026
// 029   ----------------------------------------
	BYTE	PATT
	 POIN2	TrainRush_1_026
// 030   ----------------------------------------
	BYTE	PATT
	 POIN2	TrainRush_1_026
// 031   ----------------------------------------
	BYTE	PATT
	 POIN2	TrainRush_1_026
// 032   ----------------------------------------
	BYTE	W96
// 033   ----------------------------------------
	BYTE	W84
	BYTE		N06     Cn3   v096
	BYTE	W07
	BYTE		N04     Dn3 
	BYTE	W05
// 034   ----------------------------------------
TrainRush_1_034:
	BYTE		N11     Ds3   v096
	BYTE	W12
	BYTE		N11   
	BYTE	W12
	BYTE		        Dn3 
	BYTE	W12
	BYTE		N11   
	BYTE	W12
	BYTE		N06     Cn3 
	BYTE	W07
	BYTE		N11   
	BYTE	W12
	BYTE		N15     Gn2 
	BYTE	W17
	BYTE		N11   
	BYTE	W12
	BYTE	PEND
// 035   ----------------------------------------
	BYTE		N18     Fs3 
	BYTE	W19
	BYTE		N04     Ds3 
	BYTE	W05
	BYTE		N06     Fn3 
	BYTE	W07
	BYTE		N11     Cn3 
	BYTE	W12
	BYTE		N04     Ds3 
	BYTE	W05
	BYTE		N32   
	BYTE	W36
	BYTE		N06     Cn3 
	BYTE	W07
	BYTE		N04     Dn3 
	BYTE	W05
// 036   ----------------------------------------
	BYTE	PATT
	 POIN2	TrainRush_1_034
// 037   ----------------------------------------
	BYTE		N18     Fn3   v096
	BYTE	W19
	BYTE		N04     Fs3 
	BYTE	W05
	BYTE		N06     Fn3 
	BYTE	W07
	BYTE		N11     Ds3 
	BYTE	W12
	BYTE		N48     Cn3 
	BYTE	W52
	BYTE	W01
// 038   ----------------------------------------
	BYTE		N11     Cn2 
	BYTE		N11     Cn3 
	BYTE	W12
	BYTE		        Ds2 
	BYTE		N11     Ds3 
	BYTE	W12
	BYTE		N06     Gn2 
	BYTE		N06     Gn3 
	BYTE	W07
	BYTE		N15     Cn2 
	BYTE	W17
	BYTE		N18   
	BYTE		N18     Cn3 
	BYTE	W19
	BYTE		N15     Cn2 
	BYTE		N15     Cn3 
	BYTE	W17
	BYTE		N06     Ds2 
	BYTE		N06     Ds3 
	BYTE	W07
	BYTE		N04     Fn2 
	BYTE		N04     Fn3 
	BYTE	W05
// 039   ----------------------------------------
	BYTE		N11     Fs2 
	BYTE		N11     Fs3 
	BYTE	W12
	BYTE		        Dn2 
	BYTE		N11     Dn3 
	BYTE	W12
	BYTE		N06     Dn2 
	BYTE		N06     Dn3 
	BYTE	W07
	BYTE		N15     Fs2 
	BYTE		N15     Fs3 
	BYTE	W17
	BYTE		N18     Fn2 
	BYTE		N18     Fn3 
	BYTE	W19
	BYTE		N24     Ds2 
	BYTE		N24     Ds3 
	BYTE	W28
	BYTE	W01
// 040   ----------------------------------------
	BYTE	W12
	BYTE		N11     Cn2 
	BYTE		N11     Cn3 
	BYTE	W12
	BYTE		N22     Gn2 
	BYTE		N22     Gn3 
	BYTE	W24
	BYTE		N06     Fs2 
	BYTE		N06     Fs3 
	BYTE	W07
	BYTE		N04     Fn2 
	BYTE		N04     Fn3 
	BYTE	W05
	BYTE		N06     Ds2 
	BYTE		N06     Ds3 
	BYTE	W07
	BYTE		N11     Cn2 
	BYTE		N11     Cn3 
	BYTE	W12
	BYTE		        Bn1 
	BYTE		N11     Bn2 
	BYTE	W12
	BYTE		N15     Cn2 
	BYTE		N15     Cn3 
	BYTE	W05
// 041   ----------------------------------------
	BYTE	W12
	BYTE		N18     Fs2 
	BYTE		N18     Fs3 
	BYTE	W19
	BYTE		N15     Fn2 
	BYTE		N15     Fn3 
	BYTE	W17
	BYTE		N18     Ds2 
	BYTE		N18     Ds3 
	BYTE	W19
	BYTE		N14     Cn2 
	BYTE		N14     Cn3 
	BYTE	W28
	BYTE	W01
// 042   ----------------------------------------
	BYTE	W96
// 043   ----------------------------------------
	BYTE	W96
// 044   ----------------------------------------
	BYTE	W96
// 045   ----------------------------------------
	BYTE	W96
// 046   ----------------------------------------
	BYTE		N11     Cn3   v064
	BYTE		N11     Cn4 
	BYTE	W24
	BYTE		        Cn3 
	BYTE		N11     Cn4 
	BYTE	W24
	BYTE		        Ds3 
	BYTE		N11     Ds4 
	BYTE	W24
	BYTE		        Ds3   v060
	BYTE		N11     Ds4 
	BYTE	W24
// 047   ----------------------------------------
	BYTE		        Dn3 
	BYTE		N11     Dn4 
	BYTE	W24
	BYTE		        Dn3   v056
	BYTE		N11     Dn4 
	BYTE	W24
	BYTE		        Gn2 
	BYTE		N11     Gn3 
	BYTE	W24
	BYTE		        Gn2   v052
	BYTE		N11     Gn3 
	BYTE	W24
// 048   ----------------------------------------
	BYTE		        Cn3 
	BYTE		N11     Cn4 
	BYTE	W24
	BYTE		        Cn3 
	BYTE		N11     Cn4 
	BYTE	W24
	BYTE		        Ds3 
	BYTE		N11     Ds4 
	BYTE	W24
	BYTE		        Ds3 
	BYTE		N11     Ds4 
	BYTE	W24
// 049   ----------------------------------------
	BYTE		        Dn3 
	BYTE		N11     Dn4 
	BYTE	W24
	BYTE		        Cs3 
	BYTE		N11     Cs4 
	BYTE	W24
	BYTE		        Cn3 
	BYTE		N11     Cn4 
	BYTE	W24
	BYTE		        Gn2 
	BYTE		N11     Gn3 
	BYTE	W24
// 050   ----------------------------------------
TrainRush_1_050:
	BYTE		N06     Cn3   v052
	BYTE	W07
	BYTE		N04   
	BYTE	W05
	BYTE		N06     Gn2 
	BYTE	W07
	BYTE		N15     Cn3 
	BYTE	W17
	BYTE		N06     Gn2 
	BYTE	W07
	BYTE		N04     Cn3 
	BYTE	W05
	BYTE		N06   
	BYTE	W07
	BYTE		N04   
	BYTE	W05
	BYTE		N06     Gn2 
	BYTE	W07
	BYTE		N15     Cn3 
	BYTE	W17
	BYTE		N06     Gn2 
	BYTE	W07
	BYTE		N04     Cn3 
	BYTE	W05
	BYTE	PEND
// 051   ----------------------------------------
	BYTE	PATT
	 POIN2	TrainRush_1_050
// 052   ----------------------------------------
	BYTE	PATT
	 POIN2	TrainRush_1_050
// 053   ----------------------------------------
	BYTE	PATT
	 POIN2	TrainRush_1_050
// 054   ----------------------------------------
	BYTE	W96
// 055   ----------------------------------------
	BYTE	W96
// 056   ----------------------------------------
	BYTE	W96
// 057   ----------------------------------------
	BYTE	W96
// 058   ----------------------------------------
	BYTE	W96
// 059   ----------------------------------------
	BYTE	W96
// 060   ----------------------------------------
	BYTE	W96
// 061   ----------------------------------------
	BYTE	W84
	BYTE	TEMPO   135*TrainRush_tbs/2
	BYTE	W12
// 062   ----------------------------------------
	BYTE	W96
// 063   ----------------------------------------
	BYTE	W96
// 064   ----------------------------------------
	BYTE	W96
// 065   ----------------------------------------
	BYTE	W96
// 066   ----------------------------------------
	BYTE	W96
// 067   ----------------------------------------
	BYTE	W96
// 068   ----------------------------------------
	BYTE	W96
// 069   ----------------------------------------
	BYTE	W96
	BYTE	GoTo
	 POIN2	TrainRush_1_B1
TrainRush_1_B2:
// 070   ----------------------------------------
	BYTE	FINE

//**************** Track 2 (Midi-Chn.2) ****************//

TrainRush_2:
	BYTE	KEYSH   TrainRush_key+0
// 000   ----------------------------------------
	BYTE		VOICE   1
	BYTE		VOL     100*TrainRush_mvl/mxv
	BYTE		PAN     c_v+0
	BYTE	W96
// 001   ----------------------------------------
	BYTE	W96
TrainRush_2_B1:
// 002   ----------------------------------------
	BYTE	W96
// 003   ----------------------------------------
	BYTE	W96
// 004   ----------------------------------------
	BYTE	W96
// 005   ----------------------------------------
	BYTE	W96
// 006   ----------------------------------------
	BYTE	W96
// 007   ----------------------------------------
	BYTE	W96
// 008   ----------------------------------------
	BYTE	W96
// 009   ----------------------------------------
	BYTE	W96
// 010   ----------------------------------------
	BYTE	W96
// 011   ----------------------------------------
	BYTE	W96
// 012   ----------------------------------------
	BYTE	W96
// 013   ----------------------------------------
	BYTE	W96
// 014   ----------------------------------------
	BYTE	W96
// 015   ----------------------------------------
	BYTE	W96
// 016   ----------------------------------------
	BYTE	W96
// 017   ----------------------------------------
	BYTE	W96
// 018   ----------------------------------------
	BYTE	W96
// 019   ----------------------------------------
	BYTE	W96
// 020   ----------------------------------------
	BYTE	W96
// 021   ----------------------------------------
	BYTE	W96
// 022   ----------------------------------------
	BYTE	W96
// 023   ----------------------------------------
	BYTE	W96
// 024   ----------------------------------------
	BYTE	W96
// 025   ----------------------------------------
	BYTE	W96
// 026   ----------------------------------------
TrainRush_2_026:
	BYTE		N07     Cn4   v064
	BYTE	W07
	BYTE		N04   
	BYTE	W05
	BYTE		N07     Gn3 
	BYTE	W07
	BYTE		N16     Cn4 
	BYTE	W17
	BYTE		N07     Gn3 
	BYTE	W07
	BYTE		N04     Cn4 
	BYTE	W05
	BYTE		N07   
	BYTE	W07
	BYTE		N04   
	BYTE	W05
	BYTE		N07     Gn3 
	BYTE	W07
	BYTE		N16     Cn4 
	BYTE	W17
	BYTE		N07     Gn3 
	BYTE	W07
	BYTE		N04     Cn4 
	BYTE	W05
	BYTE	PEND
// 027   ----------------------------------------
	BYTE	PATT
	 POIN2	TrainRush_2_026
// 028   ----------------------------------------
	BYTE	PATT
	 POIN2	TrainRush_2_026
// 029   ----------------------------------------
	BYTE	PATT
	 POIN2	TrainRush_2_026
// 030   ----------------------------------------
	BYTE	PATT
	 POIN2	TrainRush_2_026
// 031   ----------------------------------------
	BYTE	PATT
	 POIN2	TrainRush_2_026
// 032   ----------------------------------------
	BYTE	W96
// 033   ----------------------------------------
	BYTE	W84
	BYTE		N07     Cn4   v096
	BYTE	W07
	BYTE		N04     Dn4 
	BYTE	W05
// 034   ----------------------------------------
TrainRush_2_034:
	BYTE		N11     Ds4   v096
	BYTE	W12
	BYTE		N11   
	BYTE	W12
	BYTE		        Dn4 
	BYTE	W12
	BYTE		N11   
	BYTE	W12
	BYTE		N07     Cn4 
	BYTE	W07
	BYTE		N11   
	BYTE	W12
	BYTE		N16     Gn3 
	BYTE	W17
	BYTE		N11   
	BYTE	W12
	BYTE	PEND
// 035   ----------------------------------------
	BYTE		N19     Fs4 
	BYTE	W19
	BYTE		N04     Ds4 
	BYTE	W05
	BYTE		N07     Fn4 
	BYTE	W07
	BYTE		N11     Cn4 
	BYTE	W12
	BYTE		N04     Ds4 
	BYTE	W05
	BYTE		N32   
	BYTE	W36
	BYTE		N07     Cn4 
	BYTE	W07
	BYTE		N04     Dn4 
	BYTE	W05
// 036   ----------------------------------------
	BYTE	PATT
	 POIN2	TrainRush_2_034
// 037   ----------------------------------------
	BYTE		N19     Fn4   v096
	BYTE	W19
	BYTE		N04     Fs4 
	BYTE	W05
	BYTE		N07     Fn4 
	BYTE	W07
	BYTE		N11     Ds4 
	BYTE	W12
	BYTE		N52     Cn4 
	BYTE	W52
	BYTE	W01
// 038   ----------------------------------------
	BYTE		N11     Cn3 
	BYTE	W12
	BYTE		        Ds3 
	BYTE	W12
	BYTE		N07     Gn3 
	BYTE	W07
	BYTE		N16     Cn3 
	BYTE	W17
	BYTE		N19   
	BYTE	W19
	BYTE		N16   
	BYTE	W17
	BYTE		N07     Ds3 
	BYTE	W07
	BYTE		N04     Fn3 
	BYTE	W05
// 039   ----------------------------------------
	BYTE		N11     Fs3   v127
	BYTE	W12
	BYTE		        Dn3 
	BYTE	W12
	BYTE		N07   
	BYTE	W07
	BYTE		N16     Fs3 
	BYTE	W17
	BYTE		N19     Fn3 
	BYTE	W19
	BYTE		N28     Ds3 
	BYTE	W28
	BYTE	W01
// 040   ----------------------------------------
	BYTE	W12
	BYTE		N11     Cn3   v096
	BYTE	W12
	BYTE		N23     Gn3 
	BYTE	W24
	BYTE		N07     Fs3 
	BYTE	W07
	BYTE		N04     Fn3 
	BYTE	W05
	BYTE		N07     Ds3 
	BYTE	W07
	BYTE		N11     Cn3 
	BYTE	W12
	BYTE		        Bn2 
	BYTE	W12
	BYTE		N16     Cn3 
	BYTE	W05
// 041   ----------------------------------------
	BYTE	W12
	BYTE		N19     Fs3 
	BYTE	W19
	BYTE		N16     Fn3 
	BYTE	W17
	BYTE		N19     Ds3 
	BYTE	W19
	BYTE		N14     Cn3 
	BYTE	W28
	BYTE	W01
// 042   ----------------------------------------
	BYTE	W96
// 043   ----------------------------------------
	BYTE	W96
// 044   ----------------------------------------
	BYTE	W96
// 045   ----------------------------------------
	BYTE	W96
// 046   ----------------------------------------
	BYTE		N11     Cn4   v064
	BYTE	W24
	BYTE		N11   
	BYTE	W24
	BYTE		        Ds4 
	BYTE	W24
	BYTE		        Ds4   v060
	BYTE	W24
// 047   ----------------------------------------
	BYTE		        Dn4 
	BYTE	W24
	BYTE		        Dn4   v056
	BYTE	W24
	BYTE		        Gn3 
	BYTE	W24
	BYTE		        Gn3   v052
	BYTE	W24
// 048   ----------------------------------------
	BYTE		        Cn4 
	BYTE	W24
	BYTE		N11   
	BYTE	W24
	BYTE		        Ds4 
	BYTE	W24
	BYTE		N11   
	BYTE	W24
// 049   ----------------------------------------
	BYTE		        Dn4 
	BYTE	W24
	BYTE		        Cs4 
	BYTE	W24
	BYTE		        Cn4 
	BYTE	W24
	BYTE		        Gn3 
	BYTE	W24
// 050   ----------------------------------------
TrainRush_2_050:
	BYTE		N07     Cn4   v052
	BYTE	W07
	BYTE		N04   
	BYTE	W05
	BYTE		N07     Gn3 
	BYTE	W07
	BYTE		N16     Cn4 
	BYTE	W17
	BYTE		N07     Gn3 
	BYTE	W07
	BYTE		N04     Cn4 
	BYTE	W05
	BYTE		N07   
	BYTE	W07
	BYTE		N04   
	BYTE	W05
	BYTE		N07     Gn3 
	BYTE	W07
	BYTE		N16     Cn4 
	BYTE	W17
	BYTE		N07     Gn3 
	BYTE	W07
	BYTE		N04     Cn4 
	BYTE	W05
	BYTE	PEND
// 051   ----------------------------------------
	BYTE	PATT
	 POIN2	TrainRush_2_050
// 052   ----------------------------------------
	BYTE	PATT
	 POIN2	TrainRush_2_050
// 053   ----------------------------------------
	BYTE	PATT
	 POIN2	TrainRush_2_050
// 054   ----------------------------------------
	BYTE	W96
// 055   ----------------------------------------
	BYTE	W96
// 056   ----------------------------------------
	BYTE	W96
// 057   ----------------------------------------
	BYTE	W96
// 058   ----------------------------------------
	BYTE	W96
// 059   ----------------------------------------
	BYTE	W96
// 060   ----------------------------------------
	BYTE	W96
// 061   ----------------------------------------
	BYTE	W96
// 062   ----------------------------------------
	BYTE	W96
// 063   ----------------------------------------
	BYTE	W96
// 064   ----------------------------------------
	BYTE	W96
// 065   ----------------------------------------
	BYTE	W96
// 066   ----------------------------------------
	BYTE	W96
// 067   ----------------------------------------
	BYTE	W96
// 068   ----------------------------------------
	BYTE	W96
// 069   ----------------------------------------
	BYTE	W96
	BYTE	GoTo
	 POIN2	TrainRush_2_B1
TrainRush_2_B2:
// 070   ----------------------------------------
	BYTE	FINE

//**************** Track 3 (Midi-Chn.3) ****************//

TrainRush_3:
	BYTE	KEYSH   TrainRush_key+0
// 000   ----------------------------------------
	BYTE		VOICE   69
	BYTE		VOL     100*TrainRush_mvl/mxv
	BYTE		PAN     c_v+0
	BYTE	W96
// 001   ----------------------------------------
	BYTE	W96
TrainRush_3_B1:
// 002   ----------------------------------------
	BYTE	W96
// 003   ----------------------------------------
	BYTE	W96
// 004   ----------------------------------------
	BYTE	W96
// 005   ----------------------------------------
	BYTE	W96
// 006   ----------------------------------------
	BYTE	W96
// 007   ----------------------------------------
	BYTE	W96
// 008   ----------------------------------------
	BYTE	W96
// 009   ----------------------------------------
	BYTE	W96
// 010   ----------------------------------------
	BYTE	W96
// 011   ----------------------------------------
	BYTE	W96
// 012   ----------------------------------------
	BYTE	W96
// 013   ----------------------------------------
	BYTE	W96
// 014   ----------------------------------------
	BYTE	W96
// 015   ----------------------------------------
	BYTE	W96
// 016   ----------------------------------------
	BYTE	W96
// 017   ----------------------------------------
	BYTE	W96
// 018   ----------------------------------------
	BYTE	W96
// 019   ----------------------------------------
	BYTE	W96
// 020   ----------------------------------------
	BYTE	W96
// 021   ----------------------------------------
	BYTE	W96
// 022   ----------------------------------------
	BYTE	W96
// 023   ----------------------------------------
	BYTE	W96
// 024   ----------------------------------------
	BYTE	W96
// 025   ----------------------------------------
	BYTE	W96
// 026   ----------------------------------------
	BYTE	W96
// 027   ----------------------------------------
	BYTE	W96
// 028   ----------------------------------------
	BYTE	W96
// 029   ----------------------------------------
	BYTE	W96
// 030   ----------------------------------------
	BYTE	W96
// 031   ----------------------------------------
	BYTE	W96
// 032   ----------------------------------------
	BYTE	W96
// 033   ----------------------------------------
	BYTE	W96
// 034   ----------------------------------------
	BYTE	W96
// 035   ----------------------------------------
	BYTE	W96
// 036   ----------------------------------------
	BYTE	W96
// 037   ----------------------------------------
	BYTE	W96
// 038   ----------------------------------------
	BYTE		N11     Cn3   v080
	BYTE		N11     Cn4 
	BYTE	W12
	BYTE		        Ds3 
	BYTE		N11     Ds4 
	BYTE	W12
	BYTE		N07     Gn3 
	BYTE		N07     Gn4 
	BYTE	W07
	BYTE		N16     Cn3 
	BYTE		N16     Cn4 
	BYTE	W17
	BYTE		N19     Cn3 
	BYTE		N19     Cn4 
	BYTE	W19
	BYTE		N16     Cn3 
	BYTE		N16     Cn4 
	BYTE	W17
	BYTE		N07     Ds3 
	BYTE		N07     Ds4 
	BYTE	W07
	BYTE		N04     Fn3 
	BYTE		N04     Fn4 
	BYTE	W05
// 039   ----------------------------------------
	BYTE		N11     Fs3 
	BYTE		N11     Fs4 
	BYTE	W12
	BYTE		        Dn3 
	BYTE		N11     Dn4 
	BYTE	W12
	BYTE		N07     Dn3 
	BYTE		N07     Dn4 
	BYTE	W07
	BYTE		N16     Fs3 
	BYTE		N16     Fs4 
	BYTE	W17
	BYTE		N19     Fn3 
	BYTE		N19     Fn4 
	BYTE	W19
	BYTE		N28     Ds3 
	BYTE		N28     Ds4 
	BYTE	W28
	BYTE	W01
// 040   ----------------------------------------
	BYTE	W12
	BYTE		N11     Cn3 
	BYTE		N11     Cn4 
	BYTE	W12
	BYTE		N23     Gn3 
	BYTE		N23     Gn4 
	BYTE	W24
	BYTE		N07     Fs3 
	BYTE		N07     Fs4 
	BYTE	W07
	BYTE		N04     Fn3 
	BYTE		N04     Fn4 
	BYTE	W05
	BYTE		N07     Ds3 
	BYTE		N07     Ds4 
	BYTE	W07
	BYTE		N11     Cn3 
	BYTE		N11     Cn4 
	BYTE	W12
	BYTE		        Bn2 
	BYTE		N11     Bn3 
	BYTE	W12
	BYTE		N16     Cn3 
	BYTE		N16     Cn4 
	BYTE	W05
// 041   ----------------------------------------
	BYTE	W12
	BYTE		N19     Fs3 
	BYTE		N19     Fs4 
	BYTE	W19
	BYTE		N16     Fn3 
	BYTE		N16     Fn4 
	BYTE	W17
	BYTE		N19     Ds3 
	BYTE		N19     Ds4 
	BYTE	W19
	BYTE		N14     Cn3 
	BYTE		N14     Cn4 
	BYTE	W28
	BYTE	W01
// 042   ----------------------------------------
	BYTE	W96
// 043   ----------------------------------------
	BYTE	W96
// 044   ----------------------------------------
	BYTE	W96
// 045   ----------------------------------------
	BYTE	W96
// 046   ----------------------------------------
	BYTE		N11   
	BYTE	W24
	BYTE		N11   
	BYTE	W24
	BYTE		        Ds4   v076
	BYTE	W24
	BYTE		        Ds4   v072
	BYTE	W24
// 047   ----------------------------------------
	BYTE		        Dn4   v068
	BYTE	W24
	BYTE		        Dn4   v064
	BYTE	W24
	BYTE		        Gn3   v060
	BYTE	W24
	BYTE		        Gn3   v056
	BYTE	W24
// 048   ----------------------------------------
	BYTE		        Cn4   v052
	BYTE	W24
	BYTE		N11   
	BYTE	W24
	BYTE		        Ds4 
	BYTE	W24
	BYTE		N11   
	BYTE	W24
// 049   ----------------------------------------
	BYTE		        Dn4 
	BYTE	W24
	BYTE		        Cs4 
	BYTE	W24
	BYTE		        Cn4 
	BYTE	W24
	BYTE		        Gn3 
	BYTE	W24
// 050   ----------------------------------------
	BYTE	W96
// 051   ----------------------------------------
	BYTE	W96
// 052   ----------------------------------------
	BYTE	W96
// 053   ----------------------------------------
	BYTE	W96
// 054   ----------------------------------------
	BYTE	W96
// 055   ----------------------------------------
	BYTE	W96
// 056   ----------------------------------------
	BYTE	W96
// 057   ----------------------------------------
	BYTE	W96
// 058   ----------------------------------------
	BYTE	W96
// 059   ----------------------------------------
	BYTE	W96
// 060   ----------------------------------------
	BYTE	W96
// 061   ----------------------------------------
	BYTE	W84
	BYTE		N07     An4 
	BYTE	W07
	BYTE		N04     As4 
	BYTE	W05
// 062   ----------------------------------------
	BYTE		N19     Cn5 
	BYTE	W19
	BYTE		N11     Gn4 
	BYTE	W12
	BYTE		N04   
	BYTE	W05
	BYTE		N11     Cn5 
	BYTE	W12
	BYTE		N19   
	BYTE	W19
	BYTE		N11     Gn4 
	BYTE	W12
	BYTE		N07     Fs4 
	BYTE	W08
	BYTE		N08     Gn4 
	BYTE	W09
// 063   ----------------------------------------
	BYTE		N11     Fs4 
	BYTE	W12
	BYTE		N11   
	BYTE	W12
	BYTE		N11   
	BYTE	W12
	BYTE		        Dn4 
	BYTE	W12
	BYTE		N19     Fn4 
	BYTE	W19
	BYTE		N16     Ds4 
	BYTE	W17
	BYTE		N07     Fn4 
	BYTE	W07
	BYTE		N04     Fs4 
	BYTE	W05
// 064   ----------------------------------------
	BYTE		N19     Gn4 
	BYTE	W19
	BYTE		N16     Cn5 
	BYTE	W17
	BYTE		N07     Gn4 
	BYTE	W07
	BYTE		N04     Fs4 
	BYTE	W05
	BYTE		N19     Gn4 
	BYTE	W19
	BYTE		N16     Cn5 
	BYTE	W17
	BYTE		N07     Fs4 
	BYTE	W07
	BYTE		N04     Gn4 
	BYTE	W05
// 065   ----------------------------------------
	BYTE		N11     Fs4 
	BYTE	W12
	BYTE		N11   
	BYTE	W12
	BYTE		        Fn4 
	BYTE	W12
	BYTE		N11   
	BYTE	W12
	BYTE		N19     Ds4 
	BYTE	W19
	BYTE		N23     Cn5 
	BYTE	W28
	BYTE	W01
// 066   ----------------------------------------
	BYTE	W96
// 067   ----------------------------------------
	BYTE	W96
// 068   ----------------------------------------
	BYTE	W96
// 069   ----------------------------------------
	BYTE	W96
	BYTE	GoTo
	 POIN2	TrainRush_3_B1
TrainRush_3_B2:
// 070   ----------------------------------------
	BYTE	FINE

//**************** Track 4 (Midi-Chn.4) ****************//

TrainRush_4:
	BYTE	KEYSH   TrainRush_key+0
// 000   ----------------------------------------
	BYTE		VOICE   56
	BYTE		VOL     127*TrainRush_mvl/mxv
	BYTE		PAN     c_v+0
	BYTE	W96
// 001   ----------------------------------------
	BYTE	W96
TrainRush_4_B1:
// 002   ----------------------------------------
	BYTE	W12
	BYTE		N11     Ds4   v080
	BYTE	W24
	BYTE		N05     Cn4 
	BYTE	W12
	BYTE		N08     Ds4 
	BYTE	W19
	BYTE		        Cn4 
	BYTE	W28
	BYTE	W01
// 003   ----------------------------------------
	BYTE	W12
	BYTE		N11     Fs4 
	BYTE	W24
	BYTE		N05     Dn4 
	BYTE	W12
	BYTE		N08     Fn4 
	BYTE	W19
	BYTE		        Ds4 
	BYTE	W28
	BYTE	W01
// 004   ----------------------------------------
	BYTE	W12
	BYTE		N08   
	BYTE	W19
	BYTE		        Cn4 
	BYTE	W17
	BYTE		        Ds4 
	BYTE	W19
	BYTE		N11     Cn4 
	BYTE	W28
	BYTE	W01
// 005   ----------------------------------------
	BYTE	W12
	BYTE		N08     Fs4 
	BYTE	W19
	BYTE		        Fn4 
	BYTE	W17
	BYTE		        Ds4 
	BYTE	W19
	BYTE		N11     Cn4 
	BYTE	W28
	BYTE	W01
// 006   ----------------------------------------
	BYTE	W96
// 007   ----------------------------------------
	BYTE	W96
// 008   ----------------------------------------
	BYTE	W96
// 009   ----------------------------------------
	BYTE	W96
// 010   ----------------------------------------
TrainRush_4_010:
	BYTE	W12
	BYTE		N05     Cn4   v080
	BYTE	W12
	BYTE		N07     Dn4 
	BYTE	W07
	BYTE		N04     Ds4 
	BYTE	W05
	BYTE		N07     Fn4 
	BYTE	W07
	BYTE		N04     Fs4 
	BYTE	W05
	BYTE		N19     Gn4 
	BYTE	W19
	BYTE		N08     Ds4 
	BYTE	W17
	BYTE		N11     Gn4 
	BYTE	W12
	BYTE	PEND
// 011   ----------------------------------------
	BYTE		N07     Fs4 
	BYTE	W07
	BYTE		N11     Dn4 
	BYTE	W12
	BYTE		        Fs4 
	BYTE	W12
	BYTE		N04     Dn4 
	BYTE	W05
	BYTE		N11     Fs4 
	BYTE	W12
	BYTE		N07     Fn4 
	BYTE	W07
	BYTE		N11     Ds4 
	BYTE	W12
	BYTE		N16     Fn4 
	BYTE	W17
	BYTE		N11     Ds4 
	BYTE	W12
// 012   ----------------------------------------
	BYTE	PATT
	 POIN2	TrainRush_4_010
// 013   ----------------------------------------
	BYTE		N11     Fs4   v080
	BYTE	W12
	BYTE		N11   
	BYTE	W12
	BYTE		N07     Fn4 
	BYTE	W07
	BYTE		N11   
	BYTE	W12
	BYTE		N04   
	BYTE	W05
	BYTE		N11     Ds4 
	BYTE	W48
// 014   ----------------------------------------
	BYTE	W96
// 015   ----------------------------------------
	BYTE	W96
// 016   ----------------------------------------
	BYTE	W96
// 017   ----------------------------------------
	BYTE	W96
// 018   ----------------------------------------
	BYTE		N08     Cn4   v076
	BYTE		N08     Cn5 
	BYTE	W19
	BYTE		N11     Gn3   v064
	BYTE		N11     Gn4 
	BYTE	W12
	BYTE		N04     Gn3 
	BYTE		N04     Gn4 
	BYTE	W05
	BYTE		N11     Cn4 
	BYTE		N11     Cn5 
	BYTE	W12
	BYTE		N08     Cn4   v076
	BYTE		N08     Cn5 
	BYTE	W19
	BYTE		N11     Gn3   v064
	BYTE		N11     Gn4 
	BYTE	W12
	BYTE		N04     Fs3 
	BYTE		N04     Fs4 
	BYTE	W05
	BYTE		N11     Gn3 
	BYTE		N11     Gn4 
	BYTE	W12
// 019   ----------------------------------------
	BYTE		N05     Fs3 
	BYTE		N05     Fs4 
	BYTE	W12
	BYTE		        Fs3 
	BYTE		N05     Fs4 
	BYTE	W12
	BYTE		        Fs3 
	BYTE		N05     Fs4 
	BYTE	W12
	BYTE		        Dn3 
	BYTE		N05     Dn4 
	BYTE	W12
	BYTE		N19     Fn3 
	BYTE		N19     Fn4 
	BYTE	W19
	BYTE		N16     Ds3 
	BYTE		N16     Ds4 
	BYTE	W17
	BYTE		N07     Fn3 
	BYTE		N07     Fn4 
	BYTE	W07
	BYTE		N04     Fs3 
	BYTE		N04     Fs4 
	BYTE	W05
// 020   ----------------------------------------
	BYTE		N19     Gn3 
	BYTE		N19     Gn4 
	BYTE	W19
	BYTE		N08     Cn4   v076
	BYTE		N08     Cn5 
	BYTE	W17
	BYTE		N07     Gn3   v064
	BYTE		N07     Gn4 
	BYTE	W07
	BYTE		N04     Fs3 
	BYTE		N04     Fs4 
	BYTE	W05
	BYTE		N19     Gn3 
	BYTE		N19     Gn4 
	BYTE	W19
	BYTE		N11     Cn4   v076
	BYTE		N11     Cn5 
	BYTE	W17
	BYTE		N07     Fs3   v064
	BYTE		N07     Fs4 
	BYTE	W07
	BYTE		N04     Gn3 
	BYTE		N04     Gn4 
	BYTE	W05
// 021   ----------------------------------------
	BYTE		N05     Fs3 
	BYTE		N05     Fs4 
	BYTE	W12
	BYTE		        Fs3 
	BYTE		N05     Fs4 
	BYTE	W12
	BYTE		        Fn3 
	BYTE		N05     Fn4 
	BYTE	W12
	BYTE		        Fn3 
	BYTE		N05     Fn4 
	BYTE	W12
	BYTE		N19     Ds3 
	BYTE		N19     Ds4 
	BYTE	W19
	BYTE		N11     Cn4   v076
	BYTE		N11     Cn5 
	BYTE	W28
	BYTE	W01
// 022   ----------------------------------------
TrainRush_4_022:
	BYTE	W07
	BYTE		N11     Gn3   v064
	BYTE		N11     Gn4 
	BYTE	W12
	BYTE		N04     Ds3 
	BYTE		N04     Ds4 
	BYTE	W05
	BYTE		N11     Gn3 
	BYTE		N11     Gn4 
	BYTE	W30
	BYTE	W01
	BYTE		        Fs3 
	BYTE		N11     Fs4 
	BYTE	W12
	BYTE		N04     Dn3 
	BYTE		N04     Dn4 
	BYTE	W05
	BYTE		N11     Fs3 
	BYTE		N11     Fs4 
	BYTE	W12
	BYTE		        Dn3 
	BYTE		N11     Dn4 
	BYTE	W12
	BYTE	PEND
// 023   ----------------------------------------
TrainRush_4_023:
	BYTE		N07     Fs4   v064
	BYTE		N07     Fs5 
	BYTE	W07
	BYTE		N16     Fs4 
	BYTE		N16     Fs5 
	BYTE	W17
	BYTE		N07     Fn4 
	BYTE		N07     Fn5 
	BYTE	W07
	BYTE		N16     Fn4 
	BYTE		N16     Fn5 
	BYTE	W17
	BYTE		N19     Ds4 
	BYTE		N19     Ds5 
	BYTE	W19
	BYTE		N16     Cn4 
	BYTE		N16     Cn5 
	BYTE	W28
	BYTE	W01
	BYTE	PEND
// 024   ----------------------------------------
	BYTE	PATT
	 POIN2	TrainRush_4_022
// 025   ----------------------------------------
	BYTE	PATT
	 POIN2	TrainRush_4_023
// 026   ----------------------------------------
	BYTE	W96
// 027   ----------------------------------------
	BYTE	W96
// 028   ----------------------------------------
	BYTE	W96
// 029   ----------------------------------------
	BYTE	W96
// 030   ----------------------------------------
	BYTE	W96
// 031   ----------------------------------------
	BYTE	W96
// 032   ----------------------------------------
	BYTE	W96
// 033   ----------------------------------------
	BYTE	W96
// 034   ----------------------------------------
	BYTE	W96
// 035   ----------------------------------------
	BYTE	W96
// 036   ----------------------------------------
	BYTE	W96
// 037   ----------------------------------------
	BYTE	W96
// 038   ----------------------------------------
	BYTE	W96
// 039   ----------------------------------------
	BYTE	W96
// 040   ----------------------------------------
	BYTE	W96
// 041   ----------------------------------------
	BYTE	W96
// 042   ----------------------------------------
TrainRush_4_042:
	BYTE		N11     Cn4   v096
	BYTE	W12
	BYTE		        Bn3 
	BYTE	W12
	BYTE		        Cn4 
	BYTE	W12
	BYTE		        Ds4 
	BYTE	W12
	BYTE		N07     Fn4   v092
	BYTE	W07
	BYTE		N11     Fs4 
	BYTE	W12
	BYTE		N16     Fn4 
	BYTE	W17
	BYTE		N11     Ds4 
	BYTE	W12
	BYTE	PEND
// 043   ----------------------------------------
TrainRush_4_043:
	BYTE		N11     Cn4   v088
	BYTE	W12
	BYTE		        Bn3 
	BYTE	W12
	BYTE		        Cn4 
	BYTE	W12
	BYTE		        Ds4 
	BYTE	W12
	BYTE		N07     Gn4   v084
	BYTE	W07
	BYTE		N11     Fs4 
	BYTE	W12
	BYTE		N16     Fn4 
	BYTE	W17
	BYTE		N11     Ds4 
	BYTE	W12
	BYTE	PEND
// 044   ----------------------------------------
TrainRush_4_044:
	BYTE		N11     Cn4   v080
	BYTE	W12
	BYTE		N02     As3 
	BYTE	W07
	BYTE		N11     Cn4 
	BYTE	W64
	BYTE	W01
	BYTE		N05     As3 
	BYTE	W12
	BYTE	PEND
// 045   ----------------------------------------
TrainRush_4_045:
	BYTE		N11     Cn4   v080
	BYTE	W12
	BYTE		N02     As3 
	BYTE	W07
	BYTE		N11     Cn4 
	BYTE	W76
	BYTE	W01
	BYTE	PEND
// 046   ----------------------------------------
	BYTE	PATT
	 POIN2	TrainRush_4_042
// 047   ----------------------------------------
	BYTE	PATT
	 POIN2	TrainRush_4_043
// 048   ----------------------------------------
	BYTE	PATT
	 POIN2	TrainRush_4_044
// 049   ----------------------------------------
	BYTE	PATT
	 POIN2	TrainRush_4_045
// 050   ----------------------------------------
	BYTE	W96
// 051   ----------------------------------------
	BYTE	W96
// 052   ----------------------------------------
	BYTE	W96
// 053   ----------------------------------------
	BYTE	W96
// 054   ----------------------------------------
	BYTE	W96
// 055   ----------------------------------------
	BYTE	W96
// 056   ----------------------------------------
	BYTE	W96
// 057   ----------------------------------------
	BYTE	W84
	BYTE		N07     An3   v080
	BYTE		N07     An4 
	BYTE	W07
	BYTE		N04     As3 
	BYTE		N04     As4 
	BYTE	W05
// 058   ----------------------------------------
	BYTE		N19     Cn4 
	BYTE		N19     Cn5 
	BYTE	W19
	BYTE		N11     Gn3 
	BYTE		N11     Gn4 
	BYTE	W12
	BYTE		N04     Gn3 
	BYTE		N04     Gn4 
	BYTE	W05
	BYTE		N11     Cn4 
	BYTE		N11     Cn5 
	BYTE	W12
	BYTE		N19     Cn4 
	BYTE		N19     Cn5 
	BYTE	W19
	BYTE		N11     Gn3 
	BYTE		N11     Gn4 
	BYTE	W12
	BYTE		N07     Fn3 
	BYTE		N07     Fn4 
	BYTE	W08
	BYTE		N08     Gn3 
	BYTE		N08     Gn4 
	BYTE	W09
// 059   ----------------------------------------
	BYTE		N11     Fs3 
	BYTE		N11     Fs4 
	BYTE	W12
	BYTE		        Fs3 
	BYTE		N11     Fs4 
	BYTE	W12
	BYTE		        Fs3 
	BYTE		N11     Fs4 
	BYTE	W12
	BYTE		        Dn3 
	BYTE		N11     Dn4 
	BYTE	W12
	BYTE		N19     Fn3 
	BYTE		N19     Fn4 
	BYTE	W19
	BYTE		N16     Ds3 
	BYTE		N16     Ds4 
	BYTE	W17
	BYTE		N07     Fn3 
	BYTE		N07     Fn4 
	BYTE	W07
	BYTE		N04     Fs3 
	BYTE		N04     Fs4 
	BYTE	W05
// 060   ----------------------------------------
	BYTE		N19     Gn3 
	BYTE		N19     Gn4 
	BYTE	W19
	BYTE		N16     Cn4 
	BYTE		N16     Cn5 
	BYTE	W17
	BYTE		N07     Gn3 
	BYTE		N07     Gn4 
	BYTE	W07
	BYTE		N04     Fs3 
	BYTE		N04     Fs4 
	BYTE	W05
	BYTE		N19     Gn3 
	BYTE		N19     Gn4 
	BYTE	W19
	BYTE		N16     Cn4 
	BYTE		N16     Cn5 
	BYTE	W17
	BYTE		N07     Fs3 
	BYTE		N07     Fs4 
	BYTE	W07
	BYTE		N04     Gn3 
	BYTE		N04     Gn4 
	BYTE	W05
// 061   ----------------------------------------
	BYTE		N11     Fs3 
	BYTE		N11     Fs4 
	BYTE	W12
	BYTE		        Fs3 
	BYTE		N11     Fs4 
	BYTE	W12
	BYTE		        Fn3 
	BYTE		N11     Fn4 
	BYTE	W12
	BYTE		        Fn3 
	BYTE		N11     Fn4 
	BYTE	W12
	BYTE		N19     Ds3 
	BYTE		N19     Ds4 
	BYTE	W19
	BYTE		N11     Cn4 
	BYTE	W12
	BYTE		N07     An4 
	BYTE	W08
	BYTE		N08     As4 
	BYTE	W09
// 062   ----------------------------------------
	BYTE		N19     Cn5 
	BYTE	W19
	BYTE		N11     Gn4 
	BYTE	W12
	BYTE		N04   
	BYTE	W05
	BYTE		N11     Cn5 
	BYTE	W12
	BYTE		N19   
	BYTE	W19
	BYTE		N11     Gn4 
	BYTE	W12
	BYTE		N07     Fn4 
	BYTE	W08
	BYTE		N08     Gn4 
	BYTE	W09
// 063   ----------------------------------------
	BYTE		N11     Fs4 
	BYTE	W12
	BYTE		N11   
	BYTE	W12
	BYTE		N11   
	BYTE	W12
	BYTE		        Dn4 
	BYTE	W12
	BYTE		N19     Fn4 
	BYTE	W19
	BYTE		N16     Ds4 
	BYTE	W17
	BYTE		N07     Fn4 
	BYTE	W07
	BYTE		N04     Fs4 
	BYTE	W05
// 064   ----------------------------------------
	BYTE		N19     Gn4 
	BYTE	W19
	BYTE		N16     Cn5 
	BYTE	W17
	BYTE		N07     Gn4 
	BYTE	W07
	BYTE		N04     Fs4 
	BYTE	W05
	BYTE		N19     Gn4 
	BYTE	W19
	BYTE		N16     Cn5 
	BYTE	W17
	BYTE		N07     Fs4 
	BYTE	W07
	BYTE		N04     Gn4 
	BYTE	W05
// 065   ----------------------------------------
	BYTE		N11     Fs4 
	BYTE	W12
	BYTE		N11   
	BYTE	W12
	BYTE		        Fn4 
	BYTE	W12
	BYTE		N11   
	BYTE	W12
	BYTE		N19     Ds4 
	BYTE	W19
	BYTE		N23     Cn5 
	BYTE	W28
	BYTE	W01
// 066   ----------------------------------------
TrainRush_4_066:
	BYTE	W07
	BYTE		N11     Gn3   v080
	BYTE		N11     Gn4 
	BYTE	W12
	BYTE		N04     Ds3 
	BYTE		N04     Ds4 
	BYTE	W05
	BYTE		N11     Gn3 
	BYTE		N11     Gn4 
	BYTE	W30
	BYTE	W01
	BYTE		        Fs3 
	BYTE		N11     Fs4 
	BYTE	W12
	BYTE		N04     Dn3 
	BYTE		N04     Dn4 
	BYTE	W05
	BYTE		N11     Fs3 
	BYTE		N11     Fs4 
	BYTE	W12
	BYTE		        Dn3 
	BYTE		N11     Dn4 
	BYTE	W12
	BYTE	PEND
// 067   ----------------------------------------
TrainRush_4_067:
	BYTE		N07     Fs4   v080
	BYTE		N07     Fs5 
	BYTE	W07
	BYTE		N16     Fs4 
	BYTE		N16     Fs5 
	BYTE	W17
	BYTE		N07     Fn4 
	BYTE		N07     Fn5 
	BYTE	W07
	BYTE		N16     Fn4 
	BYTE		N16     Fn5 
	BYTE	W17
	BYTE		N19     Ds4 
	BYTE		N19     Ds5 
	BYTE	W19
	BYTE		N16     Cn4 
	BYTE		N16     Cn5 
	BYTE	W28
	BYTE	W01
	BYTE	PEND
// 068   ----------------------------------------
	BYTE	PATT
	 POIN2	TrainRush_4_066
// 069   ----------------------------------------
	BYTE	PATT
	 POIN2	TrainRush_4_067
	BYTE	GoTo
	 POIN2	TrainRush_4_B1
TrainRush_4_B2:
// 070   ----------------------------------------
	BYTE	FINE

//**************** Track 5 (Midi-Chn.5) ****************//

TrainRush_5:
	BYTE	KEYSH   TrainRush_key+0
// 000   ----------------------------------------
	BYTE		VOICE   66
	BYTE		VOL     100*TrainRush_mvl/mxv
	BYTE		PAN     c_v+0
	BYTE	W96
// 001   ----------------------------------------
	BYTE	W96
TrainRush_5_B1:
// 002   ----------------------------------------
	BYTE	W12
	BYTE		N11     Ds2   v080
	BYTE	W24
	BYTE		N05     Cn2 
	BYTE	W12
	BYTE		N08     Ds2 
	BYTE	W19
	BYTE		        Cn2 
	BYTE	W28
	BYTE	W01
// 003   ----------------------------------------
	BYTE	W12
	BYTE		N11     Fs2 
	BYTE	W24
	BYTE		N05     Dn2 
	BYTE	W12
	BYTE		N08     Fn2 
	BYTE	W19
	BYTE		        Dn2 
	BYTE	W28
	BYTE	W01
// 004   ----------------------------------------
	BYTE	W12
	BYTE		        Ds2 
	BYTE	W19
	BYTE		        Cn2 
	BYTE	W17
	BYTE		        Ds2 
	BYTE	W19
	BYTE		N11     Cn2 
	BYTE	W28
	BYTE	W01
// 005   ----------------------------------------
	BYTE	W12
	BYTE		N08     Fs2 
	BYTE	W19
	BYTE		        Fn2 
	BYTE	W17
	BYTE		        Ds2 
	BYTE	W19
	BYTE		N11     Cn2 
	BYTE	W28
	BYTE	W01
// 006   ----------------------------------------
	BYTE	W96
// 007   ----------------------------------------
	BYTE	W96
// 008   ----------------------------------------
	BYTE	W96
// 009   ----------------------------------------
	BYTE	W96
// 010   ----------------------------------------
TrainRush_5_010:
	BYTE	W12
	BYTE		N05     Cn2   v080
	BYTE	W12
	BYTE		N07     Dn2 
	BYTE	W07
	BYTE		N04     Ds2 
	BYTE	W05
	BYTE		N07     Fn2 
	BYTE	W07
	BYTE		N04     Fs2 
	BYTE	W05
	BYTE		N19     Gn2 
	BYTE	W19
	BYTE		N08     Ds2 
	BYTE	W17
	BYTE		N11     Gn2 
	BYTE	W12
	BYTE	PEND
// 011   ----------------------------------------
	BYTE		N07     Fs2 
	BYTE	W07
	BYTE		N11     Dn2 
	BYTE	W12
	BYTE		        Fs2 
	BYTE	W12
	BYTE		N04     Dn2 
	BYTE	W05
	BYTE		N11     Fs2 
	BYTE	W12
	BYTE		N07     Fn2 
	BYTE	W07
	BYTE		N11     Ds2 
	BYTE	W12
	BYTE		N16     Fn2 
	BYTE	W17
	BYTE		N11     Ds2 
	BYTE	W12
// 012   ----------------------------------------
	BYTE	PATT
	 POIN2	TrainRush_5_010
// 013   ----------------------------------------
	BYTE		N11     Fs2   v080
	BYTE	W12
	BYTE		N11   
	BYTE	W12
	BYTE		N07     Fn2 
	BYTE	W07
	BYTE		N11   
	BYTE	W12
	BYTE		N04   
	BYTE	W05
	BYTE		N11     Ds2 
	BYTE	W48
// 014   ----------------------------------------
	BYTE	W96
// 015   ----------------------------------------
	BYTE	W96
// 016   ----------------------------------------
	BYTE	W96
// 017   ----------------------------------------
	BYTE	W96
// 018   ----------------------------------------
	BYTE		N08     Cn3   v076
	BYTE	W19
	BYTE		N11     Gn2   v064
	BYTE	W12
	BYTE		N04   
	BYTE	W05
	BYTE		N11     Cn3 
	BYTE	W12
	BYTE		N12     Cn3   v076
	BYTE	W19
	BYTE		N11     Gn2   v064
	BYTE	W12
	BYTE		N04     Fs2 
	BYTE	W05
	BYTE		N11     Gn2 
	BYTE	W12
// 019   ----------------------------------------
	BYTE		N05     Fs2 
	BYTE	W12
	BYTE		N05   
	BYTE	W12
	BYTE		N05   
	BYTE	W12
	BYTE		        Dn2 
	BYTE	W12
	BYTE		N19     Fn2 
	BYTE	W19
	BYTE		N16     Ds2 
	BYTE	W17
	BYTE		N07     Fn2 
	BYTE	W07
	BYTE		N04     Fs2 
	BYTE	W05
// 020   ----------------------------------------
	BYTE		N19     Gn2 
	BYTE	W19
	BYTE		N08     Cn3   v076
	BYTE	W17
	BYTE		N07     Gn2   v064
	BYTE	W07
	BYTE		N04     Fs2 
	BYTE	W05
	BYTE		N19     Gn2 
	BYTE	W19
	BYTE		N08     Cn3   v076
	BYTE	W17
	BYTE		N07     Fs2   v064
	BYTE	W07
	BYTE		N04     Gn2 
	BYTE	W05
// 021   ----------------------------------------
	BYTE		N11     Fs2 
	BYTE	W12
	BYTE		N05   
	BYTE	W12
	BYTE		        Fn2 
	BYTE	W12
	BYTE		N05   
	BYTE	W12
	BYTE		N19     Ds2 
	BYTE	W19
	BYTE		N15     Cn3   v076
	BYTE	W28
	BYTE	W01
// 022   ----------------------------------------
TrainRush_5_022:
	BYTE	W07
	BYTE		N11     Gn2   v080
	BYTE	W12
	BYTE		N04     Ds2 
	BYTE	W05
	BYTE		N11     Gn2 
	BYTE	W30
	BYTE	W01
	BYTE		        Fs2 
	BYTE	W12
	BYTE		N04     Dn2 
	BYTE	W05
	BYTE		N11     Fs2 
	BYTE	W12
	BYTE		        Dn2 
	BYTE	W12
	BYTE	PEND
// 023   ----------------------------------------
TrainRush_5_023:
	BYTE		N07     Fs2   v080
	BYTE	W07
	BYTE		N08   
	BYTE	W17
	BYTE		N07     Fn2 
	BYTE	W07
	BYTE		N16   
	BYTE	W17
	BYTE		N19     Ds2 
	BYTE	W19
	BYTE		N16     Cn2 
	BYTE	W28
	BYTE	W01
	BYTE	PEND
// 024   ----------------------------------------
	BYTE	PATT
	 POIN2	TrainRush_5_022
// 025   ----------------------------------------
	BYTE	PATT
	 POIN2	TrainRush_5_023
// 026   ----------------------------------------
	BYTE	W96
// 027   ----------------------------------------
	BYTE	W96
// 028   ----------------------------------------
	BYTE	W96
// 029   ----------------------------------------
	BYTE	W96
// 030   ----------------------------------------
	BYTE	W96
// 031   ----------------------------------------
	BYTE	W96
// 032   ----------------------------------------
	BYTE	W96
// 033   ----------------------------------------
	BYTE	W96
// 034   ----------------------------------------
	BYTE	W96
// 035   ----------------------------------------
	BYTE	W96
// 036   ----------------------------------------
	BYTE	W96
// 037   ----------------------------------------
	BYTE	W96
// 038   ----------------------------------------
	BYTE	W96
// 039   ----------------------------------------
	BYTE	W96
// 040   ----------------------------------------
	BYTE	W96
// 041   ----------------------------------------
	BYTE	W96
// 042   ----------------------------------------
TrainRush_5_042:
	BYTE		N11     Cn3   v096
	BYTE	W12
	BYTE		        Bn2 
	BYTE	W12
	BYTE		        Cn3 
	BYTE	W12
	BYTE		        Ds3 
	BYTE	W12
	BYTE		N07     Fn3   v092
	BYTE	W07
	BYTE		N11     Fs3 
	BYTE	W12
	BYTE		N16     Fn3 
	BYTE	W17
	BYTE		N11     Ds3 
	BYTE	W12
	BYTE	PEND
// 043   ----------------------------------------
TrainRush_5_043:
	BYTE		N11     Cn3   v088
	BYTE	W12
	BYTE		        Bn2 
	BYTE	W12
	BYTE		        Cn3 
	BYTE	W12
	BYTE		        Ds3 
	BYTE	W12
	BYTE		N07     Gn3   v084
	BYTE	W07
	BYTE		N11     Fs3 
	BYTE	W12
	BYTE		N16     Fn3 
	BYTE	W17
	BYTE		N11     Ds3 
	BYTE	W12
	BYTE	PEND
// 044   ----------------------------------------
TrainRush_5_044:
	BYTE		N11     Cn3   v080
	BYTE	W12
	BYTE		N02     As2 
	BYTE	W07
	BYTE		N11     Cn3 
	BYTE	W64
	BYTE	W01
	BYTE		N05     As2 
	BYTE	W12
	BYTE	PEND
// 045   ----------------------------------------
TrainRush_5_045:
	BYTE		N11     Cn3   v080
	BYTE	W12
	BYTE		N02     As2 
	BYTE	W07
	BYTE		N11     Cn3 
	BYTE	W76
	BYTE	W01
	BYTE	PEND
// 046   ----------------------------------------
	BYTE	PATT
	 POIN2	TrainRush_5_042
// 047   ----------------------------------------
	BYTE	PATT
	 POIN2	TrainRush_5_043
// 048   ----------------------------------------
	BYTE	PATT
	 POIN2	TrainRush_5_044
// 049   ----------------------------------------
	BYTE	PATT
	 POIN2	TrainRush_5_045
// 050   ----------------------------------------
	BYTE	W96
// 051   ----------------------------------------
	BYTE	W96
// 052   ----------------------------------------
	BYTE	W96
// 053   ----------------------------------------
	BYTE	W96
// 054   ----------------------------------------
	BYTE	W96
// 055   ----------------------------------------
	BYTE	W96
// 056   ----------------------------------------
	BYTE	W96
// 057   ----------------------------------------
	BYTE	W84
	BYTE		N07     An2   v080
	BYTE	W07
	BYTE		N04     As2 
	BYTE	W05
// 058   ----------------------------------------
	BYTE		N19     Cn3 
	BYTE	W19
	BYTE		N11     Gn2 
	BYTE	W12
	BYTE		N04   
	BYTE	W05
	BYTE		N11     Cn3 
	BYTE	W12
	BYTE		N19   
	BYTE	W19
	BYTE		N11     Gn2 
	BYTE	W12
	BYTE		N04     Fs2 
	BYTE	W05
	BYTE		N11     Gn2 
	BYTE	W12
// 059   ----------------------------------------
	BYTE		        Fs2 
	BYTE	W12
	BYTE		N11   
	BYTE	W12
	BYTE		N11   
	BYTE	W12
	BYTE		        Dn2 
	BYTE	W12
	BYTE		N19     Fn2 
	BYTE	W19
	BYTE		N16     Ds2 
	BYTE	W17
	BYTE		N07     Fn2 
	BYTE	W07
	BYTE		N04     Fs2 
	BYTE	W05
// 060   ----------------------------------------
	BYTE		N19     Gn2 
	BYTE	W19
	BYTE		N16     Cn3 
	BYTE	W17
	BYTE		N07     Gn2 
	BYTE	W07
	BYTE		N04     Fs2 
	BYTE	W05
	BYTE		N19     Gn2 
	BYTE	W19
	BYTE		N16     Cn3 
	BYTE	W17
	BYTE		N07     Fs2 
	BYTE	W07
	BYTE		N04     Gn2 
	BYTE	W05
// 061   ----------------------------------------
	BYTE		N11     Fs2 
	BYTE	W12
	BYTE		N11   
	BYTE	W12
	BYTE		        Fn2 
	BYTE	W12
	BYTE		N11   
	BYTE	W12
	BYTE		N19     Ds2 
	BYTE	W19
	BYTE		N11     Cn2 
	BYTE	W12
	BYTE		N07     An3 
	BYTE	W08
	BYTE		N08     As3   v096
	BYTE	W09
// 062   ----------------------------------------
	BYTE		N19     Cn4 
	BYTE	W19
	BYTE		N11     Gn3 
	BYTE	W12
	BYTE		N04   
	BYTE	W05
	BYTE		N11     Cn4 
	BYTE	W12
	BYTE		N19   
	BYTE	W19
	BYTE		N11     Gn3 
	BYTE	W12
	BYTE		N07     Fs3 
	BYTE	W08
	BYTE		N08     Gn3 
	BYTE	W09
// 063   ----------------------------------------
	BYTE		N11     Fs3 
	BYTE	W12
	BYTE		N11   
	BYTE	W12
	BYTE		N11   
	BYTE	W12
	BYTE		        Dn3 
	BYTE	W12
	BYTE		N19     Fn3 
	BYTE	W19
	BYTE		N16     Ds3 
	BYTE	W17
	BYTE		N07     Fn3 
	BYTE	W07
	BYTE		N04     Fs3 
	BYTE	W05
// 064   ----------------------------------------
	BYTE		N19     Gn3 
	BYTE	W19
	BYTE		N16     Cn4 
	BYTE	W17
	BYTE		N07     Gn3 
	BYTE	W07
	BYTE		N04     Fs3 
	BYTE	W05
	BYTE		N19     Gn3 
	BYTE	W19
	BYTE		N16     Cn4 
	BYTE	W17
	BYTE		N07     Fs3 
	BYTE	W07
	BYTE		N04     Gn3 
	BYTE	W05
// 065   ----------------------------------------
	BYTE		N11     Fs3 
	BYTE	W12
	BYTE		N11   
	BYTE	W12
	BYTE		        Fn3 
	BYTE	W12
	BYTE		N11   
	BYTE	W12
	BYTE		N19     Ds3 
	BYTE	W19
	BYTE		N23     Cn4 
	BYTE	W28
	BYTE	W01
// 066   ----------------------------------------
	BYTE	PATT
	 POIN2	TrainRush_5_022
// 067   ----------------------------------------
	BYTE	PATT
	 POIN2	TrainRush_5_023
// 068   ----------------------------------------
	BYTE	PATT
	 POIN2	TrainRush_5_022
// 069   ----------------------------------------
	BYTE	PATT
	 POIN2	TrainRush_5_023
	BYTE	GoTo
	 POIN2	TrainRush_5_B1
TrainRush_5_B2:
// 070   ----------------------------------------
	BYTE	FINE

//**************** Track 6 (Midi-Chn.6) ****************//

TrainRush_6:
	BYTE	KEYSH   TrainRush_key+0
// 000   ----------------------------------------
	BYTE		VOICE   67
	BYTE		VOL     100*TrainRush_mvl/mxv
	BYTE		PAN     c_v+0
	BYTE	W96
// 001   ----------------------------------------
	BYTE	W96
TrainRush_6_B1:
// 002   ----------------------------------------
TrainRush_6_002:
	BYTE		N11     Cn2   v080
	BYTE	W36
	BYTE		        Gn1 
	BYTE	W12
	BYTE		        Cn2 
	BYTE	W36
	BYTE		        Gn1 
	BYTE	W12
	BYTE	PEND
// 003   ----------------------------------------
	BYTE		        Dn2 
	BYTE	W36
	BYTE		N11   
	BYTE	W12
	BYTE		        Gn1 
	BYTE	W36
	BYTE		N11   
	BYTE	W12
// 004   ----------------------------------------
	BYTE	PATT
	 POIN2	TrainRush_6_002
// 005   ----------------------------------------
	BYTE		N11     Dn2   v080
	BYTE	W24
	BYTE		        Cs2 
	BYTE	W24
	BYTE		        Cn2 
	BYTE	W12
	BYTE		        Gn1 
	BYTE	W12
	BYTE		        An1 
	BYTE	W12
	BYTE		        Bn1 
	BYTE	W12
// 006   ----------------------------------------
TrainRush_6_006:
	BYTE	W12
	BYTE		N08     Ds2   v064
	BYTE	W19
	BYTE		        Cn2 
	BYTE	W17
	BYTE		        Ds2 
	BYTE	W19
	BYTE		N11     Cn2 
	BYTE	W28
	BYTE	W01
	BYTE	PEND
// 007   ----------------------------------------
	BYTE	W12
	BYTE		N08     Fs2 
	BYTE	W19
	BYTE		        Dn2 
	BYTE	W17
	BYTE		        Fn2 
	BYTE	W19
	BYTE		N11     Ds2 
	BYTE	W28
	BYTE	W01
// 008   ----------------------------------------
	BYTE	PATT
	 POIN2	TrainRush_6_006
// 009   ----------------------------------------
	BYTE	W07
	BYTE		N11     Fs2   v064
	BYTE	W12
	BYTE		N04   
	BYTE	W05
	BYTE		N05     Fn2 
	BYTE	W12
	BYTE		N05   
	BYTE	W12
	BYTE		N08     Ds2 
	BYTE	W19
	BYTE		N11     Cn2 
	BYTE	W28
	BYTE	W01
// 010   ----------------------------------------
	BYTE	W96
// 011   ----------------------------------------
	BYTE	W96
// 012   ----------------------------------------
	BYTE	W96
// 013   ----------------------------------------
	BYTE	W96
// 014   ----------------------------------------
TrainRush_6_014:
	BYTE	W12
	BYTE		N11     Cn2   v096
	BYTE	W12
	BYTE		N07     Dn2 
	BYTE	W07
	BYTE		N04     Ds2 
	BYTE	W05
	BYTE		N07     Fn2 
	BYTE	W07
	BYTE		N04     Fs2 
	BYTE	W05
	BYTE		N19     Gn2 
	BYTE	W19
	BYTE		N16     Ds2 
	BYTE	W17
	BYTE		N11     Gn2 
	BYTE	W12
	BYTE	PEND
// 015   ----------------------------------------
	BYTE		N07     Fs2 
	BYTE	W07
	BYTE		N11     Dn2 
	BYTE	W12
	BYTE		        Fs2 
	BYTE	W12
	BYTE		N04     Dn2 
	BYTE	W05
	BYTE		N11     Fs2 
	BYTE	W12
	BYTE		N07     Fn2 
	BYTE	W07
	BYTE		N11     Ds2 
	BYTE	W12
	BYTE		N16     Fn2 
	BYTE	W17
	BYTE		N11     Ds2 
	BYTE	W12
// 016   ----------------------------------------
	BYTE	PATT
	 POIN2	TrainRush_6_014
// 017   ----------------------------------------
	BYTE		N02     Dn3   v096
	BYTE	W07
	BYTE		N05     Fs3 
	BYTE	W12
	BYTE		N02   
	BYTE	W05
	BYTE		N05     Fn3 
	BYTE	W12
	BYTE		N05   
	BYTE	W12
	BYTE		        Ds3 
	BYTE	W12
	BYTE		N02     Gn2 
	BYTE	W07
	BYTE		N16     Cn3 
	BYTE	W28
	BYTE	W01
// 018   ----------------------------------------
	BYTE		N08     Cn2 
	BYTE	W19
	BYTE		N11     Gn1   v080
	BYTE	W12
	BYTE		N04   
	BYTE	W05
	BYTE		N11     Cn2 
	BYTE	W12
	BYTE		N12     Cn2   v096
	BYTE	W19
	BYTE		N11     Gn1   v080
	BYTE	W12
	BYTE		N04     Fs1 
	BYTE	W05
	BYTE		N11     Gn1 
	BYTE	W12
// 019   ----------------------------------------
	BYTE		N05     Fs1 
	BYTE	W12
	BYTE		N05   
	BYTE	W12
	BYTE		N05   
	BYTE	W12
	BYTE		        Dn1 
	BYTE	W12
	BYTE		N19     Fn1 
	BYTE	W19
	BYTE		N16     Ds1 
	BYTE	W17
	BYTE		N07     Fn1 
	BYTE	W07
	BYTE		N04     Fs1 
	BYTE	W05
// 020   ----------------------------------------
	BYTE		N19     Gn1 
	BYTE	W19
	BYTE		N08     Cn2   v096
	BYTE	W17
	BYTE		N07     Gn1   v080
	BYTE	W07
	BYTE		N04     Fs1 
	BYTE	W05
	BYTE		N19     Gn1 
	BYTE	W19
	BYTE		N08     Cn2   v096
	BYTE	W17
	BYTE		N07     Fs1   v080
	BYTE	W07
	BYTE		N04     Gn1 
	BYTE	W05
// 021   ----------------------------------------
	BYTE		N05     Fs1 
	BYTE	W12
	BYTE		N05   
	BYTE	W12
	BYTE		        Fn1 
	BYTE	W12
	BYTE		N05   
	BYTE	W12
	BYTE		N19     Ds1 
	BYTE	W19
	BYTE		N11     Cn2   v096
	BYTE	W28
	BYTE	W01
// 022   ----------------------------------------
TrainRush_6_022:
	BYTE	W07
	BYTE		N11     Gn1   v080
	BYTE	W12
	BYTE		N04     Ds1 
	BYTE	W05
	BYTE		N11     Gn1 
	BYTE	W30
	BYTE	W01
	BYTE		        Fs1 
	BYTE	W12
	BYTE		N04     Dn1 
	BYTE	W05
	BYTE		N11     Fs1 
	BYTE	W12
	BYTE		        Dn1 
	BYTE	W12
	BYTE	PEND
// 023   ----------------------------------------
TrainRush_6_023:
	BYTE		N07     Fs2   v080
	BYTE	W07
	BYTE		N16   
	BYTE	W17
	BYTE		N07     Fn2 
	BYTE	W07
	BYTE		N16   
	BYTE	W17
	BYTE		N19     Ds2 
	BYTE	W19
	BYTE		N16     Cn2 
	BYTE	W28
	BYTE	W01
	BYTE	PEND
// 024   ----------------------------------------
	BYTE	PATT
	 POIN2	TrainRush_6_022
// 025   ----------------------------------------
	BYTE	PATT
	 POIN2	TrainRush_6_023
// 026   ----------------------------------------
TrainRush_6_026:
	BYTE		N11     Cn2   v080
	BYTE	W24
	BYTE		        Gn2 
	BYTE	W24
	BYTE		N08     Fs2 
	BYTE	W19
	BYTE		N11     Fn2 
	BYTE	W12
	BYTE		N16     Ds2 
	BYTE	W17
	BYTE	PEND
// 027   ----------------------------------------
TrainRush_6_027:
	BYTE	W07
	BYTE		N08     Cn2   v080
	BYTE	W17
	BYTE		N11     Gn2 
	BYTE	W24
	BYTE		N08     Fs2 
	BYTE	W19
	BYTE		N11     Fn2 
	BYTE	W12
	BYTE		N16     Ds2 
	BYTE	W17
	BYTE	PEND
// 028   ----------------------------------------
	BYTE	PATT
	 POIN2	TrainRush_6_026
// 029   ----------------------------------------
	BYTE	PATT
	 POIN2	TrainRush_6_027
// 030   ----------------------------------------
	BYTE	PATT
	 POIN2	TrainRush_6_026
// 031   ----------------------------------------
	BYTE	PATT
	 POIN2	TrainRush_6_027
// 032   ----------------------------------------
	BYTE	PATT
	 POIN2	TrainRush_6_026
// 033   ----------------------------------------
	BYTE	W07
	BYTE		N16     Cn2   v080
	BYTE	W17
	BYTE		N11     As1 
	BYTE	W12
	BYTE		        Cn2 
	BYTE	W12
	BYTE		N08   
	BYTE	W19
	BYTE		N16   
	BYTE	W28
	BYTE	W01
// 034   ----------------------------------------
	BYTE	W96
// 035   ----------------------------------------
	BYTE	W96
// 036   ----------------------------------------
	BYTE	W96
// 037   ----------------------------------------
	BYTE	W96
// 038   ----------------------------------------
	BYTE	W96
// 039   ----------------------------------------
	BYTE	W96
// 040   ----------------------------------------
	BYTE	W96
// 041   ----------------------------------------
	BYTE	W96
// 042   ----------------------------------------
TrainRush_6_042:
	BYTE		N11     Cn2   v096
	BYTE	W12
	BYTE		        Bn1 
	BYTE	W12
	BYTE		        Cn2 
	BYTE	W12
	BYTE		        Ds2 
	BYTE	W12
	BYTE		N07     Fn2   v092
	BYTE	W07
	BYTE		N11     Fs2 
	BYTE	W12
	BYTE		N16     Fn2 
	BYTE	W17
	BYTE		N11     Ds2 
	BYTE	W12
	BYTE	PEND
// 043   ----------------------------------------
TrainRush_6_043:
	BYTE		N11     Cn2   v088
	BYTE	W12
	BYTE		        Bn1 
	BYTE	W12
	BYTE		        Cn2 
	BYTE	W12
	BYTE		        Ds2 
	BYTE	W12
	BYTE		N07     Gn2   v084
	BYTE	W07
	BYTE		N11     Fs2 
	BYTE	W12
	BYTE		N16     Fn2 
	BYTE	W17
	BYTE		N11     Ds2 
	BYTE	W12
	BYTE	PEND
// 044   ----------------------------------------
TrainRush_6_044:
	BYTE		N11     Cn2   v080
	BYTE	W12
	BYTE		N02     As1 
	BYTE	W07
	BYTE		N11     Cn2 
	BYTE	W64
	BYTE	W01
	BYTE		N05     As1 
	BYTE	W12
	BYTE	PEND
// 045   ----------------------------------------
TrainRush_6_045:
	BYTE		N11     Cn2   v080
	BYTE	W12
	BYTE		N02     As1 
	BYTE	W07
	BYTE		N11     Cn2 
	BYTE	W76
	BYTE	W01
	BYTE	PEND
// 046   ----------------------------------------
	BYTE	PATT
	 POIN2	TrainRush_6_042
// 047   ----------------------------------------
	BYTE	PATT
	 POIN2	TrainRush_6_043
// 048   ----------------------------------------
	BYTE	PATT
	 POIN2	TrainRush_6_044
// 049   ----------------------------------------
	BYTE	PATT
	 POIN2	TrainRush_6_045
// 050   ----------------------------------------
	BYTE	W96
// 051   ----------------------------------------
	BYTE	W96
// 052   ----------------------------------------
	BYTE		N11     Ds2   v064
	BYTE	W12
	BYTE		N11   
	BYTE	W12
	BYTE		        Dn2 
	BYTE	W12
	BYTE		N11   
	BYTE	W12
	BYTE		N07     Cn2 
	BYTE	W07
	BYTE		N11   
	BYTE	W12
	BYTE		N16     Gn1 
	BYTE	W28
	BYTE	W01
// 053   ----------------------------------------
	BYTE		N11     Ds2   v080
	BYTE	W12
	BYTE		N11   
	BYTE	W12
	BYTE		        Dn2 
	BYTE	W12
	BYTE		N11   
	BYTE	W12
	BYTE		N07     Cn2 
	BYTE	W07
	BYTE		N11   
	BYTE	W12
	BYTE		N16     Gn1 
	BYTE	W28
	BYTE	W01
// 054   ----------------------------------------
TrainRush_6_054:
	BYTE		N11     Ds2   v096
	BYTE	W12
	BYTE		N11   
	BYTE	W12
	BYTE		        Dn2 
	BYTE	W12
	BYTE		N11   
	BYTE	W12
	BYTE		N07     Cn2 
	BYTE	W07
	BYTE		N11   
	BYTE	W12
	BYTE		N16     Gn1 
	BYTE	W17
	BYTE		N11   
	BYTE	W12
	BYTE	PEND
// 055   ----------------------------------------
	BYTE		N19     Fs2 
	BYTE	W19
	BYTE		N04     Ds2 
	BYTE	W05
	BYTE		N07     Fn2 
	BYTE	W07
	BYTE		N11     Cn2 
	BYTE	W12
	BYTE		N40     Ds2 
	BYTE	W40
	BYTE	W01
	BYTE		N07     As1 
	BYTE	W07
	BYTE		N04     Dn2 
	BYTE	W05
// 056   ----------------------------------------
	BYTE	PATT
	 POIN2	TrainRush_6_054
// 057   ----------------------------------------
	BYTE		N19     Fn2   v096
	BYTE	W19
	BYTE		N04     Fs2 
	BYTE	W05
	BYTE		N07     Ds2 
	BYTE	W07
	BYTE		N11   
	BYTE	W12
	BYTE		N40     Cn2 
	BYTE	W40
	BYTE	W01
	BYTE		N07     An1 
	BYTE	W07
	BYTE		N04     As1 
	BYTE	W05
// 058   ----------------------------------------
	BYTE		N19     Cn2   v080
	BYTE	W19
	BYTE		N11     Gn1 
	BYTE	W12
	BYTE		N04   
	BYTE	W05
	BYTE		N11     Cn2 
	BYTE	W12
	BYTE		N19   
	BYTE	W19
	BYTE		N11     Gn1 
	BYTE	W12
	BYTE		N07     Fn1 
	BYTE	W08
	BYTE		N08     Gn1 
	BYTE	W09
// 059   ----------------------------------------
	BYTE		N11     Fs1 
	BYTE	W12
	BYTE		N11   
	BYTE	W12
	BYTE		N11   
	BYTE	W12
	BYTE		        Dn1 
	BYTE	W12
	BYTE		N19     Fn1 
	BYTE	W19
	BYTE		N16     Ds1 
	BYTE	W17
	BYTE		N07     Fn1 
	BYTE	W07
	BYTE		N04     Fs1 
	BYTE	W05
// 060   ----------------------------------------
	BYTE		N19     Gn1 
	BYTE	W19
	BYTE		N16     Cn2 
	BYTE	W17
	BYTE		N07     Gn1 
	BYTE	W07
	BYTE		N04     Fs1 
	BYTE	W05
	BYTE		N19     Gn1 
	BYTE	W19
	BYTE		N16     Cn2 
	BYTE	W17
	BYTE		N07     Fs1 
	BYTE	W07
	BYTE		N04     Gn1 
	BYTE	W05
// 061   ----------------------------------------
	BYTE		N05     Fs1 
	BYTE	W12
	BYTE		N05   
	BYTE	W12
	BYTE		        Fn1 
	BYTE	W12
	BYTE		N05   
	BYTE	W12
	BYTE		N19     Ds1 
	BYTE	W19
	BYTE		N11     Cn2 
	BYTE	W12
	BYTE		N07     An2 
	BYTE	W08
	BYTE		N08     As2 
	BYTE	W09
// 062   ----------------------------------------
	BYTE		N19     Cn3 
	BYTE	W19
	BYTE		N11     Gn2 
	BYTE	W12
	BYTE		N04   
	BYTE	W05
	BYTE		N11     Cn3 
	BYTE	W12
	BYTE		N19   
	BYTE	W19
	BYTE		N11     Gn2 
	BYTE	W12
	BYTE		N07     Fn2 
	BYTE	W08
	BYTE		N08     Gn2 
	BYTE	W09
// 063   ----------------------------------------
	BYTE		N11     Fs2 
	BYTE	W12
	BYTE		N11   
	BYTE	W12
	BYTE		N11   
	BYTE	W12
	BYTE		        Dn2 
	BYTE	W12
	BYTE		N19     Fn2 
	BYTE	W19
	BYTE		N16     Ds2 
	BYTE	W17
	BYTE		N07     Fn2 
	BYTE	W07
	BYTE		N04     Fs2 
	BYTE	W05
// 064   ----------------------------------------
	BYTE		N19     Gn2 
	BYTE	W19
	BYTE		N16     Cn3 
	BYTE	W17
	BYTE		N07     Gn2 
	BYTE	W07
	BYTE		N04     Fs2 
	BYTE	W05
	BYTE		N19     Gn2 
	BYTE	W19
	BYTE		N16     Cn3 
	BYTE	W17
	BYTE		N07     Fs2 
	BYTE	W07
	BYTE		N04     Gn2 
	BYTE	W05
// 065   ----------------------------------------
	BYTE		N11     Fs2 
	BYTE	W12
	BYTE		N11   
	BYTE	W12
	BYTE		        Fn2 
	BYTE	W12
	BYTE		N11   
	BYTE	W12
	BYTE		N19     Ds2 
	BYTE	W19
	BYTE		N23     Cn3 
	BYTE	W28
	BYTE	W01
// 066   ----------------------------------------
	BYTE	PATT
	 POIN2	TrainRush_6_022
// 067   ----------------------------------------
	BYTE	PATT
	 POIN2	TrainRush_6_023
// 068   ----------------------------------------
	BYTE	PATT
	 POIN2	TrainRush_6_022
// 069   ----------------------------------------
	BYTE	PATT
	 POIN2	TrainRush_6_023
	BYTE	GoTo
	 POIN2	TrainRush_6_B1
TrainRush_6_B2:
// 070   ----------------------------------------
	BYTE	FINE

//**************** Track 7 (Midi-Chn.7) ****************//

TrainRush_7:
	BYTE	KEYSH   TrainRush_key+0
// 000   ----------------------------------------
	BYTE		VOICE   57
	BYTE		VOL     100*TrainRush_mvl/mxv
	BYTE		PAN     c_v+0
	BYTE	W96
// 001   ----------------------------------------
	BYTE	W96
TrainRush_7_B1:
// 002   ----------------------------------------
	BYTE	W96
// 003   ----------------------------------------
	BYTE	W96
// 004   ----------------------------------------
	BYTE	W96
// 005   ----------------------------------------
	BYTE	W96
// 006   ----------------------------------------
TrainRush_7_006:
	BYTE	W12
	BYTE		N08     Ds3   v080
	BYTE		N08     Ds4 
	BYTE	W19
	BYTE		        Cn3 
	BYTE		N08     Cn4 
	BYTE	W17
	BYTE		        Ds3 
	BYTE		N08     Ds4 
	BYTE	W19
	BYTE		N11     Cn3 
	BYTE		N11     Cn4 
	BYTE	W28
	BYTE	W01
	BYTE	PEND
// 007   ----------------------------------------
	BYTE	W12
	BYTE		N08     Fs3 
	BYTE		N08     Fs4 
	BYTE	W19
	BYTE		        Dn3 
	BYTE		N08     Dn4 
	BYTE	W17
	BYTE		        Fn3 
	BYTE		N08     Fn4 
	BYTE	W19
	BYTE		N11     Ds3 
	BYTE		N11     Ds4 
	BYTE	W28
	BYTE	W01
// 008   ----------------------------------------
	BYTE	PATT
	 POIN2	TrainRush_7_006
// 009   ----------------------------------------
	BYTE	W07
	BYTE		N11     Fs3   v080
	BYTE		N11     Fs4 
	BYTE	W12
	BYTE		N04     Fs3 
	BYTE		N04     Fs4 
	BYTE	W05
	BYTE		N05     Fn3 
	BYTE		N05     Fn4 
	BYTE	W12
	BYTE		        Fn3 
	BYTE		N05     Fn4 
	BYTE	W12
	BYTE		N08     Ds3 
	BYTE		N08     Ds4 
	BYTE	W19
	BYTE		N11     Cn3 
	BYTE		N11     Cn4 
	BYTE	W28
	BYTE	W01
// 010   ----------------------------------------
TrainRush_7_010:
	BYTE	W12
	BYTE		N11     Cn3   v064
	BYTE		N11     Cn4 
	BYTE	W12
	BYTE		N07     Dn3 
	BYTE		N07     Dn4 
	BYTE	W07
	BYTE		N04     Ds3 
	BYTE		N04     Ds4 
	BYTE	W05
	BYTE		N07     Fn3 
	BYTE		N07     Fn4 
	BYTE	W07
	BYTE		N04     Fs3 
	BYTE		N04     Fs4 
	BYTE	W05
	BYTE		N19     Gn3 
	BYTE		N19     Gn4 
	BYTE	W19
	BYTE		N16     Ds3 
	BYTE		N16     Ds4 
	BYTE	W17
	BYTE		N11     Gn3 
	BYTE		N11     Gn4 
	BYTE	W12
	BYTE	PEND
// 011   ----------------------------------------
	BYTE		N07     Fs3 
	BYTE		N07     Fs4 
	BYTE	W07
	BYTE		N11     Dn3 
	BYTE		N11     Dn4 
	BYTE	W12
	BYTE		        Fs3 
	BYTE		N11     Fs4 
	BYTE	W12
	BYTE		N04     Dn3 
	BYTE		N04     Dn4 
	BYTE	W05
	BYTE		N11     Fs3 
	BYTE		N11     Fs4 
	BYTE	W12
	BYTE		N07     Fn3 
	BYTE		N07     Fn4 
	BYTE	W07
	BYTE		N11     Ds3 
	BYTE		N11     Ds4 
	BYTE	W12
	BYTE		N16     Fn3 
	BYTE		N16     Fn4 
	BYTE	W17
	BYTE		N11     Ds3 
	BYTE		N11     Ds4 
	BYTE	W12
// 012   ----------------------------------------
	BYTE	PATT
	 POIN2	TrainRush_7_010
// 013   ----------------------------------------
	BYTE		N11     Fs3   v064
	BYTE		N11     Fs4 
	BYTE	W12
	BYTE		        Fs3   v068
	BYTE		N11     Fs4 
	BYTE	W12
	BYTE		N07     Fn3 
	BYTE		N07     Fn4 
	BYTE	W07
	BYTE		N11     Fn3   v072
	BYTE		N11     Fn4 
	BYTE	W12
	BYTE		N04     Fn3 
	BYTE		N04     Fn4 
	BYTE	W05
	BYTE		N11     Ds3 
	BYTE		N11     Ds4 
	BYTE	W48
// 014   ----------------------------------------
TrainRush_7_014:
	BYTE	W12
	BYTE		N11     Cn3   v080
	BYTE		N11     Cn4 
	BYTE	W12
	BYTE		N07     Dn3 
	BYTE		N07     Dn4 
	BYTE	W07
	BYTE		N04     Ds3 
	BYTE		N04     Ds4 
	BYTE	W05
	BYTE		N07     Fn3 
	BYTE		N07     Fn4 
	BYTE	W07
	BYTE		N04     Fs3 
	BYTE		N04     Fs4 
	BYTE	W05
	BYTE		N19     Gn3 
	BYTE		N19     Gn4 
	BYTE	W19
	BYTE		N16     Ds3 
	BYTE		N16     Ds4 
	BYTE	W17
	BYTE		N11     Gn3 
	BYTE		N11     Gn4 
	BYTE	W12
	BYTE	PEND
// 015   ----------------------------------------
	BYTE		N07     Fs3 
	BYTE		N07     Fs4 
	BYTE	W07
	BYTE		N11     Dn3 
	BYTE		N11     Dn4 
	BYTE	W12
	BYTE		        Fs3 
	BYTE		N11     Fs4 
	BYTE	W12
	BYTE		N04     Dn3 
	BYTE		N04     Dn4 
	BYTE	W05
	BYTE		N11     Fs3 
	BYTE		N11     Fs4 
	BYTE	W12
	BYTE		N07     Fn3 
	BYTE		N07     Fn4 
	BYTE	W07
	BYTE		N11     Ds3 
	BYTE		N11     Ds4 
	BYTE	W12
	BYTE		N16     Fn3 
	BYTE		N16     Fn4 
	BYTE	W17
	BYTE		N11     Ds3 
	BYTE		N11     Ds4 
	BYTE	W12
// 016   ----------------------------------------
	BYTE	PATT
	 POIN2	TrainRush_7_014
// 017   ----------------------------------------
	BYTE		N02     Dn3   v080
	BYTE		N02     Dn4 
	BYTE	W07
	BYTE		N11     Fs3 
	BYTE		N11     Fs4 
	BYTE	W12
	BYTE		N02     Fs3 
	BYTE		N02     Fs4 
	BYTE	W05
	BYTE		N05     Fn3 
	BYTE		N05     Fn4 
	BYTE	W12
	BYTE		        Fn3 
	BYTE		N05     Fn4 
	BYTE	W12
	BYTE		        Ds3 
	BYTE		N05     Ds4 
	BYTE	W12
	BYTE		N02     Gn2 
	BYTE		N02     Gn3 
	BYTE	W07
	BYTE		N16     Cn3 
	BYTE		N16     Cn4 
	BYTE	W28
	BYTE	W01
// 018   ----------------------------------------
	BYTE		N12     Cn3   v096
	BYTE		N12     Cn4 
	BYTE	W19
	BYTE		N11     Gn3   v080
	BYTE	W12
	BYTE		N04   
	BYTE	W05
	BYTE		N05     Cn3 
	BYTE		N05     Cn4 
	BYTE	W12
	BYTE		N12     Cn3   v096
	BYTE		N12     Cn4 
	BYTE	W19
	BYTE		N11     Gn3   v080
	BYTE	W12
	BYTE		N04     Fs3 
	BYTE	W05
	BYTE		N11     Gn3 
	BYTE	W12
// 019   ----------------------------------------
	BYTE		N05     Fs3 
	BYTE	W12
	BYTE		N05   
	BYTE	W12
	BYTE		N05   
	BYTE	W12
	BYTE		        Dn3 
	BYTE	W12
	BYTE		N19     Fn3 
	BYTE	W19
	BYTE		N16     Ds3 
	BYTE	W17
	BYTE		N07     Fn3 
	BYTE	W07
	BYTE		N04     Fs3 
	BYTE	W05
// 020   ----------------------------------------
	BYTE		N19     Gn3 
	BYTE	W19
	BYTE		N08     Cn3   v096
	BYTE		N08     Cn4 
	BYTE	W17
	BYTE		N07     Gn3   v080
	BYTE	W07
	BYTE		N04     Fs3 
	BYTE	W05
	BYTE		N19     Gn3 
	BYTE	W19
	BYTE		N08     Cn3   v096
	BYTE		N08     Cn4 
	BYTE	W17
	BYTE		N07     Fs3   v080
	BYTE	W07
	BYTE		N04     Gn3 
	BYTE	W05
// 021   ----------------------------------------
	BYTE		N11     Fs3 
	BYTE		N11     Fs4 
	BYTE	W12
	BYTE		N05     Fs3 
	BYTE		N05     Fs4 
	BYTE	W12
	BYTE		        Fn3 
	BYTE		N05     Fn4 
	BYTE	W12
	BYTE		        Fn3 
	BYTE		N05     Fn4 
	BYTE	W12
	BYTE		N19     Ds3 
	BYTE		N19     Ds4 
	BYTE	W19
	BYTE		N11     Cn3   v096
	BYTE		N11     Cn4 
	BYTE	W28
	BYTE	W01
// 022   ----------------------------------------
TrainRush_7_022:
	BYTE	W07
	BYTE		N11     Gn3   v080
	BYTE		N11     Gn4 
	BYTE	W12
	BYTE		N04     Ds3 
	BYTE		N04     Ds4 
	BYTE	W05
	BYTE		N11     Gn3 
	BYTE		N11     Gn4 
	BYTE	W30
	BYTE	W01
	BYTE		        Fs3 
	BYTE		N11     Fs4 
	BYTE	W12
	BYTE		N04     Dn3 
	BYTE		N04     Dn4 
	BYTE	W05
	BYTE		N11     Fs3 
	BYTE		N11     Fs4 
	BYTE	W12
	BYTE		        Dn3 
	BYTE		N11     Dn4 
	BYTE	W12
	BYTE	PEND
// 023   ----------------------------------------
TrainRush_7_023:
	BYTE		N07     Fs3   v080
	BYTE		N07     Fs4 
	BYTE	W07
	BYTE		N08     Fs3 
	BYTE		N08     Fs4 
	BYTE	W17
	BYTE		N07     Fn3 
	BYTE		N07     Fn4 
	BYTE	W07
	BYTE		N16     Fn3 
	BYTE		N16     Fn4 
	BYTE	W17
	BYTE		N19     Ds3 
	BYTE		N19     Ds4 
	BYTE	W19
	BYTE		N16     Cn3 
	BYTE		N16     Cn4 
	BYTE	W28
	BYTE	W01
	BYTE	PEND
// 024   ----------------------------------------
	BYTE	PATT
	 POIN2	TrainRush_7_022
// 025   ----------------------------------------
	BYTE	PATT
	 POIN2	TrainRush_7_023
// 026   ----------------------------------------
TrainRush_7_026:
	BYTE		N11     Cn3   v080
	BYTE	W24
	BYTE		        Gn3 
	BYTE	W24
	BYTE		N08     Fs3 
	BYTE	W19
	BYTE		N11     Fn3 
	BYTE	W12
	BYTE		N16     Ds3 
	BYTE	W17
	BYTE	PEND
// 027   ----------------------------------------
	BYTE	W07
	BYTE		N08     Cn3 
	BYTE	W17
	BYTE		N11     Gn3 
	BYTE	W24
	BYTE		N08     Fs3 
	BYTE	W19
	BYTE		N11     Fn3 
	BYTE	W12
	BYTE		N16     Ds3 
	BYTE	W17
// 028   ----------------------------------------
	BYTE	PATT
	 POIN2	TrainRush_7_026
// 029   ----------------------------------------
	BYTE	W07
	BYTE		N16     Cn3   v080
	BYTE	W17
	BYTE		N11     Gn3 
	BYTE	W24
	BYTE		N08     Fs3 
	BYTE	W19
	BYTE		N11     Fn3 
	BYTE	W12
	BYTE		N16     Ds3 
	BYTE	W17
// 030   ----------------------------------------
TrainRush_7_030:
	BYTE		N11     Cn3   v080
	BYTE		N11     Cn4 
	BYTE	W24
	BYTE		        Gn3 
	BYTE		N11     Gn4 
	BYTE	W24
	BYTE		N08     Fs3 
	BYTE		N08     Fs4 
	BYTE	W19
	BYTE		N11     Fn3 
	BYTE		N11     Fn4 
	BYTE	W12
	BYTE		N16     Ds3 
	BYTE		N16     Ds4 
	BYTE	W17
	BYTE	PEND
// 031   ----------------------------------------
	BYTE	W07
	BYTE		        Cn3 
	BYTE		N16     Cn4 
	BYTE	W17
	BYTE		N11     Gn3 
	BYTE		N11     Gn4 
	BYTE	W24
	BYTE		N08     Fs3 
	BYTE		N08     Fs4 
	BYTE	W19
	BYTE		N11     Fn3 
	BYTE		N11     Fn4 
	BYTE	W12
	BYTE		N16     Ds3 
	BYTE		N16     Ds4 
	BYTE	W17
// 032   ----------------------------------------
	BYTE	PATT
	 POIN2	TrainRush_7_030
// 033   ----------------------------------------
	BYTE	W07
	BYTE		N08     Cn3   v080
	BYTE		N08     Cn4 
	BYTE	W17
	BYTE		N11     As2 
	BYTE		N11     As3 
	BYTE	W12
	BYTE		        Cn3 
	BYTE		N11     Cn4 
	BYTE	W12
	BYTE		N08     Cn3 
	BYTE		N08     Cn4 
	BYTE	W19
	BYTE		N16     Cn3 
	BYTE		N16     Cn4 
	BYTE	W28
	BYTE	W01
// 034   ----------------------------------------
	BYTE	W96
// 035   ----------------------------------------
	BYTE	W96
// 036   ----------------------------------------
	BYTE	W96
// 037   ----------------------------------------
	BYTE	W96
// 038   ----------------------------------------
	BYTE	W96
// 039   ----------------------------------------
	BYTE	W96
// 040   ----------------------------------------
	BYTE	W96
// 041   ----------------------------------------
	BYTE	W96
// 042   ----------------------------------------
	BYTE	W96
// 043   ----------------------------------------
	BYTE	W96
// 044   ----------------------------------------
TrainRush_7_044:
	BYTE	W12
	BYTE		N08     Gn3   v080
	BYTE		N08     Gn4 
	BYTE	W19
	BYTE		        Fs3 
	BYTE		N08     Fs4 
	BYTE	W17
	BYTE		N12     Ds3 
	BYTE		N12     Ds4 
	BYTE	W19
	BYTE		N11     Cn3 
	BYTE		N11     Cn4 
	BYTE	W28
	BYTE	W01
	BYTE	PEND
// 045   ----------------------------------------
	BYTE	PATT
	 POIN2	TrainRush_7_044
// 046   ----------------------------------------
	BYTE	W96
// 047   ----------------------------------------
	BYTE	W96
// 048   ----------------------------------------
	BYTE	PATT
	 POIN2	TrainRush_7_044
// 049   ----------------------------------------
	BYTE	PATT
	 POIN2	TrainRush_7_044
// 050   ----------------------------------------
	BYTE	W96
// 051   ----------------------------------------
	BYTE	W96
// 052   ----------------------------------------
	BYTE		N11     Ds3   v064
	BYTE		N11     Ds4 
	BYTE	W12
	BYTE		        Ds3 
	BYTE		N11     Ds4 
	BYTE	W12
	BYTE		        Dn3 
	BYTE		N11     Dn4 
	BYTE	W12
	BYTE		        Dn3 
	BYTE		N11     Dn4 
	BYTE	W12
	BYTE		N07     Cn3 
	BYTE		N07     Cn4 
	BYTE	W07
	BYTE		N11     Cn3 
	BYTE		N11     Cn4 
	BYTE	W12
	BYTE		        Gn2 
	BYTE		N11     Gn3 
	BYTE	W28
	BYTE	W01
// 053   ----------------------------------------
	BYTE		        Ds3   v080
	BYTE		N11     Ds4 
	BYTE	W12
	BYTE		        Ds3 
	BYTE		N11     Ds4 
	BYTE	W12
	BYTE		        Dn3 
	BYTE		N11     Dn4 
	BYTE	W12
	BYTE		        Dn3 
	BYTE		N11     Dn4 
	BYTE	W12
	BYTE		N07     Cn3 
	BYTE		N07     Cn4 
	BYTE	W07
	BYTE		N11     Cn3 
	BYTE		N11     Cn4 
	BYTE	W12
	BYTE		        Gn2 
	BYTE		N11     Gn3 
	BYTE	W28
	BYTE	W01
// 054   ----------------------------------------
TrainRush_7_054:
	BYTE		N11     Ds3   v096
	BYTE		N11     Ds4 
	BYTE	W12
	BYTE		        Ds3 
	BYTE		N11     Ds4 
	BYTE	W12
	BYTE		        Dn3 
	BYTE		N11     Dn4 
	BYTE	W12
	BYTE		        Dn3 
	BYTE		N11     Dn4 
	BYTE	W12
	BYTE		N07     Cn3 
	BYTE		N07     Cn4 
	BYTE	W07
	BYTE		N11     Cn3 
	BYTE		N11     Cn4 
	BYTE	W12
	BYTE		N16     Gn2 
	BYTE		N16     Gn3 
	BYTE	W17
	BYTE		N11     Gn2 
	BYTE		N11     Gn3 
	BYTE	W12
	BYTE	PEND
// 055   ----------------------------------------
	BYTE		N19     Fs3 
	BYTE		N19     Fs4 
	BYTE	W19
	BYTE		N04     Ds3 
	BYTE		N04     Ds4 
	BYTE	W05
	BYTE		N07     Fn3 
	BYTE		N07     Fn4 
	BYTE	W07
	BYTE		N11     Cn3 
	BYTE		N11     Cn4 
	BYTE	W12
	BYTE		N40     Ds3 
	BYTE		N40     Ds4 
	BYTE	W40
	BYTE	W01
	BYTE		N07     Cn3 
	BYTE		N07     Cn4 
	BYTE	W07
	BYTE		N04     Dn3 
	BYTE		N04     Dn4 
	BYTE	W05
// 056   ----------------------------------------
	BYTE	PATT
	 POIN2	TrainRush_7_054
// 057   ----------------------------------------
	BYTE		N19     Fn3   v096
	BYTE		N19     Fn4 
	BYTE	W19
	BYTE		N04     Fs3 
	BYTE		N04     Fs4 
	BYTE	W05
	BYTE		N07     Fn3 
	BYTE		N07     Fn4 
	BYTE	W07
	BYTE		N11     Ds3 
	BYTE		N11     Ds4 
	BYTE	W12
	BYTE		N40     Cn3 
	BYTE		N40     Cn4 
	BYTE	W40
	BYTE	W01
	BYTE		N07     An2   v080
	BYTE		N07     An3 
	BYTE	W07
	BYTE		N04     As2 
	BYTE		N04     As3 
	BYTE	W05
// 058   ----------------------------------------
TrainRush_7_058:
	BYTE		N19     Cn3   v080
	BYTE		N19     Cn4 
	BYTE	W19
	BYTE		N11     Gn3 
	BYTE	W12
	BYTE		N04   
	BYTE	W05
	BYTE		N11     Cn3 
	BYTE		N11     Cn4 
	BYTE	W12
	BYTE		N19     Cn3 
	BYTE		N19     Cn4 
	BYTE	W19
	BYTE		N11     Gn3 
	BYTE	W12
	BYTE		N04     Fs3 
	BYTE	W05
	BYTE		N11     Gn3 
	BYTE	W12
	BYTE	PEND
// 059   ----------------------------------------
TrainRush_7_059:
	BYTE		N11     Fs3   v080
	BYTE	W12
	BYTE		N11   
	BYTE	W12
	BYTE		N11   
	BYTE	W12
	BYTE		        Dn3 
	BYTE	W12
	BYTE		N19     Fn3 
	BYTE	W19
	BYTE		N16     Ds3 
	BYTE	W17
	BYTE		N07     Fn3 
	BYTE	W07
	BYTE		N04     Fs3 
	BYTE	W05
	BYTE	PEND
// 060   ----------------------------------------
TrainRush_7_060:
	BYTE		N19     Gn3   v080
	BYTE	W19
	BYTE		N16     Cn3 
	BYTE		N16     Cn4 
	BYTE	W17
	BYTE		N07     Gn3 
	BYTE	W07
	BYTE		N04     Fs3 
	BYTE	W05
	BYTE		N19     Gn3 
	BYTE	W19
	BYTE		N16     Cn3 
	BYTE		N16     Cn4 
	BYTE	W17
	BYTE		N07     Fs3 
	BYTE	W07
	BYTE		N04     Gn3 
	BYTE	W05
	BYTE	PEND
// 061   ----------------------------------------
	BYTE		N11     Fs3 
	BYTE		N11     Fs4 
	BYTE	W12
	BYTE		        Fs3 
	BYTE		N11     Fs4 
	BYTE	W12
	BYTE		        Fn3 
	BYTE		N11     Fn4 
	BYTE	W12
	BYTE		        Fn3 
	BYTE		N11     Fn4 
	BYTE	W12
	BYTE		N19     Ds3 
	BYTE		N19     Ds4 
	BYTE	W19
	BYTE		N11     Cn3 
	BYTE		N11     Cn4 
	BYTE	W12
	BYTE		N07     An2 
	BYTE		N07     An3 
	BYTE	W08
	BYTE		N08     As2 
	BYTE		N08     As3 
	BYTE	W09
// 062   ----------------------------------------
	BYTE	PATT
	 POIN2	TrainRush_7_058
// 063   ----------------------------------------
	BYTE	PATT
	 POIN2	TrainRush_7_059
// 064   ----------------------------------------
	BYTE	PATT
	 POIN2	TrainRush_7_060
// 065   ----------------------------------------
	BYTE		N11     Fs3   v080
	BYTE		N11     Fs4 
	BYTE	W12
	BYTE		        Fs3 
	BYTE		N11     Fs4 
	BYTE	W12
	BYTE		        Fn3 
	BYTE		N11     Fn4 
	BYTE	W12
	BYTE		        Fn3 
	BYTE		N11     Fn4 
	BYTE	W12
	BYTE		N19     Ds3 
	BYTE		N19     Ds4 
	BYTE	W19
	BYTE		N23     Cn3 
	BYTE		N23     Cn4 
	BYTE	W28
	BYTE	W01
// 066   ----------------------------------------
	BYTE	PATT
	 POIN2	TrainRush_7_022
// 067   ----------------------------------------
	BYTE	PATT
	 POIN2	TrainRush_7_023
// 068   ----------------------------------------
	BYTE	PATT
	 POIN2	TrainRush_7_022
// 069   ----------------------------------------
	BYTE	PATT
	 POIN2	TrainRush_7_023
	BYTE	GoTo
	 POIN2	TrainRush_7_B1
TrainRush_7_B2:
// 070   ----------------------------------------
	BYTE	FINE

//**************** Track 8 (Midi-Chn.9) ****************//

TrainRush_8:
	BYTE	KEYSH   TrainRush_key+0
// 000   ----------------------------------------
	BYTE		VOICE   59
	BYTE		VOL     100*TrainRush_mvl/mxv
	BYTE		PAN     c_v+0
	BYTE	W96
// 001   ----------------------------------------
	BYTE	W96
TrainRush_8_B1:
// 002   ----------------------------------------
	BYTE	W96
// 003   ----------------------------------------
	BYTE	W96
// 004   ----------------------------------------
	BYTE	W96
// 005   ----------------------------------------
	BYTE	W96
// 006   ----------------------------------------
TrainRush_8_006:
	BYTE	W12
	BYTE		N08     Ds3   v080
	BYTE	W19
	BYTE		        Cn3 
	BYTE	W17
	BYTE		        Ds3 
	BYTE	W19
	BYTE		N11     Cn3 
	BYTE	W28
	BYTE	W01
	BYTE	PEND
// 007   ----------------------------------------
	BYTE	W12
	BYTE		N08     Fs3 
	BYTE	W19
	BYTE		        Dn3 
	BYTE	W17
	BYTE		        Fn3 
	BYTE	W19
	BYTE		N11     Ds3 
	BYTE	W28
	BYTE	W01
// 008   ----------------------------------------
	BYTE	PATT
	 POIN2	TrainRush_8_006
// 009   ----------------------------------------
	BYTE	W07
	BYTE		N11     Fn3   v080
	BYTE	W12
	BYTE		N04     Fs3 
	BYTE	W05
	BYTE		N05     Fn3 
	BYTE	W12
	BYTE		N05   
	BYTE	W12
	BYTE		N08     Ds3 
	BYTE	W19
	BYTE		N11     Cn3 
	BYTE	W28
	BYTE	W01
// 010   ----------------------------------------
	BYTE	W96
// 011   ----------------------------------------
	BYTE	W96
// 012   ----------------------------------------
	BYTE	W96
// 013   ----------------------------------------
	BYTE	W96
// 014   ----------------------------------------
	BYTE	W96
// 015   ----------------------------------------
	BYTE	W96
// 016   ----------------------------------------
	BYTE	W96
// 017   ----------------------------------------
	BYTE		N02     An2   v112
	BYTE	W07
	BYTE		N05     Fs2 
	BYTE		N05     An2 
	BYTE	W12
	BYTE		N02     Fs2 
	BYTE		N02     An2 
	BYTE	W05
	BYTE		N05     Fn2 
	BYTE		N05     Gs2 
	BYTE	W12
	BYTE		        Fn2 
	BYTE		N05     Gs2 
	BYTE	W12
	BYTE		        Ds2 
	BYTE		N05     Gn2 
	BYTE	W12
	BYTE		N02     Cn2 
	BYTE		N02     Gn2 
	BYTE	W07
	BYTE		N16     Cn2 
	BYTE		N16     Gn2 
	BYTE	W28
	BYTE	W01
// 018   ----------------------------------------
	BYTE		N08     Cn3   v096
	BYTE	W19
	BYTE		N16     Cn3   v080
	BYTE	W17
	BYTE		N11   
	BYTE	W12
	BYTE		N12     Cn3   v096
	BYTE	W19
	BYTE		N11     Cn3   v080
	BYTE	W12
	BYTE		N04     Gn2 
	BYTE	W05
	BYTE		N11   
	BYTE	W12
// 019   ----------------------------------------
	BYTE		N05     An2 
	BYTE	W12
	BYTE		N05   
	BYTE	W12
	BYTE		N05   
	BYTE		N05     Cn3 
	BYTE	W12
	BYTE		        An2 
	BYTE	W12
	BYTE		N19     Gn2 
	BYTE		N19     Bn2 
	BYTE	W19
	BYTE		N16     Gn2 
	BYTE		N16     Bn2 
	BYTE	W28
	BYTE	W01
// 020   ----------------------------------------
	BYTE		N19     Ds2 
	BYTE	W19
	BYTE		N08     Cn2   v096
	BYTE		N08     Gn2 
	BYTE	W17
	BYTE		N07     Ds2   v080
	BYTE	W07
	BYTE		N04   
	BYTE	W05
	BYTE		N19   
	BYTE	W19
	BYTE		N08     Cn2   v096
	BYTE		N08     Gn2 
	BYTE	W17
	BYTE		N07     Cn2   v080
	BYTE	W07
	BYTE		N04   
	BYTE	W05
// 021   ----------------------------------------
	BYTE		N05     An2 
	BYTE	W12
	BYTE		N05   
	BYTE	W12
	BYTE		        Gs2 
	BYTE	W12
	BYTE		N05   
	BYTE	W12
	BYTE		N19     Cn3 
	BYTE	W19
	BYTE		N11     Cn3   v096
	BYTE		N11     Ds3 
	BYTE		N11     Gn3 
	BYTE	W28
	BYTE	W01
// 022   ----------------------------------------
	BYTE	W96
// 023   ----------------------------------------
	BYTE	W96
// 024   ----------------------------------------
	BYTE	W07
	BYTE		        Cn3   v080
	BYTE	W12
	BYTE		N04   
	BYTE	W05
	BYTE		N11   
	BYTE	W24
	BYTE		        Dn3 
	BYTE	W12
	BYTE		N11   
	BYTE	W12
	BYTE		N11   
	BYTE	W12
	BYTE		N11   
	BYTE	W12
// 025   ----------------------------------------
	BYTE		N07   
	BYTE	W07
	BYTE		N16   
	BYTE	W17
	BYTE		N07     Cs3 
	BYTE	W07
	BYTE		N16   
	BYTE	W17
	BYTE		N19     Cn3 
	BYTE	W19
	BYTE		N16   
	BYTE		N16     Ds3 
	BYTE	W28
	BYTE	W01
// 026   ----------------------------------------
	BYTE	W96
// 027   ----------------------------------------
	BYTE	W96
// 028   ----------------------------------------
	BYTE	W96
// 029   ----------------------------------------
	BYTE	W96
// 030   ----------------------------------------
TrainRush_8_030:
	BYTE		N11     Cn3   v080
	BYTE	W24
	BYTE		        Gn3 
	BYTE	W24
	BYTE		N08     Fs3 
	BYTE	W19
	BYTE		N11     Fn3 
	BYTE	W12
	BYTE		N16     Ds3 
	BYTE	W17
	BYTE	PEND
// 031   ----------------------------------------
	BYTE	W07
	BYTE		N08     Cn3 
	BYTE	W17
	BYTE		N11     Gn3 
	BYTE	W24
	BYTE		N08     Fs3 
	BYTE	W19
	BYTE		N11     Fn3 
	BYTE	W12
	BYTE		N16     Ds3 
	BYTE	W17
// 032   ----------------------------------------
	BYTE	PATT
	 POIN2	TrainRush_8_030
// 033   ----------------------------------------
	BYTE	W07
	BYTE		N16     Cn3   v080
	BYTE	W17
	BYTE		N11     As2 
	BYTE	W12
	BYTE		        Cn3 
	BYTE	W12
	BYTE		N08   
	BYTE	W19
	BYTE		N16   
	BYTE	W28
	BYTE	W01
// 034   ----------------------------------------
	BYTE	W96
// 035   ----------------------------------------
	BYTE	W96
// 036   ----------------------------------------
	BYTE	W96
// 037   ----------------------------------------
	BYTE	W96
// 038   ----------------------------------------
	BYTE	W96
// 039   ----------------------------------------
	BYTE	W96
// 040   ----------------------------------------
	BYTE	W96
// 041   ----------------------------------------
	BYTE	W96
// 042   ----------------------------------------
	BYTE	W96
// 043   ----------------------------------------
	BYTE	W96
// 044   ----------------------------------------
TrainRush_8_044:
	BYTE	W12
	BYTE		N08     Gn2   v096
	BYTE		N08     Gn3 
	BYTE	W19
	BYTE		        Fs2 
	BYTE		N08     Fs3 
	BYTE	W17
	BYTE		N12     Ds2 
	BYTE		N12     Ds3 
	BYTE	W19
	BYTE		N11     Cn2 
	BYTE		N11     Cn3 
	BYTE	W28
	BYTE	W01
	BYTE	PEND
// 045   ----------------------------------------
	BYTE	PATT
	 POIN2	TrainRush_8_044
// 046   ----------------------------------------
	BYTE	W96
// 047   ----------------------------------------
	BYTE	W96
// 048   ----------------------------------------
	BYTE	PATT
	 POIN2	TrainRush_8_044
// 049   ----------------------------------------
	BYTE	PATT
	 POIN2	TrainRush_8_044
// 050   ----------------------------------------
TrainRush_8_050:
	BYTE		N11     Cn2   v112
	BYTE		N11     Cn3 
	BYTE	W12
	BYTE		N08     Gn2 
	BYTE		N08     Gn3 
	BYTE	W19
	BYTE		        Fs2 
	BYTE		N08     Fs3 
	BYTE	W17
	BYTE		N12     Ds2 
	BYTE		N12     Ds3 
	BYTE	W19
	BYTE		N11     Cn2 
	BYTE		N11     Cn3 
	BYTE	W28
	BYTE	W01
	BYTE	PEND
// 051   ----------------------------------------
	BYTE	PATT
	 POIN2	TrainRush_8_050
// 052   ----------------------------------------
	BYTE		N11     Cn2   v096
	BYTE		N11     Cn3 
	BYTE	W12
	BYTE		N08     Gn2 
	BYTE		N08     Gn3 
	BYTE	W19
	BYTE		        Fs2 
	BYTE		N08     Fs3 
	BYTE	W17
	BYTE		N12     Ds2 
	BYTE		N12     Ds3 
	BYTE	W19
	BYTE		N11     Cn2 
	BYTE		N11     Cn3 
	BYTE	W28
	BYTE	W01
// 053   ----------------------------------------
	BYTE		        Cn2   v080
	BYTE		N11     Cn3 
	BYTE	W12
	BYTE		N08     Gn2 
	BYTE		N08     Gn3 
	BYTE	W19
	BYTE		        Fs2 
	BYTE		N08     Fs3 
	BYTE	W17
	BYTE		N12     Ds2 
	BYTE		N12     Ds3 
	BYTE	W19
	BYTE		N11     Cn2 
	BYTE		N11     Cn3 
	BYTE	W28
	BYTE	W01
// 054   ----------------------------------------
	BYTE		        Cn2   v064
	BYTE		N11     Cn3 
	BYTE	W12
	BYTE		N08     Gn2 
	BYTE		N08     Gn3 
	BYTE	W19
	BYTE		        Fs2 
	BYTE		N08     Fs3 
	BYTE	W17
	BYTE		N12     Ds2 
	BYTE		N12     Ds3 
	BYTE	W19
	BYTE		N11     Cn2 
	BYTE		N11     Cn3 
	BYTE	W28
	BYTE	W01
// 055   ----------------------------------------
	BYTE		        Cn2   v052
	BYTE		N11     Cn3 
	BYTE	W12
	BYTE		N08     Gn2 
	BYTE		N08     Gn3 
	BYTE	W19
	BYTE		        Fs2 
	BYTE		N08     Fs3 
	BYTE	W17
	BYTE		N12     Ds2 
	BYTE		N12     Ds3 
	BYTE	W19
	BYTE		N11     Cn2 
	BYTE		N11     Cn3 
	BYTE	W28
	BYTE	W01
// 056   ----------------------------------------
	BYTE		        Ds3   v096
	BYTE	W12
	BYTE		N11   
	BYTE	W12
	BYTE		        Dn3 
	BYTE	W12
	BYTE		N11   
	BYTE	W12
	BYTE		N07     Cn3 
	BYTE	W07
	BYTE		N11   
	BYTE	W12
	BYTE		N16     Gn2 
	BYTE	W17
	BYTE		N11   
	BYTE	W12
// 057   ----------------------------------------
	BYTE		N19     Fn3 
	BYTE	W19
	BYTE		N04     Gn3 
	BYTE	W05
	BYTE		N07     Fn3 
	BYTE	W07
	BYTE		N11     Ds3 
	BYTE	W12
	BYTE		N52     Cn3 
	BYTE	W52
	BYTE	W01
// 058   ----------------------------------------
	BYTE	W96
// 059   ----------------------------------------
	BYTE	W96
// 060   ----------------------------------------
	BYTE	W96
// 061   ----------------------------------------
	BYTE	W96
// 062   ----------------------------------------
	BYTE	W96
// 063   ----------------------------------------
	BYTE	W96
// 064   ----------------------------------------
	BYTE	W96
// 065   ----------------------------------------
	BYTE	W96
// 066   ----------------------------------------
TrainRush_8_066:
	BYTE	W07
	BYTE		N11     Cn3   v096
	BYTE	W12
	BYTE		N04   
	BYTE	W05
	BYTE		N11   
	BYTE	W30
	BYTE	W01
	BYTE		        Dn3 
	BYTE	W12
	BYTE		N04   
	BYTE	W05
	BYTE		N11   
	BYTE	W12
	BYTE		N11   
	BYTE	W12
	BYTE	PEND
// 067   ----------------------------------------
TrainRush_8_067:
	BYTE		N07     Dn3   v096
	BYTE	W07
	BYTE		N16   
	BYTE	W17
	BYTE		N07     Cs3 
	BYTE	W07
	BYTE		N16   
	BYTE	W17
	BYTE		N19     Cn3 
	BYTE	W19
	BYTE		N16   
	BYTE		N16     Ds3 
	BYTE	W28
	BYTE	W01
	BYTE	PEND
// 068   ----------------------------------------
	BYTE	PATT
	 POIN2	TrainRush_8_066
// 069   ----------------------------------------
	BYTE	PATT
	 POIN2	TrainRush_8_067
	BYTE	GoTo
	 POIN2	TrainRush_8_B1
TrainRush_8_B2:
// 070   ----------------------------------------
	BYTE	FINE

//**************** Track 9 (Midi-Chn.11) ****************//

TrainRush_9:
	BYTE	KEYSH   TrainRush_key+0
// 000   ----------------------------------------
	BYTE		VOICE   62
	BYTE		VOL     98*TrainRush_mvl/mxv
	BYTE		PAN     c_v+0
	BYTE		N11     Cn2   v064
	BYTE	W24
	BYTE		        Gn1 
	BYTE	W24
	BYTE		        Cn2 
	BYTE	W24
	BYTE		        Gn1 
	BYTE	W24
// 001   ----------------------------------------
	BYTE		        Cn2 
	BYTE	W24
	BYTE		        Gn1 
	BYTE	W24
	BYTE		N05     Cn2 
	BYTE	W12
	BYTE		        Gn1 
	BYTE	W12
	BYTE		        An1 
	BYTE	W12
	BYTE		        Bn1 
	BYTE	W12
TrainRush_9_B1:
// 002   ----------------------------------------
TrainRush_9_002:
	BYTE		N11     Cn2   v064
	BYTE	W24
	BYTE		        Gn1 
	BYTE	W24
	BYTE		        Cn2 
	BYTE	W24
	BYTE		        Gn1 
	BYTE	W24
	BYTE	PEND
// 003   ----------------------------------------
	BYTE		        Dn2 
	BYTE	W24
	BYTE		N11   
	BYTE	W24
	BYTE		        Gn1 
	BYTE	W24
	BYTE		N11   
	BYTE	W24
// 004   ----------------------------------------
	BYTE	PATT
	 POIN2	TrainRush_9_002
// 005   ----------------------------------------
TrainRush_9_005:
	BYTE		N11     Dn2   v064
	BYTE	W24
	BYTE		        Cs2 
	BYTE	W24
	BYTE		        Cn2 
	BYTE	W24
	BYTE		N05     Gn1 
	BYTE	W12
	BYTE		        Bn1 
	BYTE	W12
	BYTE	PEND
// 006   ----------------------------------------
	BYTE	PATT
	 POIN2	TrainRush_9_002
// 007   ----------------------------------------
	BYTE		N11     Dn2   v064
	BYTE	W24
	BYTE		        An1 
	BYTE	W24
	BYTE		        Gn1 
	BYTE	W24
	BYTE		        Dn1 
	BYTE	W24
// 008   ----------------------------------------
	BYTE	PATT
	 POIN2	TrainRush_9_002
// 009   ----------------------------------------
	BYTE	PATT
	 POIN2	TrainRush_9_005
// 010   ----------------------------------------
TrainRush_9_010:
	BYTE		N11     Cn2   v080
	BYTE	W24
	BYTE		N11   
	BYTE	W24
	BYTE		        Ds2 
	BYTE	W24
	BYTE		N11   
	BYTE	W24
	BYTE	PEND
// 011   ----------------------------------------
TrainRush_9_011:
	BYTE		N11     Dn2   v080
	BYTE	W24
	BYTE		N11   
	BYTE	W24
	BYTE		        Gn1 
	BYTE	W24
	BYTE		N11   
	BYTE	W24
	BYTE	PEND
// 012   ----------------------------------------
TrainRush_9_012:
	BYTE		N11     Cn2   v080
	BYTE	W24
	BYTE		        Gn1 
	BYTE	W24
	BYTE		        Cn2 
	BYTE	W24
	BYTE		        Gn1 
	BYTE	W24
	BYTE	PEND
// 013   ----------------------------------------
	BYTE		        Dn2 
	BYTE	W24
	BYTE		        Cs2 
	BYTE	W24
	BYTE		N05     Cn2 
	BYTE	W12
	BYTE		N02     Gn2   v112
	BYTE	W07
	BYTE		N05   
	BYTE	W12
	BYTE		N08   
	BYTE	W17
// 014   ----------------------------------------
	BYTE	PATT
	 POIN2	TrainRush_9_010
// 015   ----------------------------------------
	BYTE	PATT
	 POIN2	TrainRush_9_011
// 016   ----------------------------------------
	BYTE	PATT
	 POIN2	TrainRush_9_012
// 017   ----------------------------------------
TrainRush_9_017:
	BYTE		N11     Dn2   v080
	BYTE	W24
	BYTE		        Cs2 
	BYTE	W24
	BYTE		        Cn2 
	BYTE	W24
	BYTE		        Gn1 
	BYTE	W24
	BYTE	PEND
// 018   ----------------------------------------
	BYTE	PATT
	 POIN2	TrainRush_9_012
// 019   ----------------------------------------
	BYTE		N11     Dn2   v080
	BYTE	W24
	BYTE		N11   
	BYTE	W24
	BYTE		        Gn1 
	BYTE	W24
	BYTE		        Dn1 
	BYTE	W24
// 020   ----------------------------------------
	BYTE	PATT
	 POIN2	TrainRush_9_012
// 021   ----------------------------------------
	BYTE		N11     Dn2   v080
	BYTE	W24
	BYTE		        Cs2 
	BYTE	W24
	BYTE		        Cn2 
	BYTE	W24
	BYTE		N05     Gn1 
	BYTE	W12
	BYTE		        Bn1 
	BYTE	W12
// 022   ----------------------------------------
TrainRush_9_022:
	BYTE		N11     Cn2   v080
	BYTE	W24
	BYTE		        Gn1 
	BYTE	W24
	BYTE		        Cn2 
	BYTE	W24
	BYTE		        Fs1 
	BYTE	W24
	BYTE	PEND
// 023   ----------------------------------------
	BYTE	PATT
	 POIN2	TrainRush_9_017
// 024   ----------------------------------------
	BYTE	PATT
	 POIN2	TrainRush_9_022
// 025   ----------------------------------------
	BYTE	PATT
	 POIN2	TrainRush_9_017
// 026   ----------------------------------------
TrainRush_9_026:
	BYTE		N11     Cn1   v080
	BYTE	W24
	BYTE		        Gn1 
	BYTE	W24
	BYTE		N08     Fs1 
	BYTE	W19
	BYTE		N11     Fn1 
	BYTE	W12
	BYTE		N16     Ds1 
	BYTE	W17
	BYTE	PEND
// 027   ----------------------------------------
TrainRush_9_027:
	BYTE	W07
	BYTE		N08     Cn1   v080
	BYTE	W17
	BYTE		N11     Gn1 
	BYTE	W24
	BYTE		N08     Fs1 
	BYTE	W19
	BYTE		N11     Fn1 
	BYTE	W12
	BYTE		N16     Ds1 
	BYTE	W17
	BYTE	PEND
// 028   ----------------------------------------
	BYTE	PATT
	 POIN2	TrainRush_9_026
// 029   ----------------------------------------
	BYTE	PATT
	 POIN2	TrainRush_9_027
// 030   ----------------------------------------
	BYTE	PATT
	 POIN2	TrainRush_9_026
// 031   ----------------------------------------
	BYTE	PATT
	 POIN2	TrainRush_9_027
// 032   ----------------------------------------
	BYTE	PATT
	 POIN2	TrainRush_9_026
// 033   ----------------------------------------
	BYTE	W07
	BYTE		N16     Cn2   v080
	BYTE	W17
	BYTE		N11     As1 
	BYTE	W12
	BYTE		        Cn2 
	BYTE	W12
	BYTE		N08   
	BYTE	W19
	BYTE		N16   
	BYTE	W28
	BYTE	W01
// 034   ----------------------------------------
	BYTE	PATT
	 POIN2	TrainRush_9_010
// 035   ----------------------------------------
	BYTE	PATT
	 POIN2	TrainRush_9_011
// 036   ----------------------------------------
	BYTE	PATT
	 POIN2	TrainRush_9_010
// 037   ----------------------------------------
	BYTE	PATT
	 POIN2	TrainRush_9_017
// 038   ----------------------------------------
	BYTE	PATT
	 POIN2	TrainRush_9_010
// 039   ----------------------------------------
	BYTE	PATT
	 POIN2	TrainRush_9_011
// 040   ----------------------------------------
	BYTE	PATT
	 POIN2	TrainRush_9_010
// 041   ----------------------------------------
	BYTE	PATT
	 POIN2	TrainRush_9_017
// 042   ----------------------------------------
	BYTE	W96
// 043   ----------------------------------------
	BYTE	W96
// 044   ----------------------------------------
TrainRush_9_044:
	BYTE	W12
	BYTE		N08     Gn2   v080
	BYTE	W19
	BYTE		        Fs2 
	BYTE	W17
	BYTE		N12     Ds2 
	BYTE	W19
	BYTE		N11     Cn2 
	BYTE	W28
	BYTE	W01
	BYTE	PEND
// 045   ----------------------------------------
	BYTE	PATT
	 POIN2	TrainRush_9_044
// 046   ----------------------------------------
	BYTE	PATT
	 POIN2	TrainRush_9_010
// 047   ----------------------------------------
	BYTE	PATT
	 POIN2	TrainRush_9_011
// 048   ----------------------------------------
	BYTE	PATT
	 POIN2	TrainRush_9_044
// 049   ----------------------------------------
	BYTE	PATT
	 POIN2	TrainRush_9_044
// 050   ----------------------------------------
TrainRush_9_050:
	BYTE		N11     Cn2   v096
	BYTE	W12
	BYTE		N08     Gn2 
	BYTE	W19
	BYTE		        Fs2 
	BYTE	W17
	BYTE		N12     Ds2 
	BYTE	W19
	BYTE		N11     Cn2 
	BYTE	W28
	BYTE	W01
	BYTE	PEND
// 051   ----------------------------------------
	BYTE	PATT
	 POIN2	TrainRush_9_050
// 052   ----------------------------------------
	BYTE		N11     Cn2   v080
	BYTE	W12
	BYTE		N08     Gn2 
	BYTE	W19
	BYTE		        Fs2 
	BYTE	W17
	BYTE		N12     Ds2 
	BYTE	W19
	BYTE		N11     Cn2 
	BYTE	W28
	BYTE	W01
// 053   ----------------------------------------
	BYTE		        Cn2   v064
	BYTE	W12
	BYTE		N08     Gn2 
	BYTE	W19
	BYTE		        Fs2 
	BYTE	W17
	BYTE		N12     Ds2 
	BYTE	W19
	BYTE		N11     Cn2 
	BYTE	W28
	BYTE	W01
// 054   ----------------------------------------
	BYTE		        Cn2   v052
	BYTE	W12
	BYTE		N08     Gn2 
	BYTE	W19
	BYTE		        Fs2 
	BYTE	W17
	BYTE		N12     Ds2 
	BYTE	W19
	BYTE		N11     Cn2 
	BYTE	W28
	BYTE	W01
// 055   ----------------------------------------
	BYTE		        Cn2   v036
	BYTE	W12
	BYTE		N08     Gn2 
	BYTE	W19
	BYTE		        Fs2 
	BYTE	W17
	BYTE		N12     Ds2 
	BYTE	W19
	BYTE		N11     Cn2 
	BYTE	W28
	BYTE	W01
// 056   ----------------------------------------
	BYTE	W96
// 057   ----------------------------------------
	BYTE	W96
// 058   ----------------------------------------
TrainRush_9_058:
	BYTE		N11     Cn2   v080
	BYTE		N11     Cn3 
	BYTE	W24
	BYTE		        Cn2 
	BYTE		N11     Cn3 
	BYTE	W24
	BYTE		        Ds2 
	BYTE		N11     Ds3 
	BYTE	W24
	BYTE		        Ds2 
	BYTE		N11     Ds3 
	BYTE	W24
	BYTE	PEND
// 059   ----------------------------------------
TrainRush_9_059:
	BYTE		N11     Dn2   v080
	BYTE		N11     Dn3 
	BYTE	W24
	BYTE		        Dn2 
	BYTE		N11     Dn3 
	BYTE	W24
	BYTE		        Gn1 
	BYTE		N11     Gn2 
	BYTE	W24
	BYTE		        Gn1 
	BYTE		N11     Gn2 
	BYTE	W24
	BYTE	PEND
// 060   ----------------------------------------
	BYTE	PATT
	 POIN2	TrainRush_9_058
// 061   ----------------------------------------
TrainRush_9_061:
	BYTE		N11     Dn2   v080
	BYTE		N11     Dn3 
	BYTE	W24
	BYTE		        Cs2 
	BYTE		N11     Cs3 
	BYTE	W24
	BYTE		        Cn2 
	BYTE		N11     Cn3 
	BYTE	W24
	BYTE		        Gn1 
	BYTE		N11     Gn2 
	BYTE	W24
	BYTE	PEND
// 062   ----------------------------------------
	BYTE	PATT
	 POIN2	TrainRush_9_058
// 063   ----------------------------------------
	BYTE	PATT
	 POIN2	TrainRush_9_059
// 064   ----------------------------------------
	BYTE	PATT
	 POIN2	TrainRush_9_058
// 065   ----------------------------------------
	BYTE	PATT
	 POIN2	TrainRush_9_061
// 066   ----------------------------------------
	BYTE	PATT
	 POIN2	TrainRush_9_058
// 067   ----------------------------------------
	BYTE	PATT
	 POIN2	TrainRush_9_059
// 068   ----------------------------------------
	BYTE	PATT
	 POIN2	TrainRush_9_058
// 069   ----------------------------------------
	BYTE	PATT
	 POIN2	TrainRush_9_061
	BYTE	GoTo
	 POIN2	TrainRush_9_B1
TrainRush_9_B2:
// 070   ----------------------------------------
	BYTE	FINE

//**************** Track 10 (Midi-Chn.12) ****************//

TrainRush_10:
	BYTE	KEYSH   TrainRush_key+0
// 000   ----------------------------------------
	BYTE		VOICE   61
	BYTE		VOL     94*TrainRush_mvl/mxv
	BYTE		PAN     c_v+0
	BYTE		N11     Cn2   v064
	BYTE	W24
	BYTE		        Gn1 
	BYTE	W24
	BYTE		        Cn2 
	BYTE	W24
	BYTE		        Gn1 
	BYTE	W24
// 001   ----------------------------------------
	BYTE		        Cn2 
	BYTE	W24
	BYTE		        Gn1 
	BYTE	W24
	BYTE		        Cn2 
	BYTE	W12
	BYTE		        Gn1 
	BYTE	W12
	BYTE		        An1 
	BYTE	W12
	BYTE		        Bn1 
	BYTE	W12
TrainRush_10_B1:
// 002   ----------------------------------------
TrainRush_10_002:
	BYTE		N11     Cn2   v064
	BYTE	W24
	BYTE		        Gn1 
	BYTE	W24
	BYTE		        Cn2 
	BYTE	W24
	BYTE		        Gn1 
	BYTE	W24
	BYTE	PEND
// 003   ----------------------------------------
TrainRush_10_003:
	BYTE		N11     Dn2   v064
	BYTE	W24
	BYTE		N11   
	BYTE	W24
	BYTE		        Gn1 
	BYTE	W24
	BYTE		N11   
	BYTE	W24
	BYTE	PEND
// 004   ----------------------------------------
	BYTE	PATT
	 POIN2	TrainRush_10_002
// 005   ----------------------------------------
	BYTE		N11     Dn2   v064
	BYTE	W24
	BYTE		        Cs2 
	BYTE	W24
	BYTE		        Cn2 
	BYTE	W24
	BYTE		N05     Gn1 
	BYTE	W12
	BYTE		        Bn1 
	BYTE	W12
// 006   ----------------------------------------
TrainRush_10_006:
	BYTE	W12
	BYTE		N08     Cn2   v064
	BYTE	W19
	BYTE		        Ds2 
	BYTE	W17
	BYTE		        Cn2 
	BYTE	W19
	BYTE		N11     Ds2 
	BYTE	W28
	BYTE	W01
	BYTE	PEND
// 007   ----------------------------------------
	BYTE	W12
	BYTE		N08     Dn2 
	BYTE	W19
	BYTE		        Gn1 
	BYTE	W17
	BYTE		        Bn1 
	BYTE	W19
	BYTE		N11   
	BYTE	W28
	BYTE	W01
// 008   ----------------------------------------
	BYTE	PATT
	 POIN2	TrainRush_10_006
// 009   ----------------------------------------
	BYTE	W07
	BYTE		N11     Dn2   v064
	BYTE	W12
	BYTE		N11   
	BYTE	W12
	BYTE		N02     Bn1 
	BYTE	W05
	BYTE		N05   
	BYTE	W12
	BYTE		N08     Cn2 
	BYTE	W19
	BYTE		N11   
	BYTE	W28
	BYTE	W01
// 010   ----------------------------------------
	BYTE		N11   
	BYTE	W24
	BYTE		N11   
	BYTE	W24
	BYTE		        Ds2 
	BYTE	W24
	BYTE		N11   
	BYTE	W24
// 011   ----------------------------------------
	BYTE	PATT
	 POIN2	TrainRush_10_003
// 012   ----------------------------------------
	BYTE	PATT
	 POIN2	TrainRush_10_002
// 013   ----------------------------------------
	BYTE		N11     Dn2   v064
	BYTE	W24
	BYTE		        Cs2 
	BYTE	W24
	BYTE		N05     Cn2 
	BYTE	W12
	BYTE		N02     Gn1   v112
	BYTE	W07
	BYTE		N05   
	BYTE	W12
	BYTE		N08   
	BYTE	W17
// 014   ----------------------------------------
TrainRush_10_014:
	BYTE		N11     Cn2   v080
	BYTE	W24
	BYTE		N11   
	BYTE	W24
	BYTE		        Ds2 
	BYTE	W24
	BYTE		N11   
	BYTE	W24
	BYTE	PEND
// 015   ----------------------------------------
TrainRush_10_015:
	BYTE		N11     Dn2   v080
	BYTE	W24
	BYTE		N11   
	BYTE	W24
	BYTE		        Gn1 
	BYTE	W24
	BYTE		N11   
	BYTE	W24
	BYTE	PEND
// 016   ----------------------------------------
TrainRush_10_016:
	BYTE		N11     Cn2   v080
	BYTE	W24
	BYTE		        Gn1 
	BYTE	W24
	BYTE		        Cn2 
	BYTE	W24
	BYTE		        Gn1 
	BYTE	W24
	BYTE	PEND
// 017   ----------------------------------------
TrainRush_10_017:
	BYTE		N11     Dn2   v080
	BYTE	W24
	BYTE		        Cs2 
	BYTE	W24
	BYTE		        Cn2 
	BYTE	W24
	BYTE		        Gn1 
	BYTE	W24
	BYTE	PEND
// 018   ----------------------------------------
	BYTE	PATT
	 POIN2	TrainRush_10_016
// 019   ----------------------------------------
	BYTE		N11     Dn2   v080
	BYTE	W24
	BYTE		N11   
	BYTE	W24
	BYTE		        Gn1 
	BYTE	W24
	BYTE		        Dn1 
	BYTE	W24
// 020   ----------------------------------------
	BYTE	PATT
	 POIN2	TrainRush_10_016
// 021   ----------------------------------------
	BYTE		N11     Dn2   v080
	BYTE	W24
	BYTE		        Cs2 
	BYTE	W24
	BYTE		        Cn2 
	BYTE	W24
	BYTE		N05     Gn1 
	BYTE	W12
	BYTE		        Bn1 
	BYTE	W12
// 022   ----------------------------------------
TrainRush_10_022:
	BYTE		N11     Cn2   v080
	BYTE	W24
	BYTE		        Gn1 
	BYTE	W24
	BYTE		        Cn2 
	BYTE	W24
	BYTE		        Fs1 
	BYTE	W24
	BYTE	PEND
// 023   ----------------------------------------
	BYTE	PATT
	 POIN2	TrainRush_10_017
// 024   ----------------------------------------
	BYTE	PATT
	 POIN2	TrainRush_10_022
// 025   ----------------------------------------
	BYTE	PATT
	 POIN2	TrainRush_10_017
// 026   ----------------------------------------
	BYTE	W96
// 027   ----------------------------------------
	BYTE	W96
// 028   ----------------------------------------
	BYTE	W96
// 029   ----------------------------------------
	BYTE	W96
// 030   ----------------------------------------
TrainRush_10_030:
	BYTE		N11     Cn1   v080
	BYTE	W24
	BYTE		        Gn1 
	BYTE	W24
	BYTE		N08     Fs1 
	BYTE	W19
	BYTE		N11     Fn1 
	BYTE	W12
	BYTE		N16     Ds1 
	BYTE	W17
	BYTE	PEND
// 031   ----------------------------------------
	BYTE	W07
	BYTE		N08     Cn1 
	BYTE	W17
	BYTE		N11     Gn1 
	BYTE	W24
	BYTE		N08     Fs1 
	BYTE	W19
	BYTE		N11     Fn1 
	BYTE	W12
	BYTE		N16     Ds1 
	BYTE	W17
// 032   ----------------------------------------
	BYTE	PATT
	 POIN2	TrainRush_10_030
// 033   ----------------------------------------
	BYTE	W07
	BYTE		N16     Cn2   v080
	BYTE	W17
	BYTE		N11     As1 
	BYTE	W12
	BYTE		        Cn2 
	BYTE	W12
	BYTE		N08   
	BYTE	W19
	BYTE		N16   
	BYTE	W28
	BYTE	W01
// 034   ----------------------------------------
	BYTE	PATT
	 POIN2	TrainRush_10_014
// 035   ----------------------------------------
	BYTE	PATT
	 POIN2	TrainRush_10_015
// 036   ----------------------------------------
	BYTE	PATT
	 POIN2	TrainRush_10_014
// 037   ----------------------------------------
	BYTE	PATT
	 POIN2	TrainRush_10_017
// 038   ----------------------------------------
	BYTE	PATT
	 POIN2	TrainRush_10_014
// 039   ----------------------------------------
	BYTE	PATT
	 POIN2	TrainRush_10_015
// 040   ----------------------------------------
	BYTE	PATT
	 POIN2	TrainRush_10_014
// 041   ----------------------------------------
	BYTE	PATT
	 POIN2	TrainRush_10_017
// 042   ----------------------------------------
	BYTE	W96
// 043   ----------------------------------------
	BYTE	W96
// 044   ----------------------------------------
TrainRush_10_044:
	BYTE	W12
	BYTE		N08     Gn2   v080
	BYTE	W19
	BYTE		        Fs2 
	BYTE	W17
	BYTE		N12     Ds2 
	BYTE	W19
	BYTE		N11     Cn2 
	BYTE	W28
	BYTE	W01
	BYTE	PEND
// 045   ----------------------------------------
	BYTE	PATT
	 POIN2	TrainRush_10_044
// 046   ----------------------------------------
	BYTE	PATT
	 POIN2	TrainRush_10_014
// 047   ----------------------------------------
	BYTE	PATT
	 POIN2	TrainRush_10_015
// 048   ----------------------------------------
	BYTE	PATT
	 POIN2	TrainRush_10_044
// 049   ----------------------------------------
	BYTE	PATT
	 POIN2	TrainRush_10_044
// 050   ----------------------------------------
TrainRush_10_050:
	BYTE		N11     Cn2   v096
	BYTE	W12
	BYTE		N08     Gn2 
	BYTE	W19
	BYTE		        Fs2 
	BYTE	W17
	BYTE		N12     Ds2 
	BYTE	W19
	BYTE		N11     Cn2 
	BYTE	W28
	BYTE	W01
	BYTE	PEND
// 051   ----------------------------------------
	BYTE	PATT
	 POIN2	TrainRush_10_050
// 052   ----------------------------------------
	BYTE		N11     Cn2   v080
	BYTE	W12
	BYTE		N08     Gn2 
	BYTE	W19
	BYTE		        Fs2 
	BYTE	W17
	BYTE		N12     Ds2 
	BYTE	W19
	BYTE		N11     Cn2 
	BYTE	W28
	BYTE	W01
// 053   ----------------------------------------
	BYTE		        Cn2   v064
	BYTE	W12
	BYTE		N08     Gn2 
	BYTE	W19
	BYTE		        Fs2 
	BYTE	W17
	BYTE		N12     Ds2 
	BYTE	W19
	BYTE		N11     Cn2 
	BYTE	W28
	BYTE	W01
// 054   ----------------------------------------
	BYTE		        Cn2   v052
	BYTE	W12
	BYTE		N08     Gn2 
	BYTE	W19
	BYTE		        Fs2 
	BYTE	W17
	BYTE		N12     Ds2 
	BYTE	W19
	BYTE		N11     Cn2 
	BYTE	W28
	BYTE	W01
// 055   ----------------------------------------
	BYTE		        Cn2   v036
	BYTE	W12
	BYTE		N08     Gn2 
	BYTE	W19
	BYTE		        Fs2 
	BYTE	W17
	BYTE		N12     Ds2 
	BYTE	W19
	BYTE		N11     Cn2 
	BYTE	W28
	BYTE	W01
// 056   ----------------------------------------
	BYTE	W96
// 057   ----------------------------------------
	BYTE	W96
// 058   ----------------------------------------
TrainRush_10_058:
	BYTE		N11     Cn1   v096
	BYTE		N11     Cn2 
	BYTE	W24
	BYTE		        Cn1 
	BYTE		N11     Cn2 
	BYTE	W24
	BYTE		        Ds1 
	BYTE		N11     Ds2 
	BYTE	W24
	BYTE		        Ds1 
	BYTE		N11     Ds2 
	BYTE	W24
	BYTE	PEND
// 059   ----------------------------------------
TrainRush_10_059:
	BYTE		N11     Dn1   v096
	BYTE		N11     Dn2 
	BYTE	W24
	BYTE		        Dn1 
	BYTE		N11     Dn2 
	BYTE	W24
	BYTE		N44     Gn0 
	BYTE		N44     Gn1 
	BYTE	W48
	BYTE	PEND
// 060   ----------------------------------------
	BYTE	PATT
	 POIN2	TrainRush_10_058
// 061   ----------------------------------------
TrainRush_10_061:
	BYTE		N11     Dn1   v096
	BYTE		N11     Dn2 
	BYTE	W24
	BYTE		        Cs1 
	BYTE		N11     Cs2 
	BYTE	W24
	BYTE		        Cn1 
	BYTE		N11     Cn2 
	BYTE	W24
	BYTE		        Gn0 
	BYTE		N11     Gn1 
	BYTE	W24
	BYTE	PEND
// 062   ----------------------------------------
	BYTE	PATT
	 POIN2	TrainRush_10_058
// 063   ----------------------------------------
	BYTE	PATT
	 POIN2	TrainRush_10_059
// 064   ----------------------------------------
	BYTE	PATT
	 POIN2	TrainRush_10_058
// 065   ----------------------------------------
	BYTE	PATT
	 POIN2	TrainRush_10_061
// 066   ----------------------------------------
	BYTE	PATT
	 POIN2	TrainRush_10_058
// 067   ----------------------------------------
	BYTE	PATT
	 POIN2	TrainRush_10_059
// 068   ----------------------------------------
	BYTE	PATT
	 POIN2	TrainRush_10_058
// 069   ----------------------------------------
	BYTE	PATT
	 POIN2	TrainRush_10_061
	BYTE	GoTo
	 POIN2	TrainRush_10_B1
TrainRush_10_B2:
// 070   ----------------------------------------
	BYTE	FINE

//**************** Track 11 (Midi-Chn.13) ****************//

TrainRush_11:
	BYTE	KEYSH   TrainRush_key+0
// 000   ----------------------------------------
	BYTE		VOICE   13
	BYTE		VOL     90*TrainRush_mvl/mxv
	BYTE		PAN     c_v+0
	BYTE	W12
	BYTE		N11     Cn3   v080
	BYTE		N11     Ds3 
	BYTE		N11     Gn3 
	BYTE	W24
	BYTE		        Cn3 
	BYTE		N11     Ds3 
	BYTE		N11     Gn3 
	BYTE	W24
	BYTE		        Cn3 
	BYTE		N11     Ds3 
	BYTE		N11     Gn3 
	BYTE	W24
	BYTE		        Cn3 
	BYTE		N11     Ds3 
	BYTE		N11     Gn3 
	BYTE	W12
// 001   ----------------------------------------
TrainRush_11_001:
	BYTE	W12
	BYTE		N11     Cn3   v080
	BYTE		N11     Ds3 
	BYTE		N11     Gn3 
	BYTE	W24
	BYTE		        Cn3 
	BYTE		N11     Ds3 
	BYTE		N11     Gn3 
	BYTE	W24
	BYTE		        Cn3 
	BYTE		N11     Ds3 
	BYTE		N11     Gn3 
	BYTE	W24
	BYTE		        Cn3 
	BYTE		N11     Ds3 
	BYTE		N11     Gn3 
	BYTE	W12
	BYTE	PEND
TrainRush_11_B1:
// 002   ----------------------------------------
	BYTE	PATT
	 POIN2	TrainRush_11_001
// 003   ----------------------------------------
TrainRush_11_003:
	BYTE	W12
	BYTE		N11     Dn3   v080
	BYTE		N11     Fs3 
	BYTE	W24
	BYTE		        Dn3 
	BYTE		N11     Fs3 
	BYTE	W24
	BYTE		        Bn2 
	BYTE		N11     Gn3 
	BYTE	W24
	BYTE		        Bn2 
	BYTE		N11     Gn3 
	BYTE	W12
	BYTE	PEND
// 004   ----------------------------------------
	BYTE	PATT
	 POIN2	TrainRush_11_001
// 005   ----------------------------------------
	BYTE	PATT
	 POIN2	TrainRush_11_003
// 006   ----------------------------------------
	BYTE	PATT
	 POIN2	TrainRush_11_001
// 007   ----------------------------------------
	BYTE	PATT
	 POIN2	TrainRush_11_003
// 008   ----------------------------------------
	BYTE	PATT
	 POIN2	TrainRush_11_001
// 009   ----------------------------------------
	BYTE	PATT
	 POIN2	TrainRush_11_003
// 010   ----------------------------------------
	BYTE	PATT
	 POIN2	TrainRush_11_001
// 011   ----------------------------------------
	BYTE	PATT
	 POIN2	TrainRush_11_003
// 012   ----------------------------------------
	BYTE	PATT
	 POIN2	TrainRush_11_001
// 013   ----------------------------------------
	BYTE	PATT
	 POIN2	TrainRush_11_003
// 014   ----------------------------------------
TrainRush_11_014:
	BYTE	W12
	BYTE		N05     Cn4   v096
	BYTE	W12
	BYTE		N07     Dn4 
	BYTE	W07
	BYTE		N04     Ds4 
	BYTE	W05
	BYTE		N07     Fn4 
	BYTE	W07
	BYTE		N04     Fs4 
	BYTE	W05
	BYTE		N07     Gn4 
	BYTE	W19
	BYTE		N05     Ds4 
	BYTE	W17
	BYTE		N11     Gn4 
	BYTE	W12
	BYTE	PEND
// 015   ----------------------------------------
	BYTE		N07     Fs4 
	BYTE	W07
	BYTE		N11     Dn4 
	BYTE	W12
	BYTE		N04     Fs4 
	BYTE	W12
	BYTE		        Dn4 
	BYTE	W05
	BYTE		N11     Fs4 
	BYTE	W12
	BYTE		N07     Fn4 
	BYTE	W07
	BYTE		N11     Ds4 
	BYTE	W12
	BYTE		N04     Fn4 
	BYTE	W17
	BYTE		N11     Ds4 
	BYTE	W12
// 016   ----------------------------------------
	BYTE	PATT
	 POIN2	TrainRush_11_014
// 017   ----------------------------------------
	BYTE		N02     Dn4   v096
	BYTE	W07
	BYTE		N05     Fs4 
	BYTE	W12
	BYTE		N02   
	BYTE	W05
	BYTE		N05     Fn4 
	BYTE	W12
	BYTE		N05   
	BYTE	W12
	BYTE		        Ds4 
	BYTE	W12
	BYTE		N02     Gn3 
	BYTE	W07
	BYTE		N16   
	BYTE		N16     Cn4 
	BYTE	W28
	BYTE	W01
// 018   ----------------------------------------
	BYTE	PATT
	 POIN2	TrainRush_11_001
// 019   ----------------------------------------
	BYTE	PATT
	 POIN2	TrainRush_11_003
// 020   ----------------------------------------
	BYTE	PATT
	 POIN2	TrainRush_11_001
// 021   ----------------------------------------
	BYTE	PATT
	 POIN2	TrainRush_11_003
// 022   ----------------------------------------
	BYTE	PATT
	 POIN2	TrainRush_11_001
// 023   ----------------------------------------
	BYTE	PATT
	 POIN2	TrainRush_11_003
// 024   ----------------------------------------
	BYTE	PATT
	 POIN2	TrainRush_11_001
// 025   ----------------------------------------
	BYTE	PATT
	 POIN2	TrainRush_11_003
// 026   ----------------------------------------
	BYTE	W96
// 027   ----------------------------------------
	BYTE	W96
// 028   ----------------------------------------
	BYTE	W96
// 029   ----------------------------------------
	BYTE	W96
// 030   ----------------------------------------
	BYTE	W96
// 031   ----------------------------------------
	BYTE	W96
// 032   ----------------------------------------
	BYTE	W96
// 033   ----------------------------------------
	BYTE	W84
	BYTE		N07     Cn3   v096
	BYTE		N07     Cn4 
	BYTE	W07
	BYTE		N04     Dn3 
	BYTE		N04     Dn4 
	BYTE	W05
// 034   ----------------------------------------
TrainRush_11_034:
	BYTE		N11     Ds3   v096
	BYTE		N11     Ds4 
	BYTE	W12
	BYTE		        Ds3 
	BYTE		N11     Ds4 
	BYTE	W12
	BYTE		        Dn3 
	BYTE		N11     Dn4 
	BYTE	W12
	BYTE		        Dn3 
	BYTE		N11     Dn4 
	BYTE	W12
	BYTE		N07     Cn3 
	BYTE		N07     Cn4 
	BYTE	W07
	BYTE		N11     Cn3 
	BYTE		N11     Cn4 
	BYTE	W12
	BYTE		N16     Gn2 
	BYTE		N16     Gn3 
	BYTE	W17
	BYTE		N11     Gn2 
	BYTE		N11     Gn3 
	BYTE	W12
	BYTE	PEND
// 035   ----------------------------------------
	BYTE		N19     Fs3 
	BYTE		N19     Fs4 
	BYTE	W19
	BYTE		N04     Ds3 
	BYTE		N04     Ds4 
	BYTE	W05
	BYTE		N07     Fn3 
	BYTE		N07     Fn4 
	BYTE	W07
	BYTE		N11     Cn3 
	BYTE		N11     Cn4 
	BYTE	W12
	BYTE		N40     Ds3 
	BYTE		N40     Ds4 
	BYTE	W40
	BYTE	W01
	BYTE		N07     Cn3 
	BYTE		N07     Cn4 
	BYTE	W07
	BYTE		N04     Dn3 
	BYTE		N04     Dn4 
	BYTE	W05
// 036   ----------------------------------------
	BYTE	PATT
	 POIN2	TrainRush_11_034
// 037   ----------------------------------------
	BYTE		N19     Fn3   v096
	BYTE		N19     Fn4 
	BYTE	W19
	BYTE		N04     Fs3 
	BYTE		N04     Fs4 
	BYTE	W05
	BYTE		N07     Fn3 
	BYTE		N07     Fn4 
	BYTE	W07
	BYTE		N11     Ds3 
	BYTE		N11     Ds4 
	BYTE	W12
	BYTE		N52     Cn3 
	BYTE		N52     Cn4 
	BYTE	W52
	BYTE	W01
// 038   ----------------------------------------
	BYTE	PATT
	 POIN2	TrainRush_11_001
// 039   ----------------------------------------
	BYTE	PATT
	 POIN2	TrainRush_11_003
// 040   ----------------------------------------
	BYTE	PATT
	 POIN2	TrainRush_11_001
// 041   ----------------------------------------
	BYTE	PATT
	 POIN2	TrainRush_11_003
// 042   ----------------------------------------
	BYTE	W96
// 043   ----------------------------------------
	BYTE	W96
// 044   ----------------------------------------
	BYTE	W96
// 045   ----------------------------------------
	BYTE	W96
// 046   ----------------------------------------
TrainRush_11_046:
	BYTE	W12
	BYTE		N11     Gn2   v096
	BYTE		N11     Cn3 
	BYTE		N11     Ds3 
	BYTE	W24
	BYTE		        Gn2 
	BYTE		N11     Cn3 
	BYTE		N11     Ds3 
	BYTE	W24
	BYTE		        Gn2 
	BYTE		N11     Cn3 
	BYTE		N11     Ds3 
	BYTE	W24
	BYTE		        Gn2 
	BYTE		N11     Cn3 
	BYTE		N11     Ds3 
	BYTE	W12
	BYTE	PEND
// 047   ----------------------------------------
TrainRush_11_047:
	BYTE	W12
	BYTE		N11     An2   v096
	BYTE		N11     Dn3 
	BYTE		N11     Fs3 
	BYTE	W24
	BYTE		        An2 
	BYTE		N11     Dn3 
	BYTE		N11     Fs3 
	BYTE	W24
	BYTE		        Gs2 
	BYTE		N11     Cs3 
	BYTE		N11     Fn3 
	BYTE	W24
	BYTE		        Gs2 
	BYTE		N11     Cs3 
	BYTE		N11     Fn3 
	BYTE	W12
	BYTE	PEND
// 048   ----------------------------------------
	BYTE	PATT
	 POIN2	TrainRush_11_046
// 049   ----------------------------------------
	BYTE	PATT
	 POIN2	TrainRush_11_047
// 050   ----------------------------------------
TrainRush_11_050:
	BYTE	W12
	BYTE		N11     Cn3   v096
	BYTE		N11     Ds3 
	BYTE		N11     Gn3 
	BYTE	W24
	BYTE		        Cn3 
	BYTE		N11     Ds3 
	BYTE		N11     Gn3 
	BYTE	W24
	BYTE		        Cn3 
	BYTE		N11     Ds3 
	BYTE		N11     Gn3 
	BYTE	W24
	BYTE		        Cn3 
	BYTE		N11     Ds3 
	BYTE		N11     Gn3 
	BYTE	W12
	BYTE	PEND
// 051   ----------------------------------------
TrainRush_11_051:
	BYTE	W12
	BYTE		N11     Dn3   v096
	BYTE		N11     Fs3 
	BYTE	W24
	BYTE		        Dn3 
	BYTE		N11     Fs3 
	BYTE	W24
	BYTE		        Bn2 
	BYTE		N11     Gn3 
	BYTE	W24
	BYTE		        Bn2 
	BYTE		N11     Gn3 
	BYTE	W12
	BYTE	PEND
// 052   ----------------------------------------
	BYTE	PATT
	 POIN2	TrainRush_11_050
// 053   ----------------------------------------
	BYTE	PATT
	 POIN2	TrainRush_11_051
// 054   ----------------------------------------
	BYTE	PATT
	 POIN2	TrainRush_11_046
// 055   ----------------------------------------
	BYTE	PATT
	 POIN2	TrainRush_11_047
// 056   ----------------------------------------
	BYTE	PATT
	 POIN2	TrainRush_11_046
// 057   ----------------------------------------
	BYTE	PATT
	 POIN2	TrainRush_11_047
// 058   ----------------------------------------
	BYTE	PATT
	 POIN2	TrainRush_11_046
// 059   ----------------------------------------
	BYTE	PATT
	 POIN2	TrainRush_11_047
// 060   ----------------------------------------
	BYTE	PATT
	 POIN2	TrainRush_11_046
// 061   ----------------------------------------
	BYTE	PATT
	 POIN2	TrainRush_11_047
// 062   ----------------------------------------
	BYTE	PATT
	 POIN2	TrainRush_11_046
// 063   ----------------------------------------
	BYTE	PATT
	 POIN2	TrainRush_11_047
// 064   ----------------------------------------
	BYTE	PATT
	 POIN2	TrainRush_11_046
// 065   ----------------------------------------
	BYTE	PATT
	 POIN2	TrainRush_11_047
// 066   ----------------------------------------
	BYTE	PATT
	 POIN2	TrainRush_11_046
// 067   ----------------------------------------
	BYTE	PATT
	 POIN2	TrainRush_11_047
// 068   ----------------------------------------
	BYTE	PATT
	 POIN2	TrainRush_11_046
// 069   ----------------------------------------
	BYTE	PATT
	 POIN2	TrainRush_11_047
	BYTE	GoTo
	 POIN2	TrainRush_11_B1
TrainRush_11_B2:
// 070   ----------------------------------------
	BYTE	FINE

//**************** Track 12 (Midi-Chn.14) ****************//

TrainRush_12:
	BYTE	KEYSH   TrainRush_key+0
// 000   ----------------------------------------
	BYTE		VOICE   127
	BYTE		VOL     100*TrainRush_mvl/mxv
	BYTE		PAN     c_v+0
	BYTE		N11     Cn1   v080
	BYTE	W12
	BYTE		        Dn1 
	BYTE	W12
	BYTE		        Cn1 
	BYTE	W12
	BYTE		        Dn1 
	BYTE	W12
	BYTE		        Cn1 
	BYTE	W12
	BYTE		        Dn1 
	BYTE	W12
	BYTE		        Cn1 
	BYTE	W12
	BYTE		        Dn1 
	BYTE	W12
// 001   ----------------------------------------
TrainRush_12_001:
	BYTE		N11     Cn1   v080
	BYTE	W12
	BYTE		        Dn1 
	BYTE	W12
	BYTE		        Cn1 
	BYTE	W12
	BYTE		        Dn1 
	BYTE	W12
	BYTE		        Cn1 
	BYTE	W12
	BYTE		        Dn1 
	BYTE	W12
	BYTE		        Cn1 
	BYTE	W12
	BYTE		        Dn1 
	BYTE	W12
	BYTE	PEND
TrainRush_12_B1:
// 002   ----------------------------------------
TrainRush_12_002:
	BYTE		N11     Cn1   v080
	BYTE		N11     Cs2 
	BYTE	W12
	BYTE		        Dn1 
	BYTE	W12
	BYTE		        Cn1 
	BYTE	W12
	BYTE		        Dn1 
	BYTE	W12
	BYTE		        Cn1 
	BYTE	W12
	BYTE		        Dn1 
	BYTE	W12
	BYTE		        Cn1 
	BYTE	W12
	BYTE		        Dn1 
	BYTE	W12
	BYTE	PEND
// 003   ----------------------------------------
	BYTE	PATT
	 POIN2	TrainRush_12_001
// 004   ----------------------------------------
	BYTE	PATT
	 POIN2	TrainRush_12_001
// 005   ----------------------------------------
	BYTE	PATT
	 POIN2	TrainRush_12_001
// 006   ----------------------------------------
	BYTE	PATT
	 POIN2	TrainRush_12_001
// 007   ----------------------------------------
	BYTE	PATT
	 POIN2	TrainRush_12_001
// 008   ----------------------------------------
	BYTE	PATT
	 POIN2	TrainRush_12_001
// 009   ----------------------------------------
	BYTE	PATT
	 POIN2	TrainRush_12_001
// 010   ----------------------------------------
	BYTE	PATT
	 POIN2	TrainRush_12_002
// 011   ----------------------------------------
	BYTE	PATT
	 POIN2	TrainRush_12_001
// 012   ----------------------------------------
	BYTE	PATT
	 POIN2	TrainRush_12_001
// 013   ----------------------------------------
	BYTE	PATT
	 POIN2	TrainRush_12_001
// 014   ----------------------------------------
	BYTE	PATT
	 POIN2	TrainRush_12_001
// 015   ----------------------------------------
	BYTE	PATT
	 POIN2	TrainRush_12_001
// 016   ----------------------------------------
	BYTE	PATT
	 POIN2	TrainRush_12_001
// 017   ----------------------------------------
	BYTE	PATT
	 POIN2	TrainRush_12_001
// 018   ----------------------------------------
	BYTE	PATT
	 POIN2	TrainRush_12_002
// 019   ----------------------------------------
	BYTE	PATT
	 POIN2	TrainRush_12_001
// 020   ----------------------------------------
	BYTE	PATT
	 POIN2	TrainRush_12_001
// 021   ----------------------------------------
	BYTE	PATT
	 POIN2	TrainRush_12_001
// 022   ----------------------------------------
	BYTE	PATT
	 POIN2	TrainRush_12_001
// 023   ----------------------------------------
	BYTE	PATT
	 POIN2	TrainRush_12_001
// 024   ----------------------------------------
	BYTE	PATT
	 POIN2	TrainRush_12_001
// 025   ----------------------------------------
	BYTE	PATT
	 POIN2	TrainRush_12_001
// 026   ----------------------------------------
	BYTE		N11     Fn1   v080
	BYTE		N11     Cs2 
	BYTE	W12
	BYTE		N07     Dn1 
	BYTE	W07
	BYTE		N11     Fn1 
	BYTE	W12
	BYTE		N04   
	BYTE	W05
	BYTE		N11     Dn1 
	BYTE	W12
	BYTE		        Fn1 
	BYTE	W12
	BYTE		N07     Dn1 
	BYTE	W07
	BYTE		N04     Fn1 
	BYTE	W12
	BYTE		N04   
	BYTE	W05
	BYTE		N11     Dn1 
	BYTE	W12
// 027   ----------------------------------------
TrainRush_12_027:
	BYTE		N11     Fn1   v080
	BYTE	W12
	BYTE		N07     Dn1 
	BYTE	W07
	BYTE		N11     Fn1 
	BYTE	W12
	BYTE		N04   
	BYTE	W05
	BYTE		N11     Dn1 
	BYTE	W12
	BYTE		        Fn1 
	BYTE	W12
	BYTE		N07     Dn1 
	BYTE	W07
	BYTE		N04     Fn1 
	BYTE	W12
	BYTE		N04   
	BYTE	W05
	BYTE		N11     Dn1 
	BYTE	W12
	BYTE	PEND
// 028   ----------------------------------------
	BYTE	PATT
	 POIN2	TrainRush_12_027
// 029   ----------------------------------------
	BYTE	PATT
	 POIN2	TrainRush_12_027
// 030   ----------------------------------------
	BYTE	PATT
	 POIN2	TrainRush_12_027
// 031   ----------------------------------------
	BYTE	PATT
	 POIN2	TrainRush_12_027
// 032   ----------------------------------------
	BYTE	PATT
	 POIN2	TrainRush_12_027
// 033   ----------------------------------------
	BYTE	PATT
	 POIN2	TrainRush_12_027
// 034   ----------------------------------------
TrainRush_12_034:
	BYTE		N11     Cn1   v096
	BYTE	W12
	BYTE		        Dn1 
	BYTE	W12
	BYTE		        Cn1 
	BYTE	W12
	BYTE		        Dn1 
	BYTE	W12
	BYTE		        Cn1 
	BYTE	W12
	BYTE		        Dn1 
	BYTE	W12
	BYTE		        Cn1 
	BYTE	W12
	BYTE		        Dn1 
	BYTE	W12
	BYTE	PEND
// 035   ----------------------------------------
	BYTE	PATT
	 POIN2	TrainRush_12_034
// 036   ----------------------------------------
	BYTE	PATT
	 POIN2	TrainRush_12_034
// 037   ----------------------------------------
	BYTE	PATT
	 POIN2	TrainRush_12_034
// 038   ----------------------------------------
	BYTE	PATT
	 POIN2	TrainRush_12_034
// 039   ----------------------------------------
	BYTE	PATT
	 POIN2	TrainRush_12_034
// 040   ----------------------------------------
	BYTE	PATT
	 POIN2	TrainRush_12_034
// 041   ----------------------------------------
	BYTE	PATT
	 POIN2	TrainRush_12_034
// 042   ----------------------------------------
TrainRush_12_042:
	BYTE		N11     Fn1   v096
	BYTE	W12
	BYTE		N07     Dn1 
	BYTE	W07
	BYTE		N11     Fn1 
	BYTE	W12
	BYTE		N04   
	BYTE	W05
	BYTE		N11     Dn1 
	BYTE	W12
	BYTE		        Fn1 
	BYTE	W12
	BYTE		N07     Dn1 
	BYTE	W07
	BYTE		N04     Fn1 
	BYTE	W12
	BYTE		N04   
	BYTE	W05
	BYTE		N11     Dn1 
	BYTE	W12
	BYTE	PEND
// 043   ----------------------------------------
	BYTE	PATT
	 POIN2	TrainRush_12_042
// 044   ----------------------------------------
	BYTE	PATT
	 POIN2	TrainRush_12_042
// 045   ----------------------------------------
	BYTE	PATT
	 POIN2	TrainRush_12_042
// 046   ----------------------------------------
	BYTE	PATT
	 POIN2	TrainRush_12_042
// 047   ----------------------------------------
	BYTE	PATT
	 POIN2	TrainRush_12_042
// 048   ----------------------------------------
	BYTE	PATT
	 POIN2	TrainRush_12_042
// 049   ----------------------------------------
	BYTE	PATT
	 POIN2	TrainRush_12_042
// 050   ----------------------------------------
	BYTE	PATT
	 POIN2	TrainRush_12_042
// 051   ----------------------------------------
	BYTE	PATT
	 POIN2	TrainRush_12_042
// 052   ----------------------------------------
	BYTE	PATT
	 POIN2	TrainRush_12_042
// 053   ----------------------------------------
	BYTE	PATT
	 POIN2	TrainRush_12_042
// 054   ----------------------------------------
	BYTE	PATT
	 POIN2	TrainRush_12_042
// 055   ----------------------------------------
	BYTE	PATT
	 POIN2	TrainRush_12_042
// 056   ----------------------------------------
	BYTE	PATT
	 POIN2	TrainRush_12_042
// 057   ----------------------------------------
	BYTE	PATT
	 POIN2	TrainRush_12_042
// 058   ----------------------------------------
	BYTE	PATT
	 POIN2	TrainRush_12_042
// 059   ----------------------------------------
	BYTE	PATT
	 POIN2	TrainRush_12_042
// 060   ----------------------------------------
	BYTE	PATT
	 POIN2	TrainRush_12_042
// 061   ----------------------------------------
	BYTE	PATT
	 POIN2	TrainRush_12_042
// 062   ----------------------------------------
	BYTE	PATT
	 POIN2	TrainRush_12_042
// 063   ----------------------------------------
	BYTE	PATT
	 POIN2	TrainRush_12_042
// 064   ----------------------------------------
	BYTE	PATT
	 POIN2	TrainRush_12_042
// 065   ----------------------------------------
	BYTE	PATT
	 POIN2	TrainRush_12_042
// 066   ----------------------------------------
	BYTE	PATT
	 POIN2	TrainRush_12_042
// 067   ----------------------------------------
	BYTE	PATT
	 POIN2	TrainRush_12_042
// 068   ----------------------------------------
	BYTE	PATT
	 POIN2	TrainRush_12_042
// 069   ----------------------------------------
	BYTE	PATT
	 POIN2	TrainRush_12_042
	BYTE	GoTo
	 POIN2	TrainRush_12_B1
TrainRush_12_B2:
// 070   ----------------------------------------
	BYTE	FINE

//**************** Track 13 (Midi-Chn.15) ****************//

TrainRush_13:
	BYTE	KEYSH   TrainRush_key+0
// 000   ----------------------------------------
	BYTE		VOICE   127
	BYTE		VOL     100*TrainRush_mvl/mxv
	BYTE		PAN     c_v+0
	BYTE	W96
// 001   ----------------------------------------
	BYTE	W96
TrainRush_13_B1:
// 002   ----------------------------------------
TrainRush_13_002:
	BYTE		N11     Cs1   v036
	BYTE	W12
	BYTE		N07   
	BYTE	W07
	BYTE		N04   
	BYTE	W05
	BYTE		N11   
	BYTE	W12
	BYTE		N07   
	BYTE	W07
	BYTE		N04   
	BYTE	W05
	BYTE		N11   
	BYTE	W12
	BYTE		N07   
	BYTE	W07
	BYTE		N04   
	BYTE	W05
	BYTE		N11   
	BYTE	W12
	BYTE		N07   
	BYTE	W07
	BYTE		N04   
	BYTE	W05
	BYTE	PEND
// 003   ----------------------------------------
	BYTE	PATT
	 POIN2	TrainRush_13_002
// 004   ----------------------------------------
	BYTE	PATT
	 POIN2	TrainRush_13_002
// 005   ----------------------------------------
	BYTE	PATT
	 POIN2	TrainRush_13_002
// 006   ----------------------------------------
	BYTE	PATT
	 POIN2	TrainRush_13_002
// 007   ----------------------------------------
	BYTE	PATT
	 POIN2	TrainRush_13_002
// 008   ----------------------------------------
	BYTE	PATT
	 POIN2	TrainRush_13_002
// 009   ----------------------------------------
	BYTE	PATT
	 POIN2	TrainRush_13_002
// 010   ----------------------------------------
	BYTE	PATT
	 POIN2	TrainRush_13_002
// 011   ----------------------------------------
	BYTE	PATT
	 POIN2	TrainRush_13_002
// 012   ----------------------------------------
	BYTE	PATT
	 POIN2	TrainRush_13_002
// 013   ----------------------------------------
	BYTE	PATT
	 POIN2	TrainRush_13_002
// 014   ----------------------------------------
	BYTE	PATT
	 POIN2	TrainRush_13_002
// 015   ----------------------------------------
	BYTE	PATT
	 POIN2	TrainRush_13_002
// 016   ----------------------------------------
	BYTE	PATT
	 POIN2	TrainRush_13_002
// 017   ----------------------------------------
	BYTE	PATT
	 POIN2	TrainRush_13_002
// 018   ----------------------------------------
	BYTE	PATT
	 POIN2	TrainRush_13_002
// 019   ----------------------------------------
	BYTE	PATT
	 POIN2	TrainRush_13_002
// 020   ----------------------------------------
	BYTE	PATT
	 POIN2	TrainRush_13_002
// 021   ----------------------------------------
	BYTE	PATT
	 POIN2	TrainRush_13_002
// 022   ----------------------------------------
	BYTE	PATT
	 POIN2	TrainRush_13_002
// 023   ----------------------------------------
	BYTE	PATT
	 POIN2	TrainRush_13_002
// 024   ----------------------------------------
	BYTE	PATT
	 POIN2	TrainRush_13_002
// 025   ----------------------------------------
	BYTE	PATT
	 POIN2	TrainRush_13_002
// 026   ----------------------------------------
	BYTE	W96
// 027   ----------------------------------------
	BYTE	W96
// 028   ----------------------------------------
	BYTE	W96
// 029   ----------------------------------------
	BYTE	W96
// 030   ----------------------------------------
	BYTE	W96
// 031   ----------------------------------------
	BYTE	W96
// 032   ----------------------------------------
	BYTE	W96
// 033   ----------------------------------------
	BYTE	W96
// 034   ----------------------------------------
	BYTE	PATT
	 POIN2	TrainRush_13_002
// 035   ----------------------------------------
	BYTE	PATT
	 POIN2	TrainRush_13_002
// 036   ----------------------------------------
	BYTE	PATT
	 POIN2	TrainRush_13_002
// 037   ----------------------------------------
	BYTE	PATT
	 POIN2	TrainRush_13_002
// 038   ----------------------------------------
	BYTE	PATT
	 POIN2	TrainRush_13_002
// 039   ----------------------------------------
	BYTE	PATT
	 POIN2	TrainRush_13_002
// 040   ----------------------------------------
	BYTE	PATT
	 POIN2	TrainRush_13_002
// 041   ----------------------------------------
	BYTE	PATT
	 POIN2	TrainRush_13_002
// 042   ----------------------------------------
	BYTE	W96
// 043   ----------------------------------------
	BYTE	W96
// 044   ----------------------------------------
	BYTE	W96
// 045   ----------------------------------------
	BYTE	W96
// 046   ----------------------------------------
	BYTE	W96
// 047   ----------------------------------------
	BYTE	W96
// 048   ----------------------------------------
	BYTE	W96
// 049   ----------------------------------------
	BYTE	W96
// 050   ----------------------------------------
	BYTE	W96
// 051   ----------------------------------------
	BYTE	W96
// 052   ----------------------------------------
	BYTE	W96
// 053   ----------------------------------------
	BYTE	W96
// 054   ----------------------------------------
	BYTE	W96
// 055   ----------------------------------------
	BYTE	W96
// 056   ----------------------------------------
	BYTE	W96
// 057   ----------------------------------------
	BYTE	W96
// 058   ----------------------------------------
	BYTE	W96
// 059   ----------------------------------------
	BYTE	W96
// 060   ----------------------------------------
	BYTE	W96
// 061   ----------------------------------------
	BYTE	W96
// 062   ----------------------------------------
	BYTE	W96
// 063   ----------------------------------------
	BYTE	W96
// 064   ----------------------------------------
	BYTE	W96
// 065   ----------------------------------------
	BYTE	W96
// 066   ----------------------------------------
	BYTE	W96
// 067   ----------------------------------------
	BYTE	W96
// 068   ----------------------------------------
	BYTE	W96
// 069   ----------------------------------------
	BYTE	W96
	BYTE	GoTo
	 POIN2	TrainRush_13_B1
TrainRush_13_B2:
// 070   ----------------------------------------
	BYTE	FINE

//******************************************************//
	ALIGN 4

TrainRush:
	BYTE	13	// NumTrks
	BYTE	0	// NumBlks
	BYTE	TrainRush_pri	// Priority
	BYTE	TrainRush_rev	// Reverb.

	POIN2	TrainRush_grp

	POIN2	TrainRush_1
	POIN2	TrainRush_2
	POIN2	TrainRush_3
	POIN2	TrainRush_4
	POIN2	TrainRush_5
	POIN2	TrainRush_6
	POIN2	TrainRush_7
	POIN2	TrainRush_8
	POIN2	TrainRush_9
	POIN2	TrainRush_10
	POIN2	TrainRush_11
	POIN2	TrainRush_12
	POIN2	TrainRush_13

	
