//Event file generated from Sappy .s format.
	#include "MPlayDef.event"

	#define	TrialPhoenixWright_grp  voicegroup000
	#define	TrialPhoenixWright_pri  0
	#define	TrialPhoenixWright_rev  0
	#define	TrialPhoenixWright_mvl  80
	#define	TrialPhoenixWright_key  0
	#define	TrialPhoenixWright_tbs  1
	#define	TrialPhoenixWright_exg  0
	#define	TrialPhoenixWright_cmp  1

	// .rodata
	//	TrialPhoenixWright
	ALIGN 4

//**************** Track 1 (Midi-Chn.1) ****************//

TrialPhoenixWright_1:
	BYTE	KEYSH   TrialPhoenixWright_key+0
TrialPhoenixWright_1_B1:
// 000   ----------------------------------------
	BYTE	TEMPO   100*TrialPhoenixWright_tbs/2
	BYTE		VOICE   20
	BYTE		VOL     51*TrialPhoenixWright_mvl/mxv
	BYTE		PAN     c_v-1
	BYTE		N36     Gs3   v112
	BYTE		N36     Ds4 
	BYTE	W36
	BYTE		TIE     As3 
	BYTE		TIE     Fn4 
	BYTE	W60
// 001   ----------------------------------------
	BYTE	W72
	BYTE		EOT     As3 
	BYTE		        Fn4 
	BYTE	W24
// 002   ----------------------------------------
TrialPhoenixWright_1_002:
	BYTE		N36     Gs3   v112
	BYTE		N36     Ds4 
	BYTE	W36
	BYTE		TIE     As3 
	BYTE		TIE     Fn4 
	BYTE	W60
	BYTE	PEND
// 003   ----------------------------------------
	BYTE	W72
	BYTE		EOT     As3 
	BYTE		        Fn4 
	BYTE	W24
// 004   ----------------------------------------
	BYTE	PATT
	 POIN2	TrialPhoenixWright_1_002
// 005   ----------------------------------------
	BYTE	W72
	BYTE		EOT     As3 
	BYTE		        Fn4 
	BYTE	W24
// 006   ----------------------------------------
	BYTE	PATT
	 POIN2	TrialPhoenixWright_1_002
// 007   ----------------------------------------
	BYTE	W72
	BYTE		EOT     As3 
	BYTE		        Fn4 
	BYTE	W24
// 008   ----------------------------------------
	BYTE	PATT
	 POIN2	TrialPhoenixWright_1_002
// 009   ----------------------------------------
	BYTE	W72
	BYTE		EOT     As3 
	BYTE		        Fn4 
	BYTE	W24
// 010   ----------------------------------------
	BYTE	PATT
	 POIN2	TrialPhoenixWright_1_002
// 011   ----------------------------------------
	BYTE	W72
	BYTE		EOT     As3 
	BYTE		        Fn4 
	BYTE	W24
// 012   ----------------------------------------
	BYTE	W96
// 013   ----------------------------------------
	BYTE	W96
// 014   ----------------------------------------
	BYTE	W96
// 015   ----------------------------------------
	BYTE	W96
// 016   ----------------------------------------
	BYTE	W96
// 017   ----------------------------------------
	BYTE	W96
// 018   ----------------------------------------
	BYTE	W96
// 019   ----------------------------------------
	BYTE		N96     Fn4   v100
	BYTE		N96     As4 
	BYTE	W96
	BYTE	GoTo
	 POIN2	TrialPhoenixWright_1_B1
TrialPhoenixWright_1_B2:
// 020   ----------------------------------------
	BYTE	TEMPO   100*TrialPhoenixWright_tbs/2
	BYTE	FINE

//**************** Track 2 (Midi-Chn.2) ****************//

TrialPhoenixWright_2:
	BYTE	KEYSH   TrialPhoenixWright_key+0
TrialPhoenixWright_2_B1:
// 000   ----------------------------------------
	BYTE		VOICE   29
	BYTE		PAN     c_v+0
	BYTE		VOL     103*TrialPhoenixWright_mvl/mxv
	BYTE		N36     Fn2   v112
	BYTE	W36
	BYTE		TIE     Gn2 
	BYTE	W60
// 001   ----------------------------------------
	BYTE	W72
	BYTE		EOT   
	BYTE	W06
	BYTE		N06   
	BYTE	W06
	BYTE		        As2 
	BYTE	W06
	BYTE		        Bn2 
	BYTE	W06
// 002   ----------------------------------------
	BYTE		N36     Fn2 
	BYTE	W36
	BYTE		TIE     Gn2 
	BYTE	W60
// 003   ----------------------------------------
	BYTE	W72
	BYTE		EOT   
	BYTE		N06     Gs3 
	BYTE	W06
	BYTE		        Gn3 
	BYTE	W06
	BYTE		        Ds3 
	BYTE	W06
	BYTE		        As2 
	BYTE	W06
// 004   ----------------------------------------
TrialPhoenixWright_2_004:
	BYTE		N18     Fn2   v112
	BYTE	W18
	BYTE		N05     Fn2   v124
	BYTE	W18
	BYTE		N60     Gn2   v112
	BYTE	W60
	BYTE	PEND
// 005   ----------------------------------------
TrialPhoenixWright_2_005:
	BYTE		N06     Gn2   v112
	BYTE	W06
	BYTE		        As2 
	BYTE	W06
	BYTE		        Cn3 
	BYTE	W18
	BYTE		        Fn2 
	BYTE	W06
	BYTE		        Gn2 
	BYTE	W06
	BYTE		        As2 
	BYTE	W24
	BYTE		BEND    c_v+0
	BYTE		N06     Dn3 
	BYTE	W03
	BYTE		BEND    c_v+32
	BYTE	W02
	BYTE		        c_v+0
	BYTE	W01
	BYTE		N06   
	BYTE	W06
	BYTE		        As2 
	BYTE	W06
	BYTE		N12     Fn2 
	BYTE	W12
	BYTE	PEND
// 006   ----------------------------------------
TrialPhoenixWright_2_006:
	BYTE		N12     Fn2   v112
	BYTE	W12
	BYTE		        Cn3 
	BYTE	W12
	BYTE		        Fn2 
	BYTE	W12
	BYTE		N60     Gn2 
	BYTE	W60
	BYTE	PEND
// 007   ----------------------------------------
TrialPhoenixWright_2_007:
	BYTE		N06     Gn2   v112
	BYTE	W06
	BYTE		        Fn2 
	BYTE	W30
	BYTE		        Gn2 
	BYTE	W06
	BYTE		        As2 
	BYTE	W24
	BYTE		N06   
	BYTE	W06
	BYTE		        Gs3 
	BYTE	W06
	BYTE		        Gn3 
	BYTE	W06
	BYTE		        Ds3 
	BYTE	W06
	BYTE		        As2 
	BYTE	W06
	BYTE	PEND
// 008   ----------------------------------------
	BYTE	PATT
	 POIN2	TrialPhoenixWright_2_004
// 009   ----------------------------------------
	BYTE	PATT
	 POIN2	TrialPhoenixWright_2_005
// 010   ----------------------------------------
	BYTE	PATT
	 POIN2	TrialPhoenixWright_2_006
// 011   ----------------------------------------
	BYTE	PATT
	 POIN2	TrialPhoenixWright_2_007
// 012   ----------------------------------------
TrialPhoenixWright_2_012:
	BYTE		N05     Cn3   v112
	BYTE	W06
	BYTE		N05   
	BYTE	W30
	BYTE		        Fn2 
	BYTE	W06
	BYTE		N05   
	BYTE	W42
	BYTE		N66     Gn2 
	BYTE	W12
	BYTE	PEND
// 013   ----------------------------------------
	BYTE	W54
	BYTE		N06   
	BYTE	W06
	BYTE		        As2 
	BYTE	W06
	BYTE		        Cn3 
	BYTE	W06
	BYTE		        Ds3 
	BYTE	W06
	BYTE		        Dn3 
	BYTE	W06
	BYTE		        As2 
	BYTE	W06
	BYTE		        Fn2 
	BYTE	W06
// 014   ----------------------------------------
	BYTE		N05     Cn3 
	BYTE	W06
	BYTE		N05   
	BYTE	W30
	BYTE		        Fn2 
	BYTE	W06
	BYTE		N05   
	BYTE	W42
	BYTE		N36     Gn2 
	BYTE	W12
// 015   ----------------------------------------
	BYTE	W24
	BYTE		N12     As2 
	BYTE	W12
	BYTE		        Gn2 
	BYTE	W12
	BYTE		        As2 
	BYTE	W12
	BYTE		        Cn3 
	BYTE	W12
	BYTE		N24     Dn3 
	BYTE	W24
// 016   ----------------------------------------
	BYTE	PATT
	 POIN2	TrialPhoenixWright_2_012
// 017   ----------------------------------------
	BYTE	W54
	BYTE		N06     Gn2   v112
	BYTE	W06
	BYTE		        As2 
	BYTE	W06
	BYTE		        Cn3 
	BYTE	W06
	BYTE		        Ds3 
	BYTE	W06
	BYTE		        Dn3 
	BYTE	W06
	BYTE		        Ds3 
	BYTE	W06
	BYTE		        Fn3 
	BYTE	W06
// 018   ----------------------------------------
	BYTE		N05     Cn3 
	BYTE	W06
	BYTE		N05   
	BYTE	W30
	BYTE		        Fn2 
	BYTE	W06
	BYTE		N05   
	BYTE	W42
	BYTE		N96     Gn2 
	BYTE	W12
// 019   ----------------------------------------
	BYTE	W96
	BYTE	GoTo
	 POIN2	TrialPhoenixWright_2_B1
TrialPhoenixWright_2_B2:
// 020   ----------------------------------------
	BYTE	FINE

//**************** Track 3 (Midi-Chn.3) ****************//

TrialPhoenixWright_3:
	BYTE	KEYSH   TrialPhoenixWright_key+0
TrialPhoenixWright_3_B1:
// 000   ----------------------------------------
	BYTE		VOICE   61
	BYTE		VOL     93*TrialPhoenixWright_mvl/mxv
	BYTE		PAN     c_v-1
	BYTE	W96
// 001   ----------------------------------------
	BYTE	W96
// 002   ----------------------------------------
	BYTE	W96
// 003   ----------------------------------------
	BYTE	W96
// 004   ----------------------------------------
	BYTE	W96
// 005   ----------------------------------------
	BYTE	W96
// 006   ----------------------------------------
	BYTE	W96
// 007   ----------------------------------------
	BYTE	W96
// 008   ----------------------------------------
	BYTE	W96
// 009   ----------------------------------------
	BYTE	W96
// 010   ----------------------------------------
	BYTE	W96
// 011   ----------------------------------------
	BYTE	W96
// 012   ----------------------------------------
TrialPhoenixWright_3_012:
	BYTE		N05     Gn3   v088
	BYTE	W06
	BYTE		N05   
	BYTE	W30
	BYTE		        Gs3 
	BYTE	W06
	BYTE		N05   
	BYTE	W42
	BYTE		N84     As3 
	BYTE	W12
	BYTE	PEND
// 013   ----------------------------------------
	BYTE	W96
// 014   ----------------------------------------
TrialPhoenixWright_3_014:
	BYTE		N05     Gn3   v088
	BYTE	W06
	BYTE		N05   
	BYTE	W30
	BYTE		        Gs3 
	BYTE	W06
	BYTE		N05   
	BYTE	W42
	BYTE		N84     Fn3 
	BYTE	W12
	BYTE	PEND
// 015   ----------------------------------------
	BYTE	W84
	BYTE		N06   
	BYTE	W06
	BYTE		N06   
	BYTE	W06
// 016   ----------------------------------------
	BYTE	PATT
	 POIN2	TrialPhoenixWright_3_012
// 017   ----------------------------------------
	BYTE	W96
// 018   ----------------------------------------
	BYTE	PATT
	 POIN2	TrialPhoenixWright_3_014
// 019   ----------------------------------------
	BYTE	W96
	BYTE	GoTo
	 POIN2	TrialPhoenixWright_3_B1
TrialPhoenixWright_3_B2:
// 020   ----------------------------------------
	BYTE	FINE

//**************** Track 4 (Midi-Chn.4) ****************//

TrialPhoenixWright_4:
	BYTE	KEYSH   TrialPhoenixWright_key+0
TrialPhoenixWright_4_B1:
// 000   ----------------------------------------
	BYTE		VOICE   2
	BYTE		VOL     79*TrialPhoenixWright_mvl/mxv
	BYTE		PAN     c_v+0
	BYTE	W96
// 001   ----------------------------------------
	BYTE	W96
// 002   ----------------------------------------
	BYTE	W96
// 003   ----------------------------------------
	BYTE	W96
// 004   ----------------------------------------
	BYTE	W96
// 005   ----------------------------------------
TrialPhoenixWright_4_005:
	BYTE		N06     Dn5   v052
	BYTE	W06
	BYTE		        Ds5 
	BYTE	W06
	BYTE		        Dn5 
	BYTE	W06
	BYTE		        Ds5 
	BYTE	W06
	BYTE		        Dn5   v072
	BYTE	W06
	BYTE		        Ds5 
	BYTE	W06
	BYTE		        Dn5 
	BYTE	W06
	BYTE		        Ds5 
	BYTE	W06
	BYTE		        Dn5   v088
	BYTE	W06
	BYTE		        Ds5 
	BYTE	W06
	BYTE		        Dn5   v100
	BYTE	W06
	BYTE		        Ds5 
	BYTE	W06
	BYTE		        Dn5   v088
	BYTE	W06
	BYTE		        Ds5 
	BYTE	W06
	BYTE		        Dn5   v072
	BYTE	W06
	BYTE		        Ds5   v052
	BYTE	W06
	BYTE	PEND
// 006   ----------------------------------------
	BYTE	W96
// 007   ----------------------------------------
	BYTE	PATT
	 POIN2	TrialPhoenixWright_4_005
// 008   ----------------------------------------
	BYTE	W96
// 009   ----------------------------------------
	BYTE		N06     Cn5   v052
	BYTE	W06
	BYTE		        Ds5 
	BYTE	W06
	BYTE		        Fn5 
	BYTE	W06
	BYTE		        Cn5 
	BYTE	W06
	BYTE		        Ds5   v072
	BYTE	W06
	BYTE		        Fn5 
	BYTE	W06
	BYTE		        Cn5 
	BYTE	W06
	BYTE		        Ds5 
	BYTE	W06
	BYTE		        Fn5   v088
	BYTE	W06
	BYTE		        Gn4 
	BYTE	W06
	BYTE		        As4   v100
	BYTE	W06
	BYTE		        Cn5 
	BYTE	W06
	BYTE		        Dn5   v088
	BYTE	W06
	BYTE		        Ds5 
	BYTE	W06
	BYTE		        Dn5   v072
	BYTE	W06
	BYTE		        Ds5   v052
	BYTE	W06
// 010   ----------------------------------------
	BYTE	W96
// 011   ----------------------------------------
	BYTE		        Cn5 
	BYTE	W06
	BYTE		        Ds5 
	BYTE	W06
	BYTE		        Fn5 
	BYTE	W06
	BYTE		        Cn5 
	BYTE	W06
	BYTE		        Ds5   v072
	BYTE	W06
	BYTE		        Fn5 
	BYTE	W06
	BYTE		        Cn5 
	BYTE	W06
	BYTE		        Ds5 
	BYTE	W06
	BYTE		        Fn5   v088
	BYTE	W06
	BYTE		        Cn5 
	BYTE	W06
	BYTE		        Ds5 
	BYTE	W06
	BYTE		        Fn5 
	BYTE	W06
	BYTE		        Ds5   v100
	BYTE	W06
	BYTE		        Dn5 
	BYTE	W06
	BYTE		        As4 
	BYTE	W06
	BYTE		        Ds4 
	BYTE	W06
// 012   ----------------------------------------
	BYTE	W96
// 013   ----------------------------------------
	BYTE	W96
// 014   ----------------------------------------
	BYTE	W96
// 015   ----------------------------------------
	BYTE	W96
// 016   ----------------------------------------
	BYTE	W96
// 017   ----------------------------------------
	BYTE	W96
// 018   ----------------------------------------
	BYTE	W96
// 019   ----------------------------------------
	BYTE	W96
	BYTE	GoTo
	 POIN2	TrialPhoenixWright_4_B1
TrialPhoenixWright_4_B2:
// 020   ----------------------------------------
	BYTE	FINE

//**************** Track 5 (Midi-Chn.5) ****************//

TrialPhoenixWright_5:
	BYTE	KEYSH   TrialPhoenixWright_key+0
TrialPhoenixWright_5_B1:
// 000   ----------------------------------------
	BYTE		VOICE   4
	BYTE		VOL     85*TrialPhoenixWright_mvl/mxv
	BYTE		PAN     c_v-1
	BYTE	W96
// 001   ----------------------------------------
	BYTE	W72
	BYTE		N06     Ds4   v112
	BYTE	W06
	BYTE		        Dn4 
	BYTE	W06
	BYTE		        As3 
	BYTE	W06
	BYTE		        Fn3 
	BYTE	W06
// 002   ----------------------------------------
TrialPhoenixWright_5_002:
	BYTE		N06     Cn3   v112
	BYTE	W06
	BYTE		        Gn3 
	BYTE	W06
	BYTE		        Cn4 
	BYTE	W06
	BYTE		        Cn4   v072
	BYTE	W06
	BYTE		        Gn3   v112
	BYTE	W06
	BYTE		        Cn3 
	BYTE	W06
	BYTE		        Dn3 
	BYTE	W06
	BYTE		        An3 
	BYTE	W06
	BYTE		        Dn4 
	BYTE	W06
	BYTE		        Dn4   v088
	BYTE	W06
	BYTE		        Dn4   v072
	BYTE	W06
	BYTE		        Dn4   v088
	BYTE	W06
	BYTE		        Dn4   v072
	BYTE	W06
	BYTE		        Dn4   v052
	BYTE	W06
	BYTE		        Dn4   v072
	BYTE	W06
	BYTE		        Dn4   v052
	BYTE	W06
	BYTE	PEND
// 003   ----------------------------------------
	BYTE		N06   
	BYTE	W96
// 004   ----------------------------------------
	BYTE		        Cn3   v112
	BYTE	W06
	BYTE		        Gn3 
	BYTE	W06
	BYTE		N12     Cn4 
	BYTE	W12
	BYTE		N06     Cn3 
	BYTE	W12
	BYTE		        Dn3 
	BYTE	W06
	BYTE		        An3 
	BYTE	W06
	BYTE		        Dn4 
	BYTE	W06
	BYTE		        Dn4   v088
	BYTE	W06
	BYTE		        Dn4   v072
	BYTE	W06
	BYTE		        Dn4   v088
	BYTE	W06
	BYTE		        Dn4   v072
	BYTE	W06
	BYTE		        Dn4   v052
	BYTE	W06
	BYTE		        Dn4   v072
	BYTE	W06
	BYTE		        Dn4   v052
	BYTE	W06
// 005   ----------------------------------------
	BYTE		        Dn3 
	BYTE	W06
	BYTE		        Dn4 
	BYTE	W06
	BYTE		        Dn3 
	BYTE	W06
	BYTE		        Dn4 
	BYTE	W06
	BYTE		        Dn3   v072
	BYTE	W06
	BYTE		        Dn4 
	BYTE	W06
	BYTE		        Dn3 
	BYTE	W06
	BYTE		        Dn4 
	BYTE	W06
	BYTE		        Dn3   v088
	BYTE	W06
	BYTE		        Dn4 
	BYTE	W06
	BYTE		        Dn3 
	BYTE	W06
	BYTE		        Dn4 
	BYTE	W06
	BYTE		        Dn3   v100
	BYTE	W06
	BYTE		        Dn4 
	BYTE	W06
	BYTE		        Dn3 
	BYTE	W06
	BYTE		        Dn4 
	BYTE	W06
// 006   ----------------------------------------
	BYTE	PATT
	 POIN2	TrialPhoenixWright_5_002
// 007   ----------------------------------------
	BYTE		N06     Dn4   v052
	BYTE	W12
	BYTE		N02     Bn3   v100
	BYTE	W02
	BYTE		N10     Cn4   v112
	BYTE	W10
	BYTE		N06     As3 
	BYTE	W06
	BYTE		        As3   v088
	BYTE	W06
	BYTE		        As3   v072
	BYTE	W06
	BYTE		        As3   v052
	BYTE	W06
	BYTE		        As3   v112
	BYTE	W06
	BYTE		        As3   v088
	BYTE	W06
	BYTE		        As3   v072
	BYTE	W06
	BYTE		        As3   v088
	BYTE	W06
	BYTE		N12     Dn4   v112
	BYTE	W12
	BYTE		N06     Ds4 
	BYTE	W06
	BYTE		        Ds4   v072
	BYTE	W06
// 008   ----------------------------------------
	BYTE		        Cn3   v112
	BYTE	W06
	BYTE		        Ds3 
	BYTE	W06
	BYTE		        Ds4 
	BYTE	W06
	BYTE		        Ds4   v072
	BYTE	W06
	BYTE		        Ds3   v112
	BYTE	W12
	BYTE		        As3 
	BYTE	W06
	BYTE		        Fn4 
	BYTE	W06
	BYTE		        Fn4   v088
	BYTE	W06
	BYTE		        Fn4   v072
	BYTE	W06
	BYTE		        Fn4   v088
	BYTE	W06
	BYTE		        Fn4   v072
	BYTE	W06
	BYTE		        Fn4   v052
	BYTE	W06
	BYTE		        Fn4   v072
	BYTE	W06
	BYTE		        Fn4   v052
	BYTE	W06
	BYTE		N06   
	BYTE	W06
// 009   ----------------------------------------
	BYTE		N06   
	BYTE	W06
	BYTE		        Fn3 
	BYTE	W06
	BYTE		        Fn4 
	BYTE	W06
	BYTE		        Fn3 
	BYTE	W06
	BYTE		        Fn4   v072
	BYTE	W06
	BYTE		        Fn3 
	BYTE	W06
	BYTE		        Fn4 
	BYTE	W06
	BYTE		        Fn3 
	BYTE	W06
	BYTE		        Fn4   v088
	BYTE	W06
	BYTE		        Fn3 
	BYTE	W06
	BYTE		        Fn4 
	BYTE	W06
	BYTE		        Fn3 
	BYTE	W06
	BYTE		        Fn4   v100
	BYTE	W06
	BYTE		        Fn3 
	BYTE	W06
	BYTE		        Fn4   v112
	BYTE	W06
	BYTE		        Fn3 
	BYTE	W06
// 010   ----------------------------------------
	BYTE	PATT
	 POIN2	TrialPhoenixWright_5_002
// 011   ----------------------------------------
	BYTE		N05     Fn3   v112
	BYTE	W06
	BYTE		        Fn3   v088
	BYTE	W06
	BYTE		        Fn3   v072
	BYTE	W06
	BYTE		        Fn3   v088
	BYTE	W06
	BYTE		        Gn3   v112
	BYTE	W06
	BYTE		        Gn3   v088
	BYTE	W06
	BYTE		        Gn3   v072
	BYTE	W06
	BYTE		        Gn3   v088
	BYTE	W06
	BYTE		        As3   v112
	BYTE	W06
	BYTE		        As3   v088
	BYTE	W06
	BYTE		        As3   v072
	BYTE	W06
	BYTE		        As3   v088
	BYTE	W06
	BYTE		        Dn4   v112
	BYTE	W06
	BYTE		        Dn4   v088
	BYTE	W06
	BYTE		        Dn4   v072
	BYTE	W06
	BYTE		        Dn4   v088
	BYTE	W06
// 012   ----------------------------------------
TrialPhoenixWright_5_012:
	BYTE		N05     As3   v088
	BYTE	W06
	BYTE		N05   
	BYTE	W30
	BYTE		N05   
	BYTE	W06
	BYTE		N05   
	BYTE	W42
	BYTE		N84     Dn4 
	BYTE	W12
	BYTE	PEND
// 013   ----------------------------------------
	BYTE	W96
// 014   ----------------------------------------
TrialPhoenixWright_5_014:
	BYTE		N05     As3   v088
	BYTE	W06
	BYTE		N05   
	BYTE	W30
	BYTE		N05   
	BYTE	W06
	BYTE		N05   
	BYTE	W42
	BYTE		N84   
	BYTE	W12
	BYTE	PEND
// 015   ----------------------------------------
	BYTE	W84
	BYTE		N06   
	BYTE	W06
	BYTE		N06   
	BYTE	W06
// 016   ----------------------------------------
	BYTE	PATT
	 POIN2	TrialPhoenixWright_5_012
// 017   ----------------------------------------
	BYTE	W96
// 018   ----------------------------------------
	BYTE	PATT
	 POIN2	TrialPhoenixWright_5_014
// 019   ----------------------------------------
	BYTE	W96
	BYTE	GoTo
	 POIN2	TrialPhoenixWright_5_B1
TrialPhoenixWright_5_B2:
// 020   ----------------------------------------
	BYTE	FINE

//**************** Track 6 (Midi-Chn.6) ****************//

TrialPhoenixWright_6:
	BYTE	KEYSH   TrialPhoenixWright_key+0
TrialPhoenixWright_6_B1:
// 000   ----------------------------------------
	BYTE		VOICE   61
	BYTE		VOL     97*TrialPhoenixWright_mvl/mxv
	BYTE	W96
// 001   ----------------------------------------
	BYTE		PAN     c_v+0
	BYTE	W96
// 002   ----------------------------------------
	BYTE	W96
// 003   ----------------------------------------
	BYTE	W96
// 004   ----------------------------------------
	BYTE	W96
// 005   ----------------------------------------
	BYTE	W96
// 006   ----------------------------------------
	BYTE	W96
// 007   ----------------------------------------
	BYTE	W96
// 008   ----------------------------------------
	BYTE	W96
// 009   ----------------------------------------
	BYTE	W96
// 010   ----------------------------------------
	BYTE	W96
// 011   ----------------------------------------
	BYTE	W96
// 012   ----------------------------------------
TrialPhoenixWright_6_012:
	BYTE		N06     Ds4   v100
	BYTE	W06
	BYTE		N06   
	BYTE	W30
	BYTE		N06   
	BYTE	W06
	BYTE		N06   
	BYTE	W42
	BYTE		N84     Fn4 
	BYTE	W12
	BYTE	PEND
// 013   ----------------------------------------
	BYTE	W96
// 014   ----------------------------------------
TrialPhoenixWright_6_014:
	BYTE		N06     Ds4   v100
	BYTE	W06
	BYTE		N06   
	BYTE	W30
	BYTE		N06   
	BYTE	W06
	BYTE		N06   
	BYTE	W42
	BYTE		N84     Dn4 
	BYTE	W12
	BYTE	PEND
// 015   ----------------------------------------
	BYTE	W84
	BYTE		N06   
	BYTE	W06
	BYTE		N06   
	BYTE	W06
// 016   ----------------------------------------
	BYTE	PATT
	 POIN2	TrialPhoenixWright_6_012
// 017   ----------------------------------------
	BYTE	W96
// 018   ----------------------------------------
	BYTE	PATT
	 POIN2	TrialPhoenixWright_6_014
// 019   ----------------------------------------
	BYTE	W96
	BYTE	GoTo
	 POIN2	TrialPhoenixWright_6_B1
TrialPhoenixWright_6_B2:
// 020   ----------------------------------------
	BYTE	FINE

//**************** Track 7 (Midi-Chn.7) ****************//

TrialPhoenixWright_7:
	BYTE	KEYSH   TrialPhoenixWright_key+0
TrialPhoenixWright_7_B1:
// 000   ----------------------------------------
	BYTE		VOICE   127
	BYTE		VOL     104*TrialPhoenixWright_mvl/mxv
	BYTE		PAN     c_v+0
	BYTE	W24
	BYTE		N24     Fs1   v088
	BYTE	W48
	BYTE		N24   
	BYTE	W24
// 001   ----------------------------------------
TrialPhoenixWright_7_001:
	BYTE	W24
	BYTE		N24     Fs1   v088
	BYTE	W48
	BYTE		N24   
	BYTE	W24
	BYTE	PEND
// 002   ----------------------------------------
	BYTE	PATT
	 POIN2	TrialPhoenixWright_7_001
// 003   ----------------------------------------
	BYTE	W60
	BYTE		N06     Fs1   v088
	BYTE	W06
	BYTE		N06   
	BYTE	W06
	BYTE		N12     As1 
	BYTE	W12
	BYTE		N06     Ds1   v100
	BYTE		N06     Fs1   v088
	BYTE	W06
	BYTE		        Ds1 
	BYTE	W06
// 004   ----------------------------------------
TrialPhoenixWright_7_004:
	BYTE		N24     Cn1   v124
	BYTE	W24
	BYTE		N06     Fs1   v088
	BYTE	W12
	BYTE		N24     Cn1   v124
	BYTE	W36
	BYTE		        Ds1   v100
	BYTE	W24
	BYTE	PEND
// 005   ----------------------------------------
TrialPhoenixWright_7_005:
	BYTE		N24     Cn1   v124
	BYTE	W24
	BYTE		        Ds1   v100
	BYTE	W12
	BYTE		        Cn1   v124
	BYTE	W36
	BYTE		        Ds1   v100
	BYTE	W24
	BYTE	PEND
// 006   ----------------------------------------
	BYTE	PATT
	 POIN2	TrialPhoenixWright_7_004
// 007   ----------------------------------------
	BYTE		N06     Cn1   v124
	BYTE	W06
	BYTE		N12     Cn1   v108
	BYTE	W18
	BYTE		N24     Ds1   v100
	BYTE	W12
	BYTE		N06     Cn1   v124
	BYTE	W06
	BYTE		N12     Cn1   v108
	BYTE	W18
	BYTE		N06     Cn1   v124
	BYTE		N06     Fs1   v088
	BYTE	W06
	BYTE		N24     Cn1   v108
	BYTE		N06     Fs1   v088
	BYTE	W06
	BYTE		N18     Ds1   v100
	BYTE		N12     As1   v088
	BYTE	W12
	BYTE		N06     Fs1 
	BYTE	W06
	BYTE		        Ds1 
	BYTE	W06
// 008   ----------------------------------------
	BYTE	PATT
	 POIN2	TrialPhoenixWright_7_004
// 009   ----------------------------------------
	BYTE	PATT
	 POIN2	TrialPhoenixWright_7_005
// 010   ----------------------------------------
	BYTE	PATT
	 POIN2	TrialPhoenixWright_7_004
// 011   ----------------------------------------
	BYTE		N06     Cn1   v124
	BYTE	W06
	BYTE		N12     Cn1   v108
	BYTE	W18
	BYTE		N24     Ds1   v100
	BYTE	W12
	BYTE		N06     Cn1   v124
	BYTE	W06
	BYTE		N12     Cn1   v108
	BYTE	W18
	BYTE		N06     Cn1   v124
	BYTE	W06
	BYTE		N24     Cn1   v108
	BYTE	W06
	BYTE		N12     Ds1   v100
	BYTE	W12
	BYTE		N06     Ds1   v088
	BYTE	W06
	BYTE		N06   
	BYTE	W06
// 012   ----------------------------------------
	BYTE		        Cn1   v124
	BYTE	W06
	BYTE		N12     Cn1   v108
	BYTE	W18
	BYTE		N24     Dn1   v072
	BYTE	W12
	BYTE		N06     Cn1   v124
	BYTE	W06
	BYTE		N12     Cn1   v108
	BYTE	W18
	BYTE		N24     Cn1   v124
	BYTE	W12
	BYTE		        Dn1   v072
	BYTE	W12
	BYTE		        Cn1   v124
	BYTE	W12
// 013   ----------------------------------------
	BYTE	W24
	BYTE		        Dn1   v072
	BYTE	W36
	BYTE		        Cn1   v124
	BYTE	W12
	BYTE		        Dn1   v072
	BYTE	W24
// 014   ----------------------------------------
TrialPhoenixWright_7_014:
	BYTE		N06     Cn1   v124
	BYTE	W06
	BYTE		N12     Cn1   v108
	BYTE	W18
	BYTE		N24     Dn1   v072
	BYTE	W12
	BYTE		N06     Cn1   v124
	BYTE	W06
	BYTE		N12     Cn1   v108
	BYTE	W18
	BYTE		N06     Cn1   v124
	BYTE	W06
	BYTE		N12     Cn1   v108
	BYTE	W06
	BYTE		N24     Dn1   v072
	BYTE	W12
	BYTE		N12     Cn1   v124
	BYTE	W12
	BYTE	PEND
// 015   ----------------------------------------
	BYTE	W12
	BYTE		N24   
	BYTE	W12
	BYTE		        Dn1   v072
	BYTE	W36
	BYTE		N06     Cn1   v124
	BYTE	W06
	BYTE		N24     Cn1   v108
	BYTE	W06
	BYTE		N12     Dn1   v072
	BYTE	W12
	BYTE		N12   
	BYTE	W12
// 016   ----------------------------------------
	BYTE		N06     Cn1   v124
	BYTE	W06
	BYTE		N12     Cn1   v108
	BYTE	W18
	BYTE		N24     Dn1   v072
	BYTE	W12
	BYTE		N06     Cn1   v124
	BYTE	W06
	BYTE		N12     Cn1   v108
	BYTE	W18
	BYTE		N24     Cn1   v124
	BYTE	W12
	BYTE		        Dn1   v072
	BYTE	W12
	BYTE		N12     Cn1   v124
	BYTE	W12
// 017   ----------------------------------------
	BYTE	W12
	BYTE		N24   
	BYTE	W12
	BYTE		N18     Dn1   v072
	BYTE	W18
	BYTE		N12   
	BYTE	W18
	BYTE		N06     Cn1   v124
	BYTE	W06
	BYTE		N24     Cn1   v108
	BYTE	W06
	BYTE		        Dn1   v072
	BYTE	W24
// 018   ----------------------------------------
	BYTE	PATT
	 POIN2	TrialPhoenixWright_7_014
// 019   ----------------------------------------
	BYTE	W12
	BYTE		N06     Cn1   v124
	BYTE	W06
	BYTE		N24     Cn1   v108
	BYTE	W06
	BYTE		N18     Dn1   v072
	BYTE	W18
	BYTE		N06     Dn1   v052
	BYTE	W18
	BYTE		N24     Cn1   v124
	BYTE	W12
	BYTE		N18     Dn1   v072
	BYTE	W24
	BYTE	GoTo
	 POIN2	TrialPhoenixWright_7_B1
TrialPhoenixWright_7_B2:
// 020   ----------------------------------------
	BYTE	FINE

//******************************************************//
	ALIGN 4

TrialPhoenixWright:
	BYTE	7	// NumTrks
	BYTE	0	// NumBlks
	BYTE	TrialPhoenixWright_pri	// Priority
	BYTE	TrialPhoenixWright_rev	// Reverb.

	POIN2	TrialPhoenixWright_grp

	POIN2	TrialPhoenixWright_1
	POIN2	TrialPhoenixWright_2
	POIN2	TrialPhoenixWright_3
	POIN2	TrialPhoenixWright_4
	POIN2	TrialPhoenixWright_5
	POIN2	TrialPhoenixWright_6
	POIN2	TrialPhoenixWright_7

	
