//Event file generated from Sappy .s format.
	#include "MPlayDef.event"

	#define	TubbaBlubba_grp  voicegroup000
	#define	TubbaBlubba_pri  0
	#define	TubbaBlubba_rev  0
	#define	TubbaBlubba_mvl  70
	#define	TubbaBlubba_key  0
	#define	TubbaBlubba_tbs  1
	#define	TubbaBlubba_exg  0
	#define	TubbaBlubba_cmp  1

	// .rodata
	//	TubbaBlubba
	ALIGN 4

//**************** Track 1 (Midi-Chn.1) ****************//

TubbaBlubba_1:
	BYTE	KEYSH   TubbaBlubba_key+0
// 000   ----------------------------------------
	BYTE	TEMPO   120*TubbaBlubba_tbs/2
	BYTE		VOICE   49
	BYTE	W12
	BYTE		PAN     c_v-27
	BYTE		VOL     88*TubbaBlubba_mvl/mxv
	BYTE		N05     Gn3   v104
	BYTE	W04
	BYTE		N08     An3   v096
	BYTE	W04
	BYTE		N05     Bn3   v104
	BYTE	W04
TubbaBlubba_1_B1:
	BYTE	W01
	BYTE		PAN     c_v-27
	BYTE		VOL     88*TubbaBlubba_mvl/mxv
	BYTE		N05     Cn4   v104
	BYTE	W24
	BYTE		        Ds4   v112
	BYTE	W24
	BYTE		N04     Dn4   v120
	BYTE	W16
	BYTE		N18     Gn3   v108
	BYTE	W07
// 001   ----------------------------------------
	BYTE	W24
	BYTE	W01
	BYTE		N03     Cn4   v112
	BYTE	W12
	BYTE		        Cn4   v124
	BYTE	W12
	BYTE		        Ds4   v127
	BYTE	W12
	BYTE		        Ds4   v108
	BYTE	W12
	BYTE		N04     Dn4   v116
	BYTE	W20
	BYTE		N17     Gn3   v104
	BYTE	W03
// 002   ----------------------------------------
	BYTE	W24
	BYTE	W01
	BYTE		N06     Gn3   v124
	BYTE	W24
	BYTE		        Cn4 
	BYTE	W24
	BYTE		N04     Ds4   v112
	BYTE	W12
	BYTE		N02     Ds4   v100
	BYTE	W04
	BYTE		N17     Dn4 
	BYTE	W07
// 003   ----------------------------------------
	BYTE	W24
	BYTE	W01
	BYTE		N05     Gn4   v092
	BYTE	W12
	BYTE		N04     Fs4   v100
	BYTE	W12
	BYTE		N05     Fn4   v096
	BYTE	W12
	BYTE		N03     En4   v112
	BYTE	W12
	BYTE		N04     Ds4   v092
	BYTE	W16
	BYTE		N17     Dn4   v100
	BYTE	W07
// 004   ----------------------------------------
	BYTE	W24
	BYTE	W01
	BYTE		N04     Cn4   v116
	BYTE	W12
	BYTE		        Dn4   v100
	BYTE	W12
	BYTE		        Ds4   v104
	BYTE	W12
	BYTE		        Cn4   v108
	BYTE	W12
	BYTE		        Fs4 
	BYTE	W12
	BYTE		N03     Fs4   v104
	BYTE	W08
	BYTE		N18     Gn4   v096
	BYTE	W03
// 005   ----------------------------------------
	BYTE	W24
	BYTE	W01
	BYTE		N04     Cn4   v112
	BYTE	W12
	BYTE		        Dn4   v100
	BYTE	W12
	BYTE		        Ds4   v096
	BYTE	W12
	BYTE		        Cn4   v088
	BYTE	W12
	BYTE		        Dn4   v100
	BYTE	W12
	BYTE		N03   
	BYTE	W08
	BYTE		N15     Gn3   v092
	BYTE	W03
// 006   ----------------------------------------
	BYTE	W24
	BYTE	W01
	BYTE		N04     Cn4   v124
	BYTE	W24
	BYTE		        Ds4   v108
	BYTE	W24
	BYTE		N05     Dn4   v120
	BYTE	W20
	BYTE		N24     Fs4   v116
	BYTE	W03
// 007   ----------------------------------------
	BYTE	W24
	BYTE	W01
	BYTE		N04     Gn4   v108
	BYTE	W12
	BYTE		        Gn4   v096
	BYTE	W12
	BYTE		N05     Gn4   v092
	BYTE	W08
	BYTE		N06     An4   v100
	BYTE	W04
	BYTE		N05     Bn4   v104
	BYTE	W12
	BYTE		        Cn5   v124
	BYTE	W23
// 008   ----------------------------------------
	BYTE	W01
	BYTE		N06     Cn4   v127
	BYTE	W23
	BYTE		TIE     Dn2 
	BYTE		N48     An2   v104
	BYTE	W48
	BYTE		        Cn3   v112
	BYTE	W24
// 009   ----------------------------------------
	BYTE	W24
	BYTE		        Bn2   v104
	BYTE	W24
	BYTE	W03
	BYTE		EOT     Dn2 
	BYTE	W21
	BYTE		N48     As2   v096
	BYTE	W24
// 010   ----------------------------------------
	BYTE	W24
	BYTE		N96     An1   v127
	BYTE		N48     An2   v112
	BYTE	W48
	BYTE		        En2   v108
	BYTE	W24
// 011   ----------------------------------------
	BYTE	W24
	BYTE		        Fn2   v112
	BYTE	W48
	BYTE		        Gs2   v104
	BYTE	W24
// 012   ----------------------------------------
	BYTE	W24
	BYTE		N05     An3   v124
	BYTE	W12
	BYTE		N03     En3 
	BYTE	W12
	BYTE		N04     An2   v116
	BYTE	W12
	BYTE		N02     Gs2   v096
	BYTE	W04
	BYTE		N06     An2   v068
	BYTE	W08
	BYTE		N20     Ds2   v120
	BYTE		N19     Fs2   v124
	BYTE		N20     As2   v112
	BYTE	W24
// 013   ----------------------------------------
	BYTE		N07     Dn2   v124
	BYTE		N07     Fn2 
	BYTE		N08     An2 
	BYTE	W24
	BYTE		N05     An3   v116
	BYTE	W12
	BYTE		N03     En3 
	BYTE	W12
	BYTE		N04     An2   v112
	BYTE	W12
	BYTE		        Gs2   v100
	BYTE	W04
	BYTE		N06     An2   v092
	BYTE	W08
	BYTE		N18     Ds2   v116
	BYTE		N18     Fs2   v124
	BYTE		N19     As2   v112
	BYTE	W24
// 014   ----------------------------------------
	BYTE		N07     En2   v127
	BYTE		N07     Gn2 
	BYTE		N07     Bn2 
	BYTE	W24
	BYTE		N04     An3   v120
	BYTE	W12
	BYTE		N03     En3 
	BYTE	W12
	BYTE		N04     An2   v116
	BYTE	W12
	BYTE		N03     Gs2   v108
	BYTE	W08
	BYTE		        An2   v096
	BYTE	W04
	BYTE		N17     Ds2   v120
	BYTE		N17     Fs2   v127
	BYTE		N17     As2   v112
	BYTE	W24
// 015   ----------------------------------------
	BYTE		N05     Dn2   v127
	BYTE		N05     Fn2 
	BYTE		N05     An2 
	BYTE	W24
	BYTE		N78     An1   v120
	BYTE		N04     An2   v116
	BYTE	W12
	BYTE		N05     Cn3   v120
	BYTE	W12
	BYTE		N17     Ds3   v108
	BYTE	W18
	BYTE		N06     En3 
	BYTE	W06
	BYTE		N04     Bn2   v116
	BYTE		N06     Ds3   v096
	BYTE	W06
	BYTE		        Cn3 
	BYTE		N06     En3   v104
	BYTE	W06
	BYTE		        Bn2   v100
	BYTE		N06     Ds3   v092
	BYTE	W06
	BYTE		        Cn3   v104
	BYTE		N06     En3 
	BYTE	W06
// 016   ----------------------------------------
	BYTE	W06
	BYTE		        Gs1   v088
	BYTE	W06
	BYTE		        Gn1   v104
	BYTE	W06
	BYTE		        Fs1   v100
	BYTE	W06
	BYTE		N48     Fn1   v112
	BYTE	W24
	BYTE		N06     Gs2   v120
	BYTE	W06
	BYTE		        An2   v100
	BYTE	W06
	BYTE		        Gs2   v104
	BYTE	W06
	BYTE		        An2   v092
	BYTE	W06
	BYTE		N42     En1   v104
	BYTE		N06     As2   v100
	BYTE	W06
	BYTE		N05     Bn2   v096
	BYTE	W06
	BYTE		N06     As2   v100
	BYTE	W06
	BYTE		        Bn2 
	BYTE	W06
// 017   ----------------------------------------
	BYTE		        Cn3   v116
	BYTE	W06
	BYTE		        Cs3   v084
	BYTE	W06
	BYTE		        Ds3   v104
	BYTE	W06
	BYTE		        En3 
	BYTE	W06
	BYTE	GoTo
	 POIN2	TubbaBlubba_1_B1
TubbaBlubba_1_B2:
	BYTE	FINE

//**************** Track 2 (Midi-Chn.2) ****************//

TubbaBlubba_2:
	BYTE	KEYSH   TubbaBlubba_key+0
// 000   ----------------------------------------
	BYTE		VOICE   51
	BYTE	W12
	BYTE		PAN     c_v-14
	BYTE		VOL     100*TubbaBlubba_mvl/mxv
	BYTE		N03     Gn0   v104
	BYTE		N03     Gn2   v116
	BYTE	W04
	BYTE		        An0   v096
	BYTE		N03     An2   v092
	BYTE	W04
	BYTE		N06     Bn0   v104
	BYTE		N06     Bn2   v096
	BYTE	W04
TubbaBlubba_2_B1:
	BYTE	W02
	BYTE		PAN     c_v-14
	BYTE		VOL     100*TubbaBlubba_mvl/mxv
	BYTE		N05     Cn1   v104
	BYTE		N05     Cn3   v112
	BYTE	W24
	BYTE		        Ds1 
	BYTE		N05     Ds3   v108
	BYTE	W24
	BYTE		        Dn1   v127
	BYTE		N05     Dn3   v120
	BYTE	W16
	BYTE		N18     Gn0   v108
	BYTE		N18     Gn2 
	BYTE	W06
// 001   ----------------------------------------
	BYTE	W24
	BYTE	W02
	BYTE		N05     Cn1   v112
	BYTE		N05     Cn3   v116
	BYTE	W12
	BYTE		        Cn1   v124
	BYTE		N05     Cn3   v116
	BYTE	W12
	BYTE		        Ds1   v127
	BYTE		N05     Ds3   v108
	BYTE	W12
	BYTE		        Ds1 
	BYTE		N05     Ds3   v104
	BYTE	W12
	BYTE		        Dn1   v116
	BYTE		N05     Dn3   v124
	BYTE	W20
	BYTE		N17     Gn0   v104
	BYTE		N18     Gn2   v116
	BYTE	W02
// 002   ----------------------------------------
	BYTE	W24
	BYTE	W02
	BYTE		N06     Gn0   v124
	BYTE		N05     Gn2   v112
	BYTE	W24
	BYTE		N06     Cn1   v124
	BYTE		N08     Cn3   v120
	BYTE	W24
	BYTE		N05     Ds1   v112
	BYTE		N05     Ds3   v120
	BYTE	W12
	BYTE		N04     Ds1   v064
	BYTE		N04     Ds3   v076
	BYTE	W04
	BYTE		N17     Dn1   v100
	BYTE		N14     Dn3   v112
	BYTE	W06
// 003   ----------------------------------------
	BYTE	W24
	BYTE	W02
	BYTE		N05     Gn1   v092
	BYTE		N05     Gn3   v108
	BYTE	W12
	BYTE		        Fs1   v100
	BYTE		N05     Fs3   v104
	BYTE	W12
	BYTE		        Fn1   v096
	BYTE		N05     Fn3   v108
	BYTE	W12
	BYTE		        En1   v112
	BYTE		N05     En3 
	BYTE	W12
	BYTE		        Ds1   v092
	BYTE		N05     Ds3   v100
	BYTE	W16
	BYTE		N17     Dn1 
	BYTE		N19     Dn3   v104
	BYTE	W06
// 004   ----------------------------------------
	BYTE	W24
	BYTE	W02
	BYTE		N05     Cn1   v116
	BYTE		N05     Cn3   v112
	BYTE	W12
	BYTE		        Dn1   v100
	BYTE		N05     Dn3   v112
	BYTE	W12
	BYTE		        Ds1   v100
	BYTE		N06     Ds3   v104
	BYTE	W12
	BYTE		N05     Cn1   v108
	BYTE		N05     Cn3   v116
	BYTE	W12
	BYTE		N01     Fs1   v108
	BYTE		N05     Fs3   v104
	BYTE	W12
	BYTE		        Fs1 
	BYTE		N05     Fs3   v112
	BYTE	W08
	BYTE		N18     Gn1   v096
	BYTE		N18     Gn3   v104
	BYTE	W02
// 005   ----------------------------------------
	BYTE	W24
	BYTE	W02
	BYTE		N05     Cn1   v112
	BYTE		N05     Cn3   v108
	BYTE	W12
	BYTE		        Dn1   v100
	BYTE		N05     Dn3   v112
	BYTE	W12
	BYTE		        Ds1   v096
	BYTE		N06     Ds3 
	BYTE	W12
	BYTE		N05     Cn1   v088
	BYTE		N05     Cn3   v104
	BYTE	W12
	BYTE		        Dn1   v100
	BYTE		N05     Dn3   v112
	BYTE	W12
	BYTE		        Dn1   v100
	BYTE		N05     Dn3   v104
	BYTE	W08
	BYTE		N15     Gn0   v092
	BYTE		N16     Gn2   v088
	BYTE	W02
// 006   ----------------------------------------
	BYTE	W24
	BYTE	W02
	BYTE		N05     Cn1   v124
	BYTE		N05     Cn3   v116
	BYTE	W24
	BYTE		        Ds1   v108
	BYTE		N05     Ds3 
	BYTE	W24
	BYTE		        Dn1   v120
	BYTE		N05     Dn3 
	BYTE	W20
	BYTE		N24     Fs1   v116
	BYTE		N24     Fs3   v100
	BYTE	W02
// 007   ----------------------------------------
	BYTE	W24
	BYTE	W02
	BYTE		N05     Gn1   v108
	BYTE		N05     Gn3   v104
	BYTE	W12
	BYTE		        Gn1   v096
	BYTE		N05     Gn3   v104
	BYTE	W12
	BYTE		        Gn1   v092
	BYTE		N06     Gn3   v104
	BYTE	W08
	BYTE		N05     An1   v100
	BYTE		N05     An3   v092
	BYTE	W04
	BYTE		        Bn1   v104
	BYTE		N06     Bn3   v092
	BYTE	W12
	BYTE		N05     Cn2   v124
	BYTE		N05     Cn4   v108
	BYTE	W22
// 008   ----------------------------------------
	BYTE	W02
	BYTE		N06     Cn1   v127
	BYTE		N06     Cn3   v120
	BYTE	W92
	BYTE	W02
// 009   ----------------------------------------
	BYTE	W96
// 010   ----------------------------------------
	BYTE	W96
// 011   ----------------------------------------
	BYTE	W96
// 012   ----------------------------------------
	BYTE	W96
// 013   ----------------------------------------
	BYTE	W96
// 014   ----------------------------------------
	BYTE	W96
// 015   ----------------------------------------
	BYTE	W96
// 016   ----------------------------------------
	BYTE	W96
// 017   ----------------------------------------
	BYTE	W24
	BYTE	GoTo
	 POIN2	TubbaBlubba_2_B1
TubbaBlubba_2_B2:
	BYTE	FINE

//**************** Track 3 (Midi-Chn.3) ****************//

TubbaBlubba_3:
	BYTE	KEYSH   TubbaBlubba_key+0
// 000   ----------------------------------------
	BYTE		VOICE   70
	BYTE	W12
	BYTE		PAN     c_v+2
	BYTE		VOL     100*TubbaBlubba_mvl/mxv
	BYTE		N05     Bn1   v104
	BYTE	W04
	BYTE		        Cn2   v096
	BYTE	W04
	BYTE		        Dn2   v104
	BYTE	W04
TubbaBlubba_3_B1:
	BYTE	W01
	BYTE		PAN     c_v+2
	BYTE		VOL     100*TubbaBlubba_mvl/mxv
	BYTE		N05     Ds2   v104
	BYTE	W24
	BYTE		        Gn2   v112
	BYTE	W24
	BYTE		N04     Fn2   v127
	BYTE	W16
	BYTE		N18     Bn1   v108
	BYTE	W07
// 001   ----------------------------------------
	BYTE	W24
	BYTE	W01
	BYTE		N03     Ds2   v112
	BYTE	W12
	BYTE		        Ds2   v124
	BYTE	W12
	BYTE		        Gn2   v127
	BYTE	W12
	BYTE		        Gn2   v108
	BYTE	W12
	BYTE		N04     Fn2   v116
	BYTE	W20
	BYTE		N17     Bn1   v104
	BYTE	W03
// 002   ----------------------------------------
	BYTE	W24
	BYTE	W01
	BYTE		N06     Bn1   v124
	BYTE	W24
	BYTE		        Ds2 
	BYTE	W24
	BYTE		N04     Gn2   v112
	BYTE	W12
	BYTE		N02     Gn2   v100
	BYTE	W04
	BYTE		N17     Fs2 
	BYTE	W07
// 003   ----------------------------------------
	BYTE	W24
	BYTE	W01
	BYTE		N05     Bn2   v092
	BYTE	W12
	BYTE		N04     As2   v100
	BYTE	W12
	BYTE		N05     An2   v096
	BYTE	W12
	BYTE		N03     Gs2   v112
	BYTE	W12
	BYTE		N04     Gn2   v092
	BYTE	W16
	BYTE		N17     Fn2   v100
	BYTE	W07
// 004   ----------------------------------------
	BYTE	W24
	BYTE	W01
	BYTE		N04     Ds2   v116
	BYTE	W12
	BYTE		        Fn2   v100
	BYTE	W12
	BYTE		        Gn2 
	BYTE	W12
	BYTE		        Ds2   v108
	BYTE	W12
	BYTE		        An2 
	BYTE	W12
	BYTE		N03     An2   v104
	BYTE	W08
	BYTE		N18     Bn2   v096
	BYTE	W03
// 005   ----------------------------------------
	BYTE	W24
	BYTE	W01
	BYTE		N04     Ds2   v112
	BYTE	W12
	BYTE		        Fn2   v100
	BYTE	W12
	BYTE		        Gn2   v096
	BYTE	W12
	BYTE		        Ds2   v092
	BYTE	W12
	BYTE		        Fn2   v100
	BYTE	W12
	BYTE		N03   
	BYTE	W08
	BYTE		N15     Bn1   v092
	BYTE	W03
// 006   ----------------------------------------
	BYTE	W24
	BYTE	W01
	BYTE		N04     Ds2   v124
	BYTE	W24
	BYTE		        Gn2   v108
	BYTE	W24
	BYTE		N05     Fn2   v120
	BYTE	W20
	BYTE		N24     An2   v116
	BYTE	W03
// 007   ----------------------------------------
	BYTE	W24
	BYTE	W01
	BYTE		N04     Bn2   v108
	BYTE	W12
	BYTE		        Bn2   v096
	BYTE	W12
	BYTE		N05     Bn2   v092
	BYTE	W08
	BYTE		N06     Cn3   v100
	BYTE	W04
	BYTE		N05     Dn3   v104
	BYTE	W12
	BYTE		        Ds3   v124
	BYTE	W23
// 008   ----------------------------------------
	BYTE	W01
	BYTE		N06     Ds2   v127
	BYTE	W92
	BYTE	W03
// 009   ----------------------------------------
	BYTE	W96
// 010   ----------------------------------------
	BYTE	W96
// 011   ----------------------------------------
	BYTE	W96
// 012   ----------------------------------------
	BYTE	W96
// 013   ----------------------------------------
	BYTE	W96
// 014   ----------------------------------------
	BYTE	W96
// 015   ----------------------------------------
	BYTE	W96
// 016   ----------------------------------------
	BYTE	W96
// 017   ----------------------------------------
	BYTE	W24
	BYTE	GoTo
	 POIN2	TubbaBlubba_3_B1
TubbaBlubba_3_B2:
	BYTE	FINE

//**************** Track 4 (Midi-Chn.5) ****************//

TubbaBlubba_4:
	BYTE	KEYSH   TubbaBlubba_key+0
// 000   ----------------------------------------
	BYTE		VOICE   19
	BYTE	W24
TubbaBlubba_4_B1:
	BYTE	W72
// 001   ----------------------------------------
	BYTE	W96
// 002   ----------------------------------------
	BYTE	W96
// 003   ----------------------------------------
	BYTE	W96
// 004   ----------------------------------------
	BYTE	W96
// 005   ----------------------------------------
	BYTE	W96
// 006   ----------------------------------------
	BYTE	W96
// 007   ----------------------------------------
	BYTE	W96
// 008   ----------------------------------------
	BYTE	W24
	BYTE		PAN     c_v+10
	BYTE		VOL     100*TubbaBlubba_mvl/mxv
	BYTE		N11     Dn4   v112
	BYTE	W12
	BYTE		N12     An3 
	BYTE	W12
	BYTE		        Gs3   v100
	BYTE	W12
	BYTE		        An3   v092
	BYTE	W12
	BYTE		        Cn4   v124
	BYTE	W12
	BYTE		        An3   v104
	BYTE	W12
// 009   ----------------------------------------
	BYTE		        Gs3   v108
	BYTE	W12
	BYTE		        An3   v092
	BYTE	W12
	BYTE		        Bn3   v112
	BYTE	W12
	BYTE		        As3   v100
	BYTE	W12
	BYTE		        An3   v104
	BYTE	W12
	BYTE		        As3 
	BYTE	W12
	BYTE		        Bn3   v127
	BYTE	W12
	BYTE		        An3   v096
	BYTE	W12
// 010   ----------------------------------------
	BYTE		        Gs3   v104
	BYTE	W24
	BYTE		N11     An3   v108
	BYTE	W12
	BYTE		N05     En3   v112
	BYTE	W12
	BYTE		        Ds3   v092
	BYTE	W12
	BYTE		N04     En3   v116
	BYTE	W12
	BYTE		N12     Fn3 
	BYTE	W12
	BYTE		N06     En3   v124
	BYTE	W12
// 011   ----------------------------------------
	BYTE		        Ds3   v100
	BYTE	W12
	BYTE		N04     En3   v112
	BYTE	W12
	BYTE		N12     Fn3   v116
	BYTE	W12
	BYTE		        En3   v120
	BYTE	W12
	BYTE		        Gn3   v116
	BYTE	W12
	BYTE		        Fn3   v108
	BYTE	W12
	BYTE		        Gs3   v120
	BYTE	W12
	BYTE		        An3   v104
	BYTE	W12
// 012   ----------------------------------------
	BYTE		        Bn3   v127
	BYTE	W24
	BYTE		N04     An2   v112
	BYTE	W11
	BYTE		N05     An1   v104
	BYTE	W01
	BYTE		N03     En4   v124
	BYTE	W12
	BYTE		N05     An2   v108
	BYTE		N04     An3   v116
	BYTE	W11
	BYTE		        An1   v104
	BYTE	W01
	BYTE		N02     Gs3   v096
	BYTE	W06
	BYTE		        An3 
	BYTE	W06
	BYTE		N04     An2   v104
	BYTE		N17     As3   v120
	BYTE	W11
	BYTE		N05     An1   v096
	BYTE	W13
// 013   ----------------------------------------
	BYTE		        An2   v108
	BYTE		N05     An3   v104
	BYTE	W12
	BYTE		        An1   v092
	BYTE	W12
	BYTE		        An2   v108
	BYTE	W11
	BYTE		        An1   v092
	BYTE	W01
	BYTE		N03     En4   v116
	BYTE	W12
	BYTE		N05     An2   v108
	BYTE		N04     An3   v112
	BYTE	W10
	BYTE		        An1   v084
	BYTE	W02
	BYTE		        Gs3   v100
	BYTE	W06
	BYTE		N05     An3   v092
	BYTE	W06
	BYTE		N04     An2   v112
	BYTE		N23     As3   v120
	BYTE	W10
	BYTE		N05     An1   v100
	BYTE	W14
// 014   ----------------------------------------
	BYTE		N04     An2   v104
	BYTE		N05     Bn3 
	BYTE	W11
	BYTE		N04     An1   v100
	BYTE	W13
	BYTE		N05     An2   v104
	BYTE	W10
	BYTE		        An1   v096
	BYTE	W02
	BYTE		N03     En4   v120
	BYTE	W12
	BYTE		N05     An2   v116
	BYTE		N04     An3 
	BYTE	W10
	BYTE		N05     An1   v108
	BYTE	W02
	BYTE		N03     Gs3 
	BYTE	W06
	BYTE		N06     An3   v096
	BYTE	W06
	BYTE		N04     An2   v100
	BYTE		N22     As3   v127
	BYTE	W11
	BYTE		N05     An1   v096
	BYTE	W13
// 015   ----------------------------------------
	BYTE		        An2   v108
	BYTE		N04     An3 
	BYTE	W10
	BYTE		N05     An1   v096
	BYTE	W14
	BYTE		TIE     An2   v108
	BYTE		N04     An3   v116
	BYTE	W12
	BYTE		N05     Cn4   v120
	BYTE	W12
	BYTE		N17     Ds4   v108
	BYTE	W18
	BYTE		N06     En4 
	BYTE	W06
	BYTE		N04     Bn3   v116
	BYTE		N06     Ds4   v096
	BYTE	W06
	BYTE		        Cn4 
	BYTE		N06     En4   v104
	BYTE	W06
	BYTE		        Bn3   v100
	BYTE		N06     Ds4   v092
	BYTE	W06
	BYTE		        Cn4   v104
	BYTE		N06     En4 
	BYTE	W06
// 016   ----------------------------------------
	BYTE	W24
	BYTE	W02
	BYTE		EOT     An2 
	BYTE	W68
	BYTE	W02
// 017   ----------------------------------------
	BYTE	W24
	BYTE	GoTo
	 POIN2	TubbaBlubba_4_B1
TubbaBlubba_4_B2:
	BYTE	FINE

//**************** Track 5 (Midi-Chn.10) ****************//

TubbaBlubba_5:
	BYTE	KEYSH   TubbaBlubba_key+0
// 000   ----------------------------------------
	BYTE		VOICE   127
	BYTE		PAN     c_v-4
	BYTE		VOL     100*TubbaBlubba_mvl/mxv
	BYTE	W24
TubbaBlubba_5_B1:
	BYTE		N06     Fn1   v112
	BYTE		N06     Ds2 
	BYTE	W12
	BYTE		        Fn1 
	BYTE		N06     Ds2   v100
	BYTE	W08
	BYTE		N04     Ds2   v092
	BYTE	W04
	BYTE		N06     Bn1   v116
	BYTE		N02     Ds2   v088
	BYTE	W12
	BYTE		N06     Bn1   v116
	BYTE		N06     Ds2   v108
	BYTE	W08
	BYTE		N04     Ds2   v096
	BYTE	W04
	BYTE		N06     Fn1   v120
	BYTE		N02     Ds2   v100
	BYTE	W18
	BYTE		N06     Fs1   v127
	BYTE		N12     An2 
	BYTE	W02
	BYTE		N06     Ds2 
	BYTE	W04
// 001   ----------------------------------------
	BYTE	W12
	BYTE		        Ds2   v112
	BYTE	W08
	BYTE		N04     Ds2   v092
	BYTE	W04
	BYTE		N06     Fn1   v116
	BYTE		N02     Ds2   v112
	BYTE	W12
	BYTE		N06     Fn1   v116
	BYTE		N06     Ds2   v100
	BYTE	W08
	BYTE		N04     Ds2   v092
	BYTE	W04
	BYTE		N06     Bn1   v116
	BYTE		N02     Ds2   v088
	BYTE	W12
	BYTE		N06     Bn1   v116
	BYTE		N06     Ds2   v108
	BYTE	W08
	BYTE		N04     Ds2   v096
	BYTE	W04
	BYTE		N06     Fn1   v116
	BYTE		N02     Ds2   v100
	BYTE	W18
	BYTE		N06     Fs1   v112
	BYTE		N12     An2 
	BYTE	W02
	BYTE		N06     Ds2   v127
	BYTE	W04
// 002   ----------------------------------------
	BYTE	W12
	BYTE		        Ds2   v112
	BYTE	W08
	BYTE		N04     Ds2   v092
	BYTE	W04
	BYTE		N06     Fn1   v120
	BYTE		N02     Ds2   v112
	BYTE	W12
	BYTE		N06     Fn1   v120
	BYTE		N06     Ds2   v100
	BYTE	W08
	BYTE		N04     Ds2   v092
	BYTE	W04
	BYTE		N06     Bn1   v116
	BYTE		N02     Ds2   v088
	BYTE	W12
	BYTE		N06     Bn1   v112
	BYTE		N06     Ds2   v108
	BYTE	W08
	BYTE		N04     Ds2   v096
	BYTE	W04
	BYTE		N06     Fn1   v116
	BYTE		N02     Ds2   v100
	BYTE	W18
	BYTE		N06     Fs1   v112
	BYTE		N12     An2   v120
	BYTE	W02
	BYTE		N06     Ds2   v127
	BYTE	W04
// 003   ----------------------------------------
	BYTE	W12
	BYTE		        Ds2   v112
	BYTE	W08
	BYTE		N04     Ds2   v092
	BYTE	W04
	BYTE		N06     Fn1   v116
	BYTE		N02     Ds2   v112
	BYTE	W12
	BYTE		N06     Fn1   v116
	BYTE		N06     Ds2   v100
	BYTE	W08
	BYTE		N04     Ds2   v092
	BYTE	W04
	BYTE		N06     Bn1   v116
	BYTE		N02     Ds2   v088
	BYTE	W12
	BYTE		N06     Bn1   v108
	BYTE		N06     Ds2 
	BYTE	W08
	BYTE		N04     Ds2   v096
	BYTE	W04
	BYTE		N06     Fn1   v120
	BYTE		N02     Ds2   v100
	BYTE	W18
	BYTE		N06     Fs1   v116
	BYTE		N12     An2   v120
	BYTE	W02
	BYTE		N06     Ds2   v127
	BYTE	W04
// 004   ----------------------------------------
	BYTE	W12
	BYTE		        Ds2   v112
	BYTE	W08
	BYTE		N04     Ds2   v092
	BYTE	W04
	BYTE		N06     Fn1   v112
	BYTE		N02     Ds2 
	BYTE	W12
	BYTE		N06     Fn1   v120
	BYTE		N06     Ds2   v100
	BYTE	W08
	BYTE		N04     Ds2   v092
	BYTE	W04
	BYTE		N06     Bn1   v116
	BYTE		N02     Ds2   v088
	BYTE	W12
	BYTE		N06     Bn1   v116
	BYTE		N06     Ds2   v108
	BYTE	W08
	BYTE		N04     Ds2   v096
	BYTE	W04
	BYTE		N06     Fn1   v116
	BYTE		N02     Ds2   v100
	BYTE	W18
	BYTE		N06     Fs1   v116
	BYTE		N12     An2   v112
	BYTE	W02
	BYTE		N06     Ds2   v127
	BYTE	W04
// 005   ----------------------------------------
	BYTE	W12
	BYTE		        Ds2   v112
	BYTE	W08
	BYTE		N04     Ds2   v092
	BYTE	W04
	BYTE		N06     Fn1   v116
	BYTE		N02     Ds2   v112
	BYTE	W12
	BYTE		N06     Fn1 
	BYTE		N06     Ds2   v100
	BYTE	W08
	BYTE		N04     Ds2   v092
	BYTE	W04
	BYTE		N06     Bn1   v108
	BYTE		N02     Ds2   v088
	BYTE	W12
	BYTE		N06     Bn1   v108
	BYTE		N06     Ds2 
	BYTE	W08
	BYTE		N04     Ds2   v096
	BYTE	W04
	BYTE		N06     Fn1   v112
	BYTE		N02     Ds2   v100
	BYTE	W18
	BYTE		N06     Fs1   v108
	BYTE		N12     An2   v112
	BYTE	W02
	BYTE		N06     Ds2   v127
	BYTE	W04
// 006   ----------------------------------------
	BYTE	W12
	BYTE		        Ds2   v112
	BYTE	W08
	BYTE		N04     Ds2   v092
	BYTE	W04
	BYTE		N06     Fn1   v112
	BYTE		N02     Ds2 
	BYTE	W12
	BYTE		N06     Fn1 
	BYTE		N06     Ds2   v100
	BYTE	W08
	BYTE		N04     Ds2   v092
	BYTE	W04
	BYTE		N06     Bn1   v116
	BYTE		N02     Ds2   v088
	BYTE	W12
	BYTE		N06     Bn1   v116
	BYTE		N06     Ds2   v108
	BYTE	W08
	BYTE		N04     Ds2   v096
	BYTE	W04
	BYTE		N06     Fn1   v120
	BYTE		N02     Ds2   v100
	BYTE	W18
	BYTE		N06     Fs1   v127
	BYTE		N12     An2 
	BYTE	W02
	BYTE		N06     Ds2 
	BYTE	W04
// 007   ----------------------------------------
	BYTE	W12
	BYTE		        Ds2   v112
	BYTE	W08
	BYTE		N04     Ds2   v092
	BYTE	W04
	BYTE		N06     Fn1   v116
	BYTE		N02     Ds2   v112
	BYTE	W12
	BYTE		N06     Fn1   v116
	BYTE		N06     Ds2   v100
	BYTE	W08
	BYTE		N04     Ds2   v092
	BYTE	W04
	BYTE		N06     Bn1   v116
	BYTE		N02     Ds2   v088
	BYTE	W12
	BYTE		N06     Bn1   v116
	BYTE		N06     Ds2   v108
	BYTE	W08
	BYTE		N04     Ds2   v096
	BYTE	W04
	BYTE		N06     Fn1   v116
	BYTE		N02     Ds2   v100
	BYTE	W24
// 008   ----------------------------------------
	BYTE		N06     Fs1   v112
	BYTE		N06     Ds2   v127
	BYTE		N12     An2   v112
	BYTE	W12
	BYTE		N06     Fn1   v100
	BYTE		N06     Ds2   v112
	BYTE	W12
	BYTE		PAN     c_v+10
	BYTE		VOL     100*TubbaBlubba_mvl/mxv
	BYTE		N06     Bn1   v108
	BYTE		N06     Ds2   v096
	BYTE		N06     An2   v108
	BYTE	W12
	BYTE		        Fn1 
	BYTE		N06     Ds2   v084
	BYTE	W08
	BYTE		N04   
	BYTE	W04
	BYTE		N06     Bn1   v100
	BYTE		N02     Ds2   v068
	BYTE	W12
	BYTE		N06     Fn1   v104
	BYTE		N06     Ds2   v084
	BYTE	W08
	BYTE		N04     Ds2   v076
	BYTE	W04
	BYTE		N06     Bn1   v100
	BYTE		N02     Ds2   v064
	BYTE	W12
	BYTE		N06     Fn1   v104
	BYTE		N06     Ds2   v092
	BYTE	W08
	BYTE		N04     Ds2   v084
	BYTE	W04
// 009   ----------------------------------------
	BYTE		N06     Bn1   v088
	BYTE		N02     Ds2   v068
	BYTE	W12
	BYTE		N06     Fn1   v104
	BYTE		N06     Ds2   v084
	BYTE	W12
	BYTE		        Bn1   v100
	BYTE		N06     Ds2   v068
	BYTE		N06     An2   v112
	BYTE	W12
	BYTE		        Fn1   v100
	BYTE		N06     Ds2 
	BYTE	W08
	BYTE		N04     Ds2   v084
	BYTE	W04
	BYTE		N06     Bn1   v096
	BYTE		N02     Ds2   v064
	BYTE	W12
	BYTE		N06     Fn1   v100
	BYTE		N06     Ds2   v096
	BYTE	W08
	BYTE		N04     Ds2   v072
	BYTE	W04
	BYTE		N06     Bn1   v100
	BYTE		N02     Ds2   v072
	BYTE	W12
	BYTE		N06     Fn1   v100
	BYTE		N06     Ds2   v092
	BYTE	W08
	BYTE		        Ds2   v108
	BYTE	W04
// 010   ----------------------------------------
	BYTE		        Fn1   v104
	BYTE	W12
	BYTE		        Ds2   v096
	BYTE	W06
	BYTE		        Fn1   v084
	BYTE	W02
	BYTE		N04     Ds2   v076
	BYTE	W04
	BYTE		N06     Bn1   v100
	BYTE		N02     Ds2   v076
	BYTE		N06     An2   v104
	BYTE	W12
	BYTE		        Fn1 
	BYTE		N06     Ds2   v088
	BYTE	W12
	BYTE		        Bn1   v096
	BYTE		N06     Ds2   v084
	BYTE	W12
	BYTE		        Fn1   v104
	BYTE		N06     Ds2   v092
	BYTE	W08
	BYTE		N04     Ds2   v076
	BYTE	W04
	BYTE		N06     Bn1   v100
	BYTE		N02     Ds2   v076
	BYTE	W12
	BYTE		N06     Fn1 
	BYTE		N06     Ds2   v096
	BYTE	W12
// 011   ----------------------------------------
	BYTE		        Bn1   v072
	BYTE		N06     Ds2   v080
	BYTE	W12
	BYTE		        Fn1   v100
	BYTE		N06     Ds2   v088
	BYTE	W08
	BYTE		N04   
	BYTE	W04
	BYTE		N06     Bn1   v104
	BYTE		N02     Ds2   v076
	BYTE		N06     An2   v112
	BYTE	W12
	BYTE		        Fn1   v104
	BYTE		N06     Ds2   v096
	BYTE	W12
	BYTE		        Bn1   v100
	BYTE		N06     Ds2   v088
	BYTE	W12
	BYTE		        Fn1   v108
	BYTE		N06     Ds2   v092
	BYTE	W08
	BYTE		N04     Ds2   v084
	BYTE	W04
	BYTE		N06     Bn1   v100
	BYTE		N02     Ds2   v072
	BYTE	W12
	BYTE		N06     Fn1   v116
	BYTE		N06     Ds2   v096
	BYTE	W12
// 012   ----------------------------------------
	BYTE		        Ds2   v092
	BYTE	W06
	BYTE		        Fn1   v096
	BYTE	W06
	BYTE		        Fn1   v100
	BYTE		N06     Ds2   v092
	BYTE	W08
	BYTE		N04     Ds2   v080
	BYTE	W04
	BYTE		N02   
	BYTE		N06     An2   v076
	BYTE	W12
	BYTE		        Ds2   v088
	BYTE	W12
	BYTE		        Ds2   v092
	BYTE	W12
	BYTE		        Ds2   v088
	BYTE	W08
	BYTE		N04     Ds2   v084
	BYTE	W04
	BYTE		N02     Ds2   v068
	BYTE	W12
	BYTE		N06     Ds2   v096
	BYTE	W08
	BYTE		N04     Ds2   v092
	BYTE	W04
// 013   ----------------------------------------
	BYTE		N02     Ds2   v096
	BYTE	W12
	BYTE		N06     Ds2   v076
	BYTE	W12
	BYTE		        Ds2   v100
	BYTE		N06     An2   v112
	BYTE	W12
	BYTE		        Ds2   v088
	BYTE	W12
	BYTE		        Ds2   v092
	BYTE	W12
	BYTE		        Ds2   v084
	BYTE	W12
	BYTE		        Ds2   v076
	BYTE	W12
	BYTE		        Ds2   v088
	BYTE	W08
	BYTE		        Ds2   v096
	BYTE	W04
// 014   ----------------------------------------
	BYTE	W08
	BYTE		        Ds2   v092
	BYTE	W08
	BYTE		N04     Ds2   v084
	BYTE	W04
	BYTE		N02     Ds2   v080
	BYTE	W04
	BYTE		        Ds2   v100
	BYTE		N06     An2   v108
	BYTE	W12
	BYTE		        Ds2   v104
	BYTE	W12
	BYTE		        Ds2   v096
	BYTE	W12
	BYTE		        Ds2   v084
	BYTE	W08
	BYTE		N04     Ds2   v072
	BYTE	W04
	BYTE		N02     Ds2   v100
	BYTE	W12
	BYTE		N06     Ds2   v096
	BYTE	W12
// 015   ----------------------------------------
	BYTE		        Ds2   v100
	BYTE	W12
	BYTE		        Ds2   v088
	BYTE	W08
	BYTE		        Ds2   v064
	BYTE	W04
	BYTE		        An2   v104
	BYTE	W48
	BYTE		        An2   v092
	BYTE	W24
// 016   ----------------------------------------
	BYTE	W24
	BYTE		        An2   v100
	BYTE	W72
// 017   ----------------------------------------
	BYTE	W24
	BYTE	GoTo
	 POIN2	TubbaBlubba_5_B1
TubbaBlubba_5_B2:
	BYTE	FINE

//******************************************************//
	ALIGN 4

TubbaBlubba:
	BYTE	5	// NumTrks
	BYTE	0	// NumBlks
	BYTE	TubbaBlubba_pri	// Priority
	BYTE	TubbaBlubba_rev	// Reverb.

	POIN2	TubbaBlubba_grp

	POIN2	TubbaBlubba_1
	POIN2	TubbaBlubba_2
	POIN2	TubbaBlubba_3
	POIN2	TubbaBlubba_4
	POIN2	TubbaBlubba_5

	
