//Event file generated from Sappy .s format.
	#include "MPlayDef.event"

	#define	AbandonedChurch_grp  voicegroup000
	#define	AbandonedChurch_pri  0
	#define	AbandonedChurch_rev  0
	#define	AbandonedChurch_mvl  95
	#define	AbandonedChurch_key  0
	#define	AbandonedChurch_tbs  1
	#define	AbandonedChurch_exg  0
	#define	AbandonedChurch_cmp  1

	// .rodata
	//	AbandonedChurch
	ALIGN 4

//**************** Track 1 (Midi-Chn.1) ****************//

AbandonedChurch_1:
	BYTE	KEYSH   AbandonedChurch_key+0
// 000   ----------------------------------------
	BYTE	TEMPO   155*AbandonedChurch_tbs/2
	BYTE		VOICE   41
	BYTE		PAN     c_v-26
	BYTE		VOL     51*AbandonedChurch_mvl/mxv
	BYTE	W12
AbandonedChurch_1_B1:
	BYTE		N12     Fs3   v100
	BYTE	W12
	BYTE		        Fs3   v056
	BYTE	W12
	BYTE		        Fn3   v100
	BYTE	W12
	BYTE		        Fn3   v056
	BYTE	W12
	BYTE		        Ds3   v100
	BYTE	W12
	BYTE		        Ds3   v056
	BYTE	W12
	BYTE		        Fn3   v100
	BYTE	W12
// 001   ----------------------------------------
	BYTE		        Fn3   v056
	BYTE	W12
	BYTE		        Cs3   v100
	BYTE	W12
	BYTE		        Cs3   v056
	BYTE	W12
	BYTE		        Fn3   v100
	BYTE	W12
	BYTE		        Fn3   v056
	BYTE	W12
	BYTE		        Cn3   v100
	BYTE	W12
	BYTE		        Cn3   v056
	BYTE	W12
	BYTE		        Ds3   v100
	BYTE	W12
// 002   ----------------------------------------
	BYTE		        Ds3   v056
	BYTE	W12
	BYTE		        Fs3   v100
	BYTE	W12
	BYTE		        Fs3   v056
	BYTE	W12
	BYTE		        Fn3   v100
	BYTE	W12
	BYTE		        Fn3   v056
	BYTE	W12
	BYTE		        Ds3   v100
	BYTE	W12
	BYTE		        Ds3   v056
	BYTE	W12
	BYTE		        Fn3   v100
	BYTE	W12
// 003   ----------------------------------------
	BYTE		        Fn3   v056
	BYTE	W12
	BYTE		        Cs3   v100
	BYTE	W12
	BYTE		        Cs3   v056
	BYTE	W12
	BYTE		        Fn3   v100
	BYTE	W12
	BYTE		        Fn3   v056
	BYTE	W12
	BYTE		        As3   v100
	BYTE	W12
	BYTE		        As3   v056
	BYTE	W12
	BYTE		        An3   v100
	BYTE	W12
// 004   ----------------------------------------
	BYTE		        An3   v056
	BYTE	W12
	BYTE		N06     As3   v100
	BYTE	W06
	BYTE		        An3 
	BYTE	W06
	BYTE		        As3 
	BYTE	W06
	BYTE		        Cn4 
	BYTE	W06
	BYTE		        Cs4 
	BYTE	W06
	BYTE		        Cn4 
	BYTE	W06
	BYTE		        Cs4 
	BYTE	W06
	BYTE		        Ds4 
	BYTE	W06
	BYTE		N24     Fn4 
	BYTE	W24
	BYTE		        Cs4 
	BYTE		N12     Fn4   v056
	BYTE	W12
// 005   ----------------------------------------
	BYTE	W12
	BYTE		        Cs4 
	BYTE		N24     Fn4   v100
	BYTE	W24
	BYTE		N06     Ds4 
	BYTE		N12     Fn4   v056
	BYTE	W06
	BYTE		        Ds4 
	BYTE	W06
	BYTE		N06     Fn4   v100
	BYTE	W06
	BYTE		N12     Fn4   v056
	BYTE	W06
	BYTE		        Fs4   v100
	BYTE	W12
	BYTE		N06     Fn4 
	BYTE		N12     Fs4   v056
	BYTE	W06
	BYTE		        Fn4 
	BYTE	W06
	BYTE		        Ds4   v100
	BYTE	W12
// 006   ----------------------------------------
	BYTE		        Cn4 
	BYTE		N12     Ds4   v056
	BYTE	W12
	BYTE		N06     As3   v100
	BYTE		N12     Cn4   v056
	BYTE	W06
	BYTE		N06     An3   v100
	BYTE	W06
	BYTE		        As3 
	BYTE	W06
	BYTE		        Cn4 
	BYTE	W06
	BYTE		        Cs4 
	BYTE	W06
	BYTE		        Cn4 
	BYTE	W06
	BYTE		        Cs4 
	BYTE	W06
	BYTE		        Ds4 
	BYTE	W06
	BYTE		N24     Fn4 
	BYTE	W24
	BYTE		        Cs4 
	BYTE		N12     Fn4   v056
	BYTE	W12
// 007   ----------------------------------------
	BYTE	W12
	BYTE		        Cs4 
	BYTE		N24     Fn4   v100
	BYTE	W24
	BYTE		N06     Ds4 
	BYTE		N12     Fn4   v056
	BYTE	W06
	BYTE		        Ds4 
	BYTE	W06
	BYTE		N06     Fn4   v100
	BYTE	W06
	BYTE		N12     Fn4   v056
	BYTE	W06
	BYTE		        An4   v100
	BYTE	W12
	BYTE		N06     Fn4 
	BYTE		N12     An4   v056
	BYTE	W06
	BYTE		        Fn4 
	BYTE	W06
	BYTE		        As4   v100
	BYTE	W12
// 008   ----------------------------------------
	BYTE		        Fn4 
	BYTE		N12     As4   v056
	BYTE	W12
	BYTE		N36     As3   v100
	BYTE	W36
	BYTE		N06     An3 
	BYTE		N06     As3   v056
	BYTE	W06
	BYTE		N12     An3 
	BYTE		N06     As3   v100
	BYTE	W06
	BYTE		N12     As3   v056
	BYTE		N24     Cn4   v100
	BYTE	W24
	BYTE		        An3 
	BYTE		N12     Cn4   v056
	BYTE	W12
// 009   ----------------------------------------
	BYTE	W12
	BYTE		        An3 
	BYTE		N12     As3   v100
	BYTE	W12
	BYTE		        As3   v056
	BYTE	W06
	BYTE		N06     Cn4   v100
	BYTE	W06
	BYTE		N12     Cn4   v056
	BYTE		N48     Cs4   v100
	BYTE	W48
	BYTE		N12     As3 
	BYTE		N12     Cs4   v056
	BYTE	W12
// 010   ----------------------------------------
	BYTE		        As3 
	BYTE		N06     Dn4   v100
	BYTE	W06
	BYTE		N12     Dn4   v056
	BYTE	W06
	BYTE		N48     Ds4   v100
	BYTE	W48
	BYTE		N12     Ds4   v056
	BYTE		N24     Fs4   v100
	BYTE	W24
	BYTE		N24   
	BYTE	W12
// 011   ----------------------------------------
	BYTE	W12
	BYTE		N36     Fn4 
	BYTE	W36
	BYTE		N06     Cn4 
	BYTE		N12     Fn4   v056
	BYTE	W06
	BYTE		N06     Cn4 
	BYTE	W06
	BYTE		N48     Fn4   v100
	BYTE	W36
// 012   ----------------------------------------
	BYTE	W12
	BYTE		N12     Fn4   v056
	BYTE	W24
	BYTE		N06     Fn4   v100
	BYTE	W06
	BYTE		        Fn4   v056
	BYTE		N06     Fs4   v100
	BYTE	W06
	BYTE		        Fn4 
	BYTE		N06     Fs4   v056
	BYTE	W06
	BYTE		        Ds4   v100
	BYTE		N06     Fn4   v056
	BYTE	W06
	BYTE		        Cs4   v100
	BYTE		N06     Ds4   v056
	BYTE	W06
	BYTE		        Cs4 
	BYTE		N06     Ds4   v100
	BYTE	W06
	BYTE		        Cs4 
	BYTE		N06     Ds4   v056
	BYTE	W06
	BYTE		        Cn4   v100
	BYTE		N06     Cs4   v056
	BYTE	W06
	BYTE		        As3   v100
	BYTE		N06     Cn4   v056
	BYTE	W06
	BYTE		        As3 
	BYTE		N06     Cn4   v100
	BYTE	W06
// 013   ----------------------------------------
	BYTE		        As3 
	BYTE		N06     Cn4   v056
	BYTE	W06
	BYTE		        Fn3   v100
	BYTE		N06     As3   v056
	BYTE	W06
	BYTE		        Fn3 
	BYTE		N12     As3   v100
	BYTE	W12
	BYTE		        As3   v056
	BYTE		N06     Cn4   v100
	BYTE	W06
	BYTE		N12     Cn4   v056
	BYTE	W06
	BYTE		        Cs4   v100
	BYTE	W12
	BYTE		        Cs4   v056
	BYTE		N12     Ds4   v100
	BYTE	W12
	BYTE		        Ds4   v056
	BYTE		N24     Fn4   v100
	BYTE	W24
	BYTE		        As3 
	BYTE		N12     Fn4   v056
	BYTE	W12
// 014   ----------------------------------------
	BYTE	W12
	BYTE		        As3 
	BYTE		N36     Ds4   v100
	BYTE	W36
	BYTE		N06     Cs4 
	BYTE		N12     Ds4   v056
	BYTE	W06
	BYTE		N06     Cn4   v100
	BYTE		N12     Cs4   v056
	BYTE	W06
	BYTE		N24     As3   v100
	BYTE		N12     Cn4   v056
	BYTE	W24
	BYTE		N24     An3   v100
	BYTE		N12     As3   v056
	BYTE	W12
// 015   ----------------------------------------
	BYTE	W12
	BYTE		        An3 
	BYTE		N12     Bn3   v100
	BYTE	W12
	BYTE		        Bn3   v056
	BYTE		N06     Cs4   v100
	BYTE	W06
	BYTE		N12     Cs4   v056
	BYTE	W06
	BYTE		        Ds4   v100
	BYTE	W12
	BYTE		        Ds4   v056
	BYTE		N12     Gs4   v100
	BYTE	W12
	BYTE		N24   
	BYTE	W24
	BYTE		        Ds4 
	BYTE		N12     Gs4   v056
	BYTE	W12
// 016   ----------------------------------------
	BYTE	W12
	BYTE		        Ds4 
	BYTE		N36     En4   v100
	BYTE	W36
	BYTE		N06     Ds4 
	BYTE		N12     En4   v056
	BYTE	W06
	BYTE		        Ds4 
	BYTE		N06     Fn4   v100
	BYTE	W06
	BYTE		N12     Fn4   v056
	BYTE		N48     Gn4   v100
	BYTE	W36
// 017   ----------------------------------------
	BYTE	W12
	BYTE		N12     Gn4   v056
	BYTE	W84
// 018   ----------------------------------------
	BYTE	W96
// 019   ----------------------------------------
	BYTE	W96
// 020   ----------------------------------------
	BYTE	W96
// 021   ----------------------------------------
	BYTE	W12
	BYTE		        Ds4   v100
	BYTE	W12
	BYTE		        Ds4   v056
	BYTE		N06     Fn4   v100
	BYTE	W06
	BYTE		N12     Fn4   v056
	BYTE	W06
	BYTE		        Fs4   v100
	BYTE	W12
	BYTE		        Fs4   v056
	BYTE		N12     Gs4   v100
	BYTE	W12
	BYTE		        Gs4   v056
	BYTE		N24     As4   v100
	BYTE	W24
	BYTE		        Ds4 
	BYTE		N12     As4   v056
	BYTE	W12
// 022   ----------------------------------------
	BYTE	W12
	BYTE		        Ds4 
	BYTE		N36     Gs4   v100
	BYTE	W36
	BYTE		N06     Fs4 
	BYTE		N12     Gs4   v056
	BYTE	W06
	BYTE		N06     Fn4   v100
	BYTE		N12     Fs4   v056
	BYTE	W06
	BYTE		N24     Ds4   v100
	BYTE		N12     Fn4   v056
	BYTE	W24
	BYTE		N24     Dn4   v100
	BYTE		N12     Ds4   v056
	BYTE	W12
// 023   ----------------------------------------
	BYTE	W12
	BYTE		        Dn4 
	BYTE		N12     En4   v100
	BYTE	W12
	BYTE		        En4   v056
	BYTE		N06     Fs4   v100
	BYTE	W06
	BYTE		N12     Fs4   v056
	BYTE	W06
	BYTE		        Gs4   v100
	BYTE	W12
	BYTE		        Gs4   v056
	BYTE		N12     Cs5   v100
	BYTE	W12
	BYTE		N24   
	BYTE	W24
	BYTE		        Gs4 
	BYTE		N12     Cs5   v056
	BYTE	W12
// 024   ----------------------------------------
	BYTE	W12
	BYTE		        Gs4 
	BYTE		N36     An4   v100
	BYTE	W36
	BYTE		N06     Gs4 
	BYTE		N12     An4   v056
	BYTE	W06
	BYTE		        Gs4 
	BYTE		N06     As4   v100
	BYTE	W06
	BYTE		N18     Cn5 
	BYTE	W18
	BYTE		N12     Cn5   v056
	BYTE		N18     Cs5   v100
	BYTE	W18
// 025   ----------------------------------------
	BYTE		N12     Cs5   v056
	BYTE		N12     Ds5   v100
	BYTE	W12
	BYTE		N06     En5 
	BYTE	W06
	BYTE		        Ds5 
	BYTE	W06
	BYTE		N84     Cs5 
	BYTE	W72
// 026   ----------------------------------------
	BYTE	W12
	BYTE		N12     Cs5   v056
	BYTE		N36     Ds5   v100
	BYTE	W36
	BYTE		        Bn4 
	BYTE		N12     Ds5   v056
	BYTE	W36
	BYTE		N24     Fs4   v100
	BYTE		N12     Bn4   v056
	BYTE	W12
// 027   ----------------------------------------
	BYTE	W12
	BYTE		        Fs3   v100
	BYTE		N12     Fs4   v056
	BYTE		N96     Gs4   v100
	BYTE	W12
	BYTE		N12     Fs3   v056
	BYTE	W12
	BYTE		        En3   v100
	BYTE	W12
	BYTE		        En3   v056
	BYTE	W12
	BYTE		        Ds3   v100
	BYTE	W12
	BYTE		        Ds3   v056
	BYTE	W12
	BYTE		        En3   v100
	BYTE	W12
// 028   ----------------------------------------
	BYTE		        En3   v056
	BYTE	W12
	BYTE		        Cs3   v100
	BYTE		N12     Gs4   v056
	BYTE	W12
	BYTE		        Cs3 
	BYTE	W12
	BYTE		        En3   v100
	BYTE	W12
	BYTE		        En3   v056
	BYTE	W12
	BYTE		        Cn3   v100
	BYTE	W12
	BYTE		        Cn3   v056
	BYTE	W12
	BYTE		        Ds3   v100
	BYTE	W12
// 029   ----------------------------------------
	BYTE		        Ds3   v056
	BYTE	W12
	BYTE		        Fs3   v100
	BYTE	W12
	BYTE		        Fs3   v056
	BYTE	W12
	BYTE		        En3   v100
	BYTE	W12
	BYTE		        En3   v056
	BYTE	W12
	BYTE		        Ds3   v100
	BYTE	W12
	BYTE		        Ds3   v056
	BYTE	W12
	BYTE		        En3   v100
	BYTE	W12
// 030   ----------------------------------------
	BYTE		        En3   v056
	BYTE	W12
	BYTE		        Cs3   v100
	BYTE	W12
	BYTE		        Cs3   v056
	BYTE	W12
	BYTE		        En3   v100
	BYTE	W12
	BYTE		        En3   v056
	BYTE	W12
	BYTE		        Cs3   v100
	BYTE	W12
	BYTE		        Cs3   v056
	BYTE	W12
	BYTE		        Cn3   v100
	BYTE	W12
// 031   ----------------------------------------
	BYTE		        Cn3   v056
	BYTE	W12
	BYTE	GoTo
	 POIN2	AbandonedChurch_1_B1
AbandonedChurch_1_B2:
	BYTE	FINE

//**************** Track 2 (Midi-Chn.2) ****************//

AbandonedChurch_2:
	BYTE	KEYSH   AbandonedChurch_key+0
// 000   ----------------------------------------
	BYTE		VOICE   40
	BYTE		PAN     c_v+24
	BYTE		VOL     51*AbandonedChurch_mvl/mxv
	BYTE	W12
AbandonedChurch_2_B1:
	BYTE		N12     Ds3   v100
	BYTE	W12
	BYTE		        Ds3   v056
	BYTE	W12
	BYTE		        Cs3   v100
	BYTE	W12
	BYTE		        Cs3   v056
	BYTE	W12
	BYTE		        Cn3   v100
	BYTE	W12
	BYTE		        Cn3   v056
	BYTE	W12
	BYTE		        Cs3   v100
	BYTE	W12
// 001   ----------------------------------------
AbandonedChurch_2_001:
	BYTE		N12     Cs3   v056
	BYTE	W12
	BYTE		        As2   v100
	BYTE	W12
	BYTE		        As2   v056
	BYTE	W12
	BYTE		        Cs3   v100
	BYTE	W12
	BYTE		        Cs3   v056
	BYTE	W12
	BYTE		        An2   v100
	BYTE	W12
	BYTE		        An2   v056
	BYTE	W12
	BYTE		        Cn3   v100
	BYTE	W12
	BYTE	PEND
// 002   ----------------------------------------
	BYTE		        Cn3   v056
	BYTE	W12
	BYTE		        Ds3   v100
	BYTE	W12
	BYTE		        Ds3   v056
	BYTE	W12
	BYTE		        Cs3   v100
	BYTE	W12
	BYTE		        Cs3   v056
	BYTE	W12
	BYTE		        Cn3   v100
	BYTE	W12
	BYTE		        Cn3   v056
	BYTE	W12
	BYTE		        Cs3   v100
	BYTE	W12
// 003   ----------------------------------------
	BYTE	PATT
	 POIN2	AbandonedChurch_2_001
// 004   ----------------------------------------
	BYTE		N12     Cn3   v056
	BYTE	W96
// 005   ----------------------------------------
	BYTE	W96
// 006   ----------------------------------------
	BYTE	W96
// 007   ----------------------------------------
	BYTE	W96
// 008   ----------------------------------------
	BYTE	W12
	BYTE		        Cs3   v100
	BYTE	W12
	BYTE		        Cs3   v056
	BYTE	W12
	BYTE		        Cn3   v100
	BYTE	W12
	BYTE		        Cn3   v056
	BYTE	W12
	BYTE		        Cs3   v100
	BYTE	W12
	BYTE		        Cs3   v056
	BYTE	W12
	BYTE		        As2   v100
	BYTE	W12
// 009   ----------------------------------------
	BYTE		        As2   v056
	BYTE	W12
	BYTE		        Cs3   v100
	BYTE	W12
	BYTE		        Cs3   v056
	BYTE	W12
	BYTE		        Cn3   v100
	BYTE	W12
	BYTE		        Cn3   v056
	BYTE	W12
	BYTE		        Cs3   v100
	BYTE	W12
	BYTE		        Cs3   v056
	BYTE	W12
	BYTE		        Fn3   v100
	BYTE	W12
// 010   ----------------------------------------
	BYTE		        Fn3   v056
	BYTE	W12
	BYTE		        Ds3   v100
	BYTE	W12
	BYTE		        Ds3   v056
	BYTE	W12
	BYTE		        Bn2   v100
	BYTE	W12
	BYTE		        Bn2   v056
	BYTE	W12
	BYTE		        Ds3   v100
	BYTE	W12
	BYTE		        Ds3   v056
	BYTE	W12
	BYTE		        Fs3   v100
	BYTE	W12
// 011   ----------------------------------------
	BYTE		        Fs3   v056
	BYTE	W12
	BYTE		        Cn3   v100
	BYTE	W12
	BYTE		        Cn3   v056
	BYTE	W12
	BYTE		        As2   v100
	BYTE	W12
	BYTE		        As2   v056
	BYTE		N12     Cn3   v100
	BYTE	W12
	BYTE		        Cn3   v056
	BYTE		N12     Fn3   v100
	BYTE	W12
	BYTE		        Cn3 
	BYTE		N12     Fn3   v056
	BYTE	W12
	BYTE		        An2   v100
	BYTE		N12     Cn3   v056
	BYTE	W12
// 012   ----------------------------------------
	BYTE		        Fn2   v100
	BYTE		N12     An2   v056
	BYTE	W12
	BYTE		        Fn2 
	BYTE	W24
	BYTE		N06     Fn3   v100
	BYTE	W06
	BYTE		        Fn3   v056
	BYTE		N06     Fs3   v100
	BYTE	W06
	BYTE		        Fn3 
	BYTE		N06     Fs3   v056
	BYTE	W06
	BYTE		        Ds3   v100
	BYTE		N06     Fn3   v056
	BYTE	W06
	BYTE		        Cs3   v100
	BYTE		N06     Ds3   v056
	BYTE	W06
	BYTE		        Cs3 
	BYTE		N06     Ds3   v100
	BYTE	W06
	BYTE		        Cs3 
	BYTE		N06     Ds3   v056
	BYTE	W06
	BYTE		        Cn3   v100
	BYTE		N06     Cs3   v056
	BYTE	W06
	BYTE		        As2   v100
	BYTE		N06     Cn3   v056
	BYTE	W06
	BYTE		        As2 
	BYTE		N06     Cn3   v100
	BYTE	W06
// 013   ----------------------------------------
	BYTE		        As2 
	BYTE		N06     Cn3   v056
	BYTE	W06
	BYTE		        Fn2   v100
	BYTE		N06     As2   v056
	BYTE	W06
	BYTE		        Fn2 
	BYTE	W84
// 014   ----------------------------------------
	BYTE	W96
// 015   ----------------------------------------
	BYTE	W96
// 016   ----------------------------------------
	BYTE	W96
// 017   ----------------------------------------
	BYTE	W96
// 018   ----------------------------------------
	BYTE	W96
// 019   ----------------------------------------
	BYTE	W96
// 020   ----------------------------------------
	BYTE	W96
// 021   ----------------------------------------
	BYTE	W96
// 022   ----------------------------------------
	BYTE	W96
// 023   ----------------------------------------
	BYTE	W96
// 024   ----------------------------------------
	BYTE	W96
// 025   ----------------------------------------
	BYTE	W96
// 026   ----------------------------------------
	BYTE	W96
// 027   ----------------------------------------
	BYTE	W96
// 028   ----------------------------------------
	BYTE	W96
// 029   ----------------------------------------
	BYTE	W96
// 030   ----------------------------------------
	BYTE	W96
// 031   ----------------------------------------
	BYTE	W12
	BYTE	GoTo
	 POIN2	AbandonedChurch_2_B1
AbandonedChurch_2_B2:
	BYTE	FINE

//**************** Track 3 (Midi-Chn.3) ****************//

AbandonedChurch_3:
	BYTE	KEYSH   AbandonedChurch_key+0
// 000   ----------------------------------------
	BYTE		VOICE   41
	BYTE		PAN     c_v+24
	BYTE		VOL     51*AbandonedChurch_mvl/mxv
	BYTE	W12
AbandonedChurch_3_B1:
	BYTE	W12
	BYTE		N12     As2   v100
	BYTE	W24
	BYTE		N12   
	BYTE	W24
	BYTE		N12   
	BYTE	W24
// 001   ----------------------------------------
AbandonedChurch_3_001:
	BYTE		N12     As2   v100
	BYTE	W24
	BYTE		N12   
	BYTE	W24
	BYTE		N12   
	BYTE	W24
	BYTE		        An2 
	BYTE	W24
	BYTE	PEND
// 002   ----------------------------------------
	BYTE		N12   
	BYTE	W24
	BYTE		        As2 
	BYTE	W24
	BYTE		N12   
	BYTE	W24
	BYTE		N12   
	BYTE	W24
// 003   ----------------------------------------
	BYTE	PATT
	 POIN2	AbandonedChurch_3_001
// 004   ----------------------------------------
	BYTE		N12     An2   v100
	BYTE	W12
	BYTE		N06     Fn3 
	BYTE	W06
	BYTE		        Cs3 
	BYTE	W06
	BYTE		        Fn3 
	BYTE	W06
	BYTE		        As3 
	BYTE	W06
	BYTE		N06   
	BYTE	W06
	BYTE		        Fn3 
	BYTE	W06
	BYTE		        As3 
	BYTE	W06
	BYTE		        Cn4 
	BYTE	W06
	BYTE		N24     Cs4 
	BYTE	W24
	BYTE		        As3 
	BYTE		N12     Cs4   v056
	BYTE	W12
// 005   ----------------------------------------
	BYTE	W12
	BYTE		        As3 
	BYTE		N24     Cn4   v100
	BYTE	W24
	BYTE		N06   
	BYTE	W06
	BYTE		        Cn4   v056
	BYTE	W06
	BYTE		        Cn4   v100
	BYTE	W06
	BYTE		        Cn4   v056
	BYTE	W06
	BYTE		N12     Cn4   v100
	BYTE	W12
	BYTE		N06     As3 
	BYTE		N06     Cn4   v056
	BYTE	W06
	BYTE		N12     As3 
	BYTE	W06
	BYTE		        Fn3   v100
	BYTE	W12
// 006   ----------------------------------------
	BYTE		        As2 
	BYTE		N12     Fn3   v056
	BYTE	W12
	BYTE		        As2 
	BYTE		N06     Fn3   v100
	BYTE	W06
	BYTE		        Cs3 
	BYTE	W06
	BYTE		        Fn3 
	BYTE	W06
	BYTE		        As3 
	BYTE	W06
	BYTE		N06   
	BYTE	W06
	BYTE		        Fn3 
	BYTE	W06
	BYTE		        As3 
	BYTE	W06
	BYTE		        Cn4 
	BYTE	W06
	BYTE		N24     Cs4 
	BYTE	W24
	BYTE		        As3 
	BYTE		N12     Cs4   v056
	BYTE	W12
// 007   ----------------------------------------
	BYTE	W12
	BYTE		        As3 
	BYTE		N24     Cn4   v100
	BYTE	W24
	BYTE		N06   
	BYTE	W06
	BYTE		        Cn4   v056
	BYTE	W06
	BYTE		        Cn4   v100
	BYTE	W06
	BYTE		        Cn4   v056
	BYTE	W06
	BYTE		N12     Fn4   v100
	BYTE	W12
	BYTE		N06     Cn4 
	BYTE		N06     Fn4   v056
	BYTE	W06
	BYTE		N12     Cn4 
	BYTE	W06
	BYTE		        Fn4   v100
	BYTE	W12
// 008   ----------------------------------------
	BYTE		        Cn4 
	BYTE		N12     Fn4   v056
	BYTE	W12
	BYTE		        Cn4 
	BYTE	W12
	BYTE		        Fn2   v127
	BYTE	W24
	BYTE		N12   
	BYTE	W24
	BYTE		N12   
	BYTE	W24
// 009   ----------------------------------------
	BYTE		N12   
	BYTE	W24
	BYTE		N12   
	BYTE	W24
	BYTE		N12   
	BYTE	W24
	BYTE		N12   
	BYTE	W24
// 010   ----------------------------------------
	BYTE		N12   
	BYTE	W24
	BYTE		        Fs2 
	BYTE	W24
	BYTE		N12   
	BYTE	W24
	BYTE		N12   
	BYTE	W24
// 011   ----------------------------------------
	BYTE		N12   
	BYTE	W24
	BYTE		        An2 
	BYTE	W24
	BYTE		N12   
	BYTE	W24
	BYTE		N12   
	BYTE	W24
// 012   ----------------------------------------
	BYTE		N12   
	BYTE	W96
// 013   ----------------------------------------
	BYTE	W60
	BYTE		N24     As2   v100
	BYTE	W24
	BYTE		        Cn3 
	BYTE	W12
// 014   ----------------------------------------
	BYTE	W12
	BYTE		N48     As2 
	BYTE	W84
// 015   ----------------------------------------
	BYTE	W12
	BYTE		        Gs2 
	BYTE	W48
	BYTE		N24     Fs2 
	BYTE	W24
	BYTE		        Bn2 
	BYTE	W12
// 016   ----------------------------------------
	BYTE	W12
	BYTE		        En2 
	BYTE	W24
	BYTE		        Gs2 
	BYTE	W24
	BYTE		        Ds2 
	BYTE	W24
	BYTE		        Gn2 
	BYTE	W12
// 017   ----------------------------------------
	BYTE	W96
// 018   ----------------------------------------
	BYTE	W96
// 019   ----------------------------------------
	BYTE	W96
// 020   ----------------------------------------
	BYTE	W96
// 021   ----------------------------------------
	BYTE	W12
	BYTE		N12     Ds3 
	BYTE	W12
	BYTE		        Ds3   v056
	BYTE		N06     Fn3   v100
	BYTE	W06
	BYTE		N12     Fn3   v056
	BYTE	W06
	BYTE		        Fs3   v100
	BYTE	W12
	BYTE		        Fs3   v056
	BYTE		N12     Gs3   v100
	BYTE	W12
	BYTE		        Gs3   v056
	BYTE		N24     As3   v100
	BYTE	W24
	BYTE		        Ds3 
	BYTE		N12     As3   v056
	BYTE	W12
// 022   ----------------------------------------
	BYTE	W12
	BYTE		        Ds3 
	BYTE		N36     Gs3   v100
	BYTE	W36
	BYTE		N06     Fs3 
	BYTE		N12     Gs3   v056
	BYTE	W06
	BYTE		N06     Fn3   v100
	BYTE		N12     Fs3   v056
	BYTE	W06
	BYTE		N24     Ds3   v100
	BYTE		N12     Fn3   v056
	BYTE	W24
	BYTE		N24     Dn3   v100
	BYTE		N12     Ds3   v056
	BYTE	W12
// 023   ----------------------------------------
	BYTE	W12
	BYTE		        Dn3 
	BYTE		N12     En3   v100
	BYTE	W12
	BYTE		        En3   v056
	BYTE		N06     Fs3   v100
	BYTE	W06
	BYTE		N12     Fs3   v056
	BYTE	W06
	BYTE		        Gs3   v100
	BYTE	W12
	BYTE		        Gs3   v056
	BYTE		N12     Cs4   v100
	BYTE	W12
	BYTE		N24   
	BYTE	W24
	BYTE		        Gs3 
	BYTE		N12     Cs4   v056
	BYTE	W12
// 024   ----------------------------------------
	BYTE	W12
	BYTE		        Gs3 
	BYTE		N36     An3   v100
	BYTE	W36
	BYTE		N06     Gs3 
	BYTE		N12     An3   v056
	BYTE	W06
	BYTE		        Gs3 
	BYTE		N06     As3   v100
	BYTE	W06
	BYTE		N12     As3   v056
	BYTE		N18     Cn4   v100
	BYTE	W18
	BYTE		N12     Cn4   v056
	BYTE		N18     Cs4   v100
	BYTE	W18
// 025   ----------------------------------------
	BYTE		N12     Cs4   v056
	BYTE		N12     Ds4   v100
	BYTE	W12
	BYTE		N06     En4 
	BYTE	W06
	BYTE		        Ds4 
	BYTE	W06
	BYTE		N84     Cs4 
	BYTE	W72
// 026   ----------------------------------------
	BYTE	W12
	BYTE		N12     Cs4   v056
	BYTE		N36     Ds4   v100
	BYTE	W36
	BYTE		        Bn3 
	BYTE		N12     Ds4   v056
	BYTE	W36
	BYTE		N24     Fs3   v100
	BYTE		N12     Bn3   v056
	BYTE	W12
// 027   ----------------------------------------
	BYTE	W12
	BYTE		        An2   v100
	BYTE		N96     Gs3 
	BYTE	W12
	BYTE		N12     An2   v056
	BYTE	W12
	BYTE		        Gs2   v100
	BYTE	W12
	BYTE		        Gs2   v056
	BYTE	W12
	BYTE		        Gn2   v100
	BYTE	W12
	BYTE		        Gn2   v056
	BYTE	W12
	BYTE		        Gs2   v100
	BYTE	W12
// 028   ----------------------------------------
	BYTE		        Gs2   v056
	BYTE	W12
	BYTE		        En2   v100
	BYTE		N12     Gs3   v056
	BYTE	W12
	BYTE		        En2 
	BYTE	W12
	BYTE		        Gs2   v100
	BYTE	W12
	BYTE		        Gs2   v056
	BYTE	W12
	BYTE		        Ds2   v100
	BYTE	W12
	BYTE		        Ds2   v056
	BYTE	W12
	BYTE		        Fs2   v100
	BYTE	W12
// 029   ----------------------------------------
	BYTE		        Fs2   v056
	BYTE	W12
	BYTE		        An2   v100
	BYTE	W12
	BYTE		        An2   v056
	BYTE	W12
	BYTE		        Gs2   v100
	BYTE	W12
	BYTE		        Gs2   v056
	BYTE	W12
	BYTE		        Gn2   v100
	BYTE	W12
	BYTE		        Gn2   v056
	BYTE	W12
	BYTE		        Gs2   v100
	BYTE	W12
// 030   ----------------------------------------
	BYTE		        Gs2   v056
	BYTE	W12
	BYTE		        En2   v100
	BYTE	W12
	BYTE		        En2   v056
	BYTE	W12
	BYTE		        Gs2   v100
	BYTE	W12
	BYTE		        Gs2   v056
	BYTE	W12
	BYTE		        Cs3   v100
	BYTE	W12
	BYTE		        Cs3   v056
	BYTE	W12
	BYTE		        Cn3   v100
	BYTE	W12
// 031   ----------------------------------------
	BYTE		        Cn3   v056
	BYTE	W12
	BYTE	GoTo
	 POIN2	AbandonedChurch_3_B1
AbandonedChurch_3_B2:
	BYTE	FINE

//**************** Track 4 (Midi-Chn.4) ****************//

AbandonedChurch_4:
	BYTE	KEYSH   AbandonedChurch_key+0
// 000   ----------------------------------------
	BYTE		VOICE   14
	BYTE		VOL     45*AbandonedChurch_mvl/mxv
	BYTE	W12
AbandonedChurch_4_B1:
	BYTE		N96     As2   v100
	BYTE		N96     As3 
	BYTE	W84
// 001   ----------------------------------------
AbandonedChurch_4_001:
	BYTE	W12
	BYTE		N96     As2   v100
	BYTE		N96     As3 
	BYTE	W84
	BYTE	PEND
// 002   ----------------------------------------
	BYTE	PATT
	 POIN2	AbandonedChurch_4_001
// 003   ----------------------------------------
	BYTE	PATT
	 POIN2	AbandonedChurch_4_001
// 004   ----------------------------------------
	BYTE	W96
// 005   ----------------------------------------
	BYTE	W96
// 006   ----------------------------------------
	BYTE	W96
// 007   ----------------------------------------
	BYTE	W96
// 008   ----------------------------------------
	BYTE	W96
// 009   ----------------------------------------
	BYTE	W96
// 010   ----------------------------------------
	BYTE	W96
// 011   ----------------------------------------
	BYTE	W96
// 012   ----------------------------------------
	BYTE	W96
// 013   ----------------------------------------
	BYTE	W60
	BYTE		N96     Fn2   v100
	BYTE		N96     Fn3 
	BYTE	W36
// 014   ----------------------------------------
	BYTE	W96
// 015   ----------------------------------------
	BYTE	W96
// 016   ----------------------------------------
	BYTE	W96
// 017   ----------------------------------------
	BYTE	W12
	BYTE		        Dn2 
	BYTE		N96     Dn3 
	BYTE	W84
// 018   ----------------------------------------
	BYTE	W12
	BYTE		        Ds2 
	BYTE		N96     Ds3 
	BYTE	W84
// 019   ----------------------------------------
	BYTE	W12
	BYTE		        Fn2 
	BYTE		N96     Fn3 
	BYTE	W84
// 020   ----------------------------------------
	BYTE	W96
// 021   ----------------------------------------
	BYTE	W96
// 022   ----------------------------------------
	BYTE	W96
// 023   ----------------------------------------
	BYTE	W96
// 024   ----------------------------------------
	BYTE	W96
// 025   ----------------------------------------
	BYTE	W96
// 026   ----------------------------------------
	BYTE	W96
// 027   ----------------------------------------
	BYTE	W96
// 028   ----------------------------------------
	BYTE	W96
// 029   ----------------------------------------
	BYTE	W96
// 030   ----------------------------------------
	BYTE	W96
// 031   ----------------------------------------
	BYTE	W12
	BYTE	GoTo
	 POIN2	AbandonedChurch_4_B1
AbandonedChurch_4_B2:
	BYTE	FINE

//**************** Track 5 (Midi-Chn.5) ****************//

AbandonedChurch_5:
	BYTE	KEYSH   AbandonedChurch_key+0
// 000   ----------------------------------------
	BYTE		VOICE   52
	BYTE		PAN     c_v-26
	BYTE		VOL     51*AbandonedChurch_mvl/mxv
	BYTE	W12
AbandonedChurch_5_B1:
	BYTE		N48     As2   v100
	BYTE	W48
	BYTE		N12     As2   v056
	BYTE		N48     Cn3   v100
	BYTE	W36
// 001   ----------------------------------------
	BYTE	W12
	BYTE		N12     Cn3   v056
	BYTE		N48     Cs3   v100
	BYTE	W48
	BYTE		        An2 
	BYTE		N12     Cs3   v056
	BYTE	W36
// 002   ----------------------------------------
	BYTE	W12
	BYTE		        An2 
	BYTE		N48     As2   v100
	BYTE	W48
	BYTE		N12     As2   v056
	BYTE		N48     Cn3   v100
	BYTE	W36
// 003   ----------------------------------------
	BYTE	W12
	BYTE		N12     Cn3   v056
	BYTE		N48     Cs3   v100
	BYTE	W48
	BYTE		        Cn3 
	BYTE		N12     Cs3   v056
	BYTE	W36
// 004   ----------------------------------------
	BYTE	W12
	BYTE		        Cn3 
	BYTE		N96     Cs3   v100
	BYTE	W84
// 005   ----------------------------------------
AbandonedChurch_5_005:
	BYTE	W12
	BYTE		N96     Cn3   v100
	BYTE		N12     Cs3   v056
	BYTE	W84
	BYTE	PEND
// 006   ----------------------------------------
	BYTE	W12
	BYTE		N96     Cs3   v100
	BYTE	W84
// 007   ----------------------------------------
	BYTE	PATT
	 POIN2	AbandonedChurch_5_005
// 008   ----------------------------------------
	BYTE	W12
	BYTE		N12     Cn3   v056
	BYTE	W84
// 009   ----------------------------------------
	BYTE	W96
// 010   ----------------------------------------
	BYTE	W96
// 011   ----------------------------------------
	BYTE	W96
// 012   ----------------------------------------
	BYTE	W96
// 013   ----------------------------------------
	BYTE	W96
// 014   ----------------------------------------
	BYTE	W96
// 015   ----------------------------------------
	BYTE	W96
// 016   ----------------------------------------
	BYTE	W96
// 017   ----------------------------------------
	BYTE	W12
	BYTE		N96     Fn2   v100
	BYTE	W84
// 018   ----------------------------------------
	BYTE	W12
	BYTE		        Gn2 
	BYTE	W84
// 019   ----------------------------------------
	BYTE	W12
	BYTE		        Fn2 
	BYTE	W84
// 020   ----------------------------------------
	BYTE	W12
	BYTE		        As2 
	BYTE	W84
// 021   ----------------------------------------
	BYTE	W96
// 022   ----------------------------------------
	BYTE	W96
// 023   ----------------------------------------
	BYTE	W96
// 024   ----------------------------------------
	BYTE	W96
// 025   ----------------------------------------
	BYTE	W96
// 026   ----------------------------------------
	BYTE	W96
// 027   ----------------------------------------
	BYTE	W96
// 028   ----------------------------------------
	BYTE	W96
// 029   ----------------------------------------
	BYTE	W96
// 030   ----------------------------------------
	BYTE	W96
// 031   ----------------------------------------
	BYTE	W12
	BYTE	GoTo
	 POIN2	AbandonedChurch_5_B1
AbandonedChurch_5_B2:
	BYTE	FINE

//**************** Track 6 (Midi-Chn.6) ****************//

AbandonedChurch_6:
	BYTE	KEYSH   AbandonedChurch_key+0
// 000   ----------------------------------------
	BYTE		VOICE   52
	BYTE		PAN     c_v+24
	BYTE		VOL     44*AbandonedChurch_mvl/mxv
	BYTE	W12
AbandonedChurch_6_B1:
	BYTE		N48     Cs3   v100
	BYTE	W48
	BYTE		        Ds3 
	BYTE	W36
// 001   ----------------------------------------
	BYTE	W12
	BYTE		        Fn3 
	BYTE	W48
	BYTE		        Cn3 
	BYTE	W36
// 002   ----------------------------------------
	BYTE	W12
	BYTE		        Cs3 
	BYTE	W48
	BYTE		        Ds3 
	BYTE	W36
// 003   ----------------------------------------
	BYTE	W12
	BYTE		        Fn3 
	BYTE	W48
	BYTE		        An3 
	BYTE	W36
// 004   ----------------------------------------
	BYTE	W12
	BYTE		N96     Fn3 
	BYTE	W84
// 005   ----------------------------------------
	BYTE	W12
	BYTE		N96   
	BYTE	W84
// 006   ----------------------------------------
	BYTE	W12
	BYTE		N96   
	BYTE	W84
// 007   ----------------------------------------
	BYTE	W12
	BYTE		N96   
	BYTE	W84
// 008   ----------------------------------------
	BYTE	W12
	BYTE		TIE   
	BYTE	W84
// 009   ----------------------------------------
	BYTE	W60
	BYTE		EOT   
	BYTE		N48     As2 
	BYTE	W36
// 010   ----------------------------------------
	BYTE	W12
	BYTE		        Bn2 
	BYTE	W48
	BYTE		        Ds3 
	BYTE	W36
// 011   ----------------------------------------
	BYTE	W12
	BYTE		        Bn2 
	BYTE	W48
	BYTE		        Fn3 
	BYTE	W36
// 012   ----------------------------------------
	BYTE	W96
// 013   ----------------------------------------
	BYTE	W96
// 014   ----------------------------------------
	BYTE	W96
// 015   ----------------------------------------
	BYTE	W96
// 016   ----------------------------------------
	BYTE	W96
// 017   ----------------------------------------
	BYTE	W12
	BYTE		N96     Dn3 
	BYTE	W84
// 018   ----------------------------------------
	BYTE	W12
	BYTE		        Ds3 
	BYTE	W84
// 019   ----------------------------------------
	BYTE	W12
	BYTE		        Dn3 
	BYTE	W84
// 020   ----------------------------------------
	BYTE	W12
	BYTE		N96   
	BYTE	W84
// 021   ----------------------------------------
	BYTE	W96
// 022   ----------------------------------------
	BYTE	W96
// 023   ----------------------------------------
	BYTE	W96
// 024   ----------------------------------------
	BYTE	W96
// 025   ----------------------------------------
	BYTE	W96
// 026   ----------------------------------------
	BYTE	W96
// 027   ----------------------------------------
	BYTE	W96
// 028   ----------------------------------------
	BYTE	W96
// 029   ----------------------------------------
	BYTE	W96
// 030   ----------------------------------------
	BYTE	W96
// 031   ----------------------------------------
	BYTE	W12
	BYTE	GoTo
	 POIN2	AbandonedChurch_6_B1
AbandonedChurch_6_B2:
	BYTE	FINE

//**************** Track 7 (Midi-Chn.7) ****************//

AbandonedChurch_7:
	BYTE	KEYSH   AbandonedChurch_key+0
// 000   ----------------------------------------
	BYTE		VOICE   33
	BYTE		VOL     51*AbandonedChurch_mvl/mxv
	BYTE	W12
AbandonedChurch_7_B1:
	BYTE		N12     As1   v127
	BYTE	W12
	BYTE		N12   
	BYTE	W12
	BYTE		N12   
	BYTE	W12
	BYTE		N12   
	BYTE	W12
	BYTE		N12   
	BYTE	W12
	BYTE		        As2 
	BYTE	W12
	BYTE		        Fn2 
	BYTE	W12
// 001   ----------------------------------------
AbandonedChurch_7_001:
	BYTE		N12     As1   v127
	BYTE	W12
	BYTE		N12   
	BYTE	W12
	BYTE		N12   
	BYTE	W12
	BYTE		N12   
	BYTE	W12
	BYTE		N12   
	BYTE	W12
	BYTE		N12   
	BYTE	W12
	BYTE		        An1 
	BYTE	W12
	BYTE		        As1 
	BYTE	W12
	BYTE	PEND
// 002   ----------------------------------------
AbandonedChurch_7_002:
	BYTE		N12     Cn2   v127
	BYTE	W12
	BYTE		        As1 
	BYTE	W12
	BYTE		N12   
	BYTE	W12
	BYTE		N12   
	BYTE	W12
	BYTE		N12   
	BYTE	W12
	BYTE		N12   
	BYTE	W12
	BYTE		        As2 
	BYTE	W12
	BYTE		        Fn2 
	BYTE	W12
	BYTE	PEND
// 003   ----------------------------------------
	BYTE	PATT
	 POIN2	AbandonedChurch_7_001
// 004   ----------------------------------------
	BYTE	PATT
	 POIN2	AbandonedChurch_7_002
// 005   ----------------------------------------
	BYTE	PATT
	 POIN2	AbandonedChurch_7_001
// 006   ----------------------------------------
	BYTE	PATT
	 POIN2	AbandonedChurch_7_002
// 007   ----------------------------------------
	BYTE	PATT
	 POIN2	AbandonedChurch_7_001
// 008   ----------------------------------------
	BYTE	PATT
	 POIN2	AbandonedChurch_7_002
// 009   ----------------------------------------
	BYTE		N12     As1   v127
	BYTE	W12
	BYTE		N12   
	BYTE	W12
	BYTE		N12   
	BYTE	W12
	BYTE		N12   
	BYTE	W12
	BYTE		N12   
	BYTE	W12
	BYTE		N12   
	BYTE	W12
	BYTE		N12   
	BYTE	W12
	BYTE		        Ds2 
	BYTE	W12
// 010   ----------------------------------------
	BYTE		        Fn2 
	BYTE	W12
	BYTE		        Bn1 
	BYTE	W12
	BYTE		N12   
	BYTE	W12
	BYTE		N12   
	BYTE	W12
	BYTE		N12   
	BYTE	W12
	BYTE		N12   
	BYTE	W12
	BYTE		N12   
	BYTE	W12
	BYTE		N12   
	BYTE	W12
// 011   ----------------------------------------
	BYTE		N12   
	BYTE	W12
	BYTE		        Fn1 
	BYTE	W12
	BYTE		N12   
	BYTE	W12
	BYTE		N12   
	BYTE	W12
	BYTE		N12   
	BYTE	W12
	BYTE		N12   
	BYTE	W12
	BYTE		N12   
	BYTE	W12
	BYTE		N12   
	BYTE	W12
// 012   ----------------------------------------
	BYTE		N12   
	BYTE	W96
// 013   ----------------------------------------
	BYTE	W12
	BYTE		        As1 
	BYTE	W12
	BYTE		N12   
	BYTE	W12
	BYTE		N12   
	BYTE	W12
	BYTE		N12   
	BYTE	W12
	BYTE		        Gs1 
	BYTE	W12
	BYTE		N12   
	BYTE	W12
	BYTE		N12   
	BYTE	W12
// 014   ----------------------------------------
	BYTE		N12   
	BYTE	W12
	BYTE		        Fs1 
	BYTE	W12
	BYTE		N12   
	BYTE	W12
	BYTE		N12   
	BYTE	W12
	BYTE		N12   
	BYTE	W12
	BYTE		        Fn1 
	BYTE	W12
	BYTE		N12   
	BYTE	W12
	BYTE		N12   
	BYTE	W12
// 015   ----------------------------------------
	BYTE		N12   
	BYTE	W12
	BYTE		        Gs1 
	BYTE	W12
	BYTE		N12   
	BYTE	W12
	BYTE		N12   
	BYTE	W12
	BYTE		N12   
	BYTE	W12
	BYTE		        Fs1 
	BYTE	W12
	BYTE		N12   
	BYTE	W12
	BYTE		N12   
	BYTE	W12
// 016   ----------------------------------------
	BYTE		N12   
	BYTE	W12
	BYTE		        En1 
	BYTE	W12
	BYTE		N12   
	BYTE	W12
	BYTE		N12   
	BYTE	W12
	BYTE		N12   
	BYTE	W12
	BYTE		        Ds1 
	BYTE	W12
	BYTE		N12   
	BYTE	W12
	BYTE		N12   
	BYTE	W12
// 017   ----------------------------------------
	BYTE		N12   
	BYTE	W12
	BYTE		        Dn1 
	BYTE	W12
	BYTE		N12   
	BYTE	W12
	BYTE		N12   
	BYTE	W12
	BYTE		N12   
	BYTE	W12
	BYTE		N12   
	BYTE	W12
	BYTE		N12   
	BYTE	W12
	BYTE		N12   
	BYTE	W12
// 018   ----------------------------------------
	BYTE		N12   
	BYTE	W12
	BYTE		        Ds1 
	BYTE	W12
	BYTE		N12   
	BYTE	W12
	BYTE		N12   
	BYTE	W12
	BYTE		N12   
	BYTE	W12
	BYTE		N12   
	BYTE	W12
	BYTE		N12   
	BYTE	W12
	BYTE		N12   
	BYTE	W12
// 019   ----------------------------------------
	BYTE		N12   
	BYTE	W12
	BYTE		        Fn1 
	BYTE	W12
	BYTE		N12   
	BYTE	W12
	BYTE		N12   
	BYTE	W12
	BYTE		N12   
	BYTE	W12
	BYTE		        Gs1 
	BYTE	W12
	BYTE		N12   
	BYTE	W12
	BYTE		N12   
	BYTE	W12
// 020   ----------------------------------------
	BYTE		N12   
	BYTE	W12
	BYTE		        Dn1 
	BYTE	W12
	BYTE		N12   
	BYTE	W12
	BYTE		N12   
	BYTE	W12
	BYTE		N12   
	BYTE	W12
	BYTE		        Fn1 
	BYTE	W12
	BYTE		N12   
	BYTE	W12
	BYTE		N12   
	BYTE	W12
// 021   ----------------------------------------
	BYTE		N12   
	BYTE	W12
	BYTE		        Ds2 
	BYTE	W12
	BYTE		N12   
	BYTE	W12
	BYTE		N12   
	BYTE	W12
	BYTE		N12   
	BYTE	W12
	BYTE		        Cs2 
	BYTE	W12
	BYTE		N12   
	BYTE	W12
	BYTE		N12   
	BYTE	W12
// 022   ----------------------------------------
	BYTE		N12   
	BYTE	W12
	BYTE		        Bn1 
	BYTE	W12
	BYTE		N12   
	BYTE	W12
	BYTE		N12   
	BYTE	W12
	BYTE		N12   
	BYTE	W12
	BYTE		        As1 
	BYTE	W12
	BYTE		N12   
	BYTE	W12
	BYTE		N12   
	BYTE	W12
// 023   ----------------------------------------
	BYTE		N12   
	BYTE	W12
	BYTE		        Cs2 
	BYTE	W12
	BYTE		N12   
	BYTE	W12
	BYTE		N12   
	BYTE	W12
	BYTE		N12   
	BYTE	W12
	BYTE		        Bn1 
	BYTE	W12
	BYTE		N12   
	BYTE	W12
	BYTE		N12   
	BYTE	W12
// 024   ----------------------------------------
	BYTE		N12   
	BYTE	W12
	BYTE		        An1 
	BYTE	W12
	BYTE		N12   
	BYTE	W12
	BYTE		N12   
	BYTE	W12
	BYTE		N12   
	BYTE	W12
	BYTE		N18     Gs1 
	BYTE	W18
	BYTE		N18   
	BYTE	W18
// 025   ----------------------------------------
	BYTE		N12   
	BYTE	W12
	BYTE		        An1 
	BYTE	W12
	BYTE		N12   
	BYTE	W12
	BYTE		N12   
	BYTE	W12
	BYTE		N12   
	BYTE	W12
	BYTE		N12   
	BYTE	W12
	BYTE		N12   
	BYTE	W12
	BYTE		N12   
	BYTE	W12
// 026   ----------------------------------------
	BYTE		N12   
	BYTE	W12
	BYTE		        Bn1 
	BYTE	W12
	BYTE		N12   
	BYTE	W12
	BYTE		N12   
	BYTE	W12
	BYTE		N12   
	BYTE	W12
	BYTE		N12   
	BYTE	W12
	BYTE		N12   
	BYTE	W12
	BYTE		N12   
	BYTE	W12
// 027   ----------------------------------------
	BYTE		N12   
	BYTE	W12
	BYTE		        Cs2 
	BYTE	W12
	BYTE		N12   
	BYTE	W12
	BYTE		N12   
	BYTE	W12
	BYTE		N12   
	BYTE	W12
	BYTE		N12   
	BYTE	W12
	BYTE		        Cs3 
	BYTE	W12
	BYTE		        Gs2 
	BYTE	W12
// 028   ----------------------------------------
AbandonedChurch_7_028:
	BYTE		N12     Cs2   v127
	BYTE	W12
	BYTE		N12   
	BYTE	W12
	BYTE		N12   
	BYTE	W12
	BYTE		N12   
	BYTE	W12
	BYTE		N12   
	BYTE	W12
	BYTE		N12   
	BYTE	W12
	BYTE		        Bn1 
	BYTE	W12
	BYTE		        Cs2 
	BYTE	W12
	BYTE	PEND
// 029   ----------------------------------------
	BYTE		        Ds2 
	BYTE	W12
	BYTE		        Cs2 
	BYTE	W12
	BYTE		N12   
	BYTE	W12
	BYTE		N12   
	BYTE	W12
	BYTE		N12   
	BYTE	W12
	BYTE		N12   
	BYTE	W12
	BYTE		        Cs3 
	BYTE	W12
	BYTE		        Gs2 
	BYTE	W12
// 030   ----------------------------------------
	BYTE	PATT
	 POIN2	AbandonedChurch_7_028
// 031   ----------------------------------------
	BYTE		N12     Ds2   v127
	BYTE	W12
	BYTE	GoTo
	 POIN2	AbandonedChurch_7_B1
AbandonedChurch_7_B2:
	BYTE	FINE

//**************** Track 8 (Midi-Chn.8) ****************//

AbandonedChurch_8:
	BYTE	KEYSH   AbandonedChurch_key+0
// 000   ----------------------------------------
	BYTE		VOICE   121
	BYTE		VOL     57*AbandonedChurch_mvl/mxv
	BYTE		N06     Cn1   v127
	BYTE		N06     Cs2   v100
	BYTE		N06     Gn2 
	BYTE	W06
	BYTE		        Cn1   v127
	BYTE		N06     Cs2   v100
	BYTE		N06     Gn2 
	BYTE	W06
AbandonedChurch_8_B1:
	BYTE		N12     Cn1   v127
	BYTE		N96     Cs2   v100
	BYTE		N96     Gn2 
	BYTE	W12
	BYTE		N12     Cn1   v127
	BYTE		N12     As1   v100
	BYTE	W12
	BYTE		        Dn1   v127
	BYTE	W12
	BYTE		        As1   v100
	BYTE	W24
	BYTE		        Cn1   v127
	BYTE		N12     As1   v100
	BYTE	W12
	BYTE		        Dn1   v127
	BYTE	W12
// 001   ----------------------------------------
AbandonedChurch_8_001:
	BYTE		N12     Cn1   v127
	BYTE		N12     As1   v100
	BYTE	W12
	BYTE		        Cn1   v127
	BYTE	W12
	BYTE		N12   
	BYTE		N12     As1   v100
	BYTE	W12
	BYTE		        Dn1   v127
	BYTE	W12
	BYTE		N06     Cn1 
	BYTE		N12     As1   v100
	BYTE	W06
	BYTE		        Dn1   v127
	BYTE	W12
	BYTE		N06   
	BYTE	W06
	BYTE		N12     Cn1 
	BYTE		N12     As1   v100
	BYTE	W12
	BYTE		        Dn1   v127
	BYTE		N06     As1   v100
	BYTE	W06
	BYTE		N06   
	BYTE	W06
	BYTE	PEND
// 002   ----------------------------------------
AbandonedChurch_8_002:
	BYTE		N12     Cn1   v127
	BYTE		N12     As1   v100
	BYTE	W12
	BYTE		        Cn1   v127
	BYTE		N96     Cs2   v100
	BYTE		N96     Gn2 
	BYTE	W12
	BYTE		N12     Cn1   v127
	BYTE		N12     As1   v100
	BYTE	W12
	BYTE		        Dn1   v127
	BYTE	W12
	BYTE		N06     Cn1 
	BYTE		N12     As1   v100
	BYTE	W06
	BYTE		        Dn1   v127
	BYTE	W18
	BYTE		        Cn1 
	BYTE		N12     As1   v100
	BYTE	W12
	BYTE		        Dn1   v127
	BYTE	W12
	BYTE	PEND
// 003   ----------------------------------------
AbandonedChurch_8_003:
	BYTE		N12     Cn1   v127
	BYTE		N12     As1   v100
	BYTE	W12
	BYTE		        Cn1   v127
	BYTE	W12
	BYTE		N12   
	BYTE		N12     As1   v100
	BYTE	W12
	BYTE		        Dn1   v127
	BYTE	W12
	BYTE		N06     Cn1 
	BYTE		N12     As1   v100
	BYTE	W06
	BYTE		N06     Cn1   v127
	BYTE	W12
	BYTE		        Dn1 
	BYTE	W06
	BYTE		N12     Cn1 
	BYTE		N12     As1   v100
	BYTE	W12
	BYTE		N06     Dn1   v127
	BYTE		N06     As1   v100
	BYTE	W06
	BYTE		        Dn1   v127
	BYTE		N06     As1   v100
	BYTE	W06
	BYTE	PEND
// 004   ----------------------------------------
AbandonedChurch_8_004:
	BYTE		N06     Cn1   v127
	BYTE		N06     Cs2   v100
	BYTE		N06     Gn2 
	BYTE	W06
	BYTE		        Cn1   v127
	BYTE		N06     Cs2   v100
	BYTE		N06     Gn2 
	BYTE	W06
	BYTE		N12     Cn1   v127
	BYTE		N96     Cs2   v100
	BYTE		N96     Gn2 
	BYTE	W12
	BYTE		N12     Cn1   v127
	BYTE		N12     As1   v100
	BYTE	W12
	BYTE		        Dn1   v127
	BYTE	W12
	BYTE		        As1   v100
	BYTE	W24
	BYTE		        Cn1   v127
	BYTE		N12     As1   v100
	BYTE	W12
	BYTE		        Dn1   v127
	BYTE	W12
	BYTE	PEND
// 005   ----------------------------------------
	BYTE	PATT
	 POIN2	AbandonedChurch_8_001
// 006   ----------------------------------------
	BYTE	PATT
	 POIN2	AbandonedChurch_8_002
// 007   ----------------------------------------
	BYTE	PATT
	 POIN2	AbandonedChurch_8_003
// 008   ----------------------------------------
	BYTE		N12     As1   v100
	BYTE	W06
	BYTE		N06     Dn1   v127
	BYTE	W06
	BYTE		N12     Cn1 
	BYTE		N96     Cs2   v100
	BYTE		N96     Gn2 
	BYTE	W12
	BYTE		N12     Cn1   v127
	BYTE		N12     As1   v100
	BYTE	W12
	BYTE		        Dn1   v127
	BYTE	W12
	BYTE		        As1   v100
	BYTE	W24
	BYTE		        Cn1   v127
	BYTE		N12     As1   v100
	BYTE	W12
	BYTE		        Dn1   v127
	BYTE	W12
// 009   ----------------------------------------
	BYTE	PATT
	 POIN2	AbandonedChurch_8_001
// 010   ----------------------------------------
	BYTE	PATT
	 POIN2	AbandonedChurch_8_002
// 011   ----------------------------------------
	BYTE		N12     Cn1   v127
	BYTE		N12     As1   v100
	BYTE	W12
	BYTE		        Cn1   v127
	BYTE	W12
	BYTE		N12   
	BYTE		N12     As1   v100
	BYTE	W12
	BYTE		        Dn1   v127
	BYTE	W12
	BYTE		N06     Cn1 
	BYTE		N12     As1   v100
	BYTE	W06
	BYTE		N06     Cn1   v127
	BYTE	W12
	BYTE		        Dn1 
	BYTE	W06
	BYTE		N12     Cn1 
	BYTE		N12     As1   v100
	BYTE	W12
	BYTE		N06     Dn1   v127
	BYTE		N06     As1   v100
	BYTE		N06     Cs2 
	BYTE		N06     Gn2 
	BYTE	W06
	BYTE		        Dn1   v127
	BYTE		N06     As1   v100
	BYTE		N06     Cs2 
	BYTE		N06     Gn2 
	BYTE	W06
// 012   ----------------------------------------
	BYTE		        Cn1   v127
	BYTE		N12     As1   v100
	BYTE		N06     Cs2 
	BYTE		N06     Gn2 
	BYTE	W06
	BYTE		        Cn1   v127
	BYTE		N06     Cs2   v100
	BYTE		N06     Gn2 
	BYTE	W06
	BYTE		N72     Cs2 
	BYTE		N72     Gn2 
	BYTE	W48
	BYTE		N06     Cn1   v127
	BYTE	W06
	BYTE		N06   
	BYTE	W06
	BYTE		N06   
	BYTE	W06
	BYTE		N06   
	BYTE	W06
	BYTE		N06   
	BYTE		N06     Cs2   v100
	BYTE		N06     Gn2 
	BYTE	W06
	BYTE		        Cn1   v127
	BYTE		N06     Cs2   v100
	BYTE		N06     Gn2 
	BYTE	W06
// 013   ----------------------------------------
	BYTE	PATT
	 POIN2	AbandonedChurch_8_004
// 014   ----------------------------------------
	BYTE	PATT
	 POIN2	AbandonedChurch_8_001
// 015   ----------------------------------------
	BYTE	PATT
	 POIN2	AbandonedChurch_8_002
// 016   ----------------------------------------
	BYTE	PATT
	 POIN2	AbandonedChurch_8_003
// 017   ----------------------------------------
	BYTE		N06     Dn1   v127
	BYTE	W06
	BYTE		N06   
	BYTE	W06
	BYTE		N12     Cn1 
	BYTE		N96     Cs2   v100
	BYTE		N96     Gn2 
	BYTE	W12
	BYTE		N12     Cn1   v127
	BYTE		N12     As1   v100
	BYTE	W12
	BYTE		        Dn1   v127
	BYTE	W12
	BYTE		        As1   v100
	BYTE	W24
	BYTE		        Cn1   v127
	BYTE		N12     As1   v100
	BYTE	W12
	BYTE		        Dn1   v127
	BYTE	W12
// 018   ----------------------------------------
	BYTE	PATT
	 POIN2	AbandonedChurch_8_001
// 019   ----------------------------------------
	BYTE	PATT
	 POIN2	AbandonedChurch_8_002
// 020   ----------------------------------------
	BYTE		N12     Cn1   v127
	BYTE		N12     As1   v100
	BYTE	W12
	BYTE		        Cn1   v127
	BYTE	W12
	BYTE		N12   
	BYTE		N12     As1   v100
	BYTE	W12
	BYTE		        Dn1   v127
	BYTE	W12
	BYTE		N06     Cn1 
	BYTE		N12     As1   v100
	BYTE	W06
	BYTE		N06     Cn1   v127
	BYTE	W12
	BYTE		        Dn1 
	BYTE	W06
	BYTE		N12     Cn1 
	BYTE		N12     As1   v100
	BYTE	W12
	BYTE		N06     Cn1   v127
	BYTE	W06
	BYTE		N06   
	BYTE	W06
// 021   ----------------------------------------
	BYTE		N06   
	BYTE		N06     Cs2   v100
	BYTE		N06     Gn2 
	BYTE		N06     An2   v072
	BYTE	W06
	BYTE		        Cn1   v127
	BYTE		N06     Cs2   v100
	BYTE		N06     Gn2 
	BYTE		N06     An2   v072
	BYTE	W06
	BYTE		N12     Cn1   v127
	BYTE		N96     Cs2   v100
	BYTE		N96     Gn2 
	BYTE	W12
	BYTE		N12     Cn1   v127
	BYTE		N12     As1   v100
	BYTE	W12
	BYTE		        Dn1   v127
	BYTE	W12
	BYTE		        As1   v100
	BYTE	W24
	BYTE		        Cn1   v127
	BYTE		N12     As1   v100
	BYTE	W12
	BYTE		        Dn1   v127
	BYTE	W12
// 022   ----------------------------------------
	BYTE	PATT
	 POIN2	AbandonedChurch_8_001
// 023   ----------------------------------------
	BYTE	PATT
	 POIN2	AbandonedChurch_8_002
// 024   ----------------------------------------
	BYTE		N12     Cn1   v127
	BYTE		N12     As1   v100
	BYTE	W12
	BYTE		        Cn1   v127
	BYTE	W12
	BYTE		N12   
	BYTE		N12     As1   v100
	BYTE	W12
	BYTE		        Dn1   v127
	BYTE	W12
	BYTE		N06     Cn1 
	BYTE		N06     As1 
	BYTE	W12
	BYTE		N18     Cn1 
	BYTE		N18     Cs2 
	BYTE		N18     Gn2 
	BYTE	W18
	BYTE		        Cn1 
	BYTE		N18     Cs2 
	BYTE		N18     Gn2 
	BYTE	W18
// 025   ----------------------------------------
	BYTE		N12     Cn1 
	BYTE		N12     Cs2 
	BYTE		N12     Gn2 
	BYTE	W12
	BYTE		        Cn1 
	BYTE		N96     Cs2   v100
	BYTE		N96     Gn2 
	BYTE	W12
	BYTE		N12     Cn1   v127
	BYTE		N12     As1   v100
	BYTE	W12
	BYTE		        Dn1   v127
	BYTE	W12
	BYTE		        As1   v100
	BYTE	W24
	BYTE		        Cn1   v127
	BYTE		N12     As1   v100
	BYTE	W12
	BYTE		        Dn1   v127
	BYTE	W12
// 026   ----------------------------------------
	BYTE	PATT
	 POIN2	AbandonedChurch_8_001
// 027   ----------------------------------------
	BYTE	PATT
	 POIN2	AbandonedChurch_8_002
// 028   ----------------------------------------
AbandonedChurch_8_028:
	BYTE		N12     Cn1   v127
	BYTE		N12     As1   v100
	BYTE	W12
	BYTE		        Cn1   v127
	BYTE	W12
	BYTE		N12   
	BYTE		N12     As1   v100
	BYTE	W12
	BYTE		        Dn1   v127
	BYTE	W12
	BYTE		N06     Cn1 
	BYTE		N12     As1   v100
	BYTE	W06
	BYTE		N06     Cn1   v127
	BYTE	W12
	BYTE		        Dn1 
	BYTE	W06
	BYTE		N12     Cn1 
	BYTE		N12     As1   v100
	BYTE	W12
	BYTE		N06     Dn1   v127
	BYTE	W12
	BYTE	PEND
// 029   ----------------------------------------
	BYTE		N12     Cn1 
	BYTE	W12
	BYTE		N12   
	BYTE		N96     Cs2   v100
	BYTE		N96     Gn2 
	BYTE	W12
	BYTE		N12     Cn1   v127
	BYTE		N12     As1   v100
	BYTE	W12
	BYTE		        Dn1   v127
	BYTE	W12
	BYTE		N06     Cn1 
	BYTE		N12     As1   v100
	BYTE	W06
	BYTE		        Dn1   v127
	BYTE	W18
	BYTE		        Cn1 
	BYTE		N12     As1   v100
	BYTE	W12
	BYTE		        Dn1   v127
	BYTE	W12
// 030   ----------------------------------------
	BYTE	PATT
	 POIN2	AbandonedChurch_8_028
// 031   ----------------------------------------
	BYTE		N06     Cn1   v127
	BYTE	W06
	BYTE		N06   
	BYTE	W06
	BYTE	GoTo
	 POIN2	AbandonedChurch_8_B1
AbandonedChurch_8_B2:
	BYTE	FINE

//**************** Track 9 (Midi-Chn.9) ****************//

AbandonedChurch_9:
	BYTE	KEYSH   AbandonedChurch_key+0
// 000   ----------------------------------------
	BYTE		VOICE   57
	BYTE		PAN     c_v-26
	BYTE		VOL     51*AbandonedChurch_mvl/mxv
	BYTE	W12
AbandonedChurch_9_B1:
	BYTE	W84
// 001   ----------------------------------------
	BYTE	W96
// 002   ----------------------------------------
	BYTE	W96
// 003   ----------------------------------------
	BYTE	W96
// 004   ----------------------------------------
	BYTE	W12
	BYTE		TIE     As1   v100
	BYTE	W84
// 005   ----------------------------------------
	BYTE	W96
// 006   ----------------------------------------
	BYTE	W12
	BYTE		EOT   
	BYTE		TIE   
	BYTE		N96     As2 
	BYTE	W84
// 007   ----------------------------------------
	BYTE	W12
	BYTE		        Fn2 
	BYTE	W84
// 008   ----------------------------------------
	BYTE	W12
	BYTE		EOT     As1 
	BYTE		N72     Fn2 
	BYTE	W72
	BYTE		N24     An2 
	BYTE	W12
// 009   ----------------------------------------
	BYTE	W36
	BYTE		        Cs2 
	BYTE	W24
	BYTE		        Fn2 
	BYTE	W24
	BYTE		        As2 
	BYTE	W12
// 010   ----------------------------------------
	BYTE	W12
	BYTE		N48     Fs2 
	BYTE	W48
	BYTE		        Bn2 
	BYTE	W36
// 011   ----------------------------------------
	BYTE	W12
	BYTE		        Fn2 
	BYTE	W48
	BYTE		        An2 
	BYTE	W36
// 012   ----------------------------------------
	BYTE	W12
	BYTE		N96     Fn1 
	BYTE		N96     Fn2 
	BYTE	W84
// 013   ----------------------------------------
	BYTE	W12
	BYTE		N48     As1 
	BYTE		N48     As2 
	BYTE	W48
	BYTE		        Gs1 
	BYTE		N48     Gs2 
	BYTE	W36
// 014   ----------------------------------------
	BYTE	W12
	BYTE		        Fs1 
	BYTE		N48     Fs2 
	BYTE	W48
	BYTE		        Fn1 
	BYTE		N48     Fn2 
	BYTE	W36
// 015   ----------------------------------------
	BYTE	W12
	BYTE		        Gs1 
	BYTE		N48     Gs2 
	BYTE	W48
	BYTE		        Fs1 
	BYTE		N48     Fs2 
	BYTE	W36
// 016   ----------------------------------------
	BYTE	W12
	BYTE		        En1 
	BYTE		N48     En2 
	BYTE	W48
	BYTE		        Ds1 
	BYTE		N48     Ds2 
	BYTE	W36
// 017   ----------------------------------------
	BYTE	W96
// 018   ----------------------------------------
	BYTE	W96
// 019   ----------------------------------------
	BYTE	W96
// 020   ----------------------------------------
	BYTE	W96
// 021   ----------------------------------------
	BYTE	W12
	BYTE		N48   
	BYTE	W48
	BYTE		        Cs2 
	BYTE	W36
// 022   ----------------------------------------
	BYTE	W12
	BYTE		        Bn1 
	BYTE	W48
	BYTE		        As1 
	BYTE	W36
// 023   ----------------------------------------
	BYTE	W12
	BYTE		        Cs2 
	BYTE	W48
	BYTE		        Bn1 
	BYTE	W36
// 024   ----------------------------------------
	BYTE	W12
	BYTE		        An1 
	BYTE	W48
	BYTE		        Gs1 
	BYTE	W36
// 025   ----------------------------------------
	BYTE	W12
	BYTE		N96     An1 
	BYTE	W84
// 026   ----------------------------------------
	BYTE	W12
	BYTE		        Bn1 
	BYTE	W84
// 027   ----------------------------------------
	BYTE	W12
	BYTE		TIE     Cs2 
	BYTE	W84
// 028   ----------------------------------------
	BYTE	W96
// 029   ----------------------------------------
	BYTE	W12
	BYTE		EOT   
	BYTE	W84
// 030   ----------------------------------------
	BYTE	W96
// 031   ----------------------------------------
	BYTE	W12
	BYTE	GoTo
	 POIN2	AbandonedChurch_9_B1
AbandonedChurch_9_B2:
	BYTE	FINE

//**************** Track 10 (Midi-Chn.11) ****************//

AbandonedChurch_10:
	BYTE	KEYSH   AbandonedChurch_key+0
// 000   ----------------------------------------
	BYTE		VOICE   57
	BYTE		PAN     c_v+24
	BYTE		VOL     51*AbandonedChurch_mvl/mxv
	BYTE	W12
AbandonedChurch_10_B1:
	BYTE	W84
// 001   ----------------------------------------
	BYTE	W96
// 002   ----------------------------------------
	BYTE	W96
// 003   ----------------------------------------
	BYTE	W96
// 004   ----------------------------------------
	BYTE	W96
// 005   ----------------------------------------
	BYTE	W96
// 006   ----------------------------------------
	BYTE	W96
// 007   ----------------------------------------
	BYTE	W96
// 008   ----------------------------------------
	BYTE	W12
	BYTE		N36     Cs4   v100
	BYTE	W36
	BYTE		N06     Cn4 
	BYTE		N06     Cs4   v056
	BYTE	W06
	BYTE		N12     Cn4 
	BYTE		N06     Cs4   v100
	BYTE	W06
	BYTE		N12     Cs4   v056
	BYTE		N24     Ds4   v100
	BYTE	W24
	BYTE		        Cn4 
	BYTE		N12     Ds4   v056
	BYTE	W12
// 009   ----------------------------------------
	BYTE	W12
	BYTE		        Cn4 
	BYTE		N12     Cs4   v100
	BYTE	W12
	BYTE		        Cs4   v056
	BYTE	W06
	BYTE		N06     Ds4   v100
	BYTE	W06
	BYTE		N12     Ds4   v056
	BYTE		N48     Fn4   v100
	BYTE	W48
	BYTE		N12     As3 
	BYTE		N12     Fn4   v056
	BYTE	W12
// 010   ----------------------------------------
	BYTE		        As3 
	BYTE		N06     Fn4   v100
	BYTE	W06
	BYTE		N12     Fn4   v056
	BYTE	W06
	BYTE		N48     Fs4   v100
	BYTE	W48
	BYTE		N12     Fs4   v056
	BYTE		N24     Bn4   v100
	BYTE	W24
	BYTE		        As4 
	BYTE		N12     Bn4   v056
	BYTE	W12
// 011   ----------------------------------------
	BYTE	W12
	BYTE		N36     As4   v100
	BYTE	W36
	BYTE		N06     An4 
	BYTE		N06     As4   v056
	BYTE	W06
	BYTE		        An4 
	BYTE		N06     As4   v100
	BYTE	W06
	BYTE		N48     An4 
	BYTE		N12     As4   v056
	BYTE	W36
// 012   ----------------------------------------
	BYTE	W12
	BYTE		        An4 
	BYTE	W84
// 013   ----------------------------------------
	BYTE	W12
	BYTE		        As2   v100
	BYTE	W12
	BYTE		        As2   v056
	BYTE		N06     Cn3   v100
	BYTE	W06
	BYTE		N12     Cn3   v056
	BYTE	W06
	BYTE		        Cs3   v100
	BYTE	W12
	BYTE		        Cs3   v056
	BYTE		N12     Ds3   v100
	BYTE	W12
	BYTE		        Ds3   v056
	BYTE		N24     Fn3   v100
	BYTE	W24
	BYTE		        As2 
	BYTE		N12     Fn3   v056
	BYTE	W12
// 014   ----------------------------------------
	BYTE	W12
	BYTE		        As2 
	BYTE		N36     Ds3   v100
	BYTE	W36
	BYTE		N06     Cs3 
	BYTE		N12     Ds3   v056
	BYTE	W06
	BYTE		N06     Cn3   v100
	BYTE		N12     Cs3   v056
	BYTE	W06
	BYTE		N24     As2   v100
	BYTE		N12     Cn3   v056
	BYTE	W24
	BYTE		N24     An2   v100
	BYTE		N12     As2   v056
	BYTE	W12
// 015   ----------------------------------------
	BYTE	W12
	BYTE		        An2 
	BYTE		N12     Bn2   v100
	BYTE	W12
	BYTE		        Bn2   v056
	BYTE		N06     Cs3   v100
	BYTE	W06
	BYTE		N12     Cs3   v056
	BYTE	W06
	BYTE		        Ds3   v100
	BYTE	W12
	BYTE		        Ds3   v056
	BYTE		N12     Gs3   v100
	BYTE	W12
	BYTE		N24   
	BYTE	W24
	BYTE		        Ds3 
	BYTE		N12     Gs3   v056
	BYTE	W12
// 016   ----------------------------------------
	BYTE	W12
	BYTE		        Ds3 
	BYTE		N36     En3   v100
	BYTE	W36
	BYTE		N06     Ds3 
	BYTE		N12     En3   v056
	BYTE	W06
	BYTE		        Ds3 
	BYTE		N06     Fn3   v100
	BYTE	W06
	BYTE		N12     Fn3   v056
	BYTE		N48     Gn3   v100
	BYTE	W36
// 017   ----------------------------------------
	BYTE	W12
	BYTE		N12     Gn3   v056
	BYTE	W84
// 018   ----------------------------------------
	BYTE	W96
// 019   ----------------------------------------
	BYTE	W96
// 020   ----------------------------------------
	BYTE	W96
// 021   ----------------------------------------
	BYTE	W12
	BYTE		N48     Ds3   v100
	BYTE	W48
	BYTE		        Cs3 
	BYTE	W36
// 022   ----------------------------------------
	BYTE	W12
	BYTE		        Bn2 
	BYTE	W48
	BYTE		        As2 
	BYTE	W36
// 023   ----------------------------------------
	BYTE	W12
	BYTE		        Cs3 
	BYTE	W48
	BYTE		        Bn2 
	BYTE	W36
// 024   ----------------------------------------
	BYTE	W12
	BYTE		        An2 
	BYTE	W48
	BYTE		        Gs2 
	BYTE	W36
// 025   ----------------------------------------
	BYTE	W12
	BYTE		N96     An2 
	BYTE	W84
// 026   ----------------------------------------
	BYTE	W12
	BYTE		        Bn2 
	BYTE	W84
// 027   ----------------------------------------
	BYTE	W12
	BYTE		TIE     Cs3 
	BYTE	W84
// 028   ----------------------------------------
	BYTE	W96
// 029   ----------------------------------------
	BYTE	W12
	BYTE		EOT   
	BYTE	W84
// 030   ----------------------------------------
	BYTE	W96
// 031   ----------------------------------------
	BYTE	W12
	BYTE	GoTo
	 POIN2	AbandonedChurch_10_B1
AbandonedChurch_10_B2:
	BYTE	FINE

//**************** Track 11 (Midi-Chn.12) ****************//

AbandonedChurch_11:
	BYTE	KEYSH   AbandonedChurch_key+0
// 000   ----------------------------------------
	BYTE		VOICE   47
	BYTE		VOL     57*AbandonedChurch_mvl/mxv
	BYTE		N06     As0   v100
	BYTE		N06     As1 
	BYTE		N06     As2 
	BYTE	W06
	BYTE		        As0 
	BYTE		N06     As1 
	BYTE		N06     As2 
	BYTE	W06
AbandonedChurch_11_B1:
	BYTE		N96     As0   v100
	BYTE		N96     As1 
	BYTE		N96     As2 
	BYTE	W84
// 001   ----------------------------------------
	BYTE	W96
// 002   ----------------------------------------
	BYTE	W96
// 003   ----------------------------------------
	BYTE	W96
// 004   ----------------------------------------
AbandonedChurch_11_004:
	BYTE		N06     As0   v100
	BYTE		N06     As1 
	BYTE		N06     As2 
	BYTE	W06
	BYTE		        As0 
	BYTE		N06     As1 
	BYTE		N06     As2 
	BYTE	W06
	BYTE		N96     As0 
	BYTE		N96     As1 
	BYTE		N96     As2 
	BYTE	W84
	BYTE	PEND
// 005   ----------------------------------------
	BYTE	W96
// 006   ----------------------------------------
	BYTE	W96
// 007   ----------------------------------------
	BYTE	W96
// 008   ----------------------------------------
	BYTE	PATT
	 POIN2	AbandonedChurch_11_004
// 009   ----------------------------------------
	BYTE	W96
// 010   ----------------------------------------
	BYTE	W12
	BYTE		N96     Bn0   v100
	BYTE		N96     Bn1 
	BYTE		N96     Bn2 
	BYTE	W84
// 011   ----------------------------------------
	BYTE	W12
	BYTE		N84     Fs0 
	BYTE		N84     Fn1 
	BYTE		N84     Fn2 
	BYTE	W84
// 012   ----------------------------------------
	BYTE		N06     Fs0 
	BYTE		N06     Fn1 
	BYTE		N06     Fn2 
	BYTE		N06     En3 
	BYTE	W06
	BYTE		        Fs0 
	BYTE		N06     Fn1 
	BYTE		N06     Fn2 
	BYTE		N06     Fn3 
	BYTE	W06
	BYTE		N84     Fs0 
	BYTE		N84     Fn1 
	BYTE		N84     Fn2 
	BYTE	W84
// 013   ----------------------------------------
	BYTE	W12
	BYTE		N96     As0 
	BYTE		N96     As1 
	BYTE		N96     As2 
	BYTE	W84
// 014   ----------------------------------------
	BYTE	W60
	BYTE		N24     Fn0 
	BYTE		N24     Fn1 
	BYTE		N24     Fn2 
	BYTE	W24
	BYTE		        Fn0 
	BYTE		N24     Fn1 
	BYTE		N24     Fn2 
	BYTE	W12
// 015   ----------------------------------------
	BYTE	W12
	BYTE		N96     Gs0 
	BYTE		N96     Gs1 
	BYTE		N96     Gs2 
	BYTE	W84
// 016   ----------------------------------------
	BYTE	W96
// 017   ----------------------------------------
	BYTE	W96
// 018   ----------------------------------------
	BYTE	W96
// 019   ----------------------------------------
	BYTE	W96
// 020   ----------------------------------------
	BYTE	W96
// 021   ----------------------------------------
	BYTE	W12
	BYTE		        Ds1 
	BYTE		N96     Ds2 
	BYTE		N96     Ds3 
	BYTE	W84
// 022   ----------------------------------------
	BYTE	W60
	BYTE		N24     As0 
	BYTE		N24     As1 
	BYTE		N24     As2 
	BYTE	W24
	BYTE		        As0 
	BYTE		N24     As1 
	BYTE		N24     As2 
	BYTE	W12
// 023   ----------------------------------------
	BYTE	W12
	BYTE		N96     Cs1 
	BYTE		N96     Cs2 
	BYTE		N96     Cs3 
	BYTE	W84
// 024   ----------------------------------------
	BYTE	W96
// 025   ----------------------------------------
	BYTE	W96
// 026   ----------------------------------------
	BYTE	W96
// 027   ----------------------------------------
	BYTE	W96
// 028   ----------------------------------------
	BYTE	W96
// 029   ----------------------------------------
	BYTE	W96
// 030   ----------------------------------------
	BYTE	W96
// 031   ----------------------------------------
	BYTE	W12
	BYTE	GoTo
	 POIN2	AbandonedChurch_11_B1
AbandonedChurch_11_B2:
	BYTE	FINE

//**************** Track 12 (Midi-Chn.13) ****************//

AbandonedChurch_12:
	BYTE	KEYSH   AbandonedChurch_key+0
// 000   ----------------------------------------
	BYTE		VOICE   19
	BYTE		PAN     c_v-26
	BYTE		VOL     57*AbandonedChurch_mvl/mxv
	BYTE	W12
AbandonedChurch_12_B1:
	BYTE	W84
// 001   ----------------------------------------
	BYTE	W96
// 002   ----------------------------------------
	BYTE	W96
// 003   ----------------------------------------
	BYTE	W96
// 004   ----------------------------------------
	BYTE	W96
// 005   ----------------------------------------
	BYTE	W96
// 006   ----------------------------------------
	BYTE	W96
// 007   ----------------------------------------
	BYTE	W96
// 008   ----------------------------------------
	BYTE	W96
// 009   ----------------------------------------
	BYTE	W96
// 010   ----------------------------------------
	BYTE	W96
// 011   ----------------------------------------
	BYTE	W96
// 012   ----------------------------------------
	BYTE	W96
// 013   ----------------------------------------
	BYTE	W96
// 014   ----------------------------------------
	BYTE	W96
// 015   ----------------------------------------
	BYTE	W96
// 016   ----------------------------------------
	BYTE	W96
// 017   ----------------------------------------
	BYTE	W12
	BYTE		N12     Gs2   v072
	BYTE		N12     Gs3   v100
	BYTE	W12
	BYTE		        Gs2   v056
	BYTE		N12     Gs3 
	BYTE	W12
	BYTE		        Dn2   v072
	BYTE		N12     Dn3   v100
	BYTE	W12
	BYTE		        Dn2   v056
	BYTE		N12     Dn3 
	BYTE	W12
	BYTE		        Dn2   v072
	BYTE		N12     Dn3   v100
	BYTE	W12
	BYTE		        Dn2   v056
	BYTE		N12     Dn3 
	BYTE	W12
	BYTE		        Fn2   v072
	BYTE		N12     Fn3   v100
	BYTE	W12
// 018   ----------------------------------------
	BYTE		        Fn2   v056
	BYTE		N12     Fn3 
	BYTE	W12
	BYTE		        Ds2   v072
	BYTE		N12     Ds3   v100
	BYTE	W12
	BYTE		        Ds2   v056
	BYTE		N12     Ds3 
	BYTE	W12
	BYTE		        Gn2   v072
	BYTE		N12     Gn3   v100
	BYTE	W12
	BYTE		        Gn2   v056
	BYTE		N12     Gn3 
	BYTE	W12
	BYTE		        Ds2   v072
	BYTE		N12     Ds3   v100
	BYTE	W12
	BYTE		        Ds2   v056
	BYTE		N12     Ds3 
	BYTE	W12
	BYTE		        Gn2   v072
	BYTE		N12     Gn3   v100
	BYTE	W12
// 019   ----------------------------------------
	BYTE		        Gn2   v056
	BYTE		N12     Gn3 
	BYTE	W12
	BYTE		        Gs2   v072
	BYTE		N12     Gs3   v100
	BYTE	W12
	BYTE		        Gs2   v056
	BYTE		N12     Gs3 
	BYTE	W12
	BYTE		        Dn2   v072
	BYTE		N12     Dn3   v100
	BYTE	W12
	BYTE		        Dn2   v056
	BYTE		N12     Dn3 
	BYTE	W12
	BYTE		        Dn2   v072
	BYTE		N12     Dn3   v100
	BYTE	W12
	BYTE		        Dn2   v056
	BYTE		N12     Dn3 
	BYTE	W12
	BYTE		        Fn2   v072
	BYTE		N12     Fn3   v100
	BYTE	W12
// 020   ----------------------------------------
	BYTE		        Fn2   v056
	BYTE		N12     Fn3 
	BYTE	W24
	BYTE		        As2   v072
	BYTE	W12
	BYTE		        Fn2 
	BYTE	W12
	BYTE		        Dn3 
	BYTE	W12
	BYTE		        As2 
	BYTE	W12
	BYTE		        Fn3 
	BYTE	W12
	BYTE		        Dn3 
	BYTE	W12
// 021   ----------------------------------------
	BYTE		        As3 
	BYTE	W12
	BYTE		        Fn3 
	BYTE	W84
// 022   ----------------------------------------
	BYTE	W96
// 023   ----------------------------------------
	BYTE	W96
// 024   ----------------------------------------
	BYTE	W96
// 025   ----------------------------------------
	BYTE	W96
// 026   ----------------------------------------
	BYTE	W96
// 027   ----------------------------------------
	BYTE	W96
// 028   ----------------------------------------
	BYTE	W96
// 029   ----------------------------------------
	BYTE	W96
// 030   ----------------------------------------
	BYTE	W96
// 031   ----------------------------------------
	BYTE	W12
	BYTE	GoTo
	 POIN2	AbandonedChurch_12_B1
AbandonedChurch_12_B2:
	BYTE	FINE

//**************** Track 13 (Midi-Chn.14) ****************//

AbandonedChurch_13:
	BYTE	KEYSH   AbandonedChurch_key+0
// 000   ----------------------------------------
	BYTE		VOICE   19
	BYTE		PAN     c_v+24
	BYTE		VOL     57*AbandonedChurch_mvl/mxv
	BYTE	W12
AbandonedChurch_13_B1:
	BYTE	W84
// 001   ----------------------------------------
	BYTE	W96
// 002   ----------------------------------------
	BYTE	W96
// 003   ----------------------------------------
	BYTE	W96
// 004   ----------------------------------------
	BYTE	W96
// 005   ----------------------------------------
	BYTE	W96
// 006   ----------------------------------------
	BYTE	W96
// 007   ----------------------------------------
	BYTE	W96
// 008   ----------------------------------------
	BYTE	W96
// 009   ----------------------------------------
	BYTE	W96
// 010   ----------------------------------------
	BYTE	W96
// 011   ----------------------------------------
	BYTE	W96
// 012   ----------------------------------------
	BYTE	W96
// 013   ----------------------------------------
	BYTE	W96
// 014   ----------------------------------------
	BYTE	W96
// 015   ----------------------------------------
	BYTE	W96
// 016   ----------------------------------------
	BYTE	W96
// 017   ----------------------------------------
	BYTE	W24
	BYTE		N12     Fn2   v100
	BYTE		N12     Fn3   v072
	BYTE	W12
	BYTE		        Fn2   v056
	BYTE		N12     Fn3 
	BYTE	W12
	BYTE		        Fn2   v100
	BYTE		N12     Fn3   v072
	BYTE	W12
	BYTE		        Fn2   v056
	BYTE		N12     Fn3 
	BYTE	W12
	BYTE		        Fn2   v100
	BYTE		N12     Fn3   v072
	BYTE	W12
	BYTE		        Fn2   v056
	BYTE		N12     Fn3 
	BYTE	W12
// 018   ----------------------------------------
	BYTE		        Fn2   v100
	BYTE		N12     Fn3   v072
	BYTE	W12
	BYTE		        Fn2   v056
	BYTE		N12     Fn3 
	BYTE	W12
	BYTE		        As2   v100
	BYTE		N12     As3   v072
	BYTE	W12
	BYTE		        As2   v056
	BYTE		N12     As3 
	BYTE	W12
	BYTE		        As2   v100
	BYTE		N12     As3   v072
	BYTE	W12
	BYTE		        As2   v056
	BYTE		N12     As3 
	BYTE	W12
	BYTE		        As2   v100
	BYTE		N12     As3   v072
	BYTE	W12
	BYTE		        As2   v056
	BYTE		N12     As3 
	BYTE	W12
// 019   ----------------------------------------
	BYTE		        As2   v100
	BYTE		N12     As3   v072
	BYTE	W12
	BYTE		        As2   v056
	BYTE		N12     As3 
	BYTE	W12
	BYTE		        Fn2   v100
	BYTE		N12     Fn3   v072
	BYTE	W12
	BYTE		        Fn2   v056
	BYTE		N12     Fn3 
	BYTE	W12
	BYTE		        Fn2   v100
	BYTE		N12     Fn3   v072
	BYTE	W12
	BYTE		        Fn2   v056
	BYTE		N12     Fn3 
	BYTE	W12
	BYTE		        Fn2   v100
	BYTE		N12     Fn3   v072
	BYTE	W12
	BYTE		        Fn2   v056
	BYTE		N12     Fn3 
	BYTE	W12
// 020   ----------------------------------------
	BYTE		        Fn2   v100
	BYTE		N12     Fn3   v072
	BYTE	W12
	BYTE		        Fn2   v056
	BYTE		N12     As2   v100
	BYTE		N12     Fn3   v056
	BYTE	W12
	BYTE		        Fn2   v100
	BYTE	W12
	BYTE		        Dn3 
	BYTE	W12
	BYTE		        As2 
	BYTE	W12
	BYTE		        Fn3 
	BYTE	W12
	BYTE		        Dn3 
	BYTE	W12
	BYTE		        As3 
	BYTE	W12
// 021   ----------------------------------------
	BYTE		        Fn3 
	BYTE	W96
// 022   ----------------------------------------
	BYTE	W96
// 023   ----------------------------------------
	BYTE	W96
// 024   ----------------------------------------
	BYTE	W96
// 025   ----------------------------------------
	BYTE	W96
// 026   ----------------------------------------
	BYTE	W96
// 027   ----------------------------------------
	BYTE	W96
// 028   ----------------------------------------
	BYTE	W96
// 029   ----------------------------------------
	BYTE	W96
// 030   ----------------------------------------
	BYTE	W96
// 031   ----------------------------------------
	BYTE	W12
	BYTE	GoTo
	 POIN2	AbandonedChurch_13_B1
AbandonedChurch_13_B2:
	BYTE	FINE

//**************** Track 14 (Midi-Chn.15) ****************//

AbandonedChurch_14:
	BYTE	KEYSH   AbandonedChurch_key+0
// 000   ----------------------------------------
	BYTE		VOICE   41
	BYTE		PAN     c_v+24
	BYTE		VOL     51*AbandonedChurch_mvl/mxv
	BYTE	W12
AbandonedChurch_14_B1:
	BYTE	W84
// 001   ----------------------------------------
	BYTE	W96
// 002   ----------------------------------------
	BYTE	W96
// 003   ----------------------------------------
	BYTE	W96
// 004   ----------------------------------------
	BYTE	W96
// 005   ----------------------------------------
	BYTE	W96
// 006   ----------------------------------------
	BYTE	W96
// 007   ----------------------------------------
	BYTE	W96
// 008   ----------------------------------------
	BYTE	W96
// 009   ----------------------------------------
	BYTE	W96
// 010   ----------------------------------------
	BYTE	W96
// 011   ----------------------------------------
	BYTE	W96
// 012   ----------------------------------------
	BYTE	W96
// 013   ----------------------------------------
	BYTE	W96
// 014   ----------------------------------------
	BYTE	W96
// 015   ----------------------------------------
	BYTE	W96
// 016   ----------------------------------------
	BYTE	W96
// 017   ----------------------------------------
	BYTE	W96
// 018   ----------------------------------------
	BYTE	W96
// 019   ----------------------------------------
	BYTE	W96
// 020   ----------------------------------------
	BYTE	W96
// 021   ----------------------------------------
	BYTE	W96
// 022   ----------------------------------------
	BYTE	W96
// 023   ----------------------------------------
	BYTE	W96
// 024   ----------------------------------------
	BYTE	W96
// 025   ----------------------------------------
	BYTE	W96
// 026   ----------------------------------------
	BYTE	W96
// 027   ----------------------------------------
	BYTE	W24
	BYTE		N12     Cs2   v100
	BYTE	W24
	BYTE		N12   
	BYTE	W24
	BYTE		N12   
	BYTE	W24
// 028   ----------------------------------------
AbandonedChurch_14_028:
	BYTE		N12     Cs2   v100
	BYTE	W24
	BYTE		N12   
	BYTE	W24
	BYTE		N12   
	BYTE	W24
	BYTE		        Cn2 
	BYTE	W24
	BYTE	PEND
// 029   ----------------------------------------
	BYTE		N12   
	BYTE	W24
	BYTE		        Cs2 
	BYTE	W24
	BYTE		N12   
	BYTE	W24
	BYTE		N12   
	BYTE	W24
// 030   ----------------------------------------
	BYTE	PATT
	 POIN2	AbandonedChurch_14_028
// 031   ----------------------------------------
	BYTE		N12     Cn2   v100
	BYTE	W12
	BYTE	GoTo
	 POIN2	AbandonedChurch_14_B1
AbandonedChurch_14_B2:
	BYTE	FINE

//******************************************************//
	ALIGN 4

AbandonedChurch:
	BYTE	14	// NumTrks
	BYTE	0	// NumBlks
	BYTE	AbandonedChurch_pri	// Priority
	BYTE	AbandonedChurch_rev	// Reverb.

	POIN2	AbandonedChurch_grp

	POIN2	AbandonedChurch_1
	POIN2	AbandonedChurch_2
	POIN2	AbandonedChurch_3
	POIN2	AbandonedChurch_4
	POIN2	AbandonedChurch_5
	POIN2	AbandonedChurch_6
	POIN2	AbandonedChurch_7
	POIN2	AbandonedChurch_8
	POIN2	AbandonedChurch_9
	POIN2	AbandonedChurch_10
	POIN2	AbandonedChurch_11
	POIN2	AbandonedChurch_12
	POIN2	AbandonedChurch_13
	POIN2	AbandonedChurch_14

	
