//Event file generated from Sappy .s format.
	#include "MPlayDef.event"

	#define	AccursedCombat_grp  AccursedCombatInstrumentTable
	#define	AccursedCombat_pri  10
	#define	AccursedCombat_rev  128
	#define	AccursedCombat_mvl  127
	#define	AccursedCombat_key  0
	#define	AccursedCombat_tbs  1
	#define	AccursedCombat_exg  0
	#define	AccursedCombat_cmp  1

	// .rodata
	//	AccursedCombat
	ALIGN 4


//**************** Track 1 (Midi-Chn.0) ****************//

AccursedCombat_001:
// 000   ----------------------------------------
 BYTE   KEYSH   AccursedCombat_key+0
 BYTE   TEMPO   154*AccursedCombat_tbs/2
 BYTE   VOICE   0
 BYTE   VOL   60*AccursedCombat_mvl/mxv
 BYTE   W01
 BYTE   PAN   c_v+0
 BYTE   W11
 BYTE   N12  CsM2  v108
 BYTE   W24
 BYTE   N12
 BYTE   W24
 BYTE   N12
 BYTE   W24
 BYTE   N12
 BYTE   W24
// 001   ----------------------------------------
 BYTE   N12
 BYTE   W24
 BYTE   N12
 BYTE   W24
 BYTE   N12
 BYTE   W12
 BYTE   N06  DnM2
 BYTE   W06
 BYTE   N06
 BYTE   W06
 BYTE   N12  CsM2
 BYTE   W06
 BYTE   N01  DnM2
 BYTE   W01
 BYTE   N05
 BYTE   W05
 BYTE   N06
 BYTE   W06
 BYTE   N06
 BYTE   W06
// 002   ----------------------------------------
Label_0_0111A241:
 BYTE   N01  DnM2  v088
 BYTE   W01
 BYTE   N11  DnM2  v108
 BYTE   W11
 BYTE   N12  CsM2
 BYTE   W12
 BYTE   DnM2
 BYTE   W12
 BYTE   CsM2
 BYTE   W12
 BYTE   DnM2
 BYTE   W12
 BYTE   N06  CsM2
 BYTE   W06
 BYTE   N06
 BYTE   W06
 BYTE   N12  DnM2
 BYTE   W12
 BYTE   CsM2
 BYTE   W12
 BYTE   PEND 
// 003   ----------------------------------------
Label_0_0111A25D:
 BYTE   N01  DnM2  v088
 BYTE   W01
 BYTE   N11  DnM2  v108
 BYTE   W11
 BYTE   N12  CsM2
 BYTE   W12
 BYTE   DnM2
 BYTE   W12
 BYTE   N06  CsM2
 BYTE   W06
 BYTE   N06
 BYTE   W06
 BYTE   N12  DnM2
 BYTE   W12
 BYTE   CsM2
 BYTE   W12
 BYTE   DnM2
 BYTE   W12
 BYTE   N06  CsM2
 BYTE   W06
 BYTE   N06
 BYTE   W06
 BYTE   PEND 
 BYTE   PATT
  POIN2 Label_0_0111A241
// 004   ----------------------------------------
 BYTE   N06  CsM2  v108
 BYTE   W12
 BYTE   DnM2
 BYTE   W06
 BYTE   N06
 BYTE   W06
 BYTE   CsM2
 BYTE   W12
 BYTE   DnM2
 BYTE   W06
 BYTE   N06
 BYTE   W06
 BYTE   CsM2
 BYTE   N01  DnM2
 BYTE   W01
 BYTE   N05
 BYTE   W05
 BYTE   N06
 BYTE   W12
 BYTE   N06
 BYTE   W06
 BYTE   CsM2
 BYTE   N06  DnM2
 BYTE   W06
 BYTE   N06
 BYTE   W06
 BYTE   N06
 BYTE   W06
 BYTE   N05
 BYTE   W06
// 005   ----------------------------------------
Label_0_0111A2A3:
 BYTE   N06  CsM2  v108
 BYTE   W12
 BYTE   N06
 BYTE   W12
 BYTE   N01  DnM2
 BYTE   W01
 BYTE   N11
 BYTE   W11
 BYTE   N02  DnM2  v044
 BYTE   W02
 BYTE   DnM2  v048
 BYTE   W02
 BYTE   DnM2  v052
 BYTE   W02
 BYTE   N06  DnM2  v080
 BYTE   W06
 BYTE   CsM2  v108
 BYTE   W06
 BYTE   DnM2
 BYTE   W06
 BYTE   CsM2
 BYTE   W12
 BYTE   N12  DnM2
 BYTE   W12
 BYTE   N06  CsM2
 BYTE   W12
// 006   ----------------------------------------
Label_0_0111A2C9:
 BYTE   N06  CsM2  v108
 BYTE   W12
 BYTE   N06
 BYTE   W12
 BYTE   N01  DnM2
 BYTE   W01
 BYTE   N11
 BYTE   W11
 BYTE   N02  DnM2  v044
 BYTE   W02
 BYTE   DnM2  v048
 BYTE   W02
 BYTE   DnM2  v052
 BYTE   W02
 BYTE   N06  DnM2  v080
 BYTE   W06
 BYTE   CsM2  v108
 BYTE   W06
 BYTE   DnM2
 BYTE   W06
 BYTE   CsM2
 BYTE   W12
 BYTE   N12  DnM2
 BYTE   W12
 BYTE   N06  CsM2
 BYTE   W12
 BYTE   PEND 
 BYTE   PATT
  POIN2 Label_0_0111A2C9
 BYTE   PATT
  POIN2 Label_0_0111A2C9
// 007   ----------------------------------------
Label_0_0111A2FA:
 BYTE   N06  CsM2  v108
 BYTE   W12
 BYTE   N06
 BYTE   W12
 BYTE   N01  DnM2
 BYTE   W01
 BYTE   N11
 BYTE   W17
 BYTE   N06  DnM2  v080
 BYTE   W06
 BYTE   CsM2  v108
 BYTE   W24
 BYTE   DnM2
 BYTE   W12
 BYTE   CsM2
 BYTE   W12
 BYTE   PEND 
// 008   ----------------------------------------
Label_0_0111A311:
 BYTE   N06  CsM2  v108
 BYTE   W12
 BYTE   N06
 BYTE   W12
 BYTE   N01  DnM2
 BYTE   W01
 BYTE   N11
 BYTE   W17
 BYTE   N06  DnM2  v080
 BYTE   W06
 BYTE   CsM2  v108
 BYTE   W06
 BYTE   DnM2
 BYTE   W06
 BYTE   CsM2
 BYTE   W12
 BYTE   N12  DnM2
 BYTE   W12
 BYTE   N06  CsM2
 BYTE   W12
 BYTE   PEND 
 BYTE   PATT
  POIN2 Label_0_0111A311
 BYTE   PATT
  POIN2 Label_0_0111A311
// 009   ----------------------------------------
Label_0_0111A338:
 BYTE   N01  DnM2  v108
 BYTE   W01
 BYTE   N11
 BYTE   W11
 BYTE   N12  CsM2
 BYTE   W12
 BYTE   DnM2
 BYTE   W12
 BYTE   CsM2
 BYTE   W12
 BYTE   DnM2
 BYTE   W12
 BYTE   N06  CsM2
 BYTE   W06
 BYTE   N06
 BYTE   W06
 BYTE   N12  DnM2
 BYTE   W12
 BYTE   CsM2
 BYTE   W12
 BYTE   PEND 
// 010   ----------------------------------------
Label_0_0111A352:
 BYTE   N01  DnM2  v108
 BYTE   W01
 BYTE   N11
 BYTE   W11
 BYTE   N12  CsM2
 BYTE   W12
 BYTE   DnM2
 BYTE   W12
 BYTE   N06  CsM2
 BYTE   W06
 BYTE   N06
 BYTE   W06
 BYTE   N12  DnM2
 BYTE   W12
 BYTE   CsM2
 BYTE   W12
 BYTE   DnM2
 BYTE   W12
 BYTE   N06  CsM2
 BYTE   W06
 BYTE   N06
 BYTE   W06
 BYTE   PEND 
 BYTE   PATT
  POIN2 Label_0_0111A338
// 011   ----------------------------------------
Label_0_0111A374:
 BYTE   N06  CsM2  v108
 BYTE   N06  DnM2
 BYTE   W36
 BYTE   N01
 BYTE   W01
 BYTE   N05
 BYTE   W05
 BYTE   N06
 BYTE   W06
 BYTE   CsM2
 BYTE   W06
 BYTE   DnM2
 BYTE   W06
 BYTE   DnM2  v080
 BYTE   W06
 BYTE   CsM2  v108
 BYTE   W06
 BYTE   N01  DnM2
 BYTE   W01
 BYTE   N05
 BYTE   W05
 BYTE   N06  DnM2  v084
 BYTE   W06
 BYTE   CsM2  v108
 BYTE   W06
 BYTE   DnM2
 BYTE   W06
 BYTE   PEND 
 BYTE   PATT
  POIN2 Label_0_0111A2C9
 BYTE   PATT
  POIN2 Label_0_0111A2C9
 BYTE   PATT
  POIN2 Label_0_0111A2C9
 BYTE   PATT
  POIN2 Label_0_0111A2C9
 BYTE   PATT
  POIN2 Label_0_0111A2FA
 BYTE   PATT
  POIN2 Label_0_0111A311
 BYTE   PATT
  POIN2 Label_0_0111A311
 BYTE   PATT
  POIN2 Label_0_0111A311
 BYTE   PATT
  POIN2 Label_0_0111A338
 BYTE   PATT
  POIN2 Label_0_0111A352
 BYTE   PATT
  POIN2 Label_0_0111A338
 BYTE   PATT
  POIN2 Label_0_0111A374
 BYTE   PATT
  POIN2 Label_0_0111A2C9
 BYTE   PATT
  POIN2 Label_0_0111A2C9
// 012   ----------------------------------------
 BYTE   N06  CsM2  v108
 BYTE   W12
 BYTE   N01  DnM2
 BYTE   W01
 BYTE   N05
 BYTE   W05
 BYTE   N06
 BYTE   W06
 BYTE   N01
 BYTE   W01
 BYTE   N05
 BYTE   W11
 BYTE   N06  CsM2
 BYTE   W12
 BYTE   DnM2
 BYTE   W06
 BYTE   N06
 BYTE   W06
 BYTE   N01
 BYTE   W01
 BYTE   N05
 BYTE   W11
 BYTE   N06  CsM2
 BYTE   W12
 BYTE   DnM2
 BYTE   W06
 BYTE   N06
 BYTE   W06
// 013   ----------------------------------------
 BYTE   N01
 BYTE   W01
 BYTE   N05
 BYTE   W11
 BYTE   N06  CsM2
 BYTE   W12
 BYTE   DnM2
 BYTE   W06
 BYTE   N06
 BYTE   W06
 BYTE   N06
 BYTE   W12
 BYTE   CsM2
 BYTE   W12
 BYTE   DnM2
 BYTE   W06
 BYTE   N06
 BYTE   W06
 BYTE   CsM2
 BYTE   N01  DnM2
 BYTE   W01
 BYTE   N05
 BYTE   W05
 BYTE   N06  DnM2  v084
 BYTE   W06
 BYTE   DnM2  v108
 BYTE   W06
 BYTE   DnM2  v088
 BYTE   W06
 BYTE   PATT
  POIN2 Label_0_0111A2C9
 BYTE   PATT
  POIN2 Label_0_0111A2C9
// 014   ----------------------------------------
Label_0_0111A42D:
 BYTE   N06  CsM2  v108
 BYTE   W12
 BYTE   DnM2
 BYTE   W06
 BYTE   N06
 BYTE   W06
 BYTE   N01
 BYTE   W01
 BYTE   N05
 BYTE   W05
 BYTE   N06
 BYTE   W06
 BYTE   N06
 BYTE   W06
 BYTE   N06
 BYTE   W06
 BYTE   CsM2
 BYTE   W12
 BYTE   DnM2
 BYTE   W06
 BYTE   N06
 BYTE   W06
 BYTE   N01
 BYTE   W01
 BYTE   N05
 BYTE   W05
 BYTE   N06
 BYTE   W06
 BYTE   N06
 BYTE   W06
 BYTE   N06
 BYTE   W06
 BYTE   PEND 
 BYTE   PATT
  POIN2 Label_0_0111A42D
 BYTE   PATT
  POIN2 Label_0_0111A2C9
 BYTE   PATT
  POIN2 Label_0_0111A2C9
 BYTE   PATT
  POIN2 Label_0_0111A2C9
 BYTE   PATT
  POIN2 Label_0_0111A2C9
 BYTE   PATT
  POIN2 Label_0_0111A2C9
 BYTE   PATT
  POIN2 Label_0_0111A2C9
 BYTE   PATT
  POIN2 Label_0_0111A241
 BYTE   PATT
  POIN2 Label_0_0111A25D
// 015   ----------------------------------------
 BYTE   GoTo
  POIN2 Label_0_0111A2A3
 BYTE   FINE

//**************** Track 2 (Midi-Chn.1) ****************//

AccursedCombat_002:
// 000   ----------------------------------------
 BYTE   KEYSH   AccursedCombat_key+0
 BYTE   VOICE   8
 BYTE   VOL   70*AccursedCombat_mvl/mxv
 BYTE   W01
 BYTE   PAN   c_v+0
 BYTE   MOD 0
 BYTE   CnM2
 BYTE   W01
 BYTE   BEND   c_v+0
 BYTE   W10
 BYTE   MOD 0
 BYTE   CnM2
 BYTE   N04  Cn4  v127
 BYTE   W06
 BYTE   Gn3
 BYTE   W04
 BYTE   N02  Cn4  v068
 BYTE   W02
 BYTE   N04  Cn4  v127
 BYTE   W04
 BYTE   N02  Gn3  v068
 BYTE   W02
 BYTE   N04  Dn4  v127
 BYTE   W04
 BYTE   N02  Cn4  v068
 BYTE   W02
 BYTE   N04  Ds4  v127
 BYTE   W04
 BYTE   N02  Dn4  v068
 BYTE   W02
 BYTE   N04  Dn4  v127
 BYTE   W04
 BYTE   N02  Ds4  v068
 BYTE   W02
 BYTE   N04  Cn4  v127
 BYTE   W04
 BYTE   N02  Dn4  v068
 BYTE   W02
 BYTE   N04  Ds4  v127
 BYTE   W04
 BYTE   N02  Cn4  v068
 BYTE   W02
 BYTE   N04  Fn4  v127
 BYTE   W04
 BYTE   N02  Ds4  v068
 BYTE   W02
 BYTE   N04  Cn4  v127
 BYTE   W04
 BYTE   N02  Fn4  v068
 BYTE   W02
 BYTE   N04  An3  v127
 BYTE   W04
 BYTE   N02  Cn4  v068
 BYTE   W02
 BYTE   N04  Fn3  v127
 BYTE   W04
 BYTE   N02  An3  v068
 BYTE   W02
 BYTE   N04  An3  v127
 BYTE   W04
 BYTE   N02  Fn3  v068
 BYTE   W02
 BYTE   N04  Cn4  v127
 BYTE   W04
 BYTE   N02  An3  v068
 BYTE   W02
// 001   ----------------------------------------
 BYTE   N04  Fn4  v127
 BYTE   W04
 BYTE   N02  Cn4  v068
 BYTE   W02
 BYTE   N04  Cn4  v127
 BYTE   W04
 BYTE   N02  Fn4  v068
 BYTE   W02
 BYTE   N04  Cn4  v127
 BYTE   W04
 BYTE   N02  Cn4  v068
 BYTE   W02
 BYTE   N04  Gn3  v127
 BYTE   W04
 BYTE   N02  Cn4  v068
 BYTE   W02
 BYTE   N04  Cn4  v127
 BYTE   W04
 BYTE   N02  Gn3  v068
 BYTE   W02
 BYTE   N04  Dn4  v127
 BYTE   W04
 BYTE   N02  Cn4  v068
 BYTE   W02
 BYTE   N04  Ds4  v127
 BYTE   W04
 BYTE   N02  Dn4  v068
 BYTE   W02
 BYTE   N04  Dn4  v127
 BYTE   W04
 BYTE   N02  Ds4  v068
 BYTE   W02
 BYTE   N04  Cn4  v127
 BYTE   W04
 BYTE   N02  Dn4  v068
 BYTE   W02
 BYTE   N04  Ds4  v127
 BYTE   W04
 BYTE   N02  Cn4  v068
 BYTE   W02
 BYTE   N04  Fn4  v127
 BYTE   W04
 BYTE   N02  Ds4  v068
 BYTE   W02
 BYTE   N04  Cn4  v127
 BYTE   W04
 BYTE   N02  Fn4  v068
 BYTE   W02
 BYTE   N04  An3  v127
 BYTE   W04
 BYTE   N02  Cn4  v068
 BYTE   W02
 BYTE   N04  Fn3  v127
 BYTE   W04
 BYTE   N02  An3  v068
 BYTE   W02
 BYTE   N04  An3  v127
 BYTE   W04
 BYTE   N02  Fn3  v068
 BYTE   W02
 BYTE   N04  Cn4  v127
 BYTE   W04
 BYTE   N02  An3  v068
 BYTE   W02
// 002   ----------------------------------------
 BYTE   N04  Fn4  v127
 BYTE   W04
 BYTE   N02  Cn4  v068
 BYTE   W02
 BYTE   N04  An4  v127
 BYTE   W04
 BYTE   N02  Fn4  v068
 BYTE   W02
 BYTE   N04  Gn4  v127
 BYTE   W04
 BYTE   N02  An4  v068
 BYTE   W02
 BYTE   N04  En4  v127
 BYTE   W04
 BYTE   N02  Gn4  v068
 BYTE   W02
 BYTE   N04  Cs4  v127
 BYTE   W04
 BYTE   N02  En4  v068
 BYTE   W02
 BYTE   N04  An3  v127
 BYTE   W04
 BYTE   N02  Cs4  v068
 BYTE   W02
 BYTE   N04  Gn4  v127
 BYTE   W04
 BYTE   N02  An3  v068
 BYTE   W02
 BYTE   N04  En4  v127
 BYTE   W04
 BYTE   N02  Gn4  v068
 BYTE   W02
 BYTE   N04  Cs4  v127
 BYTE   W04
 BYTE   N02  En4  v068
 BYTE   W02
 BYTE   N04  An3  v127
 BYTE   W04
 BYTE   N02  Cs4  v068
 BYTE   W02
 BYTE   N04  Gn4  v127
 BYTE   W04
 BYTE   N02  An3  v068
 BYTE   W02
 BYTE   N04  En4  v127
 BYTE   W04
 BYTE   N02  Gn4  v068
 BYTE   W02
 BYTE   N04  Cs4  v127
 BYTE   W04
 BYTE   N02  En4  v068
 BYTE   W02
 BYTE   N04  An3  v127
 BYTE   W04
 BYTE   N02  Cs4  v068
 BYTE   W02
 BYTE   N04  Gn4  v127
 BYTE   W04
 BYTE   N02  An3  v068
 BYTE   W02
 BYTE   N04  En4  v127
 BYTE   W04
 BYTE   N02  Gn4  v068
 BYTE   W02
// 003   ----------------------------------------
 BYTE   N04  Cs4  v127
 BYTE   W04
 BYTE   N02  En4  v068
 BYTE   W02
 BYTE   N04  An3  v127
 BYTE   W04
 BYTE   N02  Cs4  v068
 BYTE   W02
 BYTE   N04  Fn4  v127
 BYTE   W04
 BYTE   N02  An3  v068
 BYTE   W02
 BYTE   N04  Dn4  v127
 BYTE   W04
 BYTE   N02  Fn4  v068
 BYTE   W02
 BYTE   N04  An3  v127
 BYTE   W04
 BYTE   N02  Dn4  v068
 BYTE   W02
 BYTE   N04  Fn3  v127
 BYTE   W04
 BYTE   N02  An3  v068
 BYTE   W02
 BYTE   N04  Fn4  v127
 BYTE   W04
 BYTE   N02  Fn3  v068
 BYTE   W02
 BYTE   N04  Dn4  v127
 BYTE   W04
 BYTE   N02  Fn4  v068
 BYTE   W02
 BYTE   N04  An3  v127
 BYTE   W04
 BYTE   N02  Dn4  v068
 BYTE   W02
 BYTE   N04  Fn3  v127
 BYTE   W04
 BYTE   N02  An3  v068
 BYTE   W02
 BYTE   N04  Fn4  v127
 BYTE   W04
 BYTE   N02  Fn3  v068
 BYTE   W02
 BYTE   N04  Dn4  v127
 BYTE   W04
 BYTE   N02  Fn4  v068
 BYTE   W02
 BYTE   N04  An3  v127
 BYTE   W04
 BYTE   N02  Dn4  v068
 BYTE   W02
 BYTE   N04  Fn3  v127
 BYTE   W04
 BYTE   N02  An3  v068
 BYTE   W02
 BYTE   N04  Fn4  v127
 BYTE   W04
 BYTE   N02  Fn3  v068
 BYTE   W02
 BYTE   N04  Dn4  v127
 BYTE   W04
 BYTE   N02  Fn4  v068
 BYTE   W02
// 004   ----------------------------------------
 BYTE   N04  An3  v127
 BYTE   W04
 BYTE   N02  Dn4  v068
 BYTE   W02
 BYTE   N04  Fn3  v127
 BYTE   W04
 BYTE   N02  An3  v068
 BYTE   W02
 BYTE   N04  En4  v127
 BYTE   W04
 BYTE   N02  Fn3  v068
 BYTE   W02
 BYTE   N04  Bn3  v127
 BYTE   W04
 BYTE   N02  En4  v068
 BYTE   W02
 BYTE   N04  Gs3  v127
 BYTE   W04
 BYTE   N02  Bn3  v068
 BYTE   W02
 BYTE   N04  En3  v127
 BYTE   W04
 BYTE   N02  Gs3  v068
 BYTE   W02
 BYTE   N04  En4  v127
 BYTE   W04
 BYTE   N02  En3  v068
 BYTE   W02
 BYTE   N04  Bn3  v127
 BYTE   W04
 BYTE   N02  En4  v068
 BYTE   W02
 BYTE   N04  Gs3  v127
 BYTE   W04
 BYTE   N02  Bn3  v068
 BYTE   W02
 BYTE   N04  En3  v127
 BYTE   W04
 BYTE   N02  Gs3  v068
 BYTE   W02
 BYTE   N04  Dn4  v127
 BYTE   W04
 BYTE   N02  En3  v068
 BYTE   W02
 BYTE   N04  Bn3  v127
 BYTE   W04
 BYTE   N02  Dn4  v068
 BYTE   W02
 BYTE   N04  Gs3  v127
 BYTE   W04
 BYTE   N02  Bn3  v068
 BYTE   W02
 BYTE   N04  En3  v127
 BYTE   W04
 BYTE   N02  Gs3  v068
 BYTE   W02
 BYTE   N04  Dn4  v127
 BYTE   W04
 BYTE   N02  En3  v068
 BYTE   W02
 BYTE   N04  Bn3  v127
 BYTE   W04
 BYTE   N02  Dn4  v068
 BYTE   W02
// 005   ----------------------------------------
 BYTE   N04  Gs3  v127
 BYTE   W04
 BYTE   N02  Bn3  v068
 BYTE   W02
 BYTE   N04  En3  v127
 BYTE   W04
 BYTE   N02  Gs3  v068
 BYTE   W02
 BYTE   N04  Cs4  v127
 BYTE   W04
 BYTE   N02  En3  v068
 BYTE   W02
 BYTE   N04  An3  v127
 BYTE   W04
 BYTE   N02  Cs4  v068
 BYTE   W02
 BYTE   N04  Gn3  v127
 BYTE   W04
 BYTE   N02  An3  v068
 BYTE   W02
 BYTE   N04  En3  v127
 BYTE   W04
 BYTE   N02  Gn3  v068
 BYTE   W02
 BYTE   N04  Cs4  v127
 BYTE   W04
 BYTE   N02  En3  v068
 BYTE   W02
 BYTE   N04  An3  v127
 BYTE   W04
 BYTE   N02  Cs4  v068
 BYTE   W02
 BYTE   N04  Gn3  v127
 BYTE   W04
 BYTE   N02  An3  v068
 BYTE   W02
 BYTE   N04  En3  v127
 BYTE   W04
 BYTE   N02  Gn3  v068
 BYTE   W02
 BYTE   N04  Cs3  v127
 BYTE   W04
 BYTE   N02  En3  v068
 BYTE   W02
 BYTE   N04  An2  v127
 BYTE   W04
 BYTE   N02  Cs3  v068
 BYTE   W02
 BYTE   N04  Cs3  v127
 BYTE   W04
 BYTE   N02  An2  v068
 BYTE   W02
 BYTE   N04  En3  v127
 BYTE   W04
 BYTE   N02  Cs3  v068
 BYTE   W02
 BYTE   N04  An3  v127
 BYTE   W04
 BYTE   N02  En3  v068
 BYTE   W02
 BYTE   N04  Cs4  v127
 BYTE   W04
 BYTE   N02  An3  v068
 BYTE   W02
// 006   ----------------------------------------
 BYTE   N04  En4  v127
 BYTE   W04
 BYTE   N02  Cs4  v068
 BYTE   W02
 BYTE   N04  An4  v127
 BYTE   W04
 BYTE   N02  En4  v068
 BYTE   W01
 BYTE   VOICE   13
 BYTE   W01
Label_1_0111A791:
 BYTE   VOL   60*AccursedCombat_mvl/mxv
 BYTE   N12  Dn3  v127
 BYTE   W12
 BYTE   N06  En3
 BYTE   W12
 BYTE   N30  Fn3
 BYTE   W36
 BYTE   N12  Dn3
 BYTE   W12
 BYTE   En3
 BYTE   W12
// 007   ----------------------------------------
 BYTE   Fn3
 BYTE   W12
Label_1_0111A7A4:
 BYTE   N12  Gn3  v127
 BYTE   W12
 BYTE   Fn3
 BYTE   W12
 BYTE   En3
 BYTE   W12
 BYTE   Fn3
 BYTE   W12
 BYTE   En3
 BYTE   W12
 BYTE   Dn3
 BYTE   W12
 BYTE   Cn3
 BYTE   W12
// 008   ----------------------------------------
 BYTE   An2
 BYTE   W12
 BYTE   PEND 
Label_1_0111A7B7:
 BYTE   N12  Dn3  v127
 BYTE   W12
 BYTE   N06  En3
 BYTE   W12
 BYTE   N30  Fn3
 BYTE   W36
 BYTE   N12  En3
 BYTE   W12
 BYTE   Fn3
 BYTE   W12
// 009   ----------------------------------------
 BYTE   Gn3
 BYTE   W12
 BYTE   PEND 
Label_1_0111A7C9:
 BYTE   N24  An3  v127
 BYTE   W24
 BYTE   Cn4
 BYTE   W24
 BYTE   Bn3
 BYTE   W24
 BYTE   Gn3
 BYTE   W24
 BYTE   PEND 
// 010   ----------------------------------------
 BYTE   As3
 BYTE   W24
 BYTE   N06  Fn3
 BYTE   W12
 BYTE   N78  Dn3  v120
 BYTE   W36
 BYTE   MOD 0
 BYTE   FnM2
 BYTE   W24
// 011   ----------------------------------------
 BYTE   W18
 BYTE   CnM2
 BYTE   W06
 BYTE   N24  Dn3  v124
 BYTE   W24
 BYTE   Fn3
 BYTE   W24
 BYTE   As3
 BYTE   W24
// 012   ----------------------------------------
 BYTE   Bn3  v120
 BYTE   W24
 BYTE   N06  Fn3
 BYTE   W12
 BYTE   N78  Dn3  v112
 BYTE   W36
 BYTE   MOD 0
 BYTE   FnM2
 BYTE   W24
// 013   ----------------------------------------
 BYTE   W18
 BYTE   CnM2
 BYTE   W06
 BYTE   N24  En3
 BYTE   W24
 BYTE   Fn3
 BYTE   W24
 BYTE   As3
 BYTE   W24
// 014   ----------------------------------------
 BYTE   N06  An3  v116
 BYTE   W06
 BYTE   Gn3
 BYTE   W06
 BYTE   TIE  An3
 BYTE   W48
 BYTE   MOD 0
 BYTE   FnM2
 BYTE   W36
// 015   ----------------------------------------
 BYTE   W84
 BYTE   EOT
 BYTE   W06
 BYTE   MOD 0
 BYTE   CnM2
 BYTE   W06
// 016   ----------------------------------------
 BYTE   W96
// 017   ----------------------------------------
 BYTE   W96
// 018   ----------------------------------------
 BYTE   N12  Dn3  v127
 BYTE   W12
 BYTE   N06  En3
 BYTE   W12
 BYTE   N30  Fn3
 BYTE   W36
 BYTE   N12  Dn3
 BYTE   W12
 BYTE   En3
 BYTE   W12
 BYTE   Fn3
 BYTE   W12
 BYTE   PATT
  POIN2 Label_1_0111A7A4
 BYTE   PATT
  POIN2 Label_1_0111A7B7
 BYTE   PATT
  POIN2 Label_1_0111A7C9
// 019   ----------------------------------------
 BYTE   N24  As3  v120
 BYTE   W24
 BYTE   N06  Fn3
 BYTE   W12
 BYTE   N78  Dn3  v116
 BYTE   W36
 BYTE   MOD 0
 BYTE   FnM2
 BYTE   W24
// 020   ----------------------------------------
 BYTE   W24
 BYTE   CnM2
 BYTE   N24
 BYTE   W24
 BYTE   Fn3
 BYTE   W24
 BYTE   As3
 BYTE   W24
// 021   ----------------------------------------
 BYTE   Bn3  v112
 BYTE   W24
 BYTE   N06  Fn3
 BYTE   W12
 BYTE   N78  Dn3
 BYTE   W42
 BYTE   MOD 0
 BYTE   FnM2
 BYTE   W18
// 022   ----------------------------------------
 BYTE   W18
 BYTE   CnM2
 BYTE   W06
 BYTE   N24  En3  v116
 BYTE   W24
 BYTE   Fn3
 BYTE   W24
 BYTE   As3
 BYTE   W24
// 023   ----------------------------------------
 BYTE   N06  An3
 BYTE   W06
 BYTE   Gn3
 BYTE   W06
 BYTE   TIE  An3
 BYTE   W42
 BYTE   MOD 0
 BYTE   FnM2
 BYTE   W42
// 024   ----------------------------------------
 BYTE   W84
 BYTE   EOT
 BYTE   MOD 0
 BYTE   CnM2
 BYTE   W12
// 025   ----------------------------------------
 BYTE   W96
// 026   ----------------------------------------
 BYTE   W92
 BYTE   W03
 BYTE   VOICE   17
 BYTE   W01
// 027   ----------------------------------------
 BYTE   N12  As3  v096
 BYTE   W12
 BYTE   N06  Cn4
 BYTE   W12
 BYTE   N01  Cs4
 BYTE   W01
 BYTE   N30  Dn4
 BYTE   W32
 BYTE   W03
 BYTE   N07  As3
 BYTE   W12
 BYTE   N12  Cn4
 BYTE   W12
 BYTE   Dn4
 BYTE   W12
// 028   ----------------------------------------
 BYTE   N01  Ds4
 BYTE   W01
 BYTE   N22  En4
 BYTE   W23
 BYTE   N21  Cn4
 BYTE   W21
 BYTE   N01  Bn3  v076
 BYTE   W01
 BYTE   As3
 BYTE   W24
 BYTE   W02
 BYTE   N24  Cn4  v092
 BYTE   W24
// 029   ----------------------------------------
 BYTE   N03  Gs3
 BYTE   W03
 BYTE   TIE  An3
 BYTE   W92
 BYTE   W01
// 030   ----------------------------------------
 BYTE   W44
 BYTE   W03
 BYTE   EOT
 BYTE   W13
 BYTE   N06  Fn3  v096
 BYTE   W12
 BYTE   N12  Gn3
 BYTE   W12
 BYTE   An3
 BYTE   W12
// 031   ----------------------------------------
 BYTE   N03
 BYTE   W03
 BYTE   N56  As3
 BYTE   W56
 BYTE   W01
 BYTE   N06  Dn4  v092
 BYTE   W12
 BYTE   N12  Fn4
 BYTE   W12
 BYTE   N03  An4
 BYTE   W03
 BYTE   N32  As4
 BYTE   W09
// 032   ----------------------------------------
 BYTE   W24
 BYTE   N18  Fn4
 BYTE   W24
 BYTE   N09  Dn4
 BYTE   W12
 BYTE   N03  An4
 BYTE   W03
 BYTE   N24  As4
 BYTE   W24
 BYTE   W03
 BYTE   N01  Fn4  v080
 BYTE   W01
 BYTE   Dn4  v072
 BYTE   W02
 BYTE   As3
 BYTE   W01
 BYTE   Fn3  v064
 BYTE   W02
// 033   ----------------------------------------
 BYTE   TIE  An4  v092
 BYTE   W96
// 034   ----------------------------------------
 BYTE   W48
 BYTE   EOT
 BYTE   W44
 BYTE   VOICE   22
 BYTE   W04
// 035   ----------------------------------------
 BYTE   N12  Dn4  v116
 BYTE   W12
 BYTE   En4
 BYTE   W12
 BYTE   Fn4
 BYTE   W12
 BYTE   Dn4
 BYTE   W12
 BYTE   Gn4
 BYTE   W12
 BYTE   Dn4
 BYTE   W12
 BYTE   Fn4
 BYTE   W12
 BYTE   Dn4
 BYTE   W12
// 036   ----------------------------------------
 BYTE   Cn4
 BYTE   W12
 BYTE   Dn4
 BYTE   W12
 BYTE   En4
 BYTE   W12
 BYTE   Cn4
 BYTE   W12
 BYTE   Fn4
 BYTE   W12
 BYTE   Cn4
 BYTE   W12
 BYTE   En4
 BYTE   W12
 BYTE   Cn4
 BYTE   W12
// 037   ----------------------------------------
 BYTE   As3
 BYTE   W12
 BYTE   Cn4
 BYTE   W12
 BYTE   Dn4
 BYTE   W12
 BYTE   As3
 BYTE   W12
 BYTE   Fn4
 BYTE   W12
 BYTE   As3
 BYTE   W12
 BYTE   Dn4
 BYTE   W12
 BYTE   As3
 BYTE   W12
// 038   ----------------------------------------
 BYTE   Cs4
 BYTE   W12
 BYTE   Dn4
 BYTE   W12
 BYTE   En4
 BYTE   W12
 BYTE   An3
 BYTE   W12
 BYTE   An4
 BYTE   W12
 BYTE   An3
 BYTE   W12
 BYTE   Gn4
 BYTE   W12
 BYTE   An3
 BYTE   W12
// 039   ----------------------------------------
 BYTE   As4
 BYTE   W12
 BYTE   Fn4
 BYTE   W12
 BYTE   Dn4
 BYTE   W12
 BYTE   As3
 BYTE   W12
 BYTE   Fn3
 BYTE   W12
 BYTE   As3
 BYTE   W12
 BYTE   Dn4
 BYTE   W12
 BYTE   As4
 BYTE   W12
// 040   ----------------------------------------
 BYTE   Bn4
 BYTE   W12
 BYTE   Fn4
 BYTE   W12
 BYTE   Dn4
 BYTE   W12
 BYTE   Bn3
 BYTE   W12
 BYTE   Fn3
 BYTE   W12
 BYTE   Bn3
 BYTE   W12
 BYTE   Dn4
 BYTE   W12
 BYTE   Bn4
 BYTE   W12
// 041   ----------------------------------------
 BYTE   N90  Cs5
 BYTE   W92
 BYTE   W03
 BYTE   En5
 BYTE   W01
// 042   ----------------------------------------
 BYTE   W92
 BYTE   VOICE   13
 BYTE   W04
// 043   ----------------------------------------
 BYTE   GoTo
  POIN2 Label_1_0111A791
 BYTE   FINE

//**************** Track 3 (Midi-Chn.2) ****************//

AccursedCombat_003:
// 000   ----------------------------------------
 BYTE   KEYSH   AccursedCombat_key+0
 BYTE   VOICE   8
 BYTE   VOL   60*AccursedCombat_mvl/mxv
 BYTE   W01
 BYTE   PAN   c_v+0
 BYTE   MOD 0
 BYTE   CnM2
 BYTE   W01
 BYTE   BEND   c_v+0
 BYTE   W10
Label_2_0111A96F:
 BYTE   N48  Gn2  v092
 BYTE   W48
 BYTE   An2
 BYTE   W48
 BYTE   PEND 
 BYTE   PATT
  POIN2 Label_2_0111A96F
// 001   ----------------------------------------
 BYTE   N96  Cs3  v092
 BYTE   W96
// 002   ----------------------------------------
 BYTE   Dn3
 BYTE   W96
// 003   ----------------------------------------
 BYTE   N48  Bn2
 BYTE   W48
 BYTE   Dn3
 BYTE   W48
// 004   ----------------------------------------
 BYTE   N92  Cs3
 BYTE   W96
// 005   ----------------------------------------
Label_2_0111A989:
 BYTE   N48  Dn3  v092
 BYTE   W48
 BYTE   N24  En3
 BYTE   W24
 BYTE   Fn3
 BYTE   W24
// 006   ----------------------------------------
Label_2_0111A992:
 BYTE   N48  Gn3  v092
 BYTE   W48
 BYTE   Cn4
 BYTE   W48
 BYTE   PEND 
// 007   ----------------------------------------
 BYTE   N96  An3
 BYTE   W96
// 008   ----------------------------------------
Label_2_0111A99C:
 BYTE   N24  Fn3  v092
 BYTE   W24
 BYTE   Cn3
 BYTE   W24
 BYTE   N48  Dn3
 BYTE   W48
 BYTE   PEND 
// 009   ----------------------------------------
 BYTE   N72  Dn4  v080
 BYTE   W96
// 010   ----------------------------------------
 BYTE   N96  Fn4
 BYTE   W96
// 011   ----------------------------------------
 BYTE   TIE  Fn4  v072
 BYTE   W96
// 012   ----------------------------------------
 BYTE   W48
 BYTE   EOT
 BYTE   N48  Gn4  v084
 BYTE   W48
// 013   ----------------------------------------
 BYTE   N96  En4
 BYTE   W96
// 014   ----------------------------------------
 BYTE   Cs4
 BYTE   W96
// 015   ----------------------------------------
 BYTE   An3  v092
 BYTE   W96
// 016   ----------------------------------------
 BYTE   W42
 BYTE   VOICE   35
 BYTE   W06
 BYTE   N06  An3  v056
 BYTE   W06
 BYTE   As3
 BYTE   W06
 BYTE   An3
 BYTE   W06
 BYTE   Gn3
 BYTE   W06
 BYTE   Fn3
 BYTE   W06
 BYTE   En3
 BYTE   W06
 BYTE   Dn3
 BYTE   W06
 BYTE   N05  Cs3
 BYTE   W05
 BYTE   VOICE   8
 BYTE   W01
// 017   ----------------------------------------
 BYTE   N48  Dn3  v092
 BYTE   W48
 BYTE   N24  En3
 BYTE   W24
 BYTE   Fn3
 BYTE   W24
 BYTE   PATT
  POIN2 Label_2_0111A992
// 018   ----------------------------------------
 BYTE   N96  An3  v092
 BYTE   W96
 BYTE   PATT
  POIN2 Label_2_0111A99C
// 019   ----------------------------------------
 BYTE   N96  Dn4  v076
 BYTE   W96
// 020   ----------------------------------------
 BYTE   Fn4  v072
 BYTE   W96
// 021   ----------------------------------------
 BYTE   TIE  Fn4  v068
 BYTE   W96
// 022   ----------------------------------------
 BYTE   W48
 BYTE   EOT
 BYTE   N48  Gn4  v076
 BYTE   W48
// 023   ----------------------------------------
 BYTE   TIE  En4  v080
 BYTE   W96
// 024   ----------------------------------------
 BYTE   W96
// 025   ----------------------------------------
 BYTE   W96
// 026   ----------------------------------------
 BYTE   EOT
 BYTE   W42
 BYTE   VOICE   35
 BYTE   W06
 BYTE   N06  An3  v056
 BYTE   W06
 BYTE   As3
 BYTE   W06
 BYTE   An3
 BYTE   W06
 BYTE   Gn3
 BYTE   W06
 BYTE   Fn3
 BYTE   W06
 BYTE   En3
 BYTE   W06
 BYTE   Dn3
 BYTE   W06
 BYTE   N05  Cs3
 BYTE   W06
// 027   ----------------------------------------
 BYTE   W12
 BYTE   VOICE   8
 BYTE   W12
 BYTE   N24  Dn2  v088
 BYTE   W24
 BYTE   En2
 BYTE   W24
 BYTE   Fn2
 BYTE   W24
// 028   ----------------------------------------
 BYTE   N48  Gn2
 BYTE   W48
 BYTE   N24  An2
 BYTE   W24
 BYTE   As2
 BYTE   W24
// 029   ----------------------------------------
 BYTE   N30  Dn3
 BYTE   W36
 BYTE   Fn3
 BYTE   W36
 BYTE   Dn3
 BYTE   W24
// 030   ----------------------------------------
 BYTE   W12
 BYTE   Gn3
 BYTE   W36
 BYTE   N24  Fn3
 BYTE   W24
 BYTE   En3
 BYTE   W24
// 031   ----------------------------------------
 BYTE   N48  Fn2
 BYTE   W48
 BYTE   As2
 BYTE   W48
// 032   ----------------------------------------
 BYTE   Dn3
 BYTE   W48
 BYTE   Fn3
 BYTE   W48
// 033   ----------------------------------------
 BYTE   N30  Cs3  v112
 BYTE   W36
 BYTE   N06
 BYTE   W12
 BYTE   N12  Dn3
 BYTE   W18
 BYTE   En3
 BYTE   W18
 BYTE   Dn3
 BYTE   W12
// 034   ----------------------------------------
 BYTE   N30  Cs3
 BYTE   W36
 BYTE   N12
 BYTE   W12
 BYTE   As2
 BYTE   W18
 BYTE   Ds3
 BYTE   W18
 BYTE   Gn3
 BYTE   W12
// 035   ----------------------------------------
 BYTE   N96  Dn3  v080
 BYTE   W96
// 036   ----------------------------------------
 BYTE   N72  En3
 BYTE   W72
 BYTE   N24  Gn3
 BYTE   W24
// 037   ----------------------------------------
 BYTE   N96  Fn3
 BYTE   W96
// 038   ----------------------------------------
 BYTE   N24  En3
 BYTE   W24
 BYTE   Fn3
 BYTE   W24
 BYTE   Gn3
 BYTE   W24
 BYTE   En3
 BYTE   W24
// 039   ----------------------------------------
 BYTE   N96  Fn3
 BYTE   W96
// 040   ----------------------------------------
 BYTE   N96
 BYTE   W96
// 041   ----------------------------------------
 BYTE   N48  En3
 BYTE   W48
 BYTE   Gn3
 BYTE   W48
// 042   ----------------------------------------
 BYTE   As3
 BYTE   W48
 BYTE   Cs4
 BYTE   W48
// 043   ----------------------------------------
 BYTE   GoTo
  POIN2 Label_2_0111A989
 BYTE   FINE

//**************** Track 4 (Midi-Chn.3) ****************//

AccursedCombat_004:
// 000   ----------------------------------------
 BYTE   KEYSH   AccursedCombat_key+0
 BYTE   VOICE   22
 BYTE   VOL   60*AccursedCombat_mvl/mxv
 BYTE   W01
 BYTE   PAN   c_v+0
 BYTE   MOD 0
 BYTE   CnM2
 BYTE   W01
 BYTE   BEND   c_v+0
 BYTE   W10
 BYTE   N48  Ds4  v068
 BYTE   W48
 BYTE   Fn4
 BYTE   W48
// 001   ----------------------------------------
 BYTE   Gn4
 BYTE   W48
 BYTE   An4
 BYTE   W48
// 002   ----------------------------------------
 BYTE   N24  An3  v080
 BYTE   W24
 BYTE   Cs4
 BYTE   W24
 BYTE   En4
 BYTE   W24
 BYTE   Gn4
 BYTE   W24
// 003   ----------------------------------------
 BYTE   Fn4
 BYTE   W24
 BYTE   An4
 BYTE   W24
 BYTE   Dn4
 BYTE   W24
 BYTE   Fn4
 BYTE   W24
// 004   ----------------------------------------
 BYTE   En4
 BYTE   W24
 BYTE   Gs4
 BYTE   W24
 BYTE   Bn4
 BYTE   W24
 BYTE   Dn5
 BYTE   W24
// 005   ----------------------------------------
 BYTE   N12  An4  v100
 BYTE   W12
 BYTE   As4
 BYTE   W12
 BYTE   An4
 BYTE   W12
 BYTE   Gn4
 BYTE   W12
 BYTE   Fn4
 BYTE   W12
 BYTE   En4
 BYTE   W12
 BYTE   Dn4
 BYTE   W12
 BYTE   N11  Cs4
 BYTE   W11
 BYTE   VOICE   36
 BYTE   W01
// 006   ----------------------------------------
Label_3_0111AAD6:
 BYTE   VOL   52*AccursedCombat_mvl/mxv
 BYTE   N96  An3  v036
 BYTE   W96
// 007   ----------------------------------------
 BYTE   Gn3
 BYTE   W96
// 008   ----------------------------------------
 BYTE   An3
 BYTE   W96
// 009   ----------------------------------------
Label_3_0111AAE0:
 BYTE   N48  An3  v036
 BYTE   W48
 BYTE   Bn3
 BYTE   W48
 BYTE   PEND 
// 010   ----------------------------------------
 BYTE   N96  As3  v032
 BYTE   W96
// 011   ----------------------------------------
Label_3_0111AAEB:
 BYTE   N24  Dn4  v028
 BYTE   W24
 BYTE   As3
 BYTE   W24
 BYTE   Fn3
 BYTE   W24
 BYTE   Dn3
 BYTE   W24
 BYTE   PEND 
// 012   ----------------------------------------
 BYTE   N96  Bn3
 BYTE   W96
// 013   ----------------------------------------
 BYTE   N96
 BYTE   W96
// 014   ----------------------------------------
 BYTE   N48  Cs4
 BYTE   W48
 BYTE   Dn4
 BYTE   W48
// 015   ----------------------------------------
 BYTE   En4
 BYTE   W48
 BYTE   Fn4
 BYTE   W48
// 016   ----------------------------------------
 BYTE   N96  Gn4  v036
 BYTE   W96
// 017   ----------------------------------------
 BYTE   W96
// 018   ----------------------------------------
 BYTE   An3
 BYTE   W96
// 019   ----------------------------------------
 BYTE   Gn3
 BYTE   W96
// 020   ----------------------------------------
 BYTE   An3
 BYTE   W96
 BYTE   PATT
  POIN2 Label_3_0111AAE0
// 021   ----------------------------------------
 BYTE   N96  As3  v028
 BYTE   W96
 BYTE   PATT
  POIN2 Label_3_0111AAEB
// 022   ----------------------------------------
 BYTE   N96  Bn3  v028
 BYTE   W96
// 023   ----------------------------------------
 BYTE   N96
 BYTE   W96
// 024   ----------------------------------------
 BYTE   N48  Cs4  v032
 BYTE   W48
 BYTE   Dn4
 BYTE   W48
// 025   ----------------------------------------
 BYTE   En4
 BYTE   W48
 BYTE   Fn4
 BYTE   W48
// 026   ----------------------------------------
 BYTE   N96  Gn4
 BYTE   W96
// 027   ----------------------------------------
 BYTE   W92
 BYTE   VOICE   22
 BYTE   VOL   60*AccursedCombat_mvl/mxv
 BYTE   W04
// 028   ----------------------------------------
 BYTE   N96  As3  v088
 BYTE   W96
// 029   ----------------------------------------
 BYTE   Cn4
 BYTE   W96
// 030   ----------------------------------------
 BYTE   N30  An4
 BYTE   W36
 BYTE   Cn5
 BYTE   W36
 BYTE   Bn4
 BYTE   W24
// 031   ----------------------------------------
 BYTE   W12
 BYTE   Dn5
 BYTE   W36
 BYTE   N24  Cn5
 BYTE   W24
 BYTE   Bn4
 BYTE   W24
// 032   ----------------------------------------
 BYTE   N96  Dn4
 BYTE   W96
// 033   ----------------------------------------
 BYTE   Fn4
 BYTE   W96
// 034   ----------------------------------------
 BYTE   N30  En3  v096
 BYTE   W30
 BYTE   N06  En3  v056
 BYTE   W06
 BYTE   En3  v096
 BYTE   W06
 BYTE   En3  v056
 BYTE   W06
 BYTE   N12  Fn3  v096
 BYTE   W12
 BYTE   N06  Fn3  v056
 BYTE   W06
 BYTE   N12  Gn3  v096
 BYTE   W12
 BYTE   N06  Gn3  v056
 BYTE   W06
 BYTE   N12  Fn3  v096
 BYTE   W12
// 035   ----------------------------------------
 BYTE   N30  En3
 BYTE   W30
 BYTE   N06  En3  v056
 BYTE   W06
 BYTE   N12  En3  v096
 BYTE   W12
 BYTE   Ds3
 BYTE   W12
 BYTE   N06  Ds3  v056
 BYTE   W06
 BYTE   N12  Gn3  v096
 BYTE   W12
 BYTE   N06  Gn3  v056
 BYTE   W06
 BYTE   N11  As3  v096
 BYTE   W11
 BYTE   VOICE   37
 BYTE   W01
// 036   ----------------------------------------
 BYTE   N96  An2  v060
 BYTE   W96
// 037   ----------------------------------------
 BYTE   Gn2
 BYTE   W96
// 038   ----------------------------------------
 BYTE   As2
 BYTE   W96
// 039   ----------------------------------------
 BYTE   An2
 BYTE   W96
// 040   ----------------------------------------
 BYTE   As2
 BYTE   W96
// 041   ----------------------------------------
 BYTE   Bn2
 BYTE   W96
// 042   ----------------------------------------
 BYTE   Cs3
 BYTE   W96
// 043   ----------------------------------------
 BYTE   N48
 BYTE   W48
 BYTE   N44  Gn3
 BYTE   W44
 BYTE   W03
 BYTE   VOICE   36
 BYTE   VOL   52*AccursedCombat_mvl/mxv
 BYTE   W01
// 044   ----------------------------------------
 BYTE   GoTo
  POIN2 Label_3_0111AAD6
 BYTE   FINE

//**************** Track 5 (Midi-Chn.4) ****************//

AccursedCombat_005:
// 000   ----------------------------------------
 BYTE   KEYSH   AccursedCombat_key+0
 BYTE   VOICE   41
 BYTE   VOL   60*AccursedCombat_mvl/mxv
 BYTE   W01
 BYTE   PAN   c_v+0
 BYTE   MOD 0
 BYTE   CnM2
 BYTE   W01
 BYTE   BEND   c_v+0
 BYTE   W10
 BYTE   W96
// 001   ----------------------------------------
 BYTE   W96
// 002   ----------------------------------------
 BYTE   W96
// 003   ----------------------------------------
 BYTE   W96
// 004   ----------------------------------------
 BYTE   W96
// 005   ----------------------------------------
 BYTE   W96
// 006   ----------------------------------------
Label_4_0111ABC8:
 BYTE   W96
// 007   ----------------------------------------
 BYTE   W96
// 008   ----------------------------------------
 BYTE   W96
// 009   ----------------------------------------
 BYTE   W96
// 010   ----------------------------------------
 BYTE   VOICE   41
 BYTE   W24
 BYTE   N24  Dn2  v092
 BYTE   W24
 BYTE   Fn2
 BYTE   W24
 BYTE   As2
 BYTE   W24
// 011   ----------------------------------------
 BYTE   TIE  Dn3
 BYTE   W96
// 012   ----------------------------------------
 BYTE   W18
 BYTE   EOT
 BYTE   W06
 BYTE   N24  Dn2  v088
 BYTE   W24
 BYTE   Fn2
 BYTE   W24
 BYTE   Bn2
 BYTE   W24
// 013   ----------------------------------------
 BYTE   N96  Dn3  v092
 BYTE   W96
// 014   ----------------------------------------
 BYTE   N48  En2  v100
 BYTE   W48
 BYTE   Dn3
 BYTE   W48
// 015   ----------------------------------------
 BYTE   N92  Cs3
 BYTE   W92
 BYTE   W03
 BYTE   VOICE   22
 BYTE   W01
// 016   ----------------------------------------
Label_4_0111ABF6:
 BYTE   N06  An4  v100
 BYTE   W06
 BYTE   As4
 BYTE   W06
 BYTE   An4
 BYTE   W06
 BYTE   Gn4
 BYTE   W06
 BYTE   Fn4
 BYTE   W06
 BYTE   En4
 BYTE   W06
 BYTE   Dn4
 BYTE   W06
 BYTE   Cs4
 BYTE   W06
 BYTE   En4
 BYTE   W06
 BYTE   Fn4
 BYTE   W06
 BYTE   En4
 BYTE   W06
 BYTE   Dn4
 BYTE   W06
 BYTE   Cs4
 BYTE   W06
 BYTE   An3
 BYTE   W06
 BYTE   Gn3
 BYTE   W06
 BYTE   En3
 BYTE   W06
 BYTE   PEND 
// 017   ----------------------------------------
Label_4_0111AC19:
 BYTE   N06  An3  v100
 BYTE   W06
 BYTE   As3
 BYTE   W06
 BYTE   An3
 BYTE   W06
 BYTE   Gn3
 BYTE   W06
 BYTE   Fn3
 BYTE   W06
 BYTE   En3
 BYTE   W06
 BYTE   Dn3
 BYTE   W06
 BYTE   Cs3
 BYTE   W06
 BYTE   An2  v056
 BYTE   W48
 BYTE   PEND 
// 018   ----------------------------------------
 BYTE   W96
// 019   ----------------------------------------
 BYTE   W96
// 020   ----------------------------------------
 BYTE   W96
// 021   ----------------------------------------
 BYTE   W96
// 022   ----------------------------------------
 BYTE   W20
 BYTE   VOICE   41
 BYTE   W04
 BYTE   N24  Dn2  v092
 BYTE   W24
 BYTE   Fn2
 BYTE   W24
 BYTE   As2
 BYTE   W24
// 023   ----------------------------------------
 BYTE   TIE  Dn3
 BYTE   W96
// 024   ----------------------------------------
 BYTE   W18
 BYTE   EOT
 BYTE   W06
 BYTE   N24  Dn2  v088
 BYTE   W24
 BYTE   Fn2
 BYTE   W24
 BYTE   Bn2
 BYTE   W24
// 025   ----------------------------------------
 BYTE   N96  Dn3
 BYTE   W96
// 026   ----------------------------------------
 BYTE   N48  En2  v092
 BYTE   W48
 BYTE   Dn3
 BYTE   W48
// 027   ----------------------------------------
 BYTE   N92  Cs3
 BYTE   W92
 BYTE   W03
 BYTE   VOICE   22
 BYTE   W01
 BYTE   PATT
  POIN2 Label_4_0111ABF6
 BYTE   PATT
  POIN2 Label_4_0111AC19
// 028   ----------------------------------------
 BYTE   N12  Dn3  v088
 BYTE   W12
 BYTE   N06  En3
 BYTE   W13
 BYTE   N30  Fn3
 BYTE   W32
 BYTE   W03
 BYTE   N07  Dn3
 BYTE   W12
 BYTE   N12  En3
 BYTE   W12
 BYTE   Fn3
 BYTE   W12
// 029   ----------------------------------------
 BYTE   W01
 BYTE   N22  Gn3
 BYTE   W23
 BYTE   N21  En3
 BYTE   W24
 BYTE   N24  Cn3
 BYTE   N24  Gn3
 BYTE   W24
 BYTE   En3
 BYTE   W24
// 030   ----------------------------------------
 BYTE   W03
 BYTE   TIE  Dn3  v084
 BYTE   W92
 BYTE   W01
// 031   ----------------------------------------
 BYTE   W44
 BYTE   W03
 BYTE   EOT
 BYTE   W48
 BYTE   W01
// 032   ----------------------------------------
 BYTE   W03
 BYTE   N56  Dn3  v088
 BYTE   W56
 BYTE   W01
 BYTE   N06  Fn3
 BYTE   W12
 BYTE   N12  As3
 BYTE   W15
 BYTE   N32  Dn4
 BYTE   W09
// 033   ----------------------------------------
 BYTE   W24
 BYTE   N18  As3
 BYTE   W24
 BYTE   N09  Fn3
 BYTE   W15
 BYTE   N24  Dn4
 BYTE   W32
 BYTE   W01
// 034   ----------------------------------------
 BYTE   W96
// 035   ----------------------------------------
 BYTE   W96
// 036   ----------------------------------------
 BYTE   W96
// 037   ----------------------------------------
 BYTE   W96
// 038   ----------------------------------------
 BYTE   W96
// 039   ----------------------------------------
 BYTE   W96
// 040   ----------------------------------------
 BYTE   W96
// 041   ----------------------------------------
 BYTE   W96
// 042   ----------------------------------------
 BYTE   N90  Gn4  v068
 BYTE   W92
 BYTE   W03
 BYTE   Cs5
 BYTE   W01
// 043   ----------------------------------------
 BYTE   W96
// 044   ----------------------------------------
 BYTE   GoTo
  POIN2 Label_4_0111ABC8
 BYTE   FINE

//**************** Track 6 (Midi-Chn.5) ****************//

AccursedCombat_006:
// 000   ----------------------------------------
 BYTE   KEYSH   AccursedCombat_key+0
 BYTE   VOICE   46
 BYTE   VOL   56*AccursedCombat_mvl/mxv
 BYTE   W01
 BYTE   PAN   c_v+0
 BYTE   MOD 0
 BYTE   CnM2
 BYTE   W01
 BYTE   BEND   c_v+0
 BYTE   W10
Label_5_0111ACD2:
 BYTE   N42  Cn2  v120
 BYTE   W48
 BYTE   Fn1
 BYTE   W48
 BYTE   PEND 
 BYTE   PATT
  POIN2 Label_5_0111ACD2
// 001   ----------------------------------------
 BYTE   N18  An1  v120
 BYTE   W24
 BYTE   Cs2
 BYTE   W24
 BYTE   An2
 BYTE   W24
 BYTE   Gn2
 BYTE   W24
// 002   ----------------------------------------
 BYTE   Dn2
 BYTE   W24
 BYTE   An1
 BYTE   W24
 BYTE   Fn1
 BYTE   W24
 BYTE   An1
 BYTE   W24
// 003   ----------------------------------------
 BYTE   En2
 BYTE   W24
 BYTE   Bn1
 BYTE   W24
 BYTE   Gs2
 BYTE   W24
 BYTE   En2
 BYTE   W24
// 004   ----------------------------------------
 BYTE   N12  An1
 BYTE   W12
 BYTE   An2
 BYTE   W12
 BYTE   N06  An1
 BYTE   W12
 BYTE   N12
 BYTE   W12
 BYTE   An2
 BYTE   W12
 BYTE   N06  An1
 BYTE   W12
 BYTE   N12
 BYTE   W12
 BYTE   N11  An2
 BYTE   W12
// 005   ----------------------------------------
Label_5_0111AD0C:
 BYTE   N06  Dn1  v120
 BYTE   W12
 BYTE   N06
 BYTE   W12
 BYTE   N06
 BYTE   W12
 BYTE   N12  Dn2
 BYTE   W12
 BYTE   N06  Dn1
 BYTE   W12
 BYTE   N12  An1
 BYTE   W12
 BYTE   N06  Dn1
 BYTE   W12
 BYTE   N12  Fn1
 BYTE   W12
// 006   ----------------------------------------
Label_5_0111AD23:
 BYTE   N06  Cn1  v120
 BYTE   W12
 BYTE   N06
 BYTE   W12
 BYTE   N06
 BYTE   W12
 BYTE   N12  En1
 BYTE   W12
 BYTE   N06  Cn1
 BYTE   W12
 BYTE   N12  Gn1
 BYTE   W12
 BYTE   N06  Cn1
 BYTE   W12
 BYTE   N12  Cn2
 BYTE   W12
 BYTE   PEND 
// 007   ----------------------------------------
Label_5_0111AD3B:
 BYTE   N06  Dn1  v120
 BYTE   W12
 BYTE   N06
 BYTE   W12
 BYTE   N06
 BYTE   W12
 BYTE   N12  Dn2
 BYTE   W12
 BYTE   N06  Dn1
 BYTE   W12
 BYTE   N12  An1
 BYTE   W12
 BYTE   N06  Dn1
 BYTE   W12
 BYTE   N12  Fn1
 BYTE   W12
 BYTE   PEND 
// 008   ----------------------------------------
Label_5_0111AD53:
 BYTE   N12  Fn1  v120
 BYTE   W12
 BYTE   N06  Cn2
 BYTE   W12
 BYTE   N12  An1
 BYTE   W12
 BYTE   Fn1
 BYTE   W12
 BYTE   Gn1
 BYTE   W12
 BYTE   Dn1
 BYTE   W12
 BYTE   Bn0
 BYTE   W12
 BYTE   Gn1
 BYTE   W12
 BYTE   PEND 
// 009   ----------------------------------------
Label_5_0111AD68:
 BYTE   N06  As1  v120
 BYTE   W12
 BYTE   N12
 BYTE   W12
 BYTE   As2
 BYTE   W12
 BYTE   N06  As1
 BYTE   W12
 BYTE   N06
 BYTE   W12
 BYTE   N06
 BYTE   W12
 BYTE   N12  As2
 BYTE   W12
 BYTE   N06  As1
 BYTE   W12
 BYTE   PEND 
// 010   ----------------------------------------
Label_5_0111AD7E:
 BYTE   N06  As1  v120
 BYTE   W12
 BYTE   N12
 BYTE   W12
 BYTE   An2
 BYTE   W12
 BYTE   N06  As1
 BYTE   W12
 BYTE   N12  Gn2
 BYTE   W12
 BYTE   N06  As1
 BYTE   W12
 BYTE   N12  As2
 BYTE   W12
 BYTE   N06  As1
 BYTE   W12
 BYTE   PEND 
// 011   ----------------------------------------
Label_5_0111AD96:
 BYTE   N06  Bn1  v120
 BYTE   W12
 BYTE   N06
 BYTE   W12
 BYTE   N12  Dn2
 BYTE   W12
 BYTE   N06  Bn1
 BYTE   W12
 BYTE   N12
 BYTE   W12
 BYTE   Bn2
 BYTE   W12
 BYTE   Bn1
 BYTE   W12
 BYTE   Dn2
 BYTE   W12
 BYTE   PEND 
// 012   ----------------------------------------
Label_5_0111ADAB:
 BYTE   N06  Bn1  v120
 BYTE   W12
 BYTE   N12
 BYTE   W12
 BYTE   Dn2
 BYTE   W12
 BYTE   Bn1
 BYTE   W12
 BYTE   As2
 BYTE   W12
 BYTE   As1
 BYTE   W12
 BYTE   As2
 BYTE   W12
 BYTE   As1
 BYTE   W12
 BYTE   PEND 
// 013   ----------------------------------------
Label_5_0111ADBE:
 BYTE   N12  An1  v120
 BYTE   W12
 BYTE   N06  En1
 BYTE   W12
 BYTE   An1  v108
 BYTE   W12
 BYTE   N12  An1  v120
 BYTE   W12
 BYTE   N06  An1  v108
 BYTE   W12
 BYTE   N12  An1  v120
 BYTE   W12
 BYTE   N06  En1
 BYTE   W12
 BYTE   N12  An1  v108
 BYTE   W12
 BYTE   PEND 
// 014   ----------------------------------------
Label_5_0111ADDC:
 BYTE   N12  An1  v120
 BYTE   W12
 BYTE   N06  An1  v108
 BYTE   W12
 BYTE   En1  v120
 BYTE   W12
 BYTE   N12  An1
 BYTE   W12
 BYTE   N06  An1  v108
 BYTE   W12
 BYTE   N12  An1  v120
 BYTE   W12
 BYTE   N06  En1
 BYTE   W12
 BYTE   N12  An1  v108
 BYTE   W12
 BYTE   PEND 
// 015   ----------------------------------------
 BYTE   An1  v124
 BYTE   W12
 BYTE   N06  En1
 BYTE   W12
 BYTE   An1  v108
 BYTE   W12
 BYTE   N12  An1  v124
 BYTE   W12
 BYTE   N06  An1  v108
 BYTE   W12
 BYTE   N12  An1  v124
 BYTE   W12
 BYTE   N06  En1
 BYTE   W12
 BYTE   N12  An1  v108
 BYTE   W12
// 016   ----------------------------------------
 BYTE   An1  v120
 BYTE   W12
 BYTE   N03  Gs1
 BYTE   W03
 BYTE   Gn1
 BYTE   W03
 BYTE   Fs1
 BYTE   W03
 BYTE   Fn1
 BYTE   W03
 BYTE   En1
 BYTE   W72
 BYTE   PATT
  POIN2 Label_5_0111AD3B
 BYTE   PATT
  POIN2 Label_5_0111AD23
 BYTE   PATT
  POIN2 Label_5_0111AD3B
 BYTE   PATT
  POIN2 Label_5_0111AD53
 BYTE   PATT
  POIN2 Label_5_0111AD68
 BYTE   PATT
  POIN2 Label_5_0111AD7E
 BYTE   PATT
  POIN2 Label_5_0111AD96
 BYTE   PATT
  POIN2 Label_5_0111ADAB
 BYTE   PATT
  POIN2 Label_5_0111ADBE
 BYTE   PATT
  POIN2 Label_5_0111ADDC
 BYTE   PATT
  POIN2 Label_5_0111ADBE
// 017   ----------------------------------------
 BYTE   N12  An1  v112
 BYTE   W12
 BYTE   N03  Gs1
 BYTE   W03
 BYTE   Gn1
 BYTE   W03
 BYTE   Fs1
 BYTE   W03
 BYTE   Fn1
 BYTE   W03
 BYTE   En1
 BYTE   W72
// 018   ----------------------------------------
 BYTE   N12  As0  v120
 BYTE   W12
 BYTE   N06  As1
 BYTE   W12
 BYTE   N12  As0
 BYTE   W12
 BYTE   N06  As1
 BYTE   W12
 BYTE   N12  As0
 BYTE   W12
 BYTE   N06  As1
 BYTE   W12
 BYTE   N12  As0
 BYTE   W12
 BYTE   N06  As1
 BYTE   W12
// 019   ----------------------------------------
 BYTE   N12  Cn1
 BYTE   W12
 BYTE   N06  Cn2
 BYTE   W12
 BYTE   N12  Cn1
 BYTE   W12
 BYTE   N06  Cn2
 BYTE   W12
 BYTE   N12  Cn1
 BYTE   W12
 BYTE   N06  Cn2
 BYTE   W12
 BYTE   N12  Cn1
 BYTE   W12
 BYTE   N06  Cn2
 BYTE   W12
// 020   ----------------------------------------
 BYTE   N12  Dn1
 BYTE   W12
 BYTE   An1
 BYTE   W12
 BYTE   N06  Dn2
 BYTE   W12
 BYTE   N12  Fn1
 BYTE   W12
 BYTE   An1
 BYTE   W12
 BYTE   N06  Dn2
 BYTE   W12
 BYTE   N12  Gn1
 BYTE   W12
 BYTE   Bn1
 BYTE   W12
// 021   ----------------------------------------
 BYTE   N06  Dn2
 BYTE   W12
 BYTE   N12  Bn1
 BYTE   W12
 BYTE   Gn1
 BYTE   W12
 BYTE   Dn1
 BYTE   W12
 BYTE   N18  Fn1
 BYTE   W24
 BYTE   En1
 BYTE   W24
// 022   ----------------------------------------
 BYTE   N06  As0
 BYTE   W12
 BYTE   N06
 BYTE   W12
 BYTE   N12  Fn1
 BYTE   W12
 BYTE   N06  As0
 BYTE   W12
 BYTE   N06
 BYTE   W12
 BYTE   N12  As1
 BYTE   W12
 BYTE   N06  Fn1
 BYTE   W12
 BYTE   N18  As0
 BYTE   W12
// 023   ----------------------------------------
 BYTE   W12
 BYTE   N06
 BYTE   W12
 BYTE   N12  Fn1
 BYTE   W12
 BYTE   N06  As0
 BYTE   W12
 BYTE   N06
 BYTE   W12
 BYTE   N12  As1
 BYTE   W12
 BYTE   N06  Fn1
 BYTE   W12
 BYTE   N12  As1
 BYTE   W12
// 024   ----------------------------------------
 BYTE   N30  An1
 BYTE   W36
 BYTE   N06
 BYTE   W12
 BYTE   N12  As1
 BYTE   W18
 BYTE   Cn2
 BYTE   W18
 BYTE   As1
 BYTE   W12
// 025   ----------------------------------------
 BYTE   N30  An1
 BYTE   W36
 BYTE   N12
 BYTE   W12
 BYTE   Ds2
 BYTE   W18
 BYTE   As1
 BYTE   W18
 BYTE   Ds1
 BYTE   W12
// 026   ----------------------------------------
 BYTE   N06  Dn1
 BYTE   W12
 BYTE   N06
 BYTE   W12
 BYTE   N06
 BYTE   W12
 BYTE   N12  Dn2
 BYTE   W12
 BYTE   N06  Dn1
 BYTE   W12
 BYTE   N12  An1
 BYTE   W12
 BYTE   N06  Dn1
 BYTE   W12
 BYTE   N12
 BYTE   W12
// 027   ----------------------------------------
 BYTE   N06  Cn1
 BYTE   W12
 BYTE   Gn1
 BYTE   W12
 BYTE   N12  Cn2
 BYTE   W12
 BYTE   Cn1
 BYTE   W12
 BYTE   N06  Gn1
 BYTE   W12
 BYTE   N12  Cn2
 BYTE   W12
 BYTE   Cn1
 BYTE   W12
 BYTE   Gn1
 BYTE   W12
// 028   ----------------------------------------
 BYTE   N06  As1
 BYTE   W12
 BYTE   N06
 BYTE   W12
 BYTE   N06
 BYTE   W12
 BYTE   N12  As2
 BYTE   W12
 BYTE   N06  As1
 BYTE   W12
 BYTE   N12  As2
 BYTE   W12
 BYTE   Fn2
 BYTE   W12
 BYTE   As1
 BYTE   W12
// 029   ----------------------------------------
Label_5_0111AF3D:
 BYTE   N12  An1  v120
 BYTE   W12
 BYTE   N06  An2
 BYTE   W12
 BYTE   N12  An1
 BYTE   W12
 BYTE   N06  An2
 BYTE   W12
 BYTE   N12  An1
 BYTE   W12
 BYTE   N06  An2
 BYTE   W12
 BYTE   N12  An1
 BYTE   W12
 BYTE   N06  An2
 BYTE   W12
 BYTE   PEND 
// 030   ----------------------------------------
 BYTE   N12  As1
 BYTE   W12
 BYTE   N06  Fn2
 BYTE   W12
 BYTE   N12  An2
 BYTE   W12
 BYTE   N06  As1
 BYTE   W12
 BYTE   N12  Gn2
 BYTE   W12
 BYTE   N06  As1
 BYTE   W12
 BYTE   N12  Fn2
 BYTE   W12
 BYTE   N06  As1
 BYTE   W12
// 031   ----------------------------------------
 BYTE   N12  Bn1
 BYTE   W12
 BYTE   N06  Dn2
 BYTE   W12
 BYTE   N12  Bn2
 BYTE   W12
 BYTE   N06  Bn1
 BYTE   W12
 BYTE   N12  Fn2
 BYTE   W12
 BYTE   Bn1
 BYTE   W12
 BYTE   Bn2
 BYTE   W12
 BYTE   Bn1
 BYTE   W12
 BYTE   PATT
  POIN2 Label_5_0111AF3D
 BYTE   PATT
  POIN2 Label_5_0111AF3D
// 032   ----------------------------------------
 BYTE   GoTo
  POIN2 Label_5_0111AD0C
 BYTE   FINE

//**************** Track 7 (Midi-Chn.6) ****************//

AccursedCombat_007:
// 000   ----------------------------------------
 BYTE   KEYSH   AccursedCombat_key+0
 BYTE   VOICE   8
 BYTE   VOL   33*AccursedCombat_mvl/mxv
 BYTE   W01
 BYTE   PAN   c_v+0
 BYTE   MOD 0
 BYTE   CnM2
 BYTE   W01
 BYTE   BEND   c_v+0
 BYTE   W10
 BYTE   W96
// 001   ----------------------------------------
 BYTE   W96
// 002   ----------------------------------------
 BYTE   W96
// 003   ----------------------------------------
 BYTE   W96
// 004   ----------------------------------------
 BYTE   W96
// 005   ----------------------------------------
 BYTE   W92
 BYTE   W03
 BYTE   VOICE   13
 BYTE   W01
// 006   ----------------------------------------
Label_6_0111AFAD:
 BYTE   W08
 BYTE   N12  Dn3  v116
 BYTE   W12
 BYTE   N06  En3
 BYTE   W12
 BYTE   N30  Fn3
 BYTE   W36
 BYTE   N12  Dn3
 BYTE   W12
 BYTE   En3
 BYTE   W12
 BYTE   Fn3
 BYTE   W04
// 007   ----------------------------------------
Label_6_0111AFBF:
 BYTE   W08
 BYTE   N12  Gn3  v116
 BYTE   W12
 BYTE   Fn3
 BYTE   W12
 BYTE   En3
 BYTE   W12
 BYTE   Fn3
 BYTE   W12
 BYTE   En3
 BYTE   W12
 BYTE   Dn3
 BYTE   W12
 BYTE   Cn3
 BYTE   W12
 BYTE   An2
 BYTE   W04
 BYTE   PEND 
// 008   ----------------------------------------
 BYTE   W08
 BYTE   Dn3
 BYTE   W12
 BYTE   N06  En3
 BYTE   W12
 BYTE   N30  Fn3
 BYTE   W36
 BYTE   N12  En3  v108
 BYTE   W12
 BYTE   Fn3
 BYTE   W12
 BYTE   Gn3
 BYTE   W04
// 009   ----------------------------------------
 BYTE   W08
 BYTE   N24  An3
 BYTE   W24
 BYTE   Cn4
 BYTE   W24
 BYTE   Bn3
 BYTE   W24
 BYTE   Gn3
 BYTE   W16
// 010   ----------------------------------------
 BYTE   W08
 BYTE   As3
 BYTE   W24
 BYTE   N06  Fn3
 BYTE   W64
// 011   ----------------------------------------
 BYTE   W32
 BYTE   N24  Dn3  v104
 BYTE   W48
 BYTE   As3
 BYTE   W16
// 012   ----------------------------------------
 BYTE   W08
 BYTE   Bn3
 BYTE   W24
 BYTE   N06  Fn3
 BYTE   W64
// 013   ----------------------------------------
 BYTE   W80
 BYTE   N24  As3  v096
 BYTE   W16
// 014   ----------------------------------------
 BYTE   W08
 BYTE   N06  An3  v100
 BYTE   W06
 BYTE   Gn3
 BYTE   W06
 BYTE   TIE  An3
 BYTE   W76
// 015   ----------------------------------------
 BYTE   W92
 BYTE   EOT
 BYTE   W04
// 016   ----------------------------------------
Label_6_0111B013:
 BYTE   VOICE   22
 BYTE   W08
 BYTE   N06  An4  v092
 BYTE   W06
 BYTE   As4
 BYTE   W06
 BYTE   An4
 BYTE   W06
 BYTE   Gn4
 BYTE   W06
 BYTE   Fn4
 BYTE   W06
 BYTE   En4
 BYTE   W06
 BYTE   Dn4
 BYTE   W06
 BYTE   Cs4
 BYTE   W06
 BYTE   En4
 BYTE   W06
 BYTE   Fn4
 BYTE   W06
 BYTE   En4
 BYTE   W06
 BYTE   Dn4
 BYTE   W06
 BYTE   Cs4
 BYTE   W06
 BYTE   An3
 BYTE   W06
 BYTE   Gn3
 BYTE   W04
 BYTE   PEND 
// 017   ----------------------------------------
Label_6_0111B037:
 BYTE   W02
 BYTE   N06  En3  v092
 BYTE   W06
 BYTE   An3
 BYTE   W06
 BYTE   As3
 BYTE   W06
 BYTE   An3
 BYTE   W06
 BYTE   Gn3
 BYTE   W06
 BYTE   Fn3
 BYTE   W06
 BYTE   En3
 BYTE   W06
 BYTE   Dn3
 BYTE   W06
 BYTE   N05  Cs3
 BYTE   W05
 BYTE   VOICE   35
 BYTE   W01
 BYTE   N06  An3  v056
 BYTE   W06
 BYTE   As3
 BYTE   W06
 BYTE   An3
 BYTE   W06
 BYTE   Gn3
 BYTE   W06
 BYTE   Fn3
 BYTE   W06
 BYTE   En3
 BYTE   W06
 BYTE   Dn3
 BYTE   W04
 BYTE   PEND 
// 018   ----------------------------------------
 BYTE   W06
 BYTE   VOICE   13
 BYTE   W02
 BYTE   N12  Dn3  v116
 BYTE   W12
 BYTE   N06  En3
 BYTE   W12
 BYTE   N30  Fn3
 BYTE   W36
 BYTE   N12  Dn3
 BYTE   W12
 BYTE   En3
 BYTE   W12
 BYTE   Fn3
 BYTE   W04
 BYTE   PATT
  POIN2 Label_6_0111AFBF
// 019   ----------------------------------------
 BYTE   W08
 BYTE   N12  Dn3  v116
 BYTE   W12
 BYTE   N06  En3
 BYTE   W12
 BYTE   N30  Fn3
 BYTE   W36
 BYTE   N12  En3
 BYTE   W12
 BYTE   Fn3
 BYTE   W12
 BYTE   Gn3
 BYTE   W04
// 020   ----------------------------------------
 BYTE   W08
 BYTE   N24  An3
 BYTE   W24
 BYTE   Cn4
 BYTE   W24
 BYTE   Bn3
 BYTE   W24
 BYTE   Gn3  v112
 BYTE   W16
// 021   ----------------------------------------
 BYTE   W08
 BYTE   As3
 BYTE   W24
 BYTE   N06  Fn3
 BYTE   W64
// 022   ----------------------------------------
 BYTE   W32
 BYTE   N24  Dn3  v100
 BYTE   W24
 BYTE   Fn3
 BYTE   W24
 BYTE   As3
 BYTE   W16
// 023   ----------------------------------------
 BYTE   W08
 BYTE   Bn3
 BYTE   W88
// 024   ----------------------------------------
 BYTE   W80
 BYTE   As3  v108
 BYTE   W16
// 025   ----------------------------------------
 BYTE   W08
 BYTE   N06  An3
 BYTE   W06
 BYTE   Gn3
 BYTE   W06
 BYTE   TIE  An3
 BYTE   W76
// 026   ----------------------------------------
 BYTE   W92
 BYTE   EOT
 BYTE   W04
 BYTE   PATT
  POIN2 Label_6_0111B013
 BYTE   PATT
  POIN2 Label_6_0111B037
// 027   ----------------------------------------
 BYTE   W02
 BYTE   N05  Cs3  v056
 BYTE   W05
 BYTE   VOICE   17
 BYTE   W01
 BYTE   N12  As3  v092
 BYTE   W12
 BYTE   N06  Cn4
 BYTE   W13
 BYTE   N30  Dn4
 BYTE   W32
 BYTE   W03
 BYTE   N07  As3
 BYTE   W12
 BYTE   N12  Cn4
 BYTE   W12
 BYTE   Dn4
 BYTE   W04
// 028   ----------------------------------------
 BYTE   W09
 BYTE   N22  En4
 BYTE   W23
 BYTE   N21  Cn4
 BYTE   W48
 BYTE   N24  Cn4  v076
 BYTE   W16
// 029   ----------------------------------------
 BYTE   W11
 BYTE   TIE  An3
 BYTE   W84
 BYTE   W01
// 030   ----------------------------------------
 BYTE   W54
 BYTE   W01
 BYTE   EOT
 BYTE   W13
 BYTE   N06  Fn3  v092
 BYTE   W12
 BYTE   N12  Gn3
 BYTE   W12
 BYTE   An3
 BYTE   W04
// 031   ----------------------------------------
 BYTE   W11
 BYTE   N56  As3
 BYTE   W56
 BYTE   W01
 BYTE   N06  Dn4
 BYTE   W12
 BYTE   N12  Fn4
 BYTE   W15
 BYTE   N32  As4
 BYTE   W01
// 032   ----------------------------------------
 BYTE   W32
 BYTE   N18  Fn4
 BYTE   W24
 BYTE   N09  Dn4
 BYTE   W15
 BYTE   N24  As4
 BYTE   W24
 BYTE   W01
// 033   ----------------------------------------
 BYTE   W08
 BYTE   TIE  An4
 BYTE   W88
// 034   ----------------------------------------
 BYTE   W56
 BYTE   EOT
 BYTE   W40
// 035   ----------------------------------------
 BYTE   W04
 BYTE   VOICE   22
 BYTE   W04
 BYTE   N12  Dn4  v108
 BYTE   W12
 BYTE   En4
 BYTE   W12
 BYTE   Fn4
 BYTE   W12
 BYTE   Dn4
 BYTE   W12
 BYTE   Gn4
 BYTE   W12
 BYTE   Dn4
 BYTE   W12
 BYTE   Fn4
 BYTE   W12
 BYTE   Dn4
 BYTE   W04
// 036   ----------------------------------------
 BYTE   W08
 BYTE   Cn4
 BYTE   W12
 BYTE   Dn4
 BYTE   W12
 BYTE   En4
 BYTE   W12
 BYTE   Cn4
 BYTE   W12
 BYTE   Fn4
 BYTE   W12
 BYTE   Cn4
 BYTE   W12
 BYTE   En4
 BYTE   W12
 BYTE   Cn4
 BYTE   W04
// 037   ----------------------------------------
 BYTE   W08
 BYTE   As3
 BYTE   W12
 BYTE   Cn4
 BYTE   W12
 BYTE   Dn4
 BYTE   W12
 BYTE   As3
 BYTE   W12
 BYTE   Fn4
 BYTE   W12
 BYTE   As3
 BYTE   W12
 BYTE   Dn4
 BYTE   W12
 BYTE   As3
 BYTE   W04
// 038   ----------------------------------------
 BYTE   W08
 BYTE   Cs4
 BYTE   W12
 BYTE   Dn4
 BYTE   W12
 BYTE   En4
 BYTE   W12
 BYTE   An3
 BYTE   W12
 BYTE   An4
 BYTE   W12
 BYTE   An3
 BYTE   W12
 BYTE   Gn4
 BYTE   W12
 BYTE   An3
 BYTE   W04
// 039   ----------------------------------------
 BYTE   W08
 BYTE   As4
 BYTE   W12
 BYTE   Fn4
 BYTE   W12
 BYTE   Dn4
 BYTE   W12
 BYTE   As3
 BYTE   W12
 BYTE   Fn3
 BYTE   W12
 BYTE   As3
 BYTE   W12
 BYTE   Dn4
 BYTE   W12
 BYTE   As4
 BYTE   W04
// 040   ----------------------------------------
 BYTE   W08
 BYTE   Bn4
 BYTE   W12
 BYTE   Fn4
 BYTE   W12
 BYTE   Dn4
 BYTE   W12
 BYTE   Bn3
 BYTE   W12
 BYTE   Fn3
 BYTE   W12
 BYTE   Bn3
 BYTE   W12
 BYTE   Dn4
 BYTE   W12
 BYTE   Bn4
 BYTE   W04
// 041   ----------------------------------------
 BYTE   W96
// 042   ----------------------------------------
 BYTE   W92
 BYTE   VOICE   13
 BYTE   W04
// 043   ----------------------------------------
 BYTE   GoTo
  POIN2 Label_6_0111AFAD
 BYTE   FINE

//******************************************************//
	ALIGN 4

AccursedCombat:
	BYTE	7	// NumTrks
	BYTE	0	// NumBlks
	BYTE	AccursedCombat_pri	// Priority
	BYTE	AccursedCombat_rev	// Reverb.
    
	POIN2	AccursedCombat_grp
    
	POIN2	AccursedCombat_001
	POIN2	AccursedCombat_002
	POIN2	AccursedCombat_003
	POIN2	AccursedCombat_004
	POIN2	AccursedCombat_005
	POIN2	AccursedCombat_006
	POIN2	AccursedCombat_007

	
