	.include "MPlayDef.s"

	.equ	Battle7thSaga_grp, voicegroup000
	.equ	Battle7thSaga_pri, 0
	.equ	Battle7thSaga_rev, 0
	.equ	Battle7thSaga_mvl, 50
	.equ	Battle7thSaga_key, 0
	.equ	Battle7thSaga_tbs, 1
	.equ	Battle7thSaga_exg, 0
	.equ	Battle7thSaga_cmp, 1

	.section .rodata
	.global	Battle7thSaga
	.align	2

@**************** Track 1 (Midi-Chn.1) ****************@

Battle7thSaga_1:
	.byte	KEYSH , Battle7thSaga_key+0
@ 000   ----------------------------------------
	.byte	TEMPO , 271*Battle7thSaga_tbs/2
	.byte		VOICE , 56
	.byte	W48
	.byte		VOL   , 112*Battle7thSaga_mvl/mxv
	.byte	W48
@ 001   ----------------------------------------
	.byte		TIE   , Cn4 , v127
	.byte		TIE   , En4 
	.byte		TIE   , Fs4 
	.byte	W96
@ 002   ----------------------------------------
	.byte	W96
@ 003   ----------------------------------------
	.byte	W12
	.byte		EOT   , Cn4 
	.byte		        En4 
	.byte		        Fs4 
	.byte		N06   , Cn4 
	.byte		N06   , En4 
	.byte		N06   , Fs4 
	.byte	W12
	.byte		        Cn4 
	.byte		N06   , En4 
	.byte		N06   , Fs4 
	.byte	W12
	.byte		        Cn4 
	.byte		N06   , En4 
	.byte		N06   , Fs4 
	.byte	W12
	.byte		N18   , Cn4 
	.byte		N18   , En4 
	.byte		N18   , Fs4 
	.byte	W24
	.byte		N06   , Cn4 
	.byte		N06   , En4 
	.byte		N06   , Fs4 
	.byte	W12
	.byte		N18   , Cn4 
	.byte		N18   , En4 
	.byte		N18   , Fs4 
	.byte	W12
@ 004   ----------------------------------------
	.byte	W12
	.byte		N06   , Cn4 
	.byte		N06   , En4 
	.byte		N06   , Fs4 
	.byte	W12
	.byte		        Cn4 
	.byte		N06   , En4 
	.byte		N06   , Fs4 
	.byte	W12
	.byte		        Cn4 
	.byte		N06   , En4 
	.byte		N06   , Fs4 
	.byte	W12
	.byte		N18   , Cn4 
	.byte		N18   , En4 
	.byte		N18   , Fs4 
	.byte	W24
	.byte		N06   , Cn4 
	.byte		N06   , En4 
	.byte		N06   , Fs4 
	.byte	W12
	.byte		        Cn4 
	.byte		N06   , En4 
	.byte		N06   , Fs4 
	.byte	W12
Battle7thSaga_1_B1:
@ 005   ----------------------------------------
	.byte	W96
@ 006   ----------------------------------------
	.byte	W96
@ 007   ----------------------------------------
	.byte	W96
@ 008   ----------------------------------------
	.byte	W96
@ 009   ----------------------------------------
	.byte	W96
@ 010   ----------------------------------------
	.byte	W96
@ 011   ----------------------------------------
	.byte	W96
@ 012   ----------------------------------------
	.byte	W96
@ 013   ----------------------------------------
	.byte	W96
@ 014   ----------------------------------------
	.byte	W96
@ 015   ----------------------------------------
	.byte	W96
@ 016   ----------------------------------------
	.byte	W96
@ 017   ----------------------------------------
	.byte	W96
@ 018   ----------------------------------------
	.byte	W96
@ 019   ----------------------------------------
	.byte	W96
@ 020   ----------------------------------------
	.byte	W96
@ 021   ----------------------------------------
	.byte	W96
@ 022   ----------------------------------------
	.byte	W96
@ 023   ----------------------------------------
	.byte	W96
@ 024   ----------------------------------------
	.byte	W96
@ 025   ----------------------------------------
	.byte	W96
@ 026   ----------------------------------------
	.byte	W96
@ 027   ----------------------------------------
	.byte	W96
@ 028   ----------------------------------------
	.byte	W96
@ 029   ----------------------------------------
	.byte	W96
@ 030   ----------------------------------------
	.byte	W96
@ 031   ----------------------------------------
	.byte	W96
@ 032   ----------------------------------------
	.byte	W96
@ 033   ----------------------------------------
	.byte	W96
@ 034   ----------------------------------------
	.byte	W96
@ 035   ----------------------------------------
	.byte	W96
@ 036   ----------------------------------------
	.byte	W96
@ 037   ----------------------------------------
	.byte	W96
@ 038   ----------------------------------------
	.byte	W96
@ 039   ----------------------------------------
	.byte	W96
@ 040   ----------------------------------------
	.byte	W96
@ 041   ----------------------------------------
	.byte	W96
@ 042   ----------------------------------------
	.byte	W96
@ 043   ----------------------------------------
	.byte	W96
@ 044   ----------------------------------------
	.byte	W96
@ 045   ----------------------------------------
	.byte	W96
@ 046   ----------------------------------------
	.byte	W96
@ 047   ----------------------------------------
	.byte	W96
@ 048   ----------------------------------------
	.byte	W96
@ 049   ----------------------------------------
	.byte	W96
@ 050   ----------------------------------------
	.byte	W96
@ 051   ----------------------------------------
	.byte	W96
@ 052   ----------------------------------------
	.byte	W96
@ 053   ----------------------------------------
	.byte	W96
@ 054   ----------------------------------------
	.byte	W96
@ 055   ----------------------------------------
	.byte	W96
@ 056   ----------------------------------------
	.byte	W96
@ 057   ----------------------------------------
	.byte	W96
@ 058   ----------------------------------------
	.byte	W96
@ 059   ----------------------------------------
	.byte	W96
@ 060   ----------------------------------------
	.byte	W96
@ 061   ----------------------------------------
	.byte	W96
@ 062   ----------------------------------------
	.byte	W96
@ 063   ----------------------------------------
	.byte	W96
@ 064   ----------------------------------------
	.byte	W96
@ 065   ----------------------------------------
	.byte	W96
@ 066   ----------------------------------------
	.byte	W96
@ 067   ----------------------------------------
	.byte	W96
@ 068   ----------------------------------------
	.byte	W96
@ 069   ----------------------------------------
	.byte	W96
@ 070   ----------------------------------------
	.byte	W96
@ 071   ----------------------------------------
	.byte	W96
@ 072   ----------------------------------------
	.byte	W96
@ 073   ----------------------------------------
	.byte	W96
@ 074   ----------------------------------------
	.byte	W96
@ 075   ----------------------------------------
	.byte	W96
@ 076   ----------------------------------------
	.byte	W96
@ 077   ----------------------------------------
	.byte	W96
@ 078   ----------------------------------------
	.byte	W96
@ 079   ----------------------------------------
	.byte	W96
@ 080   ----------------------------------------
	.byte	W96
@ 081   ----------------------------------------
	.byte	W96
@ 082   ----------------------------------------
	.byte	W96
@ 083   ----------------------------------------
	.byte	W96
@ 084   ----------------------------------------
	.byte	W96
@ 085   ----------------------------------------
	.byte	W96
@ 086   ----------------------------------------
	.byte	W96
@ 087   ----------------------------------------
	.byte	W96
@ 088   ----------------------------------------
	.byte	W96
	.byte	GOTO
	 .word	Battle7thSaga_1_B1
Battle7thSaga_1_B2:
@ 089   ----------------------------------------
	.byte	W96
@ 090   ----------------------------------------
	.byte	W96
@ 091   ----------------------------------------
	.byte	W96
@ 092   ----------------------------------------
	.byte	W96
@ 093   ----------------------------------------
	.byte	FINE

@**************** Track 2 (Midi-Chn.2) ****************@

Battle7thSaga_2:
	.byte	KEYSH , Battle7thSaga_key+0
@ 000   ----------------------------------------
	.byte		VOICE , 48
	.byte	W48
	.byte		VOL   , 112*Battle7thSaga_mvl/mxv
	.byte	W48
@ 001   ----------------------------------------
	.byte		TIE   , Fs0 , v064
	.byte		TIE   , Fs1 
	.byte	W96
@ 002   ----------------------------------------
	.byte	W96
@ 003   ----------------------------------------
	.byte	W08
	.byte		N08   , Fs5 , v112
	.byte	W04
	.byte		EOT   , Fs0 
	.byte		        Fs1 
	.byte	W04
	.byte		N08   , Fn5 
	.byte	W08
	.byte		        En5 
	.byte	W08
	.byte		        Ds5 
	.byte	W08
	.byte		        Dn5 
	.byte	W08
	.byte		        Cs5 
	.byte	W08
	.byte		        Cn5 
	.byte	W08
	.byte		        Bn4 
	.byte	W08
	.byte		        As4 
	.byte	W08
	.byte		        An4 
	.byte	W08
	.byte		        Gs4 
	.byte	W08
@ 004   ----------------------------------------
	.byte		        Gn4 
	.byte	W08
	.byte		        Fs4 
	.byte	W08
	.byte		        Fn4 
	.byte	W08
	.byte		        En4 
	.byte	W08
	.byte		        Ds4 
	.byte	W08
	.byte		        Dn4 
	.byte	W08
	.byte		        Cs4 
	.byte	W08
	.byte		        Cn4 
	.byte	W08
	.byte		        Bn3 
	.byte	W08
	.byte		        As3 
	.byte	W08
	.byte		        An3 
	.byte	W08
	.byte		        Gs3 
	.byte	W08
Battle7thSaga_2_B1:
@ 005   ----------------------------------------
Battle7thSaga_2_005:
	.byte		TIE   , An3 , v080
	.byte		TIE   , An4 , v064
	.byte	W96
	.byte	PEND
@ 006   ----------------------------------------
	.byte	W96
@ 007   ----------------------------------------
	.byte	W96
@ 008   ----------------------------------------
	.byte	W96
	.byte		EOT   , An3 
	.byte		        An4 
@ 009   ----------------------------------------
Battle7thSaga_2_009:
	.byte		TIE   , Gs3 , v080
	.byte		TIE   , Gs4 , v064
	.byte	W96
	.byte	PEND
@ 010   ----------------------------------------
	.byte	W96
@ 011   ----------------------------------------
	.byte	W96
@ 012   ----------------------------------------
	.byte	W96
	.byte		EOT   , Gs3 
	.byte		        Gs4 
@ 013   ----------------------------------------
	.byte	PATT
	 .word	Battle7thSaga_2_005
@ 014   ----------------------------------------
	.byte	W96
@ 015   ----------------------------------------
	.byte	W96
@ 016   ----------------------------------------
	.byte	W96
	.byte		EOT   , An3 
	.byte		        An4 
@ 017   ----------------------------------------
Battle7thSaga_2_017:
	.byte		TIE   , Bn3 , v080
	.byte		TIE   , Bn4 , v064
	.byte	W96
	.byte	PEND
@ 018   ----------------------------------------
	.byte	W96
@ 019   ----------------------------------------
	.byte	W96
@ 020   ----------------------------------------
	.byte	W96
	.byte		EOT   , Bn3 
	.byte		        Bn4 
@ 021   ----------------------------------------
	.byte	PATT
	 .word	Battle7thSaga_2_005
@ 022   ----------------------------------------
	.byte	W96
@ 023   ----------------------------------------
	.byte	W96
@ 024   ----------------------------------------
	.byte	W96
	.byte		EOT   , An3 
	.byte		        An4 
@ 025   ----------------------------------------
	.byte	PATT
	 .word	Battle7thSaga_2_009
@ 026   ----------------------------------------
	.byte	W96
@ 027   ----------------------------------------
	.byte	W96
@ 028   ----------------------------------------
	.byte	W96
	.byte		EOT   , Gs3 
	.byte		        Gs4 
@ 029   ----------------------------------------
	.byte	PATT
	 .word	Battle7thSaga_2_005
@ 030   ----------------------------------------
	.byte	W96
@ 031   ----------------------------------------
	.byte	W96
@ 032   ----------------------------------------
	.byte	W96
	.byte		EOT   , An3 
	.byte		        An4 
@ 033   ----------------------------------------
	.byte	PATT
	 .word	Battle7thSaga_2_009
@ 034   ----------------------------------------
	.byte	W96
@ 035   ----------------------------------------
	.byte	W96
@ 036   ----------------------------------------
	.byte	W96
	.byte		EOT   , Gs3 
	.byte		        Gs4 
@ 037   ----------------------------------------
	.byte	PATT
	 .word	Battle7thSaga_2_005
@ 038   ----------------------------------------
	.byte	W96
@ 039   ----------------------------------------
	.byte	W96
@ 040   ----------------------------------------
	.byte	W96
	.byte		EOT   , An3 
	.byte		        An4 
@ 041   ----------------------------------------
	.byte	PATT
	 .word	Battle7thSaga_2_017
@ 042   ----------------------------------------
	.byte	W96
@ 043   ----------------------------------------
	.byte	W96
@ 044   ----------------------------------------
	.byte	W96
	.byte		EOT   , Bn3 
	.byte		        Bn4 
@ 045   ----------------------------------------
	.byte	PATT
	 .word	Battle7thSaga_2_005
@ 046   ----------------------------------------
	.byte	W96
@ 047   ----------------------------------------
	.byte	W96
@ 048   ----------------------------------------
	.byte	W96
	.byte		EOT   , An3 
	.byte		        An4 
@ 049   ----------------------------------------
	.byte	PATT
	 .word	Battle7thSaga_2_009
@ 050   ----------------------------------------
	.byte	W96
@ 051   ----------------------------------------
	.byte	W96
@ 052   ----------------------------------------
	.byte	W96
	.byte		EOT   , Gs3 
	.byte		        Gs4 
@ 053   ----------------------------------------
	.byte	PATT
	 .word	Battle7thSaga_2_017
@ 054   ----------------------------------------
	.byte	W96
	.byte		EOT   , Bn3 
	.byte		        Bn4 
@ 055   ----------------------------------------
Battle7thSaga_2_055:
	.byte		TIE   , Cs4 , v080
	.byte		TIE   , Cs5 , v064
	.byte	W96
	.byte	PEND
@ 056   ----------------------------------------
	.byte	W96
	.byte		EOT   , Cs4 
	.byte		        Cs5 
@ 057   ----------------------------------------
Battle7thSaga_2_057:
	.byte		N96   , Dn4 , v080
	.byte		N96   , Dn5 , v064
	.byte	W96
	.byte	PEND
@ 058   ----------------------------------------
Battle7thSaga_2_058:
	.byte		N96   , En4 , v080
	.byte		N96   , En5 , v064
	.byte	W96
	.byte	PEND
@ 059   ----------------------------------------
Battle7thSaga_2_059:
	.byte		N48   , Cs4 , v080
	.byte		N48   , Cs5 , v064
	.byte	W48
	.byte		        An3 , v080
	.byte		N48   , An4 , v064
	.byte	W48
	.byte	PEND
@ 060   ----------------------------------------
Battle7thSaga_2_060:
	.byte		N48   , En3 , v080
	.byte		N48   , En4 , v064
	.byte	W48
	.byte		        An3 , v080
	.byte		N48   , An4 , v064
	.byte	W48
	.byte	PEND
@ 061   ----------------------------------------
	.byte	PATT
	 .word	Battle7thSaga_2_017
@ 062   ----------------------------------------
	.byte	W96
	.byte		EOT   , Bn3 
	.byte		        Bn4 
@ 063   ----------------------------------------
	.byte	PATT
	 .word	Battle7thSaga_2_055
@ 064   ----------------------------------------
	.byte	W96
	.byte		EOT   , Cs4 
	.byte		        Cs5 
@ 065   ----------------------------------------
	.byte		N96   , En3 , v080
	.byte		N96   , En4 , v064
	.byte	W96
@ 066   ----------------------------------------
	.byte		        Fs3 , v080
	.byte		N96   , Fs4 , v064
	.byte	W96
@ 067   ----------------------------------------
Battle7thSaga_2_067:
	.byte		N96   , Gn3 , v080
	.byte		N96   , Gn4 , v064
	.byte	W96
	.byte	PEND
@ 068   ----------------------------------------
Battle7thSaga_2_068:
	.byte		N96   , An3 , v080
	.byte		N96   , An4 , v064
	.byte	W96
	.byte	PEND
@ 069   ----------------------------------------
	.byte	PATT
	 .word	Battle7thSaga_2_017
@ 070   ----------------------------------------
	.byte	W96
	.byte		EOT   , Bn3 
	.byte		        Bn4 
@ 071   ----------------------------------------
	.byte	PATT
	 .word	Battle7thSaga_2_055
@ 072   ----------------------------------------
	.byte	W96
	.byte		EOT   , Cs4 
	.byte		        Cs5 
@ 073   ----------------------------------------
	.byte	PATT
	 .word	Battle7thSaga_2_057
@ 074   ----------------------------------------
	.byte	PATT
	 .word	Battle7thSaga_2_058
@ 075   ----------------------------------------
	.byte	PATT
	 .word	Battle7thSaga_2_059
@ 076   ----------------------------------------
	.byte	PATT
	 .word	Battle7thSaga_2_060
@ 077   ----------------------------------------
	.byte	PATT
	 .word	Battle7thSaga_2_017
@ 078   ----------------------------------------
	.byte	W96
	.byte		EOT   , Bn3 
	.byte		        Bn4 
@ 079   ----------------------------------------
	.byte	PATT
	 .word	Battle7thSaga_2_055
@ 080   ----------------------------------------
	.byte	W96
	.byte		EOT   , Cs4 
	.byte		        Cs5 
@ 081   ----------------------------------------
	.byte	PATT
	 .word	Battle7thSaga_2_067
@ 082   ----------------------------------------
	.byte	PATT
	 .word	Battle7thSaga_2_068
@ 083   ----------------------------------------
	.byte		N48   , Bn3 , v080
	.byte		N48   , Bn4 , v064
	.byte	W48
	.byte		        En4 , v080
	.byte		N48   , En5 , v064
	.byte	W48
@ 084   ----------------------------------------
	.byte	PATT
	 .word	Battle7thSaga_2_059
@ 085   ----------------------------------------
	.byte	W96
@ 086   ----------------------------------------
	.byte	W96
@ 087   ----------------------------------------
	.byte	W96
@ 088   ----------------------------------------
	.byte	W96
	.byte	GOTO
	 .word	Battle7thSaga_2_B1
Battle7thSaga_2_B2:
@ 089   ----------------------------------------
	.byte	PATT
	 .word	Battle7thSaga_2_005
@ 090   ----------------------------------------
	.byte	W96
@ 091   ----------------------------------------
	.byte	W96
@ 092   ----------------------------------------
	.byte	W96
	.byte		EOT   , An3 
	.byte		        An4 
@ 093   ----------------------------------------
	.byte	FINE

@**************** Track 3 (Midi-Chn.3) ****************@

Battle7thSaga_3:
	.byte	KEYSH , Battle7thSaga_key+0
@ 000   ----------------------------------------
	.byte		VOICE , 58
	.byte	W48
	.byte		VOL   , 112*Battle7thSaga_mvl/mxv
	.byte	W48
@ 001   ----------------------------------------
	.byte		N09   , Fs1 , v127
	.byte	W12
	.byte		        As1 
	.byte	W12
	.byte		        An1 
	.byte	W12
	.byte		        Cs2 
	.byte	W12
	.byte		        Gs1 
	.byte	W12
	.byte		        Bn1 
	.byte	W12
	.byte		        As1 
	.byte	W12
	.byte		        Fn1 
	.byte	W12
@ 002   ----------------------------------------
	.byte		        En1 
	.byte	W12
	.byte		        Fs1 
	.byte	W12
	.byte		        Gs1 
	.byte	W12
	.byte		        Gn1 
	.byte	W12
	.byte		        Fs1 
	.byte	W12
	.byte		        As1 
	.byte	W12
	.byte		        An1 
	.byte	W12
	.byte		        Cs2 
	.byte	W12
@ 003   ----------------------------------------
	.byte		        Gs1 
	.byte	W96
@ 004   ----------------------------------------
	.byte	W96
Battle7thSaga_3_B1:
@ 005   ----------------------------------------
	.byte	W96
@ 006   ----------------------------------------
	.byte	W96
@ 007   ----------------------------------------
	.byte	W96
@ 008   ----------------------------------------
	.byte	W96
@ 009   ----------------------------------------
	.byte	W96
@ 010   ----------------------------------------
	.byte	W96
@ 011   ----------------------------------------
	.byte	W96
@ 012   ----------------------------------------
	.byte	W96
@ 013   ----------------------------------------
	.byte	W96
@ 014   ----------------------------------------
	.byte	W96
@ 015   ----------------------------------------
	.byte	W96
@ 016   ----------------------------------------
	.byte	W96
@ 017   ----------------------------------------
	.byte	W96
@ 018   ----------------------------------------
	.byte	W96
@ 019   ----------------------------------------
	.byte	W96
@ 020   ----------------------------------------
	.byte	W96
@ 021   ----------------------------------------
	.byte	W96
@ 022   ----------------------------------------
	.byte	W96
@ 023   ----------------------------------------
	.byte	W96
@ 024   ----------------------------------------
	.byte	W96
@ 025   ----------------------------------------
	.byte	W96
@ 026   ----------------------------------------
	.byte	W96
@ 027   ----------------------------------------
	.byte	W96
@ 028   ----------------------------------------
	.byte	W96
@ 029   ----------------------------------------
	.byte	W96
@ 030   ----------------------------------------
	.byte	W96
@ 031   ----------------------------------------
	.byte	W96
@ 032   ----------------------------------------
	.byte	W96
@ 033   ----------------------------------------
	.byte	W96
@ 034   ----------------------------------------
	.byte	W96
@ 035   ----------------------------------------
	.byte	W96
@ 036   ----------------------------------------
	.byte	W96
@ 037   ----------------------------------------
	.byte	W96
@ 038   ----------------------------------------
	.byte	W96
@ 039   ----------------------------------------
	.byte	W96
@ 040   ----------------------------------------
	.byte	W96
@ 041   ----------------------------------------
	.byte	W96
@ 042   ----------------------------------------
	.byte	W96
@ 043   ----------------------------------------
	.byte	W96
@ 044   ----------------------------------------
	.byte	W96
@ 045   ----------------------------------------
	.byte	W96
@ 046   ----------------------------------------
	.byte	W96
@ 047   ----------------------------------------
	.byte	W96
@ 048   ----------------------------------------
	.byte	W96
@ 049   ----------------------------------------
	.byte	W96
@ 050   ----------------------------------------
	.byte	W96
@ 051   ----------------------------------------
	.byte	W96
@ 052   ----------------------------------------
	.byte	W96
@ 053   ----------------------------------------
	.byte	W96
@ 054   ----------------------------------------
	.byte	W96
@ 055   ----------------------------------------
	.byte	W96
@ 056   ----------------------------------------
	.byte	W96
@ 057   ----------------------------------------
	.byte	W96
@ 058   ----------------------------------------
	.byte	W96
@ 059   ----------------------------------------
	.byte	W96
@ 060   ----------------------------------------
	.byte	W96
@ 061   ----------------------------------------
	.byte	W96
@ 062   ----------------------------------------
	.byte	W96
@ 063   ----------------------------------------
	.byte	W96
@ 064   ----------------------------------------
	.byte	W96
@ 065   ----------------------------------------
	.byte	W96
@ 066   ----------------------------------------
	.byte	W96
@ 067   ----------------------------------------
	.byte	W96
@ 068   ----------------------------------------
	.byte	W96
@ 069   ----------------------------------------
	.byte	W96
@ 070   ----------------------------------------
	.byte	W96
@ 071   ----------------------------------------
	.byte	W96
@ 072   ----------------------------------------
	.byte	W96
@ 073   ----------------------------------------
	.byte	W96
@ 074   ----------------------------------------
	.byte	W96
@ 075   ----------------------------------------
	.byte	W96
@ 076   ----------------------------------------
	.byte	W96
@ 077   ----------------------------------------
	.byte	W96
@ 078   ----------------------------------------
	.byte	W96
@ 079   ----------------------------------------
	.byte	W96
@ 080   ----------------------------------------
	.byte	W96
@ 081   ----------------------------------------
	.byte	W96
@ 082   ----------------------------------------
	.byte	W96
@ 083   ----------------------------------------
	.byte	W96
@ 084   ----------------------------------------
	.byte	W96
@ 085   ----------------------------------------
	.byte	W96
@ 086   ----------------------------------------
	.byte	W96
@ 087   ----------------------------------------
	.byte	W96
@ 088   ----------------------------------------
	.byte	W96
	.byte	GOTO
	 .word	Battle7thSaga_3_B1
Battle7thSaga_3_B2:
@ 089   ----------------------------------------
	.byte	W96
@ 090   ----------------------------------------
	.byte	W96
@ 091   ----------------------------------------
	.byte	W96
@ 092   ----------------------------------------
	.byte	W96
@ 093   ----------------------------------------
	.byte	FINE

@**************** Track 4 (Midi-Chn.4) ****************@

Battle7thSaga_4:
	.byte	KEYSH , Battle7thSaga_key+0
@ 000   ----------------------------------------
	.byte		VOICE , 47
	.byte	W48
	.byte		VOL   , 112*Battle7thSaga_mvl/mxv
	.byte	W48
@ 001   ----------------------------------------
	.byte		N06   , Fs1 , v127
	.byte	W12
	.byte		        Fs1 , v004
	.byte	W06
	.byte		N06   
	.byte	W06
	.byte		N06   
	.byte	W06
	.byte		        Fs1 , v008
	.byte	W06
	.byte		N06   
	.byte	W06
	.byte		        Fs1 , v012
	.byte	W06
	.byte		N06   
	.byte	W06
	.byte		N06   
	.byte	W06
	.byte		        Fs1 , v016
	.byte	W06
	.byte		N06   
	.byte	W06
	.byte		N06   
	.byte	W06
	.byte		        Fs1 , v020
	.byte	W06
	.byte		N06   
	.byte	W06
	.byte		        Fs1 , v024
	.byte	W06
@ 002   ----------------------------------------
	.byte		N06   
	.byte	W06
	.byte		N06   
	.byte	W06
	.byte		        Fs1 , v028
	.byte	W06
	.byte		N06   
	.byte	W06
	.byte		N06   
	.byte	W06
	.byte		        Fs1 , v032
	.byte	W06
	.byte		N06   
	.byte	W06
	.byte		        Fs1 , v036
	.byte	W06
	.byte		N06   
	.byte	W06
	.byte		N06   
	.byte	W06
	.byte		        Fs1 , v040
	.byte	W06
	.byte		N06   
	.byte	W06
	.byte		        Fs1 , v044
	.byte	W06
	.byte		N06   
	.byte	W06
	.byte		N06   
	.byte	W06
	.byte		        Fs1 , v048
	.byte	W06
@ 003   ----------------------------------------
	.byte		N06   
	.byte	W06
	.byte		N06   
	.byte	W06
	.byte		        Fs1 , v052
	.byte	W06
	.byte		N06   
	.byte	W06
	.byte		        Fs1 , v056
	.byte	W06
	.byte		N06   
	.byte	W06
	.byte		N06   
	.byte	W06
	.byte		        Fs1 , v060
	.byte	W06
	.byte		N06   
	.byte	W06
	.byte		N06   
	.byte	W06
	.byte		        Fs1 , v064
	.byte	W06
	.byte		N06   
	.byte	W06
	.byte		        Fs1 , v068
	.byte	W06
	.byte		N06   
	.byte	W06
	.byte		N06   
	.byte	W06
	.byte		        Fs1 , v072
	.byte	W06
@ 004   ----------------------------------------
	.byte		N06   
	.byte	W06
	.byte		        Fs1 , v076
	.byte	W06
	.byte		N06   
	.byte	W06
	.byte		N06   
	.byte	W06
	.byte		        Fs1 , v080
	.byte	W06
	.byte		N06   
	.byte	W06
	.byte		N06   
	.byte	W06
	.byte		        Fs1 , v084
	.byte	W06
	.byte		N06   
	.byte	W06
	.byte		        Fs1 , v088
	.byte	W06
	.byte		N06   
	.byte	W06
	.byte		N06   
	.byte	W06
	.byte		        Fs1 , v092
	.byte	W06
	.byte		N06   
	.byte	W06
	.byte		N06   
	.byte	W06
	.byte		        Fs1 , v096
	.byte	W06
Battle7thSaga_4_B1:
@ 005   ----------------------------------------
	.byte	W96
@ 006   ----------------------------------------
	.byte	W96
@ 007   ----------------------------------------
	.byte	W96
@ 008   ----------------------------------------
	.byte	W96
@ 009   ----------------------------------------
	.byte	W96
@ 010   ----------------------------------------
	.byte	W96
@ 011   ----------------------------------------
	.byte	W96
@ 012   ----------------------------------------
	.byte	W96
@ 013   ----------------------------------------
	.byte	W96
@ 014   ----------------------------------------
	.byte	W96
@ 015   ----------------------------------------
	.byte	W96
@ 016   ----------------------------------------
	.byte	W96
@ 017   ----------------------------------------
	.byte	W96
@ 018   ----------------------------------------
	.byte	W96
@ 019   ----------------------------------------
	.byte	W96
@ 020   ----------------------------------------
	.byte	W96
@ 021   ----------------------------------------
	.byte	W96
@ 022   ----------------------------------------
	.byte	W96
@ 023   ----------------------------------------
	.byte	W96
@ 024   ----------------------------------------
	.byte	W96
@ 025   ----------------------------------------
	.byte	W96
@ 026   ----------------------------------------
	.byte	W96
@ 027   ----------------------------------------
	.byte	W96
@ 028   ----------------------------------------
	.byte	W96
@ 029   ----------------------------------------
	.byte	W96
@ 030   ----------------------------------------
	.byte	W96
@ 031   ----------------------------------------
	.byte	W96
@ 032   ----------------------------------------
	.byte	W96
@ 033   ----------------------------------------
	.byte	W96
@ 034   ----------------------------------------
	.byte	W96
@ 035   ----------------------------------------
	.byte	W96
@ 036   ----------------------------------------
	.byte	W96
@ 037   ----------------------------------------
	.byte	W96
@ 038   ----------------------------------------
	.byte	W96
@ 039   ----------------------------------------
	.byte	W96
@ 040   ----------------------------------------
	.byte	W96
@ 041   ----------------------------------------
	.byte	W96
@ 042   ----------------------------------------
	.byte	W96
@ 043   ----------------------------------------
	.byte	W96
@ 044   ----------------------------------------
	.byte	W96
@ 045   ----------------------------------------
	.byte	W96
@ 046   ----------------------------------------
	.byte	W96
@ 047   ----------------------------------------
	.byte	W96
@ 048   ----------------------------------------
	.byte	W96
@ 049   ----------------------------------------
	.byte	W96
@ 050   ----------------------------------------
	.byte	W96
@ 051   ----------------------------------------
	.byte	W96
@ 052   ----------------------------------------
	.byte	W96
@ 053   ----------------------------------------
	.byte	W96
@ 054   ----------------------------------------
	.byte	W96
@ 055   ----------------------------------------
	.byte	W96
@ 056   ----------------------------------------
	.byte	W96
@ 057   ----------------------------------------
	.byte	W96
@ 058   ----------------------------------------
	.byte	W96
@ 059   ----------------------------------------
	.byte	W96
@ 060   ----------------------------------------
	.byte	W96
@ 061   ----------------------------------------
	.byte	W96
@ 062   ----------------------------------------
	.byte	W96
@ 063   ----------------------------------------
	.byte	W96
@ 064   ----------------------------------------
	.byte	W96
@ 065   ----------------------------------------
	.byte	W96
@ 066   ----------------------------------------
	.byte	W96
@ 067   ----------------------------------------
	.byte	W96
@ 068   ----------------------------------------
	.byte	W96
@ 069   ----------------------------------------
	.byte	W96
@ 070   ----------------------------------------
	.byte	W96
@ 071   ----------------------------------------
	.byte	W96
@ 072   ----------------------------------------
	.byte	W96
@ 073   ----------------------------------------
	.byte	W96
@ 074   ----------------------------------------
	.byte	W96
@ 075   ----------------------------------------
	.byte	W96
@ 076   ----------------------------------------
	.byte	W96
@ 077   ----------------------------------------
	.byte	W96
@ 078   ----------------------------------------
	.byte	W96
@ 079   ----------------------------------------
	.byte	W96
@ 080   ----------------------------------------
	.byte	W96
@ 081   ----------------------------------------
	.byte	W96
@ 082   ----------------------------------------
	.byte	W96
@ 083   ----------------------------------------
	.byte	W96
@ 084   ----------------------------------------
	.byte	W96
@ 085   ----------------------------------------
	.byte	W96
@ 086   ----------------------------------------
	.byte	W96
@ 087   ----------------------------------------
	.byte	W96
@ 088   ----------------------------------------
	.byte	W96
	.byte	GOTO
	 .word	Battle7thSaga_4_B1
Battle7thSaga_4_B2:
@ 089   ----------------------------------------
	.byte	W96
@ 090   ----------------------------------------
	.byte	W96
@ 091   ----------------------------------------
	.byte	W96
@ 092   ----------------------------------------
	.byte	W96
@ 093   ----------------------------------------
	.byte	FINE

@**************** Track 5 (Midi-Chn.5) ****************@

Battle7thSaga_5:
	.byte	KEYSH , Battle7thSaga_key+0
@ 000   ----------------------------------------
	.byte		VOICE , 29
	.byte	W48
	.byte		VOL   , 127*Battle7thSaga_mvl/mxv
	.byte	W48
@ 001   ----------------------------------------
	.byte	W96
@ 002   ----------------------------------------
	.byte	W96
@ 003   ----------------------------------------
	.byte	W96
@ 004   ----------------------------------------
	.byte	W96
Battle7thSaga_5_B1:
@ 005   ----------------------------------------
Battle7thSaga_5_005:
	.byte		N12   , Fs4 , v127
	.byte	W12
	.byte		        Dn4 
	.byte	W12
	.byte		        Bn3 
	.byte	W12
	.byte		        Gs4 
	.byte	W24
	.byte		        Fs4 
	.byte	W12
	.byte		        En4 
	.byte	W12
	.byte		        An4 
	.byte	W12
	.byte	PEND
@ 006   ----------------------------------------
Battle7thSaga_5_006:
	.byte	W12
	.byte		N12   , Gs4 , v127
	.byte	W12
	.byte		        Fs4 
	.byte	W12
	.byte		        En4 
	.byte	W12
	.byte		TIE   , Fs4 
	.byte	W48
	.byte	PEND
@ 007   ----------------------------------------
	.byte	W96
	.byte		EOT   
@ 008   ----------------------------------------
Battle7thSaga_5_008:
	.byte	W48
	.byte	W24
	.byte		N12   , Cs4 , v127
	.byte	W12
	.byte		        Dn4 
	.byte	W12
	.byte	PEND
@ 009   ----------------------------------------
Battle7thSaga_5_009:
	.byte		N12   , Cs4 , v127
	.byte	W12
	.byte		        Bn3 
	.byte	W12
	.byte		        An3 
	.byte	W12
	.byte		N36   , En4 
	.byte	W36
	.byte		N12   , Cs4 
	.byte	W12
	.byte		N72   , An3 
	.byte	W12
	.byte	PEND
@ 010   ----------------------------------------
Battle7thSaga_5_010:
	.byte	W72
	.byte		N24   , En3 , v127
	.byte	W24
	.byte	PEND
@ 011   ----------------------------------------
Battle7thSaga_5_011:
	.byte		N96   , Fs3 , v127
	.byte	W96
	.byte	PEND
@ 012   ----------------------------------------
	.byte	W96
@ 013   ----------------------------------------
Battle7thSaga_5_013:
	.byte		N12   , Fs4 , v127
	.byte	W12
	.byte		        Dn4 
	.byte	W12
	.byte		        Bn3 
	.byte	W12
	.byte		        Gs4 
	.byte	W24
	.byte		        Fs4 
	.byte	W12
	.byte		        En4 
	.byte	W12
	.byte		        An4 
	.byte	W12
	.byte	PEND
@ 014   ----------------------------------------
	.byte	PATT
	 .word	Battle7thSaga_5_006
@ 015   ----------------------------------------
	.byte	W96
	.byte		EOT   , Fs4 
@ 016   ----------------------------------------
Battle7thSaga_5_016:
	.byte	W48
	.byte	W24
	.byte		N12   , Bn4 , v127
	.byte	W12
	.byte		N12   
	.byte	W12
	.byte	PEND
@ 017   ----------------------------------------
Battle7thSaga_5_017:
	.byte		N12   , Gs4 , v127
	.byte	W12
	.byte		        An4 
	.byte	W12
	.byte		        Gs4 
	.byte	W12
	.byte		N36   , En4 
	.byte	W36
	.byte		N12   , Gs4 
	.byte	W12
	.byte		TIE   , Fs4 
	.byte	W12
	.byte	PEND
@ 018   ----------------------------------------
	.byte	W96
	.byte		EOT   
@ 019   ----------------------------------------
Battle7thSaga_5_019:
	.byte		N06   , Bn0 , v064
	.byte	W06
	.byte		        Fs1 , v068
	.byte	W06
	.byte		        An1 
	.byte	W06
	.byte		        En1 
	.byte	W06
	.byte		        An1 , v072
	.byte	W06
	.byte		        Bn1 
	.byte	W06
	.byte		        An1 , v076
	.byte	W06
	.byte		        Bn1 
	.byte	W06
	.byte		        En2 
	.byte	W06
	.byte		        Bn1 , v080
	.byte	W06
	.byte		        Fs2 
	.byte	W06
	.byte		        An2 
	.byte	W06
	.byte		        En2 , v084
	.byte	W06
	.byte		        An2 
	.byte	W06
	.byte		        Bn2 , v088
	.byte	W06
	.byte		        An2 
	.byte	W06
	.byte	PEND
@ 020   ----------------------------------------
Battle7thSaga_5_020:
	.byte		N06   , Bn2 , v088
	.byte	W06
	.byte		        En3 , v092
	.byte	W06
	.byte		        Bn2 
	.byte	W06
	.byte		        Fs3 
	.byte	W06
	.byte		        An3 , v096
	.byte	W06
	.byte		        En3 
	.byte	W06
	.byte		        An3 , v100
	.byte	W06
	.byte		        Bn3 
	.byte	W06
	.byte		        An3 
	.byte	W06
	.byte		        Bn3 , v104
	.byte	W06
	.byte		        En4 
	.byte	W06
	.byte		        Bn3 
	.byte	W06
	.byte		        En4 , v108
	.byte	W06
	.byte		        Fs4 
	.byte	W06
	.byte		        Bn4 , v112
	.byte	W06
	.byte		        En5 
	.byte	W06
	.byte	PEND
@ 021   ----------------------------------------
	.byte	W96
@ 022   ----------------------------------------
	.byte	W96
@ 023   ----------------------------------------
	.byte	W96
@ 024   ----------------------------------------
	.byte	W96
@ 025   ----------------------------------------
	.byte	W96
@ 026   ----------------------------------------
	.byte	W96
@ 027   ----------------------------------------
	.byte	W96
@ 028   ----------------------------------------
	.byte	W96
@ 029   ----------------------------------------
	.byte	PATT
	 .word	Battle7thSaga_5_005
@ 030   ----------------------------------------
	.byte	PATT
	 .word	Battle7thSaga_5_006
@ 031   ----------------------------------------
	.byte	W96
	.byte		EOT   , Fs4 
@ 032   ----------------------------------------
	.byte	PATT
	 .word	Battle7thSaga_5_008
@ 033   ----------------------------------------
	.byte	PATT
	 .word	Battle7thSaga_5_009
@ 034   ----------------------------------------
	.byte	PATT
	 .word	Battle7thSaga_5_010
@ 035   ----------------------------------------
	.byte	PATT
	 .word	Battle7thSaga_5_011
@ 036   ----------------------------------------
	.byte	W96
@ 037   ----------------------------------------
	.byte	PATT
	 .word	Battle7thSaga_5_013
@ 038   ----------------------------------------
	.byte	PATT
	 .word	Battle7thSaga_5_006
@ 039   ----------------------------------------
	.byte	W96
	.byte		EOT   , Fs4 
@ 040   ----------------------------------------
	.byte	PATT
	 .word	Battle7thSaga_5_016
@ 041   ----------------------------------------
	.byte	PATT
	 .word	Battle7thSaga_5_017
@ 042   ----------------------------------------
	.byte	W96
	.byte		EOT   , Fs4 
@ 043   ----------------------------------------
	.byte	PATT
	 .word	Battle7thSaga_5_019
@ 044   ----------------------------------------
	.byte	PATT
	 .word	Battle7thSaga_5_020
@ 045   ----------------------------------------
	.byte	W96
@ 046   ----------------------------------------
	.byte	W96
@ 047   ----------------------------------------
	.byte	W96
@ 048   ----------------------------------------
	.byte	W96
@ 049   ----------------------------------------
	.byte	W96
@ 050   ----------------------------------------
	.byte	W96
@ 051   ----------------------------------------
	.byte	W96
@ 052   ----------------------------------------
	.byte	W96
@ 053   ----------------------------------------
Battle7thSaga_5_053:
	.byte	W12
	.byte		N12   , Gn4 , v127
	.byte	W12
	.byte		        An4 
	.byte	W12
	.byte		        Gn3 
	.byte	W12
	.byte		        An3 
	.byte	W12
	.byte		        Dn4 
	.byte	W12
	.byte		        Gn4 
	.byte	W12
	.byte		        Fs4 
	.byte	W12
	.byte	PEND
@ 054   ----------------------------------------
Battle7thSaga_5_054:
	.byte		N12   , En4 , v127
	.byte	W12
	.byte		        Gn3 
	.byte	W12
	.byte		        Dn4 
	.byte	W12
	.byte		N24   , En4 
	.byte	W24
	.byte		N12   , Cs4 
	.byte	W12
	.byte		        Bn3 
	.byte	W12
	.byte		        An3 
	.byte	W12
	.byte	PEND
@ 055   ----------------------------------------
Battle7thSaga_5_055:
	.byte		N24   , En3 , v127
	.byte	W24
	.byte		N12   , Bn3 
	.byte	W12
	.byte		N24   , Dn3 
	.byte	W24
	.byte		N12   , An3 
	.byte	W12
	.byte		N24   , Cs3 
	.byte	W24
	.byte	PEND
@ 056   ----------------------------------------
Battle7thSaga_5_056:
	.byte		N12   , An3 , v127
	.byte	W12
	.byte		N24   , Bn2 
	.byte	W24
	.byte		N12   , Fs3 
	.byte	W12
	.byte		N24   , An2 
	.byte	W24
	.byte		        Fs2 
	.byte	W24
	.byte	PEND
@ 057   ----------------------------------------
Battle7thSaga_5_057:
	.byte		TIE   , Bn2 , v127
	.byte	W96
	.byte	PEND
@ 058   ----------------------------------------
	.byte	W96
	.byte		EOT   
@ 059   ----------------------------------------
	.byte	W48
	.byte	W48
@ 060   ----------------------------------------
	.byte	W96
@ 061   ----------------------------------------
	.byte	PATT
	 .word	Battle7thSaga_5_053
@ 062   ----------------------------------------
	.byte	PATT
	 .word	Battle7thSaga_5_054
@ 063   ----------------------------------------
	.byte	PATT
	 .word	Battle7thSaga_5_055
@ 064   ----------------------------------------
	.byte	PATT
	 .word	Battle7thSaga_5_056
@ 065   ----------------------------------------
Battle7thSaga_5_065:
	.byte		N96   , Bn2 , v127
	.byte	W96
	.byte	PEND
@ 066   ----------------------------------------
	.byte		        Cs3 
	.byte	W96
@ 067   ----------------------------------------
	.byte		        Dn3 
	.byte	W96
@ 068   ----------------------------------------
	.byte		        En3 
	.byte	W96
@ 069   ----------------------------------------
	.byte	W12
	.byte		N12   , Gn4 
	.byte	W12
	.byte		        An4 
	.byte	W12
	.byte		        Gn3 
	.byte	W12
	.byte		        An3 
	.byte	W12
	.byte		        Dn4 
	.byte	W12
	.byte		        Gn4 
	.byte	W12
	.byte		        Fs4 
	.byte	W12
@ 070   ----------------------------------------
	.byte	PATT
	 .word	Battle7thSaga_5_054
@ 071   ----------------------------------------
	.byte	PATT
	 .word	Battle7thSaga_5_055
@ 072   ----------------------------------------
	.byte	PATT
	 .word	Battle7thSaga_5_056
@ 073   ----------------------------------------
	.byte	PATT
	 .word	Battle7thSaga_5_057
@ 074   ----------------------------------------
	.byte	W96
	.byte		EOT   , Bn2 
@ 075   ----------------------------------------
	.byte	W48
	.byte	W48
@ 076   ----------------------------------------
	.byte	W96
@ 077   ----------------------------------------
	.byte	PATT
	 .word	Battle7thSaga_5_053
@ 078   ----------------------------------------
	.byte	PATT
	 .word	Battle7thSaga_5_054
@ 079   ----------------------------------------
	.byte	PATT
	 .word	Battle7thSaga_5_055
@ 080   ----------------------------------------
	.byte	PATT
	 .word	Battle7thSaga_5_056
@ 081   ----------------------------------------
	.byte	PATT
	 .word	Battle7thSaga_5_065
@ 082   ----------------------------------------
	.byte		N96   , Cs3 , v127
	.byte	W96
@ 083   ----------------------------------------
	.byte		        Dn3 
	.byte	W96
@ 084   ----------------------------------------
	.byte		        En3 
	.byte	W96
@ 085   ----------------------------------------
	.byte	W96
@ 086   ----------------------------------------
	.byte	W96
@ 087   ----------------------------------------
	.byte	W96
@ 088   ----------------------------------------
	.byte	W96
	.byte	GOTO
	 .word	Battle7thSaga_5_B1
Battle7thSaga_5_B2:
@ 089   ----------------------------------------
	.byte	PATT
	 .word	Battle7thSaga_5_005
@ 090   ----------------------------------------
	.byte	PATT
	 .word	Battle7thSaga_5_006
@ 091   ----------------------------------------
	.byte	W96
	.byte		EOT   , Fs4 
@ 092   ----------------------------------------
	.byte	PATT
	 .word	Battle7thSaga_5_008
@ 093   ----------------------------------------
	.byte	FINE

@**************** Track 6 (Midi-Chn.6) ****************@

Battle7thSaga_6:
	.byte	KEYSH , Battle7thSaga_key+0
@ 000   ----------------------------------------
	.byte		VOICE , 38
	.byte		VOL   , 127*Battle7thSaga_mvl/mxv
	.byte	W48
	.byte	W48
@ 001   ----------------------------------------
	.byte	W96
@ 002   ----------------------------------------
	.byte	W96
@ 003   ----------------------------------------
	.byte	W96
@ 004   ----------------------------------------
	.byte	W96
Battle7thSaga_6_B1:
@ 005   ----------------------------------------
Battle7thSaga_6_005:
	.byte		N12   , An1 , v112
	.byte	W12
	.byte		        Bn1 
	.byte	W24
	.byte		N12   
	.byte	W24
	.byte		N12   
	.byte	W12
	.byte		        An1 
	.byte	W12
	.byte		        Fs1 
	.byte	W12
	.byte	PEND
@ 006   ----------------------------------------
Battle7thSaga_6_006:
	.byte		N12   , An1 , v112
	.byte	W12
	.byte		        Bn1 
	.byte	W12
	.byte		        An2 
	.byte	W12
	.byte		        Bn2 
	.byte	W12
	.byte		        An1 
	.byte	W24
	.byte		        Bn1 
	.byte	W24
	.byte	PEND
@ 007   ----------------------------------------
Battle7thSaga_6_007:
	.byte		N24   , An1 , v112
	.byte	W24
	.byte		N12   , Bn1 
	.byte	W24
	.byte		N12   
	.byte	W12
	.byte		        An1 
	.byte	W24
	.byte		N12   
	.byte	W12
	.byte	PEND
@ 008   ----------------------------------------
Battle7thSaga_6_008:
	.byte		N12   , Gn2 , v112
	.byte	W12
	.byte		        An2 
	.byte	W12
	.byte		        An1 
	.byte	W12
	.byte		        Fs1 
	.byte	W36
	.byte		        Dn2 
	.byte	W24
	.byte	PEND
@ 009   ----------------------------------------
Battle7thSaga_6_009:
	.byte		N12   , An1 , v112
	.byte	W12
	.byte		        Bn1 
	.byte	W24
	.byte		N12   
	.byte	W24
	.byte		N12   
	.byte	W12
	.byte		        An1 
	.byte	W12
	.byte		        Fs1 
	.byte	W12
	.byte	PEND
@ 010   ----------------------------------------
	.byte	PATT
	 .word	Battle7thSaga_6_006
@ 011   ----------------------------------------
Battle7thSaga_6_011:
	.byte		N12   , An1 , v112
	.byte	W24
	.byte		        Bn1 
	.byte	W24
	.byte		N12   
	.byte	W12
	.byte		        An1 
	.byte	W24
	.byte		        Bn1 
	.byte	W12
	.byte	PEND
@ 012   ----------------------------------------
Battle7thSaga_6_012:
	.byte		N12   , An2 , v112
	.byte	W12
	.byte		        Gs2 
	.byte	W12
	.byte		        En2 
	.byte	W12
	.byte		        Fs2 
	.byte	W24
	.byte		N18   , Dn2 
	.byte	W36
	.byte	PEND
@ 013   ----------------------------------------
	.byte	PATT
	 .word	Battle7thSaga_6_009
@ 014   ----------------------------------------
	.byte	PATT
	 .word	Battle7thSaga_6_006
@ 015   ----------------------------------------
	.byte	PATT
	 .word	Battle7thSaga_6_007
@ 016   ----------------------------------------
	.byte	PATT
	 .word	Battle7thSaga_6_008
@ 017   ----------------------------------------
	.byte	PATT
	 .word	Battle7thSaga_6_009
@ 018   ----------------------------------------
	.byte	PATT
	 .word	Battle7thSaga_6_006
@ 019   ----------------------------------------
	.byte	PATT
	 .word	Battle7thSaga_6_011
@ 020   ----------------------------------------
	.byte	PATT
	 .word	Battle7thSaga_6_012
@ 021   ----------------------------------------
	.byte	PATT
	 .word	Battle7thSaga_6_009
@ 022   ----------------------------------------
	.byte	PATT
	 .word	Battle7thSaga_6_006
@ 023   ----------------------------------------
	.byte	PATT
	 .word	Battle7thSaga_6_007
@ 024   ----------------------------------------
	.byte	PATT
	 .word	Battle7thSaga_6_008
@ 025   ----------------------------------------
	.byte	PATT
	 .word	Battle7thSaga_6_009
@ 026   ----------------------------------------
	.byte	PATT
	 .word	Battle7thSaga_6_006
@ 027   ----------------------------------------
	.byte	PATT
	 .word	Battle7thSaga_6_011
@ 028   ----------------------------------------
	.byte	PATT
	 .word	Battle7thSaga_6_012
@ 029   ----------------------------------------
	.byte	PATT
	 .word	Battle7thSaga_6_009
@ 030   ----------------------------------------
	.byte	PATT
	 .word	Battle7thSaga_6_006
@ 031   ----------------------------------------
	.byte	PATT
	 .word	Battle7thSaga_6_007
@ 032   ----------------------------------------
	.byte	PATT
	 .word	Battle7thSaga_6_008
@ 033   ----------------------------------------
	.byte	PATT
	 .word	Battle7thSaga_6_009
@ 034   ----------------------------------------
	.byte	PATT
	 .word	Battle7thSaga_6_006
@ 035   ----------------------------------------
	.byte	PATT
	 .word	Battle7thSaga_6_011
@ 036   ----------------------------------------
	.byte	PATT
	 .word	Battle7thSaga_6_012
@ 037   ----------------------------------------
	.byte	PATT
	 .word	Battle7thSaga_6_009
@ 038   ----------------------------------------
	.byte	PATT
	 .word	Battle7thSaga_6_006
@ 039   ----------------------------------------
	.byte	PATT
	 .word	Battle7thSaga_6_007
@ 040   ----------------------------------------
	.byte	PATT
	 .word	Battle7thSaga_6_008
@ 041   ----------------------------------------
	.byte	PATT
	 .word	Battle7thSaga_6_009
@ 042   ----------------------------------------
	.byte	PATT
	 .word	Battle7thSaga_6_006
@ 043   ----------------------------------------
	.byte	PATT
	 .word	Battle7thSaga_6_011
@ 044   ----------------------------------------
	.byte	PATT
	 .word	Battle7thSaga_6_012
@ 045   ----------------------------------------
	.byte	PATT
	 .word	Battle7thSaga_6_009
@ 046   ----------------------------------------
	.byte	PATT
	 .word	Battle7thSaga_6_006
@ 047   ----------------------------------------
	.byte	PATT
	 .word	Battle7thSaga_6_007
@ 048   ----------------------------------------
	.byte	PATT
	 .word	Battle7thSaga_6_008
@ 049   ----------------------------------------
	.byte	PATT
	 .word	Battle7thSaga_6_009
@ 050   ----------------------------------------
	.byte	PATT
	 .word	Battle7thSaga_6_006
@ 051   ----------------------------------------
	.byte	PATT
	 .word	Battle7thSaga_6_011
@ 052   ----------------------------------------
	.byte	PATT
	 .word	Battle7thSaga_6_012
@ 053   ----------------------------------------
Battle7thSaga_6_053:
	.byte		N24   , Gn1 , v112
	.byte	W24
	.byte		N12   , Gn2 
	.byte	W24
	.byte		        Fs2 
	.byte	W24
	.byte		        Gn1 
	.byte	W12
	.byte		N12   
	.byte	W12
	.byte	PEND
@ 054   ----------------------------------------
Battle7thSaga_6_054:
	.byte		N12   , Gn2 , v112
	.byte	W12
	.byte		        Gn1 
	.byte	W12
	.byte		N12   
	.byte	W12
	.byte		        Gn2 
	.byte	W12
	.byte		        Gn1 
	.byte	W12
	.byte		N12   
	.byte	W12
	.byte		N24   , Gn2 
	.byte	W24
	.byte	PEND
@ 055   ----------------------------------------
Battle7thSaga_6_055:
	.byte		N24   , An1 , v112
	.byte	W24
	.byte		N12   , An2 
	.byte	W24
	.byte		N12   
	.byte	W24
	.byte		        Fs1 
	.byte	W12
	.byte		N12   
	.byte	W12
	.byte	PEND
@ 056   ----------------------------------------
Battle7thSaga_6_056:
	.byte	W12
	.byte		N12   , Fs1 , v112
	.byte	W12
	.byte		N24   , An1 
	.byte	W24
	.byte		        Fs2 
	.byte	W24
	.byte		        An2 
	.byte	W24
	.byte	PEND
@ 057   ----------------------------------------
Battle7thSaga_6_057:
	.byte		N24   , Bn1 , v112
	.byte	W24
	.byte		N12   , Bn2 
	.byte	W24
	.byte		N12   
	.byte	W24
	.byte		        Bn1 
	.byte	W12
	.byte		N12   
	.byte	W12
	.byte	PEND
@ 058   ----------------------------------------
Battle7thSaga_6_058:
	.byte		N12   , Bn2 , v112
	.byte	W12
	.byte		        Bn1 
	.byte	W12
	.byte		N12   
	.byte	W12
	.byte		        Bn2 
	.byte	W12
	.byte		        Bn1 
	.byte	W12
	.byte		N12   
	.byte	W12
	.byte		N24   , An2 
	.byte	W24
	.byte	PEND
@ 059   ----------------------------------------
	.byte	PATT
	 .word	Battle7thSaga_6_057
@ 060   ----------------------------------------
	.byte	PATT
	 .word	Battle7thSaga_6_058
@ 061   ----------------------------------------
	.byte	PATT
	 .word	Battle7thSaga_6_053
@ 062   ----------------------------------------
	.byte	PATT
	 .word	Battle7thSaga_6_054
@ 063   ----------------------------------------
Battle7thSaga_6_063:
	.byte		N24   , En1 , v112
	.byte	W24
	.byte		N12   , En2 
	.byte	W24
	.byte		N12   
	.byte	W24
	.byte		        En1 
	.byte	W12
	.byte		N12   
	.byte	W12
	.byte	PEND
@ 064   ----------------------------------------
Battle7thSaga_6_064:
	.byte	W12
	.byte		N12   , En1 , v112
	.byte	W12
	.byte		N24   , En2 
	.byte	W24
	.byte		        Fn1 
	.byte	W24
	.byte		N12   , Fs2 
	.byte	W12
	.byte		N12   
	.byte	W12
	.byte	PEND
@ 065   ----------------------------------------
	.byte		N24   , Fs1 
	.byte	W24
	.byte		N12   , Fs2 
	.byte	W24
	.byte		N12   
	.byte	W24
	.byte		        Fs1 
	.byte	W12
	.byte		N12   
	.byte	W12
@ 066   ----------------------------------------
	.byte		        Fs2 
	.byte	W12
	.byte		        Fs1 
	.byte	W12
	.byte		N12   
	.byte	W12
	.byte		        Fs2 
	.byte	W12
	.byte		N24   , Fs1 
	.byte	W24
	.byte		        Fs2 
	.byte	W24
@ 067   ----------------------------------------
	.byte		        Gn1 
	.byte	W24
	.byte		N12   , Gn2 
	.byte	W24
	.byte		N12   
	.byte	W24
	.byte		        Gn1 
	.byte	W12
	.byte		N12   
	.byte	W12
@ 068   ----------------------------------------
	.byte		        An2 
	.byte	W12
	.byte		N12   
	.byte	W12
	.byte		        An1 
	.byte	W12
	.byte		        An2 
	.byte	W12
	.byte		N12   
	.byte	W12
	.byte		N12   
	.byte	W12
	.byte		N24   , An1 
	.byte	W24
@ 069   ----------------------------------------
	.byte	PATT
	 .word	Battle7thSaga_6_053
@ 070   ----------------------------------------
	.byte	PATT
	 .word	Battle7thSaga_6_054
@ 071   ----------------------------------------
	.byte	PATT
	 .word	Battle7thSaga_6_055
@ 072   ----------------------------------------
	.byte	PATT
	 .word	Battle7thSaga_6_056
@ 073   ----------------------------------------
	.byte	PATT
	 .word	Battle7thSaga_6_057
@ 074   ----------------------------------------
	.byte	PATT
	 .word	Battle7thSaga_6_058
@ 075   ----------------------------------------
	.byte	PATT
	 .word	Battle7thSaga_6_057
@ 076   ----------------------------------------
	.byte	PATT
	 .word	Battle7thSaga_6_058
@ 077   ----------------------------------------
	.byte	PATT
	 .word	Battle7thSaga_6_053
@ 078   ----------------------------------------
	.byte	PATT
	 .word	Battle7thSaga_6_054
@ 079   ----------------------------------------
	.byte	PATT
	 .word	Battle7thSaga_6_063
@ 080   ----------------------------------------
	.byte	PATT
	 .word	Battle7thSaga_6_064
@ 081   ----------------------------------------
	.byte		N24   , En1 , v112
	.byte	W24
	.byte		N12   , En2 
	.byte	W24
	.byte		N24   
	.byte	W24
	.byte		N12   , En1 
	.byte	W12
	.byte		N12   
	.byte	W12
@ 082   ----------------------------------------
	.byte		        Fs1 
	.byte	W12
	.byte		N12   
	.byte	W12
	.byte		        Fs2 
	.byte	W24
	.byte		N24   
	.byte	W24
	.byte		        Fs1 
	.byte	W24
@ 083   ----------------------------------------
	.byte		        Gn1 
	.byte	W24
	.byte		N12   , Gn2 
	.byte	W24
	.byte		N24   
	.byte	W24
	.byte		N12   , Gn1 
	.byte	W12
	.byte		N12   
	.byte	W12
@ 084   ----------------------------------------
	.byte		        An1 
	.byte	W12
	.byte		N12   
	.byte	W12
	.byte		        An2 
	.byte	W24
	.byte		N24   
	.byte	W24
	.byte		        An1 
	.byte	W24
@ 085   ----------------------------------------
	.byte		N06   , Bn2 , v080
	.byte	W12
	.byte		        En3 , v112
	.byte	W12
	.byte		        Dn3 
	.byte	W12
	.byte		        An2 
	.byte	W12
	.byte		        Dn3 
	.byte	W12
	.byte		        Cs3 
	.byte	W12
	.byte		        Cs3 , v080
	.byte	W12
	.byte		        Bn2 , v112
	.byte	W12
@ 086   ----------------------------------------
	.byte		        An2 
	.byte	W12
	.byte		        Bn2 , v080
	.byte	W12
	.byte		        Dn3 , v112
	.byte	W12
	.byte		        Cs3 
	.byte	W12
	.byte		        Bn2 , v080
	.byte	W12
	.byte		        Dn3 , v112
	.byte	W12
	.byte		        Cs3 
	.byte	W12
	.byte		        Bn2 , v080
	.byte	W12
@ 087   ----------------------------------------
	.byte		        En3 , v112
	.byte	W12
	.byte		        Dn3 
	.byte	W12
	.byte		        Cs3 , v080
	.byte	W12
	.byte		        Bn2 , v112
	.byte	W12
	.byte		        An2 
	.byte	W12
	.byte		        Bn2 , v080
	.byte	W12
	.byte		        Dn3 , v112
	.byte	W12
	.byte		        Cs3 
	.byte	W12
@ 088   ----------------------------------------
	.byte		        Dn3 , v080
	.byte	W12
	.byte		        Dn3 , v112
	.byte	W12
	.byte		        Cs3 
	.byte	W12
	.byte		        Dn3 
	.byte	W12
	.byte		N06   
	.byte	W12
	.byte		        En3 
	.byte	W12
	.byte		        Fs2 
	.byte	W12
	.byte		N06   
	.byte	W12
	.byte	GOTO
	 .word	Battle7thSaga_6_B1
Battle7thSaga_6_B2:
@ 089   ----------------------------------------
	.byte	PATT
	 .word	Battle7thSaga_6_005
@ 090   ----------------------------------------
	.byte	PATT
	 .word	Battle7thSaga_6_006
@ 091   ----------------------------------------
	.byte	PATT
	 .word	Battle7thSaga_6_007
@ 092   ----------------------------------------
	.byte	PATT
	 .word	Battle7thSaga_6_008
@ 093   ----------------------------------------
	.byte	FINE

@**************** Track 7 (Midi-Chn.7) ****************@

Battle7thSaga_7:
	.byte	KEYSH , Battle7thSaga_key+0
@ 000   ----------------------------------------
	.byte		VOICE , 57
	.byte		VOL   , 127*Battle7thSaga_mvl/mxv
	.byte	W48
	.byte	W48
@ 001   ----------------------------------------
	.byte	W96
@ 002   ----------------------------------------
	.byte	W96
@ 003   ----------------------------------------
	.byte	W96
@ 004   ----------------------------------------
	.byte	W96
Battle7thSaga_7_B1:
@ 005   ----------------------------------------
	.byte	W96
@ 006   ----------------------------------------
	.byte	W96
@ 007   ----------------------------------------
	.byte	W96
@ 008   ----------------------------------------
	.byte	W96
@ 009   ----------------------------------------
	.byte	W96
@ 010   ----------------------------------------
	.byte	W96
@ 011   ----------------------------------------
	.byte	W96
@ 012   ----------------------------------------
	.byte	W96
@ 013   ----------------------------------------
	.byte	W96
@ 014   ----------------------------------------
	.byte	W96
@ 015   ----------------------------------------
	.byte	W96
@ 016   ----------------------------------------
	.byte	W96
@ 017   ----------------------------------------
	.byte	W96
@ 018   ----------------------------------------
	.byte	W96
@ 019   ----------------------------------------
	.byte	W96
@ 020   ----------------------------------------
	.byte	W96
@ 021   ----------------------------------------
Battle7thSaga_7_021:
	.byte		N12   , Bn2 , v096
	.byte	W48
	.byte		        Cs3 
	.byte	W48
	.byte	PEND
@ 022   ----------------------------------------
Battle7thSaga_7_022:
	.byte		N12   , Dn3 , v096
	.byte	W36
	.byte		        En3 
	.byte	W36
	.byte		        Bn2 
	.byte	W24
	.byte	PEND
@ 023   ----------------------------------------
	.byte	W48
	.byte		        Cs3 
	.byte	W48
@ 024   ----------------------------------------
Battle7thSaga_7_024:
	.byte		N12   , Dn3 , v096
	.byte	W36
	.byte		        An2 
	.byte	W36
	.byte		        Bn2 
	.byte	W24
	.byte	PEND
@ 025   ----------------------------------------
	.byte	PATT
	 .word	Battle7thSaga_7_021
@ 026   ----------------------------------------
	.byte	PATT
	 .word	Battle7thSaga_7_022
@ 027   ----------------------------------------
	.byte	W48
	.byte		N12   , Cs3 , v096
	.byte	W48
@ 028   ----------------------------------------
Battle7thSaga_7_028:
	.byte		N12   , Dn3 , v096
	.byte	W12
	.byte		        Ds3 
	.byte	W12
	.byte		        Bn2 
	.byte	W12
	.byte		N06   , An2 
	.byte	W24
	.byte		N06   
	.byte	W12
	.byte		        Bn2 
	.byte	W24
	.byte	PEND
@ 029   ----------------------------------------
	.byte	PATT
	 .word	Battle7thSaga_7_021
@ 030   ----------------------------------------
	.byte	PATT
	 .word	Battle7thSaga_7_022
@ 031   ----------------------------------------
	.byte	W48
	.byte		N12   , Cs3 , v096
	.byte	W48
@ 032   ----------------------------------------
	.byte	PATT
	 .word	Battle7thSaga_7_024
@ 033   ----------------------------------------
	.byte	PATT
	 .word	Battle7thSaga_7_021
@ 034   ----------------------------------------
	.byte	PATT
	 .word	Battle7thSaga_7_022
@ 035   ----------------------------------------
	.byte	W48
	.byte		N12   , Cs3 , v096
	.byte	W48
@ 036   ----------------------------------------
	.byte	PATT
	 .word	Battle7thSaga_7_028
@ 037   ----------------------------------------
	.byte	PATT
	 .word	Battle7thSaga_7_021
@ 038   ----------------------------------------
	.byte	PATT
	 .word	Battle7thSaga_7_022
@ 039   ----------------------------------------
	.byte	W48
	.byte		N12   , Cs3 , v096
	.byte	W48
@ 040   ----------------------------------------
	.byte	PATT
	 .word	Battle7thSaga_7_024
@ 041   ----------------------------------------
	.byte	PATT
	 .word	Battle7thSaga_7_021
@ 042   ----------------------------------------
	.byte	PATT
	 .word	Battle7thSaga_7_022
@ 043   ----------------------------------------
	.byte	W48
	.byte		N12   , Cs3 , v096
	.byte	W48
@ 044   ----------------------------------------
	.byte	PATT
	 .word	Battle7thSaga_7_028
@ 045   ----------------------------------------
	.byte	PATT
	 .word	Battle7thSaga_7_021
@ 046   ----------------------------------------
	.byte	PATT
	 .word	Battle7thSaga_7_022
@ 047   ----------------------------------------
	.byte	W48
	.byte		N12   , Cs3 , v096
	.byte	W48
@ 048   ----------------------------------------
	.byte	PATT
	 .word	Battle7thSaga_7_024
@ 049   ----------------------------------------
	.byte	PATT
	 .word	Battle7thSaga_7_021
@ 050   ----------------------------------------
	.byte	PATT
	 .word	Battle7thSaga_7_022
@ 051   ----------------------------------------
	.byte	W48
	.byte		N12   , Cs3 , v096
	.byte	W48
@ 052   ----------------------------------------
	.byte	PATT
	 .word	Battle7thSaga_7_028
@ 053   ----------------------------------------
	.byte	W96
@ 054   ----------------------------------------
	.byte	W96
@ 055   ----------------------------------------
	.byte	W96
@ 056   ----------------------------------------
	.byte	W96
@ 057   ----------------------------------------
	.byte	W96
@ 058   ----------------------------------------
	.byte	W96
@ 059   ----------------------------------------
	.byte	W96
@ 060   ----------------------------------------
	.byte	W96
@ 061   ----------------------------------------
	.byte	W96
@ 062   ----------------------------------------
	.byte	W96
@ 063   ----------------------------------------
	.byte	W96
@ 064   ----------------------------------------
	.byte	W96
@ 065   ----------------------------------------
	.byte	W96
@ 066   ----------------------------------------
	.byte	W96
@ 067   ----------------------------------------
	.byte	W96
@ 068   ----------------------------------------
	.byte	W96
@ 069   ----------------------------------------
	.byte	W96
@ 070   ----------------------------------------
	.byte	W96
@ 071   ----------------------------------------
	.byte	W96
@ 072   ----------------------------------------
	.byte	W96
@ 073   ----------------------------------------
	.byte	W96
@ 074   ----------------------------------------
	.byte	W96
@ 075   ----------------------------------------
	.byte	W96
@ 076   ----------------------------------------
	.byte	W96
@ 077   ----------------------------------------
	.byte	W96
@ 078   ----------------------------------------
	.byte	W96
@ 079   ----------------------------------------
	.byte	W96
@ 080   ----------------------------------------
	.byte	W96
@ 081   ----------------------------------------
	.byte	W96
@ 082   ----------------------------------------
	.byte	W96
@ 083   ----------------------------------------
	.byte	W96
@ 084   ----------------------------------------
	.byte	W96
@ 085   ----------------------------------------
	.byte	W96
@ 086   ----------------------------------------
	.byte	W96
@ 087   ----------------------------------------
	.byte	W96
@ 088   ----------------------------------------
	.byte	W96
	.byte	GOTO
	 .word	Battle7thSaga_7_B1
Battle7thSaga_7_B2:
@ 089   ----------------------------------------
	.byte	W96
@ 090   ----------------------------------------
	.byte	W96
@ 091   ----------------------------------------
	.byte	W96
@ 092   ----------------------------------------
	.byte	W96
@ 093   ----------------------------------------
	.byte	FINE

@**************** Track 8 (Midi-Chn.8) ****************@

Battle7thSaga_8:
	.byte	KEYSH , Battle7thSaga_key+0
@ 000   ----------------------------------------
	.byte		VOICE , 73
	.byte	W48
	.byte		VOL   , 112*Battle7thSaga_mvl/mxv
	.byte	W48
@ 001   ----------------------------------------
	.byte	W96
@ 002   ----------------------------------------
	.byte	W96
@ 003   ----------------------------------------
	.byte	W96
@ 004   ----------------------------------------
	.byte	W96
Battle7thSaga_8_B1:
@ 005   ----------------------------------------
	.byte	W96
@ 006   ----------------------------------------
	.byte	W96
@ 007   ----------------------------------------
	.byte	W96
@ 008   ----------------------------------------
	.byte	W96
@ 009   ----------------------------------------
	.byte	W96
@ 010   ----------------------------------------
	.byte	W96
@ 011   ----------------------------------------
	.byte	W96
@ 012   ----------------------------------------
	.byte	W96
@ 013   ----------------------------------------
	.byte	W96
@ 014   ----------------------------------------
	.byte	W96
@ 015   ----------------------------------------
	.byte	W96
@ 016   ----------------------------------------
	.byte	W96
@ 017   ----------------------------------------
	.byte	W96
@ 018   ----------------------------------------
	.byte	W96
@ 019   ----------------------------------------
	.byte	W96
@ 020   ----------------------------------------
	.byte	W96
@ 021   ----------------------------------------
	.byte	W96
@ 022   ----------------------------------------
	.byte	W96
@ 023   ----------------------------------------
	.byte	W96
@ 024   ----------------------------------------
	.byte	W96
@ 025   ----------------------------------------
	.byte	W96
@ 026   ----------------------------------------
	.byte	W96
@ 027   ----------------------------------------
	.byte	W96
@ 028   ----------------------------------------
	.byte	W96
@ 029   ----------------------------------------
	.byte	W96
@ 030   ----------------------------------------
	.byte	W96
@ 031   ----------------------------------------
	.byte	W96
@ 032   ----------------------------------------
	.byte	W96
@ 033   ----------------------------------------
	.byte	W96
@ 034   ----------------------------------------
	.byte	W96
@ 035   ----------------------------------------
	.byte	W96
@ 036   ----------------------------------------
	.byte	W96
@ 037   ----------------------------------------
	.byte	W96
@ 038   ----------------------------------------
	.byte	W96
@ 039   ----------------------------------------
	.byte	W96
@ 040   ----------------------------------------
	.byte	W96
@ 041   ----------------------------------------
	.byte	W96
@ 042   ----------------------------------------
	.byte	W96
@ 043   ----------------------------------------
	.byte	W96
@ 044   ----------------------------------------
	.byte	W96
@ 045   ----------------------------------------
	.byte	W96
@ 046   ----------------------------------------
	.byte	W96
@ 047   ----------------------------------------
	.byte	W96
@ 048   ----------------------------------------
	.byte	W96
@ 049   ----------------------------------------
	.byte	W96
@ 050   ----------------------------------------
	.byte	W96
@ 051   ----------------------------------------
	.byte	W96
@ 052   ----------------------------------------
	.byte	W96
@ 053   ----------------------------------------
Battle7thSaga_8_053:
	.byte	W12
	.byte		N06   , Cn5 , v127
	.byte	W12
	.byte		        Gn4 
	.byte	W12
	.byte		        Fs4 
	.byte	W12
	.byte		        En4 
	.byte	W12
	.byte		        Fs4 
	.byte	W12
	.byte		        Gn4 
	.byte	W12
	.byte		        Bn3 
	.byte	W12
	.byte	PEND
@ 054   ----------------------------------------
Battle7thSaga_8_054:
	.byte		N06   , En4 , v127
	.byte	W12
	.byte		        Fs4 
	.byte	W12
	.byte		        Cs4 
	.byte	W12
	.byte		        Dn4 
	.byte	W12
	.byte		        En4 
	.byte	W12
	.byte		        Cs4 
	.byte	W12
	.byte		        Dn4 
	.byte	W12
	.byte		        En4 
	.byte	W12
	.byte	PEND
@ 055   ----------------------------------------
Battle7thSaga_8_055:
	.byte		N06   , Dn4 , v127
	.byte	W12
	.byte		        En4 
	.byte	W12
	.byte		        Bn4 
	.byte	W12
	.byte		        En4 
	.byte	W12
	.byte		        Bn3 
	.byte	W12
	.byte		        Cs4 
	.byte	W12
	.byte		        En4 
	.byte	W12
	.byte		        Cs4 
	.byte	W12
	.byte	PEND
@ 056   ----------------------------------------
Battle7thSaga_8_056:
	.byte		N06   , En4 , v127
	.byte	W12
	.byte		        Cs4 
	.byte	W12
	.byte		        En4 
	.byte	W12
	.byte		        Fs4 
	.byte	W12
	.byte		        En4 
	.byte	W12
	.byte		        Fs4 
	.byte	W12
	.byte		        Bn4 
	.byte	W12
	.byte		        Fs4 
	.byte	W12
	.byte	PEND
@ 057   ----------------------------------------
Battle7thSaga_8_057:
	.byte		N06   , Fs4 , v127
	.byte	W12
	.byte		        Bn4 
	.byte	W12
	.byte		        En5 
	.byte	W12
	.byte		        Fs4 
	.byte	W12
	.byte		        Bn4 
	.byte	W12
	.byte		        En5 
	.byte	W12
	.byte		        En4 
	.byte	W12
	.byte		        Cs4 
	.byte	W12
	.byte	PEND
@ 058   ----------------------------------------
Battle7thSaga_8_058:
	.byte		N06   , En5 , v127
	.byte	W12
	.byte		        Fs4 
	.byte	W12
	.byte		        Bn4 
	.byte	W12
	.byte		        En5 
	.byte	W12
	.byte		        En4 
	.byte	W12
	.byte		        Bn4 
	.byte	W12
	.byte		        En5 
	.byte	W12
	.byte		        Dn4 
	.byte	W12
	.byte	PEND
@ 059   ----------------------------------------
Battle7thSaga_8_059:
	.byte		N06   , En4 , v127
	.byte	W12
	.byte		        Bn4 
	.byte	W12
	.byte		        En5 
	.byte	W12
	.byte		        Fs4 
	.byte	W12
	.byte		        Bn4 
	.byte	W12
	.byte		        En5 
	.byte	W12
	.byte		        Fs4 
	.byte	W12
	.byte		        Bn4 
	.byte	W12
	.byte	PEND
@ 060   ----------------------------------------
Battle7thSaga_8_060:
	.byte		N06   , En5 , v127
	.byte	W12
	.byte		        Fs4 
	.byte	W12
	.byte		        Bn4 
	.byte	W12
	.byte		        En5 
	.byte	W12
	.byte		        Cs4 
	.byte	W12
	.byte		        An4 
	.byte	W12
	.byte		        En4 
	.byte	W12
	.byte		        Bn4 
	.byte	W12
	.byte	PEND
@ 061   ----------------------------------------
	.byte	PATT
	 .word	Battle7thSaga_8_053
@ 062   ----------------------------------------
	.byte	PATT
	 .word	Battle7thSaga_8_054
@ 063   ----------------------------------------
	.byte	PATT
	 .word	Battle7thSaga_8_055
@ 064   ----------------------------------------
	.byte	PATT
	 .word	Battle7thSaga_8_056
@ 065   ----------------------------------------
	.byte	PATT
	 .word	Battle7thSaga_8_057
@ 066   ----------------------------------------
	.byte	PATT
	 .word	Battle7thSaga_8_058
@ 067   ----------------------------------------
	.byte	PATT
	 .word	Battle7thSaga_8_059
@ 068   ----------------------------------------
	.byte	PATT
	 .word	Battle7thSaga_8_060
@ 069   ----------------------------------------
	.byte	PATT
	 .word	Battle7thSaga_8_053
@ 070   ----------------------------------------
	.byte	PATT
	 .word	Battle7thSaga_8_054
@ 071   ----------------------------------------
	.byte	PATT
	 .word	Battle7thSaga_8_055
@ 072   ----------------------------------------
	.byte	PATT
	 .word	Battle7thSaga_8_056
@ 073   ----------------------------------------
	.byte	PATT
	 .word	Battle7thSaga_8_057
@ 074   ----------------------------------------
	.byte	PATT
	 .word	Battle7thSaga_8_058
@ 075   ----------------------------------------
	.byte	PATT
	 .word	Battle7thSaga_8_059
@ 076   ----------------------------------------
	.byte	PATT
	 .word	Battle7thSaga_8_060
@ 077   ----------------------------------------
	.byte	PATT
	 .word	Battle7thSaga_8_053
@ 078   ----------------------------------------
	.byte	PATT
	 .word	Battle7thSaga_8_054
@ 079   ----------------------------------------
	.byte	PATT
	 .word	Battle7thSaga_8_055
@ 080   ----------------------------------------
	.byte	PATT
	 .word	Battle7thSaga_8_056
@ 081   ----------------------------------------
	.byte		N06   , En4 , v127
	.byte	W12
	.byte		        Bn4 
	.byte	W12
	.byte		        Gn4 
	.byte	W12
	.byte		        En4 
	.byte	W12
	.byte		        Dn4 
	.byte	W12
	.byte		        Fs4 
	.byte	W12
	.byte		        Gn4 
	.byte	W12
	.byte		        Cs4 
	.byte	W12
@ 082   ----------------------------------------
	.byte		        En4 
	.byte	W12
	.byte		        Fs4 
	.byte	W12
	.byte		        Cs4 
	.byte	W12
	.byte		        En4 
	.byte	W12
	.byte		        Fs4 
	.byte	W12
	.byte		        Cs4 
	.byte	W12
	.byte		        En4 
	.byte	W12
	.byte		        Fs4 
	.byte	W12
@ 083   ----------------------------------------
	.byte		        Dn4 
	.byte	W12
	.byte		N06   
	.byte	W12
	.byte		        En4 
	.byte	W12
	.byte		        Fs4 
	.byte	W12
	.byte		        Bn3 
	.byte	W12
	.byte		N06   
	.byte	W12
	.byte		        Fs4 
	.byte	W12
	.byte		        Bn3 
	.byte	W12
@ 084   ----------------------------------------
	.byte		        En4 
	.byte	W12
	.byte		        Fs4 
	.byte	W12
	.byte		        Bn3 
	.byte	W12
	.byte		        En4 
	.byte	W12
	.byte		        An4 
	.byte	W12
	.byte		        Fs4 
	.byte	W12
	.byte		        An4 
	.byte	W12
	.byte		        Bn4 
	.byte	W12
@ 085   ----------------------------------------
	.byte	W12
	.byte		N06   
	.byte	W12
	.byte		        Fs4 
	.byte	W12
	.byte		        En4 
	.byte	W12
	.byte		        Bn3 
	.byte	W12
	.byte		        Cs4 
	.byte	W12
	.byte		        Dn4 
	.byte	W12
	.byte		        En4 
	.byte	W12
@ 086   ----------------------------------------
	.byte		        Bn3 
	.byte	W12
	.byte		        Bn4 
	.byte	W12
	.byte		        Fs4 
	.byte	W12
	.byte		        En4 
	.byte	W12
	.byte		        Dn4 
	.byte	W12
	.byte		        En4 
	.byte	W12
	.byte		        Fs4 
	.byte	W12
	.byte		        En4 
	.byte	W12
@ 087   ----------------------------------------
	.byte		N06   
	.byte	W12
	.byte		        Bn4 
	.byte	W12
	.byte		        Fs4 
	.byte	W12
	.byte		        En4 
	.byte	W12
	.byte		        Cs4 
	.byte	W12
	.byte		        Dn4 
	.byte	W12
	.byte		        Fs4 
	.byte	W12
	.byte		        En4 
	.byte	W12
@ 088   ----------------------------------------
	.byte		        Bn3 
	.byte	W12
	.byte		        Dn4 
	.byte	W12
	.byte		        Fs4 
	.byte	W12
	.byte		        En4 
	.byte	W12
	.byte		        Cs4 
	.byte	W12
	.byte		        Dn4 
	.byte	W12
	.byte		        Fs4 
	.byte	W12
	.byte		        En4 
	.byte	W12
	.byte	GOTO
	 .word	Battle7thSaga_8_B1
Battle7thSaga_8_B2:
@ 089   ----------------------------------------
	.byte	W96
@ 090   ----------------------------------------
	.byte	W96
@ 091   ----------------------------------------
	.byte	W96
@ 092   ----------------------------------------
	.byte	W96
@ 093   ----------------------------------------
	.byte	FINE

@**************** Track 9 (Midi-Chn.10) ****************@

Battle7thSaga_9:
	.byte	KEYSH , Battle7thSaga_key+0
@ 000   ----------------------------------------
	.byte		VOICE , 123
	.byte	W48
	.byte		VOL   , 112*Battle7thSaga_mvl/mxv
	.byte	W48
@ 001   ----------------------------------------
	.byte	W96
@ 002   ----------------------------------------
	.byte	W96
@ 003   ----------------------------------------
	.byte	W96
@ 004   ----------------------------------------
	.byte	W96
Battle7thSaga_9_B1:
@ 005   ----------------------------------------
Battle7thSaga_9_005:
	.byte		N06   , Cn1 , v096
	.byte		N06   , Gs1 
	.byte	W24
	.byte		        Dn1 , v080
	.byte		N06   , Gs1 , v096
	.byte	W24
	.byte		        Cn1 
	.byte		N06   , Gs1 
	.byte	W24
	.byte		        Dn1 , v080
	.byte		N06   , Gs1 , v096
	.byte	W12
	.byte		N06   
	.byte	W12
	.byte	PEND
@ 006   ----------------------------------------
	.byte	PATT
	 .word	Battle7thSaga_9_005
@ 007   ----------------------------------------
	.byte	PATT
	 .word	Battle7thSaga_9_005
@ 008   ----------------------------------------
Battle7thSaga_9_008:
	.byte		N06   , Cn1 , v096
	.byte		N06   , Gs1 
	.byte	W12
	.byte		N06   
	.byte	W12
	.byte		        Dn1 , v080
	.byte		N06   , Gs1 , v096
	.byte	W24
	.byte		        Cn1 
	.byte		N06   , Gs1 
	.byte	W24
	.byte		        Dn1 , v080
	.byte		N06   , Gs1 , v096
	.byte	W24
	.byte	PEND
@ 009   ----------------------------------------
	.byte	PATT
	 .word	Battle7thSaga_9_005
@ 010   ----------------------------------------
Battle7thSaga_9_010:
	.byte		N06   , Cn1 , v096
	.byte		N06   , Gs1 
	.byte	W24
	.byte		        Dn1 , v080
	.byte		N06   , Gs1 , v096
	.byte	W24
	.byte		        Cn1 
	.byte		N06   , Gs1 
	.byte	W24
	.byte		        Dn1 , v080
	.byte		N06   , Gs1 , v096
	.byte	W24
	.byte	PEND
@ 011   ----------------------------------------
	.byte	PATT
	 .word	Battle7thSaga_9_005
@ 012   ----------------------------------------
	.byte	PATT
	 .word	Battle7thSaga_9_008
@ 013   ----------------------------------------
	.byte	PATT
	 .word	Battle7thSaga_9_005
@ 014   ----------------------------------------
	.byte	PATT
	 .word	Battle7thSaga_9_005
@ 015   ----------------------------------------
	.byte	PATT
	 .word	Battle7thSaga_9_005
@ 016   ----------------------------------------
	.byte	PATT
	 .word	Battle7thSaga_9_008
@ 017   ----------------------------------------
	.byte	PATT
	 .word	Battle7thSaga_9_005
@ 018   ----------------------------------------
	.byte	PATT
	 .word	Battle7thSaga_9_010
@ 019   ----------------------------------------
	.byte	PATT
	 .word	Battle7thSaga_9_005
@ 020   ----------------------------------------
	.byte	PATT
	 .word	Battle7thSaga_9_008
@ 021   ----------------------------------------
	.byte	PATT
	 .word	Battle7thSaga_9_005
@ 022   ----------------------------------------
	.byte	PATT
	 .word	Battle7thSaga_9_005
@ 023   ----------------------------------------
	.byte	PATT
	 .word	Battle7thSaga_9_005
@ 024   ----------------------------------------
	.byte	PATT
	 .word	Battle7thSaga_9_008
@ 025   ----------------------------------------
	.byte	PATT
	 .word	Battle7thSaga_9_005
@ 026   ----------------------------------------
	.byte	PATT
	 .word	Battle7thSaga_9_010
@ 027   ----------------------------------------
	.byte	PATT
	 .word	Battle7thSaga_9_005
@ 028   ----------------------------------------
	.byte	PATT
	 .word	Battle7thSaga_9_008
@ 029   ----------------------------------------
	.byte	PATT
	 .word	Battle7thSaga_9_005
@ 030   ----------------------------------------
	.byte	PATT
	 .word	Battle7thSaga_9_005
@ 031   ----------------------------------------
	.byte	PATT
	 .word	Battle7thSaga_9_005
@ 032   ----------------------------------------
	.byte	PATT
	 .word	Battle7thSaga_9_008
@ 033   ----------------------------------------
	.byte	PATT
	 .word	Battle7thSaga_9_005
@ 034   ----------------------------------------
	.byte	PATT
	 .word	Battle7thSaga_9_010
@ 035   ----------------------------------------
	.byte	PATT
	 .word	Battle7thSaga_9_005
@ 036   ----------------------------------------
	.byte	PATT
	 .word	Battle7thSaga_9_008
@ 037   ----------------------------------------
	.byte	PATT
	 .word	Battle7thSaga_9_005
@ 038   ----------------------------------------
	.byte	PATT
	 .word	Battle7thSaga_9_005
@ 039   ----------------------------------------
	.byte	PATT
	 .word	Battle7thSaga_9_005
@ 040   ----------------------------------------
	.byte	PATT
	 .word	Battle7thSaga_9_008
@ 041   ----------------------------------------
	.byte	PATT
	 .word	Battle7thSaga_9_005
@ 042   ----------------------------------------
	.byte	PATT
	 .word	Battle7thSaga_9_010
@ 043   ----------------------------------------
	.byte	PATT
	 .word	Battle7thSaga_9_005
@ 044   ----------------------------------------
	.byte	PATT
	 .word	Battle7thSaga_9_008
@ 045   ----------------------------------------
	.byte	PATT
	 .word	Battle7thSaga_9_005
@ 046   ----------------------------------------
	.byte	PATT
	 .word	Battle7thSaga_9_005
@ 047   ----------------------------------------
	.byte	PATT
	 .word	Battle7thSaga_9_005
@ 048   ----------------------------------------
	.byte	PATT
	 .word	Battle7thSaga_9_008
@ 049   ----------------------------------------
	.byte	PATT
	 .word	Battle7thSaga_9_005
@ 050   ----------------------------------------
	.byte	PATT
	 .word	Battle7thSaga_9_010
@ 051   ----------------------------------------
	.byte	PATT
	 .word	Battle7thSaga_9_005
@ 052   ----------------------------------------
	.byte		N06   , Cn1 , v096
	.byte		N06   , Gs1 
	.byte	W12
	.byte		N06   
	.byte	W12
	.byte		        Dn1 , v080
	.byte		N06   , Gs1 , v096
	.byte	W24
	.byte		        Cn1 
	.byte		N06   , Gs1 
	.byte	W12
	.byte		        Dn1 , v080
	.byte	W12
	.byte		N06   
	.byte		N06   , Gs1 , v096
	.byte	W12
	.byte		        Dn1 , v080
	.byte	W12
@ 053   ----------------------------------------
	.byte	PATT
	 .word	Battle7thSaga_9_010
@ 054   ----------------------------------------
	.byte	PATT
	 .word	Battle7thSaga_9_005
@ 055   ----------------------------------------
	.byte	PATT
	 .word	Battle7thSaga_9_010
@ 056   ----------------------------------------
Battle7thSaga_9_056:
	.byte		N06   , Cn1 , v096
	.byte		N06   , Gs1 
	.byte	W24
	.byte		        Dn1 , v080
	.byte		N06   , Gs1 , v096
	.byte	W24
	.byte		        Cn1 
	.byte		N06   , Gs1 
	.byte	W12
	.byte		N06   
	.byte	W12
	.byte		        Dn1 , v080
	.byte		N06   , Gs1 , v096
	.byte	W24
	.byte	PEND
@ 057   ----------------------------------------
	.byte	PATT
	 .word	Battle7thSaga_9_005
@ 058   ----------------------------------------
	.byte	PATT
	 .word	Battle7thSaga_9_056
@ 059   ----------------------------------------
	.byte	PATT
	 .word	Battle7thSaga_9_005
@ 060   ----------------------------------------
	.byte	PATT
	 .word	Battle7thSaga_9_056
@ 061   ----------------------------------------
	.byte	PATT
	 .word	Battle7thSaga_9_010
@ 062   ----------------------------------------
	.byte	PATT
	 .word	Battle7thSaga_9_056
@ 063   ----------------------------------------
	.byte	PATT
	 .word	Battle7thSaga_9_010
@ 064   ----------------------------------------
	.byte	PATT
	 .word	Battle7thSaga_9_056
@ 065   ----------------------------------------
	.byte	PATT
	 .word	Battle7thSaga_9_010
@ 066   ----------------------------------------
	.byte	PATT
	 .word	Battle7thSaga_9_056
@ 067   ----------------------------------------
	.byte	PATT
	 .word	Battle7thSaga_9_010
@ 068   ----------------------------------------
	.byte	PATT
	 .word	Battle7thSaga_9_056
@ 069   ----------------------------------------
	.byte	PATT
	 .word	Battle7thSaga_9_010
@ 070   ----------------------------------------
	.byte	PATT
	 .word	Battle7thSaga_9_005
@ 071   ----------------------------------------
	.byte	PATT
	 .word	Battle7thSaga_9_010
@ 072   ----------------------------------------
	.byte	PATT
	 .word	Battle7thSaga_9_056
@ 073   ----------------------------------------
	.byte	PATT
	 .word	Battle7thSaga_9_005
@ 074   ----------------------------------------
	.byte	PATT
	 .word	Battle7thSaga_9_056
@ 075   ----------------------------------------
	.byte	PATT
	 .word	Battle7thSaga_9_005
@ 076   ----------------------------------------
	.byte	PATT
	 .word	Battle7thSaga_9_056
@ 077   ----------------------------------------
	.byte	PATT
	 .word	Battle7thSaga_9_010
@ 078   ----------------------------------------
	.byte	PATT
	 .word	Battle7thSaga_9_056
@ 079   ----------------------------------------
	.byte	PATT
	 .word	Battle7thSaga_9_010
@ 080   ----------------------------------------
	.byte	PATT
	 .word	Battle7thSaga_9_056
@ 081   ----------------------------------------
	.byte		N06   , Cn1 , v096
	.byte	W12
	.byte		        Gs1 
	.byte	W12
	.byte		        Dn1 , v080
	.byte		N06   , Gs1 , v096
	.byte	W24
	.byte		        Cn1 
	.byte		N06   , Gs1 
	.byte	W24
	.byte		        Dn1 , v080
	.byte		N06   , Gs1 , v096
	.byte	W24
@ 082   ----------------------------------------
	.byte	PATT
	 .word	Battle7thSaga_9_056
@ 083   ----------------------------------------
	.byte	PATT
	 .word	Battle7thSaga_9_010
@ 084   ----------------------------------------
	.byte	PATT
	 .word	Battle7thSaga_9_056
@ 085   ----------------------------------------
Battle7thSaga_9_085:
	.byte		N06   , Cn1 , v096
	.byte		N06   , Gs1 
	.byte	W24
	.byte		        Dn1 , v080
	.byte		N06   , Gs1 , v096
	.byte	W24
	.byte		        Cn1 
	.byte		N06   , Gs1 
	.byte	W12
	.byte		N06   
	.byte	W12
	.byte		        Dn1 , v080
	.byte		N06   , Gs1 , v096
	.byte	W12
	.byte		N06   
	.byte	W12
	.byte	PEND
@ 086   ----------------------------------------
	.byte	PATT
	 .word	Battle7thSaga_9_008
@ 087   ----------------------------------------
	.byte	PATT
	 .word	Battle7thSaga_9_085
@ 088   ----------------------------------------
	.byte		N06   , Cn1 , v096
	.byte		N06   , Gs1 
	.byte	W12
	.byte		        Dn1 , v080
	.byte		N06   , Gs1 , v096
	.byte	W12
	.byte		N06   
	.byte	W24
	.byte		        Cn1 
	.byte		N06   , Dn1 , v080
	.byte		N06   , Gs1 , v096
	.byte	W24
	.byte		        Dn1 , v080
	.byte		N06   , Gs1 , v096
	.byte	W12
	.byte		        Dn1 , v080
	.byte	W12
	.byte	GOTO
	 .word	Battle7thSaga_9_B1
Battle7thSaga_9_B2:
@ 089   ----------------------------------------
	.byte	PATT
	 .word	Battle7thSaga_9_005
@ 090   ----------------------------------------
	.byte	PATT
	 .word	Battle7thSaga_9_005
@ 091   ----------------------------------------
	.byte	PATT
	 .word	Battle7thSaga_9_005
@ 092   ----------------------------------------
	.byte	PATT
	 .word	Battle7thSaga_9_008
@ 093   ----------------------------------------
	.byte	FINE

@**************** Track 10 (Midi-Chn.11) ****************@

Battle7thSaga_10:
	.byte	KEYSH , Battle7thSaga_key+0
@ 000   ----------------------------------------
	.byte		VOICE , 38
	.byte		VOL   , 127*Battle7thSaga_mvl/mxv
	.byte	W48
	.byte	W48
@ 001   ----------------------------------------
	.byte	W96
@ 002   ----------------------------------------
	.byte	W96
@ 003   ----------------------------------------
	.byte	W96
@ 004   ----------------------------------------
	.byte	W96
Battle7thSaga_10_B1:
@ 005   ----------------------------------------
Battle7thSaga_10_005:
	.byte		N12   , An0 , v112
	.byte	W12
	.byte		        Bn0 
	.byte	W24
	.byte		N12   
	.byte	W24
	.byte		N12   
	.byte	W12
	.byte		        An0 
	.byte	W12
	.byte		        Fs0 
	.byte	W12
	.byte	PEND
@ 006   ----------------------------------------
Battle7thSaga_10_006:
	.byte		N12   , An0 , v112
	.byte	W12
	.byte		        Bn0 
	.byte	W12
	.byte		        An1 
	.byte	W12
	.byte		        Bn1 
	.byte	W12
	.byte		        An0 
	.byte	W24
	.byte		        Bn0 
	.byte	W24
	.byte	PEND
@ 007   ----------------------------------------
Battle7thSaga_10_007:
	.byte		N24   , An0 , v112
	.byte	W24
	.byte		N12   , Bn0 
	.byte	W24
	.byte		N12   
	.byte	W12
	.byte		        An0 
	.byte	W24
	.byte		N12   
	.byte	W12
	.byte	PEND
@ 008   ----------------------------------------
Battle7thSaga_10_008:
	.byte		N12   , Gn1 , v112
	.byte	W12
	.byte		        An1 
	.byte	W12
	.byte		        An0 
	.byte	W12
	.byte		        Fs0 
	.byte	W36
	.byte		        Dn1 
	.byte	W24
	.byte	PEND
@ 009   ----------------------------------------
Battle7thSaga_10_009:
	.byte		N12   , An0 , v112
	.byte	W12
	.byte		        Bn0 
	.byte	W24
	.byte		N12   
	.byte	W24
	.byte		N12   
	.byte	W12
	.byte		        An0 
	.byte	W12
	.byte		        Fs0 
	.byte	W12
	.byte	PEND
@ 010   ----------------------------------------
	.byte	PATT
	 .word	Battle7thSaga_10_006
@ 011   ----------------------------------------
Battle7thSaga_10_011:
	.byte		N12   , An0 , v112
	.byte	W24
	.byte		        Bn0 
	.byte	W24
	.byte		N12   
	.byte	W12
	.byte		        An0 
	.byte	W24
	.byte		        Bn0 
	.byte	W12
	.byte	PEND
@ 012   ----------------------------------------
Battle7thSaga_10_012:
	.byte		N12   , An1 , v112
	.byte	W12
	.byte		        Gs1 
	.byte	W12
	.byte		        En1 
	.byte	W12
	.byte		        Fs1 
	.byte	W24
	.byte		N18   , Dn1 
	.byte	W36
	.byte	PEND
@ 013   ----------------------------------------
	.byte	PATT
	 .word	Battle7thSaga_10_009
@ 014   ----------------------------------------
	.byte	PATT
	 .word	Battle7thSaga_10_006
@ 015   ----------------------------------------
	.byte	PATT
	 .word	Battle7thSaga_10_007
@ 016   ----------------------------------------
	.byte	PATT
	 .word	Battle7thSaga_10_008
@ 017   ----------------------------------------
	.byte	PATT
	 .word	Battle7thSaga_10_009
@ 018   ----------------------------------------
	.byte	PATT
	 .word	Battle7thSaga_10_006
@ 019   ----------------------------------------
	.byte	PATT
	 .word	Battle7thSaga_10_011
@ 020   ----------------------------------------
	.byte	PATT
	 .word	Battle7thSaga_10_012
@ 021   ----------------------------------------
	.byte	PATT
	 .word	Battle7thSaga_10_009
@ 022   ----------------------------------------
	.byte	PATT
	 .word	Battle7thSaga_10_006
@ 023   ----------------------------------------
	.byte	PATT
	 .word	Battle7thSaga_10_007
@ 024   ----------------------------------------
	.byte	PATT
	 .word	Battle7thSaga_10_008
@ 025   ----------------------------------------
	.byte	PATT
	 .word	Battle7thSaga_10_009
@ 026   ----------------------------------------
	.byte	PATT
	 .word	Battle7thSaga_10_006
@ 027   ----------------------------------------
	.byte	PATT
	 .word	Battle7thSaga_10_011
@ 028   ----------------------------------------
	.byte	PATT
	 .word	Battle7thSaga_10_012
@ 029   ----------------------------------------
	.byte	PATT
	 .word	Battle7thSaga_10_009
@ 030   ----------------------------------------
	.byte	PATT
	 .word	Battle7thSaga_10_006
@ 031   ----------------------------------------
	.byte	PATT
	 .word	Battle7thSaga_10_007
@ 032   ----------------------------------------
	.byte	PATT
	 .word	Battle7thSaga_10_008
@ 033   ----------------------------------------
	.byte	PATT
	 .word	Battle7thSaga_10_009
@ 034   ----------------------------------------
	.byte	PATT
	 .word	Battle7thSaga_10_006
@ 035   ----------------------------------------
	.byte	PATT
	 .word	Battle7thSaga_10_011
@ 036   ----------------------------------------
	.byte	PATT
	 .word	Battle7thSaga_10_012
@ 037   ----------------------------------------
	.byte	PATT
	 .word	Battle7thSaga_10_009
@ 038   ----------------------------------------
	.byte	PATT
	 .word	Battle7thSaga_10_006
@ 039   ----------------------------------------
	.byte	PATT
	 .word	Battle7thSaga_10_007
@ 040   ----------------------------------------
	.byte	PATT
	 .word	Battle7thSaga_10_008
@ 041   ----------------------------------------
	.byte	PATT
	 .word	Battle7thSaga_10_009
@ 042   ----------------------------------------
	.byte	PATT
	 .word	Battle7thSaga_10_006
@ 043   ----------------------------------------
	.byte	PATT
	 .word	Battle7thSaga_10_011
@ 044   ----------------------------------------
	.byte	PATT
	 .word	Battle7thSaga_10_012
@ 045   ----------------------------------------
	.byte	PATT
	 .word	Battle7thSaga_10_009
@ 046   ----------------------------------------
	.byte	PATT
	 .word	Battle7thSaga_10_006
@ 047   ----------------------------------------
	.byte	PATT
	 .word	Battle7thSaga_10_007
@ 048   ----------------------------------------
	.byte	PATT
	 .word	Battle7thSaga_10_008
@ 049   ----------------------------------------
	.byte	PATT
	 .word	Battle7thSaga_10_009
@ 050   ----------------------------------------
	.byte	PATT
	 .word	Battle7thSaga_10_006
@ 051   ----------------------------------------
	.byte	PATT
	 .word	Battle7thSaga_10_011
@ 052   ----------------------------------------
	.byte	PATT
	 .word	Battle7thSaga_10_012
@ 053   ----------------------------------------
Battle7thSaga_10_053:
	.byte		N24   , Gn0 , v112
	.byte	W24
	.byte		N12   , Gn1 
	.byte	W24
	.byte		        Fs1 
	.byte	W24
	.byte		        Gn0 
	.byte	W12
	.byte		N12   
	.byte	W12
	.byte	PEND
@ 054   ----------------------------------------
Battle7thSaga_10_054:
	.byte		N12   , Gn1 , v112
	.byte	W12
	.byte		        Gn0 
	.byte	W12
	.byte		N12   
	.byte	W12
	.byte		        Gn1 
	.byte	W12
	.byte		        Gn0 
	.byte	W12
	.byte		N12   
	.byte	W12
	.byte		N24   , Gn1 
	.byte	W24
	.byte	PEND
@ 055   ----------------------------------------
Battle7thSaga_10_055:
	.byte		N24   , An0 , v112
	.byte	W24
	.byte		N12   , An1 
	.byte	W24
	.byte		N12   
	.byte	W24
	.byte		        Fs0 
	.byte	W12
	.byte		N12   
	.byte	W12
	.byte	PEND
@ 056   ----------------------------------------
Battle7thSaga_10_056:
	.byte	W12
	.byte		N12   , Fs0 , v112
	.byte	W12
	.byte		N24   , An0 
	.byte	W24
	.byte		        Fs1 
	.byte	W24
	.byte		        An1 
	.byte	W24
	.byte	PEND
@ 057   ----------------------------------------
Battle7thSaga_10_057:
	.byte		N24   , Bn0 , v112
	.byte	W24
	.byte		N12   , Bn1 
	.byte	W24
	.byte		N12   
	.byte	W24
	.byte		        Bn0 
	.byte	W12
	.byte		N12   
	.byte	W12
	.byte	PEND
@ 058   ----------------------------------------
Battle7thSaga_10_058:
	.byte		N12   , Bn1 , v112
	.byte	W12
	.byte		        Bn0 
	.byte	W12
	.byte		N12   
	.byte	W12
	.byte		        Bn1 
	.byte	W12
	.byte		        Bn0 
	.byte	W12
	.byte		N12   
	.byte	W12
	.byte		N24   , An1 
	.byte	W24
	.byte	PEND
@ 059   ----------------------------------------
	.byte	PATT
	 .word	Battle7thSaga_10_057
@ 060   ----------------------------------------
	.byte	PATT
	 .word	Battle7thSaga_10_058
@ 061   ----------------------------------------
	.byte	PATT
	 .word	Battle7thSaga_10_053
@ 062   ----------------------------------------
	.byte	PATT
	 .word	Battle7thSaga_10_054
@ 063   ----------------------------------------
Battle7thSaga_10_063:
	.byte		N24   , En0 , v112
	.byte	W24
	.byte		N12   , En1 
	.byte	W24
	.byte		N12   
	.byte	W24
	.byte		        En0 
	.byte	W12
	.byte		N12   
	.byte	W12
	.byte	PEND
@ 064   ----------------------------------------
Battle7thSaga_10_064:
	.byte	W12
	.byte		N12   , En0 , v112
	.byte	W12
	.byte		N24   , En1 
	.byte	W24
	.byte		        Fn0 
	.byte	W24
	.byte		N12   , Fs1 
	.byte	W12
	.byte		N12   
	.byte	W12
	.byte	PEND
@ 065   ----------------------------------------
	.byte		N24   , Fs0 
	.byte	W24
	.byte		N12   , Fs1 
	.byte	W24
	.byte		N12   
	.byte	W24
	.byte		        Fs0 
	.byte	W12
	.byte		N12   
	.byte	W12
@ 066   ----------------------------------------
	.byte		        Fs1 
	.byte	W12
	.byte		        Fs0 
	.byte	W12
	.byte		N12   
	.byte	W12
	.byte		        Fs1 
	.byte	W12
	.byte		N24   , Fs0 
	.byte	W24
	.byte		        Fs1 
	.byte	W24
@ 067   ----------------------------------------
	.byte		        Gn0 
	.byte	W24
	.byte		N12   , Gn1 
	.byte	W24
	.byte		N12   
	.byte	W24
	.byte		        Gn0 
	.byte	W12
	.byte		N12   
	.byte	W12
@ 068   ----------------------------------------
	.byte		        An1 
	.byte	W12
	.byte		N12   
	.byte	W12
	.byte		        An0 
	.byte	W12
	.byte		        An1 
	.byte	W12
	.byte		N12   
	.byte	W12
	.byte		N12   
	.byte	W12
	.byte		N24   , An0 
	.byte	W24
@ 069   ----------------------------------------
	.byte	PATT
	 .word	Battle7thSaga_10_053
@ 070   ----------------------------------------
	.byte	PATT
	 .word	Battle7thSaga_10_054
@ 071   ----------------------------------------
	.byte	PATT
	 .word	Battle7thSaga_10_055
@ 072   ----------------------------------------
	.byte	PATT
	 .word	Battle7thSaga_10_056
@ 073   ----------------------------------------
	.byte	PATT
	 .word	Battle7thSaga_10_057
@ 074   ----------------------------------------
	.byte	PATT
	 .word	Battle7thSaga_10_058
@ 075   ----------------------------------------
	.byte	PATT
	 .word	Battle7thSaga_10_057
@ 076   ----------------------------------------
	.byte	PATT
	 .word	Battle7thSaga_10_058
@ 077   ----------------------------------------
	.byte	PATT
	 .word	Battle7thSaga_10_053
@ 078   ----------------------------------------
	.byte	PATT
	 .word	Battle7thSaga_10_054
@ 079   ----------------------------------------
	.byte	PATT
	 .word	Battle7thSaga_10_063
@ 080   ----------------------------------------
	.byte	PATT
	 .word	Battle7thSaga_10_064
@ 081   ----------------------------------------
	.byte		N24   , En0 , v112
	.byte	W24
	.byte		N12   , En1 
	.byte	W24
	.byte		N24   
	.byte	W24
	.byte		N12   , En0 
	.byte	W12
	.byte		N12   
	.byte	W12
@ 082   ----------------------------------------
	.byte		        Fs0 
	.byte	W12
	.byte		N12   
	.byte	W12
	.byte		        Fs1 
	.byte	W24
	.byte		N24   
	.byte	W24
	.byte		        Fs0 
	.byte	W24
@ 083   ----------------------------------------
	.byte		        Gn0 
	.byte	W24
	.byte		N12   , Gn1 
	.byte	W24
	.byte		N24   
	.byte	W24
	.byte		N12   , Gn0 
	.byte	W12
	.byte		N12   
	.byte	W12
@ 084   ----------------------------------------
	.byte		        An0 
	.byte	W12
	.byte		N12   
	.byte	W12
	.byte		        An1 
	.byte	W24
	.byte		N24   
	.byte	W24
	.byte		        An0 
	.byte	W24
@ 085   ----------------------------------------
	.byte		N06   , Bn1 , v080
	.byte	W12
	.byte		        En2 , v112
	.byte	W12
	.byte		        Dn2 
	.byte	W12
	.byte		        An1 
	.byte	W12
	.byte		        Dn2 
	.byte	W12
	.byte		        Cs2 
	.byte	W12
	.byte		        Cs2 , v080
	.byte	W12
	.byte		        Bn1 , v112
	.byte	W12
@ 086   ----------------------------------------
	.byte		        An1 
	.byte	W12
	.byte		        Bn1 , v080
	.byte	W12
	.byte		        Dn2 , v112
	.byte	W12
	.byte		        Cs2 
	.byte	W12
	.byte		        Bn1 , v080
	.byte	W12
	.byte		        Dn2 , v112
	.byte	W12
	.byte		        Cs2 
	.byte	W12
	.byte		        Bn1 , v080
	.byte	W12
@ 087   ----------------------------------------
	.byte		        En2 , v112
	.byte	W12
	.byte		        Dn2 
	.byte	W12
	.byte		        Cs2 , v080
	.byte	W12
	.byte		        Bn1 , v112
	.byte	W12
	.byte		        An1 
	.byte	W12
	.byte		        Bn1 , v080
	.byte	W12
	.byte		        Dn2 , v112
	.byte	W12
	.byte		        Cs2 
	.byte	W12
@ 088   ----------------------------------------
	.byte		        Dn2 , v080
	.byte	W12
	.byte		        Dn2 , v112
	.byte	W12
	.byte		        Cs2 
	.byte	W12
	.byte		        Dn2 
	.byte	W12
	.byte		N06   
	.byte	W12
	.byte		        En2 
	.byte	W12
	.byte		        Fs1 
	.byte	W12
	.byte		N06   
	.byte	W12
	.byte	GOTO
	 .word	Battle7thSaga_10_B1
Battle7thSaga_10_B2:
@ 089   ----------------------------------------
	.byte	PATT
	 .word	Battle7thSaga_10_005
@ 090   ----------------------------------------
	.byte	PATT
	 .word	Battle7thSaga_10_006
@ 091   ----------------------------------------
	.byte	PATT
	 .word	Battle7thSaga_10_007
@ 092   ----------------------------------------
	.byte	PATT
	 .word	Battle7thSaga_10_008
@ 093   ----------------------------------------
	.byte	FINE

@**************** Track 11 (Midi-Chn.12) ****************@

Battle7thSaga_11:
	.byte	KEYSH , Battle7thSaga_key+0
@ 000   ----------------------------------------
	.byte		VOICE , 35
	.byte		VOL   , 112*Battle7thSaga_mvl/mxv
	.byte	W48
	.byte	W48
@ 001   ----------------------------------------
	.byte	W96
@ 002   ----------------------------------------
	.byte	W96
@ 003   ----------------------------------------
	.byte	W96
@ 004   ----------------------------------------
	.byte	W96
Battle7thSaga_11_B1:
@ 005   ----------------------------------------
Battle7thSaga_11_005:
	.byte		N12   , Fs4 , v127
	.byte	W12
	.byte		        Dn4 
	.byte	W12
	.byte		        Bn3 
	.byte	W12
	.byte		        Gs4 
	.byte	W24
	.byte		        Fs4 
	.byte	W12
	.byte		        En4 
	.byte	W12
	.byte		        An4 
	.byte	W12
	.byte	PEND
@ 006   ----------------------------------------
Battle7thSaga_11_006:
	.byte	W12
	.byte		N12   , Gs4 , v127
	.byte	W12
	.byte		        Fs4 
	.byte	W12
	.byte		        En4 
	.byte	W12
	.byte		TIE   , Fs4 
	.byte	W48
	.byte	PEND
@ 007   ----------------------------------------
	.byte	W96
	.byte		EOT   
@ 008   ----------------------------------------
Battle7thSaga_11_008:
	.byte	W48
	.byte	W24
	.byte		N12   , Cs4 , v127
	.byte	W12
	.byte		        Dn4 
	.byte	W12
	.byte	PEND
@ 009   ----------------------------------------
Battle7thSaga_11_009:
	.byte		N12   , Cs4 , v127
	.byte	W12
	.byte		        Bn3 
	.byte	W12
	.byte		        An3 
	.byte	W12
	.byte		N36   , En4 
	.byte	W36
	.byte		N12   , Cs4 
	.byte	W12
	.byte		N72   , An3 
	.byte	W12
	.byte	PEND
@ 010   ----------------------------------------
Battle7thSaga_11_010:
	.byte	W72
	.byte		N24   , En3 , v127
	.byte	W24
	.byte	PEND
@ 011   ----------------------------------------
Battle7thSaga_11_011:
	.byte		N96   , Fs3 , v127
	.byte	W96
	.byte	PEND
@ 012   ----------------------------------------
	.byte	W96
@ 013   ----------------------------------------
Battle7thSaga_11_013:
	.byte		N12   , Fs4 , v127
	.byte	W12
	.byte		        Dn4 
	.byte	W12
	.byte		        Bn3 
	.byte	W12
	.byte		        Gs4 
	.byte	W24
	.byte		        Fs4 
	.byte	W12
	.byte		        En4 
	.byte	W12
	.byte		        An4 
	.byte	W12
	.byte	PEND
@ 014   ----------------------------------------
	.byte	PATT
	 .word	Battle7thSaga_11_006
@ 015   ----------------------------------------
	.byte	W96
	.byte		EOT   , Fs4 
@ 016   ----------------------------------------
Battle7thSaga_11_016:
	.byte	W48
	.byte	W24
	.byte		N12   , Bn4 , v127
	.byte	W12
	.byte		N12   
	.byte	W12
	.byte	PEND
@ 017   ----------------------------------------
Battle7thSaga_11_017:
	.byte		N12   , Gs4 , v127
	.byte	W12
	.byte		        An4 
	.byte	W12
	.byte		        Gs4 
	.byte	W12
	.byte		N36   , En4 
	.byte	W36
	.byte		N12   , Gs4 
	.byte	W12
	.byte		TIE   , Fs4 
	.byte	W12
	.byte	PEND
@ 018   ----------------------------------------
	.byte	W96
	.byte		EOT   
@ 019   ----------------------------------------
Battle7thSaga_11_019:
	.byte		N06   , Bn0 , v064
	.byte	W06
	.byte		        Fs1 , v068
	.byte	W06
	.byte		        An1 
	.byte	W06
	.byte		        En1 
	.byte	W06
	.byte		        An1 , v072
	.byte	W06
	.byte		        Bn1 
	.byte	W06
	.byte		        An1 , v076
	.byte	W06
	.byte		        Bn1 
	.byte	W06
	.byte		        En2 
	.byte	W06
	.byte		        Bn1 , v080
	.byte	W06
	.byte		        Fs2 
	.byte	W06
	.byte		        An2 
	.byte	W06
	.byte		        En2 , v084
	.byte	W06
	.byte		        An2 
	.byte	W06
	.byte		        Bn2 , v088
	.byte	W06
	.byte		        An2 
	.byte	W06
	.byte	PEND
@ 020   ----------------------------------------
Battle7thSaga_11_020:
	.byte		N06   , Bn2 , v088
	.byte	W06
	.byte		        En3 , v092
	.byte	W06
	.byte		        Bn2 
	.byte	W06
	.byte		        Fs3 
	.byte	W06
	.byte		        An3 , v096
	.byte	W06
	.byte		        En3 
	.byte	W06
	.byte		        An3 , v100
	.byte	W06
	.byte		        Bn3 
	.byte	W06
	.byte		        An3 
	.byte	W06
	.byte		        Bn3 , v104
	.byte	W06
	.byte		        En4 
	.byte	W06
	.byte		        Bn3 
	.byte	W06
	.byte		        En4 , v108
	.byte	W06
	.byte		        Fs4 
	.byte	W06
	.byte		        Bn4 , v112
	.byte	W06
	.byte		        En5 
	.byte	W06
	.byte	PEND
@ 021   ----------------------------------------
	.byte	W96
@ 022   ----------------------------------------
	.byte	W96
@ 023   ----------------------------------------
	.byte	W96
@ 024   ----------------------------------------
	.byte	W96
@ 025   ----------------------------------------
	.byte	W96
@ 026   ----------------------------------------
	.byte	W96
@ 027   ----------------------------------------
	.byte	W96
@ 028   ----------------------------------------
	.byte	W96
@ 029   ----------------------------------------
	.byte	PATT
	 .word	Battle7thSaga_11_005
@ 030   ----------------------------------------
	.byte	PATT
	 .word	Battle7thSaga_11_006
@ 031   ----------------------------------------
	.byte	W96
	.byte		EOT   , Fs4 
@ 032   ----------------------------------------
	.byte	PATT
	 .word	Battle7thSaga_11_008
@ 033   ----------------------------------------
	.byte	PATT
	 .word	Battle7thSaga_11_009
@ 034   ----------------------------------------
	.byte	PATT
	 .word	Battle7thSaga_11_010
@ 035   ----------------------------------------
	.byte	PATT
	 .word	Battle7thSaga_11_011
@ 036   ----------------------------------------
	.byte	W96
@ 037   ----------------------------------------
	.byte	PATT
	 .word	Battle7thSaga_11_013
@ 038   ----------------------------------------
	.byte	PATT
	 .word	Battle7thSaga_11_006
@ 039   ----------------------------------------
	.byte	W96
	.byte		EOT   , Fs4 
@ 040   ----------------------------------------
	.byte	PATT
	 .word	Battle7thSaga_11_016
@ 041   ----------------------------------------
	.byte	PATT
	 .word	Battle7thSaga_11_017
@ 042   ----------------------------------------
	.byte	W96
	.byte		EOT   , Fs4 
@ 043   ----------------------------------------
	.byte	PATT
	 .word	Battle7thSaga_11_019
@ 044   ----------------------------------------
	.byte	PATT
	 .word	Battle7thSaga_11_020
@ 045   ----------------------------------------
	.byte	W96
@ 046   ----------------------------------------
	.byte	W96
@ 047   ----------------------------------------
	.byte	W96
@ 048   ----------------------------------------
	.byte	W96
@ 049   ----------------------------------------
	.byte	W96
@ 050   ----------------------------------------
	.byte	W96
@ 051   ----------------------------------------
	.byte	W96
@ 052   ----------------------------------------
	.byte	W96
@ 053   ----------------------------------------
Battle7thSaga_11_053:
	.byte	W12
	.byte		N12   , Gn4 , v127
	.byte	W12
	.byte		        An4 
	.byte	W12
	.byte		        Gn3 
	.byte	W12
	.byte		        An3 
	.byte	W12
	.byte		        Dn4 
	.byte	W12
	.byte		        Gn4 
	.byte	W12
	.byte		        Fs4 
	.byte	W12
	.byte	PEND
@ 054   ----------------------------------------
Battle7thSaga_11_054:
	.byte		N12   , En4 , v127
	.byte	W12
	.byte		        Gn3 
	.byte	W12
	.byte		        Dn4 
	.byte	W12
	.byte		N24   , En4 
	.byte	W24
	.byte		N12   , Cs4 
	.byte	W12
	.byte		        Bn3 
	.byte	W12
	.byte		        An3 
	.byte	W12
	.byte	PEND
@ 055   ----------------------------------------
Battle7thSaga_11_055:
	.byte		N24   , En3 , v127
	.byte	W24
	.byte		N12   , Bn3 
	.byte	W12
	.byte		N24   , Dn3 
	.byte	W24
	.byte		N12   , An3 
	.byte	W12
	.byte		N24   , Cs3 
	.byte	W24
	.byte	PEND
@ 056   ----------------------------------------
Battle7thSaga_11_056:
	.byte		N12   , An3 , v127
	.byte	W12
	.byte		N24   , Bn2 
	.byte	W24
	.byte		N12   , Fs3 
	.byte	W12
	.byte		N24   , An2 
	.byte	W24
	.byte		        Fs2 
	.byte	W24
	.byte	PEND
@ 057   ----------------------------------------
Battle7thSaga_11_057:
	.byte		TIE   , Bn2 , v127
	.byte	W96
	.byte	PEND
@ 058   ----------------------------------------
	.byte	W96
	.byte		EOT   
@ 059   ----------------------------------------
	.byte	W48
	.byte	W48
@ 060   ----------------------------------------
	.byte	W96
@ 061   ----------------------------------------
	.byte	PATT
	 .word	Battle7thSaga_11_053
@ 062   ----------------------------------------
	.byte	PATT
	 .word	Battle7thSaga_11_054
@ 063   ----------------------------------------
	.byte	PATT
	 .word	Battle7thSaga_11_055
@ 064   ----------------------------------------
	.byte	PATT
	 .word	Battle7thSaga_11_056
@ 065   ----------------------------------------
Battle7thSaga_11_065:
	.byte		N96   , Bn2 , v127
	.byte	W96
	.byte	PEND
@ 066   ----------------------------------------
	.byte		        Cs3 
	.byte	W96
@ 067   ----------------------------------------
	.byte		        Dn3 
	.byte	W96
@ 068   ----------------------------------------
	.byte		        En3 
	.byte	W96
@ 069   ----------------------------------------
	.byte	W12
	.byte		N12   , Gn4 
	.byte	W12
	.byte		        An4 
	.byte	W12
	.byte		        Gn3 
	.byte	W12
	.byte		        An3 
	.byte	W12
	.byte		        Dn4 
	.byte	W12
	.byte		        Gn4 
	.byte	W12
	.byte		        Fs4 
	.byte	W12
@ 070   ----------------------------------------
	.byte	PATT
	 .word	Battle7thSaga_11_054
@ 071   ----------------------------------------
	.byte	PATT
	 .word	Battle7thSaga_11_055
@ 072   ----------------------------------------
	.byte	PATT
	 .word	Battle7thSaga_11_056
@ 073   ----------------------------------------
	.byte	PATT
	 .word	Battle7thSaga_11_057
@ 074   ----------------------------------------
	.byte	W96
	.byte		EOT   , Bn2 
@ 075   ----------------------------------------
	.byte	W48
	.byte	W48
@ 076   ----------------------------------------
	.byte	W96
@ 077   ----------------------------------------
	.byte	PATT
	 .word	Battle7thSaga_11_053
@ 078   ----------------------------------------
	.byte	PATT
	 .word	Battle7thSaga_11_054
@ 079   ----------------------------------------
	.byte	PATT
	 .word	Battle7thSaga_11_055
@ 080   ----------------------------------------
	.byte	PATT
	 .word	Battle7thSaga_11_056
@ 081   ----------------------------------------
	.byte	PATT
	 .word	Battle7thSaga_11_065
@ 082   ----------------------------------------
	.byte		N96   , Cs3 , v127
	.byte	W96
@ 083   ----------------------------------------
	.byte		        Dn3 
	.byte	W96
@ 084   ----------------------------------------
	.byte		        En3 
	.byte	W96
@ 085   ----------------------------------------
	.byte	W96
@ 086   ----------------------------------------
	.byte	W96
@ 087   ----------------------------------------
	.byte	W96
@ 088   ----------------------------------------
	.byte	W96
	.byte	GOTO
	 .word	Battle7thSaga_11_B1
Battle7thSaga_11_B2:
@ 089   ----------------------------------------
	.byte	PATT
	 .word	Battle7thSaga_11_005
@ 090   ----------------------------------------
	.byte	PATT
	 .word	Battle7thSaga_11_006
@ 091   ----------------------------------------
	.byte	W96
	.byte		EOT   , Fs4 
@ 092   ----------------------------------------
	.byte	PATT
	 .word	Battle7thSaga_11_008
@ 093   ----------------------------------------
	.byte	FINE

@******************************************************@
	.align	2

Battle7thSaga:
	.byte	11	@ NumTrks
	.byte	0	@ NumBlks
	.byte	Battle7thSaga_pri	@ Priority
	.byte	Battle7thSaga_rev	@ Reverb.

	.word	Battle7thSaga_grp

	.word	Battle7thSaga_1
	.word	Battle7thSaga_2
	.word	Battle7thSaga_3
	.word	Battle7thSaga_4
	.word	Battle7thSaga_5
	.word	Battle7thSaga_6
	.word	Battle7thSaga_7
	.word	Battle7thSaga_8
	.word	Battle7thSaga_9
	.word	Battle7thSaga_10
	.word	Battle7thSaga_11

	.end
