//Event file generated from Sappy .s format.
	#include "MPlayDef.event"

	#define	Battle7thSaga_grp  voicegroup000
	#define	Battle7thSaga_pri  0
	#define	Battle7thSaga_rev  0
	#define	Battle7thSaga_mvl  50
	#define	Battle7thSaga_key  0
	#define	Battle7thSaga_tbs  1
	#define	Battle7thSaga_exg  0
	#define	Battle7thSaga_cmp  1

	// .rodata
	//	Battle7thSaga
	ALIGN 4

//**************** Track 1 (Midi-Chn.1) ****************//

Battle7thSaga_1:
	BYTE	KEYSH   Battle7thSaga_key+0
// 000   ----------------------------------------
	BYTE	TEMPO   271*Battle7thSaga_tbs/2
	BYTE		VOICE   56
	BYTE	W48
	BYTE		VOL     112*Battle7thSaga_mvl/mxv
	BYTE	W48
// 001   ----------------------------------------
	BYTE		TIE     Cn4   v127
	BYTE		TIE     En4 
	BYTE		TIE     Fs4 
	BYTE	W96
// 002   ----------------------------------------
	BYTE	W96
// 003   ----------------------------------------
	BYTE	W12
	BYTE		EOT     Cn4 
	BYTE		        En4 
	BYTE		        Fs4 
	BYTE		N06     Cn4 
	BYTE		N06     En4 
	BYTE		N06     Fs4 
	BYTE	W12
	BYTE		        Cn4 
	BYTE		N06     En4 
	BYTE		N06     Fs4 
	BYTE	W12
	BYTE		        Cn4 
	BYTE		N06     En4 
	BYTE		N06     Fs4 
	BYTE	W12
	BYTE		N18     Cn4 
	BYTE		N18     En4 
	BYTE		N18     Fs4 
	BYTE	W24
	BYTE		N06     Cn4 
	BYTE		N06     En4 
	BYTE		N06     Fs4 
	BYTE	W12
	BYTE		N18     Cn4 
	BYTE		N18     En4 
	BYTE		N18     Fs4 
	BYTE	W12
// 004   ----------------------------------------
	BYTE	W12
	BYTE		N06     Cn4 
	BYTE		N06     En4 
	BYTE		N06     Fs4 
	BYTE	W12
	BYTE		        Cn4 
	BYTE		N06     En4 
	BYTE		N06     Fs4 
	BYTE	W12
	BYTE		        Cn4 
	BYTE		N06     En4 
	BYTE		N06     Fs4 
	BYTE	W12
	BYTE		N18     Cn4 
	BYTE		N18     En4 
	BYTE		N18     Fs4 
	BYTE	W24
	BYTE		N06     Cn4 
	BYTE		N06     En4 
	BYTE		N06     Fs4 
	BYTE	W12
	BYTE		        Cn4 
	BYTE		N06     En4 
	BYTE		N06     Fs4 
	BYTE	W12
Battle7thSaga_1_B1:
// 005   ----------------------------------------
	BYTE	W96
// 006   ----------------------------------------
	BYTE	W96
// 007   ----------------------------------------
	BYTE	W96
// 008   ----------------------------------------
	BYTE	W96
// 009   ----------------------------------------
	BYTE	W96
// 010   ----------------------------------------
	BYTE	W96
// 011   ----------------------------------------
	BYTE	W96
// 012   ----------------------------------------
	BYTE	W96
// 013   ----------------------------------------
	BYTE	W96
// 014   ----------------------------------------
	BYTE	W96
// 015   ----------------------------------------
	BYTE	W96
// 016   ----------------------------------------
	BYTE	W96
// 017   ----------------------------------------
	BYTE	W96
// 018   ----------------------------------------
	BYTE	W96
// 019   ----------------------------------------
	BYTE	W96
// 020   ----------------------------------------
	BYTE	W96
// 021   ----------------------------------------
	BYTE	W96
// 022   ----------------------------------------
	BYTE	W96
// 023   ----------------------------------------
	BYTE	W96
// 024   ----------------------------------------
	BYTE	W96
// 025   ----------------------------------------
	BYTE	W96
// 026   ----------------------------------------
	BYTE	W96
// 027   ----------------------------------------
	BYTE	W96
// 028   ----------------------------------------
	BYTE	W96
// 029   ----------------------------------------
	BYTE	W96
// 030   ----------------------------------------
	BYTE	W96
// 031   ----------------------------------------
	BYTE	W96
// 032   ----------------------------------------
	BYTE	W96
// 033   ----------------------------------------
	BYTE	W96
// 034   ----------------------------------------
	BYTE	W96
// 035   ----------------------------------------
	BYTE	W96
// 036   ----------------------------------------
	BYTE	W96
// 037   ----------------------------------------
	BYTE	W96
// 038   ----------------------------------------
	BYTE	W96
// 039   ----------------------------------------
	BYTE	W96
// 040   ----------------------------------------
	BYTE	W96
// 041   ----------------------------------------
	BYTE	W96
// 042   ----------------------------------------
	BYTE	W96
// 043   ----------------------------------------
	BYTE	W96
// 044   ----------------------------------------
	BYTE	W96
// 045   ----------------------------------------
	BYTE	W96
// 046   ----------------------------------------
	BYTE	W96
// 047   ----------------------------------------
	BYTE	W96
// 048   ----------------------------------------
	BYTE	W96
// 049   ----------------------------------------
	BYTE	W96
// 050   ----------------------------------------
	BYTE	W96
// 051   ----------------------------------------
	BYTE	W96
// 052   ----------------------------------------
	BYTE	W96
// 053   ----------------------------------------
	BYTE	W96
// 054   ----------------------------------------
	BYTE	W96
// 055   ----------------------------------------
	BYTE	W96
// 056   ----------------------------------------
	BYTE	W96
// 057   ----------------------------------------
	BYTE	W96
// 058   ----------------------------------------
	BYTE	W96
// 059   ----------------------------------------
	BYTE	W96
// 060   ----------------------------------------
	BYTE	W96
// 061   ----------------------------------------
	BYTE	W96
// 062   ----------------------------------------
	BYTE	W96
// 063   ----------------------------------------
	BYTE	W96
// 064   ----------------------------------------
	BYTE	W96
// 065   ----------------------------------------
	BYTE	W96
// 066   ----------------------------------------
	BYTE	W96
// 067   ----------------------------------------
	BYTE	W96
// 068   ----------------------------------------
	BYTE	W96
// 069   ----------------------------------------
	BYTE	W96
// 070   ----------------------------------------
	BYTE	W96
// 071   ----------------------------------------
	BYTE	W96
// 072   ----------------------------------------
	BYTE	W96
// 073   ----------------------------------------
	BYTE	W96
// 074   ----------------------------------------
	BYTE	W96
// 075   ----------------------------------------
	BYTE	W96
// 076   ----------------------------------------
	BYTE	W96
// 077   ----------------------------------------
	BYTE	W96
// 078   ----------------------------------------
	BYTE	W96
// 079   ----------------------------------------
	BYTE	W96
// 080   ----------------------------------------
	BYTE	W96
// 081   ----------------------------------------
	BYTE	W96
// 082   ----------------------------------------
	BYTE	W96
// 083   ----------------------------------------
	BYTE	W96
// 084   ----------------------------------------
	BYTE	W96
// 085   ----------------------------------------
	BYTE	W96
// 086   ----------------------------------------
	BYTE	W96
// 087   ----------------------------------------
	BYTE	W96
// 088   ----------------------------------------
	BYTE	W96
	BYTE	GoTo
	 POIN2	Battle7thSaga_1_B1
Battle7thSaga_1_B2:
// 089   ----------------------------------------
	BYTE	W96
// 090   ----------------------------------------
	BYTE	W96
// 091   ----------------------------------------
	BYTE	W96
// 092   ----------------------------------------
	BYTE	W96
// 093   ----------------------------------------
	BYTE	FINE

//**************** Track 2 (Midi-Chn.2) ****************//

Battle7thSaga_2:
	BYTE	KEYSH   Battle7thSaga_key+0
// 000   ----------------------------------------
	BYTE		VOICE   48
	BYTE	W48
	BYTE		VOL     112*Battle7thSaga_mvl/mxv
	BYTE	W48
// 001   ----------------------------------------
	BYTE		TIE     Fs0   v064
	BYTE		TIE     Fs1 
	BYTE	W96
// 002   ----------------------------------------
	BYTE	W96
// 003   ----------------------------------------
	BYTE	W08
	BYTE		N08     Fs5   v112
	BYTE	W04
	BYTE		EOT     Fs0 
	BYTE		        Fs1 
	BYTE	W04
	BYTE		N08     Fn5 
	BYTE	W08
	BYTE		        En5 
	BYTE	W08
	BYTE		        Ds5 
	BYTE	W08
	BYTE		        Dn5 
	BYTE	W08
	BYTE		        Cs5 
	BYTE	W08
	BYTE		        Cn5 
	BYTE	W08
	BYTE		        Bn4 
	BYTE	W08
	BYTE		        As4 
	BYTE	W08
	BYTE		        An4 
	BYTE	W08
	BYTE		        Gs4 
	BYTE	W08
// 004   ----------------------------------------
	BYTE		        Gn4 
	BYTE	W08
	BYTE		        Fs4 
	BYTE	W08
	BYTE		        Fn4 
	BYTE	W08
	BYTE		        En4 
	BYTE	W08
	BYTE		        Ds4 
	BYTE	W08
	BYTE		        Dn4 
	BYTE	W08
	BYTE		        Cs4 
	BYTE	W08
	BYTE		        Cn4 
	BYTE	W08
	BYTE		        Bn3 
	BYTE	W08
	BYTE		        As3 
	BYTE	W08
	BYTE		        An3 
	BYTE	W08
	BYTE		        Gs3 
	BYTE	W08
Battle7thSaga_2_B1:
// 005   ----------------------------------------
Battle7thSaga_2_005:
	BYTE		TIE     An3   v080
	BYTE		TIE     An4   v064
	BYTE	W96
	BYTE	PEND
// 006   ----------------------------------------
	BYTE	W96
// 007   ----------------------------------------
	BYTE	W96
// 008   ----------------------------------------
	BYTE	W96
	BYTE		EOT     An3 
	BYTE		        An4 
// 009   ----------------------------------------
Battle7thSaga_2_009:
	BYTE		TIE     Gs3   v080
	BYTE		TIE     Gs4   v064
	BYTE	W96
	BYTE	PEND
// 010   ----------------------------------------
	BYTE	W96
// 011   ----------------------------------------
	BYTE	W96
// 012   ----------------------------------------
	BYTE	W96
	BYTE		EOT     Gs3 
	BYTE		        Gs4 
// 013   ----------------------------------------
	BYTE	PATT
	 POIN2	Battle7thSaga_2_005
// 014   ----------------------------------------
	BYTE	W96
// 015   ----------------------------------------
	BYTE	W96
// 016   ----------------------------------------
	BYTE	W96
	BYTE		EOT     An3 
	BYTE		        An4 
// 017   ----------------------------------------
Battle7thSaga_2_017:
	BYTE		TIE     Bn3   v080
	BYTE		TIE     Bn4   v064
	BYTE	W96
	BYTE	PEND
// 018   ----------------------------------------
	BYTE	W96
// 019   ----------------------------------------
	BYTE	W96
// 020   ----------------------------------------
	BYTE	W96
	BYTE		EOT     Bn3 
	BYTE		        Bn4 
// 021   ----------------------------------------
	BYTE	PATT
	 POIN2	Battle7thSaga_2_005
// 022   ----------------------------------------
	BYTE	W96
// 023   ----------------------------------------
	BYTE	W96
// 024   ----------------------------------------
	BYTE	W96
	BYTE		EOT     An3 
	BYTE		        An4 
// 025   ----------------------------------------
	BYTE	PATT
	 POIN2	Battle7thSaga_2_009
// 026   ----------------------------------------
	BYTE	W96
// 027   ----------------------------------------
	BYTE	W96
// 028   ----------------------------------------
	BYTE	W96
	BYTE		EOT     Gs3 
	BYTE		        Gs4 
// 029   ----------------------------------------
	BYTE	PATT
	 POIN2	Battle7thSaga_2_005
// 030   ----------------------------------------
	BYTE	W96
// 031   ----------------------------------------
	BYTE	W96
// 032   ----------------------------------------
	BYTE	W96
	BYTE		EOT     An3 
	BYTE		        An4 
// 033   ----------------------------------------
	BYTE	PATT
	 POIN2	Battle7thSaga_2_009
// 034   ----------------------------------------
	BYTE	W96
// 035   ----------------------------------------
	BYTE	W96
// 036   ----------------------------------------
	BYTE	W96
	BYTE		EOT     Gs3 
	BYTE		        Gs4 
// 037   ----------------------------------------
	BYTE	PATT
	 POIN2	Battle7thSaga_2_005
// 038   ----------------------------------------
	BYTE	W96
// 039   ----------------------------------------
	BYTE	W96
// 040   ----------------------------------------
	BYTE	W96
	BYTE		EOT     An3 
	BYTE		        An4 
// 041   ----------------------------------------
	BYTE	PATT
	 POIN2	Battle7thSaga_2_017
// 042   ----------------------------------------
	BYTE	W96
// 043   ----------------------------------------
	BYTE	W96
// 044   ----------------------------------------
	BYTE	W96
	BYTE		EOT     Bn3 
	BYTE		        Bn4 
// 045   ----------------------------------------
	BYTE	PATT
	 POIN2	Battle7thSaga_2_005
// 046   ----------------------------------------
	BYTE	W96
// 047   ----------------------------------------
	BYTE	W96
// 048   ----------------------------------------
	BYTE	W96
	BYTE		EOT     An3 
	BYTE		        An4 
// 049   ----------------------------------------
	BYTE	PATT
	 POIN2	Battle7thSaga_2_009
// 050   ----------------------------------------
	BYTE	W96
// 051   ----------------------------------------
	BYTE	W96
// 052   ----------------------------------------
	BYTE	W96
	BYTE		EOT     Gs3 
	BYTE		        Gs4 
// 053   ----------------------------------------
	BYTE	PATT
	 POIN2	Battle7thSaga_2_017
// 054   ----------------------------------------
	BYTE	W96
	BYTE		EOT     Bn3 
	BYTE		        Bn4 
// 055   ----------------------------------------
Battle7thSaga_2_055:
	BYTE		TIE     Cs4   v080
	BYTE		TIE     Cs5   v064
	BYTE	W96
	BYTE	PEND
// 056   ----------------------------------------
	BYTE	W96
	BYTE		EOT     Cs4 
	BYTE		        Cs5 
// 057   ----------------------------------------
Battle7thSaga_2_057:
	BYTE		N96     Dn4   v080
	BYTE		N96     Dn5   v064
	BYTE	W96
	BYTE	PEND
// 058   ----------------------------------------
Battle7thSaga_2_058:
	BYTE		N96     En4   v080
	BYTE		N96     En5   v064
	BYTE	W96
	BYTE	PEND
// 059   ----------------------------------------
Battle7thSaga_2_059:
	BYTE		N48     Cs4   v080
	BYTE		N48     Cs5   v064
	BYTE	W48
	BYTE		        An3   v080
	BYTE		N48     An4   v064
	BYTE	W48
	BYTE	PEND
// 060   ----------------------------------------
Battle7thSaga_2_060:
	BYTE		N48     En3   v080
	BYTE		N48     En4   v064
	BYTE	W48
	BYTE		        An3   v080
	BYTE		N48     An4   v064
	BYTE	W48
	BYTE	PEND
// 061   ----------------------------------------
	BYTE	PATT
	 POIN2	Battle7thSaga_2_017
// 062   ----------------------------------------
	BYTE	W96
	BYTE		EOT     Bn3 
	BYTE		        Bn4 
// 063   ----------------------------------------
	BYTE	PATT
	 POIN2	Battle7thSaga_2_055
// 064   ----------------------------------------
	BYTE	W96
	BYTE		EOT     Cs4 
	BYTE		        Cs5 
// 065   ----------------------------------------
	BYTE		N96     En3   v080
	BYTE		N96     En4   v064
	BYTE	W96
// 066   ----------------------------------------
	BYTE		        Fs3   v080
	BYTE		N96     Fs4   v064
	BYTE	W96
// 067   ----------------------------------------
Battle7thSaga_2_067:
	BYTE		N96     Gn3   v080
	BYTE		N96     Gn4   v064
	BYTE	W96
	BYTE	PEND
// 068   ----------------------------------------
Battle7thSaga_2_068:
	BYTE		N96     An3   v080
	BYTE		N96     An4   v064
	BYTE	W96
	BYTE	PEND
// 069   ----------------------------------------
	BYTE	PATT
	 POIN2	Battle7thSaga_2_017
// 070   ----------------------------------------
	BYTE	W96
	BYTE		EOT     Bn3 
	BYTE		        Bn4 
// 071   ----------------------------------------
	BYTE	PATT
	 POIN2	Battle7thSaga_2_055
// 072   ----------------------------------------
	BYTE	W96
	BYTE		EOT     Cs4 
	BYTE		        Cs5 
// 073   ----------------------------------------
	BYTE	PATT
	 POIN2	Battle7thSaga_2_057
// 074   ----------------------------------------
	BYTE	PATT
	 POIN2	Battle7thSaga_2_058
// 075   ----------------------------------------
	BYTE	PATT
	 POIN2	Battle7thSaga_2_059
// 076   ----------------------------------------
	BYTE	PATT
	 POIN2	Battle7thSaga_2_060
// 077   ----------------------------------------
	BYTE	PATT
	 POIN2	Battle7thSaga_2_017
// 078   ----------------------------------------
	BYTE	W96
	BYTE		EOT     Bn3 
	BYTE		        Bn4 
// 079   ----------------------------------------
	BYTE	PATT
	 POIN2	Battle7thSaga_2_055
// 080   ----------------------------------------
	BYTE	W96
	BYTE		EOT     Cs4 
	BYTE		        Cs5 
// 081   ----------------------------------------
	BYTE	PATT
	 POIN2	Battle7thSaga_2_067
// 082   ----------------------------------------
	BYTE	PATT
	 POIN2	Battle7thSaga_2_068
// 083   ----------------------------------------
	BYTE		N48     Bn3   v080
	BYTE		N48     Bn4   v064
	BYTE	W48
	BYTE		        En4   v080
	BYTE		N48     En5   v064
	BYTE	W48
// 084   ----------------------------------------
	BYTE	PATT
	 POIN2	Battle7thSaga_2_059
// 085   ----------------------------------------
	BYTE	W96
// 086   ----------------------------------------
	BYTE	W96
// 087   ----------------------------------------
	BYTE	W96
// 088   ----------------------------------------
	BYTE	W96
	BYTE	GoTo
	 POIN2	Battle7thSaga_2_B1
Battle7thSaga_2_B2:
// 089   ----------------------------------------
	BYTE	PATT
	 POIN2	Battle7thSaga_2_005
// 090   ----------------------------------------
	BYTE	W96
// 091   ----------------------------------------
	BYTE	W96
// 092   ----------------------------------------
	BYTE	W96
	BYTE		EOT     An3 
	BYTE		        An4 
// 093   ----------------------------------------
	BYTE	FINE

//**************** Track 3 (Midi-Chn.3) ****************//

Battle7thSaga_3:
	BYTE	KEYSH   Battle7thSaga_key+0
// 000   ----------------------------------------
	BYTE		VOICE   58
	BYTE	W48
	BYTE		VOL     112*Battle7thSaga_mvl/mxv
	BYTE	W48
// 001   ----------------------------------------
	BYTE		N09     Fs1   v127
	BYTE	W12
	BYTE		        As1 
	BYTE	W12
	BYTE		        An1 
	BYTE	W12
	BYTE		        Cs2 
	BYTE	W12
	BYTE		        Gs1 
	BYTE	W12
	BYTE		        Bn1 
	BYTE	W12
	BYTE		        As1 
	BYTE	W12
	BYTE		        Fn1 
	BYTE	W12
// 002   ----------------------------------------
	BYTE		        En1 
	BYTE	W12
	BYTE		        Fs1 
	BYTE	W12
	BYTE		        Gs1 
	BYTE	W12
	BYTE		        Gn1 
	BYTE	W12
	BYTE		        Fs1 
	BYTE	W12
	BYTE		        As1 
	BYTE	W12
	BYTE		        An1 
	BYTE	W12
	BYTE		        Cs2 
	BYTE	W12
// 003   ----------------------------------------
	BYTE		        Gs1 
	BYTE	W96
// 004   ----------------------------------------
	BYTE	W96
Battle7thSaga_3_B1:
// 005   ----------------------------------------
	BYTE	W96
// 006   ----------------------------------------
	BYTE	W96
// 007   ----------------------------------------
	BYTE	W96
// 008   ----------------------------------------
	BYTE	W96
// 009   ----------------------------------------
	BYTE	W96
// 010   ----------------------------------------
	BYTE	W96
// 011   ----------------------------------------
	BYTE	W96
// 012   ----------------------------------------
	BYTE	W96
// 013   ----------------------------------------
	BYTE	W96
// 014   ----------------------------------------
	BYTE	W96
// 015   ----------------------------------------
	BYTE	W96
// 016   ----------------------------------------
	BYTE	W96
// 017   ----------------------------------------
	BYTE	W96
// 018   ----------------------------------------
	BYTE	W96
// 019   ----------------------------------------
	BYTE	W96
// 020   ----------------------------------------
	BYTE	W96
// 021   ----------------------------------------
	BYTE	W96
// 022   ----------------------------------------
	BYTE	W96
// 023   ----------------------------------------
	BYTE	W96
// 024   ----------------------------------------
	BYTE	W96
// 025   ----------------------------------------
	BYTE	W96
// 026   ----------------------------------------
	BYTE	W96
// 027   ----------------------------------------
	BYTE	W96
// 028   ----------------------------------------
	BYTE	W96
// 029   ----------------------------------------
	BYTE	W96
// 030   ----------------------------------------
	BYTE	W96
// 031   ----------------------------------------
	BYTE	W96
// 032   ----------------------------------------
	BYTE	W96
// 033   ----------------------------------------
	BYTE	W96
// 034   ----------------------------------------
	BYTE	W96
// 035   ----------------------------------------
	BYTE	W96
// 036   ----------------------------------------
	BYTE	W96
// 037   ----------------------------------------
	BYTE	W96
// 038   ----------------------------------------
	BYTE	W96
// 039   ----------------------------------------
	BYTE	W96
// 040   ----------------------------------------
	BYTE	W96
// 041   ----------------------------------------
	BYTE	W96
// 042   ----------------------------------------
	BYTE	W96
// 043   ----------------------------------------
	BYTE	W96
// 044   ----------------------------------------
	BYTE	W96
// 045   ----------------------------------------
	BYTE	W96
// 046   ----------------------------------------
	BYTE	W96
// 047   ----------------------------------------
	BYTE	W96
// 048   ----------------------------------------
	BYTE	W96
// 049   ----------------------------------------
	BYTE	W96
// 050   ----------------------------------------
	BYTE	W96
// 051   ----------------------------------------
	BYTE	W96
// 052   ----------------------------------------
	BYTE	W96
// 053   ----------------------------------------
	BYTE	W96
// 054   ----------------------------------------
	BYTE	W96
// 055   ----------------------------------------
	BYTE	W96
// 056   ----------------------------------------
	BYTE	W96
// 057   ----------------------------------------
	BYTE	W96
// 058   ----------------------------------------
	BYTE	W96
// 059   ----------------------------------------
	BYTE	W96
// 060   ----------------------------------------
	BYTE	W96
// 061   ----------------------------------------
	BYTE	W96
// 062   ----------------------------------------
	BYTE	W96
// 063   ----------------------------------------
	BYTE	W96
// 064   ----------------------------------------
	BYTE	W96
// 065   ----------------------------------------
	BYTE	W96
// 066   ----------------------------------------
	BYTE	W96
// 067   ----------------------------------------
	BYTE	W96
// 068   ----------------------------------------
	BYTE	W96
// 069   ----------------------------------------
	BYTE	W96
// 070   ----------------------------------------
	BYTE	W96
// 071   ----------------------------------------
	BYTE	W96
// 072   ----------------------------------------
	BYTE	W96
// 073   ----------------------------------------
	BYTE	W96
// 074   ----------------------------------------
	BYTE	W96
// 075   ----------------------------------------
	BYTE	W96
// 076   ----------------------------------------
	BYTE	W96
// 077   ----------------------------------------
	BYTE	W96
// 078   ----------------------------------------
	BYTE	W96
// 079   ----------------------------------------
	BYTE	W96
// 080   ----------------------------------------
	BYTE	W96
// 081   ----------------------------------------
	BYTE	W96
// 082   ----------------------------------------
	BYTE	W96
// 083   ----------------------------------------
	BYTE	W96
// 084   ----------------------------------------
	BYTE	W96
// 085   ----------------------------------------
	BYTE	W96
// 086   ----------------------------------------
	BYTE	W96
// 087   ----------------------------------------
	BYTE	W96
// 088   ----------------------------------------
	BYTE	W96
	BYTE	GoTo
	 POIN2	Battle7thSaga_3_B1
Battle7thSaga_3_B2:
// 089   ----------------------------------------
	BYTE	W96
// 090   ----------------------------------------
	BYTE	W96
// 091   ----------------------------------------
	BYTE	W96
// 092   ----------------------------------------
	BYTE	W96
// 093   ----------------------------------------
	BYTE	FINE

//**************** Track 4 (Midi-Chn.4) ****************//

Battle7thSaga_4:
	BYTE	KEYSH   Battle7thSaga_key+0
// 000   ----------------------------------------
	BYTE		VOICE   47
	BYTE	W48
	BYTE		VOL     112*Battle7thSaga_mvl/mxv
	BYTE	W48
// 001   ----------------------------------------
	BYTE		N06     Fs1   v127
	BYTE	W12
	BYTE		        Fs1   v004
	BYTE	W06
	BYTE		N06   
	BYTE	W06
	BYTE		N06   
	BYTE	W06
	BYTE		        Fs1   v008
	BYTE	W06
	BYTE		N06   
	BYTE	W06
	BYTE		        Fs1   v012
	BYTE	W06
	BYTE		N06   
	BYTE	W06
	BYTE		N06   
	BYTE	W06
	BYTE		        Fs1   v016
	BYTE	W06
	BYTE		N06   
	BYTE	W06
	BYTE		N06   
	BYTE	W06
	BYTE		        Fs1   v020
	BYTE	W06
	BYTE		N06   
	BYTE	W06
	BYTE		        Fs1   v024
	BYTE	W06
// 002   ----------------------------------------
	BYTE		N06   
	BYTE	W06
	BYTE		N06   
	BYTE	W06
	BYTE		        Fs1   v028
	BYTE	W06
	BYTE		N06   
	BYTE	W06
	BYTE		N06   
	BYTE	W06
	BYTE		        Fs1   v032
	BYTE	W06
	BYTE		N06   
	BYTE	W06
	BYTE		        Fs1   v036
	BYTE	W06
	BYTE		N06   
	BYTE	W06
	BYTE		N06   
	BYTE	W06
	BYTE		        Fs1   v040
	BYTE	W06
	BYTE		N06   
	BYTE	W06
	BYTE		        Fs1   v044
	BYTE	W06
	BYTE		N06   
	BYTE	W06
	BYTE		N06   
	BYTE	W06
	BYTE		        Fs1   v048
	BYTE	W06
// 003   ----------------------------------------
	BYTE		N06   
	BYTE	W06
	BYTE		N06   
	BYTE	W06
	BYTE		        Fs1   v052
	BYTE	W06
	BYTE		N06   
	BYTE	W06
	BYTE		        Fs1   v056
	BYTE	W06
	BYTE		N06   
	BYTE	W06
	BYTE		N06   
	BYTE	W06
	BYTE		        Fs1   v060
	BYTE	W06
	BYTE		N06   
	BYTE	W06
	BYTE		N06   
	BYTE	W06
	BYTE		        Fs1   v064
	BYTE	W06
	BYTE		N06   
	BYTE	W06
	BYTE		        Fs1   v068
	BYTE	W06
	BYTE		N06   
	BYTE	W06
	BYTE		N06   
	BYTE	W06
	BYTE		        Fs1   v072
	BYTE	W06
// 004   ----------------------------------------
	BYTE		N06   
	BYTE	W06
	BYTE		        Fs1   v076
	BYTE	W06
	BYTE		N06   
	BYTE	W06
	BYTE		N06   
	BYTE	W06
	BYTE		        Fs1   v080
	BYTE	W06
	BYTE		N06   
	BYTE	W06
	BYTE		N06   
	BYTE	W06
	BYTE		        Fs1   v084
	BYTE	W06
	BYTE		N06   
	BYTE	W06
	BYTE		        Fs1   v088
	BYTE	W06
	BYTE		N06   
	BYTE	W06
	BYTE		N06   
	BYTE	W06
	BYTE		        Fs1   v092
	BYTE	W06
	BYTE		N06   
	BYTE	W06
	BYTE		N06   
	BYTE	W06
	BYTE		        Fs1   v096
	BYTE	W06
Battle7thSaga_4_B1:
// 005   ----------------------------------------
	BYTE	W96
// 006   ----------------------------------------
	BYTE	W96
// 007   ----------------------------------------
	BYTE	W96
// 008   ----------------------------------------
	BYTE	W96
// 009   ----------------------------------------
	BYTE	W96
// 010   ----------------------------------------
	BYTE	W96
// 011   ----------------------------------------
	BYTE	W96
// 012   ----------------------------------------
	BYTE	W96
// 013   ----------------------------------------
	BYTE	W96
// 014   ----------------------------------------
	BYTE	W96
// 015   ----------------------------------------
	BYTE	W96
// 016   ----------------------------------------
	BYTE	W96
// 017   ----------------------------------------
	BYTE	W96
// 018   ----------------------------------------
	BYTE	W96
// 019   ----------------------------------------
	BYTE	W96
// 020   ----------------------------------------
	BYTE	W96
// 021   ----------------------------------------
	BYTE	W96
// 022   ----------------------------------------
	BYTE	W96
// 023   ----------------------------------------
	BYTE	W96
// 024   ----------------------------------------
	BYTE	W96
// 025   ----------------------------------------
	BYTE	W96
// 026   ----------------------------------------
	BYTE	W96
// 027   ----------------------------------------
	BYTE	W96
// 028   ----------------------------------------
	BYTE	W96
// 029   ----------------------------------------
	BYTE	W96
// 030   ----------------------------------------
	BYTE	W96
// 031   ----------------------------------------
	BYTE	W96
// 032   ----------------------------------------
	BYTE	W96
// 033   ----------------------------------------
	BYTE	W96
// 034   ----------------------------------------
	BYTE	W96
// 035   ----------------------------------------
	BYTE	W96
// 036   ----------------------------------------
	BYTE	W96
// 037   ----------------------------------------
	BYTE	W96
// 038   ----------------------------------------
	BYTE	W96
// 039   ----------------------------------------
	BYTE	W96
// 040   ----------------------------------------
	BYTE	W96
// 041   ----------------------------------------
	BYTE	W96
// 042   ----------------------------------------
	BYTE	W96
// 043   ----------------------------------------
	BYTE	W96
// 044   ----------------------------------------
	BYTE	W96
// 045   ----------------------------------------
	BYTE	W96
// 046   ----------------------------------------
	BYTE	W96
// 047   ----------------------------------------
	BYTE	W96
// 048   ----------------------------------------
	BYTE	W96
// 049   ----------------------------------------
	BYTE	W96
// 050   ----------------------------------------
	BYTE	W96
// 051   ----------------------------------------
	BYTE	W96
// 052   ----------------------------------------
	BYTE	W96
// 053   ----------------------------------------
	BYTE	W96
// 054   ----------------------------------------
	BYTE	W96
// 055   ----------------------------------------
	BYTE	W96
// 056   ----------------------------------------
	BYTE	W96
// 057   ----------------------------------------
	BYTE	W96
// 058   ----------------------------------------
	BYTE	W96
// 059   ----------------------------------------
	BYTE	W96
// 060   ----------------------------------------
	BYTE	W96
// 061   ----------------------------------------
	BYTE	W96
// 062   ----------------------------------------
	BYTE	W96
// 063   ----------------------------------------
	BYTE	W96
// 064   ----------------------------------------
	BYTE	W96
// 065   ----------------------------------------
	BYTE	W96
// 066   ----------------------------------------
	BYTE	W96
// 067   ----------------------------------------
	BYTE	W96
// 068   ----------------------------------------
	BYTE	W96
// 069   ----------------------------------------
	BYTE	W96
// 070   ----------------------------------------
	BYTE	W96
// 071   ----------------------------------------
	BYTE	W96
// 072   ----------------------------------------
	BYTE	W96
// 073   ----------------------------------------
	BYTE	W96
// 074   ----------------------------------------
	BYTE	W96
// 075   ----------------------------------------
	BYTE	W96
// 076   ----------------------------------------
	BYTE	W96
// 077   ----------------------------------------
	BYTE	W96
// 078   ----------------------------------------
	BYTE	W96
// 079   ----------------------------------------
	BYTE	W96
// 080   ----------------------------------------
	BYTE	W96
// 081   ----------------------------------------
	BYTE	W96
// 082   ----------------------------------------
	BYTE	W96
// 083   ----------------------------------------
	BYTE	W96
// 084   ----------------------------------------
	BYTE	W96
// 085   ----------------------------------------
	BYTE	W96
// 086   ----------------------------------------
	BYTE	W96
// 087   ----------------------------------------
	BYTE	W96
// 088   ----------------------------------------
	BYTE	W96
	BYTE	GoTo
	 POIN2	Battle7thSaga_4_B1
Battle7thSaga_4_B2:
// 089   ----------------------------------------
	BYTE	W96
// 090   ----------------------------------------
	BYTE	W96
// 091   ----------------------------------------
	BYTE	W96
// 092   ----------------------------------------
	BYTE	W96
// 093   ----------------------------------------
	BYTE	FINE

//**************** Track 5 (Midi-Chn.5) ****************//

Battle7thSaga_5:
	BYTE	KEYSH   Battle7thSaga_key+0
// 000   ----------------------------------------
	BYTE		VOICE   29
	BYTE	W48
	BYTE		VOL     127*Battle7thSaga_mvl/mxv
	BYTE	W48
// 001   ----------------------------------------
	BYTE	W96
// 002   ----------------------------------------
	BYTE	W96
// 003   ----------------------------------------
	BYTE	W96
// 004   ----------------------------------------
	BYTE	W96
Battle7thSaga_5_B1:
// 005   ----------------------------------------
Battle7thSaga_5_005:
	BYTE		N12     Fs4   v127
	BYTE	W12
	BYTE		        Dn4 
	BYTE	W12
	BYTE		        Bn3 
	BYTE	W12
	BYTE		        Gs4 
	BYTE	W24
	BYTE		        Fs4 
	BYTE	W12
	BYTE		        En4 
	BYTE	W12
	BYTE		        An4 
	BYTE	W12
	BYTE	PEND
// 006   ----------------------------------------
Battle7thSaga_5_006:
	BYTE	W12
	BYTE		N12     Gs4   v127
	BYTE	W12
	BYTE		        Fs4 
	BYTE	W12
	BYTE		        En4 
	BYTE	W12
	BYTE		TIE     Fs4 
	BYTE	W48
	BYTE	PEND
// 007   ----------------------------------------
	BYTE	W96
	BYTE		EOT   
// 008   ----------------------------------------
Battle7thSaga_5_008:
	BYTE	W48
	BYTE	W24
	BYTE		N12     Cs4   v127
	BYTE	W12
	BYTE		        Dn4 
	BYTE	W12
	BYTE	PEND
// 009   ----------------------------------------
Battle7thSaga_5_009:
	BYTE		N12     Cs4   v127
	BYTE	W12
	BYTE		        Bn3 
	BYTE	W12
	BYTE		        An3 
	BYTE	W12
	BYTE		N36     En4 
	BYTE	W36
	BYTE		N12     Cs4 
	BYTE	W12
	BYTE		N72     An3 
	BYTE	W12
	BYTE	PEND
// 010   ----------------------------------------
Battle7thSaga_5_010:
	BYTE	W72
	BYTE		N24     En3   v127
	BYTE	W24
	BYTE	PEND
// 011   ----------------------------------------
Battle7thSaga_5_011:
	BYTE		N96     Fs3   v127
	BYTE	W96
	BYTE	PEND
// 012   ----------------------------------------
	BYTE	W96
// 013   ----------------------------------------
Battle7thSaga_5_013:
	BYTE		N12     Fs4   v127
	BYTE	W12
	BYTE		        Dn4 
	BYTE	W12
	BYTE		        Bn3 
	BYTE	W12
	BYTE		        Gs4 
	BYTE	W24
	BYTE		        Fs4 
	BYTE	W12
	BYTE		        En4 
	BYTE	W12
	BYTE		        An4 
	BYTE	W12
	BYTE	PEND
// 014   ----------------------------------------
	BYTE	PATT
	 POIN2	Battle7thSaga_5_006
// 015   ----------------------------------------
	BYTE	W96
	BYTE		EOT     Fs4 
// 016   ----------------------------------------
Battle7thSaga_5_016:
	BYTE	W48
	BYTE	W24
	BYTE		N12     Bn4   v127
	BYTE	W12
	BYTE		N12   
	BYTE	W12
	BYTE	PEND
// 017   ----------------------------------------
Battle7thSaga_5_017:
	BYTE		N12     Gs4   v127
	BYTE	W12
	BYTE		        An4 
	BYTE	W12
	BYTE		        Gs4 
	BYTE	W12
	BYTE		N36     En4 
	BYTE	W36
	BYTE		N12     Gs4 
	BYTE	W12
	BYTE		TIE     Fs4 
	BYTE	W12
	BYTE	PEND
// 018   ----------------------------------------
	BYTE	W96
	BYTE		EOT   
// 019   ----------------------------------------
Battle7thSaga_5_019:
	BYTE		N06     Bn0   v064
	BYTE	W06
	BYTE		        Fs1   v068
	BYTE	W06
	BYTE		        An1 
	BYTE	W06
	BYTE		        En1 
	BYTE	W06
	BYTE		        An1   v072
	BYTE	W06
	BYTE		        Bn1 
	BYTE	W06
	BYTE		        An1   v076
	BYTE	W06
	BYTE		        Bn1 
	BYTE	W06
	BYTE		        En2 
	BYTE	W06
	BYTE		        Bn1   v080
	BYTE	W06
	BYTE		        Fs2 
	BYTE	W06
	BYTE		        An2 
	BYTE	W06
	BYTE		        En2   v084
	BYTE	W06
	BYTE		        An2 
	BYTE	W06
	BYTE		        Bn2   v088
	BYTE	W06
	BYTE		        An2 
	BYTE	W06
	BYTE	PEND
// 020   ----------------------------------------
Battle7thSaga_5_020:
	BYTE		N06     Bn2   v088
	BYTE	W06
	BYTE		        En3   v092
	BYTE	W06
	BYTE		        Bn2 
	BYTE	W06
	BYTE		        Fs3 
	BYTE	W06
	BYTE		        An3   v096
	BYTE	W06
	BYTE		        En3 
	BYTE	W06
	BYTE		        An3   v100
	BYTE	W06
	BYTE		        Bn3 
	BYTE	W06
	BYTE		        An3 
	BYTE	W06
	BYTE		        Bn3   v104
	BYTE	W06
	BYTE		        En4 
	BYTE	W06
	BYTE		        Bn3 
	BYTE	W06
	BYTE		        En4   v108
	BYTE	W06
	BYTE		        Fs4 
	BYTE	W06
	BYTE		        Bn4   v112
	BYTE	W06
	BYTE		        En5 
	BYTE	W06
	BYTE	PEND
// 021   ----------------------------------------
	BYTE	W96
// 022   ----------------------------------------
	BYTE	W96
// 023   ----------------------------------------
	BYTE	W96
// 024   ----------------------------------------
	BYTE	W96
// 025   ----------------------------------------
	BYTE	W96
// 026   ----------------------------------------
	BYTE	W96
// 027   ----------------------------------------
	BYTE	W96
// 028   ----------------------------------------
	BYTE	W96
// 029   ----------------------------------------
	BYTE	PATT
	 POIN2	Battle7thSaga_5_005
// 030   ----------------------------------------
	BYTE	PATT
	 POIN2	Battle7thSaga_5_006
// 031   ----------------------------------------
	BYTE	W96
	BYTE		EOT     Fs4 
// 032   ----------------------------------------
	BYTE	PATT
	 POIN2	Battle7thSaga_5_008
// 033   ----------------------------------------
	BYTE	PATT
	 POIN2	Battle7thSaga_5_009
// 034   ----------------------------------------
	BYTE	PATT
	 POIN2	Battle7thSaga_5_010
// 035   ----------------------------------------
	BYTE	PATT
	 POIN2	Battle7thSaga_5_011
// 036   ----------------------------------------
	BYTE	W96
// 037   ----------------------------------------
	BYTE	PATT
	 POIN2	Battle7thSaga_5_013
// 038   ----------------------------------------
	BYTE	PATT
	 POIN2	Battle7thSaga_5_006
// 039   ----------------------------------------
	BYTE	W96
	BYTE		EOT     Fs4 
// 040   ----------------------------------------
	BYTE	PATT
	 POIN2	Battle7thSaga_5_016
// 041   ----------------------------------------
	BYTE	PATT
	 POIN2	Battle7thSaga_5_017
// 042   ----------------------------------------
	BYTE	W96
	BYTE		EOT     Fs4 
// 043   ----------------------------------------
	BYTE	PATT
	 POIN2	Battle7thSaga_5_019
// 044   ----------------------------------------
	BYTE	PATT
	 POIN2	Battle7thSaga_5_020
// 045   ----------------------------------------
	BYTE	W96
// 046   ----------------------------------------
	BYTE	W96
// 047   ----------------------------------------
	BYTE	W96
// 048   ----------------------------------------
	BYTE	W96
// 049   ----------------------------------------
	BYTE	W96
// 050   ----------------------------------------
	BYTE	W96
// 051   ----------------------------------------
	BYTE	W96
// 052   ----------------------------------------
	BYTE	W96
// 053   ----------------------------------------
Battle7thSaga_5_053:
	BYTE	W12
	BYTE		N12     Gn4   v127
	BYTE	W12
	BYTE		        An4 
	BYTE	W12
	BYTE		        Gn3 
	BYTE	W12
	BYTE		        An3 
	BYTE	W12
	BYTE		        Dn4 
	BYTE	W12
	BYTE		        Gn4 
	BYTE	W12
	BYTE		        Fs4 
	BYTE	W12
	BYTE	PEND
// 054   ----------------------------------------
Battle7thSaga_5_054:
	BYTE		N12     En4   v127
	BYTE	W12
	BYTE		        Gn3 
	BYTE	W12
	BYTE		        Dn4 
	BYTE	W12
	BYTE		N24     En4 
	BYTE	W24
	BYTE		N12     Cs4 
	BYTE	W12
	BYTE		        Bn3 
	BYTE	W12
	BYTE		        An3 
	BYTE	W12
	BYTE	PEND
// 055   ----------------------------------------
Battle7thSaga_5_055:
	BYTE		N24     En3   v127
	BYTE	W24
	BYTE		N12     Bn3 
	BYTE	W12
	BYTE		N24     Dn3 
	BYTE	W24
	BYTE		N12     An3 
	BYTE	W12
	BYTE		N24     Cs3 
	BYTE	W24
	BYTE	PEND
// 056   ----------------------------------------
Battle7thSaga_5_056:
	BYTE		N12     An3   v127
	BYTE	W12
	BYTE		N24     Bn2 
	BYTE	W24
	BYTE		N12     Fs3 
	BYTE	W12
	BYTE		N24     An2 
	BYTE	W24
	BYTE		        Fs2 
	BYTE	W24
	BYTE	PEND
// 057   ----------------------------------------
Battle7thSaga_5_057:
	BYTE		TIE     Bn2   v127
	BYTE	W96
	BYTE	PEND
// 058   ----------------------------------------
	BYTE	W96
	BYTE		EOT   
// 059   ----------------------------------------
	BYTE	W48
	BYTE	W48
// 060   ----------------------------------------
	BYTE	W96
// 061   ----------------------------------------
	BYTE	PATT
	 POIN2	Battle7thSaga_5_053
// 062   ----------------------------------------
	BYTE	PATT
	 POIN2	Battle7thSaga_5_054
// 063   ----------------------------------------
	BYTE	PATT
	 POIN2	Battle7thSaga_5_055
// 064   ----------------------------------------
	BYTE	PATT
	 POIN2	Battle7thSaga_5_056
// 065   ----------------------------------------
Battle7thSaga_5_065:
	BYTE		N96     Bn2   v127
	BYTE	W96
	BYTE	PEND
// 066   ----------------------------------------
	BYTE		        Cs3 
	BYTE	W96
// 067   ----------------------------------------
	BYTE		        Dn3 
	BYTE	W96
// 068   ----------------------------------------
	BYTE		        En3 
	BYTE	W96
// 069   ----------------------------------------
	BYTE	W12
	BYTE		N12     Gn4 
	BYTE	W12
	BYTE		        An4 
	BYTE	W12
	BYTE		        Gn3 
	BYTE	W12
	BYTE		        An3 
	BYTE	W12
	BYTE		        Dn4 
	BYTE	W12
	BYTE		        Gn4 
	BYTE	W12
	BYTE		        Fs4 
	BYTE	W12
// 070   ----------------------------------------
	BYTE	PATT
	 POIN2	Battle7thSaga_5_054
// 071   ----------------------------------------
	BYTE	PATT
	 POIN2	Battle7thSaga_5_055
// 072   ----------------------------------------
	BYTE	PATT
	 POIN2	Battle7thSaga_5_056
// 073   ----------------------------------------
	BYTE	PATT
	 POIN2	Battle7thSaga_5_057
// 074   ----------------------------------------
	BYTE	W96
	BYTE		EOT     Bn2 
// 075   ----------------------------------------
	BYTE	W48
	BYTE	W48
// 076   ----------------------------------------
	BYTE	W96
// 077   ----------------------------------------
	BYTE	PATT
	 POIN2	Battle7thSaga_5_053
// 078   ----------------------------------------
	BYTE	PATT
	 POIN2	Battle7thSaga_5_054
// 079   ----------------------------------------
	BYTE	PATT
	 POIN2	Battle7thSaga_5_055
// 080   ----------------------------------------
	BYTE	PATT
	 POIN2	Battle7thSaga_5_056
// 081   ----------------------------------------
	BYTE	PATT
	 POIN2	Battle7thSaga_5_065
// 082   ----------------------------------------
	BYTE		N96     Cs3   v127
	BYTE	W96
// 083   ----------------------------------------
	BYTE		        Dn3 
	BYTE	W96
// 084   ----------------------------------------
	BYTE		        En3 
	BYTE	W96
// 085   ----------------------------------------
	BYTE	W96
// 086   ----------------------------------------
	BYTE	W96
// 087   ----------------------------------------
	BYTE	W96
// 088   ----------------------------------------
	BYTE	W96
	BYTE	GoTo
	 POIN2	Battle7thSaga_5_B1
Battle7thSaga_5_B2:
// 089   ----------------------------------------
	BYTE	PATT
	 POIN2	Battle7thSaga_5_005
// 090   ----------------------------------------
	BYTE	PATT
	 POIN2	Battle7thSaga_5_006
// 091   ----------------------------------------
	BYTE	W96
	BYTE		EOT     Fs4 
// 092   ----------------------------------------
	BYTE	PATT
	 POIN2	Battle7thSaga_5_008
// 093   ----------------------------------------
	BYTE	FINE

//**************** Track 6 (Midi-Chn.6) ****************//

Battle7thSaga_6:
	BYTE	KEYSH   Battle7thSaga_key+0
// 000   ----------------------------------------
	BYTE		VOICE   38
	BYTE		VOL     127*Battle7thSaga_mvl/mxv
	BYTE	W48
	BYTE	W48
// 001   ----------------------------------------
	BYTE	W96
// 002   ----------------------------------------
	BYTE	W96
// 003   ----------------------------------------
	BYTE	W96
// 004   ----------------------------------------
	BYTE	W96
Battle7thSaga_6_B1:
// 005   ----------------------------------------
Battle7thSaga_6_005:
	BYTE		N12     An1   v112
	BYTE	W12
	BYTE		        Bn1 
	BYTE	W24
	BYTE		N12   
	BYTE	W24
	BYTE		N12   
	BYTE	W12
	BYTE		        An1 
	BYTE	W12
	BYTE		        Fs1 
	BYTE	W12
	BYTE	PEND
// 006   ----------------------------------------
Battle7thSaga_6_006:
	BYTE		N12     An1   v112
	BYTE	W12
	BYTE		        Bn1 
	BYTE	W12
	BYTE		        An2 
	BYTE	W12
	BYTE		        Bn2 
	BYTE	W12
	BYTE		        An1 
	BYTE	W24
	BYTE		        Bn1 
	BYTE	W24
	BYTE	PEND
// 007   ----------------------------------------
Battle7thSaga_6_007:
	BYTE		N24     An1   v112
	BYTE	W24
	BYTE		N12     Bn1 
	BYTE	W24
	BYTE		N12   
	BYTE	W12
	BYTE		        An1 
	BYTE	W24
	BYTE		N12   
	BYTE	W12
	BYTE	PEND
// 008   ----------------------------------------
Battle7thSaga_6_008:
	BYTE		N12     Gn2   v112
	BYTE	W12
	BYTE		        An2 
	BYTE	W12
	BYTE		        An1 
	BYTE	W12
	BYTE		        Fs1 
	BYTE	W36
	BYTE		        Dn2 
	BYTE	W24
	BYTE	PEND
// 009   ----------------------------------------
Battle7thSaga_6_009:
	BYTE		N12     An1   v112
	BYTE	W12
	BYTE		        Bn1 
	BYTE	W24
	BYTE		N12   
	BYTE	W24
	BYTE		N12   
	BYTE	W12
	BYTE		        An1 
	BYTE	W12
	BYTE		        Fs1 
	BYTE	W12
	BYTE	PEND
// 010   ----------------------------------------
	BYTE	PATT
	 POIN2	Battle7thSaga_6_006
// 011   ----------------------------------------
Battle7thSaga_6_011:
	BYTE		N12     An1   v112
	BYTE	W24
	BYTE		        Bn1 
	BYTE	W24
	BYTE		N12   
	BYTE	W12
	BYTE		        An1 
	BYTE	W24
	BYTE		        Bn1 
	BYTE	W12
	BYTE	PEND
// 012   ----------------------------------------
Battle7thSaga_6_012:
	BYTE		N12     An2   v112
	BYTE	W12
	BYTE		        Gs2 
	BYTE	W12
	BYTE		        En2 
	BYTE	W12
	BYTE		        Fs2 
	BYTE	W24
	BYTE		N18     Dn2 
	BYTE	W36
	BYTE	PEND
// 013   ----------------------------------------
	BYTE	PATT
	 POIN2	Battle7thSaga_6_009
// 014   ----------------------------------------
	BYTE	PATT
	 POIN2	Battle7thSaga_6_006
// 015   ----------------------------------------
	BYTE	PATT
	 POIN2	Battle7thSaga_6_007
// 016   ----------------------------------------
	BYTE	PATT
	 POIN2	Battle7thSaga_6_008
// 017   ----------------------------------------
	BYTE	PATT
	 POIN2	Battle7thSaga_6_009
// 018   ----------------------------------------
	BYTE	PATT
	 POIN2	Battle7thSaga_6_006
// 019   ----------------------------------------
	BYTE	PATT
	 POIN2	Battle7thSaga_6_011
// 020   ----------------------------------------
	BYTE	PATT
	 POIN2	Battle7thSaga_6_012
// 021   ----------------------------------------
	BYTE	PATT
	 POIN2	Battle7thSaga_6_009
// 022   ----------------------------------------
	BYTE	PATT
	 POIN2	Battle7thSaga_6_006
// 023   ----------------------------------------
	BYTE	PATT
	 POIN2	Battle7thSaga_6_007
// 024   ----------------------------------------
	BYTE	PATT
	 POIN2	Battle7thSaga_6_008
// 025   ----------------------------------------
	BYTE	PATT
	 POIN2	Battle7thSaga_6_009
// 026   ----------------------------------------
	BYTE	PATT
	 POIN2	Battle7thSaga_6_006
// 027   ----------------------------------------
	BYTE	PATT
	 POIN2	Battle7thSaga_6_011
// 028   ----------------------------------------
	BYTE	PATT
	 POIN2	Battle7thSaga_6_012
// 029   ----------------------------------------
	BYTE	PATT
	 POIN2	Battle7thSaga_6_009
// 030   ----------------------------------------
	BYTE	PATT
	 POIN2	Battle7thSaga_6_006
// 031   ----------------------------------------
	BYTE	PATT
	 POIN2	Battle7thSaga_6_007
// 032   ----------------------------------------
	BYTE	PATT
	 POIN2	Battle7thSaga_6_008
// 033   ----------------------------------------
	BYTE	PATT
	 POIN2	Battle7thSaga_6_009
// 034   ----------------------------------------
	BYTE	PATT
	 POIN2	Battle7thSaga_6_006
// 035   ----------------------------------------
	BYTE	PATT
	 POIN2	Battle7thSaga_6_011
// 036   ----------------------------------------
	BYTE	PATT
	 POIN2	Battle7thSaga_6_012
// 037   ----------------------------------------
	BYTE	PATT
	 POIN2	Battle7thSaga_6_009
// 038   ----------------------------------------
	BYTE	PATT
	 POIN2	Battle7thSaga_6_006
// 039   ----------------------------------------
	BYTE	PATT
	 POIN2	Battle7thSaga_6_007
// 040   ----------------------------------------
	BYTE	PATT
	 POIN2	Battle7thSaga_6_008
// 041   ----------------------------------------
	BYTE	PATT
	 POIN2	Battle7thSaga_6_009
// 042   ----------------------------------------
	BYTE	PATT
	 POIN2	Battle7thSaga_6_006
// 043   ----------------------------------------
	BYTE	PATT
	 POIN2	Battle7thSaga_6_011
// 044   ----------------------------------------
	BYTE	PATT
	 POIN2	Battle7thSaga_6_012
// 045   ----------------------------------------
	BYTE	PATT
	 POIN2	Battle7thSaga_6_009
// 046   ----------------------------------------
	BYTE	PATT
	 POIN2	Battle7thSaga_6_006
// 047   ----------------------------------------
	BYTE	PATT
	 POIN2	Battle7thSaga_6_007
// 048   ----------------------------------------
	BYTE	PATT
	 POIN2	Battle7thSaga_6_008
// 049   ----------------------------------------
	BYTE	PATT
	 POIN2	Battle7thSaga_6_009
// 050   ----------------------------------------
	BYTE	PATT
	 POIN2	Battle7thSaga_6_006
// 051   ----------------------------------------
	BYTE	PATT
	 POIN2	Battle7thSaga_6_011
// 052   ----------------------------------------
	BYTE	PATT
	 POIN2	Battle7thSaga_6_012
// 053   ----------------------------------------
Battle7thSaga_6_053:
	BYTE		N24     Gn1   v112
	BYTE	W24
	BYTE		N12     Gn2 
	BYTE	W24
	BYTE		        Fs2 
	BYTE	W24
	BYTE		        Gn1 
	BYTE	W12
	BYTE		N12   
	BYTE	W12
	BYTE	PEND
// 054   ----------------------------------------
Battle7thSaga_6_054:
	BYTE		N12     Gn2   v112
	BYTE	W12
	BYTE		        Gn1 
	BYTE	W12
	BYTE		N12   
	BYTE	W12
	BYTE		        Gn2 
	BYTE	W12
	BYTE		        Gn1 
	BYTE	W12
	BYTE		N12   
	BYTE	W12
	BYTE		N24     Gn2 
	BYTE	W24
	BYTE	PEND
// 055   ----------------------------------------
Battle7thSaga_6_055:
	BYTE		N24     An1   v112
	BYTE	W24
	BYTE		N12     An2 
	BYTE	W24
	BYTE		N12   
	BYTE	W24
	BYTE		        Fs1 
	BYTE	W12
	BYTE		N12   
	BYTE	W12
	BYTE	PEND
// 056   ----------------------------------------
Battle7thSaga_6_056:
	BYTE	W12
	BYTE		N12     Fs1   v112
	BYTE	W12
	BYTE		N24     An1 
	BYTE	W24
	BYTE		        Fs2 
	BYTE	W24
	BYTE		        An2 
	BYTE	W24
	BYTE	PEND
// 057   ----------------------------------------
Battle7thSaga_6_057:
	BYTE		N24     Bn1   v112
	BYTE	W24
	BYTE		N12     Bn2 
	BYTE	W24
	BYTE		N12   
	BYTE	W24
	BYTE		        Bn1 
	BYTE	W12
	BYTE		N12   
	BYTE	W12
	BYTE	PEND
// 058   ----------------------------------------
Battle7thSaga_6_058:
	BYTE		N12     Bn2   v112
	BYTE	W12
	BYTE		        Bn1 
	BYTE	W12
	BYTE		N12   
	BYTE	W12
	BYTE		        Bn2 
	BYTE	W12
	BYTE		        Bn1 
	BYTE	W12
	BYTE		N12   
	BYTE	W12
	BYTE		N24     An2 
	BYTE	W24
	BYTE	PEND
// 059   ----------------------------------------
	BYTE	PATT
	 POIN2	Battle7thSaga_6_057
// 060   ----------------------------------------
	BYTE	PATT
	 POIN2	Battle7thSaga_6_058
// 061   ----------------------------------------
	BYTE	PATT
	 POIN2	Battle7thSaga_6_053
// 062   ----------------------------------------
	BYTE	PATT
	 POIN2	Battle7thSaga_6_054
// 063   ----------------------------------------
Battle7thSaga_6_063:
	BYTE		N24     En1   v112
	BYTE	W24
	BYTE		N12     En2 
	BYTE	W24
	BYTE		N12   
	BYTE	W24
	BYTE		        En1 
	BYTE	W12
	BYTE		N12   
	BYTE	W12
	BYTE	PEND
// 064   ----------------------------------------
Battle7thSaga_6_064:
	BYTE	W12
	BYTE		N12     En1   v112
	BYTE	W12
	BYTE		N24     En2 
	BYTE	W24
	BYTE		        Fn1 
	BYTE	W24
	BYTE		N12     Fs2 
	BYTE	W12
	BYTE		N12   
	BYTE	W12
	BYTE	PEND
// 065   ----------------------------------------
	BYTE		N24     Fs1 
	BYTE	W24
	BYTE		N12     Fs2 
	BYTE	W24
	BYTE		N12   
	BYTE	W24
	BYTE		        Fs1 
	BYTE	W12
	BYTE		N12   
	BYTE	W12
// 066   ----------------------------------------
	BYTE		        Fs2 
	BYTE	W12
	BYTE		        Fs1 
	BYTE	W12
	BYTE		N12   
	BYTE	W12
	BYTE		        Fs2 
	BYTE	W12
	BYTE		N24     Fs1 
	BYTE	W24
	BYTE		        Fs2 
	BYTE	W24
// 067   ----------------------------------------
	BYTE		        Gn1 
	BYTE	W24
	BYTE		N12     Gn2 
	BYTE	W24
	BYTE		N12   
	BYTE	W24
	BYTE		        Gn1 
	BYTE	W12
	BYTE		N12   
	BYTE	W12
// 068   ----------------------------------------
	BYTE		        An2 
	BYTE	W12
	BYTE		N12   
	BYTE	W12
	BYTE		        An1 
	BYTE	W12
	BYTE		        An2 
	BYTE	W12
	BYTE		N12   
	BYTE	W12
	BYTE		N12   
	BYTE	W12
	BYTE		N24     An1 
	BYTE	W24
// 069   ----------------------------------------
	BYTE	PATT
	 POIN2	Battle7thSaga_6_053
// 070   ----------------------------------------
	BYTE	PATT
	 POIN2	Battle7thSaga_6_054
// 071   ----------------------------------------
	BYTE	PATT
	 POIN2	Battle7thSaga_6_055
// 072   ----------------------------------------
	BYTE	PATT
	 POIN2	Battle7thSaga_6_056
// 073   ----------------------------------------
	BYTE	PATT
	 POIN2	Battle7thSaga_6_057
// 074   ----------------------------------------
	BYTE	PATT
	 POIN2	Battle7thSaga_6_058
// 075   ----------------------------------------
	BYTE	PATT
	 POIN2	Battle7thSaga_6_057
// 076   ----------------------------------------
	BYTE	PATT
	 POIN2	Battle7thSaga_6_058
// 077   ----------------------------------------
	BYTE	PATT
	 POIN2	Battle7thSaga_6_053
// 078   ----------------------------------------
	BYTE	PATT
	 POIN2	Battle7thSaga_6_054
// 079   ----------------------------------------
	BYTE	PATT
	 POIN2	Battle7thSaga_6_063
// 080   ----------------------------------------
	BYTE	PATT
	 POIN2	Battle7thSaga_6_064
// 081   ----------------------------------------
	BYTE		N24     En1   v112
	BYTE	W24
	BYTE		N12     En2 
	BYTE	W24
	BYTE		N24   
	BYTE	W24
	BYTE		N12     En1 
	BYTE	W12
	BYTE		N12   
	BYTE	W12
// 082   ----------------------------------------
	BYTE		        Fs1 
	BYTE	W12
	BYTE		N12   
	BYTE	W12
	BYTE		        Fs2 
	BYTE	W24
	BYTE		N24   
	BYTE	W24
	BYTE		        Fs1 
	BYTE	W24
// 083   ----------------------------------------
	BYTE		        Gn1 
	BYTE	W24
	BYTE		N12     Gn2 
	BYTE	W24
	BYTE		N24   
	BYTE	W24
	BYTE		N12     Gn1 
	BYTE	W12
	BYTE		N12   
	BYTE	W12
// 084   ----------------------------------------
	BYTE		        An1 
	BYTE	W12
	BYTE		N12   
	BYTE	W12
	BYTE		        An2 
	BYTE	W24
	BYTE		N24   
	BYTE	W24
	BYTE		        An1 
	BYTE	W24
// 085   ----------------------------------------
	BYTE		N06     Bn2   v080
	BYTE	W12
	BYTE		        En3   v112
	BYTE	W12
	BYTE		        Dn3 
	BYTE	W12
	BYTE		        An2 
	BYTE	W12
	BYTE		        Dn3 
	BYTE	W12
	BYTE		        Cs3 
	BYTE	W12
	BYTE		        Cs3   v080
	BYTE	W12
	BYTE		        Bn2   v112
	BYTE	W12
// 086   ----------------------------------------
	BYTE		        An2 
	BYTE	W12
	BYTE		        Bn2   v080
	BYTE	W12
	BYTE		        Dn3   v112
	BYTE	W12
	BYTE		        Cs3 
	BYTE	W12
	BYTE		        Bn2   v080
	BYTE	W12
	BYTE		        Dn3   v112
	BYTE	W12
	BYTE		        Cs3 
	BYTE	W12
	BYTE		        Bn2   v080
	BYTE	W12
// 087   ----------------------------------------
	BYTE		        En3   v112
	BYTE	W12
	BYTE		        Dn3 
	BYTE	W12
	BYTE		        Cs3   v080
	BYTE	W12
	BYTE		        Bn2   v112
	BYTE	W12
	BYTE		        An2 
	BYTE	W12
	BYTE		        Bn2   v080
	BYTE	W12
	BYTE		        Dn3   v112
	BYTE	W12
	BYTE		        Cs3 
	BYTE	W12
// 088   ----------------------------------------
	BYTE		        Dn3   v080
	BYTE	W12
	BYTE		        Dn3   v112
	BYTE	W12
	BYTE		        Cs3 
	BYTE	W12
	BYTE		        Dn3 
	BYTE	W12
	BYTE		N06   
	BYTE	W12
	BYTE		        En3 
	BYTE	W12
	BYTE		        Fs2 
	BYTE	W12
	BYTE		N06   
	BYTE	W12
	BYTE	GoTo
	 POIN2	Battle7thSaga_6_B1
Battle7thSaga_6_B2:
// 089   ----------------------------------------
	BYTE	PATT
	 POIN2	Battle7thSaga_6_005
// 090   ----------------------------------------
	BYTE	PATT
	 POIN2	Battle7thSaga_6_006
// 091   ----------------------------------------
	BYTE	PATT
	 POIN2	Battle7thSaga_6_007
// 092   ----------------------------------------
	BYTE	PATT
	 POIN2	Battle7thSaga_6_008
// 093   ----------------------------------------
	BYTE	FINE

//**************** Track 7 (Midi-Chn.7) ****************//

Battle7thSaga_7:
	BYTE	KEYSH   Battle7thSaga_key+0
// 000   ----------------------------------------
	BYTE		VOICE   57
	BYTE		VOL     127*Battle7thSaga_mvl/mxv
	BYTE	W48
	BYTE	W48
// 001   ----------------------------------------
	BYTE	W96
// 002   ----------------------------------------
	BYTE	W96
// 003   ----------------------------------------
	BYTE	W96
// 004   ----------------------------------------
	BYTE	W96
Battle7thSaga_7_B1:
// 005   ----------------------------------------
	BYTE	W96
// 006   ----------------------------------------
	BYTE	W96
// 007   ----------------------------------------
	BYTE	W96
// 008   ----------------------------------------
	BYTE	W96
// 009   ----------------------------------------
	BYTE	W96
// 010   ----------------------------------------
	BYTE	W96
// 011   ----------------------------------------
	BYTE	W96
// 012   ----------------------------------------
	BYTE	W96
// 013   ----------------------------------------
	BYTE	W96
// 014   ----------------------------------------
	BYTE	W96
// 015   ----------------------------------------
	BYTE	W96
// 016   ----------------------------------------
	BYTE	W96
// 017   ----------------------------------------
	BYTE	W96
// 018   ----------------------------------------
	BYTE	W96
// 019   ----------------------------------------
	BYTE	W96
// 020   ----------------------------------------
	BYTE	W96
// 021   ----------------------------------------
Battle7thSaga_7_021:
	BYTE		N12     Bn2   v096
	BYTE	W48
	BYTE		        Cs3 
	BYTE	W48
	BYTE	PEND
// 022   ----------------------------------------
Battle7thSaga_7_022:
	BYTE		N12     Dn3   v096
	BYTE	W36
	BYTE		        En3 
	BYTE	W36
	BYTE		        Bn2 
	BYTE	W24
	BYTE	PEND
// 023   ----------------------------------------
	BYTE	W48
	BYTE		        Cs3 
	BYTE	W48
// 024   ----------------------------------------
Battle7thSaga_7_024:
	BYTE		N12     Dn3   v096
	BYTE	W36
	BYTE		        An2 
	BYTE	W36
	BYTE		        Bn2 
	BYTE	W24
	BYTE	PEND
// 025   ----------------------------------------
	BYTE	PATT
	 POIN2	Battle7thSaga_7_021
// 026   ----------------------------------------
	BYTE	PATT
	 POIN2	Battle7thSaga_7_022
// 027   ----------------------------------------
	BYTE	W48
	BYTE		N12     Cs3   v096
	BYTE	W48
// 028   ----------------------------------------
Battle7thSaga_7_028:
	BYTE		N12     Dn3   v096
	BYTE	W12
	BYTE		        Ds3 
	BYTE	W12
	BYTE		        Bn2 
	BYTE	W12
	BYTE		N06     An2 
	BYTE	W24
	BYTE		N06   
	BYTE	W12
	BYTE		        Bn2 
	BYTE	W24
	BYTE	PEND
// 029   ----------------------------------------
	BYTE	PATT
	 POIN2	Battle7thSaga_7_021
// 030   ----------------------------------------
	BYTE	PATT
	 POIN2	Battle7thSaga_7_022
// 031   ----------------------------------------
	BYTE	W48
	BYTE		N12     Cs3   v096
	BYTE	W48
// 032   ----------------------------------------
	BYTE	PATT
	 POIN2	Battle7thSaga_7_024
// 033   ----------------------------------------
	BYTE	PATT
	 POIN2	Battle7thSaga_7_021
// 034   ----------------------------------------
	BYTE	PATT
	 POIN2	Battle7thSaga_7_022
// 035   ----------------------------------------
	BYTE	W48
	BYTE		N12     Cs3   v096
	BYTE	W48
// 036   ----------------------------------------
	BYTE	PATT
	 POIN2	Battle7thSaga_7_028
// 037   ----------------------------------------
	BYTE	PATT
	 POIN2	Battle7thSaga_7_021
// 038   ----------------------------------------
	BYTE	PATT
	 POIN2	Battle7thSaga_7_022
// 039   ----------------------------------------
	BYTE	W48
	BYTE		N12     Cs3   v096
	BYTE	W48
// 040   ----------------------------------------
	BYTE	PATT
	 POIN2	Battle7thSaga_7_024
// 041   ----------------------------------------
	BYTE	PATT
	 POIN2	Battle7thSaga_7_021
// 042   ----------------------------------------
	BYTE	PATT
	 POIN2	Battle7thSaga_7_022
// 043   ----------------------------------------
	BYTE	W48
	BYTE		N12     Cs3   v096
	BYTE	W48
// 044   ----------------------------------------
	BYTE	PATT
	 POIN2	Battle7thSaga_7_028
// 045   ----------------------------------------
	BYTE	PATT
	 POIN2	Battle7thSaga_7_021
// 046   ----------------------------------------
	BYTE	PATT
	 POIN2	Battle7thSaga_7_022
// 047   ----------------------------------------
	BYTE	W48
	BYTE		N12     Cs3   v096
	BYTE	W48
// 048   ----------------------------------------
	BYTE	PATT
	 POIN2	Battle7thSaga_7_024
// 049   ----------------------------------------
	BYTE	PATT
	 POIN2	Battle7thSaga_7_021
// 050   ----------------------------------------
	BYTE	PATT
	 POIN2	Battle7thSaga_7_022
// 051   ----------------------------------------
	BYTE	W48
	BYTE		N12     Cs3   v096
	BYTE	W48
// 052   ----------------------------------------
	BYTE	PATT
	 POIN2	Battle7thSaga_7_028
// 053   ----------------------------------------
	BYTE	W96
// 054   ----------------------------------------
	BYTE	W96
// 055   ----------------------------------------
	BYTE	W96
// 056   ----------------------------------------
	BYTE	W96
// 057   ----------------------------------------
	BYTE	W96
// 058   ----------------------------------------
	BYTE	W96
// 059   ----------------------------------------
	BYTE	W96
// 060   ----------------------------------------
	BYTE	W96
// 061   ----------------------------------------
	BYTE	W96
// 062   ----------------------------------------
	BYTE	W96
// 063   ----------------------------------------
	BYTE	W96
// 064   ----------------------------------------
	BYTE	W96
// 065   ----------------------------------------
	BYTE	W96
// 066   ----------------------------------------
	BYTE	W96
// 067   ----------------------------------------
	BYTE	W96
// 068   ----------------------------------------
	BYTE	W96
// 069   ----------------------------------------
	BYTE	W96
// 070   ----------------------------------------
	BYTE	W96
// 071   ----------------------------------------
	BYTE	W96
// 072   ----------------------------------------
	BYTE	W96
// 073   ----------------------------------------
	BYTE	W96
// 074   ----------------------------------------
	BYTE	W96
// 075   ----------------------------------------
	BYTE	W96
// 076   ----------------------------------------
	BYTE	W96
// 077   ----------------------------------------
	BYTE	W96
// 078   ----------------------------------------
	BYTE	W96
// 079   ----------------------------------------
	BYTE	W96
// 080   ----------------------------------------
	BYTE	W96
// 081   ----------------------------------------
	BYTE	W96
// 082   ----------------------------------------
	BYTE	W96
// 083   ----------------------------------------
	BYTE	W96
// 084   ----------------------------------------
	BYTE	W96
// 085   ----------------------------------------
	BYTE	W96
// 086   ----------------------------------------
	BYTE	W96
// 087   ----------------------------------------
	BYTE	W96
// 088   ----------------------------------------
	BYTE	W96
	BYTE	GoTo
	 POIN2	Battle7thSaga_7_B1
Battle7thSaga_7_B2:
// 089   ----------------------------------------
	BYTE	W96
// 090   ----------------------------------------
	BYTE	W96
// 091   ----------------------------------------
	BYTE	W96
// 092   ----------------------------------------
	BYTE	W96
// 093   ----------------------------------------
	BYTE	FINE

//**************** Track 8 (Midi-Chn.8) ****************//

Battle7thSaga_8:
	BYTE	KEYSH   Battle7thSaga_key+0
// 000   ----------------------------------------
	BYTE		VOICE   73
	BYTE	W48
	BYTE		VOL     112*Battle7thSaga_mvl/mxv
	BYTE	W48
// 001   ----------------------------------------
	BYTE	W96
// 002   ----------------------------------------
	BYTE	W96
// 003   ----------------------------------------
	BYTE	W96
// 004   ----------------------------------------
	BYTE	W96
Battle7thSaga_8_B1:
// 005   ----------------------------------------
	BYTE	W96
// 006   ----------------------------------------
	BYTE	W96
// 007   ----------------------------------------
	BYTE	W96
// 008   ----------------------------------------
	BYTE	W96
// 009   ----------------------------------------
	BYTE	W96
// 010   ----------------------------------------
	BYTE	W96
// 011   ----------------------------------------
	BYTE	W96
// 012   ----------------------------------------
	BYTE	W96
// 013   ----------------------------------------
	BYTE	W96
// 014   ----------------------------------------
	BYTE	W96
// 015   ----------------------------------------
	BYTE	W96
// 016   ----------------------------------------
	BYTE	W96
// 017   ----------------------------------------
	BYTE	W96
// 018   ----------------------------------------
	BYTE	W96
// 019   ----------------------------------------
	BYTE	W96
// 020   ----------------------------------------
	BYTE	W96
// 021   ----------------------------------------
	BYTE	W96
// 022   ----------------------------------------
	BYTE	W96
// 023   ----------------------------------------
	BYTE	W96
// 024   ----------------------------------------
	BYTE	W96
// 025   ----------------------------------------
	BYTE	W96
// 026   ----------------------------------------
	BYTE	W96
// 027   ----------------------------------------
	BYTE	W96
// 028   ----------------------------------------
	BYTE	W96
// 029   ----------------------------------------
	BYTE	W96
// 030   ----------------------------------------
	BYTE	W96
// 031   ----------------------------------------
	BYTE	W96
// 032   ----------------------------------------
	BYTE	W96
// 033   ----------------------------------------
	BYTE	W96
// 034   ----------------------------------------
	BYTE	W96
// 035   ----------------------------------------
	BYTE	W96
// 036   ----------------------------------------
	BYTE	W96
// 037   ----------------------------------------
	BYTE	W96
// 038   ----------------------------------------
	BYTE	W96
// 039   ----------------------------------------
	BYTE	W96
// 040   ----------------------------------------
	BYTE	W96
// 041   ----------------------------------------
	BYTE	W96
// 042   ----------------------------------------
	BYTE	W96
// 043   ----------------------------------------
	BYTE	W96
// 044   ----------------------------------------
	BYTE	W96
// 045   ----------------------------------------
	BYTE	W96
// 046   ----------------------------------------
	BYTE	W96
// 047   ----------------------------------------
	BYTE	W96
// 048   ----------------------------------------
	BYTE	W96
// 049   ----------------------------------------
	BYTE	W96
// 050   ----------------------------------------
	BYTE	W96
// 051   ----------------------------------------
	BYTE	W96
// 052   ----------------------------------------
	BYTE	W96
// 053   ----------------------------------------
Battle7thSaga_8_053:
	BYTE	W12
	BYTE		N06     Cn5   v127
	BYTE	W12
	BYTE		        Gn4 
	BYTE	W12
	BYTE		        Fs4 
	BYTE	W12
	BYTE		        En4 
	BYTE	W12
	BYTE		        Fs4 
	BYTE	W12
	BYTE		        Gn4 
	BYTE	W12
	BYTE		        Bn3 
	BYTE	W12
	BYTE	PEND
// 054   ----------------------------------------
Battle7thSaga_8_054:
	BYTE		N06     En4   v127
	BYTE	W12
	BYTE		        Fs4 
	BYTE	W12
	BYTE		        Cs4 
	BYTE	W12
	BYTE		        Dn4 
	BYTE	W12
	BYTE		        En4 
	BYTE	W12
	BYTE		        Cs4 
	BYTE	W12
	BYTE		        Dn4 
	BYTE	W12
	BYTE		        En4 
	BYTE	W12
	BYTE	PEND
// 055   ----------------------------------------
Battle7thSaga_8_055:
	BYTE		N06     Dn4   v127
	BYTE	W12
	BYTE		        En4 
	BYTE	W12
	BYTE		        Bn4 
	BYTE	W12
	BYTE		        En4 
	BYTE	W12
	BYTE		        Bn3 
	BYTE	W12
	BYTE		        Cs4 
	BYTE	W12
	BYTE		        En4 
	BYTE	W12
	BYTE		        Cs4 
	BYTE	W12
	BYTE	PEND
// 056   ----------------------------------------
Battle7thSaga_8_056:
	BYTE		N06     En4   v127
	BYTE	W12
	BYTE		        Cs4 
	BYTE	W12
	BYTE		        En4 
	BYTE	W12
	BYTE		        Fs4 
	BYTE	W12
	BYTE		        En4 
	BYTE	W12
	BYTE		        Fs4 
	BYTE	W12
	BYTE		        Bn4 
	BYTE	W12
	BYTE		        Fs4 
	BYTE	W12
	BYTE	PEND
// 057   ----------------------------------------
Battle7thSaga_8_057:
	BYTE		N06     Fs4   v127
	BYTE	W12
	BYTE		        Bn4 
	BYTE	W12
	BYTE		        En5 
	BYTE	W12
	BYTE		        Fs4 
	BYTE	W12
	BYTE		        Bn4 
	BYTE	W12
	BYTE		        En5 
	BYTE	W12
	BYTE		        En4 
	BYTE	W12
	BYTE		        Cs4 
	BYTE	W12
	BYTE	PEND
// 058   ----------------------------------------
Battle7thSaga_8_058:
	BYTE		N06     En5   v127
	BYTE	W12
	BYTE		        Fs4 
	BYTE	W12
	BYTE		        Bn4 
	BYTE	W12
	BYTE		        En5 
	BYTE	W12
	BYTE		        En4 
	BYTE	W12
	BYTE		        Bn4 
	BYTE	W12
	BYTE		        En5 
	BYTE	W12
	BYTE		        Dn4 
	BYTE	W12
	BYTE	PEND
// 059   ----------------------------------------
Battle7thSaga_8_059:
	BYTE		N06     En4   v127
	BYTE	W12
	BYTE		        Bn4 
	BYTE	W12
	BYTE		        En5 
	BYTE	W12
	BYTE		        Fs4 
	BYTE	W12
	BYTE		        Bn4 
	BYTE	W12
	BYTE		        En5 
	BYTE	W12
	BYTE		        Fs4 
	BYTE	W12
	BYTE		        Bn4 
	BYTE	W12
	BYTE	PEND
// 060   ----------------------------------------
Battle7thSaga_8_060:
	BYTE		N06     En5   v127
	BYTE	W12
	BYTE		        Fs4 
	BYTE	W12
	BYTE		        Bn4 
	BYTE	W12
	BYTE		        En5 
	BYTE	W12
	BYTE		        Cs4 
	BYTE	W12
	BYTE		        An4 
	BYTE	W12
	BYTE		        En4 
	BYTE	W12
	BYTE		        Bn4 
	BYTE	W12
	BYTE	PEND
// 061   ----------------------------------------
	BYTE	PATT
	 POIN2	Battle7thSaga_8_053
// 062   ----------------------------------------
	BYTE	PATT
	 POIN2	Battle7thSaga_8_054
// 063   ----------------------------------------
	BYTE	PATT
	 POIN2	Battle7thSaga_8_055
// 064   ----------------------------------------
	BYTE	PATT
	 POIN2	Battle7thSaga_8_056
// 065   ----------------------------------------
	BYTE	PATT
	 POIN2	Battle7thSaga_8_057
// 066   ----------------------------------------
	BYTE	PATT
	 POIN2	Battle7thSaga_8_058
// 067   ----------------------------------------
	BYTE	PATT
	 POIN2	Battle7thSaga_8_059
// 068   ----------------------------------------
	BYTE	PATT
	 POIN2	Battle7thSaga_8_060
// 069   ----------------------------------------
	BYTE	PATT
	 POIN2	Battle7thSaga_8_053
// 070   ----------------------------------------
	BYTE	PATT
	 POIN2	Battle7thSaga_8_054
// 071   ----------------------------------------
	BYTE	PATT
	 POIN2	Battle7thSaga_8_055
// 072   ----------------------------------------
	BYTE	PATT
	 POIN2	Battle7thSaga_8_056
// 073   ----------------------------------------
	BYTE	PATT
	 POIN2	Battle7thSaga_8_057
// 074   ----------------------------------------
	BYTE	PATT
	 POIN2	Battle7thSaga_8_058
// 075   ----------------------------------------
	BYTE	PATT
	 POIN2	Battle7thSaga_8_059
// 076   ----------------------------------------
	BYTE	PATT
	 POIN2	Battle7thSaga_8_060
// 077   ----------------------------------------
	BYTE	PATT
	 POIN2	Battle7thSaga_8_053
// 078   ----------------------------------------
	BYTE	PATT
	 POIN2	Battle7thSaga_8_054
// 079   ----------------------------------------
	BYTE	PATT
	 POIN2	Battle7thSaga_8_055
// 080   ----------------------------------------
	BYTE	PATT
	 POIN2	Battle7thSaga_8_056
// 081   ----------------------------------------
	BYTE		N06     En4   v127
	BYTE	W12
	BYTE		        Bn4 
	BYTE	W12
	BYTE		        Gn4 
	BYTE	W12
	BYTE		        En4 
	BYTE	W12
	BYTE		        Dn4 
	BYTE	W12
	BYTE		        Fs4 
	BYTE	W12
	BYTE		        Gn4 
	BYTE	W12
	BYTE		        Cs4 
	BYTE	W12
// 082   ----------------------------------------
	BYTE		        En4 
	BYTE	W12
	BYTE		        Fs4 
	BYTE	W12
	BYTE		        Cs4 
	BYTE	W12
	BYTE		        En4 
	BYTE	W12
	BYTE		        Fs4 
	BYTE	W12
	BYTE		        Cs4 
	BYTE	W12
	BYTE		        En4 
	BYTE	W12
	BYTE		        Fs4 
	BYTE	W12
// 083   ----------------------------------------
	BYTE		        Dn4 
	BYTE	W12
	BYTE		N06   
	BYTE	W12
	BYTE		        En4 
	BYTE	W12
	BYTE		        Fs4 
	BYTE	W12
	BYTE		        Bn3 
	BYTE	W12
	BYTE		N06   
	BYTE	W12
	BYTE		        Fs4 
	BYTE	W12
	BYTE		        Bn3 
	BYTE	W12
// 084   ----------------------------------------
	BYTE		        En4 
	BYTE	W12
	BYTE		        Fs4 
	BYTE	W12
	BYTE		        Bn3 
	BYTE	W12
	BYTE		        En4 
	BYTE	W12
	BYTE		        An4 
	BYTE	W12
	BYTE		        Fs4 
	BYTE	W12
	BYTE		        An4 
	BYTE	W12
	BYTE		        Bn4 
	BYTE	W12
// 085   ----------------------------------------
	BYTE	W12
	BYTE		N06   
	BYTE	W12
	BYTE		        Fs4 
	BYTE	W12
	BYTE		        En4 
	BYTE	W12
	BYTE		        Bn3 
	BYTE	W12
	BYTE		        Cs4 
	BYTE	W12
	BYTE		        Dn4 
	BYTE	W12
	BYTE		        En4 
	BYTE	W12
// 086   ----------------------------------------
	BYTE		        Bn3 
	BYTE	W12
	BYTE		        Bn4 
	BYTE	W12
	BYTE		        Fs4 
	BYTE	W12
	BYTE		        En4 
	BYTE	W12
	BYTE		        Dn4 
	BYTE	W12
	BYTE		        En4 
	BYTE	W12
	BYTE		        Fs4 
	BYTE	W12
	BYTE		        En4 
	BYTE	W12
// 087   ----------------------------------------
	BYTE		N06   
	BYTE	W12
	BYTE		        Bn4 
	BYTE	W12
	BYTE		        Fs4 
	BYTE	W12
	BYTE		        En4 
	BYTE	W12
	BYTE		        Cs4 
	BYTE	W12
	BYTE		        Dn4 
	BYTE	W12
	BYTE		        Fs4 
	BYTE	W12
	BYTE		        En4 
	BYTE	W12
// 088   ----------------------------------------
	BYTE		        Bn3 
	BYTE	W12
	BYTE		        Dn4 
	BYTE	W12
	BYTE		        Fs4 
	BYTE	W12
	BYTE		        En4 
	BYTE	W12
	BYTE		        Cs4 
	BYTE	W12
	BYTE		        Dn4 
	BYTE	W12
	BYTE		        Fs4 
	BYTE	W12
	BYTE		        En4 
	BYTE	W12
	BYTE	GoTo
	 POIN2	Battle7thSaga_8_B1
Battle7thSaga_8_B2:
// 089   ----------------------------------------
	BYTE	W96
// 090   ----------------------------------------
	BYTE	W96
// 091   ----------------------------------------
	BYTE	W96
// 092   ----------------------------------------
	BYTE	W96
// 093   ----------------------------------------
	BYTE	FINE

//**************** Track 9 (Midi-Chn.10) ****************//

Battle7thSaga_9:
	BYTE	KEYSH   Battle7thSaga_key+0
// 000   ----------------------------------------
	BYTE		VOICE   123
	BYTE	W48
	BYTE		VOL     112*Battle7thSaga_mvl/mxv
	BYTE	W48
// 001   ----------------------------------------
	BYTE	W96
// 002   ----------------------------------------
	BYTE	W96
// 003   ----------------------------------------
	BYTE	W96
// 004   ----------------------------------------
	BYTE	W96
Battle7thSaga_9_B1:
// 005   ----------------------------------------
Battle7thSaga_9_005:
	BYTE		N06     Cn1   v096
	BYTE		N06     Gs1 
	BYTE	W24
	BYTE		        Dn1   v080
	BYTE		N06     Gs1   v096
	BYTE	W24
	BYTE		        Cn1 
	BYTE		N06     Gs1 
	BYTE	W24
	BYTE		        Dn1   v080
	BYTE		N06     Gs1   v096
	BYTE	W12
	BYTE		N06   
	BYTE	W12
	BYTE	PEND
// 006   ----------------------------------------
	BYTE	PATT
	 POIN2	Battle7thSaga_9_005
// 007   ----------------------------------------
	BYTE	PATT
	 POIN2	Battle7thSaga_9_005
// 008   ----------------------------------------
Battle7thSaga_9_008:
	BYTE		N06     Cn1   v096
	BYTE		N06     Gs1 
	BYTE	W12
	BYTE		N06   
	BYTE	W12
	BYTE		        Dn1   v080
	BYTE		N06     Gs1   v096
	BYTE	W24
	BYTE		        Cn1 
	BYTE		N06     Gs1 
	BYTE	W24
	BYTE		        Dn1   v080
	BYTE		N06     Gs1   v096
	BYTE	W24
	BYTE	PEND
// 009   ----------------------------------------
	BYTE	PATT
	 POIN2	Battle7thSaga_9_005
// 010   ----------------------------------------
Battle7thSaga_9_010:
	BYTE		N06     Cn1   v096
	BYTE		N06     Gs1 
	BYTE	W24
	BYTE		        Dn1   v080
	BYTE		N06     Gs1   v096
	BYTE	W24
	BYTE		        Cn1 
	BYTE		N06     Gs1 
	BYTE	W24
	BYTE		        Dn1   v080
	BYTE		N06     Gs1   v096
	BYTE	W24
	BYTE	PEND
// 011   ----------------------------------------
	BYTE	PATT
	 POIN2	Battle7thSaga_9_005
// 012   ----------------------------------------
	BYTE	PATT
	 POIN2	Battle7thSaga_9_008
// 013   ----------------------------------------
	BYTE	PATT
	 POIN2	Battle7thSaga_9_005
// 014   ----------------------------------------
	BYTE	PATT
	 POIN2	Battle7thSaga_9_005
// 015   ----------------------------------------
	BYTE	PATT
	 POIN2	Battle7thSaga_9_005
// 016   ----------------------------------------
	BYTE	PATT
	 POIN2	Battle7thSaga_9_008
// 017   ----------------------------------------
	BYTE	PATT
	 POIN2	Battle7thSaga_9_005
// 018   ----------------------------------------
	BYTE	PATT
	 POIN2	Battle7thSaga_9_010
// 019   ----------------------------------------
	BYTE	PATT
	 POIN2	Battle7thSaga_9_005
// 020   ----------------------------------------
	BYTE	PATT
	 POIN2	Battle7thSaga_9_008
// 021   ----------------------------------------
	BYTE	PATT
	 POIN2	Battle7thSaga_9_005
// 022   ----------------------------------------
	BYTE	PATT
	 POIN2	Battle7thSaga_9_005
// 023   ----------------------------------------
	BYTE	PATT
	 POIN2	Battle7thSaga_9_005
// 024   ----------------------------------------
	BYTE	PATT
	 POIN2	Battle7thSaga_9_008
// 025   ----------------------------------------
	BYTE	PATT
	 POIN2	Battle7thSaga_9_005
// 026   ----------------------------------------
	BYTE	PATT
	 POIN2	Battle7thSaga_9_010
// 027   ----------------------------------------
	BYTE	PATT
	 POIN2	Battle7thSaga_9_005
// 028   ----------------------------------------
	BYTE	PATT
	 POIN2	Battle7thSaga_9_008
// 029   ----------------------------------------
	BYTE	PATT
	 POIN2	Battle7thSaga_9_005
// 030   ----------------------------------------
	BYTE	PATT
	 POIN2	Battle7thSaga_9_005
// 031   ----------------------------------------
	BYTE	PATT
	 POIN2	Battle7thSaga_9_005
// 032   ----------------------------------------
	BYTE	PATT
	 POIN2	Battle7thSaga_9_008
// 033   ----------------------------------------
	BYTE	PATT
	 POIN2	Battle7thSaga_9_005
// 034   ----------------------------------------
	BYTE	PATT
	 POIN2	Battle7thSaga_9_010
// 035   ----------------------------------------
	BYTE	PATT
	 POIN2	Battle7thSaga_9_005
// 036   ----------------------------------------
	BYTE	PATT
	 POIN2	Battle7thSaga_9_008
// 037   ----------------------------------------
	BYTE	PATT
	 POIN2	Battle7thSaga_9_005
// 038   ----------------------------------------
	BYTE	PATT
	 POIN2	Battle7thSaga_9_005
// 039   ----------------------------------------
	BYTE	PATT
	 POIN2	Battle7thSaga_9_005
// 040   ----------------------------------------
	BYTE	PATT
	 POIN2	Battle7thSaga_9_008
// 041   ----------------------------------------
	BYTE	PATT
	 POIN2	Battle7thSaga_9_005
// 042   ----------------------------------------
	BYTE	PATT
	 POIN2	Battle7thSaga_9_010
// 043   ----------------------------------------
	BYTE	PATT
	 POIN2	Battle7thSaga_9_005
// 044   ----------------------------------------
	BYTE	PATT
	 POIN2	Battle7thSaga_9_008
// 045   ----------------------------------------
	BYTE	PATT
	 POIN2	Battle7thSaga_9_005
// 046   ----------------------------------------
	BYTE	PATT
	 POIN2	Battle7thSaga_9_005
// 047   ----------------------------------------
	BYTE	PATT
	 POIN2	Battle7thSaga_9_005
// 048   ----------------------------------------
	BYTE	PATT
	 POIN2	Battle7thSaga_9_008
// 049   ----------------------------------------
	BYTE	PATT
	 POIN2	Battle7thSaga_9_005
// 050   ----------------------------------------
	BYTE	PATT
	 POIN2	Battle7thSaga_9_010
// 051   ----------------------------------------
	BYTE	PATT
	 POIN2	Battle7thSaga_9_005
// 052   ----------------------------------------
	BYTE		N06     Cn1   v096
	BYTE		N06     Gs1 
	BYTE	W12
	BYTE		N06   
	BYTE	W12
	BYTE		        Dn1   v080
	BYTE		N06     Gs1   v096
	BYTE	W24
	BYTE		        Cn1 
	BYTE		N06     Gs1 
	BYTE	W12
	BYTE		        Dn1   v080
	BYTE	W12
	BYTE		N06   
	BYTE		N06     Gs1   v096
	BYTE	W12
	BYTE		        Dn1   v080
	BYTE	W12
// 053   ----------------------------------------
	BYTE	PATT
	 POIN2	Battle7thSaga_9_010
// 054   ----------------------------------------
	BYTE	PATT
	 POIN2	Battle7thSaga_9_005
// 055   ----------------------------------------
	BYTE	PATT
	 POIN2	Battle7thSaga_9_010
// 056   ----------------------------------------
Battle7thSaga_9_056:
	BYTE		N06     Cn1   v096
	BYTE		N06     Gs1 
	BYTE	W24
	BYTE		        Dn1   v080
	BYTE		N06     Gs1   v096
	BYTE	W24
	BYTE		        Cn1 
	BYTE		N06     Gs1 
	BYTE	W12
	BYTE		N06   
	BYTE	W12
	BYTE		        Dn1   v080
	BYTE		N06     Gs1   v096
	BYTE	W24
	BYTE	PEND
// 057   ----------------------------------------
	BYTE	PATT
	 POIN2	Battle7thSaga_9_005
// 058   ----------------------------------------
	BYTE	PATT
	 POIN2	Battle7thSaga_9_056
// 059   ----------------------------------------
	BYTE	PATT
	 POIN2	Battle7thSaga_9_005
// 060   ----------------------------------------
	BYTE	PATT
	 POIN2	Battle7thSaga_9_056
// 061   ----------------------------------------
	BYTE	PATT
	 POIN2	Battle7thSaga_9_010
// 062   ----------------------------------------
	BYTE	PATT
	 POIN2	Battle7thSaga_9_056
// 063   ----------------------------------------
	BYTE	PATT
	 POIN2	Battle7thSaga_9_010
// 064   ----------------------------------------
	BYTE	PATT
	 POIN2	Battle7thSaga_9_056
// 065   ----------------------------------------
	BYTE	PATT
	 POIN2	Battle7thSaga_9_010
// 066   ----------------------------------------
	BYTE	PATT
	 POIN2	Battle7thSaga_9_056
// 067   ----------------------------------------
	BYTE	PATT
	 POIN2	Battle7thSaga_9_010
// 068   ----------------------------------------
	BYTE	PATT
	 POIN2	Battle7thSaga_9_056
// 069   ----------------------------------------
	BYTE	PATT
	 POIN2	Battle7thSaga_9_010
// 070   ----------------------------------------
	BYTE	PATT
	 POIN2	Battle7thSaga_9_005
// 071   ----------------------------------------
	BYTE	PATT
	 POIN2	Battle7thSaga_9_010
// 072   ----------------------------------------
	BYTE	PATT
	 POIN2	Battle7thSaga_9_056
// 073   ----------------------------------------
	BYTE	PATT
	 POIN2	Battle7thSaga_9_005
// 074   ----------------------------------------
	BYTE	PATT
	 POIN2	Battle7thSaga_9_056
// 075   ----------------------------------------
	BYTE	PATT
	 POIN2	Battle7thSaga_9_005
// 076   ----------------------------------------
	BYTE	PATT
	 POIN2	Battle7thSaga_9_056
// 077   ----------------------------------------
	BYTE	PATT
	 POIN2	Battle7thSaga_9_010
// 078   ----------------------------------------
	BYTE	PATT
	 POIN2	Battle7thSaga_9_056
// 079   ----------------------------------------
	BYTE	PATT
	 POIN2	Battle7thSaga_9_010
// 080   ----------------------------------------
	BYTE	PATT
	 POIN2	Battle7thSaga_9_056
// 081   ----------------------------------------
	BYTE		N06     Cn1   v096
	BYTE	W12
	BYTE		        Gs1 
	BYTE	W12
	BYTE		        Dn1   v080
	BYTE		N06     Gs1   v096
	BYTE	W24
	BYTE		        Cn1 
	BYTE		N06     Gs1 
	BYTE	W24
	BYTE		        Dn1   v080
	BYTE		N06     Gs1   v096
	BYTE	W24
// 082   ----------------------------------------
	BYTE	PATT
	 POIN2	Battle7thSaga_9_056
// 083   ----------------------------------------
	BYTE	PATT
	 POIN2	Battle7thSaga_9_010
// 084   ----------------------------------------
	BYTE	PATT
	 POIN2	Battle7thSaga_9_056
// 085   ----------------------------------------
Battle7thSaga_9_085:
	BYTE		N06     Cn1   v096
	BYTE		N06     Gs1 
	BYTE	W24
	BYTE		        Dn1   v080
	BYTE		N06     Gs1   v096
	BYTE	W24
	BYTE		        Cn1 
	BYTE		N06     Gs1 
	BYTE	W12
	BYTE		N06   
	BYTE	W12
	BYTE		        Dn1   v080
	BYTE		N06     Gs1   v096
	BYTE	W12
	BYTE		N06   
	BYTE	W12
	BYTE	PEND
// 086   ----------------------------------------
	BYTE	PATT
	 POIN2	Battle7thSaga_9_008
// 087   ----------------------------------------
	BYTE	PATT
	 POIN2	Battle7thSaga_9_085
// 088   ----------------------------------------
	BYTE		N06     Cn1   v096
	BYTE		N06     Gs1 
	BYTE	W12
	BYTE		        Dn1   v080
	BYTE		N06     Gs1   v096
	BYTE	W12
	BYTE		N06   
	BYTE	W24
	BYTE		        Cn1 
	BYTE		N06     Dn1   v080
	BYTE		N06     Gs1   v096
	BYTE	W24
	BYTE		        Dn1   v080
	BYTE		N06     Gs1   v096
	BYTE	W12
	BYTE		        Dn1   v080
	BYTE	W12
	BYTE	GoTo
	 POIN2	Battle7thSaga_9_B1
Battle7thSaga_9_B2:
// 089   ----------------------------------------
	BYTE	PATT
	 POIN2	Battle7thSaga_9_005
// 090   ----------------------------------------
	BYTE	PATT
	 POIN2	Battle7thSaga_9_005
// 091   ----------------------------------------
	BYTE	PATT
	 POIN2	Battle7thSaga_9_005
// 092   ----------------------------------------
	BYTE	PATT
	 POIN2	Battle7thSaga_9_008
// 093   ----------------------------------------
	BYTE	FINE

//**************** Track 10 (Midi-Chn.11) ****************//

Battle7thSaga_10:
	BYTE	KEYSH   Battle7thSaga_key+0
// 000   ----------------------------------------
	BYTE		VOICE   38
	BYTE		VOL     127*Battle7thSaga_mvl/mxv
	BYTE	W48
	BYTE	W48
// 001   ----------------------------------------
	BYTE	W96
// 002   ----------------------------------------
	BYTE	W96
// 003   ----------------------------------------
	BYTE	W96
// 004   ----------------------------------------
	BYTE	W96
Battle7thSaga_10_B1:
// 005   ----------------------------------------
Battle7thSaga_10_005:
	BYTE		N12     An0   v112
	BYTE	W12
	BYTE		        Bn0 
	BYTE	W24
	BYTE		N12   
	BYTE	W24
	BYTE		N12   
	BYTE	W12
	BYTE		        An0 
	BYTE	W12
	BYTE		        Fs0 
	BYTE	W12
	BYTE	PEND
// 006   ----------------------------------------
Battle7thSaga_10_006:
	BYTE		N12     An0   v112
	BYTE	W12
	BYTE		        Bn0 
	BYTE	W12
	BYTE		        An1 
	BYTE	W12
	BYTE		        Bn1 
	BYTE	W12
	BYTE		        An0 
	BYTE	W24
	BYTE		        Bn0 
	BYTE	W24
	BYTE	PEND
// 007   ----------------------------------------
Battle7thSaga_10_007:
	BYTE		N24     An0   v112
	BYTE	W24
	BYTE		N12     Bn0 
	BYTE	W24
	BYTE		N12   
	BYTE	W12
	BYTE		        An0 
	BYTE	W24
	BYTE		N12   
	BYTE	W12
	BYTE	PEND
// 008   ----------------------------------------
Battle7thSaga_10_008:
	BYTE		N12     Gn1   v112
	BYTE	W12
	BYTE		        An1 
	BYTE	W12
	BYTE		        An0 
	BYTE	W12
	BYTE		        Fs0 
	BYTE	W36
	BYTE		        Dn1 
	BYTE	W24
	BYTE	PEND
// 009   ----------------------------------------
Battle7thSaga_10_009:
	BYTE		N12     An0   v112
	BYTE	W12
	BYTE		        Bn0 
	BYTE	W24
	BYTE		N12   
	BYTE	W24
	BYTE		N12   
	BYTE	W12
	BYTE		        An0 
	BYTE	W12
	BYTE		        Fs0 
	BYTE	W12
	BYTE	PEND
// 010   ----------------------------------------
	BYTE	PATT
	 POIN2	Battle7thSaga_10_006
// 011   ----------------------------------------
Battle7thSaga_10_011:
	BYTE		N12     An0   v112
	BYTE	W24
	BYTE		        Bn0 
	BYTE	W24
	BYTE		N12   
	BYTE	W12
	BYTE		        An0 
	BYTE	W24
	BYTE		        Bn0 
	BYTE	W12
	BYTE	PEND
// 012   ----------------------------------------
Battle7thSaga_10_012:
	BYTE		N12     An1   v112
	BYTE	W12
	BYTE		        Gs1 
	BYTE	W12
	BYTE		        En1 
	BYTE	W12
	BYTE		        Fs1 
	BYTE	W24
	BYTE		N18     Dn1 
	BYTE	W36
	BYTE	PEND
// 013   ----------------------------------------
	BYTE	PATT
	 POIN2	Battle7thSaga_10_009
// 014   ----------------------------------------
	BYTE	PATT
	 POIN2	Battle7thSaga_10_006
// 015   ----------------------------------------
	BYTE	PATT
	 POIN2	Battle7thSaga_10_007
// 016   ----------------------------------------
	BYTE	PATT
	 POIN2	Battle7thSaga_10_008
// 017   ----------------------------------------
	BYTE	PATT
	 POIN2	Battle7thSaga_10_009
// 018   ----------------------------------------
	BYTE	PATT
	 POIN2	Battle7thSaga_10_006
// 019   ----------------------------------------
	BYTE	PATT
	 POIN2	Battle7thSaga_10_011
// 020   ----------------------------------------
	BYTE	PATT
	 POIN2	Battle7thSaga_10_012
// 021   ----------------------------------------
	BYTE	PATT
	 POIN2	Battle7thSaga_10_009
// 022   ----------------------------------------
	BYTE	PATT
	 POIN2	Battle7thSaga_10_006
// 023   ----------------------------------------
	BYTE	PATT
	 POIN2	Battle7thSaga_10_007
// 024   ----------------------------------------
	BYTE	PATT
	 POIN2	Battle7thSaga_10_008
// 025   ----------------------------------------
	BYTE	PATT
	 POIN2	Battle7thSaga_10_009
// 026   ----------------------------------------
	BYTE	PATT
	 POIN2	Battle7thSaga_10_006
// 027   ----------------------------------------
	BYTE	PATT
	 POIN2	Battle7thSaga_10_011
// 028   ----------------------------------------
	BYTE	PATT
	 POIN2	Battle7thSaga_10_012
// 029   ----------------------------------------
	BYTE	PATT
	 POIN2	Battle7thSaga_10_009
// 030   ----------------------------------------
	BYTE	PATT
	 POIN2	Battle7thSaga_10_006
// 031   ----------------------------------------
	BYTE	PATT
	 POIN2	Battle7thSaga_10_007
// 032   ----------------------------------------
	BYTE	PATT
	 POIN2	Battle7thSaga_10_008
// 033   ----------------------------------------
	BYTE	PATT
	 POIN2	Battle7thSaga_10_009
// 034   ----------------------------------------
	BYTE	PATT
	 POIN2	Battle7thSaga_10_006
// 035   ----------------------------------------
	BYTE	PATT
	 POIN2	Battle7thSaga_10_011
// 036   ----------------------------------------
	BYTE	PATT
	 POIN2	Battle7thSaga_10_012
// 037   ----------------------------------------
	BYTE	PATT
	 POIN2	Battle7thSaga_10_009
// 038   ----------------------------------------
	BYTE	PATT
	 POIN2	Battle7thSaga_10_006
// 039   ----------------------------------------
	BYTE	PATT
	 POIN2	Battle7thSaga_10_007
// 040   ----------------------------------------
	BYTE	PATT
	 POIN2	Battle7thSaga_10_008
// 041   ----------------------------------------
	BYTE	PATT
	 POIN2	Battle7thSaga_10_009
// 042   ----------------------------------------
	BYTE	PATT
	 POIN2	Battle7thSaga_10_006
// 043   ----------------------------------------
	BYTE	PATT
	 POIN2	Battle7thSaga_10_011
// 044   ----------------------------------------
	BYTE	PATT
	 POIN2	Battle7thSaga_10_012
// 045   ----------------------------------------
	BYTE	PATT
	 POIN2	Battle7thSaga_10_009
// 046   ----------------------------------------
	BYTE	PATT
	 POIN2	Battle7thSaga_10_006
// 047   ----------------------------------------
	BYTE	PATT
	 POIN2	Battle7thSaga_10_007
// 048   ----------------------------------------
	BYTE	PATT
	 POIN2	Battle7thSaga_10_008
// 049   ----------------------------------------
	BYTE	PATT
	 POIN2	Battle7thSaga_10_009
// 050   ----------------------------------------
	BYTE	PATT
	 POIN2	Battle7thSaga_10_006
// 051   ----------------------------------------
	BYTE	PATT
	 POIN2	Battle7thSaga_10_011
// 052   ----------------------------------------
	BYTE	PATT
	 POIN2	Battle7thSaga_10_012
// 053   ----------------------------------------
Battle7thSaga_10_053:
	BYTE		N24     Gn0   v112
	BYTE	W24
	BYTE		N12     Gn1 
	BYTE	W24
	BYTE		        Fs1 
	BYTE	W24
	BYTE		        Gn0 
	BYTE	W12
	BYTE		N12   
	BYTE	W12
	BYTE	PEND
// 054   ----------------------------------------
Battle7thSaga_10_054:
	BYTE		N12     Gn1   v112
	BYTE	W12
	BYTE		        Gn0 
	BYTE	W12
	BYTE		N12   
	BYTE	W12
	BYTE		        Gn1 
	BYTE	W12
	BYTE		        Gn0 
	BYTE	W12
	BYTE		N12   
	BYTE	W12
	BYTE		N24     Gn1 
	BYTE	W24
	BYTE	PEND
// 055   ----------------------------------------
Battle7thSaga_10_055:
	BYTE		N24     An0   v112
	BYTE	W24
	BYTE		N12     An1 
	BYTE	W24
	BYTE		N12   
	BYTE	W24
	BYTE		        Fs0 
	BYTE	W12
	BYTE		N12   
	BYTE	W12
	BYTE	PEND
// 056   ----------------------------------------
Battle7thSaga_10_056:
	BYTE	W12
	BYTE		N12     Fs0   v112
	BYTE	W12
	BYTE		N24     An0 
	BYTE	W24
	BYTE		        Fs1 
	BYTE	W24
	BYTE		        An1 
	BYTE	W24
	BYTE	PEND
// 057   ----------------------------------------
Battle7thSaga_10_057:
	BYTE		N24     Bn0   v112
	BYTE	W24
	BYTE		N12     Bn1 
	BYTE	W24
	BYTE		N12   
	BYTE	W24
	BYTE		        Bn0 
	BYTE	W12
	BYTE		N12   
	BYTE	W12
	BYTE	PEND
// 058   ----------------------------------------
Battle7thSaga_10_058:
	BYTE		N12     Bn1   v112
	BYTE	W12
	BYTE		        Bn0 
	BYTE	W12
	BYTE		N12   
	BYTE	W12
	BYTE		        Bn1 
	BYTE	W12
	BYTE		        Bn0 
	BYTE	W12
	BYTE		N12   
	BYTE	W12
	BYTE		N24     An1 
	BYTE	W24
	BYTE	PEND
// 059   ----------------------------------------
	BYTE	PATT
	 POIN2	Battle7thSaga_10_057
// 060   ----------------------------------------
	BYTE	PATT
	 POIN2	Battle7thSaga_10_058
// 061   ----------------------------------------
	BYTE	PATT
	 POIN2	Battle7thSaga_10_053
// 062   ----------------------------------------
	BYTE	PATT
	 POIN2	Battle7thSaga_10_054
// 063   ----------------------------------------
Battle7thSaga_10_063:
	BYTE		N24     En0   v112
	BYTE	W24
	BYTE		N12     En1 
	BYTE	W24
	BYTE		N12   
	BYTE	W24
	BYTE		        En0 
	BYTE	W12
	BYTE		N12   
	BYTE	W12
	BYTE	PEND
// 064   ----------------------------------------
Battle7thSaga_10_064:
	BYTE	W12
	BYTE		N12     En0   v112
	BYTE	W12
	BYTE		N24     En1 
	BYTE	W24
	BYTE		        Fn0 
	BYTE	W24
	BYTE		N12     Fs1 
	BYTE	W12
	BYTE		N12   
	BYTE	W12
	BYTE	PEND
// 065   ----------------------------------------
	BYTE		N24     Fs0 
	BYTE	W24
	BYTE		N12     Fs1 
	BYTE	W24
	BYTE		N12   
	BYTE	W24
	BYTE		        Fs0 
	BYTE	W12
	BYTE		N12   
	BYTE	W12
// 066   ----------------------------------------
	BYTE		        Fs1 
	BYTE	W12
	BYTE		        Fs0 
	BYTE	W12
	BYTE		N12   
	BYTE	W12
	BYTE		        Fs1 
	BYTE	W12
	BYTE		N24     Fs0 
	BYTE	W24
	BYTE		        Fs1 
	BYTE	W24
// 067   ----------------------------------------
	BYTE		        Gn0 
	BYTE	W24
	BYTE		N12     Gn1 
	BYTE	W24
	BYTE		N12   
	BYTE	W24
	BYTE		        Gn0 
	BYTE	W12
	BYTE		N12   
	BYTE	W12
// 068   ----------------------------------------
	BYTE		        An1 
	BYTE	W12
	BYTE		N12   
	BYTE	W12
	BYTE		        An0 
	BYTE	W12
	BYTE		        An1 
	BYTE	W12
	BYTE		N12   
	BYTE	W12
	BYTE		N12   
	BYTE	W12
	BYTE		N24     An0 
	BYTE	W24
// 069   ----------------------------------------
	BYTE	PATT
	 POIN2	Battle7thSaga_10_053
// 070   ----------------------------------------
	BYTE	PATT
	 POIN2	Battle7thSaga_10_054
// 071   ----------------------------------------
	BYTE	PATT
	 POIN2	Battle7thSaga_10_055
// 072   ----------------------------------------
	BYTE	PATT
	 POIN2	Battle7thSaga_10_056
// 073   ----------------------------------------
	BYTE	PATT
	 POIN2	Battle7thSaga_10_057
// 074   ----------------------------------------
	BYTE	PATT
	 POIN2	Battle7thSaga_10_058
// 075   ----------------------------------------
	BYTE	PATT
	 POIN2	Battle7thSaga_10_057
// 076   ----------------------------------------
	BYTE	PATT
	 POIN2	Battle7thSaga_10_058
// 077   ----------------------------------------
	BYTE	PATT
	 POIN2	Battle7thSaga_10_053
// 078   ----------------------------------------
	BYTE	PATT
	 POIN2	Battle7thSaga_10_054
// 079   ----------------------------------------
	BYTE	PATT
	 POIN2	Battle7thSaga_10_063
// 080   ----------------------------------------
	BYTE	PATT
	 POIN2	Battle7thSaga_10_064
// 081   ----------------------------------------
	BYTE		N24     En0   v112
	BYTE	W24
	BYTE		N12     En1 
	BYTE	W24
	BYTE		N24   
	BYTE	W24
	BYTE		N12     En0 
	BYTE	W12
	BYTE		N12   
	BYTE	W12
// 082   ----------------------------------------
	BYTE		        Fs0 
	BYTE	W12
	BYTE		N12   
	BYTE	W12
	BYTE		        Fs1 
	BYTE	W24
	BYTE		N24   
	BYTE	W24
	BYTE		        Fs0 
	BYTE	W24
// 083   ----------------------------------------
	BYTE		        Gn0 
	BYTE	W24
	BYTE		N12     Gn1 
	BYTE	W24
	BYTE		N24   
	BYTE	W24
	BYTE		N12     Gn0 
	BYTE	W12
	BYTE		N12   
	BYTE	W12
// 084   ----------------------------------------
	BYTE		        An0 
	BYTE	W12
	BYTE		N12   
	BYTE	W12
	BYTE		        An1 
	BYTE	W24
	BYTE		N24   
	BYTE	W24
	BYTE		        An0 
	BYTE	W24
// 085   ----------------------------------------
	BYTE		N06     Bn1   v080
	BYTE	W12
	BYTE		        En2   v112
	BYTE	W12
	BYTE		        Dn2 
	BYTE	W12
	BYTE		        An1 
	BYTE	W12
	BYTE		        Dn2 
	BYTE	W12
	BYTE		        Cs2 
	BYTE	W12
	BYTE		        Cs2   v080
	BYTE	W12
	BYTE		        Bn1   v112
	BYTE	W12
// 086   ----------------------------------------
	BYTE		        An1 
	BYTE	W12
	BYTE		        Bn1   v080
	BYTE	W12
	BYTE		        Dn2   v112
	BYTE	W12
	BYTE		        Cs2 
	BYTE	W12
	BYTE		        Bn1   v080
	BYTE	W12
	BYTE		        Dn2   v112
	BYTE	W12
	BYTE		        Cs2 
	BYTE	W12
	BYTE		        Bn1   v080
	BYTE	W12
// 087   ----------------------------------------
	BYTE		        En2   v112
	BYTE	W12
	BYTE		        Dn2 
	BYTE	W12
	BYTE		        Cs2   v080
	BYTE	W12
	BYTE		        Bn1   v112
	BYTE	W12
	BYTE		        An1 
	BYTE	W12
	BYTE		        Bn1   v080
	BYTE	W12
	BYTE		        Dn2   v112
	BYTE	W12
	BYTE		        Cs2 
	BYTE	W12
// 088   ----------------------------------------
	BYTE		        Dn2   v080
	BYTE	W12
	BYTE		        Dn2   v112
	BYTE	W12
	BYTE		        Cs2 
	BYTE	W12
	BYTE		        Dn2 
	BYTE	W12
	BYTE		N06   
	BYTE	W12
	BYTE		        En2 
	BYTE	W12
	BYTE		        Fs1 
	BYTE	W12
	BYTE		N06   
	BYTE	W12
	BYTE	GoTo
	 POIN2	Battle7thSaga_10_B1
Battle7thSaga_10_B2:
// 089   ----------------------------------------
	BYTE	PATT
	 POIN2	Battle7thSaga_10_005
// 090   ----------------------------------------
	BYTE	PATT
	 POIN2	Battle7thSaga_10_006
// 091   ----------------------------------------
	BYTE	PATT
	 POIN2	Battle7thSaga_10_007
// 092   ----------------------------------------
	BYTE	PATT
	 POIN2	Battle7thSaga_10_008
// 093   ----------------------------------------
	BYTE	FINE

//**************** Track 11 (Midi-Chn.12) ****************//

Battle7thSaga_11:
	BYTE	KEYSH   Battle7thSaga_key+0
// 000   ----------------------------------------
	BYTE		VOICE   35
	BYTE		VOL     112*Battle7thSaga_mvl/mxv
	BYTE	W48
	BYTE	W48
// 001   ----------------------------------------
	BYTE	W96
// 002   ----------------------------------------
	BYTE	W96
// 003   ----------------------------------------
	BYTE	W96
// 004   ----------------------------------------
	BYTE	W96
Battle7thSaga_11_B1:
// 005   ----------------------------------------
Battle7thSaga_11_005:
	BYTE		N12     Fs4   v127
	BYTE	W12
	BYTE		        Dn4 
	BYTE	W12
	BYTE		        Bn3 
	BYTE	W12
	BYTE		        Gs4 
	BYTE	W24
	BYTE		        Fs4 
	BYTE	W12
	BYTE		        En4 
	BYTE	W12
	BYTE		        An4 
	BYTE	W12
	BYTE	PEND
// 006   ----------------------------------------
Battle7thSaga_11_006:
	BYTE	W12
	BYTE		N12     Gs4   v127
	BYTE	W12
	BYTE		        Fs4 
	BYTE	W12
	BYTE		        En4 
	BYTE	W12
	BYTE		TIE     Fs4 
	BYTE	W48
	BYTE	PEND
// 007   ----------------------------------------
	BYTE	W96
	BYTE		EOT   
// 008   ----------------------------------------
Battle7thSaga_11_008:
	BYTE	W48
	BYTE	W24
	BYTE		N12     Cs4   v127
	BYTE	W12
	BYTE		        Dn4 
	BYTE	W12
	BYTE	PEND
// 009   ----------------------------------------
Battle7thSaga_11_009:
	BYTE		N12     Cs4   v127
	BYTE	W12
	BYTE		        Bn3 
	BYTE	W12
	BYTE		        An3 
	BYTE	W12
	BYTE		N36     En4 
	BYTE	W36
	BYTE		N12     Cs4 
	BYTE	W12
	BYTE		N72     An3 
	BYTE	W12
	BYTE	PEND
// 010   ----------------------------------------
Battle7thSaga_11_010:
	BYTE	W72
	BYTE		N24     En3   v127
	BYTE	W24
	BYTE	PEND
// 011   ----------------------------------------
Battle7thSaga_11_011:
	BYTE		N96     Fs3   v127
	BYTE	W96
	BYTE	PEND
// 012   ----------------------------------------
	BYTE	W96
// 013   ----------------------------------------
Battle7thSaga_11_013:
	BYTE		N12     Fs4   v127
	BYTE	W12
	BYTE		        Dn4 
	BYTE	W12
	BYTE		        Bn3 
	BYTE	W12
	BYTE		        Gs4 
	BYTE	W24
	BYTE		        Fs4 
	BYTE	W12
	BYTE		        En4 
	BYTE	W12
	BYTE		        An4 
	BYTE	W12
	BYTE	PEND
// 014   ----------------------------------------
	BYTE	PATT
	 POIN2	Battle7thSaga_11_006
// 015   ----------------------------------------
	BYTE	W96
	BYTE		EOT     Fs4 
// 016   ----------------------------------------
Battle7thSaga_11_016:
	BYTE	W48
	BYTE	W24
	BYTE		N12     Bn4   v127
	BYTE	W12
	BYTE		N12   
	BYTE	W12
	BYTE	PEND
// 017   ----------------------------------------
Battle7thSaga_11_017:
	BYTE		N12     Gs4   v127
	BYTE	W12
	BYTE		        An4 
	BYTE	W12
	BYTE		        Gs4 
	BYTE	W12
	BYTE		N36     En4 
	BYTE	W36
	BYTE		N12     Gs4 
	BYTE	W12
	BYTE		TIE     Fs4 
	BYTE	W12
	BYTE	PEND
// 018   ----------------------------------------
	BYTE	W96
	BYTE		EOT   
// 019   ----------------------------------------
Battle7thSaga_11_019:
	BYTE		N06     Bn0   v064
	BYTE	W06
	BYTE		        Fs1   v068
	BYTE	W06
	BYTE		        An1 
	BYTE	W06
	BYTE		        En1 
	BYTE	W06
	BYTE		        An1   v072
	BYTE	W06
	BYTE		        Bn1 
	BYTE	W06
	BYTE		        An1   v076
	BYTE	W06
	BYTE		        Bn1 
	BYTE	W06
	BYTE		        En2 
	BYTE	W06
	BYTE		        Bn1   v080
	BYTE	W06
	BYTE		        Fs2 
	BYTE	W06
	BYTE		        An2 
	BYTE	W06
	BYTE		        En2   v084
	BYTE	W06
	BYTE		        An2 
	BYTE	W06
	BYTE		        Bn2   v088
	BYTE	W06
	BYTE		        An2 
	BYTE	W06
	BYTE	PEND
// 020   ----------------------------------------
Battle7thSaga_11_020:
	BYTE		N06     Bn2   v088
	BYTE	W06
	BYTE		        En3   v092
	BYTE	W06
	BYTE		        Bn2 
	BYTE	W06
	BYTE		        Fs3 
	BYTE	W06
	BYTE		        An3   v096
	BYTE	W06
	BYTE		        En3 
	BYTE	W06
	BYTE		        An3   v100
	BYTE	W06
	BYTE		        Bn3 
	BYTE	W06
	BYTE		        An3 
	BYTE	W06
	BYTE		        Bn3   v104
	BYTE	W06
	BYTE		        En4 
	BYTE	W06
	BYTE		        Bn3 
	BYTE	W06
	BYTE		        En4   v108
	BYTE	W06
	BYTE		        Fs4 
	BYTE	W06
	BYTE		        Bn4   v112
	BYTE	W06
	BYTE		        En5 
	BYTE	W06
	BYTE	PEND
// 021   ----------------------------------------
	BYTE	W96
// 022   ----------------------------------------
	BYTE	W96
// 023   ----------------------------------------
	BYTE	W96
// 024   ----------------------------------------
	BYTE	W96
// 025   ----------------------------------------
	BYTE	W96
// 026   ----------------------------------------
	BYTE	W96
// 027   ----------------------------------------
	BYTE	W96
// 028   ----------------------------------------
	BYTE	W96
// 029   ----------------------------------------
	BYTE	PATT
	 POIN2	Battle7thSaga_11_005
// 030   ----------------------------------------
	BYTE	PATT
	 POIN2	Battle7thSaga_11_006
// 031   ----------------------------------------
	BYTE	W96
	BYTE		EOT     Fs4 
// 032   ----------------------------------------
	BYTE	PATT
	 POIN2	Battle7thSaga_11_008
// 033   ----------------------------------------
	BYTE	PATT
	 POIN2	Battle7thSaga_11_009
// 034   ----------------------------------------
	BYTE	PATT
	 POIN2	Battle7thSaga_11_010
// 035   ----------------------------------------
	BYTE	PATT
	 POIN2	Battle7thSaga_11_011
// 036   ----------------------------------------
	BYTE	W96
// 037   ----------------------------------------
	BYTE	PATT
	 POIN2	Battle7thSaga_11_013
// 038   ----------------------------------------
	BYTE	PATT
	 POIN2	Battle7thSaga_11_006
// 039   ----------------------------------------
	BYTE	W96
	BYTE		EOT     Fs4 
// 040   ----------------------------------------
	BYTE	PATT
	 POIN2	Battle7thSaga_11_016
// 041   ----------------------------------------
	BYTE	PATT
	 POIN2	Battle7thSaga_11_017
// 042   ----------------------------------------
	BYTE	W96
	BYTE		EOT     Fs4 
// 043   ----------------------------------------
	BYTE	PATT
	 POIN2	Battle7thSaga_11_019
// 044   ----------------------------------------
	BYTE	PATT
	 POIN2	Battle7thSaga_11_020
// 045   ----------------------------------------
	BYTE	W96
// 046   ----------------------------------------
	BYTE	W96
// 047   ----------------------------------------
	BYTE	W96
// 048   ----------------------------------------
	BYTE	W96
// 049   ----------------------------------------
	BYTE	W96
// 050   ----------------------------------------
	BYTE	W96
// 051   ----------------------------------------
	BYTE	W96
// 052   ----------------------------------------
	BYTE	W96
// 053   ----------------------------------------
Battle7thSaga_11_053:
	BYTE	W12
	BYTE		N12     Gn4   v127
	BYTE	W12
	BYTE		        An4 
	BYTE	W12
	BYTE		        Gn3 
	BYTE	W12
	BYTE		        An3 
	BYTE	W12
	BYTE		        Dn4 
	BYTE	W12
	BYTE		        Gn4 
	BYTE	W12
	BYTE		        Fs4 
	BYTE	W12
	BYTE	PEND
// 054   ----------------------------------------
Battle7thSaga_11_054:
	BYTE		N12     En4   v127
	BYTE	W12
	BYTE		        Gn3 
	BYTE	W12
	BYTE		        Dn4 
	BYTE	W12
	BYTE		N24     En4 
	BYTE	W24
	BYTE		N12     Cs4 
	BYTE	W12
	BYTE		        Bn3 
	BYTE	W12
	BYTE		        An3 
	BYTE	W12
	BYTE	PEND
// 055   ----------------------------------------
Battle7thSaga_11_055:
	BYTE		N24     En3   v127
	BYTE	W24
	BYTE		N12     Bn3 
	BYTE	W12
	BYTE		N24     Dn3 
	BYTE	W24
	BYTE		N12     An3 
	BYTE	W12
	BYTE		N24     Cs3 
	BYTE	W24
	BYTE	PEND
// 056   ----------------------------------------
Battle7thSaga_11_056:
	BYTE		N12     An3   v127
	BYTE	W12
	BYTE		N24     Bn2 
	BYTE	W24
	BYTE		N12     Fs3 
	BYTE	W12
	BYTE		N24     An2 
	BYTE	W24
	BYTE		        Fs2 
	BYTE	W24
	BYTE	PEND
// 057   ----------------------------------------
Battle7thSaga_11_057:
	BYTE		TIE     Bn2   v127
	BYTE	W96
	BYTE	PEND
// 058   ----------------------------------------
	BYTE	W96
	BYTE		EOT   
// 059   ----------------------------------------
	BYTE	W48
	BYTE	W48
// 060   ----------------------------------------
	BYTE	W96
// 061   ----------------------------------------
	BYTE	PATT
	 POIN2	Battle7thSaga_11_053
// 062   ----------------------------------------
	BYTE	PATT
	 POIN2	Battle7thSaga_11_054
// 063   ----------------------------------------
	BYTE	PATT
	 POIN2	Battle7thSaga_11_055
// 064   ----------------------------------------
	BYTE	PATT
	 POIN2	Battle7thSaga_11_056
// 065   ----------------------------------------
Battle7thSaga_11_065:
	BYTE		N96     Bn2   v127
	BYTE	W96
	BYTE	PEND
// 066   ----------------------------------------
	BYTE		        Cs3 
	BYTE	W96
// 067   ----------------------------------------
	BYTE		        Dn3 
	BYTE	W96
// 068   ----------------------------------------
	BYTE		        En3 
	BYTE	W96
// 069   ----------------------------------------
	BYTE	W12
	BYTE		N12     Gn4 
	BYTE	W12
	BYTE		        An4 
	BYTE	W12
	BYTE		        Gn3 
	BYTE	W12
	BYTE		        An3 
	BYTE	W12
	BYTE		        Dn4 
	BYTE	W12
	BYTE		        Gn4 
	BYTE	W12
	BYTE		        Fs4 
	BYTE	W12
// 070   ----------------------------------------
	BYTE	PATT
	 POIN2	Battle7thSaga_11_054
// 071   ----------------------------------------
	BYTE	PATT
	 POIN2	Battle7thSaga_11_055
// 072   ----------------------------------------
	BYTE	PATT
	 POIN2	Battle7thSaga_11_056
// 073   ----------------------------------------
	BYTE	PATT
	 POIN2	Battle7thSaga_11_057
// 074   ----------------------------------------
	BYTE	W96
	BYTE		EOT     Bn2 
// 075   ----------------------------------------
	BYTE	W48
	BYTE	W48
// 076   ----------------------------------------
	BYTE	W96
// 077   ----------------------------------------
	BYTE	PATT
	 POIN2	Battle7thSaga_11_053
// 078   ----------------------------------------
	BYTE	PATT
	 POIN2	Battle7thSaga_11_054
// 079   ----------------------------------------
	BYTE	PATT
	 POIN2	Battle7thSaga_11_055
// 080   ----------------------------------------
	BYTE	PATT
	 POIN2	Battle7thSaga_11_056
// 081   ----------------------------------------
	BYTE	PATT
	 POIN2	Battle7thSaga_11_065
// 082   ----------------------------------------
	BYTE		N96     Cs3   v127
	BYTE	W96
// 083   ----------------------------------------
	BYTE		        Dn3 
	BYTE	W96
// 084   ----------------------------------------
	BYTE		        En3 
	BYTE	W96
// 085   ----------------------------------------
	BYTE	W96
// 086   ----------------------------------------
	BYTE	W96
// 087   ----------------------------------------
	BYTE	W96
// 088   ----------------------------------------
	BYTE	W96
	BYTE	GoTo
	 POIN2	Battle7thSaga_11_B1
Battle7thSaga_11_B2:
// 089   ----------------------------------------
	BYTE	PATT
	 POIN2	Battle7thSaga_11_005
// 090   ----------------------------------------
	BYTE	PATT
	 POIN2	Battle7thSaga_11_006
// 091   ----------------------------------------
	BYTE	W96
	BYTE		EOT     Fs4 
// 092   ----------------------------------------
	BYTE	PATT
	 POIN2	Battle7thSaga_11_008
// 093   ----------------------------------------
	BYTE	FINE

//******************************************************//
	ALIGN 4

Battle7thSaga:
	BYTE	11	// NumTrks
	BYTE	0	// NumBlks
	BYTE	Battle7thSaga_pri	// Priority
	BYTE	Battle7thSaga_rev	// Reverb.

	POIN2	Battle7thSaga_grp

	POIN2	Battle7thSaga_1
	POIN2	Battle7thSaga_2
	POIN2	Battle7thSaga_3
	POIN2	Battle7thSaga_4
	POIN2	Battle7thSaga_5
	POIN2	Battle7thSaga_6
	POIN2	Battle7thSaga_7
	POIN2	Battle7thSaga_8
	POIN2	Battle7thSaga_9
	POIN2	Battle7thSaga_10
	POIN2	Battle7thSaga_11

	
