//Event file generated from Sappy .s format.
	#include "MPlayDef.event"

	#define	BelovedOne_grp  voicegroup000
	#define	BelovedOne_pri  0
	#define	BelovedOne_rev  0
	#define	BelovedOne_mvl  127
	#define	BelovedOne_key  0
	#define	BelovedOne_tbs  1
	#define	BelovedOne_exg  0
	#define	BelovedOne_cmp  1

	// .rodata
	//	BelovedOne
	ALIGN 4


//**************** Track 1 (Midi-Chn.0) ****************//

BelovedOne_001:
// 000   ----------------------------------------
 BYTE   KEYSH   BelovedOne_key+0
 BYTE   TEMPO   38*BelovedOne_tbs/2
 BYTE   W60
Label_0_01555EA9:
 BYTE   W02
 BYTE   VOICE   52
 BYTE   VOL   50*BelovedOne_mvl/mxv
 BYTE   PAN   c_v+0
 BYTE   N17  Gs3  v092
 BYTE   W30
 BYTE   N03  As3
 BYTE   W04
// 001   ----------------------------------------
 BYTE   W02
 BYTE   Fs3  v084
 BYTE   W06
 BYTE   Ds3
 BYTE   W06
 BYTE   N17  Gs3
 BYTE   W24
 BYTE   N05  Gs3  v092
 BYTE   W06
 BYTE   As3
 BYTE   W06
 BYTE   Bn3
 BYTE   W06
 BYTE   Ds4
 BYTE   W06
 BYTE   Fs4
 BYTE   W06
 BYTE   En4
 BYTE   W06
 BYTE   Ds4
 BYTE   W06
 BYTE   N17  Cs4
 BYTE   W16
// 002   ----------------------------------------
 BYTE   W02
 BYTE   N11  As3
 BYTE   W12
 BYTE   N19  Cs4
 BYTE   W24
 BYTE   N05  Bn4  v084
 BYTE   W06
 BYTE   As4
 BYTE   W06
 BYTE   Fs4
 BYTE   W06
 BYTE   Ds4
 BYTE   W06
 BYTE   N17  Fs4  v092
 BYTE   W18
 BYTE   N05  Gs4
 BYTE   W06
 BYTE   N28  En4
 BYTE   W10
// 003   ----------------------------------------
 BYTE   W24
 BYTE   W02
 BYTE   N11  Ds4
 BYTE   W12
 BYTE   N17  Cs4
 BYTE   W19
 BYTE   N04  As3
 BYTE   W05
 BYTE   N23  Cs4
 BYTE   W24
 BYTE   N36  Bn3  v084
 BYTE   W10
// 004   ----------------------------------------
 BYTE   W48
 BYTE   W01
 BYTE   N05  Bn2  v076
 BYTE   W06
 BYTE   N04  Ds3
 BYTE   W04
 BYTE   GoTo
  POIN2 Label_0_01555EA9
 BYTE   FINE

//**************** Track 2 (Midi-Chn.1) ****************//

BelovedOne_002:
// 000   ----------------------------------------
 BYTE   KEYSH   BelovedOne_key+0
 BYTE   W60
Label_1_01555F13:
 BYTE   W06
 BYTE   VOICE   1
 BYTE   VOL   37*BelovedOne_mvl/mxv
 BYTE   PAN   c_v+0
 BYTE   N17  Gs3  v092
 BYTE   W30
// 001   ----------------------------------------
 BYTE   N03  As3
 BYTE   W06
 BYTE   Fs3  v084
 BYTE   W06
 BYTE   Ds3
 BYTE   W06
 BYTE   N17  Gs3
 BYTE   W24
 BYTE   N05  Gs3  v092
 BYTE   W06
 BYTE   As3
 BYTE   W06
 BYTE   Bn3
 BYTE   W06
 BYTE   Ds4
 BYTE   W06
 BYTE   Fs4
 BYTE   W06
 BYTE   En4
 BYTE   W06
 BYTE   Ds4
 BYTE   W06
 BYTE   N17  Cs4
 BYTE   W12
// 002   ----------------------------------------
 BYTE   W06
 BYTE   N11  As3
 BYTE   W12
 BYTE   N19  Cs4
 BYTE   W24
 BYTE   N05  Bn4  v084
 BYTE   W06
 BYTE   As4
 BYTE   W06
 BYTE   Fs4
 BYTE   W06
 BYTE   Ds4
 BYTE   W06
 BYTE   N17  Fs4  v092
 BYTE   W18
 BYTE   N05  Gs4
 BYTE   W06
 BYTE   N28  En4
 BYTE   W06
// 003   ----------------------------------------
 BYTE   W30
 BYTE   N11  Ds4
 BYTE   W12
 BYTE   N17  Cs4
 BYTE   W19
 BYTE   N04  As3
 BYTE   W05
 BYTE   N23  Cs4
 BYTE   W24
 BYTE   N36  Bn3  v084
 BYTE   W06
// 004   ----------------------------------------
 BYTE   W52
 BYTE   W01
 BYTE   N05  Bn2  v076
 BYTE   W06
 BYTE   GoTo
  POIN2 Label_1_01555F13
 BYTE   FINE

//**************** Track 3 (Midi-Chn.2) ****************//

BelovedOne_003:
// 000   ----------------------------------------
 BYTE   KEYSH   BelovedOne_key+0
 BYTE   W60
Label_2_01555F77:
 BYTE   W01
 BYTE   VOICE   0
 BYTE   VOL   62*BelovedOne_mvl/mxv
 BYTE   PAN   c_v-25
 BYTE   N20  En2  v084
 BYTE   W24
 BYTE   N18  Ds2
 BYTE   W11
// 001   ----------------------------------------
 BYTE   W13
 BYTE   N19  Gs2
 BYTE   W24
 BYTE   N09  Gs2  v072
 BYTE   W12
 BYTE   N10  Fs2
 BYTE   W12
 BYTE   N21  En2  v084
 BYTE   W24
 BYTE   Ds2
 BYTE   W11
// 002   ----------------------------------------
 BYTE   W13
 BYTE   N32  Gs2
 BYTE   W42
 BYTE   N03  Fs2  v060
 BYTE   W06
 BYTE   N42  En2  v084
 BYTE   W32
 BYTE   W03
// 003   ----------------------------------------
 BYTE   W13
 BYTE   Fs2  v080
 BYTE   W48
 BYTE   N68  Gs2  v076
 BYTE   W32
 BYTE   W03
// 004   ----------------------------------------
 BYTE   W56
 BYTE   W03
 BYTE   GoTo
  POIN2 Label_2_01555F77
 BYTE   FINE

//**************** Track 4 (Midi-Chn.3) ****************//

BelovedOne_004:
// 000   ----------------------------------------
 BYTE   KEYSH   BelovedOne_key+0
 BYTE   W60
Label_3_01555FB7:
 BYTE   W07
 BYTE   VOICE   0
 BYTE   VOL   62*BelovedOne_mvl/mxv
 BYTE   PAN   c_v-25
 BYTE   N12  Gs2  v064
 BYTE   W24
 BYTE   Fs2
 BYTE   W05
// 001   ----------------------------------------
 BYTE   W19
 BYTE   N08  Bn2
 BYTE   W24
 BYTE   N06  Bn2  v060
 BYTE   W24
 BYTE   N16  Gs2  v064
 BYTE   W24
 BYTE   Fs2
 BYTE   W05
// 002   ----------------------------------------
 BYTE   W19
 BYTE   Bn2
 BYTE   W30
 BYTE   N07
 BYTE   W18
 BYTE   N23  Gs2
 BYTE   W28
 BYTE   W01
// 003   ----------------------------------------
 BYTE   W07
 BYTE   N05  Gs2  v060
 BYTE   W12
 BYTE   N24  As2  v064
 BYTE   W36
 BYTE   N05  As2  v060
 BYTE   W12
 BYTE   N28  Bn2  v064
 BYTE   W28
 BYTE   W01
// 004   ----------------------------------------
 BYTE   W01
 BYTE   N32  Bn3  v060
 BYTE   W56
 BYTE   W02
 BYTE   GoTo
  POIN2 Label_3_01555FB7
 BYTE   FINE

//**************** Track 5 (Midi-Chn.4) ****************//

BelovedOne_005:
// 000   ----------------------------------------
 BYTE   KEYSH   BelovedOne_key+0
 BYTE   W08
 BYTE   VOICE   52
 BYTE   PAN   c_v+0
 BYTE   VOL   35*BelovedOne_mvl/mxv
 BYTE   N06  Gs4  v088
 BYTE   W01
 BYTE   VOL   39*BelovedOne_mvl/mxv
 BYTE   W01
 BYTE   Fs1
 BYTE   W01
 BYTE   As1
 BYTE   W01
 BYTE   Dn2
 BYTE   W03
 BYTE   N05  Fs4  v084
 BYTE   W06
 BYTE   Cs4
 BYTE   W06
 BYTE   En4
 BYTE   W06
 BYTE   Ds4
 BYTE   W06
 BYTE   Bn3  v080
 BYTE   W07
 BYTE   N06  Cs4
 BYTE   W07
 BYTE   N07  Fs3  v084
 BYTE   W07
Label_4_01556026:
 BYTE   W13
 BYTE   VOICE   0
 BYTE   VOL   62*BelovedOne_mvl/mxv
 BYTE   PAN   c_v-25
 BYTE   N09  Bn2  v064
 BYTE   W23
// 001   ----------------------------------------
 BYTE   W01
 BYTE   N06  As2
 BYTE   W30
 BYTE   N05  Bn2  v060
 BYTE   W24
 BYTE   N05
 BYTE   W18
 BYTE   N11  Bn2  v064
 BYTE   W23
// 002   ----------------------------------------
 BYTE   W01
 BYTE   N08  As2
 BYTE   W24
 BYTE   N07  Ds3
 BYTE   W18
 BYTE   N07
 BYTE   W30
 BYTE   N17  Bn2
 BYTE   W23
// 003   ----------------------------------------
 BYTE   W01
 BYTE   N11  Bn2  v060
 BYTE   W24
 BYTE   N17  Cs3  v064
 BYTE   W24
 BYTE   N11  Cs3  v060
 BYTE   W24
 BYTE   N28  Ds3  v064
 BYTE   W23
// 004   ----------------------------------------
 BYTE   W07
 BYTE   N24  Ds4  v060
 BYTE   W52
 BYTE   GoTo
  POIN2 Label_4_01556026
 BYTE   FINE

//**************** Track 6 (Midi-Chn.5) ****************//

BelovedOne_006:
// 000   ----------------------------------------
 BYTE   KEYSH   BelovedOne_key+0
 BYTE   W12
 BYTE   VOICE   1
 BYTE   PAN   c_v+34
 BYTE   VOL   27*BelovedOne_mvl/mxv
 BYTE   N06  Gs4  v088
 BYTE   W01
 BYTE   VOL   30*BelovedOne_mvl/mxv
 BYTE   W01
 BYTE   Gs0
 BYTE   W01
 BYTE   Bn0
 BYTE   W01
 BYTE   Cs1
 BYTE   W03
 BYTE   N05  Fs4  v084
 BYTE   W06
 BYTE   Cs4
 BYTE   W06
 BYTE   En4
 BYTE   W06
 BYTE   Ds4
 BYTE   W06
 BYTE   Bn3  v080
 BYTE   W07
 BYTE   N06  Cs4
 BYTE   W07
 BYTE   N03  Fs3  v084
 BYTE   W03
Label_5_01556092:
 BYTE   W19
 BYTE   VOICE   0
 BYTE   VOL   62*BelovedOne_mvl/mxv
 BYTE   PAN   c_v-14
 BYTE   N04  Ds3  v060
 BYTE   W17
// 001   ----------------------------------------
 BYTE   W07
 BYTE   N07  Cs3
 BYTE   W18
 BYTE   N05  Ds3  v064
 BYTE   W54
 BYTE   N04  Ds3  v060
 BYTE   W17
// 002   ----------------------------------------
 BYTE   W07
 BYTE   N07  Cs3
 BYTE   W24
 BYTE   N17  Fs3
 BYTE   W48
 BYTE   N09  Ds3
 BYTE   W12
 BYTE   N19
 BYTE   W05
// 003   ----------------------------------------
 BYTE   W30
 BYTE   W01
 BYTE   N08  En3
 BYTE   W12
 BYTE   N15
 BYTE   W36
 BYTE   N28  Gs3
 BYTE   W17
// 004   ----------------------------------------
 BYTE   W13
 BYTE   N21  Gs4
 BYTE   W44
 BYTE   W02
 BYTE   GoTo
  POIN2 Label_5_01556092
 BYTE   FINE

//**************** Track 7 (Midi-Chn.6) ****************//

BelovedOne_007:
// 000   ----------------------------------------
 BYTE   KEYSH   BelovedOne_key+0
 BYTE   VOICE   1
 BYTE   PAN   c_v+25
 BYTE   W08
 BYTE   VOL   47*BelovedOne_mvl/mxv
 BYTE   N06  Gs4  v088
 BYTE   W01
 BYTE   VOL   50*BelovedOne_mvl/mxv
 BYTE   W01
 BYTE   Fn2
 BYTE   W01
 BYTE   Gs2
 BYTE   W01
 BYTE   Bn2
 BYTE   W03
 BYTE   N05  Fs4  v084
 BYTE   W06
 BYTE   Cs4  v072
 BYTE   W06
 BYTE   En4  v084
 BYTE   W06
 BYTE   Ds4
 BYTE   W06
 BYTE   Bn3  v080
 BYTE   W07
 BYTE   N06  Cs4
 BYTE   W07
 BYTE   N07  Fs3  v072
 BYTE   W07
Label_6_015560F8:
 BYTE   W01
 BYTE   VOICE   1
 BYTE   VOL   62*BelovedOne_mvl/mxv
 BYTE   PAN   c_v+25
 BYTE   N17  Gs3  v092
 BYTE   W30
 BYTE   N03  As3
 BYTE   W05
// 001   ----------------------------------------
 BYTE   W01
 BYTE   Fs3  v084
 BYTE   W06
 BYTE   Ds3
 BYTE   W06
 BYTE   N17  Gs3
 BYTE   W24
 BYTE   N05  Gs3  v092
 BYTE   W06
 BYTE   As3
 BYTE   W06
 BYTE   Bn3
 BYTE   W06
 BYTE   Ds4
 BYTE   W06
 BYTE   Fs4
 BYTE   W06
 BYTE   En4
 BYTE   W06
 BYTE   Ds4
 BYTE   W06
 BYTE   N17  Cs4
 BYTE   W17
// 002   ----------------------------------------
 BYTE   W01
 BYTE   N11  As3
 BYTE   W12
 BYTE   N19  Cs4
 BYTE   W24
 BYTE   N05  Bn4  v084
 BYTE   W06
 BYTE   As4
 BYTE   W06
 BYTE   Fs4
 BYTE   W06
 BYTE   Ds4
 BYTE   W06
 BYTE   N17  Fs4  v092
 BYTE   W18
 BYTE   N05  Gs4
 BYTE   W06
 BYTE   N28  En4
 BYTE   W11
// 003   ----------------------------------------
 BYTE   W24
 BYTE   W01
 BYTE   N11  Ds4
 BYTE   W12
 BYTE   N17  Cs4
 BYTE   W19
 BYTE   N04  As3
 BYTE   W05
 BYTE   N23  Cs4
 BYTE   W24
 BYTE   N36  Bn3  v084
 BYTE   W11
// 004   ----------------------------------------
 BYTE   W48
 BYTE   N05  Bn2  v076
 BYTE   W06
 BYTE   Ds3
 BYTE   W05
 BYTE   GoTo
  POIN2 Label_6_015560F8
 BYTE   FINE

//******************************************************//
	ALIGN 4

BelovedOne:
	BYTE	7	// NumTrks
	BYTE	0	// NumBlks
	BYTE	BelovedOne_pri	// Priority
	BYTE	BelovedOne_rev	// Reverb.
    
	POIN2	BelovedOne_grp
    
	POIN2	BelovedOne_001
	POIN2	BelovedOne_002
	POIN2	BelovedOne_003
	POIN2	BelovedOne_004
	POIN2	BelovedOne_005
	POIN2	BelovedOne_006
	POIN2	BelovedOne_007

	
