//Event file generated from Sappy .s format.
	#include "MPlayDef.event"

	#define	BonusStageDKC_grp  voicegroup000
	#define	BonusStageDKC_pri  0
	#define	BonusStageDKC_rev  0
	#define	BonusStageDKC_mvl  40
	#define	BonusStageDKC_key  0
	#define	BonusStageDKC_tbs  1
	#define	BonusStageDKC_exg  0
	#define	BonusStageDKC_cmp  1

	// .rodata
	//	BonusStageDKC
	ALIGN 4

//**************** Track 1 (Midi-Chn.1) ****************//

BonusStageDKC_1:
	BYTE	KEYSH   BonusStageDKC_key+0
// 000   ----------------------------------------
	BYTE	TEMPO   110*BonusStageDKC_tbs/2
	BYTE		VOICE   75
	BYTE		VOL     127*BonusStageDKC_mvl/mxv
	BYTE		PAN     c_v+24
	BYTE	W92
	BYTE	W01
BonusStageDKC_1_B1:
	BYTE	W03
// 001   ----------------------------------------
	BYTE	W12
	BYTE		N06     Gn3   v100
	BYTE	W06
	BYTE		N06   
	BYTE	W06
	BYTE		        Bn3 
	BYTE	W06
	BYTE		N09     Cn4 
	BYTE	W12
	BYTE		        Dn4 
	BYTE	W54
// 002   ----------------------------------------
	BYTE	W12
	BYTE		N06     En4 
	BYTE	W06
	BYTE		N06   
	BYTE	W06
	BYTE		        Fn4 
	BYTE	W06
	BYTE		        En4 
	BYTE	W12
	BYTE		N09     Cn4 
	BYTE	W54
// 003   ----------------------------------------
	BYTE	W06
	BYTE		        En4 
	BYTE	W12
	BYTE		N06   
	BYTE	W06
	BYTE		N09   
	BYTE	W12
	BYTE		N06     Dn4 
	BYTE	W06
	BYTE		        Cn4 
	BYTE	W12
	BYTE		N09     Dn4 
	BYTE	W12
	BYTE		N06   
	BYTE	W06
	BYTE		N09   
	BYTE	W12
	BYTE		N06     Cn4 
	BYTE	W06
	BYTE		        Bn3 
	BYTE	W06
// 004   ----------------------------------------
	BYTE		N09     Cn4 
	BYTE	W12
	BYTE		N06   
	BYTE	W06
	BYTE		N06   
	BYTE	W06
	BYTE		        Dn4 
	BYTE	W06
	BYTE		        En4 
	BYTE	W06
	BYTE		        Dn4 
	BYTE	W06
	BYTE		N09     Cn4 
	BYTE	W54
// 005   ----------------------------------------
	BYTE	W96
// 006   ----------------------------------------
	BYTE	W96
// 007   ----------------------------------------
	BYTE	W96
// 008   ----------------------------------------
	BYTE	W96
// 009   ----------------------------------------
	BYTE	W96
// 010   ----------------------------------------
	BYTE	W96
// 011   ----------------------------------------
	BYTE	W96
// 012   ----------------------------------------
	BYTE	W92
	BYTE	W01
	BYTE	GoTo
	 POIN2	BonusStageDKC_1_B1
BonusStageDKC_1_B2:
	BYTE	W03
// 013   ----------------------------------------
	BYTE	FINE

//**************** Track 2 (Midi-Chn.2) ****************//

BonusStageDKC_2:
	BYTE	KEYSH   BonusStageDKC_key+0
// 000   ----------------------------------------
	BYTE		VOICE   32
	BYTE		VOL     127*BonusStageDKC_mvl/mxv
	BYTE		PAN     c_v+0
	BYTE		N18     Fn1   v100
	BYTE	W18
	BYTE		N06   
	BYTE	W06
	BYTE		N18     Gn1 
	BYTE	W18
	BYTE		N06   
	BYTE	W06
	BYTE		N12     Cn1 
	BYTE	W12
	BYTE		N06     Cn2 
	BYTE	W06
	BYTE		N06   
	BYTE	W06
	BYTE		N18   
	BYTE	W18
	BYTE		N06     Gn1 
	BYTE	W03
BonusStageDKC_2_B1:
	BYTE	W03
// 001   ----------------------------------------
	BYTE		N18     Cn1   v100
	BYTE	W18
	BYTE		N06   
	BYTE	W06
	BYTE		N18   
	BYTE	W18
	BYTE		N06   
	BYTE	W06
	BYTE		N18     Gn1 
	BYTE	W18
	BYTE		N06   
	BYTE	W06
	BYTE		N12   
	BYTE	W12
	BYTE		        Gs1 
	BYTE	W12
// 002   ----------------------------------------
	BYTE		N18     An1 
	BYTE	W18
	BYTE		N06   
	BYTE	W06
	BYTE		N18   
	BYTE	W18
	BYTE		N06   
	BYTE	W06
	BYTE		N18     Fn1 
	BYTE	W18
	BYTE		N06   
	BYTE	W06
	BYTE		N12   
	BYTE	W12
	BYTE		        Gn1 
	BYTE	W12
// 003   ----------------------------------------
BonusStageDKC_2_003:
	BYTE		N18     Cn1   v100
	BYTE	W18
	BYTE		N06   
	BYTE	W06
	BYTE		N18   
	BYTE	W18
	BYTE		N06   
	BYTE	W06
	BYTE		N18     Gn1 
	BYTE	W18
	BYTE		N06   
	BYTE	W06
	BYTE		N12   
	BYTE	W12
	BYTE		N12   
	BYTE	W12
	BYTE	PEND
// 004   ----------------------------------------
BonusStageDKC_2_004:
	BYTE		N18     Fn1   v100
	BYTE	W18
	BYTE		N06   
	BYTE	W06
	BYTE		N18     Gn1 
	BYTE	W18
	BYTE		N06   
	BYTE	W06
	BYTE		N12     Cn1 
	BYTE	W12
	BYTE		N06     Cn2 
	BYTE	W06
	BYTE		N06   
	BYTE	W06
	BYTE		N18   
	BYTE	W18
	BYTE		N06     Gn1 
	BYTE	W06
	BYTE	PEND
// 005   ----------------------------------------
	BYTE		N18     Cn1 
	BYTE	W18
	BYTE		N06   
	BYTE	W06
	BYTE		N18   
	BYTE	W18
	BYTE		N06   
	BYTE	W06
	BYTE		N18     En1 
	BYTE	W18
	BYTE		N06   
	BYTE	W06
	BYTE		N12   
	BYTE	W12
	BYTE		N12   
	BYTE	W12
// 006   ----------------------------------------
	BYTE		N18     Fn1 
	BYTE	W18
	BYTE		N06   
	BYTE	W06
	BYTE		N18   
	BYTE	W18
	BYTE		N06   
	BYTE	W06
	BYTE		N18     Fs1 
	BYTE	W18
	BYTE		N06   
	BYTE	W06
	BYTE		N12   
	BYTE	W12
	BYTE		N12   
	BYTE	W12
// 007   ----------------------------------------
	BYTE	PATT
	 POIN2	BonusStageDKC_2_003
// 008   ----------------------------------------
	BYTE	PATT
	 POIN2	BonusStageDKC_2_004
// 009   ----------------------------------------
	BYTE	W96
// 010   ----------------------------------------
	BYTE	W96
// 011   ----------------------------------------
	BYTE	W96
// 012   ----------------------------------------
	BYTE	W92
	BYTE	W01
	BYTE	GoTo
	 POIN2	BonusStageDKC_2_B1
BonusStageDKC_2_B2:
	BYTE	W03
// 013   ----------------------------------------
	BYTE	FINE

//**************** Track 3 (Midi-Chn.3) ****************//

BonusStageDKC_3:
	BYTE	KEYSH   BonusStageDKC_key+0
// 000   ----------------------------------------
	BYTE		VOICE   13
	BYTE		VOL     127*BonusStageDKC_mvl/mxv
	BYTE		PAN     c_v+24
	BYTE	W12
	BYTE		N05     An2   v100
	BYTE	W12
	BYTE		        Bn2 
	BYTE	W06
	BYTE		N05   
	BYTE	W12
	BYTE		        Cn3 
	BYTE	W18
	BYTE		        En3 
	BYTE	W06
	BYTE		N05   
	BYTE	W06
	BYTE		N05   
	BYTE	W21
BonusStageDKC_3_B1:
	BYTE	W03
// 001   ----------------------------------------
BonusStageDKC_3_001:
	BYTE	W12
	BYTE		N05     Cn3   v100
	BYTE	W12
	BYTE		        Gn2 
	BYTE	W06
	BYTE		N05   
	BYTE	W12
	BYTE		        Dn3 
	BYTE	W12
	BYTE		N05   
	BYTE	W12
	BYTE		N05   
	BYTE	W06
	BYTE		        Bn2 
	BYTE	W12
	BYTE		        Dn3 
	BYTE	W06
	BYTE		N05   
	BYTE	W06
	BYTE	PEND
// 002   ----------------------------------------
	BYTE	W12
	BYTE		        En3 
	BYTE	W12
	BYTE		        Cn3 
	BYTE	W06
	BYTE		N05   
	BYTE	W12
	BYTE		N05   
	BYTE	W12
	BYTE		N05   
	BYTE	W12
	BYTE		N05   
	BYTE	W06
	BYTE		        An2 
	BYTE	W12
	BYTE		        Cn3 
	BYTE	W06
	BYTE		N05   
	BYTE	W06
// 003   ----------------------------------------
	BYTE	PATT
	 POIN2	BonusStageDKC_3_001
// 004   ----------------------------------------
BonusStageDKC_3_004:
	BYTE	W12
	BYTE		N05     An2   v100
	BYTE	W12
	BYTE		        Bn2 
	BYTE	W06
	BYTE		N05   
	BYTE	W12
	BYTE		        Cn3 
	BYTE	W18
	BYTE		        En3 
	BYTE	W06
	BYTE		N05   
	BYTE	W06
	BYTE		N05   
	BYTE	W24
	BYTE	PEND
// 005   ----------------------------------------
	BYTE	PATT
	 POIN2	BonusStageDKC_3_001
// 006   ----------------------------------------
	BYTE	W12
	BYTE		N05     Cn3   v100
	BYTE	W12
	BYTE		        An2 
	BYTE	W06
	BYTE		N05   
	BYTE	W12
	BYTE		        Cn3 
	BYTE	W12
	BYTE		N05   
	BYTE	W12
	BYTE		N05   
	BYTE	W06
	BYTE		        An2 
	BYTE	W12
	BYTE		        Cn3 
	BYTE	W06
	BYTE		N05   
	BYTE	W06
// 007   ----------------------------------------
	BYTE	PATT
	 POIN2	BonusStageDKC_3_001
// 008   ----------------------------------------
	BYTE	PATT
	 POIN2	BonusStageDKC_3_004
// 009   ----------------------------------------
	BYTE	W96
// 010   ----------------------------------------
	BYTE	W96
// 011   ----------------------------------------
	BYTE	W96
// 012   ----------------------------------------
	BYTE	W92
	BYTE	W01
	BYTE	GoTo
	 POIN2	BonusStageDKC_3_B1
BonusStageDKC_3_B2:
	BYTE	W03
// 013   ----------------------------------------
	BYTE	FINE

//**************** Track 4 (Midi-Chn.4) ****************//

BonusStageDKC_4:
	BYTE	KEYSH   BonusStageDKC_key+0
// 000   ----------------------------------------
	BYTE		VOICE   75
	BYTE		VOL     90*BonusStageDKC_mvl/mxv
	BYTE		PAN     c_v-24
	BYTE	W92
	BYTE	W01
BonusStageDKC_4_B1:
	BYTE	W03
// 001   ----------------------------------------
	BYTE	W18
	BYTE		N06     Gn3   v100
	BYTE	W06
	BYTE		N06   
	BYTE	W06
	BYTE		        Bn3 
	BYTE	W06
	BYTE		N09     Cn4 
	BYTE	W12
	BYTE		        Dn4 
	BYTE	W48
// 002   ----------------------------------------
	BYTE	W18
	BYTE		N06     En4 
	BYTE	W06
	BYTE		N06   
	BYTE	W06
	BYTE		        Fn4 
	BYTE	W06
	BYTE		        En4 
	BYTE	W12
	BYTE		N09     Cn4 
	BYTE	W48
// 003   ----------------------------------------
	BYTE	W12
	BYTE		        En4 
	BYTE	W12
	BYTE		N06   
	BYTE	W06
	BYTE		N09   
	BYTE	W12
	BYTE		N06     Dn4 
	BYTE	W06
	BYTE		        Cn4 
	BYTE	W12
	BYTE		N09     Dn4 
	BYTE	W12
	BYTE		N06   
	BYTE	W06
	BYTE		N09   
	BYTE	W12
	BYTE		N06     Cn4 
	BYTE	W06
// 004   ----------------------------------------
	BYTE		        Bn3 
	BYTE	W06
	BYTE		N09     Cn4 
	BYTE	W12
	BYTE		N06   
	BYTE	W06
	BYTE		N06   
	BYTE	W06
	BYTE		        Dn4 
	BYTE	W06
	BYTE		        En4 
	BYTE	W06
	BYTE		        Dn4 
	BYTE	W06
	BYTE		N09     Cn4 
	BYTE	W48
// 005   ----------------------------------------
	BYTE	W96
// 006   ----------------------------------------
	BYTE	W96
// 007   ----------------------------------------
	BYTE	W96
// 008   ----------------------------------------
	BYTE	W96
// 009   ----------------------------------------
	BYTE	W96
// 010   ----------------------------------------
	BYTE	W96
// 011   ----------------------------------------
	BYTE	W96
// 012   ----------------------------------------
	BYTE	W92
	BYTE	W01
	BYTE	GoTo
	 POIN2	BonusStageDKC_4_B1
BonusStageDKC_4_B2:
	BYTE	W03
// 013   ----------------------------------------
	BYTE	FINE

//**************** Track 5 (Midi-Chn.5) ****************//

BonusStageDKC_5:
	BYTE	KEYSH   BonusStageDKC_key+0
// 000   ----------------------------------------
	BYTE		VOICE   13
	BYTE		VOL     127*BonusStageDKC_mvl/mxv
	BYTE		PAN     c_v+24
	BYTE	W12
	BYTE		N05     Fn2   v100
	BYTE	W12
	BYTE		        Gn2 
	BYTE	W06
	BYTE		N05   
	BYTE	W12
	BYTE		N05   
	BYTE	W18
	BYTE		        Cn3 
	BYTE	W06
	BYTE		N05   
	BYTE	W06
	BYTE		N05   
	BYTE	W21
BonusStageDKC_5_B1:
	BYTE	W03
// 001   ----------------------------------------
BonusStageDKC_5_001:
	BYTE	W12
	BYTE		N05     Gn2   v100
	BYTE	W12
	BYTE		        En2 
	BYTE	W06
	BYTE		N05   
	BYTE	W12
	BYTE		        Bn2 
	BYTE	W12
	BYTE		N05   
	BYTE	W12
	BYTE		N05   
	BYTE	W06
	BYTE		        Gn2 
	BYTE	W12
	BYTE		        Bn2 
	BYTE	W06
	BYTE		N05   
	BYTE	W06
	BYTE	PEND
// 002   ----------------------------------------
	BYTE	W12
	BYTE		        Cn3 
	BYTE	W12
	BYTE		        Gn2 
	BYTE	W06
	BYTE		N05   
	BYTE	W12
	BYTE		        An2 
	BYTE	W12
	BYTE		N05   
	BYTE	W12
	BYTE		N05   
	BYTE	W06
	BYTE		        Fn2 
	BYTE	W12
	BYTE		        An2 
	BYTE	W06
	BYTE		N05   
	BYTE	W06
// 003   ----------------------------------------
	BYTE	PATT
	 POIN2	BonusStageDKC_5_001
// 004   ----------------------------------------
BonusStageDKC_5_004:
	BYTE	W12
	BYTE		N05     Fn2   v100
	BYTE	W12
	BYTE		        Gn2 
	BYTE	W06
	BYTE		N05   
	BYTE	W12
	BYTE		N05   
	BYTE	W18
	BYTE		        Cn3 
	BYTE	W06
	BYTE		N05   
	BYTE	W06
	BYTE		N05   
	BYTE	W24
	BYTE	PEND
// 005   ----------------------------------------
	BYTE	W12
	BYTE		        En2 
	BYTE	W12
	BYTE		N05   
	BYTE	W06
	BYTE		N05   
	BYTE	W12
	BYTE		        Gs2 
	BYTE	W12
	BYTE		N05   
	BYTE	W12
	BYTE		N05   
	BYTE	W06
	BYTE		N05   
	BYTE	W12
	BYTE		N05   
	BYTE	W06
	BYTE		N05   
	BYTE	W06
// 006   ----------------------------------------
	BYTE	W12
	BYTE		        Fn2 
	BYTE	W12
	BYTE		N05   
	BYTE	W06
	BYTE		N05   
	BYTE	W12
	BYTE		        Fs2 
	BYTE	W12
	BYTE		N05   
	BYTE	W12
	BYTE		N05   
	BYTE	W06
	BYTE		N05   
	BYTE	W12
	BYTE		N05   
	BYTE	W06
	BYTE		N05   
	BYTE	W06
// 007   ----------------------------------------
	BYTE	PATT
	 POIN2	BonusStageDKC_5_001
// 008   ----------------------------------------
	BYTE	PATT
	 POIN2	BonusStageDKC_5_004
// 009   ----------------------------------------
	BYTE	W96
// 010   ----------------------------------------
	BYTE	W96
// 011   ----------------------------------------
	BYTE	W96
// 012   ----------------------------------------
	BYTE	W92
	BYTE	W01
	BYTE	GoTo
	 POIN2	BonusStageDKC_5_B1
BonusStageDKC_5_B2:
	BYTE	W03
// 013   ----------------------------------------
	BYTE	FINE

//**************** Track 6 (Midi-Chn.6) ****************//

BonusStageDKC_6:
	BYTE		VOL     127*BonusStageDKC_mvl/mxv
	BYTE	KEYSH   BonusStageDKC_key+0
// 000   ----------------------------------------
	BYTE		VOICE   24
	BYTE		PAN     c_v+24
	BYTE	W92
	BYTE	W01
BonusStageDKC_6_B1:
	BYTE	W03
// 001   ----------------------------------------
	BYTE	W96
// 002   ----------------------------------------
	BYTE	W96
// 003   ----------------------------------------
	BYTE	W96
// 004   ----------------------------------------
	BYTE	W96
// 005   ----------------------------------------
	BYTE	W12
	BYTE		N06     Ds4   v100
	BYTE	W12
	BYTE		N03     En4 
	BYTE	W06
	BYTE		N06     Gn4 
	BYTE	W30
	BYTE		        Gs4 
	BYTE	W12
	BYTE		N03     An4 
	BYTE	W06
	BYTE		N06     Bn4 
	BYTE	W18
// 006   ----------------------------------------
	BYTE	W12
	BYTE		        Cn5 
	BYTE	W12
	BYTE		        Dn5 
	BYTE	W06
	BYTE		        Cn5 
	BYTE	W12
	BYTE		N03     Dn5 
	BYTE	W02
	BYTE		N06     Ds5 
	BYTE	W16
	BYTE		        Dn5 
	BYTE	W12
	BYTE		N03     Cn5 
	BYTE	W06
	BYTE		N06     An4 
	BYTE	W18
// 007   ----------------------------------------
	BYTE	W06
	BYTE		N03     Ds5 
	BYTE	W06
	BYTE		        En5 
	BYTE	W06
	BYTE		        Gn5 
	BYTE	W06
	BYTE		        En5 
	BYTE	W06
	BYTE		        Ds5 
	BYTE	W06
	BYTE		        Dn5 
	BYTE	W06
	BYTE		N06     Cn5 
	BYTE	W12
	BYTE		N03     As4 
	BYTE	W06
	BYTE		        Bn4 
	BYTE	W06
	BYTE		        Dn5 
	BYTE	W06
	BYTE		        Bn4 
	BYTE	W06
	BYTE		        As4 
	BYTE	W06
	BYTE		        An4 
	BYTE	W06
	BYTE		        Gn4 
	BYTE	W06
// 008   ----------------------------------------
	BYTE		N06     An4 
	BYTE	W12
	BYTE		        Cn5 
	BYTE	W10
	BYTE		N02     Dn5 
	BYTE	W02
	BYTE		N03     Ds5 
	BYTE	W06
	BYTE		N06     Dn5 
	BYTE	W12
	BYTE		        Cn5 
	BYTE	W54
// 009   ----------------------------------------
	BYTE	W96
// 010   ----------------------------------------
	BYTE	W96
// 011   ----------------------------------------
	BYTE	W96
// 012   ----------------------------------------
	BYTE	W92
	BYTE	W01
	BYTE	GoTo
	 POIN2	BonusStageDKC_6_B1
BonusStageDKC_6_B2:
	BYTE	W03
// 013   ----------------------------------------
	BYTE	FINE

//**************** Track 7 (Midi-Chn.7) ****************//

BonusStageDKC_7:
	BYTE	KEYSH   BonusStageDKC_key+0
// 000   ----------------------------------------
	BYTE		VOICE   24
	BYTE		PAN     c_v-26
	BYTE		VOL     90*BonusStageDKC_mvl/mxv
	BYTE	W92
	BYTE	W01
BonusStageDKC_7_B1:
	BYTE	W03
// 001   ----------------------------------------
	BYTE	W96
// 002   ----------------------------------------
	BYTE	W96
// 003   ----------------------------------------
	BYTE	W96
// 004   ----------------------------------------
	BYTE	W96
// 005   ----------------------------------------
	BYTE	W18
	BYTE		N06     Ds4   v100
	BYTE	W12
	BYTE		N03     En4 
	BYTE	W06
	BYTE		N06     Gn4 
	BYTE	W30
	BYTE		        Gs4 
	BYTE	W12
	BYTE		N03     An4 
	BYTE	W06
	BYTE		N06     Bn4 
	BYTE	W12
// 006   ----------------------------------------
	BYTE	W18
	BYTE		        Cn5 
	BYTE	W12
	BYTE		        Dn5 
	BYTE	W06
	BYTE		        Cn5 
	BYTE	W12
	BYTE		N03     Dn5 
	BYTE	W02
	BYTE		N06     Ds5 
	BYTE	W16
	BYTE		        Dn5 
	BYTE	W12
	BYTE		N03     Cn5 
	BYTE	W06
	BYTE		N06     An4 
	BYTE	W12
// 007   ----------------------------------------
	BYTE	W12
	BYTE		N03     Ds5 
	BYTE	W06
	BYTE		        En5 
	BYTE	W06
	BYTE		        Gn5 
	BYTE	W06
	BYTE		        En5 
	BYTE	W06
	BYTE		        Ds5 
	BYTE	W06
	BYTE		        Dn5 
	BYTE	W06
	BYTE		N06     Cn5 
	BYTE	W12
	BYTE		N03     As4 
	BYTE	W06
	BYTE		        Bn4 
	BYTE	W06
	BYTE		        Dn5 
	BYTE	W06
	BYTE		        Bn4 
	BYTE	W06
	BYTE		        As4 
	BYTE	W06
	BYTE		        An4 
	BYTE	W06
// 008   ----------------------------------------
	BYTE		        Gn4 
	BYTE	W06
	BYTE		N06     An4 
	BYTE	W12
	BYTE		        Cn5 
	BYTE	W10
	BYTE		N02     Dn5 
	BYTE	W02
	BYTE		N03     Ds5 
	BYTE	W06
	BYTE		N06     Dn5 
	BYTE	W12
	BYTE		        Cn5 
	BYTE	W48
// 009   ----------------------------------------
	BYTE	W96
// 010   ----------------------------------------
	BYTE	W96
// 011   ----------------------------------------
	BYTE	W96
// 012   ----------------------------------------
	BYTE	W92
	BYTE	W01
	BYTE	GoTo
	 POIN2	BonusStageDKC_7_B1
BonusStageDKC_7_B2:
	BYTE	W03
// 013   ----------------------------------------
	BYTE	FINE

//**************** Track 8 (Midi-Chn.8) ****************//

BonusStageDKC_8:
	BYTE		VOL     127*BonusStageDKC_mvl/mxv
	BYTE	KEYSH   BonusStageDKC_key+0
// 000   ----------------------------------------
	BYTE		VOICE   52
	BYTE	W92
	BYTE	W01
BonusStageDKC_8_B1:
	BYTE	W03
// 001   ----------------------------------------
	BYTE	W96
// 002   ----------------------------------------
	BYTE	W96
// 003   ----------------------------------------
	BYTE	W96
// 004   ----------------------------------------
	BYTE	W96
// 005   ----------------------------------------
	BYTE	W96
// 006   ----------------------------------------
	BYTE	W96
// 007   ----------------------------------------
	BYTE	W96
// 008   ----------------------------------------
	BYTE	W96
// 009   ----------------------------------------
BonusStageDKC_8_009:
	BYTE	W12
	BYTE		N04     An3   v100
	BYTE	W08
	BYTE		        An3   v084
	BYTE	W04
	BYTE		        En3   v100
	BYTE	W06
	BYTE		N04   
	BYTE	W08
	BYTE		        En3   v084
	BYTE	W04
	BYTE		        An3   v100
	BYTE	W08
	BYTE		        An3   v084
	BYTE	W04
	BYTE		        An3   v100
	BYTE	W08
	BYTE		        An3   v084
	BYTE	W04
	BYTE		        An3   v100
	BYTE	W06
	BYTE		        En3 
	BYTE	W08
	BYTE		        En3   v084
	BYTE	W04
	BYTE		        En3   v100
	BYTE	W06
	BYTE		N04   
	BYTE	W06
	BYTE	PEND
// 010   ----------------------------------------
	BYTE	PATT
	 POIN2	BonusStageDKC_8_009
// 011   ----------------------------------------
	BYTE	PATT
	 POIN2	BonusStageDKC_8_009
// 012   ----------------------------------------
	BYTE	W92
	BYTE	W01
	BYTE	GoTo
	 POIN2	BonusStageDKC_8_B1
BonusStageDKC_8_B2:
	BYTE	W03
// 013   ----------------------------------------
	BYTE	FINE

//**************** Track 9 (Midi-Chn.9) ****************//

BonusStageDKC_9:
	BYTE	KEYSH   BonusStageDKC_key+0
// 000   ----------------------------------------
	BYTE		VOICE   123
	BYTE		VOL     127*BonusStageDKC_mvl/mxv
	BYTE		PAN     c_v+0
	BYTE		N06     Cn1   v100
	BYTE		N06     Cs3 
	BYTE	W06
	BYTE		N06   
	BYTE	W06
	BYTE		        Ds4 
	BYTE	W06
	BYTE		        Cn1 
	BYTE	W06
	BYTE		N06   
	BYTE		N06     Cs3 
	BYTE	W06
	BYTE		N06   
	BYTE	W06
	BYTE		        Cs1 
	BYTE		N06     Ds4 
	BYTE	W06
	BYTE		        Cs3 
	BYTE	W02
	BYTE		N02     Cn2 
	BYTE	W02
	BYTE		N02   
	BYTE	W02
	BYTE		N06     Dn2 
	BYTE		N06     Cs3 
	BYTE	W12
	BYTE		        Dn2 
	BYTE		N06     Dn3 
	BYTE	W06
	BYTE		        Dn2 
	BYTE		N06     Dn3 
	BYTE	W06
	BYTE		        Dn2 
	BYTE		N06     Dn3 
	BYTE	W12
	BYTE		        Gn1 
	BYTE	W02
	BYTE		        An1 
	BYTE	W07
BonusStageDKC_9_B1:
	BYTE	W03
// 001   ----------------------------------------
BonusStageDKC_9_001:
	BYTE		N06     Cn1   v100
	BYTE		N06     Cs3 
	BYTE	W06
	BYTE		N06   
	BYTE	W06
	BYTE		        Ds4 
	BYTE	W06
	BYTE		        Cn1 
	BYTE	W06
	BYTE		N06   
	BYTE		N06     Cs3 
	BYTE	W06
	BYTE		N06   
	BYTE	W06
	BYTE		        Cs1 
	BYTE		N06     Ds4 
	BYTE	W06
	BYTE		        Cn1 
	BYTE		N06     Cs3 
	BYTE	W06
	BYTE		        Cn1 
	BYTE		N06     Cs3 
	BYTE	W06
	BYTE		        Ds4 
	BYTE	W06
	BYTE		        Cs3 
	BYTE	W06
	BYTE		        Cn1 
	BYTE		N06     Ds4 
	BYTE	W06
	BYTE		        Cn1 
	BYTE	W06
	BYTE		        Cs3 
	BYTE	W06
	BYTE		        Cs1 
	BYTE		N06     Ds4 
	BYTE	W06
	BYTE		        Cn1 
	BYTE		N06     Cs3 
	BYTE	W06
	BYTE	PEND
// 002   ----------------------------------------
	BYTE	PATT
	 POIN2	BonusStageDKC_9_001
// 003   ----------------------------------------
	BYTE	PATT
	 POIN2	BonusStageDKC_9_001
// 004   ----------------------------------------
	BYTE	PATT
	 POIN2	BonusStageDKC_9_001
// 005   ----------------------------------------
	BYTE	PATT
	 POIN2	BonusStageDKC_9_001
// 006   ----------------------------------------
	BYTE	PATT
	 POIN2	BonusStageDKC_9_001
// 007   ----------------------------------------
	BYTE	PATT
	 POIN2	BonusStageDKC_9_001
// 008   ----------------------------------------
	BYTE		N06     Cn1   v100
	BYTE		N06     Cs3 
	BYTE	W06
	BYTE		N06   
	BYTE	W06
	BYTE		        Ds4 
	BYTE	W06
	BYTE		        Cn1 
	BYTE	W06
	BYTE		N06   
	BYTE		N06     Cs3 
	BYTE	W06
	BYTE		N06   
	BYTE	W06
	BYTE		        Cs1 
	BYTE		N06     Ds4 
	BYTE	W06
	BYTE		        Cs3 
	BYTE	W02
	BYTE		N02     Cn2 
	BYTE	W02
	BYTE		N02   
	BYTE	W02
	BYTE		N06     Dn2 
	BYTE		N06     Cs3 
	BYTE	W12
	BYTE		        Dn2 
	BYTE		N06     Dn3 
	BYTE	W06
	BYTE		        Dn2 
	BYTE		N06     Dn3 
	BYTE	W06
	BYTE		        Dn2 
	BYTE		N06     Dn3 
	BYTE	W12
	BYTE		        Gn1 
	BYTE	W02
	BYTE		        An1 
	BYTE	W10
// 009   ----------------------------------------
BonusStageDKC_9_009:
	BYTE		N06     Cn1   v100
	BYTE		N06     Bn1 
	BYTE		N06     Cs3 
	BYTE	W06
	BYTE		N06   
	BYTE	W06
	BYTE		        Ds4 
	BYTE	W06
	BYTE		        Cn1 
	BYTE		N06     An1 
	BYTE	W06
	BYTE		        Cn1 
	BYTE		N06     An1 
	BYTE		N06     Cs3 
	BYTE	W06
	BYTE		N06   
	BYTE	W06
	BYTE		        Cs1 
	BYTE		N06     Ds4 
	BYTE	W06
	BYTE		        Cn1 
	BYTE		N06     Cs3 
	BYTE	W06
	BYTE		        Cn1 
	BYTE		N06     Cs3 
	BYTE	W06
	BYTE		        Bn1 
	BYTE		N06     Ds4 
	BYTE	W06
	BYTE		        Cs3 
	BYTE	W06
	BYTE		        Cn1 
	BYTE		N06     Bn1 
	BYTE		N06     Ds4 
	BYTE	W06
	BYTE		        Cn1 
	BYTE		N06     An1 
	BYTE	W06
	BYTE		        Cs3 
	BYTE	W06
	BYTE		        Cs1 
	BYTE		N06     Gn1 
	BYTE		N06     Ds4 
	BYTE	W06
	BYTE		        Cn1 
	BYTE		N06     Cs3 
	BYTE	W06
	BYTE	PEND
// 010   ----------------------------------------
	BYTE	PATT
	 POIN2	BonusStageDKC_9_009
// 011   ----------------------------------------
	BYTE	PATT
	 POIN2	BonusStageDKC_9_009
// 012   ----------------------------------------
	BYTE		N04     Bn1   v100
	BYTE		N04     Ds3 
	BYTE	W08
	BYTE		        Bn1 
	BYTE		N04     Ds3 
	BYTE	W08
	BYTE		        Bn1 
	BYTE		N04     Ds3 
	BYTE	W08
	BYTE		        An1 
	BYTE		N04     Ds3 
	BYTE	W08
	BYTE		        An1 
	BYTE		N04     Ds3 
	BYTE	W08
	BYTE		        An1 
	BYTE		N04     Ds3 
	BYTE	W08
	BYTE		        Gn1 
	BYTE		N04     Ds3 
	BYTE	W18
	BYTE		N06     Cn1 
	BYTE		N06     Dn3 
	BYTE	W06
	BYTE		        Cn1 
	BYTE		N06     Dn3 
	BYTE	W12
	BYTE		        Gn1 
	BYTE	W02
	BYTE		        An1 
	BYTE	W04
	BYTE		        Cn1 
	BYTE	W03
	BYTE	GoTo
	 POIN2	BonusStageDKC_9_B1
BonusStageDKC_9_B2:
	BYTE	W03
// 013   ----------------------------------------
	BYTE	FINE

//******************************************************//
	ALIGN 4

BonusStageDKC:
	BYTE	9	// NumTrks
	BYTE	0	// NumBlks
	BYTE	BonusStageDKC_pri	// Priority
	BYTE	BonusStageDKC_rev	// Reverb.

	POIN2	BonusStageDKC_grp

	POIN2	BonusStageDKC_1
	POIN2	BonusStageDKC_2
	POIN2	BonusStageDKC_3
	POIN2	BonusStageDKC_4
	POIN2	BonusStageDKC_5
	POIN2	BonusStageDKC_6
	POIN2	BonusStageDKC_7
	POIN2	BonusStageDKC_8
	POIN2	BonusStageDKC_9

	
