//Event file generated from Sappy .s format.
	#include "MPlayDef.event"

	#define	CapOnNappers_grp  voicegroup000
	#define	CapOnNappers_pri  0
	#define	CapOnNappers_rev  0
	#define	CapOnNappers_mvl  40
	#define	CapOnNappers_key  0
	#define	CapOnNappers_tbs  1
	#define	CapOnNappers_exg  0
	#define	CapOnNappers_cmp  1

	// .rodata
	//	CapOnNappers
	ALIGN 4

//**************** Track 1 (Midi-Chn.1) ****************//

CapOnNappers_1:
	BYTE	KEYSH   CapOnNappers_key+0
CapOnNappers_1_B1:
// 000   ----------------------------------------
	BYTE	TEMPO   167*CapOnNappers_tbs/2
	BYTE		VOICE   127
	BYTE		VOL     100*CapOnNappers_mvl/mxv
	BYTE		PAN     c_v+0
	BYTE		MOD     0
	BYTE		VOL     85*CapOnNappers_mvl/mxv
	BYTE		PAN     c_v-3
	BYTE		N05     Cn1   v116
	BYTE	W23
	BYTE		        Fs1   v088
	BYTE	W01
	BYTE		N11     Dn1   v100
	BYTE	W12
	BYTE		N05     Fs1   v052
	BYTE	W11
	BYTE		        Cn1   v104
	BYTE	W01
	BYTE		        Fs1   v088
	BYTE	W11
	BYTE		        Fs1   v064
	BYTE	W13
	BYTE		N11     Dn1   v100
	BYTE		N05     Fs1   v088
	BYTE	W12
	BYTE		        Fs1   v068
	BYTE	W11
	BYTE		        Cn1   v104
	BYTE		N05     Fs1   v088
	BYTE	W01
// 001   ----------------------------------------
CapOnNappers_1_001:
	BYTE	W11
	BYTE		N05     Fs1   v048
	BYTE	W12
	BYTE		N11     Dn1   v100
	BYTE	W01
	BYTE		N05     Fs1   v088
	BYTE	W12
	BYTE		        Fs1   v056
	BYTE	W12
	BYTE		        Cn1   v108
	BYTE		N05     Fs1   v088
	BYTE	W12
	BYTE		        Cn1   v092
	BYTE		N05     Fs1   v048
	BYTE	W11
	BYTE		        Fs1   v088
	BYTE	W01
	BYTE		N11     Dn1   v100
	BYTE	W11
	BYTE		N05     Fs1   v040
	BYTE	W01
	BYTE		        Cn1   v092
	BYTE	W12
	BYTE	PEND
// 002   ----------------------------------------
CapOnNappers_1_002:
	BYTE		N05     Cn1   v116
	BYTE		N05     Fs1   v088
	BYTE	W12
	BYTE		        Fs1   v048
	BYTE	W11
	BYTE		        Fs1   v088
	BYTE	W01
	BYTE		N11     Dn1   v100
	BYTE	W12
	BYTE		N05     Fs1   v052
	BYTE	W11
	BYTE		        Cn1   v104
	BYTE	W01
	BYTE		        Fs1   v088
	BYTE	W11
	BYTE		        Fs1   v064
	BYTE	W13
	BYTE		N11     Dn1   v100
	BYTE		N05     Fs1   v088
	BYTE	W12
	BYTE		        Fs1   v068
	BYTE	W11
	BYTE		        Cn1   v104
	BYTE		N05     Fs1   v088
	BYTE	W01
	BYTE	PEND
// 003   ----------------------------------------
CapOnNappers_1_003:
	BYTE	W11
	BYTE		N05     Fs1   v048
	BYTE	W12
	BYTE		N11     Dn1   v100
	BYTE	W01
	BYTE		N05     Fs1   v088
	BYTE	W12
	BYTE		        Fs1   v056
	BYTE	W12
	BYTE		        Cn1   v108
	BYTE		N05     Fs1   v088
	BYTE	W12
	BYTE		        Cn1   v092
	BYTE		N05     Fs1   v048
	BYTE	W11
	BYTE		        Fs1   v088
	BYTE	W01
	BYTE		N11     Dn1   v100
	BYTE	W12
	BYTE		N05     Cn1   v092
	BYTE	W12
	BYTE	PEND
// 004   ----------------------------------------
CapOnNappers_1_004:
	BYTE		N05     Cn1   v116
	BYTE	W23
	BYTE		        Fs1   v088
	BYTE	W01
	BYTE		N11     Dn1   v100
	BYTE	W12
	BYTE		N05     Fs1   v052
	BYTE	W11
	BYTE		        Cn1   v104
	BYTE	W01
	BYTE		        Fs1   v088
	BYTE	W11
	BYTE		        Fs1   v064
	BYTE	W13
	BYTE		N11     Dn1   v100
	BYTE		N05     Fs1   v088
	BYTE	W12
	BYTE		        Fs1   v068
	BYTE	W11
	BYTE		        Cn1   v104
	BYTE		N05     Fs1   v088
	BYTE	W01
	BYTE	PEND
// 005   ----------------------------------------
	BYTE	PATT
	 POIN2	CapOnNappers_1_001
// 006   ----------------------------------------
	BYTE		N05     Cn1   v116
	BYTE	W12
	BYTE		        Fs1   v048
	BYTE	W11
	BYTE		        Fs1   v088
	BYTE	W01
	BYTE		N11     Dn1   v100
	BYTE	W12
	BYTE		N05     Fs1   v052
	BYTE	W11
	BYTE		        Cn1   v104
	BYTE	W01
	BYTE		        Fs1   v088
	BYTE	W11
	BYTE		        Fs1   v064
	BYTE	W13
	BYTE		N11     Dn1   v100
	BYTE		N05     Fs1   v088
	BYTE	W12
	BYTE		        Fs1   v068
	BYTE	W11
	BYTE		        Cn1   v104
	BYTE		N05     Fs1   v088
	BYTE	W01
// 007   ----------------------------------------
	BYTE	PATT
	 POIN2	CapOnNappers_1_003
// 008   ----------------------------------------
	BYTE	W23
	BYTE		N05     Fs1   v088
	BYTE	W01
	BYTE		N11     Dn1   v100
	BYTE	W12
	BYTE		N05     Fs1   v052
	BYTE	W11
	BYTE		        Cn1   v104
	BYTE	W01
	BYTE		        Fs1   v088
	BYTE	W11
	BYTE		        Fs1   v064
	BYTE	W13
	BYTE		N11     Dn1   v100
	BYTE	W12
	BYTE		N05     Fs1   v068
	BYTE	W11
	BYTE		        Cn1   v104
	BYTE		N05     Fs1   v088
	BYTE	W01
// 009   ----------------------------------------
	BYTE	PATT
	 POIN2	CapOnNappers_1_001
// 010   ----------------------------------------
	BYTE	PATT
	 POIN2	CapOnNappers_1_002
// 011   ----------------------------------------
	BYTE	PATT
	 POIN2	CapOnNappers_1_003
// 012   ----------------------------------------
	BYTE	PATT
	 POIN2	CapOnNappers_1_004
// 013   ----------------------------------------
	BYTE	PATT
	 POIN2	CapOnNappers_1_001
// 014   ----------------------------------------
	BYTE		N05     Cn1   v116
	BYTE		N05     Fs1   v088
	BYTE	W12
	BYTE		        Fs1   v048
	BYTE	W11
	BYTE		        Fs1   v088
	BYTE	W01
	BYTE		N11     Dn1   v100
	BYTE	W12
	BYTE		N05     Fs1   v052
	BYTE	W11
	BYTE		        Cn1   v104
	BYTE	W01
	BYTE		        Fs1   v088
	BYTE	W11
	BYTE		        Fs1   v064
	BYTE	W13
	BYTE		N11     Dn1   v100
	BYTE		N05     Fs1   v088
	BYTE	W12
	BYTE		        Fs1   v068
	BYTE	W11
	BYTE		        Cn1   v104
	BYTE	W01
// 015   ----------------------------------------
	BYTE	W23
	BYTE		N11     Dn1   v100
	BYTE	W24
	BYTE	W01
	BYTE		N05     Cn1   v108
	BYTE	W12
	BYTE		        Cn1   v120
	BYTE	W12
	BYTE		N11     Dn1   v100
	BYTE	W12
	BYTE		N05     Cn1   v092
	BYTE	W12
// 016   ----------------------------------------
	BYTE		        Cn1   v116
	BYTE		N05     Fs1   v088
	BYTE	W12
	BYTE		        Fs1   v048
	BYTE	W11
	BYTE		        Fs1   v088
	BYTE	W01
	BYTE		N11     Cs1   v092
	BYTE	W12
	BYTE		N05     Fs1   v052
	BYTE	W12
	BYTE		N11     Cs1   v092
	BYTE		N05     Fs1   v088
	BYTE	W11
	BYTE		        Cn1 
	BYTE		N05     Fs1   v064
	BYTE	W13
	BYTE		N11     Cs1   v092
	BYTE		N05     Fs1   v088
	BYTE	W12
	BYTE		        Fs1   v068
	BYTE	W12
// 017   ----------------------------------------
CapOnNappers_1_017:
	BYTE		N11     Cs1   v092
	BYTE		N05     Fs1   v088
	BYTE	W12
	BYTE		        Fs1   v048
	BYTE	W11
	BYTE		        Fs1   v088
	BYTE	W01
	BYTE		N11     Cs1   v092
	BYTE	W12
	BYTE		N05     Fs1   v052
	BYTE	W12
	BYTE		N11     Cs1   v092
	BYTE		N05     Fs1   v088
	BYTE	W11
	BYTE		        Cn1   v084
	BYTE		N05     Fs1   v064
	BYTE	W13
	BYTE		N11     Cs1   v092
	BYTE		N05     Fs1   v088
	BYTE	W12
	BYTE		        Fs1   v068
	BYTE	W12
	BYTE	PEND
// 018   ----------------------------------------
	BYTE		        Cn1   v100
	BYTE		N05     Fs1   v088
	BYTE	W12
	BYTE		        Fs1   v048
	BYTE	W11
	BYTE		        Fs1   v088
	BYTE	W01
	BYTE		N11     Cs1   v092
	BYTE	W12
	BYTE		N05     Fs1   v052
	BYTE	W12
	BYTE		N11     Cs1   v092
	BYTE		N05     Fs1   v088
	BYTE	W11
	BYTE		        Cn1   v104
	BYTE		N05     Fs1   v064
	BYTE	W13
	BYTE		N11     Cs1   v092
	BYTE		N05     Fs1   v088
	BYTE	W12
	BYTE		        Fs1   v068
	BYTE	W12
// 019   ----------------------------------------
	BYTE		N11     Cs1   v092
	BYTE		N05     Fs1   v088
	BYTE	W12
	BYTE		        Fs1   v048
	BYTE	W11
	BYTE		        Fs1   v088
	BYTE	W01
	BYTE		N11     Cs1   v092
	BYTE	W12
	BYTE		N05     Fs1   v052
	BYTE	W12
	BYTE		N11     Cs1   v092
	BYTE		N05     Fs1   v088
	BYTE	W11
	BYTE		        Cn1   v080
	BYTE	W07
	BYTE		N11     Cs1   v064
	BYTE	W06
	BYTE		N05     Fs1   v088
	BYTE	W12
	BYTE		N11     Cs1   v092
	BYTE	W12
// 020   ----------------------------------------
	BYTE		N05     Cn1   v116
	BYTE	W23
	BYTE		        Fs1   v088
	BYTE	W01
	BYTE		N11     Cs1   v092
	BYTE	W12
	BYTE		N05     Fs1   v052
	BYTE	W12
	BYTE		N11     Cs1   v092
	BYTE		N05     Fs1   v088
	BYTE	W11
	BYTE		        Cn1 
	BYTE		N05     Fs1   v064
	BYTE	W13
	BYTE		N11     Cs1   v092
	BYTE		N05     Fs1   v088
	BYTE	W12
	BYTE		        Fs1   v068
	BYTE	W12
// 021   ----------------------------------------
	BYTE	PATT
	 POIN2	CapOnNappers_1_017
// 022   ----------------------------------------
	BYTE		N05     Cn1   v100
	BYTE		N05     Fs1   v088
	BYTE	W12
	BYTE		        Fs1   v048
	BYTE	W11
	BYTE		        Fs1   v088
	BYTE	W01
	BYTE		N11     Cs1   v092
	BYTE	W12
	BYTE		N05     Fs1   v052
	BYTE	W12
	BYTE		N11     Cs1   v092
	BYTE		N05     Fs1   v088
	BYTE	W11
	BYTE		        Fs1   v064
	BYTE	W13
	BYTE		N11     Cs1   v092
	BYTE		N05     Fs1   v088
	BYTE	W12
	BYTE		        Fs1   v068
	BYTE	W12
// 023   ----------------------------------------
	BYTE		N11     Cs1   v092
	BYTE		N05     Fs1   v088
	BYTE	W12
	BYTE		N11     An1   v100
	BYTE	W12
	BYTE		        Cs1   v092
	BYTE	W11
	BYTE		N05     Cn1   v104
	BYTE	W13
	BYTE		N11     Gn1   v116
	BYTE	W11
	BYTE		N05     Cn1   v104
	BYTE	W13
	BYTE		N11     Fn1   v116
	BYTE	W11
	BYTE		N05     Cn1   v104
	BYTE	W13
// 024   ----------------------------------------
	BYTE		        Cn1   v116
	BYTE	W23
	BYTE		        Fs1   v088
	BYTE	W13
	BYTE		        Cn1   v116
	BYTE		N05     Fs1   v052
	BYTE	W12
	BYTE		N11     Dn1   v100
	BYTE	W11
	BYTE		N05     Cn1   v104
	BYTE		N05     Fs1   v064
	BYTE	W13
	BYTE		        Fs1   v088
	BYTE	W12
	BYTE		        Cn1   v116
	BYTE	W12
// 025   ----------------------------------------
	BYTE	W12
	BYTE		        Fs1   v048
	BYTE	W11
	BYTE		        Fs1   v088
	BYTE	W01
	BYTE		        Cn1   v092
	BYTE	W11
	BYTE		        Cn1   v104
	BYTE	W01
	BYTE		        Fs1   v052
	BYTE	W12
	BYTE		N11     Dn1   v100
	BYTE	W11
	BYTE		N05     Cn1   v104
	BYTE	W13
	BYTE		        Fs1   v088
	BYTE	W12
	BYTE		        Cn1   v092
	BYTE		N05     Fs1   v068
	BYTE	W12
// 026   ----------------------------------------
	BYTE		        Cn1   v116
	BYTE	W12
	BYTE		        Fs1   v048
	BYTE	W11
	BYTE		        Fs1   v088
	BYTE	W13
	BYTE		        Cn1   v116
	BYTE		N05     Fs1   v052
	BYTE	W12
	BYTE		N11     Dn1   v100
	BYTE	W11
	BYTE		N05     Cn1   v104
	BYTE		N05     Fs1   v064
	BYTE	W13
	BYTE		        Fs1   v088
	BYTE	W12
	BYTE		        Cn1   v116
	BYTE		N05     Fs1   v068
	BYTE	W12
// 027   ----------------------------------------
	BYTE	W12
	BYTE		        Fs1   v048
	BYTE	W11
	BYTE		        Fs1   v088
	BYTE	W01
	BYTE		        Cn1   v092
	BYTE	W11
	BYTE		        Cn1   v104
	BYTE	W01
	BYTE		        Fs1   v052
	BYTE	W12
	BYTE		N11     Dn1   v100
	BYTE	W11
	BYTE		N05     Cn1   v104
	BYTE	W07
	BYTE		N02     Dn1   v040
	BYTE	W03
	BYTE		        Dn1   v052
	BYTE	W03
	BYTE		N05     Dn1   v056
	BYTE	W06
	BYTE		        Dn1   v064
	BYTE	W06
	BYTE		        Dn1   v068
	BYTE	W06
	BYTE		N11     Dn1   v100
	BYTE	W06
// 028   ----------------------------------------
	BYTE		N05     Cn1   v116
	BYTE	W24
	BYTE		N11     Dn1   v100
	BYTE	W11
	BYTE		N05     Cn1   v104
	BYTE	W24
	BYTE	W01
	BYTE		N11     Dn1   v100
	BYTE	W12
	BYTE		N05     Cn1   v116
	BYTE	W24
// 029   ----------------------------------------
	BYTE		N11     Dn1   v100
	BYTE	W12
	BYTE		N05     Cn1   v116
	BYTE	W36
	BYTE		N05   
	BYTE	W11
	BYTE		        Cn1   v104
	BYTE	W24
	BYTE	W01
	BYTE		        Cn1   v092
	BYTE	W12
// 030   ----------------------------------------
CapOnNappers_1_030:
	BYTE		N11     Dn1   v100
	BYTE	W12
	BYTE		N05     Cn1   v092
	BYTE	W11
	BYTE		        Cn1   v104
	BYTE	W12
	BYTE		N05   
	BYTE	W12
	BYTE		N11     Dn1   v100
	BYTE	W13
	BYTE		N05     Cn1   v092
	BYTE	W12
	BYTE		        Cn1   v108
	BYTE	W12
	BYTE		N05   
	BYTE	W12
	BYTE	PEND
// 031   ----------------------------------------
CapOnNappers_1_031:
	BYTE		N11     Dn1   v100
	BYTE	W12
	BYTE		N05     Cn1   v092
	BYTE	W12
	BYTE		        Cn1   v108
	BYTE	W12
	BYTE		N05   
	BYTE	W12
	BYTE		N11     Dn1   v100
	BYTE	W11
	BYTE		N05     Cn1   v104
	BYTE	W24
	BYTE	W01
	BYTE		        Cn1   v092
	BYTE	W12
	BYTE	PEND
// 032   ----------------------------------------
	BYTE	PATT
	 POIN2	CapOnNappers_1_030
// 033   ----------------------------------------
	BYTE	PATT
	 POIN2	CapOnNappers_1_031
// 034   ----------------------------------------
	BYTE	PATT
	 POIN2	CapOnNappers_1_030
// 035   ----------------------------------------
	BYTE	PATT
	 POIN2	CapOnNappers_1_031
// 036   ----------------------------------------
	BYTE	PATT
	 POIN2	CapOnNappers_1_030
// 037   ----------------------------------------
	BYTE		N11     Dn1   v100
	BYTE	W12
	BYTE		N05     Cn1   v092
	BYTE	W12
	BYTE		        Cn1   v108
	BYTE	W12
	BYTE		N05   
	BYTE	W11
	BYTE		N11     Dn1   v100
	BYTE	W12
	BYTE		N05     Cn1   v104
	BYTE	W12
	BYTE		N05   
	BYTE	W12
	BYTE		        Cn1   v092
	BYTE	W12
	BYTE		N11     Dn1   v100
	BYTE	W01
// 038   ----------------------------------------
	BYTE	W11
	BYTE		N05     Cn1   v092
	BYTE	W12
	BYTE		        Cn1   v104
	BYTE	W12
	BYTE		N05   
	BYTE	W12
	BYTE		N11     Dn1   v100
	BYTE	W12
	BYTE		N05     Cn1   v092
	BYTE	W12
	BYTE		        Cn1   v108
	BYTE	W12
	BYTE		N05   
	BYTE	W12
	BYTE		N11     Dn1   v100
	BYTE	W01
// 039   ----------------------------------------
	BYTE	W11
	BYTE		N05     Cn1   v104
	BYTE	W12
	BYTE		N05   
	BYTE	W12
	BYTE		        Cn1   v092
	BYTE	W12
	BYTE		N11     Dn1   v100
	BYTE	W12
	BYTE		N05     Cn1   v092
	BYTE	W12
	BYTE		N11     Dn1   v100
	BYTE	W13
	BYTE		N06     Bn1   v076
	BYTE	W06
	BYTE		        Bn1   v092
	BYTE	W06
// 040   ----------------------------------------
	BYTE		N11     Gn1   v116
	BYTE	W11
	BYTE		        Dn1   v100
	BYTE	W13
	BYTE		N06     An1   v076
	BYTE	W06
	BYTE		        An1   v092
	BYTE	W06
	BYTE		N11     Fn1   v116
	BYTE	W11
	BYTE		        Dn1   v100
	BYTE	W12
	BYTE		N05     Cn1   v104
	BYTE	W36
	BYTE	W01
	BYTE	GoTo
	 POIN2	CapOnNappers_1_B1
CapOnNappers_1_B2:
// 041   ----------------------------------------
	BYTE	FINE

//**************** Track 2 (Midi-Chn.2) ****************//

CapOnNappers_2:
	BYTE	KEYSH   CapOnNappers_key+0
CapOnNappers_2_B1:
// 000   ----------------------------------------
	BYTE		VOICE   127
	BYTE		VOL     100*CapOnNappers_mvl/mxv
	BYTE		PAN     c_v+0
	BYTE		MOD     0
	BYTE		VOL     70*CapOnNappers_mvl/mxv
	BYTE		PAN     c_v-10
	BYTE		N48     An2   v088
	BYTE	W96
// 001   ----------------------------------------
	BYTE	W96
// 002   ----------------------------------------
	BYTE	W96
// 003   ----------------------------------------
	BYTE	W84
	BYTE		N11     As1   v064
	BYTE	W12
// 004   ----------------------------------------
	BYTE		N24     Gn2   v088
	BYTE	W96
// 005   ----------------------------------------
	BYTE	W96
// 006   ----------------------------------------
	BYTE	W96
// 007   ----------------------------------------
	BYTE	W84
	BYTE		N11     As1   v064
	BYTE	W12
// 008   ----------------------------------------
	BYTE		N23     Gn2   v092
	BYTE	W24
	BYTE		N48     An2   v104
	BYTE	W72
// 009   ----------------------------------------
	BYTE	W96
// 010   ----------------------------------------
	BYTE	W96
// 011   ----------------------------------------
	BYTE	W84
	BYTE		N11     As1   v064
	BYTE	W12
// 012   ----------------------------------------
	BYTE		N24     Gn2   v088
	BYTE	W96
// 013   ----------------------------------------
	BYTE	W96
// 014   ----------------------------------------
	BYTE	W96
// 015   ----------------------------------------
	BYTE		N18     En2   v104
	BYTE	W24
	BYTE		        En2   v084
	BYTE	W24
	BYTE		N24     Gn2   v088
	BYTE	W24
	BYTE		N23     As1   v064
	BYTE	W24
// 016   ----------------------------------------
	BYTE		N48     An2   v088
	BYTE	W96
// 017   ----------------------------------------
	BYTE	W96
// 018   ----------------------------------------
	BYTE	W96
// 019   ----------------------------------------
	BYTE	W84
	BYTE		N11     As1   v064
	BYTE	W12
// 020   ----------------------------------------
	BYTE		N48     An2   v088
	BYTE	W96
// 021   ----------------------------------------
	BYTE	W96
// 022   ----------------------------------------
	BYTE	W96
// 023   ----------------------------------------
	BYTE	W84
	BYTE		N11     As1   v064
	BYTE	W12
// 024   ----------------------------------------
	BYTE		N48     Dn2   v100
	BYTE	W48
	BYTE		        An2   v096
	BYTE	W36
	BYTE		N09     As1   v060
	BYTE	W12
// 025   ----------------------------------------
	BYTE		N24     En2   v104
	BYTE	W48
	BYTE		        En2   v096
	BYTE	W12
	BYTE		N11     As1   v064
	BYTE	W36
// 026   ----------------------------------------
	BYTE		N24     En2   v104
	BYTE	W48
	BYTE		        En2   v096
	BYTE	W48
// 027   ----------------------------------------
	BYTE		        En2   v108
	BYTE	W48
	BYTE		N11     En2   v116
	BYTE	W12
	BYTE		        As1   v064
	BYTE	W36
// 028   ----------------------------------------
	BYTE		N32     An2   v088
	BYTE	W36
	BYTE		        Dn2 
	BYTE	W36
	BYTE		        An2 
	BYTE	W24
// 029   ----------------------------------------
	BYTE	W12
	BYTE		N12     Dn2 
	BYTE	W36
	BYTE		N09     As1   v080
	BYTE	W12
	BYTE		N48     An2   v088
	BYTE	W36
// 030   ----------------------------------------
	BYTE		N18     En2 
	BYTE	W24
	BYTE		        En2   v060
	BYTE	W24
	BYTE		        En2   v088
	BYTE	W24
	BYTE		        En2   v060
	BYTE	W24
// 031   ----------------------------------------
	BYTE		        En2   v088
	BYTE	W24
	BYTE		        En2   v060
	BYTE	W24
	BYTE		N11   
	BYTE	W12
	BYTE		N36     Dn2   v088
	BYTE	W36
// 032   ----------------------------------------
CapOnNappers_2_032:
	BYTE		N18     En2   v060
	BYTE	W24
	BYTE		        En2   v088
	BYTE	W24
	BYTE		        En2   v060
	BYTE	W24
	BYTE		        En2   v088
	BYTE	W24
	BYTE	PEND
// 033   ----------------------------------------
	BYTE		        En2   v060
	BYTE	W24
	BYTE		        En2   v088
	BYTE	W24
	BYTE		N11     En2   v060
	BYTE	W12
	BYTE		N48     An2   v088
	BYTE	W36
// 034   ----------------------------------------
	BYTE	PATT
	 POIN2	CapOnNappers_2_032
// 035   ----------------------------------------
	BYTE		N18     En2   v060
	BYTE	W24
	BYTE		        En2   v088
	BYTE	W24
	BYTE		N11     En2   v060
	BYTE	W12
	BYTE		N36     Dn2   v088
	BYTE	W36
// 036   ----------------------------------------
	BYTE	PATT
	 POIN2	CapOnNappers_2_032
// 037   ----------------------------------------
	BYTE		N18     En2   v060
	BYTE	W24
	BYTE		        En2   v088
	BYTE	W24
	BYTE		        En2   v060
	BYTE	W24
	BYTE		N24     Dn2   v088
	BYTE	W24
// 038   ----------------------------------------
	BYTE		N18     En2   v060
	BYTE	W24
	BYTE		        En2   v088
	BYTE	W23
	BYTE		        En2   v060
	BYTE	W24
	BYTE	W01
	BYTE		N24     An2   v088
	BYTE	W23
	BYTE		N18     En2   v060
	BYTE	W01
// 039   ----------------------------------------
	BYTE	W23
	BYTE		        En2   v088
	BYTE	W24
	BYTE	W01
	BYTE		        En2   v060
	BYTE	W24
	BYTE		        En2   v088
	BYTE	W24
// 040   ----------------------------------------
	BYTE	W48
	BYTE		N23     As1   v064
	BYTE	W48
	BYTE	GoTo
	 POIN2	CapOnNappers_2_B1
CapOnNappers_2_B2:
// 041   ----------------------------------------
	BYTE	FINE

//**************** Track 3 (Midi-Chn.3) ****************//

CapOnNappers_3:
	BYTE	KEYSH   CapOnNappers_key+0
CapOnNappers_3_B1:
// 000   ----------------------------------------
	BYTE		VOICE   47
	BYTE		VOL     100*CapOnNappers_mvl/mxv
	BYTE		PAN     c_v+0
	BYTE		MOD     0
	BYTE		VOL     120*CapOnNappers_mvl/mxv
	BYTE		PAN     c_v-20
	BYTE		N23     En2   v088
	BYTE	W36
	BYTE		        Bn1   v076
	BYTE	W36
	BYTE		        En2   v088
	BYTE	W24
// 001   ----------------------------------------
CapOnNappers_3_001:
	BYTE	W12
	BYTE		N23     Bn1   v076
	BYTE	W36
	BYTE		        En2   v088
	BYTE	W24
	BYTE		        Bn1   v076
	BYTE	W24
	BYTE	PEND
// 002   ----------------------------------------
CapOnNappers_3_002:
	BYTE		N23     En2   v088
	BYTE	W36
	BYTE		        Bn1   v076
	BYTE	W36
	BYTE		        En2   v088
	BYTE	W24
	BYTE	PEND
// 003   ----------------------------------------
CapOnNappers_3_003:
	BYTE	W12
	BYTE		N23     Bn1   v076
	BYTE	W36
	BYTE		        En2   v088
	BYTE	W24
	BYTE		N05     Bn1   v060
	BYTE	W06
	BYTE		        Bn1   v064
	BYTE	W06
	BYTE		        Bn1   v076
	BYTE	W06
	BYTE		        Bn1   v080
	BYTE	W06
	BYTE	PEND
// 004   ----------------------------------------
CapOnNappers_3_004:
	BYTE		N23     Cn2   v088
	BYTE	W36
	BYTE		        Gn2   v076
	BYTE	W36
	BYTE		        Cn2   v088
	BYTE	W24
	BYTE	PEND
// 005   ----------------------------------------
CapOnNappers_3_005:
	BYTE	W12
	BYTE		N23     Gn2   v076
	BYTE	W36
	BYTE		        Cn2   v088
	BYTE	W24
	BYTE		        Gn2   v076
	BYTE	W24
	BYTE	PEND
// 006   ----------------------------------------
	BYTE	PATT
	 POIN2	CapOnNappers_3_004
// 007   ----------------------------------------
	BYTE	W12
	BYTE		N23     Gn2   v076
	BYTE	W36
	BYTE		N05     Cn2   v044
	BYTE	W06
	BYTE		        Cn2   v048
	BYTE	W06
	BYTE		        Cn2   v056
	BYTE	W06
	BYTE		        Cn2   v060
	BYTE	W05
	BYTE		        Dn2   v064
	BYTE	W07
	BYTE		        Dn2   v068
	BYTE	W03
	BYTE	W03
	BYTE		        Dn2   v076
	BYTE	W02
	BYTE	W04
	BYTE		        Dn2   v080
	BYTE	W01
	BYTE	W04
	BYTE	W01
// 008   ----------------------------------------
	BYTE		N23     En2   v096
	BYTE	W36
	BYTE		        Bn1   v076
	BYTE	W36
	BYTE		        En2   v088
	BYTE	W24
// 009   ----------------------------------------
	BYTE	PATT
	 POIN2	CapOnNappers_3_001
// 010   ----------------------------------------
	BYTE	PATT
	 POIN2	CapOnNappers_3_002
// 011   ----------------------------------------
	BYTE	PATT
	 POIN2	CapOnNappers_3_003
// 012   ----------------------------------------
	BYTE	PATT
	 POIN2	CapOnNappers_3_004
// 013   ----------------------------------------
	BYTE	PATT
	 POIN2	CapOnNappers_3_005
// 014   ----------------------------------------
	BYTE	PATT
	 POIN2	CapOnNappers_3_004
// 015   ----------------------------------------
	BYTE	W12
	BYTE		N23     Gn2   v076
	BYTE	W36
	BYTE		N05     Cn2 
	BYTE	W06
	BYTE		        Cn2   v080
	BYTE	W03
	BYTE	W03
	BYTE		        Cn2   v076
	BYTE	W03
	BYTE	W03
	BYTE		        Cn2   v080
	BYTE	W03
	BYTE	W03
	BYTE		        Bn1   v076
	BYTE	W03
	BYTE	W03
	BYTE		        Bn1   v080
	BYTE	W03
	BYTE	W03
	BYTE		        Bn1   v096
	BYTE	W03
	BYTE	W03
	BYTE		        Bn1   v100
	BYTE	W03
	BYTE	W03
// 016   ----------------------------------------
	BYTE		N40     An1   v108
	BYTE	W54
	BYTE	W02
	BYTE	W01
	BYTE	W03
	BYTE	W36
// 017   ----------------------------------------
	BYTE	W96
// 018   ----------------------------------------
	BYTE	W96
// 019   ----------------------------------------
	BYTE	W96
// 020   ----------------------------------------
	BYTE	W96
// 021   ----------------------------------------
	BYTE	W96
// 022   ----------------------------------------
	BYTE	W96
// 023   ----------------------------------------
	BYTE	W48
	BYTE		N05     Dn2   v048
	BYTE	W06
	BYTE		        Dn2   v052
	BYTE	W06
	BYTE		        Dn2   v048
	BYTE	W06
	BYTE		        Dn2   v052
	BYTE	W06
	BYTE		        Bn1   v048
	BYTE	W06
	BYTE		        Bn1   v052
	BYTE	W06
	BYTE		        Bn1   v068
	BYTE	W06
	BYTE		        Bn1   v072
	BYTE	W06
// 024   ----------------------------------------
	BYTE		N32     Cn2   v096
	BYTE	W96
// 025   ----------------------------------------
	BYTE	W96
// 026   ----------------------------------------
	BYTE	W96
// 027   ----------------------------------------
	BYTE	W96
// 028   ----------------------------------------
	BYTE	W96
// 029   ----------------------------------------
	BYTE	W19
	BYTE	W02
	BYTE	W03
	BYTE		N05     Bn1   v100
	BYTE	W06
	BYTE		        Bn1   v104
	BYTE	W03
	BYTE	W03
	BYTE		N32     Bn1   v116
	BYTE	W02
	BYTE	W10
	BYTE	W05
	BYTE	W05
	BYTE	W05
	BYTE	W05
	BYTE	W05
	BYTE	W05
	BYTE	W05
	BYTE	W05
	BYTE	W08
// 030   ----------------------------------------
	BYTE		N11     Cn2   v080
	BYTE	W12
	BYTE		N23     Cn2   v076
	BYTE	W48
	BYTE		        Cn2   v068
	BYTE	W24
	BYTE		N11     Cn2   v088
	BYTE	W12
// 031   ----------------------------------------
	BYTE		N23   
	BYTE	W24
	BYTE		N11   
	BYTE	W12
	BYTE		N24   
	BYTE	W60
// 032   ----------------------------------------
	BYTE		N11     As1   v080
	BYTE	W12
	BYTE		N23     As1   v076
	BYTE	W48
	BYTE		        As1   v068
	BYTE	W24
	BYTE		N11     As1   v088
	BYTE	W12
// 033   ----------------------------------------
	BYTE		N23   
	BYTE	W24
	BYTE		N11   
	BYTE	W12
	BYTE		N24   
	BYTE	W60
// 034   ----------------------------------------
	BYTE		N23     As1   v080
	BYTE	W36
	BYTE		        As1   v068
	BYTE	W36
	BYTE		N05     As1   v048
	BYTE	W06
	BYTE		        As1   v052
	BYTE	W06
	BYTE		        As1   v068
	BYTE	W06
	BYTE		        As1   v072
	BYTE	W06
// 035   ----------------------------------------
	BYTE		N11     As1   v088
	BYTE	W12
	BYTE		N23   
	BYTE	W24
	BYTE		N24   
	BYTE	W60
// 036   ----------------------------------------
	BYTE		N11     Dn2   v080
	BYTE	W12
	BYTE		N23     An1   v076
	BYTE	W48
	BYTE		        Dn2   v068
	BYTE	W24
	BYTE		N11     Dn2   v088
	BYTE	W12
// 037   ----------------------------------------
	BYTE		N23   
	BYTE	W24
	BYTE		N11     An1 
	BYTE	W12
	BYTE		N24     Dn2 
	BYTE	W60
// 038   ----------------------------------------
	BYTE		N11     Dn2   v092
	BYTE	W12
	BYTE		N23     An1   v088
	BYTE	W48
	BYTE		        Dn2   v080
	BYTE	W24
	BYTE		N11     Dn2   v100
	BYTE	W12
// 039   ----------------------------------------
	BYTE		N23   
	BYTE	W24
	BYTE		N11     An1 
	BYTE	W12
	BYTE		N24     Dn2 
	BYTE	W60
// 040   ----------------------------------------
	BYTE	W96
	BYTE	GoTo
	 POIN2	CapOnNappers_3_B1
CapOnNappers_3_B2:
// 041   ----------------------------------------
	BYTE	FINE

//**************** Track 4 (Midi-Chn.4) ****************//

CapOnNappers_4:
	BYTE	KEYSH   CapOnNappers_key+0
CapOnNappers_4_B1:
// 000   ----------------------------------------
	BYTE		VOICE   34
	BYTE		VOL     100*CapOnNappers_mvl/mxv
	BYTE		PAN     c_v+0
	BYTE		MOD     0
	BYTE		VOL     110*CapOnNappers_mvl/mxv
	BYTE		PAN     c_v+4
	BYTE		N11     En1   v112
	BYTE	W12
	BYTE		        En2   v092
	BYTE	W12
	BYTE		        En1   v112
	BYTE	W12
	BYTE		        En2   v092
	BYTE	W12
	BYTE		        En1   v112
	BYTE	W12
	BYTE		        En2   v092
	BYTE	W12
	BYTE		        En1   v112
	BYTE	W12
	BYTE		        En2   v092
	BYTE	W12
// 001   ----------------------------------------
CapOnNappers_4_001:
	BYTE		N11     En1   v112
	BYTE	W12
	BYTE		        En2   v092
	BYTE	W12
	BYTE		        En1   v112
	BYTE	W12
	BYTE		        En2   v092
	BYTE	W12
	BYTE		        En1   v112
	BYTE	W12
	BYTE		        En2   v092
	BYTE	W12
	BYTE		        Dn1   v112
	BYTE	W12
	BYTE		        Dn2   v092
	BYTE	W12
	BYTE	PEND
// 002   ----------------------------------------
CapOnNappers_4_002:
	BYTE		N11     En1   v112
	BYTE	W12
	BYTE		        En2   v092
	BYTE	W12
	BYTE		        En1   v112
	BYTE	W12
	BYTE		        En2   v092
	BYTE	W12
	BYTE		        En1   v112
	BYTE	W12
	BYTE		        En2   v092
	BYTE	W12
	BYTE		        En1   v112
	BYTE	W12
	BYTE		        En2   v092
	BYTE	W12
	BYTE	PEND
// 003   ----------------------------------------
CapOnNappers_4_003:
	BYTE		N11     En1   v112
	BYTE	W12
	BYTE		        En2   v092
	BYTE	W12
	BYTE		        En1   v112
	BYTE	W12
	BYTE		        En2   v084
	BYTE	W12
	BYTE		        Bn1   v112
	BYTE	W12
	BYTE		        Bn2 
	BYTE	W12
	BYTE		        Dn2 
	BYTE	W12
	BYTE		        Dn3   v084
	BYTE	W12
	BYTE	PEND
// 004   ----------------------------------------
CapOnNappers_4_004:
	BYTE		N11     Cn2   v112
	BYTE	W12
	BYTE		        Cn3   v096
	BYTE	W12
	BYTE		        Cn2   v112
	BYTE	W12
	BYTE		        Cn3   v096
	BYTE	W12
	BYTE		        Cn2   v112
	BYTE	W12
	BYTE		        Cn3   v096
	BYTE	W12
	BYTE		        Cn2   v112
	BYTE	W12
	BYTE		        Cn3   v096
	BYTE	W12
	BYTE	PEND
// 005   ----------------------------------------
CapOnNappers_4_005:
	BYTE		N11     Cn2   v112
	BYTE	W12
	BYTE		        Cn3   v096
	BYTE	W12
	BYTE		        Cn2   v112
	BYTE	W12
	BYTE		        Cn3   v096
	BYTE	W12
	BYTE		        Cn2   v112
	BYTE	W12
	BYTE		        Cn3   v096
	BYTE	W12
	BYTE		        Bn1   v112
	BYTE	W12
	BYTE		        Bn2   v096
	BYTE	W12
	BYTE	PEND
// 006   ----------------------------------------
	BYTE	PATT
	 POIN2	CapOnNappers_4_004
// 007   ----------------------------------------
	BYTE		N11     Cn2   v112
	BYTE	W12
	BYTE		        Cn3   v096
	BYTE	W12
	BYTE		        Cn2   v112
	BYTE	W12
	BYTE		        Cn3   v096
	BYTE	W12
	BYTE		        Cn2   v112
	BYTE	W12
	BYTE		        Cn3   v096
	BYTE	W12
	BYTE		        Dn2   v112
	BYTE	W12
	BYTE		        Dn3   v096
	BYTE	W12
// 008   ----------------------------------------
	BYTE	PATT
	 POIN2	CapOnNappers_4_002
// 009   ----------------------------------------
	BYTE	PATT
	 POIN2	CapOnNappers_4_001
// 010   ----------------------------------------
	BYTE	PATT
	 POIN2	CapOnNappers_4_002
// 011   ----------------------------------------
	BYTE	PATT
	 POIN2	CapOnNappers_4_003
// 012   ----------------------------------------
	BYTE	PATT
	 POIN2	CapOnNappers_4_004
// 013   ----------------------------------------
	BYTE	PATT
	 POIN2	CapOnNappers_4_005
// 014   ----------------------------------------
	BYTE	PATT
	 POIN2	CapOnNappers_4_004
// 015   ----------------------------------------
	BYTE	PATT
	 POIN2	CapOnNappers_4_005
// 016   ----------------------------------------
	BYTE		N56     An1   v112
	BYTE	W60
	BYTE		N11     En2 
	BYTE	W12
	BYTE		        Dn2 
	BYTE	W12
	BYTE		        Cn2 
	BYTE	W12
// 017   ----------------------------------------
	BYTE		N44     Bn1 
	BYTE	W48
	BYTE		        Fs2 
	BYTE	W48
// 018   ----------------------------------------
	BYTE		N56     En2 
	BYTE	W60
	BYTE		N11   
	BYTE	W12
	BYTE		        Gn2 
	BYTE	W12
	BYTE		        Bn1 
	BYTE	W12
// 019   ----------------------------------------
	BYTE		N44     Dn2 
	BYTE	W48
	BYTE		        Bn1 
	BYTE	W48
// 020   ----------------------------------------
	BYTE		N56     Cn2 
	BYTE	W60
	BYTE		N11     En2 
	BYTE	W12
	BYTE		        Dn2 
	BYTE	W12
	BYTE		        Cn2 
	BYTE	W11
	BYTE		N44     Bn1 
	BYTE	W01
// 021   ----------------------------------------
	BYTE	W44
	BYTE	W03
	BYTE		        Fs2 
	BYTE	W48
	BYTE		N32     Gn2 
	BYTE	W01
// 022   ----------------------------------------
	BYTE	W36
	BYTE		N56     En2 
	BYTE	W56
	BYTE	W03
	BYTE		N44     Dn2 
	BYTE	W01
// 023   ----------------------------------------
	BYTE	W44
	BYTE	W03
	BYTE		        Bn1 
	BYTE	W48
	BYTE	W01
// 024   ----------------------------------------
	BYTE		N11     An1 
	BYTE	W12
	BYTE		        An2   v092
	BYTE	W12
	BYTE		        An1   v112
	BYTE	W12
	BYTE		        An2   v092
	BYTE	W12
	BYTE		        An1   v112
	BYTE	W12
	BYTE		        An2   v092
	BYTE	W12
	BYTE		        An1   v112
	BYTE	W12
	BYTE		        An2   v092
	BYTE	W12
// 025   ----------------------------------------
	BYTE		        Dn2   v112
	BYTE	W12
	BYTE		        Dn3   v092
	BYTE	W12
	BYTE		        Dn2   v112
	BYTE	W12
	BYTE		        Dn3   v092
	BYTE	W12
	BYTE		        Dn2   v112
	BYTE	W12
	BYTE		        Dn3   v092
	BYTE	W12
	BYTE		        Dn2   v112
	BYTE	W12
	BYTE		        Dn3   v092
	BYTE	W12
// 026   ----------------------------------------
	BYTE	PATT
	 POIN2	CapOnNappers_4_002
// 027   ----------------------------------------
	BYTE	PATT
	 POIN2	CapOnNappers_4_003
// 028   ----------------------------------------
	BYTE		N11     Cn2   v112
	BYTE	W12
	BYTE		        Cn3   v096
	BYTE	W12
	BYTE		        Cn2   v112
	BYTE	W12
	BYTE		        Dn3   v096
	BYTE	W12
	BYTE		        Dn2   v112
	BYTE	W12
	BYTE		        Dn3   v096
	BYTE	W12
	BYTE		        En1   v112
	BYTE	W12
	BYTE		        En2   v096
	BYTE	W12
// 029   ----------------------------------------
	BYTE		        En1   v112
	BYTE	W12
	BYTE		        Fs2   v096
	BYTE	W36
	BYTE		        Bn1   v112
	BYTE	W12
	BYTE		N23     Cn2 
	BYTE	W24
	BYTE		N11     Cn3   v096
	BYTE	W12
// 030   ----------------------------------------
	BYTE	PATT
	 POIN2	CapOnNappers_4_004
// 031   ----------------------------------------
	BYTE		N11     Cn2   v112
	BYTE	W12
	BYTE		        Cn3   v096
	BYTE	W12
	BYTE		        Cn2   v112
	BYTE	W12
	BYTE		        Cn3   v096
	BYTE	W12
	BYTE		        Cn2   v112
	BYTE	W12
	BYTE		N23     As1 
	BYTE	W24
	BYTE		N11     As2   v096
	BYTE	W12
// 032   ----------------------------------------
	BYTE		        As1   v112
	BYTE	W12
	BYTE		        As2   v096
	BYTE	W12
	BYTE		        As1   v112
	BYTE	W12
	BYTE		        As2   v096
	BYTE	W12
	BYTE		        As1   v112
	BYTE	W12
	BYTE		        As2   v096
	BYTE	W12
	BYTE		        As1   v112
	BYTE	W12
	BYTE		        As2   v096
	BYTE	W12
// 033   ----------------------------------------
	BYTE		        As1   v112
	BYTE	W12
	BYTE		        As2   v096
	BYTE	W12
	BYTE		        As1   v112
	BYTE	W12
	BYTE		        As2   v096
	BYTE	W12
	BYTE		        As1   v112
	BYTE	W12
	BYTE		N23     Ds2 
	BYTE	W24
	BYTE		N11     Ds3   v096
	BYTE	W12
// 034   ----------------------------------------
	BYTE		        Ds2   v112
	BYTE	W12
	BYTE		        Ds3   v096
	BYTE	W12
	BYTE		        Ds2   v112
	BYTE	W12
	BYTE		        Ds3   v096
	BYTE	W12
	BYTE		        Ds2   v112
	BYTE	W12
	BYTE		        Ds3   v096
	BYTE	W12
	BYTE		        Ds2   v112
	BYTE	W12
	BYTE		        Ds3   v096
	BYTE	W12
// 035   ----------------------------------------
	BYTE		        Ds2   v112
	BYTE	W12
	BYTE		        Ds3   v096
	BYTE	W12
	BYTE		        Ds2   v112
	BYTE	W12
	BYTE		        Ds3   v096
	BYTE	W12
	BYTE		        Ds2   v112
	BYTE	W12
	BYTE		N23     Dn2 
	BYTE	W24
	BYTE		N11     Dn3   v096
	BYTE	W12
// 036   ----------------------------------------
CapOnNappers_4_036:
	BYTE		N11     Dn2   v112
	BYTE	W12
	BYTE		        Dn3   v096
	BYTE	W12
	BYTE		        Dn2   v112
	BYTE	W12
	BYTE		        Dn3   v096
	BYTE	W12
	BYTE		        Dn2   v112
	BYTE	W12
	BYTE		        Dn3   v096
	BYTE	W12
	BYTE		        Dn2   v112
	BYTE	W12
	BYTE		        Dn3   v096
	BYTE	W12
	BYTE	PEND
// 037   ----------------------------------------
	BYTE	PATT
	 POIN2	CapOnNappers_4_036
// 038   ----------------------------------------
	BYTE	PATT
	 POIN2	CapOnNappers_4_036
// 039   ----------------------------------------
	BYTE		N11     Dn2   v112
	BYTE	W12
	BYTE		        Dn3   v096
	BYTE	W12
	BYTE		        Dn2   v112
	BYTE	W12
	BYTE		        Dn3   v096
	BYTE	W12
	BYTE		        Dn2   v112
	BYTE	W12
	BYTE		        Dn3   v096
	BYTE	W36
// 040   ----------------------------------------
	BYTE	W96
	BYTE	GoTo
	 POIN2	CapOnNappers_4_B1
CapOnNappers_4_B2:
// 041   ----------------------------------------
	BYTE	FINE

//**************** Track 5 (Midi-Chn.5) ****************//

CapOnNappers_5:
	BYTE	KEYSH   CapOnNappers_key+0
CapOnNappers_5_B1:
// 000   ----------------------------------------
	BYTE		VOICE   57
	BYTE		VOL     100*CapOnNappers_mvl/mxv
	BYTE		PAN     c_v+0
	BYTE		MOD     0
	BYTE		VOL     123*CapOnNappers_mvl/mxv
	BYTE		PAN     c_v+17
	BYTE		N05     Bn2   v100
	BYTE	W12
	BYTE		N07     Bn2   v080
	BYTE	W12
	BYTE		N11     Gn3 
	BYTE	W12
	BYTE		        Fs3   v088
	BYTE	W24
	BYTE		N09     Dn3   v080
	BYTE	W12
	BYTE		N92     En3   v072
	BYTE	W24
// 001   ----------------------------------------
	BYTE	W96
// 002   ----------------------------------------
	BYTE		N05     Bn2   v100
	BYTE	W12
	BYTE		N07     Bn2   v080
	BYTE	W12
	BYTE		N11     Gn3 
	BYTE	W12
	BYTE		        Fs3   v088
	BYTE	W24
	BYTE		N09     Dn3   v080
	BYTE	W24
	BYTE		N21     En3   v084
	BYTE	W12
// 003   ----------------------------------------
CapOnNappers_5_003:
	BYTE	W12
	BYTE		N10     Fs3   v076
	BYTE	W12
	BYTE		N48     Gn3 
	BYTE	W72
	BYTE	PEND
// 004   ----------------------------------------
	BYTE		N05     Cn3   v100
	BYTE	W12
	BYTE		N07     Cn3   v080
	BYTE	W12
	BYTE		N11     Gn3 
	BYTE	W12
	BYTE		        Fs3   v088
	BYTE	W24
	BYTE		N09     Dn3   v080
	BYTE	W12
	BYTE		N92     En3   v072
	BYTE	W24
// 005   ----------------------------------------
	BYTE	W96
// 006   ----------------------------------------
	BYTE		N05     Cn3   v100
	BYTE	W12
	BYTE		N07     Cn3   v080
	BYTE	W12
	BYTE		N11     Gn3 
	BYTE	W12
	BYTE		        Fs3   v088
	BYTE	W24
	BYTE		N09     Dn3   v080
	BYTE	W24
	BYTE		N21     En3   v084
	BYTE	W12
// 007   ----------------------------------------
	BYTE	PATT
	 POIN2	CapOnNappers_5_003
// 008   ----------------------------------------
CapOnNappers_5_008:
	BYTE		N05     Gn3   v092
	BYTE	W12
	BYTE		N07     Gn3   v072
	BYTE	W12
	BYTE		N11     Bn3 
	BYTE	W12
	BYTE		        An3   v080
	BYTE	W24
	BYTE		N09     Fs3   v072
	BYTE	W12
	BYTE		N92     Gn3 
	BYTE	W24
	BYTE	PEND
// 009   ----------------------------------------
	BYTE	W84
	BYTE	W01
	BYTE		PAN     c_v+18
	BYTE	W01
	BYTE		        c_v+19
	BYTE	W01
	BYTE		        c_v+20
	BYTE	W01
	BYTE		        c_v+21
	BYTE	W01
	BYTE		        c_v+23
	BYTE	W07
// 010   ----------------------------------------
	BYTE		N05     Gn3   v092
	BYTE	W12
	BYTE		N07     Gn3   v072
	BYTE	W12
	BYTE		N11     Bn3 
	BYTE	W12
	BYTE		        An3   v080
	BYTE	W24
	BYTE		N09     Fs3   v072
	BYTE	W24
	BYTE		N21     Gn3   v076
	BYTE	W12
// 011   ----------------------------------------
	BYTE	W12
	BYTE		N10     An3   v068
	BYTE	W12
	BYTE		N48     Bn3   v060
	BYTE	W72
// 012   ----------------------------------------
	BYTE	PATT
	 POIN2	CapOnNappers_5_008
// 013   ----------------------------------------
	BYTE	W96
// 014   ----------------------------------------
	BYTE		N05     Gn3   v092
	BYTE	W12
	BYTE		N07     Gn3   v072
	BYTE	W12
	BYTE		N11     Bn3 
	BYTE	W12
	BYTE		        An3   v080
	BYTE	W24
	BYTE		N09     Fs3   v072
	BYTE	W07
	BYTE	W17
	BYTE		N21     Bn3   v076
	BYTE	W08
	BYTE	W04
// 015   ----------------------------------------
	BYTE	W12
	BYTE		N10     Cn4   v080
	BYTE	W01
	BYTE	W11
	BYTE		N68     Dn4   v076
	BYTE	W06
	BYTE	W08
	BYTE	W09
	BYTE	W08
	BYTE	W07
	BYTE		VOL     124*CapOnNappers_mvl/mxv
	BYTE	W01
	BYTE	W02
	BYTE		        125*CapOnNappers_mvl/mxv
	BYTE	W03
	BYTE		        127*CapOnNappers_mvl/mxv
	BYTE	W04
	BYTE	W24
// 016   ----------------------------------------
	BYTE	W04
	BYTE		        126*CapOnNappers_mvl/mxv
	BYTE	W03
	BYTE		        125*CapOnNappers_mvl/mxv
	BYTE	W01
	BYTE		PAN     c_v+21
	BYTE	W01
	BYTE		        c_v+20
	BYTE		VOL     123*CapOnNappers_mvl/mxv
	BYTE	W01
	BYTE		PAN     c_v+19
	BYTE	W01
	BYTE		        c_v+17
	BYTE	W68
	BYTE		VOL     122*CapOnNappers_mvl/mxv
	BYTE	W02
	BYTE		        121*CapOnNappers_mvl/mxv
	BYTE	W03
	BYTE		        120*CapOnNappers_mvl/mxv
	BYTE	W02
	BYTE		        119*CapOnNappers_mvl/mxv
	BYTE	W02
	BYTE		        118*CapOnNappers_mvl/mxv
	BYTE	W02
	BYTE		        117*CapOnNappers_mvl/mxv
	BYTE	W03
	BYTE		        116*CapOnNappers_mvl/mxv
	BYTE	W02
	BYTE		        115*CapOnNappers_mvl/mxv
	BYTE	W01
// 017   ----------------------------------------
	BYTE	W01
	BYTE		        113*CapOnNappers_mvl/mxv
	BYTE	W92
	BYTE	W03
// 018   ----------------------------------------
	BYTE	W96
// 019   ----------------------------------------
	BYTE	W96
// 020   ----------------------------------------
	BYTE	W96
// 021   ----------------------------------------
	BYTE	W96
// 022   ----------------------------------------
	BYTE	W66
	BYTE	W01
	BYTE	W01
	BYTE	W01
	BYTE	W01
	BYTE	W01
	BYTE	W01
	BYTE	W01
	BYTE	W01
	BYTE	W01
	BYTE	W01
	BYTE	W09
	BYTE		PAN     c_v+16
	BYTE	W01
	BYTE		        c_v+10
	BYTE	W01
	BYTE		        c_v+7
	BYTE	W01
	BYTE		        c_v+2
	BYTE	W01
	BYTE		        c_v-4
	BYTE	W01
	BYTE		        c_v-7
	BYTE	W01
	BYTE		        c_v-12
	BYTE	W01
	BYTE		        c_v-16
	BYTE	W04
// 023   ----------------------------------------
	BYTE		N92     Bn2 
	BYTE	W16
	BYTE		PAN     c_v-15
	BYTE	W03
	BYTE	W01
	BYTE	W02
	BYTE	W01
	BYTE	W02
	BYTE	W01
	BYTE	W02
	BYTE	W01
	BYTE	W01
	BYTE		        c_v-14
	BYTE	W01
	BYTE	W01
	BYTE	W02
	BYTE	W01
	BYTE	W02
	BYTE	W01
	BYTE	W02
	BYTE	W01
	BYTE		        c_v-13
	BYTE	W02
	BYTE	W01
	BYTE	W02
	BYTE	W01
	BYTE	W01
	BYTE		        c_v-12
	BYTE	W01
	BYTE	W01
	BYTE	W02
	BYTE	W01
	BYTE	W01
	BYTE		        c_v-11
	BYTE	W01
	BYTE	W01
	BYTE	W02
	BYTE	W01
	BYTE		        c_v-10
	BYTE	W02
	BYTE	W01
	BYTE	W01
	BYTE		        c_v-9
	BYTE	W01
	BYTE	W01
	BYTE	W02
	BYTE	W01
	BYTE		        c_v-8
	BYTE	W02
	BYTE		        c_v-7
	BYTE	W01
	BYTE	W01
	BYTE		        c_v-6
	BYTE	W01
	BYTE	W01
	BYTE		        c_v-5
	BYTE	W02
	BYTE	W01
	BYTE		        c_v-4
	BYTE	W02
	BYTE		        c_v-2
	BYTE	W01
	BYTE	W01
	BYTE		        c_v+0
	BYTE	W01
	BYTE	W01
	BYTE		        c_v+2
	BYTE	W01
	BYTE	W02
	BYTE		        c_v+5
	BYTE	W02
	BYTE		        c_v+8
	BYTE	W02
	BYTE		        c_v+13
	BYTE	W02
	BYTE		        c_v+19
	BYTE	W03
	BYTE		        c_v+28
	BYTE	W01
// 024   ----------------------------------------
	BYTE		N56     En3   v064
	BYTE	W60
	BYTE		N11     Cn3 
	BYTE	W12
	BYTE		N08     En3   v076
	BYTE	W12
	BYTE		N09     Gn3   v084
	BYTE	W12
// 025   ----------------------------------------
	BYTE		N92     Fs3   v072
	BYTE	W96
// 026   ----------------------------------------
	BYTE		        Gn3   v064
	BYTE	W96
// 027   ----------------------------------------
	BYTE		N88     Bn3 
	BYTE	W36
	BYTE	W01
	BYTE		MOD     1
	BYTE	W12
	BYTE		        2
	BYTE	W06
	BYTE		        3
	BYTE	W03
	BYTE		        4
	BYTE	W03
	BYTE		        5
	BYTE	W03
	BYTE		        6
	BYTE	W03
	BYTE		        8
	BYTE	W03
	BYTE		        10
	BYTE	W03
	BYTE		        15
	BYTE	W03
	BYTE		        23
	BYTE	W01
	BYTE		        16
	BYTE	W01
	BYTE		        13
	BYTE	W01
	BYTE		        9
	BYTE	W01
	BYTE		        2
	BYTE	W01
	BYTE		        0
	BYTE	W11
	BYTE		PAN     c_v+27
	BYTE	W01
	BYTE		        c_v+25
	BYTE	W01
	BYTE		        c_v+22
	BYTE	W01
	BYTE		        c_v+19
	BYTE	W01
// 028   ----------------------------------------
	BYTE		        c_v+17
	BYTE		N28     Gn2   v084
	BYTE	W36
	BYTE		        An2 
	BYTE	W36
	BYTE		        Bn2   v096
	BYTE	W24
// 029   ----------------------------------------
	BYTE	W12
	BYTE		N12     Dn3   v100
	BYTE	W84
// 030   ----------------------------------------
	BYTE	W23
	BYTE		N36     Fn2 
	BYTE	W01
	BYTE	W02
	BYTE	W01
	BYTE	W02
	BYTE	W01
	BYTE	W02
	BYTE	W01
	BYTE	W02
	BYTE	W01
	BYTE	W02
	BYTE	W01
	BYTE	W02
	BYTE	W01
	BYTE	W02
	BYTE	W01
	BYTE	W02
	BYTE	W01
	BYTE	W02
	BYTE	W01
	BYTE	W02
	BYTE	W01
	BYTE	W02
	BYTE	W01
	BYTE	W02
	BYTE	W01
	BYTE		N01     Dn3   v108
	BYTE	W01
	BYTE		        En3 
	BYTE	W02
	BYTE		        Fn3 
	BYTE	W02
	BYTE		        Gn3   v112
	BYTE	W02
	BYTE		        An3   v092
	BYTE	W02
	BYTE		N02     Bn3   v096
	BYTE	W03
	BYTE		TIE     Cn4   v056
	BYTE	W24
// 031   ----------------------------------------
	BYTE	W96
// 032   ----------------------------------------
	BYTE	W21
	BYTE	W52
	BYTE	W01
	BYTE	W22
// 033   ----------------------------------------
	BYTE	W19
	BYTE	W24
	BYTE	W02
	BYTE	W24
	BYTE	W03
	BYTE	W13
	BYTE	W11
// 034   ----------------------------------------
	BYTE	W03
	BYTE	W13
	BYTE	W13
	BYTE	W14
	BYTE	W13
	BYTE	W13
	BYTE	W14
	BYTE	W13
// 035   ----------------------------------------
	BYTE	W28
	BYTE	W01
	BYTE	W22
	BYTE	W22
	BYTE	W15
	BYTE	W08
// 036   ----------------------------------------
	BYTE	W07
	BYTE	W07
	BYTE	W15
	BYTE	W07
	BYTE	W07
	BYTE	W08
	BYTE	W07
	BYTE	W07
	BYTE	W08
	BYTE	W07
	BYTE	W07
	BYTE	W08
	BYTE	W01
// 037   ----------------------------------------
	BYTE	W06
	BYTE	W52
	BYTE	W01
	BYTE		EOT   
	BYTE	W01
	BYTE		TIE     An2   v084
	BYTE	W02
	BYTE	W01
	BYTE	W02
	BYTE	W01
	BYTE	W01
	BYTE		PAN     c_v+18
	BYTE	W01
	BYTE		        c_v+19
	BYTE	W01
	BYTE		        c_v+21
	BYTE	W01
	BYTE		        c_v+24
	BYTE	W01
	BYTE	W01
	BYTE	W02
	BYTE	W01
	BYTE	W02
	BYTE	W01
	BYTE	W02
	BYTE	W01
	BYTE	W02
	BYTE	W01
	BYTE	W02
	BYTE	W01
	BYTE	W02
	BYTE	W01
	BYTE	W02
	BYTE	W01
	BYTE	W02
	BYTE	W01
// 038   ----------------------------------------
	BYTE	W01
	BYTE	W64
	BYTE		EOT   
	BYTE		N02     As2   v112
	BYTE	W02
	BYTE		N01     Bn2   v092
	BYTE	W02
	BYTE		N02     Cs3   v096
	BYTE	W03
	BYTE		N90     Dn3   v084
	BYTE	W02
	BYTE	W01
	BYTE	W02
	BYTE	W01
	BYTE	W02
	BYTE	W01
	BYTE	W02
	BYTE	W01
	BYTE	W02
	BYTE	W01
	BYTE	W02
	BYTE	W01
	BYTE	W02
	BYTE	W01
	BYTE	W02
	BYTE	W01
// 039   ----------------------------------------
	BYTE	W02
	BYTE	W01
	BYTE	W02
	BYTE	W01
	BYTE	W02
	BYTE	W01
	BYTE	W02
	BYTE	W01
	BYTE	W02
	BYTE	W01
	BYTE	W02
	BYTE	W01
	BYTE	W02
	BYTE	W01
	BYTE	W02
	BYTE	W01
	BYTE	W02
	BYTE	W01
	BYTE	W02
	BYTE	W01
	BYTE	W02
	BYTE	W01
	BYTE	W02
	BYTE	W01
	BYTE	W03
	BYTE	W02
	BYTE	W01
	BYTE	W02
	BYTE	W01
	BYTE	W02
	BYTE	W48
	BYTE	W01
// 040   ----------------------------------------
	BYTE	W96
	BYTE	GoTo
	 POIN2	CapOnNappers_5_B1
CapOnNappers_5_B2:
// 041   ----------------------------------------
	BYTE	FINE

//**************** Track 6 (Midi-Chn.6) ****************//

CapOnNappers_6:
	BYTE	KEYSH   CapOnNappers_key+0
CapOnNappers_6_B1:
// 000   ----------------------------------------
	BYTE		VOICE   60
	BYTE		VOL     100*CapOnNappers_mvl/mxv
	BYTE		PAN     c_v+0
	BYTE		MOD     0
	BYTE		VOL     108*CapOnNappers_mvl/mxv
	BYTE		PAN     c_v-29
	BYTE		N05     Bn2   v116
	BYTE	W12
	BYTE		N07     Bn2   v096
	BYTE	W12
	BYTE		N11     Gn3 
	BYTE	W12
	BYTE		        Fs3   v104
	BYTE	W24
	BYTE		N09     Dn3   v096
	BYTE	W12
	BYTE		N92     En3   v112
	BYTE	W24
// 001   ----------------------------------------
	BYTE	W96
// 002   ----------------------------------------
CapOnNappers_6_002:
	BYTE		N05     Bn2   v116
	BYTE	W12
	BYTE		N07     Bn2   v096
	BYTE	W12
	BYTE		N11     Gn3 
	BYTE	W12
	BYTE		        Fs3   v104
	BYTE	W24
	BYTE		N09     Dn3   v096
	BYTE	W24
	BYTE		N21     En3   v100
	BYTE	W12
	BYTE	PEND
// 003   ----------------------------------------
CapOnNappers_6_003:
	BYTE	W12
	BYTE		N10     Fs3   v092
	BYTE	W12
	BYTE		N56     Gn3   v080
	BYTE	W72
	BYTE	PEND
// 004   ----------------------------------------
CapOnNappers_6_004:
	BYTE		N05     Cn3   v116
	BYTE	W12
	BYTE		N07     Cn3   v096
	BYTE	W12
	BYTE		N11     Gn3 
	BYTE	W12
	BYTE		        Fs3   v104
	BYTE	W24
	BYTE		N09     Dn3   v096
	BYTE	W12
	BYTE		N92     En3   v112
	BYTE	W24
	BYTE	PEND
// 005   ----------------------------------------
	BYTE	W96
// 006   ----------------------------------------
	BYTE		N05     Cn3   v116
	BYTE	W12
	BYTE		N07     Cn3   v096
	BYTE	W12
	BYTE		N11     Gn3 
	BYTE	W12
	BYTE		        Fs3   v104
	BYTE	W24
	BYTE		N09     Dn3   v096
	BYTE	W24
	BYTE		N21     En3   v100
	BYTE	W12
// 007   ----------------------------------------
	BYTE	PATT
	 POIN2	CapOnNappers_6_003
// 008   ----------------------------------------
	BYTE		N05     Bn2   v116
	BYTE	W12
	BYTE		N07     Bn2   v096
	BYTE	W12
	BYTE		N11     Gn3 
	BYTE	W12
	BYTE		        Fs3   v104
	BYTE	W24
	BYTE		N09     Dn3   v096
	BYTE	W12
	BYTE		N92     En3   v112
	BYTE	W24
// 009   ----------------------------------------
	BYTE	W96
// 010   ----------------------------------------
	BYTE	PATT
	 POIN2	CapOnNappers_6_002
// 011   ----------------------------------------
	BYTE	PATT
	 POIN2	CapOnNappers_6_003
// 012   ----------------------------------------
	BYTE	PATT
	 POIN2	CapOnNappers_6_004
// 013   ----------------------------------------
	BYTE	W96
// 014   ----------------------------------------
	BYTE		N05     Cn3   v116
	BYTE	W12
	BYTE		N07     Cn3   v096
	BYTE	W12
	BYTE		N11     Gn3   v104
	BYTE	W12
	BYTE		        Fs3   v112
	BYTE	W16
	BYTE	W08
	BYTE		N09     Dn3   v104
	BYTE	W11
	BYTE	W12
	BYTE	W01
	BYTE		N21     En3   v108
	BYTE	W11
	BYTE	W01
// 015   ----------------------------------------
	BYTE	W10
	BYTE	W02
	BYTE		N10     Fs3   v096
	BYTE	W06
	BYTE	W04
	BYTE	W02
	BYTE		N68     Gn3   v100
	BYTE	W06
	BYTE	W04
	BYTE	W01
	BYTE		VOL     109*CapOnNappers_mvl/mxv
	BYTE	W03
	BYTE	W03
	BYTE		        110*CapOnNappers_mvl/mxv
	BYTE	W04
	BYTE	W01
	BYTE		        111*CapOnNappers_mvl/mxv
	BYTE	W03
	BYTE	W03
	BYTE		        112*CapOnNappers_mvl/mxv
	BYTE	W01
	BYTE	W02
	BYTE		        113*CapOnNappers_mvl/mxv
	BYTE	W02
	BYTE	W04
	BYTE		        115*CapOnNappers_mvl/mxv
	BYTE	W02
	BYTE		        116*CapOnNappers_mvl/mxv
	BYTE	W02
	BYTE	W01
	BYTE		        117*CapOnNappers_mvl/mxv
	BYTE	W03
	BYTE		        120*CapOnNappers_mvl/mxv
	BYTE	W03
	BYTE		        123*CapOnNappers_mvl/mxv
	BYTE	W01
	BYTE	W02
	BYTE		        127*CapOnNappers_mvl/mxv
	BYTE	W21
// 016   ----------------------------------------
	BYTE	W02
	BYTE	W03
	BYTE	W01
	BYTE		        125*CapOnNappers_mvl/mxv
	BYTE	W01
	BYTE		        118*CapOnNappers_mvl/mxv
	BYTE	W01
	BYTE		        113*CapOnNappers_mvl/mxv
	BYTE	W01
	BYTE		        108*CapOnNappers_mvl/mxv
	BYTE	W02
	BYTE	W03
	BYTE	W03
	BYTE	W03
	BYTE	W03
	BYTE	W03
	BYTE	W03
	BYTE	W03
	BYTE	W03
	BYTE	W03
	BYTE	W02
	BYTE	W56
// 017   ----------------------------------------
	BYTE	W96
// 018   ----------------------------------------
	BYTE	W96
// 019   ----------------------------------------
	BYTE	W30
	BYTE		MOD     1
	BYTE	W12
	BYTE		        2
	BYTE	W06
	BYTE		        3
	BYTE	W06
	BYTE		        4
	BYTE	W03
	BYTE		        5
	BYTE	W03
	BYTE		        6
	BYTE	W03
	BYTE		        8
	BYTE	W03
	BYTE		        10
	BYTE	W03
	BYTE		        14
	BYTE	W03
	BYTE		        20
	BYTE	W01
	BYTE		        20
	BYTE	W01
	BYTE		        16
	BYTE	W01
	BYTE		        13
	BYTE	W01
	BYTE		        6
	BYTE	W01
	BYTE		        2
	BYTE	W01
	BYTE		        0
	BYTE	W18
// 020   ----------------------------------------
	BYTE	W96
// 021   ----------------------------------------
	BYTE	W96
// 022   ----------------------------------------
	BYTE	W96
// 023   ----------------------------------------
	BYTE	W96
// 024   ----------------------------------------
	BYTE	W96
// 025   ----------------------------------------
	BYTE	W96
// 026   ----------------------------------------
	BYTE	W96
// 027   ----------------------------------------
	BYTE	W36
	BYTE	W01
	BYTE		        1
	BYTE	W12
	BYTE		        2
	BYTE	W06
	BYTE		        3
	BYTE	W03
	BYTE		        4
	BYTE	W03
	BYTE		        5
	BYTE	W03
	BYTE		        6
	BYTE	W03
	BYTE		        8
	BYTE	W03
	BYTE		        10
	BYTE	W03
	BYTE		        15
	BYTE	W03
	BYTE		        23
	BYTE	W01
	BYTE		        16
	BYTE	W01
	BYTE		        13
	BYTE	W01
	BYTE		        9
	BYTE	W01
	BYTE		        2
	BYTE	W01
	BYTE		        0
	BYTE	W01
	BYTE		PAN     c_v-28
	BYTE	W01
	BYTE		        c_v-27
	BYTE	W02
	BYTE		        c_v-26
	BYTE	W01
	BYTE		        c_v-25
	BYTE	W01
	BYTE		        c_v-24
	BYTE	W02
	BYTE		        c_v-23
	BYTE	W01
	BYTE		        c_v-22
	BYTE	W01
	BYTE		        c_v-20
	BYTE	W05
// 028   ----------------------------------------
	BYTE		N11     En3   v092
	BYTE	W10
	BYTE	W02
	BYTE		        Ds3   v076
	BYTE	W06
	BYTE	W06
	BYTE		N07     En3   v080
	BYTE	W03
	BYTE	W09
	BYTE		N11     Fs3   v100
	BYTE	W09
	BYTE	W03
	BYTE		        En3   v072
	BYTE	W06
	BYTE	W04
	BYTE	W02
	BYTE		N07     Fs3   v084
	BYTE	W07
	BYTE	W04
	BYTE	W01
	BYTE		N11     Gn3 
	BYTE	W08
	BYTE	W04
	BYTE		N09     Fs3   v100
	BYTE	W05
	BYTE	W04
	BYTE	W03
// 029   ----------------------------------------
	BYTE		N06     Gn3   v084
	BYTE	W01
	BYTE	W05
	BYTE	W04
	BYTE	W02
	BYTE		N11     An3   v112
	BYTE	W03
	BYTE	W04
	BYTE	W04
	BYTE	W05
	BYTE	W04
	BYTE	W04
	BYTE	W05
	BYTE	W04
	BYTE	W03
	BYTE		        Bn3   v104
	BYTE	W02
	BYTE	W04
	BYTE	W04
	BYTE	W02
	BYTE		TIE     Cn4   v108
	BYTE	W03
	BYTE	W32
	BYTE	W01
// 030   ----------------------------------------
	BYTE	W04
	BYTE	W30
	BYTE	W01
	BYTE	W19
	BYTE	W18
	BYTE	W13
	BYTE	W11
// 031   ----------------------------------------
	BYTE	W01
	BYTE	W13
	BYTE	W06
	BYTE	W12
	BYTE	W06
	BYTE	W07
	BYTE	W06
	BYTE	W02
	BYTE		EOT   
	BYTE	W04
	BYTE	W06
	BYTE	W06
	BYTE	W07
	BYTE	W06
	BYTE	W06
	BYTE	W06
	BYTE	W02
// 032   ----------------------------------------
	BYTE	W04
	BYTE	W92
// 033   ----------------------------------------
	BYTE	W96
// 034   ----------------------------------------
	BYTE	W96
// 035   ----------------------------------------
	BYTE	W96
// 036   ----------------------------------------
	BYTE	W96
// 037   ----------------------------------------
	BYTE	W96
// 038   ----------------------------------------
	BYTE	W96
// 039   ----------------------------------------
	BYTE	W96
// 040   ----------------------------------------
	BYTE	W96
	BYTE	GoTo
	 POIN2	CapOnNappers_6_B1
CapOnNappers_6_B2:
// 041   ----------------------------------------
	BYTE	FINE

//**************** Track 7 (Midi-Chn.7) ****************//

CapOnNappers_7:
	BYTE	KEYSH   CapOnNappers_key+0
CapOnNappers_7_B1:
// 000   ----------------------------------------
	BYTE		VOICE   41
	BYTE		VOL     100*CapOnNappers_mvl/mxv
	BYTE		PAN     c_v+0
	BYTE		MOD     0
	BYTE		VOL     85*CapOnNappers_mvl/mxv
	BYTE		PAN     c_v+13
	BYTE		TIE     Bn3   v076
	BYTE	W96
// 001   ----------------------------------------
	BYTE	W80
	BYTE	W01
	BYTE		EOT   
	BYTE	W15
// 002   ----------------------------------------
	BYTE	W96
// 003   ----------------------------------------
	BYTE	W96
// 004   ----------------------------------------
	BYTE	W96
// 005   ----------------------------------------
	BYTE	W96
// 006   ----------------------------------------
	BYTE	W96
// 007   ----------------------------------------
	BYTE	W96
// 008   ----------------------------------------
	BYTE	W96
// 009   ----------------------------------------
	BYTE	W96
// 010   ----------------------------------------
	BYTE	W96
// 011   ----------------------------------------
	BYTE	W96
// 012   ----------------------------------------
	BYTE	W96
// 013   ----------------------------------------
	BYTE	W96
// 014   ----------------------------------------
	BYTE	W96
// 015   ----------------------------------------
	BYTE	W96
// 016   ----------------------------------------
	BYTE		N56     Bn3   v064
	BYTE	W60
	BYTE	W02
	BYTE		N10     Bn2   v080
	BYTE	W11
	BYTE		N01     Bn3 
	BYTE	W01
	BYTE		N11     Cn4   v064
	BYTE	W12
	BYTE		N09     An3   v072
	BYTE	W10
// 017   ----------------------------------------
	BYTE	W02
	BYTE		N44     Fs3   v064
	BYTE	W44
	BYTE	W02
	BYTE		N40     An3 
	BYTE	W48
// 018   ----------------------------------------
	BYTE		N32     Gn3 
	BYTE	W36
	BYTE	W02
	BYTE		N52     Bn2   v056
	BYTE	W56
	BYTE	W02
// 019   ----------------------------------------
	BYTE	W02
	BYTE		N01     Ds4 
	BYTE	W02
	BYTE		N42     En4 
	BYTE	W44
	BYTE		        Dn4 
	BYTE	W48
// 020   ----------------------------------------
	BYTE		N44     Bn3   v064
	BYTE	W48
	BYTE		N11     Cn2   v080
	BYTE	W12
	BYTE		N09     Cn3 
	BYTE	W10
	BYTE		N01     Cs4 
	BYTE	W02
	BYTE		N10     Dn4   v064
	BYTE	W12
	BYTE		        Cn4   v072
	BYTE	W12
// 021   ----------------------------------------
	BYTE		N44     Bn3   v068
	BYTE	W48
	BYTE		        Ds4   v064
	BYTE	W48
// 022   ----------------------------------------
	BYTE		N01     Ds4   v080
	BYTE	W01
	BYTE		N32     En4   v060
	BYTE	W32
	BYTE	W03
	BYTE		N56     Bn3   v072
	BYTE	W60
// 023   ----------------------------------------
	BYTE		N44     Gn3   v076
	BYTE	W48
	BYTE		        Fs3 
	BYTE	W48
// 024   ----------------------------------------
	BYTE		N84     Bn3   v064
	BYTE	W96
// 025   ----------------------------------------
	BYTE		        An3 
	BYTE	W96
// 026   ----------------------------------------
	BYTE		        Gn3   v068
	BYTE	W96
// 027   ----------------------------------------
	BYTE		N44     Gn3   v080
	BYTE	W48
	BYTE		        Dn4   v076
	BYTE	W48
// 028   ----------------------------------------
	BYTE		N32     An3 
	BYTE	W36
	BYTE		        Bn3 
	BYTE	W36
	BYTE		        Cn4 
	BYTE	W24
// 029   ----------------------------------------
	BYTE	W12
	BYTE		N10     An3   v080
	BYTE	W36
	BYTE		N06     Gn3   v084
	BYTE	W12
	BYTE		N23     An3   v080
	BYTE	W24
	BYTE		N11     Cn2   v076
	BYTE	W12
// 030   ----------------------------------------
	BYTE		        An3   v084
	BYTE	W12
	BYTE		N10     Cn2   v076
	BYTE	W12
	BYTE		N14     An3 
	BYTE	W18
	BYTE		N05     An3   v072
	BYTE	W06
	BYTE		N11     Cn2   v076
	BYTE	W12
	BYTE		N23     An3   v080
	BYTE	W24
	BYTE		N11     Cn2   v072
	BYTE	W12
// 031   ----------------------------------------
	BYTE		        An3 
	BYTE	W12
	BYTE		        Cn2 
	BYTE	W12
	BYTE		N10     An3   v064
	BYTE	W12
	BYTE		N05     An3   v084
	BYTE	W12
	BYTE		N11     Cn2   v072
	BYTE	W12
	BYTE		N23     As3   v088
	BYTE	W24
	BYTE		N11     Dn2   v076
	BYTE	W12
// 032   ----------------------------------------
	BYTE		        As3 
	BYTE	W12
	BYTE		        Dn2   v068
	BYTE	W12
	BYTE		N15     Cn4 
	BYTE	W18
	BYTE		N05     As3   v080
	BYTE	W06
	BYTE		N11     Dn2   v084
	BYTE	W12
	BYTE		N23     As3 
	BYTE	W24
	BYTE		N11     Dn2   v076
	BYTE	W12
// 033   ----------------------------------------
	BYTE		N10     As3   v092
	BYTE	W12
	BYTE		N11     Dn2   v076
	BYTE	W12
	BYTE		N10     An3   v080
	BYTE	W12
	BYTE		N05     As3 
	BYTE	W12
	BYTE		N11     Dn2   v084
	BYTE	W12
	BYTE		N23     Ds4   v088
	BYTE	W24
	BYTE		N11     Ds2   v080
	BYTE	W12
// 034   ----------------------------------------
	BYTE		        Ds4   v084
	BYTE	W12
	BYTE		N10     Ds2   v080
	BYTE	W12
	BYTE		N07     Ds4   v068
	BYTE	W12
	BYTE		N11     Ds4   v064
	BYTE	W12
	BYTE		        Ds2   v080
	BYTE	W12
	BYTE		N23     Ds4 
	BYTE	W24
	BYTE		N11     Ds2   v076
	BYTE	W12
// 035   ----------------------------------------
	BYTE		        Ds4 
	BYTE	W12
	BYTE		N09     Ds2   v080
	BYTE	W12
	BYTE		N08     Ds4   v072
	BYTE	W12
	BYTE		N05     Ds4   v068
	BYTE	W12
	BYTE		N11     Ds2   v096
	BYTE	W11
	BYTE		N23     Cn4   v076
	BYTE	W24
	BYTE	W01
	BYTE		N11     Dn2 
	BYTE	W12
// 036   ----------------------------------------
	BYTE		N10     Cn4   v072
	BYTE	W12
	BYTE		        Dn2   v076
	BYTE	W12
	BYTE		N13     Cn4   v068
	BYTE	W18
	BYTE		N05     Cn4   v076
	BYTE	W06
	BYTE		N11     Dn2 
	BYTE	W12
	BYTE		N22     Cn4   v068
	BYTE	W24
	BYTE		N11     Dn2   v072
	BYTE	W12
// 037   ----------------------------------------
	BYTE		        Cn4   v068
	BYTE	W12
	BYTE		N09     Dn2   v076
	BYTE	W09
	BYTE	W03
	BYTE		N08     Cn4   v060
	BYTE	W12
	BYTE		N05     Cn4   v064
	BYTE	W12
	BYTE		N11     Dn2   v092
	BYTE	W12
	BYTE		N23     Cn4   v072
	BYTE	W24
	BYTE		N11     Dn2   v076
	BYTE	W12
// 038   ----------------------------------------
	BYTE		        Cn4 
	BYTE	W02
	BYTE	W10
	BYTE		N10     Dn2 
	BYTE	W12
	BYTE		N15     Cn4 
	BYTE	W17
	BYTE	W01
	BYTE		N05     Cn4   v064
	BYTE	W06
	BYTE		N10     Dn2   v076
	BYTE	W12
	BYTE		N20     Dn4   v088
	BYTE	W19
	BYTE	W05
	BYTE		N05   
	BYTE	W12
// 039   ----------------------------------------
	BYTE		N03     Dn4   v064
	BYTE	W12
	BYTE		N06     Fs4   v072
	BYTE	W09
	BYTE	W03
	BYTE		        Fs4   v080
	BYTE	W12
	BYTE		        Fs4   v084
	BYTE	W12
	BYTE		N03     An4   v044
	BYTE	W12
	BYTE		N06     Fs4   v072
	BYTE	W16
	BYTE	W03
	BYTE	W03
	BYTE	W03
	BYTE	W11
// 040   ----------------------------------------
	BYTE	W96
	BYTE	GoTo
	 POIN2	CapOnNappers_7_B1
CapOnNappers_7_B2:
// 041   ----------------------------------------
	BYTE	FINE

//**************** Track 8 (Midi-Chn.8) ****************//

CapOnNappers_8:
	BYTE	KEYSH   CapOnNappers_key+0
CapOnNappers_8_B1:
// 000   ----------------------------------------
	BYTE		VOICE   48
	BYTE		VOL     102*CapOnNappers_mvl/mxv
	BYTE		PAN     c_v+0
	BYTE		MOD     0
	BYTE		PAN     c_v+13
	BYTE		TIE     En3   v080
	BYTE		TIE     Gn3   v076
	BYTE	W96
// 001   ----------------------------------------
	BYTE	W68
	BYTE		EOT   
	BYTE	W13
	BYTE		EOT     En3 
	BYTE	W15
// 002   ----------------------------------------
	BYTE	W96
// 003   ----------------------------------------
	BYTE	W96
// 004   ----------------------------------------
	BYTE	W96
// 005   ----------------------------------------
	BYTE	W96
// 006   ----------------------------------------
	BYTE	W96
// 007   ----------------------------------------
	BYTE	W96
// 008   ----------------------------------------
	BYTE	W96
// 009   ----------------------------------------
	BYTE	W96
// 010   ----------------------------------------
	BYTE	W96
// 011   ----------------------------------------
	BYTE	W96
// 012   ----------------------------------------
	BYTE	W96
// 013   ----------------------------------------
	BYTE	W96
// 014   ----------------------------------------
	BYTE	W96
// 015   ----------------------------------------
	BYTE	W92
	BYTE	W03
	BYTE		N56     An3   v064
	BYTE	W01
// 016   ----------------------------------------
	BYTE		        Cn3   v080
	BYTE		N56     En3   v076
	BYTE	W96
// 017   ----------------------------------------
	BYTE		N44     An2 
	BYTE		N44     Dn3   v072
	BYTE	W96
// 018   ----------------------------------------
	BYTE		N32     Bn2   v076
	BYTE		N32     En3   v064
	BYTE	W36
	BYTE		N48     Gn2   v060
	BYTE	W60
// 019   ----------------------------------------
	BYTE		N44     Bn3   v064
	BYTE	W48
	BYTE		        Fs3 
	BYTE		N44     An3 
	BYTE	W48
// 020   ----------------------------------------
	BYTE		        Cn3   v068
	BYTE		N44     En3   v064
	BYTE		N44     Gn3 
	BYTE	W96
// 021   ----------------------------------------
	BYTE		        Ds3 
	BYTE		N44     Fs3 
	BYTE		N44     An3 
	BYTE	W48
	BYTE		        Fs3   v068
	BYTE		N44     Bn3   v080
	BYTE	W48
// 022   ----------------------------------------
	BYTE		N84     Gn3   v064
	BYTE	W96
// 023   ----------------------------------------
	BYTE		N44     Bn2   v080
	BYTE		N44     Dn3   v076
	BYTE	W48
	BYTE		        An2 
	BYTE		N44     Dn3   v080
	BYTE	W48
// 024   ----------------------------------------
	BYTE		N84     Cn3   v068
	BYTE		N84     En3   v064
	BYTE	W96
// 025   ----------------------------------------
	BYTE		        Dn3   v068
	BYTE		N84     Fs3 
	BYTE	W96
// 026   ----------------------------------------
	BYTE		        Bn2   v064
	BYTE		N84     En3   v068
	BYTE	W96
// 027   ----------------------------------------
	BYTE		N44     Bn2   v084
	BYTE		N44     Dn3   v080
	BYTE	W48
	BYTE		        Fs3   v084
	BYTE		N44     An3   v080
	BYTE	W48
// 028   ----------------------------------------
	BYTE		N32     En3   v064
	BYTE	W36
	BYTE		        Fs3 
	BYTE	W36
	BYTE		        Gn3 
	BYTE	W24
// 029   ----------------------------------------
	BYTE	W12
	BYTE		N11     Dn3   v092
	BYTE	W36
	BYTE		N07     Dn3   v084
	BYTE	W12
	BYTE		N23     Cn3   v096
	BYTE		N23     Fn3   v072
	BYTE	W36
// 030   ----------------------------------------
	BYTE		N11     Cn3 
	BYTE		N11     Fn3 
	BYTE	W24
	BYTE		N12     Cn3 
	BYTE		N12     Fn3   v068
	BYTE	W18
	BYTE		N05     Cn3   v076
	BYTE		N05     Fn3   v068
	BYTE	W18
	BYTE		N23     Cn3   v080
	BYTE		N23     Fn3   v072
	BYTE	W36
// 031   ----------------------------------------
	BYTE		N11     Cn3 
	BYTE		N11     Fn3 
	BYTE	W24
	BYTE		N08     Cn3   v068
	BYTE		N08     Fn3 
	BYTE	W12
	BYTE		N05     Cn3   v072
	BYTE		N05     Fn3 
	BYTE	W24
	BYTE		N23     Dn3   v080
	BYTE		N23     Fn3   v072
	BYTE	W36
// 032   ----------------------------------------
	BYTE		N11     Dn3 
	BYTE		N11     Fn3   v068
	BYTE	W24
	BYTE		N13     Dn3   v076
	BYTE		N13     Fn3   v072
	BYTE	W18
	BYTE		N05     Dn3 
	BYTE		N05     Fn3 
	BYTE	W18
	BYTE		N23     Dn3   v084
	BYTE		N23     Fn3   v072
	BYTE	W36
// 033   ----------------------------------------
	BYTE		N10     Dn3   v092
	BYTE		N09     Fn3   v072
	BYTE	W24
	BYTE		N10     Dn3   v084
	BYTE		N10     Fn3   v072
	BYTE	W12
	BYTE		N05     Dn3   v076
	BYTE		N05     Fn3   v072
	BYTE	W24
	BYTE		N23     Gn3   v080
	BYTE		N23     As3   v076
	BYTE	W36
// 034   ----------------------------------------
	BYTE		N11     Gn3   v072
	BYTE		N11     As3   v080
	BYTE	W24
	BYTE		N07     Gn3   v068
	BYTE		N07     As3   v084
	BYTE	W12
	BYTE		N11     Gn3   v068
	BYTE		N11     As3   v084
	BYTE	W24
	BYTE		N23     Gn3   v080
	BYTE		N23     As3   v084
	BYTE	W36
// 035   ----------------------------------------
	BYTE		N11     Gn3   v072
	BYTE		N11     As3   v084
	BYTE	W24
	BYTE		N08     Gn3   v072
	BYTE		N08     As3   v076
	BYTE	W12
	BYTE		N05     Gn3   v072
	BYTE		N05     As3   v084
	BYTE	W23
	BYTE		N23     Fs3   v076
	BYTE		N23     An3   v096
	BYTE	W36
	BYTE	W01
// 036   ----------------------------------------
	BYTE		N09     Fs3   v068
	BYTE		N09     An3   v064
	BYTE	W24
	BYTE		N12     Fs3 
	BYTE		N12     An3   v068
	BYTE	W18
	BYTE		N05     Fs3   v072
	BYTE		N05     An3   v064
	BYTE	W18
	BYTE		N22     Fs3   v080
	BYTE		N21     An3   v092
	BYTE	W36
// 037   ----------------------------------------
	BYTE		N11     Fs3   v088
	BYTE		N11     An3 
	BYTE	W21
	BYTE	W03
	BYTE		N07     Fs3 
	BYTE		N07     An3   v084
	BYTE	W12
	BYTE		N05     Fs3   v076
	BYTE		N05     An3   v080
	BYTE	W24
	BYTE		N23     Fs3   v092
	BYTE		N23     An3 
	BYTE	W36
// 038   ----------------------------------------
	BYTE		N11     Fs3 
	BYTE		N11     An3   v084
	BYTE	W02
	BYTE	W22
	BYTE		N13     Fs3 
	BYTE		N14     An3   v076
	BYTE	W17
	BYTE	W01
	BYTE		N05     Fs3   v080
	BYTE		N05     An3 
	BYTE	W18
	BYTE		N19     An3   v092
	BYTE	W19
	BYTE	W05
	BYTE		N04     An3   v088
	BYTE	W12
// 039   ----------------------------------------
	BYTE		        An3   v072
	BYTE	W12
	BYTE		        Dn4   v100
	BYTE	W10
	BYTE	W02
	BYTE		        Dn4   v084
	BYTE	W12
	BYTE		        An3   v092
	BYTE		N05     Dn4   v104
	BYTE	W12
	BYTE		N04     Dn4   v088
	BYTE		N06     Fs4   v060
	BYTE	W12
	BYTE		        Dn4   v096
	BYTE	W16
	BYTE	W03
	BYTE	W03
	BYTE	W14
// 040   ----------------------------------------
	BYTE	W96
	BYTE	GoTo
	 POIN2	CapOnNappers_8_B1
CapOnNappers_8_B2:
// 041   ----------------------------------------
	BYTE	FINE

//**************** Track 9 (Midi-Chn.9) ****************//

CapOnNappers_9:
	BYTE	KEYSH   CapOnNappers_key+0
CapOnNappers_9_B1:
// 000   ----------------------------------------
	BYTE		VOICE   49
	BYTE		VOL     100*CapOnNappers_mvl/mxv
	BYTE		PAN     c_v+0
	BYTE		MOD     0
	BYTE		VOL     76*CapOnNappers_mvl/mxv
	BYTE		PAN     c_v+56
	BYTE		TIE     En3   v088
	BYTE	W96
// 001   ----------------------------------------
	BYTE	W96
// 002   ----------------------------------------
	BYTE	W96
// 003   ----------------------------------------
	BYTE	W48
	BYTE		N44     Gn3   v084
	BYTE	W48
// 004   ----------------------------------------
	BYTE		TIE     Bn3   v080
	BYTE	W96
// 005   ----------------------------------------
	BYTE	W96
// 006   ----------------------------------------
	BYTE	W96
// 007   ----------------------------------------
	BYTE	W15
	BYTE		VOL     77*CapOnNappers_mvl/mxv
	BYTE	W13
	BYTE		        78*CapOnNappers_mvl/mxv
	BYTE	W07
	BYTE		        79*CapOnNappers_mvl/mxv
	BYTE	W07
	BYTE		        80*CapOnNappers_mvl/mxv
	BYTE	W05
	BYTE		        81*CapOnNappers_mvl/mxv
	BYTE	W04
	BYTE		        82*CapOnNappers_mvl/mxv
	BYTE	W03
	BYTE		        83*CapOnNappers_mvl/mxv
	BYTE	W04
	BYTE		        84*CapOnNappers_mvl/mxv
	BYTE	W02
	BYTE		        85*CapOnNappers_mvl/mxv
	BYTE	W02
	BYTE		        86*CapOnNappers_mvl/mxv
	BYTE	W03
	BYTE		        87*CapOnNappers_mvl/mxv
	BYTE	W02
	BYTE		        89*CapOnNappers_mvl/mxv
	BYTE	W02
	BYTE		        90*CapOnNappers_mvl/mxv
	BYTE	W01
	BYTE		        92*CapOnNappers_mvl/mxv
	BYTE	W02
	BYTE		        94*CapOnNappers_mvl/mxv
	BYTE	W02
	BYTE		        96*CapOnNappers_mvl/mxv
	BYTE	W02
	BYTE		        99*CapOnNappers_mvl/mxv
	BYTE	W01
	BYTE		        103*CapOnNappers_mvl/mxv
	BYTE	W02
	BYTE		        107*CapOnNappers_mvl/mxv
	BYTE	W02
	BYTE		        114*CapOnNappers_mvl/mxv
	BYTE	W02
	BYTE		        123*CapOnNappers_mvl/mxv
	BYTE	W12
	BYTE		EOT     En3 
	BYTE	W01
// 008   ----------------------------------------
	BYTE		VOL     76*CapOnNappers_mvl/mxv
	BYTE		TIE     En4   v068
	BYTE	W01
	BYTE	W92
	BYTE	W03
// 009   ----------------------------------------
	BYTE	W96
// 010   ----------------------------------------
	BYTE	W66
	BYTE	W30
// 011   ----------------------------------------
	BYTE	W44
	BYTE	W03
	BYTE		EOT     Bn3 
	BYTE	W01
	BYTE		N44     Gn4   v056
	BYTE	W48
// 012   ----------------------------------------
	BYTE		TIE     Cn5   v064
	BYTE	W96
// 013   ----------------------------------------
	BYTE	W32
	BYTE	W02
	BYTE	W60
	BYTE	W01
	BYTE		EOT     En4 
	BYTE	W01
// 014   ----------------------------------------
	BYTE		TIE     En5   v052
	BYTE	W66
	BYTE	W30
// 015   ----------------------------------------
	BYTE	W16
	BYTE		VOL     77*CapOnNappers_mvl/mxv
	BYTE	W10
	BYTE		        78*CapOnNappers_mvl/mxv
	BYTE	W08
	BYTE		        79*CapOnNappers_mvl/mxv
	BYTE	W06
	BYTE		        80*CapOnNappers_mvl/mxv
	BYTE	W05
	BYTE		        81*CapOnNappers_mvl/mxv
	BYTE	W05
	BYTE		        82*CapOnNappers_mvl/mxv
	BYTE	W04
	BYTE		        83*CapOnNappers_mvl/mxv
	BYTE	W03
	BYTE		        84*CapOnNappers_mvl/mxv
	BYTE	W01
	BYTE		        85*CapOnNappers_mvl/mxv
	BYTE	W02
	BYTE		        86*CapOnNappers_mvl/mxv
	BYTE	W03
	BYTE		        87*CapOnNappers_mvl/mxv
	BYTE	W02
	BYTE		        88*CapOnNappers_mvl/mxv
	BYTE	W02
	BYTE		        90*CapOnNappers_mvl/mxv
	BYTE	W01
	BYTE		        91*CapOnNappers_mvl/mxv
	BYTE	W02
	BYTE		        92*CapOnNappers_mvl/mxv
	BYTE	W02
	BYTE		        94*CapOnNappers_mvl/mxv
	BYTE	W01
	BYTE		        96*CapOnNappers_mvl/mxv
	BYTE	W02
	BYTE		        99*CapOnNappers_mvl/mxv
	BYTE	W02
	BYTE		        102*CapOnNappers_mvl/mxv
	BYTE	W01
	BYTE		        106*CapOnNappers_mvl/mxv
	BYTE	W02
	BYTE		        111*CapOnNappers_mvl/mxv
	BYTE	W01
	BYTE		        117*CapOnNappers_mvl/mxv
	BYTE	W02
	BYTE		        127*CapOnNappers_mvl/mxv
	BYTE	W10
	BYTE		PAN     c_v+25
	BYTE	W01
	BYTE		        c_v+4
	BYTE	W01
	BYTE		EOT     Cn5 
	BYTE		        En5 
	BYTE		PAN     c_v-16
	BYTE	W01
// 016   ----------------------------------------
	BYTE		VOL     76*CapOnNappers_mvl/mxv
	BYTE		N56     En4   v064
	BYTE	W03
	BYTE	W56
	BYTE	W01
	BYTE		N11     Bn3 
	BYTE	W12
	BYTE		        Cn4 
	BYTE	W12
	BYTE		        En4 
	BYTE	W12
// 017   ----------------------------------------
CapOnNappers_9_017:
	BYTE		N44     Dn4   v064
	BYTE	W48
	BYTE		        Fs4 
	BYTE	W48
	BYTE	PEND
// 018   ----------------------------------------
	BYTE		N92     Gn4   v068
	BYTE	W92
	BYTE	W02
	BYTE		        Fs4 
	BYTE	W02
// 019   ----------------------------------------
	BYTE	W96
// 020   ----------------------------------------
	BYTE		        En4   v064
	BYTE	W96
// 021   ----------------------------------------
	BYTE		N44     Ds4 
	BYTE	W48
	BYTE		        Bn3 
	BYTE	W48
// 022   ----------------------------------------
	BYTE		N92     En4   v060
	BYTE	W92
	BYTE	W03
	BYTE		PAN     c_v+16
	BYTE	W01
// 023   ----------------------------------------
	BYTE		VOL     45*CapOnNappers_mvl/mxv
	BYTE		N92     Dn4   v084
	BYTE		N92     Bn4   v104
	BYTE	W02
	BYTE		PAN     c_v+15
	BYTE	W01
	BYTE		        c_v+14
	BYTE	W02
	BYTE		        c_v+13
	BYTE	W02
	BYTE		        c_v+12
	BYTE	W01
	BYTE		        c_v+11
	BYTE	W02
	BYTE		        c_v+10
	BYTE	W01
	BYTE		VOL     46*CapOnNappers_mvl/mxv
	BYTE		PAN     c_v+9
	BYTE	W02
	BYTE		        c_v+8
	BYTE	W01
	BYTE		        c_v+7
	BYTE	W02
	BYTE		        c_v+6
	BYTE	W01
	BYTE		        c_v+5
	BYTE	W01
	BYTE		        c_v+4
	BYTE	W01
	BYTE		VOL     47*CapOnNappers_mvl/mxv
	BYTE	W01
	BYTE		PAN     c_v+3
	BYTE	W01
	BYTE		        c_v+2
	BYTE	W01
	BYTE		        c_v+1
	BYTE	W01
	BYTE		        c_v+0
	BYTE	W01
	BYTE		        c_v-1
	BYTE	W01
	BYTE		        c_v-2
	BYTE	W01
	BYTE		VOL     48*CapOnNappers_mvl/mxv
	BYTE		PAN     c_v-3
	BYTE	W01
	BYTE		        c_v-4
	BYTE	W01
	BYTE		        c_v-5
	BYTE	W01
	BYTE		        c_v-6
	BYTE	W01
	BYTE		        c_v-7
	BYTE	W01
	BYTE		        c_v-8
	BYTE	W01
	BYTE		VOL     49*CapOnNappers_mvl/mxv
	BYTE		PAN     c_v-9
	BYTE	W01
	BYTE		        c_v-11
	BYTE	W01
	BYTE		        c_v-12
	BYTE	W01
	BYTE		        c_v-13
	BYTE	W01
	BYTE		        c_v-14
	BYTE		VOL     50*CapOnNappers_mvl/mxv
	BYTE		PAN     c_v-15
	BYTE	W01
	BYTE		        c_v-16
	BYTE	W01
	BYTE		        c_v-17
	BYTE	W01
	BYTE		        c_v-19
	BYTE	W01
	BYTE		        c_v-20
	BYTE		VOL     51*CapOnNappers_mvl/mxv
	BYTE	W01
	BYTE		PAN     c_v-22
	BYTE	W01
	BYTE		        c_v-24
	BYTE	W01
	BYTE		        c_v-26
	BYTE	W01
	BYTE		        c_v-27
	BYTE	W01
	BYTE		        c_v-28
	BYTE		VOL     52*CapOnNappers_mvl/mxv
	BYTE		PAN     c_v-30
	BYTE	W01
	BYTE		        c_v-31
	BYTE	W01
	BYTE		        c_v-33
	BYTE	W01
	BYTE		        c_v-35
	BYTE		VOL     53*CapOnNappers_mvl/mxv
	BYTE		PAN     c_v-36
	BYTE	W01
	BYTE		        c_v-38
	BYTE	W01
	BYTE		        c_v-40
	BYTE	W01
	BYTE		        c_v-42
	BYTE		VOL     54*CapOnNappers_mvl/mxv
	BYTE		PAN     c_v-44
	BYTE	W01
	BYTE		        c_v-46
	BYTE		VOL     55*CapOnNappers_mvl/mxv
	BYTE	W01
	BYTE		PAN     c_v-48
	BYTE	W01
	BYTE		        c_v-52
	BYTE	W01
	BYTE		VOL     56*CapOnNappers_mvl/mxv
	BYTE		PAN     c_v-55
	BYTE	W01
	BYTE		        c_v-57
	BYTE	W01
	BYTE		VOL     57*CapOnNappers_mvl/mxv
	BYTE		PAN     c_v-60
	BYTE	W02
	BYTE		VOL     58*CapOnNappers_mvl/mxv
	BYTE	W02
	BYTE		        59*CapOnNappers_mvl/mxv
	BYTE		PAN     c_v-59
	BYTE	W01
	BYTE		        c_v-58
	BYTE		VOL     60*CapOnNappers_mvl/mxv
	BYTE	W01
	BYTE		PAN     c_v-57
	BYTE	W01
	BYTE		        c_v-56
	BYTE		VOL     61*CapOnNappers_mvl/mxv
	BYTE		PAN     c_v-55
	BYTE	W01
	BYTE		        c_v-54
	BYTE		VOL     63*CapOnNappers_mvl/mxv
	BYTE	W01
	BYTE		PAN     c_v-52
	BYTE	W01
	BYTE		VOL     64*CapOnNappers_mvl/mxv
	BYTE		PAN     c_v-51
	BYTE	W01
	BYTE		        c_v-50
	BYTE		VOL     66*CapOnNappers_mvl/mxv
	BYTE	W01
	BYTE		PAN     c_v-48
	BYTE	W01
	BYTE		VOL     67*CapOnNappers_mvl/mxv
	BYTE		PAN     c_v-47
	BYTE	W01
	BYTE		        c_v-46
	BYTE		VOL     69*CapOnNappers_mvl/mxv
	BYTE	W01
	BYTE		PAN     c_v-44
	BYTE	W01
	BYTE		VOL     71*CapOnNappers_mvl/mxv
	BYTE		PAN     c_v-43
	BYTE	W01
	BYTE		        c_v-42
	BYTE		VOL     74*CapOnNappers_mvl/mxv
	BYTE	W01
	BYTE		PAN     c_v-40
	BYTE		VOL     77*CapOnNappers_mvl/mxv
	BYTE	W01
	BYTE		PAN     c_v-39
	BYTE	W01
	BYTE		        c_v-38
	BYTE		VOL     80*CapOnNappers_mvl/mxv
	BYTE	W01
	BYTE		PAN     c_v-36
	BYTE		VOL     84*CapOnNappers_mvl/mxv
	BYTE	W01
	BYTE		PAN     c_v-35
	BYTE	W01
	BYTE		        c_v-34
	BYTE		VOL     89*CapOnNappers_mvl/mxv
	BYTE	W01
	BYTE		PAN     c_v-32
	BYTE		VOL     94*CapOnNappers_mvl/mxv
	BYTE	W01
	BYTE		PAN     c_v-31
	BYTE	W01
	BYTE		VOL     102*CapOnNappers_mvl/mxv
	BYTE		PAN     c_v-30
	BYTE	W01
	BYTE		        c_v-28
	BYTE	W01
	BYTE		        c_v-27
	BYTE	W01
	BYTE		        c_v-25
	BYTE	W01
	BYTE		        c_v-24
	BYTE	W01
	BYTE		        c_v-23
	BYTE	W01
	BYTE		        c_v-21
	BYTE	W01
	BYTE		        c_v-20
	BYTE	W01
	BYTE		        c_v-19
	BYTE		VOL     101*CapOnNappers_mvl/mxv
	BYTE	W01
	BYTE		PAN     c_v-18
	BYTE		VOL     100*CapOnNappers_mvl/mxv
	BYTE		PAN     c_v-16
	BYTE	W01
	BYTE		VOL     98*CapOnNappers_mvl/mxv
	BYTE	W01
	BYTE		        95*CapOnNappers_mvl/mxv
	BYTE	W01
	BYTE		        76*CapOnNappers_mvl/mxv
	BYTE	W01
// 024   ----------------------------------------
	BYTE		N56     En4   v064
	BYTE	W60
	BYTE		N11     Bn3 
	BYTE	W12
	BYTE		        Cn4 
	BYTE	W12
	BYTE		        En4 
	BYTE	W12
// 025   ----------------------------------------
	BYTE	PATT
	 POIN2	CapOnNappers_9_017
// 026   ----------------------------------------
	BYTE		TIE     Gn4   v064
	BYTE	W96
// 027   ----------------------------------------
	BYTE	W44
	BYTE	W03
	BYTE		EOT   
	BYTE	W01
	BYTE		N44     Fs4 
	BYTE	W48
// 028   ----------------------------------------
	BYTE	W21
	BYTE		PAN     c_v-17
	BYTE	W03
	BYTE		        c_v-18
	BYTE	W03
	BYTE		        c_v-19
	BYTE	W03
	BYTE		        c_v-20
	BYTE	W03
	BYTE		        c_v-21
	BYTE	W03
	BYTE		        c_v-22
	BYTE	W03
	BYTE		        c_v-23
	BYTE	W04
	BYTE		        c_v-24
	BYTE	W03
	BYTE		        c_v-25
	BYTE	W03
	BYTE		        c_v-26
	BYTE	W03
	BYTE		        c_v-27
	BYTE	W03
	BYTE		        c_v-28
	BYTE	W03
	BYTE		        c_v-29
	BYTE	W03
	BYTE		        c_v-30
	BYTE	W04
	BYTE		        c_v-31
	BYTE	W03
	BYTE		        c_v-32
	BYTE	W03
	BYTE		        c_v-33
	BYTE	W03
	BYTE		        c_v-34
	BYTE	W03
	BYTE		        c_v-35
	BYTE	W03
	BYTE		        c_v-36
	BYTE	W03
	BYTE		        c_v-37
	BYTE	W04
	BYTE		        c_v-38
	BYTE	W03
	BYTE		        c_v-39
	BYTE	W03
	BYTE		        c_v-40
	BYTE	W03
// 029   ----------------------------------------
	BYTE		        c_v-41
	BYTE	W03
	BYTE		        c_v-42
	BYTE	W03
	BYTE		        c_v-43
	BYTE	W03
	BYTE		        c_v-44
	BYTE	W04
	BYTE		        c_v-45
	BYTE	W03
	BYTE		        c_v-46
	BYTE	W03
	BYTE		        c_v-47
	BYTE	W03
	BYTE		        c_v-48
	BYTE	W03
	BYTE		        c_v-49
	BYTE	W03
	BYTE		        c_v-50
	BYTE	W03
	BYTE		        c_v-51
	BYTE	W04
	BYTE		        c_v-52
	BYTE	W03
	BYTE		        c_v-53
	BYTE	W03
	BYTE		        c_v-54
	BYTE	W03
	BYTE		        c_v-55
	BYTE	W03
	BYTE		        c_v-56
	BYTE	W03
	BYTE		        c_v-57
	BYTE	W03
	BYTE		        c_v-58
	BYTE	W04
	BYTE		        c_v-60
	BYTE	W03
	BYTE		TIE     Cn5   v056
	BYTE	W36
// 030   ----------------------------------------
	BYTE	W96
// 031   ----------------------------------------
	BYTE	W96
// 032   ----------------------------------------
	BYTE	W96
// 033   ----------------------------------------
	BYTE	W96
// 034   ----------------------------------------
	BYTE	W96
// 035   ----------------------------------------
	BYTE	W96
// 036   ----------------------------------------
	BYTE	W96
// 037   ----------------------------------------
	BYTE	W68
	BYTE	W03
	BYTE		EOT   
	BYTE	W01
	BYTE		TIE     Fs4 
	BYTE	W24
// 038   ----------------------------------------
	BYTE	W72
	BYTE		N90     Fs5   v064
	BYTE	W24
// 039   ----------------------------------------
	BYTE	W66
	BYTE	W01
	BYTE		EOT     Fs4 
	BYTE	W28
	BYTE	W01
// 040   ----------------------------------------
	BYTE	W96
	BYTE	GoTo
	 POIN2	CapOnNappers_9_B1
CapOnNappers_9_B2:
// 041   ----------------------------------------
	BYTE	FINE

//**************** Track 10 (Midi-Chn.11) ****************//

CapOnNappers_10:
	BYTE	KEYSH   CapOnNappers_key+0
CapOnNappers_10_B1:
// 000   ----------------------------------------
	BYTE		VOICE   49
	BYTE		VOL     100*CapOnNappers_mvl/mxv
	BYTE		PAN     c_v+0
	BYTE		MOD     0
	BYTE		VOL     70*CapOnNappers_mvl/mxv
	BYTE		PAN     c_v-60
	BYTE		TIE     Bn3   v080
	BYTE	W96
// 001   ----------------------------------------
	BYTE	W96
// 002   ----------------------------------------
	BYTE	W96
// 003   ----------------------------------------
	BYTE	W32
	BYTE	W01
	BYTE	W14
	BYTE		EOT   
	BYTE	W01
	BYTE		N44     En4   v072
	BYTE	W48
// 004   ----------------------------------------
	BYTE		TIE     Cn4   v080
	BYTE		TIE     Gn4   v064
	BYTE	W64
	BYTE	W01
	BYTE	W30
	BYTE	W01
// 005   ----------------------------------------
	BYTE	W32
	BYTE	W02
	BYTE	W60
	BYTE	W01
	BYTE		EOT   
	BYTE	W01
// 006   ----------------------------------------
	BYTE		TIE     An4   v060
	BYTE	W02
	BYTE	W64
	BYTE	W30
// 007   ----------------------------------------
	BYTE		N92     En5   v056
	BYTE	W24
	BYTE		VOL     71*CapOnNappers_mvl/mxv
	BYTE	W10
	BYTE	W04
	BYTE		        72*CapOnNappers_mvl/mxv
	BYTE	W09
	BYTE		        73*CapOnNappers_mvl/mxv
	BYTE	W05
	BYTE		        74*CapOnNappers_mvl/mxv
	BYTE	W06
	BYTE		        75*CapOnNappers_mvl/mxv
	BYTE	W03
	BYTE		        76*CapOnNappers_mvl/mxv
	BYTE	W06
	BYTE		        78*CapOnNappers_mvl/mxv
	BYTE	W03
	BYTE		        79*CapOnNappers_mvl/mxv
	BYTE	W02
	BYTE		        81*CapOnNappers_mvl/mxv
	BYTE	W03
	BYTE		        83*CapOnNappers_mvl/mxv
	BYTE	W03
	BYTE		        86*CapOnNappers_mvl/mxv
	BYTE	W03
	BYTE		        91*CapOnNappers_mvl/mxv
	BYTE	W03
	BYTE		        100*CapOnNappers_mvl/mxv
	BYTE	W11
	BYTE		EOT     Cn4 
	BYTE		        An4 
	BYTE	W01
// 008   ----------------------------------------
	BYTE	W03
	BYTE		VOL     99*CapOnNappers_mvl/mxv
	BYTE		        98*CapOnNappers_mvl/mxv
	BYTE	W01
	BYTE		        97*CapOnNappers_mvl/mxv
	BYTE	W01
	BYTE		        95*CapOnNappers_mvl/mxv
	BYTE	W01
	BYTE		        94*CapOnNappers_mvl/mxv
	BYTE	W01
	BYTE		        92*CapOnNappers_mvl/mxv
	BYTE	W01
	BYTE		        91*CapOnNappers_mvl/mxv
	BYTE	W01
	BYTE		        89*CapOnNappers_mvl/mxv
	BYTE	W01
	BYTE		        88*CapOnNappers_mvl/mxv
	BYTE	W01
	BYTE		        86*CapOnNappers_mvl/mxv
	BYTE	W01
	BYTE		        85*CapOnNappers_mvl/mxv
	BYTE	W01
	BYTE		        83*CapOnNappers_mvl/mxv
	BYTE	W01
	BYTE		        82*CapOnNappers_mvl/mxv
	BYTE	W01
	BYTE		        80*CapOnNappers_mvl/mxv
	BYTE	W01
	BYTE		        79*CapOnNappers_mvl/mxv
	BYTE	W01
	BYTE		        77*CapOnNappers_mvl/mxv
	BYTE	W01
	BYTE		        76*CapOnNappers_mvl/mxv
	BYTE	W01
	BYTE		        75*CapOnNappers_mvl/mxv
	BYTE	W01
	BYTE		        73*CapOnNappers_mvl/mxv
	BYTE	W01
	BYTE		        72*CapOnNappers_mvl/mxv
	BYTE	W01
	BYTE		        70*CapOnNappers_mvl/mxv
	BYTE	W72
	BYTE	W02
// 009   ----------------------------------------
	BYTE	W96
// 010   ----------------------------------------
	BYTE	W96
// 011   ----------------------------------------
	BYTE	W96
// 012   ----------------------------------------
	BYTE	W96
// 013   ----------------------------------------
	BYTE	W96
// 014   ----------------------------------------
	BYTE	W96
// 015   ----------------------------------------
	BYTE	W96
// 016   ----------------------------------------
	BYTE	W96
// 017   ----------------------------------------
	BYTE	W96
// 018   ----------------------------------------
	BYTE	W96
// 019   ----------------------------------------
	BYTE	W96
// 020   ----------------------------------------
	BYTE	W96
// 021   ----------------------------------------
	BYTE	W96
// 022   ----------------------------------------
	BYTE	W96
// 023   ----------------------------------------
	BYTE	W96
// 024   ----------------------------------------
	BYTE	W96
// 025   ----------------------------------------
	BYTE	W72
	BYTE		PAN     c_v-59
	BYTE	W01
	BYTE		        c_v-58
	BYTE	W01
	BYTE		        c_v-57
	BYTE	W01
	BYTE		        c_v-56
	BYTE	W01
	BYTE		        c_v-55
	BYTE	W01
	BYTE		        c_v-54
	BYTE	W01
	BYTE		        c_v-53
	BYTE	W01
	BYTE	W01
	BYTE		        c_v-52
	BYTE	W01
	BYTE		        c_v-51
	BYTE	W01
	BYTE		        c_v-50
	BYTE	W01
	BYTE		        c_v-49
	BYTE	W01
	BYTE		        c_v-48
	BYTE	W01
	BYTE		        c_v-47
	BYTE	W01
	BYTE		        c_v-45
	BYTE	W10
// 026   ----------------------------------------
	BYTE		N92     Gn2   v096
	BYTE	W16
	BYTE	W17
	BYTE	W16
	BYTE	W11
	BYTE	W11
	BYTE	W11
	BYTE	W05
	BYTE	W09
// 027   ----------------------------------------
	BYTE		        Dn3   v092
	BYTE	W02
	BYTE	W05
	BYTE	W06
	BYTE	W05
	BYTE	W06
	BYTE	W01
	BYTE		VOL     71*CapOnNappers_mvl/mxv
	BYTE	W04
	BYTE	W06
	BYTE	W05
	BYTE		        72*CapOnNappers_mvl/mxv
	BYTE	W05
	BYTE	W03
	BYTE		        73*CapOnNappers_mvl/mxv
	BYTE	W03
	BYTE	W03
	BYTE		        74*CapOnNappers_mvl/mxv
	BYTE	W02
	BYTE	W04
	BYTE		        75*CapOnNappers_mvl/mxv
	BYTE	W03
	BYTE		        76*CapOnNappers_mvl/mxv
	BYTE	W05
	BYTE		        78*CapOnNappers_mvl/mxv
	BYTE	W03
	BYTE		        79*CapOnNappers_mvl/mxv
	BYTE	W03
	BYTE		        81*CapOnNappers_mvl/mxv
	BYTE	W03
	BYTE		        83*CapOnNappers_mvl/mxv
	BYTE	W03
	BYTE		        86*CapOnNappers_mvl/mxv
	BYTE	W03
	BYTE		        91*CapOnNappers_mvl/mxv
	BYTE	W03
	BYTE		        100*CapOnNappers_mvl/mxv
	BYTE	W10
// 028   ----------------------------------------
	BYTE	W04
	BYTE		        99*CapOnNappers_mvl/mxv
	BYTE	W01
	BYTE		        98*CapOnNappers_mvl/mxv
	BYTE	W01
	BYTE		        96*CapOnNappers_mvl/mxv
	BYTE	W01
	BYTE		        95*CapOnNappers_mvl/mxv
	BYTE	W01
	BYTE		        93*CapOnNappers_mvl/mxv
	BYTE	W01
	BYTE		        92*CapOnNappers_mvl/mxv
	BYTE	W01
	BYTE		        90*CapOnNappers_mvl/mxv
	BYTE	W01
	BYTE		        89*CapOnNappers_mvl/mxv
	BYTE	W01
	BYTE		        87*CapOnNappers_mvl/mxv
	BYTE	W01
	BYTE		        86*CapOnNappers_mvl/mxv
	BYTE	W01
	BYTE		        84*CapOnNappers_mvl/mxv
	BYTE	W01
	BYTE		        83*CapOnNappers_mvl/mxv
	BYTE	W01
	BYTE		        81*CapOnNappers_mvl/mxv
	BYTE	W01
	BYTE		        80*CapOnNappers_mvl/mxv
	BYTE	W01
	BYTE		        78*CapOnNappers_mvl/mxv
	BYTE	W01
	BYTE		        77*CapOnNappers_mvl/mxv
	BYTE	W01
	BYTE		        76*CapOnNappers_mvl/mxv
	BYTE	W01
	BYTE		        74*CapOnNappers_mvl/mxv
	BYTE	W01
	BYTE		        73*CapOnNappers_mvl/mxv
	BYTE	W01
	BYTE		        70*CapOnNappers_mvl/mxv
	BYTE	W02
	BYTE		PAN     c_v-46
	BYTE	W03
	BYTE		        c_v-47
	BYTE	W02
	BYTE		        c_v-48
	BYTE	W03
	BYTE		        c_v-49
	BYTE	W02
	BYTE		        c_v-50
	BYTE	W03
	BYTE		        c_v-51
	BYTE	W02
	BYTE		        c_v-52
	BYTE	W03
	BYTE		        c_v-53
	BYTE	W03
	BYTE		        c_v-54
	BYTE	W02
	BYTE		        c_v-55
	BYTE	W03
	BYTE		        c_v-56
	BYTE	W02
	BYTE		        c_v-57
	BYTE	W03
	BYTE		        c_v-58
	BYTE	W02
	BYTE		        c_v-60
	BYTE	W36
	BYTE	W02
// 029   ----------------------------------------
	BYTE	W36
	BYTE	W02
	BYTE		        c_v-59
	BYTE	W01
	BYTE		        c_v-55
	BYTE	W01
	BYTE		        c_v-52
	BYTE	W01
	BYTE		        c_v-47
	BYTE	W01
	BYTE		        c_v-43
	BYTE	W01
	BYTE		        c_v-40
	BYTE	W01
	BYTE		        c_v-36
	BYTE	W01
	BYTE		        c_v-31
	BYTE	W01
	BYTE		        c_v-29
	BYTE	W01
	BYTE		        c_v-24
	BYTE	W01
	BYTE		        c_v-20
	BYTE	W01
	BYTE		        c_v-17
	BYTE	W01
	BYTE		        c_v-13
	BYTE	W01
	BYTE		        c_v-8
	BYTE	W01
	BYTE		        c_v-5
	BYTE	W01
	BYTE		        c_v-1
	BYTE	W01
	BYTE		        c_v+3
	BYTE	W01
	BYTE		        c_v+6
	BYTE	W01
	BYTE		        c_v+11
	BYTE	W01
	BYTE		        c_v+15
	BYTE	W01
	BYTE		        c_v+18
	BYTE	W01
	BYTE		        c_v+22
	BYTE	W01
	BYTE		        c_v+27
	BYTE		TIE     Fn3   v080
	BYTE	W01
	BYTE		PAN     c_v+29
	BYTE	W01
	BYTE		        c_v+34
	BYTE	W01
	BYTE		        c_v+38
	BYTE	W01
	BYTE		        c_v+39
	BYTE	W32
// 030   ----------------------------------------
	BYTE	W96
// 031   ----------------------------------------
	BYTE	W60
	BYTE		TIE     An3   v064
	BYTE	W36
// 032   ----------------------------------------
	BYTE	W96
// 033   ----------------------------------------
	BYTE	W56
	BYTE	W03
	BYTE		EOT     Fn3 
	BYTE		        An3 
	BYTE	W01
	BYTE		TIE     Gn3 
	BYTE		TIE     Cn4   v080
	BYTE	W36
// 034   ----------------------------------------
	BYTE	W96
// 035   ----------------------------------------
	BYTE	W56
	BYTE	W03
	BYTE		EOT     Gn3 
	BYTE		        Cn4 
	BYTE	W01
	BYTE		TIE     An3 
	BYTE		TIE     Dn4   v072
	BYTE	W36
// 036   ----------------------------------------
	BYTE	W96
// 037   ----------------------------------------
	BYTE	W68
	BYTE	W03
	BYTE		EOT   
	BYTE	W24
	BYTE	W01
// 038   ----------------------------------------
	BYTE	W96
// 039   ----------------------------------------
	BYTE	W66
	BYTE	W01
	BYTE		        An3 
	BYTE	W28
	BYTE	W01
// 040   ----------------------------------------
	BYTE	W96
	BYTE	GoTo
	 POIN2	CapOnNappers_10_B1
CapOnNappers_10_B2:
// 041   ----------------------------------------
	BYTE	FINE

//**************** Track 11 (Midi-Chn.12) ****************//

CapOnNappers_11:
	BYTE	KEYSH   CapOnNappers_key+0
CapOnNappers_11_B1:
// 000   ----------------------------------------
	BYTE		VOICE   50
	BYTE		VOL     100*CapOnNappers_mvl/mxv
	BYTE		PAN     c_v+0
	BYTE		MOD     0
	BYTE		VOL     57*CapOnNappers_mvl/mxv
	BYTE	W96
// 001   ----------------------------------------
	BYTE	W96
// 002   ----------------------------------------
	BYTE	W96
// 003   ----------------------------------------
	BYTE	W96
// 004   ----------------------------------------
	BYTE	W96
// 005   ----------------------------------------
	BYTE	W96
// 006   ----------------------------------------
	BYTE	W96
// 007   ----------------------------------------
	BYTE	W96
// 008   ----------------------------------------
	BYTE		PAN     c_v-64
	BYTE		N05     En5   v084
	BYTE	W06
	BYTE		        Bn4 
	BYTE	W06
	BYTE		        Gn4   v092
	BYTE	W06
	BYTE		        En4   v088
	BYTE	W06
	BYTE		        Bn4   v080
	BYTE	W06
	BYTE		        Gn4   v084
	BYTE	W06
	BYTE		        En4   v092
	BYTE	W06
	BYTE		        Bn3   v088
	BYTE	W06
	BYTE		        En5   v084
	BYTE	W06
	BYTE		        Bn4 
	BYTE	W06
	BYTE		        Gn4   v092
	BYTE	W06
	BYTE		        En4   v088
	BYTE	W06
	BYTE		        Bn4   v080
	BYTE	W06
	BYTE		        Gn4   v084
	BYTE	W06
	BYTE		        En4   v092
	BYTE	W06
	BYTE		        Bn3   v088
	BYTE	W06
// 009   ----------------------------------------
	BYTE		        En5   v084
	BYTE	W06
	BYTE		        Bn4 
	BYTE	W06
	BYTE		        Gn4   v092
	BYTE	W06
	BYTE		        En4   v088
	BYTE	W06
	BYTE		        Bn4   v080
	BYTE	W06
	BYTE		        Gn4   v084
	BYTE	W06
	BYTE		        En4   v092
	BYTE	W06
	BYTE		        Bn3   v088
	BYTE	W06
	BYTE		        En5   v084
	BYTE	W06
	BYTE		        Bn4 
	BYTE	W06
	BYTE		        Gn4   v092
	BYTE	W06
	BYTE		        En4   v088
	BYTE	W06
	BYTE		        Bn4   v080
	BYTE	W06
	BYTE		        Gn4   v084
	BYTE	W06
	BYTE		        En4   v092
	BYTE	W06
	BYTE		        Bn3   v088
	BYTE	W06
// 010   ----------------------------------------
	BYTE		        En5   v084
	BYTE	W05
	BYTE	W01
	BYTE		        Bn4 
	BYTE	W06
	BYTE		        Gn4   v092
	BYTE	W06
	BYTE		        En4   v088
	BYTE	W06
	BYTE		        Bn4   v080
	BYTE	W06
	BYTE		        Gn4   v084
	BYTE	W06
	BYTE		        En4   v092
	BYTE	W06
	BYTE		        Bn3   v088
	BYTE	W06
	BYTE		        En5   v084
	BYTE	W06
	BYTE		        Bn4 
	BYTE	W06
	BYTE		        Gn4   v092
	BYTE	W06
	BYTE		        En4   v088
	BYTE	W06
	BYTE		        Bn4   v080
	BYTE	W06
	BYTE		        Gn4   v084
	BYTE	W06
	BYTE		        En4   v092
	BYTE	W06
	BYTE		        Bn3   v088
	BYTE	W06
// 011   ----------------------------------------
	BYTE		        En5   v084
	BYTE	W06
	BYTE		        Bn4 
	BYTE	W06
	BYTE		        Gn4   v092
	BYTE	W06
	BYTE		        En4   v088
	BYTE	W06
	BYTE		        Bn4   v080
	BYTE	W06
	BYTE		        Gn4   v084
	BYTE	W06
	BYTE		        En4   v092
	BYTE	W06
	BYTE		        Bn3   v088
	BYTE	W06
	BYTE		        En5   v084
	BYTE	W02
	BYTE	W04
	BYTE		        Bn4 
	BYTE	W06
	BYTE		        Gn4   v092
	BYTE	W06
	BYTE		        En4   v088
	BYTE	W06
	BYTE		        Bn4   v080
	BYTE	W06
	BYTE		        Gn4   v084
	BYTE	W06
	BYTE		        En4   v092
	BYTE	W06
	BYTE		        Bn3   v088
	BYTE	W06
// 012   ----------------------------------------
	BYTE		        En5   v084
	BYTE	W06
	BYTE		        Cn5 
	BYTE	W04
	BYTE	W02
	BYTE		        Gn4   v092
	BYTE	W06
	BYTE		        En4   v088
	BYTE	W06
	BYTE		        Cn5   v080
	BYTE	W06
	BYTE		        Gn4   v084
	BYTE	W06
	BYTE		        En4   v092
	BYTE	W06
	BYTE		        Bn3   v088
	BYTE	W06
	BYTE		        En5   v084
	BYTE	W06
	BYTE		        Cn5 
	BYTE	W06
	BYTE		        Gn4   v092
	BYTE	W06
	BYTE		        En4   v088
	BYTE	W06
	BYTE		        Cn5   v080
	BYTE	W06
	BYTE		        Gn4   v084
	BYTE	W06
	BYTE		        En4   v092
	BYTE	W06
	BYTE		        Bn3   v088
	BYTE	W05
	BYTE	W01
// 013   ----------------------------------------
	BYTE		        En5   v084
	BYTE	W06
	BYTE		        Cn5 
	BYTE	W06
	BYTE		        Gn4   v092
	BYTE	W06
	BYTE		        En4   v088
	BYTE	W06
	BYTE		        Cn5   v080
	BYTE	W03
	BYTE	W03
	BYTE		        Gn4   v084
	BYTE	W06
	BYTE		        En4   v092
	BYTE	W06
	BYTE		        Bn3   v088
	BYTE	W06
	BYTE		        En5   v084
	BYTE	W06
	BYTE		        Cn5 
	BYTE	W06
	BYTE		        Gn4   v092
	BYTE	W06
	BYTE		        En4   v088
	BYTE	W06
	BYTE		        Cn5   v080
	BYTE	W06
	BYTE		        Gn4   v084
	BYTE	W06
	BYTE		        En4   v092
	BYTE	W06
	BYTE		        Bn3   v088
	BYTE	W06
// 014   ----------------------------------------
	BYTE		        En5   v084
	BYTE	W06
	BYTE		        Cn5 
	BYTE	W06
	BYTE		        Gn4   v092
	BYTE	W04
	BYTE	W02
	BYTE		        En4   v088
	BYTE	W06
	BYTE		        Cn5   v080
	BYTE	W06
	BYTE		        Gn4   v084
	BYTE	W06
	BYTE		        En4   v092
	BYTE	W06
	BYTE		        Bn3   v088
	BYTE	W02
	BYTE	W04
	BYTE		        En5   v084
	BYTE	W06
	BYTE		        Cn5 
	BYTE	W06
	BYTE		        Gn4   v092
	BYTE	W06
	BYTE		        En4   v088
	BYTE	W06
	BYTE		        Cn5   v080
	BYTE	W06
	BYTE		        Gn4   v084
	BYTE	W06
	BYTE		        En4   v092
	BYTE	W06
	BYTE		        Bn3   v088
	BYTE	W06
// 015   ----------------------------------------
	BYTE		        En5   v084
	BYTE	W05
	BYTE	W01
	BYTE		        Cn5 
	BYTE	W06
	BYTE		        Gn4   v092
	BYTE	W06
	BYTE		        En4   v088
	BYTE	W06
	BYTE		        Cn5   v080
	BYTE	W06
	BYTE		        Gn4   v084
	BYTE	W03
	BYTE	W03
	BYTE		        En4   v092
	BYTE	W06
	BYTE		        Bn3   v088
	BYTE	W06
	BYTE		        En5   v084
	BYTE	W06
	BYTE		        Cn5 
	BYTE	W06
	BYTE		        Gn4   v092
	BYTE	W01
	BYTE	W05
	BYTE		        En4   v088
	BYTE	W06
	BYTE		        Bn3   v080
	BYTE	W06
	BYTE		        En4   v084
	BYTE	W06
	BYTE		        Gn4   v092
	BYTE	W05
	BYTE	W01
	BYTE		N06     Bn4   v088
	BYTE	W06
// 016   ----------------------------------------
	BYTE	W96
// 017   ----------------------------------------
	BYTE	W96
// 018   ----------------------------------------
	BYTE	W96
// 019   ----------------------------------------
	BYTE	W96
// 020   ----------------------------------------
	BYTE	W96
// 021   ----------------------------------------
	BYTE	W96
// 022   ----------------------------------------
	BYTE	W96
// 023   ----------------------------------------
	BYTE	W96
// 024   ----------------------------------------
	BYTE	W96
// 025   ----------------------------------------
	BYTE	W96
// 026   ----------------------------------------
	BYTE	W96
// 027   ----------------------------------------
	BYTE	W96
// 028   ----------------------------------------
	BYTE	W96
// 029   ----------------------------------------
	BYTE	W96
// 030   ----------------------------------------
	BYTE	W96
// 031   ----------------------------------------
	BYTE	W96
// 032   ----------------------------------------
	BYTE	W96
// 033   ----------------------------------------
	BYTE	W96
// 034   ----------------------------------------
	BYTE	W96
// 035   ----------------------------------------
	BYTE	W96
// 036   ----------------------------------------
	BYTE	W96
// 037   ----------------------------------------
	BYTE	W96
// 038   ----------------------------------------
	BYTE	W96
// 039   ----------------------------------------
	BYTE	W96
// 040   ----------------------------------------
	BYTE	W96
	BYTE	GoTo
	 POIN2	CapOnNappers_11_B1
CapOnNappers_11_B2:
// 041   ----------------------------------------
	BYTE	FINE

//**************** Track 12 (Midi-Chn.13) ****************//

CapOnNappers_12:
	BYTE	KEYSH   CapOnNappers_key+0
CapOnNappers_12_B1:
// 000   ----------------------------------------
	BYTE		VOICE   73
	BYTE		VOL     111*CapOnNappers_mvl/mxv
	BYTE		PAN     c_v+0
	BYTE		MOD     0
	BYTE		PAN     c_v-60
	BYTE	W96
// 001   ----------------------------------------
	BYTE	W96
// 002   ----------------------------------------
	BYTE	W96
// 003   ----------------------------------------
	BYTE	W96
// 004   ----------------------------------------
	BYTE	W96
// 005   ----------------------------------------
	BYTE	W96
// 006   ----------------------------------------
	BYTE	W96
// 007   ----------------------------------------
	BYTE	W96
// 008   ----------------------------------------
	BYTE	W48
	BYTE		N44     En4   v064
	BYTE	W48
// 009   ----------------------------------------
	BYTE		        Fs4 
	BYTE	W48
	BYTE		        Gn4 
	BYTE	W48
// 010   ----------------------------------------
	BYTE		        Bn4 
	BYTE	W72
	BYTE		N68     Gn4 
	BYTE	W24
// 011   ----------------------------------------
	BYTE	W48
	BYTE		N44     En4 
	BYTE	W48
// 012   ----------------------------------------
	BYTE		TIE     Cn5   v072
	BYTE	W96
// 013   ----------------------------------------
	BYTE	W92
	BYTE	W03
	BYTE		EOT   
	BYTE	W01
// 014   ----------------------------------------
	BYTE		TIE     En5   v060
	BYTE	W96
// 015   ----------------------------------------
	BYTE	W90
	BYTE	W01
	BYTE		PAN     c_v-56
	BYTE	W01
	BYTE		        c_v-47
	BYTE	W01
	BYTE		        c_v-33
	BYTE	W01
	BYTE		        c_v-20
	BYTE	W01
	BYTE		EOT   
	BYTE		PAN     c_v-11
	BYTE	W01
// 016   ----------------------------------------
	BYTE		        c_v-6
	BYTE		BEND    c_v+0
	BYTE		N56     Bn4   v116
	BYTE	W60
	BYTE		N11     En4   v084
	BYTE	W12
	BYTE		N08     Gn4   v092
	BYTE	W12
	BYTE		N09     Bn4   v104
	BYTE	W12
// 017   ----------------------------------------
CapOnNappers_12_017:
	BYTE		N23     An4   v112
	BYTE	W24
	BYTE		        Gn4   v096
	BYTE	W24
	BYTE		        Fs4 
	BYTE	W24
	BYTE		        Dn4   v072
	BYTE	W24
	BYTE	PEND
// 018   ----------------------------------------
	BYTE		        Gn4   v092
	BYTE	W12
	BYTE		BEND    c_v-32
	BYTE	W11
	BYTE		        c_v-32
	BYTE	W01
	BYTE		        c_v+0
	BYTE		N11     En4 
	BYTE	W12
	BYTE		TIE     Bn3   v096
	BYTE	W60
// 019   ----------------------------------------
	BYTE	W05
	BYTE	W04
	BYTE	W03
	BYTE	W03
	BYTE	W03
	BYTE	W02
	BYTE	W03
	BYTE	W01
	BYTE	W03
	BYTE	W02
	BYTE	W01
	BYTE		MOD     1
	BYTE	W02
	BYTE	W03
	BYTE	W01
	BYTE	W02
	BYTE	W01
	BYTE	W02
	BYTE	W01
	BYTE		        2
	BYTE	W02
	BYTE	W01
	BYTE	W02
	BYTE	W01
	BYTE		        3
	BYTE	W02
	BYTE	W01
	BYTE	W02
	BYTE	W01
	BYTE		        4
	BYTE	W02
	BYTE	W01
	BYTE		        5
	BYTE	W02
	BYTE	W01
	BYTE		        6
	BYTE	W02
	BYTE	W01
	BYTE		        8
	BYTE	W02
	BYTE	W01
	BYTE		        10
	BYTE	W02
	BYTE	W01
	BYTE		        14
	BYTE	W02
	BYTE		EOT   
	BYTE	W01
	BYTE		MOD     20
	BYTE	W01
	BYTE		        23
	BYTE		        20
	BYTE	W01
	BYTE		        16
	BYTE	W01
	BYTE		        13
	BYTE	W01
	BYTE		        9
	BYTE		        6
	BYTE	W01
	BYTE		        2
	BYTE	W01
	BYTE		        0
	BYTE	W01
	BYTE	W01
	BYTE	W01
	BYTE	W01
	BYTE	W01
	BYTE	W01
	BYTE	W12
// 020   ----------------------------------------
	BYTE		N56     Bn4   v116
	BYTE	W60
	BYTE		N11     En4   v084
	BYTE	W12
	BYTE		N08     Gn4   v092
	BYTE	W12
	BYTE		N09     Bn4   v104
	BYTE	W12
// 021   ----------------------------------------
	BYTE		N23     An4   v112
	BYTE	W24
	BYTE		        Gn4   v096
	BYTE	W24
	BYTE		        Fs4 
	BYTE	W24
	BYTE		        Ds4   v072
	BYTE	W24
// 022   ----------------------------------------
	BYTE		N32     Gn4   v092
	BYTE	W11
	BYTE		BEND    c_v-32
	BYTE	W12
	BYTE		        c_v-32
	BYTE	W01
	BYTE		        c_v+0
	BYTE	W12
	BYTE		TIE     Bn4 
	BYTE	W60
// 023   ----------------------------------------
	BYTE	W20
	BYTE	W06
	BYTE	W03
	BYTE	W04
	BYTE	W03
	BYTE	W03
	BYTE	W03
	BYTE	W03
	BYTE	W02
	BYTE	W03
	BYTE	W01
	BYTE	W02
	BYTE	W01
	BYTE	W02
	BYTE	W01
	BYTE	W02
	BYTE	W01
	BYTE	W02
	BYTE	W01
	BYTE	W02
	BYTE	W01
	BYTE	W02
	BYTE	W01
	BYTE	W02
	BYTE		EOT   
	BYTE	W01
	BYTE	W02
	BYTE	W01
	BYTE	W02
	BYTE	W01
	BYTE	W02
	BYTE	W01
	BYTE	W02
	BYTE	W01
	BYTE	W02
	BYTE	W01
	BYTE	W01
	BYTE	W01
	BYTE	W01
	BYTE	W01
	BYTE	W01
	BYTE	W01
	BYTE	W01
	BYTE	W01
	BYTE	W01
// 024   ----------------------------------------
	BYTE		N56     Bn4   v116
	BYTE	W01
	BYTE	W01
	BYTE	W56
	BYTE	W02
	BYTE		N11     En4   v084
	BYTE	W12
	BYTE		N08     Gn4   v092
	BYTE	W12
	BYTE		N09     Bn4   v104
	BYTE	W12
// 025   ----------------------------------------
	BYTE	PATT
	 POIN2	CapOnNappers_12_017
// 026   ----------------------------------------
	BYTE		N23     Gn4   v092
	BYTE	W12
	BYTE		BEND    c_v-32
	BYTE	W11
	BYTE		        c_v-32
	BYTE	W01
	BYTE		        c_v+0
	BYTE		N11     En4 
	BYTE	W12
	BYTE		TIE     Bn3 
	BYTE	W60
// 027   ----------------------------------------
	BYTE	W04
	BYTE	W05
	BYTE	W03
	BYTE	W03
	BYTE	W03
	BYTE	W01
	BYTE	W03
	BYTE	W02
	BYTE	W03
	BYTE	W01
	BYTE	W02
	BYTE	W01
	BYTE	W03
	BYTE	W02
	BYTE	W01
	BYTE		MOD     1
	BYTE	W02
	BYTE	W01
	BYTE	W02
	BYTE	W01
	BYTE	W02
	BYTE	W01
	BYTE	W02
	BYTE	W01
	BYTE		        2
	BYTE	W02
	BYTE	W01
	BYTE	W02
	BYTE	W01
	BYTE		        3
	BYTE	W02
	BYTE	W01
	BYTE		        4
	BYTE	W02
	BYTE	W01
	BYTE		        5
	BYTE	W02
	BYTE	W01
	BYTE		        6
	BYTE	W02
	BYTE	W01
	BYTE		        8
	BYTE	W02
	BYTE	W01
	BYTE		        10
	BYTE	W01
	BYTE		EOT   
	BYTE	W01
	BYTE	W01
	BYTE		MOD     15
	BYTE	W01
	BYTE	W01
	BYTE	W01
	BYTE		        23
	BYTE	W01
	BYTE		        20
	BYTE		        16
	BYTE	W01
	BYTE		        13
	BYTE	W01
	BYTE		        9
	BYTE	W01
	BYTE		        6
	BYTE		        2
	BYTE	W01
	BYTE		        0
	BYTE	W01
	BYTE	W01
	BYTE	W01
	BYTE	W12
// 028   ----------------------------------------
	BYTE	W96
// 029   ----------------------------------------
	BYTE	W96
// 030   ----------------------------------------
	BYTE	W96
// 031   ----------------------------------------
	BYTE	W96
// 032   ----------------------------------------
	BYTE	W96
// 033   ----------------------------------------
	BYTE	W96
// 034   ----------------------------------------
	BYTE	W96
// 035   ----------------------------------------
	BYTE	W96
// 036   ----------------------------------------
	BYTE	W96
// 037   ----------------------------------------
	BYTE	W96
// 038   ----------------------------------------
	BYTE	W72
	BYTE		N44     Cn5   v040
	BYTE	W24
// 039   ----------------------------------------
	BYTE	W24
	BYTE		N40     Dn5   v048
	BYTE	W72
// 040   ----------------------------------------
	BYTE	W96
	BYTE	GoTo
	 POIN2	CapOnNappers_12_B1
CapOnNappers_12_B2:
// 041   ----------------------------------------
	BYTE	FINE

//**************** Track 13 (Midi-Chn.14) ****************//

CapOnNappers_13:
	BYTE	KEYSH   CapOnNappers_key+0
CapOnNappers_13_B1:
// 000   ----------------------------------------
	BYTE		VOICE   73
	BYTE		VOL     109*CapOnNappers_mvl/mxv
	BYTE		PAN     c_v+0
	BYTE		MOD     0
	BYTE		PAN     c_v-60
	BYTE	W96
// 001   ----------------------------------------
	BYTE	W96
// 002   ----------------------------------------
	BYTE	W96
// 003   ----------------------------------------
	BYTE	W96
// 004   ----------------------------------------
	BYTE	W68
	BYTE	W01
	BYTE	W24
	BYTE	W03
// 005   ----------------------------------------
	BYTE	W96
// 006   ----------------------------------------
	BYTE	W96
// 007   ----------------------------------------
	BYTE	W64
	BYTE	W01
	BYTE	W30
	BYTE		        c_v+57
	BYTE		N05     Gn5   v084
	BYTE	W01
// 008   ----------------------------------------
	BYTE	W06
	BYTE		        En5 
	BYTE	W06
	BYTE		        Bn4   v092
	BYTE	W06
	BYTE		        Gn4   v088
	BYTE	W06
	BYTE		        En5   v080
	BYTE	W06
	BYTE		        Bn4   v084
	BYTE	W06
	BYTE		        Gn4   v092
	BYTE	W06
	BYTE		        En4   v088
	BYTE	W06
	BYTE		        Gn5   v084
	BYTE	W06
	BYTE		        En5 
	BYTE	W06
	BYTE		        Bn4   v092
	BYTE	W06
	BYTE		        Gn4   v088
	BYTE	W06
	BYTE		        En5   v080
	BYTE	W06
	BYTE		        Bn4   v084
	BYTE	W06
	BYTE		        Gn4   v092
	BYTE	W06
	BYTE		        En4   v088
	BYTE	W06
// 009   ----------------------------------------
	BYTE		        Gn5   v084
	BYTE	W06
	BYTE		        En5 
	BYTE	W06
	BYTE		        Bn4   v092
	BYTE	W06
	BYTE		        Gn4   v088
	BYTE	W06
	BYTE		        En5   v080
	BYTE	W06
	BYTE		        Bn4   v084
	BYTE	W06
	BYTE		        Gn4   v092
	BYTE	W06
	BYTE		        En4   v088
	BYTE	W01
	BYTE	W05
	BYTE		        Gn5   v084
	BYTE	W06
	BYTE		        En5 
	BYTE	W06
	BYTE		        Bn4   v092
	BYTE	W06
	BYTE		        Gn4   v088
	BYTE	W06
	BYTE		        En5   v080
	BYTE	W06
	BYTE		        Bn4   v084
	BYTE	W06
	BYTE		        Gn4   v092
	BYTE	W06
	BYTE		        En4   v088
	BYTE	W06
// 010   ----------------------------------------
	BYTE		        Gn5   v084
	BYTE	W06
	BYTE		        En5 
	BYTE	W06
	BYTE		        Bn4   v092
	BYTE	W06
	BYTE		        Gn4   v088
	BYTE	W06
	BYTE		        En5   v080
	BYTE	W06
	BYTE		        Bn4   v084
	BYTE	W06
	BYTE		        Gn4   v092
	BYTE	W06
	BYTE		        En4   v088
	BYTE	W06
	BYTE		        Gn5   v084
	BYTE	W06
	BYTE		        En5 
	BYTE	W06
	BYTE		        Bn4   v092
	BYTE	W01
	BYTE	W05
	BYTE		        Gn4   v088
	BYTE	W06
	BYTE		        En5   v080
	BYTE	W06
	BYTE		        Bn4   v084
	BYTE	W06
	BYTE		        Gn4   v092
	BYTE	W06
	BYTE		        En4   v088
	BYTE	W06
// 011   ----------------------------------------
	BYTE		        Gn5   v084
	BYTE	W06
	BYTE		        En5 
	BYTE	W06
	BYTE		        Bn4   v092
	BYTE	W06
	BYTE		        Gn4   v088
	BYTE	W04
	BYTE	W02
	BYTE		        En5   v080
	BYTE	W06
	BYTE		        Bn4   v084
	BYTE	W06
	BYTE		        Gn4   v092
	BYTE	W06
	BYTE		        En4   v088
	BYTE	W06
	BYTE		        Gn5   v084
	BYTE	W06
	BYTE		        En5 
	BYTE	W06
	BYTE		        Bn4   v092
	BYTE	W06
	BYTE		        Gn4   v088
	BYTE	W06
	BYTE		        En5   v080
	BYTE	W06
	BYTE		        Bn4   v084
	BYTE	W06
	BYTE		        Gn4   v092
	BYTE	W06
	BYTE		        En4   v088
	BYTE	W06
// 012   ----------------------------------------
	BYTE		        Gn5   v084
	BYTE	W06
	BYTE		        En5 
	BYTE	W06
	BYTE		        Cn5   v092
	BYTE	W06
	BYTE		        Gn4   v088
	BYTE	W06
	BYTE		        En5   v080
	BYTE	W06
	BYTE		        Cn5   v084
	BYTE	W06
	BYTE		        Gn4   v092
	BYTE	W03
	BYTE	W03
	BYTE		        En4   v088
	BYTE	W06
	BYTE		        Gn5   v084
	BYTE	W06
	BYTE		        En5 
	BYTE	W06
	BYTE		        Cn5   v092
	BYTE	W06
	BYTE		        Gn4   v088
	BYTE	W06
	BYTE		        En5   v080
	BYTE	W06
	BYTE		        Cn5   v084
	BYTE	W06
	BYTE		        Gn4   v092
	BYTE	W06
	BYTE		        En4   v088
	BYTE	W06
// 013   ----------------------------------------
	BYTE		        Gn5   v084
	BYTE	W06
	BYTE		        En5 
	BYTE	W06
	BYTE		        Cn5   v092
	BYTE	W06
	BYTE		        Gn4   v088
	BYTE	W06
	BYTE		        En5   v080
	BYTE	W06
	BYTE		        Cn5   v084
	BYTE	W06
	BYTE		        Gn4   v092
	BYTE	W06
	BYTE		        En4   v088
	BYTE	W06
	BYTE		        Gn5   v084
	BYTE	W06
	BYTE		        En5 
	BYTE	W03
	BYTE	W03
	BYTE		        Cn5   v092
	BYTE	W06
	BYTE		        Gn4   v088
	BYTE	W06
	BYTE		        En5   v080
	BYTE	W06
	BYTE		        Cn5   v084
	BYTE	W06
	BYTE		        Gn4   v092
	BYTE	W06
	BYTE		        En4   v088
	BYTE	W06
// 014   ----------------------------------------
	BYTE		        Gn5   v084
	BYTE	W06
	BYTE		        En5 
	BYTE	W06
	BYTE		        Cn5   v092
	BYTE	W05
	BYTE	W01
	BYTE		        Gn4   v088
	BYTE	W06
	BYTE		        En5   v080
	BYTE	W06
	BYTE		        Cn5   v084
	BYTE	W06
	BYTE		        Gn4   v092
	BYTE	W06
	BYTE		        En4   v088
	BYTE	W06
	BYTE		        Gn5   v084
	BYTE	W06
	BYTE		        En5 
	BYTE	W06
	BYTE		        Cn5   v092
	BYTE	W06
	BYTE		        Gn4   v088
	BYTE	W06
	BYTE		        En5   v080
	BYTE	W02
	BYTE	W04
	BYTE		        Cn5   v084
	BYTE	W06
	BYTE		        Gn4   v092
	BYTE	W06
	BYTE		        En4   v088
	BYTE	W06
// 015   ----------------------------------------
	BYTE		        Gn5   v084
	BYTE	W06
	BYTE		        En5 
	BYTE	W06
	BYTE		        Cn5   v092
	BYTE	W06
	BYTE		        Gn4   v088
	BYTE	W06
	BYTE		        En5   v080
	BYTE	W06
	BYTE		        Cn5   v084
	BYTE	W05
	BYTE	W01
	BYTE		        Gn4   v092
	BYTE	W06
	BYTE		        En4   v088
	BYTE	W06
	BYTE		        Gn5   v084
	BYTE	W06
	BYTE		        En5 
	BYTE	W06
	BYTE		        Cn5   v092
	BYTE	W06
	BYTE		        Gn4   v088
	BYTE	W06
	BYTE		        En4   v080
	BYTE	W06
	BYTE		        Gn4   v084
	BYTE	W06
	BYTE		        Cn5   v092
	BYTE	W06
	BYTE		        Dn5   v088
	BYTE	W02
	BYTE	W04
// 016   ----------------------------------------
	BYTE	W96
// 017   ----------------------------------------
	BYTE	W96
// 018   ----------------------------------------
	BYTE	W96
// 019   ----------------------------------------
	BYTE	W96
// 020   ----------------------------------------
	BYTE	W96
// 021   ----------------------------------------
	BYTE	W96
// 022   ----------------------------------------
	BYTE	W96
// 023   ----------------------------------------
	BYTE	W96
// 024   ----------------------------------------
	BYTE	W96
// 025   ----------------------------------------
	BYTE	W96
// 026   ----------------------------------------
	BYTE	W96
// 027   ----------------------------------------
	BYTE	W96
// 028   ----------------------------------------
	BYTE	W96
// 029   ----------------------------------------
	BYTE	W96
// 030   ----------------------------------------
	BYTE	W96
// 031   ----------------------------------------
	BYTE	W96
// 032   ----------------------------------------
	BYTE	W96
// 033   ----------------------------------------
	BYTE	W96
// 034   ----------------------------------------
	BYTE	W96
// 035   ----------------------------------------
	BYTE	W96
// 036   ----------------------------------------
	BYTE	W96
// 037   ----------------------------------------
	BYTE	W96
// 038   ----------------------------------------
	BYTE	W96
// 039   ----------------------------------------
	BYTE	W96
// 040   ----------------------------------------
	BYTE	W96
	BYTE	GoTo
	 POIN2	CapOnNappers_13_B1
CapOnNappers_13_B2:
// 041   ----------------------------------------
	BYTE	FINE

//******************************************************//
	ALIGN 4

CapOnNappers:
	BYTE	13	// NumTrks
	BYTE	0	// NumBlks
	BYTE	CapOnNappers_pri	// Priority
	BYTE	CapOnNappers_rev	// Reverb.

	POIN2	CapOnNappers_grp

	POIN2	CapOnNappers_1
	POIN2	CapOnNappers_2
	POIN2	CapOnNappers_3
	POIN2	CapOnNappers_4
	POIN2	CapOnNappers_5
	POIN2	CapOnNappers_6
	POIN2	CapOnNappers_7
	POIN2	CapOnNappers_8
	POIN2	CapOnNappers_9
	POIN2	CapOnNappers_10
	POIN2	CapOnNappers_11
	POIN2	CapOnNappers_12
	POIN2	CapOnNappers_13

	
