//Event file generated from Sappy .s format.
	#include "MPlayDef.event"

	#define	ConfidenceInTheDomination_grp  voicegroup000
	#define	ConfidenceInTheDomination_pri  0
	#define	ConfidenceInTheDomination_rev  0
	#define	ConfidenceInTheDomination_mvl  127
	#define	ConfidenceInTheDomination_key  0
	#define	ConfidenceInTheDomination_tbs  1
	#define	ConfidenceInTheDomination_exg  0
	#define	ConfidenceInTheDomination_cmp  1

	// .rodata
	//	ConfidenceInTheDomination
	ALIGN 4


//**************** Track 1 (Midi-Chn.0) ****************//

ConfidenceInTheDomination_001:
// 000   ----------------------------------------
 BYTE   KEYSH   ConfidenceInTheDomination_key+0
Label_0_012C7B46:
 BYTE   TEMPO   142*ConfidenceInTheDomination_tbs/2
 BYTE   VOICE   30
 BYTE   VOL   45*ConfidenceInTheDomination_mvl/mxv
 BYTE   PAN   c_v+0
 BYTE   BEND   c_v+0
 BYTE   W02
 BYTE   N09  En3  v108
 BYTE   W12
 BYTE   Gn3
 BYTE   W12
 BYTE   Bn3
 BYTE   W12
 BYTE   N04  An3
 BYTE   W12
 BYTE   Fs3
 BYTE   W06
 BYTE   N09  Dn3
 BYTE   W12
 BYTE   En3
 BYTE   W12
 BYTE   Gn3
 BYTE   W12
 BYTE   Bn3
 BYTE   W04
// 001   ----------------------------------------
 BYTE   W08
 BYTE   N04  Cs4
 BYTE   W12
 BYTE   Dn4
 BYTE   W06
 BYTE   N09  En4
 BYTE   W12
 BYTE   En3
 BYTE   W12
 BYTE   Gn3
 BYTE   W12
 BYTE   Bn3
 BYTE   W12
 BYTE   N04  An3
 BYTE   W12
 BYTE   Fs3
 BYTE   W06
 BYTE   Dn3
 BYTE   W04
// 002   ----------------------------------------
 BYTE   W02
 BYTE   Fs3
 BYTE   W06
 BYTE   An3
 BYTE   W06
 BYTE   Dn3
 BYTE   W06
 BYTE   Fs3
 BYTE   W06
 BYTE   An3
 BYTE   W06
 BYTE   Dn4
 BYTE   W05
 BYTE   BEND   c_v-11
 BYTE   W01
 BYTE   N16  Fn4  v127
 BYTE   W01
 BYTE   BEND   c_v-7
 BYTE   W02
 BYTE   Cn3
 BYTE   W01
 BYTE   Cs3
 BYTE   W02
 BYTE   Dn3
 BYTE   W01
 BYTE   Ds3
 BYTE   W02
 BYTE   Ds3
 BYTE   W01
 BYTE   Ds3
 BYTE   W02
 BYTE   Ds3
 BYTE   W01
 BYTE   En3
 BYTE   W05
 BYTE   N16  Dn4
 BYTE   W18
 BYTE   N09  Fn4
 BYTE   W12
 BYTE   N16  En4
 BYTE   W10
// 003   ----------------------------------------
 BYTE   W08
 BYTE   Fn4
 BYTE   W18
 BYTE   N09  Gn4
 BYTE   W11
 BYTE   BEND   c_v-11
 BYTE   W01
 BYTE   N44  An4
 BYTE   W01
 BYTE   BEND   c_v-9
 BYTE   W02
 BYTE   Gs2
 BYTE   W01
 BYTE   As2
 BYTE   W02
 BYTE   Bn2
 BYTE   W01
 BYTE   Bn2
 BYTE   W02
 BYTE   Cn3
 BYTE   W01
 BYTE   Cs3
 BYTE   W02
 BYTE   Cs3
 BYTE   W01
 BYTE   Cs3
 BYTE   W02
 BYTE   Dn3
 BYTE   W01
 BYTE   Dn3
 BYTE   W02
 BYTE   Dn3
 BYTE   W01
 BYTE   Ds3
 BYTE   W02
 BYTE   Ds3
 BYTE   W01
 BYTE   Ds3
 BYTE   W02
 BYTE   Ds3
 BYTE   W03
 BYTE   Ds3
 BYTE   W03
 BYTE   Ds3
 BYTE   W06
 BYTE   En3
 BYTE   W12
 BYTE   En3
 BYTE   N44  Gs4
 BYTE   W10
// 004   ----------------------------------------
 BYTE   W02
 BYTE   BEND   c_v-1
 BYTE   W06
 BYTE   Ds3
 BYTE   W04
 BYTE   Ds3
 BYTE   W02
 BYTE   Ds3
 BYTE   W03
 BYTE   Ds3
 BYTE   W01
 BYTE   Ds3
 BYTE   W02
 BYTE   Dn3
 BYTE   W01
 BYTE   Dn3
 BYTE   W02
 BYTE   Dn3
 BYTE   W01
 BYTE   Cs3
 BYTE   W02
 BYTE   Cs3
 BYTE   W01
 BYTE   Cn3
 BYTE   W02
 BYTE   Cn3
 BYTE   W01
 BYTE   Bn2
 BYTE   W02
 BYTE   As2
 BYTE   W01
 BYTE   An2
 BYTE   W02
 BYTE   Gs2
 BYTE   W01
 BYTE   Gn2
 BYTE   W01
 BYTE   Fn2
 BYTE   W01
 BYTE   N09  En3  v108
 BYTE   W01
 BYTE   BEND   c_v-5
 BYTE   W01
 BYTE   Cs3
 BYTE   W02
 BYTE   Dn3
 BYTE   W02
 BYTE   Ds3
 BYTE   W01
 BYTE   Ds3
 BYTE   W02
 BYTE   En3
 BYTE   W03
 BYTE   N09  Gn3
 BYTE   W12
 BYTE   Bn3
 BYTE   W12
 BYTE   N04  An3
 BYTE   W12
 BYTE   Fs3
 BYTE   W06
 BYTE   N09  Dn3
 BYTE   W04
// 005   ----------------------------------------
 BYTE   W08
 BYTE   En3
 BYTE   W12
 BYTE   Gn3
 BYTE   W12
 BYTE   Bn3
 BYTE   W12
 BYTE   N04  Cs4
 BYTE   W12
 BYTE   Dn4
 BYTE   W06
 BYTE   N09  En4
 BYTE   W12
 BYTE   En3
 BYTE   W12
 BYTE   Gn3
 BYTE   W10
// 006   ----------------------------------------
 BYTE   W02
 BYTE   Bn3
 BYTE   W12
 BYTE   N04  An3
 BYTE   W12
 BYTE   Fs3
 BYTE   W06
 BYTE   Dn3
 BYTE   W06
 BYTE   Fs3
 BYTE   W06
 BYTE   An3
 BYTE   W06
 BYTE   Dn3
 BYTE   W06
 BYTE   Fs3
 BYTE   W06
 BYTE   An3
 BYTE   W06
 BYTE   Dn4
 BYTE   W05
 BYTE   BEND   c_v-11
 BYTE   W01
 BYTE   N16  Fn4  v127
 BYTE   W01
 BYTE   BEND   c_v-7
 BYTE   W02
 BYTE   Cn3
 BYTE   W01
 BYTE   Cs3
 BYTE   W02
 BYTE   Dn3
 BYTE   W01
 BYTE   Ds3
 BYTE   W02
 BYTE   Ds3
 BYTE   W01
 BYTE   Ds3
 BYTE   W02
 BYTE   Ds3
 BYTE   W01
 BYTE   En3
 BYTE   W05
 BYTE   N16  Dn4
 BYTE   W04
// 007   ----------------------------------------
 BYTE   W14
 BYTE   N09  Fn4
 BYTE   W12
 BYTE   N16  En4
 BYTE   W18
 BYTE   Fn4
 BYTE   W18
 BYTE   N09  Gn4
 BYTE   W12
 BYTE   N16  Gs4
 BYTE   W18
 BYTE   En4
 BYTE   W04
// 008   ----------------------------------------
 BYTE   W14
 BYTE   N09  Gs4
 BYTE   W12
 BYTE   N16  An4
 BYTE   W18
 BYTE   Bn4
 BYTE   W18
 BYTE   N09  Cn5
 BYTE   W12
 BYTE   N16  Dn5
 BYTE   W18
 BYTE   Fn4
 BYTE   W04
// 009   ----------------------------------------
 BYTE   W14
 BYTE   N09  Dn5
 BYTE   W12
 BYTE   N16  Cn5
 BYTE   W18
 BYTE   Bn4
 BYTE   W18
 BYTE   N09  Gn4
 BYTE   W11
 BYTE   BEND   c_v-11
 BYTE   W01
 BYTE   N44  An4
 BYTE   W01
 BYTE   BEND   c_v-9
 BYTE   W02
 BYTE   Gs2
 BYTE   W01
 BYTE   As2
 BYTE   W02
 BYTE   Bn2
 BYTE   W01
 BYTE   Bn2
 BYTE   W02
 BYTE   Cn3
 BYTE   W01
 BYTE   Cs3
 BYTE   W02
 BYTE   Cs3
 BYTE   W01
 BYTE   Cs3
 BYTE   W02
 BYTE   Dn3
 BYTE   W01
 BYTE   Dn3
 BYTE   W02
 BYTE   Dn3
 BYTE   W01
 BYTE   Ds3
 BYTE   W02
 BYTE   Ds3
 BYTE   W01
// 010   ----------------------------------------
 BYTE   Ds3
 BYTE   W02
 BYTE   Ds3
 BYTE   W03
 BYTE   Ds3
 BYTE   W03
 BYTE   Ds3
 BYTE   W06
 BYTE   En3
 BYTE   W12
 BYTE   N44  En4
 BYTE   W48
 BYTE   N04  Fn4
 BYTE   W06
 BYTE   Gn4
 BYTE   W06
 BYTE   N32  An4
 BYTE   W10
// 011   ----------------------------------------
Label_0_012C7CD6:
 BYTE   W24
 BYTE   W02
 BYTE   N04  Gn4  v127
 BYTE   W06
 BYTE   An4
 BYTE   W06
 BYTE   N32  Bn4
 BYTE   W36
 BYTE   N16  Cn5
 BYTE   W18
 BYTE   Bn4
 BYTE   W04
 BYTE   PEND 
// 012   ----------------------------------------
Label_0_012C7CE7:
 BYTE   W14
 BYTE   N11  Cn5  v127
 BYTE   W12
 BYTE   N44  En4
 BYTE   W48
 BYTE   N04  Fn4
 BYTE   W06
 BYTE   Gn4
 BYTE   W06
 BYTE   N32  An4
 BYTE   W10
 BYTE   PEND 
// 013   ----------------------------------------
 BYTE   W24
 BYTE   W02
 BYTE   N04  Gn4
 BYTE   W06
 BYTE   An4
 BYTE   W06
 BYTE   N32  Bn4
 BYTE   W36
 BYTE   N16  Cn5
 BYTE   W18
 BYTE   Dn5
 BYTE   W04
// 014   ----------------------------------------
 BYTE   W14
 BYTE   N11  En5
 BYTE   W12
 BYTE   N44  Bn4
 BYTE   W48
 BYTE   N04  Fn4
 BYTE   W06
 BYTE   Gn4
 BYTE   W06
 BYTE   N32  An4
 BYTE   W10
 BYTE   PATT
  POIN2 Label_0_012C7CD6
 BYTE   PATT
  POIN2 Label_0_012C7CE7
// 015   ----------------------------------------
 BYTE   W24
 BYTE   W02
 BYTE   N16  Gn4  v127
 BYTE   W18
 BYTE   An4
 BYTE   W18
 BYTE   N11  Bn4
 BYTE   W12
 BYTE   BEND   c_v+0
 BYTE   N92  An4
 BYTE   W22
// 016   ----------------------------------------
 BYTE   W02
 BYTE   BEND   c_v-1
 BYTE   W12
 BYTE   Ds3
 BYTE   W07
 BYTE   Ds3
 BYTE   W05
 BYTE   Ds3
 BYTE   W04
 BYTE   Ds3
 BYTE   W03
 BYTE   Ds3
 BYTE   W03
 BYTE   Dn3
 BYTE   W02
 BYTE   Dn3
 BYTE   W03
 BYTE   Dn3
 BYTE   W01
 BYTE   Dn3
 BYTE   W02
 BYTE   Dn3
 BYTE   W01
 BYTE   Dn3
 BYTE   W02
 BYTE   Cs3
 BYTE   W01
 BYTE   Cs3
 BYTE   W02
 BYTE   Cs3
 BYTE   W01
 BYTE   Cs3
 BYTE   W02
 BYTE   Cn3
 BYTE   W01
 BYTE   Cn3
 BYTE   W02
 BYTE   Cn3
 BYTE   W01
 BYTE   Cn3
 BYTE   W02
 BYTE   Bn2
 BYTE   W01
 BYTE   Bn2
 BYTE   W02
 BYTE   As2
 BYTE   W01
 BYTE   As2
 BYTE   W02
 BYTE   An2
 BYTE   W01
 BYTE   An2
 BYTE   W02
 BYTE   Gs2
 BYTE   W01
 BYTE   Gs2
 BYTE   W02
 BYTE   Gn2
 BYTE   W01
 BYTE   Fs2
 BYTE   W01
 BYTE   Fn2
 BYTE   W01
 BYTE   En3
 BYTE   N09  En3  v100
 BYTE   W12
 BYTE   Gn3
 BYTE   W10
// 017   ----------------------------------------
 BYTE   W02
 BYTE   Bn3
 BYTE   W12
 BYTE   N04  An3
 BYTE   W12
 BYTE   Fs3
 BYTE   W06
 BYTE   N09  Dn3
 BYTE   W12
 BYTE   En3
 BYTE   W12
 BYTE   Gn3
 BYTE   W12
 BYTE   Bn3
 BYTE   W12
 BYTE   N04  Cs4
 BYTE   W12
 BYTE   Dn4
 BYTE   W04
// 018   ----------------------------------------
 BYTE   W02
 BYTE   N09  En4
 BYTE   W12
 BYTE   En3
 BYTE   W12
 BYTE   Gn3
 BYTE   W12
 BYTE   Bn3
 BYTE   W12
 BYTE   N04  An3
 BYTE   W12
 BYTE   Fs3
 BYTE   W06
 BYTE   Dn3
 BYTE   W06
 BYTE   Fs3
 BYTE   W06
 BYTE   An3
 BYTE   W06
 BYTE   Dn3
 BYTE   W06
 BYTE   Fs3
 BYTE   W04
// 019   ----------------------------------------
 BYTE   W02
 BYTE   An3
 BYTE   W06
 BYTE   Dn4
 BYTE   W05
 BYTE   BEND   c_v-11
 BYTE   W01
 BYTE   N16  Fn4  v127
 BYTE   W01
 BYTE   BEND   c_v-7
 BYTE   W02
 BYTE   Cn3
 BYTE   W01
 BYTE   Cs3
 BYTE   W02
 BYTE   Dn3
 BYTE   W01
 BYTE   Ds3
 BYTE   W02
 BYTE   Ds3
 BYTE   W01
 BYTE   Ds3
 BYTE   W02
 BYTE   Ds3
 BYTE   W01
 BYTE   En3
 BYTE   W05
 BYTE   N16  Dn4
 BYTE   W18
 BYTE   N09  Fn4
 BYTE   W12
 BYTE   N16  En4
 BYTE   W18
 BYTE   Fn4
 BYTE   W16
// 020   ----------------------------------------
 BYTE   W02
 BYTE   N09  Gn4
 BYTE   W11
 BYTE   BEND   c_v-11
 BYTE   W01
 BYTE   N44  An4
 BYTE   W01
 BYTE   BEND   c_v-9
 BYTE   W02
 BYTE   Gs2
 BYTE   W01
 BYTE   As2
 BYTE   W02
 BYTE   Bn2
 BYTE   W01
 BYTE   Bn2
 BYTE   W02
 BYTE   Cn3
 BYTE   W01
 BYTE   Cs3
 BYTE   W02
 BYTE   Cs3
 BYTE   W01
 BYTE   Cs3
 BYTE   W02
 BYTE   Dn3
 BYTE   W01
 BYTE   Dn3
 BYTE   W02
 BYTE   Dn3
 BYTE   W01
 BYTE   Ds3
 BYTE   W02
 BYTE   Ds3
 BYTE   W01
 BYTE   Ds3
 BYTE   W02
 BYTE   Ds3
 BYTE   W03
 BYTE   Ds3
 BYTE   W03
 BYTE   Ds3
 BYTE   W06
 BYTE   En3
 BYTE   W12
 BYTE   En3
 BYTE   N44  Gs4
 BYTE   W12
 BYTE   BEND   c_v-1
 BYTE   W06
 BYTE   Ds3
 BYTE   W04
 BYTE   Ds3
 BYTE   W02
 BYTE   Ds3
 BYTE   W03
 BYTE   Ds3
 BYTE   W01
 BYTE   Ds3
 BYTE   W02
 BYTE   Dn3
 BYTE   W01
 BYTE   Dn3
 BYTE   W02
 BYTE   Dn3
 BYTE   W01
// 021   ----------------------------------------
 BYTE   Cs3
 BYTE   W02
 BYTE   Cs3
 BYTE   W01
 BYTE   Cn3
 BYTE   W02
 BYTE   Cn3
 BYTE   W01
 BYTE   Bn2
 BYTE   W02
 BYTE   As2
 BYTE   W01
 BYTE   An2
 BYTE   W02
 BYTE   Gs2
 BYTE   W01
 BYTE   Gn2
 BYTE   W01
 BYTE   Fn2
 BYTE   W01
 BYTE   N09  En3  v108
 BYTE   W01
 BYTE   BEND   c_v-5
 BYTE   W01
 BYTE   Cs3
 BYTE   W02
 BYTE   Dn3
 BYTE   W02
 BYTE   Ds3
 BYTE   W01
 BYTE   Ds3
 BYTE   W02
 BYTE   En3
 BYTE   W03
 BYTE   N09  Gn3
 BYTE   W12
 BYTE   Bn3
 BYTE   W12
 BYTE   N04  An3
 BYTE   W12
 BYTE   Fs3
 BYTE   W06
 BYTE   N09  Dn3
 BYTE   W12
 BYTE   En3
 BYTE   W12
 BYTE   Gn3
 BYTE   W04
// 022   ----------------------------------------
 BYTE   W08
 BYTE   Bn3
 BYTE   W12
 BYTE   N04  Cs4
 BYTE   W12
 BYTE   Dn4
 BYTE   W06
 BYTE   N09  En4
 BYTE   W12
 BYTE   Fs3
 BYTE   W12
 BYTE   An3
 BYTE   W12
 BYTE   Cs4
 BYTE   W12
 BYTE   N04  Bn3
 BYTE   W10
// 023   ----------------------------------------
 BYTE   W02
 BYTE   Gs3
 BYTE   W06
 BYTE   N09  En3
 BYTE   W12
 BYTE   Fs3
 BYTE   W12
 BYTE   An3
 BYTE   W12
 BYTE   Cs4
 BYTE   W12
 BYTE   N04  Ds4
 BYTE   W12
 BYTE   En4
 BYTE   W06
 BYTE   N09  Fs4
 BYTE   W12
 BYTE   Gs3
 BYTE   W10
// 024   ----------------------------------------
 BYTE   W02
 BYTE   Bn3
 BYTE   W12
 BYTE   Ds4
 BYTE   W12
 BYTE   N04  Cs4
 BYTE   W12
 BYTE   As3
 BYTE   W06
 BYTE   N09  Fs3
 BYTE   W12
 BYTE   Gs3
 BYTE   W12
 BYTE   Bn3
 BYTE   W12
 BYTE   Ds4
 BYTE   W12
 BYTE   N04  Fn4
 BYTE   W04
// 025   ----------------------------------------
 BYTE   W08
 BYTE   Fs4
 BYTE   W06
 BYTE   N09  Gs4
 BYTE   W12
 BYTE   N16  En4  v127
 BYTE   W18
 BYTE   Cn4
 BYTE   W18
 BYTE   N09  En4
 BYTE   W12
 BYTE   N16  Dn4
 BYTE   W18
 BYTE   En4
 BYTE   W04
// 026   ----------------------------------------
 BYTE   W14
 BYTE   N09  Cn4
 BYTE   W12
 BYTE   N16  Fn4
 BYTE   W18
 BYTE   En4
 BYTE   W18
 BYTE   N09  Dn4
 BYTE   W12
 BYTE   N16  Cn4
 BYTE   W18
 BYTE   An3
 BYTE   W04
// 027   ----------------------------------------
 BYTE   W14
 BYTE   N09  Cn4
 BYTE   W12
 BYTE   N16  Dn4
 BYTE   W18
 BYTE   Bn3
 BYTE   W18
 BYTE   N07  Gs3
 BYTE   W12
 BYTE   N16  Fn4
 BYTE   W18
 BYTE   Bn3
 BYTE   W04
// 028   ----------------------------------------
 BYTE   W14
 BYTE   N07  Dn4
 BYTE   W12
 BYTE   N16  Cn4
 BYTE   W18
 BYTE   An3
 BYTE   W18
 BYTE   N07  Ds4
 BYTE   W12
 BYTE   N16  Cn4
 BYTE   W18
 BYTE   Fs4
 BYTE   W04
// 029   ----------------------------------------
 BYTE   W14
 BYTE   N07  Ds4
 BYTE   W80
 BYTE   W02
// 030   ----------------------------------------
 BYTE   W96
// 031   ----------------------------------------
 BYTE   W96
// 032   ----------------------------------------
 BYTE   W96
// 033   ----------------------------------------
 BYTE   W96
// 034   ----------------------------------------
 BYTE   W96
// 035   ----------------------------------------
 BYTE   W96
// 036   ----------------------------------------
 BYTE   W14
 BYTE   N16  En4
 BYTE   W18
 BYTE   Cn4
 BYTE   W18
 BYTE   N09  En4
 BYTE   W12
 BYTE   N16  Dn4
 BYTE   W18
 BYTE   En4
 BYTE   W16
// 037   ----------------------------------------
 BYTE   W02
 BYTE   N09  Cn4
 BYTE   W12
 BYTE   N16  Fn4
 BYTE   W18
 BYTE   En4
 BYTE   W18
 BYTE   N09  Dn4
 BYTE   W12
 BYTE   N16  Cn4
 BYTE   W18
 BYTE   An3
 BYTE   W16
// 038   ----------------------------------------
 BYTE   W02
 BYTE   N09  Cn4
 BYTE   W12
 BYTE   N16  Dn4
 BYTE   W18
 BYTE   Bn3
 BYTE   W18
 BYTE   N07  Gs3
 BYTE   W12
 BYTE   N16  Fn4
 BYTE   W18
 BYTE   Bn3
 BYTE   W16
// 039   ----------------------------------------
 BYTE   W02
 BYTE   N07  Dn4
 BYTE   W12
 BYTE   N16  Cn4
 BYTE   W18
 BYTE   An3
 BYTE   W18
 BYTE   N07  Ds4
 BYTE   W12
 BYTE   N16  Cn4
 BYTE   W18
 BYTE   Fs4
 BYTE   W16
// 040   ----------------------------------------
 BYTE   W02
 BYTE   N07  Ds4
 BYTE   W07
 BYTE   GoTo
  POIN2 Label_0_012C7B46
// 041   ----------------------------------------
 BYTE   W02
 BYTE   FINE

//**************** Track 2 (Midi-Chn.1) ****************//

ConfidenceInTheDomination_002:
// 000   ----------------------------------------
 BYTE   KEYSH   ConfidenceInTheDomination_key+0
Label_1_012C7F2E:
 BYTE   VOICE   56
 BYTE   VOL   47*ConfidenceInTheDomination_mvl/mxv
 BYTE   PAN   c_v+0
 BYTE   BEND   c_v+0
 BYTE   W96
// 001   ----------------------------------------
 BYTE   W96
// 002   ----------------------------------------
 BYTE   W96
// 003   ----------------------------------------
 BYTE   W96
// 004   ----------------------------------------
 BYTE   W96
// 005   ----------------------------------------
 BYTE   W96
// 006   ----------------------------------------
 BYTE   W96
// 007   ----------------------------------------
 BYTE   W96
// 008   ----------------------------------------
 BYTE   W96
// 009   ----------------------------------------
 BYTE   W96
// 010   ----------------------------------------
 BYTE   W96
// 011   ----------------------------------------
 BYTE   W96
// 012   ----------------------------------------
 BYTE   W96
// 013   ----------------------------------------
 BYTE   W96
// 014   ----------------------------------------
 BYTE   W96
// 015   ----------------------------------------
 BYTE   W96
// 016   ----------------------------------------
 BYTE   W96
// 017   ----------------------------------------
 BYTE   W96
// 018   ----------------------------------------
 BYTE   W96
// 019   ----------------------------------------
 BYTE   W96
// 020   ----------------------------------------
 BYTE   W96
// 021   ----------------------------------------
 BYTE   W96
// 022   ----------------------------------------
 BYTE   W96
// 023   ----------------------------------------
 BYTE   W96
// 024   ----------------------------------------
 BYTE   W96
// 025   ----------------------------------------
 BYTE   W96
// 026   ----------------------------------------
 BYTE   W96
// 027   ----------------------------------------
 BYTE   W24
 BYTE   W02
 BYTE   N16  An3  v127
 BYTE   W18
 BYTE   En3
 BYTE   W18
 BYTE   N09  An3
 BYTE   W12
 BYTE   N16  Bn3
 BYTE   W18
 BYTE   Cn4
 BYTE   W04
// 028   ----------------------------------------
 BYTE   W14
 BYTE   N09  En3
 BYTE   W12
 BYTE   N16  Dn4
 BYTE   W18
 BYTE   Cn4
 BYTE   W18
 BYTE   N09  Bn3
 BYTE   W12
 BYTE   N16  An3
 BYTE   W18
 BYTE   En3
 BYTE   W04
// 029   ----------------------------------------
 BYTE   W14
 BYTE   N09  An3
 BYTE   W12
 BYTE   N16  Fn3
 BYTE   W18
 BYTE   Dn3
 BYTE   W18
 BYTE   N07  Bn2
 BYTE   W12
 BYTE   N16  Gs3
 BYTE   W18
 BYTE   Dn3
 BYTE   W04
// 030   ----------------------------------------
 BYTE   W14
 BYTE   N07  Fn3
 BYTE   W12
 BYTE   N16  Ds3
 BYTE   W18
 BYTE   Cn3
 BYTE   W18
 BYTE   N07  Fs3
 BYTE   W12
 BYTE   N16  Ds3
 BYTE   W18
 BYTE   An3
 BYTE   W04
// 031   ----------------------------------------
 BYTE   W14
 BYTE   N07  Fs3
 BYTE   W80
 BYTE   W02
// 032   ----------------------------------------
 BYTE   W96
// 033   ----------------------------------------
 BYTE   W96
// 034   ----------------------------------------
 BYTE   W96
// 035   ----------------------------------------
 BYTE   W96
// 036   ----------------------------------------
 BYTE   W96
// 037   ----------------------------------------
 BYTE   W96
// 038   ----------------------------------------
 BYTE   W14
 BYTE   N16  An3
 BYTE   W18
 BYTE   En3
 BYTE   W18
 BYTE   N09  An3
 BYTE   W12
 BYTE   N16  Bn3
 BYTE   W18
 BYTE   Cn4
 BYTE   W16
// 039   ----------------------------------------
 BYTE   W02
 BYTE   N09  En3
 BYTE   W12
 BYTE   N16  Dn4
 BYTE   W18
 BYTE   Cn4
 BYTE   W18
 BYTE   N09  Bn3
 BYTE   W12
 BYTE   N16  An3
 BYTE   W18
 BYTE   En3
 BYTE   W16
// 040   ----------------------------------------
 BYTE   W02
 BYTE   N09  An3
 BYTE   W12
 BYTE   N16  Fn3
 BYTE   W18
 BYTE   Dn3
 BYTE   W18
 BYTE   N07  Bn2
 BYTE   W12
 BYTE   N16  Gs3
 BYTE   W18
 BYTE   Dn3
 BYTE   W16
// 041   ----------------------------------------
 BYTE   W02
 BYTE   N07  Fn3
 BYTE   W12
 BYTE   N16  Ds3
 BYTE   W18
 BYTE   Cn3
 BYTE   W18
 BYTE   N07  Fs3
 BYTE   W12
 BYTE   N16  Ds3
 BYTE   W18
 BYTE   An3
 BYTE   W16
// 042   ----------------------------------------
 BYTE   W02
 BYTE   N07  Fs3
 BYTE   W07
 BYTE   GoTo
  POIN2 Label_1_012C7F2E
// 043   ----------------------------------------
 BYTE   W02
 BYTE   FINE

//**************** Track 3 (Midi-Chn.2) ****************//

ConfidenceInTheDomination_003:
// 000   ----------------------------------------
 BYTE   KEYSH   ConfidenceInTheDomination_key+0
Label_2_012C7FEE:
 BYTE   VOICE   33
 BYTE   VOL   51*ConfidenceInTheDomination_mvl/mxv
 BYTE   PAN   c_v+0
 BYTE   BEND   c_v+0
 BYTE   W02
 BYTE   N11  En0  v127
 BYTE   W12
 BYTE   N11
 BYTE   W12
 BYTE   En1
 BYTE   W12
 BYTE   N04  Dn0
 BYTE   W06
 BYTE   N11  Dn1
 BYTE   W12
 BYTE   N04  Dn0
 BYTE   W06
 BYTE   Dn1
 BYTE   W06
 BYTE   N11  En0
 BYTE   W12
 BYTE   N11
 BYTE   W12
 BYTE   En1
 BYTE   W04
// 001   ----------------------------------------
 BYTE   W08
 BYTE   N04  An0
 BYTE   W06
 BYTE   N11  An1
 BYTE   W12
 BYTE   N04  An0
 BYTE   W06
 BYTE   An1
 BYTE   W06
 BYTE   N11  En0
 BYTE   W12
 BYTE   N11
 BYTE   W12
 BYTE   En1
 BYTE   W12
 BYTE   N04  Dn0
 BYTE   W06
 BYTE   N11  Dn1
 BYTE   W12
 BYTE   N04  Dn0
 BYTE   W04
// 002   ----------------------------------------
 BYTE   W02
 BYTE   Dn1
 BYTE   W06
 BYTE   N07
 BYTE   W12
 BYTE   N07
 BYTE   W12
 BYTE   N04
 BYTE   W06
 BYTE   Dn0
 BYTE   W06
 BYTE   N04
 BYTE   W06
 BYTE   Dn1
 BYTE   W06
 BYTE   Dn0
 BYTE   W06
 BYTE   Cn1
 BYTE   W06
 BYTE   Dn0
 BYTE   W06
 BYTE   Dn1
 BYTE   W06
 BYTE   Dn0
 BYTE   W06
 BYTE   Dn1
 BYTE   W06
 BYTE   Dn0
 BYTE   W04
// 003   ----------------------------------------
 BYTE   W02
 BYTE   An0
 BYTE   W06
 BYTE   Dn1
 BYTE   W06
 BYTE   Dn0
 BYTE   W06
 BYTE   Dn1
 BYTE   W06
 BYTE   Dn0
 BYTE   W06
 BYTE   An0
 BYTE   W06
 BYTE   En0
 BYTE   W06
 BYTE   N04
 BYTE   W06
 BYTE   En1
 BYTE   W06
 BYTE   En0
 BYTE   W06
 BYTE   Dn1
 BYTE   W06
 BYTE   En0
 BYTE   W06
 BYTE   En1
 BYTE   W06
 BYTE   En0
 BYTE   W06
 BYTE   Bn0
 BYTE   W06
 BYTE   En1
 BYTE   W04
// 004   ----------------------------------------
 BYTE   W02
 BYTE   En0
 BYTE   W06
 BYTE   En1
 BYTE   W06
 BYTE   En0
 BYTE   W06
 BYTE   Bn0
 BYTE   W06
 BYTE   En1
 BYTE   W06
 BYTE   En0
 BYTE   W06
 BYTE   N11
 BYTE   W12
 BYTE   N11
 BYTE   W12
 BYTE   En1
 BYTE   W12
 BYTE   N04  Dn0
 BYTE   W06
 BYTE   N11  Dn1
 BYTE   W12
 BYTE   N04  Dn0
 BYTE   W04
// 005   ----------------------------------------
 BYTE   W02
 BYTE   Dn1
 BYTE   W06
 BYTE   N11  En0
 BYTE   W12
 BYTE   N11
 BYTE   W12
 BYTE   En1
 BYTE   W12
 BYTE   N04  An0
 BYTE   W06
 BYTE   N11  An1
 BYTE   W12
 BYTE   N04  An0
 BYTE   W06
 BYTE   An1
 BYTE   W06
 BYTE   N11  En0
 BYTE   W12
 BYTE   N11
 BYTE   W10
// 006   ----------------------------------------
 BYTE   W02
 BYTE   En1
 BYTE   W12
 BYTE   N04  Dn0
 BYTE   W06
 BYTE   N11  Dn1
 BYTE   W12
 BYTE   N04  Dn0
 BYTE   W06
 BYTE   Dn1
 BYTE   W06
 BYTE   N07
 BYTE   W12
 BYTE   N07
 BYTE   W12
 BYTE   N04
 BYTE   W06
 BYTE   Dn0
 BYTE   W06
 BYTE   N04
 BYTE   W06
 BYTE   Dn1
 BYTE   W06
 BYTE   Dn0
 BYTE   W04
// 007   ----------------------------------------
 BYTE   W02
 BYTE   Cn1
 BYTE   W06
 BYTE   Dn0
 BYTE   W06
 BYTE   Dn1
 BYTE   W06
 BYTE   Dn0
 BYTE   W06
 BYTE   Dn1
 BYTE   W06
 BYTE   Dn0
 BYTE   W06
 BYTE   An0
 BYTE   W06
 BYTE   Dn1
 BYTE   W06
 BYTE   Dn0
 BYTE   W06
 BYTE   Dn1
 BYTE   W06
 BYTE   Dn0
 BYTE   W06
 BYTE   An0
 BYTE   W06
 BYTE   En0
 BYTE   W06
 BYTE   N04
 BYTE   W06
 BYTE   En1
 BYTE   W06
 BYTE   En0
 BYTE   W04
// 008   ----------------------------------------
 BYTE   W02
 BYTE   Bn0
 BYTE   W06
 BYTE   En1
 BYTE   W06
 BYTE   En0
 BYTE   W06
 BYTE   En1
 BYTE   W06
 BYTE   An0
 BYTE   W06
 BYTE   N04
 BYTE   W06
 BYTE   An1
 BYTE   W06
 BYTE   An0
 BYTE   W06
 BYTE   Gn1
 BYTE   W06
 BYTE   An0
 BYTE   W06
 BYTE   An1
 BYTE   W06
 BYTE   An0
 BYTE   W06
 BYTE   Dn0
 BYTE   W06
 BYTE   N04
 BYTE   W06
 BYTE   Dn1
 BYTE   W06
 BYTE   Dn0
 BYTE   W04
// 009   ----------------------------------------
Label_2_012C80FF:
 BYTE   W02
 BYTE   N04  An0  v127
 BYTE   W06
 BYTE   Dn0
 BYTE   W06
 BYTE   Dn1
 BYTE   W06
 BYTE   An0
 BYTE   W06
 BYTE   En0
 BYTE   W06
 BYTE   N04
 BYTE   W06
 BYTE   En1
 BYTE   W06
 BYTE   En0
 BYTE   W06
 BYTE   Bn0
 BYTE   W06
 BYTE   En1
 BYTE   W06
 BYTE   En0
 BYTE   W06
 BYTE   En1
 BYTE   W06
 BYTE   An0
 BYTE   W06
 BYTE   N04
 BYTE   W06
 BYTE   An1
 BYTE   W06
 BYTE   An0
 BYTE   W04
 BYTE   PEND 
// 010   ----------------------------------------
Label_2_012C8123:
 BYTE   W02
 BYTE   N04  En1  v127
 BYTE   W06
 BYTE   An0
 BYTE   W06
 BYTE   An1
 BYTE   W06
 BYTE   An0
 BYTE   W06
 BYTE   Cn2
 BYTE   W06
 BYTE   Bn1
 BYTE   W06
 BYTE   An1
 BYTE   W06
 BYTE   En1
 BYTE   W06
 BYTE   Cn1
 BYTE   W06
 BYTE   Bn0
 BYTE   W06
 BYTE   An0
 BYTE   W06
 BYTE   En0
 BYTE   W06
 BYTE   Dn0
 BYTE   W06
 BYTE   N04
 BYTE   W06
 BYTE   Dn1
 BYTE   W06
 BYTE   Dn0
 BYTE   W04
 BYTE   PEND 
 BYTE   PATT
  POIN2 Label_2_012C80FF
 BYTE   PATT
  POIN2 Label_2_012C8123
 BYTE   PATT
  POIN2 Label_2_012C80FF
// 011   ----------------------------------------
 BYTE   W02
 BYTE   N04  Gn1  v127
 BYTE   W06
 BYTE   An0
 BYTE   W06
 BYTE   An1
 BYTE   W06
 BYTE   An0
 BYTE   W06
 BYTE   En0
 BYTE   W06
 BYTE   N04
 BYTE   W06
 BYTE   En1
 BYTE   W06
 BYTE   En0
 BYTE   W06
 BYTE   Dn1
 BYTE   W06
 BYTE   En0
 BYTE   W06
 BYTE   En1
 BYTE   W06
 BYTE   En0
 BYTE   W06
 BYTE   Dn0
 BYTE   W06
 BYTE   N04
 BYTE   W06
 BYTE   Dn1
 BYTE   W06
 BYTE   Dn0
 BYTE   W04
 BYTE   PATT
  POIN2 Label_2_012C80FF
 BYTE   PATT
  POIN2 Label_2_012C8123
 BYTE   PATT
  POIN2 Label_2_012C80FF
// 012   ----------------------------------------
 BYTE   W02
 BYTE   N04  Gn1  v127
 BYTE   W06
 BYTE   An0
 BYTE   W06
 BYTE   An1
 BYTE   W06
 BYTE   An0
 BYTE   W06
 BYTE   N04
 BYTE   W06
 BYTE   An1
 BYTE   W06
 BYTE   An0
 BYTE   W06
 BYTE   En1
 BYTE   W06
 BYTE   An1
 BYTE   W06
 BYTE   An0
 BYTE   W06
 BYTE   An1
 BYTE   W06
 BYTE   An0
 BYTE   W06
 BYTE   N11  En0
 BYTE   W12
 BYTE   N11
 BYTE   W10
// 013   ----------------------------------------
 BYTE   W02
 BYTE   En1
 BYTE   W12
 BYTE   N04  Dn0
 BYTE   W06
 BYTE   N11  Dn1
 BYTE   W12
 BYTE   N04  Dn0
 BYTE   W06
 BYTE   Dn1
 BYTE   W06
 BYTE   N11  En0
 BYTE   W12
 BYTE   N11
 BYTE   W12
 BYTE   En1
 BYTE   W12
 BYTE   N04  An0
 BYTE   W06
 BYTE   N11  An1
 BYTE   W10
// 014   ----------------------------------------
 BYTE   W02
 BYTE   N04  An0
 BYTE   W06
 BYTE   An1
 BYTE   W06
 BYTE   N11  En0
 BYTE   W12
 BYTE   N11
 BYTE   W12
 BYTE   En1
 BYTE   W12
 BYTE   N04  Dn0
 BYTE   W06
 BYTE   N11  Dn1
 BYTE   W12
 BYTE   N04  Dn0
 BYTE   W06
 BYTE   Dn1
 BYTE   W06
 BYTE   N07
 BYTE   W12
 BYTE   N07
 BYTE   W04
// 015   ----------------------------------------
 BYTE   W08
 BYTE   N04
 BYTE   W06
 BYTE   Dn0
 BYTE   W06
 BYTE   N04
 BYTE   W06
 BYTE   Dn1
 BYTE   W06
 BYTE   Dn0
 BYTE   W06
 BYTE   Cn1
 BYTE   W06
 BYTE   Dn0
 BYTE   W06
 BYTE   Dn1
 BYTE   W06
 BYTE   Dn0
 BYTE   W06
 BYTE   Dn1
 BYTE   W06
 BYTE   Dn0
 BYTE   W06
 BYTE   An0
 BYTE   W06
 BYTE   Dn1
 BYTE   W06
 BYTE   Dn0
 BYTE   W06
 BYTE   Dn1
 BYTE   W04
// 016   ----------------------------------------
 BYTE   W02
 BYTE   Dn0
 BYTE   W06
 BYTE   An0
 BYTE   W06
 BYTE   En0
 BYTE   W06
 BYTE   N04
 BYTE   W06
 BYTE   En1
 BYTE   W06
 BYTE   En0
 BYTE   W06
 BYTE   Dn1
 BYTE   W06
 BYTE   En0
 BYTE   W06
 BYTE   En1
 BYTE   W06
 BYTE   En0
 BYTE   W06
 BYTE   Bn0
 BYTE   W06
 BYTE   En1
 BYTE   W06
 BYTE   En0
 BYTE   W06
 BYTE   En1
 BYTE   W06
 BYTE   En0
 BYTE   W06
 BYTE   Bn0
 BYTE   W04
// 017   ----------------------------------------
 BYTE   W02
 BYTE   En1
 BYTE   W06
 BYTE   En0
 BYTE   W06
 BYTE   N11
 BYTE   W12
 BYTE   N11
 BYTE   W12
 BYTE   En1
 BYTE   W12
 BYTE   N04  Dn0
 BYTE   W06
 BYTE   N11  Dn1
 BYTE   W12
 BYTE   N04  Dn0
 BYTE   W06
 BYTE   Dn1
 BYTE   W06
 BYTE   N11  En0
 BYTE   W12
 BYTE   N11
 BYTE   W04
// 018   ----------------------------------------
 BYTE   W08
 BYTE   En1
 BYTE   W12
 BYTE   N04  An0
 BYTE   W06
 BYTE   N11  An1
 BYTE   W12
 BYTE   N04  An0
 BYTE   W06
 BYTE   An1
 BYTE   W06
 BYTE   N11  Fs0
 BYTE   W12
 BYTE   N11
 BYTE   W12
 BYTE   Fs1
 BYTE   W12
 BYTE   N04  En0
 BYTE   W06
 BYTE   N11  En1
 BYTE   W04
// 019   ----------------------------------------
 BYTE   W08
 BYTE   N04  En0
 BYTE   W06
 BYTE   En1
 BYTE   W06
 BYTE   N11  Fs0
 BYTE   W12
 BYTE   N11
 BYTE   W12
 BYTE   Fs1
 BYTE   W12
 BYTE   N04  Bn0
 BYTE   W06
 BYTE   N11  Bn1
 BYTE   W12
 BYTE   N04  Bn0
 BYTE   W06
 BYTE   Bn1
 BYTE   W06
 BYTE   N11  Gs0
 BYTE   W10
// 020   ----------------------------------------
 BYTE   W02
 BYTE   N11
 BYTE   W12
 BYTE   Gs1
 BYTE   W12
 BYTE   N04  Fs0
 BYTE   W06
 BYTE   N11  Fs1
 BYTE   W12
 BYTE   N04  Fs0
 BYTE   W06
 BYTE   Fs1
 BYTE   W06
 BYTE   N11  Gs0
 BYTE   W12
 BYTE   N11
 BYTE   W12
 BYTE   Gs1
 BYTE   W12
 BYTE   N04  Cs0
 BYTE   W04
// 021   ----------------------------------------
 BYTE   W02
 BYTE   N11  Cs1
 BYTE   W12
 BYTE   N04  Cs0
 BYTE   W06
 BYTE   Cs1
 BYTE   W06
 BYTE   An0
 BYTE   W06
 BYTE   N04
 BYTE   W06
 BYTE   An1
 BYTE   W06
 BYTE   An0
 BYTE   W06
 BYTE   Gn1
 BYTE   W06
 BYTE   An0
 BYTE   W06
 BYTE   An1
 BYTE   W06
 BYTE   An0
 BYTE   W06
 BYTE   An1
 BYTE   W06
 BYTE   En1
 BYTE   W06
 BYTE   An0
 BYTE   W06
 BYTE   Cn2
 BYTE   W04
// 022   ----------------------------------------
 BYTE   W02
 BYTE   Bn1
 BYTE   W06
 BYTE   An1
 BYTE   W06
 BYTE   En1
 BYTE   W06
 BYTE   An0
 BYTE   W06
 BYTE   Dn0
 BYTE   W06
 BYTE   N04
 BYTE   W06
 BYTE   Dn1
 BYTE   W06
 BYTE   Dn0
 BYTE   W06
 BYTE   An0
 BYTE   W06
 BYTE   Dn1
 BYTE   W06
 BYTE   Dn0
 BYTE   W06
 BYTE   Dn1
 BYTE   W06
 BYTE   Cn1
 BYTE   W06
 BYTE   Dn1
 BYTE   W06
 BYTE   Dn0
 BYTE   W06
 BYTE   Dn1
 BYTE   W04
// 023   ----------------------------------------
 BYTE   W02
 BYTE   Dn0
 BYTE   W06
 BYTE   Cn1
 BYTE   W06
 BYTE   Dn1
 BYTE   W06
 BYTE   Dn0
 BYTE   W06
 BYTE   Dn1
 BYTE   W06
 BYTE   Gs1
 BYTE   W06
 BYTE   Fn1
 BYTE   W06
 BYTE   Dn1
 BYTE   W06
 BYTE   Bn0
 BYTE   W06
 BYTE   Gs0
 BYTE   W06
 BYTE   Bn0
 BYTE   W06
 BYTE   Dn1
 BYTE   W06
 BYTE   Bn1
 BYTE   W06
 BYTE   Gs1
 BYTE   W06
 BYTE   Fn1
 BYTE   W06
 BYTE   Dn1
 BYTE   W04
// 024   ----------------------------------------
 BYTE   W02
 BYTE   Bn0
 BYTE   W06
 BYTE   Gs0
 BYTE   W06
 BYTE   Fn0
 BYTE   W06
 BYTE   Dn0
 BYTE   W06
 BYTE   Cn1
 BYTE   W06
 BYTE   An1
 BYTE   W06
 BYTE   Fs1
 BYTE   W06
 BYTE   Ds1
 BYTE   W06
 BYTE   Cn1
 BYTE   W06
 BYTE   Fs1
 BYTE   W06
 BYTE   Ds1
 BYTE   W06
 BYTE   Cn1
 BYTE   W06
 BYTE   Fs1
 BYTE   W06
 BYTE   Cn1
 BYTE   W06
 BYTE   Ds1
 BYTE   W06
 BYTE   An0
 BYTE   W04
// 025   ----------------------------------------
 BYTE   W02
 BYTE   Cn1
 BYTE   W06
 BYTE   Fs0
 BYTE   W06
 BYTE   An0
 BYTE   W06
 BYTE   Ds0
 BYTE   W06
 BYTE   N11  Gn0
 BYTE   W12
 BYTE   N11
 BYTE   W12
 BYTE   N11
 BYTE   W12
 BYTE   N11
 BYTE   W12
 BYTE   N11
 BYTE   W12
 BYTE   N11
 BYTE   W10
// 026   ----------------------------------------
 BYTE   W02
 BYTE   N11
 BYTE   W12
 BYTE   N11
 BYTE   W12
 BYTE   N11
 BYTE   W12
 BYTE   N11
 BYTE   W12
 BYTE   N11
 BYTE   W12
 BYTE   N11
 BYTE   W12
 BYTE   N11
 BYTE   W12
 BYTE   N11
 BYTE   W10
// 027   ----------------------------------------
 BYTE   W02
 BYTE   N11
 BYTE   W12
 BYTE   N11
 BYTE   W12
 BYTE   N11
 BYTE   W12
 BYTE   N11
 BYTE   W12
 BYTE   N11
 BYTE   W12
 BYTE   Gn1
 BYTE   W12
 BYTE   An0
 BYTE   W12
 BYTE   N11
 BYTE   W10
// 028   ----------------------------------------
 BYTE   W02
 BYTE   N11
 BYTE   W12
 BYTE   An1
 BYTE   W12
 BYTE   An0
 BYTE   W12
 BYTE   Gn0
 BYTE   W12
 BYTE   N04  Fn0
 BYTE   W06
 BYTE   N01
 BYTE   W06
 BYTE   N04  Gn0
 BYTE   W06
 BYTE   Gn1
 BYTE   W06
 BYTE   N01
 BYTE   W06
 BYTE   N11
 BYTE   W12
 BYTE   N04  Gn0
 BYTE   W04
// 029   ----------------------------------------
 BYTE   W02
 BYTE   N11
 BYTE   W12
 BYTE   N04  Fn0
 BYTE   W06
 BYTE   N01
 BYTE   W06
 BYTE   N04  Gn0
 BYTE   W06
 BYTE   Gn1
 BYTE   W06
 BYTE   N01
 BYTE   W06
 BYTE   N11
 BYTE   W12
 BYTE   N04  Gn0
 BYTE   W06
 BYTE   N11
 BYTE   W12
 BYTE   N04  Fn0
 BYTE   W06
 BYTE   N01
 BYTE   W06
 BYTE   N04  Gn0
 BYTE   W06
 BYTE   Gn1
 BYTE   W04
// 030   ----------------------------------------
 BYTE   W02
 BYTE   N01
 BYTE   W06
 BYTE   N11
 BYTE   W12
 BYTE   N04  Gn0
 BYTE   W06
 BYTE   N11
 BYTE   W12
 BYTE   N04  Fn0
 BYTE   W06
 BYTE   N01
 BYTE   W06
 BYTE   N04  Gn0
 BYTE   W06
 BYTE   Gn1
 BYTE   W06
 BYTE   N01
 BYTE   W06
 BYTE   N11
 BYTE   W12
 BYTE   N04  Gn0
 BYTE   W06
 BYTE   N11  An0
 BYTE   W10
// 031   ----------------------------------------
 BYTE   W02
 BYTE   N04  Gn0
 BYTE   W06
 BYTE   N01
 BYTE   W06
 BYTE   N04  An0
 BYTE   W06
 BYTE   An1
 BYTE   W06
 BYTE   N01
 BYTE   W06
 BYTE   N11
 BYTE   W12
 BYTE   N04  An0
 BYTE   W06
 BYTE   N11
 BYTE   W12
 BYTE   N04  Gn0
 BYTE   W06
 BYTE   N01
 BYTE   W06
 BYTE   N04  An0
 BYTE   W06
 BYTE   An1
 BYTE   W06
 BYTE   N01
 BYTE   W06
 BYTE   N11
 BYTE   W04
// 032   ----------------------------------------
 BYTE   W08
 BYTE   N04  An0
 BYTE   W06
 BYTE   N04
 BYTE   W06
 BYTE   N04
 BYTE   W06
 BYTE   An1
 BYTE   W06
 BYTE   An0
 BYTE   W06
 BYTE   Gn1
 BYTE   W06
 BYTE   An0
 BYTE   W06
 BYTE   An1
 BYTE   W06
 BYTE   An0
 BYTE   W06
 BYTE   An1
 BYTE   W06
 BYTE   En1
 BYTE   W06
 BYTE   An0
 BYTE   W06
 BYTE   Cn2
 BYTE   W06
 BYTE   Bn1
 BYTE   W06
 BYTE   An1
 BYTE   W04
// 033   ----------------------------------------
 BYTE   W02
 BYTE   En1
 BYTE   W06
 BYTE   An0
 BYTE   W06
 BYTE   Dn0
 BYTE   W06
 BYTE   N04
 BYTE   W06
 BYTE   Dn1
 BYTE   W06
 BYTE   Dn0
 BYTE   W06
 BYTE   An0
 BYTE   W06
 BYTE   Dn1
 BYTE   W06
 BYTE   Dn0
 BYTE   W06
 BYTE   Dn1
 BYTE   W06
 BYTE   Cn1
 BYTE   W06
 BYTE   Dn1
 BYTE   W06
 BYTE   Dn0
 BYTE   W06
 BYTE   Dn1
 BYTE   W06
 BYTE   Dn0
 BYTE   W06
 BYTE   Cn1
 BYTE   W04
// 034   ----------------------------------------
 BYTE   W02
 BYTE   Dn1
 BYTE   W06
 BYTE   Dn0
 BYTE   W06
 BYTE   Dn1
 BYTE   W06
 BYTE   Gs1
 BYTE   W06
 BYTE   Fn1
 BYTE   W06
 BYTE   Dn1
 BYTE   W06
 BYTE   Bn0
 BYTE   W06
 BYTE   Gs0
 BYTE   W06
 BYTE   Bn0
 BYTE   W06
 BYTE   Dn1
 BYTE   W06
 BYTE   Bn1
 BYTE   W06
 BYTE   Gs1
 BYTE   W06
 BYTE   Fn1
 BYTE   W06
 BYTE   Dn1
 BYTE   W06
 BYTE   Bn0
 BYTE   W06
 BYTE   Gs0
 BYTE   W04
// 035   ----------------------------------------
 BYTE   W02
 BYTE   Fn0
 BYTE   W06
 BYTE   Dn0
 BYTE   W06
 BYTE   Cn1
 BYTE   W06
 BYTE   An1
 BYTE   W06
 BYTE   Fs1
 BYTE   W06
 BYTE   Ds1
 BYTE   W06
 BYTE   Cn1
 BYTE   W06
 BYTE   Fs1
 BYTE   W06
 BYTE   Ds1
 BYTE   W06
 BYTE   Cn1
 BYTE   W06
 BYTE   Fs1
 BYTE   W06
 BYTE   Cn1
 BYTE   W06
 BYTE   Ds1
 BYTE   W06
 BYTE   An0
 BYTE   W06
 BYTE   Cn1
 BYTE   W06
 BYTE   Fs0
 BYTE   W04
// 036   ----------------------------------------
 BYTE   W02
 BYTE   An0
 BYTE   W06
 BYTE   N03  Ds0
 BYTE   W01
 BYTE   GoTo
  POIN2 Label_2_012C7FEE
// 037   ----------------------------------------
 BYTE   W02
 BYTE   FINE

//**************** Track 4 (Midi-Chn.3) ****************//

ConfidenceInTheDomination_004:
// 000   ----------------------------------------
 BYTE   KEYSH   ConfidenceInTheDomination_key+0
Label_3_012C8452:
 BYTE   VOICE   30
 BYTE   VOL   36*ConfidenceInTheDomination_mvl/mxv
 BYTE   PAN   c_v+32
 BYTE   BEND   c_v+0
 BYTE   W96
// 001   ----------------------------------------
 BYTE   W96
// 002   ----------------------------------------
 BYTE   W96
// 003   ----------------------------------------
 BYTE   W96
// 004   ----------------------------------------
 BYTE   W96
// 005   ----------------------------------------
 BYTE   W96
// 006   ----------------------------------------
 BYTE   W96
// 007   ----------------------------------------
 BYTE   W96
// 008   ----------------------------------------
 BYTE   W96
// 009   ----------------------------------------
 BYTE   W96
// 010   ----------------------------------------
 BYTE   W96
// 011   ----------------------------------------
 BYTE   W96
// 012   ----------------------------------------
 BYTE   W96
// 013   ----------------------------------------
 BYTE   W96
// 014   ----------------------------------------
 BYTE   W96
// 015   ----------------------------------------
 BYTE   W96
// 016   ----------------------------------------
 BYTE   W96
// 017   ----------------------------------------
 BYTE   W96
// 018   ----------------------------------------
 BYTE   W96
// 019   ----------------------------------------
 BYTE   W96
// 020   ----------------------------------------
 BYTE   W96
// 021   ----------------------------------------
 BYTE   W96
// 022   ----------------------------------------
 BYTE   W96
// 023   ----------------------------------------
 BYTE   W96
// 024   ----------------------------------------
 BYTE   W96
// 025   ----------------------------------------
 BYTE   W96
// 026   ----------------------------------------
 BYTE   W96
// 027   ----------------------------------------
 BYTE   W96
// 028   ----------------------------------------
 BYTE   W96
// 029   ----------------------------------------
 BYTE   W96
// 030   ----------------------------------------
 BYTE   W96
// 031   ----------------------------------------
 BYTE   W24
 BYTE   W02
 BYTE   N04  As2  v088
 BYTE   N04  Dn3
 BYTE   N04  Gn3
 BYTE   W12
 BYTE   As2
 BYTE   N04  Dn3
 BYTE   N04  Gn3
 BYTE   W12
 BYTE   As2
 BYTE   N04  Dn3
 BYTE   N04  Gn3
 BYTE   W12
 BYTE   An2
 BYTE   N04  Dn3
 BYTE   N04  Fs3
 BYTE   W06
 BYTE   An2
 BYTE   N04  Dn3
 BYTE   N04  Fs3
 BYTE   W12
 BYTE   An2
 BYTE   N04  Dn3
 BYTE   N04  Fs3
 BYTE   W06
 BYTE   As2
 BYTE   N04  Dn3
 BYTE   N04  Gn3
 BYTE   W10
// 032   ----------------------------------------
 BYTE   W02
 BYTE   As2
 BYTE   N04  Dn3
 BYTE   N04  Gn3
 BYTE   W12
 BYTE   As2
 BYTE   N04  Dn3
 BYTE   N04  Gn3
 BYTE   W12
 BYTE   Cn3
 BYTE   N04  Ds3
 BYTE   N04  Fs3
 BYTE   W06
 BYTE   Cn3
 BYTE   N04  Ds3
 BYTE   N04  Fs3
 BYTE   W12
 BYTE   Cn3
 BYTE   N04  Ds3
 BYTE   N04  Fs3
 BYTE   W06
 BYTE   As2
 BYTE   N04  Dn3
 BYTE   N04  Gn3
 BYTE   W12
 BYTE   As2
 BYTE   N04  Dn3
 BYTE   N04  Gn3
 BYTE   W12
 BYTE   As2
 BYTE   N04  Dn3
 BYTE   N04  Gn3
 BYTE   W12
 BYTE   An2
 BYTE   N04  Dn3
 BYTE   N04  Fs3
 BYTE   W06
 BYTE   An2
 BYTE   N04  Dn3
 BYTE   N04  Fs3
 BYTE   W04
// 033   ----------------------------------------
 BYTE   W08
 BYTE   An2
 BYTE   N04  Dn3
 BYTE   N04  Fs3
 BYTE   W06
 BYTE   As2
 BYTE   N04  Dn3
 BYTE   N04  Gn3
 BYTE   W12
 BYTE   As2
 BYTE   N04  Dn3
 BYTE   N04  Gn3
 BYTE   W12
 BYTE   As2
 BYTE   N04  Dn3
 BYTE   N04  Gn3
 BYTE   W12
 BYTE   Cn3
 BYTE   N04  Ds3
 BYTE   N04  Gn3
 BYTE   W06
 BYTE   Cn3
 BYTE   N04  Ds3
 BYTE   N04  Gn3
 BYTE   W12
 BYTE   Cn3
 BYTE   N04  Ds3
 BYTE   N04  Gn3
 BYTE   W06
 BYTE   Dn3
 BYTE   N04  En3
 BYTE   N04  An3
 BYTE   W12
 BYTE   Dn3
 BYTE   N04  En3
 BYTE   N04  An3
 BYTE   W10
// 034   ----------------------------------------
 BYTE   W02
 BYTE   Dn3
 BYTE   N04  En3
 BYTE   N04  An3
 BYTE   W12
 BYTE   Cs3
 BYTE   N04  En3
 BYTE   N04  An3
 BYTE   W06
 BYTE   Cs3
 BYTE   N04  En3
 BYTE   N04  An3
 BYTE   W12
 BYTE   Cs3
 BYTE   N04  En3
 BYTE   N04  An3
 BYTE   W06
 BYTE   As2
 BYTE   N04  Dn3
 BYTE   N04  Gn3
 BYTE   W12
 BYTE   As2
 BYTE   N04  Dn3
 BYTE   N04  Gn3
 BYTE   W12
 BYTE   As2
 BYTE   N04  Dn3
 BYTE   N04  Gn3
 BYTE   W12
 BYTE   An2
 BYTE   N04  Dn3
 BYTE   N04  Fs3
 BYTE   W06
 BYTE   An2
 BYTE   N04  Dn3
 BYTE   N04  Fs3
 BYTE   W12
 BYTE   An2
 BYTE   N04  Dn3
 BYTE   N04  Fs3
 BYTE   W04
// 035   ----------------------------------------
 BYTE   W02
 BYTE   As2
 BYTE   N04  Dn3
 BYTE   N04  Gn3
 BYTE   W12
 BYTE   As2
 BYTE   N04  Dn3
 BYTE   N04  Gn3
 BYTE   W12
 BYTE   As2
 BYTE   N04  Dn3
 BYTE   N04  Gn3
 BYTE   W12
 BYTE   Cn3
 BYTE   N04  Ds3
 BYTE   N04  Fs3
 BYTE   W06
 BYTE   Cn3
 BYTE   N04  Ds3
 BYTE   N04  Fs3
 BYTE   W12
 BYTE   Cn3
 BYTE   N04  Ds3
 BYTE   N04  Fs3
 BYTE   W06
 BYTE   As2
 BYTE   N04  Dn3
 BYTE   N04  Gn3
 BYTE   W12
 BYTE   As2
 BYTE   N04  Dn3
 BYTE   N04  Gn3
 BYTE   W12
 BYTE   As2
 BYTE   N04  Dn3
 BYTE   N04  Gn3
 BYTE   W10
// 036   ----------------------------------------
 BYTE   W02
 BYTE   An2
 BYTE   N04  Dn3
 BYTE   N04  Fs3
 BYTE   W06
 BYTE   An2
 BYTE   N04  Dn3
 BYTE   N04  Fs3
 BYTE   W12
 BYTE   An2
 BYTE   N04  Dn3
 BYTE   N04  Fs3
 BYTE   W06
 BYTE   As2
 BYTE   N04  Dn3
 BYTE   N04  Gn3
 BYTE   W12
 BYTE   As2
 BYTE   N04  Dn3
 BYTE   N04  Gn3
 BYTE   W12
 BYTE   As2
 BYTE   N04  Dn3
 BYTE   N04  Gn3
 BYTE   W12
 BYTE   Cn3
 BYTE   N04  Ds3
 BYTE   N04  Gn3
 BYTE   W06
 BYTE   Cn3
 BYTE   N04  Ds3
 BYTE   N04  Gn3
 BYTE   W12
 BYTE   Cn3
 BYTE   N04  Ds3
 BYTE   N04  Gn3
 BYTE   W06
 BYTE   Dn3
 BYTE   N04  En3
 BYTE   N04  An3
 BYTE   W10
// 037   ----------------------------------------
 BYTE   W02
 BYTE   Dn3
 BYTE   N04  En3
 BYTE   N04  An3
 BYTE   W12
 BYTE   Dn3
 BYTE   N04  En3
 BYTE   N04  An3
 BYTE   W12
 BYTE   Dn3
 BYTE   N04  En3
 BYTE   N04  An3
 BYTE   W06
 BYTE   Dn3
 BYTE   N04  En3
 BYTE   N04  An3
 BYTE   W12
 BYTE   Dn3
 BYTE   N04  En3
 BYTE   N04  An3
 BYTE   W06
 BYTE   Cs3
 BYTE   N04  En3
 BYTE   N04  An3
 BYTE   W12
 BYTE   Cs3
 BYTE   N04  En3
 BYTE   N04  An3
 BYTE   W12
 BYTE   Cs3
 BYTE   N04  En3
 BYTE   N04  An3
 BYTE   W12
 BYTE   Cs3
 BYTE   N04  En3
 BYTE   N04  An3
 BYTE   W06
 BYTE   Cs3
 BYTE   N04  En3
 BYTE   N04  An3
 BYTE   W04
// 038   ----------------------------------------
 BYTE   W08
 BYTE   Cs3
 BYTE   N04  En3
 BYTE   N04  An3
 BYTE   W88
// 039   ----------------------------------------
 BYTE   W96
// 040   ----------------------------------------
 BYTE   W96
// 041   ----------------------------------------
 BYTE   W96
// 042   ----------------------------------------
 BYTE   W09
 BYTE   GoTo
  POIN2 Label_3_012C8452
// 043   ----------------------------------------
 BYTE   W02
 BYTE   FINE

//**************** Track 5 (Midi-Chn.4) ****************//

ConfidenceInTheDomination_005:
// 000   ----------------------------------------
 BYTE   KEYSH   ConfidenceInTheDomination_key+0
Label_4_012C861E:
 BYTE   VOICE   48
 BYTE   VOL   41*ConfidenceInTheDomination_mvl/mxv
 BYTE   PAN   c_v-50
 BYTE   BEND   c_v+0
 BYTE   W96
// 001   ----------------------------------------
 BYTE   W96
// 002   ----------------------------------------
 BYTE   W96
// 003   ----------------------------------------
 BYTE   W96
// 004   ----------------------------------------
 BYTE   W96
// 005   ----------------------------------------
 BYTE   W96
// 006   ----------------------------------------
 BYTE   W96
// 007   ----------------------------------------
 BYTE   W96
// 008   ----------------------------------------
 BYTE   W96
// 009   ----------------------------------------
 BYTE   W96
// 010   ----------------------------------------
 BYTE   W96
// 011   ----------------------------------------
 BYTE   W96
// 012   ----------------------------------------
 BYTE   W96
// 013   ----------------------------------------
 BYTE   W96
// 014   ----------------------------------------
 BYTE   W96
// 015   ----------------------------------------
 BYTE   W96
// 016   ----------------------------------------
 BYTE   W96
// 017   ----------------------------------------
 BYTE   W96
// 018   ----------------------------------------
 BYTE   W96
// 019   ----------------------------------------
 BYTE   W96
// 020   ----------------------------------------
 BYTE   W96
// 021   ----------------------------------------
 BYTE   W96
// 022   ----------------------------------------
 BYTE   W96
// 023   ----------------------------------------
 BYTE   W96
// 024   ----------------------------------------
 BYTE   W96
// 025   ----------------------------------------
 BYTE   W96
// 026   ----------------------------------------
 BYTE   W96
// 027   ----------------------------------------
 BYTE   W96
// 028   ----------------------------------------
 BYTE   W96
// 029   ----------------------------------------
 BYTE   W96
// 030   ----------------------------------------
 BYTE   W96
// 031   ----------------------------------------
 BYTE   W24
 BYTE   W02
 BYTE   N32  As2  v127
 BYTE   N32  Dn3
 BYTE   W36
 BYTE   N22  An2
 BYTE   N22  Dn3
 BYTE   W24
 BYTE   N32  As2
 BYTE   N32  Dn3
 BYTE   W10
// 032   ----------------------------------------
 BYTE   W24
 BYTE   W02
 BYTE   N22  Cn3
 BYTE   N22  Ds3
 BYTE   W24
 BYTE   N32  Dn3
 BYTE   N32  Gn3
 BYTE   W36
 BYTE   N22  Ds3
 BYTE   N22  Fs3
 BYTE   W10
// 033   ----------------------------------------
 BYTE   W14
 BYTE   N32  Dn3
 BYTE   N56  Gn3
 BYTE   W36
 BYTE   N22  Ds3
 BYTE   W24
 BYTE   N32  Dn3
 BYTE   N56  An3
 BYTE   W22
// 034   ----------------------------------------
 BYTE   W14
 BYTE   N22  Cs3
 BYTE   W24
 BYTE   N32  As2
 BYTE   N32  Dn3
 BYTE   W36
 BYTE   N22  An2
 BYTE   N22  Dn3
 BYTE   W22
// 035   ----------------------------------------
 BYTE   W02
 BYTE   N32  As2
 BYTE   N32  Dn3
 BYTE   W36
 BYTE   N22  Cn3
 BYTE   N22  Ds3
 BYTE   W24
 BYTE   N32  Dn3
 BYTE   N32  Gn3
 BYTE   W32
 BYTE   W02
// 036   ----------------------------------------
 BYTE   W02
 BYTE   N22  Ds3
 BYTE   N22  Fs3
 BYTE   W24
 BYTE   N32  Dn3
 BYTE   N56  Gn3
 BYTE   W36
 BYTE   N22  Ds3
 BYTE   W24
 BYTE   N56  Dn3
 BYTE   TIE  An3
 BYTE   W10
// 037   ----------------------------------------
 BYTE   W48
 BYTE   W02
 BYTE   N56  Cs3
 BYTE   W44
 BYTE   W02
// 038   ----------------------------------------
 BYTE   W12
 BYTE   EOT
 BYTE   An3
 BYTE   W84
// 039   ----------------------------------------
 BYTE   W96
// 040   ----------------------------------------
 BYTE   W96
// 041   ----------------------------------------
 BYTE   W96
// 042   ----------------------------------------
 BYTE   W09
 BYTE   GoTo
  POIN2 Label_4_012C861E
// 043   ----------------------------------------
 BYTE   W02
 BYTE   FINE

//**************** Track 6 (Midi-Chn.5) ****************//

ConfidenceInTheDomination_006:
// 000   ----------------------------------------
 BYTE   KEYSH   ConfidenceInTheDomination_key+0
Label_5_012C86C2:
 BYTE   VOICE   62
 BYTE   VOL   41*ConfidenceInTheDomination_mvl/mxv
 BYTE   PAN   c_v-10
 BYTE   BEND   c_v+0
 BYTE   N32  Bn2  v108
 BYTE   N32  En3
 BYTE   N32  Gn3
 BYTE   W36
 BYTE   N28  Dn3
 BYTE   N28  Fs3
 BYTE   N28  An3
 BYTE   W30
 BYTE   N32  Bn2
 BYTE   N32  En3
 BYTE   N32  Gn3
 BYTE   W30
// 001   ----------------------------------------
 BYTE   W06
 BYTE   N28  Cs3
 BYTE   N28  En3
 BYTE   N28  An3
 BYTE   W30
 BYTE   N32  Bn2
 BYTE   N32  En3
 BYTE   N32  Gn3
 BYTE   W36
 BYTE   N56  Dn3
 BYTE   N56  Fs3
 BYTE   N56  An3
 BYTE   W24
// 002   ----------------------------------------
 BYTE   W36
 BYTE   N92  Dn3  v120
 BYTE   N92  Fn3
 BYTE   N92  An3
 BYTE   W60
// 003   ----------------------------------------
 BYTE   W36
 BYTE   N16  Bn2
 BYTE   N16  En3
 BYTE   N16  An3
 BYTE   W18
 BYTE   Bn2
 BYTE   N16  En3
 BYTE   N16  An3
 BYTE   W18
 BYTE   N09  Bn2
 BYTE   N09  En3
 BYTE   N09  An3
 BYTE   W12
 BYTE   N16  Bn2
 BYTE   N16  En3
 BYTE   N16  Gs3
 BYTE   W12
// 004   ----------------------------------------
 BYTE   W06
 BYTE   Bn2
 BYTE   N16  En3
 BYTE   N16  Gs3
 BYTE   W18
 BYTE   N09  Bn2
 BYTE   N09  En3
 BYTE   N09  Gs3
 BYTE   W12
 BYTE   N32  Bn2  v108
 BYTE   N32  En3
 BYTE   N32  Gn3
 BYTE   W36
 BYTE   N28  Dn3
 BYTE   N28  Fs3
 BYTE   N28  An3
 BYTE   W24
// 005   ----------------------------------------
 BYTE   W06
 BYTE   N32  Bn2
 BYTE   N32  En3
 BYTE   N32  Gn3
 BYTE   W36
 BYTE   N28  Cs3
 BYTE   N28  En3
 BYTE   N28  An3
 BYTE   W30
 BYTE   N32  Bn2
 BYTE   N32  En3
 BYTE   N32  Gn3
 BYTE   W24
// 006   ----------------------------------------
 BYTE   W12
 BYTE   N56  Dn3
 BYTE   N56  Fs3
 BYTE   N56  An3
 BYTE   W60
 BYTE   N92  Dn3  v120
 BYTE   N92  Fn3
 BYTE   N92  An3
 BYTE   W24
// 007   ----------------------------------------
 BYTE   W72
 BYTE   N16  Bn2
 BYTE   N16  En3
 BYTE   N16  Gs3
 BYTE   W18
 BYTE   Bn2
 BYTE   N16  En3
 BYTE   N16  Gs3
 BYTE   W06
// 008   ----------------------------------------
 BYTE   W12
 BYTE   N09  Bn2
 BYTE   N09  En3
 BYTE   N09  Gs3
 BYTE   W12
 BYTE   N16  Cn3
 BYTE   N16  En3
 BYTE   N16  An3
 BYTE   W18
 BYTE   Cn3
 BYTE   N16  En3
 BYTE   N16  An3
 BYTE   W18
 BYTE   N09  Cn3
 BYTE   N09  En3
 BYTE   N09  An3
 BYTE   W12
 BYTE   N44  An2
 BYTE   N44  Dn3
 BYTE   N44  Fn3
 BYTE   W24
// 009   ----------------------------------------
Label_5_012C878F:
 BYTE   W24
 BYTE   N44  Bn2  v120
 BYTE   N44  En3
 BYTE   N44  Gn3
 BYTE   W48
 BYTE   N92  Cn3
 BYTE   N92  En3
 BYTE   N92  An3
 BYTE   W24
 BYTE   PEND 
// 010   ----------------------------------------
Label_5_012C87A0:
 BYTE   W72
 BYTE   N44  An2  v120
 BYTE   N44  Dn3
 BYTE   N44  Fn3
 BYTE   W24
 BYTE   PEND 
 BYTE   PATT
  POIN2 Label_5_012C878F
 BYTE   PATT
  POIN2 Label_5_012C87A0
// 011   ----------------------------------------
 BYTE   W24
 BYTE   N44  Bn2  v120
 BYTE   N44  En3
 BYTE   N44  Gn3
 BYTE   W48
 BYTE   Cn3
 BYTE   N44  En3
 BYTE   N44  An3
 BYTE   W24
// 012   ----------------------------------------
 BYTE   W24
 BYTE   Bn2
 BYTE   N44  En3
 BYTE   N44  Gs3
 BYTE   W48
 BYTE   An2
 BYTE   N44  Dn3
 BYTE   N44  Fn3
 BYTE   W24
 BYTE   PATT
  POIN2 Label_5_012C878F
 BYTE   PATT
  POIN2 Label_5_012C87A0
// 013   ----------------------------------------
 BYTE   W24
 BYTE   N44  Bn2  v120
 BYTE   N44  En3
 BYTE   N44  Gn3
 BYTE   W48
 BYTE   Dn3
 BYTE   N44  En3
 BYTE   N44  An3
 BYTE   W24
// 014   ----------------------------------------
 BYTE   W24
 BYTE   Cs3
 BYTE   N44  En3
 BYTE   N44  An3
 BYTE   W48
 BYTE   N32  Bn2  v127
 BYTE   N32  En3
 BYTE   N32  Gn3
 BYTE   W24
// 015   ----------------------------------------
 BYTE   W12
 BYTE   N28  Dn3
 BYTE   N28  Fs3
 BYTE   N28  An3
 BYTE   W30
 BYTE   N32  Bn2
 BYTE   N32  En3
 BYTE   N32  Gn3
 BYTE   W36
 BYTE   N28  Cs3
 BYTE   N28  En3
 BYTE   N28  An3
 BYTE   W18
// 016   ----------------------------------------
 BYTE   W12
 BYTE   N32  Bn2
 BYTE   N32  En3
 BYTE   N32  Gn3
 BYTE   W36
 BYTE   N56  Dn3
 BYTE   N56  Fs3
 BYTE   N56  An3
 BYTE   W48
// 017   ----------------------------------------
 BYTE   W12
 BYTE   N92  Dn3  v120
 BYTE   N92  Fn3
 BYTE   N92  An3
 BYTE   W84
// 018   ----------------------------------------
 BYTE   W12
 BYTE   N16  Bn2
 BYTE   N16  En3
 BYTE   N16  An3
 BYTE   W18
 BYTE   Bn2
 BYTE   N16  En3
 BYTE   N16  An3
 BYTE   W18
 BYTE   N09  Bn2
 BYTE   N09  En3
 BYTE   N09  An3
 BYTE   W12
 BYTE   N16  Bn2
 BYTE   N16  En3
 BYTE   N16  Gs3
 BYTE   W18
 BYTE   Bn2
 BYTE   N16  En3
 BYTE   N16  Gs3
 BYTE   W18
// 019   ----------------------------------------
 BYTE   N09  Bn2
 BYTE   N09  En3
 BYTE   N09  Gs3
 BYTE   W12
 BYTE   N32  Bn2
 BYTE   N32  En3
 BYTE   N32  Gn3
 BYTE   W36
 BYTE   N28  Dn3
 BYTE   N28  Fs3
 BYTE   N28  An3
 BYTE   W30
 BYTE   N32  Bn2
 BYTE   N32  En3
 BYTE   N32  Gn3
 BYTE   W18
// 020   ----------------------------------------
 BYTE   W18
 BYTE   N28  Cs3
 BYTE   N28  En3
 BYTE   N28  An3
 BYTE   W30
 BYTE   N32  Cs3
 BYTE   N32  Fs3
 BYTE   N32  An3
 BYTE   W36
 BYTE   N28  En3
 BYTE   N28  Gs3
 BYTE   N28  Bn3
 BYTE   W12
// 021   ----------------------------------------
 BYTE   W18
 BYTE   N32  Cs3
 BYTE   N32  Fs3
 BYTE   N32  An3
 BYTE   W36
 BYTE   N28  Ds3
 BYTE   N28  Fs3
 BYTE   N28  Bn3
 BYTE   W30
 BYTE   N32  Ds3
 BYTE   N32  Gs3
 BYTE   N32  Bn3
 BYTE   W12
// 022   ----------------------------------------
 BYTE   W24
 BYTE   N28  Fs3
 BYTE   N28  As3
 BYTE   N28  Cs4
 BYTE   W30
 BYTE   N32  Ds3
 BYTE   N32  Gs3
 BYTE   N32  Bn3
 BYTE   W36
 BYTE   N28  Fn3
 BYTE   N28  Gs3
 BYTE   N28  Cs4
 BYTE   W06
// 023   ----------------------------------------
 BYTE   W24
 BYTE   W02
 BYTE   N92  An2
 BYTE   N92  Cn3
 BYTE   N92  En3
 BYTE   N92  Bn3
 BYTE   W68
 BYTE   W02
// 024   ----------------------------------------
 BYTE   W24
 BYTE   W02
 BYTE   BEND   c_v+0
 BYTE   N92  Dn3
 BYTE   N92  Fn3
 BYTE   N92  An3
 BYTE   N92  En4
 BYTE   W68
 BYTE   W02
// 025   ----------------------------------------
 BYTE   W24
 BYTE   W02
 BYTE   BEND   c_v-11
 BYTE   N92  Dn3
 BYTE   N92  Fn3
 BYTE   N92  Gs3
 BYTE   N92  Bn3
 BYTE   W02
 BYTE   BEND   c_v-10
 BYTE   W01
 BYTE   Gn2
 BYTE   W02
 BYTE   Gs2
 BYTE   W01
 BYTE   Gs2
 BYTE   W02
 BYTE   An2
 BYTE   W01
 BYTE   As2
 BYTE   W02
 BYTE   As2
 BYTE   W01
 BYTE   Bn2
 BYTE   W02
 BYTE   Bn2
 BYTE   W01
 BYTE   Bn2
 BYTE   W02
 BYTE   Cn3
 BYTE   W01
 BYTE   Cn3
 BYTE   W02
 BYTE   Cn3
 BYTE   W01
 BYTE   Cs3
 BYTE   W02
 BYTE   Cs3
 BYTE   W01
 BYTE   Cs3
 BYTE   W02
 BYTE   Cs3
 BYTE   W01
 BYTE   Cs3
 BYTE   W02
 BYTE   Dn3
 BYTE   W01
 BYTE   Dn3
 BYTE   W02
 BYTE   Dn3
 BYTE   W01
 BYTE   Dn3
 BYTE   W02
 BYTE   Dn3
 BYTE   W01
 BYTE   Dn3
 BYTE   W03
 BYTE   Ds3
 BYTE   W03
 BYTE   Ds3
 BYTE   W03
 BYTE   Ds3
 BYTE   W03
 BYTE   Ds3
 BYTE   W06
 BYTE   Ds3
 BYTE   W06
 BYTE   Ds3
 BYTE   W10
// 026   ----------------------------------------
 BYTE   W02
 BYTE   En3
 BYTE   W24
 BYTE   Fn2
 BYTE   N92  Cn3
 BYTE   N92  Ds3
 BYTE   N92  Fs3
 BYTE   N92  An3
 BYTE   W02
 BYTE   BEND   c_v-10
 BYTE   W01
 BYTE   Gn2
 BYTE   W02
 BYTE   Gs2
 BYTE   W01
 BYTE   Gs2
 BYTE   W02
 BYTE   An2
 BYTE   W01
 BYTE   As2
 BYTE   W02
 BYTE   As2
 BYTE   W01
 BYTE   Bn2
 BYTE   W02
 BYTE   Bn2
 BYTE   W01
 BYTE   Bn2
 BYTE   W02
 BYTE   Cn3
 BYTE   W01
 BYTE   Cn3
 BYTE   W02
 BYTE   Cn3
 BYTE   W01
 BYTE   Cs3
 BYTE   W02
 BYTE   Cs3
 BYTE   W01
 BYTE   Cs3
 BYTE   W02
 BYTE   Cs3
 BYTE   W01
 BYTE   Cs3
 BYTE   W02
 BYTE   Dn3
 BYTE   W01
 BYTE   Dn3
 BYTE   W02
 BYTE   Dn3
 BYTE   W01
 BYTE   Dn3
 BYTE   W02
 BYTE   Dn3
 BYTE   W01
 BYTE   Dn3
 BYTE   W03
 BYTE   Ds3
 BYTE   W03
 BYTE   Ds3
 BYTE   W03
 BYTE   Ds3
 BYTE   W03
 BYTE   Ds3
 BYTE   W06
 BYTE   Ds3
 BYTE   W06
 BYTE   Ds3
 BYTE   W10
// 027   ----------------------------------------
 BYTE   W02
 BYTE   En3
 BYTE   W24
 BYTE   N32  Dn3
 BYTE   N32  Gn3
 BYTE   W36
 BYTE   N22  Dn3
 BYTE   N22  An3
 BYTE   W24
 BYTE   N32  Dn3
 BYTE   N32  As3
 BYTE   W10
// 028   ----------------------------------------
 BYTE   W24
 BYTE   W02
 BYTE   N22  Dn3
 BYTE   N22  Cn4
 BYTE   W24
 BYTE   N32  As3
 BYTE   N32  Dn4
 BYTE   W36
 BYTE   N22  Gn3
 BYTE   N22  Cn4
 BYTE   W10
// 029   ----------------------------------------
 BYTE   W14
 BYTE   N32  Gn3
 BYTE   N32  As3
 BYTE   W36
 BYTE   N22  Gn3
 BYTE   N22  An3
 BYTE   W24
 BYTE   BEND   c_v-11
 BYTE   N32  Dn3
 BYTE   N32  En3
 BYTE   N32  An3
 BYTE   W02
 BYTE   BEND   c_v-8
 BYTE   W01
 BYTE   An2
 BYTE   W02
 BYTE   Bn2
 BYTE   W01
 BYTE   Cn3
 BYTE   W02
 BYTE   Cn3
 BYTE   W01
 BYTE   Cs3
 BYTE   W02
 BYTE   Dn3
 BYTE   W01
 BYTE   Dn3
 BYTE   W02
 BYTE   Dn3
 BYTE   W01
 BYTE   Ds3
 BYTE   W02
 BYTE   Ds3
 BYTE   W01
 BYTE   Ds3
 BYTE   W03
 BYTE   Ds3
 BYTE   W01
// 030   ----------------------------------------
 BYTE   W01
 BYTE   Ds3
 BYTE   W04
 BYTE   En3
 BYTE   W09
 BYTE   N22  Cs3
 BYTE   N22  En3
 BYTE   N22  An3
 BYTE   W24
 BYTE   N32  Dn3
 BYTE   N32  Gn3
 BYTE   W36
 BYTE   N22  Dn3
 BYTE   N22  An3
 BYTE   W22
// 031   ----------------------------------------
 BYTE   W02
 BYTE   N32  Dn3
 BYTE   N32  As3
 BYTE   W36
 BYTE   N22  Dn3
 BYTE   N22  Cn4
 BYTE   W24
 BYTE   N32  As3
 BYTE   N32  Dn4
 BYTE   W32
 BYTE   W02
// 032   ----------------------------------------
 BYTE   W02
 BYTE   N22  Gn3
 BYTE   N22  Cn4
 BYTE   W24
 BYTE   N32  Gn3
 BYTE   N32  As3
 BYTE   W36
 BYTE   N22  Gn3
 BYTE   N22  An3
 BYTE   W24
 BYTE   N04
 BYTE   W06
 BYTE   Dn4
 BYTE   W04
// 033   ----------------------------------------
 BYTE   W02
 BYTE   En4
 BYTE   W06
 BYTE   An4
 BYTE   W06
 BYTE   En4
 BYTE   W06
 BYTE   Dn4
 BYTE   W06
 BYTE   An3
 BYTE   W06
 BYTE   Dn4
 BYTE   W06
 BYTE   En4
 BYTE   W06
 BYTE   An4
 BYTE   W06
 BYTE   An3
 BYTE   W06
 BYTE   Cs4
 BYTE   W06
 BYTE   En4
 BYTE   W06
 BYTE   An4
 BYTE   W06
 BYTE   An3
 BYTE   W06
 BYTE   En4
 BYTE   W06
 BYTE   An4
 BYTE   W06
 BYTE   Cs5
 BYTE   W04
// 034   ----------------------------------------
 BYTE   W02
 BYTE   En5
 BYTE   W06
 BYTE   En4
 BYTE   W06
 BYTE   N92  An2
 BYTE   N92  Cn3
 BYTE   N92  En3
 BYTE   N92  Bn3
 BYTE   W80
 BYTE   W02
// 035   ----------------------------------------
 BYTE   W14
 BYTE   BEND   c_v+0
 BYTE   N92  Dn3
 BYTE   N92  Fn3
 BYTE   N92  An3
 BYTE   N92  En4
 BYTE   W80
 BYTE   W02
// 036   ----------------------------------------
 BYTE   W14
 BYTE   BEND   c_v-11
 BYTE   N92  Dn3
 BYTE   N92  Fn3
 BYTE   N92  Gs3
 BYTE   N92  Bn3
 BYTE   W02
 BYTE   BEND   c_v-10
 BYTE   W01
 BYTE   Gn2
 BYTE   W02
 BYTE   Gs2
 BYTE   W01
 BYTE   Gs2
 BYTE   W02
 BYTE   An2
 BYTE   W01
 BYTE   As2
 BYTE   W02
 BYTE   As2
 BYTE   W01
 BYTE   Bn2
 BYTE   W02
 BYTE   Bn2
 BYTE   W01
 BYTE   Bn2
 BYTE   W02
 BYTE   Cn3
 BYTE   W01
 BYTE   Cn3
 BYTE   W02
 BYTE   Cn3
 BYTE   W01
 BYTE   Cs3
 BYTE   W02
 BYTE   Cs3
 BYTE   W01
 BYTE   Cs3
 BYTE   W02
 BYTE   Cs3
 BYTE   W01
 BYTE   Cs3
 BYTE   W02
 BYTE   Dn3
 BYTE   W01
 BYTE   Dn3
 BYTE   W02
 BYTE   Dn3
 BYTE   W01
 BYTE   Dn3
 BYTE   W02
 BYTE   Dn3
 BYTE   W01
 BYTE   Dn3
 BYTE   W03
 BYTE   Ds3
 BYTE   W03
 BYTE   Ds3
 BYTE   W03
 BYTE   Ds3
 BYTE   W03
 BYTE   Ds3
 BYTE   W06
 BYTE   Ds3
 BYTE   W06
 BYTE   Ds3
 BYTE   W12
 BYTE   En3
 BYTE   W10
// 037   ----------------------------------------
 BYTE   W14
 BYTE   Fn2
 BYTE   N92  Cn3
 BYTE   N92  Ds3
 BYTE   N92  Fs3
 BYTE   N92  An3
 BYTE   W02
 BYTE   BEND   c_v-10
 BYTE   W01
 BYTE   Gn2
 BYTE   W02
 BYTE   Gs2
 BYTE   W01
 BYTE   Gs2
 BYTE   W02
 BYTE   An2
 BYTE   W01
 BYTE   As2
 BYTE   W02
 BYTE   As2
 BYTE   W01
 BYTE   Bn2
 BYTE   W02
 BYTE   Bn2
 BYTE   W01
 BYTE   Bn2
 BYTE   W02
 BYTE   Cn3
 BYTE   W01
 BYTE   Cn3
 BYTE   W02
 BYTE   Cn3
 BYTE   W01
 BYTE   Cs3
 BYTE   W02
 BYTE   Cs3
 BYTE   W01
 BYTE   Cs3
 BYTE   W02
 BYTE   Cs3
 BYTE   W01
 BYTE   Cs3
 BYTE   W02
 BYTE   Dn3
 BYTE   W01
 BYTE   Dn3
 BYTE   W02
 BYTE   Dn3
 BYTE   W01
 BYTE   Dn3
 BYTE   W02
 BYTE   Dn3
 BYTE   W01
 BYTE   Dn3
 BYTE   W03
 BYTE   Ds3
 BYTE   W03
 BYTE   Ds3
 BYTE   W03
 BYTE   Ds3
 BYTE   W03
 BYTE   Ds3
 BYTE   W06
 BYTE   Ds3
 BYTE   W06
 BYTE   Ds3
 BYTE   W12
 BYTE   En3
 BYTE   W10
// 038   ----------------------------------------
 BYTE   W09
 BYTE   GoTo
  POIN2 Label_5_012C86C2
// 039   ----------------------------------------
 BYTE   W02
 BYTE   FINE

//**************** Track 7 (Midi-Chn.6) ****************//

ConfidenceInTheDomination_007:
// 000   ----------------------------------------
 BYTE   KEYSH   ConfidenceInTheDomination_key+0
Label_6_012C8ABE:
 BYTE   VOICE   68
 BYTE   VOL   41*ConfidenceInTheDomination_mvl/mxv
 BYTE   PAN   c_v+0
 BYTE   BEND   c_v+0
 BYTE   W96
// 001   ----------------------------------------
 BYTE   W96
// 002   ----------------------------------------
 BYTE   W96
// 003   ----------------------------------------
 BYTE   W96
// 004   ----------------------------------------
 BYTE   W96
// 005   ----------------------------------------
 BYTE   W96
// 006   ----------------------------------------
 BYTE   W96
// 007   ----------------------------------------
 BYTE   W96
// 008   ----------------------------------------
 BYTE   W96
// 009   ----------------------------------------
 BYTE   W96
// 010   ----------------------------------------
 BYTE   W96
// 011   ----------------------------------------
 BYTE   W96
// 012   ----------------------------------------
 BYTE   W96
// 013   ----------------------------------------
 BYTE   W96
// 014   ----------------------------------------
 BYTE   W96
// 015   ----------------------------------------
 BYTE   W96
// 016   ----------------------------------------
 BYTE   W96
// 017   ----------------------------------------
 BYTE   W96
// 018   ----------------------------------------
 BYTE   W96
// 019   ----------------------------------------
 BYTE   W96
// 020   ----------------------------------------
 BYTE   W96
// 021   ----------------------------------------
 BYTE   W96
// 022   ----------------------------------------
 BYTE   W96
// 023   ----------------------------------------
 BYTE   W96
// 024   ----------------------------------------
 BYTE   W96
// 025   ----------------------------------------
 BYTE   W96
// 026   ----------------------------------------
 BYTE   W96
// 027   ----------------------------------------
 BYTE   W96
// 028   ----------------------------------------
 BYTE   W96
// 029   ----------------------------------------
 BYTE   W96
// 030   ----------------------------------------
 BYTE   W96
// 031   ----------------------------------------
 BYTE   W24
 BYTE   W02
 BYTE   N04  Gn3  v127
 BYTE   W06
 BYTE   An3
 BYTE   W06
 BYTE   N22  As3
 BYTE   W24
 BYTE   N16  An3
 BYTE   W24
 BYTE   N32  As3
 BYTE   W10
// 032   ----------------------------------------
 BYTE   W24
 BYTE   W02
 BYTE   N16  Cn4
 BYTE   W24
 BYTE   N32  Dn4
 BYTE   W36
 BYTE   N16  Cs4
 BYTE   W10
// 033   ----------------------------------------
 BYTE   W14
 BYTE   N32  Gn3
 BYTE   W36
 BYTE   N16  Fs3
 BYTE   W24
 BYTE   N32  An3
 BYTE   W22
// 034   ----------------------------------------
 BYTE   W14
 BYTE   N16
 BYTE   W24
 BYTE   N04  Gn3
 BYTE   W06
 BYTE   An3
 BYTE   W06
 BYTE   N22  As3
 BYTE   W24
 BYTE   N16  An3
 BYTE   W22
// 035   ----------------------------------------
 BYTE   W02
 BYTE   N32  As3
 BYTE   W36
 BYTE   N16  Cn4
 BYTE   W24
 BYTE   N32  Dn4
 BYTE   W32
 BYTE   W02
// 036   ----------------------------------------
 BYTE   W02
 BYTE   N16  Cs4
 BYTE   W24
 BYTE   N32  Gn3
 BYTE   W36
 BYTE   N16  Fs3
 BYTE   W24
 BYTE   N32  An3
 BYTE   W10
// 037   ----------------------------------------
 BYTE   W24
 BYTE   W02
 BYTE   N16
 BYTE   W24
 BYTE   N32
 BYTE   W36
 BYTE   N16
 BYTE   W10
// 038   ----------------------------------------
 BYTE   W96
// 039   ----------------------------------------
 BYTE   W96
// 040   ----------------------------------------
 BYTE   W96
// 041   ----------------------------------------
 BYTE   W96
// 042   ----------------------------------------
 BYTE   W09
 BYTE   GoTo
  POIN2 Label_6_012C8ABE
// 043   ----------------------------------------
 BYTE   W02
 BYTE   FINE

//**************** Track 8 (Midi-Chn.7) ****************//

ConfidenceInTheDomination_008:
// 000   ----------------------------------------
 BYTE   KEYSH   ConfidenceInTheDomination_key+0
Label_7_012C8B4A:
 BYTE   VOICE   4
 BYTE   VOL   23*ConfidenceInTheDomination_mvl/mxv
 BYTE   PAN   c_v+50
 BYTE   BEND   c_v+0
 BYTE   W02
 BYTE   N04  En6  v108
 BYTE   W06
 BYTE   En5
 BYTE   W06
 BYTE   Bn5
 BYTE   W06
 BYTE   En6
 BYTE   W06
 BYTE   En5
 BYTE   W06
 BYTE   En6
 BYTE   W06
 BYTE   Dn6
 BYTE   W06
 BYTE   Dn5
 BYTE   W06
 BYTE   An5
 BYTE   W06
 BYTE   Dn6
 BYTE   W06
 BYTE   Dn5
 BYTE   W06
 BYTE   En6
 BYTE   W06
 BYTE   En5
 BYTE   W06
 BYTE   Bn5
 BYTE   W06
 BYTE   En6
 BYTE   W06
 BYTE   En5
 BYTE   W04
// 001   ----------------------------------------
 BYTE   W02
 BYTE   Bn5
 BYTE   W06
 BYTE   An5
 BYTE   W06
 BYTE   En5
 BYTE   W06
 BYTE   En6
 BYTE   W06
 BYTE   En5
 BYTE   W06
 BYTE   An5
 BYTE   W06
 BYTE   En6
 BYTE   W06
 BYTE   En5
 BYTE   W06
 BYTE   Bn5
 BYTE   W06
 BYTE   En6
 BYTE   W06
 BYTE   En5
 BYTE   W06
 BYTE   En6
 BYTE   W06
 BYTE   Dn6
 BYTE   W06
 BYTE   Dn5
 BYTE   W06
 BYTE   An5
 BYTE   W06
 BYTE   Dn6
 BYTE   W04
// 002   ----------------------------------------
 BYTE   W02
 BYTE   Dn5
 BYTE   W06
 BYTE   N04
 BYTE   W06
 BYTE   Fs5
 BYTE   W06
 BYTE   An5
 BYTE   W06
 BYTE   Dn6
 BYTE   W06
 BYTE   Fs5
 BYTE   W64
// 003   ----------------------------------------
 BYTE   W36
 BYTE   W02
 BYTE   Bn5
 BYTE   W06
 BYTE   En5
 BYTE   W06
 BYTE   An5
 BYTE   W06
 BYTE   Bn5
 BYTE   W06
 BYTE   En6
 BYTE   W06
 BYTE   En5
 BYTE   W06
 BYTE   Bn5
 BYTE   W06
 BYTE   En5
 BYTE   W06
 BYTE   Bn5
 BYTE   W06
 BYTE   En5
 BYTE   W04
// 004   ----------------------------------------
 BYTE   W02
 BYTE   Gs5
 BYTE   W06
 BYTE   Bn5
 BYTE   W06
 BYTE   En6
 BYTE   W06
 BYTE   En5
 BYTE   W06
 BYTE   Bn5
 BYTE   W06
 BYTE   En5
 BYTE   W06
 BYTE   En6
 BYTE   W06
 BYTE   En5
 BYTE   W06
 BYTE   Bn5
 BYTE   W06
 BYTE   En6
 BYTE   W06
 BYTE   En5
 BYTE   W06
 BYTE   En6
 BYTE   W06
 BYTE   Dn6
 BYTE   W06
 BYTE   Dn5
 BYTE   W06
 BYTE   An5
 BYTE   W06
 BYTE   Dn6
 BYTE   W04
// 005   ----------------------------------------
 BYTE   W02
 BYTE   Dn5
 BYTE   W06
 BYTE   En6
 BYTE   W06
 BYTE   En5
 BYTE   W06
 BYTE   Bn5
 BYTE   W06
 BYTE   En6
 BYTE   W06
 BYTE   En5
 BYTE   W06
 BYTE   Bn5
 BYTE   W06
 BYTE   An5
 BYTE   W06
 BYTE   En5
 BYTE   W06
 BYTE   En6
 BYTE   W06
 BYTE   En5
 BYTE   W06
 BYTE   An5
 BYTE   W06
 BYTE   En6
 BYTE   W06
 BYTE   En5
 BYTE   W06
 BYTE   Bn5
 BYTE   W06
 BYTE   En6
 BYTE   W04
// 006   ----------------------------------------
 BYTE   W02
 BYTE   En5
 BYTE   W06
 BYTE   En6
 BYTE   W06
 BYTE   Dn6
 BYTE   W06
 BYTE   Dn5
 BYTE   W06
 BYTE   An5
 BYTE   W06
 BYTE   Dn6
 BYTE   W06
 BYTE   Dn5
 BYTE   W06
 BYTE   N04
 BYTE   W06
 BYTE   Fs5
 BYTE   W06
 BYTE   An5
 BYTE   W06
 BYTE   Dn6
 BYTE   W06
 BYTE   Fs5
 BYTE   W28
// 007   ----------------------------------------
 BYTE   W72
 BYTE   W02
 BYTE   Bn5
 BYTE   W06
 BYTE   En5
 BYTE   W06
 BYTE   Gs5
 BYTE   W06
 BYTE   Bn5
 BYTE   W04
// 008   ----------------------------------------
 BYTE   W02
 BYTE   En5
 BYTE   W06
 BYTE   Gs5
 BYTE   W06
 BYTE   Bn5
 BYTE   W06
 BYTE   En5
 BYTE   W06
 BYTE   Cn6
 BYTE   W06
 BYTE   En5
 BYTE   W06
 BYTE   An5
 BYTE   W06
 BYTE   Cn6
 BYTE   W06
 BYTE   En5
 BYTE   W06
 BYTE   An5
 BYTE   W06
 BYTE   Cn6
 BYTE   W06
 BYTE   En5
 BYTE   W06
 BYTE   Dn4
 BYTE   W06
 BYTE   Fn4
 BYTE   W06
 BYTE   An4
 BYTE   W06
 BYTE   Dn5
 BYTE   W04
// 009   ----------------------------------------
Label_7_012C8C3F:
 BYTE   W02
 BYTE   N04  Fn5  v108
 BYTE   W06
 BYTE   An5
 BYTE   W06
 BYTE   Dn6
 BYTE   W06
 BYTE   Dn5
 BYTE   W06
 BYTE   En4
 BYTE   W06
 BYTE   Gn4
 BYTE   W06
 BYTE   Bn4
 BYTE   W06
 BYTE   En5
 BYTE   W06
 BYTE   Gn5
 BYTE   W06
 BYTE   Bn5
 BYTE   W06
 BYTE   En6
 BYTE   W06
 BYTE   En5
 BYTE   W06
 BYTE   An3
 BYTE   W06
 BYTE   Cn4
 BYTE   W06
 BYTE   En4
 BYTE   W06
 BYTE   An4
 BYTE   W04
 BYTE   PEND 
// 010   ----------------------------------------
Label_7_012C8C63:
 BYTE   W02
 BYTE   N04  Cn5  v108
 BYTE   W06
 BYTE   An4
 BYTE   W06
 BYTE   Cn5
 BYTE   W06
 BYTE   En5
 BYTE   W06
 BYTE   An5
 BYTE   W06
 BYTE   Cn5
 BYTE   W06
 BYTE   En5
 BYTE   W06
 BYTE   An5
 BYTE   W06
 BYTE   En6
 BYTE   W06
 BYTE   Cn6
 BYTE   W06
 BYTE   An5
 BYTE   W06
 BYTE   En5
 BYTE   W06
 BYTE   Dn4
 BYTE   W06
 BYTE   Fn4
 BYTE   W06
 BYTE   An4
 BYTE   W06
 BYTE   Dn5
 BYTE   W04
 BYTE   PEND 
 BYTE   PATT
  POIN2 Label_7_012C8C3F
 BYTE   PATT
  POIN2 Label_7_012C8C63
// 011   ----------------------------------------
 BYTE   W02
 BYTE   N04  Fn5  v108
 BYTE   W06
 BYTE   An5
 BYTE   W06
 BYTE   Dn6
 BYTE   W06
 BYTE   Dn5
 BYTE   W06
 BYTE   En4
 BYTE   W06
 BYTE   Gn4
 BYTE   W06
 BYTE   Bn4
 BYTE   W06
 BYTE   En5
 BYTE   W06
 BYTE   Gn5
 BYTE   W06
 BYTE   Bn5
 BYTE   W06
 BYTE   En6
 BYTE   W06
 BYTE   En5
 BYTE   W06
 BYTE   En4
 BYTE   W06
 BYTE   An4
 BYTE   W06
 BYTE   Cn5
 BYTE   W06
 BYTE   En5
 BYTE   W04
// 012   ----------------------------------------
 BYTE   W02
 BYTE   An5
 BYTE   W06
 BYTE   Cn5
 BYTE   W06
 BYTE   En5
 BYTE   W06
 BYTE   An5
 BYTE   W06
 BYTE   Gs5
 BYTE   W06
 BYTE   En5
 BYTE   W06
 BYTE   Gs5
 BYTE   W06
 BYTE   Bn5
 BYTE   W06
 BYTE   En6
 BYTE   W06
 BYTE   Bn5
 BYTE   W06
 BYTE   Gs5
 BYTE   W06
 BYTE   En5
 BYTE   W06
 BYTE   Dn4
 BYTE   W06
 BYTE   Fn4
 BYTE   W06
 BYTE   An4
 BYTE   W06
 BYTE   Dn5
 BYTE   W04
 BYTE   PATT
  POIN2 Label_7_012C8C3F
 BYTE   PATT
  POIN2 Label_7_012C8C63
// 013   ----------------------------------------
 BYTE   W02
 BYTE   N04  Fn5  v108
 BYTE   W06
 BYTE   An5
 BYTE   W06
 BYTE   Dn6
 BYTE   W06
 BYTE   Dn5
 BYTE   W06
 BYTE   En4
 BYTE   W06
 BYTE   Gn4
 BYTE   W06
 BYTE   Bn4
 BYTE   W06
 BYTE   En5
 BYTE   W06
 BYTE   Gn5
 BYTE   W06
 BYTE   Bn5
 BYTE   W06
 BYTE   En6
 BYTE   W06
 BYTE   En5
 BYTE   W06
 BYTE   An4
 BYTE   W06
 BYTE   Dn5
 BYTE   W06
 BYTE   En5
 BYTE   W06
 BYTE   An5
 BYTE   W04
// 014   ----------------------------------------
 BYTE   W02
 BYTE   An4
 BYTE   W06
 BYTE   En5
 BYTE   W06
 BYTE   An4
 BYTE   W06
 BYTE   Dn5
 BYTE   W06
 BYTE   En5
 BYTE   W06
 BYTE   An4
 BYTE   W06
 BYTE   Cs5
 BYTE   W06
 BYTE   En5
 BYTE   W06
 BYTE   An5
 BYTE   W06
 BYTE   An4
 BYTE   W06
 BYTE   En5
 BYTE   W06
 BYTE   Cs5
 BYTE   W06
 BYTE   En6
 BYTE   W06
 BYTE   En5
 BYTE   W06
 BYTE   Bn5
 BYTE   W06
 BYTE   En6
 BYTE   W04
// 015   ----------------------------------------
 BYTE   W02
 BYTE   En5
 BYTE   W06
 BYTE   En6
 BYTE   W06
 BYTE   Dn6
 BYTE   W06
 BYTE   Dn5
 BYTE   W06
 BYTE   An5
 BYTE   W06
 BYTE   Dn6
 BYTE   W06
 BYTE   Dn5
 BYTE   W06
 BYTE   En6
 BYTE   W06
 BYTE   En5
 BYTE   W06
 BYTE   Bn5
 BYTE   W06
 BYTE   En6
 BYTE   W06
 BYTE   En5
 BYTE   W06
 BYTE   Bn5
 BYTE   W06
 BYTE   An5
 BYTE   W06
 BYTE   En5
 BYTE   W06
 BYTE   En6
 BYTE   W04
// 016   ----------------------------------------
 BYTE   W02
 BYTE   En5
 BYTE   W06
 BYTE   An5
 BYTE   W06
 BYTE   En6
 BYTE   W06
 BYTE   En5
 BYTE   W06
 BYTE   Bn5
 BYTE   W06
 BYTE   En6
 BYTE   W06
 BYTE   En5
 BYTE   W06
 BYTE   En6
 BYTE   W06
 BYTE   Dn6
 BYTE   W06
 BYTE   Dn5
 BYTE   W06
 BYTE   An5
 BYTE   W06
 BYTE   Dn6
 BYTE   W06
 BYTE   Dn5
 BYTE   W06
 BYTE   N04
 BYTE   W06
 BYTE   Fs5
 BYTE   W06
 BYTE   An5
 BYTE   W04
// 017   ----------------------------------------
 BYTE   W02
 BYTE   Dn6
 BYTE   W06
 BYTE   Fs5
 BYTE   W88
// 018   ----------------------------------------
 BYTE   W14
 BYTE   Bn5
 BYTE   W06
 BYTE   En5
 BYTE   W06
 BYTE   An5
 BYTE   W06
 BYTE   Bn5
 BYTE   W06
 BYTE   En6
 BYTE   W06
 BYTE   En5
 BYTE   W06
 BYTE   Bn5
 BYTE   W06
 BYTE   En5
 BYTE   W06
 BYTE   Bn5
 BYTE   W06
 BYTE   En5
 BYTE   W06
 BYTE   Gs5
 BYTE   W06
 BYTE   Bn5
 BYTE   W06
 BYTE   En6
 BYTE   W06
 BYTE   En5
 BYTE   W04
// 019   ----------------------------------------
 BYTE   W02
 BYTE   Bn5
 BYTE   W06
 BYTE   En5
 BYTE   W06
 BYTE   En6
 BYTE   W06
 BYTE   En5
 BYTE   W06
 BYTE   Bn5
 BYTE   W06
 BYTE   En6
 BYTE   W06
 BYTE   En5
 BYTE   W06
 BYTE   En6
 BYTE   W06
 BYTE   Dn6
 BYTE   W06
 BYTE   Dn5
 BYTE   W06
 BYTE   An5
 BYTE   W06
 BYTE   Dn6
 BYTE   W06
 BYTE   Dn5
 BYTE   W06
 BYTE   En6
 BYTE   W06
 BYTE   En5
 BYTE   W06
 BYTE   Bn5
 BYTE   W04
// 020   ----------------------------------------
 BYTE   W02
 BYTE   En6
 BYTE   W06
 BYTE   En5
 BYTE   W06
 BYTE   Bn5
 BYTE   W06
 BYTE   An5
 BYTE   W06
 BYTE   En5
 BYTE   W06
 BYTE   En6
 BYTE   W06
 BYTE   En5
 BYTE   W06
 BYTE   An5
 BYTE   W06
 BYTE   Fs6
 BYTE   W06
 BYTE   Fs5
 BYTE   W06
 BYTE   Cs6
 BYTE   W06
 BYTE   Fs6
 BYTE   W06
 BYTE   Fs5
 BYTE   W06
 BYTE   Fs6
 BYTE   W06
 BYTE   En6
 BYTE   W06
 BYTE   En5
 BYTE   W04
// 021   ----------------------------------------
 BYTE   W02
 BYTE   Bn5
 BYTE   W06
 BYTE   En6
 BYTE   W06
 BYTE   En5
 BYTE   W06
 BYTE   Fs6
 BYTE   W06
 BYTE   Fs5
 BYTE   W06
 BYTE   Cs6
 BYTE   W06
 BYTE   Fs6
 BYTE   W06
 BYTE   Fs5
 BYTE   W06
 BYTE   Cs6
 BYTE   W06
 BYTE   Bn5
 BYTE   W06
 BYTE   Fs5
 BYTE   W06
 BYTE   Fs6
 BYTE   W06
 BYTE   Fs5
 BYTE   W06
 BYTE   Bn5
 BYTE   W06
 BYTE   Gs6
 BYTE   W06
 BYTE   Gs5
 BYTE   W04
// 022   ----------------------------------------
 BYTE   W02
 BYTE   Ds6
 BYTE   W06
 BYTE   Gs6
 BYTE   W06
 BYTE   Gs5
 BYTE   W06
 BYTE   Gs6
 BYTE   W06
 BYTE   Fs6
 BYTE   W06
 BYTE   Fs5
 BYTE   W06
 BYTE   Cs6
 BYTE   W06
 BYTE   Fs6
 BYTE   W06
 BYTE   Fs5
 BYTE   W06
 BYTE   Gs6
 BYTE   W06
 BYTE   Gs5
 BYTE   W06
 BYTE   Ds6
 BYTE   W06
 BYTE   Gs6
 BYTE   W06
 BYTE   Gs5
 BYTE   W06
 BYTE   Ds6
 BYTE   W06
 BYTE   Cs6
 BYTE   W04
// 023   ----------------------------------------
 BYTE   W02
 BYTE   Gs5
 BYTE   W06
 BYTE   Gs6
 BYTE   W06
 BYTE   Gs5
 BYTE   W06
 BYTE   Cs6
 BYTE   W76
// 024   ----------------------------------------
 BYTE   W96
// 025   ----------------------------------------
 BYTE   W96
// 026   ----------------------------------------
 BYTE   W96
// 027   ----------------------------------------
 BYTE   W24
 BYTE   W02
 BYTE   Gn5
 BYTE   W06
 BYTE   Dn5
 BYTE   W06
 BYTE   N11  Gn4
 BYTE   W12
 BYTE   N04  Gn5
 BYTE   W06
 BYTE   Dn5
 BYTE   W06
 BYTE   N11  Gn4
 BYTE   W12
 BYTE   N04  Fs5
 BYTE   W06
 BYTE   Fs4
 BYTE   W06
 BYTE   Gn5
 BYTE   W06
 BYTE   Dn5
 BYTE   W04
// 028   ----------------------------------------
 BYTE   W02
 BYTE   N11  Gn4
 BYTE   W12
 BYTE   N04  Gn5
 BYTE   W06
 BYTE   Dn5
 BYTE   W06
 BYTE   N11  Gn4
 BYTE   W12
 BYTE   N04  Fs5
 BYTE   W06
 BYTE   Fs4
 BYTE   W06
 BYTE   Gn5
 BYTE   W06
 BYTE   Dn5
 BYTE   W06
 BYTE   N11  Gn4
 BYTE   W12
 BYTE   N04  Gn5
 BYTE   W06
 BYTE   Dn5
 BYTE   W06
 BYTE   N11  Gn4
 BYTE   W10
// 029   ----------------------------------------
 BYTE   W02
 BYTE   N04  Fs5
 BYTE   W06
 BYTE   Fs4
 BYTE   W06
 BYTE   Gn5
 BYTE   W06
 BYTE   Dn5
 BYTE   W06
 BYTE   N11  Gn4
 BYTE   W12
 BYTE   N04  Gn5
 BYTE   W06
 BYTE   Dn5
 BYTE   W06
 BYTE   N11  Gn4
 BYTE   W12
 BYTE   N04  Fs5
 BYTE   W06
 BYTE   Fs4
 BYTE   W06
 BYTE   An5
 BYTE   W06
 BYTE   En5
 BYTE   W06
 BYTE   N11  An4
 BYTE   W10
// 030   ----------------------------------------
 BYTE   W02
 BYTE   N04  An5
 BYTE   W06
 BYTE   En5
 BYTE   W06
 BYTE   N11  An4
 BYTE   W12
 BYTE   N04  An5
 BYTE   W06
 BYTE   An4
 BYTE   W06
 BYTE   Gn5
 BYTE   W06
 BYTE   Dn5
 BYTE   W06
 BYTE   N11  Gn4
 BYTE   W12
 BYTE   N04  Gn5
 BYTE   W06
 BYTE   Dn5
 BYTE   W06
 BYTE   N11  Gn4
 BYTE   W12
 BYTE   N04  Fs5
 BYTE   W06
 BYTE   Fs4
 BYTE   W04
// 031   ----------------------------------------
 BYTE   W02
 BYTE   Gn5
 BYTE   W06
 BYTE   Dn5
 BYTE   W06
 BYTE   N11  Gn4
 BYTE   W12
 BYTE   N04  Gn5
 BYTE   W06
 BYTE   Dn5
 BYTE   W06
 BYTE   N11  Gn4
 BYTE   W12
 BYTE   N04  Fs5
 BYTE   W06
 BYTE   Fs4
 BYTE   W06
 BYTE   Gn5
 BYTE   W06
 BYTE   Dn5
 BYTE   W06
 BYTE   N11  Gn4
 BYTE   W12
 BYTE   N04  Gn5
 BYTE   W06
 BYTE   Dn5
 BYTE   W04
// 032   ----------------------------------------
 BYTE   W02
 BYTE   N11  Gn4
 BYTE   W12
 BYTE   N04  Fs5
 BYTE   W06
 BYTE   Fs4
 BYTE   W06
 BYTE   Gn5
 BYTE   W06
 BYTE   Dn5
 BYTE   W06
 BYTE   N11  Gn4
 BYTE   W12
 BYTE   N04  Gn5
 BYTE   W06
 BYTE   Dn5
 BYTE   W06
 BYTE   N11  Gn4
 BYTE   W12
 BYTE   N04  Fs5
 BYTE   W06
 BYTE   Fs4
 BYTE   W06
 BYTE   An5
 BYTE   W06
 BYTE   En5
 BYTE   W04
// 033   ----------------------------------------
 BYTE   W02
 BYTE   N11  An4
 BYTE   W12
 BYTE   N04  An5
 BYTE   W06
 BYTE   En5
 BYTE   W06
 BYTE   N11  An4
 BYTE   W12
 BYTE   N04  An5
 BYTE   W06
 BYTE   An4
 BYTE   W06
 BYTE   An5
 BYTE   W06
 BYTE   En5
 BYTE   W06
 BYTE   N11  An4
 BYTE   W12
 BYTE   N04  An5
 BYTE   W06
 BYTE   En5
 BYTE   W06
 BYTE   N11  An4
 BYTE   W10
// 034   ----------------------------------------
 BYTE   W02
 BYTE   N04  An5
 BYTE   W06
 BYTE   An4
 BYTE   W88
// 035   ----------------------------------------
 BYTE   W96
// 036   ----------------------------------------
 BYTE   W96
// 037   ----------------------------------------
 BYTE   W96
// 038   ----------------------------------------
 BYTE   W09
 BYTE   GoTo
  POIN2 Label_7_012C8B4A
// 039   ----------------------------------------
 BYTE   W02
 BYTE   FINE

//**************** Track 9 (Midi-Chn.8) ****************//

ConfidenceInTheDomination_009:
// 000   ----------------------------------------
 BYTE   KEYSH   ConfidenceInTheDomination_key+0
Label_8_012C8F0A:
 BYTE   VOICE   36
 BYTE   VOL   51*ConfidenceInTheDomination_mvl/mxv
 BYTE   PAN   c_v+0
 BYTE   BEND   c_v+0
 BYTE   W02
 BYTE   N11  En1  v127
 BYTE   W12
 BYTE   N11
 BYTE   W12
 BYTE   En2
 BYTE   W12
 BYTE   N04  Dn1
 BYTE   W06
 BYTE   N11  Dn2
 BYTE   W12
 BYTE   N04  Dn1
 BYTE   W06
 BYTE   Dn2
 BYTE   W06
 BYTE   N11  En1
 BYTE   W12
 BYTE   N11
 BYTE   W12
 BYTE   En2
 BYTE   W04
// 001   ----------------------------------------
 BYTE   W08
 BYTE   N04  An1
 BYTE   W06
 BYTE   N11  An2
 BYTE   W12
 BYTE   N04  An1
 BYTE   W06
 BYTE   An2
 BYTE   W06
 BYTE   N11  En1
 BYTE   W12
 BYTE   N11
 BYTE   W12
 BYTE   En2
 BYTE   W12
 BYTE   N04  Dn1
 BYTE   W06
 BYTE   N11  Dn2
 BYTE   W12
 BYTE   N04  Dn1
 BYTE   W04
// 002   ----------------------------------------
 BYTE   W02
 BYTE   Dn2
 BYTE   W06
 BYTE   N07
 BYTE   W12
 BYTE   N07
 BYTE   W12
 BYTE   N04
 BYTE   W06
 BYTE   Dn1
 BYTE   W06
 BYTE   N04
 BYTE   W06
 BYTE   Dn2
 BYTE   W06
 BYTE   Dn1
 BYTE   W06
 BYTE   Cn2
 BYTE   W06
 BYTE   Dn1
 BYTE   W06
 BYTE   Dn2
 BYTE   W06
 BYTE   Dn1
 BYTE   W06
 BYTE   Dn2
 BYTE   W06
 BYTE   Dn1
 BYTE   W04
// 003   ----------------------------------------
 BYTE   W02
 BYTE   An1
 BYTE   W06
 BYTE   Dn2
 BYTE   W06
 BYTE   Dn1
 BYTE   W06
 BYTE   Dn2
 BYTE   W06
 BYTE   Dn1
 BYTE   W06
 BYTE   An1
 BYTE   W06
 BYTE   En1
 BYTE   W06
 BYTE   N04
 BYTE   W06
 BYTE   En2
 BYTE   W06
 BYTE   En1
 BYTE   W06
 BYTE   Dn2
 BYTE   W06
 BYTE   En1
 BYTE   W06
 BYTE   En2
 BYTE   W06
 BYTE   En1
 BYTE   W06
 BYTE   Bn1
 BYTE   W06
 BYTE   En2
 BYTE   W04
// 004   ----------------------------------------
 BYTE   W02
 BYTE   En1
 BYTE   W06
 BYTE   En2
 BYTE   W06
 BYTE   En1
 BYTE   W06
 BYTE   Bn1
 BYTE   W06
 BYTE   En2
 BYTE   W06
 BYTE   En1
 BYTE   W06
 BYTE   N11
 BYTE   W12
 BYTE   N11
 BYTE   W12
 BYTE   En2
 BYTE   W12
 BYTE   N04  Dn1
 BYTE   W06
 BYTE   N11  Dn2
 BYTE   W12
 BYTE   N04  Dn1
 BYTE   W04
// 005   ----------------------------------------
 BYTE   W02
 BYTE   Dn2
 BYTE   W06
 BYTE   N11  En1
 BYTE   W12
 BYTE   N11
 BYTE   W12
 BYTE   En2
 BYTE   W12
 BYTE   N04  An1
 BYTE   W06
 BYTE   N11  An2
 BYTE   W12
 BYTE   N04  An1
 BYTE   W06
 BYTE   An2
 BYTE   W06
 BYTE   N11  En1
 BYTE   W12
 BYTE   N11
 BYTE   W10
// 006   ----------------------------------------
 BYTE   W02
 BYTE   En2
 BYTE   W12
 BYTE   N04  Dn1
 BYTE   W06
 BYTE   N11  Dn2
 BYTE   W12
 BYTE   N04  Dn1
 BYTE   W06
 BYTE   Dn2
 BYTE   W06
 BYTE   N07
 BYTE   W12
 BYTE   N07
 BYTE   W12
 BYTE   N04
 BYTE   W06
 BYTE   Dn1
 BYTE   W06
 BYTE   N04
 BYTE   W06
 BYTE   Dn2
 BYTE   W06
 BYTE   Dn1
 BYTE   W04
// 007   ----------------------------------------
 BYTE   W02
 BYTE   Cn2
 BYTE   W06
 BYTE   Dn1
 BYTE   W06
 BYTE   Dn2
 BYTE   W06
 BYTE   Dn1
 BYTE   W06
 BYTE   Dn2
 BYTE   W06
 BYTE   Dn1
 BYTE   W06
 BYTE   An1
 BYTE   W06
 BYTE   Dn2
 BYTE   W06
 BYTE   Dn1
 BYTE   W06
 BYTE   Dn2
 BYTE   W06
 BYTE   Dn1
 BYTE   W06
 BYTE   An1
 BYTE   W06
 BYTE   En1
 BYTE   W06
 BYTE   N04
 BYTE   W06
 BYTE   En2
 BYTE   W06
 BYTE   En1
 BYTE   W04
// 008   ----------------------------------------
 BYTE   W02
 BYTE   Bn1
 BYTE   W06
 BYTE   En2
 BYTE   W06
 BYTE   En1
 BYTE   W06
 BYTE   En2
 BYTE   W06
 BYTE   An1
 BYTE   W06
 BYTE   N04
 BYTE   W06
 BYTE   An2
 BYTE   W06
 BYTE   An1
 BYTE   W06
 BYTE   Gn2
 BYTE   W06
 BYTE   An1
 BYTE   W06
 BYTE   An2
 BYTE   W06
 BYTE   An1
 BYTE   W06
 BYTE   Dn1
 BYTE   W06
 BYTE   N04
 BYTE   W06
 BYTE   Dn2
 BYTE   W06
 BYTE   Dn1
 BYTE   W04
// 009   ----------------------------------------
Label_8_012C901B:
 BYTE   W02
 BYTE   N04  An1  v127
 BYTE   W06
 BYTE   Dn1
 BYTE   W06
 BYTE   Dn2
 BYTE   W06
 BYTE   An1
 BYTE   W06
 BYTE   En1
 BYTE   W06
 BYTE   N04
 BYTE   W06
 BYTE   En2
 BYTE   W06
 BYTE   En1
 BYTE   W06
 BYTE   Bn1
 BYTE   W06
 BYTE   En2
 BYTE   W06
 BYTE   En1
 BYTE   W06
 BYTE   En2
 BYTE   W06
 BYTE   An1
 BYTE   W06
 BYTE   N04
 BYTE   W06
 BYTE   An2
 BYTE   W06
 BYTE   An1
 BYTE   W04
 BYTE   PEND 
// 010   ----------------------------------------
Label_8_012C903F:
 BYTE   W02
 BYTE   N04  En2  v127
 BYTE   W06
 BYTE   An1
 BYTE   W06
 BYTE   An2
 BYTE   W06
 BYTE   An1
 BYTE   W06
 BYTE   Cn3
 BYTE   W06
 BYTE   Bn2
 BYTE   W06
 BYTE   An2
 BYTE   W06
 BYTE   En2
 BYTE   W06
 BYTE   Cn2
 BYTE   W06
 BYTE   Bn1
 BYTE   W06
 BYTE   An1
 BYTE   W06
 BYTE   En1
 BYTE   W06
 BYTE   Dn1
 BYTE   W06
 BYTE   N04
 BYTE   W06
 BYTE   Dn2
 BYTE   W06
 BYTE   Dn1
 BYTE   W04
 BYTE   PEND 
 BYTE   PATT
  POIN2 Label_8_012C901B
 BYTE   PATT
  POIN2 Label_8_012C903F
 BYTE   PATT
  POIN2 Label_8_012C901B
// 011   ----------------------------------------
 BYTE   W02
 BYTE   N04  Gn2  v127
 BYTE   W06
 BYTE   An1
 BYTE   W06
 BYTE   An2
 BYTE   W06
 BYTE   An1
 BYTE   W06
 BYTE   En1
 BYTE   W06
 BYTE   N04
 BYTE   W06
 BYTE   En2
 BYTE   W06
 BYTE   En1
 BYTE   W06
 BYTE   Dn2
 BYTE   W06
 BYTE   En1
 BYTE   W06
 BYTE   En2
 BYTE   W06
 BYTE   En1
 BYTE   W06
 BYTE   Dn1
 BYTE   W06
 BYTE   N04
 BYTE   W06
 BYTE   Dn2
 BYTE   W06
 BYTE   Dn1
 BYTE   W04
 BYTE   PATT
  POIN2 Label_8_012C901B
 BYTE   PATT
  POIN2 Label_8_012C903F
 BYTE   PATT
  POIN2 Label_8_012C901B
// 012   ----------------------------------------
 BYTE   W02
 BYTE   N04  Gn2  v127
 BYTE   W06
 BYTE   An1
 BYTE   W06
 BYTE   An2
 BYTE   W06
 BYTE   An1
 BYTE   W06
 BYTE   N04
 BYTE   W06
 BYTE   An2
 BYTE   W06
 BYTE   An1
 BYTE   W06
 BYTE   En2
 BYTE   W06
 BYTE   An2
 BYTE   W06
 BYTE   An1
 BYTE   W06
 BYTE   An2
 BYTE   W06
 BYTE   An1
 BYTE   W06
 BYTE   N11  En1
 BYTE   W12
 BYTE   N11
 BYTE   W10
// 013   ----------------------------------------
 BYTE   W02
 BYTE   En2
 BYTE   W12
 BYTE   N04  Dn1
 BYTE   W06
 BYTE   N11  Dn2
 BYTE   W12
 BYTE   N04  Dn1
 BYTE   W06
 BYTE   Dn2
 BYTE   W06
 BYTE   N11  En1
 BYTE   W12
 BYTE   N11
 BYTE   W12
 BYTE   En2
 BYTE   W12
 BYTE   N04  An1
 BYTE   W06
 BYTE   N11  An2
 BYTE   W10
// 014   ----------------------------------------
 BYTE   W02
 BYTE   N04  An1
 BYTE   W06
 BYTE   An2
 BYTE   W06
 BYTE   N11  En1
 BYTE   W12
 BYTE   N11
 BYTE   W12
 BYTE   En2
 BYTE   W12
 BYTE   N04  Dn1
 BYTE   W06
 BYTE   N11  Dn2
 BYTE   W12
 BYTE   N04  Dn1
 BYTE   W06
 BYTE   Dn2
 BYTE   W06
 BYTE   N07
 BYTE   W12
 BYTE   N07
 BYTE   W04
// 015   ----------------------------------------
 BYTE   W08
 BYTE   N04
 BYTE   W06
 BYTE   Dn1
 BYTE   W06
 BYTE   N04
 BYTE   W06
 BYTE   Dn2
 BYTE   W06
 BYTE   Dn1
 BYTE   W06
 BYTE   Cn2
 BYTE   W06
 BYTE   Dn1
 BYTE   W06
 BYTE   Dn2
 BYTE   W06
 BYTE   Dn1
 BYTE   W06
 BYTE   Dn2
 BYTE   W06
 BYTE   Dn1
 BYTE   W06
 BYTE   An1
 BYTE   W06
 BYTE   Dn2
 BYTE   W06
 BYTE   Dn1
 BYTE   W06
 BYTE   Dn2
 BYTE   W04
// 016   ----------------------------------------
 BYTE   W02
 BYTE   Dn1
 BYTE   W06
 BYTE   An1
 BYTE   W06
 BYTE   En1
 BYTE   W06
 BYTE   N04
 BYTE   W06
 BYTE   En2
 BYTE   W06
 BYTE   En1
 BYTE   W06
 BYTE   Dn2
 BYTE   W06
 BYTE   En1
 BYTE   W06
 BYTE   En2
 BYTE   W06
 BYTE   En1
 BYTE   W06
 BYTE   Bn1
 BYTE   W06
 BYTE   En2
 BYTE   W06
 BYTE   En1
 BYTE   W06
 BYTE   En2
 BYTE   W06
 BYTE   En1
 BYTE   W06
 BYTE   Bn1
 BYTE   W04
// 017   ----------------------------------------
 BYTE   W02
 BYTE   En2
 BYTE   W06
 BYTE   En1
 BYTE   W06
 BYTE   N11
 BYTE   W12
 BYTE   N11
 BYTE   W12
 BYTE   En2
 BYTE   W12
 BYTE   N04  Dn1
 BYTE   W06
 BYTE   N11  Dn2
 BYTE   W12
 BYTE   N04  Dn1
 BYTE   W06
 BYTE   Dn2
 BYTE   W06
 BYTE   N11  En1
 BYTE   W12
 BYTE   N11
 BYTE   W04
// 018   ----------------------------------------
 BYTE   W08
 BYTE   En2
 BYTE   W12
 BYTE   N04  An1
 BYTE   W06
 BYTE   N11  An2
 BYTE   W12
 BYTE   N04  An1
 BYTE   W06
 BYTE   An2
 BYTE   W06
 BYTE   N11  Fs1
 BYTE   W12
 BYTE   N11
 BYTE   W12
 BYTE   Fs2
 BYTE   W12
 BYTE   N04  En1
 BYTE   W06
 BYTE   N11  En2
 BYTE   W04
// 019   ----------------------------------------
 BYTE   W08
 BYTE   N04  En1
 BYTE   W06
 BYTE   En2
 BYTE   W06
 BYTE   N11  Fs1
 BYTE   W12
 BYTE   N11
 BYTE   W12
 BYTE   Fs2
 BYTE   W12
 BYTE   N04  Bn1
 BYTE   W06
 BYTE   N11  Bn2
 BYTE   W12
 BYTE   N04  Bn1
 BYTE   W06
 BYTE   Bn2
 BYTE   W06
 BYTE   N11  Gs1
 BYTE   W10
// 020   ----------------------------------------
 BYTE   W02
 BYTE   N11
 BYTE   W12
 BYTE   Gs2
 BYTE   W12
 BYTE   N04  Fs1
 BYTE   W06
 BYTE   N11  Fs2
 BYTE   W12
 BYTE   N04  Fs1
 BYTE   W06
 BYTE   Fs2
 BYTE   W06
 BYTE   N11  Gs1
 BYTE   W12
 BYTE   N11
 BYTE   W12
 BYTE   Gs2
 BYTE   W12
 BYTE   N04  Cs1
 BYTE   W04
// 021   ----------------------------------------
 BYTE   W02
 BYTE   N11  Cs2
 BYTE   W12
 BYTE   N04  Cs1
 BYTE   W06
 BYTE   Cs2
 BYTE   W06
 BYTE   An1
 BYTE   W06
 BYTE   N04
 BYTE   W06
 BYTE   An2
 BYTE   W06
 BYTE   An1
 BYTE   W06
 BYTE   Gn2
 BYTE   W06
 BYTE   An1
 BYTE   W06
 BYTE   An2
 BYTE   W06
 BYTE   An1
 BYTE   W06
 BYTE   An2
 BYTE   W06
 BYTE   En2
 BYTE   W06
 BYTE   An1
 BYTE   W06
 BYTE   Cn3
 BYTE   W04
// 022   ----------------------------------------
 BYTE   W02
 BYTE   Bn2
 BYTE   W06
 BYTE   An2
 BYTE   W06
 BYTE   En2
 BYTE   W06
 BYTE   An1
 BYTE   W06
 BYTE   Dn1
 BYTE   W06
 BYTE   N04
 BYTE   W06
 BYTE   Dn2
 BYTE   W06
 BYTE   Dn1
 BYTE   W06
 BYTE   An1
 BYTE   W06
 BYTE   Dn2
 BYTE   W06
 BYTE   Dn1
 BYTE   W06
 BYTE   Dn2
 BYTE   W06
 BYTE   Cn2
 BYTE   W06
 BYTE   Dn2
 BYTE   W06
 BYTE   Dn1
 BYTE   W06
 BYTE   Dn2
 BYTE   W04
// 023   ----------------------------------------
 BYTE   W02
 BYTE   Dn1
 BYTE   W06
 BYTE   Cn2
 BYTE   W06
 BYTE   Dn2
 BYTE   W06
 BYTE   Dn1
 BYTE   W06
 BYTE   Dn2
 BYTE   W06
 BYTE   Gs2
 BYTE   W06
 BYTE   Fn2
 BYTE   W06
 BYTE   Dn2
 BYTE   W06
 BYTE   Bn1
 BYTE   W06
 BYTE   Gs1
 BYTE   W06
 BYTE   Bn1
 BYTE   W06
 BYTE   Dn2
 BYTE   W06
 BYTE   Bn2
 BYTE   W06
 BYTE   Gs2
 BYTE   W06
 BYTE   Fn2
 BYTE   W06
 BYTE   Dn2
 BYTE   W04
// 024   ----------------------------------------
 BYTE   W02
 BYTE   Bn1
 BYTE   W06
 BYTE   Gs1
 BYTE   W06
 BYTE   Fn1
 BYTE   W06
 BYTE   Dn1
 BYTE   W06
 BYTE   Cn2
 BYTE   W06
 BYTE   An2
 BYTE   W06
 BYTE   Fs2
 BYTE   W06
 BYTE   Ds2
 BYTE   W06
 BYTE   Cn2
 BYTE   W06
 BYTE   Fs2
 BYTE   W06
 BYTE   Ds2
 BYTE   W06
 BYTE   Cn2
 BYTE   W06
 BYTE   Fs2
 BYTE   W06
 BYTE   Cn2
 BYTE   W06
 BYTE   Ds2
 BYTE   W06
 BYTE   An1
 BYTE   W04
// 025   ----------------------------------------
 BYTE   W02
 BYTE   Cn2
 BYTE   W06
 BYTE   Fs1
 BYTE   W06
 BYTE   An1
 BYTE   W06
 BYTE   Ds1
 BYTE   W76
// 026   ----------------------------------------
 BYTE   W96
// 027   ----------------------------------------
 BYTE   W96
// 028   ----------------------------------------
 BYTE   W96
// 029   ----------------------------------------
 BYTE   W96
// 030   ----------------------------------------
 BYTE   W96
// 031   ----------------------------------------
 BYTE   W96
// 032   ----------------------------------------
 BYTE   W14
 BYTE   An1
 BYTE   W06
 BYTE   N04
 BYTE   W06
 BYTE   An2
 BYTE   W06
 BYTE   An1
 BYTE   W06
 BYTE   Gn2
 BYTE   W06
 BYTE   An1
 BYTE   W06
 BYTE   An2
 BYTE   W06
 BYTE   An1
 BYTE   W06
 BYTE   An2
 BYTE   W06
 BYTE   En2
 BYTE   W06
 BYTE   An1
 BYTE   W06
 BYTE   Cn3
 BYTE   W06
 BYTE   Bn2
 BYTE   W06
 BYTE   An2
 BYTE   W04
// 033   ----------------------------------------
 BYTE   W02
 BYTE   En2
 BYTE   W06
 BYTE   An1
 BYTE   W06
 BYTE   Dn1
 BYTE   W06
 BYTE   N04
 BYTE   W06
 BYTE   Dn2
 BYTE   W06
 BYTE   Dn1
 BYTE   W06
 BYTE   An1
 BYTE   W06
 BYTE   Dn2
 BYTE   W06
 BYTE   Dn1
 BYTE   W06
 BYTE   Dn2
 BYTE   W06
 BYTE   Cn2
 BYTE   W06
 BYTE   Dn2
 BYTE   W06
 BYTE   Dn1
 BYTE   W06
 BYTE   Dn2
 BYTE   W06
 BYTE   Dn1
 BYTE   W06
 BYTE   Cn2
 BYTE   W04
// 034   ----------------------------------------
 BYTE   W02
 BYTE   Dn2
 BYTE   W06
 BYTE   Dn1
 BYTE   W06
 BYTE   Dn2
 BYTE   W06
 BYTE   Gs2
 BYTE   W06
 BYTE   Fn2
 BYTE   W06
 BYTE   Dn2
 BYTE   W06
 BYTE   Bn1
 BYTE   W06
 BYTE   Gs1
 BYTE   W06
 BYTE   Bn1
 BYTE   W06
 BYTE   Dn2
 BYTE   W06
 BYTE   Bn2
 BYTE   W06
 BYTE   Gs2
 BYTE   W06
 BYTE   Fn2
 BYTE   W06
 BYTE   Dn2
 BYTE   W06
 BYTE   Bn1
 BYTE   W06
 BYTE   Gs1
 BYTE   W04
// 035   ----------------------------------------
 BYTE   W02
 BYTE   Fn1
 BYTE   W06
 BYTE   Dn1
 BYTE   W06
 BYTE   Cn2
 BYTE   W06
 BYTE   An2
 BYTE   W06
 BYTE   Fs2
 BYTE   W06
 BYTE   Ds2
 BYTE   W06
 BYTE   Cn2
 BYTE   W06
 BYTE   Fs2
 BYTE   W06
 BYTE   Ds2
 BYTE   W06
 BYTE   Cn2
 BYTE   W06
 BYTE   Fs2
 BYTE   W06
 BYTE   Cn2
 BYTE   W06
 BYTE   Ds2
 BYTE   W06
 BYTE   An1
 BYTE   W06
 BYTE   Cn2
 BYTE   W06
 BYTE   Fs1
 BYTE   W04
// 036   ----------------------------------------
 BYTE   W02
 BYTE   An1
 BYTE   W06
 BYTE   N03  Ds1
 BYTE   W01
 BYTE   GoTo
  POIN2 Label_8_012C8F0A
// 037   ----------------------------------------
 BYTE   W02
 BYTE   FINE

//**************** Track 10 (Midi-Chn.9) ****************//

ConfidenceInTheDomination_010:
// 000   ----------------------------------------
 BYTE   KEYSH   ConfidenceInTheDomination_key+0
Label_9_012C92CA:
 BYTE   VOICE   127
 BYTE   VOL   55*ConfidenceInTheDomination_mvl/mxv
 BYTE   PAN   c_v+0
 BYTE   BEND   c_v+0
 BYTE   W01
 BYTE   N64  Cs2  v127
 BYTE   W01
 BYTE   N11  Cn1
 BYTE   W12
 BYTE   N04
 BYTE   N04  Fn2  v084
 BYTE   W06
 BYTE   Cn1  v127
 BYTE   N11  Fn2  v100
 BYTE   W06
 BYTE   N22  Dn1  v108
 BYTE   W06
 BYTE   N04  Fn2  v084
 BYTE   W06
 BYTE   N11  Cn1  v127
 BYTE   N11  Fn2  v100
 BYTE   W12
 BYTE   N04  Cn1  v127
 BYTE   N11  Fn2  v100
 BYTE   W06
 BYTE   N22  Dn1  v108
 BYTE   W06
 BYTE   N04  Fn2  v084
 BYTE   W06
 BYTE   N11  Cn1  v127
 BYTE   N11  Fn2  v100
 BYTE   W12
 BYTE   N04  Cn1  v127
 BYTE   N04  Fn2  v084
 BYTE   W06
 BYTE   Cn1  v127
 BYTE   N11  Fn2  v100
 BYTE   W06
 BYTE   N22  Dn1  v108
 BYTE   W04
// 001   ----------------------------------------
 BYTE   W02
 BYTE   N04  Fn2  v084
 BYTE   W06
 BYTE   N11  Cn1  v127
 BYTE   N11  Fn2  v100
 BYTE   W12
 BYTE   N04  Cn1  v127
 BYTE   N11  Fn2  v100
 BYTE   W06
 BYTE   N04  Dn1  v108
 BYTE   W06
 BYTE   N04
 BYTE   N04  Fn2  v084
 BYTE   W05
 BYTE   N92  Cs2  v127
 BYTE   W01
 BYTE   N11  Cn1
 BYTE   W12
 BYTE   N04
 BYTE   N04  Fn2  v084
 BYTE   W06
 BYTE   Cn1  v127
 BYTE   N11  Fn2  v100
 BYTE   W06
 BYTE   N22  Dn1  v108
 BYTE   W06
 BYTE   N04  Fn2  v084
 BYTE   W06
 BYTE   N11  Cn1  v127
 BYTE   N11  Fn2  v100
 BYTE   W12
 BYTE   Cn1  v127
 BYTE   N11  Fn2  v100
 BYTE   W10
// 002   ----------------------------------------
 BYTE   W02
 BYTE   N04  Dn1  v108
 BYTE   N04  Fn2  v084
 BYTE   W06
 BYTE   N11  Dn1  v108
 BYTE   N11  Fn2  v100
 BYTE   W12
 BYTE   Dn1  v108
 BYTE   N11  Fn2  v084
 BYTE   W12
 BYTE   N04  Dn1  v108
 BYTE   N04  Fn2  v084
 BYTE   W05
 BYTE   N92  Cs2  v127
 BYTE   W01
 BYTE   N11  Cn1
 BYTE   W12
 BYTE   N22  Dn1  v108
 BYTE   N11  Fn2  v084
 BYTE   W12
 BYTE   N04  Cn1  v127
 BYTE   N11  Fn2  v100
 BYTE   W06
 BYTE   N04  Cn1  v127
 BYTE   W06
 BYTE   N22  Dn1  v108
 BYTE   N11  Fn2  v084
 BYTE   W12
 BYTE   N04  Cn1  v127
 BYTE   N11  Fn2  v100
 BYTE   W06
 BYTE   N04  Cn1  v127
 BYTE   W04
// 003   ----------------------------------------
 BYTE   W02
 BYTE   N22  Dn1  v108
 BYTE   N11  Fn2  v084
 BYTE   W06
 BYTE   Cn1  v127
 BYTE   W06
 BYTE   Fn2  v100
 BYTE   W06
 BYTE   N04  Cn1  v127
 BYTE   W06
 BYTE   N22  Dn1  v108
 BYTE   N11  Fn2  v084
 BYTE   W12
 BYTE   Cn1  v127
 BYTE   N11  Fn2  v100
 BYTE   W12
 BYTE   N22  Dn1  v108
 BYTE   N11  Fn2  v084
 BYTE   W12
 BYTE   N04  Cn1  v127
 BYTE   N11  Fn2  v100
 BYTE   W06
 BYTE   N04  Cn1  v127
 BYTE   W06
 BYTE   N22  Dn1  v108
 BYTE   N11  Fn2  v084
 BYTE   W12
 BYTE   N04  Cn1  v127
 BYTE   N11  Fn2  v100
 BYTE   W06
 BYTE   N04  Cn1  v127
 BYTE   W04
// 004   ----------------------------------------
 BYTE   W02
 BYTE   N11  Dn1  v108
 BYTE   N11  Fn2  v084
 BYTE   W06
 BYTE   Cn1  v127
 BYTE   W06
 BYTE   N04  Dn1  v108
 BYTE   N11  Fn2  v100
 BYTE   W06
 BYTE   N04  Dn1  v108
 BYTE   W06
 BYTE   N04
 BYTE   N11  Fn2  v084
 BYTE   W06
 BYTE   N04  Dn1  v108
 BYTE   W05
 BYTE   N64  Cs2  v127
 BYTE   W01
 BYTE   N11  Cn1
 BYTE   W12
 BYTE   N04
 BYTE   N04  Fn2  v084
 BYTE   W06
 BYTE   Cn1  v127
 BYTE   N11  Fn2  v100
 BYTE   W06
 BYTE   N22  Dn1  v108
 BYTE   W06
 BYTE   N04  Fn2  v084
 BYTE   W06
 BYTE   N11  Cn1  v127
 BYTE   N11  Fn2  v100
 BYTE   W12
 BYTE   N04  Cn1  v127
 BYTE   N11  Fn2  v100
 BYTE   W06
 BYTE   N22  Dn1  v108
 BYTE   W04
// 005   ----------------------------------------
 BYTE   W02
 BYTE   N04  Fn2  v084
 BYTE   W06
 BYTE   N11  Cn1  v127
 BYTE   N11  Fn2  v100
 BYTE   W12
 BYTE   N04  Cn1  v127
 BYTE   N04  Fn2  v084
 BYTE   W06
 BYTE   Cn1  v127
 BYTE   N11  Fn2  v100
 BYTE   W06
 BYTE   N22  Dn1  v108
 BYTE   W06
 BYTE   N04  Fn2  v084
 BYTE   W06
 BYTE   N11  Cn1  v127
 BYTE   N11  Fn2  v100
 BYTE   W12
 BYTE   N04  Cn1  v127
 BYTE   N11  Fn2  v100
 BYTE   W06
 BYTE   N04  Dn1  v108
 BYTE   W06
 BYTE   N04
 BYTE   N04  Fn2  v084
 BYTE   W05
 BYTE   N92  Cs2  v127
 BYTE   W01
 BYTE   N11  Cn1
 BYTE   W12
 BYTE   N04
 BYTE   N04  Fn2  v084
 BYTE   W06
 BYTE   Cn1  v127
 BYTE   N11  Fn2  v100
 BYTE   W04
// 006   ----------------------------------------
 BYTE   W02
 BYTE   N22  Dn1  v108
 BYTE   W06
 BYTE   N04  Fn2  v084
 BYTE   W06
 BYTE   N11  Cn1  v127
 BYTE   N11  Fn2  v100
 BYTE   W12
 BYTE   Cn1  v127
 BYTE   N11  Fn2  v100
 BYTE   W12
 BYTE   N04  Dn1  v108
 BYTE   N04  Fn2  v084
 BYTE   W06
 BYTE   N11  Dn1  v108
 BYTE   N11  Fn2  v100
 BYTE   W12
 BYTE   Dn1  v108
 BYTE   N11  Fn2  v084
 BYTE   W12
 BYTE   N04  Dn1  v108
 BYTE   N04  Fn2  v084
 BYTE   W05
 BYTE   N92  Cs2  v127
 BYTE   W01
 BYTE   N11  Cn1
 BYTE   W12
 BYTE   N22  Dn1  v108
 BYTE   N11  Fn2  v084
 BYTE   W10
// 007   ----------------------------------------
 BYTE   W02
 BYTE   N04  Cn1  v127
 BYTE   N11  Fn2  v100
 BYTE   W06
 BYTE   N04  Cn1  v127
 BYTE   W06
 BYTE   N22  Dn1  v108
 BYTE   N11  Fn2  v084
 BYTE   W12
 BYTE   N04  Cn1  v127
 BYTE   N11  Fn2  v100
 BYTE   W06
 BYTE   N04  Cn1  v127
 BYTE   W06
 BYTE   N22  Dn1  v108
 BYTE   N11  Fn2  v084
 BYTE   W06
 BYTE   Cn1  v127
 BYTE   W06
 BYTE   Fn2  v100
 BYTE   W06
 BYTE   N04  Cn1  v127
 BYTE   W06
 BYTE   N22  Dn1  v108
 BYTE   N11  Fn2  v084
 BYTE   W11
 BYTE   N44  Cs2  v127
 BYTE   W01
 BYTE   N11  Cn1
 BYTE   N11  Fn2  v100
 BYTE   W12
 BYTE   N22  Dn1  v108
 BYTE   N11  Fn2  v084
 BYTE   W10
// 008   ----------------------------------------
 BYTE   W02
 BYTE   N04  Cn1  v127
 BYTE   N11  Fn2  v100
 BYTE   W06
 BYTE   N04  Cn1  v127
 BYTE   W06
 BYTE   N22  Dn1  v108
 BYTE   N11  Fn2  v084
 BYTE   W11
 BYTE   N44  Cs2  v127
 BYTE   W01
 BYTE   N04  Cn1
 BYTE   N11  Fn2  v100
 BYTE   W06
 BYTE   N04  Cn1  v127
 BYTE   W06
 BYTE   N11  Dn1  v108
 BYTE   N11  Fn2  v084
 BYTE   W06
 BYTE   Cn1  v127
 BYTE   W06
 BYTE   N04  Dn1  v108
 BYTE   N11  Fn2  v100
 BYTE   W06
 BYTE   N04  Dn1  v108
 BYTE   W06
 BYTE   N04
 BYTE   N11  Fn2  v084
 BYTE   W06
 BYTE   N04  Dn1  v108
 BYTE   W05
 BYTE   N92  Cs2  v127
 BYTE   W01
 BYTE   N11  Cn1
 BYTE   W12
 BYTE   N22  Dn1  v108
 BYTE   N11  Fn2  v084
 BYTE   W10
// 009   ----------------------------------------
Label_9_012C9550:
 BYTE   W02
 BYTE   N04  Cn1  v127
 BYTE   N11  Fn2  v100
 BYTE   W06
 BYTE   N04  Cn1  v127
 BYTE   W06
 BYTE   N22  Dn1  v108
 BYTE   N11  Fn2  v084
 BYTE   W12
 BYTE   N04  Cn1  v127
 BYTE   N11  Fn2  v100
 BYTE   W06
 BYTE   N04  Cn1  v127
 BYTE   W06
 BYTE   N22  Dn1  v108
 BYTE   N11  Fn2  v084
 BYTE   W06
 BYTE   Cn1  v127
 BYTE   W06
 BYTE   Fn2  v100
 BYTE   W06
 BYTE   N04  Cn1  v127
 BYTE   W06
 BYTE   N22  Dn1  v108
 BYTE   N11  Fn2  v084
 BYTE   W12
 BYTE   Cn1  v127
 BYTE   N11  Fn2  v100
 BYTE   W12
 BYTE   N22  Dn1  v108
 BYTE   N11  Fn2  v084
 BYTE   W10
 BYTE   PEND 
 BYTE   PATT
  POIN2 Label_9_012C9550
 BYTE   PATT
  POIN2 Label_9_012C9550
// 010   ----------------------------------------
Label_9_012C959E:
 BYTE   W02
 BYTE   N04  Cn1  v127
 BYTE   N11  Fn2  v100
 BYTE   W06
 BYTE   N04  Cn1  v127
 BYTE   W06
 BYTE   N22  Dn1  v108
 BYTE   N11  Fn2  v084
 BYTE   W12
 BYTE   N04  Cn1  v127
 BYTE   N11  Fn2  v100
 BYTE   W06
 BYTE   N04  Cn1  v127
 BYTE   W06
 BYTE   N22  Dn1  v108
 BYTE   N11  Fn2  v084
 BYTE   W06
 BYTE   Cn1  v127
 BYTE   W06
 BYTE   Fn2  v100
 BYTE   W06
 BYTE   N04  Cn1  v127
 BYTE   W06
 BYTE   Dn1  v108
 BYTE   N11  Fn2  v084
 BYTE   W06
 BYTE   N04  Dn1  v108
 BYTE   W05
 BYTE   N92  Cs2  v127
 BYTE   W01
 BYTE   N11  Cn1
 BYTE   W12
 BYTE   N22  Dn1  v108
 BYTE   N11  Fn2  v084
 BYTE   W10
 BYTE   PEND 
 BYTE   PATT
  POIN2 Label_9_012C9550
// 011   ----------------------------------------
 BYTE   W02
 BYTE   N04  Cn1  v127
 BYTE   N11  Fn2  v100
 BYTE   W06
 BYTE   N04  Cn1  v127
 BYTE   W06
 BYTE   N22  Dn1  v108
 BYTE   N11  Fn2  v084
 BYTE   W12
 BYTE   N04  Cn1  v127
 BYTE   N11  Fn2  v100
 BYTE   W06
 BYTE   N04  Cn1  v127
 BYTE   W06
 BYTE   N22  Dn1  v108
 BYTE   N11  Fn2  v084
 BYTE   W06
 BYTE   Cn1  v127
 BYTE   W06
 BYTE   Fn2  v100
 BYTE   W06
 BYTE   N04  Cn1  v127
 BYTE   W06
 BYTE   N22  Dn1  v108
 BYTE   N11  Fn2  v084
 BYTE   W11
 BYTE   N92  Cs2  v127
 BYTE   W01
 BYTE   N11  Cn1
 BYTE   W12
 BYTE   N22  Dn1  v108
 BYTE   N11  Fn2  v084
 BYTE   W10
 BYTE   PATT
  POIN2 Label_9_012C9550
 BYTE   PATT
  POIN2 Label_9_012C959E
// 012   ----------------------------------------
 BYTE   W02
 BYTE   N04  Cn1  v127
 BYTE   N11  Fn2  v100
 BYTE   W06
 BYTE   N04  Cn1  v127
 BYTE   W06
 BYTE   N22  Dn1  v108
 BYTE   N11  Fn2  v084
 BYTE   W12
 BYTE   N04  Cn1  v127
 BYTE   N11  Fn2  v100
 BYTE   W06
 BYTE   N04  Cn1  v127
 BYTE   W06
 BYTE   N22  Dn1  v108
 BYTE   N11  Fn2  v084
 BYTE   W06
 BYTE   Cn1  v127
 BYTE   W06
 BYTE   Fn2  v100
 BYTE   W06
 BYTE   N04  Cn1  v127
 BYTE   W06
 BYTE   N22  Dn1  v108
 BYTE   N11  Fn2  v084
 BYTE   W11
 BYTE   N44  Cs2  v127
 BYTE   W01
 BYTE   N11  Cn1
 BYTE   W12
 BYTE   N22  Dn1  v108
 BYTE   N11  Fn2  v084
 BYTE   W10
// 013   ----------------------------------------
 BYTE   W02
 BYTE   N04  Cn1  v127
 BYTE   N11  Fn2  v100
 BYTE   W06
 BYTE   N04  Cn1  v127
 BYTE   W06
 BYTE   N22  Dn1  v108
 BYTE   N11  Fn2  v084
 BYTE   W11
 BYTE   N44  Cs2  v127
 BYTE   W01
 BYTE   N04  Cn1
 BYTE   W06
 BYTE   N04
 BYTE   W06
 BYTE   N11  Dn1  v108
 BYTE   N11  Fn2  v084
 BYTE   W06
 BYTE   Cn1  v127
 BYTE   W06
 BYTE   N04  Dn1  v108
 BYTE   N11  Fn2  v100
 BYTE   W06
 BYTE   N04  Dn1  v108
 BYTE   W06
 BYTE   N04
 BYTE   N11  Fn2  v084
 BYTE   W06
 BYTE   N04  Dn1  v108
 BYTE   W05
 BYTE   N64  Cs2  v127
 BYTE   W01
 BYTE   N11  Cn1
 BYTE   W12
 BYTE   N04
 BYTE   N04  Fn2  v084
 BYTE   W06
 BYTE   Cn1  v127
 BYTE   N11  Fn2  v100
 BYTE   W04
// 014   ----------------------------------------
 BYTE   W02
 BYTE   N22  Dn1  v108
 BYTE   W06
 BYTE   N04  Fn2  v084
 BYTE   W06
 BYTE   N11  Cn1  v127
 BYTE   N11  Fn2  v100
 BYTE   W12
 BYTE   N04  Cn1  v127
 BYTE   N11  Fn2  v100
 BYTE   W06
 BYTE   N22  Dn1  v108
 BYTE   W06
 BYTE   N04  Fn2  v084
 BYTE   W06
 BYTE   N11  Cn1  v127
 BYTE   N11  Fn2  v100
 BYTE   W12
 BYTE   N04  Cn1  v127
 BYTE   N04  Fn2  v084
 BYTE   W06
 BYTE   Cn1  v127
 BYTE   N11  Fn2  v100
 BYTE   W06
 BYTE   N22  Dn1  v108
 BYTE   W06
 BYTE   N04  Fn2  v084
 BYTE   W06
 BYTE   N11  Cn1  v127
 BYTE   N11  Fn2  v100
 BYTE   W12
 BYTE   N04  Cn1  v127
 BYTE   N11  Fn2  v100
 BYTE   W04
// 015   ----------------------------------------
 BYTE   W02
 BYTE   N04  Dn1  v108
 BYTE   W06
 BYTE   N04
 BYTE   N04  Fn2  v084
 BYTE   W05
 BYTE   N92  Cs2  v127
 BYTE   W01
 BYTE   N11  Cn1
 BYTE   W12
 BYTE   N04
 BYTE   N04  Fn2  v084
 BYTE   W06
 BYTE   Cn1  v127
 BYTE   N11  Fn2  v100
 BYTE   W06
 BYTE   N22  Dn1  v108
 BYTE   W06
 BYTE   N04  Fn2  v084
 BYTE   W06
 BYTE   N11  Cn1  v127
 BYTE   N11  Fn2  v100
 BYTE   W12
 BYTE   Cn1  v127
 BYTE   N11  Fn2  v100
 BYTE   W12
 BYTE   N04  Dn1  v108
 BYTE   N04  Fn2  v084
 BYTE   W06
 BYTE   N11  Dn1  v108
 BYTE   N11  Fn2  v100
 BYTE   W12
 BYTE   Dn1  v108
 BYTE   N11  Fn2  v084
 BYTE   W04
// 016   ----------------------------------------
 BYTE   W08
 BYTE   N04  Dn1  v108
 BYTE   N04  Fn2  v084
 BYTE   W05
 BYTE   N92  Cs2  v127
 BYTE   W01
 BYTE   N11  Cn1
 BYTE   W12
 BYTE   N22  Dn1  v108
 BYTE   N11  Fn2  v084
 BYTE   W12
 BYTE   N04  Cn1  v127
 BYTE   N11  Fn2  v100
 BYTE   W06
 BYTE   N04  Cn1  v127
 BYTE   W06
 BYTE   N22  Dn1  v108
 BYTE   N11  Fn2  v084
 BYTE   W12
 BYTE   N04  Cn1  v127
 BYTE   N11  Fn2  v100
 BYTE   W06
 BYTE   N04  Cn1  v127
 BYTE   W06
 BYTE   N22  Dn1  v108
 BYTE   N11  Fn2  v084
 BYTE   W06
 BYTE   Cn1  v127
 BYTE   W06
 BYTE   Fn2  v100
 BYTE   W06
 BYTE   N04  Cn1  v127
 BYTE   W04
// 017   ----------------------------------------
 BYTE   W02
 BYTE   N22  Dn1  v108
 BYTE   N11  Fn2  v084
 BYTE   W12
 BYTE   Cn1  v127
 BYTE   N11  Fn2  v100
 BYTE   W12
 BYTE   N22  Dn1  v108
 BYTE   N11  Fn2  v084
 BYTE   W12
 BYTE   N04  Cn1  v127
 BYTE   N11  Fn2  v100
 BYTE   W06
 BYTE   N04  Cn1  v127
 BYTE   W06
 BYTE   N22  Dn1  v108
 BYTE   N11  Fn2  v084
 BYTE   W12
 BYTE   N04  Cn1  v127
 BYTE   N11  Fn2  v100
 BYTE   W06
 BYTE   N04  Cn1  v127
 BYTE   W06
 BYTE   N11  Dn1  v108
 BYTE   N11  Fn2  v084
 BYTE   W06
 BYTE   Cn1  v127
 BYTE   W06
 BYTE   N04  Dn1  v108
 BYTE   N11  Fn2  v100
 BYTE   W06
 BYTE   N04  Dn1  v108
 BYTE   W04
// 018   ----------------------------------------
 BYTE   W02
 BYTE   N04
 BYTE   N11  Fn2  v084
 BYTE   W06
 BYTE   N04  Dn1  v108
 BYTE   W05
 BYTE   N64  Cs2  v127
 BYTE   W01
 BYTE   N11  Cn1
 BYTE   W12
 BYTE   N04
 BYTE   N04  Fn2  v084
 BYTE   W06
 BYTE   Cn1  v127
 BYTE   N11  Fn2  v100
 BYTE   W06
 BYTE   N22  Dn1  v108
 BYTE   W06
 BYTE   N04  Fn2  v084
 BYTE   W06
 BYTE   N11  Cn1  v127
 BYTE   N11  Fn2  v100
 BYTE   W12
 BYTE   N04  Cn1  v127
 BYTE   N11  Fn2  v100
 BYTE   W06
 BYTE   N22  Dn1  v108
 BYTE   W06
 BYTE   N04  Fn2  v084
 BYTE   W06
 BYTE   N11  Cn1  v127
 BYTE   N11  Fn2  v100
 BYTE   W12
 BYTE   N04  Cn1  v127
 BYTE   N04  Fn2  v084
 BYTE   W04
// 019   ----------------------------------------
 BYTE   W02
 BYTE   Cn1  v127
 BYTE   N11  Fn2  v100
 BYTE   W06
 BYTE   N22  Dn1  v108
 BYTE   W06
 BYTE   N04  Fn2  v084
 BYTE   W06
 BYTE   N11  Cn1  v127
 BYTE   N11  Fn2  v100
 BYTE   W12
 BYTE   N04  Cn1  v127
 BYTE   N11  Fn2  v100
 BYTE   W06
 BYTE   N04  Dn1  v108
 BYTE   W06
 BYTE   N04
 BYTE   N04  Fn2  v084
 BYTE   W06
 BYTE   N11  Cn1  v127
 BYTE   N11  Fn2  v100
 BYTE   W12
 BYTE   N04  Cn1  v127
 BYTE   N04  Fn2  v084
 BYTE   W06
 BYTE   Cn1  v127
 BYTE   N11  Fn2  v100
 BYTE   W06
 BYTE   N22  Dn1  v108
 BYTE   W06
 BYTE   N04  Fn2  v084
 BYTE   W06
 BYTE   N11  Cn1  v127
 BYTE   N11  Fn2  v100
 BYTE   W10
// 020   ----------------------------------------
 BYTE   W02
 BYTE   N04  Cn1  v127
 BYTE   N11  Fn2  v100
 BYTE   W06
 BYTE   N22  Dn1  v108
 BYTE   W06
 BYTE   N04  Fn2  v084
 BYTE   W06
 BYTE   N11  Cn1  v127
 BYTE   N11  Fn2  v100
 BYTE   W12
 BYTE   N04  Cn1  v127
 BYTE   N04  Fn2  v084
 BYTE   W06
 BYTE   Cn1  v127
 BYTE   N11  Fn2  v100
 BYTE   W06
 BYTE   N22  Dn1  v108
 BYTE   W06
 BYTE   N04  Fn2  v084
 BYTE   W06
 BYTE   N11  Cn1  v127
 BYTE   N11  Fn2  v100
 BYTE   W12
 BYTE   N04  Cn1  v127
 BYTE   N11  Fn2  v100
 BYTE   W06
 BYTE   N04  Dn1  v108
 BYTE   W06
 BYTE   N04
 BYTE   N04  Fn2  v084
 BYTE   W05
 BYTE   N64  Cs2  v127
 BYTE   W01
 BYTE   N11  Cn1
 BYTE   W10
// 021   ----------------------------------------
 BYTE   W02
 BYTE   N04
 BYTE   N04  Fn2  v084
 BYTE   W06
 BYTE   Cn1  v127
 BYTE   N11  Fn2  v100
 BYTE   W06
 BYTE   N22  Dn1  v108
 BYTE   W06
 BYTE   N04  Fn2  v084
 BYTE   W06
 BYTE   N11  Cn1  v127
 BYTE   N11  Fn2  v100
 BYTE   W12
 BYTE   N04  Cn1  v127
 BYTE   N11  Fn2  v100
 BYTE   W06
 BYTE   N22  Dn1  v108
 BYTE   W06
 BYTE   N04  Fn2  v084
 BYTE   W06
 BYTE   N11  Cn1  v127
 BYTE   N11  Fn2  v100
 BYTE   W12
 BYTE   N04  Cn1  v127
 BYTE   N04  Fn2  v084
 BYTE   W06
 BYTE   Cn1  v127
 BYTE   N11  Fn2  v100
 BYTE   W06
 BYTE   N22  Dn1  v108
 BYTE   W06
 BYTE   N04  Fn2  v084
 BYTE   W06
 BYTE   N11  Cn1  v127
 BYTE   N11  Fn2  v100
 BYTE   W04
// 022   ----------------------------------------
 BYTE   W08
 BYTE   N04  Cn1  v127
 BYTE   N11  Fn2  v100
 BYTE   W06
 BYTE   N04  Dn1  v108
 BYTE   W06
 BYTE   N04
 BYTE   N04  Fn2  v084
 BYTE   W05
 BYTE   N92  Cs2  v127
 BYTE   W01
 BYTE   N11  Cn1
 BYTE   W12
 BYTE   N22  Dn1  v108
 BYTE   N11  Fn2  v084
 BYTE   W12
 BYTE   N04  Cn1  v127
 BYTE   N11  Fn2  v100
 BYTE   W06
 BYTE   N04  Cn1  v127
 BYTE   W06
 BYTE   N22  Dn1  v108
 BYTE   N11  Fn2  v084
 BYTE   W12
 BYTE   N04  Cn1  v127
 BYTE   N11  Fn2  v100
 BYTE   W06
 BYTE   N04  Cn1  v127
 BYTE   W06
 BYTE   N22  Dn1  v108
 BYTE   N11  Fn2  v084
 BYTE   W06
 BYTE   Cn1  v127
 BYTE   W04
// 023   ----------------------------------------
Label_9_012C9950:
 BYTE   W02
 BYTE   N11  Fn2  v100
 BYTE   W06
 BYTE   N04  Cn1  v127
 BYTE   W06
 BYTE   N22  Dn1  v108
 BYTE   N11  Fn2  v084
 BYTE   W12
 BYTE   Cn1  v127
 BYTE   N11  Fn2  v100
 BYTE   W12
 BYTE   N22  Dn1  v108
 BYTE   N11  Fn2  v084
 BYTE   W12
 BYTE   N04  Cn1  v127
 BYTE   N11  Fn2  v100
 BYTE   W06
 BYTE   N04  Cn1  v127
 BYTE   W06
 BYTE   N22  Dn1  v108
 BYTE   N11  Fn2  v084
 BYTE   W12
 BYTE   N04  Cn1  v127
 BYTE   N11  Fn2  v100
 BYTE   W06
 BYTE   N04  Cn1  v127
 BYTE   W06
 BYTE   N22  Dn1  v108
 BYTE   N11  Fn2  v084
 BYTE   W06
 BYTE   Cn1  v127
 BYTE   W04
 BYTE   PEND 
 BYTE   PATT
  POIN2 Label_9_012C9950
// 024   ----------------------------------------
 BYTE   W02
 BYTE   N11  Fn2  v100
 BYTE   W06
 BYTE   N04  Cn1  v127
 BYTE   W06
 BYTE   N22  Dn1  v108
 BYTE   N11  Fn2  v084
 BYTE   W11
 BYTE   N44  Cs2  v127
 BYTE   W01
 BYTE   N11  Cn1
 BYTE   W12
 BYTE   N22  Dn1  v108
 BYTE   N11  Fn2  v084
 BYTE   W12
 BYTE   N04  Cn1  v127
 BYTE   N11  Fn2  v100
 BYTE   W06
 BYTE   N04  Cn1  v127
 BYTE   W06
 BYTE   N22  Dn1  v108
 BYTE   N11  Fn2  v084
 BYTE   W11
 BYTE   N24  An2  v127
 BYTE   W01
 BYTE   N04  Cn1
 BYTE   W06
 BYTE   N04
 BYTE   W06
 BYTE   N11  Dn1  v108
 BYTE   N11  Fn2  v084
 BYTE   W06
 BYTE   Cn1  v127
 BYTE   W04
// 025   ----------------------------------------
 BYTE   W01
 BYTE   N22  An2
 BYTE   W01
 BYTE   N04  Dn1  v108
 BYTE   W06
 BYTE   N04
 BYTE   W06
 BYTE   N04
 BYTE   N11  Fn2  v084
 BYTE   W06
 BYTE   N04  Dn1  v108
 BYTE   W05
 BYTE   N56  Cs2  v127
 BYTE   W01
 BYTE   N05  Cn1
 BYTE   W06
 BYTE   N05
 BYTE   W06
 BYTE   N05
 BYTE   N11  Fn2  v100
 BYTE   W06
 BYTE   N05  Cn1  v127
 BYTE   W06
 BYTE   N05
 BYTE   N11  Fn2  v100
 BYTE   W06
 BYTE   N05  Cn1  v127
 BYTE   W06
 BYTE   N05
 BYTE   N11  Fn2  v100
 BYTE   W06
 BYTE   N05  Cn1  v127
 BYTE   W06
 BYTE   N22  Dn1  v108
 BYTE   N11  Fn2  v100
 BYTE   W12
 BYTE   N05  Cn1  v127
 BYTE   N11  Fn2  v100
 BYTE   W06
 BYTE   N05  Cn1  v127
 BYTE   W04
// 026   ----------------------------------------
 BYTE   W02
 BYTE   N05
 BYTE   N11  Fn2  v100
 BYTE   W06
 BYTE   N05  Cn1  v127
 BYTE   W06
 BYTE   N22  Dn1  v108
 BYTE   N11  Fn2  v100
 BYTE   W06
 BYTE   N05  Cn1  v127
 BYTE   W06
 BYTE   N05
 BYTE   N11  Fn2  v100
 BYTE   W06
 BYTE   N05  Cn1  v127
 BYTE   W06
 BYTE   N22  Dn1  v108
 BYTE   N11  Fn2  v100
 BYTE   W12
 BYTE   N05  Cn1  v127
 BYTE   N11  Fn2  v100
 BYTE   W06
 BYTE   N05  Cn1  v127
 BYTE   W06
 BYTE   N05
 BYTE   N11  Fn2  v100
 BYTE   W06
 BYTE   N05  Cn1  v127
 BYTE   W06
 BYTE   N05
 BYTE   N11  Fn2  v100
 BYTE   W06
 BYTE   N05  Cn1  v127
 BYTE   W06
 BYTE   N05
 BYTE   N11  Fn2  v100
 BYTE   W06
 BYTE   N05  Cn1  v127
 BYTE   W04
// 027   ----------------------------------------
 BYTE   W02
 BYTE   N22  Dn1  v108
 BYTE   N11  Fn2  v100
 BYTE   W12
 BYTE   N05  Cn1  v127
 BYTE   N11  Fn2  v100
 BYTE   W06
 BYTE   N05  Cn1  v127
 BYTE   W06
 BYTE   N05
 BYTE   N11  Fn2  v100
 BYTE   W06
 BYTE   N05  Cn1  v127
 BYTE   W06
 BYTE   N22  Dn1  v108
 BYTE   N11  Fn2  v100
 BYTE   W06
 BYTE   N05  Cn1  v127
 BYTE   W06
 BYTE   N05
 BYTE   N11  Fn2  v100
 BYTE   W06
 BYTE   N05  Cn1  v127
 BYTE   W06
 BYTE   N22  Dn1  v108
 BYTE   N11  Fn2  v100
 BYTE   W11
 BYTE   N56  Cs2  v127
 BYTE   W01
 BYTE   N05  Cn1
 BYTE   W06
 BYTE   N05
 BYTE   W06
 BYTE   N11  Dn1  v108
 BYTE   N11  Fn2  v100
 BYTE   W06
 BYTE   N05  Cn1  v127
 BYTE   W04
// 028   ----------------------------------------
 BYTE   W02
 BYTE   N05
 BYTE   N11  Fn2  v100
 BYTE   W06
 BYTE   N05  Cn1  v127
 BYTE   W06
 BYTE   Dn1  v108
 BYTE   N11  Fn2  v100
 BYTE   W06
 BYTE   N05  Dn1  v108
 BYTE   W06
 BYTE   N04
 BYTE   N11  Fn2  v100
 BYTE   W06
 BYTE   N04  Dn1  v108
 BYTE   W05
 BYTE   N56  Cs2  v127
 BYTE   W01
 BYTE   N11  Cn1
 BYTE   W12
 BYTE   N11
 BYTE   N11  Fn2  v100
 BYTE   W12
 BYTE   N16  Dn1  v108
 BYTE   N11  Fn2  v100
 BYTE   W12
 BYTE   N04  Cn1  v127
 BYTE   N11  Fn2  v100
 BYTE   W06
 BYTE   N22  Dn1  v108
 BYTE   W06
 BYTE   N11  Fn2  v100
 BYTE   W06
 BYTE   N04  Cn1  v127
 BYTE   W04
// 029   ----------------------------------------
 BYTE   W02
 BYTE   N11
 BYTE   N11  Fn2  v100
 BYTE   W12
 BYTE   Cn1  v127
 BYTE   N11  Fn2  v100
 BYTE   W12
 BYTE   N16  Dn1  v108
 BYTE   N11  Fn2  v100
 BYTE   W12
 BYTE   N04  Cn1  v127
 BYTE   N11  Fn2  v100
 BYTE   W06
 BYTE   N22  Dn1  v108
 BYTE   W06
 BYTE   N11  Fn2  v100
 BYTE   W06
 BYTE   N04  Cn1  v127
 BYTE   W06
 BYTE   N11
 BYTE   N11  Fn2  v100
 BYTE   W12
 BYTE   Cn1  v127
 BYTE   N11  Fn2  v100
 BYTE   W12
 BYTE   N16  Dn1  v108
 BYTE   N11  Fn2  v100
 BYTE   W10
// 030   ----------------------------------------
 BYTE   W02
 BYTE   N04  Cn1  v127
 BYTE   N11  Fn2  v100
 BYTE   W06
 BYTE   N22  Dn1  v108
 BYTE   W06
 BYTE   N11  Fn2  v100
 BYTE   W06
 BYTE   N04  Cn1  v127
 BYTE   W06
 BYTE   N11
 BYTE   N11  Fn2  v100
 BYTE   W12
 BYTE   Cn1  v127
 BYTE   N11  Fn2  v100
 BYTE   W12
 BYTE   N16  Dn1  v108
 BYTE   N11  Fn2  v100
 BYTE   W12
 BYTE   N04  Cn1  v127
 BYTE   N11  Fn2  v100
 BYTE   W06
 BYTE   N22  Dn1  v108
 BYTE   W06
 BYTE   N11  Fn2  v100
 BYTE   W06
 BYTE   N04  Cn1  v127
 BYTE   W05
 BYTE   N56  Cs2
 BYTE   W01
 BYTE   N11  Cn1
 BYTE   W10
// 031   ----------------------------------------
 BYTE   W02
 BYTE   N11
 BYTE   N11  Fn2  v100
 BYTE   W12
 BYTE   N16  Dn1  v108
 BYTE   N11  Fn2  v100
 BYTE   W12
 BYTE   N04  Cn1  v127
 BYTE   N11  Fn2  v100
 BYTE   W06
 BYTE   N22  Dn1  v108
 BYTE   W06
 BYTE   N11  Fn2  v100
 BYTE   W06
 BYTE   N04  Cn1  v127
 BYTE   W05
 BYTE   N56  Cs2
 BYTE   W01
 BYTE   N11  Cn1
 BYTE   W12
 BYTE   N11
 BYTE   N11  Fn2  v100
 BYTE   W12
 BYTE   N16  Dn1  v108
 BYTE   N11  Fn2  v100
 BYTE   W12
 BYTE   N04  Cn1  v127
 BYTE   N11  Fn2  v100
 BYTE   W06
 BYTE   N22  Dn1  v108
 BYTE   W04
// 032   ----------------------------------------
 BYTE   W02
 BYTE   N11  Fn2  v100
 BYTE   W06
 BYTE   N04  Cn1  v127
 BYTE   W05
 BYTE   N92  Cs2
 BYTE   W01
 BYTE   N11  Cn1
 BYTE   W12
 BYTE   N22  Dn1  v108
 BYTE   N11  Fn2  v084
 BYTE   W12
 BYTE   N04  Cn1  v127
 BYTE   N11  Fn2  v100
 BYTE   W06
 BYTE   N04  Cn1  v127
 BYTE   W06
 BYTE   N22  Dn1  v108
 BYTE   N11  Fn2  v084
 BYTE   W12
 BYTE   N04  Cn1  v127
 BYTE   N11  Fn2  v100
 BYTE   W06
 BYTE   N04  Cn1  v127
 BYTE   W06
 BYTE   N22  Dn1  v108
 BYTE   N11  Fn2  v084
 BYTE   W06
 BYTE   Cn1  v127
 BYTE   W06
 BYTE   Fn2  v100
 BYTE   W06
 BYTE   N04  Cn1  v127
 BYTE   W04
// 033   ----------------------------------------
Label_9_012C9BF7:
 BYTE   W02
 BYTE   N22  Dn1  v108
 BYTE   N11  Fn2  v084
 BYTE   W12
 BYTE   Cn1  v127
 BYTE   N11  Fn2  v100
 BYTE   W12
 BYTE   N22  Dn1  v108
 BYTE   N11  Fn2  v084
 BYTE   W12
 BYTE   N04  Cn1  v127
 BYTE   N11  Fn2  v100
 BYTE   W06
 BYTE   N04  Cn1  v127
 BYTE   W06
 BYTE   N22  Dn1  v108
 BYTE   N11  Fn2  v084
 BYTE   W12
 BYTE   N04  Cn1  v127
 BYTE   N11  Fn2  v100
 BYTE   W06
 BYTE   N04  Cn1  v127
 BYTE   W06
 BYTE   N22  Dn1  v108
 BYTE   N11  Fn2  v084
 BYTE   W06
 BYTE   Cn1  v127
 BYTE   W06
 BYTE   Fn2  v100
 BYTE   W06
 BYTE   N04  Cn1  v127
 BYTE   W04
 BYTE   PEND 
 BYTE   PATT
  POIN2 Label_9_012C9BF7
// 034   ----------------------------------------
 BYTE   W02
 BYTE   N22  Dn1  v108
 BYTE   N11  Fn2  v084
 BYTE   W11
 BYTE   N44  Cs2  v127
 BYTE   W01
 BYTE   N11  Cn1
 BYTE   W12
 BYTE   N22  Dn1  v108
 BYTE   N11  Fn2  v084
 BYTE   W12
 BYTE   N04  Cn1  v127
 BYTE   N11  Fn2  v100
 BYTE   W06
 BYTE   N04  Cn1  v127
 BYTE   W06
 BYTE   N22  Dn1  v108
 BYTE   N11  Fn2  v084
 BYTE   W11
 BYTE   N24  Cs2  v127
 BYTE   W01
 BYTE   N04  Cn1
 BYTE   W06
 BYTE   N04
 BYTE   W06
 BYTE   N11  Dn1  v108
 BYTE   N11  Fn2  v084
 BYTE   W06
 BYTE   Cn1  v127
 BYTE   W06
 BYTE   N04  Dn1  v108
 BYTE   W06
 BYTE   N04
 BYTE   W04
// 035   ----------------------------------------
 BYTE   W02
 BYTE   N04
 BYTE   N09  Fn2  v084
 BYTE   W06
 BYTE   N03  Dn1  v108
 BYTE   W01
 BYTE   GoTo
  POIN2 Label_9_012C92CA
// 036   ----------------------------------------
 BYTE   W02
 BYTE   FINE

//**************** Track 11 (Midi-Chn.10) ****************//

ConfidenceInTheDomination_011:
// 000   ----------------------------------------
 BYTE   KEYSH   ConfidenceInTheDomination_key+0
Label_10_012C9C96:
 BYTE   VOICE   30
 BYTE   VOL   28*ConfidenceInTheDomination_mvl/mxv
 BYTE   PAN   c_v-10
 BYTE   BEND   c_v-1
 BYTE   W14
 BYTE   N09  En3  v108
 BYTE   W12
 BYTE   Gn3
 BYTE   W12
 BYTE   Bn3
 BYTE   W12
 BYTE   N04  An3
 BYTE   W12
 BYTE   Fs3
 BYTE   W06
 BYTE   N09  Dn3
 BYTE   W12
 BYTE   En3
 BYTE   W12
 BYTE   Gn3
 BYTE   W04
// 001   ----------------------------------------
 BYTE   W08
 BYTE   Bn3
 BYTE   W12
 BYTE   N04  Cs4
 BYTE   W12
 BYTE   Dn4
 BYTE   W06
 BYTE   N09  En4
 BYTE   W12
 BYTE   En3
 BYTE   W12
 BYTE   Gn3
 BYTE   W12
 BYTE   Bn3
 BYTE   W12
 BYTE   N04  An3
 BYTE   W10
// 002   ----------------------------------------
 BYTE   W02
 BYTE   Fs3
 BYTE   W06
 BYTE   Dn3
 BYTE   W06
 BYTE   Fs3
 BYTE   W06
 BYTE   An3
 BYTE   W06
 BYTE   Dn3
 BYTE   W06
 BYTE   Fs3
 BYTE   W06
 BYTE   An3  v127
 BYTE   W06
 BYTE   Dn4
 BYTE   W05
 BYTE   BEND   c_v-12
 BYTE   W01
 BYTE   N16  Fn4
 BYTE   W01
 BYTE   BEND   c_v-8
 BYTE   W02
 BYTE   Bn2
 BYTE   W01
 BYTE   Cn3
 BYTE   W02
 BYTE   Cs3
 BYTE   W01
 BYTE   Dn3
 BYTE   W02
 BYTE   Dn3
 BYTE   W01
 BYTE   Dn3
 BYTE   W02
 BYTE   Dn3
 BYTE   W01
 BYTE   Ds3
 BYTE   W05
 BYTE   N16  Dn4
 BYTE   W18
 BYTE   N09  Fn4
 BYTE   W10
// 003   ----------------------------------------
 BYTE   W02
 BYTE   N16  En4
 BYTE   W18
 BYTE   Fn4
 BYTE   W18
 BYTE   N09  Gn4
 BYTE   W11
 BYTE   BEND   c_v-12
 BYTE   W01
 BYTE   N44  An4
 BYTE   W01
 BYTE   BEND   c_v-10
 BYTE   W02
 BYTE   Gn2
 BYTE   W01
 BYTE   An2
 BYTE   W02
 BYTE   As2
 BYTE   W01
 BYTE   As2
 BYTE   W02
 BYTE   Bn2
 BYTE   W01
 BYTE   Cn3
 BYTE   W02
 BYTE   Cn3
 BYTE   W01
 BYTE   Cn3
 BYTE   W02
 BYTE   Cs3
 BYTE   W01
 BYTE   Cs3
 BYTE   W02
 BYTE   Cs3
 BYTE   W01
 BYTE   Dn3
 BYTE   W02
 BYTE   Dn3
 BYTE   W01
 BYTE   Dn3
 BYTE   W02
 BYTE   Dn3
 BYTE   W03
 BYTE   Dn3
 BYTE   W03
 BYTE   Dn3
 BYTE   W06
 BYTE   Ds3
 BYTE   W10
// 004   ----------------------------------------
 BYTE   W02
 BYTE   Ds3
 BYTE   N44  Gs4
 BYTE   W12
 BYTE   BEND   c_v-2
 BYTE   W06
 BYTE   Dn3
 BYTE   W04
 BYTE   Dn3
 BYTE   W02
 BYTE   Dn3
 BYTE   W03
 BYTE   Dn3
 BYTE   W01
 BYTE   Dn3
 BYTE   W02
 BYTE   Cs3
 BYTE   W01
 BYTE   Cs3
 BYTE   W02
 BYTE   Cs3
 BYTE   W01
 BYTE   Cn3
 BYTE   W02
 BYTE   Cn3
 BYTE   W01
 BYTE   Bn2
 BYTE   W02
 BYTE   Bn2
 BYTE   W01
 BYTE   As2
 BYTE   W02
 BYTE   An2
 BYTE   W01
 BYTE   Gs2
 BYTE   W02
 BYTE   Gn2
 BYTE   W01
 BYTE   Fs2
 BYTE   W01
 BYTE   En2
 BYTE   W01
 BYTE   N09  En3  v108
 BYTE   W01
 BYTE   BEND   c_v-6
 BYTE   W01
 BYTE   Cn3
 BYTE   W02
 BYTE   Cs3
 BYTE   W02
 BYTE   Dn3
 BYTE   W01
 BYTE   Dn3
 BYTE   W02
 BYTE   Ds3
 BYTE   W03
 BYTE   N09  Gn3
 BYTE   W12
 BYTE   Bn3
 BYTE   W12
 BYTE   N04  An3
 BYTE   W10
// 005   ----------------------------------------
 BYTE   W02
 BYTE   Fs3
 BYTE   W06
 BYTE   N09  Dn3
 BYTE   W12
 BYTE   En3
 BYTE   W12
 BYTE   Gn3
 BYTE   W12
 BYTE   Bn3
 BYTE   W12
 BYTE   N04  Cs4
 BYTE   W12
 BYTE   Dn4
 BYTE   W06
 BYTE   N09  En4
 BYTE   W12
 BYTE   En3
 BYTE   W10
// 006   ----------------------------------------
 BYTE   W02
 BYTE   Gn3
 BYTE   W12
 BYTE   Bn3
 BYTE   W12
 BYTE   N04  An3
 BYTE   W12
 BYTE   Fs3
 BYTE   W06
 BYTE   Dn3
 BYTE   W06
 BYTE   Fs3
 BYTE   W06
 BYTE   An3
 BYTE   W06
 BYTE   Dn3
 BYTE   W06
 BYTE   Fs3
 BYTE   W06
 BYTE   An3  v127
 BYTE   W06
 BYTE   Dn4
 BYTE   W05
 BYTE   BEND   c_v-12
 BYTE   W01
 BYTE   N16  Fn4
 BYTE   W01
 BYTE   BEND   c_v-8
 BYTE   W02
 BYTE   Bn2
 BYTE   W01
 BYTE   Cn3
 BYTE   W02
 BYTE   Cs3
 BYTE   W01
 BYTE   Dn3
 BYTE   W02
 BYTE   Dn3
 BYTE   W01
// 007   ----------------------------------------
 BYTE   Dn3
 BYTE   W02
 BYTE   Dn3
 BYTE   W01
 BYTE   Ds3
 BYTE   W05
 BYTE   N16  Dn4
 BYTE   W18
 BYTE   N09  Fn4
 BYTE   W12
 BYTE   N16  En4
 BYTE   W18
 BYTE   Fn4
 BYTE   W18
 BYTE   N09  Gn4
 BYTE   W12
 BYTE   N16  Gs4
 BYTE   W10
// 008   ----------------------------------------
 BYTE   W08
 BYTE   En4
 BYTE   W18
 BYTE   N09  Gs4
 BYTE   W12
 BYTE   N16  An4
 BYTE   W18
 BYTE   Bn4
 BYTE   W18
 BYTE   N09  Cn5
 BYTE   W12
 BYTE   N16  Dn5
 BYTE   W10
// 009   ----------------------------------------
 BYTE   W08
 BYTE   Fn4
 BYTE   W18
 BYTE   N09  Dn5
 BYTE   W12
 BYTE   N16  Cn5
 BYTE   W18
 BYTE   Bn4
 BYTE   W18
 BYTE   N09  Gn4
 BYTE   W11
 BYTE   BEND   c_v-12
 BYTE   W01
 BYTE   N44  An4
 BYTE   W01
 BYTE   BEND   c_v-10
 BYTE   W02
 BYTE   Gn2
 BYTE   W01
 BYTE   An2
 BYTE   W02
 BYTE   As2
 BYTE   W01
 BYTE   As2
 BYTE   W02
 BYTE   Bn2
 BYTE   W01
// 010   ----------------------------------------
 BYTE   Cn3
 BYTE   W02
 BYTE   Cn3
 BYTE   W01
 BYTE   Cn3
 BYTE   W02
 BYTE   Cs3
 BYTE   W01
 BYTE   Cs3
 BYTE   W02
 BYTE   Cs3
 BYTE   W01
 BYTE   Dn3
 BYTE   W02
 BYTE   Dn3
 BYTE   W01
 BYTE   Dn3
 BYTE   W02
 BYTE   Dn3
 BYTE   W03
 BYTE   Dn3
 BYTE   W03
 BYTE   Dn3
 BYTE   W06
 BYTE   Ds3
 BYTE   W12
 BYTE   N44  En4
 BYTE   W48
 BYTE   N04  Fn4
 BYTE   W06
 BYTE   Gn4
 BYTE   W04
// 011   ----------------------------------------
Label_10_012C9E20:
 BYTE   W02
 BYTE   N32  An4  v127
 BYTE   W36
 BYTE   N04  Gn4
 BYTE   W06
 BYTE   An4
 BYTE   W06
 BYTE   N32  Bn4
 BYTE   W36
 BYTE   N16  Cn5
 BYTE   W10
 BYTE   PEND 
// 012   ----------------------------------------
Label_10_012C9E31:
 BYTE   W08
 BYTE   N16  Bn4  v127
 BYTE   W18
 BYTE   N11  Cn5
 BYTE   W12
 BYTE   N44  En4
 BYTE   W48
 BYTE   N04  Fn4
 BYTE   W06
 BYTE   Gn4
 BYTE   W04
 BYTE   PEND 
 BYTE   PATT
  POIN2 Label_10_012C9E20
// 013   ----------------------------------------
 BYTE   W08
 BYTE   N16  Dn5  v127
 BYTE   W18
 BYTE   N11  En5
 BYTE   W12
 BYTE   N44  Bn4
 BYTE   W48
 BYTE   N04  Fn4
 BYTE   W06
 BYTE   Gn4
 BYTE   W04
 BYTE   PATT
  POIN2 Label_10_012C9E20
 BYTE   PATT
  POIN2 Label_10_012C9E31
// 014   ----------------------------------------
 BYTE   W02
 BYTE   N32  An4  v127
 BYTE   W36
 BYTE   N16  Gn4
 BYTE   W18
 BYTE   An4
 BYTE   W18
 BYTE   N11  Bn4
 BYTE   W12
 BYTE   BEND   c_v-1
 BYTE   N92  An4
 BYTE   W10
// 015   ----------------------------------------
 BYTE   W14
 BYTE   BEND   c_v-2
 BYTE   W12
 BYTE   Dn3
 BYTE   W07
 BYTE   Dn3
 BYTE   W05
 BYTE   Dn3
 BYTE   W04
 BYTE   Dn3
 BYTE   W03
 BYTE   Dn3
 BYTE   W03
 BYTE   Cs3
 BYTE   W02
 BYTE   Cs3
 BYTE   W03
 BYTE   Cs3
 BYTE   W01
 BYTE   Cs3
 BYTE   W02
 BYTE   Cs3
 BYTE   W01
 BYTE   Cs3
 BYTE   W02
 BYTE   Cn3
 BYTE   W01
 BYTE   Cn3
 BYTE   W02
 BYTE   Cn3
 BYTE   W01
 BYTE   Cn3
 BYTE   W02
 BYTE   Bn2
 BYTE   W01
 BYTE   Bn2
 BYTE   W02
 BYTE   Bn2
 BYTE   W01
 BYTE   Bn2
 BYTE   W02
 BYTE   As2
 BYTE   W01
 BYTE   As2
 BYTE   W02
 BYTE   An2
 BYTE   W01
 BYTE   An2
 BYTE   W02
 BYTE   Gs2
 BYTE   W01
 BYTE   Gs2
 BYTE   W02
 BYTE   Gn2
 BYTE   W01
 BYTE   Gn2
 BYTE   W02
 BYTE   Fs2
 BYTE   W01
 BYTE   Fn2
 BYTE   W01
 BYTE   En2
 BYTE   W01
 BYTE   Ds3
 BYTE   N09  En3  v108
 BYTE   W10
// 016   ----------------------------------------
 BYTE   W02
 BYTE   Gn3
 BYTE   W12
 BYTE   Bn3
 BYTE   W12
 BYTE   N04  An3
 BYTE   W12
 BYTE   Fs3
 BYTE   W06
 BYTE   N09  Dn3
 BYTE   W12
 BYTE   En3
 BYTE   W12
 BYTE   Gn3
 BYTE   W12
 BYTE   Bn3
 BYTE   W12
 BYTE   N04  Cs4
 BYTE   W04
// 017   ----------------------------------------
 BYTE   W08
 BYTE   Dn4
 BYTE   W06
 BYTE   N09  En4
 BYTE   W12
 BYTE   En3
 BYTE   W12
 BYTE   Gn3
 BYTE   W12
 BYTE   Bn3
 BYTE   W12
 BYTE   N04  An3
 BYTE   W12
 BYTE   Fs3
 BYTE   W06
 BYTE   Dn3
 BYTE   W06
 BYTE   Fs3
 BYTE   W06
 BYTE   An3
 BYTE   W04
// 018   ----------------------------------------
 BYTE   W02
 BYTE   Dn3
 BYTE   W06
 BYTE   Fs3
 BYTE   W06
 BYTE   An3  v127
 BYTE   W06
 BYTE   Dn4
 BYTE   W05
 BYTE   BEND   c_v-12
 BYTE   W01
 BYTE   N16  Fn4
 BYTE   W01
 BYTE   BEND   c_v-8
 BYTE   W02
 BYTE   Bn2
 BYTE   W01
 BYTE   Cn3
 BYTE   W02
 BYTE   Cs3
 BYTE   W01
 BYTE   Dn3
 BYTE   W02
 BYTE   Dn3
 BYTE   W01
 BYTE   Dn3
 BYTE   W02
 BYTE   Dn3
 BYTE   W01
 BYTE   Ds3
 BYTE   W05
 BYTE   N16  Dn4
 BYTE   W18
 BYTE   N09  Fn4
 BYTE   W12
 BYTE   N16  En4
 BYTE   W18
 BYTE   Fn4
 BYTE   W04
// 019   ----------------------------------------
 BYTE   W14
 BYTE   N09  Gn4
 BYTE   W11
 BYTE   BEND   c_v-12
 BYTE   W01
 BYTE   N44  An4
 BYTE   W01
 BYTE   BEND   c_v-10
 BYTE   W02
 BYTE   Gn2
 BYTE   W01
 BYTE   An2
 BYTE   W02
 BYTE   As2
 BYTE   W01
 BYTE   As2
 BYTE   W02
 BYTE   Bn2
 BYTE   W01
 BYTE   Cn3
 BYTE   W02
 BYTE   Cn3
 BYTE   W01
 BYTE   Cn3
 BYTE   W02
 BYTE   Cs3
 BYTE   W01
 BYTE   Cs3
 BYTE   W02
 BYTE   Cs3
 BYTE   W01
 BYTE   Dn3
 BYTE   W02
 BYTE   Dn3
 BYTE   W01
 BYTE   Dn3
 BYTE   W02
 BYTE   Dn3
 BYTE   W03
 BYTE   Dn3
 BYTE   W03
 BYTE   Dn3
 BYTE   W06
 BYTE   Ds3
 BYTE   W12
 BYTE   Ds3
 BYTE   N44  Gs4
 BYTE   W12
 BYTE   BEND   c_v-2
 BYTE   W06
 BYTE   Dn3
 BYTE   W04
// 020   ----------------------------------------
 BYTE   Dn3
 BYTE   W02
 BYTE   Dn3
 BYTE   W03
 BYTE   Dn3
 BYTE   W01
 BYTE   Dn3
 BYTE   W02
 BYTE   Cs3
 BYTE   W01
 BYTE   Cs3
 BYTE   W02
 BYTE   Cs3
 BYTE   W01
 BYTE   Cn3
 BYTE   W02
 BYTE   Cn3
 BYTE   W01
 BYTE   Bn2
 BYTE   W02
 BYTE   Bn2
 BYTE   W01
 BYTE   As2
 BYTE   W02
 BYTE   An2
 BYTE   W01
 BYTE   Gs2
 BYTE   W02
 BYTE   Gn2
 BYTE   W01
 BYTE   Fs2
 BYTE   W01
 BYTE   En2
 BYTE   W01
 BYTE   N09  En3  v108
 BYTE   W01
 BYTE   BEND   c_v-6
 BYTE   W01
 BYTE   Cn3
 BYTE   W02
 BYTE   Cs3
 BYTE   W02
 BYTE   Dn3
 BYTE   W01
 BYTE   Dn3
 BYTE   W02
 BYTE   Ds3
 BYTE   W03
 BYTE   N09  Gn3
 BYTE   W12
 BYTE   Bn3
 BYTE   W12
 BYTE   N04  An3
 BYTE   W12
 BYTE   Fs3
 BYTE   W06
 BYTE   N09  Dn3
 BYTE   W12
 BYTE   En3
 BYTE   W04
// 021   ----------------------------------------
 BYTE   W08
 BYTE   Gn3
 BYTE   W12
 BYTE   Bn3
 BYTE   W12
 BYTE   N04  Cs4
 BYTE   W12
 BYTE   Dn4
 BYTE   W06
 BYTE   N09  En4
 BYTE   W12
 BYTE   Fs3
 BYTE   W12
 BYTE   An3
 BYTE   W12
 BYTE   Cs4
 BYTE   W10
// 022   ----------------------------------------
 BYTE   W02
 BYTE   N04  Bn3
 BYTE   W12
 BYTE   Gs3
 BYTE   W06
 BYTE   N09  En3
 BYTE   W12
 BYTE   Fs3
 BYTE   W12
 BYTE   An3
 BYTE   W12
 BYTE   Cs4
 BYTE   W12
 BYTE   N04  Ds4
 BYTE   W12
 BYTE   En4
 BYTE   W06
 BYTE   N09  Fs4
 BYTE   W10
// 023   ----------------------------------------
 BYTE   W02
 BYTE   Gs3
 BYTE   W12
 BYTE   Bn3
 BYTE   W12
 BYTE   Ds4
 BYTE   W12
 BYTE   N04  Cs4
 BYTE   W12
 BYTE   As3
 BYTE   W06
 BYTE   N09  Fs3
 BYTE   W12
 BYTE   Gs3
 BYTE   W12
 BYTE   Bn3
 BYTE   W12
 BYTE   Ds4
 BYTE   W04
// 024   ----------------------------------------
 BYTE   W08
 BYTE   N04  Fn4
 BYTE   W12
 BYTE   Fs4
 BYTE   W06
 BYTE   N09  Gs4  v127
 BYTE   W12
 BYTE   N16  En4
 BYTE   W18
 BYTE   Cn4
 BYTE   W18
 BYTE   N09  En4
 BYTE   W12
 BYTE   N16  Dn4
 BYTE   W10
// 025   ----------------------------------------
 BYTE   W08
 BYTE   En4
 BYTE   W18
 BYTE   N09  Cn4
 BYTE   W12
 BYTE   N16  Fn4
 BYTE   W18
 BYTE   En4
 BYTE   W18
 BYTE   N09  Dn4
 BYTE   W12
 BYTE   N16  Cn4
 BYTE   W10
// 026   ----------------------------------------
 BYTE   W08
 BYTE   An3
 BYTE   W18
 BYTE   N09  Cn4
 BYTE   W12
 BYTE   N16  Dn4
 BYTE   W18
 BYTE   Bn3
 BYTE   W18
 BYTE   N07  Gs3
 BYTE   W12
 BYTE   N16  Fn4
 BYTE   W10
// 027   ----------------------------------------
 BYTE   W08
 BYTE   Bn3
 BYTE   W18
 BYTE   N07  Dn4
 BYTE   W12
 BYTE   N16  Cn4
 BYTE   W18
 BYTE   An3
 BYTE   W18
 BYTE   N07  Ds4
 BYTE   W12
 BYTE   N16  Cn4
 BYTE   W10
// 028   ----------------------------------------
 BYTE   W08
 BYTE   Fs4
 BYTE   W18
 BYTE   N07  Ds4
 BYTE   W68
 BYTE   W02
// 029   ----------------------------------------
 BYTE   W96
// 030   ----------------------------------------
 BYTE   W96
// 031   ----------------------------------------
 BYTE   W96
// 032   ----------------------------------------
 BYTE   W96
// 033   ----------------------------------------
 BYTE   W96
// 034   ----------------------------------------
 BYTE   W96
// 035   ----------------------------------------
 BYTE   W24
 BYTE   W02
 BYTE   N16  En4
 BYTE   W18
 BYTE   Cn4
 BYTE   W18
 BYTE   N09  En4
 BYTE   W12
 BYTE   N16  Dn4
 BYTE   W18
 BYTE   En4
 BYTE   W04
// 036   ----------------------------------------
 BYTE   W14
 BYTE   N09  Cn4
 BYTE   W12
 BYTE   N16  Fn4
 BYTE   W18
 BYTE   En4
 BYTE   W18
 BYTE   N09  Dn4
 BYTE   W12
 BYTE   N16  Cn4
 BYTE   W18
 BYTE   An3
 BYTE   W04
// 037   ----------------------------------------
 BYTE   W14
 BYTE   N09  Cn4
 BYTE   W12
 BYTE   N16  Dn4
 BYTE   W18
 BYTE   Bn3
 BYTE   W18
 BYTE   N07  Gs3
 BYTE   W12
 BYTE   N16  Fn4
 BYTE   W18
 BYTE   Bn3
 BYTE   W04
// 038   ----------------------------------------
 BYTE   W14
 BYTE   N07  Dn4
 BYTE   W12
 BYTE   N16  Cn4
 BYTE   W18
 BYTE   An3
 BYTE   W18
 BYTE   N07  Ds4
 BYTE   W12
 BYTE   N16  Cn4
 BYTE   W18
 BYTE   N15  Fs4
 BYTE   W04
// 039   ----------------------------------------
 BYTE   W09
 BYTE   GoTo
  POIN2 Label_10_012C9C96
// 040   ----------------------------------------
 BYTE   W02
 BYTE   FINE

//**************** Track 12 (Midi-Chn.11) ****************//

ConfidenceInTheDomination_012:
// 000   ----------------------------------------
 BYTE   KEYSH   ConfidenceInTheDomination_key+0
Label_11_012CA072:
 BYTE   VOICE   48
 BYTE   VOL   43*ConfidenceInTheDomination_mvl/mxv
 BYTE   PAN   c_v+0
 BYTE   BEND   c_v-1
 BYTE   W02
 BYTE   N09  En4  v127
 BYTE   W12
 BYTE   Gn4
 BYTE   W12
 BYTE   Bn4
 BYTE   W12
 BYTE   N04  An4
 BYTE   W12
 BYTE   Fs4
 BYTE   W06
 BYTE   N09  Dn4
 BYTE   W12
 BYTE   En4
 BYTE   W12
 BYTE   Gn4
 BYTE   W12
 BYTE   Bn4
 BYTE   W04
// 001   ----------------------------------------
 BYTE   W08
 BYTE   N04  Cs5
 BYTE   W12
 BYTE   Dn5
 BYTE   W06
 BYTE   N09  En5
 BYTE   W12
 BYTE   En4
 BYTE   W12
 BYTE   Gn4
 BYTE   W12
 BYTE   Bn4
 BYTE   W12
 BYTE   N04  An4
 BYTE   W12
 BYTE   Fs4
 BYTE   W06
 BYTE   Dn4
 BYTE   W04
// 002   ----------------------------------------
 BYTE   W02
 BYTE   Fs4
 BYTE   W06
 BYTE   An4
 BYTE   W06
 BYTE   Dn4
 BYTE   W06
 BYTE   Fs4
 BYTE   W06
 BYTE   An4
 BYTE   W06
 BYTE   Dn5
 BYTE   W64
// 003   ----------------------------------------
 BYTE   W96
// 004   ----------------------------------------
 BYTE   W36
 BYTE   W02
 BYTE   BEND   c_v-12
 BYTE   N09  En4
 BYTE   W01
 BYTE   BEND   c_v-6
 BYTE   W02
 BYTE   Cn3
 BYTE   W01
 BYTE   Cs3
 BYTE   W02
 BYTE   Dn3
 BYTE   W01
 BYTE   Dn3
 BYTE   W02
 BYTE   Ds3
 BYTE   W03
 BYTE   N09  Gn4
 BYTE   W12
 BYTE   Bn4
 BYTE   W12
 BYTE   N04  An4
 BYTE   W12
 BYTE   Fs4
 BYTE   W06
 BYTE   N09  Dn4
 BYTE   W04
// 005   ----------------------------------------
 BYTE   W08
 BYTE   En4
 BYTE   W12
 BYTE   Gn4
 BYTE   W12
 BYTE   Bn4
 BYTE   W12
 BYTE   N04  Cs5
 BYTE   W12
 BYTE   Dn5
 BYTE   W06
 BYTE   N09  En5
 BYTE   W12
 BYTE   En4
 BYTE   W12
 BYTE   Gn4
 BYTE   W10
// 006   ----------------------------------------
 BYTE   W02
 BYTE   Bn4
 BYTE   W12
 BYTE   N04  An4
 BYTE   W12
 BYTE   Fs4
 BYTE   W06
 BYTE   Dn4
 BYTE   W06
 BYTE   Fs4
 BYTE   W06
 BYTE   An4
 BYTE   W06
 BYTE   Dn4
 BYTE   W06
 BYTE   Fs4
 BYTE   W06
 BYTE   An4
 BYTE   W06
 BYTE   Dn5
 BYTE   W28
// 007   ----------------------------------------
 BYTE   W96
// 008   ----------------------------------------
 BYTE   W96
// 009   ----------------------------------------
 BYTE   W96
// 010   ----------------------------------------
 BYTE   W96
// 011   ----------------------------------------
 BYTE   W96
// 012   ----------------------------------------
 BYTE   W96
// 013   ----------------------------------------
 BYTE   W96
// 014   ----------------------------------------
 BYTE   W96
// 015   ----------------------------------------
 BYTE   W96
// 016   ----------------------------------------
 BYTE   W96
// 017   ----------------------------------------
 BYTE   W96
// 018   ----------------------------------------
 BYTE   W72
 BYTE   W02
 BYTE   N09  En4
 BYTE   W12
 BYTE   Gn4
 BYTE   W10
// 019   ----------------------------------------
 BYTE   W02
 BYTE   Bn4
 BYTE   W12
 BYTE   N04  An4
 BYTE   W12
 BYTE   Fs4
 BYTE   W06
 BYTE   N09  Dn4
 BYTE   W12
 BYTE   En4
 BYTE   W12
 BYTE   Gn4
 BYTE   W12
 BYTE   Bn4
 BYTE   W12
 BYTE   N04  Cs5
 BYTE   W12
 BYTE   Dn5
 BYTE   W04
// 020   ----------------------------------------
 BYTE   W02
 BYTE   N09  En5
 BYTE   W12
 BYTE   En4
 BYTE   W12
 BYTE   Gn4
 BYTE   W12
 BYTE   Bn4
 BYTE   W12
 BYTE   N04  An4
 BYTE   W12
 BYTE   Fs4
 BYTE   W06
 BYTE   Dn4
 BYTE   W06
 BYTE   Fs4
 BYTE   W06
 BYTE   An4
 BYTE   W06
 BYTE   Dn4
 BYTE   W06
 BYTE   Fs4
 BYTE   W04
// 021   ----------------------------------------
 BYTE   W02
 BYTE   An4
 BYTE   W06
 BYTE   Dn5
 BYTE   W88
// 022   ----------------------------------------
 BYTE   W96
// 023   ----------------------------------------
 BYTE   W14
 BYTE   BEND   c_v-12
 BYTE   N09  En4
 BYTE   W01
 BYTE   BEND   c_v-6
 BYTE   W02
 BYTE   Cn3
 BYTE   W01
 BYTE   Cs3
 BYTE   W02
 BYTE   Dn3
 BYTE   W01
 BYTE   Dn3
 BYTE   W02
 BYTE   Ds3
 BYTE   W03
 BYTE   N09  Gn4
 BYTE   W12
 BYTE   Bn4
 BYTE   W12
 BYTE   N04  An4
 BYTE   W12
 BYTE   Fs4
 BYTE   W06
 BYTE   N09  Dn4
 BYTE   W12
 BYTE   En4
 BYTE   W12
 BYTE   Gn4
 BYTE   W04
// 024   ----------------------------------------
 BYTE   W08
 BYTE   Bn4
 BYTE   W12
 BYTE   N04  Cs5
 BYTE   W12
 BYTE   Dn5
 BYTE   W06
 BYTE   N09  En5
 BYTE   W12
 BYTE   Fs4
 BYTE   W12
 BYTE   An4
 BYTE   W12
 BYTE   Cs5
 BYTE   W12
 BYTE   N04  Bn4
 BYTE   W10
// 025   ----------------------------------------
 BYTE   W02
 BYTE   Gs4
 BYTE   W06
 BYTE   N09  En4
 BYTE   W12
 BYTE   Fs4
 BYTE   W12
 BYTE   An4
 BYTE   W12
 BYTE   Cs5
 BYTE   W12
 BYTE   N04  Ds5
 BYTE   W12
 BYTE   En5
 BYTE   W06
 BYTE   N09  Fs5
 BYTE   W12
 BYTE   Gs4
 BYTE   W10
// 026   ----------------------------------------
 BYTE   W02
 BYTE   Bn4
 BYTE   W12
 BYTE   Ds5
 BYTE   W12
 BYTE   N04  Cs5
 BYTE   W12
 BYTE   As4
 BYTE   W06
 BYTE   N09  Fs4
 BYTE   W12
 BYTE   Gs4
 BYTE   W12
 BYTE   Bn4
 BYTE   W12
 BYTE   Ds5
 BYTE   W12
 BYTE   N04  Fn5
 BYTE   W04
// 027   ----------------------------------------
 BYTE   W08
 BYTE   Fs5
 BYTE   W06
 BYTE   N09  Gs5
 BYTE   W80
 BYTE   W02
// 028   ----------------------------------------
 BYTE   W96
// 029   ----------------------------------------
 BYTE   W96
// 030   ----------------------------------------
 BYTE   W96
// 031   ----------------------------------------
 BYTE   W96
// 032   ----------------------------------------
 BYTE   W96
// 033   ----------------------------------------
 BYTE   W96
// 034   ----------------------------------------
 BYTE   W96
// 035   ----------------------------------------
 BYTE   W96
// 036   ----------------------------------------
 BYTE   W96
// 037   ----------------------------------------
 BYTE   W96
// 038   ----------------------------------------
 BYTE   W96
// 039   ----------------------------------------
 BYTE   W96
// 040   ----------------------------------------
 BYTE   W96
// 041   ----------------------------------------
 BYTE   W96
// 042   ----------------------------------------
 BYTE   W09
 BYTE   GoTo
  POIN2 Label_11_012CA072
// 043   ----------------------------------------
 BYTE   W02
 BYTE   FINE

//******************************************************//
	ALIGN 4

ConfidenceInTheDomination:
	BYTE	12	// NumTrks
	BYTE	0	// NumBlks
	BYTE	ConfidenceInTheDomination_pri	// Priority
	BYTE	ConfidenceInTheDomination_rev	// Reverb.
    
	POIN2	ConfidenceInTheDomination_grp
    
	POIN2	ConfidenceInTheDomination_001
	POIN2	ConfidenceInTheDomination_002
	POIN2	ConfidenceInTheDomination_003
	POIN2	ConfidenceInTheDomination_004
	POIN2	ConfidenceInTheDomination_005
	POIN2	ConfidenceInTheDomination_006
	POIN2	ConfidenceInTheDomination_007
	POIN2	ConfidenceInTheDomination_008
	POIN2	ConfidenceInTheDomination_009
	POIN2	ConfidenceInTheDomination_010
	POIN2	ConfidenceInTheDomination_011
	POIN2	ConfidenceInTheDomination_012

	
