//Event file generated from Sappy .s format.
	#include "MPlayDef.event"

	#define	DefaultDuel_grp  voicegroup000
	#define	DefaultDuel_pri  0
	#define	DefaultDuel_rev  0
	#define	DefaultDuel_mvl  45
	#define	DefaultDuel_key  0
	#define	DefaultDuel_tbs  1
	#define	DefaultDuel_exg  0
	#define	DefaultDuel_cmp  1

	// .rodata
	//	DefaultDuel
	ALIGN 4

//**************** Track 1 (Midi-Chn.1) ****************//

DefaultDuel_1:
	BYTE	KEYSH   DefaultDuel_key+0
DefaultDuel_1_B1:
// 000   ----------------------------------------
	BYTE	TEMPO   128*DefaultDuel_tbs/2
	BYTE		VOICE   32
	BYTE		VOL     91*DefaultDuel_mvl/mxv
	BYTE		PAN     c_v-16
	BYTE		N06     Dn2   v100
	BYTE	W18
	BYTE		N06   
	BYTE	W18
	BYTE		N06   
	BYTE	W24
	BYTE		        An2 
	BYTE	W12
	BYTE		N06   
	BYTE	W06
	BYTE		        Bn2 
	BYTE	W18
// 001   ----------------------------------------
DefaultDuel_1_001:
	BYTE		N06     Dn2   v100
	BYTE	W18
	BYTE		N06   
	BYTE	W18
	BYTE		N06   
	BYTE	W24
	BYTE		        An2 
	BYTE	W12
	BYTE		N06   
	BYTE	W06
	BYTE		        Bn2 
	BYTE	W18
	BYTE	PEND
// 002   ----------------------------------------
	BYTE	PATT
	 POIN2	DefaultDuel_1_001
// 003   ----------------------------------------
	BYTE	PATT
	 POIN2	DefaultDuel_1_001
// 004   ----------------------------------------
	BYTE	PATT
	 POIN2	DefaultDuel_1_001
// 005   ----------------------------------------
	BYTE	PATT
	 POIN2	DefaultDuel_1_001
// 006   ----------------------------------------
	BYTE	PATT
	 POIN2	DefaultDuel_1_001
// 007   ----------------------------------------
	BYTE	PATT
	 POIN2	DefaultDuel_1_001
// 008   ----------------------------------------
	BYTE	PATT
	 POIN2	DefaultDuel_1_001
// 009   ----------------------------------------
	BYTE	PATT
	 POIN2	DefaultDuel_1_001
// 010   ----------------------------------------
	BYTE	PATT
	 POIN2	DefaultDuel_1_001
// 011   ----------------------------------------
	BYTE	PATT
	 POIN2	DefaultDuel_1_001
// 012   ----------------------------------------
	BYTE	PATT
	 POIN2	DefaultDuel_1_001
// 013   ----------------------------------------
	BYTE	PATT
	 POIN2	DefaultDuel_1_001
// 014   ----------------------------------------
	BYTE	PATT
	 POIN2	DefaultDuel_1_001
// 015   ----------------------------------------
DefaultDuel_1_015:
	BYTE		N06     Dn2   v100
	BYTE	W18
	BYTE		N06   
	BYTE	W18
	BYTE		N06   
	BYTE	W24
	BYTE		        En2 
	BYTE	W12
	BYTE		N06   
	BYTE	W12
	BYTE		        Fs2 
	BYTE	W12
	BYTE	PEND
// 016   ----------------------------------------
DefaultDuel_1_016:
	BYTE		N06     Gn2   v100
	BYTE	W18
	BYTE		N06   
	BYTE	W18
	BYTE		N06   
	BYTE	W24
	BYTE		        Dn2 
	BYTE	W12
	BYTE		N06   
	BYTE	W06
	BYTE		        En2 
	BYTE	W18
	BYTE	PEND
// 017   ----------------------------------------
	BYTE	PATT
	 POIN2	DefaultDuel_1_016
// 018   ----------------------------------------
DefaultDuel_1_018:
	BYTE		N06     Fs2   v100
	BYTE	W18
	BYTE		N06   
	BYTE	W18
	BYTE		N06   
	BYTE	W24
	BYTE		        Cs2 
	BYTE	W12
	BYTE		N06   
	BYTE	W06
	BYTE		        En2 
	BYTE	W18
	BYTE	PEND
// 019   ----------------------------------------
	BYTE	PATT
	 POIN2	DefaultDuel_1_018
// 020   ----------------------------------------
DefaultDuel_1_020:
	BYTE		N06     En2   v100
	BYTE	W18
	BYTE		N06   
	BYTE	W18
	BYTE		N06   
	BYTE	W24
	BYTE		N06   
	BYTE	W12
	BYTE		        Fs2 
	BYTE	W06
	BYTE		        Gn2 
	BYTE	W18
	BYTE	PEND
// 021   ----------------------------------------
DefaultDuel_1_021:
	BYTE		N06     An2   v100
	BYTE	W18
	BYTE		N06   
	BYTE	W18
	BYTE		N06   
	BYTE	W24
	BYTE		        En2 
	BYTE	W12
	BYTE		        Gn2 
	BYTE	W06
	BYTE		        An2 
	BYTE	W18
	BYTE	PEND
// 022   ----------------------------------------
	BYTE	PATT
	 POIN2	DefaultDuel_1_001
// 023   ----------------------------------------
	BYTE	PATT
	 POIN2	DefaultDuel_1_001
// 024   ----------------------------------------
	BYTE	PATT
	 POIN2	DefaultDuel_1_001
// 025   ----------------------------------------
	BYTE	PATT
	 POIN2	DefaultDuel_1_001
// 026   ----------------------------------------
	BYTE	PATT
	 POIN2	DefaultDuel_1_001
// 027   ----------------------------------------
	BYTE	PATT
	 POIN2	DefaultDuel_1_001
// 028   ----------------------------------------
	BYTE	PATT
	 POIN2	DefaultDuel_1_001
// 029   ----------------------------------------
	BYTE	PATT
	 POIN2	DefaultDuel_1_001
// 030   ----------------------------------------
	BYTE	PATT
	 POIN2	DefaultDuel_1_001
// 031   ----------------------------------------
	BYTE	PATT
	 POIN2	DefaultDuel_1_015
// 032   ----------------------------------------
	BYTE	PATT
	 POIN2	DefaultDuel_1_016
// 033   ----------------------------------------
	BYTE	PATT
	 POIN2	DefaultDuel_1_016
// 034   ----------------------------------------
	BYTE	PATT
	 POIN2	DefaultDuel_1_018
// 035   ----------------------------------------
	BYTE	PATT
	 POIN2	DefaultDuel_1_018
// 036   ----------------------------------------
	BYTE	PATT
	 POIN2	DefaultDuel_1_020
// 037   ----------------------------------------
	BYTE	PATT
	 POIN2	DefaultDuel_1_021
// 038   ----------------------------------------
	BYTE	PATT
	 POIN2	DefaultDuel_1_001
// 039   ----------------------------------------
DefaultDuel_1_039:
	BYTE		N06     Dn2   v100
	BYTE	W18
	BYTE		N06   
	BYTE	W18
	BYTE		N06   
	BYTE	W18
	BYTE		N12   
	BYTE	W18
	BYTE		N06   
	BYTE	W12
	BYTE		        Cs2 
	BYTE	W12
	BYTE	PEND
// 040   ----------------------------------------
DefaultDuel_1_040:
	BYTE		N06     Cn2   v100
	BYTE	W18
	BYTE		N06   
	BYTE	W18
	BYTE		N06   
	BYTE	W18
	BYTE		N06   
	BYTE	W18
	BYTE		N06   
	BYTE	W24
	BYTE	PEND
// 041   ----------------------------------------
	BYTE		N06   
	BYTE	W18
	BYTE		N06   
	BYTE	W18
	BYTE		N06   
	BYTE	W18
	BYTE		N18     Gn2 
	BYTE	W18
	BYTE		N06     Cn2 
	BYTE	W12
	BYTE		        Gn2 
	BYTE	W12
// 042   ----------------------------------------
	BYTE		        Dn2 
	BYTE	W18
	BYTE		N06   
	BYTE	W18
	BYTE		N06   
	BYTE	W18
	BYTE		N06   
	BYTE	W18
	BYTE		N06   
	BYTE	W24
// 043   ----------------------------------------
	BYTE	PATT
	 POIN2	DefaultDuel_1_039
// 044   ----------------------------------------
	BYTE	PATT
	 POIN2	DefaultDuel_1_040
// 045   ----------------------------------------
	BYTE		N06     Cn2   v100
	BYTE	W18
	BYTE		N06   
	BYTE	W18
	BYTE		N06   
	BYTE	W18
	BYTE		N18   
	BYTE	W18
	BYTE		N06     Cs2 
	BYTE	W12
	BYTE		        Dn2 
	BYTE	W12
// 046   ----------------------------------------
	BYTE		        En2 
	BYTE	W12
	BYTE		N06   
	BYTE	W12
	BYTE		N12   
	BYTE	W18
	BYTE		N06   
	BYTE	W12
	BYTE		N06   
	BYTE	W06
	BYTE		N06   
	BYTE	W12
	BYTE		N12   
	BYTE	W12
	BYTE		        Bn2 
	BYTE	W12
// 047   ----------------------------------------
	BYTE		N06     En2 
	BYTE	W12
	BYTE		N06   
	BYTE	W12
	BYTE		N12   
	BYTE	W18
	BYTE		N06   
	BYTE	W12
	BYTE		N06   
	BYTE	W06
	BYTE		N06   
	BYTE	W12
	BYTE		N12     Fs2 
	BYTE	W12
	BYTE		        Gn2 
	BYTE	W12
// 048   ----------------------------------------
	BYTE		N06     An2 
	BYTE	W12
	BYTE		N06   
	BYTE	W12
	BYTE		N12   
	BYTE	W18
	BYTE		N06   
	BYTE	W12
	BYTE		N06   
	BYTE	W06
	BYTE		N06   
	BYTE	W12
	BYTE		N12   
	BYTE	W12
	BYTE		        En2 
	BYTE	W12
// 049   ----------------------------------------
	BYTE		N06     An2 
	BYTE	W12
	BYTE		N06   
	BYTE	W12
	BYTE		N12   
	BYTE	W24
	BYTE		        As2 
	BYTE	W12
	BYTE		        Bn2 
	BYTE	W12
	BYTE		        Cn3 
	BYTE	W12
	BYTE		        Cs3 
	BYTE	W12
// 050   ----------------------------------------
DefaultDuel_1_050:
	BYTE		N06     Dn2   v100
	BYTE	W12
	BYTE		N06   
	BYTE	W12
	BYTE		N12   
	BYTE	W18
	BYTE		N06   
	BYTE	W12
	BYTE		N06   
	BYTE	W12
	BYTE		N06   
	BYTE	W06
	BYTE		N06   
	BYTE	W12
	BYTE		N06   
	BYTE	W06
	BYTE		N06   
	BYTE	W06
	BYTE	PEND
// 051   ----------------------------------------
DefaultDuel_1_051:
	BYTE		N06     En2   v100
	BYTE	W12
	BYTE		N06   
	BYTE	W12
	BYTE		N12   
	BYTE	W18
	BYTE		N06   
	BYTE	W12
	BYTE		N06   
	BYTE	W12
	BYTE		N06   
	BYTE	W06
	BYTE		N06   
	BYTE	W12
	BYTE		N06   
	BYTE	W06
	BYTE		N06   
	BYTE	W06
	BYTE	PEND
// 052   ----------------------------------------
DefaultDuel_1_052:
	BYTE		N06     Fs2   v100
	BYTE	W12
	BYTE		N06   
	BYTE	W12
	BYTE		N12   
	BYTE	W18
	BYTE		N06   
	BYTE	W12
	BYTE		N06   
	BYTE	W12
	BYTE		N06   
	BYTE	W06
	BYTE		N06   
	BYTE	W12
	BYTE		N06   
	BYTE	W06
	BYTE		        Gn2 
	BYTE	W06
	BYTE	PEND
// 053   ----------------------------------------
DefaultDuel_1_053:
	BYTE		N06     Gn2   v100
	BYTE	W12
	BYTE		N06   
	BYTE	W12
	BYTE		N12   
	BYTE	W18
	BYTE		N06   
	BYTE	W12
	BYTE		N06   
	BYTE	W12
	BYTE		N06   
	BYTE	W06
	BYTE		N06   
	BYTE	W12
	BYTE		        En2 
	BYTE	W06
	BYTE		N06   
	BYTE	W06
	BYTE	PEND
// 054   ----------------------------------------
DefaultDuel_1_054:
	BYTE		N06     Dn2   v100
	BYTE	W12
	BYTE		N06   
	BYTE	W12
	BYTE		N12   
	BYTE	W18
	BYTE		N06   
	BYTE	W12
	BYTE		N06   
	BYTE	W12
	BYTE		N06   
	BYTE	W06
	BYTE		N06   
	BYTE	W12
	BYTE		        Bn1 
	BYTE	W06
	BYTE		N06   
	BYTE	W06
	BYTE	PEND
// 055   ----------------------------------------
DefaultDuel_1_055:
	BYTE		N06     Bn2   v100
	BYTE	W12
	BYTE		N06   
	BYTE	W12
	BYTE		N12   
	BYTE	W18
	BYTE		N06   
	BYTE	W12
	BYTE		N06   
	BYTE	W12
	BYTE		N06   
	BYTE	W06
	BYTE		        Gn2 
	BYTE	W12
	BYTE		N12     Fs2 
	BYTE	W12
	BYTE	PEND
// 056   ----------------------------------------
DefaultDuel_1_056:
	BYTE		N06     En2   v100
	BYTE	W12
	BYTE		N06   
	BYTE	W12
	BYTE		N12   
	BYTE	W18
	BYTE		N06   
	BYTE	W12
	BYTE		N06   
	BYTE	W06
	BYTE		N12     Fs2 
	BYTE	W12
	BYTE		        Gn2 
	BYTE	W12
	BYTE		        Gs2 
	BYTE	W12
	BYTE	PEND
// 057   ----------------------------------------
DefaultDuel_1_057:
	BYTE		N06     An2   v100
	BYTE	W12
	BYTE		N06   
	BYTE	W12
	BYTE		N12   
	BYTE	W15
	BYTE		N03     As2 
	BYTE	W03
	BYTE		N06     Bn2 
	BYTE	W12
	BYTE		N06   
	BYTE	W06
	BYTE		N12     Fs2 
	BYTE	W12
	BYTE		        En2 
	BYTE	W12
	BYTE		        Cs2 
	BYTE	W12
	BYTE	PEND
// 058   ----------------------------------------
	BYTE	PATT
	 POIN2	DefaultDuel_1_050
// 059   ----------------------------------------
	BYTE	PATT
	 POIN2	DefaultDuel_1_051
// 060   ----------------------------------------
	BYTE	PATT
	 POIN2	DefaultDuel_1_052
// 061   ----------------------------------------
	BYTE	PATT
	 POIN2	DefaultDuel_1_053
// 062   ----------------------------------------
	BYTE	PATT
	 POIN2	DefaultDuel_1_054
// 063   ----------------------------------------
	BYTE	PATT
	 POIN2	DefaultDuel_1_055
// 064   ----------------------------------------
	BYTE	PATT
	 POIN2	DefaultDuel_1_056
// 065   ----------------------------------------
	BYTE	PATT
	 POIN2	DefaultDuel_1_057
// 066   ----------------------------------------
	BYTE	PATT
	 POIN2	DefaultDuel_1_050
// 067   ----------------------------------------
	BYTE	PATT
	 POIN2	DefaultDuel_1_050
// 068   ----------------------------------------
	BYTE		N06     Dn2   v100
	BYTE	W12
	BYTE		N06   
	BYTE	W12
	BYTE		N12   
	BYTE	W18
	BYTE		N06   
	BYTE	W12
	BYTE		N06   
	BYTE	W12
	BYTE		N06   
	BYTE	W06
	BYTE		N06   
	BYTE	W12
	BYTE		N84     An2 
	BYTE	W12
// 069   ----------------------------------------
	BYTE	W72
	BYTE	GoTo
	 POIN2	DefaultDuel_1_B1
DefaultDuel_1_B2:
	BYTE	W06
	BYTE	FINE

//**************** Track 2 (Midi-Chn.2) ****************//

DefaultDuel_2:
	BYTE	KEYSH   DefaultDuel_key+0
DefaultDuel_2_B1:
// 000   ----------------------------------------
	BYTE		VOICE   24
	BYTE		VOL     88*DefaultDuel_mvl/mxv
	BYTE		PAN     c_v+8
	BYTE		N06     Dn2   v100
	BYTE	W18
	BYTE		N06   
	BYTE	W18
	BYTE		N06   
	BYTE	W24
	BYTE		        An2 
	BYTE	W12
	BYTE		N06   
	BYTE	W06
	BYTE		        Bn2 
	BYTE	W18
// 001   ----------------------------------------
DefaultDuel_2_001:
	BYTE		N06     Dn2   v100
	BYTE	W18
	BYTE		N06   
	BYTE	W18
	BYTE		N06   
	BYTE	W24
	BYTE		        An2 
	BYTE	W12
	BYTE		N06   
	BYTE	W06
	BYTE		        Bn2 
	BYTE	W18
	BYTE	PEND
// 002   ----------------------------------------
	BYTE	PATT
	 POIN2	DefaultDuel_2_001
// 003   ----------------------------------------
	BYTE	PATT
	 POIN2	DefaultDuel_2_001
// 004   ----------------------------------------
	BYTE	PATT
	 POIN2	DefaultDuel_2_001
// 005   ----------------------------------------
	BYTE	PATT
	 POIN2	DefaultDuel_2_001
// 006   ----------------------------------------
	BYTE	PATT
	 POIN2	DefaultDuel_2_001
// 007   ----------------------------------------
	BYTE	PATT
	 POIN2	DefaultDuel_2_001
// 008   ----------------------------------------
	BYTE	PATT
	 POIN2	DefaultDuel_2_001
// 009   ----------------------------------------
	BYTE	PATT
	 POIN2	DefaultDuel_2_001
// 010   ----------------------------------------
	BYTE	PATT
	 POIN2	DefaultDuel_2_001
// 011   ----------------------------------------
	BYTE	PATT
	 POIN2	DefaultDuel_2_001
// 012   ----------------------------------------
	BYTE	PATT
	 POIN2	DefaultDuel_2_001
// 013   ----------------------------------------
	BYTE	PATT
	 POIN2	DefaultDuel_2_001
// 014   ----------------------------------------
	BYTE	PATT
	 POIN2	DefaultDuel_2_001
// 015   ----------------------------------------
DefaultDuel_2_015:
	BYTE		N06     Dn2   v100
	BYTE	W18
	BYTE		N06   
	BYTE	W18
	BYTE		N06   
	BYTE	W24
	BYTE		        En2 
	BYTE	W12
	BYTE		N06   
	BYTE	W12
	BYTE		        Fs2 
	BYTE	W12
	BYTE	PEND
// 016   ----------------------------------------
DefaultDuel_2_016:
	BYTE		N06     Gn2   v100
	BYTE	W18
	BYTE		N06   
	BYTE	W18
	BYTE		N06   
	BYTE	W24
	BYTE		        Dn2 
	BYTE	W12
	BYTE		N06   
	BYTE	W06
	BYTE		        En2 
	BYTE	W18
	BYTE	PEND
// 017   ----------------------------------------
	BYTE	PATT
	 POIN2	DefaultDuel_2_016
// 018   ----------------------------------------
DefaultDuel_2_018:
	BYTE		N06     Fs2   v100
	BYTE	W18
	BYTE		N06   
	BYTE	W18
	BYTE		N06   
	BYTE	W24
	BYTE		        Cs2 
	BYTE	W12
	BYTE		N06   
	BYTE	W06
	BYTE		        En2 
	BYTE	W18
	BYTE	PEND
// 019   ----------------------------------------
	BYTE	PATT
	 POIN2	DefaultDuel_2_018
// 020   ----------------------------------------
DefaultDuel_2_020:
	BYTE		N06     En2   v100
	BYTE	W18
	BYTE		N06   
	BYTE	W18
	BYTE		N06   
	BYTE	W24
	BYTE		N06   
	BYTE	W12
	BYTE		        Fs2 
	BYTE	W06
	BYTE		        Gn2 
	BYTE	W18
	BYTE	PEND
// 021   ----------------------------------------
DefaultDuel_2_021:
	BYTE		N06     An2   v100
	BYTE	W18
	BYTE		N06   
	BYTE	W18
	BYTE		N06   
	BYTE	W24
	BYTE		        En2 
	BYTE	W12
	BYTE		        Gn2 
	BYTE	W06
	BYTE		        An2 
	BYTE	W18
	BYTE	PEND
// 022   ----------------------------------------
	BYTE	PATT
	 POIN2	DefaultDuel_2_001
// 023   ----------------------------------------
	BYTE	PATT
	 POIN2	DefaultDuel_2_001
// 024   ----------------------------------------
	BYTE	PATT
	 POIN2	DefaultDuel_2_001
// 025   ----------------------------------------
	BYTE	PATT
	 POIN2	DefaultDuel_2_001
// 026   ----------------------------------------
	BYTE	PATT
	 POIN2	DefaultDuel_2_001
// 027   ----------------------------------------
	BYTE	PATT
	 POIN2	DefaultDuel_2_001
// 028   ----------------------------------------
	BYTE	PATT
	 POIN2	DefaultDuel_2_001
// 029   ----------------------------------------
	BYTE	PATT
	 POIN2	DefaultDuel_2_001
// 030   ----------------------------------------
	BYTE	PATT
	 POIN2	DefaultDuel_2_001
// 031   ----------------------------------------
	BYTE	PATT
	 POIN2	DefaultDuel_2_015
// 032   ----------------------------------------
	BYTE	PATT
	 POIN2	DefaultDuel_2_016
// 033   ----------------------------------------
	BYTE	PATT
	 POIN2	DefaultDuel_2_016
// 034   ----------------------------------------
	BYTE	PATT
	 POIN2	DefaultDuel_2_018
// 035   ----------------------------------------
	BYTE	PATT
	 POIN2	DefaultDuel_2_018
// 036   ----------------------------------------
	BYTE	PATT
	 POIN2	DefaultDuel_2_020
// 037   ----------------------------------------
	BYTE	PATT
	 POIN2	DefaultDuel_2_021
// 038   ----------------------------------------
	BYTE	PATT
	 POIN2	DefaultDuel_2_001
// 039   ----------------------------------------
DefaultDuel_2_039:
	BYTE		N06     Dn2   v100
	BYTE	W18
	BYTE		N06   
	BYTE	W18
	BYTE		N06   
	BYTE	W18
	BYTE		N12   
	BYTE	W18
	BYTE		N06   
	BYTE	W12
	BYTE		        Cs2 
	BYTE	W12
	BYTE	PEND
// 040   ----------------------------------------
DefaultDuel_2_040:
	BYTE		N06     Cn2   v100
	BYTE	W18
	BYTE		N06   
	BYTE	W18
	BYTE		N06   
	BYTE	W18
	BYTE		N06   
	BYTE	W18
	BYTE		N06   
	BYTE	W24
	BYTE	PEND
// 041   ----------------------------------------
DefaultDuel_2_041:
	BYTE		N06     Cn2   v100
	BYTE	W18
	BYTE		N06   
	BYTE	W18
	BYTE		N06   
	BYTE	W18
	BYTE		N18     Gn2 
	BYTE	W18
	BYTE		N06     Cn2 
	BYTE	W12
	BYTE		        Gn2 
	BYTE	W12
	BYTE	PEND
// 042   ----------------------------------------
	BYTE		        Dn2 
	BYTE	W18
	BYTE		N06   
	BYTE	W18
	BYTE		N06   
	BYTE	W18
	BYTE		N06   
	BYTE	W18
	BYTE		N06   
	BYTE	W24
// 043   ----------------------------------------
	BYTE	PATT
	 POIN2	DefaultDuel_2_039
// 044   ----------------------------------------
	BYTE	PATT
	 POIN2	DefaultDuel_2_040
// 045   ----------------------------------------
	BYTE	PATT
	 POIN2	DefaultDuel_2_041
// 046   ----------------------------------------
	BYTE		N06     En2   v100
	BYTE	W12
	BYTE		N06   
	BYTE	W12
	BYTE		N12   
	BYTE	W18
	BYTE		N06   
	BYTE	W12
	BYTE		N06   
	BYTE	W06
	BYTE		N06   
	BYTE	W12
	BYTE		N12   
	BYTE	W12
	BYTE		        Bn2 
	BYTE	W12
// 047   ----------------------------------------
	BYTE		N06     En2 
	BYTE	W12
	BYTE		N06   
	BYTE	W12
	BYTE		N12   
	BYTE	W18
	BYTE		N06   
	BYTE	W12
	BYTE		N06   
	BYTE	W06
	BYTE		N06   
	BYTE	W12
	BYTE		N12     Fs2 
	BYTE	W12
	BYTE		        Gn2 
	BYTE	W12
// 048   ----------------------------------------
	BYTE		N06     An2 
	BYTE	W12
	BYTE		N06   
	BYTE	W12
	BYTE		N12   
	BYTE	W18
	BYTE		N06   
	BYTE	W12
	BYTE		N06   
	BYTE	W06
	BYTE		N06   
	BYTE	W12
	BYTE		N12   
	BYTE	W12
	BYTE		        En2 
	BYTE	W12
// 049   ----------------------------------------
	BYTE		N06     An2 
	BYTE	W12
	BYTE		N06   
	BYTE	W12
	BYTE		N12   
	BYTE	W24
	BYTE		        As2 
	BYTE	W12
	BYTE		        Bn2 
	BYTE	W12
	BYTE		        Cn3 
	BYTE	W12
	BYTE		        Cs3 
	BYTE	W12
// 050   ----------------------------------------
DefaultDuel_2_050:
	BYTE		N06     Dn2   v100
	BYTE	W12
	BYTE		N06   
	BYTE	W12
	BYTE		N12   
	BYTE	W18
	BYTE		N06   
	BYTE	W12
	BYTE		N06   
	BYTE	W12
	BYTE		N06   
	BYTE	W06
	BYTE		N06   
	BYTE	W12
	BYTE		N06   
	BYTE	W06
	BYTE		N06   
	BYTE	W06
	BYTE	PEND
// 051   ----------------------------------------
DefaultDuel_2_051:
	BYTE		N06     En2   v100
	BYTE	W12
	BYTE		N06   
	BYTE	W12
	BYTE		N12   
	BYTE	W18
	BYTE		N06   
	BYTE	W12
	BYTE		N06   
	BYTE	W12
	BYTE		N06   
	BYTE	W06
	BYTE		N06   
	BYTE	W12
	BYTE		N06   
	BYTE	W06
	BYTE		N06   
	BYTE	W06
	BYTE	PEND
// 052   ----------------------------------------
DefaultDuel_2_052:
	BYTE		N06     Fs2   v100
	BYTE	W12
	BYTE		N06   
	BYTE	W12
	BYTE		N12   
	BYTE	W18
	BYTE		N06   
	BYTE	W12
	BYTE		N06   
	BYTE	W12
	BYTE		N06   
	BYTE	W06
	BYTE		N06   
	BYTE	W12
	BYTE		N06   
	BYTE	W06
	BYTE		        Gn2 
	BYTE	W06
	BYTE	PEND
// 053   ----------------------------------------
DefaultDuel_2_053:
	BYTE		N06     Gn2   v100
	BYTE	W12
	BYTE		N06   
	BYTE	W12
	BYTE		N12   
	BYTE	W18
	BYTE		N06   
	BYTE	W12
	BYTE		N06   
	BYTE	W12
	BYTE		N06   
	BYTE	W06
	BYTE		N06   
	BYTE	W12
	BYTE		        En2 
	BYTE	W06
	BYTE		N06   
	BYTE	W06
	BYTE	PEND
// 054   ----------------------------------------
DefaultDuel_2_054:
	BYTE		N06     Dn2   v100
	BYTE	W12
	BYTE		N06   
	BYTE	W12
	BYTE		N12   
	BYTE	W18
	BYTE		N06   
	BYTE	W12
	BYTE		N06   
	BYTE	W12
	BYTE		N06   
	BYTE	W06
	BYTE		N06   
	BYTE	W12
	BYTE		        Bn1 
	BYTE	W06
	BYTE		N06   
	BYTE	W06
	BYTE	PEND
// 055   ----------------------------------------
DefaultDuel_2_055:
	BYTE		N06     Bn2   v100
	BYTE	W12
	BYTE		N06   
	BYTE	W12
	BYTE		N12   
	BYTE	W18
	BYTE		N06   
	BYTE	W12
	BYTE		N06   
	BYTE	W12
	BYTE		N06   
	BYTE	W06
	BYTE		        Gn2 
	BYTE	W12
	BYTE		N12     Fs2 
	BYTE	W12
	BYTE	PEND
// 056   ----------------------------------------
DefaultDuel_2_056:
	BYTE		N06     En2   v100
	BYTE	W12
	BYTE		N06   
	BYTE	W12
	BYTE		N12   
	BYTE	W18
	BYTE		N06   
	BYTE	W12
	BYTE		N06   
	BYTE	W06
	BYTE		N12     Fs2 
	BYTE	W12
	BYTE		        Gn2 
	BYTE	W12
	BYTE		        Gs2 
	BYTE	W12
	BYTE	PEND
// 057   ----------------------------------------
DefaultDuel_2_057:
	BYTE		N06     An2   v100
	BYTE	W12
	BYTE		N06   
	BYTE	W12
	BYTE		N12   
	BYTE	W15
	BYTE		N03     As2 
	BYTE	W03
	BYTE		N06     Bn2 
	BYTE	W12
	BYTE		N06   
	BYTE	W06
	BYTE		N12     Fs2 
	BYTE	W12
	BYTE		        En2 
	BYTE	W12
	BYTE		        Cs2 
	BYTE	W12
	BYTE	PEND
// 058   ----------------------------------------
	BYTE	PATT
	 POIN2	DefaultDuel_2_050
// 059   ----------------------------------------
	BYTE	PATT
	 POIN2	DefaultDuel_2_051
// 060   ----------------------------------------
	BYTE	PATT
	 POIN2	DefaultDuel_2_052
// 061   ----------------------------------------
	BYTE	PATT
	 POIN2	DefaultDuel_2_053
// 062   ----------------------------------------
	BYTE	PATT
	 POIN2	DefaultDuel_2_054
// 063   ----------------------------------------
	BYTE	PATT
	 POIN2	DefaultDuel_2_055
// 064   ----------------------------------------
	BYTE	PATT
	 POIN2	DefaultDuel_2_056
// 065   ----------------------------------------
	BYTE	PATT
	 POIN2	DefaultDuel_2_057
// 066   ----------------------------------------
	BYTE	PATT
	 POIN2	DefaultDuel_2_050
// 067   ----------------------------------------
	BYTE	PATT
	 POIN2	DefaultDuel_2_050
// 068   ----------------------------------------
	BYTE		N06     Dn2   v100
	BYTE	W12
	BYTE		N06   
	BYTE	W12
	BYTE		N12   
	BYTE	W18
	BYTE		N06   
	BYTE	W12
	BYTE		N06   
	BYTE	W12
	BYTE		N06   
	BYTE	W06
	BYTE		N06   
	BYTE	W12
	BYTE		N84     An2 
	BYTE	W12
// 069   ----------------------------------------
	BYTE	W72
	BYTE	GoTo
	 POIN2	DefaultDuel_2_B1
DefaultDuel_2_B2:
	BYTE	W06
	BYTE	FINE

//**************** Track 3 (Midi-Chn.3) ****************//

DefaultDuel_3:
	BYTE	KEYSH   DefaultDuel_key+0
DefaultDuel_3_B1:
// 000   ----------------------------------------
	BYTE		VOICE   45
	BYTE		VOL     90*DefaultDuel_mvl/mxv
	BYTE		PAN     c_v-64
	BYTE	W96
// 001   ----------------------------------------
	BYTE	W96
// 002   ----------------------------------------
	BYTE	W96
// 003   ----------------------------------------
	BYTE	W96
// 004   ----------------------------------------
DefaultDuel_3_004:
	BYTE	W24
	BYTE		N06     Dn3   v100
	BYTE	W24
	BYTE		        Dn3   v060
	BYTE	W24
	BYTE		        Dn3   v048
	BYTE	W24
	BYTE	PEND
// 005   ----------------------------------------
	BYTE	PATT
	 POIN2	DefaultDuel_3_004
// 006   ----------------------------------------
	BYTE	PATT
	 POIN2	DefaultDuel_3_004
// 007   ----------------------------------------
	BYTE	PATT
	 POIN2	DefaultDuel_3_004
// 008   ----------------------------------------
	BYTE	PATT
	 POIN2	DefaultDuel_3_004
// 009   ----------------------------------------
DefaultDuel_3_009:
	BYTE	W24
	BYTE		N06     Cn3   v100
	BYTE	W24
	BYTE		        Cn3   v060
	BYTE	W24
	BYTE		        Cn3   v048
	BYTE	W24
	BYTE	PEND
// 010   ----------------------------------------
	BYTE	PATT
	 POIN2	DefaultDuel_3_004
// 011   ----------------------------------------
	BYTE	PATT
	 POIN2	DefaultDuel_3_004
// 012   ----------------------------------------
	BYTE	PATT
	 POIN2	DefaultDuel_3_004
// 013   ----------------------------------------
	BYTE	PATT
	 POIN2	DefaultDuel_3_009
// 014   ----------------------------------------
	BYTE	PATT
	 POIN2	DefaultDuel_3_004
// 015   ----------------------------------------
	BYTE	PATT
	 POIN2	DefaultDuel_3_004
// 016   ----------------------------------------
DefaultDuel_3_016:
	BYTE	W24
	BYTE		N06     Bn2   v100
	BYTE	W24
	BYTE		        Bn2   v060
	BYTE	W24
	BYTE		        Bn2   v048
	BYTE	W24
	BYTE	PEND
// 017   ----------------------------------------
	BYTE	PATT
	 POIN2	DefaultDuel_3_016
// 018   ----------------------------------------
DefaultDuel_3_018:
	BYTE	W24
	BYTE		N06     Cs3   v100
	BYTE	W24
	BYTE		        Cs3   v060
	BYTE	W24
	BYTE		        Cs3   v048
	BYTE	W24
	BYTE	PEND
// 019   ----------------------------------------
DefaultDuel_3_019:
	BYTE	W24
	BYTE		N06     Cs3   v100
	BYTE		N06     En3 
	BYTE	W24
	BYTE		        Cs3   v060
	BYTE		N06     En3 
	BYTE	W24
	BYTE		        Cs3   v048
	BYTE		N06     En3 
	BYTE	W24
	BYTE	PEND
// 020   ----------------------------------------
	BYTE	PATT
	 POIN2	DefaultDuel_3_016
// 021   ----------------------------------------
	BYTE	PATT
	 POIN2	DefaultDuel_3_016
// 022   ----------------------------------------
DefaultDuel_3_022:
	BYTE	W24
	BYTE		N06     An2   v100
	BYTE	W24
	BYTE		        An2   v060
	BYTE	W24
	BYTE		        An2   v048
	BYTE	W24
	BYTE	PEND
// 023   ----------------------------------------
	BYTE	PATT
	 POIN2	DefaultDuel_3_004
// 024   ----------------------------------------
	BYTE	PATT
	 POIN2	DefaultDuel_3_004
// 025   ----------------------------------------
	BYTE	PATT
	 POIN2	DefaultDuel_3_009
// 026   ----------------------------------------
	BYTE	PATT
	 POIN2	DefaultDuel_3_004
// 027   ----------------------------------------
	BYTE	PATT
	 POIN2	DefaultDuel_3_004
// 028   ----------------------------------------
	BYTE	PATT
	 POIN2	DefaultDuel_3_004
// 029   ----------------------------------------
	BYTE	PATT
	 POIN2	DefaultDuel_3_009
// 030   ----------------------------------------
	BYTE	PATT
	 POIN2	DefaultDuel_3_004
// 031   ----------------------------------------
	BYTE	PATT
	 POIN2	DefaultDuel_3_004
// 032   ----------------------------------------
	BYTE	PATT
	 POIN2	DefaultDuel_3_016
// 033   ----------------------------------------
	BYTE	PATT
	 POIN2	DefaultDuel_3_016
// 034   ----------------------------------------
	BYTE	PATT
	 POIN2	DefaultDuel_3_018
// 035   ----------------------------------------
	BYTE	PATT
	 POIN2	DefaultDuel_3_019
// 036   ----------------------------------------
	BYTE	PATT
	 POIN2	DefaultDuel_3_016
// 037   ----------------------------------------
	BYTE	PATT
	 POIN2	DefaultDuel_3_016
// 038   ----------------------------------------
	BYTE	PATT
	 POIN2	DefaultDuel_3_022
// 039   ----------------------------------------
	BYTE	PATT
	 POIN2	DefaultDuel_3_004
// 040   ----------------------------------------
DefaultDuel_3_040:
	BYTE	W54
	BYTE		N06     Gn2   v100
	BYTE	W06
	BYTE		        Cn3 
	BYTE	W06
	BYTE		        En3 
	BYTE	W06
	BYTE		        Gn3 
	BYTE	W24
	BYTE	PEND
// 041   ----------------------------------------
	BYTE	W96
// 042   ----------------------------------------
	BYTE	W54
	BYTE		        An2 
	BYTE	W06
	BYTE		        Dn3 
	BYTE	W06
	BYTE		        Fs3 
	BYTE	W06
	BYTE		        An3 
	BYTE	W24
// 043   ----------------------------------------
	BYTE	W96
// 044   ----------------------------------------
	BYTE	PATT
	 POIN2	DefaultDuel_3_040
// 045   ----------------------------------------
	BYTE	W96
// 046   ----------------------------------------
	BYTE	W96
// 047   ----------------------------------------
	BYTE	W96
// 048   ----------------------------------------
	BYTE	W96
// 049   ----------------------------------------
	BYTE	W96
// 050   ----------------------------------------
	BYTE	W96
// 051   ----------------------------------------
	BYTE	W96
// 052   ----------------------------------------
	BYTE	W96
// 053   ----------------------------------------
	BYTE	W96
// 054   ----------------------------------------
	BYTE	W96
// 055   ----------------------------------------
	BYTE	W96
// 056   ----------------------------------------
	BYTE	W96
// 057   ----------------------------------------
	BYTE	W96
// 058   ----------------------------------------
	BYTE	W96
// 059   ----------------------------------------
	BYTE	W96
// 060   ----------------------------------------
	BYTE	W96
// 061   ----------------------------------------
	BYTE	W96
// 062   ----------------------------------------
	BYTE	W96
// 063   ----------------------------------------
	BYTE	W96
// 064   ----------------------------------------
	BYTE	W96
// 065   ----------------------------------------
	BYTE	W96
// 066   ----------------------------------------
	BYTE	W96
// 067   ----------------------------------------
	BYTE	W96
// 068   ----------------------------------------
	BYTE	W96
// 069   ----------------------------------------
	BYTE	W72
	BYTE	GoTo
	 POIN2	DefaultDuel_3_B1
DefaultDuel_3_B2:
	BYTE	W06
	BYTE	FINE

//**************** Track 4 (Midi-Chn.4) ****************//

DefaultDuel_4:
	BYTE	KEYSH   DefaultDuel_key+0
DefaultDuel_4_B1:
// 000   ----------------------------------------
	BYTE		VOICE   1
	BYTE		VOL     91*DefaultDuel_mvl/mxv
	BYTE		PAN     c_v+63
	BYTE	W96
// 001   ----------------------------------------
	BYTE	W96
// 002   ----------------------------------------
	BYTE	W96
// 003   ----------------------------------------
	BYTE	W96
// 004   ----------------------------------------
DefaultDuel_4_004:
	BYTE	W24
	BYTE		N06     An2   v100
	BYTE	W24
	BYTE		        An2   v060
	BYTE	W24
	BYTE		        An2   v048
	BYTE	W24
	BYTE	PEND
// 005   ----------------------------------------
	BYTE	PATT
	 POIN2	DefaultDuel_4_004
// 006   ----------------------------------------
	BYTE	PATT
	 POIN2	DefaultDuel_4_004
// 007   ----------------------------------------
	BYTE	PATT
	 POIN2	DefaultDuel_4_004
// 008   ----------------------------------------
	BYTE	PATT
	 POIN2	DefaultDuel_4_004
// 009   ----------------------------------------
DefaultDuel_4_009:
	BYTE	W24
	BYTE		N06     Gn2   v100
	BYTE	W24
	BYTE		        Gn2   v060
	BYTE	W24
	BYTE		        Gn2   v048
	BYTE	W24
	BYTE	PEND
// 010   ----------------------------------------
	BYTE	PATT
	 POIN2	DefaultDuel_4_004
// 011   ----------------------------------------
	BYTE	PATT
	 POIN2	DefaultDuel_4_004
// 012   ----------------------------------------
	BYTE	PATT
	 POIN2	DefaultDuel_4_004
// 013   ----------------------------------------
	BYTE	PATT
	 POIN2	DefaultDuel_4_009
// 014   ----------------------------------------
	BYTE	PATT
	 POIN2	DefaultDuel_4_004
// 015   ----------------------------------------
	BYTE	PATT
	 POIN2	DefaultDuel_4_004
// 016   ----------------------------------------
	BYTE	PATT
	 POIN2	DefaultDuel_4_009
// 017   ----------------------------------------
	BYTE	PATT
	 POIN2	DefaultDuel_4_009
// 018   ----------------------------------------
	BYTE	PATT
	 POIN2	DefaultDuel_4_004
// 019   ----------------------------------------
	BYTE	PATT
	 POIN2	DefaultDuel_4_004
// 020   ----------------------------------------
	BYTE	PATT
	 POIN2	DefaultDuel_4_009
// 021   ----------------------------------------
	BYTE	PATT
	 POIN2	DefaultDuel_4_009
// 022   ----------------------------------------
DefaultDuel_4_022:
	BYTE	W24
	BYTE		N06     Fs2   v100
	BYTE	W24
	BYTE		        Fs2   v060
	BYTE	W24
	BYTE		        Fs2   v048
	BYTE	W24
	BYTE	PEND
// 023   ----------------------------------------
	BYTE	PATT
	 POIN2	DefaultDuel_4_004
// 024   ----------------------------------------
	BYTE	PATT
	 POIN2	DefaultDuel_4_004
// 025   ----------------------------------------
	BYTE	PATT
	 POIN2	DefaultDuel_4_009
// 026   ----------------------------------------
	BYTE	PATT
	 POIN2	DefaultDuel_4_004
// 027   ----------------------------------------
	BYTE	PATT
	 POIN2	DefaultDuel_4_004
// 028   ----------------------------------------
	BYTE	PATT
	 POIN2	DefaultDuel_4_004
// 029   ----------------------------------------
	BYTE	PATT
	 POIN2	DefaultDuel_4_009
// 030   ----------------------------------------
	BYTE	PATT
	 POIN2	DefaultDuel_4_004
// 031   ----------------------------------------
	BYTE	PATT
	 POIN2	DefaultDuel_4_004
// 032   ----------------------------------------
	BYTE	PATT
	 POIN2	DefaultDuel_4_009
// 033   ----------------------------------------
	BYTE	PATT
	 POIN2	DefaultDuel_4_009
// 034   ----------------------------------------
	BYTE	PATT
	 POIN2	DefaultDuel_4_004
// 035   ----------------------------------------
	BYTE	PATT
	 POIN2	DefaultDuel_4_004
// 036   ----------------------------------------
	BYTE	PATT
	 POIN2	DefaultDuel_4_009
// 037   ----------------------------------------
	BYTE	PATT
	 POIN2	DefaultDuel_4_009
// 038   ----------------------------------------
	BYTE	PATT
	 POIN2	DefaultDuel_4_022
// 039   ----------------------------------------
	BYTE	PATT
	 POIN2	DefaultDuel_4_004
// 040   ----------------------------------------
DefaultDuel_4_040:
	BYTE	W54
	BYTE		N06     En2   v100
	BYTE	W06
	BYTE		        Gn2 
	BYTE	W06
	BYTE		        Cn3 
	BYTE	W06
	BYTE		        En3 
	BYTE	W24
	BYTE	PEND
// 041   ----------------------------------------
	BYTE	W96
// 042   ----------------------------------------
	BYTE	W54
	BYTE		        Dn2 
	BYTE	W06
	BYTE		        Fs2 
	BYTE	W06
	BYTE		        An2 
	BYTE	W06
	BYTE		        Dn3 
	BYTE	W24
// 043   ----------------------------------------
	BYTE	W96
// 044   ----------------------------------------
	BYTE	PATT
	 POIN2	DefaultDuel_4_040
// 045   ----------------------------------------
	BYTE	W96
// 046   ----------------------------------------
	BYTE	W96
// 047   ----------------------------------------
	BYTE	W96
// 048   ----------------------------------------
	BYTE	W96
// 049   ----------------------------------------
	BYTE	W96
// 050   ----------------------------------------
	BYTE	W96
// 051   ----------------------------------------
	BYTE	W96
// 052   ----------------------------------------
	BYTE	W96
// 053   ----------------------------------------
	BYTE	W96
// 054   ----------------------------------------
	BYTE	W96
// 055   ----------------------------------------
	BYTE	W96
// 056   ----------------------------------------
	BYTE	W96
// 057   ----------------------------------------
	BYTE	W96
// 058   ----------------------------------------
	BYTE	W96
// 059   ----------------------------------------
	BYTE	W96
// 060   ----------------------------------------
	BYTE	W96
// 061   ----------------------------------------
	BYTE	W96
// 062   ----------------------------------------
	BYTE	W96
// 063   ----------------------------------------
	BYTE	W96
// 064   ----------------------------------------
	BYTE	W96
// 065   ----------------------------------------
	BYTE	W96
// 066   ----------------------------------------
	BYTE	W96
// 067   ----------------------------------------
	BYTE	W96
// 068   ----------------------------------------
	BYTE	W96
// 069   ----------------------------------------
	BYTE	W72
	BYTE	GoTo
	 POIN2	DefaultDuel_4_B1
DefaultDuel_4_B2:
	BYTE	W06
	BYTE	FINE

//**************** Track 5 (Midi-Chn.5) ****************//

DefaultDuel_5:
	BYTE	KEYSH   DefaultDuel_key+0
DefaultDuel_5_B1:
// 000   ----------------------------------------
	BYTE		VOICE   68
	BYTE		VOL     127*DefaultDuel_mvl/mxv
	BYTE		PAN     c_v-12
	BYTE	W96
// 001   ----------------------------------------
	BYTE	W96
// 002   ----------------------------------------
	BYTE	W96
// 003   ----------------------------------------
	BYTE	W96
// 004   ----------------------------------------
	BYTE	W96
// 005   ----------------------------------------
	BYTE	W96
// 006   ----------------------------------------
	BYTE	W96
// 007   ----------------------------------------
	BYTE	W84
	BYTE		N06     Dn3   v100
	BYTE	W12
// 008   ----------------------------------------
DefaultDuel_5_008:
	BYTE		N66     Fs3   v100
	BYTE	W72
	BYTE		N12     Dn3 
	BYTE	W24
	BYTE	PEND
// 009   ----------------------------------------
DefaultDuel_5_009:
	BYTE		N44     En3   v100
	BYTE	W48
	BYTE		N18     Gn3 
	BYTE	W18
	BYTE		N12     Fs3 
	BYTE	W18
	BYTE		N06     En3 
	BYTE	W12
	BYTE	PEND
// 010   ----------------------------------------
DefaultDuel_5_010:
	BYTE		N12     Fs3   v100
	BYTE	W18
	BYTE		N06     An2 
	BYTE	W06
	BYTE		N06   
	BYTE	W12
	BYTE		N60     Dn3 
	BYTE	W60
	BYTE	PEND
// 011   ----------------------------------------
	BYTE	W84
	BYTE		N06   
	BYTE	W12
// 012   ----------------------------------------
	BYTE	PATT
	 POIN2	DefaultDuel_5_008
// 013   ----------------------------------------
	BYTE	PATT
	 POIN2	DefaultDuel_5_009
// 014   ----------------------------------------
DefaultDuel_5_014:
	BYTE		N12     Fs3   v100
	BYTE	W18
	BYTE		N06     An3 
	BYTE	W06
	BYTE		N72   
	BYTE	W72
	BYTE	PEND
// 015   ----------------------------------------
DefaultDuel_5_015:
	BYTE	W60
	BYTE		N06     Fs3   v100
	BYTE	W12
	BYTE		N06   
	BYTE	W06
	BYTE		        Gn3 
	BYTE	W06
	BYTE		        An3 
	BYTE	W12
	BYTE	PEND
// 016   ----------------------------------------
	BYTE		N96     Bn3 
	BYTE	W96
// 017   ----------------------------------------
DefaultDuel_5_017:
	BYTE	W24
	BYTE		N24     Bn3   v100
	BYTE	W24
	BYTE		N18     An3 
	BYTE	W24
	BYTE		        Gn3 
	BYTE	W24
	BYTE	PEND
// 018   ----------------------------------------
	BYTE		N96     An3 
	BYTE	W96
// 019   ----------------------------------------
DefaultDuel_5_019:
	BYTE	W24
	BYTE		N24     An3   v100
	BYTE	W24
	BYTE		        Gn3 
	BYTE	W24
	BYTE		N18     Fs3 
	BYTE	W24
	BYTE	PEND
// 020   ----------------------------------------
	BYTE		N96     Gn3 
	BYTE	W96
// 021   ----------------------------------------
DefaultDuel_5_021:
	BYTE	W24
	BYTE		N24     Gn3   v100
	BYTE	W24
	BYTE		        Fs3 
	BYTE	W24
	BYTE		N18     En3 
	BYTE	W24
	BYTE	PEND
// 022   ----------------------------------------
DefaultDuel_5_022:
	BYTE		N09     En3   v100
	BYTE	W12
	BYTE		N06     Dn3 
	BYTE	W06
	BYTE		N78   
	BYTE	W78
	BYTE	PEND
// 023   ----------------------------------------
	BYTE	W84
	BYTE		N06   
	BYTE	W12
// 024   ----------------------------------------
	BYTE	PATT
	 POIN2	DefaultDuel_5_008
// 025   ----------------------------------------
	BYTE	PATT
	 POIN2	DefaultDuel_5_009
// 026   ----------------------------------------
	BYTE	PATT
	 POIN2	DefaultDuel_5_010
// 027   ----------------------------------------
	BYTE	W84
	BYTE		N06     Dn3   v100
	BYTE	W12
// 028   ----------------------------------------
	BYTE	PATT
	 POIN2	DefaultDuel_5_008
// 029   ----------------------------------------
	BYTE	PATT
	 POIN2	DefaultDuel_5_009
// 030   ----------------------------------------
	BYTE	PATT
	 POIN2	DefaultDuel_5_014
// 031   ----------------------------------------
	BYTE	PATT
	 POIN2	DefaultDuel_5_015
// 032   ----------------------------------------
	BYTE		N96     Bn3   v100
	BYTE	W96
// 033   ----------------------------------------
	BYTE	PATT
	 POIN2	DefaultDuel_5_017
// 034   ----------------------------------------
	BYTE		N96     An3   v100
	BYTE	W96
// 035   ----------------------------------------
	BYTE	PATT
	 POIN2	DefaultDuel_5_019
// 036   ----------------------------------------
	BYTE		N96     Gn3   v100
	BYTE	W96
// 037   ----------------------------------------
	BYTE	PATT
	 POIN2	DefaultDuel_5_021
// 038   ----------------------------------------
	BYTE	PATT
	 POIN2	DefaultDuel_5_022
// 039   ----------------------------------------
	BYTE	W54
	BYTE		N12     Dn3   v100
	BYTE	W18
	BYTE		N06   
	BYTE	W12
	BYTE		        Cs3 
	BYTE	W12
// 040   ----------------------------------------
	BYTE		        Cn3 
	BYTE	W18
	BYTE		        Gn2 
	BYTE	W18
	BYTE		N06   
	BYTE	W60
// 041   ----------------------------------------
	BYTE		N06   
	BYTE	W18
	BYTE		N06   
	BYTE	W18
	BYTE		N06   
	BYTE	W18
	BYTE		N18     Cn3 
	BYTE	W18
	BYTE		N06     Gn2 
	BYTE	W12
	BYTE		        Cn3 
	BYTE	W12
// 042   ----------------------------------------
	BYTE		        An2 
	BYTE	W18
	BYTE		N06   
	BYTE	W18
	BYTE		N06   
	BYTE	W60
// 043   ----------------------------------------
	BYTE		N06   
	BYTE	W18
	BYTE		N06   
	BYTE	W18
	BYTE		N06   
	BYTE	W18
	BYTE		N12     Dn3 
	BYTE	W18
	BYTE		N06   
	BYTE	W12
	BYTE		        Cs3 
	BYTE	W12
// 044   ----------------------------------------
	BYTE		        Cn3 
	BYTE	W18
	BYTE		        Gn2 
	BYTE	W18
	BYTE		N06   
	BYTE	W18
	BYTE		N06   
	BYTE	W42
// 045   ----------------------------------------
	BYTE		N06   
	BYTE	W18
	BYTE		N06   
	BYTE	W18
	BYTE		N06   
	BYTE	W18
	BYTE		N18     Bn3 
	BYTE	W18
	BYTE		N06     An3 
	BYTE	W12
	BYTE		        Gn3 
	BYTE	W12
// 046   ----------------------------------------
	BYTE		TIE     An3 
	BYTE	W96
// 047   ----------------------------------------
	BYTE	W36
	BYTE		EOT   
	BYTE	W12
	BYTE		N18     Dn4 
	BYTE	W18
	BYTE		N06     Cs4 
	BYTE	W18
	BYTE		        Bn3 
	BYTE	W12
// 048   ----------------------------------------
	BYTE		N12   
	BYTE	W18
	BYTE		TIE     An3 
	BYTE	W78
// 049   ----------------------------------------
	BYTE	W36
	BYTE		EOT   
	BYTE	W60
// 050   ----------------------------------------
DefaultDuel_5_050:
	BYTE		N60     Fs3   v100
	BYTE	W72
	BYTE		N06     Gn3 
	BYTE	W12
	BYTE		        An3 
	BYTE	W12
	BYTE	PEND
// 051   ----------------------------------------
DefaultDuel_5_051:
	BYTE		N12     Bn3   v100
	BYTE	W24
	BYTE		N48     Fs4 
	BYTE	W48
	BYTE		N06     En4 
	BYTE	W12
	BYTE		        Dn4 
	BYTE	W12
	BYTE	PEND
// 052   ----------------------------------------
DefaultDuel_5_052:
	BYTE		N12     Cs4   v100
	BYTE	W18
	BYTE		N54     An3 
	BYTE	W54
	BYTE		N06     Fs3 
	BYTE	W12
	BYTE		N54     Bn3 
	BYTE	W12
	BYTE	PEND
// 053   ----------------------------------------
DefaultDuel_5_053:
	BYTE	W48
	BYTE		N24     An3   v100
	BYTE	W24
	BYTE		        Gn3 
	BYTE	W24
	BYTE	PEND
// 054   ----------------------------------------
DefaultDuel_5_054:
	BYTE		N60     Fs3   v100
	BYTE	W60
	BYTE		N06     Gn3 
	BYTE	W12
	BYTE		        An3 
	BYTE	W12
	BYTE		N60     Dn3 
	BYTE	W12
	BYTE	PEND
// 055   ----------------------------------------
	BYTE	W48
	BYTE		N12     En3 
	BYTE	W12
	BYTE		N09     Fs3 
	BYTE	W24
	BYTE		TIE     An3 
	BYTE	W12
// 056   ----------------------------------------
	BYTE	W96
// 057   ----------------------------------------
	BYTE	W36
	BYTE		EOT   
	BYTE	W60
// 058   ----------------------------------------
	BYTE	PATT
	 POIN2	DefaultDuel_5_050
// 059   ----------------------------------------
	BYTE	PATT
	 POIN2	DefaultDuel_5_051
// 060   ----------------------------------------
	BYTE	PATT
	 POIN2	DefaultDuel_5_052
// 061   ----------------------------------------
	BYTE	PATT
	 POIN2	DefaultDuel_5_053
// 062   ----------------------------------------
	BYTE	PATT
	 POIN2	DefaultDuel_5_054
// 063   ----------------------------------------
	BYTE	W48
	BYTE		N12     En3   v100
	BYTE	W12
	BYTE		N09     Fs3 
	BYTE	W24
	BYTE		N36     An3 
	BYTE	W12
// 064   ----------------------------------------
	BYTE	W24
	BYTE		N12     Gn3 
	BYTE	W12
	BYTE		        Fs3 
	BYTE	W24
	BYTE		        En3 
	BYTE	W24
	BYTE		N36     Gn3 
	BYTE	W12
// 065   ----------------------------------------
	BYTE	W24
	BYTE		N12     Fs3 
	BYTE	W12
	BYTE		        En3 
	BYTE	W24
	BYTE		        Dn3 
	BYTE	W24
	BYTE		TIE   
	BYTE	W12
// 066   ----------------------------------------
	BYTE	W96
// 067   ----------------------------------------
	BYTE	W84
	BYTE		EOT   
	BYTE	W12
// 068   ----------------------------------------
	BYTE		N72   
	BYTE	W84
	BYTE		N84   
	BYTE	W12
// 069   ----------------------------------------
	BYTE	W72
	BYTE	GoTo
	 POIN2	DefaultDuel_5_B1
DefaultDuel_5_B2:
	BYTE	W06
	BYTE	FINE

//**************** Track 6 (Midi-Chn.6) ****************//

DefaultDuel_6:
	BYTE	KEYSH   DefaultDuel_key+0
DefaultDuel_6_B1:
// 000   ----------------------------------------
	BYTE		VOICE   29
	BYTE		VOL     127*DefaultDuel_mvl/mxv
	BYTE		PAN     c_v+24
	BYTE	W96
// 001   ----------------------------------------
	BYTE	W96
// 002   ----------------------------------------
	BYTE	W96
// 003   ----------------------------------------
	BYTE	W96
// 004   ----------------------------------------
	BYTE	W96
// 005   ----------------------------------------
	BYTE	W96
// 006   ----------------------------------------
	BYTE	W96
// 007   ----------------------------------------
	BYTE	W96
// 008   ----------------------------------------
	BYTE	W96
// 009   ----------------------------------------
	BYTE	W96
// 010   ----------------------------------------
	BYTE	W96
// 011   ----------------------------------------
	BYTE	W96
// 012   ----------------------------------------
	BYTE	W96
// 013   ----------------------------------------
	BYTE	W96
// 014   ----------------------------------------
	BYTE	W96
// 015   ----------------------------------------
	BYTE	W96
// 016   ----------------------------------------
	BYTE	W96
// 017   ----------------------------------------
	BYTE	W96
// 018   ----------------------------------------
	BYTE	W96
// 019   ----------------------------------------
	BYTE	W96
// 020   ----------------------------------------
	BYTE	W96
// 021   ----------------------------------------
	BYTE	W96
// 022   ----------------------------------------
	BYTE	W96
// 023   ----------------------------------------
	BYTE	W84
	BYTE		N06     An2   v100
	BYTE	W12
// 024   ----------------------------------------
DefaultDuel_6_024:
	BYTE		N66     Dn3   v100
	BYTE	W72
	BYTE		N12     An2 
	BYTE	W24
	BYTE	PEND
// 025   ----------------------------------------
DefaultDuel_6_025:
	BYTE		N44     Cn3   v100
	BYTE	W48
	BYTE		N18     En3 
	BYTE	W18
	BYTE		N12     Dn3 
	BYTE	W18
	BYTE		N06     Cn3 
	BYTE	W12
	BYTE	PEND
// 026   ----------------------------------------
	BYTE		N12     Dn3 
	BYTE	W18
	BYTE		N06     Fs2 
	BYTE	W06
	BYTE		N06   
	BYTE	W12
	BYTE		N60     An2 
	BYTE	W60
// 027   ----------------------------------------
	BYTE	W84
	BYTE		N06   
	BYTE	W12
// 028   ----------------------------------------
	BYTE	PATT
	 POIN2	DefaultDuel_6_024
// 029   ----------------------------------------
	BYTE	PATT
	 POIN2	DefaultDuel_6_025
// 030   ----------------------------------------
	BYTE		N12     Dn3   v100
	BYTE	W18
	BYTE		N06     Fs3 
	BYTE	W06
	BYTE		N72   
	BYTE	W72
// 031   ----------------------------------------
	BYTE	W60
	BYTE		N06     Dn3 
	BYTE	W12
	BYTE		N06   
	BYTE	W06
	BYTE		        En3 
	BYTE	W06
	BYTE		        Fs3 
	BYTE	W12
// 032   ----------------------------------------
	BYTE		N96     Gn3 
	BYTE	W96
// 033   ----------------------------------------
	BYTE	W24
	BYTE		N24   
	BYTE	W24
	BYTE		N18     Fs3 
	BYTE	W24
	BYTE		        En3 
	BYTE	W24
// 034   ----------------------------------------
	BYTE		N96     Fs3 
	BYTE	W96
// 035   ----------------------------------------
	BYTE	W24
	BYTE		N24   
	BYTE	W24
	BYTE		        En3 
	BYTE	W24
	BYTE		N18     Dn3 
	BYTE	W24
// 036   ----------------------------------------
	BYTE		N96     En3 
	BYTE	W96
// 037   ----------------------------------------
	BYTE	W24
	BYTE		N24     Bn2 
	BYTE	W24
	BYTE		        An2 
	BYTE	W24
	BYTE		N18     Gn2 
	BYTE	W24
// 038   ----------------------------------------
	BYTE		N09   
	BYTE	W12
	BYTE		N06     Fs2 
	BYTE	W06
	BYTE		N78   
	BYTE	W78
// 039   ----------------------------------------
	BYTE	W54
	BYTE		N12     An2 
	BYTE	W18
	BYTE		N06   
	BYTE	W12
	BYTE		        Gs2 
	BYTE	W12
// 040   ----------------------------------------
	BYTE		        Gn2 
	BYTE	W18
	BYTE		        Cn2 
	BYTE	W18
	BYTE		N06   
	BYTE	W60
// 041   ----------------------------------------
	BYTE		N06   
	BYTE	W18
	BYTE		N06   
	BYTE	W18
	BYTE		N06   
	BYTE	W18
	BYTE		N18     Gn2 
	BYTE	W18
	BYTE		N06     Cn2 
	BYTE	W12
	BYTE		        Gn2 
	BYTE	W12
// 042   ----------------------------------------
	BYTE		        Dn2 
	BYTE	W18
	BYTE		N06   
	BYTE	W18
	BYTE		N06   
	BYTE	W60
// 043   ----------------------------------------
	BYTE		N06   
	BYTE	W18
	BYTE		N06   
	BYTE	W18
	BYTE		N06   
	BYTE	W18
	BYTE		N12     An2 
	BYTE	W18
	BYTE		N06   
	BYTE	W12
	BYTE		        Gs2 
	BYTE	W12
// 044   ----------------------------------------
	BYTE		        Gn2 
	BYTE	W18
	BYTE		        Cn2 
	BYTE	W18
	BYTE		N06   
	BYTE	W18
	BYTE		N06   
	BYTE	W42
// 045   ----------------------------------------
	BYTE		N06   
	BYTE	W18
	BYTE		N06   
	BYTE	W18
	BYTE		N06   
	BYTE	W18
	BYTE		N18     Gn3 
	BYTE	W18
	BYTE		N06     Fs3 
	BYTE	W12
	BYTE		        Dn3 
	BYTE	W12
// 046   ----------------------------------------
	BYTE		TIE     En3 
	BYTE	W96
// 047   ----------------------------------------
	BYTE	W36
	BYTE		EOT   
	BYTE	W12
	BYTE		N18     An3 
	BYTE	W18
	BYTE		N06     Gn3 
	BYTE	W18
	BYTE		        En3 
	BYTE	W12
// 048   ----------------------------------------
	BYTE		N12   
	BYTE	W18
	BYTE		N78     Dn3 
	BYTE	W78
// 049   ----------------------------------------
	BYTE		N36     Cs3 
	BYTE	W96
// 050   ----------------------------------------
DefaultDuel_6_050:
	BYTE		N60     Dn3   v100
	BYTE	W72
	BYTE		N06     En3 
	BYTE	W12
	BYTE		        Fs3 
	BYTE	W12
	BYTE	PEND
// 051   ----------------------------------------
DefaultDuel_6_051:
	BYTE		N12     Gn3   v100
	BYTE	W24
	BYTE		N48     Dn4 
	BYTE	W48
	BYTE		N06     Cs4 
	BYTE	W12
	BYTE		        Bn3 
	BYTE	W12
	BYTE	PEND
// 052   ----------------------------------------
DefaultDuel_6_052:
	BYTE		N12     An3   v100
	BYTE	W18
	BYTE		N54     Fs3 
	BYTE	W54
	BYTE		N06     Dn3 
	BYTE	W12
	BYTE		N54     Gn3 
	BYTE	W12
	BYTE	PEND
// 053   ----------------------------------------
DefaultDuel_6_053:
	BYTE	W48
	BYTE		N24     Fs3   v100
	BYTE	W24
	BYTE		        En3 
	BYTE	W24
	BYTE	PEND
// 054   ----------------------------------------
DefaultDuel_6_054:
	BYTE		N60     Dn3   v100
	BYTE	W60
	BYTE		N06     En3 
	BYTE	W12
	BYTE		        Fs3 
	BYTE	W12
	BYTE		N60     Bn2 
	BYTE	W12
	BYTE	PEND
// 055   ----------------------------------------
	BYTE	W48
	BYTE		N12     Cs3 
	BYTE	W12
	BYTE		N09     Dn3 
	BYTE	W24
	BYTE		TIE   
	BYTE	W12
// 056   ----------------------------------------
	BYTE	W96
	BYTE		EOT   
// 057   ----------------------------------------
	BYTE		N48     Cs3 
	BYTE	W96
// 058   ----------------------------------------
	BYTE	PATT
	 POIN2	DefaultDuel_6_050
// 059   ----------------------------------------
	BYTE	PATT
	 POIN2	DefaultDuel_6_051
// 060   ----------------------------------------
	BYTE	PATT
	 POIN2	DefaultDuel_6_052
// 061   ----------------------------------------
	BYTE	PATT
	 POIN2	DefaultDuel_6_053
// 062   ----------------------------------------
	BYTE	PATT
	 POIN2	DefaultDuel_6_054
// 063   ----------------------------------------
	BYTE	W48
	BYTE		N12     Cs3   v100
	BYTE	W12
	BYTE		N09     Dn3 
	BYTE	W24
	BYTE		N36     Fs3 
	BYTE	W12
// 064   ----------------------------------------
	BYTE	W24
	BYTE		N12     En3 
	BYTE	W12
	BYTE		        Dn3 
	BYTE	W24
	BYTE		        Cs3 
	BYTE	W24
	BYTE		N36     En3 
	BYTE	W12
// 065   ----------------------------------------
	BYTE	W24
	BYTE		N12     Dn3 
	BYTE	W12
	BYTE		        Cs3 
	BYTE	W24
	BYTE		        Bn2 
	BYTE	W24
	BYTE		        An2 
	BYTE	W12
// 066   ----------------------------------------
	BYTE		N84     Gn2 
	BYTE	W84
	BYTE		N96     Fs2 
	BYTE	W12
// 067   ----------------------------------------
	BYTE	W96
// 068   ----------------------------------------
	BYTE		N72     Gn2 
	BYTE	W84
	BYTE		N84     An2 
	BYTE	W12
// 069   ----------------------------------------
	BYTE	W72
	BYTE	GoTo
	 POIN2	DefaultDuel_6_B1
DefaultDuel_6_B2:
	BYTE	W06
	BYTE	FINE

//**************** Track 7 (Midi-Chn.9) ****************//

DefaultDuel_7:
	BYTE	KEYSH   DefaultDuel_key+0
DefaultDuel_7_B1:
// 000   ----------------------------------------
	BYTE		VOICE   123
	BYTE		VOL     113*DefaultDuel_mvl/mxv
	BYTE		PAN     c_v+0
	BYTE		N06     Cn1   v120
	BYTE		N06     Fs1   v100
	BYTE		N24     Cs2 
	BYTE	W12
	BYTE		N06     As1 
	BYTE	W06
	BYTE		        Fs1 
	BYTE	W06
	BYTE		N06   
	BYTE	W06
	BYTE		        Cn1   v120
	BYTE	W06
	BYTE		        Fs1   v100
	BYTE	W12
	BYTE		N06   
	BYTE	W06
	BYTE		        Cn1   v120
	BYTE		N06     Fs1   v100
	BYTE	W06
	BYTE		        As1 
	BYTE	W12
	BYTE		        En0 
	BYTE		N06     Gs1 
	BYTE	W12
	BYTE		        Fs1 
	BYTE	W06
	BYTE		N06   
	BYTE	W06
// 001   ----------------------------------------
DefaultDuel_7_001:
	BYTE		N06     Cn1   v120
	BYTE		N06     Fs1   v100
	BYTE	W12
	BYTE		        As1 
	BYTE	W06
	BYTE		        Fs1 
	BYTE	W06
	BYTE		N06   
	BYTE	W06
	BYTE		        Cn1   v120
	BYTE	W06
	BYTE		        Fs1   v100
	BYTE	W12
	BYTE		N06   
	BYTE	W06
	BYTE		        Cn1   v120
	BYTE		N06     Fs1   v100
	BYTE	W06
	BYTE		        As1 
	BYTE	W12
	BYTE		        En0 
	BYTE		N06     Gs1 
	BYTE	W12
	BYTE		        Fs1 
	BYTE	W06
	BYTE		N06   
	BYTE	W06
	BYTE	PEND
// 002   ----------------------------------------
	BYTE	PATT
	 POIN2	DefaultDuel_7_001
// 003   ----------------------------------------
	BYTE		N06     Cn1   v120
	BYTE		N06     Fs1   v100
	BYTE	W12
	BYTE		        As1 
	BYTE	W06
	BYTE		        Fs1 
	BYTE	W06
	BYTE		N06   
	BYTE	W06
	BYTE		        Cn1   v120
	BYTE	W06
	BYTE		        Fs1   v100
	BYTE	W12
	BYTE		N06   
	BYTE	W06
	BYTE		        En1 
	BYTE		N06     Fs1 
	BYTE	W06
	BYTE		        As1 
	BYTE	W06
	BYTE		N03     En1 
	BYTE	W03
	BYTE		N03   
	BYTE	W03
	BYTE		N06   
	BYTE		N06     Gs1 
	BYTE	W06
	BYTE		        En1 
	BYTE	W06
	BYTE		N06   
	BYTE		N06     Fs1 
	BYTE	W06
	BYTE		N06   
	BYTE	W06
// 004   ----------------------------------------
DefaultDuel_7_004:
	BYTE		N06     Cn1   v120
	BYTE		N06     Fs1   v100
	BYTE	W12
	BYTE		N06   
	BYTE	W06
	BYTE		N06   
	BYTE	W06
	BYTE		        En1   v116
	BYTE		N06     Fs1   v100
	BYTE	W12
	BYTE		        As1 
	BYTE	W12
	BYTE		        Cn1   v120
	BYTE		N06     Fs1   v100
	BYTE	W06
	BYTE		N06   
	BYTE	W06
	BYTE		        As1 
	BYTE	W12
	BYTE		        En1   v116
	BYTE		N06     Fs1   v100
	BYTE	W12
	BYTE		N06   
	BYTE	W06
	BYTE		N06   
	BYTE	W06
	BYTE	PEND
// 005   ----------------------------------------
	BYTE	PATT
	 POIN2	DefaultDuel_7_004
// 006   ----------------------------------------
	BYTE	PATT
	 POIN2	DefaultDuel_7_004
// 007   ----------------------------------------
	BYTE		N06     Cn1   v120
	BYTE		N06     Fs1   v100
	BYTE		N24     En2 
	BYTE	W12
	BYTE		N06     Fs1 
	BYTE	W06
	BYTE		N06   
	BYTE	W06
	BYTE		        En1   v116
	BYTE		N06     Fs1   v100
	BYTE	W12
	BYTE		        As1 
	BYTE	W12
	BYTE		        Cn1   v120
	BYTE		N06     Fs1   v100
	BYTE	W06
	BYTE		        En1   v116
	BYTE		N06     Fs1   v100
	BYTE	W06
	BYTE		        As1 
	BYTE	W06
	BYTE		N03     En1   v116
	BYTE	W03
	BYTE		N03   
	BYTE	W03
	BYTE		N06   
	BYTE		N06     Fs1   v100
	BYTE	W06
	BYTE		        En1   v116
	BYTE	W06
	BYTE		N06   
	BYTE		N06     Fs1   v100
	BYTE	W06
	BYTE		N06   
	BYTE	W06
// 008   ----------------------------------------
DefaultDuel_7_008:
	BYTE		N06     Cn1   v120
	BYTE		N06     Fs1   v100
	BYTE		N24     Cs2 
	BYTE	W12
	BYTE		N06     Fs1 
	BYTE	W06
	BYTE		N06   
	BYTE	W06
	BYTE		        En1   v116
	BYTE		N06     Fs1   v100
	BYTE	W12
	BYTE		        As1 
	BYTE	W12
	BYTE		        Cn1   v120
	BYTE		N06     Fs1   v100
	BYTE	W06
	BYTE		N06   
	BYTE	W06
	BYTE		        As1 
	BYTE	W12
	BYTE		        En1   v116
	BYTE		N06     Fs1   v100
	BYTE	W12
	BYTE		N06   
	BYTE	W06
	BYTE		N06   
	BYTE	W06
	BYTE	PEND
// 009   ----------------------------------------
	BYTE	PATT
	 POIN2	DefaultDuel_7_004
// 010   ----------------------------------------
	BYTE	PATT
	 POIN2	DefaultDuel_7_004
// 011   ----------------------------------------
DefaultDuel_7_011:
	BYTE		N06     Cn1   v120
	BYTE		N06     Fs1   v100
	BYTE		N24     En2 
	BYTE	W12
	BYTE		N06     Fs1 
	BYTE	W06
	BYTE		N06   
	BYTE	W06
	BYTE		        En1   v116
	BYTE		N06     Fs1   v100
	BYTE	W12
	BYTE		        As1 
	BYTE	W12
	BYTE		        Cn1   v120
	BYTE		N06     Fs1   v100
	BYTE	W06
	BYTE		N06   
	BYTE	W06
	BYTE		        As1 
	BYTE	W12
	BYTE		        En1   v116
	BYTE		N06     Fs1   v100
	BYTE	W12
	BYTE		N06   
	BYTE	W06
	BYTE		N06   
	BYTE	W06
	BYTE	PEND
// 012   ----------------------------------------
	BYTE	PATT
	 POIN2	DefaultDuel_7_008
// 013   ----------------------------------------
	BYTE	PATT
	 POIN2	DefaultDuel_7_004
// 014   ----------------------------------------
	BYTE	PATT
	 POIN2	DefaultDuel_7_004
// 015   ----------------------------------------
	BYTE	PATT
	 POIN2	DefaultDuel_7_004
// 016   ----------------------------------------
	BYTE	PATT
	 POIN2	DefaultDuel_7_011
// 017   ----------------------------------------
	BYTE	PATT
	 POIN2	DefaultDuel_7_004
// 018   ----------------------------------------
	BYTE	PATT
	 POIN2	DefaultDuel_7_004
// 019   ----------------------------------------
	BYTE	PATT
	 POIN2	DefaultDuel_7_004
// 020   ----------------------------------------
	BYTE	PATT
	 POIN2	DefaultDuel_7_004
// 021   ----------------------------------------
	BYTE	PATT
	 POIN2	DefaultDuel_7_004
// 022   ----------------------------------------
	BYTE	PATT
	 POIN2	DefaultDuel_7_004
// 023   ----------------------------------------
	BYTE		N06     Cn1   v120
	BYTE		N06     Fs1   v100
	BYTE	W12
	BYTE		N06   
	BYTE	W06
	BYTE		N06   
	BYTE	W06
	BYTE		        En1   v116
	BYTE		N06     Fs1   v100
	BYTE	W12
	BYTE		        As1 
	BYTE	W12
	BYTE		        Cn1   v120
	BYTE		N06     Fs1   v100
	BYTE	W06
	BYTE		        En1   v116
	BYTE		N06     Fs1   v100
	BYTE	W06
	BYTE		        As1 
	BYTE	W06
	BYTE		N03     En1   v116
	BYTE	W03
	BYTE		N03   
	BYTE	W03
	BYTE		N06   
	BYTE		N06     Fs1   v100
	BYTE	W06
	BYTE		        En1   v116
	BYTE	W06
	BYTE		N06   
	BYTE		N06     Fs1   v100
	BYTE	W06
	BYTE		N06   
	BYTE	W06
// 024   ----------------------------------------
	BYTE	PATT
	 POIN2	DefaultDuel_7_008
// 025   ----------------------------------------
	BYTE	PATT
	 POIN2	DefaultDuel_7_004
// 026   ----------------------------------------
	BYTE	PATT
	 POIN2	DefaultDuel_7_004
// 027   ----------------------------------------
	BYTE	PATT
	 POIN2	DefaultDuel_7_011
// 028   ----------------------------------------
	BYTE	PATT
	 POIN2	DefaultDuel_7_008
// 029   ----------------------------------------
	BYTE	PATT
	 POIN2	DefaultDuel_7_004
// 030   ----------------------------------------
	BYTE	PATT
	 POIN2	DefaultDuel_7_004
// 031   ----------------------------------------
	BYTE	PATT
	 POIN2	DefaultDuel_7_004
// 032   ----------------------------------------
	BYTE	PATT
	 POIN2	DefaultDuel_7_011
// 033   ----------------------------------------
	BYTE	PATT
	 POIN2	DefaultDuel_7_004
// 034   ----------------------------------------
	BYTE	PATT
	 POIN2	DefaultDuel_7_004
// 035   ----------------------------------------
	BYTE	PATT
	 POIN2	DefaultDuel_7_004
// 036   ----------------------------------------
	BYTE	PATT
	 POIN2	DefaultDuel_7_004
// 037   ----------------------------------------
	BYTE	PATT
	 POIN2	DefaultDuel_7_004
// 038   ----------------------------------------
	BYTE	PATT
	 POIN2	DefaultDuel_7_004
// 039   ----------------------------------------
	BYTE		N06     Cn1   v120
	BYTE		N06     Fs1   v100
	BYTE	W12
	BYTE		N06   
	BYTE	W06
	BYTE		N06   
	BYTE	W06
	BYTE		        En1   v116
	BYTE		N06     Fs1   v100
	BYTE	W12
	BYTE		        As1 
	BYTE	W12
	BYTE		        Cn1   v120
	BYTE		N06     Fs1   v100
	BYTE	W06
	BYTE		        En1   v116
	BYTE		N06     Fs1   v100
	BYTE	W12
	BYTE		N03     En1   v116
	BYTE	W03
	BYTE		N03   
	BYTE	W03
	BYTE		N06   
	BYTE		N06     An2   v100
	BYTE	W06
	BYTE		        En1   v116
	BYTE	W06
	BYTE		N06   
	BYTE		N06     En2   v100
	BYTE	W06
	BYTE		        En1   v116
	BYTE	W06
// 040   ----------------------------------------
	BYTE		        Cn1   v120
	BYTE		N06     Cs2   v100
	BYTE	W12
	BYTE		        As1 
	BYTE	W06
	BYTE		        En1   v116
	BYTE	W06
	BYTE		        Gs1   v100
	BYTE	W06
	BYTE		        Cn1   v120
	BYTE	W06
	BYTE		        As1   v100
	BYTE	W12
	BYTE		        Fs1 
	BYTE	W12
	BYTE		N06   
	BYTE	W06
	BYTE		N06   
	BYTE	W06
	BYTE		        En1   v116
	BYTE		N06     Fs1   v100
	BYTE	W06
	BYTE		N06   
	BYTE	W06
	BYTE		        As1 
	BYTE	W12
// 041   ----------------------------------------
DefaultDuel_7_041:
	BYTE		N06     Cn1   v120
	BYTE		N06     Fs1   v100
	BYTE	W06
	BYTE		N06   
	BYTE	W06
	BYTE		        As1 
	BYTE	W06
	BYTE		        En1   v116
	BYTE	W06
	BYTE		        Fs1   v100
	BYTE	W06
	BYTE		        Cn1   v120
	BYTE		N06     Fs1   v100
	BYTE	W06
	BYTE		        As1 
	BYTE	W12
	BYTE		        Fs1 
	BYTE	W12
	BYTE		N06   
	BYTE	W06
	BYTE		N06   
	BYTE	W06
	BYTE		        En1   v116
	BYTE		N06     Fs1   v100
	BYTE	W06
	BYTE		N06   
	BYTE	W06
	BYTE		        As1 
	BYTE	W12
	BYTE	PEND
// 042   ----------------------------------------
	BYTE	PATT
	 POIN2	DefaultDuel_7_041
// 043   ----------------------------------------
	BYTE	PATT
	 POIN2	DefaultDuel_7_041
// 044   ----------------------------------------
	BYTE	PATT
	 POIN2	DefaultDuel_7_041
// 045   ----------------------------------------
	BYTE		N06     Cn1   v120
	BYTE		N06     Fs1   v100
	BYTE	W06
	BYTE		N06   
	BYTE	W06
	BYTE		        As1 
	BYTE	W06
	BYTE		        En1   v116
	BYTE	W06
	BYTE		        Fs1   v100
	BYTE	W06
	BYTE		        Cn1   v120
	BYTE		N06     Fs1   v100
	BYTE	W06
	BYTE		        As1 
	BYTE	W12
	BYTE		        Fs1 
	BYTE	W12
	BYTE		N06   
	BYTE	W06
	BYTE		N03     En1   v116
	BYTE		N06     Fs1   v100
	BYTE	W03
	BYTE		N03     En1   v116
	BYTE	W03
	BYTE		N06   
	BYTE		N06     Fs1   v100
	BYTE	W06
	BYTE		        En1   v116
	BYTE		N06     Fs1   v100
	BYTE	W06
	BYTE		        En1   v116
	BYTE		N06     As1   v100
	BYTE	W06
	BYTE		        En1   v116
	BYTE	W06
// 046   ----------------------------------------
	BYTE		        Cn1   v120
	BYTE		N06     Fs1   v100
	BYTE		N12     Cs2 
	BYTE	W06
	BYTE		N06     Fs1 
	BYTE	W06
	BYTE		N06   
	BYTE	W06
	BYTE		        As1 
	BYTE	W06
	BYTE		        En1   v116
	BYTE		N06     Fs1   v100
	BYTE	W06
	BYTE		N06   
	BYTE	W06
	BYTE		        As1 
	BYTE	W12
	BYTE		        Cn1   v120
	BYTE		N06     Fs1   v100
	BYTE	W06
	BYTE		N06   
	BYTE	W06
	BYTE		        As1 
	BYTE	W12
	BYTE		        En1   v116
	BYTE		N06     Fs1   v100
	BYTE	W06
	BYTE		N06   
	BYTE	W06
	BYTE		        En1   v080
	BYTE		N06     As1   v088
	BYTE	W06
	BYTE		        En1   v056
	BYTE		N06     As1   v072
	BYTE	W06
// 047   ----------------------------------------
	BYTE		        Cn1   v120
	BYTE		N06     Fs1   v100
	BYTE	W06
	BYTE		N06   
	BYTE	W06
	BYTE		N06   
	BYTE	W06
	BYTE		        As1 
	BYTE	W06
	BYTE		        En1   v116
	BYTE		N06     Fs1   v100
	BYTE	W06
	BYTE		N06   
	BYTE	W06
	BYTE		        As1 
	BYTE	W12
	BYTE		        Cn1   v120
	BYTE		N06     Fs1   v100
	BYTE	W06
	BYTE		N06   
	BYTE	W06
	BYTE		        As1 
	BYTE	W12
	BYTE		        En1   v116
	BYTE		N06     Fs1   v100
	BYTE	W06
	BYTE		N06   
	BYTE	W06
	BYTE		        En1   v080
	BYTE		N06     As1   v088
	BYTE	W06
	BYTE		        En1   v056
	BYTE		N06     As1   v072
	BYTE	W06
// 048   ----------------------------------------
	BYTE		        Cn1   v120
	BYTE		N06     Fs1   v100
	BYTE	W06
	BYTE		N06   
	BYTE	W06
	BYTE		N06   
	BYTE	W06
	BYTE		        As1 
	BYTE	W06
	BYTE		        En1   v116
	BYTE		N06     Fs1   v100
	BYTE	W06
	BYTE		N06   
	BYTE	W06
	BYTE		        As1 
	BYTE	W12
	BYTE		        Cn1   v120
	BYTE		N06     Fs1   v100
	BYTE	W06
	BYTE		N06   
	BYTE	W06
	BYTE		        As1 
	BYTE	W12
	BYTE		        En1   v116
	BYTE		N06     Fs1   v100
	BYTE	W06
	BYTE		N06   
	BYTE	W06
	BYTE		        En1   v080
	BYTE		N06     Fs1   v100
	BYTE	W06
	BYTE		        En1   v056
	BYTE		N06     Fs1   v100
	BYTE	W06
// 049   ----------------------------------------
	BYTE		        Cn1   v120
	BYTE		N06     Fs1   v100
	BYTE		N12     En2 
	BYTE	W06
	BYTE		N06     Fs1 
	BYTE	W06
	BYTE		N06   
	BYTE	W06
	BYTE		        As1 
	BYTE	W06
	BYTE		        En1   v116
	BYTE		N06     Fs1   v100
	BYTE	W06
	BYTE		N06   
	BYTE	W06
	BYTE		        As1 
	BYTE	W12
	BYTE		        En1   v120
	BYTE	W06
	BYTE		N06   
	BYTE	W06
	BYTE		N06   
	BYTE	W06
	BYTE		N06   
	BYTE	W06
	BYTE		N06   
	BYTE	W06
	BYTE		N06   
	BYTE	W06
	BYTE		N06   
	BYTE	W06
	BYTE		N06   
	BYTE	W06
// 050   ----------------------------------------
	BYTE		        Cn1 
	BYTE		N06     Fs1   v100
	BYTE		N12     Cs2 
	BYTE	W06
	BYTE		N06     Fs1 
	BYTE	W06
	BYTE		N06   
	BYTE	W06
	BYTE		        As1 
	BYTE	W06
	BYTE		        En1   v116
	BYTE		N06     Fs1   v100
	BYTE	W06
	BYTE		N06   
	BYTE	W06
	BYTE		        As1 
	BYTE	W12
	BYTE		        Cn1   v120
	BYTE		N06     Fs1   v100
	BYTE	W06
	BYTE		N06   
	BYTE	W06
	BYTE		        As1 
	BYTE	W12
	BYTE		        En1   v116
	BYTE		N06     Fs1   v100
	BYTE	W06
	BYTE		        En1   v092
	BYTE		N06     Fs1   v100
	BYTE	W06
	BYTE		N06   
	BYTE	W06
	BYTE		        En1   v076
	BYTE		N06     Fs1   v100
	BYTE	W06
// 051   ----------------------------------------
DefaultDuel_7_051:
	BYTE		N06     Cn1   v120
	BYTE		N06     Fs1   v100
	BYTE	W06
	BYTE		N06   
	BYTE	W06
	BYTE		N06   
	BYTE	W06
	BYTE		        As1 
	BYTE	W06
	BYTE		        En1   v116
	BYTE		N06     Fs1   v100
	BYTE	W06
	BYTE		N06   
	BYTE	W06
	BYTE		        As1 
	BYTE	W12
	BYTE		        Cn1   v120
	BYTE		N06     Fs1   v100
	BYTE	W06
	BYTE		N06   
	BYTE	W06
	BYTE		        As1 
	BYTE	W12
	BYTE		        En1   v116
	BYTE		N06     Fs1   v100
	BYTE	W06
	BYTE		        En1   v092
	BYTE		N06     Fs1   v100
	BYTE	W06
	BYTE		N06   
	BYTE	W06
	BYTE		        En1   v076
	BYTE		N06     Fs1   v100
	BYTE	W06
	BYTE	PEND
// 052   ----------------------------------------
	BYTE	PATT
	 POIN2	DefaultDuel_7_051
// 053   ----------------------------------------
	BYTE	PATT
	 POIN2	DefaultDuel_7_051
// 054   ----------------------------------------
	BYTE	PATT
	 POIN2	DefaultDuel_7_051
// 055   ----------------------------------------
	BYTE	PATT
	 POIN2	DefaultDuel_7_051
// 056   ----------------------------------------
	BYTE	PATT
	 POIN2	DefaultDuel_7_051
// 057   ----------------------------------------
	BYTE		N06     Cn1   v120
	BYTE		N06     Fs1   v100
	BYTE	W06
	BYTE		N06   
	BYTE	W06
	BYTE		N06   
	BYTE	W06
	BYTE		        As1 
	BYTE	W06
	BYTE		        En1 
	BYTE		N06     Fs1 
	BYTE	W06
	BYTE		N06   
	BYTE	W06
	BYTE		        As1 
	BYTE	W12
	BYTE		        Cn1 
	BYTE		N06     Fs1 
	BYTE	W06
	BYTE		        En1   v120
	BYTE		N06     Fs1   v100
	BYTE	W06
	BYTE		        En1   v120
	BYTE		N06     As1   v100
	BYTE	W12
	BYTE		        En1   v120
	BYTE		N06     Fs1   v100
	BYTE	W06
	BYTE		        En1   v120
	BYTE		N06     Fs1   v100
	BYTE	W06
	BYTE		        En1   v120
	BYTE		N06     As1   v100
	BYTE	W12
// 058   ----------------------------------------
	BYTE	PATT
	 POIN2	DefaultDuel_7_051
// 059   ----------------------------------------
	BYTE	PATT
	 POIN2	DefaultDuel_7_051
// 060   ----------------------------------------
	BYTE	PATT
	 POIN2	DefaultDuel_7_051
// 061   ----------------------------------------
	BYTE	PATT
	 POIN2	DefaultDuel_7_051
// 062   ----------------------------------------
	BYTE	PATT
	 POIN2	DefaultDuel_7_051
// 063   ----------------------------------------
	BYTE	PATT
	 POIN2	DefaultDuel_7_051
// 064   ----------------------------------------
	BYTE	PATT
	 POIN2	DefaultDuel_7_051
// 065   ----------------------------------------
	BYTE		N06     Cn1   v120
	BYTE		N06     Fs1   v100
	BYTE	W06
	BYTE		N06   
	BYTE	W06
	BYTE		N06   
	BYTE	W06
	BYTE		        As1 
	BYTE	W06
	BYTE		        En1   v116
	BYTE		N06     Fs1   v100
	BYTE	W06
	BYTE		N06   
	BYTE	W06
	BYTE		        As1 
	BYTE	W12
	BYTE		        Cn1   v120
	BYTE		N03     En1   v116
	BYTE	W03
	BYTE		N03   
	BYTE	W03
	BYTE		N06   
	BYTE	W06
	BYTE		N06   
	BYTE	W06
	BYTE		N06   
	BYTE	W06
	BYTE		N06   
	BYTE	W06
	BYTE		N06   
	BYTE	W06
	BYTE		N06   
	BYTE	W06
	BYTE		        En1   v076
	BYTE	W06
// 066   ----------------------------------------
	BYTE		        Cn1   v120
	BYTE		N06     Fs1   v100
	BYTE		N24     Cs2 
	BYTE	W06
	BYTE		N06     Fs1 
	BYTE	W06
	BYTE		N06   
	BYTE	W06
	BYTE		        As1 
	BYTE	W06
	BYTE		        En1   v116
	BYTE		N06     Fs1   v100
	BYTE	W06
	BYTE		N06   
	BYTE	W06
	BYTE		        As1 
	BYTE	W12
	BYTE		        Cn1   v120
	BYTE		N06     Fs1   v100
	BYTE	W06
	BYTE		N06   
	BYTE	W06
	BYTE		        As1 
	BYTE	W12
	BYTE		        En1   v116
	BYTE		N06     Fs1   v100
	BYTE	W06
	BYTE		        En1   v092
	BYTE		N06     Fs1   v100
	BYTE	W06
	BYTE		N06   
	BYTE	W06
	BYTE		        En1   v076
	BYTE		N06     Fs1   v100
	BYTE	W06
// 067   ----------------------------------------
	BYTE	PATT
	 POIN2	DefaultDuel_7_051
// 068   ----------------------------------------
	BYTE		N06     Cn1   v120
	BYTE		N06     Fs1   v100
	BYTE	W06
	BYTE		N06   
	BYTE	W06
	BYTE		N06   
	BYTE	W06
	BYTE		        As1 
	BYTE	W06
	BYTE		        En1   v116
	BYTE		N06     Fs1   v100
	BYTE	W06
	BYTE		N06   
	BYTE	W06
	BYTE		        As1 
	BYTE	W12
	BYTE		        Cn1   v120
	BYTE		N06     Fs1   v100
	BYTE	W06
	BYTE		N06   
	BYTE	W06
	BYTE		        En1   v116
	BYTE		N06     As1   v100
	BYTE	W06
	BYTE		        Fs1 
	BYTE	W06
	BYTE		        Cn1   v120
	BYTE	W12
	BYTE		N06   
	BYTE		N48     En2   v100
	BYTE	W12
// 069   ----------------------------------------
	BYTE	W72
	BYTE	GoTo
	 POIN2	DefaultDuel_7_B1
DefaultDuel_7_B2:
	BYTE		N06     As1   v100
	BYTE	W06
	BYTE	FINE

//**************** Track 8 (Midi-Chn.11) ****************//

DefaultDuel_8:
	BYTE	KEYSH   DefaultDuel_key+0
DefaultDuel_8_B1:
// 000   ----------------------------------------
	BYTE		VOICE   56
	BYTE		VOL     127*DefaultDuel_mvl/mxv
	BYTE		PAN     c_v-12
	BYTE	W96
// 001   ----------------------------------------
	BYTE	W96
// 002   ----------------------------------------
	BYTE	W96
// 003   ----------------------------------------
	BYTE	W96
// 004   ----------------------------------------
	BYTE	W96
// 005   ----------------------------------------
	BYTE	W96
// 006   ----------------------------------------
	BYTE	W96
// 007   ----------------------------------------
	BYTE	W84
	BYTE		N06     Dn3   v100
	BYTE	W12
// 008   ----------------------------------------
DefaultDuel_8_008:
	BYTE		N66     Fs3   v100
	BYTE	W72
	BYTE		N12     Dn3 
	BYTE	W24
	BYTE	PEND
// 009   ----------------------------------------
DefaultDuel_8_009:
	BYTE		N44     En3   v100
	BYTE	W48
	BYTE		N18     Gn3 
	BYTE	W18
	BYTE		N12     Fs3 
	BYTE	W18
	BYTE		N06     En3 
	BYTE	W12
	BYTE	PEND
// 010   ----------------------------------------
DefaultDuel_8_010:
	BYTE		N12     Fs3   v100
	BYTE	W18
	BYTE		N06     An2 
	BYTE	W06
	BYTE		N06   
	BYTE	W12
	BYTE		N60     Dn3 
	BYTE	W60
	BYTE	PEND
// 011   ----------------------------------------
	BYTE	W84
	BYTE		N06   
	BYTE	W12
// 012   ----------------------------------------
	BYTE	PATT
	 POIN2	DefaultDuel_8_008
// 013   ----------------------------------------
	BYTE	PATT
	 POIN2	DefaultDuel_8_009
// 014   ----------------------------------------
DefaultDuel_8_014:
	BYTE		N12     Fs3   v100
	BYTE	W18
	BYTE		N06     An3 
	BYTE	W06
	BYTE		N72   
	BYTE	W72
	BYTE	PEND
// 015   ----------------------------------------
DefaultDuel_8_015:
	BYTE	W60
	BYTE		N06     Fs3   v100
	BYTE	W12
	BYTE		N06   
	BYTE	W06
	BYTE		        Gn3 
	BYTE	W06
	BYTE		        An3 
	BYTE	W12
	BYTE	PEND
// 016   ----------------------------------------
	BYTE		N96     Bn3 
	BYTE	W96
// 017   ----------------------------------------
DefaultDuel_8_017:
	BYTE	W24
	BYTE		N24     Bn3   v100
	BYTE	W24
	BYTE		N18     An3 
	BYTE	W24
	BYTE		        Gn3 
	BYTE	W24
	BYTE	PEND
// 018   ----------------------------------------
	BYTE		N96     An3 
	BYTE	W96
// 019   ----------------------------------------
DefaultDuel_8_019:
	BYTE	W24
	BYTE		N24     An3   v100
	BYTE	W24
	BYTE		        Gn3 
	BYTE	W24
	BYTE		N18     Fs3 
	BYTE	W24
	BYTE	PEND
// 020   ----------------------------------------
	BYTE		N96     Gn3 
	BYTE	W96
// 021   ----------------------------------------
DefaultDuel_8_021:
	BYTE	W24
	BYTE		N24     Gn3   v100
	BYTE	W24
	BYTE		        Fs3 
	BYTE	W24
	BYTE		N18     En3 
	BYTE	W24
	BYTE	PEND
// 022   ----------------------------------------
DefaultDuel_8_022:
	BYTE		N09     En3   v100
	BYTE	W12
	BYTE		N06     Dn3 
	BYTE	W06
	BYTE		N78   
	BYTE	W78
	BYTE	PEND
// 023   ----------------------------------------
	BYTE	W84
	BYTE		N06   
	BYTE	W12
// 024   ----------------------------------------
	BYTE	PATT
	 POIN2	DefaultDuel_8_008
// 025   ----------------------------------------
	BYTE	PATT
	 POIN2	DefaultDuel_8_009
// 026   ----------------------------------------
	BYTE	PATT
	 POIN2	DefaultDuel_8_010
// 027   ----------------------------------------
	BYTE	W84
	BYTE		N06     Dn3   v100
	BYTE	W12
// 028   ----------------------------------------
	BYTE	PATT
	 POIN2	DefaultDuel_8_008
// 029   ----------------------------------------
	BYTE	PATT
	 POIN2	DefaultDuel_8_009
// 030   ----------------------------------------
	BYTE	PATT
	 POIN2	DefaultDuel_8_014
// 031   ----------------------------------------
	BYTE	PATT
	 POIN2	DefaultDuel_8_015
// 032   ----------------------------------------
	BYTE		N96     Bn3   v100
	BYTE	W96
// 033   ----------------------------------------
	BYTE	PATT
	 POIN2	DefaultDuel_8_017
// 034   ----------------------------------------
	BYTE		N96     An3   v100
	BYTE	W96
// 035   ----------------------------------------
	BYTE	PATT
	 POIN2	DefaultDuel_8_019
// 036   ----------------------------------------
	BYTE		N96     Gn3   v100
	BYTE	W96
// 037   ----------------------------------------
	BYTE	PATT
	 POIN2	DefaultDuel_8_021
// 038   ----------------------------------------
	BYTE	PATT
	 POIN2	DefaultDuel_8_022
// 039   ----------------------------------------
DefaultDuel_8_039:
	BYTE	W54
	BYTE		N12     Dn4   v100
	BYTE	W18
	BYTE		N06   
	BYTE	W12
	BYTE		        Cs4 
	BYTE	W12
	BYTE	PEND
// 040   ----------------------------------------
DefaultDuel_8_040:
	BYTE		N06     Cn4   v100
	BYTE	W18
	BYTE		        En3 
	BYTE		N06     Gn3 
	BYTE	W18
	BYTE		        En3 
	BYTE		N06     Gn3 
	BYTE	W18
	BYTE		N03     Cn3 
	BYTE		N03     En3 
	BYTE	W06
	BYTE		N03   
	BYTE		N03     Gn3 
	BYTE	W06
	BYTE		N03   
	BYTE		N03     Cn4 
	BYTE	W06
	BYTE		N06   
	BYTE		N06     En4 
	BYTE	W24
	BYTE	PEND
// 041   ----------------------------------------
	BYTE	W96
// 042   ----------------------------------------
	BYTE	W54
	BYTE		N03     Fs3 
	BYTE		N03     An3 
	BYTE	W06
	BYTE		N03   
	BYTE		N03     Dn4 
	BYTE	W06
	BYTE		N03   
	BYTE		N03     Fs4 
	BYTE	W06
	BYTE		N06   
	BYTE		N06     An4 
	BYTE	W24
// 043   ----------------------------------------
	BYTE	PATT
	 POIN2	DefaultDuel_8_039
// 044   ----------------------------------------
	BYTE	PATT
	 POIN2	DefaultDuel_8_040
// 045   ----------------------------------------
	BYTE	W96
// 046   ----------------------------------------
	BYTE	W96
// 047   ----------------------------------------
	BYTE	W96
// 048   ----------------------------------------
	BYTE	W96
// 049   ----------------------------------------
	BYTE	W48
	BYTE		N06     Fs2   v100
	BYTE	W02
	BYTE		        An2 
	BYTE	W02
	BYTE		        Bn2 
	BYTE	W02
	BYTE		        Cs3 
	BYTE	W02
	BYTE		        En3 
	BYTE	W02
	BYTE		        Fs3 
	BYTE	W02
	BYTE		        An3 
	BYTE	W02
	BYTE		        Cs4 
	BYTE	W04
	BYTE		        En4 
	BYTE	W02
	BYTE		        Cs4 
	BYTE	W02
	BYTE		        An3 
	BYTE	W02
	BYTE		        En3 
	BYTE	W02
	BYTE		        Cs3 
	BYTE	W02
	BYTE		        An2 
	BYTE	W02
	BYTE		        Bn2 
	BYTE	W02
	BYTE		        Cs3 
	BYTE	W02
	BYTE		        En3 
	BYTE	W02
	BYTE		        Fs3 
	BYTE	W02
	BYTE		        An3 
	BYTE	W02
	BYTE		        Cs4 
	BYTE	W02
	BYTE		        En4 
	BYTE	W02
	BYTE		        Fs4 
	BYTE	W02
	BYTE		        An4 
	BYTE	W02
// 050   ----------------------------------------
DefaultDuel_8_050:
	BYTE		N60     Fs3   v100
	BYTE	W72
	BYTE		N06     Gn3 
	BYTE	W12
	BYTE		        An3 
	BYTE	W12
	BYTE	PEND
// 051   ----------------------------------------
DefaultDuel_8_051:
	BYTE		N12     Bn3   v100
	BYTE	W24
	BYTE		N48     Fs4 
	BYTE	W48
	BYTE		N06     En4 
	BYTE	W12
	BYTE		        Dn4 
	BYTE	W12
	BYTE	PEND
// 052   ----------------------------------------
DefaultDuel_8_052:
	BYTE		N12     Cs4   v100
	BYTE	W18
	BYTE		N54     An3 
	BYTE	W54
	BYTE		N06     Fs3 
	BYTE	W12
	BYTE		N54     Bn3 
	BYTE	W12
	BYTE	PEND
// 053   ----------------------------------------
DefaultDuel_8_053:
	BYTE	W48
	BYTE		N24     An3   v100
	BYTE	W24
	BYTE		        Gn3 
	BYTE	W24
	BYTE	PEND
// 054   ----------------------------------------
DefaultDuel_8_054:
	BYTE		N60     Fs3   v100
	BYTE	W60
	BYTE		N06     Gn3 
	BYTE	W12
	BYTE		        An3 
	BYTE	W12
	BYTE		N60     Dn3 
	BYTE	W12
	BYTE	PEND
// 055   ----------------------------------------
	BYTE	W48
	BYTE		N12     En3 
	BYTE	W12
	BYTE		N09     Fs3 
	BYTE	W24
	BYTE		TIE     An3 
	BYTE	W12
// 056   ----------------------------------------
	BYTE	W96
// 057   ----------------------------------------
	BYTE	W36
	BYTE		EOT   
	BYTE		N03     Bn3 
	BYTE	W03
	BYTE		        Cn4 
	BYTE	W03
	BYTE		N06     Cs4 
	BYTE	W12
	BYTE		N06   
	BYTE	W06
	BYTE		N12     Dn4 
	BYTE	W12
	BYTE		        En4 
	BYTE	W12
	BYTE		        Gn4 
	BYTE	W12
// 058   ----------------------------------------
	BYTE	PATT
	 POIN2	DefaultDuel_8_050
// 059   ----------------------------------------
	BYTE	PATT
	 POIN2	DefaultDuel_8_051
// 060   ----------------------------------------
	BYTE	PATT
	 POIN2	DefaultDuel_8_052
// 061   ----------------------------------------
	BYTE	PATT
	 POIN2	DefaultDuel_8_053
// 062   ----------------------------------------
	BYTE	PATT
	 POIN2	DefaultDuel_8_054
// 063   ----------------------------------------
	BYTE	W48
	BYTE		N12     En3   v100
	BYTE	W12
	BYTE		N09     Fs3 
	BYTE	W24
	BYTE		N36     An3 
	BYTE	W12
// 064   ----------------------------------------
	BYTE	W24
	BYTE		N12     Gn3 
	BYTE	W12
	BYTE		        Fs3 
	BYTE	W24
	BYTE		        En3 
	BYTE	W24
	BYTE		N36     Gn3 
	BYTE	W12
// 065   ----------------------------------------
	BYTE	W24
	BYTE		N12     Fs3 
	BYTE	W12
	BYTE		        En3 
	BYTE	W24
	BYTE		        Dn3 
	BYTE	W24
	BYTE		TIE   
	BYTE	W12
// 066   ----------------------------------------
	BYTE	W96
// 067   ----------------------------------------
	BYTE	W84
	BYTE		EOT   
	BYTE	W12
// 068   ----------------------------------------
	BYTE		N72   
	BYTE	W84
	BYTE		N84   
	BYTE	W12
// 069   ----------------------------------------
	BYTE	W72
	BYTE	GoTo
	 POIN2	DefaultDuel_8_B1
DefaultDuel_8_B2:
	BYTE	W06
	BYTE	FINE

//**************** Track 9 (Midi-Chn.12) ****************//

DefaultDuel_9:
	BYTE	KEYSH   DefaultDuel_key+0
DefaultDuel_9_B1:
// 000   ----------------------------------------
	BYTE		VOICE   40
	BYTE		VOL     127*DefaultDuel_mvl/mxv
	BYTE		PAN     c_v+24
	BYTE	W96
// 001   ----------------------------------------
	BYTE	W96
// 002   ----------------------------------------
	BYTE	W96
// 003   ----------------------------------------
	BYTE	W96
// 004   ----------------------------------------
	BYTE	W96
// 005   ----------------------------------------
	BYTE	W96
// 006   ----------------------------------------
	BYTE	W96
// 007   ----------------------------------------
	BYTE	W96
// 008   ----------------------------------------
	BYTE	W96
// 009   ----------------------------------------
	BYTE	W96
// 010   ----------------------------------------
	BYTE	W96
// 011   ----------------------------------------
	BYTE	W96
// 012   ----------------------------------------
	BYTE	W96
// 013   ----------------------------------------
	BYTE	W96
// 014   ----------------------------------------
	BYTE	W96
// 015   ----------------------------------------
	BYTE	W96
// 016   ----------------------------------------
	BYTE	W96
// 017   ----------------------------------------
	BYTE	W96
// 018   ----------------------------------------
	BYTE	W96
// 019   ----------------------------------------
	BYTE	W96
// 020   ----------------------------------------
	BYTE	W96
// 021   ----------------------------------------
	BYTE	W96
// 022   ----------------------------------------
	BYTE	W96
// 023   ----------------------------------------
	BYTE	W84
	BYTE		N06     An2   v100
	BYTE	W12
// 024   ----------------------------------------
DefaultDuel_9_024:
	BYTE		N66     Dn3   v100
	BYTE	W72
	BYTE		N12     An2 
	BYTE	W24
	BYTE	PEND
// 025   ----------------------------------------
DefaultDuel_9_025:
	BYTE		N44     Cn3   v100
	BYTE	W48
	BYTE		N18     En3 
	BYTE	W18
	BYTE		N12     Dn3 
	BYTE	W18
	BYTE		N06     Cn3 
	BYTE	W12
	BYTE	PEND
// 026   ----------------------------------------
	BYTE		N12     Dn3 
	BYTE	W18
	BYTE		N06     Fs2 
	BYTE	W06
	BYTE		N06   
	BYTE	W12
	BYTE		N60     An2 
	BYTE	W60
// 027   ----------------------------------------
	BYTE	W84
	BYTE		N06   
	BYTE	W12
// 028   ----------------------------------------
	BYTE	PATT
	 POIN2	DefaultDuel_9_024
// 029   ----------------------------------------
	BYTE	PATT
	 POIN2	DefaultDuel_9_025
// 030   ----------------------------------------
	BYTE		N12     Dn3   v100
	BYTE	W18
	BYTE		N06     Fs3 
	BYTE	W06
	BYTE		N72   
	BYTE	W72
// 031   ----------------------------------------
	BYTE	W60
	BYTE		N06     Dn3 
	BYTE	W12
	BYTE		N06   
	BYTE	W06
	BYTE		        En3 
	BYTE	W06
	BYTE		        Fs3 
	BYTE	W12
// 032   ----------------------------------------
	BYTE		N96     Gn3 
	BYTE	W96
// 033   ----------------------------------------
	BYTE	W24
	BYTE		N24   
	BYTE	W24
	BYTE		N18     Fs3 
	BYTE	W24
	BYTE		        En3 
	BYTE	W24
// 034   ----------------------------------------
	BYTE		N96     Fs3 
	BYTE	W96
// 035   ----------------------------------------
	BYTE	W24
	BYTE		N24   
	BYTE	W24
	BYTE		        En3 
	BYTE	W24
	BYTE		N18     Dn3 
	BYTE	W24
// 036   ----------------------------------------
	BYTE		N96     En3 
	BYTE	W96
// 037   ----------------------------------------
	BYTE	W24
	BYTE		N24     Bn2 
	BYTE	W24
	BYTE		        An2 
	BYTE	W24
	BYTE		N18     Gn2 
	BYTE	W24
// 038   ----------------------------------------
	BYTE		N09   
	BYTE	W12
	BYTE		N06     Fs2 
	BYTE	W06
	BYTE		N78   
	BYTE	W78
// 039   ----------------------------------------
	BYTE	W96
// 040   ----------------------------------------
	BYTE	W96
// 041   ----------------------------------------
	BYTE	W96
// 042   ----------------------------------------
	BYTE	W96
// 043   ----------------------------------------
	BYTE	W96
// 044   ----------------------------------------
	BYTE	W96
// 045   ----------------------------------------
	BYTE	W96
// 046   ----------------------------------------
	BYTE	W96
// 047   ----------------------------------------
	BYTE	W96
// 048   ----------------------------------------
	BYTE	W96
// 049   ----------------------------------------
	BYTE	W96
// 050   ----------------------------------------
DefaultDuel_9_050:
	BYTE		N60     Dn3   v100
	BYTE	W72
	BYTE		N06     En3 
	BYTE	W12
	BYTE		        Fs3 
	BYTE	W12
	BYTE	PEND
// 051   ----------------------------------------
DefaultDuel_9_051:
	BYTE		N12     Gn3   v100
	BYTE	W24
	BYTE		N48     Dn4 
	BYTE	W48
	BYTE		N06     Cs4 
	BYTE	W12
	BYTE		        Bn3 
	BYTE	W12
	BYTE	PEND
// 052   ----------------------------------------
DefaultDuel_9_052:
	BYTE		N12     An3   v100
	BYTE	W18
	BYTE		N54     Fs3 
	BYTE	W54
	BYTE		N06     Dn3 
	BYTE	W12
	BYTE		N54     Gn3 
	BYTE	W12
	BYTE	PEND
// 053   ----------------------------------------
DefaultDuel_9_053:
	BYTE	W48
	BYTE		N24     Fs3   v100
	BYTE	W24
	BYTE		        En3 
	BYTE	W24
	BYTE	PEND
// 054   ----------------------------------------
DefaultDuel_9_054:
	BYTE		N60     Dn3   v100
	BYTE	W60
	BYTE		N06     En3 
	BYTE	W12
	BYTE		        Fs3 
	BYTE	W12
	BYTE		N60     Bn2 
	BYTE	W12
	BYTE	PEND
// 055   ----------------------------------------
	BYTE	W48
	BYTE		N12     Cs3 
	BYTE	W12
	BYTE		N09     Dn3 
	BYTE	W24
	BYTE		TIE   
	BYTE	W12
// 056   ----------------------------------------
	BYTE	W96
	BYTE		EOT   
// 057   ----------------------------------------
	BYTE		N48     Cs3 
	BYTE	W36
	BYTE		N03     Gn3 
	BYTE	W03
	BYTE		        Gs3 
	BYTE	W03
	BYTE		N06     An3 
	BYTE	W12
	BYTE		N06   
	BYTE	W06
	BYTE		N12     Bn3 
	BYTE	W12
	BYTE		        Cs4 
	BYTE	W12
	BYTE		        En4 
	BYTE	W12
// 058   ----------------------------------------
	BYTE	PATT
	 POIN2	DefaultDuel_9_050
// 059   ----------------------------------------
	BYTE	PATT
	 POIN2	DefaultDuel_9_051
// 060   ----------------------------------------
	BYTE	PATT
	 POIN2	DefaultDuel_9_052
// 061   ----------------------------------------
	BYTE	PATT
	 POIN2	DefaultDuel_9_053
// 062   ----------------------------------------
	BYTE	PATT
	 POIN2	DefaultDuel_9_054
// 063   ----------------------------------------
	BYTE	W48
	BYTE		N12     Cs3   v100
	BYTE	W12
	BYTE		N09     Dn3 
	BYTE	W24
	BYTE		N36     Fs3 
	BYTE	W12
// 064   ----------------------------------------
	BYTE	W24
	BYTE		N12     En3 
	BYTE	W12
	BYTE		        Dn3 
	BYTE	W24
	BYTE		        Cs3 
	BYTE	W24
	BYTE		N36     En3 
	BYTE	W12
// 065   ----------------------------------------
	BYTE	W24
	BYTE		N12     Dn3 
	BYTE	W12
	BYTE		        Cs3 
	BYTE	W24
	BYTE		        Bn2 
	BYTE	W24
	BYTE		        An2 
	BYTE	W12
// 066   ----------------------------------------
	BYTE		N84     Gn2 
	BYTE	W84
	BYTE		N96     Fs2 
	BYTE	W12
// 067   ----------------------------------------
	BYTE	W96
// 068   ----------------------------------------
	BYTE		N72     Gn2 
	BYTE	W84
	BYTE		N84     An2 
	BYTE	W12
// 069   ----------------------------------------
	BYTE	W72
	BYTE	GoTo
	 POIN2	DefaultDuel_9_B1
DefaultDuel_9_B2:
	BYTE	W06
	BYTE	FINE

//**************** Track 10 (Midi-Chn.13) ****************//

DefaultDuel_10:
	BYTE	KEYSH   DefaultDuel_key+0
DefaultDuel_10_B1:
// 000   ----------------------------------------
	BYTE		VOICE   70
	BYTE		VOL     95*DefaultDuel_mvl/mxv
	BYTE		PAN     c_v+0
	BYTE	W96
// 001   ----------------------------------------
	BYTE	W96
// 002   ----------------------------------------
	BYTE	W96
// 003   ----------------------------------------
	BYTE	W96
// 004   ----------------------------------------
	BYTE	W96
// 005   ----------------------------------------
	BYTE	W96
// 006   ----------------------------------------
	BYTE	W96
// 007   ----------------------------------------
	BYTE	W96
// 008   ----------------------------------------
	BYTE	W96
// 009   ----------------------------------------
	BYTE	W96
// 010   ----------------------------------------
	BYTE	W96
// 011   ----------------------------------------
	BYTE	W96
// 012   ----------------------------------------
	BYTE	W96
// 013   ----------------------------------------
	BYTE	W96
// 014   ----------------------------------------
	BYTE	W96
// 015   ----------------------------------------
	BYTE	W96
// 016   ----------------------------------------
	BYTE	W96
// 017   ----------------------------------------
	BYTE	W96
// 018   ----------------------------------------
	BYTE	W96
// 019   ----------------------------------------
	BYTE	W96
// 020   ----------------------------------------
	BYTE	W96
// 021   ----------------------------------------
	BYTE	W96
// 022   ----------------------------------------
	BYTE	W96
// 023   ----------------------------------------
	BYTE	W96
// 024   ----------------------------------------
	BYTE	W96
// 025   ----------------------------------------
	BYTE	W96
// 026   ----------------------------------------
	BYTE	W96
// 027   ----------------------------------------
	BYTE	W96
// 028   ----------------------------------------
	BYTE	W96
// 029   ----------------------------------------
	BYTE	W96
// 030   ----------------------------------------
	BYTE	W96
// 031   ----------------------------------------
	BYTE	W96
// 032   ----------------------------------------
	BYTE	W96
// 033   ----------------------------------------
	BYTE	W96
// 034   ----------------------------------------
	BYTE	W96
// 035   ----------------------------------------
	BYTE	W96
// 036   ----------------------------------------
	BYTE	W96
// 037   ----------------------------------------
	BYTE	W96
// 038   ----------------------------------------
	BYTE	W96
// 039   ----------------------------------------
	BYTE	W96
// 040   ----------------------------------------
	BYTE	W96
// 041   ----------------------------------------
	BYTE	W54
	BYTE		N18     Gn3   v100
	BYTE		N18     Bn3 
	BYTE	W18
	BYTE		N06     Fs3 
	BYTE		N06     An3 
	BYTE	W12
	BYTE		        En3 
	BYTE		N06     Gn3 
	BYTE	W12
// 042   ----------------------------------------
	BYTE		N12     Fs3 
	BYTE		N12     An3 
	BYTE	W18
	BYTE		N36     Dn3 
	BYTE		N36     Fs3 
	BYTE	W36
	BYTE		N03     Fs2 
	BYTE		N03     An2 
	BYTE	W06
	BYTE		N03   
	BYTE		N03     Dn3 
	BYTE	W06
	BYTE		N03   
	BYTE		N03     Fs3 
	BYTE	W06
	BYTE		N06   
	BYTE		N06     An3 
	BYTE	W24
// 043   ----------------------------------------
	BYTE	W96
// 044   ----------------------------------------
	BYTE	W96
// 045   ----------------------------------------
	BYTE	W54
	BYTE		N18     Gn3 
	BYTE		N18     Bn3 
	BYTE	W18
	BYTE		N06     Fs3 
	BYTE		N06     An3 
	BYTE	W12
	BYTE		        Dn3 
	BYTE		N06     Gn3 
	BYTE	W12
// 046   ----------------------------------------
	BYTE		TIE     En3 
	BYTE		TIE     An3 
	BYTE	W96
// 047   ----------------------------------------
	BYTE	W36
	BYTE		EOT     En3 
	BYTE		        An3 
	BYTE	W12
	BYTE		N18   
	BYTE		N18     Dn4 
	BYTE	W18
	BYTE		N06     Gn3 
	BYTE		N06     Cs4 
	BYTE	W18
	BYTE		        En3 
	BYTE		N06     Bn3 
	BYTE	W12
// 048   ----------------------------------------
	BYTE		N12     En3 
	BYTE		N12     Bn3 
	BYTE	W18
	BYTE		N78     Dn3 
	BYTE		TIE     An3 
	BYTE	W78
// 049   ----------------------------------------
	BYTE		N36     Cs3 
	BYTE	W36
	BYTE		EOT     An3 
	BYTE	W60
// 050   ----------------------------------------
	BYTE	W96
// 051   ----------------------------------------
	BYTE	W96
// 052   ----------------------------------------
	BYTE	W96
// 053   ----------------------------------------
	BYTE	W96
// 054   ----------------------------------------
	BYTE	W96
// 055   ----------------------------------------
	BYTE	W96
// 056   ----------------------------------------
	BYTE	W96
// 057   ----------------------------------------
	BYTE	W36
	BYTE		N03     Gn2 
	BYTE		N03     Bn2 
	BYTE	W03
	BYTE		        Gs2 
	BYTE		N03     Cn3 
	BYTE	W03
	BYTE		N06     An2 
	BYTE		N06     Cs3 
	BYTE	W12
	BYTE		        An2 
	BYTE		N06     Cs3 
	BYTE	W06
	BYTE		N12     Bn2 
	BYTE		N12     Dn3 
	BYTE	W12
	BYTE		        Cs3 
	BYTE		N12     En3 
	BYTE	W12
	BYTE		N12   
	BYTE		N12     Gn3 
	BYTE	W12
// 058   ----------------------------------------
	BYTE		N60     Dn3 
	BYTE		N60     Fs3 
	BYTE	W72
	BYTE		N06     En3 
	BYTE		N06     Gn3 
	BYTE	W12
	BYTE		        Fs3 
	BYTE		N06     An3 
	BYTE	W12
// 059   ----------------------------------------
	BYTE		N12     Gn3 
	BYTE		N12     Bn3 
	BYTE	W24
	BYTE		N48     Dn4 
	BYTE		N48     Fs4 
	BYTE	W48
	BYTE		N06     Cs4 
	BYTE		N06     En4 
	BYTE	W12
	BYTE		        Bn3 
	BYTE		N06     Dn4 
	BYTE	W12
// 060   ----------------------------------------
	BYTE		N12     An3 
	BYTE		N12     Cs4 
	BYTE	W18
	BYTE		N54     Fs3 
	BYTE		N54     An3 
	BYTE	W54
	BYTE		N06     Dn3 
	BYTE		N06     Fs3 
	BYTE	W12
	BYTE		N54     Gn3 
	BYTE		N54     Bn3 
	BYTE	W12
// 061   ----------------------------------------
	BYTE	W48
	BYTE		N24     Fs3 
	BYTE		N24     An3 
	BYTE	W24
	BYTE		        En3 
	BYTE		N24     Gn3 
	BYTE	W24
// 062   ----------------------------------------
	BYTE		N60     Dn3 
	BYTE		N60     Fs3 
	BYTE	W60
	BYTE		N06     En3 
	BYTE		N06     Gn3 
	BYTE	W12
	BYTE		        Fs3 
	BYTE		N06     An3 
	BYTE	W12
	BYTE		N60     Bn2 
	BYTE		N60     Dn3 
	BYTE	W12
// 063   ----------------------------------------
	BYTE	W48
	BYTE		N12     Cs3 
	BYTE		N12     En3 
	BYTE	W12
	BYTE		N09     Dn3 
	BYTE		N09     Fs3 
	BYTE	W24
	BYTE		N36   
	BYTE		N36     An3 
	BYTE	W12
// 064   ----------------------------------------
	BYTE	W24
	BYTE		N12     En3 
	BYTE		N12     Gn3 
	BYTE	W12
	BYTE		        Dn3 
	BYTE		N12     Fs3 
	BYTE	W24
	BYTE		        Cs3 
	BYTE		N12     En3 
	BYTE	W24
	BYTE		N36   
	BYTE		N36     Gn3 
	BYTE	W12
// 065   ----------------------------------------
	BYTE	W24
	BYTE		N12     Dn3 
	BYTE		N12     Fs3 
	BYTE	W12
	BYTE		        Cs3 
	BYTE		N12     En3 
	BYTE	W24
	BYTE		        Bn2 
	BYTE		N12     Dn3 
	BYTE	W24
	BYTE		        An2 
	BYTE		TIE     Dn3 
	BYTE	W12
// 066   ----------------------------------------
	BYTE		N84     Gn2 
	BYTE	W84
	BYTE		N96     Fs2 
	BYTE	W12
// 067   ----------------------------------------
	BYTE	W84
	BYTE		EOT     Dn3 
	BYTE	W12
// 068   ----------------------------------------
	BYTE		N72     Gn2 
	BYTE		N72     Dn3 
	BYTE	W84
	BYTE		N84     An2 
	BYTE		N84     Dn3 
	BYTE	W12
// 069   ----------------------------------------
	BYTE	W72
	BYTE	GoTo
	 POIN2	DefaultDuel_10_B1
DefaultDuel_10_B2:
	BYTE	W06
	BYTE	FINE

//**************** Track 11 (Midi-Chn.14) ****************//

DefaultDuel_11:
	BYTE	KEYSH   DefaultDuel_key+0
DefaultDuel_11_B1:
// 000   ----------------------------------------
	BYTE		VOICE   35
	BYTE		VOL     91*DefaultDuel_mvl/mxv
	BYTE		PAN     c_v+16
	BYTE		N06     Dn2   v100
	BYTE	W18
	BYTE		N06   
	BYTE	W18
	BYTE		N06   
	BYTE	W24
	BYTE		        An2 
	BYTE	W12
	BYTE		N06   
	BYTE	W06
	BYTE		        Bn2 
	BYTE	W18
// 001   ----------------------------------------
DefaultDuel_11_001:
	BYTE		N06     Dn2   v100
	BYTE	W18
	BYTE		N06   
	BYTE	W18
	BYTE		N06   
	BYTE	W24
	BYTE		        An2 
	BYTE	W12
	BYTE		N06   
	BYTE	W06
	BYTE		        Bn2 
	BYTE	W18
	BYTE	PEND
// 002   ----------------------------------------
	BYTE	PATT
	 POIN2	DefaultDuel_11_001
// 003   ----------------------------------------
	BYTE	PATT
	 POIN2	DefaultDuel_11_001
// 004   ----------------------------------------
	BYTE	PATT
	 POIN2	DefaultDuel_11_001
// 005   ----------------------------------------
	BYTE	PATT
	 POIN2	DefaultDuel_11_001
// 006   ----------------------------------------
	BYTE	PATT
	 POIN2	DefaultDuel_11_001
// 007   ----------------------------------------
	BYTE	PATT
	 POIN2	DefaultDuel_11_001
// 008   ----------------------------------------
	BYTE	PATT
	 POIN2	DefaultDuel_11_001
// 009   ----------------------------------------
	BYTE	PATT
	 POIN2	DefaultDuel_11_001
// 010   ----------------------------------------
	BYTE	PATT
	 POIN2	DefaultDuel_11_001
// 011   ----------------------------------------
	BYTE	PATT
	 POIN2	DefaultDuel_11_001
// 012   ----------------------------------------
	BYTE	PATT
	 POIN2	DefaultDuel_11_001
// 013   ----------------------------------------
	BYTE	PATT
	 POIN2	DefaultDuel_11_001
// 014   ----------------------------------------
	BYTE	PATT
	 POIN2	DefaultDuel_11_001
// 015   ----------------------------------------
DefaultDuel_11_015:
	BYTE		N06     Dn2   v100
	BYTE	W18
	BYTE		N06   
	BYTE	W18
	BYTE		N06   
	BYTE	W24
	BYTE		        En2 
	BYTE	W12
	BYTE		N06   
	BYTE	W12
	BYTE		        Fs2 
	BYTE	W12
	BYTE	PEND
// 016   ----------------------------------------
DefaultDuel_11_016:
	BYTE		N06     Gn2   v100
	BYTE	W18
	BYTE		N06   
	BYTE	W18
	BYTE		N06   
	BYTE	W24
	BYTE		        Dn2 
	BYTE	W12
	BYTE		N06   
	BYTE	W06
	BYTE		        En2 
	BYTE	W18
	BYTE	PEND
// 017   ----------------------------------------
	BYTE	PATT
	 POIN2	DefaultDuel_11_016
// 018   ----------------------------------------
DefaultDuel_11_018:
	BYTE		N06     Fs2   v100
	BYTE	W18
	BYTE		N06   
	BYTE	W18
	BYTE		N06   
	BYTE	W24
	BYTE		        Cs2 
	BYTE	W12
	BYTE		N06   
	BYTE	W06
	BYTE		        En2 
	BYTE	W18
	BYTE	PEND
// 019   ----------------------------------------
	BYTE	PATT
	 POIN2	DefaultDuel_11_018
// 020   ----------------------------------------
DefaultDuel_11_020:
	BYTE		N06     En2   v100
	BYTE	W18
	BYTE		N06   
	BYTE	W18
	BYTE		N06   
	BYTE	W24
	BYTE		N06   
	BYTE	W12
	BYTE		        Fs2 
	BYTE	W06
	BYTE		        Gn2 
	BYTE	W18
	BYTE	PEND
// 021   ----------------------------------------
DefaultDuel_11_021:
	BYTE		N06     An2   v100
	BYTE	W18
	BYTE		N06   
	BYTE	W18
	BYTE		N06   
	BYTE	W24
	BYTE		        En2 
	BYTE	W12
	BYTE		        Gn2 
	BYTE	W06
	BYTE		        An2 
	BYTE	W18
	BYTE	PEND
// 022   ----------------------------------------
	BYTE	PATT
	 POIN2	DefaultDuel_11_001
// 023   ----------------------------------------
	BYTE	PATT
	 POIN2	DefaultDuel_11_001
// 024   ----------------------------------------
	BYTE	PATT
	 POIN2	DefaultDuel_11_001
// 025   ----------------------------------------
	BYTE	PATT
	 POIN2	DefaultDuel_11_001
// 026   ----------------------------------------
	BYTE	PATT
	 POIN2	DefaultDuel_11_001
// 027   ----------------------------------------
	BYTE	PATT
	 POIN2	DefaultDuel_11_001
// 028   ----------------------------------------
	BYTE	PATT
	 POIN2	DefaultDuel_11_001
// 029   ----------------------------------------
	BYTE	PATT
	 POIN2	DefaultDuel_11_001
// 030   ----------------------------------------
	BYTE	PATT
	 POIN2	DefaultDuel_11_001
// 031   ----------------------------------------
	BYTE	PATT
	 POIN2	DefaultDuel_11_015
// 032   ----------------------------------------
	BYTE	PATT
	 POIN2	DefaultDuel_11_016
// 033   ----------------------------------------
	BYTE	PATT
	 POIN2	DefaultDuel_11_016
// 034   ----------------------------------------
	BYTE	PATT
	 POIN2	DefaultDuel_11_018
// 035   ----------------------------------------
	BYTE	PATT
	 POIN2	DefaultDuel_11_018
// 036   ----------------------------------------
	BYTE	PATT
	 POIN2	DefaultDuel_11_020
// 037   ----------------------------------------
	BYTE	PATT
	 POIN2	DefaultDuel_11_021
// 038   ----------------------------------------
	BYTE	PATT
	 POIN2	DefaultDuel_11_001
// 039   ----------------------------------------
DefaultDuel_11_039:
	BYTE		N06     Dn2   v100
	BYTE	W18
	BYTE		N06   
	BYTE	W18
	BYTE		N06   
	BYTE	W18
	BYTE		N12   
	BYTE	W18
	BYTE		N06   
	BYTE	W12
	BYTE		        Cs2 
	BYTE	W12
	BYTE	PEND
// 040   ----------------------------------------
DefaultDuel_11_040:
	BYTE		N06     Cn2   v100
	BYTE	W18
	BYTE		N06   
	BYTE	W18
	BYTE		N06   
	BYTE	W18
	BYTE		N06   
	BYTE	W18
	BYTE		N06   
	BYTE	W24
	BYTE	PEND
// 041   ----------------------------------------
	BYTE		N06   
	BYTE	W18
	BYTE		N06   
	BYTE	W18
	BYTE		N06   
	BYTE	W18
	BYTE		N18     Gn2 
	BYTE	W18
	BYTE		N06     Cn2 
	BYTE	W12
	BYTE		        Gn2 
	BYTE	W12
// 042   ----------------------------------------
	BYTE		        Dn2 
	BYTE	W18
	BYTE		N06   
	BYTE	W18
	BYTE		N06   
	BYTE	W18
	BYTE		N06   
	BYTE	W18
	BYTE		N06   
	BYTE	W24
// 043   ----------------------------------------
	BYTE	PATT
	 POIN2	DefaultDuel_11_039
// 044   ----------------------------------------
	BYTE	PATT
	 POIN2	DefaultDuel_11_040
// 045   ----------------------------------------
	BYTE		N06     Cn2   v100
	BYTE	W18
	BYTE		N06   
	BYTE	W18
	BYTE		N06   
	BYTE	W18
	BYTE		N18   
	BYTE	W18
	BYTE		N06     Cs2 
	BYTE	W12
	BYTE		        Dn2 
	BYTE	W12
// 046   ----------------------------------------
	BYTE		        En2 
	BYTE	W12
	BYTE		N06   
	BYTE	W12
	BYTE		N12   
	BYTE	W18
	BYTE		N06   
	BYTE	W12
	BYTE		N06   
	BYTE	W06
	BYTE		N06   
	BYTE	W12
	BYTE		N12   
	BYTE	W12
	BYTE		        Bn2 
	BYTE	W12
// 047   ----------------------------------------
	BYTE		N06     En2 
	BYTE	W12
	BYTE		N06   
	BYTE	W12
	BYTE		N12   
	BYTE	W18
	BYTE		N06   
	BYTE	W12
	BYTE		N06   
	BYTE	W06
	BYTE		N06   
	BYTE	W12
	BYTE		N12     Fs2 
	BYTE	W12
	BYTE		        Gn2 
	BYTE	W12
// 048   ----------------------------------------
	BYTE		N06     An2 
	BYTE	W12
	BYTE		N06   
	BYTE	W12
	BYTE		N12   
	BYTE	W18
	BYTE		N06   
	BYTE	W12
	BYTE		N06   
	BYTE	W06
	BYTE		N06   
	BYTE	W12
	BYTE		N12   
	BYTE	W12
	BYTE		        En2 
	BYTE	W12
// 049   ----------------------------------------
	BYTE		N06     An2 
	BYTE	W12
	BYTE		N06   
	BYTE	W12
	BYTE		N12   
	BYTE	W24
	BYTE		        As2 
	BYTE	W12
	BYTE		        Bn2 
	BYTE	W12
	BYTE		        Cn3 
	BYTE	W12
	BYTE		        Cs3 
	BYTE	W12
// 050   ----------------------------------------
DefaultDuel_11_050:
	BYTE		N06     Dn2   v100
	BYTE	W12
	BYTE		N06   
	BYTE	W12
	BYTE		N12   
	BYTE	W18
	BYTE		N06   
	BYTE	W12
	BYTE		N06   
	BYTE	W12
	BYTE		N06   
	BYTE	W06
	BYTE		N06   
	BYTE	W12
	BYTE		N06   
	BYTE	W06
	BYTE		N06   
	BYTE	W06
	BYTE	PEND
// 051   ----------------------------------------
DefaultDuel_11_051:
	BYTE		N06     En2   v100
	BYTE	W12
	BYTE		N06   
	BYTE	W12
	BYTE		N12   
	BYTE	W18
	BYTE		N06   
	BYTE	W12
	BYTE		N06   
	BYTE	W12
	BYTE		N06   
	BYTE	W06
	BYTE		N06   
	BYTE	W12
	BYTE		N06   
	BYTE	W06
	BYTE		N06   
	BYTE	W06
	BYTE	PEND
// 052   ----------------------------------------
DefaultDuel_11_052:
	BYTE		N06     Fs2   v100
	BYTE	W12
	BYTE		N06   
	BYTE	W12
	BYTE		N12   
	BYTE	W18
	BYTE		N06   
	BYTE	W12
	BYTE		N06   
	BYTE	W12
	BYTE		N06   
	BYTE	W06
	BYTE		N06   
	BYTE	W12
	BYTE		N06   
	BYTE	W06
	BYTE		        Gn2 
	BYTE	W06
	BYTE	PEND
// 053   ----------------------------------------
DefaultDuel_11_053:
	BYTE		N06     Gn2   v100
	BYTE	W12
	BYTE		N06   
	BYTE	W12
	BYTE		N12   
	BYTE	W18
	BYTE		N06   
	BYTE	W12
	BYTE		N06   
	BYTE	W12
	BYTE		N06   
	BYTE	W06
	BYTE		N06   
	BYTE	W12
	BYTE		        En2 
	BYTE	W06
	BYTE		N06   
	BYTE	W06
	BYTE	PEND
// 054   ----------------------------------------
DefaultDuel_11_054:
	BYTE		N06     Dn2   v100
	BYTE	W12
	BYTE		N06   
	BYTE	W12
	BYTE		N12   
	BYTE	W18
	BYTE		N06   
	BYTE	W12
	BYTE		N06   
	BYTE	W12
	BYTE		N06   
	BYTE	W06
	BYTE		N06   
	BYTE	W12
	BYTE		        Bn1 
	BYTE	W06
	BYTE		N06   
	BYTE	W06
	BYTE	PEND
// 055   ----------------------------------------
DefaultDuel_11_055:
	BYTE		N06     Bn2   v100
	BYTE	W12
	BYTE		N06   
	BYTE	W12
	BYTE		N12   
	BYTE	W18
	BYTE		N06   
	BYTE	W12
	BYTE		N06   
	BYTE	W12
	BYTE		N06   
	BYTE	W06
	BYTE		        Gn2 
	BYTE	W12
	BYTE		N12     Fs2 
	BYTE	W12
	BYTE	PEND
// 056   ----------------------------------------
DefaultDuel_11_056:
	BYTE		N06     En2   v100
	BYTE	W12
	BYTE		N06   
	BYTE	W12
	BYTE		N12   
	BYTE	W18
	BYTE		N06   
	BYTE	W12
	BYTE		N06   
	BYTE	W06
	BYTE		N12     Fs2 
	BYTE	W12
	BYTE		        Gn2 
	BYTE	W12
	BYTE		        Gs2 
	BYTE	W12
	BYTE	PEND
// 057   ----------------------------------------
DefaultDuel_11_057:
	BYTE		N06     An2   v100
	BYTE	W12
	BYTE		N06   
	BYTE	W12
	BYTE		N12   
	BYTE	W15
	BYTE		N03     As2 
	BYTE	W03
	BYTE		N06     Bn2 
	BYTE	W12
	BYTE		N06   
	BYTE	W06
	BYTE		N12     Fs2 
	BYTE	W12
	BYTE		        En2 
	BYTE	W12
	BYTE		        Cs2 
	BYTE	W12
	BYTE	PEND
// 058   ----------------------------------------
	BYTE	PATT
	 POIN2	DefaultDuel_11_050
// 059   ----------------------------------------
	BYTE	PATT
	 POIN2	DefaultDuel_11_051
// 060   ----------------------------------------
	BYTE	PATT
	 POIN2	DefaultDuel_11_052
// 061   ----------------------------------------
	BYTE	PATT
	 POIN2	DefaultDuel_11_053
// 062   ----------------------------------------
	BYTE	PATT
	 POIN2	DefaultDuel_11_054
// 063   ----------------------------------------
	BYTE	PATT
	 POIN2	DefaultDuel_11_055
// 064   ----------------------------------------
	BYTE	PATT
	 POIN2	DefaultDuel_11_056
// 065   ----------------------------------------
	BYTE	PATT
	 POIN2	DefaultDuel_11_057
// 066   ----------------------------------------
	BYTE	PATT
	 POIN2	DefaultDuel_11_050
// 067   ----------------------------------------
	BYTE	PATT
	 POIN2	DefaultDuel_11_050
// 068   ----------------------------------------
	BYTE		N06     Dn2   v100
	BYTE	W12
	BYTE		N06   
	BYTE	W12
	BYTE		N12   
	BYTE	W18
	BYTE		N06   
	BYTE	W12
	BYTE		N06   
	BYTE	W12
	BYTE		N06   
	BYTE	W06
	BYTE		N06   
	BYTE	W12
	BYTE		N84     An2 
	BYTE	W12
// 069   ----------------------------------------
	BYTE	W72
	BYTE	GoTo
	 POIN2	DefaultDuel_11_B1
DefaultDuel_11_B2:
	BYTE	W06
	BYTE	FINE

//**************** Track 12 (Midi-Chn.15) ****************//

DefaultDuel_12:
	BYTE	KEYSH   DefaultDuel_key+0
DefaultDuel_12_B1:
// 000   ----------------------------------------
	BYTE		VOICE   48
	BYTE		VOL     48*DefaultDuel_mvl/mxv
	BYTE		PAN     c_v+0
	BYTE	W96
// 001   ----------------------------------------
	BYTE	W96
// 002   ----------------------------------------
	BYTE	W96
// 003   ----------------------------------------
	BYTE	W96
// 004   ----------------------------------------
	BYTE	W96
// 005   ----------------------------------------
	BYTE	W96
// 006   ----------------------------------------
	BYTE	W96
// 007   ----------------------------------------
	BYTE	W96
// 008   ----------------------------------------
	BYTE	W96
// 009   ----------------------------------------
	BYTE	W96
// 010   ----------------------------------------
	BYTE	W96
// 011   ----------------------------------------
	BYTE	W96
// 012   ----------------------------------------
	BYTE	W96
// 013   ----------------------------------------
	BYTE	W96
// 014   ----------------------------------------
	BYTE	W96
// 015   ----------------------------------------
	BYTE	W96
// 016   ----------------------------------------
	BYTE	W96
// 017   ----------------------------------------
	BYTE	W96
// 018   ----------------------------------------
	BYTE	W96
// 019   ----------------------------------------
	BYTE	W96
// 020   ----------------------------------------
	BYTE	W96
// 021   ----------------------------------------
	BYTE	W96
// 022   ----------------------------------------
	BYTE	W96
// 023   ----------------------------------------
	BYTE	W96
// 024   ----------------------------------------
	BYTE	W96
// 025   ----------------------------------------
	BYTE	W96
// 026   ----------------------------------------
	BYTE	W96
// 027   ----------------------------------------
	BYTE	W96
// 028   ----------------------------------------
	BYTE	W96
// 029   ----------------------------------------
	BYTE	W96
// 030   ----------------------------------------
	BYTE	W96
// 031   ----------------------------------------
	BYTE	W96
// 032   ----------------------------------------
	BYTE	W96
// 033   ----------------------------------------
	BYTE	W96
// 034   ----------------------------------------
	BYTE	W96
// 035   ----------------------------------------
	BYTE	W96
// 036   ----------------------------------------
	BYTE	W96
// 037   ----------------------------------------
	BYTE	W96
// 038   ----------------------------------------
	BYTE	W96
// 039   ----------------------------------------
	BYTE	W96
// 040   ----------------------------------------
	BYTE	W96
// 041   ----------------------------------------
	BYTE	W96
// 042   ----------------------------------------
	BYTE	W96
// 043   ----------------------------------------
	BYTE	W96
// 044   ----------------------------------------
	BYTE	W96
// 045   ----------------------------------------
	BYTE	W96
// 046   ----------------------------------------
	BYTE		TIE     En3   v100
	BYTE		TIE     An3 
	BYTE	W96
// 047   ----------------------------------------
	BYTE	W48
	BYTE		EOT     En3 
	BYTE		        An3 
	BYTE		N24   
	BYTE		N24     Dn4 
	BYTE	W24
	BYTE		N06     Fs3 
	BYTE		N06     Cs4 
	BYTE	W12
	BYTE		        En3 
	BYTE		N06     Bn3 
	BYTE	W12
// 048   ----------------------------------------
	BYTE		N96     An3 
	BYTE		N96     Dn4 
	BYTE	W96
// 049   ----------------------------------------
	BYTE		N48     An3 
	BYTE		N48     Cs4 
	BYTE	W96
// 050   ----------------------------------------
	BYTE		N96     Fs3 
	BYTE		N96     An3 
	BYTE	W96
// 051   ----------------------------------------
	BYTE		        Gn3 
	BYTE		N96     Bn3 
	BYTE	W96
// 052   ----------------------------------------
	BYTE		        An3 
	BYTE		N96     Cs4 
	BYTE	W96
// 053   ----------------------------------------
	BYTE		        Bn3 
	BYTE		N96     Dn4 
	BYTE	W96
// 054   ----------------------------------------
	BYTE		        An3 
	BYTE		N96     Dn4 
	BYTE	W96
// 055   ----------------------------------------
	BYTE		N72     Fs3 
	BYTE		N72     Bn3 
	BYTE	W72
	BYTE		N06     Fs3 
	BYTE		N06     An3 
	BYTE	W12
	BYTE		        An2 
	BYTE		N06     Dn3 
	BYTE	W12
// 056   ----------------------------------------
	BYTE		N96     An3 
	BYTE		N96     Dn4 
	BYTE	W96
// 057   ----------------------------------------
	BYTE		N36     An3 
	BYTE		N36     Cs4 
	BYTE	W36
	BYTE		N03     Gn3 
	BYTE		N03     Bn3 
	BYTE	W03
	BYTE		        Gs3 
	BYTE		N03     Cn4 
	BYTE	W03
	BYTE		        An3 
	BYTE		N03     Cs4 
	BYTE	W06
	BYTE		        En3 
	BYTE		N03     An3 
	BYTE	W06
	BYTE		N03   
	BYTE		N03     Cs4 
	BYTE	W06
	BYTE		N12     Bn3 
	BYTE		N12     Dn4 
	BYTE	W12
	BYTE		        Cs4 
	BYTE		N12     En4 
	BYTE	W12
	BYTE		N12   
	BYTE		N12     Gn4 
	BYTE	W12
// 058   ----------------------------------------
	BYTE		N96     Dn3 
	BYTE		N96     Fs3 
	BYTE		N96     Dn4 
	BYTE		N96     Fs4 
	BYTE	W96
// 059   ----------------------------------------
	BYTE		        Bn2 
	BYTE		N96     En3 
	BYTE		N96     Bn3 
	BYTE		N96     En4 
	BYTE	W96
// 060   ----------------------------------------
	BYTE		        An2 
	BYTE		N96     Cs3 
	BYTE		N96     An3 
	BYTE		N96     Cs4 
	BYTE	W96
// 061   ----------------------------------------
	BYTE		        Bn2 
	BYTE		N96     Dn3 
	BYTE		N96     Bn3 
	BYTE		N96     Dn4 
	BYTE	W96
// 062   ----------------------------------------
	BYTE		        An2 
	BYTE		N96     Dn3 
	BYTE		N96     An3 
	BYTE		N96     Dn4 
	BYTE	W96
// 063   ----------------------------------------
	BYTE		        Fs2 
	BYTE		N96     Bn2 
	BYTE		N96     Fs3 
	BYTE		N96     Bn3 
	BYTE	W96
// 064   ----------------------------------------
	BYTE		N24     Fs4 
	BYTE		N24     An4 
	BYTE	W24
	BYTE		N12     En4 
	BYTE		N12     Gn4 
	BYTE	W12
	BYTE		        Dn4 
	BYTE		N12     Fs4 
	BYTE	W24
	BYTE		        Cs4 
	BYTE		N12     En4 
	BYTE	W24
	BYTE		N36   
	BYTE		N36     Gn4 
	BYTE	W12
// 065   ----------------------------------------
	BYTE	W24
	BYTE		N12     Dn4 
	BYTE		N12     Fs4 
	BYTE	W12
	BYTE		        Cs4 
	BYTE		N12     En4 
	BYTE	W24
	BYTE		        Bn3 
	BYTE		N12     Dn4 
	BYTE	W24
	BYTE		        An3 
	BYTE		TIE     Dn4 
	BYTE	W12
// 066   ----------------------------------------
	BYTE		N84     Gn3 
	BYTE		TIE     An3 
	BYTE	W84
	BYTE		N96     Fs3 
	BYTE	W12
// 067   ----------------------------------------
	BYTE	W84
	BYTE		EOT     An3 
	BYTE		        Dn4 
	BYTE	W12
// 068   ----------------------------------------
	BYTE		N72     Gn3 
	BYTE		N72     An3 
	BYTE		N72     Dn4 
	BYTE	W84
	BYTE		N84     Dn3 
	BYTE		N84     An3 
	BYTE		N84     Dn4 
	BYTE	W12
// 069   ----------------------------------------
	BYTE	W72
	BYTE	GoTo
	 POIN2	DefaultDuel_12_B1
DefaultDuel_12_B2:
	BYTE	W06
	BYTE	FINE

//******************************************************//
	ALIGN 4

DefaultDuel:
	BYTE	12	// NumTrks
	BYTE	0	// NumBlks
	BYTE	DefaultDuel_pri	// Priority
	BYTE	DefaultDuel_rev	// Reverb.

	POIN2	DefaultDuel_grp

	POIN2	DefaultDuel_1
	POIN2	DefaultDuel_2
	POIN2	DefaultDuel_3
	POIN2	DefaultDuel_4
	POIN2	DefaultDuel_5
	POIN2	DefaultDuel_6
	POIN2	DefaultDuel_7
	POIN2	DefaultDuel_8
	POIN2	DefaultDuel_9
	POIN2	DefaultDuel_10
	POIN2	DefaultDuel_11
	POIN2	DefaultDuel_12

	
