//Event file generated from Sappy .s format.
	#include "MPlayDef.event"

	#define	DetectiveGumshoe_grp  voicegroup000
	#define	DetectiveGumshoe_pri  0
	#define	DetectiveGumshoe_rev  0
	#define	DetectiveGumshoe_mvl  80
	#define	DetectiveGumshoe_key  0
	#define	DetectiveGumshoe_tbs  1
	#define	DetectiveGumshoe_exg  0
	#define	DetectiveGumshoe_cmp  1

	// .rodata
	//	DetectiveGumshoe
	ALIGN 4

//**************** Track 1 (Midi-Chn.1) ****************//

DetectiveGumshoe_1:
	BYTE	KEYSH   DetectiveGumshoe_key+0
// 000   ----------------------------------------
	BYTE	TEMPO   109*DetectiveGumshoe_tbs/2
	BYTE		VOICE   57
	BYTE		VOL     127*DetectiveGumshoe_mvl/mxv
	BYTE		PAN     c_v+0
	BYTE		N11     Dn4   v080
	BYTE	W12
DetectiveGumshoe_1_B1:
// 001   ----------------------------------------
	BYTE		N92     Ds4   v080
	BYTE	W96
// 002   ----------------------------------------
DetectiveGumshoe_1_002:
	BYTE		N17     Dn4   v080
	BYTE	W18
	BYTE		        As3 
	BYTE	W18
	BYTE		N11     Gn3 
	BYTE	W12
	BYTE	PEND
// 003   ----------------------------------------
	BYTE		N92     Cn4 
	BYTE	W96
// 004   ----------------------------------------
	BYTE	W84
	BYTE		N11     Dn4 
	BYTE	W12
// 005   ----------------------------------------
	BYTE		N92     Ds4 
	BYTE	W96
// 006   ----------------------------------------
	BYTE	PATT
	 POIN2	DetectiveGumshoe_1_002
// 007   ----------------------------------------
DetectiveGumshoe_1_007:
	BYTE		N32     Fn4   v080
	BYTE	W36
	BYTE		N56     Ds4 
	BYTE	W60
	BYTE	PEND
// 008   ----------------------------------------
	BYTE	W84
	BYTE		N11     Dn4 
	BYTE	W12
// 009   ----------------------------------------
	BYTE		N92     Ds4 
	BYTE	W96
// 010   ----------------------------------------
	BYTE	PATT
	 POIN2	DetectiveGumshoe_1_002
// 011   ----------------------------------------
	BYTE		N92     Cn4   v080
	BYTE	W96
// 012   ----------------------------------------
	BYTE	W84
	BYTE		N11     Dn4 
	BYTE	W12
// 013   ----------------------------------------
	BYTE		N92     Ds4 
	BYTE	W96
// 014   ----------------------------------------
	BYTE	PATT
	 POIN2	DetectiveGumshoe_1_002
// 015   ----------------------------------------
	BYTE	PATT
	 POIN2	DetectiveGumshoe_1_007
// 016   ----------------------------------------
	BYTE		N32     Gn4   v080
	BYTE	W36
	BYTE		N56     Fn4 
	BYTE	W60
// 017   ----------------------------------------
DetectiveGumshoe_1_017:
	BYTE		N17     Ds4   v080
	BYTE	W18
	BYTE		        Fn4 
	BYTE	W18
	BYTE		N11     Ds4 
	BYTE	W12
	BYTE		N17     As4 
	BYTE	W18
	BYTE		        Fn4 
	BYTE	W18
	BYTE		N11     Ds4 
	BYTE	W12
	BYTE	PEND
// 018   ----------------------------------------
DetectiveGumshoe_1_018:
	BYTE		N68     Ds4   v080
	BYTE	W72
	BYTE		N23     Dn4 
	BYTE	W24
	BYTE	PEND
// 019   ----------------------------------------
DetectiveGumshoe_1_019:
	BYTE		N17     Ds4   v080
	BYTE	W18
	BYTE		        Fn4 
	BYTE	W18
	BYTE		N11     Ds4 
	BYTE	W12
	BYTE		N17     Gs4 
	BYTE	W18
	BYTE		        Gn4 
	BYTE	W18
	BYTE		N11     Ds4 
	BYTE	W12
	BYTE	PEND
// 020   ----------------------------------------
	BYTE		N32     Gn4 
	BYTE	W36
	BYTE		N05     Gs4 
	BYTE	W06
	BYTE		        Gn4 
	BYTE	W06
	BYTE		N44     Fn4 
	BYTE	W48
// 021   ----------------------------------------
	BYTE	PATT
	 POIN2	DetectiveGumshoe_1_017
// 022   ----------------------------------------
	BYTE	PATT
	 POIN2	DetectiveGumshoe_1_018
// 023   ----------------------------------------
	BYTE	PATT
	 POIN2	DetectiveGumshoe_1_019
// 024   ----------------------------------------
	BYTE		N32     Gn4   v080
	BYTE	W36
	BYTE		N05     Gs4 
	BYTE	W06
	BYTE		        Gn4 
	BYTE	W06
	BYTE		N23     Fn4 
	BYTE	W24
	BYTE		N11     Ds4 
	BYTE	W12
	BYTE		        Dn4 
	BYTE	W12
// 025   ----------------------------------------
	BYTE		N32   
	BYTE	W36
	BYTE		N56     Cn4 
	BYTE	W60
// 026   ----------------------------------------
	BYTE		N32     Ds4 
	BYTE	W36
	BYTE		N56     Dn4 
	BYTE	W60
// 027   ----------------------------------------
	BYTE	W84
	BYTE		N11   
	BYTE	W12
	BYTE	GoTo
	 POIN2	DetectiveGumshoe_1_B1
DetectiveGumshoe_1_B2:
// 028   ----------------------------------------
	BYTE		N92     Ds4   v080
	BYTE	W96
// 029   ----------------------------------------
	BYTE	FINE

//**************** Track 2 (Midi-Chn.2) ****************//

DetectiveGumshoe_2:
	BYTE	KEYSH   DetectiveGumshoe_key+0
// 000   ----------------------------------------
	BYTE		VOICE   1
	BYTE		VOL     100*DetectiveGumshoe_mvl/mxv
	BYTE		PAN     c_v+0
	BYTE	W12
DetectiveGumshoe_2_B1:
// 001   ----------------------------------------
DetectiveGumshoe_2_001:
	BYTE		N05     Cn4   v080
	BYTE	W06
	BYTE		N05   
	BYTE	W06
	BYTE		        Gn4 
	BYTE	W06
	BYTE		N05   
	BYTE	W06
	BYTE		        Cn5 
	BYTE	W06
	BYTE		N05   
	BYTE	W06
	BYTE		        Cn4 
	BYTE	W06
	BYTE		N05   
	BYTE	W06
	BYTE		        Gn4 
	BYTE	W06
	BYTE		N05   
	BYTE	W06
	BYTE		        Cn5 
	BYTE	W06
	BYTE		N05   
	BYTE	W06
	BYTE		        Cn4 
	BYTE	W06
	BYTE		N05   
	BYTE	W06
	BYTE		        Gn4 
	BYTE	W06
	BYTE		N05   
	BYTE	W06
	BYTE	PEND
// 002   ----------------------------------------
DetectiveGumshoe_2_002:
	BYTE		N05     Cn5   v080
	BYTE	W06
	BYTE		N05   
	BYTE	W06
	BYTE		        Cn4 
	BYTE	W06
	BYTE		N05   
	BYTE	W06
	BYTE		        Gn4 
	BYTE	W06
	BYTE		N05   
	BYTE	W06
	BYTE		        Cn5 
	BYTE	W06
	BYTE		N05   
	BYTE	W06
	BYTE	PEND
// 003   ----------------------------------------
	BYTE	PATT
	 POIN2	DetectiveGumshoe_2_001
// 004   ----------------------------------------
DetectiveGumshoe_2_004:
	BYTE		N05     Cn5   v080
	BYTE	W06
	BYTE		N05   
	BYTE	W06
	BYTE		        Cn4 
	BYTE	W06
	BYTE		N05   
	BYTE	W06
	BYTE		        Gn4 
	BYTE	W06
	BYTE		N05   
	BYTE	W06
	BYTE		        Cn5 
	BYTE	W06
	BYTE		N05   
	BYTE	W06
	BYTE		        Cn4 
	BYTE	W06
	BYTE		N05   
	BYTE	W06
	BYTE		        Gn4 
	BYTE	W06
	BYTE		N05   
	BYTE	W06
	BYTE		        Cn5 
	BYTE	W06
	BYTE		N05   
	BYTE	W06
	BYTE		        Cn4 
	BYTE	W06
	BYTE		N05   
	BYTE	W06
	BYTE	PEND
// 005   ----------------------------------------
DetectiveGumshoe_2_005:
	BYTE		N05     Gn4   v080
	BYTE	W06
	BYTE		N05   
	BYTE	W06
	BYTE		        Cn5 
	BYTE	W06
	BYTE		N05   
	BYTE	W06
	BYTE		        Cn4 
	BYTE	W06
	BYTE		N05   
	BYTE	W06
	BYTE		        Gn4 
	BYTE	W06
	BYTE		N05   
	BYTE	W06
	BYTE		        Cn5 
	BYTE	W06
	BYTE		N05   
	BYTE	W06
	BYTE		        Cn4 
	BYTE	W06
	BYTE		N05   
	BYTE	W06
	BYTE		        Gn4 
	BYTE	W06
	BYTE		N05   
	BYTE	W06
	BYTE		        Cn5 
	BYTE	W06
	BYTE		N05   
	BYTE	W06
	BYTE	PEND
// 006   ----------------------------------------
	BYTE		        Cn4 
	BYTE	W06
	BYTE		N05   
	BYTE	W06
	BYTE		        Gn4 
	BYTE	W06
	BYTE		N05   
	BYTE	W06
	BYTE		        Cn5 
	BYTE	W06
	BYTE		N05   
	BYTE	W06
	BYTE		        Cn4 
	BYTE	W06
	BYTE		N05   
	BYTE	W06
// 007   ----------------------------------------
	BYTE	PATT
	 POIN2	DetectiveGumshoe_2_005
// 008   ----------------------------------------
	BYTE	PATT
	 POIN2	DetectiveGumshoe_2_001
// 009   ----------------------------------------
	BYTE	PATT
	 POIN2	DetectiveGumshoe_2_004
// 010   ----------------------------------------
	BYTE		N05     Gn4   v080
	BYTE	W06
	BYTE		N05   
	BYTE	W06
	BYTE		        Cn5 
	BYTE	W06
	BYTE		N05   
	BYTE	W06
	BYTE		        Cn4 
	BYTE	W06
	BYTE		N05   
	BYTE	W06
	BYTE		        Gn4 
	BYTE	W06
	BYTE		N05   
	BYTE	W06
// 011   ----------------------------------------
	BYTE	PATT
	 POIN2	DetectiveGumshoe_2_004
// 012   ----------------------------------------
	BYTE	PATT
	 POIN2	DetectiveGumshoe_2_005
// 013   ----------------------------------------
	BYTE	PATT
	 POIN2	DetectiveGumshoe_2_001
// 014   ----------------------------------------
	BYTE	PATT
	 POIN2	DetectiveGumshoe_2_002
// 015   ----------------------------------------
	BYTE	PATT
	 POIN2	DetectiveGumshoe_2_001
// 016   ----------------------------------------
	BYTE		N05     Cn5   v080
	BYTE	W06
	BYTE		N05   
	BYTE	W06
	BYTE		        Dn4 
	BYTE	W06
	BYTE		N05   
	BYTE	W06
	BYTE		        Fn4 
	BYTE	W06
	BYTE		N05   
	BYTE	W06
	BYTE		        As4 
	BYTE	W06
	BYTE		N05   
	BYTE	W06
	BYTE		        Dn4 
	BYTE	W06
	BYTE		N05   
	BYTE	W06
	BYTE		        Fn4 
	BYTE	W06
	BYTE		N05   
	BYTE	W06
	BYTE		        As4 
	BYTE	W06
	BYTE		N17   
	BYTE	W18
// 017   ----------------------------------------
	BYTE	W84
	BYTE		N11     Gn4 
	BYTE	W12
// 018   ----------------------------------------
	BYTE		N02     As4 
	BYTE	W02
	BYTE		N08     Cn5 
	BYTE	W10
	BYTE		N05     As4 
	BYTE	W06
	BYTE		N11     Gn4 
	BYTE	W12
	BYTE		N17     Fn4 
	BYTE	W18
	BYTE		N02   
	BYTE	W02
	BYTE		N20     Gn4 
	BYTE	W22
	BYTE		N11     Cn4 
	BYTE	W12
	BYTE		        Ds4 
	BYTE	W12
// 019   ----------------------------------------
	BYTE		N32     Fn4 
	BYTE	W36
	BYTE		N05     Fs4 
	BYTE	W06
	BYTE		        Fn4 
	BYTE	W06
	BYTE		N56     Ds4 
	BYTE	W48
// 020   ----------------------------------------
	BYTE	W12
	BYTE		N11     Cn4 
	BYTE	W12
	BYTE		        Ds4 
	BYTE	W12
	BYTE		N05     Cn4 
	BYTE	W06
	BYTE		N11     Ds4 
	BYTE	W12
	BYTE		N11   
	BYTE	W12
	BYTE		N05     Cn4 
	BYTE	W06
	BYTE		N11     Ds4 
	BYTE	W12
	BYTE		N90     Fn4 
	BYTE	W12
// 021   ----------------------------------------
	BYTE	W84
	BYTE		N05     Cn4 
	BYTE	W06
	BYTE		        Gn4 
	BYTE	W06
// 022   ----------------------------------------
	BYTE		N02     As4 
	BYTE	W02
	BYTE		N08     Cn5 
	BYTE	W10
	BYTE		N05     As4 
	BYTE	W06
	BYTE		N11     Gn4 
	BYTE	W12
	BYTE		N17     Fn4 
	BYTE	W18
	BYTE		N02   
	BYTE	W02
	BYTE		N20     Gn4 
	BYTE	W22
	BYTE		N22     As4 
	BYTE	W24
// 023   ----------------------------------------
	BYTE		N32     Fn4 
	BYTE	W36
	BYTE		N02   
	BYTE	W02
	BYTE		N08     Gn4 
	BYTE	W10
	BYTE		N17     Fn4 
	BYTE	W18
	BYTE		N36     Ds4 
	BYTE	W30
// 024   ----------------------------------------
	BYTE	W12
	BYTE		N11     Cn4 
	BYTE	W12
	BYTE		        Ds4 
	BYTE	W12
	BYTE		N05     Cn4 
	BYTE	W06
	BYTE		N11     Ds4 
	BYTE	W12
	BYTE		N11   
	BYTE	W12
	BYTE		N05     Cn4 
	BYTE	W06
	BYTE		N11     Ds4 
	BYTE	W12
	BYTE		        Fn4 
	BYTE	W12
// 025   ----------------------------------------
	BYTE		N17   
	BYTE	W18
	BYTE		        Gn4 
	BYTE	W18
	BYTE		N11     As4 
	BYTE	W12
	BYTE		        Ds4 
	BYTE	W48
// 026   ----------------------------------------
	BYTE	PATT
	 POIN2	DetectiveGumshoe_2_001
// 027   ----------------------------------------
	BYTE		N05     Cn5   v080
	BYTE	W06
	BYTE		N05   
	BYTE	W06
	BYTE		        Cn4 
	BYTE	W06
	BYTE		N05   
	BYTE	W06
	BYTE		        Gn4 
	BYTE	W06
	BYTE		N05   
	BYTE	W06
	BYTE		        Cn5 
	BYTE	W06
	BYTE		N05   
	BYTE	W06
	BYTE		        Cn4 
	BYTE	W06
	BYTE		N05   
	BYTE	W06
	BYTE		        Gn4 
	BYTE	W06
	BYTE		N05   
	BYTE	W06
	BYTE		        Cn4 
	BYTE	W06
	BYTE		        Dn4 
	BYTE	W06
	BYTE		        Gn4 
	BYTE	W06
	BYTE		        Cn5 
	BYTE	W06
	BYTE	GoTo
	 POIN2	DetectiveGumshoe_2_B1
DetectiveGumshoe_2_B2:
// 028   ----------------------------------------
	BYTE	PATT
	 POIN2	DetectiveGumshoe_2_001
// 029   ----------------------------------------
	BYTE	FINE

//**************** Track 3 (Midi-Chn.3) ****************//

DetectiveGumshoe_3:
	BYTE	KEYSH   DetectiveGumshoe_key+0
// 000   ----------------------------------------
	BYTE		VOICE   1
	BYTE		VOL     101*DetectiveGumshoe_mvl/mxv
	BYTE		N11     Dn2   v080
	BYTE	W12
DetectiveGumshoe_3_B1:
// 001   ----------------------------------------
	BYTE		N90     Ds2   v080
	BYTE	W96
// 002   ----------------------------------------
DetectiveGumshoe_3_002:
	BYTE		N17     Dn2   v080
	BYTE	W18
	BYTE		        As1 
	BYTE	W18
	BYTE		N11     Gn1 
	BYTE	W12
	BYTE	PEND
// 003   ----------------------------------------
	BYTE		N90     Cn2 
	BYTE	W96
// 004   ----------------------------------------
	BYTE	W84
	BYTE		N11     Dn2 
	BYTE	W12
// 005   ----------------------------------------
	BYTE		N90     Ds2 
	BYTE	W96
// 006   ----------------------------------------
	BYTE	PATT
	 POIN2	DetectiveGumshoe_3_002
// 007   ----------------------------------------
DetectiveGumshoe_3_007:
	BYTE		N32     Fn2   v080
	BYTE	W36
	BYTE		N56     Ds2 
	BYTE	W60
	BYTE	PEND
// 008   ----------------------------------------
	BYTE	W84
	BYTE		N11     Dn2 
	BYTE	W12
// 009   ----------------------------------------
	BYTE		N90     Ds2 
	BYTE	W96
// 010   ----------------------------------------
	BYTE	PATT
	 POIN2	DetectiveGumshoe_3_002
// 011   ----------------------------------------
	BYTE		N90     Cn2   v080
	BYTE	W96
// 012   ----------------------------------------
	BYTE	W84
	BYTE		N11     Dn2 
	BYTE	W12
// 013   ----------------------------------------
	BYTE		N90     Ds2 
	BYTE	W96
// 014   ----------------------------------------
	BYTE	PATT
	 POIN2	DetectiveGumshoe_3_002
// 015   ----------------------------------------
	BYTE	PATT
	 POIN2	DetectiveGumshoe_3_007
// 016   ----------------------------------------
	BYTE		N32     Gn2   v080
	BYTE	W36
	BYTE		N56     Fn2 
	BYTE	W60
// 017   ----------------------------------------
DetectiveGumshoe_3_017:
	BYTE		N44     As1   v080
	BYTE		N17     Ds2 
	BYTE	W18
	BYTE		        Fn2 
	BYTE	W18
	BYTE		N11     Ds2 
	BYTE	W12
	BYTE		N17   
	BYTE		N17     As2 
	BYTE	W18
	BYTE		N28     As1 
	BYTE		N17     Fn2 
	BYTE	W18
	BYTE		N11     Ds2 
	BYTE	W12
	BYTE	PEND
// 018   ----------------------------------------
DetectiveGumshoe_3_018:
	BYTE		N44     As1   v080
	BYTE		N68     Ds2 
	BYTE	W48
	BYTE		N22     Cn2 
	BYTE	W24
	BYTE		        Dn2 
	BYTE	W24
	BYTE	PEND
// 019   ----------------------------------------
DetectiveGumshoe_3_019:
	BYTE		N44     As1   v080
	BYTE		N17     Ds2 
	BYTE	W18
	BYTE		        Fn2 
	BYTE	W18
	BYTE		N11     Ds2 
	BYTE	W12
	BYTE		N17   
	BYTE		N17     Gs2 
	BYTE	W18
	BYTE		        As1 
	BYTE		N17     Gn2 
	BYTE	W18
	BYTE		N11     Cn2 
	BYTE		N11     Ds2 
	BYTE	W12
	BYTE	PEND
// 020   ----------------------------------------
	BYTE		N32   
	BYTE		N32     Gn2 
	BYTE	W36
	BYTE		N05     Fn2 
	BYTE		N05     Gs2 
	BYTE	W06
	BYTE		        Ds2 
	BYTE		N05     Gn2 
	BYTE	W06
	BYTE		N44     Dn2 
	BYTE		N44     Fn2 
	BYTE	W48
// 021   ----------------------------------------
	BYTE	PATT
	 POIN2	DetectiveGumshoe_3_017
// 022   ----------------------------------------
	BYTE	PATT
	 POIN2	DetectiveGumshoe_3_018
// 023   ----------------------------------------
	BYTE	PATT
	 POIN2	DetectiveGumshoe_3_019
// 024   ----------------------------------------
	BYTE		N32     Ds2   v080
	BYTE		N32     Gn2 
	BYTE	W36
	BYTE		N05     Fn2 
	BYTE		N05     Gs2 
	BYTE	W06
	BYTE		        Ds2 
	BYTE		N05     Gn2 
	BYTE	W06
	BYTE		N22     Dn2 
	BYTE		N22     Fn2 
	BYTE	W24
	BYTE		N11     Cn2 
	BYTE		N11     Ds2 
	BYTE	W12
	BYTE		        As1 
	BYTE		N11     Dn2 
	BYTE	W12
// 025   ----------------------------------------
	BYTE		N32     Gn1 
	BYTE		N32     Dn2 
	BYTE	W36
	BYTE		N56     Gn1 
	BYTE		N56     Cn2 
	BYTE	W60
// 026   ----------------------------------------
	BYTE		N32     As1 
	BYTE		N32     Ds2 
	BYTE	W36
	BYTE		N56     Gn1 
	BYTE		N56     Dn2 
	BYTE	W60
// 027   ----------------------------------------
	BYTE	W84
	BYTE		N11   
	BYTE	W12
	BYTE	GoTo
	 POIN2	DetectiveGumshoe_3_B1
DetectiveGumshoe_3_B2:
// 028   ----------------------------------------
	BYTE		N90     Ds2   v080
	BYTE	W96
// 029   ----------------------------------------
	BYTE	FINE

//**************** Track 4 (Midi-Chn.4) ****************//

DetectiveGumshoe_4:
	BYTE	KEYSH   DetectiveGumshoe_key+0
// 000   ----------------------------------------
	BYTE		VOICE   24
	BYTE		VOL     104*DetectiveGumshoe_mvl/mxv
	BYTE		PAN     c_v+0
	BYTE	W12
DetectiveGumshoe_4_B1:
// 001   ----------------------------------------
DetectiveGumshoe_4_001:
	BYTE		N11     Cn3   v080
	BYTE	W12
	BYTE		N05   
	BYTE	W06
	BYTE		N11     Gn3 
	BYTE	W12
	BYTE		N05   
	BYTE	W06
	BYTE		N56     Dn4 
	BYTE	W60
	BYTE	PEND
// 002   ----------------------------------------
	BYTE	W48
// 003   ----------------------------------------
	BYTE	W96
// 004   ----------------------------------------
	BYTE	W96
// 005   ----------------------------------------
	BYTE	PATT
	 POIN2	DetectiveGumshoe_4_001
// 006   ----------------------------------------
	BYTE	W48
// 007   ----------------------------------------
	BYTE	W96
// 008   ----------------------------------------
	BYTE	W96
// 009   ----------------------------------------
	BYTE	PATT
	 POIN2	DetectiveGumshoe_4_001
// 010   ----------------------------------------
	BYTE	W48
// 011   ----------------------------------------
	BYTE	W96
// 012   ----------------------------------------
	BYTE	W96
// 013   ----------------------------------------
	BYTE	PATT
	 POIN2	DetectiveGumshoe_4_001
// 014   ----------------------------------------
	BYTE	W48
// 015   ----------------------------------------
DetectiveGumshoe_4_015:
	BYTE		N11     Gs2   v080
	BYTE	W12
	BYTE		N05   
	BYTE	W06
	BYTE		N11     Ds3 
	BYTE	W12
	BYTE		N05   
	BYTE	W06
	BYTE		N56     As3 
	BYTE	W60
	BYTE	PEND
// 016   ----------------------------------------
	BYTE	W96
// 017   ----------------------------------------
	BYTE	PATT
	 POIN2	DetectiveGumshoe_4_015
// 018   ----------------------------------------
	BYTE	W96
// 019   ----------------------------------------
	BYTE	PATT
	 POIN2	DetectiveGumshoe_4_015
// 020   ----------------------------------------
	BYTE	W96
// 021   ----------------------------------------
	BYTE	PATT
	 POIN2	DetectiveGumshoe_4_015
// 022   ----------------------------------------
	BYTE	W96
// 023   ----------------------------------------
	BYTE	PATT
	 POIN2	DetectiveGumshoe_4_015
// 024   ----------------------------------------
	BYTE	W96
// 025   ----------------------------------------
	BYTE	PATT
	 POIN2	DetectiveGumshoe_4_015
// 026   ----------------------------------------
	BYTE	W96
// 027   ----------------------------------------
	BYTE	W96
	BYTE	GoTo
	 POIN2	DetectiveGumshoe_4_B1
DetectiveGumshoe_4_B2:
// 028   ----------------------------------------
	BYTE	PATT
	 POIN2	DetectiveGumshoe_4_001
// 029   ----------------------------------------
	BYTE	FINE

//**************** Track 5 (Midi-Chn.5) ****************//

DetectiveGumshoe_5:
	BYTE	KEYSH   DetectiveGumshoe_key+0
// 000   ----------------------------------------
	BYTE		VOICE   33
	BYTE		VOL     115*DetectiveGumshoe_mvl/mxv
	BYTE		PAN     c_v+0
	BYTE	W12
DetectiveGumshoe_5_B1:
// 001   ----------------------------------------
DetectiveGumshoe_5_001:
	BYTE		N05     Cn3   v080
	BYTE	W06
	BYTE		N08   
	BYTE	W78
	BYTE		N11   
	BYTE	W12
	BYTE	PEND
// 002   ----------------------------------------
	BYTE		N08   
	BYTE	W18
	BYTE		N05   
	BYTE	W18
	BYTE		N11   
	BYTE	W12
// 003   ----------------------------------------
	BYTE	PATT
	 POIN2	DetectiveGumshoe_5_001
// 004   ----------------------------------------
	BYTE		N08     Cn3   v080
	BYTE	W18
	BYTE		N05   
	BYTE	W18
	BYTE		N11   
	BYTE	W48
	BYTE		N11   
	BYTE	W12
// 005   ----------------------------------------
	BYTE		N05   
	BYTE	W06
	BYTE		N08   
	BYTE	W66
	BYTE		N11     As2 
	BYTE	W12
	BYTE		        Cn3 
	BYTE	W12
// 006   ----------------------------------------
	BYTE		N08   
	BYTE	W18
	BYTE		N05     Gn2 
	BYTE	W18
	BYTE		N11     Dn3 
	BYTE	W12
// 007   ----------------------------------------
	BYTE	PATT
	 POIN2	DetectiveGumshoe_5_001
// 008   ----------------------------------------
	BYTE		N11     Cn3   v080
	BYTE	W24
	BYTE		N11   
	BYTE	W24
	BYTE		N05   
	BYTE	W06
	BYTE		        Dn3 
	BYTE	W06
	BYTE		        Ds3 
	BYTE	W06
	BYTE		N11     Gn2 
	BYTE	W12
	BYTE		        As2 
	BYTE	W12
	BYTE		N05     Bn2 
	BYTE	W06
// 009   ----------------------------------------
	BYTE		        Cn3 
	BYTE	W06
	BYTE		N08   
	BYTE	W72
	BYTE		N05   
	BYTE	W06
	BYTE		        Ds3 
	BYTE	W06
	BYTE		        Dn3 
	BYTE	W06
// 010   ----------------------------------------
	BYTE		N08     Cn3 
	BYTE	W18
	BYTE		N05     As2 
	BYTE	W18
	BYTE		N11     Gn2 
	BYTE	W12
// 011   ----------------------------------------
	BYTE		N05     Gs2 
	BYTE	W06
	BYTE		N08   
	BYTE	W30
	BYTE		N05     Fn2 
	BYTE	W06
	BYTE		        Gn2 
	BYTE	W06
	BYTE		N08     Gs2 
	BYTE	W18
	BYTE		N05   
	BYTE	W18
	BYTE		N11   
	BYTE	W12
// 012   ----------------------------------------
	BYTE		N05     As2 
	BYTE	W06
	BYTE		N08   
	BYTE	W30
	BYTE		N05     Gs2 
	BYTE	W06
	BYTE		N14     As2 
	BYTE	W18
	BYTE		N11   
	BYTE	W12
	BYTE		        Ds3 
	BYTE	W12
	BYTE		        Dn3 
	BYTE	W12
// 013   ----------------------------------------
	BYTE		N05     Cn3 
	BYTE	W06
	BYTE		N08   
	BYTE	W54
	BYTE		N11   
	BYTE	W12
	BYTE		        Gn3 
	BYTE	W12
	BYTE		        Cn3 
	BYTE	W12
// 014   ----------------------------------------
	BYTE		N08   
	BYTE	W18
	BYTE		N05     Gn2 
	BYTE	W18
	BYTE		N11     As2 
	BYTE	W12
// 015   ----------------------------------------
	BYTE		N05     Gs2 
	BYTE	W06
	BYTE		N08   
	BYTE	W78
	BYTE		N05   
	BYTE	W06
	BYTE		N05   
	BYTE	W06
// 016   ----------------------------------------
	BYTE		        As2 
	BYTE	W06
	BYTE		N08   
	BYTE	W78
	BYTE		N05   
	BYTE	W06
	BYTE		N05   
	BYTE	W06
// 017   ----------------------------------------
DetectiveGumshoe_5_017:
	BYTE		N08     Cn3   v080
	BYTE	W18
	BYTE		N05     Dn3 
	BYTE	W18
	BYTE		N11     Ds3 
	BYTE	W12
	BYTE		N08     Fn3 
	BYTE	W18
	BYTE		N05     Gn2 
	BYTE	W18
	BYTE		N11     Gs2 
	BYTE	W12
	BYTE	PEND
// 018   ----------------------------------------
	BYTE		N08   
	BYTE	W18
	BYTE		N05   
	BYTE	W18
	BYTE		N11   
	BYTE	W12
	BYTE		N05   
	BYTE	W12
	BYTE		N05   
	BYTE	W12
	BYTE		N23     As2 
	BYTE	W24
// 019   ----------------------------------------
	BYTE	PATT
	 POIN2	DetectiveGumshoe_5_017
// 020   ----------------------------------------
DetectiveGumshoe_5_020:
	BYTE		N08     Cn3   v080
	BYTE	W18
	BYTE		N05   
	BYTE	W18
	BYTE		N11   
	BYTE	W18
	BYTE		N08     As2 
	BYTE	W18
	BYTE		N11   
	BYTE	W12
	BYTE		N11   
	BYTE	W12
	BYTE	PEND
// 021   ----------------------------------------
	BYTE	PATT
	 POIN2	DetectiveGumshoe_5_017
// 022   ----------------------------------------
	BYTE		N08     Gs2   v080
	BYTE	W18
	BYTE		N05   
	BYTE	W18
	BYTE		N11   
	BYTE	W12
	BYTE		N11   
	BYTE	W24
	BYTE		N23     As2 
	BYTE	W24
// 023   ----------------------------------------
	BYTE	PATT
	 POIN2	DetectiveGumshoe_5_017
// 024   ----------------------------------------
	BYTE	PATT
	 POIN2	DetectiveGumshoe_5_020
// 025   ----------------------------------------
	BYTE		N08     Gs2   v080
	BYTE	W18
	BYTE		N05   
	BYTE	W18
	BYTE		N11   
	BYTE	W12
	BYTE		N23   
	BYTE	W36
	BYTE		N05   
	BYTE	W06
	BYTE		N05   
	BYTE	W06
// 026   ----------------------------------------
	BYTE		        As2 
	BYTE	W06
	BYTE		N08   
	BYTE	W18
	BYTE		N11   
	BYTE	W12
	BYTE		N05   
	BYTE	W18
	BYTE		N08   
	BYTE	W18
	BYTE		N05   
	BYTE	W06
	BYTE		N08   
	BYTE	W18
// 027   ----------------------------------------
	BYTE	W84
	BYTE		N11     Gn2 
	BYTE	W12
	BYTE	GoTo
	 POIN2	DetectiveGumshoe_5_B1
DetectiveGumshoe_5_B2:
// 028   ----------------------------------------
	BYTE	PATT
	 POIN2	DetectiveGumshoe_5_001
// 029   ----------------------------------------
	BYTE	FINE

//**************** Track 6 (Midi-Chn.6) ****************//

DetectiveGumshoe_6:
	BYTE	KEYSH   DetectiveGumshoe_key+0
// 000   ----------------------------------------
	BYTE		VOICE   127
	BYTE		VOL     82*DetectiveGumshoe_mvl/mxv
	BYTE		PAN     c_v+0
	BYTE	W12
DetectiveGumshoe_6_B1:
// 001   ----------------------------------------
DetectiveGumshoe_6_001:
	BYTE		N05     Cn1   v080
	BYTE	W06
	BYTE		N17   
	BYTE	W18
	BYTE		N23     En1 
	BYTE	W36
	BYTE		N11     As1 
	BYTE	W12
	BYTE		N23     En1 
	BYTE		N23     Gs1 
	BYTE	W24
	BYTE	PEND
// 002   ----------------------------------------
DetectiveGumshoe_6_002:
	BYTE		N17     Cn1   v080
	BYTE	W18
	BYTE		N05   
	BYTE	W18
	BYTE		        En1 
	BYTE	W06
	BYTE		N05   
	BYTE	W06
	BYTE	PEND
// 003   ----------------------------------------
	BYTE		N11     Cn1 
	BYTE	W12
	BYTE		N11   
	BYTE	W12
	BYTE		N17     En1 
	BYTE	W18
	BYTE		N05   
	BYTE	W18
	BYTE		N11     As1 
	BYTE	W12
	BYTE		N23     En1 
	BYTE		N23     Gs1 
	BYTE	W24
// 004   ----------------------------------------
	BYTE		N05     Cn1 
	BYTE	W06
	BYTE		N17   
	BYTE	W18
	BYTE		N23     En1 
	BYTE	W30
	BYTE		N17     As1 
	BYTE	W06
	BYTE		N11     Gs1 
	BYTE	W12
	BYTE		N23     En1 
	BYTE		N23     As1 
	BYTE	W24
// 005   ----------------------------------------
	BYTE		N05     Cn1 
	BYTE		N23     Gs1 
	BYTE	W06
	BYTE		N17     Cn1 
	BYTE	W18
	BYTE		N23     En1 
	BYTE	W36
	BYTE		N11     Cn1 
	BYTE		N11     As1 
	BYTE	W12
	BYTE		N23     En1 
	BYTE		N23     Gs1 
	BYTE	W24
// 006   ----------------------------------------
	BYTE	PATT
	 POIN2	DetectiveGumshoe_6_002
// 007   ----------------------------------------
	BYTE		N05     Cn1   v080
	BYTE	W06
	BYTE		N17   
	BYTE	W18
	BYTE		N23     En1 
	BYTE	W36
	BYTE		N11     As1 
	BYTE	W12
	BYTE		N17     En1 
	BYTE		N23     Gs1 
	BYTE	W18
	BYTE		N05     En1 
	BYTE	W06
// 008   ----------------------------------------
	BYTE		N23     Cn1 
	BYTE	W24
	BYTE		N23   
	BYTE		N17     En1 
	BYTE	W18
	BYTE		N05   
	BYTE	W06
	BYTE		N11     Cn1 
	BYTE	W12
	BYTE		N11   
	BYTE	W12
	BYTE		N23   
	BYTE		N23     En1 
	BYTE	W24
// 009   ----------------------------------------
	BYTE		N05     Cn1 
	BYTE		N23     As1 
	BYTE	W06
	BYTE		N05     Cn1 
	BYTE	W06
	BYTE		N11     Gs1 
	BYTE	W12
	BYTE		N23     En1 
	BYTE		N11     Gs1 
	BYTE	W12
	BYTE		N11   
	BYTE	W12
	BYTE		N23   
	BYTE	W12
	BYTE		N11     As1 
	BYTE	W12
	BYTE		N23     En1 
	BYTE		N11     Gs1 
	BYTE	W12
	BYTE		N11   
	BYTE	W12
// 010   ----------------------------------------
DetectiveGumshoe_6_010:
	BYTE		N17     Cn1   v080
	BYTE		N17     Gs1 
	BYTE	W18
	BYTE		N05     Cn1 
	BYTE		N05     Gs1 
	BYTE	W18
	BYTE		        En1 
	BYTE		N11     Gs1 
	BYTE	W06
	BYTE		N05     En1 
	BYTE	W06
	BYTE	PEND
// 011   ----------------------------------------
	BYTE		N11     Cn1 
	BYTE		N11     Gs1 
	BYTE	W12
	BYTE		        Cn1 
	BYTE		N11     Gs1 
	BYTE	W12
	BYTE		N17     En1 
	BYTE		N11     Gs1 
	BYTE	W12
	BYTE		N11   
	BYTE	W06
	BYTE		N05     En1 
	BYTE	W06
	BYTE		N23     Gs1 
	BYTE	W12
	BYTE		N11     As1 
	BYTE	W12
	BYTE		N23     En1 
	BYTE		N11     Gs1 
	BYTE	W12
	BYTE		N11   
	BYTE	W12
// 012   ----------------------------------------
	BYTE		        Cn1 
	BYTE		N11     Gs1 
	BYTE	W12
	BYTE		        Cn1 
	BYTE		N11     Gs1 
	BYTE	W12
	BYTE		N23     En1 
	BYTE		N11     Gs1 
	BYTE	W12
	BYTE		N11   
	BYTE	W12
	BYTE		N11   
	BYTE	W06
	BYTE		N05     As1 
	BYTE	W06
	BYTE		N11     Cn1 
	BYTE		N11     Gs1 
	BYTE	W12
	BYTE		N23     En1 
	BYTE		N23     As1 
	BYTE	W24
// 013   ----------------------------------------
	BYTE		N05     Cn1 
	BYTE		N11     Gs1 
	BYTE	W06
	BYTE		N05     Cn1 
	BYTE	W06
	BYTE		N11     Gs1 
	BYTE	W12
	BYTE		N23     En1 
	BYTE		N11     Gs1 
	BYTE	W12
	BYTE		N11   
	BYTE	W12
	BYTE		N11   
	BYTE	W12
	BYTE		        Cn1 
	BYTE		N11     As1 
	BYTE	W12
	BYTE		N23     En1 
	BYTE		N11     Gs1 
	BYTE	W12
	BYTE		N11   
	BYTE	W12
// 014   ----------------------------------------
	BYTE	PATT
	 POIN2	DetectiveGumshoe_6_010
// 015   ----------------------------------------
	BYTE		N05     Cn1   v080
	BYTE		N11     Gs1 
	BYTE	W06
	BYTE		N17     Cn1 
	BYTE	W06
	BYTE		N11     Gs1 
	BYTE	W12
	BYTE		N23     En1 
	BYTE		N11     Gs1 
	BYTE	W12
	BYTE		N11   
	BYTE	W12
	BYTE		N05   
	BYTE	W06
	BYTE		N17   
	BYTE	W06
	BYTE		N11     As1 
	BYTE	W12
	BYTE		N17     En1 
	BYTE		N11     Gs1 
	BYTE	W12
	BYTE		N11   
	BYTE	W06
	BYTE		N05     En1 
	BYTE	W06
// 016   ----------------------------------------
	BYTE		N23     Cn1 
	BYTE		N05     Gs1 
	BYTE	W06
	BYTE		N05   
	BYTE	W06
	BYTE		N11   
	BYTE	W12
	BYTE		        Cn1 
	BYTE		N17     En1 
	BYTE	W12
	BYTE		N11     Gs1 
	BYTE	W06
	BYTE		N05     En1 
	BYTE	W06
	BYTE		N11     Cn1 
	BYTE	W12
	BYTE		N11   
	BYTE	W12
	BYTE		N23     En1 
	BYTE		N23     As1 
	BYTE	W24
// 017   ----------------------------------------
DetectiveGumshoe_6_017:
	BYTE		N17     Cn1   v080
	BYTE		N23     Gs1 
	BYTE	W18
	BYTE		N05     Cn1 
	BYTE	W18
	BYTE		N11   
	BYTE		N11     En1 
	BYTE	W12
	BYTE		N17     Cn1 
	BYTE	W18
	BYTE		N05   
	BYTE	W18
	BYTE		N11   
	BYTE		N11     En1 
	BYTE	W12
	BYTE	PEND
// 018   ----------------------------------------
DetectiveGumshoe_6_018:
	BYTE		N23     Cn1   v080
	BYTE		N23     As1 
	BYTE	W24
	BYTE		        En1 
	BYTE		N23     As1 
	BYTE	W24
	BYTE		N11     Cn1 
	BYTE	W12
	BYTE		N11   
	BYTE	W12
	BYTE		N23     En1 
	BYTE		N23     As1 
	BYTE	W24
	BYTE	PEND
// 019   ----------------------------------------
DetectiveGumshoe_6_019:
	BYTE		N17     Cn1   v080
	BYTE		N23     Gs1 
	BYTE	W18
	BYTE		N05     Cn1 
	BYTE	W18
	BYTE		N11   
	BYTE		N11     En1 
	BYTE	W12
	BYTE		N17     Cn1 
	BYTE	W18
	BYTE		N05   
	BYTE	W06
	BYTE		N11     En1 
	BYTE	W12
	BYTE		        Cn1 
	BYTE		N11     En1 
	BYTE	W12
	BYTE	PEND
// 020   ----------------------------------------
DetectiveGumshoe_6_020:
	BYTE		N11     Cn1   v080
	BYTE		N05     Gs1 
	BYTE	W06
	BYTE		N17   
	BYTE	W06
	BYTE		N11     As1 
	BYTE	W12
	BYTE		        Cn1 
	BYTE		N23     En1 
	BYTE	W12
	BYTE		N11     Gs1 
	BYTE	W12
	BYTE		N11   
	BYTE	W12
	BYTE		N11   
	BYTE	W12
	BYTE		N23     En1 
	BYTE		N11     As1 
	BYTE	W12
	BYTE		        Cn1 
	BYTE	W12
	BYTE	PEND
// 021   ----------------------------------------
	BYTE	PATT
	 POIN2	DetectiveGumshoe_6_017
// 022   ----------------------------------------
	BYTE	PATT
	 POIN2	DetectiveGumshoe_6_018
// 023   ----------------------------------------
	BYTE	PATT
	 POIN2	DetectiveGumshoe_6_019
// 024   ----------------------------------------
	BYTE	PATT
	 POIN2	DetectiveGumshoe_6_020
// 025   ----------------------------------------
	BYTE		N17     Cn1   v080
	BYTE		N23     As1 
	BYTE	W18
	BYTE		N05     Cn1 
	BYTE	W06
	BYTE		N23     En1 
	BYTE		N23     As1 
	BYTE	W24
	BYTE		N23   
	BYTE	W12
	BYTE		N11     Cn1 
	BYTE	W12
	BYTE		N23     En1 
	BYTE		N23     As1 
	BYTE	W24
// 026   ----------------------------------------
	BYTE		N11     Cn1 
	BYTE		N23     As1 
	BYTE	W12
	BYTE		N11     Cn1 
	BYTE	W12
	BYTE		N17     En1 
	BYTE		N23     As1 
	BYTE	W18
	BYTE		N05     Cn1 
	BYTE	W06
	BYTE		N23     As1 
	BYTE	W12
	BYTE		N11     Cn1 
	BYTE	W12
	BYTE		        En1 
	BYTE		N23     As1 
	BYTE	W12
	BYTE		N05     En1 
	BYTE	W06
	BYTE		N05   
	BYTE	W06
// 027   ----------------------------------------
	BYTE		N23     Cn1 
	BYTE		N23     As1 
	BYTE	W24
	BYTE		N23   
	BYTE	W24
	BYTE		        Gs1 
	BYTE	W36
	BYTE		N11     Cn1 
	BYTE	W12
	BYTE	GoTo
	 POIN2	DetectiveGumshoe_6_B1
DetectiveGumshoe_6_B2:
// 028   ----------------------------------------
	BYTE	PATT
	 POIN2	DetectiveGumshoe_6_001
// 029   ----------------------------------------
	BYTE	FINE

//******************************************************//
	ALIGN 4

DetectiveGumshoe:
	BYTE	6	// NumTrks
	BYTE	0	// NumBlks
	BYTE	DetectiveGumshoe_pri	// Priority
	BYTE	DetectiveGumshoe_rev	// Reverb.

	POIN2	DetectiveGumshoe_grp

	POIN2	DetectiveGumshoe_1
	POIN2	DetectiveGumshoe_2
	POIN2	DetectiveGumshoe_3
	POIN2	DetectiveGumshoe_4
	POIN2	DetectiveGumshoe_5
	POIN2	DetectiveGumshoe_6

	
