//Event file generated from Sappy .s format.
	#include "MPlayDef.event"

	#define	EasterStone_grp  voicegroup000
	#define	EasterStone_pri  0
	#define	EasterStone_rev  0
	#define	EasterStone_mvl  35
	#define	EasterStone_key  0
	#define	EasterStone_tbs  1
	#define	EasterStone_exg  0
	#define	EasterStone_cmp  1

	// .rodata
	//	EasterStone
	ALIGN 4

//**************** Track 1 (Midi-Chn.1) ****************//

EasterStone_1:
	BYTE	KEYSH   EasterStone_key+0
// 000   ----------------------------------------
	BYTE	TEMPO   115*EasterStone_tbs/2
	BYTE		VOICE   13
	BYTE		VOL     90*EasterStone_mvl/mxv
	BYTE		PAN     c_v-44
	BYTE		N07     En3   v127
	BYTE	W08
	BYTE		        Bn3 
	BYTE	W08
	BYTE		        En3 
	BYTE	W08
	BYTE		        Bn3 
	BYTE	W08
	BYTE		        An3 
	BYTE	W08
	BYTE		        Bn3 
	BYTE	W08
	BYTE		        En3 
	BYTE	W08
	BYTE		        Bn3 
	BYTE	W08
	BYTE		        En3 
	BYTE	W08
	BYTE		        Bn3 
	BYTE	W08
	BYTE		        An3 
	BYTE	W08
	BYTE		        Bn3 
	BYTE	W08
// 001   ----------------------------------------
EasterStone_1_001:
	BYTE		N07     En3   v127
	BYTE	W08
	BYTE		        Bn3 
	BYTE	W08
	BYTE		        En3 
	BYTE	W08
	BYTE		        Bn3 
	BYTE	W08
	BYTE		        An3 
	BYTE	W08
	BYTE		        Bn3 
	BYTE	W08
	BYTE		        En3 
	BYTE	W08
	BYTE		        Bn3 
	BYTE	W08
	BYTE		        En3 
	BYTE	W08
	BYTE		        An3 
	BYTE	W08
	BYTE		        Bn3 
	BYTE	W08
	BYTE		        En4 
	BYTE	W08
	BYTE	PEND
// 002   ----------------------------------------
EasterStone_1_002:
	BYTE		N07     En3   v127
	BYTE	W08
	BYTE		        Bn3 
	BYTE	W08
	BYTE		        En3 
	BYTE	W08
	BYTE		        Bn3 
	BYTE	W08
	BYTE		        An3 
	BYTE	W08
	BYTE		        Bn3 
	BYTE	W08
	BYTE		        En3 
	BYTE	W08
	BYTE		        Bn3 
	BYTE	W08
	BYTE		        En3 
	BYTE	W08
	BYTE		        Bn3 
	BYTE	W08
	BYTE		        An3 
	BYTE	W08
	BYTE		        Bn3 
	BYTE	W08
	BYTE	PEND
// 003   ----------------------------------------
	BYTE	PATT
	 POIN2	EasterStone_1_001
// 004   ----------------------------------------
	BYTE	PATT
	 POIN2	EasterStone_1_002
// 005   ----------------------------------------
	BYTE	PATT
	 POIN2	EasterStone_1_001
// 006   ----------------------------------------
	BYTE	PATT
	 POIN2	EasterStone_1_002
// 007   ----------------------------------------
	BYTE	PATT
	 POIN2	EasterStone_1_001
// 008   ----------------------------------------
	BYTE	PATT
	 POIN2	EasterStone_1_002
// 009   ----------------------------------------
	BYTE	PATT
	 POIN2	EasterStone_1_001
// 010   ----------------------------------------
EasterStone_1_010:
	BYTE		N07     En3   v127
	BYTE	W08
	BYTE		        Bn3 
	BYTE	W08
	BYTE		        En3 
	BYTE	W08
	BYTE		        Bn3 
	BYTE	W08
	BYTE		        An3 
	BYTE	W08
	BYTE		        Bn3 
	BYTE	W08
	BYTE		        En3 
	BYTE	W08
	BYTE		        Bn3 
	BYTE	W08
	BYTE		        En3 
	BYTE	W08
	BYTE		        Bn3 
	BYTE	W08
	BYTE		        An3 
	BYTE	W04
	BYTE	PEND
EasterStone_1_B1:
	BYTE	W04
	BYTE		N07     Bn3   v127
	BYTE	W08
// 011   ----------------------------------------
	BYTE	PATT
	 POIN2	EasterStone_1_001
// 012   ----------------------------------------
	BYTE	PATT
	 POIN2	EasterStone_1_002
// 013   ----------------------------------------
	BYTE	PATT
	 POIN2	EasterStone_1_001
// 014   ----------------------------------------
EasterStone_1_014:
	BYTE		N07     An3   v127
	BYTE	W08
	BYTE		        Dn4 
	BYTE	W08
	BYTE		        An3 
	BYTE	W08
	BYTE		        Dn4 
	BYTE	W08
	BYTE		        Gn3 
	BYTE	W08
	BYTE		        An3 
	BYTE	W08
	BYTE		N07   
	BYTE	W08
	BYTE		        Dn4 
	BYTE	W08
	BYTE		        An3 
	BYTE	W08
	BYTE		N07   
	BYTE	W08
	BYTE		        Dn4 
	BYTE	W08
	BYTE		        Gn4 
	BYTE	W08
	BYTE	PEND
// 015   ----------------------------------------
	BYTE		N14     An3 
	BYTE	W16
	BYTE		        Dn4 
	BYTE	W16
	BYTE		        En4 
	BYTE	W16
	BYTE		N07     Bn3 
	BYTE	W08
	BYTE		        En4 
	BYTE	W08
	BYTE		        Fs4 
	BYTE	W08
	BYTE		        Cs4 
	BYTE	W08
	BYTE		        Fs4 
	BYTE	W08
	BYTE		        Gs4 
	BYTE	W08
// 016   ----------------------------------------
	BYTE	PATT
	 POIN2	EasterStone_1_002
// 017   ----------------------------------------
	BYTE	PATT
	 POIN2	EasterStone_1_001
// 018   ----------------------------------------
	BYTE	PATT
	 POIN2	EasterStone_1_002
// 019   ----------------------------------------
	BYTE	PATT
	 POIN2	EasterStone_1_001
// 020   ----------------------------------------
EasterStone_1_020:
	BYTE		N07     En3   v127
	BYTE	W08
	BYTE		        Bn3 
	BYTE	W08
	BYTE		        En3 
	BYTE	W08
	BYTE		        Bn3 
	BYTE	W08
	BYTE		        Gs3 
	BYTE	W08
	BYTE		        Bn3 
	BYTE	W08
	BYTE		        En3 
	BYTE	W08
	BYTE		        Bn3 
	BYTE	W08
	BYTE		        En3 
	BYTE	W08
	BYTE		        Bn3 
	BYTE	W08
	BYTE		        Gs3 
	BYTE	W08
	BYTE		        Bn3 
	BYTE	W08
	BYTE	PEND
// 021   ----------------------------------------
	BYTE	PATT
	 POIN2	EasterStone_1_020
// 022   ----------------------------------------
	BYTE	PATT
	 POIN2	EasterStone_1_014
// 023   ----------------------------------------
	BYTE		N02     An3   v127
	BYTE	W03
	BYTE		        As3 
	BYTE	W03
	BYTE		        Bn3 
	BYTE	W03
	BYTE		        Cn4 
	BYTE	W03
	BYTE		        Cs4 
	BYTE	W03
	BYTE		        Dn4 
	BYTE	W03
	BYTE		        Ds4 
	BYTE	W03
	BYTE		        En4 
	BYTE	W03
	BYTE		        Fn4 
	BYTE	W03
	BYTE		        Fs4 
	BYTE	W03
	BYTE		        Gn4 
	BYTE	W03
	BYTE		        Gs4 
	BYTE	W03
	BYTE		        An4 
	BYTE	W03
	BYTE		        As4 
	BYTE	W03
	BYTE		        Bn4 
	BYTE	W03
	BYTE		        Cn5 
	BYTE	W03
	BYTE		        Cs5 
	BYTE	W03
	BYTE		        Dn5 
	BYTE	W03
	BYTE		        Ds5 
	BYTE	W03
	BYTE		        En5 
	BYTE	W03
	BYTE		        Fn5 
	BYTE	W03
	BYTE		        Fs5 
	BYTE	W03
	BYTE		        Gn5 
	BYTE	W03
	BYTE		        Gs5 
	BYTE	W03
	BYTE		        An5 
	BYTE	W03
	BYTE		        As5 
	BYTE	W03
	BYTE		        Bn5 
	BYTE	W03
	BYTE		        Cn6 
	BYTE	W03
	BYTE		        Cs6 
	BYTE	W03
	BYTE		        Dn6 
	BYTE	W03
	BYTE		        Ds6 
	BYTE	W03
	BYTE		        En6 
	BYTE	W03
// 024   ----------------------------------------
EasterStone_1_024:
	BYTE		N03     An3   v127
	BYTE	W04
	BYTE		        Dn4 
	BYTE	W04
	BYTE		        Gn4 
	BYTE	W04
	BYTE		        Dn4 
	BYTE	W04
	BYTE		        Gn4 
	BYTE	W04
	BYTE		        An4 
	BYTE	W04
	BYTE		        Gn4 
	BYTE	W04
	BYTE		        An4 
	BYTE	W04
	BYTE		        Dn5 
	BYTE	W04
	BYTE		        An4 
	BYTE	W04
	BYTE		        Dn5 
	BYTE	W04
	BYTE		        Gn5 
	BYTE	W04
	BYTE		        Gs3 
	BYTE	W04
	BYTE		        Cs4 
	BYTE	W04
	BYTE		        Fs4 
	BYTE	W04
	BYTE		        Cs4 
	BYTE	W04
	BYTE		        Fs4 
	BYTE	W04
	BYTE		        Gs4 
	BYTE	W04
	BYTE		        Fs4 
	BYTE	W04
	BYTE		        Gs4 
	BYTE	W04
	BYTE		        Cs5 
	BYTE	W04
	BYTE		        Gs4 
	BYTE	W04
	BYTE		        Cs5 
	BYTE	W04
	BYTE		        Fs5 
	BYTE	W04
	BYTE	PEND
// 025   ----------------------------------------
	BYTE	PATT
	 POIN2	EasterStone_1_024
// 026   ----------------------------------------
EasterStone_1_026:
	BYTE		N03     Cn4   v127
	BYTE	W04
	BYTE		        Fn4 
	BYTE	W04
	BYTE		        As4 
	BYTE	W04
	BYTE		        Fn4 
	BYTE	W04
	BYTE		        As4 
	BYTE	W04
	BYTE		        Cn5 
	BYTE	W04
	BYTE		        As4 
	BYTE	W04
	BYTE		        Cn5 
	BYTE	W04
	BYTE		        Fn5 
	BYTE	W04
	BYTE		        Cn5 
	BYTE	W04
	BYTE		        Fn5 
	BYTE	W04
	BYTE		        As5 
	BYTE	W04
	BYTE		        Bn3 
	BYTE	W04
	BYTE		        En4 
	BYTE	W04
	BYTE		        An4 
	BYTE	W04
	BYTE		        En4 
	BYTE	W04
	BYTE		        An4 
	BYTE	W04
	BYTE		        Bn4 
	BYTE	W04
	BYTE		        An4 
	BYTE	W04
	BYTE		        Bn4 
	BYTE	W04
	BYTE		        En5 
	BYTE	W04
	BYTE		        Bn4 
	BYTE	W04
	BYTE		        En5 
	BYTE	W04
	BYTE		        An5 
	BYTE	W04
	BYTE	PEND
// 027   ----------------------------------------
	BYTE	PATT
	 POIN2	EasterStone_1_026
// 028   ----------------------------------------
EasterStone_1_028:
	BYTE		N03     Ds4   v127
	BYTE	W04
	BYTE		        Gs4 
	BYTE	W04
	BYTE		        Cs5 
	BYTE	W04
	BYTE		        Gs4 
	BYTE	W04
	BYTE		        Cs5 
	BYTE	W04
	BYTE		        Ds5 
	BYTE	W04
	BYTE		        Cs5 
	BYTE	W04
	BYTE		        Ds5 
	BYTE	W04
	BYTE		        Gs5 
	BYTE	W04
	BYTE		        Ds5 
	BYTE	W04
	BYTE		        Gs5 
	BYTE	W04
	BYTE		        Cs6 
	BYTE	W04
	BYTE		        Dn4 
	BYTE	W04
	BYTE		        Gn4 
	BYTE	W04
	BYTE		        Cn5 
	BYTE	W04
	BYTE		        Gn4 
	BYTE	W04
	BYTE		        Cn5 
	BYTE	W04
	BYTE		        Dn5 
	BYTE	W04
	BYTE		        Cn5 
	BYTE	W04
	BYTE		        Dn5 
	BYTE	W04
	BYTE		        Gn5 
	BYTE	W04
	BYTE		        Dn5 
	BYTE	W04
	BYTE		        Gn5 
	BYTE	W04
	BYTE		        Cn6 
	BYTE	W04
	BYTE	PEND
// 029   ----------------------------------------
	BYTE	PATT
	 POIN2	EasterStone_1_028
// 030   ----------------------------------------
	BYTE		N03     As3   v127
	BYTE	W04
	BYTE		        Bn3 
	BYTE	W04
	BYTE		        En4 
	BYTE	W04
	BYTE		        An3 
	BYTE	W04
	BYTE		        Dn4 
	BYTE	W04
	BYTE		        Gn4 
	BYTE	W04
	BYTE		        Bn3 
	BYTE	W04
	BYTE		        Cn4 
	BYTE	W04
	BYTE		        Fn4 
	BYTE	W04
	BYTE		        As3 
	BYTE	W04
	BYTE		        Ds4 
	BYTE	W04
	BYTE		        Gs4 
	BYTE	W04
	BYTE		        Cn4 
	BYTE	W04
	BYTE		        Cs4 
	BYTE	W04
	BYTE		        Fs4 
	BYTE	W04
	BYTE		        Bn3 
	BYTE	W04
	BYTE		        En4 
	BYTE	W04
	BYTE		        An4 
	BYTE	W04
	BYTE		        Cs4 
	BYTE	W04
	BYTE		        Dn4 
	BYTE	W04
	BYTE		        Gn4 
	BYTE	W04
	BYTE		        Cn4 
	BYTE	W04
	BYTE		        Fn4 
	BYTE	W04
	BYTE		        As4 
	BYTE	W04
// 031   ----------------------------------------
	BYTE		        Dn4 
	BYTE	W04
	BYTE		        Ds4 
	BYTE	W04
	BYTE		        Gs4 
	BYTE	W04
	BYTE		        Cs4 
	BYTE	W04
	BYTE		        Fs4 
	BYTE	W04
	BYTE		        Bn4 
	BYTE	W04
	BYTE		        Ds4 
	BYTE	W04
	BYTE		        En4 
	BYTE	W04
	BYTE		        An4 
	BYTE	W04
	BYTE		        Dn4 
	BYTE	W04
	BYTE		        Gn4 
	BYTE	W04
	BYTE		        Cn5 
	BYTE	W04
	BYTE		        En4 
	BYTE	W04
	BYTE		        Fn4 
	BYTE	W04
	BYTE		        As4 
	BYTE	W04
	BYTE		        Ds4 
	BYTE	W04
	BYTE		        Gs4 
	BYTE	W04
	BYTE		        Cs5 
	BYTE	W04
	BYTE		        Fn4 
	BYTE	W04
	BYTE		        Fs4 
	BYTE	W04
	BYTE		        Bn4 
	BYTE	W04
	BYTE		        En4 
	BYTE	W04
	BYTE		        An4 
	BYTE	W04
	BYTE		        Dn5 
	BYTE	W04
// 032   ----------------------------------------
	BYTE	PATT
	 POIN2	EasterStone_1_002
// 033   ----------------------------------------
	BYTE	PATT
	 POIN2	EasterStone_1_001
// 034   ----------------------------------------
	BYTE	PATT
	 POIN2	EasterStone_1_002
// 035   ----------------------------------------
	BYTE	PATT
	 POIN2	EasterStone_1_001
// 036   ----------------------------------------
	BYTE	PATT
	 POIN2	EasterStone_1_002
// 037   ----------------------------------------
	BYTE	PATT
	 POIN2	EasterStone_1_001
// 038   ----------------------------------------
	BYTE	PATT
	 POIN2	EasterStone_1_002
// 039   ----------------------------------------
	BYTE	PATT
	 POIN2	EasterStone_1_001
// 040   ----------------------------------------
	BYTE	PATT
	 POIN2	EasterStone_1_002
// 041   ----------------------------------------
	BYTE	PATT
	 POIN2	EasterStone_1_001
// 042   ----------------------------------------
	BYTE	PATT
	 POIN2	EasterStone_1_010
	BYTE	GoTo
	 POIN2	EasterStone_1_B1
EasterStone_1_B2:
	BYTE	W04
	BYTE		N07     Bn3   v127
	BYTE	W08
// 043   ----------------------------------------
	BYTE		        En3 
	BYTE	W08
	BYTE		        Bn3 
	BYTE	W08
	BYTE		        En3 
	BYTE	W08
	BYTE		        Bn3 
	BYTE	W08
	BYTE		        An3 
	BYTE	W08
	BYTE		        Bn3 
	BYTE	W08
	BYTE		        En3 
	BYTE	W08
	BYTE		        Bn3 
	BYTE	W08
	BYTE		        En3 
	BYTE	W08
	BYTE		        An3 
	BYTE	W08
	BYTE		        Bn3 
	BYTE	W08
	BYTE		        En4 
	BYTE	W07
	BYTE		BEND    c_v+0
	BYTE	W01
// 044   ----------------------------------------
	BYTE	FINE

//**************** Track 2 (Midi-Chn.2) ****************//

EasterStone_2:
	BYTE	KEYSH   EasterStone_key+0
// 000   ----------------------------------------
	BYTE		VOICE   57
	BYTE		VOL     127*EasterStone_mvl/mxv
	BYTE		PAN     c_v-4
	BYTE	W96
// 001   ----------------------------------------
	BYTE	W96
// 002   ----------------------------------------
	BYTE	W96
// 003   ----------------------------------------
	BYTE	W96
// 004   ----------------------------------------
	BYTE	W96
// 005   ----------------------------------------
	BYTE	W96
// 006   ----------------------------------------
	BYTE	W96
// 007   ----------------------------------------
	BYTE	W96
// 008   ----------------------------------------
	BYTE	W96
// 009   ----------------------------------------
	BYTE	W96
// 010   ----------------------------------------
EasterStone_2_010:
	BYTE	W80
	BYTE		N07     Fs1   v127
	BYTE		N07     Fs2 
	BYTE		N07     Fs3 
	BYTE		N07     Fs4 
	BYTE	W04
	BYTE	PEND
EasterStone_2_B1:
	BYTE	W04
	BYTE		N07     Fs1   v127
	BYTE		N07     Fs2 
	BYTE		N07     Fs3 
	BYTE		N07     Fs4 
	BYTE	W08
// 011   ----------------------------------------
EasterStone_2_011:
	BYTE		N84     Fs1   v127
	BYTE		N84     Fs2 
	BYTE		N84     Fs3 
	BYTE		N84     Fs4 
	BYTE	W96
	BYTE	PEND
// 012   ----------------------------------------
	BYTE	W96
// 013   ----------------------------------------
	BYTE	W96
// 014   ----------------------------------------
	BYTE	W96
// 015   ----------------------------------------
	BYTE		N14     An1 
	BYTE		N14     An2 
	BYTE		N14     An3 
	BYTE	W16
	BYTE		        Dn2 
	BYTE		N14     Dn3 
	BYTE		N14     Dn4 
	BYTE	W16
	BYTE		        En2 
	BYTE		N14     En3 
	BYTE		N14     En4 
	BYTE	W16
	BYTE		N07     Bn1 
	BYTE		N07     Bn2 
	BYTE		N07     Bn3 
	BYTE	W08
	BYTE		        En2 
	BYTE		N07     En3 
	BYTE		N07     En4 
	BYTE	W08
	BYTE		        Fs2 
	BYTE		N07     Fs3 
	BYTE		N07     Fs4 
	BYTE	W08
	BYTE		        Cs2 
	BYTE		N07     Cs3 
	BYTE		N07     Cs4 
	BYTE	W08
	BYTE		        Fs2 
	BYTE		N07     Fs3 
	BYTE		N07     Fs4 
	BYTE	W08
	BYTE		        Gs2 
	BYTE		N07     Gs3 
	BYTE		N07     Gs4 
	BYTE	W08
// 016   ----------------------------------------
	BYTE	W96
// 017   ----------------------------------------
	BYTE	W96
// 018   ----------------------------------------
	BYTE	W80
	BYTE		        Fs1 
	BYTE		N07     Fs2 
	BYTE		N07     Fs3 
	BYTE		N07     Fs4 
	BYTE	W08
	BYTE		        Fs1 
	BYTE		N07     Fs2 
	BYTE		N07     Fs3 
	BYTE		N07     Fs4 
	BYTE	W08
// 019   ----------------------------------------
	BYTE	PATT
	 POIN2	EasterStone_2_011
// 020   ----------------------------------------
	BYTE	W96
// 021   ----------------------------------------
	BYTE	W96
// 022   ----------------------------------------
	BYTE	W96
// 023   ----------------------------------------
	BYTE	W96
// 024   ----------------------------------------
EasterStone_2_024:
	BYTE		N36     Gn1   v127
	BYTE		N36     Gn2 
	BYTE		N36     Gn3 
	BYTE		N36     Gn4 
	BYTE	W40
	BYTE		N07     Gn1 
	BYTE		N07     Gn2 
	BYTE		N07     Gn3 
	BYTE		N07     Gn4 
	BYTE	W08
	BYTE		N42     Fs1 
	BYTE		N42     Fs2 
	BYTE		N42     Fs3 
	BYTE		N42     Fs4 
	BYTE	W48
	BYTE	PEND
// 025   ----------------------------------------
	BYTE	PATT
	 POIN2	EasterStone_2_024
// 026   ----------------------------------------
EasterStone_2_026:
	BYTE		N36     As1   v127
	BYTE		N36     As2 
	BYTE		N36     As3 
	BYTE		N36     As4 
	BYTE	W40
	BYTE		N07     As1 
	BYTE		N07     As2 
	BYTE		N07     As3 
	BYTE		N07     As4 
	BYTE	W08
	BYTE		N42     An1 
	BYTE		N42     An2 
	BYTE		N42     An3 
	BYTE		N42     An4 
	BYTE	W48
	BYTE	PEND
// 027   ----------------------------------------
	BYTE	PATT
	 POIN2	EasterStone_2_026
// 028   ----------------------------------------
EasterStone_2_028:
	BYTE		N36     Cs2   v127
	BYTE		N36     Cs3 
	BYTE		N36     Cs4 
	BYTE		N36     Cs5 
	BYTE	W40
	BYTE		N07     Cs2 
	BYTE		N07     Cs3 
	BYTE		N07     Cs4 
	BYTE		N07     Cs5 
	BYTE	W08
	BYTE		N42     Cn2 
	BYTE		N42     Cn3 
	BYTE		N42     Cn4 
	BYTE		N42     Cn5 
	BYTE	W48
	BYTE	PEND
// 029   ----------------------------------------
	BYTE	PATT
	 POIN2	EasterStone_2_028
// 030   ----------------------------------------
	BYTE		N21     Dn2   v127
	BYTE		N21     Dn3 
	BYTE		N21     Dn4 
	BYTE		N21     Dn5 
	BYTE	W24
	BYTE		        Ds2 
	BYTE		N21     Ds3 
	BYTE		N21     Ds4 
	BYTE		N21     Ds5 
	BYTE	W24
	BYTE		        En2 
	BYTE		N21     En3 
	BYTE		N21     En4 
	BYTE		N21     En5 
	BYTE	W24
	BYTE		        Fn2 
	BYTE		N21     Fn3 
	BYTE		N21     Fn4 
	BYTE		N21     Fn5 
	BYTE	W24
// 031   ----------------------------------------
	BYTE		N16     Fs2 
	BYTE		N16     Fs3 
	BYTE		N16     Fs4 
	BYTE		N16     Fs5 
	BYTE	W18
	BYTE		        Gn2 
	BYTE		N16     Gn3 
	BYTE		N16     Gn4 
	BYTE		N16     Gn5 
	BYTE	W18
	BYTE		N10     Gs2 
	BYTE		N10     Gs3 
	BYTE		N10     Gs4 
	BYTE		N10     Gs5 
	BYTE	W12
	BYTE		        An2 
	BYTE		N10     An3 
	BYTE		N10     An4 
	BYTE		N10     An5 
	BYTE	W12
	BYTE		        As2 
	BYTE		N10     As3 
	BYTE		N10     As4 
	BYTE		N10     As5 
	BYTE	W12
	BYTE		        Bn2 
	BYTE		N10     Bn3 
	BYTE		N10     Bn4 
	BYTE		N10     Bn5 
	BYTE	W12
	BYTE		        Cn3 
	BYTE		N10     Cn4 
	BYTE		N10     Cn5 
	BYTE		N10     Cn6 
	BYTE	W12
// 032   ----------------------------------------
	BYTE	W96
// 033   ----------------------------------------
	BYTE	W96
// 034   ----------------------------------------
	BYTE	W96
// 035   ----------------------------------------
	BYTE	W96
// 036   ----------------------------------------
	BYTE	W96
// 037   ----------------------------------------
	BYTE	W96
// 038   ----------------------------------------
	BYTE	W96
// 039   ----------------------------------------
	BYTE	W96
// 040   ----------------------------------------
	BYTE	W96
// 041   ----------------------------------------
	BYTE	W96
// 042   ----------------------------------------
	BYTE	PATT
	 POIN2	EasterStone_2_010
	BYTE	GoTo
	 POIN2	EasterStone_2_B1
EasterStone_2_B2:
	BYTE	W04
	BYTE		N07     Fs1   v127
	BYTE		N07     Fs2 
	BYTE		N07     Fs3 
	BYTE		N07     Fs4 
	BYTE	W08
// 043   ----------------------------------------
	BYTE		N84     Fs1 
	BYTE		N84     Fs2 
	BYTE		N84     Fs3 
	BYTE		N84     Fs4 
	BYTE	W84
	BYTE	W02
	BYTE		BEND    c_v+0
	BYTE	W10
// 044   ----------------------------------------
	BYTE	FINE

//**************** Track 3 (Midi-Chn.3) ****************//

EasterStone_3:
	BYTE	KEYSH   EasterStone_key+0
// 000   ----------------------------------------
	BYTE		VOICE   47
	BYTE		VOL     127*EasterStone_mvl/mxv
	BYTE		PAN     c_v-4
	BYTE		N07     Bn1   v127
	BYTE	W24
	BYTE		N07   
	BYTE	W08
	BYTE		N07   
	BYTE	W08
	BYTE		N07   
	BYTE	W08
	BYTE		N07   
	BYTE	W24
	BYTE		N07   
	BYTE	W08
	BYTE		N07   
	BYTE	W08
	BYTE		N07   
	BYTE	W08
// 001   ----------------------------------------
EasterStone_3_001:
	BYTE		N07     Bn1   v127
	BYTE	W24
	BYTE		N07   
	BYTE	W08
	BYTE		N07   
	BYTE	W08
	BYTE		N07   
	BYTE	W08
	BYTE		N14   
	BYTE	W16
	BYTE		N14   
	BYTE	W16
	BYTE		N14   
	BYTE	W16
	BYTE	PEND
// 002   ----------------------------------------
EasterStone_3_002:
	BYTE		N07     Bn1   v127
	BYTE	W24
	BYTE		N07   
	BYTE	W08
	BYTE		N07   
	BYTE	W08
	BYTE		N07   
	BYTE	W08
	BYTE		N07   
	BYTE	W24
	BYTE		N07   
	BYTE	W08
	BYTE		N07   
	BYTE	W08
	BYTE		N07   
	BYTE	W08
	BYTE	PEND
// 003   ----------------------------------------
	BYTE	PATT
	 POIN2	EasterStone_3_001
// 004   ----------------------------------------
	BYTE	PATT
	 POIN2	EasterStone_3_002
// 005   ----------------------------------------
	BYTE	PATT
	 POIN2	EasterStone_3_001
// 006   ----------------------------------------
	BYTE	PATT
	 POIN2	EasterStone_3_002
// 007   ----------------------------------------
EasterStone_3_007:
	BYTE		N07     Bn1   v127
	BYTE	W24
	BYTE		N07   
	BYTE	W08
	BYTE		N07   
	BYTE	W08
	BYTE		N07   
	BYTE	W56
	BYTE	PEND
// 008   ----------------------------------------
	BYTE	PATT
	 POIN2	EasterStone_3_002
// 009   ----------------------------------------
	BYTE	PATT
	 POIN2	EasterStone_3_001
// 010   ----------------------------------------
EasterStone_3_010:
	BYTE		N07     Bn1   v127
	BYTE	W24
	BYTE		N07   
	BYTE	W08
	BYTE		N07   
	BYTE	W08
	BYTE		N07   
	BYTE	W08
	BYTE		N07   
	BYTE	W32
	BYTE		        Fs1 
	BYTE	W04
	BYTE	PEND
EasterStone_3_B1:
	BYTE	W04
	BYTE		N07     Fs1   v127
	BYTE	W08
// 011   ----------------------------------------
	BYTE		N42   
	BYTE	W96
// 012   ----------------------------------------
	BYTE	PATT
	 POIN2	EasterStone_3_002
// 013   ----------------------------------------
	BYTE	PATT
	 POIN2	EasterStone_3_001
// 014   ----------------------------------------
	BYTE	PATT
	 POIN2	EasterStone_3_002
// 015   ----------------------------------------
	BYTE	W96
// 016   ----------------------------------------
	BYTE	PATT
	 POIN2	EasterStone_3_002
// 017   ----------------------------------------
	BYTE	PATT
	 POIN2	EasterStone_3_001
// 018   ----------------------------------------
	BYTE		N07     Bn1   v127
	BYTE	W24
	BYTE		N07   
	BYTE	W08
	BYTE		N07   
	BYTE	W08
	BYTE		N07   
	BYTE	W08
	BYTE		N07   
	BYTE	W32
	BYTE		        Fs1 
	BYTE	W08
	BYTE		N07   
	BYTE	W08
// 019   ----------------------------------------
	BYTE		N42   
	BYTE	W96
// 020   ----------------------------------------
	BYTE	PATT
	 POIN2	EasterStone_3_002
// 021   ----------------------------------------
	BYTE	PATT
	 POIN2	EasterStone_3_001
// 022   ----------------------------------------
	BYTE	PATT
	 POIN2	EasterStone_3_002
// 023   ----------------------------------------
	BYTE	W96
// 024   ----------------------------------------
	BYTE	W96
// 025   ----------------------------------------
	BYTE	W96
// 026   ----------------------------------------
	BYTE	W96
// 027   ----------------------------------------
	BYTE	W96
// 028   ----------------------------------------
	BYTE	W96
// 029   ----------------------------------------
	BYTE	W96
// 030   ----------------------------------------
	BYTE	W96
// 031   ----------------------------------------
	BYTE	W96
// 032   ----------------------------------------
	BYTE	PATT
	 POIN2	EasterStone_3_002
// 033   ----------------------------------------
	BYTE	PATT
	 POIN2	EasterStone_3_001
// 034   ----------------------------------------
	BYTE	PATT
	 POIN2	EasterStone_3_002
// 035   ----------------------------------------
	BYTE	PATT
	 POIN2	EasterStone_3_001
// 036   ----------------------------------------
	BYTE	PATT
	 POIN2	EasterStone_3_002
// 037   ----------------------------------------
	BYTE	PATT
	 POIN2	EasterStone_3_001
// 038   ----------------------------------------
	BYTE	PATT
	 POIN2	EasterStone_3_002
// 039   ----------------------------------------
	BYTE	PATT
	 POIN2	EasterStone_3_007
// 040   ----------------------------------------
	BYTE	PATT
	 POIN2	EasterStone_3_002
// 041   ----------------------------------------
	BYTE	PATT
	 POIN2	EasterStone_3_001
// 042   ----------------------------------------
	BYTE	PATT
	 POIN2	EasterStone_3_010
	BYTE	GoTo
	 POIN2	EasterStone_3_B1
EasterStone_3_B2:
	BYTE	W04
	BYTE		N07     Fs1   v127
	BYTE	W08
// 043   ----------------------------------------
	BYTE		N42   
	BYTE	W42
	BYTE	W01
	BYTE		BEND    c_v+0
	BYTE	W52
	BYTE	W01
// 044   ----------------------------------------
	BYTE	FINE

//**************** Track 4 (Midi-Chn.4) ****************//

EasterStone_4:
	BYTE	KEYSH   EasterStone_key+0
// 000   ----------------------------------------
	BYTE		VOICE   52
	BYTE		PAN     c_v-1
	BYTE		VOL     117*EasterStone_mvl/mxv
	BYTE	W96
// 001   ----------------------------------------
	BYTE	W96
// 002   ----------------------------------------
	BYTE	W96
// 003   ----------------------------------------
	BYTE	W96
// 004   ----------------------------------------
	BYTE	W96
// 005   ----------------------------------------
	BYTE	W96
// 006   ----------------------------------------
	BYTE	W96
// 007   ----------------------------------------
	BYTE	W96
// 008   ----------------------------------------
EasterStone_4_008:
	BYTE		N72     Fs3   v127
	BYTE		N72     Bn3 
	BYTE	W72
	BYTE		N24     An3 
	BYTE		N24     Dn4 
	BYTE	W24
	BYTE	PEND
// 009   ----------------------------------------
EasterStone_4_009:
	BYTE		N48     Gs3   v127
	BYTE		N48     Cs4 
	BYTE	W48
	BYTE		N16     Gs3 
	BYTE		N16     Cs4 
	BYTE	W16
	BYTE		        Fs3 
	BYTE		N16     Bn3 
	BYTE	W16
	BYTE		        En3 
	BYTE		N16     An3 
	BYTE	W16
	BYTE	PEND
// 010   ----------------------------------------
	BYTE		N24     Fs3 
	BYTE		N24     Bn3 
	BYTE	W24
	BYTE		N48     Cs4 
	BYTE		N48     Fs4 
	BYTE	W60
EasterStone_4_B1:
	BYTE	W12
// 011   ----------------------------------------
	BYTE	W96
// 012   ----------------------------------------
	BYTE	PATT
	 POIN2	EasterStone_4_008
// 013   ----------------------------------------
	BYTE	PATT
	 POIN2	EasterStone_4_009
// 014   ----------------------------------------
EasterStone_4_014:
	BYTE		N72     Dn3   v127
	BYTE		N72     Gn3 
	BYTE	W72
	BYTE		N24     Fs3 
	BYTE		N24     Cn4 
	BYTE	W24
	BYTE	PEND
// 015   ----------------------------------------
	BYTE	W96
// 016   ----------------------------------------
	BYTE	PATT
	 POIN2	EasterStone_4_008
// 017   ----------------------------------------
	BYTE	PATT
	 POIN2	EasterStone_4_009
// 018   ----------------------------------------
	BYTE		N24     Fs3   v127
	BYTE		N24     Bn3 
	BYTE	W24
	BYTE		N48     Cs4 
	BYTE		N48     Fs4 
	BYTE	W72
// 019   ----------------------------------------
	BYTE	W96
// 020   ----------------------------------------
	BYTE	PATT
	 POIN2	EasterStone_4_008
// 021   ----------------------------------------
	BYTE	PATT
	 POIN2	EasterStone_4_009
// 022   ----------------------------------------
	BYTE	PATT
	 POIN2	EasterStone_4_014
// 023   ----------------------------------------
	BYTE		N96     Cn4   v127
	BYTE		N96     Fn4 
	BYTE	W96
// 024   ----------------------------------------
	BYTE	W96
// 025   ----------------------------------------
	BYTE	W96
// 026   ----------------------------------------
	BYTE	W96
// 027   ----------------------------------------
	BYTE	W96
// 028   ----------------------------------------
	BYTE	W96
// 029   ----------------------------------------
	BYTE	W96
// 030   ----------------------------------------
	BYTE	W96
// 031   ----------------------------------------
	BYTE	W96
// 032   ----------------------------------------
	BYTE	W96
// 033   ----------------------------------------
	BYTE	W96
// 034   ----------------------------------------
	BYTE	W96
// 035   ----------------------------------------
	BYTE	W96
// 036   ----------------------------------------
	BYTE	W96
// 037   ----------------------------------------
	BYTE	W96
// 038   ----------------------------------------
	BYTE	W96
// 039   ----------------------------------------
	BYTE	W96
// 040   ----------------------------------------
	BYTE	PATT
	 POIN2	EasterStone_4_008
// 041   ----------------------------------------
	BYTE	PATT
	 POIN2	EasterStone_4_009
// 042   ----------------------------------------
	BYTE		N24     Fs3   v127
	BYTE		N24     Bn3 
	BYTE	W24
	BYTE		N48     Cs4 
	BYTE		N48     Fs4 
	BYTE	W48
	BYTE		BEND    c_v+0
	BYTE	W12
	BYTE	GoTo
	 POIN2	EasterStone_4_B1
EasterStone_4_B2:
	BYTE	W12
// 043   ----------------------------------------
	BYTE	W96
// 044   ----------------------------------------
	BYTE	FINE

//**************** Track 5 (Midi-Chn.5) ****************//

EasterStone_5:
	BYTE	KEYSH   EasterStone_key+0
// 000   ----------------------------------------
	BYTE		VOICE   127
	BYTE		VOL     110*EasterStone_mvl/mxv
	BYTE		PAN     c_v-4
	BYTE		N04     En1   v127
	BYTE	W24
	BYTE		N04   
	BYTE	W08
	BYTE		N04   
	BYTE	W08
	BYTE		N04   
	BYTE	W08
	BYTE		N04   
	BYTE	W24
	BYTE		N04   
	BYTE	W08
	BYTE		N04   
	BYTE	W08
	BYTE		N04   
	BYTE	W08
// 001   ----------------------------------------
EasterStone_5_001:
	BYTE		N04     En1   v127
	BYTE	W24
	BYTE		N04   
	BYTE	W08
	BYTE		N04   
	BYTE	W08
	BYTE		N04   
	BYTE	W08
	BYTE		N04   
	BYTE	W16
	BYTE		N04   
	BYTE	W16
	BYTE		N04   
	BYTE	W16
	BYTE	PEND
// 002   ----------------------------------------
EasterStone_5_002:
	BYTE		N04     En1   v127
	BYTE	W24
	BYTE		N04   
	BYTE	W08
	BYTE		N04   
	BYTE	W08
	BYTE		N04   
	BYTE	W08
	BYTE		N04   
	BYTE	W24
	BYTE		N04   
	BYTE	W08
	BYTE		N04   
	BYTE	W08
	BYTE		N04   
	BYTE	W08
	BYTE	PEND
// 003   ----------------------------------------
	BYTE	PATT
	 POIN2	EasterStone_5_001
// 004   ----------------------------------------
	BYTE	PATT
	 POIN2	EasterStone_5_002
// 005   ----------------------------------------
	BYTE	PATT
	 POIN2	EasterStone_5_001
// 006   ----------------------------------------
	BYTE	PATT
	 POIN2	EasterStone_5_002
// 007   ----------------------------------------
EasterStone_5_007:
	BYTE		N04     En1   v127
	BYTE	W24
	BYTE		N04   
	BYTE	W08
	BYTE		N04   
	BYTE	W08
	BYTE		N04   
	BYTE	W16
	BYTE		        Dn2 
	BYTE	W08
	BYTE		        Bn1 
	BYTE	W08
	BYTE		N04   
	BYTE	W08
	BYTE		        Gn1 
	BYTE	W08
	BYTE		        Fn1 
	BYTE	W08
	BYTE	PEND
// 008   ----------------------------------------
	BYTE	PATT
	 POIN2	EasterStone_5_002
// 009   ----------------------------------------
	BYTE	PATT
	 POIN2	EasterStone_5_001
// 010   ----------------------------------------
EasterStone_5_010:
	BYTE		N04     En1   v127
	BYTE	W24
	BYTE		N04   
	BYTE	W08
	BYTE		N04   
	BYTE	W08
	BYTE		N04   
	BYTE	W08
	BYTE		N04   
	BYTE	W24
	BYTE		N04   
	BYTE	W08
	BYTE		N04   
	BYTE		N04     En2   v100
	BYTE	W04
	BYTE	PEND
EasterStone_5_B1:
	BYTE	W04
	BYTE		N04     En1   v127
	BYTE		N04     En2   v100
	BYTE	W08
// 011   ----------------------------------------
EasterStone_5_011:
	BYTE		N04     En1   v127
	BYTE		N04     En2   v100
	BYTE	W24
	BYTE		        En1   v127
	BYTE	W08
	BYTE		N04   
	BYTE	W08
	BYTE		N04   
	BYTE	W08
	BYTE		        Dn2 
	BYTE	W04
	BYTE		N04   
	BYTE	W04
	BYTE		        Bn1 
	BYTE	W08
	BYTE		N04   
	BYTE	W08
	BYTE		        Gn1 
	BYTE	W08
	BYTE		N04   
	BYTE	W08
	BYTE		        Fn1 
	BYTE	W08
	BYTE	PEND
// 012   ----------------------------------------
	BYTE	PATT
	 POIN2	EasterStone_5_002
// 013   ----------------------------------------
	BYTE	PATT
	 POIN2	EasterStone_5_001
// 014   ----------------------------------------
	BYTE	PATT
	 POIN2	EasterStone_5_002
// 015   ----------------------------------------
	BYTE		N04     En1   v127
	BYTE		N04     En2   v100
	BYTE	W16
	BYTE		        En1   v127
	BYTE		N04     En2   v100
	BYTE	W16
	BYTE		        En1   v127
	BYTE		N04     En2   v100
	BYTE	W16
	BYTE		        Dn2   v127
	BYTE	W08
	BYTE		N04   
	BYTE	W08
	BYTE		        Bn1 
	BYTE	W08
	BYTE		        Gn1 
	BYTE	W08
	BYTE		N04   
	BYTE	W08
	BYTE		        Fn1 
	BYTE	W08
// 016   ----------------------------------------
	BYTE	PATT
	 POIN2	EasterStone_5_002
// 017   ----------------------------------------
	BYTE	PATT
	 POIN2	EasterStone_5_001
// 018   ----------------------------------------
	BYTE		N04     En1   v127
	BYTE	W24
	BYTE		N04   
	BYTE	W08
	BYTE		N04   
	BYTE	W08
	BYTE		N04   
	BYTE	W08
	BYTE		N04   
	BYTE	W24
	BYTE		N04   
	BYTE	W08
	BYTE		N04   
	BYTE		N04     En2   v100
	BYTE	W08
	BYTE		        En1   v127
	BYTE		N04     En2   v100
	BYTE	W08
// 019   ----------------------------------------
	BYTE	PATT
	 POIN2	EasterStone_5_011
// 020   ----------------------------------------
	BYTE	PATT
	 POIN2	EasterStone_5_002
// 021   ----------------------------------------
	BYTE	PATT
	 POIN2	EasterStone_5_001
// 022   ----------------------------------------
	BYTE	PATT
	 POIN2	EasterStone_5_002
// 023   ----------------------------------------
	BYTE		N04     Cn1   v127
	BYTE		N04     Gn2 
	BYTE	W08
	BYTE		        Dn1 
	BYTE	W08
	BYTE		        Cn1 
	BYTE	W08
	BYTE		N04   
	BYTE	W08
	BYTE		        Dn1 
	BYTE	W08
	BYTE		N04   
	BYTE	W08
	BYTE		        Dn2 
	BYTE	W04
	BYTE		N04   
	BYTE	W04
	BYTE		N04   
	BYTE	W04
	BYTE		        Bn1 
	BYTE	W04
	BYTE		N04   
	BYTE	W04
	BYTE		N04   
	BYTE	W04
	BYTE		        Gn1 
	BYTE	W04
	BYTE		N04   
	BYTE	W04
	BYTE		N04   
	BYTE	W04
	BYTE		        Fn1 
	BYTE	W04
	BYTE		N04   
	BYTE	W04
	BYTE		N04   
	BYTE	W04
// 024   ----------------------------------------
EasterStone_5_024:
	BYTE		N04     Dn1   v127
	BYTE	W08
	BYTE		        Cn1 
	BYTE	W04
	BYTE		N04   
	BYTE	W04
	BYTE		N04   
	BYTE	W08
	BYTE		        Dn1 
	BYTE	W08
	BYTE		        Cn1 
	BYTE	W08
	BYTE		        Dn1 
	BYTE	W08
	BYTE		N04   
	BYTE	W08
	BYTE		        Cn1 
	BYTE	W08
	BYTE		        Dn1 
	BYTE	W08
	BYTE		        Cn1 
	BYTE	W08
	BYTE		        Dn1 
	BYTE	W08
	BYTE		        Cn1 
	BYTE	W08
	BYTE	PEND
// 025   ----------------------------------------
	BYTE	PATT
	 POIN2	EasterStone_5_024
// 026   ----------------------------------------
	BYTE	PATT
	 POIN2	EasterStone_5_024
// 027   ----------------------------------------
	BYTE	PATT
	 POIN2	EasterStone_5_024
// 028   ----------------------------------------
	BYTE	PATT
	 POIN2	EasterStone_5_024
// 029   ----------------------------------------
	BYTE	PATT
	 POIN2	EasterStone_5_024
// 030   ----------------------------------------
	BYTE		N04     Dn1   v127
	BYTE	W08
	BYTE		        Cn1 
	BYTE	W04
	BYTE		N04   
	BYTE	W04
	BYTE		N04   
	BYTE	W04
	BYTE		N04   
	BYTE	W04
	BYTE		        Dn1 
	BYTE	W08
	BYTE		        Cn1 
	BYTE	W04
	BYTE		N04   
	BYTE	W04
	BYTE		N04   
	BYTE	W04
	BYTE		N04   
	BYTE	W04
	BYTE		        Dn1 
	BYTE	W08
	BYTE		        Cn1 
	BYTE	W04
	BYTE		N04   
	BYTE	W04
	BYTE		N04   
	BYTE	W04
	BYTE		N04   
	BYTE	W04
	BYTE		        Dn1 
	BYTE	W08
	BYTE		        Cn1 
	BYTE	W04
	BYTE		N04   
	BYTE	W04
	BYTE		N04   
	BYTE	W04
	BYTE		N04   
	BYTE	W04
// 031   ----------------------------------------
	BYTE		N03     Dn1 
	BYTE	W06
	BYTE		        Cn1 
	BYTE	W06
	BYTE		N03   
	BYTE	W06
	BYTE		        Dn1 
	BYTE	W06
	BYTE		        Cn1 
	BYTE	W06
	BYTE		N03   
	BYTE	W06
	BYTE		        Dn1 
	BYTE	W06
	BYTE		        Cn1 
	BYTE	W06
	BYTE		N04     Dn2 
	BYTE	W04
	BYTE		N04   
	BYTE	W04
	BYTE		N04   
	BYTE	W04
	BYTE		        Bn1 
	BYTE	W04
	BYTE		N04   
	BYTE	W04
	BYTE		N04   
	BYTE	W04
	BYTE		        Gn1 
	BYTE	W04
	BYTE		N04   
	BYTE	W04
	BYTE		N04   
	BYTE	W04
	BYTE		        Fn1 
	BYTE	W04
	BYTE		N04   
	BYTE	W04
	BYTE		N04   
	BYTE	W04
// 032   ----------------------------------------
	BYTE	PATT
	 POIN2	EasterStone_5_002
// 033   ----------------------------------------
	BYTE	PATT
	 POIN2	EasterStone_5_001
// 034   ----------------------------------------
	BYTE	PATT
	 POIN2	EasterStone_5_002
// 035   ----------------------------------------
	BYTE	PATT
	 POIN2	EasterStone_5_001
// 036   ----------------------------------------
	BYTE	PATT
	 POIN2	EasterStone_5_002
// 037   ----------------------------------------
	BYTE	PATT
	 POIN2	EasterStone_5_001
// 038   ----------------------------------------
	BYTE	PATT
	 POIN2	EasterStone_5_002
// 039   ----------------------------------------
	BYTE	PATT
	 POIN2	EasterStone_5_007
// 040   ----------------------------------------
	BYTE	PATT
	 POIN2	EasterStone_5_002
// 041   ----------------------------------------
	BYTE	PATT
	 POIN2	EasterStone_5_001
// 042   ----------------------------------------
	BYTE	PATT
	 POIN2	EasterStone_5_010
	BYTE	GoTo
	 POIN2	EasterStone_5_B1
EasterStone_5_B2:
	BYTE	W04
	BYTE		N04     En1   v127
	BYTE		N04     En2   v100
	BYTE	W08
// 043   ----------------------------------------
	BYTE		        En1   v127
	BYTE		N04     En2   v100
	BYTE	W24
	BYTE		        En1   v127
	BYTE	W08
	BYTE		N04   
	BYTE	W08
	BYTE		N04   
	BYTE	W08
	BYTE		        Dn2 
	BYTE	W04
	BYTE		N04   
	BYTE	W04
	BYTE		        Bn1 
	BYTE	W08
	BYTE		N04   
	BYTE	W08
	BYTE		        Gn1 
	BYTE	W08
	BYTE		N04   
	BYTE	W08
	BYTE		        Fn1 
	BYTE	W04
	BYTE		BEND    c_v+0
	BYTE	W04
// 044   ----------------------------------------
	BYTE	FINE

//**************** Track 6 (Midi-Chn.6) ****************//

EasterStone_6:
	BYTE	KEYSH   EasterStone_key+0
// 000   ----------------------------------------
	BYTE		VOICE   56
	BYTE		VOL     127*EasterStone_mvl/mxv
	BYTE		PAN     c_v+6
	BYTE		TIE     Fs3   v127
	BYTE		TIE     Bn3 
	BYTE	W96
// 001   ----------------------------------------
	BYTE	W76
	BYTE		EOT     Fs3 
	BYTE		        Bn3 
	BYTE	W20
// 002   ----------------------------------------
EasterStone_6_002:
	BYTE		TIE     Gn3   v127
	BYTE		TIE     Cn4 
	BYTE	W96
	BYTE	PEND
// 003   ----------------------------------------
	BYTE	W76
	BYTE		EOT     Gn3 
	BYTE		        Cn4 
	BYTE	W20
// 004   ----------------------------------------
EasterStone_6_004:
	BYTE		TIE     Fs3   v127
	BYTE		TIE     Bn3 
	BYTE	W96
	BYTE	PEND
// 005   ----------------------------------------
	BYTE	W76
	BYTE		EOT     Fs3 
	BYTE		        Bn3 
	BYTE	W20
// 006   ----------------------------------------
	BYTE		N84     Gn3 
	BYTE		N84     Cn4 
	BYTE	W96
// 007   ----------------------------------------
	BYTE		        Dn4 
	BYTE		N84     Gn4 
	BYTE	W96
// 008   ----------------------------------------
EasterStone_6_008:
	BYTE		N64     Bn3   v127
	BYTE	W72
	BYTE		N21     Dn4 
	BYTE	W24
	BYTE	PEND
// 009   ----------------------------------------
EasterStone_6_009:
	BYTE		N42     Cs4   v127
	BYTE	W48
	BYTE		N14   
	BYTE	W16
	BYTE		        Bn3 
	BYTE	W16
	BYTE		        An3 
	BYTE	W16
	BYTE	PEND
// 010   ----------------------------------------
EasterStone_6_010:
	BYTE		N21     Bn3   v127
	BYTE	W24
	BYTE		N48     Fs4 
	BYTE	W56
	BYTE		N07     Fs3 
	BYTE	W04
	BYTE	PEND
EasterStone_6_B1:
	BYTE	W04
	BYTE		N07     Fs3   v127
	BYTE	W08
// 011   ----------------------------------------
	BYTE		N84   
	BYTE	W96
// 012   ----------------------------------------
	BYTE	PATT
	 POIN2	EasterStone_6_008
// 013   ----------------------------------------
	BYTE	PATT
	 POIN2	EasterStone_6_009
// 014   ----------------------------------------
EasterStone_6_014:
	BYTE		N64     Gn3   v127
	BYTE	W72
	BYTE		N21     Cn4 
	BYTE	W24
	BYTE	PEND
// 015   ----------------------------------------
	BYTE		N14     An3 
	BYTE	W16
	BYTE		        Dn4 
	BYTE	W16
	BYTE		        En4 
	BYTE	W16
	BYTE		N07     Bn3 
	BYTE	W08
	BYTE		        En4 
	BYTE	W08
	BYTE		        Fs4 
	BYTE	W08
	BYTE		        Cs4 
	BYTE	W08
	BYTE		        Fs4 
	BYTE	W08
	BYTE		        Gs4 
	BYTE	W08
// 016   ----------------------------------------
	BYTE	PATT
	 POIN2	EasterStone_6_008
// 017   ----------------------------------------
	BYTE	PATT
	 POIN2	EasterStone_6_009
// 018   ----------------------------------------
	BYTE		N21     Bn3   v127
	BYTE	W24
	BYTE		N48     Fs4 
	BYTE	W56
	BYTE		N07     Fs3 
	BYTE	W08
	BYTE		N07   
	BYTE	W08
// 019   ----------------------------------------
	BYTE		N84   
	BYTE	W96
// 020   ----------------------------------------
	BYTE	PATT
	 POIN2	EasterStone_6_008
// 021   ----------------------------------------
	BYTE	PATT
	 POIN2	EasterStone_6_009
// 022   ----------------------------------------
	BYTE	PATT
	 POIN2	EasterStone_6_014
// 023   ----------------------------------------
	BYTE		N84     Fn4   v127
	BYTE	W96
// 024   ----------------------------------------
EasterStone_6_024:
	BYTE		N14     Dn4   v100
	BYTE		N14     Gn4 
	BYTE	W16
	BYTE		N07     Dn4 
	BYTE		N07     Gn4 
	BYTE	W08
	BYTE		N14     Dn4 
	BYTE		N14     Gn4 
	BYTE	W16
	BYTE		N07     Dn4 
	BYTE		N07     Gn4 
	BYTE	W08
	BYTE		N14     Cs4 
	BYTE		N14     Fs4 
	BYTE	W16
	BYTE		        Cs4 
	BYTE		N14     Fs4 
	BYTE	W16
	BYTE		        Cs4 
	BYTE		N14     Fs4 
	BYTE	W16
	BYTE	PEND
// 025   ----------------------------------------
	BYTE	PATT
	 POIN2	EasterStone_6_024
// 026   ----------------------------------------
EasterStone_6_026:
	BYTE		N14     Fn4   v100
	BYTE		N14     As4 
	BYTE	W16
	BYTE		N07     Fn4 
	BYTE		N07     As4 
	BYTE	W08
	BYTE		N14     Fn4 
	BYTE		N14     As4 
	BYTE	W16
	BYTE		N07     Fn4 
	BYTE		N07     As4 
	BYTE	W08
	BYTE		N14     En4 
	BYTE		N14     An4 
	BYTE	W16
	BYTE		        En4 
	BYTE		N14     An4 
	BYTE	W16
	BYTE		        En4 
	BYTE		N14     An4 
	BYTE	W16
	BYTE	PEND
// 027   ----------------------------------------
	BYTE	PATT
	 POIN2	EasterStone_6_026
// 028   ----------------------------------------
EasterStone_6_028:
	BYTE		N14     Gs4   v100
	BYTE		N14     Cs5 
	BYTE	W16
	BYTE		N07     Gs4 
	BYTE		N07     Cs5 
	BYTE	W08
	BYTE		N14     Gs4 
	BYTE		N14     Cs5 
	BYTE	W16
	BYTE		N07     Gs4 
	BYTE		N07     Cs5 
	BYTE	W08
	BYTE		N14     Gn4 
	BYTE		N14     Cn5 
	BYTE	W16
	BYTE		        Gn4 
	BYTE		N14     Cn5 
	BYTE	W16
	BYTE		        Gn4 
	BYTE		N14     Cn5 
	BYTE	W16
	BYTE	PEND
// 029   ----------------------------------------
	BYTE	PATT
	 POIN2	EasterStone_6_028
// 030   ----------------------------------------
	BYTE		N21     Bn3   v100
	BYTE		N21     En4 
	BYTE	W24
	BYTE		        Cn4 
	BYTE		N21     Fn4 
	BYTE	W24
	BYTE		        Cs4 
	BYTE		N21     Fs4 
	BYTE	W24
	BYTE		        Dn4 
	BYTE		N21     Gn4 
	BYTE	W24
// 031   ----------------------------------------
	BYTE		N16     Ds4 
	BYTE		N16     Gs4 
	BYTE	W18
	BYTE		        En4 
	BYTE		N16     An4 
	BYTE	W18
	BYTE		N10     Fn4 
	BYTE		N10     As4 
	BYTE	W12
	BYTE		        Fs4 
	BYTE		N10     Bn4 
	BYTE	W12
	BYTE		        Gn4 
	BYTE		N10     Cn5 
	BYTE	W12
	BYTE		        Gs4 
	BYTE		N10     Cs5 
	BYTE	W12
	BYTE		        An4 
	BYTE		N10     Dn5 
	BYTE	W12
// 032   ----------------------------------------
	BYTE	PATT
	 POIN2	EasterStone_6_004
// 033   ----------------------------------------
	BYTE	W76
	BYTE		EOT     Fs3 
	BYTE		        Bn3 
	BYTE	W20
// 034   ----------------------------------------
	BYTE	PATT
	 POIN2	EasterStone_6_002
// 035   ----------------------------------------
	BYTE	W76
	BYTE		EOT     Gn3 
	BYTE		        Cn4 
	BYTE	W20
// 036   ----------------------------------------
	BYTE	PATT
	 POIN2	EasterStone_6_004
// 037   ----------------------------------------
	BYTE	W76
	BYTE		EOT     Fs3 
	BYTE		        Bn3 
	BYTE	W20
// 038   ----------------------------------------
	BYTE		N84     Gn3   v127
	BYTE		N84     Cn4 
	BYTE	W96
// 039   ----------------------------------------
	BYTE		        Dn4 
	BYTE		N84     Gn4 
	BYTE	W96
// 040   ----------------------------------------
	BYTE	PATT
	 POIN2	EasterStone_6_008
// 041   ----------------------------------------
	BYTE	PATT
	 POIN2	EasterStone_6_009
// 042   ----------------------------------------
	BYTE	PATT
	 POIN2	EasterStone_6_010
	BYTE	GoTo
	 POIN2	EasterStone_6_B1
EasterStone_6_B2:
	BYTE	W04
	BYTE		N07     Fs3   v127
	BYTE	W08
// 043   ----------------------------------------
	BYTE		N84   
	BYTE	W84
	BYTE	W02
	BYTE		BEND    c_v+0
	BYTE	W10
// 044   ----------------------------------------
	BYTE	FINE

//**************** Track 7 (Midi-Chn.7) ****************//

EasterStone_7:
	BYTE	KEYSH   EasterStone_key+0
// 000   ----------------------------------------
	BYTE		VOICE   48
	BYTE		PAN     c_v-1
	BYTE		VOL     90*EasterStone_mvl/mxv
	BYTE		TIE     Fs3   v127
	BYTE		TIE     Bn3 
	BYTE	W96
// 001   ----------------------------------------
	BYTE	W96
	BYTE		EOT     Fs3 
	BYTE		        Bn3 
// 002   ----------------------------------------
EasterStone_7_002:
	BYTE		TIE     Gn3   v127
	BYTE		TIE     Cn4 
	BYTE	W96
	BYTE	PEND
// 003   ----------------------------------------
	BYTE	W96
	BYTE		EOT     Gn3 
	BYTE		        Cn4 
// 004   ----------------------------------------
EasterStone_7_004:
	BYTE		TIE     Fs3   v127
	BYTE		TIE     Bn3 
	BYTE	W96
	BYTE	PEND
// 005   ----------------------------------------
	BYTE	W96
	BYTE		EOT     Fs3 
	BYTE		        Bn3 
// 006   ----------------------------------------
	BYTE		N96     Gn3 
	BYTE		N96     Cn4 
	BYTE	W96
// 007   ----------------------------------------
	BYTE		        Dn4 
	BYTE		N96     Gn4 
	BYTE	W96
// 008   ----------------------------------------
EasterStone_7_008:
	BYTE		N72     Bn3   v127
	BYTE	W72
	BYTE		N24     Dn4 
	BYTE	W24
	BYTE	PEND
// 009   ----------------------------------------
EasterStone_7_009:
	BYTE		N48     Cs4   v127
	BYTE	W48
	BYTE		N16   
	BYTE	W16
	BYTE		        Bn3 
	BYTE	W16
	BYTE		        An3 
	BYTE	W16
	BYTE	PEND
// 010   ----------------------------------------
EasterStone_7_010:
	BYTE		N24     Bn3   v127
	BYTE	W24
	BYTE		N56     Fs4 
	BYTE	W56
	BYTE		N08     Fs3 
	BYTE	W04
	BYTE	PEND
EasterStone_7_B1:
	BYTE	W04
	BYTE		N08     Fs3   v127
	BYTE	W08
// 011   ----------------------------------------
	BYTE		N96   
	BYTE	W96
// 012   ----------------------------------------
	BYTE	PATT
	 POIN2	EasterStone_7_008
// 013   ----------------------------------------
	BYTE	PATT
	 POIN2	EasterStone_7_009
// 014   ----------------------------------------
EasterStone_7_014:
	BYTE		N72     Gn3   v127
	BYTE	W72
	BYTE		N24     Cn4 
	BYTE	W24
	BYTE	PEND
// 015   ----------------------------------------
	BYTE		N16     An3 
	BYTE	W16
	BYTE		        Dn4 
	BYTE	W16
	BYTE		        En4 
	BYTE	W16
	BYTE		N08     Bn3 
	BYTE	W08
	BYTE		        En4 
	BYTE	W08
	BYTE		        Fs4 
	BYTE	W08
	BYTE		        Cs4 
	BYTE	W08
	BYTE		        Fs4 
	BYTE	W08
	BYTE		        Gs4 
	BYTE	W08
// 016   ----------------------------------------
	BYTE	PATT
	 POIN2	EasterStone_7_008
// 017   ----------------------------------------
	BYTE	PATT
	 POIN2	EasterStone_7_009
// 018   ----------------------------------------
	BYTE		N24     Bn3   v127
	BYTE	W24
	BYTE		N56     Fs4 
	BYTE	W56
	BYTE		N08     Fs3 
	BYTE	W08
	BYTE		N08   
	BYTE	W08
// 019   ----------------------------------------
	BYTE		N96   
	BYTE	W96
// 020   ----------------------------------------
	BYTE	PATT
	 POIN2	EasterStone_7_008
// 021   ----------------------------------------
	BYTE	PATT
	 POIN2	EasterStone_7_009
// 022   ----------------------------------------
	BYTE	PATT
	 POIN2	EasterStone_7_014
// 023   ----------------------------------------
	BYTE		N96     Fn4   v127
	BYTE	W96
// 024   ----------------------------------------
	BYTE	W96
// 025   ----------------------------------------
	BYTE	W96
// 026   ----------------------------------------
	BYTE	W96
// 027   ----------------------------------------
	BYTE	W96
// 028   ----------------------------------------
	BYTE	W96
// 029   ----------------------------------------
	BYTE	W96
// 030   ----------------------------------------
	BYTE	W96
// 031   ----------------------------------------
	BYTE	W96
// 032   ----------------------------------------
	BYTE	PATT
	 POIN2	EasterStone_7_004
// 033   ----------------------------------------
	BYTE	W96
	BYTE		EOT     Fs3 
	BYTE		        Bn3 
// 034   ----------------------------------------
	BYTE	PATT
	 POIN2	EasterStone_7_002
// 035   ----------------------------------------
	BYTE	W96
	BYTE		EOT     Gn3 
	BYTE		        Cn4 
// 036   ----------------------------------------
	BYTE	PATT
	 POIN2	EasterStone_7_004
// 037   ----------------------------------------
	BYTE	W96
	BYTE		EOT     Fs3 
	BYTE		        Bn3 
// 038   ----------------------------------------
	BYTE		N96     Gn3   v127
	BYTE		N96     Cn4 
	BYTE	W96
// 039   ----------------------------------------
	BYTE		        Dn4 
	BYTE		N96     Gn4 
	BYTE	W96
// 040   ----------------------------------------
	BYTE	PATT
	 POIN2	EasterStone_7_008
// 041   ----------------------------------------
	BYTE	PATT
	 POIN2	EasterStone_7_009
// 042   ----------------------------------------
	BYTE	PATT
	 POIN2	EasterStone_7_010
	BYTE	GoTo
	 POIN2	EasterStone_7_B1
EasterStone_7_B2:
	BYTE	W04
	BYTE		N08     Fs3   v127
	BYTE	W08
// 043   ----------------------------------------
	BYTE		N96   
	BYTE	W96
// 044   ----------------------------------------
	BYTE		BEND    c_v+0
	BYTE	FINE

//**************** Track 8 (Midi-Chn.8) ****************//

EasterStone_8:
	BYTE	KEYSH   EasterStone_key+0
// 000   ----------------------------------------
	BYTE		VOICE   60
	BYTE		VOL     127*EasterStone_mvl/mxv
	BYTE		PAN     c_v-34
	BYTE		TIE     Bn2   v127
	BYTE	W96
// 001   ----------------------------------------
	BYTE	W76
	BYTE		EOT   
	BYTE	W20
// 002   ----------------------------------------
	BYTE		TIE     Cn3 
	BYTE	W96
// 003   ----------------------------------------
	BYTE	W76
	BYTE		EOT   
	BYTE	W20
// 004   ----------------------------------------
	BYTE		TIE     Bn2 
	BYTE	W96
// 005   ----------------------------------------
	BYTE	W76
	BYTE		EOT   
	BYTE	W20
// 006   ----------------------------------------
	BYTE		N84     Cs3 
	BYTE	W96
// 007   ----------------------------------------
	BYTE		        Gn3 
	BYTE	W96
// 008   ----------------------------------------
EasterStone_8_008:
	BYTE		N64     Fs3   v127
	BYTE	W72
	BYTE		N21     An3 
	BYTE	W24
	BYTE	PEND
// 009   ----------------------------------------
EasterStone_8_009:
	BYTE		N42     Gs3   v127
	BYTE	W48
	BYTE		N14   
	BYTE	W16
	BYTE		        Fs3 
	BYTE	W16
	BYTE		        En3 
	BYTE	W16
	BYTE	PEND
// 010   ----------------------------------------
EasterStone_8_010:
	BYTE		N21     Fs3   v127
	BYTE	W24
	BYTE		N48     Cs4 
	BYTE	W56
	BYTE		N07     Cs3 
	BYTE	W04
	BYTE	PEND
EasterStone_8_B1:
	BYTE	W04
	BYTE		N07     Cs3   v127
	BYTE	W08
// 011   ----------------------------------------
	BYTE		N84   
	BYTE	W96
// 012   ----------------------------------------
	BYTE	PATT
	 POIN2	EasterStone_8_008
// 013   ----------------------------------------
	BYTE	PATT
	 POIN2	EasterStone_8_009
// 014   ----------------------------------------
EasterStone_8_014:
	BYTE		N64     Dn3   v127
	BYTE	W72
	BYTE		N21     Fs3 
	BYTE	W24
	BYTE	PEND
// 015   ----------------------------------------
	BYTE		N14     En3 
	BYTE	W16
	BYTE		        An3 
	BYTE	W16
	BYTE		        Bn3 
	BYTE	W16
	BYTE		N07     Fs3 
	BYTE	W08
	BYTE		        Bn3 
	BYTE	W08
	BYTE		        Cs4 
	BYTE	W08
	BYTE		        Gs3 
	BYTE	W08
	BYTE		        Cs4 
	BYTE	W08
	BYTE		        Ds4 
	BYTE	W08
// 016   ----------------------------------------
	BYTE	PATT
	 POIN2	EasterStone_8_008
// 017   ----------------------------------------
	BYTE	PATT
	 POIN2	EasterStone_8_009
// 018   ----------------------------------------
	BYTE		N21     Fs3   v127
	BYTE	W24
	BYTE		N48     Cs4 
	BYTE	W56
	BYTE		N07     Cs3 
	BYTE	W08
	BYTE		N07   
	BYTE	W08
// 019   ----------------------------------------
	BYTE		N84   
	BYTE	W96
// 020   ----------------------------------------
	BYTE	PATT
	 POIN2	EasterStone_8_008
// 021   ----------------------------------------
	BYTE	PATT
	 POIN2	EasterStone_8_009
// 022   ----------------------------------------
	BYTE	PATT
	 POIN2	EasterStone_8_014
// 023   ----------------------------------------
	BYTE		N84     Cn4   v127
	BYTE	W96
// 024   ----------------------------------------
EasterStone_8_024:
	BYTE		N36     Gn2   v127
	BYTE	W36
	BYTE	W03
	BYTE		N01   
	BYTE	W09
	BYTE		N42     Fs2 
	BYTE	W48
	BYTE	PEND
// 025   ----------------------------------------
	BYTE	PATT
	 POIN2	EasterStone_8_024
// 026   ----------------------------------------
EasterStone_8_026:
	BYTE		N36     As2   v127
	BYTE	W36
	BYTE	W03
	BYTE		N01   
	BYTE	W09
	BYTE		N42     An2 
	BYTE	W48
	BYTE	PEND
// 027   ----------------------------------------
	BYTE	PATT
	 POIN2	EasterStone_8_026
// 028   ----------------------------------------
EasterStone_8_028:
	BYTE		N36     Cs3   v127
	BYTE	W36
	BYTE	W03
	BYTE		N01   
	BYTE	W09
	BYTE		N42     Cn3 
	BYTE	W48
	BYTE	PEND
// 029   ----------------------------------------
	BYTE	PATT
	 POIN2	EasterStone_8_028
// 030   ----------------------------------------
	BYTE		N07     En3   v127
	BYTE	W08
	BYTE		        An3 
	BYTE	W08
	BYTE		        Dn4 
	BYTE	W08
	BYTE		        Fn3 
	BYTE	W08
	BYTE		        As3 
	BYTE	W08
	BYTE		        Ds4 
	BYTE	W08
	BYTE		        Fs3 
	BYTE	W08
	BYTE		        Bn3 
	BYTE	W08
	BYTE		        En4 
	BYTE	W08
	BYTE		        Gn3 
	BYTE	W08
	BYTE		        Cn4 
	BYTE	W08
	BYTE		        Fn4 
	BYTE	W08
// 031   ----------------------------------------
	BYTE		N05     Gs3 
	BYTE	W06
	BYTE		        Cs4 
	BYTE	W06
	BYTE		        Fs4 
	BYTE	W06
	BYTE		        An3 
	BYTE	W06
	BYTE		        Dn4 
	BYTE	W06
	BYTE		        Gn4 
	BYTE	W06
	BYTE		        As3 
	BYTE	W06
	BYTE		        Ds4 
	BYTE	W06
	BYTE		N03     Bn3 
	BYTE	W04
	BYTE		        En4 
	BYTE	W04
	BYTE		        An4 
	BYTE	W04
	BYTE		        Cn4 
	BYTE	W04
	BYTE		        Fn4 
	BYTE	W04
	BYTE		        As4 
	BYTE	W04
	BYTE		        Cs4 
	BYTE	W04
	BYTE		        Fs4 
	BYTE	W04
	BYTE		        Bn4 
	BYTE	W04
	BYTE		        Dn4 
	BYTE	W04
	BYTE		        Gn4 
	BYTE	W04
	BYTE		        Cn5 
	BYTE	W04
// 032   ----------------------------------------
	BYTE		TIE     Bn2 
	BYTE	W96
// 033   ----------------------------------------
	BYTE	W76
	BYTE		EOT   
	BYTE	W20
// 034   ----------------------------------------
	BYTE		TIE     Cn3 
	BYTE	W96
// 035   ----------------------------------------
	BYTE	W76
	BYTE		EOT   
	BYTE	W20
// 036   ----------------------------------------
	BYTE		TIE     Bn2 
	BYTE	W96
// 037   ----------------------------------------
	BYTE	W76
	BYTE		EOT   
	BYTE	W20
// 038   ----------------------------------------
	BYTE		N84     Cs3 
	BYTE	W96
// 039   ----------------------------------------
	BYTE		        Gn3 
	BYTE	W96
// 040   ----------------------------------------
	BYTE	PATT
	 POIN2	EasterStone_8_008
// 041   ----------------------------------------
	BYTE	PATT
	 POIN2	EasterStone_8_009
// 042   ----------------------------------------
	BYTE	PATT
	 POIN2	EasterStone_8_010
	BYTE	GoTo
	 POIN2	EasterStone_8_B1
EasterStone_8_B2:
	BYTE	W04
	BYTE		N07     Cs3   v127
	BYTE	W08
// 043   ----------------------------------------
	BYTE		N84   
	BYTE	W84
	BYTE	W02
	BYTE		BEND    c_v+0
	BYTE	W10
// 044   ----------------------------------------
	BYTE	FINE

//**************** Track 9 (Midi-Chn.9) ****************//

EasterStone_9:
	BYTE	KEYSH   EasterStone_key+0
// 000   ----------------------------------------
	BYTE		VOICE   58
	BYTE		VOL     127*EasterStone_mvl/mxv
	BYTE		PAN     c_v+16
	BYTE		N07     En1   v127
	BYTE	W08
	BYTE		        Bn1 
	BYTE	W08
	BYTE		        En1 
	BYTE	W08
	BYTE		        Bn1 
	BYTE	W08
	BYTE		        An1 
	BYTE	W08
	BYTE		        Bn1 
	BYTE	W08
	BYTE		        En1 
	BYTE	W08
	BYTE		        Bn1 
	BYTE	W08
	BYTE		        En1 
	BYTE	W08
	BYTE		        Bn1 
	BYTE	W08
	BYTE		        An1 
	BYTE	W08
	BYTE		        Bn1 
	BYTE	W08
// 001   ----------------------------------------
EasterStone_9_001:
	BYTE		N07     En1   v127
	BYTE	W08
	BYTE		        Bn1 
	BYTE	W08
	BYTE		        En1 
	BYTE	W08
	BYTE		        Bn1 
	BYTE	W08
	BYTE		        An1 
	BYTE	W08
	BYTE		        Bn1 
	BYTE	W08
	BYTE		        En1 
	BYTE	W08
	BYTE		        Bn1 
	BYTE	W08
	BYTE		        En1 
	BYTE	W08
	BYTE		        An1 
	BYTE	W08
	BYTE		        Bn1 
	BYTE	W08
	BYTE		        En2 
	BYTE	W08
	BYTE	PEND
// 002   ----------------------------------------
EasterStone_9_002:
	BYTE		N07     En1   v127
	BYTE	W08
	BYTE		        Bn1 
	BYTE	W08
	BYTE		        En1 
	BYTE	W08
	BYTE		        Bn1 
	BYTE	W08
	BYTE		        An1 
	BYTE	W08
	BYTE		        Bn1 
	BYTE	W08
	BYTE		        En1 
	BYTE	W08
	BYTE		        Bn1 
	BYTE	W08
	BYTE		        En1 
	BYTE	W08
	BYTE		        Bn1 
	BYTE	W08
	BYTE		        An1 
	BYTE	W08
	BYTE		        Bn1 
	BYTE	W08
	BYTE	PEND
// 003   ----------------------------------------
	BYTE	PATT
	 POIN2	EasterStone_9_001
// 004   ----------------------------------------
	BYTE	PATT
	 POIN2	EasterStone_9_002
// 005   ----------------------------------------
	BYTE	PATT
	 POIN2	EasterStone_9_001
// 006   ----------------------------------------
	BYTE	PATT
	 POIN2	EasterStone_9_002
// 007   ----------------------------------------
	BYTE	PATT
	 POIN2	EasterStone_9_001
// 008   ----------------------------------------
	BYTE	PATT
	 POIN2	EasterStone_9_002
// 009   ----------------------------------------
	BYTE	PATT
	 POIN2	EasterStone_9_001
// 010   ----------------------------------------
EasterStone_9_010:
	BYTE		N07     En1   v127
	BYTE	W08
	BYTE		        Bn1 
	BYTE	W08
	BYTE		        En1 
	BYTE	W08
	BYTE		        Bn1 
	BYTE	W08
	BYTE		        An1 
	BYTE	W08
	BYTE		        Bn1 
	BYTE	W08
	BYTE		        En1 
	BYTE	W08
	BYTE		        Bn1 
	BYTE	W08
	BYTE		        En1 
	BYTE	W08
	BYTE		        Bn1 
	BYTE	W08
	BYTE		        An1 
	BYTE	W04
	BYTE	PEND
EasterStone_9_B1:
	BYTE	W04
	BYTE		N07     Bn1   v127
	BYTE	W08
// 011   ----------------------------------------
	BYTE	PATT
	 POIN2	EasterStone_9_001
// 012   ----------------------------------------
	BYTE	PATT
	 POIN2	EasterStone_9_002
// 013   ----------------------------------------
	BYTE	PATT
	 POIN2	EasterStone_9_001
// 014   ----------------------------------------
EasterStone_9_014:
	BYTE		N07     An1   v127
	BYTE	W08
	BYTE		        Dn2 
	BYTE	W08
	BYTE		        An1 
	BYTE	W08
	BYTE		        Dn2 
	BYTE	W08
	BYTE		        Gn1 
	BYTE	W08
	BYTE		        An1 
	BYTE	W08
	BYTE		N07   
	BYTE	W08
	BYTE		        Dn2 
	BYTE	W08
	BYTE		        An1 
	BYTE	W08
	BYTE		N07   
	BYTE	W08
	BYTE		        Dn2 
	BYTE	W08
	BYTE		        Gn2 
	BYTE	W08
	BYTE	PEND
// 015   ----------------------------------------
	BYTE		N14     An1 
	BYTE	W16
	BYTE		        Dn2 
	BYTE	W16
	BYTE		        En2 
	BYTE	W16
	BYTE		N07     Bn1 
	BYTE	W08
	BYTE		        En2 
	BYTE	W08
	BYTE		        Fs2 
	BYTE	W08
	BYTE		        Cs2 
	BYTE	W08
	BYTE		        Fs2 
	BYTE	W08
	BYTE		        Gs2 
	BYTE	W08
// 016   ----------------------------------------
	BYTE	PATT
	 POIN2	EasterStone_9_002
// 017   ----------------------------------------
	BYTE	PATT
	 POIN2	EasterStone_9_001
// 018   ----------------------------------------
	BYTE	PATT
	 POIN2	EasterStone_9_002
// 019   ----------------------------------------
	BYTE	PATT
	 POIN2	EasterStone_9_001
// 020   ----------------------------------------
EasterStone_9_020:
	BYTE		N07     En1   v127
	BYTE	W08
	BYTE		        Bn1 
	BYTE	W08
	BYTE		        En1 
	BYTE	W08
	BYTE		        Bn1 
	BYTE	W08
	BYTE		        Gs1 
	BYTE	W08
	BYTE		        Bn1 
	BYTE	W08
	BYTE		        En1 
	BYTE	W08
	BYTE		        Bn1 
	BYTE	W08
	BYTE		        En1 
	BYTE	W08
	BYTE		        Bn1 
	BYTE	W08
	BYTE		        Gs1 
	BYTE	W08
	BYTE		        Bn1 
	BYTE	W08
	BYTE	PEND
// 021   ----------------------------------------
	BYTE	PATT
	 POIN2	EasterStone_9_020
// 022   ----------------------------------------
	BYTE	PATT
	 POIN2	EasterStone_9_014
// 023   ----------------------------------------
	BYTE		N84     Gn1   v127
	BYTE	W96
// 024   ----------------------------------------
EasterStone_9_024:
	BYTE		N07     An1   v127
	BYTE	W08
	BYTE		        Dn2 
	BYTE	W08
	BYTE		        Gn2 
	BYTE	W08
	BYTE		        An1 
	BYTE	W08
	BYTE		        Dn2 
	BYTE	W08
	BYTE		        Gn2 
	BYTE	W08
	BYTE		        Gs1 
	BYTE	W08
	BYTE		        Cs2 
	BYTE	W08
	BYTE		        Fs2 
	BYTE	W08
	BYTE		        Gs1 
	BYTE	W08
	BYTE		        Cs2 
	BYTE	W08
	BYTE		        Fs2 
	BYTE	W08
	BYTE	PEND
// 025   ----------------------------------------
	BYTE	PATT
	 POIN2	EasterStone_9_024
// 026   ----------------------------------------
EasterStone_9_026:
	BYTE		N07     Cn2   v127
	BYTE	W08
	BYTE		        Fn2 
	BYTE	W08
	BYTE		        As2 
	BYTE	W08
	BYTE		        Cn2 
	BYTE	W08
	BYTE		        Fn2 
	BYTE	W08
	BYTE		        As2 
	BYTE	W08
	BYTE		        Bn1 
	BYTE	W08
	BYTE		        En2 
	BYTE	W08
	BYTE		        An2 
	BYTE	W08
	BYTE		        Bn1 
	BYTE	W08
	BYTE		        En2 
	BYTE	W08
	BYTE		        An2 
	BYTE	W08
	BYTE	PEND
// 027   ----------------------------------------
	BYTE	PATT
	 POIN2	EasterStone_9_026
// 028   ----------------------------------------
EasterStone_9_028:
	BYTE		N07     Ds2   v127
	BYTE	W08
	BYTE		        Gs2 
	BYTE	W08
	BYTE		        Cs3 
	BYTE	W08
	BYTE		        Ds2 
	BYTE	W08
	BYTE		        Gs2 
	BYTE	W08
	BYTE		        Cs3 
	BYTE	W08
	BYTE		        Dn2 
	BYTE	W08
	BYTE		        Gn2 
	BYTE	W08
	BYTE		        Cn3 
	BYTE	W08
	BYTE		        Dn2 
	BYTE	W08
	BYTE		        Gn2 
	BYTE	W08
	BYTE		        Cn3 
	BYTE	W08
	BYTE	PEND
// 029   ----------------------------------------
	BYTE	PATT
	 POIN2	EasterStone_9_028
// 030   ----------------------------------------
	BYTE		N21     Fs1   v127
	BYTE	W24
	BYTE		        Gn1 
	BYTE	W24
	BYTE		        Gs1 
	BYTE	W24
	BYTE		        An1 
	BYTE	W24
// 031   ----------------------------------------
	BYTE		N16     As1 
	BYTE	W18
	BYTE		        Bn1 
	BYTE	W18
	BYTE		N10     Cn2 
	BYTE	W12
	BYTE		        Cs2 
	BYTE	W12
	BYTE		        Dn2 
	BYTE	W12
	BYTE		        Ds2 
	BYTE	W12
	BYTE		        En2 
	BYTE	W12
// 032   ----------------------------------------
	BYTE	PATT
	 POIN2	EasterStone_9_002
// 033   ----------------------------------------
	BYTE	PATT
	 POIN2	EasterStone_9_001
// 034   ----------------------------------------
	BYTE	PATT
	 POIN2	EasterStone_9_002
// 035   ----------------------------------------
	BYTE	PATT
	 POIN2	EasterStone_9_001
// 036   ----------------------------------------
	BYTE	PATT
	 POIN2	EasterStone_9_002
// 037   ----------------------------------------
	BYTE	PATT
	 POIN2	EasterStone_9_001
// 038   ----------------------------------------
	BYTE	PATT
	 POIN2	EasterStone_9_002
// 039   ----------------------------------------
	BYTE	PATT
	 POIN2	EasterStone_9_001
// 040   ----------------------------------------
	BYTE	PATT
	 POIN2	EasterStone_9_002
// 041   ----------------------------------------
	BYTE	PATT
	 POIN2	EasterStone_9_001
// 042   ----------------------------------------
	BYTE	PATT
	 POIN2	EasterStone_9_010
	BYTE	GoTo
	 POIN2	EasterStone_9_B1
EasterStone_9_B2:
	BYTE	W04
	BYTE		N07     Bn1   v127
	BYTE	W08
// 043   ----------------------------------------
	BYTE		        En1 
	BYTE	W08
	BYTE		        Bn1 
	BYTE	W08
	BYTE		        En1 
	BYTE	W08
	BYTE		        Bn1 
	BYTE	W08
	BYTE		        An1 
	BYTE	W08
	BYTE		        Bn1 
	BYTE	W08
	BYTE		        En1 
	BYTE	W08
	BYTE		        Bn1 
	BYTE	W08
	BYTE		        En1 
	BYTE	W08
	BYTE		        An1 
	BYTE	W08
	BYTE		        Bn1 
	BYTE	W08
	BYTE		        En2 
	BYTE	W07
	BYTE		BEND    c_v+0
	BYTE	W01
// 044   ----------------------------------------
	BYTE	FINE

//**************** Track 10 (Midi-Chn.11) ****************//

EasterStone_10:
	BYTE	KEYSH   EasterStone_key+0
// 000   ----------------------------------------
	BYTE		VOICE   48
	BYTE		PAN     c_v-1
	BYTE		VOL     127*EasterStone_mvl/mxv
	BYTE		N07     En1   v127
	BYTE	W08
	BYTE		        Bn1 
	BYTE	W08
	BYTE		        En1 
	BYTE	W08
	BYTE		        Bn1 
	BYTE	W08
	BYTE		        An1 
	BYTE	W08
	BYTE		        Bn1 
	BYTE	W08
	BYTE		        En1 
	BYTE	W08
	BYTE		        Bn1 
	BYTE	W08
	BYTE		        En1 
	BYTE	W08
	BYTE		        Bn1 
	BYTE	W08
	BYTE		        An1 
	BYTE	W08
	BYTE		        Bn1 
	BYTE	W08
// 001   ----------------------------------------
EasterStone_10_001:
	BYTE		N07     En1   v127
	BYTE	W08
	BYTE		        Bn1 
	BYTE	W08
	BYTE		        En1 
	BYTE	W08
	BYTE		        Bn1 
	BYTE	W08
	BYTE		        An1 
	BYTE	W08
	BYTE		        Bn1 
	BYTE	W08
	BYTE		        En1 
	BYTE	W08
	BYTE		        Bn1 
	BYTE	W08
	BYTE		        En1 
	BYTE	W08
	BYTE		        An1 
	BYTE	W08
	BYTE		        Bn1 
	BYTE	W08
	BYTE		        En2 
	BYTE	W08
	BYTE	PEND
// 002   ----------------------------------------
EasterStone_10_002:
	BYTE		N07     En1   v127
	BYTE	W08
	BYTE		        Bn1 
	BYTE	W08
	BYTE		        En1 
	BYTE	W08
	BYTE		        Bn1 
	BYTE	W08
	BYTE		        An1 
	BYTE	W08
	BYTE		        Bn1 
	BYTE	W08
	BYTE		        En1 
	BYTE	W08
	BYTE		        Bn1 
	BYTE	W08
	BYTE		        En1 
	BYTE	W08
	BYTE		        Bn1 
	BYTE	W08
	BYTE		        An1 
	BYTE	W08
	BYTE		        Bn1 
	BYTE	W08
	BYTE	PEND
// 003   ----------------------------------------
	BYTE	PATT
	 POIN2	EasterStone_10_001
// 004   ----------------------------------------
	BYTE	PATT
	 POIN2	EasterStone_10_002
// 005   ----------------------------------------
	BYTE	PATT
	 POIN2	EasterStone_10_001
// 006   ----------------------------------------
	BYTE	PATT
	 POIN2	EasterStone_10_002
// 007   ----------------------------------------
	BYTE	PATT
	 POIN2	EasterStone_10_001
// 008   ----------------------------------------
	BYTE	PATT
	 POIN2	EasterStone_10_002
// 009   ----------------------------------------
	BYTE	PATT
	 POIN2	EasterStone_10_001
// 010   ----------------------------------------
EasterStone_10_010:
	BYTE		N07     En1   v127
	BYTE	W08
	BYTE		        Bn1 
	BYTE	W08
	BYTE		        En1 
	BYTE	W08
	BYTE		        Bn1 
	BYTE	W08
	BYTE		        An1 
	BYTE	W08
	BYTE		        Bn1 
	BYTE	W08
	BYTE		        En1 
	BYTE	W08
	BYTE		        Bn1 
	BYTE	W08
	BYTE		        En1 
	BYTE	W08
	BYTE		        Bn1 
	BYTE	W08
	BYTE		        An1 
	BYTE	W04
	BYTE	PEND
EasterStone_10_B1:
	BYTE	W04
	BYTE		N07     Bn1   v127
	BYTE	W08
// 011   ----------------------------------------
	BYTE	PATT
	 POIN2	EasterStone_10_001
// 012   ----------------------------------------
	BYTE	PATT
	 POIN2	EasterStone_10_002
// 013   ----------------------------------------
	BYTE	PATT
	 POIN2	EasterStone_10_001
// 014   ----------------------------------------
EasterStone_10_014:
	BYTE		N07     An1   v127
	BYTE	W08
	BYTE		        Dn2 
	BYTE	W08
	BYTE		        An1 
	BYTE	W08
	BYTE		        Dn2 
	BYTE	W08
	BYTE		        Gn1 
	BYTE	W08
	BYTE		        An1 
	BYTE	W08
	BYTE		N07   
	BYTE	W08
	BYTE		        Dn2 
	BYTE	W08
	BYTE		        An1 
	BYTE	W08
	BYTE		N07   
	BYTE	W08
	BYTE		        Dn2 
	BYTE	W08
	BYTE		        Gn2 
	BYTE	W08
	BYTE	PEND
// 015   ----------------------------------------
	BYTE		N14     An1 
	BYTE	W16
	BYTE		        Dn2 
	BYTE	W16
	BYTE		        En2 
	BYTE	W16
	BYTE		N07     Bn1 
	BYTE	W08
	BYTE		        En2 
	BYTE	W08
	BYTE		        Fs2 
	BYTE	W08
	BYTE		        Cs2 
	BYTE	W08
	BYTE		        Fs2 
	BYTE	W08
	BYTE		        Gs2 
	BYTE	W08
// 016   ----------------------------------------
	BYTE	PATT
	 POIN2	EasterStone_10_002
// 017   ----------------------------------------
	BYTE	PATT
	 POIN2	EasterStone_10_001
// 018   ----------------------------------------
	BYTE	PATT
	 POIN2	EasterStone_10_002
// 019   ----------------------------------------
	BYTE	PATT
	 POIN2	EasterStone_10_001
// 020   ----------------------------------------
EasterStone_10_020:
	BYTE		N07     En1   v127
	BYTE	W08
	BYTE		        Bn1 
	BYTE	W08
	BYTE		        En1 
	BYTE	W08
	BYTE		        Bn1 
	BYTE	W08
	BYTE		        Gs1 
	BYTE	W08
	BYTE		        Bn1 
	BYTE	W08
	BYTE		        En1 
	BYTE	W08
	BYTE		        Bn1 
	BYTE	W08
	BYTE		        En1 
	BYTE	W08
	BYTE		        Bn1 
	BYTE	W08
	BYTE		        Gs1 
	BYTE	W08
	BYTE		        Bn1 
	BYTE	W08
	BYTE	PEND
// 021   ----------------------------------------
	BYTE	PATT
	 POIN2	EasterStone_10_020
// 022   ----------------------------------------
	BYTE	PATT
	 POIN2	EasterStone_10_014
// 023   ----------------------------------------
	BYTE		N84     Gn1   v127
	BYTE	W96
// 024   ----------------------------------------
EasterStone_10_024:
	BYTE		N07     An1   v127
	BYTE	W08
	BYTE		        Dn2 
	BYTE	W08
	BYTE		        Gn2 
	BYTE	W08
	BYTE		        An1 
	BYTE	W08
	BYTE		        Dn2 
	BYTE	W08
	BYTE		        Gn2 
	BYTE	W08
	BYTE		        Gs1 
	BYTE	W08
	BYTE		        Cs2 
	BYTE	W08
	BYTE		        Fs2 
	BYTE	W08
	BYTE		        Gs1 
	BYTE	W08
	BYTE		        Cs2 
	BYTE	W08
	BYTE		        Fs2 
	BYTE	W08
	BYTE	PEND
// 025   ----------------------------------------
	BYTE	PATT
	 POIN2	EasterStone_10_024
// 026   ----------------------------------------
EasterStone_10_026:
	BYTE		N07     Cn2   v127
	BYTE	W08
	BYTE		        Fn2 
	BYTE	W08
	BYTE		        As2 
	BYTE	W08
	BYTE		        Cn2 
	BYTE	W08
	BYTE		        Fn2 
	BYTE	W08
	BYTE		        As2 
	BYTE	W08
	BYTE		        Bn1 
	BYTE	W08
	BYTE		        En2 
	BYTE	W08
	BYTE		        An2 
	BYTE	W08
	BYTE		        Bn1 
	BYTE	W08
	BYTE		        En2 
	BYTE	W08
	BYTE		        An2 
	BYTE	W08
	BYTE	PEND
// 027   ----------------------------------------
	BYTE	PATT
	 POIN2	EasterStone_10_026
// 028   ----------------------------------------
EasterStone_10_028:
	BYTE		N07     Ds2   v127
	BYTE	W08
	BYTE		        Gs2 
	BYTE	W08
	BYTE		        Cs3 
	BYTE	W08
	BYTE		        Ds2 
	BYTE	W08
	BYTE		        Gs2 
	BYTE	W08
	BYTE		        Cs3 
	BYTE	W08
	BYTE		        Dn2 
	BYTE	W08
	BYTE		        Gn2 
	BYTE	W08
	BYTE		        Cn3 
	BYTE	W08
	BYTE		        Dn2 
	BYTE	W08
	BYTE		        Gn2 
	BYTE	W08
	BYTE		        Cn3 
	BYTE	W08
	BYTE	PEND
// 029   ----------------------------------------
	BYTE	PATT
	 POIN2	EasterStone_10_028
// 030   ----------------------------------------
	BYTE		N21     Fs1   v127
	BYTE	W24
	BYTE		        Gn1 
	BYTE	W24
	BYTE		        Gs1 
	BYTE	W24
	BYTE		        An1 
	BYTE	W24
// 031   ----------------------------------------
	BYTE		N16     As1 
	BYTE	W18
	BYTE		        Bn1 
	BYTE	W18
	BYTE		N10     Cn2 
	BYTE	W12
	BYTE		        Cs2 
	BYTE	W12
	BYTE		        Dn2 
	BYTE	W12
	BYTE		        Ds2 
	BYTE	W12
	BYTE		        En2 
	BYTE	W12
// 032   ----------------------------------------
	BYTE	PATT
	 POIN2	EasterStone_10_002
// 033   ----------------------------------------
	BYTE	PATT
	 POIN2	EasterStone_10_001
// 034   ----------------------------------------
	BYTE	PATT
	 POIN2	EasterStone_10_002
// 035   ----------------------------------------
	BYTE	PATT
	 POIN2	EasterStone_10_001
// 036   ----------------------------------------
	BYTE	PATT
	 POIN2	EasterStone_10_002
// 037   ----------------------------------------
	BYTE	PATT
	 POIN2	EasterStone_10_001
// 038   ----------------------------------------
	BYTE	PATT
	 POIN2	EasterStone_10_002
// 039   ----------------------------------------
	BYTE	PATT
	 POIN2	EasterStone_10_001
// 040   ----------------------------------------
	BYTE	PATT
	 POIN2	EasterStone_10_002
// 041   ----------------------------------------
	BYTE	PATT
	 POIN2	EasterStone_10_001
// 042   ----------------------------------------
	BYTE	PATT
	 POIN2	EasterStone_10_010
	BYTE	GoTo
	 POIN2	EasterStone_10_B1
EasterStone_10_B2:
	BYTE	W04
	BYTE		N07     Bn1   v127
	BYTE	W08
// 043   ----------------------------------------
	BYTE		        En1 
	BYTE	W08
	BYTE		        Bn1 
	BYTE	W08
	BYTE		        En1 
	BYTE	W08
	BYTE		        Bn1 
	BYTE	W08
	BYTE		        An1 
	BYTE	W08
	BYTE		        Bn1 
	BYTE	W08
	BYTE		        En1 
	BYTE	W08
	BYTE		        Bn1 
	BYTE	W08
	BYTE		        En1 
	BYTE	W08
	BYTE		        An1 
	BYTE	W08
	BYTE		        Bn1 
	BYTE	W08
	BYTE		        En2 
	BYTE	W07
	BYTE		BEND    c_v+0
	BYTE	W01
// 044   ----------------------------------------
	BYTE	FINE

//**************** Track 11 (Midi-Chn.12) ****************//

EasterStone_11:
	BYTE	KEYSH   EasterStone_key+0
// 000   ----------------------------------------
	BYTE		VOICE   42
	BYTE		VOL     110*EasterStone_mvl/mxv
	BYTE		PAN     c_v+36
	BYTE		N07     En1   v127
	BYTE	W08
	BYTE		        Bn1 
	BYTE	W08
	BYTE		        En1 
	BYTE	W08
	BYTE		        Bn1 
	BYTE	W08
	BYTE		        An1 
	BYTE	W08
	BYTE		        Bn1 
	BYTE	W08
	BYTE		        En1 
	BYTE	W08
	BYTE		        Bn1 
	BYTE	W08
	BYTE		        En1 
	BYTE	W08
	BYTE		        Bn1 
	BYTE	W08
	BYTE		        An1 
	BYTE	W08
	BYTE		        Bn1 
	BYTE	W08
// 001   ----------------------------------------
EasterStone_11_001:
	BYTE		N07     En1   v127
	BYTE	W08
	BYTE		        Bn1 
	BYTE	W08
	BYTE		        En1 
	BYTE	W08
	BYTE		        Bn1 
	BYTE	W08
	BYTE		        An1 
	BYTE	W08
	BYTE		        Bn1 
	BYTE	W08
	BYTE		        En1 
	BYTE	W08
	BYTE		        Bn1 
	BYTE	W08
	BYTE		        En1 
	BYTE	W08
	BYTE		        An1 
	BYTE	W08
	BYTE		        Bn1 
	BYTE	W08
	BYTE		        En2 
	BYTE	W08
	BYTE	PEND
// 002   ----------------------------------------
EasterStone_11_002:
	BYTE		N07     En1   v127
	BYTE	W08
	BYTE		        Bn1 
	BYTE	W08
	BYTE		        En1 
	BYTE	W08
	BYTE		        Bn1 
	BYTE	W08
	BYTE		        An1 
	BYTE	W08
	BYTE		        Bn1 
	BYTE	W08
	BYTE		        En1 
	BYTE	W08
	BYTE		        Bn1 
	BYTE	W08
	BYTE		        En1 
	BYTE	W08
	BYTE		        Bn1 
	BYTE	W08
	BYTE		        An1 
	BYTE	W08
	BYTE		        Bn1 
	BYTE	W08
	BYTE	PEND
// 003   ----------------------------------------
	BYTE	PATT
	 POIN2	EasterStone_11_001
// 004   ----------------------------------------
	BYTE	PATT
	 POIN2	EasterStone_11_002
// 005   ----------------------------------------
	BYTE	PATT
	 POIN2	EasterStone_11_001
// 006   ----------------------------------------
	BYTE	PATT
	 POIN2	EasterStone_11_002
// 007   ----------------------------------------
	BYTE	PATT
	 POIN2	EasterStone_11_001
// 008   ----------------------------------------
	BYTE	PATT
	 POIN2	EasterStone_11_002
// 009   ----------------------------------------
	BYTE	PATT
	 POIN2	EasterStone_11_001
// 010   ----------------------------------------
EasterStone_11_010:
	BYTE		N07     En1   v127
	BYTE	W08
	BYTE		        Bn1 
	BYTE	W08
	BYTE		        En1 
	BYTE	W08
	BYTE		        Bn1 
	BYTE	W08
	BYTE		        An1 
	BYTE	W08
	BYTE		        Bn1 
	BYTE	W08
	BYTE		        En1 
	BYTE	W08
	BYTE		        Bn1 
	BYTE	W08
	BYTE		        En1 
	BYTE	W08
	BYTE		        Bn1 
	BYTE	W08
	BYTE		        An1 
	BYTE	W04
	BYTE	PEND
EasterStone_11_B1:
	BYTE	W04
	BYTE		N07     Bn1   v127
	BYTE	W08
// 011   ----------------------------------------
	BYTE	PATT
	 POIN2	EasterStone_11_001
// 012   ----------------------------------------
	BYTE	PATT
	 POIN2	EasterStone_11_002
// 013   ----------------------------------------
	BYTE	PATT
	 POIN2	EasterStone_11_001
// 014   ----------------------------------------
EasterStone_11_014:
	BYTE		N07     An1   v127
	BYTE	W08
	BYTE		        Dn2 
	BYTE	W08
	BYTE		        An1 
	BYTE	W08
	BYTE		        Dn2 
	BYTE	W08
	BYTE		        Gn1 
	BYTE	W08
	BYTE		        An1 
	BYTE	W08
	BYTE		N07   
	BYTE	W08
	BYTE		        Dn2 
	BYTE	W08
	BYTE		        An1 
	BYTE	W08
	BYTE		N07   
	BYTE	W08
	BYTE		        Dn2 
	BYTE	W08
	BYTE		        Gn2 
	BYTE	W08
	BYTE	PEND
// 015   ----------------------------------------
	BYTE		N14     An1 
	BYTE	W16
	BYTE		        Dn2 
	BYTE	W16
	BYTE		        En2 
	BYTE	W16
	BYTE		N07     Bn1 
	BYTE	W08
	BYTE		        En2 
	BYTE	W08
	BYTE		        Fs2 
	BYTE	W08
	BYTE		        Cs2 
	BYTE	W08
	BYTE		        Fs2 
	BYTE	W08
	BYTE		        Gs2 
	BYTE	W08
// 016   ----------------------------------------
	BYTE	PATT
	 POIN2	EasterStone_11_002
// 017   ----------------------------------------
	BYTE	PATT
	 POIN2	EasterStone_11_001
// 018   ----------------------------------------
	BYTE	PATT
	 POIN2	EasterStone_11_002
// 019   ----------------------------------------
	BYTE	PATT
	 POIN2	EasterStone_11_001
// 020   ----------------------------------------
EasterStone_11_020:
	BYTE		N07     En1   v127
	BYTE	W08
	BYTE		        Bn1 
	BYTE	W08
	BYTE		        En1 
	BYTE	W08
	BYTE		        Bn1 
	BYTE	W08
	BYTE		        Gs1 
	BYTE	W08
	BYTE		        Bn1 
	BYTE	W08
	BYTE		        En1 
	BYTE	W08
	BYTE		        Bn1 
	BYTE	W08
	BYTE		        En1 
	BYTE	W08
	BYTE		        Bn1 
	BYTE	W08
	BYTE		        Gs1 
	BYTE	W08
	BYTE		        Bn1 
	BYTE	W08
	BYTE	PEND
// 021   ----------------------------------------
	BYTE	PATT
	 POIN2	EasterStone_11_020
// 022   ----------------------------------------
	BYTE	PATT
	 POIN2	EasterStone_11_014
// 023   ----------------------------------------
	BYTE		N84     Gn1   v127
	BYTE	W96
// 024   ----------------------------------------
EasterStone_11_024:
	BYTE		N07     An1   v127
	BYTE	W08
	BYTE		        Dn2 
	BYTE	W08
	BYTE		        Gn2 
	BYTE	W08
	BYTE		        An1 
	BYTE	W08
	BYTE		        Dn2 
	BYTE	W08
	BYTE		        Gn2 
	BYTE	W08
	BYTE		        Gs1 
	BYTE	W08
	BYTE		        Cs2 
	BYTE	W08
	BYTE		        Fs2 
	BYTE	W08
	BYTE		        Gs1 
	BYTE	W08
	BYTE		        Cs2 
	BYTE	W08
	BYTE		        Fs2 
	BYTE	W08
	BYTE	PEND
// 025   ----------------------------------------
	BYTE	PATT
	 POIN2	EasterStone_11_024
// 026   ----------------------------------------
EasterStone_11_026:
	BYTE		N07     Cn2   v127
	BYTE	W08
	BYTE		        Fn2 
	BYTE	W08
	BYTE		        As2 
	BYTE	W08
	BYTE		        Cn2 
	BYTE	W08
	BYTE		        Fn2 
	BYTE	W08
	BYTE		        As2 
	BYTE	W08
	BYTE		        Bn1 
	BYTE	W08
	BYTE		        En2 
	BYTE	W08
	BYTE		        An2 
	BYTE	W08
	BYTE		        Bn1 
	BYTE	W08
	BYTE		        En2 
	BYTE	W08
	BYTE		        An2 
	BYTE	W08
	BYTE	PEND
// 027   ----------------------------------------
	BYTE	PATT
	 POIN2	EasterStone_11_026
// 028   ----------------------------------------
EasterStone_11_028:
	BYTE		N07     Ds2   v127
	BYTE	W08
	BYTE		        Gs2 
	BYTE	W08
	BYTE		        Cs3 
	BYTE	W08
	BYTE		        Ds2 
	BYTE	W08
	BYTE		        Gs2 
	BYTE	W08
	BYTE		        Cs3 
	BYTE	W08
	BYTE		        Dn2 
	BYTE	W08
	BYTE		        Gn2 
	BYTE	W08
	BYTE		        Cn3 
	BYTE	W08
	BYTE		        Dn2 
	BYTE	W08
	BYTE		        Gn2 
	BYTE	W08
	BYTE		        Cn3 
	BYTE	W08
	BYTE	PEND
// 029   ----------------------------------------
	BYTE	PATT
	 POIN2	EasterStone_11_028
// 030   ----------------------------------------
	BYTE		N21     Fs1   v127
	BYTE	W24
	BYTE		        Gn1 
	BYTE	W24
	BYTE		        Gs1 
	BYTE	W24
	BYTE		        An1 
	BYTE	W24
// 031   ----------------------------------------
	BYTE		N16     As1 
	BYTE	W18
	BYTE		        Bn1 
	BYTE	W18
	BYTE		N10     Cn2 
	BYTE	W12
	BYTE		        Cs2 
	BYTE	W12
	BYTE		        Dn2 
	BYTE	W12
	BYTE		        Ds2 
	BYTE	W12
	BYTE		        En2 
	BYTE	W12
// 032   ----------------------------------------
	BYTE	PATT
	 POIN2	EasterStone_11_002
// 033   ----------------------------------------
	BYTE	PATT
	 POIN2	EasterStone_11_001
// 034   ----------------------------------------
	BYTE	PATT
	 POIN2	EasterStone_11_002
// 035   ----------------------------------------
	BYTE	PATT
	 POIN2	EasterStone_11_001
// 036   ----------------------------------------
	BYTE	PATT
	 POIN2	EasterStone_11_002
// 037   ----------------------------------------
	BYTE	PATT
	 POIN2	EasterStone_11_001
// 038   ----------------------------------------
	BYTE	PATT
	 POIN2	EasterStone_11_002
// 039   ----------------------------------------
	BYTE	PATT
	 POIN2	EasterStone_11_001
// 040   ----------------------------------------
	BYTE	PATT
	 POIN2	EasterStone_11_002
// 041   ----------------------------------------
	BYTE	PATT
	 POIN2	EasterStone_11_001
// 042   ----------------------------------------
	BYTE	PATT
	 POIN2	EasterStone_11_010
	BYTE	GoTo
	 POIN2	EasterStone_11_B1
EasterStone_11_B2:
	BYTE	W04
	BYTE		N07     Bn1   v127
	BYTE	W08
// 043   ----------------------------------------
	BYTE		        En1 
	BYTE	W08
	BYTE		        Bn1 
	BYTE	W08
	BYTE		        En1 
	BYTE	W08
	BYTE		        Bn1 
	BYTE	W08
	BYTE		        An1 
	BYTE	W08
	BYTE		        Bn1 
	BYTE	W08
	BYTE		        En1 
	BYTE	W08
	BYTE		        Bn1 
	BYTE	W08
	BYTE		        En1 
	BYTE	W08
	BYTE		        An1 
	BYTE	W08
	BYTE		        Bn1 
	BYTE	W08
	BYTE		        En2 
	BYTE	W07
	BYTE		BEND    c_v+0
	BYTE	W01
// 044   ----------------------------------------
	BYTE	FINE

//******************************************************//
	ALIGN 4

EasterStone:
	BYTE	11	// NumTrks
	BYTE	0	// NumBlks
	BYTE	EasterStone_pri	// Priority
	BYTE	EasterStone_rev	// Reverb.

	POIN2	EasterStone_grp

	POIN2	EasterStone_1
	POIN2	EasterStone_2
	POIN2	EasterStone_3
	POIN2	EasterStone_4
	POIN2	EasterStone_5
	POIN2	EasterStone_6
	POIN2	EasterStone_7
	POIN2	EasterStone_8
	POIN2	EasterStone_9
	POIN2	EasterStone_10
	POIN2	EasterStone_11

	
