//Event file generated from Sappy .s format.
	#include "MPlayDef.event"

	#define	EnemyMessage3_grp  voicegroup000
	#define	EnemyMessage3_pri  0
	#define	EnemyMessage3_rev  0
	#define	EnemyMessage3_mvl  127
	#define	EnemyMessage3_key  0
	#define	EnemyMessage3_tbs  1
	#define	EnemyMessage3_exg  0
	#define	EnemyMessage3_cmp  1

	// .rodata
	//	EnemyMessage3
	ALIGN 4


//**************** Track 1 (Midi-Chn.0) ****************//

EnemyMessage3_001:
// 000   ----------------------------------------
 BYTE   KEYSH   EnemyMessage3_key+0
Label_0_016F6896:
 BYTE   TEMPO   110*EnemyMessage3_tbs/2
 BYTE   PAN   c_v+0
 BYTE   VOL   20*EnemyMessage3_mvl/mxv
 BYTE   MOD 0
 BYTE   CnM2
 BYTE   BEND   c_v+0
 BYTE   W05
 BYTE   VOICE   57
 BYTE   PAN   c_v+16
 BYTE   VOL   45*EnemyMessage3_mvl/mxv
 BYTE   W12
 BYTE   N09  Fn4  v127
 BYTE   W12
 BYTE   N09
 BYTE   W12
 BYTE   En4
 BYTE   W12
 BYTE   Dn4
 BYTE   W12
 BYTE   Cs4
 BYTE   W12
 BYTE   N72  Dn4
 BYTE   W19
// 001   ----------------------------------------
Label_0_016F68B7:
 BYTE   W64
 BYTE   W01
 BYTE   N09  Ds4  v127
 BYTE   W12
 BYTE   N09
 BYTE   W12
 BYTE   Dn4
 BYTE   W07
 BYTE   PEND 
// 002   ----------------------------------------
Label_0_016F68C2:
 BYTE   W05
 BYTE   N09  Cn4  v127
 BYTE   W12
 BYTE   Bn3
 BYTE   W12
 BYTE   N72  Cn4
 BYTE   W66
 BYTE   W01
 BYTE   PEND 
// 003   ----------------------------------------
Label_0_016F68CE:
 BYTE   W05
 BYTE   N36  Dn3  v127
 BYTE   W36
 BYTE   N04  Ds3
 BYTE   W06
 BYTE   Fn3
 BYTE   W06
 BYTE   N36  Dn3
 BYTE   W36
 BYTE   N04  Ds3
 BYTE   W06
 BYTE   Fn3
 BYTE   W01
 BYTE   PEND 
// 004   ----------------------------------------
 BYTE   W05
 BYTE   N42  Cn3
 BYTE   W48
 BYTE   N21  Fn3
 BYTE   W24
 BYTE   Cn3
 BYTE   W19
 BYTE   PATT
  POIN2 Label_0_016F68CE
// 005   ----------------------------------------
 BYTE   W05
 BYTE   N21  Cn3  v127
 BYTE   W24
 BYTE   N21
 BYTE   W24
 BYTE   Fn3
 BYTE   W24
 BYTE   Cn3
 BYTE   W19
// 006   ----------------------------------------
 BYTE   W05
 BYTE   TIE  Dn3
 BYTE   W90
 BYTE   W01
// 007   ----------------------------------------
 BYTE   W52
 BYTE   W01
 BYTE   EOT
 BYTE   W42
 BYTE   W01
// 008   ----------------------------------------
 BYTE   W05
 BYTE   VOICE   48
 BYTE   VOL   50*EnemyMessage3_mvl/mxv
 BYTE   N09  Ds4
 BYTE   W12
 BYTE   N09
 BYTE   W24
 BYTE   Cs4
 BYTE   W12
 BYTE   N09
 BYTE   W24
 BYTE   Cn4
 BYTE   W12
 BYTE   N09
 BYTE   W07
// 009   ----------------------------------------
 BYTE   W17
 BYTE   Bn3
 BYTE   W12
 BYTE   N09
 BYTE   W24
 BYTE   Cn4
 BYTE   W12
 BYTE   N09
 BYTE   W12
 BYTE   Cs4
 BYTE   W12
 BYTE   N09
 BYTE   W07
// 010   ----------------------------------------
 BYTE   W05
 BYTE   Ds4
 BYTE   W12
 BYTE   N09
 BYTE   W24
 BYTE   Cs4
 BYTE   W12
 BYTE   N09
 BYTE   W24
 BYTE   Cn4
 BYTE   W12
 BYTE   N09
 BYTE   W07
// 011   ----------------------------------------
 BYTE   W17
 BYTE   As3
 BYTE   W12
 BYTE   N09
 BYTE   W24
 BYTE   Cn4
 BYTE   W12
 BYTE   As3
 BYTE   W12
 BYTE   Cn4
 BYTE   W12
 BYTE   Cs4
 BYTE   W07
// 012   ----------------------------------------
 BYTE   W05
 BYTE   N18  Cn4
 BYTE   W24
 BYTE   N80  Fn3
 BYTE   W66
 BYTE   W01
// 013   ----------------------------------------
 BYTE   W17
 BYTE   N07  Fn2
 BYTE   W12
 BYTE   N07
 BYTE   W12
 BYTE   N07
 BYTE   W12
 BYTE   N03
 BYTE   W06
 BYTE   N03
 BYTE   W06
 BYTE   N07
 BYTE   W12
 BYTE   N07
 BYTE   W12
 BYTE   N07
 BYTE   W07
// 014   ----------------------------------------
Label_0_016F6957:
 BYTE   W05
 BYTE   N07  Fn2  v127
 BYTE   W12
 BYTE   N07
 BYTE   W12
 BYTE   N07
 BYTE   W12
 BYTE   N03
 BYTE   W06
 BYTE   N03
 BYTE   W06
 BYTE   N03
 BYTE   W06
 BYTE   N03
 BYTE   W06
 BYTE   N07
 BYTE   W12
 BYTE   N07
 BYTE   W12
 BYTE   N07
 BYTE   W07
 BYTE   PEND 
 BYTE   PATT
  POIN2 Label_0_016F6957
 BYTE   PATT
  POIN2 Label_0_016F6957
 BYTE   PATT
  POIN2 Label_0_016F6957
// 015   ----------------------------------------
 BYTE   GoTo
  POIN2 Label_0_016F6896
// 016   ----------------------------------------
 BYTE   W05
 BYTE   VOICE   57
 BYTE   PAN   c_v+16
 BYTE   VOL   45*EnemyMessage3_mvl/mxv
 BYTE   W12
 BYTE   N09  Fn4  v127
 BYTE   W12
 BYTE   N09
 BYTE   W12
 BYTE   En4
 BYTE   W12
 BYTE   Dn4
 BYTE   W12
 BYTE   Cs4
 BYTE   W12
 BYTE   N72  Dn4
 BYTE   W19
 BYTE   PATT
  POIN2 Label_0_016F68B7
 BYTE   PATT
  POIN2 Label_0_016F68C2
// 017   ----------------------------------------
 BYTE   W05
 BYTE   FINE

//**************** Track 2 (Midi-Chn.1) ****************//

EnemyMessage3_002:
// 000   ----------------------------------------
 BYTE   KEYSH   EnemyMessage3_key+0
Label_1_016F6622:
 BYTE   PAN   c_v+0
 BYTE   VOL   20*EnemyMessage3_mvl/mxv
 BYTE   MOD 0
 BYTE   CnM2
 BYTE   BEND   c_v+0
 BYTE   W05
 BYTE   VOICE   48
 BYTE   PAN   c_v-14
 BYTE   VOL   45*EnemyMessage3_mvl/mxv
 BYTE   W12
 BYTE   N09  As3  v127
 BYTE   W12
 BYTE   N09
 BYTE   W12
 BYTE   N09
 BYTE   W12
 BYTE   N09
 BYTE   W12
 BYTE   N09
 BYTE   W12
 BYTE   N72
 BYTE   W19
// 001   ----------------------------------------
Label_1_016F6640:
 BYTE   W64
 BYTE   W01
 BYTE   N09  Gs3  v127
 BYTE   W12
 BYTE   N09
 BYTE   W12
 BYTE   N09
 BYTE   W07
 BYTE   PEND 
// 002   ----------------------------------------
Label_1_016F664B:
 BYTE   W05
 BYTE   N09  Gs3  v127
 BYTE   W12
 BYTE   N09
 BYTE   W12
 BYTE   N72
 BYTE   W66
 BYTE   W01
 BYTE   PEND 
// 003   ----------------------------------------
 BYTE   W05
 BYTE   VOL   35*EnemyMessage3_mvl/mxv
 BYTE   N96  As3
 BYTE   W90
 BYTE   W01
// 004   ----------------------------------------
 BYTE   W05
 BYTE   N48  Gs3
 BYTE   W48
 BYTE   N24  Cn4
 BYTE   W24
 BYTE   Gs3
 BYTE   W19
// 005   ----------------------------------------
 BYTE   W05
 BYTE   N96  As3
 BYTE   W90
 BYTE   W01
// 006   ----------------------------------------
 BYTE   W05
 BYTE   N18  Gs3
 BYTE   W24
 BYTE   N18
 BYTE   W24
 BYTE   Cn4
 BYTE   W24
 BYTE   Gs3
 BYTE   W19
// 007   ----------------------------------------
 BYTE   W05
 BYTE   TIE  As3
 BYTE   W90
 BYTE   W01
// 008   ----------------------------------------
 BYTE   W52
 BYTE   W01
 BYTE   EOT
 BYTE   W42
 BYTE   W01
// 009   ----------------------------------------
 BYTE   W05
 BYTE   VOL   30*EnemyMessage3_mvl/mxv
 BYTE   N09  Gs3
 BYTE   W12
 BYTE   N09
 BYTE   W24
 BYTE   N09
 BYTE   W12
 BYTE   N09
 BYTE   W24
 BYTE   N09
 BYTE   W12
 BYTE   N09
 BYTE   W07
// 010   ----------------------------------------
 BYTE   W17
 BYTE   N09
 BYTE   W12
 BYTE   N09
 BYTE   W24
 BYTE   N09
 BYTE   W12
 BYTE   N09
 BYTE   W12
 BYTE   N09
 BYTE   W12
 BYTE   N09
 BYTE   W07
// 011   ----------------------------------------
 BYTE   W05
 BYTE   N09
 BYTE   W12
 BYTE   N09
 BYTE   W24
 BYTE   N09
 BYTE   W12
 BYTE   N09
 BYTE   W24
 BYTE   N09
 BYTE   W12
 BYTE   N09
 BYTE   W07
// 012   ----------------------------------------
 BYTE   W17
 BYTE   Gn3
 BYTE   W12
 BYTE   N09
 BYTE   W24
 BYTE   Gs3
 BYTE   W12
 BYTE   Gn3
 BYTE   W12
 BYTE   Gs3
 BYTE   W12
 BYTE   N09
 BYTE   W07
// 013   ----------------------------------------
 BYTE   W05
 BYTE   N18
 BYTE   W24
 BYTE   N80  Cn3
 BYTE   W66
 BYTE   W01
// 014   ----------------------------------------
 BYTE   W17
 BYTE   N07
 BYTE   W12
 BYTE   N07
 BYTE   W12
 BYTE   N07
 BYTE   W12
 BYTE   N03
 BYTE   W06
 BYTE   N03
 BYTE   W06
 BYTE   N07
 BYTE   W12
 BYTE   N07
 BYTE   W12
 BYTE   N07
 BYTE   W07
// 015   ----------------------------------------
Label_1_016F66CE:
 BYTE   W05
 BYTE   N07  Cn3  v127
 BYTE   W12
 BYTE   N07
 BYTE   W12
 BYTE   N07
 BYTE   W12
 BYTE   N03
 BYTE   W06
 BYTE   N03
 BYTE   W06
 BYTE   N03
 BYTE   W06
 BYTE   N03
 BYTE   W06
 BYTE   N07
 BYTE   W12
 BYTE   N07
 BYTE   W12
 BYTE   N07
 BYTE   W07
 BYTE   PEND 
 BYTE   PATT
  POIN2 Label_1_016F66CE
 BYTE   PATT
  POIN2 Label_1_016F66CE
 BYTE   PATT
  POIN2 Label_1_016F66CE
// 016   ----------------------------------------
 BYTE   GoTo
  POIN2 Label_1_016F6622
// 017   ----------------------------------------
 BYTE   W05
 BYTE   VOICE   48
 BYTE   PAN   c_v-14
 BYTE   VOL   45*EnemyMessage3_mvl/mxv
 BYTE   W12
 BYTE   N09  As3  v127
 BYTE   W12
 BYTE   N09
 BYTE   W12
 BYTE   N09
 BYTE   W12
 BYTE   N09
 BYTE   W12
 BYTE   N09
 BYTE   W12
 BYTE   N72
 BYTE   W19
 BYTE   PATT
  POIN2 Label_1_016F6640
 BYTE   PATT
  POIN2 Label_1_016F664B
// 018   ----------------------------------------
 BYTE   W05
 BYTE   VOL   35*EnemyMessage3_mvl/mxv
 BYTE   FINE

//**************** Track 3 (Midi-Chn.2) ****************//

EnemyMessage3_003:
// 000   ----------------------------------------
 BYTE   KEYSH   EnemyMessage3_key+0
Label_2_016F6722:
 BYTE   PAN   c_v+0
 BYTE   VOL   20*EnemyMessage3_mvl/mxv
 BYTE   MOD 0
 BYTE   CnM2
 BYTE   BEND   c_v+0
 BYTE   W05
 BYTE   VOICE   48
 BYTE   PAN   c_v-54
 BYTE   VOL   45*EnemyMessage3_mvl/mxv
 BYTE   W12
 BYTE   N09  Gn3  v127
 BYTE   W12
 BYTE   N09
 BYTE   W12
 BYTE   N09
 BYTE   W12
 BYTE   N09
 BYTE   W12
 BYTE   N09
 BYTE   W12
 BYTE   N72
 BYTE   W19
// 001   ----------------------------------------
Label_2_016F6740:
 BYTE   W64
 BYTE   W01
 BYTE   N09  Fn3  v127
 BYTE   W12
 BYTE   N09
 BYTE   W12
 BYTE   N09
 BYTE   W07
 BYTE   PEND 
// 002   ----------------------------------------
Label_2_016F674B:
 BYTE   W05
 BYTE   N09  Fn3  v127
 BYTE   W12
 BYTE   N09
 BYTE   W12
 BYTE   N72
 BYTE   W66
 BYTE   W01
 BYTE   PEND 
// 003   ----------------------------------------
 BYTE   W05
 BYTE   VOL   35*EnemyMessage3_mvl/mxv
 BYTE   N96  Gn3
 BYTE   W90
 BYTE   W01
// 004   ----------------------------------------
 BYTE   W05
 BYTE   N48  Fn3
 BYTE   W48
 BYTE   N24  Gs3
 BYTE   W24
 BYTE   Fn3
 BYTE   W19
// 005   ----------------------------------------
 BYTE   W05
 BYTE   N96  Gn3
 BYTE   W90
 BYTE   W01
// 006   ----------------------------------------
 BYTE   W05
 BYTE   N18  Fn3
 BYTE   W24
 BYTE   N18
 BYTE   W24
 BYTE   Gs3
 BYTE   W24
 BYTE   Fn3
 BYTE   W19
// 007   ----------------------------------------
 BYTE   W05
 BYTE   TIE  Gn3
 BYTE   W90
 BYTE   W01
// 008   ----------------------------------------
 BYTE   W52
 BYTE   W01
 BYTE   EOT
 BYTE   W42
 BYTE   W01
// 009   ----------------------------------------
 BYTE   W05
 BYTE   VOICE   20
 BYTE   VOL   30*EnemyMessage3_mvl/mxv
 BYTE   N09  Ds5
 BYTE   W12
 BYTE   N09
 BYTE   W24
 BYTE   Cs5
 BYTE   W12
 BYTE   N09
 BYTE   W24
 BYTE   Cn5
 BYTE   W12
 BYTE   N09
 BYTE   W07
// 010   ----------------------------------------
 BYTE   W17
 BYTE   Bn4
 BYTE   W12
 BYTE   N09
 BYTE   W24
 BYTE   Cn5
 BYTE   W12
 BYTE   N09
 BYTE   W12
 BYTE   Cs5
 BYTE   W12
 BYTE   N09
 BYTE   W07
// 011   ----------------------------------------
 BYTE   W05
 BYTE   Ds5
 BYTE   W12
 BYTE   N09
 BYTE   W24
 BYTE   Cs5
 BYTE   W12
 BYTE   N09
 BYTE   W24
 BYTE   Cn5
 BYTE   W12
 BYTE   N09
 BYTE   W07
// 012   ----------------------------------------
 BYTE   W17
 BYTE   As4
 BYTE   W12
 BYTE   N09
 BYTE   W24
 BYTE   Cn5
 BYTE   W12
 BYTE   As4
 BYTE   W12
 BYTE   Cn5
 BYTE   W12
 BYTE   Cs5
 BYTE   W07
// 013   ----------------------------------------
 BYTE   W05
 BYTE   N18  Cn5
 BYTE   W24
 BYTE   N80  Fn4
 BYTE   W66
 BYTE   W01
// 014   ----------------------------------------
 BYTE   W17
 BYTE   VOICE   70
 BYTE   VOL   15*EnemyMessage3_mvl/mxv
 BYTE   N03  Cn4
 BYTE   W12
 BYTE   N03
 BYTE   W12
 BYTE   N03
 BYTE   W12
 BYTE   N01
 BYTE   W06
 BYTE   N01
 BYTE   W06
 BYTE   N03
 BYTE   W12
 BYTE   N03
 BYTE   W12
 BYTE   N03
 BYTE   W07
// 015   ----------------------------------------
Label_2_016F67D6:
 BYTE   W05
 BYTE   N03  Cn4  v127
 BYTE   W12
 BYTE   N03
 BYTE   W12
 BYTE   N03
 BYTE   W12
 BYTE   N01
 BYTE   W06
 BYTE   N01
 BYTE   W06
 BYTE   N01
 BYTE   W06
 BYTE   N01
 BYTE   W06
 BYTE   N03
 BYTE   W12
 BYTE   N03
 BYTE   W12
 BYTE   N03
 BYTE   W07
 BYTE   PEND 
 BYTE   PATT
  POIN2 Label_2_016F67D6
 BYTE   PATT
  POIN2 Label_2_016F67D6
 BYTE   PATT
  POIN2 Label_2_016F67D6
// 016   ----------------------------------------
 BYTE   GoTo
  POIN2 Label_2_016F6722
// 017   ----------------------------------------
 BYTE   W05
 BYTE   VOICE   48
 BYTE   PAN   c_v-54
 BYTE   VOL   45*EnemyMessage3_mvl/mxv
 BYTE   W12
 BYTE   N09  Gn3  v127
 BYTE   W12
 BYTE   N09
 BYTE   W12
 BYTE   N09
 BYTE   W12
 BYTE   N09
 BYTE   W12
 BYTE   N09
 BYTE   W12
 BYTE   N72
 BYTE   W19
 BYTE   PATT
  POIN2 Label_2_016F6740
 BYTE   PATT
  POIN2 Label_2_016F674B
// 018   ----------------------------------------
 BYTE   W05
 BYTE   VOL   35*EnemyMessage3_mvl/mxv
 BYTE   FINE

//**************** Track 4 (Midi-Chn.3) ****************//

EnemyMessage3_004:
// 000   ----------------------------------------
 BYTE   KEYSH   EnemyMessage3_key+0
Label_3_016F6096:
 BYTE   PAN   c_v+0
 BYTE   VOL   20*EnemyMessage3_mvl/mxv
 BYTE   MOD 0
 BYTE   CnM2
 BYTE   BEND   c_v+0
 BYTE   W05
 BYTE   VOICE   60
 BYTE   PAN   c_v-44
 BYTE   VOL   45*EnemyMessage3_mvl/mxv
 BYTE   TIE  Gn1  v127
 BYTE   W90
 BYTE   W01
// 001   ----------------------------------------
 BYTE   W52
 BYTE   W01
 BYTE   EOT
 BYTE   TIE  Fn1
 BYTE   W42
 BYTE   W01
// 002   ----------------------------------------
 BYTE   W96
// 003   ----------------------------------------
 BYTE   W05
 BYTE   EOT
 BYTE   N96  Gn1
 BYTE   W90
 BYTE   W01
// 004   ----------------------------------------
Label_3_016F60B8:
 BYTE   W05
 BYTE   N96  Fn1  v127
 BYTE   W90
 BYTE   W01
 BYTE   PEND 
// 005   ----------------------------------------
 BYTE   W05
 BYTE   Gn1
 BYTE   W90
 BYTE   W01
 BYTE   PATT
  POIN2 Label_3_016F60B8
// 006   ----------------------------------------
Label_3_016F60C8:
 BYTE   W05
 BYTE   N12  Gn1  v127
 BYTE   W12
 BYTE   Dn2
 BYTE   W12
 BYTE   Gn1
 BYTE   W12
 BYTE   Dn2
 BYTE   W12
 BYTE   Gn1
 BYTE   W12
 BYTE   Dn2
 BYTE   W12
 BYTE   Gn1
 BYTE   W12
 BYTE   Dn2
 BYTE   W07
 BYTE   PEND 
 BYTE   PATT
  POIN2 Label_3_016F60C8
// 007   ----------------------------------------
Label_3_016F60E1:
 BYTE   W05
 BYTE   N12  Fn1  v127
 BYTE   W12
 BYTE   Cn2
 BYTE   W12
 BYTE   Fn1
 BYTE   W12
 BYTE   Cn2
 BYTE   W12
 BYTE   Fn1
 BYTE   W12
 BYTE   Cn2
 BYTE   W12
 BYTE   Fn1
 BYTE   W12
 BYTE   Cn2
 BYTE   W07
 BYTE   PEND 
 BYTE   PATT
  POIN2 Label_3_016F60E1
// 008   ----------------------------------------
Label_3_016F60FA:
 BYTE   W05
 BYTE   N12  Fs1  v127
 BYTE   W12
 BYTE   Cs2
 BYTE   W12
 BYTE   Fs1
 BYTE   W12
 BYTE   Cs2
 BYTE   W12
 BYTE   Fs1
 BYTE   W12
 BYTE   Cs2
 BYTE   W12
 BYTE   Fs1
 BYTE   W12
 BYTE   Cs2
 BYTE   W07
 BYTE   PEND 
 BYTE   PATT
  POIN2 Label_3_016F60FA
 BYTE   PATT
  POIN2 Label_3_016F60E1
 BYTE   PATT
  POIN2 Label_3_016F60E1
// 009   ----------------------------------------
Label_3_016F611D:
 BYTE   W05
 BYTE   N12  Fn1  v127
 BYTE   W12
 BYTE   Cs2
 BYTE   W12
 BYTE   Fn1
 BYTE   W12
 BYTE   Cs2
 BYTE   W12
 BYTE   Fn1
 BYTE   W12
 BYTE   Cs2
 BYTE   W12
 BYTE   Fn1
 BYTE   W12
 BYTE   Cs2
 BYTE   W07
 BYTE   PEND 
 BYTE   PATT
  POIN2 Label_3_016F611D
 BYTE   PATT
  POIN2 Label_3_016F60E1
 BYTE   PATT
  POIN2 Label_3_016F60E1
// 010   ----------------------------------------
 BYTE   GoTo
  POIN2 Label_3_016F6096
// 011   ----------------------------------------
 BYTE   W05
 BYTE   VOICE   60
 BYTE   PAN   c_v-44
 BYTE   VOL   45*EnemyMessage3_mvl/mxv
 BYTE   TIE  Gn1  v127
 BYTE   W90
 BYTE   W01
// 012   ----------------------------------------
 BYTE   W52
 BYTE   W01
 BYTE   EOT
 BYTE   TIE  Fn1
 BYTE   W42
 BYTE   W01
// 013   ----------------------------------------
 BYTE   W96
// 014   ----------------------------------------
 BYTE   W05
 BYTE   EOT
 BYTE   FINE

//**************** Track 5 (Midi-Chn.4) ****************//

EnemyMessage3_005:
// 000   ----------------------------------------
 BYTE   KEYSH   EnemyMessage3_key+0
Label_4_016F615E:
 BYTE   PAN   c_v+0
 BYTE   VOL   20*EnemyMessage3_mvl/mxv
 BYTE   MOD 0
 BYTE   CnM2
 BYTE   BEND   c_v+0
 BYTE   W05
 BYTE   VOICE   47
 BYTE   PAN   c_v+0
 BYTE   VOL   45*EnemyMessage3_mvl/mxv
 BYTE   TIE  Gn1  v127
 BYTE   W90
 BYTE   W01
// 001   ----------------------------------------
 BYTE   W17
 BYTE   EOT
 BYTE   N12
 BYTE   W12
 BYTE   Dn1
 BYTE   W12
 BYTE   Gn1
 BYTE   W12
 BYTE   TIE  Fn1
 BYTE   W42
 BYTE   W01
// 002   ----------------------------------------
 BYTE   W64
 BYTE   W01
 BYTE   EOT
 BYTE   N12
 BYTE   W12
 BYTE   Cn1
 BYTE   W12
 BYTE   Fn1
 BYTE   W07
// 003   ----------------------------------------
 BYTE   W05
 BYTE   N96  Gn1
 BYTE   W90
 BYTE   W01
// 004   ----------------------------------------
 BYTE   W96
// 005   ----------------------------------------
 BYTE   W96
// 006   ----------------------------------------
 BYTE   W76
 BYTE   W01
 BYTE   N24  Cn1
 BYTE   W19
// 007   ----------------------------------------
Label_4_016F6193:
 BYTE   W05
 BYTE   N24  Gn1  v127
 BYTE   W24
 BYTE   Dn1
 BYTE   W24
 BYTE   Gn1
 BYTE   W24
 BYTE   Dn1
 BYTE   W19
 BYTE   PEND 
 BYTE   PATT
  POIN2 Label_4_016F6193
// 008   ----------------------------------------
Label_4_016F61A4:
 BYTE   W05
 BYTE   N24  Fn1  v127
 BYTE   W24
 BYTE   Cn1
 BYTE   W24
 BYTE   Fn1
 BYTE   W24
 BYTE   Cn1
 BYTE   W19
 BYTE   PEND 
 BYTE   PATT
  POIN2 Label_4_016F61A4
 BYTE   PATT
  POIN2 Label_4_016F6193
 BYTE   PATT
  POIN2 Label_4_016F6193
 BYTE   PATT
  POIN2 Label_4_016F61A4
 BYTE   PATT
  POIN2 Label_4_016F61A4
// 009   ----------------------------------------
Label_4_016F61C9:
 BYTE   W05
 BYTE   N24  Fs1  v127
 BYTE   W24
 BYTE   Cs1
 BYTE   W24
 BYTE   Fs1
 BYTE   W24
 BYTE   Cs1
 BYTE   W19
 BYTE   PEND 
 BYTE   PATT
  POIN2 Label_4_016F61C9
 BYTE   PATT
  POIN2 Label_4_016F61A4
 BYTE   PATT
  POIN2 Label_4_016F61A4
// 010   ----------------------------------------
 BYTE   GoTo
  POIN2 Label_4_016F615E
// 011   ----------------------------------------
 BYTE   W05
 BYTE   VOICE   47
 BYTE   PAN   c_v+0
 BYTE   VOL   45*EnemyMessage3_mvl/mxv
 BYTE   TIE  Gn1  v127
 BYTE   W90
 BYTE   W01
// 012   ----------------------------------------
 BYTE   W17
 BYTE   EOT
 BYTE   N12
 BYTE   W12
 BYTE   Dn1
 BYTE   W12
 BYTE   Gn1
 BYTE   W12
 BYTE   TIE  Fn1
 BYTE   W42
 BYTE   W01
// 013   ----------------------------------------
 BYTE   W64
 BYTE   W01
 BYTE   EOT
 BYTE   N12
 BYTE   W12
 BYTE   Cn1
 BYTE   W12
 BYTE   Fn1
 BYTE   W07
// 014   ----------------------------------------
 BYTE   W05
 BYTE   FINE

//******************************************************//
	ALIGN 4

EnemyMessage3:
	BYTE	5	// NumTrks
	BYTE	0	// NumBlks
	BYTE	EnemyMessage3_pri	// Priority
	BYTE	EnemyMessage3_rev	// Reverb.
    
	POIN2	EnemyMessage3_grp
    
	POIN2	EnemyMessage3_001
	POIN2	EnemyMessage3_002
	POIN2	EnemyMessage3_003
	POIN2	EnemyMessage3_004
	POIN2	EnemyMessage3_005

	
