//Event file generated from Sappy .s format.
	#include "MPlayDef.event"

	#define	EternalMind_grp  voicegroup000
	#define	EternalMind_pri  0
	#define	EternalMind_rev  0
	#define	EternalMind_mvl  127
	#define	EternalMind_key  0
	#define	EternalMind_tbs  1
	#define	EternalMind_exg  0
	#define	EternalMind_cmp  1

	// .rodata
	//	EternalMind
	ALIGN 4

//**************** Track 1 (Midi-Chn.1) ****************//

EternalMind_1:
	BYTE	KEYSH   EternalMind_key+0
// 000   ----------------------------------------
	BYTE	TEMPO   140*EternalMind_tbs/2
	BYTE		VOICE   57
	BYTE		PAN     c_v+26
	BYTE		VOL     51*EternalMind_mvl/mxv
	BYTE	W24
EternalMind_1_B1:
	BYTE		N48     En3   v072
	BYTE		N48     En4   v100
	BYTE	W48
	BYTE		N18     Fs3   v072
	BYTE		N06     En4   v056
	BYTE		N18     Fs4   v100
	BYTE	W18
	BYTE		        Gn3   v072
	BYTE		N06     Fs4   v056
	BYTE		N18     Gn4   v100
	BYTE	W06
// 001   ----------------------------------------
EternalMind_1_001:
	BYTE	W12
	BYTE		N12     Bn3   v072
	BYTE		N06     Gn4   v056
	BYTE		N12     Bn4   v100
	BYTE	W12
	BYTE		N48     An3   v072
	BYTE		N48     An4   v100
	BYTE		N06     Bn4   v056
	BYTE	W48
	BYTE		N24     Dn3   v072
	BYTE		N24     Dn4   v100
	BYTE		N06     An4   v056
	BYTE	W24
	BYTE	PEND
// 002   ----------------------------------------
EternalMind_1_002:
	BYTE		N24     Cn3   v072
	BYTE		N24     Cn4   v100
	BYTE		N06     Dn4   v056
	BYTE	W24
	BYTE		N36     Bn2   v072
	BYTE		N36     Bn3   v100
	BYTE		N06     Cn4   v056
	BYTE	W36
	BYTE		N60     En3   v072
	BYTE		N06     Bn3   v056
	BYTE		N60     En4   v100
	BYTE	W36
	BYTE	PEND
// 003   ----------------------------------------
EternalMind_1_003:
	BYTE	W24
	BYTE		N36     Fs3   v072
	BYTE		N06     En4   v056
	BYTE		N36     Fs4   v100
	BYTE	W36
	BYTE		        Gn3   v072
	BYTE		N06     Fs4   v056
	BYTE		N36     Gn4   v100
	BYTE	W36
	BYTE	PEND
// 004   ----------------------------------------
EternalMind_1_004:
	BYTE		N24     Bn3   v072
	BYTE		N06     Gn4   v056
	BYTE		N24     Bn4   v100
	BYTE	W24
	BYTE		N36     An3   v072
	BYTE		N36     An4   v100
	BYTE		N06     Bn4   v056
	BYTE	W36
	BYTE		        Gn3   v072
	BYTE		N06     Gn4   v100
	BYTE		N06     An4   v056
	BYTE	W06
	BYTE		        Fs3   v072
	BYTE		N06     Fs4   v100
	BYTE		N06     Gn4   v056
	BYTE	W06
	BYTE		N24     Dn3   v072
	BYTE		N24     Dn4   v100
	BYTE		N06     Fs4   v056
	BYTE	W24
	BYTE	PEND
// 005   ----------------------------------------
EternalMind_1_005:
	BYTE		N24     Fs3   v072
	BYTE		N06     Dn4   v056
	BYTE		N24     Fs4   v100
	BYTE	W24
	BYTE		N48     En3   v072
	BYTE		N48     En4   v100
	BYTE		N06     Fs4   v056
	BYTE	W48
	BYTE		N18     Fs3   v072
	BYTE		N06     En4   v056
	BYTE		N18     Fs4   v100
	BYTE	W18
	BYTE		        Gn3   v072
	BYTE		N06     Fs4   v056
	BYTE		N18     Gn4   v100
	BYTE	W06
	BYTE	PEND
// 006   ----------------------------------------
EternalMind_1_006:
	BYTE	W12
	BYTE		N12     Bn3   v072
	BYTE		N06     Gn4   v056
	BYTE		N12     Bn4   v100
	BYTE	W12
	BYTE		N36     An3   v072
	BYTE		N36     An4   v100
	BYTE		N06     Bn4   v056
	BYTE	W36
	BYTE		        Gn3   v072
	BYTE		N06     Gn4   v100
	BYTE		N06     An4   v056
	BYTE	W06
	BYTE		        Fs3   v072
	BYTE		N06     Fs4   v100
	BYTE		N06     Gn4   v056
	BYTE	W06
	BYTE		N24     Dn3   v072
	BYTE		N24     Dn4   v100
	BYTE		N06     Fs4   v056
	BYTE	W24
	BYTE	PEND
// 007   ----------------------------------------
EternalMind_1_007:
	BYTE		N24     Fs3   v072
	BYTE		N24     Fs4   v100
	BYTE	W24
	BYTE		N96     En3   v072
	BYTE		N96     En4   v100
	BYTE		N06     Fs4   v056
	BYTE	W72
	BYTE	PEND
// 008   ----------------------------------------
	BYTE	W24
	BYTE		N48     En3   v072
	BYTE		N48     En4   v100
	BYTE	W48
	BYTE		N18     Fs3   v072
	BYTE		N06     En4   v056
	BYTE		N18     Fs4   v100
	BYTE	W18
	BYTE		        Gn3   v072
	BYTE		N06     Fs4   v056
	BYTE		N18     Gn4   v100
	BYTE	W06
// 009   ----------------------------------------
	BYTE	PATT
	 POIN2	EternalMind_1_001
// 010   ----------------------------------------
	BYTE	PATT
	 POIN2	EternalMind_1_002
// 011   ----------------------------------------
	BYTE	PATT
	 POIN2	EternalMind_1_003
// 012   ----------------------------------------
	BYTE	PATT
	 POIN2	EternalMind_1_004
// 013   ----------------------------------------
	BYTE	PATT
	 POIN2	EternalMind_1_005
// 014   ----------------------------------------
	BYTE	PATT
	 POIN2	EternalMind_1_006
// 015   ----------------------------------------
	BYTE	PATT
	 POIN2	EternalMind_1_007
// 016   ----------------------------------------
	BYTE	W24
	BYTE		N60     Bn3   v100
	BYTE		N06     En4   v056
	BYTE	W60
	BYTE		N12     An3   v100
	BYTE		N06     Bn3   v056
	BYTE	W12
// 017   ----------------------------------------
	BYTE		N12     Gn3   v100
	BYTE		N06     An3   v056
	BYTE	W12
	BYTE		N12     Fs3   v100
	BYTE		N06     Gn3   v056
	BYTE	W12
	BYTE		N36     En3   v100
	BYTE		N06     Fs3   v056
	BYTE	W36
	BYTE		        En3 
	BYTE		N36     Fs3   v100
	BYTE	W36
// 018   ----------------------------------------
	BYTE		N06     Fs3   v056
	BYTE		N24     Gn3   v100
	BYTE	W24
	BYTE		N06     Gn3   v056
	BYTE		N60     Bn3   v100
	BYTE	W60
	BYTE		N06     Bn3   v056
	BYTE		N12     Cn4   v100
	BYTE	W12
// 019   ----------------------------------------
	BYTE		        Bn3 
	BYTE		N06     Cn4   v056
	BYTE	W12
	BYTE		N12     An3   v100
	BYTE		N06     Bn3   v056
	BYTE	W12
	BYTE		        An3 
	BYTE		N48     Bn3   v100
	BYTE	W48
	BYTE		        En3 
	BYTE		N06     Bn3   v056
	BYTE	W24
// 020   ----------------------------------------
	BYTE	W24
	BYTE		N36     Dn2   v072
	BYTE		N36     Dn3   v100
	BYTE		N06     En3   v056
	BYTE	W36
	BYTE		        Dn2   v028
	BYTE		N36     Gn2   v072
	BYTE		N06     Dn3   v056
	BYTE		N36     Gn3   v100
	BYTE	W36
// 021   ----------------------------------------
	BYTE		N24     Dn3   v072
	BYTE		N06     Gn3   v056
	BYTE		N24     Dn4   v100
	BYTE	W24
	BYTE		N36     Cs3   v072
	BYTE		N36     Cs4   v100
	BYTE		N06     Dn4   v056
	BYTE	W36
	BYTE		N36     An2   v072
	BYTE		N60     An3   v100
	BYTE		N06     Cs4   v056
	BYTE	W36
// 022   ----------------------------------------
	BYTE		N24     En2   v072
	BYTE	W24
	BYTE		N36     As2 
	BYTE		N06     An3   v056
	BYTE		N36     As3   v100
	BYTE	W36
	BYTE		        Dn3   v072
	BYTE		N06     As3   v056
	BYTE		N36     Dn4   v100
	BYTE	W36
// 023   ----------------------------------------
	BYTE		N24     Fn3   v072
	BYTE		N06     Dn4   v056
	BYTE		N24     Fn4   v100
	BYTE	W24
	BYTE		N36     En3   v072
	BYTE		N36     En4   v100
	BYTE		N06     Fn4   v056
	BYTE	W36
	BYTE		N36     Cn3   v072
	BYTE		N60     Cn4   v100
	BYTE		N06     En4   v056
	BYTE	W36
// 024   ----------------------------------------
	BYTE		N24     Gn2   v072
	BYTE	W24
	BYTE		N36     Cn3 
	BYTE		N36     Cn4   v100
	BYTE	W36
	BYTE		        Ds3   v072
	BYTE		N06     Cn4   v028
	BYTE		N36     Ds4   v100
	BYTE	W36
// 025   ----------------------------------------
	BYTE		N24     Gs3   v072
	BYTE		N06     Ds4   v028
	BYTE		N24     Gs4   v100
	BYTE	W24
	BYTE		N36     Dn3   v072
	BYTE		N36     Dn4   v100
	BYTE		N06     Gs4   v028
	BYTE	W36
	BYTE		N36     Fn3   v072
	BYTE		N06     Dn4   v028
	BYTE		N36     Fn4   v100
	BYTE	W36
// 026   ----------------------------------------
	BYTE		N06     Fn3   v028
	BYTE		N24     As3   v072
	BYTE		N06     Fn4   v028
	BYTE		N24     As4   v100
	BYTE	W24
	BYTE		N84     Fn3   v072
	BYTE		N06     As3   v028
	BYTE		N84     Fn4   v100
	BYTE		N06     As4   v028
	BYTE	W72
// 027   ----------------------------------------
	BYTE	W12
	BYTE		        En3   v072
	BYTE		N06     Fn3   v028
	BYTE		N06     En4   v100
	BYTE		N06     Fn4   v028
	BYTE	W06
	BYTE		        En3 
	BYTE		N06     Fn3   v072
	BYTE		N06     En4   v028
	BYTE		N06     Fn4   v100
	BYTE	W06
	BYTE		N96     En3   v072
	BYTE		N06     Fn3   v028
	BYTE		N96     En4   v100
	BYTE		N06     Fn4   v028
	BYTE	W72
// 028   ----------------------------------------
	BYTE	W24
	BYTE		N48     An2   v100
	BYTE	W48
	BYTE		        En3 
	BYTE	W24
// 029   ----------------------------------------
	BYTE	W24
	BYTE		        Cn3 
	BYTE	W48
	BYTE		        Dn3 
	BYTE	W24
// 030   ----------------------------------------
	BYTE	W24
	BYTE		        En3 
	BYTE	W48
	BYTE		        Cn3 
	BYTE	W24
// 031   ----------------------------------------
	BYTE	W24
	BYTE		        Bn2 
	BYTE	W48
	BYTE		        Dn3 
	BYTE	W24
// 032   ----------------------------------------
EternalMind_1_032:
	BYTE	W24
	BYTE		N36     En3   v072
	BYTE		N36     An3   v100
	BYTE	W36
	BYTE		N06     En3   v056
	BYTE		N60     An3   v072
	BYTE		N60     En4   v100
	BYTE	W36
	BYTE	PEND
// 033   ----------------------------------------
EternalMind_1_033:
	BYTE	W24
	BYTE		N06     An3   v056
	BYTE		N18     Dn4   v072
	BYTE		N06     En4   v056
	BYTE		N18     Fs4   v100
	BYTE	W18
	BYTE		N06     Dn4   v056
	BYTE		N18     En4   v072
	BYTE		N06     Fs4   v056
	BYTE		N18     Gn4   v100
	BYTE	W18
	BYTE		N06     En4   v056
	BYTE		N12     Fs4   v072
	BYTE		N06     Gn4   v056
	BYTE		N12     An4   v100
	BYTE	W12
	BYTE		N18     Fs4   v072
	BYTE		N18     An4   v100
	BYTE	W18
	BYTE		        En4   v072
	BYTE		N06     Fs4   v056
	BYTE		N18     Gn4   v100
	BYTE		N06     An4   v056
	BYTE	W06
	BYTE	PEND
// 034   ----------------------------------------
EternalMind_1_034:
	BYTE	W12
	BYTE		N12     Dn4   v072
	BYTE		N06     En4   v056
	BYTE		N12     Fs4   v100
	BYTE		N06     Gn4   v056
	BYTE	W12
	BYTE		N36     Fn3   v072
	BYTE		N36     As3   v100
	BYTE		N06     Dn4   v056
	BYTE		N06     Fs4 
	BYTE	W36
	BYTE		        Fn3 
	BYTE		N36     As3   v072
	BYTE		N36     Dn4   v100
	BYTE	W36
	BYTE	PEND
// 035   ----------------------------------------
	BYTE		N06     As3   v056
	BYTE		N24     Dn4   v072
	BYTE		N24     Fn4   v100
	BYTE	W24
	BYTE		N48     Gn3   v072
	BYTE		N06     Dn4   v056
	BYTE		N48     En4   v100
	BYTE		N06     Fn4   v056
	BYTE	W48
	BYTE		N48     Fn3   v072
	BYTE		N06     Gn3   v056
	BYTE		N48     Cn4   v100
	BYTE		N06     En4   v056
	BYTE	W24
// 036   ----------------------------------------
	BYTE	PATT
	 POIN2	EternalMind_1_032
// 037   ----------------------------------------
	BYTE	PATT
	 POIN2	EternalMind_1_033
// 038   ----------------------------------------
	BYTE	PATT
	 POIN2	EternalMind_1_034
// 039   ----------------------------------------
	BYTE		N06     As3   v056
	BYTE		N24     Dn4   v072
	BYTE		N24     Fn4   v100
	BYTE	W24
	BYTE		N96     Cn4   v072
	BYTE		N06     Dn4   v056
	BYTE		N84     Fn4   v100
	BYTE	W72
// 040   ----------------------------------------
	BYTE	W12
	BYTE		N06     En4 
	BYTE		N06     Fn4   v056
	BYTE	W06
	BYTE		        En4 
	BYTE		N06     Fn4   v100
	BYTE	W06
	BYTE		N96     Gn3   v072
	BYTE		N06     Cn4   v056
	BYTE		N96     En4   v100
	BYTE		N06     Fn4   v056
	BYTE	W72
// 041   ----------------------------------------
	BYTE	W24
	BYTE	GoTo
	 POIN2	EternalMind_1_B1
EternalMind_1_B2:
	BYTE	FINE

//**************** Track 2 (Midi-Chn.2) ****************//

EternalMind_2:
	BYTE	KEYSH   EternalMind_key+0
// 000   ----------------------------------------
	BYTE		VOICE   41
	BYTE		PAN     c_v-26
	BYTE		VOL     51*EternalMind_mvl/mxv
	BYTE	W24
EternalMind_2_B1:
	BYTE		N48     En3   v100
	BYTE	W48
	BYTE		N06     En3   v056
	BYTE		N18     Fs3   v100
	BYTE	W18
	BYTE		N06     Fs3   v056
	BYTE		N18     Gn3   v100
	BYTE	W06
// 001   ----------------------------------------
	BYTE	W12
	BYTE		N06     Gn3   v056
	BYTE		N12     Bn3   v100
	BYTE	W12
	BYTE		N48     An3 
	BYTE		N06     Bn3   v056
	BYTE	W48
	BYTE		N24     Dn3   v100
	BYTE		N06     An3   v056
	BYTE	W24
// 002   ----------------------------------------
	BYTE		N24     Cn3   v100
	BYTE		N06     Dn3   v056
	BYTE	W24
	BYTE		N36     Bn2   v100
	BYTE		N06     Cn3   v056
	BYTE	W36
	BYTE		        Bn2 
	BYTE		N60     En3   v100
	BYTE	W36
// 003   ----------------------------------------
	BYTE	W24
	BYTE		N06     En3   v056
	BYTE		N36     Fs3   v100
	BYTE	W36
	BYTE		N06     Fs3   v056
	BYTE		N36     Gn3   v100
	BYTE	W36
// 004   ----------------------------------------
	BYTE		N06     Gn3   v056
	BYTE		N24     Bn3   v100
	BYTE	W24
	BYTE		N36     An3 
	BYTE		N06     Bn3   v056
	BYTE	W36
	BYTE		        Gn3   v100
	BYTE		N06     An3   v056
	BYTE	W06
	BYTE		        Fs3   v100
	BYTE		N06     Gn3   v056
	BYTE	W06
	BYTE		N24     Dn3   v100
	BYTE		N06     Fs3   v056
	BYTE	W24
// 005   ----------------------------------------
	BYTE		        Dn3 
	BYTE		N24     Fs3   v100
	BYTE	W24
	BYTE		N48     En3 
	BYTE		N06     Fs3   v056
	BYTE	W48
	BYTE		        En3 
	BYTE		N18     Fs3   v100
	BYTE	W18
	BYTE		N06     Fs3   v056
	BYTE		N18     Gn3   v100
	BYTE	W06
// 006   ----------------------------------------
	BYTE	W12
	BYTE		N06     Gn3   v056
	BYTE		N12     Bn3   v100
	BYTE	W12
	BYTE		N36     An3 
	BYTE		N06     Bn3   v056
	BYTE	W36
	BYTE		        Gn3   v100
	BYTE		N06     An3   v056
	BYTE	W06
	BYTE		        Fs3   v100
	BYTE		N06     Gn3   v056
	BYTE	W06
	BYTE		N24     Dn3   v100
	BYTE		N06     Fs3   v056
	BYTE	W24
// 007   ----------------------------------------
	BYTE		        Dn3 
	BYTE		N24     Fs3   v100
	BYTE	W24
	BYTE		N96     En3 
	BYTE		N06     Fs3   v056
	BYTE	W72
// 008   ----------------------------------------
	BYTE	W24
	BYTE		N48     En3   v100
	BYTE		N48     En4 
	BYTE	W48
	BYTE		N18     Fs3 
	BYTE		N06     En4   v056
	BYTE		N18     Fs4   v100
	BYTE	W18
	BYTE		        Gn3 
	BYTE		N06     Fs4   v056
	BYTE		N18     Gn4   v100
	BYTE	W06
// 009   ----------------------------------------
	BYTE	W12
	BYTE		N12     Bn3 
	BYTE		N06     Gn4   v056
	BYTE		N12     Bn4   v100
	BYTE	W12
	BYTE		N48     An3 
	BYTE		N48     An4 
	BYTE		N06     Bn4   v056
	BYTE	W48
	BYTE		N24     Dn3   v100
	BYTE		N24     Dn4 
	BYTE		N06     An4   v056
	BYTE	W24
// 010   ----------------------------------------
	BYTE		N24     Cn3   v100
	BYTE		N24     Cn4 
	BYTE		N06     Dn4   v056
	BYTE	W24
	BYTE		N36     Bn2   v100
	BYTE		N36     Bn3 
	BYTE		N06     Cn4   v056
	BYTE	W36
	BYTE		N60     En3   v100
	BYTE		N06     Bn3   v056
	BYTE		N60     En4   v100
	BYTE	W36
// 011   ----------------------------------------
	BYTE	W24
	BYTE		N36     Fs3 
	BYTE		N06     En4   v056
	BYTE		N36     Fs4   v100
	BYTE	W36
	BYTE		        Gn3 
	BYTE		N06     Fs4   v056
	BYTE		N36     Gn4   v100
	BYTE	W36
// 012   ----------------------------------------
	BYTE		N24     Bn3 
	BYTE		N06     Gn4   v056
	BYTE		N24     Bn4   v100
	BYTE	W24
	BYTE		N36     An3 
	BYTE		N36     An4 
	BYTE		N06     Bn4   v056
	BYTE	W36
	BYTE		        Gn3   v100
	BYTE		N06     Gn4 
	BYTE		N06     An4   v056
	BYTE	W06
	BYTE		        Fs3   v100
	BYTE		N06     Fs4 
	BYTE		N06     Gn4   v056
	BYTE	W06
	BYTE		N24     Dn3   v100
	BYTE		N24     Dn4 
	BYTE		N06     Fs4   v056
	BYTE	W24
// 013   ----------------------------------------
	BYTE		N24     Fs3   v100
	BYTE		N06     Dn4   v056
	BYTE		N24     Fs4   v100
	BYTE	W24
	BYTE		N48     En3 
	BYTE		N48     En4 
	BYTE		N06     Fs4   v056
	BYTE	W48
	BYTE		N18     Fs3   v100
	BYTE		N06     En4   v056
	BYTE		N18     Fs4   v100
	BYTE	W18
	BYTE		        Gn3 
	BYTE		N06     Fs4   v056
	BYTE		N18     Gn4   v100
	BYTE	W06
// 014   ----------------------------------------
	BYTE	W12
	BYTE		N12     Bn3 
	BYTE		N06     Gn4   v056
	BYTE		N12     Bn4   v100
	BYTE	W12
	BYTE		N36     An3 
	BYTE		N36     An4 
	BYTE		N06     Bn4   v056
	BYTE	W36
	BYTE		        Gn3   v100
	BYTE		N06     Gn4 
	BYTE		N06     An4   v056
	BYTE	W06
	BYTE		        Fs3   v100
	BYTE		N06     Fs4 
	BYTE		N06     Gn4   v056
	BYTE	W06
	BYTE		N24     Dn3   v100
	BYTE		N24     Dn4 
	BYTE		N06     Fs4   v056
	BYTE	W24
// 015   ----------------------------------------
	BYTE		N24     Fs3   v100
	BYTE		N06     Dn4   v056
	BYTE		N24     Fs4   v100
	BYTE	W24
	BYTE		N96     En3 
	BYTE		N96     En4 
	BYTE		N06     Fs4   v056
	BYTE	W72
// 016   ----------------------------------------
	BYTE	W24
	BYTE		N60     Bn3   v100
	BYTE		N06     En4   v056
	BYTE		N60     Bn4   v072
	BYTE	W60
	BYTE		N12     An3   v100
	BYTE		N06     Bn3   v056
	BYTE		N12     An4   v072
	BYTE		N06     Bn4   v056
	BYTE	W12
// 017   ----------------------------------------
	BYTE		N12     Gn3   v100
	BYTE		N06     An3   v056
	BYTE		N12     Gn4   v072
	BYTE		N06     An4   v056
	BYTE	W12
	BYTE		N12     Fs3   v100
	BYTE		N06     Gn3   v056
	BYTE		N12     Fs4   v072
	BYTE		N06     Gn4   v056
	BYTE	W12
	BYTE		N36     En3   v100
	BYTE		N06     Fs3   v056
	BYTE		N36     En4   v072
	BYTE		N06     Fs4   v056
	BYTE	W36
	BYTE		        En3 
	BYTE		N36     Fs3   v100
	BYTE		N06     En4   v056
	BYTE		N36     Fs4   v072
	BYTE	W36
// 018   ----------------------------------------
	BYTE		N06     Fs3   v056
	BYTE		N24     Gn3   v100
	BYTE		N06     Fs4   v056
	BYTE		N24     Gn4   v072
	BYTE	W24
	BYTE		N06     Gn3   v056
	BYTE		N60     Bn3   v100
	BYTE		N06     Gn4   v056
	BYTE		N60     Bn4   v072
	BYTE	W60
	BYTE		N06     Bn3   v056
	BYTE		N12     Cn4   v100
	BYTE		N06     Bn4   v056
	BYTE		N12     Cn5   v072
	BYTE	W12
// 019   ----------------------------------------
	BYTE		        Bn3   v100
	BYTE		N06     Cn4   v056
	BYTE		N12     Bn4   v072
	BYTE		N06     Cn5   v056
	BYTE	W12
	BYTE		N12     An3   v100
	BYTE		N06     Bn3   v056
	BYTE		N12     An4   v072
	BYTE		N06     Bn4   v056
	BYTE	W12
	BYTE		        An3 
	BYTE		N48     Bn3   v100
	BYTE		N06     An4   v056
	BYTE		N48     Bn4   v072
	BYTE	W48
	BYTE		        En3   v100
	BYTE		N06     Bn3   v056
	BYTE		N48     En4   v072
	BYTE		N06     Bn4   v056
	BYTE	W24
// 020   ----------------------------------------
	BYTE	W24
	BYTE		N36     Dn2   v072
	BYTE		N36     Dn3   v100
	BYTE		N06     En3   v056
	BYTE		N06     En4 
	BYTE	W36
	BYTE		        Dn2   v028
	BYTE		N36     Gn2   v072
	BYTE		N06     Dn3   v056
	BYTE		N36     Gn3   v100
	BYTE	W36
// 021   ----------------------------------------
	BYTE		N06     Gn2   v028
	BYTE		N24     Dn3   v072
	BYTE		N06     Gn3   v056
	BYTE		N24     Dn4   v100
	BYTE	W24
	BYTE		N36     Cs3   v072
	BYTE		N06     Dn3   v028
	BYTE		N36     Cs4   v100
	BYTE		N06     Dn4   v056
	BYTE	W36
	BYTE		N36     An2   v072
	BYTE		N06     Cs3   v028
	BYTE		N60     An3   v100
	BYTE		N06     Cs4   v056
	BYTE	W36
// 022   ----------------------------------------
	BYTE		N24     En2   v072
	BYTE		N06     An2   v028
	BYTE	W24
	BYTE		        En2 
	BYTE		N36     As2   v072
	BYTE		N06     An3   v056
	BYTE		N36     As3   v100
	BYTE	W36
	BYTE		N06     As2   v028
	BYTE		N36     Dn3   v072
	BYTE		N06     As3   v056
	BYTE		N36     Dn4   v100
	BYTE	W36
// 023   ----------------------------------------
	BYTE		N06     Dn3   v028
	BYTE		N24     Fn3   v072
	BYTE		N06     Dn4   v056
	BYTE		N24     Fn4   v100
	BYTE	W24
	BYTE		N36     En3   v072
	BYTE		N06     Fn3   v028
	BYTE		N36     En4   v100
	BYTE		N06     Fn4   v056
	BYTE	W36
	BYTE		N36     Cn3   v072
	BYTE		N06     En3   v028
	BYTE		N60     Cn4   v100
	BYTE		N06     En4   v056
	BYTE	W36
// 024   ----------------------------------------
	BYTE		N24     Gn2   v072
	BYTE		N06     Cn3   v028
	BYTE	W24
	BYTE		        Gn2 
	BYTE		N36     Cn3   v072
	BYTE		N36     Cn4   v100
	BYTE	W36
	BYTE		N06     Cn3   v028
	BYTE		N36     Ds3   v072
	BYTE		N06     Cn4   v028
	BYTE		N36     Ds4   v100
	BYTE	W36
// 025   ----------------------------------------
	BYTE		N06     Ds3   v028
	BYTE		N24     Gs3   v072
	BYTE		N06     Ds4   v028
	BYTE		N24     Gs4   v100
	BYTE	W24
	BYTE		N36     Dn3   v072
	BYTE		N06     Gs3   v028
	BYTE		N36     Dn4   v100
	BYTE		N06     Gs4   v028
	BYTE	W36
	BYTE		        Dn3 
	BYTE		N36     Fn3   v072
	BYTE		N06     Dn4   v028
	BYTE		N36     Fn4   v100
	BYTE	W36
// 026   ----------------------------------------
	BYTE		N06     Fn3   v028
	BYTE		N24     As3   v072
	BYTE		N06     Fn4   v028
	BYTE		N24     As4   v100
	BYTE	W24
	BYTE		N84     Fn3   v072
	BYTE		N06     As3   v028
	BYTE		N84     Fn4   v100
	BYTE		N06     As4   v028
	BYTE	W72
// 027   ----------------------------------------
	BYTE	W12
	BYTE		        En3   v072
	BYTE		N06     Fn3   v028
	BYTE		N06     En4   v100
	BYTE		N06     Fn4   v028
	BYTE	W06
	BYTE		        En3 
	BYTE		N06     Fn3   v072
	BYTE		N06     En4   v028
	BYTE		N06     Fn4   v100
	BYTE	W06
	BYTE		N96     En3   v072
	BYTE		N06     Fn3   v028
	BYTE		N96     En4   v100
	BYTE		N06     Fn4   v028
	BYTE	W72
// 028   ----------------------------------------
	BYTE	W24
	BYTE		N12     An3   v072
	BYTE		N12     Cn4   v100
	BYTE	W12
	BYTE		N06     An3   v056
	BYTE		N12     Bn3   v072
	BYTE		N06     Cn4   v056
	BYTE		N12     Dn4   v100
	BYTE	W12
	BYTE		N06     Bn3   v056
	BYTE		N12     Cn4   v072
	BYTE		N06     Dn4   v056
	BYTE		N12     En4   v100
	BYTE	W12
	BYTE		N06     Cn4   v056
	BYTE		N24     Dn4   v072
	BYTE		N06     En4   v056
	BYTE		N24     Fn4   v100
	BYTE	W24
	BYTE		N12     Cn4   v072
	BYTE		N06     Dn4   v056
	BYTE		N12     En4   v100
	BYTE		N06     Fn4   v056
	BYTE	W12
// 029   ----------------------------------------
	BYTE		N12     Bn3   v072
	BYTE		N06     Cn4   v056
	BYTE		N12     Dn4   v100
	BYTE		N06     En4   v056
	BYTE	W12
	BYTE		        Bn3 
	BYTE		N12     Cn4   v072
	BYTE		N06     Dn4   v056
	BYTE		N12     En4   v100
	BYTE	W12
	BYTE		N48     An3   v072
	BYTE		N48     Cn4   v100
	BYTE		N06     En4   v056
	BYTE	W48
	BYTE		N18     Gn3   v072
	BYTE		N06     An3   v056
	BYTE		N18     Bn3   v100
	BYTE		N06     Cn4   v056
	BYTE	W18
	BYTE		        Gn3 
	BYTE		N18     An3   v072
	BYTE		N06     Bn3   v056
	BYTE		N18     Cn4   v100
	BYTE	W06
// 030   ----------------------------------------
	BYTE	W12
	BYTE		N06     An3   v056
	BYTE		N12     Bn3   v072
	BYTE		N06     Cn4   v056
	BYTE		N12     Dn4   v100
	BYTE	W12
	BYTE		N18     Bn3 
	BYTE		N06     Dn4   v056
	BYTE	W18
	BYTE		N18     Gs3   v100
	BYTE		N06     Bn3   v056
	BYTE		N18     En4   v100
	BYTE	W18
	BYTE		N06     Gs3   v056
	BYTE		N12     Bn3   v100
	BYTE		N06     En4   v056
	BYTE		N12     Gs4   v100
	BYTE	W12
	BYTE		N06     Bn3   v056
	BYTE		N48     Cn4   v100
	BYTE		N06     Gs4   v056
	BYTE		N18     An4   v100
	BYTE	W18
	BYTE		        Gs4 
	BYTE		N06     An4   v056
	BYTE	W06
// 031   ----------------------------------------
	BYTE	W12
	BYTE		        Gs4 
	BYTE		N12     An4   v100
	BYTE	W12
	BYTE		N06     Cn4   v056
	BYTE		N18     Fn4   v100
	BYTE		N06     An4   v056
	BYTE		N18     Bn4   v100
	BYTE	W18
	BYTE		        Dn4 
	BYTE		N06     Fn4   v056
	BYTE		N18     Gs4   v100
	BYTE		N06     Bn4   v056
	BYTE	W18
	BYTE		N12     Bn3   v100
	BYTE		N06     Dn4   v056
	BYTE		N12     Fn4   v100
	BYTE		N06     Gs4   v056
	BYTE	W12
	BYTE		N18     Gs3   v100
	BYTE		N06     Bn3   v056
	BYTE		N18     Dn4   v100
	BYTE		N06     Fn4   v056
	BYTE	W18
	BYTE		N18     Fn3   v100
	BYTE		N06     Gs3   v056
	BYTE		N18     Bn3   v100
	BYTE		N06     Dn4   v056
	BYTE	W06
// 032   ----------------------------------------
	BYTE	W12
	BYTE		        Fn3 
	BYTE		N12     Gs3   v100
	BYTE		N06     Bn3   v056
	BYTE		N12     Dn4   v100
	BYTE	W12
	BYTE		N36     En3   v072
	BYTE		N06     Gs3   v056
	BYTE		N36     An3   v100
	BYTE		N06     Dn4   v056
	BYTE	W36
	BYTE		        En3 
	BYTE		N60     An3   v072
	BYTE		N60     En4   v100
	BYTE	W36
// 033   ----------------------------------------
EternalMind_2_033:
	BYTE	W24
	BYTE		N06     An3   v056
	BYTE		N18     Dn4   v072
	BYTE		N06     En4   v056
	BYTE		N18     Fs4   v100
	BYTE	W18
	BYTE		N06     Dn4   v056
	BYTE		N18     En4   v072
	BYTE		N06     Fs4   v056
	BYTE		N18     Gn4   v100
	BYTE	W18
	BYTE		N06     En4   v056
	BYTE		N12     Fs4   v072
	BYTE		N06     Gn4   v056
	BYTE		N12     An4   v100
	BYTE	W12
	BYTE		N18     Fs4   v072
	BYTE		N18     An4   v100
	BYTE	W18
	BYTE		        En4   v072
	BYTE		N06     Fs4   v056
	BYTE		N18     Gn4   v100
	BYTE		N06     An4   v056
	BYTE	W06
	BYTE	PEND
// 034   ----------------------------------------
EternalMind_2_034:
	BYTE	W12
	BYTE		N12     Dn4   v072
	BYTE		N06     En4   v056
	BYTE		N12     Fs4   v100
	BYTE		N06     Gn4   v056
	BYTE	W12
	BYTE		N36     Fn3   v072
	BYTE		N36     As3   v100
	BYTE		N06     Dn4   v056
	BYTE		N06     Fs4 
	BYTE	W36
	BYTE		        Fn3 
	BYTE		N36     As3   v072
	BYTE		N36     Dn4   v100
	BYTE	W36
	BYTE	PEND
// 035   ----------------------------------------
	BYTE		N06     As3   v056
	BYTE		N24     Dn4   v072
	BYTE		N24     Fn4   v100
	BYTE	W24
	BYTE		N48     Gn3   v072
	BYTE		N06     Dn4   v056
	BYTE		N48     En4   v100
	BYTE		N06     Fn4   v056
	BYTE	W48
	BYTE		N48     Fn3   v072
	BYTE		N06     Gn3   v056
	BYTE		N48     Cn4   v100
	BYTE		N06     En4   v056
	BYTE	W24
// 036   ----------------------------------------
	BYTE	W24
	BYTE		N36     En3   v072
	BYTE		N36     An3   v100
	BYTE	W36
	BYTE		N06     En3   v056
	BYTE		N60     An3   v072
	BYTE		N60     En4   v100
	BYTE	W36
// 037   ----------------------------------------
	BYTE	PATT
	 POIN2	EternalMind_2_033
// 038   ----------------------------------------
	BYTE	PATT
	 POIN2	EternalMind_2_034
// 039   ----------------------------------------
	BYTE		N06     As3   v056
	BYTE		N24     Dn4   v072
	BYTE		N24     Fn4   v100
	BYTE	W24
	BYTE		N96     Cn4   v072
	BYTE		N06     Dn4   v056
	BYTE		N84     Fn4   v100
	BYTE	W72
// 040   ----------------------------------------
	BYTE	W12
	BYTE		N06     En4 
	BYTE		N06     Fn4   v056
	BYTE	W06
	BYTE		        En4 
	BYTE		N06     Fn4   v100
	BYTE	W06
	BYTE		N96     Gn3   v072
	BYTE		N06     Cn4   v056
	BYTE		N96     En4   v100
	BYTE		N06     Fn4   v056
	BYTE	W72
// 041   ----------------------------------------
	BYTE	W24
	BYTE	GoTo
	 POIN2	EternalMind_2_B1
EternalMind_2_B2:
	BYTE	FINE

//**************** Track 3 (Midi-Chn.3) ****************//

EternalMind_3:
	BYTE	KEYSH   EternalMind_key+0
// 000   ----------------------------------------
	BYTE		VOICE   127
	BYTE		VOL     51*EternalMind_mvl/mxv
	BYTE		N06     Dn5   v127
	BYTE	W06
	BYTE		N06   
	BYTE	W06
	BYTE		N06   
	BYTE	W06
	BYTE		N06   
	BYTE	W06
EternalMind_3_B1:
	BYTE		N12     Cn1   v127
	BYTE		N72     Cs2   v100
	BYTE		N72     Gn2 
	BYTE		N72     An2   v072
	BYTE	W12
	BYTE		N12     As1   v100
	BYTE		N12     Dn5   v127
	BYTE	W12
	BYTE		N06     Cn1 
	BYTE	W06
	BYTE		N06   
	BYTE	W06
	BYTE		N12     As1   v100
	BYTE		N12     Dn5   v127
	BYTE	W12
	BYTE		N06     Cn1 
	BYTE	W06
	BYTE		N06   
	BYTE	W06
	BYTE		N12     As1   v100
	BYTE		N12     Dn5   v127
	BYTE	W06
	BYTE		N06     Cn1 
	BYTE	W06
// 001   ----------------------------------------
EternalMind_3_001:
	BYTE	W06
	BYTE		N12     Cn1   v127
	BYTE	W06
	BYTE		        As1   v100
	BYTE		N12     Dn5   v127
	BYTE	W12
	BYTE		        Cn1 
	BYTE	W12
	BYTE		        As1   v100
	BYTE		N12     Dn5   v127
	BYTE	W12
	BYTE		N06     Cn1 
	BYTE	W06
	BYTE		N06   
	BYTE	W06
	BYTE		N12     As1   v100
	BYTE		N12     Dn5   v127
	BYTE	W12
	BYTE		N06     Cn1 
	BYTE	W06
	BYTE		N06   
	BYTE	W06
	BYTE		N12     As1   v100
	BYTE		N12     Dn5   v127
	BYTE	W06
	BYTE		N06     Cn1 
	BYTE	W06
	BYTE	PEND
// 002   ----------------------------------------
EternalMind_3_002:
	BYTE	W06
	BYTE		N12     Cn1   v127
	BYTE	W06
	BYTE		        As1   v100
	BYTE		N06     Dn5   v127
	BYTE	W06
	BYTE		N06   
	BYTE	W06
	BYTE		N12     Cn1 
	BYTE	W12
	BYTE		        As1   v100
	BYTE		N12     Dn5   v127
	BYTE	W12
	BYTE		N06     Cn1 
	BYTE	W06
	BYTE		N06   
	BYTE	W06
	BYTE		N12     As1   v100
	BYTE		N12     Dn5   v127
	BYTE	W12
	BYTE		N06     Cn1 
	BYTE	W06
	BYTE		N06   
	BYTE	W06
	BYTE		N12     As1   v100
	BYTE		N12     Dn5   v127
	BYTE	W06
	BYTE		N06     Cn1 
	BYTE	W06
	BYTE	PEND
// 003   ----------------------------------------
	BYTE	PATT
	 POIN2	EternalMind_3_001
// 004   ----------------------------------------
EternalMind_3_004:
	BYTE	W06
	BYTE		N12     Cn1   v127
	BYTE	W06
	BYTE		        As1   v100
	BYTE		N12     Dn5   v127
	BYTE	W12
	BYTE		        Cn1 
	BYTE		N48     Cs2   v100
	BYTE		N48     Gn2 
	BYTE		N48     An2   v072
	BYTE	W12
	BYTE		N12     As1   v100
	BYTE		N12     Dn5   v127
	BYTE	W12
	BYTE		N06     Cn1 
	BYTE	W06
	BYTE		N06   
	BYTE	W06
	BYTE		N12     As1   v100
	BYTE		N12     Dn5   v127
	BYTE	W12
	BYTE		N06     Cn1 
	BYTE		N48     Cs2   v100
	BYTE		N48     Gn2 
	BYTE		N48     An2   v072
	BYTE	W06
	BYTE		N06     Cn1   v127
	BYTE	W06
	BYTE		N12     As1   v100
	BYTE		N12     Dn5   v127
	BYTE	W06
	BYTE		N06     Cn1 
	BYTE	W06
	BYTE	PEND
// 005   ----------------------------------------
EternalMind_3_005:
	BYTE	W06
	BYTE		N12     Cn1   v127
	BYTE	W06
	BYTE		        As1   v100
	BYTE		N12     Dn5   v127
	BYTE	W12
	BYTE		        Cn1 
	BYTE		N48     Cs2   v100
	BYTE		N48     Gn2 
	BYTE		N48     An2   v072
	BYTE	W12
	BYTE		N12     As1   v100
	BYTE		N12     Dn5   v127
	BYTE	W12
	BYTE		N06     Cn1 
	BYTE	W06
	BYTE		N06   
	BYTE	W06
	BYTE		N12     As1   v100
	BYTE		N12     Dn5   v127
	BYTE	W12
	BYTE		N06     Cn1 
	BYTE	W06
	BYTE		N06   
	BYTE	W06
	BYTE		N12     As1   v100
	BYTE		N12     Dn5   v127
	BYTE	W06
	BYTE		N06     Cn1 
	BYTE	W06
	BYTE	PEND
// 006   ----------------------------------------
EternalMind_3_006:
	BYTE	W06
	BYTE		N12     Cn1   v127
	BYTE	W06
	BYTE		        As1   v100
	BYTE		N06     Dn5   v127
	BYTE	W06
	BYTE		N06   
	BYTE	W06
	BYTE		N12     Cn1 
	BYTE		N48     Cs2   v100
	BYTE		N48     Gn2 
	BYTE		N48     An2   v072
	BYTE	W12
	BYTE		N12     As1   v100
	BYTE		N12     Dn5   v127
	BYTE	W12
	BYTE		N06     Cn1 
	BYTE	W06
	BYTE		N06   
	BYTE	W06
	BYTE		N12     As1   v100
	BYTE		N12     Dn5   v127
	BYTE	W12
	BYTE		N06     Cn1 
	BYTE		N48     Cs2   v100
	BYTE		N48     Gn2 
	BYTE		N48     An2   v072
	BYTE	W06
	BYTE		N06     Cn1   v127
	BYTE	W06
	BYTE		N12     As1   v100
	BYTE		N12     Dn5   v127
	BYTE	W06
	BYTE		N06     Cn1 
	BYTE	W06
	BYTE	PEND
// 007   ----------------------------------------
	BYTE	PATT
	 POIN2	EternalMind_3_005
// 008   ----------------------------------------
	BYTE		N06     Dn5   v127
	BYTE	W06
	BYTE		        Cn1 
	BYTE		N06     Dn5 
	BYTE	W06
	BYTE		N12     Cn1 
	BYTE		N12     As1   v100
	BYTE		N06     Dn5   v127
	BYTE	W06
	BYTE		N06   
	BYTE	W06
	BYTE		N12     Cn1 
	BYTE		N72     Cs2   v100
	BYTE		N72     Gn2 
	BYTE		N72     An2   v072
	BYTE	W12
	BYTE		N12     As1   v100
	BYTE		N12     Dn5   v127
	BYTE	W12
	BYTE		N06     Cn1 
	BYTE	W06
	BYTE		N06   
	BYTE	W06
	BYTE		N12     As1   v100
	BYTE		N12     Dn5   v127
	BYTE	W12
	BYTE		N06     Cn1 
	BYTE	W06
	BYTE		N06   
	BYTE	W06
	BYTE		N12     As1   v100
	BYTE		N12     Dn5   v127
	BYTE	W06
	BYTE		N06     Cn1 
	BYTE	W06
// 009   ----------------------------------------
	BYTE	PATT
	 POIN2	EternalMind_3_001
// 010   ----------------------------------------
	BYTE	PATT
	 POIN2	EternalMind_3_002
// 011   ----------------------------------------
	BYTE	PATT
	 POIN2	EternalMind_3_001
// 012   ----------------------------------------
	BYTE	PATT
	 POIN2	EternalMind_3_004
// 013   ----------------------------------------
	BYTE	PATT
	 POIN2	EternalMind_3_005
// 014   ----------------------------------------
	BYTE	PATT
	 POIN2	EternalMind_3_006
// 015   ----------------------------------------
	BYTE	PATT
	 POIN2	EternalMind_3_005
// 016   ----------------------------------------
	BYTE	W06
	BYTE		N06     Cn1   v127
	BYTE	W06
	BYTE		N12   
	BYTE		N12     As1   v100
	BYTE		N06     Dn5   v127
	BYTE	W06
	BYTE		N06   
	BYTE	W06
	BYTE		N72     Cs2   v100
	BYTE		N72     Gn2 
	BYTE		N72     An2   v072
	BYTE		N12     Dn5   v127
	BYTE	W12
	BYTE		        Cn1 
	BYTE	W12
	BYTE		        Dn5 
	BYTE	W12
	BYTE		        Cn1 
	BYTE	W12
	BYTE		        Dn5 
	BYTE	W12
	BYTE		        Cn1 
	BYTE	W12
// 017   ----------------------------------------
EternalMind_3_017:
	BYTE		N12     Dn5   v127
	BYTE	W12
	BYTE		        Cn1 
	BYTE	W12
	BYTE		        Dn5 
	BYTE	W12
	BYTE		        Cn1 
	BYTE	W12
	BYTE		        Dn5 
	BYTE	W12
	BYTE		        Cn1 
	BYTE	W12
	BYTE		        Dn5 
	BYTE	W12
	BYTE		        Cn1 
	BYTE	W12
	BYTE	PEND
// 018   ----------------------------------------
	BYTE		N06     Dn5 
	BYTE	W06
	BYTE		N06   
	BYTE	W06
	BYTE		N12     Cn1 
	BYTE	W12
	BYTE		        Dn5 
	BYTE	W12
	BYTE		        Cn1 
	BYTE	W12
	BYTE		        Dn5 
	BYTE	W12
	BYTE		        Cn1 
	BYTE	W12
	BYTE		        Dn5 
	BYTE	W12
	BYTE		        Cn1 
	BYTE	W12
// 019   ----------------------------------------
	BYTE	PATT
	 POIN2	EternalMind_3_017
// 020   ----------------------------------------
	BYTE		N06     Dn5   v127
	BYTE	W06
	BYTE		N06   
	BYTE	W06
	BYTE		N12     Cn1 
	BYTE	W12
	BYTE		N12   
	BYTE		N72     Cs2   v100
	BYTE		N72     Gn2 
	BYTE		N72     An2   v072
	BYTE	W12
	BYTE		N12     Cn1   v127
	BYTE	W12
	BYTE		        Dn5 
	BYTE	W12
	BYTE		N06     Cn1 
	BYTE	W06
	BYTE		N06   
	BYTE	W12
	BYTE		N12   
	BYTE	W12
	BYTE		N06   
	BYTE	W06
// 021   ----------------------------------------
EternalMind_3_021:
	BYTE		N06     Dn5   v127
	BYTE	W06
	BYTE		N12     Cn1 
	BYTE	W18
	BYTE		N12   
	BYTE	W12
	BYTE		N12   
	BYTE	W12
	BYTE		        Dn5 
	BYTE	W12
	BYTE		N06     Cn1 
	BYTE	W06
	BYTE		N06   
	BYTE	W12
	BYTE		N12   
	BYTE	W12
	BYTE		N06   
	BYTE	W06
	BYTE	PEND
// 022   ----------------------------------------
	BYTE		N12     Dn5 
	BYTE	W12
	BYTE		        Cn1 
	BYTE	W12
	BYTE		N12   
	BYTE	W12
	BYTE		N12   
	BYTE	W12
	BYTE		        Dn5 
	BYTE	W12
	BYTE		N06     Cn1 
	BYTE	W06
	BYTE		N06   
	BYTE	W12
	BYTE		N12   
	BYTE	W12
	BYTE		N06   
	BYTE	W06
// 023   ----------------------------------------
	BYTE	PATT
	 POIN2	EternalMind_3_021
// 024   ----------------------------------------
	BYTE		N06     Dn5   v127
	BYTE	W06
	BYTE		        Cn1 
	BYTE	W06
	BYTE		N06   
	BYTE	W06
	BYTE		        Dn5 
	BYTE	W06
	BYTE		N48     Cs2   v100
	BYTE		N48     Gn2 
	BYTE		N48     An2   v072
	BYTE		N12     Dn5   v127
	BYTE	W12
	BYTE		        Cn1 
	BYTE	W12
	BYTE		        Dn5 
	BYTE	W12
	BYTE		        Cn1 
	BYTE	W12
	BYTE		N48     Cs2   v100
	BYTE		N48     Gn2 
	BYTE		N48     An2   v072
	BYTE		N12     Dn5   v127
	BYTE	W12
	BYTE		        Cn1 
	BYTE	W12
// 025   ----------------------------------------
	BYTE		        Dn5 
	BYTE	W12
	BYTE		        Cn1 
	BYTE	W12
	BYTE		N48     Cs2   v100
	BYTE		N48     Gn2 
	BYTE		N48     An2   v072
	BYTE		N12     Dn5   v127
	BYTE	W12
	BYTE		        Cn1 
	BYTE	W12
	BYTE		N06     Dn5 
	BYTE	W06
	BYTE		N12   
	BYTE	W06
	BYTE		        Cn1 
	BYTE	W12
	BYTE		N48     Cs2   v100
	BYTE		N48     Gn2 
	BYTE		N48     An2   v072
	BYTE		N12     Dn5   v127
	BYTE	W12
	BYTE		        Cn1 
	BYTE	W12
// 026   ----------------------------------------
	BYTE		N06     Dn5 
	BYTE	W06
	BYTE		N12   
	BYTE	W06
	BYTE		        Cn1 
	BYTE	W12
	BYTE		N48     Cs2   v100
	BYTE		N48     Gn2 
	BYTE		N48     An2   v072
	BYTE		N12     Dn5   v127
	BYTE	W12
	BYTE		        Cn1 
	BYTE	W12
	BYTE		        Dn5 
	BYTE	W12
	BYTE		        Cn1 
	BYTE	W12
	BYTE		N48     Cs2   v100
	BYTE		N48     Gn2 
	BYTE		N48     An2   v072
	BYTE		N12     Dn5   v127
	BYTE	W12
	BYTE		        Cn1 
	BYTE	W12
// 027   ----------------------------------------
	BYTE		        Dn5 
	BYTE	W12
	BYTE		        Cn1 
	BYTE	W12
	BYTE		N48     Cs2   v100
	BYTE		N48     Gn2 
	BYTE		N48     An2   v072
	BYTE		N12     Dn5   v127
	BYTE	W12
	BYTE		        Cn1 
	BYTE	W12
	BYTE		        Dn5 
	BYTE	W12
	BYTE		        Cn1 
	BYTE	W12
	BYTE		N48     Cs2   v100
	BYTE		N48     Gn2 
	BYTE		N48     An2   v072
	BYTE		N12     Dn5   v127
	BYTE	W12
	BYTE		        Cn1 
	BYTE	W12
// 028   ----------------------------------------
	BYTE		N06     Dn5 
	BYTE	W06
	BYTE		N12   
	BYTE	W06
	BYTE		        Cn1 
	BYTE	W12
	BYTE		N12   
	BYTE		N72     Cs2   v100
	BYTE		N72     Gn2 
	BYTE		N72     An2   v072
	BYTE	W12
	BYTE		N12     As1   v100
	BYTE		N12     Dn5   v127
	BYTE	W12
	BYTE		N06     Cn1 
	BYTE	W06
	BYTE		N06   
	BYTE	W06
	BYTE		N12     As1   v100
	BYTE		N12     Dn5   v127
	BYTE	W12
	BYTE		N06     Cn1 
	BYTE	W06
	BYTE		N06   
	BYTE	W06
	BYTE		N12     As1   v100
	BYTE		N12     Dn5   v127
	BYTE	W06
	BYTE		N06     Cn1 
	BYTE	W06
// 029   ----------------------------------------
	BYTE	PATT
	 POIN2	EternalMind_3_004
// 030   ----------------------------------------
EternalMind_3_030:
	BYTE	W06
	BYTE		N12     Cn1   v127
	BYTE	W06
	BYTE		        As1   v100
	BYTE		N06     Dn5   v127
	BYTE	W06
	BYTE		N06   
	BYTE	W06
	BYTE		N12     Cn1 
	BYTE		N72     Cs2   v100
	BYTE		N72     Gn2 
	BYTE		N72     An2   v072
	BYTE	W12
	BYTE		N12     As1   v100
	BYTE		N12     Dn5   v127
	BYTE	W12
	BYTE		N06     Cn1 
	BYTE	W06
	BYTE		N06   
	BYTE	W06
	BYTE		N12     As1   v100
	BYTE		N12     Dn5   v127
	BYTE	W12
	BYTE		N06     Cn1 
	BYTE	W06
	BYTE		N06   
	BYTE	W06
	BYTE		N12     As1   v100
	BYTE		N12     Dn5   v127
	BYTE	W06
	BYTE		N06     Cn1 
	BYTE	W06
	BYTE	PEND
// 031   ----------------------------------------
	BYTE	W06
	BYTE		N12   
	BYTE	W06
	BYTE		        As1   v100
	BYTE		N12     Dn5   v127
	BYTE	W12
	BYTE		        Cn1 
	BYTE		N24     Cs2   v100
	BYTE		N24     Gn2 
	BYTE		N24     An2   v072
	BYTE	W12
	BYTE		N12     As1   v100
	BYTE		N12     Dn5   v127
	BYTE	W12
	BYTE		N06     Cn1 
	BYTE		N24     Cs2   v100
	BYTE		N24     Gn2 
	BYTE		N24     An2   v072
	BYTE	W06
	BYTE		N06     Cn1   v127
	BYTE	W06
	BYTE		N12     As1   v100
	BYTE		N12     Dn5   v127
	BYTE	W12
	BYTE		N06     Cn1 
	BYTE		N24     Cs2   v100
	BYTE		N24     Gn2 
	BYTE		N24     An2   v072
	BYTE	W06
	BYTE		N06     Cn1   v127
	BYTE	W06
	BYTE		N12     As1   v100
	BYTE		N12     Dn5   v127
	BYTE	W06
	BYTE		N06     Cn1 
	BYTE	W06
// 032   ----------------------------------------
	BYTE		N24     Cs2   v100
	BYTE		N24     Gn2 
	BYTE		N24     An2   v072
	BYTE	W06
	BYTE		N12     Cn1   v127
	BYTE	W06
	BYTE		        As1   v100
	BYTE		N12     Dn5   v127
	BYTE	W12
	BYTE		        Cn1 
	BYTE		N72     Cs2   v100
	BYTE		N72     Gn2 
	BYTE		N72     An2   v072
	BYTE	W12
	BYTE		N12     As1   v100
	BYTE		N12     Dn5   v127
	BYTE	W12
	BYTE		N06     Cn1 
	BYTE	W06
	BYTE		N06   
	BYTE	W06
	BYTE		N12     As1   v100
	BYTE		N12     Dn5   v127
	BYTE	W12
	BYTE		N06     Cn1 
	BYTE	W06
	BYTE		N06   
	BYTE	W06
	BYTE		N12     As1   v100
	BYTE		N12     Dn5   v127
	BYTE	W06
	BYTE		N06     Cn1 
	BYTE	W06
// 033   ----------------------------------------
	BYTE	PATT
	 POIN2	EternalMind_3_001
// 034   ----------------------------------------
	BYTE	PATT
	 POIN2	EternalMind_3_002
// 035   ----------------------------------------
	BYTE	PATT
	 POIN2	EternalMind_3_001
// 036   ----------------------------------------
	BYTE	PATT
	 POIN2	EternalMind_3_030
// 037   ----------------------------------------
	BYTE	PATT
	 POIN2	EternalMind_3_001
// 038   ----------------------------------------
	BYTE	PATT
	 POIN2	EternalMind_3_002
// 039   ----------------------------------------
	BYTE	W06
	BYTE		N12     Cn1   v127
	BYTE	W06
	BYTE		        As1   v100
	BYTE		N12     Dn5   v127
	BYTE	W12
	BYTE		        Cn1 
	BYTE		N24     Cs2   v100
	BYTE		N24     Gn2 
	BYTE		N24     An2   v072
	BYTE	W12
	BYTE		N12     As1   v100
	BYTE		N12     Dn5   v127
	BYTE	W12
	BYTE		N06     Cn1 
	BYTE		N24     Gn2 
	BYTE	W06
	BYTE		N06     Cn1 
	BYTE	W06
	BYTE		N12     As1   v100
	BYTE		N12     Dn5   v127
	BYTE	W12
	BYTE		N06     Cn1 
	BYTE		N24     Cs2   v100
	BYTE		N24     Gn2 
	BYTE		N24     An2   v072
	BYTE	W06
	BYTE		N06     Cn1   v127
	BYTE	W06
	BYTE		N12     As1   v100
	BYTE		N12     Dn5   v127
	BYTE	W06
	BYTE		N06     Cn1 
	BYTE	W06
// 040   ----------------------------------------
	BYTE		N24     Gn2 
	BYTE	W06
	BYTE		N12     Cn1 
	BYTE	W06
	BYTE		        As1   v100
	BYTE		N06     Dn5   v127
	BYTE	W06
	BYTE		N06   
	BYTE	W06
	BYTE		N12     Cn1 
	BYTE		N24     Cs2   v100
	BYTE		N24     Gn2 
	BYTE		N24     An2   v072
	BYTE	W12
	BYTE		N12     As1   v100
	BYTE		N12     Dn5   v127
	BYTE	W12
	BYTE		N06     Cn1 
	BYTE		N24     Gn2 
	BYTE	W06
	BYTE		N06     Cn1 
	BYTE	W06
	BYTE		N12     As1   v100
	BYTE		N12     Dn5   v127
	BYTE	W12
	BYTE		N06     Cn1 
	BYTE		N24     Cs2   v100
	BYTE		N24     Gn2 
	BYTE		N24     An2   v072
	BYTE	W06
	BYTE		N06     Cn1   v127
	BYTE	W06
	BYTE		N12     As1   v100
	BYTE		N12     Dn5   v127
	BYTE	W06
	BYTE		N06     Cn1 
	BYTE	W06
// 041   ----------------------------------------
	BYTE		N24     Gn2 
	BYTE	W06
	BYTE		N12     Cn1 
	BYTE	W06
	BYTE		        As1   v100
	BYTE		N06     Dn5   v127
	BYTE	W06
	BYTE		N06   
	BYTE	W06
	BYTE	GoTo
	 POIN2	EternalMind_3_B1
EternalMind_3_B2:
	BYTE	FINE

//**************** Track 4 (Midi-Chn.4) ****************//

EternalMind_4:
	BYTE	KEYSH   EternalMind_key+0
// 000   ----------------------------------------
	BYTE		VOICE   62
	BYTE		VOL     57*EternalMind_mvl/mxv
	BYTE	W24
EternalMind_4_B1:
	BYTE	W72
// 001   ----------------------------------------
	BYTE	W96
// 002   ----------------------------------------
	BYTE	W96
// 003   ----------------------------------------
	BYTE	W96
// 004   ----------------------------------------
	BYTE	W96
// 005   ----------------------------------------
	BYTE	W96
// 006   ----------------------------------------
	BYTE	W96
// 007   ----------------------------------------
	BYTE	W96
// 008   ----------------------------------------
	BYTE	W24
	BYTE		N08     En3   v100
	BYTE	W06
	BYTE		        Bn2 
	BYTE	W06
	BYTE		        En2 
	BYTE	W06
	BYTE		        Bn2 
	BYTE	W06
	BYTE		        En3 
	BYTE	W06
	BYTE		        Bn2 
	BYTE	W06
	BYTE		        En2 
	BYTE	W06
	BYTE		        Bn2 
	BYTE	W06
	BYTE		        En3 
	BYTE	W06
	BYTE		        Bn2 
	BYTE	W06
	BYTE		        En2 
	BYTE	W06
	BYTE		        Bn2 
	BYTE	W06
// 009   ----------------------------------------
	BYTE		        En3 
	BYTE	W06
	BYTE		        Bn2 
	BYTE	W06
	BYTE		        En2 
	BYTE	W06
	BYTE		        Bn2 
	BYTE	W06
	BYTE		        Dn3 
	BYTE	W06
	BYTE		        An2 
	BYTE	W06
	BYTE		        Dn2 
	BYTE	W06
	BYTE		        An2 
	BYTE	W06
	BYTE		        Dn3 
	BYTE	W06
	BYTE		        An3 
	BYTE	W06
	BYTE		        Dn3 
	BYTE	W06
	BYTE		        An2 
	BYTE	W06
	BYTE		        Dn3 
	BYTE	W06
	BYTE		        An2 
	BYTE	W06
	BYTE		        Dn2 
	BYTE	W06
	BYTE		        An2 
	BYTE	W06
// 010   ----------------------------------------
	BYTE		        Dn3 
	BYTE	W06
	BYTE		        An2 
	BYTE	W06
	BYTE		        Dn2 
	BYTE	W06
	BYTE		        An2 
	BYTE	W06
	BYTE		        En3 
	BYTE	W06
	BYTE		        Bn2 
	BYTE	W06
	BYTE		        En2 
	BYTE	W06
	BYTE		        Bn2 
	BYTE	W06
	BYTE		        En3 
	BYTE	W06
	BYTE		        En2 
	BYTE	W06
	BYTE		        Bn2 
	BYTE	W06
	BYTE		        En3 
	BYTE	W06
	BYTE		        En2 
	BYTE	W06
	BYTE		        Bn2 
	BYTE	W06
	BYTE		        En3 
	BYTE	W06
	BYTE		        En2 
	BYTE	W06
// 011   ----------------------------------------
	BYTE		        En3 
	BYTE	W06
	BYTE		        En2 
	BYTE	W06
	BYTE		        Bn2 
	BYTE	W06
	BYTE		N05     En3 
	BYTE	W06
	BYTE		N08   
	BYTE	W06
	BYTE		        En2 
	BYTE	W06
	BYTE		        Bn2 
	BYTE	W06
	BYTE		        En3 
	BYTE	W12
	BYTE		N08   
	BYTE	W06
	BYTE		        Bn2 
	BYTE	W06
	BYTE		        En3 
	BYTE	W06
	BYTE		        En2 
	BYTE	W06
	BYTE		        Bn2 
	BYTE	W06
	BYTE		        En3 
	BYTE	W06
	BYTE		        En2 
	BYTE	W06
// 012   ----------------------------------------
	BYTE		        En3 
	BYTE	W06
	BYTE		        Bn2 
	BYTE	W06
	BYTE		        En2 
	BYTE	W06
	BYTE		        Bn2 
	BYTE	W06
	BYTE		        An2 
	BYTE	W06
	BYTE		        En2 
	BYTE	W06
	BYTE		        An2 
	BYTE	W06
	BYTE		        En3 
	BYTE	W06
	BYTE		        En2 
	BYTE	W06
	BYTE		        An2 
	BYTE	W06
	BYTE		        En3 
	BYTE	W06
	BYTE		        En2 
	BYTE	W06
	BYTE		        Bn2 
	BYTE	W06
	BYTE		        Fs2 
	BYTE	W06
	BYTE		        Bn2 
	BYTE	W06
	BYTE		        Fs3 
	BYTE	W06
// 013   ----------------------------------------
	BYTE	W06
	BYTE		N08   
	BYTE	W06
	BYTE		        Bn2 
	BYTE	W06
	BYTE		        Fs2 
	BYTE	W06
	BYTE		        En3 
	BYTE	W06
	BYTE		        En2 
	BYTE	W06
	BYTE		        Bn2 
	BYTE	W06
	BYTE		        En3 
	BYTE	W06
	BYTE		        En2 
	BYTE	W06
	BYTE		        Bn2 
	BYTE	W06
	BYTE		        En3 
	BYTE	W06
	BYTE		        En2 
	BYTE	W06
	BYTE		        En3 
	BYTE	W06
	BYTE		        En2 
	BYTE	W06
	BYTE		        Bn2 
	BYTE	W06
	BYTE		        En3 
	BYTE	W06
// 014   ----------------------------------------
	BYTE		        En2 
	BYTE	W06
	BYTE		        Bn2 
	BYTE	W06
	BYTE		        En3 
	BYTE	W06
	BYTE		        En2 
	BYTE	W06
	BYTE		        En3 
	BYTE	W06
	BYTE		        En2 
	BYTE	W06
	BYTE		        An2 
	BYTE	W06
	BYTE		        En3 
	BYTE	W06
	BYTE		        En2 
	BYTE	W06
	BYTE		        An2 
	BYTE	W06
	BYTE		        En3 
	BYTE	W06
	BYTE		        En2 
	BYTE	W06
	BYTE		        Dn3 
	BYTE	W06
	BYTE		        Fs2 
	BYTE	W06
	BYTE		        Dn3 
	BYTE	W06
	BYTE		        Fs3 
	BYTE	W06
// 015   ----------------------------------------
	BYTE		        An3 
	BYTE	W06
	BYTE		        Fs3 
	BYTE	W06
	BYTE		        Dn3 
	BYTE	W06
	BYTE		        Fs2 
	BYTE	W06
	BYTE		        En3 
	BYTE	W06
	BYTE		        En2 
	BYTE	W06
	BYTE		        Bn2 
	BYTE	W06
	BYTE		        En3 
	BYTE	W06
	BYTE		        En2 
	BYTE	W06
	BYTE		        Bn2 
	BYTE	W06
	BYTE		        En3 
	BYTE	W06
	BYTE		        En2 
	BYTE	W06
	BYTE		        En3 
	BYTE	W06
	BYTE		        En2 
	BYTE	W06
	BYTE		        Bn2 
	BYTE	W06
	BYTE		        En3 
	BYTE	W06
// 016   ----------------------------------------
	BYTE		        En2 
	BYTE	W06
	BYTE		        Bn2 
	BYTE	W06
	BYTE		        En3 
	BYTE	W06
	BYTE		        En2 
	BYTE	W78
// 017   ----------------------------------------
	BYTE	W96
// 018   ----------------------------------------
	BYTE	W96
// 019   ----------------------------------------
	BYTE	W96
// 020   ----------------------------------------
	BYTE	W96
// 021   ----------------------------------------
	BYTE	W96
// 022   ----------------------------------------
	BYTE	W96
// 023   ----------------------------------------
	BYTE	W96
// 024   ----------------------------------------
	BYTE	W96
// 025   ----------------------------------------
	BYTE	W96
// 026   ----------------------------------------
	BYTE	W96
// 027   ----------------------------------------
	BYTE	W96
// 028   ----------------------------------------
	BYTE	W24
	BYTE		N48     An2 
	BYTE	W48
	BYTE		        En3 
	BYTE	W24
// 029   ----------------------------------------
	BYTE	W24
	BYTE		        Cn3 
	BYTE	W48
	BYTE		        Dn3 
	BYTE	W24
// 030   ----------------------------------------
	BYTE	W24
	BYTE		        En3 
	BYTE	W48
	BYTE		        Cn3 
	BYTE	W24
// 031   ----------------------------------------
	BYTE	W24
	BYTE		        Bn2 
	BYTE	W48
	BYTE		        Dn3 
	BYTE	W24
// 032   ----------------------------------------
	BYTE	W96
// 033   ----------------------------------------
	BYTE	W96
// 034   ----------------------------------------
	BYTE	W96
// 035   ----------------------------------------
	BYTE	W96
// 036   ----------------------------------------
	BYTE	W96
// 037   ----------------------------------------
	BYTE	W96
// 038   ----------------------------------------
	BYTE	W96
// 039   ----------------------------------------
	BYTE	W96
// 040   ----------------------------------------
	BYTE	W96
// 041   ----------------------------------------
	BYTE	W24
	BYTE	GoTo
	 POIN2	EternalMind_4_B1
EternalMind_4_B2:
	BYTE	FINE

//**************** Track 5 (Midi-Chn.5) ****************//

EternalMind_5:
	BYTE	KEYSH   EternalMind_key+0
// 000   ----------------------------------------
	BYTE		VOICE   34
	BYTE		VOL     57*EternalMind_mvl/mxv
	BYTE	W24
EternalMind_5_B1:
	BYTE		N05     En1   v100
	BYTE	W06
	BYTE		N05   
	BYTE	W06
	BYTE		        En2 
	BYTE	W06
	BYTE		        En1 
	BYTE	W06
	BYTE		N05   
	BYTE	W06
	BYTE		        En2 
	BYTE	W06
	BYTE		        Dn2 
	BYTE	W06
	BYTE		        En2 
	BYTE	W06
	BYTE		        En1 
	BYTE	W06
	BYTE		N05   
	BYTE	W06
	BYTE		        En2 
	BYTE	W06
	BYTE		        En1 
	BYTE	W06
// 001   ----------------------------------------
EternalMind_5_001:
	BYTE		N05     Dn2   v100
	BYTE	W06
	BYTE		        En1 
	BYTE	W06
	BYTE		N05   
	BYTE	W06
	BYTE		        En2 
	BYTE	W06
	BYTE		        Dn1 
	BYTE	W06
	BYTE		N05   
	BYTE	W06
	BYTE		        Dn2 
	BYTE	W06
	BYTE		        Dn1 
	BYTE	W06
	BYTE		        Cn2 
	BYTE	W06
	BYTE		        Dn1 
	BYTE	W06
	BYTE		        Dn2 
	BYTE	W06
	BYTE		        Dn1 
	BYTE	W06
	BYTE		        Dn2 
	BYTE	W06
	BYTE		        Dn1 
	BYTE	W06
	BYTE		        An1 
	BYTE	W06
	BYTE		        Dn2 
	BYTE	W06
	BYTE	PEND
// 002   ----------------------------------------
EternalMind_5_002:
	BYTE		N05     Dn1   v100
	BYTE	W06
	BYTE		        Dn2 
	BYTE	W06
	BYTE		        An1 
	BYTE	W06
	BYTE		        Dn2 
	BYTE	W06
	BYTE		        En1 
	BYTE	W06
	BYTE		N05   
	BYTE	W06
	BYTE		        En2 
	BYTE	W06
	BYTE		        En1 
	BYTE	W06
	BYTE		        Dn2 
	BYTE	W06
	BYTE		        En1 
	BYTE	W06
	BYTE		        En2 
	BYTE	W06
	BYTE		        En1 
	BYTE	W06
	BYTE		        En2 
	BYTE	W06
	BYTE		        En1 
	BYTE	W06
	BYTE		        Bn1 
	BYTE	W06
	BYTE		        En2 
	BYTE	W06
	BYTE	PEND
// 003   ----------------------------------------
EternalMind_5_003:
	BYTE		N05     En1   v100
	BYTE	W06
	BYTE		        Bn1 
	BYTE	W06
	BYTE		        En2 
	BYTE	W06
	BYTE		        En1 
	BYTE	W06
	BYTE		        En2 
	BYTE	W06
	BYTE		        En1 
	BYTE	W06
	BYTE		N05   
	BYTE	W06
	BYTE		        En2 
	BYTE	W06
	BYTE		        En1 
	BYTE	W06
	BYTE		N05   
	BYTE	W06
	BYTE		        Dn2 
	BYTE	W06
	BYTE		        En2 
	BYTE	W06
	BYTE		        En1 
	BYTE	W06
	BYTE		N05   
	BYTE	W06
	BYTE		        En2 
	BYTE	W06
	BYTE		        En1 
	BYTE	W06
	BYTE	PEND
// 004   ----------------------------------------
EternalMind_5_004:
	BYTE		N05     Dn2   v100
	BYTE	W06
	BYTE		        En1 
	BYTE	W06
	BYTE		        En2 
	BYTE	W06
	BYTE		        En1 
	BYTE	W06
	BYTE		        An1 
	BYTE	W06
	BYTE		N05   
	BYTE	W06
	BYTE		        An2 
	BYTE	W06
	BYTE		        An1 
	BYTE	W06
	BYTE		        Gn2 
	BYTE	W06
	BYTE		        An1 
	BYTE	W06
	BYTE		        An2 
	BYTE	W06
	BYTE		        An1 
	BYTE	W06
	BYTE		        Bn1 
	BYTE	W06
	BYTE		N05   
	BYTE	W06
	BYTE		        Bn2 
	BYTE	W06
	BYTE		        Bn1 
	BYTE	W06
	BYTE	PEND
// 005   ----------------------------------------
EternalMind_5_005:
	BYTE		N05     Fs2   v100
	BYTE	W06
	BYTE		        Bn2 
	BYTE	W06
	BYTE		        Bn1 
	BYTE	W06
	BYTE		        Bn2 
	BYTE	W06
	BYTE		        En1 
	BYTE	W06
	BYTE		N05   
	BYTE	W06
	BYTE		        En2 
	BYTE	W06
	BYTE		        En1 
	BYTE	W06
	BYTE		        Dn2 
	BYTE	W06
	BYTE		        En1 
	BYTE	W06
	BYTE		        En2 
	BYTE	W06
	BYTE		        En1 
	BYTE	W06
	BYTE		        En2 
	BYTE	W06
	BYTE		        En1 
	BYTE	W06
	BYTE		N05   
	BYTE	W06
	BYTE		        En2 
	BYTE	W06
	BYTE	PEND
// 006   ----------------------------------------
EternalMind_5_006:
	BYTE		N05     En1   v100
	BYTE	W06
	BYTE		N05   
	BYTE	W06
	BYTE		        Dn2 
	BYTE	W06
	BYTE		        En2 
	BYTE	W06
	BYTE		        An1 
	BYTE	W06
	BYTE		N05   
	BYTE	W06
	BYTE		        An2 
	BYTE	W06
	BYTE		        An1 
	BYTE	W06
	BYTE		        Gn2 
	BYTE	W06
	BYTE		        An1 
	BYTE	W06
	BYTE		        An2 
	BYTE	W06
	BYTE		        An1 
	BYTE	W06
	BYTE		        Dn1 
	BYTE	W06
	BYTE		        An1 
	BYTE	W06
	BYTE		        Dn2 
	BYTE	W06
	BYTE		        Dn1 
	BYTE	W06
	BYTE	PEND
// 007   ----------------------------------------
EternalMind_5_007:
	BYTE		N05     Dn2   v100
	BYTE	W06
	BYTE		        Dn1 
	BYTE	W06
	BYTE		        An1 
	BYTE	W06
	BYTE		        Dn2 
	BYTE	W06
	BYTE		        En1 
	BYTE	W06
	BYTE		N05   
	BYTE	W06
	BYTE		        En2 
	BYTE	W06
	BYTE		        En1 
	BYTE	W06
	BYTE		        Dn2 
	BYTE	W06
	BYTE		        En1 
	BYTE	W06
	BYTE		        En2 
	BYTE	W06
	BYTE		        En1 
	BYTE	W06
	BYTE		        En2 
	BYTE	W06
	BYTE		        En1 
	BYTE	W06
	BYTE		N05   
	BYTE	W06
	BYTE		        En2 
	BYTE	W06
	BYTE	PEND
// 008   ----------------------------------------
	BYTE		        En1 
	BYTE	W06
	BYTE		N05   
	BYTE	W06
	BYTE		        Dn2 
	BYTE	W06
	BYTE		        En2 
	BYTE	W06
	BYTE		        En1 
	BYTE	W06
	BYTE		N05   
	BYTE	W06
	BYTE		        En2 
	BYTE	W06
	BYTE		        En1 
	BYTE	W06
	BYTE		N05   
	BYTE	W06
	BYTE		        En2 
	BYTE	W06
	BYTE		        Dn2 
	BYTE	W06
	BYTE		        En2 
	BYTE	W06
	BYTE		        En1 
	BYTE	W06
	BYTE		N05   
	BYTE	W06
	BYTE		        En2 
	BYTE	W06
	BYTE		        En1 
	BYTE	W06
// 009   ----------------------------------------
	BYTE	PATT
	 POIN2	EternalMind_5_001
// 010   ----------------------------------------
	BYTE	PATT
	 POIN2	EternalMind_5_002
// 011   ----------------------------------------
	BYTE	PATT
	 POIN2	EternalMind_5_003
// 012   ----------------------------------------
	BYTE	PATT
	 POIN2	EternalMind_5_004
// 013   ----------------------------------------
	BYTE	PATT
	 POIN2	EternalMind_5_005
// 014   ----------------------------------------
	BYTE	PATT
	 POIN2	EternalMind_5_006
// 015   ----------------------------------------
	BYTE	PATT
	 POIN2	EternalMind_5_007
// 016   ----------------------------------------
	BYTE		N05     En1   v100
	BYTE	W06
	BYTE		N05   
	BYTE	W06
	BYTE		        Dn2 
	BYTE	W06
	BYTE		        En2 
	BYTE	W06
	BYTE		N11     Cn2 
	BYTE	W12
	BYTE		        Gn1 
	BYTE	W12
	BYTE		        Cn2 
	BYTE	W12
	BYTE		        Gn1 
	BYTE	W12
	BYTE		        Cn2 
	BYTE	W12
	BYTE		        Gn1 
	BYTE	W12
// 017   ----------------------------------------
	BYTE		        Cn2 
	BYTE	W12
	BYTE		        Gn1 
	BYTE	W12
	BYTE		        Cn2 
	BYTE	W12
	BYTE		        Gn1 
	BYTE	W12
	BYTE		        Cn2 
	BYTE	W12
	BYTE		        Gn1 
	BYTE	W12
	BYTE		        Cn2 
	BYTE	W12
	BYTE		        Gn1 
	BYTE	W12
// 018   ----------------------------------------
	BYTE		        Cn2 
	BYTE	W12
	BYTE		        Gn1 
	BYTE	W12
	BYTE		        An1 
	BYTE	W12
	BYTE		        An2 
	BYTE	W12
	BYTE		        An1 
	BYTE	W12
	BYTE		        An2 
	BYTE	W12
	BYTE		        An1 
	BYTE	W12
	BYTE		        An2 
	BYTE	W12
// 019   ----------------------------------------
	BYTE		        An1 
	BYTE	W12
	BYTE		        An2 
	BYTE	W12
	BYTE		        An1 
	BYTE	W12
	BYTE		        An2 
	BYTE	W12
	BYTE		        An1 
	BYTE	W12
	BYTE		        An2 
	BYTE	W12
	BYTE		        An1 
	BYTE	W12
	BYTE		        An2 
	BYTE	W12
// 020   ----------------------------------------
	BYTE		        An1 
	BYTE	W12
	BYTE		        An2 
	BYTE	W12
	BYTE		        Gn1 
	BYTE	W12
	BYTE		N11   
	BYTE	W12
	BYTE		        Gn2 
	BYTE	W12
	BYTE		N05     Gn1 
	BYTE	W06
	BYTE		N11   
	BYTE	W12
	BYTE		N11   
	BYTE	W12
	BYTE		N05   
	BYTE	W06
// 021   ----------------------------------------
EternalMind_5_021:
	BYTE		N05     Gn2   v100
	BYTE	W06
	BYTE		        Gn1 
	BYTE	W06
	BYTE		        Gn2 
	BYTE	W06
	BYTE		        Gn1 
	BYTE	W06
	BYTE		N11   
	BYTE	W12
	BYTE		N11   
	BYTE	W12
	BYTE		        Gn2 
	BYTE	W12
	BYTE		N05     Gn1 
	BYTE	W06
	BYTE		N11   
	BYTE	W12
	BYTE		N11   
	BYTE	W12
	BYTE		N05   
	BYTE	W06
	BYTE	PEND
// 022   ----------------------------------------
	BYTE	PATT
	 POIN2	EternalMind_5_021
// 023   ----------------------------------------
	BYTE	PATT
	 POIN2	EternalMind_5_021
// 024   ----------------------------------------
	BYTE		N05     Gn2   v100
	BYTE	W06
	BYTE		        Gn1 
	BYTE	W06
	BYTE		        Gn2 
	BYTE	W06
	BYTE		        Gn1 
	BYTE	W06
	BYTE		N11     Gs1 
	BYTE	W12
	BYTE		        Gs2 
	BYTE	W12
	BYTE		        Gs1 
	BYTE	W12
	BYTE		        Gs2 
	BYTE	W12
	BYTE		        Gs1 
	BYTE	W12
	BYTE		        Gs2 
	BYTE	W12
// 025   ----------------------------------------
	BYTE		        Gs1 
	BYTE	W12
	BYTE		        Gs2 
	BYTE	W12
	BYTE		        As1 
	BYTE	W12
	BYTE		        As2 
	BYTE	W12
	BYTE		        As1 
	BYTE	W12
	BYTE		        As2 
	BYTE	W12
	BYTE		        As1 
	BYTE	W12
	BYTE		        As2 
	BYTE	W12
// 026   ----------------------------------------
	BYTE		        As1 
	BYTE	W12
	BYTE		        As2 
	BYTE	W12
	BYTE		N05     Cn2 
	BYTE	W06
	BYTE		N05   
	BYTE	W06
	BYTE		        Cn3 
	BYTE	W06
	BYTE		        Cn2 
	BYTE	W06
	BYTE		        As2 
	BYTE	W06
	BYTE		        Cn2 
	BYTE	W06
	BYTE		        Cn3 
	BYTE	W06
	BYTE		        Cn2 
	BYTE	W06
	BYTE		        Cn3 
	BYTE	W06
	BYTE		        Cn2 
	BYTE	W06
	BYTE		N05   
	BYTE	W06
	BYTE		        Cn3 
	BYTE	W06
// 027   ----------------------------------------
	BYTE		        Cn2 
	BYTE	W06
	BYTE		N05   
	BYTE	W06
	BYTE		        As2 
	BYTE	W06
	BYTE		        Cn3 
	BYTE	W06
	BYTE		        Cn2 
	BYTE	W06
	BYTE		N05   
	BYTE	W06
	BYTE		        Cn3 
	BYTE	W06
	BYTE		        Cn2 
	BYTE	W06
	BYTE		        As2 
	BYTE	W06
	BYTE		        Cn2 
	BYTE	W06
	BYTE		        Cn3 
	BYTE	W06
	BYTE		        Cn2 
	BYTE	W06
	BYTE		        Cn3 
	BYTE	W06
	BYTE		        Cn2 
	BYTE	W06
	BYTE		        Gn2 
	BYTE	W06
	BYTE		        Cn3 
	BYTE	W06
// 028   ----------------------------------------
	BYTE		        Cn2 
	BYTE	W06
	BYTE		        Cn3 
	BYTE	W06
	BYTE		        Gn2 
	BYTE	W06
	BYTE		        Cn3 
	BYTE	W06
	BYTE		N11     An1 
	BYTE	W12
	BYTE		N11   
	BYTE	W12
	BYTE		N05     Gn1 
	BYTE	W06
	BYTE		N11     An1 
	BYTE	W12
	BYTE		N11   
	BYTE	W12
	BYTE		N11   
	BYTE	W12
	BYTE		N05   
	BYTE	W06
// 029   ----------------------------------------
	BYTE		N11     Gn1 
	BYTE	W12
	BYTE		        An1 
	BYTE	W12
	BYTE		N05     Fn1 
	BYTE	W06
	BYTE		N05   
	BYTE	W06
	BYTE		        Fn2 
	BYTE	W06
	BYTE		        Fn1 
	BYTE	W06
	BYTE		        Cn2 
	BYTE	W06
	BYTE		        Fn2 
	BYTE	W06
	BYTE		        Fn1 
	BYTE	W06
	BYTE		        Fn2 
	BYTE	W06
	BYTE		        Gn1 
	BYTE	W06
	BYTE		N05   
	BYTE	W06
	BYTE		        Gn2 
	BYTE	W06
	BYTE		        Gn1 
	BYTE	W06
// 030   ----------------------------------------
	BYTE		        Dn2 
	BYTE	W06
	BYTE		        Gn2 
	BYTE	W06
	BYTE		        Gn1 
	BYTE	W06
	BYTE		        Gn2 
	BYTE	W06
	BYTE		        Gs1 
	BYTE	W06
	BYTE		N05   
	BYTE	W06
	BYTE		        Gs2 
	BYTE	W06
	BYTE		        Gs1 
	BYTE	W06
	BYTE		N05   
	BYTE	W06
	BYTE		        Gs2 
	BYTE	W06
	BYTE		        Gs1 
	BYTE	W06
	BYTE		N05   
	BYTE	W06
	BYTE		        An1 
	BYTE	W06
	BYTE		N05   
	BYTE	W06
	BYTE		        An2 
	BYTE	W06
	BYTE		        An1 
	BYTE	W06
// 031   ----------------------------------------
	BYTE		N05   
	BYTE	W06
	BYTE		        An2 
	BYTE	W06
	BYTE		        An1 
	BYTE	W06
	BYTE		N05   
	BYTE	W06
	BYTE		        Fn1 
	BYTE	W06
	BYTE		N05   
	BYTE	W06
	BYTE		        Fn2 
	BYTE	W06
	BYTE		        Fn1 
	BYTE	W06
	BYTE		N05   
	BYTE	W06
	BYTE		        Fn2 
	BYTE	W06
	BYTE		        Fn1 
	BYTE	W06
	BYTE		N05   
	BYTE	W06
	BYTE		        Gs1 
	BYTE	W06
	BYTE		        Bn1 
	BYTE	W06
	BYTE		        Dn2 
	BYTE	W06
	BYTE		        Fn2 
	BYTE	W06
// 032   ----------------------------------------
	BYTE		        Gs2 
	BYTE	W06
	BYTE		        Bn2 
	BYTE	W06
	BYTE		        Dn3 
	BYTE	W06
	BYTE		        Gs2 
	BYTE	W06
	BYTE		        An1 
	BYTE	W06
	BYTE		N05   
	BYTE	W06
	BYTE		        An2 
	BYTE	W06
	BYTE		        An1 
	BYTE	W06
	BYTE		        Gn2 
	BYTE	W06
	BYTE		        An1 
	BYTE	W06
	BYTE		        An2 
	BYTE	W06
	BYTE		        An1 
	BYTE	W06
	BYTE		        An2 
	BYTE	W06
	BYTE		        An1 
	BYTE	W06
	BYTE		N05   
	BYTE	W06
	BYTE		        An2 
	BYTE	W06
// 033   ----------------------------------------
EternalMind_5_033:
	BYTE		N05     An1   v100
	BYTE	W06
	BYTE		N05   
	BYTE	W06
	BYTE		        Gn2 
	BYTE	W06
	BYTE		        An2 
	BYTE	W06
	BYTE		        Dn1 
	BYTE	W06
	BYTE		N05   
	BYTE	W06
	BYTE		        Dn2 
	BYTE	W06
	BYTE		        Dn1 
	BYTE	W06
	BYTE		        Cn2 
	BYTE	W06
	BYTE		        Dn1 
	BYTE	W06
	BYTE		        Dn2 
	BYTE	W06
	BYTE		        Dn1 
	BYTE	W06
	BYTE		        Dn2 
	BYTE	W06
	BYTE		        Dn1 
	BYTE	W06
	BYTE		N05   
	BYTE	W06
	BYTE		        Dn2 
	BYTE	W06
	BYTE	PEND
// 034   ----------------------------------------
EternalMind_5_034:
	BYTE		N05     Dn1   v100
	BYTE	W06
	BYTE		        An1 
	BYTE	W06
	BYTE		        Dn2 
	BYTE	W06
	BYTE		        Dn1 
	BYTE	W06
	BYTE		        As1 
	BYTE	W06
	BYTE		N05   
	BYTE	W06
	BYTE		        As2 
	BYTE	W06
	BYTE		        As1 
	BYTE	W06
	BYTE		        As2 
	BYTE	W06
	BYTE		        As1 
	BYTE	W06
	BYTE		        Fn2 
	BYTE	W06
	BYTE		        As2 
	BYTE	W06
	BYTE		        As1 
	BYTE	W06
	BYTE		N05   
	BYTE	W06
	BYTE		        As2 
	BYTE	W06
	BYTE		        As1 
	BYTE	W06
	BYTE	PEND
// 035   ----------------------------------------
EternalMind_5_035:
	BYTE		N05     Fn2   v100
	BYTE	W06
	BYTE		        As2 
	BYTE	W06
	BYTE		        As1 
	BYTE	W06
	BYTE		        As2 
	BYTE	W06
	BYTE		        Cn2 
	BYTE	W06
	BYTE		N05   
	BYTE	W06
	BYTE		        Cn3 
	BYTE	W06
	BYTE		        Cn2 
	BYTE	W06
	BYTE		        As2 
	BYTE	W06
	BYTE		        Cn2 
	BYTE	W06
	BYTE		        Cn3 
	BYTE	W06
	BYTE		        Cn2 
	BYTE	W06
	BYTE		        Cn3 
	BYTE	W06
	BYTE		        Cn2 
	BYTE	W06
	BYTE		N05   
	BYTE	W06
	BYTE		        Cn3 
	BYTE	W06
	BYTE	PEND
// 036   ----------------------------------------
	BYTE		        Cn2 
	BYTE	W06
	BYTE		N05   
	BYTE	W06
	BYTE		        As2 
	BYTE	W06
	BYTE		        Cn3 
	BYTE	W06
	BYTE		        An1 
	BYTE	W06
	BYTE		N05   
	BYTE	W06
	BYTE		        An2 
	BYTE	W06
	BYTE		        An1 
	BYTE	W06
	BYTE		        Gn2 
	BYTE	W06
	BYTE		        An1 
	BYTE	W06
	BYTE		        An2 
	BYTE	W06
	BYTE		        An1 
	BYTE	W06
	BYTE		        An2 
	BYTE	W06
	BYTE		        An1 
	BYTE	W06
	BYTE		N05   
	BYTE	W06
	BYTE		        An2 
	BYTE	W06
// 037   ----------------------------------------
	BYTE	PATT
	 POIN2	EternalMind_5_033
// 038   ----------------------------------------
	BYTE	PATT
	 POIN2	EternalMind_5_034
// 039   ----------------------------------------
	BYTE	PATT
	 POIN2	EternalMind_5_035
// 040   ----------------------------------------
	BYTE		N05     Cn2   v100
	BYTE	W06
	BYTE		N05   
	BYTE	W06
	BYTE		        As2 
	BYTE	W06
	BYTE		        Cn3 
	BYTE	W06
	BYTE		        Cn2 
	BYTE	W06
	BYTE		N05   
	BYTE	W06
	BYTE		        Cn3 
	BYTE	W06
	BYTE		        Cn2 
	BYTE	W06
	BYTE		        As2 
	BYTE	W06
	BYTE		        Cn2 
	BYTE	W06
	BYTE		        Cn3 
	BYTE	W06
	BYTE		        Cn2 
	BYTE	W06
	BYTE		        Cn3 
	BYTE	W06
	BYTE		        Cn2 
	BYTE	W06
	BYTE		N05   
	BYTE	W06
	BYTE		        Cn3 
	BYTE	W06
// 041   ----------------------------------------
	BYTE		        Cn2 
	BYTE	W06
	BYTE		N05   
	BYTE	W06
	BYTE		        As2 
	BYTE	W06
	BYTE		        Cn3 
	BYTE	W06
	BYTE	GoTo
	 POIN2	EternalMind_5_B1
EternalMind_5_B2:
	BYTE	FINE

//**************** Track 6 (Midi-Chn.6) ****************//

EternalMind_6:
	BYTE	KEYSH   EternalMind_key+0
// 000   ----------------------------------------
	BYTE		VOICE   57
	BYTE		VOL     57*EternalMind_mvl/mxv
	BYTE		PAN     c_v-26
	BYTE	W24
EternalMind_6_B1:
	BYTE	W72
// 001   ----------------------------------------
	BYTE	W96
// 002   ----------------------------------------
	BYTE	W96
// 003   ----------------------------------------
	BYTE	W96
// 004   ----------------------------------------
	BYTE	W96
// 005   ----------------------------------------
	BYTE	W96
// 006   ----------------------------------------
	BYTE	W96
// 007   ----------------------------------------
	BYTE	W96
// 008   ----------------------------------------
	BYTE	W96
// 009   ----------------------------------------
	BYTE	W96
// 010   ----------------------------------------
	BYTE	W96
// 011   ----------------------------------------
	BYTE	W96
// 012   ----------------------------------------
	BYTE	W96
// 013   ----------------------------------------
	BYTE	W96
// 014   ----------------------------------------
	BYTE	W96
// 015   ----------------------------------------
	BYTE	W96
// 016   ----------------------------------------
	BYTE	W96
// 017   ----------------------------------------
	BYTE	W96
// 018   ----------------------------------------
	BYTE	W96
// 019   ----------------------------------------
	BYTE	W96
// 020   ----------------------------------------
	BYTE	W96
// 021   ----------------------------------------
	BYTE	W96
// 022   ----------------------------------------
	BYTE	W96
// 023   ----------------------------------------
	BYTE	W96
// 024   ----------------------------------------
	BYTE	W96
// 025   ----------------------------------------
	BYTE	W96
// 026   ----------------------------------------
	BYTE	W96
// 027   ----------------------------------------
	BYTE	W96
// 028   ----------------------------------------
	BYTE	W96
// 029   ----------------------------------------
	BYTE	W96
// 030   ----------------------------------------
	BYTE	W96
// 031   ----------------------------------------
	BYTE	W96
// 032   ----------------------------------------
EternalMind_6_032:
	BYTE	W24
	BYTE		N06     En4   v100
	BYTE	W06
	BYTE		        En4   v056
	BYTE	W06
	BYTE		        En4   v100
	BYTE	W06
	BYTE		        En4   v056
	BYTE	W18
	BYTE		        En4   v100
	BYTE	W06
	BYTE		N06   
	BYTE	W06
	BYTE		N06   
	BYTE	W06
	BYTE		        En4   v056
	BYTE	W06
	BYTE		        En4   v100
	BYTE	W06
	BYTE		        En4   v056
	BYTE	W06
	BYTE	PEND
// 033   ----------------------------------------
	BYTE	W96
// 034   ----------------------------------------
EternalMind_6_034:
	BYTE	W24
	BYTE		N06     As3   v100
	BYTE	W06
	BYTE		        As3   v056
	BYTE	W06
	BYTE		        As3   v100
	BYTE	W06
	BYTE		        As3   v056
	BYTE	W18
	BYTE		        As3   v100
	BYTE	W06
	BYTE		N06   
	BYTE	W06
	BYTE		N06   
	BYTE	W06
	BYTE		        As3   v056
	BYTE	W06
	BYTE		        As3   v100
	BYTE	W06
	BYTE		        As3   v056
	BYTE	W06
	BYTE	PEND
// 035   ----------------------------------------
	BYTE	W96
// 036   ----------------------------------------
	BYTE	PATT
	 POIN2	EternalMind_6_032
// 037   ----------------------------------------
	BYTE	W96
// 038   ----------------------------------------
	BYTE	PATT
	 POIN2	EternalMind_6_034
// 039   ----------------------------------------
	BYTE	W96
// 040   ----------------------------------------
	BYTE	W24
	BYTE		N06     Cn4   v100
	BYTE	W06
	BYTE		        Cn4   v056
	BYTE	W06
	BYTE		        Cn4   v100
	BYTE	W06
	BYTE		        Cn4   v056
	BYTE	W18
	BYTE		        Cn4   v100
	BYTE	W06
	BYTE		N06   
	BYTE	W06
	BYTE		N06   
	BYTE	W06
	BYTE		        Cn4   v056
	BYTE	W06
	BYTE		        Cn4   v100
	BYTE	W06
	BYTE		        Cn4   v056
	BYTE	W06
// 041   ----------------------------------------
	BYTE	W24
	BYTE	GoTo
	 POIN2	EternalMind_6_B1
EternalMind_6_B2:
	BYTE	FINE

//**************** Track 7 (Midi-Chn.7) ****************//

EternalMind_7:
	BYTE	KEYSH   EternalMind_key+0
// 000   ----------------------------------------
	BYTE		VOICE   57
	BYTE		VOL     57*EternalMind_mvl/mxv
	BYTE		PAN     c_v+26
	BYTE	W24
EternalMind_7_B1:
	BYTE	W72
// 001   ----------------------------------------
	BYTE	W96
// 002   ----------------------------------------
	BYTE	W96
// 003   ----------------------------------------
	BYTE	W96
// 004   ----------------------------------------
	BYTE	W96
// 005   ----------------------------------------
	BYTE	W96
// 006   ----------------------------------------
	BYTE	W96
// 007   ----------------------------------------
	BYTE	W96
// 008   ----------------------------------------
	BYTE	W96
// 009   ----------------------------------------
	BYTE	W96
// 010   ----------------------------------------
	BYTE	W96
// 011   ----------------------------------------
	BYTE	W96
// 012   ----------------------------------------
	BYTE	W96
// 013   ----------------------------------------
	BYTE	W96
// 014   ----------------------------------------
	BYTE	W96
// 015   ----------------------------------------
	BYTE	W96
// 016   ----------------------------------------
	BYTE	W96
// 017   ----------------------------------------
	BYTE	W96
// 018   ----------------------------------------
	BYTE	W96
// 019   ----------------------------------------
	BYTE	W96
// 020   ----------------------------------------
	BYTE	W96
// 021   ----------------------------------------
	BYTE	W96
// 022   ----------------------------------------
	BYTE	W96
// 023   ----------------------------------------
	BYTE	W96
// 024   ----------------------------------------
	BYTE	W96
// 025   ----------------------------------------
	BYTE	W96
// 026   ----------------------------------------
	BYTE	W96
// 027   ----------------------------------------
	BYTE	W96
// 028   ----------------------------------------
	BYTE	W96
// 029   ----------------------------------------
	BYTE	W96
// 030   ----------------------------------------
	BYTE	W96
// 031   ----------------------------------------
	BYTE	W96
// 032   ----------------------------------------
	BYTE	W96
// 033   ----------------------------------------
EternalMind_7_033:
	BYTE	W24
	BYTE		N06     Dn4   v100
	BYTE	W06
	BYTE		        Dn4   v056
	BYTE	W06
	BYTE		        Dn4   v100
	BYTE	W06
	BYTE		        Dn4   v056
	BYTE	W18
	BYTE		        Dn4   v100
	BYTE	W06
	BYTE		N06   
	BYTE	W06
	BYTE		N06   
	BYTE	W06
	BYTE		        Dn4   v056
	BYTE	W06
	BYTE		        Dn4   v100
	BYTE	W06
	BYTE		        Dn4   v056
	BYTE	W06
	BYTE	PEND
// 034   ----------------------------------------
	BYTE	W96
// 035   ----------------------------------------
EternalMind_7_035:
	BYTE	W24
	BYTE		N06     Cn4   v100
	BYTE	W06
	BYTE		        Cn4   v056
	BYTE	W06
	BYTE		        Cn4   v100
	BYTE	W06
	BYTE		        Cn4   v056
	BYTE	W18
	BYTE		        Cn4   v100
	BYTE	W06
	BYTE		N06   
	BYTE	W06
	BYTE		N06   
	BYTE	W06
	BYTE		        Cn4   v056
	BYTE	W06
	BYTE		        Cn4   v100
	BYTE	W06
	BYTE		        Cn4   v056
	BYTE	W06
	BYTE	PEND
// 036   ----------------------------------------
	BYTE	W96
// 037   ----------------------------------------
	BYTE	PATT
	 POIN2	EternalMind_7_033
// 038   ----------------------------------------
	BYTE	W96
// 039   ----------------------------------------
	BYTE	PATT
	 POIN2	EternalMind_7_035
// 040   ----------------------------------------
	BYTE	W96
// 041   ----------------------------------------
	BYTE	W24
	BYTE	GoTo
	 POIN2	EternalMind_7_B1
EternalMind_7_B2:
	BYTE	FINE

//******************************************************//
	ALIGN 4

EternalMind:
	BYTE	7	// NumTrks
	BYTE	0	// NumBlks
	BYTE	EternalMind_pri	// Priority
	BYTE	EternalMind_rev	// Reverb.

	POIN2	EternalMind_grp

	POIN2	EternalMind_1
	POIN2	EternalMind_2
	POIN2	EternalMind_3
	POIN2	EternalMind_4
	POIN2	EternalMind_5
	POIN2	EternalMind_6
	POIN2	EternalMind_7

	
