//Event file generated from Sappy .s format.
	#include "MPlayDef.event"

	#define	Fillmore_grp  voicegroup000
	#define	Fillmore_pri  0
	#define	Fillmore_rev  0
	#define	Fillmore_mvl  55
	#define	Fillmore_key  0
	#define	Fillmore_tbs  1
	#define	Fillmore_exg  0
	#define	Fillmore_cmp  1

	// .rodata
	//	Fillmore
	ALIGN 4

//**************** Track 1 (Midi-Chn.1) ****************//

Fillmore_1:
	BYTE	KEYSH   Fillmore_key+0
// 000   ----------------------------------------
	BYTE	TEMPO   118*Fillmore_tbs/2
	BYTE		VOICE   36
	BYTE		VOL     127*Fillmore_mvl/mxv
	BYTE		PAN     c_v+0
	BYTE	W96
	BYTE	W96
	BYTE	W96
	BYTE	W96
Fillmore_1_B1:
	BYTE		N10     Cn2   v096
	BYTE	W12
	BYTE		N04   
	BYTE	W06
	BYTE		N04   
	BYTE	W06
	BYTE		N06     Cn3 
	BYTE	W12
	BYTE		N04     Cn2 
	BYTE	W06
	BYTE		N04   
	BYTE	W12
	BYTE		N10   
	BYTE	W12
	BYTE		N04   
	BYTE	W06
	BYTE		        Cn3 
	BYTE	W06
	BYTE		        Cn2 
	BYTE	W06
	BYTE		N04   
	BYTE	W12
	BYTE		N10     An1 
	BYTE	W12
	BYTE		N04   
	BYTE	W06
	BYTE		N04   
	BYTE	W06
	BYTE		N06     An2 
	BYTE	W12
	BYTE		N04     An1 
	BYTE	W06
	BYTE		N04   
	BYTE	W12
	BYTE		        Gs1 
	BYTE	W06
	BYTE		N04   
	BYTE	W06
	BYTE		N04   
	BYTE	W06
	BYTE		        Gs2 
	BYTE	W06
	BYTE		        Gs1 
	BYTE	W06
	BYTE		N04   
	BYTE	W06
	BYTE		        As1 
	BYTE	W06
	BYTE		N10     Cn2 
	BYTE	W12
	BYTE		N04   
	BYTE	W06
	BYTE		N04   
	BYTE	W06
	BYTE		N06     Cn3 
	BYTE	W12
	BYTE		N04     Cn2 
	BYTE	W06
	BYTE		N04   
	BYTE	W12
	BYTE		N10   
	BYTE	W12
	BYTE		N04   
	BYTE	W06
	BYTE		        Cn3 
	BYTE	W06
	BYTE		        Cn2 
	BYTE	W06
	BYTE		N04   
	BYTE	W12
	BYTE		N10     An1 
	BYTE	W12
	BYTE		N04   
	BYTE	W06
	BYTE		N04   
	BYTE	W06
	BYTE		N06     An2 
	BYTE	W12
	BYTE		N04     An1 
	BYTE	W06
	BYTE		N04   
	BYTE	W12
	BYTE		        Gs1 
	BYTE	W06
	BYTE		N04   
	BYTE	W06
	BYTE		N04   
	BYTE	W06
	BYTE		        Gs2 
	BYTE	W06
	BYTE		        Gs1 
	BYTE	W06
	BYTE		N04   
	BYTE	W06
	BYTE		        Gn1 
	BYTE	W06
	BYTE		N10   
	BYTE	W12
	BYTE		N04   
	BYTE	W06
	BYTE		N04   
	BYTE	W06
	BYTE		        Gn2 
	BYTE	W06
	BYTE		        Gn1 
	BYTE	W06
	BYTE		N04   
	BYTE	W24
	BYTE		N06     Bn1 
	BYTE	W12
	BYTE		N04     Bn2 
	BYTE	W06
	BYTE		        Bn1 
	BYTE	W06
	BYTE		N04   
	BYTE	W12
	BYTE		N10     Cn2 
	BYTE	W12
	BYTE		N04   
	BYTE	W06
	BYTE		N04   
	BYTE	W06
	BYTE		        Cn3 
	BYTE	W06
	BYTE		        Cn2 
	BYTE	W06
	BYTE		N04   
	BYTE	W24
	BYTE		N06     An1 
	BYTE	W12
	BYTE		N04     An2 
	BYTE	W06
	BYTE		        An1 
	BYTE	W06
	BYTE		N04   
	BYTE	W12
	BYTE		N10     Dn2 
	BYTE	W12
	BYTE		N04   
	BYTE	W06
	BYTE		N04   
	BYTE	W06
	BYTE		        Dn3 
	BYTE	W06
	BYTE		        Dn2 
	BYTE	W06
	BYTE		N04   
	BYTE	W24
	BYTE		N06     As1 
	BYTE	W12
	BYTE		N04     As2 
	BYTE	W06
	BYTE		        As1 
	BYTE	W06
	BYTE		N04   
	BYTE	W12
	BYTE		N10     Ds2 
	BYTE	W12
	BYTE		N04   
	BYTE	W06
	BYTE		N04   
	BYTE	W06
	BYTE		        Ds3 
	BYTE	W06
	BYTE		        Ds2 
	BYTE	W06
	BYTE		N04   
	BYTE	W12
	BYTE		N10     Dn2 
	BYTE	W12
	BYTE		N04   
	BYTE	W06
	BYTE		N04   
	BYTE	W06
	BYTE		        Dn3 
	BYTE	W06
	BYTE		        Dn2 
	BYTE	W06
	BYTE		N04   
	BYTE	W06
	BYTE		N04   
	BYTE	W06
	BYTE		N10     Gn1 
	BYTE	W12
	BYTE		N04   
	BYTE	W06
	BYTE		N04   
	BYTE	W06
	BYTE		        Gn2 
	BYTE	W06
	BYTE		        Gn1 
	BYTE	W06
	BYTE		N04   
	BYTE	W24
	BYTE		N06     Bn1 
	BYTE	W12
	BYTE		N04     Bn2 
	BYTE	W06
	BYTE		        Bn1 
	BYTE	W06
	BYTE		N04   
	BYTE	W12
	BYTE		N10     Cn2 
	BYTE	W12
	BYTE		N04   
	BYTE	W06
	BYTE		N04   
	BYTE	W06
	BYTE		        Cn3 
	BYTE	W06
	BYTE		        Cn2 
	BYTE	W06
	BYTE		N04   
	BYTE	W24
	BYTE		N06     An1 
	BYTE	W12
	BYTE		N04     An2 
	BYTE	W06
	BYTE		        An1 
	BYTE	W06
	BYTE		N04   
	BYTE	W12
	BYTE		N10     Dn2 
	BYTE	W12
	BYTE		N04   
	BYTE	W06
	BYTE		N04   
	BYTE	W06
	BYTE		        Dn3 
	BYTE	W06
	BYTE		        Dn2 
	BYTE	W06
	BYTE		N04   
	BYTE	W24
	BYTE		N06     As1 
	BYTE	W12
	BYTE		N04     As2 
	BYTE	W06
	BYTE		        As1 
	BYTE	W06
	BYTE		N04   
	BYTE	W12
	BYTE		N10     Ds2 
	BYTE	W12
	BYTE		N04   
	BYTE	W06
	BYTE		N04   
	BYTE	W06
	BYTE		        Ds3 
	BYTE	W06
	BYTE		        Ds2 
	BYTE	W06
	BYTE		N04   
	BYTE	W12
	BYTE		N10     Gn2 
	BYTE	W12
	BYTE		N04   
	BYTE	W06
	BYTE		N04   
	BYTE	W06
	BYTE		        Gn3 
	BYTE	W06
	BYTE		        Gn2 
	BYTE	W06
	BYTE		N04   
	BYTE	W06
	BYTE		N04   
	BYTE	W06
	BYTE		N24     Gs2   v116
	BYTE	W24
	BYTE		N24   
	BYTE	W24
	BYTE		N24   
	BYTE	W24
	BYTE		N24   
	BYTE	W24
	BYTE		        Fs2 
	BYTE	W24
	BYTE		N24   
	BYTE	W24
	BYTE		N24   
	BYTE	W24
	BYTE		N24   
	BYTE	W24
	BYTE		        Gn2 
	BYTE	W24
	BYTE		N24   
	BYTE	W24
	BYTE		N24   
	BYTE	W24
	BYTE		N24   
	BYTE	W24
	BYTE		N24   
	BYTE	W24
	BYTE		N24   
	BYTE	W24
	BYTE		N12   
	BYTE	W12
	BYTE		N06   
	BYTE	W06
	BYTE		N06   
	BYTE	W06
	BYTE		N06   
	BYTE	W06
	BYTE		N06   
	BYTE	W06
	BYTE		N06   
	BYTE	W06
	BYTE		N06   
	BYTE	W06
	BYTE		N10     Cn2   v096
	BYTE	W12
	BYTE		N04     Cn3 
	BYTE	W06
	BYTE		        Cn2 
	BYTE	W12
	BYTE		N10     Cn3 
	BYTE	W12
	BYTE		N04   
	BYTE	W06
	BYTE		N10     Cn2 
	BYTE	W12
	BYTE		N04     Cn3 
	BYTE	W06
	BYTE		        Cn2 
	BYTE	W12
	BYTE		N04   
	BYTE	W06
	BYTE		N10     Cn3 
	BYTE	W12
	BYTE		N06     Gs1 
	BYTE	W12
	BYTE		N12     Gs2 
	BYTE	W18
	BYTE		N15     Gs1 
	BYTE	W18
	BYTE		N09     Fn1 
	BYTE	W12
	BYTE		        Fn2 
	BYTE	W12
	BYTE		        Gn1 
	BYTE	W12
	BYTE		        Gn2 
	BYTE	W12
	BYTE		N10     Cn2 
	BYTE	W12
	BYTE		N04     Cn3 
	BYTE	W06
	BYTE		        Cn2 
	BYTE	W12
	BYTE		N10     Cn3 
	BYTE	W12
	BYTE		N04   
	BYTE	W06
	BYTE		N10     Cn2 
	BYTE	W12
	BYTE		N04     Cn3 
	BYTE	W06
	BYTE		        Cn2 
	BYTE	W12
	BYTE		N10     Cn3 
	BYTE	W12
	BYTE		N04   
	BYTE	W06
	BYTE		N06     Gs1 
	BYTE	W12
	BYTE		N12     Gs2 
	BYTE	W18
	BYTE		N15     Gs1 
	BYTE	W18
	BYTE		N09     Fn1 
	BYTE	W12
	BYTE		        Fn2 
	BYTE	W12
	BYTE		        Gn1 
	BYTE	W12
	BYTE		        Gn2 
	BYTE	W12
	BYTE		N24     Cn2   v104
	BYTE	W24
	BYTE		        As1 
	BYTE	W24
	BYTE		        Gs1 
	BYTE	W24
	BYTE		        Gn1 
	BYTE	W24
	BYTE		N48     Fs1 
	BYTE	W48
	BYTE		        Fs2 
	BYTE	W48
	BYTE		N12     Gn1 
	BYTE	W12
	BYTE		N06     Gn2 
	BYTE	W06
	BYTE		        Gn1 
	BYTE	W06
	BYTE		N06   
	BYTE	W06
	BYTE		        Gn2 
	BYTE	W06
	BYTE		        Gn1 
	BYTE	W06
	BYTE		N06   
	BYTE	W06
	BYTE		        Gn2 
	BYTE	W06
	BYTE		        Gn1 
	BYTE	W06
	BYTE		N06   
	BYTE	W06
	BYTE		        Gn2 
	BYTE	W06
	BYTE		        Gn1 
	BYTE	W06
	BYTE		N06   
	BYTE	W06
	BYTE		        Gn2 
	BYTE	W06
	BYTE		        Gn1 
	BYTE	W06
	BYTE		N54   
	BYTE	W54
	BYTE		N06     Gn2 
	BYTE	W06
	BYTE		N06   
	BYTE	W06
	BYTE		        Gn1 
	BYTE	W06
	BYTE		        Gn2 
	BYTE	W06
	BYTE		        Gn1 
	BYTE	W06
	BYTE		        Gn2 
	BYTE	W06
	BYTE		N06   
	BYTE	W06
	BYTE	GoTo
	 POIN2	Fillmore_1_B1
Fillmore_1_B2:
	BYTE		N10     Cn2   v096
	BYTE	W12
	BYTE		N04   
	BYTE	W06
	BYTE		N04   
	BYTE	W06
	BYTE		N06     Cn3 
	BYTE	W12
	BYTE		N04     Cn2 
	BYTE	W06
	BYTE		N04   
	BYTE	W12
	BYTE		N10   
	BYTE	W12
	BYTE		N04   
	BYTE	W06
	BYTE		        Cn3 
	BYTE	W06
	BYTE		        Cn2 
	BYTE	W06
	BYTE		N04   
	BYTE	W12
	BYTE		N10     An1 
	BYTE	W12
	BYTE		N04   
	BYTE	W06
	BYTE		N04   
	BYTE	W06
	BYTE		N06     An2 
	BYTE	W12
	BYTE		N04     An1 
	BYTE	W06
	BYTE		N04   
	BYTE	W12
	BYTE		        Gs1 
	BYTE	W06
	BYTE		N04   
	BYTE	W06
	BYTE		N04   
	BYTE	W06
	BYTE		        Gs2 
	BYTE	W06
	BYTE		        Gs1 
	BYTE	W06
	BYTE		N04   
	BYTE	W06
	BYTE		        As1 
	BYTE	W06
	BYTE		N10     Cn2 
	BYTE	W12
	BYTE		N04   
	BYTE	W06
	BYTE		N04   
	BYTE	W06
	BYTE		N06     Cn3 
	BYTE	W12
	BYTE		N04     Cn2 
	BYTE	W06
	BYTE	FINE

//**************** Track 2 (Midi-Chn.2) ****************//

Fillmore_2:
	BYTE	KEYSH   Fillmore_key+0
// 000   ----------------------------------------
	BYTE		VOICE   57
	BYTE		VOL     103*Fillmore_mvl/mxv
	BYTE		PAN     c_v+0
	BYTE	W06
	BYTE		N06     Gn3   v072
	BYTE	W06
	BYTE		        Cn4 
	BYTE	W06
	BYTE		        Ds4 
	BYTE	W06
	BYTE		        Dn4 
	BYTE	W12
	BYTE		        Gn4 
	BYTE	W12
	BYTE		        Fn4 
	BYTE	W12
	BYTE		        Cn5 
	BYTE	W12
	BYTE		        Ds4 
	BYTE	W12
	BYTE		        Cn5 
	BYTE	W12
	BYTE		        An3 
	BYTE		N06     An4 
	BYTE	W48
	BYTE		        Cn4 
	BYTE	W06
	BYTE		        An3 
	BYTE	W06
	BYTE		        Fs3 
	BYTE	W06
	BYTE		        An3 
	BYTE	W06
	BYTE		        Cn4 
	BYTE	W06
	BYTE		        Dn4 
	BYTE	W06
	BYTE		        Ds4 
	BYTE	W06
	BYTE		        Cn4 
	BYTE	W06
	BYTE		        Gn3 
	BYTE	W12
	BYTE		        Gs3 
	BYTE	W12
	BYTE		        Cn4 
	BYTE	W12
	BYTE		        Bn3 
	BYTE	W12
	BYTE		        Ds4 
	BYTE	W12
	BYTE		        Dn4 
	BYTE	W12
	BYTE		        Gs4 
	BYTE	W12
	BYTE		        Gn4 
	BYTE	W12
	BYTE		        Dn4 
	BYTE	W06
	BYTE		        Ds4 
	BYTE	W06
	BYTE		        Fn4 
	BYTE	W06
	BYTE		        Bn3 
	BYTE	W06
	BYTE		        Cn4 
	BYTE	W06
	BYTE		        Dn4 
	BYTE	W06
	BYTE		        Gn3 
	BYTE	W06
	BYTE		        An3 
	BYTE	W06
	BYTE		        Bn3 
	BYTE	W06
	BYTE		        Cn4 
	BYTE	W06
	BYTE		        Dn4 
	BYTE	W06
	BYTE		        Ds4 
	BYTE	W06
	BYTE		        Fn4 
	BYTE	W06
	BYTE		        Bn3 
	BYTE	W06
	BYTE		        Cn4 
	BYTE	W06
	BYTE		        Dn4 
	BYTE	W06
Fillmore_2_B1:
	BYTE	W96
	BYTE	W96
	BYTE	W96
	BYTE	W96
	BYTE	W96
	BYTE	W96
	BYTE	W96
	BYTE	W96
	BYTE	W96
	BYTE	W96
	BYTE	W96
	BYTE	W96
	BYTE	W96
	BYTE	W96
	BYTE	W96
	BYTE		N24     Gn2   v072
	BYTE	W24
	BYTE		        Bn2 
	BYTE	W24
	BYTE		        Dn3   v068
	BYTE	W24
	BYTE		        Gn3 
	BYTE	W24
	BYTE		N06     Gn3   v052
	BYTE	W06
	BYTE		        Cn4   v060
	BYTE	W06
	BYTE		        Ds4   v072
	BYTE	W06
	BYTE		        Gn4 
	BYTE	W06
	BYTE		        Fn4   v068
	BYTE	W12
	BYTE		        Cn5   v072
	BYTE	W12
	BYTE		        Ds4   v068
	BYTE	W12
	BYTE		        Cn5   v072
	BYTE	W12
	BYTE		        Fn4   v068
	BYTE	W12
	BYTE		        Bn4   v072
	BYTE	W12
	BYTE		        Gn3   v052
	BYTE	W06
	BYTE		        Cn4   v060
	BYTE	W06
	BYTE		        Ds4   v072
	BYTE	W06
	BYTE		        Gn4 
	BYTE	W06
	BYTE		        Fn4   v068
	BYTE	W12
	BYTE		        Cn5   v072
	BYTE	W12
	BYTE		        Ds4   v068
	BYTE	W12
	BYTE		        Cn5   v072
	BYTE	W12
	BYTE		        Dn4   v068
	BYTE	W12
	BYTE		        Bn4   v072
	BYTE	W12
	BYTE		        Gn3   v052
	BYTE	W06
	BYTE		        Cn4   v060
	BYTE	W06
	BYTE		        Ds4   v072
	BYTE	W06
	BYTE		        Gn4 
	BYTE	W06
	BYTE		        Fn4   v068
	BYTE	W12
	BYTE		        Cn5   v072
	BYTE	W12
	BYTE		        Ds4   v068
	BYTE	W12
	BYTE		        Cn5   v072
	BYTE	W12
	BYTE		        Fn4   v068
	BYTE	W12
	BYTE		        Bn4   v072
	BYTE	W12
	BYTE		        Gn3   v052
	BYTE	W06
	BYTE		        Cn4   v060
	BYTE	W06
	BYTE		        Ds4   v072
	BYTE	W06
	BYTE		        Gn4 
	BYTE	W06
	BYTE		        Fn4   v068
	BYTE	W12
	BYTE		        Cn5   v072
	BYTE	W12
	BYTE		        Ds4   v068
	BYTE	W12
	BYTE		        Cn5   v072
	BYTE	W12
	BYTE		        Dn4   v068
	BYTE	W06
	BYTE		        Fn4   v072
	BYTE	W06
	BYTE		        Gn4 
	BYTE	W06
	BYTE		        Bn4 
	BYTE	W12
	BYTE		        Gn3 
	BYTE	W06
	BYTE		        Cn4 
	BYTE	W06
	BYTE		        Ds4 
	BYTE	W06
	BYTE		        Dn4 
	BYTE	W12
	BYTE		        Gn4 
	BYTE	W12
	BYTE		        Fn4 
	BYTE	W12
	BYTE		        Cn5 
	BYTE	W12
	BYTE		        Ds4 
	BYTE	W12
	BYTE		        Cn5 
	BYTE	W12
	BYTE		        An3 
	BYTE		N06     An4 
	BYTE	W48
	BYTE		        Cn4 
	BYTE	W06
	BYTE		        An3 
	BYTE	W06
	BYTE		        Fs3 
	BYTE	W06
	BYTE		        An3 
	BYTE	W06
	BYTE		        Cn4 
	BYTE	W06
	BYTE		        Dn4 
	BYTE	W06
	BYTE		        Ds4 
	BYTE	W06
	BYTE		        Cn4 
	BYTE	W06
	BYTE		        Gn3 
	BYTE	W12
	BYTE		        Gs3 
	BYTE	W12
	BYTE		        Cn4 
	BYTE	W12
	BYTE		        Bn3 
	BYTE	W12
	BYTE		        Ds4 
	BYTE	W12
	BYTE		        Dn4 
	BYTE	W12
	BYTE		        Gs4 
	BYTE	W12
	BYTE		        Gn4 
	BYTE	W12
	BYTE		        Dn4 
	BYTE	W06
	BYTE		        Ds4 
	BYTE	W06
	BYTE		        Fn4 
	BYTE	W06
	BYTE		        Bn3 
	BYTE	W06
	BYTE		        Cn4 
	BYTE	W06
	BYTE		        Dn4 
	BYTE	W06
	BYTE		        Gn3 
	BYTE	W06
	BYTE		        An3 
	BYTE	W06
	BYTE		        Bn3 
	BYTE	W06
	BYTE		        Cn4 
	BYTE	W06
	BYTE		        Dn4 
	BYTE	W06
	BYTE		        Ds4 
	BYTE	W06
	BYTE		        Fn4 
	BYTE	W06
	BYTE		        Bn3 
	BYTE	W06
	BYTE		        Cn4 
	BYTE	W06
	BYTE		        Dn4 
	BYTE	W06
	BYTE	GoTo
	 POIN2	Fillmore_2_B1
Fillmore_2_B2:
	BYTE	W96
	BYTE	W96
	BYTE	W42
	BYTE	FINE

//**************** Track 3 (Midi-Chn.3) ****************//

Fillmore_3:
	BYTE	KEYSH   Fillmore_key+0
// 000   ----------------------------------------
	BYTE		VOICE   19
	BYTE		VOL     103*Fillmore_mvl/mxv
	BYTE		PAN     c_v-1
	BYTE		N04     Cn3   v080
	BYTE	W06
	BYTE		        Gn3 
	BYTE	W06
	BYTE		        Cn4 
	BYTE	W06
	BYTE		        Gn3 
	BYTE	W06
	BYTE		        Cn3 
	BYTE	W06
	BYTE		        Gn3 
	BYTE	W06
	BYTE		        Cn4 
	BYTE	W06
	BYTE		        Gn3 
	BYTE	W06
	BYTE		        Cn3 
	BYTE	W06
	BYTE		        Gn3 
	BYTE	W06
	BYTE		        Cn4 
	BYTE	W06
	BYTE		        Gn3 
	BYTE	W06
	BYTE		        Cn3 
	BYTE	W06
	BYTE		        Gn3 
	BYTE	W06
	BYTE		        Cn4 
	BYTE	W06
	BYTE		        Gn3 
	BYTE	W06
	BYTE		        An3 
	BYTE	W06
	BYTE		        Cn4 
	BYTE	W06
	BYTE		        Ds4 
	BYTE	W06
	BYTE		        Cn4 
	BYTE	W06
	BYTE		        An4 
	BYTE	W06
	BYTE		        Fs4 
	BYTE	W06
	BYTE		        Cn5 
	BYTE	W06
	BYTE		        An4 
	BYTE	W06
	BYTE		        Ds5 
	BYTE	W06
	BYTE		        Cn5 
	BYTE	W06
	BYTE		        An4 
	BYTE	W06
	BYTE		        Fs4 
	BYTE	W06
	BYTE		        Ds4 
	BYTE	W06
	BYTE		        Fs4 
	BYTE	W06
	BYTE		        Ds4 
	BYTE	W06
	BYTE		        Cn4 
	BYTE	W06
	BYTE		N22     Dn3 
	BYTE	W24
	BYTE		        Ds3 
	BYTE	W24
	BYTE		        Fn3 
	BYTE	W24
	BYTE		        Fs3 
	BYTE	W24
	BYTE		N04     Gn5 
	BYTE	W06
	BYTE		        Fn5 
	BYTE	W06
	BYTE		        Dn5 
	BYTE	W06
	BYTE		        Bn4 
	BYTE	W06
	BYTE		        Gn4 
	BYTE	W06
	BYTE		        Fn4 
	BYTE	W06
	BYTE		        Dn4 
	BYTE	W06
	BYTE		        Bn3 
	BYTE	W06
	BYTE		        Gn3 
	BYTE	W06
	BYTE		        An3 
	BYTE	W06
	BYTE		        Bn3 
	BYTE	W06
	BYTE		        Cn4 
	BYTE	W06
	BYTE		        Dn4 
	BYTE	W06
	BYTE		        Ds4 
	BYTE	W06
	BYTE		        Fn4 
	BYTE	W06
	BYTE		        Dn4 
	BYTE	W06
Fillmore_3_B1:
	BYTE		N04     Ds4   v080
	BYTE	W36
	BYTE		N22     Gn3 
	BYTE	W24
	BYTE		N04   
	BYTE	W06
	BYTE		        Fn3 
	BYTE	W06
	BYTE		        Ds3 
	BYTE	W18
	BYTE		        Gn2 
	BYTE	W06
	BYTE		        An2 
	BYTE	W06
	BYTE		        Cn3 
	BYTE	W06
	BYTE		        Fn3 
	BYTE	W06
	BYTE		        Cn3 
	BYTE	W06
	BYTE		        An2 
	BYTE	W18
	BYTE		N04   
	BYTE	W06
	BYTE		        Gs2 
	BYTE	W06
	BYTE		        Ds2 
	BYTE	W06
	BYTE		        Cn2 
	BYTE	W06
	BYTE		        Gs2 
	BYTE	W06
	BYTE		        Bn2 
	BYTE	W06
	BYTE		        Dn3 
	BYTE	W06
	BYTE		        Fn3 
	BYTE	W06
	BYTE		        Bn2 
	BYTE	W42
	BYTE		N22     Gn3 
	BYTE	W24
	BYTE		N04   
	BYTE	W06
	BYTE		        Fn3 
	BYTE	W06
	BYTE		        Ds3 
	BYTE	W18
	BYTE		        Cn3 
	BYTE	W06
	BYTE		        An2 
	BYTE	W06
	BYTE		        Cn3 
	BYTE	W06
	BYTE		        Fn3 
	BYTE	W06
	BYTE		        Cn3 
	BYTE	W06
	BYTE		        An2 
	BYTE	W18
	BYTE		        Gn2 
	BYTE	W06
	BYTE		        Gs2 
	BYTE	W06
	BYTE		        Ds2 
	BYTE	W06
	BYTE		        Gs2 
	BYTE	W06
	BYTE		        Gs3 
	BYTE	W06
	BYTE		        Gn3 
	BYTE	W06
	BYTE		        Fn3 
	BYTE	W06
	BYTE		        Ds3 
	BYTE	W06
	BYTE		        Dn3 
	BYTE	W06
	BYTE		        Fn2 
	BYTE	W06
	BYTE		        Bn2 
	BYTE	W06
	BYTE		        Dn3 
	BYTE	W06
	BYTE		        Bn2 
	BYTE	W06
	BYTE		        Fn2 
	BYTE	W24
	BYTE		        Gs2 
	BYTE	W06
	BYTE		N10     Bn2 
	BYTE	W12
	BYTE		N04     Gs2 
	BYTE	W06
	BYTE		        Gn2 
	BYTE	W06
	BYTE		        Dn3 
	BYTE	W06
	BYTE		        Cn3 
	BYTE	W06
	BYTE		        Bn2 
	BYTE	W06
	BYTE		        Gn2 
	BYTE	W06
	BYTE		        Cn3 
	BYTE	W06
	BYTE		        Ds3 
	BYTE	W06
	BYTE		        Cn3 
	BYTE	W06
	BYTE		        Gn2 
	BYTE	W24
	BYTE		        Gs2 
	BYTE	W06
	BYTE		        Cn3 
	BYTE	W06
	BYTE		        Ds3 
	BYTE	W06
	BYTE		        Cn3 
	BYTE	W06
	BYTE		        An2 
	BYTE	W06
	BYTE		        Cn3 
	BYTE	W06
	BYTE		        Ds3 
	BYTE	W06
	BYTE		        Cn3 
	BYTE	W06
	BYTE		        Dn2 
	BYTE	W06
	BYTE		        Fn2 
	BYTE	W06
	BYTE		        As2 
	BYTE	W06
	BYTE		        Dn3 
	BYTE	W18
	BYTE		N04   
	BYTE	W24
	BYTE		        As2 
	BYTE	W24
	BYTE		        Dn3 
	BYTE	W12
	BYTE		        Ds3 
	BYTE	W06
	BYTE		        Dn3 
	BYTE	W06
	BYTE		        Ds3   v084
	BYTE	W06
	BYTE		        Fn3 
	BYTE	W06
	BYTE		        Gn3 
	BYTE	W06
	BYTE		        Fn3 
	BYTE	W06
	BYTE		        Gn3   v088
	BYTE	W06
	BYTE		        Gs3 
	BYTE	W06
	BYTE		        As3 
	BYTE	W06
	BYTE		        Cn4 
	BYTE	W06
	BYTE		        Dn4   v092
	BYTE	W06
	BYTE		        Cn4   v088
	BYTE	W06
	BYTE		        As3 
	BYTE	W06
	BYTE		        Gs3 
	BYTE	W06
	BYTE		        Gn3 
	BYTE	W06
	BYTE		        Fn3   v084
	BYTE	W06
	BYTE		        Fn2   v080
	BYTE	W06
	BYTE		        Bn2 
	BYTE	W06
	BYTE		        Dn3 
	BYTE	W06
	BYTE		        Bn2 
	BYTE	W06
	BYTE		        Fn2 
	BYTE	W24
	BYTE		        Gs2 
	BYTE	W06
	BYTE		N10     Bn2 
	BYTE	W12
	BYTE		N04     Gs2 
	BYTE	W06
	BYTE		        Gn2 
	BYTE	W06
	BYTE		        Dn3 
	BYTE	W06
	BYTE		        Cn3 
	BYTE	W06
	BYTE		        Bn2 
	BYTE	W06
	BYTE		        Gn2 
	BYTE	W06
	BYTE		        Cn3 
	BYTE	W06
	BYTE		        Ds3 
	BYTE	W06
	BYTE		        Cn3 
	BYTE	W06
	BYTE		        Gn2 
	BYTE	W24
	BYTE		        Gs2 
	BYTE	W06
	BYTE		        Cn3 
	BYTE	W06
	BYTE		        Ds3 
	BYTE	W06
	BYTE		        Cn3 
	BYTE	W06
	BYTE		        An2 
	BYTE	W06
	BYTE		        Cn3 
	BYTE	W06
	BYTE		        Ds3 
	BYTE	W06
	BYTE		        Cn3 
	BYTE	W06
	BYTE		        Dn2 
	BYTE	W06
	BYTE		        Fn2 
	BYTE	W06
	BYTE		        As2 
	BYTE	W06
	BYTE		        Dn3 
	BYTE	W18
	BYTE		N04   
	BYTE	W24
	BYTE		        As2 
	BYTE	W24
	BYTE		        Dn3 
	BYTE	W12
	BYTE		        Ds3 
	BYTE	W06
	BYTE		        Dn3 
	BYTE	W06
	BYTE		        Ds3 
	BYTE	W06
	BYTE		        Fn3 
	BYTE	W06
	BYTE		        Gn3 
	BYTE	W06
	BYTE		        Fn3 
	BYTE	W06
	BYTE		        Gn3 
	BYTE	W06
	BYTE		        Gs3 
	BYTE	W06
	BYTE		        Gn3 
	BYTE	W06
	BYTE		        Gn2   v084
	BYTE	W06
	BYTE		        Bn2 
	BYTE	W06
	BYTE		        Dn3 
	BYTE	W06
	BYTE		        Gn3 
	BYTE	W06
	BYTE		        Bn3   v088
	BYTE	W06
	BYTE		        Dn4 
	BYTE	W06
	BYTE		        Gn4   v092
	BYTE	W06
	BYTE		N56     Cn4   v080
	BYTE	W60
	BYTE		N04     Gs3 
	BYTE	W06
	BYTE		        Ds3 
	BYTE	W06
	BYTE		        Gs3 
	BYTE	W06
	BYTE		        Cn4 
	BYTE	W06
	BYTE		N10     Ds4 
	BYTE	W12
	BYTE		N16     Ds3 
	BYTE	W18
	BYTE		        Cn3 
	BYTE	W18
	BYTE		N10     An2 
	BYTE	W12
	BYTE		N22     Fs2 
	BYTE	W24
	BYTE		N22   
	BYTE	W24
	BYTE		N44     Gn2 
	BYTE	W48
	BYTE		        Fn2 
	BYTE	W48
	BYTE		N22     Dn2 
	BYTE	W24
	BYTE		        Bn2 
	BYTE	W24
	BYTE		        Dn3 
	BYTE	W24
	BYTE		        Gn3 
	BYTE	W24
	BYTE		        Ds3 
	BYTE	W24
	BYTE		        Dn3 
	BYTE	W24
	BYTE		        Fn3 
	BYTE	W24
	BYTE		        Dn3 
	BYTE	W24
	BYTE		        Ds3 
	BYTE	W24
	BYTE		        Dn3 
	BYTE	W24
	BYTE		        Fn3 
	BYTE	W24
	BYTE		        Dn3 
	BYTE	W24
	BYTE		        Ds3 
	BYTE	W24
	BYTE		        Dn3 
	BYTE	W24
	BYTE		        Fn3 
	BYTE	W24
	BYTE		        Dn3 
	BYTE	W24
	BYTE		        Ds3 
	BYTE	W24
	BYTE		        Dn3 
	BYTE	W24
	BYTE		        Fn3 
	BYTE	W24
	BYTE		        Dn3 
	BYTE	W24
	BYTE		N04     Cn3 
	BYTE	W06
	BYTE		        Gn3 
	BYTE	W06
	BYTE		        Cn4 
	BYTE	W06
	BYTE		        Gn3 
	BYTE	W06
	BYTE		        Cn3 
	BYTE	W06
	BYTE		        Gn3 
	BYTE	W06
	BYTE		        Cn4 
	BYTE	W06
	BYTE		        Gn3 
	BYTE	W06
	BYTE		        Cn3 
	BYTE	W06
	BYTE		        Gn3 
	BYTE	W06
	BYTE		        Cn4 
	BYTE	W06
	BYTE		        Gn3 
	BYTE	W06
	BYTE		        Cn3 
	BYTE	W06
	BYTE		        Gn3 
	BYTE	W06
	BYTE		        Cn4 
	BYTE	W06
	BYTE		        Gn3 
	BYTE	W06
	BYTE		        An3 
	BYTE	W06
	BYTE		        Cn4 
	BYTE	W06
	BYTE		        Ds4 
	BYTE	W06
	BYTE		        Cn4 
	BYTE	W06
	BYTE		        An4 
	BYTE	W06
	BYTE		        Fs4 
	BYTE	W06
	BYTE		        Cn5 
	BYTE	W06
	BYTE		        An4 
	BYTE	W06
	BYTE		        Ds5 
	BYTE	W06
	BYTE		        Cn5 
	BYTE	W06
	BYTE		        An4 
	BYTE	W06
	BYTE		        Fs4 
	BYTE	W06
	BYTE		        Ds4 
	BYTE	W06
	BYTE		        Fs4 
	BYTE	W06
	BYTE		        Ds4 
	BYTE	W06
	BYTE		        Cn4 
	BYTE	W06
	BYTE		N22     Dn3 
	BYTE	W24
	BYTE		        Ds3 
	BYTE	W24
	BYTE		        Fn3 
	BYTE	W24
	BYTE		        Fs3 
	BYTE	W24
	BYTE		N04     Gn5 
	BYTE	W06
	BYTE		        Fn5 
	BYTE	W06
	BYTE		        Dn5 
	BYTE	W06
	BYTE		        Bn4 
	BYTE	W06
	BYTE		        Gn4 
	BYTE	W06
	BYTE		        Fn4 
	BYTE	W06
	BYTE		        Dn4 
	BYTE	W06
	BYTE		        Bn3 
	BYTE	W06
	BYTE		        Gn3 
	BYTE	W06
	BYTE		        An3 
	BYTE	W06
	BYTE		        Bn3 
	BYTE	W06
	BYTE		        Cn4 
	BYTE	W06
	BYTE		        Dn4 
	BYTE	W06
	BYTE		        Ds4 
	BYTE	W06
	BYTE		        Fn4 
	BYTE	W06
	BYTE		        Dn4 
	BYTE	W06
	BYTE	GoTo
	 POIN2	Fillmore_3_B1
Fillmore_3_B2:
	BYTE		N04     Ds4   v080
	BYTE	W36
	BYTE		N22     Gn3 
	BYTE	W24
	BYTE		N04   
	BYTE	W06
	BYTE		        Fn3 
	BYTE	W06
	BYTE		        Ds3 
	BYTE	W18
	BYTE		        Gn2 
	BYTE	W06
	BYTE		        An2 
	BYTE	W06
	BYTE		        Cn3 
	BYTE	W06
	BYTE		        Fn3 
	BYTE	W06
	BYTE		        Cn3 
	BYTE	W06
	BYTE		        An2 
	BYTE	W18
	BYTE		N04   
	BYTE	W06
	BYTE		        Gs2 
	BYTE	W06
	BYTE		        Ds2 
	BYTE	W06
	BYTE		        Cn2 
	BYTE	W06
	BYTE		        Gs2 
	BYTE	W06
	BYTE		        Bn2 
	BYTE	W06
	BYTE		        Dn3 
	BYTE	W06
	BYTE		        Fn3 
	BYTE	W06
	BYTE		        Bn2 
	BYTE	W48
	BYTE	FINE

//**************** Track 4 (Midi-Chn.4) ****************//

Fillmore_4:
	BYTE	KEYSH   Fillmore_key+0
// 000   ----------------------------------------
	BYTE		VOICE   71
	BYTE		VOL     78*Fillmore_mvl/mxv
	BYTE		PAN     c_v-1
	BYTE		N22     Gn2   v080
	BYTE	W24
	BYTE		        Cn3 
	BYTE	W24
	BYTE		        Gs3 
	BYTE	W24
	BYTE		        Gn3 
	BYTE	W24
	BYTE		        An2 
	BYTE	W24
	BYTE		N44     Dn3 
	BYTE	W48
	BYTE		N22     Cn3 
	BYTE	W96
	BYTE	W96
	BYTE	W24
Fillmore_4_B1:
	BYTE		N52     Gn3   v080
	BYTE	W60
	BYTE		N04     Cn3 
	BYTE	W12
	BYTE		        Ds3 
	BYTE	W12
	BYTE		        Gn3 
	BYTE	W12
	BYTE		        An3 
	BYTE	W06
	BYTE		        Fn3 
	BYTE	W06
	BYTE		        An3 
	BYTE	W06
	BYTE		        Cn4 
	BYTE	W06
	BYTE		N22     Fn4 
	BYTE		N22     Fn5 
	BYTE	W24
	BYTE		N04     Gs2 
	BYTE	W06
	BYTE		        Cn3 
	BYTE	W06
	BYTE		        Fn3 
	BYTE	W06
	BYTE		        Gs2 
	BYTE	W06
	BYTE		        Gn2 
	BYTE	W06
	BYTE		        Bn2 
	BYTE	W06
	BYTE		        Dn3 
	BYTE	W06
	BYTE		        Fn3 
	BYTE	W06
	BYTE		N52     Gn3 
	BYTE	W96
	BYTE		N32     An3 
	BYTE	W48
	BYTE		N04     Gs3 
	BYTE	W06
	BYTE		        Ds3 
	BYTE	W06
	BYTE		        Cn3 
	BYTE	W36
	BYTE		N32     Gn3 
	BYTE	W36
	BYTE		N04   
	BYTE	W06
	BYTE		        An3 
	BYTE	W06
	BYTE		N10     Bn3 
	BYTE	W12
	BYTE		N04     Gn3 
	BYTE	W06
	BYTE		        An3 
	BYTE	W06
	BYTE		        Bn3 
	BYTE	W06
	BYTE		        Dn4 
	BYTE	W06
	BYTE		        Cn4 
	BYTE	W06
	BYTE		        Bn3 
	BYTE	W06
	BYTE		N44     Cn4 
	BYTE	W48
	BYTE		N22     Gs3 
	BYTE	W24
	BYTE		        An3 
	BYTE	W24
	BYTE		N32     As3 
	BYTE	W36
	BYTE		N04   
	BYTE	W06
	BYTE		        Cn4 
	BYTE	W06
	BYTE		        Dn4 
	BYTE	W12
	BYTE		        As3 
	BYTE	W06
	BYTE		        Cn4 
	BYTE	W06
	BYTE		        Dn4 
	BYTE	W12
	BYTE		        As3 
	BYTE	W12
	BYTE		N16     Ds4 
	BYTE	W18
	BYTE		        As3 
	BYTE	W18
	BYTE		N10     Ds4 
	BYTE	W12
	BYTE		N16     Gn4 
	BYTE	W18
	BYTE		        Fn4 
	BYTE	W18
	BYTE		N10     Ds4 
	BYTE	W12
	BYTE		N44     Fn3 
	BYTE	W48
	BYTE		        Gs3 
	BYTE	W48
	BYTE		        Gn3 
	BYTE	W48
	BYTE		N22     Gs3 
	BYTE	W24
	BYTE		        An3 
	BYTE	W24
	BYTE		N32     As3 
	BYTE	W36
	BYTE		N04   
	BYTE	W06
	BYTE		        Cn4 
	BYTE	W06
	BYTE		        Dn4 
	BYTE	W12
	BYTE		        As3 
	BYTE	W06
	BYTE		        Cn4 
	BYTE	W06
	BYTE		        Dn4 
	BYTE	W12
	BYTE		        As3 
	BYTE	W12
	BYTE		N16     Ds4 
	BYTE	W18
	BYTE		        As3 
	BYTE	W18
	BYTE		N10     Ds4 
	BYTE	W12
	BYTE		N16     Dn4 
	BYTE	W18
	BYTE		        Cn4 
	BYTE	W18
	BYTE		N10     Bn3 
	BYTE	W12
	BYTE		N92     Cn4 
	BYTE	W96
	BYTE		N16     Ds4 
	BYTE	W18
	BYTE		        Cn4 
	BYTE	W18
	BYTE		N10     An3 
	BYTE	W12
	BYTE		N22     Ds3 
	BYTE	W24
	BYTE		N22   
	BYTE	W24
	BYTE		N44     Dn3 
	BYTE	W48
	BYTE		N44   
	BYTE	W48
	BYTE		N22   
	BYTE	W24
	BYTE		        Gn3 
	BYTE	W24
	BYTE		        Bn3 
	BYTE	W24
	BYTE		        Dn4 
	BYTE	W24
	BYTE		        Gn3 
	BYTE	W24
	BYTE		        Cn4 
	BYTE	W24
	BYTE		N22   
	BYTE	W24
	BYTE		        Bn3 
	BYTE	W24
	BYTE		        Gs3 
	BYTE	W24
	BYTE		        Cn4 
	BYTE	W24
	BYTE		N22   
	BYTE	W24
	BYTE		        Bn3 
	BYTE	W24
	BYTE		        Gn3 
	BYTE	W24
	BYTE		        Cn4 
	BYTE	W24
	BYTE		N22   
	BYTE	W24
	BYTE		        Bn3 
	BYTE	W24
	BYTE		        Gs3 
	BYTE	W24
	BYTE		        Cn4 
	BYTE	W24
	BYTE		N22   
	BYTE	W24
	BYTE		        Bn3 
	BYTE	W24
	BYTE		        Gn2 
	BYTE	W24
	BYTE		        Cn3 
	BYTE	W24
	BYTE		        Gs3 
	BYTE	W24
	BYTE		        Gn3 
	BYTE	W24
	BYTE		        An2 
	BYTE	W24
	BYTE		N44     Dn3 
	BYTE	W48
	BYTE		N22     Cn3 
	BYTE	W96
	BYTE	W96
	BYTE	W24
	BYTE	GoTo
	 POIN2	Fillmore_4_B1
Fillmore_4_B2:
	BYTE		N52     Gn3   v080
	BYTE	W60
	BYTE		N04     Cn3 
	BYTE	W12
	BYTE		        Ds3 
	BYTE	W12
	BYTE		        Gn3 
	BYTE	W12
	BYTE		        An3 
	BYTE	W06
	BYTE		        Fn3 
	BYTE	W06
	BYTE		        An3 
	BYTE	W06
	BYTE		        Cn4 
	BYTE	W06
	BYTE		N22     Fn4 
	BYTE		N22     Fn5 
	BYTE	W24
	BYTE		N04     Gs2 
	BYTE	W06
	BYTE		        Cn3 
	BYTE	W06
	BYTE		        Fn3 
	BYTE	W06
	BYTE		        Gs2 
	BYTE	W06
	BYTE		        Gn2 
	BYTE	W06
	BYTE		        Bn2 
	BYTE	W06
	BYTE		        Dn3 
	BYTE	W06
	BYTE		        Fn3 
	BYTE	W48
	BYTE	FINE

//**************** Track 5 (Midi-Chn.5) ****************//

Fillmore_5:
	BYTE	KEYSH   Fillmore_key+0
// 000   ----------------------------------------
	BYTE		VOICE   30
	BYTE		VOL     103*Fillmore_mvl/mxv
	BYTE		PAN     c_v+0
	BYTE	W06
	BYTE		N06     Gn2   v100
	BYTE	W06
	BYTE		        Cn3 
	BYTE	W06
	BYTE		        Ds3 
	BYTE	W06
	BYTE		        Dn3 
	BYTE	W12
	BYTE		        Gn3 
	BYTE	W12
	BYTE		        Fn3 
	BYTE	W12
	BYTE		        Cn4 
	BYTE	W12
	BYTE		        Ds3 
	BYTE	W12
	BYTE		        Cn4 
	BYTE	W12
	BYTE		        An2 
	BYTE	W06
	BYTE		        Fs2 
	BYTE	W06
	BYTE		        Ds2 
	BYTE	W06
	BYTE		        Fs2 
	BYTE	W06
	BYTE		        An2 
	BYTE	W06
	BYTE		        Cn3 
	BYTE	W06
	BYTE		        Ds3 
	BYTE	W06
	BYTE		        Cn3 
	BYTE	W06
	BYTE		        Cn4 
	BYTE	W06
	BYTE		        An3 
	BYTE	W06
	BYTE		        Fs3 
	BYTE	W06
	BYTE		        An3 
	BYTE	W06
	BYTE		        Cn4 
	BYTE	W06
	BYTE		        Dn4 
	BYTE	W06
	BYTE		        Ds4 
	BYTE	W06
	BYTE		        Cn4 
	BYTE	W06
	BYTE		        Gn3 
	BYTE	W12
	BYTE		        Gs3 
	BYTE	W12
	BYTE		        Cn4 
	BYTE	W12
	BYTE		        Bn3 
	BYTE	W12
	BYTE		        Ds4 
	BYTE	W12
	BYTE		        Dn4 
	BYTE	W12
	BYTE		        Gs4 
	BYTE	W12
	BYTE		        Gn4 
	BYTE	W12
	BYTE		        Dn3 
	BYTE	W06
	BYTE		        Ds3 
	BYTE	W06
	BYTE		        Fn3 
	BYTE	W06
	BYTE		        Bn2 
	BYTE	W06
	BYTE		        Cn3 
	BYTE	W06
	BYTE		        Dn3 
	BYTE	W06
	BYTE		        Gn2 
	BYTE	W06
	BYTE		        An2 
	BYTE	W06
	BYTE		        Bn2 
	BYTE	W06
	BYTE		        Cn3 
	BYTE	W06
	BYTE		        Dn3 
	BYTE	W06
	BYTE		        Ds3 
	BYTE	W06
	BYTE		        Fn3 
	BYTE	W06
	BYTE		        Bn2 
	BYTE	W06
	BYTE		        Cn3 
	BYTE	W06
	BYTE		        Dn3 
	BYTE	W06
Fillmore_5_B1:
	BYTE		N36     Ds3   v120
	BYTE	W36
	BYTE		N06     Cn3 
	BYTE	W06
	BYTE		        Dn3 
	BYTE	W06
	BYTE		N12     Ds3 
	BYTE	W12
	BYTE		N06     Cn3 
	BYTE	W06
	BYTE		        Dn3 
	BYTE	W06
	BYTE		        Ds3 
	BYTE	W12
	BYTE		        Gn3 
	BYTE	W12
	BYTE		N36     Fn3 
	BYTE	W36
	BYTE		N54     Cn3 
	BYTE	W54
	BYTE		N06     Dn3 
	BYTE	W06
	BYTE		N36     Ds3 
	BYTE	W36
	BYTE		N06     Cn3 
	BYTE	W06
	BYTE		        Dn3 
	BYTE	W06
	BYTE		N12     Ds3 
	BYTE	W12
	BYTE		N06     Cn3 
	BYTE	W06
	BYTE		        Dn3 
	BYTE	W06
	BYTE		        Ds3 
	BYTE	W12
	BYTE		        Gn3 
	BYTE	W12
	BYTE		N36     Fn3 
	BYTE	W36
	BYTE		N60     Cn3 
	BYTE	W60
	BYTE		N36     Dn3 
	BYTE	W36
	BYTE		N06     Bn2 
	BYTE	W06
	BYTE		        Cn3 
	BYTE	W06
	BYTE		N12     Dn3 
	BYTE	W12
	BYTE		N06     Bn2 
	BYTE	W06
	BYTE		        Cn3 
	BYTE	W06
	BYTE		        Dn3 
	BYTE	W06
	BYTE		        Fn3 
	BYTE	W06
	BYTE		        Ds3 
	BYTE	W06
	BYTE		        Dn3 
	BYTE	W06
	BYTE		N36     Ds3 
	BYTE	W36
	BYTE		N06     Cn3 
	BYTE	W06
	BYTE		        Dn3 
	BYTE	W06
	BYTE		N12     Ds3 
	BYTE	W12
	BYTE		N06     Cn3 
	BYTE	W06
	BYTE		        Dn3 
	BYTE	W06
	BYTE		        Ds3 
	BYTE	W06
	BYTE		        Gn3 
	BYTE	W06
	BYTE		        Fn3 
	BYTE	W06
	BYTE		        Ds3 
	BYTE	W06
	BYTE		N30     Fn3 
	BYTE	W36
	BYTE		N06     Dn3 
	BYTE	W06
	BYTE		        Ds3 
	BYTE	W06
	BYTE		        Fn3 
	BYTE	W12
	BYTE		        Dn3 
	BYTE	W06
	BYTE		        Ds3 
	BYTE	W06
	BYTE		        Fn3 
	BYTE	W06
	BYTE		        Gs3 
	BYTE	W06
	BYTE		        Gn3 
	BYTE	W06
	BYTE		        Fn3 
	BYTE	W06
	BYTE		N18     Gn3 
	BYTE	W18
	BYTE		        Fn3 
	BYTE	W18
	BYTE		N12     Ds3 
	BYTE	W12
	BYTE		N18     As3 
	BYTE	W18
	BYTE		        Gs3 
	BYTE	W18
	BYTE		N12     Gn3 
	BYTE	W12
	BYTE		N36     Dn3 
	BYTE	W36
	BYTE		N06     Bn2 
	BYTE	W06
	BYTE		        Cn3 
	BYTE	W06
	BYTE		N12     Dn3 
	BYTE	W12
	BYTE		N06     Bn2 
	BYTE	W06
	BYTE		        Cn3 
	BYTE	W06
	BYTE		        Dn3 
	BYTE	W06
	BYTE		        Fn3 
	BYTE	W06
	BYTE		        Ds3 
	BYTE	W06
	BYTE		        Dn3 
	BYTE	W06
	BYTE		N36     Ds3 
	BYTE	W36
	BYTE		N06     Cn3 
	BYTE	W06
	BYTE		        Dn3 
	BYTE	W06
	BYTE		N12     Ds3 
	BYTE	W12
	BYTE		N06     Cn3 
	BYTE	W06
	BYTE		        Dn3 
	BYTE	W06
	BYTE		        Ds3 
	BYTE	W06
	BYTE		        Gn3 
	BYTE	W06
	BYTE		        Fn3 
	BYTE	W06
	BYTE		        Ds3 
	BYTE	W06
	BYTE		N30     Fn3 
	BYTE	W36
	BYTE		N06     Dn3 
	BYTE	W06
	BYTE		        Ds3 
	BYTE	W06
	BYTE		        Fn3 
	BYTE	W12
	BYTE		        Dn3 
	BYTE	W06
	BYTE		        Ds3 
	BYTE	W06
	BYTE		        Fn3 
	BYTE	W06
	BYTE		        Gs3 
	BYTE	W06
	BYTE		        Gn3 
	BYTE	W06
	BYTE		        Fn3 
	BYTE	W06
	BYTE		N18     Gn3 
	BYTE	W18
	BYTE		        Fn3 
	BYTE	W18
	BYTE		N12     Gn3 
	BYTE	W12
	BYTE		N18     Bn3 
	BYTE	W18
	BYTE		        Cn4 
	BYTE	W18
	BYTE		N12     Dn4 
	BYTE	W12
	BYTE		N18     Ds4 
	BYTE	W18
	BYTE		        Dn4 
	BYTE	W18
	BYTE		        Cn4 
	BYTE	W18
	BYTE		        Dn4 
	BYTE	W18
	BYTE		N12     Ds4 
	BYTE	W12
	BYTE		        Cn4 
	BYTE	W12
	BYTE		N18     An3 
	BYTE	W18
	BYTE		        Fs3 
	BYTE	W18
	BYTE		N12     Ds3 
	BYTE	W12
	BYTE		N18     Cn3 
	BYTE	W18
	BYTE		        Bn2 
	BYTE	W18
	BYTE		N12     An2 
	BYTE	W12
	BYTE		N90     Cn3 
	BYTE	W90
	BYTE		N06     Gn3 
	BYTE	W06
	BYTE		N84   
	BYTE	W96
	BYTE		N06     Gn2   v080
	BYTE	W06
	BYTE		        Cn3   v092
	BYTE	W06
	BYTE		        Ds3   v100
	BYTE	W06
	BYTE		        Gn3 
	BYTE	W06
	BYTE		        Fn3   v096
	BYTE	W12
	BYTE		        Cn4   v100
	BYTE	W12
	BYTE		        Ds3   v096
	BYTE	W12
	BYTE		        Cn4   v100
	BYTE	W12
	BYTE		        Fn3   v096
	BYTE	W12
	BYTE		        Bn3   v100
	BYTE	W12
	BYTE		        Cn2   v080
	BYTE	W06
	BYTE		        Cn3   v092
	BYTE	W06
	BYTE		        Ds3   v100
	BYTE	W06
	BYTE		        Gn3 
	BYTE	W06
	BYTE		        Fn3   v096
	BYTE	W12
	BYTE		        Cn4   v100
	BYTE	W12
	BYTE		        Ds3   v096
	BYTE	W12
	BYTE		        Cn4   v100
	BYTE	W12
	BYTE		        Dn3   v096
	BYTE	W12
	BYTE		        Bn3   v100
	BYTE	W12
	BYTE		        Gn2   v080
	BYTE	W06
	BYTE		        Cn3   v092
	BYTE	W06
	BYTE		        Ds3   v100
	BYTE	W06
	BYTE		        Gn3 
	BYTE	W06
	BYTE		        Fn3   v096
	BYTE	W12
	BYTE		        Cn4   v100
	BYTE	W12
	BYTE		        Ds3   v096
	BYTE	W12
	BYTE		        Cn4   v100
	BYTE	W12
	BYTE		        Fn3   v096
	BYTE	W12
	BYTE		        Bn3   v100
	BYTE	W12
	BYTE		        Cn2   v080
	BYTE	W06
	BYTE		        Cn3   v092
	BYTE	W06
	BYTE		        Ds3   v100
	BYTE	W06
	BYTE		        Gn3 
	BYTE	W06
	BYTE		        Fn3   v096
	BYTE	W12
	BYTE		        Cn4   v100
	BYTE	W12
	BYTE		        Ds3   v096
	BYTE	W12
	BYTE		        Cn4   v100
	BYTE	W12
	BYTE		        Dn3   v096
	BYTE	W06
	BYTE		        Fn3   v100
	BYTE	W06
	BYTE		        Gn3 
	BYTE	W06
	BYTE		        Bn3 
	BYTE	W12
	BYTE		        Gn2 
	BYTE	W06
	BYTE		        Cn3 
	BYTE	W06
	BYTE		        Ds3 
	BYTE	W06
	BYTE		        Dn3 
	BYTE	W12
	BYTE		        Gn3 
	BYTE	W12
	BYTE		        Fn3 
	BYTE	W12
	BYTE		        Cn4 
	BYTE	W12
	BYTE		        Ds3 
	BYTE	W12
	BYTE		        Cn4 
	BYTE	W12
	BYTE		        An2 
	BYTE	W06
	BYTE		        Fs2 
	BYTE	W06
	BYTE		        Ds2 
	BYTE	W06
	BYTE		        Fs2 
	BYTE	W06
	BYTE		        An2 
	BYTE	W06
	BYTE		        Cn3 
	BYTE	W06
	BYTE		        Ds3 
	BYTE	W06
	BYTE		        Cn3 
	BYTE	W06
	BYTE		        Cn4 
	BYTE	W06
	BYTE		        An3 
	BYTE	W06
	BYTE		        Fs3 
	BYTE	W06
	BYTE		        An3 
	BYTE	W06
	BYTE		        Cn4 
	BYTE	W06
	BYTE		        Dn4 
	BYTE	W06
	BYTE		        Ds4 
	BYTE	W06
	BYTE		        Cn4 
	BYTE	W06
	BYTE		        Gn3 
	BYTE	W12
	BYTE		        Gs3 
	BYTE	W12
	BYTE		        Cn4 
	BYTE	W12
	BYTE		        Bn3 
	BYTE	W12
	BYTE		        Ds4 
	BYTE	W12
	BYTE		        Dn4 
	BYTE	W12
	BYTE		        Gs4 
	BYTE	W12
	BYTE		        Gn4 
	BYTE	W12
	BYTE		        Dn3 
	BYTE	W06
	BYTE		        Ds3 
	BYTE	W06
	BYTE		        Fn3 
	BYTE	W06
	BYTE		        Bn2 
	BYTE	W06
	BYTE		        Cn3 
	BYTE	W06
	BYTE		        Dn3 
	BYTE	W06
	BYTE		        Gn2 
	BYTE	W06
	BYTE		        An2 
	BYTE	W06
	BYTE		        Bn2 
	BYTE	W06
	BYTE		        Cn3 
	BYTE	W06
	BYTE		        Dn3 
	BYTE	W06
	BYTE		        Ds3 
	BYTE	W06
	BYTE		        Fn3 
	BYTE	W06
	BYTE		        Bn2 
	BYTE	W06
	BYTE		        Cn3 
	BYTE	W06
	BYTE		        Dn3 
	BYTE	W06
	BYTE	GoTo
	 POIN2	Fillmore_5_B1
Fillmore_5_B2:
	BYTE		N36     Ds3   v120
	BYTE	W36
	BYTE		N06     Cn3 
	BYTE	W06
	BYTE		        Dn3 
	BYTE	W06
	BYTE		N12     Ds3 
	BYTE	W12
	BYTE		N06     Cn3 
	BYTE	W06
	BYTE		        Dn3 
	BYTE	W06
	BYTE		        Ds3 
	BYTE	W12
	BYTE		        Gn3 
	BYTE	W12
	BYTE		N36     Fn3 
	BYTE	W36
	BYTE		N54     Cn3 
	BYTE	W54
	BYTE		N06     Dn3 
	BYTE	W06
	BYTE		N36     Ds3 
	BYTE	W36
	BYTE		N06     Cn3 
	BYTE	W06
	BYTE	FINE

//**************** Track 6 (Midi-Chn.6) ****************//

Fillmore_6:
	BYTE	KEYSH   Fillmore_key+0
// 000   ----------------------------------------
	BYTE		VOICE   123
	BYTE		VOL     63*Fillmore_mvl/mxv
	BYTE		PAN     c_v+0
	BYTE		N12     Cn1   v076
	BYTE	W12
	BYTE		N06     As4   v060
	BYTE	W06
	BYTE		N06   
	BYTE	W06
	BYTE		N12     Cn1   v076
	BYTE	W12
	BYTE		N06     As4   v060
	BYTE	W06
	BYTE		N06   
	BYTE	W06
	BYTE		N12     Cn1   v076
	BYTE	W12
	BYTE		N06     As4   v060
	BYTE	W06
	BYTE		N06   
	BYTE	W06
	BYTE		N12     Cn1   v076
	BYTE	W12
	BYTE		N06     As4   v060
	BYTE	W06
	BYTE		N06   
	BYTE	W06
	BYTE		N12     Cn1   v076
	BYTE	W12
	BYTE		N06     As4   v060
	BYTE	W06
	BYTE		N06   
	BYTE	W06
	BYTE		N12     Cn1   v076
	BYTE	W12
	BYTE		N06     As4   v060
	BYTE	W06
	BYTE		N06   
	BYTE	W06
	BYTE		N12     Cn1   v076
	BYTE	W12
	BYTE		N06     As4   v060
	BYTE	W06
	BYTE		N06   
	BYTE	W06
	BYTE		N12     Cn1   v076
	BYTE	W12
	BYTE		N06     As4   v060
	BYTE	W06
	BYTE		N06   
	BYTE	W06
	BYTE		        Dn1   v080
	BYTE	W06
	BYTE		        Cn1   v076
	BYTE	W06
	BYTE		N06   
	BYTE		N06     As4   v060
	BYTE	W06
	BYTE		        Dn1   v080
	BYTE		N06     As4   v060
	BYTE	W06
	BYTE		        Cn1   v076
	BYTE	W06
	BYTE		N06   
	BYTE	W06
	BYTE		        Dn1   v080
	BYTE		N06     As4   v060
	BYTE	W06
	BYTE		        Cn1   v076
	BYTE		N06     As4   v060
	BYTE	W06
	BYTE		        Cn1   v076
	BYTE	W06
	BYTE		        Dn1   v080
	BYTE	W06
	BYTE		        Cn1   v076
	BYTE		N06     As4   v060
	BYTE	W06
	BYTE		        Cn1   v076
	BYTE		N06     As4   v060
	BYTE	W06
	BYTE		        Dn1   v080
	BYTE	W06
	BYTE		        Cn1   v076
	BYTE	W06
	BYTE		        Dn1   v080
	BYTE		N06     As4   v060
	BYTE	W06
	BYTE		        Dn1   v080
	BYTE		N06     As4   v060
	BYTE	W06
	BYTE		        Cn1   v076
	BYTE	W54
	BYTE		        Dn1   v080
	BYTE	W06
	BYTE		N06   
	BYTE	W06
	BYTE		N06   
	BYTE	W06
	BYTE		N03   
	BYTE	W03
	BYTE		N03   
	BYTE	W03
	BYTE		N06   
	BYTE	W06
	BYTE		N06   
	BYTE	W06
	BYTE		N06   
	BYTE	W06
Fillmore_6_B1:
	BYTE		N12     Cn1   v076
	BYTE	W24
	BYTE		        Dn1   v080
	BYTE	W24
	BYTE		        Cn1   v076
	BYTE	W24
	BYTE		        Dn1   v080
	BYTE	W06
	BYTE		        Cn1   v076
	BYTE	W18
	BYTE		N12   
	BYTE	W24
	BYTE		        Dn1   v080
	BYTE	W24
	BYTE		        Cn1   v076
	BYTE	W24
	BYTE		        Dn1   v080
	BYTE	W06
	BYTE		N06     Cn1   v076
	BYTE	W12
	BYTE		N06   
	BYTE	W06
	BYTE		N12   
	BYTE	W24
	BYTE		        Dn1   v080
	BYTE	W24
	BYTE		        Cn1   v076
	BYTE	W24
	BYTE		        Dn1   v080
	BYTE	W06
	BYTE		        Cn1   v076
	BYTE	W18
	BYTE		N12   
	BYTE	W24
	BYTE		        Dn1   v080
	BYTE	W24
	BYTE		        Cn1   v076
	BYTE	W24
	BYTE		        Dn1   v080
	BYTE	W06
	BYTE		N06     Cn1   v076
	BYTE	W12
	BYTE		N06   
	BYTE	W06
	BYTE		N12   
	BYTE	W24
	BYTE		        Dn1   v080
	BYTE	W24
	BYTE		        Cn1   v076
	BYTE	W24
	BYTE		        Dn1   v080
	BYTE	W06
	BYTE		        Cn1   v076
	BYTE	W18
	BYTE		N12   
	BYTE	W24
	BYTE		        Dn1   v080
	BYTE	W24
	BYTE		        Cn1   v076
	BYTE	W24
	BYTE		        Dn1   v080
	BYTE	W06
	BYTE		N06     Cn1   v076
	BYTE	W12
	BYTE		N06   
	BYTE	W06
	BYTE		N12   
	BYTE	W24
	BYTE		        Dn1   v080
	BYTE	W24
	BYTE		        Cn1   v076
	BYTE	W24
	BYTE		        Dn1   v080
	BYTE	W06
	BYTE		        Cn1   v076
	BYTE	W18
	BYTE		N12   
	BYTE	W24
	BYTE		        Dn1   v080
	BYTE	W24
	BYTE		        Cn1   v076
	BYTE	W24
	BYTE		        Dn1   v080
	BYTE	W06
	BYTE		N06     Cn1   v076
	BYTE	W12
	BYTE		N06   
	BYTE	W06
	BYTE		N12   
	BYTE	W24
	BYTE		        Dn1   v080
	BYTE	W24
	BYTE		        Cn1   v076
	BYTE	W24
	BYTE		        Dn1   v080
	BYTE	W06
	BYTE		        Cn1   v076
	BYTE	W18
	BYTE		N12   
	BYTE	W24
	BYTE		        Dn1   v080
	BYTE	W24
	BYTE		        Cn1   v076
	BYTE	W24
	BYTE		        Dn1   v080
	BYTE	W06
	BYTE		N06     Cn1   v076
	BYTE	W12
	BYTE		N06   
	BYTE	W06
	BYTE		N12   
	BYTE	W24
	BYTE		        Dn1   v080
	BYTE	W24
	BYTE		        Cn1   v076
	BYTE	W24
	BYTE		        Dn1   v080
	BYTE	W06
	BYTE		        Cn1   v076
	BYTE	W18
	BYTE		N12   
	BYTE	W24
	BYTE		        Dn1   v080
	BYTE	W24
	BYTE		        Cn1   v076
	BYTE	W24
	BYTE		        Dn1   v080
	BYTE	W06
	BYTE		N06     Cn1   v076
	BYTE	W06
	BYTE		        Dn1   v080
	BYTE	W06
	BYTE		N06   
	BYTE	W06
	BYTE		N12     Cn1   v076
	BYTE	W24
	BYTE		N12   
	BYTE	W24
	BYTE		N12   
	BYTE	W12
	BYTE		N06     As4   v060
	BYTE	W06
	BYTE		N06   
	BYTE	W06
	BYTE		N12     Cn1   v076
	BYTE		N12     Dn1   v080
	BYTE	W24
	BYTE		        Cn1   v076
	BYTE	W24
	BYTE		N12   
	BYTE	W24
	BYTE		N12   
	BYTE	W12
	BYTE		N06     As4   v060
	BYTE	W06
	BYTE		N06   
	BYTE	W06
	BYTE		N12     Cn1   v076
	BYTE		N12     Dn1   v080
	BYTE	W24
	BYTE		        Cn1   v076
	BYTE	W24
	BYTE		N12   
	BYTE	W24
	BYTE		N12   
	BYTE	W12
	BYTE		N06     As4   v060
	BYTE	W06
	BYTE		N06   
	BYTE	W06
	BYTE		N12     Cn1   v076
	BYTE		N12     Dn1   v080
	BYTE	W24
	BYTE		        Cn1   v076
	BYTE	W24
	BYTE		N12   
	BYTE	W24
	BYTE		N12   
	BYTE	W06
	BYTE		N06     Dn1   v080
	BYTE	W06
	BYTE		N06   
	BYTE	W12
	BYTE		N12     Cn1   v076
	BYTE		N06     Dn1   v080
	BYTE	W12
	BYTE		N06   
	BYTE	W06
	BYTE		N06   
	BYTE	W06
	BYTE		N12     Cn1   v076
	BYTE	W24
	BYTE		N06     Dn1   v080
	BYTE	W24
	BYTE		N12     Cn1   v076
	BYTE	W24
	BYTE		N06     Dn1   v080
	BYTE	W12
	BYTE		        En2   v096
	BYTE	W12
	BYTE		N12     Cn1   v076
	BYTE	W24
	BYTE		N06     Dn1   v080
	BYTE	W24
	BYTE		N12     Cn1   v076
	BYTE	W24
	BYTE		N06     Dn1   v080
	BYTE	W12
	BYTE		        En2   v096
	BYTE	W12
	BYTE		N12     Cn1   v076
	BYTE	W24
	BYTE		N06     Dn1   v080
	BYTE	W24
	BYTE		N12     Cn1   v076
	BYTE	W24
	BYTE		N06     Dn1   v080
	BYTE	W12
	BYTE		        En2   v096
	BYTE	W12
	BYTE		N12     Cn1   v076
	BYTE	W24
	BYTE		N12   
	BYTE		N06     Dn1   v080
	BYTE	W24
	BYTE		N12     Cn1   v076
	BYTE	W24
	BYTE		N12   
	BYTE		N06     Dn1   v080
	BYTE	W06
	BYTE		N06   
	BYTE	W06
	BYTE		N06   
	BYTE	W06
	BYTE		N06   
	BYTE	W06
	BYTE		N12     Cn1   v076
	BYTE	W12
	BYTE		N06     As4   v060
	BYTE	W06
	BYTE		N06   
	BYTE	W06
	BYTE		N12     Cn1   v076
	BYTE	W12
	BYTE		N06     As4   v060
	BYTE	W06
	BYTE		N06   
	BYTE	W06
	BYTE		N12     Cn1   v076
	BYTE	W12
	BYTE		N06     As4   v060
	BYTE	W06
	BYTE		N06   
	BYTE	W06
	BYTE		N12     Cn1   v076
	BYTE	W12
	BYTE		N06     As4   v060
	BYTE	W06
	BYTE		N06   
	BYTE	W06
	BYTE		N12     Cn1   v076
	BYTE	W12
	BYTE		N06     As4   v060
	BYTE	W06
	BYTE		N06   
	BYTE	W06
	BYTE		N12     Cn1   v076
	BYTE	W12
	BYTE		N06     As4   v060
	BYTE	W06
	BYTE		N06   
	BYTE	W06
	BYTE		N12     Cn1   v076
	BYTE	W12
	BYTE		N06     As4   v060
	BYTE	W06
	BYTE		N06   
	BYTE	W06
	BYTE		N12     Cn1   v076
	BYTE	W12
	BYTE		N06     As4   v060
	BYTE	W06
	BYTE		N06   
	BYTE	W06
	BYTE		        Dn1   v080
	BYTE	W06
	BYTE		        Cn1   v076
	BYTE	W06
	BYTE		N06   
	BYTE		N06     As4   v060
	BYTE	W06
	BYTE		        Dn1   v080
	BYTE		N06     As4   v060
	BYTE	W06
	BYTE		        Cn1   v076
	BYTE	W06
	BYTE		N06   
	BYTE	W06
	BYTE		        Dn1   v080
	BYTE		N06     As4   v060
	BYTE	W06
	BYTE		        Cn1   v076
	BYTE		N06     As4   v060
	BYTE	W06
	BYTE		        Cn1   v076
	BYTE	W06
	BYTE		        Dn1   v080
	BYTE	W06
	BYTE		        Cn1   v076
	BYTE		N06     As4   v060
	BYTE	W06
	BYTE		        Cn1   v076
	BYTE		N06     As4   v060
	BYTE	W06
	BYTE		        Dn1   v080
	BYTE	W06
	BYTE		        Cn1   v076
	BYTE	W06
	BYTE		        Dn1   v080
	BYTE		N06     As4   v060
	BYTE	W06
	BYTE		        Dn1   v080
	BYTE		N06     As4   v060
	BYTE	W06
	BYTE		        Cn1   v076
	BYTE	W54
	BYTE		        Dn1   v080
	BYTE	W06
	BYTE		N06   
	BYTE	W06
	BYTE		N06   
	BYTE	W06
	BYTE		N03   
	BYTE	W03
	BYTE		N03   
	BYTE	W03
	BYTE		N06   
	BYTE	W06
	BYTE		N06   
	BYTE	W06
	BYTE		N06   
	BYTE	W06
	BYTE	GoTo
	 POIN2	Fillmore_6_B1
Fillmore_6_B2:
	BYTE		N12     Cn1   v076
	BYTE	W24
	BYTE		        Dn1   v080
	BYTE	W24
	BYTE		        Cn1   v076
	BYTE	W24
	BYTE		        Dn1   v080
	BYTE	W06
	BYTE		        Cn1   v076
	BYTE	W18
	BYTE		N12   
	BYTE	W24
	BYTE		        Dn1   v080
	BYTE	W24
	BYTE		        Cn1   v076
	BYTE	W24
	BYTE		        Dn1   v080
	BYTE	W06
	BYTE		N06     Cn1   v076
	BYTE	W12
	BYTE		N06   
	BYTE	W06
	BYTE		N12   
	BYTE	W24
	BYTE		        Dn1   v080
	BYTE	W18
	BYTE	FINE

//******************************************************//
	ALIGN 4

Fillmore:
	BYTE	6	// NumTrks
	BYTE	0	// NumBlks
	BYTE	Fillmore_pri	// Priority
	BYTE	Fillmore_rev	// Reverb.

	POIN2	Fillmore_grp

	POIN2	Fillmore_1
	POIN2	Fillmore_2
	POIN2	Fillmore_3
	POIN2	Fillmore_4
	POIN2	Fillmore_5
	POIN2	Fillmore_6

	
