//Event file generated from Sappy .s format.
	#include "MPlayDef.event"

	#define	FindTheTruth_grp  voicegroup000
	#define	FindTheTruth_pri  0
	#define	FindTheTruth_rev  0
	#define	FindTheTruth_mvl  50
	#define	FindTheTruth_key  0
	#define	FindTheTruth_tbs  1
	#define	FindTheTruth_exg  0
	#define	FindTheTruth_cmp  1

	// .rodata
	//	FindTheTruth
	ALIGN 4

//**************** Track 1 (Midi-Chn.1) ****************//

FindTheTruth_1:
	BYTE	KEYSH   FindTheTruth_key+0
FindTheTruth_1_B1:
// 000   ----------------------------------------
	BYTE	TEMPO   101*FindTheTruth_tbs/2
	BYTE		VOICE   32
	BYTE		VOL     127*FindTheTruth_mvl/mxv
	BYTE		PAN     c_v+0
	BYTE		N24     Cn2   v100
	BYTE	W24
	BYTE		        As2 
	BYTE	W24
	BYTE		        An2 
	BYTE	W24
	BYTE		N08     Ds2 
	BYTE	W16
	BYTE		N08   
	BYTE	W08
// 001   ----------------------------------------
	BYTE		        Dn2 
	BYTE	W16
	BYTE		N08   
	BYTE	W08
	BYTE		N24     Gs2 
	BYTE	W24
	BYTE		        Gn2 
	BYTE	W24
	BYTE		        Cs2 
	BYTE	W24
// 002   ----------------------------------------
	BYTE		        Cn2 
	BYTE	W24
	BYTE		        As2 
	BYTE	W24
	BYTE		        An2 
	BYTE	W24
	BYTE		N08     Ds2 
	BYTE	W16
	BYTE		N08   
	BYTE	W08
// 003   ----------------------------------------
	BYTE		        Dn2 
	BYTE	W16
	BYTE		N08   
	BYTE	W08
	BYTE		        Cn2 
	BYTE	W08
	BYTE		        Dn2 
	BYTE	W08
	BYTE		        Cn2 
	BYTE	W08
	BYTE		N24     Bn1 
	BYTE	W24
	BYTE		N08   
	BYTE	W08
	BYTE		        Dn2 
	BYTE	W08
	BYTE		        Gn2 
	BYTE	W08
// 004   ----------------------------------------
FindTheTruth_1_004:
	BYTE		N08     Cn2   v100
	BYTE	W08
	BYTE		N08   
	BYTE	W08
	BYTE		N08   
	BYTE	W80
	BYTE	PEND
// 005   ----------------------------------------
	BYTE	PATT
	 POIN2	FindTheTruth_1_004
// 006   ----------------------------------------
	BYTE	W96
// 007   ----------------------------------------
	BYTE	W96
	BYTE	GoTo
	 POIN2	FindTheTruth_1_B1
FindTheTruth_1_B2:
// 008   ----------------------------------------
	BYTE	FINE

//**************** Track 2 (Midi-Chn.2) ****************//

FindTheTruth_2:
	BYTE	KEYSH   FindTheTruth_key+0
FindTheTruth_2_B1:
// 000   ----------------------------------------
	BYTE		VOICE   80
	BYTE		VOL     127*FindTheTruth_mvl/mxv
	BYTE		PAN     c_v+0
	BYTE		N08     Cn2   v100
	BYTE	W08
	BYTE		        Fs2 
	BYTE	W08
	BYTE		        Gn2 
	BYTE	W08
	BYTE		N68     Fs2 
	BYTE	W72
// 001   ----------------------------------------
	BYTE		N92     Gn2 
	BYTE	W96
// 002   ----------------------------------------
	BYTE		N08     Cn2 
	BYTE	W08
	BYTE		        Fs2 
	BYTE	W08
	BYTE		        Gn2 
	BYTE	W08
	BYTE		N52     Fs2 
	BYTE	W56
	BYTE		N08     Gn2 
	BYTE	W08
	BYTE		        Gs2 
	BYTE	W08
// 003   ----------------------------------------
	BYTE		N92     Gn2 
	BYTE	W96
// 004   ----------------------------------------
FindTheTruth_2_004:
	BYTE		N16     As2   v100
	BYTE	W16
	BYTE		N04     An2 
	BYTE	W04
	BYTE		        Gs2 
	BYTE	W04
	BYTE		N12     Gn2 
	BYTE	W72
	BYTE	PEND
// 005   ----------------------------------------
	BYTE	PATT
	 POIN2	FindTheTruth_2_004
// 006   ----------------------------------------
	BYTE		N08     Cs2   v100
	BYTE	W08
	BYTE		N04     Cn2 
	BYTE	W08
	BYTE		N04   
	BYTE	W08
	BYTE		N08     Bn1 
	BYTE	W08
	BYTE		N04     Cn2 
	BYTE	W08
	BYTE		N04   
	BYTE	W08
	BYTE		N08     Cs2 
	BYTE	W08
	BYTE		N04     Cn2 
	BYTE	W08
	BYTE		N04   
	BYTE	W08
	BYTE		N08     Cs2 
	BYTE	W08
	BYTE		N04   
	BYTE	W08
	BYTE		        Dn2 
	BYTE	W08
// 007   ----------------------------------------
	BYTE		N08     Ds2 
	BYTE	W08
	BYTE		N04     Dn2 
	BYTE	W08
	BYTE		N04   
	BYTE	W08
	BYTE		N08     Cs2 
	BYTE	W08
	BYTE		N04     Dn2 
	BYTE	W08
	BYTE		N04   
	BYTE	W08
	BYTE		N08     Ds2 
	BYTE	W08
	BYTE		N04     Dn2 
	BYTE	W08
	BYTE		N04   
	BYTE	W08
	BYTE		N08     Ds2 
	BYTE	W08
	BYTE		        En2 
	BYTE	W08
	BYTE		        Fn2 
	BYTE	W08
	BYTE	GoTo
	 POIN2	FindTheTruth_2_B1
FindTheTruth_2_B2:
// 008   ----------------------------------------
	BYTE	FINE

//**************** Track 3 (Midi-Chn.3) ****************//

FindTheTruth_3:
	BYTE	KEYSH   FindTheTruth_key+0
FindTheTruth_3_B1:
// 000   ----------------------------------------
	BYTE		VOICE   81
	BYTE		VOL     90*FindTheTruth_mvl/mxv
	BYTE		PAN     c_v+0
	BYTE		BEND    c_v-1
	BYTE	W04
	BYTE		N08     Cn4   v100
	BYTE	W08
	BYTE		        Fs4 
	BYTE	W08
	BYTE		        Gn4 
	BYTE	W08
	BYTE		N68     Fs4 
	BYTE	W68
// 001   ----------------------------------------
	BYTE	W04
	BYTE		N92     Gn4 
	BYTE	W92
// 002   ----------------------------------------
	BYTE	W04
	BYTE		N08     Cn4 
	BYTE	W08
	BYTE		        Fs4 
	BYTE	W08
	BYTE		        Gn4 
	BYTE	W08
	BYTE		N52     Fs4 
	BYTE	W56
	BYTE		N08     Gn4 
	BYTE	W08
	BYTE		        Gs4 
	BYTE	W04
// 003   ----------------------------------------
	BYTE	W04
	BYTE		N92     Gn4 
	BYTE	W92
// 004   ----------------------------------------
FindTheTruth_3_004:
	BYTE	W04
	BYTE		N16     As4   v100
	BYTE	W16
	BYTE		N04     An4 
	BYTE	W04
	BYTE		        Gs4 
	BYTE	W04
	BYTE		N12     Gn4 
	BYTE	W68
	BYTE	PEND
// 005   ----------------------------------------
	BYTE	PATT
	 POIN2	FindTheTruth_3_004
// 006   ----------------------------------------
	BYTE	W04
	BYTE		N08     Cs4   v100
	BYTE	W08
	BYTE		N04     Cn4 
	BYTE	W08
	BYTE		N04   
	BYTE	W08
	BYTE		N08     Bn3 
	BYTE	W08
	BYTE		N04     Cn4 
	BYTE	W08
	BYTE		N04   
	BYTE	W08
	BYTE		N08     Cs4 
	BYTE	W08
	BYTE		N04     Cn4 
	BYTE	W08
	BYTE		N04   
	BYTE	W08
	BYTE		N08     Cs4 
	BYTE	W08
	BYTE		N04   
	BYTE	W08
	BYTE		        Dn4 
	BYTE	W04
// 007   ----------------------------------------
	BYTE	W04
	BYTE		N08     Ds4 
	BYTE	W08
	BYTE		N04     Dn4 
	BYTE	W08
	BYTE		N04   
	BYTE	W08
	BYTE		N08     Cs4 
	BYTE	W08
	BYTE		N04     Dn4 
	BYTE	W08
	BYTE		N04   
	BYTE	W08
	BYTE		N08     Ds4 
	BYTE	W08
	BYTE		N04     Dn4 
	BYTE	W08
	BYTE		N04   
	BYTE	W08
	BYTE		N08     Ds4 
	BYTE	W08
	BYTE		        En4 
	BYTE	W08
	BYTE		N04     Fn4 
	BYTE	W04
	BYTE	GoTo
	 POIN2	FindTheTruth_3_B1
FindTheTruth_3_B2:
// 008   ----------------------------------------
	BYTE	FINE

//**************** Track 4 (Midi-Chn.4) ****************//

FindTheTruth_4:
	BYTE	KEYSH   FindTheTruth_key+0
FindTheTruth_4_B1:
// 000   ----------------------------------------
	BYTE		VOICE   81
	BYTE		VOL     90*FindTheTruth_mvl/mxv
	BYTE		PAN     c_v+0
	BYTE		BEND    c_v+1
	BYTE	W08
	BYTE		N08     Cn4   v100
	BYTE	W08
	BYTE		        Fs4 
	BYTE	W08
	BYTE		        Gn4 
	BYTE	W08
	BYTE		N68     Fs4 
	BYTE	W64
// 001   ----------------------------------------
	BYTE	W08
	BYTE		N92     Gn4 
	BYTE	W88
// 002   ----------------------------------------
	BYTE	W08
	BYTE		N08     Cn4 
	BYTE	W08
	BYTE		        Fs4 
	BYTE	W08
	BYTE		        Gn4 
	BYTE	W08
	BYTE		N52     Fs4 
	BYTE	W56
	BYTE		N08     Gn4 
	BYTE	W08
// 003   ----------------------------------------
	BYTE		        Gs4 
	BYTE	W08
	BYTE		N92     Gn4 
	BYTE	W88
// 004   ----------------------------------------
FindTheTruth_4_004:
	BYTE	W08
	BYTE		N16     As4   v100
	BYTE	W16
	BYTE		N04     An4 
	BYTE	W04
	BYTE		        Gs4 
	BYTE	W04
	BYTE		N12     Gn4 
	BYTE	W64
	BYTE	PEND
// 005   ----------------------------------------
	BYTE	PATT
	 POIN2	FindTheTruth_4_004
// 006   ----------------------------------------
	BYTE	W08
	BYTE		N08     Cs4   v100
	BYTE	W08
	BYTE		N04     Cn4 
	BYTE	W08
	BYTE		N04   
	BYTE	W08
	BYTE		N08     Bn3 
	BYTE	W08
	BYTE		N04     Cn4 
	BYTE	W08
	BYTE		N04   
	BYTE	W08
	BYTE		N08     Cs4 
	BYTE	W08
	BYTE		N04     Cn4 
	BYTE	W08
	BYTE		N04   
	BYTE	W08
	BYTE		N08     Cs4 
	BYTE	W08
	BYTE		N04   
	BYTE	W08
// 007   ----------------------------------------
	BYTE		        Dn4 
	BYTE	W08
	BYTE		N08     Ds4 
	BYTE	W08
	BYTE		N04     Dn4 
	BYTE	W08
	BYTE		N04   
	BYTE	W08
	BYTE		N08     Cs4 
	BYTE	W08
	BYTE		N04     Dn4 
	BYTE	W08
	BYTE		N04   
	BYTE	W08
	BYTE		N08     Ds4 
	BYTE	W08
	BYTE		N04     Dn4 
	BYTE	W08
	BYTE		N04   
	BYTE	W08
	BYTE		N08     Ds4 
	BYTE	W08
	BYTE		        En4 
	BYTE	W08
	BYTE	GoTo
	 POIN2	FindTheTruth_4_B1
FindTheTruth_4_B2:
// 008   ----------------------------------------
	BYTE	FINE

//**************** Track 5 (Midi-Chn.5) ****************//

FindTheTruth_5:
	BYTE	KEYSH   FindTheTruth_key+0
FindTheTruth_5_B1:
// 000   ----------------------------------------
	BYTE		VOICE   32
	BYTE		VOL     90*FindTheTruth_mvl/mxv
	BYTE		PAN     c_v+0
	BYTE	W04
	BYTE		N24     Cn2   v100
	BYTE	W24
	BYTE		        As2 
	BYTE	W24
	BYTE		        An2 
	BYTE	W24
	BYTE		N08     Ds2 
	BYTE	W16
	BYTE		N08   
	BYTE	W04
// 001   ----------------------------------------
	BYTE	W04
	BYTE		        Dn2 
	BYTE	W16
	BYTE		N08   
	BYTE	W08
	BYTE		N24     Gs2 
	BYTE	W24
	BYTE		        Gn2 
	BYTE	W24
	BYTE		        Cs2 
	BYTE	W20
// 002   ----------------------------------------
	BYTE	W04
	BYTE		        Cn2 
	BYTE	W24
	BYTE		        As2 
	BYTE	W24
	BYTE		        An2 
	BYTE	W24
	BYTE		N08     Ds2 
	BYTE	W16
	BYTE		N08   
	BYTE	W04
// 003   ----------------------------------------
	BYTE	W04
	BYTE		        Dn2 
	BYTE	W16
	BYTE		N08   
	BYTE	W08
	BYTE		        Cn2 
	BYTE	W08
	BYTE		        Dn2 
	BYTE	W08
	BYTE		        Cn2 
	BYTE	W08
	BYTE		N24     Bn1 
	BYTE	W24
	BYTE		N08   
	BYTE	W08
	BYTE		        Dn2 
	BYTE	W08
	BYTE		        Gn2 
	BYTE	W04
// 004   ----------------------------------------
FindTheTruth_5_004:
	BYTE	W04
	BYTE		N08     Cn2   v100
	BYTE	W08
	BYTE		N08   
	BYTE	W08
	BYTE		N08   
	BYTE	W76
	BYTE	PEND
// 005   ----------------------------------------
	BYTE	PATT
	 POIN2	FindTheTruth_5_004
// 006   ----------------------------------------
	BYTE	W96
// 007   ----------------------------------------
	BYTE	W96
	BYTE	GoTo
	 POIN2	FindTheTruth_5_B1
FindTheTruth_5_B2:
// 008   ----------------------------------------
	BYTE	FINE

//**************** Track 6 (Midi-Chn.6) ****************//

FindTheTruth_6:
	BYTE	KEYSH   FindTheTruth_key+0
FindTheTruth_6_B1:
// 000   ----------------------------------------
	BYTE		VOICE   123
	BYTE		VOL     127*FindTheTruth_mvl/mxv
	BYTE		PAN     c_v+0
	BYTE		N04     As1   v100
	BYTE	W24
	BYTE		        Fs1 
	BYTE	W16
	BYTE		N04   
	BYTE	W08
	BYTE		        As1 
	BYTE	W24
	BYTE		        Fs1 
	BYTE	W16
	BYTE		N04   
	BYTE	W08
// 001   ----------------------------------------
FindTheTruth_6_001:
	BYTE		N04     As1   v100
	BYTE	W24
	BYTE		        Fs1 
	BYTE	W16
	BYTE		N04   
	BYTE	W08
	BYTE		        As1 
	BYTE	W24
	BYTE		        Fs1 
	BYTE	W16
	BYTE		N04   
	BYTE	W08
	BYTE	PEND
// 002   ----------------------------------------
	BYTE	PATT
	 POIN2	FindTheTruth_6_001
// 003   ----------------------------------------
	BYTE	PATT
	 POIN2	FindTheTruth_6_001
// 004   ----------------------------------------
FindTheTruth_6_004:
	BYTE		N04     Fs1   v100
	BYTE	W08
	BYTE		N04   
	BYTE	W08
	BYTE		N04   
	BYTE	W48
	BYTE		N04   
	BYTE	W08
	BYTE		        As1 
	BYTE	W24
	BYTE	PEND
// 005   ----------------------------------------
	BYTE	PATT
	 POIN2	FindTheTruth_6_004
// 006   ----------------------------------------
FindTheTruth_6_006:
	BYTE	W24
	BYTE		N04     An0   v100
	BYTE	W40
	BYTE		N04   
	BYTE	W08
	BYTE		N04   
	BYTE	W24
	BYTE	PEND
// 007   ----------------------------------------
	BYTE	PATT
	 POIN2	FindTheTruth_6_006
	BYTE	GoTo
	 POIN2	FindTheTruth_6_B1
FindTheTruth_6_B2:
// 008   ----------------------------------------
	BYTE	FINE

//******************************************************//
	ALIGN 4

FindTheTruth:
	BYTE	6	// NumTrks
	BYTE	0	// NumBlks
	BYTE	FindTheTruth_pri	// Priority
	BYTE	FindTheTruth_rev	// Reverb.

	POIN2	FindTheTruth_grp

	POIN2	FindTheTruth_1
	POIN2	FindTheTruth_2
	POIN2	FindTheTruth_3
	POIN2	FindTheTruth_4
	POIN2	FindTheTruth_5
	POIN2	FindTheTruth_6

	
