//Event file generated from Sappy .s format.
	#include "MPlayDef.event"

	#define	FranticFactory_grp  voicegroup000
	#define	FranticFactory_pri  0
	#define	FranticFactory_rev  0
	#define	FranticFactory_mvl  40
	#define	FranticFactory_key  0
	#define	FranticFactory_tbs  1
	#define	FranticFactory_exg  0
	#define	FranticFactory_cmp  1

	// .rodata
	//	FranticFactory
	ALIGN 4

//**************** Track 1 (Midi-Chn.1) ****************//

FranticFactory_1:
	BYTE	KEYSH   FranticFactory_key+0
// 000   ----------------------------------------
	BYTE	TEMPO   109*FranticFactory_tbs/2
	BYTE		VOICE   11
	BYTE		VOL     89*FranticFactory_mvl/mxv
	BYTE		PAN     c_v-40
	BYTE		N06     Cn5   v080
	BYTE		N06     Cn6   v100
	BYTE	W12
	BYTE		        Gs5 
	BYTE	W12
	BYTE		        Ds5   v080
	BYTE		N06     Gn5   v100
	BYTE	W12
	BYTE		        Gs5 
	BYTE	W12
	BYTE		        Cn5   v080
	BYTE		N06     Cn6   v100
	BYTE	W12
	BYTE		        Gs5 
	BYTE	W12
	BYTE		        Ds5   v080
	BYTE		N06     Gn5   v100
	BYTE	W12
	BYTE		        Gs5 
	BYTE	W12
// 001   ----------------------------------------
FranticFactory_1_001:
	BYTE		N06     Dn5   v080
	BYTE		N06     Bn5   v100
	BYTE	W12
	BYTE		        Gs5 
	BYTE	W12
	BYTE		        Fn5   v080
	BYTE		N06     Gn5   v100
	BYTE	W12
	BYTE		        Gs5 
	BYTE	W12
	BYTE		        Dn5   v080
	BYTE		N06     Bn5   v100
	BYTE	W12
	BYTE		        Gs5 
	BYTE	W12
	BYTE		        Fn5   v080
	BYTE		N06     Gn5   v100
	BYTE	W12
	BYTE		        Gs5 
	BYTE	W12
	BYTE	PEND
// 002   ----------------------------------------
FranticFactory_1_002:
	BYTE		N06     Bn4   v080
	BYTE		N06     Bn5   v100
	BYTE	W12
	BYTE		        Gs5 
	BYTE	W12
	BYTE		        Dn5   v080
	BYTE		N06     Gn5   v100
	BYTE	W12
	BYTE		        Gs5 
	BYTE	W12
	BYTE		        Fn5   v080
	BYTE		N06     Bn5   v100
	BYTE	W12
	BYTE		        Gs5 
	BYTE	W12
	BYTE		        Dn5   v080
	BYTE		N06     Gn5   v100
	BYTE	W12
	BYTE		        Gs5 
	BYTE	W12
	BYTE	PEND
// 003   ----------------------------------------
FranticFactory_1_003:
	BYTE		N06     Cn5   v080
	BYTE		N06     Cn6   v100
	BYTE	W12
	BYTE		        Gs5 
	BYTE	W12
	BYTE		        Ds5   v080
	BYTE		N06     Gn5   v100
	BYTE	W12
	BYTE		        Gs5 
	BYTE	W12
	BYTE		        Cn5   v080
	BYTE		N06     Cn6   v100
	BYTE	W48
	BYTE	PEND
// 004   ----------------------------------------
FranticFactory_1_004:
	BYTE		N06     Cn5   v080
	BYTE		N06     Cn6   v100
	BYTE	W12
	BYTE		        Gs5 
	BYTE	W12
	BYTE		        Ds5   v080
	BYTE		N06     Gn5   v100
	BYTE	W12
	BYTE		        Gs5 
	BYTE	W12
	BYTE		        Cn5   v080
	BYTE		N06     Cn6   v100
	BYTE	W12
	BYTE		        Gs5 
	BYTE	W12
	BYTE		        Ds5   v080
	BYTE		N06     Gn5   v100
	BYTE	W12
	BYTE		        Gs5 
	BYTE	W12
	BYTE	PEND
// 005   ----------------------------------------
FranticFactory_1_005:
	BYTE		N06     Cn5   v080
	BYTE		N06     Dn6   v100
	BYTE	W12
	BYTE		        An5 
	BYTE	W12
	BYTE		        Dn5   v080
	BYTE		N06     Dn6   v100
	BYTE	W12
	BYTE		        Cn6 
	BYTE	W12
	BYTE		        Fn5   v080
	BYTE		N06     Dn6   v100
	BYTE	W12
	BYTE		        An5 
	BYTE	W12
	BYTE		        Dn5   v080
	BYTE		N06     Dn6   v100
	BYTE	W12
	BYTE		        Cn6 
	BYTE	W12
	BYTE	PEND
// 006   ----------------------------------------
FranticFactory_1_006:
	BYTE		N06     Cn5   v080
	BYTE		N06     Dn6   v100
	BYTE	W12
	BYTE		        Cn6 
	BYTE	W12
	BYTE		        Dn5   v080
	BYTE		N06     Gn5   v100
	BYTE	W12
	BYTE		        Gs5 
	BYTE	W12
	BYTE		        Fn5   v080
	BYTE		N06     Dn6   v100
	BYTE	W12
	BYTE		        Cn6 
	BYTE	W12
	BYTE		        Dn5   v080
	BYTE		N06     Gn5   v100
	BYTE	W12
	BYTE		        Gs5 
	BYTE	W12
	BYTE	PEND
// 007   ----------------------------------------
	BYTE	PATT
	 POIN2	FranticFactory_1_003
FranticFactory_1_B1:
// 008   ----------------------------------------
	BYTE	W96
// 009   ----------------------------------------
	BYTE	W96
// 010   ----------------------------------------
	BYTE	W96
// 011   ----------------------------------------
	BYTE	W96
// 012   ----------------------------------------
	BYTE	W96
// 013   ----------------------------------------
	BYTE	W96
// 014   ----------------------------------------
	BYTE	W96
// 015   ----------------------------------------
	BYTE	W96
// 016   ----------------------------------------
FranticFactory_1_016:
	BYTE		N06     Cn6   v060
	BYTE	W12
	BYTE		        Gn6 
	BYTE	W12
	BYTE		        Ds6 
	BYTE	W12
	BYTE		        Gn6 
	BYTE	W12
	BYTE		        Cn6 
	BYTE	W12
	BYTE		        Gn6 
	BYTE	W12
	BYTE		        Ds6 
	BYTE	W12
	BYTE		        Gn6 
	BYTE	W12
	BYTE	PEND
// 017   ----------------------------------------
	BYTE	PATT
	 POIN2	FranticFactory_1_016
// 018   ----------------------------------------
	BYTE	PATT
	 POIN2	FranticFactory_1_016
// 019   ----------------------------------------
FranticFactory_1_019:
	BYTE		N06     Bn5   v060
	BYTE	W12
	BYTE		        Fs6 
	BYTE	W12
	BYTE		        Ds6 
	BYTE	W12
	BYTE		        Fs6 
	BYTE	W12
	BYTE		        Bn5 
	BYTE	W12
	BYTE		        Fs6 
	BYTE	W12
	BYTE		        Ds6 
	BYTE	W12
	BYTE		        Fs6 
	BYTE	W12
	BYTE	PEND
// 020   ----------------------------------------
	BYTE	PATT
	 POIN2	FranticFactory_1_019
// 021   ----------------------------------------
	BYTE		N06     An5   v060
	BYTE	W12
	BYTE		        En6 
	BYTE	W12
	BYTE		        Cn6 
	BYTE	W12
	BYTE		        En6 
	BYTE	W12
	BYTE		        An5 
	BYTE	W12
	BYTE		        En6 
	BYTE	W12
	BYTE		        Cn6 
	BYTE	W12
	BYTE		        En6 
	BYTE	W12
// 022   ----------------------------------------
FranticFactory_1_022:
	BYTE		N06     Bn5   v060
	BYTE	W12
	BYTE		        Fn6 
	BYTE	W12
	BYTE		        Dn6 
	BYTE	W12
	BYTE		        Fn6 
	BYTE	W12
	BYTE		        Bn5 
	BYTE	W12
	BYTE		        Fn6 
	BYTE	W12
	BYTE		        Dn6 
	BYTE	W12
	BYTE		        Fn6 
	BYTE	W12
	BYTE	PEND
// 023   ----------------------------------------
	BYTE	PATT
	 POIN2	FranticFactory_1_022
// 024   ----------------------------------------
	BYTE	W96
// 025   ----------------------------------------
	BYTE	W96
// 026   ----------------------------------------
	BYTE	W96
// 027   ----------------------------------------
	BYTE	W96
// 028   ----------------------------------------
	BYTE	W96
// 029   ----------------------------------------
	BYTE	W96
// 030   ----------------------------------------
	BYTE	W96
// 031   ----------------------------------------
	BYTE	W96
// 032   ----------------------------------------
	BYTE	W96
// 033   ----------------------------------------
	BYTE	PATT
	 POIN2	FranticFactory_1_016
// 034   ----------------------------------------
FranticFactory_1_034:
	BYTE		N06     Cn6   v060
	BYTE	W12
	BYTE		        Gs6 
	BYTE	W12
	BYTE		        Ds6 
	BYTE	W12
	BYTE		        Gs6 
	BYTE	W12
	BYTE		        Cn6 
	BYTE	W12
	BYTE		        Gn6 
	BYTE	W12
	BYTE		        Ds6 
	BYTE	W12
	BYTE		        Gn6 
	BYTE	W12
	BYTE	PEND
// 035   ----------------------------------------
	BYTE		        Cn6 
	BYTE	W12
	BYTE		        Gs6 
	BYTE	W12
	BYTE		        Fn6 
	BYTE	W12
	BYTE		        Gs6 
	BYTE	W12
	BYTE		        Cn6 
	BYTE	W12
	BYTE		        Gn6 
	BYTE	W12
	BYTE		        Ds6 
	BYTE	W12
	BYTE		        Gn6 
	BYTE	W12
// 036   ----------------------------------------
	BYTE		        Cn6 
	BYTE	W12
	BYTE		        Gs6 
	BYTE	W12
	BYTE		        Fn6 
	BYTE	W12
	BYTE		        Gs6 
	BYTE	W12
	BYTE		        Cn6 
	BYTE	W12
	BYTE		        Fn6 
	BYTE	W12
	BYTE		        Dn6 
	BYTE	W12
	BYTE		        Fn6 
	BYTE	W12
// 037   ----------------------------------------
	BYTE	PATT
	 POIN2	FranticFactory_1_016
// 038   ----------------------------------------
	BYTE	PATT
	 POIN2	FranticFactory_1_034
// 039   ----------------------------------------
	BYTE		N06     Cs6   v060
	BYTE	W12
	BYTE		        As6 
	BYTE	W12
	BYTE		        Fs6 
	BYTE	W12
	BYTE		        As6 
	BYTE	W12
	BYTE		        Cs6 
	BYTE	W12
	BYTE		        As6 
	BYTE	W12
	BYTE		        Fs6 
	BYTE	W12
	BYTE		        As6 
	BYTE	W12
// 040   ----------------------------------------
	BYTE	PATT
	 POIN2	FranticFactory_1_016
// 041   ----------------------------------------
	BYTE	W96
// 042   ----------------------------------------
	BYTE	W96
// 043   ----------------------------------------
	BYTE	W96
// 044   ----------------------------------------
	BYTE	W96
// 045   ----------------------------------------
	BYTE	W96
// 046   ----------------------------------------
	BYTE	W96
// 047   ----------------------------------------
	BYTE	W96
// 048   ----------------------------------------
	BYTE	W96
// 049   ----------------------------------------
FranticFactory_1_049:
	BYTE		N06     Cn5   v100
	BYTE	W36
	BYTE		        Dn5 
	BYTE	W12
	BYTE		        Ds5 
	BYTE	W24
	BYTE		        Gn5 
	BYTE	W24
	BYTE	PEND
// 050   ----------------------------------------
FranticFactory_1_050:
	BYTE		N06     Gs5   v100
	BYTE	W36
	BYTE		        As5 
	BYTE	W06
	BYTE		        Gs5 
	BYTE	W06
	BYTE		        Gn5 
	BYTE	W48
	BYTE	PEND
// 051   ----------------------------------------
	BYTE		        Fn5 
	BYTE	W36
	BYTE		        Gn5 
	BYTE	W06
	BYTE		        Gs5 
	BYTE	W06
	BYTE		        Ds5 
	BYTE	W36
	BYTE		        Fn5 
	BYTE	W06
	BYTE		        Gn5 
	BYTE	W06
// 052   ----------------------------------------
	BYTE		        Cs5 
	BYTE	W36
	BYTE		        Ds5 
	BYTE	W06
	BYTE		        Fn5 
	BYTE	W06
	BYTE		        Gn5 
	BYTE	W24
	BYTE		        Gn4 
	BYTE	W24
// 053   ----------------------------------------
	BYTE	PATT
	 POIN2	FranticFactory_1_049
// 054   ----------------------------------------
	BYTE	PATT
	 POIN2	FranticFactory_1_050
// 055   ----------------------------------------
	BYTE		N06     Fs5   v100
	BYTE	W24
	BYTE		        As5 
	BYTE	W24
	BYTE		        Fs5 
	BYTE	W24
	BYTE		        Cs5 
	BYTE	W24
// 056   ----------------------------------------
	BYTE		        Cn5 
	BYTE	W24
	BYTE		        Gn5 
	BYTE	W24
	BYTE		        Cn5 
	BYTE	W48
// 057   ----------------------------------------
	BYTE	PATT
	 POIN2	FranticFactory_1_004
// 058   ----------------------------------------
	BYTE	PATT
	 POIN2	FranticFactory_1_001
// 059   ----------------------------------------
	BYTE	PATT
	 POIN2	FranticFactory_1_002
// 060   ----------------------------------------
	BYTE	PATT
	 POIN2	FranticFactory_1_003
// 061   ----------------------------------------
	BYTE	PATT
	 POIN2	FranticFactory_1_004
// 062   ----------------------------------------
	BYTE	PATT
	 POIN2	FranticFactory_1_005
// 063   ----------------------------------------
	BYTE	PATT
	 POIN2	FranticFactory_1_006
// 064   ----------------------------------------
	BYTE	PATT
	 POIN2	FranticFactory_1_003
	BYTE	GoTo
	 POIN2	FranticFactory_1_B1
FranticFactory_1_B2:
// 065   ----------------------------------------
	BYTE	W96
// 066   ----------------------------------------
	BYTE	W56
	BYTE	W03
	BYTE	FINE

//**************** Track 2 (Midi-Chn.2) ****************//

FranticFactory_2:
	BYTE	KEYSH   FranticFactory_key+0
// 000   ----------------------------------------
	BYTE		VOICE   127
	BYTE		VOL     109*FranticFactory_mvl/mxv
	BYTE		PAN     c_v+0
	BYTE	W96
// 001   ----------------------------------------
	BYTE	W96
// 002   ----------------------------------------
	BYTE	W96
// 003   ----------------------------------------
	BYTE	W96
// 004   ----------------------------------------
FranticFactory_2_004:
	BYTE		N06     Cn2   v052
	BYTE	W72
	BYTE		N06   
	BYTE	W24
	BYTE	PEND
// 005   ----------------------------------------
	BYTE	PATT
	 POIN2	FranticFactory_2_004
// 006   ----------------------------------------
FranticFactory_2_006:
	BYTE		N06     Cn2   v052
	BYTE	W48
	BYTE		N06   
	BYTE	W48
	BYTE	PEND
// 007   ----------------------------------------
	BYTE		N06   
	BYTE	W96
FranticFactory_2_B1:
// 008   ----------------------------------------
	BYTE	W96
// 009   ----------------------------------------
	BYTE	W96
// 010   ----------------------------------------
	BYTE	W96
// 011   ----------------------------------------
	BYTE	W96
// 012   ----------------------------------------
	BYTE	W96
// 013   ----------------------------------------
	BYTE	W96
// 014   ----------------------------------------
	BYTE	W96
// 015   ----------------------------------------
FranticFactory_2_015:
	BYTE		N01     Cs1   v080
	BYTE	W03
	BYTE		N01   
	BYTE	W01
	BYTE		N01   
	BYTE	W02
	BYTE		N01   
	BYTE	W01
	BYTE		N01   
	BYTE	W02
	BYTE		N01   
	BYTE	W04
	BYTE		N01   
	BYTE	W32
	BYTE	W03
	BYTE		N01   
	BYTE	W03
	BYTE		N01   
	BYTE	W01
	BYTE		N01   
	BYTE	W02
	BYTE		N01   
	BYTE	W01
	BYTE		N01   
	BYTE	W02
	BYTE		N01   
	BYTE	W04
	BYTE		N01   
	BYTE	W32
	BYTE	W03
	BYTE	PEND
// 016   ----------------------------------------
FranticFactory_2_016:
	BYTE		N06     Bn0   v080
	BYTE		N06     Cn1 
	BYTE	W36
	BYTE		        Bn0 
	BYTE		N06     Cn1 
	BYTE	W12
	BYTE		        Bn0 
	BYTE		N06     Cn1 
	BYTE	W36
	BYTE		        Bn0 
	BYTE		N06     Cn1 
	BYTE	W12
	BYTE	PEND
// 017   ----------------------------------------
	BYTE	PATT
	 POIN2	FranticFactory_2_016
// 018   ----------------------------------------
	BYTE	PATT
	 POIN2	FranticFactory_2_016
// 019   ----------------------------------------
	BYTE	PATT
	 POIN2	FranticFactory_2_016
// 020   ----------------------------------------
	BYTE	PATT
	 POIN2	FranticFactory_2_016
// 021   ----------------------------------------
	BYTE	PATT
	 POIN2	FranticFactory_2_016
// 022   ----------------------------------------
	BYTE	PATT
	 POIN2	FranticFactory_2_016
// 023   ----------------------------------------
	BYTE	PATT
	 POIN2	FranticFactory_2_016
// 024   ----------------------------------------
	BYTE	W96
// 025   ----------------------------------------
	BYTE	W96
// 026   ----------------------------------------
	BYTE	W96
// 027   ----------------------------------------
	BYTE	W96
// 028   ----------------------------------------
	BYTE	W96
// 029   ----------------------------------------
	BYTE	W96
// 030   ----------------------------------------
	BYTE	W96
// 031   ----------------------------------------
	BYTE	W96
// 032   ----------------------------------------
	BYTE		N01     Cs1   v080
	BYTE	W03
	BYTE		N01   
	BYTE	W01
	BYTE		N01   
	BYTE	W02
	BYTE		N01   
	BYTE	W01
	BYTE		N01   
	BYTE	W02
	BYTE		N01   
	BYTE	W04
	BYTE		N01   
	BYTE	W32
	BYTE	W03
	BYTE		N01   
	BYTE	W03
	BYTE		N01   
	BYTE	W01
	BYTE		N01   
	BYTE	W02
	BYTE		N01   
	BYTE	W01
	BYTE		N01   
	BYTE	W02
	BYTE		N01   
	BYTE	W04
	BYTE		N01   
	BYTE	W23
	BYTE		PAN     c_v-64
	BYTE	W12
// 033   ----------------------------------------
FranticFactory_2_033:
	BYTE		N06     Cn3   v100
	BYTE		N06     En4 
	BYTE	W12
	BYTE		PAN     c_v+63
	BYTE	W12
	BYTE		N06     Cs3 
	BYTE		N06     Fn4 
	BYTE	W12
	BYTE		PAN     c_v-64
	BYTE	W12
	BYTE		N06     Cn3 
	BYTE		N06     En4 
	BYTE	W12
	BYTE		PAN     c_v+63
	BYTE	W12
	BYTE		N06     Cs3 
	BYTE		N06     Fn4 
	BYTE	W12
	BYTE		PAN     c_v-64
	BYTE	W12
	BYTE	PEND
// 034   ----------------------------------------
	BYTE	PATT
	 POIN2	FranticFactory_2_033
// 035   ----------------------------------------
	BYTE	PATT
	 POIN2	FranticFactory_2_033
// 036   ----------------------------------------
	BYTE	PATT
	 POIN2	FranticFactory_2_033
// 037   ----------------------------------------
	BYTE	PATT
	 POIN2	FranticFactory_2_033
// 038   ----------------------------------------
	BYTE	PATT
	 POIN2	FranticFactory_2_033
// 039   ----------------------------------------
	BYTE	PATT
	 POIN2	FranticFactory_2_033
// 040   ----------------------------------------
	BYTE		N06     Cn3   v100
	BYTE		N06     En4 
	BYTE	W12
	BYTE		PAN     c_v+63
	BYTE	W12
	BYTE		N06     Cs3 
	BYTE		N06     Fn4 
	BYTE	W12
	BYTE		PAN     c_v-64
	BYTE	W12
	BYTE		N06     Cn3 
	BYTE		N06     En4 
	BYTE	W12
	BYTE		PAN     c_v+63
	BYTE	W12
	BYTE		N06     Cs3 
	BYTE		N06     Fn4 
	BYTE	W12
	BYTE		PAN     c_v+0
	BYTE	W12
// 041   ----------------------------------------
	BYTE	W96
// 042   ----------------------------------------
	BYTE	W96
// 043   ----------------------------------------
	BYTE	W96
// 044   ----------------------------------------
	BYTE	W96
// 045   ----------------------------------------
	BYTE	W96
// 046   ----------------------------------------
	BYTE	W96
// 047   ----------------------------------------
	BYTE	W96
// 048   ----------------------------------------
	BYTE	W96
// 049   ----------------------------------------
	BYTE	W96
// 050   ----------------------------------------
	BYTE	W96
// 051   ----------------------------------------
	BYTE	W96
// 052   ----------------------------------------
	BYTE	W96
// 053   ----------------------------------------
	BYTE	W96
// 054   ----------------------------------------
	BYTE	W96
// 055   ----------------------------------------
	BYTE	W96
// 056   ----------------------------------------
	BYTE	PATT
	 POIN2	FranticFactory_2_015
// 057   ----------------------------------------
	BYTE	W96
// 058   ----------------------------------------
	BYTE	W96
// 059   ----------------------------------------
	BYTE	W96
// 060   ----------------------------------------
	BYTE	W96
// 061   ----------------------------------------
	BYTE	PATT
	 POIN2	FranticFactory_2_004
// 062   ----------------------------------------
	BYTE	PATT
	 POIN2	FranticFactory_2_004
// 063   ----------------------------------------
	BYTE	PATT
	 POIN2	FranticFactory_2_006
// 064   ----------------------------------------
	BYTE		N06     Cn2   v052
	BYTE	W96
	BYTE	GoTo
	 POIN2	FranticFactory_2_B1
FranticFactory_2_B2:
// 065   ----------------------------------------
	BYTE	W96
// 066   ----------------------------------------
	BYTE	W56
	BYTE	W03
	BYTE	FINE

//**************** Track 3 (Midi-Chn.3) ****************//

FranticFactory_3:
	BYTE	KEYSH   FranticFactory_key+0
// 000   ----------------------------------------
	BYTE		VOICE   45
	BYTE		VOL     127*FranticFactory_mvl/mxv
	BYTE		PAN     c_v+0
	BYTE	W96
// 001   ----------------------------------------
	BYTE	W96
// 002   ----------------------------------------
	BYTE	W96
// 003   ----------------------------------------
	BYTE	W96
// 004   ----------------------------------------
FranticFactory_3_004:
	BYTE		N06     Cn2   v052
	BYTE		N06     Cn3 
	BYTE	W72
	BYTE		        Cn2 
	BYTE		N06     Cn3 
	BYTE	W24
	BYTE	PEND
// 005   ----------------------------------------
	BYTE	PATT
	 POIN2	FranticFactory_3_004
// 006   ----------------------------------------
FranticFactory_3_006:
	BYTE		N06     Cn2   v052
	BYTE		N06     Cn3 
	BYTE	W48
	BYTE		        Gn1 
	BYTE		N06     Gn2 
	BYTE	W48
	BYTE	PEND
// 007   ----------------------------------------
	BYTE		        Cn2 
	BYTE		N06     Cn3 
	BYTE	W96
FranticFactory_3_B1:
// 008   ----------------------------------------
	BYTE	W96
// 009   ----------------------------------------
	BYTE	W96
// 010   ----------------------------------------
	BYTE	W96
// 011   ----------------------------------------
	BYTE	W96
// 012   ----------------------------------------
	BYTE	W96
// 013   ----------------------------------------
	BYTE	W96
// 014   ----------------------------------------
	BYTE	W96
// 015   ----------------------------------------
	BYTE	W96
// 016   ----------------------------------------
	BYTE	W96
// 017   ----------------------------------------
	BYTE	W96
// 018   ----------------------------------------
	BYTE	W96
// 019   ----------------------------------------
	BYTE	W96
// 020   ----------------------------------------
	BYTE	W96
// 021   ----------------------------------------
	BYTE	W96
// 022   ----------------------------------------
	BYTE	W96
// 023   ----------------------------------------
	BYTE	W96
// 024   ----------------------------------------
	BYTE		N06     Cn5   v100
	BYTE	W12
	BYTE		        Cn4 
	BYTE	W12
	BYTE		        Cn5 
	BYTE	W12
	BYTE		        Cn4 
	BYTE	W12
	BYTE		        Cn5 
	BYTE	W12
	BYTE		        Cn4 
	BYTE	W12
	BYTE		        Cn5 
	BYTE	W12
	BYTE		        Cn4 
	BYTE	W12
// 025   ----------------------------------------
FranticFactory_3_025:
	BYTE		N06     Cn3   v100
	BYTE		N06     Cn5 
	BYTE	W12
	BYTE		        Cn4 
	BYTE	W12
	BYTE		        Cn5 
	BYTE	W12
	BYTE		        Dn3 
	BYTE		N06     Cn4 
	BYTE	W12
	BYTE		        Ds3 
	BYTE		N06     Cn5 
	BYTE	W12
	BYTE		        Cn4 
	BYTE	W12
	BYTE		        Gn3 
	BYTE		N06     Cn5 
	BYTE	W12
	BYTE		        Cn4 
	BYTE	W12
	BYTE	PEND
// 026   ----------------------------------------
FranticFactory_3_026:
	BYTE		N06     Gs3   v100
	BYTE		N06     Cn5 
	BYTE	W12
	BYTE		        Cn4 
	BYTE	W12
	BYTE		        Cn5 
	BYTE	W12
	BYTE		        As3 
	BYTE		N06     Cn4 
	BYTE	W06
	BYTE		        Gs3 
	BYTE	W06
	BYTE		        Gn3 
	BYTE		N06     Cn5 
	BYTE	W12
	BYTE		        Cn4 
	BYTE	W12
	BYTE		        Cn5 
	BYTE	W12
	BYTE		        Cn4 
	BYTE	W12
	BYTE	PEND
// 027   ----------------------------------------
	BYTE		        Fn3 
	BYTE		N06     Cn5 
	BYTE	W12
	BYTE		        Cn4 
	BYTE	W12
	BYTE		        Cn5 
	BYTE	W12
	BYTE		        Gn3 
	BYTE		N06     Cn4 
	BYTE	W06
	BYTE		        Gs3 
	BYTE	W06
	BYTE		        Ds3 
	BYTE		N06     Cn5 
	BYTE	W12
	BYTE		        Cn4 
	BYTE	W12
	BYTE		        Cn5 
	BYTE	W12
	BYTE		        Fn3 
	BYTE		N06     Cn4 
	BYTE	W06
	BYTE		        Gn3 
	BYTE	W06
// 028   ----------------------------------------
	BYTE		        Cs3 
	BYTE		N06     Cn5 
	BYTE	W12
	BYTE		        Cn4 
	BYTE	W12
	BYTE		        Cn5 
	BYTE	W12
	BYTE		        Ds3 
	BYTE		N06     Cn4 
	BYTE	W06
	BYTE		        Fn3 
	BYTE	W06
	BYTE		        Gn3 
	BYTE		N06     Cn5 
	BYTE	W12
	BYTE		        Cn4 
	BYTE	W12
	BYTE		        Gn2 
	BYTE		N06     Cn5 
	BYTE	W12
	BYTE		        Cn4 
	BYTE	W12
// 029   ----------------------------------------
	BYTE	PATT
	 POIN2	FranticFactory_3_025
// 030   ----------------------------------------
	BYTE	PATT
	 POIN2	FranticFactory_3_026
// 031   ----------------------------------------
	BYTE		N06     Fs3   v100
	BYTE		N06     Cs5 
	BYTE	W12
	BYTE		        Cs4 
	BYTE	W12
	BYTE		        As3 
	BYTE		N06     Cs5 
	BYTE	W12
	BYTE		        Cs4 
	BYTE	W12
	BYTE		        Fs3 
	BYTE		N06     Cs5 
	BYTE	W12
	BYTE		        Cs4 
	BYTE	W12
	BYTE		        Cs3 
	BYTE		N06     Cs5 
	BYTE	W12
	BYTE		        Cs4 
	BYTE	W12
// 032   ----------------------------------------
	BYTE		        Cn3 
	BYTE		N06     Cn5 
	BYTE	W12
	BYTE		        Cn4 
	BYTE	W12
	BYTE		        Gn3 
	BYTE		N06     Cn5 
	BYTE	W12
	BYTE		        Cn4 
	BYTE	W12
	BYTE		        Cn3 
	BYTE		N06     Cn5 
	BYTE	W12
	BYTE		        Cn4 
	BYTE	W12
	BYTE		        Cn5 
	BYTE	W12
	BYTE		        Cn4 
	BYTE	W12
// 033   ----------------------------------------
	BYTE		        Cn5 
	BYTE	W96
// 034   ----------------------------------------
	BYTE	W96
// 035   ----------------------------------------
	BYTE	W96
// 036   ----------------------------------------
	BYTE	W96
// 037   ----------------------------------------
	BYTE	W96
// 038   ----------------------------------------
	BYTE	W96
// 039   ----------------------------------------
	BYTE	W96
// 040   ----------------------------------------
	BYTE	W96
// 041   ----------------------------------------
	BYTE		        Fn4   v052
	BYTE	W12
	BYTE		        Gs4 
	BYTE	W12
	BYTE		        Cn5 
	BYTE	W12
	BYTE		        Gs4 
	BYTE	W12
	BYTE		        Fn4 
	BYTE	W12
	BYTE		        Gs4 
	BYTE	W12
	BYTE		        Cn5 
	BYTE	W12
	BYTE		        Gs4 
	BYTE	W12
// 042   ----------------------------------------
	BYTE		        Gn4 
	BYTE	W12
	BYTE		        Bn4 
	BYTE	W12
	BYTE		        Dn5 
	BYTE	W12
	BYTE		        Bn4 
	BYTE	W12
	BYTE		        Gn4 
	BYTE	W12
	BYTE		        Bn4 
	BYTE	W12
	BYTE		        Dn5 
	BYTE	W12
	BYTE		        Bn4 
	BYTE	W12
// 043   ----------------------------------------
FranticFactory_3_043:
	BYTE		N06     Fn4   v052
	BYTE	W12
	BYTE		        As4 
	BYTE	W12
	BYTE		        Cs5 
	BYTE	W12
	BYTE		        As4 
	BYTE	W12
	BYTE		        Fn4 
	BYTE	W12
	BYTE		        As4 
	BYTE	W12
	BYTE		        Cs5 
	BYTE	W12
	BYTE		        As4 
	BYTE	W12
	BYTE	PEND
// 044   ----------------------------------------
FranticFactory_3_044:
	BYTE		N06     Fn4   v052
	BYTE	W12
	BYTE		        Gs4 
	BYTE	W12
	BYTE		        Cn5 
	BYTE	W12
	BYTE		        Fn5 
	BYTE	W12
	BYTE		        Cn5 
	BYTE	W12
	BYTE		        Gs4 
	BYTE	W12
	BYTE		        Fn4 
	BYTE	W12
	BYTE		        Dn4 
	BYTE	W12
	BYTE	PEND
// 045   ----------------------------------------
	BYTE	PATT
	 POIN2	FranticFactory_3_043
// 046   ----------------------------------------
	BYTE	PATT
	 POIN2	FranticFactory_3_044
// 047   ----------------------------------------
	BYTE	PATT
	 POIN2	FranticFactory_3_043
// 048   ----------------------------------------
	BYTE		N06     Gn4   v052
	BYTE	W12
	BYTE		        Bn4 
	BYTE	W12
	BYTE		        Dn5 
	BYTE	W12
	BYTE		        Gn5 
	BYTE	W12
	BYTE		        Dn5 
	BYTE	W12
	BYTE		        Bn4 
	BYTE	W12
	BYTE		        Fn4 
	BYTE	W12
	BYTE		        Dn4 
	BYTE	W12
// 049   ----------------------------------------
	BYTE	W96
// 050   ----------------------------------------
	BYTE	W96
// 051   ----------------------------------------
	BYTE	W96
// 052   ----------------------------------------
	BYTE	W96
// 053   ----------------------------------------
	BYTE	W96
// 054   ----------------------------------------
	BYTE	W96
// 055   ----------------------------------------
	BYTE	W96
// 056   ----------------------------------------
	BYTE	W96
// 057   ----------------------------------------
	BYTE	W96
// 058   ----------------------------------------
	BYTE	W96
// 059   ----------------------------------------
	BYTE	W96
// 060   ----------------------------------------
	BYTE	W96
// 061   ----------------------------------------
	BYTE	PATT
	 POIN2	FranticFactory_3_004
// 062   ----------------------------------------
	BYTE	PATT
	 POIN2	FranticFactory_3_004
// 063   ----------------------------------------
	BYTE	PATT
	 POIN2	FranticFactory_3_006
// 064   ----------------------------------------
	BYTE		N06     Cn2   v052
	BYTE		N06     Cn3 
	BYTE	W96
	BYTE	GoTo
	 POIN2	FranticFactory_3_B1
FranticFactory_3_B2:
// 065   ----------------------------------------
	BYTE	W96
// 066   ----------------------------------------
	BYTE	W56
	BYTE	W03
	BYTE	FINE

//**************** Track 4 (Midi-Chn.4) ****************//

FranticFactory_4:
	BYTE	KEYSH   FranticFactory_key+0
// 000   ----------------------------------------
	BYTE		VOICE   48
	BYTE		VOL     99*FranticFactory_mvl/mxv
	BYTE		PAN     c_v-20
	BYTE	W96
// 001   ----------------------------------------
	BYTE	W96
// 002   ----------------------------------------
	BYTE	W96
// 003   ----------------------------------------
	BYTE	W96
// 004   ----------------------------------------
	BYTE	W96
// 005   ----------------------------------------
	BYTE	W96
// 006   ----------------------------------------
	BYTE	W96
// 007   ----------------------------------------
	BYTE	W96
FranticFactory_4_B1:
// 008   ----------------------------------------
FranticFactory_4_008:
	BYTE		N32     Cn1   v100
	BYTE	W36
	BYTE		N24     Dn1 
	BYTE	W24
	BYTE		        Ds1 
	BYTE	W24
	BYTE		N12     Gn1 
	BYTE	W12
	BYTE	PEND
// 009   ----------------------------------------
	BYTE		N24     Cn1 
	BYTE	W96
// 010   ----------------------------------------
	BYTE	PATT
	 POIN2	FranticFactory_4_008
// 011   ----------------------------------------
	BYTE		N24     Fs1   v100
	BYTE	W96
// 012   ----------------------------------------
	BYTE		N32     Bn0 
	BYTE	W36
	BYTE		N12     Cs1 
	BYTE	W12
	BYTE		N24     Dn1 
	BYTE	W24
	BYTE		        Bn0 
	BYTE	W24
// 013   ----------------------------------------
	BYTE		        An0 
	BYTE	W24
	BYTE		N48     Cn1 
	BYTE	W48
	BYTE		N24     An0 
	BYTE	W24
// 014   ----------------------------------------
	BYTE		N48     Gs0 
	BYTE	W48
	BYTE		N24     Cn1 
	BYTE	W24
	BYTE		        Fn1 
	BYTE	W24
// 015   ----------------------------------------
	BYTE		N32     Gn1 
	BYTE	W36
	BYTE		N12     Fn1 
	BYTE	W12
	BYTE		N24     Ds1 
	BYTE	W24
	BYTE		        Dn1 
	BYTE	W24
// 016   ----------------------------------------
	BYTE	W96
// 017   ----------------------------------------
	BYTE	W96
// 018   ----------------------------------------
	BYTE	W96
// 019   ----------------------------------------
	BYTE	W96
// 020   ----------------------------------------
	BYTE	W96
// 021   ----------------------------------------
	BYTE	W96
// 022   ----------------------------------------
	BYTE	W96
// 023   ----------------------------------------
	BYTE	W96
// 024   ----------------------------------------
	BYTE	W96
// 025   ----------------------------------------
	BYTE	W96
// 026   ----------------------------------------
	BYTE	W96
// 027   ----------------------------------------
	BYTE	W96
// 028   ----------------------------------------
	BYTE	W96
// 029   ----------------------------------------
	BYTE	W96
// 030   ----------------------------------------
	BYTE	W96
// 031   ----------------------------------------
	BYTE	W96
// 032   ----------------------------------------
	BYTE	W96
// 033   ----------------------------------------
FranticFactory_4_033:
	BYTE		N17     Cn1   v100
	BYTE	W36
	BYTE		N12     Dn1 
	BYTE	W12
	BYTE		N11     Ds1 
	BYTE	W24
	BYTE		        Gn1 
	BYTE	W24
	BYTE	PEND
// 034   ----------------------------------------
FranticFactory_4_034:
	BYTE		N11     Gs1   v100
	BYTE	W36
	BYTE		N06     As1 
	BYTE	W06
	BYTE		        Gs1 
	BYTE	W06
	BYTE		N11     Gn1 
	BYTE	W48
	BYTE	PEND
// 035   ----------------------------------------
	BYTE		N17     Fn1 
	BYTE	W36
	BYTE		N06     Gn1 
	BYTE	W06
	BYTE		        Gs1 
	BYTE	W06
	BYTE		N11     Ds1 
	BYTE	W36
	BYTE		N06     Fn1 
	BYTE	W06
	BYTE		        Gn1 
	BYTE	W06
// 036   ----------------------------------------
	BYTE		N11     Cs1 
	BYTE	W36
	BYTE		N06     Ds1 
	BYTE	W06
	BYTE		        Fn1 
	BYTE	W06
	BYTE		N11     Gn1 
	BYTE	W24
	BYTE		N24     Gn0 
	BYTE	W24
// 037   ----------------------------------------
	BYTE	PATT
	 POIN2	FranticFactory_4_033
// 038   ----------------------------------------
	BYTE	PATT
	 POIN2	FranticFactory_4_034
// 039   ----------------------------------------
	BYTE		N11     Fs1   v100
	BYTE	W24
	BYTE		        As1 
	BYTE	W24
	BYTE		        Fs1 
	BYTE	W24
	BYTE		        Cs1 
	BYTE	W24
// 040   ----------------------------------------
	BYTE		        Cn1 
	BYTE	W24
	BYTE		        Gn1 
	BYTE	W24
	BYTE		        Cn1 
	BYTE	W48
// 041   ----------------------------------------
	BYTE	W96
// 042   ----------------------------------------
	BYTE	W96
// 043   ----------------------------------------
	BYTE	W96
// 044   ----------------------------------------
	BYTE	W96
// 045   ----------------------------------------
	BYTE		N32     As1 
	BYTE	W36
	BYTE		N11     Cn2 
	BYTE	W12
	BYTE		N24     Cs2 
	BYTE	W24
	BYTE		N11     Cn2 
	BYTE	W12
	BYTE		N12     As1 
	BYTE	W12
// 046   ----------------------------------------
	BYTE		N24     Bn1 
	BYTE	W24
	BYTE		        Gn1 
	BYTE	W24
	BYTE		        Bn1 
	BYTE	W24
	BYTE		        Dn2 
	BYTE	W24
// 047   ----------------------------------------
	BYTE		        Fn2 
	BYTE	W24
	BYTE		        Cs2 
	BYTE	W24
	BYTE		        An1 
	BYTE	W24
	BYTE		        Fn1 
	BYTE	W24
// 048   ----------------------------------------
	BYTE		        Gn1 
	BYTE	W24
	BYTE		        Bn1 
	BYTE	W24
	BYTE		        Dn2 
	BYTE	W24
	BYTE		        Gn2 
	BYTE	W24
// 049   ----------------------------------------
	BYTE	W96
// 050   ----------------------------------------
	BYTE	W96
// 051   ----------------------------------------
	BYTE	W96
// 052   ----------------------------------------
	BYTE	W96
// 053   ----------------------------------------
	BYTE	W96
// 054   ----------------------------------------
	BYTE	W96
// 055   ----------------------------------------
	BYTE	W96
// 056   ----------------------------------------
	BYTE	W96
// 057   ----------------------------------------
	BYTE	W96
// 058   ----------------------------------------
	BYTE	W96
// 059   ----------------------------------------
	BYTE	W96
// 060   ----------------------------------------
	BYTE	W96
// 061   ----------------------------------------
	BYTE	W96
// 062   ----------------------------------------
	BYTE	W96
// 063   ----------------------------------------
	BYTE	W96
// 064   ----------------------------------------
	BYTE	W96
	BYTE	GoTo
	 POIN2	FranticFactory_4_B1
FranticFactory_4_B2:
// 065   ----------------------------------------
	BYTE	PATT
	 POIN2	FranticFactory_4_008
// 066   ----------------------------------------
	BYTE		N24     Cn1   v100
	BYTE	W56
	BYTE	W03
	BYTE	FINE

//**************** Track 5 (Midi-Chn.5) ****************//

FranticFactory_5:
	BYTE	KEYSH   FranticFactory_key+0
// 000   ----------------------------------------
	BYTE		VOICE   71
	BYTE		VOL     99*FranticFactory_mvl/mxv
	BYTE		PAN     c_v+0
	BYTE	W96
// 001   ----------------------------------------
	BYTE	W96
// 002   ----------------------------------------
	BYTE	W96
// 003   ----------------------------------------
	BYTE	W96
// 004   ----------------------------------------
	BYTE	W96
// 005   ----------------------------------------
	BYTE	W96
// 006   ----------------------------------------
	BYTE	W96
// 007   ----------------------------------------
	BYTE	W96
FranticFactory_5_B1:
// 008   ----------------------------------------
	BYTE	W96
// 009   ----------------------------------------
	BYTE	W96
// 010   ----------------------------------------
	BYTE	W96
// 011   ----------------------------------------
	BYTE	W96
// 012   ----------------------------------------
	BYTE	W96
// 013   ----------------------------------------
	BYTE	W96
// 014   ----------------------------------------
	BYTE	W96
// 015   ----------------------------------------
	BYTE	W96
// 016   ----------------------------------------
FranticFactory_5_016:
	BYTE		N32     Cn3   v100
	BYTE	W36
	BYTE		N24     Dn3 
	BYTE	W24
	BYTE		        Ds3 
	BYTE	W24
	BYTE		N12     Gn3 
	BYTE	W12
	BYTE	PEND
// 017   ----------------------------------------
	BYTE		N24     Cn3 
	BYTE	W96
// 018   ----------------------------------------
	BYTE	PATT
	 POIN2	FranticFactory_5_016
// 019   ----------------------------------------
	BYTE		N24     Fs3   v100
	BYTE	W96
// 020   ----------------------------------------
	BYTE		N32     Bn2 
	BYTE	W36
	BYTE		N12     Cs3 
	BYTE	W12
	BYTE		N24     Dn3 
	BYTE	W24
	BYTE		        Bn2 
	BYTE	W24
// 021   ----------------------------------------
	BYTE		        An2 
	BYTE	W24
	BYTE		N48     Cn3 
	BYTE	W48
	BYTE		N24     An2 
	BYTE	W24
// 022   ----------------------------------------
	BYTE		N48     Gs2 
	BYTE	W48
	BYTE		N24     Cn3 
	BYTE	W24
	BYTE		        Fn3 
	BYTE	W24
// 023   ----------------------------------------
	BYTE		N32     Gn3 
	BYTE	W36
	BYTE		N12     Fn3 
	BYTE	W12
	BYTE		N24     Ds3 
	BYTE	W24
	BYTE		        Dn3 
	BYTE	W24
// 024   ----------------------------------------
	BYTE		        Cn3 
	BYTE	W96
// 025   ----------------------------------------
	BYTE	W96
// 026   ----------------------------------------
	BYTE	W96
// 027   ----------------------------------------
	BYTE	W96
// 028   ----------------------------------------
	BYTE	W96
// 029   ----------------------------------------
	BYTE	W96
// 030   ----------------------------------------
	BYTE	W96
// 031   ----------------------------------------
	BYTE	W96
// 032   ----------------------------------------
	BYTE	W96
// 033   ----------------------------------------
	BYTE	W96
// 034   ----------------------------------------
	BYTE	W96
// 035   ----------------------------------------
	BYTE	W96
// 036   ----------------------------------------
	BYTE	W96
// 037   ----------------------------------------
	BYTE	W96
// 038   ----------------------------------------
	BYTE	W96
// 039   ----------------------------------------
	BYTE	W96
// 040   ----------------------------------------
	BYTE	W96
// 041   ----------------------------------------
	BYTE		        Fn3 
	BYTE	W24
	BYTE		N11     Gs3 
	BYTE	W12
	BYTE		N12     Gn3 
	BYTE	W12
	BYTE		N24     Gs3 
	BYTE	W24
	BYTE		        Cn4 
	BYTE	W24
// 042   ----------------------------------------
	BYTE		N17     Bn3 
	BYTE	W24
	BYTE		N11   
	BYTE	W12
	BYTE		N12     Cn4 
	BYTE	W12
	BYTE		N11     Dn4 
	BYTE	W12
	BYTE		N12     Cn4 
	BYTE	W12
	BYTE		N24     Bn3 
	BYTE	W24
// 043   ----------------------------------------
	BYTE		N17     As3 
	BYTE	W24
	BYTE		N11   
	BYTE	W12
	BYTE		N12     Cn4 
	BYTE	W12
	BYTE		N24     Cs4 
	BYTE	W24
	BYTE		        As3 
	BYTE	W24
// 044   ----------------------------------------
	BYTE		N11     Bn3 
	BYTE	W12
	BYTE		N12     Gn3 
	BYTE	W12
	BYTE		N11     Dn3 
	BYTE	W12
	BYTE		N12     Gn3 
	BYTE	W12
	BYTE		N48     Bn3 
	BYTE	W48
// 045   ----------------------------------------
	BYTE		N32     As3 
	BYTE	W36
	BYTE		N11     Cn4 
	BYTE	W12
	BYTE		N24     Cs4 
	BYTE	W24
	BYTE		N11     Cn4 
	BYTE	W12
	BYTE		N12     As3 
	BYTE	W12
// 046   ----------------------------------------
	BYTE		N24     Bn3 
	BYTE	W24
	BYTE		        Gn3 
	BYTE	W24
	BYTE		        Bn3 
	BYTE	W24
	BYTE		        Dn4 
	BYTE	W24
// 047   ----------------------------------------
	BYTE		        Fn4 
	BYTE	W24
	BYTE		        Cs4 
	BYTE	W24
	BYTE		        An3 
	BYTE	W24
	BYTE		        Fn3 
	BYTE	W24
// 048   ----------------------------------------
	BYTE		        Gn3 
	BYTE	W24
	BYTE		        Bn3 
	BYTE	W24
	BYTE		        Dn4 
	BYTE	W24
	BYTE		        Gn4 
	BYTE	W24
// 049   ----------------------------------------
	BYTE	W96
// 050   ----------------------------------------
	BYTE	W96
// 051   ----------------------------------------
	BYTE	W96
// 052   ----------------------------------------
	BYTE	W96
// 053   ----------------------------------------
	BYTE	W96
// 054   ----------------------------------------
	BYTE	W96
// 055   ----------------------------------------
	BYTE	W96
// 056   ----------------------------------------
	BYTE	W96
// 057   ----------------------------------------
	BYTE	W96
// 058   ----------------------------------------
	BYTE	W96
// 059   ----------------------------------------
	BYTE	W96
// 060   ----------------------------------------
	BYTE	W96
// 061   ----------------------------------------
	BYTE	W96
// 062   ----------------------------------------
	BYTE	W96
// 063   ----------------------------------------
	BYTE	W96
// 064   ----------------------------------------
	BYTE	W96
	BYTE	GoTo
	 POIN2	FranticFactory_5_B1
FranticFactory_5_B2:
// 065   ----------------------------------------
	BYTE	W96
// 066   ----------------------------------------
	BYTE	W56
	BYTE	W03
	BYTE	FINE

//**************** Track 6 (Midi-Chn.6) ****************//

FranticFactory_6:
	BYTE	KEYSH   FranticFactory_key+0
// 000   ----------------------------------------
	BYTE		VOICE   48
	BYTE		VOL     94*FranticFactory_mvl/mxv
	BYTE		PAN     c_v+0
	BYTE	W96
// 001   ----------------------------------------
	BYTE	W96
// 002   ----------------------------------------
	BYTE	W96
// 003   ----------------------------------------
	BYTE	W96
// 004   ----------------------------------------
	BYTE	W96
// 005   ----------------------------------------
	BYTE	W96
// 006   ----------------------------------------
	BYTE	W96
// 007   ----------------------------------------
	BYTE	W96
FranticFactory_6_B1:
// 008   ----------------------------------------
FranticFactory_6_008:
	BYTE		N06     Cn3   v080
	BYTE		N06     Ds3   v100
	BYTE	W12
	BYTE		        Cn3   v080
	BYTE	W12
	BYTE		N06   
	BYTE		N06     Ds3   v100
	BYTE	W12
	BYTE		        Cn3   v080
	BYTE	W12
	BYTE		N06   
	BYTE		N06     Ds3   v100
	BYTE	W12
	BYTE		        Cn3   v080
	BYTE	W12
	BYTE		N06   
	BYTE		N06     Ds3   v100
	BYTE	W12
	BYTE		        Cn3   v080
	BYTE	W12
	BYTE	PEND
// 009   ----------------------------------------
	BYTE	PATT
	 POIN2	FranticFactory_6_008
// 010   ----------------------------------------
	BYTE	PATT
	 POIN2	FranticFactory_6_008
// 011   ----------------------------------------
FranticFactory_6_011:
	BYTE		N06     Dn3   v080
	BYTE		N06     Fs3   v100
	BYTE	W12
	BYTE		        Bn2 
	BYTE	W12
	BYTE		        Dn3   v080
	BYTE		N06     Fs3   v100
	BYTE	W12
	BYTE		        Bn2 
	BYTE	W12
	BYTE		        Dn3   v080
	BYTE		N06     Fs3   v100
	BYTE	W12
	BYTE		        Bn2 
	BYTE	W12
	BYTE		        Dn3   v080
	BYTE		N06     Fs3   v100
	BYTE	W12
	BYTE		        Bn2 
	BYTE	W12
	BYTE	PEND
// 012   ----------------------------------------
	BYTE	PATT
	 POIN2	FranticFactory_6_011
// 013   ----------------------------------------
FranticFactory_6_013:
	BYTE		N06     En3   v100
	BYTE		N06     An3 
	BYTE	W12
	BYTE		        Cn3 
	BYTE	W12
	BYTE		        En3 
	BYTE		N06     An3 
	BYTE	W12
	BYTE		        Cn3 
	BYTE	W12
	BYTE		        En3 
	BYTE		N06     An3 
	BYTE	W12
	BYTE		        Cn3 
	BYTE	W12
	BYTE		        En3 
	BYTE		N06     An3 
	BYTE	W12
	BYTE		        Cn3 
	BYTE	W12
	BYTE	PEND
// 014   ----------------------------------------
FranticFactory_6_014:
	BYTE		N06     Fn3   v100
	BYTE		N06     Gs3 
	BYTE	W12
	BYTE		        Cn3 
	BYTE	W12
	BYTE		        Fn3 
	BYTE		N06     Gs3 
	BYTE	W12
	BYTE		        Cn3 
	BYTE	W12
	BYTE		        Fn3 
	BYTE		N06     Gs3 
	BYTE	W12
	BYTE		        Cn3 
	BYTE	W12
	BYTE		        Fn3 
	BYTE		N06     Gs3 
	BYTE	W12
	BYTE		        Cn3 
	BYTE	W12
	BYTE	PEND
// 015   ----------------------------------------
	BYTE	PATT
	 POIN2	FranticFactory_6_014
// 016   ----------------------------------------
	BYTE	PATT
	 POIN2	FranticFactory_6_008
// 017   ----------------------------------------
	BYTE	PATT
	 POIN2	FranticFactory_6_008
// 018   ----------------------------------------
	BYTE	PATT
	 POIN2	FranticFactory_6_008
// 019   ----------------------------------------
	BYTE	PATT
	 POIN2	FranticFactory_6_011
// 020   ----------------------------------------
	BYTE	PATT
	 POIN2	FranticFactory_6_011
// 021   ----------------------------------------
	BYTE	PATT
	 POIN2	FranticFactory_6_013
// 022   ----------------------------------------
	BYTE	PATT
	 POIN2	FranticFactory_6_014
// 023   ----------------------------------------
	BYTE	PATT
	 POIN2	FranticFactory_6_014
// 024   ----------------------------------------
	BYTE	W96
// 025   ----------------------------------------
	BYTE	W96
// 026   ----------------------------------------
	BYTE	W96
// 027   ----------------------------------------
	BYTE	W96
// 028   ----------------------------------------
	BYTE	W96
// 029   ----------------------------------------
	BYTE	W96
// 030   ----------------------------------------
	BYTE	W96
// 031   ----------------------------------------
	BYTE	W96
// 032   ----------------------------------------
	BYTE	W96
// 033   ----------------------------------------
	BYTE	W96
// 034   ----------------------------------------
	BYTE	W96
// 035   ----------------------------------------
	BYTE	W96
// 036   ----------------------------------------
	BYTE	W96
// 037   ----------------------------------------
	BYTE	W96
// 038   ----------------------------------------
	BYTE	W96
// 039   ----------------------------------------
	BYTE	W96
// 040   ----------------------------------------
	BYTE	W96
// 041   ----------------------------------------
	BYTE	W96
// 042   ----------------------------------------
	BYTE	W96
// 043   ----------------------------------------
	BYTE	W96
// 044   ----------------------------------------
	BYTE	W96
// 045   ----------------------------------------
	BYTE	W96
// 046   ----------------------------------------
	BYTE	W96
// 047   ----------------------------------------
	BYTE	W96
// 048   ----------------------------------------
	BYTE	W96
// 049   ----------------------------------------
FranticFactory_6_049:
	BYTE		N88     Cn2   v100
	BYTE		N96     Gn3 
	BYTE	W96
	BYTE	PEND
// 050   ----------------------------------------
	BYTE		N40     Cn2 
	BYTE		N48     Gs3 
	BYTE	W48
	BYTE		N40     Cn2 
	BYTE		N48     Gn3 
	BYTE	W48
// 051   ----------------------------------------
	BYTE		N40     Cn2 
	BYTE		N48     Fn3 
	BYTE	W48
	BYTE		        Cn2 
	BYTE		N48     Ds3 
	BYTE	W48
// 052   ----------------------------------------
	BYTE		        Cs2 
	BYTE		N48     Cs3 
	BYTE	W48
	BYTE		        Gn1 
	BYTE		N40     Gn3 
	BYTE	W48
// 053   ----------------------------------------
	BYTE	PATT
	 POIN2	FranticFactory_6_049
// 054   ----------------------------------------
	BYTE		N40     Cn2   v100
	BYTE		N48     Gs3 
	BYTE	W48
	BYTE		N42     Cn2 
	BYTE		N48     Gn3 
	BYTE	W48
// 055   ----------------------------------------
	BYTE		N96     Fs1 
	BYTE		N96     Fs3 
	BYTE	W96
// 056   ----------------------------------------
	BYTE		        Cn2 
	BYTE		N96     Gn3 
	BYTE	W96
// 057   ----------------------------------------
	BYTE	W96
// 058   ----------------------------------------
	BYTE	W96
// 059   ----------------------------------------
	BYTE	W96
// 060   ----------------------------------------
	BYTE	W96
// 061   ----------------------------------------
	BYTE	W96
// 062   ----------------------------------------
	BYTE	W96
// 063   ----------------------------------------
	BYTE	W96
// 064   ----------------------------------------
	BYTE	W96
	BYTE	GoTo
	 POIN2	FranticFactory_6_B1
FranticFactory_6_B2:
// 065   ----------------------------------------
	BYTE	PATT
	 POIN2	FranticFactory_6_008
// 066   ----------------------------------------
	BYTE		N06     Cn3   v080
	BYTE		N06     Ds3   v100
	BYTE	W12
	BYTE		        Cn3   v080
	BYTE	W12
	BYTE		N06   
	BYTE		N06     Ds3   v100
	BYTE	W12
	BYTE		        Cn3   v080
	BYTE	W12
	BYTE		N06   
	BYTE		N06     Ds3   v100
	BYTE	W11
	BYTE	FINE

//**************** Track 7 (Midi-Chn.7) ****************//

FranticFactory_7:
	BYTE	KEYSH   FranticFactory_key+0
// 000   ----------------------------------------
	BYTE		VOICE   42
	BYTE		VOL     99*FranticFactory_mvl/mxv
	BYTE		PAN     c_v+0
	BYTE	W96
// 001   ----------------------------------------
	BYTE	W96
// 002   ----------------------------------------
	BYTE	W96
// 003   ----------------------------------------
	BYTE	W96
// 004   ----------------------------------------
	BYTE	W96
// 005   ----------------------------------------
	BYTE	W96
// 006   ----------------------------------------
	BYTE	W96
// 007   ----------------------------------------
	BYTE	W96
FranticFactory_7_B1:
// 008   ----------------------------------------
	BYTE	W96
// 009   ----------------------------------------
	BYTE	W96
// 010   ----------------------------------------
	BYTE	W96
// 011   ----------------------------------------
	BYTE	W96
// 012   ----------------------------------------
	BYTE	W96
// 013   ----------------------------------------
	BYTE	W96
// 014   ----------------------------------------
	BYTE	W96
// 015   ----------------------------------------
	BYTE	W96
// 016   ----------------------------------------
FranticFactory_7_016:
	BYTE		N06     Cn1   v100
	BYTE	W36
	BYTE		        Gn0 
	BYTE	W12
	BYTE		        Cn1 
	BYTE	W36
	BYTE		        Gn0 
	BYTE	W12
	BYTE	PEND
// 017   ----------------------------------------
	BYTE	PATT
	 POIN2	FranticFactory_7_016
// 018   ----------------------------------------
	BYTE	PATT
	 POIN2	FranticFactory_7_016
// 019   ----------------------------------------
FranticFactory_7_019:
	BYTE		N06     Bn0   v100
	BYTE	W36
	BYTE		        Dn0 
	BYTE	W12
	BYTE		        Bn0 
	BYTE	W36
	BYTE		        Dn0 
	BYTE	W12
	BYTE	PEND
// 020   ----------------------------------------
	BYTE	PATT
	 POIN2	FranticFactory_7_019
// 021   ----------------------------------------
	BYTE		N06     An0   v100
	BYTE	W36
	BYTE		        Dn0 
	BYTE	W12
	BYTE		        An0 
	BYTE	W36
	BYTE		        Dn0 
	BYTE	W12
// 022   ----------------------------------------
	BYTE		        Gs0 
	BYTE	W36
	BYTE		        Dn0 
	BYTE	W12
	BYTE		        Gs0 
	BYTE	W36
	BYTE		        Dn0 
	BYTE	W12
// 023   ----------------------------------------
	BYTE		        Gn0 
	BYTE	W36
	BYTE		        Dn0 
	BYTE	W12
	BYTE		        Gn0 
	BYTE	W36
	BYTE		        Dn0 
	BYTE	W12
// 024   ----------------------------------------
	BYTE	W96
// 025   ----------------------------------------
	BYTE	W96
// 026   ----------------------------------------
	BYTE	W96
// 027   ----------------------------------------
	BYTE	W96
// 028   ----------------------------------------
	BYTE	W96
// 029   ----------------------------------------
	BYTE	W96
// 030   ----------------------------------------
	BYTE	W96
// 031   ----------------------------------------
	BYTE	W96
// 032   ----------------------------------------
	BYTE	W96
// 033   ----------------------------------------
	BYTE	W96
// 034   ----------------------------------------
	BYTE	W96
// 035   ----------------------------------------
	BYTE	W96
// 036   ----------------------------------------
	BYTE	W96
// 037   ----------------------------------------
	BYTE	W96
// 038   ----------------------------------------
	BYTE	W96
// 039   ----------------------------------------
	BYTE	W96
// 040   ----------------------------------------
	BYTE	W96
// 041   ----------------------------------------
	BYTE	W96
// 042   ----------------------------------------
	BYTE	W96
// 043   ----------------------------------------
	BYTE	W96
// 044   ----------------------------------------
	BYTE	W96
// 045   ----------------------------------------
	BYTE	W96
// 046   ----------------------------------------
	BYTE	W96
// 047   ----------------------------------------
	BYTE	W96
// 048   ----------------------------------------
	BYTE	W96
// 049   ----------------------------------------
	BYTE	W96
// 050   ----------------------------------------
	BYTE	W96
// 051   ----------------------------------------
	BYTE	W96
// 052   ----------------------------------------
	BYTE	W96
// 053   ----------------------------------------
	BYTE	W96
// 054   ----------------------------------------
	BYTE	W96
// 055   ----------------------------------------
	BYTE	W96
// 056   ----------------------------------------
	BYTE	W96
// 057   ----------------------------------------
	BYTE	W96
// 058   ----------------------------------------
	BYTE	W96
// 059   ----------------------------------------
	BYTE	W96
// 060   ----------------------------------------
	BYTE	W96
// 061   ----------------------------------------
	BYTE	W96
// 062   ----------------------------------------
	BYTE	W96
// 063   ----------------------------------------
	BYTE	W96
// 064   ----------------------------------------
	BYTE	W96
	BYTE	GoTo
	 POIN2	FranticFactory_7_B1
FranticFactory_7_B2:
// 065   ----------------------------------------
	BYTE	W96
// 066   ----------------------------------------
	BYTE	W56
	BYTE	W03
	BYTE	FINE

//**************** Track 8 (Midi-Chn.8) ****************//

FranticFactory_8:
	BYTE	KEYSH   FranticFactory_key+0
// 000   ----------------------------------------
	BYTE		VOICE   71
	BYTE		VOL     99*FranticFactory_mvl/mxv
	BYTE		PAN     c_v+20
	BYTE	W96
// 001   ----------------------------------------
	BYTE	W96
// 002   ----------------------------------------
	BYTE	W96
// 003   ----------------------------------------
	BYTE	W96
// 004   ----------------------------------------
	BYTE	W96
// 005   ----------------------------------------
	BYTE	W96
// 006   ----------------------------------------
	BYTE	W96
// 007   ----------------------------------------
	BYTE	W96
FranticFactory_8_B1:
// 008   ----------------------------------------
FranticFactory_8_008:
	BYTE		N32     Cn1   v100
	BYTE	W36
	BYTE		N24     Dn1 
	BYTE	W24
	BYTE		        Ds1 
	BYTE	W24
	BYTE		N12     Gn1 
	BYTE	W12
	BYTE	PEND
// 009   ----------------------------------------
	BYTE		N24     Cn1 
	BYTE	W96
// 010   ----------------------------------------
	BYTE	PATT
	 POIN2	FranticFactory_8_008
// 011   ----------------------------------------
	BYTE		N24     Fs1   v100
	BYTE	W96
// 012   ----------------------------------------
	BYTE		N32     Bn0 
	BYTE	W36
	BYTE		N12     Cs1 
	BYTE	W12
	BYTE		N24     Dn1 
	BYTE	W24
	BYTE		        Bn0 
	BYTE	W24
// 013   ----------------------------------------
	BYTE		        An0 
	BYTE	W24
	BYTE		N48     Cn1 
	BYTE	W48
	BYTE		N24     An0 
	BYTE	W24
// 014   ----------------------------------------
	BYTE		N48     Gs0 
	BYTE	W48
	BYTE		N24     Cn1 
	BYTE	W24
	BYTE		        Fn1 
	BYTE	W24
// 015   ----------------------------------------
	BYTE		N32     Gn1 
	BYTE	W36
	BYTE		N12     Fn1 
	BYTE	W12
	BYTE		N24     Ds1 
	BYTE	W24
	BYTE		        Dn1 
	BYTE	W24
// 016   ----------------------------------------
	BYTE	W96
// 017   ----------------------------------------
	BYTE	W96
// 018   ----------------------------------------
	BYTE	W96
// 019   ----------------------------------------
	BYTE	W96
// 020   ----------------------------------------
	BYTE	W96
// 021   ----------------------------------------
	BYTE	W96
// 022   ----------------------------------------
	BYTE	W96
// 023   ----------------------------------------
	BYTE	W96
// 024   ----------------------------------------
	BYTE	W96
// 025   ----------------------------------------
	BYTE	W96
// 026   ----------------------------------------
	BYTE	W96
// 027   ----------------------------------------
	BYTE	W96
// 028   ----------------------------------------
	BYTE	W96
// 029   ----------------------------------------
	BYTE	W96
// 030   ----------------------------------------
	BYTE	W96
// 031   ----------------------------------------
	BYTE	W96
// 032   ----------------------------------------
	BYTE	W96
// 033   ----------------------------------------
FranticFactory_8_033:
	BYTE		N17     Cn1   v100
	BYTE	W36
	BYTE		N12     Dn1 
	BYTE	W12
	BYTE		N11     Ds1 
	BYTE	W24
	BYTE		        Gn1 
	BYTE	W24
	BYTE	PEND
// 034   ----------------------------------------
FranticFactory_8_034:
	BYTE		N11     Gs1   v100
	BYTE	W36
	BYTE		N06     As1 
	BYTE	W06
	BYTE		        Gs1 
	BYTE	W06
	BYTE		N11     Gn1 
	BYTE	W48
	BYTE	PEND
// 035   ----------------------------------------
	BYTE		N17     Fn1 
	BYTE	W36
	BYTE		N06     Gn1 
	BYTE	W06
	BYTE		        Gs1 
	BYTE	W06
	BYTE		N11     Ds1 
	BYTE	W36
	BYTE		N06     Fn1 
	BYTE	W06
	BYTE		        Gn1 
	BYTE	W06
// 036   ----------------------------------------
	BYTE		N11     Cs1 
	BYTE	W36
	BYTE		N06     Ds1 
	BYTE	W06
	BYTE		        Fn1 
	BYTE	W06
	BYTE		N11     Gn1 
	BYTE	W24
	BYTE		N24     Gn0 
	BYTE	W24
// 037   ----------------------------------------
	BYTE	PATT
	 POIN2	FranticFactory_8_033
// 038   ----------------------------------------
	BYTE	PATT
	 POIN2	FranticFactory_8_034
// 039   ----------------------------------------
	BYTE		N11     Fs1   v100
	BYTE	W24
	BYTE		        As1 
	BYTE	W24
	BYTE		        Fs1 
	BYTE	W24
	BYTE		        Cs1 
	BYTE	W24
// 040   ----------------------------------------
	BYTE		        Cn1 
	BYTE	W24
	BYTE		        Gn1 
	BYTE	W24
	BYTE		        Cn1 
	BYTE	W48
// 041   ----------------------------------------
	BYTE	W96
// 042   ----------------------------------------
	BYTE	W96
// 043   ----------------------------------------
	BYTE	W96
// 044   ----------------------------------------
	BYTE	W96
// 045   ----------------------------------------
	BYTE		N32     As1 
	BYTE	W36
	BYTE		N11     Cn2 
	BYTE	W12
	BYTE		N24     Cs2 
	BYTE	W24
	BYTE		N11     Cn2 
	BYTE	W12
	BYTE		N12     As1 
	BYTE	W12
// 046   ----------------------------------------
	BYTE		N24     Bn1 
	BYTE	W24
	BYTE		        Gn1 
	BYTE	W24
	BYTE		        Bn1 
	BYTE	W24
	BYTE		        Dn2 
	BYTE	W24
// 047   ----------------------------------------
	BYTE		        Fn2 
	BYTE	W24
	BYTE		        Cs2 
	BYTE	W24
	BYTE		        An1 
	BYTE	W24
	BYTE		        Fn1 
	BYTE	W24
// 048   ----------------------------------------
	BYTE		        Gn1 
	BYTE	W24
	BYTE		        Bn1 
	BYTE	W24
	BYTE		        Dn2 
	BYTE	W24
	BYTE		        Gn2 
	BYTE	W24
// 049   ----------------------------------------
	BYTE	W96
// 050   ----------------------------------------
	BYTE	W96
// 051   ----------------------------------------
	BYTE	W96
// 052   ----------------------------------------
	BYTE	W96
// 053   ----------------------------------------
	BYTE	W96
// 054   ----------------------------------------
	BYTE	W96
// 055   ----------------------------------------
	BYTE	W96
// 056   ----------------------------------------
	BYTE	W96
// 057   ----------------------------------------
	BYTE	W96
// 058   ----------------------------------------
	BYTE	W96
// 059   ----------------------------------------
	BYTE	W96
// 060   ----------------------------------------
	BYTE	W96
// 061   ----------------------------------------
	BYTE	W96
// 062   ----------------------------------------
	BYTE	W96
// 063   ----------------------------------------
	BYTE	W96
// 064   ----------------------------------------
	BYTE	W96
	BYTE	GoTo
	 POIN2	FranticFactory_8_B1
FranticFactory_8_B2:
// 065   ----------------------------------------
	BYTE	PATT
	 POIN2	FranticFactory_8_008
// 066   ----------------------------------------
	BYTE		N24     Cn1   v100
	BYTE	W56
	BYTE	W03
	BYTE	FINE

//**************** Track 9 (Midi-Chn.9) ****************//

FranticFactory_9:
	BYTE	KEYSH   FranticFactory_key+0
// 000   ----------------------------------------
	BYTE		VOICE   10
	BYTE		VOL     59*FranticFactory_mvl/mxv
	BYTE		PAN     c_v+40
	BYTE	W01
	BYTE		N06     Cn5   v080
	BYTE		N06     Cn6   v100
	BYTE	W12
	BYTE		        Gs5 
	BYTE	W12
	BYTE		        Ds5   v080
	BYTE		N06     Gn5   v100
	BYTE	W12
	BYTE		        Gs5 
	BYTE	W12
	BYTE		        Cn5   v080
	BYTE		N06     Cn6   v100
	BYTE	W12
	BYTE		        Gs5 
	BYTE	W12
	BYTE		        Ds5   v080
	BYTE		N06     Gn5   v100
	BYTE	W12
	BYTE		        Gs5 
	BYTE	W11
// 001   ----------------------------------------
FranticFactory_9_001:
	BYTE	W01
	BYTE		N06     Dn5   v080
	BYTE		N06     Bn5   v100
	BYTE	W12
	BYTE		        Gs5 
	BYTE	W12
	BYTE		        Fn5   v080
	BYTE		N06     Gn5   v100
	BYTE	W12
	BYTE		        Gs5 
	BYTE	W12
	BYTE		        Dn5   v080
	BYTE		N06     Bn5   v100
	BYTE	W12
	BYTE		        Gs5 
	BYTE	W12
	BYTE		        Fn5   v080
	BYTE		N06     Gn5   v100
	BYTE	W12
	BYTE		        Gs5 
	BYTE	W11
	BYTE	PEND
// 002   ----------------------------------------
FranticFactory_9_002:
	BYTE	W01
	BYTE		N06     Bn4   v080
	BYTE		N06     Bn5   v100
	BYTE	W12
	BYTE		        Gs5 
	BYTE	W12
	BYTE		        Dn5   v080
	BYTE		N06     Gn5   v100
	BYTE	W12
	BYTE		        Gs5 
	BYTE	W12
	BYTE		        Fn5   v080
	BYTE		N06     Bn5   v100
	BYTE	W12
	BYTE		        Gs5 
	BYTE	W12
	BYTE		        Dn5   v080
	BYTE		N06     Gn5   v100
	BYTE	W12
	BYTE		        Gs5 
	BYTE	W11
	BYTE	PEND
// 003   ----------------------------------------
FranticFactory_9_003:
	BYTE	W01
	BYTE		N06     Cn5   v080
	BYTE		N06     Cn6   v100
	BYTE	W12
	BYTE		        Gs5 
	BYTE	W12
	BYTE		        Ds5   v080
	BYTE		N06     Gn5   v100
	BYTE	W12
	BYTE		        Gs5 
	BYTE	W12
	BYTE		        Cn5   v080
	BYTE		N06     Cn6   v100
	BYTE	W44
	BYTE	W03
	BYTE	PEND
// 004   ----------------------------------------
FranticFactory_9_004:
	BYTE	W01
	BYTE		N06     Cn5   v080
	BYTE		N06     Cn6   v100
	BYTE	W12
	BYTE		        Gs5 
	BYTE	W12
	BYTE		        Ds5   v080
	BYTE		N06     Gn5   v100
	BYTE	W12
	BYTE		        Gs5 
	BYTE	W12
	BYTE		        Cn5   v080
	BYTE		N06     Cn6   v100
	BYTE	W12
	BYTE		        Gs5 
	BYTE	W12
	BYTE		        Ds5   v080
	BYTE		N06     Gn5   v100
	BYTE	W12
	BYTE		        Gs5 
	BYTE	W11
	BYTE	PEND
// 005   ----------------------------------------
FranticFactory_9_005:
	BYTE	W01
	BYTE		N06     Cn5   v080
	BYTE		N06     Dn6   v100
	BYTE	W12
	BYTE		        An5 
	BYTE	W12
	BYTE		        Dn5   v080
	BYTE		N06     Dn6   v100
	BYTE	W12
	BYTE		        Cn6 
	BYTE	W12
	BYTE		        Fn5   v080
	BYTE		N06     Dn6   v100
	BYTE	W12
	BYTE		        An5 
	BYTE	W12
	BYTE		        Dn5   v080
	BYTE		N06     Dn6   v100
	BYTE	W12
	BYTE		        Cn6 
	BYTE	W11
	BYTE	PEND
// 006   ----------------------------------------
FranticFactory_9_006:
	BYTE	W01
	BYTE		N06     Cn5   v080
	BYTE		N06     Dn6   v100
	BYTE	W12
	BYTE		        Cn6 
	BYTE	W12
	BYTE		        Dn5   v080
	BYTE		N06     Gn5   v100
	BYTE	W12
	BYTE		        Gs5 
	BYTE	W12
	BYTE		        Fn5   v080
	BYTE		N06     Dn6   v100
	BYTE	W12
	BYTE		        Cn6 
	BYTE	W12
	BYTE		        Dn5   v080
	BYTE		N06     Gn5   v100
	BYTE	W12
	BYTE		        Gs5 
	BYTE	W11
	BYTE	PEND
// 007   ----------------------------------------
	BYTE	PATT
	 POIN2	FranticFactory_9_003
FranticFactory_9_B1:
// 008   ----------------------------------------
	BYTE	W96
// 009   ----------------------------------------
	BYTE	W96
// 010   ----------------------------------------
	BYTE	W96
// 011   ----------------------------------------
	BYTE	W96
// 012   ----------------------------------------
	BYTE	W96
// 013   ----------------------------------------
	BYTE	W96
// 014   ----------------------------------------
	BYTE	W96
// 015   ----------------------------------------
	BYTE	W96
// 016   ----------------------------------------
FranticFactory_9_016:
	BYTE	W01
	BYTE		N06     Cn6   v060
	BYTE	W12
	BYTE		        Gn6 
	BYTE	W12
	BYTE		        Ds6 
	BYTE	W12
	BYTE		        Gn6 
	BYTE	W12
	BYTE		        Cn6 
	BYTE	W12
	BYTE		        Gn6 
	BYTE	W12
	BYTE		        Ds6 
	BYTE	W12
	BYTE		        Gn6 
	BYTE	W11
	BYTE	PEND
// 017   ----------------------------------------
	BYTE	PATT
	 POIN2	FranticFactory_9_016
// 018   ----------------------------------------
	BYTE	PATT
	 POIN2	FranticFactory_9_016
// 019   ----------------------------------------
FranticFactory_9_019:
	BYTE	W01
	BYTE		N06     Bn5   v060
	BYTE	W12
	BYTE		        Fs6 
	BYTE	W12
	BYTE		        Ds6 
	BYTE	W12
	BYTE		        Fs6 
	BYTE	W12
	BYTE		        Bn5 
	BYTE	W12
	BYTE		        Fs6 
	BYTE	W12
	BYTE		        Ds6 
	BYTE	W12
	BYTE		        Fs6 
	BYTE	W11
	BYTE	PEND
// 020   ----------------------------------------
	BYTE	PATT
	 POIN2	FranticFactory_9_019
// 021   ----------------------------------------
	BYTE	W01
	BYTE		N06     An5   v060
	BYTE	W12
	BYTE		        En6 
	BYTE	W12
	BYTE		        Cn6 
	BYTE	W12
	BYTE		        En6 
	BYTE	W12
	BYTE		        An5 
	BYTE	W12
	BYTE		        En6 
	BYTE	W12
	BYTE		        Cn6 
	BYTE	W12
	BYTE		        En6 
	BYTE	W11
// 022   ----------------------------------------
FranticFactory_9_022:
	BYTE	W01
	BYTE		N06     Bn5   v060
	BYTE	W12
	BYTE		        Fn6 
	BYTE	W12
	BYTE		        Dn6 
	BYTE	W12
	BYTE		        Fn6 
	BYTE	W12
	BYTE		        Bn5 
	BYTE	W12
	BYTE		        Fn6 
	BYTE	W12
	BYTE		        Dn6 
	BYTE	W12
	BYTE		        Fn6 
	BYTE	W11
	BYTE	PEND
// 023   ----------------------------------------
	BYTE	PATT
	 POIN2	FranticFactory_9_022
// 024   ----------------------------------------
	BYTE	W96
// 025   ----------------------------------------
	BYTE	W96
// 026   ----------------------------------------
	BYTE	W96
// 027   ----------------------------------------
	BYTE	W96
// 028   ----------------------------------------
	BYTE	W96
// 029   ----------------------------------------
	BYTE	W96
// 030   ----------------------------------------
	BYTE	W96
// 031   ----------------------------------------
	BYTE	W96
// 032   ----------------------------------------
	BYTE	W96
// 033   ----------------------------------------
	BYTE	PATT
	 POIN2	FranticFactory_9_016
// 034   ----------------------------------------
FranticFactory_9_034:
	BYTE	W01
	BYTE		N06     Cn6   v060
	BYTE	W12
	BYTE		        Gs6 
	BYTE	W12
	BYTE		        Ds6 
	BYTE	W12
	BYTE		        Gs6 
	BYTE	W12
	BYTE		        Cn6 
	BYTE	W12
	BYTE		        Gn6 
	BYTE	W12
	BYTE		        Ds6 
	BYTE	W12
	BYTE		        Gn6 
	BYTE	W11
	BYTE	PEND
// 035   ----------------------------------------
	BYTE	W01
	BYTE		        Cn6 
	BYTE	W12
	BYTE		        Gs6 
	BYTE	W12
	BYTE		        Fn6 
	BYTE	W12
	BYTE		        Gs6 
	BYTE	W12
	BYTE		        Cn6 
	BYTE	W12
	BYTE		        Gn6 
	BYTE	W12
	BYTE		        Ds6 
	BYTE	W12
	BYTE		        Gn6 
	BYTE	W11
// 036   ----------------------------------------
	BYTE	W01
	BYTE		        Cn6 
	BYTE	W12
	BYTE		        Gs6 
	BYTE	W12
	BYTE		        Fn6 
	BYTE	W12
	BYTE		        Gs6 
	BYTE	W12
	BYTE		        Cn6 
	BYTE	W12
	BYTE		        Fn6 
	BYTE	W12
	BYTE		        Dn6 
	BYTE	W12
	BYTE		        Fn6 
	BYTE	W11
// 037   ----------------------------------------
	BYTE	PATT
	 POIN2	FranticFactory_9_016
// 038   ----------------------------------------
	BYTE	PATT
	 POIN2	FranticFactory_9_034
// 039   ----------------------------------------
	BYTE	W01
	BYTE		N06     Cs6   v060
	BYTE	W12
	BYTE		        As6 
	BYTE	W12
	BYTE		        Fs6 
	BYTE	W12
	BYTE		        As6 
	BYTE	W12
	BYTE		        Cs6 
	BYTE	W12
	BYTE		        As6 
	BYTE	W12
	BYTE		        Fs6 
	BYTE	W12
	BYTE		        As6 
	BYTE	W11
// 040   ----------------------------------------
	BYTE	PATT
	 POIN2	FranticFactory_9_016
// 041   ----------------------------------------
	BYTE	W96
// 042   ----------------------------------------
	BYTE	W96
// 043   ----------------------------------------
	BYTE	W96
// 044   ----------------------------------------
	BYTE	W96
// 045   ----------------------------------------
	BYTE	W96
// 046   ----------------------------------------
	BYTE	W96
// 047   ----------------------------------------
	BYTE	W96
// 048   ----------------------------------------
	BYTE	W96
// 049   ----------------------------------------
FranticFactory_9_049:
	BYTE	W01
	BYTE		N06     Cn5   v100
	BYTE	W36
	BYTE		        Dn5 
	BYTE	W12
	BYTE		        Ds5 
	BYTE	W24
	BYTE		        Gn5 
	BYTE	W23
	BYTE	PEND
// 050   ----------------------------------------
FranticFactory_9_050:
	BYTE	W01
	BYTE		N06     Gs5   v100
	BYTE	W36
	BYTE		        As5 
	BYTE	W06
	BYTE		        Gs5 
	BYTE	W06
	BYTE		        Gn5 
	BYTE	W44
	BYTE	W03
	BYTE	PEND
// 051   ----------------------------------------
	BYTE	W01
	BYTE		        Fn5 
	BYTE	W36
	BYTE		        Gn5 
	BYTE	W06
	BYTE		        Gs5 
	BYTE	W06
	BYTE		        Ds5 
	BYTE	W36
	BYTE		        Fn5 
	BYTE	W06
	BYTE		        Gn5 
	BYTE	W05
// 052   ----------------------------------------
	BYTE	W01
	BYTE		        Cs5 
	BYTE	W36
	BYTE		        Ds5 
	BYTE	W06
	BYTE		        Fn5 
	BYTE	W06
	BYTE		        Gn5 
	BYTE	W24
	BYTE		        Gn4 
	BYTE	W23
// 053   ----------------------------------------
	BYTE	PATT
	 POIN2	FranticFactory_9_049
// 054   ----------------------------------------
	BYTE	PATT
	 POIN2	FranticFactory_9_050
// 055   ----------------------------------------
	BYTE	W01
	BYTE		N06     Fs5   v100
	BYTE	W24
	BYTE		        As5 
	BYTE	W24
	BYTE		        Fs5 
	BYTE	W24
	BYTE		        Cs5 
	BYTE	W23
// 056   ----------------------------------------
	BYTE	W01
	BYTE		        Cn5 
	BYTE	W24
	BYTE		        Gn5 
	BYTE	W24
	BYTE		        Cn5 
	BYTE	W44
	BYTE	W03
// 057   ----------------------------------------
	BYTE	PATT
	 POIN2	FranticFactory_9_004
// 058   ----------------------------------------
	BYTE	PATT
	 POIN2	FranticFactory_9_001
// 059   ----------------------------------------
	BYTE	PATT
	 POIN2	FranticFactory_9_002
// 060   ----------------------------------------
	BYTE	PATT
	 POIN2	FranticFactory_9_003
// 061   ----------------------------------------
	BYTE	PATT
	 POIN2	FranticFactory_9_004
// 062   ----------------------------------------
	BYTE	PATT
	 POIN2	FranticFactory_9_005
// 063   ----------------------------------------
	BYTE	PATT
	 POIN2	FranticFactory_9_006
// 064   ----------------------------------------
	BYTE	PATT
	 POIN2	FranticFactory_9_003
	BYTE	GoTo
	 POIN2	FranticFactory_9_B1
FranticFactory_9_B2:
// 065   ----------------------------------------
	BYTE	W96
// 066   ----------------------------------------
	BYTE	W56
	BYTE	W03
	BYTE	FINE

//**************** Track 10 (Midi-Chn.11) ****************//

FranticFactory_10:
	BYTE	KEYSH   FranticFactory_key+0
// 000   ----------------------------------------
	BYTE		VOICE   54
	BYTE		VOL     59*FranticFactory_mvl/mxv
	BYTE		PAN     c_v+0
	BYTE	W96
// 001   ----------------------------------------
	BYTE	W96
// 002   ----------------------------------------
	BYTE	W96
// 003   ----------------------------------------
	BYTE	W96
// 004   ----------------------------------------
	BYTE	W96
// 005   ----------------------------------------
	BYTE	W96
// 006   ----------------------------------------
	BYTE	W96
// 007   ----------------------------------------
	BYTE	W96
FranticFactory_10_B1:
// 008   ----------------------------------------
	BYTE	W96
// 009   ----------------------------------------
	BYTE	W96
// 010   ----------------------------------------
	BYTE	W96
// 011   ----------------------------------------
	BYTE	W96
// 012   ----------------------------------------
	BYTE	W96
// 013   ----------------------------------------
	BYTE	W96
// 014   ----------------------------------------
	BYTE	W96
// 015   ----------------------------------------
	BYTE	W96
// 016   ----------------------------------------
	BYTE	W96
// 017   ----------------------------------------
	BYTE	W96
// 018   ----------------------------------------
	BYTE	W96
// 019   ----------------------------------------
	BYTE	W96
// 020   ----------------------------------------
	BYTE	W96
// 021   ----------------------------------------
	BYTE	W96
// 022   ----------------------------------------
	BYTE	W96
// 023   ----------------------------------------
	BYTE	W96
// 024   ----------------------------------------
	BYTE	W96
// 025   ----------------------------------------
	BYTE	W96
// 026   ----------------------------------------
	BYTE	W96
// 027   ----------------------------------------
	BYTE	W96
// 028   ----------------------------------------
	BYTE	W96
// 029   ----------------------------------------
	BYTE	W96
// 030   ----------------------------------------
	BYTE	W96
// 031   ----------------------------------------
	BYTE	W96
// 032   ----------------------------------------
	BYTE	W96
// 033   ----------------------------------------
FranticFactory_10_033:
	BYTE		N96     Gn3   v100
	BYTE		N96     En4 
	BYTE		N96     Gn4 
	BYTE	W96
	BYTE	PEND
// 034   ----------------------------------------
FranticFactory_10_034:
	BYTE		N48     Gs3   v100
	BYTE		N48     Fn4 
	BYTE		N48     Gs4 
	BYTE	W48
	BYTE		        Gn3 
	BYTE		N48     En4 
	BYTE		N48     Gn4 
	BYTE	W48
	BYTE	PEND
// 035   ----------------------------------------
	BYTE		        Fn3 
	BYTE		N48     Dn4 
	BYTE		N48     Fn4 
	BYTE	W48
	BYTE		        Ds3 
	BYTE		N48     Cn4 
	BYTE		N48     Ds4 
	BYTE	W48
// 036   ----------------------------------------
	BYTE		        Cs3 
	BYTE		N48     Fn3 
	BYTE		N48     Cs4 
	BYTE	W48
	BYTE		        Gn3 
	BYTE		N48     En4 
	BYTE		N48     Gn4 
	BYTE	W48
// 037   ----------------------------------------
	BYTE	PATT
	 POIN2	FranticFactory_10_033
// 038   ----------------------------------------
	BYTE	PATT
	 POIN2	FranticFactory_10_034
// 039   ----------------------------------------
	BYTE		N96     Fs3   v100
	BYTE		N96     Ds4 
	BYTE		N96     Fs4 
	BYTE	W96
// 040   ----------------------------------------
	BYTE	PATT
	 POIN2	FranticFactory_10_033
// 041   ----------------------------------------
	BYTE		N96     Gs2   v100
	BYTE		N96     Cn3 
	BYTE		N96     Cn4 
	BYTE	W96
// 042   ----------------------------------------
FranticFactory_10_042:
	BYTE		N96     Gn2   v100
	BYTE		N96     Bn2 
	BYTE		N96     Bn3 
	BYTE	W96
	BYTE	PEND
// 043   ----------------------------------------
FranticFactory_10_043:
	BYTE		N96     Fn2   v100
	BYTE		N96     As2 
	BYTE		N96     As3 
	BYTE	W96
	BYTE	PEND
// 044   ----------------------------------------
	BYTE	PATT
	 POIN2	FranticFactory_10_042
// 045   ----------------------------------------
	BYTE	PATT
	 POIN2	FranticFactory_10_043
// 046   ----------------------------------------
	BYTE	PATT
	 POIN2	FranticFactory_10_042
// 047   ----------------------------------------
	BYTE	PATT
	 POIN2	FranticFactory_10_043
// 048   ----------------------------------------
	BYTE	PATT
	 POIN2	FranticFactory_10_042
// 049   ----------------------------------------
	BYTE	W96
// 050   ----------------------------------------
	BYTE	W96
// 051   ----------------------------------------
	BYTE	W96
// 052   ----------------------------------------
	BYTE	W96
// 053   ----------------------------------------
	BYTE	W96
// 054   ----------------------------------------
	BYTE	W96
// 055   ----------------------------------------
	BYTE	W96
// 056   ----------------------------------------
	BYTE	W96
// 057   ----------------------------------------
	BYTE	W96
// 058   ----------------------------------------
	BYTE	W96
// 059   ----------------------------------------
	BYTE	W96
// 060   ----------------------------------------
	BYTE	W96
// 061   ----------------------------------------
	BYTE	W96
// 062   ----------------------------------------
	BYTE	W96
// 063   ----------------------------------------
	BYTE	W96
// 064   ----------------------------------------
	BYTE	W96
	BYTE	GoTo
	 POIN2	FranticFactory_10_B1
FranticFactory_10_B2:
// 065   ----------------------------------------
	BYTE	W96
// 066   ----------------------------------------
	BYTE	W56
	BYTE	W03
	BYTE	FINE

//******************************************************//
	ALIGN 4

FranticFactory:
	BYTE	10	// NumTrks
	BYTE	0	// NumBlks
	BYTE	FranticFactory_pri	// Priority
	BYTE	FranticFactory_rev	// Reverb.

	POIN2	FranticFactory_grp

	POIN2	FranticFactory_1
	POIN2	FranticFactory_2
	POIN2	FranticFactory_3
	POIN2	FranticFactory_4
	POIN2	FranticFactory_5
	POIN2	FranticFactory_6
	POIN2	FranticFactory_7
	POIN2	FranticFactory_8
	POIN2	FranticFactory_9
	POIN2	FranticFactory_10

	
