//Event file generated from Sappy .s format.
	#include "MPlayDef.event"

	#define	GreenGardenNight_grp  voicegroup000
	#define	GreenGardenNight_pri  0
	#define	GreenGardenNight_rev  0
	#define	GreenGardenNight_mvl  50
	#define	GreenGardenNight_key  0
	#define	GreenGardenNight_tbs  1
	#define	GreenGardenNight_exg  0
	#define	GreenGardenNight_cmp  1

	// .rodata
	//	GreenGardenNight
	ALIGN 4

//**************** Track 1 (Midi-Chn.1) ****************//

GreenGardenNight_1:
	BYTE	KEYSH   GreenGardenNight_key+0
GreenGardenNight_1_B1:
// 000   ----------------------------------------
	BYTE	TEMPO   124*GreenGardenNight_tbs/2
	BYTE		VOICE   1
	BYTE		VOL     127*GreenGardenNight_mvl/mxv
	BYTE		PAN     c_v+0
	BYTE		N11     Cn5   v080
	BYTE	W12
	BYTE		        Gn4 
	BYTE	W12
	BYTE		        Fn4 
	BYTE	W12
	BYTE		N22     Gn4 
	BYTE	W60
// 001   ----------------------------------------
GreenGardenNight_1_001:
	BYTE	W12
	BYTE		N11     Cn4   v080
	BYTE	W12
	BYTE		        Fn4 
	BYTE	W12
	BYTE		        Gn4 
	BYTE	W12
	BYTE		        Cn5 
	BYTE	W12
	BYTE		        Gn4 
	BYTE	W12
	BYTE		        Fn4 
	BYTE	W12
	BYTE		N22     Gn4 
	BYTE	W12
	BYTE	PEND
// 002   ----------------------------------------
	BYTE	W96
// 003   ----------------------------------------
	BYTE		N11     Cn5 
	BYTE	W12
	BYTE		        Gn4 
	BYTE	W12
	BYTE		        Fn4 
	BYTE	W12
	BYTE		N22     Gn4 
	BYTE	W60
// 004   ----------------------------------------
	BYTE	PATT
	 POIN2	GreenGardenNight_1_001
// 005   ----------------------------------------
	BYTE	W96
// 006   ----------------------------------------
GreenGardenNight_1_006:
	BYTE		N68     Fn4   v080
	BYTE	W72
	BYTE		        En4 
	BYTE	W24
	BYTE	PEND
// 007   ----------------------------------------
	BYTE	W96
// 008   ----------------------------------------
	BYTE	W48
	BYTE		N22     Cn4 
	BYTE	W24
	BYTE		        Dn4 
	BYTE	W24
// 009   ----------------------------------------
	BYTE	PATT
	 POIN2	GreenGardenNight_1_006
// 010   ----------------------------------------
	BYTE	W96
// 011   ----------------------------------------
	BYTE	W48
	BYTE		N22     Fn4   v080
	BYTE	W24
	BYTE		        Gn4 
	BYTE	W24
// 012   ----------------------------------------
	BYTE		N68   
	BYTE	W72
	BYTE		        Cn4 
	BYTE	W24
// 013   ----------------------------------------
	BYTE	W96
// 014   ----------------------------------------
	BYTE	W24
	BYTE		N22     An3 
	BYTE	W24
	BYTE		        Cn4 
	BYTE	W24
	BYTE		        Dn4 
	BYTE	W24
// 015   ----------------------------------------
	BYTE		TIE     En4 
	BYTE	W96
// 016   ----------------------------------------
	BYTE	W17
	BYTE		EOT   
	BYTE	W07
	BYTE		N22     Fn4 
	BYTE	W24
	BYTE		N68     Dn4 
	BYTE	W48
// 017   ----------------------------------------
	BYTE	W96
// 018   ----------------------------------------
	BYTE		        Fn3 
	BYTE		N68     Fn4 
	BYTE	W72
	BYTE		        En3 
	BYTE		N68     En4 
	BYTE	W24
// 019   ----------------------------------------
	BYTE	W96
// 020   ----------------------------------------
	BYTE	W24
	BYTE		N22     Gn2 
	BYTE	W24
	BYTE		        An2 
	BYTE		N22     An3 
	BYTE	W24
	BYTE		        Cn4 
	BYTE	W24
// 021   ----------------------------------------
	BYTE		N68     Fn3 
	BYTE		N68     Fn4 
	BYTE	W72
	BYTE		        En4 
	BYTE	W24
// 022   ----------------------------------------
	BYTE	W96
// 023   ----------------------------------------
	BYTE	W48
	BYTE		N22     Fn3 
	BYTE		N22     Fn4 
	BYTE	W24
	BYTE		        Gn3 
	BYTE		N22     Gn4 
	BYTE	W24
// 024   ----------------------------------------
	BYTE		N68     Gn3 
	BYTE		N68     Gn4 
	BYTE	W72
	BYTE		        Cn4 
	BYTE	W24
// 025   ----------------------------------------
	BYTE	W96
// 026   ----------------------------------------
	BYTE	W24
	BYTE		N22     En3 
	BYTE		N22     En4 
	BYTE	W24
	BYTE		        Fn3 
	BYTE		N22     Fn4 
	BYTE	W24
	BYTE		        Gn3 
	BYTE		N22     Gn4 
	BYTE	W24
// 027   ----------------------------------------
	BYTE		TIE     An3 
	BYTE		TIE     An4 
	BYTE	W96
// 028   ----------------------------------------
	BYTE	W17
	BYTE		EOT     An3 
	BYTE		        An4 
	BYTE	W07
	BYTE		N22     Bn3 
	BYTE		N22     Bn4 
	BYTE	W24
	BYTE		N68     Gn3 
	BYTE		N68     Gn4 
	BYTE	W48
// 029   ----------------------------------------
	BYTE	W72
	BYTE	GoTo
	 POIN2	GreenGardenNight_1_B1
GreenGardenNight_1_B2:
	BYTE	W23
	BYTE	FINE

//**************** Track 2 (Midi-Chn.2) ****************//

GreenGardenNight_2:
	BYTE	KEYSH   GreenGardenNight_key+0
GreenGardenNight_2_B1:
// 000   ----------------------------------------
	BYTE		VOICE   34
	BYTE		VOL     100*GreenGardenNight_mvl/mxv
	BYTE		PAN     c_v+0
	BYTE		TIE     Cn2   v080
	BYTE	W96
// 001   ----------------------------------------
	BYTE	W44
	BYTE	W03
	BYTE		EOT   
	BYTE	W01
	BYTE		TIE     Fn1 
	BYTE	W48
// 002   ----------------------------------------
	BYTE	W68
	BYTE	W03
	BYTE		EOT   
	BYTE	W01
	BYTE		N23     Gn1 
	BYTE	W24
// 003   ----------------------------------------
	BYTE		TIE     Cn2 
	BYTE	W96
// 004   ----------------------------------------
	BYTE	W44
	BYTE	W03
	BYTE		EOT   
	BYTE	W01
	BYTE		TIE     Fn1 
	BYTE	W48
// 005   ----------------------------------------
	BYTE	W68
	BYTE	W03
	BYTE		EOT   
	BYTE	W01
	BYTE		N23     Gn1 
	BYTE	W24
// 006   ----------------------------------------
	BYTE		TIE     Cn2 
	BYTE	W96
// 007   ----------------------------------------
	BYTE	W23
	BYTE		EOT   
	BYTE	W01
	BYTE		N23     Gn1 
	BYTE	W24
	BYTE		TIE     Cn2 
	BYTE	W48
// 008   ----------------------------------------
	BYTE	W92
	BYTE	W03
	BYTE		EOT   
	BYTE	W01
// 009   ----------------------------------------
	BYTE		TIE     An1 
	BYTE	W96
// 010   ----------------------------------------
	BYTE	W23
	BYTE		EOT   
	BYTE	W01
	BYTE		N23     En1 
	BYTE	W24
	BYTE		TIE     An1 
	BYTE	W48
// 011   ----------------------------------------
	BYTE	W68
	BYTE	W03
	BYTE		EOT   
	BYTE	W01
	BYTE		N23     En1 
	BYTE	W24
// 012   ----------------------------------------
	BYTE		TIE     Fn1 
	BYTE	W96
// 013   ----------------------------------------
	BYTE	W23
	BYTE		EOT   
	BYTE	W01
	BYTE		N23     Cn2 
	BYTE	W24
	BYTE		N68     Fn2 
	BYTE	W48
// 014   ----------------------------------------
	BYTE	W24
	BYTE		        Fn1 
	BYTE	W72
// 015   ----------------------------------------
	BYTE		TIE     Gn1 
	BYTE	W96
// 016   ----------------------------------------
	BYTE	W23
	BYTE		EOT   
	BYTE	W01
	BYTE		N23     Dn2 
	BYTE	W24
	BYTE		N32     Gn2 
	BYTE	W36
	BYTE		        Dn2 
	BYTE	W12
// 017   ----------------------------------------
	BYTE	W24
	BYTE		N23     Gn1 
	BYTE	W24
	BYTE		        Dn2 
	BYTE	W24
	BYTE		        Gn1 
	BYTE	W24
// 018   ----------------------------------------
	BYTE		TIE     Cn2 
	BYTE	W96
// 019   ----------------------------------------
	BYTE	W23
	BYTE		EOT   
	BYTE	W01
	BYTE		N23     Gn2 
	BYTE	W24
	BYTE		N32     Cn3 
	BYTE	W36
	BYTE		        Gn2 
	BYTE	W12
// 020   ----------------------------------------
	BYTE	W24
	BYTE		N44     Cn2 
	BYTE	W48
	BYTE		N23     Gn1 
	BYTE	W24
// 021   ----------------------------------------
	BYTE		TIE     An1 
	BYTE	W96
// 022   ----------------------------------------
	BYTE	W23
	BYTE		EOT   
	BYTE	W01
	BYTE		N23     En2 
	BYTE	W24
	BYTE		N32     An2 
	BYTE	W36
	BYTE		        En2 
	BYTE	W12
// 023   ----------------------------------------
	BYTE	W24
	BYTE		N44     An1 
	BYTE	W48
	BYTE		N23     En1 
	BYTE	W24
// 024   ----------------------------------------
	BYTE		TIE     Fn1 
	BYTE	W96
// 025   ----------------------------------------
	BYTE	W23
	BYTE		EOT   
	BYTE	W01
	BYTE		N23     Cn2 
	BYTE	W24
	BYTE		N44     Fn2 
	BYTE	W48
// 026   ----------------------------------------
	BYTE		N23     Cn2 
	BYTE	W24
	BYTE		        Fn1 
	BYTE	W24
	BYTE		        Cn2 
	BYTE	W24
	BYTE		        Fn1 
	BYTE	W24
// 027   ----------------------------------------
	BYTE		TIE     Gn1 
	BYTE	W96
// 028   ----------------------------------------
	BYTE	W23
	BYTE		EOT   
	BYTE	W01
	BYTE		N23     Dn2 
	BYTE	W24
	BYTE		N32     Gn2 
	BYTE	W36
	BYTE		        Dn2 
	BYTE	W12
// 029   ----------------------------------------
	BYTE	W24
	BYTE		N23     Gn1 
	BYTE	W24
	BYTE		        Dn2 
	BYTE	W24
	BYTE	GoTo
	 POIN2	GreenGardenNight_2_B1
GreenGardenNight_2_B2:
	BYTE		N23     Gn2   v080
	BYTE	W23
	BYTE	FINE

//**************** Track 3 (Midi-Chn.3) ****************//

GreenGardenNight_3:
	BYTE	KEYSH   GreenGardenNight_key+0
GreenGardenNight_3_B1:
// 000   ----------------------------------------
	BYTE		VOICE   40
	BYTE		VOL     75*GreenGardenNight_mvl/mxv
	BYTE		PAN     c_v+0
	BYTE	W96
// 001   ----------------------------------------
	BYTE	W96
// 002   ----------------------------------------
	BYTE	W96
// 003   ----------------------------------------
	BYTE	W96
// 004   ----------------------------------------
	BYTE	W96
// 005   ----------------------------------------
	BYTE	W96
// 006   ----------------------------------------
GreenGardenNight_3_006:
	BYTE		N68     Fn4   v080
	BYTE	W72
	BYTE		        En4 
	BYTE	W24
	BYTE	PEND
// 007   ----------------------------------------
	BYTE	W96
// 008   ----------------------------------------
	BYTE	W48
	BYTE		N22     Cn4 
	BYTE	W24
	BYTE		        Dn4 
	BYTE	W24
// 009   ----------------------------------------
	BYTE	PATT
	 POIN2	GreenGardenNight_3_006
// 010   ----------------------------------------
	BYTE	W96
// 011   ----------------------------------------
	BYTE	W48
	BYTE		N22     Fn4   v080
	BYTE	W24
	BYTE		        Gn4 
	BYTE	W24
// 012   ----------------------------------------
	BYTE		N68   
	BYTE	W72
	BYTE		        Cn4 
	BYTE	W24
// 013   ----------------------------------------
	BYTE	W96
// 014   ----------------------------------------
	BYTE	W24
	BYTE		N22     An3 
	BYTE	W24
	BYTE		        Cn4 
	BYTE	W24
	BYTE		        Dn4 
	BYTE	W24
// 015   ----------------------------------------
	BYTE		TIE     En4 
	BYTE	W96
// 016   ----------------------------------------
	BYTE	W17
	BYTE		EOT   
	BYTE	W07
	BYTE		N22     Fn4 
	BYTE	W24
	BYTE		N68     Dn4 
	BYTE	W48
// 017   ----------------------------------------
	BYTE	W96
// 018   ----------------------------------------
	BYTE		        Fn3 
	BYTE		N68     Fn4 
	BYTE	W72
	BYTE		        En3 
	BYTE		N68     En4 
	BYTE	W24
// 019   ----------------------------------------
	BYTE	W96
// 020   ----------------------------------------
	BYTE	W24
	BYTE		N22     Gn2 
	BYTE	W24
	BYTE		        An2 
	BYTE		N22     An3 
	BYTE	W24
	BYTE		        Cn4 
	BYTE	W24
// 021   ----------------------------------------
	BYTE		N68     Fn3 
	BYTE		N68     Fn4 
	BYTE	W72
	BYTE		        En4 
	BYTE	W24
// 022   ----------------------------------------
	BYTE	W96
// 023   ----------------------------------------
	BYTE	W48
	BYTE		N22     Fn3 
	BYTE		N22     Fn4 
	BYTE	W24
	BYTE		        Gn3 
	BYTE		N22     Gn4 
	BYTE	W24
// 024   ----------------------------------------
	BYTE		N68     Gn3 
	BYTE		N68     Gn4 
	BYTE	W72
	BYTE		        Cn4 
	BYTE	W24
// 025   ----------------------------------------
	BYTE	W96
// 026   ----------------------------------------
	BYTE	W24
	BYTE		N22     En3 
	BYTE		N22     En4 
	BYTE	W24
	BYTE		        Fn3 
	BYTE		N22     Fn4 
	BYTE	W24
	BYTE		        Gn3 
	BYTE		N22     Gn4 
	BYTE	W24
// 027   ----------------------------------------
	BYTE		TIE     An3 
	BYTE		TIE     An4 
	BYTE	W96
// 028   ----------------------------------------
	BYTE	W17
	BYTE		EOT     An3 
	BYTE		        An4 
	BYTE	W07
	BYTE		N22     Bn3 
	BYTE		N22     Bn4 
	BYTE	W24
	BYTE		N68     Gn3 
	BYTE		N68     Gn4 
	BYTE	W48
// 029   ----------------------------------------
	BYTE	W72
	BYTE	GoTo
	 POIN2	GreenGardenNight_3_B1
GreenGardenNight_3_B2:
	BYTE	W23
	BYTE	FINE

//**************** Track 4 (Midi-Chn.4) ****************//

GreenGardenNight_4:
	BYTE	KEYSH   GreenGardenNight_key+0
GreenGardenNight_4_B1:
// 000   ----------------------------------------
	BYTE		VOICE   73
	BYTE		VOL     93*GreenGardenNight_mvl/mxv
	BYTE		PAN     c_v+0
	BYTE	W96
// 001   ----------------------------------------
	BYTE	W96
// 002   ----------------------------------------
	BYTE	W96
// 003   ----------------------------------------
	BYTE	W96
// 004   ----------------------------------------
	BYTE	W96
// 005   ----------------------------------------
	BYTE	W96
// 006   ----------------------------------------
	BYTE	W96
// 007   ----------------------------------------
	BYTE	W96
// 008   ----------------------------------------
	BYTE	W96
// 009   ----------------------------------------
	BYTE	W96
// 010   ----------------------------------------
	BYTE	W96
// 011   ----------------------------------------
	BYTE	W96
// 012   ----------------------------------------
	BYTE	W96
// 013   ----------------------------------------
	BYTE	W96
// 014   ----------------------------------------
	BYTE	W96
// 015   ----------------------------------------
	BYTE	W96
// 016   ----------------------------------------
	BYTE	W96
// 017   ----------------------------------------
	BYTE	W96
// 018   ----------------------------------------
	BYTE		N68     Fn3   v080
	BYTE		N68     Fn4 
	BYTE	W72
	BYTE		        En3 
	BYTE		N68     En4 
	BYTE	W24
// 019   ----------------------------------------
	BYTE	W96
// 020   ----------------------------------------
	BYTE	W24
	BYTE		N22     Gn2 
	BYTE	W24
	BYTE		        An2 
	BYTE		N22     An3 
	BYTE	W24
	BYTE		        Cn4 
	BYTE	W24
// 021   ----------------------------------------
	BYTE		N68     Fn3 
	BYTE		N68     Fn4 
	BYTE	W72
	BYTE		        En4 
	BYTE	W24
// 022   ----------------------------------------
	BYTE	W96
// 023   ----------------------------------------
	BYTE	W48
	BYTE		N22     Fn3 
	BYTE		N22     Fn4 
	BYTE	W24
	BYTE		        Gn3 
	BYTE		N22     Gn4 
	BYTE	W24
// 024   ----------------------------------------
	BYTE		N68     Gn3 
	BYTE		N68     Gn4 
	BYTE	W72
	BYTE		        Cn4 
	BYTE	W24
// 025   ----------------------------------------
	BYTE	W96
// 026   ----------------------------------------
	BYTE	W24
	BYTE		N22     En3 
	BYTE		N22     En4 
	BYTE	W24
	BYTE		        Fn3 
	BYTE		N22     Fn4 
	BYTE	W24
	BYTE		        Gn3 
	BYTE		N22     Gn4 
	BYTE	W24
// 027   ----------------------------------------
	BYTE		TIE     An3 
	BYTE		TIE     An4 
	BYTE	W96
// 028   ----------------------------------------
	BYTE	W17
	BYTE		EOT     An3 
	BYTE		        An4 
	BYTE	W07
	BYTE		N22     Bn3 
	BYTE		N22     Bn4 
	BYTE	W24
	BYTE		N68     Gn3 
	BYTE		N68     Gn4 
	BYTE	W48
// 029   ----------------------------------------
	BYTE	W72
	BYTE	GoTo
	 POIN2	GreenGardenNight_4_B1
GreenGardenNight_4_B2:
	BYTE	W23
	BYTE	FINE

//**************** Track 5 (Midi-Chn.5) ****************//

GreenGardenNight_5:
	BYTE		VOL     127*GreenGardenNight_mvl/mxv
	BYTE	KEYSH   GreenGardenNight_key+0
GreenGardenNight_5_B1:
// 000   ----------------------------------------
	BYTE		VOICE   1
	BYTE		N11     Cn2   v080
	BYTE	W12
	BYTE		        Gn2 
	BYTE	W12
	BYTE		        Cn3 
	BYTE	W12
	BYTE		        Gn2 
	BYTE	W12
	BYTE		        Cn3 
	BYTE	W12
	BYTE		        Dn3 
	BYTE	W12
	BYTE		        Gn3 
	BYTE	W12
	BYTE		        Dn3 
	BYTE	W12
// 001   ----------------------------------------
GreenGardenNight_5_001:
	BYTE		N11     Cn3   v080
	BYTE	W12
	BYTE		        Dn3 
	BYTE	W12
	BYTE		        Cn3 
	BYTE	W12
	BYTE		        Gn2 
	BYTE	W12
	BYTE		        Cn2 
	BYTE	W12
	BYTE		        Gn2 
	BYTE	W12
	BYTE		        Cn3 
	BYTE	W12
	BYTE		        Gn2 
	BYTE	W12
	BYTE	PEND
// 002   ----------------------------------------
GreenGardenNight_5_002:
	BYTE		N11     Cn3   v080
	BYTE	W12
	BYTE		        Dn3 
	BYTE	W12
	BYTE		        Gn3 
	BYTE	W12
	BYTE		        Dn3 
	BYTE	W12
	BYTE		        Cn3 
	BYTE	W12
	BYTE		        Dn3 
	BYTE	W12
	BYTE		        Cn3 
	BYTE	W12
	BYTE		        Gn2 
	BYTE	W12
	BYTE	PEND
// 003   ----------------------------------------
GreenGardenNight_5_003:
	BYTE		N11     Cn2   v080
	BYTE	W12
	BYTE		        Gn2 
	BYTE	W12
	BYTE		        Cn3 
	BYTE	W12
	BYTE		        Gn2 
	BYTE	W12
	BYTE		        Cn3 
	BYTE	W12
	BYTE		        Dn3 
	BYTE	W12
	BYTE		        Gn3 
	BYTE	W12
	BYTE		        Dn3 
	BYTE	W12
	BYTE	PEND
// 004   ----------------------------------------
	BYTE	PATT
	 POIN2	GreenGardenNight_5_001
// 005   ----------------------------------------
	BYTE	PATT
	 POIN2	GreenGardenNight_5_002
// 006   ----------------------------------------
	BYTE	PATT
	 POIN2	GreenGardenNight_5_003
// 007   ----------------------------------------
	BYTE	PATT
	 POIN2	GreenGardenNight_5_001
// 008   ----------------------------------------
	BYTE		N11     Cn3   v080
	BYTE	W12
	BYTE		        Dn3 
	BYTE	W12
	BYTE		N22     Gn3 
	BYTE	W12
	BYTE		N11     Dn3 
	BYTE	W12
	BYTE		        Cn3 
	BYTE	W12
	BYTE		        Dn3 
	BYTE	W12
	BYTE		        Cn3 
	BYTE	W12
	BYTE		        Gn2 
	BYTE	W12
// 009   ----------------------------------------
	BYTE		        An1 
	BYTE	W12
	BYTE		        En2 
	BYTE	W12
	BYTE		        An2 
	BYTE	W12
	BYTE		        En2 
	BYTE	W12
	BYTE		        An2 
	BYTE	W12
	BYTE		        Cn3 
	BYTE	W12
	BYTE		        En3 
	BYTE	W12
	BYTE		        Cn3 
	BYTE	W12
// 010   ----------------------------------------
GreenGardenNight_5_010:
	BYTE		N11     An2   v080
	BYTE	W12
	BYTE		        Cn3 
	BYTE	W12
	BYTE		        An2 
	BYTE	W12
	BYTE		        En2 
	BYTE	W12
	BYTE		        An1 
	BYTE	W12
	BYTE		        En2 
	BYTE	W12
	BYTE		        An2 
	BYTE	W12
	BYTE		        En2 
	BYTE	W12
	BYTE	PEND
// 011   ----------------------------------------
GreenGardenNight_5_011:
	BYTE		N11     An2   v080
	BYTE	W12
	BYTE		        Cn3 
	BYTE	W12
	BYTE		        En3 
	BYTE	W12
	BYTE		        Cn3 
	BYTE	W12
	BYTE		        An2 
	BYTE	W12
	BYTE		        Cn3 
	BYTE	W12
	BYTE		        An2 
	BYTE	W12
	BYTE		        En2 
	BYTE	W12
	BYTE	PEND
// 012   ----------------------------------------
	BYTE		        Fn1 
	BYTE	W12
	BYTE		        Cn2 
	BYTE	W12
	BYTE		        Fn2 
	BYTE	W12
	BYTE		        Cn2 
	BYTE	W12
	BYTE		        Fn2 
	BYTE	W12
	BYTE		        An2 
	BYTE	W12
	BYTE		        Cn3 
	BYTE	W12
	BYTE		        An2 
	BYTE	W12
// 013   ----------------------------------------
GreenGardenNight_5_013:
	BYTE		N11     Fn2   v080
	BYTE	W12
	BYTE		        An2 
	BYTE	W12
	BYTE		        Fn2 
	BYTE	W12
	BYTE		        Cn2 
	BYTE	W12
	BYTE		        Fn1 
	BYTE	W12
	BYTE		        Cn2 
	BYTE	W12
	BYTE		        Fn2 
	BYTE	W12
	BYTE		        Cn2 
	BYTE	W12
	BYTE	PEND
// 014   ----------------------------------------
GreenGardenNight_5_014:
	BYTE		N11     Fn2   v080
	BYTE	W12
	BYTE		        An2 
	BYTE	W12
	BYTE		        Cn3 
	BYTE	W12
	BYTE		        An2 
	BYTE	W12
	BYTE		        Fn2 
	BYTE	W12
	BYTE		        An2 
	BYTE	W12
	BYTE		        Fn2 
	BYTE	W12
	BYTE		        Cn2 
	BYTE	W12
	BYTE	PEND
// 015   ----------------------------------------
GreenGardenNight_5_015:
	BYTE		N11     Gn1   v080
	BYTE	W12
	BYTE		        Dn2 
	BYTE	W12
	BYTE		        Gn2 
	BYTE	W12
	BYTE		        Dn2 
	BYTE	W12
	BYTE		        Gn2 
	BYTE	W12
	BYTE		        Cn3 
	BYTE	W12
	BYTE		        Dn3 
	BYTE	W12
	BYTE		        Cn3 
	BYTE	W12
	BYTE	PEND
// 016   ----------------------------------------
GreenGardenNight_5_016:
	BYTE		N11     Gn2   v080
	BYTE	W12
	BYTE		        Cn3 
	BYTE	W12
	BYTE		        Gn2 
	BYTE	W12
	BYTE		        Dn2 
	BYTE	W12
	BYTE		        Gn1 
	BYTE	W12
	BYTE		        Dn2 
	BYTE	W12
	BYTE		        Gn2 
	BYTE	W12
	BYTE		        Dn2 
	BYTE	W12
	BYTE	PEND
// 017   ----------------------------------------
	BYTE		        Gn2 
	BYTE	W12
	BYTE		        Bn2 
	BYTE	W12
	BYTE		        Dn3 
	BYTE	W12
	BYTE		        Bn2 
	BYTE	W12
	BYTE		        Gn2 
	BYTE	W12
	BYTE		        Bn2 
	BYTE	W12
	BYTE		        Dn3 
	BYTE	W12
	BYTE		        Gn3 
	BYTE	W12
// 018   ----------------------------------------
	BYTE	PATT
	 POIN2	GreenGardenNight_5_003
// 019   ----------------------------------------
	BYTE	PATT
	 POIN2	GreenGardenNight_5_001
// 020   ----------------------------------------
	BYTE		N11     Cn3   v080
	BYTE	W12
	BYTE		        Dn3 
	BYTE	W12
	BYTE		N22     Gn3 
	BYTE	W12
	BYTE		N11     Dn3 
	BYTE	W12
	BYTE		        Cn3 
	BYTE	W12
	BYTE		        Dn3 
	BYTE	W12
	BYTE		N22     Cn3 
	BYTE	W12
	BYTE		N11     Gn2 
	BYTE	W12
// 021   ----------------------------------------
	BYTE		        An1 
	BYTE	W12
	BYTE		        En2 
	BYTE	W12
	BYTE		        An2 
	BYTE	W12
	BYTE		        En2 
	BYTE	W12
	BYTE		        An2 
	BYTE	W12
	BYTE		        Cn3 
	BYTE	W12
	BYTE		N68     En3 
	BYTE	W12
	BYTE		N11     Cn3 
	BYTE	W12
// 022   ----------------------------------------
	BYTE	PATT
	 POIN2	GreenGardenNight_5_010
// 023   ----------------------------------------
	BYTE	PATT
	 POIN2	GreenGardenNight_5_011
// 024   ----------------------------------------
	BYTE		N11     Fn1   v080
	BYTE	W12
	BYTE		        Cn2 
	BYTE	W12
	BYTE		        Fn2 
	BYTE	W12
	BYTE		        Cn2 
	BYTE	W12
	BYTE		        Fn2 
	BYTE	W12
	BYTE		        An2 
	BYTE	W12
	BYTE		N68     Cn3 
	BYTE	W12
	BYTE		N11     An2 
	BYTE	W12
// 025   ----------------------------------------
	BYTE	PATT
	 POIN2	GreenGardenNight_5_013
// 026   ----------------------------------------
	BYTE	PATT
	 POIN2	GreenGardenNight_5_014
// 027   ----------------------------------------
	BYTE	PATT
	 POIN2	GreenGardenNight_5_015
// 028   ----------------------------------------
	BYTE	PATT
	 POIN2	GreenGardenNight_5_016
// 029   ----------------------------------------
	BYTE		N11     Gn2   v080
	BYTE	W12
	BYTE		        Bn2 
	BYTE	W12
	BYTE		        Dn3 
	BYTE	W12
	BYTE		        Bn2 
	BYTE	W12
	BYTE		        Gn2 
	BYTE	W12
	BYTE		        Bn2 
	BYTE	W12
	BYTE	GoTo
	 POIN2	GreenGardenNight_5_B1
GreenGardenNight_5_B2:
	BYTE		N11     Dn3   v080
	BYTE	W12
	BYTE		        Gn3 
	BYTE	W11
	BYTE	FINE

//******************************************************//
	ALIGN 4

GreenGardenNight:
	BYTE	5	// NumTrks
	BYTE	0	// NumBlks
	BYTE	GreenGardenNight_pri	// Priority
	BYTE	GreenGardenNight_rev	// Reverb.

	POIN2	GreenGardenNight_grp

	POIN2	GreenGardenNight_1
	POIN2	GreenGardenNight_2
	POIN2	GreenGardenNight_3
	POIN2	GreenGardenNight_4
	POIN2	GreenGardenNight_5

	
