//Event file generated from Sappy .s format.
	#include "MPlayDef.event"

	#define	Inescapable_grp  InescapableInstrumentTable
	#define	Inescapable_pri  10
	#define	Inescapable_rev  128
	#define	Inescapable_mvl  127
	#define	Inescapable_key  0
	#define	Inescapable_tbs  1
	#define	Inescapable_exg  0
	#define	Inescapable_cmp  1

	// .rodata
	//	Inescapable
	ALIGN 4


//**************** Track 1 (Midi-Chn.0) ****************//

Inescapable_001:
// 000   ----------------------------------------
 BYTE   KEYSH   Inescapable_key+0
 BYTE   TEMPO   160*Inescapable_tbs/2
 BYTE   VOICE   0
 BYTE   VOL   59*Inescapable_mvl/mxv
 BYTE   W01
 BYTE   PAN   c_v+0
 BYTE   MOD 0
 BYTE   CsM2
 BYTE   W01
 BYTE   BEND   c_v+0
 BYTE   W10
Label_0_0111D1F1:
 BYTE   N06  DnM2  v100
 BYTE   W18
 BYTE   DnM2  v084
 BYTE   W06
 BYTE   DsM2  v104
 BYTE   W12
 BYTE   DnM2
 BYTE   W12
 BYTE   DsM2
 BYTE   W12
 BYTE   DnM2
 BYTE   W12
 BYTE   DsM2
 BYTE   W12
// 001   ----------------------------------------
 BYTE   DnM2  v100
 BYTE   W12
 BYTE   N06
 BYTE   W06
 BYTE   DsM2  v072
 BYTE   W12
 BYTE   DnM2  v084
 BYTE   W06
 BYTE   DsM2  v100
 BYTE   W12
 BYTE   DsM2  v104
 BYTE   W06
 BYTE   DnM2  v100
 BYTE   W06
 BYTE   N06
 BYTE   W06
 BYTE   DsM2  v084
 BYTE   W12
 BYTE   N06
 BYTE   W06
 BYTE   DsM2  v104
 BYTE   W12
// 002   ----------------------------------------
 BYTE   N04
 BYTE   W04
 BYTE   DsM2  v084
 BYTE   W04
 BYTE   N04
 BYTE   W04
Label_0_0111D228:
 BYTE   N06  DsM2  v104
 BYTE   W12
 BYTE   DnM2  v100
 BYTE   W06
 BYTE   N06
 BYTE   W06
 BYTE   DsM2  v104
 BYTE   W12
 BYTE   DnM2  v100
 BYTE   W12
 BYTE   DsM2  v104
 BYTE   W12
 BYTE   DnM2  v100
 BYTE   W06
 BYTE   N06
 BYTE   W06
 BYTE   DsM2  v104
 BYTE   W12
// 003   ----------------------------------------
 BYTE   N06
 BYTE   W06
 BYTE   DnM2  v100
 BYTE   W06
 BYTE   PEND 
Label_0_0111D248:
 BYTE   N06  DsM2  v104
 BYTE   W12
 BYTE   DnM2  v100
 BYTE   W06
 BYTE   N06
 BYTE   W06
 BYTE   DsM2  v104
 BYTE   W12
 BYTE   DnM2  v100
 BYTE   W12
 BYTE   DsM2  v104
 BYTE   W12
 BYTE   DnM2  v100
 BYTE   W06
 BYTE   N06
 BYTE   W06
 BYTE   DsM2  v104
 BYTE   W06
 BYTE   N06
 BYTE   W06
// 004   ----------------------------------------
 BYTE   N06
 BYTE   W06
 BYTE   N06
 BYTE   W06
 BYTE   PEND 
 BYTE   PATT
  POIN2 Label_0_0111D228
 BYTE   PATT
  POIN2 Label_0_0111D248
// 005   ----------------------------------------
Label_0_0111D273:
 BYTE   N12  DnM2  v100
 BYTE   W12
 BYTE   N06  DsM2  v104
 BYTE   W12
 BYTE   N12  DnM2  v100
 BYTE   W12
 BYTE   N06  DsM2  v104
 BYTE   W12
 BYTE   DnM2  v100
 BYTE   W06
 BYTE   N06
 BYTE   W06
 BYTE   DsM2  v104
 BYTE   W12
 BYTE   DnM2  v100
 BYTE   W06
 BYTE   N06
 BYTE   W06
 BYTE   DsM2  v104
 BYTE   W12
 BYTE   PEND 
// 006   ----------------------------------------
Label_0_0111D294:
 BYTE   N06  DnM2  v100
 BYTE   W12
 BYTE   DsM2  v104
 BYTE   W12
 BYTE   DnM2  v100
 BYTE   W06
 BYTE   N06
 BYTE   W06
 BYTE   DsM2  v104
 BYTE   W12
 BYTE   DnM2  v100
 BYTE   W12
 BYTE   DsM2  v104
 BYTE   W12
 BYTE   DnM2  v100
 BYTE   W06
 BYTE   N06
 BYTE   W06
 BYTE   DsM2  v104
 BYTE   W12
 BYTE   PEND 
 BYTE   PATT
  POIN2 Label_0_0111D273
// 007   ----------------------------------------
Label_0_0111D2B7:
 BYTE   N06  DsM2  v104
 BYTE   W06
 BYTE   DnM2  v100
 BYTE   W06
 BYTE   N06
 BYTE   W06
 BYTE   DsM2  v104
 BYTE   W06
 BYTE   DnM2  v100
 BYTE   W06
 BYTE   N06
 BYTE   W06
 BYTE   DsM2  v104
 BYTE   W06
 BYTE   DnM2  v100
 BYTE   W06
 BYTE   DsM2  v104
 BYTE   W06
 BYTE   DnM2  v100
 BYTE   W06
 BYTE   DsM2  v104
 BYTE   W06
 BYTE   DnM2  v100
 BYTE   W06
 BYTE   DsM2  v104
 BYTE   W06
 BYTE   N06
 BYTE   W06
 BYTE   N06
 BYTE   W06
 BYTE   N06
 BYTE   W06
 BYTE   PEND 
 BYTE   PATT
  POIN2 Label_0_0111D273
 BYTE   PATT
  POIN2 Label_0_0111D294
// 008   ----------------------------------------
Label_0_0111D2EE:
 BYTE   N06  DnM2  v100
 BYTE   W12
 BYTE   DsM2  v104
 BYTE   W06
 BYTE   N06
 BYTE   W06
 BYTE   N06
 BYTE   W06
 BYTE   N06
 BYTE   W06
 BYTE   N06
 BYTE   W06
 BYTE   N06
 BYTE   W06
 BYTE   DnM2  v100
 BYTE   W12
 BYTE   DsM2  v104
 BYTE   W06
 BYTE   N06
 BYTE   W06
 BYTE   N06
 BYTE   W06
 BYTE   N06
 BYTE   W06
 BYTE   DnM2  v100
 BYTE   W12
 BYTE   PEND 
// 009   ----------------------------------------
Label_0_0111D30F:
 BYTE   N06  DnM2  v100
 BYTE   W12
 BYTE   DsM2  v104
 BYTE   W06
 BYTE   N06
 BYTE   W06
 BYTE   N06
 BYTE   W06
 BYTE   N06
 BYTE   W06
 BYTE   N06
 BYTE   W06
 BYTE   N06
 BYTE   W06
 BYTE   DnM2  v100
 BYTE   W06
 BYTE   DsM2  v104
 BYTE   W06
 BYTE   DnM2  v100
 BYTE   W06
 BYTE   DsM2  v104
 BYTE   W06
 BYTE   DnM2  v100
 BYTE   W06
 BYTE   DsM2  v104
 BYTE   W06
 BYTE   N06
 BYTE   W06
 BYTE   N06
 BYTE   W06
 BYTE   PEND 
 BYTE   PATT
  POIN2 Label_0_0111D273
 BYTE   PATT
  POIN2 Label_0_0111D294
 BYTE   PATT
  POIN2 Label_0_0111D273
 BYTE   PATT
  POIN2 Label_0_0111D2B7
 BYTE   PATT
  POIN2 Label_0_0111D273
 BYTE   PATT
  POIN2 Label_0_0111D294
 BYTE   PATT
  POIN2 Label_0_0111D2EE
 BYTE   PATT
  POIN2 Label_0_0111D30F
 BYTE   PATT
  POIN2 Label_0_0111D294
 BYTE   PATT
  POIN2 Label_0_0111D294
 BYTE   PATT
  POIN2 Label_0_0111D294
 BYTE   PATT
  POIN2 Label_0_0111D294
 BYTE   PATT
  POIN2 Label_0_0111D228
 BYTE   PATT
  POIN2 Label_0_0111D248
// 010   ----------------------------------------
Label_0_0111D37D:
 BYTE   N06  DsM2  v104
 BYTE   W12
 BYTE   DnM2  v100
 BYTE   W06
 BYTE   N06
 BYTE   W06
 BYTE   DsM2  v104
 BYTE   W12
 BYTE   DnM2  v100
 BYTE   W12
 BYTE   DsM2  v104
 BYTE   W12
 BYTE   DnM2  v100
 BYTE   W06
 BYTE   N06
 BYTE   W06
 BYTE   DsM2  v104
 BYTE   W12
 BYTE   DnM2  v100
 BYTE   W12
 BYTE   PEND 
// 011   ----------------------------------------
Label_0_0111D39B:
 BYTE   N06  DsM2  v104
 BYTE   W12
 BYTE   DnM2  v100
 BYTE   W06
 BYTE   N06
 BYTE   W06
 BYTE   DsM2  v104
 BYTE   W12
 BYTE   DnM2  v100
 BYTE   W12
 BYTE   DsM2  v104
 BYTE   W12
 BYTE   DnM2  v100
 BYTE   W12
 BYTE   DsM2  v104
 BYTE   W06
 BYTE   N06
 BYTE   W06
 BYTE   DnM2  v100
 BYTE   W12
 BYTE   PEND 
 BYTE   PATT
  POIN2 Label_0_0111D37D
 BYTE   PATT
  POIN2 Label_0_0111D39B
 BYTE   PATT
  POIN2 Label_0_0111D37D
 BYTE   PATT
  POIN2 Label_0_0111D39B
 BYTE   PATT
  POIN2 Label_0_0111D37D
 BYTE   PATT
  POIN2 Label_0_0111D39B
 BYTE   PATT
  POIN2 Label_0_0111D37D
// 012   ----------------------------------------
 BYTE   N06  DsM2  v104
 BYTE   W06
 BYTE   N06
 BYTE   W06
 BYTE   N06
 BYTE   W06
 BYTE   DnM2  v100
 BYTE   W06
 BYTE   DsM2  v104
 BYTE   W06
 BYTE   N06
 BYTE   W06
 BYTE   N06
 BYTE   W06
 BYTE   DnM2  v100
 BYTE   W06
 BYTE   DsM2  v104
 BYTE   W06
 BYTE   N06
 BYTE   W06
 BYTE   DnM2  v100
 BYTE   W06
 BYTE   DsM2  v104
 BYTE   W06
 BYTE   N06
 BYTE   W06
 BYTE   DnM2  v100
 BYTE   W06
 BYTE   DsM2  v104
 BYTE   W06
 BYTE   N06
 BYTE   W06
// 013   ----------------------------------------
 BYTE   GoTo
  POIN2 Label_0_0111D1F1
 BYTE   FINE

//**************** Track 2 (Midi-Chn.1) ****************//

Inescapable_002:
// 000   ----------------------------------------
 BYTE   KEYSH   Inescapable_key+0
 BYTE   VOICE   9
 BYTE   VOL   59*Inescapable_mvl/mxv
 BYTE   W01
 BYTE   PAN   c_v-5
 BYTE   MOD 0
 BYTE   CnM2
 BYTE   W01
 BYTE   BEND   c_v+0
 BYTE   W10
Label_1_0111D41B:
 BYTE   N06  As4  v116
 BYTE   W06
 BYTE   Fs4
 BYTE   W06
 BYTE   Ds4
 BYTE   W06
 BYTE   As3
 BYTE   W06
 BYTE   Fs3
 BYTE   W06
 BYTE   Ds3
 BYTE   W06
 BYTE   As2
 BYTE   W06
 BYTE   Fs2
 BYTE   W06
 BYTE   Gs4
 BYTE   W06
 BYTE   Fn4
 BYTE   W06
 BYTE   Cs4
 BYTE   W06
 BYTE   Gs3
 BYTE   W06
 BYTE   Fn3
 BYTE   W06
 BYTE   Cs3
 BYTE   W06
// 001   ----------------------------------------
 BYTE   Gs2
 BYTE   W06
 BYTE   Fn2
 BYTE   W06
 BYTE   Bn4
 BYTE   W06
 BYTE   Gs4
 BYTE   W06
 BYTE   Ds4
 BYTE   W06
 BYTE   Bn3
 BYTE   W06
 BYTE   Gs3
 BYTE   W06
 BYTE   Ds3
 BYTE   W06
 BYTE   Bn2
 BYTE   W06
 BYTE   Gs2
 BYTE   W06
 BYTE   Fn4
 BYTE   W06
 BYTE   Fn3
 BYTE   W06
 BYTE   As3
 BYTE   W06
 BYTE   Dn4
 BYTE   W06
 BYTE   Fn4
 BYTE   W06
 BYTE   Dn4
 BYTE   W06
// 002   ----------------------------------------
 BYTE   As4
 BYTE   W06
 BYTE   Fn4
 BYTE   W06
 BYTE   Fn4  v044
 BYTE   W20
 BYTE   VOICE   13
 BYTE   W04
 BYTE   N24  Bn2  v112
 BYTE   W24
 BYTE   Cs3
 BYTE   W24
 BYTE   Ds3
 BYTE   W24
// 003   ----------------------------------------
 BYTE   N36  Fn3
 BYTE   W36
 BYTE   Fs3
 BYTE   W36
 BYTE   N24  Gs3
 BYTE   W24
// 004   ----------------------------------------
 BYTE   N96  As3
 BYTE   W36
 BYTE   MOD 0
 BYTE   FnM2
 BYTE   W60
// 005   ----------------------------------------
 BYTE   N92
 BYTE   W90
 BYTE   MOD 0
 BYTE   CnM2
 BYTE   W05
 BYTE   VOICE   17
 BYTE   W01
// 006   ----------------------------------------
 BYTE   N06  Fs3
 BYTE   W06
 BYTE   Fn3
 BYTE   W06
 BYTE   N30  Fs3
 BYTE   W12
 BYTE   MOD 0
 BYTE   FnM2
 BYTE   W24
 BYTE   CnM2
 BYTE   N03  En3
 BYTE   W03
 BYTE   N15  Fn3
 BYTE   W15
 BYTE   N18  Fs3
 BYTE   W18
 BYTE   N12  Gs3
 BYTE   W12
// 007   ----------------------------------------
 BYTE   N18  Fs3
 BYTE   W18
 BYTE   Fn3
 BYTE   W18
 BYTE   N12  Cs3
 BYTE   W12
 BYTE   N06  Ds3
 BYTE   W06
 BYTE   N01  Cs3
 BYTE   W01
 BYTE   As2
 BYTE   W02
 BYTE   Gs2
 BYTE   W01
 BYTE   Fs2
 BYTE   W02
 BYTE   N03  An3
 BYTE   W03
 BYTE   N32  As3
 BYTE   W15
 BYTE   MOD 0
 BYTE   FnM2
 BYTE   W18
// 008   ----------------------------------------
 BYTE   CnM2
 BYTE   N03
 BYTE   W03
 BYTE   N24  Bn3
 BYTE   W15
 BYTE   MOD 0
 BYTE   FnM2
 BYTE   W12
 BYTE   CnM2
 BYTE   W06
 BYTE   N06
 BYTE   W06
 BYTE   Cs4
 BYTE   W06
 BYTE   N12  Bn3
 BYTE   W12
 BYTE   As3
 BYTE   W12
 BYTE   Gs3
 BYTE   W12
 BYTE   Fs3
 BYTE   W12
// 009   ----------------------------------------
 BYTE   N03  An3
 BYTE   W03
 BYTE   N44  As3
 BYTE   W21
 BYTE   MOD 0
 BYTE   FnM2
 BYTE   W24
 BYTE   CnM2
 BYTE   N06
 BYTE   W06
 BYTE   Bn3
 BYTE   W06
 BYTE   As3
 BYTE   W06
 BYTE   Gs3
 BYTE   W06
 BYTE   Fs3
 BYTE   W06
 BYTE   Fn3
 BYTE   W06
 BYTE   Ds3
 BYTE   W06
 BYTE   Fn3
 BYTE   W06
// 010   ----------------------------------------
Label_1_0111D4E8:
 BYTE   N24  Fs3  v112
 BYTE   W24
 BYTE   Bn3
 BYTE   W24
 BYTE   Ds4
 BYTE   W24
 BYTE   Fs4
 BYTE   W24
 BYTE   PEND 
// 011   ----------------------------------------
Label_1_0111D4F3:
 BYTE   N24  Fn4  v112
 BYTE   W24
 BYTE   Cs4
 BYTE   W24
 BYTE   Gs3
 BYTE   W24
 BYTE   Cs4
 BYTE   W24
 BYTE   PEND 
// 012   ----------------------------------------
 BYTE   N06  Ds4
 BYTE   W06
 BYTE   Cs4
 BYTE   W06
 BYTE   TIE  Ds4
 BYTE   W48
 BYTE   MOD 0
 BYTE   FnM2
 BYTE   W36
// 013   ----------------------------------------
 BYTE   W48
 BYTE   EOT
 BYTE   MOD 0
 BYTE   CnM2
 BYTE   W42
 BYTE   VOICE   22
 BYTE   W06
// 014   ----------------------------------------
 BYTE   N06  Fs3  v116
 BYTE   W06
 BYTE   Fn3
 BYTE   W06
 BYTE   N30  Fs3
 BYTE   W36
 BYTE   N18  Fn3
 BYTE   W18
 BYTE   Fs3
 BYTE   W18
 BYTE   N12  Gs3
 BYTE   W12
// 015   ----------------------------------------
 BYTE   N18  Fs3
 BYTE   W18
 BYTE   Fn3
 BYTE   W18
 BYTE   N12  Cs3
 BYTE   W12
 BYTE   Ds3
 BYTE   W12
 BYTE   N36  As3
 BYTE   W36
// 016   ----------------------------------------
 BYTE   N30  Bn3
 BYTE   W36
 BYTE   N06
 BYTE   W06
 BYTE   Cs4
 BYTE   W06
 BYTE   N12  Bn3
 BYTE   W12
 BYTE   As3
 BYTE   W12
 BYTE   Gs3
 BYTE   W12
 BYTE   Fs3
 BYTE   W12
// 017   ----------------------------------------
 BYTE   N48  As3
 BYTE   W24
 BYTE   MOD 0
 BYTE   FnM2
 BYTE   W24
 BYTE   CnM2
 BYTE   N06
 BYTE   W06
 BYTE   Bn3
 BYTE   W06
 BYTE   As3
 BYTE   W06
 BYTE   Gs3
 BYTE   W06
 BYTE   Fs3
 BYTE   W06
 BYTE   Fn3
 BYTE   W06
 BYTE   Ds3
 BYTE   W06
 BYTE   Fn3
 BYTE   W06
 BYTE   PATT
  POIN2 Label_1_0111D4E8
 BYTE   PATT
  POIN2 Label_1_0111D4F3
// 018   ----------------------------------------
 BYTE   N06  Ds4  v116
 BYTE   W06
 BYTE   Cs4
 BYTE   W06
 BYTE   TIE  Ds4
 BYTE   W36
 BYTE   MOD 0
 BYTE   FnM2
 BYTE   W48
// 019   ----------------------------------------
 BYTE   W48
 BYTE   EOT
 BYTE   W06
 BYTE   MOD 0
 BYTE   CnM2
 BYTE   W36
 BYTE   VOICE   9
 BYTE   W06
// 020   ----------------------------------------
 BYTE   N06  Bn3  v120
 BYTE   W06
 BYTE   As3
 BYTE   W06
 BYTE   N30  Bn3
 BYTE   W36
 BYTE   N06
 BYTE   W06
 BYTE   Cs4
 BYTE   W06
 BYTE   Bn3
 BYTE   W06
 BYTE   As3
 BYTE   W06
 BYTE   Gs3
 BYTE   W06
 BYTE   Fs3
 BYTE   W06
 BYTE   Fn3
 BYTE   W06
 BYTE   Ds3
 BYTE   W06
// 021   ----------------------------------------
 BYTE   Fn3
 BYTE   W06
 BYTE   Fs3
 BYTE   W06
 BYTE   N24  Gs3
 BYTE   W24
 BYTE   N06  Fn3
 BYTE   W06
 BYTE   Fs3
 BYTE   W06
 BYTE   N12  Gs3
 BYTE   W12
 BYTE   As3
 BYTE   W12
 BYTE   Bn3
 BYTE   W12
 BYTE   Cs4
 BYTE   W12
// 022   ----------------------------------------
 BYTE   N18  Dn4
 BYTE   W18
 BYTE   En4
 BYTE   W18
 BYTE   N12  Dn4
 BYTE   W12
 BYTE   N18  Cs4
 BYTE   W18
 BYTE   Bn3
 BYTE   W18
 BYTE   N12  An3
 BYTE   W12
// 023   ----------------------------------------
 BYTE   N18  Gs3
 BYTE   W18
 BYTE   Fs3
 BYTE   W18
 BYTE   N12  En3
 BYTE   W12
 BYTE   Gs3
 BYTE   W12
 BYTE   N06  Bn3
 BYTE   W12
 BYTE   N12  En4
 BYTE   W12
 BYTE   Gs4
 BYTE   W12
// 024   ----------------------------------------
 BYTE   N06  Cs4
 BYTE   W06
 BYTE   Bn3
 BYTE   W06
 BYTE   TIE  Cs4
 BYTE   W84
// 025   ----------------------------------------
 BYTE   W90
 BYTE   EOT
 BYTE   W05
 BYTE   VOICE   17
 BYTE   W01
// 026   ----------------------------------------
 BYTE   N06  Fs3  v116
 BYTE   W06
 BYTE   Cs3
 BYTE   W06
 BYTE   An2
 BYTE   W06
 BYTE   N03  Gn3
 BYTE   W03
 BYTE   N24  Gs3
 BYTE   W15
 BYTE   MOD 0
 BYTE   FnM2
 BYTE   W12
 BYTE   CnM2
 BYTE   N06  En3
 BYTE   W06
 BYTE   An2
 BYTE   W06
 BYTE   Fs2
 BYTE   W06
 BYTE   N03  Fn3
 BYTE   W03
 BYTE   N24  Fs3
 BYTE   W12
 BYTE   MOD 0
 BYTE   FnM2
 BYTE   W15
// 027   ----------------------------------------
 BYTE   CnM2
 BYTE   N06  Fn3
 BYTE   W06
 BYTE   Dn3
 BYTE   W06
 BYTE   Bn2
 BYTE   W06
 BYTE   Gs2
 BYTE   W06
 BYTE   Fn2
 BYTE   W06
 BYTE   Gs2
 BYTE   W06
 BYTE   Bn2
 BYTE   W06
 BYTE   Fn3
 BYTE   W06
 BYTE   N03  Cs3
 BYTE   W03
 BYTE   N15  Dn3
 BYTE   W06
 BYTE   MOD 0
 BYTE   FnM2
 BYTE   W09
 BYTE   CnM2
 BYTE   N18  Ds3
 BYTE   W18
 BYTE   N12  En3
 BYTE   W12
// 028   ----------------------------------------
 BYTE   N06  Gs3
 BYTE   W06
 BYTE   Ds3
 BYTE   W06
 BYTE   Bn2
 BYTE   W06
 BYTE   N03  An3
 BYTE   W03
 BYTE   N24  As3
 BYTE   W15
 BYTE   MOD 0
 BYTE   FnM2
 BYTE   W12
 BYTE   CnM2
 BYTE   N06  Fs3
 BYTE   W06
 BYTE   Bn2
 BYTE   W06
 BYTE   Gs2
 BYTE   W06
 BYTE   N03  Gn3
 BYTE   W03
 BYTE   N24  Gs3
 BYTE   W12
 BYTE   MOD 0
 BYTE   FnM2
 BYTE   W15
// 029   ----------------------------------------
 BYTE   CnM2
 BYTE   N06  Gn3
 BYTE   W06
 BYTE   En3
 BYTE   W06
 BYTE   Cs3
 BYTE   W06
 BYTE   As2
 BYTE   W06
 BYTE   Gn2
 BYTE   W06
 BYTE   As2
 BYTE   W06
 BYTE   Cs3
 BYTE   W06
 BYTE   Gn3
 BYTE   W06
 BYTE   N03  Ds3
 BYTE   W03
 BYTE   N15  En3
 BYTE   W06
 BYTE   MOD 0
 BYTE   FnM2
 BYTE   W09
 BYTE   CnM2
 BYTE   N18  Fn3
 BYTE   W18
 BYTE   N12  Fs3
 BYTE   W12
// 030   ----------------------------------------
 BYTE   N06  As3
 BYTE   W06
 BYTE   Fn3
 BYTE   W06
 BYTE   Cs3
 BYTE   W06
 BYTE   N03  Bn3
 BYTE   W03
 BYTE   N24  Cn4
 BYTE   W15
 BYTE   MOD 0
 BYTE   FnM2
 BYTE   W12
 BYTE   CnM2
 BYTE   N06  Gs3
 BYTE   W06
 BYTE   Cs3
 BYTE   W06
 BYTE   As2
 BYTE   W06
 BYTE   N03  An3
 BYTE   W03
 BYTE   N24  As3
 BYTE   W12
 BYTE   MOD 0
 BYTE   FnM2
 BYTE   W15
// 031   ----------------------------------------
 BYTE   CnM2
 BYTE   N06  An3
 BYTE   W06
 BYTE   Fs3
 BYTE   W06
 BYTE   Ds3
 BYTE   W06
 BYTE   Cn3
 BYTE   W06
 BYTE   An2
 BYTE   W06
 BYTE   Cn3
 BYTE   W06
 BYTE   Ds3
 BYTE   W06
 BYTE   An3
 BYTE   W06
 BYTE   N03  Fn3
 BYTE   W03
 BYTE   N15  Fs3
 BYTE   W06
 BYTE   MOD 0
 BYTE   FnM2
 BYTE   W09
 BYTE   CnM2
 BYTE   N18  Gn3
 BYTE   W18
 BYTE   N12  Gs3
 BYTE   W12
// 032   ----------------------------------------
 BYTE   N96  An3  v104
 BYTE   W96
// 033   ----------------------------------------
 BYTE   As3
 BYTE   W96
// 034   ----------------------------------------
 BYTE   Bn3
 BYTE   W96
// 035   ----------------------------------------
 BYTE   W48
 BYTE   VOICE   9
 BYTE   W48
// 036   ----------------------------------------
 BYTE   GoTo
  POIN2 Label_1_0111D41B
 BYTE   FINE

//**************** Track 3 (Midi-Chn.2) ****************//

Inescapable_003:
// 000   ----------------------------------------
 BYTE   KEYSH   Inescapable_key+0
 BYTE   VOICE   27
 BYTE   VOL   59*Inescapable_mvl/mxv
 BYTE   W01
 BYTE   PAN   c_v+0
 BYTE   MOD 0
 BYTE   CnM2
 BYTE   W01
 BYTE   BEND   c_v+0
 BYTE   W10
Label_2_0111D6BE:
 BYTE   N48  Ds3  v112
 BYTE   W48
 BYTE   Gs2
 BYTE   W48
// 001   ----------------------------------------
 BYTE   N24  Bn2
 BYTE   W24
 BYTE   Ds3
 BYTE   W24
 BYTE   Dn3
 BYTE   W24
 BYTE   As3
 BYTE   W18
 BYTE   VOICE   28
 BYTE   W06
// 002   ----------------------------------------
 BYTE   N06  Bn2  v056
 BYTE   W06
 BYTE   Ds3
 BYTE   W06
 BYTE   Gs3
 BYTE   W06
 BYTE   Bn2
 BYTE   W06
 BYTE   As3
 BYTE   W06
 BYTE   Bn2
 BYTE   W06
 BYTE   Gs3
 BYTE   W06
 BYTE   Ds3
 BYTE   W06
 BYTE   Bn2
 BYTE   W06
 BYTE   Ds3
 BYTE   W06
 BYTE   Gs3
 BYTE   W06
 BYTE   Bn2
 BYTE   W06
 BYTE   As3
 BYTE   W06
 BYTE   Bn2
 BYTE   W06
 BYTE   Gs3
 BYTE   W06
 BYTE   Ds3
 BYTE   W06
// 003   ----------------------------------------
 BYTE   Cs3
 BYTE   W06
 BYTE   Fn3
 BYTE   W06
 BYTE   Bn3
 BYTE   W06
 BYTE   Cs3
 BYTE   W06
 BYTE   Cs4
 BYTE   W06
 BYTE   Cs3
 BYTE   W06
 BYTE   Bn3
 BYTE   W06
 BYTE   Fn3
 BYTE   W06
 BYTE   Cs3
 BYTE   W06
 BYTE   Fn3
 BYTE   W06
 BYTE   Bn3
 BYTE   W06
 BYTE   Cs3
 BYTE   W06
 BYTE   Cs4
 BYTE   W06
 BYTE   Cs3
 BYTE   W06
 BYTE   Bn3
 BYTE   W06
 BYTE   Fn3
 BYTE   W06
// 004   ----------------------------------------
 BYTE   As3
 BYTE   W06
 BYTE   Fn3
 BYTE   W06
 BYTE   Ds3
 BYTE   W06
 BYTE   As2
 BYTE   W06
 BYTE   As3
 BYTE   W06
 BYTE   Fn3
 BYTE   W06
 BYTE   Ds3
 BYTE   W06
 BYTE   As2
 BYTE   W06
 BYTE   As3
 BYTE   W06
 BYTE   Fn3
 BYTE   W06
 BYTE   Ds3
 BYTE   W06
 BYTE   As2
 BYTE   W06
 BYTE   As3
 BYTE   W06
 BYTE   Fn3
 BYTE   W06
 BYTE   Ds3
 BYTE   W06
 BYTE   As2
 BYTE   W06
// 005   ----------------------------------------
 BYTE   As3
 BYTE   W06
 BYTE   Fn3
 BYTE   W06
 BYTE   Dn3
 BYTE   W06
 BYTE   As2
 BYTE   W06
 BYTE   As3
 BYTE   W06
 BYTE   Fn3
 BYTE   W06
 BYTE   Dn3
 BYTE   W06
 BYTE   As2
 BYTE   W06
 BYTE   As3
 BYTE   W06
 BYTE   Fn3
 BYTE   W06
 BYTE   Dn3
 BYTE   W06
 BYTE   As2
 BYTE   W06
 BYTE   Dn3
 BYTE   W06
 BYTE   Fn3
 BYTE   W06
 BYTE   As3
 BYTE   W06
 BYTE   Dn4
 BYTE   W06
// 006   ----------------------------------------
Label_2_0111D752:
 BYTE   N06  Fs2  v056
 BYTE   W06
 BYTE   As2
 BYTE   W06
 BYTE   Fn3
 BYTE   W06
 BYTE   Fs2
 BYTE   W06
 BYTE   Ds3
 BYTE   W06
 BYTE   Fs2
 BYTE   W06
 BYTE   As2
 BYTE   W06
 BYTE   Fs2
 BYTE   W06
 BYTE   Cs2
 BYTE   W06
 BYTE   Fn2
 BYTE   W06
 BYTE   Fn3
 BYTE   W06
 BYTE   Gs2
 BYTE   W06
 BYTE   Cs3
 BYTE   W06
 BYTE   Cs2
 BYTE   W06
 BYTE   Gs2
 BYTE   W06
 BYTE   Cs3
 BYTE   W06
 BYTE   PEND 
// 007   ----------------------------------------
Label_2_0111D775:
 BYTE   N06  Fs2  v056
 BYTE   W06
 BYTE   As2
 BYTE   W06
 BYTE   Fn3
 BYTE   W06
 BYTE   As2
 BYTE   W06
 BYTE   Ds3
 BYTE   W06
 BYTE   Fs2
 BYTE   W06
 BYTE   As2
 BYTE   W06
 BYTE   Ds2
 BYTE   W06
 BYTE   Fs2
 BYTE   W06
 BYTE   As2
 BYTE   W06
 BYTE   Fn3
 BYTE   W06
 BYTE   As2
 BYTE   W06
 BYTE   Ds3
 BYTE   W06
 BYTE   Fs2
 BYTE   W06
 BYTE   As2
 BYTE   W06
 BYTE   Ds2
 BYTE   W06
 BYTE   PEND 
// 008   ----------------------------------------
Label_2_0111D798:
 BYTE   N06  Ds3  v056
 BYTE   W06
 BYTE   Gs2
 BYTE   W06
 BYTE   Bn2
 BYTE   W06
 BYTE   Ds3
 BYTE   W06
 BYTE   Fs3
 BYTE   W06
 BYTE   Ds3
 BYTE   W06
 BYTE   Bn2
 BYTE   W06
 BYTE   Gs2
 BYTE   W06
 BYTE   Fs3
 BYTE   W06
 BYTE   Ds3
 BYTE   W06
 BYTE   Bn2
 BYTE   W06
 BYTE   Gs2
 BYTE   W06
 BYTE   Ds3
 BYTE   W06
 BYTE   Bn2
 BYTE   W06
 BYTE   Gs2
 BYTE   W06
 BYTE   Ds2
 BYTE   W06
 BYTE   PEND 
// 009   ----------------------------------------
Label_2_0111D7BB:
 BYTE   N06  Fn3  v056
 BYTE   W06
 BYTE   Ds3
 BYTE   W06
 BYTE   As2
 BYTE   W06
 BYTE   Fn2
 BYTE   W06
 BYTE   Fn3
 BYTE   W06
 BYTE   Ds3
 BYTE   W06
 BYTE   As2
 BYTE   W06
 BYTE   Fn2
 BYTE   W06
 BYTE   Fn3
 BYTE   W06
 BYTE   Dn3
 BYTE   W06
 BYTE   As2
 BYTE   W06
 BYTE   Fn2
 BYTE   W06
 BYTE   Dn2
 BYTE   W06
 BYTE   Fn2
 BYTE   W06
 BYTE   As2
 BYTE   W06
 BYTE   Dn3
 BYTE   W06
 BYTE   PEND 
// 010   ----------------------------------------
 BYTE   Bn2
 BYTE   W06
 BYTE   Ds3
 BYTE   W06
 BYTE   As3
 BYTE   W06
 BYTE   Bn2
 BYTE   W06
 BYTE   Gs3
 BYTE   W06
 BYTE   Bn2
 BYTE   W06
 BYTE   Ds3
 BYTE   W06
 BYTE   Bn2
 BYTE   W06
 BYTE   Gs2
 BYTE   W06
 BYTE   Bn2
 BYTE   W06
 BYTE   As3
 BYTE   W06
 BYTE   Ds3
 BYTE   W06
 BYTE   Gs3
 BYTE   W06
 BYTE   Bn2
 BYTE   W06
 BYTE   Ds3
 BYTE   W06
 BYTE   Gs2
 BYTE   W06
// 011   ----------------------------------------
 BYTE   N06
 BYTE   W06
 BYTE   Cs3
 BYTE   W06
 BYTE   Fs3
 BYTE   W06
 BYTE   Gs2
 BYTE   W06
 BYTE   Fn3
 BYTE   W06
 BYTE   Gs2
 BYTE   W06
 BYTE   Cs3
 BYTE   W06
 BYTE   Ds3
 BYTE   W06
 BYTE   Fn3
 BYTE   W06
 BYTE   Cs3
 BYTE   W06
 BYTE   Gs2
 BYTE   W06
 BYTE   Fn2
 BYTE   W06
 BYTE   Gs2
 BYTE   W06
 BYTE   Cs3
 BYTE   W06
 BYTE   Fn3
 BYTE   W06
 BYTE   Gs3
 BYTE   W06
// 012   ----------------------------------------
 BYTE   As3
 BYTE   W06
 BYTE   Fs3
 BYTE   W06
 BYTE   Ds3
 BYTE   W06
 BYTE   As2
 BYTE   W06
 BYTE   Fs2
 BYTE   W06
 BYTE   Ds2
 BYTE   W06
 BYTE   As1
 BYTE   W06
 BYTE   Fs1
 BYTE   W06
 BYTE   Cs4
 BYTE   W06
 BYTE   Gs3
 BYTE   W06
 BYTE   Fn3
 BYTE   W06
 BYTE   Cs3
 BYTE   W06
 BYTE   Gs2
 BYTE   W06
 BYTE   Fn2
 BYTE   W06
 BYTE   Cs2
 BYTE   W06
 BYTE   Gs1
 BYTE   W06
// 013   ----------------------------------------
 BYTE   Bn3
 BYTE   W06
 BYTE   Fs3
 BYTE   W06
 BYTE   Ds3
 BYTE   W06
 BYTE   Bn2
 BYTE   W06
 BYTE   Fs2
 BYTE   W06
 BYTE   Ds2
 BYTE   W06
 BYTE   Bn1
 BYTE   W06
 BYTE   Fs1
 BYTE   W06
 BYTE   As3
 BYTE   W06
 BYTE   Fn3
 BYTE   W06
 BYTE   Ds3
 BYTE   W06
 BYTE   Fn3
 BYTE   W06
 BYTE   As2
 BYTE   W06
 BYTE   Fn2
 BYTE   W06
 BYTE   Ds2
 BYTE   W06
 BYTE   Fn2
 BYTE   W06
 BYTE   PATT
  POIN2 Label_2_0111D752
 BYTE   PATT
  POIN2 Label_2_0111D775
 BYTE   PATT
  POIN2 Label_2_0111D798
 BYTE   PATT
  POIN2 Label_2_0111D7BB
// 014   ----------------------------------------
 BYTE   N06  Bn2  v056
 BYTE   W06
 BYTE   Ds3
 BYTE   W06
 BYTE   As3
 BYTE   W06
 BYTE   Bn2
 BYTE   W06
 BYTE   Gs3
 BYTE   W06
 BYTE   Bn2
 BYTE   W06
 BYTE   Ds3
 BYTE   W06
 BYTE   Bn2
 BYTE   W06
 BYTE   Gs2
 BYTE   W06
 BYTE   Bn2  v052
 BYTE   W06
 BYTE   As3
 BYTE   W06
 BYTE   Ds3
 BYTE   W06
 BYTE   Gs3
 BYTE   W06
 BYTE   Bn2
 BYTE   W06
 BYTE   Ds3
 BYTE   W06
 BYTE   Gs2  v056
 BYTE   W06
// 015   ----------------------------------------
 BYTE   N06
 BYTE   W06
 BYTE   Cs3
 BYTE   W06
 BYTE   Fs3
 BYTE   W06
 BYTE   Gs2
 BYTE   W06
 BYTE   Fn3
 BYTE   W06
 BYTE   Gs2
 BYTE   W06
 BYTE   Cs3
 BYTE   W06
 BYTE   Ds3
 BYTE   W06
 BYTE   Fn3
 BYTE   W06
 BYTE   Cs3
 BYTE   W06
 BYTE   Gs2
 BYTE   W06
 BYTE   Fn2
 BYTE   W06
 BYTE   Gs2
 BYTE   W06
 BYTE   Cs3
 BYTE   W06
 BYTE   Fn3
 BYTE   W06
 BYTE   Gs3
 BYTE   W05
 BYTE   VOICE   9
 BYTE   W01
// 016   ----------------------------------------
 BYTE   N30  As3  v104
 BYTE   W30
 BYTE   N06  As3  v064
 BYTE   W06
 BYTE   As3  v104
 BYTE   W06
 BYTE   As3  v064
 BYTE   W06
 BYTE   N30  Gs3  v104
 BYTE   W30
 BYTE   N06  Gs3  v064
 BYTE   W06
 BYTE   Gs3  v104
 BYTE   W06
 BYTE   Gs3  v064
 BYTE   W06
// 017   ----------------------------------------
 BYTE   N30  Fs3  v104
 BYTE   W30
 BYTE   N06  Fs3  v064
 BYTE   W06
 BYTE   Fs3  v104
 BYTE   W06
 BYTE   Fs3  v064
 BYTE   W06
 BYTE   N18  Fn3  v104
 BYTE   W18
 BYTE   N06  Fn3  v064
 BYTE   W06
 BYTE   N23  Fn3  v104
 BYTE   W23
 BYTE   VOICE   28
 BYTE   W01
// 018   ----------------------------------------
 BYTE   N06  Gs2  v056
 BYTE   W06
 BYTE   Bn2
 BYTE   W06
 BYTE   Ds3
 BYTE   W06
 BYTE   Bn2
 BYTE   W06
 BYTE   Gs3
 BYTE   W06
 BYTE   Bn2
 BYTE   W06
 BYTE   Ds3
 BYTE   W06
 BYTE   Gs3
 BYTE   W06
 BYTE   As3
 BYTE   W06
 BYTE   Ds3
 BYTE   W06
 BYTE   Bn2
 BYTE   W06
 BYTE   Ds3
 BYTE   W06
 BYTE   Gs3
 BYTE   W06
 BYTE   Ds3
 BYTE   W06
 BYTE   Bn2
 BYTE   W06
 BYTE   Ds3
 BYTE   W06
// 019   ----------------------------------------
 BYTE   Cs3
 BYTE   W06
 BYTE   Fn3
 BYTE   W06
 BYTE   As3
 BYTE   W06
 BYTE   Cs3
 BYTE   W06
 BYTE   Gs3
 BYTE   W06
 BYTE   Fn3
 BYTE   W06
 BYTE   Cs3
 BYTE   W06
 BYTE   Gs2
 BYTE   W06
 BYTE   Cs3
 BYTE   W06
 BYTE   Fn3
 BYTE   W06
 BYTE   As3
 BYTE   W06
 BYTE   Cs3
 BYTE   W06
 BYTE   Gs3
 BYTE   W06
 BYTE   Fn3
 BYTE   W06
 BYTE   Cs3
 BYTE   W06
 BYTE   Gs2
 BYTE   W06
// 020   ----------------------------------------
 BYTE   Dn3
 BYTE   W06
 BYTE   En3
 BYTE   W06
 BYTE   An3
 BYTE   W06
 BYTE   Dn3
 BYTE   W06
 BYTE   En3
 BYTE   W06
 BYTE   An2
 BYTE   W06
 BYTE   An3
 BYTE   W06
 BYTE   Dn3
 BYTE   W06
 BYTE   En3
 BYTE   W06
 BYTE   Dn3
 BYTE   W06
 BYTE   An3
 BYTE   W06
 BYTE   An2
 BYTE   W06
 BYTE   Dn3
 BYTE   W06
 BYTE   En3
 BYTE   W06
 BYTE   An3
 BYTE   W06
 BYTE   Dn4
 BYTE   W06
// 021   ----------------------------------------
 BYTE   Bn2
 BYTE   W06
 BYTE   En3
 BYTE   W06
 BYTE   An3
 BYTE   W06
 BYTE   En3
 BYTE   W06
 BYTE   Gs3
 BYTE   W06
 BYTE   Bn2
 BYTE   W06
 BYTE   En3
 BYTE   W06
 BYTE   Gs2
 BYTE   W06
 BYTE   Bn2
 BYTE   W06
 BYTE   En3
 BYTE   W06
 BYTE   An3
 BYTE   W06
 BYTE   Bn2
 BYTE   W06
 BYTE   Gs3
 BYTE   W06
 BYTE   En3
 BYTE   W06
 BYTE   Bn2
 BYTE   W06
 BYTE   Gs2
 BYTE   W06
// 022   ----------------------------------------
Label_2_0111D974:
 BYTE   N06  Cs4  v056
 BYTE   W06
 BYTE   Gs3
 BYTE   W06
 BYTE   Fn3
 BYTE   W06
 BYTE   Cs3
 BYTE   W06
 BYTE   Cs4
 BYTE   W06
 BYTE   Gs3
 BYTE   W06
 BYTE   Fn3
 BYTE   W06
 BYTE   Cs3
 BYTE   W06
 BYTE   Dn4
 BYTE   W06
 BYTE   An3
 BYTE   W06
 BYTE   Fs3
 BYTE   W06
 BYTE   Dn3
 BYTE   W06
 BYTE   Dn4
 BYTE   W06
 BYTE   An3
 BYTE   W06
 BYTE   Fs3
 BYTE   W06
 BYTE   Dn3
 BYTE   W06
 BYTE   PEND 
 BYTE   PATT
  POIN2 Label_2_0111D974
// 023   ----------------------------------------
 BYTE   N06  Fs3  v056
 BYTE   W06
 BYTE   N06
 BYTE   W12
 BYTE   Fn3
 BYTE   W06
 BYTE   N06
 BYTE   W06
 BYTE   Cs3
 BYTE   W06
 BYTE   An2
 BYTE   W06
 BYTE   Fn2
 BYTE   W06
 BYTE   En3
 BYTE   W06
 BYTE   N06
 BYTE   W12
 BYTE   Ds3
 BYTE   W06
 BYTE   N06
 BYTE   W06
 BYTE   An2
 BYTE   W06
 BYTE   Fs2
 BYTE   W06
 BYTE   Ds3
 BYTE   W06
// 024   ----------------------------------------
 BYTE   Dn3
 BYTE   W06
 BYTE   N06
 BYTE   W12
 BYTE   Cs3
 BYTE   W06
 BYTE   N06
 BYTE   W06
 BYTE   Gs2
 BYTE   W06
 BYTE   Fn2
 BYTE   W06
 BYTE   Cs3
 BYTE   W06
 BYTE   Dn3
 BYTE   W06
 BYTE   Gs2
 BYTE   W06
 BYTE   Fn2
 BYTE   W06
 BYTE   Ds3
 BYTE   W06
 BYTE   An2
 BYTE   W06
 BYTE   Fs2
 BYTE   W06
 BYTE   En3
 BYTE   W06
 BYTE   As2
 BYTE   W06
// 025   ----------------------------------------
 BYTE   Gs3
 BYTE   W06
 BYTE   N06
 BYTE   W12
 BYTE   Gn3
 BYTE   W06
 BYTE   N06
 BYTE   W06
 BYTE   Ds3
 BYTE   W06
 BYTE   Bn2
 BYTE   W06
 BYTE   Gn2
 BYTE   W06
 BYTE   Fs3
 BYTE   W06
 BYTE   N06
 BYTE   W12
 BYTE   Fn3
 BYTE   W06
 BYTE   N06
 BYTE   W06
 BYTE   Bn2
 BYTE   W06
 BYTE   Gs2
 BYTE   W06
 BYTE   Fn3
 BYTE   W06
// 026   ----------------------------------------
 BYTE   En3
 BYTE   W06
 BYTE   N06
 BYTE   W12
 BYTE   Ds3
 BYTE   W06
 BYTE   N06
 BYTE   W06
 BYTE   As2
 BYTE   W06
 BYTE   Gn2
 BYTE   W06
 BYTE   Ds3
 BYTE   W06
 BYTE   En3
 BYTE   W06
 BYTE   As2
 BYTE   W06
 BYTE   Gn2
 BYTE   W06
 BYTE   Fn3
 BYTE   W06
 BYTE   Bn2
 BYTE   W06
 BYTE   Gs2
 BYTE   W06
 BYTE   Fs3
 BYTE   W06
 BYTE   Cn3
 BYTE   W06
// 027   ----------------------------------------
 BYTE   As3
 BYTE   W06
 BYTE   N06
 BYTE   W12
 BYTE   An3
 BYTE   W06
 BYTE   N06
 BYTE   W06
 BYTE   Fn3
 BYTE   W06
 BYTE   Cs3
 BYTE   W06
 BYTE   An2
 BYTE   W06
 BYTE   Gs3
 BYTE   W06
 BYTE   N06
 BYTE   W12
 BYTE   Gn3
 BYTE   W06
 BYTE   N06
 BYTE   W06
 BYTE   Cs3
 BYTE   W06
 BYTE   As2
 BYTE   W06
 BYTE   Gn3
 BYTE   W06
// 028   ----------------------------------------
 BYTE   Fs3
 BYTE   W06
 BYTE   N06
 BYTE   W12
 BYTE   Fn3
 BYTE   W06
 BYTE   N06
 BYTE   W06
 BYTE   Cn3
 BYTE   W06
 BYTE   An2
 BYTE   W06
 BYTE   Fn3
 BYTE   W06
 BYTE   Fs3
 BYTE   W06
 BYTE   Cn3
 BYTE   W06
 BYTE   An2
 BYTE   W06
 BYTE   Gn3
 BYTE   W06
 BYTE   Cs3
 BYTE   W06
 BYTE   As2
 BYTE   W06
 BYTE   Gs3
 BYTE   W06
 BYTE   Dn3
 BYTE   W05
 BYTE   VOICE   33
 BYTE   W01
// 029   ----------------------------------------
 BYTE   N12  Bn1  v120
 BYTE   W12
 BYTE   Dn2
 BYTE   W12
 BYTE   N06  An2
 BYTE   W12
 BYTE   N12  Bn1
 BYTE   W12
 BYTE   Dn2
 BYTE   W12
 BYTE   Gs2
 BYTE   W12
 BYTE   Bn1
 BYTE   W12
 BYTE   Dn2
 BYTE   W12
// 030   ----------------------------------------
 BYTE   Cn2
 BYTE   W12
 BYTE   Ds2
 BYTE   W12
 BYTE   N06  As2
 BYTE   W12
 BYTE   N12  Cn2
 BYTE   W12
 BYTE   Ds2
 BYTE   W12
 BYTE   An2
 BYTE   W12
 BYTE   Cn2
 BYTE   W12
 BYTE   Ds2
 BYTE   W12
// 031   ----------------------------------------
 BYTE   Cs2
 BYTE   W12
 BYTE   En2
 BYTE   W12
 BYTE   N06  Bn2
 BYTE   W12
 BYTE   N12  Cs2
 BYTE   W12
 BYTE   En2
 BYTE   W12
 BYTE   As2
 BYTE   W12
 BYTE   Cs2
 BYTE   W12
 BYTE   En2
 BYTE   W12
// 032   ----------------------------------------
 BYTE   W48
 BYTE   VOICE   27
 BYTE   W48
// 033   ----------------------------------------
 BYTE   GoTo
  POIN2 Label_2_0111D6BE
 BYTE   FINE

//**************** Track 4 (Midi-Chn.3) ****************//

Inescapable_004:
// 000   ----------------------------------------
 BYTE   KEYSH   Inescapable_key+0
 BYTE   VOICE   34
 BYTE   VOL   41*Inescapable_mvl/mxv
 BYTE   W01
 BYTE   PAN   c_v+0
 BYTE   MOD 0
 BYTE   CnM2
 BYTE   W01
 BYTE   BEND   c_v+0
 BYTE   W10
Label_3_0111DAA0:
 BYTE   N36  As2  v056
 BYTE   W36
 BYTE   N06  As2  v032
 BYTE   W12
 BYTE   N36  Gs2  v056
 BYTE   W36
// 001   ----------------------------------------
 BYTE   N06  Gs2  v032
 BYTE   W12
 BYTE   N36  Bn2  v056
 BYTE   W36
 BYTE   N06  Bn2  v032
 BYTE   W12
 BYTE   N36  As2  v056
 BYTE   W36
// 002   ----------------------------------------
 BYTE   N06  As2  v032
 BYTE   W06
 BYTE   VOICE   9
 BYTE   W06
 BYTE   VOL   59*Inescapable_mvl/mxv
 BYTE   N96  Bn2  v096
 BYTE   W96
// 003   ----------------------------------------
 BYTE   N92  Cs3
 BYTE   W92
 BYTE   W03
 BYTE   VOICE   13
 BYTE   W01
// 004   ----------------------------------------
 BYTE   N96  Ds3  v084
 BYTE   W96
// 005   ----------------------------------------
 BYTE   N92  Dn3
 BYTE   W92
 BYTE   W03
 BYTE   VOICE   35
 BYTE   W01
// 006   ----------------------------------------
 BYTE   N48  Fs3  v060
 BYTE   W48
 BYTE   Gs3
 BYTE   W48
// 007   ----------------------------------------
 BYTE   N96  As3
 BYTE   W96
// 008   ----------------------------------------
 BYTE   Bn3
 BYTE   W96
// 009   ----------------------------------------
 BYTE   N48  As3
 BYTE   W48
 BYTE   N44
 BYTE   W44
 BYTE   W03
 BYTE   VOICE   17
 BYTE   W01
// 010   ----------------------------------------
 BYTE   N24  Bn2  v084
 BYTE   W24
 BYTE   Ds3
 BYTE   W24
 BYTE   Fs3
 BYTE   W24
 BYTE   Bn3
 BYTE   W24
// 011   ----------------------------------------
 BYTE   Gs3
 BYTE   W24
 BYTE   Fn3
 BYTE   W24
 BYTE   Cs3
 BYTE   W24
 BYTE   Fn3
 BYTE   W24
// 012   ----------------------------------------
 BYTE   N06  Fs3
 BYTE   W06
 BYTE   Fn3
 BYTE   W06
 BYTE   TIE  Fs3
 BYTE   W84
// 013   ----------------------------------------
 BYTE   W44
 BYTE   W03
 BYTE   EOT
 BYTE   VOICE   9
 BYTE   W01
 BYTE   N18  Ds3  v116
 BYTE   W24
 BYTE   N23  Dn3
 BYTE   W23
 BYTE   VOICE   40
 BYTE   W01
// 014   ----------------------------------------
 BYTE   N48  Fs4  v064
 BYTE   W48
 BYTE   Gs4
 BYTE   W48
// 015   ----------------------------------------
 BYTE   N96  As4
 BYTE   W96
// 016   ----------------------------------------
 BYTE   Bn4
 BYTE   W96
// 017   ----------------------------------------
 BYTE   N48  As4
 BYTE   W48
 BYTE   N48
 BYTE   W48
// 018   ----------------------------------------
 BYTE   N96  Bn4  v060
 BYTE   W96
// 019   ----------------------------------------
 BYTE   N78  Cs5  v064
 BYTE   W78
 BYTE   N06  Cs5  v040
 BYTE   W06
 BYTE   Cs5  v064
 BYTE   W06
 BYTE   Cs5  v040
 BYTE   W06
// 020   ----------------------------------------
 BYTE   N30  Ds5  v064
 BYTE   W30
 BYTE   N06  Ds5  v040
 BYTE   W06
 BYTE   Ds5  v064
 BYTE   W06
 BYTE   Ds5  v040
 BYTE   W06
 BYTE   N30  Cs5  v064
 BYTE   W30
 BYTE   N06  Cs5  v040
 BYTE   W06
 BYTE   Cs5  v064
 BYTE   W06
 BYTE   Cs5  v040
 BYTE   W06
// 021   ----------------------------------------
 BYTE   N30  Bn4  v064
 BYTE   W30
 BYTE   N06  Bn4  v040
 BYTE   W06
 BYTE   Bn4  v064
 BYTE   W06
 BYTE   Bn4  v040
 BYTE   W06
 BYTE   N18  As4  v064
 BYTE   W18
 BYTE   N06  As4  v040
 BYTE   W06
 BYTE   N24  As4  v064
 BYTE   W24
// 022   ----------------------------------------
 BYTE   VOICE   13
 BYTE   N36  Gs2  v096
 BYTE   W36
 BYTE   As2
 BYTE   W36
 BYTE   N24  Bn2
 BYTE   W24
// 023   ----------------------------------------
 BYTE   N36  Cs3
 BYTE   W36
 BYTE   Ds3
 BYTE   W36
 BYTE   N24  Fn3
 BYTE   W24
// 024   ----------------------------------------
 BYTE   Fs3
 BYTE   W24
 BYTE   Dn3
 BYTE   W24
 BYTE   N60  An2
 BYTE   W48
// 025   ----------------------------------------
 BYTE   W24
 BYTE   N24  Bn2
 BYTE   W24
 BYTE   Gs2
 BYTE   W24
 BYTE   En2
 BYTE   W24
// 026   ----------------------------------------
 BYTE   VOICE   40
 BYTE   N12  Fn3  v104
 BYTE   W18
 BYTE   Ds3
 BYTE   W18
 BYTE   Fn3
 BYTE   W12
 BYTE   Fs3
 BYTE   W18
 BYTE   Gs3
 BYTE   W18
 BYTE   Fs3
 BYTE   W12
// 027   ----------------------------------------
 BYTE   Fn3
 BYTE   W18
 BYTE   Ds3
 BYTE   W18
 BYTE   Fn3
 BYTE   W12
 BYTE   Fs3
 BYTE   W18
 BYTE   Gs3
 BYTE   W18
 BYTE   Fs3
 BYTE   W12
// 028   ----------------------------------------
 BYTE   VOICE   17
 BYTE   W18
 BYTE   N03  Cn3  v092
 BYTE   W03
 BYTE   N24  Cs3
 BYTE   W44
 BYTE   W01
 BYTE   N03  Cn3
 BYTE   W03
 BYTE   N24  Cs3
 BYTE   W24
 BYTE   W03
// 029   ----------------------------------------
 BYTE   W48
 BYTE   N03  Gn2
 BYTE   W03
 BYTE   N15  Gs2
 BYTE   W15
 BYTE   N18  An2
 BYTE   W18
 BYTE   N12  As2
 BYTE   W12
// 030   ----------------------------------------
 BYTE   W18
 BYTE   N03  Dn3
 BYTE   W03
 BYTE   N24  Ds3
 BYTE   W44
 BYTE   W01
 BYTE   N03  Dn3
 BYTE   W03
 BYTE   N24  Ds3
 BYTE   W24
 BYTE   W03
// 031   ----------------------------------------
 BYTE   W48
 BYTE   N03  An2
 BYTE   W03
 BYTE   N15  As2
 BYTE   W15
 BYTE   N18  Bn2
 BYTE   W18
 BYTE   N12  Cn3
 BYTE   W12
// 032   ----------------------------------------
 BYTE   W18
 BYTE   N03  En3
 BYTE   W03
 BYTE   N24  Fn3
 BYTE   W44
 BYTE   W01
 BYTE   N03  En3
 BYTE   W03
 BYTE   N24  Fn3
 BYTE   W24
 BYTE   W03
// 033   ----------------------------------------
 BYTE   W48
 BYTE   N03  Bn2
 BYTE   W03
 BYTE   N15  Cn3
 BYTE   W15
 BYTE   N18  Cs3
 BYTE   W18
 BYTE   N12  Dn3
 BYTE   W12
// 034   ----------------------------------------
 BYTE   N96
 BYTE   W96
// 035   ----------------------------------------
 BYTE   Ds3
 BYTE   W96
// 036   ----------------------------------------
 BYTE   N92  En3
 BYTE   W92
 BYTE   W03
 BYTE   VOICE   46
 BYTE   W01
// 037   ----------------------------------------
 BYTE   N06  Cs4  v104
 BYTE   W06
 BYTE   Dn4
 BYTE   W06
 BYTE   En4
 BYTE   W06
 BYTE   Cs4
 BYTE   W06
 BYTE   As3
 BYTE   W06
 BYTE   Bn3
 BYTE   W06
 BYTE   Cs4
 BYTE   W06
 BYTE   As3
 BYTE   W06
 BYTE   Fs3
 BYTE   W06
 BYTE   Gs3
 BYTE   W06
 BYTE   As3
 BYTE   W06
 BYTE   Fs3
 BYTE   W06
 BYTE   Cs3
 BYTE   W06
 BYTE   Dn3
 BYTE   W06
 BYTE   En3
 BYTE   W06
 BYTE   N05  Cs3
 BYTE   W05
 BYTE   VOICE   34
 BYTE   VOL   41*Inescapable_mvl/mxv
 BYTE   W01
// 038   ----------------------------------------
 BYTE   GoTo
  POIN2 Label_3_0111DAA0
 BYTE   FINE

//**************** Track 5 (Midi-Chn.4) ****************//

Inescapable_005:
// 000   ----------------------------------------
 BYTE   KEYSH   Inescapable_key+0
 BYTE   VOICE   52
 BYTE   VOL   59*Inescapable_mvl/mxv
 BYTE   W01
 BYTE   PAN   c_v+0
 BYTE   MOD 0
 BYTE   CnM2
 BYTE   W01
 BYTE   BEND   c_v+0
 BYTE   W10
Label_4_0111DC4E:
 BYTE   N06  As4  v080
 BYTE   W06
 BYTE   Fs4
 BYTE   W06
 BYTE   Ds4
 BYTE   W06
 BYTE   As3
 BYTE   W06
 BYTE   Fs3
 BYTE   W06
 BYTE   Ds3
 BYTE   W06
 BYTE   As2
 BYTE   W06
 BYTE   Fs2
 BYTE   W06
 BYTE   Gs4
 BYTE   W06
 BYTE   Fn4
 BYTE   W06
 BYTE   Cs4
 BYTE   W06
 BYTE   Gs3
 BYTE   W06
 BYTE   Fn3
 BYTE   W06
 BYTE   Cs3
 BYTE   W06
// 001   ----------------------------------------
 BYTE   Gs2
 BYTE   W06
 BYTE   Fn2
 BYTE   W06
 BYTE   Bn4
 BYTE   W06
 BYTE   Gs4
 BYTE   W06
 BYTE   Ds4
 BYTE   W06
 BYTE   Bn3
 BYTE   W06
 BYTE   Gs3
 BYTE   W06
 BYTE   Ds3
 BYTE   W06
 BYTE   Bn2
 BYTE   W06
 BYTE   Gs2
 BYTE   W06
 BYTE   Fn4
 BYTE   W06
 BYTE   Fn3
 BYTE   W06
 BYTE   As3
 BYTE   W06
 BYTE   Dn4
 BYTE   W06
 BYTE   Fn4
 BYTE   W06
 BYTE   Dn4
 BYTE   W06
// 002   ----------------------------------------
 BYTE   As4
 BYTE   W06
 BYTE   Fn4
 BYTE   W06
 BYTE   W96
// 003   ----------------------------------------
 BYTE   W96
// 004   ----------------------------------------
 BYTE   W96
// 005   ----------------------------------------
 BYTE   VOICE   9
 BYTE   W96
// 006   ----------------------------------------
 BYTE   W96
// 007   ----------------------------------------
 BYTE   W96
// 008   ----------------------------------------
 BYTE   W96
// 009   ----------------------------------------
 BYTE   W96
// 010   ----------------------------------------
 BYTE   W96
// 011   ----------------------------------------
 BYTE   W96
// 012   ----------------------------------------
 BYTE   N30  Ds3  v112
 BYTE   W36
 BYTE   N06
 BYTE   W12
 BYTE   N30  Cs3
 BYTE   W36
 BYTE   N06
 BYTE   W12
// 013   ----------------------------------------
 BYTE   N30  Bn2
 BYTE   W36
 BYTE   N06
 BYTE   W12
 BYTE   N18  As2
 BYTE   W24
 BYTE   N24
 BYTE   W24
// 014   ----------------------------------------
 BYTE   W96
// 015   ----------------------------------------
 BYTE   W96
// 016   ----------------------------------------
 BYTE   W96
// 017   ----------------------------------------
 BYTE   W90
 BYTE   VOICE   22
 BYTE   W06
// 018   ----------------------------------------
 BYTE   N24  Bn2  v088
 BYTE   W24
 BYTE   Ds3
 BYTE   W24
 BYTE   Fs3  v084
 BYTE   W24
 BYTE   Bn3
 BYTE   W24
// 019   ----------------------------------------
 BYTE   Gs3  v088
 BYTE   W24
 BYTE   Fn3
 BYTE   W24
 BYTE   Cs3
 BYTE   W24
 BYTE   Fn3
 BYTE   W24
// 020   ----------------------------------------
 BYTE   N06  Fs3  v072
 BYTE   W06
 BYTE   Fn3
 BYTE   W06
 BYTE   TIE  Fs3
 BYTE   W84
// 021   ----------------------------------------
 BYTE   W44
 BYTE   W03
 BYTE   EOT
 BYTE   VOICE   9
 BYTE   W01
 BYTE   N18  Ds3  v100
 BYTE   W24
 BYTE   N23  Dn3
 BYTE   W24
// 022   ----------------------------------------
 BYTE   W96
// 023   ----------------------------------------
 BYTE   W96
// 024   ----------------------------------------
 BYTE   W96
// 025   ----------------------------------------
 BYTE   W90
 BYTE   VOICE   40
 BYTE   W06
// 026   ----------------------------------------
Label_4_0111DCE9:
 BYTE   N12  Cs4  v108
 BYTE   W12
 BYTE   N06  Cs4  v064
 BYTE   W06
 BYTE   N12  Bn3  v108
 BYTE   W12
 BYTE   N06  Bn3  v064
 BYTE   W06
 BYTE   N12  Cs4  v108
 BYTE   W12
 BYTE   Dn4
 BYTE   W12
 BYTE   N06  Dn4  v064
 BYTE   W06
 BYTE   N12  En4  v108
 BYTE   W12
 BYTE   N06  En4  v064
 BYTE   W06
 BYTE   N12  Dn4  v108
 BYTE   W12
 BYTE   PEND 
 BYTE   PATT
  POIN2 Label_4_0111DCE9
// 027   ----------------------------------------
 BYTE   N06  Dn4  v064
 BYTE   W96
// 028   ----------------------------------------
 BYTE   W96
// 029   ----------------------------------------
 BYTE   W96
// 030   ----------------------------------------
 BYTE   W96
// 031   ----------------------------------------
 BYTE   W96
// 032   ----------------------------------------
 BYTE   W78
 BYTE   VOICE   53
 BYTE   W18
// 033   ----------------------------------------
 BYTE   N03  Fn3  v076
 BYTE   W03
 BYTE   Fn3  v040
 BYTE   W03
 BYTE   Fn3  v076
 BYTE   W03
 BYTE   Fn3  v040
 BYTE   W09
 BYTE   Fn3  v076
 BYTE   W03
 BYTE   Fn3  v040
 BYTE   W03
 BYTE   Fn3  v076
 BYTE   W03
 BYTE   Fn3  v040
 BYTE   W09
 BYTE   Fn3  v076
 BYTE   W03
 BYTE   Fn3  v040
 BYTE   W03
 BYTE   Fn3  v076
 BYTE   W03
 BYTE   Fn3  v040
 BYTE   W09
 BYTE   Fn3  v076
 BYTE   W03
 BYTE   Fn3  v040
 BYTE   W03
 BYTE   Fn3  v076
 BYTE   W03
 BYTE   Fn3  v040
 BYTE   W09
 BYTE   Fn3  v076
 BYTE   W03
 BYTE   Fn3  v040
 BYTE   W09
 BYTE   Fn3  v076
 BYTE   W03
 BYTE   Fn3  v040
 BYTE   W09
// 034   ----------------------------------------
 BYTE   Fs3  v076
 BYTE   W03
 BYTE   Fs3  v040
 BYTE   W03
 BYTE   Fs3  v076
 BYTE   W03
 BYTE   Fs3  v040
 BYTE   W09
 BYTE   Fs3  v076
 BYTE   W03
 BYTE   Fs3  v040
 BYTE   W03
 BYTE   Fs3  v076
 BYTE   W03
 BYTE   Fs3  v040
 BYTE   W09
 BYTE   Fs3  v076
 BYTE   W03
 BYTE   Fs3  v040
 BYTE   W03
 BYTE   Fs3  v076
 BYTE   W03
 BYTE   Fs3  v040
 BYTE   W09
 BYTE   Fs3  v076
 BYTE   W03
 BYTE   Fs3  v040
 BYTE   W03
 BYTE   Fs3  v076
 BYTE   W03
 BYTE   Fs3  v040
 BYTE   W09
 BYTE   Fs3  v076
 BYTE   W03
 BYTE   Fs3  v040
 BYTE   W09
 BYTE   Fs3  v076
 BYTE   W03
 BYTE   Fs3  v040
 BYTE   W09
// 035   ----------------------------------------
 BYTE   Gn3  v076
 BYTE   W03
 BYTE   Gn3  v040
 BYTE   W03
 BYTE   Gn3  v076
 BYTE   W03
 BYTE   Gn3  v040
 BYTE   W09
 BYTE   Gn3  v076
 BYTE   W03
 BYTE   Gn3  v040
 BYTE   W03
 BYTE   Gn3  v076
 BYTE   W03
 BYTE   Gn3  v040
 BYTE   W09
 BYTE   Gn3  v076
 BYTE   W03
 BYTE   Gn3  v040
 BYTE   W03
 BYTE   Gn3  v076
 BYTE   W03
 BYTE   Gn3  v040
 BYTE   W09
 BYTE   Gn3  v076
 BYTE   W03
 BYTE   Gn3  v040
 BYTE   W03
 BYTE   Gn3  v076
 BYTE   W03
 BYTE   Gn3  v040
 BYTE   W09
 BYTE   Gn3  v076
 BYTE   W03
 BYTE   Gn3  v040
 BYTE   W09
 BYTE   Gn3  v076
 BYTE   W03
 BYTE   Gn3  v040
 BYTE   W05
 BYTE   VOICE   46
 BYTE   W04
// 036   ----------------------------------------
 BYTE   N06  Cs3  v084
 BYTE   W06
 BYTE   Dn3
 BYTE   W06
 BYTE   En3
 BYTE   W06
 BYTE   Cs3
 BYTE   W06
 BYTE   As2
 BYTE   W06
 BYTE   Bn2
 BYTE   W06
 BYTE   Cs3
 BYTE   W06
 BYTE   As2
 BYTE   W06
 BYTE   Fs2
 BYTE   W06
 BYTE   Gs2
 BYTE   W06
 BYTE   As2
 BYTE   W06
 BYTE   Fs2
 BYTE   W06
 BYTE   Cs2
 BYTE   W06
 BYTE   Dn2
 BYTE   W06
 BYTE   En2
 BYTE   W06
 BYTE   N05  Cs2
 BYTE   W05
 BYTE   VOICE   52
 BYTE   W01
// 037   ----------------------------------------
 BYTE   GoTo
  POIN2 Label_4_0111DC4E
 BYTE   FINE

//**************** Track 6 (Midi-Chn.5) ****************//

Inescapable_006:
// 000   ----------------------------------------
 BYTE   KEYSH   Inescapable_key+0
 BYTE   VOICE   33
 BYTE   VOL   59*Inescapable_mvl/mxv
 BYTE   W01
 BYTE   PAN   c_v+0
 BYTE   MOD 0
 BYTE   CnM2
 BYTE   W01
 BYTE   BEND   c_v+0
 BYTE   W10
Label_5_0111DE14:
 BYTE   N30  Ds2  v112
 BYTE   W36
 BYTE   N06
 BYTE   W12
 BYTE   N30  Cs2
 BYTE   W36
// 001   ----------------------------------------
 BYTE   N06
 BYTE   W12
 BYTE   N30  Bn1
 BYTE   W36
 BYTE   N06
 BYTE   W12
 BYTE   N18  As1
 BYTE   W24
 BYTE   N18
 BYTE   W24
// 002   ----------------------------------------
 BYTE   N12  Bn1  v124
 BYTE   W12
 BYTE   N06  Fs2
 BYTE   W12
 BYTE   N12  Bn1
 BYTE   W12
 BYTE   N06  Fs2
 BYTE   W12
 BYTE   N12  Bn1
 BYTE   W12
 BYTE   N06  Fs2
 BYTE   W12
 BYTE   N12  Bn1
 BYTE   W12
 BYTE   N06  Fs2
 BYTE   W12
// 003   ----------------------------------------
 BYTE   N12  Cs2
 BYTE   W12
 BYTE   N06  Gs2
 BYTE   W12
 BYTE   N12  Cs2
 BYTE   W12
 BYTE   N06  Gs2
 BYTE   W12
 BYTE   N12  Cs2
 BYTE   W12
 BYTE   N06  Gs2
 BYTE   W12
 BYTE   N12  Cs2
 BYTE   W12
 BYTE   N06  Gs2
 BYTE   W12
// 004   ----------------------------------------
 BYTE   N18  As1
 BYTE   W18
 BYTE   N12  Fn2
 BYTE   W18
 BYTE   Gs2
 BYTE   W12
 BYTE   As2
 BYTE   W18
 BYTE   N18  Fn2
 BYTE   W18
 BYTE   N12  Ds2
 BYTE   W12
// 005   ----------------------------------------
 BYTE   As2
 BYTE   W18
 BYTE   As1
 BYTE   W18
 BYTE   Dn2
 BYTE   W12
 BYTE   Fn2
 BYTE   W12
 BYTE   N06  Fs2
 BYTE   W12
 BYTE   N12  Gs2
 BYTE   W12
 BYTE   As2
 BYTE   W12
// 006   ----------------------------------------
 BYTE   N07  Ds2
 BYTE   W12
 BYTE   N07
 BYTE   W12
 BYTE   N07
 BYTE   W12
 BYTE   N12  Ds3
 BYTE   W12
 BYTE   N07  Cs2
 BYTE   W12
 BYTE   N07
 BYTE   W12
 BYTE   N07
 BYTE   W12
 BYTE   N12  Cs3
 BYTE   W12
// 007   ----------------------------------------
 BYTE   N09  Ds2
 BYTE   W12
 BYTE   N09
 BYTE   W12
 BYTE   N06
 BYTE   W06
 BYTE   Gs2
 BYTE   W06
 BYTE   N12  As2
 BYTE   W12
 BYTE   N06  Ds2
 BYTE   W06
 BYTE   Gs2
 BYTE   W06
 BYTE   As2
 BYTE   W06
 BYTE   Ds2
 BYTE   W06
 BYTE   Ds3
 BYTE   W06
 BYTE   Ds2
 BYTE   W06
 BYTE   As2
 BYTE   W06
 BYTE   Ds2
 BYTE   W06
// 008   ----------------------------------------
Label_5_0111DEAB:
 BYTE   N08  Gs1  v124
 BYTE   W12
 BYTE   N08
 BYTE   W12
 BYTE   N08
 BYTE   W12
 BYTE   N12  Ds2
 BYTE   W12
 BYTE   N08  Gs1
 BYTE   W12
 BYTE   N08
 BYTE   W12
 BYTE   N08
 BYTE   W12
 BYTE   N06  Ds2
 BYTE   W06
 BYTE   Gs2
 BYTE   W06
 BYTE   PEND 
// 009   ----------------------------------------
Label_5_0111DEC3:
 BYTE   N12  Fn2  v124
 BYTE   W18
 BYTE   N18  Dn2
 BYTE   W18
 BYTE   N10  As1
 BYTE   W12
 BYTE   N12
 BYTE   W12
 BYTE   N06  Dn2
 BYTE   W12
 BYTE   N12  Fn2
 BYTE   W12
 BYTE   As2
 BYTE   W12
 BYTE   PEND 
// 010   ----------------------------------------
Label_5_0111DED8:
 BYTE   N08  Bn1  v124
 BYTE   W12
 BYTE   N08
 BYTE   W12
 BYTE   N08
 BYTE   W12
 BYTE   N06  Fs2
 BYTE   W06
 BYTE   Bn2
 BYTE   W06
 BYTE   N08  Bn1
 BYTE   W12
 BYTE   N08
 BYTE   W12
 BYTE   N08
 BYTE   W12
 BYTE   N12  Fs2
 BYTE   W12
 BYTE   PEND 
// 011   ----------------------------------------
Label_5_0111DEF0:
 BYTE   N08  Cs2  v124
 BYTE   W12
 BYTE   N08
 BYTE   W12
 BYTE   N08
 BYTE   W12
 BYTE   N12  Gs2
 BYTE   W12
 BYTE   N06  Cs2
 BYTE   W06
 BYTE   Gs2
 BYTE   W06
 BYTE   Cs3
 BYTE   W06
 BYTE   Gs2
 BYTE   W06
 BYTE   Fn2
 BYTE   W06
 BYTE   Cs2
 BYTE   W06
 BYTE   Cs3
 BYTE   W06
 BYTE   Cs2
 BYTE   W06
 BYTE   PEND 
// 012   ----------------------------------------
Label_5_0111DF0D:
 BYTE   N30  Ds2  v124
 BYTE   W36
 BYTE   N06
 BYTE   W12
 BYTE   N30  Cs2
 BYTE   W36
 BYTE   N06
 BYTE   W12
 BYTE   PEND 
// 013   ----------------------------------------
Label_5_0111DF19:
 BYTE   N30  Bn1  v124
 BYTE   W36
 BYTE   N06
 BYTE   W12
 BYTE   N18  As1
 BYTE   W24
 BYTE   Fn2
 BYTE   W24
 BYTE   PEND 
// 014   ----------------------------------------
 BYTE   N08  Ds2
 BYTE   W12
 BYTE   N08
 BYTE   W12
 BYTE   N08
 BYTE   W12
 BYTE   N12  Ds3
 BYTE   W12
 BYTE   N08  Cs2
 BYTE   W12
 BYTE   N08
 BYTE   W12
 BYTE   N08
 BYTE   W12
 BYTE   N12  Cs3
 BYTE   W12
// 015   ----------------------------------------
 BYTE   N08  Ds2
 BYTE   W12
 BYTE   N08
 BYTE   W12
 BYTE   N06
 BYTE   W06
 BYTE   Gs2
 BYTE   W06
 BYTE   N12  As2
 BYTE   W12
 BYTE   N06  Ds2
 BYTE   W06
 BYTE   Gs2
 BYTE   W06
 BYTE   As2
 BYTE   W06
 BYTE   Ds2
 BYTE   W06
 BYTE   Ds3
 BYTE   W06
 BYTE   Ds2
 BYTE   W06
 BYTE   As2
 BYTE   W06
 BYTE   Ds2
 BYTE   W06
 BYTE   PATT
  POIN2 Label_5_0111DEAB
 BYTE   PATT
  POIN2 Label_5_0111DEC3
 BYTE   PATT
  POIN2 Label_5_0111DED8
 BYTE   PATT
  POIN2 Label_5_0111DEF0
 BYTE   PATT
  POIN2 Label_5_0111DF0D
 BYTE   PATT
  POIN2 Label_5_0111DF19
// 016   ----------------------------------------
 BYTE   N08  Gs1  v124
 BYTE   W12
 BYTE   N08
 BYTE   W12
 BYTE   N08
 BYTE   W12
 BYTE   N08
 BYTE   W12
 BYTE   N08
 BYTE   W12
 BYTE   N08
 BYTE   W12
 BYTE   N08
 BYTE   W12
 BYTE   N08
 BYTE   W12
// 017   ----------------------------------------
 BYTE   Cs1
 BYTE   W12
 BYTE   N08
 BYTE   W12
 BYTE   N08
 BYTE   W12
 BYTE   N08
 BYTE   W12
 BYTE   N08
 BYTE   W12
 BYTE   N08
 BYTE   W12
 BYTE   N08
 BYTE   W12
 BYTE   N08
 BYTE   W12
// 018   ----------------------------------------
 BYTE   Dn1
 BYTE   W12
 BYTE   N08
 BYTE   W12
 BYTE   N08
 BYTE   W12
 BYTE   N08
 BYTE   W12
 BYTE   N08
 BYTE   W12
 BYTE   An1
 BYTE   W12
 BYTE   Dn2
 BYTE   W12
 BYTE   Fs1
 BYTE   W12
// 019   ----------------------------------------
 BYTE   En1
 BYTE   W12
 BYTE   N08
 BYTE   W12
 BYTE   N08
 BYTE   W12
 BYTE   N08
 BYTE   W12
 BYTE   N08
 BYTE   W12
 BYTE   N12  Bn1
 BYTE   W12
 BYTE   N06  En2
 BYTE   W06
 BYTE   Bn1
 BYTE   W06
 BYTE   N12  En1
 BYTE   W12
// 020   ----------------------------------------
Label_5_0111DFBB:
 BYTE   N18  Cs2  v124
 BYTE   W18
 BYTE   N12  Bn1
 BYTE   W18
 BYTE   N06  Cs2
 BYTE   W12
 BYTE   N12  Dn2
 BYTE   W18
 BYTE   En2
 BYTE   W18
 BYTE   N06  Dn2
 BYTE   W12
 BYTE   PEND 
 BYTE   PATT
  POIN2 Label_5_0111DFBB
// 021   ----------------------------------------
Label_5_0111DFD3:
 BYTE   N06  Fs1  v124
 BYTE   W12
 BYTE   Cs2
 BYTE   W12
 BYTE   Fs2
 BYTE   W06
 BYTE   Cs2
 BYTE   W06
 BYTE   N10  Fs1
 BYTE   W12
 BYTE   N06
 BYTE   W12
 BYTE   Cs2
 BYTE   W12
 BYTE   Fs2
 BYTE   W06
 BYTE   Cs2
 BYTE   W06
 BYTE   N10  Fs1
 BYTE   W12
 BYTE   PEND 
 BYTE   PATT
  POIN2 Label_5_0111DFD3
// 022   ----------------------------------------
Label_5_0111DFF1:
 BYTE   N06  Gs1  v124
 BYTE   W12
 BYTE   Ds2
 BYTE   W12
 BYTE   Gs2
 BYTE   W06
 BYTE   Ds2
 BYTE   W06
 BYTE   N10  Gs1
 BYTE   W12
 BYTE   N06
 BYTE   W12
 BYTE   Ds2
 BYTE   W12
 BYTE   Gs2
 BYTE   W06
 BYTE   Ds2
 BYTE   W06
 BYTE   N10  Gs1
 BYTE   W12
 BYTE   PEND 
 BYTE   PATT
  POIN2 Label_5_0111DFF1
// 023   ----------------------------------------
 BYTE   N06  As1  v124
 BYTE   W12
 BYTE   Fn2
 BYTE   W12
 BYTE   As2
 BYTE   W06
 BYTE   Fn2
 BYTE   W06
 BYTE   N10  As1
 BYTE   W12
 BYTE   N06
 BYTE   W12
 BYTE   Fn2
 BYTE   W12
 BYTE   As2
 BYTE   W06
 BYTE   Fn2
 BYTE   W06
 BYTE   N10  As1
 BYTE   W12
// 024   ----------------------------------------
 BYTE   N06
 BYTE   W12
 BYTE   Fn2
 BYTE   W12
 BYTE   As2
 BYTE   W06
 BYTE   Fn2
 BYTE   W06
 BYTE   N10  As1
 BYTE   W12
 BYTE   N06
 BYTE   W12
 BYTE   Fn2
 BYTE   W12
 BYTE   As2
 BYTE   W06
 BYTE   Fn2
 BYTE   W06
 BYTE   N10  As1
 BYTE   W11
 BYTE   VOICE   28
 BYTE   W01
// 025   ----------------------------------------
 BYTE   N03  Bn2  v088
 BYTE   W03
 BYTE   Bn2  v048
 BYTE   W03
 BYTE   Bn2  v088
 BYTE   W03
 BYTE   Bn2  v048
 BYTE   W09
 BYTE   Bn2  v088
 BYTE   W03
 BYTE   Bn2  v048
 BYTE   W03
 BYTE   Bn2  v088
 BYTE   W03
 BYTE   Bn2  v048
 BYTE   W09
 BYTE   Bn2  v088
 BYTE   W03
 BYTE   Bn2  v048
 BYTE   W03
 BYTE   Bn2  v088
 BYTE   W03
 BYTE   Bn2  v048
 BYTE   W09
 BYTE   Bn2  v088
 BYTE   W03
 BYTE   Bn2  v048
 BYTE   W03
 BYTE   Bn2  v088
 BYTE   W03
 BYTE   Bn2  v048
 BYTE   W09
 BYTE   Bn2  v088
 BYTE   W03
 BYTE   Bn2  v048
 BYTE   W09
 BYTE   Bn2  v088
 BYTE   W03
 BYTE   Bn2  v048
 BYTE   W09
// 026   ----------------------------------------
 BYTE   Cn3  v088
 BYTE   W03
 BYTE   Cn3  v048
 BYTE   W03
 BYTE   Cn3  v088
 BYTE   W03
 BYTE   Cn3  v048
 BYTE   W09
 BYTE   Cn3  v088
 BYTE   W03
 BYTE   Cn3  v048
 BYTE   W03
 BYTE   Cn3  v088
 BYTE   W03
 BYTE   Cn3  v048
 BYTE   W09
 BYTE   Cn3  v088
 BYTE   W03
 BYTE   Cn3  v048
 BYTE   W03
 BYTE   Cn3  v088
 BYTE   W03
 BYTE   Cn3  v048
 BYTE   W09
 BYTE   Cn3  v088
 BYTE   W03
 BYTE   Cn3  v048
 BYTE   W03
 BYTE   Cn3  v088
 BYTE   W03
 BYTE   Cn3  v048
 BYTE   W09
 BYTE   Cn3  v088
 BYTE   W03
 BYTE   Cn3  v048
 BYTE   W09
 BYTE   Cn3  v088
 BYTE   W03
 BYTE   Cn3  v048
 BYTE   W09
// 027   ----------------------------------------
 BYTE   Cs3  v088
 BYTE   W03
 BYTE   Cs3  v048
 BYTE   W03
 BYTE   Cs3  v088
 BYTE   W03
 BYTE   Cs3  v048
 BYTE   W09
 BYTE   Cs3  v088
 BYTE   W03
 BYTE   Cs3  v048
 BYTE   W03
 BYTE   Cs3  v088
 BYTE   W03
 BYTE   Cs3  v048
 BYTE   W09
 BYTE   Cs3  v088
 BYTE   W03
 BYTE   Cs3  v048
 BYTE   W03
 BYTE   Cs3  v088
 BYTE   W03
 BYTE   Cs3  v048
 BYTE   W09
 BYTE   Cs3  v088
 BYTE   W03
 BYTE   Cs3  v048
 BYTE   W03
 BYTE   Cs3  v088
 BYTE   W03
 BYTE   Cs3  v048
 BYTE   W09
 BYTE   Cs3  v088
 BYTE   W03
 BYTE   Cs3  v048
 BYTE   W09
 BYTE   Cs3  v088
 BYTE   W03
 BYTE   Cs3  v048
 BYTE   W09
// 028   ----------------------------------------
 BYTE   W48
 BYTE   VOICE   33
 BYTE   W48
// 029   ----------------------------------------
 BYTE   GoTo
  POIN2 Label_5_0111DE14
 BYTE   FINE

//**************** Track 7 (Midi-Chn.6) ****************//

Inescapable_007:
// 000   ----------------------------------------
 BYTE   KEYSH   Inescapable_key+0
 BYTE   VOICE   9
 BYTE   VOL   36*Inescapable_mvl/mxv
 BYTE   W01
 BYTE   PAN   c_v-5
 BYTE   MOD 0
 BYTE   CnM2
 BYTE   W01
 BYTE   BEND   c_v+0
 BYTE   W10
Label_6_0111E10E:
 BYTE   W96
// 001   ----------------------------------------
 BYTE   W96
// 002   ----------------------------------------
 BYTE   W28
 BYTE   VOICE   13
 BYTE   W04
 BYTE   N24  Bn2  v092
 BYTE   W24
 BYTE   Cs3
 BYTE   W24
 BYTE   Ds3
 BYTE   W16
// 003   ----------------------------------------
 BYTE   W08
 BYTE   N36  Fn3
 BYTE   W36
 BYTE   Fs3
 BYTE   W36
 BYTE   N24  Gs3
 BYTE   W16
// 004   ----------------------------------------
 BYTE   W08
 BYTE   N96  As3
 BYTE   W88
// 005   ----------------------------------------
 BYTE   W08
 BYTE   N92
 BYTE   W88
// 006   ----------------------------------------
 BYTE   W07
 BYTE   VOICE   17
 BYTE   W01
 BYTE   N06  Fs3  v080
 BYTE   W06
 BYTE   Fn3
 BYTE   W06
 BYTE   N30  Fs3
 BYTE   W12
 BYTE   MOD 0
 BYTE   GsM2
 BYTE   W24
 BYTE   CnM2
 BYTE   N03  En3
 BYTE   W03
 BYTE   N15  Fn3
 BYTE   W15
 BYTE   N18  Fs3
 BYTE   W18
 BYTE   N12  Gs3
 BYTE   W04
// 007   ----------------------------------------
 BYTE   W08
 BYTE   N18  Fs3
 BYTE   W18
 BYTE   Fn3
 BYTE   W18
 BYTE   N12  Cs3
 BYTE   W12
 BYTE   N06  Ds3
 BYTE   W06
 BYTE   N01  Cs3
 BYTE   W01
 BYTE   As2
 BYTE   W02
 BYTE   Gs2
 BYTE   W01
 BYTE   Fs2
 BYTE   W02
 BYTE   N03  An3
 BYTE   W03
 BYTE   N32  As3
 BYTE   W15
 BYTE   MOD 0
 BYTE   GsM2
 BYTE   W10
// 008   ----------------------------------------
 BYTE   W08
 BYTE   CnM2
 BYTE   N03
 BYTE   W03
 BYTE   N24  Bn3
 BYTE   W15
 BYTE   MOD 0
 BYTE   GsM2
 BYTE   W12
 BYTE   CnM2
 BYTE   W06
 BYTE   N06
 BYTE   W06
 BYTE   Cs4
 BYTE   W06
 BYTE   N12  Bn3
 BYTE   W12
 BYTE   As3
 BYTE   W12
 BYTE   Gs3
 BYTE   W12
 BYTE   Fs3
 BYTE   W04
// 009   ----------------------------------------
 BYTE   W08
 BYTE   N03  An3
 BYTE   W03
 BYTE   N44  As3
 BYTE   W21
 BYTE   MOD 0
 BYTE   GsM2
 BYTE   W24
 BYTE   CnM2
 BYTE   N06
 BYTE   W06
 BYTE   Bn3
 BYTE   W06
 BYTE   As3
 BYTE   W06
 BYTE   Gs3
 BYTE   W06
 BYTE   Fs3
 BYTE   W06
 BYTE   Fn3
 BYTE   W06
 BYTE   Ds3
 BYTE   W04
// 010   ----------------------------------------
 BYTE   W02
 BYTE   Fn3
 BYTE   W06
 BYTE   N24  Fs3
 BYTE   W24
 BYTE   Bn3
 BYTE   W24
 BYTE   Ds4
 BYTE   W24
 BYTE   Fs4
 BYTE   W16
// 011   ----------------------------------------
 BYTE   W08
 BYTE   Fn4
 BYTE   W24
 BYTE   Cs4
 BYTE   W24
 BYTE   Gs3
 BYTE   W24
 BYTE   Cs4
 BYTE   W16
// 012   ----------------------------------------
 BYTE   W08
 BYTE   N06  Ds4
 BYTE   W06
 BYTE   Cs4
 BYTE   W06
 BYTE   TIE  Ds4
 BYTE   W48
 BYTE   MOD 0
 BYTE   GsM2
 BYTE   W28
// 013   ----------------------------------------
 BYTE   W56
 BYTE   EOT
 BYTE   MOD 0
 BYTE   CnM2
 BYTE   W40
// 014   ----------------------------------------
 BYTE   W02
 BYTE   VOICE   22
 BYTE   W06
 BYTE   N06  Fs3  v096
 BYTE   W06
 BYTE   Fn3
 BYTE   W06
 BYTE   N30  Fs3
 BYTE   W36
 BYTE   N18  Fn3
 BYTE   W18
 BYTE   Fs3
 BYTE   W18
 BYTE   N12  Gs3
 BYTE   W04
// 015   ----------------------------------------
 BYTE   W08
 BYTE   N18  Fs3
 BYTE   W18
 BYTE   Fn3
 BYTE   W18
 BYTE   N12  Cs3
 BYTE   W12
 BYTE   Ds3
 BYTE   W12
 BYTE   N36  As3
 BYTE   W28
// 016   ----------------------------------------
 BYTE   W08
 BYTE   N30  Bn3
 BYTE   W36
 BYTE   N06
 BYTE   W06
 BYTE   Cs4
 BYTE   W06
 BYTE   N12  Bn3
 BYTE   W12
 BYTE   As3
 BYTE   W12
 BYTE   Gs3
 BYTE   W12
 BYTE   Fs3
 BYTE   W04
// 017   ----------------------------------------
 BYTE   W08
 BYTE   N48  As3
 BYTE   W48
 BYTE   N06
 BYTE   W06
 BYTE   Bn3
 BYTE   W06
 BYTE   As3
 BYTE   W06
 BYTE   Gs3
 BYTE   W06
 BYTE   Fs3
 BYTE   W06
 BYTE   Fn3
 BYTE   W06
 BYTE   Ds3
 BYTE   W04
// 018   ----------------------------------------
 BYTE   W02
 BYTE   Fn3
 BYTE   W06
 BYTE   N24  Fs3  v092
 BYTE   W24
 BYTE   Bn3
 BYTE   W24
 BYTE   Ds4  v088
 BYTE   W24
 BYTE   Fs4
 BYTE   W16
// 019   ----------------------------------------
 BYTE   W08
 BYTE   Fn4  v092
 BYTE   W24
 BYTE   Cs4
 BYTE   W24
 BYTE   Gs3
 BYTE   W24
 BYTE   Cs4
 BYTE   W16
// 020   ----------------------------------------
 BYTE   W08
 BYTE   N06  Ds4  v096
 BYTE   W06
 BYTE   Cs4
 BYTE   W06
 BYTE   TIE  Ds4
 BYTE   W76
// 021   ----------------------------------------
 BYTE   W56
 BYTE   EOT
 BYTE   W40
// 022   ----------------------------------------
 BYTE   W02
 BYTE   VOICE   9
 BYTE   W06
 BYTE   N06  Bn3  v100
 BYTE   W06
 BYTE   As3
 BYTE   W06
 BYTE   N30  Bn3
 BYTE   W36
 BYTE   N06
 BYTE   W06
 BYTE   Cs4
 BYTE   W06
 BYTE   Bn3
 BYTE   W06
 BYTE   As3
 BYTE   W06
 BYTE   Gs3
 BYTE   W06
 BYTE   Fs3
 BYTE   W06
 BYTE   Fn3
 BYTE   W04
// 023   ----------------------------------------
 BYTE   W02
 BYTE   Ds3
 BYTE   W06
 BYTE   Fn3
 BYTE   W06
 BYTE   Fs3
 BYTE   W06
 BYTE   N24  Gs3
 BYTE   W24
 BYTE   N06  Fn3
 BYTE   W06
 BYTE   Fs3
 BYTE   W06
 BYTE   N12  Gs3
 BYTE   W12
 BYTE   As3
 BYTE   W12
 BYTE   Bn3
 BYTE   W12
 BYTE   Cs4
 BYTE   W04
// 024   ----------------------------------------
 BYTE   W08
 BYTE   N18  Dn4
 BYTE   W18
 BYTE   En4
 BYTE   W18
 BYTE   N12  Dn4
 BYTE   W12
 BYTE   N18  Cs4
 BYTE   W18
 BYTE   Bn3
 BYTE   W18
 BYTE   N12  An3
 BYTE   W04
// 025   ----------------------------------------
 BYTE   W08
 BYTE   N18  Gs3
 BYTE   W18
 BYTE   Fs3
 BYTE   W18
 BYTE   N12  En3
 BYTE   W12
 BYTE   Gs3
 BYTE   W12
 BYTE   N06  Bn3
 BYTE   W12
 BYTE   N12  En4
 BYTE   W12
 BYTE   Gs4
 BYTE   W04
// 026   ----------------------------------------
 BYTE   W08
 BYTE   N06  Cs4
 BYTE   W06
 BYTE   Bn3
 BYTE   W06
 BYTE   TIE  Cs4
 BYTE   W76
// 027   ----------------------------------------
 BYTE   W96
// 028   ----------------------------------------
 BYTE   W02
 BYTE   EOT
 BYTE   W05
 BYTE   VOICE   17
 BYTE   W01
 BYTE   N06  Fs3  v080
 BYTE   W06
 BYTE   Cs3
 BYTE   W06
 BYTE   An2
 BYTE   W06
 BYTE   N03  Gn3
 BYTE   W03
 BYTE   N24  Gs3
 BYTE   W15
 BYTE   MOD 0
 BYTE   GsM2
 BYTE   W12
 BYTE   CnM2
 BYTE   N06  En3
 BYTE   W06
 BYTE   An2
 BYTE   W06
 BYTE   Fs2
 BYTE   W06
 BYTE   N03  Fn3
 BYTE   W03
 BYTE   N24  Fs3
 BYTE   W12
 BYTE   MOD 0
 BYTE   GsM2
 BYTE   W07
// 029   ----------------------------------------
 BYTE   W08
 BYTE   CnM2
 BYTE   N06  Fn3
 BYTE   W06
 BYTE   Dn3
 BYTE   W06
 BYTE   Bn2
 BYTE   W06
 BYTE   Gs2
 BYTE   W06
 BYTE   Fn2
 BYTE   W06
 BYTE   Gs2
 BYTE   W06
 BYTE   Bn2
 BYTE   W06
 BYTE   Fn3
 BYTE   W06
 BYTE   N03  Cs3
 BYTE   W03
 BYTE   N15  Dn3
 BYTE   W06
 BYTE   MOD 0
 BYTE   GsM2
 BYTE   W09
 BYTE   CnM2
 BYTE   N18  Ds3
 BYTE   W18
 BYTE   N12  En3
 BYTE   W04
// 030   ----------------------------------------
 BYTE   W08
 BYTE   N06  Gs3
 BYTE   W06
 BYTE   Ds3
 BYTE   W06
 BYTE   Bn2
 BYTE   W06
 BYTE   N03  An3
 BYTE   W03
 BYTE   N24  As3
 BYTE   W15
 BYTE   MOD 0
 BYTE   GsM2
 BYTE   W12
 BYTE   CnM2
 BYTE   N06  Fs3
 BYTE   W06
 BYTE   Bn2
 BYTE   W06
 BYTE   Gs2
 BYTE   W06
 BYTE   N03  Gn3
 BYTE   W03
 BYTE   N24  Gs3
 BYTE   W12
 BYTE   MOD 0
 BYTE   GsM2
 BYTE   W07
// 031   ----------------------------------------
 BYTE   W08
 BYTE   CnM2
 BYTE   N06  Gn3
 BYTE   W06
 BYTE   En3
 BYTE   W06
 BYTE   Cs3
 BYTE   W06
 BYTE   As2
 BYTE   W06
 BYTE   Gn2
 BYTE   W06
 BYTE   As2
 BYTE   W06
 BYTE   Cs3
 BYTE   W06
 BYTE   Gn3
 BYTE   W06
 BYTE   N03  Ds3
 BYTE   W03
 BYTE   N15  En3
 BYTE   W06
 BYTE   MOD 0
 BYTE   GsM2
 BYTE   W09
 BYTE   CnM2
 BYTE   N18  Fn3
 BYTE   W18
 BYTE   N12  Fs3
 BYTE   W04
// 032   ----------------------------------------
 BYTE   W08
 BYTE   N06  As3
 BYTE   W06
 BYTE   Fn3
 BYTE   W06
 BYTE   Cs3
 BYTE   W06
 BYTE   N03  Bn3
 BYTE   W03
 BYTE   N24  Cn4
 BYTE   W15
 BYTE   MOD 0
 BYTE   GsM2
 BYTE   W12
 BYTE   CnM2
 BYTE   N06  Gs3
 BYTE   W06
 BYTE   Cs3
 BYTE   W06
 BYTE   As2
 BYTE   W06
 BYTE   N03  An3
 BYTE   W03
 BYTE   N24  As3
 BYTE   W12
 BYTE   MOD 0
 BYTE   GsM2
 BYTE   W07
// 033   ----------------------------------------
 BYTE   W08
 BYTE   CnM2
 BYTE   N06  An3
 BYTE   W06
 BYTE   Fs3
 BYTE   W06
 BYTE   Ds3
 BYTE   W06
 BYTE   Cn3
 BYTE   W06
 BYTE   An2
 BYTE   W06
 BYTE   Cn3
 BYTE   W06
 BYTE   Ds3
 BYTE   W06
 BYTE   An3
 BYTE   W06
 BYTE   N03  Fn3
 BYTE   W03
 BYTE   N15  Fs3
 BYTE   W06
 BYTE   MOD 0
 BYTE   GsM2
 BYTE   W09
 BYTE   CnM2
 BYTE   N18  Gn3
 BYTE   W18
 BYTE   N12  Gs3
 BYTE   W04
// 034   ----------------------------------------
 BYTE   W96
// 035   ----------------------------------------
 BYTE   W96
// 036   ----------------------------------------
 BYTE   W96
// 037   ----------------------------------------
 BYTE   W96
// 038   ----------------------------------------
 BYTE   GoTo
  POIN2 Label_6_0111E10E
 BYTE   FINE

//******************************************************//
	ALIGN 4

Inescapable:
	BYTE	7	// NumTrks
	BYTE	0	// NumBlks
	BYTE	Inescapable_pri	// Priority
	BYTE	Inescapable_rev	// Reverb.
    
	POIN2	Inescapable_grp
    
	POIN2	Inescapable_001
	POIN2	Inescapable_002
	POIN2	Inescapable_003
	POIN2	Inescapable_004
	POIN2	Inescapable_005
	POIN2	Inescapable_006
	POIN2	Inescapable_007

	
