//Event file generated from Sappy .s format.
	#include "MPlayDef.event"

	#define	InheritorOfTheLight_grp  voicegroup000
	#define	InheritorOfTheLight_pri  0
	#define	InheritorOfTheLight_rev  0
	#define	InheritorOfTheLight_mvl  127
	#define	InheritorOfTheLight_key  0
	#define	InheritorOfTheLight_tbs  1
	#define	InheritorOfTheLight_exg  0
	#define	InheritorOfTheLight_cmp  1

	// .rodata
	//	InheritorOfTheLight
	ALIGN 4


//**************** Track 1 (Midi-Chn.0) ****************//

InheritorOfTheLight_001:
// 000   ----------------------------------------
 BYTE   KEYSH   InheritorOfTheLight_key+0
Label_0_010BEB42:
 BYTE   TEMPO   124*InheritorOfTheLight_tbs/2
 BYTE   VOICE   57
 BYTE   PAN   c_v+0
 BYTE   En3
 BYTE   VOL   43*InheritorOfTheLight_mvl/mxv
 BYTE   W24
 BYTE   N24  An3  v108
 BYTE   W24
 BYTE   En4
 BYTE   W24
 BYTE   N04  Dn4
 BYTE   W12
 BYTE   N05  Cs4
 BYTE   W12
 BYTE   PEND 
// 001   ----------------------------------------
 BYTE   N96  Bn3
 BYTE   W96
// 002   ----------------------------------------
Label_0_010BEB5C:
 BYTE   W24
 BYTE   N24  An3  v108
 BYTE   W24
 BYTE   En4
 BYTE   W24
 BYTE   N04  Dn4
 BYTE   W12
 BYTE   N06  Cs4
 BYTE   W12
 BYTE   PEND 
// 003   ----------------------------------------
 BYTE   N48  Gn4  v108
 BYTE   W48
 BYTE   N24  Fs4
 BYTE   W24
 BYTE   En4
 BYTE   W24
 BYTE   PEND 
 BYTE   PATT
  POIN2 Label_0_010BEB5C
// 004   ----------------------------------------
 BYTE   N24  Bn3  v108
 BYTE   W24
 BYTE   Gn3
 BYTE   W24
 BYTE   Dn4
 BYTE   W24
 BYTE   Bn3
 BYTE   W24
 BYTE   PEND 
 BYTE   PATT
  POIN2 Label_0_010BEB5C
// 005   ----------------------------------------
 BYTE   N96  Gn4  v108
 BYTE   W96
// 006   ----------------------------------------
 BYTE   W96
// 007   ----------------------------------------
 BYTE   W96
// 008   ----------------------------------------
 BYTE   W96
// 009   ----------------------------------------
 BYTE   W96
// 010   ----------------------------------------
 BYTE   W96
// 011   ----------------------------------------
 BYTE   W96
// 012   ----------------------------------------
 BYTE   W96
// 013   ----------------------------------------
 BYTE   W96
// 014   ----------------------------------------
 BYTE   W96
// 015   ----------------------------------------
 BYTE   W96
// 016   ----------------------------------------
 BYTE   W96
// 017   ----------------------------------------
 BYTE   W96
// 018   ----------------------------------------
 BYTE   W96
// 019   ----------------------------------------
 BYTE   W96
// 020   ----------------------------------------
 BYTE   W96
// 021   ----------------------------------------
 BYTE   W92
 BYTE   W03
 BYTE   VOICE   68
 BYTE   VOL   16*InheritorOfTheLight_mvl/mxv
 BYTE   W01
// 022   ----------------------------------------
 BYTE   N48  Cs5
 BYTE   W48
 BYTE   Bn4
 BYTE   W48
// 023   ----------------------------------------
 BYTE   An4
 BYTE   W48
 BYTE   Bn4
 BYTE   W48
// 024   ----------------------------------------
 BYTE   TIE  Gs4
 BYTE   W96
// 025   ----------------------------------------
 BYTE   W92
 BYTE   W03
 BYTE   VOICE   57
 BYTE   VOL   43*InheritorOfTheLight_mvl/mxv
 BYTE   W01
// 026   ----------------------------------------
 BYTE   EOT
 BYTE   W96
// 027   ----------------------------------------
 BYTE   W96
// 028   ----------------------------------------
 BYTE   W96
// 029   ----------------------------------------
 BYTE   W96
// 030   ----------------------------------------
 BYTE   GoTo
  POIN2 Label_0_010BEB42
 BYTE   FINE

//**************** Track 2 (Midi-Chn.1) ****************//

InheritorOfTheLight_002:
// 000   ----------------------------------------
 BYTE   KEYSH   InheritorOfTheLight_key+0
Label_1_010BEBC6:
 BYTE   VOICE   60
 BYTE   PAN   c_v+0
 BYTE   Cn2
 BYTE   VOL   31*InheritorOfTheLight_mvl/mxv
 BYTE   N96  Cs4  v108
 BYTE   W96
// 001   ----------------------------------------
 BYTE   W24
 BYTE   N24  Gn3  v108
 BYTE   W24
 BYTE   Bn3
 BYTE   W24
 BYTE   Dn4
 BYTE   W24
 BYTE   PEND 
// 002   ----------------------------------------
 BYTE   N96  Cs4
 BYTE   W96
// 003   ----------------------------------------
 BYTE   W24
 BYTE   N24  Bn3
 BYTE   W24
 BYTE   Dn4
 BYTE   W24
 BYTE   Fs4
 BYTE   W24
// 004   ----------------------------------------
 BYTE   N96  Cs4
 BYTE   W96
// 005   ----------------------------------------
 BYTE   N48  Gn3  v108
 BYTE   W48
 BYTE   N24  Bn3
 BYTE   W24
 BYTE   Dn4
 BYTE   W24
 BYTE   PEND 
// 006   ----------------------------------------
 BYTE   N96  Cs4
 BYTE   W96
// 007   ----------------------------------------
 BYTE   W24
 BYTE   N24  Bn3  v108
 BYTE   W24
 BYTE   Dn4
 BYTE   W24
 BYTE   Gn4
 BYTE   W23
 BYTE   W01
 BYTE   PEND 
// 008   ----------------------------------------
 BYTE   N48  Dn3  v108
 BYTE   W48
 BYTE   En3
 BYTE   W48
 BYTE   PEND 
// 009   ----------------------------------------
 BYTE   N48  Fs3  v108
 BYTE   W48
 BYTE   N24  Gs3
 BYTE   W24
 BYTE   Fs3
 BYTE   W24
 BYTE   PEND 
// 010   ----------------------------------------
 BYTE   N72  En3  v108
 BYTE   W72
 BYTE   N24  Gs3
 BYTE   W24
 BYTE   PEND 
// 011   ----------------------------------------
 BYTE   N24  Bn3  v108
 BYTE   W24
 BYTE   An3
 BYTE   W24
 BYTE   Gs3
 BYTE   W24
 BYTE   An3
 BYTE   W24
 BYTE   PEND 
// 012   ----------------------------------------
 BYTE   N96  Cs3
 BYTE   W96
// 013   ----------------------------------------
 BYTE   N48  En3
 BYTE   W48
 BYTE   Dn3
 BYTE   W48
// 014   ----------------------------------------
 BYTE   N48  Cs3  v108
 BYTE   W48
 BYTE   Bn2
 BYTE   W48
 BYTE   PEND 
// 015   ----------------------------------------
 BYTE   N48  An2  v108
 BYTE   W48
 BYTE   Gn2
 BYTE   W48
 BYTE   PEND 
// 016   ----------------------------------------
 BYTE   N48  Fs2  v108
 BYTE   W48
 BYTE   Cs3
 BYTE   W48
 BYTE   PEND 
// 017   ----------------------------------------
 BYTE   N48  Gn3  v108
 BYTE   W48
 BYTE   N24  Dn3
 BYTE   W24
 BYTE   En3
 BYTE   W24
 BYTE   PEND 
// 018   ----------------------------------------
 BYTE   N24  An2  v108
 BYTE   W24
 BYTE   Bn2
 BYTE   W24
 BYTE   Cs3
 BYTE   W24
 BYTE   En3
 BYTE   W24
 BYTE   PEND 
// 019   ----------------------------------------
 BYTE   N48  An3  v108
 BYTE   W72
 BYTE   N24
 BYTE   W24
 BYTE   PEND 
// 020   ----------------------------------------
 BYTE   N24  Fs3  v108
 BYTE   W24
 BYTE   N05  Gs3
 BYTE   W07
 BYTE   Fs3
 BYTE   W08
 BYTE   En3
 BYTE   W09
 BYTE   N24  Fs3
 BYTE   W36
 BYTE   N12
 BYTE   W12
 BYTE   PEND 
// 021   ----------------------------------------
 BYTE   N48  Cs4  v108
 BYTE   W48
 BYTE   N12  An3
 BYTE   W18
 BYTE   Gs3
 BYTE   W18
 BYTE   N08  Fs3
 BYTE   W12
 BYTE   PEND 
// 022   ----------------------------------------
 BYTE   N48  Gs3  v108
 BYTE   W48
 BYTE   En3
 BYTE   W48
 BYTE   PEND 
// 023   ----------------------------------------
 BYTE   N64  Cs3
 BYTE   W96
// 024   ----------------------------------------
 BYTE   N48  Cs4  v108
 BYTE   W48
 BYTE   Bn3
 BYTE   W48
 BYTE   PEND 
// 025   ----------------------------------------
 BYTE   N48  An3  v108
 BYTE   W48
 BYTE   Bn3
 BYTE   W48
 BYTE   PEND 
// 026   ----------------------------------------
 BYTE   TIE  Gs3
 BYTE   W96
// 027   ----------------------------------------
 BYTE   W92
 BYTE   W03
 BYTE   W01
 BYTE   PEND 
// 028   ----------------------------------------
 BYTE   EOT
 BYTE   Gs3
 BYTE   W96
// 029   ----------------------------------------
 BYTE   W96
// 030   ----------------------------------------
 BYTE   W96
// 031   ----------------------------------------
 BYTE   W96
// 032   ----------------------------------------
 BYTE   GoTo
  POIN2 Label_1_010BEBC6
 BYTE   FINE

//**************** Track 3 (Midi-Chn.2) ****************//

InheritorOfTheLight_003:
// 000   ----------------------------------------
 BYTE   KEYSH   InheritorOfTheLight_key+0
Label_2_010BECAA:
 BYTE   VOICE   63
 BYTE   PAN   c_v+0
 BYTE   En3
 BYTE   MOD 0
 BYTE   CnM2  v000
 BYTE   VOL   35*InheritorOfTheLight_mvl/mxv
 BYTE   N96  An1  v108
 BYTE   W96
// 001   ----------------------------------------
Label_2_010BECB8:
 BYTE   W12
 BYTE   N08  Gn1  v108
 BYTE   W24
 BYTE   N08
 BYTE   W24
 BYTE   N08
 BYTE   W24
 BYTE   N08
 BYTE   W12
 BYTE   PEND 
// 002   ----------------------------------------
 BYTE   N96  An1
 BYTE   W96
 BYTE   PATT
  POIN2 Label_2_010BECB8
// 003   ----------------------------------------
 BYTE   N96  An1  v108
 BYTE   W96
 BYTE   PATT
  POIN2 Label_2_010BECB8
// 004   ----------------------------------------
 BYTE   N96  An1  v108
 BYTE   W96
// 005   ----------------------------------------
 BYTE   W12
 BYTE   N08  En1  v108
 BYTE   W24
 BYTE   N08
 BYTE   W24
 BYTE   N08
 BYTE   W24
 BYTE   N08
 BYTE   W12
 BYTE   PEND 
// 006   ----------------------------------------
Label_2_010BECE5:
 BYTE   N08  Dn1  v108
 BYTE   W12
 BYTE   N08
 BYTE   W24
 BYTE   N08
 BYTE   W24
 BYTE   N08
 BYTE   W24
 BYTE   N08
 BYTE   W12
 BYTE   PEND 
 BYTE   PATT
  POIN2 Label_2_010BECE5
// 007   ----------------------------------------
Label_2_010BECF7:
 BYTE   N08  Cs1  v108
 BYTE   W12
 BYTE   N08
 BYTE   W24
 BYTE   N08
 BYTE   W24
 BYTE   N08
 BYTE   W24
 BYTE   N08
 BYTE   W12
 BYTE   PEND 
// 008   ----------------------------------------
 BYTE   N08  Fs1  v108
 BYTE   W12
 BYTE   N08
 BYTE   W24
 BYTE   N08
 BYTE   W24
 BYTE   En1
 BYTE   W24
 BYTE   N08
 BYTE   W12
 BYTE   PEND 
 BYTE   PATT
  POIN2 Label_2_010BECE5
 BYTE   PATT
  POIN2 Label_2_010BECE5
 BYTE   PATT
  POIN2 Label_2_010BECF7
// 009   ----------------------------------------
 BYTE   N08  Cn1  v108
 BYTE   W12
 BYTE   N08
 BYTE   W24
 BYTE   N08
 BYTE   W24
 BYTE   N08
 BYTE   W24
 BYTE   N08
 BYTE   W12
 BYTE   PEND 
// 010   ----------------------------------------
 BYTE   N08  Bn0  v108
 BYTE   W12
 BYTE   N08
 BYTE   W24
 BYTE   N08
 BYTE   W24
 BYTE   N08
 BYTE   W24
 BYTE   N08
 BYTE   W12
 BYTE   PEND 
// 011   ----------------------------------------
 BYTE   N08  As0  v108
 BYTE   W12
 BYTE   N08
 BYTE   W24
 BYTE   N08
 BYTE   W24
 BYTE   N08
 BYTE   W24
 BYTE   N08
 BYTE   W12
 BYTE   PEND 
// 012   ----------------------------------------
 BYTE   N08  An0  v108
 BYTE   W12
 BYTE   N08
 BYTE   W24
 BYTE   N08
 BYTE   W24
 BYTE   N08
 BYTE   W24
 BYTE   An1
 BYTE   W12
 BYTE   PEND 
// 013   ----------------------------------------
 BYTE   N08  An0  v108
 BYTE   W12
 BYTE   N08
 BYTE   W24
 BYTE   N08
 BYTE   W24
 BYTE   An1
 BYTE   W12
 BYTE   An0
 BYTE   W12
 BYTE   An1
 BYTE   W12
 BYTE   PEND 
// 014   ----------------------------------------
Label_2_010BED63:
 BYTE   N08  Gn0  v108
 BYTE   W12
 BYTE   N08
 BYTE   W24
 BYTE   N08
 BYTE   W24
 BYTE   N08
 BYTE   W24
 BYTE   N08
 BYTE   W12
 BYTE   PEND 
// 015   ----------------------------------------
 BYTE   N08  Gn0  v108
 BYTE   W12
 BYTE   N08
 BYTE   W24
 BYTE   N08
 BYTE   W24
 BYTE   N08
 BYTE   W24
 BYTE   Gn1
 BYTE   W12
 BYTE   PEND 
// 016   ----------------------------------------
 BYTE   N08  Fs0  v108
 BYTE   W12
 BYTE   N08
 BYTE   W24
 BYTE   N08
 BYTE   W24
 BYTE   N08
 BYTE   W24
 BYTE   Fs1
 BYTE   W12
 BYTE   PEND 
// 017   ----------------------------------------
 BYTE   N08  Fs0  v108
 BYTE   W12
 BYTE   N08
 BYTE   W24
 BYTE   N08
 BYTE   W24
 BYTE   N08
 BYTE   W12
 BYTE   N12  Fs1
 BYTE   W12
 BYTE   N08  Fs0
 BYTE   W12
 BYTE   PEND 
 BYTE   PATT
  POIN2 Label_2_010BED63
// 018   ----------------------------------------
 BYTE   N08  Gn0  v108
 BYTE   W12
 BYTE   N08
 BYTE   W24
 BYTE   N08
 BYTE   W24
 BYTE   N08
 BYTE   W12
 BYTE   Gn1
 BYTE   W12
 BYTE   Gn0
 BYTE   W12
 BYTE   PEND 
// 019   ----------------------------------------
 BYTE   N08  Fs0  v108
 BYTE   W12
 BYTE   N08
 BYTE   W24
 BYTE   N08
 BYTE   W24
 BYTE   N08
 BYTE   W24
 BYTE   N08
 BYTE   W12
 BYTE   PEND 
// 020   ----------------------------------------
 BYTE   N08  Fs0  v108
 BYTE   W12
 BYTE   N08
 BYTE   W24
 BYTE   N08
 BYTE   W24
 BYTE   Fs1
 BYTE   W12
 BYTE   Fs0
 BYTE   W12
 BYTE   Fs1
 BYTE   W12
 BYTE   PEND 
// 021   ----------------------------------------
 BYTE   N96  Fn1
 BYTE   W96
// 022   ----------------------------------------
 BYTE   Gs1
 BYTE   W96
// 023   ----------------------------------------
 BYTE   TIE  An1
 BYTE   W96
// 024   ----------------------------------------
 BYTE   W48
 BYTE   EOT
 BYTE   W12
 BYTE   N12
 BYTE   W24
 BYTE   N12
 BYTE   W12
// 025   ----------------------------------------
 BYTE   GoTo
  POIN2 Label_2_010BECAA
 BYTE   FINE

//**************** Track 4 (Midi-Chn.3) ****************//

InheritorOfTheLight_004:
// 000   ----------------------------------------
 BYTE   KEYSH   InheritorOfTheLight_key+0
Label_3_010BEDE2:
 BYTE   VOICE   110
 BYTE   PAN   c_v+0
 BYTE   Cn3
 BYTE   MOD 0
 BYTE   CnM2  v000
 BYTE   VOL   39*InheritorOfTheLight_mvl/mxv
 BYTE   W96
// 001   ----------------------------------------
 BYTE   W96
// 002   ----------------------------------------
 BYTE   W96
// 003   ----------------------------------------
 BYTE   W96
// 004   ----------------------------------------
 BYTE   W96
// 005   ----------------------------------------
 BYTE   W96
// 006   ----------------------------------------
 BYTE   W96
// 007   ----------------------------------------
 BYTE   W96
// 008   ----------------------------------------
Label_3_010BEDF4:
 BYTE   N48  Fs4  v104
 BYTE   W48
 BYTE   N72  Cs4
 BYTE   W48
 BYTE   PEND 
// 009   ----------------------------------------
 BYTE   W24
 BYTE   N24  Bn3  v104
 BYTE   W24
 BYTE   Cs4
 BYTE   W24
 BYTE   Dn4
 BYTE   W24
 BYTE   PEND 
// 010   ----------------------------------------
 BYTE   N72  En4  v104
 BYTE   W72
 BYTE   N24  Cs4
 BYTE   W24
 BYTE   PEND 
// 011   ----------------------------------------
 BYTE   N72  An4  v104
 BYTE   W72
 BYTE   N24  Gs4
 BYTE   W24
 BYTE   PEND 
 BYTE   PATT
  POIN2 Label_3_010BEDF4
// 012   ----------------------------------------
 BYTE   W24
 BYTE   N24  Bn3  v104
 BYTE   W24
 BYTE   En4
 BYTE   W24
 BYTE   Gs4
 BYTE   W24
 BYTE   PEND 
// 013   ----------------------------------------
 BYTE   N68  Bn4  v104
 BYTE   W72
 BYTE   N24  Gs4
 BYTE   W24
 BYTE   PEND 
// 014   ----------------------------------------
 BYTE   N48  An4  v104
 BYTE   W48
 BYTE   Bn4
 BYTE   W48
 BYTE   PEND 
// 015   ----------------------------------------
 BYTE   N48  Cs5  v104
 BYTE   W48
 BYTE   N24  Fs4
 BYTE   W24
 BYTE   Cs5
 BYTE   W24
 BYTE   PEND 
// 016   ----------------------------------------
 BYTE   N24  En5  v104
 BYTE   W24
 BYTE   Dn5
 BYTE   W24
 BYTE   An4
 BYTE   W24
 BYTE   Bn4
 BYTE   W24
 BYTE   PEND 
// 017   ----------------------------------------
 BYTE   N96  Cs5
 BYTE   W96
// 018   ----------------------------------------
 BYTE   N64  Cs4  v104
 BYTE   W72
 BYTE   N24  Cs3
 BYTE   W24
 BYTE   PEND 
// 019   ----------------------------------------
 BYTE   N48  Cs3  v104
 BYTE   W48
 BYTE   N24  Dn3
 BYTE   W24
 BYTE   En3
 BYTE   W24
 BYTE   PEND 
// 020   ----------------------------------------
 BYTE   N48  Fs3  v104
 BYTE   W48
 BYTE   N18  Cs4
 BYTE   W18
 BYTE   Bn3
 BYTE   W18
 BYTE   N12  An3
 BYTE   W12
 BYTE   PEND 
// 021   ----------------------------------------
 BYTE   N48  Bn3  v104
 BYTE   W48
 BYTE   Gs3
 BYTE   W48
 BYTE   PEND 
// 022   ----------------------------------------
 BYTE   N64  En3
 BYTE   W96
// 023   ----------------------------------------
 BYTE   W96
// 024   ----------------------------------------
 BYTE   W96
// 025   ----------------------------------------
 BYTE   W96
// 026   ----------------------------------------
 BYTE   W96
// 027   ----------------------------------------
 BYTE   N36  Cn3  v104
 BYTE   W36
 BYTE   N06
 BYTE   W06
 BYTE   Dn3
 BYTE   W06
 BYTE   N36  Ds3
 BYTE   W36
 BYTE   N06
 BYTE   W06
 BYTE   Fn3
 BYTE   W06
 BYTE   PEND 
// 028   ----------------------------------------
 BYTE   N36  Gn3  v104
 BYTE   W36
 BYTE   N06
 BYTE   W06
 BYTE   An3
 BYTE   W06
 BYTE   N36  As3
 BYTE   W36
 BYTE   N06
 BYTE   W06
 BYTE   Cn4
 BYTE   W06
 BYTE   PEND 
// 029   ----------------------------------------
 BYTE   N96  Cs4
 BYTE   W96
// 030   ----------------------------------------
 BYTE   N48  An3  v104
 BYTE   W60
 BYTE   N06
 BYTE   W24
 BYTE   N06
 BYTE   W12
 BYTE   PEND 
// 031   ----------------------------------------
 BYTE   GoTo
  POIN2 Label_3_010BEDE2
 BYTE   FINE

//**************** Track 5 (Midi-Chn.4) ****************//

InheritorOfTheLight_005:
// 000   ----------------------------------------
 BYTE   KEYSH   InheritorOfTheLight_key+0
Label_4_010BEEAE:
 BYTE   VOICE   110
 BYTE   PAN   c_v+0
 BYTE   Cn4
 BYTE   MOD 0
 BYTE   CnM2  v000
 BYTE   VOL   35*InheritorOfTheLight_mvl/mxv
Label_4_010BEEB8:
 BYTE   W24
 BYTE   N23  En3  v100
 BYTE   W24
 BYTE   An3
 BYTE   W24
 BYTE   N06
 BYTE   W12
 BYTE   N06
 BYTE   W12
 BYTE   PEND 
// 001   ----------------------------------------
 BYTE   N92  Gn3
 BYTE   W96
 BYTE   PATT
  POIN2 Label_4_010BEEB8
// 002   ----------------------------------------
 BYTE   N44  Bn3  v100
 BYTE   W48
 BYTE   N23
 BYTE   W24
 BYTE   N23
 BYTE   W24
 BYTE   PEND 
 BYTE   PATT
  POIN2 Label_4_010BEEB8
// 003   ----------------------------------------
 BYTE   N23  Gn3  v100
 BYTE   W24
 BYTE   Dn3
 BYTE   W24
 BYTE   Gn3
 BYTE   W24
 BYTE   N23
 BYTE   W24
 BYTE   PEND 
 BYTE   PATT
  POIN2 Label_4_010BEEB8
// 004   ----------------------------------------
 BYTE   N92  Dn4  v100
 BYTE   W96
// 005   ----------------------------------------
Label_4_010BEEEE:
 BYTE   N48  Fs4  v100
 BYTE   W48
 BYTE   N72  Cs4
 BYTE   W48
 BYTE   PEND 
// 006   ----------------------------------------
 BYTE   W24
 BYTE   N24  Bn3  v100
 BYTE   W24
 BYTE   Cs4
 BYTE   W24
 BYTE   Dn4
 BYTE   W24
 BYTE   PEND 
// 007   ----------------------------------------
 BYTE   N72  En4  v100
 BYTE   W72
 BYTE   N24  Cs4
 BYTE   W24
 BYTE   PEND 
// 008   ----------------------------------------
 BYTE   N72  An4  v100
 BYTE   W72
 BYTE   N24  Gs4
 BYTE   W24
 BYTE   PEND 
 BYTE   PATT
  POIN2 Label_4_010BEEEE
// 009   ----------------------------------------
 BYTE   W24
 BYTE   N24  Bn3  v100
 BYTE   W24
 BYTE   En4
 BYTE   W24
 BYTE   Gs4
 BYTE   W24
 BYTE   PEND 
// 010   ----------------------------------------
 BYTE   N68  Bn4  v100
 BYTE   W72
 BYTE   N24  Gs4
 BYTE   W24
 BYTE   PEND 
// 011   ----------------------------------------
 BYTE   N48  An4  v100
 BYTE   W48
 BYTE   Bn4
 BYTE   W48
 BYTE   PEND 
// 012   ----------------------------------------
 BYTE   N48  Cs5  v100
 BYTE   W48
 BYTE   N24  Fs4
 BYTE   W24
 BYTE   Cs5
 BYTE   W24
 BYTE   PEND 
// 013   ----------------------------------------
 BYTE   N24  En5  v100
 BYTE   W24
 BYTE   Dn5
 BYTE   W24
 BYTE   An4
 BYTE   W24
 BYTE   Bn4
 BYTE   W24
 BYTE   PEND 
// 014   ----------------------------------------
 BYTE   N96  Cs5
 BYTE   W96
// 015   ----------------------------------------
 BYTE   Cs4
 BYTE   W96
// 016   ----------------------------------------
 BYTE   N48  Cs3  v100
 BYTE   W48
 BYTE   N24  Dn3
 BYTE   W24
 BYTE   En3
 BYTE   W24
 BYTE   PEND 
// 017   ----------------------------------------
 BYTE   N48  Fs3  v100
 BYTE   W48
 BYTE   N18  Cs4
 BYTE   W18
 BYTE   Bn3
 BYTE   W18
 BYTE   N12  An3
 BYTE   W12
 BYTE   PEND 
// 018   ----------------------------------------
 BYTE   N48  Bn3  v100
 BYTE   W48
 BYTE   Gs3
 BYTE   W48
 BYTE   PEND 
// 019   ----------------------------------------
 BYTE   N64  En3
 BYTE   W96
// 020   ----------------------------------------
 BYTE   W96
// 021   ----------------------------------------
 BYTE   W96
// 022   ----------------------------------------
 BYTE   W96
// 023   ----------------------------------------
 BYTE   W96
// 024   ----------------------------------------
 BYTE   N36  Cn3  v100
 BYTE   W36
 BYTE   N06
 BYTE   W06
 BYTE   Dn3
 BYTE   W06
 BYTE   N36  Ds3
 BYTE   W36
 BYTE   N06
 BYTE   W06
 BYTE   Fn3
 BYTE   W06
 BYTE   PEND 
// 025   ----------------------------------------
 BYTE   N36  Gn3  v100
 BYTE   W36
 BYTE   N06
 BYTE   W06
 BYTE   An3
 BYTE   W06
 BYTE   N36  As3
 BYTE   W36
 BYTE   N06
 BYTE   W06
 BYTE   Cn4
 BYTE   W06
 BYTE   PEND 
// 026   ----------------------------------------
 BYTE   N96  Cs4
 BYTE   W96
// 027   ----------------------------------------
 BYTE   N48  An3  v100
 BYTE   W60
 BYTE   N06
 BYTE   W24
 BYTE   N06
 BYTE   W12
 BYTE   PEND 
// 028   ----------------------------------------
 BYTE   GoTo
  POIN2 Label_4_010BEEAE
 BYTE   FINE

//**************** Track 6 (Midi-Chn.5) ****************//

InheritorOfTheLight_006:
// 000   ----------------------------------------
 BYTE   KEYSH   InheritorOfTheLight_key+0
Label_5_010BEFA2:
 BYTE   VOICE   11
 BYTE   PAN   c_v+0
 BYTE   MOD 0
 BYTE   CnM2  v000
 BYTE   VOL   35*InheritorOfTheLight_mvl/mxv
 BYTE   W96
// 001   ----------------------------------------
 BYTE   W96
// 002   ----------------------------------------
 BYTE   W96
// 003   ----------------------------------------
 BYTE   W96
// 004   ----------------------------------------
 BYTE   W96
// 005   ----------------------------------------
 BYTE   W96
// 006   ----------------------------------------
 BYTE   W96
// 007   ----------------------------------------
 BYTE   W96
// 008   ----------------------------------------
 BYTE   W96
// 009   ----------------------------------------
 BYTE   W96
// 010   ----------------------------------------
 BYTE   W96
// 011   ----------------------------------------
 BYTE   W96
// 012   ----------------------------------------
 BYTE   W96
// 013   ----------------------------------------
 BYTE   W96
// 014   ----------------------------------------
 BYTE   W96
// 015   ----------------------------------------
 BYTE   W96
// 016   ----------------------------------------
 BYTE   W96
// 017   ----------------------------------------
 BYTE   W96
// 018   ----------------------------------------
 BYTE   W96
// 019   ----------------------------------------
 BYTE   W96
// 020   ----------------------------------------
 BYTE   N48  Cs4  v100
 BYTE   W48
 BYTE   N24  Dn4
 BYTE   W24
 BYTE   En4
 BYTE   W24
 BYTE   PEND 
// 021   ----------------------------------------
 BYTE   N48  Fs4  v100
 BYTE   W48
 BYTE   N12  Cs5
 BYTE   W18
 BYTE   Bn4
 BYTE   W18
 BYTE   N08  An4
 BYTE   W12
 BYTE   PEND 
// 022   ----------------------------------------
 BYTE   N48  Bn4  v100
 BYTE   W48
 BYTE   Gs4
 BYTE   W48
 BYTE   PEND 
// 023   ----------------------------------------
 BYTE   N64  En4
 BYTE   W96
// 024   ----------------------------------------
 BYTE   W96
// 025   ----------------------------------------
 BYTE   W96
// 026   ----------------------------------------
 BYTE   W96
// 027   ----------------------------------------
 BYTE   W96
// 028   ----------------------------------------
 BYTE   W96
// 029   ----------------------------------------
 BYTE   W96
// 030   ----------------------------------------
 BYTE   W96
// 031   ----------------------------------------
 BYTE   W96
// 032   ----------------------------------------
 BYTE   GoTo
  POIN2 Label_5_010BEFA2
 BYTE   FINE

//**************** Track 7 (Midi-Chn.6) ****************//

InheritorOfTheLight_007:
// 000   ----------------------------------------
 BYTE   KEYSH   InheritorOfTheLight_key+0
Label_6_010BEFF2:
 BYTE   VOICE   122
 BYTE   PAN   c_v-1
 BYTE   Gs2
 BYTE   MOD 0
 BYTE   CnM2  v000
 BYTE   VOL   35*InheritorOfTheLight_mvl/mxv
 BYTE   W96
// 001   ----------------------------------------
 BYTE   W96
// 002   ----------------------------------------
 BYTE   W96
// 003   ----------------------------------------
 BYTE   W96
// 004   ----------------------------------------
 BYTE   W96
// 005   ----------------------------------------
 BYTE   W96
// 006   ----------------------------------------
 BYTE   W96
// 007   ----------------------------------------
 BYTE   W72
 BYTE   N16  Dn1  v112
 BYTE   W24
// 008   ----------------------------------------
Label_6_010BF008:
 BYTE   N08  Fs1  v112
 BYTE   W12
 BYTE   N06
 BYTE   W06
 BYTE   N06
 BYTE   W06
 BYTE   N16  Dn1
 BYTE   N08  Fs1
 BYTE   W12
 BYTE   N06
 BYTE   W06
 BYTE   N06
 BYTE   W06
 BYTE   N04
 BYTE   W12
 BYTE   N06
 BYTE   W06
 BYTE   N06
 BYTE   W06
 BYTE   N16  Dn1
 BYTE   N08  Fs1
 BYTE   W12
 BYTE   N06
 BYTE   W06
 BYTE   N06
 BYTE   W06
 BYTE   PEND 
 BYTE   PATT
  POIN2 Label_6_010BF008
 BYTE   PATT
  POIN2 Label_6_010BF008
// 009   ----------------------------------------
Label_6_010BF033:
 BYTE   N08  Fs1  v112
 BYTE   W12
 BYTE   N06
 BYTE   W06
 BYTE   N06
 BYTE   W06
 BYTE   N16  Dn1
 BYTE   N08  Fs1
 BYTE   W12
 BYTE   N06
 BYTE   W06
 BYTE   N06
 BYTE   W06
 BYTE   N04
 BYTE   W12
 BYTE   N06
 BYTE   W06
 BYTE   N06
 BYTE   W06
 BYTE   N12  Dn1
 BYTE   N08  Fs1
 BYTE   W12
 BYTE   Dn1
 BYTE   N08  En2
 BYTE   W12
 BYTE   PEND 
 BYTE   PATT
  POIN2 Label_6_010BF008
 BYTE   PATT
  POIN2 Label_6_010BF008
 BYTE   PATT
  POIN2 Label_6_010BF008
 BYTE   PATT
  POIN2 Label_6_010BF033
 BYTE   PATT
  POIN2 Label_6_010BF008
 BYTE   PATT
  POIN2 Label_6_010BF008
 BYTE   PATT
  POIN2 Label_6_010BF008
// 010   ----------------------------------------
 BYTE   N08  Fs1  v112
 BYTE   W12
 BYTE   N06
 BYTE   W06
 BYTE   N06
 BYTE   W06
 BYTE   N16  Dn1
 BYTE   N08  Fs1
 BYTE   W12
 BYTE   N06
 BYTE   W06
 BYTE   N06
 BYTE   W06
 BYTE   N08
 BYTE   W12
 BYTE   Dn1
 BYTE   N06  Fs1
 BYTE   W06
 BYTE   N06
 BYTE   W06
 BYTE   N08
 BYTE   W12
 BYTE   Dn1
 BYTE   N08  En2
 BYTE   W12
 BYTE   PEND 
 BYTE   PATT
  POIN2 Label_6_010BF008
// 011   ----------------------------------------
 BYTE   N08  Fs1  v112
 BYTE   W12
 BYTE   N06
 BYTE   W06
 BYTE   N06
 BYTE   W06
 BYTE   N16  Dn1
 BYTE   N08  Fs1
 BYTE   W12
 BYTE   N06
 BYTE   W06
 BYTE   N06
 BYTE   W06
 BYTE   N04
 BYTE   W12
 BYTE   N06
 BYTE   W06
 BYTE   N06
 BYTE   W06
 BYTE   N16  Dn1
 BYTE   N08  Fs1
 BYTE   W12
 BYTE   N06
 BYTE   W06
 BYTE   N08  Dn1
 BYTE   N06  Fs1
 BYTE   N08  Gn2
 BYTE   W06
 BYTE   PEND 
 BYTE   PATT
  POIN2 Label_6_010BF008
 BYTE   PATT
  POIN2 Label_6_010BF008
// 012   ----------------------------------------
Label_6_010BF0CC:
 BYTE   N08  Fs1  v112
 BYTE   W12
 BYTE   N08
 BYTE   W12
 BYTE   Dn1
 BYTE   N08  Fs1
 BYTE   W12
 BYTE   N08
 BYTE   W12
 BYTE   N08
 BYTE   W12
 BYTE   N08
 BYTE   W12
 BYTE   Dn1
 BYTE   N08  Fs1
 BYTE   W12
 BYTE   N08
 BYTE   W12
 BYTE   PEND 
// 013   ----------------------------------------
 BYTE   N08  Fs1  v112
 BYTE   W12
 BYTE   N08
 BYTE   W12
 BYTE   Dn1
 BYTE   N08  Fs1
 BYTE   W12
 BYTE   N08
 BYTE   W12
 BYTE   N08
 BYTE   W12
 BYTE   N08
 BYTE   W12
 BYTE   Dn1
 BYTE   N08  Fs1
 BYTE   W12
 BYTE   Dn1
 BYTE   N08  Fs1
 BYTE   W12
 BYTE   PEND 
 BYTE   PATT
  POIN2 Label_6_010BF0CC
// 014   ----------------------------------------
 BYTE   N08  Fs1  v112
 BYTE   W12
 BYTE   N08
 BYTE   W12
 BYTE   Dn1
 BYTE   N08  Fs1
 BYTE   W12
 BYTE   N08
 BYTE   W12
 BYTE   N08
 BYTE   W12
 BYTE   Dn1
 BYTE   W24
 BYTE   N08
 BYTE   W12
 BYTE   PEND 
// 015   ----------------------------------------
Label_6_010BF114:
 BYTE   N06  Dn1  v112
 BYTE   W06
 BYTE   N06
 BYTE   W06
 BYTE   N08
 BYTE   W24
 BYTE   N06
 BYTE   W06
 BYTE   N08
 BYTE   W18
 BYTE   N08
 BYTE   W24
 BYTE   N08
 BYTE   W12
 BYTE   PEND 
 BYTE   PATT
  POIN2 Label_6_010BF114
// 016   ----------------------------------------
 BYTE   N06  Dn1  v112
 BYTE   W06
 BYTE   N06
 BYTE   W06
 BYTE   N08
 BYTE   W24
 BYTE   N06
 BYTE   W06
 BYTE   N06
 BYTE   W06
 BYTE   N06
 BYTE   W06
 BYTE   N06
 BYTE   W06
 BYTE   N08
 BYTE   W24
 BYTE   N06
 BYTE   W06
 BYTE   N06
 BYTE   W06
 BYTE   PEND 
// 017   ----------------------------------------
 BYTE   N08  Dn1  v112
 BYTE   W24
 BYTE   N08
 BYTE   W36
 BYTE   N08
 BYTE   W24
 BYTE   N08
 BYTE   W12
 BYTE   PEND 
// 018   ----------------------------------------
 BYTE   GoTo
  POIN2 Label_6_010BEFF2
 BYTE   FINE

//******************************************************//
	ALIGN 4

InheritorOfTheLight:
	BYTE	7	// NumTrks
	BYTE	0	// NumBlks
	BYTE	InheritorOfTheLight_pri	// Priority
	BYTE	InheritorOfTheLight_rev	// Reverb.
    
	POIN2	InheritorOfTheLight_grp
    
	POIN2	InheritorOfTheLight_001
	POIN2	InheritorOfTheLight_002
	POIN2	InheritorOfTheLight_003
	POIN2	InheritorOfTheLight_004
	POIN2	InheritorOfTheLight_005
	POIN2	InheritorOfTheLight_006
	POIN2	InheritorOfTheLight_007

	
