//Event file generated from Sappy .s format.
	#include "MPlayDef.event"

	#define	Jenova_grp  voicegroup000
	#define	Jenova_pri  0
	#define	Jenova_rev  0
	#define	Jenova_mvl  120
	#define	Jenova_key  0
	#define	Jenova_tbs  1
	#define	Jenova_exg  0
	#define	Jenova_cmp  1

	// .rodata
	//	Jenova
	ALIGN 4

//**************** Track 1 (Midi-Chn.1) ****************//

Jenova_1:
	BYTE	KEYSH   Jenova_key+0
// 000   ----------------------------------------
	BYTE	TEMPO   179*Jenova_tbs/2
	BYTE		VOICE   4
	BYTE		VOL     11*Jenova_mvl/mxv
	BYTE		BEND    c_v+0
	BYTE	W01
	BYTE		N10     As5   v112
	BYTE	W11
	BYTE		        An5 
	BYTE	W12
	BYTE		        Fn5 
	BYTE	W12
	BYTE		N11     Dn5 
	BYTE	W12
	BYTE		N10     As4 
	BYTE	W12
	BYTE		N11     An4 
	BYTE	W12
	BYTE		N10     Fn4 
	BYTE	W12
	BYTE		        Dn4 
	BYTE	W12
// 001   ----------------------------------------
	BYTE		        As5 
	BYTE	W12
	BYTE		        An5 
	BYTE	W12
	BYTE		N11     Fn5 
	BYTE	W12
	BYTE		N10     Dn5 
	BYTE	W12
	BYTE		        As4 
	BYTE	W12
	BYTE		N11     An4 
	BYTE	W12
	BYTE		N10     Fn4 
	BYTE	W12
	BYTE		N11     Dn4 
	BYTE	W12
// 002   ----------------------------------------
Jenova_1_002:
	BYTE		N10     As5   v112
	BYTE	W12
	BYTE		        An5 
	BYTE	W12
	BYTE		        Fn5 
	BYTE	W12
	BYTE		        Dn5 
	BYTE	W12
	BYTE		        As4 
	BYTE	W12
	BYTE		        An4 
	BYTE	W12
	BYTE		        Fn4 
	BYTE	W12
	BYTE		        Dn4 
	BYTE	W12
	BYTE	PEND
// 003   ----------------------------------------
	BYTE		N11     As5 
	BYTE	W12
	BYTE		N10     An5 
	BYTE	W12
	BYTE		N11     Fn5 
	BYTE	W12
	BYTE		N10     Dn5 
	BYTE	W12
	BYTE		        As4 
	BYTE	W12
	BYTE		        An4 
	BYTE	W12
	BYTE		        Fn4 
	BYTE	W12
	BYTE		        Dn4 
	BYTE	W12
// 004   ----------------------------------------
	BYTE		        As5 
	BYTE	W12
	BYTE		N11     An5 
	BYTE	W12
	BYTE		        Fn5 
	BYTE	W12
	BYTE		N10     Dn5 
	BYTE	W12
	BYTE		        As4 
	BYTE	W12
	BYTE		        An4 
	BYTE	W12
	BYTE		        Fn4 
	BYTE	W12
	BYTE		        Dn4 
	BYTE	W12
// 005   ----------------------------------------
	BYTE		        As5 
	BYTE	W12
	BYTE		        An5 
	BYTE	W12
	BYTE		        Fn5 
	BYTE	W12
	BYTE		N11     Dn5 
	BYTE	W12
	BYTE		N10     As4 
	BYTE	W12
	BYTE		N11     An4 
	BYTE	W12
	BYTE		        Fn4 
	BYTE	W12
	BYTE		        Dn4 
	BYTE	W12
// 006   ----------------------------------------
	BYTE		N10     As5 
	BYTE	W12
	BYTE		        An5 
	BYTE	W12
	BYTE		        Fn5 
	BYTE	W12
	BYTE		        Dn5 
	BYTE	W12
	BYTE		        As4 
	BYTE	W12
	BYTE		        An4 
	BYTE	W13
	BYTE		        Fn4 
	BYTE	W11
	BYTE		        Dn4 
	BYTE	W12
// 007   ----------------------------------------
	BYTE		        As5 
	BYTE	W12
	BYTE		        An5 
	BYTE	W12
	BYTE		        Fn5 
	BYTE	W12
	BYTE		        Dn5 
	BYTE	W12
	BYTE		        As4 
	BYTE	W12
	BYTE		        An4 
	BYTE	W12
	BYTE		        Fn4 
	BYTE	W12
	BYTE		N11     Dn4 
	BYTE	W12
Jenova_1_B1:
// 008   ----------------------------------------
	BYTE	W01
	BYTE		N10     As5   v112
	BYTE	W11
	BYTE		        An5 
	BYTE	W12
	BYTE		        Fn5 
	BYTE	W12
	BYTE		        Dn5 
	BYTE	W12
	BYTE		        As4 
	BYTE	W12
	BYTE		N11     An4 
	BYTE	W12
	BYTE		N10     Fn4 
	BYTE	W12
	BYTE		        Dn4 
	BYTE	W12
// 009   ----------------------------------------
	BYTE	PATT
	 POIN2	Jenova_1_002
// 010   ----------------------------------------
	BYTE	W01
	BYTE		N10     As5   v112
	BYTE	W11
	BYTE		        An5 
	BYTE	W12
	BYTE		        Fn5 
	BYTE	W12
	BYTE		        Dn5 
	BYTE	W12
	BYTE		        As4 
	BYTE	W12
	BYTE		        An4 
	BYTE	W12
	BYTE		        Fn4 
	BYTE	W12
	BYTE		N11     Dn4 
	BYTE	W12
// 011   ----------------------------------------
	BYTE		N10     As5 
	BYTE	W12
	BYTE		N11     An5 
	BYTE	W12
	BYTE		N10     Fn5 
	BYTE	W12
	BYTE		        Dn5 
	BYTE	W12
	BYTE		        As4 
	BYTE	W12
	BYTE		N11     An4 
	BYTE	W12
	BYTE		N10     Fn4 
	BYTE	W12
	BYTE		N11     Dn4 
	BYTE	W12
// 012   ----------------------------------------
	BYTE		N10     As5 
	BYTE	W12
	BYTE		        An5 
	BYTE	W12
	BYTE		        Fn5 
	BYTE	W12
	BYTE		        Dn5 
	BYTE	W13
	BYTE		        As4 
	BYTE	W11
	BYTE		N11     An4 
	BYTE	W12
	BYTE		N10     Fn4 
	BYTE	W12
	BYTE		        Dn4 
	BYTE	W12
// 013   ----------------------------------------
	BYTE		        As5 
	BYTE	W13
	BYTE		        An5 
	BYTE	W12
	BYTE		        Fn5 
	BYTE	W11
	BYTE		        Dn5 
	BYTE	W12
	BYTE		        As4 
	BYTE	W13
	BYTE		        An4 
	BYTE	W12
	BYTE		        Fn4 
	BYTE	W11
	BYTE		        Dn4 
	BYTE	W12
// 014   ----------------------------------------
	BYTE	PATT
	 POIN2	Jenova_1_002
// 015   ----------------------------------------
	BYTE		N10     As5   v112
	BYTE	W12
	BYTE		N11     An5 
	BYTE	W12
	BYTE		N10     Fn5 
	BYTE	W12
	BYTE		N11     Dn5 
	BYTE	W12
	BYTE		N10     As4 
	BYTE	W12
	BYTE		        An4 
	BYTE	W12
	BYTE		        Fn4 
	BYTE	W12
	BYTE		N11     Dn4 
	BYTE	W12
// 016   ----------------------------------------
	BYTE		N10     Gs5 
	BYTE	W12
	BYTE		        Fn5 
	BYTE	W12
	BYTE		        Cs5 
	BYTE	W12
	BYTE		        Cn5 
	BYTE	W12
	BYTE		        Gs4 
	BYTE	W12
	BYTE		        Fn4 
	BYTE	W12
	BYTE		        Cs4 
	BYTE	W12
	BYTE		N11     Cn4 
	BYTE	W12
// 017   ----------------------------------------
	BYTE		N10     Gs5 
	BYTE	W12
	BYTE		N11     Fn5 
	BYTE	W12
	BYTE		N10     Cs5 
	BYTE	W12
	BYTE		        Cn5 
	BYTE	W12
	BYTE		        Gs4 
	BYTE	W12
	BYTE		        Fn4 
	BYTE	W12
	BYTE		        Cs4 
	BYTE	W12
	BYTE		        Cn4 
	BYTE	W12
// 018   ----------------------------------------
	BYTE		        Gs5 
	BYTE	W12
	BYTE		        Fn5 
	BYTE	W12
	BYTE		        Cs5 
	BYTE	W12
	BYTE		        Cn5 
	BYTE	W12
	BYTE		        Gs4 
	BYTE	W12
	BYTE		N11     Fn4 
	BYTE	W12
	BYTE		N10     Cs4 
	BYTE	W12
	BYTE		        Cn4 
	BYTE	W12
// 019   ----------------------------------------
	BYTE		        Gs5 
	BYTE	W12
	BYTE		        Fn5 
	BYTE	W12
	BYTE		        Cs5 
	BYTE	W12
	BYTE		N11     Cn5 
	BYTE	W12
	BYTE		N10     Gs4 
	BYTE	W12
	BYTE		N11     Fn4 
	BYTE	W12
	BYTE		N10     Cs4 
	BYTE	W12
	BYTE		        Cn4 
	BYTE	W12
// 020   ----------------------------------------
	BYTE		        Gs5 
	BYTE	W12
	BYTE		        Fn5 
	BYTE	W12
	BYTE		        Cs5 
	BYTE	W12
	BYTE		        Cn5 
	BYTE	W12
	BYTE		        Gs4 
	BYTE	W12
	BYTE		        Fn4 
	BYTE	W12
	BYTE		        Cs4 
	BYTE	W12
	BYTE		        Cn4 
	BYTE	W12
// 021   ----------------------------------------
	BYTE		        Gs5 
	BYTE	W12
	BYTE		        Fn5 
	BYTE	W12
	BYTE		        Cs5 
	BYTE	W12
	BYTE		        Cn5 
	BYTE	W12
	BYTE		        Gs4 
	BYTE	W12
	BYTE		        Fn4 
	BYTE	W13
	BYTE		        Cs4 
	BYTE	W11
	BYTE		N11     Cn4 
	BYTE	W12
// 022   ----------------------------------------
	BYTE		N10     Gs5 
	BYTE	W12
	BYTE		N11     Gn5 
	BYTE	W12
	BYTE		N10     Ds5 
	BYTE	W12
	BYTE		        Cn5 
	BYTE	W12
	BYTE		        Gs4 
	BYTE	W12
	BYTE		        Gn4 
	BYTE	W12
	BYTE		        Ds4 
	BYTE	W12
	BYTE		N11     Cn4 
	BYTE	W12
// 023   ----------------------------------------
	BYTE		N10     Gs5 
	BYTE	W12
	BYTE		        Gn5 
	BYTE	W12
	BYTE		        Ds5 
	BYTE	W12
	BYTE		        Cn5 
	BYTE	W12
	BYTE		        Gs4 
	BYTE	W12
	BYTE		        Gn4 
	BYTE	W12
	BYTE		        Ds4 
	BYTE	W12
	BYTE		        Cn4 
	BYTE	W12
// 024   ----------------------------------------
	BYTE	W96
// 025   ----------------------------------------
	BYTE	W96
// 026   ----------------------------------------
	BYTE	W96
// 027   ----------------------------------------
	BYTE	W96
// 028   ----------------------------------------
	BYTE	W96
// 029   ----------------------------------------
	BYTE	W96
// 030   ----------------------------------------
	BYTE	W96
// 031   ----------------------------------------
	BYTE	W96
// 032   ----------------------------------------
	BYTE	W96
// 033   ----------------------------------------
	BYTE	W96
// 034   ----------------------------------------
	BYTE	W96
// 035   ----------------------------------------
	BYTE	W96
// 036   ----------------------------------------
	BYTE	W96
// 037   ----------------------------------------
	BYTE	W96
// 038   ----------------------------------------
	BYTE	W96
// 039   ----------------------------------------
	BYTE	W96
// 040   ----------------------------------------
	BYTE	W96
// 041   ----------------------------------------
	BYTE	W96
// 042   ----------------------------------------
	BYTE	W96
// 043   ----------------------------------------
	BYTE	W96
// 044   ----------------------------------------
	BYTE	W96
// 045   ----------------------------------------
	BYTE	W96
// 046   ----------------------------------------
	BYTE	W96
// 047   ----------------------------------------
	BYTE	W96
// 048   ----------------------------------------
	BYTE		        Gs5 
	BYTE	W12
	BYTE		        Gn5 
	BYTE	W12
	BYTE		        En5 
	BYTE	W12
	BYTE		        Cn5 
	BYTE	W12
	BYTE		        Gs4 
	BYTE	W12
	BYTE		        Gn4 
	BYTE	W12
	BYTE		        En4 
	BYTE	W12
	BYTE		N11     Cn4 
	BYTE	W12
// 049   ----------------------------------------
Jenova_1_049:
	BYTE		N10     Gs5   v112
	BYTE	W12
	BYTE		        Gn5 
	BYTE	W12
	BYTE		        En5 
	BYTE	W12
	BYTE		        Cn5 
	BYTE	W12
	BYTE		        Gs4 
	BYTE	W12
	BYTE		N11     Gn4 
	BYTE	W12
	BYTE		N10     En4 
	BYTE	W12
	BYTE		        Cn4 
	BYTE	W12
	BYTE	PEND
// 050   ----------------------------------------
	BYTE	PATT
	 POIN2	Jenova_1_049
// 051   ----------------------------------------
	BYTE		N10     Gs5   v112
	BYTE	W12
	BYTE		        Gn5 
	BYTE	W12
	BYTE		N11     En5 
	BYTE	W12
	BYTE		N10     Cn5 
	BYTE	W12
	BYTE		        Gs4 
	BYTE	W12
	BYTE		        Gn4 
	BYTE	W12
	BYTE		        En4 
	BYTE	W12
	BYTE		        Cn4 
	BYTE	W12
	BYTE	GoTo
	 POIN2	Jenova_1_B1
Jenova_1_B2:
// 052   ----------------------------------------
	BYTE	W01
	BYTE		N10     As5   v112
	BYTE	W11
	BYTE		        An5 
	BYTE	W12
	BYTE		        Fn5 
	BYTE	W12
	BYTE		N11     Dn5 
	BYTE	W12
	BYTE		N10     As4 
	BYTE	W12
	BYTE		        An4 
	BYTE	W12
	BYTE		        Fn4 
	BYTE	W12
	BYTE		N11     Dn4 
	BYTE	W12
// 053   ----------------------------------------
	BYTE		N10     As5 
	BYTE	W12
	BYTE		N11     An5 
	BYTE	W12
	BYTE		N10     Fn5 
	BYTE	W12
	BYTE		        Dn5 
	BYTE	W12
	BYTE		        As4 
	BYTE	W12
	BYTE		        An4 
	BYTE	W12
	BYTE		        Fn4 
	BYTE	W12
	BYTE		N11     Dn4 
	BYTE	W12
// 054   ----------------------------------------
	BYTE	FINE

//**************** Track 2 (Midi-Chn.2) ****************//

Jenova_2:
	BYTE	KEYSH   Jenova_key+0
// 000   ----------------------------------------
	BYTE		VOICE   38
	BYTE		VOL     26*Jenova_mvl/mxv
	BYTE		PAN     c_v+20
	BYTE		BEND    c_v+0
	BYTE	W01
	BYTE		N10     Dn1   v112
	BYTE	W11
	BYTE		        Fn1 
	BYTE	W12
	BYTE		        Dn1 
	BYTE	W12
	BYTE		        Fn1 
	BYTE	W13
	BYTE		        As1 
	BYTE	W11
	BYTE		        An1 
	BYTE	W12
	BYTE		        Fn1 
	BYTE	W12
	BYTE		        Dn1 
	BYTE	W12
// 001   ----------------------------------------
	BYTE		        Fn1 
	BYTE	W12
	BYTE		        An1 
	BYTE	W12
	BYTE		        As1 
	BYTE	W12
	BYTE		        An1 
	BYTE	W13
	BYTE		        Fn1 
	BYTE	W11
	BYTE		        Dn1 
	BYTE	W13
	BYTE		        As0 
	BYTE	W11
	BYTE		        Dn1 
	BYTE	W12
// 002   ----------------------------------------
	BYTE	W01
	BYTE		N10   
	BYTE	W12
	BYTE		        Fn1 
	BYTE	W12
	BYTE		        Dn1 
	BYTE	W11
	BYTE		        Fn1 
	BYTE	W12
	BYTE		        As1 
	BYTE	W12
	BYTE		        An1 
	BYTE	W12
	BYTE		        Fn1 
	BYTE	W12
	BYTE		        Dn1 
	BYTE	W12
// 003   ----------------------------------------
	BYTE		        Fn1 
	BYTE	W12
	BYTE		        An1 
	BYTE	W12
	BYTE		        As1 
	BYTE	W13
	BYTE		        An1 
	BYTE	W11
	BYTE		        Fn1 
	BYTE	W12
	BYTE		        Dn1 
	BYTE	W13
	BYTE		        As0 
	BYTE	W11
	BYTE		        Dn1 
	BYTE	W12
// 004   ----------------------------------------
	BYTE	W01
	BYTE		N10   
	BYTE	W11
	BYTE		        Fn1 
	BYTE	W12
	BYTE		        Dn1 
	BYTE	W13
	BYTE		        Fn1 
	BYTE	W11
	BYTE		        As1 
	BYTE	W12
	BYTE		        An1 
	BYTE	W13
	BYTE		        Fn1 
	BYTE	W12
	BYTE		        Dn1 
	BYTE	W11
// 005   ----------------------------------------
	BYTE	W01
	BYTE		        Fn1 
	BYTE	W11
	BYTE		        An1 
	BYTE	W12
	BYTE		        As1 
	BYTE	W12
	BYTE		        An1 
	BYTE	W13
	BYTE		        Fn1 
	BYTE	W11
	BYTE		        Dn1 
	BYTE	W12
	BYTE		        As0 
	BYTE	W13
	BYTE		        Dn1 
	BYTE	W11
// 006   ----------------------------------------
	BYTE	W01
	BYTE		N10   
	BYTE	W12
	BYTE		        Fn1 
	BYTE	W12
	BYTE		        Dn1 
	BYTE	W12
	BYTE		        Fn1 
	BYTE	W12
	BYTE		        As1 
	BYTE	W12
	BYTE		        An1 
	BYTE	W12
	BYTE		        Fn1 
	BYTE	W11
	BYTE		        Dn1 
	BYTE	W12
// 007   ----------------------------------------
	BYTE		        Fn1 
	BYTE	W13
	BYTE		        An1 
	BYTE	W12
	BYTE		        As1 
	BYTE	W11
	BYTE		        An1 
	BYTE	W13
	BYTE		        Fn1 
	BYTE	W11
	BYTE		        Dn1 
	BYTE	W13
	BYTE		        As0 
	BYTE	W11
	BYTE		        Dn1 
	BYTE	W12
Jenova_2_B1:
// 008   ----------------------------------------
	BYTE	W01
	BYTE		N10     Dn1   v112
	BYTE	W11
	BYTE		        Fn1 
	BYTE	W12
	BYTE		        Dn1 
	BYTE	W12
	BYTE		        Fn1 
	BYTE	W13
	BYTE		        As1 
	BYTE	W11
	BYTE		        An1 
	BYTE	W12
	BYTE		        Fn1 
	BYTE	W12
	BYTE		        Dn1 
	BYTE	W12
// 009   ----------------------------------------
	BYTE		        Fn1 
	BYTE	W12
	BYTE		        An1 
	BYTE	W12
	BYTE		        As1 
	BYTE	W12
	BYTE		        An1 
	BYTE	W12
	BYTE		        Fn1 
	BYTE	W12
	BYTE		        Dn1 
	BYTE	W13
	BYTE		        As0 
	BYTE	W11
	BYTE		        Dn1 
	BYTE	W12
// 010   ----------------------------------------
Jenova_2_010:
	BYTE	W01
	BYTE		N10     Dn1   v112
	BYTE	W11
	BYTE		        Fn1 
	BYTE	W12
	BYTE		        Dn1 
	BYTE	W12
	BYTE		        Fn1 
	BYTE	W12
	BYTE		        As1 
	BYTE	W12
	BYTE		        An1 
	BYTE	W12
	BYTE		        Fn1 
	BYTE	W12
	BYTE		        Dn1 
	BYTE	W12
	BYTE	PEND
// 011   ----------------------------------------
	BYTE	W01
	BYTE		        Fn1 
	BYTE	W11
	BYTE		        An1 
	BYTE	W12
	BYTE		        As1 
	BYTE	W12
	BYTE		        An1 
	BYTE	W12
	BYTE		        Fn1 
	BYTE	W12
	BYTE		        Dn1 
	BYTE	W13
	BYTE		        As0 
	BYTE	W11
	BYTE		        Dn1 
	BYTE	W12
// 012   ----------------------------------------
	BYTE	W01
	BYTE		N10   
	BYTE	W12
	BYTE		        Fn1 
	BYTE	W11
	BYTE		        Dn1 
	BYTE	W12
	BYTE		        Fn1 
	BYTE	W13
	BYTE		N09     As1 
	BYTE	W11
	BYTE		N10     An1 
	BYTE	W12
	BYTE		        Fn1 
	BYTE	W12
	BYTE		        Dn1 
	BYTE	W12
// 013   ----------------------------------------
	BYTE		        Fn1 
	BYTE	W13
	BYTE		        An1 
	BYTE	W12
	BYTE		N09     As1 
	BYTE	W11
	BYTE		N10     An1 
	BYTE	W13
	BYTE		        Fn1 
	BYTE	W12
	BYTE		        Dn1 
	BYTE	W12
	BYTE		        As0 
	BYTE	W11
	BYTE		        Dn1 
	BYTE	W12
// 014   ----------------------------------------
	BYTE	PATT
	 POIN2	Jenova_2_010
// 015   ----------------------------------------
	BYTE		N10     Fn1   v112
	BYTE	W12
	BYTE		        An1 
	BYTE	W12
	BYTE		        As1 
	BYTE	W12
	BYTE		        An1 
	BYTE	W12
	BYTE		        Fn1 
	BYTE	W12
	BYTE		        Dn1 
	BYTE	W12
	BYTE		        As0 
	BYTE	W12
	BYTE		        Dn1 
	BYTE	W12
// 016   ----------------------------------------
	BYTE	W01
	BYTE		        Fn1 
	BYTE	W11
	BYTE		        Gs1 
	BYTE	W12
	BYTE		        Fn1 
	BYTE	W12
	BYTE		        Gs1 
	BYTE	W13
	BYTE		        Cs2 
	BYTE	W11
	BYTE		        Cn2 
	BYTE	W12
	BYTE		        Gs1 
	BYTE	W12
	BYTE		        Fn1 
	BYTE	W12
// 017   ----------------------------------------
Jenova_2_017:
	BYTE		N10     Gs1   v112
	BYTE	W12
	BYTE		        Cn2 
	BYTE	W12
	BYTE		        Cs2 
	BYTE	W12
	BYTE		        Cn2 
	BYTE	W12
	BYTE		        Gs1 
	BYTE	W12
	BYTE		        Fn1 
	BYTE	W12
	BYTE		        Cs1 
	BYTE	W12
	BYTE		        Fn1 
	BYTE	W12
	BYTE	PEND
// 018   ----------------------------------------
	BYTE		N10   
	BYTE	W12
	BYTE		        Gs1 
	BYTE	W13
	BYTE		        Fn1 
	BYTE	W11
	BYTE		        Gs1 
	BYTE	W13
	BYTE		        Cs2 
	BYTE	W11
	BYTE		        Cn2 
	BYTE	W12
	BYTE		        Gs1 
	BYTE	W12
	BYTE		        Fn1 
	BYTE	W12
// 019   ----------------------------------------
	BYTE	PATT
	 POIN2	Jenova_2_017
// 020   ----------------------------------------
	BYTE	W01
	BYTE		N10     Cn1   v112
	BYTE	W11
	BYTE		        Ds1 
	BYTE	W13
	BYTE		        Cn1 
	BYTE	W11
	BYTE		        Ds1 
	BYTE	W13
	BYTE		        Gs1 
	BYTE	W11
	BYTE		        Gn1 
	BYTE	W12
	BYTE		        Ds1 
	BYTE	W12
	BYTE		        Cn1 
	BYTE	W12
// 021   ----------------------------------------
	BYTE	W01
	BYTE		        Ds1 
	BYTE	W11
	BYTE		        Gn1 
	BYTE	W13
	BYTE		        Gs1 
	BYTE	W12
	BYTE		        Gn1 
	BYTE	W12
	BYTE		        Ds1 
	BYTE	W12
	BYTE		        Cn1 
	BYTE	W12
	BYTE		N09     Gn0 
	BYTE	W11
	BYTE		N10     Ds1 
	BYTE	W12
// 022   ----------------------------------------
	BYTE		        Cn1 
	BYTE	W12
	BYTE		        Ds1 
	BYTE	W12
	BYTE		        Cn1 
	BYTE	W12
	BYTE		        Ds1 
	BYTE	W13
	BYTE		        Gs1 
	BYTE	W11
	BYTE		        Gn1 
	BYTE	W13
	BYTE		        Ds1 
	BYTE	W11
	BYTE		        Cn1 
	BYTE	W12
// 023   ----------------------------------------
	BYTE		        Ds1 
	BYTE	W12
	BYTE		        Gn1 
	BYTE	W12
	BYTE		        Gs1 
	BYTE	W12
	BYTE		        Gn1 
	BYTE	W13
	BYTE		        Ds1 
	BYTE	W11
	BYTE		        Cn1 
	BYTE	W12
	BYTE		        Gn0 
	BYTE	W12
	BYTE		        Ds1 
	BYTE	W12
// 024   ----------------------------------------
	BYTE		        An0 
	BYTE	W12
	BYTE		        Cn1 
	BYTE	W12
	BYTE		        An0 
	BYTE	W12
	BYTE		        Cn1 
	BYTE	W12
	BYTE		        Fn1 
	BYTE	W12
	BYTE		N11     En1 
	BYTE	W12
	BYTE		N10     Cn1 
	BYTE	W12
	BYTE		N11     An0 
	BYTE	W12
// 025   ----------------------------------------
	BYTE		N10     Cn1 
	BYTE	W12
	BYTE		        En1 
	BYTE	W12
	BYTE		        Fn1 
	BYTE	W12
	BYTE		        En1 
	BYTE	W12
	BYTE		        Cn1 
	BYTE	W12
	BYTE		N11     An0 
	BYTE	W12
	BYTE		N10     En0 
	BYTE	W12
	BYTE		        An0 
	BYTE	W12
// 026   ----------------------------------------
	BYTE	W01
	BYTE		N10   
	BYTE	W11
	BYTE		        Cn1 
	BYTE	W12
	BYTE		        An0 
	BYTE	W12
	BYTE		        Cn1 
	BYTE	W12
	BYTE		        Fn1 
	BYTE	W12
	BYTE		        En1 
	BYTE	W12
	BYTE		        Cn1 
	BYTE	W12
	BYTE		        An0 
	BYTE	W12
// 027   ----------------------------------------
	BYTE		        Cn1 
	BYTE	W12
	BYTE		N11     En1 
	BYTE	W12
	BYTE		N10     Fn1 
	BYTE	W12
	BYTE		N11     En1 
	BYTE	W12
	BYTE		N10     Cn1 
	BYTE	W12
	BYTE		        An0 
	BYTE	W12
	BYTE		        En0 
	BYTE	W12
	BYTE		        An0 
	BYTE	W12
// 028   ----------------------------------------
	BYTE		        En1 
	BYTE	W12
	BYTE		N11     Gn1 
	BYTE	W12
	BYTE		N10     En1 
	BYTE	W12
	BYTE		        Gn1 
	BYTE	W12
	BYTE		        Cn2 
	BYTE	W12
	BYTE		        Bn1 
	BYTE	W12
	BYTE		        Gn1 
	BYTE	W12
	BYTE		        En1 
	BYTE	W12
// 029   ----------------------------------------
	BYTE		        Gn1 
	BYTE	W12
	BYTE		        Bn1 
	BYTE	W12
	BYTE		        Cn2 
	BYTE	W12
	BYTE		        Bn1 
	BYTE	W12
	BYTE		        Gn1 
	BYTE	W12
	BYTE		        En1 
	BYTE	W12
	BYTE		        Bn0 
	BYTE	W12
	BYTE		        En1 
	BYTE	W12
// 030   ----------------------------------------
	BYTE	W01
	BYTE		N10   
	BYTE	W11
	BYTE		        Gn1 
	BYTE	W12
	BYTE		        En1 
	BYTE	W12
	BYTE		        Gn1 
	BYTE	W12
	BYTE		        Cn2 
	BYTE	W12
	BYTE		N11     Bn1 
	BYTE	W12
	BYTE		N10     Gn1 
	BYTE	W12
	BYTE		        En1 
	BYTE	W12
// 031   ----------------------------------------
	BYTE		        Gn1 
	BYTE	W12
	BYTE		        Bn1 
	BYTE	W12
	BYTE		        Cn2 
	BYTE	W12
	BYTE		N11     Bn1 
	BYTE	W12
	BYTE		        Gn1 
	BYTE	W12
	BYTE		N10     En1 
	BYTE	W12
	BYTE		        Bn0 
	BYTE	W12
	BYTE		        En1 
	BYTE	W12
// 032   ----------------------------------------
	BYTE		        Gn1 
	BYTE	W12
	BYTE		N11     As1 
	BYTE	W12
	BYTE		N10     Gn1 
	BYTE	W12
	BYTE		N11     As1 
	BYTE	W12
	BYTE		N10     Ds2 
	BYTE	W12
	BYTE		        Dn2 
	BYTE	W12
	BYTE		        As1 
	BYTE	W12
	BYTE		N11     Gn1 
	BYTE	W12
// 033   ----------------------------------------
	BYTE		N10     As1 
	BYTE	W12
	BYTE		N11     Dn2 
	BYTE	W12
	BYTE		N10     Ds2 
	BYTE	W12
	BYTE		        Dn2 
	BYTE	W12
	BYTE		        As1 
	BYTE	W12
	BYTE		        Gn1 
	BYTE	W12
	BYTE		        Dn1 
	BYTE	W12
	BYTE		        Gn1 
	BYTE	W12
// 034   ----------------------------------------
	BYTE		N10   
	BYTE	W12
	BYTE		        As1 
	BYTE	W12
	BYTE		        Gn1 
	BYTE	W12
	BYTE		        As1 
	BYTE	W12
	BYTE		        Ds2 
	BYTE	W12
	BYTE		N11     Dn2 
	BYTE	W12
	BYTE		N10     As1 
	BYTE	W12
	BYTE		        Gn1 
	BYTE	W12
// 035   ----------------------------------------
	BYTE		        As1 
	BYTE	W12
	BYTE		        Dn2 
	BYTE	W12
	BYTE		        Ds2 
	BYTE	W12
	BYTE		        Dn2 
	BYTE	W12
	BYTE		        As1 
	BYTE	W12
	BYTE		N11     Gn1 
	BYTE	W12
	BYTE		N10     Dn1 
	BYTE	W12
	BYTE		        Gn1 
	BYTE	W12
// 036   ----------------------------------------
	BYTE	W01
	BYTE		        Dn1 
	BYTE	W11
	BYTE		        Fn1 
	BYTE	W12
	BYTE		        Dn1 
	BYTE	W12
	BYTE		N11     Fn1 
	BYTE	W12
	BYTE		N10     As1 
	BYTE	W12
	BYTE		N11     An1 
	BYTE	W12
	BYTE		N10     Fn1 
	BYTE	W12
	BYTE		        Dn1 
	BYTE	W12
// 037   ----------------------------------------
	BYTE		        Fn1 
	BYTE	W12
	BYTE		        An1 
	BYTE	W12
	BYTE		        As1 
	BYTE	W12
	BYTE		        An1 
	BYTE	W12
	BYTE		        Fn1 
	BYTE	W12
	BYTE		        Dn1 
	BYTE	W13
	BYTE		        An0 
	BYTE	W11
	BYTE		        Dn1 
	BYTE	W12
// 038   ----------------------------------------
	BYTE		N10   
	BYTE	W12
	BYTE		N11     Fn1 
	BYTE	W12
	BYTE		N10     Dn1 
	BYTE	W12
	BYTE		        Fn1 
	BYTE	W12
	BYTE		        As1 
	BYTE	W12
	BYTE		        An1 
	BYTE	W12
	BYTE		        Fn1 
	BYTE	W12
	BYTE		        Dn1 
	BYTE	W12
// 039   ----------------------------------------
	BYTE		        Fn1 
	BYTE	W12
	BYTE		N11     An1 
	BYTE	W12
	BYTE		N10     As1 
	BYTE	W12
	BYTE		        An1 
	BYTE	W12
	BYTE		        Fn1 
	BYTE	W12
	BYTE		N11     Dn1 
	BYTE	W12
	BYTE		N10     An0 
	BYTE	W12
	BYTE		        Dn1 
	BYTE	W12
// 040   ----------------------------------------
	BYTE		        Fn1 
	BYTE	W12
	BYTE		N10   
	BYTE	W12
	BYTE		N10   
	BYTE	W13
	BYTE		N10   
	BYTE	W11
	BYTE		N10   
	BYTE	W12
	BYTE		N10   
	BYTE	W13
	BYTE		N10   
	BYTE	W11
	BYTE		N10   
	BYTE	W12
// 041   ----------------------------------------
Jenova_2_041:
	BYTE		N10     Fn1   v112
	BYTE	W12
	BYTE		N10   
	BYTE	W13
	BYTE		N10   
	BYTE	W11
	BYTE		N10   
	BYTE	W12
	BYTE		N10   
	BYTE	W12
	BYTE		N10   
	BYTE	W12
	BYTE		N10   
	BYTE	W12
	BYTE		N10   
	BYTE	W12
	BYTE	PEND
// 042   ----------------------------------------
	BYTE	W01
	BYTE		N10   
	BYTE	W11
	BYTE		N10   
	BYTE	W12
	BYTE		N10   
	BYTE	W12
	BYTE		N10   
	BYTE	W12
	BYTE		N10   
	BYTE	W12
	BYTE		N10   
	BYTE	W13
	BYTE		N10   
	BYTE	W11
	BYTE		N10   
	BYTE	W12
// 043   ----------------------------------------
	BYTE		N10   
	BYTE	W12
	BYTE		N10   
	BYTE	W12
	BYTE		N10   
	BYTE	W12
	BYTE		N11   
	BYTE	W13
	BYTE		N10   
	BYTE	W11
	BYTE		N10   
	BYTE	W12
	BYTE		N10   
	BYTE	W12
	BYTE		N10   
	BYTE	W12
// 044   ----------------------------------------
	BYTE		N10   
	BYTE	W12
	BYTE		N10   
	BYTE	W12
	BYTE		N10   
	BYTE	W12
	BYTE		N10   
	BYTE	W13
	BYTE		N10   
	BYTE	W11
	BYTE		N11   
	BYTE	W13
	BYTE		N10   
	BYTE	W11
	BYTE		N10   
	BYTE	W12
// 045   ----------------------------------------
	BYTE	PATT
	 POIN2	Jenova_2_041
// 046   ----------------------------------------
	BYTE		N10     Fn1   v112
	BYTE	W12
	BYTE		N10   
	BYTE	W12
	BYTE		N10   
	BYTE	W12
	BYTE		N10   
	BYTE	W12
	BYTE		N10   
	BYTE	W12
	BYTE		N11   
	BYTE	W13
	BYTE		N10   
	BYTE	W11
	BYTE		N10   
	BYTE	W12
// 047   ----------------------------------------
	BYTE		N10   
	BYTE	W13
	BYTE		N10   
	BYTE	W12
	BYTE		N10   
	BYTE	W11
	BYTE		N10   
	BYTE	W13
	BYTE		N10   
	BYTE	W11
	BYTE		N10   
	BYTE	W12
	BYTE		N10   
	BYTE	W12
	BYTE		N10   
	BYTE	W12
// 048   ----------------------------------------
	BYTE	W01
	BYTE		        Cn1 
	BYTE	W12
	BYTE		        En1 
	BYTE	W11
	BYTE		        Cn1 
	BYTE	W12
	BYTE		        En1 
	BYTE	W13
	BYTE		        Gs1 
	BYTE	W11
	BYTE		        Gn1 
	BYTE	W12
	BYTE		        En1 
	BYTE	W12
	BYTE		        Cn1 
	BYTE	W12
// 049   ----------------------------------------
	BYTE		        En1 
	BYTE	W12
	BYTE		        Gn1 
	BYTE	W13
	BYTE		        Gs1 
	BYTE	W11
	BYTE		        Gn1 
	BYTE	W13
	BYTE		        En1 
	BYTE	W11
	BYTE		        Cn1 
	BYTE	W12
	BYTE		        Gn0 
	BYTE	W12
	BYTE		        Cn1 
	BYTE	W12
// 050   ----------------------------------------
	BYTE		N10   
	BYTE	W12
	BYTE		        En1 
	BYTE	W12
	BYTE		        Cn1 
	BYTE	W12
	BYTE		        En1 
	BYTE	W12
	BYTE		        Gs1 
	BYTE	W12
	BYTE		        Gn1 
	BYTE	W12
	BYTE		        En1 
	BYTE	W12
	BYTE		        Cn1 
	BYTE	W12
// 051   ----------------------------------------
	BYTE	W01
	BYTE		        En1 
	BYTE	W11
	BYTE		        Gn1 
	BYTE	W12
	BYTE		        Gs1 
	BYTE	W12
	BYTE		        Gn1 
	BYTE	W12
	BYTE		        En1 
	BYTE	W12
	BYTE		        Cn1 
	BYTE	W12
	BYTE		        Gn0 
	BYTE	W12
	BYTE		        Cn1 
	BYTE	W12
	BYTE	GoTo
	 POIN2	Jenova_2_B1
Jenova_2_B2:
// 052   ----------------------------------------
	BYTE	W01
	BYTE		N10     Dn1   v112
	BYTE	W12
	BYTE		        Fn1 
	BYTE	W11
	BYTE		        Dn1 
	BYTE	W12
	BYTE		        Fn1 
	BYTE	W12
	BYTE		        As1 
	BYTE	W12
	BYTE		        An1 
	BYTE	W12
	BYTE		        Fn1 
	BYTE	W12
	BYTE		        Dn1 
	BYTE	W12
// 053   ----------------------------------------
	BYTE	W01
	BYTE		        Fn1 
	BYTE	W11
	BYTE		        An1 
	BYTE	W12
	BYTE		        As1 
	BYTE	W12
	BYTE		        An1 
	BYTE	W12
	BYTE		        Fn1 
	BYTE	W12
	BYTE		        Dn1 
	BYTE	W12
	BYTE		        As0 
	BYTE	W12
	BYTE		        Dn1 
	BYTE	W12
// 054   ----------------------------------------
	BYTE	FINE

//**************** Track 3 (Midi-Chn.3) ****************//

Jenova_3:
	BYTE	KEYSH   Jenova_key+0
// 000   ----------------------------------------
	BYTE		VOICE   48
	BYTE		VOL     25*Jenova_mvl/mxv
	BYTE		PAN     c_v-17
	BYTE		BEND    c_v+0
	BYTE	W01
	BYTE		TIE     Dn3   v112
	BYTE		TIE     Fn3 
	BYTE		TIE     Gs3 
	BYTE	W92
	BYTE	W03
// 001   ----------------------------------------
	BYTE	W92
	BYTE	W02
	BYTE		EOT     Dn3 
	BYTE		        Fn3 
	BYTE	W01
	BYTE		        Gs3 
	BYTE	W01
// 002   ----------------------------------------
	BYTE	W01
	BYTE		N03     Dn3 
	BYTE		N03     Fn3 
	BYTE		N03     An3 
	BYTE	W05
	BYTE		N04     Dn3 
	BYTE		N05     Fn3 
	BYTE		N04     An3 
	BYTE	W07
	BYTE		N03     Dn3 
	BYTE		N03     Fn3 
	BYTE		N03     An3 
	BYTE	W06
	BYTE		N04     Dn3 
	BYTE		N04     Fn3 
	BYTE		N04     An3 
	BYTE	W06
	BYTE		N03     Dn3 
	BYTE		N04     Fn3 
	BYTE		N03     An3 
	BYTE	W68
	BYTE	W03
// 003   ----------------------------------------
	BYTE	W96
// 004   ----------------------------------------
	BYTE	W01
	BYTE		TIE     Dn3 
	BYTE		TIE     Fn3 
	BYTE		TIE     Gs3 
	BYTE	W92
	BYTE	W03
// 005   ----------------------------------------
	BYTE	W01
	BYTE		N92     Dn4 
	BYTE	W92
	BYTE	W02
	BYTE		EOT     Dn3 
	BYTE		        Fn3 
	BYTE		        Gs3 
	BYTE	W01
// 006   ----------------------------------------
	BYTE	W01
	BYTE		N03     Dn3 
	BYTE		N03     Fn3 
	BYTE		N03     An3 
	BYTE	W05
	BYTE		N04     Fn3 
	BYTE	W01
	BYTE		        Dn3 
	BYTE		N04     An3 
	BYTE	W06
	BYTE		        Dn3 
	BYTE		N04     Fn3 
	BYTE		N03     An3 
	BYTE	W05
	BYTE		N04     Dn3 
	BYTE		N04     Fn3 
	BYTE	W01
	BYTE		        An3 
	BYTE	W06
	BYTE		N03     Dn3 
	BYTE		N03     Fn3 
	BYTE		N04     An3 
	BYTE	W36
	BYTE		N03     Fn3 
	BYTE		N03     An3 
	BYTE	W05
	BYTE		N04     Fn3 
	BYTE		N04     An3 
	BYTE	W07
	BYTE		N03     Fn3 
	BYTE		N03     An3 
	BYTE	W05
	BYTE		N04     Fn3 
	BYTE	W01
	BYTE		        An3 
	BYTE	W06
	BYTE		        Fn3 
	BYTE		N04     An3 
	BYTE	W11
// 007   ----------------------------------------
	BYTE	W13
	BYTE		N03     Fn3 
	BYTE		N04     An3 
	BYTE	W05
	BYTE		        Fn3 
	BYTE		N04     An3 
	BYTE	W07
	BYTE		        Fn3 
	BYTE		N03     An3 
	BYTE	W05
	BYTE		N04     Fn3 
	BYTE		N04     An3 
	BYTE	W07
	BYTE		        Fn3 
	BYTE		N04     An3 
	BYTE	W12
	BYTE		        Fn3 
	BYTE		N03     An3 
	BYTE	W05
	BYTE		N04     Fn3 
	BYTE		N04     An3 
	BYTE	W07
	BYTE		        Fn3 
	BYTE		N04     An3 
	BYTE	W05
	BYTE		        Fn3 
	BYTE		N04     An3 
	BYTE	W07
	BYTE		N03     Fn3 
	BYTE		N04     An3 
	BYTE	W23
Jenova_3_B1:
// 008   ----------------------------------------
	BYTE	W01
	BYTE		N07     Dn4   v112
	BYTE		N07     Fn4 
	BYTE	W11
	BYTE		N05     En4 
	BYTE	W01
	BYTE		        Cn4 
	BYTE	W12
	BYTE		N08     Dn4 
	BYTE		N08     Fn4 
	BYTE	W11
	BYTE		N05     Cn4 
	BYTE	W01
	BYTE		        En4 
	BYTE	W12
	BYTE		N10     As3 
	BYTE		N10     Dn4 
	BYTE	W11
	BYTE		N05     An3 
	BYTE	W01
	BYTE		        Cn4 
	BYTE	W12
	BYTE		N10     As3 
	BYTE		N10     Dn4 
	BYTE	W12
	BYTE		N05     An3 
	BYTE		N05     Cn4 
	BYTE	W11
// 009   ----------------------------------------
	BYTE	W01
	BYTE		N08     Dn4 
	BYTE		N08     Fn4 
	BYTE	W11
	BYTE		N05     En4 
	BYTE	W01
	BYTE		        Cn4 
	BYTE	W12
	BYTE		N08     Dn4 
	BYTE		N08     Fn4 
	BYTE	W12
	BYTE		N05     Cn4 
	BYTE		N05     En4 
	BYTE	W12
	BYTE		N10     As3 
	BYTE		N10     Dn4 
	BYTE	W12
	BYTE		N05     An3 
	BYTE		N05     Cn4 
	BYTE	W12
	BYTE		N10     As3 
	BYTE		N10     Dn4 
	BYTE	W11
	BYTE		N05     An3 
	BYTE		N05     Cn4 
	BYTE	W12
// 010   ----------------------------------------
	BYTE	W01
	BYTE		N07     Dn4 
	BYTE		N07     Fn4 
	BYTE	W11
	BYTE		N05     En4 
	BYTE	W01
	BYTE		        Cn4 
	BYTE	W12
	BYTE		N08     Dn4 
	BYTE		N08     Fn4 
	BYTE	W12
	BYTE		N05     Cn4 
	BYTE		N05     En4 
	BYTE	W12
	BYTE		N10     As3 
	BYTE		N10     Dn4 
	BYTE	W11
	BYTE		N05     An3 
	BYTE	W01
	BYTE		        Cn4 
	BYTE	W12
	BYTE		N10     As3 
	BYTE		N10     Dn4 
	BYTE	W11
	BYTE		N05     Cn4 
	BYTE	W01
	BYTE		        An3 
	BYTE	W11
// 011   ----------------------------------------
	BYTE	W01
	BYTE		N08     Dn4 
	BYTE		N08     Fn4 
	BYTE	W11
	BYTE		N05     En4 
	BYTE	W01
	BYTE		        Cn4 
	BYTE	W12
	BYTE		N07     Dn4 
	BYTE		N08     Fn4 
	BYTE	W11
	BYTE		N05     Cn4 
	BYTE	W01
	BYTE		        En4 
	BYTE	W12
	BYTE		N10     As3 
	BYTE		N10     Dn4 
	BYTE	W11
	BYTE		N05     An3 
	BYTE	W01
	BYTE		        Cn4 
	BYTE	W12
	BYTE		N10     As3 
	BYTE		N10     Dn4 
	BYTE	W11
	BYTE		N05     Cn4 
	BYTE	W01
	BYTE		        An3 
	BYTE	W11
// 012   ----------------------------------------
	BYTE	W01
	BYTE		N08     Dn4 
	BYTE		N08     Fn4 
	BYTE	W12
	BYTE		N05     Cn4 
	BYTE		N05     En4 
	BYTE	W12
	BYTE		N07     Dn4 
	BYTE		N08     Fn4 
	BYTE	W12
	BYTE		N05     Cn4 
	BYTE		N05     En4 
	BYTE	W12
	BYTE		N09     As3 
	BYTE		N09     Dn4 
	BYTE	W11
	BYTE		N05     An3 
	BYTE	W01
	BYTE		        Cn4 
	BYTE	W12
	BYTE		N10     As3 
	BYTE		N10     Dn4 
	BYTE	W12
	BYTE		N05     An3 
	BYTE		N05     Cn4 
	BYTE	W11
// 013   ----------------------------------------
	BYTE	W01
	BYTE		N07     Dn4 
	BYTE		N08     Fn4 
	BYTE	W12
	BYTE		N05     Cn4 
	BYTE		N05     En4 
	BYTE	W12
	BYTE		N07     Dn4 
	BYTE		N07     Fn4 
	BYTE	W12
	BYTE		N05     Cn4 
	BYTE		N05     En4 
	BYTE	W12
	BYTE		N10     As3 
	BYTE		N10     Dn4 
	BYTE	W12
	BYTE		N05     An3 
	BYTE		N05     Cn4 
	BYTE	W12
	BYTE		N09     As3 
	BYTE		N09     Dn4 
	BYTE	W12
	BYTE		N05     An3 
	BYTE		N05     Cn4 
	BYTE	W11
// 014   ----------------------------------------
	BYTE	W01
	BYTE		N08     Dn4 
	BYTE		N08     Fn4 
	BYTE	W11
	BYTE		N05     En4 
	BYTE	W01
	BYTE		        Cn4 
	BYTE	W12
	BYTE		N08     Dn4 
	BYTE		N08     Fn4 
	BYTE	W11
	BYTE		N05     Cn4 
	BYTE	W01
	BYTE		        En4 
	BYTE	W12
	BYTE		N10     Fn4 
	BYTE		N10     An4 
	BYTE	W11
	BYTE		N05     Gn4 
	BYTE	W01
	BYTE		        En4 
	BYTE	W12
	BYTE		N10     Fn4 
	BYTE		N10     An4 
	BYTE	W11
	BYTE		N05     En4 
	BYTE	W01
	BYTE		        Gn4 
	BYTE	W11
// 015   ----------------------------------------
	BYTE	W01
	BYTE		N08     Dn4 
	BYTE		N08     Fn4 
	BYTE	W11
	BYTE		N05     En4 
	BYTE	W01
	BYTE		        Cn4 
	BYTE	W12
	BYTE		N08     Dn4 
	BYTE		N08     Fn4 
	BYTE	W11
	BYTE		N05     Cn4 
	BYTE	W01
	BYTE		        En4 
	BYTE	W12
	BYTE		N10     As3 
	BYTE		N10     Dn4 
	BYTE	W12
	BYTE		N05     An3 
	BYTE		N05     Cn4 
	BYTE	W12
	BYTE		N10     As3 
	BYTE		N10     Dn4 
	BYTE	W11
	BYTE		N05     Cn4 
	BYTE	W01
	BYTE		        An3 
	BYTE	W11
// 016   ----------------------------------------
	BYTE	W01
	BYTE		N10     Gs3 
	BYTE		N10     Cn4 
	BYTE	W12
	BYTE		N05     Gn3 
	BYTE		N05     As3 
	BYTE	W12
	BYTE		N10     Gs3 
	BYTE		N10     Cn4 
	BYTE	W12
	BYTE		N05     Gn3 
	BYTE		N05     As3 
	BYTE	W12
	BYTE		N10     Fn3 
	BYTE		N10     Gs3 
	BYTE	W11
	BYTE		N05     Ds3 
	BYTE		N05     Gn3 
	BYTE	W13
	BYTE		N10     Fn3 
	BYTE		N10     Gs3 
	BYTE	W11
	BYTE		N05     Ds3 
	BYTE	W01
	BYTE		        Gn3 
	BYTE	W11
// 017   ----------------------------------------
	BYTE	W01
	BYTE		N10     Gs3 
	BYTE		N10     Cn4 
	BYTE	W11
	BYTE		N05     As3 
	BYTE	W01
	BYTE		        Gn3 
	BYTE	W12
	BYTE		N10     Gs3 
	BYTE		N10     Cn4 
	BYTE	W11
	BYTE		N05     As3 
	BYTE	W01
	BYTE		        Gn3 
	BYTE	W12
	BYTE		N10     Fn3 
	BYTE		N10     Gs3 
	BYTE	W11
	BYTE		N05     Ds3 
	BYTE	W01
	BYTE		        Gn3 
	BYTE	W11
	BYTE		N10     Gs3 
	BYTE	W01
	BYTE		        Fn3 
	BYTE	W12
	BYTE		N05     Ds3 
	BYTE		N05     Gn3 
	BYTE	W11
// 018   ----------------------------------------
	BYTE	W01
	BYTE		N10     Gs3 
	BYTE		N10     Cn4 
	BYTE	W12
	BYTE		N05     Gn3 
	BYTE		N05     As3 
	BYTE	W12
	BYTE		N10     Gs3 
	BYTE		N10     Cn4 
	BYTE	W11
	BYTE		N05     As3 
	BYTE	W01
	BYTE		        Gn3 
	BYTE	W12
	BYTE		N10     Fn3 
	BYTE		N10     Gs3 
	BYTE	W11
	BYTE		N05     Ds3 
	BYTE	W01
	BYTE		        Gn3 
	BYTE	W12
	BYTE		N10     Fn3 
	BYTE		N10     Gs3 
	BYTE	W12
	BYTE		N05     Ds3 
	BYTE		N05     Gn3 
	BYTE	W11
// 019   ----------------------------------------
	BYTE	W01
	BYTE		N10     Gs3 
	BYTE		N10     Cn4 
	BYTE	W11
	BYTE		N05     As3 
	BYTE	W01
	BYTE		        Gn3 
	BYTE	W12
	BYTE		N10     Gs3 
	BYTE		N10     Cn4 
	BYTE	W11
	BYTE		N05     As3 
	BYTE	W01
	BYTE		        Gn3 
	BYTE	W12
	BYTE		N10     Fn3 
	BYTE		N10     Gs3 
	BYTE	W11
	BYTE		N05     Ds3 
	BYTE	W01
	BYTE		        Gn3 
	BYTE	W12
	BYTE		N10     Fn3 
	BYTE		N10     Gs3 
	BYTE	W11
	BYTE		N05     Ds3 
	BYTE		N05     Gn3 
	BYTE	W12
// 020   ----------------------------------------
	BYTE	W01
	BYTE		N09     Gs3 
	BYTE		N10     Cn4 
	BYTE	W12
	BYTE		N05     Gn3 
	BYTE		N05     As3 
	BYTE	W12
	BYTE		N10     Gs3 
	BYTE		N10     Cn4 
	BYTE	W12
	BYTE		N05     Gn3 
	BYTE		N05     As3 
	BYTE	W12
	BYTE		N10     Fn3 
	BYTE		N10     Gs3 
	BYTE	W12
	BYTE		N05     Ds3 
	BYTE		N05     Gn3 
	BYTE	W12
	BYTE		N10     Fn3 
	BYTE		N10     Gs3 
	BYTE	W11
	BYTE		N05     Ds3 
	BYTE	W01
	BYTE		        Gn3 
	BYTE	W11
// 021   ----------------------------------------
	BYTE	W01
	BYTE		N10     Gs3 
	BYTE		N10     Cn4 
	BYTE	W12
	BYTE		N05     Gn3 
	BYTE		N05     As3 
	BYTE	W12
	BYTE		N09     Gs3 
	BYTE		N10     Cn4 
	BYTE	W12
	BYTE		N05     Gn3 
	BYTE		N05     As3 
	BYTE	W12
	BYTE		N10     Fn3 
	BYTE		N09     Gs3 
	BYTE	W12
	BYTE		N06     Ds3 
	BYTE		N05     Gn3 
	BYTE	W12
	BYTE		N09     Fn3 
	BYTE		N09     Gs3 
	BYTE	W11
	BYTE		N05     Ds3 
	BYTE	W01
	BYTE		        Gn3 
	BYTE	W11
// 022   ----------------------------------------
	BYTE	W01
	BYTE		        Gs3 
	BYTE		N05     Cn4 
	BYTE	W11
	BYTE		        As3 
	BYTE	W01
	BYTE		        Gn3 
	BYTE	W12
	BYTE		        Gs3 
	BYTE		N05     Cn4 
	BYTE	W11
	BYTE		N10     Gn4 
	BYTE	W01
	BYTE		        Ds4 
	BYTE	W12
	BYTE		N05     Dn4 
	BYTE		N05     Fn4 
	BYTE	W11
	BYTE		        Ds4 
	BYTE	W01
	BYTE		        Gn4 
	BYTE	W12
	BYTE		N10   
	BYTE		N10     As4 
	BYTE	W11
	BYTE		N05     Fn4 
	BYTE	W01
	BYTE		        Gs4 
	BYTE	W11
// 023   ----------------------------------------
	BYTE	W01
	BYTE		        Gn4 
	BYTE		N05     As4 
	BYTE	W11
	BYTE		N10     Ds4 
	BYTE	W01
	BYTE		        Gn4 
	BYTE	W12
	BYTE		N05     Dn4 
	BYTE		N05     Fn4 
	BYTE	W11
	BYTE		        Ds4 
	BYTE	W01
	BYTE		        Gn4 
	BYTE	W12
	BYTE		N10     Cn4 
	BYTE		N10     Ds4 
	BYTE	W12
	BYTE		N05     As3 
	BYTE		N05     Dn4 
	BYTE	W12
	BYTE		N10     Cn4 
	BYTE		N10     Ds4 
	BYTE	W11
	BYTE		N08     As3 
	BYTE	W01
	BYTE		        Dn4 
	BYTE	W11
// 024   ----------------------------------------
	BYTE	W01
	BYTE		N54     An2 
	BYTE		TIE     En3 
	BYTE		TIE     An3 
	BYTE		TIE     Cn4 
	BYTE	W68
	BYTE	W03
	BYTE		N18     Bn2 
	BYTE	W24
// 025   ----------------------------------------
	BYTE		N72     Cn3 
	BYTE	W96
// 026   ----------------------------------------
	BYTE	W92
	BYTE	W01
	BYTE		EOT     En3 
	BYTE	W01
	BYTE		        An3 
	BYTE		        Cn4 
	BYTE	W02
// 027   ----------------------------------------
	BYTE	W96
// 028   ----------------------------------------
	BYTE		TIE     Gn3 
	BYTE		TIE     En4 
	BYTE	W01
	BYTE		        En3 
	BYTE	W92
	BYTE	W03
// 029   ----------------------------------------
	BYTE	W96
// 030   ----------------------------------------
	BYTE	W96
// 031   ----------------------------------------
	BYTE	W92
	BYTE	W01
	BYTE		EOT     Gn3 
	BYTE		        En4 
	BYTE	W01
	BYTE		        En3 
	BYTE	W02
// 032   ----------------------------------------
	BYTE		TIE     Dn3 
	BYTE		TIE     As3 
	BYTE	W96
// 033   ----------------------------------------
	BYTE	W96
// 034   ----------------------------------------
	BYTE	W96
// 035   ----------------------------------------
	BYTE	W92
	BYTE	W01
	BYTE		EOT     Dn3 
	BYTE		        As3 
	BYTE	W03
// 036   ----------------------------------------
	BYTE	W01
	BYTE		TIE     Dn2 
	BYTE		TIE     Fn3 
	BYTE		TIE     An3 
	BYTE		TIE     Dn4 
	BYTE	W92
	BYTE	W03
// 037   ----------------------------------------
	BYTE	W96
// 038   ----------------------------------------
	BYTE	W96
// 039   ----------------------------------------
	BYTE	W92
	BYTE	W01
	BYTE		EOT     Fn3 
	BYTE		        Dn4 
	BYTE	W01
	BYTE		        Dn2 
	BYTE		        An3 
	BYTE	W02
// 040   ----------------------------------------
	BYTE	W01
	BYTE		N92     Cn3 
	BYTE		N92     Fn3 
	BYTE		N92     An3 
	BYTE	W92
	BYTE	W03
// 041   ----------------------------------------
	BYTE	W01
	BYTE		        Fn3 
	BYTE		N92     An3 
	BYTE		N92     Cn4 
	BYTE	W92
	BYTE	W03
// 042   ----------------------------------------
	BYTE	W01
	BYTE		        Dn3 
	BYTE		N92     Gn3 
	BYTE		N92     Bn3 
	BYTE	W92
	BYTE	W03
// 043   ----------------------------------------
	BYTE		N92   
	BYTE	W01
	BYTE		        Gn3 
	BYTE		N92     Dn4 
	BYTE	W92
	BYTE	W03
// 044   ----------------------------------------
	BYTE	W01
	BYTE		TIE     Gs3 
	BYTE		TIE     Cn4 
	BYTE		TIE     Ds4 
	BYTE	W92
	BYTE	W03
// 045   ----------------------------------------
	BYTE	W92
	BYTE	W03
	BYTE		EOT     Gs3 
	BYTE		        Cn4 
	BYTE		        Ds4 
	BYTE	W01
// 046   ----------------------------------------
	BYTE	W01
	BYTE		TIE     As3 
	BYTE		TIE     Dn4 
	BYTE		TIE     Fn4 
	BYTE	W92
	BYTE	W03
// 047   ----------------------------------------
	BYTE	W92
	BYTE	W03
	BYTE		EOT     As3 
	BYTE		        Dn4 
	BYTE		        Fn4 
	BYTE	W01
// 048   ----------------------------------------
	BYTE	W01
	BYTE		N10     Cn4 
	BYTE		N10     En4 
	BYTE	W12
	BYTE		N05     As3 
	BYTE		N05     Dn4 
	BYTE	W12
	BYTE		N10     Cn4 
	BYTE		N10     En4 
	BYTE	W12
	BYTE		N05     As3 
	BYTE		N05     Dn4 
	BYTE	W12
	BYTE		N10     Gs3 
	BYTE		N10     Cn4 
	BYTE	W11
	BYTE		N05     Gn3 
	BYTE	W01
	BYTE		        As3 
	BYTE	W12
	BYTE		N10     Gs3 
	BYTE		N10     Cn4 
	BYTE	W11
	BYTE		N05     Gn3 
	BYTE	W01
	BYTE		        As3 
	BYTE	W11
// 049   ----------------------------------------
	BYTE	W01
	BYTE		N10     Cn4 
	BYTE		N10     En4 
	BYTE	W12
	BYTE		N05     As3 
	BYTE		N05     Dn4 
	BYTE	W12
	BYTE		N10     Cn4 
	BYTE		N10     En4 
	BYTE	W11
	BYTE		N05     As3 
	BYTE		N05     Dn4 
	BYTE	W13
	BYTE		N10     Gs3 
	BYTE		N10     Cn4 
	BYTE	W11
	BYTE		N05     Gn3 
	BYTE	W01
	BYTE		        As3 
	BYTE	W12
	BYTE		N10     Gs3 
	BYTE		N10     Cn4 
	BYTE	W12
	BYTE		N05     Gn3 
	BYTE		N05     As3 
	BYTE	W11
// 050   ----------------------------------------
	BYTE	W01
	BYTE		N10     Cn4 
	BYTE		N10     En4 
	BYTE	W12
	BYTE		N05     As3 
	BYTE		N05     Dn4 
	BYTE	W12
	BYTE		N10     Cn4 
	BYTE		N10     En4 
	BYTE	W11
	BYTE		N05     As3 
	BYTE	W01
	BYTE		        Dn4 
	BYTE	W12
	BYTE		N10     Gs3 
	BYTE		N10     Cn4 
	BYTE	W11
	BYTE		N05     Gn3 
	BYTE	W01
	BYTE		        As3 
	BYTE	W12
	BYTE		N10     Gs3 
	BYTE		N10     Cn4 
	BYTE	W12
	BYTE		N05     Gn3 
	BYTE		N05     As3 
	BYTE	W11
// 051   ----------------------------------------
	BYTE	W01
	BYTE		N10     Cn4 
	BYTE		N10     En4 
	BYTE	W11
	BYTE		N05     As3 
	BYTE		N05     Dn4 
	BYTE	W13
	BYTE		N10     Cn4 
	BYTE		N10     En4 
	BYTE	W11
	BYTE		N05     As3 
	BYTE	W01
	BYTE		        Dn4 
	BYTE	W11
	BYTE		N10     Gs3 
	BYTE	W01
	BYTE		        Cn4 
	BYTE	W12
	BYTE		N05     Gn3 
	BYTE		N05     As3 
	BYTE	W12
	BYTE		N10     Gs3 
	BYTE		N10     Cn4 
	BYTE	W11
	BYTE		N05     Gn3 
	BYTE	W01
	BYTE		        As3 
	BYTE	W11
	BYTE	GoTo
	 POIN2	Jenova_3_B1
Jenova_3_B2:
// 052   ----------------------------------------
	BYTE	W01
	BYTE		N07     Dn4   v112
	BYTE		N08     Fn4 
	BYTE	W12
	BYTE		N05     Cn4 
	BYTE		N05     En4 
	BYTE	W12
	BYTE		N08     Dn4 
	BYTE		N08     Fn4 
	BYTE	W11
	BYTE		N05     Cn4 
	BYTE	W01
	BYTE		        En4 
	BYTE	W12
	BYTE		N10     As3 
	BYTE		N10     Dn4 
	BYTE	W12
	BYTE		N05     An3 
	BYTE		N05     Cn4 
	BYTE	W12
	BYTE		N10     As3 
	BYTE		N10     Dn4 
	BYTE	W11
	BYTE		N05     Cn4 
	BYTE	W01
	BYTE		        An3 
	BYTE	W11
// 053   ----------------------------------------
	BYTE	W01
	BYTE		N08     Dn4 
	BYTE		N08     Fn4 
	BYTE	W11
	BYTE		N05     En4 
	BYTE	W01
	BYTE		        Cn4 
	BYTE	W12
	BYTE		N08     Dn4 
	BYTE		N08     Fn4 
	BYTE	W11
	BYTE		N05     Cn4 
	BYTE	W01
	BYTE		        En4 
	BYTE	W12
	BYTE		N10     As3 
	BYTE		N10     Dn4 
	BYTE	W11
	BYTE		N05     An3 
	BYTE	W01
	BYTE		        Cn4 
	BYTE	W12
	BYTE		N10     As3 
	BYTE		N10     Dn4 
	BYTE	W11
	BYTE		N05     Cn4 
	BYTE	W01
	BYTE		        An3 
	BYTE	W11
// 054   ----------------------------------------
	BYTE	FINE

//**************** Track 4 (Midi-Chn.4) ****************//

Jenova_4:
	BYTE	KEYSH   Jenova_key+0
// 000   ----------------------------------------
	BYTE		VOICE   57
	BYTE		VOL     38*Jenova_mvl/mxv
	BYTE		PAN     c_v+39
	BYTE		BEND    c_v+0
	BYTE	W96
// 001   ----------------------------------------
	BYTE	W96
// 002   ----------------------------------------
	BYTE	W01
	BYTE		N01     An3   v112
	BYTE	W01
	BYTE		        Fn3 
	BYTE	W04
	BYTE		N02   
	BYTE	W01
	BYTE		        An3 
	BYTE	W06
	BYTE		N01     Fn3 
	BYTE	W01
	BYTE		        An3 
	BYTE	W05
	BYTE		        Fn3 
	BYTE		N01     An3 
	BYTE	W06
	BYTE		        Fn3 
	BYTE	W01
	BYTE		        An3 
	BYTE	W68
	BYTE	W02
// 003   ----------------------------------------
	BYTE	W96
// 004   ----------------------------------------
	BYTE	W96
// 005   ----------------------------------------
	BYTE	W96
// 006   ----------------------------------------
	BYTE	W01
	BYTE		        Fn3 
	BYTE		N01     An3 
	BYTE	W06
	BYTE		        Fn3 
	BYTE		N01     An3 
	BYTE	W06
	BYTE		        Fn3 
	BYTE		N01     An3 
	BYTE	W06
	BYTE		        Fn3 
	BYTE		N01     An3 
	BYTE	W06
	BYTE		        Fn3 
	BYTE		N01     An3 
	BYTE	W36
	BYTE		        Fn3 
	BYTE		N01     An3 
	BYTE	W05
	BYTE		N02     Fn3 
	BYTE	W01
	BYTE		        An3 
	BYTE	W06
	BYTE		N01   
	BYTE	W01
	BYTE		        Fn3 
	BYTE	W05
	BYTE		N02   
	BYTE		N01     An3 
	BYTE	W06
	BYTE		N02     Fn3 
	BYTE		N02     An3 
	BYTE	W11
// 007   ----------------------------------------
	BYTE	W13
	BYTE		N01     Fn3 
	BYTE		N01     An3 
	BYTE	W06
	BYTE		N02     Fn3 
	BYTE		N02     An3 
	BYTE	W06
	BYTE		N01     Fn3 
	BYTE		N01     An3 
	BYTE	W06
	BYTE		N02     Fn3 
	BYTE		N02     An3 
	BYTE	W06
	BYTE		        Fn3 
	BYTE		N02     An3 
	BYTE	W12
	BYTE		N01     Fn3 
	BYTE		N01     An3 
	BYTE	W05
	BYTE		N02     Fn3 
	BYTE	W01
	BYTE		        An3 
	BYTE	W06
	BYTE		        Fn3 
	BYTE		N02     An3 
	BYTE	W06
	BYTE		        Fn3 
	BYTE		N01     An3 
	BYTE	W06
	BYTE		        Fn3 
	BYTE		N01     An3 
	BYTE	W23
Jenova_4_B1:
// 008   ----------------------------------------
	BYTE	W96
// 009   ----------------------------------------
	BYTE	W96
// 010   ----------------------------------------
	BYTE	W96
// 011   ----------------------------------------
	BYTE	W96
// 012   ----------------------------------------
	BYTE	W01
	BYTE		N01     Fn3   v112
	BYTE		N01     An3 
	BYTE	W05
	BYTE		N02     Fn3 
	BYTE		N03     An3 
	BYTE	W07
	BYTE		N02     Fn3 
	BYTE		N02     An3 
	BYTE	W24
	BYTE		        Fn3 
	BYTE		N01     An3 
	BYTE	W05
	BYTE		N02     Fn3 
	BYTE	W01
	BYTE		        An3 
	BYTE	W07
	BYTE		N01     Fn3 
	BYTE		N01     An3 
	BYTE	W44
	BYTE	W02
// 013   ----------------------------------------
	BYTE	W13
	BYTE		        Fn3 
	BYTE	W01
	BYTE		        An3 
	BYTE	W04
	BYTE		N02     Fn3 
	BYTE	W01
	BYTE		        An3 
	BYTE	W07
	BYTE		N01     Fn3 
	BYTE		N01     An3 
	BYTE	W04
	BYTE		N03     Fn3 
	BYTE		N02     An3 
	BYTE	W07
	BYTE		        Fn3 
	BYTE		N02     An3 
	BYTE	W12
	BYTE		N01     Fn3 
	BYTE		N01     An3 
	BYTE	W05
	BYTE		N02     Fn3 
	BYTE	W01
	BYTE		        An3 
	BYTE	W06
	BYTE		N01     Fn3 
	BYTE	W01
	BYTE		        An3 
	BYTE	W04
	BYTE		N02     Fn3 
	BYTE		N02     An3 
	BYTE	W07
	BYTE		N01     Fn3 
	BYTE	W01
	BYTE		        An3 
	BYTE	W22
// 014   ----------------------------------------
	BYTE	W96
// 015   ----------------------------------------
	BYTE	W96
// 016   ----------------------------------------
	BYTE	W96
// 017   ----------------------------------------
	BYTE	W96
// 018   ----------------------------------------
	BYTE	W96
// 019   ----------------------------------------
	BYTE	W96
// 020   ----------------------------------------
	BYTE	W01
	BYTE		        Fn3 
	BYTE		N01     Gs3 
	BYTE	W05
	BYTE		N02     Fn3 
	BYTE		N02     Gs3 
	BYTE	W07
	BYTE		        Fn3 
	BYTE		N02     Gs3 
	BYTE	W24
	BYTE		        Fn3 
	BYTE		N02     Gs3 
	BYTE	W05
	BYTE		        Fn3 
	BYTE	W01
	BYTE		        Gs3 
	BYTE	W06
	BYTE		N01     Fn3 
	BYTE		N01     Gs3 
	BYTE	W44
	BYTE	W03
// 021   ----------------------------------------
	BYTE	W13
	BYTE		N02     Fn3 
	BYTE		N02     Gs3 
	BYTE	W05
	BYTE		        Fn3 
	BYTE	W01
	BYTE		        Gs3 
	BYTE	W06
	BYTE		N01     Fn3 
	BYTE		N01     Gs3 
	BYTE	W05
	BYTE		N03     Fn3 
	BYTE		N02     Gs3 
	BYTE	W07
	BYTE		        Fn3 
	BYTE		N02     Gs3 
	BYTE	W12
	BYTE		N01     Fn3 
	BYTE		N01     Gs3 
	BYTE	W05
	BYTE		N02     Fn3 
	BYTE		N02     Gs3 
	BYTE	W07
	BYTE		N01     Fn3 
	BYTE		N01     Gs3 
	BYTE	W06
	BYTE		N02     Fn3 
	BYTE		N02     Gs3 
	BYTE	W07
	BYTE		N01     Fn3 
	BYTE		N01     Gs3 
	BYTE	W22
// 022   ----------------------------------------
	BYTE	W96
// 023   ----------------------------------------
	BYTE	W96
// 024   ----------------------------------------
	BYTE	W96
// 025   ----------------------------------------
	BYTE	W72
	BYTE		N03     An3 
	BYTE	W01
	BYTE		        An2 
	BYTE	W05
	BYTE		        Bn2 
	BYTE		N03     Bn3 
	BYTE	W06
	BYTE		        Cn4 
	BYTE	W01
	BYTE		        Cn3 
	BYTE	W05
	BYTE		        Dn4 
	BYTE	W01
	BYTE		        Dn3 
	BYTE	W05
// 026   ----------------------------------------
	BYTE	W01
	BYTE		TIE     En3 
	BYTE		TIE     En4 
	BYTE	W92
	BYTE	W03
// 027   ----------------------------------------
	BYTE	W92
	BYTE	W02
	BYTE		EOT     En3 
	BYTE		        En4 
	BYTE	W02
// 028   ----------------------------------------
	BYTE	W96
// 029   ----------------------------------------
	BYTE	W72
	BYTE		N03     En3 
	BYTE	W01
	BYTE		        En2 
	BYTE	W05
	BYTE		        Fs2 
	BYTE		N04     Fs3 
	BYTE	W06
	BYTE		N03     Gn3 
	BYTE	W01
	BYTE		        Gn2 
	BYTE	W05
	BYTE		        An2 
	BYTE		N03     An3 
	BYTE	W06
// 030   ----------------------------------------
	BYTE	W01
	BYTE		TIE     Bn2 
	BYTE		TIE     Bn3 
	BYTE	W92
	BYTE	W03
// 031   ----------------------------------------
	BYTE	W92
	BYTE	W03
	BYTE		EOT     Bn2 
	BYTE		        Bn3 
	BYTE	W01
// 032   ----------------------------------------
	BYTE	W96
// 033   ----------------------------------------
	BYTE	W72
	BYTE		N03     Gn3 
	BYTE	W01
	BYTE		        Gn2 
	BYTE	W05
	BYTE		        An2 
	BYTE		N03     An3 
	BYTE	W06
	BYTE		        As3 
	BYTE	W01
	BYTE		        As2 
	BYTE	W05
	BYTE		        Cn3 
	BYTE		N03     Cn4 
	BYTE	W06
// 034   ----------------------------------------
	BYTE	W01
	BYTE		TIE     Dn3 
	BYTE		TIE     Dn4 
	BYTE	W92
	BYTE	W03
// 035   ----------------------------------------
	BYTE	W92
	BYTE	W03
	BYTE		EOT     Dn3 
	BYTE		        Dn4 
	BYTE	W01
// 036   ----------------------------------------
	BYTE	W96
// 037   ----------------------------------------
	BYTE	W72
	BYTE	W01
	BYTE		N02     Dn2 
	BYTE		N03     Dn3 
	BYTE	W05
	BYTE		        En2 
	BYTE		N03     En3 
	BYTE	W06
	BYTE		        Fn2 
	BYTE	W01
	BYTE		        Fn3 
	BYTE	W05
	BYTE		        Gn2 
	BYTE		N03     Gn3 
	BYTE	W06
// 038   ----------------------------------------
	BYTE	W01
	BYTE		TIE     An2 
	BYTE		TIE     An3 
	BYTE	W92
	BYTE	W03
// 039   ----------------------------------------
	BYTE	W92
	BYTE	W03
	BYTE		EOT     An2 
	BYTE		        An3 
	BYTE	W01
// 040   ----------------------------------------
	BYTE	W96
// 041   ----------------------------------------
	BYTE	W96
// 042   ----------------------------------------
	BYTE	W96
// 043   ----------------------------------------
	BYTE	W96
// 044   ----------------------------------------
	BYTE	W96
// 045   ----------------------------------------
	BYTE	W96
// 046   ----------------------------------------
	BYTE	W96
// 047   ----------------------------------------
	BYTE	W96
// 048   ----------------------------------------
	BYTE	W96
// 049   ----------------------------------------
	BYTE	W96
// 050   ----------------------------------------
	BYTE	W96
// 051   ----------------------------------------
	BYTE	W96
	BYTE	GoTo
	 POIN2	Jenova_4_B1
Jenova_4_B2:
// 052   ----------------------------------------
	BYTE	W96
// 053   ----------------------------------------
	BYTE	W96
// 054   ----------------------------------------
	BYTE	FINE

//**************** Track 5 (Midi-Chn.5) ****************//

Jenova_5:
	BYTE	KEYSH   Jenova_key+0
// 000   ----------------------------------------
	BYTE		VOICE   0
	BYTE		VOL     38*Jenova_mvl/mxv
	BYTE		PAN     c_v-63
	BYTE		BEND    c_v+0
	BYTE	W02
	BYTE		N09     Dn1   v112
	BYTE	W11
	BYTE		N10     Fn1 
	BYTE	W12
	BYTE		        Dn1 
	BYTE	W12
	BYTE		        Fn1 
	BYTE	W12
	BYTE		        As1 
	BYTE	W11
	BYTE		        An1 
	BYTE	W13
	BYTE		        Fn1 
	BYTE	W12
	BYTE		        Dn1 
	BYTE	W11
// 001   ----------------------------------------
	BYTE	W01
	BYTE		        Fn1 
	BYTE	W12
	BYTE		        An1 
	BYTE	W12
	BYTE		        As1 
	BYTE	W12
	BYTE		        An1 
	BYTE	W12
	BYTE		        Fn1 
	BYTE	W12
	BYTE		        Dn1 
	BYTE	W12
	BYTE		        As0 
	BYTE	W11
	BYTE		        Dn1 
	BYTE	W12
// 002   ----------------------------------------
	BYTE	W02
	BYTE		N09   
	BYTE	W12
	BYTE		        Fn1 
	BYTE	W12
	BYTE		        Dn1 
	BYTE	W10
	BYTE		N10     Fn1 
	BYTE	W13
	BYTE		        As1 
	BYTE	W12
	BYTE		        An1 
	BYTE	W12
	BYTE		        Fn1 
	BYTE	W11
	BYTE		        Dn1 
	BYTE	W12
// 003   ----------------------------------------
	BYTE	W01
	BYTE		        Fn1 
	BYTE	W12
	BYTE		        An1 
	BYTE	W12
	BYTE		        As1 
	BYTE	W12
	BYTE		        An1 
	BYTE	W12
	BYTE		        Fn1 
	BYTE	W11
	BYTE		        Dn1 
	BYTE	W13
	BYTE		        As0 
	BYTE	W11
	BYTE		        Dn1 
	BYTE	W12
// 004   ----------------------------------------
	BYTE	W01
	BYTE		N09   
	BYTE	W11
	BYTE		N10     Fn1 
	BYTE	W13
	BYTE		        Dn1 
	BYTE	W12
	BYTE		        Fn1 
	BYTE	W12
	BYTE		        As1 
	BYTE	W12
	BYTE		        An1 
	BYTE	W12
	BYTE		        Fn1 
	BYTE	W12
	BYTE		        Dn1 
	BYTE	W11
// 005   ----------------------------------------
	BYTE	W01
	BYTE		N09     Fn1 
	BYTE	W11
	BYTE		N10     An1 
	BYTE	W13
	BYTE		        As1 
	BYTE	W12
	BYTE		        An1 
	BYTE	W12
	BYTE		        Fn1 
	BYTE	W11
	BYTE		        Dn1 
	BYTE	W13
	BYTE		        As0 
	BYTE	W12
	BYTE		        Dn1 
	BYTE	W11
// 006   ----------------------------------------
	BYTE	W02
	BYTE		N09   
	BYTE	W12
	BYTE		        Fn1 
	BYTE	W12
	BYTE		        Dn1 
	BYTE	W11
	BYTE		N10     Fn1 
	BYTE	W12
	BYTE		        As1 
	BYTE	W13
	BYTE		N09     An1 
	BYTE	W12
	BYTE		        Fn1 
	BYTE	W11
	BYTE		        Dn1 
	BYTE	W11
// 007   ----------------------------------------
	BYTE	W01
	BYTE		N10     Fn1 
	BYTE	W13
	BYTE		N09     An1 
	BYTE	W12
	BYTE		        As1 
	BYTE	W11
	BYTE		        An1 
	BYTE	W13
	BYTE		        Fn1 
	BYTE	W11
	BYTE		        Dn1 
	BYTE	W12
	BYTE		        As0 
	BYTE	W12
	BYTE		N10     Dn1 
	BYTE	W11
Jenova_5_B1:
// 008   ----------------------------------------
Jenova_5_008:
	BYTE	W01
	BYTE		N09     Dn1   v112
	BYTE	W12
	BYTE		N10     Fn1 
	BYTE	W12
	BYTE		        Dn1 
	BYTE	W12
	BYTE		        Fn1 
	BYTE	W12
	BYTE		N09     As1 
	BYTE	W12
	BYTE		N10     An1 
	BYTE	W12
	BYTE		        Fn1 
	BYTE	W12
	BYTE		        Dn1 
	BYTE	W11
	BYTE	PEND
// 009   ----------------------------------------
	BYTE	W01
	BYTE		N09     Fn1 
	BYTE	W12
	BYTE		N10     An1 
	BYTE	W12
	BYTE		N09     As1 
	BYTE	W12
	BYTE		N10     An1 
	BYTE	W12
	BYTE		N09     Fn1 
	BYTE	W12
	BYTE		N10     Dn1 
	BYTE	W12
	BYTE		N09     As0 
	BYTE	W12
	BYTE		N10     Dn1 
	BYTE	W11
// 010   ----------------------------------------
	BYTE	PATT
	 POIN2	Jenova_5_008
// 011   ----------------------------------------
Jenova_5_011:
	BYTE	W01
	BYTE		N09     Fn1   v112
	BYTE	W12
	BYTE		N10     An1 
	BYTE	W12
	BYTE		        As1 
	BYTE	W12
	BYTE		        An1 
	BYTE	W12
	BYTE		        Fn1 
	BYTE	W12
	BYTE		        Dn1 
	BYTE	W12
	BYTE		        As0 
	BYTE	W12
	BYTE		        Dn1 
	BYTE	W11
	BYTE	PEND
// 012   ----------------------------------------
	BYTE	W01
	BYTE		N09   
	BYTE	W12
	BYTE		        Fn1 
	BYTE	W12
	BYTE		        Dn1 
	BYTE	W12
	BYTE		        Fn1 
	BYTE	W13
	BYTE		        As1 
	BYTE	W11
	BYTE		N10     An1 
	BYTE	W12
	BYTE		        Fn1 
	BYTE	W12
	BYTE		        Dn1 
	BYTE	W11
// 013   ----------------------------------------
	BYTE	W01
	BYTE		N09     Fn1 
	BYTE	W13
	BYTE		        An1 
	BYTE	W12
	BYTE		        As1 
	BYTE	W11
	BYTE		        An1 
	BYTE	W13
	BYTE		        Fn1 
	BYTE	W12
	BYTE		        Dn1 
	BYTE	W12
	BYTE		        As0 
	BYTE	W11
	BYTE		N10     Dn1 
	BYTE	W11
// 014   ----------------------------------------
	BYTE	W01
	BYTE		N09   
	BYTE	W12
	BYTE		N10     Fn1 
	BYTE	W12
	BYTE		N09     Dn1 
	BYTE	W12
	BYTE		N10     Fn1 
	BYTE	W12
	BYTE		N09     As1 
	BYTE	W12
	BYTE		N10     An1 
	BYTE	W12
	BYTE		        Fn1 
	BYTE	W12
	BYTE		        Dn1 
	BYTE	W11
// 015   ----------------------------------------
	BYTE	PATT
	 POIN2	Jenova_5_011
// 016   ----------------------------------------
	BYTE	W01
	BYTE		N09     Fn1   v112
	BYTE	W12
	BYTE		N10     Gs1 
	BYTE	W12
	BYTE		        Fn1 
	BYTE	W12
	BYTE		        Gs1 
	BYTE	W12
	BYTE		N09     Cs2 
	BYTE	W12
	BYTE		N10     Cn2 
	BYTE	W12
	BYTE		        Gs1 
	BYTE	W12
	BYTE		        Fn1 
	BYTE	W11
// 017   ----------------------------------------
	BYTE	W01
	BYTE		        Gs1 
	BYTE	W12
	BYTE		        Cn2 
	BYTE	W12
	BYTE		        Cs2 
	BYTE	W12
	BYTE		        Cn2 
	BYTE	W12
	BYTE		        Gs1 
	BYTE	W12
	BYTE		        Fn1 
	BYTE	W12
	BYTE		        Cs1 
	BYTE	W12
	BYTE		        Fn1 
	BYTE	W11
// 018   ----------------------------------------
	BYTE	W01
	BYTE		N09   
	BYTE	W12
	BYTE		N10     Gs1 
	BYTE	W12
	BYTE		        Fn1 
	BYTE	W12
	BYTE		        Gs1 
	BYTE	W12
	BYTE		        Cs2 
	BYTE	W12
	BYTE		        Cn2 
	BYTE	W12
	BYTE		        Gs1 
	BYTE	W12
	BYTE		        Fn1 
	BYTE	W11
// 019   ----------------------------------------
	BYTE	W01
	BYTE		N09     Gs1 
	BYTE	W12
	BYTE		N10     Cn2 
	BYTE	W12
	BYTE		        Cs2 
	BYTE	W12
	BYTE		        Cn2 
	BYTE	W12
	BYTE		        Gs1 
	BYTE	W12
	BYTE		        Fn1 
	BYTE	W12
	BYTE		        Cs1 
	BYTE	W12
	BYTE		        Fn1 
	BYTE	W11
// 020   ----------------------------------------
	BYTE	W02
	BYTE		N09     Cn1 
	BYTE	W11
	BYTE		        Ds1 
	BYTE	W12
	BYTE		N10     Cn1 
	BYTE	W12
	BYTE		N09     Ds1 
	BYTE	W13
	BYTE		        Gs1 
	BYTE	W11
	BYTE		        Gn1 
	BYTE	W12
	BYTE		N10     Ds1 
	BYTE	W12
	BYTE		        Cn1 
	BYTE	W11
// 021   ----------------------------------------
	BYTE	W01
	BYTE		        Ds1 
	BYTE	W12
	BYTE		N09     Gn1 
	BYTE	W13
	BYTE		        Gs1 
	BYTE	W11
	BYTE		        Gn1 
	BYTE	W13
	BYTE		        Ds1 
	BYTE	W11
	BYTE		        Cn1 
	BYTE	W13
	BYTE		        Gn0 
	BYTE	W11
	BYTE		N10     Ds1 
	BYTE	W11
// 022   ----------------------------------------
	BYTE	W01
	BYTE		        Cn1 
	BYTE	W12
	BYTE		        Ds1 
	BYTE	W12
	BYTE		        Cn1 
	BYTE	W12
	BYTE		        Ds1 
	BYTE	W12
	BYTE		N09     Gs1 
	BYTE	W12
	BYTE		N10     Gn1 
	BYTE	W12
	BYTE		        Ds1 
	BYTE	W12
	BYTE		        Cn1 
	BYTE	W11
// 023   ----------------------------------------
	BYTE	W01
	BYTE		        Ds1 
	BYTE	W12
	BYTE		        Gn1 
	BYTE	W12
	BYTE		        Gs1 
	BYTE	W12
	BYTE		        Gn1 
	BYTE	W12
	BYTE		        Ds1 
	BYTE	W12
	BYTE		        Cn1 
	BYTE	W12
	BYTE		N09     Gn0 
	BYTE	W12
	BYTE		N10     Ds1 
	BYTE	W11
// 024   ----------------------------------------
Jenova_5_024:
	BYTE	W01
	BYTE		N09     An0   v112
	BYTE	W11
	BYTE		N10     Cn1 
	BYTE	W12
	BYTE		        An0 
	BYTE	W12
	BYTE		        Cn1 
	BYTE	W12
	BYTE		        Fn1 
	BYTE	W12
	BYTE		        En1 
	BYTE	W12
	BYTE		        Cn1 
	BYTE	W12
	BYTE		        An0 
	BYTE	W12
	BYTE	PEND
// 025   ----------------------------------------
	BYTE	W01
	BYTE		        Cn1 
	BYTE	W11
	BYTE		        En1 
	BYTE	W12
	BYTE		        Fn1 
	BYTE	W12
	BYTE		        En1 
	BYTE	W12
	BYTE		        Cn1 
	BYTE	W12
	BYTE		        An0 
	BYTE	W13
	BYTE		        En0 
	BYTE	W12
	BYTE		        An0 
	BYTE	W11
// 026   ----------------------------------------
	BYTE	PATT
	 POIN2	Jenova_5_024
// 027   ----------------------------------------
	BYTE		N10     Cn1   v112
	BYTE	W12
	BYTE		        En1 
	BYTE	W12
	BYTE		        Fn1 
	BYTE	W12
	BYTE		        En1 
	BYTE	W12
	BYTE		        Cn1 
	BYTE	W12
	BYTE		        An0 
	BYTE	W12
	BYTE		        En0 
	BYTE	W12
	BYTE		        An0 
	BYTE	W12
// 028   ----------------------------------------
	BYTE	W01
	BYTE		        En1 
	BYTE	W11
	BYTE		        Gn1 
	BYTE	W12
	BYTE		        En1 
	BYTE	W12
	BYTE		        Gn1 
	BYTE	W12
	BYTE		        Cn2 
	BYTE	W12
	BYTE		        Bn1 
	BYTE	W12
	BYTE		        Gn1 
	BYTE	W12
	BYTE		        En1 
	BYTE	W12
// 029   ----------------------------------------
	BYTE		        Gn1 
	BYTE	W12
	BYTE		        Bn1 
	BYTE	W12
	BYTE		        Cn2 
	BYTE	W12
	BYTE		        Bn1 
	BYTE	W13
	BYTE		        Gn1 
	BYTE	W11
	BYTE		        En1 
	BYTE	W13
	BYTE		        Bn0 
	BYTE	W12
	BYTE		        En1 
	BYTE	W11
// 030   ----------------------------------------
	BYTE	W01
	BYTE		N09   
	BYTE	W11
	BYTE		N10     Gn1 
	BYTE	W13
	BYTE		        En1 
	BYTE	W11
	BYTE		        Gn1 
	BYTE	W12
	BYTE		        Cn2 
	BYTE	W12
	BYTE		        Bn1 
	BYTE	W12
	BYTE		        Gn1 
	BYTE	W12
	BYTE		        En1 
	BYTE	W12
// 031   ----------------------------------------
	BYTE		        Gn1 
	BYTE	W12
	BYTE		        Bn1 
	BYTE	W12
	BYTE		        Cn2 
	BYTE	W12
	BYTE		        Bn1 
	BYTE	W12
	BYTE		        Gn1 
	BYTE	W12
	BYTE		        En1 
	BYTE	W12
	BYTE		        Bn0 
	BYTE	W12
	BYTE		        En1 
	BYTE	W12
// 032   ----------------------------------------
	BYTE	W01
	BYTE		        Gn1 
	BYTE	W11
	BYTE		        As1 
	BYTE	W12
	BYTE		        Gn1 
	BYTE	W12
	BYTE		        As1 
	BYTE	W12
	BYTE		        Ds2 
	BYTE	W12
	BYTE		        Dn2 
	BYTE	W12
	BYTE		        As1 
	BYTE	W12
	BYTE		        Gn1 
	BYTE	W12
// 033   ----------------------------------------
	BYTE		        As1 
	BYTE	W12
	BYTE		        Dn2 
	BYTE	W12
	BYTE		        Ds2 
	BYTE	W12
	BYTE		        Dn2 
	BYTE	W12
	BYTE		        As1 
	BYTE	W12
	BYTE		        Gn1 
	BYTE	W13
	BYTE		N09     Dn1 
	BYTE	W12
	BYTE		N10     Gn1 
	BYTE	W11
// 034   ----------------------------------------
	BYTE	W01
	BYTE		N09   
	BYTE	W12
	BYTE		N10     As1 
	BYTE	W12
	BYTE		        Gn1 
	BYTE	W11
	BYTE		        As1 
	BYTE	W13
	BYTE		        Ds2 
	BYTE	W11
	BYTE		        Dn2 
	BYTE	W13
	BYTE		        As1 
	BYTE	W11
	BYTE		        Gn1 
	BYTE	W12
// 035   ----------------------------------------
	BYTE		        As1 
	BYTE	W12
	BYTE		        Dn2 
	BYTE	W12
	BYTE		        Ds2 
	BYTE	W12
	BYTE		        Dn2 
	BYTE	W12
	BYTE		        As1 
	BYTE	W12
	BYTE		        Gn1 
	BYTE	W12
	BYTE		        Dn1 
	BYTE	W12
	BYTE		        Gn1 
	BYTE	W12
// 036   ----------------------------------------
Jenova_5_036:
	BYTE	W01
	BYTE		N09     Dn1   v112
	BYTE	W11
	BYTE		N10     Fn1 
	BYTE	W12
	BYTE		        Dn1 
	BYTE	W12
	BYTE		        Fn1 
	BYTE	W12
	BYTE		        As1 
	BYTE	W12
	BYTE		        An1 
	BYTE	W12
	BYTE		        Fn1 
	BYTE	W12
	BYTE		        Dn1 
	BYTE	W12
	BYTE	PEND
// 037   ----------------------------------------
	BYTE	W01
	BYTE		        Fn1 
	BYTE	W11
	BYTE		        An1 
	BYTE	W13
	BYTE		        As1 
	BYTE	W11
	BYTE		        An1 
	BYTE	W12
	BYTE		        Fn1 
	BYTE	W12
	BYTE		        Dn1 
	BYTE	W13
	BYTE		N09     An0 
	BYTE	W12
	BYTE		N10     Dn1 
	BYTE	W11
// 038   ----------------------------------------
	BYTE	PATT
	 POIN2	Jenova_5_036
// 039   ----------------------------------------
	BYTE		N10     Fn1   v112
	BYTE	W12
	BYTE		        An1 
	BYTE	W12
	BYTE		        As1 
	BYTE	W12
	BYTE		        An1 
	BYTE	W12
	BYTE		        Fn1 
	BYTE	W12
	BYTE		        Dn1 
	BYTE	W12
	BYTE		        An0 
	BYTE	W12
	BYTE		        Dn1 
	BYTE	W12
// 040   ----------------------------------------
	BYTE	W01
	BYTE		N09     Fn0 
	BYTE		N10     Fn1 
	BYTE	W24
	BYTE		        Fn0 
	BYTE		N10     Fn1 
	BYTE	W32
	BYTE	W03
	BYTE		N10   
	BYTE	W01
	BYTE		        Fn0 
	BYTE	W32
	BYTE	W03
// 041   ----------------------------------------
	BYTE	W01
	BYTE		N09   
	BYTE		N09     Fn1 
	BYTE	W36
	BYTE		N10     Fn0 
	BYTE		N10     Fn1 
	BYTE	W36
	BYTE		        Fn0 
	BYTE		N10     Fn1 
	BYTE	W23
// 042   ----------------------------------------
Jenova_5_042:
	BYTE	W24
	BYTE	W01
	BYTE		N10     Fn0   v112
	BYTE		N10     Fn1 
	BYTE	W32
	BYTE	W03
	BYTE		        Fn0 
	BYTE	W01
	BYTE		        Fn1 
	BYTE	W32
	BYTE	W03
	BYTE	PEND
// 043   ----------------------------------------
	BYTE	W01
	BYTE		N09     Fn0 
	BYTE		N09     Fn1 
	BYTE	W32
	BYTE	W03
	BYTE		N10     Fn0 
	BYTE	W01
	BYTE		        Fn1 
	BYTE	W36
	BYTE		        Fn0 
	BYTE		N10     Fn1 
	BYTE	W23
// 044   ----------------------------------------
	BYTE	W01
	BYTE		N09     Fn0 
	BYTE		N09     Fn1 
	BYTE	W24
	BYTE		N10     Fn0 
	BYTE		N10     Fn1 
	BYTE	W32
	BYTE	W03
	BYTE		N10   
	BYTE	W01
	BYTE		        Fn0 
	BYTE	W32
	BYTE	W03
// 045   ----------------------------------------
	BYTE		        Fn1 
	BYTE	W01
	BYTE		        Fn0 
	BYTE	W36
	BYTE		N10   
	BYTE		N10     Fn1 
	BYTE	W32
	BYTE	W03
	BYTE		        Fn0 
	BYTE	W01
	BYTE		        Fn1 
	BYTE	W23
// 046   ----------------------------------------
	BYTE	PATT
	 POIN2	Jenova_5_042
// 047   ----------------------------------------
	BYTE	W01
	BYTE		N10     Fn0   v112
	BYTE		N10     Fn1 
	BYTE	W32
	BYTE	W03
	BYTE		        Fn0 
	BYTE	W01
	BYTE		        Fn1 
	BYTE	W36
	BYTE		        Fn0 
	BYTE		N10     Fn1 
	BYTE	W23
// 048   ----------------------------------------
	BYTE	W01
	BYTE		        Cn1 
	BYTE	W12
	BYTE		N09     En1 
	BYTE	W12
	BYTE		N10     Cn1 
	BYTE	W12
	BYTE		        En1 
	BYTE	W12
	BYTE		        Gs1 
	BYTE	W12
	BYTE		        Gn1 
	BYTE	W12
	BYTE		        En1 
	BYTE	W12
	BYTE		        Cn1 
	BYTE	W11
// 049   ----------------------------------------
	BYTE	W01
	BYTE		        En1 
	BYTE	W12
	BYTE		        Gn1 
	BYTE	W12
	BYTE		N09     Gs1 
	BYTE	W12
	BYTE		N10     Gn1 
	BYTE	W12
	BYTE		        En1 
	BYTE	W12
	BYTE		        Cn1 
	BYTE	W12
	BYTE		        Gn0 
	BYTE	W12
	BYTE		        Cn1 
	BYTE	W11
// 050   ----------------------------------------
	BYTE	W01
	BYTE		N10   
	BYTE	W12
	BYTE		        En1 
	BYTE	W12
	BYTE		        Cn1 
	BYTE	W12
	BYTE		        En1 
	BYTE	W12
	BYTE		        Gs1 
	BYTE	W12
	BYTE		        Gn1 
	BYTE	W12
	BYTE		N09     En1 
	BYTE	W12
	BYTE		N10     Cn1 
	BYTE	W11
// 051   ----------------------------------------
	BYTE	W01
	BYTE		        En1 
	BYTE	W12
	BYTE		        Gn1 
	BYTE	W12
	BYTE		        Gs1 
	BYTE	W12
	BYTE		        Gn1 
	BYTE	W12
	BYTE		        En1 
	BYTE	W12
	BYTE		        Cn1 
	BYTE	W12
	BYTE		        Gn0 
	BYTE	W12
	BYTE		        Cn1 
	BYTE	W11
	BYTE	GoTo
	 POIN2	Jenova_5_B1
Jenova_5_B2:
// 052   ----------------------------------------
	BYTE	W02
	BYTE		N09     Dn1   v112
	BYTE	W11
	BYTE		        Fn1 
	BYTE	W12
	BYTE		N10     Dn1 
	BYTE	W12
	BYTE		        Fn1 
	BYTE	W12
	BYTE		        As1 
	BYTE	W12
	BYTE		        An1 
	BYTE	W12
	BYTE		        Fn1 
	BYTE	W12
	BYTE		        Dn1 
	BYTE	W11
// 053   ----------------------------------------
	BYTE	PATT
	 POIN2	Jenova_5_011
// 054   ----------------------------------------
	BYTE	FINE

//**************** Track 6 (Midi-Chn.6) ****************//

Jenova_6:
	BYTE	KEYSH   Jenova_key+0
// 000   ----------------------------------------
	BYTE		VOICE   56
	BYTE		VOL     113*Jenova_mvl/mxv
	BYTE		BEND    c_v+0
	BYTE	W96
// 001   ----------------------------------------
	BYTE	W96
// 002   ----------------------------------------
	BYTE	W96
// 003   ----------------------------------------
	BYTE	W96
// 004   ----------------------------------------
	BYTE	W96
// 005   ----------------------------------------
	BYTE	W96
// 006   ----------------------------------------
	BYTE	W96
// 007   ----------------------------------------
	BYTE	W96
Jenova_6_B1:
// 008   ----------------------------------------
	BYTE	W02
	BYTE		N68     Dn3   v112
	BYTE	W68
	BYTE	W03
	BYTE		N22     En3 
	BYTE	W23
// 009   ----------------------------------------
	BYTE	W01
	BYTE		TIE     Fn3 
	BYTE	W92
	BYTE	W03
// 010   ----------------------------------------
	BYTE	W22
	BYTE		EOT   
	BYTE	W24
	BYTE	W03
	BYTE		N21     Dn3 
	BYTE	W24
	BYTE		        En3 
	BYTE	W23
// 011   ----------------------------------------
	BYTE	W01
	BYTE		N44     Fn3 
	BYTE	W48
	BYTE		        Gn3 
	BYTE	W44
	BYTE	W03
// 012   ----------------------------------------
	BYTE	W02
	BYTE		TIE     An3 
	BYTE	W92
	BYTE	W02
// 013   ----------------------------------------
	BYTE	W96
// 014   ----------------------------------------
	BYTE	W92
	BYTE	W01
	BYTE		EOT   
	BYTE	W03
// 015   ----------------------------------------
	BYTE	W96
// 016   ----------------------------------------
	BYTE	W02
	BYTE		N68     Fn3 
	BYTE	W68
	BYTE	W03
	BYTE		N21     Gn3 
	BYTE	W23
// 017   ----------------------------------------
	BYTE	W01
	BYTE		TIE     Gs3 
	BYTE	W92
	BYTE	W03
// 018   ----------------------------------------
	BYTE	W44
	BYTE	W02
	BYTE		EOT   
	BYTE	W03
	BYTE		N21     Fn3 
	BYTE	W24
	BYTE		N22     Gn3 
	BYTE	W23
// 019   ----------------------------------------
	BYTE	W01
	BYTE		N44     Gs3 
	BYTE	W48
	BYTE		        As3 
	BYTE	W44
	BYTE	W03
// 020   ----------------------------------------
	BYTE	W02
	BYTE		TIE     Cn4 
	BYTE	W92
	BYTE	W02
// 021   ----------------------------------------
	BYTE	W92
	BYTE	W03
	BYTE		EOT   
	BYTE	W01
// 022   ----------------------------------------
	BYTE	W96
// 023   ----------------------------------------
	BYTE	W96
// 024   ----------------------------------------
	BYTE	W02
	BYTE		N54     An2   v092
	BYTE		N68     Cn4   v112
	BYTE	W68
	BYTE	W03
	BYTE		N18     Bn2   v092
	BYTE		N22     Bn3   v112
	BYTE	W23
// 025   ----------------------------------------
	BYTE	W01
	BYTE		N92     Cn3   v092
	BYTE		TIE     An3   v112
	BYTE	W92
	BYTE	W03
// 026   ----------------------------------------
	BYTE	W23
	BYTE		EOT   
	BYTE	W02
	BYTE		N22     Cn4 
	BYTE	W24
	BYTE		        Bn3 
	BYTE	W24
	BYTE		        An3 
	BYTE	W23
// 027   ----------------------------------------
	BYTE	W01
	BYTE		N44     Cn3 
	BYTE	W48
	BYTE		        Dn3 
	BYTE	W44
	BYTE	W03
// 028   ----------------------------------------
	BYTE	W01
	BYTE		N68     Bn2 
	BYTE		TIE     En3 
	BYTE	W72
	BYTE		N22     An2 
	BYTE	W23
// 029   ----------------------------------------
	BYTE	W01
	BYTE		TIE     Gn2 
	BYTE	W92
	BYTE	W03
// 030   ----------------------------------------
	BYTE	W92
	BYTE	W03
	BYTE		EOT   
	BYTE	W01
// 031   ----------------------------------------
	BYTE	W92
	BYTE	W01
	BYTE		        En3 
	BYTE	W03
// 032   ----------------------------------------
	BYTE	W01
	BYTE		N68     As2   v068
	BYTE		N68     Dn3 
	BYTE		N68     As3   v112
	BYTE	W72
	BYTE		N22     An3 
	BYTE	W23
// 033   ----------------------------------------
	BYTE	W01
	BYTE		TIE     Gn3 
	BYTE	W92
	BYTE	W03
// 034   ----------------------------------------
	BYTE	W23
	BYTE		EOT   
	BYTE	W02
	BYTE		N22     As3 
	BYTE	W24
	BYTE		        An3 
	BYTE	W24
	BYTE		        Gn3 
	BYTE	W23
// 035   ----------------------------------------
	BYTE	W01
	BYTE		N44     As2 
	BYTE	W44
	BYTE	W03
	BYTE		        Cn3 
	BYTE	W48
// 036   ----------------------------------------
	BYTE	W02
	BYTE		TIE     Dn3 
	BYTE	W92
	BYTE	W02
// 037   ----------------------------------------
	BYTE	W96
// 038   ----------------------------------------
	BYTE	W96
// 039   ----------------------------------------
	BYTE	W92
	BYTE	W02
	BYTE		EOT   
	BYTE	W02
// 040   ----------------------------------------
	BYTE	W96
// 041   ----------------------------------------
	BYTE	W96
// 042   ----------------------------------------
	BYTE	W96
// 043   ----------------------------------------
	BYTE	W96
// 044   ----------------------------------------
	BYTE	W96
// 045   ----------------------------------------
	BYTE	W96
// 046   ----------------------------------------
	BYTE	W96
// 047   ----------------------------------------
	BYTE	W96
// 048   ----------------------------------------
	BYTE	W96
// 049   ----------------------------------------
	BYTE	W96
// 050   ----------------------------------------
	BYTE	W96
// 051   ----------------------------------------
	BYTE	W96
	BYTE	GoTo
	 POIN2	Jenova_6_B1
Jenova_6_B2:
// 052   ----------------------------------------
	BYTE	W02
	BYTE		N68     Dn3   v112
	BYTE	W68
	BYTE	W03
	BYTE		N21     En3 
	BYTE	W23
// 053   ----------------------------------------
	BYTE	W96
// 054   ----------------------------------------
	BYTE	FINE

//**************** Track 7 (Midi-Chn.7) ****************//

Jenova_7:
	BYTE	KEYSH   Jenova_key+0
// 000   ----------------------------------------
	BYTE		VOICE   47
	BYTE		VOL     41*Jenova_mvl/mxv
	BYTE		BEND    c_v+0
	BYTE	W96
// 001   ----------------------------------------
	BYTE	W96
// 002   ----------------------------------------
	BYTE	W72
	BYTE	W01
	BYTE		N06     Bn1   v127
	BYTE	W12
	BYTE		N12     Gn1 
	BYTE	W11
// 003   ----------------------------------------
	BYTE	W13
	BYTE		N03     Bn1 
	BYTE	W12
	BYTE		N07     Gn1 
	BYTE	W24
	BYTE		N03     Bn1 
	BYTE	W24
	BYTE		N02     Gn1 
	BYTE	W23
// 004   ----------------------------------------
	BYTE	W96
// 005   ----------------------------------------
	BYTE	W96
// 006   ----------------------------------------
	BYTE	W96
// 007   ----------------------------------------
	BYTE	W96
Jenova_7_B1:
// 008   ----------------------------------------
	BYTE	W96
// 009   ----------------------------------------
	BYTE	W96
// 010   ----------------------------------------
	BYTE	W96
// 011   ----------------------------------------
	BYTE	W96
// 012   ----------------------------------------
	BYTE	W96
// 013   ----------------------------------------
	BYTE	W96
// 014   ----------------------------------------
	BYTE	W01
	BYTE		N09     Bn1   v052
	BYTE	W12
	BYTE		        Bn1   v060
	BYTE	W12
	BYTE		        Bn1   v076
	BYTE	W12
	BYTE		        Bn1   v112
	BYTE	W12
	BYTE		        Bn1   v116
	BYTE	W12
	BYTE		        Bn1   v124
	BYTE	W12
	BYTE		N09   
	BYTE	W12
	BYTE		N09   
	BYTE	W11
// 015   ----------------------------------------
	BYTE	W01
	BYTE		N21     Bn1   v112
	BYTE	W24
	BYTE		N22     Fn1 
	BYTE	W24
	BYTE		        Bn1 
	BYTE	W24
	BYTE		N21     Fn1 
	BYTE	W23
// 016   ----------------------------------------
	BYTE	W96
// 017   ----------------------------------------
	BYTE	W96
// 018   ----------------------------------------
	BYTE	W96
// 019   ----------------------------------------
	BYTE	W96
// 020   ----------------------------------------
	BYTE	W96
// 021   ----------------------------------------
	BYTE	W96
// 022   ----------------------------------------
	BYTE	W01
	BYTE		N22     Cn2 
	BYTE	W24
	BYTE		N21     Gn1 
	BYTE	W36
	BYTE		N09   
	BYTE	W12
	BYTE		N21     Cn2 
	BYTE	W23
// 023   ----------------------------------------
	BYTE	W13
	BYTE		N10     Bn1 
	BYTE	W24
	BYTE		N09   
	BYTE	W12
	BYTE		        Fn1 
	BYTE	W24
	BYTE		N09   
	BYTE	W23
// 024   ----------------------------------------
	BYTE	W96
// 025   ----------------------------------------
	BYTE	W72
	BYTE	W01
	BYTE		N03     Dn2 
	BYTE	W05
	BYTE		N04   
	BYTE	W07
	BYTE		N03   
	BYTE	W06
	BYTE		N04   
	BYTE	W05
// 026   ----------------------------------------
	BYTE	W02
	BYTE		N21     Bn1 
	BYTE	W92
	BYTE	W02
// 027   ----------------------------------------
	BYTE	W96
// 028   ----------------------------------------
	BYTE	W96
// 029   ----------------------------------------
	BYTE	W96
// 030   ----------------------------------------
	BYTE	W96
// 031   ----------------------------------------
	BYTE	W01
	BYTE		N10     An1   v052
	BYTE	W11
	BYTE		        An1   v064
	BYTE	W12
	BYTE		        An1   v124
	BYTE	W12
	BYTE		N10   
	BYTE	W13
	BYTE		N10   
	BYTE		N10     As1   v112
	BYTE	W12
	BYTE		        An1   v124
	BYTE	W12
	BYTE		        Gn1   v116
	BYTE		N10     An1   v124
	BYTE		N10     As1   v116
	BYTE	W11
	BYTE		        An1   v127
	BYTE	W01
	BYTE		        As1 
	BYTE		N10     Bn1   v112
	BYTE	W11
// 032   ----------------------------------------
	BYTE	W96
// 033   ----------------------------------------
	BYTE	W96
// 034   ----------------------------------------
	BYTE	W96
// 035   ----------------------------------------
	BYTE	W96
// 036   ----------------------------------------
	BYTE	W96
// 037   ----------------------------------------
	BYTE	W96
// 038   ----------------------------------------
	BYTE	W01
	BYTE		N21   
	BYTE	W24
	BYTE		N22     Fn1 
	BYTE	W24
	BYTE		        Bn1 
	BYTE	W24
	BYTE		        Fn1 
	BYTE	W23
// 039   ----------------------------------------
	BYTE	W01
	BYTE		N10     Fn1   v060
	BYTE	W11
	BYTE		        Fn1   v064
	BYTE	W13
	BYTE		        Fn1   v116
	BYTE	W11
	BYTE		        Fn1   v112
	BYTE	W01
	BYTE		        Gn1   v100
	BYTE	W12
	BYTE		        En1   v080
	BYTE		N10     Fn1   v112
	BYTE		N10     Gn1   v116
	BYTE	W11
	BYTE		        Gn1   v112
	BYTE	W01
	BYTE		        En1   v072
	BYTE		N10     Fn1   v112
	BYTE		N10     An1   v124
	BYTE	W12
	BYTE		        Fn1   v116
	BYTE		N10     Gn1   v100
	BYTE		N10     An1   v124
	BYTE	W12
	BYTE		        Fn1   v116
	BYTE		N10     Gn1   v112
	BYTE	W11
// 040   ----------------------------------------
	BYTE	W96
// 041   ----------------------------------------
	BYTE	W96
// 042   ----------------------------------------
	BYTE	W96
// 043   ----------------------------------------
Jenova_7_043:
	BYTE	W72
	BYTE	W01
	BYTE		N03     An1   v068
	BYTE	W05
	BYTE		N05     An1   v092
	BYTE	W06
	BYTE		N04     An1   v112
	BYTE	W06
	BYTE		N05   
	BYTE	W06
	BYTE	PEND
// 044   ----------------------------------------
Jenova_7_044:
	BYTE	W02
	BYTE		N92     Gn1   v112
	BYTE	W92
	BYTE	W02
	BYTE	PEND
// 045   ----------------------------------------
	BYTE	W96
// 046   ----------------------------------------
	BYTE	W96
// 047   ----------------------------------------
	BYTE	PATT
	 POIN2	Jenova_7_043
// 048   ----------------------------------------
	BYTE	PATT
	 POIN2	Jenova_7_044
// 049   ----------------------------------------
	BYTE	W96
// 050   ----------------------------------------
	BYTE	W96
// 051   ----------------------------------------
	BYTE	W96
	BYTE	GoTo
	 POIN2	Jenova_7_B1
Jenova_7_B2:
// 052   ----------------------------------------
	BYTE	W96
// 053   ----------------------------------------
	BYTE	W96
// 054   ----------------------------------------
	BYTE	FINE

//**************** Track 8 (Midi-Chn.8) ****************//

Jenova_8:
	BYTE	KEYSH   Jenova_key+0
// 000   ----------------------------------------
	BYTE		VOICE   56
	BYTE		VOL     113*Jenova_mvl/mxv
	BYTE		BEND    c_v+0
	BYTE	W96
// 001   ----------------------------------------
	BYTE	W96
// 002   ----------------------------------------
	BYTE	W96
// 003   ----------------------------------------
	BYTE	W96
// 004   ----------------------------------------
	BYTE	W96
// 005   ----------------------------------------
	BYTE	W96
// 006   ----------------------------------------
	BYTE	W96
// 007   ----------------------------------------
	BYTE	W96
Jenova_8_B1:
// 008   ----------------------------------------
	BYTE	W96
// 009   ----------------------------------------
	BYTE	W96
// 010   ----------------------------------------
	BYTE	W96
// 011   ----------------------------------------
	BYTE	W96
// 012   ----------------------------------------
	BYTE	W96
// 013   ----------------------------------------
	BYTE	W96
// 014   ----------------------------------------
	BYTE	W96
// 015   ----------------------------------------
	BYTE	W96
// 016   ----------------------------------------
	BYTE	W96
// 017   ----------------------------------------
	BYTE	W96
// 018   ----------------------------------------
	BYTE	W96
// 019   ----------------------------------------
	BYTE	W96
// 020   ----------------------------------------
	BYTE	W96
// 021   ----------------------------------------
	BYTE	W96
// 022   ----------------------------------------
	BYTE	W96
// 023   ----------------------------------------
	BYTE	W96
// 024   ----------------------------------------
	BYTE	W96
// 025   ----------------------------------------
	BYTE	W96
// 026   ----------------------------------------
	BYTE	W96
// 027   ----------------------------------------
	BYTE	W96
// 028   ----------------------------------------
	BYTE	W96
// 029   ----------------------------------------
	BYTE	W96
// 030   ----------------------------------------
	BYTE	W96
// 031   ----------------------------------------
	BYTE	W96
// 032   ----------------------------------------
	BYTE	W96
// 033   ----------------------------------------
	BYTE	W96
// 034   ----------------------------------------
	BYTE	W96
// 035   ----------------------------------------
	BYTE	W96
// 036   ----------------------------------------
	BYTE	W96
// 037   ----------------------------------------
	BYTE	W96
// 038   ----------------------------------------
	BYTE	W96
// 039   ----------------------------------------
	BYTE	W72
	BYTE	W01
	BYTE		N03     Dn3   v112
	BYTE	W05
	BYTE		N05     En3 
	BYTE	W07
	BYTE		N04     Fn3 
	BYTE	W05
	BYTE		N05     Gn3 
	BYTE	W06
// 040   ----------------------------------------
	BYTE	W02
	BYTE		TIE     An3 
	BYTE	W92
	BYTE	W02
// 041   ----------------------------------------
	BYTE	W23
	BYTE		EOT   
	BYTE	W02
	BYTE		N10     Fn3 
	BYTE	W12
	BYTE		N09     Gn3 
	BYTE	W11
	BYTE		N22     An3 
	BYTE	W24
	BYTE	W01
	BYTE		N21     Cn4 
	BYTE	W23
// 042   ----------------------------------------
	BYTE	W01
	BYTE		        Bn3 
	BYTE	W24
	BYTE		N04     An3 
	BYTE	W11
	BYTE		TIE     Gn3 
	BYTE	W60
// 043   ----------------------------------------
	BYTE	W92
	BYTE	W02
	BYTE		EOT   
	BYTE	W02
// 044   ----------------------------------------
Jenova_8_044:
	BYTE	W02
	BYTE		TIE     Cn4   v112
	BYTE	W92
	BYTE	W02
	BYTE	PEND
// 045   ----------------------------------------
	BYTE	W22
	BYTE		EOT   
	BYTE	W03
	BYTE		N10     Gs3 
	BYTE	W12
	BYTE		N09     As3 
	BYTE	W12
	BYTE		N22     Cn4 
	BYTE	W24
	BYTE		        Ds4 
	BYTE	W23
// 046   ----------------------------------------
	BYTE	W01
	BYTE		N21     Dn4 
	BYTE	W24
	BYTE		N04     Cn4 
	BYTE	W11
	BYTE		TIE     As3 
	BYTE	W60
// 047   ----------------------------------------
	BYTE	W44
	BYTE	W02
	BYTE		EOT   
	BYTE	W03
	BYTE		N44   
	BYTE	W44
	BYTE	W03
// 048   ----------------------------------------
	BYTE	PATT
	 POIN2	Jenova_8_044
// 049   ----------------------------------------
	BYTE	W92
	BYTE	W03
	BYTE		EOT     Cn4 
	BYTE	W01
// 050   ----------------------------------------
	BYTE	W96
// 051   ----------------------------------------
	BYTE	W96
	BYTE	GoTo
	 POIN2	Jenova_8_B1
Jenova_8_B2:
// 052   ----------------------------------------
	BYTE	W96
// 053   ----------------------------------------
	BYTE	W96
// 054   ----------------------------------------
	BYTE	FINE

//**************** Track 9 (Midi-Chn.9) ****************//

Jenova_9:
	BYTE	KEYSH   Jenova_key+0
// 000   ----------------------------------------
	BYTE		VOICE   40
	BYTE		VOL     53*Jenova_mvl/mxv
	BYTE	W96
// 001   ----------------------------------------
	BYTE	W96
// 002   ----------------------------------------
	BYTE	W96
// 003   ----------------------------------------
	BYTE	W96
// 004   ----------------------------------------
	BYTE	W96
// 005   ----------------------------------------
	BYTE	W96
// 006   ----------------------------------------
	BYTE	W96
// 007   ----------------------------------------
	BYTE	W96
Jenova_9_B1:
// 008   ----------------------------------------
	BYTE	W96
// 009   ----------------------------------------
	BYTE	W96
// 010   ----------------------------------------
	BYTE	W96
// 011   ----------------------------------------
	BYTE	W96
// 012   ----------------------------------------
	BYTE	W96
// 013   ----------------------------------------
	BYTE	W96
// 014   ----------------------------------------
	BYTE	W96
// 015   ----------------------------------------
	BYTE	W96
// 016   ----------------------------------------
	BYTE	W02
	BYTE		N68     Fn3   v112
	BYTE	W68
	BYTE	W03
	BYTE		N21     Gn3 
	BYTE	W23
// 017   ----------------------------------------
	BYTE	W01
	BYTE		TIE     Gs3 
	BYTE	W92
	BYTE	W03
// 018   ----------------------------------------
	BYTE	W44
	BYTE	W02
	BYTE		EOT   
	BYTE	W03
	BYTE		N21     Fn3 
	BYTE	W24
	BYTE		N22     Gn3 
	BYTE	W23
// 019   ----------------------------------------
	BYTE	W01
	BYTE		N44     Gs3 
	BYTE	W48
	BYTE		        As3 
	BYTE	W44
	BYTE	W03
// 020   ----------------------------------------
Jenova_9_020:
	BYTE	W02
	BYTE		TIE     Cn4   v112
	BYTE	W92
	BYTE	W02
	BYTE	PEND
// 021   ----------------------------------------
	BYTE	W92
	BYTE	W03
	BYTE		EOT   
	BYTE	W01
// 022   ----------------------------------------
	BYTE	W96
// 023   ----------------------------------------
	BYTE	W96
// 024   ----------------------------------------
	BYTE	W96
// 025   ----------------------------------------
	BYTE	W96
// 026   ----------------------------------------
	BYTE	W96
// 027   ----------------------------------------
	BYTE	W96
// 028   ----------------------------------------
	BYTE	W96
// 029   ----------------------------------------
	BYTE	W96
// 030   ----------------------------------------
	BYTE	W96
// 031   ----------------------------------------
	BYTE	W96
// 032   ----------------------------------------
	BYTE	W01
	BYTE		N68     As2   v068
	BYTE		N68     Dn3 
	BYTE		N68     As3   v112
	BYTE	W72
	BYTE		N22     An3 
	BYTE	W23
// 033   ----------------------------------------
	BYTE	W01
	BYTE		TIE     Gn3 
	BYTE	W92
	BYTE	W03
// 034   ----------------------------------------
	BYTE	W23
	BYTE		EOT   
	BYTE	W02
	BYTE		N22     As3 
	BYTE	W24
	BYTE		        An3 
	BYTE	W24
	BYTE		        Gn3 
	BYTE	W23
// 035   ----------------------------------------
	BYTE	W01
	BYTE		N44     As2 
	BYTE	W44
	BYTE	W03
	BYTE		        Cn3 
	BYTE	W48
// 036   ----------------------------------------
	BYTE	W02
	BYTE		TIE     Dn3 
	BYTE	W92
	BYTE	W02
// 037   ----------------------------------------
	BYTE	W96
// 038   ----------------------------------------
	BYTE	W96
// 039   ----------------------------------------
	BYTE	W92
	BYTE	W02
	BYTE		EOT   
	BYTE	W02
// 040   ----------------------------------------
	BYTE	W96
// 041   ----------------------------------------
	BYTE	W96
// 042   ----------------------------------------
	BYTE	W96
// 043   ----------------------------------------
	BYTE	W96
// 044   ----------------------------------------
	BYTE	PATT
	 POIN2	Jenova_9_020
// 045   ----------------------------------------
	BYTE	W22
	BYTE		EOT     Cn4 
	BYTE	W03
	BYTE		N10     Gs3   v112
	BYTE	W12
	BYTE		N09     As3 
	BYTE	W12
	BYTE		N22     Cn4 
	BYTE	W24
	BYTE		        Ds4 
	BYTE	W23
// 046   ----------------------------------------
	BYTE	W01
	BYTE		N21     Dn4 
	BYTE	W24
	BYTE		N04     Cn4 
	BYTE	W11
	BYTE		TIE     As3 
	BYTE	W60
// 047   ----------------------------------------
	BYTE	W44
	BYTE	W02
	BYTE		EOT   
	BYTE	W03
	BYTE		N44   
	BYTE	W44
	BYTE	W03
// 048   ----------------------------------------
	BYTE	PATT
	 POIN2	Jenova_9_020
// 049   ----------------------------------------
	BYTE	W92
	BYTE	W03
	BYTE		EOT     Cn4 
	BYTE	W01
// 050   ----------------------------------------
	BYTE	W96
// 051   ----------------------------------------
	BYTE	W96
	BYTE	GoTo
	 POIN2	Jenova_9_B1
Jenova_9_B2:
// 052   ----------------------------------------
	BYTE	W96
// 053   ----------------------------------------
	BYTE	W96
// 054   ----------------------------------------
	BYTE	FINE

//**************** Track 10 (Midi-Chn.11) ****************//

Jenova_10:
	BYTE	KEYSH   Jenova_key+0
// 000   ----------------------------------------
	BYTE		VOICE   123
	BYTE		VOL     19*Jenova_mvl/mxv
	BYTE		BEND    c_v+0
	BYTE		N06     Cn1   v127
	BYTE		N03     As1 
	BYTE	W12
	BYTE		N05     Fs1 
	BYTE	W06
	BYTE		N13   
	BYTE	W06
	BYTE		N07     Cn1 
	BYTE		N04     As1 
	BYTE	W12
	BYTE		N06     Fs1 
	BYTE	W06
	BYTE		N14   
	BYTE	W06
	BYTE		N05     Cn1 
	BYTE		N02     As1 
	BYTE	W12
	BYTE		N06     Fs1 
	BYTE	W06
	BYTE		N13   
	BYTE	W06
	BYTE		N07     Cn1 
	BYTE		N04     As1 
	BYTE	W12
	BYTE		N05     Fs1 
	BYTE	W06
	BYTE		N14   
	BYTE	W06
// 001   ----------------------------------------
	BYTE		N05     Cn1 
	BYTE		N03     As1 
	BYTE	W12
	BYTE		N06     Fs1 
	BYTE	W06
	BYTE		N12   
	BYTE	W06
	BYTE		N06     Cn1 
	BYTE		N04     As1 
	BYTE	W12
	BYTE		N05     Fs1 
	BYTE	W06
	BYTE		N14   
	BYTE	W06
	BYTE		N05     Cn1 
	BYTE		N02     As1 
	BYTE	W12
	BYTE		N05     Fs1 
	BYTE	W06
	BYTE		N12   
	BYTE	W06
	BYTE		N06     Cn1 
	BYTE		N03     As1 
	BYTE	W12
	BYTE		N06     Fs1 
	BYTE	W06
	BYTE		N13   
	BYTE	W06
// 002   ----------------------------------------
	BYTE		N04     Cn1 
	BYTE		N05     En1 
	BYTE		N02     As1 
	BYTE	W06
	BYTE		N06     En1 
	BYTE	W06
	BYTE		N06   
	BYTE		N06     Fs1 
	BYTE	W06
	BYTE		N05     En1 
	BYTE		N14     Fs1 
	BYTE	W06
	BYTE		N06     Cn1 
	BYTE		N13     En1 
	BYTE		N03     As1 
	BYTE	W12
	BYTE		N05     Fs1 
	BYTE	W06
	BYTE		N13   
	BYTE	W06
	BYTE		N07     Cn1 
	BYTE		N05     As1 
	BYTE	W12
	BYTE		        Fs1 
	BYTE	W06
	BYTE		N14   
	BYTE	W06
	BYTE		N06     Cn1 
	BYTE		N03     As1 
	BYTE	W12
	BYTE		N06     Fs1 
	BYTE	W06
	BYTE		N13   
	BYTE	W06
// 003   ----------------------------------------
	BYTE		N07     Cn1 
	BYTE		N04     As1 
	BYTE	W12
	BYTE		N05     Fs1 
	BYTE	W06
	BYTE		N14   
	BYTE	W06
	BYTE		N06     Cn1 
	BYTE		N03     As1 
	BYTE	W12
	BYTE		N05     Fs1 
	BYTE	W06
	BYTE		N13   
	BYTE	W06
	BYTE		N07     Cn1 
	BYTE		N04     As1 
	BYTE	W12
	BYTE		N06     Fs1 
	BYTE	W06
	BYTE		N14   
	BYTE	W06
	BYTE		N05     Cn1 
	BYTE		N03     As1 
	BYTE	W12
	BYTE		N06     Fs1 
	BYTE	W06
	BYTE		N12   
	BYTE	W06
// 004   ----------------------------------------
	BYTE		N06     Cn1 
	BYTE		N04     As1 
	BYTE	W12
	BYTE		N06     Fs1 
	BYTE	W06
	BYTE		N13   
	BYTE	W06
	BYTE		N05     Cn1 
	BYTE		N02     As1 
	BYTE	W12
	BYTE		N05     Fs1 
	BYTE	W06
	BYTE		N12   
	BYTE	W06
	BYTE		N06     Cn1 
	BYTE		N04     As1 
	BYTE	W12
	BYTE		N06     Fs1 
	BYTE	W06
	BYTE		N13   
	BYTE	W06
	BYTE		N05     Cn1 
	BYTE		N02     As1 
	BYTE	W12
	BYTE		N05     Fs1 
	BYTE	W06
	BYTE		N14   
	BYTE	W06
// 005   ----------------------------------------
	BYTE		N06     Cn1 
	BYTE		N03     As1 
	BYTE	W12
	BYTE		N06     Fs1 
	BYTE	W06
	BYTE		N13   
	BYTE	W06
	BYTE		N05     Cn1 
	BYTE		N02     As1 
	BYTE	W12
	BYTE		N06     Fs1 
	BYTE	W06
	BYTE		N14   
	BYTE	W06
	BYTE		N05     Cn1 
	BYTE		N03     As1 
	BYTE	W12
	BYTE		N06     Fs1 
	BYTE	W06
	BYTE		N13   
	BYTE	W06
	BYTE		N07     Cn1 
	BYTE		N04     As1 
	BYTE	W12
	BYTE		N05     Fs1 
	BYTE	W06
	BYTE		N14   
	BYTE	W06
// 006   ----------------------------------------
	BYTE		N06     Cn1 
	BYTE		N06     En1 
	BYTE		N03     As1 
	BYTE	W06
	BYTE		N05     En1 
	BYTE	W06
	BYTE		N06   
	BYTE		N06     Fs1 
	BYTE	W06
	BYTE		        En1 
	BYTE		N13     Fs1 
	BYTE	W06
	BYTE		N07     Cn1 
	BYTE		N14     En1 
	BYTE		N04     As1 
	BYTE	W12
	BYTE		N05     Fs1 
	BYTE	W06
	BYTE		N14   
	BYTE	W06
	BYTE		N05     Cn1 
	BYTE		N03     As1 
	BYTE	W12
	BYTE		N05     En1 
	BYTE		N05     Fs1 
	BYTE	W06
	BYTE		N06     En1 
	BYTE		N12     Fs1 
	BYTE	W06
	BYTE		N06     Cn1 
	BYTE		N06     En1 
	BYTE		N03     As1 
	BYTE	W06
	BYTE		N05     En1 
	BYTE	W06
	BYTE		N15   
	BYTE		N05     Fs1 
	BYTE	W06
	BYTE		N14   
	BYTE	W06
// 007   ----------------------------------------
	BYTE		N05     Cn1 
	BYTE		N03     As1 
	BYTE	W12
	BYTE		N05     En1 
	BYTE		N06     Fs1 
	BYTE	W06
	BYTE		        En1 
	BYTE		N12     Fs1 
	BYTE	W06
	BYTE		N06     Cn1 
	BYTE		N06     En1 
	BYTE		N04     As1 
	BYTE	W06
	BYTE		N06     En1 
	BYTE	W06
	BYTE		N12   
	BYTE		N06     Fs1 
	BYTE	W06
	BYTE		N13   
	BYTE	W06
	BYTE		N04     Cn1 
	BYTE		N06     En1 
	BYTE		N02     As1 
	BYTE	W06
	BYTE		N06     En1 
	BYTE	W06
	BYTE		N06   
	BYTE		N06     Fs1 
	BYTE	W06
	BYTE		        En1 
	BYTE		N15     Fs1 
	BYTE	W06
	BYTE		N06     Cn1 
	BYTE		N14     En1 
	BYTE		N03     As1 
	BYTE	W12
	BYTE		N06     Fs1 
	BYTE	W06
	BYTE		N13   
	BYTE	W06
Jenova_10_B1:
// 008   ----------------------------------------
	BYTE		N04     Cn1   v127
	BYTE		N02     As1 
	BYTE		N30     Cs2 
	BYTE	W12
	BYTE		N06     Fs1 
	BYTE	W06
	BYTE		N14   
	BYTE	W06
	BYTE		N06     Cn1 
	BYTE		N03     As1 
	BYTE	W12
	BYTE		N05     Fs1 
	BYTE	W06
	BYTE		N13   
	BYTE	W06
	BYTE		N07     Cn1 
	BYTE		N04     As1 
	BYTE	W12
	BYTE		N06     Fs1 
	BYTE	W06
	BYTE		N14   
	BYTE	W06
	BYTE		N06     Cn1 
	BYTE		N03     As1 
	BYTE	W12
	BYTE		N06     Fs1 
	BYTE	W06
	BYTE		N13   
	BYTE	W06
// 009   ----------------------------------------
	BYTE		N07     Cn1 
	BYTE		N04     As1 
	BYTE	W12
	BYTE		N06     Fs1 
	BYTE	W06
	BYTE		N14   
	BYTE	W06
	BYTE		N05     Cn1 
	BYTE		N03     As1 
	BYTE	W12
	BYTE		N05     Fs1 
	BYTE	W06
	BYTE		N13   
	BYTE	W06
	BYTE		N06     Cn1 
	BYTE		N04     As1 
	BYTE	W12
	BYTE		N06     Fs1 
	BYTE	W06
	BYTE		N14   
	BYTE	W06
	BYTE		N05     Cn1 
	BYTE		N02     As1 
	BYTE	W12
	BYTE		N06     Fs1 
	BYTE	W06
	BYTE		N12   
	BYTE	W06
// 010   ----------------------------------------
	BYTE		N06     Cn1 
	BYTE		N03     As1 
	BYTE	W12
	BYTE		N05     Fs1 
	BYTE	W06
	BYTE		N14   
	BYTE	W06
	BYTE		N05     Cn1 
	BYTE		N02     As1 
	BYTE	W12
	BYTE		N06     Fs1 
	BYTE	W06
	BYTE		N15   
	BYTE	W06
	BYTE		N06     Cn1 
	BYTE		N03     As1 
	BYTE	W12
	BYTE		N06     Fs1 
	BYTE	W06
	BYTE		N13   
	BYTE	W06
	BYTE		N05     Cn1 
	BYTE		N02     As1 
	BYTE	W12
	BYTE		N06     Fs1 
	BYTE	W06
	BYTE		N14   
	BYTE	W06
// 011   ----------------------------------------
	BYTE		N06     Cn1 
	BYTE		N03     As1 
	BYTE	W12
	BYTE		N06     Fs1 
	BYTE	W06
	BYTE		N13   
	BYTE	W06
	BYTE		N07     Cn1 
	BYTE		N04     As1 
	BYTE	W12
	BYTE		N06     Fs1 
	BYTE	W06
	BYTE		N14   
	BYTE	W06
	BYTE		N06     Cn1 
	BYTE		N03     As1 
	BYTE	W12
	BYTE		N05     Fs1 
	BYTE	W06
	BYTE		N13   
	BYTE	W06
	BYTE		N07     Cn1 
	BYTE		N04     As1 
	BYTE	W12
	BYTE		N06     Fs1 
	BYTE	W06
	BYTE		N14   
	BYTE	W06
// 012   ----------------------------------------
	BYTE		N05     Cn1 
	BYTE		N05     En1 
	BYTE		N03     As1 
	BYTE	W06
	BYTE		N06     En1 
	BYTE	W06
	BYTE		N14   
	BYTE		N06     Fs1 
	BYTE	W06
	BYTE		N12   
	BYTE	W06
	BYTE		N07     Cn1 
	BYTE		N04     As1 
	BYTE	W12
	BYTE		N06     En1 
	BYTE		N06     Fs1 
	BYTE	W06
	BYTE		        En1 
	BYTE		N13     Fs1 
	BYTE	W06
	BYTE		N05     Cn1 
	BYTE		N13     En1 
	BYTE	W01
	BYTE		N02     As1 
	BYTE	W11
	BYTE		N05     Fs1 
	BYTE	W06
	BYTE		N13   
	BYTE	W06
	BYTE		N06     Cn1 
	BYTE		N04     As1 
	BYTE	W12
	BYTE		N06     Fs1 
	BYTE	W06
	BYTE		N13   
	BYTE	W06
// 013   ----------------------------------------
	BYTE		N05     Cn1 
	BYTE		N02     As1 
	BYTE	W12
	BYTE		N05     En1 
	BYTE		N05     Fs1 
	BYTE	W06
	BYTE		N06     En1 
	BYTE		N14     Fs1 
	BYTE	W06
	BYTE		N06     Cn1 
	BYTE		N05     En1 
	BYTE		N03     As1 
	BYTE	W06
	BYTE		N06     En1 
	BYTE	W06
	BYTE		N12   
	BYTE		N06     Fs1 
	BYTE	W06
	BYTE		N13   
	BYTE	W06
	BYTE		N05     Cn1 
	BYTE		N06     En1 
	BYTE		N02     As1 
	BYTE	W06
	BYTE		N06     En1 
	BYTE	W06
	BYTE		N05   
	BYTE		N05     Fs1 
	BYTE	W06
	BYTE		N06     En1 
	BYTE		N14     Fs1 
	BYTE	W06
	BYTE		N06     Cn1 
	BYTE		N13     En1 
	BYTE		N03     As1 
	BYTE	W12
	BYTE		N06     Fs1 
	BYTE	W06
	BYTE		N13   
	BYTE	W06
// 014   ----------------------------------------
	BYTE		N07     Cn1 
	BYTE		N04     As1 
	BYTE	W12
	BYTE		N06     Fs1 
	BYTE	W06
	BYTE		N14   
	BYTE	W06
	BYTE		N06     Cn1 
	BYTE		N03     As1 
	BYTE	W12
	BYTE		N05     Fs1 
	BYTE	W06
	BYTE		N13   
	BYTE	W06
	BYTE		N07     Cn1 
	BYTE		N04     As1 
	BYTE	W12
	BYTE		N06     Fs1 
	BYTE	W06
	BYTE		N14   
	BYTE	W06
	BYTE		N05     Cn1 
	BYTE		N03     As1 
	BYTE	W12
	BYTE		N06     Fs1 
	BYTE	W06
	BYTE		N13   
	BYTE	W06
// 015   ----------------------------------------
	BYTE		N07     Cn1 
	BYTE		N04     As1 
	BYTE	W12
	BYTE		N05     Fs1 
	BYTE	W06
	BYTE		N14   
	BYTE	W06
	BYTE		N06     Cn1 
	BYTE		N03     As1 
	BYTE	W12
	BYTE		N06     Fs1 
	BYTE	W06
	BYTE		N12   
	BYTE	W06
	BYTE		N06     Cn1 
	BYTE		N04     As1 
	BYTE	W12
	BYTE		N06     Fs1 
	BYTE	W06
	BYTE		N14   
	BYTE	W06
	BYTE		N05     Cn1 
	BYTE		N03     As1 
	BYTE	W12
	BYTE		N05     Fs1 
	BYTE	W06
	BYTE		N12   
	BYTE	W06
// 016   ----------------------------------------
	BYTE		N06     Cn1 
	BYTE		N03     As1 
	BYTE		N30     Cs2 
	BYTE	W12
	BYTE		N05     Fs1 
	BYTE	W06
	BYTE		N13   
	BYTE	W06
	BYTE		N05     Cn1 
	BYTE		N02     As1 
	BYTE	W12
	BYTE		N06     Fs1 
	BYTE	W06
	BYTE		N14   
	BYTE	W06
	BYTE		N06     Cn1 
	BYTE		N03     As1 
	BYTE	W12
	BYTE		N06     Fs1 
	BYTE	W06
	BYTE		N13   
	BYTE	W06
	BYTE		N07     Cn1 
	BYTE		N05     As1 
	BYTE	W12
	BYTE		N06     Fs1 
	BYTE	W06
	BYTE		N14   
	BYTE	W06
// 017   ----------------------------------------
	BYTE		N06     Cn1 
	BYTE		N03     As1 
	BYTE	W12
	BYTE		N06     Fs1 
	BYTE	W06
	BYTE		N13   
	BYTE	W06
	BYTE		N07     Cn1 
	BYTE		N04     As1 
	BYTE	W12
	BYTE		N06     Fs1 
	BYTE	W06
	BYTE		N14   
	BYTE	W06
	BYTE		N05     Cn1 
	BYTE		N03     As1 
	BYTE	W12
	BYTE		N06     Fs1 
	BYTE	W06
	BYTE		N13   
	BYTE	W06
	BYTE		N07     Cn1 
	BYTE		N04     As1 
	BYTE	W12
	BYTE		N05     Fs1 
	BYTE	W06
	BYTE		N14   
	BYTE	W06
// 018   ----------------------------------------
	BYTE		N05     Cn1 
	BYTE		N02     As1 
	BYTE	W12
	BYTE		N06     Fs1 
	BYTE	W06
	BYTE		N12   
	BYTE	W06
	BYTE		N06     Cn1 
	BYTE		N04     As1 
	BYTE	W12
	BYTE		N06     Fs1 
	BYTE	W06
	BYTE		N14   
	BYTE	W06
	BYTE		N05     Cn1 
	BYTE		N02     As1 
	BYTE	W12
	BYTE		N06     Fs1 
	BYTE	W06
	BYTE		N12   
	BYTE	W06
	BYTE		N06     Cn1 
	BYTE		N04     As1 
	BYTE	W12
	BYTE		N06     Fs1 
	BYTE	W06
	BYTE		N13   
	BYTE	W06
// 019   ----------------------------------------
	BYTE		N05     Cn1 
	BYTE		N03     As1 
	BYTE	W12
	BYTE		N06     Fs1 
	BYTE	W06
	BYTE		N14   
	BYTE	W06
	BYTE		N06     Cn1 
	BYTE		N03     As1 
	BYTE	W12
	BYTE		N06     Fs1 
	BYTE	W06
	BYTE		N13   
	BYTE	W06
	BYTE		N05     Cn1 
	BYTE		N02     As1 
	BYTE	W12
	BYTE		N06     Fs1 
	BYTE	W06
	BYTE		N14   
	BYTE	W06
	BYTE		N06     Cn1 
	BYTE		N03     As1 
	BYTE	W12
	BYTE		N06     Fs1 
	BYTE	W06
	BYTE		N13   
	BYTE	W06
// 020   ----------------------------------------
	BYTE		N07     Cn1 
	BYTE		N06     En1 
	BYTE		N04     As1 
	BYTE	W06
	BYTE		N06     En1 
	BYTE	W06
	BYTE		N13   
	BYTE		N05     Fs1 
	BYTE	W06
	BYTE		N14   
	BYTE	W06
	BYTE		N06     Cn1 
	BYTE		N03     As1 
	BYTE	W12
	BYTE		N06     En1 
	BYTE		N06     Fs1 
	BYTE	W06
	BYTE		        En1 
	BYTE		N13     Fs1 
	BYTE	W06
	BYTE		N07     Cn1 
	BYTE		N14     En1 
	BYTE		N04     As1 
	BYTE	W12
	BYTE		N05     Fs1 
	BYTE	W06
	BYTE		N14   
	BYTE	W06
	BYTE		N05     Cn1 
	BYTE		N03     As1 
	BYTE	W12
	BYTE		N06     Fs1 
	BYTE	W06
	BYTE		N13   
	BYTE	W06
// 021   ----------------------------------------
	BYTE		N06     Cn1 
	BYTE		N04     As1 
	BYTE	W12
	BYTE		N06     En1 
	BYTE		N06     Fs1 
	BYTE	W06
	BYTE		        En1 
	BYTE		N13     Fs1 
	BYTE	W06
	BYTE		N05     Cn1 
	BYTE		N06     En1 
	BYTE		N02     As1 
	BYTE	W06
	BYTE		N06     En1 
	BYTE	W06
	BYTE		N12   
	BYTE		N06     Fs1 
	BYTE	W06
	BYTE		N12   
	BYTE	W06
	BYTE		N06     Cn1 
	BYTE		N06     En1 
	BYTE		N03     As1 
	BYTE	W06
	BYTE		N06     En1 
	BYTE	W06
	BYTE		N06   
	BYTE		N06     Fs1 
	BYTE	W06
	BYTE		        En1 
	BYTE		N13     Fs1 
	BYTE	W06
	BYTE		N04     Cn1 
	BYTE		N12     En1 
	BYTE	W01
	BYTE		N02     As1 
	BYTE	W11
	BYTE		N05     Fs1 
	BYTE	W06
	BYTE		N15   
	BYTE	W06
// 022   ----------------------------------------
	BYTE		N06     Cn1 
	BYTE		N04     As1 
	BYTE	W12
	BYTE		N06     Fs1 
	BYTE	W06
	BYTE		N13   
	BYTE	W06
	BYTE		N05     Cn1 
	BYTE		N02     As1 
	BYTE	W12
	BYTE		N06     Fs1 
	BYTE	W06
	BYTE		N14   
	BYTE	W06
	BYTE		N06     Cn1 
	BYTE		N03     As1 
	BYTE	W12
	BYTE		N05     Fs1 
	BYTE	W06
	BYTE		N13   
	BYTE	W06
	BYTE		N07     Cn1 
	BYTE		N04     As1 
	BYTE	W12
	BYTE		N06     Fs1 
	BYTE	W06
	BYTE		N14   
	BYTE	W06
// 023   ----------------------------------------
	BYTE		N05     Cn1 
	BYTE		N03     As1 
	BYTE	W12
	BYTE		N06     Fs1 
	BYTE	W06
	BYTE		N13   
	BYTE	W06
	BYTE		N07     Cn1 
	BYTE		N04     As1 
	BYTE	W12
	BYTE		N05     Fs1 
	BYTE	W06
	BYTE		N14   
	BYTE	W06
	BYTE		N05     Cn1 
	BYTE		N03     As1 
	BYTE	W12
	BYTE		N05     Fs1 
	BYTE	W06
	BYTE		N13   
	BYTE	W06
	BYTE		N07     Cn1 
	BYTE		N04     As1 
	BYTE	W12
	BYTE		N06     Fs1 
	BYTE	W06
	BYTE		N14   
	BYTE	W06
// 024   ----------------------------------------
	BYTE		N05     Cn1 
	BYTE		N02     As1 
	BYTE		N30     Cs2 
	BYTE	W12
	BYTE		N06     Fs1 
	BYTE	W06
	BYTE		N12   
	BYTE	W06
	BYTE		N06     Cn1 
	BYTE		N04     As1 
	BYTE	W12
	BYTE		N06     Fs1 
	BYTE	W06
	BYTE		N13   
	BYTE	W06
	BYTE		N05     Cn1 
	BYTE		N02     As1 
	BYTE	W12
	BYTE		N05     Fs1 
	BYTE	W06
	BYTE		N15   
	BYTE	W06
	BYTE		N06     Cn1 
	BYTE		N04     As1 
	BYTE	W12
	BYTE		N06     Fs1 
	BYTE	W06
	BYTE		N13   
	BYTE	W06
// 025   ----------------------------------------
	BYTE		N05     Cn1 
	BYTE		N02     As1 
	BYTE	W12
	BYTE		N05     Fs1 
	BYTE	W06
	BYTE		N15   
	BYTE	W06
	BYTE		N06     Cn1 
	BYTE		N03     As1 
	BYTE	W12
	BYTE		N06     Fs1 
	BYTE	W06
	BYTE		N13   
	BYTE	W06
	BYTE		N07     Cn1 
	BYTE		N05     As1 
	BYTE	W12
	BYTE		N06     Fs1 
	BYTE	W06
	BYTE		N14   
	BYTE	W06
	BYTE		N06     Cn1 
	BYTE		N06     En1 
	BYTE		N03     As1 
	BYTE	W06
	BYTE		N06     En1 
	BYTE	W06
	BYTE		N06   
	BYTE		N06     Fs1 
	BYTE	W06
	BYTE		        En1 
	BYTE		N13     Fs1 
	BYTE	W06
// 026   ----------------------------------------
	BYTE		N06     Cn1 
	BYTE		N14     En1 
	BYTE	W01
	BYTE		N03     As1 
	BYTE	W11
	BYTE		N05     Fs1 
	BYTE	W06
	BYTE		N14   
	BYTE	W06
	BYTE		N05     Cn1 
	BYTE		N03     As1 
	BYTE	W12
	BYTE		N06     Fs1 
	BYTE	W06
	BYTE		N13   
	BYTE	W06
	BYTE		N07     Cn1 
	BYTE		N04     As1 
	BYTE	W12
	BYTE		N06     Fs1 
	BYTE	W06
	BYTE		N14   
	BYTE	W06
	BYTE		N05     Cn1 
	BYTE		N03     As1 
	BYTE	W12
	BYTE		N06     Fs1 
	BYTE	W06
	BYTE		N13   
	BYTE	W06
// 027   ----------------------------------------
	BYTE		N07     Cn1 
	BYTE		N04     As1 
	BYTE	W12
	BYTE		N05     Fs1 
	BYTE	W06
	BYTE		N13   
	BYTE	W06
	BYTE		N05     Cn1 
	BYTE		N03     As1 
	BYTE	W12
	BYTE		N06     Fs1 
	BYTE	W06
	BYTE		N15   
	BYTE	W06
	BYTE		N06     Cn1 
	BYTE		N04     As1 
	BYTE	W12
	BYTE		N05     Fs1 
	BYTE	W06
	BYTE		N13   
	BYTE	W06
	BYTE		N05     Cn1 
	BYTE		N02     As1 
	BYTE	W12
	BYTE		N06     Fs1 
	BYTE	W06
	BYTE		N14   
	BYTE	W06
// 028   ----------------------------------------
	BYTE		N06     Cn1 
	BYTE		N03     As1 
	BYTE	W12
	BYTE		N06     Fs1 
	BYTE	W06
	BYTE		N13   
	BYTE	W06
	BYTE		N07     Cn1 
	BYTE		N05     As1 
	BYTE	W12
	BYTE		N06     Fs1 
	BYTE	W06
	BYTE		N14   
	BYTE	W06
	BYTE		N06     Cn1 
	BYTE		N03     As1 
	BYTE	W12
	BYTE		N05     Fs1 
	BYTE	W06
	BYTE		N13   
	BYTE	W06
	BYTE		N07     Cn1 
	BYTE		N04     As1 
	BYTE	W12
	BYTE		N06     Fs1 
	BYTE	W06
	BYTE		N14   
	BYTE	W06
// 029   ----------------------------------------
	BYTE		N06     Cn1 
	BYTE		N03     As1 
	BYTE	W12
	BYTE		N06     Fs1 
	BYTE	W06
	BYTE		N13   
	BYTE	W06
	BYTE		N07     Cn1 
	BYTE		N04     As1 
	BYTE	W12
	BYTE		N06     Fs1 
	BYTE	W06
	BYTE		N14   
	BYTE	W06
	BYTE		N05     Cn1 
	BYTE		N02     As1 
	BYTE	W12
	BYTE		N06     Fs1 
	BYTE	W06
	BYTE		N12   
	BYTE	W06
	BYTE		N06     Cn1 
	BYTE		N05     En1 
	BYTE		N03     As1 
	BYTE	W06
	BYTE		N06     En1 
	BYTE	W06
	BYTE		N06   
	BYTE		N06     Fs1 
	BYTE	W06
	BYTE		        En1 
	BYTE		N13     Fs1 
	BYTE	W06
// 030   ----------------------------------------
	BYTE		N05     Cn1 
	BYTE		N12     En1 
	BYTE		N02     As1 
	BYTE	W12
	BYTE		N06     Fs1 
	BYTE	W06
	BYTE		N12   
	BYTE	W06
	BYTE		N06     Cn1 
	BYTE		N03     As1 
	BYTE	W12
	BYTE		N05     Fs1 
	BYTE	W06
	BYTE		N13   
	BYTE	W06
	BYTE		N05     Cn1 
	BYTE		N02     As1 
	BYTE	W12
	BYTE		N06     Fs1 
	BYTE	W06
	BYTE		N14   
	BYTE	W06
	BYTE		N06     Cn1 
	BYTE		N04     As1 
	BYTE	W12
	BYTE		N06     Fs1 
	BYTE	W06
	BYTE		N13   
	BYTE	W06
// 031   ----------------------------------------
	BYTE		N07     Cn1 
	BYTE		N05     As1 
	BYTE	W12
	BYTE		N06     Fs1 
	BYTE	W06
	BYTE		N14   
	BYTE	W06
	BYTE		N06     Cn1 
	BYTE		N03     As1 
	BYTE	W12
	BYTE		N06     Fs1 
	BYTE	W06
	BYTE		N13   
	BYTE	W06
	BYTE		N07     Cn1 
	BYTE		N04     As1 
	BYTE	W12
	BYTE		N06     Fs1 
	BYTE	W06
	BYTE		N14   
	BYTE	W06
	BYTE		N05     Cn1 
	BYTE		N03     As1 
	BYTE	W12
	BYTE		N06     Fs1 
	BYTE	W06
	BYTE		N13   
	BYTE	W06
// 032   ----------------------------------------
	BYTE		N07     Cn1 
	BYTE		N04     As1 
	BYTE	W12
	BYTE		N05     Fs1 
	BYTE	W06
	BYTE		N14   
	BYTE	W06
	BYTE		N06     Cn1 
	BYTE		N03     As1 
	BYTE	W12
	BYTE		N06     Fs1 
	BYTE	W06
	BYTE		N12   
	BYTE	W06
	BYTE		N06     Cn1 
	BYTE		N04     As1 
	BYTE	W12
	BYTE		N05     Fs1 
	BYTE	W06
	BYTE		N14   
	BYTE	W06
	BYTE		N05     Cn1 
	BYTE		N03     As1 
	BYTE	W12
	BYTE		N05     Fs1 
	BYTE	W06
	BYTE		N12   
	BYTE	W06
// 033   ----------------------------------------
	BYTE		N06     Cn1 
	BYTE		N04     As1 
	BYTE	W12
	BYTE		N06     Fs1 
	BYTE	W06
	BYTE		N13   
	BYTE	W06
	BYTE		N05     Cn1 
	BYTE		N03     As1 
	BYTE	W12
	BYTE		N06     Fs1 
	BYTE	W06
	BYTE		N15   
	BYTE	W06
	BYTE		N06     Cn1 
	BYTE		N04     As1 
	BYTE	W12
	BYTE		N06     Fs1 
	BYTE	W06
	BYTE		N13   
	BYTE	W06
	BYTE		N05     Cn1 
	BYTE		N06     En1 
	BYTE		N02     As1 
	BYTE	W06
	BYTE		N06     En1 
	BYTE	W06
	BYTE		N06   
	BYTE		N06     Fs1 
	BYTE	W06
	BYTE		        En1 
	BYTE		N14     Fs1 
	BYTE	W06
// 034   ----------------------------------------
	BYTE		N05     Cn1 
	BYTE		N13     En1 
	BYTE		N03     As1 
	BYTE	W12
	BYTE		N06     Fs1 
	BYTE	W06
	BYTE		N13   
	BYTE	W06
	BYTE		N07     Cn1 
	BYTE		N04     As1 
	BYTE	W12
	BYTE		N05     Fs1 
	BYTE	W06
	BYTE		N14   
	BYTE	W06
	BYTE		N05     Cn1 
	BYTE		N03     As1 
	BYTE	W12
	BYTE		N06     Fs1 
	BYTE	W06
	BYTE		N13   
	BYTE	W06
	BYTE		N07     Cn1 
	BYTE		N04     As1 
	BYTE	W12
	BYTE		N05     Fs1 
	BYTE	W06
	BYTE		N14   
	BYTE	W06
// 035   ----------------------------------------
	BYTE		N05     Cn1 
	BYTE		N03     As1 
	BYTE	W12
	BYTE		N06     Fs1 
	BYTE	W06
	BYTE		N12   
	BYTE	W06
	BYTE		N06     Cn1 
	BYTE		N04     As1 
	BYTE	W12
	BYTE		N06     Fs1 
	BYTE	W06
	BYTE		N14   
	BYTE	W06
	BYTE		N05     Cn1 
	BYTE		N03     As1 
	BYTE	W12
	BYTE		N06     Fs1 
	BYTE	W06
	BYTE		N12   
	BYTE	W06
	BYTE		N06     Cn1 
	BYTE		N04     As1 
	BYTE	W12
	BYTE		N06     Fs1 
	BYTE	W06
	BYTE		N13   
	BYTE	W06
// 036   ----------------------------------------
	BYTE		N05     Cn1 
	BYTE		N02     As1 
	BYTE	W12
	BYTE		N06     Fs1 
	BYTE	W06
	BYTE		N15   
	BYTE	W06
	BYTE		N06     Cn1 
	BYTE		N04     As1 
	BYTE	W12
	BYTE		N05     Fs1 
	BYTE	W06
	BYTE		N13   
	BYTE	W06
	BYTE		N05     Cn1 
	BYTE		N02     As1 
	BYTE	W12
	BYTE		N06     Fs1 
	BYTE	W06
	BYTE		N14   
	BYTE	W06
	BYTE		N06     Cn1 
	BYTE		N03     As1 
	BYTE	W12
	BYTE		N06     Fs1 
	BYTE	W06
	BYTE		N13   
	BYTE	W06
// 037   ----------------------------------------
	BYTE		N07     Cn1 
	BYTE		N04     As1 
	BYTE	W12
	BYTE		N06     Fs1 
	BYTE	W06
	BYTE		N14   
	BYTE	W06
	BYTE		N06     Cn1 
	BYTE		N03     As1 
	BYTE	W12
	BYTE		N06     Fs1 
	BYTE	W06
	BYTE		N13   
	BYTE	W06
	BYTE		N07     Cn1 
	BYTE		N04     As1 
	BYTE	W12
	BYTE		N06     Fs1 
	BYTE	W06
	BYTE		N14   
	BYTE	W06
	BYTE		N05     Cn1 
	BYTE		N05     En1 
	BYTE		N02     As1 
	BYTE	W06
	BYTE		N06     En1 
	BYTE	W06
	BYTE		N06   
	BYTE		N06     Fs1 
	BYTE	W06
	BYTE		        En1 
	BYTE		N12     Fs1 
	BYTE	W06
// 038   ----------------------------------------
	BYTE		N06     Cn1 
	BYTE		N14     En1 
	BYTE		N03     As1 
	BYTE	W12
	BYTE		N06     Fs1 
	BYTE	W06
	BYTE		N14   
	BYTE	W06
	BYTE		N05     Cn1 
	BYTE		N03     As1 
	BYTE	W12
	BYTE		N06     Fs1 
	BYTE	W06
	BYTE		N12   
	BYTE	W06
	BYTE		N06     Cn1 
	BYTE		N04     As1 
	BYTE	W12
	BYTE		N05     Fs1 
	BYTE	W06
	BYTE		N14   
	BYTE	W06
	BYTE		N05     Cn1 
	BYTE		N02     As1 
	BYTE	W12
	BYTE		N06     Fs1 
	BYTE	W06
	BYTE		N15   
	BYTE	W06
// 039   ----------------------------------------
	BYTE		N06     Cn1 
	BYTE		N04     As1 
	BYTE	W12
	BYTE		N06     Fs1 
	BYTE	W06
	BYTE		N13   
	BYTE	W06
	BYTE		N05     Cn1 
	BYTE		N02     As1 
	BYTE	W12
	BYTE		N05     Fs1 
	BYTE	W06
	BYTE		N15   
	BYTE	W06
	BYTE		N06     Cn1 
	BYTE		N03     As1 
	BYTE	W12
	BYTE		N05     Fs1 
	BYTE	W06
	BYTE		N13   
	BYTE	W06
	BYTE		N07     Cn1 
	BYTE		N04     As1 
	BYTE	W12
	BYTE		N06     Fs1 
	BYTE	W06
	BYTE		N06   
	BYTE	W06
// 040   ----------------------------------------
	BYTE		        Cn1 
	BYTE		N13     Fs1 
	BYTE		N12     An3   v100
	BYTE	W12
	BYTE		N03     As1   v127
	BYTE		N11     An3   v100
	BYTE	W12
	BYTE		N07     Cn1   v127
	BYTE		N12     Fs1 
	BYTE		N12     An3   v100
	BYTE	W12
	BYTE		        Fs1   v127
	BYTE		N11     An3   v100
	BYTE	W12
	BYTE		N05     Cn1   v127
	BYTE		N03     As1 
	BYTE		N12     An3   v100
	BYTE	W12
	BYTE		        Fs1   v127
	BYTE		N12     An3   v100
	BYTE	W12
	BYTE		N06     Cn1   v127
	BYTE		N14     Fs1 
	BYTE		N11     An3   v100
	BYTE	W12
	BYTE		N04     As1   v127
	BYTE		N12     An3   v100
	BYTE	W12
// 041   ----------------------------------------
	BYTE		N05     Cn1   v127
	BYTE		N11     Fs1 
	BYTE		N11     An3   v100
	BYTE	W12
	BYTE		N13     Fs1   v127
	BYTE		N12     An3   v100
	BYTE	W12
	BYTE		N06     Cn1   v127
	BYTE		N12     An3   v100
	BYTE	W01
	BYTE		N03     As1   v127
	BYTE	W11
	BYTE		N14     Fs1 
	BYTE		N11     An3   v100
	BYTE	W12
	BYTE		N05     Cn1   v127
	BYTE		N02     As1 
	BYTE		N12     An3   v100
	BYTE	W12
	BYTE		N13     Fs1   v127
	BYTE		N12     An3   v100
	BYTE	W12
	BYTE		N06     Cn1   v127
	BYTE		N03     As1 
	BYTE		N11     An3   v100
	BYTE	W12
	BYTE		N12     Fs1   v127
	BYTE		N12     An3   v100
	BYTE	W12
// 042   ----------------------------------------
	BYTE		N04     Cn1   v127
	BYTE		N12     Fs1 
	BYTE		N11     An3   v100
	BYTE	W12
	BYTE		N03     As1   v127
	BYTE		N12     An3   v100
	BYTE	W12
	BYTE		N06     Cn1   v127
	BYTE		N12     Fs1 
	BYTE		N12     An3   v100
	BYTE	W12
	BYTE		N14     Fs1   v127
	BYTE		N12     An3   v100
	BYTE	W12
	BYTE		N07     Cn1   v127
	BYTE		N05     As1 
	BYTE		N11     An3   v100
	BYTE	W12
	BYTE		N12     Fs1   v127
	BYTE		N12     An3   v100
	BYTE	W12
	BYTE		N05     Cn1   v127
	BYTE		N13     Fs1 
	BYTE		N11     An3   v100
	BYTE	W12
	BYTE		N04     As1   v127
	BYTE		N12     An3   v100
	BYTE	W12
// 043   ----------------------------------------
	BYTE		N07     Cn1   v127
	BYTE		N12     Fs1 
	BYTE		N12     An3   v100
	BYTE	W12
	BYTE		        Fs1   v127
	BYTE		N12     An3   v100
	BYTE	W12
	BYTE		N05     Cn1   v127
	BYTE		N03     As1 
	BYTE		N12     An3   v100
	BYTE	W12
	BYTE		N13     Fs1   v127
	BYTE		N12     An3   v100
	BYTE	W12
	BYTE		N06     Cn1   v127
	BYTE		N04     As1 
	BYTE		N11     An3   v100
	BYTE	W12
	BYTE		N12     Fs1   v127
	BYTE		N12     An3   v100
	BYTE	W12
	BYTE		N05     Cn1   v127
	BYTE		N02     As1 
	BYTE		N12     An3   v100
	BYTE	W12
	BYTE		        Fs1   v127
	BYTE		N12     An3   v100
	BYTE	W12
// 044   ----------------------------------------
	BYTE		N06     Cn1   v127
	BYTE		N14     Fs1 
	BYTE		N12     An3   v100
	BYTE	W12
	BYTE		N04     As1   v127
	BYTE		N12     An3   v100
	BYTE	W12
	BYTE		N05     Cn1   v127
	BYTE		N11     Fs1 
	BYTE		N11     An3   v100
	BYTE	W12
	BYTE		N13     Fs1   v127
	BYTE		N12     An3   v100
	BYTE	W12
	BYTE		N06     Cn1   v127
	BYTE		N03     As1 
	BYTE		N11     An3   v100
	BYTE	W12
	BYTE		N12     Fs1   v127
	BYTE		N12     An3   v100
	BYTE	W12
	BYTE		N04     Cn1   v127
	BYTE		N12     Fs1 
	BYTE		N11     An3   v100
	BYTE	W12
	BYTE		N03     As1   v127
	BYTE		N12     An3   v100
	BYTE	W12
// 045   ----------------------------------------
	BYTE		N06     Cn1   v127
	BYTE		N11     Fs1 
	BYTE		N11     An3   v100
	BYTE	W12
	BYTE		N14     Fs1   v127
	BYTE		N12     An3   v100
	BYTE	W12
	BYTE		N07     Cn1   v127
	BYTE		N12     An3   v100
	BYTE	W01
	BYTE		N04     As1   v127
	BYTE	W11
	BYTE		N12     Fs1 
	BYTE		N11     An3   v100
	BYTE	W12
	BYTE		N06     Cn1   v127
	BYTE		N03     As1 
	BYTE		N12     An3   v100
	BYTE	W12
	BYTE		N14     Fs1   v127
	BYTE		N12     An3   v100
	BYTE	W12
	BYTE		N07     Cn1   v127
	BYTE		N04     As1 
	BYTE		N12     An3   v100
	BYTE	W12
	BYTE		        Fs1   v127
	BYTE		N12     An3   v100
	BYTE	W12
// 046   ----------------------------------------
	BYTE		N05     Cn1   v127
	BYTE		N13     Fs1 
	BYTE		N11     An3   v100
	BYTE	W12
	BYTE		N04     As1   v127
	BYTE		N12     An3   v100
	BYTE	W12
	BYTE		N06     Cn1   v127
	BYTE		N11     Fs1 
	BYTE		N12     An3   v100
	BYTE	W12
	BYTE		        Fs1   v127
	BYTE		N11     An3   v100
	BYTE	W12
	BYTE		N05     Cn1   v127
	BYTE		N03     As1 
	BYTE		N12     An3   v100
	BYTE	W12
	BYTE		        Fs1   v127
	BYTE		N12     An3   v100
	BYTE	W12
	BYTE		N06     Cn1   v127
	BYTE		N13     Fs1 
	BYTE		N11     An3   v100
	BYTE	W12
	BYTE		N04     As1   v127
	BYTE		N12     An3   v100
	BYTE	W12
// 047   ----------------------------------------
	BYTE		N05     Cn1   v127
	BYTE		N12     Fs1 
	BYTE		N12     An3   v100
	BYTE	W12
	BYTE		N13     Fs1   v127
	BYTE		N12     An3   v100
	BYTE	W12
	BYTE		N06     Cn1   v127
	BYTE		N03     As1 
	BYTE		N11     An3   v100
	BYTE	W12
	BYTE		N14     Fs1   v127
	BYTE		N12     An3   v100
	BYTE	W12
	BYTE		N04     Cn1   v127
	BYTE		N02     As1 
	BYTE		N11     An3   v100
	BYTE	W12
	BYTE		N13     Fs1   v127
	BYTE		N12     An3   v100
	BYTE	W12
	BYTE		N06     Cn1   v127
	BYTE		N03     As1 
	BYTE		N11     An3   v100
	BYTE	W12
	BYTE		N14     Fs1   v127
	BYTE		N68     An3   v100
	BYTE	W12
// 048   ----------------------------------------
	BYTE		N07     Cn1   v127
	BYTE		N04     As1 
	BYTE		N32     Cs2 
	BYTE	W12
	BYTE		N05     Fs1 
	BYTE	W06
	BYTE		N14   
	BYTE	W06
	BYTE		N06     Cn1 
	BYTE		N03     As1 
	BYTE	W12
	BYTE		N06     Fs1 
	BYTE	W06
	BYTE		N13   
	BYTE	W06
	BYTE		N07     Cn1 
	BYTE		N04     As1 
	BYTE	W12
	BYTE		N06     Fs1 
	BYTE	W06
	BYTE		N14   
	BYTE	W06
	BYTE		N06     Cn1 
	BYTE		N03     As1 
	BYTE	W12
	BYTE		N06     Fs1 
	BYTE	W06
	BYTE		N13   
	BYTE	W06
// 049   ----------------------------------------
	BYTE		N07     Cn1 
	BYTE		N04     As1 
	BYTE	W12
	BYTE		N06     Fs1 
	BYTE	W06
	BYTE		N14   
	BYTE	W06
	BYTE		N05     Cn1 
	BYTE		N02     As1 
	BYTE	W12
	BYTE		N06     Fs1 
	BYTE	W06
	BYTE		N13   
	BYTE	W06
	BYTE		N06     Cn1 
	BYTE		N04     As1 
	BYTE	W12
	BYTE		N06     Fs1 
	BYTE	W06
	BYTE		N14   
	BYTE	W06
	BYTE		N05     Cn1 
	BYTE		N03     As1 
	BYTE	W12
	BYTE		N06     Fs1 
	BYTE	W06
	BYTE		N12   
	BYTE	W06
// 050   ----------------------------------------
	BYTE		N06     Cn1 
	BYTE		N04     As1 
	BYTE	W12
	BYTE		N06     Fs1 
	BYTE	W06
	BYTE		N13   
	BYTE	W06
	BYTE		N05     Cn1 
	BYTE		N02     As1 
	BYTE	W12
	BYTE		N06     Fs1 
	BYTE	W06
	BYTE		N14   
	BYTE	W06
	BYTE		N06     Cn1 
	BYTE		N03     As1 
	BYTE	W12
	BYTE		N05     Fs1 
	BYTE	W06
	BYTE		N13   
	BYTE	W06
	BYTE		N05     Cn1 
	BYTE		N02     As1 
	BYTE	W12
	BYTE		N06     Fs1 
	BYTE	W06
	BYTE		N14   
	BYTE	W06
// 051   ----------------------------------------
	BYTE		N06     Cn1 
	BYTE		N03     As1 
	BYTE	W12
	BYTE		N06     Fs1 
	BYTE	W06
	BYTE		N13   
	BYTE	W06
	BYTE		N07     Cn1 
	BYTE		N04     As1 
	BYTE	W12
	BYTE		N06     Fs1 
	BYTE	W06
	BYTE		N14   
	BYTE	W06
	BYTE		N06     Cn1 
	BYTE		N03     As1 
	BYTE	W12
	BYTE		N06     Fs1 
	BYTE	W06
	BYTE		N13   
	BYTE	W06
	BYTE		N07     Cn1 
	BYTE		N04     As1 
	BYTE	W12
	BYTE		N06     Fs1 
	BYTE	W06
	BYTE		N14   
	BYTE	W06
	BYTE	GoTo
	 POIN2	Jenova_10_B1
Jenova_10_B2:
// 052   ----------------------------------------
	BYTE		N05     Cn1   v127
	BYTE		N30     Cs2 
	BYTE	W01
	BYTE		N02     As1 
	BYTE	W11
	BYTE		N05     Fs1 
	BYTE	W06
	BYTE		N13   
	BYTE	W06
	BYTE		N07     Cn1 
	BYTE		N04     As1 
	BYTE	W12
	BYTE		N06     Fs1 
	BYTE	W06
	BYTE		N14   
	BYTE	W06
	BYTE		N05     Cn1 
	BYTE		N03     As1 
	BYTE	W12
	BYTE		N06     Fs1 
	BYTE	W06
	BYTE		N12   
	BYTE	W06
	BYTE		N06     Cn1 
	BYTE		N04     As1 
	BYTE	W12
	BYTE		N06     Fs1 
	BYTE	W06
	BYTE		N14   
	BYTE	W06
// 053   ----------------------------------------
	BYTE		N05     Cn1 
	BYTE		N02     As1 
	BYTE	W12
	BYTE		N06     Fs1 
	BYTE	W06
	BYTE		N15   
	BYTE	W06
	BYTE		N06     Cn1 
	BYTE		N04     As1 
	BYTE	W12
	BYTE		N06     Fs1 
	BYTE	W06
	BYTE		N13   
	BYTE	W06
	BYTE		N05     Cn1 
	BYTE		N02     As1 
	BYTE	W12
	BYTE		N06     Fs1 
	BYTE	W06
	BYTE		N14   
	BYTE	W06
	BYTE		N06     Cn1 
	BYTE		N03     As1 
	BYTE	W12
	BYTE		N06     Fs1 
	BYTE	W12
// 054   ----------------------------------------
	BYTE	FINE

//******************************************************//
	ALIGN 4

Jenova:
	BYTE	10	// NumTrks
	BYTE	0	// NumBlks
	BYTE	Jenova_pri	// Priority
	BYTE	Jenova_rev	// Reverb.

	POIN2	Jenova_grp

	POIN2	Jenova_1
	POIN2	Jenova_2
	POIN2	Jenova_3
	POIN2	Jenova_4
	POIN2	Jenova_5
	POIN2	Jenova_6
	POIN2	Jenova_7
	POIN2	Jenova_8
	POIN2	Jenova_9
	POIN2	Jenova_10

	
