//Event file generated from Sappy .s format.
	#include "MPlayDef.event"

	#define	JinTekken3_grp  voicegroup000
	#define	JinTekken3_pri  0
	#define	JinTekken3_rev  0
	#define	JinTekken3_mvl  127
	#define	JinTekken3_key  0
	#define	JinTekken3_tbs  1
	#define	JinTekken3_exg  0
	#define	JinTekken3_cmp  1

	// .rodata
	//	JinTekken3
	ALIGN 4


//**************** Track 1 (Midi-Chn.0) ****************//

JinTekken3_001:
// 000   ----------------------------------------
 BYTE   KEYSH   JinTekken3_key+0
 BYTE   TEMPO   132*JinTekken3_tbs/2
 BYTE   VOICE   29
 BYTE   VOL   42*JinTekken3_mvl/mxv
 BYTE   PAN   c_v+0
 BYTE   BEND   c_v+0
 BYTE   N05  Fs2  v120
 BYTE   W06
 BYTE   En2
 BYTE   W06
 BYTE   N11  Fs2
 BYTE   W12
 BYTE   An2
 BYTE   W12
 BYTE   N05  Fs2
 BYTE   W06
 BYTE   En2
 BYTE   W06
 BYTE   N11  Fs2
 BYTE   W12
 BYTE   An2
 BYTE   W12
 BYTE   N05  Fs2
 BYTE   W06
 BYTE   En2
 BYTE   W06
 BYTE   N08  Fs2
 BYTE   W12
// 001   ----------------------------------------
Label_0_FE3E1D:
 BYTE   N05  Fs2  v120
 BYTE   W06
 BYTE   En2
 BYTE   W06
 BYTE   N11  Fs2
 BYTE   W12
 BYTE   An2
 BYTE   W12
 BYTE   N05  Fs2
 BYTE   W06
 BYTE   En2
 BYTE   W06
 BYTE   N11  Fs2
 BYTE   W09
 BYTE   BEND   c_v-10
 BYTE   W02
 BYTE   Fs2
 BYTE   W01
 BYTE   En3
 BYTE   N06  Cn3
 BYTE   W05
 BYTE   BEND   c_v+0
 BYTE   W01
 BYTE   Cn2
 BYTE   N05  Cn3  v080
 BYTE   W05
 BYTE   BEND   c_v-16
 BYTE   W01
 BYTE   En3
 BYTE   N06  Bn2  v120
 BYTE   W06
 BYTE   BEND   c_v-12
 BYTE   N05  Bn2  v080
 BYTE   W05
 BYTE   BEND   c_v-12
 BYTE   W01
 BYTE   En3
 BYTE   N05  Fs2  v120
 BYTE   W06
 BYTE   En2
 BYTE   W06
 BYTE   PEND 
// 002   ----------------------------------------
Label_0_FE3E5A:
 BYTE   N05  Fs2  v120
 BYTE   W06
 BYTE   En2
 BYTE   W06
 BYTE   N11  Fs2
 BYTE   W12
 BYTE   An2
 BYTE   W12
 BYTE   N05  Fs2
 BYTE   W06
 BYTE   En2
 BYTE   W06
 BYTE   N11  Fs2
 BYTE   W12
 BYTE   An2
 BYTE   W12
 BYTE   N05  Fs2
 BYTE   W06
 BYTE   En2
 BYTE   W06
 BYTE   N08  Fs2
 BYTE   W12
 BYTE   PEND 
 BYTE   PATT
  POIN2 Label_0_FE3E1D
 BYTE   PATT
  POIN2 Label_0_FE3E5A
 BYTE   PATT
  POIN2 Label_0_FE3E1D
 BYTE   PATT
  POIN2 Label_0_FE3E5A
// 003   ----------------------------------------
 BYTE   N05  Fs2  v120
 BYTE   W06
 BYTE   En2
 BYTE   W06
 BYTE   Fs2
 BYTE   W12
 BYTE   N05
 BYTE   W06
 BYTE   En2
 BYTE   W06
 BYTE   Fs2
 BYTE   W12
 BYTE   N05
 BYTE   W06
 BYTE   N05
 BYTE   W06
 BYTE   N05
 BYTE   W06
 BYTE   N05
 BYTE   W12
 BYTE   N05
 BYTE   W12
 BYTE   N05
 BYTE   W06
 BYTE   PATT
  POIN2 Label_0_FE3E5A
 BYTE   PATT
  POIN2 Label_0_FE3E1D
 BYTE   PATT
  POIN2 Label_0_FE3E5A
 BYTE   PATT
  POIN2 Label_0_FE3E1D
 BYTE   PATT
  POIN2 Label_0_FE3E5A
 BYTE   PATT
  POIN2 Label_0_FE3E1D
 BYTE   PATT
  POIN2 Label_0_FE3E5A
 BYTE   PATT
  POIN2 Label_0_FE3E1D
// 004   ----------------------------------------
 BYTE   W96
// 005   ----------------------------------------
 BYTE   W96
// 006   ----------------------------------------
 BYTE   W96
// 007   ----------------------------------------
 BYTE   W96
// 008   ----------------------------------------
 BYTE   W96
// 009   ----------------------------------------
 BYTE   W96
// 010   ----------------------------------------
 BYTE   W96
// 011   ----------------------------------------
 BYTE   W96
// 012   ----------------------------------------
Label_0_FE3ED6:
 BYTE   PATT
  POIN2 Label_0_FE3E5A
 BYTE   PATT
  POIN2 Label_0_FE3E1D
 BYTE   PATT
  POIN2 Label_0_FE3E5A
 BYTE   PATT
  POIN2 Label_0_FE3E1D
 BYTE   PATT
  POIN2 Label_0_FE3E5A
 BYTE   PATT
  POIN2 Label_0_FE3E1D
 BYTE   PATT
  POIN2 Label_0_FE3E5A
 BYTE   PATT
  POIN2 Label_0_FE3E1D
// 013   ----------------------------------------
 BYTE   W96
// 014   ----------------------------------------
 BYTE   W96
// 015   ----------------------------------------
 BYTE   W96
// 016   ----------------------------------------
 BYTE   W96
// 017   ----------------------------------------
 BYTE   W96
// 018   ----------------------------------------
 BYTE   W96
// 019   ----------------------------------------
 BYTE   W96
// 020   ----------------------------------------
 BYTE   W96
// 021   ----------------------------------------
 BYTE   W96
// 022   ----------------------------------------
 BYTE   W96
// 023   ----------------------------------------
 BYTE   W96
// 024   ----------------------------------------
 BYTE   W96
// 025   ----------------------------------------
 BYTE   W96
// 026   ----------------------------------------
 BYTE   W96
// 027   ----------------------------------------
 BYTE   W96
// 028   ----------------------------------------
 BYTE   W96
// 029   ----------------------------------------
 BYTE   W96
// 030   ----------------------------------------
 BYTE   W96
// 031   ----------------------------------------
 BYTE   W96
// 032   ----------------------------------------
 BYTE   W96
// 033   ----------------------------------------
Label_0_FE3F12:
 BYTE   PAN   c_v+63
 BYTE   BEND   c_v-1
 BYTE   N32  Fs0  v120
 BYTE   W01
 BYTE   BEND   c_v-1
 BYTE   N32  Fs1
 BYTE   W01
 BYTE   BEND   c_v-1
 BYTE   N32  Fs2
 BYTE   W01
 BYTE   BEND   c_v-2
 BYTE   N32  Fs3  v092
 BYTE   W01
 BYTE   BEND   c_v-3
 BYTE   W01
 BYTE   Cn3
 BYTE   W01
 BYTE   Bn2
 BYTE   W01
 BYTE   An2
 BYTE   W01
 BYTE   Fs2
 BYTE   W01
 BYTE   En2
 BYTE   W01
 BYTE   Cs2
 BYTE   W01
 BYTE   Bn1
 BYTE   W01
 BYTE   Gs1
 BYTE   W01
 BYTE   Fs1
 BYTE   W01
 BYTE   Ds1
 BYTE   W01
 BYTE   Gs0
 BYTE   W01
 BYTE   En0
 BYTE   W01
 BYTE   Cn0
 BYTE   W01
 BYTE   Cn0
 BYTE   W06
 BYTE   En3
 BYTE   W11
 BYTE   PAN   c_v+63
 BYTE   W01
 BYTE   CnM2
 BYTE   BEND   c_v-1
 BYTE   N32  Fs0  v120
 BYTE   W01
 BYTE   BEND   c_v-1
 BYTE   N32  Fs1
 BYTE   W01
 BYTE   BEND   c_v-1
 BYTE   N32  Fs2
 BYTE   W01
 BYTE   BEND   c_v-2
 BYTE   N32  Fs3  v092
 BYTE   W01
 BYTE   BEND   c_v-3
 BYTE   W01
 BYTE   Cn3
 BYTE   W01
 BYTE   Bn2
 BYTE   W01
 BYTE   An2
 BYTE   W01
 BYTE   Fs2
 BYTE   W01
 BYTE   En2
 BYTE   W01
 BYTE   Cs2
 BYTE   W01
 BYTE   Bn1
 BYTE   W01
 BYTE   Gs1
 BYTE   W01
 BYTE   Fs1
 BYTE   W01
 BYTE   Ds1
 BYTE   W01
 BYTE   Gs0
 BYTE   W01
 BYTE   En0
 BYTE   W01
 BYTE   Cn0
 BYTE   W01
 BYTE   Cn0
 BYTE   W06
 BYTE   En3
 BYTE   W32
 BYTE   W03
 BYTE   PAN   c_v-64
 BYTE   W01
 BYTE   PEND 
// 034   ----------------------------------------
Label_0_FE3F8D:
 BYTE   PAN   c_v+0
 BYTE   W12
 BYTE   N05  Fs2  v120
 BYTE   W06
 BYTE   En2
 BYTE   W06
 BYTE   Fs2
 BYTE   W12
 BYTE   An2
 BYTE   W12
 BYTE   Fs2
 BYTE   W06
 BYTE   En2
 BYTE   W06
 BYTE   Fs2
 BYTE   W12
 BYTE   An2
 BYTE   W12
 BYTE   Fs2
 BYTE   W06
 BYTE   En2
 BYTE   W06
 BYTE   PEND 
 BYTE   PATT
  POIN2 Label_0_FE3F12
 BYTE   PATT
  POIN2 Label_0_FE3F8D
 BYTE   PATT
  POIN2 Label_0_FE3F12
 BYTE   PATT
  POIN2 Label_0_FE3F8D
 BYTE   PATT
  POIN2 Label_0_FE3F12
// 035   ----------------------------------------
 BYTE   PAN   c_v+63
 BYTE   BEND   c_v-1
 BYTE   N32  Fs0  v120
 BYTE   W01
 BYTE   BEND   c_v-1
 BYTE   N32  Fs1
 BYTE   W01
 BYTE   BEND   c_v-1
 BYTE   N32  Fs2
 BYTE   W01
 BYTE   BEND   c_v-2
 BYTE   N32  Fs3  v092
 BYTE   W01
 BYTE   BEND   c_v-3
 BYTE   W01
 BYTE   Cn3
 BYTE   W01
 BYTE   Bn2
 BYTE   W01
 BYTE   An2
 BYTE   W01
 BYTE   Fs2
 BYTE   W01
 BYTE   En2
 BYTE   W01
 BYTE   Cs2
 BYTE   W01
 BYTE   Bn1
 BYTE   W01
 BYTE   Gs1
 BYTE   W01
 BYTE   Fs1
 BYTE   W01
 BYTE   Ds1
 BYTE   W01
 BYTE   Gs0
 BYTE   W01
 BYTE   En0
 BYTE   W01
 BYTE   Cn0
 BYTE   W01
 BYTE   Cn0
 BYTE   W06
 BYTE   En3
 BYTE   W11
 BYTE   PAN   c_v+63
 BYTE   W60
 BYTE   W01
// 036   ----------------------------------------
 BYTE   GoTo
  POIN2 Label_0_FE3ED6
// 037   ----------------------------------------
 BYTE   PAN   c_v+0
 BYTE   N05  Fs2  v120
 BYTE   W06
 BYTE   En2
 BYTE   W06
 BYTE   N11  Fs2
 BYTE   W12
 BYTE   An2
 BYTE   W11
 BYTE   BEND   c_v+0
 BYTE   W01
 BYTE   FINE

//**************** Track 2 (Midi-Chn.1) ****************//

JinTekken3_002:
// 000   ----------------------------------------
 BYTE   KEYSH   JinTekken3_key+0
 BYTE   VOICE   18
 BYTE   PAN   c_v+0
 BYTE   VOL   55*JinTekken3_mvl/mxv
 BYTE   W96
// 001   ----------------------------------------
 BYTE   W96
// 002   ----------------------------------------
 BYTE   W96
// 003   ----------------------------------------
 BYTE   W96
// 004   ----------------------------------------
 BYTE   W96
// 005   ----------------------------------------
 BYTE   W96
// 006   ----------------------------------------
 BYTE   W96
// 007   ----------------------------------------
 BYTE   W96
// 008   ----------------------------------------
Label_1_FE4027:
 BYTE   N05  Cs2  v127
 BYTE   W12
 BYTE   N05
 BYTE   W12
 BYTE   Bn1
 BYTE   W06
 BYTE   N17  Cs2
 BYTE   W18
 BYTE   N05
 BYTE   W12
 BYTE   N05
 BYTE   W12
 BYTE   Bn1
 BYTE   W06
 BYTE   N17  Cs2
 BYTE   W18
 BYTE   PEND 
// 009   ----------------------------------------
Label_1_FE403C:
 BYTE   N05  En2  v127
 BYTE   W12
 BYTE   N05
 BYTE   W12
 BYTE   Cs2
 BYTE   W06
 BYTE   N17  En2
 BYTE   W18
 BYTE   N05  Fs2
 BYTE   W12
 BYTE   N05
 BYTE   W12
 BYTE   En2
 BYTE   W06
 BYTE   N17  Fs2
 BYTE   W18
 BYTE   PEND 
 BYTE   PATT
  POIN2 Label_1_FE4027
 BYTE   PATT
  POIN2 Label_1_FE403C
 BYTE   PATT
  POIN2 Label_1_FE4027
 BYTE   PATT
  POIN2 Label_1_FE403C
 BYTE   PATT
  POIN2 Label_1_FE4027
 BYTE   PATT
  POIN2 Label_1_FE403C
// 010   ----------------------------------------
 BYTE   N92  Gs2  v127
 BYTE   W96
// 011   ----------------------------------------
 BYTE   Fs2
 BYTE   W96
// 012   ----------------------------------------
 BYTE   En2
 BYTE   W96
// 013   ----------------------------------------
 BYTE   Fs2
 BYTE   W96
// 014   ----------------------------------------
 BYTE   Gs2
 BYTE   W96
// 015   ----------------------------------------
 BYTE   Fs2
 BYTE   W96
// 016   ----------------------------------------
 BYTE   En2
 BYTE   W96
// 017   ----------------------------------------
 BYTE   N44  Fs2
 BYTE   W48
 BYTE   Gs2
 BYTE   W48
// 018   ----------------------------------------
Label_1_FE4085:
 BYTE   PATT
  POIN2 Label_1_FE4027
 BYTE   PATT
  POIN2 Label_1_FE403C
 BYTE   PATT
  POIN2 Label_1_FE4027
 BYTE   PATT
  POIN2 Label_1_FE403C
 BYTE   PATT
  POIN2 Label_1_FE4027
 BYTE   PATT
  POIN2 Label_1_FE403C
 BYTE   PATT
  POIN2 Label_1_FE4027
 BYTE   PATT
  POIN2 Label_1_FE403C
// 019   ----------------------------------------
Label_1_FE40AD:
 BYTE   N11  Cs2  v127
 BYTE   W12
 BYTE   N05  Bn1
 BYTE   W06
 BYTE   Cs2
 BYTE   W12
 BYTE   N11  En2
 BYTE   W12
 BYTE   Fs2
 BYTE   W12
 BYTE   N05  En2
 BYTE   W06
 BYTE   N11  Fs2
 BYTE   W12
 BYTE   N05  Gn2
 BYTE   W06
 BYTE   Fs2
 BYTE   W06
 BYTE   N11  En2
 BYTE   W12
 BYTE   PEND 
 BYTE   PATT
  POIN2 Label_1_FE40AD
 BYTE   PATT
  POIN2 Label_1_FE40AD
 BYTE   PATT
  POIN2 Label_1_FE40AD
 BYTE   PATT
  POIN2 Label_1_FE40AD
 BYTE   PATT
  POIN2 Label_1_FE40AD
 BYTE   PATT
  POIN2 Label_1_FE40AD
 BYTE   PATT
  POIN2 Label_1_FE40AD
 BYTE   PATT
  POIN2 Label_1_FE40AD
 BYTE   PATT
  POIN2 Label_1_FE40AD
 BYTE   PATT
  POIN2 Label_1_FE40AD
 BYTE   PATT
  POIN2 Label_1_FE40AD
 BYTE   PATT
  POIN2 Label_1_FE40AD
 BYTE   PATT
  POIN2 Label_1_FE40AD
 BYTE   PATT
  POIN2 Label_1_FE40AD
 BYTE   PATT
  POIN2 Label_1_FE40AD
 BYTE   PATT
  POIN2 Label_1_FE40AD
 BYTE   PATT
  POIN2 Label_1_FE40AD
 BYTE   PATT
  POIN2 Label_1_FE40AD
 BYTE   PATT
  POIN2 Label_1_FE40AD
 BYTE   PATT
  POIN2 Label_1_FE40AD
 BYTE   PATT
  POIN2 Label_1_FE40AD
 BYTE   PATT
  POIN2 Label_1_FE40AD
 BYTE   PATT
  POIN2 Label_1_FE40AD
 BYTE   PATT
  POIN2 Label_1_FE40AD
 BYTE   PATT
  POIN2 Label_1_FE40AD
 BYTE   PATT
  POIN2 Label_1_FE40AD
 BYTE   PATT
  POIN2 Label_1_FE40AD
// 020   ----------------------------------------
 BYTE   GoTo
  POIN2 Label_1_FE4085
// 021   ----------------------------------------
 BYTE   N05  Cs2  v127
 BYTE   W12
 BYTE   N05
 BYTE   W12
 BYTE   Bn1
 BYTE   W12
 BYTE   FINE

//**************** Track 3 (Midi-Chn.2) ****************//

JinTekken3_003:
// 000   ----------------------------------------
 BYTE   KEYSH   JinTekken3_key+0
 BYTE   VOICE   39
 BYTE   PAN   c_v+0
 BYTE   VOL   55*JinTekken3_mvl/mxv
 BYTE   W96
// 001   ----------------------------------------
 BYTE   W96
// 002   ----------------------------------------
 BYTE   W96
// 003   ----------------------------------------
 BYTE   W96
// 004   ----------------------------------------
 BYTE   W96
// 005   ----------------------------------------
 BYTE   W96
// 006   ----------------------------------------
 BYTE   W96
// 007   ----------------------------------------
 BYTE   W96
// 008   ----------------------------------------
Label_2_FE416F:
 BYTE   N05  Cs1  v080
 BYTE   W12
 BYTE   N05
 BYTE   W12
 BYTE   Bn0
 BYTE   W06
 BYTE   N17  Cs1
 BYTE   W18
 BYTE   N05
 BYTE   W12
 BYTE   N05
 BYTE   W12
 BYTE   Bn0
 BYTE   W06
 BYTE   N17  Cs1
 BYTE   W18
 BYTE   PEND 
// 009   ----------------------------------------
Label_2_FE4184:
 BYTE   N05  En1  v080
 BYTE   W12
 BYTE   N05
 BYTE   W12
 BYTE   Cs1
 BYTE   W06
 BYTE   N17  En1
 BYTE   W18
 BYTE   N05  Fs1
 BYTE   W12
 BYTE   N05
 BYTE   W12
 BYTE   En1
 BYTE   W06
 BYTE   N17  Fs1
 BYTE   W18
 BYTE   PEND 
 BYTE   PATT
  POIN2 Label_2_FE416F
 BYTE   PATT
  POIN2 Label_2_FE4184
 BYTE   PATT
  POIN2 Label_2_FE416F
 BYTE   PATT
  POIN2 Label_2_FE4184
 BYTE   PATT
  POIN2 Label_2_FE416F
 BYTE   PATT
  POIN2 Label_2_FE4184
// 010   ----------------------------------------
 BYTE   N92  Gs1  v080
 BYTE   W96
// 011   ----------------------------------------
 BYTE   Fs1
 BYTE   W96
// 012   ----------------------------------------
 BYTE   En1
 BYTE   W96
// 013   ----------------------------------------
 BYTE   Fs1
 BYTE   W96
// 014   ----------------------------------------
 BYTE   Gs1
 BYTE   W96
// 015   ----------------------------------------
 BYTE   Fs1
 BYTE   W96
// 016   ----------------------------------------
 BYTE   En1
 BYTE   W96
// 017   ----------------------------------------
 BYTE   N44  Fs1
 BYTE   W48
 BYTE   Gs1
 BYTE   W48
// 018   ----------------------------------------
Label_2_FE41CD:
 BYTE   PATT
  POIN2 Label_2_FE416F
 BYTE   PATT
  POIN2 Label_2_FE4184
 BYTE   PATT
  POIN2 Label_2_FE416F
 BYTE   PATT
  POIN2 Label_2_FE4184
 BYTE   PATT
  POIN2 Label_2_FE416F
 BYTE   PATT
  POIN2 Label_2_FE4184
 BYTE   PATT
  POIN2 Label_2_FE416F
 BYTE   PATT
  POIN2 Label_2_FE4184
// 019   ----------------------------------------
Label_2_FE41F5:
 BYTE   N11  Cs1  v080
 BYTE   W12
 BYTE   N05  Bn0
 BYTE   W06
 BYTE   Cs1
 BYTE   W12
 BYTE   N11  En1
 BYTE   W12
 BYTE   Fs1
 BYTE   W12
 BYTE   N05  En1
 BYTE   W06
 BYTE   N11  Fs1
 BYTE   W12
 BYTE   N05  Gn1
 BYTE   W06
 BYTE   Fs1
 BYTE   W06
 BYTE   N11  En1
 BYTE   W12
 BYTE   PEND 
 BYTE   PATT
  POIN2 Label_2_FE41F5
 BYTE   PATT
  POIN2 Label_2_FE41F5
 BYTE   PATT
  POIN2 Label_2_FE41F5
 BYTE   PATT
  POIN2 Label_2_FE41F5
 BYTE   PATT
  POIN2 Label_2_FE41F5
 BYTE   PATT
  POIN2 Label_2_FE41F5
 BYTE   PATT
  POIN2 Label_2_FE41F5
 BYTE   PATT
  POIN2 Label_2_FE41F5
 BYTE   PATT
  POIN2 Label_2_FE41F5
 BYTE   PATT
  POIN2 Label_2_FE41F5
 BYTE   PATT
  POIN2 Label_2_FE41F5
 BYTE   PATT
  POIN2 Label_2_FE41F5
 BYTE   PATT
  POIN2 Label_2_FE41F5
 BYTE   PATT
  POIN2 Label_2_FE41F5
 BYTE   PATT
  POIN2 Label_2_FE41F5
 BYTE   PATT
  POIN2 Label_2_FE41F5
 BYTE   PATT
  POIN2 Label_2_FE41F5
 BYTE   PATT
  POIN2 Label_2_FE41F5
 BYTE   PATT
  POIN2 Label_2_FE41F5
 BYTE   PATT
  POIN2 Label_2_FE41F5
 BYTE   PATT
  POIN2 Label_2_FE41F5
 BYTE   PATT
  POIN2 Label_2_FE41F5
 BYTE   PATT
  POIN2 Label_2_FE41F5
 BYTE   PATT
  POIN2 Label_2_FE41F5
 BYTE   PATT
  POIN2 Label_2_FE41F5
 BYTE   PATT
  POIN2 Label_2_FE41F5
 BYTE   PATT
  POIN2 Label_2_FE41F5
// 020   ----------------------------------------
 BYTE   GoTo
  POIN2 Label_2_FE41CD
// 021   ----------------------------------------
 BYTE   N05  Cs1  v080
 BYTE   W12
 BYTE   N05
 BYTE   W12
 BYTE   Bn0
 BYTE   W12
 BYTE   FINE

//**************** Track 4 (Midi-Chn.3) ****************//

JinTekken3_004:
// 000   ----------------------------------------
 BYTE   KEYSH   JinTekken3_key+0
 BYTE   VOICE   18
 BYTE   PAN   c_v+0
 BYTE   VOL   55*JinTekken3_mvl/mxv
 BYTE   W96
// 001   ----------------------------------------
 BYTE   W96
// 002   ----------------------------------------
 BYTE   W96
// 003   ----------------------------------------
 BYTE   W96
// 004   ----------------------------------------
 BYTE   W96
// 005   ----------------------------------------
 BYTE   W96
// 006   ----------------------------------------
 BYTE   W96
// 007   ----------------------------------------
 BYTE   W96
// 008   ----------------------------------------
Label_3_FE42B7:
 BYTE   N05  Cs1  v080
 BYTE   W12
 BYTE   N05
 BYTE   W12
 BYTE   Bn0
 BYTE   W06
 BYTE   N17  Cs1
 BYTE   W18
 BYTE   N05
 BYTE   W12
 BYTE   N05
 BYTE   W12
 BYTE   Bn0
 BYTE   W06
 BYTE   N17  Cs1
 BYTE   W18
 BYTE   PEND 
// 009   ----------------------------------------
Label_3_FE42CC:
 BYTE   N05  En1  v080
 BYTE   W12
 BYTE   N05
 BYTE   W12
 BYTE   Cs1
 BYTE   W06
 BYTE   N17  En1
 BYTE   W18
 BYTE   N05  Fs1
 BYTE   W12
 BYTE   N05
 BYTE   W12
 BYTE   En1
 BYTE   W06
 BYTE   N17  Fs1
 BYTE   W18
 BYTE   PEND 
 BYTE   PATT
  POIN2 Label_3_FE42B7
 BYTE   PATT
  POIN2 Label_3_FE42CC
 BYTE   PATT
  POIN2 Label_3_FE42B7
 BYTE   PATT
  POIN2 Label_3_FE42CC
 BYTE   PATT
  POIN2 Label_3_FE42B7
 BYTE   PATT
  POIN2 Label_3_FE42CC
// 010   ----------------------------------------
 BYTE   N92  Gs1  v080
 BYTE   W96
// 011   ----------------------------------------
 BYTE   Fs1
 BYTE   W96
// 012   ----------------------------------------
 BYTE   En1
 BYTE   W96
// 013   ----------------------------------------
 BYTE   Fs1
 BYTE   W96
// 014   ----------------------------------------
 BYTE   Gs1
 BYTE   W96
// 015   ----------------------------------------
 BYTE   Fs1
 BYTE   W96
// 016   ----------------------------------------
 BYTE   En1
 BYTE   W96
// 017   ----------------------------------------
 BYTE   N44  Fs1
 BYTE   W48
 BYTE   Gs1
 BYTE   W48
// 018   ----------------------------------------
Label_3_FE4315:
 BYTE   PATT
  POIN2 Label_3_FE42B7
 BYTE   PATT
  POIN2 Label_3_FE42CC
 BYTE   PATT
  POIN2 Label_3_FE42B7
 BYTE   PATT
  POIN2 Label_3_FE42CC
 BYTE   PATT
  POIN2 Label_3_FE42B7
 BYTE   PATT
  POIN2 Label_3_FE42CC
 BYTE   PATT
  POIN2 Label_3_FE42B7
 BYTE   PATT
  POIN2 Label_3_FE42CC
// 019   ----------------------------------------
Label_3_FE433D:
 BYTE   N11  Cs1  v080
 BYTE   W12
 BYTE   N05  Bn0
 BYTE   W06
 BYTE   Cs1
 BYTE   W12
 BYTE   N11  En1
 BYTE   W12
 BYTE   Fs1
 BYTE   W12
 BYTE   N05  En1
 BYTE   W06
 BYTE   N11  Fs1
 BYTE   W12
 BYTE   N05  Gn1
 BYTE   W06
 BYTE   Fs1
 BYTE   W06
 BYTE   N11  En1
 BYTE   W12
 BYTE   PEND 
 BYTE   PATT
  POIN2 Label_3_FE433D
 BYTE   PATT
  POIN2 Label_3_FE433D
 BYTE   PATT
  POIN2 Label_3_FE433D
 BYTE   PATT
  POIN2 Label_3_FE433D
 BYTE   PATT
  POIN2 Label_3_FE433D
 BYTE   PATT
  POIN2 Label_3_FE433D
 BYTE   PATT
  POIN2 Label_3_FE433D
 BYTE   PATT
  POIN2 Label_3_FE433D
 BYTE   PATT
  POIN2 Label_3_FE433D
 BYTE   PATT
  POIN2 Label_3_FE433D
 BYTE   PATT
  POIN2 Label_3_FE433D
 BYTE   PATT
  POIN2 Label_3_FE433D
 BYTE   PATT
  POIN2 Label_3_FE433D
 BYTE   PATT
  POIN2 Label_3_FE433D
 BYTE   PATT
  POIN2 Label_3_FE433D
 BYTE   PATT
  POIN2 Label_3_FE433D
 BYTE   PATT
  POIN2 Label_3_FE433D
 BYTE   PATT
  POIN2 Label_3_FE433D
 BYTE   PATT
  POIN2 Label_3_FE433D
 BYTE   PATT
  POIN2 Label_3_FE433D
 BYTE   PATT
  POIN2 Label_3_FE433D
 BYTE   PATT
  POIN2 Label_3_FE433D
 BYTE   PATT
  POIN2 Label_3_FE433D
 BYTE   PATT
  POIN2 Label_3_FE433D
 BYTE   PATT
  POIN2 Label_3_FE433D
 BYTE   PATT
  POIN2 Label_3_FE433D
 BYTE   PATT
  POIN2 Label_3_FE433D
// 020   ----------------------------------------
 BYTE   GoTo
  POIN2 Label_3_FE4315
// 021   ----------------------------------------
 BYTE   N05  Cs1  v080
 BYTE   W12
 BYTE   N05
 BYTE   W12
 BYTE   Bn0
 BYTE   W12
 BYTE   FINE

//**************** Track 5 (Midi-Chn.4) ****************//

JinTekken3_005:
// 000   ----------------------------------------
 BYTE   KEYSH   JinTekken3_key+0
 BYTE   VOICE   46
 BYTE   PAN   c_v-64
 BYTE   VOL   19*JinTekken3_mvl/mxv
 BYTE   PAN   c_v-62
 BYTE   BEND   c_v-49
 BYTE   N92  Fs5  v112
 BYTE   N92  Fs6
 BYTE   W01
 BYTE   BEND   c_v-46
 BYTE   W01
 BYTE   BnM1
 BYTE   W01
 BYTE   Gn0
 BYTE   W01
 BYTE   Fn1
 BYTE   W01
 BYTE   Fs2
 BYTE   W01
 BYTE   En3
 BYTE   W01
 BYTE   W01
 BYTE   PAN   c_v-61
 BYTE   W01
 BYTE   W01
 BYTE   W01
 BYTE   W01
 BYTE   EnM2
 BYTE   W01
 BYTE   W01
 BYTE   W01
 BYTE   FnM2
 BYTE   W01
 BYTE   W01
 BYTE   FsM2
 BYTE   W01
 BYTE   W01
 BYTE   GnM2
 BYTE   W01
 BYTE   W01
 BYTE   GsM2
 BYTE   W01
 BYTE   W01
 BYTE   AnM2
 BYTE   W01
 BYTE   AsM2
 BYTE   W01
 BYTE   W01
 BYTE   BnM2
 BYTE   W01
 BYTE   CnM1
 BYTE   W01
 BYTE   W01
 BYTE   CsM1
 BYTE   W01
 BYTE   DnM1
 BYTE   W01
 BYTE   DsM1
 BYTE   W01
 BYTE   EnM1
 BYTE   W01
 BYTE   FnM1
 BYTE   W01
 BYTE   FsM1
 BYTE   W01
 BYTE   GnM1
 BYTE   W01
 BYTE   W01
 BYTE   GsM1
 BYTE   W01
 BYTE   AnM1
 BYTE   W01
 BYTE   AsM1  v023
 BYTE   W01
 BYTE   Cn0
 BYTE   W01
 BYTE   Cs0
 BYTE   W01
 BYTE   Dn0
 BYTE   W01
 BYTE   Ds0
 BYTE   W01
 BYTE   En0
 BYTE   W01
 BYTE   Fn0
 BYTE   W01
 BYTE   Fs0
 BYTE   W01
 BYTE   An0
 BYTE   W01
 BYTE   As0
 BYTE   W01
 BYTE   Bn0
 BYTE   W01
 BYTE   Cn1
 BYTE   W01
 BYTE   Cs1
 BYTE   W01
 BYTE   Ds1
 BYTE   W01
 BYTE   En1
 BYTE   W01
 BYTE   Fn1
 BYTE   W01
 BYTE   Gn1  v044
 BYTE   W01
 BYTE   An1
 BYTE   W01
 BYTE   Bn1
 BYTE   W01
 BYTE   Cn2
 BYTE   W01
 BYTE   Cs2
 BYTE   W01
 BYTE   Ds2
 BYTE   W01
 BYTE   En2
 BYTE   W01
 BYTE   Fs2  v055
 BYTE   W01
 BYTE   An2
 BYTE   W01
 BYTE   As2
 BYTE   W01
 BYTE   Cn3
 BYTE   W01
 BYTE   Cs3
 BYTE   BEND   c_v-1
 BYTE   W01
 BYTE   PAN   c_v-1
 BYTE   BEND   c_v-1
 BYTE   W01
 BYTE   PAN   c_v+1
 BYTE   BEND   c_v-1
 BYTE   W01
 BYTE   PAN   c_v+2
 BYTE   BEND   c_v-2
 BYTE   W01
 BYTE   PAN   c_v+6
 BYTE   BEND   c_v-3
 BYTE   W01
 BYTE   PAN   c_v+7
 BYTE   BEND   c_v-4
 BYTE   W01
 BYTE   PAN   c_v+9
 BYTE   BEND   c_v-5
 BYTE   W01
 BYTE   PAN   c_v+11
 BYTE   BEND   c_v-5
 BYTE   W01
 BYTE   PAN   c_v+13
 BYTE   BEND   c_v-7
 BYTE   W01
 BYTE   PAN   c_v+15
 BYTE   BEND   c_v-9
 BYTE   W01
 BYTE   PAN   c_v+16
 BYTE   BEND   c_v-11
 BYTE   W01
 BYTE   PAN   c_v+18
 BYTE   BEND   c_v-13
 BYTE   W01
 BYTE   PAN   c_v+20
 BYTE   Dn5
 BYTE   BEND   c_v-15
 BYTE   W01
 BYTE   PAN   c_v+24
 BYTE   BEND   c_v-17
 BYTE   W01
 BYTE   PAN   c_v+26
 BYTE   BEND   c_v-20
 BYTE   W01
 BYTE   PAN   c_v+28
 BYTE   BEND   c_v-23
 BYTE   W01
 BYTE   PAN   c_v+30
 BYTE   BEND   c_v-24
 BYTE   W01
 BYTE   PAN   c_v+32
 BYTE   BEND   c_v-28
 BYTE   W01
 BYTE   PAN   c_v+34
 BYTE   BEND   c_v-31
 BYTE   W01
 BYTE   PAN   c_v+36
 BYTE   BEND   c_v-35
 BYTE   W01
 BYTE   PAN   c_v+38
 BYTE   Gs6
 BYTE   BEND   c_v-38
 BYTE   W01
 BYTE   PAN   c_v+42
 BYTE   BEND   c_v-42
 BYTE   W01
 BYTE   PAN   c_v+44
 BYTE   BEND   c_v-46
 BYTE   W01
 BYTE   PAN   c_v+46
 BYTE   BEND   c_v-51
 BYTE   W01
 BYTE   PAN   c_v+48
 BYTE   BEND   c_v-53
 BYTE   W01
 BYTE   PAN   c_v+51
 BYTE   BEND   c_v-58
 BYTE   W01
 BYTE   PAN   c_v+53
 BYTE   BEND   c_v-63
 BYTE   W01
 BYTE   PAN   c_v+55
 BYTE   BEND   c_v-64
 BYTE   W01
 BYTE   PAN   c_v+57
 BYTE   En8
 BYTE   W01
 BYTE   Fs8
 BYTE   W01
// 001   ----------------------------------------
 BYTE   Gn8
 BYTE   W96
// 002   ----------------------------------------
Label_4_FE4510:
 BYTE   PAN   c_v+62
 BYTE   BEND   c_v-49
 BYTE   N92  Fs5  v112
 BYTE   N92  Fs6
 BYTE   W01
 BYTE   BEND   c_v-46
 BYTE   W01
 BYTE   BnM1
 BYTE   W01
 BYTE   Gn0
 BYTE   W01
 BYTE   Fn1
 BYTE   W01
 BYTE   Fn2
 BYTE   W01
 BYTE   En3
 BYTE   W01
 BYTE   W01
 BYTE   PAN   c_v+61
 BYTE   W01
 BYTE   W01
 BYTE   W01
 BYTE   W01
 BYTE   En8
 BYTE   W01
 BYTE   W01
 BYTE   W01
 BYTE   Ds8
 BYTE   W01
 BYTE   W01
 BYTE   Dn8
 BYTE   W01
 BYTE   W01
 BYTE   Cs8
 BYTE   W01
 BYTE   W01
 BYTE   Cn8
 BYTE   W01
 BYTE   W01
 BYTE   Bn7
 BYTE   W01
 BYTE   As7
 BYTE   W01
 BYTE   An7
 BYTE   W01
 BYTE   W01
 BYTE   Gs7
 BYTE   W01
 BYTE   Gn7
 BYTE   W01
 BYTE   W01
 BYTE   Fs7
 BYTE   W01
 BYTE   Fn7  v112
 BYTE   W01
 BYTE   W01
 BYTE   Ds7
 BYTE   W01
 BYTE   Dn7
 BYTE   W01
 BYTE   Cs7
 BYTE   W01
 BYTE   Cn7
 BYTE   W01
 BYTE   Bn6
 BYTE   W01
 BYTE   W01
 BYTE   As6  v105
 BYTE   W01
 BYTE   Gs6
 BYTE   W01
 BYTE   Gn6
 BYTE   W01
 BYTE   Fs6
 BYTE   W01
 BYTE   En6
 BYTE   W01
 BYTE   Ds6
 BYTE   W01
 BYTE   Dn6
 BYTE   W01
 BYTE   Cs6
 BYTE   W01
 BYTE   Bn5
 BYTE   W01
 BYTE   As5
 BYTE   W01
 BYTE   An5
 BYTE   W01
 BYTE   Gn5
 BYTE   W01
 BYTE   Fs5
 BYTE   W01
 BYTE   Fn5
 BYTE   W01
 BYTE   En5
 BYTE   W01
 BYTE   Dn5  v085
 BYTE   W01
 BYTE   Cn5
 BYTE   W01
 BYTE   As4
 BYTE   W01
 BYTE   An4
 BYTE   W01
 BYTE   Gn4
 BYTE   W01
 BYTE   Fs4
 BYTE   W01
 BYTE   En4
 BYTE   W01
 BYTE   Ds4
 BYTE   W01
 BYTE   Cs4  v072
 BYTE   W01
 BYTE   As3
 BYTE   W01
 BYTE   An3
 BYTE   W01
 BYTE   Gn3
 BYTE   W01
 BYTE   Fs3
 BYTE   BEND   c_v-1
 BYTE   W01
 BYTE   PAN   c_v+0
 BYTE   BEND   c_v-1
 BYTE   W01
 BYTE   PAN   c_v-2
 BYTE   BEND   c_v-1
 BYTE   W01
 BYTE   PAN   c_v-3
 BYTE   BEND   c_v-2
 BYTE   W01
 BYTE   PAN   c_v-7
 BYTE   BEND   c_v-3
 BYTE   W01
 BYTE   PAN   c_v-8
 BYTE   BEND   c_v-4
 BYTE   W01
 BYTE   PAN   c_v-10
 BYTE   BEND   c_v-5
 BYTE   W01
 BYTE   PAN   c_v-12
 BYTE   BEND   c_v-5
 BYTE   W01
 BYTE   PAN   c_v-14
 BYTE   BEND   c_v-7
 BYTE   W01
 BYTE   PAN   c_v-16
 BYTE   BEND   c_v-9
 BYTE   W01
 BYTE   PAN   c_v-18
 BYTE   BEND   c_v-11
 BYTE   W01
 BYTE   PAN   c_v-19
 BYTE   BEND   c_v-13
 BYTE   W01
 BYTE   PAN   c_v-21
 BYTE   Fn1
 BYTE   BEND   c_v-15
 BYTE   W01
 BYTE   PAN   c_v-25
 BYTE   BEND   c_v-17
 BYTE   W01
 BYTE   PAN   c_v-27
 BYTE   BEND   c_v-20
 BYTE   W01
 BYTE   PAN   c_v-29
 BYTE   BEND   c_v-23
 BYTE   W01
 BYTE   PAN   c_v-31
 BYTE   BEND   c_v-24
 BYTE   W01
 BYTE   PAN   c_v-33
 BYTE   BEND   c_v-28
 BYTE   W01
 BYTE   PAN   c_v-35
 BYTE   BEND   c_v-31
 BYTE   W01
 BYTE   PAN   c_v-37
 BYTE   BEND   c_v-35
 BYTE   W01
 BYTE   PAN   c_v-39
 BYTE   BnM1
 BYTE   BEND   c_v-38
 BYTE   W01
 BYTE   PAN   c_v-43
 BYTE   BEND   c_v-42
 BYTE   W01
 BYTE   PAN   c_v-46
 BYTE   BEND   c_v-46
 BYTE   W01
 BYTE   PAN   c_v-48
 BYTE   BEND   c_v-51
 BYTE   W01
 BYTE   PAN   c_v-50
 BYTE   BEND   c_v-53
 BYTE   W01
 BYTE   PAN   c_v-52
 BYTE   BEND   c_v-58
 BYTE   W01
 BYTE   PAN   c_v-55
 BYTE   BEND   c_v-63
 BYTE   W01
 BYTE   PAN   c_v-57
 BYTE   BEND   c_v-64
 BYTE   W01
 BYTE   PAN   c_v-59
 BYTE   DsM2
 BYTE   W01
 BYTE   CnM2
 BYTE   W01
 BYTE   PEND 
// 003   ----------------------------------------
 BYTE   W96
// 004   ----------------------------------------
 BYTE   DnM2
 BYTE   BEND   c_v-49
 BYTE   N92  Fs5
 BYTE   N92  Fs6
 BYTE   W01
 BYTE   BEND   c_v-46
 BYTE   W01
 BYTE   BnM1
 BYTE   W01
 BYTE   Gn0
 BYTE   W01
 BYTE   Fn1
 BYTE   W01
 BYTE   Fs2
 BYTE   W01
 BYTE   En3
 BYTE   W01
 BYTE   W01
 BYTE   PAN   c_v-61
 BYTE   W01
 BYTE   W01
 BYTE   W01
 BYTE   W01
 BYTE   EnM2
 BYTE   W01
 BYTE   W01
 BYTE   W01
 BYTE   FnM2
 BYTE   W01
 BYTE   W01
 BYTE   FsM2
 BYTE   W01
 BYTE   W01
 BYTE   GnM2
 BYTE   W01
 BYTE   W01
 BYTE   GsM2
 BYTE   W01
 BYTE   W01
 BYTE   AnM2
 BYTE   W01
 BYTE   AsM2
 BYTE   W01
 BYTE   W01
 BYTE   BnM2
 BYTE   W01
 BYTE   CnM1
 BYTE   W01
 BYTE   W01
 BYTE   CsM1
 BYTE   W01
 BYTE   DnM1
 BYTE   W01
 BYTE   DsM1
 BYTE   W01
 BYTE   EnM1
 BYTE   W01
 BYTE   FnM1
 BYTE   W01
 BYTE   FsM1
 BYTE   W01
 BYTE   GnM1
 BYTE   W01
 BYTE   W01
 BYTE   GsM1
 BYTE   W01
 BYTE   AnM1
 BYTE   W01
 BYTE   AsM1  v023
 BYTE   W01
 BYTE   Cn0
 BYTE   W01
 BYTE   Cs0
 BYTE   W01
 BYTE   Dn0
 BYTE   W01
 BYTE   Ds0
 BYTE   W01
 BYTE   En0
 BYTE   W01
 BYTE   Fn0
 BYTE   W01
 BYTE   Fs0
 BYTE   W01
 BYTE   An0
 BYTE   W01
 BYTE   As0
 BYTE   W01
 BYTE   Bn0
 BYTE   W01
 BYTE   Cn1
 BYTE   W01
 BYTE   Cs1
 BYTE   W01
 BYTE   Ds1
 BYTE   W01
 BYTE   En1
 BYTE   W01
 BYTE   Fn1
 BYTE   W01
 BYTE   Gn1  v044
 BYTE   W01
 BYTE   An1
 BYTE   W01
 BYTE   Bn1
 BYTE   W01
 BYTE   Cn2
 BYTE   W01
 BYTE   Cs2
 BYTE   W01
 BYTE   Ds2
 BYTE   W01
 BYTE   En2
 BYTE   W01
 BYTE   Fs2  v055
 BYTE   W01
 BYTE   An2
 BYTE   W01
 BYTE   As2
 BYTE   W01
 BYTE   Cn3
 BYTE   W01
 BYTE   Cs3
 BYTE   BEND   c_v-1
 BYTE   W01
 BYTE   PAN   c_v-1
 BYTE   BEND   c_v-1
 BYTE   W01
 BYTE   PAN   c_v+1
 BYTE   BEND   c_v-1
 BYTE   W01
 BYTE   PAN   c_v+2
 BYTE   BEND   c_v-2
 BYTE   W01
 BYTE   PAN   c_v+6
 BYTE   BEND   c_v-3
 BYTE   W01
 BYTE   PAN   c_v+7
 BYTE   BEND   c_v-4
 BYTE   W01
 BYTE   PAN   c_v+9
 BYTE   BEND   c_v-5
 BYTE   W01
 BYTE   PAN   c_v+11
 BYTE   BEND   c_v-5
 BYTE   W01
 BYTE   PAN   c_v+13
 BYTE   BEND   c_v-7
 BYTE   W01
 BYTE   PAN   c_v+15
 BYTE   BEND   c_v-9
 BYTE   W01
 BYTE   PAN   c_v+16
 BYTE   BEND   c_v-11
 BYTE   W01
 BYTE   PAN   c_v+18
 BYTE   BEND   c_v-13
 BYTE   W01
 BYTE   PAN   c_v+20
 BYTE   Dn5
 BYTE   BEND   c_v-15
 BYTE   W01
 BYTE   PAN   c_v+24
 BYTE   BEND   c_v-17
 BYTE   W01
 BYTE   PAN   c_v+26
 BYTE   BEND   c_v-20
 BYTE   W01
 BYTE   PAN   c_v+28
 BYTE   BEND   c_v-23
 BYTE   W01
 BYTE   PAN   c_v+30
 BYTE   BEND   c_v-24
 BYTE   W01
 BYTE   PAN   c_v+32
 BYTE   BEND   c_v-28
 BYTE   W01
 BYTE   PAN   c_v+34
 BYTE   BEND   c_v-31
 BYTE   W01
 BYTE   PAN   c_v+36
 BYTE   BEND   c_v-35
 BYTE   W01
 BYTE   PAN   c_v+38
 BYTE   Gs6
 BYTE   BEND   c_v-38
 BYTE   W01
 BYTE   PAN   c_v+42
 BYTE   BEND   c_v-42
 BYTE   W01
 BYTE   PAN   c_v+44
 BYTE   BEND   c_v-46
 BYTE   W01
 BYTE   PAN   c_v+46
 BYTE   BEND   c_v-51
 BYTE   W01
 BYTE   PAN   c_v+48
 BYTE   BEND   c_v-53
 BYTE   W01
 BYTE   PAN   c_v+51
 BYTE   BEND   c_v-58
 BYTE   W01
 BYTE   PAN   c_v+53
 BYTE   BEND   c_v-63
 BYTE   W01
 BYTE   PAN   c_v+55
 BYTE   BEND   c_v-64
 BYTE   W01
 BYTE   PAN   c_v+57
 BYTE   En8
 BYTE   W01
 BYTE   Fs8
 BYTE   W01
// 005   ----------------------------------------
 BYTE   Gn8
 BYTE   W96
 BYTE   PATT
  POIN2 Label_4_FE4510
// 006   ----------------------------------------
 BYTE   W96
// 007   ----------------------------------------
Label_4_FE4746:
 BYTE   PAN   c_v-62
 BYTE   BEND   c_v-49
 BYTE   N92  Fs5  v112
 BYTE   N92  Fs6
 BYTE   W01
 BYTE   BEND   c_v-46
 BYTE   W01
 BYTE   BnM1
 BYTE   W01
 BYTE   Gn0
 BYTE   W01
 BYTE   Fn1
 BYTE   W01
 BYTE   Fs2
 BYTE   W01
 BYTE   En3
 BYTE   W01
 BYTE   W01
 BYTE   PAN   c_v-61
 BYTE   W01
 BYTE   W01
 BYTE   W01
 BYTE   W01
 BYTE   EnM2
 BYTE   W01
 BYTE   W01
 BYTE   W01
 BYTE   FnM2
 BYTE   W01
 BYTE   W01
 BYTE   FsM2
 BYTE   W01
 BYTE   W01
 BYTE   GnM2
 BYTE   W01
 BYTE   W01
 BYTE   GsM2
 BYTE   W01
 BYTE   W01
 BYTE   AnM2
 BYTE   W01
 BYTE   AsM2
 BYTE   W01
 BYTE   W01
 BYTE   BnM2
 BYTE   W01
 BYTE   CnM1
 BYTE   W01
 BYTE   W01
 BYTE   CsM1
 BYTE   W01
 BYTE   DnM1
 BYTE   W01
 BYTE   DsM1
 BYTE   W01
 BYTE   EnM1
 BYTE   W01
 BYTE   FnM1
 BYTE   W01
 BYTE   FsM1
 BYTE   W01
 BYTE   GnM1
 BYTE   W01
 BYTE   W01
 BYTE   GsM1
 BYTE   W01
 BYTE   AnM1
 BYTE   W01
 BYTE   AsM1  v023
 BYTE   W01
 BYTE   Cn0
 BYTE   W01
 BYTE   Cs0
 BYTE   W01
 BYTE   Dn0
 BYTE   W01
 BYTE   Ds0
 BYTE   W01
 BYTE   En0
 BYTE   W01
 BYTE   Fn0
 BYTE   W01
 BYTE   Fs0
 BYTE   W01
 BYTE   An0
 BYTE   W01
 BYTE   As0
 BYTE   W01
 BYTE   Bn0
 BYTE   W01
 BYTE   Cn1
 BYTE   W01
 BYTE   Cs1
 BYTE   W01
 BYTE   Ds1
 BYTE   W01
 BYTE   En1
 BYTE   W01
 BYTE   Fn1
 BYTE   W01
 BYTE   Gn1  v044
 BYTE   W01
 BYTE   An1
 BYTE   W01
 BYTE   Bn1
 BYTE   W01
 BYTE   Cn2
 BYTE   W01
 BYTE   Cs2
 BYTE   W01
 BYTE   Ds2
 BYTE   W01
 BYTE   En2
 BYTE   W01
 BYTE   Fs2  v055
 BYTE   W01
 BYTE   An2
 BYTE   W01
 BYTE   As2
 BYTE   W01
 BYTE   Cn3
 BYTE   W01
 BYTE   Cs3
 BYTE   BEND   c_v-1
 BYTE   W01
 BYTE   PAN   c_v-1
 BYTE   BEND   c_v-1
 BYTE   W01
 BYTE   PAN   c_v+1
 BYTE   BEND   c_v-1
 BYTE   W01
 BYTE   PAN   c_v+2
 BYTE   BEND   c_v-2
 BYTE   W01
 BYTE   PAN   c_v+6
 BYTE   BEND   c_v-3
 BYTE   W01
 BYTE   PAN   c_v+7
 BYTE   BEND   c_v-4
 BYTE   W01
 BYTE   PAN   c_v+9
 BYTE   BEND   c_v-5
 BYTE   W01
 BYTE   PAN   c_v+11
 BYTE   BEND   c_v-5
 BYTE   W01
 BYTE   PAN   c_v+13
 BYTE   BEND   c_v-7
 BYTE   W01
 BYTE   PAN   c_v+15
 BYTE   BEND   c_v-9
 BYTE   W01
 BYTE   PAN   c_v+16
 BYTE   BEND   c_v-11
 BYTE   W01
 BYTE   PAN   c_v+18
 BYTE   BEND   c_v-13
 BYTE   W01
 BYTE   PAN   c_v+20
 BYTE   Dn5
 BYTE   BEND   c_v-15
 BYTE   W01
 BYTE   PAN   c_v+24
 BYTE   BEND   c_v-17
 BYTE   W01
 BYTE   PAN   c_v+26
 BYTE   BEND   c_v-20
 BYTE   W01
 BYTE   PAN   c_v+28
 BYTE   BEND   c_v-23
 BYTE   W01
 BYTE   PAN   c_v+30
 BYTE   BEND   c_v-24
 BYTE   W01
 BYTE   PAN   c_v+32
 BYTE   BEND   c_v-28
 BYTE   W01
 BYTE   PAN   c_v+34
 BYTE   BEND   c_v-31
 BYTE   W01
 BYTE   PAN   c_v+36
 BYTE   BEND   c_v-35
 BYTE   W01
 BYTE   PAN   c_v+38
 BYTE   Gs6
 BYTE   BEND   c_v-38
 BYTE   W01
 BYTE   PAN   c_v+42
 BYTE   BEND   c_v-42
 BYTE   W01
 BYTE   PAN   c_v+44
 BYTE   BEND   c_v-46
 BYTE   W01
 BYTE   PAN   c_v+46
 BYTE   BEND   c_v-51
 BYTE   W01
 BYTE   PAN   c_v+48
 BYTE   BEND   c_v-53
 BYTE   W01
 BYTE   PAN   c_v+51
 BYTE   BEND   c_v-58
 BYTE   W01
 BYTE   PAN   c_v+53
 BYTE   BEND   c_v-63
 BYTE   W01
 BYTE   PAN   c_v+55
 BYTE   BEND   c_v-64
 BYTE   W01
 BYTE   PAN   c_v+57
 BYTE   En8
 BYTE   W01
 BYTE   Fs8
 BYTE   W01
 BYTE   PEND 
// 008   ----------------------------------------
 BYTE   Gn8
 BYTE   W96
// 009   ----------------------------------------
Label_4_FE4860:
 BYTE   PAN   c_v+62
 BYTE   BEND   c_v-49
 BYTE   N92  Fs5  v112
 BYTE   N92  Fs6
 BYTE   W01
 BYTE   BEND   c_v-46
 BYTE   W01
 BYTE   BnM1
 BYTE   W01
 BYTE   Gn0
 BYTE   W01
 BYTE   Fn1
 BYTE   W01
 BYTE   Fn2
 BYTE   W01
 BYTE   En3
 BYTE   W01
 BYTE   W01
 BYTE   PAN   c_v+61
 BYTE   W01
 BYTE   W01
 BYTE   W01
 BYTE   W01
 BYTE   En8
 BYTE   W01
 BYTE   W01
 BYTE   W01
 BYTE   Ds8
 BYTE   W01
 BYTE   W01
 BYTE   Dn8
 BYTE   W01
 BYTE   W01
 BYTE   Cs8
 BYTE   W01
 BYTE   W01
 BYTE   Cn8
 BYTE   W01
 BYTE   W01
 BYTE   Bn7
 BYTE   W01
 BYTE   As7
 BYTE   W01
 BYTE   An7
 BYTE   W01
 BYTE   W01
 BYTE   Gs7
 BYTE   W01
 BYTE   Gn7
 BYTE   W01
 BYTE   W01
 BYTE   Fs7
 BYTE   W01
 BYTE   Fn7  v112
 BYTE   W01
 BYTE   W01
 BYTE   Ds7
 BYTE   W01
 BYTE   Dn7
 BYTE   W01
 BYTE   Cs7
 BYTE   W01
 BYTE   Cn7
 BYTE   W01
 BYTE   Bn6
 BYTE   W01
 BYTE   W01
 BYTE   As6  v105
 BYTE   W01
 BYTE   Gs6
 BYTE   W01
 BYTE   Gn6
 BYTE   W01
 BYTE   Fs6
 BYTE   W01
 BYTE   En6
 BYTE   W01
 BYTE   Ds6
 BYTE   W01
 BYTE   Dn6
 BYTE   W01
 BYTE   Cs6
 BYTE   W01
 BYTE   Bn5
 BYTE   W01
 BYTE   As5
 BYTE   W01
 BYTE   An5
 BYTE   W01
 BYTE   Gn5
 BYTE   W01
 BYTE   Fs5
 BYTE   W01
 BYTE   Fn5
 BYTE   W01
 BYTE   En5
 BYTE   W01
 BYTE   Dn5  v085
 BYTE   W01
 BYTE   Cn5
 BYTE   W01
 BYTE   As4
 BYTE   W01
 BYTE   An4
 BYTE   W01
 BYTE   Gn4
 BYTE   W01
 BYTE   Fs4
 BYTE   W01
 BYTE   En4
 BYTE   W01
 BYTE   Ds4
 BYTE   W01
 BYTE   Cs4  v072
 BYTE   W01
 BYTE   As3
 BYTE   W01
 BYTE   An3
 BYTE   W01
 BYTE   Gn3
 BYTE   W01
 BYTE   Fs3
 BYTE   BEND   c_v-1
 BYTE   W01
 BYTE   PAN   c_v+0
 BYTE   BEND   c_v-1
 BYTE   W01
 BYTE   PAN   c_v-2
 BYTE   BEND   c_v-1
 BYTE   W01
 BYTE   PAN   c_v-3
 BYTE   BEND   c_v-2
 BYTE   W01
 BYTE   PAN   c_v-7
 BYTE   BEND   c_v-3
 BYTE   W01
 BYTE   PAN   c_v-8
 BYTE   BEND   c_v-4
 BYTE   W01
 BYTE   PAN   c_v-10
 BYTE   BEND   c_v-5
 BYTE   W01
 BYTE   PAN   c_v-12
 BYTE   BEND   c_v-5
 BYTE   W01
 BYTE   PAN   c_v-14
 BYTE   BEND   c_v-7
 BYTE   W01
 BYTE   PAN   c_v-16
 BYTE   BEND   c_v-9
 BYTE   W01
 BYTE   PAN   c_v-18
 BYTE   BEND   c_v-11
 BYTE   W01
 BYTE   PAN   c_v-19
 BYTE   BEND   c_v-13
 BYTE   W01
 BYTE   PAN   c_v-21
 BYTE   Fn1
 BYTE   BEND   c_v-15
 BYTE   W01
 BYTE   PAN   c_v-25
 BYTE   BEND   c_v-17
 BYTE   W01
 BYTE   PAN   c_v-27
 BYTE   BEND   c_v-20
 BYTE   W01
 BYTE   PAN   c_v-29
 BYTE   BEND   c_v-23
 BYTE   W01
 BYTE   PAN   c_v-31
 BYTE   BEND   c_v-24
 BYTE   W01
 BYTE   PAN   c_v-33
 BYTE   BEND   c_v-28
 BYTE   W01
 BYTE   PAN   c_v-35
 BYTE   BEND   c_v-31
 BYTE   W01
 BYTE   PAN   c_v-37
 BYTE   BEND   c_v-35
 BYTE   W01
 BYTE   PAN   c_v-39
 BYTE   BnM1
 BYTE   BEND   c_v-38
 BYTE   W01
 BYTE   PAN   c_v-43
 BYTE   BEND   c_v-42
 BYTE   W01
 BYTE   PAN   c_v-46
 BYTE   BEND   c_v-46
 BYTE   W01
 BYTE   PAN   c_v-48
 BYTE   BEND   c_v-51
 BYTE   W01
 BYTE   PAN   c_v-50
 BYTE   BEND   c_v-53
 BYTE   W01
 BYTE   PAN   c_v-52
 BYTE   BEND   c_v-58
 BYTE   W01
 BYTE   PAN   c_v-55
 BYTE   BEND   c_v-63
 BYTE   W01
 BYTE   PAN   c_v-57
 BYTE   BEND   c_v-64
 BYTE   W01
 BYTE   PAN   c_v-59
 BYTE   DsM2
 BYTE   W01
 BYTE   CnM2
 BYTE   W01
 BYTE   PEND 
// 010   ----------------------------------------
 BYTE   W96
 BYTE   PATT
  POIN2 Label_4_FE4746
// 011   ----------------------------------------
 BYTE   PAN   c_v+63
 BYTE   W96
 BYTE   PATT
  POIN2 Label_4_FE4860
// 012   ----------------------------------------
Label_4_FE4986:
 BYTE   W92
 BYTE   W01
 BYTE   BEND   c_v+0
 BYTE   W03
 BYTE   PEND 
// 013   ----------------------------------------
Label_4_FE498C:
 BYTE   TIE  Cs6  v112
 BYTE   W90
 BYTE   BEND   c_v+0
 BYTE   W01
 BYTE   Dn3
 BYTE   W01
 BYTE   Cn3
 BYTE   W01
 BYTE   Bn2
 BYTE   W01
 BYTE   An2
 BYTE   W01
 BYTE   Fs2
 BYTE   W01
 BYTE   PEND 
// 014   ----------------------------------------
Label_4_FE499E:
 BYTE   W90
 BYTE   BEND   c_v-10
 BYTE   W01
 BYTE   En2
 BYTE   W01
 BYTE   Dn2
 BYTE   W01
 BYTE   Cs2
 BYTE   W01
 BYTE   Bn1
 BYTE   W01
 BYTE   Gs1
 BYTE   W01
 BYTE   PEND 
// 015   ----------------------------------------
Label_4_FE49AD:
 BYTE   W90
 BYTE   BEND   c_v-20
 BYTE   W01
 BYTE   An1
 BYTE   W01
 BYTE   Bn1
 BYTE   W01
 BYTE   Cn2
 BYTE   W01
 BYTE   Dn2
 BYTE   W01
 BYTE   Fs2
 BYTE   W01
 BYTE   PEND 
// 016   ----------------------------------------
 BYTE   W92
 BYTE   W03
 BYTE   EOT
 BYTE   Cs6
 BYTE   W01
// 017   ----------------------------------------
 BYTE   BEND   c_v+0
 BYTE   TIE  Cs6  v112
 BYTE   W84
 BYTE   W03
 BYTE   BEND   c_v-1
 BYTE   W01
 BYTE   Dn3
 BYTE   W01
 BYTE   Cs3
 BYTE   W01
 BYTE   Cn3
 BYTE   W01
 BYTE   Bn2
 BYTE   W01
 BYTE   As2
 BYTE   W01
 BYTE   An2
 BYTE   W01
 BYTE   Gs2
 BYTE   W01
 BYTE   Fs2
 BYTE   W01
// 018   ----------------------------------------
 BYTE   W84
 BYTE   W03
 BYTE   Fn2
 BYTE   W01
 BYTE   En2
 BYTE   W01
 BYTE   Ds2
 BYTE   W01
 BYTE   Dn2
 BYTE   W01
 BYTE   Cs2
 BYTE   W01
 BYTE   Cn2
 BYTE   W01
 BYTE   Bn1
 BYTE   W01
 BYTE   As1
 BYTE   W01
 BYTE   Gs1
 BYTE   W01
// 019   ----------------------------------------
 BYTE   W84
 BYTE   W03
 BYTE   Gs1
 BYTE   W01
 BYTE   An1
 BYTE   W01
 BYTE   As1
 BYTE   W01
 BYTE   Bn1
 BYTE   W01
 BYTE   Cn2
 BYTE   W01
 BYTE   Cs2
 BYTE   W01
 BYTE   Dn2
 BYTE   W01
 BYTE   Ds2
 BYTE   W01
 BYTE   Fs2
 BYTE   W01
// 020   ----------------------------------------
 BYTE   W36
 BYTE   W03
 BYTE   Fs2
 BYTE   W01
 BYTE   Gn2
 BYTE   W01
 BYTE   Gs2
 BYTE   W01
 BYTE   An2
 BYTE   W01
 BYTE   As2
 BYTE   W01
 BYTE   Bn2
 BYTE   W01
 BYTE   Cn3
 BYTE   W01
 BYTE   Cs3
 BYTE   W01
 BYTE   En3
 BYTE   W48
 BYTE   EOT
 BYTE   W01
// 021   ----------------------------------------
Label_4_FE4A19:
 BYTE   PAN   c_v-62
 BYTE   BEND   c_v-49
 BYTE   N92  Fs5  v112
 BYTE   N92  Fs6
 BYTE   W01
 BYTE   BEND   c_v-46
 BYTE   W01
 BYTE   BnM1
 BYTE   W01
 BYTE   Gn0
 BYTE   W01
 BYTE   Fn1
 BYTE   W01
 BYTE   Fs2
 BYTE   W01
 BYTE   En3
 BYTE   W01
 BYTE   W01
 BYTE   PAN   c_v-61
 BYTE   W01
 BYTE   W01
 BYTE   W01
 BYTE   W01
 BYTE   EnM2
 BYTE   W01
 BYTE   W01
 BYTE   W01
 BYTE   FnM2
 BYTE   W01
 BYTE   W01
 BYTE   FsM2
 BYTE   W01
 BYTE   W01
 BYTE   GnM2
 BYTE   W01
 BYTE   W01
 BYTE   GsM2
 BYTE   W01
 BYTE   W01
 BYTE   AnM2
 BYTE   W01
 BYTE   AsM2
 BYTE   W01
 BYTE   W01
 BYTE   BnM2
 BYTE   W01
 BYTE   CnM1
 BYTE   W01
 BYTE   W01
 BYTE   CsM1
 BYTE   W01
 BYTE   DnM1
 BYTE   W01
 BYTE   DsM1
 BYTE   W01
 BYTE   EnM1
 BYTE   W01
 BYTE   FnM1
 BYTE   W01
 BYTE   FsM1
 BYTE   W01
 BYTE   GnM1
 BYTE   W01
 BYTE   W01
 BYTE   GsM1
 BYTE   W01
 BYTE   AnM1
 BYTE   W01
 BYTE   AsM1  v023
 BYTE   W01
 BYTE   Cn0
 BYTE   W01
 BYTE   Cs0
 BYTE   W01
 BYTE   Dn0
 BYTE   W01
 BYTE   Ds0
 BYTE   W01
 BYTE   En0
 BYTE   W01
 BYTE   Fn0
 BYTE   W01
 BYTE   Fs0
 BYTE   W01
 BYTE   An0
 BYTE   W01
 BYTE   As0
 BYTE   W01
 BYTE   Bn0
 BYTE   W01
 BYTE   Cn1
 BYTE   W01
 BYTE   Cs1
 BYTE   W01
 BYTE   Ds1
 BYTE   W01
 BYTE   En1
 BYTE   W01
 BYTE   Fn1
 BYTE   W01
 BYTE   Gn1  v044
 BYTE   W01
 BYTE   An1
 BYTE   W01
 BYTE   Bn1
 BYTE   W01
 BYTE   Cn2
 BYTE   W01
 BYTE   Cs2
 BYTE   W01
 BYTE   Ds2
 BYTE   W01
 BYTE   En2
 BYTE   W01
 BYTE   Fs2  v055
 BYTE   W01
 BYTE   An2
 BYTE   W01
 BYTE   As2
 BYTE   W01
 BYTE   Cn3
 BYTE   W01
 BYTE   Cs3
 BYTE   BEND   c_v-1
 BYTE   W01
 BYTE   PAN   c_v-1
 BYTE   BEND   c_v-1
 BYTE   W01
 BYTE   PAN   c_v+1
 BYTE   BEND   c_v-1
 BYTE   W01
 BYTE   PAN   c_v+2
 BYTE   BEND   c_v-2
 BYTE   W01
 BYTE   PAN   c_v+6
 BYTE   BEND   c_v-3
 BYTE   W01
 BYTE   PAN   c_v+7
 BYTE   BEND   c_v-4
 BYTE   W01
 BYTE   PAN   c_v+9
 BYTE   BEND   c_v-5
 BYTE   W01
 BYTE   PAN   c_v+11
 BYTE   BEND   c_v-5
 BYTE   W01
 BYTE   PAN   c_v+13
 BYTE   BEND   c_v-7
 BYTE   W01
 BYTE   PAN   c_v+15
 BYTE   BEND   c_v-9
 BYTE   W01
 BYTE   PAN   c_v+16
 BYTE   BEND   c_v-11
 BYTE   W01
 BYTE   PAN   c_v+18
 BYTE   BEND   c_v-13
 BYTE   W01
 BYTE   PAN   c_v+20
 BYTE   Dn5
 BYTE   BEND   c_v-15
 BYTE   W01
 BYTE   PAN   c_v+24
 BYTE   BEND   c_v-17
 BYTE   W01
 BYTE   PAN   c_v+26
 BYTE   BEND   c_v-20
 BYTE   W01
 BYTE   PAN   c_v+28
 BYTE   BEND   c_v-23
 BYTE   W01
 BYTE   PAN   c_v+30
 BYTE   BEND   c_v-24
 BYTE   W01
 BYTE   PAN   c_v+32
 BYTE   BEND   c_v-28
 BYTE   W01
 BYTE   PAN   c_v+34
 BYTE   BEND   c_v-31
 BYTE   W01
 BYTE   PAN   c_v+36
 BYTE   BEND   c_v-35
 BYTE   W01
 BYTE   PAN   c_v+38
 BYTE   Gs6
 BYTE   BEND   c_v-38
 BYTE   W01
 BYTE   PAN   c_v+42
 BYTE   BEND   c_v-42
 BYTE   W01
 BYTE   PAN   c_v+44
 BYTE   BEND   c_v-46
 BYTE   W01
 BYTE   PAN   c_v+46
 BYTE   BEND   c_v-51
 BYTE   W01
 BYTE   PAN   c_v+48
 BYTE   BEND   c_v-53
 BYTE   W01
 BYTE   PAN   c_v+51
 BYTE   BEND   c_v-58
 BYTE   W01
 BYTE   PAN   c_v+53
 BYTE   BEND   c_v-63
 BYTE   W01
 BYTE   PAN   c_v+55
 BYTE   BEND   c_v-64
 BYTE   W01
 BYTE   PAN   c_v+57
 BYTE   En8
 BYTE   W01
 BYTE   Fs8
 BYTE   W01
 BYTE   PEND 
// 022   ----------------------------------------
 BYTE   Gn8
 BYTE   W96
 BYTE   PATT
  POIN2 Label_4_FE4860
// 023   ----------------------------------------
 BYTE   W96
 BYTE   PATT
  POIN2 Label_4_FE4A19
// 024   ----------------------------------------
 BYTE   PAN   c_v+63
 BYTE   W96
 BYTE   PATT
  POIN2 Label_4_FE4860
// 025   ----------------------------------------
 BYTE   W96
// 026   ----------------------------------------
 BYTE   W96
// 027   ----------------------------------------
 BYTE   W96
// 028   ----------------------------------------
 BYTE   W96
 BYTE   PATT
  POIN2 Label_4_FE4986
 BYTE   PATT
  POIN2 Label_4_FE498C
 BYTE   PATT
  POIN2 Label_4_FE499E
 BYTE   PATT
  POIN2 Label_4_FE49AD
// 029   ----------------------------------------
Label_4_FE4B5E:
 BYTE   W92
 BYTE   W01
 BYTE   BEND   c_v+0
 BYTE   W02
 BYTE   PEND 
 BYTE   EOT
 BYTE   Cs6
 BYTE   W01
// 030   ----------------------------------------
Label_4_FE4B67:
 BYTE   TIE  Cs6  v112
 BYTE   W90
 BYTE   BEND   c_v+0
 BYTE   W01
 BYTE   Dn3
 BYTE   W01
 BYTE   Cn3
 BYTE   W01
 BYTE   Bn2
 BYTE   W01
 BYTE   An2
 BYTE   W01
 BYTE   Fs2
 BYTE   W01
 BYTE   PEND 
 BYTE   PATT
  POIN2 Label_4_FE499E
 BYTE   PATT
  POIN2 Label_4_FE49AD
 BYTE   PATT
  POIN2 Label_4_FE4B5E
// 031   ----------------------------------------
 BYTE   EOT
 BYTE   Cs6
 BYTE   W01
 BYTE   PATT
  POIN2 Label_4_FE4B67
 BYTE   PATT
  POIN2 Label_4_FE499E
 BYTE   PATT
  POIN2 Label_4_FE49AD
 BYTE   PATT
  POIN2 Label_4_FE4B5E
// 032   ----------------------------------------
 BYTE   EOT
 BYTE   Cs6
 BYTE   W01
 BYTE   PATT
  POIN2 Label_4_FE4B67
 BYTE   PATT
  POIN2 Label_4_FE499E
 BYTE   PATT
  POIN2 Label_4_FE49AD
 BYTE   PATT
  POIN2 Label_4_FE4B5E
// 033   ----------------------------------------
 BYTE   EOT
 BYTE   Cs6
 BYTE   W01
 BYTE   PATT
  POIN2 Label_4_FE4B67
 BYTE   PATT
  POIN2 Label_4_FE499E
 BYTE   PATT
  POIN2 Label_4_FE49AD
 BYTE   PATT
  POIN2 Label_4_FE4B5E
// 034   ----------------------------------------
 BYTE   EOT
 BYTE   Cs6
 BYTE   W01
 BYTE   PATT
  POIN2 Label_4_FE4B67
 BYTE   PATT
  POIN2 Label_4_FE499E
 BYTE   PATT
  POIN2 Label_4_FE49AD
// 035   ----------------------------------------
 BYTE   W11
 BYTE   EOT
 BYTE   Cs6
 BYTE   W01
 BYTE   BEND   c_v-62
 BYTE   N80  Cs6  v112
 BYTE   W01
 BYTE   BEND   c_v-61
 BYTE   W01
 BYTE   DsM2
 BYTE   W01
 BYTE   GsM2
 BYTE   W01
 BYTE   AnM2
 BYTE   W01
 BYTE   AnM2
 BYTE   W01
 BYTE   AsM2
 BYTE   W01
 BYTE   BnM2
 BYTE   W01
 BYTE   GsM2
 BYTE   W01
 BYTE   CnM1
 BYTE   W01
 BYTE   CsM1
 BYTE   W01
 BYTE   DnM1
 BYTE   W01
 BYTE   DnM1
 BYTE   W01
 BYTE   DsM1
 BYTE   W01
 BYTE   EnM1
 BYTE   W01
 BYTE   EnM1
 BYTE   W01
 BYTE   FnM1
 BYTE   W01
 BYTE   FnM1
 BYTE   W01
 BYTE   GnM1
 BYTE   W01
 BYTE   GnM1
 BYTE   W01
 BYTE   GsM1
 BYTE   W01
 BYTE   AnM1
 BYTE   W01
 BYTE   AnM1
 BYTE   W01
 BYTE   AsM1
 BYTE   W01
 BYTE   AsM1
 BYTE   W01
 BYTE   BnM1
 BYTE   W01
 BYTE   Cn0
 BYTE   W01
 BYTE   Cs0
 BYTE   W01
 BYTE   Cs0
 BYTE   W01
 BYTE   Dn0
 BYTE   W01
 BYTE   Ds0
 BYTE   W01
 BYTE   Ds0
 BYTE   W01
 BYTE   En0
 BYTE   W01
 BYTE   En0
 BYTE   W01
 BYTE   Fs0
 BYTE   W01
 BYTE   Fs0
 BYTE   W01
 BYTE   Gn0
 BYTE   W01
 BYTE   Gs0
 BYTE   W01
 BYTE   Gs0
 BYTE   W01
 BYTE   An0
 BYTE   W01
 BYTE   An0
 BYTE   W01
 BYTE   As0
 BYTE   W01
 BYTE   Bn0
 BYTE   W01
 BYTE   Cn1
 BYTE   W01
 BYTE   Cn1
 BYTE   W01
 BYTE   Cs1
 BYTE   W01
 BYTE   Dn1
 BYTE   W01
 BYTE   Dn1
 BYTE   W01
 BYTE   Ds1
 BYTE   W01
 BYTE   En1
 BYTE   W01
 BYTE   En1
 BYTE   W01
 BYTE   Fn1
 BYTE   W01
 BYTE   Fs1
 BYTE   W01
 BYTE   Gn1
 BYTE   W01
 BYTE   Gn1
 BYTE   W01
 BYTE   Gs1
 BYTE   W01
 BYTE   Gs1
 BYTE   W01
 BYTE   An1
 BYTE   W01
 BYTE   As1
 BYTE   W01
 BYTE   Bn1
 BYTE   W01
 BYTE   Bn1
 BYTE   W01
 BYTE   Cn2
 BYTE   W01
 BYTE   Cs2
 BYTE   W01
 BYTE   Cs2
 BYTE   W01
 BYTE   Dn2
 BYTE   W01
 BYTE   Ds2
 BYTE   W01
 BYTE   Ds2
 BYTE   W01
 BYTE   En2
 BYTE   W01
 BYTE   Fn2
 BYTE   W01
 BYTE   Fs2
 BYTE   W01
 BYTE   Fs2
 BYTE   W01
 BYTE   Gn2
 BYTE   W01
 BYTE   Gn2
 BYTE   W01
 BYTE   Gs2
 BYTE   W01
 BYTE   An2
 BYTE   W01
 BYTE   As2
 BYTE   W01
 BYTE   Bn2
 BYTE   W01
 BYTE   Bn2
 BYTE   W01
 BYTE   Cn3
 BYTE   W01
 BYTE   Cn3
 BYTE   W01
 BYTE   Cs3
 BYTE   W01
 BYTE   Dn3
 BYTE   W01
 BYTE   Dn3
 BYTE   W01
 BYTE   En3
 BYTE   W01
// 036   ----------------------------------------
 BYTE   GoTo
  POIN2 Label_4_FE4A19
// 037   ----------------------------------------
 BYTE   PAN   c_v-62
 BYTE   BEND   c_v-49
 BYTE   N32  Fs5  v112
 BYTE   N32  Fs6
 BYTE   W01
 BYTE   BEND   c_v-46
 BYTE   W01
 BYTE   BnM1
 BYTE   W01
 BYTE   Gn0
 BYTE   W01
 BYTE   Fn1
 BYTE   W01
 BYTE   Fs2
 BYTE   W01
 BYTE   En3
 BYTE   W01
 BYTE   W01
 BYTE   PAN   c_v-61
 BYTE   W01
 BYTE   W01
 BYTE   W01
 BYTE   W01
 BYTE   EnM2
 BYTE   W01
 BYTE   W01
 BYTE   W01
 BYTE   FnM2
 BYTE   W01
 BYTE   W01
 BYTE   FsM2
 BYTE   W01
 BYTE   W01
 BYTE   GnM2
 BYTE   W01
 BYTE   W01
 BYTE   GsM2
 BYTE   W01
 BYTE   W01
 BYTE   AnM2
 BYTE   W01
 BYTE   AsM2
 BYTE   W01
 BYTE   W01
 BYTE   BnM2
 BYTE   W01
 BYTE   CnM1
 BYTE   W01
 BYTE   W01
 BYTE   CsM1
 BYTE   W01
 BYTE   DnM1
 BYTE   W01
 BYTE   DsM1
 BYTE   W01
 BYTE   EnM1
 BYTE   W01
 BYTE   FnM1
 BYTE   W01
 BYTE   FsM1
 BYTE   W01
 BYTE   GnM1
 BYTE   BEND   c_v+0
 BYTE   W01
 BYTE   FINE

//**************** Track 6 (Midi-Chn.5) ****************//

JinTekken3_006:
// 000   ----------------------------------------
 BYTE   KEYSH   JinTekken3_key+0
 BYTE   VOICE   51
 BYTE   PAN   c_v+0
 BYTE   VOL   28*JinTekken3_mvl/mxv
 BYTE   W96
// 001   ----------------------------------------
 BYTE   W96
// 002   ----------------------------------------
 BYTE   W96
// 003   ----------------------------------------
 BYTE   W96
// 004   ----------------------------------------
 BYTE   W96
// 005   ----------------------------------------
 BYTE   W96
// 006   ----------------------------------------
 BYTE   W96
// 007   ----------------------------------------
 BYTE   W96
// 008   ----------------------------------------
 BYTE   W96
// 009   ----------------------------------------
 BYTE   W96
// 010   ----------------------------------------
 BYTE   W96
// 011   ----------------------------------------
 BYTE   W96
// 012   ----------------------------------------
 BYTE   W96
// 013   ----------------------------------------
 BYTE   W96
// 014   ----------------------------------------
 BYTE   W96
// 015   ----------------------------------------
 BYTE   W92
 BYTE   W01
 BYTE   W03
// 016   ----------------------------------------
 BYTE   N92  Cs6  v100
 BYTE   W96
// 017   ----------------------------------------
 BYTE   Bn5
 BYTE   W96
// 018   ----------------------------------------
 BYTE   An5
 BYTE   W96
// 019   ----------------------------------------
 BYTE   Bn5
 BYTE   W96
// 020   ----------------------------------------
 BYTE   Cs6
 BYTE   W96
// 021   ----------------------------------------
 BYTE   Bn5
 BYTE   W96
// 022   ----------------------------------------
 BYTE   An5
 BYTE   W96
// 023   ----------------------------------------
 BYTE   N44  Bn5
 BYTE   W48
 BYTE   Cs6
 BYTE   W48
// 024   ----------------------------------------
Label_5_FE4D0D:
 BYTE   W96
// 025   ----------------------------------------
 BYTE   W96
// 026   ----------------------------------------
 BYTE   W96
// 027   ----------------------------------------
 BYTE   W96
// 028   ----------------------------------------
 BYTE   W96
// 029   ----------------------------------------
 BYTE   W96
// 030   ----------------------------------------
 BYTE   W96
// 031   ----------------------------------------
 BYTE   W96
// 032   ----------------------------------------
 BYTE   W96
// 033   ----------------------------------------
 BYTE   W96
// 034   ----------------------------------------
 BYTE   W96
// 035   ----------------------------------------
 BYTE   W96
// 036   ----------------------------------------
 BYTE   N92  Cs5  v100
 BYTE   W96
// 037   ----------------------------------------
 BYTE   Bn4
 BYTE   W96
// 038   ----------------------------------------
 BYTE   An4
 BYTE   W96
// 039   ----------------------------------------
 BYTE   Bn4
 BYTE   W96
// 040   ----------------------------------------
 BYTE   Cs5
 BYTE   W96
// 041   ----------------------------------------
 BYTE   Bn4
 BYTE   W96
// 042   ----------------------------------------
 BYTE   An4
 BYTE   W96
// 043   ----------------------------------------
 BYTE   Bn4
 BYTE   W96
// 044   ----------------------------------------
 BYTE   Cs5
 BYTE   W96
// 045   ----------------------------------------
 BYTE   Bn4
 BYTE   W96
// 046   ----------------------------------------
 BYTE   An4
 BYTE   W96
// 047   ----------------------------------------
 BYTE   Bn4
 BYTE   W96
// 048   ----------------------------------------
 BYTE   Cs5
 BYTE   W96
// 049   ----------------------------------------
 BYTE   Bn4
 BYTE   W96
// 050   ----------------------------------------
 BYTE   An4
 BYTE   W96
// 051   ----------------------------------------
 BYTE   Bn4
 BYTE   W96
// 052   ----------------------------------------
 BYTE   Cs5
 BYTE   W96
// 053   ----------------------------------------
 BYTE   Bn4
 BYTE   W96
// 054   ----------------------------------------
 BYTE   An4
 BYTE   W96
// 055   ----------------------------------------
 BYTE   Bn4
 BYTE   W96
// 056   ----------------------------------------
 BYTE   Cs5
 BYTE   W96
// 057   ----------------------------------------
 BYTE   Bn4
 BYTE   W96
// 058   ----------------------------------------
 BYTE   An4
 BYTE   W96
// 059   ----------------------------------------
 BYTE   N11  Bn4
 BYTE   W12
 BYTE   BEND   c_v-62
 BYTE   N80  Cs6  v112
 BYTE   W01
 BYTE   BEND   c_v-61
 BYTE   W01
 BYTE   DsM2
 BYTE   W01
 BYTE   GsM2
 BYTE   W01
 BYTE   AnM2
 BYTE   W01
 BYTE   AnM2
 BYTE   W01
 BYTE   AsM2
 BYTE   W01
 BYTE   BnM2
 BYTE   W01
 BYTE   GsM2
 BYTE   W01
 BYTE   CnM1
 BYTE   W01
 BYTE   CsM1
 BYTE   W01
 BYTE   DnM1
 BYTE   W01
 BYTE   DnM1
 BYTE   W01
 BYTE   DsM1
 BYTE   W01
 BYTE   EnM1
 BYTE   W01
 BYTE   EnM1
 BYTE   W01
 BYTE   FnM1
 BYTE   W01
 BYTE   FnM1
 BYTE   W01
 BYTE   GnM1
 BYTE   W01
 BYTE   GnM1
 BYTE   W01
 BYTE   GsM1
 BYTE   W01
 BYTE   AnM1
 BYTE   W01
 BYTE   AnM1
 BYTE   W01
 BYTE   AsM1
 BYTE   W01
 BYTE   AsM1
 BYTE   W01
 BYTE   BnM1
 BYTE   W01
 BYTE   Cn0
 BYTE   W01
 BYTE   Cs0
 BYTE   W01
 BYTE   Cs0
 BYTE   W01
 BYTE   Dn0
 BYTE   W01
 BYTE   Ds0
 BYTE   W01
 BYTE   Ds0
 BYTE   W01
 BYTE   En0
 BYTE   W01
 BYTE   En0
 BYTE   W01
 BYTE   Fs0
 BYTE   W01
 BYTE   Fs0
 BYTE   W01
 BYTE   Gn0
 BYTE   W01
 BYTE   Gs0
 BYTE   W01
 BYTE   Gs0
 BYTE   W01
 BYTE   An0
 BYTE   W01
 BYTE   An0
 BYTE   W01
 BYTE   As0
 BYTE   W01
 BYTE   Bn0
 BYTE   W01
 BYTE   Cn1
 BYTE   W01
 BYTE   Cn1
 BYTE   W01
 BYTE   Cs1
 BYTE   W01
 BYTE   Dn1
 BYTE   W01
 BYTE   Dn1
 BYTE   W01
 BYTE   Ds1
 BYTE   W01
 BYTE   En1
 BYTE   W01
 BYTE   En1
 BYTE   W01
 BYTE   Fn1
 BYTE   W01
 BYTE   Fs1
 BYTE   W01
 BYTE   Gn1
 BYTE   W01
 BYTE   Gn1
 BYTE   W01
 BYTE   Gs1
 BYTE   W01
 BYTE   Gs1
 BYTE   W01
 BYTE   An1
 BYTE   W01
 BYTE   As1
 BYTE   W01
 BYTE   Bn1
 BYTE   W01
 BYTE   Bn1
 BYTE   W01
 BYTE   Cn2
 BYTE   W01
 BYTE   Cs2
 BYTE   W01
 BYTE   Cs2
 BYTE   W01
 BYTE   Dn2
 BYTE   W01
 BYTE   Ds2
 BYTE   W01
 BYTE   Ds2
 BYTE   W01
 BYTE   En2
 BYTE   W01
 BYTE   Fn2
 BYTE   W01
 BYTE   Fs2
 BYTE   W01
 BYTE   Fs2
 BYTE   W01
 BYTE   Gn2
 BYTE   W01
 BYTE   Gn2
 BYTE   W01
 BYTE   Gs2
 BYTE   W01
 BYTE   An2
 BYTE   W01
 BYTE   As2
 BYTE   W01
 BYTE   Bn2
 BYTE   W01
 BYTE   Bn2
 BYTE   W01
 BYTE   Cn3
 BYTE   W01
 BYTE   Cn3
 BYTE   W01
 BYTE   Cs3
 BYTE   W01
 BYTE   Dn3
 BYTE   W01
 BYTE   Dn3
 BYTE   W01
 BYTE   En3
 BYTE   W01
// 060   ----------------------------------------
 BYTE   GoTo
  POIN2 Label_5_FE4D0D
// 061   ----------------------------------------
 BYTE   W36
 BYTE   FINE

//**************** Track 7 (Midi-Chn.6) ****************//

JinTekken3_007:
// 000   ----------------------------------------
 BYTE   KEYSH   JinTekken3_key+0
 BYTE   VOICE   30
 BYTE   VOL   29*JinTekken3_mvl/mxv
 BYTE   PAN   c_v+63
 BYTE   BEND   c_v+0
 BYTE   W03
 BYTE   N05  Fs2  v120
 BYTE   W06
 BYTE   En2
 BYTE   W06
 BYTE   N11  Fs2
 BYTE   W12
 BYTE   An2
 BYTE   W12
 BYTE   N05  Fs2
 BYTE   W06
 BYTE   En2
 BYTE   W06
 BYTE   N11  Fs2
 BYTE   W12
 BYTE   An2
 BYTE   W12
 BYTE   N05  Fs2
 BYTE   W06
 BYTE   En2
 BYTE   W06
 BYTE   N08  Fs2
 BYTE   W09
// 001   ----------------------------------------
Label_6_FE4E28:
 BYTE   W03
 BYTE   N05  Fs2  v120
 BYTE   W06
 BYTE   En2
 BYTE   W06
 BYTE   N11  Fs2
 BYTE   W12
 BYTE   An2
 BYTE   W12
 BYTE   N05  Fs2
 BYTE   W06
 BYTE   En2
 BYTE   W06
 BYTE   N11  Fs2
 BYTE   W09
 BYTE   BEND   c_v-10
 BYTE   W02
 BYTE   Fs2
 BYTE   W01
 BYTE   En3
 BYTE   N06  Cn3
 BYTE   W05
 BYTE   BEND   c_v+0
 BYTE   W01
 BYTE   Cn2
 BYTE   N05  Cn3  v080
 BYTE   W05
 BYTE   BEND   c_v-16
 BYTE   W01
 BYTE   En3
 BYTE   N06  Bn2  v120
 BYTE   W06
 BYTE   BEND   c_v-12
 BYTE   N05  Bn2  v080
 BYTE   W05
 BYTE   BEND   c_v-12
 BYTE   W01
 BYTE   En3
 BYTE   N05  Fs2  v120
 BYTE   W06
 BYTE   En2
 BYTE   W03
 BYTE   PEND 
// 002   ----------------------------------------
Label_6_FE4E66:
 BYTE   W03
 BYTE   N05  Fs2  v120
 BYTE   W06
 BYTE   En2
 BYTE   W06
 BYTE   N11  Fs2
 BYTE   W12
 BYTE   An2
 BYTE   W12
 BYTE   N05  Fs2
 BYTE   W06
 BYTE   En2
 BYTE   W06
 BYTE   N11  Fs2
 BYTE   W12
 BYTE   An2
 BYTE   W12
 BYTE   N05  Fs2
 BYTE   W06
 BYTE   En2
 BYTE   W06
 BYTE   N08  Fs2
 BYTE   W09
 BYTE   PEND 
 BYTE   PATT
  POIN2 Label_6_FE4E28
 BYTE   PATT
  POIN2 Label_6_FE4E66
 BYTE   PATT
  POIN2 Label_6_FE4E28
 BYTE   PATT
  POIN2 Label_6_FE4E66
// 003   ----------------------------------------
 BYTE   W03
 BYTE   N05  Fs2  v120
 BYTE   W06
 BYTE   En2
 BYTE   W06
 BYTE   Fs2
 BYTE   W12
 BYTE   N05
 BYTE   W06
 BYTE   En2
 BYTE   W06
 BYTE   Fs2
 BYTE   W12
 BYTE   N05
 BYTE   W06
 BYTE   N05
 BYTE   W06
 BYTE   N05
 BYTE   W06
 BYTE   N05
 BYTE   W12
 BYTE   N05
 BYTE   W12
 BYTE   N05
 BYTE   W03
 BYTE   PATT
  POIN2 Label_6_FE4E66
 BYTE   PATT
  POIN2 Label_6_FE4E28
 BYTE   PATT
  POIN2 Label_6_FE4E66
 BYTE   PATT
  POIN2 Label_6_FE4E28
 BYTE   PATT
  POIN2 Label_6_FE4E66
 BYTE   PATT
  POIN2 Label_6_FE4E28
 BYTE   PATT
  POIN2 Label_6_FE4E66
 BYTE   PATT
  POIN2 Label_6_FE4E28
// 004   ----------------------------------------
 BYTE   W96
// 005   ----------------------------------------
 BYTE   W96
// 006   ----------------------------------------
 BYTE   W96
// 007   ----------------------------------------
 BYTE   W96
// 008   ----------------------------------------
 BYTE   W96
// 009   ----------------------------------------
 BYTE   W96
// 010   ----------------------------------------
 BYTE   W96
// 011   ----------------------------------------
 BYTE   W96
// 012   ----------------------------------------
Label_6_FE4EE4:
 BYTE   PATT
  POIN2 Label_6_FE4E66
 BYTE   PATT
  POIN2 Label_6_FE4E28
 BYTE   PATT
  POIN2 Label_6_FE4E66
 BYTE   PATT
  POIN2 Label_6_FE4E28
 BYTE   PATT
  POIN2 Label_6_FE4E66
 BYTE   PATT
  POIN2 Label_6_FE4E28
 BYTE   PATT
  POIN2 Label_6_FE4E66
 BYTE   PATT
  POIN2 Label_6_FE4E28
// 013   ----------------------------------------
 BYTE   W96
// 014   ----------------------------------------
 BYTE   W96
// 015   ----------------------------------------
 BYTE   W96
// 016   ----------------------------------------
 BYTE   W96
// 017   ----------------------------------------
 BYTE   W96
// 018   ----------------------------------------
 BYTE   W96
// 019   ----------------------------------------
 BYTE   W96
// 020   ----------------------------------------
 BYTE   W96
// 021   ----------------------------------------
 BYTE   W96
// 022   ----------------------------------------
 BYTE   W96
// 023   ----------------------------------------
 BYTE   W96
// 024   ----------------------------------------
 BYTE   W96
// 025   ----------------------------------------
 BYTE   W96
// 026   ----------------------------------------
 BYTE   W96
// 027   ----------------------------------------
 BYTE   W96
// 028   ----------------------------------------
 BYTE   W96
// 029   ----------------------------------------
 BYTE   W96
// 030   ----------------------------------------
 BYTE   W96
// 031   ----------------------------------------
 BYTE   W96
// 032   ----------------------------------------
 BYTE   W96
// 033   ----------------------------------------
Label_6_FE4F20:
 BYTE   W03
 BYTE   PAN   c_v+63
 BYTE   BEND   c_v-1
 BYTE   N32  Fs0  v120
 BYTE   W01
 BYTE   BEND   c_v-1
 BYTE   N32  Fs1
 BYTE   W01
 BYTE   BEND   c_v-1
 BYTE   N32  Fs2
 BYTE   W01
 BYTE   BEND   c_v-2
 BYTE   N32  Fs3  v092
 BYTE   W01
 BYTE   BEND   c_v-3
 BYTE   W01
 BYTE   Cn3
 BYTE   W01
 BYTE   Bn2
 BYTE   W01
 BYTE   An2
 BYTE   W01
 BYTE   Fs2
 BYTE   W01
 BYTE   En2
 BYTE   W01
 BYTE   Cs2
 BYTE   W01
 BYTE   Bn1
 BYTE   W01
 BYTE   Gs1
 BYTE   W01
 BYTE   Fs1
 BYTE   W01
 BYTE   Ds1
 BYTE   W01
 BYTE   Gs0
 BYTE   W01
 BYTE   En0
 BYTE   W01
 BYTE   Cn0
 BYTE   W01
 BYTE   Cn0
 BYTE   W06
 BYTE   En3
 BYTE   W11
 BYTE   PAN   c_v+63
 BYTE   W01
 BYTE   CnM2
 BYTE   BEND   c_v-1
 BYTE   N32  Fs0  v120
 BYTE   W01
 BYTE   BEND   c_v-1
 BYTE   N32  Fs1
 BYTE   W01
 BYTE   BEND   c_v-1
 BYTE   N32  Fs2
 BYTE   W01
 BYTE   BEND   c_v-2
 BYTE   N32  Fs3  v092
 BYTE   W01
 BYTE   BEND   c_v-3
 BYTE   W01
 BYTE   Cn3
 BYTE   W01
 BYTE   Bn2
 BYTE   W01
 BYTE   An2
 BYTE   W01
 BYTE   Fs2
 BYTE   W01
 BYTE   En2
 BYTE   W01
 BYTE   Cs2
 BYTE   W01
 BYTE   Bn1
 BYTE   W01
 BYTE   Gs1
 BYTE   W01
 BYTE   Fs1
 BYTE   W01
 BYTE   Ds1
 BYTE   W01
 BYTE   Gs0
 BYTE   W01
 BYTE   En0
 BYTE   W01
 BYTE   Cn0
 BYTE   W01
 BYTE   Cn0
 BYTE   W06
 BYTE   En3
 BYTE   W32
 BYTE   W01
 BYTE   PEND 
// 034   ----------------------------------------
Label_6_FE4F97:
 BYTE   W02
 BYTE   PAN   c_v-64
 BYTE   W01
 BYTE   En3
 BYTE   W12
 BYTE   N05  Fs2  v120
 BYTE   W06
 BYTE   En2
 BYTE   W06
 BYTE   Fs2
 BYTE   W12
 BYTE   An2
 BYTE   W12
 BYTE   Fs2
 BYTE   W06
 BYTE   En2
 BYTE   W06
 BYTE   Fs2
 BYTE   W12
 BYTE   An2
 BYTE   W12
 BYTE   Fs2
 BYTE   W06
 BYTE   En2
 BYTE   W03
 BYTE   PEND 
 BYTE   PATT
  POIN2 Label_6_FE4F20
 BYTE   PATT
  POIN2 Label_6_FE4F97
 BYTE   PATT
  POIN2 Label_6_FE4F20
 BYTE   PATT
  POIN2 Label_6_FE4F97
 BYTE   PATT
  POIN2 Label_6_FE4F20
// 035   ----------------------------------------
 BYTE   W02
 BYTE   PAN   c_v-64
 BYTE   W01
 BYTE   Gn8
 BYTE   BEND   c_v-1
 BYTE   N32  Fs0  v120
 BYTE   W01
 BYTE   BEND   c_v-1
 BYTE   N32  Fs1
 BYTE   W01
 BYTE   BEND   c_v-1
 BYTE   N32  Fs2
 BYTE   W01
 BYTE   BEND   c_v-2
 BYTE   N32  Fs3  v092
 BYTE   W01
 BYTE   BEND   c_v-3
 BYTE   W01
 BYTE   Cn3
 BYTE   W01
 BYTE   Bn2
 BYTE   W01
 BYTE   An2
 BYTE   W01
 BYTE   Fs2
 BYTE   W01
 BYTE   En2
 BYTE   W01
 BYTE   Cs2
 BYTE   W01
 BYTE   Bn1
 BYTE   W01
 BYTE   Gs1
 BYTE   W01
 BYTE   Fs1
 BYTE   W01
 BYTE   Ds1
 BYTE   W01
 BYTE   Gs0
 BYTE   W01
 BYTE   En0
 BYTE   W01
 BYTE   Cn0
 BYTE   W01
 BYTE   Cn0
 BYTE   W06
 BYTE   En3
 BYTE   W11
 BYTE   PAN   c_v+63
 BYTE   W56
 BYTE   W02
// 036   ----------------------------------------
 BYTE   GoTo
  POIN2 Label_6_FE4EE4
// 037   ----------------------------------------
 BYTE   W03
 BYTE   PAN   c_v+0
 BYTE   N05  Fs2  v120
 BYTE   W06
 BYTE   En2
 BYTE   W06
 BYTE   N11  Fs2
 BYTE   W12
 BYTE   BEND   c_v+0
 BYTE   W09
 BYTE   FINE

//**************** Track 8 (Midi-Chn.7) ****************//

JinTekken3_008:
// 000   ----------------------------------------
 BYTE   KEYSH   JinTekken3_key+0
 BYTE   VOICE   30
 BYTE   VOL   28*JinTekken3_mvl/mxv
 BYTE   PAN   c_v-64
 BYTE   BEND   c_v+0
 BYTE   N05  En2  v120
 BYTE   W06
 BYTE   Fs2
 BYTE   W06
 BYTE   En2
 BYTE   W06
 BYTE   N11  Fs2
 BYTE   W12
 BYTE   An2
 BYTE   W12
 BYTE   N05  Fs2
 BYTE   W06
 BYTE   En2
 BYTE   W06
 BYTE   N11  Fs2
 BYTE   W12
 BYTE   An2
 BYTE   W12
 BYTE   N05  Fs2
 BYTE   W06
 BYTE   En2
 BYTE   W06
 BYTE   N08  Fs2
 BYTE   W06
// 001   ----------------------------------------
Label_7_FE504B:
 BYTE   W06
 BYTE   N05  Fs2  v120
 BYTE   W06
 BYTE   En2
 BYTE   W06
 BYTE   N11  Fs2
 BYTE   W12
 BYTE   An2
 BYTE   W12
 BYTE   N05  Fs2
 BYTE   W06
 BYTE   En2
 BYTE   W06
 BYTE   N11  Fs2
 BYTE   W09
 BYTE   BEND   c_v-10
 BYTE   W02
 BYTE   Fs2
 BYTE   W01
 BYTE   En3
 BYTE   N06  Cn3
 BYTE   W05
 BYTE   BEND   c_v+0
 BYTE   W01
 BYTE   Cn2
 BYTE   N05  Cn3  v080
 BYTE   W05
 BYTE   BEND   c_v-16
 BYTE   W01
 BYTE   En3
 BYTE   N06  Bn2  v120
 BYTE   W06
 BYTE   BEND   c_v-12
 BYTE   N05  Bn2  v080
 BYTE   W05
 BYTE   BEND   c_v-12
 BYTE   W01
 BYTE   En3
 BYTE   N05  Fs2  v120
 BYTE   W06
 BYTE   PEND 
// 002   ----------------------------------------
Label_7_FE5087:
 BYTE   N05  En2  v120
 BYTE   W06
 BYTE   Fs2
 BYTE   W06
 BYTE   En2
 BYTE   W06
 BYTE   N11  Fs2
 BYTE   W12
 BYTE   An2
 BYTE   W12
 BYTE   N05  Fs2
 BYTE   W06
 BYTE   En2
 BYTE   W06
 BYTE   N11  Fs2
 BYTE   W12
 BYTE   An2
 BYTE   W12
 BYTE   N05  Fs2
 BYTE   W06
 BYTE   En2
 BYTE   W06
 BYTE   N08  Fs2
 BYTE   W06
 BYTE   PEND 
 BYTE   PATT
  POIN2 Label_7_FE504B
 BYTE   PATT
  POIN2 Label_7_FE5087
 BYTE   PATT
  POIN2 Label_7_FE504B
 BYTE   PATT
  POIN2 Label_7_FE5087
// 003   ----------------------------------------
 BYTE   W06
 BYTE   N05  Fs2  v120
 BYTE   W06
 BYTE   En2
 BYTE   W06
 BYTE   Fs2
 BYTE   W12
 BYTE   N05
 BYTE   W06
 BYTE   En2
 BYTE   W06
 BYTE   Fs2
 BYTE   W12
 BYTE   N05
 BYTE   W06
 BYTE   N05
 BYTE   W06
 BYTE   N05
 BYTE   W06
 BYTE   N05
 BYTE   W12
 BYTE   N05
 BYTE   W12
// 004   ----------------------------------------
 BYTE   N05
 BYTE   W06
 BYTE   N05
 BYTE   W06
 BYTE   En2
 BYTE   W06
 BYTE   N11  Fs2
 BYTE   W12
 BYTE   An2
 BYTE   W12
 BYTE   N05  Fs2
 BYTE   W06
 BYTE   En2
 BYTE   W06
 BYTE   N11  Fs2
 BYTE   W12
 BYTE   An2
 BYTE   W12
 BYTE   N05  Fs2
 BYTE   W06
 BYTE   En2
 BYTE   W06
 BYTE   N08  Fs2
 BYTE   W06
 BYTE   PATT
  POIN2 Label_7_FE504B
 BYTE   PATT
  POIN2 Label_7_FE5087
 BYTE   PATT
  POIN2 Label_7_FE504B
 BYTE   PATT
  POIN2 Label_7_FE5087
 BYTE   PATT
  POIN2 Label_7_FE504B
 BYTE   PATT
  POIN2 Label_7_FE5087
 BYTE   PATT
  POIN2 Label_7_FE504B
// 005   ----------------------------------------
 BYTE   N05  En2  v120
 BYTE   W96
// 006   ----------------------------------------
 BYTE   W96
// 007   ----------------------------------------
 BYTE   W96
// 008   ----------------------------------------
 BYTE   W96
// 009   ----------------------------------------
 BYTE   W96
// 010   ----------------------------------------
 BYTE   W96
// 011   ----------------------------------------
 BYTE   W96
// 012   ----------------------------------------
 BYTE   W96
// 013   ----------------------------------------
Label_7_FE511F:
 BYTE   W06
 BYTE   N05  Fs2  v120
 BYTE   W06
 BYTE   En2
 BYTE   W06
 BYTE   N11  Fs2
 BYTE   W12
 BYTE   An2
 BYTE   W12
 BYTE   N05  Fs2
 BYTE   W06
 BYTE   En2
 BYTE   W06
 BYTE   N11  Fs2
 BYTE   W12
 BYTE   An2
 BYTE   W12
 BYTE   N05  Fs2
 BYTE   W06
 BYTE   En2
 BYTE   W06
 BYTE   N08  Fs2
 BYTE   W06
 BYTE   PATT
  POIN2 Label_7_FE504B
 BYTE   PATT
  POIN2 Label_7_FE5087
 BYTE   PATT
  POIN2 Label_7_FE504B
 BYTE   PATT
  POIN2 Label_7_FE5087
 BYTE   PATT
  POIN2 Label_7_FE504B
 BYTE   PATT
  POIN2 Label_7_FE5087
 BYTE   PATT
  POIN2 Label_7_FE504B
// 014   ----------------------------------------
 BYTE   N05  En2  v120
 BYTE   W96
// 015   ----------------------------------------
 BYTE   W96
// 016   ----------------------------------------
 BYTE   W96
// 017   ----------------------------------------
 BYTE   W96
// 018   ----------------------------------------
 BYTE   W96
// 019   ----------------------------------------
 BYTE   W96
// 020   ----------------------------------------
 BYTE   W96
// 021   ----------------------------------------
 BYTE   W96
// 022   ----------------------------------------
 BYTE   W96
// 023   ----------------------------------------
 BYTE   W96
// 024   ----------------------------------------
 BYTE   W96
// 025   ----------------------------------------
 BYTE   W96
// 026   ----------------------------------------
 BYTE   W96
// 027   ----------------------------------------
 BYTE   W96
// 028   ----------------------------------------
 BYTE   W96
// 029   ----------------------------------------
 BYTE   W96
// 030   ----------------------------------------
 BYTE   W96
// 031   ----------------------------------------
 BYTE   W96
// 032   ----------------------------------------
 BYTE   W96
// 033   ----------------------------------------
 BYTE   W96
// 034   ----------------------------------------
 BYTE   W06
 BYTE   PAN   c_v+63
 BYTE   BEND   c_v-1
 BYTE   N32  Fs0
 BYTE   W01
 BYTE   BEND   c_v-1
 BYTE   N32  Fs1
 BYTE   W01
 BYTE   BEND   c_v-1
 BYTE   N32  Fs2
 BYTE   W01
 BYTE   BEND   c_v-2
 BYTE   N32  Fs3  v092
 BYTE   W01
 BYTE   BEND   c_v-3
 BYTE   W01
 BYTE   Cn3
 BYTE   W01
 BYTE   Bn2
 BYTE   W01
 BYTE   An2
 BYTE   W01
 BYTE   Fs2
 BYTE   W01
 BYTE   En2
 BYTE   W01
 BYTE   Cs2
 BYTE   W01
 BYTE   Bn1
 BYTE   W01
 BYTE   Gs1
 BYTE   W01
 BYTE   Fs1
 BYTE   W01
 BYTE   Ds1
 BYTE   W01
 BYTE   Gs0
 BYTE   W01
 BYTE   En0
 BYTE   W01
 BYTE   Cn0
 BYTE   W01
 BYTE   Cn0
 BYTE   W06
 BYTE   En3
 BYTE   W11
 BYTE   PAN   c_v+63
 BYTE   W01
 BYTE   CnM2
 BYTE   BEND   c_v-1
 BYTE   N32  Fs0  v120
 BYTE   W01
 BYTE   BEND   c_v-1
 BYTE   N32  Fs1
 BYTE   W01
 BYTE   BEND   c_v-1
 BYTE   N32  Fs2
 BYTE   W01
 BYTE   BEND   c_v-2
 BYTE   N32  Fs3  v092
 BYTE   W01
 BYTE   BEND   c_v-3
 BYTE   W01
 BYTE   Cn3
 BYTE   W01
 BYTE   Bn2
 BYTE   W01
 BYTE   An2
 BYTE   W01
 BYTE   Fs2
 BYTE   W01
 BYTE   En2
 BYTE   W01
 BYTE   Cs2
 BYTE   W01
 BYTE   Bn1
 BYTE   W01
 BYTE   Gs1
 BYTE   W01
 BYTE   Fs1
 BYTE   W01
 BYTE   Ds1
 BYTE   W01
 BYTE   Gs0
 BYTE   W01
 BYTE   En0
 BYTE   W01
 BYTE   Cn0
 BYTE   W01
 BYTE   Cn0
 BYTE   W06
 BYTE   En3
 BYTE   W30
// 035   ----------------------------------------
Label_7_FE51EB:
 BYTE   W05
 BYTE   PAN   c_v-64
 BYTE   W01
 BYTE   En3
 BYTE   W12
 BYTE   N05  Fs2  v120
 BYTE   W06
 BYTE   En2
 BYTE   W06
 BYTE   Fs2
 BYTE   W12
 BYTE   An2
 BYTE   W12
 BYTE   Fs2
 BYTE   W06
 BYTE   En2
 BYTE   W06
 BYTE   Fs2
 BYTE   W12
 BYTE   An2
 BYTE   W12
 BYTE   Fs2
 BYTE   W06
 BYTE   PEND 
// 036   ----------------------------------------
Label_7_FE5206:
 BYTE   N05  En2  v120
 BYTE   W06
 BYTE   PAN   c_v+63
 BYTE   BEND   c_v-1
 BYTE   N32  Fs0
 BYTE   W01
 BYTE   BEND   c_v-1
 BYTE   N32  Fs1
 BYTE   W01
 BYTE   BEND   c_v-1
 BYTE   N32  Fs2
 BYTE   W01
 BYTE   BEND   c_v-2
 BYTE   N32  Fs3  v092
 BYTE   W01
 BYTE   BEND   c_v-3
 BYTE   W01
 BYTE   Cn3
 BYTE   W01
 BYTE   Bn2
 BYTE   W01
 BYTE   An2
 BYTE   W01
 BYTE   Fs2
 BYTE   W01
 BYTE   En2
 BYTE   W01
 BYTE   Cs2
 BYTE   W01
 BYTE   Bn1
 BYTE   W01
 BYTE   Gs1
 BYTE   W01
 BYTE   Fs1
 BYTE   W01
 BYTE   Ds1
 BYTE   W01
 BYTE   Gs0
 BYTE   W01
 BYTE   En0
 BYTE   W01
 BYTE   Cn0
 BYTE   W01
 BYTE   Cn0
 BYTE   W06
 BYTE   En3
 BYTE   W11
 BYTE   PAN   c_v+63
 BYTE   W01
 BYTE   CnM2
 BYTE   BEND   c_v-1
 BYTE   N32  Fs0  v120
 BYTE   W01
 BYTE   BEND   c_v-1
 BYTE   N32  Fs1
 BYTE   W01
 BYTE   BEND   c_v-1
 BYTE   N32  Fs2
 BYTE   W01
 BYTE   BEND   c_v-2
 BYTE   N32  Fs3  v092
 BYTE   W01
 BYTE   BEND   c_v-3
 BYTE   W01
 BYTE   Cn3
 BYTE   W01
 BYTE   Bn2
 BYTE   W01
 BYTE   An2
 BYTE   W01
 BYTE   Fs2
 BYTE   W01
 BYTE   En2
 BYTE   W01
 BYTE   Cs2
 BYTE   W01
 BYTE   Bn1
 BYTE   W01
 BYTE   Gs1
 BYTE   W01
 BYTE   Fs1
 BYTE   W01
 BYTE   Ds1
 BYTE   W01
 BYTE   Gs0
 BYTE   W01
 BYTE   En0
 BYTE   W01
 BYTE   Cn0
 BYTE   W01
 BYTE   Cn0
 BYTE   W06
 BYTE   En3
 BYTE   W30
 BYTE   PEND 
 BYTE   PATT
  POIN2 Label_7_FE51EB
 BYTE   PATT
  POIN2 Label_7_FE5206
 BYTE   PATT
  POIN2 Label_7_FE51EB
 BYTE   PATT
  POIN2 Label_7_FE5206
// 037   ----------------------------------------
 BYTE   W05
 BYTE   PAN   c_v-64
 BYTE   W01
 BYTE   Gn8
 BYTE   BEND   c_v-1
 BYTE   N32  Fs0  v120
 BYTE   W01
 BYTE   BEND   c_v-1
 BYTE   N32  Fs1
 BYTE   W01
 BYTE   BEND   c_v-1
 BYTE   N32  Fs2
 BYTE   W01
 BYTE   BEND   c_v-2
 BYTE   N32  Fs3  v092
 BYTE   W01
 BYTE   BEND   c_v-3
 BYTE   W01
 BYTE   Cn3
 BYTE   W01
 BYTE   Bn2
 BYTE   W01
 BYTE   An2
 BYTE   W01
 BYTE   Fs2
 BYTE   W01
 BYTE   En2
 BYTE   W01
 BYTE   Cs2
 BYTE   W01
 BYTE   Bn1
 BYTE   W01
 BYTE   Gs1
 BYTE   W01
 BYTE   Fs1
 BYTE   W01
 BYTE   Ds1
 BYTE   W01
 BYTE   Gs0
 BYTE   W01
 BYTE   En0
 BYTE   W01
 BYTE   Cn0
 BYTE   W01
 BYTE   Cn0
 BYTE   W06
 BYTE   En3
 BYTE   W11
 BYTE   PAN   c_v+63
 BYTE   W54
 BYTE   W01
// 038   ----------------------------------------
 BYTE   GoTo
  POIN2 Label_7_FE511F
// 039   ----------------------------------------
 BYTE   W06
 BYTE   PAN   c_v+0
 BYTE   N05  Fs2  v120
 BYTE   W06
 BYTE   En2
 BYTE   W06
 BYTE   N11  Fs2
 BYTE   W12
 BYTE   BEND   c_v+0
 BYTE   W06
 BYTE   FINE

//**************** Track 9 (Midi-Chn.8) ****************//

JinTekken3_009:
// 000   ----------------------------------------
 BYTE   KEYSH   JinTekken3_key+0
 BYTE   VOICE   1
 BYTE   PAN   c_v+0
 BYTE   VOL   38*JinTekken3_mvl/mxv
 BYTE   W96
// 001   ----------------------------------------
 BYTE   W96
// 002   ----------------------------------------
 BYTE   W96
// 003   ----------------------------------------
 BYTE   W96
// 004   ----------------------------------------
 BYTE   W96
// 005   ----------------------------------------
 BYTE   W96
// 006   ----------------------------------------
 BYTE   W96
// 007   ----------------------------------------
 BYTE   W96
// 008   ----------------------------------------
 BYTE   W96
// 009   ----------------------------------------
 BYTE   W96
// 010   ----------------------------------------
 BYTE   W96
// 011   ----------------------------------------
 BYTE   W96
// 012   ----------------------------------------
 BYTE   W96
// 013   ----------------------------------------
 BYTE   W96
// 014   ----------------------------------------
 BYTE   W96
// 015   ----------------------------------------
 BYTE   W96
// 016   ----------------------------------------
 BYTE   N05  Gs2  v112
 BYTE   W06
 BYTE   Ds3
 BYTE   W06
 BYTE   Gs3
 BYTE   W06
 BYTE   Gs2
 BYTE   W06
 BYTE   Ds3
 BYTE   W06
 BYTE   Gs3
 BYTE   W06
 BYTE   Gs2
 BYTE   W06
 BYTE   Ds3
 BYTE   W06
 BYTE   Gs3
 BYTE   W06
 BYTE   Gs2
 BYTE   W06
 BYTE   Ds3
 BYTE   W06
 BYTE   Gs3
 BYTE   W06
 BYTE   Gs2
 BYTE   W06
 BYTE   Ds3
 BYTE   W06
 BYTE   Gs3
 BYTE   W06
 BYTE   Gs2
 BYTE   W06
// 017   ----------------------------------------
Label_8_FE5321:
 BYTE   N05  Fs2  v112
 BYTE   W06
 BYTE   Cs3
 BYTE   W06
 BYTE   Fs3
 BYTE   W06
 BYTE   Fs2
 BYTE   W06
 BYTE   Cs3
 BYTE   W06
 BYTE   Fs3
 BYTE   W06
 BYTE   Fs2
 BYTE   W06
 BYTE   Cs3
 BYTE   W06
 BYTE   Fs3
 BYTE   W06
 BYTE   Fs2
 BYTE   W06
 BYTE   Cs3
 BYTE   W06
 BYTE   Fs3
 BYTE   W06
 BYTE   Fs2
 BYTE   W06
 BYTE   Cs3
 BYTE   W06
 BYTE   Fs3
 BYTE   W06
 BYTE   Fs2
 BYTE   W06
 BYTE   PEND 
// 018   ----------------------------------------
 BYTE   En2
 BYTE   W06
 BYTE   Bn2
 BYTE   W06
 BYTE   En3
 BYTE   W06
 BYTE   En2
 BYTE   W06
 BYTE   Bn2
 BYTE   W06
 BYTE   En3
 BYTE   W06
 BYTE   En2
 BYTE   W06
 BYTE   Bn2
 BYTE   W06
 BYTE   En3
 BYTE   W06
 BYTE   En2
 BYTE   W06
 BYTE   Bn2
 BYTE   W06
 BYTE   En3
 BYTE   W06
 BYTE   En2
 BYTE   W06
 BYTE   Bn2
 BYTE   W06
 BYTE   En3
 BYTE   W06
 BYTE   En2
 BYTE   W06
 BYTE   PATT
  POIN2 Label_8_FE5321
// 019   ----------------------------------------
 BYTE   N05  Gs2  v112
 BYTE   W06
 BYTE   Gs3
 BYTE   W06
 BYTE   Gs2
 BYTE   W06
 BYTE   N05
 BYTE   W06
 BYTE   Gs3
 BYTE   W06
 BYTE   Gs2
 BYTE   W06
 BYTE   Ds3
 BYTE   W06
 BYTE   Gs3
 BYTE   W06
 BYTE   Gs2
 BYTE   W06
 BYTE   Gs3
 BYTE   W06
 BYTE   Gs2
 BYTE   W06
 BYTE   N05
 BYTE   W06
 BYTE   Gs3
 BYTE   W06
 BYTE   Gs2
 BYTE   W06
 BYTE   N05
 BYTE   W06
 BYTE   Gs3
 BYTE   W06
// 020   ----------------------------------------
 BYTE   Fs2
 BYTE   W06
 BYTE   Fs3
 BYTE   W06
 BYTE   Fs2
 BYTE   W06
 BYTE   N05
 BYTE   W06
 BYTE   Fs3
 BYTE   W06
 BYTE   Fs2
 BYTE   W06
 BYTE   Cs3
 BYTE   W06
 BYTE   Fs3
 BYTE   W06
 BYTE   Fs2
 BYTE   W06
 BYTE   Fs3
 BYTE   W06
 BYTE   Fs2
 BYTE   W06
 BYTE   N05
 BYTE   W06
 BYTE   Fs3
 BYTE   W06
 BYTE   Fs2
 BYTE   W06
 BYTE   N05
 BYTE   W06
 BYTE   Fs3
 BYTE   W06
// 021   ----------------------------------------
 BYTE   En2
 BYTE   W06
 BYTE   En3
 BYTE   W06
 BYTE   En2
 BYTE   W06
 BYTE   N05
 BYTE   W06
 BYTE   En3
 BYTE   W06
 BYTE   En2
 BYTE   W06
 BYTE   Bn2
 BYTE   W06
 BYTE   En3
 BYTE   W06
 BYTE   En2
 BYTE   W06
 BYTE   En3
 BYTE   W06
 BYTE   En2
 BYTE   W06
 BYTE   N05
 BYTE   W06
 BYTE   En3
 BYTE   W06
 BYTE   En2
 BYTE   W06
 BYTE   N05
 BYTE   W06
 BYTE   En3
 BYTE   W06
// 022   ----------------------------------------
 BYTE   Fs2
 BYTE   W06
 BYTE   Fs3
 BYTE   W06
 BYTE   Fs2
 BYTE   W06
 BYTE   N05
 BYTE   W06
 BYTE   Fs3
 BYTE   W06
 BYTE   Fs2
 BYTE   W06
 BYTE   Cs3
 BYTE   W06
 BYTE   Fs3
 BYTE   W06
 BYTE   Gs2
 BYTE   W06
 BYTE   Gs3
 BYTE   W06
 BYTE   Gs2
 BYTE   W06
 BYTE   N05
 BYTE   W06
 BYTE   Gs3
 BYTE   W06
 BYTE   Gs2
 BYTE   W06
 BYTE   Ds3
 BYTE   W06
 BYTE   Gs3
 BYTE   W06
// 023   ----------------------------------------
Label_8_FE53EB:
 BYTE   W96
// 024   ----------------------------------------
 BYTE   W96
// 025   ----------------------------------------
 BYTE   W96
// 026   ----------------------------------------
 BYTE   W96
// 027   ----------------------------------------
 BYTE   W96
// 028   ----------------------------------------
 BYTE   W96
// 029   ----------------------------------------
 BYTE   W96
// 030   ----------------------------------------
 BYTE   W96
// 031   ----------------------------------------
 BYTE   W96
// 032   ----------------------------------------
 BYTE   W96
// 033   ----------------------------------------
 BYTE   W96
// 034   ----------------------------------------
 BYTE   W96
// 035   ----------------------------------------
 BYTE   W96
// 036   ----------------------------------------
 BYTE   W96
// 037   ----------------------------------------
 BYTE   W96
// 038   ----------------------------------------
 BYTE   W96
// 039   ----------------------------------------
 BYTE   W96
// 040   ----------------------------------------
 BYTE   W96
// 041   ----------------------------------------
 BYTE   W96
// 042   ----------------------------------------
 BYTE   W96
// 043   ----------------------------------------
 BYTE   W96
// 044   ----------------------------------------
 BYTE   W96
// 045   ----------------------------------------
 BYTE   W96
// 046   ----------------------------------------
 BYTE   W96
// 047   ----------------------------------------
 BYTE   W96
// 048   ----------------------------------------
 BYTE   W96
// 049   ----------------------------------------
 BYTE   W96
// 050   ----------------------------------------
 BYTE   W96
// 051   ----------------------------------------
 BYTE   W96
// 052   ----------------------------------------
 BYTE   W96
// 053   ----------------------------------------
 BYTE   W96
// 054   ----------------------------------------
 BYTE   W96
// 055   ----------------------------------------
 BYTE   W96
// 056   ----------------------------------------
 BYTE   W96
// 057   ----------------------------------------
 BYTE   W96
// 058   ----------------------------------------
 BYTE   W96
// 059   ----------------------------------------
 BYTE   GoTo
  POIN2 Label_8_FE53EB
// 060   ----------------------------------------
 BYTE   W36
 BYTE   FINE

//**************** Track 10 (Midi-Chn.9) ****************//

JinTekken3_010:
// 000   ----------------------------------------
 BYTE   KEYSH   JinTekken3_key+0
 BYTE   VOICE   20
 BYTE   PAN   c_v+0
 BYTE   VOL   24*JinTekken3_mvl/mxv
 BYTE   BEND   c_v-64
 BYTE   W96
// 001   ----------------------------------------
 BYTE   W96
// 002   ----------------------------------------
 BYTE   W96
// 003   ----------------------------------------
 BYTE   W96
// 004   ----------------------------------------
 BYTE   W96
// 005   ----------------------------------------
 BYTE   W96
// 006   ----------------------------------------
 BYTE   W96
// 007   ----------------------------------------
 BYTE   W96
// 008   ----------------------------------------
 BYTE   W96
// 009   ----------------------------------------
 BYTE   W96
// 010   ----------------------------------------
 BYTE   W96
// 011   ----------------------------------------
 BYTE   W96
// 012   ----------------------------------------
 BYTE   W96
// 013   ----------------------------------------
 BYTE   W96
// 014   ----------------------------------------
 BYTE   W96
// 015   ----------------------------------------
 BYTE   W96
// 016   ----------------------------------------
 BYTE   W96
// 017   ----------------------------------------
 BYTE   W96
// 018   ----------------------------------------
 BYTE   W96
// 019   ----------------------------------------
 BYTE   W96
// 020   ----------------------------------------
 BYTE   W96
// 021   ----------------------------------------
 BYTE   W96
// 022   ----------------------------------------
 BYTE   W96
// 023   ----------------------------------------
 BYTE   W96
// 024   ----------------------------------------
Label_9_FE5438:
 BYTE   W96
// 025   ----------------------------------------
 BYTE   W96
// 026   ----------------------------------------
 BYTE   W96
// 027   ----------------------------------------
 BYTE   W96
// 028   ----------------------------------------
 BYTE   W96
// 029   ----------------------------------------
 BYTE   W96
// 030   ----------------------------------------
 BYTE   W96
// 031   ----------------------------------------
 BYTE   N05  Bn1  v127
 BYTE   W06
 BYTE   N05
 BYTE   W06
 BYTE   An1
 BYTE   W06
 BYTE   N05
 BYTE   W06
 BYTE   N11  Gn1
 BYTE   W12
 BYTE   N05  Bn1
 BYTE   W06
 BYTE   N05
 BYTE   W06
 BYTE   An1
 BYTE   W06
 BYTE   N05
 BYTE   W06
 BYTE   N11  Gn1
 BYTE   W12
 BYTE   N05  An1
 BYTE   W06
 BYTE   Cn2
 BYTE   W06
 BYTE   N05
 BYTE   W06
 BYTE   An1
 BYTE   W06
// 032   ----------------------------------------
 BYTE   W96
// 033   ----------------------------------------
 BYTE   W96
// 034   ----------------------------------------
 BYTE   W96
// 035   ----------------------------------------
 BYTE   W96
// 036   ----------------------------------------
 BYTE   W96
// 037   ----------------------------------------
 BYTE   W96
// 038   ----------------------------------------
 BYTE   W96
// 039   ----------------------------------------
 BYTE   W96
// 040   ----------------------------------------
 BYTE   W96
// 041   ----------------------------------------
 BYTE   W96
// 042   ----------------------------------------
 BYTE   W96
// 043   ----------------------------------------
 BYTE   W96
// 044   ----------------------------------------
 BYTE   W96
// 045   ----------------------------------------
 BYTE   W96
// 046   ----------------------------------------
 BYTE   W96
// 047   ----------------------------------------
 BYTE   W96
// 048   ----------------------------------------
 BYTE   W96
// 049   ----------------------------------------
 BYTE   W96
// 050   ----------------------------------------
 BYTE   W96
// 051   ----------------------------------------
 BYTE   W96
// 052   ----------------------------------------
 BYTE   W96
// 053   ----------------------------------------
 BYTE   W96
// 054   ----------------------------------------
 BYTE   W96
// 055   ----------------------------------------
 BYTE   W96
// 056   ----------------------------------------
 BYTE   W96
// 057   ----------------------------------------
 BYTE   W96
// 058   ----------------------------------------
 BYTE   W96
// 059   ----------------------------------------
 BYTE   W72
 BYTE   Bn1
 BYTE   W06
 BYTE   Gn1
 BYTE   W06
 BYTE   N05
 BYTE   W06
 BYTE   Fn1
 BYTE   W05
 BYTE   BEND   c_v+0
 BYTE   W01
// 060   ----------------------------------------
 BYTE   GoTo
  POIN2 Label_9_FE5438
// 061   ----------------------------------------
 BYTE   W36
 BYTE   FINE

//**************** Track 11 (Midi-Chn.10) ****************//

JinTekken3_011:
// 000   ----------------------------------------
 BYTE   KEYSH   JinTekken3_key+0
 BYTE   VOICE   123
 BYTE   PAN   c_v+0
 BYTE   VOL   43*JinTekken3_mvl/mxv
 BYTE   N11  Cn1  v120
 BYTE   N11  Dn1  v032
 BYTE   N11  Fs1  v112
 BYTE   N11  Cs2
 BYTE   W01
 BYTE   An2
 BYTE   W11
 BYTE   N05  Dn1  v032
 BYTE   N05  Fs1  v112
 BYTE   W06
 BYTE   Cn1  v120
 BYTE   N05  Dn1  v032
 BYTE   N05  Fs1  v112
 BYTE   W06
 BYTE   N11  Dn1  v080
 BYTE   N11  As1  v112
 BYTE   W12
 BYTE   Cn1  v120
 BYTE   N05  Dn1  v032
 BYTE   N05  Fs1  v112
 BYTE   W06
 BYTE   Dn1  v032
 BYTE   N05  Fs1  v112
 BYTE   W06
 BYTE   Dn1  v032
 BYTE   N05  Fs1  v112
 BYTE   W06
 BYTE   Cn1  v120
 BYTE   N05  Dn1  v032
 BYTE   N05  Fs1  v112
 BYTE   W06
 BYTE   N11  Dn1  v080
 BYTE   N11  As1  v112
 BYTE   W12
 BYTE   N05  Dn1  v032
 BYTE   N05  Fs1  v112
 BYTE   W06
 BYTE   Dn1  v032
 BYTE   N11  As1  v112
 BYTE   W06
 BYTE   Dn1  v080
 BYTE   W12
// 001   ----------------------------------------
Label_10_FE54F1:
 BYTE   N11  Cn1  v120
 BYTE   N11  Dn1  v032
 BYTE   N11  Fs1  v112
 BYTE   W12
 BYTE   N05  Dn1  v032
 BYTE   N05  Fs1  v112
 BYTE   W06
 BYTE   Cn1  v120
 BYTE   N05  Dn1  v032
 BYTE   N05  Fs1  v112
 BYTE   W06
 BYTE   N11  Dn1  v080
 BYTE   N11  As1  v112
 BYTE   W12
 BYTE   Cn1  v120
 BYTE   N05  Dn1  v032
 BYTE   N05  Fs1  v112
 BYTE   W06
 BYTE   Dn1  v032
 BYTE   N05  Fs1  v112
 BYTE   W06
 BYTE   Dn1  v032
 BYTE   N05  Fs1  v112
 BYTE   W06
 BYTE   Cn1  v120
 BYTE   N05  Dn1  v032
 BYTE   N05  Fs1  v112
 BYTE   W06
 BYTE   N11  Dn1  v080
 BYTE   N11  As1  v112
 BYTE   W12
 BYTE   N05  Dn1  v032
 BYTE   N05  Fs1  v112
 BYTE   W06
 BYTE   Dn1  v032
 BYTE   N11  As1  v112
 BYTE   W06
 BYTE   Dn1  v080
 BYTE   W12
 BYTE   PEND 
// 002   ----------------------------------------
Label_10_FE5548:
 BYTE   N11  Cn1  v120
 BYTE   N11  Dn1  v032
 BYTE   N11  Fs1  v112
 BYTE   N11  Cs2
 BYTE   W01
 BYTE   An2
 BYTE   W11
 BYTE   N05  Dn1  v032
 BYTE   N05  Fs1  v112
 BYTE   W06
 BYTE   Cn1  v120
 BYTE   N05  Dn1  v032
 BYTE   N05  Fs1  v112
 BYTE   W06
 BYTE   N11  Dn1  v080
 BYTE   N11  As1  v112
 BYTE   W12
 BYTE   Cn1  v120
 BYTE   N05  Dn1  v032
 BYTE   N05  Fs1  v112
 BYTE   W06
 BYTE   Dn1  v032
 BYTE   N05  Fs1  v112
 BYTE   W06
 BYTE   Dn1  v032
 BYTE   N05  Fs1  v112
 BYTE   W06
 BYTE   Cn1  v120
 BYTE   N05  Dn1  v032
 BYTE   N05  Fs1  v112
 BYTE   W06
 BYTE   N11  Dn1  v080
 BYTE   N11  As1  v112
 BYTE   W12
 BYTE   N05  Dn1  v032
 BYTE   N05  Fs1  v112
 BYTE   W06
 BYTE   Dn1  v032
 BYTE   N11  As1  v112
 BYTE   W06
 BYTE   Dn1  v080
 BYTE   W12
 BYTE   PEND 
 BYTE   PATT
  POIN2 Label_10_FE54F1
 BYTE   PATT
  POIN2 Label_10_FE5548
 BYTE   PATT
  POIN2 Label_10_FE54F1
 BYTE   PATT
  POIN2 Label_10_FE5548
// 003   ----------------------------------------
 BYTE   N11  Cn1  v120
 BYTE   N11  Dn1  v020
 BYTE   N11  Cs2  v112
 BYTE   W01
 BYTE   An2
 BYTE   W23
 BYTE   Cn1  v120
 BYTE   N11  Dn1  v020
 BYTE   N11  Cs2  v112
 BYTE   W01
 BYTE   An2
 BYTE   W23
 BYTE   N05  Cn1  v120
 BYTE   N05  Dn1  v020
 BYTE   N05  Cs2  v112
 BYTE   W01
 BYTE   An2
 BYTE   W05
 BYTE   Cn1  v120
 BYTE   N05  Dn1  v020
 BYTE   N05  Cs2  v112
 BYTE   W01
 BYTE   An2
 BYTE   W05
 BYTE   Cn1  v120
 BYTE   N05  Dn1  v020
 BYTE   N05  Cs2  v112
 BYTE   W01
 BYTE   An2
 BYTE   W05
 BYTE   Cn1  v120
 BYTE   N05  Dn1  v020
 BYTE   N05  Cs2  v112
 BYTE   W01
 BYTE   An2
 BYTE   W11
 BYTE   Cn1  v120
 BYTE   N05  Dn1  v020
 BYTE   N05  Cs2  v112
 BYTE   W01
 BYTE   An2
 BYTE   W11
 BYTE   Cn1  v120
 BYTE   N05  Dn1  v020
 BYTE   N05  Cs2  v112
 BYTE   W01
 BYTE   An2
 BYTE   W05
// 004   ----------------------------------------
Label_10_FE5611:
 BYTE   N11  Cn1  v120
 BYTE   N11  Fn1  v092
 BYTE   N05  Gs1  v127
 BYTE   N11  Cs2  v112
 BYTE   N11  Gs2
 BYTE   N11  Bn2  v092
 BYTE   W01
 BYTE   An2  v112
 BYTE   W05
 BYTE   N05  Gs1  v048
 BYTE   W06
 BYTE   N11  Cn1  v120
 BYTE   N11  Fn1  v092
 BYTE   N05  Gs1  v127
 BYTE   N11  Bn2  v092
 BYTE   W06
 BYTE   N05  Gs1  v048
 BYTE   W06
 BYTE   N11  Dn1  v112
 BYTE   N05  Gs1  v127
 BYTE   N11  Gs2  v112
 BYTE   W06
 BYTE   N05  Gs1  v048
 BYTE   N11  Bn2  v092
 BYTE   W06
 BYTE   N05  Cn1  v120
 BYTE   N11  Fn1  v092
 BYTE   N05  Gs1  v127
 BYTE   W06
 BYTE   Cn1  v120
 BYTE   N05  Gs1  v048
 BYTE   W06
 BYTE   Gs1  v127
 BYTE   N11  Gs2  v112
 BYTE   N11  Bn2  v092
 BYTE   W06
 BYTE   N05  Cn1  v120
 BYTE   N05  Gs1  v048
 BYTE   W06
 BYTE   Cn1  v120
 BYTE   N11  Fn1  v092
 BYTE   N05  Gs1  v127
 BYTE   W06
 BYTE   Cn1  v120
 BYTE   N05  Gs1  v048
 BYTE   N11  Bn2  v092
 BYTE   W06
 BYTE   N05  Dn1  v112
 BYTE   N05  Gs1  v127
 BYTE   N11  Gs2  v112
 BYTE   W06
 BYTE   N05  Cn1  v120
 BYTE   N05  Fn1  v092
 BYTE   N05  Gs1  v048
 BYTE   W06
 BYTE   Cn1  v120
 BYTE   N05  Fn1  v092
 BYTE   N11  As1  v112
 BYTE   N11  Bn2  v092
 BYTE   W06
 BYTE   N05  Cn1  v120
 BYTE   N05  Fn1  v040
 BYTE   W06
 BYTE   PEND 
// 005   ----------------------------------------
Label_10_FE56A6:
 BYTE   N11  Cn1  v120
 BYTE   N11  Fn1  v092
 BYTE   N05  Gs1  v127
 BYTE   N11  Gs2  v112
 BYTE   N11  Bn2  v092
 BYTE   W06
 BYTE   N05  Gs1  v048
 BYTE   W06
 BYTE   N11  Cn1  v120
 BYTE   N11  Fn1  v092
 BYTE   N05  Gs1  v127
 BYTE   N11  Bn2  v092
 BYTE   W06
 BYTE   N05  Gs1  v048
 BYTE   W06
 BYTE   N11  Dn1  v112
 BYTE   N05  Gs1  v127
 BYTE   N11  Gs2  v112
 BYTE   W06
 BYTE   N05  Gs1  v048
 BYTE   N11  Bn2  v092
 BYTE   W06
 BYTE   N05  Cn1  v120
 BYTE   N11  Fn1  v092
 BYTE   N05  Gs1  v127
 BYTE   W06
 BYTE   Cn1  v120
 BYTE   N05  Gs1  v048
 BYTE   W06
 BYTE   Gs1  v127
 BYTE   N11  Gs2  v112
 BYTE   N11  Bn2  v092
 BYTE   W06
 BYTE   N05  Cn1  v120
 BYTE   N05  Gs1  v048
 BYTE   W06
 BYTE   Cn1  v120
 BYTE   N11  Fn1  v092
 BYTE   N05  Gs1  v127
 BYTE   W06
 BYTE   Cn1  v120
 BYTE   N05  Gs1  v048
 BYTE   N11  Bn2  v092
 BYTE   W06
 BYTE   N05  Dn1  v112
 BYTE   N05  Gs1  v127
 BYTE   N11  Gs2  v112
 BYTE   W06
 BYTE   N05  Cn1  v120
 BYTE   N05  Fn1  v092
 BYTE   N05  Gs1  v048
 BYTE   W06
 BYTE   Cn1  v120
 BYTE   N05  Fn1  v092
 BYTE   N11  As1  v112
 BYTE   N11  Bn2  v092
 BYTE   W06
 BYTE   N05  Cn1  v120
 BYTE   N05  Fn1  v040
 BYTE   W06
 BYTE   PEND 
 BYTE   PATT
  POIN2 Label_10_FE56A6
 BYTE   PATT
  POIN2 Label_10_FE56A6
 BYTE   PATT
  POIN2 Label_10_FE5611
 BYTE   PATT
  POIN2 Label_10_FE56A6
 BYTE   PATT
  POIN2 Label_10_FE56A6
 BYTE   PATT
  POIN2 Label_10_FE56A6
 BYTE   PATT
  POIN2 Label_10_FE5611
 BYTE   PATT
  POIN2 Label_10_FE56A6
 BYTE   PATT
  POIN2 Label_10_FE56A6
 BYTE   PATT
  POIN2 Label_10_FE56A6
 BYTE   PATT
  POIN2 Label_10_FE5611
 BYTE   PATT
  POIN2 Label_10_FE56A6
 BYTE   PATT
  POIN2 Label_10_FE56A6
 BYTE   PATT
  POIN2 Label_10_FE56A6
// 006   ----------------------------------------
Label_10_FE577C:
 BYTE   PATT
  POIN2 Label_10_FE5611
 BYTE   PATT
  POIN2 Label_10_FE56A6
 BYTE   PATT
  POIN2 Label_10_FE56A6
 BYTE   PATT
  POIN2 Label_10_FE56A6
 BYTE   PATT
  POIN2 Label_10_FE5611
 BYTE   PATT
  POIN2 Label_10_FE56A6
 BYTE   PATT
  POIN2 Label_10_FE56A6
// 007   ----------------------------------------
 BYTE   N11  Cn1  v120
 BYTE   N05  Gs1  v127
 BYTE   N05  Dn2
 BYTE   N11  Gs2  v112
 BYTE   W06
 BYTE   N05  Gs1  v048
 BYTE   N05  Cn2  v127
 BYTE   W06
 BYTE   N11  Cn1  v120
 BYTE   N05  Gs1  v127
 BYTE   N05  Bn1
 BYTE   W06
 BYTE   Gs1  v048
 BYTE   N05  An1  v127
 BYTE   W06
 BYTE   N11  Gn1
 BYTE   N05  Gs1
 BYTE   N11  Gs2  v112
 BYTE   W06
 BYTE   N05  Gs1  v048
 BYTE   W06
 BYTE   Cn1  v120
 BYTE   N05  Gs1  v127
 BYTE   N05  Dn2
 BYTE   W06
 BYTE   Cn1  v120
 BYTE   N05  Gs1  v048
 BYTE   N05  Cn2  v127
 BYTE   W06
 BYTE   Gs1
 BYTE   N05  Bn1
 BYTE   N11  Gs2  v112
 BYTE   W06
 BYTE   N05  Cn1  v120
 BYTE   N05  Gs1  v048
 BYTE   N05  An1  v127
 BYTE   W06
 BYTE   Cn1  v120
 BYTE   N11  Gn1  v127
 BYTE   N05  Gs1
 BYTE   W06
 BYTE   Cn1  v120
 BYTE   N05  Gs1  v048
 BYTE   W06
 BYTE   Gs1  v127
 BYTE   N05  An1
 BYTE   N11  Gs2  v112
 BYTE   W06
 BYTE   N05  Cn1  v120
 BYTE   N05  Gs1  v048
 BYTE   N05  Dn2  v127
 BYTE   W06
 BYTE   Cn1  v120
 BYTE   N11  As1  v112
 BYTE   N05  Cn2  v127
 BYTE   W06
 BYTE   Cn1  v120
 BYTE   N05  Bn1  v127
 BYTE   W06
// 008   ----------------------------------------
Label_10_FE581E:
 BYTE   N11  Cn1  v120
 BYTE   N11  Fn1  v080
 BYTE   N05  Gs1  v127
 BYTE   N11  Gs2  v112
 BYTE   N11  An2  v127
 BYTE   N11  Bn2  v092
 BYTE   W06
 BYTE   N05  Gs1  v048
 BYTE   W06
 BYTE   N11  Cn1  v120
 BYTE   N11  Fn1  v080
 BYTE   N05  Gs1  v127
 BYTE   N11  An1
 BYTE   N11  Bn2  v092
 BYTE   W06
 BYTE   N05  Gs1  v048
 BYTE   W06
 BYTE   N11  Cn1  v120
 BYTE   N11  Fn1  v080
 BYTE   N05  Gs1  v127
 BYTE   N11  Gs2  v112
 BYTE   W06
 BYTE   N05  Gs1  v048
 BYTE   N11  Bn2  v092
 BYTE   W06
 BYTE   Cn1  v120
 BYTE   N11  Fn1  v080
 BYTE   N05  Gs1  v127
 BYTE   N11  An1
 BYTE   W06
 BYTE   N05  Gs1  v048
 BYTE   W06
 BYTE   N11  Cn1  v120
 BYTE   N11  Fn1  v080
 BYTE   N05  Gs1  v127
 BYTE   N11  Gs2  v112
 BYTE   N11  Bn2  v092
 BYTE   W06
 BYTE   N05  Gs1  v048
 BYTE   W06
 BYTE   N11  Cn1  v120
 BYTE   N11  Fn1  v080
 BYTE   N05  Gs1  v127
 BYTE   N11  An1
 BYTE   W06
 BYTE   N05  Gs1  v048
 BYTE   N11  Bn2  v092
 BYTE   W06
 BYTE   Cn1  v120
 BYTE   N11  Fn1  v080
 BYTE   N05  Gs1  v127
 BYTE   N11  Gs2  v112
 BYTE   W06
 BYTE   N05  Gs1  v048
 BYTE   W06
 BYTE   N11  Cn1  v120
 BYTE   N11  Fn1  v080
 BYTE   N11  An1  v127
 BYTE   N11  As1  v112
 BYTE   N11  Bn2  v092
 BYTE   W12
 BYTE   PEND 
// 009   ----------------------------------------
Label_10_FE58B3:
 BYTE   N11  Cn1  v120
 BYTE   N11  Fn1  v080
 BYTE   N05  Gs1  v127
 BYTE   N11  Gs2  v112
 BYTE   N11  Bn2  v092
 BYTE   W06
 BYTE   N05  Gs1  v048
 BYTE   W06
 BYTE   N11  Cn1  v120
 BYTE   N11  Fn1  v080
 BYTE   N05  Gs1  v127
 BYTE   N11  An1
 BYTE   N11  Bn2  v092
 BYTE   W06
 BYTE   N05  Gs1  v048
 BYTE   W06
 BYTE   N11  Cn1  v120
 BYTE   N11  Fn1  v080
 BYTE   N05  Gs1  v127
 BYTE   N11  Gs2  v112
 BYTE   W06
 BYTE   N05  Gs1  v048
 BYTE   N11  Bn2  v092
 BYTE   W06
 BYTE   Cn1  v120
 BYTE   N11  Fn1  v080
 BYTE   N05  Gs1  v127
 BYTE   N11  An1
 BYTE   W06
 BYTE   N05  Gs1  v048
 BYTE   W06
 BYTE   N11  Cn1  v120
 BYTE   N11  Fn1  v080
 BYTE   N05  Gs1  v127
 BYTE   N11  Gs2  v112
 BYTE   N11  Bn2  v092
 BYTE   W06
 BYTE   N05  Gs1  v048
 BYTE   W06
 BYTE   N11  Cn1  v120
 BYTE   N11  Fn1  v080
 BYTE   N05  Gs1  v127
 BYTE   N11  An1
 BYTE   W06
 BYTE   N05  Gs1  v048
 BYTE   N11  Bn2  v092
 BYTE   W06
 BYTE   Cn1  v120
 BYTE   N11  Fn1  v080
 BYTE   N05  Gs1  v127
 BYTE   N11  Gs2  v112
 BYTE   W06
 BYTE   N05  Gs1  v048
 BYTE   W06
 BYTE   N11  Cn1  v120
 BYTE   N11  Fn1  v080
 BYTE   N11  An1  v127
 BYTE   N11  As1  v112
 BYTE   N11  Bn2  v092
 BYTE   W12
 BYTE   PEND 
 BYTE   PATT
  POIN2 Label_10_FE58B3
 BYTE   PATT
  POIN2 Label_10_FE58B3
 BYTE   PATT
  POIN2 Label_10_FE581E
 BYTE   PATT
  POIN2 Label_10_FE58B3
 BYTE   PATT
  POIN2 Label_10_FE58B3
 BYTE   PATT
  POIN2 Label_10_FE58B3
 BYTE   PATT
  POIN2 Label_10_FE581E
 BYTE   PATT
  POIN2 Label_10_FE58B3
 BYTE   PATT
  POIN2 Label_10_FE58B3
 BYTE   PATT
  POIN2 Label_10_FE58B3
// 010   ----------------------------------------
Label_10_FE5977:
 BYTE   N11  Cn1  v120
 BYTE   N11  Gn1
 BYTE   N05  Gs1  v127
 BYTE   N11  Cs2  v112
 BYTE   N11  Gs2
 BYTE   N11  Bn2  v092
 BYTE   W01
 BYTE   An2  v112
 BYTE   W05
 BYTE   N05  Gs1  v048
 BYTE   W06
 BYTE   Cn1  v080
 BYTE   N05  Gn1
 BYTE   N05  Gs1  v127
 BYTE   N11  Bn2  v092
 BYTE   W06
 BYTE   N05  Cn1  v120
 BYTE   N05  Gn1
 BYTE   N05  Gs1  v048
 BYTE   W06
 BYTE   N11  Cn1  v120
 BYTE   N11  Dn1  v112
 BYTE   N11  Gn1  v120
 BYTE   N05  Gs1  v127
 BYTE   N11  Gs2  v112
 BYTE   W06
 BYTE   N05  Gs1  v048
 BYTE   N11  Bn2  v092
 BYTE   W06
 BYTE   Cn1  v120
 BYTE   N11  Gn1
 BYTE   N05  Gs1  v127
 BYTE   W06
 BYTE   Gs1  v048
 BYTE   W06
 BYTE   Cn1  v080
 BYTE   N05  Gn1
 BYTE   N05  Gs1  v127
 BYTE   N11  Gs2  v112
 BYTE   N11  Bn2  v092
 BYTE   W06
 BYTE   N05  Cn1  v080
 BYTE   N05  Gn1
 BYTE   N05  Gs1  v048
 BYTE   W06
 BYTE   N11  Cn1  v120
 BYTE   N11  Dn1  v112
 BYTE   N11  Gn1  v120
 BYTE   N05  Gs1  v127
 BYTE   W06
 BYTE   Gs1  v048
 BYTE   N11  Bn2  v092
 BYTE   W06
 BYTE   N05  Cn1  v080
 BYTE   N05  Gn1
 BYTE   N05  Gs1  v127
 BYTE   N11  Gs2  v112
 BYTE   W06
 BYTE   Cn1  v120
 BYTE   N11  Dn1  v112
 BYTE   N11  Gn1  v120
 BYTE   N05  Gs1  v048
 BYTE   W06
 BYTE   N11  As1  v112
 BYTE   N11  Bn2  v092
 BYTE   W12
 BYTE   PEND 
// 011   ----------------------------------------
Label_10_FE5A0F:
 BYTE   N11  Cn1  v120
 BYTE   N11  Gn1
 BYTE   N05  Gs1  v127
 BYTE   N11  Gs2  v112
 BYTE   N11  Bn2  v092
 BYTE   W06
 BYTE   N05  Gs1  v048
 BYTE   W06
 BYTE   Cn1  v080
 BYTE   N05  Gn1
 BYTE   N05  Gs1  v127
 BYTE   N11  Bn2  v092
 BYTE   W06
 BYTE   N05  Cn1  v120
 BYTE   N05  Gn1
 BYTE   N05  Gs1  v048
 BYTE   W06
 BYTE   N11  Cn1  v120
 BYTE   N11  Dn1  v112
 BYTE   N11  Gn1  v120
 BYTE   N05  Gs1  v127
 BYTE   N11  Gs2  v112
 BYTE   W06
 BYTE   N05  Gs1  v048
 BYTE   N11  Bn2  v092
 BYTE   W06
 BYTE   Cn1  v120
 BYTE   N11  Gn1
 BYTE   N05  Gs1  v127
 BYTE   W06
 BYTE   Gs1  v048
 BYTE   W06
 BYTE   Cn1  v080
 BYTE   N05  Gn1
 BYTE   N05  Gs1  v127
 BYTE   N11  Gs2  v112
 BYTE   N11  Bn2  v092
 BYTE   W06
 BYTE   N05  Cn1  v080
 BYTE   N05  Gn1
 BYTE   N05  Gs1  v048
 BYTE   W06
 BYTE   N11  Cn1  v120
 BYTE   N11  Dn1  v112
 BYTE   N11  Gn1  v120
 BYTE   N05  Gs1  v127
 BYTE   W06
 BYTE   Gs1  v048
 BYTE   N11  Bn2  v092
 BYTE   W06
 BYTE   N05  Cn1  v080
 BYTE   N05  Gn1
 BYTE   N05  Gs1  v127
 BYTE   N11  Gs2  v112
 BYTE   W06
 BYTE   Cn1  v120
 BYTE   N11  Dn1  v112
 BYTE   N11  Gn1  v120
 BYTE   N05  Gs1  v048
 BYTE   W06
 BYTE   N11  As1  v112
 BYTE   N11  Bn2  v092
 BYTE   W12
 BYTE   PEND 
 BYTE   PATT
  POIN2 Label_10_FE5A0F
 BYTE   PATT
  POIN2 Label_10_FE5A0F
 BYTE   PATT
  POIN2 Label_10_FE5977
 BYTE   PATT
  POIN2 Label_10_FE5A0F
 BYTE   PATT
  POIN2 Label_10_FE5A0F
 BYTE   PATT
  POIN2 Label_10_FE5A0F
 BYTE   PATT
  POIN2 Label_10_FE5977
 BYTE   PATT
  POIN2 Label_10_FE5A0F
 BYTE   PATT
  POIN2 Label_10_FE5A0F
 BYTE   PATT
  POIN2 Label_10_FE5A0F
 BYTE   PATT
  POIN2 Label_10_FE5977
 BYTE   PATT
  POIN2 Label_10_FE5A0F
 BYTE   PATT
  POIN2 Label_10_FE5A0F
// 012   ----------------------------------------
 BYTE   N11  Cn1  v076
 BYTE   N11  As1  v112
 BYTE   N11  Cs2
 BYTE   N11  Gs2
 BYTE   N11  Bn2  v092
 BYTE   W01
 BYTE   An2  v112
 BYTE   W11
 BYTE   Cn1  v080
 BYTE   W12
 BYTE   Dn1
 BYTE   W12
 BYTE   N05  Cn1  v092
 BYTE   W06
 BYTE   Cn1  v096
 BYTE   W12
 BYTE   Cn1  v104
 BYTE   W06
 BYTE   N05
 BYTE   W06
 BYTE   Cn1  v108
 BYTE   W06
 BYTE   Dn1  v104
 BYTE   N05  Dn2  v127
 BYTE   W06
 BYTE   Cn1  v116
 BYTE   N05  Bn1  v127
 BYTE   W06
 BYTE   Cn1  v120
 BYTE   N05  Gn1  v127
 BYTE   W06
 BYTE   Cn1  v120
 BYTE   N05  Fn1  v127
 BYTE   W06
// 013   ----------------------------------------
 BYTE   GoTo
  POIN2 Label_10_FE577C
// 014   ----------------------------------------
 BYTE   N11  Cn1  v120
 BYTE   N11  Fn1  v092
 BYTE   N05  Gs1  v127
 BYTE   N11  Cs2  v112
 BYTE   N11  Gs2
 BYTE   N11  Bn2  v092
 BYTE   W01
 BYTE   An2  v112
 BYTE   W05
 BYTE   N05  Gs1  v048
 BYTE   W06
 BYTE   N11  Cn1  v120
 BYTE   N11  Fn1  v092
 BYTE   N05  Gs1  v127
 BYTE   N11  Bn2  v092
 BYTE   W06
 BYTE   N05  Gs1  v048
 BYTE   W06
 BYTE   N11  Dn1  v112
 BYTE   N05  Gs1  v127
 BYTE   N11  Gs2  v112
 BYTE   W06
 BYTE   N05  Gs1  v048
 BYTE   N05  Bn2  v092
 BYTE   W06
 BYTE   FINE

//******************************************************//
	ALIGN 4

JinTekken3:
	BYTE	11	// NumTrks
	BYTE	0	// NumBlks
	BYTE	JinTekken3_pri	// Priority
	BYTE	JinTekken3_rev	// Reverb.
    
	POIN2	JinTekken3_grp
    
	POIN2	JinTekken3_001
	POIN2	JinTekken3_002
	POIN2	JinTekken3_003
	POIN2	JinTekken3_004
	POIN2	JinTekken3_005
	POIN2	JinTekken3_006
	POIN2	JinTekken3_007
	POIN2	JinTekken3_008
	POIN2	JinTekken3_009
	POIN2	JinTekken3_010
	POIN2	JinTekken3_011

	
