//Event file generated from Sappy .s format.
	#include "MPlayDef.event"

	#define	KenTheme_grp  Old_Nimap
	#define	KenTheme_pri  0
	#define	KenTheme_rev  0
	#define	KenTheme_mvl  127
	#define	KenTheme_key  0
	#define	KenTheme_tbs  1
	#define	KenTheme_exg  0
	#define	KenTheme_cmp  1

	// .rodata
	//	KenTheme
	ALIGN 4


//**************** Track 1 (Midi-Chn.0) ****************//

KenTheme_001:
// 000   ----------------------------------------
 BYTE   KEYSH   KenTheme_key+0
 BYTE   TEMPO   180*KenTheme_tbs/2
 BYTE   VOICE   106
 BYTE   VOL   44*KenTheme_mvl/mxv
 BYTE   PAN   c_v+0
 BYTE   W96
// 001   ----------------------------------------
 BYTE   W96
// 002   ----------------------------------------
 BYTE   W96
// 003   ----------------------------------------
 BYTE   W96
// 004   ----------------------------------------
 BYTE   W96
// 005   ----------------------------------------
 BYTE   W96
// 006   ----------------------------------------
 BYTE   W96
// 007   ----------------------------------------
 BYTE   W96
// 008   ----------------------------------------
Label_0_012ED5FA:
 BYTE   W36
 BYTE   N24  Dn3  v100
 BYTE   W24
 BYTE   Gn3
 BYTE   W24
 BYTE   N12  Cn4
 BYTE   W12
 BYTE   PEND 
// 009   ----------------------------------------
Label_0_012ED605:
 BYTE   N24  As3  v100
 BYTE   W24
 BYTE   N12  An3
 BYTE   W12
 BYTE   N48  Gn3
 BYTE   W48
 BYTE   N24  Fn3
 BYTE   W12
 BYTE   PEND 
// 010   ----------------------------------------
Label_0_012ED613:
 BYTE   W12
 BYTE   N24  Gn3  v100
 BYTE   W24
 BYTE   Dn3
 BYTE   W24
 BYTE   Gn3
 BYTE   W24
 BYTE   N12  Cn4
 BYTE   W12
 BYTE   PEND 
 BYTE   PATT
  POIN2 Label_0_012ED605
 BYTE   PATT
  POIN2 Label_0_012ED613
// 011   ----------------------------------------
 BYTE   N24  Dn4  v100
 BYTE   W24
 BYTE   N12  Ds4
 BYTE   W12
 BYTE   Dn4
 BYTE   W12
 BYTE   N24  Cn4
 BYTE   W24
 BYTE   N12  As3
 BYTE   W12
 BYTE   Cn4
 BYTE   W12
// 012   ----------------------------------------
Label_0_012ED63B:
 BYTE   N36  Dn4  v100
 BYTE   W32
 BYTE   W02
 BYTE   N48  Cn4
 BYTE   W48
 BYTE   W02
 BYTE   N24  As3
 BYTE   W12
 BYTE   PEND 
// 013   ----------------------------------------
Label_0_012ED648:
 BYTE   W12
 BYTE   N24  An3  v100
 BYTE   W24
 BYTE   N12  Gn3
 BYTE   W12
 BYTE   N24  Fs3
 BYTE   W24
 BYTE   N12
 BYTE   W24
 BYTE   PEND 
 BYTE   PATT
  POIN2 Label_0_012ED5FA
 BYTE   PATT
  POIN2 Label_0_012ED605
 BYTE   PATT
  POIN2 Label_0_012ED613
 BYTE   PATT
  POIN2 Label_0_012ED605
 BYTE   PATT
  POIN2 Label_0_012ED613
// 014   ----------------------------------------
 BYTE   N24  Dn4  v100
 BYTE   W24
 BYTE   N12  Ds4
 BYTE   W12
 BYTE   Dn4
 BYTE   W12
 BYTE   N24  Cn4
 BYTE   W24
 BYTE   N12  As3
 BYTE   W11
 BYTE   An3
 BYTE   W13
 BYTE   PATT
  POIN2 Label_0_012ED63B
 BYTE   PATT
  POIN2 Label_0_012ED648
// 015   ----------------------------------------
Label_0_012ED68A:
 BYTE   W12
 BYTE   N36  Gn3  v100
 BYTE   W36
 BYTE   N60  An3
 BYTE   W48
 BYTE   PEND 
// 016   ----------------------------------------
Label_0_012ED693:
 BYTE   W12
 BYTE   N36  As3  v100
 BYTE   W36
 BYTE   N24  Cn4
 BYTE   W24
 BYTE   N12  As3
 BYTE   W12
 BYTE   An3
 BYTE   W12
 BYTE   PEND 
// 017   ----------------------------------------
Label_0_012ED6A1:
 BYTE   N12  Gn3  v100
 BYTE   W12
 BYTE   N36  Ds3
 BYTE   W36
 BYTE   TIE  Dn4
 BYTE   W48
 BYTE   PEND 
// 018   ----------------------------------------
 BYTE   W84
 BYTE   EOT
 BYTE   N12  Cn4
 BYTE   W12
// 019   ----------------------------------------
 BYTE   TIE  Dn4
 BYTE   W96
// 020   ----------------------------------------
 BYTE   W96
// 021   ----------------------------------------
 BYTE   EOT
 BYTE   PATT
  POIN2 Label_0_012ED68A
 BYTE   PATT
  POIN2 Label_0_012ED693
 BYTE   PATT
  POIN2 Label_0_012ED6A1
// 022   ----------------------------------------
 BYTE   W84
 BYTE   EOT
 BYTE   Dn4
 BYTE   N12  Cn4  v100
 BYTE   W12
// 023   ----------------------------------------
 BYTE   TIE  Dn4
 BYTE   W96
// 024   ----------------------------------------
 BYTE   W96
// 025   ----------------------------------------
 BYTE   EOT
 BYTE   PATT
  POIN2 Label_0_012ED5FA
// 026   ----------------------------------------
 BYTE   N36  Dn4  v100
 BYTE   W36
 BYTE   N12  Cn4
 BYTE   W12
 BYTE   N24  As3
 BYTE   W24
 BYTE   An3
 BYTE   W24
// 027   ----------------------------------------
Label_0_012ED6E2:
 BYTE   N36  As3  v100
 BYTE   W36
 BYTE   N12  An3
 BYTE   W12
 BYTE   N24  Gn3
 BYTE   W24
 BYTE   Fn3
 BYTE   W24
 BYTE   PEND 
// 028   ----------------------------------------
Label_0_012ED6EF:
 BYTE   N60  Gn3  v100
 BYTE   W60
 BYTE   N12  An3
 BYTE   W12
 BYTE   As3
 BYTE   W24
 BYTE   PEND 
// 029   ----------------------------------------
 BYTE   W36
 BYTE   N24  Cn4
 BYTE   W24
 BYTE   As3
 BYTE   W24
 BYTE   N12  An3
 BYTE   W12
// 030   ----------------------------------------
 BYTE   N24  Cn4
 BYTE   W24
 BYTE   N12
 BYTE   W12
 BYTE   N24  As3
 BYTE   W24
 BYTE   An3
 BYTE   W24
 BYTE   N12  As3
 BYTE   W12
// 031   ----------------------------------------
 BYTE   N36  An3
 BYTE   W36
 BYTE   N24  Gn3
 BYTE   W24
 BYTE   Fs3
 BYTE   W24
 BYTE   N12  Gn3
 BYTE   W12
// 032   ----------------------------------------
 BYTE   Dn4
 BYTE   W24
 BYTE   N12
 BYTE   W12
 BYTE   N12
 BYTE   W12
 BYTE   N12
 BYTE   W12
 BYTE   N12
 BYTE   W12
 BYTE   N12
 BYTE   W24
// 033   ----------------------------------------
 BYTE   N24
 BYTE   W36
 BYTE   Cn4
 BYTE   W24
 BYTE   As3
 BYTE   W24
 BYTE   N12  Cn4
 BYTE   W12
// 034   ----------------------------------------
 BYTE   N24  As3
 BYTE   W24
 BYTE   An3
 BYTE   W24
 BYTE   Gn3
 BYTE   W24
 BYTE   Dn3
 BYTE   W24
 BYTE   PATT
  POIN2 Label_0_012ED6E2
 BYTE   PATT
  POIN2 Label_0_012ED6EF
// 035   ----------------------------------------
 BYTE   W36
 BYTE   N24  Cn4  v100
 BYTE   W24
 BYTE   Dn4
 BYTE   W24
 BYTE   N12  Ds4
 BYTE   W12
// 036   ----------------------------------------
 BYTE   N24  Dn4
 BYTE   W24
 BYTE   N12
 BYTE   W12
 BYTE   N24  Cn4
 BYTE   W24
 BYTE   As3
 BYTE   W24
 BYTE   N12  Fs3
 BYTE   W12
// 037   ----------------------------------------
 BYTE   N36  An3
 BYTE   W36
 BYTE   TIE  Gn3
 BYTE   W60
// 038   ----------------------------------------
 BYTE   W84
 BYTE   EOT
 BYTE   W12
// 039   ----------------------------------------
 BYTE   GoTo
  POIN2 Label_0_012ED5FA
 BYTE   FINE

//**************** Track 2 (Midi-Chn.1) ****************//

KenTheme_002:
// 000   ----------------------------------------
 BYTE   KEYSH   KenTheme_key+0
 BYTE   VOICE   85
 BYTE   VOL   41*KenTheme_mvl/mxv
 BYTE   PAN   c_v-20
 BYTE   W96
// 001   ----------------------------------------
 BYTE   W96
// 002   ----------------------------------------
 BYTE   W96
// 003   ----------------------------------------
 BYTE   W96
// 004   ----------------------------------------
 BYTE   W96
// 005   ----------------------------------------
 BYTE   W96
// 006   ----------------------------------------
 BYTE   W96
// 007   ----------------------------------------
 BYTE   W96
// 008   ----------------------------------------
Label_1_012ED778:
 BYTE   W96
// 009   ----------------------------------------
 BYTE   W96
// 010   ----------------------------------------
 BYTE   W96
// 011   ----------------------------------------
 BYTE   W96
// 012   ----------------------------------------
 BYTE   W96
// 013   ----------------------------------------
 BYTE   W96
// 014   ----------------------------------------
 BYTE   W96
// 015   ----------------------------------------
 BYTE   W96
// 016   ----------------------------------------
 BYTE   W96
// 017   ----------------------------------------
 BYTE   W96
// 018   ----------------------------------------
 BYTE   W96
// 019   ----------------------------------------
 BYTE   W96
// 020   ----------------------------------------
 BYTE   W96
// 021   ----------------------------------------
 BYTE   W96
// 022   ----------------------------------------
 BYTE   W96
// 023   ----------------------------------------
 BYTE   W96
// 024   ----------------------------------------
 BYTE   W21
 BYTE   N36  Gn3  v100
 BYTE   W36
 BYTE   N60  An3
 BYTE   W36
 BYTE   W03
// 025   ----------------------------------------
Label_1_012ED791:
 BYTE   W21
 BYTE   N36  As3  v100
 BYTE   W36
 BYTE   N24  Cn4
 BYTE   W24
 BYTE   N12  As3
 BYTE   W12
 BYTE   An3
 BYTE   W03
 BYTE   PEND 
// 026   ----------------------------------------
Label_1_012ED79F:
 BYTE   W09
 BYTE   N12  Gn3  v100
 BYTE   W12
 BYTE   N36  Ds3
 BYTE   W36
 BYTE   TIE  Dn4
 BYTE   W36
 BYTE   W03
 BYTE   PEND 
// 027   ----------------------------------------
 BYTE   W92
 BYTE   W01
 BYTE   EOT
 BYTE   N12  Cn4
 BYTE   W03
// 028   ----------------------------------------
Label_1_012ED7B2:
 BYTE   W09
 BYTE   TIE  Dn4  v100
 BYTE   W84
 BYTE   W03
 BYTE   PEND 
// 029   ----------------------------------------
 BYTE   W96
// 030   ----------------------------------------
 BYTE   W09
 BYTE   EOT
 BYTE   W12
 BYTE   N36  Gn3
 BYTE   W36
 BYTE   N60  An3
 BYTE   W36
 BYTE   W03
 BYTE   PATT
  POIN2 Label_1_012ED791
 BYTE   PATT
  POIN2 Label_1_012ED79F
// 031   ----------------------------------------
 BYTE   W92
 BYTE   W01
 BYTE   EOT
 BYTE   Dn4
 BYTE   N12  Cn4  v100
 BYTE   W03
 BYTE   PATT
  POIN2 Label_1_012ED7B2
// 032   ----------------------------------------
 BYTE   W96
// 033   ----------------------------------------
 BYTE   W09
 BYTE   EOT
 BYTE   Dn4
 BYTE   W84
 BYTE   W03
// 034   ----------------------------------------
 BYTE   W96
// 035   ----------------------------------------
 BYTE   W96
// 036   ----------------------------------------
 BYTE   W96
// 037   ----------------------------------------
 BYTE   W96
// 038   ----------------------------------------
 BYTE   W96
// 039   ----------------------------------------
 BYTE   W96
// 040   ----------------------------------------
 BYTE   W96
// 041   ----------------------------------------
 BYTE   W96
// 042   ----------------------------------------
 BYTE   W96
// 043   ----------------------------------------
 BYTE   W96
// 044   ----------------------------------------
 BYTE   W96
// 045   ----------------------------------------
 BYTE   W96
// 046   ----------------------------------------
 BYTE   W96
// 047   ----------------------------------------
 BYTE   W96
// 048   ----------------------------------------
 BYTE   W96
// 049   ----------------------------------------
 BYTE   GoTo
  POIN2 Label_1_012ED778
 BYTE   FINE

//**************** Track 3 (Midi-Chn.2) ****************//

KenTheme_003:
// 000   ----------------------------------------
 BYTE   KEYSH   KenTheme_key+0
 BYTE   VOICE   30
 BYTE   VOL   44*KenTheme_mvl/mxv
 BYTE   PAN   c_v+30
 BYTE   TIE  Gn1  v100
 BYTE   TIE  Dn2
 BYTE   TIE  Gn2
 BYTE   W96
// 001   ----------------------------------------
 BYTE   W48
 BYTE   EOT
 BYTE   Gn1  v050
 BYTE   Gn2
 BYTE   N12  Dn1
 BYTE   N03  Gn1
 BYTE   W06
 BYTE   N03
 BYTE   W06
 BYTE   N12
 BYTE   N12  Dn2
 BYTE   N06  Gn2
 BYTE   W12
 BYTE   N12  Fn1
 BYTE   N12  Dn2
 BYTE   N06  Fn2
 BYTE   W12
 BYTE   N03  Gn1
 BYTE   W06
 BYTE   N03
 BYTE   W06
// 002   ----------------------------------------
 BYTE   N12  Fn1
 BYTE   N12  As1
 BYTE   N06  Fn2
 BYTE   W24
 BYTE   N12  Ds1
 BYTE   N12  As1
 BYTE   N12  Ds2
 BYTE   W12
 BYTE   N03  Gn1
 BYTE   W06
 BYTE   N03
 BYTE   W06
 BYTE   TIE  Ds1
 BYTE   TIE  As1
 BYTE   TIE  Ds2
 BYTE   W48
// 003   ----------------------------------------
 BYTE   W84
 BYTE   EOT
 BYTE   Ds1  v046
 BYTE   Ds2
 BYTE   N12  As1
 BYTE   N12  Ds2
 BYTE   W12
// 004   ----------------------------------------
 BYTE   Cn2
 BYTE   N12  Dn2
 BYTE   N12  Fn2
 BYTE   W12
 BYTE   TIE  Cn2
 BYTE   N24  Ds2
 BYTE   N24  Gn2
 BYTE   W24
 BYTE   N06  Ds2
 BYTE   N06  Gn2
 BYTE   W12
 BYTE   Ds2
 BYTE   N06  Gn2
 BYTE   W12
 BYTE   Ds2
 BYTE   N06  Gn2
 BYTE   W12
 BYTE   N24  Ds2
 BYTE   N24  Gn2
 BYTE   W24
// 005   ----------------------------------------
 BYTE   N03  Gn1
 BYTE   N06  Ds2
 BYTE   W06
 BYTE   N03  Gn1
 BYTE   W06
 BYTE   N06  Ds2
 BYTE   N06  Gn2
 BYTE   W12
 BYTE   Ds2
 BYTE   N06  Gn2
 BYTE   W12
 BYTE   N03  Gn1
 BYTE   N06  Ds2
 BYTE   W06
 BYTE   N03  Gn1
 BYTE   W06
 BYTE   N24  Ds2
 BYTE   N24  Gn2
 BYTE   W24
 BYTE   EOT
 BYTE   Cn2
 BYTE   N06  Ds2
 BYTE   N06  Gn2
 BYTE   W12
 BYTE   N12  Cn2
 BYTE   N06  Ds2
 BYTE   N06  Gn2
 BYTE   W12
// 006   ----------------------------------------
 BYTE   TIE  Dn2
 BYTE   N24  Fs2
 BYTE   N24  An2
 BYTE   W24
 BYTE   N06  Fs2
 BYTE   N06  An2
 BYTE   W12
 BYTE   Fs2
 BYTE   N06  An2
 BYTE   W12
 BYTE   Fs2
 BYTE   N06  An2
 BYTE   W12
 BYTE   Fs2
 BYTE   N06  An2
 BYTE   W12
 BYTE   N24  Fs2
 BYTE   N24  An2
 BYTE   W24
// 007   ----------------------------------------
 BYTE   N03  Gn1
 BYTE   N06  Fs2
 BYTE   W06
 BYTE   N03  Gn1
 BYTE   W06
 BYTE   N06  Fs2
 BYTE   N06  An2
 BYTE   W12
 BYTE   Fs2
 BYTE   N06  An2
 BYTE   W12
 BYTE   N03  Gn1
 BYTE   N06  Fs2
 BYTE   W06
 BYTE   N03  Gn1
 BYTE   W06
 BYTE   N24  Fs2
 BYTE   N24  An2
 BYTE   W24
 BYTE   EOT
 BYTE   Dn2
 BYTE   N06  Fs2
 BYTE   N06  An2
 BYTE   W12
 BYTE   N12  Dn2
 BYTE   N06  Fs2
 BYTE   N06  An2
 BYTE   W12
// 008   ----------------------------------------
Label_2_012ED8DE:
 BYTE   TIE  Dn2  v100
 BYTE   N36  Gn2
 BYTE   N24  Cn3
 BYTE   W36
 BYTE   N06  Gn2
 BYTE   N12  As2
 BYTE   W12
 BYTE   N06  Gn2
 BYTE   W12
 BYTE   N06
 BYTE   W12
 BYTE   N24
 BYTE   N12  Cn3
 BYTE   W12
 BYTE   N12
 BYTE   W12
 BYTE   PEND 
// 009   ----------------------------------------
Label_2_012ED8F7:
 BYTE   N24  Gn2  v100
 BYTE   N12  As2
 BYTE   W24
 BYTE   PEND 
 BYTE   EOT
 BYTE   Dn2
 BYTE   N12
 BYTE   N24  Gn2
 BYTE   N12  As2
 BYTE   W24
 BYTE   N06  Gn2
 BYTE   W12
 BYTE   N12  Dn2
 BYTE   N24  Gn2
 BYTE   N12  As2
 BYTE   W24
 BYTE   N06  Gn2
 BYTE   W12
// 010   ----------------------------------------
Label_2_012ED913:
 BYTE   TIE  Ds2  v100
 BYTE   N36  Gn2
 BYTE   N24  Cn3
 BYTE   W36
 BYTE   N06  Gn2
 BYTE   N12  As2
 BYTE   W12
 BYTE   N06  Gn2
 BYTE   W12
 BYTE   N06
 BYTE   W12
 BYTE   N24
 BYTE   N12  Cn3
 BYTE   W12
 BYTE   N12
 BYTE   W12
 BYTE   PEND 
 BYTE   PATT
  POIN2 Label_2_012ED8F7
// 011   ----------------------------------------
 BYTE   EOT
 BYTE   Ds2
 BYTE   N12  Ds2  v100
 BYTE   N24  Gn2
 BYTE   N12  As2
 BYTE   W24
 BYTE   N06  Gn2
 BYTE   W12
 BYTE   N12  Ds2
 BYTE   N24  Gn2
 BYTE   N12  As2
 BYTE   W24
 BYTE   N06  Gn2
 BYTE   W12
Label_2_012ED948:
 BYTE   TIE  Cn2  v100
 BYTE   N36  Gn2
 BYTE   N24  Dn3
 BYTE   W36
// 012   ----------------------------------------
 BYTE   N06  Gn2
 BYTE   N12  Cn3
 BYTE   W12
 BYTE   N06  Gn2
 BYTE   W12
 BYTE   N06
 BYTE   W12
 BYTE   N24
 BYTE   N12  Dn3
 BYTE   W12
 BYTE   N12
 BYTE   W12
 BYTE   PEND 
Label_2_012ED961:
 BYTE   N24  Gn2  v100
 BYTE   N12  Cn3
 BYTE   W24
 BYTE   PEND 
 BYTE   EOT
 BYTE   Cn2
 BYTE   N12
 BYTE   N24  Gn2
 BYTE   N12  Cn3
 BYTE   W24
// 013   ----------------------------------------
 BYTE   N06  Gn2
 BYTE   W12
 BYTE   N12  Cn2
 BYTE   N24  Gn2
 BYTE   N12  Cn3
 BYTE   W24
 BYTE   N06  Gn2
 BYTE   W12
Label_2_012ED97D:
 BYTE   TIE  Dn2  v100
 BYTE   N24  Gn2
 BYTE   W36
 BYTE   N12  An2
 BYTE   W36
// 014   ----------------------------------------
 BYTE   Gn2
 BYTE   W12
 BYTE   N12
 BYTE   W12
 BYTE   PEND 
 BYTE   An2
 BYTE   W12
 BYTE   EOT
 BYTE   Dn2
 BYTE   N06
 BYTE   W12
 BYTE   N12
 BYTE   N24  Fs2
 BYTE   N12  An2
 BYTE   W24
 BYTE   N06  Fs2
 BYTE   W12
 BYTE   N12  Dn2
 BYTE   N24  Fs2
 BYTE   N12  An2
 BYTE   W12
// 015   ----------------------------------------
 BYTE   Dn2
 BYTE   W12
 BYTE   N06  Fs2
 BYTE   W12
 BYTE   PATT
  POIN2 Label_2_012ED8DE
 BYTE   PATT
  POIN2 Label_2_012ED8F7
// 016   ----------------------------------------
 BYTE   EOT
 BYTE   Dn2
 BYTE   N12  Dn2  v100
 BYTE   N24  Gn2
 BYTE   N12  As2
 BYTE   W24
 BYTE   N06  Gn2
 BYTE   W12
 BYTE   N12  Dn2
 BYTE   N24  Gn2
 BYTE   N12  As2
 BYTE   W24
 BYTE   N06  Gn2
 BYTE   W12
 BYTE   PATT
  POIN2 Label_2_012ED913
 BYTE   PATT
  POIN2 Label_2_012ED8F7
// 017   ----------------------------------------
 BYTE   EOT
 BYTE   Ds2
 BYTE   N12  Ds2  v100
 BYTE   N24  Gn2
 BYTE   N12  As2
 BYTE   W24
 BYTE   N06  Gn2
 BYTE   W12
 BYTE   N12  Ds2
 BYTE   N24  Gn2
 BYTE   N12  As2
 BYTE   W24
 BYTE   N06  Gn2
 BYTE   W12
 BYTE   PATT
  POIN2 Label_2_012ED948
 BYTE   PATT
  POIN2 Label_2_012ED961
// 018   ----------------------------------------
 BYTE   EOT
 BYTE   Cn2
 BYTE   N12  Cn2  v100
 BYTE   N24  Gn2
 BYTE   N12  Cn3
 BYTE   W24
 BYTE   N06  Gn2
 BYTE   W12
 BYTE   N12  Cn2
 BYTE   N24  Gn2
 BYTE   N12  Cn3
 BYTE   W24
 BYTE   N06  Gn2
 BYTE   W12
 BYTE   PATT
  POIN2 Label_2_012ED97D
// 019   ----------------------------------------
 BYTE   N12  An2  v100
 BYTE   W12
 BYTE   EOT
 BYTE   Dn2
 BYTE   N06
 BYTE   W12
 BYTE   N12
 BYTE   N24  Fs2
 BYTE   N12  An2
 BYTE   W12
 BYTE   Dn2
 BYTE   W12
 BYTE   N12
 BYTE   N06  Fs2
 BYTE   N12  An2
 BYTE   W12
 BYTE   Dn2
 BYTE   N06  Fs2
 BYTE   W12
 BYTE   N12  Dn2
 BYTE   N06  Fs2
 BYTE   W24
// 020   ----------------------------------------
 BYTE   W12
 BYTE   TIE  As1
 BYTE   TIE  Ds2
 BYTE   W84
// 021   ----------------------------------------
 BYTE   W96
// 022   ----------------------------------------
 BYTE   W12
 BYTE   EOT
 BYTE   As1  v051
 BYTE   TIE  Gn1
 BYTE   TIE  Cn2
 BYTE   W84
// 023   ----------------------------------------
 BYTE   W96
// 024   ----------------------------------------
 BYTE   N36  Dn2
 BYTE   N36  Gn2
 BYTE   N36  Cn3
 BYTE   W12
 BYTE   EOT
 BYTE   Gn1  v048
 BYTE   W24
 BYTE   N06  Dn2
 BYTE   N06  Gn2
 BYTE   N24  As2
 BYTE   W12
 BYTE   N06  Dn2
 BYTE   N06  Gn2
 BYTE   W12
 BYTE   Dn2
 BYTE   N06  Gn2
 BYTE   W12
 BYTE   N24  Dn2
 BYTE   N24  Gn2
 BYTE   N12  Cn3
 BYTE   W12
 BYTE   N12
 BYTE   W12
// 025   ----------------------------------------
 BYTE   N06  Dn2
 BYTE   N06  Gn2
 BYTE   N12  As2
 BYTE   W12
 BYTE   N06  Dn2
 BYTE   N06  Gn2
 BYTE   W12
 BYTE   N24  Dn2
 BYTE   N24  Gn2
 BYTE   N24  As2
 BYTE   W24
 BYTE   N06  Dn2
 BYTE   N06  As2
 BYTE   W12
 BYTE   Dn2
 BYTE   N12  Gn2
 BYTE   N06  As2
 BYTE   W12
 BYTE   Dn2
 BYTE   N12  Gn2
 BYTE   N06  As2
 BYTE   W12
 BYTE   Dn2
 BYTE   N06  As2
 BYTE   W12
// 026   ----------------------------------------
 BYTE   TIE  As1
 BYTE   TIE  Ds2
 BYTE   W96
// 027   ----------------------------------------
 BYTE   W96
// 028   ----------------------------------------
 BYTE   W12
 BYTE   EOT
 BYTE   As1  v051
 BYTE   TIE  Cn2
 BYTE   TIE  Fn2
 BYTE   W84
// 029   ----------------------------------------
 BYTE   W96
// 030   ----------------------------------------
 BYTE   EOT
 BYTE   Cn2  v053
 BYTE   N24  Dn2
 BYTE   N24  Fs2
 BYTE   N36  As2
 BYTE   W24
 BYTE   N06  Dn2
 BYTE   N06  Fs2
 BYTE   W12
 BYTE   Dn2
 BYTE   N06  Fs2
 BYTE   N12  An2
 BYTE   W12
 BYTE   N06  Dn2
 BYTE   N06  Fs2
 BYTE   W12
 BYTE   Dn2
 BYTE   N06  Fs2
 BYTE   W12
 BYTE   Dn2
 BYTE   N06  Fs2
 BYTE   N12  As2
 BYTE   W12
 BYTE   N06  Dn2
 BYTE   N06  Fs2
 BYTE   N12  As2
 BYTE   W12
// 031   ----------------------------------------
 BYTE   N06  Dn2
 BYTE   N06  Fs2
 BYTE   N12  An2
 BYTE   W12
 BYTE   N06  Dn2
 BYTE   N06  Fs2
 BYTE   W12
 BYTE   N24  Dn2
 BYTE   N24  Fs2
 BYTE   N12  An2
 BYTE   W24
 BYTE   N06  Dn2
 BYTE   N06  Fs2
 BYTE   W12
 BYTE   Dn2
 BYTE   N06  Fs2
 BYTE   N12  An2
 BYTE   W12
 BYTE   N24  Dn2
 BYTE   N06  Fs2
 BYTE   N12  An2
 BYTE   W24
// 032   ----------------------------------------
Label_2_012EDAEA:
 BYTE   N24  Dn2  v100
 BYTE   N36  Gn2
 BYTE   N36  Cn3
 BYTE   W24
 BYTE   N06  Dn2
 BYTE   W12
 BYTE   N06
 BYTE   N06  Gn2
 BYTE   N12  As2
 BYTE   W12
 BYTE   N06  Dn2
 BYTE   N06  Gn2
 BYTE   W12
 BYTE   Dn2
 BYTE   N06  Gn2
 BYTE   W12
 BYTE   Dn2
 BYTE   N24  Gn2
 BYTE   N12  Cn3
 BYTE   W12
 BYTE   N06  Dn2
 BYTE   N12  Cn3
 BYTE   W12
 BYTE   PEND 
// 033   ----------------------------------------
Label_2_012EDB10:
 BYTE   N06  Dn2  v100
 BYTE   N24  Gn2
 BYTE   N12  As2
 BYTE   W12
 BYTE   N06  Dn2
 BYTE   W12
 BYTE   N24
 BYTE   N24  Gn2
 BYTE   N12  As2
 BYTE   W24
 BYTE   N06  Dn2
 BYTE   N06  Gn2
 BYTE   W12
 BYTE   Dn2
 BYTE   N24  Gn2
 BYTE   N12  As2
 BYTE   W12
 BYTE   N06  Dn2
 BYTE   W12
 BYTE   N06
 BYTE   N06  Gn2
 BYTE   W12
 BYTE   PEND 
// 034   ----------------------------------------
Label_2_012EDB34:
 BYTE   N24  Ds2  v100
 BYTE   N36  Gn2
 BYTE   N36  Cn3
 BYTE   W24
 BYTE   N06  Ds2
 BYTE   W12
 BYTE   N06
 BYTE   N06  Gn2
 BYTE   N12  As2
 BYTE   W12
 BYTE   N06  Ds2
 BYTE   N06  Gn2
 BYTE   W12
 BYTE   Ds2
 BYTE   N06  Gn2
 BYTE   W12
 BYTE   Ds2
 BYTE   N24  Gn2
 BYTE   N12  Cn3
 BYTE   W12
 BYTE   N06  Ds2
 BYTE   N12  Cn3
 BYTE   W12
 BYTE   PEND 
// 035   ----------------------------------------
 BYTE   N06  Ds2
 BYTE   N24  Gn2
 BYTE   N12  As2
 BYTE   W12
 BYTE   N06  Ds2
 BYTE   W12
 BYTE   N24
 BYTE   N24  Gn2
 BYTE   N12  As2
 BYTE   W24
 BYTE   N06  Ds2
 BYTE   N06  Gn2
 BYTE   W12
 BYTE   Ds2
 BYTE   N24  Gn2
 BYTE   N12  As2
 BYTE   W12
 BYTE   N06  Ds2
 BYTE   W12
 BYTE   N06
 BYTE   N06  Gn2
 BYTE   W12
// 036   ----------------------------------------
 BYTE   N24  Cn2
 BYTE   N36  Gn2
 BYTE   N36  Dn3
 BYTE   W24
 BYTE   N06  Cn2
 BYTE   W12
 BYTE   N06
 BYTE   N06  Gn2
 BYTE   N12  Cn3
 BYTE   W12
 BYTE   N06  Cn2
 BYTE   N06  Gn2
 BYTE   W12
 BYTE   Cn2
 BYTE   N06  Gn2
 BYTE   W12
 BYTE   Cn2
 BYTE   N24  Gn2
 BYTE   N12  Dn3
 BYTE   W12
 BYTE   N06  Cn2
 BYTE   N12  Dn3
 BYTE   W12
// 037   ----------------------------------------
 BYTE   N06  Cn2
 BYTE   N24  Gn2
 BYTE   N12  Cn3
 BYTE   W12
 BYTE   N06  Cn2
 BYTE   W12
 BYTE   N24
 BYTE   N24  Gn2
 BYTE   N12  Cn3
 BYTE   W24
 BYTE   N06  Cn2
 BYTE   N06  Gn2
 BYTE   W12
 BYTE   Cn2
 BYTE   N24  Gn2
 BYTE   N12  Cn3
 BYTE   W12
 BYTE   N24  Cn2
 BYTE   W12
 BYTE   N06  Gn2
 BYTE   W12
// 038   ----------------------------------------
 BYTE   N24  Dn2
 BYTE   N36  Gn2
 BYTE   W24
 BYTE   N06  Dn2
 BYTE   W12
 BYTE   N06
 BYTE   N12  An2
 BYTE   W12
 BYTE   N06  Dn2
 BYTE   W12
 BYTE   N06
 BYTE   W12
 BYTE   N06
 BYTE   N12  Gn2
 BYTE   W12
 BYTE   N06  Dn2
 BYTE   N12  Gn2
 BYTE   W12
// 039   ----------------------------------------
 BYTE   N06  Dn2
 BYTE   N24  Fs2
 BYTE   N24  An2
 BYTE   W24
 BYTE   N06  Dn2
 BYTE   N06  Fs2
 BYTE   N06  An2
 BYTE   W12
 BYTE   Dn2
 BYTE   N06  Fs2
 BYTE   N06  An2
 BYTE   W12
 BYTE   Dn2
 BYTE   N06  Fs2
 BYTE   N06  An2
 BYTE   W12
 BYTE   Dn2
 BYTE   N06  Fs2
 BYTE   N06  An2
 BYTE   W12
 BYTE   Dn2
 BYTE   N06  Fs2
 BYTE   N06  An2
 BYTE   W24
 BYTE   PATT
  POIN2 Label_2_012EDAEA
 BYTE   PATT
  POIN2 Label_2_012EDB10
 BYTE   PATT
  POIN2 Label_2_012EDB34
// 040   ----------------------------------------
 BYTE   N06  Ds2  v100
 BYTE   N24  Gn2
 BYTE   N12  As2
 BYTE   W12
 BYTE   N06  Ds2
 BYTE   W12
 BYTE   N24
 BYTE   N24  Gn2
 BYTE   N12  As2
 BYTE   W24
 BYTE   N06  Ds2
 BYTE   N06  Gn2
 BYTE   W12
 BYTE   Ds2
 BYTE   N06  Gn2
 BYTE   N12  As2
 BYTE   W12
 BYTE   N06  Ds2
 BYTE   N06  Gn2
 BYTE   W12
 BYTE   Ds2
 BYTE   N06  Gn2
 BYTE   W12
// 041   ----------------------------------------
 BYTE   N24  Fn2
 BYTE   N36  As2
 BYTE   W24
 BYTE   N06  Fn2
 BYTE   W12
 BYTE   N06
 BYTE   N12  An2
 BYTE   W12
 BYTE   N06  Fn2
 BYTE   W12
 BYTE   N06
 BYTE   W12
 BYTE   N06
 BYTE   N12  As2
 BYTE   W12
 BYTE   N06  Fn2
 BYTE   N12  As2
 BYTE   W12
// 042   ----------------------------------------
 BYTE   N24  Fs2
 BYTE   N12  An2
 BYTE   W24
 BYTE   N06  Fs2
 BYTE   N12  An2
 BYTE   W12
 BYTE   N06  Fs2
 BYTE   W12
 BYTE   N06
 BYTE   W12
 BYTE   N06
 BYTE   N12  An2
 BYTE   W12
 BYTE   N06  Fs2
 BYTE   W24
// 043   ----------------------------------------
 BYTE   N36  Gn2
 BYTE   N36  An2
 BYTE   N36  Cn3
 BYTE   W36
 BYTE   N48  Gn2
 BYTE   N48  As2
 BYTE   W60
// 044   ----------------------------------------
 BYTE   W12
 BYTE   N03  Gn1
 BYTE   W06
 BYTE   N03
 BYTE   W06
 BYTE   N06  Dn2
 BYTE   N12  Gn2
 BYTE   W12
 BYTE   N03  Gn1
 BYTE   N06  Dn2
 BYTE   N06  Gn2
 BYTE   W06
 BYTE   N03  Gn1
 BYTE   W06
 BYTE   N06  Dn2
 BYTE   N06  Gn2
 BYTE   W12
 BYTE   N03  Gn1
 BYTE   N06  Dn2
 BYTE   N12  Gn2
 BYTE   W06
 BYTE   N03  Gn1
 BYTE   W06
 BYTE   N06  Dn2
 BYTE   N06  Gn2
 BYTE   W12
 BYTE   N06
 BYTE   W12
// 045   ----------------------------------------
 BYTE   GoTo
  POIN2 Label_2_012ED8DE
 BYTE   FINE

//**************** Track 4 (Midi-Chn.3) ****************//

KenTheme_004:
// 000   ----------------------------------------
 BYTE   KEYSH   KenTheme_key+0
 BYTE   VOICE   85
 BYTE   VOL   41*KenTheme_mvl/mxv
 BYTE   PAN   c_v+63
 BYTE   W96
// 001   ----------------------------------------
 BYTE   W96
// 002   ----------------------------------------
 BYTE   W96
// 003   ----------------------------------------
 BYTE   W96
// 004   ----------------------------------------
 BYTE   W96
// 005   ----------------------------------------
 BYTE   W96
// 006   ----------------------------------------
 BYTE   W96
// 007   ----------------------------------------
 BYTE   W96
// 008   ----------------------------------------
Label_3_012EDCB4:
 BYTE   W96
// 009   ----------------------------------------
 BYTE   W96
// 010   ----------------------------------------
 BYTE   W96
// 011   ----------------------------------------
 BYTE   W96
// 012   ----------------------------------------
 BYTE   W96
// 013   ----------------------------------------
 BYTE   W96
// 014   ----------------------------------------
 BYTE   W96
// 015   ----------------------------------------
 BYTE   W96
// 016   ----------------------------------------
 BYTE   W96
// 017   ----------------------------------------
 BYTE   W96
// 018   ----------------------------------------
 BYTE   W96
// 019   ----------------------------------------
 BYTE   W96
// 020   ----------------------------------------
 BYTE   W96
// 021   ----------------------------------------
 BYTE   W96
// 022   ----------------------------------------
 BYTE   W96
// 023   ----------------------------------------
 BYTE   W96
// 024   ----------------------------------------
Label_3_012EDCC4:
 BYTE   W24
 BYTE   N12  Ds3  v100
 BYTE   W12
 BYTE   Gn3
 BYTE   W12
 BYTE   N60  Dn4
 BYTE   W48
 BYTE   PEND 
// 025   ----------------------------------------
Label_3_012EDCCF:
 BYTE   W24
 BYTE   N12  Ds3  v100
 BYTE   W12
 BYTE   Gn3
 BYTE   W12
 BYTE   N24  Dn4
 BYTE   W24
 BYTE   N12  As3
 BYTE   W12
 BYTE   An3
 BYTE   W12
 BYTE   PEND 
// 026   ----------------------------------------
 BYTE   N24  Gn3
 BYTE   W24
 BYTE   N12  Cn3
 BYTE   W12
 BYTE   Ds3
 BYTE   W12
 BYTE   N60  As3
 BYTE   W48
// 027   ----------------------------------------
 BYTE   W24
 BYTE   N12  Cn3
 BYTE   W12
 BYTE   Ds3
 BYTE   W12
 BYTE   N24  As3
 BYTE   W24
 BYTE   N12  An3
 BYTE   W24
// 028   ----------------------------------------
 BYTE   W96
// 029   ----------------------------------------
 BYTE   W96
 BYTE   PATT
  POIN2 Label_3_012EDCC4
 BYTE   PATT
  POIN2 Label_3_012EDCCF
// 030   ----------------------------------------
 BYTE   N24  Gn3  v100
 BYTE   W24
 BYTE   N12  Fn3
 BYTE   W12
 BYTE   An3
 BYTE   W12
 BYTE   N60  Fn4
 BYTE   W48
// 031   ----------------------------------------
 BYTE   W24
 BYTE   N12  Fn3
 BYTE   W12
 BYTE   An3
 BYTE   W12
 BYTE   N24  Fn4
 BYTE   W24
 BYTE   N12  Ds4
 BYTE   W24
// 032   ----------------------------------------
 BYTE   W96
// 033   ----------------------------------------
 BYTE   W96
// 034   ----------------------------------------
 BYTE   W96
// 035   ----------------------------------------
 BYTE   W96
// 036   ----------------------------------------
 BYTE   W96
// 037   ----------------------------------------
 BYTE   W96
// 038   ----------------------------------------
 BYTE   W96
// 039   ----------------------------------------
 BYTE   W96
// 040   ----------------------------------------
 BYTE   W96
// 041   ----------------------------------------
 BYTE   W96
// 042   ----------------------------------------
 BYTE   W96
// 043   ----------------------------------------
 BYTE   W96
// 044   ----------------------------------------
 BYTE   W96
// 045   ----------------------------------------
 BYTE   W96
// 046   ----------------------------------------
 BYTE   W96
// 047   ----------------------------------------
 BYTE   W96
// 048   ----------------------------------------
 BYTE   W96
// 049   ----------------------------------------
 BYTE   W96
// 050   ----------------------------------------
 BYTE   GoTo
  POIN2 Label_3_012EDCB4
 BYTE   FINE

//**************** Track 5 (Midi-Chn.4) ****************//

KenTheme_005:
// 000   ----------------------------------------
 BYTE   KEYSH   KenTheme_key+0
 BYTE   VOICE   31
 BYTE   VOL   51*KenTheme_mvl/mxv
 BYTE   PAN   c_v-30
 BYTE   TIE  Gn0  v100
 BYTE   W96
// 001   ----------------------------------------
 BYTE   W48
 BYTE   EOT
 BYTE   N12
 BYTE   W12
 BYTE   Gn1
 BYTE   W12
 BYTE   Fn1
 BYTE   W24
// 002   ----------------------------------------
 BYTE   TIE  Ds1
 BYTE   W96
// 003   ----------------------------------------
 BYTE   W80
 BYTE   W02
 BYTE   EOT
 BYTE   W01
 BYTE   N10
 BYTE   W13
// 004   ----------------------------------------
 BYTE   Dn1
 BYTE   W12
 BYTE   Cn1
 BYTE   W12
 BYTE   N10
 BYTE   W12
 BYTE   N10
 BYTE   W12
 BYTE   N10
 BYTE   W12
 BYTE   N10
 BYTE   W12
 BYTE   N10
 BYTE   W12
 BYTE   N10
 BYTE   W12
// 005   ----------------------------------------
 BYTE   N10
 BYTE   W12
 BYTE   N10
 BYTE   W12
 BYTE   N10
 BYTE   W12
 BYTE   N10
 BYTE   W12
 BYTE   N10
 BYTE   W12
 BYTE   N10
 BYTE   W12
 BYTE   N10
 BYTE   W12
 BYTE   N10
 BYTE   W12
// 006   ----------------------------------------
Label_4_012EDD71:
 BYTE   N24  Dn1  v100
 BYTE   W24
 BYTE   N10
 BYTE   W12
 BYTE   N10
 BYTE   W12
 BYTE   N10
 BYTE   W12
 BYTE   N10
 BYTE   W12
 BYTE   N10
 BYTE   W12
 BYTE   N10
 BYTE   W12
 BYTE   PEND 
// 007   ----------------------------------------
 BYTE   N10
 BYTE   W12
 BYTE   N10
 BYTE   W12
 BYTE   N10
 BYTE   W12
 BYTE   N10
 BYTE   W12
 BYTE   N10
 BYTE   W12
 BYTE   N10
 BYTE   W12
 BYTE   N10
 BYTE   W12
 BYTE   N10
 BYTE   W12
// 008   ----------------------------------------
Label_4_012EDD92:
 BYTE   N24  Gn1  v100
 BYTE   W24
 BYTE   N10
 BYTE   W12
 BYTE   N10
 BYTE   W12
 BYTE   N10
 BYTE   W12
 BYTE   N10
 BYTE   W12
 BYTE   N10
 BYTE   W12
 BYTE   N10
 BYTE   W12
 BYTE   PEND 
// 009   ----------------------------------------
 BYTE   N10
 BYTE   W12
 BYTE   N10
 BYTE   W12
 BYTE   N10
 BYTE   W12
 BYTE   N10
 BYTE   W12
 BYTE   N11  Gn0
 BYTE   W12
 BYTE   N10  Gn1
 BYTE   W12
 BYTE   Fn1
 BYTE   W24
// 010   ----------------------------------------
Label_4_012EDDB3:
 BYTE   N24  Ds1  v100
 BYTE   W24
 BYTE   N10
 BYTE   W12
 BYTE   N10
 BYTE   W12
 BYTE   N10
 BYTE   W12
 BYTE   N10
 BYTE   W12
 BYTE   N10
 BYTE   W12
 BYTE   N10
 BYTE   W12
 BYTE   PEND 
// 011   ----------------------------------------
 BYTE   N10
 BYTE   W12
 BYTE   N10
 BYTE   W12
 BYTE   N10
 BYTE   W12
 BYTE   N10
 BYTE   W12
 BYTE   N10
 BYTE   W12
 BYTE   N10
 BYTE   W12
 BYTE   N10
 BYTE   W12
 BYTE   N11  Dn1
 BYTE   W12
// 012   ----------------------------------------
Label_4_012EDDD5:
 BYTE   N24  Cn1  v100
 BYTE   W24
 BYTE   N10
 BYTE   W12
 BYTE   N10
 BYTE   W12
 BYTE   N10
 BYTE   W12
 BYTE   N10
 BYTE   W12
 BYTE   N10
 BYTE   W12
 BYTE   N10
 BYTE   W12
 BYTE   PEND 
// 013   ----------------------------------------
Label_4_012EDDE6:
 BYTE   N10  Cn1  v100
 BYTE   W12
 BYTE   N10
 BYTE   W12
 BYTE   N10
 BYTE   W12
 BYTE   N10
 BYTE   W12
 BYTE   N10
 BYTE   W12
 BYTE   N10
 BYTE   W12
 BYTE   N09  An0
 BYTE   W24
 BYTE   PEND 
 BYTE   PATT
  POIN2 Label_4_012EDD71
// 014   ----------------------------------------
Label_4_012EDDFD:
 BYTE   N10  Dn1  v100
 BYTE   W12
 BYTE   N10
 BYTE   W12
 BYTE   N10
 BYTE   W12
 BYTE   N10
 BYTE   W12
 BYTE   N10
 BYTE   W12
 BYTE   N10
 BYTE   W12
 BYTE   N10
 BYTE   W24
 BYTE   PEND 
 BYTE   PATT
  POIN2 Label_4_012EDD92
// 015   ----------------------------------------
 BYTE   N10  Gn1  v100
 BYTE   W12
 BYTE   N10
 BYTE   W12
 BYTE   N10
 BYTE   W12
 BYTE   N10
 BYTE   W12
 BYTE   Gn0
 BYTE   W12
 BYTE   Gn1
 BYTE   W12
 BYTE   N09  Fn1
 BYTE   W24
 BYTE   PATT
  POIN2 Label_4_012EDDB3
// 016   ----------------------------------------
Label_4_012EDE29:
 BYTE   N10  Ds1  v100
 BYTE   W12
 BYTE   N10
 BYTE   W12
 BYTE   N10
 BYTE   W12
 BYTE   N10
 BYTE   W12
 BYTE   N10
 BYTE   W12
 BYTE   N10
 BYTE   W12
 BYTE   N10
 BYTE   W12
 BYTE   N09  Dn1
 BYTE   W12
 BYTE   PEND 
 BYTE   PATT
  POIN2 Label_4_012EDDD5
 BYTE   PATT
  POIN2 Label_4_012EDDE6
 BYTE   PATT
  POIN2 Label_4_012EDD71
 BYTE   PATT
  POIN2 Label_4_012EDDFD
// 017   ----------------------------------------
 BYTE   W12
 BYTE   N12  Ds1  v100
 BYTE   W36
 BYTE   N60
 BYTE   W48
// 018   ----------------------------------------
 BYTE   W12
 BYTE   N12
 BYTE   W36
 BYTE   N24
 BYTE   W24
 BYTE   N12
 BYTE   W12
 BYTE   N24  Dn1
 BYTE   W12
// 019   ----------------------------------------
 BYTE   W12
 BYTE   N12  Cn1
 BYTE   W36
 BYTE   N60
 BYTE   W48
// 020   ----------------------------------------
 BYTE   W12
 BYTE   N12
 BYTE   W36
 BYTE   N24
 BYTE   W24
 BYTE   N12
 BYTE   W12
 BYTE   Dn1
 BYTE   W12
// 021   ----------------------------------------
 BYTE   N24  Gn0
 BYTE   W24
 BYTE   N12
 BYTE   W12
 BYTE   As0
 BYTE   W12
 BYTE   Dn1
 BYTE   W12
 BYTE   Fn1
 BYTE   W12
 BYTE   En1
 BYTE   W24
// 022   ----------------------------------------
 BYTE   Gn0
 BYTE   W12
 BYTE   As0
 BYTE   W12
 BYTE   Dn1
 BYTE   W12
 BYTE   Fn1
 BYTE   W12
 BYTE   En1
 BYTE   W48
// 023   ----------------------------------------
 BYTE   As0
 BYTE   W12
 BYTE   Ds1
 BYTE   W36
 BYTE   N60
 BYTE   W48
// 024   ----------------------------------------
 BYTE   W12
 BYTE   N12
 BYTE   W36
 BYTE   N24
 BYTE   W24
 BYTE   N12
 BYTE   W12
 BYTE   N24
 BYTE   W12
// 025   ----------------------------------------
 BYTE   W12
 BYTE   N12  Fn1
 BYTE   W36
 BYTE   N60
 BYTE   W48
// 026   ----------------------------------------
 BYTE   W12
 BYTE   N12
 BYTE   W36
 BYTE   N24
 BYTE   W24
 BYTE   N12
 BYTE   W12
 BYTE   N12
 BYTE   W12
// 027   ----------------------------------------
 BYTE   N24  Dn1
 BYTE   W24
 BYTE   N12
 BYTE   W12
 BYTE   Fn1
 BYTE   W12
 BYTE   An1
 BYTE   W12
 BYTE   N10  Dn2
 BYTE   W12
 BYTE   N24  Cn2
 BYTE   W24
// 028   ----------------------------------------
 BYTE   Dn2
 BYTE   W24
 BYTE   N11  Dn1
 BYTE   W12
 BYTE   N11
 BYTE   W12
 BYTE   N11
 BYTE   W12
 BYTE   N11
 BYTE   W12
 BYTE   N11
 BYTE   W24
 BYTE   PATT
  POIN2 Label_4_012EDD92
// 029   ----------------------------------------
Label_4_012EDEC7:
 BYTE   N10  Gn1  v100
 BYTE   W12
 BYTE   N10
 BYTE   W12
 BYTE   N10
 BYTE   W12
 BYTE   N10
 BYTE   W12
 BYTE   N09  Gn0
 BYTE   W12
 BYTE   N10  Gn1
 BYTE   W12
 BYTE   N09  Fn1
 BYTE   W24
 BYTE   PEND 
 BYTE   PATT
  POIN2 Label_4_012EDDB3
 BYTE   PATT
  POIN2 Label_4_012EDE29
 BYTE   PATT
  POIN2 Label_4_012EDDD5
 BYTE   PATT
  POIN2 Label_4_012EDDE6
 BYTE   PATT
  POIN2 Label_4_012EDD71
 BYTE   PATT
  POIN2 Label_4_012EDDFD
 BYTE   PATT
  POIN2 Label_4_012EDD92
 BYTE   PATT
  POIN2 Label_4_012EDEC7
 BYTE   PATT
  POIN2 Label_4_012EDDB3
// 030   ----------------------------------------
 BYTE   N10  Ds1  v100
 BYTE   W12
 BYTE   N10
 BYTE   W12
 BYTE   N10
 BYTE   W12
 BYTE   N10
 BYTE   W12
 BYTE   N10
 BYTE   W12
 BYTE   N10
 BYTE   W12
 BYTE   N10
 BYTE   W12
 BYTE   N09
 BYTE   W12
// 031   ----------------------------------------
 BYTE   N24  Fn1
 BYTE   W24
 BYTE   N10
 BYTE   W12
 BYTE   N10
 BYTE   W12
 BYTE   N10
 BYTE   W12
 BYTE   N10
 BYTE   W12
 BYTE   N10
 BYTE   W12
 BYTE   N10
 BYTE   W12
// 032   ----------------------------------------
 BYTE   N10
 BYTE   W12
 BYTE   Fs1
 BYTE   W12
 BYTE   N10
 BYTE   W12
 BYTE   N10
 BYTE   W12
 BYTE   N10
 BYTE   W12
 BYTE   N10
 BYTE   W12
 BYTE   N10
 BYTE   W12
 BYTE   N10
 BYTE   W12
// 033   ----------------------------------------
 BYTE   N96  Gn1
 BYTE   W96
// 034   ----------------------------------------
 BYTE   W60
 BYTE   N12  Gn0
 BYTE   W12
 BYTE   Gn1
 BYTE   W24
// 035   ----------------------------------------
 BYTE   GoTo
  POIN2 Label_4_012EDD92
 BYTE   FINE

//**************** Track 6 (Midi-Chn.5) ****************//

KenTheme_006:
// 000   ----------------------------------------
 BYTE   KEYSH   KenTheme_key+0
 BYTE   VOICE   127
 BYTE   VOL   60*KenTheme_mvl/mxv
 BYTE   PAN   c_v+0
 BYTE   N12  Dn1  v100
 BYTE   N12  Cs2
 BYTE   W12
 BYTE   Cn1
 BYTE   W48
 BYTE   N12
 BYTE   W36
// 001   ----------------------------------------
 BYTE   W12
 BYTE   N12
 BYTE   W36
 BYTE   N12
 BYTE   W12
 BYTE   N12
 BYTE   W12
 BYTE   N12
 BYTE   W24
// 002   ----------------------------------------
 BYTE   Dn1
 BYTE   N12  Cs2
 BYTE   W12
 BYTE   Cn1
 BYTE   W48
 BYTE   N12
 BYTE   W36
// 003   ----------------------------------------
 BYTE   W12
 BYTE   N12
 BYTE   W48
 BYTE   N12
 BYTE   W24
 BYTE   N12
 BYTE   W12
// 004   ----------------------------------------
 BYTE   N12
 BYTE   W12
 BYTE   N12
 BYTE   N12  Cs2
 BYTE   W24
 BYTE   Dn1
 BYTE   W24
 BYTE   Cn1
 BYTE   W24
 BYTE   Dn1
 BYTE   W12
// 005   ----------------------------------------
Label_5_012EDF7E:
 BYTE   W12
 BYTE   N12  Cn1  v100
 BYTE   W24
 BYTE   Dn1
 BYTE   W12
 BYTE   Cn1
 BYTE   W24
 BYTE   N12
 BYTE   W12
 BYTE   Dn1
 BYTE   W12
 BYTE   PEND 
// 006   ----------------------------------------
Label_5_012EDF8C:
 BYTE   N12  Dn1  v100
 BYTE   N12  Cs2
 BYTE   W12
 BYTE   Cn1
 BYTE   W24
 BYTE   Dn1
 BYTE   W24
 BYTE   Cn1
 BYTE   W24
 BYTE   Dn1
 BYTE   W12
 BYTE   PEND 
 BYTE   PATT
  POIN2 Label_5_012EDF7E
// 007   ----------------------------------------
Label_5_012EDFA0:
 BYTE   PATT
  POIN2 Label_5_012EDF8C
 BYTE   PATT
  POIN2 Label_5_012EDF7E
// 008   ----------------------------------------
Label_5_012EDFAA:
 BYTE   N12  Cn1  v100
 BYTE   W12
 BYTE   N12
 BYTE   W12
 BYTE   N12
 BYTE   W12
 BYTE   Dn1
 BYTE   W24
 BYTE   Cn1
 BYTE   W24
 BYTE   Dn1
 BYTE   W12
 BYTE   PEND 
 BYTE   PATT
  POIN2 Label_5_012EDF7E
 BYTE   PATT
  POIN2 Label_5_012EDFAA
 BYTE   PATT
  POIN2 Label_5_012EDF7E
 BYTE   PATT
  POIN2 Label_5_012EDFAA
 BYTE   PATT
  POIN2 Label_5_012EDF7E
// 009   ----------------------------------------
 BYTE   N12  Cn1  v100
 BYTE   N12  Cs2
 BYTE   W12
 BYTE   Cn1
 BYTE   W24
 BYTE   Dn1
 BYTE   W24
 BYTE   Cn1
 BYTE   W24
 BYTE   Dn1
 BYTE   W12
 BYTE   PATT
  POIN2 Label_5_012EDF7E
 BYTE   PATT
  POIN2 Label_5_012EDFAA
 BYTE   PATT
  POIN2 Label_5_012EDF7E
 BYTE   PATT
  POIN2 Label_5_012EDFAA
 BYTE   PATT
  POIN2 Label_5_012EDF7E
 BYTE   PATT
  POIN2 Label_5_012EDFAA
// 010   ----------------------------------------
Label_5_012EDFFE:
 BYTE   W12
 BYTE   N12  Cn1  v100
 BYTE   W12
 BYTE   Dn1
 BYTE   N12  Cs2
 BYTE   W12
 BYTE   Dn1
 BYTE   N12  Cs2
 BYTE   W12
 BYTE   Dn1
 BYTE   N12  Cs2
 BYTE   W12
 BYTE   Dn1
 BYTE   N12  Cs2
 BYTE   W12
 BYTE   Dn1
 BYTE   N12  Cs2
 BYTE   W24
 BYTE   PEND 
// 011   ----------------------------------------
 BYTE   W12
 BYTE   Cn1
 BYTE   N12  Cs2
 BYTE   W36
 BYTE   Cn1
 BYTE   W36
 BYTE   Dn1
 BYTE   W12
// 012   ----------------------------------------
Label_5_012EE021:
 BYTE   W12
 BYTE   N12  Cn1  v100
 BYTE   W36
 BYTE   N12
 BYTE   W24
 BYTE   An1
 BYTE   W12
 BYTE   Gn1
 BYTE   W12
 BYTE   PEND 
// 013   ----------------------------------------
Label_5_012EE02D:
 BYTE   N12  Fn1  v100
 BYTE   W12
 BYTE   Cn1
 BYTE   N12  Cs2
 BYTE   W36
 BYTE   Cn1
 BYTE   W36
 BYTE   Dn1
 BYTE   W12
 BYTE   PEND 
 BYTE   PATT
  POIN2 Label_5_012EE021
// 014   ----------------------------------------
Label_5_012EE03F:
 BYTE   N12  Fn1  v100
 BYTE   N12  Cs2
 BYTE   W24
 BYTE   Cn1
 BYTE   W12
 BYTE   Dn1
 BYTE   W24
 BYTE   Cn1
 BYTE   W24
 BYTE   Dn1
 BYTE   W12
 BYTE   PEND 
 BYTE   PATT
  POIN2 Label_5_012EDF7E
// 015   ----------------------------------------
 BYTE   N12  Dn1  v100
 BYTE   N12  Cs2
 BYTE   W12
 BYTE   Cn1
 BYTE   W36
 BYTE   N12
 BYTE   W36
 BYTE   Dn1
 BYTE   W12
 BYTE   PATT
  POIN2 Label_5_012EE021
 BYTE   PATT
  POIN2 Label_5_012EE02D
 BYTE   PATT
  POIN2 Label_5_012EE021
 BYTE   PATT
  POIN2 Label_5_012EE03F
 BYTE   PATT
  POIN2 Label_5_012EDF7E
 BYTE   PATT
  POIN2 Label_5_012EDF8C
 BYTE   PATT
  POIN2 Label_5_012EDF7E
 BYTE   PATT
  POIN2 Label_5_012EDFAA
 BYTE   PATT
  POIN2 Label_5_012EDF7E
 BYTE   PATT
  POIN2 Label_5_012EDFAA
 BYTE   PATT
  POIN2 Label_5_012EDF7E
 BYTE   PATT
  POIN2 Label_5_012EDFAA
 BYTE   PATT
  POIN2 Label_5_012EDFFE
 BYTE   PATT
  POIN2 Label_5_012EDF8C
 BYTE   PATT
  POIN2 Label_5_012EDF7E
 BYTE   PATT
  POIN2 Label_5_012EDFAA
 BYTE   PATT
  POIN2 Label_5_012EDF7E
// 016   ----------------------------------------
 BYTE   N12  Dn1  v100
 BYTE   N12  Cs2
 BYTE   W12
 BYTE   Cn1
 BYTE   W12
 BYTE   N12
 BYTE   W12
 BYTE   Dn1
 BYTE   W24
 BYTE   Cn1
 BYTE   W24
 BYTE   Dn1
 BYTE   W12
// 017   ----------------------------------------
 BYTE   N12
 BYTE   N12  Cs2
 BYTE   W12
 BYTE   Cn1
 BYTE   W24
 BYTE   Dn1
 BYTE   W12
 BYTE   Cn1
 BYTE   W24
 BYTE   N12
 BYTE   W12
 BYTE   Dn1
 BYTE   W12
// 018   ----------------------------------------
 BYTE   N12
 BYTE   N12  Cs2
 BYTE   W12
 BYTE   Cn1
 BYTE   W24
 BYTE   N12
 BYTE   W24
 BYTE   N12
 BYTE   W24
 BYTE   N12
 BYTE   W12
// 019   ----------------------------------------
 BYTE   W12
 BYTE   N12
 BYTE   W24
 BYTE   N12
 BYTE   W24
 BYTE   Dn1
 BYTE   N12  Cs2
 BYTE   W12
 BYTE   Dn1
 BYTE   N12  Cs2
 BYTE   W24
// 020   ----------------------------------------
 BYTE   GoTo
  POIN2 Label_5_012EDFA0
 BYTE   FINE

//******************************************************//
	ALIGN 4

KenTheme:
	BYTE	6	// NumTrks
	BYTE	0	// NumBlks
	BYTE	KenTheme_pri	// Priority
	BYTE	KenTheme_rev	// Reverb.
    
	POIN2	KenTheme_grp
    
	POIN2	KenTheme_001
	POIN2	KenTheme_002
	POIN2	KenTheme_003
	POIN2	KenTheme_004
	POIN2	KenTheme_005
	POIN2	KenTheme_006

	
