//Event file generated from Sappy .s format.
	#include "MPlayDef.event"

	#define	KindredCry_grp  voicegroup000
	#define	KindredCry_pri  0
	#define	KindredCry_rev  0
	#define	KindredCry_mvl  75
	#define	KindredCry_key  0
	#define	KindredCry_tbs  1
	#define	KindredCry_exg  0
	#define	KindredCry_cmp  1

	// .rodata
	//	KindredCry
	ALIGN 4

//**************** Track 1 (Midi-Chn.1) ****************//

KindredCry_1:
	BYTE	KEYSH   KindredCry_key+0
// 000   ----------------------------------------
	BYTE	TEMPO   140*KindredCry_tbs/2
	BYTE		VOL     95*KindredCry_mvl/mxv
	BYTE	W12
	BYTE		VOICE   48
	BYTE	W84
KindredCry_1_B1:
// 001   ----------------------------------------
	BYTE	W96
// 002   ----------------------------------------
	BYTE	W96
// 003   ----------------------------------------
	BYTE	W96
// 004   ----------------------------------------
KindredCry_1_004:
	BYTE		N12     En3   v112
	BYTE	W24
	BYTE		N12   
	BYTE	W24
	BYTE		N12   
	BYTE	W24
	BYTE		N12   
	BYTE	W24
	BYTE	PEND
// 005   ----------------------------------------
	BYTE		N12   
	BYTE	W24
	BYTE		N09     Dn3 
	BYTE	W12
	BYTE		        En3 
	BYTE	W12
	BYTE		        Fn3 
	BYTE	W12
	BYTE		        En3 
	BYTE	W12
	BYTE		        Gn3 
	BYTE	W12
	BYTE		        Fn3 
	BYTE	W12
// 006   ----------------------------------------
	BYTE		N12     En3 
	BYTE	W24
	BYTE		N12   
	BYTE	W24
	BYTE		N12   
	BYTE	W24
	BYTE		        Dn3 
	BYTE	W12
	BYTE		        En3 
	BYTE	W12
// 007   ----------------------------------------
KindredCry_1_007:
	BYTE		N12     Fn3   v112
	BYTE	W24
	BYTE		N09     Gn3 
	BYTE	W12
	BYTE		        Gs3 
	BYTE	W12
	BYTE		        As3 
	BYTE	W12
	BYTE		        Cn4 
	BYTE	W12
	BYTE		        Dn4 
	BYTE	W24
	BYTE	PEND
// 008   ----------------------------------------
	BYTE	PATT
	 POIN2	KindredCry_1_004
// 009   ----------------------------------------
KindredCry_1_009:
	BYTE		N12     En3   v112
	BYTE	W24
	BYTE		N10     Ds3 
	BYTE	W12
	BYTE		N09     En3 
	BYTE	W12
	BYTE		        Fn3 
	BYTE	W12
	BYTE		        En3 
	BYTE	W12
	BYTE		        Gn3 
	BYTE	W12
	BYTE		        Fn3 
	BYTE	W12
	BYTE	PEND
// 010   ----------------------------------------
KindredCry_1_010:
	BYTE		N12     En3   v112
	BYTE	W24
	BYTE		N12   
	BYTE	W24
	BYTE		N12   
	BYTE	W24
	BYTE		N10     Ds3 
	BYTE	W12
	BYTE		N12     En3 
	BYTE	W12
	BYTE	PEND
// 011   ----------------------------------------
	BYTE	PATT
	 POIN2	KindredCry_1_007
// 012   ----------------------------------------
	BYTE	PATT
	 POIN2	KindredCry_1_004
// 013   ----------------------------------------
	BYTE	PATT
	 POIN2	KindredCry_1_009
// 014   ----------------------------------------
	BYTE	PATT
	 POIN2	KindredCry_1_010
// 015   ----------------------------------------
	BYTE	PATT
	 POIN2	KindredCry_1_007
// 016   ----------------------------------------
	BYTE	W96
// 017   ----------------------------------------
	BYTE	W96
// 018   ----------------------------------------
	BYTE	W96
// 019   ----------------------------------------
	BYTE	W96
// 020   ----------------------------------------
	BYTE	W96
// 021   ----------------------------------------
	BYTE	W96
// 022   ----------------------------------------
KindredCry_1_022:
	BYTE		N06     An3   v120
	BYTE		N06     An4 
	BYTE	W12
	BYTE		        Gs3 
	BYTE		N06     Gs4 
	BYTE	W12
	BYTE		        An3 
	BYTE		N06     An4 
	BYTE	W12
	BYTE		        Bn3 
	BYTE		N06     Bn4 
	BYTE	W12
	BYTE		        Cn4 
	BYTE		N06     Cn5 
	BYTE	W12
	BYTE		        Dn4 
	BYTE		N06     Dn5 
	BYTE	W12
	BYTE		N24     Ds4 
	BYTE		N24     Ds5 
	BYTE	W24
	BYTE	PEND
// 023   ----------------------------------------
	BYTE	PATT
	 POIN2	KindredCry_1_004
// 024   ----------------------------------------
KindredCry_1_024:
	BYTE		N24     En3   v112
	BYTE	W24
	BYTE		N06     Ds3 
	BYTE	W12
	BYTE		        En3 
	BYTE	W12
	BYTE		        Fn3 
	BYTE	W12
	BYTE		        En3 
	BYTE	W12
	BYTE		        Gn3 
	BYTE	W12
	BYTE		        Fn3 
	BYTE	W12
	BYTE	PEND
// 025   ----------------------------------------
	BYTE		N12     En3 
	BYTE	W24
	BYTE		N12   
	BYTE	W24
	BYTE		N24     En3   v096
	BYTE	W24
	BYTE		N06     Ds3   v112
	BYTE	W12
	BYTE		        En3 
	BYTE	W12
// 026   ----------------------------------------
KindredCry_1_026:
	BYTE		N24     Fn3   v112
	BYTE	W24
	BYTE		N06     Gn3 
	BYTE	W12
	BYTE		        Gs3 
	BYTE	W12
	BYTE		        An3 
	BYTE	W12
	BYTE		        Bn3 
	BYTE	W12
	BYTE		N24     Cn4 
	BYTE	W24
	BYTE	PEND
// 027   ----------------------------------------
	BYTE	PATT
	 POIN2	KindredCry_1_004
// 028   ----------------------------------------
	BYTE	PATT
	 POIN2	KindredCry_1_024
// 029   ----------------------------------------
	BYTE		N12     En3   v112
	BYTE	W24
	BYTE		N12   
	BYTE	W24
	BYTE		N24   
	BYTE	W24
	BYTE		N06     Ds3 
	BYTE	W12
	BYTE		        En3 
	BYTE	W12
// 030   ----------------------------------------
	BYTE	PATT
	 POIN2	KindredCry_1_026
// 031   ----------------------------------------
	BYTE	W12
	BYTE		N06     An2   v112
	BYTE	W12
	BYTE		        Gs2 
	BYTE	W12
	BYTE		        Fs2 
	BYTE	W12
	BYTE		        Fn2 
	BYTE	W12
	BYTE		        Gs2 
	BYTE	W12
	BYTE		        Fs2 
	BYTE	W24
// 032   ----------------------------------------
	BYTE		N06   
	BYTE	W12
	BYTE		        Gs2 
	BYTE	W12
	BYTE		        An2 
	BYTE	W12
	BYTE		        Bn2 
	BYTE	W24
	BYTE		        Cn3 
	BYTE	W12
	BYTE		        Bn2 
	BYTE	W12
	BYTE		        An2 
	BYTE	W12
// 033   ----------------------------------------
	BYTE		        Gs2 
	BYTE	W12
	BYTE		        Bn2 
	BYTE	W12
	BYTE		        An2 
	BYTE	W24
	BYTE		N06   
	BYTE	W12
	BYTE		        Bn2 
	BYTE	W12
	BYTE		        Cn3 
	BYTE	W12
	BYTE		        Dn3 
	BYTE	W12
// 034   ----------------------------------------
	BYTE	W12
	BYTE		        Ds3 
	BYTE	W12
	BYTE		        Dn3 
	BYTE	W12
	BYTE		        Cn3 
	BYTE	W12
	BYTE		        As2 
	BYTE	W12
	BYTE		        Dn3 
	BYTE	W12
	BYTE		        Cn3 
	BYTE	W24
// 035   ----------------------------------------
	BYTE		N06   
	BYTE	W12
	BYTE		        Dn3 
	BYTE	W12
	BYTE		        Ds3 
	BYTE	W12
	BYTE		        Fn3 
	BYTE	W24
	BYTE		        As3 
	BYTE	W12
	BYTE		        Gs3 
	BYTE	W12
	BYTE		        Fs3 
	BYTE	W12
// 036   ----------------------------------------
	BYTE		        Fn3 
	BYTE	W12
	BYTE		        Gs3 
	BYTE	W12
	BYTE		        Fs3 
	BYTE	W24
	BYTE		N06   
	BYTE	W12
	BYTE		        Gs3 
	BYTE	W12
	BYTE		        As3 
	BYTE	W12
	BYTE		        Cn4 
	BYTE	W12
// 037   ----------------------------------------
KindredCry_1_037:
	BYTE		N12     Fs4   v100
	BYTE		N12     Cs5 
	BYTE	W48
	BYTE		        Fs4 
	BYTE		N12     Cs5 
	BYTE	W48
	BYTE	PEND
// 038   ----------------------------------------
	BYTE	PATT
	 POIN2	KindredCry_1_037
// 039   ----------------------------------------
	BYTE	PATT
	 POIN2	KindredCry_1_037
// 040   ----------------------------------------
	BYTE	PATT
	 POIN2	KindredCry_1_037
// 041   ----------------------------------------
	BYTE	PATT
	 POIN2	KindredCry_1_037
// 042   ----------------------------------------
	BYTE	PATT
	 POIN2	KindredCry_1_037
// 043   ----------------------------------------
	BYTE	PATT
	 POIN2	KindredCry_1_037
// 044   ----------------------------------------
	BYTE	PATT
	 POIN2	KindredCry_1_037
// 045   ----------------------------------------
	BYTE	PATT
	 POIN2	KindredCry_1_037
// 046   ----------------------------------------
	BYTE	PATT
	 POIN2	KindredCry_1_037
// 047   ----------------------------------------
	BYTE	PATT
	 POIN2	KindredCry_1_037
// 048   ----------------------------------------
	BYTE	PATT
	 POIN2	KindredCry_1_037
// 049   ----------------------------------------
	BYTE	W96
// 050   ----------------------------------------
	BYTE	W96
// 051   ----------------------------------------
	BYTE	W96
// 052   ----------------------------------------
	BYTE	W96
// 053   ----------------------------------------
	BYTE	W96
// 054   ----------------------------------------
	BYTE	W96
// 055   ----------------------------------------
	BYTE	PATT
	 POIN2	KindredCry_1_022
// 056   ----------------------------------------
	BYTE	W96
	BYTE	GoTo
	 POIN2	KindredCry_1_B1
KindredCry_1_B2:
// 057   ----------------------------------------
	BYTE	FINE

//**************** Track 2 (Midi-Chn.2) ****************//

KindredCry_2:
	BYTE	KEYSH   KindredCry_key+0
// 000   ----------------------------------------
	BYTE		PAN     c_v-3
	BYTE	W16
	BYTE		VOL     75*KindredCry_mvl/mxv
	BYTE	W08
	BYTE		VOICE   48
	BYTE	W72
KindredCry_2_B1:
// 001   ----------------------------------------
	BYTE	W96
// 002   ----------------------------------------
	BYTE	W96
// 003   ----------------------------------------
	BYTE	W96
// 004   ----------------------------------------
	BYTE	W96
// 005   ----------------------------------------
	BYTE	W96
// 006   ----------------------------------------
	BYTE	W96
// 007   ----------------------------------------
	BYTE	W96
// 008   ----------------------------------------
KindredCry_2_008:
	BYTE		N12     Gn3   v108
	BYTE	W24
	BYTE		N12   
	BYTE	W24
	BYTE		N12   
	BYTE	W24
	BYTE		N12   
	BYTE	W24
	BYTE	PEND
// 009   ----------------------------------------
KindredCry_2_009:
	BYTE		N12     Gn3   v108
	BYTE	W24
	BYTE		N09     Fs3 
	BYTE	W12
	BYTE		        Gn3 
	BYTE	W12
	BYTE		        Gs3 
	BYTE	W12
	BYTE		        Gn3 
	BYTE	W12
	BYTE		        As3 
	BYTE	W12
	BYTE		        Gs3 
	BYTE	W12
	BYTE	PEND
// 010   ----------------------------------------
KindredCry_2_010:
	BYTE		N12     Gn3   v108
	BYTE	W24
	BYTE		N12   
	BYTE	W24
	BYTE		N12   
	BYTE	W24
	BYTE		        Fs3 
	BYTE	W12
	BYTE		        Gn3 
	BYTE	W12
	BYTE	PEND
// 011   ----------------------------------------
KindredCry_2_011:
	BYTE		N12     Gs3   v108
	BYTE	W24
	BYTE		N09     As3 
	BYTE	W12
	BYTE		        Bn3 
	BYTE	W12
	BYTE		        Cs4 
	BYTE	W12
	BYTE		        Ds4 
	BYTE	W12
	BYTE		        Fn4 
	BYTE	W24
	BYTE	PEND
// 012   ----------------------------------------
	BYTE	PATT
	 POIN2	KindredCry_2_008
// 013   ----------------------------------------
	BYTE	PATT
	 POIN2	KindredCry_2_009
// 014   ----------------------------------------
	BYTE	PATT
	 POIN2	KindredCry_2_010
// 015   ----------------------------------------
	BYTE	PATT
	 POIN2	KindredCry_2_011
// 016   ----------------------------------------
	BYTE	W96
// 017   ----------------------------------------
	BYTE	W96
// 018   ----------------------------------------
	BYTE	W96
// 019   ----------------------------------------
KindredCry_2_019:
	BYTE	W60
	BYTE		N12     Gs3   v100
	BYTE		N12     Cn4 
	BYTE	W12
	BYTE		        Gs3 
	BYTE		N12     Cn4 
	BYTE	W24
	BYTE	PEND
// 020   ----------------------------------------
KindredCry_2_020:
	BYTE		N12     Fn3   v100
	BYTE		N12     An3 
	BYTE	W36
	BYTE		        Gs3 
	BYTE		N12     Cn4 
	BYTE	W24
	BYTE		        Gs3 
	BYTE		N12     Cn4 
	BYTE	W12
	BYTE		        Gs3 
	BYTE		N12     Cn4 
	BYTE	W24
	BYTE	PEND
// 021   ----------------------------------------
KindredCry_2_021:
	BYTE	W12
	BYTE		N12     Fs3   v100
	BYTE		N12     Bn3 
	BYTE	W24
	BYTE		        Gs3 
	BYTE		N12     Cn4 
	BYTE	W12
	BYTE		        Gs3 
	BYTE		N12     Cn4 
	BYTE	W24
	BYTE		        Fn3 
	BYTE		N12     An3 
	BYTE	W24
	BYTE	PEND
// 022   ----------------------------------------
KindredCry_2_022:
	BYTE	W12
	BYTE		N12     Gs3   v100
	BYTE		N12     Cn4 
	BYTE	W24
	BYTE		        Gs3 
	BYTE		N12     Cn4 
	BYTE	W12
	BYTE		        Gs3 
	BYTE		N12     Cn4 
	BYTE	W24
	BYTE		        Fs3 
	BYTE		N12     Bn3 
	BYTE	W24
	BYTE	PEND
// 023   ----------------------------------------
	BYTE		        En2   v108
	BYTE	W24
	BYTE		N12   
	BYTE	W24
	BYTE		N12   
	BYTE	W12
	BYTE		N12   
	BYTE	W12
	BYTE		        Cs2 
	BYTE	W12
	BYTE		        En2 
	BYTE	W12
// 024   ----------------------------------------
	BYTE		N12   
	BYTE	W24
	BYTE		N12   
	BYTE	W12
	BYTE		        Cs2 
	BYTE	W36
	BYTE		        En2 
	BYTE	W12
	BYTE		        Cs2 
	BYTE	W12
// 025   ----------------------------------------
	BYTE		        En2 
	BYTE	W24
	BYTE		N12   
	BYTE	W24
	BYTE		N12   
	BYTE	W24
	BYTE		N12   
	BYTE	W24
// 026   ----------------------------------------
	BYTE		N12   
	BYTE	W24
	BYTE		N12   
	BYTE	W12
	BYTE		        Cs2 
	BYTE	W12
	BYTE		        En2 
	BYTE	W12
	BYTE		        Fs2 
	BYTE	W12
	BYTE		N24     Gs2 
	BYTE	W24
// 027   ----------------------------------------
	BYTE		N06     En4   v112
	BYTE	W24
	BYTE		N06   
	BYTE	W24
	BYTE		N06   
	BYTE	W24
	BYTE		N06   
	BYTE	W24
// 028   ----------------------------------------
	BYTE		N24   
	BYTE	W24
	BYTE		N06     Ds4 
	BYTE	W12
	BYTE		        En4 
	BYTE	W12
	BYTE		        Fn4 
	BYTE	W12
	BYTE		        En4 
	BYTE	W12
	BYTE		        Gn4 
	BYTE	W12
	BYTE		        Fn4 
	BYTE	W12
// 029   ----------------------------------------
	BYTE		        En4 
	BYTE	W96
// 030   ----------------------------------------
	BYTE	W96
// 031   ----------------------------------------
	BYTE	W12
	BYTE		        En2 
	BYTE	W12
	BYTE		        Ds2 
	BYTE	W12
	BYTE		        Cs2 
	BYTE	W12
	BYTE		        Cn2 
	BYTE	W12
	BYTE		        Ds2 
	BYTE	W12
	BYTE		        Cs2 
	BYTE	W24
// 032   ----------------------------------------
	BYTE		N06   
	BYTE	W12
	BYTE		        Ds2 
	BYTE	W12
	BYTE		        En2 
	BYTE	W12
	BYTE		        Fs2 
	BYTE	W60
// 033   ----------------------------------------
	BYTE	W96
// 034   ----------------------------------------
	BYTE	W12
	BYTE		        Gn3 
	BYTE	W12
	BYTE		        Fn3 
	BYTE	W12
	BYTE		        Ds3 
	BYTE	W12
	BYTE		        Dn3 
	BYTE	W12
	BYTE		        Fn3 
	BYTE	W12
	BYTE		        Ds3 
	BYTE	W24
// 035   ----------------------------------------
	BYTE		N06   
	BYTE	W12
	BYTE		        Fn3 
	BYTE	W12
	BYTE		        Gn3 
	BYTE	W12
	BYTE		        An3 
	BYTE	W24
	BYTE		        Fs3 
	BYTE	W12
	BYTE		        Fn3 
	BYTE	W12
	BYTE		        Ds3 
	BYTE	W12
// 036   ----------------------------------------
	BYTE		        Dn3 
	BYTE	W12
	BYTE		        Fn3 
	BYTE	W12
	BYTE		        Ds3 
	BYTE	W24
	BYTE		N06   
	BYTE	W12
	BYTE		        Fn3 
	BYTE	W12
	BYTE		        Fs3 
	BYTE	W12
	BYTE		        Gs3 
	BYTE	W12
// 037   ----------------------------------------
	BYTE		TIE     Cs4 
	BYTE	W96
// 038   ----------------------------------------
	BYTE	W72
	BYTE		EOT   
	BYTE	W24
// 039   ----------------------------------------
	BYTE	W96
// 040   ----------------------------------------
	BYTE	W96
// 041   ----------------------------------------
	BYTE	W96
// 042   ----------------------------------------
	BYTE	W96
// 043   ----------------------------------------
	BYTE	W96
// 044   ----------------------------------------
	BYTE	W96
// 045   ----------------------------------------
	BYTE	W96
// 046   ----------------------------------------
	BYTE	W96
// 047   ----------------------------------------
	BYTE	W96
// 048   ----------------------------------------
	BYTE	W96
// 049   ----------------------------------------
	BYTE	W96
// 050   ----------------------------------------
	BYTE	W96
// 051   ----------------------------------------
	BYTE	W96
// 052   ----------------------------------------
	BYTE	PATT
	 POIN2	KindredCry_2_019
// 053   ----------------------------------------
	BYTE	PATT
	 POIN2	KindredCry_2_020
// 054   ----------------------------------------
	BYTE	PATT
	 POIN2	KindredCry_2_021
// 055   ----------------------------------------
	BYTE	PATT
	 POIN2	KindredCry_2_022
// 056   ----------------------------------------
	BYTE	W96
	BYTE	GoTo
	 POIN2	KindredCry_2_B1
KindredCry_2_B2:
// 057   ----------------------------------------
	BYTE	FINE

//**************** Track 3 (Midi-Chn.3) ****************//

KindredCry_3:
	BYTE	KEYSH   KindredCry_key+0
// 000   ----------------------------------------
	BYTE		PAN     c_v+1
	BYTE	W36
	BYTE		VOICE   48
	BYTE	W05
	BYTE		VOL     66*KindredCry_mvl/mxv
	BYTE	W54
	BYTE	W01
KindredCry_3_B1:
// 001   ----------------------------------------
	BYTE	W96
// 002   ----------------------------------------
	BYTE	W96
// 003   ----------------------------------------
	BYTE	W96
// 004   ----------------------------------------
	BYTE	W96
// 005   ----------------------------------------
	BYTE	W96
// 006   ----------------------------------------
	BYTE	W96
// 007   ----------------------------------------
	BYTE	W96
// 008   ----------------------------------------
	BYTE	W96
// 009   ----------------------------------------
	BYTE	W96
// 010   ----------------------------------------
	BYTE	W96
// 011   ----------------------------------------
	BYTE	W96
// 012   ----------------------------------------
	BYTE		N12     Gn2   v112
	BYTE	W24
	BYTE		N12   
	BYTE	W24
	BYTE		N12   
	BYTE	W24
	BYTE		N12   
	BYTE	W24
// 013   ----------------------------------------
	BYTE		N12   
	BYTE	W24
	BYTE		N09     Fs2 
	BYTE	W12
	BYTE		        Gn2 
	BYTE	W12
	BYTE		        Gs2 
	BYTE	W12
	BYTE		        Gn2 
	BYTE	W12
	BYTE		        As2 
	BYTE	W12
	BYTE		        Gs2 
	BYTE	W12
// 014   ----------------------------------------
	BYTE		N12     Gn2 
	BYTE	W24
	BYTE		N12   
	BYTE	W24
	BYTE		N12   
	BYTE	W24
	BYTE		        Fs2 
	BYTE	W12
	BYTE		        Gn2 
	BYTE	W12
// 015   ----------------------------------------
	BYTE		        Gs2 
	BYTE	W24
	BYTE		N09     As2 
	BYTE	W12
	BYTE		        Bn2 
	BYTE	W12
	BYTE		        Cs3 
	BYTE	W12
	BYTE		        Ds3 
	BYTE	W12
	BYTE		        Fn3 
	BYTE	W24
// 016   ----------------------------------------
KindredCry_3_016:
	BYTE	W12
	BYTE		N12     Gs2   v100
	BYTE	W12
	BYTE		N12   
	BYTE	W24
	BYTE		        Fn2 
	BYTE	W36
	BYTE		        Gs2 
	BYTE	W12
	BYTE	PEND
// 017   ----------------------------------------
KindredCry_3_017:
	BYTE	W12
	BYTE		N12     Gs2   v100
	BYTE	W12
	BYTE		N12   
	BYTE	W36
	BYTE		        Fs2 
	BYTE	W24
	BYTE		        Gs2 
	BYTE	W12
	BYTE	PEND
// 018   ----------------------------------------
KindredCry_3_018:
	BYTE		N12     Gs2   v100
	BYTE	W24
	BYTE		        Fn2 
	BYTE	W36
	BYTE		        Gs2 
	BYTE	W24
	BYTE		N12   
	BYTE	W12
	BYTE	PEND
// 019   ----------------------------------------
KindredCry_3_019:
	BYTE		N12     Gs2   v100
	BYTE	W24
	BYTE		        Fs2 
	BYTE	W36
	BYTE		        Gs2 
	BYTE	W12
	BYTE		N12   
	BYTE	W24
	BYTE	PEND
// 020   ----------------------------------------
KindredCry_3_020:
	BYTE		N12     Fn2   v100
	BYTE	W36
	BYTE		        Gs2 
	BYTE	W24
	BYTE		N12   
	BYTE	W12
	BYTE		N12   
	BYTE	W24
	BYTE	PEND
// 021   ----------------------------------------
KindredCry_3_021:
	BYTE	W12
	BYTE		N12     Fs2   v100
	BYTE	W24
	BYTE		        Gs2 
	BYTE	W12
	BYTE		N12   
	BYTE	W24
	BYTE		        Fn2 
	BYTE	W24
	BYTE	PEND
// 022   ----------------------------------------
KindredCry_3_022:
	BYTE	W12
	BYTE		N12     Gs2   v100
	BYTE	W24
	BYTE		N12   
	BYTE	W12
	BYTE		N12   
	BYTE	W24
	BYTE		        Fs2 
	BYTE	W24
	BYTE	PEND
// 023   ----------------------------------------
KindredCry_3_023:
	BYTE		N12     Bn2   v112
	BYTE	W24
	BYTE		N12   
	BYTE	W24
	BYTE		N12   
	BYTE	W24
	BYTE		N12   
	BYTE	W24
	BYTE	PEND
// 024   ----------------------------------------
KindredCry_3_024:
	BYTE		N24     Bn2   v112
	BYTE	W24
	BYTE		N06     As2 
	BYTE	W12
	BYTE		        Bn2 
	BYTE	W12
	BYTE		        Cn3 
	BYTE	W12
	BYTE		        Bn2 
	BYTE	W12
	BYTE		        Dn3 
	BYTE	W12
	BYTE		        Cn3 
	BYTE	W12
	BYTE	PEND
// 025   ----------------------------------------
	BYTE		N12     Bn2 
	BYTE	W24
	BYTE		N12   
	BYTE	W24
	BYTE		N24     Bn2   v096
	BYTE	W24
	BYTE		N06     As2   v112
	BYTE	W12
	BYTE		        Bn2 
	BYTE	W12
// 026   ----------------------------------------
	BYTE		N24     Cn3 
	BYTE	W24
	BYTE		N06   
	BYTE	W12
	BYTE		        Dn3 
	BYTE	W12
	BYTE		        En3 
	BYTE	W12
	BYTE		        Fs3 
	BYTE	W12
	BYTE		N24     Gs3 
	BYTE	W24
// 027   ----------------------------------------
	BYTE	PATT
	 POIN2	KindredCry_3_023
// 028   ----------------------------------------
	BYTE	PATT
	 POIN2	KindredCry_3_024
// 029   ----------------------------------------
	BYTE		N12     Bn2   v112
	BYTE	W24
	BYTE		N12   
	BYTE	W24
	BYTE		N24   
	BYTE	W24
	BYTE		N06     As2 
	BYTE	W12
	BYTE		        Bn2 
	BYTE	W12
// 030   ----------------------------------------
	BYTE		N24     Cn3 
	BYTE	W24
	BYTE		N06     Dn3 
	BYTE	W12
	BYTE		        En3 
	BYTE	W12
	BYTE		N06   
	BYTE	W12
	BYTE		        Fs3 
	BYTE	W12
	BYTE		N24     Gs3 
	BYTE	W24
// 031   ----------------------------------------
	BYTE	W96
// 032   ----------------------------------------
	BYTE	W96
// 033   ----------------------------------------
	BYTE	W96
// 034   ----------------------------------------
	BYTE	W96
// 035   ----------------------------------------
	BYTE	W96
// 036   ----------------------------------------
	BYTE	W96
// 037   ----------------------------------------
KindredCry_3_037:
	BYTE		N72     Fs2   v112
	BYTE	W72
	BYTE		N48     As2 
	BYTE	W24
	BYTE	PEND
// 038   ----------------------------------------
KindredCry_3_038:
	BYTE	W24
	BYTE		N24     Cs3   v112
	BYTE	W24
	BYTE		N96     Dn3 
	BYTE	W48
	BYTE	PEND
// 039   ----------------------------------------
	BYTE	W48
	BYTE		N48     En3 
	BYTE	W48
// 040   ----------------------------------------
	BYTE		N96     Cs3 
	BYTE	W96
// 041   ----------------------------------------
KindredCry_3_041:
	BYTE		N48     As2   v112
	BYTE	W48
	BYTE		TIE     Dn3 
	BYTE	W48
	BYTE	PEND
// 042   ----------------------------------------
	BYTE	W96
	BYTE		EOT   
// 043   ----------------------------------------
	BYTE	PATT
	 POIN2	KindredCry_3_037
// 044   ----------------------------------------
	BYTE	PATT
	 POIN2	KindredCry_3_038
// 045   ----------------------------------------
	BYTE	W48
	BYTE		N24     Fs3   v112
	BYTE	W24
	BYTE		        Fn3 
	BYTE	W24
// 046   ----------------------------------------
	BYTE		N96     Cs3 
	BYTE	W96
// 047   ----------------------------------------
	BYTE	PATT
	 POIN2	KindredCry_3_041
// 048   ----------------------------------------
	BYTE	W96
	BYTE		EOT     Dn3 
// 049   ----------------------------------------
	BYTE	PATT
	 POIN2	KindredCry_3_016
// 050   ----------------------------------------
	BYTE	PATT
	 POIN2	KindredCry_3_017
// 051   ----------------------------------------
	BYTE	PATT
	 POIN2	KindredCry_3_018
// 052   ----------------------------------------
	BYTE	PATT
	 POIN2	KindredCry_3_019
// 053   ----------------------------------------
	BYTE	PATT
	 POIN2	KindredCry_3_020
// 054   ----------------------------------------
	BYTE	PATT
	 POIN2	KindredCry_3_021
// 055   ----------------------------------------
	BYTE	PATT
	 POIN2	KindredCry_3_022
// 056   ----------------------------------------
	BYTE	W96
	BYTE	GoTo
	 POIN2	KindredCry_3_B1
KindredCry_3_B2:
// 057   ----------------------------------------
	BYTE	FINE

//**************** Track 4 (Midi-Chn.4) ****************//

KindredCry_4:
	BYTE	KEYSH   KindredCry_key+0
// 000   ----------------------------------------
	BYTE		VOL     95*KindredCry_mvl/mxv
	BYTE	W17
	BYTE		PAN     c_v+16
	BYTE	W30
	BYTE	W01
	BYTE		VOICE   61
	BYTE	W48
KindredCry_4_B1:
// 001   ----------------------------------------
	BYTE	W96
// 002   ----------------------------------------
	BYTE	W96
// 003   ----------------------------------------
	BYTE	W96
// 004   ----------------------------------------
	BYTE	W96
// 005   ----------------------------------------
	BYTE	W96
// 006   ----------------------------------------
	BYTE	W96
// 007   ----------------------------------------
	BYTE	W96
// 008   ----------------------------------------
	BYTE	W96
// 009   ----------------------------------------
	BYTE	W96
// 010   ----------------------------------------
	BYTE	W96
// 011   ----------------------------------------
	BYTE	W96
// 012   ----------------------------------------
	BYTE		N12     En3   v112
	BYTE	W24
	BYTE		N12   
	BYTE	W24
	BYTE		N12   
	BYTE	W24
	BYTE		N12   
	BYTE	W24
// 013   ----------------------------------------
	BYTE		N12   
	BYTE	W24
	BYTE		N10     Ds3 
	BYTE	W12
	BYTE		N09     En3 
	BYTE	W12
	BYTE		        Fn3 
	BYTE	W12
	BYTE		        En3 
	BYTE	W12
	BYTE		        Gn3 
	BYTE	W12
	BYTE		        Fn3 
	BYTE	W12
// 014   ----------------------------------------
	BYTE		N12     En3 
	BYTE	W24
	BYTE		N12   
	BYTE	W24
	BYTE		N12   
	BYTE	W24
	BYTE		N10     Ds3 
	BYTE	W12
	BYTE		N12     En3 
	BYTE	W12
// 015   ----------------------------------------
	BYTE		        Fn3 
	BYTE	W24
	BYTE		N09     Gn3 
	BYTE	W12
	BYTE		        Gs3 
	BYTE	W12
	BYTE		        As3 
	BYTE	W12
	BYTE		        Cn4 
	BYTE	W12
	BYTE		        Dn4 
	BYTE	W24
// 016   ----------------------------------------
	BYTE	W96
// 017   ----------------------------------------
	BYTE	W96
// 018   ----------------------------------------
	BYTE	W96
// 019   ----------------------------------------
	BYTE	W96
// 020   ----------------------------------------
	BYTE	W96
// 021   ----------------------------------------
	BYTE	W96
// 022   ----------------------------------------
	BYTE	W96
// 023   ----------------------------------------
	BYTE	W96
// 024   ----------------------------------------
	BYTE	W96
// 025   ----------------------------------------
	BYTE	W48
	BYTE		N24     Bn2 
	BYTE		N24     En3 
	BYTE	W24
	BYTE		N06     As2 
	BYTE		N06     Ds3 
	BYTE	W12
	BYTE		        Bn2 
	BYTE		N06     En3 
	BYTE	W12
// 026   ----------------------------------------
	BYTE		N24     Cn3 
	BYTE		N24     Fn3 
	BYTE	W24
	BYTE		N06     Cn3 
	BYTE		N06     Gn3 
	BYTE	W12
	BYTE		        Dn3 
	BYTE		N06     Gs3 
	BYTE	W12
	BYTE		        En3 
	BYTE		N06     An3 
	BYTE	W12
	BYTE		        Fs3 
	BYTE		N06     Bn3 
	BYTE	W12
	BYTE		N24     Gs3 
	BYTE		N24     Cn4 
	BYTE	W24
// 027   ----------------------------------------
	BYTE		N06     Bn2 
	BYTE		N06     En3 
	BYTE	W24
	BYTE		        Bn2 
	BYTE		N06     En3 
	BYTE	W24
	BYTE		        Bn2 
	BYTE		N06     En3 
	BYTE	W24
	BYTE		        Bn2 
	BYTE		N06     En3 
	BYTE	W24
// 028   ----------------------------------------
	BYTE		N24     Bn2 
	BYTE		N24     En3 
	BYTE	W24
	BYTE		N06     As2 
	BYTE		N06     Ds3 
	BYTE	W12
	BYTE		        Bn2 
	BYTE		N06     En3 
	BYTE	W12
	BYTE		        Cn3 
	BYTE		N06     Fn3 
	BYTE	W12
	BYTE		        Bn2 
	BYTE		N06     En3 
	BYTE	W12
	BYTE		        Dn3 
	BYTE		N06     Gn3 
	BYTE	W12
	BYTE		        Cn3 
	BYTE		N06     Fn3 
	BYTE	W12
// 029   ----------------------------------------
	BYTE		        Bn2 
	BYTE		N06     En3 
	BYTE	W24
	BYTE		        Bn2 
	BYTE		N06     En3 
	BYTE	W24
	BYTE		N24     Bn2 
	BYTE		N24     En3 
	BYTE	W24
	BYTE		N06     As2 
	BYTE		N06     Ds3 
	BYTE	W12
	BYTE		        Bn2 
	BYTE		N06     En3 
	BYTE	W12
// 030   ----------------------------------------
	BYTE		N24     Cn3 
	BYTE		N24     Fn3 
	BYTE	W24
	BYTE		N06     Dn3 
	BYTE		N06     Fn3 
	BYTE	W12
	BYTE		        En3 
	BYTE		N06     Gs3 
	BYTE	W12
	BYTE		        En3 
	BYTE		N06     An3 
	BYTE	W12
	BYTE		        Fs3 
	BYTE		N06     Bn3 
	BYTE	W12
	BYTE		N24     Cn3 
	BYTE		N24     Cn4 
	BYTE	W24
// 031   ----------------------------------------
	BYTE	W96
// 032   ----------------------------------------
	BYTE	W96
// 033   ----------------------------------------
	BYTE	W96
// 034   ----------------------------------------
	BYTE	W96
// 035   ----------------------------------------
	BYTE	W96
// 036   ----------------------------------------
	BYTE	W96
// 037   ----------------------------------------
	BYTE	W96
// 038   ----------------------------------------
	BYTE	W96
// 039   ----------------------------------------
	BYTE	W96
// 040   ----------------------------------------
	BYTE	W96
// 041   ----------------------------------------
	BYTE	W96
// 042   ----------------------------------------
	BYTE	W96
// 043   ----------------------------------------
	BYTE		N72     Fs1 
	BYTE	W72
	BYTE		N48     As1 
	BYTE	W24
// 044   ----------------------------------------
	BYTE	W24
	BYTE		N24     Cs2 
	BYTE	W24
	BYTE		N96     Dn2 
	BYTE	W48
// 045   ----------------------------------------
	BYTE	W48
	BYTE		N24     Fs2 
	BYTE	W24
	BYTE		        Fn2 
	BYTE	W24
// 046   ----------------------------------------
	BYTE		N96     Cs2 
	BYTE	W96
// 047   ----------------------------------------
	BYTE		N48     As1 
	BYTE	W48
	BYTE		TIE     Dn2 
	BYTE	W48
// 048   ----------------------------------------
	BYTE	W96
	BYTE		EOT   
// 049   ----------------------------------------
	BYTE	W96
// 050   ----------------------------------------
	BYTE	W96
// 051   ----------------------------------------
	BYTE	W96
// 052   ----------------------------------------
	BYTE	W96
// 053   ----------------------------------------
	BYTE	W96
// 054   ----------------------------------------
	BYTE	W96
// 055   ----------------------------------------
	BYTE	W96
// 056   ----------------------------------------
	BYTE	W96
	BYTE	GoTo
	 POIN2	KindredCry_4_B1
KindredCry_4_B2:
// 057   ----------------------------------------
	BYTE	FINE

//**************** Track 5 (Midi-Chn.5) ****************//

KindredCry_5:
	BYTE	KEYSH   KindredCry_key+0
// 000   ----------------------------------------
	BYTE		PAN     c_v-8
	BYTE	W21
	BYTE		VOL     56*KindredCry_mvl/mxv
	BYTE	W36
	BYTE	W03
	BYTE		VOICE   56
	BYTE	W36
KindredCry_5_B1:
// 001   ----------------------------------------
	BYTE	W96
// 002   ----------------------------------------
	BYTE	W96
// 003   ----------------------------------------
	BYTE	W96
// 004   ----------------------------------------
	BYTE	W96
// 005   ----------------------------------------
	BYTE	W96
// 006   ----------------------------------------
	BYTE	W96
// 007   ----------------------------------------
	BYTE	W96
// 008   ----------------------------------------
	BYTE	W96
// 009   ----------------------------------------
	BYTE	W96
// 010   ----------------------------------------
	BYTE	W96
// 011   ----------------------------------------
	BYTE	W96
// 012   ----------------------------------------
	BYTE		N12     En3   v112
	BYTE	W24
	BYTE		N12   
	BYTE	W24
	BYTE		N12   
	BYTE	W24
	BYTE		N12   
	BYTE	W24
// 013   ----------------------------------------
	BYTE		N12   
	BYTE	W24
	BYTE		N10     Ds3 
	BYTE	W12
	BYTE		N09     En3 
	BYTE	W12
	BYTE		        Fn3 
	BYTE	W12
	BYTE		        En3 
	BYTE	W12
	BYTE		        Gn3 
	BYTE	W12
	BYTE		        Fn3 
	BYTE	W12
// 014   ----------------------------------------
	BYTE		N12     En3 
	BYTE	W24
	BYTE		N12   
	BYTE	W24
	BYTE		N12   
	BYTE	W24
	BYTE		N10     Ds3 
	BYTE	W12
	BYTE		N12     En3 
	BYTE	W12
// 015   ----------------------------------------
	BYTE		        Fn3 
	BYTE	W24
	BYTE		N09     Gn3 
	BYTE	W12
	BYTE		        Gs3 
	BYTE	W12
	BYTE		        As3 
	BYTE	W12
	BYTE		        Cn4 
	BYTE	W12
	BYTE		        Dn4 
	BYTE	W24
// 016   ----------------------------------------
	BYTE	W96
// 017   ----------------------------------------
	BYTE	W96
// 018   ----------------------------------------
	BYTE	W96
// 019   ----------------------------------------
	BYTE	W96
// 020   ----------------------------------------
	BYTE	W96
// 021   ----------------------------------------
	BYTE	W96
// 022   ----------------------------------------
	BYTE	W96
// 023   ----------------------------------------
	BYTE	W96
// 024   ----------------------------------------
	BYTE	W96
// 025   ----------------------------------------
	BYTE	W48
	BYTE		N24     Bn2 
	BYTE		N24     En3 
	BYTE	W24
	BYTE		N06     An2 
	BYTE		N06     Ds3 
	BYTE	W12
	BYTE		        Bn2 
	BYTE		N06     En3 
	BYTE	W12
// 026   ----------------------------------------
	BYTE		N24     Cn3 
	BYTE		N24     Fn3 
	BYTE	W24
	BYTE		N12     Dn3 
	BYTE		N12     Gn3 
	BYTE	W12
	BYTE		        En3 
	BYTE		N12     Gs3 
	BYTE	W12
	BYTE		N06     En2 
	BYTE		N06     An3 
	BYTE	W12
	BYTE		        Fs2 
	BYTE		N06     Bn3 
	BYTE	W12
	BYTE		N24     Gs2 
	BYTE		N24     Cn4 
	BYTE	W24
// 027   ----------------------------------------
	BYTE		N06     Bn2 
	BYTE		N06     En3 
	BYTE	W24
	BYTE		        Bn2 
	BYTE		N06     En3 
	BYTE	W24
	BYTE		        Bn2 
	BYTE		N06     En3 
	BYTE	W24
	BYTE		        Bn2 
	BYTE		N06     En3 
	BYTE	W24
// 028   ----------------------------------------
	BYTE		N24     Bn2 
	BYTE		N24     En3 
	BYTE	W24
	BYTE		N06     An2 
	BYTE		N06     Ds3 
	BYTE	W12
	BYTE		        Bn2 
	BYTE		N06     En3 
	BYTE	W12
	BYTE		        Cn3 
	BYTE		N06     Fn3 
	BYTE	W12
	BYTE		        Bn2 
	BYTE		N06     En3 
	BYTE	W12
	BYTE		        Dn3 
	BYTE		N06     Gn3 
	BYTE	W12
	BYTE		        Cn3 
	BYTE		N06     Fn3 
	BYTE	W12
// 029   ----------------------------------------
	BYTE		        Bn2 
	BYTE		N06     En3 
	BYTE	W24
	BYTE		        Bn2 
	BYTE		N06     En3 
	BYTE	W24
	BYTE		N24     Bn2 
	BYTE		N24     En3 
	BYTE	W24
	BYTE		N06     An2 
	BYTE		N06     Ds3 
	BYTE	W12
	BYTE		        Bn2 
	BYTE		N06     En3 
	BYTE	W12
// 030   ----------------------------------------
	BYTE		N24     Cn3 
	BYTE		N24     Fn3 
	BYTE	W24
	BYTE		N12     Dn3 
	BYTE		N12     Gn3 
	BYTE	W12
	BYTE		        Dn3 
	BYTE		N12     Gs3 
	BYTE	W12
	BYTE		N06     En3 
	BYTE		N06     An3 
	BYTE	W12
	BYTE		        Fs3 
	BYTE		N06     Bn3 
	BYTE	W12
	BYTE		N24     Cn3 
	BYTE		N24     Cn4 
	BYTE	W24
// 031   ----------------------------------------
	BYTE	W96
// 032   ----------------------------------------
	BYTE	W60
	BYTE		N06     Ds3 
	BYTE	W12
	BYTE		        Dn3 
	BYTE	W12
	BYTE		        Cn3 
	BYTE	W12
// 033   ----------------------------------------
	BYTE		        Bn2 
	BYTE	W12
	BYTE		        Dn3 
	BYTE	W12
	BYTE		        Cn3 
	BYTE	W24
	BYTE		N06   
	BYTE	W12
	BYTE		        Dn3 
	BYTE	W12
	BYTE		        Ds3 
	BYTE	W12
	BYTE		        Fn3 
	BYTE	W12
// 034   ----------------------------------------
	BYTE	W96
// 035   ----------------------------------------
	BYTE	W60
	BYTE		        As3 
	BYTE	W12
	BYTE		        Gs3 
	BYTE	W12
	BYTE		        Fs3 
	BYTE	W12
// 036   ----------------------------------------
	BYTE		        Fn3 
	BYTE	W12
	BYTE		        Gs3 
	BYTE	W12
	BYTE		        Fs3 
	BYTE	W24
	BYTE		N06   
	BYTE	W12
	BYTE		        Gs3 
	BYTE	W12
	BYTE		        As3 
	BYTE	W12
	BYTE		        Cn4 
	BYTE	W12
// 037   ----------------------------------------
	BYTE		TIE     Cs4 
	BYTE	W96
// 038   ----------------------------------------
	BYTE	W72
	BYTE		EOT   
	BYTE	W24
// 039   ----------------------------------------
	BYTE	W96
// 040   ----------------------------------------
	BYTE	W96
// 041   ----------------------------------------
	BYTE	W96
// 042   ----------------------------------------
	BYTE	W96
// 043   ----------------------------------------
	BYTE	W96
// 044   ----------------------------------------
	BYTE	W96
// 045   ----------------------------------------
	BYTE	W96
// 046   ----------------------------------------
	BYTE	W96
// 047   ----------------------------------------
	BYTE	W96
// 048   ----------------------------------------
	BYTE	W96
// 049   ----------------------------------------
	BYTE	W96
// 050   ----------------------------------------
	BYTE	W96
// 051   ----------------------------------------
	BYTE	W96
// 052   ----------------------------------------
	BYTE	W96
// 053   ----------------------------------------
	BYTE	W96
// 054   ----------------------------------------
	BYTE	W96
// 055   ----------------------------------------
	BYTE	W96
// 056   ----------------------------------------
	BYTE	W96
	BYTE	GoTo
	 POIN2	KindredCry_5_B1
KindredCry_5_B2:
// 057   ----------------------------------------
	BYTE	FINE

//**************** Track 6 (Midi-Chn.6) ****************//

KindredCry_6:
	BYTE	KEYSH   KindredCry_key+0
// 000   ----------------------------------------
	BYTE		VOL     95*KindredCry_mvl/mxv
	BYTE	W20
	BYTE		PAN     c_v+11
	BYTE	W52
	BYTE		VOICE   57
	BYTE	W24
KindredCry_6_B1:
// 001   ----------------------------------------
	BYTE	W96
// 002   ----------------------------------------
	BYTE	W96
// 003   ----------------------------------------
	BYTE	W96
// 004   ----------------------------------------
	BYTE	W96
// 005   ----------------------------------------
	BYTE	W96
// 006   ----------------------------------------
	BYTE	W96
// 007   ----------------------------------------
	BYTE	W96
// 008   ----------------------------------------
	BYTE	W96
// 009   ----------------------------------------
	BYTE	W96
// 010   ----------------------------------------
	BYTE	W96
// 011   ----------------------------------------
	BYTE	W96
// 012   ----------------------------------------
	BYTE	W96
// 013   ----------------------------------------
	BYTE	W96
// 014   ----------------------------------------
	BYTE	W96
// 015   ----------------------------------------
	BYTE	W96
// 016   ----------------------------------------
	BYTE	W96
// 017   ----------------------------------------
	BYTE	W96
// 018   ----------------------------------------
	BYTE	W96
// 019   ----------------------------------------
	BYTE	W96
// 020   ----------------------------------------
	BYTE	W96
// 021   ----------------------------------------
	BYTE	W96
// 022   ----------------------------------------
	BYTE	W96
// 023   ----------------------------------------
	BYTE	W96
// 024   ----------------------------------------
	BYTE	W96
// 025   ----------------------------------------
	BYTE	W96
// 026   ----------------------------------------
	BYTE	W96
// 027   ----------------------------------------
	BYTE		N12     En4   v112
	BYTE	W24
	BYTE		N12   
	BYTE	W24
	BYTE		N12   
	BYTE	W24
	BYTE		N12   
	BYTE	W24
// 028   ----------------------------------------
	BYTE		N24   
	BYTE	W24
	BYTE		N06     Ds4 
	BYTE	W12
	BYTE		        En4 
	BYTE	W12
	BYTE		        Fn4 
	BYTE	W12
	BYTE		        En4 
	BYTE	W12
	BYTE		        Gn4 
	BYTE	W12
	BYTE		        Fn4 
	BYTE	W12
// 029   ----------------------------------------
	BYTE		N12     En4 
	BYTE	W24
	BYTE		N04     En2 
	BYTE	W08
	BYTE		N04   
	BYTE	W08
	BYTE		N04   
	BYTE	W08
	BYTE		N48   
	BYTE	W48
// 030   ----------------------------------------
	BYTE	W24
	BYTE		N04   
	BYTE	W08
	BYTE		N04   
	BYTE	W08
	BYTE		N04   
	BYTE	W08
	BYTE		N48   
	BYTE	W48
// 031   ----------------------------------------
	BYTE	W96
// 032   ----------------------------------------
	BYTE	W96
// 033   ----------------------------------------
	BYTE	W96
// 034   ----------------------------------------
	BYTE	W96
// 035   ----------------------------------------
	BYTE	W96
// 036   ----------------------------------------
	BYTE	W48
	BYTE		N06     Fs4 
	BYTE	W12
	BYTE		        Gs4 
	BYTE	W12
	BYTE		        As4 
	BYTE	W12
	BYTE		        Cn5 
	BYTE	W12
// 037   ----------------------------------------
	BYTE		TIE     Cs5 
	BYTE	W96
// 038   ----------------------------------------
	BYTE	W72
	BYTE		EOT   
	BYTE	W24
// 039   ----------------------------------------
	BYTE	W96
// 040   ----------------------------------------
	BYTE	W96
// 041   ----------------------------------------
	BYTE	W96
// 042   ----------------------------------------
	BYTE	W96
// 043   ----------------------------------------
	BYTE	W96
// 044   ----------------------------------------
	BYTE	W96
// 045   ----------------------------------------
	BYTE	W96
// 046   ----------------------------------------
	BYTE	W96
// 047   ----------------------------------------
	BYTE	W96
// 048   ----------------------------------------
	BYTE	W96
// 049   ----------------------------------------
	BYTE	W96
// 050   ----------------------------------------
	BYTE	W96
// 051   ----------------------------------------
	BYTE	W96
// 052   ----------------------------------------
	BYTE	W96
// 053   ----------------------------------------
	BYTE	W96
// 054   ----------------------------------------
	BYTE	W96
// 055   ----------------------------------------
	BYTE	W96
// 056   ----------------------------------------
	BYTE	W96
	BYTE	GoTo
	 POIN2	KindredCry_6_B1
KindredCry_6_B2:
// 057   ----------------------------------------
	BYTE	FINE

//**************** Track 7 (Midi-Chn.7) ****************//

KindredCry_7:
	BYTE	KEYSH   KindredCry_key+0
// 000   ----------------------------------------
	BYTE		VOL     95*KindredCry_mvl/mxv
	BYTE	W12
	BYTE		VOICE   60
	BYTE	W84
KindredCry_7_B1:
// 001   ----------------------------------------
	BYTE	W96
// 002   ----------------------------------------
	BYTE	W96
// 003   ----------------------------------------
	BYTE	W96
// 004   ----------------------------------------
	BYTE	W96
// 005   ----------------------------------------
	BYTE	W96
// 006   ----------------------------------------
	BYTE	W96
// 007   ----------------------------------------
	BYTE	W96
// 008   ----------------------------------------
	BYTE	W96
// 009   ----------------------------------------
	BYTE	W96
// 010   ----------------------------------------
	BYTE	W96
// 011   ----------------------------------------
	BYTE	W96
// 012   ----------------------------------------
	BYTE	W96
// 013   ----------------------------------------
	BYTE	W96
// 014   ----------------------------------------
	BYTE	W96
// 015   ----------------------------------------
	BYTE	W96
// 016   ----------------------------------------
	BYTE	W96
// 017   ----------------------------------------
	BYTE	W96
// 018   ----------------------------------------
	BYTE	W96
// 019   ----------------------------------------
	BYTE	W96
// 020   ----------------------------------------
	BYTE	W96
// 021   ----------------------------------------
	BYTE	W96
// 022   ----------------------------------------
	BYTE	W96
// 023   ----------------------------------------
	BYTE	W96
// 024   ----------------------------------------
	BYTE	W96
// 025   ----------------------------------------
	BYTE	W24
	BYTE		N08     Cs4   v100
	BYTE	W08
	BYTE		        Gs3 
	BYTE	W08
	BYTE		        Cs3 
	BYTE	W08
	BYTE		N12     Gs2 
	BYTE	W48
// 026   ----------------------------------------
	BYTE		N08     Gs3 
	BYTE	W08
	BYTE		        En3 
	BYTE	W08
	BYTE		        Bn2 
	BYTE	W08
	BYTE		N12     Fn2 
	BYTE	W24
	BYTE		N06     En2   v112
	BYTE	W12
	BYTE		        Fs2 
	BYTE	W12
	BYTE		        Gs2 
	BYTE	W24
// 027   ----------------------------------------
	BYTE	W96
// 028   ----------------------------------------
	BYTE	W96
// 029   ----------------------------------------
KindredCry_7_029:
	BYTE	W24
	BYTE		N04     Bn2   v112
	BYTE		N04     En3 
	BYTE	W08
	BYTE		        Bn2 
	BYTE		N04     En3 
	BYTE	W08
	BYTE		        Bn2 
	BYTE		N04     En3 
	BYTE	W08
	BYTE		N48     Bn2 
	BYTE		N48     En3 
	BYTE	W48
	BYTE	PEND
// 030   ----------------------------------------
	BYTE	PATT
	 POIN2	KindredCry_7_029
// 031   ----------------------------------------
	BYTE	W12
	BYTE		N06     En2   v100
	BYTE	W12
	BYTE		        Ds2 
	BYTE	W12
	BYTE		        Cs2 
	BYTE	W12
	BYTE		        Cn2 
	BYTE	W12
	BYTE		        Ds2 
	BYTE	W12
	BYTE		        Cs2 
	BYTE	W24
// 032   ----------------------------------------
	BYTE		N06   
	BYTE	W12
	BYTE		        Ds2 
	BYTE	W12
	BYTE		        En2 
	BYTE	W12
	BYTE		        Fs2 
	BYTE	W24
	BYTE		        Gn2   v112
	BYTE	W12
	BYTE		        Fs2 
	BYTE	W12
	BYTE		        En2 
	BYTE	W12
// 033   ----------------------------------------
	BYTE		        Ds2 
	BYTE	W12
	BYTE		        Fs2 
	BYTE	W12
	BYTE		        En2 
	BYTE	W24
	BYTE		N06   
	BYTE	W12
	BYTE		        Fs2 
	BYTE	W12
	BYTE		        Gn2 
	BYTE	W12
	BYTE		        An2 
	BYTE	W12
// 034   ----------------------------------------
	BYTE	W12
	BYTE		        As2 
	BYTE	W12
	BYTE		        An2 
	BYTE	W12
	BYTE		        Gn2 
	BYTE	W12
	BYTE		        Fn2 
	BYTE	W12
	BYTE		        An2 
	BYTE	W12
	BYTE		        Gn2 
	BYTE	W24
// 035   ----------------------------------------
	BYTE		N06   
	BYTE	W12
	BYTE		        An2 
	BYTE	W12
	BYTE		        As2 
	BYTE	W12
	BYTE		        Cn3 
	BYTE	W24
	BYTE		        Cs3 
	BYTE	W12
	BYTE		        Cn3 
	BYTE	W12
	BYTE		        As2 
	BYTE	W12
// 036   ----------------------------------------
	BYTE		        Gs2 
	BYTE	W12
	BYTE		        Cn3 
	BYTE	W12
	BYTE		        As2 
	BYTE	W24
	BYTE		N06   
	BYTE	W12
	BYTE		        Cn3 
	BYTE	W12
	BYTE		        Cs3 
	BYTE	W12
	BYTE		        Ds3 
	BYTE	W12
// 037   ----------------------------------------
	BYTE	W96
// 038   ----------------------------------------
	BYTE	W96
// 039   ----------------------------------------
	BYTE	W96
// 040   ----------------------------------------
	BYTE	W96
// 041   ----------------------------------------
	BYTE	W96
// 042   ----------------------------------------
	BYTE	W96
// 043   ----------------------------------------
	BYTE	W96
// 044   ----------------------------------------
	BYTE	W96
// 045   ----------------------------------------
	BYTE	W96
// 046   ----------------------------------------
	BYTE	W96
// 047   ----------------------------------------
	BYTE	W96
// 048   ----------------------------------------
	BYTE	W96
// 049   ----------------------------------------
	BYTE	W96
// 050   ----------------------------------------
	BYTE	W96
// 051   ----------------------------------------
	BYTE	W96
// 052   ----------------------------------------
	BYTE	W96
// 053   ----------------------------------------
	BYTE	W96
// 054   ----------------------------------------
	BYTE	W96
// 055   ----------------------------------------
	BYTE	W96
// 056   ----------------------------------------
	BYTE	W96
	BYTE	GoTo
	 POIN2	KindredCry_7_B1
KindredCry_7_B2:
// 057   ----------------------------------------
	BYTE	FINE

//**************** Track 8 (Midi-Chn.8) ****************//

KindredCry_8:
	BYTE	KEYSH   KindredCry_key+0
// 000   ----------------------------------------
	BYTE		VOICE   49
	BYTE		PAN     c_v-11
	BYTE		VOL     95*KindredCry_mvl/mxv
	BYTE		N12     En2   v112
	BYTE	W24
	BYTE		N12   
	BYTE	W24
	BYTE		N12   
	BYTE	W24
	BYTE		N12   
	BYTE	W24
KindredCry_8_B1:
// 001   ----------------------------------------
KindredCry_8_001:
	BYTE		N12     En2   v112
	BYTE	W24
	BYTE		N09     Dn2 
	BYTE	W12
	BYTE		        En2 
	BYTE	W12
	BYTE		        Fn2 
	BYTE	W12
	BYTE		        En2 
	BYTE	W12
	BYTE		        Gn2 
	BYTE	W12
	BYTE		        Fn2 
	BYTE	W12
	BYTE	PEND
// 002   ----------------------------------------
KindredCry_8_002:
	BYTE		N12     En2   v112
	BYTE	W24
	BYTE		N12   
	BYTE	W24
	BYTE		N12   
	BYTE	W24
	BYTE		        Dn2 
	BYTE	W12
	BYTE		        En2 
	BYTE	W12
	BYTE	PEND
// 003   ----------------------------------------
KindredCry_8_003:
	BYTE		N12     Fn2   v112
	BYTE	W24
	BYTE		N09     Gn2 
	BYTE	W12
	BYTE		        Gs2 
	BYTE	W12
	BYTE		        As2 
	BYTE	W12
	BYTE		        Cn3 
	BYTE	W12
	BYTE		        Dn3 
	BYTE	W24
	BYTE	PEND
// 004   ----------------------------------------
KindredCry_8_004:
	BYTE		N12     En2   v112
	BYTE	W24
	BYTE		N12   
	BYTE	W24
	BYTE		N12   
	BYTE	W24
	BYTE		N12   
	BYTE	W24
	BYTE	PEND
// 005   ----------------------------------------
	BYTE	PATT
	 POIN2	KindredCry_8_001
// 006   ----------------------------------------
	BYTE	PATT
	 POIN2	KindredCry_8_002
// 007   ----------------------------------------
	BYTE	PATT
	 POIN2	KindredCry_8_003
// 008   ----------------------------------------
	BYTE	PATT
	 POIN2	KindredCry_8_004
// 009   ----------------------------------------
KindredCry_8_009:
	BYTE		N12     En2   v112
	BYTE	W24
	BYTE		N10     Ds2 
	BYTE	W12
	BYTE		N09     En2 
	BYTE	W12
	BYTE		        Fn2 
	BYTE	W12
	BYTE		        En2 
	BYTE	W12
	BYTE		        Gn2 
	BYTE	W12
	BYTE		        Fn2 
	BYTE	W12
	BYTE	PEND
// 010   ----------------------------------------
KindredCry_8_010:
	BYTE		N12     En2   v112
	BYTE	W24
	BYTE		N12   
	BYTE	W24
	BYTE		N12   
	BYTE	W24
	BYTE		N10     Ds2 
	BYTE	W12
	BYTE		N12     En2 
	BYTE	W12
	BYTE	PEND
// 011   ----------------------------------------
	BYTE	PATT
	 POIN2	KindredCry_8_003
// 012   ----------------------------------------
	BYTE	PATT
	 POIN2	KindredCry_8_004
// 013   ----------------------------------------
	BYTE	PATT
	 POIN2	KindredCry_8_009
// 014   ----------------------------------------
	BYTE	PATT
	 POIN2	KindredCry_8_010
// 015   ----------------------------------------
	BYTE	PATT
	 POIN2	KindredCry_8_003
// 016   ----------------------------------------
KindredCry_8_016:
	BYTE		N12     An2   v100
	BYTE	W72
	BYTE		N12   
	BYTE	W24
	BYTE	PEND
// 017   ----------------------------------------
KindredCry_8_017:
	BYTE		N12     An2   v100
	BYTE	W48
	BYTE		N12   
	BYTE	W24
	BYTE		N12   
	BYTE	W24
	BYTE	PEND
// 018   ----------------------------------------
KindredCry_8_018:
	BYTE	W48
	BYTE		N12     An2   v100
	BYTE	W24
	BYTE		N12   
	BYTE	W24
	BYTE	PEND
// 019   ----------------------------------------
	BYTE	W48
	BYTE		N12   
	BYTE	W48
// 020   ----------------------------------------
KindredCry_8_020:
	BYTE	W24
	BYTE		N12     An2   v100
	BYTE	W24
	BYTE		N12   
	BYTE	W48
	BYTE	PEND
// 021   ----------------------------------------
KindredCry_8_021:
	BYTE		N12     An2   v100
	BYTE	W24
	BYTE		N12   
	BYTE	W72
	BYTE	PEND
// 022   ----------------------------------------
KindredCry_8_022:
	BYTE		N12     An2   v108
	BYTE	W24
	BYTE		N12   
	BYTE	W48
	BYTE		        Cn3 
	BYTE	W24
	BYTE	PEND
// 023   ----------------------------------------
KindredCry_8_023:
	BYTE		N12     Cs3   v112
	BYTE	W48
	BYTE		N12   
	BYTE	W48
	BYTE	PEND
// 024   ----------------------------------------
	BYTE	PATT
	 POIN2	KindredCry_8_023
// 025   ----------------------------------------
	BYTE	PATT
	 POIN2	KindredCry_8_023
// 026   ----------------------------------------
	BYTE	PATT
	 POIN2	KindredCry_8_023
// 027   ----------------------------------------
	BYTE	PATT
	 POIN2	KindredCry_8_023
// 028   ----------------------------------------
	BYTE	PATT
	 POIN2	KindredCry_8_023
// 029   ----------------------------------------
	BYTE	PATT
	 POIN2	KindredCry_8_023
// 030   ----------------------------------------
	BYTE	PATT
	 POIN2	KindredCry_8_023
// 031   ----------------------------------------
	BYTE		N12     Fs2   v112
	BYTE	W96
// 032   ----------------------------------------
	BYTE		N12   
	BYTE	W24
	BYTE		N12   
	BYTE	W24
	BYTE		        An2 
	BYTE	W48
// 033   ----------------------------------------
	BYTE	W48
	BYTE		N12   
	BYTE	W24
	BYTE		N12   
	BYTE	W24
// 034   ----------------------------------------
	BYTE		        Cn3 
	BYTE	W96
// 035   ----------------------------------------
	BYTE		N12   
	BYTE	W24
	BYTE		N12   
	BYTE	W24
	BYTE		        Ds3 
	BYTE	W48
// 036   ----------------------------------------
	BYTE	W48
	BYTE		N12   
	BYTE	W24
	BYTE		N12   
	BYTE	W24
// 037   ----------------------------------------
KindredCry_8_037:
	BYTE		N72     Fs2   v112
	BYTE	W72
	BYTE		N48     As2 
	BYTE	W24
	BYTE	PEND
// 038   ----------------------------------------
KindredCry_8_038:
	BYTE	W24
	BYTE		N24     Cs3   v112
	BYTE	W24
	BYTE		N96     Dn3 
	BYTE	W48
	BYTE	PEND
// 039   ----------------------------------------
	BYTE	W48
	BYTE		N48     En3 
	BYTE	W48
// 040   ----------------------------------------
	BYTE		N96     Cs3 
	BYTE	W96
// 041   ----------------------------------------
KindredCry_8_041:
	BYTE		N48     As2   v112
	BYTE	W48
	BYTE		TIE     Dn3 
	BYTE	W48
	BYTE	PEND
// 042   ----------------------------------------
	BYTE	W96
	BYTE		EOT   
// 043   ----------------------------------------
	BYTE	PATT
	 POIN2	KindredCry_8_037
// 044   ----------------------------------------
	BYTE	PATT
	 POIN2	KindredCry_8_038
// 045   ----------------------------------------
	BYTE	W48
	BYTE		N24     Fs3   v112
	BYTE	W24
	BYTE		        Fn3 
	BYTE	W24
// 046   ----------------------------------------
	BYTE		N96     Cs3 
	BYTE	W96
// 047   ----------------------------------------
	BYTE	PATT
	 POIN2	KindredCry_8_041
// 048   ----------------------------------------
	BYTE	W96
	BYTE		EOT     Dn3 
// 049   ----------------------------------------
	BYTE	PATT
	 POIN2	KindredCry_8_016
// 050   ----------------------------------------
	BYTE	PATT
	 POIN2	KindredCry_8_017
// 051   ----------------------------------------
	BYTE	PATT
	 POIN2	KindredCry_8_018
// 052   ----------------------------------------
	BYTE	W48
	BYTE		N12     An2   v100
	BYTE	W48
// 053   ----------------------------------------
	BYTE	PATT
	 POIN2	KindredCry_8_020
// 054   ----------------------------------------
	BYTE	PATT
	 POIN2	KindredCry_8_021
// 055   ----------------------------------------
	BYTE	PATT
	 POIN2	KindredCry_8_022
// 056   ----------------------------------------
	BYTE	PATT
	 POIN2	KindredCry_8_004
	BYTE	GoTo
	 POIN2	KindredCry_8_B1
KindredCry_8_B2:
// 057   ----------------------------------------
	BYTE	FINE

//**************** Track 9 (Midi-Chn.9) ****************//

KindredCry_9:
	BYTE	KEYSH   KindredCry_key+0
// 000   ----------------------------------------
	BYTE		VOICE   2
	BYTE		PAN     c_v+22
	BYTE		VOL     95*KindredCry_mvl/mxv
	BYTE		N12     En2   v112
	BYTE	W24
	BYTE		N12   
	BYTE	W24
	BYTE		N12   
	BYTE	W24
	BYTE		N12   
	BYTE	W24
KindredCry_9_B1:
// 001   ----------------------------------------
KindredCry_9_001:
	BYTE		N12     En2   v112
	BYTE	W24
	BYTE		N09     Dn2 
	BYTE	W12
	BYTE		        En2 
	BYTE	W12
	BYTE		        Fn2 
	BYTE	W12
	BYTE		        En2 
	BYTE	W12
	BYTE		        Gn2 
	BYTE	W12
	BYTE		        Fn2 
	BYTE	W12
	BYTE	PEND
// 002   ----------------------------------------
KindredCry_9_002:
	BYTE		N12     En2   v112
	BYTE	W24
	BYTE		N12   
	BYTE	W24
	BYTE		N12   
	BYTE	W24
	BYTE		        Dn2 
	BYTE	W12
	BYTE		        En2 
	BYTE	W12
	BYTE	PEND
// 003   ----------------------------------------
KindredCry_9_003:
	BYTE		N12     Fn2   v112
	BYTE	W24
	BYTE		N09     Gn2 
	BYTE	W12
	BYTE		        Gs2 
	BYTE	W12
	BYTE		        As2 
	BYTE	W12
	BYTE		        Cn3 
	BYTE	W12
	BYTE		        Dn3 
	BYTE	W24
	BYTE	PEND
// 004   ----------------------------------------
KindredCry_9_004:
	BYTE		N12     En2   v112
	BYTE	W24
	BYTE		N12   
	BYTE	W24
	BYTE		N12   
	BYTE	W24
	BYTE		N12   
	BYTE	W24
	BYTE	PEND
// 005   ----------------------------------------
	BYTE	PATT
	 POIN2	KindredCry_9_001
// 006   ----------------------------------------
	BYTE	PATT
	 POIN2	KindredCry_9_002
// 007   ----------------------------------------
	BYTE	PATT
	 POIN2	KindredCry_9_003
// 008   ----------------------------------------
	BYTE	PATT
	 POIN2	KindredCry_9_004
// 009   ----------------------------------------
KindredCry_9_009:
	BYTE		N12     En2   v112
	BYTE	W24
	BYTE		N10     Ds2 
	BYTE	W12
	BYTE		N09     En2 
	BYTE	W12
	BYTE		        Fn2 
	BYTE	W12
	BYTE		        En2 
	BYTE	W12
	BYTE		        Gn2 
	BYTE	W12
	BYTE		        Fn2 
	BYTE	W12
	BYTE	PEND
// 010   ----------------------------------------
KindredCry_9_010:
	BYTE		N12     En2   v112
	BYTE	W24
	BYTE		N12   
	BYTE	W24
	BYTE		N12   
	BYTE	W24
	BYTE		N10     Ds2 
	BYTE	W12
	BYTE		N12     En2 
	BYTE	W12
	BYTE	PEND
// 011   ----------------------------------------
	BYTE	PATT
	 POIN2	KindredCry_9_003
// 012   ----------------------------------------
	BYTE	PATT
	 POIN2	KindredCry_9_004
// 013   ----------------------------------------
	BYTE	PATT
	 POIN2	KindredCry_9_009
// 014   ----------------------------------------
	BYTE	PATT
	 POIN2	KindredCry_9_010
// 015   ----------------------------------------
	BYTE	PATT
	 POIN2	KindredCry_9_003
// 016   ----------------------------------------
KindredCry_9_016:
	BYTE		N12     An2   v100
	BYTE	W72
	BYTE		N12   
	BYTE	W24
	BYTE	PEND
// 017   ----------------------------------------
KindredCry_9_017:
	BYTE		N12     An2   v100
	BYTE	W48
	BYTE		N12   
	BYTE	W24
	BYTE		N12   
	BYTE	W24
	BYTE	PEND
// 018   ----------------------------------------
KindredCry_9_018:
	BYTE	W48
	BYTE		N12     An2   v100
	BYTE	W24
	BYTE		N12   
	BYTE	W24
	BYTE	PEND
// 019   ----------------------------------------
	BYTE	W48
	BYTE		N12   
	BYTE	W48
// 020   ----------------------------------------
KindredCry_9_020:
	BYTE	W24
	BYTE		N12     An2   v100
	BYTE	W24
	BYTE		N12   
	BYTE	W48
	BYTE	PEND
// 021   ----------------------------------------
KindredCry_9_021:
	BYTE		N12     An2   v100
	BYTE	W24
	BYTE		N12   
	BYTE	W72
	BYTE	PEND
// 022   ----------------------------------------
KindredCry_9_022:
	BYTE		N12     An2   v108
	BYTE	W24
	BYTE		N12   
	BYTE	W48
	BYTE		        Cn3 
	BYTE	W24
	BYTE	PEND
// 023   ----------------------------------------
KindredCry_9_023:
	BYTE		N12     Cs3   v112
	BYTE	W48
	BYTE		N12   
	BYTE	W48
	BYTE	PEND
// 024   ----------------------------------------
	BYTE	PATT
	 POIN2	KindredCry_9_023
// 025   ----------------------------------------
	BYTE	PATT
	 POIN2	KindredCry_9_023
// 026   ----------------------------------------
	BYTE	PATT
	 POIN2	KindredCry_9_023
// 027   ----------------------------------------
	BYTE	PATT
	 POIN2	KindredCry_9_023
// 028   ----------------------------------------
	BYTE	PATT
	 POIN2	KindredCry_9_023
// 029   ----------------------------------------
	BYTE	PATT
	 POIN2	KindredCry_9_023
// 030   ----------------------------------------
	BYTE	PATT
	 POIN2	KindredCry_9_023
// 031   ----------------------------------------
	BYTE		N12     Fs2   v112
	BYTE	W96
// 032   ----------------------------------------
	BYTE		N12   
	BYTE	W24
	BYTE		N12   
	BYTE	W24
	BYTE		        An2 
	BYTE	W48
// 033   ----------------------------------------
	BYTE	W48
	BYTE		N12   
	BYTE	W24
	BYTE		N12   
	BYTE	W24
// 034   ----------------------------------------
	BYTE		        Cn3 
	BYTE	W96
// 035   ----------------------------------------
	BYTE		N12   
	BYTE	W24
	BYTE		N12   
	BYTE	W24
	BYTE		        Ds3 
	BYTE	W48
// 036   ----------------------------------------
	BYTE	W48
	BYTE		N12   
	BYTE	W24
	BYTE		N12   
	BYTE	W24
// 037   ----------------------------------------
	BYTE	W96
// 038   ----------------------------------------
	BYTE	W96
// 039   ----------------------------------------
	BYTE	W96
// 040   ----------------------------------------
	BYTE	W96
// 041   ----------------------------------------
	BYTE	W96
// 042   ----------------------------------------
	BYTE	W96
// 043   ----------------------------------------
	BYTE	W96
// 044   ----------------------------------------
	BYTE	W96
// 045   ----------------------------------------
	BYTE	W96
// 046   ----------------------------------------
	BYTE	W96
// 047   ----------------------------------------
	BYTE	W96
// 048   ----------------------------------------
	BYTE	W96
// 049   ----------------------------------------
	BYTE	PATT
	 POIN2	KindredCry_9_016
// 050   ----------------------------------------
	BYTE	PATT
	 POIN2	KindredCry_9_017
// 051   ----------------------------------------
	BYTE	PATT
	 POIN2	KindredCry_9_018
// 052   ----------------------------------------
	BYTE	W48
	BYTE		N12     An2   v100
	BYTE	W48
// 053   ----------------------------------------
	BYTE	PATT
	 POIN2	KindredCry_9_020
// 054   ----------------------------------------
	BYTE	PATT
	 POIN2	KindredCry_9_021
// 055   ----------------------------------------
	BYTE	PATT
	 POIN2	KindredCry_9_022
// 056   ----------------------------------------
	BYTE	PATT
	 POIN2	KindredCry_9_004
	BYTE	GoTo
	 POIN2	KindredCry_9_B1
KindredCry_9_B2:
// 057   ----------------------------------------
	BYTE	FINE

//**************** Track 10 (Midi-Chn.11) ****************//

KindredCry_10:
	BYTE	KEYSH   KindredCry_key+0
// 000   ----------------------------------------
	BYTE		VOL     84*KindredCry_mvl/mxv
	BYTE		PAN     c_v+10
	BYTE	W60
	BYTE		VOICE   71
	BYTE	W36
KindredCry_10_B1:
// 001   ----------------------------------------
	BYTE	W96
// 002   ----------------------------------------
	BYTE	W96
// 003   ----------------------------------------
	BYTE	W96
// 004   ----------------------------------------
	BYTE	W96
// 005   ----------------------------------------
	BYTE	W96
// 006   ----------------------------------------
	BYTE	W96
// 007   ----------------------------------------
	BYTE	W96
// 008   ----------------------------------------
	BYTE	W96
// 009   ----------------------------------------
	BYTE	W96
// 010   ----------------------------------------
	BYTE	W96
// 011   ----------------------------------------
	BYTE	W96
// 012   ----------------------------------------
	BYTE	W96
// 013   ----------------------------------------
	BYTE	W96
// 014   ----------------------------------------
	BYTE	W96
// 015   ----------------------------------------
	BYTE	W96
// 016   ----------------------------------------
KindredCry_10_016:
	BYTE		N06     An3   v100
	BYTE	W12
	BYTE		        Gs3 
	BYTE	W12
	BYTE		        An3 
	BYTE	W12
	BYTE		        Bn3 
	BYTE	W12
	BYTE		        An3 
	BYTE	W24
	BYTE		N06   
	BYTE	W12
	BYTE		        Gs3 
	BYTE	W12
	BYTE	PEND
// 017   ----------------------------------------
KindredCry_10_017:
	BYTE		N06     An3   v100
	BYTE	W12
	BYTE		        Bn3 
	BYTE	W12
	BYTE		        Cn4 
	BYTE	W12
	BYTE		        Dn4 
	BYTE	W12
	BYTE		N24     Ds4 
	BYTE	W24
	BYTE		N06     An3 
	BYTE	W12
	BYTE		        Gs3 
	BYTE	W12
	BYTE	PEND
// 018   ----------------------------------------
KindredCry_10_018:
	BYTE		N06     An3   v100
	BYTE	W12
	BYTE		        Bn3 
	BYTE	W12
	BYTE		        An3 
	BYTE	W24
	BYTE		N06   
	BYTE	W12
	BYTE		        Gs3 
	BYTE	W12
	BYTE		        An3 
	BYTE	W12
	BYTE		        Bn3 
	BYTE	W12
	BYTE	PEND
// 019   ----------------------------------------
KindredCry_10_019:
	BYTE		N06     Cn4   v100
	BYTE	W12
	BYTE		        Dn4 
	BYTE	W12
	BYTE		N24     Ds4 
	BYTE	W24
	BYTE		N06     An4 
	BYTE	W12
	BYTE		        Gs4 
	BYTE	W12
	BYTE		        An4 
	BYTE	W12
	BYTE		        Bn4 
	BYTE	W12
	BYTE	PEND
// 020   ----------------------------------------
KindredCry_10_020:
	BYTE		N06     An4   v100
	BYTE	W24
	BYTE		N06   
	BYTE	W12
	BYTE		        Gs4 
	BYTE	W12
	BYTE		        An4 
	BYTE	W12
	BYTE		        Bn4 
	BYTE	W12
	BYTE		        Cn5 
	BYTE	W12
	BYTE		        Dn5 
	BYTE	W12
	BYTE	PEND
// 021   ----------------------------------------
KindredCry_10_021:
	BYTE		N24     Ds5   v100
	BYTE	W24
	BYTE		N06     An4 
	BYTE	W12
	BYTE		        Gs4 
	BYTE	W12
	BYTE		        An4 
	BYTE	W12
	BYTE		        Bn4 
	BYTE	W12
	BYTE		        An4 
	BYTE	W24
	BYTE	PEND
// 022   ----------------------------------------
KindredCry_10_022:
	BYTE		N06     An4   v100
	BYTE	W12
	BYTE		        Gs4 
	BYTE	W12
	BYTE		        An4 
	BYTE	W12
	BYTE		        Bn4 
	BYTE	W12
	BYTE		        Cn5 
	BYTE	W12
	BYTE		        Dn5 
	BYTE	W12
	BYTE		N24     Ds5 
	BYTE	W24
	BYTE	PEND
// 023   ----------------------------------------
	BYTE	W96
// 024   ----------------------------------------
	BYTE	W96
// 025   ----------------------------------------
	BYTE	W24
	BYTE		N08     Cs6   v120
	BYTE	W08
	BYTE		        Gs5 
	BYTE	W08
	BYTE		        Cs5 
	BYTE	W08
	BYTE		N12     Gs4 
	BYTE	W48
// 026   ----------------------------------------
	BYTE		N08     Gs5 
	BYTE	W08
	BYTE		        En5 
	BYTE	W08
	BYTE		        Bn4 
	BYTE	W08
	BYTE		N12     Fn4 
	BYTE	W72
// 027   ----------------------------------------
	BYTE	W96
// 028   ----------------------------------------
	BYTE	W96
// 029   ----------------------------------------
	BYTE	W96
// 030   ----------------------------------------
	BYTE	W96
// 031   ----------------------------------------
	BYTE	W96
// 032   ----------------------------------------
	BYTE	W96
// 033   ----------------------------------------
	BYTE	W96
// 034   ----------------------------------------
	BYTE	W12
	BYTE		N06     Ds4   v112
	BYTE	W12
	BYTE		        Dn4 
	BYTE	W12
	BYTE		        Cn4 
	BYTE	W12
	BYTE		        As3 
	BYTE	W12
	BYTE		        Dn4 
	BYTE	W12
	BYTE		        Cn4 
	BYTE	W24
// 035   ----------------------------------------
	BYTE		N06   
	BYTE	W12
	BYTE		        Dn4 
	BYTE	W12
	BYTE		        Ds4 
	BYTE	W12
	BYTE		        Fn4 
	BYTE	W60
// 036   ----------------------------------------
	BYTE	W96
// 037   ----------------------------------------
	BYTE	W96
// 038   ----------------------------------------
	BYTE	W96
// 039   ----------------------------------------
	BYTE	W96
// 040   ----------------------------------------
	BYTE	W96
// 041   ----------------------------------------
	BYTE	W96
// 042   ----------------------------------------
	BYTE	W96
// 043   ----------------------------------------
	BYTE	W96
// 044   ----------------------------------------
	BYTE	W96
// 045   ----------------------------------------
	BYTE	W96
// 046   ----------------------------------------
	BYTE	W96
// 047   ----------------------------------------
	BYTE	W96
// 048   ----------------------------------------
	BYTE	W96
// 049   ----------------------------------------
	BYTE	PATT
	 POIN2	KindredCry_10_016
// 050   ----------------------------------------
	BYTE	PATT
	 POIN2	KindredCry_10_017
// 051   ----------------------------------------
	BYTE	PATT
	 POIN2	KindredCry_10_018
// 052   ----------------------------------------
	BYTE	PATT
	 POIN2	KindredCry_10_019
// 053   ----------------------------------------
	BYTE	PATT
	 POIN2	KindredCry_10_020
// 054   ----------------------------------------
	BYTE	PATT
	 POIN2	KindredCry_10_021
// 055   ----------------------------------------
	BYTE	PATT
	 POIN2	KindredCry_10_022
// 056   ----------------------------------------
	BYTE	W96
	BYTE	GoTo
	 POIN2	KindredCry_10_B1
KindredCry_10_B2:
// 057   ----------------------------------------
	BYTE	FINE

//**************** Track 11 (Midi-Chn.12) ****************//

KindredCry_11:
	BYTE	KEYSH   KindredCry_key+0
// 000   ----------------------------------------
	BYTE		PAN     c_v-14
	BYTE	W22
	BYTE		VOL     66*KindredCry_mvl/mxv
	BYTE	W48
	BYTE	W02
	BYTE		VOICE   46
	BYTE	W24
KindredCry_11_B1:
// 001   ----------------------------------------
	BYTE	W96
// 002   ----------------------------------------
	BYTE	W96
// 003   ----------------------------------------
	BYTE	W96
// 004   ----------------------------------------
	BYTE	W96
// 005   ----------------------------------------
	BYTE	W96
// 006   ----------------------------------------
	BYTE	W96
// 007   ----------------------------------------
	BYTE	W96
// 008   ----------------------------------------
	BYTE	W96
// 009   ----------------------------------------
	BYTE	W96
// 010   ----------------------------------------
	BYTE	W96
// 011   ----------------------------------------
	BYTE	W96
// 012   ----------------------------------------
	BYTE	W96
// 013   ----------------------------------------
	BYTE	W96
// 014   ----------------------------------------
	BYTE	W96
// 015   ----------------------------------------
	BYTE	W96
// 016   ----------------------------------------
KindredCry_11_016:
	BYTE		N12     An2   v100
	BYTE	W12
	BYTE		        Cn3 
	BYTE	W12
	BYTE		        Fn3 
	BYTE	W12
	BYTE		        Gs3 
	BYTE	W12
	BYTE		        Fn3 
	BYTE	W12
	BYTE		        Cn3 
	BYTE	W12
	BYTE		        An2 
	BYTE	W12
	BYTE		        Cn3 
	BYTE	W12
	BYTE	PEND
// 017   ----------------------------------------
KindredCry_11_017:
	BYTE		N12     Fn3   v100
	BYTE	W12
	BYTE		        Gs3 
	BYTE	W12
	BYTE		        Cn4 
	BYTE	W12
	BYTE		        Gs3 
	BYTE	W12
	BYTE		        Ds4 
	BYTE	W12
	BYTE		        Cn4 
	BYTE	W12
	BYTE		        An2 
	BYTE	W12
	BYTE		        Cn3 
	BYTE	W12
	BYTE	PEND
// 018   ----------------------------------------
KindredCry_11_018:
	BYTE		N12     Fn3   v100
	BYTE	W12
	BYTE		        Gs3 
	BYTE	W12
	BYTE		        Fn3 
	BYTE	W12
	BYTE		        Cn3 
	BYTE	W12
	BYTE		        An2 
	BYTE	W12
	BYTE		        Cn3 
	BYTE	W12
	BYTE		        Fn3 
	BYTE	W12
	BYTE		        Gs3 
	BYTE	W12
	BYTE	PEND
// 019   ----------------------------------------
KindredCry_11_019:
	BYTE		N12     Cn4   v100
	BYTE	W12
	BYTE		        Gs3 
	BYTE	W12
	BYTE		        Ds4 
	BYTE	W12
	BYTE		        Cn4 
	BYTE	W12
	BYTE		        An2 
	BYTE	W12
	BYTE		        Cn3 
	BYTE	W12
	BYTE		        Fn3 
	BYTE	W12
	BYTE		        Gs3 
	BYTE	W12
	BYTE	PEND
// 020   ----------------------------------------
KindredCry_11_020:
	BYTE		N12     Fn3   v100
	BYTE	W12
	BYTE		        Cn3 
	BYTE	W12
	BYTE		        An2 
	BYTE	W12
	BYTE		        Cn3 
	BYTE	W12
	BYTE		        Fn3 
	BYTE	W12
	BYTE		        Gs3 
	BYTE	W12
	BYTE		        Cn4 
	BYTE	W12
	BYTE		        Gs3 
	BYTE	W12
	BYTE	PEND
// 021   ----------------------------------------
KindredCry_11_021:
	BYTE		N12     Ds4   v100
	BYTE	W12
	BYTE		        Cn4 
	BYTE	W12
	BYTE		        An2 
	BYTE	W12
	BYTE		        Cn3 
	BYTE	W12
	BYTE		        Fn3 
	BYTE	W12
	BYTE		        Gs3 
	BYTE	W12
	BYTE		        Fn3 
	BYTE	W12
	BYTE		        Cn3 
	BYTE	W12
	BYTE	PEND
// 022   ----------------------------------------
KindredCry_11_022:
	BYTE		N12     An2   v100
	BYTE	W12
	BYTE		        Cn3 
	BYTE	W12
	BYTE		        Fn3 
	BYTE	W12
	BYTE		        Gs3 
	BYTE	W12
	BYTE		        Cn4 
	BYTE	W12
	BYTE		        Gs3 
	BYTE	W12
	BYTE		        Ds4 
	BYTE	W12
	BYTE		        Cn4 
	BYTE	W12
	BYTE	PEND
// 023   ----------------------------------------
	BYTE	W96
// 024   ----------------------------------------
	BYTE	W96
// 025   ----------------------------------------
	BYTE	W96
// 026   ----------------------------------------
	BYTE	W96
// 027   ----------------------------------------
	BYTE	W96
// 028   ----------------------------------------
	BYTE	W96
// 029   ----------------------------------------
	BYTE	W96
// 030   ----------------------------------------
	BYTE	W96
// 031   ----------------------------------------
	BYTE	W96
// 032   ----------------------------------------
	BYTE	W96
// 033   ----------------------------------------
	BYTE	W96
// 034   ----------------------------------------
	BYTE	W96
// 035   ----------------------------------------
	BYTE	W96
// 036   ----------------------------------------
	BYTE	W96
// 037   ----------------------------------------
KindredCry_11_037:
	BYTE		N12     Cs4   v100
	BYTE	W12
	BYTE		        As3 
	BYTE	W12
	BYTE		        Fs3 
	BYTE	W12
	BYTE		        Cs3 
	BYTE	W12
	BYTE		        Fs3 
	BYTE	W12
	BYTE		        As3 
	BYTE	W12
	BYTE		        Cs4 
	BYTE	W12
	BYTE		        Dn4 
	BYTE	W12
	BYTE	PEND
// 038   ----------------------------------------
	BYTE	PATT
	 POIN2	KindredCry_11_037
// 039   ----------------------------------------
	BYTE	PATT
	 POIN2	KindredCry_11_037
// 040   ----------------------------------------
	BYTE	PATT
	 POIN2	KindredCry_11_037
// 041   ----------------------------------------
	BYTE	PATT
	 POIN2	KindredCry_11_037
// 042   ----------------------------------------
	BYTE	PATT
	 POIN2	KindredCry_11_037
// 043   ----------------------------------------
	BYTE	PATT
	 POIN2	KindredCry_11_037
// 044   ----------------------------------------
	BYTE	PATT
	 POIN2	KindredCry_11_037
// 045   ----------------------------------------
	BYTE	PATT
	 POIN2	KindredCry_11_037
// 046   ----------------------------------------
	BYTE	PATT
	 POIN2	KindredCry_11_037
// 047   ----------------------------------------
	BYTE	PATT
	 POIN2	KindredCry_11_037
// 048   ----------------------------------------
	BYTE	PATT
	 POIN2	KindredCry_11_037
// 049   ----------------------------------------
	BYTE	PATT
	 POIN2	KindredCry_11_016
// 050   ----------------------------------------
	BYTE	PATT
	 POIN2	KindredCry_11_017
// 051   ----------------------------------------
	BYTE	PATT
	 POIN2	KindredCry_11_018
// 052   ----------------------------------------
	BYTE	PATT
	 POIN2	KindredCry_11_019
// 053   ----------------------------------------
	BYTE	PATT
	 POIN2	KindredCry_11_020
// 054   ----------------------------------------
	BYTE	PATT
	 POIN2	KindredCry_11_021
// 055   ----------------------------------------
	BYTE	PATT
	 POIN2	KindredCry_11_022
// 056   ----------------------------------------
	BYTE	W96
	BYTE	GoTo
	 POIN2	KindredCry_11_B1
KindredCry_11_B2:
// 057   ----------------------------------------
	BYTE	FINE

//**************** Track 12 (Midi-Chn.13) ****************//

KindredCry_12:
	BYTE	KEYSH   KindredCry_key+0
// 000   ----------------------------------------
	BYTE		PAN     c_v+15
	BYTE	W12
	BYTE		VOICE   47
	BYTE	W06
	BYTE		VOL     66*KindredCry_mvl/mxv
	BYTE	W78
KindredCry_12_B1:
// 001   ----------------------------------------
	BYTE	W96
// 002   ----------------------------------------
	BYTE	W96
// 003   ----------------------------------------
	BYTE	W96
// 004   ----------------------------------------
	BYTE	W96
// 005   ----------------------------------------
	BYTE	W96
// 006   ----------------------------------------
	BYTE	W96
// 007   ----------------------------------------
	BYTE	W96
// 008   ----------------------------------------
	BYTE	W96
// 009   ----------------------------------------
	BYTE	W96
// 010   ----------------------------------------
	BYTE	W96
// 011   ----------------------------------------
	BYTE	W96
// 012   ----------------------------------------
	BYTE	W96
// 013   ----------------------------------------
	BYTE	W96
// 014   ----------------------------------------
	BYTE	W96
// 015   ----------------------------------------
	BYTE	W96
// 016   ----------------------------------------
	BYTE	W96
// 017   ----------------------------------------
	BYTE	W96
// 018   ----------------------------------------
	BYTE	W96
// 019   ----------------------------------------
	BYTE	W48
	BYTE		N24     An1   v100
	BYTE	W48
// 020   ----------------------------------------
KindredCry_12_020:
	BYTE	W24
	BYTE		N24     An1   v100
	BYTE	W24
	BYTE		N24   
	BYTE	W48
	BYTE	PEND
// 021   ----------------------------------------
	BYTE	W24
	BYTE		N24   
	BYTE	W72
// 022   ----------------------------------------
KindredCry_12_022:
	BYTE		N24     An1   v100
	BYTE	W24
	BYTE		N24   
	BYTE	W48
	BYTE		        Cn2   v112
	BYTE	W24
	BYTE	PEND
// 023   ----------------------------------------
KindredCry_12_023:
	BYTE		N24     Cs2   v112
	BYTE	W48
	BYTE		N24   
	BYTE	W48
	BYTE	PEND
// 024   ----------------------------------------
	BYTE	PATT
	 POIN2	KindredCry_12_023
// 025   ----------------------------------------
	BYTE	PATT
	 POIN2	KindredCry_12_023
// 026   ----------------------------------------
	BYTE	PATT
	 POIN2	KindredCry_12_023
// 027   ----------------------------------------
	BYTE	PATT
	 POIN2	KindredCry_12_023
// 028   ----------------------------------------
	BYTE	PATT
	 POIN2	KindredCry_12_023
// 029   ----------------------------------------
	BYTE	PATT
	 POIN2	KindredCry_12_023
// 030   ----------------------------------------
	BYTE	PATT
	 POIN2	KindredCry_12_023
// 031   ----------------------------------------
	BYTE		N12     Fs1   v100
	BYTE	W96
// 032   ----------------------------------------
	BYTE		N12   
	BYTE	W24
	BYTE		N12   
	BYTE	W24
	BYTE		        An1 
	BYTE	W48
// 033   ----------------------------------------
	BYTE	W48
	BYTE		N12   
	BYTE	W24
	BYTE		N12   
	BYTE	W24
// 034   ----------------------------------------
	BYTE		        Cn2 
	BYTE	W96
// 035   ----------------------------------------
	BYTE		N12   
	BYTE	W24
	BYTE		N12   
	BYTE	W24
	BYTE		        Ds2 
	BYTE	W48
// 036   ----------------------------------------
	BYTE	W48
	BYTE		N12   
	BYTE	W24
	BYTE		N12   
	BYTE	W24
// 037   ----------------------------------------
	BYTE		N96     Fs1   v112
	BYTE	W96
// 038   ----------------------------------------
	BYTE	W96
// 039   ----------------------------------------
	BYTE	W96
// 040   ----------------------------------------
	BYTE	W96
// 041   ----------------------------------------
	BYTE	W96
// 042   ----------------------------------------
	BYTE	W96
// 043   ----------------------------------------
	BYTE		N96   
	BYTE	W96
// 044   ----------------------------------------
	BYTE	W96
// 045   ----------------------------------------
	BYTE	W96
// 046   ----------------------------------------
	BYTE	W96
// 047   ----------------------------------------
	BYTE	W96
// 048   ----------------------------------------
	BYTE	W96
// 049   ----------------------------------------
	BYTE	W96
// 050   ----------------------------------------
	BYTE	W96
// 051   ----------------------------------------
	BYTE	W96
// 052   ----------------------------------------
	BYTE	W48
	BYTE		N24     An1   v100
	BYTE	W48
// 053   ----------------------------------------
	BYTE	PATT
	 POIN2	KindredCry_12_020
// 054   ----------------------------------------
	BYTE	W24
	BYTE		N24     An1   v100
	BYTE	W72
// 055   ----------------------------------------
	BYTE	PATT
	 POIN2	KindredCry_12_022
// 056   ----------------------------------------
	BYTE	W96
	BYTE	GoTo
	 POIN2	KindredCry_12_B1
KindredCry_12_B2:
// 057   ----------------------------------------
	BYTE	FINE

//**************** Track 13 (Midi-Chn.14) ****************//

KindredCry_13:
	BYTE	KEYSH   KindredCry_key+0
// 000   ----------------------------------------
	BYTE		VOICE   127
	BYTE		PAN     c_v+2
	BYTE		VOL     95*KindredCry_mvl/mxv
	BYTE	W96
KindredCry_13_B1:
// 001   ----------------------------------------
KindredCry_13_001:
	BYTE	W24
	BYTE		N12     As3   v100
	BYTE	W48
	BYTE		N12   
	BYTE	W24
	BYTE	PEND
// 002   ----------------------------------------
	BYTE	W48
	BYTE		N12   
	BYTE	W48
// 003   ----------------------------------------
	BYTE		N12   
	BYTE	W96
// 004   ----------------------------------------
	BYTE	W96
// 005   ----------------------------------------
	BYTE	PATT
	 POIN2	KindredCry_13_001
// 006   ----------------------------------------
	BYTE	W48
	BYTE		N12     As3   v100
	BYTE	W48
// 007   ----------------------------------------
	BYTE		N12   
	BYTE	W96
// 008   ----------------------------------------
KindredCry_13_008:
	BYTE		N12     Dn1   v088
	BYTE		N24     An2   v112
	BYTE	W12
	BYTE		N06     Dn1   v072
	BYTE	W06
	BYTE		N06   
	BYTE	W06
	BYTE		N12     Dn1   v088
	BYTE	W12
	BYTE		N06     Dn1   v072
	BYTE	W06
	BYTE		N06   
	BYTE	W06
	BYTE		N12     Dn1   v088
	BYTE	W12
	BYTE		N06     Dn1   v072
	BYTE	W06
	BYTE		N06   
	BYTE	W06
	BYTE		N12     Dn1   v088
	BYTE	W12
	BYTE		N06     Dn1   v072
	BYTE	W06
	BYTE		N06   
	BYTE	W06
	BYTE	PEND
// 009   ----------------------------------------
KindredCry_13_009:
	BYTE		N12     Dn1   v088
	BYTE		N24     An2   v112
	BYTE	W12
	BYTE		N06     Dn1   v072
	BYTE	W06
	BYTE		N06   
	BYTE	W06
	BYTE		N12     Dn1   v088
	BYTE		N12     As3   v100
	BYTE	W12
	BYTE		N06     Dn1   v072
	BYTE	W06
	BYTE		N06   
	BYTE	W06
	BYTE		N12     Dn1   v088
	BYTE	W12
	BYTE		N06     Dn1   v072
	BYTE	W06
	BYTE		N06   
	BYTE	W06
	BYTE		N12     Dn1   v088
	BYTE		N12     As3   v100
	BYTE	W12
	BYTE		N06     Dn1   v072
	BYTE	W06
	BYTE		N06   
	BYTE	W06
	BYTE	PEND
// 010   ----------------------------------------
KindredCry_13_010:
	BYTE		N12     Dn1   v088
	BYTE	W12
	BYTE		N06     Dn1   v072
	BYTE	W06
	BYTE		N06   
	BYTE	W06
	BYTE		N12     Dn1   v088
	BYTE	W12
	BYTE		N06     Dn1   v072
	BYTE	W06
	BYTE		N06   
	BYTE	W06
	BYTE		N12     Dn1   v088
	BYTE		N24     An2   v112
	BYTE		N12     As3   v100
	BYTE	W12
	BYTE		N06     Dn1   v072
	BYTE	W06
	BYTE		N06   
	BYTE	W06
	BYTE		N12     Dn1   v088
	BYTE	W12
	BYTE		N06     Dn1   v072
	BYTE	W06
	BYTE		N06   
	BYTE	W06
	BYTE	PEND
// 011   ----------------------------------------
KindredCry_13_011:
	BYTE		N12     Dn1   v088
	BYTE		N24     An2   v112
	BYTE		N12     As3   v100
	BYTE	W12
	BYTE		N06     Dn1   v072
	BYTE	W06
	BYTE		N06   
	BYTE	W06
	BYTE		N12     Dn1   v088
	BYTE	W12
	BYTE		N06     Dn1   v072
	BYTE	W06
	BYTE		N06   
	BYTE	W06
	BYTE		N12     Dn1   v088
	BYTE	W12
	BYTE		N06     Dn1   v072
	BYTE	W06
	BYTE		N06   
	BYTE	W06
	BYTE		N03     Dn1   v088
	BYTE	W03
	BYTE		N03   
	BYTE	W03
	BYTE		N03   
	BYTE	W03
	BYTE		N03   
	BYTE	W03
	BYTE		N06     Dn1   v072
	BYTE	W06
	BYTE		N06   
	BYTE	W06
	BYTE	PEND
// 012   ----------------------------------------
	BYTE	PATT
	 POIN2	KindredCry_13_008
// 013   ----------------------------------------
	BYTE	PATT
	 POIN2	KindredCry_13_009
// 014   ----------------------------------------
	BYTE	PATT
	 POIN2	KindredCry_13_010
// 015   ----------------------------------------
	BYTE	PATT
	 POIN2	KindredCry_13_011
// 016   ----------------------------------------
	BYTE	W96
// 017   ----------------------------------------
	BYTE	W96
// 018   ----------------------------------------
	BYTE	W96
// 019   ----------------------------------------
	BYTE	W96
// 020   ----------------------------------------
	BYTE	W96
// 021   ----------------------------------------
	BYTE	W96
// 022   ----------------------------------------
KindredCry_13_022:
	BYTE	W48
	BYTE		N12     Dn1   v088
	BYTE	W12
	BYTE		N12   
	BYTE	W12
	BYTE		N12   
	BYTE	W24
	BYTE	PEND
// 023   ----------------------------------------
	BYTE	PATT
	 POIN2	KindredCry_13_008
// 024   ----------------------------------------
KindredCry_13_024:
	BYTE		N12     Dn1   v088
	BYTE	W12
	BYTE		N06     Dn1   v072
	BYTE	W06
	BYTE		N06   
	BYTE	W06
	BYTE		N12     Dn1   v088
	BYTE	W12
	BYTE		N06     Dn1   v072
	BYTE	W06
	BYTE		N06   
	BYTE	W06
	BYTE		N12     Dn1   v088
	BYTE	W12
	BYTE		N06     Dn1   v072
	BYTE	W06
	BYTE		N06   
	BYTE	W06
	BYTE		N12     Dn1   v088
	BYTE	W12
	BYTE		N06     Dn1   v072
	BYTE	W06
	BYTE		N06   
	BYTE	W06
	BYTE	PEND
// 025   ----------------------------------------
	BYTE	PATT
	 POIN2	KindredCry_13_024
// 026   ----------------------------------------
KindredCry_13_026:
	BYTE		N12     Dn1   v088
	BYTE	W12
	BYTE		N06     Dn1   v072
	BYTE	W06
	BYTE		N06   
	BYTE	W06
	BYTE		N12     Dn1   v088
	BYTE	W12
	BYTE		N06     Dn1   v072
	BYTE	W06
	BYTE		N06   
	BYTE	W06
	BYTE		N12     Dn1   v088
	BYTE	W12
	BYTE		N06     Dn1   v072
	BYTE	W06
	BYTE		N06   
	BYTE	W06
	BYTE		N03     Dn1   v088
	BYTE	W03
	BYTE		N03   
	BYTE	W03
	BYTE		N03   
	BYTE	W03
	BYTE		N03   
	BYTE	W03
	BYTE		N06     Dn1   v072
	BYTE	W06
	BYTE		N06   
	BYTE	W06
	BYTE	PEND
// 027   ----------------------------------------
	BYTE	PATT
	 POIN2	KindredCry_13_008
// 028   ----------------------------------------
	BYTE	PATT
	 POIN2	KindredCry_13_024
// 029   ----------------------------------------
	BYTE	PATT
	 POIN2	KindredCry_13_024
// 030   ----------------------------------------
	BYTE	PATT
	 POIN2	KindredCry_13_026
// 031   ----------------------------------------
	BYTE	W96
// 032   ----------------------------------------
	BYTE	W96
// 033   ----------------------------------------
	BYTE	W96
// 034   ----------------------------------------
	BYTE	W96
// 035   ----------------------------------------
	BYTE	W96
// 036   ----------------------------------------
	BYTE	W96
// 037   ----------------------------------------
KindredCry_13_037:
	BYTE		N12     Dn1   v088
	BYTE		N24     An2   v112
	BYTE	W24
	BYTE		N06     Dn1   v072
	BYTE	W06
	BYTE		N06   
	BYTE	W06
	BYTE		N06   
	BYTE	W06
	BYTE		N06   
	BYTE	W06
	BYTE		N12     Dn1   v088
	BYTE	W48
	BYTE	PEND
// 038   ----------------------------------------
KindredCry_13_038:
	BYTE	W24
	BYTE		N06     Dn1   v072
	BYTE	W06
	BYTE		N06   
	BYTE	W06
	BYTE		N06   
	BYTE	W06
	BYTE		N06   
	BYTE	W06
	BYTE		N12     Dn1   v088
	BYTE	W24
	BYTE		N06     Dn1   v072
	BYTE	W06
	BYTE		N06   
	BYTE	W06
	BYTE		N06   
	BYTE	W06
	BYTE		N06   
	BYTE	W06
	BYTE	PEND
// 039   ----------------------------------------
KindredCry_13_039:
	BYTE		N12     Dn1   v088
	BYTE	W72
	BYTE		N06     Dn1   v072
	BYTE	W06
	BYTE		N06   
	BYTE	W06
	BYTE		N06   
	BYTE	W06
	BYTE		N06   
	BYTE	W06
	BYTE	PEND
// 040   ----------------------------------------
KindredCry_13_040:
	BYTE		N12     Dn1   v088
	BYTE	W24
	BYTE		N06     Dn1   v072
	BYTE	W06
	BYTE		N06   
	BYTE	W06
	BYTE		N06   
	BYTE	W06
	BYTE		N06   
	BYTE	W06
	BYTE		N12     Dn1   v088
	BYTE	W48
	BYTE	PEND
// 041   ----------------------------------------
	BYTE	PATT
	 POIN2	KindredCry_13_038
// 042   ----------------------------------------
	BYTE	PATT
	 POIN2	KindredCry_13_039
// 043   ----------------------------------------
	BYTE	PATT
	 POIN2	KindredCry_13_037
// 044   ----------------------------------------
	BYTE	PATT
	 POIN2	KindredCry_13_038
// 045   ----------------------------------------
	BYTE	PATT
	 POIN2	KindredCry_13_039
// 046   ----------------------------------------
	BYTE	PATT
	 POIN2	KindredCry_13_040
// 047   ----------------------------------------
	BYTE	PATT
	 POIN2	KindredCry_13_038
// 048   ----------------------------------------
	BYTE	PATT
	 POIN2	KindredCry_13_039
// 049   ----------------------------------------
	BYTE	W96
// 050   ----------------------------------------
	BYTE	W96
// 051   ----------------------------------------
	BYTE	W96
// 052   ----------------------------------------
	BYTE	W96
// 053   ----------------------------------------
	BYTE	W96
// 054   ----------------------------------------
	BYTE	W96
// 055   ----------------------------------------
	BYTE	PATT
	 POIN2	KindredCry_13_022
// 056   ----------------------------------------
	BYTE	W96
	BYTE	GoTo
	 POIN2	KindredCry_13_B1
KindredCry_13_B2:
// 057   ----------------------------------------
	BYTE	FINE

//**************** Track 14 (Midi-Chn.15) ****************//

KindredCry_14:
	BYTE	KEYSH   KindredCry_key+0
// 000   ----------------------------------------
	BYTE		VOICE   49
	BYTE		PAN     c_v+29
	BYTE		VOL     50*KindredCry_mvl/mxv
	BYTE		N12     En2   v112
	BYTE	W24
	BYTE		N12   
	BYTE	W24
	BYTE		N12   
	BYTE	W24
	BYTE		N12   
	BYTE	W24
KindredCry_14_B1:
// 001   ----------------------------------------
KindredCry_14_001:
	BYTE		N12     En2   v112
	BYTE	W24
	BYTE		N09     Dn2 
	BYTE	W12
	BYTE		        En2 
	BYTE	W12
	BYTE		        Fn2 
	BYTE	W12
	BYTE		        En2 
	BYTE	W12
	BYTE		        Gn2 
	BYTE	W12
	BYTE		        Fn2 
	BYTE	W12
	BYTE	PEND
// 002   ----------------------------------------
KindredCry_14_002:
	BYTE		N12     En2   v112
	BYTE	W24
	BYTE		N12   
	BYTE	W24
	BYTE		N12   
	BYTE	W24
	BYTE		        Dn2 
	BYTE	W12
	BYTE		        En2 
	BYTE	W12
	BYTE	PEND
// 003   ----------------------------------------
KindredCry_14_003:
	BYTE		N12     Fn2   v112
	BYTE	W24
	BYTE		N09     Gn2 
	BYTE	W12
	BYTE		        Gs2 
	BYTE	W12
	BYTE		        As2 
	BYTE	W12
	BYTE		        Cn3 
	BYTE	W12
	BYTE		        Dn3 
	BYTE	W24
	BYTE	PEND
// 004   ----------------------------------------
KindredCry_14_004:
	BYTE		N12     En2   v112
	BYTE	W24
	BYTE		N12   
	BYTE	W24
	BYTE		N12   
	BYTE	W24
	BYTE		N12   
	BYTE	W24
	BYTE	PEND
// 005   ----------------------------------------
	BYTE	PATT
	 POIN2	KindredCry_14_001
// 006   ----------------------------------------
	BYTE	PATT
	 POIN2	KindredCry_14_002
// 007   ----------------------------------------
	BYTE	PATT
	 POIN2	KindredCry_14_003
// 008   ----------------------------------------
	BYTE	PATT
	 POIN2	KindredCry_14_004
// 009   ----------------------------------------
KindredCry_14_009:
	BYTE		N12     En2   v112
	BYTE	W24
	BYTE		N10     Ds2 
	BYTE	W12
	BYTE		N09     En2 
	BYTE	W12
	BYTE		        Fn2 
	BYTE	W12
	BYTE		        En2 
	BYTE	W12
	BYTE		        Gn2 
	BYTE	W12
	BYTE		        Fn2 
	BYTE	W12
	BYTE	PEND
// 010   ----------------------------------------
KindredCry_14_010:
	BYTE		N12     En2   v112
	BYTE	W24
	BYTE		N12   
	BYTE	W24
	BYTE		N12   
	BYTE	W24
	BYTE		N10     Ds2 
	BYTE	W12
	BYTE		N12     En2 
	BYTE	W12
	BYTE	PEND
// 011   ----------------------------------------
	BYTE	PATT
	 POIN2	KindredCry_14_003
// 012   ----------------------------------------
	BYTE	PATT
	 POIN2	KindredCry_14_004
// 013   ----------------------------------------
	BYTE	PATT
	 POIN2	KindredCry_14_009
// 014   ----------------------------------------
	BYTE	PATT
	 POIN2	KindredCry_14_010
// 015   ----------------------------------------
	BYTE	PATT
	 POIN2	KindredCry_14_003
// 016   ----------------------------------------
KindredCry_14_016:
	BYTE		N12     An2   v100
	BYTE	W72
	BYTE		N12   
	BYTE	W24
	BYTE	PEND
// 017   ----------------------------------------
KindredCry_14_017:
	BYTE		N12     An2   v100
	BYTE	W48
	BYTE		N12   
	BYTE	W24
	BYTE		N12   
	BYTE	W24
	BYTE	PEND
// 018   ----------------------------------------
KindredCry_14_018:
	BYTE	W48
	BYTE		N12     An2   v100
	BYTE	W24
	BYTE		N12   
	BYTE	W24
	BYTE	PEND
// 019   ----------------------------------------
	BYTE	W48
	BYTE		N12   
	BYTE	W48
// 020   ----------------------------------------
KindredCry_14_020:
	BYTE	W24
	BYTE		N12     An2   v100
	BYTE	W24
	BYTE		N12   
	BYTE	W48
	BYTE	PEND
// 021   ----------------------------------------
KindredCry_14_021:
	BYTE		N12     An2   v100
	BYTE	W24
	BYTE		N12   
	BYTE	W72
	BYTE	PEND
// 022   ----------------------------------------
KindredCry_14_022:
	BYTE		N12     An2   v108
	BYTE	W24
	BYTE		N12   
	BYTE	W48
	BYTE		        Cn3 
	BYTE	W24
	BYTE	PEND
// 023   ----------------------------------------
KindredCry_14_023:
	BYTE		N12     Cs3   v112
	BYTE	W48
	BYTE		N12   
	BYTE	W48
	BYTE	PEND
// 024   ----------------------------------------
	BYTE	PATT
	 POIN2	KindredCry_14_023
// 025   ----------------------------------------
	BYTE	PATT
	 POIN2	KindredCry_14_023
// 026   ----------------------------------------
	BYTE	PATT
	 POIN2	KindredCry_14_023
// 027   ----------------------------------------
	BYTE	PATT
	 POIN2	KindredCry_14_023
// 028   ----------------------------------------
	BYTE	PATT
	 POIN2	KindredCry_14_023
// 029   ----------------------------------------
	BYTE	PATT
	 POIN2	KindredCry_14_023
// 030   ----------------------------------------
	BYTE	PATT
	 POIN2	KindredCry_14_023
// 031   ----------------------------------------
	BYTE		N12     Fs2   v112
	BYTE	W96
// 032   ----------------------------------------
	BYTE		N12   
	BYTE	W24
	BYTE		N12   
	BYTE	W24
	BYTE		        An2 
	BYTE	W48
// 033   ----------------------------------------
	BYTE	W48
	BYTE		N12   
	BYTE	W24
	BYTE		N12   
	BYTE	W24
// 034   ----------------------------------------
	BYTE		        Cn3 
	BYTE	W96
// 035   ----------------------------------------
	BYTE		N12   
	BYTE	W24
	BYTE		N12   
	BYTE	W24
	BYTE		        Ds3 
	BYTE	W48
// 036   ----------------------------------------
	BYTE	W48
	BYTE		N12   
	BYTE	W24
	BYTE		N12   
	BYTE	W24
// 037   ----------------------------------------
KindredCry_14_037:
	BYTE		N72     Fs2   v112
	BYTE	W72
	BYTE		N48     As2 
	BYTE	W24
	BYTE	PEND
// 038   ----------------------------------------
KindredCry_14_038:
	BYTE	W24
	BYTE		N24     Cs3   v112
	BYTE	W24
	BYTE		N96     Dn3 
	BYTE	W48
	BYTE	PEND
// 039   ----------------------------------------
	BYTE	W48
	BYTE		N48     En3 
	BYTE	W48
// 040   ----------------------------------------
	BYTE		N96     Cs3 
	BYTE	W96
// 041   ----------------------------------------
KindredCry_14_041:
	BYTE		N48     As2   v112
	BYTE	W48
	BYTE		TIE     Dn3 
	BYTE	W48
	BYTE	PEND
// 042   ----------------------------------------
	BYTE	W96
	BYTE		EOT   
// 043   ----------------------------------------
	BYTE	PATT
	 POIN2	KindredCry_14_037
// 044   ----------------------------------------
	BYTE	PATT
	 POIN2	KindredCry_14_038
// 045   ----------------------------------------
	BYTE	W48
	BYTE		N24     Fs3   v112
	BYTE	W24
	BYTE		        Fn3 
	BYTE	W24
// 046   ----------------------------------------
	BYTE		N96     Cs3 
	BYTE	W96
// 047   ----------------------------------------
	BYTE	PATT
	 POIN2	KindredCry_14_041
// 048   ----------------------------------------
	BYTE	W96
	BYTE		EOT     Dn3 
// 049   ----------------------------------------
	BYTE	PATT
	 POIN2	KindredCry_14_016
// 050   ----------------------------------------
	BYTE	PATT
	 POIN2	KindredCry_14_017
// 051   ----------------------------------------
	BYTE	PATT
	 POIN2	KindredCry_14_018
// 052   ----------------------------------------
	BYTE	W48
	BYTE		N12     An2   v100
	BYTE	W48
// 053   ----------------------------------------
	BYTE	PATT
	 POIN2	KindredCry_14_020
// 054   ----------------------------------------
	BYTE	PATT
	 POIN2	KindredCry_14_021
// 055   ----------------------------------------
	BYTE	PATT
	 POIN2	KindredCry_14_022
// 056   ----------------------------------------
	BYTE	PATT
	 POIN2	KindredCry_14_004
	BYTE	GoTo
	 POIN2	KindredCry_14_B1
KindredCry_14_B2:
// 057   ----------------------------------------
	BYTE	FINE

//**************** Track 15 (Midi-Chn.16) ****************//

KindredCry_15:
	BYTE	KEYSH   KindredCry_key+0
// 000   ----------------------------------------
	BYTE		PAN     c_v+7
	BYTE	W18
	BYTE		VOL     56*KindredCry_mvl/mxv
	BYTE	W30
	BYTE		VOICE   48
	BYTE	W48
KindredCry_15_B1:
// 001   ----------------------------------------
	BYTE	W96
// 002   ----------------------------------------
	BYTE	W96
// 003   ----------------------------------------
	BYTE	W96
// 004   ----------------------------------------
	BYTE	W96
// 005   ----------------------------------------
	BYTE	W96
// 006   ----------------------------------------
	BYTE	W96
// 007   ----------------------------------------
	BYTE	W96
// 008   ----------------------------------------
	BYTE	W96
// 009   ----------------------------------------
	BYTE	W96
// 010   ----------------------------------------
	BYTE	W96
// 011   ----------------------------------------
	BYTE	W96
// 012   ----------------------------------------
	BYTE	W96
// 013   ----------------------------------------
	BYTE	W96
// 014   ----------------------------------------
	BYTE	W96
// 015   ----------------------------------------
	BYTE	W96
// 016   ----------------------------------------
	BYTE	W96
// 017   ----------------------------------------
	BYTE	W96
// 018   ----------------------------------------
	BYTE	W96
// 019   ----------------------------------------
	BYTE	W96
// 020   ----------------------------------------
	BYTE	W96
// 021   ----------------------------------------
	BYTE	W96
// 022   ----------------------------------------
KindredCry_15_022:
	BYTE		N06     An3   v120
	BYTE	W12
	BYTE		        Gs3 
	BYTE	W12
	BYTE		        An3 
	BYTE	W12
	BYTE		        Bn3 
	BYTE	W12
	BYTE		        Cn4 
	BYTE	W12
	BYTE		        Dn4 
	BYTE	W12
	BYTE		N24     Ds4 
	BYTE	W24
	BYTE	PEND
// 023   ----------------------------------------
	BYTE	W96
// 024   ----------------------------------------
	BYTE	W96
// 025   ----------------------------------------
	BYTE		VOICE   56
	BYTE	W24
	BYTE		N08     Cs5 
	BYTE	W08
	BYTE		        Gs4 
	BYTE	W08
	BYTE		        Cs4 
	BYTE	W08
	BYTE		N12     Gs3 
	BYTE	W48
// 026   ----------------------------------------
	BYTE		N08     Gs4 
	BYTE	W08
	BYTE		        En4 
	BYTE	W08
	BYTE		        Bn3 
	BYTE	W08
	BYTE		N12     Fn3 
	BYTE	W72
// 027   ----------------------------------------
	BYTE		VOICE   48
	BYTE	W96
// 028   ----------------------------------------
	BYTE	W96
// 029   ----------------------------------------
	BYTE	W96
// 030   ----------------------------------------
	BYTE	W96
// 031   ----------------------------------------
	BYTE	W96
// 032   ----------------------------------------
	BYTE	W96
// 033   ----------------------------------------
	BYTE	W96
// 034   ----------------------------------------
	BYTE	W96
// 035   ----------------------------------------
	BYTE	W96
// 036   ----------------------------------------
	BYTE	W96
// 037   ----------------------------------------
	BYTE		        12
	BYTE	W48
	BYTE		N12     Fs3   v112
	BYTE	W12
	BYTE		N12   
	BYTE	W36
// 038   ----------------------------------------
KindredCry_15_038:
	BYTE	W48
	BYTE		N12     Fs4   v112
	BYTE	W12
	BYTE		N12   
	BYTE	W36
	BYTE	PEND
// 039   ----------------------------------------
KindredCry_15_039:
	BYTE		N12     Fs3   v112
	BYTE	W12
	BYTE		N12   
	BYTE	W84
	BYTE	PEND
// 040   ----------------------------------------
KindredCry_15_040:
	BYTE	W48
	BYTE		N12     Fs3   v112
	BYTE	W12
	BYTE		N12   
	BYTE	W36
	BYTE	PEND
// 041   ----------------------------------------
	BYTE	PATT
	 POIN2	KindredCry_15_038
// 042   ----------------------------------------
	BYTE	PATT
	 POIN2	KindredCry_15_039
// 043   ----------------------------------------
	BYTE	PATT
	 POIN2	KindredCry_15_040
// 044   ----------------------------------------
	BYTE	PATT
	 POIN2	KindredCry_15_038
// 045   ----------------------------------------
	BYTE	PATT
	 POIN2	KindredCry_15_039
// 046   ----------------------------------------
	BYTE	PATT
	 POIN2	KindredCry_15_040
// 047   ----------------------------------------
	BYTE	PATT
	 POIN2	KindredCry_15_038
// 048   ----------------------------------------
	BYTE	PATT
	 POIN2	KindredCry_15_039
// 049   ----------------------------------------
	BYTE	W96
// 050   ----------------------------------------
	BYTE	W96
// 051   ----------------------------------------
	BYTE	W96
// 052   ----------------------------------------
	BYTE	W96
// 053   ----------------------------------------
	BYTE	W96
// 054   ----------------------------------------
	BYTE	W24
	BYTE		VOICE   48
	BYTE	W72
// 055   ----------------------------------------
	BYTE	PATT
	 POIN2	KindredCry_15_022
// 056   ----------------------------------------
	BYTE	W96
	BYTE	GoTo
	 POIN2	KindredCry_15_B1
KindredCry_15_B2:
// 057   ----------------------------------------
	BYTE	FINE

//******************************************************//
	ALIGN 4

KindredCry:
	BYTE	15	// NumTrks
	BYTE	0	// NumBlks
	BYTE	KindredCry_pri	// Priority
	BYTE	KindredCry_rev	// Reverb.

	POIN2	KindredCry_grp

	POIN2	KindredCry_1
	POIN2	KindredCry_2
	POIN2	KindredCry_3
	POIN2	KindredCry_4
	POIN2	KindredCry_5
	POIN2	KindredCry_6
	POIN2	KindredCry_7
	POIN2	KindredCry_8
	POIN2	KindredCry_9
	POIN2	KindredCry_10
	POIN2	KindredCry_11
	POIN2	KindredCry_12
	POIN2	KindredCry_13
	POIN2	KindredCry_14
	POIN2	KindredCry_15

	
