//Event file generated from Sappy .s format.
	#include "MPlayDef.event"

	#define	KitchenAce_grp  voicegroup000
	#define	KitchenAce_pri  0
	#define	KitchenAce_rev  0
	#define	KitchenAce_mvl  127
	#define	KitchenAce_key  0
	#define	KitchenAce_tbs  1
	#define	KitchenAce_exg  0
	#define	KitchenAce_cmp  1

	// .rodata
	//	KitchenAce
	ALIGN 4


//**************** Track 1 (Midi-Chn.0) ****************//

KitchenAce_001:
// 000   ----------------------------------------
 BYTE   KEYSH   KitchenAce_key+0
Label_0_0118578A:
 BYTE   TEMPO   60*KitchenAce_tbs/2
 BYTE   VOICE   34
 BYTE   VOL   62*KitchenAce_mvl/mxv
 BYTE   PAN   c_v+0
 BYTE   N19  Fs0  v108
 BYTE   W19
 BYTE   N04  En0  v100
 BYTE   W08
 BYTE   N03  En0  v104
 BYTE   W04
 BYTE   N20  Fs0  v112
 BYTE   W20
 BYTE   N03  En0  v104
 BYTE   W09
 BYTE   En0  v100
 BYTE   W03
 BYTE   N20  Fs0  v108
 BYTE   W21
 BYTE   N03  En0  v100
 BYTE   W07
 BYTE   N04
 BYTE   W05
// 001   ----------------------------------------
 BYTE   N07  Fs0  v112
 BYTE   W07
 BYTE   N08  Gn0  v108
 BYTE   W08
 BYTE   Fs0  v112
 BYTE   W09
 BYTE   N07  En0  v104
 BYTE   W07
 BYTE   N20  Fs0  v116
 BYTE   W20
 BYTE   N03  En0  v104
 BYTE   W09
 BYTE   En0  v100
 BYTE   W03
 BYTE   N20  Fs0  v104
 BYTE   W21
 BYTE   N03  En0  v108
 BYTE   W07
 BYTE   N04  En0  v096
 BYTE   W05
// 002   ----------------------------------------
 BYTE   N19  Fs0  v112
 BYTE   W19
 BYTE   N04  En0  v104
 BYTE   W08
 BYTE   N03  En0  v100
 BYTE   W04
 BYTE   N08  Fs0  v108
 BYTE   W08
 BYTE   Gn0  v100
 BYTE   W09
 BYTE   N07  Fs0  v104
 BYTE   W07
 BYTE   N08  En0  v100
 BYTE   W08
 BYTE   N20  Fs0  v108
 BYTE   W21
 BYTE   N03  En0
 BYTE   W07
 BYTE   N04  En0  v104
 BYTE   W05
// 003   ----------------------------------------
 BYTE   N19  Fs0
 BYTE   W19
 BYTE   N04  En0
 BYTE   W08
 BYTE   N03
 BYTE   W04
 BYTE   N20  Fs0  v108
 BYTE   W20
 BYTE   N03  En0
 BYTE   W09
 BYTE   En0  v100
 BYTE   W03
 BYTE   N08  Fs0  v108
 BYTE   W09
 BYTE   N07  Gn0
 BYTE   W07
 BYTE   N08  Fs0
 BYTE   W08
 BYTE   En0  v104
 BYTE   W09
// 004   ----------------------------------------
 BYTE   N19  Fs0
 BYTE   W19
 BYTE   N04  En0
 BYTE   W08
 BYTE   N03  En0  v100
 BYTE   W04
 BYTE   N20  Fs0  v112
 BYTE   W20
 BYTE   N03  En0  v104
 BYTE   W09
 BYTE   En0  v100
 BYTE   W03
 BYTE   N20  Fs0  v108
 BYTE   W21
 BYTE   N03  En0  v100
 BYTE   W07
 BYTE   N04  En0  v096
 BYTE   W05
// 005   ----------------------------------------
 BYTE   N12  Fs0  v116
 BYTE   W04
 BYTE   BEND   c_v-4
 BYTE   W01
 BYTE   En2
 BYTE   W01
 BYTE   Fn1
 BYTE   W01
 BYTE   Gs0
 BYTE   W01
 BYTE   CnM1
 BYTE   W01
 BYTE   DsM2
 BYTE   W01
 BYTE   CnM2
 BYTE   W05
 BYTE   En3
 BYTE   W16
 BYTE   N01  Fs0  v108
 BYTE   W05
 BYTE   N03  Fs0  v104
 BYTE   W03
 BYTE   N04  En0  v108
 BYTE   W12
 BYTE   N03  Fs0  v112
 BYTE   W09
 BYTE   N02  Fs0  v108
 BYTE   W03
 BYTE   N04  En0  v104
 BYTE   W12
 BYTE   N02
 BYTE   W04
 BYTE   Fs0
 BYTE   W05
 BYTE   Fs0  v108
 BYTE   W03
 BYTE   N03  En0  v100
 BYTE   W09
// 006   ----------------------------------------
 BYTE   N01  Fs0  v104
 BYTE   W03
 BYTE   N02  Fs0  v108
 BYTE   W04
 BYTE   N03  En0  v104
 BYTE   W12
 BYTE   N02  Fs0
 BYTE   W08
 BYTE   N02
 BYTE   W04
 BYTE   N04  En0  v100
 BYTE   W12
 BYTE   N02
 BYTE   W05
 BYTE   Gs0  v112
 BYTE   W03
 BYTE   Gs0  v100
 BYTE   W04
 BYTE   N03  En0
 BYTE   W08
 BYTE   N01  Fs0  v108
 BYTE   W04
 BYTE   N02  Fs0  v104
 BYTE   W05
 BYTE   N03  En0  v100
 BYTE   W12
 BYTE   Fs0  v108
 BYTE   W07
 BYTE   N02  Fs0  v104
 BYTE   W05
// 007   ----------------------------------------
 BYTE   N03  En0
 BYTE   W12
 BYTE   N02  En0  v108
 BYTE   W03
 BYTE   Fs0  v116
 BYTE   W04
 BYTE   Fs0  v112
 BYTE   W05
 BYTE   N03  En0  v104
 BYTE   W07
 BYTE   N01  Fs0
 BYTE   W05
 BYTE   N02
 BYTE   W03
 BYTE   N03  En0
 BYTE   W12
 BYTE   Fs0  v112
 BYTE   W09
 BYTE   N02
 BYTE   W15
 BYTE   En0  v104
 BYTE   W04
 BYTE   Gs0  v108
 BYTE   W05
 BYTE   N02
 BYTE   W03
 BYTE   N03  En0  v104
 BYTE   W09
// 008   ----------------------------------------
 BYTE   N02  Fs0
 BYTE   W03
 BYTE   Fs0  v100
 BYTE   W04
 BYTE   N04  En0  v104
 BYTE   W12
 BYTE   N03  Fs0
 BYTE   W08
 BYTE   N03
 BYTE   W04
 BYTE   N04  En0  v100
 BYTE   W12
 BYTE   N02
 BYTE   W05
 BYTE   N01  Fs0  v108
 BYTE   W03
 BYTE   N02  Fs0  v104
 BYTE   W04
 BYTE   N03  En0
 BYTE   W08
 BYTE   N02  Fs0  v108
 BYTE   W04
 BYTE   Fs0  v104
 BYTE   W05
 BYTE   N04  En0
 BYTE   W12
 BYTE   N02  Fs0  v112
 BYTE   W07
 BYTE   Fs0  v108
 BYTE   W05
// 009   ----------------------------------------
 BYTE   N04  En0  v104
 BYTE   W12
 BYTE   N02  En0  v100
 BYTE   W03
 BYTE   Gs0  v108
 BYTE   W04
 BYTE   Gs0  v104
 BYTE   W05
 BYTE   N03  En0
 BYTE   W07
 BYTE   N02  Fs0  v108
 BYTE   W05
 BYTE   Fs0  v100
 BYTE   W03
 BYTE   N03  En0  v104
 BYTE   W12
 BYTE   N02  Fs0  v112
 BYTE   W09
 BYTE   Fs0  v100
 BYTE   W03
 BYTE   N03  En0  v104
 BYTE   W12
 BYTE   N02
 BYTE   W04
 BYTE   Fs0  v112
 BYTE   W05
 BYTE   Fs0  v108
 BYTE   W03
 BYTE   N03  En0  v104
 BYTE   W09
// 010   ----------------------------------------
 BYTE   N01  Fs0  v112
 BYTE   W03
 BYTE   N02  Fs0  v100
 BYTE   W04
 BYTE   N04  En0  v104
 BYTE   W12
 BYTE   N03  Gs0  v108
 BYTE   W08
 BYTE   N02  En0  v100
 BYTE   W04
 BYTE   N03  Fs0  v112
 BYTE   W32
 BYTE   N02  Bn0  v116
 BYTE   W04
 BYTE   Bn0  v104
 BYTE   W05
 BYTE   An0  v108
 BYTE   W12
 BYTE   Bn0  v112
 BYTE   W07
 BYTE   An0  v104
 BYTE   W05
// 011   ----------------------------------------
 BYTE   Bn0  v108
 BYTE   W03
 BYTE   Bn0  v104
 BYTE   W04
 BYTE   N03  An0  v112
 BYTE   W12
 BYTE   Bn0
 BYTE   W08
 BYTE   N02  An0  v104
 BYTE   W04
 BYTE   Bn0
 BYTE   W05
 BYTE   Bn0  v108
 BYTE   W03
 BYTE   An0  v112
 BYTE   W12
 BYTE   Bn0
 BYTE   W09
 BYTE   An0  v108
 BYTE   W03
 BYTE   N07  Bn0  v112
 BYTE   W09
 BYTE   N08  An0  v104
 BYTE   W07
 BYTE   N07  Cs1  v112
 BYTE   W08
 BYTE   An0  v104
 BYTE   W09
// 012   ----------------------------------------
 BYTE   N02  Bn0
 BYTE   W03
 BYTE   N02
 BYTE   W04
 BYTE   N03  An0  v108
 BYTE   W12
 BYTE   N02  Bn0  v112
 BYTE   W08
 BYTE   An0  v104
 BYTE   W04
 BYTE   Bn0  v112
 BYTE   W05
 BYTE   Bn0  v104
 BYTE   W03
 BYTE   An0  v112
 BYTE   W12
 BYTE   Bn0  v108
 BYTE   W09
 BYTE   An0  v104
 BYTE   W03
 BYTE   Bn0  v108
 BYTE   W04
 BYTE   Bn0  v112
 BYTE   W05
 BYTE   An0
 BYTE   W12
 BYTE   N03  Bn0  v116
 BYTE   W07
 BYTE   N02  An0  v104
 BYTE   W05
// 013   ----------------------------------------
 BYTE   N07  Bn0  v112
 BYTE   W07
 BYTE   An0  v104
 BYTE   W08
 BYTE   Bn0  v112
 BYTE   W09
 BYTE   An0  v108
 BYTE   W07
 BYTE   N01  Fs0  v100
 BYTE   W05
 BYTE   N02  Fs0  v104
 BYTE   W03
 BYTE   N03  En0
 BYTE   W12
 BYTE   N02  Fs0  v100
 BYTE   W09
 BYTE   Fs0  v104
 BYTE   W03
 BYTE   N03  En0  v108
 BYTE   W12
 BYTE   N02  En0  v100
 BYTE   W04
 BYTE   Fs0  v108
 BYTE   W05
 BYTE   Fs0  v104
 BYTE   W03
 BYTE   N03  En0
 BYTE   W09
// 014   ----------------------------------------
 BYTE   N01  Fs0
 BYTE   W03
 BYTE   N02
 BYTE   W04
 BYTE   N03  En0  v100
 BYTE   W12
 BYTE   N02  Fs0  v108
 BYTE   W08
 BYTE   Fs0  v104
 BYTE   W04
 BYTE   N03  En0
 BYTE   W12
 BYTE   N02
 BYTE   W05
 BYTE   N01  Gs0  v112
 BYTE   W03
 BYTE   N02  Gs0  v108
 BYTE   W04
 BYTE   N03  En0
 BYTE   W08
 BYTE   N02  Fs0  v104
 BYTE   W04
 BYTE   Fs0  v108
 BYTE   W05
 BYTE   N03  En0
 BYTE   W12
 BYTE   N02  Fs0
 BYTE   W07
 BYTE   Fs0  v104
 BYTE   W05
// 015   ----------------------------------------
 BYTE   N03  En0  v108
 BYTE   W12
 BYTE   N02
 BYTE   W03
 BYTE   N01  Fs0
 BYTE   W04
 BYTE   N02
 BYTE   W05
 BYTE   En0  v104
 BYTE   W07
 BYTE   Fs0  v108
 BYTE   W05
 BYTE   Fs0  v104
 BYTE   W03
 BYTE   N03  En0
 BYTE   W12
 BYTE   Gs0  v108
 BYTE   W09
 BYTE   N02  En0
 BYTE   W03
 BYTE   Fs0  v116
 BYTE   W32
 BYTE   W01
// 016   ----------------------------------------
 BYTE   N01  En1  v104
 BYTE   W03
 BYTE   N02  En1  v100
 BYTE   W04
 BYTE   Dn1  v112
 BYTE   W12
 BYTE   En1  v104
 BYTE   W08
 BYTE   N02
 BYTE   W04
 BYTE   N03  Dn1  v108
 BYTE   W12
 BYTE   N02  Dn1  v100
 BYTE   W05
 BYTE   N01  Fs1  v108
 BYTE   W03
 BYTE   N02
 BYTE   W04
 BYTE   N03  Dn1  v104
 BYTE   W08
 BYTE   N02  Gs0  v108
 BYTE   W04
 BYTE   N02
 BYTE   W05
 BYTE   Fs0
 BYTE   W12
 BYTE   N01  Gs0
 BYTE   W07
 BYTE   N02  Gs0  v104
 BYTE   W05
// 017   ----------------------------------------
 BYTE   Fs0
 BYTE   W12
 BYTE   Fs0  v108
 BYTE   W03
 BYTE   N01  As0  v104
 BYTE   W04
 BYTE   N02
 BYTE   W05
 BYTE   Fs0
 BYTE   W07
 BYTE   N01  En1  v100
 BYTE   W05
 BYTE   En1  v104
 BYTE   W03
 BYTE   N02  Dn1
 BYTE   W12
 BYTE   En1  v100
 BYTE   W09
 BYTE   N01
 BYTE   W03
 BYTE   N03  Dn1  v108
 BYTE   W12
 BYTE   N02  Dn1  v104
 BYTE   W04
 BYTE   N01  Fs1
 BYTE   W05
 BYTE   N02  Fs1  v108
 BYTE   W03
 BYTE   Dn1  v112
 BYTE   W09
// 018   ----------------------------------------
 BYTE   N01  Gs0  v108
 BYTE   W03
 BYTE   N02  Gs0  v100
 BYTE   W04
 BYTE   N03  Fs0  v116
 BYTE   W12
 BYTE   N02  Gs0  v108
 BYTE   W08
 BYTE   Fs0  v104
 BYTE   W04
 BYTE   As0  v116
 BYTE   W32
 BYTE   N01  En1  v104
 BYTE   W04
 BYTE   N02  En1  v096
 BYTE   W05
 BYTE   Dn1  v108
 BYTE   W12
 BYTE   En1  v104
 BYTE   W07
 BYTE   En1  v100
 BYTE   W05
// 019   ----------------------------------------
 BYTE   Dn1  v108
 BYTE   W12
 BYTE   Dn1  v100
 BYTE   W03
 BYTE   N01  Fs1  v104
 BYTE   W04
 BYTE   N02
 BYTE   W05
 BYTE   Dn1  v112
 BYTE   W07
 BYTE   N01  Gs0  v104
 BYTE   W05
 BYTE   N02  Gs0  v096
 BYTE   W03
 BYTE   N03  Fs0  v104
 BYTE   W12
 BYTE   N02  Gs0  v112
 BYTE   W09
 BYTE   Gs0  v100
 BYTE   W03
 BYTE   N03  Fs0  v112
 BYTE   W12
 BYTE   N02  Fs0  v108
 BYTE   W04
 BYTE   As0
 BYTE   W05
 BYTE   N02
 BYTE   W03
 BYTE   Fs0  v112
 BYTE   W09
// 020   ----------------------------------------
 BYTE   N01  En1  v104
 BYTE   W03
 BYTE   N02  En1  v100
 BYTE   W04
 BYTE   Dn1  v108
 BYTE   W12
 BYTE   En1
 BYTE   W08
 BYTE   En1  v104
 BYTE   W04
 BYTE   N03  Dn1  v108
 BYTE   W12
 BYTE   N02  Dn1  v096
 BYTE   W05
 BYTE   N01  Fs1  v108
 BYTE   W03
 BYTE   N02  Fs1  v104
 BYTE   W04
 BYTE   N03  Dn1  v108
 BYTE   W08
 BYTE   N01  Gs0
 BYTE   W04
 BYTE   Gs0  v112
 BYTE   W05
 BYTE   N04  Fs0
 BYTE   W12
 BYTE   N02  Gs0
 BYTE   W07
 BYTE   Fs0  v104
 BYTE   W05
// 021   ----------------------------------------
 BYTE   As0  v116
 BYTE   W30
 BYTE   W01
 BYTE   N19  Fs0  v108
 BYTE   W20
 BYTE   N03  En0  v100
 BYTE   W09
 BYTE   N02  En0  v104
 BYTE   W03
 BYTE   N20  Fs0  v112
 BYTE   W21
 BYTE   N03  En0  v104
 BYTE   W07
 BYTE   N02  En0  v100
 BYTE   W05
// 022   ----------------------------------------
 BYTE   N20  Fs0  v108
 BYTE   W19
 BYTE   N04  En0  v100
 BYTE   W08
 BYTE   N03
 BYTE   W04
 BYTE   N07  Fs0  v112
 BYTE   W08
 BYTE   Gn0  v108
 BYTE   W09
 BYTE   Fs0  v112
 BYTE   W07
 BYTE   En0  v104
 BYTE   W08
 BYTE   N21  Fs0  v116
 BYTE   W21
 BYTE   N02  En0  v104
 BYTE   W07
 BYTE   En0  v100
 BYTE   W05
// 023   ----------------------------------------
 BYTE   N20  Fs0  v104
 BYTE   W19
 BYTE   N02  En0  v108
 BYTE   W08
 BYTE   En0  v096
 BYTE   W04
 BYTE   N20  Fs0  v112
 BYTE   W20
 BYTE   N03  En0  v104
 BYTE   W09
 BYTE   En0  v100
 BYTE   W03
 BYTE   N07  Fs0  v108
 BYTE   W09
 BYTE   Gn0  v100
 BYTE   W07
 BYTE   N08  Fs0  v104
 BYTE   W08
 BYTE   En0  v100
 BYTE   W09
// 024   ----------------------------------------
 BYTE   N21  Fs0  v108
 BYTE   W19
 BYTE   N02  En0
 BYTE   W08
 BYTE   En0  v104
 BYTE   W04
 BYTE   N19  Fs0
 BYTE   W20
 BYTE   N04  En0
 BYTE   W09
 BYTE   N02
 BYTE   W03
 BYTE   N20  Fs0  v108
 BYTE   W21
 BYTE   N03  En0
 BYTE   W07
 BYTE   N02  En0  v100
 BYTE   W05
// 025   ----------------------------------------
 BYTE   N07  Fs0  v108
 BYTE   W07
 BYTE   Gn0
 BYTE   W08
 BYTE   Fs0
 BYTE   W09
 BYTE   En0  v104
 BYTE   W07
 BYTE   N20  Fs0
 BYTE   W20
 BYTE   N02  En0
 BYTE   W09
 BYTE   En0  v100
 BYTE   W03
 BYTE   N19  Fs0  v112
 BYTE   W21
 BYTE   N03  En0  v104
 BYTE   W07
 BYTE   N02  En0  v100
 BYTE   W05
// 026   ----------------------------------------
 BYTE   N19  Fs0  v108
 BYTE   W19
 BYTE   N04  En0  v100
 BYTE   W08
 BYTE   N02  En0  v096
 BYTE   W04
 BYTE   N12  Fs0  v116
 BYTE   W05
 BYTE   BEND   c_v-4
 BYTE   W01
 BYTE   Cs2
 BYTE   W01
 BYTE   Fn1
 BYTE   W01
 BYTE   Gs0
 BYTE   W01
 BYTE   CnM1
 BYTE   W01
 BYTE   DsM2
 BYTE   W01
 BYTE   CnM2
 BYTE   W01
 BYTE   CsM1
 BYTE   W01
 BYTE   Gs1
 BYTE   W01
 BYTE   Fs2
 BYTE   W01
 BYTE   Dn3
 BYTE   W02
 BYTE   En3
 BYTE   W15
 BYTE   N01  Fs0  v108
 BYTE   W04
 BYTE   N03  Fs0  v104
 BYTE   W05
 BYTE   En0  v108
 BYTE   W12
 BYTE   Fs0  v112
 BYTE   W07
 BYTE   Fs0  v108
 BYTE   W05
// 027   ----------------------------------------
 BYTE   En0  v104
 BYTE   W12
 BYTE   N02
 BYTE   W03
 BYTE   Fs0
 BYTE   W04
 BYTE   Fs0  v108
 BYTE   W05
 BYTE   N03  En0  v100
 BYTE   W07
 BYTE   N02  Fs0  v104
 BYTE   W05
 BYTE   Fs0  v108
 BYTE   W03
 BYTE   N03  En0  v104
 BYTE   W12
 BYTE   N02  Fs0
 BYTE   W09
 BYTE   N02
 BYTE   W03
 BYTE   N03  En0  v100
 BYTE   W12
 BYTE   N02
 BYTE   W04
 BYTE   Gs0  v112
 BYTE   W05
 BYTE   Gs0  v100
 BYTE   W03
 BYTE   N03  En0
 BYTE   W09
// 028   ----------------------------------------
 BYTE   N01  Fs0  v108
 BYTE   W03
 BYTE   N02  Fs0  v104
 BYTE   W04
 BYTE   N03  En0  v100
 BYTE   W12
 BYTE   Fs0  v108
 BYTE   W08
 BYTE   N02  Fs0  v104
 BYTE   W04
 BYTE   N03  En0
 BYTE   W12
 BYTE   N02  En0  v108
 BYTE   W05
 BYTE   Fs0  v116
 BYTE   W03
 BYTE   Fs0  v112
 BYTE   W04
 BYTE   N03  En0  v104
 BYTE   W08
 BYTE   N01  Fs0
 BYTE   W04
 BYTE   N02
 BYTE   W05
 BYTE   N03  En0
 BYTE   W12
 BYTE   Fs0  v112
 BYTE   W07
 BYTE   N02
 BYTE   W05
// 029   ----------------------------------------
 BYTE   W12
 BYTE   En0  v104
 BYTE   W03
 BYTE   Gs0  v108
 BYTE   W04
 BYTE   N02
 BYTE   W05
 BYTE   N03  En0  v104
 BYTE   W07
 BYTE   N02  Fs0
 BYTE   W05
 BYTE   Fs0  v100
 BYTE   W03
 BYTE   N04  En0  v104
 BYTE   W12
 BYTE   N03  Fs0
 BYTE   W09
 BYTE   N02
 BYTE   W03
 BYTE   N04  En0  v100
 BYTE   W12
 BYTE   N02
 BYTE   W04
 BYTE   Fs0  v108
 BYTE   W05
 BYTE   Fs0  v104
 BYTE   W03
 BYTE   N03  En0
 BYTE   W09
// 030   ----------------------------------------
 BYTE   N01  Fs0  v108
 BYTE   W03
 BYTE   N02  Fs0  v104
 BYTE   W04
 BYTE   N04  En0
 BYTE   W12
 BYTE   N03  Fs0  v112
 BYTE   W08
 BYTE   N02  Fs0  v108
 BYTE   W04
 BYTE   N04  En0  v104
 BYTE   W12
 BYTE   N02  En0  v100
 BYTE   W05
 BYTE   Gs0  v108
 BYTE   W03
 BYTE   Gs0  v104
 BYTE   W04
 BYTE   N03  En0
 BYTE   W08
 BYTE   N01  Fs0  v108
 BYTE   W04
 BYTE   N02  Fs0  v100
 BYTE   W05
 BYTE   N03  En0  v104
 BYTE   W12
 BYTE   N02  Fs0  v112
 BYTE   W07
 BYTE   Fs0  v100
 BYTE   W05
// 031   ----------------------------------------
 BYTE   N03  En0  v104
 BYTE   W12
 BYTE   N02
 BYTE   W03
 BYTE   Fs0  v112
 BYTE   W04
 BYTE   Fs0  v108
 BYTE   W05
 BYTE   N03  En0  v104
 BYTE   W07
 BYTE   N02  Fs0  v112
 BYTE   W05
 BYTE   Fs0  v100
 BYTE   W03
 BYTE   N04  En0  v104
 BYTE   W12
 BYTE   N03  Gs0  v108
 BYTE   W09
 BYTE   N02  En0  v100
 BYTE   W03
 BYTE   N03  Fs0  v112
 BYTE   W32
 BYTE   W01
// 032   ----------------------------------------
 BYTE   N02  Bn0  v116
 BYTE   W03
 BYTE   Bn0  v104
 BYTE   W04
 BYTE   An0  v108
 BYTE   W12
 BYTE   Bn0  v112
 BYTE   W08
 BYTE   An0  v104
 BYTE   W04
 BYTE   Bn0  v108
 BYTE   W05
 BYTE   Bn0  v104
 BYTE   W03
 BYTE   N03  An0  v112
 BYTE   W12
 BYTE   Bn0
 BYTE   W09
 BYTE   N02  An0  v104
 BYTE   W03
 BYTE   N01  Bn0
 BYTE   W04
 BYTE   N02  Bn0  v108
 BYTE   W05
 BYTE   An0  v112
 BYTE   W12
 BYTE   Bn0
 BYTE   W07
 BYTE   An0  v108
 BYTE   W05
// 033   ----------------------------------------
 BYTE   N07  Bn0  v112
 BYTE   W07
 BYTE   N08  An0  v104
 BYTE   W08
 BYTE   N07  Cs1  v112
 BYTE   W09
 BYTE   An0  v104
 BYTE   W07
 BYTE   N02  Bn0
 BYTE   W05
 BYTE   N02
 BYTE   W03
 BYTE   N03  An0  v108
 BYTE   W12
 BYTE   N02  Bn0  v112
 BYTE   W09
 BYTE   An0  v104
 BYTE   W03
 BYTE   Bn0  v112
 BYTE   W04
 BYTE   Bn0  v104
 BYTE   W05
 BYTE   An0  v112
 BYTE   W12
 BYTE   Bn0  v108
 BYTE   W07
 BYTE   An0  v104
 BYTE   W05
// 034   ----------------------------------------
 BYTE   Bn0  v108
 BYTE   W03
 BYTE   Bn0  v112
 BYTE   W04
 BYTE   N03  An0
 BYTE   W12
 BYTE   Bn0  v116
 BYTE   W08
 BYTE   N02  An0  v104
 BYTE   W04
 BYTE   N07  Bn0  v112
 BYTE   W08
 BYTE   An0  v104
 BYTE   W09
 BYTE   Bn0  v112
 BYTE   W07
 BYTE   An0  v108
 BYTE   W08
 BYTE   N01  Fs0  v100
 BYTE   W04
 BYTE   N02  Fs0  v104
 BYTE   W05
 BYTE   N03  En0
 BYTE   W12
 BYTE   N02  Fs0  v100
 BYTE   W07
 BYTE   Fs0  v104
 BYTE   W05
// 035   ----------------------------------------
 BYTE   N03  En0  v108
 BYTE   W12
 BYTE   N02  En0  v100
 BYTE   W03
 BYTE   Fs0  v108
 BYTE   W04
 BYTE   Fs0  v104
 BYTE   W05
 BYTE   N03  En0
 BYTE   W07
 BYTE   N02  Fs0
 BYTE   W05
 BYTE   N02
 BYTE   W03
 BYTE   N03  En0  v100
 BYTE   W12
 BYTE   N02  Fs0  v108
 BYTE   W09
 BYTE   Fs0  v104
 BYTE   W03
 BYTE   N03  En0
 BYTE   W12
 BYTE   N02
 BYTE   W04
 BYTE   N01  Gs0  v112
 BYTE   W05
 BYTE   N02  Gs0  v108
 BYTE   W03
 BYTE   N03  En0
 BYTE   W09
// 036   ----------------------------------------
 BYTE   N01  Fs0  v104
 BYTE   W03
 BYTE   N02  Fs0  v108
 BYTE   W04
 BYTE   N03  En0
 BYTE   W12
 BYTE   N02  Fs0
 BYTE   W08
 BYTE   Fs0  v104
 BYTE   W04
 BYTE   N03  En0  v108
 BYTE   W12
 BYTE   N02
 BYTE   W05
 BYTE   N01  Fs0
 BYTE   W03
 BYTE   N02
 BYTE   W04
 BYTE   N03  En0  v104
 BYTE   W08
 BYTE   N02  Fs0  v108
 BYTE   W04
 BYTE   Fs0  v104
 BYTE   W05
 BYTE   N03  En0
 BYTE   W12
 BYTE   Gs0  v108
 BYTE   W07
 BYTE   N02  En0
 BYTE   W05
// 037   ----------------------------------------
 BYTE   N01  Fs0  v116
 BYTE   W30
 BYTE   W01
 BYTE   N02  En1  v104
 BYTE   W05
 BYTE   En1  v100
 BYTE   W03
 BYTE   Dn1  v112
 BYTE   W12
 BYTE   En1  v104
 BYTE   W09
 BYTE   N02
 BYTE   W03
 BYTE   N03  Dn1  v108
 BYTE   W12
 BYTE   N02  Dn1  v100
 BYTE   W04
 BYTE   N01  Fs1  v108
 BYTE   W05
 BYTE   N01
 BYTE   W03
 BYTE   N03  Dn1  v104
 BYTE   W09
// 038   ----------------------------------------
 BYTE   N01  Gs0  v108
 BYTE   W03
 BYTE   N02
 BYTE   W04
 BYTE   Fs0
 BYTE   W12
 BYTE   Gs0
 BYTE   W08
 BYTE   Gs0  v104
 BYTE   W04
 BYTE   Fs0
 BYTE   W12
 BYTE   Fs0  v108
 BYTE   W05
 BYTE   N01  As0  v104
 BYTE   W03
 BYTE   N02
 BYTE   W04
 BYTE   Fs0
 BYTE   W08
 BYTE   N01  En1  v100
 BYTE   W04
 BYTE   N02  En1  v104
 BYTE   W05
 BYTE   Dn1
 BYTE   W12
 BYTE   En1  v100
 BYTE   W07
 BYTE   N01
 BYTE   W05
// 039   ----------------------------------------
 BYTE   N02  Dn1  v108
 BYTE   W12
 BYTE   Dn1  v104
 BYTE   W03
 BYTE   N01  Fs1
 BYTE   W04
 BYTE   N02  Fs1  v108
 BYTE   W05
 BYTE   Dn1  v112
 BYTE   W07
 BYTE   N01  Gs0  v108
 BYTE   W05
 BYTE   N02  Gs0  v100
 BYTE   W03
 BYTE   N03  Fs0  v116
 BYTE   W12
 BYTE   N02  Gs0  v108
 BYTE   W09
 BYTE   Fs0  v104
 BYTE   W03
 BYTE   As0  v116
 BYTE   W32
 BYTE   W01
// 040   ----------------------------------------
 BYTE   N01  En1  v104
 BYTE   W03
 BYTE   N02  En1  v096
 BYTE   W04
 BYTE   Dn1  v108
 BYTE   W12
 BYTE   En1  v104
 BYTE   W08
 BYTE   En1  v100
 BYTE   W04
 BYTE   Dn1  v108
 BYTE   W12
 BYTE   Dn1  v100
 BYTE   W05
 BYTE   N01  Fs1  v104
 BYTE   W03
 BYTE   N02
 BYTE   W04
 BYTE   N03  Dn1  v112
 BYTE   W08
 BYTE   N01  Gs0  v104
 BYTE   W04
 BYTE   N02  Gs0  v096
 BYTE   W05
 BYTE   N03  Fs0  v104
 BYTE   W12
 BYTE   N02  Gs0  v112
 BYTE   W07
 BYTE   Gs0  v100
 BYTE   W05
// 041   ----------------------------------------
 BYTE   N03  Fs0  v112
 BYTE   W12
 BYTE   N02  Fs0  v108
 BYTE   W03
 BYTE   N01  As0
 BYTE   W04
 BYTE   N02
 BYTE   W05
 BYTE   Fs0  v112
 BYTE   W07
 BYTE   N01  En1  v104
 BYTE   W05
 BYTE   N02  En1  v100
 BYTE   W03
 BYTE   Dn1  v108
 BYTE   W12
 BYTE   En1
 BYTE   W09
 BYTE   En1  v104
 BYTE   W03
 BYTE   N03  Dn1  v108
 BYTE   W12
 BYTE   N02  Dn1  v096
 BYTE   W04
 BYTE   N01  Fs1  v108
 BYTE   W05
 BYTE   N02  Fs1  v104
 BYTE   W03
 BYTE   N03  Dn1  v108
 BYTE   W09
// 042   ----------------------------------------
 BYTE   N01  Gs0
 BYTE   W03
 BYTE   Gs0  v112
 BYTE   W04
 BYTE   N05  Fs0
 BYTE   W12
 BYTE   N02  Gs0
 BYTE   W08
 BYTE   Fs0  v104
 BYTE   W04
 BYTE   N03  As0  v116
 BYTE   W32
 BYTE   GoTo
  POIN2 Label_0_0118578A
 BYTE   FINE

//**************** Track 2 (Midi-Chn.1) ****************//

KitchenAce_002:
// 000   ----------------------------------------
 BYTE   KEYSH   KitchenAce_key+0
Label_1_01185ECE:
 BYTE   VOICE   30
 BYTE   VOL   62*KitchenAce_mvl/mxv
 BYTE   PAN   c_v-20
 BYTE   N20  Fs1  v092
 BYTE   W20
 BYTE   N03  En1
 BYTE   W07
 BYTE   N04
 BYTE   W05
 BYTE   N19  Fs1
 BYTE   W19
 BYTE   N04  En1
 BYTE   W09
 BYTE   N03
 BYTE   W03
 BYTE   N20  Fs1
 BYTE   W21
 BYTE   N03  En1
 BYTE   W08
 BYTE   N03
 BYTE   W04
// 001   ----------------------------------------
 BYTE   N08  Fs1
 BYTE   W08
 BYTE   N07  Gn1  v096
 BYTE   W07
 BYTE   N08  Fs1  v092
 BYTE   W09
 BYTE   En1
 BYTE   W08
 BYTE   N19  Fs1
 BYTE   W19
 BYTE   N04  En1
 BYTE   W09
 BYTE   N03
 BYTE   W03
 BYTE   N20  Fs1  v096
 BYTE   W21
 BYTE   N03  En1
 BYTE   W08
 BYTE   En1  v092
 BYTE   W04
// 002   ----------------------------------------
 BYTE   N20  Fs1
 BYTE   W20
 BYTE   N03  En1  v096
 BYTE   W07
 BYTE   N04  En1  v092
 BYTE   W05
 BYTE   N07  Fs1  v096
 BYTE   W07
 BYTE   N08  Gn1  v092
 BYTE   W09
 BYTE   Fs1  v096
 BYTE   W08
 BYTE   N07  En1
 BYTE   W07
 BYTE   N20  Fs1
 BYTE   W21
 BYTE   N03  En1  v092
 BYTE   W08
 BYTE   N03
 BYTE   W04
// 003   ----------------------------------------
 BYTE   N20  Fs1
 BYTE   W20
 BYTE   N03  En1
 BYTE   W07
 BYTE   N04
 BYTE   W05
 BYTE   N19  Fs1
 BYTE   W19
 BYTE   N04  En1  v096
 BYTE   W09
 BYTE   N03  En1  v092
 BYTE   W03
 BYTE   N08  Fs1
 BYTE   W09
 BYTE   Gn1
 BYTE   W08
 BYTE   N07  Fs1  v096
 BYTE   W07
 BYTE   N08  En1  v092
 BYTE   W09
// 004   ----------------------------------------
Label_1_01185F4E:
 BYTE   N20  Fs1  v096
 BYTE   W20
 BYTE   N03  En1  v092
 BYTE   W07
 BYTE   N04
 BYTE   W05
 BYTE   N19  Fs1
 BYTE   W19
 BYTE   N04  En1
 BYTE   W09
 BYTE   N03
 BYTE   W03
 BYTE   N20  Fs1
 BYTE   W21
 BYTE   N03  En1  v096
 BYTE   W08
 BYTE   En1  v092
 BYTE   W04
 BYTE   PEND 
// 005   ----------------------------------------
 BYTE   Fs1  v096
 BYTE   W96
// 006   ----------------------------------------
 BYTE   W96
// 007   ----------------------------------------
 BYTE   W96
// 008   ----------------------------------------
 BYTE   W96
// 009   ----------------------------------------
 BYTE   W96
// 010   ----------------------------------------
 BYTE   W96
// 011   ----------------------------------------
 BYTE   W96
// 012   ----------------------------------------
 BYTE   W96
// 013   ----------------------------------------
 BYTE   W96
// 014   ----------------------------------------
 BYTE   W96
// 015   ----------------------------------------
 BYTE   W96
// 016   ----------------------------------------
 BYTE   W96
// 017   ----------------------------------------
 BYTE   W96
// 018   ----------------------------------------
 BYTE   W96
// 019   ----------------------------------------
 BYTE   W96
// 020   ----------------------------------------
 BYTE   W96
// 021   ----------------------------------------
 BYTE   W32
 BYTE   N19  Fs1  v092
 BYTE   W19
 BYTE   N04  En1
 BYTE   W09
 BYTE   N03
 BYTE   W03
 BYTE   N20  Fs1
 BYTE   W21
 BYTE   N03  En1
 BYTE   W08
 BYTE   N03
 BYTE   W04
// 022   ----------------------------------------
 BYTE   N20  Fs1
 BYTE   W20
 BYTE   N03  En1
 BYTE   W07
 BYTE   N04
 BYTE   W05
 BYTE   N07  Fs1
 BYTE   W07
 BYTE   N08  Gn1  v096
 BYTE   W09
 BYTE   Fs1  v092
 BYTE   W08
 BYTE   N07  En1
 BYTE   W07
 BYTE   N20  Fs1
 BYTE   W21
 BYTE   N03  En1
 BYTE   W08
 BYTE   N03
 BYTE   W04
// 023   ----------------------------------------
 BYTE   N20  Fs1  v096
 BYTE   W20
 BYTE   N03  En1
 BYTE   W07
 BYTE   N04  En1  v092
 BYTE   W05
 BYTE   N19  Fs1
 BYTE   W19
 BYTE   N04  En1  v096
 BYTE   W09
 BYTE   N03  En1  v092
 BYTE   W03
 BYTE   N08  Fs1  v096
 BYTE   W09
 BYTE   Gn1  v092
 BYTE   W08
 BYTE   N07  Fs1  v096
 BYTE   W07
 BYTE   N08  En1
 BYTE   W09
 BYTE   PATT
  POIN2 Label_1_01185F4E
// 024   ----------------------------------------
 BYTE   N08  Fs1  v092
 BYTE   W08
 BYTE   N07  Gn1
 BYTE   W07
 BYTE   N08  Fs1  v096
 BYTE   W09
 BYTE   En1  v092
 BYTE   W08
 BYTE   N19  Fs1  v096
 BYTE   W19
 BYTE   N04  En1  v092
 BYTE   W09
 BYTE   N03
 BYTE   W03
 BYTE   N20  Fs1
 BYTE   W21
 BYTE   N03  En1
 BYTE   W08
 BYTE   N03
 BYTE   W04
// 025   ----------------------------------------
 BYTE   N20  Fs1
 BYTE   W20
 BYTE   N03  En1  v096
 BYTE   W07
 BYTE   N04  En1  v092
 BYTE   W05
 BYTE   N03  Fs1  v096
 BYTE   W64
// 026   ----------------------------------------
 BYTE   W96
// 027   ----------------------------------------
 BYTE   W96
// 028   ----------------------------------------
 BYTE   W96
// 029   ----------------------------------------
 BYTE   W96
// 030   ----------------------------------------
 BYTE   W96
// 031   ----------------------------------------
 BYTE   W96
// 032   ----------------------------------------
 BYTE   W96
// 033   ----------------------------------------
 BYTE   W96
// 034   ----------------------------------------
 BYTE   W96
// 035   ----------------------------------------
 BYTE   W96
// 036   ----------------------------------------
 BYTE   W96
// 037   ----------------------------------------
 BYTE   W96
// 038   ----------------------------------------
 BYTE   W96
// 039   ----------------------------------------
 BYTE   W96
// 040   ----------------------------------------
 BYTE   W96
// 041   ----------------------------------------
 BYTE   W60
 BYTE   W03
 BYTE   GoTo
  POIN2 Label_1_01185ECE
 BYTE   FINE

//**************** Track 3 (Midi-Chn.2) ****************//

KitchenAce_003:
// 000   ----------------------------------------
 BYTE   KEYSH   KitchenAce_key+0
Label_2_0118601E:
 BYTE   VOICE   30
 BYTE   VOL   62*KitchenAce_mvl/mxv
 BYTE   PAN   c_v+10
 BYTE   N19  Cs2  v092
 BYTE   W19
 BYTE   N04  Bn1
 BYTE   W08
 BYTE   N03
 BYTE   W04
 BYTE   N20  Cs2
 BYTE   W20
 BYTE   N03  Bn1
 BYTE   W09
 BYTE   N03
 BYTE   W03
 BYTE   N20  Cs2
 BYTE   W21
 BYTE   N03  Bn1
 BYTE   W07
 BYTE   N04
 BYTE   W05
// 001   ----------------------------------------
 BYTE   N07  Cs2
 BYTE   W07
 BYTE   N08  Dn2  v096
 BYTE   W08
 BYTE   Cs2  v092
 BYTE   W09
 BYTE   N07  Bn1
 BYTE   W07
 BYTE   N20  Cs2
 BYTE   W20
 BYTE   N03  Bn1
 BYTE   W09
 BYTE   N03
 BYTE   W03
 BYTE   N20  Cs2  v096
 BYTE   W21
 BYTE   N03  Bn1
 BYTE   W07
 BYTE   N04  Bn1  v092
 BYTE   W05
// 002   ----------------------------------------
 BYTE   N19  Cs2
 BYTE   W19
 BYTE   N04  Bn1  v096
 BYTE   W08
 BYTE   N03  Bn1  v092
 BYTE   W04
 BYTE   N08  Cs2  v096
 BYTE   W08
 BYTE   Dn2  v092
 BYTE   W09
 BYTE   N07  Cs2  v096
 BYTE   W07
 BYTE   N08  Bn1
 BYTE   W08
 BYTE   N20  Cs2
 BYTE   W21
 BYTE   N03  Bn1  v092
 BYTE   W07
 BYTE   N04
 BYTE   W05
// 003   ----------------------------------------
 BYTE   N19  Cs2
 BYTE   W19
 BYTE   N04  Bn1
 BYTE   W08
 BYTE   N03
 BYTE   W04
 BYTE   N20  Cs2
 BYTE   W20
 BYTE   N03  Bn1  v096
 BYTE   W09
 BYTE   Bn1  v092
 BYTE   W03
 BYTE   N08  Cs2
 BYTE   W09
 BYTE   N07  Dn2
 BYTE   W07
 BYTE   N08  Cs2  v096
 BYTE   W08
 BYTE   Bn1  v092
 BYTE   W09
// 004   ----------------------------------------
Label_2_0118609E:
 BYTE   N19  Cs2  v096
 BYTE   W19
 BYTE   N04  Bn1  v092
 BYTE   W08
 BYTE   N03
 BYTE   W04
 BYTE   N20  Cs2
 BYTE   W20
 BYTE   N03  Bn1
 BYTE   W09
 BYTE   N03
 BYTE   W03
 BYTE   N20  Cs2
 BYTE   W21
 BYTE   N03  Bn1  v096
 BYTE   W07
 BYTE   N04  Bn1  v092
 BYTE   W05
 BYTE   PEND 
// 005   ----------------------------------------
 BYTE   N03  Cs2  v096
 BYTE   W96
// 006   ----------------------------------------
 BYTE   W96
// 007   ----------------------------------------
 BYTE   W96
// 008   ----------------------------------------
 BYTE   W96
// 009   ----------------------------------------
 BYTE   W96
// 010   ----------------------------------------
 BYTE   W96
// 011   ----------------------------------------
 BYTE   W96
// 012   ----------------------------------------
 BYTE   W96
// 013   ----------------------------------------
 BYTE   W96
// 014   ----------------------------------------
 BYTE   W96
// 015   ----------------------------------------
 BYTE   W96
// 016   ----------------------------------------
 BYTE   W96
// 017   ----------------------------------------
 BYTE   W96
// 018   ----------------------------------------
 BYTE   W96
// 019   ----------------------------------------
 BYTE   W96
// 020   ----------------------------------------
 BYTE   W96
// 021   ----------------------------------------
 BYTE   W30
 BYTE   W01
 BYTE   N20  Cs2  v092
 BYTE   W20
 BYTE   N03  Bn1
 BYTE   W09
 BYTE   N03
 BYTE   W03
 BYTE   N20  Cs2
 BYTE   W21
 BYTE   N03  Bn1
 BYTE   W07
 BYTE   N04
 BYTE   W05
// 022   ----------------------------------------
 BYTE   N19  Cs2
 BYTE   W19
 BYTE   N04  Bn1
 BYTE   W08
 BYTE   N03
 BYTE   W04
 BYTE   N08  Cs2
 BYTE   W08
 BYTE   Dn2  v096
 BYTE   W09
 BYTE   N07  Cs2  v092
 BYTE   W07
 BYTE   N08  Bn1
 BYTE   W08
 BYTE   N20  Cs2
 BYTE   W21
 BYTE   N03  Bn1
 BYTE   W07
 BYTE   N04
 BYTE   W05
// 023   ----------------------------------------
 BYTE   N19  Cs2  v096
 BYTE   W19
 BYTE   N04  Bn1
 BYTE   W08
 BYTE   N03  Bn1  v092
 BYTE   W04
 BYTE   N20  Cs2
 BYTE   W20
 BYTE   N03  Bn1  v096
 BYTE   W09
 BYTE   Bn1  v092
 BYTE   W03
 BYTE   N08  Cs2  v096
 BYTE   W09
 BYTE   N07  Dn2  v092
 BYTE   W07
 BYTE   N08  Cs2  v096
 BYTE   W08
 BYTE   Bn1
 BYTE   W09
 BYTE   PATT
  POIN2 Label_2_0118609E
// 024   ----------------------------------------
 BYTE   N07  Cs2  v092
 BYTE   W07
 BYTE   N08  Dn2
 BYTE   W08
 BYTE   Cs2  v096
 BYTE   W09
 BYTE   N07  Bn1  v092
 BYTE   W07
 BYTE   N20  Cs2  v096
 BYTE   W20
 BYTE   N03  Bn1  v092
 BYTE   W09
 BYTE   N03
 BYTE   W03
 BYTE   N20  Cs2
 BYTE   W21
 BYTE   N03  Bn1
 BYTE   W07
 BYTE   N04
 BYTE   W05
// 025   ----------------------------------------
 BYTE   N19  Cs2
 BYTE   W19
 BYTE   N04  Bn1  v096
 BYTE   W08
 BYTE   N03  Bn1  v092
 BYTE   W04
 BYTE   N04  Cs2  v096
 BYTE   W64
 BYTE   W01
// 026   ----------------------------------------
 BYTE   W96
// 027   ----------------------------------------
 BYTE   W96
// 028   ----------------------------------------
 BYTE   W96
// 029   ----------------------------------------
 BYTE   W96
// 030   ----------------------------------------
 BYTE   W96
// 031   ----------------------------------------
 BYTE   W96
// 032   ----------------------------------------
 BYTE   W96
// 033   ----------------------------------------
 BYTE   W96
// 034   ----------------------------------------
 BYTE   W96
// 035   ----------------------------------------
 BYTE   W96
// 036   ----------------------------------------
 BYTE   W96
// 037   ----------------------------------------
 BYTE   W96
// 038   ----------------------------------------
 BYTE   W96
// 039   ----------------------------------------
 BYTE   W96
// 040   ----------------------------------------
 BYTE   W96
// 041   ----------------------------------------
 BYTE   W60
 BYTE   W03
 BYTE   GoTo
  POIN2 Label_2_0118601E
 BYTE   FINE

//**************** Track 4 (Midi-Chn.3) ****************//

KitchenAce_004:
// 000   ----------------------------------------
 BYTE   KEYSH   KitchenAce_key+0
Label_3_01186172:
 BYTE   VOICE   29
 BYTE   VOL   62*KitchenAce_mvl/mxv
 BYTE   PAN   c_v-20
 BYTE   W96
// 001   ----------------------------------------
 BYTE   W96
// 002   ----------------------------------------
 BYTE   W96
// 003   ----------------------------------------
 BYTE   W96
// 004   ----------------------------------------
 BYTE   W96
// 005   ----------------------------------------
 BYTE   W30
 BYTE   W01
 BYTE   N02  Fs1  v096
 BYTE   W05
 BYTE   N04
 BYTE   W03
 BYTE   N03  En1  v092
 BYTE   W12
 BYTE   Fs1  v096
 BYTE   W09
 BYTE   Fs1  v092
 BYTE   W03
 BYTE   N04  En1  v088
 BYTE   W12
 BYTE   N03  En1  v092
 BYTE   W04
 BYTE   N02  Fs1  v096
 BYTE   W05
 BYTE   Fs1  v092
 BYTE   W03
 BYTE   N04  En1  v084
 BYTE   W09
// 006   ----------------------------------------
 BYTE   N01  Fs1  v092
 BYTE   W03
 BYTE   N03  Fs1  v088
 BYTE   W04
 BYTE   En1
 BYTE   W12
 BYTE   Fs1  v092
 BYTE   W08
 BYTE   Fs1  v088
 BYTE   W04
 BYTE   N05  En1  v092
 BYTE   W12
 BYTE   N03  En1  v088
 BYTE   W05
 BYTE   N02  Gs1  v104
 BYTE   W03
 BYTE   N03  Gs1  v092
 BYTE   W04
 BYTE   N04  En1
 BYTE   W08
 BYTE   N01  Fs1  v088
 BYTE   W04
 BYTE   N03
 BYTE   W05
 BYTE   En1
 BYTE   W12
 BYTE   Fs1  v096
 BYTE   W07
 BYTE   N03
 BYTE   W05
// 007   ----------------------------------------
 BYTE   N04  En1  v092
 BYTE   W12
 BYTE   N03  En1  v088
 BYTE   W03
 BYTE   N02  Fs1  v096
 BYTE   W04
 BYTE   N03  Fs1  v092
 BYTE   W05
 BYTE   En1
 BYTE   W07
 BYTE   N02  Fs1
 BYTE   W05
 BYTE   N03
 BYTE   W03
 BYTE   En1  v088
 BYTE   W12
 BYTE   Fs1
 BYTE   W09
 BYTE   Fs1  v092
 BYTE   W03
 BYTE   N05  En1
 BYTE   W12
 BYTE   N03  En1  v088
 BYTE   W04
 BYTE   N02  Gs1  v100
 BYTE   W05
 BYTE   Gs1  v080
 BYTE   W03
 BYTE   N04  En1  v088
 BYTE   W09
// 008   ----------------------------------------
 BYTE   N01  Fs1  v092
 BYTE   W03
 BYTE   N03
 BYTE   W04
 BYTE   N04  En1  v088
 BYTE   W12
 BYTE   N03  Fs1
 BYTE   W08
 BYTE   Fs1  v092
 BYTE   W04
 BYTE   N04  En1  v088
 BYTE   W12
 BYTE   N03
 BYTE   W05
 BYTE   N02  Fs1  v092
 BYTE   W03
 BYTE   N03  Fs1  v084
 BYTE   W04
 BYTE   N04  En1  v092
 BYTE   W08
 BYTE   N02  Fs1
 BYTE   W04
 BYTE   N03  Fs1  v088
 BYTE   W05
 BYTE   En1
 BYTE   W12
 BYTE   Fs1  v096
 BYTE   W07
 BYTE   Fs1  v092
 BYTE   W05
// 009   ----------------------------------------
 BYTE   N04  En1  v088
 BYTE   W12
 BYTE   N03  En1  v084
 BYTE   W03
 BYTE   N01  Gs1  v092
 BYTE   W04
 BYTE   N03  Gs1  v088
 BYTE   W05
 BYTE   N04  En1
 BYTE   W07
 BYTE   N02  Fs1
 BYTE   W05
 BYTE   N03  Fs1  v092
 BYTE   W03
 BYTE   N04  En1  v088
 BYTE   W12
 BYTE   N03  Fs1  v092
 BYTE   W09
 BYTE   Fs1  v088
 BYTE   W03
 BYTE   N04  En1  v092
 BYTE   W12
 BYTE   N03  En1  v088
 BYTE   W04
 BYTE   N02  Fs1  v092
 BYTE   W05
 BYTE   N03
 BYTE   W03
 BYTE   N04  En1  v088
 BYTE   W09
// 010   ----------------------------------------
 BYTE   N02  Fs1  v096
 BYTE   W03
 BYTE   N03  Fs1  v088
 BYTE   W04
 BYTE   N04  En1  v092
 BYTE   W12
 BYTE   N03  Gs1  v100
 BYTE   W08
 BYTE   En1  v092
 BYTE   W04
 BYTE   N02  Fs1  v104
 BYTE   W32
 BYTE   Bn1  v092
 BYTE   W04
 BYTE   N02
 BYTE   W05
 BYTE   N03  An1  v096
 BYTE   W12
 BYTE   N02  Bn1  v092
 BYTE   W07
 BYTE   An1
 BYTE   W05
// 011   ----------------------------------------
 BYTE   N01  Bn1  v096
 BYTE   W03
 BYTE   N02  Bn1  v092
 BYTE   W04
 BYTE   N03  An1  v096
 BYTE   W12
 BYTE   N02  Bn1  v092
 BYTE   W08
 BYTE   An1
 BYTE   W04
 BYTE   Bn1  v096
 BYTE   W05
 BYTE   Bn1  v092
 BYTE   W03
 BYTE   An1  v096
 BYTE   W12
 BYTE   Bn1
 BYTE   W09
 BYTE   An1
 BYTE   W03
 BYTE   N06  Bn1
 BYTE   W09
 BYTE   N07  An1  v092
 BYTE   W07
 BYTE   Cs2  v096
 BYTE   W08
 BYTE   An1  v092
 BYTE   W09
// 012   ----------------------------------------
 BYTE   N01  Bn1
 BYTE   W03
 BYTE   N02
 BYTE   W04
 BYTE   An1
 BYTE   W12
 BYTE   Bn1
 BYTE   W08
 BYTE   An1
 BYTE   W04
 BYTE   Bn1  v096
 BYTE   W05
 BYTE   Bn1  v092
 BYTE   W03
 BYTE   An1  v096
 BYTE   W12
 BYTE   Bn1  v092
 BYTE   W09
 BYTE   An1
 BYTE   W03
 BYTE   N01  Bn1
 BYTE   W04
 BYTE   N02
 BYTE   W05
 BYTE   An1  v096
 BYTE   W12
 BYTE   Bn1
 BYTE   W07
 BYTE   An1
 BYTE   W05
// 013   ----------------------------------------
 BYTE   N07  Bn1
 BYTE   W07
 BYTE   N08  An1
 BYTE   W08
 BYTE   Bn1
 BYTE   W09
 BYTE   N07  An1  v092
 BYTE   W07
 BYTE   N01  Fs1
 BYTE   W05
 BYTE   N03
 BYTE   W03
 BYTE   N04  En1  v088
 BYTE   W12
 BYTE   N03  Fs1
 BYTE   W09
 BYTE   Fs1  v092
 BYTE   W03
 BYTE   En1  v088
 BYTE   W12
 BYTE   N03
 BYTE   W04
 BYTE   N02  Fs1  v092
 BYTE   W05
 BYTE   N03  Fs1  v084
 BYTE   W03
 BYTE   N04  En1  v092
 BYTE   W09
// 014   ----------------------------------------
Label_3_0118630E:
 BYTE   N02  Fs1  v092
 BYTE   W03
 BYTE   N03  Fs1  v088
 BYTE   W04
 BYTE   En1
 BYTE   W12
 BYTE   Fs1  v096
 BYTE   W08
 BYTE   Fs1  v092
 BYTE   W04
 BYTE   N04  En1  v088
 BYTE   W12
 BYTE   N03  En1  v084
 BYTE   W05
 BYTE   N01  Gs1  v092
 BYTE   W03
 BYTE   N03  Gs1  v088
 BYTE   W04
 BYTE   N04  En1
 BYTE   W08
 BYTE   N02  Fs1
 BYTE   W04
 BYTE   N03  Fs1  v092
 BYTE   W05
 BYTE   N04  En1  v088
 BYTE   W12
 BYTE   N03  Fs1  v092
 BYTE   W07
 BYTE   Fs1  v088
 BYTE   W05
 BYTE   PEND 
// 015   ----------------------------------------
Label_3_01186344:
 BYTE   N04  En1  v092
 BYTE   W12
 BYTE   N03  En1  v088
 BYTE   W03
 BYTE   N02  Fs1  v092
 BYTE   W04
 BYTE   N03
 BYTE   W05
 BYTE   N04  En1  v088
 BYTE   W07
 BYTE   N02  Fs1  v096
 BYTE   W05
 BYTE   N03  Fs1  v088
 BYTE   W03
 BYTE   N04  En1  v092
 BYTE   W12
 BYTE   N03  Gs1  v100
 BYTE   W09
 BYTE   En1  v092
 BYTE   W03
 BYTE   N02  Fs1  v104
 BYTE   W32
 BYTE   W01
 BYTE   PEND 
// 016   ----------------------------------------
Label_3_0118636F:
 BYTE   N01  En2  v084
 BYTE   W03
 BYTE   N03
 BYTE   W04
 BYTE   N04  Dn2
 BYTE   W12
 BYTE   N03  En2
 BYTE   W08
 BYTE   N03
 BYTE   W04
 BYTE   N04  Dn2
 BYTE   W12
 BYTE   N03
 BYTE   W05
 BYTE   N02  Fs2
 BYTE   W03
 BYTE   N03
 BYTE   W04
 BYTE   N04  Dn2
 BYTE   W08
 BYTE   N02  Gs2
 BYTE   W04
 BYTE   N03
 BYTE   W05
 BYTE   Fs2
 BYTE   W12
 BYTE   Gs2
 BYTE   W07
 BYTE   N03
 BYTE   W05
 BYTE   PEND 
// 017   ----------------------------------------
Label_3_01186396:
 BYTE   N04  Fs2  v084
 BYTE   W12
 BYTE   N03
 BYTE   W03
 BYTE   N01  As2
 BYTE   W04
 BYTE   N03
 BYTE   W05
 BYTE   N04  Fs2
 BYTE   W07
 BYTE   N02  En2
 BYTE   W05
 BYTE   N03
 BYTE   W03
 BYTE   N04  Dn2
 BYTE   W12
 BYTE   N03  En2
 BYTE   W09
 BYTE   N03
 BYTE   W03
 BYTE   N04  Dn2
 BYTE   W12
 BYTE   N03
 BYTE   W04
 BYTE   N02  Fs2
 BYTE   W05
 BYTE   N03
 BYTE   W03
 BYTE   N04  Dn2
 BYTE   W09
 BYTE   PEND 
// 018   ----------------------------------------
 BYTE   N02  Gs2
 BYTE   W03
 BYTE   N03
 BYTE   W04
 BYTE   N04  Fs2
 BYTE   W12
 BYTE   N03  Gs2
 BYTE   W08
 BYTE   Fs2
 BYTE   W04
 BYTE   N02  As2
 BYTE   W32
 BYTE   N01  En2
 BYTE   W04
 BYTE   N03
 BYTE   W05
 BYTE   N04  Dn2
 BYTE   W12
 BYTE   N03  En2
 BYTE   W07
 BYTE   N03
 BYTE   W05
// 019   ----------------------------------------
 BYTE   Dn2
 BYTE   W12
 BYTE   N03
 BYTE   W03
 BYTE   N02  Fs2
 BYTE   W04
 BYTE   N03
 BYTE   W05
 BYTE   N04  Dn2
 BYTE   W07
 BYTE   N02  Gs2
 BYTE   W05
 BYTE   N03
 BYTE   W03
 BYTE   Fs2
 BYTE   W12
 BYTE   Gs2
 BYTE   W09
 BYTE   N03
 BYTE   W03
 BYTE   N04  Fs2
 BYTE   W12
 BYTE   N03
 BYTE   W04
 BYTE   N01  As2
 BYTE   W05
 BYTE   N03
 BYTE   W03
 BYTE   N04  Fs2
 BYTE   W09
// 020   ----------------------------------------
 BYTE   N02  En2
 BYTE   W03
 BYTE   N03
 BYTE   W04
 BYTE   N04  Dn2
 BYTE   W12
 BYTE   N03  En2
 BYTE   W08
 BYTE   N03
 BYTE   W04
 BYTE   N05  Dn2
 BYTE   W12
 BYTE   N03
 BYTE   W05
 BYTE   N02  Fs2
 BYTE   W03
 BYTE   N03
 BYTE   W04
 BYTE   N04  Dn2
 BYTE   W08
 BYTE   N02  Gs2
 BYTE   W04
 BYTE   N03
 BYTE   W05
 BYTE   Fs2
 BYTE   W12
 BYTE   Gs2
 BYTE   W07
 BYTE   Fs2
 BYTE   W05
// 021   ----------------------------------------
 BYTE   N02  As2
 BYTE   W96
// 022   ----------------------------------------
 BYTE   W96
// 023   ----------------------------------------
 BYTE   W96
// 024   ----------------------------------------
 BYTE   W96
// 025   ----------------------------------------
 BYTE   W96
// 026   ----------------------------------------
 BYTE   W60
 BYTE   W03
 BYTE   Fs1  v096
 BYTE   W04
 BYTE   N04
 BYTE   W05
 BYTE   N03  En1  v092
 BYTE   W12
 BYTE   Fs1  v096
 BYTE   W07
 BYTE   Fs1  v092
 BYTE   W05
// 027   ----------------------------------------
 BYTE   N04  En1  v088
 BYTE   W12
 BYTE   N03  En1  v092
 BYTE   W03
 BYTE   N02  Fs1  v096
 BYTE   W04
 BYTE   N03  Fs1  v092
 BYTE   W05
 BYTE   N04  En1  v084
 BYTE   W07
 BYTE   N02  Fs1  v092
 BYTE   W05
 BYTE   N03  Fs1  v088
 BYTE   W03
 BYTE   En1
 BYTE   W12
 BYTE   Fs1  v092
 BYTE   W09
 BYTE   N02  Fs1  v088
 BYTE   W03
 BYTE   N05  En1  v092
 BYTE   W12
 BYTE   N03  En1  v088
 BYTE   W04
 BYTE   N02  Gs1  v104
 BYTE   W05
 BYTE   N03  Gs1  v092
 BYTE   W03
 BYTE   N04  En1
 BYTE   W09
// 028   ----------------------------------------
 BYTE   N01  Fs1  v088
 BYTE   W03
 BYTE   N03
 BYTE   W04
 BYTE   En1
 BYTE   W12
 BYTE   Fs1  v096
 BYTE   W08
 BYTE   N03
 BYTE   W04
 BYTE   N04  En1  v092
 BYTE   W12
 BYTE   N03  En1  v088
 BYTE   W05
 BYTE   N02  Fs1  v096
 BYTE   W03
 BYTE   N03  Fs1  v092
 BYTE   W04
 BYTE   N04  En1
 BYTE   W08
 BYTE   N02  Fs1
 BYTE   W04
 BYTE   N03
 BYTE   W05
 BYTE   En1  v088
 BYTE   W12
 BYTE   Fs1
 BYTE   W07
 BYTE   Fs1  v092
 BYTE   W05
// 029   ----------------------------------------
 BYTE   N05  En1
 BYTE   W12
 BYTE   N03  En1  v088
 BYTE   W03
 BYTE   N02  Gs1  v100
 BYTE   W04
 BYTE   Gs1  v080
 BYTE   W05
 BYTE   N04  En1  v088
 BYTE   W07
 BYTE   N01  Fs1  v092
 BYTE   W05
 BYTE   N03
 BYTE   W03
 BYTE   N04  En1  v088
 BYTE   W12
 BYTE   N03  Fs1
 BYTE   W09
 BYTE   Fs1  v092
 BYTE   W03
 BYTE   En1  v088
 BYTE   W12
 BYTE   N03
 BYTE   W04
 BYTE   N02  Fs1  v092
 BYTE   W05
 BYTE   N03  Fs1  v084
 BYTE   W03
 BYTE   N04  En1  v092
 BYTE   W09
 BYTE   PATT
  POIN2 Label_3_0118630E
 BYTE   PATT
  POIN2 Label_3_01186344
// 030   ----------------------------------------
 BYTE   N02  Bn1  v092
 BYTE   W03
 BYTE   N02
 BYTE   W04
 BYTE   N03  An1  v096
 BYTE   W12
 BYTE   N02  Bn1  v092
 BYTE   W08
 BYTE   An1
 BYTE   W04
 BYTE   Bn1  v096
 BYTE   W05
 BYTE   Bn1  v092
 BYTE   W03
 BYTE   N03  An1  v096
 BYTE   W12
 BYTE   N02  Bn1  v092
 BYTE   W09
 BYTE   An1
 BYTE   W03
 BYTE   N01  Bn1  v096
 BYTE   W04
 BYTE   N02  Bn1  v092
 BYTE   W05
 BYTE   An1  v096
 BYTE   W12
 BYTE   Bn1
 BYTE   W07
 BYTE   An1
 BYTE   W05
// 031   ----------------------------------------
 BYTE   N06  Bn1
 BYTE   W07
 BYTE   N07  An1  v092
 BYTE   W08
 BYTE   Cs2  v096
 BYTE   W09
 BYTE   An1  v092
 BYTE   W07
 BYTE   N01  Bn1
 BYTE   W05
 BYTE   N02
 BYTE   W03
 BYTE   An1
 BYTE   W12
 BYTE   Bn1
 BYTE   W09
 BYTE   An1
 BYTE   W03
 BYTE   Bn1  v096
 BYTE   W04
 BYTE   Bn1  v092
 BYTE   W05
 BYTE   An1  v096
 BYTE   W12
 BYTE   Bn1  v092
 BYTE   W07
 BYTE   An1
 BYTE   W05
// 032   ----------------------------------------
 BYTE   N01  Bn1
 BYTE   W03
 BYTE   N02
 BYTE   W04
 BYTE   An1  v096
 BYTE   W12
 BYTE   Bn1
 BYTE   W08
 BYTE   An1
 BYTE   W04
 BYTE   N08  Bn1
 BYTE   W08
 BYTE   An1
 BYTE   W09
 BYTE   N07  Bn1
 BYTE   W07
 BYTE   N08  An1  v092
 BYTE   W08
 BYTE   N01  Fs1
 BYTE   W04
 BYTE   N03
 BYTE   W05
 BYTE   N04  En1  v088
 BYTE   W12
 BYTE   N03  Fs1
 BYTE   W07
 BYTE   Fs1  v092
 BYTE   W05
// 033   ----------------------------------------
 BYTE   En1  v088
 BYTE   W12
 BYTE   N03
 BYTE   W03
 BYTE   N02  Fs1  v092
 BYTE   W04
 BYTE   N03  Fs1  v084
 BYTE   W05
 BYTE   N04  En1  v092
 BYTE   W07
 BYTE   N02  Fs1
 BYTE   W05
 BYTE   N03  Fs1  v088
 BYTE   W03
 BYTE   En1
 BYTE   W12
 BYTE   Fs1  v096
 BYTE   W09
 BYTE   Fs1  v092
 BYTE   W03
 BYTE   N04  En1  v088
 BYTE   W12
 BYTE   N03  En1  v084
 BYTE   W04
 BYTE   N01  Gs1  v092
 BYTE   W05
 BYTE   N03  Gs1  v088
 BYTE   W03
 BYTE   N04  En1
 BYTE   W09
// 034   ----------------------------------------
 BYTE   N02  Fs1
 BYTE   W03
 BYTE   N03  Fs1  v092
 BYTE   W04
 BYTE   N04  En1  v088
 BYTE   W12
 BYTE   N03  Fs1  v092
 BYTE   W08
 BYTE   Fs1  v088
 BYTE   W04
 BYTE   N05  En1  v092
 BYTE   W12
 BYTE   N03  En1  v088
 BYTE   W05
 BYTE   N02  Fs1  v092
 BYTE   W03
 BYTE   N03
 BYTE   W04
 BYTE   N04  En1  v088
 BYTE   W08
 BYTE   N02  Fs1  v096
 BYTE   W04
 BYTE   N03  Fs1  v088
 BYTE   W05
 BYTE   En1  v092
 BYTE   W12
 BYTE   Gs1  v100
 BYTE   W07
 BYTE   En1  v092
 BYTE   W05
// 035   ----------------------------------------
 BYTE   N02  Fs1  v104
 BYTE   W30
 BYTE   W01
 BYTE   N01  En2  v084
 BYTE   W05
 BYTE   N03
 BYTE   W03
 BYTE   N04  Dn2
 BYTE   W12
 BYTE   N03  En2
 BYTE   W09
 BYTE   N03
 BYTE   W03
 BYTE   Dn2
 BYTE   W12
 BYTE   N03
 BYTE   W04
 BYTE   N02  Fs2
 BYTE   W05
 BYTE   N03
 BYTE   W03
 BYTE   N04  Dn2
 BYTE   W09
// 036   ----------------------------------------
 BYTE   N02  Gs2
 BYTE   W03
 BYTE   N03
 BYTE   W04
 BYTE   Fs2
 BYTE   W12
 BYTE   Gs2
 BYTE   W08
 BYTE   N03
 BYTE   W04
 BYTE   N04  Fs2
 BYTE   W12
 BYTE   N03
 BYTE   W05
 BYTE   N01  As2
 BYTE   W03
 BYTE   N03
 BYTE   W04
 BYTE   N04  Fs2
 BYTE   W08
 BYTE   N02  En2
 BYTE   W04
 BYTE   N03
 BYTE   W05
 BYTE   N04  Dn2
 BYTE   W12
 BYTE   N03  En2
 BYTE   W07
 BYTE   N03
 BYTE   W05
// 037   ----------------------------------------
 BYTE   N04  Dn2
 BYTE   W12
 BYTE   N03
 BYTE   W03
 BYTE   N02  Fs2
 BYTE   W04
 BYTE   N03
 BYTE   W05
 BYTE   N04  Dn2
 BYTE   W07
 BYTE   N02  Gs2
 BYTE   W05
 BYTE   N03
 BYTE   W03
 BYTE   N04  Fs2
 BYTE   W12
 BYTE   N03  Gs2
 BYTE   W09
 BYTE   Fs2
 BYTE   W03
 BYTE   N02  As2
 BYTE   W32
 BYTE   W01
 BYTE   PATT
  POIN2 Label_3_0118636F
 BYTE   PATT
  POIN2 Label_3_01186396
// 038   ----------------------------------------
 BYTE   N02  Gs2  v084
 BYTE   W03
 BYTE   N03
 BYTE   W04
 BYTE   N04  Fs2
 BYTE   W12
 BYTE   N03  Gs2
 BYTE   W08
 BYTE   Fs2
 BYTE   W04
 BYTE   N02  As2
 BYTE   W32
 BYTE   GoTo
  POIN2 Label_3_01186172
 BYTE   FINE

//**************** Track 5 (Midi-Chn.4) ****************//

KitchenAce_005:
// 000   ----------------------------------------
 BYTE   KEYSH   KitchenAce_key+0
Label_4_0118664A:
 BYTE   VOICE   29
 BYTE   VOL   62*KitchenAce_mvl/mxv
 BYTE   PAN   c_v+10
 BYTE   W96
// 001   ----------------------------------------
 BYTE   W96
// 002   ----------------------------------------
 BYTE   W96
// 003   ----------------------------------------
 BYTE   W96
// 004   ----------------------------------------
 BYTE   W96
// 005   ----------------------------------------
 BYTE   W30
 BYTE   W01
 BYTE   N02  Cs2  v096
 BYTE   W05
 BYTE   N04
 BYTE   W03
 BYTE   N03  Bn1  v088
 BYTE   W12
 BYTE   Cs2  v092
 BYTE   W09
 BYTE   Cs2  v088
 BYTE   W03
 BYTE   N04  Bn1
 BYTE   W12
 BYTE   N03
 BYTE   W04
 BYTE   N02  Cs2  v096
 BYTE   W05
 BYTE   Cs2  v088
 BYTE   W03
 BYTE   N04  Bn1  v084
 BYTE   W09
// 006   ----------------------------------------
 BYTE   N01  Cs2  v088
 BYTE   W03
 BYTE   N03  Cs2  v084
 BYTE   W04
 BYTE   Bn1
 BYTE   W12
 BYTE   Cs2  v092
 BYTE   W08
 BYTE   Cs2  v088
 BYTE   W04
 BYTE   N05  Bn1  v092
 BYTE   W12
 BYTE   N03  Bn1  v088
 BYTE   W05
 BYTE   N02  Ds2  v100
 BYTE   W03
 BYTE   N03  Ds2  v092
 BYTE   W04
 BYTE   N04  Bn1
 BYTE   W08
 BYTE   N01  Cs2  v088
 BYTE   W04
 BYTE   N03
 BYTE   W05
 BYTE   Bn1
 BYTE   W12
 BYTE   Cs2  v096
 BYTE   W07
 BYTE   N03
 BYTE   W05
// 007   ----------------------------------------
 BYTE   N04  Bn1  v092
 BYTE   W12
 BYTE   N03  Bn1  v088
 BYTE   W03
 BYTE   N02  Cs2  v096
 BYTE   W04
 BYTE   N03  Cs2  v092
 BYTE   W05
 BYTE   Bn1
 BYTE   W07
 BYTE   N02  Cs2
 BYTE   W05
 BYTE   N03
 BYTE   W03
 BYTE   Bn1  v088
 BYTE   W12
 BYTE   Cs2
 BYTE   W09
 BYTE   Cs2  v092
 BYTE   W03
 BYTE   N05  Bn1
 BYTE   W12
 BYTE   N03  Bn1  v088
 BYTE   W04
 BYTE   N02  Ds2  v100
 BYTE   W05
 BYTE   Ds2  v080
 BYTE   W03
 BYTE   N04  Bn1  v088
 BYTE   W09
// 008   ----------------------------------------
 BYTE   N01  Cs2
 BYTE   W03
 BYTE   N03  Cs2  v092
 BYTE   W04
 BYTE   N04  Bn1  v088
 BYTE   W12
 BYTE   N03  Cs2
 BYTE   W08
 BYTE   Cs2  v092
 BYTE   W04
 BYTE   N04  Bn1  v088
 BYTE   W12
 BYTE   N03  Bn1  v084
 BYTE   W05
 BYTE   N02  Cs2  v092
 BYTE   W03
 BYTE   N03  Cs2  v084
 BYTE   W04
 BYTE   N04  Bn1  v092
 BYTE   W08
 BYTE   N02  Cs2  v088
 BYTE   W04
 BYTE   N03
 BYTE   W05
 BYTE   Bn1
 BYTE   W12
 BYTE   Cs2  v096
 BYTE   W07
 BYTE   Cs2  v088
 BYTE   W05
// 009   ----------------------------------------
 BYTE   N04  Bn1
 BYTE   W12
 BYTE   N03  Bn1  v084
 BYTE   W03
 BYTE   N01  Ds2  v092
 BYTE   W04
 BYTE   N03  Ds2  v088
 BYTE   W05
 BYTE   N04  Bn1
 BYTE   W07
 BYTE   N02  Cs2  v084
 BYTE   W05
 BYTE   N03  Cs2  v088
 BYTE   W03
 BYTE   N04  Bn1
 BYTE   W12
 BYTE   N03  Cs2
 BYTE   W09
 BYTE   N03
 BYTE   W03
 BYTE   N04  Bn1
 BYTE   W12
 BYTE   N03
 BYTE   W04
 BYTE   N02  Cs2
 BYTE   W05
 BYTE   N03  Cs2  v092
 BYTE   W03
 BYTE   N04  Bn1  v088
 BYTE   W09
// 010   ----------------------------------------
 BYTE   N02  Cs2  v096
 BYTE   W03
 BYTE   N03  Cs2  v088
 BYTE   W04
 BYTE   N04  Bn1
 BYTE   W12
 BYTE   N03  Ds2  v100
 BYTE   W08
 BYTE   Bn1  v092
 BYTE   W04
 BYTE   N02  Cs2  v100
 BYTE   W32
 BYTE   Fs2  v092
 BYTE   W04
 BYTE   N02
 BYTE   W05
 BYTE   N03  En2
 BYTE   W12
 BYTE   N02  Fs2  v088
 BYTE   W07
 BYTE   En2
 BYTE   W05
// 011   ----------------------------------------
 BYTE   N01  Fs2  v096
 BYTE   W03
 BYTE   N02  Fs2  v092
 BYTE   W04
 BYTE   N03  En2
 BYTE   W12
 BYTE   N02  Fs2
 BYTE   W08
 BYTE   En2
 BYTE   W04
 BYTE   Fs2
 BYTE   W05
 BYTE   N02
 BYTE   W03
 BYTE   En2
 BYTE   W12
 BYTE   Fs2
 BYTE   W09
 BYTE   En2
 BYTE   W03
 BYTE   N06  Fs2
 BYTE   W09
 BYTE   N07  En2
 BYTE   W07
 BYTE   Gs2  v096
 BYTE   W08
 BYTE   En2  v092
 BYTE   W09
// 012   ----------------------------------------
 BYTE   N01  Fs2
 BYTE   W03
 BYTE   N02
 BYTE   W04
 BYTE   En2
 BYTE   W12
 BYTE   Fs2
 BYTE   W08
 BYTE   En2
 BYTE   W04
 BYTE   Fs2
 BYTE   W05
 BYTE   N02
 BYTE   W03
 BYTE   En2
 BYTE   W12
 BYTE   Fs2
 BYTE   W09
 BYTE   En2
 BYTE   W03
 BYTE   N01  Fs2
 BYTE   W04
 BYTE   N02
 BYTE   W05
 BYTE   En2  v096
 BYTE   W12
 BYTE   Fs2  v092
 BYTE   W07
 BYTE   En2
 BYTE   W05
// 013   ----------------------------------------
 BYTE   N07  Fs2
 BYTE   W07
 BYTE   N08  En2  v096
 BYTE   W08
 BYTE   Fs2  v092
 BYTE   W09
 BYTE   N07  En2
 BYTE   W07
 BYTE   N01  Cs2  v088
 BYTE   W05
 BYTE   N03  Cs2  v092
 BYTE   W03
 BYTE   N04  Bn1  v088
 BYTE   W12
 BYTE   N03  Cs2
 BYTE   W09
 BYTE   Cs2  v092
 BYTE   W03
 BYTE   Bn1  v088
 BYTE   W12
 BYTE   Bn1  v084
 BYTE   W04
 BYTE   N02  Cs2  v092
 BYTE   W05
 BYTE   N03  Cs2  v084
 BYTE   W03
 BYTE   N04  Bn1  v092
 BYTE   W09
// 014   ----------------------------------------
 BYTE   N02  Cs2  v088
 BYTE   W03
 BYTE   N03
 BYTE   W04
 BYTE   Bn1
 BYTE   W12
 BYTE   Cs2  v096
 BYTE   W08
 BYTE   Cs2  v088
 BYTE   W04
 BYTE   N04  Bn1
 BYTE   W12
 BYTE   N03  Bn1  v084
 BYTE   W05
 BYTE   N01  Ds2  v092
 BYTE   W03
 BYTE   N03  Ds2  v088
 BYTE   W04
 BYTE   N04  Bn1
 BYTE   W08
 BYTE   N02  Cs2  v084
 BYTE   W04
 BYTE   N03  Cs2  v088
 BYTE   W05
 BYTE   N04  Bn1
 BYTE   W12
 BYTE   N03  Cs2
 BYTE   W07
 BYTE   N03
 BYTE   W05
// 015   ----------------------------------------
 BYTE   N04  Bn1
 BYTE   W12
 BYTE   N03
 BYTE   W03
 BYTE   N02  Cs2
 BYTE   W04
 BYTE   N03  Cs2  v092
 BYTE   W05
 BYTE   N04  Bn1  v088
 BYTE   W07
 BYTE   N02  Cs2  v096
 BYTE   W05
 BYTE   N03  Cs2  v088
 BYTE   W03
 BYTE   N04  Bn1
 BYTE   W12
 BYTE   N03  Ds2  v100
 BYTE   W09
 BYTE   Bn1  v092
 BYTE   W03
 BYTE   N02  Cs2  v100
 BYTE   W32
 BYTE   W01
// 016   ----------------------------------------
Label_4_01186831:
 BYTE   N01  Bn1  v084
 BYTE   W03
 BYTE   N03
 BYTE   W04
 BYTE   N04  An1
 BYTE   W12
 BYTE   N03  Bn1
 BYTE   W08
 BYTE   N03
 BYTE   W04
 BYTE   N04  An1
 BYTE   W12
 BYTE   N03
 BYTE   W05
 BYTE   N02  Cs2
 BYTE   W03
 BYTE   N03
 BYTE   W04
 BYTE   N04  An1
 BYTE   W08
 BYTE   N02  Ds2
 BYTE   W04
 BYTE   N03
 BYTE   W05
 BYTE   Cs2
 BYTE   W12
 BYTE   Ds2
 BYTE   W07
 BYTE   N03
 BYTE   W05
 BYTE   PEND 
// 017   ----------------------------------------
 BYTE   N04  Cs2
 BYTE   W12
 BYTE   N03
 BYTE   W03
 BYTE   N01  Fn2
 BYTE   W04
 BYTE   N03
 BYTE   W05
 BYTE   N04  Cs2
 BYTE   W07
 BYTE   N02  Bn1
 BYTE   W05
 BYTE   N03
 BYTE   W03
 BYTE   N04  An1
 BYTE   W12
 BYTE   N03  Bn1
 BYTE   W09
 BYTE   N03
 BYTE   W03
 BYTE   N04  An1
 BYTE   W12
 BYTE   N03
 BYTE   W04
 BYTE   N02  Cs2
 BYTE   W05
 BYTE   N03
 BYTE   W03
 BYTE   N04  An1
 BYTE   W09
// 018   ----------------------------------------
 BYTE   N02  Ds2
 BYTE   W03
 BYTE   N03
 BYTE   W04
 BYTE   N04  Cs2
 BYTE   W12
 BYTE   N03  Ds2
 BYTE   W08
 BYTE   Cs2
 BYTE   W04
 BYTE   N02  Fn2
 BYTE   W32
 BYTE   N01  Bn1
 BYTE   W04
 BYTE   N03
 BYTE   W05
 BYTE   N04  An1
 BYTE   W12
 BYTE   N03  Bn1
 BYTE   W07
 BYTE   N03
 BYTE   W05
// 019   ----------------------------------------
 BYTE   An1
 BYTE   W12
 BYTE   N03
 BYTE   W03
 BYTE   N02  Cs2
 BYTE   W04
 BYTE   N03
 BYTE   W05
 BYTE   N04  An1
 BYTE   W07
 BYTE   N02  Ds2
 BYTE   W05
 BYTE   N03
 BYTE   W03
 BYTE   Cs2
 BYTE   W12
 BYTE   Ds2
 BYTE   W09
 BYTE   N03
 BYTE   W03
 BYTE   N04  Cs2
 BYTE   W12
 BYTE   N03
 BYTE   W04
 BYTE   N01  Fn2
 BYTE   W05
 BYTE   N03
 BYTE   W03
 BYTE   N04  Cs2
 BYTE   W09
// 020   ----------------------------------------
 BYTE   N02  Bn1
 BYTE   W03
 BYTE   N03
 BYTE   W04
 BYTE   N04  An1
 BYTE   W12
 BYTE   N03  Bn1
 BYTE   W08
 BYTE   N03
 BYTE   W04
 BYTE   N05  An1
 BYTE   W12
 BYTE   N03
 BYTE   W05
 BYTE   N02  Cs2
 BYTE   W03
 BYTE   N03
 BYTE   W04
 BYTE   N04  An1
 BYTE   W08
 BYTE   N02  Ds2
 BYTE   W04
 BYTE   N03
 BYTE   W05
 BYTE   Cs2
 BYTE   W12
 BYTE   Ds2
 BYTE   W07
 BYTE   Cs2
 BYTE   W05
// 021   ----------------------------------------
 BYTE   N02  Fn2
 BYTE   W96
// 022   ----------------------------------------
 BYTE   W96
// 023   ----------------------------------------
 BYTE   W96
// 024   ----------------------------------------
 BYTE   W96
// 025   ----------------------------------------
 BYTE   W96
// 026   ----------------------------------------
 BYTE   W60
 BYTE   W03
 BYTE   Cs2  v096
 BYTE   W04
 BYTE   N04
 BYTE   W05
 BYTE   N03  Bn1  v088
 BYTE   W12
 BYTE   Cs2  v092
 BYTE   W07
 BYTE   Cs2  v088
 BYTE   W05
// 027   ----------------------------------------
 BYTE   N04  Bn1
 BYTE   W12
 BYTE   N03
 BYTE   W03
 BYTE   N02  Cs2  v096
 BYTE   W04
 BYTE   N03  Cs2  v088
 BYTE   W05
 BYTE   N04  Bn1  v084
 BYTE   W07
 BYTE   N02  Cs2  v088
 BYTE   W05
 BYTE   N03  Cs2  v084
 BYTE   W03
 BYTE   Bn1
 BYTE   W12
 BYTE   Cs2  v092
 BYTE   W09
 BYTE   N02  Cs2  v088
 BYTE   W03
 BYTE   N05  Bn1  v092
 BYTE   W12
 BYTE   N03  Bn1  v088
 BYTE   W04
 BYTE   N02  Ds2  v080
 BYTE   W05
 BYTE   N03  Ds2  v076
 BYTE   W03
 BYTE   N04  Bn1  v092
 BYTE   W09
// 028   ----------------------------------------
 BYTE   N01  Cs2  v088
 BYTE   W03
 BYTE   N03
 BYTE   W04
 BYTE   Bn1
 BYTE   W12
 BYTE   Cs2  v096
 BYTE   W08
 BYTE   N03
 BYTE   W04
 BYTE   N04  Bn1  v092
 BYTE   W12
 BYTE   N03  Bn1  v088
 BYTE   W05
 BYTE   N02  Cs2  v096
 BYTE   W03
 BYTE   N03  Cs2  v092
 BYTE   W04
 BYTE   N04  Bn1
 BYTE   W08
 BYTE   N02  Cs2
 BYTE   W04
 BYTE   N03
 BYTE   W05
 BYTE   Bn1  v088
 BYTE   W12
 BYTE   Cs2
 BYTE   W07
 BYTE   Cs2  v092
 BYTE   W05
// 029   ----------------------------------------
 BYTE   N05  Bn1
 BYTE   W12
 BYTE   N03  Bn1  v088
 BYTE   W03
 BYTE   N02  Ds2  v076
 BYTE   W04
 BYTE   Ds2  v072
 BYTE   W05
 BYTE   N04  Bn1  v088
 BYTE   W07
 BYTE   N01  Cs2
 BYTE   W05
 BYTE   N03  Cs2  v092
 BYTE   W03
 BYTE   N04  Bn1  v088
 BYTE   W12
 BYTE   N03  Cs2
 BYTE   W09
 BYTE   Cs2  v092
 BYTE   W03
 BYTE   Bn1  v088
 BYTE   W12
 BYTE   Bn1  v084
 BYTE   W04
 BYTE   N02  Cs2  v092
 BYTE   W05
 BYTE   N03  Cs2  v084
 BYTE   W03
 BYTE   N04  Bn1  v092
 BYTE   W09
// 030   ----------------------------------------
 BYTE   N02  Cs2  v088
 BYTE   W03
 BYTE   N03
 BYTE   W04
 BYTE   Bn1
 BYTE   W12
 BYTE   Cs2  v096
 BYTE   W08
 BYTE   Cs2  v088
 BYTE   W04
 BYTE   N04  Bn1
 BYTE   W12
 BYTE   N03  Bn1  v084
 BYTE   W05
 BYTE   N01  Ds2  v080
 BYTE   W03
 BYTE   N03
 BYTE   W04
 BYTE   N04  Bn1  v088
 BYTE   W08
 BYTE   N02  Cs2  v084
 BYTE   W04
 BYTE   N03  Cs2  v088
 BYTE   W05
 BYTE   N04  Bn1
 BYTE   W12
 BYTE   N03  Cs2
 BYTE   W07
 BYTE   N03
 BYTE   W05
// 031   ----------------------------------------
 BYTE   N04  Bn1
 BYTE   W12
 BYTE   N03
 BYTE   W03
 BYTE   N02  Cs2
 BYTE   W04
 BYTE   N03  Cs2  v092
 BYTE   W05
 BYTE   N04  Bn1  v088
 BYTE   W07
 BYTE   N02  Cs2  v096
 BYTE   W05
 BYTE   N03  Cs2  v088
 BYTE   W03
 BYTE   N04  Bn1
 BYTE   W12
 BYTE   N03  Ds2  v076
 BYTE   W09
 BYTE   Bn1  v092
 BYTE   W03
 BYTE   N02  Cs2  v100
 BYTE   W32
 BYTE   W01
// 032   ----------------------------------------
 BYTE   Fs2  v092
 BYTE   W03
 BYTE   N02
 BYTE   W04
 BYTE   N03  En2
 BYTE   W12
 BYTE   N02  Fs2  v088
 BYTE   W08
 BYTE   En2
 BYTE   W04
 BYTE   Fs2  v096
 BYTE   W05
 BYTE   Fs2  v092
 BYTE   W03
 BYTE   N03  En2
 BYTE   W12
 BYTE   N02  Fs2
 BYTE   W09
 BYTE   En2
 BYTE   W03
 BYTE   N01  Fs2
 BYTE   W04
 BYTE   N02
 BYTE   W05
 BYTE   En2
 BYTE   W12
 BYTE   Fs2
 BYTE   W07
 BYTE   En2
 BYTE   W05
// 033   ----------------------------------------
 BYTE   N06  Fs2
 BYTE   W07
 BYTE   N07  En2
 BYTE   W08
 BYTE   Gs2  v080
 BYTE   W09
 BYTE   En2  v092
 BYTE   W07
 BYTE   N01  Fs2
 BYTE   W05
 BYTE   N02
 BYTE   W03
 BYTE   En2
 BYTE   W12
 BYTE   Fs2
 BYTE   W09
 BYTE   En2
 BYTE   W03
 BYTE   Fs2
 BYTE   W04
 BYTE   N02
 BYTE   W05
 BYTE   En2
 BYTE   W12
 BYTE   Fs2
 BYTE   W07
 BYTE   En2
 BYTE   W05
// 034   ----------------------------------------
 BYTE   N01  Fs2
 BYTE   W03
 BYTE   N02
 BYTE   W04
 BYTE   En2  v096
 BYTE   W12
 BYTE   Fs2  v092
 BYTE   W08
 BYTE   En2
 BYTE   W04
 BYTE   N08  Fs2
 BYTE   W08
 BYTE   En2  v096
 BYTE   W09
 BYTE   N07  Fs2  v092
 BYTE   W07
 BYTE   N08  En2
 BYTE   W08
 BYTE   N01  Cs2  v088
 BYTE   W04
 BYTE   N03  Cs2  v092
 BYTE   W05
 BYTE   N04  Bn1  v088
 BYTE   W12
 BYTE   N03  Cs2
 BYTE   W07
 BYTE   Cs2  v092
 BYTE   W05
// 035   ----------------------------------------
 BYTE   Bn1  v088
 BYTE   W12
 BYTE   Bn1  v084
 BYTE   W03
 BYTE   N02  Cs2  v092
 BYTE   W04
 BYTE   N03  Cs2  v084
 BYTE   W05
 BYTE   N04  Bn1  v092
 BYTE   W07
 BYTE   N02  Cs2  v088
 BYTE   W05
 BYTE   N03
 BYTE   W03
 BYTE   Bn1
 BYTE   W12
 BYTE   Cs2  v096
 BYTE   W09
 BYTE   Cs2  v088
 BYTE   W03
 BYTE   N04  Bn1
 BYTE   W12
 BYTE   N03  Bn1  v084
 BYTE   W04
 BYTE   N01  Ds2  v080
 BYTE   W05
 BYTE   N03
 BYTE   W03
 BYTE   N04  Bn1  v088
 BYTE   W09
// 036   ----------------------------------------
 BYTE   N02  Cs2  v084
 BYTE   W03
 BYTE   N03  Cs2  v088
 BYTE   W04
 BYTE   N04  Bn1
 BYTE   W12
 BYTE   N03  Cs2
 BYTE   W08
 BYTE   N03
 BYTE   W04
 BYTE   N05  Bn1
 BYTE   W12
 BYTE   N03
 BYTE   W05
 BYTE   N02  Cs2
 BYTE   W03
 BYTE   N03  Cs2  v092
 BYTE   W04
 BYTE   N04  Bn1  v088
 BYTE   W08
 BYTE   N02  Cs2  v096
 BYTE   W04
 BYTE   N03  Cs2  v088
 BYTE   W05
 BYTE   Bn1
 BYTE   W12
 BYTE   Ds2  v076
 BYTE   W07
 BYTE   Bn1  v092
 BYTE   W05
// 037   ----------------------------------------
 BYTE   N02  Cs2  v100
 BYTE   W30
 BYTE   W01
 BYTE   N01  Bn1  v084
 BYTE   W05
 BYTE   N03
 BYTE   W03
 BYTE   N04  An1
 BYTE   W12
 BYTE   N03  Bn1
 BYTE   W09
 BYTE   N03
 BYTE   W03
 BYTE   An1
 BYTE   W12
 BYTE   N03
 BYTE   W04
 BYTE   N02  Cs2
 BYTE   W05
 BYTE   N03
 BYTE   W03
 BYTE   N04  An1
 BYTE   W09
// 038   ----------------------------------------
 BYTE   N02  Ds2
 BYTE   W03
 BYTE   N03
 BYTE   W04
 BYTE   Cs2
 BYTE   W12
 BYTE   Ds2
 BYTE   W08
 BYTE   N03
 BYTE   W04
 BYTE   N04  Cs2
 BYTE   W12
 BYTE   N03
 BYTE   W05
 BYTE   N01  Fn2  v076
 BYTE   W03
 BYTE   N03
 BYTE   W04
 BYTE   N04  Cs2  v084
 BYTE   W08
 BYTE   N02  Bn1
 BYTE   W04
 BYTE   N03
 BYTE   W05
 BYTE   N04  An1
 BYTE   W12
 BYTE   N03  Bn1
 BYTE   W07
 BYTE   N03
 BYTE   W05
// 039   ----------------------------------------
 BYTE   N04  An1
 BYTE   W12
 BYTE   N03
 BYTE   W03
 BYTE   N02  Cs2
 BYTE   W04
 BYTE   N03
 BYTE   W05
 BYTE   N04  An1
 BYTE   W07
 BYTE   N02  Ds2
 BYTE   W05
 BYTE   N03
 BYTE   W03
 BYTE   N04  Cs2
 BYTE   W12
 BYTE   N03  Ds2
 BYTE   W09
 BYTE   Cs2
 BYTE   W03
 BYTE   N02  Fn2  v076
 BYTE   W32
 BYTE   W01
 BYTE   PATT
  POIN2 Label_4_01186831
// 040   ----------------------------------------
 BYTE   N04  Cs2  v084
 BYTE   W12
 BYTE   N03
 BYTE   W03
 BYTE   N01  Fn2  v076
 BYTE   W04
 BYTE   N03
 BYTE   W05
 BYTE   N04  Cs2  v084
 BYTE   W07
 BYTE   N02  Bn1
 BYTE   W05
 BYTE   N03
 BYTE   W03
 BYTE   N04  An1
 BYTE   W12
 BYTE   N03  Bn1
 BYTE   W09
 BYTE   N03
 BYTE   W03
 BYTE   N04  An1
 BYTE   W12
 BYTE   N03
 BYTE   W04
 BYTE   N02  Cs2
 BYTE   W05
 BYTE   N03
 BYTE   W03
 BYTE   N04  An1
 BYTE   W09
// 041   ----------------------------------------
 BYTE   N02  Ds2
 BYTE   W03
 BYTE   N03
 BYTE   W04
 BYTE   N04  Cs2
 BYTE   W12
 BYTE   N03  Ds2
 BYTE   W08
 BYTE   Cs2
 BYTE   W04
 BYTE   N02  Fn2
 BYTE   W32
 BYTE   GoTo
  POIN2 Label_4_0118664A
 BYTE   FINE

//**************** Track 6 (Midi-Chn.5) ****************//

KitchenAce_006:
// 000   ----------------------------------------
 BYTE   KEYSH   KitchenAce_key+0
Label_5_01186B6E:
 BYTE   VOICE   63
 BYTE   VOL   62*KitchenAce_mvl/mxv
 BYTE   PAN   c_v+0
 BYTE   W96
// 001   ----------------------------------------
 BYTE   W96
// 002   ----------------------------------------
 BYTE   W96
// 003   ----------------------------------------
 BYTE   W96
// 004   ----------------------------------------
 BYTE   W96
// 005   ----------------------------------------
 BYTE   W96
// 006   ----------------------------------------
 BYTE   W96
// 007   ----------------------------------------
 BYTE   W96
// 008   ----------------------------------------
 BYTE   W96
// 009   ----------------------------------------
 BYTE   W96
// 010   ----------------------------------------
 BYTE   W96
// 011   ----------------------------------------
 BYTE   W96
// 012   ----------------------------------------
 BYTE   W96
// 013   ----------------------------------------
 BYTE   W96
// 014   ----------------------------------------
 BYTE   W96
// 015   ----------------------------------------
 BYTE   W96
// 016   ----------------------------------------
 BYTE   W96
// 017   ----------------------------------------
 BYTE   W96
// 018   ----------------------------------------
 BYTE   W96
// 019   ----------------------------------------
 BYTE   W96
// 020   ----------------------------------------
 BYTE   W96
// 021   ----------------------------------------
 BYTE   W30
 BYTE   W01
 BYTE   N20  As2  v096
 BYTE   W20
 BYTE   N02  Gs2
 BYTE   W09
 BYTE   N03  Gs2  v100
 BYTE   W03
 BYTE   N20  As2  v096
 BYTE   W21
 BYTE   N02  Gs2
 BYTE   W07
 BYTE   N02
 BYTE   W05
// 022   ----------------------------------------
 BYTE   N19  As2
 BYTE   W19
 BYTE   N02  Gs2
 BYTE   W08
 BYTE   N02
 BYTE   W04
 BYTE   N08  As2
 BYTE   W08
 BYTE   Bn2
 BYTE   W09
 BYTE   N07  As2
 BYTE   W07
 BYTE   N08  Gs2
 BYTE   W08
 BYTE   N20  As2
 BYTE   W21
 BYTE   N02  Gs2
 BYTE   W07
 BYTE   N02
 BYTE   W05
// 023   ----------------------------------------
 BYTE   N19  As2
 BYTE   W19
 BYTE   N02  Gs2  v100
 BYTE   W08
 BYTE   Gs2  v096
 BYTE   W04
 BYTE   N20  As2
 BYTE   W20
 BYTE   N02  Gs2
 BYTE   W09
 BYTE   N03
 BYTE   W03
 BYTE   N08  As2  v100
 BYTE   W09
 BYTE   N07  Bn2  v096
 BYTE   W07
 BYTE   N08  As2
 BYTE   W08
 BYTE   Gs2
 BYTE   W09
// 024   ----------------------------------------
 BYTE   N19  As2  v100
 BYTE   W19
 BYTE   N02  Gs2  v096
 BYTE   W08
 BYTE   N02
 BYTE   W04
 BYTE   N20  As2  v100
 BYTE   W20
 BYTE   N02  Gs2
 BYTE   W09
 BYTE   Gs2  v096
 BYTE   W03
 BYTE   N20  As2
 BYTE   W21
 BYTE   N02  Gs2
 BYTE   W07
 BYTE   N03
 BYTE   W05
// 025   ----------------------------------------
 BYTE   N07  As2  v100
 BYTE   W07
 BYTE   N08  Bn2  v096
 BYTE   W08
 BYTE   As2
 BYTE   W09
 BYTE   N07  Gs2
 BYTE   W07
 BYTE   N20  As2
 BYTE   W20
 BYTE   N02  Gs2  v100
 BYTE   W09
 BYTE   Gs2  v096
 BYTE   W03
 BYTE   N20  As2
 BYTE   W21
 BYTE   N02  Gs2
 BYTE   W07
 BYTE   N02
 BYTE   W05
// 026   ----------------------------------------
 BYTE   N19  As2
 BYTE   W19
 BYTE   N02  Gs2  v100
 BYTE   W08
 BYTE   N03  Gs2  v096
 BYTE   W04
 BYTE   N05  As2  v100
 BYTE   W32
 BYTE   N01  As2  v096
 BYTE   W04
 BYTE   N02  As2  v100
 BYTE   W05
 BYTE   Gs2
 BYTE   W12
 BYTE   N01  As2
 BYTE   W07
 BYTE   N02  As2  v096
 BYTE   W05
// 027   ----------------------------------------
 BYTE   Gs2  v100
 BYTE   W12
 BYTE   N01  Gs2  v096
 BYTE   W03
 BYTE   As2
 BYTE   W04
 BYTE   N02
 BYTE   W05
 BYTE   Gs2  v100
 BYTE   W07
 BYTE   N01  As2
 BYTE   W05
 BYTE   As2  v096
 BYTE   W03
 BYTE   N02  Gs2  v100
 BYTE   W12
 BYTE   As2  v096
 BYTE   W09
 BYTE   N01
 BYTE   W03
 BYTE   N02  Gs2  v100
 BYTE   W12
 BYTE   Gs2  v096
 BYTE   W04
 BYTE   N01  Bn2
 BYTE   W05
 BYTE   N02
 BYTE   W03
 BYTE   Gs2  v100
 BYTE   W09
// 028   ----------------------------------------
 BYTE   N01  As2
 BYTE   W03
 BYTE   As2  v096
 BYTE   W04
 BYTE   N02  Gs2  v100
 BYTE   W12
 BYTE   N01  As2  v096
 BYTE   W08
 BYTE   N01
 BYTE   W04
 BYTE   N02  Gs2
 BYTE   W12
 BYTE   N01
 BYTE   W05
 BYTE   As2
 BYTE   W03
 BYTE   N02
 BYTE   W04
 BYTE   Gs2  v100
 BYTE   W08
 BYTE   N01  As2  v096
 BYTE   W04
 BYTE   N02
 BYTE   W05
 BYTE   Gs2  v100
 BYTE   W12
 BYTE   As2  v096
 BYTE   W07
 BYTE   N02
 BYTE   W05
// 029   ----------------------------------------
 BYTE   Gs2  v100
 BYTE   W12
 BYTE   N01  Gs2  v096
 BYTE   W03
 BYTE   Bn2
 BYTE   W04
 BYTE   N02
 BYTE   W05
 BYTE   Gs2  v100
 BYTE   W07
 BYTE   N01  As2  v096
 BYTE   W05
 BYTE   N01
 BYTE   W03
 BYTE   N02  Gs2  v100
 BYTE   W12
 BYTE   As2  v096
 BYTE   W09
 BYTE   N01  As2  v100
 BYTE   W03
 BYTE   N02  Gs2  v096
 BYTE   W12
 BYTE   N01
 BYTE   W04
 BYTE   As2
 BYTE   W05
 BYTE   As2  v100
 BYTE   W03
 BYTE   N02  Gs2
 BYTE   W09
// 030   ----------------------------------------
 BYTE   N01  As2
 BYTE   W03
 BYTE   N02
 BYTE   W04
 BYTE   Gs2
 BYTE   W12
 BYTE   N01  As2  v096
 BYTE   W08
 BYTE   N02  As2  v100
 BYTE   W04
 BYTE   Gs2
 BYTE   W12
 BYTE   Gs2  v096
 BYTE   W05
 BYTE   N01  Bn2
 BYTE   W03
 BYTE   N02
 BYTE   W04
 BYTE   N01  Gs2  v100
 BYTE   W08
 BYTE   As2
 BYTE   W04
 BYTE   N02  As2  v096
 BYTE   W05
 BYTE   Gs2  v100
 BYTE   W12
 BYTE   N01  As2  v096
 BYTE   W07
 BYTE   N02
 BYTE   W05
// 031   ----------------------------------------
 BYTE   Gs2  v100
 BYTE   W12
 BYTE   N01  Gs2  v096
 BYTE   W03
 BYTE   As2
 BYTE   W04
 BYTE   N02
 BYTE   W05
 BYTE   Gs2  v100
 BYTE   W07
 BYTE   N01  As2  v096
 BYTE   W05
 BYTE   N01
 BYTE   W03
 BYTE   N02  Gs2  v100
 BYTE   W12
 BYTE   Bn2  v096
 BYTE   W09
 BYTE   N01  Gs2
 BYTE   W03
 BYTE   As2  v100
 BYTE   W32
 BYTE   W01
// 032   ----------------------------------------
 BYTE   Ds3
 BYTE   W03
 BYTE   Ds3  v096
 BYTE   W04
 BYTE   N02  Cs3  v100
 BYTE   W12
 BYTE   Ds3
 BYTE   W08
 BYTE   N01  Cs3  v096
 BYTE   W04
 BYTE   Ds3  v100
 BYTE   W05
 BYTE   Ds3  v096
 BYTE   W03
 BYTE   N02  Cs3  v100
 BYTE   W12
 BYTE   Ds3
 BYTE   W09
 BYTE   N01  Cs3  v096
 BYTE   W03
 BYTE   Ds3  v100
 BYTE   W04
 BYTE   N02  Ds3  v096
 BYTE   W05
 BYTE   Cs3  v100
 BYTE   W12
 BYTE   N01  Ds3
 BYTE   W07
 BYTE   N02  Cs3
 BYTE   W05
// 033   ----------------------------------------
 BYTE   N06  Ds3
 BYTE   W07
 BYTE   N07  Cs3  v096
 BYTE   W08
 BYTE   N08  En3
 BYTE   W09
 BYTE   N07  Cs3  v100
 BYTE   W07
 BYTE   N02  Ds3
 BYTE   W05
 BYTE   N01  Ds3  v096
 BYTE   W03
 BYTE   N02  Cs3  v100
 BYTE   W12
 BYTE   Ds3
 BYTE   W09
 BYTE   Cs3  v096
 BYTE   W03
 BYTE   N01  Ds3
 BYTE   W04
 BYTE   N02
 BYTE   W05
 BYTE   Cs3  v100
 BYTE   W12
 BYTE   Ds3  v096
 BYTE   W07
 BYTE   Cs3
 BYTE   W05
// 034   ----------------------------------------
 BYTE   N01  Ds3  v100
 BYTE   W03
 BYTE   N02
 BYTE   W04
 BYTE   Cs3
 BYTE   W12
 BYTE   Ds3
 BYTE   W08
 BYTE   Cs3  v096
 BYTE   W04
 BYTE   N06  Ds3  v100
 BYTE   W08
 BYTE   N07  Cs3  v096
 BYTE   W09
 BYTE   N09  Ds3  v100
 BYTE   W07
 BYTE   N04  Cs3  v096
 BYTE   W08
 BYTE   N02  As2
 BYTE   W04
 BYTE   N02
 BYTE   W05
 BYTE   Gs2  v100
 BYTE   W12
 BYTE   N01  As2  v096
 BYTE   W07
 BYTE   N02
 BYTE   W05
// 035   ----------------------------------------
 BYTE   Gs2  v100
 BYTE   W12
 BYTE   N01  Gs2  v096
 BYTE   W03
 BYTE   As2
 BYTE   W04
 BYTE   N02
 BYTE   W05
 BYTE   Gs2  v100
 BYTE   W07
 BYTE   N01  As2  v096
 BYTE   W05
 BYTE   N01
 BYTE   W03
 BYTE   N02  Gs2
 BYTE   W12
 BYTE   As2  v100
 BYTE   W09
 BYTE   N01
 BYTE   W03
 BYTE   N02  Gs2
 BYTE   W12
 BYTE   N02
 BYTE   W04
 BYTE   N01  Bn2  v096
 BYTE   W05
 BYTE   N02  Bn2  v092
 BYTE   W03
 BYTE   N01  Gs2  v100
 BYTE   W09
// 036   ----------------------------------------
 BYTE   As2  v096
 BYTE   W03
 BYTE   As2  v100
 BYTE   W04
 BYTE   N02  Gs2
 BYTE   W12
 BYTE   N01  As2
 BYTE   W08
 BYTE   As2  v096
 BYTE   W04
 BYTE   N02  Gs2  v100
 BYTE   W12
 BYTE   N01  Gs2  v096
 BYTE   W05
 BYTE   As2
 BYTE   W03
 BYTE   N02
 BYTE   W04
 BYTE   Gs2  v100
 BYTE   W08
 BYTE   N01  As2
 BYTE   W04
 BYTE   N02  As2  v096
 BYTE   W05
 BYTE   Gs2
 BYTE   W12
 BYTE   Bn2
 BYTE   W07
 BYTE   Gs2  v100
 BYTE   W05
// 037   ----------------------------------------
 BYTE   N01  As2
 BYTE   W30
 BYTE   W01
 BYTE   Gs2  v096
 BYTE   W05
 BYTE   N02
 BYTE   W03
 BYTE   Fs2
 BYTE   W12
 BYTE   Gs2
 BYTE   W09
 BYTE   N01
 BYTE   W03
 BYTE   N02  Fs2
 BYTE   W12
 BYTE   N02
 BYTE   W04
 BYTE   N01  An2
 BYTE   W05
 BYTE   N01
 BYTE   W03
 BYTE   N02  Fs2  v100
 BYTE   W09
// 038   ----------------------------------------
 BYTE   N01  Bn2  v096
 BYTE   W03
 BYTE   N02
 BYTE   W04
 BYTE   As2
 BYTE   W12
 BYTE   Bn2
 BYTE   W08
 BYTE   N01
 BYTE   W04
 BYTE   N02  As2  v100
 BYTE   W12
 BYTE   As2  v096
 BYTE   W05
 BYTE   N01  Cs3
 BYTE   W03
 BYTE   N02
 BYTE   W04
 BYTE   As2  v100
 BYTE   W08
 BYTE   N01  Gs2  v096
 BYTE   W04
 BYTE   Gs2  v100
 BYTE   W05
 BYTE   N02  Fs2
 BYTE   W12
 BYTE   N01  Gs2  v096
 BYTE   W07
 BYTE   N01
 BYTE   W05
// 039   ----------------------------------------
 BYTE   N02  Fs2
 BYTE   W12
 BYTE   N01
 BYTE   W03
 BYTE   An2
 BYTE   W04
 BYTE   N02
 BYTE   W05
 BYTE   N01  Fs2  v100
 BYTE   W07
 BYTE   Bn2  v096
 BYTE   W05
 BYTE   N01
 BYTE   W03
 BYTE   N02  As2  v100
 BYTE   W12
 BYTE   Bn2  v096
 BYTE   W09
 BYTE   As2
 BYTE   W03
 BYTE   N01  Cs3  v100
 BYTE   W32
 BYTE   W01
// 040   ----------------------------------------
 BYTE   Gs2  v096
 BYTE   W03
 BYTE   N02
 BYTE   W04
 BYTE   Fs2  v100
 BYTE   W12
 BYTE   Gs2  v096
 BYTE   W08
 BYTE   N01
 BYTE   W04
 BYTE   N02  Fs2
 BYTE   W12
 BYTE   N01
 BYTE   W05
 BYTE   An2
 BYTE   W03
 BYTE   N01
 BYTE   W04
 BYTE   N02  Fs2  v100
 BYTE   W08
 BYTE   N01  Bn2  v096
 BYTE   W04
 BYTE   N02
 BYTE   W05
 BYTE   As2
 BYTE   W12
 BYTE   N01  Bn2
 BYTE   W07
 BYTE   N01
 BYTE   W05
// 041   ----------------------------------------
 BYTE   N02  As2  v100
 BYTE   W12
 BYTE   N01  As2  v096
 BYTE   W03
 BYTE   Cs3
 BYTE   W04
 BYTE   N02  Cs3  v100
 BYTE   W05
 BYTE   As2  v096
 BYTE   W07
 BYTE   N01  Gs2
 BYTE   W05
 BYTE   N01
 BYTE   W03
 BYTE   N02  Fs2
 BYTE   W12
 BYTE   N01  Gs2
 BYTE   W09
 BYTE   N01
 BYTE   W03
 BYTE   N02  Fs2
 BYTE   W12
 BYTE   Fs2  v100
 BYTE   W04
 BYTE   N01  An2  v096
 BYTE   W05
 BYTE   N02
 BYTE   W03
 BYTE   N01  Fs2  v100
 BYTE   W09
// 042   ----------------------------------------
 BYTE   Bn2  v096
 BYTE   W03
 BYTE   N02
 BYTE   W04
 BYTE   As2
 BYTE   W12
 BYTE   Bn2
 BYTE   W08
 BYTE   As2
 BYTE   W04
 BYTE   Cs3  v100
 BYTE   W32
 BYTE   GoTo
  POIN2 Label_5_01186B6E
 BYTE   FINE

//**************** Track 7 (Midi-Chn.6) ****************//

KitchenAce_007:
// 000   ----------------------------------------
 BYTE   VOL   80*KitchenAce_mvl/mxv
 BYTE   KEYSH   KitchenAce_key+0
Label_6_01186EB8:
 BYTE   VOICE   127
 BYTE   N01  Bn0  v124
 BYTE   N02  An2  v084
 BYTE   W03
 BYTE   N01  Bn0  v116
 BYTE   W04
 BYTE   N03  En1  v112
 BYTE   N02  As1  v088
 BYTE   W08
 BYTE   N01  Bn0  v127
 BYTE   N02  As1  v068
 BYTE   W04
 BYTE   Bn0  v116
 BYTE   W05
 BYTE   En1  v127
 BYTE   N02  As1  v076
 BYTE   W07
 BYTE   N01  Bn0  v120
 BYTE   N02  As1  v064
 BYTE   W05
 BYTE   N01  Bn0  v112
 BYTE   W03
 BYTE   N02  En1  v124
 BYTE   N02  As1  v056
 BYTE   W09
 BYTE   N01  Bn0  v116
 BYTE   N02  As1  v052
 BYTE   W03
 BYTE   N01  Bn0  v116
 BYTE   W04
 BYTE   N02  En1
 BYTE   N02  As1  v084
 BYTE   W08
 BYTE   N01  Bn0  v124
 BYTE   N02  As1  v068
 BYTE   W04
 BYTE   Bn0  v124
 BYTE   W05
 BYTE   En1  v104
 BYTE   N02  As1  v056
 BYTE   W07
 BYTE   N01  Bn0  v127
 BYTE   N02  As1  v068
 BYTE   W05
 BYTE   Bn0  v120
 BYTE   W03
 BYTE   En1  v116
 BYTE   N02  As1  v064
 BYTE   W09
// 001   ----------------------------------------
 BYTE   Bn0  v127
 BYTE   N02  As1  v060
 BYTE   W07
 BYTE   En1  v127
 BYTE   N02  As1  v056
 BYTE   W08
 BYTE   Bn0  v127
 BYTE   N02  As1  v068
 BYTE   W09
 BYTE   En1  v120
 BYTE   N02  As1  v056
 BYTE   W07
 BYTE   N01  Bn0  v124
 BYTE   N02  An2  v080
 BYTE   W05
 BYTE   Bn0  v116
 BYTE   W03
 BYTE   En1  v127
 BYTE   N01  As1  v096
 BYTE   W09
 BYTE   Bn0  v127
 BYTE   N02  As1  v060
 BYTE   W03
 BYTE   Bn0  v124
 BYTE   W04
 BYTE   En1  v127
 BYTE   N02  As1  v092
 BYTE   W08
 BYTE   N01  Bn0  v124
 BYTE   N02  As1  v080
 BYTE   W04
 BYTE   N01  Bn0  v116
 BYTE   W05
 BYTE   N03  En1  v127
 BYTE   N02  As1  v080
 BYTE   W07
 BYTE   N01  Bn0  v127
 BYTE   N02  As1  v092
 BYTE   W05
 BYTE   N01  Bn0  v116
 BYTE   W03
 BYTE   N03  En1  v127
 BYTE   N02  As1  v080
 BYTE   W09
// 002   ----------------------------------------
 BYTE   N01  Bn0  v127
 BYTE   N02  As1  v076
 BYTE   W03
 BYTE   Bn0  v116
 BYTE   W04
 BYTE   N04  En1  v127
 BYTE   N02  As1  v068
 BYTE   W08
 BYTE   N01  Bn0  v127
 BYTE   N02  As1  v068
 BYTE   W04
 BYTE   Bn0  v116
 BYTE   W05
 BYTE   N03  En1  v127
 BYTE   N02  As1  v080
 BYTE   W07
 BYTE   Bn0  v127
 BYTE   N02  As1  v068
 BYTE   W08
 BYTE   N04  En1  v127
 BYTE   N02  As1  v076
 BYTE   W09
 BYTE   N01  Bn0  v116
 BYTE   N02  As1  v080
 BYTE   W03
 BYTE   Bn0  v104
 BYTE   W04
 BYTE   N03  En1  v116
 BYTE   N02  As1  v084
 BYTE   W08
 BYTE   N03  Bn0  v127
 BYTE   N02  An2  v088
 BYTE   W09
 BYTE   N03  En1  v124
 BYTE   N02  As1  v068
 BYTE   W07
 BYTE   N01  Bn0  v116
 BYTE   N02  As1  v080
 BYTE   W05
 BYTE   Bn0  v124
 BYTE   W03
 BYTE   En1  v127
 BYTE   N02  As1  v068
 BYTE   W09
// 003   ----------------------------------------
 BYTE   N01  Bn0  v127
 BYTE   N02  As1  v068
 BYTE   W03
 BYTE   Bn0  v124
 BYTE   W04
 BYTE   En1  v127
 BYTE   N02  As1  v092
 BYTE   W08
 BYTE   N01  Bn0  v127
 BYTE   N02  As1  v080
 BYTE   W04
 BYTE   Bn0  v124
 BYTE   W05
 BYTE   En1  v120
 BYTE   N02  As1  v084
 BYTE   W07
 BYTE   N01  Bn0  v124
 BYTE   N02  As1  v068
 BYTE   W05
 BYTE   Bn0  v116
 BYTE   W03
 BYTE   En1  v104
 BYTE   N02  As1  v092
 BYTE   W09
 BYTE   N01  Bn0  v120
 BYTE   N02  As1  v076
 BYTE   W03
 BYTE   Bn0  v116
 BYTE   W04
 BYTE   En1  v127
 BYTE   N02  As1  v068
 BYTE   W08
 BYTE   N03  Bn0  v127
 BYTE   N02  As1  v076
 BYTE   W09
 BYTE   En1  v127
 BYTE   N02  As1  v084
 BYTE   W07
 BYTE   N01  Bn0  v127
 BYTE   N02  As1  v068
 BYTE   W05
 BYTE   Bn0  v124
 BYTE   W03
 BYTE   En1  v127
 BYTE   N02  As1  v096
 BYTE   W09
// 004   ----------------------------------------
 BYTE   N03  Bn0  v127
 BYTE   N02  An2  v092
 BYTE   W07
 BYTE   En1  v120
 BYTE   N02  As1  v080
 BYTE   W08
 BYTE   N01  Bn0  v127
 BYTE   N02  As1  v084
 BYTE   W04
 BYTE   Bn0  v116
 BYTE   W05
 BYTE   En1  v127
 BYTE   N02  As1  v068
 BYTE   W07
 BYTE   N01  Bn0  v120
 BYTE   N02  As1  v080
 BYTE   W05
 BYTE   Bn0  v116
 BYTE   W03
 BYTE   En1  v127
 BYTE   N02  As1  v072
 BYTE   W09
 BYTE   N01  Bn0  v127
 BYTE   N02  As1  v080
 BYTE   W03
 BYTE   N01  Bn0  v120
 BYTE   W04
 BYTE   N02  En1  v127
 BYTE   N02  As1  v076
 BYTE   W08
 BYTE   N01  Bn0  v127
 BYTE   N02  As1  v072
 BYTE   W04
 BYTE   Bn0  v127
 BYTE   W05
 BYTE   En1
 BYTE   N02  As1  v080
 BYTE   W07
 BYTE   N01  Bn0  v124
 BYTE   N02  As1  v084
 BYTE   W05
 BYTE   Bn0  v116
 BYTE   W03
 BYTE   En1  v127
 BYTE   N02  As1  v080
 BYTE   W09
// 005   ----------------------------------------
 BYTE   N01  Bn0  v116
 BYTE   N01  En1  v064
 BYTE   N01  Cs2  v084
 BYTE   N01  Dn2  v064
 BYTE   W01
 BYTE   En1  v076
 BYTE   N01  Dn2
 BYTE   W02
 BYTE   En1  v084
 BYTE   N01  Cs2  v004
 BYTE   N01  Dn2  v084
 BYTE   W03
 BYTE   En1  v096
 BYTE   N01  Dn2
 BYTE   W01
 BYTE   Bn0  v127
 BYTE   N01  Cn2  v064
 BYTE   N01  Dn2
 BYTE   W02
 BYTE   Cn2  v076
 BYTE   N01  Dn2
 BYTE   W03
 BYTE   Cn2  v084
 BYTE   N01  Dn2
 BYTE   W01
 BYTE   Cn2  v096
 BYTE   N01  Dn2
 BYTE   W02
 BYTE   Bn0  v127
 BYTE   N01  An1  v064
 BYTE   N01  Cn2
 BYTE   W03
 BYTE   An1  v076
 BYTE   N01  Cn2
 BYTE   W01
 BYTE   An1  v084
 BYTE   N01  Cn2
 BYTE   W02
 BYTE   An1  v096
 BYTE   N01  Cn2
 BYTE   W03
 BYTE   Bn0  v127
 BYTE   N01  Gn1  v064
 BYTE   N01  An1
 BYTE   W01
 BYTE   Gn1  v076
 BYTE   N01  An1
 BYTE   W02
 BYTE   Gn1  v084
 BYTE   N01  An1
 BYTE   W03
 BYTE   Gn1  v096
 BYTE   N01  An1
 BYTE   W01
 BYTE   Cn1  v120
 BYTE   W01
 BYTE   Fs1  v116
 BYTE   W04
 BYTE   Cn1  v104
 BYTE   W03
 BYTE   En1  v127
 BYTE   N02  Fs1  v092
 BYTE   W08
 BYTE   Fs1  v104
 BYTE   W04
 BYTE   N01  Cn1  v112
 BYTE   W04
 BYTE   N02  Fs1  v092
 BYTE   W05
 BYTE   N01  Cn1  v120
 BYTE   W03
 BYTE   En1  v116
 BYTE   N02  Fs1  v112
 BYTE   W08
 BYTE   N02
 BYTE   W04
 BYTE   N01  Cn1
 BYTE   W04
 BYTE   Cn1  v104
 BYTE   N02  Fs1
 BYTE   W05
 BYTE   N01  Cn1  v092
 BYTE   W03
 BYTE   En1  v124
 BYTE   N02  Fs1  v104
 BYTE   W04
 BYTE   N01  Cn1  v112
 BYTE   W05
// 006   ----------------------------------------
 BYTE   Cn1  v127
 BYTE   N02  Fs1  v108
 BYTE   W03
 BYTE   N01  Cn1  v112
 BYTE   W04
 BYTE   En1  v104
 BYTE   N02  Fs1
 BYTE   W09
 BYTE   Fs1  v116
 BYTE   W03
 BYTE   N01  Cn1
 BYTE   W05
 BYTE   N02  Fs1  v124
 BYTE   W03
 BYTE   N01  Cn1  v104
 BYTE   W04
 BYTE   En1  v116
 BYTE   W01
 BYTE   N02  Fs1  v120
 BYTE   W08
 BYTE   N02
 BYTE   W03
 BYTE   N01  Cn1  v116
 BYTE   W05
 BYTE   En1
 BYTE   N02  Fs1  v127
 BYTE   W03
 BYTE   N01  En1  v112
 BYTE   W04
 BYTE   Cn1
 BYTE   W01
 BYTE   N02  Fs1  v120
 BYTE   W07
 BYTE   N01  Cn1  v112
 BYTE   W01
 BYTE   N02  Fs1  v120
 BYTE   W03
 BYTE   N01  Cn1  v112
 BYTE   W05
 BYTE   En1  v124
 BYTE   N02  Fs1  v112
 BYTE   W08
 BYTE   Fs1  v116
 BYTE   W04
 BYTE   N01  Cn1
 BYTE   W04
 BYTE   N02  Fs1  v108
 BYTE   W03
 BYTE   N01  Cn1  v104
 BYTE   W04
 BYTE   N02  Fs1  v116
 BYTE   W01
// 007   ----------------------------------------
 BYTE   N01  En1  v120
 BYTE   W07
 BYTE   N02  Fs1  v116
 BYTE   W05
 BYTE   N01  Cn1  v104
 BYTE   W03
 BYTE   En1  v112
 BYTE   N02  Fs1  v120
 BYTE   W04
 BYTE   N01  Cn1  v112
 BYTE   W04
 BYTE   N02  Fs1  v124
 BYTE   W01
 BYTE   N01  Cn1
 BYTE   W07
 BYTE   Cn1  v104
 BYTE   N02  Fs1  v124
 BYTE   W05
 BYTE   N01  Cn1  v112
 BYTE   W03
 BYTE   En1  v127
 BYTE   N02  Fs1  v124
 BYTE   W09
 BYTE   Fs1  v120
 BYTE   W03
 BYTE   N01  Cn1  v116
 BYTE   W04
 BYTE   N02  Fs1  v127
 BYTE   W05
 BYTE   N01  Cn1  v104
 BYTE   W03
 BYTE   En1  v116
 BYTE   N02  Fs1  v108
 BYTE   W09
 BYTE   Fs1  v116
 BYTE   W03
 BYTE   N01  Cn1
 BYTE   W04
 BYTE   En1  v104
 BYTE   N02  Fs1  v116
 BYTE   W05
 BYTE   N01  Cn1  v104
 BYTE   W03
 BYTE   En1  v124
 BYTE   N02  Fs1  v127
 BYTE   W09
// 008   ----------------------------------------
 BYTE   N01  Cn1  v112
 BYTE   N02  Fs1  v124
 BYTE   W03
 BYTE   N01  Cn1  v104
 BYTE   W04
 BYTE   En1
 BYTE   N02  Fs1  v124
 BYTE   W08
 BYTE   Fs1  v120
 BYTE   W04
 BYTE   N01  Cn1  v104
 BYTE   W05
 BYTE   N02  Fs1  v108
 BYTE   W03
 BYTE   N01  Cn1  v112
 BYTE   W04
 BYTE   En1  v120
 BYTE   N02  Fs1  v127
 BYTE   W08
 BYTE   N01  Fs1  v116
 BYTE   W04
 BYTE   Cn1  v100
 BYTE   W05
 BYTE   Cn1  v112
 BYTE   N02  Fs1  v124
 BYTE   W03
 BYTE   N01  Cn1  v104
 BYTE   W04
 BYTE   En1  v124
 BYTE   N02  Fs1  v120
 BYTE   W05
 BYTE   N01  Cn1  v116
 BYTE   W03
 BYTE   Cn1  v120
 BYTE   N02  Fs1  v108
 BYTE   W04
 BYTE   N01  Cn1  v104
 BYTE   W05
 BYTE   En1  v127
 BYTE   N01  Fs1  v124
 BYTE   W07
 BYTE   N02  Fs1  v116
 BYTE   W05
 BYTE   N01  Cn1
 BYTE   W03
 BYTE   N02  Fs1  v112
 BYTE   W04
 BYTE   N01  Cn1  v124
 BYTE   W05
// 009   ----------------------------------------
 BYTE   En1  v127
 BYTE   N01  Fs1  v116
 BYTE   W07
 BYTE   N02  Fs1  v127
 BYTE   W08
 BYTE   N01  En1  v120
 BYTE   N02  Fs1  v127
 BYTE   W04
 BYTE   N01  Cn1  v120
 BYTE   W05
 BYTE   En1  v127
 BYTE   N02  Fs1
 BYTE   W03
 BYTE   N01  Cn1  v116
 BYTE   W04
 BYTE   Cn1  v127
 BYTE   N02  Fs1  v124
 BYTE   W05
 BYTE   N01  Cn1  v112
 BYTE   W03
 BYTE   En1  v116
 BYTE   N02  Fs1  v124
 BYTE   W09
 BYTE   Fs1  v120
 BYTE   W03
 BYTE   N01  Cn1  v112
 BYTE   W04
 BYTE   N02  Fs1  v104
 BYTE   W05
 BYTE   N01  Cn1  v112
 BYTE   W03
 BYTE   En1  v116
 BYTE   N01  Fs1  v127
 BYTE   W09
 BYTE   Fs1  v112
 BYTE   W03
 BYTE   Cn1
 BYTE   W04
 BYTE   En1  v124
 BYTE   N02  Fs1  v116
 BYTE   W05
 BYTE   N01  Cn1
 BYTE   W03
 BYTE   En1  v124
 BYTE   N01  Fs1  v112
 BYTE   W09
// 010   ----------------------------------------
 BYTE   Cn1  v116
 BYTE   N01  Fs1  v127
 BYTE   W03
 BYTE   Cn1  v120
 BYTE   W04
 BYTE   En1
 BYTE   N02  Fs1  v127
 BYTE   W08
 BYTE   N02
 BYTE   W04
 BYTE   N01  Cn1  v116
 BYTE   W05
 BYTE   Fs1
 BYTE   W03
 BYTE   Cn1  v120
 BYTE   W04
 BYTE   En1  v127
 BYTE   N03  Fs1  v076
 BYTE   W08
 BYTE   N01  As1  v092
 BYTE   W09
 BYTE   As1  v104
 BYTE   W07
 BYTE   As1  v116
 BYTE   W08
 BYTE   N02  Cn1
 BYTE   N01  As1  v068
 BYTE   W09
 BYTE   N02  En1  v112
 BYTE   N01  As1  v084
 BYTE   W07
 BYTE   Cn1  v116
 BYTE   N01  As1  v092
 BYTE   W05
 BYTE   N02  Cn1  v120
 BYTE   W03
 BYTE   N01  En1  v116
 BYTE   N01  As1  v084
 BYTE   W04
 BYTE   N02  Cn1  v127
 BYTE   N01  An2  v080
 BYTE   W05
// 011   ----------------------------------------
 BYTE   W03
 BYTE   N02  Cn1  v124
 BYTE   W04
 BYTE   En1
 BYTE   N01  As1  v076
 BYTE   W08
 BYTE   Cn1  v112
 BYTE   N01  As1  v076
 BYTE   W04
 BYTE   N02  Cn1  v100
 BYTE   W05
 BYTE   En1  v127
 BYTE   N01  As1  v068
 BYTE   W07
 BYTE   N02  Cn1  v124
 BYTE   N01  As1  v080
 BYTE   W08
 BYTE   N02  En1  v127
 BYTE   N01  As1  v068
 BYTE   W09
 BYTE   Cn1  v100
 BYTE   N01  As1  v076
 BYTE   W03
 BYTE   N02  Cn1  v116
 BYTE   W04
 BYTE   N01  En1  v127
 BYTE   N01  As1  v080
 BYTE   W05
 BYTE   N02  Cn1  v127
 BYTE   W03
 BYTE   N01  As1  v080
 BYTE   W04
 BYTE   N02  Cn1  v127
 BYTE   W05
 BYTE   N01  En1
 BYTE   N01  As1  v076
 BYTE   W07
 BYTE   N02  Cn1  v127
 BYTE   N01  As1  v080
 BYTE   W08
 BYTE   N02  En1  v127
 BYTE   N01  As1  v080
 BYTE   W09
// 012   ----------------------------------------
 BYTE   N02  Cn1  v127
 BYTE   N01  As1  v088
 BYTE   W03
 BYTE   N02  Cn1  v112
 BYTE   W04
 BYTE   En1  v127
 BYTE   N01  As1  v080
 BYTE   W08
 BYTE   Cn1  v104
 BYTE   N01  As1  v068
 BYTE   W04
 BYTE   N02  Cn1  v127
 BYTE   W05
 BYTE   En1
 BYTE   N01  As1  v076
 BYTE   W07
 BYTE   N02  Cn1  v127
 BYTE   N01  As1  v068
 BYTE   W08
 BYTE   N02  En1  v127
 BYTE   N01  As1  v092
 BYTE   W09
 BYTE   Cn1  v116
 BYTE   N01  As1  v092
 BYTE   W03
 BYTE   N02  Cn1  v124
 BYTE   W04
 BYTE   N01  En1  v116
 BYTE   N01  As1  v072
 BYTE   W05
 BYTE   N02  Cn1  v116
 BYTE   N01  An2  v100
 BYTE   W07
 BYTE   N02  Cn1  v116
 BYTE   W05
 BYTE   N01  En1
 BYTE   N01  As1  v092
 BYTE   W07
 BYTE   Cn1  v116
 BYTE   N01  As1  v088
 BYTE   W05
 BYTE   N02  Cn1  v124
 BYTE   W03
 BYTE   En1  v127
 BYTE   N01  As1  v080
 BYTE   W09
// 013   ----------------------------------------
 BYTE   Cn1  v124
 BYTE   N01  As1  v076
 BYTE   W03
 BYTE   N02  Cn1  v127
 BYTE   W04
 BYTE   N01  En1  v124
 BYTE   N01  As1  v080
 BYTE   W05
 BYTE   Cn1  v127
 BYTE   W03
 BYTE   Cn1  v120
 BYTE   N01  As1  v072
 BYTE   W04
 BYTE   N02  Cn1  v116
 BYTE   W05
 BYTE   N01  En1  v127
 BYTE   N01  As1  v076
 BYTE   W07
 BYTE   Cn1  v112
 BYTE   N02  Fs1  v124
 BYTE   W05
 BYTE   N01  Cn1  v104
 BYTE   W03
 BYTE   En1
 BYTE   N02  Fs1  v124
 BYTE   W09
 BYTE   Fs1  v120
 BYTE   W03
 BYTE   N01  Cn1  v104
 BYTE   W04
 BYTE   N02  Fs1  v108
 BYTE   W05
 BYTE   N01  Cn1  v112
 BYTE   W03
 BYTE   En1  v120
 BYTE   N02  Fs1  v127
 BYTE   W09
 BYTE   N01  Fs1  v116
 BYTE   W03
 BYTE   Cn1  v100
 BYTE   W04
 BYTE   Cn1  v112
 BYTE   N02  Fs1  v124
 BYTE   W05
 BYTE   N01  Cn1  v104
 BYTE   W03
 BYTE   En1  v124
 BYTE   N02  Fs1  v120
 BYTE   W04
 BYTE   N01  Cn1  v116
 BYTE   W05
// 014   ----------------------------------------
Label_6_0118740A:
 BYTE   N01  Cn1  v120
 BYTE   N01  Fs1  v108
 BYTE   W03
 BYTE   Cn1  v104
 BYTE   W04
 BYTE   En1  v127
 BYTE   N02  Fs1  v124
 BYTE   W08
 BYTE   Fs1  v116
 BYTE   W04
 BYTE   N01  Cn1
 BYTE   W05
 BYTE   N02  Fs1  v112
 BYTE   W03
 BYTE   N01  Cn1  v124
 BYTE   W04
 BYTE   En1  v127
 BYTE   N02  Fs1  v116
 BYTE   W08
 BYTE   Fs1  v127
 BYTE   W09
 BYTE   N01  En1  v120
 BYTE   N02  Fs1  v127
 BYTE   W03
 BYTE   N01  Cn1  v120
 BYTE   W04
 BYTE   En1  v127
 BYTE   N02  Fs1
 BYTE   W05
 BYTE   N01  Cn1  v116
 BYTE   W03
 BYTE   Cn1  v127
 BYTE   N02  Fs1  v124
 BYTE   W04
 BYTE   N01  Cn1  v112
 BYTE   W05
 BYTE   En1  v116
 BYTE   N02  Fs1  v124
 BYTE   W07
 BYTE   Fs1  v120
 BYTE   W05
 BYTE   N01  Cn1  v112
 BYTE   W03
 BYTE   N02  Fs1  v104
 BYTE   W04
 BYTE   N01  Cn1  v112
 BYTE   W05
 BYTE   PEND 
// 015   ----------------------------------------
 BYTE   En1  v116
 BYTE   N01  Fs1  v127
 BYTE   W07
 BYTE   N02  Fs1  v112
 BYTE   W05
 BYTE   N01  Cn1
 BYTE   W03
 BYTE   En1  v124
 BYTE   N02  Fs1  v116
 BYTE   W04
 BYTE   N01  Cn1
 BYTE   W05
 BYTE   En1  v124
 BYTE   N01  Fs1  v112
 BYTE   W07
 BYTE   Cn1  v116
 BYTE   N02  Fs1  v127
 BYTE   W05
 BYTE   N01  Cn1  v120
 BYTE   W03
 BYTE   En1
 BYTE   N02  Fs1  v127
 BYTE   W09
 BYTE   N01
 BYTE   W03
 BYTE   Cn1  v116
 BYTE   W04
 BYTE   N02  Fs1
 BYTE   W05
 BYTE   N01  Cn1  v120
 BYTE   W03
 BYTE   En1  v127
 BYTE   W09
 BYTE   Bn2  v088
 BYTE   W07
 BYTE   N02  Bn2  v100
 BYTE   W08
 BYTE   N01
 BYTE   W09
// 016   ----------------------------------------
 BYTE   Cn1  v112
 BYTE   N01  Bn2  v092
 BYTE   W03
 BYTE   Cn1  v104
 BYTE   W04
 BYTE   En1
 BYTE   N02  Bn2  v100
 BYTE   W08
 BYTE   Bn2  v112
 BYTE   W04
 BYTE   N01  Cn1  v104
 BYTE   W05
 BYTE   N02  Bn2  v100
 BYTE   W03
 BYTE   N01  Cn1  v112
 BYTE   W04
 BYTE   En1  v120
 BYTE   N02  Bn2  v104
 BYTE   W08
 BYTE   Bn2  v100
 BYTE   W04
 BYTE   N01  Cn1
 BYTE   W05
 BYTE   Cn1  v112
 BYTE   N02  Bn2  v100
 BYTE   W03
 BYTE   N01  Cn1  v104
 BYTE   W04
 BYTE   En1  v124
 BYTE   N02  Bn2  v100
 BYTE   W05
 BYTE   N01  Cn1  v116
 BYTE   W03
 BYTE   Cn1  v120
 BYTE   N02  Bn2  v104
 BYTE   W04
 BYTE   N01  Cn1
 BYTE   W05
 BYTE   En1  v127
 BYTE   N02  Bn2  v100
 BYTE   W07
 BYTE   Bn2  v112
 BYTE   W05
 BYTE   N01  Cn1  v116
 BYTE   W03
 BYTE   N02  Bn2  v112
 BYTE   W04
 BYTE   N01  Cn1  v124
 BYTE   W05
// 017   ----------------------------------------
 BYTE   En1  v127
 BYTE   N02  Bn2  v104
 BYTE   W07
 BYTE   N02
 BYTE   W08
 BYTE   N01  En1  v120
 BYTE   N02  Bn2  v088
 BYTE   W04
 BYTE   N01  Cn1  v120
 BYTE   W05
 BYTE   En1  v127
 BYTE   N02  Bn2  v088
 BYTE   W03
 BYTE   N01  Cn1  v116
 BYTE   W04
 BYTE   Cn1  v127
 BYTE   N02  Bn2  v092
 BYTE   W05
 BYTE   N01  Cn1  v112
 BYTE   W03
 BYTE   En1  v116
 BYTE   N02  Bn2  v092
 BYTE   W09
 BYTE   N02
 BYTE   W03
 BYTE   N01  Cn1  v112
 BYTE   W04
 BYTE   N02  Bn2  v092
 BYTE   W05
 BYTE   N01  Cn1  v112
 BYTE   W03
 BYTE   En1  v116
 BYTE   N02  Bn2  v092
 BYTE   W09
 BYTE   Bn2  v104
 BYTE   W03
 BYTE   N01  Cn1  v112
 BYTE   W04
 BYTE   En1  v124
 BYTE   N02  Bn2  v104
 BYTE   W05
 BYTE   N01  Cn1  v116
 BYTE   W03
 BYTE   En1  v124
 BYTE   N02  Bn2  v112
 BYTE   W09
// 018   ----------------------------------------
 BYTE   N01  Cn1  v116
 BYTE   N02  Bn2  v112
 BYTE   W03
 BYTE   N01  Cn1  v120
 BYTE   W04
 BYTE   En1
 BYTE   N02  Bn2  v092
 BYTE   W08
 BYTE   Bn2  v104
 BYTE   W04
 BYTE   N01  Cn1  v116
 BYTE   W05
 BYTE   Bn2  v100
 BYTE   W03
 BYTE   Cn1  v120
 BYTE   W04
 BYTE   En1  v127
 BYTE   N01  Bn2  v112
 BYTE   W08
 BYTE   N02  Ds2  v072
 BYTE   W09
 BYTE   Ds2  v080
 BYTE   W07
 BYTE   Ds2  v096
 BYTE   W08
 BYTE   N01  Cn1  v112
 BYTE   N02  Ds2  v100
 BYTE   W04
 BYTE   N01  Cn1  v104
 BYTE   W05
 BYTE   En1
 BYTE   N02  Ds2  v092
 BYTE   W07
 BYTE   N02
 BYTE   W05
 BYTE   N01  Cn1  v104
 BYTE   W03
 BYTE   N02  Ds2  v092
 BYTE   W04
 BYTE   N01  Cn1  v112
 BYTE   W05
// 019   ----------------------------------------
 BYTE   En1  v120
 BYTE   N02  Ds2  v084
 BYTE   W07
 BYTE   Ds2  v096
 BYTE   W05
 BYTE   N01  Cn1  v100
 BYTE   W03
 BYTE   Cn1  v112
 BYTE   N02  Ds2  v092
 BYTE   W04
 BYTE   N01  Cn1  v104
 BYTE   W05
 BYTE   En1  v124
 BYTE   N02  Ds2  v080
 BYTE   W03
 BYTE   N01  Cn1  v116
 BYTE   W04
 BYTE   Cn1  v120
 BYTE   N02  Ds2  v084
 BYTE   W05
 BYTE   N01  Cn1  v104
 BYTE   W03
 BYTE   En1  v127
 BYTE   N02  Ds2  v096
 BYTE   W09
 BYTE   Ds2  v088
 BYTE   W03
 BYTE   N01  Cn1  v116
 BYTE   W04
 BYTE   N02  Ds2  v084
 BYTE   W05
 BYTE   N01  Cn1  v124
 BYTE   W03
 BYTE   En1  v127
 BYTE   N02  Ds2  v104
 BYTE   W09
 BYTE   Ds2  v096
 BYTE   W07
 BYTE   N01  En1  v120
 BYTE   N02  Ds2  v104
 BYTE   W05
 BYTE   N01  Cn1  v120
 BYTE   W03
 BYTE   En1  v127
 BYTE   N02  Ds2  v100
 BYTE   W04
 BYTE   N01  Cn1  v116
 BYTE   W05
// 020   ----------------------------------------
 BYTE   Cn1  v127
 BYTE   N01  Fn2  v080
 BYTE   W03
 BYTE   Cn1  v112
 BYTE   W04
 BYTE   En1  v116
 BYTE   N01  Fn2  v092
 BYTE   W08
 BYTE   Fn2  v076
 BYTE   W04
 BYTE   Cn1  v112
 BYTE   W05
 BYTE   N02  Fn2  v088
 BYTE   W03
 BYTE   N01  Cn1  v112
 BYTE   W04
 BYTE   En1  v116
 BYTE   N01  Fn2  v080
 BYTE   W08
 BYTE   N02
 BYTE   W04
 BYTE   N01  Cn1  v112
 BYTE   W05
 BYTE   En1  v124
 BYTE   N01  Fn2  v076
 BYTE   W03
 BYTE   Cn1  v116
 BYTE   W04
 BYTE   En1  v124
 BYTE   N02  Fn2  v084
 BYTE   W08
 BYTE   N01  Cn1  v116
 BYTE   N02  Fn2  v100
 BYTE   W04
 BYTE   N01  Cn1  v120
 BYTE   W05
 BYTE   En1
 BYTE   N02  Fn2  v084
 BYTE   W07
 BYTE   Fn2  v104
 BYTE   W05
 BYTE   N01  Cn1  v116
 BYTE   W03
 BYTE   N02  Fn2  v100
 BYTE   W04
 BYTE   N01  Cn1  v120
 BYTE   W05
// 021   ----------------------------------------
 BYTE   En1  v127
 BYTE   N01  Fn2  v104
 BYTE   W30
 BYTE   W01
 BYTE   Bn0  v124
 BYTE   N02  An2  v084
 BYTE   W05
 BYTE   N01  Bn0  v116
 BYTE   W03
 BYTE   N03  En1  v112
 BYTE   N02  As1  v088
 BYTE   W09
 BYTE   N01  Bn0  v127
 BYTE   N02  As1  v068
 BYTE   W03
 BYTE   Bn0  v116
 BYTE   W04
 BYTE   En1  v127
 BYTE   N02  As1  v076
 BYTE   W08
 BYTE   N01  Bn0  v120
 BYTE   N02  As1  v064
 BYTE   W04
 BYTE   Bn0  v112
 BYTE   W05
 BYTE   En1  v124
 BYTE   N02  As1  v056
 BYTE   W07
 BYTE   N01  Bn0  v116
 BYTE   N02  As1  v052
 BYTE   W05
 BYTE   N01  Bn0  v116
 BYTE   W03
 BYTE   N02  En1
 BYTE   N02  As1  v084
 BYTE   W09
// 022   ----------------------------------------
 BYTE   N01  Bn0  v124
 BYTE   N02  As1  v068
 BYTE   W03
 BYTE   Bn0  v124
 BYTE   W04
 BYTE   En1  v104
 BYTE   N02  As1  v056
 BYTE   W08
 BYTE   N01  Bn0  v127
 BYTE   N02  As1  v068
 BYTE   W04
 BYTE   Bn0  v120
 BYTE   W05
 BYTE   En1  v116
 BYTE   N02  As1  v064
 BYTE   W07
 BYTE   Bn0  v127
 BYTE   N02  As1  v060
 BYTE   W08
 BYTE   En1  v127
 BYTE   N02  As1  v056
 BYTE   W09
 BYTE   Bn0  v127
 BYTE   N02  As1  v068
 BYTE   W07
 BYTE   En1  v120
 BYTE   N02  As1  v056
 BYTE   W08
 BYTE   N01  Bn0  v124
 BYTE   N02  An2  v080
 BYTE   W04
 BYTE   Bn0  v116
 BYTE   W05
 BYTE   En1  v127
 BYTE   N01  As1  v096
 BYTE   W07
 BYTE   Bn0  v127
 BYTE   N02  As1  v060
 BYTE   W05
 BYTE   N01  Bn0  v124
 BYTE   W03
 BYTE   N02  En1  v127
 BYTE   N02  As1  v092
 BYTE   W09
// 023   ----------------------------------------
 BYTE   N01  Bn0  v124
 BYTE   N02  As1  v080
 BYTE   W03
 BYTE   N01  Bn0  v116
 BYTE   W04
 BYTE   N03  En1  v127
 BYTE   N02  As1  v080
 BYTE   W08
 BYTE   N01  Bn0  v127
 BYTE   N02  As1  v092
 BYTE   W04
 BYTE   Bn0  v116
 BYTE   W05
 BYTE   En1  v127
 BYTE   N02  As1  v080
 BYTE   W07
 BYTE   N01  Bn0  v127
 BYTE   N02  As1  v076
 BYTE   W05
 BYTE   Bn0  v116
 BYTE   W03
 BYTE   N04  En1  v127
 BYTE   N02  As1  v068
 BYTE   W09
 BYTE   N01  Bn0  v127
 BYTE   N02  As1  v068
 BYTE   W03
 BYTE   Bn0  v116
 BYTE   W04
 BYTE   N03  En1  v127
 BYTE   N02  As1  v080
 BYTE   W08
 BYTE   Bn0  v127
 BYTE   N02  As1  v068
 BYTE   W09
 BYTE   N04  En1  v127
 BYTE   N02  As1  v076
 BYTE   W07
 BYTE   N01  Bn0  v116
 BYTE   N02  As1  v080
 BYTE   W05
 BYTE   Bn0  v104
 BYTE   W03
 BYTE   N03  En1  v116
 BYTE   N02  As1  v084
 BYTE   W09
// 024   ----------------------------------------
 BYTE   N03  Bn0  v127
 BYTE   N02  An2  v088
 BYTE   W07
 BYTE   N03  En1  v124
 BYTE   N02  As1  v068
 BYTE   W08
 BYTE   N01  Bn0  v116
 BYTE   N02  As1  v080
 BYTE   W04
 BYTE   Bn0  v124
 BYTE   W05
 BYTE   En1  v127
 BYTE   N02  As1  v068
 BYTE   W07
 BYTE   N01  Bn0  v127
 BYTE   N02  As1  v068
 BYTE   W05
 BYTE   Bn0  v124
 BYTE   W03
 BYTE   En1  v127
 BYTE   N02  As1  v092
 BYTE   W09
 BYTE   N01  Bn0  v127
 BYTE   N02  As1  v080
 BYTE   W03
 BYTE   Bn0  v124
 BYTE   W04
 BYTE   En1  v120
 BYTE   N02  As1  v084
 BYTE   W08
 BYTE   N01  Bn0  v124
 BYTE   N02  As1  v068
 BYTE   W04
 BYTE   Bn0  v116
 BYTE   W05
 BYTE   En1  v104
 BYTE   N02  As1  v092
 BYTE   W07
 BYTE   N01  Bn0  v120
 BYTE   N02  As1  v076
 BYTE   W05
 BYTE   Bn0  v116
 BYTE   W03
 BYTE   En1  v127
 BYTE   N02  As1  v068
 BYTE   W09
// 025   ----------------------------------------
 BYTE   N03  Bn0  v127
 BYTE   N02  As1  v076
 BYTE   W07
 BYTE   N03  En1  v127
 BYTE   N02  As1  v084
 BYTE   W08
 BYTE   N01  Bn0  v127
 BYTE   N02  As1  v068
 BYTE   W04
 BYTE   Bn0  v124
 BYTE   W05
 BYTE   En1  v127
 BYTE   N02  As1  v096
 BYTE   W07
 BYTE   N04  Bn0  v127
 BYTE   N02  An2  v092
 BYTE   W08
 BYTE   En1  v120
 BYTE   N02  As1  v080
 BYTE   W09
 BYTE   N01  Bn0  v127
 BYTE   N02  As1  v084
 BYTE   W03
 BYTE   Bn0  v116
 BYTE   W04
 BYTE   En1  v127
 BYTE   N02  As1  v068
 BYTE   W08
 BYTE   N01  Bn0  v120
 BYTE   N02  As1  v080
 BYTE   W04
 BYTE   Bn0  v116
 BYTE   W05
 BYTE   En1  v127
 BYTE   N02  As1  v072
 BYTE   W07
 BYTE   N01  Bn0  v127
 BYTE   N02  As1  v080
 BYTE   W05
 BYTE   N01  Bn0  v120
 BYTE   W03
 BYTE   N02  En1  v127
 BYTE   N02  As1  v076
 BYTE   W09
// 026   ----------------------------------------
 BYTE   N01  Bn0  v127
 BYTE   N02  As1  v072
 BYTE   W03
 BYTE   Bn0  v127
 BYTE   W04
 BYTE   En1
 BYTE   N02  As1  v080
 BYTE   W08
 BYTE   N01  Bn0  v124
 BYTE   N02  As1  v084
 BYTE   W04
 BYTE   Bn0  v116
 BYTE   W05
 BYTE   En1  v127
 BYTE   N01  As1  v080
 BYTE   W07
 BYTE   Bn0  v116
 BYTE   N01  En1  v064
 BYTE   N02  Cs2  v084
 BYTE   N01  Dn2  v064
 BYTE   W02
 BYTE   En1  v076
 BYTE   N01  Dn2
 BYTE   W03
 BYTE   En1  v084
 BYTE   N01  Cs2  v004
 BYTE   N01  Dn2  v084
 BYTE   W01
 BYTE   En1  v096
 BYTE   N01  Dn2
 BYTE   W02
 BYTE   Bn0  v127
 BYTE   N01  Cn2  v064
 BYTE   N01  Dn2
 BYTE   W03
 BYTE   Cn2  v076
 BYTE   N01  Dn2
 BYTE   W01
 BYTE   Cn2  v084
 BYTE   N01  Dn2
 BYTE   W02
 BYTE   Cn2  v096
 BYTE   N01  Dn2
 BYTE   W03
 BYTE   Bn0  v127
 BYTE   N01  An1  v064
 BYTE   N01  Cn2
 BYTE   W01
 BYTE   An1  v076
 BYTE   N01  Cn2
 BYTE   W02
 BYTE   An1  v084
 BYTE   N01  Cn2
 BYTE   W03
 BYTE   An1  v096
 BYTE   N01  Cn2
 BYTE   W01
 BYTE   N02  Bn0  v127
 BYTE   N01  Gn1  v064
 BYTE   N01  An1
 BYTE   W02
 BYTE   Gn1  v076
 BYTE   N01  An1
 BYTE   W03
 BYTE   Gn1  v084
 BYTE   N01  An1
 BYTE   W01
 BYTE   Gn1  v096
 BYTE   N01  An1
 BYTE   W02
 BYTE   Cn1  v120
 BYTE   N01  Fs1  v116
 BYTE   W04
 BYTE   N02  Cn1  v104
 BYTE   W04
 BYTE   Fs1  v092
 BYTE   W01
 BYTE   N01  En1  v127
 BYTE   W07
 BYTE   N02  Fs1  v104
 BYTE   W05
 BYTE   N01  Cn1  v112
 BYTE   W03
 BYTE   N02  Fs1  v092
 BYTE   W04
 BYTE   N01  Cn1  v120
 BYTE   W04
 BYTE   N02  Fs1  v112
 BYTE   W01
// 027   ----------------------------------------
 BYTE   N01  En1  v116
 BYTE   W07
 BYTE   N02  Fs1  v112
 BYTE   W05
 BYTE   N01  Cn1
 BYTE   W03
 BYTE   Cn1  v104
 BYTE   N02  Fs1
 BYTE   W04
 BYTE   N01  Cn1  v092
 BYTE   W05
 BYTE   En1  v124
 BYTE   N02  Fs1  v104
 BYTE   W03
 BYTE   N01  Cn1  v112
 BYTE   W04
 BYTE   Cn1  v127
 BYTE   N02  Fs1  v108
 BYTE   W05
 BYTE   N01  Cn1  v112
 BYTE   W03
 BYTE   En1  v104
 BYTE   N02  Fs1
 BYTE   W09
 BYTE   Fs1  v116
 BYTE   W03
 BYTE   N01  Cn1
 BYTE   W05
 BYTE   N02  Fs1  v124
 BYTE   W04
 BYTE   N01  Cn1  v104
 BYTE   W03
 BYTE   En1  v116
 BYTE   W01
 BYTE   N02  Fs1  v120
 BYTE   W08
 BYTE   N02
 BYTE   W03
 BYTE   N01  Cn1  v116
 BYTE   W04
 BYTE   En1
 BYTE   W01
 BYTE   N02  Fs1  v127
 BYTE   W04
 BYTE   N01  En1  v112
 BYTE   W03
 BYTE   Cn1
 BYTE   N02  Fs1  v120
 BYTE   W09
// 028   ----------------------------------------
 BYTE   N01  Cn1  v112
 BYTE   N02  Fs1  v120
 BYTE   W03
 BYTE   N01  Cn1  v112
 BYTE   W04
 BYTE   En1  v124
 BYTE   W01
 BYTE   N02  Fs1  v112
 BYTE   W08
 BYTE   Fs1  v116
 BYTE   W03
 BYTE   N01  Cn1
 BYTE   W05
 BYTE   N02  Fs1  v108
 BYTE   W03
 BYTE   N01  Cn1  v104
 BYTE   W04
 BYTE   En1  v120
 BYTE   N02  Fs1  v116
 BYTE   W08
 BYTE   N02
 BYTE   W04
 BYTE   N01  Cn1  v104
 BYTE   W04
 BYTE   N02  Fs1  v120
 BYTE   W01
 BYTE   N01  En1  v112
 BYTE   W03
 BYTE   Cn1
 BYTE   W04
 BYTE   Cn1  v124
 BYTE   N02  Fs1
 BYTE   W08
 BYTE   N01  Cn1  v104
 BYTE   N02  Fs1  v124
 BYTE   W04
 BYTE   N01  Cn1  v112
 BYTE   W05
 BYTE   En1  v127
 BYTE   N02  Fs1  v124
 BYTE   W07
 BYTE   Fs1  v120
 BYTE   W05
 BYTE   N01  Cn1  v116
 BYTE   W03
 BYTE   N02  Fs1  v127
 BYTE   W04
 BYTE   N01  Cn1  v104
 BYTE   W05
// 029   ----------------------------------------
 BYTE   En1  v116
 BYTE   N02  Fs1  v108
 BYTE   W07
 BYTE   Fs1  v116
 BYTE   W05
 BYTE   N01  Cn1
 BYTE   W03
 BYTE   En1  v104
 BYTE   N02  Fs1  v116
 BYTE   W04
 BYTE   N01  Cn1  v104
 BYTE   W05
 BYTE   En1  v124
 BYTE   N02  Fs1  v127
 BYTE   W07
 BYTE   N01  Cn1  v112
 BYTE   N02  Fs1  v124
 BYTE   W05
 BYTE   N01  Cn1  v104
 BYTE   W03
 BYTE   En1
 BYTE   N02  Fs1  v124
 BYTE   W09
 BYTE   Fs1  v120
 BYTE   W03
 BYTE   N01  Cn1  v104
 BYTE   W04
 BYTE   N02  Fs1  v108
 BYTE   W05
 BYTE   N01  Cn1  v112
 BYTE   W03
 BYTE   En1  v120
 BYTE   N02  Fs1  v127
 BYTE   W09
 BYTE   N01  Fs1  v116
 BYTE   W03
 BYTE   Cn1  v100
 BYTE   W04
 BYTE   Cn1  v112
 BYTE   N02  Fs1  v124
 BYTE   W05
 BYTE   N01  Cn1  v104
 BYTE   W03
 BYTE   En1  v124
 BYTE   N02  Fs1  v120
 BYTE   W04
 BYTE   N01  Cn1  v116
 BYTE   W05
 BYTE   PATT
  POIN2 Label_6_0118740A
// 030   ----------------------------------------
 BYTE   N01  En1  v116
 BYTE   N01  Fs1  v127
 BYTE   W07
 BYTE   N02  Fs1  v112
 BYTE   W05
 BYTE   N01  Cn1
 BYTE   W03
 BYTE   En1  v124
 BYTE   N02  Fs1  v116
 BYTE   W04
 BYTE   N01  Cn1
 BYTE   W05
 BYTE   En1  v124
 BYTE   N01  Fs1  v112
 BYTE   W07
 BYTE   Cn1  v116
 BYTE   N02  Fs1  v127
 BYTE   W05
 BYTE   N01  Cn1  v120
 BYTE   W03
 BYTE   En1
 BYTE   N02  Fs1  v127
 BYTE   W09
 BYTE   N01
 BYTE   W03
 BYTE   Cn1  v116
 BYTE   W04
 BYTE   N02  Fs1
 BYTE   W05
 BYTE   N01  Cn1  v120
 BYTE   W03
 BYTE   En1  v127
 BYTE   N03  Fs1  v076
 BYTE   W09
 BYTE   N01  As1  v092
 BYTE   W07
 BYTE   N02  As1  v104
 BYTE   W08
 BYTE   N01  As1  v116
 BYTE   W09
// 031   ----------------------------------------
 BYTE   N02  Cn1
 BYTE   N01  As1  v068
 BYTE   W07
 BYTE   N02  En1  v112
 BYTE   N01  As1  v084
 BYTE   W08
 BYTE   Cn1  v116
 BYTE   N01  As1  v092
 BYTE   W04
 BYTE   N02  Cn1  v120
 BYTE   W05
 BYTE   N01  En1  v116
 BYTE   N01  As1  v084
 BYTE   W03
 BYTE   N02  Cn1  v127
 BYTE   N01  An2  v080
 BYTE   W09
 BYTE   N02  Cn1  v124
 BYTE   W03
 BYTE   En1
 BYTE   N01  As1  v076
 BYTE   W09
 BYTE   Cn1  v112
 BYTE   N01  As1  v076
 BYTE   W03
 BYTE   N02  Cn1  v100
 BYTE   W04
 BYTE   En1  v127
 BYTE   N01  As1  v068
 BYTE   W08
 BYTE   N02  Cn1  v124
 BYTE   N01  As1  v080
 BYTE   W09
 BYTE   N02  En1  v127
 BYTE   N01  As1  v068
 BYTE   W07
 BYTE   N02  Cn1  v100
 BYTE   N01  As1  v076
 BYTE   W05
 BYTE   N02  Cn1  v116
 BYTE   W03
 BYTE   N01  En1  v127
 BYTE   N01  As1  v080
 BYTE   W04
 BYTE   N02  Cn1  v127
 BYTE   W05
// 032   ----------------------------------------
 BYTE   N01  As1  v080
 BYTE   W03
 BYTE   N02  Cn1  v127
 BYTE   W04
 BYTE   En1
 BYTE   N01  As1  v076
 BYTE   W08
 BYTE   N02  Cn1  v127
 BYTE   N01  As1  v080
 BYTE   W09
 BYTE   N02  En1  v127
 BYTE   N01  As1  v080
 BYTE   W07
 BYTE   N02  Cn1  v127
 BYTE   N01  As1  v088
 BYTE   W05
 BYTE   N02  Cn1  v112
 BYTE   W03
 BYTE   En1  v127
 BYTE   N01  As1  v080
 BYTE   W09
 BYTE   Cn1  v104
 BYTE   N01  As1  v068
 BYTE   W03
 BYTE   N02  Cn1  v127
 BYTE   W04
 BYTE   En1
 BYTE   N01  As1  v076
 BYTE   W08
 BYTE   N02  Cn1  v127
 BYTE   N01  As1  v068
 BYTE   W09
 BYTE   N02  En1  v127
 BYTE   N01  As1  v092
 BYTE   W07
 BYTE   Cn1  v116
 BYTE   N01  As1  v092
 BYTE   W05
 BYTE   N02  Cn1  v124
 BYTE   W03
 BYTE   N01  En1  v116
 BYTE   N01  As1  v072
 BYTE   W04
 BYTE   N02  Cn1  v116
 BYTE   N01  An2  v100
 BYTE   W05
// 033   ----------------------------------------
 BYTE   W03
 BYTE   N02  Cn1  v116
 BYTE   W04
 BYTE   En1
 BYTE   N01  As1  v092
 BYTE   W08
 BYTE   Cn1  v116
 BYTE   N01  As1  v088
 BYTE   W04
 BYTE   N02  Cn1  v124
 BYTE   W05
 BYTE   N01  En1  v127
 BYTE   N01  As1  v080
 BYTE   W07
 BYTE   N02  Cn1  v124
 BYTE   N01  As1  v076
 BYTE   W05
 BYTE   N02  Cn1  v127
 BYTE   W03
 BYTE   N01  En1  v124
 BYTE   N01  As1  v080
 BYTE   W04
 BYTE   Cn1  v127
 BYTE   W05
 BYTE   Cn1  v120
 BYTE   N01  As1  v072
 BYTE   W03
 BYTE   N02  Cn1  v116
 BYTE   W04
 BYTE   N01  En1  v127
 BYTE   N01  As1  v076
 BYTE   W08
 BYTE   Cn1  v112
 BYTE   N02  Fs1  v124
 BYTE   W04
 BYTE   N01  Cn1  v104
 BYTE   W05
 BYTE   En1
 BYTE   N01  Fs1  v124
 BYTE   W07
 BYTE   N02  Fs1  v120
 BYTE   W05
 BYTE   N01  Cn1  v104
 BYTE   W03
 BYTE   N02  Fs1  v108
 BYTE   W04
 BYTE   N01  Cn1  v112
 BYTE   W05
// 034   ----------------------------------------
 BYTE   En1  v120
 BYTE   N02  Fs1  v127
 BYTE   W07
 BYTE   Fs1  v116
 BYTE   W05
 BYTE   N01  Cn1  v100
 BYTE   W03
 BYTE   Cn1  v112
 BYTE   N02  Fs1  v124
 BYTE   W04
 BYTE   N01  Cn1  v104
 BYTE   W05
 BYTE   En1  v124
 BYTE   N02  Fs1  v120
 BYTE   W03
 BYTE   N01  Cn1  v116
 BYTE   W04
 BYTE   Cn1  v120
 BYTE   N02  Fs1  v108
 BYTE   W05
 BYTE   N01  Cn1  v104
 BYTE   W03
 BYTE   En1  v127
 BYTE   N02  Fs1  v124
 BYTE   W09
 BYTE   N01  Fs1  v116
 BYTE   W03
 BYTE   Cn1
 BYTE   W04
 BYTE   N02  Fs1  v112
 BYTE   W05
 BYTE   N01  Cn1  v124
 BYTE   W03
 BYTE   En1  v127
 BYTE   N02  Fs1  v116
 BYTE   W09
 BYTE   Fs1  v127
 BYTE   W07
 BYTE   N01  En1  v120
 BYTE   N02  Fs1  v127
 BYTE   W05
 BYTE   N01  Cn1  v120
 BYTE   W03
 BYTE   En1  v127
 BYTE   N02  Fs1
 BYTE   W04
 BYTE   N01  Cn1  v116
 BYTE   W05
// 035   ----------------------------------------
 BYTE   Cn1  v127
 BYTE   N01  Fs1  v124
 BYTE   W03
 BYTE   Cn1  v112
 BYTE   W04
 BYTE   En1  v116
 BYTE   N02  Fs1  v124
 BYTE   W08
 BYTE   Fs1  v120
 BYTE   W04
 BYTE   N01  Cn1  v112
 BYTE   W05
 BYTE   N02  Fs1  v104
 BYTE   W03
 BYTE   N01  Cn1  v112
 BYTE   W04
 BYTE   En1  v116
 BYTE   N02  Fs1  v127
 BYTE   W08
 BYTE   Fs1  v112
 BYTE   W04
 BYTE   N01  Cn1
 BYTE   W05
 BYTE   En1  v124
 BYTE   N02  Fs1  v116
 BYTE   W03
 BYTE   N01  Cn1
 BYTE   W04
 BYTE   En1  v124
 BYTE   N02  Fs1  v112
 BYTE   W08
 BYTE   N01  Cn1  v116
 BYTE   N02  Fs1  v127
 BYTE   W04
 BYTE   N01  Cn1  v120
 BYTE   W05
 BYTE   En1
 BYTE   N01  Fs1  v127
 BYTE   W07
 BYTE   N02
 BYTE   W05
 BYTE   N01  Cn1  v116
 BYTE   W03
 BYTE   N02  Fs1
 BYTE   W04
 BYTE   N01  Cn1  v120
 BYTE   W05
// 036   ----------------------------------------
 BYTE   En1  v127
 BYTE   W07
 BYTE   Bn2  v088
 BYTE   W08
 BYTE   N02  Bn2  v100
 BYTE   W09
 BYTE   N01
 BYTE   W07
 BYTE   Cn1  v112
 BYTE   N02  Bn2  v092
 BYTE   W05
 BYTE   N01  Cn1  v104
 BYTE   W03
 BYTE   En1
 BYTE   N02  Bn2  v100
 BYTE   W09
 BYTE   N01  Bn2  v112
 BYTE   W03
 BYTE   Cn1  v104
 BYTE   W04
 BYTE   N02  Bn2  v100
 BYTE   W05
 BYTE   N01  Cn1  v112
 BYTE   W03
 BYTE   En1  v120
 BYTE   N02  Bn2  v104
 BYTE   W09
 BYTE   Bn2  v100
 BYTE   W03
 BYTE   N01  Cn1
 BYTE   W04
 BYTE   Cn1  v112
 BYTE   N02  Bn2  v100
 BYTE   W05
 BYTE   N01  Cn1  v104
 BYTE   W03
 BYTE   En1  v124
 BYTE   N02  Bn2  v100
 BYTE   W04
 BYTE   N01  Cn1  v116
 BYTE   W05
// 037   ----------------------------------------
 BYTE   Cn1  v120
 BYTE   N02  Bn2  v104
 BYTE   W03
 BYTE   N01  Cn1
 BYTE   W04
 BYTE   En1  v127
 BYTE   N02  Bn2  v100
 BYTE   W08
 BYTE   Bn2  v112
 BYTE   W04
 BYTE   N01  Cn1  v116
 BYTE   W05
 BYTE   N02  Bn2  v112
 BYTE   W03
 BYTE   N01  Cn1  v124
 BYTE   W04
 BYTE   En1  v127
 BYTE   N02  Bn2  v104
 BYTE   W08
 BYTE   N02
 BYTE   W09
 BYTE   N01  En1  v120
 BYTE   N02  Bn2  v088
 BYTE   W03
 BYTE   N01  Cn1  v120
 BYTE   W04
 BYTE   En1  v127
 BYTE   N02  Bn2  v088
 BYTE   W05
 BYTE   N01  Cn1  v116
 BYTE   W03
 BYTE   Cn1  v127
 BYTE   N02  Bn2  v092
 BYTE   W04
 BYTE   N01  Cn1  v112
 BYTE   W05
 BYTE   En1  v116
 BYTE   N02  Bn2  v092
 BYTE   W07
 BYTE   N02
 BYTE   W05
 BYTE   N01  Cn1  v112
 BYTE   W03
 BYTE   N02  Bn2  v092
 BYTE   W04
 BYTE   N01  Cn1  v112
 BYTE   W05
// 038   ----------------------------------------
 BYTE   En1  v116
 BYTE   N02  Bn2  v092
 BYTE   W07
 BYTE   Bn2  v104
 BYTE   W05
 BYTE   N01  Cn1  v112
 BYTE   W03
 BYTE   En1  v124
 BYTE   N02  Bn2  v104
 BYTE   W04
 BYTE   N01  Cn1  v116
 BYTE   W05
 BYTE   En1  v124
 BYTE   N02  Bn2  v112
 BYTE   W07
 BYTE   N01  Cn1  v116
 BYTE   N02  Bn2  v112
 BYTE   W05
 BYTE   N01  Cn1  v120
 BYTE   W03
 BYTE   En1
 BYTE   N02  Bn2  v092
 BYTE   W09
 BYTE   Bn2  v104
 BYTE   W03
 BYTE   N01  Cn1  v116
 BYTE   W04
 BYTE   N02  Bn2  v100
 BYTE   W05
 BYTE   N01  Cn1  v120
 BYTE   W03
 BYTE   En1  v127
 BYTE   N01  Bn2  v112
 BYTE   W09
 BYTE   N02  Ds2  v072
 BYTE   W07
 BYTE   Ds2  v080
 BYTE   W08
 BYTE   Ds2  v096
 BYTE   W09
// 039   ----------------------------------------
 BYTE   N01  Cn1  v112
 BYTE   N02  Ds2  v100
 BYTE   W03
 BYTE   N01  Cn1  v104
 BYTE   W04
 BYTE   En1
 BYTE   N02  Ds2  v092
 BYTE   W08
 BYTE   N02
 BYTE   W04
 BYTE   N01  Cn1  v104
 BYTE   W05
 BYTE   N02  Ds2  v092
 BYTE   W03
 BYTE   N01  Cn1  v112
 BYTE   W04
 BYTE   En1  v120
 BYTE   N02  Ds2  v084
 BYTE   W08
 BYTE   Ds2  v096
 BYTE   W04
 BYTE   N01  Cn1  v100
 BYTE   W05
 BYTE   Cn1  v112
 BYTE   N02  Ds2  v092
 BYTE   W03
 BYTE   N01  Cn1  v104
 BYTE   W04
 BYTE   En1  v124
 BYTE   N02  Ds2  v080
 BYTE   W05
 BYTE   N01  Cn1  v116
 BYTE   W03
 BYTE   Cn1  v120
 BYTE   N02  Ds2  v084
 BYTE   W04
 BYTE   N01  Cn1  v104
 BYTE   W05
 BYTE   En1  v127
 BYTE   N02  Ds2  v096
 BYTE   W07
 BYTE   Ds2  v088
 BYTE   W05
 BYTE   N01  Cn1  v116
 BYTE   W03
 BYTE   N02  Ds2  v084
 BYTE   W04
 BYTE   N01  Cn1  v124
 BYTE   W05
// 040   ----------------------------------------
 BYTE   En1  v127
 BYTE   N02  Ds2  v104
 BYTE   W07
 BYTE   Ds2  v096
 BYTE   W08
 BYTE   N01  En1  v120
 BYTE   N02  Ds2  v104
 BYTE   W04
 BYTE   N01  Cn1  v120
 BYTE   W05
 BYTE   En1  v127
 BYTE   N02  Ds2  v100
 BYTE   W03
 BYTE   N01  Cn1  v116
 BYTE   W04
 BYTE   Cn1  v127
 BYTE   N02  Fn2  v080
 BYTE   W05
 BYTE   N01  Cn1  v112
 BYTE   W03
 BYTE   En1  v116
 BYTE   N01  Fn2  v092
 BYTE   W09
 BYTE   Fn2  v076
 BYTE   W03
 BYTE   Cn1  v112
 BYTE   W04
 BYTE   N02  Fn2  v088
 BYTE   W05
 BYTE   N01  Cn1  v112
 BYTE   W03
 BYTE   En1  v116
 BYTE   N01  Fn2  v080
 BYTE   W09
 BYTE   N02
 BYTE   W03
 BYTE   N01  Cn1  v112
 BYTE   W04
 BYTE   En1  v124
 BYTE   N01  Fn2  v076
 BYTE   W05
 BYTE   Cn1  v116
 BYTE   W03
 BYTE   En1  v124
 BYTE   N02  Fn2  v084
 BYTE   W09
// 041   ----------------------------------------
 BYTE   N01  Cn1  v116
 BYTE   N02  Fn2  v100
 BYTE   W03
 BYTE   N01  Cn1  v120
 BYTE   W04
 BYTE   En1
 BYTE   N02  Fn2  v084
 BYTE   W08
 BYTE   Fn2  v104
 BYTE   W04
 BYTE   N01  Cn1  v116
 BYTE   W05
 BYTE   Fn2  v100
 BYTE   W03
 BYTE   Cn1  v120
 BYTE   W04
 BYTE   En1  v127
 BYTE   N01  Fn2  v104
 BYTE   W20
 BYTE   Cn1  v116
 BYTE   W04
 BYTE   N08  En1  v124
 BYTE   W08
 BYTE   GoTo
  POIN2 Label_6_01186EB8
 BYTE   FINE

//******************************************************//
	ALIGN 4

KitchenAce:
	BYTE	7	// NumTrks
	BYTE	0	// NumBlks
	BYTE	KitchenAce_pri	// Priority
	BYTE	KitchenAce_rev	// Reverb.
    
	POIN2	KitchenAce_grp
    
	POIN2	KitchenAce_001
	POIN2	KitchenAce_002
	POIN2	KitchenAce_003
	POIN2	KitchenAce_004
	POIN2	KitchenAce_005
	POIN2	KitchenAce_006
	POIN2	KitchenAce_007

	
