//Event file generated from Sappy .s format.
	#include "MPlayDef.event"

	#define	LeifArmy_grp  voicegroup000
	#define	LeifArmy_pri  0
	#define	LeifArmy_rev  0
	#define	LeifArmy_mvl  105
	#define	LeifArmy_key  0
	#define	LeifArmy_tbs  1
	#define	LeifArmy_exg  0
	#define	LeifArmy_cmp  1

	// .rodata
	//	LeifArmy
	ALIGN 4


//**************** Track 1 (Midi-Chn.0) ****************//

LeifArmy_001:
// 000   ----------------------------------------
 BYTE   KEYSH   LeifArmy_key+0
Label_0_0128956E:
 BYTE   TEMPO   116*LeifArmy_tbs/2
 BYTE   VOICE   48
 BYTE   VOL   40*LeifArmy_mvl/mxv
 BYTE   N12  Fn2  v076
 BYTE   W12
 BYTE   N06
 BYTE   W06
 BYTE   N06
 BYTE   W06
 BYTE   N12
 BYTE   W12
 BYTE   N06
 BYTE   W06
 BYTE   N06
 BYTE   W06
 BYTE   N12
 BYTE   W12
 BYTE   N12
 BYTE   W36
// 001   ----------------------------------------
 BYTE   N12  Gs2  v076
 BYTE   W12
 BYTE   N06
 BYTE   W06
 BYTE   N06
 BYTE   W06
 BYTE   N12
 BYTE   W12
 BYTE   N06
 BYTE   W06
 BYTE   N06
 BYTE   W06
 BYTE   N12
 BYTE   W12
 BYTE   N12
 BYTE   W36
 BYTE   PEND 
// 002   ----------------------------------------
 BYTE   N12  As2  v096
 BYTE   W12
 BYTE   N06
 BYTE   W06
 BYTE   N06
 BYTE   W06
 BYTE   N12
 BYTE   W12
 BYTE   N06
 BYTE   W06
 BYTE   N06
 BYTE   W06
 BYTE   N12
 BYTE   W12
 BYTE   N12
 BYTE   W36
 BYTE   PEND 
// 003   ----------------------------------------
 BYTE   W96
// 004   ----------------------------------------
 BYTE   VOL   40*LeifArmy_mvl/mxv
 BYTE   N12  Fn2  v072
 BYTE   W12
 BYTE   N06
 BYTE   W06
 BYTE   N06
 BYTE   W06
 BYTE   N12
 BYTE   W12
 BYTE   N06
 BYTE   W06
 BYTE   N06
 BYTE   W06
 BYTE   N12
 BYTE   W12
 BYTE   N12
 BYTE   W36
 BYTE   PEND 
// 005   ----------------------------------------
 BYTE   N12  Gs2  v072
 BYTE   W12
 BYTE   N06
 BYTE   W06
 BYTE   N06
 BYTE   W06
 BYTE   N12
 BYTE   W12
 BYTE   N06
 BYTE   W06
 BYTE   N06
 BYTE   W06
 BYTE   N12
 BYTE   W12
 BYTE   N12
 BYTE   W36
 BYTE   PEND 
// 006   ----------------------------------------
 BYTE   N12  As2  v080
 BYTE   W12
 BYTE   N06
 BYTE   W06
 BYTE   N06
 BYTE   W06
 BYTE   N12
 BYTE   W12
 BYTE   N06
 BYTE   W06
 BYTE   N06
 BYTE   W06
 BYTE   N12
 BYTE   W12
 BYTE   As2  v076
 BYTE   W36
 BYTE   PEND 
// 007   ----------------------------------------
 BYTE   N12  Ds3  v080
 BYTE   W12
 BYTE   N06
 BYTE   W06
 BYTE   N06
 BYTE   W06
 BYTE   N12
 BYTE   W12
 BYTE   N06
 BYTE   W06
 BYTE   N06
 BYTE   W06
 BYTE   N06
 BYTE   W12
 BYTE   N12
 BYTE   W36
 BYTE   PEND 
// 008   ----------------------------------------
 BYTE   W96
// 009   ----------------------------------------
 BYTE   W96
// 010   ----------------------------------------
 BYTE   W96
// 011   ----------------------------------------
 BYTE   W96
// 012   ----------------------------------------
 BYTE   W96
// 013   ----------------------------------------
 BYTE   W96
// 014   ----------------------------------------
 BYTE   W96
// 015   ----------------------------------------
 BYTE   W96
// 016   ----------------------------------------
 BYTE   W96
// 017   ----------------------------------------
 BYTE   W96
// 018   ----------------------------------------
 BYTE   W96
// 019   ----------------------------------------
 BYTE   W96
// 020   ----------------------------------------
 BYTE   N48  Fn3  v100
 BYTE   W48
 BYTE   N24  As3
 BYTE   W24
 BYTE   Dn4
 BYTE   W24
 BYTE   PEND 
// 021   ----------------------------------------
 BYTE   N12  Ds4  v100
 BYTE   W18
 BYTE   N06  Dn4  v104
 BYTE   W06
 BYTE   N72  Cn4  v100
 BYTE   W72
 BYTE   PEND 
// 022   ----------------------------------------
 BYTE   N96  Dn4
 BYTE   W96
// 023   ----------------------------------------
 BYTE   N48  Ds4  v100
 BYTE   W48
 BYTE   N24  Gn4
 BYTE   W24
 BYTE   Ds4
 BYTE   W24
 BYTE   PEND 
// 024   ----------------------------------------
 BYTE   N96  Fn4
 BYTE   W96
// 025   ----------------------------------------
 BYTE   W24
 BYTE   N42  Gs4  v100
 BYTE   W48
 BYTE   N18  Gn4
 BYTE   W24
 BYTE   PEND 
// 026   ----------------------------------------
 BYTE   GoTo
  POIN2 Label_0_0128956E
 BYTE   FINE

//**************** Track 2 (Midi-Chn.1) ****************//

LeifArmy_002:
// 000   ----------------------------------------
 BYTE   KEYSH   LeifArmy_key+0
Label_1_01289642:
 BYTE   VOICE   56
 BYTE   VOL   44*LeifArmy_mvl/mxv
 BYTE   W96
// 001   ----------------------------------------
 BYTE   W96
// 002   ----------------------------------------
 BYTE   W96
// 003   ----------------------------------------
 BYTE   W24
 BYTE   N42  As2  v100
 BYTE   W48
 BYTE   N18
 BYTE   W24
 BYTE   PEND 
// 004   ----------------------------------------
 BYTE   W96
// 005   ----------------------------------------
 BYTE   W96
// 006   ----------------------------------------
 BYTE   W96
// 007   ----------------------------------------
 BYTE   W96
// 008   ----------------------------------------
Label_1_01289655:
 BYTE   N18  Ds2  v100
 BYTE   W36
 BYTE   N18
 BYTE   W60
 BYTE   PEND 
// 009   ----------------------------------------
Label_1_0128965C:
 BYTE   N18  Ds2  v100
 BYTE   W36
 BYTE   Dn2
 BYTE   W60
 BYTE   PEND 
 BYTE   PATT
  POIN2 Label_1_01289655
 BYTE   PATT
  POIN2 Label_1_0128965C
 BYTE   PATT
  POIN2 Label_1_01289655
 BYTE   PATT
  POIN2 Label_1_0128965C
 BYTE   PATT
  POIN2 Label_1_01289655
 BYTE   PATT
  POIN2 Label_1_0128965C
// 010   ----------------------------------------
 BYTE   W96
// 011   ----------------------------------------
 BYTE   W96
// 012   ----------------------------------------
 BYTE   W96
// 013   ----------------------------------------
 BYTE   W96
// 014   ----------------------------------------
 BYTE   W96
// 015   ----------------------------------------
 BYTE   W96
// 016   ----------------------------------------
 BYTE   W96
// 017   ----------------------------------------
 BYTE   W96
// 018   ----------------------------------------
 BYTE   W96
// 019   ----------------------------------------
 BYTE   W96
// 020   ----------------------------------------
 BYTE   GoTo
  POIN2 Label_1_01289642
 BYTE   FINE

//**************** Track 3 (Midi-Chn.2) ****************//

LeifArmy_003:
// 000   ----------------------------------------
 BYTE   KEYSH   LeifArmy_key+0
Label_2_01289696:
 BYTE   VOICE   56
 BYTE   VOL   44*LeifArmy_mvl/mxv
 BYTE   W96
// 001   ----------------------------------------
 BYTE   W96
// 002   ----------------------------------------
 BYTE   W96
// 003   ----------------------------------------
 BYTE   W24
 BYTE   N42  Ds2  v100
 BYTE   W48
 BYTE   N18
 BYTE   W24
 BYTE   PEND 
// 004   ----------------------------------------
 BYTE   W96
// 005   ----------------------------------------
 BYTE   W96
// 006   ----------------------------------------
 BYTE   W96
// 007   ----------------------------------------
 BYTE   W96
// 008   ----------------------------------------
Label_2_012896A9:
 BYTE   N18  Gs2  v100
 BYTE   W36
 BYTE   N18
 BYTE   W60
 BYTE   PEND 
// 009   ----------------------------------------
Label_2_012896B0:
 BYTE   N18  Gn2  v100
 BYTE   W36
 BYTE   Fn2
 BYTE   W60
 BYTE   PEND 
 BYTE   PATT
  POIN2 Label_2_012896A9
// 010   ----------------------------------------
Label_2_012896BC:
 BYTE   N18  As2  v100
 BYTE   W36
 BYTE   N18
 BYTE   W60
 BYTE   PEND 
 BYTE   PATT
  POIN2 Label_2_012896A9
 BYTE   PATT
  POIN2 Label_2_012896B0
 BYTE   PATT
  POIN2 Label_2_012896A9
 BYTE   PATT
  POIN2 Label_2_012896BC
// 011   ----------------------------------------
 BYTE   W96
// 012   ----------------------------------------
 BYTE   W96
// 013   ----------------------------------------
 BYTE   W96
// 014   ----------------------------------------
 BYTE   W96
// 015   ----------------------------------------
Label_2_012896DB:
 BYTE   N06  Dn2  v088
 BYTE   W12
 BYTE   N06
 BYTE   W24
 BYTE   N06
 BYTE   W06
 BYTE   N06
 BYTE   W06
 BYTE   N06
 BYTE   W12
 BYTE   N06
 BYTE   W24
 BYTE   N06
 BYTE   W12
 BYTE   PEND 
// 016   ----------------------------------------
Label_2_012896EC:
 BYTE   N06  Cn2  v088
 BYTE   W12
 BYTE   N06
 BYTE   W24
 BYTE   N06
 BYTE   W06
 BYTE   N06
 BYTE   W06
 BYTE   N06
 BYTE   W12
 BYTE   N06
 BYTE   W24
 BYTE   N06
 BYTE   W12
 BYTE   PEND 
 BYTE   PATT
  POIN2 Label_2_012896DB
 BYTE   PATT
  POIN2 Label_2_012896EC
 BYTE   PATT
  POIN2 Label_2_012896DB
// 017   ----------------------------------------
 BYTE   N06  Cn2  v088
 BYTE   W12
 BYTE   N06
 BYTE   W24
 BYTE   N06
 BYTE   W06
 BYTE   N06
 BYTE   W06
 BYTE   N06
 BYTE   W12
 BYTE   N06
 BYTE   W12
 BYTE   N06
 BYTE   W12
 BYTE   N06
 BYTE   W12
 BYTE   PEND 
// 018   ----------------------------------------
 BYTE   GoTo
  POIN2 Label_2_01289696
 BYTE   FINE

//**************** Track 4 (Midi-Chn.3) ****************//

LeifArmy_004:
// 000   ----------------------------------------
 BYTE   KEYSH   LeifArmy_key+0
Label_3_0128972A:
 BYTE   VOICE   56
 BYTE   VOL   91*LeifArmy_mvl/mxv
 BYTE   W96
// 001   ----------------------------------------
 BYTE   W96
// 002   ----------------------------------------
 BYTE   W96
// 003   ----------------------------------------
 BYTE   W24
 BYTE   N42  Cs3  v100
 BYTE   W48
 BYTE   N18  Cn3
 BYTE   W24
 BYTE   PEND 
// 004   ----------------------------------------
 BYTE   N36  As1  v112
 BYTE   W48
 BYTE   Ds2  v100
 BYTE   W48
 BYTE   PEND 
// 005   ----------------------------------------
 BYTE   N36  Gs2  v100
 BYTE   W48
 BYTE   N24  Cs3
 BYTE   W24
 BYTE   N06  Cn3
 BYTE   W12
 BYTE   As2
 BYTE   W06
 BYTE   Gs2
 BYTE   W06
 BYTE   PEND 
// 006   ----------------------------------------
 BYTE   N72  As2
 BYTE   W96
// 007   ----------------------------------------
 BYTE   N06  Ds3  v068
 BYTE   W12
 BYTE   N06
 BYTE   W06
 BYTE   N06
 BYTE   W06
 BYTE   N06
 BYTE   W12
 BYTE   N06
 BYTE   W06
 BYTE   N06
 BYTE   W06
 BYTE   Ds4
 BYTE   W12
 BYTE   N12
 BYTE   W36
 BYTE   PEND 
// 008   ----------------------------------------
Label_3_01289767:
 BYTE   N24  As1  v100
 BYTE   W36
 BYTE   N06  Ds2
 BYTE   W06
 BYTE   Gs2
 BYTE   W06
 BYTE   N36  Cs3
 BYTE   W48
 BYTE   PEND 
// 009   ----------------------------------------
Label_3_01289774:
 BYTE   N12  Cn3  v100
 BYTE   W18
 BYTE   N06  Gs2
 BYTE   W06
 BYTE   N48  As2
 BYTE   W72
 BYTE   PEND 
 BYTE   PATT
  POIN2 Label_3_01289767
 BYTE   PATT
  POIN2 Label_3_01289774
 BYTE   PATT
  POIN2 Label_3_01289767
// 010   ----------------------------------------
 BYTE   N12  Cn3  v100
 BYTE   W18
 BYTE   N06
 BYTE   W06
 BYTE   N48  As2
 BYTE   W72
 BYTE   PEND 
 BYTE   PATT
  POIN2 Label_3_01289767
 BYTE   PATT
  POIN2 Label_3_01289774
// 011   ----------------------------------------
 BYTE   N12  Fn3  v076
 BYTE   W24
 BYTE   N36  Cs3
 BYTE   W48
 BYTE   N06  Cn3
 BYTE   W12
 BYTE   As2
 BYTE   W06
 BYTE   Gs2
 BYTE   W06
 BYTE   PEND 
// 012   ----------------------------------------
 BYTE   N72  As2  v076
 BYTE   W84
 BYTE   N06
 BYTE   W06
 BYTE   Cn3
 BYTE   W06
 BYTE   PEND 
// 013   ----------------------------------------
 BYTE   N72  Cs3  v076
 BYTE   W84
 BYTE   N06  Ds3
 BYTE   W06
 BYTE   As2
 BYTE   W06
 BYTE   PEND 
// 014   ----------------------------------------
 BYTE   N72  Cn3
 BYTE   W96
// 015   ----------------------------------------
 BYTE   N48  Ds2  v080
 BYTE   W48
 BYTE   N24  Fn2
 BYTE   W24
 BYTE   As2
 BYTE   W24
 BYTE   PEND 
// 016   ----------------------------------------
 BYTE   N12  Gs2  v080
 BYTE   W18
 BYTE   N06
 BYTE   W06
 BYTE   N72
 BYTE   W72
 BYTE   PEND 
// 017   ----------------------------------------
 BYTE   N12  Gs2  v080
 BYTE   W18
 BYTE   N06
 BYTE   W06
 BYTE   N72  Fn2
 BYTE   W72
 BYTE   PEND 
// 018   ----------------------------------------
 BYTE   N12  Gs2  v080
 BYTE   W12
 BYTE   As2
 BYTE   W12
 BYTE   N36  Cn3
 BYTE   W72
 BYTE   PEND 
// 019   ----------------------------------------
 BYTE   N96  As2
 BYTE   W96
// 020   ----------------------------------------
 BYTE   W96
// 021   ----------------------------------------
 BYTE   GoTo
  POIN2 Label_3_0128972A
 BYTE   FINE

//**************** Track 5 (Midi-Chn.4) ****************//

LeifArmy_005:
// 000   ----------------------------------------
 BYTE   KEYSH   LeifArmy_key+0
Label_4_012897FA:
 BYTE   VOICE   58
 BYTE   VOL   39*LeifArmy_mvl/mxv
 BYTE   N12  Ds1  v100
 BYTE   W24
 BYTE   N12
 BYTE   W24
 BYTE   N12
 BYTE   W24
 BYTE   N12
 BYTE   W24
// 001   ----------------------------------------
Label_4_01289808:
 BYTE   N12  Ds1  v100
 BYTE   W24
 BYTE   N12
 BYTE   W24
 BYTE   N12
 BYTE   W24
 BYTE   N12
 BYTE   W24
 BYTE   PEND 
 BYTE   PATT
  POIN2 Label_4_01289808
// 002   ----------------------------------------
 BYTE   N12  As0  v100
 BYTE   W24
 BYTE   N12
 BYTE   W24
 BYTE   N12
 BYTE   W24
 BYTE   N12
 BYTE   W24
 BYTE   PEND 
 BYTE   PATT
  POIN2 Label_4_01289808
 BYTE   PATT
  POIN2 Label_4_01289808
 BYTE   PATT
  POIN2 Label_4_01289808
// 003   ----------------------------------------
 BYTE   N12  Ds1  v100
 BYTE   W24
 BYTE   N12
 BYTE   W24
 BYTE   N12
 BYTE   W12
 BYTE   N24
 BYTE   W36
 BYTE   PEND 
// 004   ----------------------------------------
Label_4_0128983D:
 BYTE   N06  As0  v100
 BYTE   W12
 BYTE   N06
 BYTE   W24
 BYTE   N06
 BYTE   W24
 BYTE   Ds0
 BYTE   W24
 BYTE   N06
 BYTE   W12
 BYTE   PEND 
 BYTE   PATT
  POIN2 Label_4_0128983D
 BYTE   PATT
  POIN2 Label_4_0128983D
 BYTE   PATT
  POIN2 Label_4_0128983D
 BYTE   PATT
  POIN2 Label_4_0128983D
 BYTE   PATT
  POIN2 Label_4_0128983D
// 005   ----------------------------------------
 BYTE   N06  Gs0  v100
 BYTE   W12
 BYTE   N06
 BYTE   W24
 BYTE   N06
 BYTE   W24
 BYTE   Cs0
 BYTE   W24
 BYTE   N06
 BYTE   W12
 BYTE   PEND 
 BYTE   PATT
  POIN2 Label_4_0128983D
// 006   ----------------------------------------
 BYTE   N24  Gs1  v124
 BYTE   W36
 BYTE   N06
 BYTE   W06
 BYTE   N06
 BYTE   W06
 BYTE   N06
 BYTE   W12
 BYTE   N06
 BYTE   W12
 BYTE   N06
 BYTE   W12
 BYTE   N06
 BYTE   W12
 BYTE   PEND 
// 007   ----------------------------------------
 BYTE   N24  Ds1  v124
 BYTE   W36
 BYTE   N06
 BYTE   W06
 BYTE   N06
 BYTE   W06
 BYTE   N06
 BYTE   W12
 BYTE   N06
 BYTE   W12
 BYTE   N06
 BYTE   W12
 BYTE   Fn1
 BYTE   W12
 BYTE   PEND 
// 008   ----------------------------------------
 BYTE   N24  Fs1  v124
 BYTE   W36
 BYTE   N06
 BYTE   W06
 BYTE   N06
 BYTE   W06
 BYTE   N06
 BYTE   W12
 BYTE   N06
 BYTE   W12
 BYTE   N06
 BYTE   W12
 BYTE   N06
 BYTE   W12
 BYTE   PEND 
// 009   ----------------------------------------
 BYTE   N24  Fn1  v124
 BYTE   W36
 BYTE   N06
 BYTE   W06
 BYTE   N06
 BYTE   W06
 BYTE   N06
 BYTE   W12
 BYTE   N06
 BYTE   W12
 BYTE   N06
 BYTE   W12
 BYTE   N06
 BYTE   W12
 BYTE   PEND 
// 010   ----------------------------------------
Label_4_012898B9:
 BYTE   N24  As1  v088
 BYTE   W36
 BYTE   N06
 BYTE   W06
 BYTE   N06
 BYTE   W06
 BYTE   N06
 BYTE   W12
 BYTE   N12
 BYTE   W24
 BYTE   N06
 BYTE   W12
 BYTE   PEND 
// 011   ----------------------------------------
Label_4_012898C8:
 BYTE   N06  As1  v088
 BYTE   W12
 BYTE   N12
 BYTE   W24
 BYTE   N06
 BYTE   W12
 BYTE   N06
 BYTE   W12
 BYTE   N12
 BYTE   W24
 BYTE   N06
 BYTE   W12
 BYTE   PEND 
 BYTE   PATT
  POIN2 Label_4_012898B9
 BYTE   PATT
  POIN2 Label_4_012898C8
 BYTE   PATT
  POIN2 Label_4_012898C8
// 012   ----------------------------------------
 BYTE   N06  Fn1  v068
 BYTE   W12
 BYTE   N12
 BYTE   W24
 BYTE   N06
 BYTE   W12
 BYTE   N06
 BYTE   W12
 BYTE   N06
 BYTE   W12
 BYTE   N06
 BYTE   W12
 BYTE   N06
 BYTE   W12
 BYTE   PEND 
// 013   ----------------------------------------
 BYTE   GoTo
  POIN2 Label_4_012897FA
 BYTE   FINE

//**************** Track 6 (Midi-Chn.5) ****************//

LeifArmy_006:
// 000   ----------------------------------------
 BYTE   KEYSH   LeifArmy_key+0
Label_5_01289902:
 BYTE   VOICE   57
 BYTE   VOL   35*LeifArmy_mvl/mxv
 BYTE   N06  Ds2  v052
 BYTE   W12
 BYTE   N06
 BYTE   W06
 BYTE   N06
 BYTE   W06
 BYTE   N06
 BYTE   W12
 BYTE   N06
 BYTE   W06
 BYTE   N06
 BYTE   W06
 BYTE   N06
 BYTE   W12
 BYTE   N12
 BYTE   W36
// 001   ----------------------------------------
 BYTE   N06  Fn2  v052
 BYTE   W12
 BYTE   N06
 BYTE   W06
 BYTE   N06
 BYTE   W06
 BYTE   N06
 BYTE   W12
 BYTE   N06
 BYTE   W06
 BYTE   N06
 BYTE   W06
 BYTE   N06
 BYTE   W12
 BYTE   N12
 BYTE   W36
 BYTE   PEND 
// 002   ----------------------------------------
 BYTE   N06  Gn2  v052
 BYTE   W12
 BYTE   N06
 BYTE   W06
 BYTE   N06
 BYTE   W06
 BYTE   N06
 BYTE   W12
 BYTE   N06
 BYTE   W06
 BYTE   N06
 BYTE   W06
 BYTE   N06
 BYTE   W12
 BYTE   N12
 BYTE   W36
 BYTE   PEND 
// 003   ----------------------------------------
 BYTE   W96
// 004   ----------------------------------------
 BYTE   N06  Ds2  v048
 BYTE   W12
 BYTE   N06
 BYTE   W06
 BYTE   N06
 BYTE   W06
 BYTE   N06
 BYTE   W12
 BYTE   N06
 BYTE   W06
 BYTE   N06
 BYTE   W06
 BYTE   N06
 BYTE   W12
 BYTE   N12
 BYTE   W36
 BYTE   PEND 
// 005   ----------------------------------------
 BYTE   N06  Fn2  v048
 BYTE   W12
 BYTE   N06
 BYTE   W06
 BYTE   N06
 BYTE   W06
 BYTE   N06
 BYTE   W12
 BYTE   N06
 BYTE   W06
 BYTE   N06
 BYTE   W06
 BYTE   N06
 BYTE   W12
 BYTE   N12
 BYTE   W36
 BYTE   PEND 
// 006   ----------------------------------------
 BYTE   N06  Gn2  v048
 BYTE   W12
 BYTE   N06
 BYTE   W06
 BYTE   N06
 BYTE   W06
 BYTE   N06
 BYTE   W12
 BYTE   N06
 BYTE   W06
 BYTE   N06
 BYTE   W06
 BYTE   N06
 BYTE   W12
 BYTE   N12
 BYTE   W36
 BYTE   PEND 
// 007   ----------------------------------------
 BYTE   N06  As2  v048
 BYTE   W12
 BYTE   N06
 BYTE   W06
 BYTE   N06
 BYTE   W06
 BYTE   N06
 BYTE   W12
 BYTE   N06
 BYTE   W06
 BYTE   N06
 BYTE   W06
 BYTE   N06
 BYTE   N06  Ds4  v092
 BYTE   W12
 BYTE   N12  As2  v048
 BYTE   N12  Ds4  v092
 BYTE   W36
 BYTE   PEND 
// 008   ----------------------------------------
 BYTE   W96
// 009   ----------------------------------------
 BYTE   W60
 BYTE   N06  Ds4  v100
 BYTE   W24
 BYTE   N06
 BYTE   W12
 BYTE   PEND 
// 010   ----------------------------------------
 BYTE   W96
// 011   ----------------------------------------
 BYTE   W66
 BYTE   N24  Fn4
 BYTE   W30
// 012   ----------------------------------------
 BYTE   W96
// 013   ----------------------------------------
 BYTE   W60
 BYTE   N06  Ds4  v100
 BYTE   W06
 BYTE   N06
 BYTE   W06
 BYTE   N06
 BYTE   W06
 BYTE   N06
 BYTE   W06
 BYTE   N06
 BYTE   W06
 BYTE   N06
 BYTE   W06
 BYTE   PEND 
// 014   ----------------------------------------
 BYTE   N72
 BYTE   W96
// 015   ----------------------------------------
 BYTE   N06  Fn4  v100
 BYTE   W18
 BYTE   N06
 BYTE   W06
 BYTE   N48
 BYTE   W72
 BYTE   PEND 
// 016   ----------------------------------------
 BYTE   N12  Fn4  v100
 BYTE   W24
 BYTE   N48  Cs4
 BYTE   W48
 BYTE   N12  Cn4
 BYTE   W12
 BYTE   N06  As3
 BYTE   W06
 BYTE   Gs3
 BYTE   W06
 BYTE   PEND 
// 017   ----------------------------------------
 BYTE   N24  As3  v100
 BYTE   W24
 BYTE   Ds4
 BYTE   W24
 BYTE   As3
 BYTE   W24
 BYTE   Fn3
 BYTE   W12
 BYTE   N06  As3
 BYTE   W06
 BYTE   Cn4
 BYTE   W06
 BYTE   PEND 
// 018   ----------------------------------------
 BYTE   N72  Cs4  v100
 BYTE   W84
 BYTE   N06  Ds4
 BYTE   W06
 BYTE   As3
 BYTE   W06
 BYTE   PEND 
// 019   ----------------------------------------
 BYTE   N48  Cn4  v100
 BYTE   W48
 BYTE   N24
 BYTE   W24
 BYTE   Fn4
 BYTE   W24
 BYTE   PEND 
// 020   ----------------------------------------
 BYTE   N48  Fn2  v080
 BYTE   W48
 BYTE   N24  As2
 BYTE   W24
 BYTE   Dn3
 BYTE   W24
 BYTE   PEND 
// 021   ----------------------------------------
 BYTE   N12  Ds3  v080
 BYTE   W18
 BYTE   N06  Dn3
 BYTE   W06
 BYTE   N36  Cn3
 BYTE   W36
 BYTE   N12  Ds2
 BYTE   W12
 BYTE   Gs2
 BYTE   W12
 BYTE   Cn3
 BYTE   W12
 BYTE   PEND 
// 022   ----------------------------------------
 BYTE   N12  Dn3  v080
 BYTE   W18
 BYTE   N06  Cn3
 BYTE   W06
 BYTE   N72  As2
 BYTE   W72
 BYTE   PEND 
// 023   ----------------------------------------
 BYTE   N12  Cn3  v080
 BYTE   W12
 BYTE   Dn3
 BYTE   W12
 BYTE   N36  Ds3
 BYTE   W36
 BYTE   N12  Fn2
 BYTE   W12
 BYTE   An2
 BYTE   W12
 BYTE   Cn3
 BYTE   W12
 BYTE   PEND 
// 024   ----------------------------------------
 BYTE   N96  Dn3
 BYTE   W96
// 025   ----------------------------------------
 BYTE   W96
// 026   ----------------------------------------
 BYTE   GoTo
  POIN2 Label_5_01289902
 BYTE   FINE

//**************** Track 7 (Midi-Chn.6) ****************//

LeifArmy_007:
// 000   ----------------------------------------
 BYTE   KEYSH   LeifArmy_key+0
Label_6_01289A36:
 BYTE   VOICE   57
 BYTE   VOL   35*LeifArmy_mvl/mxv
 BYTE   N06  As1  v052
 BYTE   W12
 BYTE   N06
 BYTE   W06
 BYTE   N06
 BYTE   W06
 BYTE   N06
 BYTE   W12
 BYTE   N06
 BYTE   W06
 BYTE   N06
 BYTE   W06
 BYTE   N06
 BYTE   W12
 BYTE   N12
 BYTE   W36
// 001   ----------------------------------------
 BYTE   N06  Ds2  v052
 BYTE   W12
 BYTE   N06
 BYTE   W06
 BYTE   N06
 BYTE   W06
 BYTE   N06
 BYTE   W12
 BYTE   N06
 BYTE   W06
 BYTE   N06
 BYTE   W06
 BYTE   N06
 BYTE   W12
 BYTE   N12
 BYTE   W36
 BYTE   PEND 
// 002   ----------------------------------------
 BYTE   N06  Fn2  v052
 BYTE   W12
 BYTE   N06
 BYTE   W06
 BYTE   N06
 BYTE   W06
 BYTE   N06
 BYTE   W12
 BYTE   N06
 BYTE   W06
 BYTE   N06
 BYTE   W06
 BYTE   N06
 BYTE   W12
 BYTE   N12
 BYTE   W36
 BYTE   PEND 
// 003   ----------------------------------------
 BYTE   W96
// 004   ----------------------------------------
 BYTE   W12
 BYTE   N06  As1  v048
 BYTE   W06
 BYTE   N06
 BYTE   W06
 BYTE   N12
 BYTE   W12
 BYTE   N06
 BYTE   W06
 BYTE   N06
 BYTE   W06
 BYTE   N12
 BYTE   W12
 BYTE   N12
 BYTE   W36
 BYTE   PEND 
// 005   ----------------------------------------
 BYTE   W12
 BYTE   N06  Ds2  v048
 BYTE   W06
 BYTE   N06
 BYTE   W06
 BYTE   N06
 BYTE   W12
 BYTE   N06
 BYTE   W06
 BYTE   N06
 BYTE   W06
 BYTE   N06
 BYTE   W12
 BYTE   N12
 BYTE   W36
 BYTE   PEND 
// 006   ----------------------------------------
 BYTE   W12
 BYTE   N06  Fn2  v048
 BYTE   W06
 BYTE   N06
 BYTE   W06
 BYTE   N06
 BYTE   W12
 BYTE   N06
 BYTE   W06
 BYTE   N06
 BYTE   W06
 BYTE   N06
 BYTE   W12
 BYTE   N12
 BYTE   W36
 BYTE   PEND 
// 007   ----------------------------------------
 BYTE   N06  Gs2  v080
 BYTE   W12
 BYTE   N06
 BYTE   W06
 BYTE   N06
 BYTE   W06
 BYTE   N06
 BYTE   W12
 BYTE   N06
 BYTE   W06
 BYTE   N06
 BYTE   W06
 BYTE   Gn2
 BYTE   W12
 BYTE   N12
 BYTE   W36
 BYTE   PEND 
// 008   ----------------------------------------
 BYTE   W96
// 009   ----------------------------------------
Label_6_01289ABD:
 BYTE   W72
 BYTE   N06  Cs3  v096
 BYTE   W06
 BYTE   Gs3
 BYTE   W06
 BYTE   As3
 BYTE   W06
 BYTE   Cs4
 BYTE   W06
 BYTE   PEND 
// 010   ----------------------------------------
 BYTE   W96
 BYTE   PATT
  POIN2 Label_6_01289ABD
// 011   ----------------------------------------
 BYTE   W96
 BYTE   PATT
  POIN2 Label_6_01289ABD
// 012   ----------------------------------------
 BYTE   W96
// 013   ----------------------------------------
 BYTE   W48
 BYTE   N06  Cs3  v096
 BYTE   W06
 BYTE   Gs3
 BYTE   W06
 BYTE   As3
 BYTE   W06
 BYTE   Cs4
 BYTE   W06
 BYTE   Fs3
 BYTE   W06
 BYTE   Cs4
 BYTE   W06
 BYTE   Ds4
 BYTE   W06
 BYTE   Fs4
 BYTE   W06
 BYTE   PEND 
// 014   ----------------------------------------
 BYTE   N12  Cs4  v084
 BYTE   W24
 BYTE   N48  As3
 BYTE   W72
 BYTE   PEND 
// 015   ----------------------------------------
 BYTE   N24  Gn3  v080
 BYTE   W24
 BYTE   Gn3  v064
 BYTE   W24
 BYTE   Ds3
 BYTE   W24
 BYTE   As2  v044
 BYTE   W24
 BYTE   PEND 
// 016   ----------------------------------------
 BYTE   N72  As3  v084
 BYTE   W96
// 017   ----------------------------------------
 BYTE   N36  Cn3  v084
 BYTE   W48
 BYTE   N24  Fn3
 BYTE   W24
 BYTE   An3
 BYTE   W24
 BYTE   PEND 
// 018   ----------------------------------------
 BYTE   W96
// 019   ----------------------------------------
 BYTE   W96
// 020   ----------------------------------------
 BYTE   W96
// 021   ----------------------------------------
 BYTE   W96
// 022   ----------------------------------------
 BYTE   W96
// 023   ----------------------------------------
 BYTE   W96
// 024   ----------------------------------------
 BYTE   GoTo
  POIN2 Label_6_01289A36
 BYTE   FINE

//**************** Track 8 (Midi-Chn.7) ****************//

LeifArmy_008:
// 000   ----------------------------------------
 BYTE   KEYSH   LeifArmy_key+0
Label_7_01289B1E:
 BYTE   VOICE   57
 BYTE   VOL   32*LeifArmy_mvl/mxv
 BYTE   N06  Fn2  v092
 BYTE   W12
 BYTE   N06
 BYTE   W06
 BYTE   N06
 BYTE   W06
 BYTE   N06
 BYTE   W12
 BYTE   N06
 BYTE   W06
 BYTE   N06
 BYTE   W06
 BYTE   N06
 BYTE   W12
 BYTE   N12
 BYTE   W36
// 001   ----------------------------------------
 BYTE   N06  Gs2  v092
 BYTE   W12
 BYTE   N06
 BYTE   W06
 BYTE   N06
 BYTE   W06
 BYTE   N06
 BYTE   W12
 BYTE   N06
 BYTE   W06
 BYTE   N06
 BYTE   W06
 BYTE   N06
 BYTE   W12
 BYTE   N12
 BYTE   W36
 BYTE   PEND 
// 002   ----------------------------------------
 BYTE   N06  As2  v092
 BYTE   W12
 BYTE   N06
 BYTE   W06
 BYTE   N06
 BYTE   W06
 BYTE   N06
 BYTE   W12
 BYTE   N06
 BYTE   W06
 BYTE   N06
 BYTE   W06
 BYTE   N06
 BYTE   W12
 BYTE   N12
 BYTE   W36
 BYTE   PEND 
// 003   ----------------------------------------
 BYTE   W96
// 004   ----------------------------------------
 BYTE   VOL   40*LeifArmy_mvl/mxv
 BYTE   N06  Fn2  v084
 BYTE   W12
 BYTE   N06
 BYTE   W06
 BYTE   N06
 BYTE   W06
 BYTE   N06
 BYTE   W12
 BYTE   N06
 BYTE   W06
 BYTE   N06
 BYTE   W06
 BYTE   N06
 BYTE   W12
 BYTE   N12
 BYTE   W36
 BYTE   PEND 
// 005   ----------------------------------------
 BYTE   N06  Gs2  v084
 BYTE   W12
 BYTE   N06
 BYTE   W06
 BYTE   N06
 BYTE   W06
 BYTE   N06
 BYTE   W12
 BYTE   N06
 BYTE   W06
 BYTE   N06
 BYTE   W06
 BYTE   N06
 BYTE   W12
 BYTE   N12
 BYTE   W36
 BYTE   PEND 
// 006   ----------------------------------------
 BYTE   N06  As2  v084
 BYTE   W12
 BYTE   N06
 BYTE   W06
 BYTE   N06
 BYTE   W06
 BYTE   N06
 BYTE   W12
 BYTE   N06
 BYTE   W06
 BYTE   N06
 BYTE   W06
 BYTE   N06
 BYTE   W12
 BYTE   N12
 BYTE   W36
 BYTE   PEND 
// 007   ----------------------------------------
 BYTE   N06  Ds3  v084
 BYTE   W12
 BYTE   N06
 BYTE   W06
 BYTE   N06
 BYTE   W06
 BYTE   N06
 BYTE   W12
 BYTE   N06
 BYTE   W06
 BYTE   N06
 BYTE   W06
 BYTE   N06
 BYTE   N06  As3  v100
 BYTE   W12
 BYTE   N12  Ds3  v084
 BYTE   N12  As3  v100
 BYTE   W36
 BYTE   PEND 
// 008   ----------------------------------------
 BYTE   W96
// 009   ----------------------------------------
 BYTE   W60
 BYTE   N06  Gs3  v100
 BYTE   W24
 BYTE   N06
 BYTE   W12
 BYTE   PEND 
// 010   ----------------------------------------
 BYTE   W96
// 011   ----------------------------------------
 BYTE   W66
 BYTE   N24  As3
 BYTE   W30
// 012   ----------------------------------------
 BYTE   W96
// 013   ----------------------------------------
 BYTE   W60
 BYTE   N06  Gs3  v100
 BYTE   W06
 BYTE   N06
 BYTE   W06
 BYTE   N06
 BYTE   W06
 BYTE   N06
 BYTE   W06
 BYTE   N06
 BYTE   W06
 BYTE   N06
 BYTE   W06
 BYTE   PEND 
// 014   ----------------------------------------
 BYTE   N72
 BYTE   W96
// 015   ----------------------------------------
 BYTE   N06  As3  v100
 BYTE   W18
 BYTE   N06
 BYTE   W06
 BYTE   N48
 BYTE   W72
 BYTE   PEND 
// 016   ----------------------------------------
 BYTE   W96
// 017   ----------------------------------------
 BYTE   W96
// 018   ----------------------------------------
 BYTE   W96
// 019   ----------------------------------------
 BYTE   W96
// 020   ----------------------------------------
 BYTE   W96
// 021   ----------------------------------------
 BYTE   W96
// 022   ----------------------------------------
 BYTE   W96
// 023   ----------------------------------------
 BYTE   W96
// 024   ----------------------------------------
 BYTE   W96
// 025   ----------------------------------------
 BYTE   W96
// 026   ----------------------------------------
 BYTE   GoTo
  POIN2 Label_7_01289B1E
 BYTE   FINE

//**************** Track 9 (Midi-Chn.8) ****************//

LeifArmy_009:
// 000   ----------------------------------------
 BYTE   KEYSH   LeifArmy_key+0
Label_8_01289BEE:
 BYTE   VOICE   48
 BYTE   VOL   40*LeifArmy_mvl/mxv
 BYTE   N06  As1  v064
 BYTE   W12
 BYTE   N06
 BYTE   W06
 BYTE   N06
 BYTE   W06
 BYTE   N06
 BYTE   W12
 BYTE   N06
 BYTE   W06
 BYTE   N06
 BYTE   W06
 BYTE   N06
 BYTE   W12
 BYTE   N12
 BYTE   W36
// 001   ----------------------------------------
 BYTE   N06  Ds2  v064
 BYTE   W12
 BYTE   N06
 BYTE   W06
 BYTE   N06
 BYTE   W06
 BYTE   N06
 BYTE   W12
 BYTE   N06
 BYTE   W06
 BYTE   N06
 BYTE   W06
 BYTE   N06
 BYTE   W12
 BYTE   N12
 BYTE   W36
 BYTE   PEND 
// 002   ----------------------------------------
 BYTE   N06  Fn2  v064
 BYTE   W12
 BYTE   N06
 BYTE   W06
 BYTE   N06
 BYTE   W06
 BYTE   N06
 BYTE   W12
 BYTE   N06
 BYTE   W06
 BYTE   N06
 BYTE   W06
 BYTE   N06
 BYTE   W12
 BYTE   N12
 BYTE   W36
 BYTE   PEND 
// 003   ----------------------------------------
 BYTE   W96
// 004   ----------------------------------------
 BYTE   VOL   40*LeifArmy_mvl/mxv
 BYTE   W12
 BYTE   N06  As1  v052
 BYTE   W06
 BYTE   N06
 BYTE   W06
 BYTE   N06
 BYTE   W12
 BYTE   N06
 BYTE   W06
 BYTE   N06
 BYTE   W06
 BYTE   N06
 BYTE   W12
 BYTE   N12
 BYTE   W36
 BYTE   PEND 
// 005   ----------------------------------------
 BYTE   W12
 BYTE   N06  Ds2  v052
 BYTE   W06
 BYTE   N06
 BYTE   W06
 BYTE   N12
 BYTE   W12
 BYTE   N06
 BYTE   W06
 BYTE   N06
 BYTE   W06
 BYTE   N12
 BYTE   W12
 BYTE   N12
 BYTE   W36
 BYTE   PEND 
// 006   ----------------------------------------
 BYTE   W12
 BYTE   N06  Fn2  v052
 BYTE   W06
 BYTE   N06
 BYTE   W06
 BYTE   N12
 BYTE   W12
 BYTE   N06
 BYTE   W06
 BYTE   N06
 BYTE   W06
 BYTE   N12
 BYTE   W12
 BYTE   N12
 BYTE   W36
 BYTE   PEND 
// 007   ----------------------------------------
 BYTE   N06  Gs2  v072
 BYTE   W12
 BYTE   N06
 BYTE   W06
 BYTE   N06
 BYTE   W06
 BYTE   N06
 BYTE   W12
 BYTE   N06
 BYTE   W06
 BYTE   N06
 BYTE   W06
 BYTE   Gn2
 BYTE   W12
 BYTE   N12
 BYTE   W36
 BYTE   PEND 
// 008   ----------------------------------------
 BYTE   W96
// 009   ----------------------------------------
 BYTE   W96
// 010   ----------------------------------------
 BYTE   W96
// 011   ----------------------------------------
 BYTE   W96
// 012   ----------------------------------------
 BYTE   W96
// 013   ----------------------------------------
 BYTE   W96
// 014   ----------------------------------------
 BYTE   N18  Ds2  v084
 BYTE   W36
 BYTE   N18
 BYTE   W60
 BYTE   PEND 
// 015   ----------------------------------------
 BYTE   N18  Ds2  v084
 BYTE   W36
 BYTE   Dn2
 BYTE   W60
 BYTE   PEND 
// 016   ----------------------------------------
 BYTE   N12  Cs3  v076
 BYTE   W24
 BYTE   N48  As2
 BYTE   W72
 BYTE   PEND 
// 017   ----------------------------------------
 BYTE   N72  Gn2
 BYTE   W96
// 018   ----------------------------------------
 BYTE   As2
 BYTE   W96
// 019   ----------------------------------------
 BYTE   N48  As2  v076
 BYTE   W48
 BYTE   An2
 BYTE   W48
 BYTE   PEND 
// 020   ----------------------------------------
 BYTE   N48  As2  v072
 BYTE   W48
 BYTE   N24  Dn3
 BYTE   W24
 BYTE   Fn3
 BYTE   W24
 BYTE   PEND 
// 021   ----------------------------------------
 BYTE   N06  Fn3  v072
 BYTE   W18
 BYTE   Ds3
 BYTE   W06
 BYTE   N48
 BYTE   W72
 BYTE   PEND 
// 022   ----------------------------------------
 BYTE   N96  Fn3
 BYTE   W96
// 023   ----------------------------------------
 BYTE   N48  Gs3  v072
 BYTE   W48
 BYTE   N24  Cn3
 BYTE   W24
 BYTE   Ds3
 BYTE   W24
 BYTE   PEND 
// 024   ----------------------------------------
 BYTE   N96  Dn3
 BYTE   W96
// 025   ----------------------------------------
 BYTE   W24
 BYTE   N42  As3  v072
 BYTE   W48
 BYTE   N18
 BYTE   W24
 BYTE   PEND 
// 026   ----------------------------------------
 BYTE   GoTo
  POIN2 Label_8_01289BEE
 BYTE   FINE

//**************** Track 10 (Midi-Chn.9) ****************//

LeifArmy_010:
// 000   ----------------------------------------
 BYTE   KEYSH   LeifArmy_key+0
Label_9_01289CD2:
 BYTE   VOICE   48
 BYTE   VOL   33*LeifArmy_mvl/mxv
 BYTE   N06  Ds2  v052
 BYTE   W12
 BYTE   N06
 BYTE   W06
 BYTE   N06
 BYTE   W06
 BYTE   N06
 BYTE   W12
 BYTE   N06
 BYTE   W06
 BYTE   N06
 BYTE   W06
 BYTE   N06
 BYTE   W12
 BYTE   N12
 BYTE   W36
// 001   ----------------------------------------
 BYTE   N06  Fn2  v052
 BYTE   W12
 BYTE   N06
 BYTE   W06
 BYTE   N06
 BYTE   W06
 BYTE   N06
 BYTE   W12
 BYTE   N06
 BYTE   W06
 BYTE   N06
 BYTE   W06
 BYTE   N06
 BYTE   W12
 BYTE   N12
 BYTE   W36
 BYTE   PEND 
// 002   ----------------------------------------
 BYTE   N06  Gn2  v052
 BYTE   W12
 BYTE   N06
 BYTE   W06
 BYTE   N06
 BYTE   W06
 BYTE   N06
 BYTE   W12
 BYTE   N06
 BYTE   W06
 BYTE   N06
 BYTE   W06
 BYTE   N06
 BYTE   W12
 BYTE   N12
 BYTE   W36
 BYTE   PEND 
// 003   ----------------------------------------
 BYTE   W96
// 004   ----------------------------------------
 BYTE   N06  Ds2  v044
 BYTE   W12
 BYTE   N06
 BYTE   W06
 BYTE   N06
 BYTE   W06
 BYTE   N06
 BYTE   W12
 BYTE   N06
 BYTE   W06
 BYTE   N06
 BYTE   W06
 BYTE   N06
 BYTE   W12
 BYTE   N12
 BYTE   W36
 BYTE   PEND 
// 005   ----------------------------------------
 BYTE   N06  Fn2  v044
 BYTE   W12
 BYTE   N06
 BYTE   W06
 BYTE   N06
 BYTE   W06
 BYTE   N06
 BYTE   W12
 BYTE   N06
 BYTE   W06
 BYTE   N06
 BYTE   W06
 BYTE   N06
 BYTE   W12
 BYTE   N12
 BYTE   W36
 BYTE   PEND 
// 006   ----------------------------------------
 BYTE   N06  Gn2  v044
 BYTE   W12
 BYTE   N06
 BYTE   W06
 BYTE   N06
 BYTE   W06
 BYTE   N06
 BYTE   W12
 BYTE   N06
 BYTE   W06
 BYTE   N06
 BYTE   W06
 BYTE   N06
 BYTE   W12
 BYTE   N12
 BYTE   W36
 BYTE   PEND 
// 007   ----------------------------------------
 BYTE   VOL   40*LeifArmy_mvl/mxv
 BYTE   N06  As2  v044
 BYTE   W12
 BYTE   N06
 BYTE   W06
 BYTE   N06
 BYTE   W06
 BYTE   N06
 BYTE   W12
 BYTE   N06
 BYTE   W06
 BYTE   N06
 BYTE   W06
 BYTE   N06
 BYTE   W12
 BYTE   N12
 BYTE   W36
 BYTE   PEND 
// 008   ----------------------------------------
 BYTE   VOL   40*LeifArmy_mvl/mxv
 BYTE   W96
// 009   ----------------------------------------
 BYTE   W96
// 010   ----------------------------------------
 BYTE   W96
// 011   ----------------------------------------
 BYTE   W96
// 012   ----------------------------------------
 BYTE   W96
// 013   ----------------------------------------
 BYTE   W96
// 014   ----------------------------------------
 BYTE   W96
// 015   ----------------------------------------
 BYTE   W96
// 016   ----------------------------------------
 BYTE   W96
// 017   ----------------------------------------
 BYTE   W96
// 018   ----------------------------------------
 BYTE   W96
// 019   ----------------------------------------
 BYTE   W96
// 020   ----------------------------------------
 BYTE   W96
// 021   ----------------------------------------
 BYTE   W96
// 022   ----------------------------------------
 BYTE   W96
// 023   ----------------------------------------
 BYTE   W96
// 024   ----------------------------------------
 BYTE   W96
// 025   ----------------------------------------
 BYTE   W24
 BYTE   N42  Ds2  v080
 BYTE   W48
 BYTE   N18
 BYTE   W24
 BYTE   PEND 
// 026   ----------------------------------------
 BYTE   GoTo
  POIN2 Label_9_01289CD2
 BYTE   FINE

//**************** Track 11 (Midi-Chn.10) ****************//

LeifArmy_011:
// 000   ----------------------------------------
 BYTE   KEYSH   LeifArmy_key+0
Label_10_01289D82:
 BYTE   VOICE   35
 BYTE   VOL   51*LeifArmy_mvl/mxv
 BYTE   W96
// 001   ----------------------------------------
 BYTE   W96
// 002   ----------------------------------------
 BYTE   W96
// 003   ----------------------------------------
 BYTE   W96
// 004   ----------------------------------------
 BYTE   W96
// 005   ----------------------------------------
 BYTE   W96
// 006   ----------------------------------------
 BYTE   W96
// 007   ----------------------------------------
 BYTE   W96
// 008   ----------------------------------------
 BYTE   W96
// 009   ----------------------------------------
 BYTE   W96
// 010   ----------------------------------------
 BYTE   W96
// 011   ----------------------------------------
 BYTE   W96
// 012   ----------------------------------------
 BYTE   W96
// 013   ----------------------------------------
 BYTE   W96
// 014   ----------------------------------------
 BYTE   W96
// 015   ----------------------------------------
 BYTE   W96
// 016   ----------------------------------------
 BYTE   W96
// 017   ----------------------------------------
 BYTE   W96
// 018   ----------------------------------------
 BYTE   W96
// 019   ----------------------------------------
 BYTE   W96
// 020   ----------------------------------------
Label_10_01289D9A:
 BYTE   N24  As0  v100
 BYTE   W36
 BYTE   N06
 BYTE   W06
 BYTE   N06
 BYTE   W06
 BYTE   N06
 BYTE   W12
 BYTE   N18
 BYTE   W24
 BYTE   N06
 BYTE   W12
 BYTE   PEND 
// 021   ----------------------------------------
Label_10_01289DA9:
 BYTE   N06  As0  v100
 BYTE   W12
 BYTE   N18
 BYTE   W24
 BYTE   N06
 BYTE   W12
 BYTE   N06
 BYTE   W12
 BYTE   N18
 BYTE   W24
 BYTE   N06
 BYTE   W12
 BYTE   PEND 
 BYTE   PATT
  POIN2 Label_10_01289D9A
 BYTE   PATT
  POIN2 Label_10_01289DA9
// 022   ----------------------------------------
 BYTE   N06  As0  v100
 BYTE   W12
 BYTE   N18
 BYTE   W24
 BYTE   N06
 BYTE   W06
 BYTE   N06
 BYTE   W06
 BYTE   N06
 BYTE   W12
 BYTE   N18
 BYTE   W24
 BYTE   N06
 BYTE   W06
 BYTE   N06
 BYTE   W06
 BYTE   PEND 
// 023   ----------------------------------------
 BYTE   N06  Fn1  v060
 BYTE   W12
 BYTE   N18
 BYTE   W24
 BYTE   N06
 BYTE   W12
 BYTE   N06
 BYTE   W12
 BYTE   N06
 BYTE   W12
 BYTE   N06
 BYTE   W12
 BYTE   N06
 BYTE   W12
 BYTE   PEND 
// 024   ----------------------------------------
 BYTE   GoTo
  POIN2 Label_10_01289D82
 BYTE   FINE

//**************** Track 12 (Midi-Chn.11) ****************//

LeifArmy_012:
// 000   ----------------------------------------
 BYTE   KEYSH   LeifArmy_key+0
Label_11_01289DEE:
 BYTE   VOICE   60
 BYTE   VOL   28*LeifArmy_mvl/mxv
 BYTE   W96
// 001   ----------------------------------------
 BYTE   W96
// 002   ----------------------------------------
 BYTE   W96
// 003   ----------------------------------------
 BYTE   W96
// 004   ----------------------------------------
 BYTE   W96
// 005   ----------------------------------------
 BYTE   W96
// 006   ----------------------------------------
 BYTE   W96
// 007   ----------------------------------------
 BYTE   W48
 BYTE   N06  As3  v100
 BYTE   W12
 BYTE   N12
 BYTE   W36
 BYTE   PEND 
// 008   ----------------------------------------
 BYTE   W96
// 009   ----------------------------------------
 BYTE   W60
 BYTE   N06  Gs3  v100
 BYTE   W24
 BYTE   N06
 BYTE   W12
 BYTE   PEND 
// 010   ----------------------------------------
 BYTE   W96
// 011   ----------------------------------------
 BYTE   W66
 BYTE   N24  As3
 BYTE   W30
// 012   ----------------------------------------
 BYTE   W96
// 013   ----------------------------------------
 BYTE   W60
 BYTE   N06  Gs3  v100
 BYTE   W06
 BYTE   N06
 BYTE   W06
 BYTE   N06
 BYTE   W06
 BYTE   N06
 BYTE   W06
 BYTE   N06
 BYTE   W06
 BYTE   N06
 BYTE   W06
 BYTE   PEND 
// 014   ----------------------------------------
 BYTE   N72
 BYTE   W96
// 015   ----------------------------------------
 BYTE   N06  As3  v100
 BYTE   W18
 BYTE   N06
 BYTE   W06
 BYTE   N48
 BYTE   W72
 BYTE   PEND 
// 016   ----------------------------------------
 BYTE   W96
// 017   ----------------------------------------
 BYTE   W96
// 018   ----------------------------------------
 BYTE   W96
// 019   ----------------------------------------
 BYTE   W96
// 020   ----------------------------------------
 BYTE   W96
// 021   ----------------------------------------
 BYTE   W96
// 022   ----------------------------------------
 BYTE   W96
// 023   ----------------------------------------
 BYTE   W96
// 024   ----------------------------------------
 BYTE   W96
// 025   ----------------------------------------
 BYTE   W96
// 026   ----------------------------------------
 BYTE   GoTo
  POIN2 Label_11_01289DEE
 BYTE   FINE

//**************** Track 13 (Midi-Chn.12) ****************//

LeifArmy_013:
// 000   ----------------------------------------
 BYTE   KEYSH   LeifArmy_key+0
Label_12_01289E3E:
 BYTE   VOICE   60
 BYTE   VOL   32*LeifArmy_mvl/mxv
 BYTE   W96
// 001   ----------------------------------------
 BYTE   W96
// 002   ----------------------------------------
 BYTE   W96
// 003   ----------------------------------------
 BYTE   W96
// 004   ----------------------------------------
 BYTE   W96
// 005   ----------------------------------------
 BYTE   W96
// 006   ----------------------------------------
 BYTE   W96
// 007   ----------------------------------------
 BYTE   W96
// 008   ----------------------------------------
 BYTE   W96
// 009   ----------------------------------------
 BYTE   W96
// 010   ----------------------------------------
 BYTE   W96
// 011   ----------------------------------------
 BYTE   W96
// 012   ----------------------------------------
 BYTE   W96
// 013   ----------------------------------------
 BYTE   W96
// 014   ----------------------------------------
 BYTE   W96
// 015   ----------------------------------------
 BYTE   W96
// 016   ----------------------------------------
 BYTE   N12  Cs4  v084
 BYTE   W24
 BYTE   N48  As3
 BYTE   W72
 BYTE   PEND 
// 017   ----------------------------------------
 BYTE   N24  Gn3  v080
 BYTE   W24
 BYTE   Gn3  v064
 BYTE   W24
 BYTE   Ds3
 BYTE   W24
 BYTE   As2  v044
 BYTE   W24
 BYTE   PEND 
// 018   ----------------------------------------
 BYTE   N72  As3  v076
 BYTE   W96
// 019   ----------------------------------------
 BYTE   N36  Cn3  v084
 BYTE   W48
 BYTE   N24  Fn3
 BYTE   W24
 BYTE   An3
 BYTE   W24
 BYTE   PEND 
// 020   ----------------------------------------
 BYTE   W96
// 021   ----------------------------------------
 BYTE   W96
// 022   ----------------------------------------
 BYTE   W96
// 023   ----------------------------------------
 BYTE   W96
// 024   ----------------------------------------
 BYTE   W96
// 025   ----------------------------------------
 BYTE   W96
// 026   ----------------------------------------
 BYTE   GoTo
  POIN2 Label_12_01289E3E
 BYTE   FINE

//**************** Track 14 (Midi-Chn.13) ****************//

LeifArmy_014:
// 000   ----------------------------------------
 BYTE   KEYSH   LeifArmy_key+0
Label_13_01289E86:
 BYTE   VOICE   60
 BYTE   VOL   40*LeifArmy_mvl/mxv
 BYTE   W96
// 001   ----------------------------------------
 BYTE   W96
// 002   ----------------------------------------
 BYTE   W96
// 003   ----------------------------------------
 BYTE   W96
// 004   ----------------------------------------
 BYTE   W96
// 005   ----------------------------------------
 BYTE   W96
// 006   ----------------------------------------
 BYTE   W96
// 007   ----------------------------------------
 BYTE   En1
 BYTE   W48
 BYTE   N06  Ds4  v092
 BYTE   W12
 BYTE   N12
 BYTE   W36
// 008   ----------------------------------------
 BYTE   W96
// 009   ----------------------------------------
 BYTE   W60
 BYTE   N06  Ds4  v092
 BYTE   W24
 BYTE   N06
 BYTE   W12
 BYTE   PEND 
// 010   ----------------------------------------
 BYTE   W96
// 011   ----------------------------------------
 BYTE   W66
 BYTE   N24  Fn4
 BYTE   W30
// 012   ----------------------------------------
 BYTE   W96
// 013   ----------------------------------------
 BYTE   W60
 BYTE   N06  Ds4  v092
 BYTE   W06
 BYTE   N06
 BYTE   W06
 BYTE   N06
 BYTE   W06
 BYTE   N06
 BYTE   W06
 BYTE   N06
 BYTE   W06
 BYTE   N06
 BYTE   W06
 BYTE   PEND 
// 014   ----------------------------------------
 BYTE   N72
 BYTE   W96
// 015   ----------------------------------------
 BYTE   N06  Fn4  v092
 BYTE   W18
 BYTE   N06
 BYTE   W06
 BYTE   N48
 BYTE   W72
 BYTE   PEND 
// 016   ----------------------------------------
 BYTE   N12  Fn4  v100
 BYTE   W24
 BYTE   N48  Cs4
 BYTE   W48
 BYTE   N12  Cn4
 BYTE   W12
 BYTE   N06  As3
 BYTE   W06
 BYTE   Gs3
 BYTE   W06
 BYTE   PEND 
// 017   ----------------------------------------
 BYTE   N24  As3  v100
 BYTE   W24
 BYTE   Ds4
 BYTE   W24
 BYTE   As3
 BYTE   W36
 BYTE   N06
 BYTE   W06
 BYTE   Cn4
 BYTE   W06
 BYTE   PEND 
// 018   ----------------------------------------
 BYTE   N72  Cs4  v100
 BYTE   W84
 BYTE   N06  Ds4
 BYTE   W06
 BYTE   As3
 BYTE   W06
 BYTE   PEND 
// 019   ----------------------------------------
 BYTE   N48  Cn4  v100
 BYTE   W48
 BYTE   N24
 BYTE   W24
 BYTE   Fn4
 BYTE   W24
 BYTE   PEND 
// 020   ----------------------------------------
 BYTE   N48  Fn2  v112
 BYTE   W48
 BYTE   N24  As2
 BYTE   W24
 BYTE   Dn3
 BYTE   W24
 BYTE   PEND 
// 021   ----------------------------------------
 BYTE   N12  Ds3  v112
 BYTE   W18
 BYTE   N06  Dn3
 BYTE   W06
 BYTE   N36  Cn3
 BYTE   W36
 BYTE   N12  Ds2
 BYTE   W12
 BYTE   Gs2
 BYTE   W12
 BYTE   Cn3
 BYTE   W12
 BYTE   PEND 
// 022   ----------------------------------------
 BYTE   N12  Dn3  v112
 BYTE   W18
 BYTE   N06  Cn3
 BYTE   W06
 BYTE   N72  As2
 BYTE   W72
 BYTE   PEND 
// 023   ----------------------------------------
 BYTE   N12  Cn3  v112
 BYTE   W12
 BYTE   Dn3
 BYTE   W12
 BYTE   N36  Ds3
 BYTE   W36
 BYTE   N12  Fn2
 BYTE   W12
 BYTE   An2
 BYTE   W12
 BYTE   Cn3
 BYTE   W12
 BYTE   PEND 
// 024   ----------------------------------------
 BYTE   N72  Dn3
 BYTE   W96
// 025   ----------------------------------------
 BYTE   VOL   40*LeifArmy_mvl/mxv
 BYTE   W96
// 026   ----------------------------------------
 BYTE   GoTo
  POIN2 Label_13_01289E86
 BYTE   FINE

//**************** Track 15 (Midi-Chn.14) ****************//

LeifArmy_015:
// 000   ----------------------------------------
 BYTE   KEYSH   LeifArmy_key+0
Label_14_01289F3A:
 BYTE   VOICE   127
 BYTE   VOL   30*LeifArmy_mvl/mxv
 BYTE   N06  Dn1  v100
 BYTE   N06  En1  v076
 BYTE   W12
 BYTE   Dn1  v100
 BYTE   N06  En1  v076
 BYTE   W06
 BYTE   Dn1  v100
 BYTE   N06  En1  v072
 BYTE   W06
 BYTE   Dn1  v100
 BYTE   N06  En1  v076
 BYTE   W12
 BYTE   Dn1  v100
 BYTE   N06  En1  v076
 BYTE   W12
 BYTE   Dn1  v100
 BYTE   N06  En1  v076
 BYTE   W12
 BYTE   Dn1  v100
 BYTE   N06  En1  v076
 BYTE   W06
 BYTE   Dn1  v100
 BYTE   N06  En1  v072
 BYTE   W06
 BYTE   Dn1  v100
 BYTE   N06  En1  v076
 BYTE   W12
 BYTE   Dn1  v100
 BYTE   N06  En1  v076
 BYTE   W12
// 001   ----------------------------------------
Label_14_01289F7B:
 BYTE   N06  Dn1  v100
 BYTE   N06  En1  v076
 BYTE   W12
 BYTE   Dn1  v100
 BYTE   N06  En1  v076
 BYTE   W06
 BYTE   Dn1  v100
 BYTE   N06  En1  v072
 BYTE   W06
 BYTE   Dn1  v100
 BYTE   N06  En1  v076
 BYTE   W12
 BYTE   Dn1  v100
 BYTE   N06  En1  v076
 BYTE   W12
 BYTE   Dn1  v100
 BYTE   N06  En1  v076
 BYTE   W12
 BYTE   Dn1  v100
 BYTE   N06  En1  v076
 BYTE   W06
 BYTE   Dn1  v100
 BYTE   N06  En1  v072
 BYTE   W06
 BYTE   Dn1  v100
 BYTE   N06  En1  v076
 BYTE   W12
 BYTE   Dn1  v100
 BYTE   N06  En1  v076
 BYTE   W12
 BYTE   PEND 
 BYTE   PATT
  POIN2 Label_14_01289F7B
 BYTE   PATT
  POIN2 Label_14_01289F7B
 BYTE   PATT
  POIN2 Label_14_01289F7B
 BYTE   PATT
  POIN2 Label_14_01289F7B
 BYTE   PATT
  POIN2 Label_14_01289F7B
// 002   ----------------------------------------
 BYTE   N06  Dn1  v100
 BYTE   N06  En1  v076
 BYTE   W12
 BYTE   Dn1  v100
 BYTE   N06  En1  v076
 BYTE   W06
 BYTE   Dn1  v100
 BYTE   N06  En1  v072
 BYTE   W06
 BYTE   Dn1  v100
 BYTE   N06  En1  v076
 BYTE   W12
 BYTE   Dn1  v100
 BYTE   N06  En1  v076
 BYTE   W12
 BYTE   Dn1  v100
 BYTE   N06  En1  v076
 BYTE   W12
 BYTE   Dn1  v100
 BYTE   N06  En1  v076
 BYTE   W36
 BYTE   PEND 
// 003   ----------------------------------------
Label_14_01289FFE:
 BYTE   N06  Dn1  v100
 BYTE   N06  En1  v076
 BYTE   W36
 BYTE   Dn1  v100
 BYTE   N06  En1  v076
 BYTE   W06
 BYTE   Dn1  v100
 BYTE   N06  En1  v076
 BYTE   W06
 BYTE   Dn1  v100
 BYTE   N06  En1  v076
 BYTE   W12
 BYTE   Dn1  v100
 BYTE   N06  En1  v076
 BYTE   W24
 BYTE   Dn1  v100
 BYTE   N06  En1
 BYTE   W12
 BYTE   PEND 
// 004   ----------------------------------------
 BYTE   N06  Dn1  v100
 BYTE   N06  En1  v076
 BYTE   W18
 BYTE   Dn1  v100
 BYTE   N06  En1  v076
 BYTE   W06
 BYTE   Dn1  v100
 BYTE   N06  En1  v076
 BYTE   W72
 BYTE   PEND 
 BYTE   PATT
  POIN2 Label_14_01289FFE
// 005   ----------------------------------------
Label_14_0128A03C:
 BYTE   N06  Dn1  v100
 BYTE   N06  En1  v076
 BYTE   W18
 BYTE   Dn1  v100
 BYTE   N06  En1  v076
 BYTE   W06
 BYTE   Dn1  v100
 BYTE   N06  En1  v076
 BYTE   W12
 BYTE   Dn1  v100
 BYTE   N06  En1  v076
 BYTE   W60
 BYTE   PEND 
 BYTE   PATT
  POIN2 Label_14_01289FFE
 BYTE   PATT
  POIN2 Label_14_0128A03C
 BYTE   PATT
  POIN2 Label_14_01289FFE
// 006   ----------------------------------------
 BYTE   N06  Dn1  v100
 BYTE   N06  En1  v076
 BYTE   W12
 BYTE   Dn1  v100
 BYTE   N06  En1  v076
 BYTE   W06
 BYTE   Dn1  v100
 BYTE   N06  En1  v076
 BYTE   W06
 BYTE   Dn1  v100
 BYTE   N06  En1  v076
 BYTE   W12
 BYTE   Dn1  v100
 BYTE   N06  En1  v076
 BYTE   W06
 BYTE   Dn1  v100
 BYTE   N06  En1  v076
 BYTE   W06
 BYTE   Dn1  v100
 BYTE   N06  En1  v076
 BYTE   W12
 BYTE   Dn1  v100
 BYTE   N06  En1  v076
 BYTE   W12
 BYTE   Dn1  v100
 BYTE   N06  En1  v076
 BYTE   W24
 BYTE   PEND 
// 007   ----------------------------------------
Label_14_0128A09D:
 BYTE   N06  Dn1  v100
 BYTE   N06  En1  v076
 BYTE   W12
 BYTE   Dn1  v100
 BYTE   N06  En1  v076
 BYTE   W06
 BYTE   Dn1  v100
 BYTE   N06  En1  v076
 BYTE   W06
 BYTE   Dn1  v100
 BYTE   N06  En1  v076
 BYTE   W12
 BYTE   Dn1  v100
 BYTE   N06  En1  v076
 BYTE   W06
 BYTE   Dn1  v100
 BYTE   N06  En1  v076
 BYTE   W06
 BYTE   Dn1  v100
 BYTE   N06  En1  v076
 BYTE   W12
 BYTE   Dn1  v100
 BYTE   N06  En1  v076
 BYTE   W06
 BYTE   Dn1  v100
 BYTE   N06  En1  v076
 BYTE   W06
 BYTE   Dn1  v100
 BYTE   N06  En1  v076
 BYTE   W12
 BYTE   Dn1  v100
 BYTE   N06  En1  v076
 BYTE   W12
 BYTE   PEND 
 BYTE   PATT
  POIN2 Label_14_0128A09D
 BYTE   PATT
  POIN2 Label_14_0128A09D
 BYTE   PATT
  POIN2 Label_14_0128A09D
 BYTE   PATT
  POIN2 Label_14_01289F7B
 BYTE   PATT
  POIN2 Label_14_01289F7B
 BYTE   PATT
  POIN2 Label_14_01289F7B
 BYTE   PATT
  POIN2 Label_14_01289F7B
 BYTE   PATT
  POIN2 Label_14_01289F7B
// 008   ----------------------------------------
 BYTE   N06  Dn1  v100
 BYTE   N06  En1  v076
 BYTE   W12
 BYTE   Dn1  v100
 BYTE   N06  En1  v076
 BYTE   W06
 BYTE   Dn1  v100
 BYTE   N06  En1  v072
 BYTE   W06
 BYTE   Dn1  v100
 BYTE   N06  En1  v076
 BYTE   W12
 BYTE   Dn1  v100
 BYTE   N06  En1  v076
 BYTE   W12
 BYTE   Dn1  v100
 BYTE   N06  En1  v076
 BYTE   W12
 BYTE   Dn1  v100
 BYTE   N06  En1  v076
 BYTE   W06
 BYTE   Dn1  v100
 BYTE   N06  En1  v072
 BYTE   W06
 BYTE   Dn1  v100
 BYTE   N06  En1  v076
 BYTE   W24
// 009   ----------------------------------------
 BYTE   GoTo
  POIN2 Label_14_01289F3A
 BYTE   FINE

//**************** Track 16 (Midi-Chn.15) ****************//

LeifArmy_016:
// 000   ----------------------------------------
 BYTE   KEYSH   LeifArmy_key+0
Label_15_0128A14A:
 BYTE   VOICE   47
 BYTE   VOL   38*LeifArmy_mvl/mxv
 BYTE   N12  Bn1  v100
 BYTE   N12  Bn2  v072
 BYTE   W84
 BYTE   Bn1  v100
 BYTE   N12  Bn2  v072
 BYTE   W12
// 001   ----------------------------------------
Label_15_0128A15B:
 BYTE   N12  Bn1  v100
 BYTE   N12  Bn2  v072
 BYTE   W84
 BYTE   Bn1  v100
 BYTE   N12  Bn2  v072
 BYTE   W12
 BYTE   PEND 
 BYTE   PATT
  POIN2 Label_15_0128A15B
// 002   ----------------------------------------
 BYTE   N12  Bn1  v100
 BYTE   N12  Bn2  v072
 BYTE   W84
 BYTE   N06  Gs1  v100
 BYTE   N06  Gs2  v072
 BYTE   W06
 BYTE   Gs1  v100
 BYTE   N06  Gs2  v072
 BYTE   W06
 BYTE   PEND 
// 003   ----------------------------------------
Label_15_0128A183:
 BYTE   N12  Bn1  v100
 BYTE   N12  Bn2  v072
 BYTE   W84
 BYTE   Gs1  v100
 BYTE   N12  Gs2  v072
 BYTE   W12
 BYTE   PEND 
 BYTE   PATT
  POIN2 Label_15_0128A183
 BYTE   PATT
  POIN2 Label_15_0128A183
// 004   ----------------------------------------
 BYTE   N12  Bn1  v104
 BYTE   N12  Bn2  v072
 BYTE   W84
 BYTE   N06  Gs1  v100
 BYTE   N06  Gs2  v072
 BYTE   W06
 BYTE   Gs1
 BYTE   N06  Gs2
 BYTE   W06
 BYTE   PEND 
// 005   ----------------------------------------
 BYTE   N12  Bn1  v100
 BYTE   N12  Bn2  v072
 BYTE   W96
 BYTE   PEND 
// 006   ----------------------------------------
Label_15_0128A1B6:
 BYTE   W84
 BYTE   N12  Bn1  v100
 BYTE   N12  Bn2  v072
 BYTE   W12
 BYTE   PEND 
// 007   ----------------------------------------
Label_15_0128A1BF:
 BYTE   N12  Gs1  v100
 BYTE   N12  Gs2  v072
 BYTE   W96
 BYTE   PEND 
// 008   ----------------------------------------
 BYTE   W84
 BYTE   N12  Bn1  v104
 BYTE   N12  Bn2  v072
 BYTE   W12
 BYTE   PEND 
 BYTE   PATT
  POIN2 Label_15_0128A1BF
 BYTE   PATT
  POIN2 Label_15_0128A1B6
 BYTE   PATT
  POIN2 Label_15_0128A1BF
// 009   ----------------------------------------
 BYTE   W84
 BYTE   N06  Bn1  v100
 BYTE   N06  Bn2  v072
 BYTE   W06
 BYTE   Bn1  v100
 BYTE   N06  Bn2  v072
 BYTE   W06
 BYTE   PEND 
// 010   ----------------------------------------
 BYTE   W96
// 011   ----------------------------------------
 BYTE   W96
// 012   ----------------------------------------
 BYTE   W96
// 013   ----------------------------------------
 BYTE   W96
// 014   ----------------------------------------
 BYTE   W96
// 015   ----------------------------------------
 BYTE   W96
// 016   ----------------------------------------
 BYTE   W96
// 017   ----------------------------------------
 BYTE   W96
// 018   ----------------------------------------
 BYTE   W96
// 019   ----------------------------------------
 BYTE   W84
 BYTE   N12  Cn2  v100
 BYTE   N12  Bn2  v072
 BYTE   W12
 BYTE   PEND 
// 020   ----------------------------------------
 BYTE   GoTo
  POIN2 Label_15_0128A14A
 BYTE   FINE

//******************************************************//
	ALIGN 4

LeifArmy:
	BYTE	16	// NumTrks
	BYTE	0	// NumBlks
	BYTE	LeifArmy_pri	// Priority
	BYTE	LeifArmy_rev	// Reverb.
    
	POIN2	LeifArmy_grp
    
	POIN2	LeifArmy_001
	POIN2	LeifArmy_002
	POIN2	LeifArmy_003
	POIN2	LeifArmy_004
	POIN2	LeifArmy_005
	POIN2	LeifArmy_006
	POIN2	LeifArmy_007
	POIN2	LeifArmy_008
	POIN2	LeifArmy_009
	POIN2	LeifArmy_010
	POIN2	LeifArmy_011
	POIN2	LeifArmy_012
	POIN2	LeifArmy_013
	POIN2	LeifArmy_014
	POIN2	LeifArmy_015
	POIN2	LeifArmy_016

	
