//Event file generated from Sappy .s format.
	#include "MPlayDef.event"

	#define	Magridd_grp  voicegroup000
	#define	Magridd_pri  0
	#define	Magridd_rev  0
	#define	Magridd_mvl  75
	#define	Magridd_key  0
	#define	Magridd_tbs  1
	#define	Magridd_exg  0
	#define	Magridd_cmp  1

	// .rodata
	//	Magridd
	ALIGN 4

//**************** Track 1 (Midi-Chn.1) ****************//

Magridd_1:
	BYTE	KEYSH   Magridd_key+0
// 000   ----------------------------------------
	BYTE	TEMPO   58*Magridd_tbs/2
	BYTE		VOICE   36
	BYTE		VOL     69*Magridd_mvl/mxv
	BYTE		PAN     c_v+0
	BYTE		N04     Gn1   v124
	BYTE	W06
	BYTE		        Fn2   v116
	BYTE	W06
	BYTE		        Gn2 
	BYTE	W06
	BYTE		        Gn1 
	BYTE	W06
	BYTE		N07     Fn2 
	BYTE	W09
	BYTE		        Gn2 
	BYTE	W09
	BYTE		N08     Gn1   v124
	BYTE	W09
	BYTE		N07     Fn2   v116
	BYTE	W09
	BYTE		N04     Gn2 
	BYTE	W06
	BYTE		        Gn1 
	BYTE	W06
	BYTE		N07     Fn2   v124
	BYTE	W09
	BYTE		        Gn2   v116
	BYTE	W09
	BYTE		N04     Gn1 
	BYTE	W06
// 001   ----------------------------------------
Magridd_1_001:
	BYTE		N04     Gn1   v124
	BYTE	W06
	BYTE		        Fn2   v116
	BYTE	W06
	BYTE		        Gn2 
	BYTE	W06
	BYTE		        Gn1 
	BYTE	W06
	BYTE		N07     Fn2 
	BYTE	W09
	BYTE		        Gn2 
	BYTE	W09
	BYTE		N08     Gn1   v124
	BYTE	W09
	BYTE		N07     Fn2   v116
	BYTE	W09
	BYTE		N04     Gn2 
	BYTE	W06
	BYTE		        Gn1 
	BYTE	W06
	BYTE		N07     Fn2   v124
	BYTE	W09
	BYTE		        Gn2   v116
	BYTE	W09
	BYTE		N04     Gn1 
	BYTE	W06
	BYTE	PEND
// 002   ----------------------------------------
	BYTE	PATT
	 POIN2	Magridd_1_001
// 003   ----------------------------------------
	BYTE	PATT
	 POIN2	Magridd_1_001
// 004   ----------------------------------------
	BYTE	PATT
	 POIN2	Magridd_1_001
// 005   ----------------------------------------
	BYTE	PATT
	 POIN2	Magridd_1_001
// 006   ----------------------------------------
	BYTE	PATT
	 POIN2	Magridd_1_001
// 007   ----------------------------------------
	BYTE	PATT
	 POIN2	Magridd_1_001
// 008   ----------------------------------------
	BYTE	PATT
	 POIN2	Magridd_1_001
// 009   ----------------------------------------
	BYTE	PATT
	 POIN2	Magridd_1_001
// 010   ----------------------------------------
	BYTE	PATT
	 POIN2	Magridd_1_001
// 011   ----------------------------------------
	BYTE	PATT
	 POIN2	Magridd_1_001
// 012   ----------------------------------------
	BYTE	PATT
	 POIN2	Magridd_1_001
// 013   ----------------------------------------
	BYTE	PATT
	 POIN2	Magridd_1_001
// 014   ----------------------------------------
	BYTE	PATT
	 POIN2	Magridd_1_001
// 015   ----------------------------------------
	BYTE		N04     Gn1   v124
	BYTE	W06
	BYTE		        Fn2   v116
	BYTE	W06
	BYTE		        Gn2 
	BYTE	W06
	BYTE		        Gn1 
	BYTE	W06
	BYTE		N07     Fn2 
	BYTE	W09
	BYTE		        Gn2 
	BYTE	W09
	BYTE		N08     Gn1   v124
	BYTE	W09
	BYTE		N07     Fn2   v116
	BYTE	W09
	BYTE		N04     Gn2 
	BYTE	W06
	BYTE		        Gn1 
	BYTE	W06
	BYTE		N07     Fn2   v124
	BYTE	W09
	BYTE		        Gn2   v116
	BYTE	W09
	BYTE		N04     Gn1 
	BYTE	W04
	BYTE	FINE

//**************** Track 2 (Midi-Chn.2) ****************//

Magridd_2:
	BYTE	KEYSH   Magridd_key+0
// 000   ----------------------------------------
	BYTE		VOICE   127
	BYTE		VOL     63*Magridd_mvl/mxv
	BYTE		N09     Cn1   v116
	BYTE	W12
	BYTE		        Dn1 
	BYTE	W12
	BYTE		        Cn1 
	BYTE	W12
	BYTE		N07     Dn1 
	BYTE	W09
	BYTE		N02   
	BYTE	W06
	BYTE		N07     Cn1 
	BYTE	W09
	BYTE		N04     Dn1 
	BYTE	W06
	BYTE		        Cn1 
	BYTE	W06
	BYTE		N07   
	BYTE	W09
	BYTE		N02     Dn1 
	BYTE	W09
	BYTE		N04     Cn1 
	BYTE	W06
// 001   ----------------------------------------
Magridd_2_001:
	BYTE		N09     Cn1   v116
	BYTE	W12
	BYTE		        Dn1 
	BYTE	W12
	BYTE		        Cn1 
	BYTE	W12
	BYTE		N07     Dn1 
	BYTE	W09
	BYTE		N02   
	BYTE	W06
	BYTE		N07     Cn1 
	BYTE	W09
	BYTE		N04     Dn1 
	BYTE	W06
	BYTE		        Cn1 
	BYTE	W06
	BYTE		N07   
	BYTE	W09
	BYTE		N02     Dn1 
	BYTE	W09
	BYTE		N04     Cn1 
	BYTE	W06
	BYTE	PEND
// 002   ----------------------------------------
	BYTE	PATT
	 POIN2	Magridd_2_001
// 003   ----------------------------------------
	BYTE	PATT
	 POIN2	Magridd_2_001
// 004   ----------------------------------------
	BYTE	PATT
	 POIN2	Magridd_2_001
// 005   ----------------------------------------
	BYTE	PATT
	 POIN2	Magridd_2_001
// 006   ----------------------------------------
	BYTE	PATT
	 POIN2	Magridd_2_001
// 007   ----------------------------------------
	BYTE	PATT
	 POIN2	Magridd_2_001
// 008   ----------------------------------------
	BYTE	PATT
	 POIN2	Magridd_2_001
// 009   ----------------------------------------
	BYTE	PATT
	 POIN2	Magridd_2_001
// 010   ----------------------------------------
	BYTE	PATT
	 POIN2	Magridd_2_001
// 011   ----------------------------------------
	BYTE	PATT
	 POIN2	Magridd_2_001
// 012   ----------------------------------------
	BYTE	PATT
	 POIN2	Magridd_2_001
// 013   ----------------------------------------
	BYTE	PATT
	 POIN2	Magridd_2_001
// 014   ----------------------------------------
	BYTE	PATT
	 POIN2	Magridd_2_001
// 015   ----------------------------------------
	BYTE		N09     Cn1   v116
	BYTE	W12
	BYTE		        Dn1 
	BYTE	W12
	BYTE		        Cn1 
	BYTE	W12
	BYTE		N07     Dn1 
	BYTE	W09
	BYTE		N02   
	BYTE	W06
	BYTE		N07     Cn1 
	BYTE	W09
	BYTE		N04     Dn1 
	BYTE	W06
	BYTE		        Cn1 
	BYTE	W06
	BYTE		N07   
	BYTE	W09
	BYTE		N02     Dn1 
	BYTE	W09
	BYTE		N04     Cn1 
	BYTE	W04
	BYTE	FINE

//**************** Track 3 (Midi-Chn.3) ****************//

Magridd_3:
	BYTE	KEYSH   Magridd_key+0
// 000   ----------------------------------------
	BYTE		VOICE   15
	BYTE		VOL     55*Magridd_mvl/mxv
	BYTE		PAN     c_v+0
	BYTE	W96
// 001   ----------------------------------------
	BYTE	W96
// 002   ----------------------------------------
Magridd_3_002:
	BYTE	W06
	BYTE		N02     As4   v116
	BYTE	W03
	BYTE		        Fn4   v104
	BYTE	W09
	BYTE		        Cn5   v116
	BYTE	W03
	BYTE		        Gn4   v092
	BYTE	W32
	BYTE	W01
	BYTE		        As4   v116
	BYTE	W03
	BYTE		        Fn4   v104
	BYTE	W03
	BYTE		        Cn5   v116
	BYTE	W03
	BYTE		        Gn4   v092
	BYTE	W32
	BYTE	W01
	BYTE	PEND
// 003   ----------------------------------------
	BYTE	PATT
	 POIN2	Magridd_3_002
// 004   ----------------------------------------
	BYTE	PATT
	 POIN2	Magridd_3_002
// 005   ----------------------------------------
	BYTE	PATT
	 POIN2	Magridd_3_002
// 006   ----------------------------------------
	BYTE	PATT
	 POIN2	Magridd_3_002
// 007   ----------------------------------------
	BYTE	PATT
	 POIN2	Magridd_3_002
// 008   ----------------------------------------
	BYTE	W96
// 009   ----------------------------------------
	BYTE	W96
// 010   ----------------------------------------
	BYTE	PATT
	 POIN2	Magridd_3_002
// 011   ----------------------------------------
	BYTE	PATT
	 POIN2	Magridd_3_002
// 012   ----------------------------------------
	BYTE	PATT
	 POIN2	Magridd_3_002
// 013   ----------------------------------------
	BYTE	PATT
	 POIN2	Magridd_3_002
// 014   ----------------------------------------
	BYTE	PATT
	 POIN2	Magridd_3_002
// 015   ----------------------------------------
	BYTE	W06
	BYTE		N02     As4   v116
	BYTE	W03
	BYTE		        Fn4   v104
	BYTE	W09
	BYTE		        Cn5   v116
	BYTE	W03
	BYTE		        Gn4   v092
	BYTE	W32
	BYTE	W01
	BYTE		        As4   v116
	BYTE	W03
	BYTE		        Fn4   v104
	BYTE	W03
	BYTE		        Cn5   v116
	BYTE	W03
	BYTE		        Gn4   v092
	BYTE	W30
	BYTE	W01
	BYTE	FINE

//**************** Track 4 (Midi-Chn.4) ****************//

Magridd_4:
	BYTE	KEYSH   Magridd_key+0
// 000   ----------------------------------------
	BYTE		VOICE   15
	BYTE		VOL     35*Magridd_mvl/mxv
	BYTE		PAN     c_v+34
	BYTE	W96
// 001   ----------------------------------------
	BYTE	W96
// 002   ----------------------------------------
Magridd_4_002:
	BYTE	W09
	BYTE		N02     As4   v116
	BYTE	W03
	BYTE		        Fn4   v104
	BYTE	W09
	BYTE		        Cn5   v116
	BYTE	W03
	BYTE		        Gn4   v092
	BYTE	W32
	BYTE	W01
	BYTE		        As4   v116
	BYTE	W03
	BYTE		        Fn4   v104
	BYTE	W03
	BYTE		        Cn5   v116
	BYTE	W03
	BYTE		        Gn4   v092
	BYTE	W30
	BYTE	PEND
// 003   ----------------------------------------
	BYTE	PATT
	 POIN2	Magridd_4_002
// 004   ----------------------------------------
	BYTE	PATT
	 POIN2	Magridd_4_002
// 005   ----------------------------------------
	BYTE	PATT
	 POIN2	Magridd_4_002
// 006   ----------------------------------------
	BYTE	PATT
	 POIN2	Magridd_4_002
// 007   ----------------------------------------
	BYTE	PATT
	 POIN2	Magridd_4_002
// 008   ----------------------------------------
	BYTE	W96
// 009   ----------------------------------------
	BYTE	W96
// 010   ----------------------------------------
	BYTE	PATT
	 POIN2	Magridd_4_002
// 011   ----------------------------------------
	BYTE	PATT
	 POIN2	Magridd_4_002
// 012   ----------------------------------------
	BYTE	PATT
	 POIN2	Magridd_4_002
// 013   ----------------------------------------
	BYTE	PATT
	 POIN2	Magridd_4_002
// 014   ----------------------------------------
	BYTE	PATT
	 POIN2	Magridd_4_002
// 015   ----------------------------------------
	BYTE	W09
	BYTE		N02     As4   v116
	BYTE	W03
	BYTE		        Fn4   v104
	BYTE	W09
	BYTE		        Cn5   v116
	BYTE	W03
	BYTE		        Gn4   v092
	BYTE	W32
	BYTE	W01
	BYTE		        As4   v116
	BYTE	W03
	BYTE		        Fn4   v104
	BYTE	W03
	BYTE		        Cn5   v116
	BYTE	W03
	BYTE		        Gn4   v092
	BYTE	W28
	BYTE	FINE

//**************** Track 5 (Midi-Chn.5) ****************//

Magridd_5:
	BYTE	KEYSH   Magridd_key+0
// 000   ----------------------------------------
	BYTE		VOICE   61
	BYTE		VOL     33*Magridd_mvl/mxv
	BYTE		PAN     c_v-14
	BYTE	W96
// 001   ----------------------------------------
	BYTE	W96
// 002   ----------------------------------------
Magridd_5_002:
	BYTE	W84
	BYTE		N01     As3   v116
	BYTE	W03
	BYTE		N01   
	BYTE	W06
	BYTE		        Cn4   v104
	BYTE	W03
	BYTE	PEND
// 003   ----------------------------------------
Magridd_5_003:
	BYTE	W72
	BYTE		N01     As3   v116
	BYTE	W03
	BYTE		N01   
	BYTE	W06
	BYTE		        Cn4   v104
	BYTE	W06
	BYTE		        As3   v116
	BYTE	W06
	BYTE		        Cn4   v104
	BYTE	W03
	BYTE	PEND
// 004   ----------------------------------------
	BYTE	PATT
	 POIN2	Magridd_5_002
// 005   ----------------------------------------
	BYTE	PATT
	 POIN2	Magridd_5_003
// 006   ----------------------------------------
	BYTE	PATT
	 POIN2	Magridd_5_002
// 007   ----------------------------------------
	BYTE	PATT
	 POIN2	Magridd_5_003
// 008   ----------------------------------------
	BYTE	PATT
	 POIN2	Magridd_5_002
// 009   ----------------------------------------
	BYTE	PATT
	 POIN2	Magridd_5_003
// 010   ----------------------------------------
	BYTE	PATT
	 POIN2	Magridd_5_002
// 011   ----------------------------------------
	BYTE	PATT
	 POIN2	Magridd_5_003
// 012   ----------------------------------------
	BYTE	PATT
	 POIN2	Magridd_5_002
// 013   ----------------------------------------
	BYTE	PATT
	 POIN2	Magridd_5_003
// 014   ----------------------------------------
	BYTE	PATT
	 POIN2	Magridd_5_002
// 015   ----------------------------------------
	BYTE	W72
	BYTE		N01     As3   v116
	BYTE	W03
	BYTE		N01   
	BYTE	W06
	BYTE		        Cn4   v104
	BYTE	W06
	BYTE		        As3   v116
	BYTE	W06
	BYTE		        Cn4   v104
	BYTE	W01
	BYTE	FINE

//**************** Track 6 (Midi-Chn.6) ****************//

Magridd_6:
	BYTE	KEYSH   Magridd_key+0
// 000   ----------------------------------------
	BYTE		VOICE   61
	BYTE		VOL     70*Magridd_mvl/mxv
	BYTE		PAN     c_v-14
	BYTE	W96
// 001   ----------------------------------------
	BYTE	W96
// 002   ----------------------------------------
Magridd_6_002:
	BYTE	W84
	BYTE		N01     Fn3   v116
	BYTE	W03
	BYTE		N01   
	BYTE	W06
	BYTE		        Gn3   v104
	BYTE	W03
	BYTE	PEND
// 003   ----------------------------------------
Magridd_6_003:
	BYTE	W72
	BYTE		N01     Fn3   v116
	BYTE	W03
	BYTE		N01   
	BYTE	W06
	BYTE		        Gn3   v104
	BYTE	W06
	BYTE		        Fn3   v116
	BYTE	W06
	BYTE		        Gn3   v104
	BYTE	W03
	BYTE	PEND
// 004   ----------------------------------------
	BYTE	PATT
	 POIN2	Magridd_6_002
// 005   ----------------------------------------
	BYTE	PATT
	 POIN2	Magridd_6_003
// 006   ----------------------------------------
	BYTE	PATT
	 POIN2	Magridd_6_002
// 007   ----------------------------------------
	BYTE	PATT
	 POIN2	Magridd_6_003
// 008   ----------------------------------------
	BYTE	PATT
	 POIN2	Magridd_6_002
// 009   ----------------------------------------
	BYTE	PATT
	 POIN2	Magridd_6_003
// 010   ----------------------------------------
	BYTE	PATT
	 POIN2	Magridd_6_002
// 011   ----------------------------------------
	BYTE	PATT
	 POIN2	Magridd_6_003
// 012   ----------------------------------------
	BYTE	PATT
	 POIN2	Magridd_6_002
// 013   ----------------------------------------
	BYTE	PATT
	 POIN2	Magridd_6_003
// 014   ----------------------------------------
	BYTE	PATT
	 POIN2	Magridd_6_002
// 015   ----------------------------------------
	BYTE	W72
	BYTE		N01     Fn3   v116
	BYTE	W03
	BYTE		N01   
	BYTE	W06
	BYTE		        Gn3   v104
	BYTE	W06
	BYTE		        Fn3   v116
	BYTE	W06
	BYTE		        Gn3   v104
	BYTE	W01
	BYTE	FINE

//**************** Track 7 (Midi-Chn.7) ****************//

Magridd_7:
	BYTE	KEYSH   Magridd_key+0
// 000   ----------------------------------------
	BYTE		VOICE   81
	BYTE		VOL     67*Magridd_mvl/mxv
	BYTE		PAN     c_v+0
	BYTE	W96
// 001   ----------------------------------------
	BYTE	W96
// 002   ----------------------------------------
	BYTE	W96
// 003   ----------------------------------------
	BYTE	W96
// 004   ----------------------------------------
Magridd_7_004:
	BYTE		N28     As3   v116
	BYTE	W30
	BYTE		N02     An3 
	BYTE	W03
	BYTE		        Fn3 
	BYTE	W03
	BYTE		        Gn3 
	BYTE	W03
	BYTE		        As3 
	BYTE	W03
	BYTE		        An3 
	BYTE	W03
	BYTE		        Fn3 
	BYTE	W03
	BYTE		        Gn3 
	BYTE	W03
	BYTE		        As3 
	BYTE	W03
	BYTE		        An3 
	BYTE	W03
	BYTE		N36     Fn3 
	BYTE	W36
	BYTE	W03
	BYTE	PEND
// 005   ----------------------------------------
	BYTE	PATT
	 POIN2	Magridd_7_004
// 006   ----------------------------------------
Magridd_7_006:
	BYTE		N28     As4   v116
	BYTE	W30
	BYTE		N02     An4 
	BYTE	W03
	BYTE		        Fn4 
	BYTE	W03
	BYTE		        Gn4 
	BYTE	W03
	BYTE		        As4 
	BYTE	W03
	BYTE		        An4 
	BYTE	W03
	BYTE		        Fn4 
	BYTE	W03
	BYTE		        Gn4 
	BYTE	W03
	BYTE		        As4 
	BYTE	W03
	BYTE		        An4 
	BYTE	W03
	BYTE		N36     Fn4 
	BYTE	W36
	BYTE	W03
	BYTE	PEND
// 007   ----------------------------------------
	BYTE	PATT
	 POIN2	Magridd_7_006
// 008   ----------------------------------------
	BYTE	W96
// 009   ----------------------------------------
	BYTE	W96
// 010   ----------------------------------------
	BYTE		N04     Gn3   v116
	BYTE	W06
	BYTE		        Fn4 
	BYTE	W06
	BYTE		        Gn4 
	BYTE	W06
	BYTE		        Gn3 
	BYTE	W06
	BYTE		N07     Fn4 
	BYTE	W09
	BYTE		        Gn4 
	BYTE	W09
	BYTE		N08     Gn3 
	BYTE	W09
	BYTE		N07     Fn4 
	BYTE	W09
	BYTE		N04     Gn4 
	BYTE	W06
	BYTE		        Gn3 
	BYTE	W06
	BYTE		N07     Fn4 
	BYTE	W09
	BYTE		        Gn4 
	BYTE	W09
	BYTE		N04     Gn3 
	BYTE	W06
// 011   ----------------------------------------
	BYTE		N04   
	BYTE	W06
	BYTE		        Fn4 
	BYTE	W06
	BYTE		        Gn4 
	BYTE	W06
	BYTE		        Gn3 
	BYTE	W06
	BYTE		N07     Fn4 
	BYTE	W09
	BYTE		        Gn4 
	BYTE	W09
	BYTE		N08     Gn3 
	BYTE	W09
	BYTE		N07     Fn4 
	BYTE	W09
	BYTE		N04     Gn4 
	BYTE	W06
	BYTE		        Gn3 
	BYTE	W06
	BYTE		N07     Fn4 
	BYTE	W09
	BYTE		        Gn4 
	BYTE	W15
// 012   ----------------------------------------
	BYTE		VOL     75*Magridd_mvl/mxv
	BYTE		N28     As3 
	BYTE	W30
	BYTE		N04     Gn3 
	BYTE	W06
	BYTE		        Cn4 
	BYTE	W06
	BYTE		        As3 
	BYTE	W06
	BYTE		        Dn4 
	BYTE	W06
	BYTE		        Cn4 
	BYTE	W06
	BYTE		        Fn4 
	BYTE	W06
	BYTE		N23     Dn4 
	BYTE	W30
// 013   ----------------------------------------
	BYTE		N28     Gn4 
	BYTE	W30
	BYTE		N04     Dn4 
	BYTE	W06
	BYTE		        As4 
	BYTE	W06
	BYTE		        Gn4 
	BYTE	W06
	BYTE		        Dn5   v104
	BYTE	W06
	BYTE		        As4 
	BYTE	W06
	BYTE		        Gn5   v092
	BYTE	W06
	BYTE		N23     Dn5   v076
	BYTE	W30
// 014   ----------------------------------------
	BYTE		N28     As3   v116
	BYTE	W30
	BYTE		N04     Gn3 
	BYTE	W06
	BYTE		        Cn4 
	BYTE	W06
	BYTE		        As3 
	BYTE	W06
	BYTE		        Dn4 
	BYTE	W06
	BYTE		        Cn4 
	BYTE	W06
	BYTE		        Fn4 
	BYTE	W06
	BYTE		N23     Dn4 
	BYTE	W30
// 015   ----------------------------------------
	BYTE		N28     Gn4 
	BYTE	W30
	BYTE		N04     Dn4 
	BYTE	W06
	BYTE		        As4 
	BYTE	W06
	BYTE		        Gn4 
	BYTE	W06
	BYTE		        Dn5   v104
	BYTE	W06
	BYTE		        As4 
	BYTE	W06
	BYTE		        Gn5   v092
	BYTE	W06
	BYTE		N23     Gn4   v076
	BYTE	W28
	BYTE	FINE

//**************** Track 8 (Midi-Chn.8) ****************//

Magridd_8:
	BYTE	KEYSH   Magridd_key+0
// 000   ----------------------------------------
	BYTE		VOICE   81
	BYTE		VOL     40*Magridd_mvl/mxv
	BYTE		PAN     c_v+25
	BYTE	W96
// 001   ----------------------------------------
	BYTE	W96
// 002   ----------------------------------------
	BYTE	W96
// 003   ----------------------------------------
	BYTE	W96
// 004   ----------------------------------------
Magridd_8_004:
	BYTE	W03
	BYTE		N28     As3   v116
	BYTE	W30
	BYTE		N02     An3 
	BYTE	W03
	BYTE		        Fn3 
	BYTE	W03
	BYTE		        Gn3 
	BYTE	W03
	BYTE		        As3 
	BYTE	W03
	BYTE		        An3 
	BYTE	W03
	BYTE		        Fn3 
	BYTE	W03
	BYTE		        Gn3 
	BYTE	W03
	BYTE		        As3 
	BYTE	W03
	BYTE		        An3 
	BYTE	W03
	BYTE		N36     Fn3 
	BYTE	W36
	BYTE	PEND
// 005   ----------------------------------------
	BYTE	PATT
	 POIN2	Magridd_8_004
// 006   ----------------------------------------
Magridd_8_006:
	BYTE	W03
	BYTE		N28     As4   v116
	BYTE	W30
	BYTE		N02     An4 
	BYTE	W03
	BYTE		        Fn4 
	BYTE	W03
	BYTE		        Gn4 
	BYTE	W03
	BYTE		        As4 
	BYTE	W03
	BYTE		        An4 
	BYTE	W03
	BYTE		        Fn4 
	BYTE	W03
	BYTE		        Gn4 
	BYTE	W03
	BYTE		        As4 
	BYTE	W03
	BYTE		        An4 
	BYTE	W03
	BYTE		N36     Fn4 
	BYTE	W36
	BYTE	PEND
// 007   ----------------------------------------
	BYTE	PATT
	 POIN2	Magridd_8_006
// 008   ----------------------------------------
	BYTE	W96
// 009   ----------------------------------------
	BYTE	W96
// 010   ----------------------------------------
	BYTE	W03
	BYTE		N04     Gn3   v116
	BYTE	W06
	BYTE		        Fn4 
	BYTE	W06
	BYTE		        Gn4 
	BYTE	W06
	BYTE		        Gn3 
	BYTE	W06
	BYTE		N07     Fn4 
	BYTE	W09
	BYTE		        Gn4 
	BYTE	W09
	BYTE		N08     Gn3 
	BYTE	W09
	BYTE		N07     Fn4 
	BYTE	W09
	BYTE		N04     Gn4 
	BYTE	W06
	BYTE		        Gn3 
	BYTE	W06
	BYTE		N07     Fn4 
	BYTE	W09
	BYTE		        Gn4 
	BYTE	W09
	BYTE		N04     Gn3 
	BYTE	W03
// 011   ----------------------------------------
	BYTE	W03
	BYTE		N04   
	BYTE	W06
	BYTE		        Fn4 
	BYTE	W06
	BYTE		        Gn4 
	BYTE	W06
	BYTE		        Gn3 
	BYTE	W06
	BYTE		N07     Fn4 
	BYTE	W09
	BYTE		        Gn4 
	BYTE	W09
	BYTE		N08     Gn3 
	BYTE	W09
	BYTE		N07     Fn4 
	BYTE	W09
	BYTE		N04     Gn4 
	BYTE	W06
	BYTE		        Gn3 
	BYTE	W06
	BYTE		N07     Fn4 
	BYTE	W09
	BYTE		        Gn4 
	BYTE	W12
// 012   ----------------------------------------
	BYTE	W03
	BYTE		VOL     55*Magridd_mvl/mxv
	BYTE		N28     As3 
	BYTE	W30
	BYTE		N04     Gn3 
	BYTE	W06
	BYTE		        Cn4 
	BYTE	W06
	BYTE		        As3 
	BYTE	W06
	BYTE		        Dn4 
	BYTE	W06
	BYTE		        Cn4 
	BYTE	W06
	BYTE		        Fn4 
	BYTE	W06
	BYTE		N23     Dn4 
	BYTE	W24
	BYTE	W03
// 013   ----------------------------------------
	BYTE	W03
	BYTE		N28     Gn4 
	BYTE	W30
	BYTE		N04     Dn4 
	BYTE	W06
	BYTE		        As4 
	BYTE	W06
	BYTE		        Gn4 
	BYTE	W06
	BYTE		        Dn5   v104
	BYTE	W06
	BYTE		        As4 
	BYTE	W06
	BYTE		        Gn5   v092
	BYTE	W06
	BYTE		N23     Dn5   v076
	BYTE	W24
	BYTE	W03
// 014   ----------------------------------------
	BYTE	W03
	BYTE		N28     As3   v116
	BYTE	W30
	BYTE		N04     Gn3 
	BYTE	W06
	BYTE		        Cn4 
	BYTE	W06
	BYTE		        As3 
	BYTE	W06
	BYTE		        Dn4 
	BYTE	W06
	BYTE		        Cn4 
	BYTE	W06
	BYTE		        Fn4 
	BYTE	W06
	BYTE		N23     Dn4 
	BYTE	W24
	BYTE	W03
// 015   ----------------------------------------
	BYTE	W03
	BYTE		N28     Gn4 
	BYTE	W30
	BYTE		N04     Dn4 
	BYTE	W06
	BYTE		        As4 
	BYTE	W06
	BYTE		        Gn4 
	BYTE	W06
	BYTE		        Dn5   v104
	BYTE	W06
	BYTE		        As4 
	BYTE	W06
	BYTE		        Gn5   v092
	BYTE	W06
	BYTE		N21     Gn4   v076
	BYTE	W24
	BYTE	W01
	BYTE	FINE

//******************************************************//
	ALIGN 4

Magridd:
	BYTE	8	// NumTrks
	BYTE	0	// NumBlks
	BYTE	Magridd_pri	// Priority
	BYTE	Magridd_rev	// Reverb.

	POIN2	Magridd_grp

	POIN2	Magridd_1
	POIN2	Magridd_2
	POIN2	Magridd_3
	POIN2	Magridd_4
	POIN2	Magridd_5
	POIN2	Magridd_6
	POIN2	Magridd_7
	POIN2	Magridd_8

	
