//Event file generated from Sappy .s format.
	#include "MPlayDef.event"

	#define	MilanorSortie_grp  MilanorSortieInstrumentTable
	#define	MilanorSortie_pri  10
	#define	MilanorSortie_rev  128
	#define	MilanorSortie_mvl  127
	#define	MilanorSortie_key  0
	#define	MilanorSortie_tbs  1
	#define	MilanorSortie_exg  0
	#define	MilanorSortie_cmp  1

	// .rodata
	//	MilanorSortie
	ALIGN 4


//**************** Track 1 (Midi-Chn.0) ****************//

MilanorSortie_001:
// 000   ----------------------------------------
 BYTE   KEYSH   MilanorSortie_key+0
 BYTE   TEMPO   176*MilanorSortie_tbs/2
 BYTE   VOICE   6
 BYTE   VOL   62*MilanorSortie_mvl/mxv
 BYTE   MOD 0
 BYTE   CnM2
 BYTE   BENDR  2
 BYTE   LFOS 0
 BYTE   Gn0
 BYTE   AsM2
 BYTE   BEND   c_v+0
 BYTE   W12
 BYTE   N06  Fn2  v100
 BYTE   N06  As2
 BYTE   N06  Fn3
 BYTE   N06  As3
 BYTE   N06  Fn4
 BYTE   N06  As4
 BYTE   W06
 BYTE   Fs2
 BYTE   N06  Bn2
 BYTE   N06  Fs3
 BYTE   N06  Bn3
 BYTE   N06  Fs4
 BYTE   N06  Bn4
 BYTE   W06
 BYTE   Gn2
 BYTE   N06  Cn3
 BYTE   N06  Gn3
 BYTE   N06  Cn4
 BYTE   N06  Gn4
 BYTE   N06  Cn5
 BYTE   W06
 BYTE   Gs2
 BYTE   N06  Cs3
 BYTE   N06  Gs3
 BYTE   N06  Cs4
 BYTE   N06  Gs4
 BYTE   N06  Cs5
 BYTE   W06
 BYTE   N18  An3
 BYTE   N18  Dn4
 BYTE   N18  Dn5
 BYTE   W18
 BYTE   Dn4
 BYTE   N18  Gn4
 BYTE   N18  Gn5
 BYTE   W18
 BYTE   N12  Gn4
 BYTE   N12  Cn5
 BYTE   N12  Cn6
 BYTE   W12
 BYTE   N18  An4
 BYTE   N18  Dn5
 BYTE   W18
// 001   ----------------------------------------
 BYTE   N18
 BYTE   N18  Gn5
 BYTE   W18
 BYTE   N12
 BYTE   N12  Cn6
 BYTE   W12
 BYTE   VOICE   10
 BYTE   VOL   47*MilanorSortie_mvl/mxv
 BYTE   N12  En3
 BYTE   N12  An3
 BYTE   W12
 BYTE   Dn3
 BYTE   N12  Gn3
 BYTE   W12
 BYTE   Bn2
 BYTE   N12  En3
 BYTE   W12
 BYTE   N24  As2
 BYTE   N24  Ds3
 BYTE   W24
 BYTE   N12  An2
 BYTE   N12  Dn3
 BYTE   W12
// 002   ----------------------------------------
 BYTE   Gn2
 BYTE   N12  Cn3
 BYTE   W12
 BYTE   Dn2
 BYTE   N12  Gn2
 BYTE   W12
Label_0_011E754D:
 BYTE   VOICE   6
 BYTE   VOL   62*MilanorSortie_mvl/mxv
 BYTE   N36  En3  v088
 BYTE   N36  An3  v127
 BYTE   W36
 BYTE   N48  An3  v088
 BYTE   N48  En4  v127
 BYTE   W48
// 003   ----------------------------------------
 BYTE   N06  An3  v088
 BYTE   N06  Dn4  v127
 BYTE   W06
 BYTE   An3  v088
 BYTE   N06  Cn4  v127
 BYTE   W06
 BYTE   N24  Gn3  v088
 BYTE   N24  Bn3  v127
 BYTE   W24
 BYTE   N12  Gn3  v088
 BYTE   N12  Cn4  v127
 BYTE   W12
 BYTE   Gn3  v088
 BYTE   N12  Bn3  v127
 BYTE   W24
 BYTE   N24  Dn3  v088
 BYTE   N24  Gn3  v127
 BYTE   W24
// 004   ----------------------------------------
 BYTE   N12  Bn2  v088
 BYTE   N12  Dn3  v127
 BYTE   W12
 BYTE   N36  Dn3  v088
 BYTE   N36  Gn3  v127
 BYTE   W36
 BYTE   En3  v088
 BYTE   N36  An3  v127
 BYTE   W36
 BYTE   N24  Gn3  v088
 BYTE   N24  Bn3  v127
 BYTE   W24
// 005   ----------------------------------------
 BYTE   An3  v088
 BYTE   N24  Dn4  v127
 BYTE   W24
 BYTE   N12  An3  v088
 BYTE   N12  Cn4  v127
 BYTE   W12
 BYTE   En3  v088
 BYTE   N12  Bn3  v127
 BYTE   W24
 BYTE   N36  En3  v088
 BYTE   N36  Cn4  v127
 BYTE   W36
// 006   ----------------------------------------
 BYTE   N12  As3  v088
 BYTE   N12  Dn4  v127
 BYTE   W12
 BYTE   As3  v088
 BYTE   N12  En4  v127
 BYTE   W12
 BYTE   Dn4  v088
 BYTE   N12  Fn4  v127
 BYTE   W12
 BYTE   Fn3  v088
 BYTE   N12  As3  v127
 BYTE   W24
 BYTE   N36  As3  v088
 BYTE   N36  Fn4  v127
 BYTE   W36
// 007   ----------------------------------------
 BYTE   N24  Bn3  v088
 BYTE   N24  Fn4  v127
 BYTE   W24
 BYTE   Fn3  v088
 BYTE   N24  Bn3  v127
 BYTE   W24
 BYTE   N12  Dn4  v088
 BYTE   N12  Gn4  v127
 BYTE   W12
 BYTE   N24  Dn4  v088
 BYTE   N24  Fn4  v127
 BYTE   W24
 BYTE   N12  Dn4  v088
 BYTE   N12  Gn4  v127
 BYTE   W12
// 008   ----------------------------------------
 BYTE   N48  Bn3  v088
 BYTE   N48  En4  v127
 BYTE   W48
 BYTE   N12  Gs3  v088
 BYTE   N12  Bn3  v127
 BYTE   W12
 BYTE   N06  Bn3  v088
 BYTE   N06  En4  v127
 BYTE   W12
 BYTE   N12  En4  v088
 BYTE   N12  Gs4  v127
 BYTE   W12
 BYTE   Bn3  v088
 BYTE   N12  En4  v127
 BYTE   W12
// 009   ----------------------------------------
 BYTE   N48  En4  v088
 BYTE   N48  An4  v127
 BYTE   W48
 BYTE   En4  v088
 BYTE   N48  Gs4  v127
 BYTE   W48
// 010   ----------------------------------------
 BYTE   VOICE   10
 BYTE   VOL   47*MilanorSortie_mvl/mxv
 BYTE   N12  En3  v088
 BYTE   N12  An3  v127
 BYTE   W12
 BYTE   N06  Gn3  v088
 BYTE   N06  Bn3  v127
 BYTE   W12
 BYTE   N12  An3  v088
 BYTE   N12  Cn4  v127
 BYTE   W12
 BYTE   N24  Bn3  v088
 BYTE   N24  Dn4  v127
 BYTE   W06
 BYTE   MOD 0
 BYTE   EnM2
 BYTE   W18
 BYTE   CnM2
 BYTE   N12  An3  v088
 BYTE   N12  Cn4  v127
 BYTE   W12
 BYTE   Gn3  v088
 BYTE   N12  Bn3  v127
 BYTE   W12
 BYTE   Bn2  v088
 BYTE   N12  En3  v127
 BYTE   W12
// 011   ----------------------------------------
 BYTE   BEND   c_v-64
 BYTE   N36  En3  v088
 BYTE   N36  An3  v127
 BYTE   W02
 BYTE   BEND   c_v-53
 BYTE   W02
 BYTE   BnM1
 BYTE   W02
 BYTE   MOD 0
 BYTE   EnM2
 BYTE   BEND   c_v-29
 BYTE   W02
 BYTE   Bn1
 BYTE   W02
 BYTE   Bn2
 BYTE   W02
 BYTE   En3
 BYTE   W24
 BYTE   MOD 0
 BYTE   CnM2
 BYTE   N36  Dn3  v088
 BYTE   N36  Gn3  v127
 BYTE   W06
 BYTE   MOD 0
 BYTE   EnM2
 BYTE   W30
 BYTE   CnM2
 BYTE   N24  Gn2  v088
 BYTE   N24  Dn3  v127
 BYTE   W24
// 012   ----------------------------------------
 BYTE   BEND   c_v-64
 BYTE   N48  An2  v088
 BYTE   N48  En3  v127
 BYTE   W02
 BYTE   BEND   c_v-53
 BYTE   W02
 BYTE   BnM1
 BYTE   W02
 BYTE   MOD 0
 BYTE   EnM2
 BYTE   BEND   c_v-29
 BYTE   W02
 BYTE   As1
 BYTE   W02
 BYTE   As2
 BYTE   W02
 BYTE   En3
 BYTE   W36
 BYTE   MOD 0
 BYTE   CnM2
 BYTE   N12  An2  v088
 BYTE   N12  Cn3  v127
 BYTE   W12
 BYTE   N06  Cn3  v088
 BYTE   N06  En3  v127
 BYTE   W12
 BYTE   N12  En3  v088
 BYTE   N12  An3  v127
 BYTE   W12
 BYTE   N18  Dn3  v088
 BYTE   N18  Gn3  v127
 BYTE   W12
// 013   ----------------------------------------
 BYTE   W12
 BYTE   N24  Gn2  v088
 BYTE   N24  Dn3  v127
 BYTE   W24
 BYTE   Gn3  v088
 BYTE   N24  Bn3  v127
 BYTE   W24
 BYTE   N12  Gn3  v088
 BYTE   N12  Cn4  v127
 BYTE   W12
 BYTE   Gn3  v088
 BYTE   N12  Bn3  v127
 BYTE   W12
 BYTE   Dn3  v088
 BYTE   N12  Gn3  v127
 BYTE   W12
// 014   ----------------------------------------
 BYTE   Dn3  v088
 BYTE   N12  An3  v127
 BYTE   W12
 BYTE   N06  Dn3  v088
 BYTE   N06  Gn3  v127
 BYTE   W12
 BYTE   N12  Dn3  v088
 BYTE   N12  An3  v127
 BYTE   W12
 BYTE   N36  An3  v088
 BYTE   N36  Dn4  v127
 BYTE   W06
 BYTE   MOD 0
 BYTE   EnM2
 BYTE   W30
 BYTE   CnM2
 BYTE   N12  Gn3  v088
 BYTE   N12  Cn4  v127
 BYTE   W12
 BYTE   Gn3  v088
 BYTE   N12  Dn4  v127
 BYTE   W12
// 015   ----------------------------------------
 BYTE   Cn4  v088
 BYTE   N12  En4  v127
 BYTE   W12
 BYTE   Cn4  v088
 BYTE   N12  Fn4  v127
 BYTE   W12
 BYTE   Cn4  v088
 BYTE   N12  En4  v127
 BYTE   W12
 BYTE   N24  Gn3  v088
 BYTE   N24  Cn4  v127
 BYTE   W06
 BYTE   MOD 0
 BYTE   EnM2
 BYTE   W06
 BYTE   BEND   c_v+0
 BYTE   W02
 BYTE   Gs2
 BYTE   W02
 BYTE   Cn2
 BYTE   W02
 BYTE   En1
 BYTE   W02
 BYTE   An0
 BYTE   W02
 BYTE   Cs0
 BYTE   W02
 BYTE   MOD 0
 BYTE   CnM2
 BYTE   BEND   c_v-64
 BYTE   N24  En3  v088
 BYTE   N24  Gn3  v127
 BYTE   W02
 BYTE   BEND   c_v-53
 BYTE   W02
 BYTE   AsM1
 BYTE   W02
 BYTE   As0
 BYTE   W02
 BYTE   An1
 BYTE   W02
 BYTE   An2
 BYTE   W02
 BYTE   En3
 BYTE   W12
 BYTE   N12  Cn3  v088
 BYTE   N12  En3  v127
 BYTE   W12
// 016   ----------------------------------------
 BYTE   N36  An2  v088
 BYTE   N36  Fn3  v127
 BYTE   W06
 BYTE   MOD 0
 BYTE   EnM2
 BYTE   W18
 BYTE   BEND   c_v+0
 BYTE   W02
 BYTE   Gs2
 BYTE   W02
 BYTE   Cn2
 BYTE   W02
 BYTE   En1
 BYTE   W02
 BYTE   Gs0
 BYTE   W02
 BYTE   Cs0
 BYTE   W02
 BYTE   MOD 0
 BYTE   CnM2
 BYTE   BEND   c_v+0
 BYTE   N36  Cn3  v088
 BYTE   N36  An3  v127
 BYTE   W06
 BYTE   MOD 0
 BYTE   EnM2
 BYTE   W30
 BYTE   CnM2
 BYTE   N24  Fn3  v088
 BYTE   N24  Dn4  v127
 BYTE   W24
// 017   ----------------------------------------
 BYTE   N12  En3  v088
 BYTE   N12  En4  v127
 BYTE   W12
 BYTE   N06  En3  v088
 BYTE   N06  En4  v127
 BYTE   W06
 BYTE   En3  v044
 BYTE   N06  En4  v064
 BYTE   W78
// 018   ----------------------------------------
 BYTE   VOICE   17
 BYTE   VOL   66*MilanorSortie_mvl/mxv
 BYTE   TIE  En5  v088
 BYTE   TIE  An5
 BYTE   W96
// 019   ----------------------------------------
 BYTE   W36
 BYTE   EOT
 BYTE   En5  v093
 BYTE   N36  Dn5
 BYTE   N36  Gn5
 BYTE   W36
 BYTE   N24  Cn5
 BYTE   N24  En5
 BYTE   W24
// 020   ----------------------------------------
 BYTE   VOICE   6
 BYTE   VOL   62*MilanorSortie_mvl/mxv
 BYTE   N48  An3
 BYTE   N48  Fn4  v127
 BYTE   W48
 BYTE   N24  Cn4  v088
 BYTE   N24  Gn4  v127
 BYTE   W24
 BYTE   Fn4  v088
 BYTE   N24  An4  v127
 BYTE   W24
// 021   ----------------------------------------
 BYTE   Gn4  v088
 BYTE   N24  Bn4  v127
 BYTE   W24
 BYTE   Dn4  v088
 BYTE   N24  Gn4  v127
 BYTE   W24
 BYTE   Gn4  v088
 BYTE   N24  Cn5  v127
 BYTE   W24
 BYTE   Gn4  v088
 BYTE   N24  Bn4  v127
 BYTE   W24
// 022   ----------------------------------------
 BYTE   VOICE   17
 BYTE   VOL   66*MilanorSortie_mvl/mxv
 BYTE   TIE  En4  v088
 BYTE   TIE  An4
 BYTE   W96
// 023   ----------------------------------------
 BYTE   W36
 BYTE   EOT
 BYTE   En4  v081
 BYTE   N36  Dn4
 BYTE   N36  Gn4
 BYTE   W36
 BYTE   N24  Cn4
 BYTE   N24  En4
 BYTE   W24
// 024   ----------------------------------------
 BYTE   VOICE   6
 BYTE   VOL   62*MilanorSortie_mvl/mxv
 BYTE   N12  Fn4
 BYTE   N12  An4  v127
 BYTE   W12
 BYTE   Cn4  v088
 BYTE   N12  Fn4  v127
 BYTE   W12
 BYTE   Fn4  v088
 BYTE   N12  An4  v127
 BYTE   W12
 BYTE   N24  An4  v088
 BYTE   N24  Cn5  v127
 BYTE   W24
 BYTE   N12  Cn5  v088
 BYTE   N12  Fn5  v127
 BYTE   W12
 BYTE   Cn5  v088
 BYTE   N12  En5  v127
 BYTE   W12
 BYTE   An4  v088
 BYTE   N12  Cn5  v127
 BYTE   W12
// 025   ----------------------------------------
 BYTE   An4  v088
 BYTE   N12  Dn5  v127
 BYTE   W12
 BYTE   Fs4  v088
 BYTE   N12  An4  v127
 BYTE   W12
 BYTE   An4  v088
 BYTE   N12  Dn5  v127
 BYTE   W12
 BYTE   N24  Dn5  v088
 BYTE   N24  Gn5  v127
 BYTE   W24
 BYTE   N12  Dn5  v088
 BYTE   N12  Fs5  v127
 BYTE   W12
 BYTE   An4  v088
 BYTE   N12  Dn5  v127
 BYTE   W12
 BYTE   Dn4  v088
 BYTE   N12  An4  v127
 BYTE   W12
// 026   ----------------------------------------
 BYTE   W96
// 027   ----------------------------------------
 BYTE   W96
// 028   ----------------------------------------
 BYTE   GoTo
  POIN2 Label_0_011E754D
 BYTE   FINE

//**************** Track 2 (Midi-Chn.1) ****************//

MilanorSortie_002:
// 000   ----------------------------------------
 BYTE   KEYSH   MilanorSortie_key+0
 BYTE   VOICE   18
 BYTE   VOL   25*MilanorSortie_mvl/mxv
 BYTE   W12
 BYTE   W24
 BYTE   N18  An2  v096
 BYTE   W18
 BYTE   Dn3
 BYTE   W18
 BYTE   N12  Gn3
 BYTE   W12
 BYTE   N18  An3
 BYTE   W18
// 001   ----------------------------------------
 BYTE   Dn4
 BYTE   W18
 BYTE   N12  Gn4
 BYTE   W12
 BYTE   An3
 BYTE   W12
 BYTE   Gn3
 BYTE   W12
 BYTE   En3
 BYTE   W12
 BYTE   N24  Ds3
 BYTE   W24
 BYTE   N12  Dn3
 BYTE   W12
// 002   ----------------------------------------
 BYTE   Cn3
 BYTE   W12
 BYTE   Gn2
 BYTE   W12
Label_1_011E788A:
 BYTE   W06
 BYTE   VOICE   6
 BYTE   VOL   31*MilanorSortie_mvl/mxv
 BYTE   N36  An3  v127
 BYTE   W36
 BYTE   N48  En4
 BYTE   W48
// 003   ----------------------------------------
 BYTE   N06  Dn4
 BYTE   W06
 BYTE   Cn4
 BYTE   W06
 BYTE   N24  Bn3
 BYTE   W24
 BYTE   N12  Cn4
 BYTE   W12
 BYTE   Bn3
 BYTE   W24
 BYTE   N24  Gn3
 BYTE   W24
// 004   ----------------------------------------
 BYTE   N12  Dn3
 BYTE   W06
 BYTE   W06
 BYTE   N36  Gn3
 BYTE   W36
 BYTE   An3
 BYTE   W36
 BYTE   N24  Bn3
 BYTE   W18
// 005   ----------------------------------------
 BYTE   W06
 BYTE   Dn4
 BYTE   W24
 BYTE   N12  Cn4
 BYTE   W12
 BYTE   Bn3
 BYTE   W24
 BYTE   N36  Cn4
 BYTE   W30
// 006   ----------------------------------------
 BYTE   W06
 BYTE   N12  Dn4
 BYTE   W12
 BYTE   En4
 BYTE   W12
 BYTE   Fn4
 BYTE   W12
 BYTE   As3
 BYTE   W24
 BYTE   N36  Fn4
 BYTE   W30
// 007   ----------------------------------------
 BYTE   W06
 BYTE   N24
 BYTE   W24
 BYTE   Bn3
 BYTE   W24
 BYTE   N12  Gn4
 BYTE   W12
 BYTE   N24  Fn4
 BYTE   W24
 BYTE   N12  Gn4
 BYTE   W06
// 008   ----------------------------------------
 BYTE   W06
 BYTE   N48  En4
 BYTE   W48
 BYTE   N12  Bn3
 BYTE   W12
 BYTE   N06  En4
 BYTE   W12
 BYTE   N12  Gs4
 BYTE   W12
 BYTE   En4
 BYTE   W06
// 009   ----------------------------------------
 BYTE   W06
 BYTE   N48  An4
 BYTE   W48
 BYTE   N42  Gs4
 BYTE   W42
// 010   ----------------------------------------
 BYTE   W06
 BYTE   VOICE   10
 BYTE   VOL   28*MilanorSortie_mvl/mxv
 BYTE   N12  An3
 BYTE   W12
 BYTE   N06  Bn3
 BYTE   W12
 BYTE   N12  Cn4
 BYTE   W12
 BYTE   N24  Dn4
 BYTE   W24
 BYTE   N12  Cn4
 BYTE   W12
 BYTE   Bn3
 BYTE   W12
 BYTE   En3
 BYTE   W06
// 011   ----------------------------------------
 BYTE   W06
 BYTE   BEND   c_v-64
 BYTE   N36  An3
 BYTE   W02
 BYTE   BEND   c_v-53
 BYTE   W02
 BYTE   BnM1
 BYTE   W02
 BYTE   Bn0
 BYTE   W02
 BYTE   Bn1
 BYTE   W02
 BYTE   Bn2
 BYTE   W02
 BYTE   En3
 BYTE   W24
 BYTE   N36  Gn3
 BYTE   W36
 BYTE   N24  Dn3
 BYTE   W18
// 012   ----------------------------------------
 BYTE   W06
 BYTE   BEND   c_v-64
 BYTE   N48  En3
 BYTE   W02
 BYTE   BEND   c_v-53
 BYTE   W02
 BYTE   BnM1
 BYTE   W02
 BYTE   Bn0
 BYTE   W02
 BYTE   As1
 BYTE   W02
 BYTE   As2
 BYTE   W02
 BYTE   En3
 BYTE   W36
 BYTE   N12  Cn3
 BYTE   W12
 BYTE   N06  En3
 BYTE   W12
 BYTE   N12  An3
 BYTE   W12
 BYTE   N18  Gn3
 BYTE   W06
// 013   ----------------------------------------
 BYTE   W18
 BYTE   N24  Dn3
 BYTE   W24
 BYTE   Bn3
 BYTE   W24
 BYTE   N12  Cn4
 BYTE   W12
 BYTE   Bn3
 BYTE   W12
 BYTE   Gn3
 BYTE   W06
// 014   ----------------------------------------
 BYTE   W06
 BYTE   An3
 BYTE   W12
 BYTE   N06  Gn3
 BYTE   W12
 BYTE   N12  An3
 BYTE   W12
 BYTE   N36  Dn4
 BYTE   W36
 BYTE   N12  Cn4
 BYTE   W12
 BYTE   Dn4
 BYTE   W06
// 015   ----------------------------------------
 BYTE   W06
 BYTE   En4
 BYTE   W12
 BYTE   Fn4
 BYTE   W12
 BYTE   En4
 BYTE   W12
 BYTE   N24  Cn4
 BYTE   W12
 BYTE   BEND   c_v+0
 BYTE   W02
 BYTE   Gs2
 BYTE   W02
 BYTE   Cn2
 BYTE   W02
 BYTE   En1
 BYTE   W02
 BYTE   An0
 BYTE   W02
 BYTE   Cs0
 BYTE   W02
 BYTE   CnM2
 BYTE   N24  Gn3
 BYTE   W02
 BYTE   BEND   c_v-53
 BYTE   W02
 BYTE   AsM1
 BYTE   W02
 BYTE   As0
 BYTE   W02
 BYTE   An1
 BYTE   W02
 BYTE   An2
 BYTE   W02
 BYTE   En3
 BYTE   W12
 BYTE   N12  En3
 BYTE   W06
// 016   ----------------------------------------
 BYTE   W06
 BYTE   N36  Fn3
 BYTE   W24
 BYTE   BEND   c_v+0
 BYTE   W02
 BYTE   Gs2
 BYTE   W02
 BYTE   Cn2
 BYTE   W02
 BYTE   En1
 BYTE   W02
 BYTE   Gs0
 BYTE   W02
 BYTE   Cs0
 BYTE   W02
 BYTE   En3
 BYTE   N36  An3
 BYTE   W36
 BYTE   N24  Dn4
 BYTE   W18
// 017   ----------------------------------------
 BYTE   W96
// 018   ----------------------------------------
 BYTE   W96
// 019   ----------------------------------------
 BYTE   W96
// 020   ----------------------------------------
 BYTE   W06
 BYTE   VOICE   6
 BYTE   VOL   31*MilanorSortie_mvl/mxv
 BYTE   N48  Fn4
 BYTE   W48
 BYTE   N24  Gn4
 BYTE   W24
 BYTE   An4
 BYTE   W18
// 021   ----------------------------------------
 BYTE   W06
 BYTE   Bn4
 BYTE   W24
 BYTE   Gn4
 BYTE   W24
 BYTE   Cn5
 BYTE   W24
 BYTE   N18  Bn4
 BYTE   W18
// 022   ----------------------------------------
 BYTE   W96
// 023   ----------------------------------------
 BYTE   W96
// 024   ----------------------------------------
 BYTE   W06
 BYTE   N12  An4
 BYTE   W12
 BYTE   Fn4
 BYTE   W12
 BYTE   An4
 BYTE   W12
 BYTE   N24  Cn5
 BYTE   W24
 BYTE   N12  Fn5
 BYTE   W12
 BYTE   En5
 BYTE   W12
 BYTE   Cn5
 BYTE   W06
// 025   ----------------------------------------
 BYTE   W06
 BYTE   Dn5
 BYTE   W12
 BYTE   An4
 BYTE   W12
 BYTE   Dn5
 BYTE   W12
 BYTE   N24  Gn5
 BYTE   W24
 BYTE   N12  Fs5
 BYTE   W12
 BYTE   Dn5
 BYTE   W12
 BYTE   An4
 BYTE   W06
// 026   ----------------------------------------
 BYTE   W96
// 027   ----------------------------------------
 BYTE   W96
// 028   ----------------------------------------
 BYTE   GoTo
  POIN2 Label_1_011E788A
 BYTE   FINE

//**************** Track 3 (Midi-Chn.2) ****************//

MilanorSortie_003:
// 000   ----------------------------------------
 BYTE   KEYSH   MilanorSortie_key+0
 BYTE   VOICE   19
 BYTE   VOL   56*MilanorSortie_mvl/mxv
 BYTE   MOD 0
 BYTE   CnM2
 BYTE   BENDR  2
 BYTE   LFOS 0
 BYTE   Gn0
 BYTE   GnM2
 BYTE   BEND   c_v+0
 BYTE   W12
 BYTE   W24
 BYTE   N18  Dn3  v100
 BYTE   W18
 BYTE   Gn3
 BYTE   W18
 BYTE   N12  Cn4
 BYTE   W12
 BYTE   N18  Dn3
 BYTE   W18
// 001   ----------------------------------------
 BYTE   Gn3
 BYTE   W18
 BYTE   N12  Cn4
 BYTE   W12
 BYTE   W96
// 002   ----------------------------------------
Label_2_011E7A0A:
 BYTE   N24  An3  v100
 BYTE   W96
// 003   ----------------------------------------
 BYTE   W96
// 004   ----------------------------------------
 BYTE   W96
// 005   ----------------------------------------
 BYTE   W96
// 006   ----------------------------------------
 BYTE   W96
// 007   ----------------------------------------
 BYTE   W96
// 008   ----------------------------------------
 BYTE   W96
// 009   ----------------------------------------
 BYTE   W96
// 010   ----------------------------------------
 BYTE   N24
 BYTE   W96
// 011   ----------------------------------------
 BYTE   W96
// 012   ----------------------------------------
 BYTE   W96
// 013   ----------------------------------------
 BYTE   W96
// 014   ----------------------------------------
 BYTE   W96
// 015   ----------------------------------------
 BYTE   W96
// 016   ----------------------------------------
 BYTE   Fn2
 BYTE   W36
 BYTE   An2
 BYTE   W36
 BYTE   Dn3
 BYTE   W24
// 017   ----------------------------------------
 BYTE   N12  En3
 BYTE   W12
 BYTE   N24
 BYTE   W84
// 018   ----------------------------------------
 BYTE   W96
// 019   ----------------------------------------
 BYTE   W96
// 020   ----------------------------------------
 BYTE   W96
// 021   ----------------------------------------
 BYTE   W96
// 022   ----------------------------------------
 BYTE   W96
// 023   ----------------------------------------
 BYTE   W96
// 024   ----------------------------------------
 BYTE   W96
// 025   ----------------------------------------
 BYTE   W96
// 026   ----------------------------------------
 BYTE   VOICE   19
 BYTE   VOL   56*MilanorSortie_mvl/mxv
 BYTE   N12
 BYTE   W12
 BYTE   N12
 BYTE   W12
 BYTE   Dn3
 BYTE   W12
 BYTE   N24  En3
 BYTE   W24
 BYTE   N12
 BYTE   W12
 BYTE   Dn3
 BYTE   W12
 BYTE   N24  En3
 BYTE   W12
// 027   ----------------------------------------
 BYTE   W12
 BYTE   Fn2
 BYTE   W24
 BYTE   Fs2
 BYTE   W24
 BYTE   Gn2
 BYTE   W36
// 028   ----------------------------------------
 BYTE   GoTo
  POIN2 Label_2_011E7A0A
 BYTE   FINE

//**************** Track 4 (Midi-Chn.3) ****************//

MilanorSortie_004:
// 000   ----------------------------------------
 BYTE   KEYSH   MilanorSortie_key+0
 BYTE   VOICE   20
 BYTE   VOL   28*MilanorSortie_mvl/mxv
 BYTE   W12
 BYTE   W24
 BYTE   N18  Dn3  v127
 BYTE   W18
 BYTE   Gn3
 BYTE   W18
 BYTE   N12  Cn4
 BYTE   W12
 BYTE   N18  Dn4
 BYTE   W18
// 001   ----------------------------------------
 BYTE   Gn4
 BYTE   W18
 BYTE   N12  Cn5
 BYTE   W12
 BYTE   An4
 BYTE   W12
 BYTE   Gn4
 BYTE   W12
 BYTE   En4
 BYTE   W12
 BYTE   N24  Ds4
 BYTE   W24
 BYTE   N12  Dn4
 BYTE   W12
// 002   ----------------------------------------
 BYTE   Cn4
 BYTE   W12
 BYTE   Gn3
 BYTE   W12
Label_3_011E7A79:
 BYTE   VOICE   21
 BYTE   N06  An3  v127
 BYTE   W06
 BYTE   En4
 BYTE   W06
 BYTE   An4
 BYTE   W06
 BYTE   En5
 BYTE   W06
 BYTE   An4
 BYTE   W06
 BYTE   En4
 BYTE   W06
 BYTE   An3
 BYTE   W06
 BYTE   En3
 BYTE   W06
 BYTE   An3
 BYTE   W06
 BYTE   En4
 BYTE   W06
 BYTE   An4
 BYTE   W06
 BYTE   En5
 BYTE   W06
// 003   ----------------------------------------
 BYTE   An4
 BYTE   W06
 BYTE   En4
 BYTE   W06
 BYTE   An3
 BYTE   W06
 BYTE   En3
 BYTE   W06
 BYTE   Bn3
 BYTE   W06
 BYTE   Dn4
 BYTE   W06
 BYTE   Gn4
 BYTE   W06
 BYTE   Dn5
 BYTE   W06
 BYTE   Gn4
 BYTE   W06
 BYTE   Dn4
 BYTE   W06
 BYTE   Gn3
 BYTE   W06
 BYTE   Dn3
 BYTE   W06
 BYTE   Bn3
 BYTE   W06
 BYTE   Dn4
 BYTE   W06
 BYTE   Gn4
 BYTE   W06
 BYTE   Dn5
 BYTE   W06
// 004   ----------------------------------------
 BYTE   Gn4
 BYTE   W06
 BYTE   Dn4
 BYTE   W06
 BYTE   Gn3
 BYTE   W06
 BYTE   Dn3
 BYTE   W06
 BYTE   En3
 BYTE   W06
 BYTE   Bn3
 BYTE   W06
 BYTE   Dn4
 BYTE   W06
 BYTE   Bn4
 BYTE   W06
 BYTE   Gn4
 BYTE   W06
 BYTE   Dn4
 BYTE   W06
 BYTE   Bn3
 BYTE   W06
 BYTE   Gn3
 BYTE   W06
 BYTE   En3
 BYTE   W06
 BYTE   Bn3
 BYTE   W06
 BYTE   Dn4
 BYTE   W06
 BYTE   Bn4
 BYTE   W06
// 005   ----------------------------------------
 BYTE   Gn4
 BYTE   W06
 BYTE   Dn4
 BYTE   W06
 BYTE   Bn3
 BYTE   W06
 BYTE   Gn3
 BYTE   W06
 BYTE   En3
 BYTE   W06
 BYTE   An3
 BYTE   W06
 BYTE   En4
 BYTE   W06
 BYTE   An4
 BYTE   W06
 BYTE   En5
 BYTE   W06
 BYTE   An4
 BYTE   W06
 BYTE   En4
 BYTE   W06
 BYTE   An3
 BYTE   W06
 BYTE   En3
 BYTE   W06
 BYTE   An3
 BYTE   W06
 BYTE   En4
 BYTE   W06
 BYTE   An4
 BYTE   W06
// 006   ----------------------------------------
 BYTE   En5
 BYTE   W06
 BYTE   An4
 BYTE   W06
 BYTE   En4
 BYTE   W06
 BYTE   An3
 BYTE   W06
 BYTE   Fn3
 BYTE   W06
 BYTE   Dn4
 BYTE   W06
 BYTE   As4
 BYTE   W06
 BYTE   Dn5
 BYTE   W06
 BYTE   As4
 BYTE   W06
 BYTE   Dn4
 BYTE   W06
 BYTE   As3
 BYTE   W06
 BYTE   Fn3
 BYTE   W06
 BYTE   N06
 BYTE   W06
 BYTE   Dn4
 BYTE   W06
 BYTE   As4
 BYTE   W06
 BYTE   Dn5
 BYTE   W06
// 007   ----------------------------------------
 BYTE   As4
 BYTE   W06
 BYTE   Dn4
 BYTE   W06
 BYTE   As3
 BYTE   W06
 BYTE   Fn3
 BYTE   W06
 BYTE   Bn3
 BYTE   W06
 BYTE   Dn4
 BYTE   W06
 BYTE   Fn4
 BYTE   W06
 BYTE   Bn4
 BYTE   W06
 BYTE   Fn4
 BYTE   W06
 BYTE   Dn4
 BYTE   W06
 BYTE   Bn3
 BYTE   W06
 BYTE   Fn3
 BYTE   W06
 BYTE   Bn3
 BYTE   W06
 BYTE   Dn4
 BYTE   W06
 BYTE   Fn4
 BYTE   W06
 BYTE   Bn4
 BYTE   W06
// 008   ----------------------------------------
 BYTE   Fn4
 BYTE   W06
 BYTE   Dn4
 BYTE   W06
 BYTE   Bn3
 BYTE   W06
 BYTE   Fn3
 BYTE   W06
Label_3_011E7B3D:
 BYTE   N06  En3  v127
 BYTE   W06
 BYTE   Gs3
 BYTE   W06
 BYTE   Bn3
 BYTE   W06
 BYTE   En4
 BYTE   W06
 BYTE   Gs4
 BYTE   W06
 BYTE   Bn4
 BYTE   W06
 BYTE   Gs4
 BYTE   W06
 BYTE   En4
 BYTE   W06
 BYTE   Bn3
 BYTE   W06
 BYTE   Gs3
 BYTE   W06
 BYTE   En3
 BYTE   W06
 BYTE   Bn2
 BYTE   W06
// 009   ----------------------------------------
 BYTE   En3
 BYTE   W06
 BYTE   Gs3
 BYTE   W06
 BYTE   Bn3
 BYTE   W06
 BYTE   En4
 BYTE   W06
 BYTE   PEND 
 BYTE   PATT
  POIN2 Label_3_011E7B3D
// 010   ----------------------------------------
 BYTE   N06  An3  v127
 BYTE   W12
 BYTE   En4
 BYTE   W06
 BYTE   An3  v064
 BYTE   W06
 BYTE   An4  v127
 BYTE   W06
 BYTE   En4  v064
 BYTE   W06
 BYTE   En4  v127
 BYTE   W06
 BYTE   An4  v064
 BYTE   W06
 BYTE   An4  v127
 BYTE   W06
 BYTE   En4  v064
 BYTE   W06
 BYTE   En5  v127
 BYTE   W06
 BYTE   An4  v064
 BYTE   W06
 BYTE   An5  v127
 BYTE   W06
 BYTE   En5  v064
 BYTE   W06
 BYTE   En5  v127
 BYTE   W06
 BYTE   An5  v064
 BYTE   W06
// 011   ----------------------------------------
 BYTE   Gn3  v127
 BYTE   W06
 BYTE   En5  v064
 BYTE   W06
 BYTE   Dn4  v127
 BYTE   W06
 BYTE   Gn3  v064
 BYTE   W06
 BYTE   Gn4  v127
 BYTE   W06
 BYTE   Dn4  v064
 BYTE   W06
 BYTE   Dn4  v127
 BYTE   W06
 BYTE   Gn4  v064
 BYTE   W06
 BYTE   Gn4  v127
 BYTE   W06
 BYTE   Dn4  v064
 BYTE   W06
 BYTE   Dn5  v127
 BYTE   W06
 BYTE   Gn4  v064
 BYTE   W06
 BYTE   Gn5  v127
 BYTE   W06
 BYTE   Dn5  v064
 BYTE   W06
 BYTE   Dn5  v127
 BYTE   W06
 BYTE   Gn5  v064
 BYTE   W06
// 012   ----------------------------------------
 BYTE   Fn3  v127
 BYTE   W06
 BYTE   Dn5  v064
 BYTE   W06
 BYTE   Cn4  v127
 BYTE   W06
 BYTE   Fn3  v064
 BYTE   W06
 BYTE   Fn4  v127
 BYTE   W06
 BYTE   Cn4  v064
 BYTE   W06
 BYTE   Cn4  v127
 BYTE   W06
 BYTE   Fn4  v064
 BYTE   W06
 BYTE   Fn4  v127
 BYTE   W06
 BYTE   Cn4  v064
 BYTE   W06
 BYTE   Cn5  v127
 BYTE   W06
 BYTE   Fn4  v064
 BYTE   W06
 BYTE   Fn5  v127
 BYTE   W06
 BYTE   Cn5  v064
 BYTE   W06
 BYTE   En4  v127
 BYTE   W06
 BYTE   Fn5  v064
 BYTE   W06
// 013   ----------------------------------------
 BYTE   En3  v127
 BYTE   W06
 BYTE   En4  v064
 BYTE   W06
 BYTE   Bn3  v127
 BYTE   W06
 BYTE   En3  v064
 BYTE   W06
 BYTE   En4  v127
 BYTE   W06
 BYTE   Bn3  v064
 BYTE   W06
 BYTE   Bn3  v127
 BYTE   W06
 BYTE   En4  v064
 BYTE   W06
 BYTE   En4  v127
 BYTE   W06
 BYTE   Bn3  v064
 BYTE   W06
 BYTE   Bn4  v127
 BYTE   W06
 BYTE   En4  v064
 BYTE   W06
 BYTE   En5  v127
 BYTE   W06
 BYTE   Bn4  v064
 BYTE   W06
 BYTE   Bn5  v127
 BYTE   W06
 BYTE   En5  v064
 BYTE   W06
// 014   ----------------------------------------
 BYTE   An3  v127
 BYTE   W06
 BYTE   Bn5  v064
 BYTE   W06
 BYTE   Dn4  v127
 BYTE   W06
 BYTE   An3  v064
 BYTE   W06
 BYTE   An4  v127
 BYTE   W06
 BYTE   Dn4  v064
 BYTE   W06
 BYTE   Dn4  v127
 BYTE   W06
 BYTE   An4  v064
 BYTE   W06
 BYTE   An4  v127
 BYTE   W06
 BYTE   Dn4  v064
 BYTE   W06
 BYTE   Dn5  v127
 BYTE   W06
 BYTE   An4  v064
 BYTE   W06
 BYTE   An5  v127
 BYTE   W06
 BYTE   Dn5  v064
 BYTE   W06
 BYTE   Dn5  v127
 BYTE   W06
 BYTE   An5  v064
 BYTE   W06
// 015   ----------------------------------------
 BYTE   En3  v127
 BYTE   W06
 BYTE   Dn5  v064
 BYTE   W06
 BYTE   Bn3  v127
 BYTE   W06
 BYTE   En3  v064
 BYTE   W06
 BYTE   En4  v127
 BYTE   W06
 BYTE   Bn3  v064
 BYTE   W06
 BYTE   Bn3  v127
 BYTE   W06
 BYTE   En4  v064
 BYTE   W06
 BYTE   En4  v127
 BYTE   W06
 BYTE   Bn3  v064
 BYTE   W06
 BYTE   Bn4  v127
 BYTE   W06
 BYTE   En4  v064
 BYTE   W06
 BYTE   En5  v127
 BYTE   W06
 BYTE   Bn4  v064
 BYTE   W06
 BYTE   Bn4  v127
 BYTE   W06
 BYTE   En5  v064
 BYTE   W06
// 016   ----------------------------------------
 BYTE   Fn4  v127
 BYTE   W06
 BYTE   Bn4  v064
 BYTE   W06
 BYTE   An4  v127
 BYTE   W06
 BYTE   Fn4
 BYTE   W06
 BYTE   Dn5
 BYTE   W06
 BYTE   An4
 BYTE   W06
 BYTE   Fn5
 BYTE   W06
 BYTE   Dn5
 BYTE   W06
 BYTE   An5
 BYTE   W06
 BYTE   Fn5
 BYTE   W06
 BYTE   Dn6
 BYTE   W06
 BYTE   An5
 BYTE   W06
 BYTE   N06
 BYTE   W06
 BYTE   Fn5
 BYTE   W06
 BYTE   N06
 BYTE   W06
 BYTE   N06
 BYTE   W06
// 017   ----------------------------------------
 BYTE   En5
 BYTE   W06
 BYTE   Bn4
 BYTE   W06
 BYTE   En5
 BYTE   W06
 BYTE   Bn4
 BYTE   W06
 BYTE   Bn4  v064
 BYTE   W06
 BYTE   En5
 BYTE   W06
 BYTE   Bn4
 BYTE   W60
// 018   ----------------------------------------
Label_3_011E7CB4:
 BYTE   N06  An5  v127
 BYTE   W06
 BYTE   En5
 BYTE   W06
 BYTE   Dn5
 BYTE   W06
 BYTE   An4
 BYTE   W06
 BYTE   N06
 BYTE   W06
 BYTE   En4
 BYTE   W06
 BYTE   Dn4
 BYTE   W06
 BYTE   An3
 BYTE   W06
 BYTE   En4
 BYTE   W06
 BYTE   An4
 BYTE   W06
 BYTE   Dn5
 BYTE   W06
 BYTE   An4
 BYTE   W06
 BYTE   N06
 BYTE   W06
 BYTE   En4
 BYTE   W06
 BYTE   Cn4
 BYTE   W06
 BYTE   An3
 BYTE   W06
 BYTE   PEND 
// 019   ----------------------------------------
Label_3_011E7CD7:
 BYTE   N06  An5  v127
 BYTE   W06
 BYTE   Fn5
 BYTE   W06
 BYTE   Cn5
 BYTE   W06
 BYTE   Fn4
 BYTE   W06
 BYTE   Cn4
 BYTE   W06
 BYTE   An3
 BYTE   W06
 BYTE   Dn3
 BYTE   W06
 BYTE   En3
 BYTE   W06
 BYTE   Gn3
 BYTE   W06
 BYTE   Dn4
 BYTE   W06
 BYTE   En4
 BYTE   W06
 BYTE   Gn4
 BYTE   W06
 BYTE   Dn5
 BYTE   W06
 BYTE   Gn4
 BYTE   W06
 BYTE   Dn4
 BYTE   W06
 BYTE   Gn3
 BYTE   W06
 BYTE   PEND 
// 020   ----------------------------------------
Label_3_011E7CFA:
 BYTE   N06  Fn3  v127
 BYTE   W06
 BYTE   Dn4  v064
 BYTE   W06
 BYTE   An3  v127
 BYTE   W06
 BYTE   Fn3  v064
 BYTE   W06
 BYTE   Fn4  v127
 BYTE   W06
 BYTE   An3  v064
 BYTE   W06
 BYTE   An4  v127
 BYTE   W06
 BYTE   Fn4  v064
 BYTE   W06
 BYTE   An3  v127
 BYTE   W06
 BYTE   An4  v064
 BYTE   W06
 BYTE   Fn4  v127
 BYTE   W06
 BYTE   An3  v064
 BYTE   W06
 BYTE   An4  v127
 BYTE   W06
 BYTE   Fn4  v064
 BYTE   W06
 BYTE   Fn4  v127
 BYTE   W06
 BYTE   An4  v064
 BYTE   W06
 BYTE   PEND 
// 021   ----------------------------------------
Label_3_011E7D2C:
 BYTE   N06  Gn3  v127
 BYTE   W06
 BYTE   Fn4  v064
 BYTE   W06
 BYTE   Dn4  v127
 BYTE   W06
 BYTE   Gn3  v064
 BYTE   W06
 BYTE   Gn4  v127
 BYTE   W06
 BYTE   Dn4  v064
 BYTE   W06
 BYTE   Dn5  v127
 BYTE   W06
 BYTE   Gn4  v064
 BYTE   W06
 BYTE   Gn4  v127
 BYTE   W06
 BYTE   Dn5  v064
 BYTE   W06
 BYTE   Dn4  v127
 BYTE   W06
 BYTE   Gn4  v064
 BYTE   W06
 BYTE   Gn3  v127
 BYTE   W06
 BYTE   Dn4  v064
 BYTE   W06
 BYTE   Gn4  v127
 BYTE   W06
 BYTE   Gn3  v064
 BYTE   W06
 BYTE   PEND 
 BYTE   PATT
  POIN2 Label_3_011E7CB4
 BYTE   PATT
  POIN2 Label_3_011E7CD7
 BYTE   PATT
  POIN2 Label_3_011E7CFA
 BYTE   PATT
  POIN2 Label_3_011E7D2C
// 022   ----------------------------------------
 BYTE   W06
 BYTE   N06  Gn4  v064
 BYTE   W90
// 023   ----------------------------------------
 BYTE   W96
// 024   ----------------------------------------
 BYTE   GoTo
  POIN2 Label_3_011E7A79
 BYTE   FINE

//**************** Track 5 (Midi-Chn.4) ****************//

MilanorSortie_005:
// 000   ----------------------------------------
 BYTE   KEYSH   MilanorSortie_key+0
 BYTE   VOICE   27
 BYTE   VOL   47*MilanorSortie_mvl/mxv
 BYTE   MOD 0
 BYTE   CnM2
 BYTE   BENDR  2
 BYTE   LFOS 0
 BYTE   Gn0
 BYTE   FnM2
 BYTE   BEND   c_v+0
 BYTE   W12
 BYTE   W24
 BYTE   W96
// 001   ----------------------------------------
 BYTE   N12  En2  v100
 BYTE   N12  An2
 BYTE   W12
 BYTE   Dn2
 BYTE   N12  Gn2
 BYTE   W12
 BYTE   Bn1
 BYTE   N12  En2
 BYTE   W12
 BYTE   N24  As1
 BYTE   N24  Ds2
 BYTE   W24
 BYTE   N12  An1
 BYTE   N12  Dn2
 BYTE   W12
 BYTE   Gn1
 BYTE   N12  Cn2
 BYTE   W12
 BYTE   Dn1
 BYTE   N12  Gn1
 BYTE   W12
// 002   ----------------------------------------
Label_4_011E7DB1:
 BYTE   N12  Cn3  v100
 BYTE   W12
 BYTE   Fn2
 BYTE   W12
 BYTE   N12
 BYTE   W12
 BYTE   Bn2
 BYTE   W12
 BYTE   Fn2
 BYTE   W12
 BYTE   N12
 BYTE   W12
 BYTE   Cn3
 BYTE   W12
 BYTE   Fn2
 BYTE   W12
// 003   ----------------------------------------
 BYTE   Cn3
 BYTE   W12
 BYTE   Gn1
 BYTE   W12
 BYTE   N12
 BYTE   W12
 BYTE   Bn2
 BYTE   W12
 BYTE   Gn1
 BYTE   W12
 BYTE   N12
 BYTE   W12
 BYTE   Cn3
 BYTE   W12
 BYTE   Gn1
 BYTE   W12
// 004   ----------------------------------------
 BYTE   Cn3
 BYTE   W12
 BYTE   En1
 BYTE   W12
 BYTE   N12
 BYTE   W12
 BYTE   Bn2
 BYTE   W12
 BYTE   En1
 BYTE   W12
 BYTE   N12
 BYTE   W12
 BYTE   Cn3
 BYTE   W12
 BYTE   En1
 BYTE   W12
// 005   ----------------------------------------
 BYTE   Cn3
 BYTE   W12
 BYTE   An1
 BYTE   W12
 BYTE   N12
 BYTE   W12
 BYTE   Bn2
 BYTE   W12
 BYTE   An1
 BYTE   W12
 BYTE   N12
 BYTE   W12
 BYTE   Cn3
 BYTE   W12
 BYTE   An1
 BYTE   W12
// 006   ----------------------------------------
 BYTE   As2
 BYTE   W12
 BYTE   As1
 BYTE   W12
 BYTE   N12
 BYTE   W12
 BYTE   As2
 BYTE   W12
 BYTE   As1
 BYTE   W12
 BYTE   N12
 BYTE   W12
 BYTE   As2
 BYTE   W12
 BYTE   As1
 BYTE   W12
// 007   ----------------------------------------
 BYTE   Bn2
 BYTE   W12
 BYTE   Bn1
 BYTE   W12
 BYTE   N12
 BYTE   W12
 BYTE   Bn2
 BYTE   W12
 BYTE   Bn1
 BYTE   W12
 BYTE   N12
 BYTE   W12
 BYTE   Bn2
 BYTE   W12
 BYTE   Bn1
 BYTE   W12
// 008   ----------------------------------------
Label_4_011E7E13:
 BYTE   N12  Bn2  v100
 BYTE   W12
 BYTE   En1
 BYTE   W12
 BYTE   N12
 BYTE   W12
 BYTE   Bn2
 BYTE   W12
 BYTE   En1
 BYTE   W12
 BYTE   N12
 BYTE   W12
 BYTE   Bn2
 BYTE   W12
 BYTE   En1
 BYTE   W12
 BYTE   PEND 
 BYTE   PATT
  POIN2 Label_4_011E7E13
// 009   ----------------------------------------
 BYTE   N12  An1  v100
 BYTE   W12
 BYTE   Gn1
 BYTE   W12
 BYTE   An1
 BYTE   W12
 BYTE   An2
 BYTE   W12
 BYTE   An1
 BYTE   W12
 BYTE   Gn1
 BYTE   W12
 BYTE   An1
 BYTE   W12
 BYTE   N12
 BYTE   N12  En2
 BYTE   W12
// 010   ----------------------------------------
 BYTE   Gn1
 BYTE   W12
 BYTE   Fs1
 BYTE   W12
 BYTE   Gn1
 BYTE   W12
 BYTE   Gn2
 BYTE   W12
 BYTE   Gn1
 BYTE   W12
 BYTE   Fs1
 BYTE   W12
 BYTE   Gn1
 BYTE   W12
 BYTE   N12
 BYTE   N12  Dn2
 BYTE   W12
// 011   ----------------------------------------
 BYTE   N36  Cn2
 BYTE   W36
 BYTE   Fn2
 BYTE   W36
 BYTE   N12  Cn2
 BYTE   W12
 BYTE   N24  Bn1
 BYTE   W12
// 012   ----------------------------------------
 BYTE   W12
 BYTE   N12  Dn1
 BYTE   W12
 BYTE   En1
 BYTE   W12
 BYTE   En2
 BYTE   W12
 BYTE   En1
 BYTE   W12
 BYTE   Dn1
 BYTE   W12
 BYTE   En1
 BYTE   W12
 BYTE   En2
 BYTE   W12
// 013   ----------------------------------------
Label_4_011E7E6C:
 BYTE   N12  Dn2  v100
 BYTE   W12
 BYTE   Dn1
 BYTE   W12
 BYTE   N12
 BYTE   W12
 BYTE   Dn2
 BYTE   W12
 BYTE   Dn1
 BYTE   W12
 BYTE   N12
 BYTE   W12
 BYTE   Dn2
 BYTE   W12
 BYTE   Dn1
 BYTE   W12
 BYTE   PEND 
// 014   ----------------------------------------
 BYTE   En2
 BYTE   W12
 BYTE   En1
 BYTE   W12
 BYTE   N12
 BYTE   W12
 BYTE   En2
 BYTE   W12
 BYTE   En1
 BYTE   W12
 BYTE   N12
 BYTE   W12
 BYTE   En2
 BYTE   W12
 BYTE   En1
 BYTE   W12
// 015   ----------------------------------------
 BYTE   N36  Cn2
 BYTE   W36
 BYTE   Fn2
 BYTE   W36
 BYTE   N24  Cn2
 BYTE   W24
// 016   ----------------------------------------
 BYTE   N12  Bn1
 BYTE   W12
 BYTE   En2
 BYTE   N12  En3
 BYTE   W12
 BYTE   Dn2
 BYTE   N12  Dn3
 BYTE   W12
 BYTE   Bn1
 BYTE   N12  Bn2
 BYTE   W12
 BYTE   As1
 BYTE   N12  As2
 BYTE   W12
 BYTE   An1
 BYTE   N12  An2
 BYTE   W12
 BYTE   Gn1
 BYTE   N12  Gn2
 BYTE   W12
 BYTE   Dn1
 BYTE   N12  Dn2
 BYTE   W12
// 017   ----------------------------------------
Label_4_011E7EB6:
 BYTE   N12  En2  v100
 BYTE   N12  An2
 BYTE   W12
 BYTE   En2
 BYTE   N12  An2
 BYTE   W12
 BYTE   Dn2
 BYTE   N12  Gn2
 BYTE   W12
 BYTE   En2
 BYTE   N12  An2
 BYTE   W12
 BYTE   N12
 BYTE   N12  Dn3
 BYTE   W12
 BYTE   Dn2
 BYTE   N12  Gn2
 BYTE   W12
 BYTE   En2
 BYTE   N12  An2
 BYTE   W12
 BYTE   N24  Cn2
 BYTE   N24  Fn2
 BYTE   W12
 BYTE   PEND 
// 018   ----------------------------------------
Label_4_011E7EDA:
 BYTE   W12
 BYTE   N12  Gn2  v100
 BYTE   N12  Cn3
 BYTE   W12
 BYTE   Dn2
 BYTE   N12  Gn2
 BYTE   W12
 BYTE   N24  An1
 BYTE   N24  Dn2
 BYTE   W24
 BYTE   N12  Gn1
 BYTE   N12  Cn2
 BYTE   W12
 BYTE   N12
 BYTE   N12  Gn2
 BYTE   W12
 BYTE   Gn1
 BYTE   N12  Cn2
 BYTE   W12
 BYTE   PEND 
// 019   ----------------------------------------
Label_4_011E7EF8:
 BYTE   N12  Fn2  v100
 BYTE   W12
 BYTE   Fn1
 BYTE   W12
 BYTE   N12
 BYTE   W12
 BYTE   Fn2
 BYTE   W12
 BYTE   Fn1
 BYTE   W12
 BYTE   N12
 BYTE   W12
 BYTE   Fn2
 BYTE   W12
 BYTE   Fn1
 BYTE   W12
 BYTE   PEND 
// 020   ----------------------------------------
 BYTE   Gn2
 BYTE   W12
 BYTE   Gn1
 BYTE   W12
 BYTE   N12
 BYTE   W12
 BYTE   Gn2
 BYTE   W12
 BYTE   Gn1
 BYTE   W12
 BYTE   N12
 BYTE   W12
 BYTE   Gn2
 BYTE   W12
 BYTE   Gn1
 BYTE   W12
 BYTE   PATT
  POIN2 Label_4_011E7EB6
 BYTE   PATT
  POIN2 Label_4_011E7EDA
 BYTE   PATT
  POIN2 Label_4_011E7EF8
 BYTE   PATT
  POIN2 Label_4_011E7E6C
// 021   ----------------------------------------
 BYTE   N12  En1  v100
 BYTE   N12  Bn1
 BYTE   W12
 BYTE   En1
 BYTE   N12  Bn1
 BYTE   W12
 BYTE   Dn1
 BYTE   N12  An1
 BYTE   W12
 BYTE   N24  En1
 BYTE   N24  Bn1
 BYTE   W24
 BYTE   N12  En1
 BYTE   N12  Bn1
 BYTE   W12
 BYTE   Dn1
 BYTE   N12  An1
 BYTE   W12
 BYTE   En1
 BYTE   N12  Bn1
 BYTE   W12
// 022   ----------------------------------------
 BYTE   W12
 BYTE   Fn1
 BYTE   N12  Cn2
 BYTE   W24
 BYTE   Fs1
 BYTE   N12  Cs2
 BYTE   W24
 BYTE   N36  Gn1
 BYTE   N36  Dn2
 BYTE   W36
// 023   ----------------------------------------
 BYTE   GoTo
  POIN2 Label_4_011E7DB1
 BYTE   FINE

//**************** Track 6 (Midi-Chn.5) ****************//

MilanorSortie_006:
// 000   ----------------------------------------
 BYTE   KEYSH   MilanorSortie_key+0
 BYTE   VOICE   32
 BYTE   VOL   66*MilanorSortie_mvl/mxv
 BYTE   MOD 0
 BYTE   CnM2
 BYTE   BENDR  2
 BYTE   LFOS 0
 BYTE   Gn0
 BYTE   AnM2
 BYTE   BEND   c_v+0
 BYTE   W12
 BYTE   W24
 BYTE   N12  En0  v127
 BYTE   W12
 BYTE   En1
 BYTE   W12
 BYTE   En0
 BYTE   W12
 BYTE   N12
 BYTE   W12
 BYTE   En1
 BYTE   W12
// 001   ----------------------------------------
 BYTE   En0
 BYTE   W12
 BYTE   N12
 BYTE   W12
 BYTE   En1
 BYTE   W12
 BYTE   An1
 BYTE   W12
 BYTE   Gn1
 BYTE   W12
 BYTE   En1
 BYTE   W12
 BYTE   N24  Ds1
 BYTE   W24
// 002   ----------------------------------------
 BYTE   N12  Dn1
 BYTE   W12
 BYTE   Cn1
 BYTE   W12
 BYTE   Gn0
 BYTE   W12
Label_5_011E7F97:
 BYTE   N12  Fn0  v127
 BYTE   W12
 BYTE   Fn1
 BYTE   W12
 BYTE   Fn0
 BYTE   W12
 BYTE   Fn1
 BYTE   W12
 BYTE   Fn0
 BYTE   W12
// 003   ----------------------------------------
 BYTE   Fn1
 BYTE   W12
 BYTE   Fn0
 BYTE   W12
 BYTE   Fn1
 BYTE   W12
 BYTE   PEND 
Label_5_011E7FAA:
 BYTE   N12  Gn0  v127
 BYTE   W12
 BYTE   Gn1
 BYTE   W12
 BYTE   Gn0
 BYTE   W12
 BYTE   Gn1
 BYTE   W12
 BYTE   Gn0
 BYTE   W12
// 004   ----------------------------------------
 BYTE   Gn1
 BYTE   W12
 BYTE   Gn0
 BYTE   W12
 BYTE   Gn1
 BYTE   W12
 BYTE   PEND 
Label_5_011E7FBD:
 BYTE   N12  En0  v127
 BYTE   W12
 BYTE   En1
 BYTE   W12
 BYTE   En0
 BYTE   W12
 BYTE   En1
 BYTE   W12
 BYTE   En0
 BYTE   W12
// 005   ----------------------------------------
 BYTE   En1
 BYTE   W12
 BYTE   En0
 BYTE   W12
 BYTE   En1
 BYTE   W12
 BYTE   PEND 
 BYTE   An0
 BYTE   W12
 BYTE   An1
 BYTE   W12
 BYTE   An0
 BYTE   W12
 BYTE   An1
 BYTE   W12
 BYTE   An0
 BYTE   W12
// 006   ----------------------------------------
 BYTE   An1
 BYTE   W12
 BYTE   An0
 BYTE   W12
 BYTE   An1
 BYTE   W12
 BYTE   As0
 BYTE   W12
 BYTE   As1
 BYTE   W12
 BYTE   As0
 BYTE   W12
 BYTE   As1
 BYTE   W12
 BYTE   As0
 BYTE   W12
// 007   ----------------------------------------
 BYTE   As1
 BYTE   W12
 BYTE   As0
 BYTE   W12
 BYTE   As1
 BYTE   W12
 BYTE   Bn0
 BYTE   W12
 BYTE   Bn1
 BYTE   W12
 BYTE   Bn0
 BYTE   W12
 BYTE   Bn1
 BYTE   W12
 BYTE   Bn0
 BYTE   W12
// 008   ----------------------------------------
 BYTE   Bn1
 BYTE   W12
 BYTE   Bn0
 BYTE   W12
 BYTE   Bn1
 BYTE   W12
 BYTE   PATT
  POIN2 Label_5_011E7FBD
 BYTE   PATT
  POIN2 Label_5_011E7FBD
// 009   ----------------------------------------
 BYTE   N12  An0  v127
 BYTE   W12
 BYTE   Gn0
 BYTE   W12
 BYTE   An0
 BYTE   W12
 BYTE   An1
 BYTE   W12
 BYTE   An0
 BYTE   W12
 BYTE   Gn0
 BYTE   W12
 BYTE   An0
 BYTE   W12
 BYTE   En1
 BYTE   W12
// 010   ----------------------------------------
 BYTE   Gn0
 BYTE   W12
 BYTE   Fs0
 BYTE   W12
 BYTE   Gn0
 BYTE   W12
 BYTE   Gn1
 BYTE   W12
 BYTE   Gn0
 BYTE   W12
 BYTE   Fs0
 BYTE   W12
 BYTE   Gn0
 BYTE   W12
 BYTE   Dn1
 BYTE   W12
// 011   ----------------------------------------
 BYTE   N36  Fn0
 BYTE   W36
 BYTE   Fn1
 BYTE   W36
 BYTE   N12  Fn0
 BYTE   W12
 BYTE   N24  En0
 BYTE   W12
// 012   ----------------------------------------
 BYTE   W12
 BYTE   N12  Dn0
 BYTE   W12
 BYTE   En0
 BYTE   W12
 BYTE   En1
 BYTE   W12
 BYTE   En0
 BYTE   W12
 BYTE   Dn0
 BYTE   W12
 BYTE   En0
 BYTE   W12
 BYTE   Gn0
 BYTE   W12
// 013   ----------------------------------------
 BYTE   Dn0
 BYTE   W12
 BYTE   Dn1
 BYTE   W12
 BYTE   Dn0
 BYTE   W12
 BYTE   Dn1
 BYTE   W12
 BYTE   Dn0
 BYTE   W12
 BYTE   Dn1
 BYTE   W12
 BYTE   Dn0
 BYTE   W12
 BYTE   Dn1
 BYTE   W12
 BYTE   PATT
  POIN2 Label_5_011E7FBD
// 014   ----------------------------------------
 BYTE   N36  Fn0  v127
 BYTE   W36
 BYTE   Fn1
 BYTE   W36
 BYTE   N24  Fn0
 BYTE   W24
// 015   ----------------------------------------
 BYTE   N12  En0
 BYTE   W12
 BYTE   En1
 BYTE   W12
 BYTE   Dn1
 BYTE   W12
 BYTE   Bn0
 BYTE   W12
 BYTE   As0
 BYTE   W12
 BYTE   An0
 BYTE   W12
 BYTE   Gn0
 BYTE   W12
 BYTE   Dn0
 BYTE   W12
// 016   ----------------------------------------
Label_5_011E8076:
 BYTE   N12  An0  v127
 BYTE   W12
 BYTE   N12
 BYTE   W12
 BYTE   Gn0
 BYTE   W12
 BYTE   An0
 BYTE   W12
 BYTE   Dn1
 BYTE   W12
 BYTE   Gn0
 BYTE   W12
 BYTE   An0
 BYTE   W12
 BYTE   N24  Fn0
 BYTE   W12
 BYTE   PEND 
// 017   ----------------------------------------
Label_5_011E808A:
 BYTE   W12
 BYTE   N12  Cn1  v127
 BYTE   W12
 BYTE   Gn0
 BYTE   W12
 BYTE   N24  Dn1
 BYTE   W24
 BYTE   N12  Cn1
 BYTE   W12
 BYTE   Dn1
 BYTE   W12
 BYTE   Cn1
 BYTE   W12
 BYTE   PEND 
 BYTE   PATT
  POIN2 Label_5_011E7F97
 BYTE   PATT
  POIN2 Label_5_011E7FAA
 BYTE   PATT
  POIN2 Label_5_011E8076
 BYTE   PATT
  POIN2 Label_5_011E808A
 BYTE   PATT
  POIN2 Label_5_011E7F97
// 018   ----------------------------------------
 BYTE   N12  Dn1  v127
 BYTE   W12
 BYTE   Dn2
 BYTE   W12
 BYTE   Dn1
 BYTE   W12
 BYTE   Dn2
 BYTE   W12
 BYTE   Dn1
 BYTE   W12
 BYTE   Dn2
 BYTE   W12
 BYTE   Dn1
 BYTE   W12
 BYTE   Dn2
 BYTE   W12
// 019   ----------------------------------------
 BYTE   En0
 BYTE   W12
 BYTE   N12
 BYTE   W12
 BYTE   Dn0
 BYTE   W12
 BYTE   N24  En0
 BYTE   W24
 BYTE   N12
 BYTE   W12
 BYTE   Dn0
 BYTE   W12
 BYTE   En0
 BYTE   W12
// 020   ----------------------------------------
 BYTE   W12
 BYTE   Fn0
 BYTE   W24
 BYTE   Fs0
 BYTE   W24
 BYTE   N36  Gn0
 BYTE   W36
// 021   ----------------------------------------
 BYTE   GoTo
  POIN2 Label_5_011E7F97
 BYTE   FINE

//**************** Track 7 (Midi-Chn.6) ****************//

MilanorSortie_007:
// 000   ----------------------------------------
 BYTE   KEYSH   MilanorSortie_key+0
 BYTE   VOICE   0
 BYTE   VOL   56*MilanorSortie_mvl/mxv
 BYTE   An0
 BYTE   W12
 BYTE   W24
 BYTE   N12  As0  v092
 BYTE   N06  Bn0  v076
 BYTE   W18
 BYTE   As0  v092
 BYTE   N06  Bn0  v076
 BYTE   W06
 BYTE   N12  Cn1  v108
 BYTE   W12
 BYTE   As0  v092
 BYTE   N06  Bn0  v076
 BYTE   W12
 BYTE   N12  As0  v092
 BYTE   N06  Bn0  v076
 BYTE   W12
// 001   ----------------------------------------
 BYTE   As0  v092
 BYTE   W06
 BYTE   N06
 BYTE   N06  Bn0  v076
 BYTE   W06
 BYTE   Cn1  v108
 BYTE   W06
 BYTE   As0  v092
 BYTE   W06
 BYTE   Cs1  v120
 BYTE   N06  Bn0  v076
 BYTE   W06
 BYTE   Dn1  v120
 BYTE   W06
 BYTE   N12  As0  v092
 BYTE   N06  Ds1  v076
 BYTE   W12
 BYTE   N12  Cn1  v108
 BYTE   W12
 BYTE   N12
 BYTE   W12
 BYTE   As0  v092
 BYTE   W12
 BYTE   Cn1  v108
 BYTE   W12
// 002   ----------------------------------------
 BYTE   N12
 BYTE   W12
 BYTE   N06  As0  v092
 BYTE   W06
 BYTE   N06
 BYTE   W06
 BYTE   N12  En1  v120
 BYTE   W12
Label_6_011E8142:
 BYTE   N12  Cn1  v108
 BYTE   N06  Ds1  v076
 BYTE   W24
 BYTE   N12  As0  v092
 BYTE   N06  Fn1  v060
 BYTE   W12
 BYTE   Fn1  v044
 BYTE   W12
 BYTE   N12  Cn1  v108
 BYTE   N06  Fn1  v060
 BYTE   W12
// 003   ----------------------------------------
 BYTE   Fn1  v044
 BYTE   W12
 BYTE   N12  As0  v092
 BYTE   N06  Fn1  v060
 BYTE   W12
 BYTE   Fn1  v044
 BYTE   W12
 BYTE   PEND 
Label_6_011E8168:
 BYTE   N12  Cn1  v108
 BYTE   N06  Fn1  v060
 BYTE   W12
 BYTE   Fn1  v044
 BYTE   W12
 BYTE   N12  As0  v092
 BYTE   N06  Fn1  v060
 BYTE   W12
 BYTE   Fn1  v044
 BYTE   W12
 BYTE   N12  Cn1  v108
 BYTE   N06  Fn1  v060
 BYTE   W12
// 004   ----------------------------------------
 BYTE   Fn1  v044
 BYTE   W06
 BYTE   Cn1  v108
 BYTE   W06
 BYTE   N12  As0  v092
 BYTE   N06  Fn1  v060
 BYTE   W12
 BYTE   N12  Cn1  v108
 BYTE   N06  Fn1  v044
 BYTE   W12
 BYTE   PEND 
Label_6_011E8198:
 BYTE   N12  Cn1  v108
 BYTE   N06  Fn1  v060
 BYTE   W12
 BYTE   Fn1  v044
 BYTE   W12
 BYTE   N12  As0  v092
 BYTE   N06  Fn1  v060
 BYTE   W12
 BYTE   Fn1  v044
 BYTE   W12
 BYTE   N12  Cn1  v108
 BYTE   N06  Fn1  v060
 BYTE   W12
// 005   ----------------------------------------
 BYTE   Fn1  v044
 BYTE   W12
 BYTE   N12  As0  v092
 BYTE   N06  Fn1  v060
 BYTE   W12
 BYTE   Fn1  v044
 BYTE   W12
 BYTE   PEND 
 BYTE   N12  Cn1  v108
 BYTE   N06  Fn1  v060
 BYTE   W12
 BYTE   Fn1  v044
 BYTE   W12
 BYTE   N12  As0  v092
 BYTE   N06  Fn1  v060
 BYTE   W12
 BYTE   Fn1  v044
 BYTE   W12
 BYTE   N12  Cn1  v108
 BYTE   N06  Fn1  v060
 BYTE   W12
// 006   ----------------------------------------
 BYTE   Fn1  v044
 BYTE   W06
 BYTE   Cn1  v108
 BYTE   W06
 BYTE   N12  As0  v092
 BYTE   N06  Ds1  v076
 BYTE   W24
 BYTE   PATT
  POIN2 Label_6_011E8142
 BYTE   PATT
  POIN2 Label_6_011E8168
 BYTE   PATT
  POIN2 Label_6_011E8198
// 007   ----------------------------------------
 BYTE   N12  Cn1  v108
 BYTE   N06  Ds1  v076
 BYTE   W18
 BYTE   Cn1  v108
 BYTE   W06
 BYTE   N12  As0  v092
 BYTE   N06  Fn1  v060
 BYTE   W12
 BYTE   As0  v092
 BYTE   N06  Fn1  v044
 BYTE   W06
 BYTE   As0  v092
 BYTE   W06
 BYTE   N12  Cn1  v108
 BYTE   N06  Fn1  v060
 BYTE   W12
 BYTE   Fn1  v044
 BYTE   W06
 BYTE   Cn1  v108
 BYTE   W06
 BYTE   As0  v092
 BYTE   N06  Ds1  v076
 BYTE   W06
 BYTE   As0  v092
 BYTE   W06
 BYTE   N12  En1  v120
 BYTE   W12
// 008   ----------------------------------------
 BYTE   Cn1  v108
 BYTE   N06  Ds1  v076
 BYTE   W12
 BYTE   N12  Cn1  v108
 BYTE   W12
 BYTE   As0  v092
 BYTE   N06  Fn1  v060
 BYTE   W12
 BYTE   N12  Cn1  v108
 BYTE   N06  Fs1  v052
 BYTE   W12
 BYTE   N12  Cn1  v108
 BYTE   N06  Fn1  v060
 BYTE   W12
 BYTE   N12  Cn1  v108
 BYTE   N06  Fs1  v052
 BYTE   W12
 BYTE   N12  As0  v092
 BYTE   N06  Fn1  v060
 BYTE   W12
 BYTE   N12  Cn1  v108
 BYTE   N06  Fs1  v052
 BYTE   W12
// 009   ----------------------------------------
Label_6_011E825F:
 BYTE   N12  Cn1  v108
 BYTE   N06  Fn1  v060
 BYTE   W12
 BYTE   N12  Cn1  v108
 BYTE   N06  Fs1  v052
 BYTE   W12
 BYTE   N12  As0  v092
 BYTE   N06  Fn1  v060
 BYTE   W12
 BYTE   N12  Cn1  v108
 BYTE   N06  Fs1  v052
 BYTE   W12
 BYTE   N12  Cn1  v108
 BYTE   N06  Fn1  v060
 BYTE   W12
 BYTE   Fs1  v052
 BYTE   W06
 BYTE   Cn1  v108
 BYTE   W06
 BYTE   N12  As0  v092
 BYTE   N06  Fn1  v060
 BYTE   W12
 BYTE   N12  Cn1  v108
 BYTE   N06  Fs1  v052
 BYTE   W12
 BYTE   PEND 
// 010   ----------------------------------------
 BYTE   N12  As0  v092
 BYTE   N06  Ds1  v076
 BYTE   W24
 BYTE   N12  Cn1  v108
 BYTE   N06  Fn1  v060
 BYTE   W12
 BYTE   N12  As0  v092
 BYTE   N06  Ds1  v076
 BYTE   W24
 BYTE   N12  Cn1  v108
 BYTE   W12
 BYTE   N06  As0  v092
 BYTE   N06  Ds1  v076
 BYTE   W06
 BYTE   As0  v092
 BYTE   W06
 BYTE   N12  Cn1  v108
 BYTE   N06  Ds1  v076
 BYTE   W12
// 011   ----------------------------------------
 BYTE   W12
 BYTE   N12  Cn1  v108
 BYTE   W12
 BYTE   As0  v092
 BYTE   N06  Fn1  v060
 BYTE   W12
 BYTE   N12  Cn1  v108
 BYTE   N06  Fs1  v052
 BYTE   W12
 BYTE   N12  Cn1  v108
 BYTE   N06  Fn1  v060
 BYTE   W12
 BYTE   N12  Cn1  v108
 BYTE   N06  Fs1  v052
 BYTE   W12
 BYTE   N12  As0  v092
 BYTE   N06  Fn1  v060
 BYTE   W12
 BYTE   N12  Cn1  v108
 BYTE   N06  Fs1  v052
 BYTE   W12
// 012   ----------------------------------------
 BYTE   N12  Cn1  v108
 BYTE   N06  Fn1  v060
 BYTE   W12
 BYTE   N12  Cn1  v108
 BYTE   N06  Fs1  v052
 BYTE   W12
 BYTE   N12  As0  v092
 BYTE   N06  Fn1  v060
 BYTE   W12
 BYTE   N12  Cn1  v108
 BYTE   N06  Fs1  v052
 BYTE   W12
 BYTE   N12  Cn1  v108
 BYTE   N06  Fn1  v060
 BYTE   W12
 BYTE   N12  Cn1  v108
 BYTE   N06  Fs1  v052
 BYTE   W12
 BYTE   N12  As0  v092
 BYTE   N06  Fn1  v060
 BYTE   W12
 BYTE   N12  Cn1  v108
 BYTE   N06  Fs1  v052
 BYTE   W12
 BYTE   PATT
  POIN2 Label_6_011E825F
// 013   ----------------------------------------
 BYTE   N12  As0  v092
 BYTE   N06  Ds1  v076
 BYTE   W24
 BYTE   N12  Cn1  v108
 BYTE   N06  Fn1  v060
 BYTE   W12
 BYTE   N12  As0  v092
 BYTE   N06  Ds1  v076
 BYTE   W24
 BYTE   N12  Cn1  v108
 BYTE   W12
 BYTE   As0  v092
 BYTE   N06  Ds1  v076
 BYTE   W12
 BYTE   N12  As0  v092
 BYTE   W12
// 014   ----------------------------------------
 BYTE   Cn1  v108
 BYTE   N06  Ds1  v076
 BYTE   W12
 BYTE   N12  As0  v092
 BYTE   W12
 BYTE   N12
 BYTE   W12
 BYTE   N06
 BYTE   W06
 BYTE   N06
 BYTE   W06
 BYTE   N12  Cn1  v108
 BYTE   N12  As0  v092
 BYTE   W12
 BYTE   N12
 BYTE   W12
 BYTE   Cn1  v108
 BYTE   N06  As0  v092
 BYTE   W06
 BYTE   N06
 BYTE   W06
 BYTE   N06
 BYTE   W06
 BYTE   N06
 BYTE   W06
// 015   ----------------------------------------
Label_6_011E8374:
 BYTE   N12  Cn1  v108
 BYTE   N06  Ds1  v076
 BYTE   W12
 BYTE   N12  Cn1  v108
 BYTE   W12
 BYTE   As0  v092
 BYTE   N06  Ds1  v076
 BYTE   W24
 BYTE   N12  En1  v120
 BYTE   N06  Ds1  v076
 BYTE   W12
 BYTE   N12  En1  v120
 BYTE   W12
 BYTE   As0  v092
 BYTE   N06  Fn1  v060
 BYTE   W12
 BYTE   N12  Cn1  v108
 BYTE   N06  Ds1  v076
 BYTE   W12
 BYTE   PEND 
// 016   ----------------------------------------
Label_6_011E839E:
 BYTE   W12
 BYTE   N12  Cn1  v108
 BYTE   W12
 BYTE   As0  v092
 BYTE   N06  Fn1  v060
 BYTE   W12
 BYTE   N12  Cn1  v108
 BYTE   N06  Ds1  v076
 BYTE   W24
 BYTE   N12  Cn1  v108
 BYTE   W12
 BYTE   As0  v092
 BYTE   N06  Fn1  v060
 BYTE   W12
 BYTE   N12  As0  v092
 BYTE   W12
 BYTE   PEND 
 BYTE   PATT
  POIN2 Label_6_011E8142
 BYTE   PATT
  POIN2 Label_6_011E8168
 BYTE   PATT
  POIN2 Label_6_011E8374
 BYTE   PATT
  POIN2 Label_6_011E839E
 BYTE   PATT
  POIN2 Label_6_011E8142
 BYTE   PATT
  POIN2 Label_6_011E8168
// 017   ----------------------------------------
 BYTE   N12  Cn1  v108
 BYTE   N06  Ds1  v076
 BYTE   W12
 BYTE   N12  Cn1  v108
 BYTE   N12  En1  v120
 BYTE   W12
 BYTE   As0  v092
 BYTE   W12
 BYTE   Cn1  v108
 BYTE   N06  Ds1  v076
 BYTE   W24
 BYTE   N12  Cn1  v108
 BYTE   N06  Ds1  v076
 BYTE   W12
 BYTE   N12  As0  v092
 BYTE   W12
 BYTE   Cn1  v108
 BYTE   N06  Ds1  v076
 BYTE   W12
// 018   ----------------------------------------
 BYTE   N12  Cn1  v108
 BYTE   W12
 BYTE   N06  Dn1  v120
 BYTE   W06
 BYTE   N06
 BYTE   W06
 BYTE   N12  Cn1  v108
 BYTE   N12  Dn1  v120
 BYTE   W12
 BYTE   N06  Cs1
 BYTE   W06
 BYTE   N06
 BYTE   W06
 BYTE   N12  Cn1  v108
 BYTE   N12  Cs1  v120
 BYTE   W12
 BYTE   N06  En1
 BYTE   W06
 BYTE   N06
 BYTE   W06
 BYTE   N12  Cn1  v108
 BYTE   N12  En1  v120
 BYTE   W12
 BYTE   As0  v092
 BYTE   W12
// 019   ----------------------------------------
 BYTE   GoTo
  POIN2 Label_6_011E8142
 BYTE   FINE

//******************************************************//
	ALIGN 4

MilanorSortie:
	BYTE	7	// NumTrks
	BYTE	0	// NumBlks
	BYTE	MilanorSortie_pri	// Priority
	BYTE	MilanorSortie_rev	// Reverb.
    
	POIN2	MilanorSortie_grp
    
	POIN2	MilanorSortie_001
	POIN2	MilanorSortie_002
	POIN2	MilanorSortie_003
	POIN2	MilanorSortie_004
	POIN2	MilanorSortie_005
	POIN2	MilanorSortie_006
	POIN2	MilanorSortie_007

	
