//Event file generated from Sappy .s format.
	#include "MPlayDef.event"

	#define	MinibossPM_grp  voicegroup000
	#define	MinibossPM_pri  0
	#define	MinibossPM_rev  0
	#define	MinibossPM_mvl  70
	#define	MinibossPM_key  0
	#define	MinibossPM_tbs  1
	#define	MinibossPM_exg  0
	#define	MinibossPM_cmp  1

	// .rodata
	//	MinibossPM
	ALIGN 4

//**************** Track 1 (Midi-Chn.1) ****************//

MinibossPM_1:
	BYTE	KEYSH   MinibossPM_key+0
// 000   ----------------------------------------
	BYTE	TEMPO   142*MinibossPM_tbs/2
	BYTE		VOICE   50
	BYTE		VOL     96*MinibossPM_mvl/mxv
	BYTE	W48
MinibossPM_1_B1:
	BYTE	W48
// 001   ----------------------------------------
	BYTE	W36
	BYTE		PAN     c_v-6
	BYTE		N04     Gn3   v096
	BYTE	W06
	BYTE		        An3 
	BYTE	W06
	BYTE		        As3 
	BYTE	W06
	BYTE		        Cn4   v108
	BYTE	W06
	BYTE		        As3   v096
	BYTE	W06
	BYTE		        Cn4   v112
	BYTE	W06
	BYTE		        As3   v096
	BYTE	W06
	BYTE		        Cn4   v108
	BYTE	W06
	BYTE		        As3   v100
	BYTE	W06
	BYTE		        Cn4   v096
	BYTE	W06
// 002   ----------------------------------------
	BYTE		        Dn4   v108
	BYTE	W12
	BYTE		        Cn4 
	BYTE	W12
	BYTE		        As3   v104
	BYTE	W12
	BYTE		        An3   v116
	BYTE	W36
	BYTE		PAN     c_v+21
	BYTE		N10     Dn4   v096
	BYTE		N10     Fn4   v088
	BYTE	W18
	BYTE		N05     Dn4   v096
	BYTE		N05     Fn4   v088
	BYTE	W06
// 003   ----------------------------------------
	BYTE		        Cn4   v100
	BYTE		N05     En4 
	BYTE	W24
	BYTE		N10     An3   v096
	BYTE		N10     Cn4   v088
	BYTE	W18
	BYTE		N05     An3   v096
	BYTE		N05     Cn4   v080
	BYTE	W06
	BYTE		        Gn3   v100
	BYTE		N05     As3 
	BYTE	W24
	BYTE		N13     Fn3   v076
	BYTE		N13     An3   v080
	BYTE	W18
	BYTE		N05     Fn3   v068
	BYTE		N05     An3   v076
	BYTE	W06
// 004   ----------------------------------------
	BYTE		        En3 
	BYTE		N06     Gn3   v088
	BYTE	W48
	BYTE		PAN     c_v-6
	BYTE		N04     As3   v096
	BYTE	W06
	BYTE		        Cn4   v100
	BYTE	W06
	BYTE		        As3   v096
	BYTE	W06
	BYTE		        Cn4   v104
	BYTE	W06
	BYTE		        As3   v096
	BYTE	W06
	BYTE		        Cn4   v108
	BYTE	W06
	BYTE		        As3   v096
	BYTE	W06
	BYTE		        Cn4   v108
	BYTE	W06
// 005   ----------------------------------------
	BYTE		        As3 
	BYTE	W12
	BYTE		        An4   v112
	BYTE	W12
	BYTE		        Gn4 
	BYTE	W12
	BYTE		        Fn4   v116
	BYTE	W12
	BYTE		N06     En4 
	BYTE	W48
// 006   ----------------------------------------
	BYTE	W48
	BYTE	W01
	BYTE		N04     Gn3   v108
	BYTE		N04     As3   v120
	BYTE	W24
	BYTE		N03     Fn3   v104
	BYTE		N04     An3 
	BYTE	W23
// 007   ----------------------------------------
	BYTE	W01
	BYTE		N03     En3   v096
	BYTE		N03     Gn3   v108
	BYTE	W12
	BYTE		        En3   v080
	BYTE		N03     Gn3   v092
	BYTE	W06
	BYTE		        Fn3 
	BYTE		N03     An3   v108
	BYTE	W18
	BYTE		        Gn3   v088
	BYTE		N03     As3   v096
	BYTE	W12
	BYTE		        An3   v108
	BYTE		N05     Cn4   v120
	BYTE	W24
	BYTE		N03     As3   v088
	BYTE		N04     Dn4   v108
	BYTE	W23
// 008   ----------------------------------------
	BYTE	W01
	BYTE		N03     Cn4   v096
	BYTE		N04     En4   v108
	BYTE	W12
	BYTE		N03     Cn4   v076
	BYTE		N03     En4   v096
	BYTE	W06
	BYTE		        Bn3   v076
	BYTE		N03     Dn4   v092
	BYTE	W18
	BYTE		        An3   v104
	BYTE		N03     Cn4 
	BYTE	W12
	BYTE		N04     Gn3   v088
	BYTE		N03     As3   v104
	BYTE	W24
	BYTE		        Fn3 
	BYTE		N04     An3 
	BYTE	W23
// 009   ----------------------------------------
	BYTE	W01
	BYTE		N03     En3   v100
	BYTE		N03     Gn3   v104
	BYTE	W12
	BYTE		        En3   v048
	BYTE		N03     Gn3   v092
	BYTE	W06
	BYTE		        Fn3   v096
	BYTE		N03     An3   v072
	BYTE	W18
	BYTE		        Fn3   v100
	BYTE		N03     An3   v096
	BYTE	W12
	BYTE		N13     Cn3   v060
	BYTE		N14     Fn3   v124
	BYTE	W18
	BYTE		N04     Cn3   v088
	BYTE		N04     En3   v104
	BYTE	W28
	BYTE	W01
// 010   ----------------------------------------
	BYTE	W07
	BYTE		PAN     c_v-20
	BYTE		N04     Gn3   v088
	BYTE		N04     Cn4   v092
	BYTE	W12
	BYTE		N03     Gn3 
	BYTE		N03     Cn4 
	BYTE	W06
	BYTE		N05     Gn3   v088
	BYTE		N05     Cn4   v092
	BYTE	W68
	BYTE	W03
// 011   ----------------------------------------
	BYTE	W96
// 012   ----------------------------------------
	BYTE	W96
// 013   ----------------------------------------
	BYTE	W96
// 014   ----------------------------------------
	BYTE	W96
// 015   ----------------------------------------
	BYTE	W96
// 016   ----------------------------------------
	BYTE	W96
// 017   ----------------------------------------
	BYTE	W96
// 018   ----------------------------------------
	BYTE	W48
	BYTE	GoTo
	 POIN2	MinibossPM_1_B1
MinibossPM_1_B2:
	BYTE	W40
	BYTE	FINE

//**************** Track 2 (Midi-Chn.2) ****************//

MinibossPM_2:
	BYTE	KEYSH   MinibossPM_key+0
// 000   ----------------------------------------
	BYTE		VOICE   50
	BYTE		VOL     100*MinibossPM_mvl/mxv
	BYTE	W48
MinibossPM_2_B1:
	BYTE	W48
// 001   ----------------------------------------
	BYTE	W36
	BYTE		PAN     c_v+6
	BYTE		N04     Gn3   v076
	BYTE	W06
	BYTE		        An3 
	BYTE	W06
	BYTE		        As3 
	BYTE	W06
	BYTE		        Cn4   v088
	BYTE	W06
	BYTE		        As3   v076
	BYTE	W06
	BYTE		        Cn4   v092
	BYTE	W06
	BYTE		        As3   v076
	BYTE	W06
	BYTE		        Cn4   v088
	BYTE	W06
	BYTE		        As3   v080
	BYTE	W06
	BYTE		        Cn4   v076
	BYTE	W06
// 002   ----------------------------------------
	BYTE		        Dn4   v088
	BYTE	W12
	BYTE		        Cn4 
	BYTE	W12
	BYTE		        As3   v084
	BYTE	W12
	BYTE		        An3   v096
	BYTE	W12
	BYTE		        Gn3   v064
	BYTE	W24
	BYTE		N13     Dn4 
	BYTE		N13     Fn4   v060
	BYTE	W18
	BYTE		N04     Dn4   v068
	BYTE		N03     Fn4   v056
	BYTE	W06
// 003   ----------------------------------------
	BYTE		        Cn4   v072
	BYTE		N03     En4 
	BYTE	W24
	BYTE		N13     An3   v064
	BYTE		N13     Cn4   v060
	BYTE	W18
	BYTE		N04     An3   v068
	BYTE		N03     Cn4   v056
	BYTE	W06
	BYTE		        Gn3   v072
	BYTE		N03     As3 
	BYTE	W24
	BYTE		N13     Fn3   v056
	BYTE		N13     An3 
	BYTE	W18
	BYTE		N05     Fn3 
	BYTE		N02     An3 
	BYTE	W06
// 004   ----------------------------------------
	BYTE		N05     En3 
	BYTE		N06     Gn3   v060
	BYTE	W36
	BYTE		N04     Gn3   v076
	BYTE	W06
	BYTE		        An3 
	BYTE	W06
	BYTE		        As3 
	BYTE	W06
	BYTE		        Cn4   v080
	BYTE	W06
	BYTE		        As3   v076
	BYTE	W06
	BYTE		        Cn4   v084
	BYTE	W06
	BYTE		        As3   v076
	BYTE	W06
	BYTE		        Cn4   v088
	BYTE	W06
	BYTE		        As3   v076
	BYTE	W06
	BYTE		        Cn4   v088
	BYTE	W06
// 005   ----------------------------------------
	BYTE		        As3 
	BYTE	W12
	BYTE		        An4   v092
	BYTE	W12
	BYTE		        Gn4 
	BYTE	W12
	BYTE		        Fn4   v096
	BYTE	W12
	BYTE		N06     En4 
	BYTE	W48
// 006   ----------------------------------------
	BYTE	W48
	BYTE		PAN     c_v-20
	BYTE		N04     Gn3   v108
	BYTE		N04     As3   v120
	BYTE	W24
	BYTE		N03     Fn3   v104
	BYTE		N04     An3 
	BYTE	W24
// 007   ----------------------------------------
	BYTE		N03     En3   v096
	BYTE		N03     Gn3   v108
	BYTE	W12
	BYTE		        En3   v080
	BYTE		N03     Gn3   v092
	BYTE	W06
	BYTE		        Fn3 
	BYTE		N03     An3   v108
	BYTE	W18
	BYTE		        Gn3   v088
	BYTE		N03     As3   v096
	BYTE	W12
	BYTE		        An3   v108
	BYTE		N05     Cn4   v120
	BYTE	W24
	BYTE		N03     As3   v088
	BYTE		N04     Dn4   v108
	BYTE	W24
// 008   ----------------------------------------
	BYTE		N03     Cn4   v096
	BYTE		N04     En4   v108
	BYTE	W12
	BYTE		N03     Cn4   v076
	BYTE		N03     En4   v096
	BYTE	W06
	BYTE		        Bn3   v076
	BYTE		N03     Dn4   v092
	BYTE	W18
	BYTE		        An3   v104
	BYTE		N03     Cn4 
	BYTE	W12
	BYTE		N04     Gn3   v088
	BYTE		N03     As3   v104
	BYTE	W24
	BYTE		        Fn3 
	BYTE		N04     An3 
	BYTE	W24
// 009   ----------------------------------------
	BYTE		N03     En3   v100
	BYTE		N03     Gn3   v104
	BYTE	W12
	BYTE		        En3   v048
	BYTE		N03     Gn3   v092
	BYTE	W06
	BYTE		        Fn3   v096
	BYTE		N03     An3   v072
	BYTE	W18
	BYTE		        Fn3   v100
	BYTE		N03     An3   v096
	BYTE	W12
	BYTE		N13     Cn3   v060
	BYTE		N14     Fn3   v124
	BYTE	W18
	BYTE		N04     Cn3   v088
	BYTE		N04     En3   v104
	BYTE	W30
// 010   ----------------------------------------
	BYTE	W06
	BYTE		        Gn4   v088
	BYTE		N04     Cn5   v096
	BYTE	W12
	BYTE		N03     Gn4   v092
	BYTE		N03     Cn5   v096
	BYTE	W06
	BYTE		N05     Gn4   v088
	BYTE		N05     Cn5   v096
	BYTE	W72
// 011   ----------------------------------------
	BYTE	W96
// 012   ----------------------------------------
	BYTE	W96
// 013   ----------------------------------------
	BYTE	W96
// 014   ----------------------------------------
	BYTE	W96
// 015   ----------------------------------------
	BYTE	W96
// 016   ----------------------------------------
	BYTE	W96
// 017   ----------------------------------------
	BYTE	W96
// 018   ----------------------------------------
	BYTE	W48
	BYTE	GoTo
	 POIN2	MinibossPM_2_B1
MinibossPM_2_B2:
	BYTE	W40
	BYTE	FINE

//**************** Track 3 (Midi-Chn.3) ****************//

MinibossPM_3:
	BYTE	KEYSH   MinibossPM_key+0
// 000   ----------------------------------------
	BYTE		VOICE   71
	BYTE		VOL     127*MinibossPM_mvl/mxv
	BYTE	W48
MinibossPM_3_B1:
	BYTE	W48
// 001   ----------------------------------------
	BYTE	W96
// 002   ----------------------------------------
	BYTE	W96
// 003   ----------------------------------------
	BYTE	W96
// 004   ----------------------------------------
	BYTE	W96
// 005   ----------------------------------------
	BYTE	W96
// 006   ----------------------------------------
	BYTE	W96
// 007   ----------------------------------------
	BYTE	W96
// 008   ----------------------------------------
	BYTE	W96
// 009   ----------------------------------------
	BYTE	W96
// 010   ----------------------------------------
	BYTE	W36
	BYTE	W01
	BYTE		N04     Gn3   v088
	BYTE	W07
	BYTE		N06     An3   v068
	BYTE	W06
	BYTE		N04     Gn3   v096
	BYTE	W06
	BYTE		N06     An3   v088
	BYTE	W06
	BYTE		        Gn3   v084
	BYTE	W06
	BYTE		        An3   v096
	BYTE	W06
	BYTE		N05     Gn3   v092
	BYTE	W06
	BYTE		N06     An3   v100
	BYTE	W06
	BYTE		        Gn3   v088
	BYTE	W06
	BYTE		        An3   v100
	BYTE	W04
// 011   ----------------------------------------
	BYTE	W02
	BYTE		N03     Gn3   v096
	BYTE	W12
	BYTE		N07     Dn4 
	BYTE	W36
	BYTE		N05     En4 
	BYTE	W06
	BYTE		N06     Fn4   v092
	BYTE	W06
	BYTE		N05     En4   v080
	BYTE	W06
	BYTE		N06     Fn4   v088
	BYTE	W06
	BYTE		N05     En4   v080
	BYTE	W06
	BYTE		        Fn4   v088
	BYTE	W06
	BYTE		N06     En4 
	BYTE	W06
	BYTE		N07     Fn4 
	BYTE	W04
// 012   ----------------------------------------
	BYTE	W02
	BYTE		N05     En4   v092
	BYTE	W12
	BYTE		N10     Cn4 
	BYTE	W36
	BYTE		N03     Gn3   v096
	BYTE	W06
	BYTE		N04     An3 
	BYTE	W06
	BYTE		N05     Gn3   v080
	BYTE	W06
	BYTE		        An3   v096
	BYTE	W06
	BYTE		        Gn3   v084
	BYTE	W06
	BYTE		        An3   v088
	BYTE	W06
	BYTE		N06     Gn3   v080
	BYTE	W06
	BYTE		        An3   v096
	BYTE	W04
// 013   ----------------------------------------
	BYTE	W02
	BYTE		N03     Gn3   v100
	BYTE	W12
	BYTE		N07     Dn4   v096
	BYTE	W36
	BYTE		N05     Dn4   v100
	BYTE	W06
	BYTE		        En4   v092
	BYTE	W06
	BYTE		        Dn4   v088
	BYTE	W06
	BYTE		        En4 
	BYTE	W06
	BYTE		N06     Dn4 
	BYTE	W06
	BYTE		N05     En4   v080
	BYTE	W06
	BYTE		        Dn4   v088
	BYTE	W06
	BYTE		N06     En4   v092
	BYTE	W04
// 014   ----------------------------------------
	BYTE	W02
	BYTE		N05     Dn4 
	BYTE	W12
	BYTE		N10     Cn5 
	BYTE	W32
	BYTE	W02
	BYTE		N05     Bn4   v100
	BYTE	W24
	BYTE		        An4 
	BYTE	W18
	BYTE		N04     Gn4 
	BYTE	W06
// 015   ----------------------------------------
	BYTE	W06
	BYTE		N04   
	BYTE	W12
	BYTE		N05   
	BYTE	W06
	BYTE		N04     Fn4   v096
	BYTE	W12
	BYTE		        Dn4   v116
	BYTE	W12
	BYTE		        En4   v100
	BYTE	W12
	BYTE		N05     Gn3 
	BYTE	W06
	BYTE		N06     An3 
	BYTE	W06
	BYTE		N05     Gn3   v088
	BYTE	W06
	BYTE		N06     An3   v092
	BYTE	W06
	BYTE		N05     Gn3   v088
	BYTE	W06
	BYTE		N06     An3 
	BYTE	W06
// 016   ----------------------------------------
	BYTE		N03     Gn3   v092
	BYTE	W12
	BYTE		N04     Gn2   v100
	BYTE	W36
	BYTE		N06     Dn4   v096
	BYTE		N04     Bn4   v092
	BYTE	W23
	BYTE		N06     Cn4   v096
	BYTE	W01
	BYTE		N04     An4   v088
	BYTE	W18
	BYTE		        Bn3   v096
	BYTE		N05     Gn4   v088
	BYTE	W06
// 017   ----------------------------------------
	BYTE	W06
	BYTE		N04     Gn4   v084
	BYTE	W01
	BYTE		        Bn3   v092
	BYTE	W11
	BYTE		N05   
	BYTE		N08     Gn4   v060
	BYTE	W05
	BYTE		N07     An3   v076
	BYTE	W01
	BYTE		N06     Fn4   v064
	BYTE	W11
	BYTE		N05     Gn3   v080
	BYTE	W01
	BYTE		N04     Dn4 
	BYTE	W11
	BYTE		        An3   v084
	BYTE	W01
	BYTE		N03     En4   v112
	BYTE	W11
	BYTE		N42     Bn2   v104
	BYTE	W01
	BYTE		N04     Gn3   v100
	BYTE	W06
	BYTE		N06     An3   v080
	BYTE	W06
	BYTE		N05     Gn3   v076
	BYTE	W06
	BYTE		        An3   v080
	BYTE	W06
	BYTE		        Gn3   v072
	BYTE	W06
	BYTE		N06     An3   v080
	BYTE	W06
// 018   ----------------------------------------
	BYTE		N03     Gn3   v076
	BYTE	W12
	BYTE		N05     Cn2   v104
	BYTE		N03     Gn2 
	BYTE	W36
	BYTE	GoTo
	 POIN2	MinibossPM_3_B1
MinibossPM_3_B2:
	BYTE	W40
	BYTE	FINE

//**************** Track 4 (Midi-Chn.4) ****************//

MinibossPM_4:
	BYTE	KEYSH   MinibossPM_key+0
// 000   ----------------------------------------
	BYTE		VOICE   36
	BYTE		VOL     102*MinibossPM_mvl/mxv
	BYTE	W48
MinibossPM_4_B1:
	BYTE		N12     Cn2   v112
	BYTE	W12
	BYTE		N05     Gn2   v104
	BYTE	W24
	BYTE		        Gn2   v112
	BYTE	W12
// 001   ----------------------------------------
	BYTE		N12     Cn2 
	BYTE	W12
	BYTE		N05     Gn2   v092
	BYTE	W24
	BYTE		N05   
	BYTE	W12
	BYTE		N12     Cn2   v096
	BYTE	W12
	BYTE		N05     Gn2 
	BYTE	W24
	BYTE		        Gn2   v100
	BYTE	W12
// 002   ----------------------------------------
	BYTE		N12     Cn2   v092
	BYTE	W12
	BYTE		N05     Gn2   v088
	BYTE	W24
	BYTE		        Gn2   v092
	BYTE	W12
	BYTE		N12     Cn2   v096
	BYTE	W12
	BYTE		N05     Gn2   v080
	BYTE	W12
	BYTE		N09     Gn2   v100
	BYTE	W24
// 003   ----------------------------------------
	BYTE		N12     Cn2   v096
	BYTE	W12
	BYTE		N05     Gn2   v084
	BYTE	W12
	BYTE		        Gn2   v088
	BYTE	W18
	BYTE		        Gn2   v080
	BYTE	W06
	BYTE		N12     Cn2 
	BYTE	W12
	BYTE		N05     Gn2 
	BYTE	W12
	BYTE		N09     Gn2   v096
	BYTE	W18
	BYTE		N05     Gn2   v080
	BYTE	W06
// 004   ----------------------------------------
	BYTE		N12     Cn2 
	BYTE	W12
	BYTE		N05     Gn2 
	BYTE	W24
	BYTE		        Gn2   v084
	BYTE	W12
	BYTE		N12     Cn2   v080
	BYTE	W12
	BYTE		N05     Gn2   v084
	BYTE	W24
	BYTE		        Gn2   v080
	BYTE	W12
// 005   ----------------------------------------
	BYTE		N12     Cn2   v092
	BYTE	W24
	BYTE		N05     Gn2 
	BYTE	W12
	BYTE		        Gn2   v088
	BYTE	W12
	BYTE		N12     Cn2   v096
	BYTE	W12
	BYTE		N05     Gn2   v084
	BYTE	W24
	BYTE		        Gn2   v092
	BYTE	W12
// 006   ----------------------------------------
	BYTE		N12     Cn2   v096
	BYTE	W12
	BYTE		N05     Gn2   v092
	BYTE	W24
	BYTE		        Gn2   v096
	BYTE	W12
	BYTE		N12     Cn2   v112
	BYTE	W12
	BYTE		N05     Gn2   v104
	BYTE	W24
	BYTE		        Gn2   v112
	BYTE	W12
// 007   ----------------------------------------
MinibossPM_4_007:
	BYTE		N12     Cn2   v112
	BYTE	W12
	BYTE		N05     Gn2   v092
	BYTE	W24
	BYTE		N05   
	BYTE	W12
	BYTE		N12     Cn2   v112
	BYTE	W12
	BYTE		N05     Gn2   v104
	BYTE	W24
	BYTE		        Gn2   v112
	BYTE	W12
	BYTE	PEND
// 008   ----------------------------------------
	BYTE	PATT
	 POIN2	MinibossPM_4_007
// 009   ----------------------------------------
	BYTE	PATT
	 POIN2	MinibossPM_4_007
// 010   ----------------------------------------
	BYTE		N12     Cn2   v112
	BYTE	W12
	BYTE		N05     Gn2   v092
	BYTE	W24
	BYTE		N05   
	BYTE	W02
	BYTE		PAN     c_v-20
	BYTE	W10
	BYTE		N12     Cn2   v112
	BYTE	W12
	BYTE		N05     Gn2   v104
	BYTE	W24
	BYTE		        Gn2   v112
	BYTE	W12
// 011   ----------------------------------------
	BYTE	PATT
	 POIN2	MinibossPM_4_007
// 012   ----------------------------------------
	BYTE	PATT
	 POIN2	MinibossPM_4_007
// 013   ----------------------------------------
	BYTE		N12     Cn2   v112
	BYTE	W12
	BYTE		N05     Gn2   v092
	BYTE	W24
	BYTE		N05   
	BYTE	W12
	BYTE		N12     Cn2   v112
	BYTE	W11
	BYTE		N05     Gn2   v092
	BYTE	W24
	BYTE		N05   
	BYTE	W02
	BYTE		PAN     c_v-20
	BYTE	W11
// 014   ----------------------------------------
	BYTE	W48
	BYTE		N04     Gn2   v100
	BYTE	W12
	BYTE		N05     Cn3   v104
	BYTE	W12
	BYTE		N09     Cn2   v116
	BYTE	W12
	BYTE		N05     Dn3   v096
	BYTE	W12
// 015   ----------------------------------------
	BYTE		N04     Gn2   v104
	BYTE	W12
	BYTE		N05     Dn3   v100
	BYTE	W12
	BYTE		N09     Cn2   v092
	BYTE	W12
	BYTE		N04     Gn2   v096
	BYTE	W12
	BYTE		N04   
	BYTE	W12
	BYTE		N06     Dn3   v100
	BYTE	W12
	BYTE		N09     Cn2   v116
	BYTE	W12
	BYTE		N05     Dn3   v100
	BYTE	W12
// 016   ----------------------------------------
	BYTE		N04     Gn2   v096
	BYTE	W06
	BYTE		N05     Gn2   v092
	BYTE	W06
	BYTE		N06     An2   v076
	BYTE	W06
	BYTE		N15     Bn2   v092
	BYTE	W12
	BYTE		N07     Cn3 
	BYTE	W06
	BYTE		N05     Dn3   v096
	BYTE	W06
	BYTE		        En3   v108
	BYTE	W54
// 017   ----------------------------------------
	BYTE	W48
	BYTE	W01
	BYTE		N03     En2   v100
	BYTE		N03     En3 
	BYTE	W12
	BYTE		N04     Gn1 
	BYTE		N04     Gn2 
	BYTE	W06
	BYTE		N06     An1 
	BYTE		N06     An2 
	BYTE	W06
	BYTE		N05     Gn1 
	BYTE		N05     Gn2 
	BYTE	W06
	BYTE		        An1 
	BYTE		N05     An2 
	BYTE	W06
	BYTE		        Gn1 
	BYTE		N05     Gn2 
	BYTE	W06
	BYTE		N06     An1 
	BYTE		N06     An2 
	BYTE	W05
// 018   ----------------------------------------
	BYTE	W01
	BYTE		N12     Gn1 
	BYTE		N12     Gn2 
	BYTE	W44
	BYTE	W03
	BYTE	GoTo
	 POIN2	MinibossPM_4_B1
MinibossPM_4_B2:
	BYTE	W40
	BYTE	FINE

//**************** Track 5 (Midi-Chn.5) ****************//

MinibossPM_5:
	BYTE	KEYSH   MinibossPM_key+0
// 000   ----------------------------------------
	BYTE		VOICE   127
	BYTE		VOL     103*MinibossPM_mvl/mxv
	BYTE	W48
MinibossPM_5_B1:
	BYTE		N12     Cn3   v092
	BYTE		N08     Dn3   v064
	BYTE	W09
	BYTE		N07     Dn3   v052
	BYTE	W03
	BYTE		N28     Cn3   v092
	BYTE	W04
	BYTE		N07     Dn3   v044
	BYTE	W08
	BYTE		N06     Cs3   v092
	BYTE		N07     Dn3   v052
	BYTE	W06
	BYTE		N32     Cs3   v092
	BYTE	W01
	BYTE		N08     Dn3   v044
	BYTE	W08
	BYTE		N01   
	BYTE	W03
	BYTE		N10     Cn3   v084
	BYTE	W05
	BYTE		N02     Dn3   v052
	BYTE	W01
// 001   ----------------------------------------
MinibossPM_5_001:
	BYTE	W06
	BYTE		N28     Cn3   v092
	BYTE		N02     Dn3   v044
	BYTE	W11
	BYTE		N06     Dn3   v064
	BYTE	W01
	BYTE		N04     Cs3   v084
	BYTE	W05
	BYTE		N08     Dn3   v052
	BYTE	W01
	BYTE		N12     Cs3   v092
	BYTE	W11
	BYTE		N04     Dn3   v064
	BYTE	W01
	BYTE		N22     Cs3   v092
	BYTE	W11
	BYTE		N08     Dn3   v052
	BYTE	W01
	BYTE		N12     Cn3   v092
	BYTE	W07
	BYTE		N01     Dn3   v052
	BYTE	W05
	BYTE		N28     Cn3   v092
	BYTE	W04
	BYTE		N07     Dn3   v064
	BYTE	W08
	BYTE		N04     Cs3   v092
	BYTE		N03     Dn3   v064
	BYTE	W06
	BYTE		N32     Cs3   v076
	BYTE	W02
	BYTE		N07     Dn3   v072
	BYTE	W09
	BYTE		N06     Dn3   v064
	BYTE	W01
	BYTE		N10     Cn3   v084
	BYTE	W06
	BYTE	PEND
// 002   ----------------------------------------
MinibossPM_5_002:
	BYTE		N08     Dn3   v064
	BYTE	W06
	BYTE		N28     Cn3   v100
	BYTE	W02
	BYTE		N07     Dn3   v064
	BYTE	W10
	BYTE		N04     Cs3   v092
	BYTE		N06     Dn3   v052
	BYTE	W06
	BYTE		N12     Cs3   v084
	BYTE	W01
	BYTE		N08     Dn3   v064
	BYTE	W10
	BYTE		N05     Dn3   v072
	BYTE	W01
	BYTE		N22     Cs3   v092
	BYTE	W10
	BYTE		N02     Dn3   v064
	BYTE	W02
	BYTE		N12     Cn3   v100
	BYTE	W07
	BYTE		N03     Dn3   v064
	BYTE	W05
	BYTE		N28     Cn3   v100
	BYTE	W04
	BYTE		N01     Dn3   v064
	BYTE	W08
	BYTE		N04     Cs3   v084
	BYTE		N03     Dn3   v064
	BYTE	W06
	BYTE		N32     Cs3   v084
	BYTE	W02
	BYTE		N06     Dn3   v052
	BYTE	W09
	BYTE		N05     Dn3   v064
	BYTE	W01
	BYTE		N10     Cn3   v092
	BYTE	W06
	BYTE	PEND
// 003   ----------------------------------------
MinibossPM_5_003:
	BYTE		N08     Dn3   v064
	BYTE	W06
	BYTE		N28     Cn3   v100
	BYTE	W03
	BYTE		N07     Dn3   v064
	BYTE	W09
	BYTE		N04     Cs3   v092
	BYTE		N06     Dn3   v064
	BYTE	W06
	BYTE		N12     Cs3   v084
	BYTE	W01
	BYTE		N08     Dn3   v064
	BYTE	W11
	BYTE		N22     Cs3   v092
	BYTE		N04     Dn3   v064
	BYTE	W10
	BYTE		N03   
	BYTE	W02
	BYTE		N12     Cn3   v092
	BYTE	W06
	BYTE		N03     Dn3   v064
	BYTE	W06
	BYTE		N28     Cn3   v100
	BYTE	W04
	BYTE		N01     Dn3   v064
	BYTE	W08
	BYTE		N04     Cs3   v092
	BYTE		N04     Dn3   v064
	BYTE	W06
	BYTE		N32     Cs3   v092
	BYTE	W01
	BYTE		N06     Dn3   v064
	BYTE	W10
	BYTE		N05   
	BYTE	W01
	BYTE		N10     Cn3   v100
	BYTE	W06
	BYTE	PEND
// 004   ----------------------------------------
MinibossPM_5_004:
	BYTE		N07     Dn3   v072
	BYTE	W06
	BYTE		N28     Cn3   v100
	BYTE	W01
	BYTE		N01     Dn3   v064
	BYTE	W10
	BYTE		N06   
	BYTE	W01
	BYTE		N04     Cs3   v092
	BYTE	W06
	BYTE		N12     Cs3   v084
	BYTE	W01
	BYTE		N08     Dn3   v072
	BYTE	W10
	BYTE		N04   
	BYTE	W01
	BYTE		N22     Cs3   v092
	BYTE	W12
	BYTE		N12     Cn3 
	BYTE		N08     Dn3   v064
	BYTE	W09
	BYTE		N01     Dn3   v052
	BYTE	W03
	BYTE		N28     Cn3   v092
	BYTE	W04
	BYTE		N01     Dn3   v044
	BYTE	W08
	BYTE		N04     Cs3   v092
	BYTE		N03     Dn3   v052
	BYTE	W06
	BYTE		N32     Cs3   v092
	BYTE	W01
	BYTE		N08     Dn3   v044
	BYTE	W08
	BYTE		N01   
	BYTE	W03
	BYTE		N10     Cn3   v084
	BYTE	W05
	BYTE		N02     Dn3   v052
	BYTE	W01
	BYTE	PEND
// 005   ----------------------------------------
	BYTE	PATT
	 POIN2	MinibossPM_5_001
// 006   ----------------------------------------
	BYTE		N08     Dn3   v064
	BYTE	W06
	BYTE		N28     Cn3   v100
	BYTE	W02
	BYTE		N07     Dn3   v064
	BYTE	W10
	BYTE		N04     Cs3   v092
	BYTE		N06     Dn3   v052
	BYTE	W06
	BYTE		N12     Cs3   v084
	BYTE	W01
	BYTE		N08     Dn3   v064
	BYTE	W10
	BYTE		N05     Dn3   v072
	BYTE	W01
	BYTE		N22     Cs3   v092
	BYTE	W12
	BYTE		PAN     c_v-20
	BYTE	W12
	BYTE		N12     Cn3 
	BYTE		N08     Dn3   v064
	BYTE	W09
	BYTE		N07     Dn3   v052
	BYTE	W03
	BYTE		N28     Cn3   v092
	BYTE	W04
	BYTE		N07     Dn3   v044
	BYTE	W08
	BYTE		N06     Cs3   v092
	BYTE		N07     Dn3   v052
	BYTE	W06
	BYTE		N32     Cs3   v092
	BYTE	W01
	BYTE		N08     Dn3   v044
	BYTE	W05
// 007   ----------------------------------------
MinibossPM_5_007:
	BYTE	W03
	BYTE		N01     Dn3   v044
	BYTE	W03
	BYTE		N10     Cn3   v084
	BYTE	W05
	BYTE		N02     Dn3   v052
	BYTE	W07
	BYTE		N28     Cn3   v092
	BYTE		N02     Dn3   v044
	BYTE	W11
	BYTE		N06     Dn3   v064
	BYTE	W01
	BYTE		N04     Cs3   v084
	BYTE	W05
	BYTE		N08     Dn3   v052
	BYTE	W01
	BYTE		N12     Cs3   v092
	BYTE	W11
	BYTE		N04     Dn3   v064
	BYTE	W01
	BYTE		N22     Cs3   v092
	BYTE	W11
	BYTE		N08     Dn3   v052
	BYTE	W01
	BYTE		N12     Cn3   v092
	BYTE	W07
	BYTE		N01     Dn3   v052
	BYTE	W05
	BYTE		N28     Cn3   v092
	BYTE	W04
	BYTE		N07     Dn3   v064
	BYTE	W08
	BYTE		N04     Cs3   v092
	BYTE		N03     Dn3   v064
	BYTE	W06
	BYTE		N32     Cs3   v076
	BYTE	W02
	BYTE		N07     Dn3   v072
	BYTE	W04
	BYTE	PEND
// 008   ----------------------------------------
	BYTE	W05
	BYTE		N06     Dn3   v064
	BYTE	W01
	BYTE		N10     Cn3   v084
	BYTE	W06
	BYTE		N08     Dn3   v064
	BYTE	W06
	BYTE		N28     Cn3   v100
	BYTE	W02
	BYTE		N07     Dn3   v064
	BYTE	W10
	BYTE		N04     Cs3   v092
	BYTE		N06     Dn3   v052
	BYTE	W06
	BYTE		N12     Cs3   v084
	BYTE	W01
	BYTE		N08     Dn3   v064
	BYTE	W10
	BYTE		N05     Dn3   v072
	BYTE	W01
	BYTE		N22     Cs3   v092
	BYTE	W10
	BYTE		N02     Dn3   v064
	BYTE	W02
	BYTE		N12     Cn3   v100
	BYTE	W07
	BYTE		N03     Dn3   v064
	BYTE	W05
	BYTE		N28     Cn3   v100
	BYTE	W04
	BYTE		N01     Dn3   v064
	BYTE	W08
	BYTE		N04     Cs3   v084
	BYTE		N03     Dn3   v064
	BYTE	W06
	BYTE		N32     Cs3   v084
	BYTE	W02
	BYTE		N06     Dn3   v052
	BYTE	W04
// 009   ----------------------------------------
	BYTE	W05
	BYTE		N05     Dn3   v064
	BYTE	W01
	BYTE		N10     Cn3   v092
	BYTE	W06
	BYTE		N08     Dn3   v064
	BYTE	W06
	BYTE		N28     Cn3   v100
	BYTE	W03
	BYTE		N07     Dn3   v064
	BYTE	W09
	BYTE		N04     Cs3   v092
	BYTE		N06     Dn3   v064
	BYTE	W06
	BYTE		N12     Cs3   v084
	BYTE	W01
	BYTE		N08     Dn3   v064
	BYTE	W11
	BYTE		N22     Cs3   v092
	BYTE		N04     Dn3   v064
	BYTE	W10
	BYTE		N03   
	BYTE	W02
	BYTE		N12     Cn3   v092
	BYTE	W06
	BYTE		N03     Dn3   v064
	BYTE	W06
	BYTE		N28     Cn3   v100
	BYTE	W04
	BYTE		N01     Dn3   v064
	BYTE	W08
	BYTE		N04     Cs3   v092
	BYTE		N04     Dn3   v064
	BYTE	W06
	BYTE		N32     Cs3   v092
	BYTE	W01
	BYTE		N06     Dn3   v064
	BYTE	W05
// 010   ----------------------------------------
	BYTE	W05
	BYTE		N05   
	BYTE	W01
	BYTE		N10     Cn3   v100
	BYTE	W06
	BYTE		N07     Dn3   v072
	BYTE	W06
	BYTE		N28     Cn3   v100
	BYTE	W01
	BYTE		N01     Dn3   v064
	BYTE	W10
	BYTE		N06   
	BYTE	W01
	BYTE		N04     Cs3   v092
	BYTE	W06
	BYTE		N12     Cs3   v084
	BYTE	W01
	BYTE		N08     Dn3   v072
	BYTE	W10
	BYTE		N04   
	BYTE	W01
	BYTE		N22     Cs3   v092
	BYTE	W12
	BYTE		N12     Cn3 
	BYTE		N08     Dn3   v064
	BYTE	W09
	BYTE		N01     Dn3   v052
	BYTE	W03
	BYTE		N28     Cn3   v092
	BYTE	W04
	BYTE		N01     Dn3   v044
	BYTE	W08
	BYTE		N04     Cs3   v092
	BYTE		N03     Dn3   v052
	BYTE	W06
	BYTE		N32     Cs3   v092
	BYTE	W01
	BYTE		N08     Dn3   v044
	BYTE	W05
// 011   ----------------------------------------
	BYTE	PATT
	 POIN2	MinibossPM_5_007
// 012   ----------------------------------------
	BYTE	W05
	BYTE		N06     Dn3   v064
	BYTE	W01
	BYTE		N10     Cn3   v084
	BYTE	W06
	BYTE		N08     Dn3   v064
	BYTE	W06
	BYTE		N28     Cn3   v100
	BYTE	W02
	BYTE		N07     Dn3   v064
	BYTE	W10
	BYTE		N04     Cs3   v092
	BYTE		N06     Dn3   v052
	BYTE	W06
	BYTE		N12     Cs3   v084
	BYTE	W01
	BYTE		N08     Dn3   v064
	BYTE	W10
	BYTE		N05     Dn3   v072
	BYTE	W01
	BYTE		N12     Cn3   v092
	BYTE	W09
	BYTE		N07     Dn3   v052
	BYTE	W03
	BYTE		N28     Cn3   v092
	BYTE	W04
	BYTE		N07     Dn3   v044
	BYTE	W08
	BYTE		N06     Cs3   v092
	BYTE		N07     Dn3   v052
	BYTE	W06
	BYTE		N32     Cs3   v092
	BYTE	W01
	BYTE		N08     Dn3   v044
	BYTE	W08
	BYTE		N01   
	BYTE	W03
	BYTE		N10     Cn3   v084
	BYTE	W05
	BYTE		N02     Dn3   v052
	BYTE	W01
// 013   ----------------------------------------
	BYTE	PATT
	 POIN2	MinibossPM_5_001
// 014   ----------------------------------------
	BYTE	PATT
	 POIN2	MinibossPM_5_002
// 015   ----------------------------------------
	BYTE	PATT
	 POIN2	MinibossPM_5_003
// 016   ----------------------------------------
	BYTE	PATT
	 POIN2	MinibossPM_5_004
// 017   ----------------------------------------
	BYTE	W06
	BYTE		N28     Cn3   v092
	BYTE		N02     Dn3   v044
	BYTE	W11
	BYTE		N06     Dn3   v064
	BYTE	W01
	BYTE		N04     Cs3   v084
	BYTE	W05
	BYTE		N08     Dn3   v052
	BYTE	W01
	BYTE		N12     Cs3   v092
	BYTE	W11
	BYTE		N04     Dn3   v064
	BYTE	W01
	BYTE		N22     Cs3   v092
	BYTE	W11
	BYTE		N08     Dn3   v052
	BYTE	W01
	BYTE		N12     Cn3   v092
	BYTE	W07
	BYTE		N01     Dn3   v052
	BYTE	W05
	BYTE		N28     Cn3   v092
	BYTE	W04
	BYTE		N07     Dn3   v064
	BYTE	W08
	BYTE		N04     Cs3   v092
	BYTE		N03     Dn3   v064
	BYTE	W06
	BYTE		N17     Cs3   v076
	BYTE	W02
	BYTE		N07     Dn3   v072
	BYTE	W09
	BYTE		N06     Dn3   v064
	BYTE	W01
	BYTE		N05     Cn3   v084
	BYTE	W06
// 018   ----------------------------------------
	BYTE		PAN     c_v-20
	BYTE	W48
	BYTE	GoTo
	 POIN2	MinibossPM_5_B1
MinibossPM_5_B2:
	BYTE	W40
	BYTE	FINE

//**************** Track 6 (Midi-Chn.6) ****************//

MinibossPM_6:
	BYTE	KEYSH   MinibossPM_key+0
// 000   ----------------------------------------
	BYTE		VOICE   50
	BYTE		VOL     97*MinibossPM_mvl/mxv
	BYTE	W48
MinibossPM_6_B1:
	BYTE	W48
// 001   ----------------------------------------
	BYTE	W36
	BYTE	W03
	BYTE		PAN     c_v-24
	BYTE		N04     Gn3   v076
	BYTE	W06
	BYTE		        An3 
	BYTE	W06
	BYTE		        As3   v072
	BYTE	W06
	BYTE		        Cn4   v088
	BYTE	W06
	BYTE		        As3   v076
	BYTE	W06
	BYTE		        Cn4   v092
	BYTE	W06
	BYTE		        As3   v076
	BYTE	W06
	BYTE		        Cn4   v092
	BYTE	W06
	BYTE		        As3   v080
	BYTE	W06
	BYTE		        Cn4   v072
	BYTE	W03
// 002   ----------------------------------------
	BYTE	W03
	BYTE		        Dn4   v092
	BYTE	W12
	BYTE		        Cn4   v088
	BYTE	W12
	BYTE		        As3   v084
	BYTE	W12
	BYTE		        An3   v096
	BYTE	W12
	BYTE		        Gn3   v084
	BYTE	W24
	BYTE		N13     Dn4 
	BYTE		N13     Fn4   v080
	BYTE	W18
	BYTE		N04     Dn4   v088
	BYTE		N03     Fn4   v068
	BYTE	W03
// 003   ----------------------------------------
	BYTE	W03
	BYTE		        Cn4   v092
	BYTE		N03     En4 
	BYTE	W24
	BYTE		N13     An3   v084
	BYTE		N13     Cn4   v080
	BYTE	W18
	BYTE		N04     An3   v088
	BYTE		N03     Cn4   v068
	BYTE	W06
	BYTE		        Gn3   v092
	BYTE		N03     As3 
	BYTE	W24
	BYTE		N13     Fn3   v068
	BYTE		N13     An3   v072
	BYTE	W18
	BYTE		N05     Fn3   v056
	BYTE		N02     An3   v064
	BYTE	W03
// 004   ----------------------------------------
	BYTE	W03
	BYTE		N05     En3 
	BYTE		N06     Gn3   v080
	BYTE	W36
	BYTE		N04     Gn3   v076
	BYTE	W06
	BYTE		        An3   v068
	BYTE	W06
	BYTE		        As3 
	BYTE	W06
	BYTE		        Cn4   v080
	BYTE	W06
	BYTE		        As3   v072
	BYTE	W06
	BYTE		        Cn4   v084
	BYTE	W06
	BYTE		        As3   v064
	BYTE	W06
	BYTE		        Cn4   v088
	BYTE	W06
	BYTE		        As3   v072
	BYTE	W06
	BYTE		        Cn4   v088
	BYTE	W03
// 005   ----------------------------------------
	BYTE	W03
	BYTE		        As3 
	BYTE	W12
	BYTE		        An4   v100
	BYTE	W12
	BYTE		        Gn4   v096
	BYTE	W12
	BYTE		        Fn4   v100
	BYTE	W12
	BYTE		        En4   v096
	BYTE	W44
	BYTE	W01
// 006   ----------------------------------------
	BYTE	W48
	BYTE		PAN     c_v-20
	BYTE	W48
// 007   ----------------------------------------
	BYTE	W96
// 008   ----------------------------------------
	BYTE	W96
// 009   ----------------------------------------
	BYTE	W96
// 010   ----------------------------------------
	BYTE	W96
// 011   ----------------------------------------
	BYTE	W96
// 012   ----------------------------------------
	BYTE	W96
// 013   ----------------------------------------
	BYTE	W96
// 014   ----------------------------------------
	BYTE	W96
// 015   ----------------------------------------
	BYTE	W96
// 016   ----------------------------------------
	BYTE	W96
// 017   ----------------------------------------
	BYTE	W96
// 018   ----------------------------------------
	BYTE	W48
	BYTE	GoTo
	 POIN2	MinibossPM_6_B1
MinibossPM_6_B2:
	BYTE	W40
	BYTE	FINE

//**************** Track 7 (Midi-Chn.7) ****************//

MinibossPM_7:
	BYTE	KEYSH   MinibossPM_key+0
// 000   ----------------------------------------
	BYTE		VOICE   127
	BYTE		VOL     103*MinibossPM_mvl/mxv
	BYTE	W48
MinibossPM_7_B1:
	BYTE		N18     Fs2   v120
	BYTE	W18
	BYTE		N06   
	BYTE	W06
	BYTE		N16   
	BYTE	W18
	BYTE		N06     Fs2   v072
	BYTE	W06
// 001   ----------------------------------------
MinibossPM_7_001:
	BYTE		N10     Fs2   v120
	BYTE	W18
	BYTE		N06   
	BYTE	W06
	BYTE		N10   
	BYTE	W18
	BYTE		N06     Fs2   v072
	BYTE	W06
	BYTE		N10     Fs2   v120
	BYTE	W18
	BYTE		N06   
	BYTE	W06
	BYTE		N10   
	BYTE	W18
	BYTE		N06     Fs2   v072
	BYTE	W06
	BYTE	PEND
// 002   ----------------------------------------
	BYTE		N10     Fs2   v120
	BYTE	W18
	BYTE		N06   
	BYTE	W06
	BYTE		N10   
	BYTE	W12
	BYTE		N04   
	BYTE	W06
	BYTE		N06     Fs2   v072
	BYTE	W06
	BYTE		N10     Fs2   v120
	BYTE	W18
	BYTE		N06   
	BYTE	W06
	BYTE		N04   
	BYTE	W18
	BYTE		N06     Fs2   v072
	BYTE	W06
// 003   ----------------------------------------
	BYTE	PATT
	 POIN2	MinibossPM_7_001
// 004   ----------------------------------------
	BYTE		N10     Fs2   v120
	BYTE	W18
	BYTE		N06   
	BYTE	W06
	BYTE		N06   
	BYTE	W06
	BYTE		N04   
	BYTE	W12
	BYTE		N06     Fs2   v072
	BYTE	W06
	BYTE		N10     Fs2   v120
	BYTE	W18
	BYTE		N04   
	BYTE	W06
	BYTE		N10   
	BYTE	W18
	BYTE		N06     Fs2   v072
	BYTE	W06
// 005   ----------------------------------------
	BYTE	PATT
	 POIN2	MinibossPM_7_001
// 006   ----------------------------------------
	BYTE		N10     Fs2   v120
	BYTE	W18
	BYTE		N06   
	BYTE	W06
	BYTE		N10   
	BYTE	W12
	BYTE		N04   
	BYTE	W06
	BYTE		N06     Fs2   v072
	BYTE	W06
	BYTE		N10     Fs2   v120
	BYTE	W07
	BYTE		PAN     c_v-20
	BYTE	W11
	BYTE		N06   
	BYTE	W06
	BYTE		N10   
	BYTE	W18
	BYTE		N06     Fs2   v072
	BYTE	W06
// 007   ----------------------------------------
MinibossPM_7_007:
	BYTE		N10     Fs2   v120
	BYTE	W18
	BYTE		N06   
	BYTE	W06
	BYTE		N10   
	BYTE	W12
	BYTE		N04   
	BYTE	W06
	BYTE		N06     Fs2   v072
	BYTE	W06
	BYTE		N10     Fs2   v120
	BYTE	W18
	BYTE		N06   
	BYTE	W06
	BYTE		N10   
	BYTE	W18
	BYTE		N06     Fs2   v072
	BYTE	W06
	BYTE	PEND
// 008   ----------------------------------------
	BYTE	PATT
	 POIN2	MinibossPM_7_007
// 009   ----------------------------------------
	BYTE	PATT
	 POIN2	MinibossPM_7_007
// 010   ----------------------------------------
	BYTE	PATT
	 POIN2	MinibossPM_7_007
// 011   ----------------------------------------
	BYTE	PATT
	 POIN2	MinibossPM_7_007
// 012   ----------------------------------------
	BYTE	PATT
	 POIN2	MinibossPM_7_007
// 013   ----------------------------------------
	BYTE	PATT
	 POIN2	MinibossPM_7_007
// 014   ----------------------------------------
	BYTE		N10     Fs2   v120
	BYTE	W18
	BYTE		N06   
	BYTE	W06
	BYTE		N10   
	BYTE	W12
	BYTE		N04   
	BYTE	W06
	BYTE		N06     Fs2   v072
	BYTE	W18
	BYTE		N24     Fs2   v112
	BYTE	W24
	BYTE		N16   
	BYTE	W12
// 015   ----------------------------------------
	BYTE	W12
	BYTE		N16   
	BYTE	W24
	BYTE		N16   
	BYTE	W24
	BYTE		N16   
	BYTE	W24
	BYTE		N16   
	BYTE	W12
// 016   ----------------------------------------
	BYTE	W12
	BYTE		N16   
	BYTE	W24
	BYTE		N16   
	BYTE	W60
// 017   ----------------------------------------
	BYTE		N40     Fs2   v120
	BYTE	W96
// 018   ----------------------------------------
	BYTE	W24
	BYTE		N12   
	BYTE	W12
	BYTE		N28   
	BYTE	W12
	BYTE	GoTo
	 POIN2	MinibossPM_7_B1
MinibossPM_7_B2:
	BYTE	W40
	BYTE	FINE

//**************** Track 8 (Midi-Chn.8) ****************//

MinibossPM_8:
	BYTE	KEYSH   MinibossPM_key+0
// 000   ----------------------------------------
	BYTE		VOICE   127
	BYTE		VOL     102*MinibossPM_mvl/mxv
	BYTE		N18     Cs1   v096
	BYTE		N18     Dn1   v120
	BYTE		N48     Cs2 
	BYTE	W18
	BYTE		N06     Cs1   v096
	BYTE		N06     Dn1   v120
	BYTE	W06
	BYTE		N12     Cs1   v096
	BYTE		N12     Dn1   v120
	BYTE	W12
	BYTE		        Cs1   v096
	BYTE		N12     Dn1   v120
	BYTE	W12
MinibossPM_8_B1:
	BYTE	W12
	BYTE		N24     Fs1   v096
	BYTE	W24
	BYTE		N16   
	BYTE	W12
// 001   ----------------------------------------
MinibossPM_8_001:
	BYTE	W12
	BYTE		N16     Fs1   v096
	BYTE	W24
	BYTE		N16   
	BYTE	W24
	BYTE		N16   
	BYTE	W24
	BYTE		N16   
	BYTE	W12
	BYTE	PEND
// 002   ----------------------------------------
	BYTE	PATT
	 POIN2	MinibossPM_8_001
// 003   ----------------------------------------
	BYTE	PATT
	 POIN2	MinibossPM_8_001
// 004   ----------------------------------------
	BYTE	PATT
	 POIN2	MinibossPM_8_001
// 005   ----------------------------------------
	BYTE	PATT
	 POIN2	MinibossPM_8_001
// 006   ----------------------------------------
	BYTE	W12
	BYTE		N16     Fs1   v096
	BYTE	W24
	BYTE		N12   
	BYTE	W60
// 007   ----------------------------------------
	BYTE	PATT
	 POIN2	MinibossPM_8_001
// 008   ----------------------------------------
	BYTE	PATT
	 POIN2	MinibossPM_8_001
// 009   ----------------------------------------
	BYTE	PATT
	 POIN2	MinibossPM_8_001
// 010   ----------------------------------------
	BYTE	W12
	BYTE		N16     Fs1   v096
	BYTE	W24
	BYTE		N16   
	BYTE	W24
	BYTE		N16   
	BYTE	W24
	BYTE		N04   
	BYTE	W12
// 011   ----------------------------------------
	BYTE	W12
	BYTE		PAN     c_v-20
	BYTE		N48     Cs2   v120
	BYTE	W84
// 012   ----------------------------------------
	BYTE	W13
	BYTE		N48   
	BYTE	W80
	BYTE	W03
// 013   ----------------------------------------
	BYTE	W14
	BYTE		N48   
	BYTE	W80
	BYTE	W02
// 014   ----------------------------------------
	BYTE	W12
	BYTE		N36   
	BYTE	W60
	BYTE	W02
	BYTE		N40     Fs1 
	BYTE	W22
// 015   ----------------------------------------
	BYTE	W24
	BYTE	W02
	BYTE		N40   
	BYTE	W48
	BYTE		N40   
	BYTE	W22
// 016   ----------------------------------------
	BYTE	W24
	BYTE	W02
	BYTE		N06   
	BYTE	W06
	BYTE		N18   
	BYTE	W18
	BYTE		N16   
	BYTE	W24
	BYTE		N16   
	BYTE	W22
// 017   ----------------------------------------
	BYTE	W96
// 018   ----------------------------------------
	BYTE	W48
	BYTE	GoTo
	 POIN2	MinibossPM_8_B1
MinibossPM_8_B2:
	BYTE	W40
	BYTE	FINE

//**************** Track 9 (Midi-Chn.11) ****************//

MinibossPM_9:
	BYTE	KEYSH   MinibossPM_key+0
// 000   ----------------------------------------
	BYTE		VOICE   11
	BYTE		VOL     110*MinibossPM_mvl/mxv
	BYTE	W48
MinibossPM_9_B1:
	BYTE	W48
// 001   ----------------------------------------
	BYTE	W96
// 002   ----------------------------------------
	BYTE	W72
	BYTE		N04     Dn4   v092
	BYTE	W01
	BYTE		        Fn4   v088
	BYTE	W17
	BYTE		N02     Dn4   v080
	BYTE		N03     Fn4   v084
	BYTE	W05
	BYTE		        Cn4 
	BYTE		N04     En4   v088
	BYTE	W01
// 003   ----------------------------------------
	BYTE	W24
	BYTE		N05     An3   v080
	BYTE		N05     Cn4   v092
	BYTE	W17
	BYTE		N01     An3   v056
	BYTE		N02     Cn4   v072
	BYTE	W06
	BYTE		N05     Gn3   v084
	BYTE		N03     As3 
	BYTE	W24
	BYTE	W02
	BYTE		N04     Fn3   v080
	BYTE		N04     An3   v092
	BYTE	W16
	BYTE		N03     Fn3   v088
	BYTE		N03     An3   v100
	BYTE	W07
// 004   ----------------------------------------
	BYTE		N05     En3   v084
	BYTE	W01
	BYTE		N03     Gn3 
	BYTE	W92
	BYTE	W03
// 005   ----------------------------------------
	BYTE	W96
// 006   ----------------------------------------
	BYTE		N12     Gn2   v096
	BYTE	W06
	BYTE		        An2   v080
	BYTE	W06
	BYTE		        As2   v076
	BYTE	W06
	BYTE		        Cn3   v088
	BYTE	W06
	BYTE		        Dn3   v084
	BYTE	W06
	BYTE		        Ds3   v068
	BYTE	W06
	BYTE		N06     Fn3   v092
	BYTE	W06
	BYTE		        Fs3   v088
	BYTE	W06
	BYTE		N04     En3   v096
	BYTE		N03     Gn3   v100
	BYTE	W24
	BYTE		        Dn3   v104
	BYTE		N03     Fn3   v100
	BYTE	W18
	BYTE		N21     Cn3   v096
	BYTE		N22     En3   v108
	BYTE	W06
// 007   ----------------------------------------
	BYTE	W48
	BYTE		N03     En3   v092
	BYTE		N04     Gn3   v100
	BYTE	W24
	BYTE		N03     Dn3   v108
	BYTE		N03     Fn3   v100
	BYTE	W18
	BYTE		N30     Cn3   v096
	BYTE		N30     En3   v108
	BYTE	W06
// 008   ----------------------------------------
	BYTE	W48
	BYTE		N03     En3   v112
	BYTE		N04     Gn3   v104
	BYTE	W24
	BYTE		N02     Dn3   v100
	BYTE		N03     Fn3   v104
	BYTE	W18
	BYTE		N28     Cn3   v100
	BYTE		N28     En3   v108
	BYTE	W06
// 009   ----------------------------------------
	BYTE	W36
	BYTE		N03     Dn3   v100
	BYTE		N03     Fn3   v092
	BYTE	W12
	BYTE		        En3   v116
	BYTE		N05     Gn3   v104
	BYTE	W24
	BYTE		N02     Dn3   v116
	BYTE		N03     Fn3   v108
	BYTE	W18
	BYTE		N30     Cn3   v104
	BYTE		N32     En3   v116
	BYTE	W06
// 010   ----------------------------------------
	BYTE	W60
	BYTE		N04     En3   v108
	BYTE		N03     Gn3 
	BYTE	W24
	BYTE		        En3   v104
	BYTE		N03     Gn3   v108
	BYTE	W12
// 011   ----------------------------------------
	BYTE	W12
	BYTE		        En3   v096
	BYTE		N03     Gn3   v116
	BYTE	W24
	BYTE		        En3   v092
	BYTE		N03     Gn3   v104
	BYTE	W24
	BYTE		        En3   v092
	BYTE		N03     As3   v100
	BYTE	W24
	BYTE		        En3   v104
	BYTE		N03     As3   v108
	BYTE	W12
// 012   ----------------------------------------
	BYTE	W12
	BYTE		        En3   v100
	BYTE		N03     As3   v096
	BYTE	W24
	BYTE		N01     En3   v052
	BYTE		N04     As3   v104
	BYTE	W24
	BYTE		N02     En3   v084
	BYTE		N03     Gn3   v108
	BYTE	W24
	BYTE		        En3   v112
	BYTE		N03     Gn3   v108
	BYTE	W12
// 013   ----------------------------------------
	BYTE	W12
	BYTE		        En3   v104
	BYTE		N04     Gn3   v116
	BYTE	W24
	BYTE		N03     En3   v108
	BYTE		N03     Gn3 
	BYTE	W24
	BYTE		        En3   v112
	BYTE		N03     As3   v100
	BYTE	W24
	BYTE		N02     En3   v116
	BYTE		N02     As3   v108
	BYTE	W12
// 014   ----------------------------------------
	BYTE	W12
	BYTE		N03     En3   v112
	BYTE		N03     As3   v120
	BYTE	W24
	BYTE		        En3 
	BYTE		N04     As3   v116
	BYTE	W60
// 015   ----------------------------------------
	BYTE	W96
// 016   ----------------------------------------
	BYTE	W96
// 017   ----------------------------------------
	BYTE	W96
// 018   ----------------------------------------
	BYTE	W48
	BYTE	GoTo
	 POIN2	MinibossPM_9_B1
MinibossPM_9_B2:
	BYTE	W40
	BYTE	FINE

//**************** Track 10 (Midi-Chn.12) ****************//

MinibossPM_10:
	BYTE	KEYSH   MinibossPM_key+0
// 000   ----------------------------------------
	BYTE		VOICE   71
	BYTE		VOL     127*MinibossPM_mvl/mxv
	BYTE	W48
MinibossPM_10_B1:
	BYTE	W48
// 001   ----------------------------------------
	BYTE	W96
// 002   ----------------------------------------
	BYTE	W96
// 003   ----------------------------------------
	BYTE	W96
// 004   ----------------------------------------
	BYTE	W96
// 005   ----------------------------------------
	BYTE	W96
// 006   ----------------------------------------
	BYTE	W96
// 007   ----------------------------------------
	BYTE	W96
// 008   ----------------------------------------
	BYTE	W96
// 009   ----------------------------------------
	BYTE	W96
// 010   ----------------------------------------
	BYTE	W36
	BYTE		N05     Gn3   v092
	BYTE	W06
	BYTE		N06     An3   v068
	BYTE	W06
	BYTE		N04     Gn3   v096
	BYTE	W06
	BYTE		N06     An3   v088
	BYTE	W06
	BYTE		        Gn3   v084
	BYTE	W06
	BYTE		        An3   v096
	BYTE	W06
	BYTE		N05     Gn3   v092
	BYTE	W06
	BYTE		N06     An3   v100
	BYTE	W06
	BYTE		        Gn3   v088
	BYTE	W06
	BYTE		        An3   v100
	BYTE	W06
// 011   ----------------------------------------
	BYTE		N03     Gn3   v096
	BYTE	W12
	BYTE		N07     Dn4 
	BYTE	W36
	BYTE		N05     En4 
	BYTE	W06
	BYTE		N06     Fn4   v092
	BYTE	W06
	BYTE		N05     En4   v080
	BYTE	W06
	BYTE		N06     Fn4   v088
	BYTE	W06
	BYTE		N05     En4   v080
	BYTE	W06
	BYTE		        Fn4   v088
	BYTE	W06
	BYTE		N06     En4 
	BYTE	W06
	BYTE		N07     Fn4 
	BYTE	W06
// 012   ----------------------------------------
	BYTE		N05     En4   v092
	BYTE	W12
	BYTE		N10     Cn4 
	BYTE	W36
	BYTE		N03     Gn3   v096
	BYTE	W06
	BYTE		N04     An3 
	BYTE	W06
	BYTE		N05     Gn3   v080
	BYTE	W06
	BYTE		        An3   v096
	BYTE	W06
	BYTE		        Gn3   v084
	BYTE	W06
	BYTE		        An3   v088
	BYTE	W06
	BYTE		N06     Gn3   v080
	BYTE	W06
	BYTE		        An3   v096
	BYTE	W06
// 013   ----------------------------------------
	BYTE		N03     Gn3   v100
	BYTE	W12
	BYTE		N07     Dn4   v096
	BYTE	W36
	BYTE		N05     Dn4   v100
	BYTE	W06
	BYTE		        En4   v092
	BYTE	W06
	BYTE		        Dn4   v088
	BYTE	W06
	BYTE		        En4 
	BYTE	W06
	BYTE		N06     Dn4 
	BYTE	W06
	BYTE		N05     En4   v080
	BYTE	W06
	BYTE		        Dn4   v088
	BYTE	W06
	BYTE		N06     En4   v092
	BYTE	W06
// 014   ----------------------------------------
	BYTE		N05     Dn4 
	BYTE	W12
	BYTE		N10     Cn5 
	BYTE	W36
	BYTE	W02
	BYTE		N05     Bn4 
	BYTE	W24
	BYTE		        An4   v088
	BYTE	W18
	BYTE		N04     Gn4   v092
	BYTE	W04
// 015   ----------------------------------------
	BYTE	W08
	BYTE		        Gn4   v088
	BYTE	W12
	BYTE		N05   
	BYTE	W06
	BYTE		N04     Fn4   v084
	BYTE	W12
	BYTE		        Dn4   v104
	BYTE	W12
	BYTE		        En4   v092
	BYTE	W12
	BYTE		N05     Gn3 
	BYTE	W06
	BYTE		N06     An3   v088
	BYTE	W06
	BYTE		N05     Gn3   v080
	BYTE	W06
	BYTE		N06     An3   v084
	BYTE	W06
	BYTE		N05     Gn3   v080
	BYTE	W06
	BYTE		N06     An3 
	BYTE	W04
// 016   ----------------------------------------
	BYTE	W02
	BYTE		N03     Gn3   v084
	BYTE	W12
	BYTE		N04     Gn2   v092
	BYTE	W36
	BYTE		N06     Dn4   v096
	BYTE		N04     Bn4   v092
	BYTE	W23
	BYTE		N06     Cn4   v096
	BYTE	W01
	BYTE		N04     An4   v088
	BYTE	W18
	BYTE		        Bn3   v096
	BYTE		N05     Gn4   v088
	BYTE	W04
// 017   ----------------------------------------
	BYTE	W08
	BYTE		N04     Gn4   v084
	BYTE	W01
	BYTE		        Bn3   v092
	BYTE	W11
	BYTE		N05   
	BYTE		N08     Gn4   v060
	BYTE	W05
	BYTE		N07     An3   v076
	BYTE	W01
	BYTE		N06     Fn4   v064
	BYTE	W11
	BYTE		N05     Gn3   v080
	BYTE	W01
	BYTE		N04     Dn4 
	BYTE	W11
	BYTE		        An3   v096
	BYTE	W01
	BYTE		N03     En4   v112
	BYTE	W11
	BYTE		N42     Bn2   v104
	BYTE	W01
	BYTE		N04     Gn3   v100
	BYTE	W06
	BYTE		N06     An3   v080
	BYTE	W06
	BYTE		N05     Gn3   v076
	BYTE	W06
	BYTE		        An3   v080
	BYTE	W06
	BYTE		        Gn3   v072
	BYTE	W06
	BYTE		N06     An3   v080
	BYTE	W04
// 018   ----------------------------------------
	BYTE	W02
	BYTE		N03     Gn3   v076
	BYTE	W12
	BYTE		N05     Cn2   v104
	BYTE		N03     Gn2 
	BYTE	W32
	BYTE	W02
	BYTE	GoTo
	 POIN2	MinibossPM_10_B1
MinibossPM_10_B2:
	BYTE	W40
	BYTE	FINE

//**************** Track 11 (Midi-Chn.13) ****************//

MinibossPM_11:
	BYTE		VOL     127*MinibossPM_mvl/mxv
	BYTE	KEYSH   MinibossPM_key+0
// 000   ----------------------------------------
	BYTE		VOICE   60
	BYTE	W48
MinibossPM_11_B1:
	BYTE	W48
// 001   ----------------------------------------
	BYTE	W96
// 002   ----------------------------------------
	BYTE	W96
// 003   ----------------------------------------
	BYTE	W96
// 004   ----------------------------------------
	BYTE	W96
// 005   ----------------------------------------
	BYTE	W96
// 006   ----------------------------------------
	BYTE	W96
// 007   ----------------------------------------
	BYTE	W96
// 008   ----------------------------------------
	BYTE	W96
// 009   ----------------------------------------
	BYTE	W96
// 010   ----------------------------------------
	BYTE	W96
// 011   ----------------------------------------
	BYTE	W96
// 012   ----------------------------------------
	BYTE	W96
// 013   ----------------------------------------
	BYTE	W96
// 014   ----------------------------------------
	BYTE	W96
// 015   ----------------------------------------
	BYTE	W96
// 016   ----------------------------------------
	BYTE	W96
// 017   ----------------------------------------
	BYTE	W48
	BYTE	W02
	BYTE		N10     Gn3   v096
	BYTE		N10     Bn3   v100
	BYTE	W17
	BYTE		        Fn3   v092
	BYTE		N10     An3 
	BYTE	W18
	BYTE		        En3   v096
	BYTE		N10     Gn3   v088
	BYTE	W11
// 018   ----------------------------------------
	BYTE	W06
	BYTE		        Dn3   v104
	BYTE		N10     Fn3   v092
	BYTE	W17
	BYTE		        Cn3   v100
	BYTE		N10     En3   v104
	BYTE	W15
	BYTE		        Bn2 
	BYTE		N10     Dn3   v108
	BYTE	W10
	BYTE	GoTo
	 POIN2	MinibossPM_11_B1
MinibossPM_11_B2:
	BYTE	W40
	BYTE	FINE

//******************************************************//
	ALIGN 4

MinibossPM:
	BYTE	11	// NumTrks
	BYTE	0	// NumBlks
	BYTE	MinibossPM_pri	// Priority
	BYTE	MinibossPM_rev	// Reverb.

	POIN2	MinibossPM_grp

	POIN2	MinibossPM_1
	POIN2	MinibossPM_2
	POIN2	MinibossPM_3
	POIN2	MinibossPM_4
	POIN2	MinibossPM_5
	POIN2	MinibossPM_6
	POIN2	MinibossPM_7
	POIN2	MinibossPM_8
	POIN2	MinibossPM_9
	POIN2	MinibossPM_10
	POIN2	MinibossPM_11

	
