//Event file generated from Sappy .s format.
	#include "MPlayDef.event"

	#define	MrBear_grp  voicegroup000
	#define	MrBear_pri  0
	#define	MrBear_rev  0
	#define	MrBear_mvl  40
	#define	MrBear_key  0
	#define	MrBear_tbs  1
	#define	MrBear_exg  0
	#define	MrBear_cmp  1

	// .rodata
	//	MrBear
	ALIGN 4

//**************** Track 1 (Midi-Chn.1) ****************//

MrBear_1:
	BYTE	KEYSH   MrBear_key+0
// 000   ----------------------------------------
	BYTE	TEMPO   128*MrBear_tbs/2
	BYTE		VOICE   6
	BYTE		VOL     102*MrBear_mvl/mxv
	BYTE	W96
// 001   ----------------------------------------
	BYTE	W96
// 002   ----------------------------------------
	BYTE	W96
// 003   ----------------------------------------
	BYTE	W96
MrBear_1_B1:
// 004   ----------------------------------------
	BYTE	W96
// 005   ----------------------------------------
	BYTE	W96
// 006   ----------------------------------------
	BYTE	W96
// 007   ----------------------------------------
	BYTE	W96
// 008   ----------------------------------------
	BYTE	W96
// 009   ----------------------------------------
	BYTE	W96
// 010   ----------------------------------------
	BYTE	W96
// 011   ----------------------------------------
	BYTE	W42
	BYTE		N06     Dn2   v064
	BYTE	W06
	BYTE		        Gn2 
	BYTE	W06
	BYTE		        An2 
	BYTE	W06
	BYTE		        Dn3 
	BYTE	W06
	BYTE		        Ds3 
	BYTE	W06
	BYTE		        Dn3   v100
	BYTE	W06
	BYTE		        Cn3 
	BYTE	W06
	BYTE		        As2 
	BYTE	W06
	BYTE		        An2 
	BYTE	W06
// 012   ----------------------------------------
	BYTE		N12     Gn2 
	BYTE	W12
	BYTE		N06     Gn3 
	BYTE		N06     As3 
	BYTE	W12
	BYTE		N12     Dn3 
	BYTE	W12
	BYTE		N06     Cn3 
	BYTE		N06     An3 
	BYTE	W12
	BYTE		N12     Fs3 
	BYTE	W12
	BYTE		N06     An3 
	BYTE		N06     Cn4 
	BYTE	W12
	BYTE		N12     Gn3 
	BYTE	W12
	BYTE		N06     Fn3 
	BYTE		N06     An3   v064
	BYTE		N06     Bn3   v100
	BYTE	W12
// 013   ----------------------------------------
	BYTE		N12     Ds3 
	BYTE	W12
	BYTE		N06     Cn3 
	BYTE	W12
	BYTE		N12     Dn3 
	BYTE	W12
	BYTE		N06     Gn3 
	BYTE		N06     As3 
	BYTE	W12
	BYTE		N12     Dn3 
	BYTE	W12
	BYTE		N06     Fs3 
	BYTE		N06     Cn4 
	BYTE	W24
	BYTE		N12     Cn3 
	BYTE	W12
// 014   ----------------------------------------
	BYTE		N24     As2 
	BYTE	W24
	BYTE		        Cn3 
	BYTE	W24
	BYTE		        Cs3 
	BYTE	W24
	BYTE		        Dn3 
	BYTE	W24
// 015   ----------------------------------------
	BYTE		N12     Gn3 
	BYTE	W12
	BYTE		        An3 
	BYTE	W12
	BYTE		        Fs3 
	BYTE	W12
	BYTE		        Dn3 
	BYTE	W12
	BYTE		N06     Gn3 
	BYTE		N06     As3 
	BYTE	W06
	BYTE		        An3 
	BYTE		N06     Cn4 
	BYTE	W06
	BYTE		        Gn3 
	BYTE		N06     As3 
	BYTE	W06
	BYTE		        An3 
	BYTE		N06     Dn4 
	BYTE	W06
	BYTE		        Fs3 
	BYTE		N06     An3 
	BYTE	W06
	BYTE		        En3 
	BYTE		N06     Gn3 
	BYTE	W06
	BYTE		        Ds3 
	BYTE		N06     Fs3 
	BYTE	W06
	BYTE		N06   
	BYTE		N06     An3 
	BYTE	W06
// 016   ----------------------------------------
	BYTE		        Dn3 
	BYTE	W06
	BYTE		        Ds3 
	BYTE	W06
	BYTE		        Dn3 
	BYTE	W06
	BYTE		        As3 
	BYTE	W06
	BYTE		        An3 
	BYTE	W06
	BYTE		        Gn3 
	BYTE	W06
	BYTE		        Fs3 
	BYTE	W06
	BYTE		        Gn3 
	BYTE	W06
	BYTE		        An3 
	BYTE	W06
	BYTE		        Cn4 
	BYTE	W06
	BYTE		        As3 
	BYTE	W06
	BYTE		        An3 
	BYTE	W06
	BYTE		        Bn3 
	BYTE	W06
	BYTE		        Gn3 
	BYTE	W06
	BYTE		        Fn3 
	BYTE	W06
	BYTE		        Gn3 
	BYTE	W06
// 017   ----------------------------------------
	BYTE		        Cn4 
	BYTE	W06
	BYTE		        Gn3 
	BYTE	W06
	BYTE		        Ds3 
	BYTE	W06
	BYTE		        Cn4 
	BYTE	W06
	BYTE		        As3 
	BYTE	W06
	BYTE		        Cn4 
	BYTE	W06
	BYTE		        Dn4 
	BYTE	W06
	BYTE		        Gn3 
	BYTE	W06
	BYTE		N12     An3 
	BYTE	W12
	BYTE		N06     As3 
	BYTE	W06
	BYTE		N03     An3 
	BYTE	W03
	BYTE		        As3 
	BYTE	W03
	BYTE		N06     An3 
	BYTE	W06
	BYTE		        Cn4 
	BYTE	W06
	BYTE		        As3 
	BYTE	W06
	BYTE		        An3 
	BYTE	W06
// 018   ----------------------------------------
	BYTE		        Gn3 
	BYTE	W06
	BYTE		        Dn4 
	BYTE	W06
	BYTE		N06   
	BYTE	W06
	BYTE		        Dn3 
	BYTE	W06
	BYTE		        Gn3 
	BYTE	W06
	BYTE		        Dn4 
	BYTE	W06
	BYTE		N06   
	BYTE	W06
	BYTE		        Ds3 
	BYTE	W06
	BYTE		        Gn3 
	BYTE	W06
	BYTE		        En4 
	BYTE	W06
	BYTE		N06   
	BYTE	W06
	BYTE		        En3 
	BYTE	W06
	BYTE		        Fs3 
	BYTE	W06
	BYTE		        Fs4 
	BYTE	W06
	BYTE		N06   
	BYTE	W06
	BYTE		        Cn4 
	BYTE	W06
// 019   ----------------------------------------
	BYTE		        Gn4 
	BYTE	W06
	BYTE		N06   
	BYTE	W06
	BYTE		        As4 
	BYTE	W06
	BYTE		        Dn5 
	BYTE	W06
	BYTE		        Fs5 
	BYTE	W06
	BYTE		        Dn5 
	BYTE	W06
	BYTE		        As4 
	BYTE	W06
	BYTE		        An4 
	BYTE	W06
	BYTE		        Gn4 
	BYTE	W06
	BYTE		        An4 
	BYTE	W06
	BYTE		        Bn4 
	BYTE	W06
	BYTE		        Gn4 
	BYTE	W06
	BYTE		        An4 
	BYTE	W06
	BYTE		        Bn4 
	BYTE	W06
	BYTE		        Cn5 
	BYTE	W06
	BYTE		        Dn5 
	BYTE	W06
// 020   ----------------------------------------
	BYTE		        Gn5   v064
	BYTE	W06
	BYTE		        Ds5 
	BYTE	W06
	BYTE		        Cn5 
	BYTE	W06
	BYTE		        Ds5 
	BYTE	W06
	BYTE		        Gn5 
	BYTE	W06
	BYTE		        Ds5 
	BYTE	W06
	BYTE		        Cn5 
	BYTE	W06
	BYTE		        Ds5 
	BYTE	W06
	BYTE		        Gn5 
	BYTE	W06
	BYTE		        Ds5 
	BYTE	W06
	BYTE		        Bn4 
	BYTE	W06
	BYTE		        Ds5 
	BYTE	W06
	BYTE		        Gn5 
	BYTE	W06
	BYTE		        Ds5 
	BYTE	W06
	BYTE		        Bn4 
	BYTE	W06
	BYTE		        Ds5 
	BYTE	W06
// 021   ----------------------------------------
	BYTE		        Gn5 
	BYTE	W06
	BYTE		        Ds5 
	BYTE	W06
	BYTE		        As4 
	BYTE	W06
	BYTE		        Ds5 
	BYTE	W06
	BYTE		        Gn5 
	BYTE	W06
	BYTE		        Ds5 
	BYTE	W06
	BYTE		        As4 
	BYTE	W06
	BYTE		        Ds5 
	BYTE	W06
	BYTE		        Gn5 
	BYTE	W06
	BYTE		        Ds5 
	BYTE	W06
	BYTE		        An4 
	BYTE	W06
	BYTE		        Ds5 
	BYTE	W06
	BYTE		        Gn5 
	BYTE	W06
	BYTE		        Ds5 
	BYTE	W06
	BYTE		        An4 
	BYTE	W06
	BYTE		        Ds5 
	BYTE	W06
// 022   ----------------------------------------
	BYTE		        Cn5 
	BYTE	W06
	BYTE		        Gn4 
	BYTE	W06
	BYTE		        Ds5 
	BYTE	W06
	BYTE		        Gn4 
	BYTE	W06
	BYTE		        Cn5 
	BYTE	W06
	BYTE		        Gn4 
	BYTE	W06
	BYTE		        Ds5 
	BYTE	W06
	BYTE		        Gn4 
	BYTE	W06
	BYTE		        Bn4 
	BYTE	W06
	BYTE		        Gn4 
	BYTE	W06
	BYTE		        Ds5 
	BYTE	W06
	BYTE		        Gn4 
	BYTE	W06
	BYTE		        Bn4 
	BYTE	W06
	BYTE		        Gn4 
	BYTE	W06
	BYTE		        Ds5 
	BYTE	W06
	BYTE		        Gn4 
	BYTE	W06
// 023   ----------------------------------------
	BYTE		        As4 
	BYTE	W06
	BYTE		        Gn4 
	BYTE	W06
	BYTE		        Ds5 
	BYTE	W06
	BYTE		        Gn4 
	BYTE	W06
	BYTE		        As4 
	BYTE	W06
	BYTE		        Gn4 
	BYTE	W06
	BYTE		        Ds5 
	BYTE	W06
	BYTE		        Gn4 
	BYTE	W06
	BYTE		        An4 
	BYTE	W06
	BYTE		        Gn4 
	BYTE	W06
	BYTE		        Ds5 
	BYTE	W06
	BYTE		        Gn4 
	BYTE	W06
	BYTE		        An4 
	BYTE	W06
	BYTE		        Gn4 
	BYTE	W06
	BYTE		        Ds5 
	BYTE	W06
	BYTE		        Gn4 
	BYTE	W06
// 024   ----------------------------------------
	BYTE		N03     Cn4   v044
	BYTE	W03
	BYTE		        Ds4 
	BYTE	W03
	BYTE		        Gn4 
	BYTE	W03
	BYTE		        As4 
	BYTE	W03
	BYTE		        Ds5 
	BYTE	W03
	BYTE		        Fn5 
	BYTE	W03
	BYTE		        Gn5 
	BYTE	W03
	BYTE		        As5 
	BYTE	W03
	BYTE		        Cn6 
	BYTE	W03
	BYTE		        As5 
	BYTE	W03
	BYTE		        Gn5 
	BYTE	W03
	BYTE		        Fn5 
	BYTE	W03
	BYTE		        Ds5 
	BYTE	W03
	BYTE		        As4 
	BYTE	W03
	BYTE		        Gn4 
	BYTE	W03
	BYTE		        Ds4 
	BYTE	W03
	BYTE		        Cn4 
	BYTE	W03
	BYTE		        Ds4 
	BYTE	W03
	BYTE		        Gn4 
	BYTE	W03
	BYTE		        As4 
	BYTE	W03
	BYTE		        Ds5 
	BYTE	W03
	BYTE		        Fn5 
	BYTE	W03
	BYTE		        Gn5 
	BYTE	W03
	BYTE		        As5 
	BYTE	W03
	BYTE		        Cn6 
	BYTE	W03
	BYTE		        As5 
	BYTE	W03
	BYTE		        Gn5 
	BYTE	W03
	BYTE		        Fn5 
	BYTE	W03
	BYTE		        Ds5 
	BYTE	W03
	BYTE		        As4 
	BYTE	W03
	BYTE		        Gn4 
	BYTE	W03
	BYTE		        Ds4 
	BYTE	W03
// 025   ----------------------------------------
	BYTE		        As3 
	BYTE	W03
	BYTE		        Cn4 
	BYTE	W03
	BYTE		        Ds4 
	BYTE	W03
	BYTE		        Gn4 
	BYTE	W03
	BYTE		        As4 
	BYTE	W03
	BYTE		        Ds5 
	BYTE	W03
	BYTE		        Fn5 
	BYTE	W03
	BYTE		        Gn5 
	BYTE	W03
	BYTE		        As5 
	BYTE	W03
	BYTE		        Gn5 
	BYTE	W03
	BYTE		        Fn5 
	BYTE	W03
	BYTE		        Ds5 
	BYTE	W03
	BYTE		        As4 
	BYTE	W03
	BYTE		        Gn4 
	BYTE	W03
	BYTE		        Ds4 
	BYTE	W03
	BYTE		        Cn4 
	BYTE	W03
	BYTE		        As3 
	BYTE	W03
	BYTE		        Cn4 
	BYTE	W03
	BYTE		        Ds4 
	BYTE	W03
	BYTE		        Gn4 
	BYTE	W03
	BYTE		        As4 
	BYTE	W03
	BYTE		        Ds5 
	BYTE	W03
	BYTE		        Fn5 
	BYTE	W03
	BYTE		        Gn5 
	BYTE	W03
	BYTE		        As5 
	BYTE	W03
	BYTE		        Gn5 
	BYTE	W03
	BYTE		        Fn5 
	BYTE	W03
	BYTE		        Ds5 
	BYTE	W03
	BYTE		        As4 
	BYTE	W03
	BYTE		        Gn4 
	BYTE	W03
	BYTE		        Ds4 
	BYTE	W03
	BYTE		        Cn4 
	BYTE	W03
// 026   ----------------------------------------
	BYTE		        As3 
	BYTE	W03
	BYTE		        Cs4 
	BYTE	W03
	BYTE		        Fn4 
	BYTE	W03
	BYTE		        Gs4 
	BYTE	W03
	BYTE		        Cs5 
	BYTE	W03
	BYTE		        Ds5 
	BYTE	W03
	BYTE		        Fn5 
	BYTE	W03
	BYTE		        Gs5 
	BYTE	W03
	BYTE		        As5 
	BYTE	W03
	BYTE		        Gs5 
	BYTE	W03
	BYTE		        Fn5 
	BYTE	W03
	BYTE		        Ds5 
	BYTE	W03
	BYTE		        Cs5 
	BYTE	W03
	BYTE		        Gs4 
	BYTE	W03
	BYTE		        Fn4 
	BYTE	W03
	BYTE		        Cs4 
	BYTE	W03
	BYTE		        As3 
	BYTE	W03
	BYTE		        Cs4 
	BYTE	W03
	BYTE		        Fn4 
	BYTE	W03
	BYTE		        Gs4 
	BYTE	W03
	BYTE		        Cs5 
	BYTE	W03
	BYTE		        Ds5 
	BYTE	W03
	BYTE		        Fn5 
	BYTE	W03
	BYTE		        Gs5 
	BYTE	W03
	BYTE		        As5 
	BYTE	W03
	BYTE		        Gs5 
	BYTE	W03
	BYTE		        Fn5 
	BYTE	W03
	BYTE		        Ds5 
	BYTE	W03
	BYTE		        Cs5 
	BYTE	W03
	BYTE		        Gs4 
	BYTE	W03
	BYTE		        Fn4 
	BYTE	W03
	BYTE		        Cs4 
	BYTE	W03
// 027   ----------------------------------------
	BYTE		        An3 
	BYTE	W03
	BYTE		        Cn4 
	BYTE	W03
	BYTE		        En4 
	BYTE	W03
	BYTE		        Gn4 
	BYTE	W03
	BYTE		        Cn5 
	BYTE	W03
	BYTE		        Dn5 
	BYTE	W03
	BYTE		        En5 
	BYTE	W03
	BYTE		        Gn5 
	BYTE	W03
	BYTE		        An5 
	BYTE	W03
	BYTE		        Gn5 
	BYTE	W03
	BYTE		        En5 
	BYTE	W03
	BYTE		        Dn5 
	BYTE	W03
	BYTE		        Cn5 
	BYTE	W03
	BYTE		        Gn4 
	BYTE	W03
	BYTE		        En4 
	BYTE	W03
	BYTE		        Cn4 
	BYTE	W03
	BYTE		        An3 
	BYTE	W03
	BYTE		        Cn4 
	BYTE	W03
	BYTE		        En4 
	BYTE	W03
	BYTE		        Gn4 
	BYTE	W03
	BYTE		        Cn5 
	BYTE	W03
	BYTE		        Dn5 
	BYTE	W03
	BYTE		        En5 
	BYTE	W03
	BYTE		        Gn5 
	BYTE	W03
	BYTE		        An5 
	BYTE	W03
	BYTE		        Gn5 
	BYTE	W03
	BYTE		        En5 
	BYTE	W03
	BYTE		        Dn5 
	BYTE	W03
	BYTE		        Cn5 
	BYTE	W03
	BYTE		        Gn4 
	BYTE	W03
	BYTE		        En4 
	BYTE	W03
	BYTE		        Cn4 
	BYTE	W03
// 028   ----------------------------------------
	BYTE		        Gs5 
	BYTE	W03
	BYTE		        Ds5 
	BYTE	W03
	BYTE		        Cn5 
	BYTE	W03
	BYTE		        Gs4 
	BYTE	W03
	BYTE		        Ds4 
	BYTE	W03
	BYTE		        Cn4 
	BYTE	W03
	BYTE		        Gs3   v032
	BYTE	W03
	BYTE		N09     Ds3 
	BYTE	W24
	BYTE	W03
	BYTE		N03     Gs5 
	BYTE	W03
	BYTE		        Ds5 
	BYTE	W03
	BYTE		        Cn5 
	BYTE	W03
	BYTE		        Gs4 
	BYTE	W03
	BYTE		        Ds4 
	BYTE	W03
	BYTE		        Cn4 
	BYTE	W03
	BYTE		        Gs3 
	BYTE	W03
	BYTE		N09     Ds3 
	BYTE	W24
	BYTE	W03
// 029   ----------------------------------------
	BYTE		N03     Gs5   v020
	BYTE	W03
	BYTE		        Ds5 
	BYTE	W03
	BYTE		        Cn5 
	BYTE	W03
	BYTE		        Gs4 
	BYTE	W03
	BYTE		        Ds4 
	BYTE	W03
	BYTE		        Cn4 
	BYTE	W03
	BYTE		        Gs3 
	BYTE	W03
	BYTE		N09     Ds3 
	BYTE	W72
	BYTE	W03
// 030   ----------------------------------------
	BYTE	W96
// 031   ----------------------------------------
	BYTE	W96
	BYTE	GoTo
	 POIN2	MrBear_1_B1
MrBear_1_B2:
// 032   ----------------------------------------
	BYTE	W96
// 033   ----------------------------------------
	BYTE	W78
	BYTE	W01
	BYTE	FINE

//**************** Track 2 (Midi-Chn.2) ****************//

MrBear_2:
	BYTE	KEYSH   MrBear_key+0
// 000   ----------------------------------------
	BYTE		VOICE   48
	BYTE		VOL     76*MrBear_mvl/mxv
	BYTE		PAN     c_v-38
	BYTE	W96
// 001   ----------------------------------------
	BYTE	W96
// 002   ----------------------------------------
	BYTE	W96
// 003   ----------------------------------------
	BYTE	W96
MrBear_2_B1:
// 004   ----------------------------------------
	BYTE	W96
// 005   ----------------------------------------
	BYTE	W96
// 006   ----------------------------------------
	BYTE	W96
// 007   ----------------------------------------
	BYTE	W96
// 008   ----------------------------------------
	BYTE	W96
// 009   ----------------------------------------
	BYTE	W96
// 010   ----------------------------------------
	BYTE	W96
// 011   ----------------------------------------
	BYTE	W96
// 012   ----------------------------------------
	BYTE		N06     Dn3   v100
	BYTE		N06     Dn4 
	BYTE	W06
	BYTE		        Ds3 
	BYTE		N06     Ds4 
	BYTE	W06
	BYTE		        Dn3 
	BYTE		N06     Dn4 
	BYTE	W06
	BYTE		        As3 
	BYTE		N06     As4 
	BYTE	W06
	BYTE		        An3 
	BYTE		N06     An4 
	BYTE	W06
	BYTE		        Gn3 
	BYTE		N06     Gn4 
	BYTE	W06
	BYTE		        Fs3 
	BYTE		N06     Fs4 
	BYTE	W06
	BYTE		        Gn3 
	BYTE		N06     Gn4 
	BYTE	W06
	BYTE		        An3 
	BYTE		N06     An4 
	BYTE	W06
	BYTE		        Cn4 
	BYTE		N06     Cn5 
	BYTE	W06
	BYTE		        As3 
	BYTE		N06     As4 
	BYTE	W06
	BYTE		        An3 
	BYTE		N06     An4 
	BYTE	W06
	BYTE		        Bn3 
	BYTE		N06     Bn4 
	BYTE	W06
	BYTE		        Gn3 
	BYTE		N06     Gn4 
	BYTE	W06
	BYTE		        Fn3 
	BYTE		N06     Fn4 
	BYTE	W06
	BYTE		        Gn3 
	BYTE		N06     Gn4 
	BYTE	W06
// 013   ----------------------------------------
	BYTE		        Cn4 
	BYTE		N06     Cn5 
	BYTE	W06
	BYTE		        Gn3 
	BYTE		N06     Gn4 
	BYTE	W06
	BYTE		        Ds3 
	BYTE		N06     Ds4 
	BYTE	W06
	BYTE		        Cn4 
	BYTE		N06     Cn5 
	BYTE	W06
	BYTE		        As3 
	BYTE		N06     As4 
	BYTE	W06
	BYTE		        Cn4 
	BYTE		N06     Cn5 
	BYTE	W06
	BYTE		        Dn4 
	BYTE		N06     Dn5 
	BYTE	W06
	BYTE		        Gn3 
	BYTE		N06     Gn4 
	BYTE	W06
	BYTE		N12     An3 
	BYTE		N12     An4 
	BYTE	W12
	BYTE		N06     As3 
	BYTE		N06     As4 
	BYTE	W06
	BYTE		N03     An3 
	BYTE		N03     An4 
	BYTE	W03
	BYTE		        As3 
	BYTE		N03     As4 
	BYTE	W03
	BYTE		N06     An3 
	BYTE		N06     An4 
	BYTE	W06
	BYTE		        Cn4 
	BYTE		N06     Cn5 
	BYTE	W06
	BYTE		        As3 
	BYTE		N06     As4 
	BYTE	W06
	BYTE		        An3 
	BYTE		N06     An4 
	BYTE	W06
// 014   ----------------------------------------
	BYTE		        Gn3 
	BYTE		N06     Gn4 
	BYTE	W06
	BYTE		        Dn4 
	BYTE		N06     Dn5 
	BYTE	W06
	BYTE		        Dn4 
	BYTE		N06     Dn5 
	BYTE	W06
	BYTE		        Dn3 
	BYTE		N06     Dn4 
	BYTE	W06
	BYTE		        Gn3 
	BYTE		N06     Gn4 
	BYTE	W06
	BYTE		        Dn4 
	BYTE		N06     Dn5 
	BYTE	W06
	BYTE		        Dn4 
	BYTE		N06     Dn5 
	BYTE	W06
	BYTE		        Ds3 
	BYTE		N06     Ds4 
	BYTE	W06
	BYTE		        Gn3 
	BYTE		N06     Gn4 
	BYTE	W06
	BYTE		        En4 
	BYTE		N06     En5 
	BYTE	W06
	BYTE		        En4 
	BYTE		N06     En5 
	BYTE	W06
	BYTE		        En3 
	BYTE		N06     En4 
	BYTE	W06
	BYTE		        Fs3 
	BYTE		N06     Fs4 
	BYTE	W06
	BYTE		N06   
	BYTE		N06     Fs5 
	BYTE	W06
	BYTE		        Fs4 
	BYTE		N06     Fs5 
	BYTE	W06
	BYTE		        Cn4 
	BYTE		N06     Cn5 
	BYTE	W06
// 015   ----------------------------------------
	BYTE		        Gn4 
	BYTE		N06     Gn5 
	BYTE	W06
	BYTE		        As4 
	BYTE		N06     As5 
	BYTE	W06
	BYTE		        An4 
	BYTE		N06     An5 
	BYTE	W06
	BYTE		        Gn4 
	BYTE		N06     Gn5 
	BYTE	W06
	BYTE		        Fs4 
	BYTE		N06     Fs5 
	BYTE	W06
	BYTE		        Ds4 
	BYTE		N06     Ds5 
	BYTE	W06
	BYTE		        Dn4 
	BYTE		N06     Dn5 
	BYTE	W06
	BYTE		        Cn4 
	BYTE		N06     Cn5 
	BYTE	W54
// 016   ----------------------------------------
	BYTE		N24     As3   v080
	BYTE		N24     Ds4 
	BYTE	W24
	BYTE		        An3 
	BYTE		N24     Dn4 
	BYTE	W24
	BYTE		        Fs3 
	BYTE		N24     As3 
	BYTE	W24
	BYTE		        Gn3 
	BYTE		N24     Bn3 
	BYTE	W24
// 017   ----------------------------------------
	BYTE		        Gn3   v084
	BYTE		N24     Cn4 
	BYTE	W24
	BYTE		        As3 
	BYTE		N24     Dn4 
	BYTE	W24
	BYTE		        An3 
	BYTE		N24     Cn4 
	BYTE	W24
	BYTE		        Fs3 
	BYTE		N24     An3 
	BYTE	W24
// 018   ----------------------------------------
	BYTE		N18     Gn3 
	BYTE		N18     As3 
	BYTE	W24
	BYTE		N12     An3 
	BYTE		N12     Cn4 
	BYTE	W24
	BYTE		N18     Cs4 
	BYTE		N18     En4 
	BYTE	W24
	BYTE		        Dn4 
	BYTE		N18     Fs4 
	BYTE	W24
// 019   ----------------------------------------
	BYTE		N12     Gn3 
	BYTE		N12     As3 
	BYTE	W24
	BYTE		N24     Ds3 
	BYTE		N24     Fs3 
	BYTE	W24
	BYTE		        En3 
	BYTE		N24     Gn3 
	BYTE	W24
	BYTE		        Dn3 
	BYTE		N24     Fn3 
	BYTE	W24
// 020   ----------------------------------------
	BYTE	W96
// 021   ----------------------------------------
	BYTE	W96
// 022   ----------------------------------------
	BYTE	W96
// 023   ----------------------------------------
	BYTE	W96
// 024   ----------------------------------------
	BYTE	W96
// 025   ----------------------------------------
	BYTE	W96
// 026   ----------------------------------------
	BYTE	W96
// 027   ----------------------------------------
	BYTE	W96
// 028   ----------------------------------------
	BYTE	W96
// 029   ----------------------------------------
	BYTE	W96
// 030   ----------------------------------------
	BYTE	W96
// 031   ----------------------------------------
	BYTE	W96
	BYTE	GoTo
	 POIN2	MrBear_2_B1
MrBear_2_B2:
// 032   ----------------------------------------
	BYTE	W96
// 033   ----------------------------------------
	BYTE	W78
	BYTE	W01
	BYTE	FINE

//**************** Track 3 (Midi-Chn.3) ****************//

MrBear_3:
	BYTE	KEYSH   MrBear_key+0
// 000   ----------------------------------------
	BYTE		VOICE   4
	BYTE		VOL     64*MrBear_mvl/mxv
	BYTE		PAN     c_v+38
	BYTE		VOL     76*MrBear_mvl/mxv
	BYTE		N48     Dn2   v096
	BYTE	W48
	BYTE		        Cs2 
	BYTE	W48
// 001   ----------------------------------------
	BYTE		        Cn2 
	BYTE	W48
	BYTE		        Bn1 
	BYTE	W48
// 002   ----------------------------------------
	BYTE		        Dn2 
	BYTE	W48
	BYTE		        Cs2 
	BYTE	W48
// 003   ----------------------------------------
	BYTE		        Cn2 
	BYTE	W48
	BYTE		N18     Ds2 
	BYTE	W18
	BYTE		N06   
	BYTE	W06
	BYTE		N24   
	BYTE	W24
MrBear_3_B1:
// 004   ----------------------------------------
	BYTE	W96
// 005   ----------------------------------------
	BYTE	W96
// 006   ----------------------------------------
	BYTE	W96
// 007   ----------------------------------------
	BYTE	W96
// 008   ----------------------------------------
	BYTE		TIE     An2   v064
	BYTE	W96
// 009   ----------------------------------------
	BYTE	W96
	BYTE		EOT   
// 010   ----------------------------------------
	BYTE		TIE     As2 
	BYTE	W96
// 011   ----------------------------------------
	BYTE	W96
	BYTE		EOT   
// 012   ----------------------------------------
	BYTE		N06     Dn3   v100
	BYTE	W06
	BYTE		        Ds3 
	BYTE	W06
	BYTE		        Dn3 
	BYTE	W06
	BYTE		        As3 
	BYTE	W06
	BYTE		        An3 
	BYTE	W06
	BYTE		        Gn3 
	BYTE	W06
	BYTE		        Fs3 
	BYTE	W06
	BYTE		        Gn3 
	BYTE	W06
	BYTE		        An3 
	BYTE	W06
	BYTE		        Cn4 
	BYTE	W06
	BYTE		        As3 
	BYTE	W06
	BYTE		        An3 
	BYTE	W06
	BYTE		        Bn3 
	BYTE	W06
	BYTE		        Gn3 
	BYTE	W06
	BYTE		        Fn3 
	BYTE	W06
	BYTE		        Gn3 
	BYTE	W06
// 013   ----------------------------------------
	BYTE		        Cn4 
	BYTE	W06
	BYTE		        Gn3 
	BYTE	W06
	BYTE		        Ds3 
	BYTE	W06
	BYTE		        Cn4 
	BYTE	W06
	BYTE		        As3 
	BYTE	W06
	BYTE		        Cn4 
	BYTE	W06
	BYTE		        Dn4 
	BYTE	W06
	BYTE		        Gn3 
	BYTE	W06
	BYTE		N12     An3 
	BYTE	W12
	BYTE		N06     As3 
	BYTE	W06
	BYTE		N03     An3 
	BYTE	W03
	BYTE		        As3 
	BYTE	W03
	BYTE		N06     An3 
	BYTE	W06
	BYTE		        Cn4 
	BYTE	W06
	BYTE		        As3 
	BYTE	W06
	BYTE		        An3 
	BYTE	W06
// 014   ----------------------------------------
	BYTE		        Gn3 
	BYTE	W06
	BYTE		        Dn4 
	BYTE	W06
	BYTE		N06   
	BYTE	W06
	BYTE		        Dn3 
	BYTE	W06
	BYTE		        Gn3 
	BYTE	W06
	BYTE		        Dn4 
	BYTE	W06
	BYTE		N06   
	BYTE	W06
	BYTE		        Ds3 
	BYTE	W06
	BYTE		        Gn3 
	BYTE	W06
	BYTE		        En4 
	BYTE	W06
	BYTE		N06   
	BYTE	W06
	BYTE		        En3 
	BYTE	W06
	BYTE		        Fs3 
	BYTE	W06
	BYTE		        Fs4 
	BYTE	W06
	BYTE		N06   
	BYTE	W06
	BYTE		        Cn4 
	BYTE	W06
// 015   ----------------------------------------
	BYTE		        Gn4 
	BYTE	W06
	BYTE		        As4 
	BYTE	W06
	BYTE		        An4 
	BYTE	W06
	BYTE		        Gn4 
	BYTE	W06
	BYTE		        Fs4 
	BYTE	W06
	BYTE		        Ds4 
	BYTE	W06
	BYTE		        Dn4 
	BYTE	W06
	BYTE		        Cn4 
	BYTE	W06
	BYTE		        Gn3 
	BYTE	W24
	BYTE		N24     Fs3 
	BYTE	W24
// 016   ----------------------------------------
	BYTE	W96
// 017   ----------------------------------------
	BYTE	W96
// 018   ----------------------------------------
	BYTE	W96
// 019   ----------------------------------------
	BYTE	W96
// 020   ----------------------------------------
	BYTE	W96
// 021   ----------------------------------------
	BYTE	W96
// 022   ----------------------------------------
	BYTE	W96
// 023   ----------------------------------------
	BYTE	W96
// 024   ----------------------------------------
MrBear_3_024:
	BYTE		N42     Cn2   v100
	BYTE	W48
	BYTE		N48   
	BYTE	W48
	BYTE	PEND
// 025   ----------------------------------------
	BYTE	PATT
	 POIN2	MrBear_3_024
// 026   ----------------------------------------
	BYTE	PATT
	 POIN2	MrBear_3_024
// 027   ----------------------------------------
	BYTE	PATT
	 POIN2	MrBear_3_024
// 028   ----------------------------------------
	BYTE	W96
// 029   ----------------------------------------
	BYTE	W96
// 030   ----------------------------------------
	BYTE	W96
// 031   ----------------------------------------
	BYTE	W96
	BYTE	GoTo
	 POIN2	MrBear_3_B1
MrBear_3_B2:
// 032   ----------------------------------------
	BYTE	W96
// 033   ----------------------------------------
	BYTE	W78
	BYTE	W01
	BYTE	FINE

//**************** Track 4 (Midi-Chn.4) ****************//

MrBear_4:
	BYTE	KEYSH   MrBear_key+0
// 000   ----------------------------------------
	BYTE		VOICE   48
	BYTE		VOL     97*MrBear_mvl/mxv
	BYTE		PAN     c_v+31
	BYTE	W96
// 001   ----------------------------------------
	BYTE	W96
// 002   ----------------------------------------
	BYTE	W96
// 003   ----------------------------------------
	BYTE	W96
MrBear_4_B1:
// 004   ----------------------------------------
	BYTE	W96
// 005   ----------------------------------------
	BYTE	W96
// 006   ----------------------------------------
	BYTE	W96
// 007   ----------------------------------------
	BYTE	W96
// 008   ----------------------------------------
	BYTE	W96
// 009   ----------------------------------------
	BYTE	W96
// 010   ----------------------------------------
	BYTE	W96
// 011   ----------------------------------------
	BYTE	W96
// 012   ----------------------------------------
	BYTE	W96
// 013   ----------------------------------------
	BYTE	W96
// 014   ----------------------------------------
	BYTE	W96
// 015   ----------------------------------------
	BYTE	W48
	BYTE		N12     Dn2   v127
	BYTE	W24
	BYTE		N24     Dn1 
	BYTE	W24
// 016   ----------------------------------------
	BYTE		N12     Gn1 
	BYTE	W24
	BYTE		        Dn2 
	BYTE	W24
	BYTE		        Fs1 
	BYTE	W24
	BYTE		        Gn1 
	BYTE	W24
// 017   ----------------------------------------
	BYTE		        Ds2 
	BYTE	W24
	BYTE		        Dn2 
	BYTE	W24
	BYTE		N12   
	BYTE	W36
	BYTE		        Cn2 
	BYTE	W12
// 018   ----------------------------------------
	BYTE		N24     As1 
	BYTE	W24
	BYTE		N12     Cn2 
	BYTE	W12
	BYTE		N12   
	BYTE	W12
	BYTE		N24     Cs2 
	BYTE	W24
	BYTE		        Dn2 
	BYTE	W24
// 019   ----------------------------------------
	BYTE		N12     Dn1 
	BYTE	W24
	BYTE		N24   
	BYTE	W24
	BYTE		        Gn1 
	BYTE	W24
	BYTE		        Bn1 
	BYTE	W24
// 020   ----------------------------------------
	BYTE		N12     Cn1   v096
	BYTE	W18
	BYTE		N06   
	BYTE	W06
	BYTE		N24   
	BYTE	W24
	BYTE		N48     Bn1 
	BYTE	W48
// 021   ----------------------------------------
	BYTE		        Dn2 
	BYTE	W48
	BYTE		N12     Cn2 
	BYTE	W12
	BYTE		        Dn2 
	BYTE	W12
	BYTE		        Ds2 
	BYTE	W12
	BYTE		        Gn1 
	BYTE	W12
// 022   ----------------------------------------
	BYTE		        Cn2 
	BYTE	W18
	BYTE		N06     Cn1 
	BYTE	W06
	BYTE		N24   
	BYTE	W24
	BYTE		N12     Dn1 
	BYTE	W12
	BYTE		        Ds1 
	BYTE	W12
	BYTE		N24     Bn1 
	BYTE	W24
// 023   ----------------------------------------
	BYTE		N12     As1 
	BYTE	W12
	BYTE		        Cn2 
	BYTE	W12
	BYTE		N24     Dn2 
	BYTE	W24
	BYTE		N12     Ds2 
	BYTE	W12
	BYTE		        Cn2 
	BYTE	W12
	BYTE		        An1 
	BYTE	W12
	BYTE		        Ds1 
	BYTE	W12
// 024   ----------------------------------------
	BYTE		        Cn1 
	BYTE	W96
// 025   ----------------------------------------
	BYTE	W96
// 026   ----------------------------------------
	BYTE	W96
// 027   ----------------------------------------
	BYTE	W96
// 028   ----------------------------------------
	BYTE	W96
// 029   ----------------------------------------
	BYTE	W96
// 030   ----------------------------------------
	BYTE	W96
// 031   ----------------------------------------
	BYTE	W96
	BYTE	GoTo
	 POIN2	MrBear_4_B1
MrBear_4_B2:
// 032   ----------------------------------------
	BYTE	W96
// 033   ----------------------------------------
	BYTE	W78
	BYTE	W01
	BYTE	FINE

//**************** Track 5 (Midi-Chn.5) ****************//

MrBear_5:
	BYTE	KEYSH   MrBear_key+0
// 000   ----------------------------------------
	BYTE		VOICE   23
	BYTE		VOL     97*MrBear_mvl/mxv
	BYTE	W96
// 001   ----------------------------------------
	BYTE	W96
// 002   ----------------------------------------
	BYTE	W96
// 003   ----------------------------------------
	BYTE	W96
MrBear_5_B1:
// 004   ----------------------------------------
	BYTE	W96
// 005   ----------------------------------------
	BYTE	W96
// 006   ----------------------------------------
	BYTE	W96
// 007   ----------------------------------------
	BYTE	W96
// 008   ----------------------------------------
	BYTE	W96
// 009   ----------------------------------------
	BYTE	W96
// 010   ----------------------------------------
	BYTE	W96
// 011   ----------------------------------------
	BYTE	W96
// 012   ----------------------------------------
	BYTE	W96
// 013   ----------------------------------------
	BYTE	W96
// 014   ----------------------------------------
	BYTE	W96
// 015   ----------------------------------------
	BYTE	W96
// 016   ----------------------------------------
	BYTE	W96
// 017   ----------------------------------------
	BYTE	W96
// 018   ----------------------------------------
	BYTE	W96
// 019   ----------------------------------------
	BYTE	W96
// 020   ----------------------------------------
	BYTE		N12     Cn2   v096
	BYTE	W18
	BYTE		N06   
	BYTE	W06
	BYTE		N24   
	BYTE	W24
	BYTE		N48     Bn2 
	BYTE	W48
// 021   ----------------------------------------
	BYTE		        Dn3 
	BYTE	W48
	BYTE		N12     Cn3 
	BYTE	W12
	BYTE		        Dn3 
	BYTE	W12
	BYTE		        Ds3 
	BYTE	W12
	BYTE		        Gn2 
	BYTE	W12
// 022   ----------------------------------------
	BYTE		        Cn3 
	BYTE	W18
	BYTE		N06     Cn2 
	BYTE	W06
	BYTE		N24   
	BYTE	W24
	BYTE		N12     Dn2 
	BYTE	W12
	BYTE		        Ds2 
	BYTE	W12
	BYTE		N24     Bn2 
	BYTE	W24
// 023   ----------------------------------------
	BYTE		N12     As2 
	BYTE	W12
	BYTE		        Cn3 
	BYTE	W12
	BYTE		N24     Dn3 
	BYTE	W24
	BYTE		N12     Ds3 
	BYTE	W12
	BYTE		        Cn3 
	BYTE	W12
	BYTE		        An2 
	BYTE	W12
	BYTE		        Ds2 
	BYTE	W12
// 024   ----------------------------------------
	BYTE		        Cn3 
	BYTE		N12     Cn4   v044
	BYTE	W12
	BYTE		        Cn3   v096
	BYTE		N12     Cn4   v044
	BYTE	W12
	BYTE		        Cn3   v096
	BYTE		N12     Cn4   v044
	BYTE	W24
	BYTE		        Cn3   v096
	BYTE		N12     Cn4   v044
	BYTE	W12
	BYTE		N36     Cn3   v096
	BYTE		N36     Cn4   v044
	BYTE	W36
// 025   ----------------------------------------
	BYTE		N12     As2   v096
	BYTE		N12     As3   v044
	BYTE	W12
	BYTE		        As2   v096
	BYTE		N12     As3   v044
	BYTE	W12
	BYTE		        As2   v096
	BYTE		N12     As3   v044
	BYTE	W24
	BYTE		        As2   v096
	BYTE		N12     As3   v044
	BYTE	W12
	BYTE		N36     As2   v096
	BYTE		N36     As3   v044
	BYTE	W36
// 026   ----------------------------------------
	BYTE		N12     An2   v096
	BYTE		N12     An3   v044
	BYTE	W12
	BYTE		        An2   v096
	BYTE		N12     An3   v044
	BYTE	W12
	BYTE		        An2   v096
	BYTE		N12     An3   v044
	BYTE	W24
	BYTE		        An2   v096
	BYTE		N12     An3   v044
	BYTE	W12
	BYTE		N36     An2   v096
	BYTE		N36     An3   v044
	BYTE	W36
// 027   ----------------------------------------
	BYTE		N12     Gs2   v096
	BYTE		N12     Gs3   v044
	BYTE	W12
	BYTE		        Gs2   v096
	BYTE		N12     Gs3   v044
	BYTE	W12
	BYTE		        Gs2   v096
	BYTE		N12     Gs3   v044
	BYTE	W24
	BYTE		        Gs2   v096
	BYTE		N12     Gs3   v044
	BYTE	W12
	BYTE		N36     Gs2   v096
	BYTE		N36     Gs3   v044
	BYTE	W36
// 028   ----------------------------------------
	BYTE	W96
// 029   ----------------------------------------
	BYTE	W96
// 030   ----------------------------------------
	BYTE	W96
// 031   ----------------------------------------
	BYTE	W96
	BYTE	GoTo
	 POIN2	MrBear_5_B1
MrBear_5_B2:
// 032   ----------------------------------------
	BYTE	W96
// 033   ----------------------------------------
	BYTE	W78
	BYTE	W01
	BYTE	FINE

//**************** Track 6 (Midi-Chn.6) ****************//

MrBear_6:
	BYTE	KEYSH   MrBear_key+0
// 000   ----------------------------------------
	BYTE		VOICE   39
	BYTE		VOL     127*MrBear_mvl/mxv
	BYTE		N06     Gn3   v064
	BYTE		N06     An3 
	BYTE	W06
	BYTE		N12     Gn3 
	BYTE		N12     An3 
	BYTE	W12
	BYTE		N06     Gn3 
	BYTE		N06     An3 
	BYTE	W06
	BYTE		N24     Gn3 
	BYTE		N24     An3 
	BYTE	W24
	BYTE		N06     Gn3 
	BYTE		N06     An3 
	BYTE	W06
	BYTE		N12     Gn3 
	BYTE		N12     An3 
	BYTE	W12
	BYTE		N06     Gn3 
	BYTE		N06     An3 
	BYTE	W06
	BYTE		N24     Gn3 
	BYTE		N24     An3 
	BYTE	W24
// 001   ----------------------------------------
MrBear_6_001:
	BYTE		N06     Gn3   v064
	BYTE		N06     An3 
	BYTE	W06
	BYTE		N12     Gn3 
	BYTE		N12     An3 
	BYTE	W12
	BYTE		N06     Gn3 
	BYTE		N06     An3 
	BYTE	W06
	BYTE		N24     Gn3 
	BYTE		N24     An3 
	BYTE	W24
	BYTE		N06     Gn3 
	BYTE		N06     An3 
	BYTE	W06
	BYTE		N12     Gn3 
	BYTE		N12     An3 
	BYTE	W12
	BYTE		N06     Gn3 
	BYTE		N06     An3 
	BYTE	W06
	BYTE		N24     Gn3 
	BYTE		N24     An3 
	BYTE	W24
	BYTE	PEND
// 002   ----------------------------------------
	BYTE	PATT
	 POIN2	MrBear_6_001
// 003   ----------------------------------------
	BYTE		N06     Gn3   v064
	BYTE		N06     An3 
	BYTE	W24
	BYTE		        Gn3 
	BYTE		N06     An3 
	BYTE	W24
	BYTE		N18   
	BYTE		N18     Ds4 
	BYTE		N18     An4   v068
	BYTE	W18
	BYTE		N06     An3   v064
	BYTE		N06     Ds4 
	BYTE		N06     An4   v068
	BYTE	W06
	BYTE		N24     An3   v064
	BYTE		N24     Ds4 
	BYTE		N24     An4   v068
	BYTE	W24
MrBear_6_B1:
// 004   ----------------------------------------
	BYTE	W96
// 005   ----------------------------------------
	BYTE	W96
// 006   ----------------------------------------
	BYTE	W96
// 007   ----------------------------------------
	BYTE	W96
// 008   ----------------------------------------
	BYTE		N06     Dn4   v044
	BYTE		N06     An4 
	BYTE	W06
	BYTE		N18     Dn4 
	BYTE		N18     An4 
	BYTE	W18
	BYTE		N42     Dn4 
	BYTE		N42     An4 
	BYTE	W42
	BYTE		N06     Dn4 
	BYTE		N06     An4 
	BYTE	W06
	BYTE		N12     Dn4 
	BYTE		N12     An4 
	BYTE	W12
	BYTE		        Dn4 
	BYTE		N12     An4 
	BYTE	W12
// 009   ----------------------------------------
	BYTE		N06     Dn4 
	BYTE		N06     An4 
	BYTE	W06
	BYTE		N12     Dn4 
	BYTE		N12     An4 
	BYTE	W12
	BYTE		N06     Dn4 
	BYTE		N06     An4 
	BYTE	W06
	BYTE		N12     Dn4 
	BYTE		N12     An4 
	BYTE	W12
	BYTE		        Dn4 
	BYTE		N12     An4 
	BYTE	W12
	BYTE		N06     Dn4 
	BYTE		N06     An4 
	BYTE	W06
	BYTE		N12     Dn4 
	BYTE		N12     An4 
	BYTE	W12
	BYTE		N06     Dn4 
	BYTE		N06     An4 
	BYTE	W06
	BYTE		N12     Dn4 
	BYTE		N12     An4 
	BYTE	W12
	BYTE		        Dn4 
	BYTE		N12     An4 
	BYTE	W12
// 010   ----------------------------------------
	BYTE		N06     Ds4 
	BYTE		N06     As4 
	BYTE	W06
	BYTE		N18     Ds4 
	BYTE		N18     As4 
	BYTE	W18
	BYTE		N42     Ds4 
	BYTE		N42     As4 
	BYTE	W42
	BYTE		N06     Ds4 
	BYTE		N06     As4 
	BYTE	W06
	BYTE		N12     Ds4 
	BYTE		N12     As4 
	BYTE	W12
	BYTE		        Ds4 
	BYTE		N12     As4 
	BYTE	W12
// 011   ----------------------------------------
	BYTE		N06     Ds4 
	BYTE		N06     As4 
	BYTE	W06
	BYTE		N12     Ds4 
	BYTE		N12     As4 
	BYTE	W12
	BYTE		N06     Ds4 
	BYTE		N06     As4 
	BYTE	W06
	BYTE		N12     Ds4 
	BYTE		N12     As4 
	BYTE	W12
	BYTE		        Ds4 
	BYTE		N12     As4 
	BYTE	W12
	BYTE		N06     Ds4 
	BYTE		N06     As4 
	BYTE	W06
	BYTE		N12     Ds4 
	BYTE		N12     As4 
	BYTE	W12
	BYTE		N06     Ds4 
	BYTE		N06     As4 
	BYTE	W06
	BYTE		N12     Ds4 
	BYTE		N12     As4 
	BYTE	W12
	BYTE		        Ds4 
	BYTE		N12     As4 
	BYTE	W12
// 012   ----------------------------------------
	BYTE	W96
// 013   ----------------------------------------
	BYTE	W96
// 014   ----------------------------------------
	BYTE	W96
// 015   ----------------------------------------
	BYTE	W96
// 016   ----------------------------------------
	BYTE	W96
// 017   ----------------------------------------
	BYTE	W96
// 018   ----------------------------------------
	BYTE	W96
// 019   ----------------------------------------
	BYTE	W96
// 020   ----------------------------------------
MrBear_6_020:
	BYTE		N06     Ds4   v064
	BYTE		N06     Gn4 
	BYTE	W06
	BYTE		N18     Ds4 
	BYTE		N18     Gn4 
	BYTE	W18
	BYTE		N42     Ds4 
	BYTE		N42     Gn4 
	BYTE	W42
	BYTE		N06     Ds4 
	BYTE		N06     Gn4 
	BYTE	W06
	BYTE		N12     Ds4 
	BYTE		N12     Gn4 
	BYTE	W12
	BYTE		        Ds4 
	BYTE		N12     Gn4 
	BYTE	W12
	BYTE	PEND
// 021   ----------------------------------------
MrBear_6_021:
	BYTE		N06     Ds4   v064
	BYTE		N06     Gn4 
	BYTE	W06
	BYTE		N12     Ds4 
	BYTE		N12     Gn4 
	BYTE	W12
	BYTE		N06     Ds4 
	BYTE		N06     Gn4 
	BYTE	W06
	BYTE		N12     Ds4 
	BYTE		N12     Gn4 
	BYTE	W12
	BYTE		        Ds4 
	BYTE		N12     Gn4 
	BYTE	W12
	BYTE		N06     Ds4 
	BYTE		N06     Gn4 
	BYTE	W06
	BYTE		N12     Ds4 
	BYTE		N12     Gn4 
	BYTE	W12
	BYTE		N06     Ds4 
	BYTE		N06     Gn4 
	BYTE	W06
	BYTE		N12     Ds4 
	BYTE		N12     Gn4 
	BYTE	W12
	BYTE		        Ds4 
	BYTE		N12     Gn4 
	BYTE	W12
	BYTE	PEND
// 022   ----------------------------------------
	BYTE	PATT
	 POIN2	MrBear_6_020
// 023   ----------------------------------------
	BYTE	PATT
	 POIN2	MrBear_6_021
// 024   ----------------------------------------
	BYTE	PATT
	 POIN2	MrBear_6_020
// 025   ----------------------------------------
	BYTE	PATT
	 POIN2	MrBear_6_021
// 026   ----------------------------------------
	BYTE	PATT
	 POIN2	MrBear_6_020
// 027   ----------------------------------------
	BYTE	PATT
	 POIN2	MrBear_6_021
// 028   ----------------------------------------
	BYTE	W96
// 029   ----------------------------------------
	BYTE	W96
// 030   ----------------------------------------
	BYTE	W96
// 031   ----------------------------------------
	BYTE	W96
	BYTE	GoTo
	 POIN2	MrBear_6_B1
MrBear_6_B2:
// 032   ----------------------------------------
	BYTE	W96
// 033   ----------------------------------------
	BYTE	W78
	BYTE	W01
	BYTE	FINE

//**************** Track 7 (Midi-Chn.7) ****************//

MrBear_7:
	BYTE	KEYSH   MrBear_key+0
// 000   ----------------------------------------
	BYTE		VOICE   9
	BYTE		VOL     26*MrBear_mvl/mxv
	BYTE		PAN     c_v+63
	BYTE		N48     An4   v096
	BYTE	W12
	BYTE		N36     Cn5 
	BYTE	W03
	BYTE		N32     Dn5 
	BYTE	W03
	BYTE		N30     Ds5 
	BYTE	W03
	BYTE		N24     En5 
	BYTE	W03
	BYTE		        Fn5 
	BYTE	W24
	BYTE		N48     An4 
	BYTE	W12
	BYTE		N36     Cn5 
	BYTE	W03
	BYTE		N32     Dn5 
	BYTE	W03
	BYTE		N30     Ds5 
	BYTE	W03
	BYTE		N24     En5 
	BYTE	W03
	BYTE		        Fn5 
	BYTE	W24
// 001   ----------------------------------------
MrBear_7_001:
	BYTE		PAN     c_v+63
	BYTE		N48     An4   v096
	BYTE	W12
	BYTE		N36     Cn5 
	BYTE	W03
	BYTE		N32     Dn5 
	BYTE	W03
	BYTE		N30     Ds5 
	BYTE	W03
	BYTE		N24     En5 
	BYTE	W03
	BYTE		        Fn5 
	BYTE	W24
	BYTE		N48     An4 
	BYTE	W12
	BYTE		N36     Cn5 
	BYTE	W03
	BYTE		N32     Dn5 
	BYTE	W03
	BYTE		N30     Ds5 
	BYTE	W03
	BYTE		N24     En5 
	BYTE	W03
	BYTE		        Fn5 
	BYTE	W24
	BYTE	PEND
// 002   ----------------------------------------
	BYTE	PATT
	 POIN2	MrBear_7_001
// 003   ----------------------------------------
	BYTE	PATT
	 POIN2	MrBear_7_001
MrBear_7_B1:
// 004   ----------------------------------------
	BYTE	W96
// 005   ----------------------------------------
	BYTE	W96
// 006   ----------------------------------------
	BYTE	W96
// 007   ----------------------------------------
	BYTE	W96
// 008   ----------------------------------------
	BYTE	W96
// 009   ----------------------------------------
	BYTE	W96
// 010   ----------------------------------------
	BYTE	W96
// 011   ----------------------------------------
	BYTE	W96
// 012   ----------------------------------------
	BYTE	W96
// 013   ----------------------------------------
	BYTE	W96
// 014   ----------------------------------------
	BYTE	W96
// 015   ----------------------------------------
	BYTE	W96
// 016   ----------------------------------------
	BYTE	W96
// 017   ----------------------------------------
	BYTE	W96
// 018   ----------------------------------------
	BYTE	W96
// 019   ----------------------------------------
	BYTE	W96
// 020   ----------------------------------------
	BYTE	W96
// 021   ----------------------------------------
	BYTE	W96
// 022   ----------------------------------------
	BYTE	W96
// 023   ----------------------------------------
	BYTE	W96
// 024   ----------------------------------------
	BYTE	W96
// 025   ----------------------------------------
	BYTE	W96
// 026   ----------------------------------------
	BYTE	W96
// 027   ----------------------------------------
	BYTE	W96
// 028   ----------------------------------------
	BYTE	W96
// 029   ----------------------------------------
	BYTE	W96
// 030   ----------------------------------------
	BYTE	W96
// 031   ----------------------------------------
	BYTE	W96
	BYTE	GoTo
	 POIN2	MrBear_7_B1
MrBear_7_B2:
// 032   ----------------------------------------
	BYTE	W96
// 033   ----------------------------------------
	BYTE	W78
	BYTE	W01
	BYTE	FINE

//**************** Track 8 (Midi-Chn.8) ****************//

MrBear_8:
	BYTE		VOL     127*MrBear_mvl/mxv
	BYTE	KEYSH   MrBear_key+0
// 000   ----------------------------------------
	BYTE		VOICE   33
	BYTE	W96
// 001   ----------------------------------------
	BYTE	W96
// 002   ----------------------------------------
	BYTE	W96
// 003   ----------------------------------------
	BYTE	W96
MrBear_8_B1:
// 004   ----------------------------------------
	BYTE	W96
// 005   ----------------------------------------
	BYTE	W96
// 006   ----------------------------------------
	BYTE	W96
// 007   ----------------------------------------
	BYTE	W96
// 008   ----------------------------------------
	BYTE	W96
// 009   ----------------------------------------
	BYTE	W96
// 010   ----------------------------------------
	BYTE	W96
// 011   ----------------------------------------
	BYTE	W96
// 012   ----------------------------------------
MrBear_8_012:
	BYTE		N12     Dn0   v096
	BYTE	W12
	BYTE		N06     Gn0 
	BYTE	W12
	BYTE		N12     Dn0 
	BYTE	W12
	BYTE		N06     An0 
	BYTE	W12
	BYTE		N12     Fs0 
	BYTE	W12
	BYTE		N06     Cn1 
	BYTE	W12
	BYTE		N12     Gn0 
	BYTE	W12
	BYTE		N06     Fs0 
	BYTE	W12
	BYTE	PEND
// 013   ----------------------------------------
MrBear_8_013:
	BYTE		N12     Dn0   v096
	BYTE	W12
	BYTE		N06     Gn0 
	BYTE	W12
	BYTE		N12     Dn0 
	BYTE	W12
	BYTE		N06     Fs0 
	BYTE	W12
	BYTE		N12     Cs0 
	BYTE	W12
	BYTE		N06     Fs0 
	BYTE	W12
	BYTE		        Dn1 
	BYTE	W12
	BYTE		N12     Cn1 
	BYTE	W12
	BYTE	PEND
// 014   ----------------------------------------
	BYTE		N24     As0 
	BYTE	W24
	BYTE		        Cn1 
	BYTE	W24
	BYTE		        Cs1 
	BYTE	W24
	BYTE		        Dn1 
	BYTE	W24
// 015   ----------------------------------------
	BYTE		N12     Gn1 
	BYTE	W12
	BYTE		        Dn1 
	BYTE	W12
	BYTE		N06     Cn1 
	BYTE	W12
	BYTE		        As0 
	BYTE	W12
	BYTE		N12     Dn0 
	BYTE	W24
	BYTE		N24   
	BYTE	W24
// 016   ----------------------------------------
	BYTE	PATT
	 POIN2	MrBear_8_012
// 017   ----------------------------------------
	BYTE	PATT
	 POIN2	MrBear_8_013
// 018   ----------------------------------------
MrBear_8_018:
	BYTE		N48     Dn0   v100
	BYTE	W48
	BYTE		N48   
	BYTE	W48
	BYTE	PEND
// 019   ----------------------------------------
	BYTE	PATT
	 POIN2	MrBear_8_018
// 020   ----------------------------------------
MrBear_8_020:
	BYTE		N48     Cn0   v100
	BYTE	W48
	BYTE		        BnM1
	BYTE	W48
	BYTE	PEND
// 021   ----------------------------------------
MrBear_8_021:
	BYTE		N48     As0   v100
	BYTE	W48
	BYTE		        An0 
	BYTE	W48
	BYTE	PEND
// 022   ----------------------------------------
	BYTE	PATT
	 POIN2	MrBear_8_020
// 023   ----------------------------------------
	BYTE	PATT
	 POIN2	MrBear_8_021
// 024   ----------------------------------------
MrBear_8_024:
	BYTE		N48     Cn1   v096
	BYTE	W48
	BYTE		N48   
	BYTE	W48
	BYTE	PEND
// 025   ----------------------------------------
	BYTE	PATT
	 POIN2	MrBear_8_024
// 026   ----------------------------------------
	BYTE	PATT
	 POIN2	MrBear_8_024
// 027   ----------------------------------------
	BYTE	PATT
	 POIN2	MrBear_8_024
// 028   ----------------------------------------
	BYTE		N24     Dn0   v096
	BYTE	W96
// 029   ----------------------------------------
	BYTE	W96
// 030   ----------------------------------------
	BYTE	W96
// 031   ----------------------------------------
	BYTE	W96
	BYTE	GoTo
	 POIN2	MrBear_8_B1
MrBear_8_B2:
// 032   ----------------------------------------
	BYTE	W96
// 033   ----------------------------------------
	BYTE	W78
	BYTE	W01
	BYTE	FINE

//**************** Track 9 (Midi-Chn.9) ****************//

MrBear_9:
	BYTE		VOL     127*MrBear_mvl/mxv
	BYTE	KEYSH   MrBear_key+0
// 000   ----------------------------------------
	BYTE		VOICE   38
	BYTE	W96
// 001   ----------------------------------------
	BYTE	W96
// 002   ----------------------------------------
	BYTE	W96
// 003   ----------------------------------------
	BYTE	W96
MrBear_9_B1:
// 004   ----------------------------------------
MrBear_9_004:
	BYTE		N06     Dn1   v096
	BYTE	W06
	BYTE		        An1 
	BYTE	W06
	BYTE		        Dn2 
	BYTE	W06
	BYTE		        Ds1 
	BYTE	W06
	BYTE		N18     Dn1 
	BYTE	W24
	BYTE		N18   
	BYTE	W24
	BYTE		N06     Ds1 
	BYTE	W06
	BYTE		        Dn1 
	BYTE	W06
	BYTE		        Ds1 
	BYTE	W06
	BYTE		        Dn1 
	BYTE	W06
	BYTE	PEND
// 005   ----------------------------------------
MrBear_9_005:
	BYTE		N12     Ds1   v096
	BYTE	W12
	BYTE		        Dn1 
	BYTE	W18
	BYTE		N12   
	BYTE	W18
	BYTE		N12   
	BYTE	W24
	BYTE		N06   
	BYTE	W06
	BYTE		        Ds1 
	BYTE	W06
	BYTE		        Dn1 
	BYTE	W06
	BYTE		        Ds1 
	BYTE	W06
	BYTE	PEND
// 006   ----------------------------------------
	BYTE	PATT
	 POIN2	MrBear_9_004
// 007   ----------------------------------------
	BYTE	PATT
	 POIN2	MrBear_9_005
// 008   ----------------------------------------
	BYTE	PATT
	 POIN2	MrBear_9_004
// 009   ----------------------------------------
	BYTE	PATT
	 POIN2	MrBear_9_005
// 010   ----------------------------------------
	BYTE	PATT
	 POIN2	MrBear_9_004
// 011   ----------------------------------------
	BYTE	PATT
	 POIN2	MrBear_9_005
// 012   ----------------------------------------
	BYTE	W96
// 013   ----------------------------------------
	BYTE	W96
// 014   ----------------------------------------
	BYTE	W96
// 015   ----------------------------------------
	BYTE	W96
// 016   ----------------------------------------
	BYTE	W96
// 017   ----------------------------------------
	BYTE	W96
// 018   ----------------------------------------
	BYTE	W96
// 019   ----------------------------------------
	BYTE	W96
// 020   ----------------------------------------
	BYTE	W96
// 021   ----------------------------------------
	BYTE	W96
// 022   ----------------------------------------
	BYTE	W96
// 023   ----------------------------------------
	BYTE	W96
// 024   ----------------------------------------
	BYTE	W96
// 025   ----------------------------------------
	BYTE	W96
// 026   ----------------------------------------
	BYTE	W96
// 027   ----------------------------------------
	BYTE	W96
// 028   ----------------------------------------
MrBear_9_028:
	BYTE		N18     Dn3   v096
	BYTE	W36
	BYTE		N06     Dn1 
	BYTE	W06
	BYTE		N12   
	BYTE	W12
	BYTE		N06   
	BYTE	W06
	BYTE		N12   
	BYTE	W12
	BYTE		N06   
	BYTE	W06
	BYTE		N06   
	BYTE	W06
	BYTE		N06   
	BYTE	W06
	BYTE		N06   
	BYTE	W06
	BYTE	PEND
// 029   ----------------------------------------
MrBear_9_029:
	BYTE		N18     Dn1   v096
	BYTE	W24
	BYTE		N12   
	BYTE	W12
	BYTE		N06   
	BYTE	W06
	BYTE		N12   
	BYTE	W12
	BYTE		N06   
	BYTE	W06
	BYTE		N12   
	BYTE	W12
	BYTE		N12   
	BYTE	W24
	BYTE	PEND
// 030   ----------------------------------------
	BYTE	PATT
	 POIN2	MrBear_9_028
// 031   ----------------------------------------
	BYTE	PATT
	 POIN2	MrBear_9_029
	BYTE	GoTo
	 POIN2	MrBear_9_B1
MrBear_9_B2:
// 032   ----------------------------------------
	BYTE	PATT
	 POIN2	MrBear_9_004
// 033   ----------------------------------------
	BYTE		N12     Ds1   v096
	BYTE	W12
	BYTE		        Dn1 
	BYTE	W18
	BYTE		N12   
	BYTE	W18
	BYTE		N12   
	BYTE	W24
	BYTE		N06   
	BYTE	W07
	BYTE	FINE

//**************** Track 10 (Midi-Chn.11) ****************//

MrBear_10:
	BYTE	KEYSH   MrBear_key+0
// 000   ----------------------------------------
	BYTE		VOICE   45
	BYTE		VOL     51*MrBear_mvl/mxv
	BYTE		PAN     c_v-64
	BYTE	W96
// 001   ----------------------------------------
	BYTE	W96
// 002   ----------------------------------------
	BYTE	W96
// 003   ----------------------------------------
	BYTE	W96
MrBear_10_B1:
// 004   ----------------------------------------
MrBear_10_004:
	BYTE		N06     An4   v096
	BYTE	W06
	BYTE		        An3 
	BYTE	W06
	BYTE		        As3 
	BYTE	W06
	BYTE		        An3 
	BYTE	W06
	BYTE		        Fs4 
	BYTE	W06
	BYTE		        Gn4 
	BYTE	W06
	BYTE		        Ds4 
	BYTE	W06
	BYTE		        An3 
	BYTE	W06
	BYTE		        Ds4 
	BYTE	W06
	BYTE		        An3 
	BYTE	W06
	BYTE		        Dn4 
	BYTE	W06
	BYTE		        An3 
	BYTE	W06
	BYTE		        Ds4 
	BYTE	W06
	BYTE		        Fn4 
	BYTE	W06
	BYTE		        Ds4 
	BYTE	W06
	BYTE		        Cn4 
	BYTE	W06
	BYTE	PEND
// 005   ----------------------------------------
MrBear_10_005:
	BYTE		N06     Gn4   v096
	BYTE	W06
	BYTE		        Fs4 
	BYTE	W06
	BYTE		        Dn4 
	BYTE	W06
	BYTE		        An4 
	BYTE	W06
	BYTE		N06   
	BYTE	W06
	BYTE		        Dn4 
	BYTE	W06
	BYTE		        Gn4 
	BYTE	W06
	BYTE		        Fs4 
	BYTE	W06
	BYTE		        Ds4 
	BYTE	W06
	BYTE		        Cn4 
	BYTE	W06
	BYTE		        Ds4 
	BYTE	W06
	BYTE		        Cn4 
	BYTE	W06
	BYTE		        Dn4 
	BYTE	W06
	BYTE		        Ds4 
	BYTE	W06
	BYTE		        An3 
	BYTE	W06
	BYTE		N06   
	BYTE	W06
	BYTE	PEND
// 006   ----------------------------------------
	BYTE	PATT
	 POIN2	MrBear_10_004
// 007   ----------------------------------------
	BYTE	PATT
	 POIN2	MrBear_10_005
// 008   ----------------------------------------
	BYTE	PATT
	 POIN2	MrBear_10_004
// 009   ----------------------------------------
	BYTE	PATT
	 POIN2	MrBear_10_005
// 010   ----------------------------------------
	BYTE	PATT
	 POIN2	MrBear_10_004
// 011   ----------------------------------------
	BYTE	PATT
	 POIN2	MrBear_10_005
// 012   ----------------------------------------
	BYTE	W96
// 013   ----------------------------------------
	BYTE	W96
// 014   ----------------------------------------
	BYTE	W96
// 015   ----------------------------------------
	BYTE	W96
// 016   ----------------------------------------
	BYTE	W96
// 017   ----------------------------------------
	BYTE	W96
// 018   ----------------------------------------
	BYTE	W96
// 019   ----------------------------------------
	BYTE	W96
// 020   ----------------------------------------
	BYTE	W96
// 021   ----------------------------------------
	BYTE	W96
// 022   ----------------------------------------
	BYTE	W96
// 023   ----------------------------------------
	BYTE	W96
// 024   ----------------------------------------
	BYTE	W96
// 025   ----------------------------------------
	BYTE	W96
// 026   ----------------------------------------
	BYTE	W96
// 027   ----------------------------------------
	BYTE	W96
// 028   ----------------------------------------
	BYTE	W96
// 029   ----------------------------------------
	BYTE	W96
// 030   ----------------------------------------
	BYTE	W96
// 031   ----------------------------------------
	BYTE	W96
	BYTE	GoTo
	 POIN2	MrBear_10_B1
MrBear_10_B2:
// 032   ----------------------------------------
	BYTE	PATT
	 POIN2	MrBear_10_004
// 033   ----------------------------------------
	BYTE		N06     Gn4   v096
	BYTE	W06
	BYTE		        Fs4 
	BYTE	W06
	BYTE		        Dn4 
	BYTE	W06
	BYTE		        An4 
	BYTE	W06
	BYTE		N06   
	BYTE	W06
	BYTE		        Dn4 
	BYTE	W06
	BYTE		        Gn4 
	BYTE	W06
	BYTE		        Fs4 
	BYTE	W06
	BYTE		        Ds4 
	BYTE	W06
	BYTE		        Cn4 
	BYTE	W06
	BYTE		        Ds4 
	BYTE	W06
	BYTE		        Cn4 
	BYTE	W06
	BYTE		        Dn4 
	BYTE	W07
	BYTE	FINE

//**************** Track 11 (Midi-Chn.12) ****************//

MrBear_11:
	BYTE	KEYSH   MrBear_key+0
// 000   ----------------------------------------
	BYTE		VOICE   45
	BYTE		VOL     51*MrBear_mvl/mxv
	BYTE		PAN     c_v+63
	BYTE	W96
// 001   ----------------------------------------
	BYTE	W96
// 002   ----------------------------------------
	BYTE	W96
// 003   ----------------------------------------
	BYTE	W96
MrBear_11_B1:
// 004   ----------------------------------------
MrBear_11_004:
	BYTE	W01
	BYTE		N06     An4   v096
	BYTE	W06
	BYTE		        An3 
	BYTE	W06
	BYTE		        As3 
	BYTE	W06
	BYTE		        An3 
	BYTE	W06
	BYTE		        Fs4 
	BYTE	W06
	BYTE		        Gn4 
	BYTE	W06
	BYTE		        Ds4 
	BYTE	W06
	BYTE		        An3 
	BYTE	W06
	BYTE		        Ds4 
	BYTE	W06
	BYTE		        An3 
	BYTE	W06
	BYTE		        Dn4 
	BYTE	W06
	BYTE		        An3 
	BYTE	W06
	BYTE		        Ds4 
	BYTE	W06
	BYTE		        Fn4 
	BYTE	W06
	BYTE		        Ds4 
	BYTE	W06
	BYTE		        Cn4 
	BYTE	W05
	BYTE	PEND
// 005   ----------------------------------------
MrBear_11_005:
	BYTE	W01
	BYTE		N06     Gn4   v096
	BYTE	W06
	BYTE		        Fs4 
	BYTE	W06
	BYTE		        Dn4 
	BYTE	W06
	BYTE		        An4 
	BYTE	W06
	BYTE		N06   
	BYTE	W06
	BYTE		        Dn4 
	BYTE	W06
	BYTE		        Gn4 
	BYTE	W06
	BYTE		        Fs4 
	BYTE	W06
	BYTE		        Dn4 
	BYTE	W06
	BYTE		        Ds4 
	BYTE	W06
	BYTE		        Gn4 
	BYTE	W06
	BYTE		        Cn4 
	BYTE	W06
	BYTE		        Dn4 
	BYTE	W06
	BYTE		        Ds4 
	BYTE	W06
	BYTE		        An3 
	BYTE	W06
	BYTE		N06   
	BYTE	W05
	BYTE	PEND
// 006   ----------------------------------------
	BYTE	PATT
	 POIN2	MrBear_11_004
// 007   ----------------------------------------
	BYTE	PATT
	 POIN2	MrBear_11_005
// 008   ----------------------------------------
	BYTE	PATT
	 POIN2	MrBear_11_004
// 009   ----------------------------------------
	BYTE	PATT
	 POIN2	MrBear_11_005
// 010   ----------------------------------------
	BYTE	PATT
	 POIN2	MrBear_11_004
// 011   ----------------------------------------
	BYTE	PATT
	 POIN2	MrBear_11_005
// 012   ----------------------------------------
	BYTE	W96
// 013   ----------------------------------------
	BYTE	W96
// 014   ----------------------------------------
	BYTE	W96
// 015   ----------------------------------------
	BYTE	W96
// 016   ----------------------------------------
	BYTE	W96
// 017   ----------------------------------------
	BYTE	W96
// 018   ----------------------------------------
	BYTE	W96
// 019   ----------------------------------------
	BYTE	W96
// 020   ----------------------------------------
	BYTE	W96
// 021   ----------------------------------------
	BYTE	W96
// 022   ----------------------------------------
	BYTE	W96
// 023   ----------------------------------------
	BYTE	W96
// 024   ----------------------------------------
	BYTE	W96
// 025   ----------------------------------------
	BYTE	W96
// 026   ----------------------------------------
	BYTE	W96
// 027   ----------------------------------------
	BYTE	W96
// 028   ----------------------------------------
	BYTE	W96
// 029   ----------------------------------------
	BYTE	W96
// 030   ----------------------------------------
	BYTE	W96
// 031   ----------------------------------------
	BYTE	W96
	BYTE	GoTo
	 POIN2	MrBear_11_B1
MrBear_11_B2:
// 032   ----------------------------------------
	BYTE	PATT
	 POIN2	MrBear_11_004
// 033   ----------------------------------------
	BYTE	W01
	BYTE		N06     Gn4   v096
	BYTE	W06
	BYTE		        Fs4 
	BYTE	W06
	BYTE		        Dn4 
	BYTE	W06
	BYTE		        An4 
	BYTE	W06
	BYTE		N06   
	BYTE	W06
	BYTE		        Dn4 
	BYTE	W06
	BYTE		        Gn4 
	BYTE	W06
	BYTE		        Fs4 
	BYTE	W06
	BYTE		        Dn4 
	BYTE	W06
	BYTE		        Ds4 
	BYTE	W06
	BYTE		        Gn4 
	BYTE	W06
	BYTE		        Cn4 
	BYTE	W06
	BYTE		        Dn4 
	BYTE	W06
	BYTE	FINE

//**************** Track 12 (Midi-Chn.13) ****************//

MrBear_12:
	BYTE		VOL     127*MrBear_mvl/mxv
	BYTE	KEYSH   MrBear_key+0
// 000   ----------------------------------------
	BYTE		VOICE   127
	BYTE		N06     Cn1   v064
	BYTE	W12
	BYTE		        Dn4   v052
	BYTE	W12
	BYTE		        Dn1   v064
	BYTE	W12
	BYTE		        Cn1 
	BYTE	W24
	BYTE		N06   
	BYTE	W12
	BYTE		        Dn1 
	BYTE	W12
	BYTE		        Cn1 
	BYTE	W12
// 001   ----------------------------------------
MrBear_12_001:
	BYTE		N06     Cn1   v064
	BYTE	W12
	BYTE		        Dn4   v052
	BYTE	W12
	BYTE		        Dn1   v064
	BYTE	W12
	BYTE		        Cn1 
	BYTE	W24
	BYTE		N06   
	BYTE	W12
	BYTE		        Dn1 
	BYTE	W12
	BYTE		        Cn1 
	BYTE	W12
	BYTE	PEND
// 002   ----------------------------------------
	BYTE	PATT
	 POIN2	MrBear_12_001
// 003   ----------------------------------------
	BYTE		N06     Cs1   v064
	BYTE	W12
	BYTE		N06   
	BYTE	W06
	BYTE		N06   
	BYTE	W06
	BYTE		N06   
	BYTE	W12
	BYTE		N06   
	BYTE	W06
	BYTE		N06   
	BYTE	W06
	BYTE		N06   
	BYTE	W12
	BYTE		N06   
	BYTE	W06
	BYTE		N06   
	BYTE	W06
	BYTE		N06   
	BYTE	W12
	BYTE		N06   
	BYTE	W06
	BYTE		N06   
	BYTE	W06
MrBear_12_B1:
// 004   ----------------------------------------
MrBear_12_004:
	BYTE		N06     Cn1   v127
	BYTE		N06     Fs1   v032
	BYTE		N06     An2   v096
	BYTE	W06
	BYTE		        Fs1   v032
	BYTE	W06
	BYTE		        As1 
	BYTE	W12
	BYTE		        Cn1   v127
	BYTE		N06     Dn1   v064
	BYTE		N06     Fs1   v032
	BYTE	W06
	BYTE		N06   
	BYTE	W06
	BYTE		        As1 
	BYTE	W06
	BYTE		        Dn1   v064
	BYTE	W06
	BYTE		        Cn1   v127
	BYTE		N06     Fs1   v032
	BYTE	W06
	BYTE		N06   
	BYTE	W06
	BYTE		        As1 
	BYTE	W12
	BYTE		        Cn1   v127
	BYTE		N06     Dn1   v064
	BYTE		N06     Fs1   v032
	BYTE	W06
	BYTE		N06   
	BYTE	W06
	BYTE		        As1 
	BYTE	W12
	BYTE	PEND
// 005   ----------------------------------------
MrBear_12_005:
	BYTE		N06     Cn1   v127
	BYTE		N06     Fs1   v032
	BYTE	W06
	BYTE		N06   
	BYTE	W06
	BYTE		        As1 
	BYTE	W12
	BYTE		        Cn1   v127
	BYTE		N06     Dn1   v064
	BYTE		N06     Fs1   v032
	BYTE	W06
	BYTE		N06   
	BYTE	W06
	BYTE		        As1 
	BYTE	W06
	BYTE		        Dn1   v064
	BYTE	W06
	BYTE		        Cn1   v127
	BYTE		N06     Fs1   v032
	BYTE	W06
	BYTE		N06   
	BYTE	W06
	BYTE		        As1 
	BYTE	W12
	BYTE		        Cn1   v127
	BYTE		N06     Dn1   v064
	BYTE		N06     Fs1   v032
	BYTE	W06
	BYTE		N06   
	BYTE	W06
	BYTE		        As1 
	BYTE	W12
	BYTE	PEND
// 006   ----------------------------------------
	BYTE	PATT
	 POIN2	MrBear_12_004
// 007   ----------------------------------------
	BYTE	PATT
	 POIN2	MrBear_12_005
// 008   ----------------------------------------
	BYTE	PATT
	 POIN2	MrBear_12_004
// 009   ----------------------------------------
	BYTE	PATT
	 POIN2	MrBear_12_005
// 010   ----------------------------------------
	BYTE	PATT
	 POIN2	MrBear_12_004
// 011   ----------------------------------------
	BYTE	PATT
	 POIN2	MrBear_12_005
// 012   ----------------------------------------
MrBear_12_012:
	BYTE		N06     Cn1   v127
	BYTE		N06     As1   v044
	BYTE	W24
	BYTE		        Cn1   v127
	BYTE		N06     Dn1   v076
	BYTE	W18
	BYTE		N06   
	BYTE	W06
	BYTE		        Cn1   v127
	BYTE	W24
	BYTE		N06   
	BYTE		N06     Dn1   v076
	BYTE	W06
	BYTE		N06   
	BYTE	W18
	BYTE	PEND
// 013   ----------------------------------------
MrBear_12_013:
	BYTE		N06     Cn1   v127
	BYTE	W24
	BYTE		N06   
	BYTE		N06     Dn1   v076
	BYTE	W18
	BYTE		N06   
	BYTE	W06
	BYTE		        Cn1   v127
	BYTE	W24
	BYTE		N06   
	BYTE		N06     Dn1   v076
	BYTE	W06
	BYTE		N06   
	BYTE	W18
	BYTE	PEND
// 014   ----------------------------------------
	BYTE	PATT
	 POIN2	MrBear_12_013
// 015   ----------------------------------------
	BYTE	PATT
	 POIN2	MrBear_12_013
// 016   ----------------------------------------
	BYTE	PATT
	 POIN2	MrBear_12_012
// 017   ----------------------------------------
	BYTE	PATT
	 POIN2	MrBear_12_013
// 018   ----------------------------------------
	BYTE	PATT
	 POIN2	MrBear_12_013
// 019   ----------------------------------------
	BYTE		N06     Cn1   v127
	BYTE	W24
	BYTE		N06   
	BYTE	W24
	BYTE		N06   
	BYTE		N06     As1   v048
	BYTE	W24
	BYTE		        Cn1   v127
	BYTE		N06     As1   v048
	BYTE	W24
// 020   ----------------------------------------
	BYTE		        Cn1   v127
	BYTE		N06     As1   v064
	BYTE	W24
	BYTE		        Cn1   v127
	BYTE	W24
	BYTE		N06   
	BYTE	W24
	BYTE		N06   
	BYTE	W24
// 021   ----------------------------------------
MrBear_12_021:
	BYTE		N06     Cn1   v127
	BYTE	W24
	BYTE		N06   
	BYTE	W24
	BYTE		N06   
	BYTE	W24
	BYTE		N06   
	BYTE	W24
	BYTE	PEND
// 022   ----------------------------------------
	BYTE	PATT
	 POIN2	MrBear_12_021
// 023   ----------------------------------------
	BYTE	PATT
	 POIN2	MrBear_12_021
// 024   ----------------------------------------
	BYTE		N06     An2   v096
	BYTE	W96
// 025   ----------------------------------------
	BYTE	W96
// 026   ----------------------------------------
	BYTE	W96
// 027   ----------------------------------------
	BYTE	W96
// 028   ----------------------------------------
MrBear_12_028:
	BYTE		N06     Cn1   v127
	BYTE	W12
	BYTE		        Dn4   v052
	BYTE	W12
	BYTE		        Dn1   v064
	BYTE	W12
	BYTE		        Cn1 
	BYTE		N06     Dn4 
	BYTE	W06
	BYTE		        Cn1 
	BYTE	W12
	BYTE		N06   
	BYTE	W06
	BYTE		N06   
	BYTE	W12
	BYTE		N06   
	BYTE		N06     Dn1 
	BYTE	W06
	BYTE		        Cn1 
	BYTE	W06
	BYTE		N06   
	BYTE		N06     Dn4 
	BYTE	W06
	BYTE		        Cn1 
	BYTE	W06
	BYTE	PEND
// 029   ----------------------------------------
	BYTE		N06   
	BYTE	W12
	BYTE		        Dn4   v052
	BYTE	W12
	BYTE		        Dn1   v064
	BYTE	W12
	BYTE		        Cn1 
	BYTE		N06     Dn4 
	BYTE	W06
	BYTE		        Cn1 
	BYTE	W12
	BYTE		N06   
	BYTE	W06
	BYTE		N06   
	BYTE	W12
	BYTE		N06   
	BYTE		N06     Dn1 
	BYTE	W06
	BYTE		        Cn1 
	BYTE	W06
	BYTE		N06   
	BYTE		N06     Dn4 
	BYTE	W06
	BYTE		        Cn1 
	BYTE	W06
// 030   ----------------------------------------
	BYTE	PATT
	 POIN2	MrBear_12_028
// 031   ----------------------------------------
	BYTE		N06     Cs1   v064
	BYTE		N06     Dn1   v044
	BYTE	W12
	BYTE		        Cs1   v064
	BYTE	W06
	BYTE		N06   
	BYTE	W06
	BYTE		N06   
	BYTE		N06     Dn1   v044
	BYTE	W12
	BYTE		        Cs1   v064
	BYTE	W06
	BYTE		N06   
	BYTE	W06
	BYTE		        Cn1   v127
	BYTE		N06     Cs1   v064
	BYTE		N06     Dn1   v044
	BYTE	W12
	BYTE		        Cs1   v064
	BYTE	W06
	BYTE		N06   
	BYTE	W06
	BYTE		N06   
	BYTE		N06     Dn1   v044
	BYTE	W12
	BYTE		        Cs1   v064
	BYTE	W06
	BYTE		N06   
	BYTE	W06
	BYTE	GoTo
	 POIN2	MrBear_12_B1
MrBear_12_B2:
// 032   ----------------------------------------
	BYTE	PATT
	 POIN2	MrBear_12_004
// 033   ----------------------------------------
	BYTE		N06     Cn1   v127
	BYTE		N06     Fs1   v032
	BYTE	W06
	BYTE		N06   
	BYTE	W06
	BYTE		        As1 
	BYTE	W12
	BYTE		        Cn1   v127
	BYTE		N06     Dn1   v064
	BYTE		N06     Fs1   v032
	BYTE	W06
	BYTE		N06   
	BYTE	W06
	BYTE		        As1 
	BYTE	W06
	BYTE		        Dn1   v064
	BYTE	W06
	BYTE		        Cn1   v127
	BYTE		N06     Fs1   v032
	BYTE	W06
	BYTE		N06   
	BYTE	W06
	BYTE		        As1 
	BYTE	W12
	BYTE		        Cn1   v127
	BYTE		N06     Dn1   v064
	BYTE		N06     Fs1   v032
	BYTE	W07
	BYTE	FINE

//******************************************************//
	ALIGN 4

MrBear:
	BYTE	12	// NumTrks
	BYTE	0	// NumBlks
	BYTE	MrBear_pri	// Priority
	BYTE	MrBear_rev	// Reverb.

	POIN2	MrBear_grp

	POIN2	MrBear_1
	POIN2	MrBear_2
	POIN2	MrBear_3
	POIN2	MrBear_4
	POIN2	MrBear_5
	POIN2	MrBear_6
	POIN2	MrBear_7
	POIN2	MrBear_8
	POIN2	MrBear_9
	POIN2	MrBear_10
	POIN2	MrBear_11
	POIN2	MrBear_12

	
