//Event file generated from Sappy .s format.
	#include "MPlayDef.event"

	#define	MushroomGorge_grp  voicegroup000
	#define	MushroomGorge_pri  0
	#define	MushroomGorge_rev  0
	#define	MushroomGorge_mvl  85
	#define	MushroomGorge_key  0
	#define	MushroomGorge_tbs  1
	#define	MushroomGorge_exg  0
	#define	MushroomGorge_cmp  1

	// .rodata
	//	MushroomGorge
	ALIGN 4

//**************** Track 1 (Midi-Chn.1) ****************//

MushroomGorge_1:
	BYTE	KEYSH   MushroomGorge_key+0
// 000   ----------------------------------------
	BYTE	TEMPO   129*MushroomGorge_tbs/2
	BYTE		VOICE   77
	BYTE		VOL     75*MushroomGorge_mvl/mxv
	BYTE		PAN     c_v+17
	BYTE	W72
	BYTE		N24     En3   v127
	BYTE	W24
MushroomGorge_1_B1:
// 001   ----------------------------------------
MushroomGorge_1_001:
	BYTE		N24     An3   v124
	BYTE	W24
	BYTE		N06     Bn3 
	BYTE	W12
	BYTE		        An3 
	BYTE	W12
	BYTE		        Gn3 
	BYTE	W12
	BYTE		        En3 
	BYTE	W12
	BYTE		        An3 
	BYTE	W12
	BYTE		        Bn3 
	BYTE	W12
	BYTE	PEND
// 002   ----------------------------------------
MushroomGorge_1_002:
	BYTE		N72     Cn4   v124
	BYTE	W72
	BYTE		N12   
	BYTE	W12
	BYTE		N06     Dn4 
	BYTE	W06
	BYTE		        En4 
	BYTE	W06
	BYTE	PEND
// 003   ----------------------------------------
MushroomGorge_1_003:
	BYTE		N72     Cn4   v124
	BYTE	W72
	BYTE		N12     Dn4 
	BYTE	W12
	BYTE		N06     Cn4 
	BYTE	W06
	BYTE		        Bn3 
	BYTE	W06
	BYTE	PEND
// 004   ----------------------------------------
MushroomGorge_1_004:
	BYTE		N48     An3   v124
	BYTE	W48
	BYTE		N12     Gn3 
	BYTE	W24
	BYTE		N24     En3 
	BYTE	W24
	BYTE	PEND
// 005   ----------------------------------------
MushroomGorge_1_005:
	BYTE		N24     An3   v124
	BYTE	W24
	BYTE		N06     Bn3 
	BYTE	W12
	BYTE		        An3 
	BYTE	W12
	BYTE		        Gn3 
	BYTE	W12
	BYTE		        An3 
	BYTE	W12
	BYTE		N06   
	BYTE		N06     Cn4 
	BYTE	W12
	BYTE		        Bn3 
	BYTE		N06     Dn4 
	BYTE	W12
	BYTE	PEND
// 006   ----------------------------------------
MushroomGorge_1_006:
	BYTE		N72     Cn4   v124
	BYTE		N72     En4 
	BYTE	W72
	BYTE		N12     Cn4 
	BYTE		N12     En4 
	BYTE	W12
	BYTE		N06     Dn4 
	BYTE		N06     Fn4 
	BYTE	W06
	BYTE		        En4 
	BYTE		N06     Gn4 
	BYTE	W06
	BYTE	PEND
// 007   ----------------------------------------
MushroomGorge_1_007:
	BYTE		N72     Cn4   v124
	BYTE		N72     En4 
	BYTE	W72
	BYTE		N12     Dn4 
	BYTE		N12     Gn4 
	BYTE	W12
	BYTE		N06     Cn4 
	BYTE		N06     Fn4 
	BYTE	W06
	BYTE		        Bn3 
	BYTE		N06     En4 
	BYTE	W06
	BYTE	PEND
// 008   ----------------------------------------
MushroomGorge_1_008:
	BYTE		N48     Bn3   v124
	BYTE		N48     Dn4 
	BYTE	W48
	BYTE		N12     An3 
	BYTE		N12     Cn4 
	BYTE	W24
	BYTE		N24     En3 
	BYTE	W24
	BYTE	PEND
// 009   ----------------------------------------
MushroomGorge_1_009:
	BYTE		N06     An2   v112
	BYTE	W06
	BYTE		        Bn2 
	BYTE	W06
	BYTE		        An2 
	BYTE	W06
	BYTE		        Gn2 
	BYTE	W06
	BYTE		        En2 
	BYTE	W12
	BYTE		N06   
	BYTE	W06
	BYTE		        Gn2 
	BYTE	W06
	BYTE		        An2 
	BYTE	W06
	BYTE		        Bn2 
	BYTE	W06
	BYTE		        An2 
	BYTE	W06
	BYTE		        Gn2 
	BYTE	W06
	BYTE		        En2 
	BYTE	W06
	BYTE		        Fn2   v116
	BYTE	W06
	BYTE		        Gn2 
	BYTE	W06
	BYTE		        An2 
	BYTE	W06
	BYTE	PEND
// 010   ----------------------------------------
	BYTE		N72     Cn3   v104
	BYTE	W96
// 011   ----------------------------------------
	BYTE	PATT
	 POIN2	MushroomGorge_1_009
// 012   ----------------------------------------
	BYTE		N72     Gn2   v104
	BYTE	W96
// 013   ----------------------------------------
	BYTE	PATT
	 POIN2	MushroomGorge_1_009
// 014   ----------------------------------------
	BYTE		N72     Cn3   v104
	BYTE	W96
// 015   ----------------------------------------
MushroomGorge_1_015:
	BYTE		N06     An2   v124
	BYTE	W06
	BYTE		        Bn2 
	BYTE	W06
	BYTE		        An2 
	BYTE	W06
	BYTE		        Bn2 
	BYTE	W06
	BYTE		        An2 
	BYTE	W06
	BYTE		        Cn3 
	BYTE	W06
	BYTE		        Dn3 
	BYTE	W06
	BYTE		        An2 
	BYTE	W06
	BYTE		        Gn2 
	BYTE	W24
	BYTE		        En2 
	BYTE	W24
	BYTE	PEND
// 016   ----------------------------------------
	BYTE		TIE     An2   v104
	BYTE	W96
// 017   ----------------------------------------
	BYTE	W84
	BYTE		EOT   
	BYTE	W12
// 018   ----------------------------------------
	BYTE	W96
// 019   ----------------------------------------
	BYTE	W96
// 020   ----------------------------------------
	BYTE	W96
// 021   ----------------------------------------
	BYTE	W72
	BYTE		N24     En3   v124
	BYTE	W24
// 022   ----------------------------------------
MushroomGorge_1_022:
	BYTE		N18     An3   v124
	BYTE	W18
	BYTE		N06   
	BYTE	W06
	BYTE		        Bn3 
	BYTE	W12
	BYTE		        An3 
	BYTE	W12
	BYTE		        Gn3 
	BYTE	W12
	BYTE		        En3 
	BYTE	W12
	BYTE		        An3 
	BYTE	W12
	BYTE		        Bn3 
	BYTE	W12
	BYTE	PEND
// 023   ----------------------------------------
MushroomGorge_1_023:
	BYTE		N18     Cn4   v124
	BYTE	W18
	BYTE		N06   
	BYTE	W06
	BYTE		        Dn4 
	BYTE	W12
	BYTE		        Cn4 
	BYTE	W12
	BYTE		        Bn3 
	BYTE	W12
	BYTE		        Gn3 
	BYTE	W12
	BYTE		        Cn4 
	BYTE	W12
	BYTE		        Dn4 
	BYTE	W12
	BYTE	PEND
// 024   ----------------------------------------
MushroomGorge_1_024:
	BYTE		N24     En4   v124
	BYTE	W24
	BYTE		N06     Fn4 
	BYTE	W12
	BYTE		        Gn4 
	BYTE	W12
	BYTE		        Cn4 
	BYTE	W12
	BYTE		N06   
	BYTE	W12
	BYTE		        Dn4 
	BYTE	W12
	BYTE		        En4 
	BYTE	W12
	BYTE	PEND
// 025   ----------------------------------------
MushroomGorge_1_025:
	BYTE		N12     Fn4   v124
	BYTE	W12
	BYTE		N06     En4 
	BYTE	W06
	BYTE		        Dn4 
	BYTE	W06
	BYTE		N12     Cn4 
	BYTE	W12
	BYTE		N06     Bn3 
	BYTE	W06
	BYTE		        An3 
	BYTE	W06
	BYTE		N12     Gn3 
	BYTE	W12
	BYTE		N06     Fn3 
	BYTE	W06
	BYTE		        En3 
	BYTE	W06
	BYTE		N12     Dn3 
	BYTE	W12
	BYTE		N06     Cn3 
	BYTE	W06
	BYTE		        Bn2 
	BYTE	W06
	BYTE	PEND
// 026   ----------------------------------------
	BYTE		N72     Gn2 
	BYTE	W96
// 027   ----------------------------------------
	BYTE	W96
// 028   ----------------------------------------
	BYTE	W72
	BYTE		N24     En3   v127
	BYTE	W24
// 029   ----------------------------------------
	BYTE	PATT
	 POIN2	MushroomGorge_1_001
// 030   ----------------------------------------
	BYTE	PATT
	 POIN2	MushroomGorge_1_002
// 031   ----------------------------------------
	BYTE	PATT
	 POIN2	MushroomGorge_1_003
// 032   ----------------------------------------
	BYTE	PATT
	 POIN2	MushroomGorge_1_004
// 033   ----------------------------------------
	BYTE	PATT
	 POIN2	MushroomGorge_1_005
// 034   ----------------------------------------
	BYTE	PATT
	 POIN2	MushroomGorge_1_006
// 035   ----------------------------------------
	BYTE	PATT
	 POIN2	MushroomGorge_1_007
// 036   ----------------------------------------
	BYTE	PATT
	 POIN2	MushroomGorge_1_008
// 037   ----------------------------------------
	BYTE	PATT
	 POIN2	MushroomGorge_1_009
// 038   ----------------------------------------
	BYTE		N72     Cn3   v104
	BYTE	W96
// 039   ----------------------------------------
	BYTE	PATT
	 POIN2	MushroomGorge_1_009
// 040   ----------------------------------------
	BYTE		N72     Gn2   v104
	BYTE	W96
// 041   ----------------------------------------
	BYTE	PATT
	 POIN2	MushroomGorge_1_009
// 042   ----------------------------------------
	BYTE		N72     Cn3   v104
	BYTE	W96
// 043   ----------------------------------------
	BYTE	PATT
	 POIN2	MushroomGorge_1_015
// 044   ----------------------------------------
	BYTE		TIE     An2   v104
	BYTE	W96
// 045   ----------------------------------------
	BYTE	W84
	BYTE		EOT   
	BYTE	W12
// 046   ----------------------------------------
	BYTE	W96
// 047   ----------------------------------------
	BYTE	W96
// 048   ----------------------------------------
	BYTE	W96
// 049   ----------------------------------------
	BYTE	W72
	BYTE		N24     En3   v124
	BYTE	W24
// 050   ----------------------------------------
	BYTE	PATT
	 POIN2	MushroomGorge_1_022
// 051   ----------------------------------------
	BYTE	PATT
	 POIN2	MushroomGorge_1_023
// 052   ----------------------------------------
	BYTE	PATT
	 POIN2	MushroomGorge_1_024
// 053   ----------------------------------------
	BYTE	PATT
	 POIN2	MushroomGorge_1_025
// 054   ----------------------------------------
	BYTE		N72     Gn2   v124
	BYTE	W96
// 055   ----------------------------------------
	BYTE	W96
// 056   ----------------------------------------
	BYTE	W72
	BYTE		N24     En3   v127
	BYTE	W24
	BYTE	GoTo
	 POIN2	MushroomGorge_1_B1
MushroomGorge_1_B2:
// 057   ----------------------------------------
	BYTE	FINE

//**************** Track 2 (Midi-Chn.2) ****************//

MushroomGorge_2:
	BYTE	KEYSH   MushroomGorge_key+0
// 000   ----------------------------------------
	BYTE		VOICE   81
	BYTE		VOL     83*MushroomGorge_mvl/mxv
	BYTE		PAN     c_v-6
	BYTE	W92
	BYTE	W02
	BYTE		MOD     0
	BYTE	W02
MushroomGorge_2_B1:
// 001   ----------------------------------------
MushroomGorge_2_001:
	BYTE		N12     An0   v127
	BYTE	W18
	BYTE		N06   
	BYTE	W06
	BYTE		        Cn1 
	BYTE	W12
	BYTE		        En1 
	BYTE	W18
	BYTE		        An1 
	BYTE	W12
	BYTE		        En1 
	BYTE	W06
	BYTE		        An0 
	BYTE	W12
	BYTE		N06   
	BYTE	W12
	BYTE	PEND
// 002   ----------------------------------------
MushroomGorge_2_002:
	BYTE		N12     Cn1   v127
	BYTE	W18
	BYTE		N06     En1 
	BYTE	W06
	BYTE		        Gn1 
	BYTE	W12
	BYTE		        Cn2 
	BYTE	W18
	BYTE		N06   
	BYTE	W12
	BYTE		        Gn1 
	BYTE	W06
	BYTE		        Cn1 
	BYTE	W12
	BYTE		N06   
	BYTE	W12
	BYTE	PEND
// 003   ----------------------------------------
MushroomGorge_2_003:
	BYTE		N12     Cn1   v127
	BYTE	W18
	BYTE		N06   
	BYTE	W06
	BYTE		        En1 
	BYTE	W12
	BYTE		        Gn1 
	BYTE	W18
	BYTE		        Cn2 
	BYTE	W12
	BYTE		        Gn1 
	BYTE	W06
	BYTE		        Cn1 
	BYTE	W12
	BYTE		N06   
	BYTE	W12
	BYTE	PEND
// 004   ----------------------------------------
	BYTE		N12     An0 
	BYTE	W18
	BYTE		N06   
	BYTE	W06
	BYTE		        Cn1 
	BYTE	W12
	BYTE		        En1 
	BYTE	W12
	BYTE		MOD     1
	BYTE		N12     An2 
	BYTE	W04
	BYTE		MOD     120
	BYTE	W08
	BYTE		        0
	BYTE		N06     En2 
	BYTE	W06
	BYTE		        Dn2 
	BYTE	W06
	BYTE		        Cn2 
	BYTE	W06
	BYTE		        Bn1 
	BYTE	W06
	BYTE		        An1 
	BYTE	W06
	BYTE		        Gs1 
	BYTE	W06
// 005   ----------------------------------------
	BYTE	PATT
	 POIN2	MushroomGorge_2_001
// 006   ----------------------------------------
	BYTE	PATT
	 POIN2	MushroomGorge_2_002
// 007   ----------------------------------------
	BYTE	PATT
	 POIN2	MushroomGorge_2_003
// 008   ----------------------------------------
MushroomGorge_2_008:
	BYTE		N12     Bn0   v127
	BYTE	W18
	BYTE		N06   
	BYTE	W06
	BYTE		N12     En1 
	BYTE	W24
	BYTE		MOD     83
	BYTE		N12     An0 
	BYTE	W12
	BYTE		MOD     1
	BYTE	W06
	BYTE		N06   
	BYTE	W06
	BYTE		        En1 
	BYTE	W12
	BYTE		        An1 
	BYTE	W12
	BYTE	PEND
// 009   ----------------------------------------
MushroomGorge_2_009:
	BYTE		N12     Fn0   v127
	BYTE	W18
	BYTE		N06     Cn1 
	BYTE	W06
	BYTE		N12     Fn1 
	BYTE	W24
	BYTE		        Fn0 
	BYTE	W18
	BYTE		N06     Cn1 
	BYTE	W06
	BYTE		N12     Fn1 
	BYTE	W24
	BYTE	PEND
// 010   ----------------------------------------
MushroomGorge_2_010:
	BYTE		N12     En0   v127
	BYTE	W18
	BYTE		N06     Bn0 
	BYTE	W06
	BYTE		N12     En1 
	BYTE	W24
	BYTE		        Cn1 
	BYTE	W18
	BYTE		N06     Gn1 
	BYTE	W06
	BYTE		N12     Cn2 
	BYTE	W24
	BYTE	PEND
// 011   ----------------------------------------
	BYTE	PATT
	 POIN2	MushroomGorge_2_009
// 012   ----------------------------------------
	BYTE	PATT
	 POIN2	MushroomGorge_2_010
// 013   ----------------------------------------
	BYTE	PATT
	 POIN2	MushroomGorge_2_009
// 014   ----------------------------------------
	BYTE	PATT
	 POIN2	MushroomGorge_2_010
// 015   ----------------------------------------
MushroomGorge_2_015:
	BYTE		N06     Fn0   v120
	BYTE	W48
	BYTE		        Gn0 
	BYTE	W48
	BYTE	PEND
// 016   ----------------------------------------
	BYTE	W96
// 017   ----------------------------------------
MushroomGorge_2_017:
	BYTE	W84
	BYTE		N04     En0   v127
	BYTE	W04
	BYTE		        Fs0 
	BYTE	W04
	BYTE		        Gs0 
	BYTE	W04
	BYTE	PEND
// 018   ----------------------------------------
MushroomGorge_2_018:
	BYTE		N06     An0   v127
	BYTE	W18
	BYTE		        Cn1 
	BYTE	W06
	BYTE		        En1 
	BYTE	W11
	BYTE		MOD     0
	BYTE	W01
	BYTE		N06     Gn1 
	BYTE	W06
	BYTE		N12     An1 
	BYTE	W09
	BYTE		MOD     110
	BYTE	W03
	BYTE		N12   
	BYTE	W04
	BYTE		MOD     1
	BYTE	W01
	BYTE		        0
	BYTE	W07
	BYTE		N06   
	BYTE	W12
	BYTE		        En1 
	BYTE	W06
	BYTE		        Cn1 
	BYTE	W06
	BYTE		        Bn0 
	BYTE	W06
	BYTE	PEND
// 019   ----------------------------------------
MushroomGorge_2_019:
	BYTE		N06     An0   v127
	BYTE	W12
	BYTE		        Cn1 
	BYTE	W12
	BYTE		        En1 
	BYTE	W06
	BYTE		        Ds2 
	BYTE	W12
	BYTE		N24     En2 
	BYTE	W12
	BYTE		MOD     61
	BYTE	W30
	BYTE		N12   
	BYTE	W11
	BYTE		MOD     89
	BYTE		BEND    c_v+0
	BYTE	W01
	BYTE	PEND
// 020   ----------------------------------------
MushroomGorge_2_020:
	BYTE		MOD     1
	BYTE		N12     An2   v127
	BYTE	W18
	BYTE		N12   
	BYTE	W18
	BYTE		N12   
	BYTE	W18
	BYTE		N12   
	BYTE	W18
	BYTE		N12   
	BYTE	W12
	BYTE		N06     Cn1 
	BYTE	W06
	BYTE		        Bn0 
	BYTE	W06
	BYTE	PEND
// 021   ----------------------------------------
MushroomGorge_2_021:
	BYTE		N06     An0   v127
	BYTE	W06
	BYTE		        Cn1 
	BYTE	W06
	BYTE		        En1 
	BYTE	W06
	BYTE		N12     Gn1 
	BYTE	W12
	BYTE		N06   
	BYTE	W06
	BYTE		        Bn1 
	BYTE	W06
	BYTE		        Gn1 
	BYTE	W06
	BYTE		N36     An1 
	BYTE	W07
	BYTE		MOD     97
	BYTE	W36
	BYTE	W02
	BYTE		        1
	BYTE	W03
	BYTE	PEND
// 022   ----------------------------------------
MushroomGorge_2_022:
	BYTE		N06     An0   v127
	BYTE	W36
	BYTE		N06   
	BYTE	W60
	BYTE	PEND
// 023   ----------------------------------------
MushroomGorge_2_023:
	BYTE		N06     Cn1   v127
	BYTE	W18
	BYTE		N06   
	BYTE	W06
	BYTE		        Gn1 
	BYTE	W12
	BYTE		        Cn2 
	BYTE	W18
	BYTE		N06   
	BYTE	W12
	BYTE		        Gn1 
	BYTE	W06
	BYTE		        Cn1 
	BYTE	W12
	BYTE		N06   
	BYTE	W12
	BYTE	PEND
// 024   ----------------------------------------
MushroomGorge_2_024:
	BYTE		N06     Cn2   v127
	BYTE	W48
	BYTE		        Gn1 
	BYTE	W48
	BYTE	PEND
// 025   ----------------------------------------
MushroomGorge_2_025:
	BYTE	W48
	BYTE		N12     Fn1   v127
	BYTE	W12
	BYTE		N06     En1 
	BYTE	W06
	BYTE		        Dn1 
	BYTE	W06
	BYTE		N12     Cn1 
	BYTE	W12
	BYTE		N06     Bn0 
	BYTE	W06
	BYTE		        An0 
	BYTE	W06
	BYTE	PEND
// 026   ----------------------------------------
	BYTE		N72     Gn0 
	BYTE	W96
// 027   ----------------------------------------
	BYTE	W96
// 028   ----------------------------------------
MushroomGorge_2_028:
	BYTE	W92
	BYTE	W02
	BYTE		MOD     0
	BYTE	W02
	BYTE	PEND
// 029   ----------------------------------------
	BYTE	PATT
	 POIN2	MushroomGorge_2_001
// 030   ----------------------------------------
	BYTE	PATT
	 POIN2	MushroomGorge_2_002
// 031   ----------------------------------------
	BYTE	PATT
	 POIN2	MushroomGorge_2_003
// 032   ----------------------------------------
	BYTE		N12     An0   v127
	BYTE	W18
	BYTE		N06   
	BYTE	W06
	BYTE		        Cn1 
	BYTE	W12
	BYTE		        En1 
	BYTE	W12
	BYTE		MOD     79
	BYTE		N12     An2 
	BYTE	W12
	BYTE		MOD     0
	BYTE		N06     En2 
	BYTE	W06
	BYTE		        Dn2 
	BYTE	W06
	BYTE		        Cn2 
	BYTE	W06
	BYTE		        Bn1 
	BYTE	W06
	BYTE		        An1 
	BYTE	W06
	BYTE		        Gs1 
	BYTE	W06
// 033   ----------------------------------------
	BYTE	PATT
	 POIN2	MushroomGorge_2_001
// 034   ----------------------------------------
	BYTE	PATT
	 POIN2	MushroomGorge_2_002
// 035   ----------------------------------------
	BYTE	PATT
	 POIN2	MushroomGorge_2_003
// 036   ----------------------------------------
	BYTE	PATT
	 POIN2	MushroomGorge_2_008
// 037   ----------------------------------------
	BYTE	PATT
	 POIN2	MushroomGorge_2_009
// 038   ----------------------------------------
	BYTE	PATT
	 POIN2	MushroomGorge_2_010
// 039   ----------------------------------------
	BYTE	PATT
	 POIN2	MushroomGorge_2_009
// 040   ----------------------------------------
	BYTE	PATT
	 POIN2	MushroomGorge_2_010
// 041   ----------------------------------------
	BYTE	PATT
	 POIN2	MushroomGorge_2_009
// 042   ----------------------------------------
	BYTE	PATT
	 POIN2	MushroomGorge_2_010
// 043   ----------------------------------------
	BYTE	PATT
	 POIN2	MushroomGorge_2_015
// 044   ----------------------------------------
	BYTE	W96
// 045   ----------------------------------------
	BYTE	PATT
	 POIN2	MushroomGorge_2_017
// 046   ----------------------------------------
	BYTE	PATT
	 POIN2	MushroomGorge_2_018
// 047   ----------------------------------------
	BYTE	PATT
	 POIN2	MushroomGorge_2_019
// 048   ----------------------------------------
	BYTE	PATT
	 POIN2	MushroomGorge_2_020
// 049   ----------------------------------------
	BYTE	PATT
	 POIN2	MushroomGorge_2_021
// 050   ----------------------------------------
	BYTE	PATT
	 POIN2	MushroomGorge_2_022
// 051   ----------------------------------------
	BYTE	PATT
	 POIN2	MushroomGorge_2_023
// 052   ----------------------------------------
	BYTE	PATT
	 POIN2	MushroomGorge_2_024
// 053   ----------------------------------------
	BYTE	PATT
	 POIN2	MushroomGorge_2_025
// 054   ----------------------------------------
	BYTE		N72     Gn0   v127
	BYTE	W96
// 055   ----------------------------------------
	BYTE	W96
// 056   ----------------------------------------
	BYTE	PATT
	 POIN2	MushroomGorge_2_028
	BYTE	GoTo
	 POIN2	MushroomGorge_2_B1
MushroomGorge_2_B2:
// 057   ----------------------------------------
	BYTE	FINE

//**************** Track 3 (Midi-Chn.3) ****************//

MushroomGorge_3:
	BYTE	KEYSH   MushroomGorge_key+0
// 000   ----------------------------------------
	BYTE		VOICE   41
	BYTE		VOL     70*MushroomGorge_mvl/mxv
	BYTE		PAN     c_v-13
	BYTE	W96
MushroomGorge_3_B1:
// 001   ----------------------------------------
MushroomGorge_3_001:
	BYTE		N18     En3   v092
	BYTE		N18     An3 
	BYTE		N18     Cn4 
	BYTE	W18
	BYTE		N08     En3 
	BYTE		N08     An3 
	BYTE		N08     Cn4 
	BYTE	W12
	BYTE		N06     En3 
	BYTE		N06     An3 
	BYTE		N06     Cn4 
	BYTE	W06
	BYTE		N12     En3 
	BYTE		N12     An3 
	BYTE		N12     Cn4 
	BYTE	W12
	BYTE		N06     En3 
	BYTE		N06     An3 
	BYTE		N06     Cn4 
	BYTE	W06
	BYTE		N12     En3 
	BYTE		N12     An3 
	BYTE		N12     Cn4 
	BYTE	W12
	BYTE		N06     En3 
	BYTE		N06     An3 
	BYTE		N06     Cn4 
	BYTE	W18
	BYTE		        En3 
	BYTE		N06     An3 
	BYTE		N06     Cn4 
	BYTE	W12
	BYTE	PEND
// 002   ----------------------------------------
MushroomGorge_3_002:
	BYTE		N18     En3   v092
	BYTE		N18     Gn3 
	BYTE		N18     Cn4 
	BYTE	W18
	BYTE		N08     En3 
	BYTE		N08     Gn3 
	BYTE		N08     Cn4 
	BYTE	W12
	BYTE		N06     En3 
	BYTE		N06     Gn3 
	BYTE		N06     Cn4 
	BYTE	W06
	BYTE		N12     En3 
	BYTE		N12     Gn3 
	BYTE		N12     Cn4 
	BYTE	W12
	BYTE		N06     En3 
	BYTE		N06     Gn3 
	BYTE		N06     Cn4 
	BYTE	W06
	BYTE		N12     En3 
	BYTE		N12     Gn3 
	BYTE		N12     Cn4 
	BYTE	W12
	BYTE		N06     En3 
	BYTE		N06     Gn3 
	BYTE		N06     Cn4 
	BYTE	W18
	BYTE		        En3 
	BYTE		N06     Gn3 
	BYTE		N06     Cn4 
	BYTE	W12
	BYTE	PEND
// 003   ----------------------------------------
	BYTE	PATT
	 POIN2	MushroomGorge_3_002
// 004   ----------------------------------------
MushroomGorge_3_004:
	BYTE		N18     En3   v092
	BYTE		N18     An3 
	BYTE		N18     Cn4 
	BYTE	W18
	BYTE		N08     En3 
	BYTE		N08     An3 
	BYTE		N08     Cn4 
	BYTE	W12
	BYTE		N06     En3 
	BYTE		N06     An3 
	BYTE		N06     Cn4 
	BYTE	W06
	BYTE		N12     En3 
	BYTE		N12     An3 
	BYTE		N12     Cn4 
	BYTE	W12
	BYTE		N06     En3 
	BYTE		N06     Gs3 
	BYTE		N06     Bn3 
	BYTE	W06
	BYTE		N12     En3 
	BYTE		N12     Gs3 
	BYTE		N12     Bn3 
	BYTE	W12
	BYTE		N06     En3 
	BYTE		N06     Gs3 
	BYTE		N06     Bn3 
	BYTE	W18
	BYTE		        En3 
	BYTE		N06     Gs3 
	BYTE		N06     Bn3 
	BYTE	W12
	BYTE	PEND
// 005   ----------------------------------------
	BYTE	PATT
	 POIN2	MushroomGorge_3_001
// 006   ----------------------------------------
	BYTE	PATT
	 POIN2	MushroomGorge_3_002
// 007   ----------------------------------------
	BYTE	PATT
	 POIN2	MushroomGorge_3_002
// 008   ----------------------------------------
MushroomGorge_3_008:
	BYTE		N18     En3   v092
	BYTE		N18     Gs3 
	BYTE		N18     Bn3 
	BYTE	W18
	BYTE		N08     En3 
	BYTE		N08     Gs3 
	BYTE		N08     Bn3 
	BYTE	W12
	BYTE		N06     En3 
	BYTE		N06     Gs3 
	BYTE		N06     Bn3 
	BYTE	W06
	BYTE		N12     En3 
	BYTE		N12     Gs3 
	BYTE		N12     Bn3 
	BYTE	W12
	BYTE		N06     En3 
	BYTE		N06     An3 
	BYTE		N06     Cn4 
	BYTE	W06
	BYTE		N12     En3 
	BYTE		N12     An3 
	BYTE		N12     Cn4 
	BYTE	W12
	BYTE		N06     En3 
	BYTE		N06     An3 
	BYTE		N06     Cn4 
	BYTE	W18
	BYTE		        En3 
	BYTE		N06     An3 
	BYTE		N06     Cn4 
	BYTE	W12
	BYTE	PEND
// 009   ----------------------------------------
	BYTE	W96
// 010   ----------------------------------------
	BYTE	W96
// 011   ----------------------------------------
	BYTE	W96
// 012   ----------------------------------------
	BYTE	W96
// 013   ----------------------------------------
	BYTE	W96
// 014   ----------------------------------------
	BYTE	W96
// 015   ----------------------------------------
	BYTE	W96
// 016   ----------------------------------------
	BYTE	W96
// 017   ----------------------------------------
	BYTE	W96
// 018   ----------------------------------------
	BYTE	W96
// 019   ----------------------------------------
	BYTE	W96
// 020   ----------------------------------------
	BYTE	W96
// 021   ----------------------------------------
	BYTE	W96
// 022   ----------------------------------------
	BYTE	W96
// 023   ----------------------------------------
	BYTE	W96
// 024   ----------------------------------------
	BYTE	W96
// 025   ----------------------------------------
	BYTE	W96
// 026   ----------------------------------------
	BYTE	W96
// 027   ----------------------------------------
	BYTE	W96
// 028   ----------------------------------------
	BYTE	W96
// 029   ----------------------------------------
	BYTE	PATT
	 POIN2	MushroomGorge_3_001
// 030   ----------------------------------------
	BYTE	PATT
	 POIN2	MushroomGorge_3_002
// 031   ----------------------------------------
	BYTE	PATT
	 POIN2	MushroomGorge_3_002
// 032   ----------------------------------------
	BYTE	PATT
	 POIN2	MushroomGorge_3_004
// 033   ----------------------------------------
	BYTE	PATT
	 POIN2	MushroomGorge_3_001
// 034   ----------------------------------------
	BYTE	PATT
	 POIN2	MushroomGorge_3_002
// 035   ----------------------------------------
	BYTE	PATT
	 POIN2	MushroomGorge_3_002
// 036   ----------------------------------------
	BYTE	PATT
	 POIN2	MushroomGorge_3_008
// 037   ----------------------------------------
	BYTE	W96
// 038   ----------------------------------------
	BYTE	W96
// 039   ----------------------------------------
	BYTE	W96
// 040   ----------------------------------------
	BYTE	W96
// 041   ----------------------------------------
	BYTE	W96
// 042   ----------------------------------------
	BYTE	W96
// 043   ----------------------------------------
	BYTE	W96
// 044   ----------------------------------------
	BYTE	W96
// 045   ----------------------------------------
	BYTE	W96
// 046   ----------------------------------------
	BYTE	W96
// 047   ----------------------------------------
	BYTE	W96
// 048   ----------------------------------------
	BYTE	W96
// 049   ----------------------------------------
	BYTE	W96
// 050   ----------------------------------------
	BYTE	W96
// 051   ----------------------------------------
	BYTE	W96
// 052   ----------------------------------------
	BYTE	W96
// 053   ----------------------------------------
	BYTE	W96
// 054   ----------------------------------------
	BYTE	W96
// 055   ----------------------------------------
	BYTE	W96
// 056   ----------------------------------------
	BYTE	W96
	BYTE	GoTo
	 POIN2	MushroomGorge_3_B1
MushroomGorge_3_B2:
// 057   ----------------------------------------
	BYTE	FINE

//**************** Track 4 (Midi-Chn.4) ****************//

MushroomGorge_4:
	BYTE	KEYSH   MushroomGorge_key+0
// 000   ----------------------------------------
	BYTE		VOICE   75
	BYTE		VOL     77*MushroomGorge_mvl/mxv
	BYTE		PAN     c_v+22
	BYTE	W96
MushroomGorge_4_B1:
// 001   ----------------------------------------
	BYTE	W96
// 002   ----------------------------------------
MushroomGorge_4_002:
	BYTE	W24
	BYTE		N06     An3   v100
	BYTE	W06
	BYTE		        Gs3 
	BYTE	W06
	BYTE		        An3 
	BYTE	W06
	BYTE		        Cn4 
	BYTE	W06
	BYTE		        En4 
	BYTE	W12
	BYTE		        Dn4 
	BYTE	W12
	BYTE		        Cn4 
	BYTE	W12
	BYTE		        Bn3 
	BYTE	W12
	BYTE	PEND
// 003   ----------------------------------------
MushroomGorge_4_003:
	BYTE		N04     En4   v100
	BYTE	W04
	BYTE		        Fn4 
	BYTE	W04
	BYTE		        En4 
	BYTE	W04
	BYTE		        Fn4 
	BYTE	W04
	BYTE		        En4 
	BYTE	W04
	BYTE		        Fn4 
	BYTE	W04
	BYTE		        En4 
	BYTE	W04
	BYTE		        Fn4 
	BYTE	W04
	BYTE		        En4 
	BYTE	W04
	BYTE		        Fn4 
	BYTE	W04
	BYTE		        En4 
	BYTE	W04
	BYTE		        Fn4 
	BYTE	W04
	BYTE		        En4 
	BYTE	W04
	BYTE		        Fn4 
	BYTE	W04
	BYTE		        En4 
	BYTE	W04
	BYTE		        Fn4 
	BYTE	W04
	BYTE		        En4 
	BYTE	W04
	BYTE		        Fn4 
	BYTE	W04
	BYTE		        En4 
	BYTE	W04
	BYTE		        Fn4 
	BYTE	W04
	BYTE		        En4 
	BYTE	W04
	BYTE		        Fn4 
	BYTE	W04
	BYTE		        En4 
	BYTE	W04
	BYTE		        Fn4 
	BYTE	W04
	BYTE	PEND
// 004   ----------------------------------------
MushroomGorge_4_004:
	BYTE		N48     Cn4   v100
	BYTE	W48
	BYTE		N08     Bn3 
	BYTE	W48
	BYTE	PEND
// 005   ----------------------------------------
	BYTE	W96
// 006   ----------------------------------------
MushroomGorge_4_006:
	BYTE	W24
	BYTE		N06     An3   v112
	BYTE	W06
	BYTE		        Gs3 
	BYTE	W06
	BYTE		        An3 
	BYTE	W06
	BYTE		        Cn4 
	BYTE	W06
	BYTE		        En4 
	BYTE	W12
	BYTE		        Dn4 
	BYTE	W12
	BYTE		        Cn4 
	BYTE	W12
	BYTE		        Bn3 
	BYTE	W12
	BYTE	PEND
// 007   ----------------------------------------
MushroomGorge_4_007:
	BYTE		N72     Cn4   v116
	BYTE	W72
	BYTE		N12     Gn4 
	BYTE	W12
	BYTE		N06     Fn4 
	BYTE	W06
	BYTE		        En4 
	BYTE	W06
	BYTE	PEND
// 008   ----------------------------------------
MushroomGorge_4_008:
	BYTE		N48     Dn4   v116
	BYTE	W48
	BYTE		N08     Cn4   v124
	BYTE	W12
	BYTE		N06     En3 
	BYTE	W06
	BYTE		        Fn3 
	BYTE	W06
	BYTE		        Gn3 
	BYTE	W06
	BYTE		        An3 
	BYTE	W06
	BYTE		        Bn3 
	BYTE	W06
	BYTE		        Cn4 
	BYTE	W06
	BYTE	PEND
// 009   ----------------------------------------
MushroomGorge_4_009:
	BYTE		N06     Cn4   v124
	BYTE	W06
	BYTE		        Dn4 
	BYTE	W06
	BYTE		        Cn4 
	BYTE	W06
	BYTE		        Bn3 
	BYTE	W06
	BYTE		        An3 
	BYTE	W12
	BYTE		        Cn4 
	BYTE	W06
	BYTE		        Dn4 
	BYTE	W06
	BYTE		        Cn4 
	BYTE	W06
	BYTE		        Bn3 
	BYTE	W06
	BYTE		        An3 
	BYTE	W12
	BYTE		        Cn4 
	BYTE	W06
	BYTE		        Dn4 
	BYTE	W06
	BYTE		        Cn4 
	BYTE	W06
	BYTE		        Bn3 
	BYTE	W06
	BYTE	PEND
// 010   ----------------------------------------
MushroomGorge_4_010:
	BYTE		N06     An3   v124
	BYTE	W12
	BYTE		N06   
	BYTE	W12
	BYTE		N36     Gn3 
	BYTE	W36
	BYTE		N06     Dn3 
	BYTE	W06
	BYTE		        En3 
	BYTE	W06
	BYTE		        Fn3 
	BYTE	W06
	BYTE		        Gn3 
	BYTE	W06
	BYTE		        An3 
	BYTE	W06
	BYTE		        Bn3 
	BYTE	W06
	BYTE	PEND
// 011   ----------------------------------------
	BYTE	PATT
	 POIN2	MushroomGorge_4_009
// 012   ----------------------------------------
MushroomGorge_4_012:
	BYTE		N06     Cn4   v124
	BYTE	W12
	BYTE		        Dn4 
	BYTE	W12
	BYTE		N06   
	BYTE	W06
	BYTE		        En4 
	BYTE	W06
	BYTE		        Fn4 
	BYTE	W12
	BYTE		N36     Gn4 
	BYTE	W42
	BYTE		N06     En4 
	BYTE	W06
	BYTE	PEND
// 013   ----------------------------------------
MushroomGorge_4_013:
	BYTE		N06     Fn4   v124
	BYTE	W06
	BYTE		        Gn4 
	BYTE	W06
	BYTE		        Fn4 
	BYTE	W06
	BYTE		        En4 
	BYTE	W06
	BYTE		        Dn4 
	BYTE	W12
	BYTE		        Fn4 
	BYTE	W06
	BYTE		        Gn4 
	BYTE	W06
	BYTE		        Fn4 
	BYTE	W06
	BYTE		        En4 
	BYTE	W06
	BYTE		        Dn4 
	BYTE	W12
	BYTE		        Fn4 
	BYTE	W06
	BYTE		        Gn4 
	BYTE	W06
	BYTE		        Fn4 
	BYTE	W06
	BYTE		        En4 
	BYTE	W06
	BYTE	PEND
// 014   ----------------------------------------
MushroomGorge_4_014:
	BYTE		N06     Dn4   v124
	BYTE	W12
	BYTE		        Cn4 
	BYTE	W12
	BYTE		        Bn3 
	BYTE	W06
	BYTE		        Cn4 
	BYTE	W12
	BYTE		        Dn4 
	BYTE	W12
	BYTE		        En4 
	BYTE	W06
	BYTE		        Gn4 
	BYTE	W06
	BYTE		        An4 
	BYTE	W06
	BYTE		        Bn4 
	BYTE	W06
	BYTE		        Cn5 
	BYTE	W06
	BYTE		        Dn5 
	BYTE	W06
	BYTE		        Gn4 
	BYTE	W06
	BYTE	PEND
// 015   ----------------------------------------
MushroomGorge_4_015:
	BYTE		N06     An4   v124
	BYTE	W06
	BYTE		        Bn4 
	BYTE	W06
	BYTE		        An4 
	BYTE	W06
	BYTE		        Bn4 
	BYTE	W06
	BYTE		        An4 
	BYTE	W06
	BYTE		        Cn5 
	BYTE	W06
	BYTE		        Dn5 
	BYTE	W06
	BYTE		        An4 
	BYTE	W06
	BYTE		        Gn4 
	BYTE	W24
	BYTE		        En4 
	BYTE	W24
	BYTE	PEND
// 016   ----------------------------------------
	BYTE		TIE     An4   v104
	BYTE	W96
// 017   ----------------------------------------
	BYTE	W84
	BYTE		EOT   
	BYTE	W12
// 018   ----------------------------------------
	BYTE	W96
// 019   ----------------------------------------
	BYTE	W96
// 020   ----------------------------------------
	BYTE	W96
// 021   ----------------------------------------
	BYTE	W72
	BYTE		N24     En4   v124
	BYTE	W24
// 022   ----------------------------------------
MushroomGorge_4_022:
	BYTE		N18     An4   v124
	BYTE	W18
	BYTE		N06   
	BYTE	W06
	BYTE		        Bn4 
	BYTE	W12
	BYTE		        An4 
	BYTE	W12
	BYTE		        Gn4 
	BYTE	W12
	BYTE		        En4 
	BYTE	W12
	BYTE		        An4 
	BYTE	W12
	BYTE		        Bn4 
	BYTE	W12
	BYTE	PEND
// 023   ----------------------------------------
MushroomGorge_4_023:
	BYTE		N18     Cn5   v124
	BYTE	W18
	BYTE		N06   
	BYTE	W06
	BYTE		        Dn5 
	BYTE	W12
	BYTE		        Cn5 
	BYTE	W12
	BYTE		        Bn4 
	BYTE	W12
	BYTE		        Gn4 
	BYTE	W12
	BYTE		        Cn5 
	BYTE	W12
	BYTE		        Dn5 
	BYTE	W12
	BYTE	PEND
// 024   ----------------------------------------
MushroomGorge_4_024:
	BYTE		N24     En5   v124
	BYTE	W24
	BYTE		N06     Fn5 
	BYTE	W12
	BYTE		        Gn5 
	BYTE	W12
	BYTE		        Cn5 
	BYTE	W12
	BYTE		N06   
	BYTE	W12
	BYTE		        Dn5 
	BYTE	W12
	BYTE		        En5 
	BYTE	W12
	BYTE	PEND
// 025   ----------------------------------------
MushroomGorge_4_025:
	BYTE		N12     Fn5   v124
	BYTE	W12
	BYTE		N06     En5 
	BYTE	W06
	BYTE		        Dn5 
	BYTE	W06
	BYTE		N12     Cn5 
	BYTE	W12
	BYTE		N06     Bn4 
	BYTE	W06
	BYTE		        An4 
	BYTE	W06
	BYTE		N12     Gn4 
	BYTE	W12
	BYTE		N06     Fn4 
	BYTE	W06
	BYTE		        En4 
	BYTE	W06
	BYTE		N12     Dn4 
	BYTE	W12
	BYTE		N06     Cn4 
	BYTE	W06
	BYTE		        Bn3 
	BYTE	W06
	BYTE	PEND
// 026   ----------------------------------------
	BYTE		N72     Gn3 
	BYTE	W96
// 027   ----------------------------------------
	BYTE	W96
// 028   ----------------------------------------
	BYTE	W96
// 029   ----------------------------------------
	BYTE	W96
// 030   ----------------------------------------
	BYTE	PATT
	 POIN2	MushroomGorge_4_002
// 031   ----------------------------------------
	BYTE	PATT
	 POIN2	MushroomGorge_4_003
// 032   ----------------------------------------
	BYTE	PATT
	 POIN2	MushroomGorge_4_004
// 033   ----------------------------------------
	BYTE	W96
// 034   ----------------------------------------
	BYTE	PATT
	 POIN2	MushroomGorge_4_006
// 035   ----------------------------------------
	BYTE	PATT
	 POIN2	MushroomGorge_4_007
// 036   ----------------------------------------
	BYTE	PATT
	 POIN2	MushroomGorge_4_008
// 037   ----------------------------------------
	BYTE	PATT
	 POIN2	MushroomGorge_4_009
// 038   ----------------------------------------
	BYTE	PATT
	 POIN2	MushroomGorge_4_010
// 039   ----------------------------------------
	BYTE	PATT
	 POIN2	MushroomGorge_4_009
// 040   ----------------------------------------
	BYTE	PATT
	 POIN2	MushroomGorge_4_012
// 041   ----------------------------------------
	BYTE	PATT
	 POIN2	MushroomGorge_4_013
// 042   ----------------------------------------
	BYTE	PATT
	 POIN2	MushroomGorge_4_014
// 043   ----------------------------------------
	BYTE	PATT
	 POIN2	MushroomGorge_4_015
// 044   ----------------------------------------
	BYTE		TIE     An4   v104
	BYTE	W96
// 045   ----------------------------------------
	BYTE	W84
	BYTE		EOT   
	BYTE	W12
// 046   ----------------------------------------
	BYTE	W96
// 047   ----------------------------------------
	BYTE	W96
// 048   ----------------------------------------
	BYTE	W96
// 049   ----------------------------------------
	BYTE	W72
	BYTE		N24     En4   v124
	BYTE	W24
// 050   ----------------------------------------
	BYTE	PATT
	 POIN2	MushroomGorge_4_022
// 051   ----------------------------------------
	BYTE	PATT
	 POIN2	MushroomGorge_4_023
// 052   ----------------------------------------
	BYTE	PATT
	 POIN2	MushroomGorge_4_024
// 053   ----------------------------------------
	BYTE	PATT
	 POIN2	MushroomGorge_4_025
// 054   ----------------------------------------
	BYTE		N72     Gn3   v124
	BYTE	W96
// 055   ----------------------------------------
	BYTE	W96
// 056   ----------------------------------------
	BYTE	W96
	BYTE	GoTo
	 POIN2	MushroomGorge_4_B1
MushroomGorge_4_B2:
// 057   ----------------------------------------
	BYTE	FINE

//**************** Track 5 (Midi-Chn.5) ****************//

MushroomGorge_5:
	BYTE	KEYSH   MushroomGorge_key+0
// 000   ----------------------------------------
	BYTE		VOICE   29
	BYTE		VOL     67*MushroomGorge_mvl/mxv
	BYTE		PAN     c_v-16
	BYTE	W96
MushroomGorge_5_B1:
// 001   ----------------------------------------
	BYTE	W96
// 002   ----------------------------------------
	BYTE	W96
// 003   ----------------------------------------
	BYTE	W96
// 004   ----------------------------------------
	BYTE	W96
// 005   ----------------------------------------
	BYTE	W96
// 006   ----------------------------------------
	BYTE	W96
// 007   ----------------------------------------
	BYTE	W96
// 008   ----------------------------------------
	BYTE	W96
// 009   ----------------------------------------
MushroomGorge_5_009:
	BYTE		N04     Fn3   v072
	BYTE		N04     An3 
	BYTE		N04     Cn4 
	BYTE	W06
	BYTE		        Fn3   v056
	BYTE		N04     An3 
	BYTE		N04     Cn4 
	BYTE	W06
	BYTE		        Fn3 
	BYTE		N04     An3 
	BYTE		N04     Cn4 
	BYTE	W06
	BYTE		        Fn3 
	BYTE		N04     An3 
	BYTE		N04     Cn4 
	BYTE	W06
	BYTE		        Fn3 
	BYTE		N04     An3 
	BYTE		N04     Cn4 
	BYTE	W06
	BYTE		        Fn3 
	BYTE		N04     An3 
	BYTE		N04     Cn4 
	BYTE	W06
	BYTE		        Fn3   v060
	BYTE		N04     An3 
	BYTE		N04     Cn4 
	BYTE	W06
	BYTE		        Fn3 
	BYTE		N04     An3 
	BYTE		N04     Cn4 
	BYTE	W06
	BYTE		        Fn3 
	BYTE		N04     An3 
	BYTE		N04     Cn4 
	BYTE	W06
	BYTE		        Fn3 
	BYTE		N04     An3 
	BYTE		N04     Cn4 
	BYTE	W06
	BYTE		        Fn3 
	BYTE		N04     An3 
	BYTE		N04     Cn4 
	BYTE	W06
	BYTE		        Fn3   v056
	BYTE		N04     An3 
	BYTE		N04     Cn4 
	BYTE	W06
	BYTE		        Fn3 
	BYTE		N04     An3 
	BYTE		N04     Cn4 
	BYTE	W06
	BYTE		        Fn3   v060
	BYTE		N04     An3 
	BYTE		N04     Cn4 
	BYTE	W06
	BYTE		        Fn3 
	BYTE		N04     An3 
	BYTE		N04     Cn4 
	BYTE	W06
	BYTE		        Fn3 
	BYTE		N04     An3 
	BYTE		N04     Cn4 
	BYTE	W06
	BYTE	PEND
// 010   ----------------------------------------
MushroomGorge_5_010:
	BYTE		N04     En3   v072
	BYTE		N04     Gn3 
	BYTE		N04     Cn4 
	BYTE	W06
	BYTE		        En3   v056
	BYTE		N04     Gn3 
	BYTE		N04     Cn4 
	BYTE	W06
	BYTE		        En3 
	BYTE		N04     Gn3 
	BYTE		N04     Cn4 
	BYTE	W06
	BYTE		        En3 
	BYTE		N04     Gn3 
	BYTE		N04     Cn4 
	BYTE	W06
	BYTE		        En3 
	BYTE		N04     Gn3 
	BYTE		N04     Cn4 
	BYTE	W06
	BYTE		        En3 
	BYTE		N04     Gn3 
	BYTE		N04     Cn4 
	BYTE	W06
	BYTE		        En3 
	BYTE		N04     Gn3 
	BYTE		N04     Cn4 
	BYTE	W06
	BYTE		        En3 
	BYTE		N04     Gn3 
	BYTE		N04     Cn4 
	BYTE	W06
	BYTE		        En3 
	BYTE		N04     Gn3 
	BYTE		N04     Cn4 
	BYTE	W06
	BYTE		        En3 
	BYTE		N04     Gn3 
	BYTE		N04     Cn4 
	BYTE	W06
	BYTE		        En3 
	BYTE		N04     Gn3 
	BYTE		N04     Cn4 
	BYTE	W06
	BYTE		        En3 
	BYTE		N04     Gn3 
	BYTE		N04     Cn4 
	BYTE	W06
	BYTE		        En3 
	BYTE		N04     Gn3 
	BYTE		N04     Cn4 
	BYTE	W06
	BYTE		        En3 
	BYTE		N04     Gn3 
	BYTE		N04     Cn4 
	BYTE	W06
	BYTE		        En3   v060
	BYTE		N04     Gn3 
	BYTE		N04     Cn4 
	BYTE	W12
	BYTE	PEND
// 011   ----------------------------------------
	BYTE	PATT
	 POIN2	MushroomGorge_5_009
// 012   ----------------------------------------
	BYTE	PATT
	 POIN2	MushroomGorge_5_010
// 013   ----------------------------------------
	BYTE	PATT
	 POIN2	MushroomGorge_5_009
// 014   ----------------------------------------
	BYTE	PATT
	 POIN2	MushroomGorge_5_010
// 015   ----------------------------------------
	BYTE	W96
// 016   ----------------------------------------
	BYTE	W96
// 017   ----------------------------------------
	BYTE	W96
// 018   ----------------------------------------
	BYTE	W96
// 019   ----------------------------------------
	BYTE	W96
// 020   ----------------------------------------
	BYTE	W96
// 021   ----------------------------------------
	BYTE	W96
// 022   ----------------------------------------
	BYTE	W96
// 023   ----------------------------------------
	BYTE	W96
// 024   ----------------------------------------
	BYTE	W96
// 025   ----------------------------------------
	BYTE	W96
// 026   ----------------------------------------
	BYTE	W96
// 027   ----------------------------------------
	BYTE	W96
// 028   ----------------------------------------
	BYTE	W96
// 029   ----------------------------------------
	BYTE	W96
// 030   ----------------------------------------
	BYTE	W96
// 031   ----------------------------------------
	BYTE	W96
// 032   ----------------------------------------
	BYTE	W96
// 033   ----------------------------------------
	BYTE	W96
// 034   ----------------------------------------
	BYTE	W96
// 035   ----------------------------------------
	BYTE	W96
// 036   ----------------------------------------
	BYTE	W96
// 037   ----------------------------------------
	BYTE	PATT
	 POIN2	MushroomGorge_5_009
// 038   ----------------------------------------
	BYTE	PATT
	 POIN2	MushroomGorge_5_010
// 039   ----------------------------------------
	BYTE	PATT
	 POIN2	MushroomGorge_5_009
// 040   ----------------------------------------
	BYTE	PATT
	 POIN2	MushroomGorge_5_010
// 041   ----------------------------------------
	BYTE	PATT
	 POIN2	MushroomGorge_5_009
// 042   ----------------------------------------
	BYTE	PATT
	 POIN2	MushroomGorge_5_010
// 043   ----------------------------------------
	BYTE	W96
// 044   ----------------------------------------
	BYTE	W96
// 045   ----------------------------------------
	BYTE	W96
// 046   ----------------------------------------
	BYTE	W96
// 047   ----------------------------------------
	BYTE	W96
// 048   ----------------------------------------
	BYTE	W96
// 049   ----------------------------------------
	BYTE	W96
// 050   ----------------------------------------
	BYTE	W96
// 051   ----------------------------------------
	BYTE	W96
// 052   ----------------------------------------
	BYTE	W96
// 053   ----------------------------------------
	BYTE	W96
// 054   ----------------------------------------
	BYTE	W96
// 055   ----------------------------------------
	BYTE	W96
// 056   ----------------------------------------
	BYTE	W96
	BYTE	GoTo
	 POIN2	MushroomGorge_5_B1
MushroomGorge_5_B2:
// 057   ----------------------------------------
	BYTE	FINE

//**************** Track 6 (Midi-Chn.6) ****************//

MushroomGorge_6:
	BYTE	KEYSH   MushroomGorge_key+0
// 000   ----------------------------------------
	BYTE		VOICE   71
	BYTE		VOL     59*MushroomGorge_mvl/mxv
	BYTE		PAN     c_v+12
	BYTE	W72
	BYTE		N24     En3   v127
	BYTE	W24
MushroomGorge_6_B1:
// 001   ----------------------------------------
MushroomGorge_6_001:
	BYTE		N24     An3   v124
	BYTE	W24
	BYTE		N09     Bn3 
	BYTE	W12
	BYTE		        An3 
	BYTE	W12
	BYTE		        Gn3 
	BYTE	W12
	BYTE		        En3 
	BYTE	W12
	BYTE		        An3 
	BYTE	W12
	BYTE		        Bn3 
	BYTE	W12
	BYTE	PEND
// 002   ----------------------------------------
MushroomGorge_6_002:
	BYTE		N72     Cn4   v124
	BYTE	W72
	BYTE		N12   
	BYTE	W12
	BYTE		N06     Dn4 
	BYTE	W06
	BYTE		        En4 
	BYTE	W06
	BYTE	PEND
// 003   ----------------------------------------
MushroomGorge_6_003:
	BYTE		N72     Cn4   v124
	BYTE	W72
	BYTE		N12     Dn4 
	BYTE	W12
	BYTE		N06     Cn4 
	BYTE	W06
	BYTE		        Bn3 
	BYTE	W06
	BYTE	PEND
// 004   ----------------------------------------
MushroomGorge_6_004:
	BYTE		N48     An3   v124
	BYTE	W48
	BYTE		N12     Gn3 
	BYTE	W24
	BYTE		N24     En3 
	BYTE	W24
	BYTE	PEND
// 005   ----------------------------------------
MushroomGorge_6_005:
	BYTE		N24     An3   v124
	BYTE	W24
	BYTE		N09     Bn3 
	BYTE	W12
	BYTE		        An3 
	BYTE	W12
	BYTE		        Gn3 
	BYTE	W12
	BYTE		        An3 
	BYTE	W12
	BYTE		N09   
	BYTE	W12
	BYTE		        Bn3 
	BYTE	W12
	BYTE	PEND
// 006   ----------------------------------------
	BYTE	PATT
	 POIN2	MushroomGorge_6_002
// 007   ----------------------------------------
	BYTE	PATT
	 POIN2	MushroomGorge_6_003
// 008   ----------------------------------------
MushroomGorge_6_008:
	BYTE		N48     Bn3   v124
	BYTE		N48     Dn4 
	BYTE	W48
	BYTE		N12     An3 
	BYTE		N12     Cn4 
	BYTE	W24
	BYTE		N06     En3 
	BYTE	W24
	BYTE	PEND
// 009   ----------------------------------------
MushroomGorge_6_009:
	BYTE		N06     An3   v116
	BYTE	W06
	BYTE		        Bn3 
	BYTE	W06
	BYTE		        An3   v112
	BYTE	W06
	BYTE		        Gn3 
	BYTE	W06
	BYTE		        En3 
	BYTE	W12
	BYTE		        En3   v116
	BYTE	W06
	BYTE		        Gn3   v112
	BYTE	W06
	BYTE		        An3 
	BYTE	W06
	BYTE		        Bn3   v116
	BYTE	W06
	BYTE		        An3 
	BYTE	W06
	BYTE		        Gn3 
	BYTE	W06
	BYTE		        En3 
	BYTE	W06
	BYTE		        Fn3 
	BYTE	W06
	BYTE		        Gn3 
	BYTE	W06
	BYTE		        An3 
	BYTE	W06
	BYTE	PEND
// 010   ----------------------------------------
	BYTE		N72     Cn4   v108
	BYTE	W96
// 011   ----------------------------------------
MushroomGorge_6_011:
	BYTE		N06     An3   v116
	BYTE	W06
	BYTE		        Bn3 
	BYTE	W06
	BYTE		        An3 
	BYTE	W06
	BYTE		        Gn3 
	BYTE	W06
	BYTE		        En3 
	BYTE	W12
	BYTE		        En3   v112
	BYTE	W06
	BYTE		        Gn3 
	BYTE	W06
	BYTE		        An3   v116
	BYTE	W06
	BYTE		        Bn3 
	BYTE	W06
	BYTE		        An3 
	BYTE	W06
	BYTE		        Gn3 
	BYTE	W06
	BYTE		        En3 
	BYTE	W06
	BYTE		        Fn3   v120
	BYTE	W06
	BYTE		        Gn3 
	BYTE	W06
	BYTE		        An3 
	BYTE	W06
	BYTE	PEND
// 012   ----------------------------------------
MushroomGorge_6_012:
	BYTE		N72     Gn3   v104
	BYTE	W90
	BYTE		N06   
	BYTE	W06
	BYTE	PEND
// 013   ----------------------------------------
	BYTE	PATT
	 POIN2	MushroomGorge_6_009
// 014   ----------------------------------------
	BYTE		N72     Cn4   v108
	BYTE	W96
// 015   ----------------------------------------
MushroomGorge_6_015:
	BYTE		N06     An4   v124
	BYTE	W06
	BYTE		        Bn4 
	BYTE	W06
	BYTE		        An4 
	BYTE	W06
	BYTE		        Bn4 
	BYTE	W06
	BYTE		        An4 
	BYTE	W06
	BYTE		        Cn5 
	BYTE	W06
	BYTE		        Dn5 
	BYTE	W06
	BYTE		        An4 
	BYTE	W06
	BYTE		        Gn4 
	BYTE		N06     An4   v120
	BYTE	W06
	BYTE		        Bn4 
	BYTE	W06
	BYTE		        An4 
	BYTE	W06
	BYTE		        Bn4 
	BYTE	W06
	BYTE		        En4   v124
	BYTE		N06     An4   v120
	BYTE	W06
	BYTE		        Cn5 
	BYTE	W06
	BYTE		        Dn5 
	BYTE	W06
	BYTE		        Gn4 
	BYTE	W06
	BYTE	PEND
// 016   ----------------------------------------
MushroomGorge_6_016:
	BYTE		TIE     An4   v104
	BYTE		N06     Cn5   v120
	BYTE	W06
	BYTE		        Bn4 
	BYTE	W12
	BYTE		        Gn4   v112
	BYTE	W06
	BYTE		        Bn4   v108
	BYTE	W12
	BYTE		        Gn4 
	BYTE	W06
	BYTE		        Fn4   v104
	BYTE	W06
	BYTE		        Gn4   v100
	BYTE	W06
	BYTE		        Fn4   v096
	BYTE	W06
	BYTE		        En4   v092
	BYTE	W06
	BYTE		        Dn4 
	BYTE	W06
	BYTE		        Gn4 
	BYTE	W06
	BYTE		        Fn4 
	BYTE	W06
	BYTE		        En4 
	BYTE	W06
	BYTE		        Dn4   v088
	BYTE	W06
	BYTE	PEND
// 017   ----------------------------------------
MushroomGorge_6_017:
	BYTE		N12     Cn4   v088
	BYTE	W16
	BYTE		N08   
	BYTE	W08
	BYTE		N08   
	BYTE	W08
	BYTE		N42     Cn4   v076
	BYTE	W52
	BYTE	PEND
	BYTE		EOT     An4 
	BYTE	W12
// 018   ----------------------------------------
	BYTE	W96
// 019   ----------------------------------------
	BYTE	W96
// 020   ----------------------------------------
	BYTE	W96
// 021   ----------------------------------------
	BYTE	W72
	BYTE		N24     En3   v124
	BYTE	W24
// 022   ----------------------------------------
MushroomGorge_6_022:
	BYTE		N18     An3   v124
	BYTE	W18
	BYTE		N06   
	BYTE	W06
	BYTE		        Bn3 
	BYTE	W12
	BYTE		        An3 
	BYTE	W12
	BYTE		        Gn3 
	BYTE	W12
	BYTE		        En3 
	BYTE	W12
	BYTE		        An3 
	BYTE	W12
	BYTE		        Bn3 
	BYTE	W12
	BYTE	PEND
// 023   ----------------------------------------
MushroomGorge_6_023:
	BYTE		N18     Cn4   v124
	BYTE	W18
	BYTE		N06   
	BYTE	W06
	BYTE		        Dn4 
	BYTE	W12
	BYTE		        Cn4 
	BYTE	W12
	BYTE		        Bn3 
	BYTE	W12
	BYTE		        Gn3 
	BYTE	W12
	BYTE		        Cn4 
	BYTE	W12
	BYTE		        Dn4 
	BYTE	W12
	BYTE	PEND
// 024   ----------------------------------------
MushroomGorge_6_024:
	BYTE		N24     En4   v124
	BYTE	W24
	BYTE		N06     Fn4 
	BYTE	W12
	BYTE		        Gn4 
	BYTE	W12
	BYTE		        Cn4 
	BYTE	W12
	BYTE		N06   
	BYTE	W12
	BYTE		        Dn4 
	BYTE	W12
	BYTE		        En4 
	BYTE	W12
	BYTE	PEND
// 025   ----------------------------------------
MushroomGorge_6_025:
	BYTE		N12     Fn4   v124
	BYTE	W12
	BYTE		N06     En4 
	BYTE	W06
	BYTE		        Dn4 
	BYTE	W06
	BYTE		N12     Cn4 
	BYTE	W12
	BYTE		N06     Bn3 
	BYTE	W06
	BYTE		        An3 
	BYTE	W06
	BYTE		N12     Gn3 
	BYTE	W12
	BYTE		N06     Fn3 
	BYTE	W06
	BYTE		        En3 
	BYTE	W06
	BYTE		N12     Dn3 
	BYTE	W12
	BYTE		N06     Cn3 
	BYTE	W06
	BYTE		        Bn2 
	BYTE	W06
	BYTE	PEND
// 026   ----------------------------------------
MushroomGorge_6_026:
	BYTE		N72     Gn2   v124
	BYTE	W60
	BYTE		N04     Dn5 
	BYTE	W04
	BYTE		        En5 
	BYTE	W04
	BYTE		        Fn5 
	BYTE	W04
	BYTE		N08     Gn5 
	BYTE	W24
	BYTE	PEND
// 027   ----------------------------------------
	BYTE	W96
// 028   ----------------------------------------
	BYTE	W72
	BYTE		N24     En3   v127
	BYTE	W24
// 029   ----------------------------------------
	BYTE	PATT
	 POIN2	MushroomGorge_6_001
// 030   ----------------------------------------
	BYTE	PATT
	 POIN2	MushroomGorge_6_002
// 031   ----------------------------------------
	BYTE	PATT
	 POIN2	MushroomGorge_6_003
// 032   ----------------------------------------
	BYTE	PATT
	 POIN2	MushroomGorge_6_004
// 033   ----------------------------------------
	BYTE	PATT
	 POIN2	MushroomGorge_6_005
// 034   ----------------------------------------
	BYTE	PATT
	 POIN2	MushroomGorge_6_002
// 035   ----------------------------------------
	BYTE	PATT
	 POIN2	MushroomGorge_6_003
// 036   ----------------------------------------
	BYTE	PATT
	 POIN2	MushroomGorge_6_008
// 037   ----------------------------------------
	BYTE	PATT
	 POIN2	MushroomGorge_6_009
// 038   ----------------------------------------
	BYTE		N72     Cn4   v108
	BYTE	W96
// 039   ----------------------------------------
	BYTE	PATT
	 POIN2	MushroomGorge_6_011
// 040   ----------------------------------------
	BYTE	PATT
	 POIN2	MushroomGorge_6_012
// 041   ----------------------------------------
	BYTE	PATT
	 POIN2	MushroomGorge_6_009
// 042   ----------------------------------------
	BYTE		N72     Cn4   v108
	BYTE	W96
// 043   ----------------------------------------
	BYTE	PATT
	 POIN2	MushroomGorge_6_015
// 044   ----------------------------------------
	BYTE	PATT
	 POIN2	MushroomGorge_6_016
// 045   ----------------------------------------
	BYTE	PATT
	 POIN2	MushroomGorge_6_017
	BYTE		EOT     An4 
	BYTE	W12
// 046   ----------------------------------------
	BYTE	W96
// 047   ----------------------------------------
	BYTE	W96
// 048   ----------------------------------------
	BYTE	W96
// 049   ----------------------------------------
	BYTE	W72
	BYTE		N24     En3   v124
	BYTE	W24
// 050   ----------------------------------------
	BYTE	PATT
	 POIN2	MushroomGorge_6_022
// 051   ----------------------------------------
	BYTE	PATT
	 POIN2	MushroomGorge_6_023
// 052   ----------------------------------------
	BYTE	PATT
	 POIN2	MushroomGorge_6_024
// 053   ----------------------------------------
	BYTE	PATT
	 POIN2	MushroomGorge_6_025
// 054   ----------------------------------------
	BYTE	PATT
	 POIN2	MushroomGorge_6_026
// 055   ----------------------------------------
	BYTE	W96
// 056   ----------------------------------------
	BYTE	W72
	BYTE		N24     En3   v127
	BYTE	W24
	BYTE	GoTo
	 POIN2	MushroomGorge_6_B1
MushroomGorge_6_B2:
// 057   ----------------------------------------
	BYTE	FINE

//**************** Track 7 (Midi-Chn.7) ****************//

MushroomGorge_7:
	BYTE	KEYSH   MushroomGorge_key+0
// 000   ----------------------------------------
	BYTE		VOICE   123
	BYTE		VOL     63*MushroomGorge_mvl/mxv
	BYTE		PAN     c_v-3
	BYTE		N12     Cs1   v127
	BYTE		N12     Fn1 
	BYTE		N12     Fs1 
	BYTE		N12     Gn1 
	BYTE	W12
	BYTE		        Fs1 
	BYTE	W03
	BYTE		N03     An1 
	BYTE	W01
	BYTE		N01     Cn2 
	BYTE	W02
	BYTE		N06     Cs1 
	BYTE		N09     An1 
	BYTE		N10     Cn2 
	BYTE	W06
	BYTE		N06     Cs1 
	BYTE		N12     Fs1 
	BYTE	W06
	BYTE		N06     Gn1 
	BYTE		N12     An1 
	BYTE	W06
	BYTE		        Cs1 
	BYTE		N12     Fn1 
	BYTE		N12     Fs1 
	BYTE		N06     Gn1 
	BYTE	W12
	BYTE		N12     Cs1 
	BYTE		N12     Dn1 
	BYTE		N12     Fn1   v124
	BYTE		N12     Fs1   v127
	BYTE		N12     Gn1 
	BYTE	W18
	BYTE		N06     Cn1 
	BYTE	W06
	BYTE		N06   
	BYTE	W12
	BYTE		N12   
	BYTE	W12
MushroomGorge_7_B1:
// 001   ----------------------------------------
MushroomGorge_7_001:
	BYTE		N12     Cs1   v116
	BYTE		N12     Fn1 
	BYTE		N12     Fs1 
	BYTE		N12     Gn1 
	BYTE	W12
	BYTE		        Fs1 
	BYTE	W06
	BYTE		N06     Cs1   v112
	BYTE		N06     Fn1   v116
	BYTE		N06     Gn1 
	BYTE	W06
	BYTE		        Cs1   v112
	BYTE		N06     Fn1   v116
	BYTE		N12     Fs1   v112
	BYTE		N06     Gn1   v116
	BYTE	W12
	BYTE		N12     Cs1   v112
	BYTE		N12     Fn1   v116
	BYTE		N12     Fs1   v112
	BYTE		N12     Gn1   v116
	BYTE	W12
	BYTE		        Cs1   v112
	BYTE		N06     Fn1   v116
	BYTE		N12     Fs1   v112
	BYTE		N06     Gn1   v116
	BYTE	W06
	BYTE		        Fn1 
	BYTE		N06     Gn1 
	BYTE	W06
	BYTE		N12     Fs1   v112
	BYTE	W06
	BYTE		N06     Cs1 
	BYTE		N06     Fn1   v116
	BYTE		N06     Gn1 
	BYTE	W06
	BYTE		        Cs1   v112
	BYTE		N06     Fn1   v116
	BYTE		N12     Fs1   v112
	BYTE		N06     Gn1   v116
	BYTE	W12
	BYTE		N12     Cs1   v112
	BYTE		N12     Dn1   v116
	BYTE		N12     Fn1 
	BYTE		N12     Fs1   v112
	BYTE		N12     Gn1   v116
	BYTE	W12
	BYTE	PEND
// 002   ----------------------------------------
	BYTE	PATT
	 POIN2	MushroomGorge_7_001
// 003   ----------------------------------------
	BYTE	PATT
	 POIN2	MushroomGorge_7_001
// 004   ----------------------------------------
	BYTE	PATT
	 POIN2	MushroomGorge_7_001
// 005   ----------------------------------------
	BYTE	PATT
	 POIN2	MushroomGorge_7_001
// 006   ----------------------------------------
	BYTE	PATT
	 POIN2	MushroomGorge_7_001
// 007   ----------------------------------------
	BYTE	PATT
	 POIN2	MushroomGorge_7_001
// 008   ----------------------------------------
	BYTE	PATT
	 POIN2	MushroomGorge_7_001
// 009   ----------------------------------------
	BYTE	PATT
	 POIN2	MushroomGorge_7_001
// 010   ----------------------------------------
	BYTE	PATT
	 POIN2	MushroomGorge_7_001
// 011   ----------------------------------------
	BYTE	PATT
	 POIN2	MushroomGorge_7_001
// 012   ----------------------------------------
	BYTE	PATT
	 POIN2	MushroomGorge_7_001
// 013   ----------------------------------------
	BYTE	PATT
	 POIN2	MushroomGorge_7_001
// 014   ----------------------------------------
	BYTE	PATT
	 POIN2	MushroomGorge_7_001
// 015   ----------------------------------------
MushroomGorge_7_015:
	BYTE		N24     Fn1   v120
	BYTE		N24     Gn1 
	BYTE	W48
	BYTE		        Fn1 
	BYTE		N24     Gn1 
	BYTE	W48
	BYTE	PEND
// 016   ----------------------------------------
MushroomGorge_7_016:
	BYTE		N12     Cs1   v116
	BYTE		N12     Fn1 
	BYTE		N12     Fs1 
	BYTE		N12     Gn1 
	BYTE	W12
	BYTE		        Ds1   v127
	BYTE		N12     Fs1   v116
	BYTE	W04
	BYTE		N02     Fn1   v100
	BYTE		N02     Gn1 
	BYTE	W02
	BYTE		N06     Cs1   v112
	BYTE		N02     Fn1   v116
	BYTE		N02     Gn1 
	BYTE	W06
	BYTE		N06     Cs1   v112
	BYTE		N06     Fn1   v116
	BYTE		N12     Fs1   v112
	BYTE		N06     Gn1   v116
	BYTE	W12
	BYTE		N12     Cs1   v112
	BYTE		N12     Ds1   v127
	BYTE		N12     Fn1   v116
	BYTE		N12     Fs1   v112
	BYTE		N12     Gn1   v116
	BYTE	W12
	BYTE		        Cs1   v112
	BYTE		N06     Fn1   v116
	BYTE		N12     Fs1   v112
	BYTE		N06     Gn1   v116
	BYTE	W06
	BYTE		        Fn1 
	BYTE		N06     Gn1 
	BYTE	W06
	BYTE		N12     Ds1   v127
	BYTE		N12     Fs1   v112
	BYTE	W06
	BYTE		N06     Cs1 
	BYTE		N06     Fn1   v116
	BYTE		N06     Gn1 
	BYTE	W06
	BYTE		        Cs1   v112
	BYTE		N06     Fn1   v116
	BYTE		N12     Fs1   v112
	BYTE		N06     Gn1   v116
	BYTE	W12
	BYTE		N12     Cs1   v112
	BYTE		N12     Dn1   v116
	BYTE		N12     Ds1   v127
	BYTE		N12     Fn1   v116
	BYTE		N12     Fs1   v112
	BYTE		N12     Gn1   v116
	BYTE	W12
	BYTE	PEND
// 017   ----------------------------------------
	BYTE	PATT
	 POIN2	MushroomGorge_7_016
// 018   ----------------------------------------
	BYTE	PATT
	 POIN2	MushroomGorge_7_016
// 019   ----------------------------------------
	BYTE	PATT
	 POIN2	MushroomGorge_7_016
// 020   ----------------------------------------
	BYTE	PATT
	 POIN2	MushroomGorge_7_016
// 021   ----------------------------------------
MushroomGorge_7_021:
	BYTE		N12     Cs1   v088
	BYTE		N08     Dn1 
	BYTE		N12     Fn1 
	BYTE		N12     Fs1 
	BYTE		N08     Fs3 
	BYTE	W08
	BYTE		        Dn1 
	BYTE		N08     Fs3 
	BYTE	W04
	BYTE		N12     Fs1 
	BYTE	W04
	BYTE		N08     Dn1 
	BYTE		N02     Fn1 
	BYTE		N08     Fs3 
	BYTE	W02
	BYTE		N06     Cs1 
	BYTE		N02     Fn1 
	BYTE	W06
	BYTE		N06     Cs1   v092
	BYTE		N08     Dn1 
	BYTE		N06     Fn1 
	BYTE		N12     Fs1 
	BYTE		N08     Fs3 
	BYTE	W08
	BYTE		        Dn1 
	BYTE		N08     Fs3 
	BYTE	W04
	BYTE		N12     Cs1   v096
	BYTE		N12     Fn1 
	BYTE		N12     Fs1 
	BYTE	W04
	BYTE		N08     Dn1 
	BYTE		N08     Fs3 
	BYTE	W08
	BYTE		N12     Cs1   v100
	BYTE		N08     Dn1 
	BYTE		N06     Fn1 
	BYTE		N12     Fs1 
	BYTE		N08     Fs3 
	BYTE	W06
	BYTE		N06     Fn1   v104
	BYTE	W02
	BYTE		N08     Dn1 
	BYTE		N08     Fs3 
	BYTE	W08
	BYTE		        Dn1   v112
	BYTE		N08     Fs3 
	BYTE	W02
	BYTE		N06     Cs1   v116
	BYTE		N06     Fn1 
	BYTE	W06
	BYTE		        Cs1   v112
	BYTE		N06     Fn1   v116
	BYTE		N08     Fs3   v120
	BYTE	W24
	BYTE	PEND
// 022   ----------------------------------------
MushroomGorge_7_022:
	BYTE		N06     Cs1   v124
	BYTE		N06     Fn1 
	BYTE		N06     Gn1 
	BYTE	W24
	BYTE		        Cs1 
	BYTE	W12
	BYTE		        Fn1 
	BYTE		N06     Gn1 
	BYTE	W12
	BYTE		        Cs1 
	BYTE	W18
	BYTE		N06   
	BYTE	W06
	BYTE		N06   
	BYTE	W12
	BYTE		N06   
	BYTE	W12
	BYTE	PEND
// 023   ----------------------------------------
MushroomGorge_7_023:
	BYTE		N06     Cs1   v124
	BYTE		N06     Gn1 
	BYTE		N06     Fs3 
	BYTE	W18
	BYTE		        Gn1 
	BYTE	W06
	BYTE		        Cs1 
	BYTE		N06     Gn1 
	BYTE	W06
	BYTE		N06   
	BYTE	W06
	BYTE		N06   
	BYTE	W12
	BYTE		        Cs1 
	BYTE	W06
	BYTE		        Gn1 
	BYTE	W06
	BYTE		N06   
	BYTE	W06
	BYTE		        Cs1 
	BYTE		N06     Gn1 
	BYTE	W06
	BYTE		        Cs1 
	BYTE		N06     Gn1 
	BYTE	W12
	BYTE		        Cs1 
	BYTE		N06     Gn1 
	BYTE	W12
	BYTE	PEND
// 024   ----------------------------------------
	BYTE	PATT
	 POIN2	MushroomGorge_7_016
// 025   ----------------------------------------
	BYTE	PATT
	 POIN2	MushroomGorge_7_016
// 026   ----------------------------------------
MushroomGorge_7_026:
	BYTE		N12     Cs1   v088
	BYTE		N08     Dn1 
	BYTE		N12     Fn1 
	BYTE		N12     Fs1 
	BYTE		N08     Fs3 
	BYTE	W08
	BYTE		        Dn1 
	BYTE		N08     Fs3 
	BYTE	W04
	BYTE		N12     Ds1   v127
	BYTE		N12     Fs1   v088
	BYTE	W04
	BYTE		N08     Dn1 
	BYTE		N02     Fn1 
	BYTE		N08     Fs3 
	BYTE	W02
	BYTE		N06     Cs1 
	BYTE		N02     Fn1 
	BYTE	W06
	BYTE		N06     Cs1   v092
	BYTE		N08     Dn1 
	BYTE		N06     Fn1 
	BYTE		N12     Fs1 
	BYTE		N08     Fs3 
	BYTE	W08
	BYTE		        Dn1 
	BYTE		N08     Fs3 
	BYTE	W04
	BYTE		N12     Cs1   v096
	BYTE		N12     Ds1   v127
	BYTE		N12     Fn1   v096
	BYTE		N12     Fs1 
	BYTE	W04
	BYTE		N08     Dn1 
	BYTE		N08     Fs3 
	BYTE	W08
	BYTE		N12     Cs1   v100
	BYTE		N08     Dn1 
	BYTE		N06     Fn1 
	BYTE		N12     Fs1 
	BYTE		N08     Fs3 
	BYTE	W06
	BYTE		N06     Fn1   v104
	BYTE	W02
	BYTE		N08     Dn1 
	BYTE		N08     Fs3 
	BYTE	W04
	BYTE		N12     Ds1   v127
	BYTE	W04
	BYTE		N08     Dn1   v112
	BYTE		N08     Fs3 
	BYTE	W02
	BYTE		N06     Cs1   v116
	BYTE		N06     Fn1 
	BYTE	W06
	BYTE		        Cs1   v112
	BYTE		N06     Fn1   v116
	BYTE		N08     Fs3   v120
	BYTE	W24
	BYTE	PEND
// 027   ----------------------------------------
	BYTE	PATT
	 POIN2	MushroomGorge_7_016
// 028   ----------------------------------------
MushroomGorge_7_028:
	BYTE		N12     Cs1   v116
	BYTE		N12     Fn1 
	BYTE		N12     Fs1 
	BYTE		N12     Gn1 
	BYTE	W12
	BYTE		        Ds1   v127
	BYTE		N12     Fs1   v116
	BYTE	W04
	BYTE		N02     Fn1   v100
	BYTE		N02     Gn1 
	BYTE	W02
	BYTE		N06     Cs1   v112
	BYTE		N02     Fn1   v116
	BYTE		N02     Gn1 
	BYTE	W06
	BYTE		N06     Cs1   v112
	BYTE		N06     Fn1   v116
	BYTE		N12     Fs1   v112
	BYTE		N06     Gn1   v116
	BYTE	W12
	BYTE		N12     Cs1   v112
	BYTE		N12     Ds1   v127
	BYTE		N12     Fn1   v116
	BYTE		N12     Fs1   v112
	BYTE		N12     Gn1   v116
	BYTE	W12
	BYTE		        Cs1   v112
	BYTE		N12     Fn1   v116
	BYTE		N12     Fs1   v112
	BYTE	W18
	BYTE		N06     Cs1 
	BYTE	W06
	BYTE		N06   
	BYTE	W12
	BYTE		N12   
	BYTE	W12
	BYTE	PEND
// 029   ----------------------------------------
	BYTE	PATT
	 POIN2	MushroomGorge_7_001
// 030   ----------------------------------------
	BYTE	PATT
	 POIN2	MushroomGorge_7_001
// 031   ----------------------------------------
	BYTE	PATT
	 POIN2	MushroomGorge_7_001
// 032   ----------------------------------------
	BYTE	PATT
	 POIN2	MushroomGorge_7_001
// 033   ----------------------------------------
	BYTE	PATT
	 POIN2	MushroomGorge_7_001
// 034   ----------------------------------------
	BYTE	PATT
	 POIN2	MushroomGorge_7_001
// 035   ----------------------------------------
	BYTE	PATT
	 POIN2	MushroomGorge_7_001
// 036   ----------------------------------------
	BYTE	PATT
	 POIN2	MushroomGorge_7_001
// 037   ----------------------------------------
	BYTE	PATT
	 POIN2	MushroomGorge_7_001
// 038   ----------------------------------------
	BYTE	PATT
	 POIN2	MushroomGorge_7_001
// 039   ----------------------------------------
	BYTE	PATT
	 POIN2	MushroomGorge_7_001
// 040   ----------------------------------------
	BYTE	PATT
	 POIN2	MushroomGorge_7_001
// 041   ----------------------------------------
	BYTE	PATT
	 POIN2	MushroomGorge_7_001
// 042   ----------------------------------------
	BYTE	PATT
	 POIN2	MushroomGorge_7_001
// 043   ----------------------------------------
	BYTE	PATT
	 POIN2	MushroomGorge_7_015
// 044   ----------------------------------------
	BYTE	PATT
	 POIN2	MushroomGorge_7_016
// 045   ----------------------------------------
	BYTE	PATT
	 POIN2	MushroomGorge_7_016
// 046   ----------------------------------------
	BYTE	PATT
	 POIN2	MushroomGorge_7_016
// 047   ----------------------------------------
	BYTE	PATT
	 POIN2	MushroomGorge_7_016
// 048   ----------------------------------------
	BYTE	PATT
	 POIN2	MushroomGorge_7_016
// 049   ----------------------------------------
	BYTE	PATT
	 POIN2	MushroomGorge_7_021
// 050   ----------------------------------------
	BYTE	PATT
	 POIN2	MushroomGorge_7_022
// 051   ----------------------------------------
	BYTE	PATT
	 POIN2	MushroomGorge_7_023
// 052   ----------------------------------------
	BYTE	PATT
	 POIN2	MushroomGorge_7_016
// 053   ----------------------------------------
	BYTE	PATT
	 POIN2	MushroomGorge_7_016
// 054   ----------------------------------------
	BYTE	PATT
	 POIN2	MushroomGorge_7_026
// 055   ----------------------------------------
	BYTE	PATT
	 POIN2	MushroomGorge_7_016
// 056   ----------------------------------------
	BYTE	PATT
	 POIN2	MushroomGorge_7_028
	BYTE	GoTo
	 POIN2	MushroomGorge_7_B1
MushroomGorge_7_B2:
// 057   ----------------------------------------
	BYTE	FINE

//******************************************************//
	ALIGN 4

MushroomGorge:
	BYTE	7	// NumTrks
	BYTE	0	// NumBlks
	BYTE	MushroomGorge_pri	// Priority
	BYTE	MushroomGorge_rev	// Reverb.

	POIN2	MushroomGorge_grp

	POIN2	MushroomGorge_1
	POIN2	MushroomGorge_2
	POIN2	MushroomGorge_3
	POIN2	MushroomGorge_4
	POIN2	MushroomGorge_5
	POIN2	MushroomGorge_6
	POIN2	MushroomGorge_7

	
