//Event file generated from Sappy .s format.
	#include "MPlayDef.event"

	#define	NeverGonnaGiveYouUp_grp  voicegroup000
	#define	NeverGonnaGiveYouUp_pri  0
	#define	NeverGonnaGiveYouUp_rev  0
	#define	NeverGonnaGiveYouUp_mvl  127
	#define	NeverGonnaGiveYouUp_key  0
	#define	NeverGonnaGiveYouUp_tbs  1
	#define	NeverGonnaGiveYouUp_exg  0
	#define	NeverGonnaGiveYouUp_cmp  1

	// .rodata
	//	NeverGonnaGiveYouUp
	ALIGN 4


//**************** Track 1 (Midi-Chn.0) ****************//

NeverGonnaGiveYouUp_001:
// 000   ----------------------------------------
 BYTE   KEYSH   NeverGonnaGiveYouUp_key+0
 BYTE   TEMPO   118*NeverGonnaGiveYouUp_tbs/2
 BYTE   VOICE   127
 BYTE   PAN   c_v+0
 BYTE   VOL   31*NeverGonnaGiveYouUp_mvl/mxv
 BYTE   N01  Cn2  v104
 BYTE   W06
 BYTE   Bn1  v108
 BYTE   W06
 BYTE   An1  v112
 BYTE   W06
 BYTE   N01
 BYTE   W06
 BYTE   Gn1
 BYTE   W06
 BYTE   Fn1  v104
 BYTE   W06
 BYTE   Cn1  v108
 BYTE   N01  Fs1  v084
 BYTE   W12
 BYTE   As1  v092
 BYTE   W12
 BYTE   Dn1  v104
 BYTE   N01  Ds1  v088
 BYTE   N01  Fs1  v084
 BYTE   W12
 BYTE   Fs1  v088
 BYTE   W06
 BYTE   Fs1  v084
 BYTE   W06
 BYTE   Cn1  v104
 BYTE   N01  Fs1  v084
 BYTE   W12
// 001   ----------------------------------------
 BYTE   As1  v092
 BYTE   W12
 BYTE   Dn1  v108
 BYTE   N01  Ds1  v084
 BYTE   N01  Fs1  v080
 BYTE   W12
 BYTE   As1  v092
 BYTE   W12
 BYTE   Cn1  v104
 BYTE   N01  Fs1  v084
 BYTE   W12
 BYTE   As1  v088
 BYTE   W12
 BYTE   Dn1  v104
 BYTE   N01  Ds1  v088
 BYTE   N01  Fs1
 BYTE   W12
 BYTE   As1  v092
 BYTE   W12
 BYTE   Cn1  v104
 BYTE   N01  Fs1  v084
 BYTE   W12
// 002   ----------------------------------------
 BYTE   As1  v092
 BYTE   W12
 BYTE   Dn1  v108
 BYTE   N01  Ds1  v088
 BYTE   N01  Fs1  v084
 BYTE   W12
 BYTE   As1  v088
 BYTE   W12
 BYTE   Cn1  v104
 BYTE   N01  Fs1  v084
 BYTE   W12
 BYTE   As1  v088
 BYTE   W12
 BYTE   Dn1  v108
 BYTE   N01  Ds1  v084
 BYTE   N01  Fs1
 BYTE   W12
 BYTE   N01
 BYTE   W06
 BYTE   N01
 BYTE   W06
 BYTE   Cn1  v112
 BYTE   N01  Fs1  v084
 BYTE   W12
// 003   ----------------------------------------
 BYTE   As1  v088
 BYTE   W12
 BYTE   Dn1  v108
 BYTE   N01  Ds1  v088
 BYTE   N01  Fs1
 BYTE   W12
 BYTE   As1  v092
 BYTE   W12
 BYTE   Cn1  v108
 BYTE   N01  Fs1  v084
 BYTE   W12
 BYTE   As1  v088
 BYTE   W12
 BYTE   Dn1  v104
 BYTE   N01  Ds1  v088
 BYTE   N01  Fs1  v080
 BYTE   W12
 BYTE   As1  v092
 BYTE   W12
 BYTE   Cn1  v108
 BYTE   N01  Fs1  v084
 BYTE   W12
// 004   ----------------------------------------
 BYTE   As1  v092
 BYTE   W12
 BYTE   Dn1  v104
 BYTE   N01  Ds1  v088
 BYTE   N01  Fs1  v084
 BYTE   W12
 BYTE   As1  v092
 BYTE   W12
 BYTE   Cn1  v104
 BYTE   N01  Fs1  v084
 BYTE   W12
 BYTE   As1  v088
 BYTE   W12
 BYTE   Dn1  v104
 BYTE   N01  Ds1  v084
 BYTE   N01  Fs1
 BYTE   W12
 BYTE   Fs1  v088
 BYTE   W06
 BYTE   Fs1  v084
 BYTE   W06
 BYTE   Cn1  v104
 BYTE   N01  Fs1  v084
 BYTE   W12
// 005   ----------------------------------------
 BYTE   As1  v092
 BYTE   W12
 BYTE   Dn1  v104
 BYTE   N01  Ds1  v088
 BYTE   N01  Fs1
 BYTE   W12
 BYTE   As1  v092
 BYTE   W12
 BYTE   Cn1  v108
 BYTE   N01  Fs1  v084
 BYTE   W12
 BYTE   As1  v092
 BYTE   W12
 BYTE   Dn1  v108
 BYTE   N01  Ds1  v088
 BYTE   N01  Fs1
 BYTE   W12
 BYTE   As1  v092
 BYTE   W12
 BYTE   Cn1  v104
 BYTE   N01  Fs1  v084
 BYTE   W12
// 006   ----------------------------------------
 BYTE   As1  v088
 BYTE   W12
 BYTE   Dn1  v108
 BYTE   N01  Ds1  v084
 BYTE   N01  Fs1
 BYTE   W12
 BYTE   As1  v092
 BYTE   W12
 BYTE   Cn1  v104
 BYTE   N01  Fs1  v084
 BYTE   W12
 BYTE   As1  v092
 BYTE   W12
 BYTE   Dn1  v108
 BYTE   N01  Ds1  v084
 BYTE   N01  Fs1
 BYTE   W12
 BYTE   N01
 BYTE   W06
 BYTE   N01
 BYTE   W06
 BYTE   Cn1  v108
 BYTE   N01  Fs1  v084
 BYTE   W12
// 007   ----------------------------------------
 BYTE   As1  v092
 BYTE   W12
 BYTE   Dn1  v112
 BYTE   N01  Ds1  v088
 BYTE   N01  Fs1  v084
 BYTE   W12
 BYTE   As1  v092
 BYTE   W12
 BYTE   Cn1  v108
 BYTE   N01  Fs1  v088
 BYTE   W12
 BYTE   As1  v092
 BYTE   W12
 BYTE   Dn1  v108
 BYTE   N01  Ds1  v084
 BYTE   N01  Fs1  v088
 BYTE   W12
 BYTE   As1
 BYTE   W12
 BYTE   Cn1  v104
 BYTE   N01  Ds1  v084
 BYTE   N01  Fs1
 BYTE   N01  An1  v080
 BYTE   W06
 BYTE   Ds1  v088
 BYTE   N01  An1  v084
 BYTE   W06
// 008   ----------------------------------------
 BYTE   Gn1
 BYTE   N01  As1  v092
 BYTE   W06
 BYTE   Gn1  v088
 BYTE   W06
 BYTE   Dn1  v104
 BYTE   N01  Ds1  v084
 BYTE   N01  Fs1  v088
 BYTE   N01  An1  v084
 BYTE   W06
 BYTE   Ds1
 BYTE   N01  An1  v080
 BYTE   W06
 BYTE   Gn1  v088
 BYTE   N01  As1  v092
 BYTE   W06
 BYTE   Gn1  v084
 BYTE   W06
 BYTE   Cn1  v108
 BYTE   N01  Fs1  v088
 BYTE   W12
 BYTE   As1  v092
 BYTE   W12
 BYTE   Dn1  v104
 BYTE   N01  Ds1  v084
 BYTE   N01  Fs1
 BYTE   W12
 BYTE   N01
 BYTE   W06
 BYTE   N01
 BYTE   W06
 BYTE   Cn1  v108
 BYTE   N01  Fs1  v084
 BYTE   W12
// 009   ----------------------------------------
 BYTE   As1  v088
 BYTE   W12
 BYTE   Dn1  v104
 BYTE   N01  Ds1  v084
 BYTE   N01  Fs1
 BYTE   W12
 BYTE   As1  v088
 BYTE   W12
 BYTE   Cn1  v104
 BYTE   N01  Fs1  v088
 BYTE   W12
 BYTE   As1
 BYTE   W12
 BYTE   Dn1  v108
 BYTE   N01  Ds1  v080
 BYTE   N01  Fs1  v088
 BYTE   W12
 BYTE   As1
 BYTE   W12
 BYTE   Cn1  v108
 BYTE   N01  Fs1  v080
 BYTE   W12
// 010   ----------------------------------------
 BYTE   As1  v092
 BYTE   W12
 BYTE   Dn1  v112
 BYTE   N01  Ds1  v088
 BYTE   N01  Fs1
 BYTE   W12
 BYTE   As1  v092
 BYTE   W12
 BYTE   Cn1  v104
 BYTE   N01  Fs1  v084
 BYTE   W12
 BYTE   As1  v092
 BYTE   W12
 BYTE   Dn1  v108
 BYTE   N01  Ds1  v088
 BYTE   N01  Fs1  v084
 BYTE   W12
 BYTE   N01
 BYTE   W06
 BYTE   Fs1  v088
 BYTE   W06
 BYTE   Cn1  v112
 BYTE   N01  Fs1  v084
 BYTE   W12
// 011   ----------------------------------------
 BYTE   As1  v088
 BYTE   W12
 BYTE   Dn1  v108
 BYTE   N01  Ds1  v088
 BYTE   N01  Fs1  v084
 BYTE   W12
 BYTE   As1  v092
 BYTE   W12
 BYTE   Cn1  v104
 BYTE   N01  Fs1  v084
 BYTE   W12
 BYTE   As1  v092
 BYTE   W12
 BYTE   Dn1  v104
 BYTE   N01  Ds1  v084
 BYTE   N01  Fs1
 BYTE   W12
 BYTE   As1  v092
 BYTE   W12
 BYTE   Cn1  v104
 BYTE   N01  Fs1  v088
 BYTE   W12
// 012   ----------------------------------------
 BYTE   As1  v092
 BYTE   W12
 BYTE   Dn1  v108
 BYTE   N01  Ds1  v088
 BYTE   N01  Fs1  v084
 BYTE   W12
 BYTE   As1  v088
 BYTE   W12
 BYTE   Cn1  v108
 BYTE   N01  Fs1  v084
 BYTE   W12
 BYTE   As1  v092
 BYTE   W12
 BYTE   Dn1  v112
 BYTE   N01  Ds1  v084
 BYTE   N01  Fs1
 BYTE   W12
 BYTE   N01
 BYTE   W06
 BYTE   N01
 BYTE   W06
 BYTE   Cn1  v108
 BYTE   N01  Fs1  v084
 BYTE   W12
// 013   ----------------------------------------
 BYTE   As1  v092
 BYTE   W12
 BYTE   Dn1  v104
 BYTE   N01  Ds1  v084
 BYTE   N01  Fs1
 BYTE   W12
 BYTE   As1  v092
 BYTE   W12
 BYTE   Cn1  v104
 BYTE   N01  Fs1  v084
 BYTE   W12
 BYTE   As1  v092
 BYTE   W12
 BYTE   Dn1  v104
 BYTE   N01  Ds1  v084
 BYTE   N01  Fs1
 BYTE   W12
 BYTE   As1  v092
 BYTE   W12
 BYTE   Cn1  v112
 BYTE   N01  Fs1  v080
 BYTE   W12
// 014   ----------------------------------------
 BYTE   As1  v092
 BYTE   W12
 BYTE   Dn1  v108
 BYTE   N01  Ds1  v084
 BYTE   N01  Fs1
 BYTE   W12
 BYTE   As1  v092
 BYTE   W12
 BYTE   Cn1  v108
 BYTE   N01  Fs1  v088
 BYTE   W12
 BYTE   As1  v092
 BYTE   W12
 BYTE   Dn1  v104
 BYTE   N01  Ds1  v088
 BYTE   N01  Fs1  v084
 BYTE   W12
 BYTE   N01
 BYTE   W06
 BYTE   N01
 BYTE   W06
 BYTE   Cn1  v108
 BYTE   N01  Fs1  v088
 BYTE   W12
// 015   ----------------------------------------
 BYTE   As1  v092
 BYTE   W12
 BYTE   Dn1  v104
 BYTE   N01  Ds1  v080
 BYTE   N01  Fs1  v084
 BYTE   W12
 BYTE   As1  v092
 BYTE   W12
 BYTE   Cn1  v104
 BYTE   N01  Fs1  v088
 BYTE   W12
 BYTE   As1
 BYTE   W12
 BYTE   Dn1  v104
 BYTE   N01  Ds1  v088
 BYTE   N01  Fs1  v084
 BYTE   W12
 BYTE   As1  v088
 BYTE   W12
 BYTE   Cn1  v104
 BYTE   N01  Fs1  v084
 BYTE   W06
 BYTE   An1  v080
 BYTE   W06
// 016   ----------------------------------------
 BYTE   Gn1  v088
 BYTE   N01  As1  v092
 BYTE   W06
 BYTE   Gn1  v084
 BYTE   W06
 BYTE   Dn1  v108
 BYTE   N01  Ds1  v084
 BYTE   N01  Fs1  v088
 BYTE   N01  Gn1  v080
 BYTE   W12
 BYTE   As1  v092
 BYTE   W12
 BYTE   Cn1  v104
 BYTE   N01  Fs1  v084
 BYTE   W12
 BYTE   As1  v092
 BYTE   W12
 BYTE   Dn1  v108
 BYTE   N01  Ds1  v084
 BYTE   N01  Fs1
 BYTE   W12
 BYTE   N01
 BYTE   W06
 BYTE   N01
 BYTE   W06
 BYTE   Cn1  v108
 BYTE   N01  Fs1  v084
 BYTE   W12
// 017   ----------------------------------------
 BYTE   As1  v092
 BYTE   W12
 BYTE   Dn1  v104
 BYTE   N01  Ds1  v080
 BYTE   N01  Fs1  v084
 BYTE   W12
 BYTE   As1  v092
 BYTE   W12
 BYTE   Cn1  v108
 BYTE   N01  Fs1  v084
 BYTE   W12
 BYTE   As1  v092
 BYTE   W12
 BYTE   Dn1  v104
 BYTE   N01  Ds1  v088
 BYTE   N01  Fs1  v084
 BYTE   W12
 BYTE   As1  v088
 BYTE   W12
 BYTE   Cn1  v104
 BYTE   N01  Fs1  v088
 BYTE   W12
// 018   ----------------------------------------
 BYTE   As1  v092
 BYTE   W12
 BYTE   Dn1  v108
 BYTE   N01  Ds1  v080
 BYTE   N01  Fs1  v084
 BYTE   W12
 BYTE   As1  v092
 BYTE   W12
 BYTE   Cn1  v104
 BYTE   N01  Fs1  v084
 BYTE   W12
 BYTE   As1  v092
 BYTE   W12
 BYTE   Dn1  v108
 BYTE   N01  Ds1  v088
 BYTE   N01  Fs1  v084
 BYTE   W12
 BYTE   N01
 BYTE   W06
 BYTE   N01
 BYTE   W06
 BYTE   Cn1  v112
 BYTE   N01  Fs1  v088
 BYTE   W12
// 019   ----------------------------------------
 BYTE   As1  v092
 BYTE   W12
 BYTE   Dn1  v108
 BYTE   N01  Ds1  v088
 BYTE   N01  Fs1  v084
 BYTE   W12
 BYTE   As1  v092
 BYTE   W12
 BYTE   Cn1  v104
 BYTE   N01  Fs1  v080
 BYTE   W12
 BYTE   As1  v088
 BYTE   W12
 BYTE   Dn1  v104
 BYTE   N01  Ds1  v080
 BYTE   N01  Fs1  v084
 BYTE   W12
 BYTE   An1  v088
 BYTE   N01  As1  v092
 BYTE   W06
 BYTE   An1  v080
 BYTE   W06
 BYTE   Cn1  v104
 BYTE   N01  Ds1  v084
 BYTE   N01  Fs1
 BYTE   N01  An1  v080
 BYTE   W06
 BYTE   Ds1  v088
 BYTE   N01  An1  v080
 BYTE   W06
// 020   ----------------------------------------
 BYTE   Gn1  v088
 BYTE   N01  As1
 BYTE   W06
 BYTE   Gn1  v084
 BYTE   W06
 BYTE   Dn1  v108
 BYTE   N01  Ds1  v088
 BYTE   N01  Fs1  v084
 BYTE   N01  An1
 BYTE   W06
 BYTE   Ds1  v088
 BYTE   N01  An1
 BYTE   W06
 BYTE   Gn1  v084
 BYTE   N01  As1  v092
 BYTE   W06
 BYTE   Gn1  v088
 BYTE   W06
 BYTE   Cn1  v108
 BYTE   N01  Fs1  v084
 BYTE   W12
 BYTE   As1  v092
 BYTE   W12
 BYTE   Dn1  v104
 BYTE   N01  Ds1  v084
 BYTE   N01  Fs1
 BYTE   W12
 BYTE   Fs1  v080
 BYTE   W06
 BYTE   Fs1  v084
 BYTE   W06
 BYTE   Cn1  v108
 BYTE   N01  Fs1  v084
 BYTE   W12
// 021   ----------------------------------------
Label_0_010003C7:
 BYTE   N01  As1  v092
 BYTE   W12
 BYTE   Dn1  v108
 BYTE   N01  Ds1  v088
 BYTE   N01  Fs1  v080
 BYTE   W12
 BYTE   As1  v092
 BYTE   W12
 BYTE   Cn1  v104
 BYTE   N01  Fs1  v080
 BYTE   W12
 BYTE   As1  v092
 BYTE   W12
 BYTE   Dn1  v108
 BYTE   N01  Ds1  v084
 BYTE   N01  Fs1
 BYTE   W12
 BYTE   As1  v092
 BYTE   W12
 BYTE   Cn1  v104
 BYTE   N01  Fs1  v080
 BYTE   W12
// 022   ----------------------------------------
 BYTE   As1  v092
 BYTE   W12
 BYTE   Dn1  v108
 BYTE   N01  Ds1  v088
 BYTE   N01  Fs1  v084
 BYTE   W12
 BYTE   As1  v092
 BYTE   W12
 BYTE   Cn1  v108
 BYTE   N01  Fs1  v084
 BYTE   W12
 BYTE   As1  v092
 BYTE   W12
 BYTE   Dn1  v104
 BYTE   N01  Ds1  v088
 BYTE   N01  Fs1  v080
 BYTE   W12
 BYTE   Fs1  v084
 BYTE   W06
 BYTE   N01
 BYTE   W06
 BYTE   Cn1  v112
 BYTE   N01  Fs1  v084
 BYTE   W12
// 023   ----------------------------------------
 BYTE   As1  v092
 BYTE   W12
 BYTE   Dn1  v108
 BYTE   N01  Ds1  v084
 BYTE   N01  Fs1
 BYTE   W12
 BYTE   As1  v092
 BYTE   W12
 BYTE   Cn1  v104
 BYTE   N01  Fs1  v080
 BYTE   W12
 BYTE   As1  v092
 BYTE   W12
 BYTE   Dn1  v108
 BYTE   N01  Ds1  v080
 BYTE   N01  Fs1  v084
 BYTE   W12
 BYTE   As1  v092
 BYTE   W12
 BYTE   Cn1  v112
 BYTE   N01  Fs1  v084
 BYTE   W12
// 024   ----------------------------------------
 BYTE   As1  v092
 BYTE   W12
 BYTE   Dn1  v108
 BYTE   N01  Ds1  v084
 BYTE   N01  Fs1
 BYTE   W12
 BYTE   As1  v092
 BYTE   W12
 BYTE   Cn1  v108
 BYTE   N01  Fs1  v084
 BYTE   W12
 BYTE   As1  v092
 BYTE   W12
 BYTE   Dn1  v108
 BYTE   N01  Ds1  v084
 BYTE   N01  Fs1
 BYTE   W12
 BYTE   N01
 BYTE   W06
 BYTE   N01
 BYTE   W06
 BYTE   Cn1  v108
 BYTE   N01  Fs1  v084
 BYTE   W12
// 025   ----------------------------------------
 BYTE   As1  v088
 BYTE   W12
 BYTE   Dn1  v112
 BYTE   N01  Ds1  v088
 BYTE   N01  Fs1  v084
 BYTE   W12
 BYTE   As1  v092
 BYTE   W12
 BYTE   Cn1  v108
 BYTE   N01  Fs1  v084
 BYTE   W12
 BYTE   As1  v092
 BYTE   W12
 BYTE   Dn1  v104
 BYTE   N01  Ds1  v084
 BYTE   N01  Fs1
 BYTE   W12
 BYTE   As1  v092
 BYTE   W12
 BYTE   Cn1  v104
 BYTE   N01  Fs1  v088
 BYTE   W12
// 026   ----------------------------------------
 BYTE   As1  v092
 BYTE   W12
 BYTE   Dn1  v108
 BYTE   N01  Ds1  v084
 BYTE   N01  Fs1
 BYTE   W12
 BYTE   As1  v092
 BYTE   W12
 BYTE   Cn1  v104
 BYTE   N01  Fs1  v084
 BYTE   W12
 BYTE   As1  v092
 BYTE   W12
 BYTE   Dn1  v108
 BYTE   N01  Ds1  v084
 BYTE   N01  Fs1  v088
 BYTE   W12
 BYTE   Fs1  v084
 BYTE   W06
 BYTE   N01
 BYTE   W06
 BYTE   Cn1  v104
 BYTE   N01  Fs1  v080
 BYTE   W12
// 027   ----------------------------------------
 BYTE   As1  v092
 BYTE   W12
 BYTE   Dn1  v104
 BYTE   N01  Ds1  v084
 BYTE   N01  Fs1
 BYTE   W12
 BYTE   As1  v092
 BYTE   W12
 BYTE   Cn1  v104
 BYTE   N01  Fs1  v084
 BYTE   W12
 BYTE   As1  v092
 BYTE   W12
 BYTE   Dn1  v108
 BYTE   N01  Ds1  v084
 BYTE   N01  Fs1  v080
 BYTE   W12
 BYTE   As1  v088
 BYTE   W12
 BYTE   Cn1  v104
 BYTE   N01  Ds1  v088
 BYTE   N01  Fs1  v080
 BYTE   N01  An1  v084
 BYTE   W06
 BYTE   Ds1  v088
 BYTE   N01  An1
 BYTE   W06
// 028   ----------------------------------------
 BYTE   Gn1  v080
 BYTE   N01  As1  v092
 BYTE   W06
 BYTE   Gn1  v080
 BYTE   W06
 BYTE   Dn1  v104
 BYTE   N01  Ds1  v088
 BYTE   N01  Fs1
 BYTE   N01  An1  v084
 BYTE   W06
 BYTE   Ds1  v080
 BYTE   N01  An1  v088
 BYTE   W06
 BYTE   Gn1
 BYTE   N01  As1  v092
 BYTE   W06
 BYTE   Gn1  v084
 BYTE   W06
 BYTE   Cn1  v108
 BYTE   N01  Fs1  v084
 BYTE   W12
 BYTE   As1  v088
 BYTE   W12
 BYTE   Dn1  v108
 BYTE   N01  Ds1  v084
 BYTE   N01  Fs1  v080
 BYTE   W12
 BYTE   Fs1  v088
 BYTE   W06
 BYTE   Fs1  v084
 BYTE   W06
 BYTE   Cn1  v108
 BYTE   N01  Fs1  v084
 BYTE   W12
// 029   ----------------------------------------
 BYTE   As1  v088
 BYTE   W12
 BYTE   Dn1  v108
 BYTE   N01  Ds1  v088
 BYTE   N01  Fs1  v084
 BYTE   W12
 BYTE   As1  v092
 BYTE   W12
 BYTE   Cn1  v108
 BYTE   N01  Fs1  v080
 BYTE   W12
 BYTE   As1  v092
 BYTE   W12
 BYTE   Dn1  v108
 BYTE   N01  Ds1  v084
 BYTE   N01  Fs1
 BYTE   W12
 BYTE   As1  v088
 BYTE   W12
 BYTE   Cn1  v104
 BYTE   N01  Fs1  v084
 BYTE   W12
// 030   ----------------------------------------
 BYTE   As1  v092
 BYTE   W12
 BYTE   Dn1  v104
 BYTE   N01  Ds1  v084
 BYTE   N01  Fs1
 BYTE   W12
 BYTE   As1  v092
 BYTE   W12
 BYTE   Cn1  v108
 BYTE   N01  Fs1  v084
 BYTE   W12
 BYTE   As1  v088
 BYTE   W12
 BYTE   Dn1  v104
 BYTE   N01  Ds1  v084
 BYTE   N01  Fs1  v080
 BYTE   W12
 BYTE   Fs1  v084
 BYTE   W06
 BYTE   N01
 BYTE   W06
 BYTE   Cn1  v108
 BYTE   N01  Fs1  v084
 BYTE   W12
// 031   ----------------------------------------
 BYTE   As1  v092
 BYTE   W12
 BYTE   Dn1  v104
 BYTE   N01  Ds1  v088
 BYTE   N01  Fs1  v084
 BYTE   W12
 BYTE   As1  v092
 BYTE   W12
 BYTE   Cn1  v104
 BYTE   N01  Fs1  v084
 BYTE   W12
 BYTE   As1  v092
 BYTE   W12
 BYTE   Dn1  v108
 BYTE   N01  Ds1  v088
 BYTE   N01  Fs1  v084
 BYTE   W12
 BYTE   As1  v092
 BYTE   W12
 BYTE   Cn1  v104
 BYTE   N01  Fs1  v084
 BYTE   W12
// 032   ----------------------------------------
 BYTE   As1  v092
 BYTE   W12
 BYTE   Dn1  v104
 BYTE   N01  Ds1  v084
 BYTE   N01  Fs1  v080
 BYTE   W12
 BYTE   As1  v092
 BYTE   W12
 BYTE   Cn1  v108
 BYTE   N01  Fs1  v084
 BYTE   W12
 BYTE   As1  v088
 BYTE   W12
 BYTE   Dn1  v112
 BYTE   N01  Ds1  v084
 BYTE   N01  Fs1
 BYTE   W12
 BYTE   N01
 BYTE   W06
 BYTE   Fs1  v088
 BYTE   W06
 BYTE   Cn1  v108
 BYTE   N01  Fs1  v084
 BYTE   W12
// 033   ----------------------------------------
 BYTE   As1  v088
 BYTE   W12
 BYTE   Dn1  v104
 BYTE   N01  Ds1  v088
 BYTE   N01  Fs1  v080
 BYTE   W12
 BYTE   As1  v092
 BYTE   W12
 BYTE   Cn1  v108
 BYTE   N01  Fs1  v084
 BYTE   W12
 BYTE   As1  v092
 BYTE   W12
 BYTE   Dn1  v104
 BYTE   N01  Ds1  v084
 BYTE   N01  Fs1  v088
 BYTE   W12
 BYTE   As1  v092
 BYTE   W12
 BYTE   Cn1  v112
 BYTE   N01  Fs1  v084
 BYTE   W12
// 034   ----------------------------------------
 BYTE   As1  v092
 BYTE   W12
 BYTE   Dn1  v104
 BYTE   N01  Ds1  v084
 BYTE   N01  Fs1
 BYTE   W12
 BYTE   As1  v088
 BYTE   W12
 BYTE   Cn1  v104
 BYTE   N01  Fs1  v084
 BYTE   W12
 BYTE   As1  v088
 BYTE   W12
 BYTE   Dn1  v104
 BYTE   N01  Ds1  v088
 BYTE   N01  Fs1  v084
 BYTE   W12
 BYTE   N01
 BYTE   W06
 BYTE   N01
 BYTE   W06
 BYTE   Cn1  v108
 BYTE   N01  Fs1  v084
 BYTE   W12
// 035   ----------------------------------------
 BYTE   As1  v092
 BYTE   W12
 BYTE   Dn1  v108
 BYTE   N01  Ds1  v080
 BYTE   N01  Fs1  v084
 BYTE   W12
 BYTE   As1  v088
 BYTE   W12
 BYTE   Cn1  v104
 BYTE   N01  Fs1  v084
 BYTE   W12
 BYTE   As1  v092
 BYTE   W12
 BYTE   Dn1  v108
 BYTE   N01  Ds1  v088
 BYTE   N01  Fs1  v084
 BYTE   W12
 BYTE   As1  v088
 BYTE   W12
 BYTE   Cn1  v108
 BYTE   N01  Fs1  v080
 BYTE   W06
 BYTE   An1  v084
 BYTE   W06
// 036   ----------------------------------------
 BYTE   Gn1
 BYTE   N01  As1  v088
 BYTE   W06
 BYTE   Gn1
 BYTE   W06
 BYTE   Dn1  v108
 BYTE   N01  Ds1  v084
 BYTE   N01  Fs1  v080
 BYTE   N01  Gn1  v084
 BYTE   W12
 BYTE   As1  v092
 BYTE   W12
 BYTE   Cn1  v108
 BYTE   N01  Fs1  v084
 BYTE   W12
 BYTE   As1  v088
 BYTE   W12
 BYTE   Dn1  v108
 BYTE   N01  Ds1  v084
 BYTE   N01  Fs1  v080
 BYTE   W12
 BYTE   N01
 BYTE   W06
 BYTE   Fs1  v084
 BYTE   W06
 BYTE   Cn1  v108
 BYTE   N01  Fs1  v084
 BYTE   W12
// 037   ----------------------------------------
 BYTE   As1  v092
 BYTE   W12
 BYTE   Dn1  v112
 BYTE   N01  Ds1  v088
 BYTE   N01  Fs1  v084
 BYTE   W12
 BYTE   As1  v088
 BYTE   W12
 BYTE   Cn1  v104
 BYTE   N01  Fs1  v088
 BYTE   W12
 BYTE   As1  v092
 BYTE   W12
 BYTE   Dn1  v104
 BYTE   N01  Ds1  v084
 BYTE   N01  Fs1
 BYTE   W12
 BYTE   As1  v092
 BYTE   W12
 BYTE   Cn1  v108
 BYTE   N01  Fs1  v084
 BYTE   W12
// 038   ----------------------------------------
 BYTE   As1  v092
 BYTE   W12
 BYTE   Dn1  v104
 BYTE   N01  Ds1  v088
 BYTE   N01  Fs1
 BYTE   W12
 BYTE   As1  v092
 BYTE   W12
 BYTE   Cn1  v104
 BYTE   N01  Fs1  v080
 BYTE   W12
 BYTE   As1  v092
 BYTE   W12
 BYTE   Dn1  v104
 BYTE   N01  Ds1  v084
 BYTE   N01  Fs1
 BYTE   W12
 BYTE   Fs1  v088
 BYTE   W06
 BYTE   N01
 BYTE   W06
 BYTE   Cn1  v108
 BYTE   N01  Fs1  v084
 BYTE   W12
// 039   ----------------------------------------
 BYTE   As1  v092
 BYTE   W12
 BYTE   Dn1  v104
 BYTE   N01  Ds1  v084
 BYTE   N01  Fs1
 BYTE   W12
 BYTE   As1  v092
 BYTE   W12
 BYTE   Cn1  v104
 BYTE   N01  Fs1  v084
 BYTE   W12
 BYTE   As1  v092
 BYTE   W12
 BYTE   Dn1  v108
 BYTE   N01  Ds1  v080
 BYTE   N01  Fs1  v084
 BYTE   W12
 BYTE   An1
 BYTE   N01  As1  v088
 BYTE   W06
 BYTE   An1  v084
 BYTE   W06
 BYTE   Cn1  v108
 BYTE   N01  Ds1  v084
 BYTE   N01  Fs1
 BYTE   N01  An1
 BYTE   W06
 BYTE   Ds1  v080
 BYTE   N01  An1  v088
 BYTE   W06
// 040   ----------------------------------------
 BYTE   Gn1
 BYTE   N01  As1  v092
 BYTE   W06
 BYTE   Gn1  v088
 BYTE   W06
 BYTE   Dn1  v104
 BYTE   N01  Ds1  v088
 BYTE   N01  Fs1
 BYTE   N01  An1
 BYTE   W06
 BYTE   Ds1
 BYTE   N01  An1  v080
 BYTE   W06
 BYTE   Gn1  v088
 BYTE   N01  As1  v092
 BYTE   W06
 BYTE   Gn1  v088
 BYTE   W06
 BYTE   Cn1  v104
 BYTE   N01  Fs1  v088
 BYTE   W12
 BYTE   As1  v092
 BYTE   W12
 BYTE   Dn1  v108
 BYTE   N01  Ds1  v084
 BYTE   N01  Fs1
 BYTE   W12
 BYTE   N01
 BYTE   W06
 BYTE   N01
 BYTE   W06
 BYTE   Cn1  v112
 BYTE   N01  Fs1  v084
 BYTE   W12
// 041   ----------------------------------------
 BYTE   As1  v092
 BYTE   W12
 BYTE   Dn1  v108
 BYTE   N01  Ds1  v084
 BYTE   N01  Fs1
 BYTE   W12
 BYTE   As1  v088
 BYTE   W12
 BYTE   Cn1  v104
 BYTE   N01  Fs1  v084
 BYTE   W12
 BYTE   As1  v088
 BYTE   W12
 BYTE   Dn1  v104
 BYTE   N01  Ds1  v084
 BYTE   N01  Fs1
 BYTE   W12
 BYTE   As1  v088
 BYTE   W12
 BYTE   Cn1  v104
 BYTE   N01  Fs1  v080
 BYTE   W12
// 042   ----------------------------------------
 BYTE   As1  v088
 BYTE   W12
 BYTE   Dn1  v104
 BYTE   N01  Ds1  v084
 BYTE   N01  Fs1
 BYTE   W12
 BYTE   As1  v092
 BYTE   W12
 BYTE   Cn1  v112
 BYTE   N01  Fs1  v084
 BYTE   W12
 BYTE   As1  v088
 BYTE   W12
 BYTE   Dn1  v108
 BYTE   N01  Ds1  v084
 BYTE   N01  Fs1
 BYTE   W12
 BYTE   Fs1  v080
 BYTE   W06
 BYTE   Fs1  v084
 BYTE   W06
 BYTE   Cn1  v108
 BYTE   N01  Fs1  v084
 BYTE   W12
// 043   ----------------------------------------
 BYTE   As1  v092
 BYTE   W12
 BYTE   Dn1  v108
 BYTE   N01  Ds1  v088
 BYTE   N01  Fs1  v084
 BYTE   W12
 BYTE   As1  v092
 BYTE   W12
 BYTE   Cn1  v108
 BYTE   N01  Fs1  v088
 BYTE   W12
 BYTE   As1  v092
 BYTE   W12
 BYTE   Dn1  v104
 BYTE   N01  Ds1  v084
 BYTE   N01  Fs1
 BYTE   W12
 BYTE   As1  v088
 BYTE   W12
 BYTE   Cn1  v108
 BYTE   N01  Fs1  v084
 BYTE   W12
// 044   ----------------------------------------
 BYTE   As1  v092
 BYTE   W12
 BYTE   Dn1  v104
 BYTE   N01  Ds1  v084
 BYTE   N01  Fs1  v080
 BYTE   W12
 BYTE   As1  v088
 BYTE   W12
 BYTE   Cn1  v104
 BYTE   N01  Fs1  v084
 BYTE   W12
 BYTE   As1  v092
 BYTE   W12
 BYTE   Dn1  v108
 BYTE   N01  Ds1  v084
 BYTE   N01  Fs1
 BYTE   W12
 BYTE   N01
 BYTE   W06
 BYTE   N01
 BYTE   W06
 BYTE   Cn1  v112
 BYTE   N01  Fs1  v084
 BYTE   W12
// 045   ----------------------------------------
 BYTE   As1  v088
 BYTE   W12
 BYTE   Dn1  v108
 BYTE   N01  Ds1  v088
 BYTE   N01  Fs1  v084
 BYTE   W12
 BYTE   As1  v092
 BYTE   W12
 BYTE   Cn1  v108
 BYTE   N01  Fs1  v084
 BYTE   W12
 BYTE   As1  v092
 BYTE   W12
 BYTE   Dn1  v104
 BYTE   N01  Ds1  v084
 BYTE   N01  Fs1
 BYTE   W12
 BYTE   As1  v088
 BYTE   W12
 BYTE   Cn1  v104
 BYTE   N01  Fs1  v084
 BYTE   W12
// 046   ----------------------------------------
 BYTE   As1  v088
 BYTE   W12
 BYTE   Dn1  v104
 BYTE   N01  Ds1  v088
 BYTE   N01  Fs1  v084
 BYTE   W12
 BYTE   As1  v088
 BYTE   W12
 BYTE   Cn1  v104
 BYTE   N01  Fs1  v084
 BYTE   W12
 BYTE   As1  v088
 BYTE   W12
 BYTE   Dn1  v108
 BYTE   N01  Ds1  v088
 BYTE   N01  Fs1  v080
 BYTE   W12
 BYTE   Fs1  v084
 BYTE   W06
 BYTE   N01
 BYTE   W06
 BYTE   Cn1  v104
 BYTE   N01  Fs1  v080
 BYTE   W12
// 047   ----------------------------------------
 BYTE   As1  v092
 BYTE   W12
 BYTE   Dn1  v108
 BYTE   N01  Ds1  v084
 BYTE   N01  Fs1  v080
 BYTE   W12
 BYTE   As1  v088
 BYTE   W12
 BYTE   Cn1  v108
 BYTE   N01  Fs1  v084
 BYTE   W12
 BYTE   As1  v092
 BYTE   W12
 BYTE   Dn1  v108
 BYTE   N01  Ds1  v088
 BYTE   N01  Fs1  v084
 BYTE   W12
 BYTE   As1  v088
 BYTE   W12
 BYTE   Cn1  v108
 BYTE   N01  Fs1  v084
 BYTE   N01  An1  v088
 BYTE   W06
 BYTE   N01
 BYTE   W06
// 048   ----------------------------------------
 BYTE   Gn1
 BYTE   N01  As1  v092
 BYTE   W06
 BYTE   Gn1  v088
 BYTE   W06
 BYTE   Dn1  v112
 BYTE   N01  Ds1  v088
 BYTE   N01  Fs1
 BYTE   N01  An1  v084
 BYTE   W06
 BYTE   An1  v088
 BYTE   W06
 BYTE   Gn1
 BYTE   N01  As1  v092
 BYTE   W06
 BYTE   Gn1
 BYTE   W06
 BYTE   Cn1  v104
 BYTE   N01  Fs1  v084
 BYTE   W12
 BYTE   As1  v092
 BYTE   W12
 BYTE   Dn1  v108
 BYTE   N01  Ds1  v084
 BYTE   N01  Fs1  v088
 BYTE   W12
 BYTE   Fs1  v084
 BYTE   W06
 BYTE   N01
 BYTE   W06
 BYTE   Cn1  v104
 BYTE   N01  Fs1  v080
 BYTE   W12
// 049   ----------------------------------------
 BYTE   As1  v092
 BYTE   W12
 BYTE   Dn1  v108
 BYTE   N01  Ds1  v088
 BYTE   N01  Fs1  v080
 BYTE   W12
 BYTE   As1  v092
 BYTE   W12
 BYTE   Cn1  v108
 BYTE   N01  Fs1  v080
 BYTE   W12
 BYTE   As1  v092
 BYTE   W12
 BYTE   Dn1  v104
 BYTE   N01  Ds1  v088
 BYTE   N01  Fs1  v084
 BYTE   W12
 BYTE   As1  v092
 BYTE   W12
 BYTE   Cn1  v108
 BYTE   N01  Fs1  v088
 BYTE   W12
// 050   ----------------------------------------
 BYTE   As1  v092
 BYTE   W12
 BYTE   Dn1  v104
 BYTE   N01  Ds1  v084
 BYTE   N01  Fs1
 BYTE   W12
 BYTE   As1  v092
 BYTE   W12
 BYTE   Cn1  v104
 BYTE   N01  Fs1  v084
 BYTE   W12
 BYTE   As1  v092
 BYTE   W12
 BYTE   Dn1  v108
 BYTE   N01  Ds1  v084
 BYTE   N01  Fs1  v088
 BYTE   W12
 BYTE   Fs1  v080
 BYTE   W06
 BYTE   Fs1  v084
 BYTE   W06
 BYTE   Cn1  v104
 BYTE   N01  Fs1  v084
 BYTE   W12
// 051   ----------------------------------------
 BYTE   As1  v092
 BYTE   W12
 BYTE   Dn1  v108
 BYTE   N01  Ds1  v088
 BYTE   N01  Fs1  v084
 BYTE   W12
 BYTE   As1  v092
 BYTE   W12
 BYTE   Cn1  v108
 BYTE   N01  Fs1  v080
 BYTE   W12
 BYTE   As1  v088
 BYTE   W12
 BYTE   Dn1  v108
 BYTE   N01  Ds1  v080
 BYTE   N01  Fs1  v088
 BYTE   W12
 BYTE   As1
 BYTE   W12
 BYTE   Cn1  v104
 BYTE   N01  Fs1  v084
 BYTE   W12
// 052   ----------------------------------------
 BYTE   As1  v092
 BYTE   W12
 BYTE   Dn1  v104
 BYTE   N01  Ds1  v080
 BYTE   N01  Fs1  v084
 BYTE   W12
 BYTE   As1  v088
 BYTE   W12
 BYTE   Cn1  v104
 BYTE   N01  Fs1  v084
 BYTE   W12
 BYTE   As1  v092
 BYTE   W12
 BYTE   Dn1  v108
 BYTE   N01  Ds1  v084
 BYTE   N01  Fs1  v080
 BYTE   W12
 BYTE   N01
 BYTE   W06
 BYTE   Fs1  v088
 BYTE   W06
 BYTE   Cn1  v108
 BYTE   N01  Fs1  v088
 BYTE   W12
// 053   ----------------------------------------
 BYTE   As1
 BYTE   W12
 BYTE   Dn1  v104
 BYTE   N01  Ds1  v088
 BYTE   N01  Fs1  v084
 BYTE   W12
 BYTE   As1  v088
 BYTE   W12
 BYTE   Cn1  v104
 BYTE   N01  Fs1  v084
 BYTE   W12
 BYTE   As1  v088
 BYTE   W12
 BYTE   Dn1  v104
 BYTE   N01  Ds1  v088
 BYTE   N01  Fs1  v084
 BYTE   W12
 BYTE   As1  v088
 BYTE   W12
 BYTE   Cn1  v112
 BYTE   N01  Fs1  v084
 BYTE   W12
// 054   ----------------------------------------
 BYTE   As1  v088
 BYTE   W12
 BYTE   Dn1  v112
 BYTE   N01  Ds1  v088
 BYTE   N01  Fs1  v084
 BYTE   W12
 BYTE   As1  v092
 BYTE   W12
 BYTE   Cn1  v104
 BYTE   N01  Fs1  v084
 BYTE   W12
 BYTE   As1  v092
 BYTE   W12
 BYTE   Dn1  v108
 BYTE   N01  Ds1  v088
 BYTE   N01  Fs1  v084
 BYTE   W12
 BYTE   N01
 BYTE   W06
 BYTE   Fs1  v088
 BYTE   W06
 BYTE   Cn1  v104
 BYTE   N01  Fs1  v084
 BYTE   W12
// 055   ----------------------------------------
 BYTE   As1  v092
 BYTE   W12
 BYTE   Dn1  v104
 BYTE   N01  Ds1  v084
 BYTE   N01  Fs1
 BYTE   W12
 BYTE   As1  v092
 BYTE   W12
 BYTE   Cn1  v108
 BYTE   N01  Fs1  v084
 BYTE   W12
 BYTE   An1  v088
 BYTE   N01  As1  v092
 BYTE   W12
 BYTE   Dn1  v104
 BYTE   N01  Ds1  v084
 BYTE   N01  Fs1
 BYTE   W12
 BYTE   As1  v092
 BYTE   W12
 BYTE   Cn1  v112
 BYTE   N01  Ds1  v084
 BYTE   N01  Fs1
 BYTE   W06
 BYTE   Ds1  v080
 BYTE   W06
// 056   ----------------------------------------
 BYTE   As1  v092
 BYTE   W12
 BYTE   Dn1  v108
 BYTE   N01  Ds1  v088
 BYTE   N01  Fs1
 BYTE   W06
 BYTE   Ds1
 BYTE   W06
 BYTE   An1
 BYTE   N01  As1  v092
 BYTE   W06
 BYTE   An1  v084
 BYTE   W06
 BYTE   Cn1  v104
 BYTE   N01  Fs1  v080
 BYTE   W12
 BYTE   As1  v092
 BYTE   W12
 BYTE   Dn1  v108
 BYTE   N01  Ds1  v084
 BYTE   N01  Fs1
 BYTE   W12
 BYTE   Fs1  v088
 BYTE   W06
 BYTE   Fs1  v084
 BYTE   W06
 BYTE   Cn1  v108
 BYTE   N01  Fs1  v080
 BYTE   W12
// 057   ----------------------------------------
 BYTE   As1  v088
 BYTE   W12
 BYTE   Dn1  v108
 BYTE   N01  Ds1  v084
 BYTE   N01  Fs1
 BYTE   W12
 BYTE   As1  v088
 BYTE   W12
 BYTE   Cn1  v108
 BYTE   N01  Fs1  v084
 BYTE   W12
 BYTE   As1  v092
 BYTE   W12
 BYTE   Dn1  v104
 BYTE   N01  Ds1  v088
 BYTE   N01  Fs1
 BYTE   W12
 BYTE   As1
 BYTE   W12
 BYTE   Cn1  v108
 BYTE   N01  Fs1  v084
 BYTE   W12
// 058   ----------------------------------------
 BYTE   As1  v092
 BYTE   W12
 BYTE   Dn1  v112
 BYTE   N01  Ds1  v084
 BYTE   N01  Fs1  v080
 BYTE   W12
 BYTE   As1  v092
 BYTE   W12
 BYTE   Cn1  v104
 BYTE   N01  Fs1  v084
 BYTE   W12
 BYTE   As1  v092
 BYTE   W12
 BYTE   Dn1  v104
 BYTE   N01  Ds1  v088
 BYTE   N01  Fs1  v084
 BYTE   W12
 BYTE   N01
 BYTE   W06
 BYTE   N01
 BYTE   W06
 BYTE   Cn1  v104
 BYTE   N01  Fs1  v084
 BYTE   W12
// 059   ----------------------------------------
 BYTE   As1  v092
 BYTE   W12
 BYTE   Dn1  v108
 BYTE   N01  Ds1  v084
 BYTE   N01  Fs1  v088
 BYTE   W12
 BYTE   As1
 BYTE   W12
 BYTE   Cn1  v104
 BYTE   N01  Fs1  v088
 BYTE   W12
 BYTE   As1
 BYTE   W12
 BYTE   Dn1  v108
 BYTE   N01  Ds1  v080
 BYTE   N01  Fs1  v088
 BYTE   W12
 BYTE   As1  v092
 BYTE   W12
 BYTE   Cn1  v108
 BYTE   N01  Fs1  v088
 BYTE   W12
// 060   ----------------------------------------
 BYTE   As1
 BYTE   W12
 BYTE   Dn1  v104
 BYTE   N01  Ds1  v084
 BYTE   N01  Fs1
 BYTE   W12
 BYTE   As1  v092
 BYTE   W12
 BYTE   Cn1  v108
 BYTE   N01  Fs1  v080
 BYTE   W12
 BYTE   As1  v092
 BYTE   W12
 BYTE   Dn1  v104
 BYTE   N01  Ds1  v084
 BYTE   N01  Fs1  v080
 BYTE   W12
 BYTE   Fs1  v084
 BYTE   W06
 BYTE   Fs1  v088
 BYTE   W06
 BYTE   Cn1  v104
 BYTE   N01  Fs1  v088
 BYTE   W12
// 061   ----------------------------------------
 BYTE   As1  v092
 BYTE   W12
 BYTE   Dn1  v112
 BYTE   N01  Ds1  v088
 BYTE   N01  Fs1  v084
 BYTE   W12
 BYTE   As1  v092
 BYTE   W12
 BYTE   Cn1  v104
 BYTE   N01  Fs1  v088
 BYTE   W12
 BYTE   As1
 BYTE   W12
 BYTE   Dn1  v108
 BYTE   N01  Ds1  v084
 BYTE   N01  Fs1  v088
 BYTE   W12
 BYTE   As1  v092
 BYTE   W12
 BYTE   Cn1  v104
 BYTE   N01  Fs1  v088
 BYTE   W12
// 062   ----------------------------------------
 BYTE   As1
 BYTE   W12
 BYTE   Dn1  v104
 BYTE   N01  Ds1  v088
 BYTE   N01  Fs1  v084
 BYTE   W12
 BYTE   As1  v092
 BYTE   W12
 BYTE   Cn1  v104
 BYTE   N01  Fs1  v084
 BYTE   W12
 BYTE   As1  v092
 BYTE   W12
 BYTE   Dn1  v104
 BYTE   N01  Ds1  v084
 BYTE   N01  Fs1  v080
 BYTE   W12
 BYTE   Fs1  v084
 BYTE   W06
 BYTE   N01
 BYTE   W06
 BYTE   Cn1  v104
 BYTE   N01  Fs1  v084
 BYTE   W12
// 063   ----------------------------------------
 BYTE   As1  v092
 BYTE   W12
 BYTE   Dn1  v108
 BYTE   N01  Ds1  v084
 BYTE   N01  Fs1  v088
 BYTE   W12
 BYTE   As1  v092
 BYTE   W12
 BYTE   Cn1  v108
 BYTE   N01  Fs1  v080
 BYTE   W06
 BYTE   An1  v088
 BYTE   W06
 BYTE   As1  v092
 BYTE   W12
 BYTE   Dn1  v104
 BYTE   N01  Ds1  v084
 BYTE   N01  Fs1
 BYTE   N01  An1  v080
 BYTE   W12
 BYTE   As1  v092
 BYTE   W12
 BYTE   Cn1  v104
 BYTE   N01  Ds1  v084
 BYTE   N01  Fs1
 BYTE   N01  An1
 BYTE   W06
 BYTE   Ds1  v080
 BYTE   N01  An1  v084
 BYTE   W06
// 064   ----------------------------------------
 BYTE   Ds1
 BYTE   N01  Gn1
 BYTE   N01  As1  v088
 BYTE   W06
 BYTE   Ds1
 BYTE   N01  Gn1  v084
 BYTE   W06
 BYTE   Dn1  v108
 BYTE   N01  Ds1  v084
 BYTE   N01  Fs1
 BYTE   N01  An1  v080
 BYTE   W06
 BYTE   N01
 BYTE   W06
 BYTE   Gn1  v088
 BYTE   N01  As1
 BYTE   W06
 BYTE   Gn1  v084
 BYTE   W06
 BYTE   Cn1  v108
 BYTE   N01  Fs1  v080
 BYTE   W12
 BYTE   As1  v088
 BYTE   W12
 BYTE   Dn1  v104
 BYTE   N01  Ds1  v084
 BYTE   N01  Fs1
 BYTE   W12
 BYTE   N01
 BYTE   W06
 BYTE   Fs1  v088
 BYTE   W06
 BYTE   Cn1  v112
 BYTE   N01  Fs1  v084
 BYTE   W12
// 065   ----------------------------------------
 BYTE   As1  v092
 BYTE   W12
 BYTE   Dn1  v104
 BYTE   N01  Ds1  v088
 BYTE   N01  Fs1  v080
 BYTE   W12
 BYTE   As1  v092
 BYTE   W12
 BYTE   Cn1  v108
 BYTE   N01  Fs1  v084
 BYTE   W12
 BYTE   As1  v092
 BYTE   W12
 BYTE   Dn1  v108
 BYTE   N01  Ds1  v080
 BYTE   N01  Fs1  v084
 BYTE   W12
 BYTE   As1  v088
 BYTE   W12
 BYTE   Cn1  v112
 BYTE   N01  Fs1  v084
 BYTE   W12
// 066   ----------------------------------------
 BYTE   As1  v092
 BYTE   W12
 BYTE   Dn1  v108
 BYTE   N01  Ds1  v084
 BYTE   N01  Fs1
 BYTE   W12
 BYTE   As1  v088
 BYTE   W12
 BYTE   Cn1  v112
 BYTE   N01  Fs1  v084
 BYTE   W12
 BYTE   As1  v088
 BYTE   W12
 BYTE   Dn1  v108
 BYTE   N01  Ds1  v088
 BYTE   N01  Fs1  v084
 BYTE   W12
 BYTE   N01
 BYTE   W06
 BYTE   N01
 BYTE   W06
 BYTE   Cn1  v108
 BYTE   N01  Fs1  v084
 BYTE   W12
// 067   ----------------------------------------
 BYTE   As1  v092
 BYTE   W12
 BYTE   Dn1  v104
 BYTE   N01  Ds1  v084
 BYTE   N01  Fs1
 BYTE   W12
 BYTE   As1  v088
 BYTE   W12
 BYTE   Cn1  v112
 BYTE   N01  Fs1  v084
 BYTE   W12
 BYTE   As1  v088
 BYTE   W12
 BYTE   Dn1  v104
 BYTE   N01  Ds1  v084
 BYTE   N01  Fs1
 BYTE   W12
 BYTE   As1  v088
 BYTE   W12
 BYTE   Cn1  v108
 BYTE   N01  Fs1  v080
 BYTE   W12
// 068   ----------------------------------------
 BYTE   As1  v092
 BYTE   W12
 BYTE   Dn1  v112
 BYTE   N01  Ds1  v088
 BYTE   N01  Fs1
 BYTE   W12
 BYTE   As1
 BYTE   W12
 BYTE   Cn1  v104
 BYTE   N01  Fs1  v088
 BYTE   W12
 BYTE   As1
 BYTE   W12
 BYTE   Dn1  v104
 BYTE   N01  Ds1  v080
 BYTE   N01  Fs1
 BYTE   W12
 BYTE   Fs1  v084
 BYTE   W06
 BYTE   N01
 BYTE   W06
 BYTE   Cn1  v112
 BYTE   N01  Fs1  v088
 BYTE   W12
// 069   ----------------------------------------
 BYTE   As1  v092
 BYTE   W12
 BYTE   Dn1  v104
 BYTE   N01  Ds1  v084
 BYTE   N01  Fs1
 BYTE   W12
 BYTE   As1  v092
 BYTE   W12
 BYTE   Cn1  v104
 BYTE   N01  Fs1  v084
 BYTE   W12
 BYTE   As1  v092
 BYTE   W12
 BYTE   Dn1  v108
 BYTE   N01  Ds1  v088
 BYTE   N01  Fs1
 BYTE   W12
 BYTE   As1
 BYTE   W12
 BYTE   Cn1  v108
 BYTE   N01  Fs1  v088
 BYTE   W12
// 070   ----------------------------------------
 BYTE   As1  v092
 BYTE   W12
 BYTE   Dn1  v108
 BYTE   N01  Ds1  v088
 BYTE   N01  Fs1  v084
 BYTE   W12
 BYTE   As1  v088
 BYTE   W12
 BYTE   Cn1  v104
 BYTE   N01  Fs1  v084
 BYTE   W12
 BYTE   As1  v092
 BYTE   W12
 BYTE   Dn1  v108
 BYTE   N01  Ds1  v084
 BYTE   N01  Fs1
 BYTE   W12
 BYTE   N01
 BYTE   W06
 BYTE   Fs1  v088
 BYTE   W06
 BYTE   Cn1  v104
 BYTE   N01  Fs1  v088
 BYTE   W12
// 071   ----------------------------------------
 BYTE   As1
 BYTE   W12
 BYTE   Dn1  v104
 BYTE   N01  Ds1  v084
 BYTE   N01  Fs1
 BYTE   W12
 BYTE   As1  v092
 BYTE   W12
 BYTE   Cn1  v112
 BYTE   N01  Fs1  v084
 BYTE   W12
 BYTE   As1  v092
 BYTE   W12
 BYTE   Dn1  v108
 BYTE   N01  Ds1  v084
 BYTE   N01  Fs1  v080
 BYTE   W12
 BYTE   As1  v092
 BYTE   W12
 BYTE   Cn1  v108
 BYTE   N01  Fs1  v080
 BYTE   N01  An1  v084
 BYTE   W06
 BYTE   N01
 BYTE   W06
// 072   ----------------------------------------
 BYTE   Gn1  v088
 BYTE   N01  As1
 BYTE   W06
 BYTE   Gn1
 BYTE   W06
 BYTE   Dn1  v104
 BYTE   N01  Ds1  v084
 BYTE   N01  Fs1
 BYTE   N01  An1
 BYTE   W06
 BYTE   An1  v088
 BYTE   W06
 BYTE   Gn1
 BYTE   N01  As1  v092
 BYTE   W06
 BYTE   Gn1  v084
 BYTE   W06
 BYTE   Cn1  v112
 BYTE   N01  Fs1  v084
 BYTE   W12
 BYTE   As1  v092
 BYTE   W12
 BYTE   Dn1  v108
 BYTE   N01  Ds1  v084
 BYTE   N01  Fs1
 BYTE   W12
 BYTE   Fs1  v080
 BYTE   W06
 BYTE   Fs1  v084
 BYTE   W06
 BYTE   Cn1  v108
 BYTE   N01  Fs1  v084
 BYTE   W12
// 073   ----------------------------------------
 BYTE   As1  v092
 BYTE   W12
 BYTE   Dn1  v108
 BYTE   N01  Ds1  v080
 BYTE   N01  Fs1  v084
 BYTE   W12
 BYTE   As1  v092
 BYTE   W12
 BYTE   Cn1  v104
 BYTE   N01  Fs1  v084
 BYTE   W12
 BYTE   As1  v092
 BYTE   W12
 BYTE   Dn1  v104
 BYTE   N01  Ds1  v084
 BYTE   N01  Fs1
 BYTE   W12
 BYTE   As1  v092
 BYTE   W12
 BYTE   Cn1  v104
 BYTE   N01  Fs1  v080
 BYTE   W12
// 074   ----------------------------------------
 BYTE   As1  v088
 BYTE   W12
 BYTE   Dn1  v104
 BYTE   N01  Ds1  v088
 BYTE   N01  Fs1  v084
 BYTE   W12
 BYTE   As1  v088
 BYTE   W12
 BYTE   Cn1  v108
 BYTE   N01  Fs1  v088
 BYTE   W12
 BYTE   As1  v092
 BYTE   W12
 BYTE   Dn1  v104
 BYTE   N01  Ds1  v080
 BYTE   N01  Fs1  v084
 BYTE   W12
 BYTE   N01
 BYTE   W06
 BYTE   Fs1  v080
 BYTE   W06
 BYTE   Cn1  v104
 BYTE   N01  Fs1  v084
 BYTE   W12
// 075   ----------------------------------------
 BYTE   As1  v092
 BYTE   W12
 BYTE   Dn1  v104
 BYTE   N01  Ds1  v084
 BYTE   N01  Fs1
 BYTE   W12
 BYTE   As1  v088
 BYTE   W12
 BYTE   Cn1  v104
 BYTE   N01  Fs1  v084
 BYTE   W12
 BYTE   As1  v092
 BYTE   W12
 BYTE   Dn1  v104
 BYTE   N01  Ds1  v088
 BYTE   N01  Fs1  v084
 BYTE   W06
 BYTE   An1  v088
 BYTE   W06
 BYTE   An1  v084
 BYTE   N01  As1  v092
 BYTE   W12
 BYTE   Cn1  v104
 BYTE   N01  Ds1  v088
 BYTE   N01  Fs1  v084
 BYTE   W06
 BYTE   Ds1  v088
 BYTE   N01  An1  v084
 BYTE   W06
// 076   ----------------------------------------
 BYTE   N01
 BYTE   N01  As1  v092
 BYTE   W12
 BYTE   Dn1  v108
 BYTE   N01  Ds1  v084
 BYTE   N01  Fs1
 BYTE   N01  An1
 BYTE   W06
 BYTE   Ds1
 BYTE   N01  An1  v088
 BYTE   W06
 BYTE   Gn1  v084
 BYTE   N01  As1  v092
 BYTE   W06
 BYTE   Gn1  v088
 BYTE   W06
 BYTE   Cn1  v104
 BYTE   N01  Fs1  v080
 BYTE   W12
 BYTE   As1  v092
 BYTE   W12
 BYTE   Dn1  v108
 BYTE   N01  Ds1  v088
 BYTE   N01  Fs1  v084
 BYTE   W12
 BYTE   N01
 BYTE   W06
 BYTE   N01
 BYTE   W06
 BYTE   Cn1  v104
 BYTE   N01  Fs1  v088
 BYTE   W12
// 077   ----------------------------------------
 BYTE   GoTo
  POIN2 Label_0_010003C7
 BYTE   FINE

//**************** Track 2 (Midi-Chn.1) ****************//

NeverGonnaGiveYouUp_002:
// 000   ----------------------------------------
 BYTE   KEYSH   NeverGonnaGiveYouUp_key+0
 BYTE   VOICE   118
 BYTE   PAN   c_v+0
 BYTE   VOL   31*NeverGonnaGiveYouUp_mvl/mxv
 BYTE   BEND   c_v+0
 BYTE   N01  Gs3  v108
 BYTE   W06
 BYTE   Gn3
 BYTE   W05
 BYTE   BEND   c_v-13
 BYTE   W01
 BYTE   N01  Fs3
 BYTE   W06
 BYTE   Fn3  v112
 BYTE   W05
 BYTE   BEND   c_v-22
 BYTE   W01
 BYTE   N01  En3  v108
 BYTE   W06
 BYTE   Ds3
 BYTE   W66
// 001   ----------------------------------------
 BYTE   W96
// 002   ----------------------------------------
 BYTE   W96
// 003   ----------------------------------------
 BYTE   W96
// 004   ----------------------------------------
 BYTE   W96
// 005   ----------------------------------------
 BYTE   W96
// 006   ----------------------------------------
 BYTE   W96
// 007   ----------------------------------------
 BYTE   W96
// 008   ----------------------------------------
 BYTE   W96
// 009   ----------------------------------------
 BYTE   W96
// 010   ----------------------------------------
 BYTE   W96
// 011   ----------------------------------------
 BYTE   W96
// 012   ----------------------------------------
 BYTE   W96
// 013   ----------------------------------------
 BYTE   W96
// 014   ----------------------------------------
 BYTE   W96
// 015   ----------------------------------------
 BYTE   W96
// 016   ----------------------------------------
 BYTE   W96
// 017   ----------------------------------------
 BYTE   W96
// 018   ----------------------------------------
 BYTE   W96
// 019   ----------------------------------------
 BYTE   W96
// 020   ----------------------------------------
 BYTE   W96
// 021   ----------------------------------------
Label_1_01000DEE:
 BYTE   W96
// 022   ----------------------------------------
 BYTE   W96
// 023   ----------------------------------------
 BYTE   W96
// 024   ----------------------------------------
 BYTE   W96
// 025   ----------------------------------------
 BYTE   W96
// 026   ----------------------------------------
 BYTE   W96
// 027   ----------------------------------------
 BYTE   W96
// 028   ----------------------------------------
 BYTE   W96
// 029   ----------------------------------------
 BYTE   W96
// 030   ----------------------------------------
 BYTE   W96
// 031   ----------------------------------------
 BYTE   W96
// 032   ----------------------------------------
 BYTE   W96
// 033   ----------------------------------------
 BYTE   W96
// 034   ----------------------------------------
 BYTE   W96
// 035   ----------------------------------------
 BYTE   W96
// 036   ----------------------------------------
 BYTE   W96
// 037   ----------------------------------------
 BYTE   W96
// 038   ----------------------------------------
 BYTE   W96
// 039   ----------------------------------------
 BYTE   W96
// 040   ----------------------------------------
 BYTE   W96
// 041   ----------------------------------------
 BYTE   W96
// 042   ----------------------------------------
 BYTE   W96
// 043   ----------------------------------------
 BYTE   W96
// 044   ----------------------------------------
 BYTE   W96
// 045   ----------------------------------------
 BYTE   W96
// 046   ----------------------------------------
 BYTE   W96
// 047   ----------------------------------------
 BYTE   W96
// 048   ----------------------------------------
 BYTE   W96
// 049   ----------------------------------------
 BYTE   W96
// 050   ----------------------------------------
 BYTE   W96
// 051   ----------------------------------------
 BYTE   W96
// 052   ----------------------------------------
 BYTE   W96
// 053   ----------------------------------------
 BYTE   W96
// 054   ----------------------------------------
 BYTE   W96
// 055   ----------------------------------------
 BYTE   W96
// 056   ----------------------------------------
 BYTE   W96
// 057   ----------------------------------------
 BYTE   W96
// 058   ----------------------------------------
 BYTE   W96
// 059   ----------------------------------------
 BYTE   W96
// 060   ----------------------------------------
 BYTE   W96
// 061   ----------------------------------------
 BYTE   W96
// 062   ----------------------------------------
 BYTE   W96
// 063   ----------------------------------------
 BYTE   W96
// 064   ----------------------------------------
 BYTE   W96
// 065   ----------------------------------------
 BYTE   W96
// 066   ----------------------------------------
 BYTE   W96
// 067   ----------------------------------------
 BYTE   W96
// 068   ----------------------------------------
 BYTE   W96
// 069   ----------------------------------------
 BYTE   W96
// 070   ----------------------------------------
 BYTE   W96
// 071   ----------------------------------------
 BYTE   W96
// 072   ----------------------------------------
 BYTE   W96
// 073   ----------------------------------------
 BYTE   W96
// 074   ----------------------------------------
 BYTE   W96
// 075   ----------------------------------------
 BYTE   W96
// 076   ----------------------------------------
 BYTE   W96
// 077   ----------------------------------------
 BYTE   GoTo
  POIN2 Label_1_01000DEE
 BYTE   FINE

//**************** Track 3 (Midi-Chn.2) ****************//

NeverGonnaGiveYouUp_003:
// 000   ----------------------------------------
 BYTE   KEYSH   NeverGonnaGiveYouUp_key+0
 BYTE   VOICE   39
 BYTE   PAN   c_v+0
 BYTE   VOL   31*NeverGonnaGiveYouUp_mvl/mxv
 BYTE   W36
 BYTE   N05  Ds0  v108
 BYTE   W12
 BYTE   N05
 BYTE   W06
 BYTE   N05
 BYTE   W12
 BYTE   Cn1
 BYTE   W06
 BYTE   As0  v112
 BYTE   W12
 BYTE   Gs0
 BYTE   W12
// 001   ----------------------------------------
 BYTE   N05
 BYTE   W24
 BYTE   Fn0
 BYTE   W06
 BYTE   Gs0  v108
 BYTE   W06
 BYTE   Fn0
 BYTE   W12
 BYTE   N05
 BYTE   W06
 BYTE   Fn0  v112
 BYTE   W12
 BYTE   Cn1  v108
 BYTE   W06
 BYTE   As0  v112
 BYTE   W24
// 002   ----------------------------------------
 BYTE   As0  v108
 BYTE   W06
 BYTE   N05
 BYTE   W06
 BYTE   N05
 BYTE   W06
 BYTE   Cn1  v112
 BYTE   W12
 BYTE   As0  v108
 BYTE   W06
 BYTE   Ds0
 BYTE   W12
 BYTE   Ds0  v112
 BYTE   W06
 BYTE   N05
 BYTE   W12
 BYTE   Cn1
 BYTE   W06
 BYTE   As0
 BYTE   W12
 BYTE   Gs0  v108
 BYTE   W12
// 003   ----------------------------------------
 BYTE   Gs0  v112
 BYTE   W24
 BYTE   N05
 BYTE   W06
 BYTE   N05
 BYTE   W06
 BYTE   Fn0
 BYTE   W12
 BYTE   Fn0  v108
 BYTE   W06
 BYTE   Fn0  v112
 BYTE   W12
 BYTE   Cn1
 BYTE   W06
 BYTE   As0
 BYTE   W24
// 004   ----------------------------------------
 BYTE   Gs0
 BYTE   W12
 BYTE   Gs0  v108
 BYTE   W06
 BYTE   N05
 BYTE   W12
 BYTE   Cs1  v112
 BYTE   W06
 BYTE   Ds0  v108
 BYTE   W12
 BYTE   N05
 BYTE   W06
 BYTE   Ds0  v112
 BYTE   W12
 BYTE   Cn1
 BYTE   W06
 BYTE   As0
 BYTE   W12
 BYTE   Gs0  v108
 BYTE   W12
// 005   ----------------------------------------
 BYTE   N05
 BYTE   W24
 BYTE   Fn0  v112
 BYTE   W06
 BYTE   Gs0
 BYTE   W06
 BYTE   Fn0
 BYTE   W12
 BYTE   N05
 BYTE   W06
 BYTE   N05
 BYTE   W12
 BYTE   Cn1  v108
 BYTE   W06
 BYTE   As0  v112
 BYTE   W24
// 006   ----------------------------------------
 BYTE   As0  v108
 BYTE   W06
 BYTE   N05
 BYTE   W06
 BYTE   N05
 BYTE   W06
 BYTE   Cn1
 BYTE   W12
 BYTE   As0  v112
 BYTE   W06
 BYTE   Ds0
 BYTE   W12
 BYTE   N05
 BYTE   W06
 BYTE   N05
 BYTE   W12
 BYTE   Cn1  v108
 BYTE   W06
 BYTE   As0
 BYTE   W12
 BYTE   Gs0
 BYTE   W12
// 007   ----------------------------------------
 BYTE   Gs0  v112
 BYTE   W24
 BYTE   Gs0  v108
 BYTE   W06
 BYTE   Gs0  v112
 BYTE   W06
 BYTE   Fn0
 BYTE   W12
 BYTE   Fn0  v108
 BYTE   W06
 BYTE   Fn0  v112
 BYTE   W12
 BYTE   Cn1  v108
 BYTE   W06
 BYTE   As0
 BYTE   W24
// 008   ----------------------------------------
 BYTE   Gs0
 BYTE   W12
 BYTE   Gs0  v112
 BYTE   W06
 BYTE   Gs0  v108
 BYTE   W12
 BYTE   Cs1  v112
 BYTE   W06
 BYTE   As0
 BYTE   W12
 BYTE   As0  v108
 BYTE   W06
 BYTE   N05
 BYTE   W12
 BYTE   Cs1
 BYTE   W06
 BYTE   Cn1
 BYTE   W12
 BYTE   N12  Gs0  v112
 BYTE   W12
// 009   ----------------------------------------
 BYTE   N05  As0
 BYTE   W24
 BYTE   Fn0  v108
 BYTE   W06
 BYTE   Gs0
 BYTE   W06
 BYTE   As0
 BYTE   W12
 BYTE   Gs0  v112
 BYTE   W06
 BYTE   As0  v108
 BYTE   W12
 BYTE   Cs1
 BYTE   W06
 BYTE   Cn1  v112
 BYTE   W24
// 010   ----------------------------------------
 BYTE   W24
 BYTE   Fn0  v108
 BYTE   W06
 BYTE   Gs0  v112
 BYTE   W06
 BYTE   As0
 BYTE   W12
 BYTE   N05
 BYTE   W06
 BYTE   N05
 BYTE   W12
 BYTE   Cs1  v108
 BYTE   W06
 BYTE   Cn1
 BYTE   W12
 BYTE   N12  Gs0  v112
 BYTE   W12
// 011   ----------------------------------------
 BYTE   N05  As0  v108
 BYTE   W24
 BYTE   N05
 BYTE   W06
 BYTE   As0  v112
 BYTE   W06
 BYTE   Ds0
 BYTE   W12
 BYTE   Ds0  v108
 BYTE   W06
 BYTE   N05
 BYTE   W12
 BYTE   Ds0  v112
 BYTE   W06
 BYTE   Gs0
 BYTE   W24
// 012   ----------------------------------------
 BYTE   Gs0  v108
 BYTE   W06
 BYTE   N05
 BYTE   W06
 BYTE   Gs0  v112
 BYTE   W12
 BYTE   Fn0  v108
 BYTE   W06
 BYTE   Gs0  v112
 BYTE   W06
 BYTE   As0
 BYTE   W12
 BYTE   N05
 BYTE   W06
 BYTE   As0  v108
 BYTE   W12
 BYTE   Cs1  v112
 BYTE   W06
 BYTE   Cn1
 BYTE   W12
 BYTE   N12  Gs0  v108
 BYTE   W12
// 013   ----------------------------------------
 BYTE   N05  As0  v112
 BYTE   W24
 BYTE   Fn0
 BYTE   W06
 BYTE   Gs0  v108
 BYTE   W06
 BYTE   As0
 BYTE   W12
 BYTE   Gs0
 BYTE   W06
 BYTE   As0  v112
 BYTE   W12
 BYTE   Cs1
 BYTE   W06
 BYTE   Cn1
 BYTE   W24
// 014   ----------------------------------------
 BYTE   W24
 BYTE   Fn0  v108
 BYTE   W06
 BYTE   Gs0  v112
 BYTE   W06
 BYTE   As0
 BYTE   W12
 BYTE   As0  v108
 BYTE   W06
 BYTE   As0  v112
 BYTE   W12
 BYTE   Cs1  v108
 BYTE   W06
 BYTE   Cn1  v112
 BYTE   W12
 BYTE   N12  Gs0  v108
 BYTE   W12
// 015   ----------------------------------------
 BYTE   N05  As0  v112
 BYTE   W24
 BYTE   N05
 BYTE   W06
 BYTE   N05
 BYTE   W06
 BYTE   Ds0
 BYTE   W12
 BYTE   Ds0  v108
 BYTE   W06
 BYTE   Ds0  v112
 BYTE   W12
 BYTE   Ds0  v108
 BYTE   W06
 BYTE   Gs0
 BYTE   W24
// 016   ----------------------------------------
 BYTE   N05
 BYTE   W06
 BYTE   N05
 BYTE   W06
 BYTE   N05
 BYTE   W12
 BYTE   Fn0
 BYTE   W06
 BYTE   Gs0  v112
 BYTE   W06
 BYTE   As0
 BYTE   W12
 BYTE   N05
 BYTE   W06
 BYTE   N05
 BYTE   W12
 BYTE   Cs1  v108
 BYTE   W06
 BYTE   Cn1
 BYTE   W12
 BYTE   N12  Gs0  v112
 BYTE   W12
// 017   ----------------------------------------
 BYTE   N05  As0
 BYTE   W24
 BYTE   Fn0  v108
 BYTE   W06
 BYTE   Gs0  v112
 BYTE   W06
 BYTE   As0
 BYTE   W12
 BYTE   Gs0  v108
 BYTE   W06
 BYTE   As0
 BYTE   W12
 BYTE   Cs1  v112
 BYTE   W06
 BYTE   Cn1
 BYTE   W24
// 018   ----------------------------------------
 BYTE   W24
 BYTE   Fn0
 BYTE   W06
 BYTE   Gs0
 BYTE   W06
 BYTE   As0
 BYTE   W12
 BYTE   N05
 BYTE   W06
 BYTE   N05
 BYTE   W12
 BYTE   Cs1  v108
 BYTE   W06
 BYTE   Cn1
 BYTE   W12
 BYTE   Gs0  v112
 BYTE   W12
// 019   ----------------------------------------
 BYTE   As0  v108
 BYTE   W24
 BYTE   Fn0  v112
 BYTE   W06
 BYTE   Gs0  v108
 BYTE   W06
 BYTE   As0
 BYTE   W12
 BYTE   Gs0  v112
 BYTE   W06
 BYTE   As0  v108
 BYTE   W12
 BYTE   Cs1
 BYTE   W06
 BYTE   Cn1
 BYTE   W24
// 020   ----------------------------------------
 BYTE   W24
 BYTE   Fn0  v112
 BYTE   W06
 BYTE   Gs0
 BYTE   W06
 BYTE   Ds0  v108
 BYTE   W12
 BYTE   N05
 BYTE   W06
 BYTE   Ds0  v112
 BYTE   W12
 BYTE   Cn1
 BYTE   W06
 BYTE   As0
 BYTE   W12
 BYTE   Gs0  v108
 BYTE   W12
// 021   ----------------------------------------
Label_2_01001007:
 BYTE   N05  Gs0  v108
 BYTE   W24
 BYTE   Fn0
 BYTE   W06
 BYTE   Gs0  v112
 BYTE   W06
 BYTE   Fn0
 BYTE   W12
 BYTE   N05
 BYTE   W06
 BYTE   N05
 BYTE   W12
 BYTE   Cn1  v108
 BYTE   W06
 BYTE   As0
 BYTE   W24
// 022   ----------------------------------------
 BYTE   N05
 BYTE   W06
 BYTE   N05
 BYTE   W06
 BYTE   N05
 BYTE   W06
 BYTE   Cn1
 BYTE   W12
 BYTE   As0
 BYTE   W06
 BYTE   Ds0  v112
 BYTE   W12
 BYTE   N05
 BYTE   W06
 BYTE   N05
 BYTE   W12
 BYTE   Cn1  v108
 BYTE   W06
 BYTE   As0
 BYTE   W12
 BYTE   Gs0
 BYTE   W12
// 023   ----------------------------------------
 BYTE   N05
 BYTE   W24
 BYTE   Gs0  v112
 BYTE   W06
 BYTE   Gs0  v108
 BYTE   W06
 BYTE   Fn0  v112
 BYTE   W12
 BYTE   Fn0  v108
 BYTE   W06
 BYTE   Fn0  v112
 BYTE   W12
 BYTE   Cn1
 BYTE   W06
 BYTE   As0  v108
 BYTE   W24
// 024   ----------------------------------------
 BYTE   Gs0
 BYTE   W12
 BYTE   Gs0  v112
 BYTE   W06
 BYTE   N05
 BYTE   W12
 BYTE   Cs1
 BYTE   W06
 BYTE   Ds0
 BYTE   W12
 BYTE   Ds0  v108
 BYTE   W06
 BYTE   Ds0  v112
 BYTE   W12
 BYTE   Cn1  v108
 BYTE   W06
 BYTE   As0  v112
 BYTE   W12
 BYTE   Gs0
 BYTE   W12
// 025   ----------------------------------------
 BYTE   Gs0  v108
 BYTE   W24
 BYTE   Fn0
 BYTE   W06
 BYTE   Gs0  v112
 BYTE   W06
 BYTE   Fn0  v108
 BYTE   W12
 BYTE   N05
 BYTE   W06
 BYTE   Fn0  v112
 BYTE   W12
 BYTE   Cn1
 BYTE   W06
 BYTE   As0
 BYTE   W24
// 026   ----------------------------------------
 BYTE   N05
 BYTE   W06
 BYTE   N05
 BYTE   W06
 BYTE   N05
 BYTE   W06
 BYTE   Cn1  v108
 BYTE   W12
 BYTE   As0  v112
 BYTE   W06
 BYTE   Ds0
 BYTE   W12
 BYTE   Ds0  v108
 BYTE   W06
 BYTE   Ds0  v112
 BYTE   W12
 BYTE   Cn1
 BYTE   W06
 BYTE   As0  v108
 BYTE   W12
 BYTE   Gs0  v112
 BYTE   W12
// 027   ----------------------------------------
 BYTE   Gs0  v108
 BYTE   W24
 BYTE   Gs0  v112
 BYTE   W06
 BYTE   N05
 BYTE   W06
 BYTE   Fn0  v108
 BYTE   W12
 BYTE   Fn0  v112
 BYTE   W06
 BYTE   N05
 BYTE   W12
 BYTE   Cn1
 BYTE   W06
 BYTE   As0  v108
 BYTE   W24
// 028   ----------------------------------------
 BYTE   Gs0
 BYTE   W12
 BYTE   N05
 BYTE   W06
 BYTE   N05
 BYTE   W12
 BYTE   Cs1
 BYTE   W06
 BYTE   As0
 BYTE   W12
 BYTE   N05
 BYTE   W06
 BYTE   As0  v112
 BYTE   W12
 BYTE   Cs1  v108
 BYTE   W06
 BYTE   Cn1  v112
 BYTE   W12
 BYTE   N12  Gs0  v108
 BYTE   W12
// 029   ----------------------------------------
 BYTE   N05  As0
 BYTE   W24
 BYTE   Fn0  v112
 BYTE   W06
 BYTE   Gs0
 BYTE   W06
 BYTE   As0
 BYTE   W12
 BYTE   Gs0
 BYTE   W06
 BYTE   As0  v108
 BYTE   W12
 BYTE   Cs1  v112
 BYTE   W06
 BYTE   Cn1  v108
 BYTE   W24
// 030   ----------------------------------------
 BYTE   W24
 BYTE   Fn0
 BYTE   W06
 BYTE   Gs0
 BYTE   W06
 BYTE   As0
 BYTE   W12
 BYTE   N05
 BYTE   W06
 BYTE   N05
 BYTE   W12
 BYTE   Cs1  v112
 BYTE   W06
 BYTE   Cn1
 BYTE   W12
 BYTE   N12  Gs0
 BYTE   W12
// 031   ----------------------------------------
 BYTE   N05  As0
 BYTE   W24
 BYTE   N05
 BYTE   W06
 BYTE   N05
 BYTE   W06
 BYTE   Ds0  v108
 BYTE   W12
 BYTE   N05
 BYTE   W06
 BYTE   N05
 BYTE   W12
 BYTE   N05
 BYTE   W06
 BYTE   Gs0  v112
 BYTE   W24
// 032   ----------------------------------------
 BYTE   N05
 BYTE   W06
 BYTE   Gs0  v108
 BYTE   W06
 BYTE   N05
 BYTE   W12
 BYTE   Fn0  v112
 BYTE   W06
 BYTE   Gs0  v108
 BYTE   W06
 BYTE   As0  v112
 BYTE   W12
 BYTE   N05
 BYTE   W06
 BYTE   As0  v108
 BYTE   W12
 BYTE   Cs1  v112
 BYTE   W06
 BYTE   Cn1  v108
 BYTE   W12
 BYTE   N12  Gs0  v112
 BYTE   W12
// 033   ----------------------------------------
 BYTE   N05  As0  v108
 BYTE   W24
 BYTE   Fn0  v112
 BYTE   W06
 BYTE   Gs0  v108
 BYTE   W06
 BYTE   As0  v112
 BYTE   W12
 BYTE   Gs0
 BYTE   W06
 BYTE   As0  v108
 BYTE   W12
 BYTE   Cs1
 BYTE   W06
 BYTE   Cn1
 BYTE   W24
// 034   ----------------------------------------
 BYTE   W24
 BYTE   Fn0  v112
 BYTE   W06
 BYTE   Gs0  v108
 BYTE   W06
 BYTE   As0  v112
 BYTE   W12
 BYTE   N05
 BYTE   W06
 BYTE   As0  v108
 BYTE   W12
 BYTE   Cs1
 BYTE   W06
 BYTE   Cn1  v112
 BYTE   W12
 BYTE   N12  Gs0
 BYTE   W12
// 035   ----------------------------------------
 BYTE   N05  As0  v108
 BYTE   W24
 BYTE   As0  v112
 BYTE   W06
 BYTE   As0  v108
 BYTE   W06
 BYTE   Ds0  v112
 BYTE   W12
 BYTE   Ds0  v108
 BYTE   W06
 BYTE   Ds0  v112
 BYTE   W12
 BYTE   Ds0  v108
 BYTE   W06
 BYTE   Gs0  v112
 BYTE   W24
// 036   ----------------------------------------
 BYTE   N05
 BYTE   W06
 BYTE   N05
 BYTE   W06
 BYTE   Gs0  v108
 BYTE   W12
 BYTE   Fn0  v112
 BYTE   W06
 BYTE   Gs0
 BYTE   W06
 BYTE   As0
 BYTE   W12
 BYTE   As0  v108
 BYTE   W06
 BYTE   N05
 BYTE   W12
 BYTE   Cs1
 BYTE   W06
 BYTE   Cn1
 BYTE   W12
 BYTE   N12  Gs0  v112
 BYTE   W12
// 037   ----------------------------------------
 BYTE   N05  As0
 BYTE   W24
 BYTE   Fn0
 BYTE   W06
 BYTE   Gs0
 BYTE   W06
 BYTE   As0
 BYTE   W12
 BYTE   Gs0
 BYTE   W06
 BYTE   As0
 BYTE   W12
 BYTE   Cs1
 BYTE   W06
 BYTE   Cn1
 BYTE   W24
// 038   ----------------------------------------
 BYTE   W24
 BYTE   Fn0
 BYTE   W06
 BYTE   Gs0  v108
 BYTE   W06
 BYTE   As0
 BYTE   W12
 BYTE   N05
 BYTE   W06
 BYTE   N05
 BYTE   W12
 BYTE   Cs1
 BYTE   W06
 BYTE   Cn1  v112
 BYTE   W12
 BYTE   Gs0
 BYTE   W12
// 039   ----------------------------------------
 BYTE   As0  v108
 BYTE   W24
 BYTE   Fn0  v112
 BYTE   W06
 BYTE   Gs0
 BYTE   W06
 BYTE   As0
 BYTE   W12
 BYTE   Gs0
 BYTE   W06
 BYTE   As0  v108
 BYTE   W12
 BYTE   Cs1  v112
 BYTE   W06
 BYTE   Cn1
 BYTE   W24
// 040   ----------------------------------------
 BYTE   W24
 BYTE   Fn0
 BYTE   W06
 BYTE   Gs0  v108
 BYTE   W06
 BYTE   Ds0  v112
 BYTE   W12
 BYTE   N05
 BYTE   W06
 BYTE   Ds0  v108
 BYTE   W12
 BYTE   Cn1  v112
 BYTE   W06
 BYTE   As0
 BYTE   W12
 BYTE   Gs0
 BYTE   W12
// 041   ----------------------------------------
 BYTE   Gs0  v108
 BYTE   W24
 BYTE   Fn0  v112
 BYTE   W06
 BYTE   Gs0
 BYTE   W06
 BYTE   Fn0
 BYTE   W12
 BYTE   Fn0  v108
 BYTE   W06
 BYTE   N05
 BYTE   W12
 BYTE   Cn1
 BYTE   W06
 BYTE   As0
 BYTE   W24
// 042   ----------------------------------------
 BYTE   As0  v112
 BYTE   W06
 BYTE   As0  v108
 BYTE   W06
 BYTE   As0  v112
 BYTE   W06
 BYTE   Cn1  v108
 BYTE   W12
 BYTE   As0  v112
 BYTE   W06
 BYTE   Ds0
 BYTE   W12
 BYTE   Ds0  v108
 BYTE   W06
 BYTE   N05
 BYTE   W12
 BYTE   Cn1
 BYTE   W06
 BYTE   As0
 BYTE   W12
 BYTE   Gs0  v112
 BYTE   W12
// 043   ----------------------------------------
 BYTE   Gs0  v108
 BYTE   W24
 BYTE   Gs0  v112
 BYTE   W06
 BYTE   N05
 BYTE   W06
 BYTE   Fn0
 BYTE   W12
 BYTE   Fn0  v108
 BYTE   W06
 BYTE   Fn0  v112
 BYTE   W12
 BYTE   Cn1
 BYTE   W06
 BYTE   As0
 BYTE   W24
// 044   ----------------------------------------
 BYTE   Gs0  v108
 BYTE   W12
 BYTE   N05
 BYTE   W06
 BYTE   Gs0  v112
 BYTE   W12
 BYTE   Cs1  v108
 BYTE   W06
 BYTE   Ds0
 BYTE   W12
 BYTE   N05
 BYTE   W06
 BYTE   Ds0  v112
 BYTE   W12
 BYTE   Cn1
 BYTE   W06
 BYTE   As0  v108
 BYTE   W12
 BYTE   Gs0
 BYTE   W12
// 045   ----------------------------------------
 BYTE   Gs0  v112
 BYTE   W24
 BYTE   Fn0  v108
 BYTE   W06
 BYTE   Gs0
 BYTE   W06
 BYTE   Fn0
 BYTE   W12
 BYTE   N05
 BYTE   W06
 BYTE   Fn0  v112
 BYTE   W12
 BYTE   Cn1  v108
 BYTE   W06
 BYTE   As0  v112
 BYTE   W24
// 046   ----------------------------------------
 BYTE   As0  v108
 BYTE   W06
 BYTE   N05
 BYTE   W06
 BYTE   N05
 BYTE   W06
 BYTE   Cn1  v112
 BYTE   W12
 BYTE   As0  v108
 BYTE   W06
 BYTE   Ds0  v112
 BYTE   W12
 BYTE   Ds0  v108
 BYTE   W06
 BYTE   N05
 BYTE   W12
 BYTE   Cn1
 BYTE   W06
 BYTE   As0
 BYTE   W12
 BYTE   Gs0
 BYTE   W12
// 047   ----------------------------------------
 BYTE   Gs0  v112
 BYTE   W24
 BYTE   N05
 BYTE   W06
 BYTE   Gs0  v108
 BYTE   W06
 BYTE   Fn0  v112
 BYTE   W12
 BYTE   Fn0  v108
 BYTE   W06
 BYTE   Fn0  v112
 BYTE   W12
 BYTE   Cn1  v108
 BYTE   W06
 BYTE   As0  v112
 BYTE   W24
// 048   ----------------------------------------
 BYTE   Gs0
 BYTE   W12
 BYTE   Gs0  v108
 BYTE   W06
 BYTE   N05
 BYTE   W12
 BYTE   Cs1
 BYTE   W06
 BYTE   Ds0  v112
 BYTE   W12
 BYTE   Ds0  v108
 BYTE   W06
 BYTE   Ds0  v112
 BYTE   W12
 BYTE   Cn1
 BYTE   W06
 BYTE   As0
 BYTE   W12
 BYTE   Gs0  v108
 BYTE   W12
// 049   ----------------------------------------
 BYTE   N05
 BYTE   W24
 BYTE   Fn0  v112
 BYTE   W06
 BYTE   Gs0
 BYTE   W06
 BYTE   Fn0
 BYTE   W12
 BYTE   Fn0  v108
 BYTE   W06
 BYTE   Fn0  v112
 BYTE   W12
 BYTE   Cn1
 BYTE   W06
 BYTE   As0
 BYTE   W24
// 050   ----------------------------------------
 BYTE   N05
 BYTE   W06
 BYTE   As0  v108
 BYTE   W06
 BYTE   As0  v112
 BYTE   W06
 BYTE   Cn1  v108
 BYTE   W12
 BYTE   As0
 BYTE   W06
 BYTE   Ds0
 BYTE   W12
 BYTE   N05
 BYTE   W06
 BYTE   N05
 BYTE   W12
 BYTE   Cn1
 BYTE   W06
 BYTE   As0  v112
 BYTE   W12
 BYTE   Gs0
 BYTE   W12
// 051   ----------------------------------------
 BYTE   N05
 BYTE   W24
 BYTE   Gs0  v108
 BYTE   W06
 BYTE   N05
 BYTE   W06
 BYTE   Fn0  v112
 BYTE   W12
 BYTE   Fn0  v108
 BYTE   W06
 BYTE   N05
 BYTE   W12
 BYTE   Cn1
 BYTE   W06
 BYTE   As0  v112
 BYTE   W24
// 052   ----------------------------------------
 BYTE   Gs0
 BYTE   W12
 BYTE   Gs0  v108
 BYTE   W06
 BYTE   Gs0  v112
 BYTE   W12
 BYTE   Cs1  v108
 BYTE   W06
 BYTE   Ds0
 BYTE   W12
 BYTE   Ds0  v112
 BYTE   W06
 BYTE   Ds0  v108
 BYTE   W12
 BYTE   Cn1
 BYTE   W06
 BYTE   As0
 BYTE   W12
 BYTE   Gs0  v112
 BYTE   W12
// 053   ----------------------------------------
 BYTE   N05
 BYTE   W24
 BYTE   Fn0  v108
 BYTE   W06
 BYTE   Gs0  v112
 BYTE   W06
 BYTE   Fn0
 BYTE   W12
 BYTE   N05
 BYTE   W06
 BYTE   Fn0  v108
 BYTE   W12
 BYTE   Cn1
 BYTE   W06
 BYTE   As0
 BYTE   W24
// 054   ----------------------------------------
 BYTE   N05
 BYTE   W06
 BYTE   As0  v112
 BYTE   W06
 BYTE   As0  v108
 BYTE   W06
 BYTE   Cn1
 BYTE   W12
 BYTE   As0
 BYTE   W06
 BYTE   Ds0
 BYTE   W12
 BYTE   N05
 BYTE   W06
 BYTE   N05
 BYTE   W12
 BYTE   Cn1  v112
 BYTE   W06
 BYTE   As0  v108
 BYTE   W12
 BYTE   Gs0  v112
 BYTE   W12
// 055   ----------------------------------------
 BYTE   N05
 BYTE   W24
 BYTE   Gs0  v108
 BYTE   W06
 BYTE   N05
 BYTE   W06
 BYTE   Fn0  v112
 BYTE   W12
 BYTE   N05
 BYTE   W06
 BYTE   Fn0  v108
 BYTE   W12
 BYTE   Cn1
 BYTE   W06
 BYTE   As0  v112
 BYTE   W24
// 056   ----------------------------------------
 BYTE   Gs0
 BYTE   W12
 BYTE   Gs0  v108
 BYTE   W06
 BYTE   N05
 BYTE   W12
 BYTE   Cs1
 BYTE   W06
 BYTE   Ds1  v112
 BYTE   W12
 BYTE   Cs1  v108
 BYTE   W06
 BYTE   Ds1
 BYTE   W12
 BYTE   Fs1
 BYTE   W06
 BYTE   Fn1
 BYTE   W12
 BYTE   N12  Cs1
 BYTE   W12
// 057   ----------------------------------------
 BYTE   N05  Ds1  v112
 BYTE   W24
 BYTE   Fn0
 BYTE   W06
 BYTE   Gs0  v108
 BYTE   W06
 BYTE   As0  v112
 BYTE   W12
 BYTE   Gs0  v108
 BYTE   W06
 BYTE   As0  v112
 BYTE   W12
 BYTE   Cs1
 BYTE   W06
 BYTE   Cn1  v108
 BYTE   W24
// 058   ----------------------------------------
 BYTE   W24
 BYTE   As0  v112
 BYTE   W06
 BYTE   Cs1  v108
 BYTE   W06
 BYTE   Ds1
 BYTE   W12
 BYTE   Cs1  v112
 BYTE   W06
 BYTE   Ds1
 BYTE   W12
 BYTE   Fs1  v108
 BYTE   W06
 BYTE   Fn1  v112
 BYTE   W12
 BYTE   N12  Cs1  v108
 BYTE   W12
// 059   ----------------------------------------
 BYTE   N05  Ds1
 BYTE   W24
 BYTE   Fn0  v112
 BYTE   W06
 BYTE   Gs0  v108
 BYTE   W06
 BYTE   As0  v112
 BYTE   W12
 BYTE   Gs0  v108
 BYTE   W06
 BYTE   As0
 BYTE   W12
 BYTE   Cs1  v112
 BYTE   W06
 BYTE   Cn1
 BYTE   W24
// 060   ----------------------------------------
 BYTE   W24
 BYTE   As0
 BYTE   W06
 BYTE   Cs1
 BYTE   W06
 BYTE   Ds1
 BYTE   W12
 BYTE   Cs1
 BYTE   W06
 BYTE   Ds1  v108
 BYTE   W12
 BYTE   Fs1  v112
 BYTE   W06
 BYTE   Fn1
 BYTE   W12
 BYTE   N12  Cs1  v108
 BYTE   W12
// 061   ----------------------------------------
 BYTE   N05  Ds1
 BYTE   W24
 BYTE   Fn0  v112
 BYTE   W06
 BYTE   Gs0  v108
 BYTE   W06
 BYTE   As0
 BYTE   W12
 BYTE   Gs0  v112
 BYTE   W06
 BYTE   As0
 BYTE   W12
 BYTE   Cs1
 BYTE   W06
 BYTE   Cn1  v108
 BYTE   W24
// 062   ----------------------------------------
 BYTE   W24
 BYTE   As0  v112
 BYTE   W06
 BYTE   Cs1
 BYTE   W06
 BYTE   Ds1
 BYTE   W12
 BYTE   Cs1  v108
 BYTE   W06
 BYTE   Ds1  v112
 BYTE   W12
 BYTE   Fs1
 BYTE   W06
 BYTE   Fn1
 BYTE   W12
 BYTE   N12  Cs1  v108
 BYTE   W12
// 063   ----------------------------------------
 BYTE   N05  Ds1
 BYTE   W24
 BYTE   Fn0  v112
 BYTE   W06
 BYTE   Gs0
 BYTE   W06
 BYTE   As0
 BYTE   W12
 BYTE   Gs0
 BYTE   W06
 BYTE   As0
 BYTE   W12
 BYTE   Cs1  v108
 BYTE   W06
 BYTE   Cn1  v112
 BYTE   W24
// 064   ----------------------------------------
 BYTE   W24
 BYTE   As0
 BYTE   W06
 BYTE   Cs1  v108
 BYTE   W66
// 065   ----------------------------------------
 BYTE   W96
// 066   ----------------------------------------
 BYTE   W96
// 067   ----------------------------------------
 BYTE   W96
// 068   ----------------------------------------
 BYTE   W96
// 069   ----------------------------------------
 BYTE   W96
// 070   ----------------------------------------
 BYTE   W96
// 071   ----------------------------------------
 BYTE   W96
// 072   ----------------------------------------
 BYTE   W36
 BYTE   As0  v112
 BYTE   W12
 BYTE   N05
 BYTE   W06
 BYTE   As0  v108
 BYTE   W12
 BYTE   Cs1  v112
 BYTE   W06
 BYTE   Cn1
 BYTE   W12
 BYTE   N12  Gs0  v108
 BYTE   W12
// 073   ----------------------------------------
 BYTE   N05  As0  v112
 BYTE   W24
 BYTE   Fn0  v108
 BYTE   W06
 BYTE   Gs0  v112
 BYTE   W06
 BYTE   As0  v108
 BYTE   W12
 BYTE   Gs0  v112
 BYTE   W06
 BYTE   As0  v108
 BYTE   W12
 BYTE   Cs1  v112
 BYTE   W06
 BYTE   Cn1
 BYTE   W24
// 074   ----------------------------------------
 BYTE   W24
 BYTE   Fn0  v108
 BYTE   W06
 BYTE   Gs0
 BYTE   W06
 BYTE   As0  v112
 BYTE   W12
 BYTE   As0  v108
 BYTE   W06
 BYTE   As0  v112
 BYTE   W12
 BYTE   Cs1
 BYTE   W06
 BYTE   Cn1  v108
 BYTE   W12
 BYTE   Gs0
 BYTE   W12
// 075   ----------------------------------------
 BYTE   As0  v112
 BYTE   W24
 BYTE   Fn0
 BYTE   W06
 BYTE   Gs0  v108
 BYTE   W06
 BYTE   As0  v112
 BYTE   W12
 BYTE   Gs0
 BYTE   W06
 BYTE   As0  v108
 BYTE   W12
 BYTE   Cs1  v112
 BYTE   W06
 BYTE   Cn1  v108
 BYTE   W24
// 076   ----------------------------------------
 BYTE   W24
 BYTE   Fn0
 BYTE   W06
 BYTE   Gs0  v112
 BYTE   W06
 BYTE   Ds0
 BYTE   W12
 BYTE   Ds0  v108
 BYTE   W06
 BYTE   Ds0  v112
 BYTE   W12
 BYTE   Cn1
 BYTE   W06
 BYTE   As0  v108
 BYTE   W12
 BYTE   Gs0  v112
 BYTE   W12
// 077   ----------------------------------------
 BYTE   GoTo
  POIN2 Label_2_01001007
 BYTE   FINE

//**************** Track 4 (Midi-Chn.3) ****************//

NeverGonnaGiveYouUp_004:
// 000   ----------------------------------------
 BYTE   KEYSH   NeverGonnaGiveYouUp_key+0
 BYTE   VOICE   0
 BYTE   PAN   c_v+0
 BYTE   VOL   31*NeverGonnaGiveYouUp_mvl/mxv
 BYTE   W36
 BYTE   N30  As2  v092
 BYTE   N30  Cs3  v088
 BYTE   N30  Fn3  v092
 BYTE   W36
 BYTE   N54  Gs2
 BYTE   N54  Cn3  v088
 BYTE   N54  Ds3  v096
 BYTE   W24
// 001   ----------------------------------------
 BYTE   W36
 BYTE   N30  Gs2
 BYTE   N30  Cn3  v088
 BYTE   N30  Ds3
 BYTE   W36
 BYTE   N54  As2
 BYTE   N54  Cs3  v092
 BYTE   N54  Fn3
 BYTE   W24
// 002   ----------------------------------------
 BYTE   W36
 BYTE   N30  As2
 BYTE   N30  Cs3
 BYTE   N30  Fn3
 BYTE   W36
 BYTE   N54  Gs2
 BYTE   N54  Cn3  v088
 BYTE   N54  Ds3  v096
 BYTE   W24
// 003   ----------------------------------------
 BYTE   W36
 BYTE   N30  Gs2  v092
 BYTE   N30  Cn3
 BYTE   N30  Ds3
 BYTE   W36
 BYTE   N54  As2  v088
 BYTE   N54  Cs3
 BYTE   N54  Fn3
 BYTE   W24
// 004   ----------------------------------------
 BYTE   W36
 BYTE   N24  As2  v096
 BYTE   N24  Cs3  v092
 BYTE   N24  Fn3
 BYTE   W36
 BYTE   N54  Gs2  v096
 BYTE   N54  Cn3
 BYTE   N54  Ds3  v088
 BYTE   W24
// 005   ----------------------------------------
 BYTE   W36
 BYTE   N24  Gs2
 BYTE   N24  Cn3
 BYTE   N24  Ds3  v096
 BYTE   W36
 BYTE   N54  As2  v092
 BYTE   N54  Cs3
 BYTE   N54  Fn3
 BYTE   W24
// 006   ----------------------------------------
 BYTE   W36
 BYTE   N24  As2  v088
 BYTE   N24  Cs3  v092
 BYTE   N24  Fn3  v088
 BYTE   W36
 BYTE   N54  Gs2  v092
 BYTE   N54  Cn3
 BYTE   N54  Ds3
 BYTE   W24
// 007   ----------------------------------------
 BYTE   W48
 BYTE   N06  As2
 BYTE   N06  Cs3
 BYTE   N06  Fn3
 BYTE   W12
 BYTE   N66  As2  v096
 BYTE   N66  Cs3  v092
 BYTE   N66  Fn3  v088
 BYTE   W36
// 008   ----------------------------------------
 BYTE   W36
 BYTE   N84  Fs2  v092
 BYTE   N84  As2
 BYTE   N84  Cs3  v088
 BYTE   N84  Fn3  v096
 BYTE   W60
// 009   ----------------------------------------
 BYTE   W36
 BYTE   Gs2  v088
 BYTE   N84  Cn3  v092
 BYTE   N84  Ds3
 BYTE   W60
// 010   ----------------------------------------
 BYTE   W36
 BYTE   Fs2  v096
 BYTE   N84  As2
 BYTE   N84  Cs3  v092
 BYTE   N84  Fn3
 BYTE   W60
// 011   ----------------------------------------
 BYTE   W36
 BYTE   N30  As2
 BYTE   N30  Cs3  v088
 BYTE   N30  Fn3
 BYTE   N30  Gs3
 BYTE   W36
 BYTE   N48  Gs2
 BYTE   N48  Cn3  v092
 BYTE   N48  Ds3  v088
 BYTE   W24
// 012   ----------------------------------------
 BYTE   W36
 BYTE   N84  Fs2  v092
 BYTE   N84  As2  v088
 BYTE   N84  Cs3  v096
 BYTE   N84  Fn3  v088
 BYTE   W60
// 013   ----------------------------------------
 BYTE   W36
 BYTE   Gs2
 BYTE   N84  Cn3  v092
 BYTE   N84  Ds3  v088
 BYTE   W60
// 014   ----------------------------------------
 BYTE   W36
 BYTE   N90  Fs2
 BYTE   N90  As2  v092
 BYTE   N90  Cs3
 BYTE   N90  Fn3  v088
 BYTE   W60
// 015   ----------------------------------------
 BYTE   W36
 BYTE   N30  Fs2  v092
 BYTE   N30  As2
 BYTE   N30  Cs3  v096
 BYTE   N30  Fn3
 BYTE   W36
 BYTE   N54  Gs2  v088
 BYTE   N54  Cn3  v092
 BYTE   N54  Ds3
 BYTE   W24
// 016   ----------------------------------------
 BYTE   W36
 BYTE   N90  Cs3  v088
 BYTE   N90  Ds3  v096
 BYTE   N90  Fs3  v092
 BYTE   N90  As3
 BYTE   W60
// 017   ----------------------------------------
 BYTE   W36
 BYTE   Cn3
 BYTE   N90  Ds3  v088
 BYTE   N90  Fn3  v092
 BYTE   N96  Gs3
 BYTE   W60
// 018   ----------------------------------------
 BYTE   W36
 BYTE   N90  Cs3  v088
 BYTE   N90  Ds3
 BYTE   N90  Fs3  v092
 BYTE   N90  As3  v088
 BYTE   W60
// 019   ----------------------------------------
 BYTE   W36
 BYTE   N12  Cs3  v092
 BYTE   N12  Ds3
 BYTE   N12  Fs3  v088
 BYTE   N12  As3
 BYTE   W18
 BYTE   N06  Cs3  v096
 BYTE   N06  Ds3  v092
 BYTE   N06  Fs3  v088
 BYTE   N06  As3
 BYTE   W18
 BYTE   N54  Ds3  v092
 BYTE   N54  Gs3
 BYTE   N54  Cn4
 BYTE   W24
// 020   ----------------------------------------
 BYTE   W36
 BYTE   N30  As2
 BYTE   N30  Cs3  v096
 BYTE   N30  Fn3  v088
 BYTE   W36
 BYTE   N54  Gs2  v092
 BYTE   N54  Cn3  v096
 BYTE   N54  Ds3  v092
 BYTE   W24
// 021   ----------------------------------------
Label_3_010015B2:
 BYTE   W36
 BYTE   N24  Fn2  v092
 BYTE   N24  Gs2  v088
 BYTE   N24  Cn3  v092
 BYTE   W36
 BYTE   N54  As2
 BYTE   N54  Cs3
 BYTE   N54  Fn3
 BYTE   W24
// 022   ----------------------------------------
 BYTE   W36
 BYTE   N30  As2
 BYTE   N30  Cs3
 BYTE   N30  Fn3  v088
 BYTE   W36
 BYTE   N48  Gs2  v096
 BYTE   N48  Cn3  v092
 BYTE   N48  Ds3
 BYTE   W24
// 023   ----------------------------------------
 BYTE   W36
 BYTE   N24  Fn2  v088
 BYTE   N24  Gs2
 BYTE   N24  Cn3  v092
 BYTE   W36
 BYTE   N54  As2  v096
 BYTE   N54  Cs3  v088
 BYTE   N54  Fn3  v096
 BYTE   W24
// 024   ----------------------------------------
 BYTE   W36
 BYTE   N30  As2  v088
 BYTE   N30  Cs3
 BYTE   N30  Fn3
 BYTE   W36
 BYTE   N54  Gs2  v092
 BYTE   N54  Cn3  v088
 BYTE   N54  Ds3
 BYTE   W24
// 025   ----------------------------------------
 BYTE   W36
 BYTE   N24  Fn2  v092
 BYTE   N24  Gs2
 BYTE   N24  Cn3  v088
 BYTE   W36
 BYTE   N54  As2  v096
 BYTE   N54  Cs3  v092
 BYTE   N54  Fn3  v088
 BYTE   W24
// 026   ----------------------------------------
 BYTE   W36
 BYTE   N30  As2  v092
 BYTE   N30  Cs3
 BYTE   N30  Fn3
 BYTE   W36
 BYTE   N54  Gs2  v088
 BYTE   N54  Cn3  v096
 BYTE   N54  Ds3
 BYTE   W24
// 027   ----------------------------------------
 BYTE   W36
 BYTE   N06  Gs2  v092
 BYTE   N06  Cn3
 BYTE   N06  Ds3  v088
 BYTE   W24
 BYTE   N66  As2
 BYTE   N66  Cs3  v092
 BYTE   N66  Fn3
 BYTE   W36
// 028   ----------------------------------------
 BYTE   W36
 BYTE   N84  Fs2
 BYTE   N84  As2  v088
 BYTE   N84  Cs3
 BYTE   N84  Fn3  v092
 BYTE   W60
// 029   ----------------------------------------
 BYTE   W36
 BYTE   Gs2
 BYTE   N84  Cn3
 BYTE   N84  Ds3
 BYTE   W60
// 030   ----------------------------------------
 BYTE   W36
 BYTE   Fs2  v096
 BYTE   N84  As2  v092
 BYTE   N84  Cs3  v088
 BYTE   N84  Fn3  v092
 BYTE   W60
// 031   ----------------------------------------
 BYTE   W36
 BYTE   N30  As2
 BYTE   N30  Cs3  v088
 BYTE   N30  Fn3
 BYTE   N30  Gs3  v092
 BYTE   W36
 BYTE   N48  Gs2  v088
 BYTE   N48  Cn3  v092
 BYTE   N48  Ds3
 BYTE   W24
// 032   ----------------------------------------
 BYTE   W36
 BYTE   N84  Fs2  v096
 BYTE   N84  As2  v088
 BYTE   N84  Cs3
 BYTE   N84  Fn3  v092
 BYTE   W60
// 033   ----------------------------------------
 BYTE   W36
 BYTE   Gs2  v088
 BYTE   N84  Cn3
 BYTE   N84  Ds3
 BYTE   W60
// 034   ----------------------------------------
 BYTE   W36
 BYTE   N90  Fs2  v096
 BYTE   N90  As2  v092
 BYTE   N90  Cs3
 BYTE   N90  Fn3
 BYTE   W60
// 035   ----------------------------------------
 BYTE   W36
 BYTE   N30  Fs2  v088
 BYTE   N30  As2
 BYTE   N30  Cs3  v092
 BYTE   N30  Fn3  v096
 BYTE   W36
 BYTE   N54  Gs2  v092
 BYTE   N54  Cn3  v088
 BYTE   N54  Ds3
 BYTE   W24
// 036   ----------------------------------------
 BYTE   W36
 BYTE   N90  Cs3  v092
 BYTE   N90  Ds3  v088
 BYTE   N90  Fs3  v096
 BYTE   N90  As3  v092
 BYTE   W60
// 037   ----------------------------------------
 BYTE   W36
 BYTE   Cn3
 BYTE   N90  Ds3
 BYTE   N90  Fn3
 BYTE   N90  Gs3
 BYTE   W60
// 038   ----------------------------------------
 BYTE   W36
 BYTE   Cs3
 BYTE   N90  Ds3  v088
 BYTE   N90  Fs3  v092
 BYTE   N90  As3
 BYTE   W60
// 039   ----------------------------------------
 BYTE   W36
 BYTE   N12  Cs3
 BYTE   N12  Ds3
 BYTE   N12  Fs3  v088
 BYTE   N12  As3  v092
 BYTE   W18
 BYTE   N06  Cs3  v088
 BYTE   N06  Ds3  v092
 BYTE   N06  Fs3  v088
 BYTE   N06  As3  v092
 BYTE   W18
 BYTE   N54  Ds3
 BYTE   N54  Gs3
 BYTE   N54  Cn4  v088
 BYTE   W24
// 040   ----------------------------------------
 BYTE   W36
 BYTE   N30  As2  v092
 BYTE   N30  Cs3
 BYTE   N30  Fn3
 BYTE   W36
 BYTE   N54  Gs2
 BYTE   N54  Cn3
 BYTE   N54  Ds3  v096
 BYTE   W24
// 041   ----------------------------------------
 BYTE   W36
 BYTE   N30  Fn2  v092
 BYTE   N30  Gs2  v088
 BYTE   N30  Cn3  v092
 BYTE   W36
 BYTE   N54  As2  v088
 BYTE   N54  Cs3  v092
 BYTE   N54  Fn3
 BYTE   W24
// 042   ----------------------------------------
 BYTE   W36
 BYTE   N30  As2
 BYTE   N30  Cs3  v088
 BYTE   N30  Fn3
 BYTE   W36
 BYTE   N54  Gs2  v092
 BYTE   N54  Cn3  v096
 BYTE   N54  Ds3  v092
 BYTE   W24
// 043   ----------------------------------------
 BYTE   W36
 BYTE   N30  Fn2
 BYTE   N30  Gs2
 BYTE   N30  Cn3
 BYTE   W36
 BYTE   N54  As2
 BYTE   N54  Cs3
 BYTE   N54  Fn3  v088
 BYTE   W24
// 044   ----------------------------------------
 BYTE   W36
 BYTE   N30  As2  v092
 BYTE   N30  Cs3  v088
 BYTE   N30  Fn3  v092
 BYTE   W36
 BYTE   N54  Gs2  v088
 BYTE   N54  Cn3
 BYTE   N54  Ds3  v096
 BYTE   W24
// 045   ----------------------------------------
 BYTE   W36
 BYTE   N30  Fn2  v088
 BYTE   N30  Gs2
 BYTE   N30  Cn3
 BYTE   W36
 BYTE   N54  As2
 BYTE   N54  Cs3  v092
 BYTE   N54  Fn3  v096
 BYTE   W24
// 046   ----------------------------------------
 BYTE   W36
 BYTE   N30  As2  v092
 BYTE   N30  Cs3
 BYTE   N30  Fn3
 BYTE   W36
 BYTE   N54  Gs2
 BYTE   N54  Cn3  v088
 BYTE   N54  Ds3
 BYTE   W24
// 047   ----------------------------------------
 BYTE   W36
 BYTE   N12  Gs2  v092
 BYTE   N12  Cn3
 BYTE   N12  Ds3  v088
 BYTE   W24
 BYTE   N66  As2
 BYTE   N66  Cs3  v092
 BYTE   N66  Fn3
 BYTE   W36
// 048   ----------------------------------------
 BYTE   W36
 BYTE   N30  As2  v096
 BYTE   N30  Cs3  v092
 BYTE   N30  Fn3  v096
 BYTE   W36
 BYTE   N54  Gs2  v088
 BYTE   N54  Cn3
 BYTE   N54  Ds3
 BYTE   W24
// 049   ----------------------------------------
 BYTE   W36
 BYTE   N30  Gs2
 BYTE   N30  Cn3
 BYTE   N30  Ds3  v092
 BYTE   W36
 BYTE   N54  As2
 BYTE   N54  Cs3
 BYTE   N54  Fn3  v088
 BYTE   W24
// 050   ----------------------------------------
Label_3_01001798:
 BYTE   W36
 BYTE   N30  As2  v088
 BYTE   N30  Cs3  v092
 BYTE   N30  Fn3
 BYTE   W36
 BYTE   N54  Gs2
 BYTE   N54  Cn3  v088
 BYTE   N54  Ds3  v092
 BYTE   W24
 BYTE   PEND 
// 051   ----------------------------------------
 BYTE   W36
 BYTE   N30  Gs2
 BYTE   N30  Cn3  v096
 BYTE   N30  Ds3  v088
 BYTE   W36
 BYTE   N54  As2
 BYTE   N54  Cs3  v096
 BYTE   N54  Fn3  v092
 BYTE   W24
// 052   ----------------------------------------
 BYTE   W36
 BYTE   N30  As2  v096
 BYTE   N30  Cs3  v088
 BYTE   N30  Fn3  v092
 BYTE   W36
 BYTE   N54  Gs2  v088
 BYTE   N54  Cn3  v092
 BYTE   N54  Ds3  v088
 BYTE   W24
// 053   ----------------------------------------
 BYTE   W36
 BYTE   N30  Gs2  v092
 BYTE   N30  Cn3  v088
 BYTE   N30  Ds3  v092
 BYTE   W36
 BYTE   N54  As2
 BYTE   N54  Cs3
 BYTE   N54  Fn3
 BYTE   W24
 BYTE   PATT
  POIN2 Label_3_01001798
// 054   ----------------------------------------
 BYTE   W36
 BYTE   N12  Gs2  v092
 BYTE   N12  Cn3  v096
 BYTE   N12  Ds3  v092
 BYTE   W24
 BYTE   N72  As2
 BYTE   N72  Cs3  v096
 BYTE   N72  Fn3  v092
 BYTE   W36
// 055   ----------------------------------------
 BYTE   W96
// 056   ----------------------------------------
 BYTE   W96
// 057   ----------------------------------------
 BYTE   W96
// 058   ----------------------------------------
 BYTE   W96
// 059   ----------------------------------------
 BYTE   W96
// 060   ----------------------------------------
 BYTE   W96
// 061   ----------------------------------------
 BYTE   W96
// 062   ----------------------------------------
 BYTE   W96
// 063   ----------------------------------------
 BYTE   W96
// 064   ----------------------------------------
 BYTE   W96
// 065   ----------------------------------------
 BYTE   W96
// 066   ----------------------------------------
 BYTE   W96
// 067   ----------------------------------------
 BYTE   W96
// 068   ----------------------------------------
 BYTE   W96
// 069   ----------------------------------------
 BYTE   W96
// 070   ----------------------------------------
 BYTE   W96
// 071   ----------------------------------------
 BYTE   W36
 BYTE   N90  Cs3  v088
 BYTE   N90  Ds3  v092
 BYTE   N90  Fs3
 BYTE   N90  As3
 BYTE   W60
// 072   ----------------------------------------
 BYTE   W36
 BYTE   Cn3  v096
 BYTE   N90  Ds3
 BYTE   N90  Fn3  v092
 BYTE   N90  Gs3
 BYTE   W60
// 073   ----------------------------------------
 BYTE   W36
 BYTE   Cs3
 BYTE   N90  Ds3
 BYTE   N90  Fs3
 BYTE   N90  As3  v088
 BYTE   W60
// 074   ----------------------------------------
 BYTE   W36
 BYTE   N06  Cs3  v092
 BYTE   N06  Ds3
 BYTE   N06  Fs3
 BYTE   N06  As3  v088
 BYTE   W18
 BYTE   Cs3  v096
 BYTE   N06  Ds3  v092
 BYTE   N06  Fs3  v088
 BYTE   N06  As3
 BYTE   W18
 BYTE   N54  Ds3  v092
 BYTE   N54  Gs3  v088
 BYTE   N54  Cn4
 BYTE   W24
// 075   ----------------------------------------
 BYTE   W36
 BYTE   N30  As2
 BYTE   N30  Cs3  v092
 BYTE   N30  Fn3  v088
 BYTE   W60
// 076   ----------------------------------------
 BYTE   GoTo
  POIN2 Label_3_010015B2
 BYTE   FINE

//**************** Track 5 (Midi-Chn.4) ****************//

NeverGonnaGiveYouUp_005:
// 000   ----------------------------------------
 BYTE   KEYSH   NeverGonnaGiveYouUp_key+0
 BYTE   VOICE   90
 BYTE   PAN   c_v+0
 BYTE   VOL   31*NeverGonnaGiveYouUp_mvl/mxv
 BYTE   W96
// 001   ----------------------------------------
 BYTE   W96
// 002   ----------------------------------------
 BYTE   W96
// 003   ----------------------------------------
 BYTE   W96
// 004   ----------------------------------------
 BYTE   W96
// 005   ----------------------------------------
 BYTE   W96
// 006   ----------------------------------------
 BYTE   W96
// 007   ----------------------------------------
 BYTE   W96
// 008   ----------------------------------------
 BYTE   W96
// 009   ----------------------------------------
 BYTE   W96
// 010   ----------------------------------------
 BYTE   W96
// 011   ----------------------------------------
 BYTE   W96
// 012   ----------------------------------------
 BYTE   W96
// 013   ----------------------------------------
 BYTE   W96
// 014   ----------------------------------------
 BYTE   W96
// 015   ----------------------------------------
 BYTE   W96
// 016   ----------------------------------------
 BYTE   W36
 BYTE   N90  Cs3  v084
 BYTE   N90  Ds3
 BYTE   N90  Fs3
 BYTE   N90  As3  v088
 BYTE   W60
// 017   ----------------------------------------
 BYTE   W36
 BYTE   Cn3
 BYTE   N90  Ds3  v084
 BYTE   N90  Fn3  v088
 BYTE   N90  Gs3
 BYTE   W60
// 018   ----------------------------------------
 BYTE   W36
 BYTE   Cs3
 BYTE   N90  Ds3
 BYTE   N90  Fs3
 BYTE   N90  As3  v084
 BYTE   W60
// 019   ----------------------------------------
 BYTE   W36
 BYTE   N12  Cs3
 BYTE   N12  Ds3  v088
 BYTE   N12  Fs3  v084
 BYTE   N12  As3  v088
 BYTE   W18
 BYTE   N06  Cs3
 BYTE   N06  Ds3  v084
 BYTE   N06  Fs3  v088
 BYTE   N06  As3  v084
 BYTE   W18
 BYTE   N60  Ds3
 BYTE   N60  Gs3  v088
 BYTE   N60  Cn4
 BYTE   W24
// 020   ----------------------------------------
 BYTE   W96
// 021   ----------------------------------------
Label_4_010018BB:
 BYTE   W96
// 022   ----------------------------------------
 BYTE   W96
// 023   ----------------------------------------
 BYTE   W96
// 024   ----------------------------------------
 BYTE   W96
// 025   ----------------------------------------
 BYTE   W96
// 026   ----------------------------------------
 BYTE   W96
// 027   ----------------------------------------
 BYTE   W96
// 028   ----------------------------------------
 BYTE   W96
// 029   ----------------------------------------
 BYTE   W96
// 030   ----------------------------------------
 BYTE   W96
// 031   ----------------------------------------
 BYTE   W96
// 032   ----------------------------------------
 BYTE   W96
// 033   ----------------------------------------
 BYTE   W96
// 034   ----------------------------------------
 BYTE   W96
// 035   ----------------------------------------
 BYTE   W96
// 036   ----------------------------------------
 BYTE   W36
 BYTE   N90  Cs3  v088
 BYTE   N90  Ds3
 BYTE   N90  Fs3  v084
 BYTE   N90  As3  v088
 BYTE   W60
// 037   ----------------------------------------
 BYTE   W36
 BYTE   Cn3  v084
 BYTE   N90  Ds3  v088
 BYTE   N90  Fn3
 BYTE   N90  Gs3  v084
 BYTE   W60
// 038   ----------------------------------------
 BYTE   W36
 BYTE   Cs3
 BYTE   N90  Ds3  v088
 BYTE   N90  Fs3  v084
 BYTE   N90  As3  v088
 BYTE   W60
// 039   ----------------------------------------
 BYTE   W36
 BYTE   N12  Cs3
 BYTE   N12  Ds3
 BYTE   N12  Fs3
 BYTE   N12  As3
 BYTE   W18
 BYTE   N06  Cs3
 BYTE   N06  Ds3  v084
 BYTE   N06  Fs3  v088
 BYTE   N06  As3  v084
 BYTE   W18
 BYTE   N60  Ds3  v088
 BYTE   N60  Gs3
 BYTE   N60  Cn4
 BYTE   W24
// 040   ----------------------------------------
 BYTE   W96
// 041   ----------------------------------------
 BYTE   W96
// 042   ----------------------------------------
 BYTE   W96
// 043   ----------------------------------------
 BYTE   W96
// 044   ----------------------------------------
 BYTE   W96
// 045   ----------------------------------------
 BYTE   W96
// 046   ----------------------------------------
 BYTE   W96
// 047   ----------------------------------------
 BYTE   W96
// 048   ----------------------------------------
 BYTE   W96
// 049   ----------------------------------------
 BYTE   W96
// 050   ----------------------------------------
 BYTE   W96
// 051   ----------------------------------------
 BYTE   W96
// 052   ----------------------------------------
 BYTE   W96
// 053   ----------------------------------------
 BYTE   W96
// 054   ----------------------------------------
 BYTE   W96
// 055   ----------------------------------------
 BYTE   W96
// 056   ----------------------------------------
 BYTE   W96
// 057   ----------------------------------------
 BYTE   W96
// 058   ----------------------------------------
 BYTE   W96
// 059   ----------------------------------------
 BYTE   W96
// 060   ----------------------------------------
 BYTE   W96
// 061   ----------------------------------------
 BYTE   W96
// 062   ----------------------------------------
 BYTE   W96
// 063   ----------------------------------------
 BYTE   W96
// 064   ----------------------------------------
 BYTE   W96
// 065   ----------------------------------------
 BYTE   W96
// 066   ----------------------------------------
 BYTE   W96
// 067   ----------------------------------------
 BYTE   W96
// 068   ----------------------------------------
 BYTE   W96
// 069   ----------------------------------------
 BYTE   W96
// 070   ----------------------------------------
 BYTE   W96
// 071   ----------------------------------------
 BYTE   W96
// 072   ----------------------------------------
Label_4_0100192D:
 BYTE   W36
 BYTE   N90  Cs3  v084
 BYTE   N90  Ds3
 BYTE   N90  Fs3  v088
 BYTE   N90  As3  v084
 BYTE   W60
 BYTE   PEND 
// 073   ----------------------------------------
 BYTE   W36
 BYTE   Cn3  v088
 BYTE   N90  Ds3
 BYTE   N90  Fn3
 BYTE   N90  Gs3  v084
 BYTE   W60
 BYTE   PATT
  POIN2 Label_4_0100192D
// 074   ----------------------------------------
 BYTE   W36
 BYTE   N12  Cs3  v088
 BYTE   N12  Ds3
 BYTE   N12  Fs3
 BYTE   N12  As3  v084
 BYTE   W18
 BYTE   N06  Cs3
 BYTE   N06  Ds3  v088
 BYTE   N06  Fs3  v084
 BYTE   N06  As3  v088
 BYTE   W18
 BYTE   N60  Ds3
 BYTE   N60  Gs3
 BYTE   N60  Cn4  v084
 BYTE   W24
// 075   ----------------------------------------
 BYTE   W96
// 076   ----------------------------------------
 BYTE   GoTo
  POIN2 Label_4_010018BB
 BYTE   FINE

//**************** Track 6 (Midi-Chn.5) ****************//

NeverGonnaGiveYouUp_006:
// 000   ----------------------------------------
 BYTE   KEYSH   NeverGonnaGiveYouUp_key+0
 BYTE   VOICE   28
 BYTE   PAN   c_v+30
 BYTE   VOL   31*NeverGonnaGiveYouUp_mvl/mxv
 BYTE   W96
// 001   ----------------------------------------
 BYTE   W96
// 002   ----------------------------------------
 BYTE   W96
// 003   ----------------------------------------
 BYTE   W96
// 004   ----------------------------------------
 BYTE   W96
// 005   ----------------------------------------
 BYTE   W96
// 006   ----------------------------------------
 BYTE   W96
// 007   ----------------------------------------
 BYTE   W96
// 008   ----------------------------------------
 BYTE   W96
// 009   ----------------------------------------
 BYTE   W96
// 010   ----------------------------------------
 BYTE   W96
// 011   ----------------------------------------
 BYTE   W96
// 012   ----------------------------------------
 BYTE   W96
// 013   ----------------------------------------
 BYTE   W96
// 014   ----------------------------------------
 BYTE   W96
// 015   ----------------------------------------
 BYTE   W96
// 016   ----------------------------------------
 BYTE   W96
// 017   ----------------------------------------
 BYTE   W96
// 018   ----------------------------------------
 BYTE   W96
// 019   ----------------------------------------
 BYTE   W96
// 020   ----------------------------------------
 BYTE   W96
// 021   ----------------------------------------
Label_5_01001991:
 BYTE   W96
// 022   ----------------------------------------
 BYTE   W96
// 023   ----------------------------------------
 BYTE   W96
// 024   ----------------------------------------
 BYTE   W96
// 025   ----------------------------------------
 BYTE   W96
// 026   ----------------------------------------
 BYTE   W96
// 027   ----------------------------------------
 BYTE   W96
// 028   ----------------------------------------
 BYTE   W96
// 029   ----------------------------------------
 BYTE   W96
// 030   ----------------------------------------
 BYTE   W96
// 031   ----------------------------------------
 BYTE   W96
// 032   ----------------------------------------
 BYTE   W96
// 033   ----------------------------------------
 BYTE   W96
// 034   ----------------------------------------
 BYTE   W96
// 035   ----------------------------------------
 BYTE   W96
// 036   ----------------------------------------
 BYTE   W96
// 037   ----------------------------------------
 BYTE   W96
// 038   ----------------------------------------
 BYTE   W96
// 039   ----------------------------------------
 BYTE   W96
// 040   ----------------------------------------
 BYTE   W96
// 041   ----------------------------------------
 BYTE   W96
// 042   ----------------------------------------
 BYTE   W96
// 043   ----------------------------------------
 BYTE   W96
// 044   ----------------------------------------
 BYTE   W96
// 045   ----------------------------------------
 BYTE   W96
// 046   ----------------------------------------
 BYTE   W96
// 047   ----------------------------------------
 BYTE   W96
// 048   ----------------------------------------
 BYTE   W96
// 049   ----------------------------------------
 BYTE   W96
// 050   ----------------------------------------
 BYTE   W96
// 051   ----------------------------------------
 BYTE   W96
// 052   ----------------------------------------
 BYTE   W96
// 053   ----------------------------------------
 BYTE   W96
// 054   ----------------------------------------
 BYTE   W96
// 055   ----------------------------------------
 BYTE   W96
// 056   ----------------------------------------
 BYTE   W36
 BYTE   N10  As2  v088
 BYTE   N10  Cs3
 BYTE   N10  Fn3
 BYTE   W18
 BYTE   N03  As2
 BYTE   N03  Cs3  v084
 BYTE   N03  Fn3
 BYTE   W18
 BYTE   As2
 BYTE   N03  Cs3  v088
 BYTE   N03  Fn3
 BYTE   W12
 BYTE   N10  As2
 BYTE   N10  Cs3  v084
 BYTE   N10  Fn3  v088
 BYTE   W12
// 057   ----------------------------------------
 BYTE   N02  Fn1  v080
 BYTE   W06
 BYTE   Fn1  v084
 BYTE   N03  As2  v088
 BYTE   N03  Cs3  v084
 BYTE   N03  Fn3  v088
 BYTE   W06
 BYTE   N02  Gs1  v080
 BYTE   W06
 BYTE   As1
 BYTE   W06
 BYTE   N03  As2  v084
 BYTE   N03  Cs3
 BYTE   N03  Fn3  v088
 BYTE   W06
 BYTE   N02  As1  v080
 BYTE   W18
 BYTE   N03  As2  v084
 BYTE   N03  Cs3  v088
 BYTE   N03  Fn3
 BYTE   W06
 BYTE   As2
 BYTE   N03  Cs3
 BYTE   N03  Fn3
 BYTE   W06
 BYTE   N10  As2
 BYTE   N10  Cs3
 BYTE   N10  Fn3
 BYTE   W12
 BYTE   N03  Gs2
 BYTE   N03  Cn3
 BYTE   N03  Ds3  v084
 BYTE   W18
 BYTE   N02  As1  v080
 BYTE   W06
// 058   ----------------------------------------
 BYTE   As1  v084
 BYTE   W06
 BYTE   N02
 BYTE   W06
 BYTE   Cs2  v080
 BYTE   W06
 BYTE   Ds2
 BYTE   W12
 BYTE   N02
 BYTE   W06
 BYTE   N10  As2  v088
 BYTE   N10  Cs3
 BYTE   N10  Fn3
 BYTE   W18
 BYTE   N03  As2
 BYTE   N03  Cs3
 BYTE   N03  Fn3
 BYTE   W18
 BYTE   As2
 BYTE   N03  Cs3
 BYTE   N03  Fn3
 BYTE   W12
 BYTE   N10  As2
 BYTE   N10  Cs3
 BYTE   N10  Fn3
 BYTE   W06
 BYTE   N02  Fn1  v080
 BYTE   W06
// 059   ----------------------------------------
 BYTE   N02
 BYTE   W06
 BYTE   Fn1  v084
 BYTE   N03  As2
 BYTE   N03  Cs3  v088
 BYTE   N03  Fn3
 BYTE   W06
 BYTE   N02  Gs1  v084
 BYTE   W06
 BYTE   As1  v080
 BYTE   W06
 BYTE   N03  As2  v088
 BYTE   N03  Cs3
 BYTE   N03  Fn3  v084
 BYTE   W06
 BYTE   N02  As1  v080
 BYTE   W18
 BYTE   N03  As2  v084
 BYTE   N03  Cs3  v088
 BYTE   N03  Fn3
 BYTE   W06
 BYTE   As2
 BYTE   N03  Cs3
 BYTE   N03  Fn3
 BYTE   W06
 BYTE   N10  As2  v084
 BYTE   N10  Cs3  v088
 BYTE   N10  Fn3
 BYTE   W12
 BYTE   N03  Gs2
 BYTE   N03  Cn3
 BYTE   N03  Ds3
 BYTE   W18
 BYTE   N02  As1  v080
 BYTE   W06
// 060   ----------------------------------------
 BYTE   N02
 BYTE   W06
 BYTE   N02
 BYTE   W06
 BYTE   Cs2  v084
 BYTE   W06
 BYTE   Ds2  v080
 BYTE   W12
 BYTE   N02
 BYTE   W06
 BYTE   N10  As2  v084
 BYTE   N10  Cs3  v088
 BYTE   N10  Fn3
 BYTE   W18
 BYTE   N03  As2
 BYTE   N03  Cs3
 BYTE   N03  Fn3  v084
 BYTE   W18
 BYTE   As2  v088
 BYTE   N03  Cs3
 BYTE   N03  Fn3
 BYTE   W12
 BYTE   N10  As2
 BYTE   N10  Cs3
 BYTE   N10  Fn3
 BYTE   W06
 BYTE   N02  Fn1  v080
 BYTE   W06
// 061   ----------------------------------------
 BYTE   N02
 BYTE   W06
 BYTE   N02
 BYTE   N03  As2  v084
 BYTE   N03  Cs3  v088
 BYTE   N03  Fn3
 BYTE   W06
 BYTE   N02  Gs1  v080
 BYTE   W06
 BYTE   As1
 BYTE   W06
 BYTE   N03  As2  v088
 BYTE   N03  Cs3
 BYTE   N03  Fn3
 BYTE   W06
 BYTE   N02  As1  v080
 BYTE   W18
 BYTE   N03  As2  v088
 BYTE   N03  Cs3
 BYTE   N03  Fn3
 BYTE   W06
 BYTE   As2
 BYTE   N03  Cs3
 BYTE   N03  Fn3
 BYTE   W06
 BYTE   N10  As2
 BYTE   N10  Cs3
 BYTE   N10  Fn3
 BYTE   W12
 BYTE   N03  Gs2  v084
 BYTE   N03  Cn3
 BYTE   N03  Ds3  v088
 BYTE   W18
 BYTE   N02  As1  v084
 BYTE   W06
// 062   ----------------------------------------
 BYTE   As1  v080
 BYTE   W06
 BYTE   N02
 BYTE   W06
 BYTE   Cs2  v084
 BYTE   W06
 BYTE   Ds2
 BYTE   W12
 BYTE   N02
 BYTE   W06
 BYTE   N10  As2  v088
 BYTE   N10  Cs3
 BYTE   N10  Fn3
 BYTE   W18
 BYTE   N03  As2
 BYTE   N03  Cs3
 BYTE   N03  Fn3
 BYTE   W18
 BYTE   As2
 BYTE   N03  Cs3
 BYTE   N03  Fn3  v084
 BYTE   W12
 BYTE   N10  As2  v088
 BYTE   N10  Cs3
 BYTE   N10  Fn3
 BYTE   W06
 BYTE   N02  Fn1  v080
 BYTE   W06
// 063   ----------------------------------------
 BYTE   Fn1  v084
 BYTE   W06
 BYTE   N02
 BYTE   N03  As2  v088
 BYTE   N03  Cs3
 BYTE   N03  Fn3
 BYTE   W06
 BYTE   N02  Gs1  v084
 BYTE   W06
 BYTE   As1  v080
 BYTE   W06
 BYTE   N03  As2  v088
 BYTE   N03  Cs3
 BYTE   N03  Fn3  v084
 BYTE   W06
 BYTE   N02  As1  v080
 BYTE   W18
 BYTE   N03  As2  v084
 BYTE   N03  Cs3  v088
 BYTE   N03  Fn3
 BYTE   W06
 BYTE   As2
 BYTE   N03  Cs3
 BYTE   N03  Fn3
 BYTE   W06
 BYTE   N10  As2
 BYTE   N10  Cs3
 BYTE   N10  Fn3
 BYTE   W12
 BYTE   N03  Gs2
 BYTE   N03  Cn3
 BYTE   N03  Ds3
 BYTE   W18
 BYTE   N02  As1  v084
 BYTE   W06
// 064   ----------------------------------------
 BYTE   As1  v080
 BYTE   W06
 BYTE   As1  v084
 BYTE   W06
 BYTE   Cs2
 BYTE   W06
 BYTE   Ds2
 BYTE   W78
// 065   ----------------------------------------
 BYTE   W96
// 066   ----------------------------------------
 BYTE   W96
// 067   ----------------------------------------
 BYTE   W96
// 068   ----------------------------------------
 BYTE   W96
// 069   ----------------------------------------
 BYTE   W96
// 070   ----------------------------------------
 BYTE   W96
// 071   ----------------------------------------
 BYTE   W96
// 072   ----------------------------------------
 BYTE   W96
// 073   ----------------------------------------
 BYTE   W96
// 074   ----------------------------------------
 BYTE   W96
// 075   ----------------------------------------
 BYTE   W96
// 076   ----------------------------------------
 BYTE   W96
// 077   ----------------------------------------
 BYTE   GoTo
  POIN2 Label_5_01001991
 BYTE   FINE

//**************** Track 7 (Midi-Chn.6) ****************//

NeverGonnaGiveYouUp_007:
// 000   ----------------------------------------
 BYTE   KEYSH   NeverGonnaGiveYouUp_key+0
 BYTE   VOICE   61
 BYTE   PAN   c_v+0
 BYTE   VOL   31*NeverGonnaGiveYouUp_mvl/mxv
 BYTE   W96
// 001   ----------------------------------------
 BYTE   W96
// 002   ----------------------------------------
 BYTE   W96
// 003   ----------------------------------------
 BYTE   W96
// 004   ----------------------------------------
 BYTE   W12
 BYTE   N04  As2  v096
 BYTE   N04  As3  v116
 BYTE   W06
 BYTE   Cs3  v092
 BYTE   N04  Cs4  v116
 BYTE   W06
 BYTE   As2  v092
 BYTE   N04  As3  v120
 BYTE   W06
 BYTE   Cs3  v092
 BYTE   N04  Cs4  v120
 BYTE   W66
// 005   ----------------------------------------
 BYTE   W96
// 006   ----------------------------------------
 BYTE   W96
// 007   ----------------------------------------
 BYTE   W96
// 008   ----------------------------------------
 BYTE   Cs4  v088
 BYTE   N04  Cs5  v108
 BYTE   W06
 BYTE   Cs4  v088
 BYTE   N04  Cs5  v104
 BYTE   W06
 BYTE   Cs4  v088
 BYTE   N04  Cs5  v104
 BYTE   W06
 BYTE   Cs4  v088
 BYTE   N04  Cs5  v104
 BYTE   W12
 BYTE   Cs4  v088
 BYTE   N04  Cs5  v108
 BYTE   W66
// 009   ----------------------------------------
 BYTE   W96
// 010   ----------------------------------------
 BYTE   W96
// 011   ----------------------------------------
 BYTE   W96
// 012   ----------------------------------------
 BYTE   W96
// 013   ----------------------------------------
 BYTE   W96
// 014   ----------------------------------------
 BYTE   W36
 BYTE   N96  Gs3  v072
 BYTE   N96  Gs4  v088
 BYTE   W60
// 015   ----------------------------------------
 BYTE   W48
 BYTE   N12  Fn3  v076
 BYTE   N12  Fn4  v084
 BYTE   W24
 BYTE   Ds3  v072
 BYTE   N12  Ds4  v088
 BYTE   W24
// 016   ----------------------------------------
 BYTE   Cs3  v072
 BYTE   N12  Cs4  v084
 BYTE   W24
 BYTE   N96  As2  v076
 BYTE   N96  As3  v084
 BYTE   W72
// 017   ----------------------------------------
 BYTE   W96
// 018   ----------------------------------------
 BYTE   W96
// 019   ----------------------------------------
 BYTE   W96
// 020   ----------------------------------------
 BYTE   N04  Gs2
 BYTE   N04  Gs3
 BYTE   N04  Gs4  v108
 BYTE   W06
 BYTE   Gs2  v084
 BYTE   N04  Gs3  v112
 BYTE   N04  Gs4
 BYTE   W90
// 021   ----------------------------------------
Label_6_01001C06:
 BYTE   W96
// 022   ----------------------------------------
 BYTE   W96
// 023   ----------------------------------------
 BYTE   W96
// 024   ----------------------------------------
 BYTE   N04  Gs2  v084
 BYTE   N04  Gs3  v088
 BYTE   N04  Gs4  v112
 BYTE   W06
 BYTE   Gs2  v084
 BYTE   N04  Gs3
 BYTE   N04  Gs4  v108
 BYTE   W90
// 025   ----------------------------------------
 BYTE   W96
// 026   ----------------------------------------
 BYTE   W96
// 027   ----------------------------------------
 BYTE   W96
// 028   ----------------------------------------
 BYTE   Cs4  v084
 BYTE   N04  Cs5  v112
 BYTE   W06
 BYTE   Cs4  v084
 BYTE   N04  Cs5  v108
 BYTE   W06
 BYTE   Cs4  v084
 BYTE   N04  Cs5  v112
 BYTE   W06
 BYTE   Cs4  v088
 BYTE   N04  Cs5  v112
 BYTE   W12
 BYTE   Cs4  v088
 BYTE   N04  Cs5  v112
 BYTE   W66
// 029   ----------------------------------------
 BYTE   W96
// 030   ----------------------------------------
 BYTE   W96
// 031   ----------------------------------------
 BYTE   W96
// 032   ----------------------------------------
 BYTE   W96
// 033   ----------------------------------------
 BYTE   W96
// 034   ----------------------------------------
 BYTE   W36
 BYTE   N96  Gs3  v072
 BYTE   N96  Gs4  v084
 BYTE   W60
// 035   ----------------------------------------
 BYTE   W48
 BYTE   N12  Fn3  v076
 BYTE   N12  Fn4  v088
 BYTE   W24
 BYTE   Ds3  v072
 BYTE   N12  Ds4  v084
 BYTE   W24
// 036   ----------------------------------------
 BYTE   Cs3  v072
 BYTE   N12  Cs4  v084
 BYTE   W24
 BYTE   N96  As2  v072
 BYTE   N96  As3  v084
 BYTE   W72
// 037   ----------------------------------------
 BYTE   W96
// 038   ----------------------------------------
 BYTE   W96
// 039   ----------------------------------------
 BYTE   W96
// 040   ----------------------------------------
 BYTE   N04  Gs2
 BYTE   N04  Gs3
 BYTE   N04  Gs4  v108
 BYTE   W06
 BYTE   Gs2  v088
 BYTE   N04  Gs3  v112
 BYTE   N04  Gs4  v108
 BYTE   W90
// 041   ----------------------------------------
 BYTE   W96
// 042   ----------------------------------------
 BYTE   W96
// 043   ----------------------------------------
 BYTE   W96
// 044   ----------------------------------------
 BYTE   Gs2  v084
 BYTE   N04  Gs3
 BYTE   N04  Gs4  v108
 BYTE   W06
 BYTE   Gs2  v084
 BYTE   N04  Gs3
 BYTE   N04  Gs4  v112
 BYTE   W90
// 045   ----------------------------------------
 BYTE   W96
// 046   ----------------------------------------
 BYTE   W96
// 047   ----------------------------------------
 BYTE   W96
// 048   ----------------------------------------
 BYTE   Cs4  v088
 BYTE   N04  Cs5  v108
 BYTE   W06
 BYTE   Cs4  v084
 BYTE   N04  Cs5  v112
 BYTE   W06
 BYTE   Cs4  v084
 BYTE   N04  Cs5  v112
 BYTE   W06
 BYTE   Cs4  v084
 BYTE   N04  Cs5  v108
 BYTE   W12
 BYTE   Cs4  v084
 BYTE   N04  Cs5  v108
 BYTE   W66
// 049   ----------------------------------------
 BYTE   W96
// 050   ----------------------------------------
 BYTE   W96
// 051   ----------------------------------------
 BYTE   W96
// 052   ----------------------------------------
 BYTE   Gs2  v084
 BYTE   N04  Gs3
 BYTE   N04  Gs4  v108
 BYTE   W06
 BYTE   Gs2  v084
 BYTE   N04  Gs3
 BYTE   N04  Gs4  v108
 BYTE   W90
// 053   ----------------------------------------
 BYTE   W96
// 054   ----------------------------------------
 BYTE   W96
// 055   ----------------------------------------
 BYTE   W96
// 056   ----------------------------------------
 BYTE   Cs4  v084
 BYTE   N04  Cs5  v112
 BYTE   W06
 BYTE   Cs4  v084
 BYTE   N04  Cs5  v112
 BYTE   W06
 BYTE   Cs4  v088
 BYTE   N04  Cs5  v108
 BYTE   W06
 BYTE   Cs4  v084
 BYTE   N04  Cs5  v112
 BYTE   W12
 BYTE   Cs4  v084
 BYTE   N04  Cs5  v108
 BYTE   W66
// 057   ----------------------------------------
 BYTE   W96
// 058   ----------------------------------------
 BYTE   W96
// 059   ----------------------------------------
 BYTE   W96
// 060   ----------------------------------------
 BYTE   W96
// 061   ----------------------------------------
 BYTE   W96
// 062   ----------------------------------------
 BYTE   W96
// 063   ----------------------------------------
 BYTE   W96
// 064   ----------------------------------------
 BYTE   W96
// 065   ----------------------------------------
 BYTE   W96
// 066   ----------------------------------------
 BYTE   W96
// 067   ----------------------------------------
 BYTE   W96
// 068   ----------------------------------------
 BYTE   W96
// 069   ----------------------------------------
 BYTE   W96
// 070   ----------------------------------------
 BYTE   W96
// 071   ----------------------------------------
 BYTE   W96
// 072   ----------------------------------------
 BYTE   W96
// 073   ----------------------------------------
 BYTE   W96
// 074   ----------------------------------------
 BYTE   W96
// 075   ----------------------------------------
 BYTE   W96
// 076   ----------------------------------------
 BYTE   Gs2  v084
 BYTE   N04  Gs3  v112
 BYTE   N04  Gs4
 BYTE   W06
 BYTE   Gs2  v084
 BYTE   N04  Gs3
 BYTE   N04  Gs4  v112
 BYTE   W90
// 077   ----------------------------------------
 BYTE   GoTo
  POIN2 Label_6_01001C06
 BYTE   FINE

//**************** Track 8 (Midi-Chn.7) ****************//

NeverGonnaGiveYouUp_008:
// 000   ----------------------------------------
 BYTE   KEYSH   NeverGonnaGiveYouUp_key+0
 BYTE   VOICE   48
 BYTE   PAN   c_v+0
 BYTE   VOL   31*NeverGonnaGiveYouUp_mvl/mxv
 BYTE   W36
 BYTE   N32  Cs4  v096
 BYTE   W36
 BYTE   Ds4  v100
 BYTE   W24
// 001   ----------------------------------------
 BYTE   W12
 BYTE   N22  Gs3
 BYTE   W24
 BYTE   N32  Ds4  v096
 BYTE   W36
 BYTE   Fn4  v100
 BYTE   W24
// 002   ----------------------------------------
 BYTE   W12
 BYTE   N05  Gs4
 BYTE   W06
 BYTE   Fs4
 BYTE   W06
 BYTE   Fn4
 BYTE   W06
 BYTE   N36  Cs4
 BYTE   W42
 BYTE   N32  Ds4  v096
 BYTE   W24
// 003   ----------------------------------------
 BYTE   W12
 BYTE   N80  Gs3
 BYTE   W84
// 004   ----------------------------------------
 BYTE   W12
 BYTE   N05  Gs4
 BYTE   W06
 BYTE   Fs4  v100
 BYTE   W06
 BYTE   Fn4  v096
 BYTE   W06
 BYTE   N36  Cs4  v100
 BYTE   W42
 BYTE   N32  Ds4  v096
 BYTE   W24
// 005   ----------------------------------------
 BYTE   W12
 BYTE   N22  Gs3  v100
 BYTE   W24
 BYTE   N32  Ds4  v096
 BYTE   W36
 BYTE   Fn4
 BYTE   W24
// 006   ----------------------------------------
 BYTE   W12
 BYTE   N05  Gs4  v100
 BYTE   W06
 BYTE   Fs4  v096
 BYTE   W06
 BYTE   Fn4  v100
 BYTE   W06
 BYTE   N36  Cs4  v096
 BYTE   W42
 BYTE   N32  Ds4
 BYTE   W24
// 007   ----------------------------------------
 BYTE   W12
 BYTE   TIE  Gs3  v100
 BYTE   W84
// 008   ----------------------------------------
 BYTE   W15
 BYTE   EOT
 BYTE   W80
 BYTE   W01
// 009   ----------------------------------------
 BYTE   W96
// 010   ----------------------------------------
 BYTE   W96
// 011   ----------------------------------------
 BYTE   W96
// 012   ----------------------------------------
 BYTE   W96
// 013   ----------------------------------------
 BYTE   W96
// 014   ----------------------------------------
 BYTE   W96
// 015   ----------------------------------------
 BYTE   W96
// 016   ----------------------------------------
 BYTE   W96
// 017   ----------------------------------------
 BYTE   W96
// 018   ----------------------------------------
 BYTE   W96
// 019   ----------------------------------------
 BYTE   W96
// 020   ----------------------------------------
Label_7_01001D7D:
 BYTE   W36
 BYTE   N32  Cs5  v100
 BYTE   W36
 BYTE   Ds5
 BYTE   W24
 BYTE   PEND 
// 021   ----------------------------------------
Label_7_01001D85:
 BYTE   W12
 BYTE   N22  Gs4  v100
 BYTE   W24
 BYTE   N32  Ds5  v096
 BYTE   W36
 BYTE   Fn5  v100
 BYTE   W24
// 022   ----------------------------------------
 BYTE   W12
 BYTE   N05  Gs5  v096
 BYTE   W06
 BYTE   Fs5  v100
 BYTE   W06
 BYTE   Fn5  v096
 BYTE   W06
 BYTE   N36  Cs5  v100
 BYTE   W42
 BYTE   N32  Ds5  v096
 BYTE   W24
// 023   ----------------------------------------
 BYTE   W12
 BYTE   N80  Gs4  v100
 BYTE   W84
// 024   ----------------------------------------
Label_7_01001DA9:
 BYTE   W12
 BYTE   N05  Gs5  v100
 BYTE   W06
 BYTE   Fs5  v096
 BYTE   W06
 BYTE   Fn5  v100
 BYTE   W06
 BYTE   N36  Cs5
 BYTE   W42
 BYTE   N32  Ds5  v096
 BYTE   W24
 BYTE   PEND 
// 025   ----------------------------------------
 BYTE   W12
 BYTE   N22  Gs4  v100
 BYTE   W24
 BYTE   N32  Ds5  v096
 BYTE   W36
 BYTE   Fn5
 BYTE   W24
// 026   ----------------------------------------
 BYTE   W12
 BYTE   N05  Gs5  v100
 BYTE   W06
 BYTE   Fs5
 BYTE   W06
 BYTE   Fn5
 BYTE   W06
 BYTE   N36  Cs5
 BYTE   W42
 BYTE   N32  Ds5
 BYTE   W24
// 027   ----------------------------------------
Label_7_01001DD6:
 BYTE   W12
 BYTE   TIE  Gs4  v100
 BYTE   W84
 BYTE   PEND 
// 028   ----------------------------------------
 BYTE   W15
 BYTE   EOT
 BYTE   W80
 BYTE   W01
// 029   ----------------------------------------
 BYTE   W96
// 030   ----------------------------------------
 BYTE   W96
// 031   ----------------------------------------
 BYTE   W96
// 032   ----------------------------------------
 BYTE   W96
// 033   ----------------------------------------
 BYTE   W96
// 034   ----------------------------------------
 BYTE   W96
// 035   ----------------------------------------
 BYTE   W96
// 036   ----------------------------------------
 BYTE   W96
// 037   ----------------------------------------
 BYTE   W96
// 038   ----------------------------------------
 BYTE   W96
// 039   ----------------------------------------
 BYTE   W96
 BYTE   PATT
  POIN2 Label_7_01001D7D
// 040   ----------------------------------------
 BYTE   W12
 BYTE   N22  Gs4  v100
 BYTE   W24
 BYTE   N32  Ds5
 BYTE   W36
 BYTE   Fn5  v096
 BYTE   W24
// 041   ----------------------------------------
 BYTE   W12
 BYTE   N05  Gs5
 BYTE   W06
 BYTE   Fs5  v100
 BYTE   W06
 BYTE   Fn5
 BYTE   W06
 BYTE   N36  Cs5
 BYTE   W42
 BYTE   N32  Ds5  v096
 BYTE   W24
// 042   ----------------------------------------
 BYTE   W12
 BYTE   N80  Gs4  v100
 BYTE   W84
// 043   ----------------------------------------
 BYTE   W12
 BYTE   N05  Gs5  v096
 BYTE   W06
 BYTE   Fs5
 BYTE   W06
 BYTE   Fn5  v100
 BYTE   W06
 BYTE   N36  Cs5  v096
 BYTE   W42
 BYTE   N32  Ds5
 BYTE   W24
// 044   ----------------------------------------
Label_7_01001E21:
 BYTE   W12
 BYTE   N22  Gs4  v096
 BYTE   W24
 BYTE   N32  Ds5  v100
 BYTE   W36
 BYTE   Fn5
 BYTE   W24
 BYTE   PEND 
// 045   ----------------------------------------
 BYTE   W12
 BYTE   N05  Gs5
 BYTE   W06
 BYTE   Fs5
 BYTE   W06
 BYTE   Fn5
 BYTE   W06
 BYTE   N36  Cs5  v096
 BYTE   W42
 BYTE   N32  Ds5
 BYTE   W24
// 046   ----------------------------------------
 BYTE   W12
 BYTE   TIE  Gs4
 BYTE   W84
// 047   ----------------------------------------
 BYTE   W15
 BYTE   EOT
 BYTE   W21
 BYTE   N32  Cs5  v100
 BYTE   W36
 BYTE   Ds5
 BYTE   W24
// 048   ----------------------------------------
 BYTE   W12
 BYTE   N22  Gs4  v096
 BYTE   W24
 BYTE   N32  Ds5  v100
 BYTE   W36
 BYTE   Fn5  v096
 BYTE   W24
// 049   ----------------------------------------
 BYTE   W12
 BYTE   N05  Gs5
 BYTE   W06
 BYTE   Fs5  v100
 BYTE   W06
 BYTE   Fn5
 BYTE   W06
 BYTE   N36  Cs5
 BYTE   W42
 BYTE   N32  Ds5
 BYTE   W24
// 050   ----------------------------------------
 BYTE   W12
 BYTE   N80  Gs4
 BYTE   W84
 BYTE   PATT
  POIN2 Label_7_01001DA9
 BYTE   PATT
  POIN2 Label_7_01001E21
// 051   ----------------------------------------
 BYTE   W12
 BYTE   N05  Gs5  v096
 BYTE   W06
 BYTE   Fs5  v100
 BYTE   W06
 BYTE   Fn5
 BYTE   W06
 BYTE   N36  Cs5  v096
 BYTE   W42
 BYTE   N32  Ds5  v100
 BYTE   W24
 BYTE   PATT
  POIN2 Label_7_01001DD6
// 052   ----------------------------------------
 BYTE   W15
 BYTE   EOT
 BYTE   Gs4
 BYTE   W80
 BYTE   W01
// 053   ----------------------------------------
 BYTE   W96
// 054   ----------------------------------------
 BYTE   W96
// 055   ----------------------------------------
 BYTE   W96
// 056   ----------------------------------------
 BYTE   W96
// 057   ----------------------------------------
 BYTE   W96
// 058   ----------------------------------------
 BYTE   W96
// 059   ----------------------------------------
 BYTE   W96
// 060   ----------------------------------------
 BYTE   W96
// 061   ----------------------------------------
 BYTE   W96
// 062   ----------------------------------------
 BYTE   W96
// 063   ----------------------------------------
 BYTE   W96
// 064   ----------------------------------------
 BYTE   W96
// 065   ----------------------------------------
 BYTE   W96
// 066   ----------------------------------------
 BYTE   W96
// 067   ----------------------------------------
 BYTE   W96
// 068   ----------------------------------------
 BYTE   W36
 BYTE   N92  As4  v100
 BYTE   W60
// 069   ----------------------------------------
 BYTE   W36
 BYTE   N44  Ds5
 BYTE   W48
 BYTE   Fn5  v096
 BYTE   W12
// 070   ----------------------------------------
 BYTE   W36
 BYTE   N92  As4
 BYTE   W60
// 071   ----------------------------------------
 BYTE   W96
// 072   ----------------------------------------
 BYTE   W36
 BYTE   N32  Cs5  v100
 BYTE   W60
// 073   ----------------------------------------
 BYTE   GoTo
  POIN2 Label_7_01001D85
 BYTE   FINE

//**************** Track 9 (Midi-Chn.8) ****************//

NeverGonnaGiveYouUp_009:
// 000   ----------------------------------------
 BYTE   KEYSH   NeverGonnaGiveYouUp_key+0
 BYTE   VOICE   85
 BYTE   PAN   c_v+0
 BYTE   VOL   31*NeverGonnaGiveYouUp_mvl/mxv
 BYTE   W96
// 001   ----------------------------------------
 BYTE   W96
// 002   ----------------------------------------
 BYTE   W96
// 003   ----------------------------------------
 BYTE   W96
// 004   ----------------------------------------
 BYTE   W96
// 005   ----------------------------------------
 BYTE   W96
// 006   ----------------------------------------
 BYTE   W96
// 007   ----------------------------------------
 BYTE   W96
// 008   ----------------------------------------
 BYTE   W96
// 009   ----------------------------------------
 BYTE   W96
// 010   ----------------------------------------
 BYTE   W96
// 011   ----------------------------------------
 BYTE   W96
// 012   ----------------------------------------
 BYTE   W96
// 013   ----------------------------------------
 BYTE   W96
// 014   ----------------------------------------
 BYTE   W96
// 015   ----------------------------------------
 BYTE   W96
// 016   ----------------------------------------
 BYTE   W96
// 017   ----------------------------------------
 BYTE   W96
// 018   ----------------------------------------
 BYTE   W96
// 019   ----------------------------------------
 BYTE   W96
// 020   ----------------------------------------
 BYTE   W96
// 021   ----------------------------------------
Label_8_01001ED9:
 BYTE   W96
// 022   ----------------------------------------
 BYTE   W96
// 023   ----------------------------------------
 BYTE   W96
// 024   ----------------------------------------
 BYTE   W96
// 025   ----------------------------------------
 BYTE   W96
// 026   ----------------------------------------
 BYTE   W96
// 027   ----------------------------------------
 BYTE   W96
// 028   ----------------------------------------
 BYTE   W96
// 029   ----------------------------------------
 BYTE   W96
// 030   ----------------------------------------
 BYTE   W96
// 031   ----------------------------------------
 BYTE   W96
// 032   ----------------------------------------
 BYTE   W96
// 033   ----------------------------------------
 BYTE   W96
// 034   ----------------------------------------
 BYTE   W96
// 035   ----------------------------------------
 BYTE   W96
// 036   ----------------------------------------
 BYTE   W96
// 037   ----------------------------------------
 BYTE   W96
// 038   ----------------------------------------
 BYTE   W96
// 039   ----------------------------------------
 BYTE   W96
// 040   ----------------------------------------
 BYTE   W96
// 041   ----------------------------------------
 BYTE   W96
// 042   ----------------------------------------
 BYTE   W96
// 043   ----------------------------------------
 BYTE   W96
// 044   ----------------------------------------
 BYTE   W96
// 045   ----------------------------------------
 BYTE   W96
// 046   ----------------------------------------
 BYTE   W96
// 047   ----------------------------------------
 BYTE   W96
// 048   ----------------------------------------
 BYTE   W96
// 049   ----------------------------------------
 BYTE   W96
// 050   ----------------------------------------
 BYTE   W96
// 051   ----------------------------------------
 BYTE   W96
// 052   ----------------------------------------
 BYTE   W96
// 053   ----------------------------------------
 BYTE   W96
// 054   ----------------------------------------
 BYTE   W96
// 055   ----------------------------------------
 BYTE   W96
// 056   ----------------------------------------
 BYTE   W96
// 057   ----------------------------------------
 BYTE   W96
// 058   ----------------------------------------
 BYTE   W96
// 059   ----------------------------------------
 BYTE   W96
// 060   ----------------------------------------
 BYTE   W96
// 061   ----------------------------------------
 BYTE   W96
// 062   ----------------------------------------
 BYTE   W96
// 063   ----------------------------------------
 BYTE   W96
// 064   ----------------------------------------
 BYTE   W96
// 065   ----------------------------------------
 BYTE   W96
// 066   ----------------------------------------
 BYTE   W96
// 067   ----------------------------------------
 BYTE   W36
 BYTE   N30  Fs2  v060
 BYTE   N30  As2  v064
 BYTE   N30  Cs3  v060
 BYTE   N30  Fn3
 BYTE   W36
 BYTE   N60  Fn2  v064
 BYTE   N60  Gs2
 BYTE   N60  Cn3
 BYTE   N60  Ds3  v060
 BYTE   W24
// 068   ----------------------------------------
 BYTE   W96
// 069   ----------------------------------------
 BYTE   W96
// 070   ----------------------------------------
 BYTE   W96
// 071   ----------------------------------------
 BYTE   W36
 BYTE   N30  Fs2
 BYTE   N30  As2  v064
 BYTE   N30  Cs3  v060
 BYTE   N30  Fn3  v064
 BYTE   W36
 BYTE   N54  Fn2  v060
 BYTE   N54  Gs2  v064
 BYTE   N54  Cn3  v060
 BYTE   N54  Ds3
 BYTE   W24
// 072   ----------------------------------------
 BYTE   W96
// 073   ----------------------------------------
 BYTE   W96
// 074   ----------------------------------------
 BYTE   W96
// 075   ----------------------------------------
 BYTE   W96
// 076   ----------------------------------------
 BYTE   W96
// 077   ----------------------------------------
 BYTE   GoTo
  POIN2 Label_8_01001ED9
 BYTE   FINE

//**************** Track 10 (Midi-Chn.9) ****************//

NeverGonnaGiveYouUp_010:
// 000   ----------------------------------------
 BYTE   KEYSH   NeverGonnaGiveYouUp_key+0
 BYTE   VOICE   54
 BYTE   PAN   c_v+20
 BYTE   VOL   31*NeverGonnaGiveYouUp_mvl/mxv
 BYTE   W96
// 001   ----------------------------------------
 BYTE   W96
// 002   ----------------------------------------
 BYTE   W96
// 003   ----------------------------------------
 BYTE   W96
// 004   ----------------------------------------
 BYTE   W96
// 005   ----------------------------------------
 BYTE   W96
// 006   ----------------------------------------
 BYTE   W96
// 007   ----------------------------------------
 BYTE   W96
// 008   ----------------------------------------
 BYTE   W96
// 009   ----------------------------------------
 BYTE   W96
// 010   ----------------------------------------
 BYTE   W96
// 011   ----------------------------------------
 BYTE   W96
// 012   ----------------------------------------
 BYTE   W96
// 013   ----------------------------------------
 BYTE   W96
// 014   ----------------------------------------
 BYTE   W96
// 015   ----------------------------------------
 BYTE   W96
// 016   ----------------------------------------
 BYTE   W96
// 017   ----------------------------------------
 BYTE   W96
// 018   ----------------------------------------
 BYTE   W96
// 019   ----------------------------------------
 BYTE   W96
// 020   ----------------------------------------
 BYTE   W36
 BYTE   N17  Fn3  v088
 BYTE   N17  Gs3
 BYTE   N17  Cs4  v084
 BYTE   W24
 BYTE   N11  Fn3  v088
 BYTE   N11  Gs3  v084
 BYTE   N11  Cs4  v088
 BYTE   W12
 BYTE   Ds3  v084
 BYTE   N11  Gs3
 BYTE   N11  Cn4  v088
 BYTE   W24
// 021   ----------------------------------------
Label_9_01001F80:
 BYTE   W36
 BYTE   N17  Ds3  v092
 BYTE   N17  Gs3  v088
 BYTE   N17  Cn4  v084
 BYTE   W24
 BYTE   N11  Ds3
 BYTE   N11  Gs3  v088
 BYTE   N11  Cn4
 BYTE   W12
 BYTE   Cs3
 BYTE   N11  Fn3  v092
 BYTE   N11  As3  v084
 BYTE   W24
// 022   ----------------------------------------
 BYTE   W96
// 023   ----------------------------------------
 BYTE   W36
 BYTE   N17  Ds3  v092
 BYTE   N17  Gs3  v088
 BYTE   N17  Cn4
 BYTE   W24
 BYTE   N52  Fn3
 BYTE   N52  As3  v084
 BYTE   N52  Cs4
 BYTE   W36
// 024   ----------------------------------------
 BYTE   W36
 BYTE   N17  Ds3  v088
 BYTE   N17  Gs3  v092
 BYTE   N17  Cs4  v084
 BYTE   W24
 BYTE   N11  Ds3  v088
 BYTE   N11  Gs3  v092
 BYTE   N11  Cs4  v088
 BYTE   W12
 BYTE   N32  Ds3
 BYTE   N32  Gs3  v084
 BYTE   N32  Cn4
 BYTE   W24
// 025   ----------------------------------------
 BYTE   W36
 BYTE   N17  Gs3  v088
 BYTE   N17  Cn4
 BYTE   N17  Ds4
 BYTE   W24
 BYTE   N11  Gs3
 BYTE   N11  Cn4
 BYTE   N11  Ds4  v084
 BYTE   W12
 BYTE   N17  Fn3  v088
 BYTE   N17  As3  v084
 BYTE   N17  Cs4  v088
 BYTE   W18
 BYTE   N05  Ds3
 BYTE   N05  Gs3  v084
 BYTE   N05  Cn4  v088
 BYTE   W06
// 026   ----------------------------------------
 BYTE   N11  Cs3  v084
 BYTE   N11  Fn3
 BYTE   N11  As3
 BYTE   W96
// 027   ----------------------------------------
 BYTE   W36
 BYTE   N17  Ds3  v088
 BYTE   N17  Gs3
 BYTE   N17  Cn4  v084
 BYTE   W24
 BYTE   N44  Fn3  v088
 BYTE   N44  Gs3  v084
 BYTE   N44  Cs4  v088
 BYTE   W36
// 028   ----------------------------------------
 BYTE   W96
// 029   ----------------------------------------
 BYTE   W96
// 030   ----------------------------------------
 BYTE   W96
// 031   ----------------------------------------
 BYTE   W96
// 032   ----------------------------------------
 BYTE   W96
// 033   ----------------------------------------
 BYTE   W96
// 034   ----------------------------------------
 BYTE   W96
// 035   ----------------------------------------
 BYTE   W96
// 036   ----------------------------------------
 BYTE   W96
// 037   ----------------------------------------
 BYTE   W96
// 038   ----------------------------------------
 BYTE   W96
// 039   ----------------------------------------
 BYTE   W96
// 040   ----------------------------------------
 BYTE   W36
 BYTE   N17  Fn3
 BYTE   N17  Gs3
 BYTE   N17  Cs4  v084
 BYTE   W24
 BYTE   N11  Fn3
 BYTE   N11  Gs3  v088
 BYTE   N11  Cs4
 BYTE   W12
 BYTE   Ds3
 BYTE   N11  Gs3  v084
 BYTE   N11  Cn4
 BYTE   W24
// 041   ----------------------------------------
 BYTE   W36
 BYTE   N17  Ds3  v088
 BYTE   N17  Gs3
 BYTE   N17  Cn4  v084
 BYTE   W24
 BYTE   N11  Ds3  v088
 BYTE   N11  Gs3  v084
 BYTE   N11  Cn4  v088
 BYTE   W12
 BYTE   Cs3
 BYTE   N11  Fn3
 BYTE   N11  As3  v084
 BYTE   W24
// 042   ----------------------------------------
 BYTE   W96
// 043   ----------------------------------------
 BYTE   W36
 BYTE   N17  Ds3  v088
 BYTE   N17  Gs3
 BYTE   N17  Cn4
 BYTE   W24
 BYTE   N52  Fn3  v084
 BYTE   N52  As3
 BYTE   N52  Cs4
 BYTE   W36
// 044   ----------------------------------------
 BYTE   W36
 BYTE   N17  Ds3  v088
 BYTE   N17  Gs3  v084
 BYTE   N17  Cs4  v088
 BYTE   W24
 BYTE   N11  Ds3  v092
 BYTE   N11  Gs3
 BYTE   N11  Cs4  v084
 BYTE   W12
 BYTE   N32  Ds3
 BYTE   N32  Gs3
 BYTE   N32  Cn4  v088
 BYTE   W24
// 045   ----------------------------------------
 BYTE   W36
 BYTE   N17  Gs3  v084
 BYTE   N17  Cn4  v088
 BYTE   N17  Ds4
 BYTE   W24
 BYTE   N11  Gs3
 BYTE   N11  Cn4
 BYTE   N11  Ds4  v092
 BYTE   W12
 BYTE   N17  Fn3  v088
 BYTE   N17  As3  v092
 BYTE   N17  Cs4  v088
 BYTE   W18
 BYTE   N05  Ds3  v084
 BYTE   N05  Gs3  v088
 BYTE   N05  Cn4  v084
 BYTE   W06
// 046   ----------------------------------------
 BYTE   N11  Cs3  v088
 BYTE   N11  Fn3  v084
 BYTE   N11  As3
 BYTE   W96
// 047   ----------------------------------------
 BYTE   W36
 BYTE   N17  Ds3
 BYTE   N17  Gs3  v088
 BYTE   N17  Cn4
 BYTE   W24
 BYTE   N44  Fn3
 BYTE   N44  Gs3  v092
 BYTE   N44  Cs4  v088
 BYTE   W36
// 048   ----------------------------------------
 BYTE   W36
 BYTE   N17  Fn3  v092
 BYTE   N17  Gs3  v084
 BYTE   N17  Cs4  v088
 BYTE   W24
 BYTE   N11  Fn3  v084
 BYTE   N11  Gs3
 BYTE   N11  Cs4
 BYTE   W12
 BYTE   Ds3  v088
 BYTE   N11  Gs3
 BYTE   N11  Cn4  v092
 BYTE   W24
// 049   ----------------------------------------
 BYTE   W36
 BYTE   N17  Ds3  v088
 BYTE   N17  Gs3  v084
 BYTE   N17  Cn4  v092
 BYTE   W24
 BYTE   N11  Ds3  v088
 BYTE   N11  Gs3  v084
 BYTE   N11  Cn4
 BYTE   W12
 BYTE   Cs3  v088
 BYTE   N11  Fn3  v084
 BYTE   N11  As3  v088
 BYTE   W24
// 050   ----------------------------------------
 BYTE   W96
// 051   ----------------------------------------
 BYTE   W36
 BYTE   N17  Ds3  v092
 BYTE   N17  Gs3  v088
 BYTE   N17  Cn4
 BYTE   W24
 BYTE   N52  Fn3  v084
 BYTE   N52  As3  v088
 BYTE   N52  Cs4
 BYTE   W36
// 052   ----------------------------------------
 BYTE   W36
 BYTE   N17  Ds3
 BYTE   N17  Gs3  v092
 BYTE   N17  Cs4  v088
 BYTE   W24
 BYTE   N11  Ds3  v084
 BYTE   N11  Gs3
 BYTE   N11  Cs4
 BYTE   W12
 BYTE   N32  Ds3
 BYTE   N32  Gs3  v092
 BYTE   N32  Cn4  v088
 BYTE   W24
// 053   ----------------------------------------
 BYTE   W36
 BYTE   N17  Gs3
 BYTE   N17  Cn4
 BYTE   N17  Ds4  v092
 BYTE   W24
 BYTE   N11  Gs3  v088
 BYTE   N11  Cn4
 BYTE   N11  Ds4  v084
 BYTE   W12
 BYTE   N17  Fn3  v088
 BYTE   N17  As3
 BYTE   N17  Cs4
 BYTE   W18
 BYTE   N05  Ds3  v084
 BYTE   N05  Gs3
 BYTE   N05  Cn4  v088
 BYTE   W06
// 054   ----------------------------------------
 BYTE   N11  Cs3  v092
 BYTE   N11  Fn3  v088
 BYTE   N11  As3
 BYTE   W96
// 055   ----------------------------------------
 BYTE   W36
 BYTE   N17  Ds3  v084
 BYTE   N17  Gs3
 BYTE   N17  Cn4
 BYTE   W24
 BYTE   N44  Fn3  v092
 BYTE   N44  Gs3  v084
 BYTE   N44  Cs4  v088
 BYTE   W36
// 056   ----------------------------------------
 BYTE   W36
 BYTE   N76  Gs3
 BYTE   W60
// 057   ----------------------------------------
 BYTE   W18
 BYTE   N05  Fs3  v092
 BYTE   W06
 BYTE   Fn3  v088
 BYTE   W06
 BYTE   Ds3  v092
 BYTE   W06
 BYTE   N11  Fn3
 BYTE   W60
// 058   ----------------------------------------
 BYTE   W36
 BYTE   N76  Gs3  v084
 BYTE   W60
// 059   ----------------------------------------
 BYTE   W18
 BYTE   N05  Fs3  v088
 BYTE   W06
 BYTE   Fn3  v084
 BYTE   W06
 BYTE   Ds3
 BYTE   W06
 BYTE   N11  Fn3  v092
 BYTE   W60
// 060   ----------------------------------------
 BYTE   W36
 BYTE   N76  Gs3  v084
 BYTE   W60
// 061   ----------------------------------------
 BYTE   W18
 BYTE   N05  Fs3  v088
 BYTE   W06
 BYTE   Fn3
 BYTE   W06
 BYTE   Ds3
 BYTE   W06
 BYTE   N11  Fn3
 BYTE   W60
// 062   ----------------------------------------
 BYTE   W36
 BYTE   N76  Gs3
 BYTE   W60
// 063   ----------------------------------------
 BYTE   W18
 BYTE   N05  Fs3  v084
 BYTE   W06
 BYTE   Fn3  v092
 BYTE   W06
 BYTE   Ds3  v088
 BYTE   W06
 BYTE   N11  Fn3  v084
 BYTE   W60
// 064   ----------------------------------------
 BYTE   W96
// 065   ----------------------------------------
 BYTE   W96
// 066   ----------------------------------------
 BYTE   W96
// 067   ----------------------------------------
 BYTE   W96
// 068   ----------------------------------------
 BYTE   W96
// 069   ----------------------------------------
 BYTE   W96
// 070   ----------------------------------------
 BYTE   W96
// 071   ----------------------------------------
 BYTE   W96
// 072   ----------------------------------------
 BYTE   W96
// 073   ----------------------------------------
 BYTE   W96
// 074   ----------------------------------------
 BYTE   W96
// 075   ----------------------------------------
 BYTE   W96
// 076   ----------------------------------------
 BYTE   W36
 BYTE   N17
 BYTE   N17  Gs3  v092
 BYTE   N17  Cs4  v084
 BYTE   W24
 BYTE   N11  Fn3  v088
 BYTE   N11  Gs3  v092
 BYTE   N11  Cs4
 BYTE   W12
 BYTE   Ds3  v084
 BYTE   N11  Gs3  v088
 BYTE   N11  Cn4
 BYTE   W24
// 077   ----------------------------------------
 BYTE   GoTo
  POIN2 Label_9_01001F80
 BYTE   FINE

//**************** Track 11 (Midi-Chn.10) ****************//

NeverGonnaGiveYouUp_011:
// 000   ----------------------------------------
 BYTE   KEYSH   NeverGonnaGiveYouUp_key+0
 BYTE   VOICE   54
 BYTE   PAN   c_v-20
 BYTE   VOL   31*NeverGonnaGiveYouUp_mvl/mxv
 BYTE   W96
// 001   ----------------------------------------
 BYTE   W96
// 002   ----------------------------------------
 BYTE   W96
// 003   ----------------------------------------
 BYTE   W96
// 004   ----------------------------------------
 BYTE   W36
 BYTE   N76  Gs3  v084
 BYTE   W60
// 005   ----------------------------------------
 BYTE   W18
 BYTE   N05  Fs3  v080
 BYTE   W06
 BYTE   Fn3  v076
 BYTE   W06
 BYTE   Ds3  v080
 BYTE   W06
 BYTE   N68  Fn3  v084
 BYTE   W60
// 006   ----------------------------------------
 BYTE   W96
// 007   ----------------------------------------
 BYTE   W96
// 008   ----------------------------------------
 BYTE   W96
// 009   ----------------------------------------
 BYTE   W96
// 010   ----------------------------------------
 BYTE   W96
// 011   ----------------------------------------
 BYTE   W96
// 012   ----------------------------------------
 BYTE   W96
// 013   ----------------------------------------
 BYTE   W96
// 014   ----------------------------------------
 BYTE   W96
// 015   ----------------------------------------
 BYTE   W96
// 016   ----------------------------------------
 BYTE   W96
// 017   ----------------------------------------
 BYTE   W96
// 018   ----------------------------------------
 BYTE   W96
// 019   ----------------------------------------
 BYTE   W96
// 020   ----------------------------------------
 BYTE   W96
// 021   ----------------------------------------
Label_10_01002203:
 BYTE   W96
// 022   ----------------------------------------
 BYTE   W96
// 023   ----------------------------------------
 BYTE   W96
// 024   ----------------------------------------
 BYTE   W96
// 025   ----------------------------------------
 BYTE   W96
// 026   ----------------------------------------
 BYTE   W96
// 027   ----------------------------------------
 BYTE   W96
// 028   ----------------------------------------
 BYTE   W96
// 029   ----------------------------------------
 BYTE   W96
// 030   ----------------------------------------
 BYTE   W96
// 031   ----------------------------------------
 BYTE   W96
// 032   ----------------------------------------
 BYTE   W96
// 033   ----------------------------------------
 BYTE   W96
// 034   ----------------------------------------
 BYTE   W96
// 035   ----------------------------------------
 BYTE   W96
// 036   ----------------------------------------
 BYTE   W96
// 037   ----------------------------------------
 BYTE   W96
// 038   ----------------------------------------
 BYTE   W96
// 039   ----------------------------------------
 BYTE   W96
// 040   ----------------------------------------
 BYTE   W96
// 041   ----------------------------------------
 BYTE   W96
// 042   ----------------------------------------
 BYTE   W96
// 043   ----------------------------------------
 BYTE   W96
// 044   ----------------------------------------
 BYTE   W96
// 045   ----------------------------------------
 BYTE   W96
// 046   ----------------------------------------
 BYTE   W96
// 047   ----------------------------------------
 BYTE   W96
// 048   ----------------------------------------
 BYTE   W96
// 049   ----------------------------------------
 BYTE   W96
// 050   ----------------------------------------
 BYTE   W96
// 051   ----------------------------------------
 BYTE   W96
// 052   ----------------------------------------
 BYTE   W96
// 053   ----------------------------------------
 BYTE   W96
// 054   ----------------------------------------
 BYTE   W96
// 055   ----------------------------------------
 BYTE   W96
// 056   ----------------------------------------
 BYTE   W96
// 057   ----------------------------------------
 BYTE   W36
 BYTE   N17  Fn3  v084
 BYTE   N17  Gs3  v080
 BYTE   N17  Cs4
 BYTE   W18
 BYTE   Fn3
 BYTE   N17  Gs3
 BYTE   N17  Cs4  v076
 BYTE   W18
 BYTE   Ds3  v080
 BYTE   N17  Gs3
 BYTE   N17  Cn4
 BYTE   W24
// 058   ----------------------------------------
 BYTE   W96
// 059   ----------------------------------------
 BYTE   W36
 BYTE   Fn3
 BYTE   N17  Gs3  v084
 BYTE   N17  Cs4  v076
 BYTE   W18
 BYTE   Fn3  v080
 BYTE   N17  Gs3  v084
 BYTE   N17  Cs4
 BYTE   W18
 BYTE   Ds3  v080
 BYTE   N17  Gs3
 BYTE   N17  Cn4
 BYTE   W24
// 060   ----------------------------------------
 BYTE   W96
// 061   ----------------------------------------
 BYTE   W36
 BYTE   Fn3
 BYTE   N17  Gs3  v084
 BYTE   N17  Cs4  v080
 BYTE   W18
 BYTE   Fn3
 BYTE   N17  Gs3
 BYTE   N17  Cs4  v084
 BYTE   W18
 BYTE   Ds3
 BYTE   N17  Gs3
 BYTE   N17  Cn4  v080
 BYTE   W24
// 062   ----------------------------------------
 BYTE   W96
// 063   ----------------------------------------
 BYTE   W36
 BYTE   Fn3  v084
 BYTE   N17  Gs3  v080
 BYTE   N17  Cs4  v084
 BYTE   W18
 BYTE   Fn3  v080
 BYTE   N17  Gs3
 BYTE   N17  Cs4  v084
 BYTE   W18
 BYTE   Ds3
 BYTE   N17  Gs3
 BYTE   N17  Cn4  v080
 BYTE   W24
// 064   ----------------------------------------
 BYTE   W96
// 065   ----------------------------------------
 BYTE   W96
// 066   ----------------------------------------
 BYTE   W96
// 067   ----------------------------------------
 BYTE   W96
// 068   ----------------------------------------
 BYTE   W96
// 069   ----------------------------------------
 BYTE   W96
// 070   ----------------------------------------
 BYTE   W96
// 071   ----------------------------------------
 BYTE   W96
// 072   ----------------------------------------
 BYTE   W96
// 073   ----------------------------------------
 BYTE   W96
// 074   ----------------------------------------
 BYTE   W96
// 075   ----------------------------------------
 BYTE   W96
// 076   ----------------------------------------
 BYTE   W96
// 077   ----------------------------------------
 BYTE   GoTo
  POIN2 Label_10_01002203
 BYTE   FINE

//**************** Track 12 (Midi-Chn.11) ****************//

NeverGonnaGiveYouUp_012:
// 000   ----------------------------------------
 BYTE   KEYSH   NeverGonnaGiveYouUp_key+0
 BYTE   VOICE   65
 BYTE   PAN   c_v+0
 BYTE   VOL   31*NeverGonnaGiveYouUp_mvl/mxv
 BYTE   W96
// 001   ----------------------------------------
 BYTE   W96
// 002   ----------------------------------------
 BYTE   W96
// 003   ----------------------------------------
 BYTE   W96
// 004   ----------------------------------------
 BYTE   W96
// 005   ----------------------------------------
 BYTE   W96
// 006   ----------------------------------------
 BYTE   W96
// 007   ----------------------------------------
 BYTE   W96
// 008   ----------------------------------------
 BYTE   W48
 BYTE   N05  Cs3  v124
 BYTE   W12
 BYTE   N11
 BYTE   W12
 BYTE   As2
 BYTE   W12
 BYTE   Cs3
 BYTE   W12
// 009   ----------------------------------------
 BYTE   N16  Ds3  v120
 BYTE   W48
 BYTE   N11  Cn3  v124
 BYTE   W12
 BYTE   As2
 BYTE   W12
 BYTE   N16  Cn3  v120
 BYTE   W18
 BYTE   N05  As2
 BYTE   W06
// 010   ----------------------------------------
 BYTE   N16  Gs2  v124
 BYTE   W48
 BYTE   N05  As2
 BYTE   W12
 BYTE   N11
 BYTE   W12
 BYTE   Cn3
 BYTE   W12
 BYTE   Cs3  v120
 BYTE   W12
// 011   ----------------------------------------
 BYTE   As2  v124
 BYTE   W24
 BYTE   Gs2
 BYTE   W12
 BYTE   N16  Gs3
 BYTE   W24
 BYTE   N11
 BYTE   W12
 BYTE   N32  Ds3  v120
 BYTE   W24
// 012   ----------------------------------------
Label_11_010022E8:
 BYTE   W48
 BYTE   N05  As2  v124
 BYTE   W12
 BYTE   N11
 BYTE   W12
 BYTE   Cn3  v120
 BYTE   W12
 BYTE   Cs3
 BYTE   W12
 BYTE   PEND 
// 013   ----------------------------------------
 BYTE   As2  v124
 BYTE   W12
 BYTE   Cs3
 BYTE   W12
 BYTE   Ds3  v120
 BYTE   W24
 BYTE   Cn3
 BYTE   W12
 BYTE   As2
 BYTE   W12
 BYTE   N16  Cn3  v124
 BYTE   W18
 BYTE   N05  As2
 BYTE   W06
// 014   ----------------------------------------
 BYTE   N16  Gs2
 BYTE   W48
 BYTE   N05  As2  v120
 BYTE   W12
 BYTE   N11  As2  v124
 BYTE   W12
 BYTE   Cn3  v120
 BYTE   W12
 BYTE   Cs3  v124
 BYTE   W12
// 015   ----------------------------------------
 BYTE   As2
 BYTE   W12
 BYTE   Gs2  v120
 BYTE   W24
 BYTE   N05  Ds3  v124
 BYTE   W12
 BYTE   Ds3  v120
 BYTE   W12
 BYTE   N11  Ds3  v124
 BYTE   W12
 BYTE   Fn3
 BYTE   W12
 BYTE   N40  Ds3  v120
 BYTE   W12
// 016   ----------------------------------------
 BYTE   W36
 BYTE   N56  Cs3  v124
 BYTE   W60
// 017   ----------------------------------------
 BYTE   N11  Ds3  v120
 BYTE   W12
 BYTE   Fn3  v124
 BYTE   W12
 BYTE   Cs3  v120
 BYTE   W12
 BYTE   N05  Ds3
 BYTE   W12
 BYTE   N05
 BYTE   W12
 BYTE   N11  Ds3  v124
 BYTE   W12
 BYTE   Fn3  v120
 BYTE   W12
 BYTE   Ds3
 BYTE   W12
// 018   ----------------------------------------
 BYTE   Gs2  v124
 BYTE   W12
 BYTE   N22
 BYTE   W72
 BYTE   N11  As2  v120
 BYTE   W12
// 019   ----------------------------------------
 BYTE   Cn3  v124
 BYTE   W12
 BYTE   Cs3
 BYTE   W12
 BYTE   As2
 BYTE   W24
 BYTE   Ds3  v120
 BYTE   W12
 BYTE   Fn3
 BYTE   W12
 BYTE   N28  Ds3  v124
 BYTE   W24
// 020   ----------------------------------------
 BYTE   W12
 BYTE   N05  Gs2
 BYTE   W06
 BYTE   As2  v120
 BYTE   W06
 BYTE   Cs3  v124
 BYTE   W06
 BYTE   As2
 BYTE   W06
 BYTE   N16  Fn3
 BYTE   W24
 BYTE   N11  Fn3  v120
 BYTE   W12
 BYTE   N32  Ds3
 BYTE   W24
// 021   ----------------------------------------
Label_11_0100237B:
 BYTE   W12
 BYTE   N05  Gs2  v124
 BYTE   W06
 BYTE   As2  v120
 BYTE   W06
 BYTE   Cs3
 BYTE   W06
 BYTE   As2  v124
 BYTE   W06
 BYTE   N16  Ds3
 BYTE   W24
 BYTE   N11  Ds3  v120
 BYTE   W12
 BYTE   N16  Cs3  v124
 BYTE   W18
 BYTE   N05  Cn3  v120
 BYTE   W06
// 022   ----------------------------------------
 BYTE   N11  As2
 BYTE   W12
 BYTE   N05  Gs2  v124
 BYTE   W06
 BYTE   As2
 BYTE   W06
 BYTE   Cs3
 BYTE   W06
 BYTE   As2
 BYTE   W06
 BYTE   N22  Cs3  v120
 BYTE   W24
 BYTE   N11  Ds3
 BYTE   W12
 BYTE   N16  Cn3  v124
 BYTE   W18
 BYTE   N05  As2  v120
 BYTE   W06
// 023   ----------------------------------------
 BYTE   N11  Gs2  v124
 BYTE   W12
 BYTE   N11
 BYTE   W12
 BYTE   N32  Ds3
 BYTE   W36
 BYTE   N44  Cs3  v120
 BYTE   W36
// 024   ----------------------------------------
 BYTE   W12
 BYTE   N05  Gs2  v124
 BYTE   W06
 BYTE   As2
 BYTE   W06
 BYTE   Cs3
 BYTE   W06
 BYTE   As2
 BYTE   W06
 BYTE   N16  Fn3
 BYTE   W24
 BYTE   N11
 BYTE   W12
 BYTE   N32  Ds3  v120
 BYTE   W24
// 025   ----------------------------------------
 BYTE   W12
 BYTE   N05  Gs2  v124
 BYTE   W06
 BYTE   As2
 BYTE   W06
 BYTE   Cs3
 BYTE   W06
 BYTE   As2
 BYTE   W06
 BYTE   N22  Gs3  v120
 BYTE   W24
 BYTE   N11  Cn3  v124
 BYTE   W12
 BYTE   N16  Cs3
 BYTE   W18
 BYTE   N05  Cn3
 BYTE   W06
// 026   ----------------------------------------
 BYTE   N11  As2
 BYTE   W12
 BYTE   N05  Gs2
 BYTE   W06
 BYTE   As2
 BYTE   W06
 BYTE   Cs3  v120
 BYTE   W06
 BYTE   As2
 BYTE   W06
 BYTE   N22  Cs3  v124
 BYTE   W24
 BYTE   N11  Ds3  v120
 BYTE   W12
 BYTE   N16  Cn3
 BYTE   W18
 BYTE   N05  As2  v124
 BYTE   W06
// 027   ----------------------------------------
 BYTE   N16  Gs2  v120
 BYTE   W24
 BYTE   N11
 BYTE   W12
 BYTE   N22  Ds3  v124
 BYTE   W24
 BYTE   N52  Cs3
 BYTE   W36
// 028   ----------------------------------------
 BYTE   W60
 BYTE   N11  As2  v120
 BYTE   W12
 BYTE   Cn3
 BYTE   W12
 BYTE   N05  Cs3
 BYTE   W12
// 029   ----------------------------------------
 BYTE   N11  Cs3  v124
 BYTE   W12
 BYTE   Ds3  v120
 BYTE   W12
 BYTE   N16  Cn3
 BYTE   W18
 BYTE   N05  As2
 BYTE   W06
 BYTE   N76  Gs2  v124
 BYTE   W48
 BYTE   PATT
  POIN2 Label_11_010022E8
// 030   ----------------------------------------
 BYTE   N11  As2  v124
 BYTE   W24
 BYTE   Gs2
 BYTE   W12
 BYTE   N16  Gs3
 BYTE   W24
 BYTE   N11
 BYTE   W12
 BYTE   N22  Ds3
 BYTE   W24
// 031   ----------------------------------------
 BYTE   N11  Fn3  v120
 BYTE   W12
 BYTE   Ds3
 BYTE   W12
 BYTE   Cs3
 BYTE   W24
 BYTE   N05  As2  v124
 BYTE   W12
 BYTE   N11
 BYTE   W12
 BYTE   Cn3  v120
 BYTE   W12
 BYTE   Cs3  v124
 BYTE   W12
// 032   ----------------------------------------
 BYTE   As2  v120
 BYTE   W12
 BYTE   Cs3
 BYTE   W12
 BYTE   Ds3
 BYTE   W24
 BYTE   Cn3  v124
 BYTE   W12
 BYTE   As2
 BYTE   W12
 BYTE   N22  Cn3  v120
 BYTE   W18
 BYTE   N05  As2  v124
 BYTE   W06
// 033   ----------------------------------------
 BYTE   N32  Gs2
 BYTE   W48
 BYTE   N05  As2  v120
 BYTE   W12
 BYTE   N11  As2  v124
 BYTE   W12
 BYTE   Cn3  v120
 BYTE   W12
 BYTE   Cs3  v124
 BYTE   W12
// 034   ----------------------------------------
 BYTE   As2
 BYTE   W12
 BYTE   Gs2  v120
 BYTE   W24
 BYTE   Ds3  v124
 BYTE   W12
 BYTE   N05  Ds3  v120
 BYTE   W12
 BYTE   N11  Ds3  v124
 BYTE   W12
 BYTE   Fn3
 BYTE   W12
 BYTE   N40  Ds3  v120
 BYTE   W12
// 035   ----------------------------------------
 BYTE   W36
 BYTE   N56  Cs3  v124
 BYTE   W60
// 036   ----------------------------------------
 BYTE   N11  Ds3
 BYTE   W12
 BYTE   Fn3
 BYTE   W12
 BYTE   Cs3  v120
 BYTE   W12
 BYTE   N05  Ds3
 BYTE   W12
 BYTE   Ds3  v124
 BYTE   W12
 BYTE   N11
 BYTE   W12
 BYTE   Fn3
 BYTE   W12
 BYTE   Ds3
 BYTE   W12
// 037   ----------------------------------------
 BYTE   Gs2  v120
 BYTE   W12
 BYTE   N22
 BYTE   W72
 BYTE   N11  As2  v124
 BYTE   W12
// 038   ----------------------------------------
 BYTE   Cn3
 BYTE   W12
 BYTE   Cs3
 BYTE   W12
 BYTE   As2  v120
 BYTE   W24
 BYTE   Ds3  v124
 BYTE   W12
 BYTE   Fn3
 BYTE   W12
 BYTE   N28  Ds3
 BYTE   W24
// 039   ----------------------------------------
 BYTE   W12
 BYTE   N05  Gs2
 BYTE   W06
 BYTE   As2
 BYTE   W06
 BYTE   Cs3  v120
 BYTE   W06
 BYTE   As2  v124
 BYTE   W06
 BYTE   N16  Fn3
 BYTE   W24
 BYTE   N11  Fn3  v120
 BYTE   W12
 BYTE   N32  Ds3
 BYTE   W24
// 040   ----------------------------------------
 BYTE   W12
 BYTE   N05  Gs2  v124
 BYTE   W06
 BYTE   As2
 BYTE   W06
 BYTE   Cs3  v120
 BYTE   W06
 BYTE   As2  v124
 BYTE   W06
 BYTE   N16  Ds3
 BYTE   W24
 BYTE   N11
 BYTE   W12
 BYTE   N16  Cs3
 BYTE   W18
 BYTE   N05  Cn3  v120
 BYTE   W06
// 041   ----------------------------------------
 BYTE   N11  As2  v124
 BYTE   W12
 BYTE   N05  Gs2
 BYTE   W06
 BYTE   As2
 BYTE   W06
 BYTE   Cs3  v120
 BYTE   W06
 BYTE   As2  v124
 BYTE   W06
 BYTE   N22  Cs3
 BYTE   W24
 BYTE   N11  Ds3  v120
 BYTE   W12
 BYTE   N16  Cn3  v124
 BYTE   W18
 BYTE   N05  As2
 BYTE   W06
// 042   ----------------------------------------
 BYTE   N11  Gs2  v120
 BYTE   W12
 BYTE   Gs2  v124
 BYTE   W12
 BYTE   N32  Ds3  v120
 BYTE   W36
 BYTE   N44  Cs3  v124
 BYTE   W36
// 043   ----------------------------------------
 BYTE   W12
 BYTE   N05  Gs2
 BYTE   W06
 BYTE   As2
 BYTE   W06
 BYTE   Cs3
 BYTE   W06
 BYTE   As2  v120
 BYTE   W06
 BYTE   N16  Fn3  v124
 BYTE   W24
 BYTE   N11
 BYTE   W12
 BYTE   N32  Ds3
 BYTE   W24
// 044   ----------------------------------------
 BYTE   W12
 BYTE   N05  Gs2
 BYTE   W06
 BYTE   As2  v120
 BYTE   W06
 BYTE   Cs3
 BYTE   W06
 BYTE   As2
 BYTE   W06
 BYTE   N22  Gs3  v124
 BYTE   W24
 BYTE   N11  Cn3  v120
 BYTE   W12
 BYTE   N16  Cs3  v124
 BYTE   W18
 BYTE   N05  Cn3
 BYTE   W06
// 045   ----------------------------------------
 BYTE   N11  As2
 BYTE   W12
 BYTE   N05  Gs2  v120
 BYTE   W06
 BYTE   As2  v124
 BYTE   W06
 BYTE   Cs3
 BYTE   W06
 BYTE   As2
 BYTE   W06
 BYTE   N22  Cs3
 BYTE   W24
 BYTE   N11  Ds3
 BYTE   W12
 BYTE   N16  Cn3
 BYTE   W18
 BYTE   N05  As2
 BYTE   W06
// 046   ----------------------------------------
 BYTE   N16  Gs2  v120
 BYTE   W24
 BYTE   N11  Gs2  v124
 BYTE   W12
 BYTE   N22  Ds3  v120
 BYTE   W24
 BYTE   N52  Cs3  v124
 BYTE   W36
// 047   ----------------------------------------
 BYTE   W12
 BYTE   N05  Gs2
 BYTE   W06
 BYTE   As2
 BYTE   W06
 BYTE   Cs3  v120
 BYTE   W06
 BYTE   As2
 BYTE   W06
 BYTE   N16  Fn3
 BYTE   W24
 BYTE   N11  Fn3  v124
 BYTE   W12
 BYTE   N32  Ds3
 BYTE   W24
// 048   ----------------------------------------
 BYTE   W12
 BYTE   N05  Gs2  v120
 BYTE   W06
 BYTE   As2  v124
 BYTE   W06
 BYTE   Cs3  v120
 BYTE   W06
 BYTE   As2  v124
 BYTE   W06
 BYTE   N16  Ds3
 BYTE   W24
 BYTE   N11  Ds3  v120
 BYTE   W12
 BYTE   N16  Cs3  v124
 BYTE   W18
 BYTE   N05  Cn3
 BYTE   W06
// 049   ----------------------------------------
 BYTE   N11  As2  v120
 BYTE   W12
 BYTE   N05  Gs2
 BYTE   W06
 BYTE   As2  v124
 BYTE   W06
 BYTE   Cs3
 BYTE   W06
 BYTE   As2  v120
 BYTE   W06
 BYTE   N22  Cs3  v124
 BYTE   W24
 BYTE   N11  Ds3
 BYTE   W12
 BYTE   N16  Cn3  v120
 BYTE   W18
 BYTE   N05  As2  v124
 BYTE   W06
// 050   ----------------------------------------
 BYTE   Gs2
 BYTE   W12
 BYTE   N11
 BYTE   W12
 BYTE   N32  Ds3
 BYTE   W36
 BYTE   N40  Cs3
 BYTE   W36
// 051   ----------------------------------------
 BYTE   W12
 BYTE   N05  Gs2
 BYTE   W06
 BYTE   As2
 BYTE   W06
 BYTE   Cs3
 BYTE   W06
 BYTE   As2  v120
 BYTE   W06
 BYTE   N16  Fn3
 BYTE   W24
 BYTE   N11
 BYTE   W12
 BYTE   N32  Ds3  v124
 BYTE   W24
// 052   ----------------------------------------
 BYTE   W12
 BYTE   N05  Gs2  v120
 BYTE   W06
 BYTE   As2  v124
 BYTE   W06
 BYTE   Cs3
 BYTE   W06
 BYTE   As2  v120
 BYTE   W06
 BYTE   N22  Gs3  v124
 BYTE   W24
 BYTE   N11  Cn3
 BYTE   W12
 BYTE   N16  Cs3
 BYTE   W18
 BYTE   N05  Cn3
 BYTE   W06
// 053   ----------------------------------------
 BYTE   N11  As2
 BYTE   W12
 BYTE   N05  Gs2
 BYTE   W06
 BYTE   As2
 BYTE   W06
 BYTE   Cs3
 BYTE   W06
 BYTE   As2
 BYTE   W06
 BYTE   N22  Cs3  v120
 BYTE   W24
 BYTE   N11  Ds3
 BYTE   W12
 BYTE   N16  Cn3  v124
 BYTE   W18
 BYTE   N05  As2
 BYTE   W06
// 054   ----------------------------------------
 BYTE   N16  Gs2
 BYTE   W24
 BYTE   N11  Gs2  v120
 BYTE   W12
 BYTE   Ds3  v124
 BYTE   W12
 BYTE   N05  Cs3  v120
 BYTE   W12
 BYTE   N52
 BYTE   W36
// 055   ----------------------------------------
 BYTE   W96
// 056   ----------------------------------------
 BYTE   W96
// 057   ----------------------------------------
 BYTE   W96
// 058   ----------------------------------------
 BYTE   W96
// 059   ----------------------------------------
 BYTE   W48
 BYTE   N05  Gs2  v124
 BYTE   W06
 BYTE   As2  v120
 BYTE   W06
 BYTE   Cs3  v124
 BYTE   W06
 BYTE   As2
 BYTE   W06
 BYTE   Fn3  v120
 BYTE   W12
 BYTE   Gs2
 BYTE   W06
 BYTE   As2
 BYTE   W06
// 060   ----------------------------------------
 BYTE   Cs3  v124
 BYTE   W06
 BYTE   As2  v120
 BYTE   W06
 BYTE   N11  Fn3
 BYTE   W84
// 061   ----------------------------------------
 BYTE   W48
 BYTE   N05  Gs2  v124
 BYTE   W06
 BYTE   As2
 BYTE   W06
 BYTE   Cs3
 BYTE   W06
 BYTE   As2
 BYTE   W06
 BYTE   Fn3
 BYTE   W12
 BYTE   Gs2  v120
 BYTE   W06
 BYTE   As2
 BYTE   W06
// 062   ----------------------------------------
 BYTE   Cs3
 BYTE   W06
 BYTE   As2  v124
 BYTE   W06
 BYTE   N11  Fn3
 BYTE   W84
// 063   ----------------------------------------
 BYTE   W48
 BYTE   Cs3
 BYTE   W12
 BYTE   N11
 BYTE   W12
 BYTE   As2  v120
 BYTE   W12
 BYTE   Cs3  v124
 BYTE   W12
// 064   ----------------------------------------
 BYTE   N22  Ds3
 BYTE   W48
 BYTE   N11  Cn3
 BYTE   W12
 BYTE   As2
 BYTE   W12
 BYTE   N16  Cn3
 BYTE   W18
 BYTE   N05  As2
 BYTE   W06
// 065   ----------------------------------------
 BYTE   N28  Gs2
 BYTE   W48
 BYTE   N05  As2  v120
 BYTE   W12
 BYTE   N11
 BYTE   W12
 BYTE   Cn3  v124
 BYTE   W12
 BYTE   Cs3  v120
 BYTE   W12
// 066   ----------------------------------------
 BYTE   As2
 BYTE   W12
 BYTE   N22  Gs2  v124
 BYTE   W36
 BYTE   N05  Gs3
 BYTE   W12
 BYTE   N11
 BYTE   W12
 BYTE   N22  Ds3
 BYTE   W24
// 067   ----------------------------------------
 BYTE   N11  Fn3
 BYTE   W12
 BYTE   Ds3  v120
 BYTE   W12
 BYTE   Cs3  v124
 BYTE   W24
 BYTE   Cs3  v120
 BYTE   W12
 BYTE   Cs3  v124
 BYTE   W12
 BYTE   As2  v120
 BYTE   W12
 BYTE   Cs3  v124
 BYTE   W12
// 068   ----------------------------------------
 BYTE   As2
 BYTE   W12
 BYTE   Cs3
 BYTE   W12
 BYTE   Ds3  v120
 BYTE   W24
 BYTE   Cn3
 BYTE   W12
 BYTE   As2  v124
 BYTE   W12
 BYTE   N16  Cn3
 BYTE   W18
 BYTE   N05  As2
 BYTE   W06
// 069   ----------------------------------------
 BYTE   N28  Gs2
 BYTE   W48
 BYTE   N11  As2
 BYTE   W12
 BYTE   N11
 BYTE   W12
 BYTE   Cn3  v120
 BYTE   W12
 BYTE   Cs3  v124
 BYTE   W12
// 070   ----------------------------------------
 BYTE   As2  v120
 BYTE   W12
 BYTE   N22  Gs2  v124
 BYTE   W36
 BYTE   N11  Ds3  v120
 BYTE   W12
 BYTE   Fn3
 BYTE   W12
 BYTE   N22
 BYTE   W24
// 071   ----------------------------------------
 BYTE   Ds3  v124
 BYTE   W36
 BYTE   N52  Cs3  v120
 BYTE   W60
// 072   ----------------------------------------
 BYTE   N11  Ds3  v124
 BYTE   W12
 BYTE   Fn3
 BYTE   W12
 BYTE   Cs3
 BYTE   W12
 BYTE   Ds3
 BYTE   W12
 BYTE   N10
 BYTE   W12
 BYTE   N11  Ds3  v120
 BYTE   W12
 BYTE   Fn3  v124
 BYTE   W12
 BYTE   Ds3  v120
 BYTE   W12
// 073   ----------------------------------------
 BYTE   Gs2  v124
 BYTE   W12
 BYTE   N44
 BYTE   W72
 BYTE   N11  As2
 BYTE   W12
// 074   ----------------------------------------
 BYTE   Cn3
 BYTE   W12
 BYTE   Cs3
 BYTE   W12
 BYTE   As2
 BYTE   W24
 BYTE   Ds3  v120
 BYTE   W12
 BYTE   Fn3  v124
 BYTE   W12
 BYTE   N32  Ds3  v120
 BYTE   W24
// 075   ----------------------------------------
 BYTE   W12
 BYTE   N05  Gs2
 BYTE   W06
 BYTE   As2
 BYTE   W06
 BYTE   Cs3
 BYTE   W06
 BYTE   As2
 BYTE   W06
 BYTE   N16  Fn3  v124
 BYTE   W24
 BYTE   N11  Fn3  v120
 BYTE   W36
// 076   ----------------------------------------
 BYTE   GoTo
  POIN2 Label_11_0100237B
 BYTE   FINE

//******************************************************//
	ALIGN 4

NeverGonnaGiveYouUp:
	BYTE	12	// NumTrks
	BYTE	0	// NumBlks
	BYTE	NeverGonnaGiveYouUp_pri	// Priority
	BYTE	NeverGonnaGiveYouUp_rev	// Reverb.
    
	POIN2	NeverGonnaGiveYouUp_grp
    
	POIN2	NeverGonnaGiveYouUp_001
	POIN2	NeverGonnaGiveYouUp_002
	POIN2	NeverGonnaGiveYouUp_003
	POIN2	NeverGonnaGiveYouUp_004
	POIN2	NeverGonnaGiveYouUp_005
	POIN2	NeverGonnaGiveYouUp_006
	POIN2	NeverGonnaGiveYouUp_007
	POIN2	NeverGonnaGiveYouUp_008
	POIN2	NeverGonnaGiveYouUp_009
	POIN2	NeverGonnaGiveYouUp_010
	POIN2	NeverGonnaGiveYouUp_011
	POIN2	NeverGonnaGiveYouUp_012

	
