//Event file generated from Sappy .s format.
	#include "MPlayDef.event"

	#define	NuclearFusion_grp  voicegroup000
	#define	NuclearFusion_pri  0
	#define	NuclearFusion_rev  0
	#define	NuclearFusion_mvl  80
	#define	NuclearFusion_key  0
	#define	NuclearFusion_tbs  1
	#define	NuclearFusion_exg  0
	#define	NuclearFusion_cmp  1

	// .rodata
	//	NuclearFusion
	ALIGN 4


//**************** Track 1 (Midi-Chn.0) ****************//

NuclearFusion_001:
// 000   ----------------------------------------
 BYTE   KEYSH   NuclearFusion_key+0
 BYTE   TEMPO   156*NuclearFusion_tbs/2
 BYTE   VOICE   38
 BYTE   VOL   45*NuclearFusion_mvl/mxv
 BYTE   PAN   c_v+0
 BYTE   W36
Label_0_01099F6F:
 BYTE   N06  Dn1  v120
 BYTE   W06
 BYTE   N06
 BYTE   W06
 BYTE   N06
 BYTE   W06
 BYTE   N06
 BYTE   W06
 BYTE   En1
 BYTE   W06
 BYTE   Dn1
 BYTE   W06
 BYTE   N06
 BYTE   W06
 BYTE   N06
 BYTE   W06
 BYTE   Fn1
 BYTE   W06
 BYTE   Dn1
 BYTE   W06
// 001   ----------------------------------------
Label_0_01099F85:
 BYTE   N06  Dn1  v120
 BYTE   W06
 BYTE   N06
 BYTE   W06
 BYTE   Gn1
 BYTE   W06
 BYTE   Cn1
 BYTE   W06
 BYTE   N06
 BYTE   W06
 BYTE   N06
 BYTE   W06
 BYTE   Dn1
 BYTE   W06
 BYTE   N06
 BYTE   W06
 BYTE   N06
 BYTE   W06
 BYTE   N06
 BYTE   W06
 BYTE   En1
 BYTE   W06
 BYTE   Dn1
 BYTE   W06
 BYTE   N06
 BYTE   W06
 BYTE   N06
 BYTE   W06
 BYTE   Fn1
 BYTE   W06
 BYTE   Dn1
 BYTE   W06
 BYTE   PEND 
// 002   ----------------------------------------
Label_0_01099FA8:
 BYTE   N06  Dn1  v120
 BYTE   W06
 BYTE   N06
 BYTE   W06
 BYTE   Gn1
 BYTE   W06
 BYTE   Cn1
 BYTE   W06
 BYTE   N06
 BYTE   W06
 BYTE   En1
 BYTE   W06
 BYTE   Dn1
 BYTE   W06
 BYTE   N06
 BYTE   W06
 BYTE   N06
 BYTE   W06
 BYTE   N06
 BYTE   W06
 BYTE   En1
 BYTE   W06
 BYTE   Dn1
 BYTE   W06
 BYTE   N06
 BYTE   W06
 BYTE   N06
 BYTE   W06
 BYTE   Fn1
 BYTE   W06
 BYTE   Dn1
 BYTE   W06
 BYTE   PEND 
 BYTE   PATT
  POIN2 Label_0_01099F85
// 003   ----------------------------------------
Label_0_01099FD0:
 BYTE   N06  Gn1  v120
 BYTE   W06
 BYTE   Dn1
 BYTE   W06
 BYTE   An1
 BYTE   W06
 BYTE   Cn1
 BYTE   W06
 BYTE   N06
 BYTE   W06
 BYTE   En1
 BYTE   W06
 BYTE   N12  Dn1
 BYTE   W12
 BYTE   N06
 BYTE   W06
 BYTE   N06
 BYTE   W06
 BYTE   N06
 BYTE   W12
 BYTE   N12  En1
 BYTE   W12
 BYTE   N06
 BYTE   W06
 BYTE   N06
 BYTE   W06
 BYTE   PEND 
// 004   ----------------------------------------
Label_0_01099FEF:
 BYTE   N06  En1  v120
 BYTE   W12
 BYTE   N12  Fn1
 BYTE   W12
 BYTE   N06
 BYTE   W06
 BYTE   N06
 BYTE   W06
 BYTE   N06
 BYTE   W12
 BYTE   N12  Gn1
 BYTE   W12
 BYTE   N06
 BYTE   W06
 BYTE   N06
 BYTE   W06
 BYTE   N06
 BYTE   W12
 BYTE   An1
 BYTE   W06
 BYTE   As1
 BYTE   W06
 BYTE   PEND 
// 005   ----------------------------------------
Label_0_0109A00A:
 BYTE   N06  An1  v120
 BYTE   W06
 BYTE   Gn1
 BYTE   W06
 BYTE   Fn1
 BYTE   W06
 BYTE   En1
 BYTE   W06
 BYTE   An1
 BYTE   W06
 BYTE   Dn1
 BYTE   W06
 BYTE   N24  Cn1
 BYTE   W24
 BYTE   N12
 BYTE   W12
 BYTE   N24  Dn1
 BYTE   W24
 BYTE   PEND 
// 006   ----------------------------------------
Label_0_0109A021:
 BYTE   N12  Dn1  v120
 BYTE   W12
 BYTE   En1
 BYTE   W12
 BYTE   N06
 BYTE   W06
 BYTE   N06
 BYTE   W06
 BYTE   N12
 BYTE   W12
 BYTE   Fn1
 BYTE   W12
 BYTE   N06
 BYTE   W06
 BYTE   N06
 BYTE   W06
 BYTE   N12
 BYTE   W12
 BYTE   Gn1
 BYTE   W12
 BYTE   PEND 
// 007   ----------------------------------------
Label_0_0109A038:
 BYTE   N06  Gn1  v120
 BYTE   W06
 BYTE   N06
 BYTE   W06
 BYTE   N12  Cn1
 BYTE   W12
 BYTE   N06
 BYTE   W06
 BYTE   N06
 BYTE   W06
 BYTE   As0
 BYTE   W06
 BYTE   N06
 BYTE   W06
 BYTE   Cn1
 BYTE   W06
 BYTE   N06
 BYTE   W06
 BYTE   Dn1
 BYTE   W06
 BYTE   N06
 BYTE   W06
 BYTE   Fn1
 BYTE   W06
 BYTE   An0
 BYTE   W06
 BYTE   As0
 BYTE   W06
 BYTE   N06
 BYTE   W06
 BYTE   PEND 
// 008   ----------------------------------------
Label_0_0109A05A:
 BYTE   N06  Cn1  v120
 BYTE   W06
 BYTE   N06
 BYTE   W06
 BYTE   Fn1
 BYTE   W06
 BYTE   N06
 BYTE   W06
 BYTE   Cn1
 BYTE   W06
 BYTE   N06
 BYTE   W06
 BYTE   As0
 BYTE   W06
 BYTE   N06
 BYTE   W06
 BYTE   Cn1
 BYTE   W06
 BYTE   N06
 BYTE   W06
 BYTE   Dn1
 BYTE   W06
 BYTE   N06
 BYTE   W06
 BYTE   Fn1
 BYTE   W06
 BYTE   An0
 BYTE   W06
 BYTE   As0
 BYTE   W06
 BYTE   N06
 BYTE   W06
 BYTE   PEND 
// 009   ----------------------------------------
Label_0_0109A07D:
 BYTE   N06  Cn1  v120
 BYTE   W06
 BYTE   N06
 BYTE   W06
 BYTE   En1
 BYTE   W06
 BYTE   N06
 BYTE   W06
 BYTE   Cn1
 BYTE   W06
 BYTE   N06
 BYTE   W06
 BYTE   As0
 BYTE   W06
 BYTE   N06
 BYTE   W06
 BYTE   Cn1
 BYTE   W06
 BYTE   N06
 BYTE   W06
 BYTE   Dn1
 BYTE   W06
 BYTE   N06
 BYTE   W06
 BYTE   Fn1
 BYTE   W06
 BYTE   An0
 BYTE   W06
 BYTE   As0
 BYTE   W06
 BYTE   N06
 BYTE   W06
 BYTE   PEND 
 BYTE   PATT
  POIN2 Label_0_0109A05A
// 010   ----------------------------------------
Label_0_0109A0A5:
 BYTE   N06  Cn1  v120
 BYTE   W06
 BYTE   N06
 BYTE   W06
 BYTE   En1
 BYTE   W06
 BYTE   N06
 BYTE   W06
 BYTE   Cn1
 BYTE   W06
 BYTE   N06
 BYTE   W06
 BYTE   N12  As0
 BYTE   W12
 BYTE   N06
 BYTE   W06
 BYTE   N06
 BYTE   W06
 BYTE   N06
 BYTE   W12
 BYTE   N12  Cn1
 BYTE   W12
 BYTE   N06
 BYTE   W06
 BYTE   N06
 BYTE   W06
 BYTE   PEND 
// 011   ----------------------------------------
Label_0_0109A0C4:
 BYTE   N06  Cn1  v120
 BYTE   W12
 BYTE   N12  Dn1
 BYTE   W12
 BYTE   N06
 BYTE   W06
 BYTE   N06
 BYTE   W06
 BYTE   N06
 BYTE   W12
 BYTE   N12  En1
 BYTE   W12
 BYTE   N06
 BYTE   W06
 BYTE   N06
 BYTE   W06
 BYTE   N06
 BYTE   W12
 BYTE   Fn1
 BYTE   W06
 BYTE   Gn1
 BYTE   W06
 BYTE   PEND 
// 012   ----------------------------------------
Label_0_0109A0DF:
 BYTE   N06  Fn1  v120
 BYTE   W06
 BYTE   En1
 BYTE   W06
 BYTE   Cn1
 BYTE   W06
 BYTE   Cn2
 BYTE   W06
 BYTE   Gn1
 BYTE   W06
 BYTE   Cn1
 BYTE   W06
 BYTE   N24  Dn1
 BYTE   W24
 BYTE   N12
 BYTE   W12
 BYTE   N24  En1
 BYTE   W24
 BYTE   PEND 
// 013   ----------------------------------------
Label_0_0109A0F6:
 BYTE   N12  En1  v120
 BYTE   W12
 BYTE   Fn1
 BYTE   W12
 BYTE   N06
 BYTE   W06
 BYTE   N06
 BYTE   W06
 BYTE   N12
 BYTE   W12
 BYTE   Gn1
 BYTE   W12
 BYTE   N06
 BYTE   W06
 BYTE   N06
 BYTE   W06
 BYTE   N12
 BYTE   W12
 BYTE   An1
 BYTE   W12
 BYTE   PEND 
// 014   ----------------------------------------
 BYTE   N06
 BYTE   W06
 BYTE   N06
 BYTE   W06
 BYTE   N12  Cn1
 BYTE   W12
 BYTE   N06
 BYTE   W06
 BYTE   N06
 BYTE   W06
 BYTE   Dn1
 BYTE   W06
 BYTE   N06
 BYTE   W06
 BYTE   N06
 BYTE   W06
 BYTE   N06
 BYTE   W06
 BYTE   En1
 BYTE   W06
 BYTE   Dn1
 BYTE   W06
 BYTE   N06
 BYTE   W06
 BYTE   N06
 BYTE   W06
 BYTE   Fn1
 BYTE   W06
 BYTE   Dn1
 BYTE   W06
 BYTE   PATT
  POIN2 Label_0_01099F85
 BYTE   PATT
  POIN2 Label_0_01099FA8
 BYTE   PATT
  POIN2 Label_0_01099F85
 BYTE   PATT
  POIN2 Label_0_01099FD0
 BYTE   PATT
  POIN2 Label_0_01099FEF
 BYTE   PATT
  POIN2 Label_0_0109A00A
 BYTE   PATT
  POIN2 Label_0_0109A021
 BYTE   PATT
  POIN2 Label_0_0109A038
 BYTE   PATT
  POIN2 Label_0_0109A05A
 BYTE   PATT
  POIN2 Label_0_0109A07D
 BYTE   PATT
  POIN2 Label_0_0109A05A
 BYTE   PATT
  POIN2 Label_0_0109A0A5
 BYTE   PATT
  POIN2 Label_0_0109A0C4
 BYTE   PATT
  POIN2 Label_0_0109A0DF
 BYTE   PATT
  POIN2 Label_0_0109A0F6
// 015   ----------------------------------------
 BYTE   N06  An1  v120
 BYTE   W06
 BYTE   N06
 BYTE   W06
 BYTE   N12  Cn1
 BYTE   W12
 BYTE   N06
 BYTE   W06
 BYTE   N06
 BYTE   W06
 BYTE   N12  Dn1
 BYTE   W12
 BYTE   N06
 BYTE   W06
 BYTE   N12  En1
 BYTE   W12
 BYTE   N06
 BYTE   W06
 BYTE   N12  Fn1
 BYTE   W12
 BYTE   N06  Dn1
 BYTE   W12
// 016   ----------------------------------------
 BYTE   W96
// 017   ----------------------------------------
Label_0_0109A195:
 BYTE   W36
 BYTE   N12  Cn1  v120
 BYTE   W12
 BYTE   N06
 BYTE   W06
 BYTE   N06
 BYTE   W06
 BYTE   N12  Gn1
 BYTE   W12
 BYTE   N06  En1
 BYTE   W06
 BYTE   N12  Cn1
 BYTE   W12
 BYTE   N06
 BYTE   W06
 BYTE   PEND 
// 018   ----------------------------------------
Label_0_0109A1AA:
 BYTE   N06  Cn1  v120
 BYTE   W06
 BYTE   N06
 BYTE   W06
 BYTE   N12  Gn1
 BYTE   W12
 BYTE   N06  En1
 BYTE   W06
 BYTE   N06
 BYTE   W06
 BYTE   N12  Cn1
 BYTE   W12
 BYTE   N06
 BYTE   W06
 BYTE   N06
 BYTE   W06
 BYTE   N12  Gn1
 BYTE   W12
 BYTE   N06  En1
 BYTE   W06
 BYTE   N12  Cn1
 BYTE   W12
 BYTE   N06
 BYTE   W06
 BYTE   PEND 
// 019   ----------------------------------------
Label_0_0109A1CB:
 BYTE   N06  Cn1  v120
 BYTE   W06
 BYTE   N06
 BYTE   W06
 BYTE   N12  Gn1
 BYTE   W12
 BYTE   Cn1
 BYTE   W12
 BYTE   Fn1
 BYTE   W12
 BYTE   N06
 BYTE   W06
 BYTE   N12  Gn1
 BYTE   W12
 BYTE   N06
 BYTE   W06
 BYTE   N12  An1
 BYTE   W12
 BYTE   N06  Fn1
 BYTE   W12
 BYTE   PEND 
// 020   ----------------------------------------
 BYTE   W96
// 021   ----------------------------------------
Label_0_0109A1E7:
 BYTE   W12
 BYTE   N24  Cn1  v120
 BYTE   W24
 BYTE   N06  Dn1
 BYTE   W06
 BYTE   N06
 BYTE   W06
 BYTE   N06
 BYTE   W06
 BYTE   N06
 BYTE   W06
 BYTE   An1
 BYTE   W06
 BYTE   Dn1
 BYTE   W06
 BYTE   N06
 BYTE   W06
 BYTE   N06
 BYTE   W06
 BYTE   N12  Gn1
 BYTE   W12
 BYTE   PEND 
// 022   ----------------------------------------
 BYTE   N06  Dn1
 BYTE   W06
 BYTE   N12  Fn1
 BYTE   W12
 BYTE   N06  Dn1
 BYTE   W06
 BYTE   N12  En1
 BYTE   W12
 BYTE   N06  Dn1
 BYTE   W06
 BYTE   N06
 BYTE   W06
 BYTE   N06
 BYTE   W06
 BYTE   N06
 BYTE   W06
 BYTE   Gn1
 BYTE   W06
 BYTE   Dn1
 BYTE   W06
 BYTE   N06
 BYTE   W06
 BYTE   N06
 BYTE   W06
 BYTE   N12  Fn1
 BYTE   W12
// 023   ----------------------------------------
 BYTE   N06  Dn1
 BYTE   W06
 BYTE   N12  En1
 BYTE   W12
 BYTE   N06  Dn1
 BYTE   W06
 BYTE   N12  Cn1
 BYTE   W12
 BYTE   Dn1
 BYTE   W12
 BYTE   N06
 BYTE   W06
 BYTE   N12  En1
 BYTE   W12
 BYTE   N06
 BYTE   W06
 BYTE   N12  Fn1
 BYTE   W12
 BYTE   N06  Dn1
 BYTE   W12
// 024   ----------------------------------------
 BYTE   W96
 BYTE   PATT
  POIN2 Label_0_0109A195
 BYTE   PATT
  POIN2 Label_0_0109A1AA
 BYTE   PATT
  POIN2 Label_0_0109A1CB
// 025   ----------------------------------------
 BYTE   W96
 BYTE   PATT
  POIN2 Label_0_0109A1E7
// 026   ----------------------------------------
 BYTE   N06  Dn1  v120
 BYTE   W06
 BYTE   N12  Fn1
 BYTE   W12
 BYTE   N06  Dn1
 BYTE   W06
 BYTE   N12  En1
 BYTE   W12
 BYTE   N06  Dn1
 BYTE   W06
 BYTE   N06
 BYTE   W06
 BYTE   N06
 BYTE   W06
 BYTE   N06
 BYTE   W06
 BYTE   An1
 BYTE   W06
 BYTE   Dn1
 BYTE   W06
 BYTE   N06
 BYTE   W06
 BYTE   Cn1
 BYTE   W06
 BYTE   N06
 BYTE   W06
 BYTE   Dn1
 BYTE   W06
// 027   ----------------------------------------
 BYTE   N06
 BYTE   W06
 BYTE   N06
 BYTE   W06
 BYTE   N12
 BYTE   W84
// 028   ----------------------------------------
 BYTE   W96
// 029   ----------------------------------------
 BYTE   W96
// 030   ----------------------------------------
 BYTE   W96
// 031   ----------------------------------------
 BYTE   W06
 BYTE   N18
 BYTE   W18
 BYTE   N12  Cn1
 BYTE   W12
 BYTE   N18  As0
 BYTE   W18
 BYTE   N06
 BYTE   W06
 BYTE   Dn1
 BYTE   W06
 BYTE   As0
 BYTE   W06
 BYTE   N06
 BYTE   W06
 BYTE   N06
 BYTE   W06
 BYTE   Fn1
 BYTE   W06
 BYTE   As0
 BYTE   W06
// 032   ----------------------------------------
 BYTE   N06
 BYTE   W06
 BYTE   N06
 BYTE   W06
 BYTE   An1
 BYTE   W12
 BYTE   As0
 BYTE   W12
 BYTE   N18  Cn1
 BYTE   W18
 BYTE   N06
 BYTE   W06
 BYTE   En1
 BYTE   W06
 BYTE   Cn1
 BYTE   W06
 BYTE   N06
 BYTE   W06
 BYTE   N06
 BYTE   W06
 BYTE   Gn1
 BYTE   W06
 BYTE   Cn1
 BYTE   W06
// 033   ----------------------------------------
 BYTE   N06
 BYTE   W06
 BYTE   N06
 BYTE   W06
 BYTE   En1
 BYTE   W12
 BYTE   Cn1
 BYTE   W12
 BYTE   N18  Dn1
 BYTE   W18
 BYTE   N06
 BYTE   W06
 BYTE   Fs1
 BYTE   W06
 BYTE   Dn1
 BYTE   W06
 BYTE   N06
 BYTE   W06
 BYTE   N06
 BYTE   W06
 BYTE   An1
 BYTE   W06
 BYTE   Dn1
 BYTE   W06
// 034   ----------------------------------------
 BYTE   N06
 BYTE   W06
 BYTE   N06
 BYTE   W06
 BYTE   Fs1
 BYTE   W12
 BYTE   Dn1
 BYTE   W12
 BYTE   N18  En1
 BYTE   W18
 BYTE   N06
 BYTE   W06
 BYTE   Cn1
 BYTE   W06
 BYTE   N06
 BYTE   W06
 BYTE   N06
 BYTE   W06
 BYTE   N06
 BYTE   W06
 BYTE   N18  Gn1
 BYTE   W12
// 035   ----------------------------------------
 BYTE   W06
 BYTE   N12  En1
 BYTE   W12
 BYTE   N06
 BYTE   W06
 BYTE   N12  Fs1
 BYTE   W12
 BYTE   N12
 BYTE   W18
 BYTE   N06  As0
 BYTE   W18
 BYTE   N06
 BYTE   W06
 BYTE   Fs1
 BYTE   W06
 BYTE   N12
 BYTE   W12
// 036   ----------------------------------------
 BYTE   N06  An0
 BYTE   W06
 BYTE   N12  As0
 BYTE   W12
 BYTE   N06  Cn1
 BYTE   W06
 BYTE   En1
 BYTE   W06
 BYTE   Cn1
 BYTE   W06
 BYTE   N18  Fs1
 BYTE   W18
 BYTE   N06  As0
 BYTE   W12
 BYTE   N12
 BYTE   W12
 BYTE   N06  En1
 BYTE   W06
 BYTE   Fs1
 BYTE   W06
 BYTE   As0
 BYTE   W06
// 037   ----------------------------------------
 BYTE   W06
 BYTE   N06
 BYTE   W06
 BYTE   N12
 BYTE   W24
 BYTE   GoTo
  POIN2 Label_0_01099F6F
 BYTE   FINE

//**************** Track 2 (Midi-Chn.1) ****************//

NuclearFusion_002:
// 000   ----------------------------------------
 BYTE   KEYSH   NuclearFusion_key+0
 BYTE   VOICE   75
 BYTE   VOL   45*NuclearFusion_mvl/mxv
 BYTE   PAN   c_v+32
 BYTE   W36
Label_1_0109A325:
 BYTE   TIE  An4  v120
 BYTE   W60
// 001   ----------------------------------------
 BYTE   W60
 BYTE   EOT
 BYTE   N24  Cn5
 BYTE   W24
 BYTE   N12  Bn4
 BYTE   W12
// 002   ----------------------------------------
Label_1_0109A331:
 BYTE   N12  An4  v120
 BYTE   W12
 BYTE   N24  Gn4
 BYTE   W24
 BYTE   An4
 BYTE   W24
 BYTE   N12  Dn4
 BYTE   W12
 BYTE   N84  An4
 BYTE   W24
 BYTE   PEND 
// 003   ----------------------------------------
Label_1_0109A341:
 BYTE   W60
 BYTE   N12  An4  v120
 BYTE   W12
 BYTE   Bn4
 BYTE   W12
 BYTE   Cn5
 BYTE   W12
 BYTE   PEND 
// 004   ----------------------------------------
Label_1_0109A34B:
 BYTE   N12  Dn5  v120
 BYTE   W12
 BYTE   Bn4
 BYTE   W12
 BYTE   Gn4
 BYTE   W12
 BYTE   N36  An4
 BYTE   W36
 BYTE   Bn4
 BYTE   W24
 BYTE   PEND 
// 005   ----------------------------------------
Label_1_0109A359:
 BYTE   W12
 BYTE   N36  Cn5  v120
 BYTE   W36
 BYTE   Bn4
 BYTE   W36
 BYTE   N24  An4
 BYTE   W12
 BYTE   PEND 
// 006   ----------------------------------------
Label_1_0109A364:
 BYTE   W12
 BYTE   N24  Dn4  v120
 BYTE   W24
 BYTE   N12  Fn4
 BYTE   W12
 BYTE   Gn4
 BYTE   W12
 BYTE   Fn4
 BYTE   W12
 BYTE   TIE  En4
 BYTE   W24
 BYTE   PEND 
// 007   ----------------------------------------
 BYTE   W96
// 008   ----------------------------------------
 BYTE   W36
 BYTE   EOT
 BYTE   TIE  Gn4
 BYTE   W60
// 009   ----------------------------------------
 BYTE   W60
 BYTE   EOT
 BYTE   N24  As4
 BYTE   W24
 BYTE   N12  An4
 BYTE   W12
// 010   ----------------------------------------
Label_1_0109A382:
 BYTE   N12  Gn4  v120
 BYTE   W12
 BYTE   N24  Dn4
 BYTE   W24
 BYTE   TIE  Gn4
 BYTE   W60
 BYTE   PEND 
// 011   ----------------------------------------
 BYTE   W60
 BYTE   EOT
 BYTE   N12
 BYTE   W12
 BYTE   An4
 BYTE   W12
 BYTE   As4
 BYTE   W12
// 012   ----------------------------------------
Label_1_0109A395:
 BYTE   N12  Cn5  v120
 BYTE   W12
 BYTE   As4
 BYTE   W12
 BYTE   Fn4
 BYTE   W12
 BYTE   N36  Gn4
 BYTE   W36
 BYTE   An4
 BYTE   W24
 BYTE   PEND 
// 013   ----------------------------------------
Label_1_0109A3A3:
 BYTE   W12
 BYTE   N36  As4  v120
 BYTE   W36
 BYTE   An4
 BYTE   W36
 BYTE   N24  Gn4
 BYTE   W12
 BYTE   PEND 
// 014   ----------------------------------------
Label_1_0109A3AE:
 BYTE   W12
 BYTE   N24  En4  v120
 BYTE   W24
 BYTE   N12  Fn4
 BYTE   W12
 BYTE   Gn4
 BYTE   W12
 BYTE   En4
 BYTE   W12
 BYTE   TIE  Dn4
 BYTE   W24
 BYTE   PEND 
// 015   ----------------------------------------
 BYTE   W96
// 016   ----------------------------------------
 BYTE   W36
 BYTE   EOT
 BYTE   TIE  An4
 BYTE   W60
// 017   ----------------------------------------
 BYTE   W60
 BYTE   EOT
 BYTE   N24  Cn5
 BYTE   W24
 BYTE   N12  Bn4
 BYTE   W12
 BYTE   PATT
  POIN2 Label_1_0109A331
 BYTE   PATT
  POIN2 Label_1_0109A341
 BYTE   PATT
  POIN2 Label_1_0109A34B
 BYTE   PATT
  POIN2 Label_1_0109A359
 BYTE   PATT
  POIN2 Label_1_0109A364
// 018   ----------------------------------------
 BYTE   W96
// 019   ----------------------------------------
 BYTE   W36
 BYTE   EOT
 BYTE   En4
 BYTE   TIE  Gn4  v120
 BYTE   W60
// 020   ----------------------------------------
 BYTE   W60
 BYTE   EOT
 BYTE   N24  As4
 BYTE   W24
 BYTE   N12  An4
 BYTE   W12
 BYTE   PATT
  POIN2 Label_1_0109A382
// 021   ----------------------------------------
 BYTE   W60
 BYTE   EOT
 BYTE   Gn4
 BYTE   N12  Gn4  v120
 BYTE   W12
 BYTE   An4
 BYTE   W12
 BYTE   As4
 BYTE   W12
 BYTE   PATT
  POIN2 Label_1_0109A395
 BYTE   PATT
  POIN2 Label_1_0109A3A3
 BYTE   PATT
  POIN2 Label_1_0109A3AE
// 022   ----------------------------------------
 BYTE   W96
// 023   ----------------------------------------
 BYTE   W36
 BYTE   EOT
 BYTE   Dn4
 BYTE   W60
// 024   ----------------------------------------
 BYTE   W96
// 025   ----------------------------------------
 BYTE   W96
// 026   ----------------------------------------
 BYTE   W96
// 027   ----------------------------------------
 BYTE   W96
// 028   ----------------------------------------
 BYTE   W96
// 029   ----------------------------------------
 BYTE   W96
// 030   ----------------------------------------
 BYTE   W96
// 031   ----------------------------------------
 BYTE   W96
// 032   ----------------------------------------
 BYTE   W96
// 033   ----------------------------------------
 BYTE   W96
// 034   ----------------------------------------
 BYTE   W96
// 035   ----------------------------------------
 BYTE   W96
// 036   ----------------------------------------
 BYTE   W96
// 037   ----------------------------------------
 BYTE   W96
// 038   ----------------------------------------
 BYTE   W96
// 039   ----------------------------------------
 BYTE   W36
 BYTE   N18  Ds4  v120
 BYTE   W18
 BYTE   As3
 BYTE   W18
 BYTE   N12  Gn3
 BYTE   W12
 BYTE   N18  Ds3
 BYTE   W12
// 040   ----------------------------------------
 BYTE   W06
 BYTE   As3
 BYTE   W18
 BYTE   N12  Ds4
 BYTE   W12
 BYTE   N18  Dn4
 BYTE   W18
 BYTE   An3
 BYTE   W18
 BYTE   N12  Gn3
 BYTE   W12
 BYTE   N36  An3
 BYTE   W12
// 041   ----------------------------------------
 BYTE   W24
 BYTE   N12  Cn4
 BYTE   W12
 BYTE   N18  Ds4
 BYTE   W18
 BYTE   As3
 BYTE   W18
 BYTE   N12  Gn3
 BYTE   W12
 BYTE   N18  Ds3
 BYTE   W12
// 042   ----------------------------------------
 BYTE   W06
 BYTE   Fn4
 BYTE   W18
 BYTE   N12  Ds4
 BYTE   W12
 BYTE   N18  Dn4
 BYTE   W18
 BYTE   An3
 BYTE   W18
 BYTE   N12  Gn3
 BYTE   W12
 BYTE   N24  An3
 BYTE   W12
// 043   ----------------------------------------
 BYTE   W96
// 044   ----------------------------------------
 BYTE   W96
// 045   ----------------------------------------
 BYTE   W96
// 046   ----------------------------------------
 BYTE   W96
// 047   ----------------------------------------
 BYTE   W96
// 048   ----------------------------------------
 BYTE   W96
// 049   ----------------------------------------
 BYTE   W36
 BYTE   GoTo
  POIN2 Label_1_0109A325
 BYTE   FINE

//**************** Track 3 (Midi-Chn.2) ****************//

NuclearFusion_003:
// 000   ----------------------------------------
 BYTE   KEYSH   NuclearFusion_key+0
 BYTE   VOICE   13
 BYTE   VOL   34*NuclearFusion_mvl/mxv
 BYTE   PAN   c_v+32
 BYTE   W36
Label_2_0109A47D:
 BYTE   W60
// 001   ----------------------------------------
 BYTE   W96
// 002   ----------------------------------------
 BYTE   W96
// 003   ----------------------------------------
 BYTE   W96
// 004   ----------------------------------------
 BYTE   W96
// 005   ----------------------------------------
 BYTE   W96
// 006   ----------------------------------------
 BYTE   W96
// 007   ----------------------------------------
 BYTE   W96
// 008   ----------------------------------------
 BYTE   W96
// 009   ----------------------------------------
 BYTE   W96
// 010   ----------------------------------------
 BYTE   W96
// 011   ----------------------------------------
 BYTE   W96
// 012   ----------------------------------------
 BYTE   W96
// 013   ----------------------------------------
 BYTE   W96
// 014   ----------------------------------------
 BYTE   W96
// 015   ----------------------------------------
 BYTE   W96
// 016   ----------------------------------------
 BYTE   W96
// 017   ----------------------------------------
 BYTE   W96
// 018   ----------------------------------------
 BYTE   W96
// 019   ----------------------------------------
 BYTE   W96
// 020   ----------------------------------------
 BYTE   W96
// 021   ----------------------------------------
 BYTE   W96
// 022   ----------------------------------------
 BYTE   W96
// 023   ----------------------------------------
 BYTE   W96
// 024   ----------------------------------------
 BYTE   W96
// 025   ----------------------------------------
 BYTE   W96
// 026   ----------------------------------------
 BYTE   W96
// 027   ----------------------------------------
 BYTE   W96
// 028   ----------------------------------------
 BYTE   W96
// 029   ----------------------------------------
 BYTE   W96
// 030   ----------------------------------------
 BYTE   W96
// 031   ----------------------------------------
 BYTE   W96
// 032   ----------------------------------------
 BYTE   W36
 BYTE   N06  Dn3  v120
 BYTE   W06
 BYTE   Gn3
 BYTE   W06
 BYTE   An3
 BYTE   W06
 BYTE   Dn4
 BYTE   W06
 BYTE   Fn4
 BYTE   W06
 BYTE   Dn4
 BYTE   W06
 BYTE   An3
 BYTE   W06
 BYTE   Fn3
 BYTE   W06
 BYTE   Dn3
 BYTE   W12
// 033   ----------------------------------------
Label_2_0109A4B2:
 BYTE   W06
 BYTE   N06  Dn4  v120
 BYTE   W06
 BYTE   Fn4
 BYTE   W06
 BYTE   Dn4
 BYTE   W06
 BYTE   An3
 BYTE   W06
 BYTE   Fn3
 BYTE   W06
 BYTE   Dn3
 BYTE   W06
 BYTE   Gn3
 BYTE   W06
 BYTE   An3
 BYTE   W06
 BYTE   Dn4
 BYTE   W06
 BYTE   Fn4
 BYTE   W06
 BYTE   Dn4
 BYTE   W06
 BYTE   An3
 BYTE   W06
 BYTE   Fn3
 BYTE   W06
 BYTE   Dn3
 BYTE   W12
 BYTE   PEND 
// 034   ----------------------------------------
Label_2_0109A4D2:
 BYTE   W06
 BYTE   N06  Dn4  v120
 BYTE   W06
 BYTE   Fn4
 BYTE   W06
 BYTE   Dn4
 BYTE   W06
 BYTE   An3
 BYTE   W06
 BYTE   Fn3
 BYTE   W06
 BYTE   Cn3
 BYTE   W06
 BYTE   Fn3
 BYTE   W06
 BYTE   Gn3
 BYTE   W06
 BYTE   Cn4
 BYTE   W06
 BYTE   En4
 BYTE   W06
 BYTE   Cn4
 BYTE   W06
 BYTE   Gn3
 BYTE   W06
 BYTE   En3
 BYTE   W06
 BYTE   Cn3
 BYTE   W12
 BYTE   PEND 
// 035   ----------------------------------------
Label_2_0109A4F2:
 BYTE   W06
 BYTE   N06  Cn4  v120
 BYTE   W06
 BYTE   En4
 BYTE   W06
 BYTE   Cn4
 BYTE   W06
 BYTE   Gn3
 BYTE   W06
 BYTE   En3
 BYTE   W06
 BYTE   Cn3
 BYTE   W06
 BYTE   Fn3
 BYTE   W06
 BYTE   Gn3
 BYTE   W06
 BYTE   Cn4
 BYTE   W06
 BYTE   En4
 BYTE   W06
 BYTE   Cn4
 BYTE   W06
 BYTE   Gn3
 BYTE   W06
 BYTE   En3
 BYTE   W06
 BYTE   Cn3
 BYTE   W12
 BYTE   PEND 
// 036   ----------------------------------------
Label_2_0109A512:
 BYTE   W06
 BYTE   N06  Cn4  v120
 BYTE   W06
 BYTE   En4
 BYTE   W06
 BYTE   Cn4
 BYTE   W06
 BYTE   Gn3
 BYTE   W06
 BYTE   En3
 BYTE   W06
 BYTE   As2
 BYTE   W06
 BYTE   Dn3
 BYTE   W06
 BYTE   Fn3
 BYTE   W06
 BYTE   As3
 BYTE   W06
 BYTE   Dn4
 BYTE   W06
 BYTE   As3
 BYTE   W06
 BYTE   Fn3
 BYTE   W06
 BYTE   Dn3
 BYTE   W06
 BYTE   As2
 BYTE   W12
 BYTE   PEND 
// 037   ----------------------------------------
Label_2_0109A532:
 BYTE   W06
 BYTE   N06  As3  v120
 BYTE   W06
 BYTE   Dn4
 BYTE   W06
 BYTE   As3
 BYTE   W06
 BYTE   Fn3
 BYTE   W06
 BYTE   Dn3
 BYTE   W06
 BYTE   As2
 BYTE   W06
 BYTE   Dn3
 BYTE   W06
 BYTE   Fn3
 BYTE   W06
 BYTE   As3
 BYTE   W06
 BYTE   Dn4
 BYTE   W06
 BYTE   As3
 BYTE   W06
 BYTE   Fn3
 BYTE   W06
 BYTE   En3
 BYTE   W06
 BYTE   Dn3
 BYTE   W12
 BYTE   PEND 
// 038   ----------------------------------------
Label_2_0109A552:
 BYTE   W06
 BYTE   N06  Cn4  v120
 BYTE   W06
 BYTE   En4
 BYTE   W06
 BYTE   Cn4
 BYTE   W06
 BYTE   Gn3
 BYTE   W06
 BYTE   En3
 BYTE   W06
 BYTE   Dn3
 BYTE   W06
 BYTE   Gn3
 BYTE   W06
 BYTE   An3
 BYTE   W06
 BYTE   Dn4
 BYTE   W06
 BYTE   Fn4
 BYTE   W06
 BYTE   Dn4
 BYTE   W06
 BYTE   An3
 BYTE   W06
 BYTE   Fn3
 BYTE   W06
 BYTE   Dn3
 BYTE   W12
 BYTE   PEND 
// 039   ----------------------------------------
 BYTE   W06
 BYTE   Dn4
 BYTE   W06
 BYTE   Fn4
 BYTE   W06
 BYTE   Dn4
 BYTE   W06
 BYTE   An3
 BYTE   W06
 BYTE   Fn3
 BYTE   W06
 BYTE   Dn3
 BYTE   W06
 BYTE   Gn3
 BYTE   W06
 BYTE   An3
 BYTE   W06
 BYTE   Dn4
 BYTE   W06
 BYTE   Fn4
 BYTE   W06
 BYTE   Dn4
 BYTE   W06
 BYTE   An3
 BYTE   W06
 BYTE   Fn3
 BYTE   W06
 BYTE   Cn3
 BYTE   W06
 BYTE   Fn3
 BYTE   W06
// 040   ----------------------------------------
 BYTE   Gn3
 BYTE   W06
 BYTE   Cn4
 BYTE   W06
 BYTE   En4
 BYTE   W06
 BYTE   Cn4
 BYTE   W06
 BYTE   Gn3
 BYTE   W06
 BYTE   En3
 BYTE   W06
 BYTE   Dn3
 BYTE   W06
 BYTE   Gn3
 BYTE   W06
 BYTE   An3
 BYTE   W06
 BYTE   Dn4
 BYTE   W06
 BYTE   Fn4
 BYTE   W06
 BYTE   Dn4
 BYTE   W06
 BYTE   An3
 BYTE   W06
 BYTE   Fn3
 BYTE   W06
 BYTE   Dn3
 BYTE   W12
 BYTE   PATT
  POIN2 Label_2_0109A4B2
 BYTE   PATT
  POIN2 Label_2_0109A4D2
 BYTE   PATT
  POIN2 Label_2_0109A4F2
 BYTE   PATT
  POIN2 Label_2_0109A512
 BYTE   PATT
  POIN2 Label_2_0109A532
 BYTE   PATT
  POIN2 Label_2_0109A552
// 041   ----------------------------------------
 BYTE   W06
 BYTE   N06  Dn4  v120
 BYTE   W06
 BYTE   Fn4
 BYTE   W06
 BYTE   Dn4
 BYTE   W06
 BYTE   An3
 BYTE   W06
 BYTE   Fn3
 BYTE   W06
 BYTE   Dn3
 BYTE   W06
 BYTE   Gn3
 BYTE   W06
 BYTE   An3
 BYTE   W06
 BYTE   Dn4
 BYTE   W06
 BYTE   Fn4
 BYTE   W06
 BYTE   Dn4
 BYTE   W06
 BYTE   An3
 BYTE   W06
 BYTE   Fn3
 BYTE   W06
 BYTE   Dn3
 BYTE   W06
 BYTE   N06
 BYTE   W06
// 042   ----------------------------------------
 BYTE   N06
 BYTE   W06
 BYTE   N06
 BYTE   W06
 BYTE   N06
 BYTE   W24
 BYTE   Gs0
 BYTE   W18
 BYTE   Bn0
 BYTE   W18
 BYTE   Gn1
 BYTE   W12
 BYTE   Gs0
 BYTE   W12
// 043   ----------------------------------------
Label_2_0109A5FC:
 BYTE   W06
 BYTE   N06  Bn0  v120
 BYTE   W18
 BYTE   Gn1
 BYTE   W12
 BYTE   Fn0
 BYTE   W18
 BYTE   As0
 BYTE   W18
 BYTE   En1
 BYTE   W12
 BYTE   Fn0
 BYTE   W12
 BYTE   PEND 
// 044   ----------------------------------------
 BYTE   N06
 BYTE   W06
 BYTE   As0
 BYTE   W12
 BYTE   N06
 BYTE   W06
 BYTE   En1
 BYTE   W12
 BYTE   Gs0
 BYTE   W18
 BYTE   Bn0
 BYTE   W18
 BYTE   Gn1
 BYTE   W12
 BYTE   Gs0
 BYTE   W12
 BYTE   PATT
  POIN2 Label_2_0109A5FC
// 045   ----------------------------------------
 BYTE   W96
// 046   ----------------------------------------
 BYTE   W96
// 047   ----------------------------------------
 BYTE   W96
// 048   ----------------------------------------
 BYTE   W96
// 049   ----------------------------------------
 BYTE   W96
// 050   ----------------------------------------
 BYTE   W96
// 051   ----------------------------------------
 BYTE   W36
 BYTE   GoTo
  POIN2 Label_2_0109A47D
 BYTE   FINE

//**************** Track 4 (Midi-Chn.3) ****************//

NuclearFusion_004:
// 000   ----------------------------------------
 BYTE   KEYSH   NuclearFusion_key+0
 BYTE   VOICE   48
 BYTE   VOL   42*NuclearFusion_mvl/mxv
 BYTE   PAN   c_v+32
 BYTE   VOL   42*NuclearFusion_mvl/mxv
 BYTE   PAN   c_v+32
 BYTE   W36
Label_3_0109A63D:
 BYTE   N48  An3  v120
 BYTE   W48
 BYTE   Cn4
 BYTE   W12
// 001   ----------------------------------------
Label_3_0109A643:
 BYTE   W36
 BYTE   N48  Bn3  v120
 BYTE   W48
 BYTE   Gn3
 BYTE   W12
 BYTE   PEND 
// 002   ----------------------------------------
Label_3_0109A64B:
 BYTE   W36
 BYTE   N48  An3  v120
 BYTE   W48
 BYTE   Bn3
 BYTE   W12
 BYTE   PEND 
// 003   ----------------------------------------
Label_3_0109A653:
 BYTE   W36
 BYTE   N48  Cn4  v120
 BYTE   W48
 BYTE   Bn3
 BYTE   W12
 BYTE   PEND 
// 004   ----------------------------------------
Label_3_0109A65B:
 BYTE   W36
 BYTE   N24  An3  v120
 BYTE   W36
 BYTE   Bn3
 BYTE   W24
 BYTE   PEND 
// 005   ----------------------------------------
Label_3_0109A663:
 BYTE   W12
 BYTE   N24  Cn4  v120
 BYTE   W36
 BYTE   Bn3
 BYTE   W36
 BYTE   An3
 BYTE   W12
 BYTE   PEND 
// 006   ----------------------------------------
Label_3_0109A66D:
 BYTE   W12
 BYTE   N24  Dn3  v120
 BYTE   W24
 BYTE   N12  Fn3
 BYTE   W12
 BYTE   Gn3
 BYTE   W12
 BYTE   Fn3
 BYTE   W12
 BYTE   TIE  En3
 BYTE   W24
 BYTE   PEND 
// 007   ----------------------------------------
 BYTE   W84
 BYTE   EOT
 BYTE   N12
 BYTE   W12
// 008   ----------------------------------------
Label_3_0109A681:
 BYTE   N12  Fn3  v120
 BYTE   W12
 BYTE   En3
 BYTE   W12
 BYTE   Cn3
 BYTE   W12
 BYTE   N48  As2
 BYTE   W48
 BYTE   Cn3
 BYTE   W12
 BYTE   PEND 
// 009   ----------------------------------------
Label_3_0109A68F:
 BYTE   W36
 BYTE   N48  Dn3  v120
 BYTE   W48
 BYTE   Cn3
 BYTE   W12
 BYTE   PEND 
// 010   ----------------------------------------
Label_3_0109A697:
 BYTE   W36
 BYTE   N48  As2  v120
 BYTE   W48
 BYTE   Cn3
 BYTE   W12
 BYTE   PEND 
// 011   ----------------------------------------
Label_3_0109A69F:
 BYTE   W36
 BYTE   N48  Fn3  v120
 BYTE   W48
 BYTE   En3
 BYTE   W12
 BYTE   PEND 
// 012   ----------------------------------------
Label_3_0109A6A7:
 BYTE   W36
 BYTE   N24  Dn3  v120
 BYTE   W36
 BYTE   En3
 BYTE   W24
 BYTE   PEND 
// 013   ----------------------------------------
Label_3_0109A6AF:
 BYTE   W12
 BYTE   N24  Fn3  v120
 BYTE   W36
 BYTE   As3
 BYTE   W36
 BYTE   An3
 BYTE   W12
 BYTE   PEND 
// 014   ----------------------------------------
Label_3_0109A6B9:
 BYTE   W12
 BYTE   N24  En3  v120
 BYTE   W24
 BYTE   N12  Fn3
 BYTE   W12
 BYTE   Gn3
 BYTE   W12
 BYTE   Fn3
 BYTE   W12
 BYTE   TIE  Dn3
 BYTE   W24
 BYTE   PEND 
// 015   ----------------------------------------
 BYTE   W84
 BYTE   EOT
 BYTE   N24  Fn3
 BYTE   W12
// 016   ----------------------------------------
 BYTE   W12
 BYTE   Gn3
 BYTE   W24
 BYTE   N48  An3
 BYTE   W48
 BYTE   Cn4
 BYTE   W12
 BYTE   PATT
  POIN2 Label_3_0109A643
 BYTE   PATT
  POIN2 Label_3_0109A64B
 BYTE   PATT
  POIN2 Label_3_0109A653
 BYTE   PATT
  POIN2 Label_3_0109A65B
 BYTE   PATT
  POIN2 Label_3_0109A663
 BYTE   PATT
  POIN2 Label_3_0109A66D
// 017   ----------------------------------------
 BYTE   W84
 BYTE   EOT
 BYTE   En3
 BYTE   N12  En3  v120
 BYTE   W12
 BYTE   PATT
  POIN2 Label_3_0109A681
 BYTE   PATT
  POIN2 Label_3_0109A68F
 BYTE   PATT
  POIN2 Label_3_0109A697
 BYTE   PATT
  POIN2 Label_3_0109A69F
 BYTE   PATT
  POIN2 Label_3_0109A6A7
 BYTE   PATT
  POIN2 Label_3_0109A6AF
 BYTE   PATT
  POIN2 Label_3_0109A6B9
// 018   ----------------------------------------
 BYTE   W84
 BYTE   EOT
 BYTE   Dn3
 BYTE   N24  Fn3  v120
 BYTE   W12
// 019   ----------------------------------------
 BYTE   W12
 BYTE   En3
 BYTE   W24
 BYTE   N18  Fn3
 BYTE   W18
 BYTE   Gn3
 BYTE   W18
 BYTE   N12  An3
 BYTE   W12
 BYTE   Fn3
 BYTE   W12
// 020   ----------------------------------------
Label_3_0109A732:
 BYTE   W24
 BYTE   N06  Fn3  v120
 BYTE   W06
 BYTE   Gn3
 BYTE   W06
 BYTE   N18  An3
 BYTE   W18
 BYTE   As3
 BYTE   W18
 BYTE   N12  Cn4
 BYTE   W12
 BYTE   N18  An3
 BYTE   W12
 BYTE   PEND 
// 021   ----------------------------------------
Label_3_0109A745:
 BYTE   W06
 BYTE   N18  Fn3  v120
 BYTE   W18
 BYTE   N12  An3
 BYTE   W12
 BYTE   N84  Gn3
 BYTE   W60
 BYTE   PEND 
// 022   ----------------------------------------
Label_3_0109A751:
 BYTE   W24
 BYTE   N12  Gn3  v120
 BYTE   W12
 BYTE   N96  Cn4
 BYTE   W60
 BYTE   PEND 
// 023   ----------------------------------------
Label_3_0109A75A:
 BYTE   W36
 BYTE   N18  As3  v120
 BYTE   W18
 BYTE   Cn4
 BYTE   W18
 BYTE   N12  Dn4
 BYTE   W12
 BYTE   As3
 BYTE   W12
 BYTE   PEND 
// 024   ----------------------------------------
Label_3_0109A767:
 BYTE   W24
 BYTE   N06  Dn4  v120
 BYTE   W06
 BYTE   En4
 BYTE   W06
 BYTE   N18  Fn4
 BYTE   W18
 BYTE   Gn4
 BYTE   W18
 BYTE   N12  An4
 BYTE   W12
 BYTE   N18  As4
 BYTE   W12
 BYTE   PEND 
// 025   ----------------------------------------
 BYTE   W06
 BYTE   An4
 BYTE   W18
 BYTE   N12  Gn4
 BYTE   W12
 BYTE   N84  Fn4
 BYTE   W60
// 026   ----------------------------------------
 BYTE   W24
 BYTE   N06
 BYTE   W06
 BYTE   En4
 BYTE   W06
 BYTE   N96  Cn4
 BYTE   W60
// 027   ----------------------------------------
 BYTE   W36
 BYTE   N18  Fn3
 BYTE   W18
 BYTE   Gn3
 BYTE   W18
 BYTE   N12  An3
 BYTE   W12
 BYTE   Fn3
 BYTE   W12
 BYTE   PATT
  POIN2 Label_3_0109A732
 BYTE   PATT
  POIN2 Label_3_0109A745
 BYTE   PATT
  POIN2 Label_3_0109A751
 BYTE   PATT
  POIN2 Label_3_0109A75A
 BYTE   PATT
  POIN2 Label_3_0109A767
// 028   ----------------------------------------
 BYTE   W06
 BYTE   N18  An4  v120
 BYTE   W18
 BYTE   N12  Gn4
 BYTE   W12
 BYTE   N36  Fn4
 BYTE   W36
 BYTE   En4
 BYTE   W24
// 029   ----------------------------------------
 BYTE   W12
 BYTE   Gn4
 BYTE   W36
 BYTE   En4
 BYTE   W36
 BYTE   N24  Fn4
 BYTE   W12
// 030   ----------------------------------------
 BYTE   W12
 BYTE   N06  Dn4
 BYTE   W84
// 031   ----------------------------------------
 BYTE   W96
// 032   ----------------------------------------
 BYTE   W96
// 033   ----------------------------------------
 BYTE   W96
// 034   ----------------------------------------
 BYTE   W06
 BYTE   N18
 BYTE   W18
 BYTE   N12  Cn4
 BYTE   N12  En4
 BYTE   W12
 BYTE   N78  As3
 BYTE   N78  Fn4
 BYTE   W60
// 035   ----------------------------------------
 BYTE   W24
 BYTE   N12  As3
 BYTE   N12  Fn4
 BYTE   W12
 BYTE   N24  Cn4
 BYTE   N24  Gn4
 BYTE   W24
 BYTE   Gn3
 BYTE   N24  En4
 BYTE   W24
 BYTE   N36  En3
 BYTE   N36  Cn4
 BYTE   W12
// 036   ----------------------------------------
 BYTE   W24
 BYTE   N12  Gn3
 BYTE   N12  Dn4
 BYTE   W12
 BYTE   N78
 BYTE   N84  An4
 BYTE   W60
// 037   ----------------------------------------
 BYTE   W24
 BYTE   N12  Dn4
 BYTE   N12  An4
 BYTE   W12
 BYTE   N24  En4
 BYTE   N24  Bn4
 BYTE   W24
 BYTE   Bn3
 BYTE   N24  Gn4
 BYTE   W24
 BYTE   N18  Gn3
 BYTE   N36  En4
 BYTE   W12
// 038   ----------------------------------------
 BYTE   W06
 BYTE   N18  En3
 BYTE   W18
 BYTE   N12  Bn3
 BYTE   N12  Fs4
 BYTE   W12
 BYTE   TIE  As3
 BYTE   TIE  Fs4
 BYTE   W60
// 039   ----------------------------------------
 BYTE   W96
// 040   ----------------------------------------
 BYTE   W36
 BYTE   EOT
 BYTE   As3  v078
 BYTE   GoTo
  POIN2 Label_3_0109A63D
 BYTE   FINE

//**************** Track 5 (Midi-Chn.4) ****************//

NuclearFusion_005:
// 000   ----------------------------------------
 BYTE   KEYSH   NuclearFusion_key+0
 BYTE   VOICE   75
 BYTE   VOL   45*NuclearFusion_mvl/mxv
 BYTE   PAN   c_v-32
 BYTE   W36
Label_4_0109A82D:
 BYTE   W60
// 001   ----------------------------------------
 BYTE   W96
// 002   ----------------------------------------
 BYTE   W96
// 003   ----------------------------------------
 BYTE   W96
// 004   ----------------------------------------
 BYTE   W96
// 005   ----------------------------------------
 BYTE   W96
// 006   ----------------------------------------
 BYTE   W96
// 007   ----------------------------------------
 BYTE   W96
// 008   ----------------------------------------
 BYTE   W96
// 009   ----------------------------------------
 BYTE   W96
// 010   ----------------------------------------
 BYTE   W96
// 011   ----------------------------------------
 BYTE   W96
// 012   ----------------------------------------
 BYTE   W96
// 013   ----------------------------------------
 BYTE   W96
// 014   ----------------------------------------
 BYTE   W96
// 015   ----------------------------------------
 BYTE   W96
// 016   ----------------------------------------
 BYTE   W96
// 017   ----------------------------------------
 BYTE   W96
// 018   ----------------------------------------
 BYTE   W96
// 019   ----------------------------------------
 BYTE   W96
// 020   ----------------------------------------
 BYTE   W96
// 021   ----------------------------------------
 BYTE   W96
// 022   ----------------------------------------
 BYTE   W96
// 023   ----------------------------------------
 BYTE   W96
// 024   ----------------------------------------
 BYTE   W96
// 025   ----------------------------------------
 BYTE   W96
// 026   ----------------------------------------
 BYTE   W96
// 027   ----------------------------------------
 BYTE   W96
// 028   ----------------------------------------
 BYTE   W96
// 029   ----------------------------------------
 BYTE   W96
// 030   ----------------------------------------
 BYTE   W96
// 031   ----------------------------------------
 BYTE   W96
// 032   ----------------------------------------
 BYTE   W96
// 033   ----------------------------------------
 BYTE   W96
// 034   ----------------------------------------
 BYTE   W96
// 035   ----------------------------------------
 BYTE   W96
// 036   ----------------------------------------
 BYTE   W96
// 037   ----------------------------------------
 BYTE   W96
// 038   ----------------------------------------
 BYTE   W96
// 039   ----------------------------------------
 BYTE   W96
// 040   ----------------------------------------
 BYTE   W96
// 041   ----------------------------------------
 BYTE   W96
// 042   ----------------------------------------
 BYTE   W96
// 043   ----------------------------------------
 BYTE   W96
// 044   ----------------------------------------
 BYTE   W96
// 045   ----------------------------------------
 BYTE   W96
// 046   ----------------------------------------
 BYTE   W96
// 047   ----------------------------------------
 BYTE   W96
// 048   ----------------------------------------
 BYTE   W36
 BYTE   N18  As3  v120
 BYTE   W18
 BYTE   Gn3
 BYTE   W18
 BYTE   N12  Ds3
 BYTE   W12
 BYTE   N18  As2
 BYTE   W12
// 049   ----------------------------------------
 BYTE   W06
 BYTE   Ds3
 BYTE   W18
 BYTE   N12  As3
 BYTE   W12
 BYTE   N18  An3
 BYTE   W18
 BYTE   Fs3
 BYTE   W18
 BYTE   N12  En3
 BYTE   W12
 BYTE   N36  Fs3
 BYTE   W12
// 050   ----------------------------------------
 BYTE   W24
 BYTE   N12  Gn3
 BYTE   W12
 BYTE   N18  As3
 BYTE   W18
 BYTE   Gn3
 BYTE   W18
 BYTE   N12  Ds3
 BYTE   W12
 BYTE   N18  As2
 BYTE   W12
// 051   ----------------------------------------
 BYTE   W06
 BYTE   Cn4
 BYTE   W18
 BYTE   N12  As3
 BYTE   W12
 BYTE   N18  An3
 BYTE   W18
 BYTE   Fs3
 BYTE   W18
 BYTE   N12  En3
 BYTE   W12
 BYTE   N24  Fs3
 BYTE   W12
// 052   ----------------------------------------
 BYTE   W96
// 053   ----------------------------------------
 BYTE   W96
// 054   ----------------------------------------
 BYTE   W96
// 055   ----------------------------------------
 BYTE   W96
// 056   ----------------------------------------
 BYTE   W96
// 057   ----------------------------------------
 BYTE   W96
// 058   ----------------------------------------
 BYTE   W36
 BYTE   GoTo
  POIN2 Label_4_0109A82D
 BYTE   FINE

//**************** Track 6 (Midi-Chn.5) ****************//

NuclearFusion_006:
// 000   ----------------------------------------
 BYTE   KEYSH   NuclearFusion_key+0
 BYTE   VOICE   48
 BYTE   VOL   42*NuclearFusion_mvl/mxv
 BYTE   PAN   c_v-32
 BYTE   W36
Label_5_0109A8B1:
 BYTE   N48  Fn3  v120
 BYTE   W48
 BYTE   An3
 BYTE   W12
// 001   ----------------------------------------
Label_5_0109A8B7:
 BYTE   W36
 BYTE   N48  Gn3  v120
 BYTE   W48
 BYTE   En3
 BYTE   W12
 BYTE   PEND 
// 002   ----------------------------------------
Label_5_0109A8BF:
 BYTE   W36
 BYTE   N48  Fn3  v120
 BYTE   W48
 BYTE   Gn3
 BYTE   W12
 BYTE   PEND 
// 003   ----------------------------------------
Label_5_0109A8C7:
 BYTE   W36
 BYTE   N48  An3  v120
 BYTE   W48
 BYTE   Gn3
 BYTE   W12
 BYTE   PEND 
// 004   ----------------------------------------
Label_5_0109A8CF:
 BYTE   W36
 BYTE   N24  Fn3  v120
 BYTE   W36
 BYTE   Gn3
 BYTE   W24
 BYTE   PEND 
// 005   ----------------------------------------
Label_5_0109A8D7:
 BYTE   W12
 BYTE   N24  An3  v120
 BYTE   W36
 BYTE   Gn3
 BYTE   W36
 BYTE   Fn3
 BYTE   W12
 BYTE   PEND 
// 006   ----------------------------------------
Label_5_0109A8E1:
 BYTE   W12
 BYTE   N24  An2  v120
 BYTE   W24
 BYTE   N36  Cn3
 BYTE   W36
 BYTE   Dn3
 BYTE   W24
 BYTE   PEND 
// 007   ----------------------------------------
Label_5_0109A8EC:
 BYTE   W12
 BYTE   N36  Cn3  v120
 BYTE   W36
 BYTE   Dn3
 BYTE   W36
 BYTE   N12  Cn3
 BYTE   W12
 BYTE   PEND 
// 008   ----------------------------------------
Label_5_0109A8F7:
 BYTE   N12  Dn3  v120
 BYTE   W12
 BYTE   Cn3
 BYTE   W12
 BYTE   Gn2
 BYTE   W12
 BYTE   N48
 BYTE   W48
 BYTE   An2
 BYTE   W12
 BYTE   PEND 
// 009   ----------------------------------------
Label_5_0109A904:
 BYTE   W36
 BYTE   N48  As2  v120
 BYTE   W48
 BYTE   An2
 BYTE   W12
 BYTE   PEND 
// 010   ----------------------------------------
Label_5_0109A90C:
 BYTE   W36
 BYTE   N48  Gn2  v120
 BYTE   W48
 BYTE   An2
 BYTE   W12
 BYTE   PEND 
// 011   ----------------------------------------
Label_5_0109A914:
 BYTE   W36
 BYTE   N48  Dn3  v120
 BYTE   W48
 BYTE   Cn3
 BYTE   W12
 BYTE   PEND 
// 012   ----------------------------------------
Label_5_0109A91C:
 BYTE   W36
 BYTE   N24  As2  v120
 BYTE   W36
 BYTE   Cn3
 BYTE   W24
 BYTE   PEND 
// 013   ----------------------------------------
Label_5_0109A924:
 BYTE   W12
 BYTE   N24  Dn3  v120
 BYTE   W36
 BYTE   Fn3
 BYTE   W36
 BYTE   En3
 BYTE   W12
 BYTE   PEND 
// 014   ----------------------------------------
Label_5_0109A92E:
 BYTE   W12
 BYTE   N24  Cn3  v120
 BYTE   W24
 BYTE   N36  Dn3
 BYTE   W36
 BYTE   An2
 BYTE   W24
 BYTE   PEND 
// 015   ----------------------------------------
Label_5_0109A939:
 BYTE   W12
 BYTE   N36  Gn2  v120
 BYTE   W36
 BYTE   An2
 BYTE   W36
 BYTE   N24  Dn3
 BYTE   W12
 BYTE   PEND 
// 016   ----------------------------------------
 BYTE   W12
 BYTE   En3
 BYTE   W24
 BYTE   N48  Fn3
 BYTE   W48
 BYTE   An3
 BYTE   W12
 BYTE   PATT
  POIN2 Label_5_0109A8B7
 BYTE   PATT
  POIN2 Label_5_0109A8BF
 BYTE   PATT
  POIN2 Label_5_0109A8C7
 BYTE   PATT
  POIN2 Label_5_0109A8CF
 BYTE   PATT
  POIN2 Label_5_0109A8D7
 BYTE   PATT
  POIN2 Label_5_0109A8E1
 BYTE   PATT
  POIN2 Label_5_0109A8EC
 BYTE   PATT
  POIN2 Label_5_0109A8F7
 BYTE   PATT
  POIN2 Label_5_0109A904
 BYTE   PATT
  POIN2 Label_5_0109A90C
 BYTE   PATT
  POIN2 Label_5_0109A914
 BYTE   PATT
  POIN2 Label_5_0109A91C
 BYTE   PATT
  POIN2 Label_5_0109A924
 BYTE   PATT
  POIN2 Label_5_0109A92E
 BYTE   PATT
  POIN2 Label_5_0109A939
// 017   ----------------------------------------
 BYTE   W12
 BYTE   N24  Cn3  v120
 BYTE   W24
 BYTE   N18  Fn2
 BYTE   W18
 BYTE   Gn2
 BYTE   W18
 BYTE   N12  An2
 BYTE   W12
 BYTE   Fn2
 BYTE   W12
// 018   ----------------------------------------
Label_5_0109A9A6:
 BYTE   W24
 BYTE   N06  Dn3  v120
 BYTE   W06
 BYTE   En3
 BYTE   W06
 BYTE   N18  Fn3
 BYTE   W18
 BYTE   Gn3
 BYTE   W18
 BYTE   N12  An3
 BYTE   W12
 BYTE   N18  Fn3
 BYTE   W12
 BYTE   PEND 
// 019   ----------------------------------------
Label_5_0109A9B9:
 BYTE   W06
 BYTE   N18  Dn3  v120
 BYTE   W18
 BYTE   N12  Fn3
 BYTE   W12
 BYTE   N84  En3
 BYTE   W60
 BYTE   PEND 
// 020   ----------------------------------------
Label_5_0109A9C5:
 BYTE   W24
 BYTE   N12  En3  v120
 BYTE   W12
 BYTE   N96  Gn3
 BYTE   W60
 BYTE   PEND 
// 021   ----------------------------------------
Label_5_0109A9CE:
 BYTE   W36
 BYTE   N18  As2  v120
 BYTE   W18
 BYTE   Cn3
 BYTE   W18
 BYTE   N12  Dn3
 BYTE   W12
 BYTE   As2
 BYTE   W12
 BYTE   PEND 
// 022   ----------------------------------------
Label_5_0109A9DB:
 BYTE   W24
 BYTE   N06  As3  v120
 BYTE   W06
 BYTE   Cn4
 BYTE   W06
 BYTE   N18  Dn4
 BYTE   W18
 BYTE   En4
 BYTE   W18
 BYTE   N12  Fn4
 BYTE   W12
 BYTE   N18  Gn4
 BYTE   W12
 BYTE   PEND 
// 023   ----------------------------------------
 BYTE   W06
 BYTE   Fn4
 BYTE   W18
 BYTE   N12  En4
 BYTE   W12
 BYTE   N84  Dn4
 BYTE   W60
// 024   ----------------------------------------
 BYTE   W24
 BYTE   N06
 BYTE   W06
 BYTE   Cn4
 BYTE   W06
 BYTE   N24  Gn3
 BYTE   W24
 BYTE   An3
 BYTE   W24
 BYTE   N12  Gn3
 BYTE   W12
// 025   ----------------------------------------
 BYTE   Fn3
 BYTE   W12
 BYTE   N24  En3
 BYTE   W24
 BYTE   N18  Fn2
 BYTE   W18
 BYTE   Gn2
 BYTE   W18
 BYTE   N12  An2
 BYTE   W12
 BYTE   Fn2
 BYTE   W12
 BYTE   PATT
  POIN2 Label_5_0109A9A6
 BYTE   PATT
  POIN2 Label_5_0109A9B9
 BYTE   PATT
  POIN2 Label_5_0109A9C5
 BYTE   PATT
  POIN2 Label_5_0109A9CE
 BYTE   PATT
  POIN2 Label_5_0109A9DB
// 026   ----------------------------------------
 BYTE   W06
 BYTE   N18  Fn4  v120
 BYTE   W18
 BYTE   N12  En4
 BYTE   W12
 BYTE   TIE  Dn4
 BYTE   W60
// 027   ----------------------------------------
 BYTE   W84
 BYTE   EOT
 BYTE   N24
 BYTE   W12
// 028   ----------------------------------------
 BYTE   W12
 BYTE   N06  An3
 BYTE   W84
// 029   ----------------------------------------
 BYTE   W96
// 030   ----------------------------------------
 BYTE   W96
// 031   ----------------------------------------
 BYTE   W96
// 032   ----------------------------------------
 BYTE   W36
 BYTE   N72  Dn4
 BYTE   W60
// 033   ----------------------------------------
 BYTE   W24
 BYTE   N12
 BYTE   W12
 BYTE   N24  En4
 BYTE   W24
 BYTE   Cn4
 BYTE   W24
 BYTE   N36  Gn3
 BYTE   W12
// 034   ----------------------------------------
 BYTE   W24
 BYTE   N12  An3
 BYTE   W12
 BYTE   N84  Fs4
 BYTE   W60
// 035   ----------------------------------------
 BYTE   W24
 BYTE   N12
 BYTE   W12
 BYTE   N24  Gs4
 BYTE   W24
 BYTE   En4
 BYTE   W24
 BYTE   N36  Bn3
 BYTE   W12
// 036   ----------------------------------------
 BYTE   W24
 BYTE   N12  Cs4
 BYTE   W12
 BYTE   TIE
 BYTE   W60
// 037   ----------------------------------------
 BYTE   W96
// 038   ----------------------------------------
 BYTE   W36
 BYTE   EOT
 BYTE   GoTo
  POIN2 Label_5_0109A8B1
 BYTE   FINE

//**************** Track 7 (Midi-Chn.6) ****************//

NuclearFusion_007:
// 000   ----------------------------------------
 BYTE   KEYSH   NuclearFusion_key+0
 BYTE   VOICE   13
 BYTE   VOL   34*NuclearFusion_mvl/mxv
 BYTE   PAN   c_v+0
 BYTE   W36
Label_6_0109AA7D:
 BYTE   W60
// 001   ----------------------------------------
 BYTE   W96
// 002   ----------------------------------------
 BYTE   W96
// 003   ----------------------------------------
 BYTE   W96
// 004   ----------------------------------------
 BYTE   W96
// 005   ----------------------------------------
 BYTE   W96
// 006   ----------------------------------------
 BYTE   W96
// 007   ----------------------------------------
 BYTE   W96
// 008   ----------------------------------------
 BYTE   W96
// 009   ----------------------------------------
 BYTE   W96
// 010   ----------------------------------------
 BYTE   W96
// 011   ----------------------------------------
 BYTE   W96
// 012   ----------------------------------------
 BYTE   W96
// 013   ----------------------------------------
 BYTE   W96
// 014   ----------------------------------------
 BYTE   W96
// 015   ----------------------------------------
 BYTE   W96
// 016   ----------------------------------------
 BYTE   W96
// 017   ----------------------------------------
 BYTE   W96
// 018   ----------------------------------------
 BYTE   W96
// 019   ----------------------------------------
 BYTE   W96
// 020   ----------------------------------------
 BYTE   W96
// 021   ----------------------------------------
 BYTE   W96
// 022   ----------------------------------------
 BYTE   W96
// 023   ----------------------------------------
 BYTE   W96
// 024   ----------------------------------------
 BYTE   W96
// 025   ----------------------------------------
 BYTE   W96
// 026   ----------------------------------------
 BYTE   W96
// 027   ----------------------------------------
 BYTE   W96
// 028   ----------------------------------------
 BYTE   W96
// 029   ----------------------------------------
 BYTE   W96
// 030   ----------------------------------------
 BYTE   W96
// 031   ----------------------------------------
 BYTE   W96
// 032   ----------------------------------------
 BYTE   W96
// 033   ----------------------------------------
 BYTE   W96
// 034   ----------------------------------------
 BYTE   W96
// 035   ----------------------------------------
 BYTE   W96
// 036   ----------------------------------------
 BYTE   W96
// 037   ----------------------------------------
 BYTE   W96
// 038   ----------------------------------------
 BYTE   W96
// 039   ----------------------------------------
 BYTE   W96
// 040   ----------------------------------------
 BYTE   W96
// 041   ----------------------------------------
 BYTE   W96
// 042   ----------------------------------------
 BYTE   W96
// 043   ----------------------------------------
 BYTE   W96
// 044   ----------------------------------------
 BYTE   W96
// 045   ----------------------------------------
 BYTE   W96
// 046   ----------------------------------------
 BYTE   W96
// 047   ----------------------------------------
 BYTE   W96
// 048   ----------------------------------------
 BYTE   W36
 BYTE   N06  Dn2  v100
 BYTE   W18
 BYTE   Gn2
 BYTE   W18
 BYTE   As2
 BYTE   W12
 BYTE   Dn2
 BYTE   W12
// 049   ----------------------------------------
Label_6_0109AAB8:
 BYTE   W06
 BYTE   N06  Gn2  v100
 BYTE   W18
 BYTE   As2
 BYTE   W12
 BYTE   Cn2
 BYTE   W18
 BYTE   Fn2
 BYTE   W18
 BYTE   An2
 BYTE   W12
 BYTE   Cn2
 BYTE   W12
 BYTE   PEND 
// 050   ----------------------------------------
 BYTE   N06
 BYTE   W06
 BYTE   Dn2
 BYTE   W12
 BYTE   N06
 BYTE   W06
 BYTE   An2
 BYTE   W12
 BYTE   Dn2
 BYTE   W18
 BYTE   Gn2
 BYTE   W18
 BYTE   As2
 BYTE   W12
 BYTE   Dn2
 BYTE   W12
 BYTE   PATT
  POIN2 Label_6_0109AAB8
// 051   ----------------------------------------
 BYTE   W96
// 052   ----------------------------------------
 BYTE   W96
// 053   ----------------------------------------
 BYTE   W96
// 054   ----------------------------------------
 BYTE   W96
// 055   ----------------------------------------
 BYTE   W96
// 056   ----------------------------------------
 BYTE   W96
// 057   ----------------------------------------
 BYTE   W36
 BYTE   GoTo
  POIN2 Label_6_0109AA7D
 BYTE   FINE

//**************** Track 8 (Midi-Chn.7) ****************//

NuclearFusion_008:
// 000   ----------------------------------------
 BYTE   KEYSH   NuclearFusion_key+0
 BYTE   VOICE   40
 BYTE   VOL   26*NuclearFusion_mvl/mxv
 BYTE   PAN   c_v-32
 BYTE   W36
Label_7_0109AAF5:
 BYTE   N48  Fn3  v120
 BYTE   W48
 BYTE   An3
 BYTE   W12
// 001   ----------------------------------------
Label_7_0109AAFB:
 BYTE   W36
 BYTE   N48  Gn3  v120
 BYTE   W48
 BYTE   En3
 BYTE   W12
 BYTE   PEND 
// 002   ----------------------------------------
Label_7_0109AB03:
 BYTE   W36
 BYTE   N48  Fn3  v120
 BYTE   W48
 BYTE   Gn3
 BYTE   W12
 BYTE   PEND 
// 003   ----------------------------------------
Label_7_0109AB0B:
 BYTE   W36
 BYTE   N48  An3  v120
 BYTE   W48
 BYTE   Gn3
 BYTE   W12
 BYTE   PEND 
// 004   ----------------------------------------
Label_7_0109AB13:
 BYTE   W36
 BYTE   N24  Fn3  v120
 BYTE   W36
 BYTE   Gn3
 BYTE   W24
 BYTE   PEND 
// 005   ----------------------------------------
Label_7_0109AB1B:
 BYTE   W12
 BYTE   N24  An3  v120
 BYTE   W36
 BYTE   Gn3
 BYTE   W36
 BYTE   Fn3
 BYTE   W12
 BYTE   PEND 
// 006   ----------------------------------------
Label_7_0109AB25:
 BYTE   W12
 BYTE   N24  An2  v120
 BYTE   W24
 BYTE   N36  Cn3
 BYTE   W36
 BYTE   Dn3
 BYTE   W24
 BYTE   PEND 
// 007   ----------------------------------------
Label_7_0109AB30:
 BYTE   W12
 BYTE   N36  Cn3  v120
 BYTE   W36
 BYTE   Dn3
 BYTE   W36
 BYTE   N12  Cn3
 BYTE   W12
 BYTE   PEND 
// 008   ----------------------------------------
Label_7_0109AB3B:
 BYTE   N12  Dn3  v120
 BYTE   W12
 BYTE   Cn3
 BYTE   W12
 BYTE   Gn2
 BYTE   W12
 BYTE   N48
 BYTE   W48
 BYTE   An2
 BYTE   W12
 BYTE   PEND 
// 009   ----------------------------------------
Label_7_0109AB48:
 BYTE   W36
 BYTE   N48  As2  v120
 BYTE   W48
 BYTE   An2
 BYTE   W12
 BYTE   PEND 
// 010   ----------------------------------------
Label_7_0109AB50:
 BYTE   W36
 BYTE   N48  Gn2  v120
 BYTE   W48
 BYTE   An2
 BYTE   W12
 BYTE   PEND 
// 011   ----------------------------------------
Label_7_0109AB58:
 BYTE   W36
 BYTE   N48  Dn3  v120
 BYTE   W48
 BYTE   Cn3
 BYTE   W12
 BYTE   PEND 
// 012   ----------------------------------------
Label_7_0109AB60:
 BYTE   W36
 BYTE   N24  As2  v120
 BYTE   W36
 BYTE   Cn3
 BYTE   W24
 BYTE   PEND 
// 013   ----------------------------------------
Label_7_0109AB68:
 BYTE   W12
 BYTE   N24  Dn3  v120
 BYTE   W36
 BYTE   Fn3
 BYTE   W36
 BYTE   En3
 BYTE   W12
 BYTE   PEND 
// 014   ----------------------------------------
Label_7_0109AB72:
 BYTE   W12
 BYTE   N24  Cn3  v120
 BYTE   W24
 BYTE   N36  Dn3
 BYTE   W36
 BYTE   An2
 BYTE   W24
 BYTE   PEND 
// 015   ----------------------------------------
Label_7_0109AB7D:
 BYTE   W12
 BYTE   N36  Gn2  v120
 BYTE   W36
 BYTE   An2
 BYTE   W36
 BYTE   N24  Dn3
 BYTE   W12
 BYTE   PEND 
// 016   ----------------------------------------
 BYTE   W12
 BYTE   En3
 BYTE   W24
 BYTE   N48  Fn3
 BYTE   W48
 BYTE   An3
 BYTE   W12
 BYTE   PATT
  POIN2 Label_7_0109AAFB
 BYTE   PATT
  POIN2 Label_7_0109AB03
 BYTE   PATT
  POIN2 Label_7_0109AB0B
 BYTE   PATT
  POIN2 Label_7_0109AB13
 BYTE   PATT
  POIN2 Label_7_0109AB1B
 BYTE   PATT
  POIN2 Label_7_0109AB25
 BYTE   PATT
  POIN2 Label_7_0109AB30
 BYTE   PATT
  POIN2 Label_7_0109AB3B
 BYTE   PATT
  POIN2 Label_7_0109AB48
 BYTE   PATT
  POIN2 Label_7_0109AB50
 BYTE   PATT
  POIN2 Label_7_0109AB58
 BYTE   PATT
  POIN2 Label_7_0109AB60
 BYTE   PATT
  POIN2 Label_7_0109AB68
 BYTE   PATT
  POIN2 Label_7_0109AB72
 BYTE   PATT
  POIN2 Label_7_0109AB7D
// 017   ----------------------------------------
 BYTE   W12
 BYTE   N24  Cn3  v120
 BYTE   W24
 BYTE   N18  Fn2
 BYTE   W18
 BYTE   Gn2
 BYTE   W18
 BYTE   N12  An2
 BYTE   W12
 BYTE   Fn2
 BYTE   W12
// 018   ----------------------------------------
Label_7_0109ABEA:
 BYTE   W24
 BYTE   N06  Dn3  v120
 BYTE   W06
 BYTE   En3
 BYTE   W06
 BYTE   N18  Fn3
 BYTE   W18
 BYTE   Gn3
 BYTE   W18
 BYTE   N12  An3
 BYTE   W12
 BYTE   N18  Fn3
 BYTE   W12
 BYTE   PEND 
// 019   ----------------------------------------
Label_7_0109ABFD:
 BYTE   W06
 BYTE   N18  Dn3  v120
 BYTE   W18
 BYTE   N12  Fn3
 BYTE   W12
 BYTE   N84  En3
 BYTE   W60
 BYTE   PEND 
// 020   ----------------------------------------
Label_7_0109AC09:
 BYTE   W24
 BYTE   N12  En3  v120
 BYTE   W12
 BYTE   N96  Gn3
 BYTE   W60
 BYTE   PEND 
// 021   ----------------------------------------
Label_7_0109AC12:
 BYTE   W36
 BYTE   N18  As2  v120
 BYTE   W18
 BYTE   Cn3
 BYTE   W18
 BYTE   N12  Dn3
 BYTE   W12
 BYTE   As2
 BYTE   W12
 BYTE   PEND 
// 022   ----------------------------------------
Label_7_0109AC1F:
 BYTE   W24
 BYTE   N06  As3  v120
 BYTE   W06
 BYTE   Cn4
 BYTE   W06
 BYTE   N18  Dn4
 BYTE   W18
 BYTE   En4
 BYTE   W18
 BYTE   N12  Fn4
 BYTE   W12
 BYTE   N18  Gn4
 BYTE   W12
 BYTE   PEND 
// 023   ----------------------------------------
 BYTE   W06
 BYTE   Fn4
 BYTE   W18
 BYTE   N12  En4
 BYTE   W12
 BYTE   N84  Dn4
 BYTE   W60
// 024   ----------------------------------------
 BYTE   W24
 BYTE   N06
 BYTE   W06
 BYTE   Cn4
 BYTE   W06
 BYTE   N24  Gn3
 BYTE   W24
 BYTE   An3
 BYTE   W24
 BYTE   N12  Gn3
 BYTE   W12
// 025   ----------------------------------------
 BYTE   Fn3
 BYTE   W12
 BYTE   N24  En3
 BYTE   W24
 BYTE   N18  Fn2
 BYTE   W18
 BYTE   Gn2
 BYTE   W18
 BYTE   N12  An2
 BYTE   W12
 BYTE   Fn2
 BYTE   W12
 BYTE   PATT
  POIN2 Label_7_0109ABEA
 BYTE   PATT
  POIN2 Label_7_0109ABFD
 BYTE   PATT
  POIN2 Label_7_0109AC09
 BYTE   PATT
  POIN2 Label_7_0109AC12
 BYTE   PATT
  POIN2 Label_7_0109AC1F
// 026   ----------------------------------------
 BYTE   W06
 BYTE   N18  Fn4  v120
 BYTE   W18
 BYTE   N12  En4
 BYTE   W12
 BYTE   TIE  Dn4
 BYTE   W60
// 027   ----------------------------------------
 BYTE   W84
 BYTE   EOT
 BYTE   N24
 BYTE   W12
// 028   ----------------------------------------
 BYTE   W12
 BYTE   N06  An3
 BYTE   W84
// 029   ----------------------------------------
 BYTE   W96
// 030   ----------------------------------------
 BYTE   W96
// 031   ----------------------------------------
 BYTE   W96
// 032   ----------------------------------------
 BYTE   W36
 BYTE   N72  Dn4
 BYTE   W60
// 033   ----------------------------------------
 BYTE   W24
 BYTE   N12
 BYTE   W12
 BYTE   N24  En4
 BYTE   W24
 BYTE   Cn4
 BYTE   W24
 BYTE   N36  Gn3
 BYTE   W12
// 034   ----------------------------------------
 BYTE   W24
 BYTE   N12  An3
 BYTE   W12
 BYTE   N84  Fs4
 BYTE   W60
// 035   ----------------------------------------
 BYTE   W24
 BYTE   N12
 BYTE   W12
 BYTE   N24  Gs4
 BYTE   W24
 BYTE   En4
 BYTE   W24
 BYTE   N36  Bn3
 BYTE   W12
// 036   ----------------------------------------
 BYTE   W24
 BYTE   N12  Cs4
 BYTE   W12
 BYTE   TIE
 BYTE   W60
// 037   ----------------------------------------
 BYTE   W96
// 038   ----------------------------------------
 BYTE   W36
 BYTE   EOT
 BYTE   GoTo
  POIN2 Label_7_0109AAF5
 BYTE   FINE

//**************** Track 9 (Midi-Chn.8) ****************//

NuclearFusion_009:
// 000   ----------------------------------------
 BYTE   KEYSH   NuclearFusion_key+0
 BYTE   VOICE   40
 BYTE   VOL   26*NuclearFusion_mvl/mxv
 BYTE   PAN   c_v+32
 BYTE   W36
Label_8_0109ACC1:
 BYTE   N48  An3  v120
 BYTE   W48
 BYTE   Cn4
 BYTE   W12
// 001   ----------------------------------------
Label_8_0109ACC7:
 BYTE   W36
 BYTE   N48  Bn3  v120
 BYTE   W48
 BYTE   Gn3
 BYTE   W12
 BYTE   PEND 
// 002   ----------------------------------------
Label_8_0109ACCF:
 BYTE   W36
 BYTE   N48  An3  v120
 BYTE   W48
 BYTE   Bn3
 BYTE   W12
 BYTE   PEND 
// 003   ----------------------------------------
Label_8_0109ACD7:
 BYTE   W36
 BYTE   N48  Cn4  v120
 BYTE   W48
 BYTE   Bn3
 BYTE   W12
 BYTE   PEND 
// 004   ----------------------------------------
Label_8_0109ACDF:
 BYTE   W36
 BYTE   N24  An3  v120
 BYTE   W36
 BYTE   Bn3
 BYTE   W24
 BYTE   PEND 
// 005   ----------------------------------------
Label_8_0109ACE7:
 BYTE   W12
 BYTE   N24  Cn4  v120
 BYTE   W36
 BYTE   Bn3
 BYTE   W36
 BYTE   An3
 BYTE   W12
 BYTE   PEND 
// 006   ----------------------------------------
Label_8_0109ACF1:
 BYTE   W12
 BYTE   N24  Dn3  v120
 BYTE   W24
 BYTE   N12  Fn3
 BYTE   W12
 BYTE   Gn3
 BYTE   W12
 BYTE   Fn3
 BYTE   W12
 BYTE   TIE  En3
 BYTE   W24
 BYTE   PEND 
// 007   ----------------------------------------
 BYTE   W84
 BYTE   EOT
 BYTE   N12
 BYTE   W12
// 008   ----------------------------------------
Label_8_0109AD05:
 BYTE   N12  Fn3  v120
 BYTE   W12
 BYTE   En3
 BYTE   W12
 BYTE   Cn3
 BYTE   W12
 BYTE   N48  As2
 BYTE   W48
 BYTE   Cn3
 BYTE   W12
 BYTE   PEND 
// 009   ----------------------------------------
Label_8_0109AD13:
 BYTE   W36
 BYTE   N48  Dn3  v120
 BYTE   W48
 BYTE   Cn3
 BYTE   W12
 BYTE   PEND 
// 010   ----------------------------------------
Label_8_0109AD1B:
 BYTE   W36
 BYTE   N48  As2  v120
 BYTE   W48
 BYTE   Cn3
 BYTE   W12
 BYTE   PEND 
// 011   ----------------------------------------
Label_8_0109AD23:
 BYTE   W36
 BYTE   N48  Fn3  v120
 BYTE   W48
 BYTE   En3
 BYTE   W12
 BYTE   PEND 
// 012   ----------------------------------------
Label_8_0109AD2B:
 BYTE   W36
 BYTE   N24  Dn3  v120
 BYTE   W36
 BYTE   En3
 BYTE   W24
 BYTE   PEND 
// 013   ----------------------------------------
Label_8_0109AD33:
 BYTE   W12
 BYTE   N24  Fn3  v120
 BYTE   W36
 BYTE   As3
 BYTE   W36
 BYTE   An3
 BYTE   W12
 BYTE   PEND 
// 014   ----------------------------------------
Label_8_0109AD3D:
 BYTE   W12
 BYTE   N24  En3  v120
 BYTE   W24
 BYTE   N12  Fn3
 BYTE   W12
 BYTE   Gn3
 BYTE   W12
 BYTE   Fn3
 BYTE   W12
 BYTE   TIE  Dn3
 BYTE   W24
 BYTE   PEND 
// 015   ----------------------------------------
 BYTE   W84
 BYTE   EOT
 BYTE   N24  Fn3
 BYTE   W12
// 016   ----------------------------------------
 BYTE   W12
 BYTE   Gn3
 BYTE   W24
 BYTE   N48  An3
 BYTE   W48
 BYTE   Cn4
 BYTE   W12
 BYTE   PATT
  POIN2 Label_8_0109ACC7
 BYTE   PATT
  POIN2 Label_8_0109ACCF
 BYTE   PATT
  POIN2 Label_8_0109ACD7
 BYTE   PATT
  POIN2 Label_8_0109ACDF
 BYTE   PATT
  POIN2 Label_8_0109ACE7
 BYTE   PATT
  POIN2 Label_8_0109ACF1
// 017   ----------------------------------------
 BYTE   W84
 BYTE   EOT
 BYTE   En3
 BYTE   N12  En3  v120
 BYTE   W12
 BYTE   PATT
  POIN2 Label_8_0109AD05
 BYTE   PATT
  POIN2 Label_8_0109AD13
 BYTE   PATT
  POIN2 Label_8_0109AD1B
 BYTE   PATT
  POIN2 Label_8_0109AD23
 BYTE   PATT
  POIN2 Label_8_0109AD2B
 BYTE   PATT
  POIN2 Label_8_0109AD33
 BYTE   PATT
  POIN2 Label_8_0109AD3D
// 018   ----------------------------------------
 BYTE   W84
 BYTE   EOT
 BYTE   Dn3
 BYTE   N24  Fn3  v120
 BYTE   W12
// 019   ----------------------------------------
 BYTE   W12
 BYTE   En3
 BYTE   W24
 BYTE   N18  Fn3
 BYTE   W18
 BYTE   Gn3
 BYTE   W18
 BYTE   N12  An3
 BYTE   W12
 BYTE   Fn3
 BYTE   W12
// 020   ----------------------------------------
Label_8_0109ADB6:
 BYTE   W24
 BYTE   N06  Fn3  v120
 BYTE   W06
 BYTE   Gn3
 BYTE   W06
 BYTE   N18  An3
 BYTE   W18
 BYTE   As3
 BYTE   W18
 BYTE   N12  Cn4
 BYTE   W12
 BYTE   N18  An3
 BYTE   W12
 BYTE   PEND 
// 021   ----------------------------------------
Label_8_0109ADC9:
 BYTE   W06
 BYTE   N18  Fn3  v120
 BYTE   W18
 BYTE   N12  An3
 BYTE   W12
 BYTE   N84  Gn3
 BYTE   W60
 BYTE   PEND 
// 022   ----------------------------------------
Label_8_0109ADD5:
 BYTE   W24
 BYTE   N12  Gn3  v120
 BYTE   W12
 BYTE   N96  Cn4
 BYTE   W60
 BYTE   PEND 
// 023   ----------------------------------------
Label_8_0109ADDE:
 BYTE   W36
 BYTE   N18  As3  v120
 BYTE   W18
 BYTE   Cn4
 BYTE   W18
 BYTE   N12  Dn4
 BYTE   W12
 BYTE   As3
 BYTE   W12
 BYTE   PEND 
// 024   ----------------------------------------
Label_8_0109ADEB:
 BYTE   W24
 BYTE   N06  Dn4  v120
 BYTE   W06
 BYTE   En4
 BYTE   W06
 BYTE   N18  Fn4
 BYTE   W18
 BYTE   Gn4
 BYTE   W18
 BYTE   N12  An4
 BYTE   W12
 BYTE   N18  As4
 BYTE   W12
 BYTE   PEND 
// 025   ----------------------------------------
 BYTE   W06
 BYTE   An4
 BYTE   W18
 BYTE   N12  Gn4
 BYTE   W12
 BYTE   N84  Fn4
 BYTE   W60
// 026   ----------------------------------------
 BYTE   W24
 BYTE   N06
 BYTE   W06
 BYTE   En4
 BYTE   W06
 BYTE   N96  Cn4
 BYTE   W60
// 027   ----------------------------------------
 BYTE   W36
 BYTE   N18  Fn3
 BYTE   W18
 BYTE   Gn3
 BYTE   W18
 BYTE   N12  An3
 BYTE   W12
 BYTE   Fn3
 BYTE   W12
 BYTE   PATT
  POIN2 Label_8_0109ADB6
 BYTE   PATT
  POIN2 Label_8_0109ADC9
 BYTE   PATT
  POIN2 Label_8_0109ADD5
 BYTE   PATT
  POIN2 Label_8_0109ADDE
 BYTE   PATT
  POIN2 Label_8_0109ADEB
// 028   ----------------------------------------
 BYTE   W06
 BYTE   N18  An4  v120
 BYTE   W18
 BYTE   N12  Gn4
 BYTE   W12
 BYTE   N36  Fn4
 BYTE   W36
 BYTE   En4
 BYTE   W24
// 029   ----------------------------------------
 BYTE   W12
 BYTE   Gn4
 BYTE   W36
 BYTE   En4
 BYTE   W36
 BYTE   N24  Fn4
 BYTE   W12
// 030   ----------------------------------------
 BYTE   W12
 BYTE   N06  Dn4
 BYTE   W84
// 031   ----------------------------------------
 BYTE   W96
// 032   ----------------------------------------
 BYTE   W96
// 033   ----------------------------------------
 BYTE   W96
// 034   ----------------------------------------
 BYTE   W06
 BYTE   N18
 BYTE   W18
 BYTE   N12  Cn4
 BYTE   N12  En4
 BYTE   W12
 BYTE   N78  As3
 BYTE   N78  Fn4
 BYTE   W60
// 035   ----------------------------------------
 BYTE   W24
 BYTE   N12  As3
 BYTE   N12  Fn4
 BYTE   W12
 BYTE   N24  Cn4
 BYTE   N24  Gn4
 BYTE   W24
 BYTE   Gn3
 BYTE   N24  En4
 BYTE   W24
 BYTE   N36  En3
 BYTE   N36  Cn4
 BYTE   W12
// 036   ----------------------------------------
 BYTE   W24
 BYTE   N12  Gn3
 BYTE   N12  Dn4
 BYTE   W12
 BYTE   N78
 BYTE   N84  An4
 BYTE   W60
// 037   ----------------------------------------
 BYTE   W24
 BYTE   N12  Dn4
 BYTE   N12  An4
 BYTE   W12
 BYTE   N24  En4
 BYTE   N24  Bn4
 BYTE   W24
 BYTE   Bn3
 BYTE   N24  Gn4
 BYTE   W24
 BYTE   N18  Gn3
 BYTE   N36  En4
 BYTE   W12
// 038   ----------------------------------------
 BYTE   W06
 BYTE   N18  En3
 BYTE   W18
 BYTE   N12  Bn3
 BYTE   N12  Fs4
 BYTE   W12
 BYTE   TIE  As3
 BYTE   TIE  Fs4
 BYTE   W60
// 039   ----------------------------------------
 BYTE   W96
// 040   ----------------------------------------
 BYTE   W36
 BYTE   EOT
 BYTE   As3  v078
 BYTE   GoTo
  POIN2 Label_8_0109ACC1
 BYTE   FINE

//**************** Track 10 (Midi-Chn.9) ****************//

NuclearFusion_010:
// 000   ----------------------------------------
 BYTE   KEYSH   NuclearFusion_key+0
 BYTE   VOICE   127
 BYTE   VOL   36*NuclearFusion_mvl/mxv
 BYTE   PAN   c_v+0
 BYTE   N04  Cn1  v127
 BYTE   W04
 BYTE   N04
 BYTE   W04
 BYTE   N04
 BYTE   W04
 BYTE   N03  Dn1
 BYTE   W12
 BYTE   Fs2  v092
 BYTE   W06
 BYTE   N03
 BYTE   W06
Label_9_0109AEC0:
 BYTE   N03  Cn1  v127
 BYTE   N03  Fs2
 BYTE   W12
 BYTE   Fs2  v092
 BYTE   W06
 BYTE   N03
 BYTE   W06
 BYTE   Dn1  v127
 BYTE   N03  Fs2
 BYTE   W12
 BYTE   Fs2  v092
 BYTE   W06
 BYTE   N03
 BYTE   W06
 BYTE   Cn1  v127
 BYTE   N03  Fs2
 BYTE   W12
// 001   ----------------------------------------
Label_9_0109AEDA:
 BYTE   N03  Fs2  v092
 BYTE   W06
 BYTE   N03
 BYTE   W06
 BYTE   Dn1  v127
 BYTE   N03  Fs2
 BYTE   W12
 BYTE   Fs2  v092
 BYTE   W06
 BYTE   N03
 BYTE   W06
 BYTE   Cn1  v127
 BYTE   N03  Fs2
 BYTE   W12
 BYTE   Fs2  v092
 BYTE   W06
 BYTE   N03
 BYTE   W06
 BYTE   Dn1  v127
 BYTE   N03  Fs2
 BYTE   W12
 BYTE   Fs2  v092
 BYTE   W06
 BYTE   N03
 BYTE   W06
 BYTE   Cn1  v127
 BYTE   N03  Fs2
 BYTE   W12
 BYTE   PEND 
// 002   ----------------------------------------
Label_9_0109AF04:
 BYTE   N03  Fs2  v092
 BYTE   W06
 BYTE   N03
 BYTE   W06
 BYTE   Dn1  v127
 BYTE   N03  Fs2
 BYTE   W12
 BYTE   Fs2  v092
 BYTE   W06
 BYTE   Cn1  v127
 BYTE   N03  Fs2  v092
 BYTE   W06
 BYTE   Cn1  v127
 BYTE   N03  Fs2
 BYTE   W12
 BYTE   Fs2  v092
 BYTE   W06
 BYTE   N03
 BYTE   W06
 BYTE   Dn1  v127
 BYTE   N03  Fs2
 BYTE   W12
 BYTE   Fs2  v092
 BYTE   W06
 BYTE   N03
 BYTE   W06
 BYTE   Cn1  v127
 BYTE   N03  Fs2
 BYTE   W12
 BYTE   PEND 
 BYTE   PATT
  POIN2 Label_9_0109AEDA
// 003   ----------------------------------------
Label_9_0109AF37:
 BYTE   N03  Cn1  v127
 BYTE   N03  Fs2  v092
 BYTE   W06
 BYTE   N03
 BYTE   W06
 BYTE   Dn1  v127
 BYTE   N04  Fs2
 BYTE   W04
 BYTE   N04
 BYTE   W04
 BYTE   Fs2  v120
 BYTE   W04
 BYTE   N03  Cn1  v127
 BYTE   N04  Fs2  v112
 BYTE   W04
 BYTE   Fs2  v104
 BYTE   W02
 BYTE   N03  Cn1  v127
 BYTE   W02
 BYTE   N04  Fs2  v092
 BYTE   W04
 BYTE   N03  Cn1  v127
 BYTE   N03  Fs2  v112
 BYTE   W06
 BYTE   Cn1  v127
 BYTE   N03  Fs2  v112
 BYTE   W06
 BYTE   Cn1  v127
 BYTE   N03  Fs2  v112
 BYTE   W06
 BYTE   Cn1  v127
 BYTE   N03  Fs2  v112
 BYTE   W06
 BYTE   Dn1  v127
 BYTE   N03  Fs2
 BYTE   W12
 BYTE   Cn1
 BYTE   N03  Fs2  v112
 BYTE   W06
 BYTE   Cn1  v127
 BYTE   N03  Fs2  v112
 BYTE   W06
 BYTE   Cn1  v127
 BYTE   N03  Fs2  v112
 BYTE   W06
 BYTE   Cn1  v127
 BYTE   N03  Fs2  v112
 BYTE   W06
 BYTE   PEND 
// 004   ----------------------------------------
Label_9_0109AF92:
 BYTE   N03  Dn1  v127
 BYTE   N03  Fs2
 BYTE   W12
 BYTE   Cn1
 BYTE   N03  Fs2  v112
 BYTE   W06
 BYTE   Cn1  v127
 BYTE   N03  Fs2  v112
 BYTE   W06
 BYTE   Cn1  v127
 BYTE   N03  Fs2  v112
 BYTE   W06
 BYTE   Cn1  v127
 BYTE   N03  Fs2  v112
 BYTE   W06
 BYTE   Dn1  v127
 BYTE   N03  Fs2
 BYTE   W12
 BYTE   Cn1
 BYTE   N03  Fs2  v112
 BYTE   W06
 BYTE   Cn1  v127
 BYTE   N03  Fs2  v112
 BYTE   W06
 BYTE   Cn1  v127
 BYTE   N03  Fs2  v112
 BYTE   W06
 BYTE   Cn1  v127
 BYTE   N03  Fs2  v112
 BYTE   W06
 BYTE   Dn1  v127
 BYTE   N03  Fs2  v112
 BYTE   W06
 BYTE   N03
 BYTE   W06
 BYTE   Cn1  v127
 BYTE   N03  Fs2
 BYTE   W06
 BYTE   Cn1
 BYTE   N03  Fs2
 BYTE   W06
 BYTE   PEND 
// 005   ----------------------------------------
Label_9_0109AFDD:
 BYTE   N03  Fs2  v112
 BYTE   W06
 BYTE   Cn1  v127
 BYTE   N03  Fs2  v112
 BYTE   W06
 BYTE   Dn1  v127
 BYTE   N03  Fs2
 BYTE   W06
 BYTE   Dn1
 BYTE   W06
 BYTE   Fs2  v112
 BYTE   W06
 BYTE   Cn1  v127
 BYTE   N03  Fs2  v112
 BYTE   W06
 BYTE   Cn1  v127
 BYTE   N03  Fs2
 BYTE   W12
 BYTE   Fs2  v092
 BYTE   W06
 BYTE   N03
 BYTE   W06
 BYTE   Dn1  v127
 BYTE   N03  Fs2
 BYTE   W12
 BYTE   Fs2  v092
 BYTE   W06
 BYTE   N03
 BYTE   W06
 BYTE   Cn1  v127
 BYTE   N03  Fs2
 BYTE   W12
 BYTE   PEND 
// 006   ----------------------------------------
Label_9_0109B011:
 BYTE   N03  Fs2  v092
 BYTE   W06
 BYTE   N03
 BYTE   W06
 BYTE   Dn1  v127
 BYTE   N03  Fs2
 BYTE   W12
 BYTE   Fs2  v092
 BYTE   W06
 BYTE   N03
 BYTE   W06
 BYTE   Cn1  v127
 BYTE   N03  Fs2
 BYTE   W12
 BYTE   Fs2  v092
 BYTE   W06
 BYTE   N03
 BYTE   W06
 BYTE   Dn1  v127
 BYTE   N03  Fs2
 BYTE   W12
 BYTE   Fs2  v092
 BYTE   W06
 BYTE   Cn1  v127
 BYTE   N03  Fs2  v092
 BYTE   W06
 BYTE   Cn1  v127
 BYTE   N03  Fs2
 BYTE   W12
 BYTE   PEND 
// 007   ----------------------------------------
Label_9_0109B03F:
 BYTE   N03  Cn1  v127
 BYTE   N03  Fs2  v092
 BYTE   W06
 BYTE   N03
 BYTE   W06
 BYTE   Dn1  v127
 BYTE   N04  Fs2
 BYTE   W04
 BYTE   N04
 BYTE   W04
 BYTE   Fs2  v120
 BYTE   W04
 BYTE   Cn1  v127
 BYTE   N04  Fs2  v112
 BYTE   W04
 BYTE   Cn1  v127
 BYTE   N04  Fs2  v100
 BYTE   W04
 BYTE   Cn1  v127
 BYTE   N04  Fs2  v092
 BYTE   W04
 BYTE   N03  Cn1  v127
 BYTE   N03  Fs2
 BYTE   W12
 BYTE   Fs2  v092
 BYTE   W06
 BYTE   N03
 BYTE   W06
 BYTE   Dn1  v127
 BYTE   N03  Fs2
 BYTE   W12
 BYTE   Fs2  v092
 BYTE   W06
 BYTE   N03
 BYTE   W06
 BYTE   Cn1  v127
 BYTE   N03  Fs2
 BYTE   W12
 BYTE   PEND 
 BYTE   PATT
  POIN2 Label_9_0109AEDA
 BYTE   PATT
  POIN2 Label_9_0109AF04
 BYTE   PATT
  POIN2 Label_9_0109AEDA
 BYTE   PATT
  POIN2 Label_9_0109AF37
 BYTE   PATT
  POIN2 Label_9_0109AF92
 BYTE   PATT
  POIN2 Label_9_0109AFDD
// 008   ----------------------------------------
Label_9_0109B09D:
 BYTE   N03  Fs2  v092
 BYTE   W06
 BYTE   N03
 BYTE   W06
 BYTE   Dn1  v127
 BYTE   N03  Fs2
 BYTE   W12
 BYTE   Fs2  v092
 BYTE   W06
 BYTE   N03
 BYTE   W06
 BYTE   Cn1  v127
 BYTE   N03  Fs2
 BYTE   W12
 BYTE   Fs2  v092
 BYTE   W06
 BYTE   N03
 BYTE   W06
 BYTE   Dn1  v127
 BYTE   N03  Fs2
 BYTE   W12
 BYTE   Fs2  v092
 BYTE   W06
 BYTE   Cn1  v127
 BYTE   N03  Fs2  v092
 BYTE   W06
 BYTE   Cn1  v127
 BYTE   N03  Fs2
 BYTE   W06
 BYTE   Dn1
 BYTE   W06
 BYTE   PEND 
// 009   ----------------------------------------
 BYTE   N03
 BYTE   N03  Fs2  v092
 BYTE   W06
 BYTE   Cn1  v127
 BYTE   N03  Fs2  v092
 BYTE   W06
 BYTE   Dn1  v127
 BYTE   N04  Fs2
 BYTE   W04
 BYTE   N04
 BYTE   W02
 BYTE   N03  Cn1
 BYTE   W02
 BYTE   N04  Fs2  v120
 BYTE   W04
 BYTE   N03  Dn1  v127
 BYTE   N04  Fs2  v112
 BYTE   W04
 BYTE   Fs2  v100
 BYTE   W02
 BYTE   N03  Dn1  v127
 BYTE   W02
 BYTE   N04  Fs2  v092
 BYTE   W04
 BYTE   N03  Cn1  v127
 BYTE   N03  Fs2
 BYTE   W12
 BYTE   Fs2  v092
 BYTE   W06
 BYTE   N03
 BYTE   W06
 BYTE   Dn1  v127
 BYTE   N03  Fs2
 BYTE   W12
 BYTE   Fs2  v092
 BYTE   W06
 BYTE   N03
 BYTE   W06
 BYTE   Cn1  v127
 BYTE   N03  Fs2
 BYTE   W12
 BYTE   PATT
  POIN2 Label_9_0109AEDA
 BYTE   PATT
  POIN2 Label_9_0109AF04
 BYTE   PATT
  POIN2 Label_9_0109AEDA
 BYTE   PATT
  POIN2 Label_9_0109AF37
 BYTE   PATT
  POIN2 Label_9_0109AF92
 BYTE   PATT
  POIN2 Label_9_0109AFDD
 BYTE   PATT
  POIN2 Label_9_0109B011
 BYTE   PATT
  POIN2 Label_9_0109B03F
 BYTE   PATT
  POIN2 Label_9_0109AEDA
 BYTE   PATT
  POIN2 Label_9_0109AF04
 BYTE   PATT
  POIN2 Label_9_0109AEDA
 BYTE   PATT
  POIN2 Label_9_0109AF37
 BYTE   PATT
  POIN2 Label_9_0109AF92
 BYTE   PATT
  POIN2 Label_9_0109AFDD
 BYTE   PATT
  POIN2 Label_9_0109B09D
// 010   ----------------------------------------
 BYTE   N03  Dn1  v127
 BYTE   N03  Fs2  v092
 BYTE   W06
 BYTE   Cn1  v127
 BYTE   N03  Fs2  v092
 BYTE   W06
 BYTE   Dn1  v127
 BYTE   N04  Fs2
 BYTE   W04
 BYTE   N04
 BYTE   W02
 BYTE   N03  Cn1
 BYTE   W02
 BYTE   N04  Fs2  v120
 BYTE   W04
 BYTE   N03  Dn1  v127
 BYTE   N04  Fs2  v112
 BYTE   W04
 BYTE   Fs2  v100
 BYTE   W02
 BYTE   N03  Dn1  v127
 BYTE   W02
 BYTE   N04  Fs2  v092
 BYTE   W04
 BYTE   N03  Cn1  v127
 BYTE   N03  Fs2
 BYTE   W12
 BYTE   Fs2  v092
 BYTE   W06
 BYTE   Cn1  v127
 BYTE   N03  Fs2  v092
 BYTE   W06
 BYTE   Dn1  v127
 BYTE   N03  Fs2
 BYTE   W12
 BYTE   Cn1
 BYTE   N03  Fs2  v092
 BYTE   W06
 BYTE   N03
 BYTE   W06
 BYTE   Cn1  v127
 BYTE   N03  Fs2
 BYTE   W12
// 011   ----------------------------------------
Label_9_0109B1AA:
 BYTE   N03  Fs2  v092
 BYTE   W06
 BYTE   N03
 BYTE   W06
 BYTE   Dn1  v127
 BYTE   N03  Fs2
 BYTE   W12
 BYTE   Cn1
 BYTE   N03  Fs2  v092
 BYTE   W06
 BYTE   Cn1  v127
 BYTE   N03  Fs2  v092
 BYTE   W06
 BYTE   Cn1  v127
 BYTE   N03  Fs2
 BYTE   W12
 BYTE   Fs2  v092
 BYTE   W06
 BYTE   Cn1  v127
 BYTE   N03  Fs2  v092
 BYTE   W06
 BYTE   Dn1  v127
 BYTE   N03  Fs2
 BYTE   W12
 BYTE   Cn1
 BYTE   N03  Fs2  v092
 BYTE   W06
 BYTE   N03
 BYTE   W06
 BYTE   Cn1  v127
 BYTE   N03  Fs2
 BYTE   W06
 BYTE   Cn1
 BYTE   W06
 BYTE   PEND 
// 012   ----------------------------------------
Label_9_0109B1E2:
 BYTE   N03  Fs2  v092
 BYTE   W06
 BYTE   Cn1  v127
 BYTE   N03  Fs2  v092
 BYTE   W06
 BYTE   Dn1  v127
 BYTE   N03  Fs2
 BYTE   W12
 BYTE   Cn1
 BYTE   N03  Fs2  v092
 BYTE   W06
 BYTE   N03
 BYTE   W06
 BYTE   Cn1  v127
 BYTE   N03  Fs2
 BYTE   W12
 BYTE   Fs2  v092
 BYTE   W06
 BYTE   N03
 BYTE   W06
 BYTE   Dn1  v127
 BYTE   N03  Fs2
 BYTE   W12
 BYTE   Fs2  v092
 BYTE   W06
 BYTE   N03
 BYTE   W06
 BYTE   Cn1  v127
 BYTE   N03  Fs2
 BYTE   W12
 BYTE   PEND 
// 013   ----------------------------------------
Label_9_0109B212:
 BYTE   N03  Fs2  v092
 BYTE   W06
 BYTE   N03
 BYTE   W06
 BYTE   Dn1  v127
 BYTE   N03  Fs2
 BYTE   W12
 BYTE   Fs2  v092
 BYTE   W06
 BYTE   Cn1  v127
 BYTE   N03  Fs2  v092
 BYTE   W06
 BYTE   Cn1  v127
 BYTE   N03  Fs2
 BYTE   W12
 BYTE   Fs2  v092
 BYTE   W06
 BYTE   N03
 BYTE   W06
 BYTE   Dn1  v127
 BYTE   N03  Fs2
 BYTE   W12
 BYTE   Cn1
 BYTE   N03  Fs2  v092
 BYTE   W06
 BYTE   N03
 BYTE   W06
 BYTE   Cn1  v127
 BYTE   N03  Fs2
 BYTE   W06
 BYTE   Cn1
 BYTE   W06
 BYTE   PEND 
// 014   ----------------------------------------
Label_9_0109B244:
 BYTE   N03  Fs2  v092
 BYTE   W06
 BYTE   Cn1  v127
 BYTE   N03  Fs2  v092
 BYTE   W06
 BYTE   Dn1  v127
 BYTE   N04  Fs2
 BYTE   W04
 BYTE   N04
 BYTE   W02
 BYTE   N03  Cn1
 BYTE   W02
 BYTE   N04  Fs2  v120
 BYTE   W04
 BYTE   Fs2  v112
 BYTE   W04
 BYTE   Fs2  v104
 BYTE   W02
 BYTE   N03  Cn1  v127
 BYTE   W02
 BYTE   N04  Fs2  v092
 BYTE   W04
 BYTE   N03  Cn1  v127
 BYTE   N03  Fs2
 BYTE   W12
 BYTE   Fs2  v092
 BYTE   W06
 BYTE   Cn1  v127
 BYTE   N03  Fs2  v092
 BYTE   W06
 BYTE   Dn1  v127
 BYTE   N03  Fs2
 BYTE   W12
 BYTE   Cn1
 BYTE   N03  Fs2  v092
 BYTE   W06
 BYTE   N03
 BYTE   W06
 BYTE   Cn1  v127
 BYTE   N03  Fs2
 BYTE   W12
 BYTE   PEND 
 BYTE   PATT
  POIN2 Label_9_0109B1AA
 BYTE   PATT
  POIN2 Label_9_0109B1E2
// 015   ----------------------------------------
 BYTE   N03  Fs2  v092
 BYTE   W06
 BYTE   N03
 BYTE   W06
 BYTE   Dn1  v127
 BYTE   N03  Fs2
 BYTE   W12
 BYTE   Fs2  v092
 BYTE   W06
 BYTE   Cn1  v127
 BYTE   N03  Fs2  v092
 BYTE   W06
 BYTE   Cn1  v127
 BYTE   N03  Fs2
 BYTE   W12
 BYTE   Fs2  v092
 BYTE   W06
 BYTE   N03
 BYTE   W06
 BYTE   Dn1  v127
 BYTE   N03  Fs2
 BYTE   W12
 BYTE   Fs2  v092
 BYTE   W06
 BYTE   Cn1  v127
 BYTE   N03  Fs2  v092
 BYTE   W06
 BYTE   Cn1  v127
 BYTE   N03  Fs2
 BYTE   W12
// 016   ----------------------------------------
 BYTE   Cn1
 BYTE   N03  Fs2  v092
 BYTE   W06
 BYTE   N03
 BYTE   W06
 BYTE   Cn1  v127
 BYTE   N04  Fs2
 BYTE   W04
 BYTE   N04
 BYTE   W02
 BYTE   N03  Dn1
 BYTE   W02
 BYTE   N04  Fs2  v120
 BYTE   W04
 BYTE   N03  Dn1  v127
 BYTE   N04  Fs2  v112
 BYTE   W04
 BYTE   Fs2  v104
 BYTE   W02
 BYTE   N03  Dn1  v127
 BYTE   W02
 BYTE   N04  Fs2  v092
 BYTE   W04
 BYTE   N03  Cn1  v127
 BYTE   N03  Fs2
 BYTE   W12
 BYTE   Fs2  v092
 BYTE   W06
 BYTE   Cn1  v127
 BYTE   N03  Fs2  v092
 BYTE   W06
 BYTE   Dn1  v127
 BYTE   N03  Fs2
 BYTE   W12
 BYTE   Cn1
 BYTE   N03  Fs2  v092
 BYTE   W06
 BYTE   N03
 BYTE   W06
 BYTE   Cn1  v127
 BYTE   N03  Fs2
 BYTE   W12
 BYTE   PATT
  POIN2 Label_9_0109B1AA
 BYTE   PATT
  POIN2 Label_9_0109B1E2
 BYTE   PATT
  POIN2 Label_9_0109B212
 BYTE   PATT
  POIN2 Label_9_0109B244
 BYTE   PATT
  POIN2 Label_9_0109B1AA
 BYTE   PATT
  POIN2 Label_9_0109B1E2
// 017   ----------------------------------------
 BYTE   N03  Fs2  v092
 BYTE   W06
 BYTE   N03
 BYTE   W06
 BYTE   Dn1  v127
 BYTE   N03  Fs2
 BYTE   W12
 BYTE   Fs2  v092
 BYTE   W06
 BYTE   Cn1  v127
 BYTE   N03  Fs2  v092
 BYTE   W06
 BYTE   Cn1  v127
 BYTE   N03  Fs2
 BYTE   W12
 BYTE   Dn1
 BYTE   N03  Fs2  v092
 BYTE   W06
 BYTE   N03
 BYTE   W06
 BYTE   Dn1  v127
 BYTE   N04  Fs2
 BYTE   W04
 BYTE   N04
 BYTE   W04
 BYTE   Fs2  v120
 BYTE   W04
 BYTE   Cn1  v127
 BYTE   N04  Fs2  v112
 BYTE   W04
 BYTE   Cn1  v127
 BYTE   N04  Fs2  v104
 BYTE   W04
 BYTE   Cn1  v127
 BYTE   N04  Fs2  v092
 BYTE   W04
 BYTE   N03  Cn1  v127
 BYTE   N03  Fs2
 BYTE   W06
 BYTE   Dn1
 BYTE   W06
// 018   ----------------------------------------
 BYTE   N03
 BYTE   N03  Fs2  v092
 BYTE   W06
 BYTE   Dn1  v127
 BYTE   N03  Fs2  v092
 BYTE   W06
 BYTE   Cn1  v127
 BYTE   N03  Fs2
 BYTE   W24
 BYTE   N03
 BYTE   W12
 BYTE   Fs2  v092
 BYTE   W06
 BYTE   N03
 BYTE   W06
 BYTE   Fs2  v127
 BYTE   W12
 BYTE   Fs2  v092
 BYTE   W06
 BYTE   N03
 BYTE   W06
 BYTE   Fs2  v127
 BYTE   W12
// 019   ----------------------------------------
Label_9_0109B391:
 BYTE   N03  Fs2  v092
 BYTE   W06
 BYTE   N03
 BYTE   W06
 BYTE   Fs2  v127
 BYTE   W12
 BYTE   Fs2  v092
 BYTE   W06
 BYTE   N03
 BYTE   W06
 BYTE   Fs2  v127
 BYTE   W12
 BYTE   Fs2  v092
 BYTE   W06
 BYTE   N03
 BYTE   W06
 BYTE   Fs2  v127
 BYTE   W12
 BYTE   Fs2  v092
 BYTE   W06
 BYTE   N03
 BYTE   W06
 BYTE   Fs2  v127
 BYTE   W12
 BYTE   PEND 
// 020   ----------------------------------------
 BYTE   Fs2  v092
 BYTE   W06
 BYTE   N03
 BYTE   W06
 BYTE   Fs2  v127
 BYTE   W06
 BYTE   N03
 BYTE   W06
 BYTE   Fs2  v092
 BYTE   W06
 BYTE   N03
 BYTE   W06
 BYTE   Fs2  v127
 BYTE   W12
 BYTE   Fs2  v092
 BYTE   W06
 BYTE   N03
 BYTE   W06
 BYTE   Fs2  v127
 BYTE   W12
 BYTE   Fs2  v092
 BYTE   W06
 BYTE   N03
 BYTE   W06
 BYTE   Fs2  v127
 BYTE   W12
 BYTE   PATT
  POIN2 Label_9_0109B391
// 021   ----------------------------------------
 BYTE   N03  Dn1  v127
 BYTE   N03  Fs2  v092
 BYTE   W06
 BYTE   N03
 BYTE   W06
 BYTE   Cn1  v127
 BYTE   N04  Fs2
 BYTE   W04
 BYTE   N04
 BYTE   W02
 BYTE   N02  Dn1
 BYTE   W02
 BYTE   N04  Fs2  v120
 BYTE   W04
 BYTE   Fs2  v112
 BYTE   W04
 BYTE   Fs2  v104
 BYTE   W02
 BYTE   N02  Dn1  v127
 BYTE   W02
 BYTE   N04  Fs2  v092
 BYTE   W04
 BYTE   N03  Cn1  v127
 BYTE   N03  Fs2
 BYTE   W12
 BYTE   Fs2  v092
 BYTE   W06
 BYTE   Cn1  v127
 BYTE   N03  Fs2  v092
 BYTE   W06
 BYTE   Dn1  v127
 BYTE   N03  Fs2
 BYTE   W12
 BYTE   Cn1
 BYTE   N03  Fs2  v092
 BYTE   W06
 BYTE   N03
 BYTE   W06
 BYTE   Cn1  v127
 BYTE   N03  Fs2
 BYTE   W12
// 022   ----------------------------------------
Label_9_0109B41F:
 BYTE   N03  Fs2  v092
 BYTE   W06
 BYTE   N03
 BYTE   W06
 BYTE   Dn1  v127
 BYTE   N03  Fs2
 BYTE   W12
 BYTE   Fs2  v092
 BYTE   W06
 BYTE   N03
 BYTE   W06
 BYTE   Cn1  v127
 BYTE   N03  Fs2
 BYTE   W12
 BYTE   Fs2  v092
 BYTE   W06
 BYTE   Cn1  v127
 BYTE   N03  Fs2  v092
 BYTE   W06
 BYTE   Dn1  v127
 BYTE   N03  Fs2
 BYTE   W12
 BYTE   Cn1
 BYTE   N03  Fs2  v092
 BYTE   W06
 BYTE   N03
 BYTE   W06
 BYTE   Cn1  v127
 BYTE   N03  Fs2
 BYTE   W12
 BYTE   PEND 
// 023   ----------------------------------------
 BYTE   Fs2  v092
 BYTE   W06
 BYTE   N03
 BYTE   W06
 BYTE   Dn1  v127
 BYTE   N03  Fs2
 BYTE   W12
 BYTE   Cn1
 BYTE   N03  Fs2  v092
 BYTE   W06
 BYTE   N03
 BYTE   W06
 BYTE   Cn1  v127
 BYTE   N03  Fs2
 BYTE   W12
 BYTE   Fs2  v092
 BYTE   W06
 BYTE   Cn1  v127
 BYTE   N03  Fs2  v092
 BYTE   W06
 BYTE   Dn1  v127
 BYTE   N03  Fs2
 BYTE   W12
 BYTE   Cn1
 BYTE   N03  Fs2  v092
 BYTE   W06
 BYTE   N03
 BYTE   W06
 BYTE   Cn1  v127
 BYTE   N03  Fs2
 BYTE   W12
 BYTE   PATT
  POIN2 Label_9_0109B41F
// 024   ----------------------------------------
 BYTE   N03  Fs2  v092
 BYTE   W06
 BYTE   N03
 BYTE   W06
 BYTE   Dn1  v127
 BYTE   N04  Fs2
 BYTE   W04
 BYTE   N04
 BYTE   W04
 BYTE   Fs2  v120
 BYTE   W04
 BYTE   Fs2  v112
 BYTE   W04
 BYTE   Fs2  v104
 BYTE   W04
 BYTE   Fs2  v092
 BYTE   W04
 BYTE   N03  Cn1  v127
 BYTE   N03  Fs2
 BYTE   W12
 BYTE   Fs2  v092
 BYTE   W06
 BYTE   Cn1  v127
 BYTE   N03  Fs2  v092
 BYTE   W06
 BYTE   Dn1  v127
 BYTE   N03  Fs2
 BYTE   W12
 BYTE   Cn1
 BYTE   N03  Fs2  v092
 BYTE   W06
 BYTE   N03
 BYTE   W06
 BYTE   Cn1  v127
 BYTE   N03  Fs2
 BYTE   W12
// 025   ----------------------------------------
 BYTE   Fs2  v092
 BYTE   W06
 BYTE   Cn1  v127
 BYTE   N03  Fs2  v092
 BYTE   W06
 BYTE   Dn1  v127
 BYTE   N03  Fs2
 BYTE   W12
 BYTE   Cn1
 BYTE   N03  Fs2  v092
 BYTE   W06
 BYTE   N03
 BYTE   W06
 BYTE   Cn1  v127
 BYTE   N03  Fs2
 BYTE   W12
 BYTE   Fs2  v112
 BYTE   W03
 BYTE   N03
 BYTE   W03
 BYTE   Cn1  v127
 BYTE   N03  Fs2  v112
 BYTE   W03
 BYTE   N03
 BYTE   W03
 BYTE   Dn1  v127
 BYTE   N03  Fs2
 BYTE   W12
 BYTE   Cn1
 BYTE   N03  Fs2  v112
 BYTE   W03
 BYTE   N03
 BYTE   W03
 BYTE   N03
 BYTE   W03
 BYTE   N03
 BYTE   W03
 BYTE   Cn1  v127
 BYTE   N03  Fs2
 BYTE   W06
 BYTE   Cn1
 BYTE   N03  Fs2  v116
 BYTE   W06
// 026   ----------------------------------------
 BYTE   Cn1  v127
 BYTE   N03  Fs2  v116
 BYTE   W06
 BYTE   Cn1  v127
 BYTE   N03  Fs2  v116
 BYTE   W06
 BYTE   Dn1  v127
 BYTE   N03  Fs2
 BYTE   W24
 BYTE   GoTo
  POIN2 Label_9_0109AEC0
 BYTE   FINE

//**************** Track 11 (Midi-Chn.10) ****************//

NuclearFusion_011:
// 000   ----------------------------------------
 BYTE   KEYSH   NuclearFusion_key+0
 BYTE   VOICE   127
 BYTE   VOL   36*NuclearFusion_mvl/mxv
 BYTE   PAN   c_v+0
 BYTE   N04  Bn0  v127
 BYTE   W04
 BYTE   N04
 BYTE   W04
 BYTE   N04
 BYTE   W04
 BYTE   N03  En1
 BYTE   N03  As1
 BYTE   W24
Label_10_0109B52D:
 BYTE   N03  Bn0  v127
 BYTE   W24
 BYTE   En1  v100
 BYTE   N03  As1  v120
 BYTE   W24
 BYTE   Bn0  v127
 BYTE   W12
// 001   ----------------------------------------
Label_10_0109B53A:
 BYTE   W12
 BYTE   N03  En1  v100
 BYTE   N03  As1  v120
 BYTE   W24
 BYTE   Bn0  v127
 BYTE   W24
 BYTE   En1  v100
 BYTE   N03  As1  v120
 BYTE   W24
 BYTE   Bn0  v127
 BYTE   W12
 BYTE   PEND 
// 002   ----------------------------------------
Label_10_0109B54F:
 BYTE   W12
 BYTE   N03  En1  v100
 BYTE   N03  As1  v120
 BYTE   W18
 BYTE   Bn0  v127
 BYTE   W06
 BYTE   N03
 BYTE   W24
 BYTE   En1  v100
 BYTE   N03  As1  v120
 BYTE   W24
 BYTE   Bn0  v127
 BYTE   W12
 BYTE   PEND 
 BYTE   PATT
  POIN2 Label_10_0109B53A
// 003   ----------------------------------------
Label_10_0109B56B:
 BYTE   N03  Bn0  v127
 BYTE   W12
 BYTE   En1  v100
 BYTE   N03  As1  v120
 BYTE   W12
 BYTE   Bn0  v127
 BYTE   W06
 BYTE   N03
 BYTE   W06
 BYTE   N03
 BYTE   W06
 BYTE   N03
 BYTE   W06
 BYTE   N03
 BYTE   W06
 BYTE   N03
 BYTE   W06
 BYTE   En1  v092
 BYTE   N03  As1  v112
 BYTE   W12
 BYTE   Bn0  v127
 BYTE   W06
 BYTE   N03
 BYTE   W06
 BYTE   N03
 BYTE   W06
 BYTE   N03
 BYTE   W06
 BYTE   PEND 
// 004   ----------------------------------------
Label_10_0109B592:
 BYTE   N03  En1  v092
 BYTE   N03  As1  v112
 BYTE   W12
 BYTE   Bn0  v127
 BYTE   W06
 BYTE   N03
 BYTE   W06
 BYTE   N03
 BYTE   W06
 BYTE   N03
 BYTE   W06
 BYTE   En1  v092
 BYTE   N03  As1  v112
 BYTE   W12
 BYTE   Bn0  v127
 BYTE   W06
 BYTE   N03
 BYTE   W06
 BYTE   N03
 BYTE   W06
 BYTE   N03
 BYTE   W06
 BYTE   En1  v092
 BYTE   N03  As1  v112
 BYTE   W12
 BYTE   Bn0  v127
 BYTE   W06
 BYTE   N03
 BYTE   W06
 BYTE   PEND 
// 005   ----------------------------------------
Label_10_0109B5BD:
 BYTE   W06
 BYTE   N03  Bn0  v127
 BYTE   W06
 BYTE   En1  v092
 BYTE   N03  As1  v112
 BYTE   W06
 BYTE   En1  v092
 BYTE   N03  As1  v112
 BYTE   W12
 BYTE   Bn0  v127
 BYTE   W06
 BYTE   N03
 BYTE   W24
 BYTE   En1  v100
 BYTE   N03  As1  v120
 BYTE   W24
 BYTE   Bn0  v127
 BYTE   W12
 BYTE   PEND 
// 006   ----------------------------------------
Label_10_0109B5DD:
 BYTE   W12
 BYTE   N03  En1  v100
 BYTE   N03  As1  v120
 BYTE   W24
 BYTE   Bn0  v127
 BYTE   W24
 BYTE   En1  v100
 BYTE   N03  As1  v120
 BYTE   W18
 BYTE   Bn0  v127
 BYTE   W06
 BYTE   N03
 BYTE   W12
 BYTE   PEND 
// 007   ----------------------------------------
Label_10_0109B5F4:
 BYTE   N03  Bn0  v127
 BYTE   W12
 BYTE   En1  v100
 BYTE   N03  As1  v120
 BYTE   W12
 BYTE   N04  Bn0  v127
 BYTE   W04
 BYTE   N04
 BYTE   W04
 BYTE   N04
 BYTE   W04
 BYTE   N03
 BYTE   W24
 BYTE   En1  v100
 BYTE   N03  As1  v120
 BYTE   W24
 BYTE   Bn0  v127
 BYTE   W12
 BYTE   PEND 
 BYTE   PATT
  POIN2 Label_10_0109B53A
 BYTE   PATT
  POIN2 Label_10_0109B54F
 BYTE   PATT
  POIN2 Label_10_0109B53A
 BYTE   PATT
  POIN2 Label_10_0109B56B
 BYTE   PATT
  POIN2 Label_10_0109B592
 BYTE   PATT
  POIN2 Label_10_0109B5BD
// 008   ----------------------------------------
Label_10_0109B630:
 BYTE   W12
 BYTE   N03  En1  v100
 BYTE   N03  As1  v120
 BYTE   W24
 BYTE   Bn0  v127
 BYTE   W24
 BYTE   En1  v100
 BYTE   N03  As1  v120
 BYTE   W18
 BYTE   Bn0  v127
 BYTE   W06
 BYTE   N03
 BYTE   W06
 BYTE   En1  v092
 BYTE   N03  As1  v112
 BYTE   W06
 BYTE   PEND 
// 009   ----------------------------------------
 BYTE   En1  v092
 BYTE   N03  As1  v112
 BYTE   W06
 BYTE   Bn0  v127
 BYTE   W06
 BYTE   En1  v092
 BYTE   N03  As1  v112
 BYTE   W06
 BYTE   Bn0  v127
 BYTE   W06
 BYTE   En1  v092
 BYTE   N03  As1  v112
 BYTE   W06
 BYTE   En1  v092
 BYTE   N03  As1  v112
 BYTE   W06
 BYTE   Bn0  v127
 BYTE   W24
 BYTE   En1  v100
 BYTE   N03  As1  v120
 BYTE   W24
 BYTE   Bn0  v127
 BYTE   W12
 BYTE   PATT
  POIN2 Label_10_0109B53A
 BYTE   PATT
  POIN2 Label_10_0109B54F
 BYTE   PATT
  POIN2 Label_10_0109B53A
 BYTE   PATT
  POIN2 Label_10_0109B56B
 BYTE   PATT
  POIN2 Label_10_0109B592
 BYTE   PATT
  POIN2 Label_10_0109B5BD
 BYTE   PATT
  POIN2 Label_10_0109B5DD
 BYTE   PATT
  POIN2 Label_10_0109B5F4
 BYTE   PATT
  POIN2 Label_10_0109B53A
 BYTE   PATT
  POIN2 Label_10_0109B54F
 BYTE   PATT
  POIN2 Label_10_0109B53A
 BYTE   PATT
  POIN2 Label_10_0109B56B
 BYTE   PATT
  POIN2 Label_10_0109B592
 BYTE   PATT
  POIN2 Label_10_0109B5BD
 BYTE   PATT
  POIN2 Label_10_0109B630
// 010   ----------------------------------------
 BYTE   N03  En1  v092
 BYTE   N03  As1  v112
 BYTE   W06
 BYTE   Bn0  v127
 BYTE   W06
 BYTE   En1  v092
 BYTE   N03  As1  v112
 BYTE   W06
 BYTE   Bn0  v127
 BYTE   W06
 BYTE   En1  v092
 BYTE   N03  As1  v112
 BYTE   W06
 BYTE   En1  v092
 BYTE   N03  As1  v112
 BYTE   W06
 BYTE   Bn0  v127
 BYTE   W18
 BYTE   N03
 BYTE   W06
 BYTE   En1  v092
 BYTE   N03  As1  v112
 BYTE   W12
 BYTE   Bn0  v127
 BYTE   W12
 BYTE   N03
 BYTE   W12
// 011   ----------------------------------------
Label_10_0109B6F1:
 BYTE   W12
 BYTE   N03  En1  v100
 BYTE   N03  As1  v120
 BYTE   W12
 BYTE   Bn0  v127
 BYTE   W06
 BYTE   N03
 BYTE   W06
 BYTE   N03
 BYTE   W18
 BYTE   N03
 BYTE   W06
 BYTE   En1  v092
 BYTE   N03  As1  v112
 BYTE   W12
 BYTE   Bn0  v127
 BYTE   W12
 BYTE   N03
 BYTE   W06
 BYTE   N03
 BYTE   W06
 BYTE   PEND 
// 012   ----------------------------------------
Label_10_0109B710:
 BYTE   W06
 BYTE   N03  Bn0  v127
 BYTE   W06
 BYTE   En1  v100
 BYTE   N03  As1  v120
 BYTE   W12
 BYTE   Bn0  v127
 BYTE   W12
 BYTE   N03
 BYTE   W24
 BYTE   En1  v092
 BYTE   N03  As1  v112
 BYTE   W24
 BYTE   Bn0  v127
 BYTE   W12
 BYTE   PEND 
// 013   ----------------------------------------
Label_10_0109B72A:
 BYTE   W12
 BYTE   N03  En1  v100
 BYTE   N03  As1  v120
 BYTE   W18
 BYTE   Bn0  v127
 BYTE   W06
 BYTE   N03
 BYTE   W24
 BYTE   En1  v092
 BYTE   N03  As1  v112
 BYTE   W12
 BYTE   Bn0  v127
 BYTE   W12
 BYTE   N03
 BYTE   W06
 BYTE   N03
 BYTE   W06
 BYTE   PEND 
// 014   ----------------------------------------
Label_10_0109B745:
 BYTE   W06
 BYTE   N03  Bn0  v127
 BYTE   W06
 BYTE   En1  v100
 BYTE   N03  As1  v120
 BYTE   W06
 BYTE   Bn0  v127
 BYTE   W12
 BYTE   N03
 BYTE   W06
 BYTE   N03
 BYTE   W18
 BYTE   N03
 BYTE   W06
 BYTE   En1  v092
 BYTE   N03  As1  v112
 BYTE   W12
 BYTE   Bn0  v127
 BYTE   W12
 BYTE   N03
 BYTE   W12
 BYTE   PEND 
 BYTE   PATT
  POIN2 Label_10_0109B6F1
 BYTE   PATT
  POIN2 Label_10_0109B710
// 015   ----------------------------------------
 BYTE   W12
 BYTE   N03  En1  v100
 BYTE   N03  As1  v120
 BYTE   W18
 BYTE   Bn0  v127
 BYTE   W06
 BYTE   N03
 BYTE   W24
 BYTE   En1  v092
 BYTE   N03  As1  v112
 BYTE   W18
 BYTE   Bn0  v127
 BYTE   W06
 BYTE   N03
 BYTE   W12
// 016   ----------------------------------------
 BYTE   N03
 BYTE   W12
 BYTE   N03
 BYTE   W06
 BYTE   En1  v092
 BYTE   N03  As1  v112
 BYTE   W06
 BYTE   En1  v092
 BYTE   N03  As1  v112
 BYTE   W06
 BYTE   En1  v092
 BYTE   N03  As1  v112
 BYTE   W06
 BYTE   Bn0  v127
 BYTE   W18
 BYTE   N03
 BYTE   W06
 BYTE   En1  v092
 BYTE   N03  As1  v112
 BYTE   W12
 BYTE   Bn0  v127
 BYTE   W12
 BYTE   N03
 BYTE   W12
 BYTE   PATT
  POIN2 Label_10_0109B6F1
 BYTE   PATT
  POIN2 Label_10_0109B710
 BYTE   PATT
  POIN2 Label_10_0109B72A
 BYTE   PATT
  POIN2 Label_10_0109B745
 BYTE   PATT
  POIN2 Label_10_0109B6F1
 BYTE   PATT
  POIN2 Label_10_0109B710
// 017   ----------------------------------------
 BYTE   W12
 BYTE   N03  En1  v100
 BYTE   N03  As1  v120
 BYTE   W18
 BYTE   Bn0  v127
 BYTE   W06
 BYTE   N03
 BYTE   W12
 BYTE   En1  v092
 BYTE   N03  As1  v112
 BYTE   W12
 BYTE   En1  v092
 BYTE   N03  As1  v112
 BYTE   W12
 BYTE   N04  Bn0  v127
 BYTE   W04
 BYTE   N04
 BYTE   W04
 BYTE   N04
 BYTE   W04
 BYTE   N03
 BYTE   W06
 BYTE   En1  v088
 BYTE   N03  As1  v108
 BYTE   W06
// 018   ----------------------------------------
 BYTE   En1  v088
 BYTE   N03  As1  v108
 BYTE   W06
 BYTE   En1  v088
 BYTE   N03  As1  v108
 BYTE   W06
 BYTE   Bn0  v127
 BYTE   W84
// 019   ----------------------------------------
 BYTE   W96
// 020   ----------------------------------------
 BYTE   W96
// 021   ----------------------------------------
 BYTE   W96
// 022   ----------------------------------------
 BYTE   En1  v100
 BYTE   N03  As1  v120
 BYTE   W12
 BYTE   Bn0  v127
 BYTE   W06
 BYTE   En1  v092
 BYTE   N03  As1  v112
 BYTE   W12
 BYTE   En1  v092
 BYTE   N03  As1  v112
 BYTE   W06
 BYTE   Bn0  v127
 BYTE   W18
 BYTE   N03
 BYTE   W06
 BYTE   En1  v092
 BYTE   N03  As1  v112
 BYTE   W12
 BYTE   Bn0  v127
 BYTE   W12
 BYTE   N03
 BYTE   W12
// 023   ----------------------------------------
Label_10_0109B82B:
 BYTE   W12
 BYTE   N03  En1  v100
 BYTE   N03  As1  v120
 BYTE   W24
 BYTE   Bn0  v127
 BYTE   W18
 BYTE   N03
 BYTE   W06
 BYTE   En1  v092
 BYTE   N03  As1  v112
 BYTE   W12
 BYTE   Bn0  v127
 BYTE   W12
 BYTE   N03
 BYTE   W12
 BYTE   PEND 
// 024   ----------------------------------------
 BYTE   W12
 BYTE   En1  v100
 BYTE   N03  As1  v120
 BYTE   W12
 BYTE   Bn0  v127
 BYTE   W12
 BYTE   N03
 BYTE   W18
 BYTE   N03
 BYTE   W06
 BYTE   En1  v092
 BYTE   N03  As1  v112
 BYTE   W12
 BYTE   Bn0  v127
 BYTE   W12
 BYTE   N03
 BYTE   W12
 BYTE   PATT
  POIN2 Label_10_0109B82B
 BYTE   PATT
  POIN2 Label_10_0109B82B
// 025   ----------------------------------------
 BYTE   W06
 BYTE   N03  Bn0  v127
 BYTE   W06
 BYTE   En1  v100
 BYTE   N03  As1  v120
 BYTE   W12
 BYTE   Bn0  v127
 BYTE   W12
 BYTE   N03
 BYTE   W18
 BYTE   N03
 BYTE   W06
 BYTE   En1  v092
 BYTE   N03  As1  v112
 BYTE   W12
 BYTE   Bn0  v127
 BYTE   W12
 BYTE   N03
 BYTE   W06
 BYTE   N03
 BYTE   W06
// 026   ----------------------------------------
 BYTE   N03
 BYTE   W01
 BYTE   W05
 BYTE   N03
 BYTE   W06
 BYTE   En1
 BYTE   N03  As1
 BYTE   W24
 BYTE   GoTo
  POIN2 Label_10_0109B52D
 BYTE   FINE

//******************************************************//
	ALIGN 4

NuclearFusion:
	BYTE	11	// NumTrks
	BYTE	0	// NumBlks
	BYTE	NuclearFusion_pri	// Priority
	BYTE	NuclearFusion_rev	// Reverb.
    
	POIN2	NuclearFusion_grp
    
	POIN2	NuclearFusion_001
	POIN2	NuclearFusion_002
	POIN2	NuclearFusion_003
	POIN2	NuclearFusion_004
	POIN2	NuclearFusion_005
	POIN2	NuclearFusion_006
	POIN2	NuclearFusion_007
	POIN2	NuclearFusion_008
	POIN2	NuclearFusion_009
	POIN2	NuclearFusion_010
	POIN2	NuclearFusion_011

	
