//Event file generated from Sappy .s format.
	#include "MPlayDef.event"

	#define	RebelstarBGM6_grp  RebelstarBGM6InstrumentTable
	#define	RebelstarBGM6_pri  10
	#define	RebelstarBGM6_rev  128
	#define	RebelstarBGM6_mvl  127
	#define	RebelstarBGM6_key  0
	#define	RebelstarBGM6_tbs  1
	#define	RebelstarBGM6_exg  0
	#define	RebelstarBGM6_cmp  1

	// .rodata
	//	RebelstarBGM6
	ALIGN 4


//**************** Track 1 (Midi-Chn.0) ****************//

RebelstarBGM6_001:
// 000   ----------------------------------------
 BYTE   KEYSH   RebelstarBGM6_key+0
 BYTE   TEMPO   88*RebelstarBGM6_tbs/2
 BYTE   VOICE   1
 BYTE   VOL   81*RebelstarBGM6_mvl/mxv
 BYTE   PAN   c_v+24
 BYTE   W24
 BYTE   N02  An2  v116
 BYTE   W03
 BYTE   An2  v092
 BYTE   W03
 BYTE   An2  v116
 BYTE   W06
 BYTE   N04  An2  v124
 BYTE   W06
 BYTE   N03  Fn2
 BYTE   W12
 BYTE   Fn2  v108
 BYTE   W12
 BYTE   N04  Cn2  v100
 BYTE   W12
 BYTE   N03  Fn3  v108
 BYTE   W06
 BYTE   W30
// 001   ----------------------------------------
 BYTE   N01  Bn1  v096
 BYTE   W03
 BYTE   N02  Bn1  v112
 BYTE   W03
 BYTE   N03  Bn1  v116
 BYTE   W06
 BYTE   Bn1  v124
 BYTE   W06
 BYTE   N04  Bn1  v127
 BYTE   W06
 BYTE   N02  An2
 BYTE   W12
 BYTE   N04  An2  v124
 BYTE   W06
 BYTE   N03  En2  v116
 BYTE   W06
 BYTE   N04  En2  v100
 BYTE   W06
 BYTE   W18
 BYTE   N03  Cn2  v108
 BYTE   W06
 BYTE   N04  Cn3  v124
 BYTE   W06
 BYTE   N03  Cn2  v116
 BYTE   W12
// 002   ----------------------------------------
 BYTE   N04  Cn4  v112
 BYTE   W12
 BYTE   N02  Dn3  v116
 BYTE   W06
 BYTE   Cn2  v092
 BYTE   W06
 BYTE   N04  Cn2  v112
 BYTE   W12
 BYTE   N03  Gn2  v124
 BYTE   W06
 BYTE   W18
 BYTE   N01  Fn2  v088
 BYTE   W03
 BYTE   N02  Fn2  v112
 BYTE   W03
 BYTE   N03  Fn2  v124
 BYTE   W12
 BYTE   N02  Fn2  v112
 BYTE   W06
 BYTE   Fn2  v127
 BYTE   W12
// 003   ----------------------------------------
 BYTE   N03  Dn2  v112
 BYTE   W06
 BYTE   Cn2  v088
 BYTE   W06
 BYTE   Dn2  v112
 BYTE   W06
 BYTE   N04  Cn2
 BYTE   W06
 BYTE   N02  Cn2  v096
 BYTE   W06
Label_0_0123A0B7:
 BYTE   W84
// 004   ----------------------------------------
 BYTE   W84
 BYTE   W84
// 005   ----------------------------------------
 BYTE   W84
 BYTE   W84
// 006   ----------------------------------------
 BYTE   W84
 BYTE   W84
// 007   ----------------------------------------
 BYTE   W84
 BYTE   W84
// 008   ----------------------------------------
 BYTE   W84
 BYTE   W84
// 009   ----------------------------------------
 BYTE   W84
 BYTE   W84
// 010   ----------------------------------------
 BYTE   W84
 BYTE   W24
// 011   ----------------------------------------
 BYTE   N03  Cn2  v127
 BYTE   W06
 BYTE   N04
 BYTE   W30
 BYTE   N03
 BYTE   W06
 BYTE   Cn2  v116
 BYTE   W06
 BYTE   N04
 BYTE   W06
 BYTE   Cn2  v124
 BYTE   W06
 BYTE   W24
 BYTE   N03  Cn2  v127
 BYTE   W06
 BYTE   N04  Cn2  v124
 BYTE   W30
// 012   ----------------------------------------
 BYTE   N03  Fn2
 BYTE   W06
 BYTE   N04
 BYTE   W06
 BYTE   N02  Cn2
 BYTE   W06
 BYTE   Cn2  v108
 BYTE   W06
 BYTE   W24
 BYTE   N03  Cn2  v124
 BYTE   W06
 BYTE   Cn2  v116
 BYTE   W30
 BYTE   Cn2  v127
 BYTE   W06
 BYTE   Cn2  v124
 BYTE   W06
// 013   ----------------------------------------
 BYTE   Cn2  v112
 BYTE   W06
 BYTE   Cn2  v127
 BYTE   W06
 BYTE   W24
 BYTE   N03
 BYTE   W06
 BYTE   Cn2  v116
 BYTE   W06
 BYTE   N04  Cn2  v127
 BYTE   W24
 BYTE   N03  Cn3
 BYTE   W06
 BYTE   N04  Gn2  v124
 BYTE   W18
// 014   ----------------------------------------
 BYTE   W84
 BYTE   W84
// 015   ----------------------------------------
 BYTE   W84
 BYTE   W84
// 016   ----------------------------------------
 BYTE   W84
 BYTE   W84
// 017   ----------------------------------------
 BYTE   W84
 BYTE   W84
// 018   ----------------------------------------
 BYTE   W84
 BYTE   W84
// 019   ----------------------------------------
 BYTE   W84
 BYTE   W84
// 020   ----------------------------------------
 BYTE   GoTo
  POIN2 Label_0_0123A0B7
 BYTE   FINE

//**************** Track 2 (Midi-Chn.1) ****************//

RebelstarBGM6_002:
// 000   ----------------------------------------
 BYTE   KEYSH   RebelstarBGM6_key+0
 BYTE   VOICE   2
 BYTE   VOL   66*RebelstarBGM6_mvl/mxv
 BYTE   PAN   c_v-41
 BYTE   N04  Cn2  v116
 BYTE   W06
 BYTE   Dn2  v096
 BYTE   W06
 BYTE   Cn2
 BYTE   W06
 BYTE   N02  Dn2  v064
 BYTE   W06
 BYTE   N06  Ds2  v116
 BYTE   W06
 BYTE   N04  Cn2  v092
 BYTE   W06
 BYTE   Dn2  v068
 BYTE   W06
 BYTE   Cn2  v124
 BYTE   W06
 BYTE   Ds2  v084
 BYTE   W06
 BYTE   Cn2  v100
 BYTE   W06
 BYTE   Dn2  v108
 BYTE   W06
 BYTE   N05  Ds2  v088
 BYTE   W06
 BYTE   N04  Dn2
 BYTE   W06
 BYTE   N05  Ds2  v104
 BYTE   W06
Label_1_0123A158:
 BYTE   N04  Cn2  v100
 BYTE   W06
 BYTE   N05  Dn2  v080
 BYTE   W06
// 001   ----------------------------------------
 BYTE   Cn2  v100
 BYTE   W06
 BYTE   N03  Dn2  v092
 BYTE   W06
 BYTE   N07  Ds2  v104
 BYTE   W06
 BYTE   N05  Cn2  v108
 BYTE   W06
 BYTE   N04  Dn2  v088
 BYTE   W06
 BYTE   Cn2  v108
 BYTE   W06
 BYTE   Ds2  v088
 BYTE   W06
 BYTE   Cn2  v100
 BYTE   W06
 BYTE   Dn2  v116
 BYTE   W06
 BYTE   N05  Ds2  v092
 BYTE   W06
 BYTE   N04  Dn2  v088
 BYTE   W06
 BYTE   N05  Ds2  v104
 BYTE   W06
 BYTE   PEND 
Label_1_0123A18C:
 BYTE   N05  Cn2  v124
 BYTE   W06
 BYTE   N04  Dn2  v084
 BYTE   W06
 BYTE   N05  Cn2  v116
 BYTE   W06
 BYTE   N04  Dn2  v108
 BYTE   W06
// 002   ----------------------------------------
 BYTE   N07  Ds2  v104
 BYTE   W06
 BYTE   N04  Cn2  v100
 BYTE   W06
 BYTE   N05  Dn2  v084
 BYTE   W06
 BYTE   N04  Cn2  v116
 BYTE   W06
 BYTE   N05  Dn2  v092
 BYTE   W06
 BYTE   Cn2  v108
 BYTE   W06
 BYTE   Dn2  v076
 BYTE   W06
 BYTE   N06  Ds2  v104
 BYTE   W06
 BYTE   N05  Dn2  v080
 BYTE   W06
 BYTE   N06  Ds2  v104
 BYTE   W06
 BYTE   PEND 
Label_1_0123A1C3:
 BYTE   N05  Cn2  v124
 BYTE   W06
 BYTE   Dn2  v084
 BYTE   W06
 BYTE   Cn2  v108
 BYTE   W06
 BYTE   N04  Dn2  v092
 BYTE   W06
 BYTE   N08  Ds2  v116
 BYTE   W06
 BYTE   N04  Cn2  v112
 BYTE   W06
// 003   ----------------------------------------
 BYTE   Dn2  v100
 BYTE   W06
 BYTE   N03  Cn2  v108
 BYTE   W06
 BYTE   N04  Dn2  v100
 BYTE   W06
 BYTE   Cn2  v112
 BYTE   W06
 BYTE   N05  Dn2  v116
 BYTE   W06
 BYTE   N06  Ds2  v092
 BYTE   W06
 BYTE   N05  Dn2  v108
 BYTE   W06
 BYTE   N03  Ds2  v116
 BYTE   W06
 BYTE   PEND 
Label_1_0123A1F8:
 BYTE   N04  Cn2  v116
 BYTE   W06
 BYTE   Dn2  v096
 BYTE   W06
 BYTE   Cn2
 BYTE   W06
 BYTE   N02  Dn2  v064
 BYTE   W06
 BYTE   N06  Ds2  v116
 BYTE   W06
 BYTE   N04  Cn2  v092
 BYTE   W06
 BYTE   Dn2  v068
 BYTE   W06
 BYTE   Cn2  v124
 BYTE   W06
// 004   ----------------------------------------
 BYTE   Ds2  v084
 BYTE   W06
 BYTE   Cn2  v100
 BYTE   W06
 BYTE   Dn2  v108
 BYTE   W06
 BYTE   N05  Ds2  v088
 BYTE   W06
 BYTE   N04  Dn2
 BYTE   W06
 BYTE   N05  Ds2  v104
 BYTE   W06
 BYTE   PEND 
 BYTE   PATT
  POIN2 Label_1_0123A158
 BYTE   PATT
  POIN2 Label_1_0123A18C
 BYTE   PATT
  POIN2 Label_1_0123A1C3
 BYTE   PATT
  POIN2 Label_1_0123A1F8
 BYTE   PATT
  POIN2 Label_1_0123A158
 BYTE   PATT
  POIN2 Label_1_0123A18C
 BYTE   PATT
  POIN2 Label_1_0123A1C3
 BYTE   PATT
  POIN2 Label_1_0123A1F8
 BYTE   PATT
  POIN2 Label_1_0123A158
 BYTE   PATT
  POIN2 Label_1_0123A18C
 BYTE   PATT
  POIN2 Label_1_0123A1C3
 BYTE   PATT
  POIN2 Label_1_0123A1F8
 BYTE   PATT
  POIN2 Label_1_0123A158
// 005   ----------------------------------------
 BYTE   W84
 BYTE   W84
// 006   ----------------------------------------
 BYTE   W84
 BYTE   W84
// 007   ----------------------------------------
 BYTE   N05  Cn2  v100
 BYTE   W12
 BYTE   Cn1
 BYTE   W12
 BYTE   N08  Cn2  v108
 BYTE   W12
 BYTE   N05  Cn1  v084
 BYTE   W12
 BYTE   N08  Cn2  v100
 BYTE   W12
 BYTE   N05  Cn1  v088
 BYTE   W12
 BYTE   N06  Cn2  v076
 BYTE   W12
 BYTE   N08  Cn1  v108
 BYTE   W12
// 008   ----------------------------------------
 BYTE   N07  Cn2  v080
 BYTE   W12
 BYTE   Cn1  v100
 BYTE   W12
 BYTE   N08  Cn2  v084
 BYTE   W12
 BYTE   N06  Cn1  v096
 BYTE   W12
 BYTE   N04  Cn2  v084
 BYTE   W06
 BYTE   Cn1  v100
 BYTE   W12
 BYTE   Cn2  v080
 BYTE   W06
 BYTE   N07  Cn1  v096
 BYTE   W12
 BYTE   Cn2  v080
 BYTE   W12
// 009   ----------------------------------------
 BYTE   N06  Cn1  v092
 BYTE   W12
 BYTE   N07  Cn2  v084
 BYTE   W12
 BYTE   N05  Cn1  v096
 BYTE   W12
 BYTE   N04  Cn2  v080
 BYTE   W06
 BYTE   Cn1  v108
 BYTE   W12
 BYTE   Cn2  v072
 BYTE   W06
 BYTE   N08  Cn1  v100
 BYTE   W12
 BYTE   N09  Cn2  v092
 BYTE   W12
 BYTE   N07  Cn1  v108
 BYTE   W12
// 010   ----------------------------------------
 BYTE   N04  Cn2  v092
 BYTE   W06
 BYTE   N02  Cn1  v076
 BYTE   W06
 BYTE   N04  Cn1  v072
 BYTE   W06
 BYTE   N05  Cn2  v100
 BYTE   W12
 BYTE   N03  Cn1  v108
 BYTE   W12
 BYTE   N02  Cn2  v092
 BYTE   W06
 BYTE   W84
// 011   ----------------------------------------
 BYTE   W84
 BYTE   W84
// 012   ----------------------------------------
 BYTE   W84
 BYTE   W84
// 013   ----------------------------------------
 BYTE   W84
 BYTE   W84
// 014   ----------------------------------------
 BYTE   W84
 BYTE   GoTo
  POIN2 Label_1_0123A1F8
 BYTE   FINE

//**************** Track 3 (Midi-Chn.2) ****************//

RebelstarBGM6_003:
// 000   ----------------------------------------
 BYTE   KEYSH   RebelstarBGM6_key+0
 BYTE   VOICE   3
 BYTE   VOL   81*RebelstarBGM6_mvl/mxv
 BYTE   PAN   c_v+19
 BYTE   W84
 BYTE   W84
// 001   ----------------------------------------
 BYTE   W84
 BYTE   W84
// 002   ----------------------------------------
Label_2_0123A2FF:
 BYTE   N80  Cn2  v076
 BYTE   N76  Ds3  v084
 BYTE   N78  Cn4  v092
 BYTE   W84
 BYTE   N80  Gn1  v072
 BYTE   N32  Fn3  v076
 BYTE   N32  Dn4  v084
 BYTE   W36
// 003   ----------------------------------------
 BYTE   N40  Fn3  v076
 BYTE   N40  As3  v084
 BYTE   W48
 BYTE   N78  As1  v096
 BYTE   TIE  Ds3
 BYTE   TIE  Cn4  v080
 BYTE   W84
// 004   ----------------------------------------
 BYTE   N32  Gs1  v096
 BYTE   W36
 BYTE   N18  As1  v108
 BYTE   W24
 BYTE   N13  Ds2  v104
 BYTE   W12
 BYTE   N08  Dn2  v096
 BYTE   W03
 BYTE   EOT
 BYTE   Cn4
 BYTE   W01
 BYTE   Ds3
 BYTE   W08
 BYTE   N80  Cn2  v084
 BYTE   N78  Gn3  v068
 BYTE   N78  Ds4  v080
 BYTE   W84
// 005   ----------------------------------------
 BYTE   N32  Ds2  v092
 BYTE   N32  As3  v084
 BYTE   N32  Fn4
 BYTE   W36
 BYTE   N42  Dn2  v092
 BYTE   N42  Fn3  v096
 BYTE   N42  As3  v080
 BYTE   W48
 BYTE   N80  Ds2  v096
 BYTE   N80  As3  v088
 BYTE   N72  Gn4  v092
 BYTE   W84
// 006   ----------------------------------------
 BYTE   N68  Cn2  v072
 BYTE   N68  Fn3  v056
 BYTE   N68  Cn4  v084
 BYTE   W84
 BYTE   N78  Cn1  v108
 BYTE   N78  Gs3  v084
 BYTE   N78  Ds4  v088
 BYTE   W84
// 007   ----------------------------------------
 BYTE   N80  Dn1  v096
 BYTE   N32  Fn3  v036
 BYTE   N32  Dn4  v084
 BYTE   W36
 BYTE   N42  Fn3  v092
 BYTE   N44  As3
 BYTE   W48
 BYTE   N80  Ds1
 BYTE   N56  Ds3  v084
 BYTE   N56  Gn3  v068
 BYTE   W60
// 008   ----------------------------------------
 BYTE   N19  Gn3  v088
 BYTE   N19  As3  v092
 BYTE   W24
 BYTE   N80  Ds1  v060
 BYTE   N32  Fn3
 BYTE   N32  An3  v088
 BYTE   W36
 BYTE   N44  Cn3  v084
 BYTE   N42  Fn3
 BYTE   W48
// 009   ----------------------------------------
 BYTE   N80  Gs1
 BYTE   N56  Ds3  v088
 BYTE   N56  Gn3  v096
 BYTE   W60
 BYTE   N20  As2  v104
 BYTE   N21  Ds3  v080
 BYTE   W24
 BYTE   N56  As1  v096
 BYTE   N54  Cn3
 BYTE   N56  Fn3  v100
 BYTE   W60
// 010   ----------------------------------------
 BYTE   N20  As1  v092
 BYTE   N19  Fn2  v100
 BYTE   N19  Cn3  v108
 BYTE   W24
 BYTE   W84
// 011   ----------------------------------------
 BYTE   W84
 BYTE   W84
// 012   ----------------------------------------
 BYTE   W84
 BYTE   W84
// 013   ----------------------------------------
 BYTE   W84
 BYTE   W84
// 014   ----------------------------------------
 BYTE   W72
 BYTE   N08  Gn2  v092
 BYTE   N09  Cn3  v080
 BYTE   W12
 BYTE   N54  Cn3  v076
 BYTE   N52  Gn3  v080
 BYTE   W60
// 015   ----------------------------------------
 BYTE   N09  Gn2  v088
 BYTE   N09  Cn3
 BYTE   W12
 BYTE   N08  Cn3  v076
 BYTE   N08  Gn3
 BYTE   W12
 BYTE   N54  Cn3  v084
 BYTE   N54  Fn3  v080
 BYTE   W60
 BYTE   N08  Fn2  v092
 BYTE   N09  Cn3  v088
 BYTE   W12
// 016   ----------------------------------------
 BYTE   N08  Cn3  v084
 BYTE   N08  Fn3  v076
 BYTE   W12
 BYTE   N56  As2  v080
 BYTE   N56  Ds3  v084
 BYTE   W60
 BYTE   N08  Fn2  v092
 BYTE   N08  As2  v068
 BYTE   W12
 BYTE   N09
 BYTE   N08  Ds3  v088
 BYTE   W12
// 017   ----------------------------------------
 BYTE   N32  As2  v076
 BYTE   N32  Dn3  v092
 BYTE   W36
 BYTE   N42  Fn2
 BYTE   N42  As2  v068
 BYTE   W48
 BYTE   N56  Cn3  v092
 BYTE   N52  Fn3  v080
 BYTE   W60
// 018   ----------------------------------------
 BYTE   N09  Fn2  v088
 BYTE   N08  Cn3  v092
 BYTE   W12
 BYTE   N06  Cn3  v076
 BYTE   N07  Fn3  v080
 BYTE   W12
 BYTE   N52  Fn3  v088
 BYTE   N54  As3  v092
 BYTE   W60
 BYTE   N08  Cn3  v096
 BYTE   N07  Fn3  v080
 BYTE   W12
// 019   ----------------------------------------
 BYTE   N08  An2  v068
 BYTE   N08  Cn3  v092
 BYTE   W12
 BYTE   N56  As2  v076
 BYTE   N56  Dn3  v068
 BYTE   W60
 BYTE   N20  Fn2  v080
 BYTE   N20  As2  v068
 BYTE   W24
// 020   ----------------------------------------
 BYTE   N40  As2  v072
 BYTE   N42  Cn3  v080
 BYTE   W84
 BYTE   GoTo
  POIN2 Label_2_0123A2FF
 BYTE   FINE

//**************** Track 4 (Midi-Chn.3) ****************//

RebelstarBGM6_004:
// 000   ----------------------------------------
 BYTE   VOL   100*RebelstarBGM6_mvl/mxv
 BYTE   KEYSH   RebelstarBGM6_key+0
 BYTE   VOICE   4
 BYTE   W84
 BYTE   W84
// 001   ----------------------------------------
 BYTE   W84
 BYTE   W84
// 002   ----------------------------------------
Label_3_0123A46B:
 BYTE   N07  Cn1  v116
 BYTE   W12
 BYTE   Gn1  v096
 BYTE   W12
 BYTE   As1  v104
 BYTE   W12
 BYTE   N04  Cn1  v096
 BYTE   W06
 BYTE   N07  Gn1
 BYTE   W12
 BYTE   Ds2  v104
 BYTE   W12
 BYTE   N08  Cn1  v100
 BYTE   W12
 BYTE   N05  Gn1  v092
 BYTE   W06
 BYTE   N09  Cn1  v108
 BYTE   W12
// 003   ----------------------------------------
 BYTE   N07  Gn1  v100
 BYTE   W12
 BYTE   N08  Cn2  v084
 BYTE   W12
 BYTE   N05  Cn1  v108
 BYTE   W06
 BYTE   N08  Gn1  v100
 BYTE   W12
 BYTE   N07  Ds2  v108
 BYTE   W12
 BYTE   N08  Gn1  v100
 BYTE   W12
 BYTE   N05  As1  v104
 BYTE   W06
 BYTE   N09  As0
 BYTE   W12
 BYTE   N08  As1  v116
 BYTE   W12
// 004   ----------------------------------------
 BYTE   N09  Fn1  v096
 BYTE   W12
 BYTE   N04  As0
 BYTE   W06
 BYTE   N06  Cn2  v108
 BYTE   W12
 BYTE   N07  As0
 BYTE   W12
 BYTE   Fn1
 BYTE   W12
 BYTE   N04  As1  v116
 BYTE   W06
 BYTE   N08  Gs0
 BYTE   W12
 BYTE   Ds1  v104
 BYTE   W12
 BYTE   N07  As1  v116
 BYTE   W12
// 005   ----------------------------------------
 BYTE   N03  Gs0  v108
 BYTE   W06
 BYTE   N08  As0
 BYTE   W12
 BYTE   N07  Fn1  v116
 BYTE   W12
 BYTE   N08  Cn2  v108
 BYTE   W12
 BYTE   N04  As0  v096
 BYTE   W06
 BYTE   N09  Cn1  v100
 BYTE   W12
 BYTE   N08  Gn1  v096
 BYTE   W12
 BYTE   N06  Dn2  v112
 BYTE   W12
 BYTE   N04  Cn1  v108
 BYTE   W06
 BYTE   N07  Gn1  v100
 BYTE   W12
// 006   ----------------------------------------
 BYTE   N06  Ds2  v116
 BYTE   W12
 BYTE   N09  Gn1  v096
 BYTE   W12
 BYTE   N03  Cn1  v108
 BYTE   W06
 BYTE   N08  As0  v096
 BYTE   W12
 BYTE   Cn1  v100
 BYTE   W12
 BYTE   N09  Gn1  v096
 BYTE   W12
 BYTE   N04  Cn1  v108
 BYTE   W06
 BYTE   N09  Cn2  v100
 BYTE   W12
 BYTE   Gn1  v108
 BYTE   W12
// 007   ----------------------------------------
 BYTE   N08  Cn1  v100
 BYTE   W12
 BYTE   N06  Gn1
 BYTE   W06
 BYTE   N10  Ds1  v104
 BYTE   W12
 BYTE   N06  As1  v108
 BYTE   W12
 BYTE   N07  Fn2  v100
 BYTE   W12
 BYTE   N05  Ds1  v104
 BYTE   W06
 BYTE   N07  As1
 BYTE   W12
 BYTE   N06  Ds2  v108
 BYTE   W12
 BYTE   N07  As1  v096
 BYTE   W12
// 008   ----------------------------------------
 BYTE   N05  Ds2  v108
 BYTE   W06
 BYTE   N08  Ds1  v104
 BYTE   W12
 BYTE   As1
 BYTE   W12
 BYTE   Fn2  v096
 BYTE   W12
 BYTE   N04  Ds1
 BYTE   W06
 BYTE   N07  As1  v108
 BYTE   W12
 BYTE   N08  Ds2  v096
 BYTE   W12
 BYTE   Ds1  v108
 BYTE   W12
 BYTE   N04  As1  v116
 BYTE   W06
 BYTE   N09  Cn1  v124
 BYTE   W12
// 009   ----------------------------------------
 BYTE   N07  Gs1  v104
 BYTE   W12
 BYTE   Ds2  v108
 BYTE   W12
 BYTE   N04  Cn1
 BYTE   W06
 BYTE   N06  Gs1  v116
 BYTE   W12
 BYTE   N08  Ds2
 BYTE   W12
 BYTE   N09  Cn1  v112
 BYTE   W12
 BYTE   N03  Gs1  v116
 BYTE   W06
 BYTE   N10  Dn1  v112
 BYTE   W12
 BYTE   N07  As1  v127
 BYTE   W12
// 010   ----------------------------------------
 BYTE   N01  En2  v096
 BYTE   N09  Fn2  v092
 BYTE   W12
 BYTE   N05  Dn1  v112
 BYTE   W06
 BYTE   N07  As1  v116
 BYTE   W12
 BYTE   N06  Fn2  v108
 BYTE   W12
 BYTE   Dn1  v116
 BYTE   W12
 BYTE   N04  As1  v104
 BYTE   W06
 BYTE   N03  Ds1  v108
 BYTE   W06
 BYTE   Ds1  v096
 BYTE   W06
 BYTE   N07
 BYTE   W12
 BYTE   Ds2  v116
 BYTE   W12
// 011   ----------------------------------------
 BYTE   N04  Ds2  v108
 BYTE   W06
 BYTE   N06  Ds1  v116
 BYTE   W12
 BYTE   N06
 BYTE   W12
 BYTE   N07  Ds2
 BYTE   W12
 BYTE   N05  As1
 BYTE   W06
 BYTE   N03  Ds1  v104
 BYTE   W06
 BYTE   Ds1  v092
 BYTE   W06
 BYTE   N07
 BYTE   W12
 BYTE   Ds2  v108
 BYTE   W12
 BYTE   N05  As1  v088
 BYTE   W06
 BYTE   N07  Ds1  v116
 BYTE   W12
// 012   ----------------------------------------
 BYTE   N07
 BYTE   W12
 BYTE   Fn1
 BYTE   W12
 BYTE   N03  Gn1  v100
 BYTE   W06
 BYTE   Gs1  v108
 BYTE   W06
 BYTE   Gs1  v096
 BYTE   W06
 BYTE   N09  Gs1  v104
 BYTE   W12
 BYTE   N08  Gs0  v116
 BYTE   W12
 BYTE   N04  Gs0  v108
 BYTE   W06
 BYTE   N06  Gs1  v116
 BYTE   W12
 BYTE   N08
 BYTE   W12
// 013   ----------------------------------------
 BYTE   N09  Gs0
 BYTE   W12
 BYTE   N04  Gs1
 BYTE   W06
 BYTE   N03  As0  v108
 BYTE   W06
 BYTE   N02  As0  v104
 BYTE   W06
 BYTE   N08
 BYTE   W12
 BYTE   N06  As1  v116
 BYTE   W12
 BYTE   N05
 BYTE   W06
 BYTE   N06  As0
 BYTE   W12
 BYTE   N08
 BYTE   W12
 BYTE   N07  As1
 BYTE   W12
// 014   ----------------------------------------
 BYTE   N05  Cn2  v108
 BYTE   W06
Label_3_0123A607:
 BYTE   N04  Cn2  v112
 BYTE   W06
 BYTE   Cn2  v084
 BYTE   W06
 BYTE   N03  As1  v104
 BYTE   W06
 BYTE   N04  Cn2  v100
 BYTE   W12
 BYTE   Cn1  v124
 BYTE   W06
 BYTE   N02  Cn2  v096
 BYTE   W06
 BYTE   N03
 BYTE   W06
 BYTE   As1  v104
 BYTE   W06
 BYTE   N05  Cn2  v100
 BYTE   W12
 BYTE   N06  Cn1  v116
 BYTE   W12
 BYTE   N03  As1
 BYTE   W06
 BYTE   PEND 
Label_3_0123A62E:
 BYTE   N03  Cn2  v108
 BYTE   W06
// 015   ----------------------------------------
 BYTE   Cn2  v092
 BYTE   W06
 BYTE   N02  As1  v096
 BYTE   W06
 BYTE   N05  Cn2
 BYTE   W12
 BYTE   N04  Cn1  v116
 BYTE   W06
 BYTE   N02  Cn2  v096
 BYTE   W06
 BYTE   N03  Cn2  v076
 BYTE   W06
 BYTE   As1  v108
 BYTE   W06
 BYTE   N05  Cn2  v096
 BYTE   W12
 BYTE   N07  Ds1  v116
 BYTE   W12
 BYTE   N03  Ds2  v096
 BYTE   W06
 BYTE   PEND 
Label_3_0123A658:
 BYTE   N03  Cn2  v096
 BYTE   W06
 BYTE   Cn2  v076
 BYTE   W06
 BYTE   N02  As1  v092
 BYTE   W06
// 016   ----------------------------------------
 BYTE   N05  Cn2  v100
 BYTE   W12
 BYTE   Cn1  v116
 BYTE   W06
 BYTE   N02  Cn2  v084
 BYTE   W06
 BYTE   N03  Cn2  v080
 BYTE   W06
 BYTE   As1  v104
 BYTE   W06
 BYTE   N05  Cn2  v096
 BYTE   W12
 BYTE   N07  Cn1  v124
 BYTE   W12
 BYTE   N03  As1  v108
 BYTE   W06
 BYTE   PEND 
Label_3_0123A682:
 BYTE   N02  Cn2  v092
 BYTE   W06
 BYTE   N03  Cn2  v084
 BYTE   W06
 BYTE   As1  v096
 BYTE   W06
 BYTE   N06  Cn2
 BYTE   W12
// 017   ----------------------------------------
 BYTE   N05  Cn1  v116
 BYTE   W06
 BYTE   As1
 BYTE   W06
 BYTE   N06  As0  v108
 BYTE   W06
 BYTE   N04  Gn1  v096
 BYTE   W06
 BYTE   N05  Fn1  v088
 BYTE   W06
 BYTE   N04  Cn0  v096
 BYTE   W06
 BYTE   N08  Ds1  v108
 BYTE   W12
 BYTE   N01  Cn1  v096
 BYTE   W06
 BYTE   PEND 
 BYTE   PATT
  POIN2 Label_3_0123A607
 BYTE   PATT
  POIN2 Label_3_0123A62E
 BYTE   PATT
  POIN2 Label_3_0123A658
 BYTE   PATT
  POIN2 Label_3_0123A682
 BYTE   PATT
  POIN2 Label_3_0123A607
 BYTE   PATT
  POIN2 Label_3_0123A62E
 BYTE   PATT
  POIN2 Label_3_0123A658
 BYTE   PATT
  POIN2 Label_3_0123A682
 BYTE   PATT
  POIN2 Label_3_0123A607
 BYTE   PATT
  POIN2 Label_3_0123A62E
 BYTE   PATT
  POIN2 Label_3_0123A658
 BYTE   PATT
  POIN2 Label_3_0123A682
// 018   ----------------------------------------
 BYTE   GoTo
  POIN2 Label_3_0123A46B
 BYTE   FINE

//**************** Track 5 (Midi-Chn.4) ****************//

RebelstarBGM6_005:
// 000   ----------------------------------------
 BYTE   VOL   100*RebelstarBGM6_mvl/mxv
 BYTE   KEYSH   RebelstarBGM6_key+0
 BYTE   VOICE   5
 BYTE   W84
 BYTE   W84
// 001   ----------------------------------------
 BYTE   W84
 BYTE   W84
// 002   ----------------------------------------
Label_4_0123A6FB:
 BYTE   W84
 BYTE   W84
// 003   ----------------------------------------
 BYTE   W84
 BYTE   W84
// 004   ----------------------------------------
 BYTE   W84
 BYTE   W84
// 005   ----------------------------------------
 BYTE   W84
 BYTE   W84
// 006   ----------------------------------------
 BYTE   W84
 BYTE   W84
// 007   ----------------------------------------
 BYTE   W84
 BYTE   W84
// 008   ----------------------------------------
 BYTE   W84
 BYTE   W84
// 009   ----------------------------------------
Label_4_0123A709:
 BYTE   N07  Cn1  v124
 BYTE   N07  Cn2  v116
 BYTE   W12
 BYTE   N06  Cn1  v124
 BYTE   N06  Cn2  v108
 BYTE   W24
 BYTE   N07  Cn1  v112
 BYTE   N07  Cn2  v108
 BYTE   W12
 BYTE   Cn1  v116
 BYTE   N08  Cn2
 BYTE   W36
 BYTE   PEND 
Label_4_0123A724:
 BYTE   N06  Ds1  v108
 BYTE   N06  Ds2  v116
 BYTE   W12
// 010   ----------------------------------------
 BYTE   N08  Ds1  v108
 BYTE   N08  Ds2  v104
 BYTE   W24
 BYTE   N06  As0  v108
 BYTE   N06  As1  v104
 BYTE   W12
 BYTE   N08  As0
 BYTE   N07  As1  v108
 BYTE   W36
 BYTE   PEND 
Label_4_0123A740:
 BYTE   N06  Cn1  v116
 BYTE   N06  Cn2  v100
 BYTE   W12
 BYTE   N07  Cn1  v112
 BYTE   N07  Cn2  v100
 BYTE   W24
// 011   ----------------------------------------
 BYTE   N06  Cn1  v116
 BYTE   N08  Cn2  v108
 BYTE   W12
 BYTE   Cn1  v116
 BYTE   N07  Cn2  v096
 BYTE   W36
 BYTE   PEND 
Label_4_0123A75C:
 BYTE   N06  Ds1  v116
 BYTE   N06  Ds2
 BYTE   W12
 BYTE   N08  Ds1  v104
 BYTE   N06  Ds2  v108
 BYTE   W24
 BYTE   As0  v104
 BYTE   N06  As1  v116
 BYTE   W12
// 012   ----------------------------------------
 BYTE   N07  As0  v104
 BYTE   N07  As1  v108
 BYTE   W36
 BYTE   PEND 
 BYTE   PATT
  POIN2 Label_4_0123A709
 BYTE   PATT
  POIN2 Label_4_0123A724
 BYTE   PATT
  POIN2 Label_4_0123A740
 BYTE   PATT
  POIN2 Label_4_0123A75C
 BYTE   PATT
  POIN2 Label_4_0123A709
 BYTE   PATT
  POIN2 Label_4_0123A724
 BYTE   PATT
  POIN2 Label_4_0123A740
 BYTE   PATT
  POIN2 Label_4_0123A75C
 BYTE   PATT
  POIN2 Label_4_0123A709
 BYTE   PATT
  POIN2 Label_4_0123A724
 BYTE   PATT
  POIN2 Label_4_0123A740
 BYTE   PATT
  POIN2 Label_4_0123A75C
// 013   ----------------------------------------
 BYTE   GoTo
  POIN2 Label_4_0123A6FB
 BYTE   FINE

//**************** Track 6 (Midi-Chn.5) ****************//

RebelstarBGM6_006:
// 000   ----------------------------------------
 BYTE   VOL   100*RebelstarBGM6_mvl/mxv
 BYTE   KEYSH   RebelstarBGM6_key+0
 BYTE   VOICE   0
 BYTE   N06  FsM2  v116
 BYTE   W12
 BYTE   N06
 BYTE   W12
 BYTE   N12  GnM2  v124
 BYTE   W18
 BYTE   N06  FsM2
 BYTE   W12
 BYTE   FsM2  v116
 BYTE   W12
 BYTE   GnM2  v124
 BYTE   W06
 BYTE   N01  GsM2  v076
 BYTE   W03
 BYTE   GsM2  v060
 BYTE   W03
 BYTE   GsM2  v048
 BYTE   W03
 BYTE   N02  GsM2  v056
 BYTE   W03
 BYTE   N06  FsM2  v116
 BYTE   N06  GsM2  v127
 BYTE   W12
// 001   ----------------------------------------
 BYTE   FsM2  v116
 BYTE   W12
 BYTE   N12  GnM2
 BYTE   W18
 BYTE   N06  FsM2  v127
 BYTE   W12
 BYTE   FsM2  v116
 BYTE   W12
 BYTE   N12  GnM2  v127
 BYTE   W12
 BYTE   N03  GsM2  v096
 BYTE   W06
 BYTE   N06  FsM2  v116
 BYTE   N06  GsM2  v112
 BYTE   W12
 BYTE   FsM2  v116
 BYTE   W12
// 002   ----------------------------------------
 BYTE   N12  GnM2  v124
 BYTE   W18
 BYTE   N06  FsM2
 BYTE   W12
 BYTE   FsM2  v116
 BYTE   W12
 BYTE   GnM2  v124
 BYTE   W18
 BYTE   FsM2  v116
 BYTE   W12
 BYTE   N06
 BYTE   W06
 BYTE   N01  GsM2  v084
 BYTE   W03
 BYTE   N02  GsM2  v100
 BYTE   W03
 BYTE   N12  GnM2  v116
 BYTE   N04  GsM2  v124
 BYTE   W18
// 003   ----------------------------------------
 BYTE   N06  FsM2  v127
 BYTE   N04  GsM2
 BYTE   W12
 BYTE   N06  FsM2  v116
 BYTE   W12
 BYTE   N12  GnM2  v127
 BYTE   W18
Label_5_0123A835:
 BYTE   N06  FsM2  v116
 BYTE   W12
 BYTE   N06
 BYTE   W12
 BYTE   N12  GnM2  v124
 BYTE   W18
 BYTE   N06  FsM2
 BYTE   W12
// 004   ----------------------------------------
 BYTE   FsM2  v116
 BYTE   W12
 BYTE   GnM2  v124
 BYTE   W18
 BYTE   PEND 
Label_5_0123A849:
 BYTE   N06  FsM2  v116
 BYTE   W12
 BYTE   N06
 BYTE   W12
 BYTE   N12  GnM2
 BYTE   W18
 BYTE   N06  FsM2  v127
 BYTE   W12
 BYTE   FsM2  v116
 BYTE   W12
// 005   ----------------------------------------
 BYTE   N12  GnM2  v127
 BYTE   W18
 BYTE   PEND 
 BYTE   PATT
  POIN2 Label_5_0123A835
 BYTE   PATT
  POIN2 Label_5_0123A849
 BYTE   PATT
  POIN2 Label_5_0123A835
 BYTE   PATT
  POIN2 Label_5_0123A849
 BYTE   PATT
  POIN2 Label_5_0123A835
 BYTE   PATT
  POIN2 Label_5_0123A849
 BYTE   PATT
  POIN2 Label_5_0123A835
 BYTE   PATT
  POIN2 Label_5_0123A849
 BYTE   PATT
  POIN2 Label_5_0123A835
 BYTE   PATT
  POIN2 Label_5_0123A849
 BYTE   PATT
  POIN2 Label_5_0123A835
 BYTE   PATT
  POIN2 Label_5_0123A849
// 006   ----------------------------------------
 BYTE   N06  FsM2  v124
 BYTE   N04  AnM2  v108
 BYTE   W12
 BYTE   AnM2  v096
 BYTE   W06
 BYTE   N02  FsM2  v084
 BYTE   W06
 BYTE   N05  GnM2  v116
 BYTE   N04  AnM2  v108
 BYTE   W12
 BYTE   AnM2  v076
 BYTE   W06
 BYTE   FsM2  v124
 BYTE   W06
 BYTE   AnM2  v092
 BYTE   W06
 BYTE   FsM2  v112
 BYTE   W06
 BYTE   N03  AnM2  v092
 BYTE   W06
 BYTE   N04  GnM2  v124
 BYTE   W06
 BYTE   AnM2  v092
 BYTE   W06
 BYTE   N01  FsM2  v056
 BYTE   W06
 BYTE   N08  FsM2  v124
 BYTE   N04  AnM2  v108
 BYTE   W12
// 007   ----------------------------------------
 BYTE   AnM2  v096
 BYTE   W06
 BYTE   N02  FsM2  v072
 BYTE   W06
 BYTE   N09  GnM2  v124
 BYTE   N04  AnM2  v116
 BYTE   W12
 BYTE   AnM2  v092
 BYTE   W06
 BYTE   FsM2  v116
 BYTE   W06
 BYTE   AnM2  v096
 BYTE   W06
 BYTE   FsM2  v116
 BYTE   W06
 BYTE   AnM2  v092
 BYTE   W06
 BYTE   GnM2  v112
 BYTE   W06
 BYTE   N05  AnM2  v096
 BYTE   W06
 BYTE   N01  FsM2  v088
 BYTE   W06
 BYTE   N04  FsM2  v124
 BYTE   N05  AnM2  v108
 BYTE   W12
 BYTE   N04  FsM2  v116
 BYTE   N04  AnM2  v104
 BYTE   W12
// 008   ----------------------------------------
 BYTE   N05  GnM2  v124
 BYTE   N04  AnM2  v116
 BYTE   W12
 BYTE   AnM2  v096
 BYTE   W06
 BYTE   FsM2  v124
 BYTE   W06
 BYTE   AnM2  v092
 BYTE   W06
 BYTE   FsM2  v116
 BYTE   W06
 BYTE   AnM2  v092
 BYTE   W06
 BYTE   GnM2  v124
 BYTE   W06
 BYTE   N05  AnM2  v096
 BYTE   W06
 BYTE   N01  FsM2  v084
 BYTE   W06
 BYTE   N04  FsM2  v112
 BYTE   N04  AnM2  v108
 BYTE   W12
 BYTE   FsM2  v116
 BYTE   N03  AnM2  v104
 BYTE   W12
 BYTE   N05  GnM2  v116
 BYTE   N04  AnM2  v104
 BYTE   W12
// 009   ----------------------------------------
 BYTE   N05  AnM2  v096
 BYTE   W06
 BYTE   N02  FsM2  v108
 BYTE   W06
 BYTE   GnM2  v116
 BYTE   N04  AnM2  v096
 BYTE   W06
 BYTE   N03  GnM2  v112
 BYTE   W06
 BYTE   FsM2  v124
 BYTE   W06
 BYTE   N04  FsM2  v116
 BYTE   W06
 BYTE   N05  AnM2  v108
 BYTE   W06
 BYTE   N03  GnM2  v127
 BYTE   W06
 BYTE   N09  FsM2  v124
 BYTE   W12
 BYTE   N07  AnM2  v104
 BYTE   W12
 BYTE   N08  GnM2  v124
 BYTE   W12
 BYTE   N05  AnM2  v092
 BYTE   W06
 BYTE   N09  FsM2  v127
 BYTE   W12
// 010   ----------------------------------------
 BYTE   N07  AnM2  v116
 BYTE   W12
 BYTE   N06  GnM2  v124
 BYTE   W12
 BYTE   N04  AnM2  v096
 BYTE   W06
 BYTE   N05  FsM2  v124
 BYTE   W12
 BYTE   AnM2  v108
 BYTE   W12
 BYTE   N08  GnM2  v127
 BYTE   W12
 BYTE   N05  AnM2  v096
 BYTE   W06
 BYTE   FsM2  v116
 BYTE   W12
 BYTE   AnM2  v104
 BYTE   W12
// 011   ----------------------------------------
 BYTE   GnM2  v124
 BYTE   W12
 BYTE   N04  AnM2  v108
 BYTE   W06
 BYTE   FsM2  v116
 BYTE   W12
 BYTE   N04
 BYTE   W06
 BYTE   AnM2  v096
 BYTE   W06
 BYTE   N06  GnM2  v124
 BYTE   W12
 BYTE   N04  AnM2  v104
 BYTE   W06
 BYTE   N05  FsM2  v116
 BYTE   W12
 BYTE   AnM2  v104
 BYTE   W12
 BYTE   GnM2  v116
 BYTE   W12
// 012   ----------------------------------------
 BYTE   N04  AnM2  v104
 BYTE   W06
 BYTE   FsM2  v108
 BYTE   W12
 BYTE   FsM2  v096
 BYTE   W12
 BYTE   N05  GnM2  v124
 BYTE   W12
 BYTE   N04  AnM2  v108
 BYTE   W06
 BYTE   N05  FsM2  v116
 BYTE   W12
 BYTE   N04  AnM2  v108
 BYTE   W12
 BYTE   GnM2  v127
 BYTE   W12
 BYTE   N02  AnM2  v116
 BYTE   W06
 BYTE   W84
// 013   ----------------------------------------
 BYTE   W84
 BYTE   W84
// 014   ----------------------------------------
 BYTE   W84
 BYTE   W84
// 015   ----------------------------------------
 BYTE   W84
 BYTE   W84
// 016   ----------------------------------------
 BYTE   W84
 BYTE   GoTo
  POIN2 Label_5_0123A835
 BYTE   FINE

//******************************************************//
	ALIGN 4

RebelstarBGM6:
	BYTE	6	// NumTrks
	BYTE	0	// NumBlks
	BYTE	RebelstarBGM6_pri	// Priority
	BYTE	RebelstarBGM6_rev	// Reverb.
    
	POIN2	RebelstarBGM6_grp
    
	POIN2	RebelstarBGM6_001
	POIN2	RebelstarBGM6_002
	POIN2	RebelstarBGM6_003
	POIN2	RebelstarBGM6_004
	POIN2	RebelstarBGM6_005
	POIN2	RebelstarBGM6_006

	
