	.include "MPlayDef.s"

	.equ	ShopPrep_grp, voicegroup000
	.equ	ShopPrep_pri, 0
	.equ	ShopPrep_rev, 0
	.equ	ShopPrep_mvl, 50
	.equ	ShopPrep_key, 0
	.equ	ShopPrep_tbs, 1
	.equ	ShopPrep_exg, 0
	.equ	ShopPrep_cmp, 1

	.section .rodata
	.global	ShopPrep
	.align	2

@**************** Track 1 (Midi-Chn.1) ****************@

ShopPrep_1:
	.byte	KEYSH , ShopPrep_key+0
@ 000   ----------------------------------------
	.byte	TEMPO , 140*ShopPrep_tbs/2
	.byte		VOICE , 34
	.byte		PAN   , c_v+0
	.byte		VOL   , 42*ShopPrep_mvl/mxv
	.byte	W12
	.byte		BEND  , c_v+0
	.byte	W12
@ 001   ----------------------------------------
	.byte	W24
@ 002   ----------------------------------------
	.byte	W24
@ 003   ----------------------------------------
	.byte	W24
@ 004   ----------------------------------------
	.byte	W24
@ 005   ----------------------------------------
	.byte	W24
@ 006   ----------------------------------------
	.byte	W24
@ 007   ----------------------------------------
	.byte	W24
@ 008   ----------------------------------------
	.byte	W24
ShopPrep_1_B1:
@ 009   ----------------------------------------
	.byte	W12
	.byte		N08   , An3 , v100
	.byte	W12
@ 010   ----------------------------------------
ShopPrep_1_010:
	.byte		N08   , An4 , v100
	.byte	W12
	.byte		        An3 
	.byte	W12
	.byte	PEND
@ 011   ----------------------------------------
	.byte	W12
	.byte		N08   
	.byte	W12
@ 012   ----------------------------------------
	.byte	PATT
	 .word	ShopPrep_1_010
@ 013   ----------------------------------------
	.byte	W12
	.byte		N08   , An3 , v100
	.byte	W12
@ 014   ----------------------------------------
	.byte	PATT
	 .word	ShopPrep_1_010
@ 015   ----------------------------------------
ShopPrep_1_015:
	.byte		N08   , Cs5 , v100
	.byte	W12
	.byte		        An3 
	.byte	W12
	.byte	PEND
@ 016   ----------------------------------------
ShopPrep_1_016:
	.byte		N08   , Dn5 , v100
	.byte	W12
	.byte		        An3 
	.byte	W12
	.byte	PEND
@ 017   ----------------------------------------
	.byte	W12
	.byte		N08   
	.byte	W12
@ 018   ----------------------------------------
	.byte	PATT
	 .word	ShopPrep_1_010
@ 019   ----------------------------------------
	.byte	W12
	.byte		N08   , An3 , v100
	.byte	W12
@ 020   ----------------------------------------
	.byte	PATT
	 .word	ShopPrep_1_010
@ 021   ----------------------------------------
	.byte	W12
	.byte		N08   , An3 , v100
	.byte	W12
@ 022   ----------------------------------------
	.byte	PATT
	 .word	ShopPrep_1_010
@ 023   ----------------------------------------
	.byte	W24
@ 024   ----------------------------------------
	.byte	W24
@ 025   ----------------------------------------
	.byte	W12
	.byte		N08   , An3 , v100
	.byte	W12
@ 026   ----------------------------------------
	.byte	PATT
	 .word	ShopPrep_1_010
@ 027   ----------------------------------------
	.byte	W12
	.byte		N08   , An3 , v100
	.byte	W12
@ 028   ----------------------------------------
	.byte	PATT
	 .word	ShopPrep_1_010
@ 029   ----------------------------------------
	.byte	W12
	.byte		N08   , An3 , v100
	.byte	W12
@ 030   ----------------------------------------
	.byte	PATT
	 .word	ShopPrep_1_010
@ 031   ----------------------------------------
	.byte		N08   , Bn4 , v100
	.byte	W12
	.byte		        An3 
	.byte	W12
@ 032   ----------------------------------------
	.byte	PATT
	 .word	ShopPrep_1_010
@ 033   ----------------------------------------
	.byte	W12
	.byte		N08   , An3 , v100
	.byte	W12
@ 034   ----------------------------------------
	.byte	PATT
	 .word	ShopPrep_1_010
@ 035   ----------------------------------------
	.byte	W12
	.byte		N08   , An3 , v100
	.byte	W12
@ 036   ----------------------------------------
	.byte	PATT
	 .word	ShopPrep_1_010
@ 037   ----------------------------------------
	.byte		N06   , An4 , v112
	.byte	W12
	.byte		N06   
	.byte	W12
@ 038   ----------------------------------------
	.byte		        Gn4 
	.byte	W12
	.byte		N06   
	.byte	W12
@ 039   ----------------------------------------
	.byte		        Fs4 
	.byte	W12
	.byte		N06   
	.byte	W12
@ 040   ----------------------------------------
	.byte		        En4 
	.byte	W12
	.byte		N06   
	.byte	W12
@ 041   ----------------------------------------
	.byte	W12
	.byte		N08   , Cn5 
	.byte	W12
@ 042   ----------------------------------------
	.byte		        Cn4 
	.byte	W24
@ 043   ----------------------------------------
	.byte	W12
	.byte		        Cn4 , v100
	.byte	W12
@ 044   ----------------------------------------
ShopPrep_1_044:
	.byte		N08   , Cn5 , v100
	.byte	W12
	.byte		        Cn4 
	.byte	W12
	.byte	PEND
@ 045   ----------------------------------------
	.byte	W12
	.byte		N08   
	.byte	W12
@ 046   ----------------------------------------
	.byte	PATT
	 .word	ShopPrep_1_044
@ 047   ----------------------------------------
	.byte		N08   , Cn5 , v100
	.byte	W12
	.byte		        Bn4 
	.byte	W12
@ 048   ----------------------------------------
	.byte		        An3 
	.byte	W12
	.byte		        Fs4 
	.byte	W12
@ 049   ----------------------------------------
	.byte	W12
	.byte		        Fs3 
	.byte	W12
@ 050   ----------------------------------------
ShopPrep_1_050:
	.byte		N08   , Fs4 , v100
	.byte	W12
	.byte		        Fs3 
	.byte	W12
	.byte	PEND
@ 051   ----------------------------------------
	.byte	W12
	.byte		N08   
	.byte	W12
@ 052   ----------------------------------------
	.byte	PATT
	 .word	ShopPrep_1_050
@ 053   ----------------------------------------
	.byte		N06   , An4 , v112
	.byte	W12
	.byte		        Bn4 
	.byte	W12
@ 054   ----------------------------------------
	.byte		        Cs5 
	.byte	W12
	.byte		        Bn4 
	.byte	W12
@ 055   ----------------------------------------
	.byte		        An4 
	.byte	W12
	.byte		        Gs4 
	.byte	W12
@ 056   ----------------------------------------
	.byte		        Fs4 
	.byte	W12
	.byte		        An4 
	.byte	W12
@ 057   ----------------------------------------
	.byte	W12
	.byte		N08   , Cn5 , v100
	.byte	W12
@ 058   ----------------------------------------
	.byte		        Cn4 
	.byte	W24
@ 059   ----------------------------------------
	.byte	W12
	.byte		N08   
	.byte	W12
@ 060   ----------------------------------------
	.byte	PATT
	 .word	ShopPrep_1_044
@ 061   ----------------------------------------
	.byte	W12
	.byte		N08   , Cn4 , v100
	.byte	W12
@ 062   ----------------------------------------
	.byte	PATT
	 .word	ShopPrep_1_044
@ 063   ----------------------------------------
	.byte	PATT
	 .word	ShopPrep_1_044
@ 064   ----------------------------------------
	.byte		N08   , Bn4 , v100
	.byte	W12
	.byte		        An4 
	.byte	W12
@ 065   ----------------------------------------
	.byte		        Fs4 
	.byte	W12
	.byte		        Dn4 
	.byte	W12
@ 066   ----------------------------------------
	.byte		N08   
	.byte	W12
	.byte		N08   
	.byte	W12
@ 067   ----------------------------------------
	.byte		N08   
	.byte	W12
	.byte		        Cn4 
	.byte	W12
@ 068   ----------------------------------------
	.byte	W12
	.byte		N20   , En4 
	.byte	W12
@ 069   ----------------------------------------
	.byte	W12
	.byte		N08   , En5 
	.byte	W12
@ 070   ----------------------------------------
ShopPrep_1_070:
	.byte		N08   , En4 , v100
	.byte	W12
	.byte		        En5 
	.byte	W12
	.byte	PEND
@ 071   ----------------------------------------
	.byte	PATT
	 .word	ShopPrep_1_070
@ 072   ----------------------------------------
	.byte	PATT
	 .word	ShopPrep_1_070
@ 073   ----------------------------------------
	.byte	W12
	.byte		N08   , An3 , v100
	.byte	W12
@ 074   ----------------------------------------
	.byte	PATT
	 .word	ShopPrep_1_010
@ 075   ----------------------------------------
	.byte	W12
	.byte		N08   , An3 , v100
	.byte	W12
@ 076   ----------------------------------------
	.byte	PATT
	 .word	ShopPrep_1_010
@ 077   ----------------------------------------
	.byte	W12
	.byte		N08   , An3 , v100
	.byte	W12
@ 078   ----------------------------------------
	.byte	PATT
	 .word	ShopPrep_1_010
@ 079   ----------------------------------------
	.byte	PATT
	 .word	ShopPrep_1_015
@ 080   ----------------------------------------
	.byte	PATT
	 .word	ShopPrep_1_016
@ 081   ----------------------------------------
	.byte	W12
	.byte		N08   , An3 , v100
	.byte	W12
@ 082   ----------------------------------------
	.byte	PATT
	 .word	ShopPrep_1_010
@ 083   ----------------------------------------
	.byte	W12
	.byte		N08   , An3 , v100
	.byte	W12
@ 084   ----------------------------------------
	.byte	PATT
	 .word	ShopPrep_1_010
@ 085   ----------------------------------------
	.byte	W12
	.byte		N08   , An3 , v100
	.byte	W12
@ 086   ----------------------------------------
	.byte	PATT
	 .word	ShopPrep_1_010
@ 087   ----------------------------------------
	.byte	PATT
	 .word	ShopPrep_1_015
@ 088   ----------------------------------------
	.byte		N08   , En5 , v100
	.byte	W12
	.byte		        An3 
	.byte	W12
@ 089   ----------------------------------------
	.byte	W12
	.byte		N08   
	.byte	W12
@ 090   ----------------------------------------
	.byte	PATT
	 .word	ShopPrep_1_010
@ 091   ----------------------------------------
	.byte	W12
	.byte		N08   , An3 , v100
	.byte	W12
@ 092   ----------------------------------------
	.byte	PATT
	 .word	ShopPrep_1_010
@ 093   ----------------------------------------
	.byte	W12
	.byte		N08   , An3 , v100
	.byte	W12
@ 094   ----------------------------------------
	.byte	PATT
	 .word	ShopPrep_1_010
@ 095   ----------------------------------------
	.byte	PATT
	 .word	ShopPrep_1_015
@ 096   ----------------------------------------
	.byte	PATT
	 .word	ShopPrep_1_016
@ 097   ----------------------------------------
	.byte	W12
	.byte		N08   , An4 , v100
	.byte	W12
@ 098   ----------------------------------------
	.byte		N08   
	.byte	W24
@ 099   ----------------------------------------
	.byte		N08   
	.byte	W12
	.byte		N08   
	.byte	W12
@ 100   ----------------------------------------
	.byte	W12
	.byte		        Bn4 
	.byte	W12
@ 101   ----------------------------------------
	.byte	W12
	.byte		        En5 
	.byte	W12
@ 102   ----------------------------------------
	.byte		N08   
	.byte	W12
	.byte		N08   
	.byte	W12
@ 103   ----------------------------------------
	.byte		N08   
	.byte	W12
	.byte		        Dn5 
	.byte	W12
@ 104   ----------------------------------------
	.byte		        Cs5 
	.byte	W12
	.byte		        Bn4 
	.byte	W12
	.byte	GOTO
	 .word	ShopPrep_1_B1
ShopPrep_1_B2:
@ 105   ----------------------------------------
	.byte	FINE

@**************** Track 2 (Midi-Chn.2) ****************@

ShopPrep_2:
	.byte	KEYSH , ShopPrep_key+0
@ 000   ----------------------------------------
	.byte		VOICE , 80
	.byte		VOL   , 98*ShopPrep_mvl/mxv
	.byte	W24
@ 001   ----------------------------------------
	.byte	W24
@ 002   ----------------------------------------
	.byte	W24
@ 003   ----------------------------------------
	.byte	W24
@ 004   ----------------------------------------
	.byte	W24
@ 005   ----------------------------------------
	.byte	W24
@ 006   ----------------------------------------
	.byte	W24
@ 007   ----------------------------------------
	.byte	W24
@ 008   ----------------------------------------
	.byte	W24
ShopPrep_2_B1:
@ 009   ----------------------------------------
ShopPrep_2_009:
	.byte		N06   , An2 , v088
	.byte	W12
	.byte		N06   
	.byte	W12
	.byte	PEND
@ 010   ----------------------------------------
	.byte		N11   , En2 
	.byte	W24
@ 011   ----------------------------------------
	.byte	PATT
	 .word	ShopPrep_2_009
@ 012   ----------------------------------------
	.byte		N11   , En2 , v088
	.byte	W24
@ 013   ----------------------------------------
	.byte	PATT
	 .word	ShopPrep_2_009
@ 014   ----------------------------------------
	.byte		N11   , En2 , v088
	.byte	W24
@ 015   ----------------------------------------
	.byte	W12
	.byte		        Fs2 
	.byte	W12
@ 016   ----------------------------------------
	.byte		        En2 
	.byte	W12
	.byte		        Fs2 
	.byte	W12
@ 017   ----------------------------------------
	.byte	PATT
	 .word	ShopPrep_2_009
@ 018   ----------------------------------------
	.byte		N11   , En2 , v088
	.byte	W24
@ 019   ----------------------------------------
	.byte	PATT
	 .word	ShopPrep_2_009
@ 020   ----------------------------------------
	.byte		N11   , En2 , v088
	.byte	W24
@ 021   ----------------------------------------
	.byte	PATT
	 .word	ShopPrep_2_009
@ 022   ----------------------------------------
	.byte		N11   , En2 , v088
	.byte	W24
@ 023   ----------------------------------------
	.byte	W24
@ 024   ----------------------------------------
	.byte	W24
@ 025   ----------------------------------------
	.byte	W24
@ 026   ----------------------------------------
	.byte	W24
@ 027   ----------------------------------------
	.byte	W24
@ 028   ----------------------------------------
	.byte	W24
@ 029   ----------------------------------------
	.byte	W24
@ 030   ----------------------------------------
	.byte	W24
@ 031   ----------------------------------------
	.byte	W24
@ 032   ----------------------------------------
	.byte	W24
@ 033   ----------------------------------------
	.byte	W24
@ 034   ----------------------------------------
	.byte	W24
@ 035   ----------------------------------------
	.byte	W24
@ 036   ----------------------------------------
	.byte	W24
@ 037   ----------------------------------------
	.byte	W24
@ 038   ----------------------------------------
	.byte	W24
@ 039   ----------------------------------------
	.byte	W24
@ 040   ----------------------------------------
	.byte	W24
@ 041   ----------------------------------------
	.byte	W24
@ 042   ----------------------------------------
	.byte	W24
@ 043   ----------------------------------------
	.byte	W24
@ 044   ----------------------------------------
	.byte	W24
@ 045   ----------------------------------------
	.byte	W24
@ 046   ----------------------------------------
	.byte	W24
@ 047   ----------------------------------------
	.byte	W24
@ 048   ----------------------------------------
	.byte	W24
@ 049   ----------------------------------------
	.byte	W24
@ 050   ----------------------------------------
	.byte	W24
@ 051   ----------------------------------------
	.byte	W24
@ 052   ----------------------------------------
	.byte	W24
@ 053   ----------------------------------------
	.byte	W24
@ 054   ----------------------------------------
	.byte	W24
@ 055   ----------------------------------------
	.byte	W24
@ 056   ----------------------------------------
	.byte	W24
@ 057   ----------------------------------------
	.byte	W24
@ 058   ----------------------------------------
	.byte	W24
@ 059   ----------------------------------------
	.byte	W24
@ 060   ----------------------------------------
	.byte	W24
@ 061   ----------------------------------------
	.byte	W24
@ 062   ----------------------------------------
	.byte	W24
@ 063   ----------------------------------------
	.byte	W24
@ 064   ----------------------------------------
	.byte	W24
@ 065   ----------------------------------------
	.byte	W24
@ 066   ----------------------------------------
	.byte	W24
@ 067   ----------------------------------------
	.byte	W24
@ 068   ----------------------------------------
	.byte	W24
@ 069   ----------------------------------------
	.byte	W24
@ 070   ----------------------------------------
	.byte	W24
@ 071   ----------------------------------------
	.byte	W24
@ 072   ----------------------------------------
	.byte	W24
@ 073   ----------------------------------------
	.byte	W24
@ 074   ----------------------------------------
	.byte	W24
@ 075   ----------------------------------------
	.byte	W24
@ 076   ----------------------------------------
	.byte	W24
@ 077   ----------------------------------------
	.byte	W24
@ 078   ----------------------------------------
	.byte	W24
@ 079   ----------------------------------------
	.byte	W24
@ 080   ----------------------------------------
	.byte	W24
@ 081   ----------------------------------------
	.byte	W24
@ 082   ----------------------------------------
	.byte	W24
@ 083   ----------------------------------------
	.byte	W24
@ 084   ----------------------------------------
	.byte	W24
@ 085   ----------------------------------------
	.byte	W24
@ 086   ----------------------------------------
	.byte	W24
@ 087   ----------------------------------------
	.byte	W24
@ 088   ----------------------------------------
	.byte	W24
@ 089   ----------------------------------------
	.byte	W24
@ 090   ----------------------------------------
	.byte	W24
@ 091   ----------------------------------------
	.byte	W24
@ 092   ----------------------------------------
	.byte	W24
@ 093   ----------------------------------------
	.byte	W24
@ 094   ----------------------------------------
	.byte	W24
@ 095   ----------------------------------------
	.byte	W24
@ 096   ----------------------------------------
	.byte	W24
@ 097   ----------------------------------------
	.byte	W24
@ 098   ----------------------------------------
	.byte	W24
@ 099   ----------------------------------------
	.byte	W24
@ 100   ----------------------------------------
	.byte	W24
@ 101   ----------------------------------------
	.byte	W24
@ 102   ----------------------------------------
	.byte	W24
@ 103   ----------------------------------------
	.byte	W24
@ 104   ----------------------------------------
	.byte	W24
	.byte	GOTO
	 .word	ShopPrep_2_B1
ShopPrep_2_B2:
@ 105   ----------------------------------------
	.byte	FINE

@**************** Track 3 (Midi-Chn.3) ****************@

ShopPrep_3:
	.byte	KEYSH , ShopPrep_key+0
@ 000   ----------------------------------------
	.byte		VOICE , 107
	.byte		VOL   , 67*ShopPrep_mvl/mxv
	.byte		PAN   , c_v+0
	.byte	W15
	.byte		BEND  , c_v+0
	.byte	W09
@ 001   ----------------------------------------
	.byte	W24
@ 002   ----------------------------------------
	.byte	W24
@ 003   ----------------------------------------
	.byte	W24
@ 004   ----------------------------------------
	.byte	W24
@ 005   ----------------------------------------
	.byte	W24
@ 006   ----------------------------------------
	.byte	W24
@ 007   ----------------------------------------
	.byte	W24
@ 008   ----------------------------------------
	.byte	W24
ShopPrep_3_B1:
@ 009   ----------------------------------------
	.byte	W24
@ 010   ----------------------------------------
	.byte	W24
@ 011   ----------------------------------------
	.byte	W24
@ 012   ----------------------------------------
	.byte	W24
@ 013   ----------------------------------------
	.byte	W24
@ 014   ----------------------------------------
	.byte	W24
@ 015   ----------------------------------------
	.byte	W24
@ 016   ----------------------------------------
	.byte	W24
@ 017   ----------------------------------------
	.byte	W24
@ 018   ----------------------------------------
	.byte	W24
@ 019   ----------------------------------------
	.byte	W24
@ 020   ----------------------------------------
	.byte	W24
@ 021   ----------------------------------------
	.byte	W24
@ 022   ----------------------------------------
	.byte	W24
@ 023   ----------------------------------------
	.byte	W24
@ 024   ----------------------------------------
	.byte	W24
@ 025   ----------------------------------------
ShopPrep_3_025:
	.byte		N05   , Cs4 , v056
	.byte	W06
	.byte		        Cs5 
	.byte	W06
	.byte		        Cs4 
	.byte	W06
	.byte		        Cs5 
	.byte	W06
	.byte	PEND
@ 026   ----------------------------------------
	.byte	PATT
	 .word	ShopPrep_3_025
@ 027   ----------------------------------------
	.byte	PATT
	 .word	ShopPrep_3_025
@ 028   ----------------------------------------
	.byte	PATT
	 .word	ShopPrep_3_025
@ 029   ----------------------------------------
	.byte	W24
@ 030   ----------------------------------------
	.byte	W24
@ 031   ----------------------------------------
	.byte	W24
@ 032   ----------------------------------------
	.byte	W24
@ 033   ----------------------------------------
	.byte	PATT
	 .word	ShopPrep_3_025
@ 034   ----------------------------------------
	.byte	PATT
	 .word	ShopPrep_3_025
@ 035   ----------------------------------------
	.byte	PATT
	 .word	ShopPrep_3_025
@ 036   ----------------------------------------
	.byte	PATT
	 .word	ShopPrep_3_025
@ 037   ----------------------------------------
	.byte	W24
@ 038   ----------------------------------------
	.byte	W24
@ 039   ----------------------------------------
	.byte	W24
@ 040   ----------------------------------------
	.byte	W24
@ 041   ----------------------------------------
	.byte	W12
	.byte		N08   , En3 , v084
	.byte	W12
@ 042   ----------------------------------------
	.byte		        En2 
	.byte	W24
@ 043   ----------------------------------------
ShopPrep_3_043:
	.byte		N03   , En3 , v060
	.byte	W06
	.byte		N03   
	.byte	W06
	.byte		N03   
	.byte	W06
	.byte		N03   
	.byte	W06
	.byte	PEND
@ 044   ----------------------------------------
	.byte	PATT
	 .word	ShopPrep_3_043
@ 045   ----------------------------------------
	.byte	W24
@ 046   ----------------------------------------
	.byte	W24
@ 047   ----------------------------------------
	.byte	W24
@ 048   ----------------------------------------
	.byte	W24
@ 049   ----------------------------------------
	.byte	W12
	.byte		N08   , Fs3 , v084
	.byte	W12
@ 050   ----------------------------------------
	.byte		        Fs2 
	.byte	W24
@ 051   ----------------------------------------
ShopPrep_3_051:
	.byte		N03   , Fs3 , v060
	.byte	W06
	.byte		N03   
	.byte	W06
	.byte		N03   
	.byte	W06
	.byte		N03   
	.byte	W06
	.byte	PEND
@ 052   ----------------------------------------
	.byte	PATT
	 .word	ShopPrep_3_051
@ 053   ----------------------------------------
	.byte	W24
@ 054   ----------------------------------------
	.byte	W24
@ 055   ----------------------------------------
	.byte	W24
@ 056   ----------------------------------------
	.byte	W24
@ 057   ----------------------------------------
	.byte	W12
	.byte		N08   , En3 , v084
	.byte	W12
@ 058   ----------------------------------------
	.byte		        En2 
	.byte	W24
@ 059   ----------------------------------------
	.byte	PATT
	 .word	ShopPrep_3_043
@ 060   ----------------------------------------
	.byte	PATT
	 .word	ShopPrep_3_043
@ 061   ----------------------------------------
	.byte	W24
@ 062   ----------------------------------------
	.byte	W24
@ 063   ----------------------------------------
	.byte	W24
@ 064   ----------------------------------------
	.byte	W24
@ 065   ----------------------------------------
	.byte	W24
@ 066   ----------------------------------------
	.byte	W24
@ 067   ----------------------------------------
	.byte	W24
@ 068   ----------------------------------------
	.byte	W24
@ 069   ----------------------------------------
	.byte	W24
@ 070   ----------------------------------------
	.byte		N06   , En2 , v092
	.byte	W06
	.byte		        Gs2 
	.byte	W06
	.byte		        An2 
	.byte	W06
	.byte		        Bn2 
	.byte	W06
@ 071   ----------------------------------------
	.byte		        Gs2 
	.byte	W06
	.byte		        An2 
	.byte	W06
	.byte		        Bn2 
	.byte	W06
	.byte		        Cs3 
	.byte	W06
@ 072   ----------------------------------------
	.byte		        An2 
	.byte	W06
	.byte		        Bn2 
	.byte	W06
	.byte		        Cs3 
	.byte	W06
	.byte		        Dn3 , v044
	.byte	W06
@ 073   ----------------------------------------
ShopPrep_3_073:
	.byte		N06   , An3 , v056
	.byte	W12
	.byte		        Gn4 
	.byte	W12
	.byte	PEND
@ 074   ----------------------------------------
ShopPrep_3_074:
	.byte		N06   , Cs4 , v056
	.byte	W12
	.byte		        En4 
	.byte	W06
	.byte		        Cs4 
	.byte	W06
	.byte	PEND
@ 075   ----------------------------------------
	.byte	PATT
	 .word	ShopPrep_3_073
@ 076   ----------------------------------------
	.byte	PATT
	 .word	ShopPrep_3_074
@ 077   ----------------------------------------
	.byte	PATT
	 .word	ShopPrep_3_073
@ 078   ----------------------------------------
	.byte	PATT
	 .word	ShopPrep_3_074
@ 079   ----------------------------------------
	.byte	PATT
	 .word	ShopPrep_3_073
@ 080   ----------------------------------------
	.byte	PATT
	 .word	ShopPrep_3_074
@ 081   ----------------------------------------
	.byte	PATT
	 .word	ShopPrep_3_073
@ 082   ----------------------------------------
	.byte	PATT
	 .word	ShopPrep_3_074
@ 083   ----------------------------------------
	.byte	PATT
	 .word	ShopPrep_3_073
@ 084   ----------------------------------------
	.byte	PATT
	 .word	ShopPrep_3_074
@ 085   ----------------------------------------
	.byte	PATT
	 .word	ShopPrep_3_073
@ 086   ----------------------------------------
	.byte	PATT
	 .word	ShopPrep_3_074
@ 087   ----------------------------------------
	.byte	PATT
	 .word	ShopPrep_3_073
@ 088   ----------------------------------------
	.byte	PATT
	 .word	ShopPrep_3_074
@ 089   ----------------------------------------
	.byte	PATT
	 .word	ShopPrep_3_073
@ 090   ----------------------------------------
	.byte	PATT
	 .word	ShopPrep_3_074
@ 091   ----------------------------------------
	.byte	PATT
	 .word	ShopPrep_3_073
@ 092   ----------------------------------------
	.byte	PATT
	 .word	ShopPrep_3_074
@ 093   ----------------------------------------
	.byte	PATT
	 .word	ShopPrep_3_073
@ 094   ----------------------------------------
	.byte	PATT
	 .word	ShopPrep_3_074
@ 095   ----------------------------------------
	.byte		N06   , An4 , v056
	.byte	W12
	.byte		        Gn4 
	.byte	W12
@ 096   ----------------------------------------
	.byte	PATT
	 .word	ShopPrep_3_074
@ 097   ----------------------------------------
	.byte	W24
@ 098   ----------------------------------------
	.byte	W24
@ 099   ----------------------------------------
	.byte	W24
@ 100   ----------------------------------------
	.byte	W24
@ 101   ----------------------------------------
	.byte	W24
@ 102   ----------------------------------------
	.byte	W24
@ 103   ----------------------------------------
	.byte	W24
@ 104   ----------------------------------------
	.byte	W24
	.byte	GOTO
	 .word	ShopPrep_3_B1
ShopPrep_3_B2:
@ 105   ----------------------------------------
	.byte	FINE

@**************** Track 4 (Midi-Chn.4) ****************@

ShopPrep_4:
	.byte	KEYSH , ShopPrep_key+0
@ 000   ----------------------------------------
	.byte		VOICE , 62
	.byte		VOL   , 113*ShopPrep_mvl/mxv
	.byte	W09
	.byte		PAN   , c_v+0
	.byte	W15
@ 001   ----------------------------------------
	.byte	W24
@ 002   ----------------------------------------
	.byte	W24
@ 003   ----------------------------------------
	.byte	W24
@ 004   ----------------------------------------
	.byte	W24
@ 005   ----------------------------------------
	.byte	W24
@ 006   ----------------------------------------
	.byte	W24
@ 007   ----------------------------------------
	.byte	W24
@ 008   ----------------------------------------
	.byte	W24
ShopPrep_4_B1:
@ 009   ----------------------------------------
	.byte	W24
@ 010   ----------------------------------------
	.byte	W24
@ 011   ----------------------------------------
	.byte	W24
@ 012   ----------------------------------------
	.byte	W24
@ 013   ----------------------------------------
	.byte	W24
@ 014   ----------------------------------------
	.byte	W24
@ 015   ----------------------------------------
	.byte	W24
@ 016   ----------------------------------------
	.byte	W24
@ 017   ----------------------------------------
	.byte	W24
@ 018   ----------------------------------------
	.byte	W24
@ 019   ----------------------------------------
	.byte	W24
@ 020   ----------------------------------------
	.byte	W24
@ 021   ----------------------------------------
	.byte	W24
@ 022   ----------------------------------------
	.byte	W24
@ 023   ----------------------------------------
	.byte	W24
@ 024   ----------------------------------------
	.byte	W24
@ 025   ----------------------------------------
	.byte	W24
@ 026   ----------------------------------------
	.byte		N24   , Gn2 , v076
	.byte	W24
@ 027   ----------------------------------------
ShopPrep_4_027:
	.byte		N06   , Fs2 , v076
	.byte	W12
	.byte		        En2 
	.byte	W12
	.byte	PEND
@ 028   ----------------------------------------
	.byte	W12
	.byte		        Gn2 
	.byte	W12
@ 029   ----------------------------------------
	.byte	W12
	.byte		N06   
	.byte	W12
@ 030   ----------------------------------------
ShopPrep_4_030:
	.byte		N06   , Fs2 , v076
	.byte	W12
	.byte		N12   , En2 
	.byte	W12
	.byte	PEND
@ 031   ----------------------------------------
	.byte	W24
@ 032   ----------------------------------------
	.byte	W24
@ 033   ----------------------------------------
	.byte	W24
@ 034   ----------------------------------------
	.byte		N06   , Gn2 
	.byte	W12
	.byte		N06   
	.byte	W12
@ 035   ----------------------------------------
	.byte	PATT
	 .word	ShopPrep_4_027
@ 036   ----------------------------------------
	.byte	W12
	.byte		N06   , An2 , v076
	.byte	W12
@ 037   ----------------------------------------
	.byte	W24
@ 038   ----------------------------------------
	.byte	W24
@ 039   ----------------------------------------
	.byte	W24
@ 040   ----------------------------------------
	.byte	W24
@ 041   ----------------------------------------
	.byte	W24
@ 042   ----------------------------------------
	.byte		        En2 
	.byte	W24
@ 043   ----------------------------------------
ShopPrep_4_043:
	.byte		N06   , Gn2 , v076
	.byte	W12
	.byte		        Fs2 
	.byte	W12
	.byte	PEND
@ 044   ----------------------------------------
	.byte	W24
@ 045   ----------------------------------------
	.byte		        Cn2 
	.byte	W12
	.byte		        En2 
	.byte	W12
@ 046   ----------------------------------------
	.byte		        Gn2 
	.byte	W12
	.byte		N24   , Fs2 
	.byte	W12
@ 047   ----------------------------------------
	.byte	W24
@ 048   ----------------------------------------
	.byte	W24
@ 049   ----------------------------------------
	.byte	W24
@ 050   ----------------------------------------
	.byte		N06   
	.byte	W24
@ 051   ----------------------------------------
	.byte		        An2 
	.byte	W12
	.byte		        Bn2 
	.byte	W12
@ 052   ----------------------------------------
	.byte	W12
	.byte		N36   , Cs3 
	.byte	W12
@ 053   ----------------------------------------
	.byte	W24
@ 054   ----------------------------------------
	.byte	W24
@ 055   ----------------------------------------
	.byte	W24
@ 056   ----------------------------------------
	.byte	W24
@ 057   ----------------------------------------
	.byte	W24
@ 058   ----------------------------------------
	.byte		N06   , En2 
	.byte	W24
@ 059   ----------------------------------------
	.byte	PATT
	 .word	ShopPrep_4_043
@ 060   ----------------------------------------
	.byte	W24
@ 061   ----------------------------------------
	.byte	PATT
	 .word	ShopPrep_4_043
@ 062   ----------------------------------------
	.byte		N06   , En2 , v076
	.byte	W12
	.byte		        An2 
	.byte	W12
@ 063   ----------------------------------------
	.byte	W24
@ 064   ----------------------------------------
	.byte	W24
@ 065   ----------------------------------------
	.byte		N06   
	.byte	W12
	.byte		        Dn2 
	.byte	W12
@ 066   ----------------------------------------
	.byte		        Bn2 
	.byte	W12
	.byte		        Dn2 
	.byte	W12
@ 067   ----------------------------------------
	.byte		N24   , Cn3 
	.byte	W24
@ 068   ----------------------------------------
	.byte	W24
@ 069   ----------------------------------------
	.byte	W24
@ 070   ----------------------------------------
	.byte	W24
@ 071   ----------------------------------------
	.byte	W24
@ 072   ----------------------------------------
	.byte	W24
@ 073   ----------------------------------------
	.byte	W24
@ 074   ----------------------------------------
	.byte		        Gn2 
	.byte	W24
@ 075   ----------------------------------------
	.byte	PATT
	 .word	ShopPrep_4_027
@ 076   ----------------------------------------
	.byte	W12
	.byte		N06   , Gn2 , v076
	.byte	W12
@ 077   ----------------------------------------
	.byte	W12
	.byte		N06   
	.byte	W12
@ 078   ----------------------------------------
	.byte	PATT
	 .word	ShopPrep_4_030
@ 079   ----------------------------------------
	.byte	W24
@ 080   ----------------------------------------
	.byte	W24
@ 081   ----------------------------------------
	.byte	W24
@ 082   ----------------------------------------
	.byte		N24   , Gn2 , v076
	.byte	W24
@ 083   ----------------------------------------
	.byte	PATT
	 .word	ShopPrep_4_027
@ 084   ----------------------------------------
	.byte	W12
	.byte		N06   , An2 , v076
	.byte	W12
@ 085   ----------------------------------------
	.byte	W24
@ 086   ----------------------------------------
	.byte	W24
@ 087   ----------------------------------------
	.byte	W24
@ 088   ----------------------------------------
	.byte	W24
@ 089   ----------------------------------------
	.byte	W24
@ 090   ----------------------------------------
	.byte		N24   , Gn2 
	.byte	W24
@ 091   ----------------------------------------
	.byte	PATT
	 .word	ShopPrep_4_027
@ 092   ----------------------------------------
	.byte	W12
	.byte		N12   , Gn2 , v076
	.byte	W12
@ 093   ----------------------------------------
	.byte	W12
	.byte		N06   
	.byte	W12
@ 094   ----------------------------------------
	.byte	PATT
	 .word	ShopPrep_4_030
@ 095   ----------------------------------------
	.byte	W24
@ 096   ----------------------------------------
	.byte	W24
@ 097   ----------------------------------------
	.byte	W24
@ 098   ----------------------------------------
	.byte		N06   , Dn2 , v076
	.byte	W12
	.byte		        Fs2 
	.byte	W12
@ 099   ----------------------------------------
	.byte		        An2 
	.byte	W12
	.byte		        Fs2 
	.byte	W12
@ 100   ----------------------------------------
	.byte		        Dn2 
	.byte	W12
	.byte		        Bn2 
	.byte	W12
@ 101   ----------------------------------------
	.byte	W12
	.byte		N06   
	.byte	W12
@ 102   ----------------------------------------
	.byte		        Gs2 
	.byte	W24
@ 103   ----------------------------------------
	.byte	W24
@ 104   ----------------------------------------
	.byte		N24   , Gs2 , v092
	.byte	W24
	.byte	GOTO
	 .word	ShopPrep_4_B1
ShopPrep_4_B2:
@ 105   ----------------------------------------
	.byte	FINE

@**************** Track 5 (Midi-Chn.5) ****************@

ShopPrep_5:
	.byte	KEYSH , ShopPrep_key+0
@ 000   ----------------------------------------
	.byte		VOICE , 80
	.byte		VOL   , 112*ShopPrep_mvl/mxv
	.byte	W09
	.byte		PAN   , c_v+0
	.byte	W15
@ 001   ----------------------------------------
	.byte	W24
@ 002   ----------------------------------------
	.byte	W24
@ 003   ----------------------------------------
	.byte	W24
@ 004   ----------------------------------------
	.byte	W24
@ 005   ----------------------------------------
	.byte	W24
@ 006   ----------------------------------------
	.byte	W24
@ 007   ----------------------------------------
	.byte	W24
@ 008   ----------------------------------------
	.byte	W24
ShopPrep_5_B1:
@ 009   ----------------------------------------
	.byte	W24
@ 010   ----------------------------------------
	.byte	W24
@ 011   ----------------------------------------
	.byte	W24
@ 012   ----------------------------------------
	.byte	W24
@ 013   ----------------------------------------
	.byte	W24
@ 014   ----------------------------------------
	.byte	W24
@ 015   ----------------------------------------
	.byte	W24
@ 016   ----------------------------------------
	.byte	W24
@ 017   ----------------------------------------
	.byte	W24
@ 018   ----------------------------------------
	.byte	W24
@ 019   ----------------------------------------
	.byte	W24
@ 020   ----------------------------------------
	.byte	W24
@ 021   ----------------------------------------
	.byte	W24
@ 022   ----------------------------------------
	.byte	W24
@ 023   ----------------------------------------
	.byte	W24
@ 024   ----------------------------------------
	.byte	W24
@ 025   ----------------------------------------
	.byte	W24
@ 026   ----------------------------------------
	.byte		N24   , Gn2 , v076
	.byte	W24
@ 027   ----------------------------------------
ShopPrep_5_027:
	.byte		N06   , Fs2 , v076
	.byte	W12
	.byte		        En2 
	.byte	W12
	.byte	PEND
@ 028   ----------------------------------------
	.byte	W12
	.byte		        Gn2 
	.byte	W12
@ 029   ----------------------------------------
	.byte	W12
	.byte		N06   
	.byte	W12
@ 030   ----------------------------------------
ShopPrep_5_030:
	.byte		N06   , Fs2 , v076
	.byte	W12
	.byte		N12   , En2 
	.byte	W12
	.byte	PEND
@ 031   ----------------------------------------
	.byte	W24
@ 032   ----------------------------------------
	.byte	W24
@ 033   ----------------------------------------
	.byte	W24
@ 034   ----------------------------------------
	.byte		N06   , Gn2 
	.byte	W12
	.byte		N06   
	.byte	W12
@ 035   ----------------------------------------
	.byte	PATT
	 .word	ShopPrep_5_027
@ 036   ----------------------------------------
	.byte	W12
	.byte		N06   , An2 , v076
	.byte	W12
@ 037   ----------------------------------------
	.byte	W24
@ 038   ----------------------------------------
	.byte	W24
@ 039   ----------------------------------------
	.byte	W24
@ 040   ----------------------------------------
	.byte	W24
@ 041   ----------------------------------------
	.byte	W24
@ 042   ----------------------------------------
	.byte		        En2 
	.byte	W24
@ 043   ----------------------------------------
ShopPrep_5_043:
	.byte		N06   , Gn2 , v076
	.byte	W12
	.byte		        Fs2 
	.byte	W12
	.byte	PEND
@ 044   ----------------------------------------
	.byte	W24
@ 045   ----------------------------------------
	.byte		        Cn2 
	.byte	W12
	.byte		        En2 
	.byte	W12
@ 046   ----------------------------------------
	.byte		        Gn2 
	.byte	W12
	.byte		N24   , Fs2 
	.byte	W12
@ 047   ----------------------------------------
	.byte	W24
@ 048   ----------------------------------------
	.byte	W24
@ 049   ----------------------------------------
	.byte	W24
@ 050   ----------------------------------------
	.byte		N06   
	.byte	W24
@ 051   ----------------------------------------
	.byte		        An2 
	.byte	W12
	.byte		        Bn2 
	.byte	W12
@ 052   ----------------------------------------
	.byte	W12
	.byte		N36   , Cs3 
	.byte	W12
@ 053   ----------------------------------------
	.byte	W24
@ 054   ----------------------------------------
	.byte	W24
@ 055   ----------------------------------------
	.byte	W24
@ 056   ----------------------------------------
	.byte	W24
@ 057   ----------------------------------------
	.byte	W24
@ 058   ----------------------------------------
	.byte		N06   , En2 
	.byte	W24
@ 059   ----------------------------------------
	.byte	PATT
	 .word	ShopPrep_5_043
@ 060   ----------------------------------------
	.byte	W24
@ 061   ----------------------------------------
	.byte	PATT
	 .word	ShopPrep_5_043
@ 062   ----------------------------------------
	.byte		N06   , En2 , v076
	.byte	W12
	.byte		        An2 
	.byte	W12
@ 063   ----------------------------------------
	.byte	W24
@ 064   ----------------------------------------
	.byte	W24
@ 065   ----------------------------------------
	.byte		N06   
	.byte	W12
	.byte		        Dn2 
	.byte	W12
@ 066   ----------------------------------------
	.byte		        Bn2 
	.byte	W12
	.byte		        Dn2 
	.byte	W12
@ 067   ----------------------------------------
	.byte		N24   , Cn3 
	.byte	W24
@ 068   ----------------------------------------
	.byte	W24
@ 069   ----------------------------------------
	.byte	W24
@ 070   ----------------------------------------
	.byte	W24
@ 071   ----------------------------------------
	.byte	W24
@ 072   ----------------------------------------
	.byte	W24
@ 073   ----------------------------------------
	.byte	W24
@ 074   ----------------------------------------
	.byte		        Gn2 
	.byte	W24
@ 075   ----------------------------------------
	.byte	PATT
	 .word	ShopPrep_5_027
@ 076   ----------------------------------------
	.byte	W12
	.byte		N06   , Gn2 , v076
	.byte	W12
@ 077   ----------------------------------------
	.byte	W12
	.byte		N06   
	.byte	W12
@ 078   ----------------------------------------
	.byte	PATT
	 .word	ShopPrep_5_030
@ 079   ----------------------------------------
	.byte	W24
@ 080   ----------------------------------------
	.byte	W24
@ 081   ----------------------------------------
	.byte	W24
@ 082   ----------------------------------------
	.byte		N24   , Gn2 , v076
	.byte	W24
@ 083   ----------------------------------------
	.byte	PATT
	 .word	ShopPrep_5_027
@ 084   ----------------------------------------
	.byte	W12
	.byte		N06   , An2 , v076
	.byte	W12
@ 085   ----------------------------------------
	.byte	W24
@ 086   ----------------------------------------
	.byte	W24
@ 087   ----------------------------------------
	.byte	W24
@ 088   ----------------------------------------
	.byte	W24
@ 089   ----------------------------------------
	.byte	W24
@ 090   ----------------------------------------
	.byte		N24   , Gn2 
	.byte	W24
@ 091   ----------------------------------------
	.byte	PATT
	 .word	ShopPrep_5_027
@ 092   ----------------------------------------
	.byte	W12
	.byte		N12   , Gn2 , v076
	.byte	W12
@ 093   ----------------------------------------
	.byte	W12
	.byte		N06   
	.byte	W12
@ 094   ----------------------------------------
	.byte	PATT
	 .word	ShopPrep_5_030
@ 095   ----------------------------------------
	.byte	W24
@ 096   ----------------------------------------
	.byte	W24
@ 097   ----------------------------------------
	.byte	W24
@ 098   ----------------------------------------
	.byte		N06   , Dn2 , v076
	.byte	W12
	.byte		        Fs2 
	.byte	W12
@ 099   ----------------------------------------
	.byte		        An2 
	.byte	W12
	.byte		        Fs2 
	.byte	W12
@ 100   ----------------------------------------
	.byte		        Dn2 
	.byte	W12
	.byte		        Bn2 
	.byte	W12
@ 101   ----------------------------------------
	.byte	W12
	.byte		N06   
	.byte	W12
@ 102   ----------------------------------------
	.byte		        Gs2 
	.byte	W24
@ 103   ----------------------------------------
	.byte	W24
@ 104   ----------------------------------------
	.byte	W24
	.byte	GOTO
	 .word	ShopPrep_5_B1
ShopPrep_5_B2:
@ 105   ----------------------------------------
	.byte	FINE

@**************** Track 6 (Midi-Chn.6) ****************@

ShopPrep_6:
	.byte	KEYSH , ShopPrep_key+0
@ 000   ----------------------------------------
	.byte		VOICE , 56
	.byte		VOL   , 82*ShopPrep_mvl/mxv
	.byte	W09
	.byte		PAN   , c_v+0
	.byte	W15
@ 001   ----------------------------------------
	.byte	W24
@ 002   ----------------------------------------
	.byte	W24
@ 003   ----------------------------------------
	.byte	W24
@ 004   ----------------------------------------
	.byte	W24
@ 005   ----------------------------------------
	.byte	W24
@ 006   ----------------------------------------
	.byte	W24
@ 007   ----------------------------------------
	.byte	W24
@ 008   ----------------------------------------
	.byte	W24
ShopPrep_6_B1:
@ 009   ----------------------------------------
ShopPrep_6_009:
	.byte	W12
	.byte		BEND  , c_v-64
	.byte		N16   , An1 , v080
	.byte		N16   , En2 
	.byte		N16   , An2 
	.byte		N16   , Cs3 
	.byte	W01
	.byte		BEND  , c_v-54
	.byte	W01
	.byte		        c_v-43
	.byte	W01
	.byte		        c_v-32
	.byte	W01
	.byte		        c_v-22
	.byte	W01
	.byte		        c_v-11
	.byte	W01
	.byte		        c_v+0
	.byte	W06
	.byte	PEND
@ 010   ----------------------------------------
	.byte	W24
@ 011   ----------------------------------------
	.byte	PATT
	 .word	ShopPrep_6_009
@ 012   ----------------------------------------
	.byte	W24
@ 013   ----------------------------------------
	.byte	PATT
	 .word	ShopPrep_6_009
@ 014   ----------------------------------------
	.byte	W24
@ 015   ----------------------------------------
	.byte		N16   , An1 , v080
	.byte		N16   , Dn2 
	.byte		N16   , Fs2 
	.byte		N16   , An2 
	.byte	W24
@ 016   ----------------------------------------
ShopPrep_6_016:
	.byte		N16   , An1 , v080
	.byte		N16   , Fs2 
	.byte		N16   , An2 
	.byte		N16   , Dn3 
	.byte	W24
	.byte	PEND
@ 017   ----------------------------------------
	.byte	PATT
	 .word	ShopPrep_6_009
@ 018   ----------------------------------------
	.byte	W24
@ 019   ----------------------------------------
	.byte	PATT
	 .word	ShopPrep_6_009
@ 020   ----------------------------------------
	.byte	W24
@ 021   ----------------------------------------
	.byte	PATT
	 .word	ShopPrep_6_009
@ 022   ----------------------------------------
	.byte	W18
	.byte		N06   , An1 , v080
	.byte		N06   , En2 
	.byte		N06   , An2 
	.byte		N06   , En3 
	.byte	W06
@ 023   ----------------------------------------
	.byte	W24
@ 024   ----------------------------------------
	.byte	W24
@ 025   ----------------------------------------
	.byte	W24
@ 026   ----------------------------------------
	.byte	W24
@ 027   ----------------------------------------
	.byte	W24
@ 028   ----------------------------------------
	.byte	W24
@ 029   ----------------------------------------
	.byte	W24
@ 030   ----------------------------------------
	.byte	W24
@ 031   ----------------------------------------
ShopPrep_6_031:
	.byte		N16   , An1 , v080
	.byte		N16   , Fs2 
	.byte		N16   , Bn2 
	.byte		N16   , Dn3 
	.byte	W24
	.byte	PEND
@ 032   ----------------------------------------
	.byte	PATT
	 .word	ShopPrep_6_016
@ 033   ----------------------------------------
	.byte	W24
@ 034   ----------------------------------------
	.byte	W24
@ 035   ----------------------------------------
	.byte	W24
@ 036   ----------------------------------------
	.byte	W24
@ 037   ----------------------------------------
	.byte	W24
@ 038   ----------------------------------------
	.byte	W24
@ 039   ----------------------------------------
	.byte		N16   , Fs1 , v080
	.byte		N16   , An1 
	.byte		N16   , Dn2 
	.byte		N16   , Fs2 
	.byte	W24
@ 040   ----------------------------------------
	.byte		        En1 
	.byte		N16   , Cs2 
	.byte		N16   , En2 
	.byte		N16   , An2 
	.byte	W24
@ 041   ----------------------------------------
ShopPrep_6_041:
	.byte		TIE   , Gn1 , v080
	.byte		TIE   , Cn2 
	.byte		TIE   , En2 
	.byte	W24
	.byte	PEND
@ 042   ----------------------------------------
	.byte	W24
@ 043   ----------------------------------------
	.byte	W24
@ 044   ----------------------------------------
	.byte	W24
@ 045   ----------------------------------------
	.byte	W24
@ 046   ----------------------------------------
	.byte	W24
@ 047   ----------------------------------------
	.byte	W24
@ 048   ----------------------------------------
	.byte	W24
	.byte		EOT   , Gn1 
	.byte		        Cn2 
	.byte		        En2 
@ 049   ----------------------------------------
	.byte		TIE   , Fs1 
	.byte		TIE   , Cs2 
	.byte		TIE   , Fs2 
	.byte	W24
@ 050   ----------------------------------------
	.byte	W24
@ 051   ----------------------------------------
	.byte	W24
@ 052   ----------------------------------------
	.byte	W24
@ 053   ----------------------------------------
	.byte	W24
@ 054   ----------------------------------------
	.byte	W24
@ 055   ----------------------------------------
	.byte	W24
@ 056   ----------------------------------------
	.byte	W24
	.byte		EOT   , Fs1 
	.byte		        Cs2 
	.byte		        Fs2 
@ 057   ----------------------------------------
	.byte	PATT
	 .word	ShopPrep_6_041
@ 058   ----------------------------------------
	.byte	W24
@ 059   ----------------------------------------
	.byte	W24
@ 060   ----------------------------------------
	.byte	W24
@ 061   ----------------------------------------
	.byte	W24
@ 062   ----------------------------------------
	.byte	W24
@ 063   ----------------------------------------
	.byte	W24
@ 064   ----------------------------------------
	.byte	W24
	.byte		EOT   , Gn1 
	.byte		        Cn2 
	.byte		        En2 
@ 065   ----------------------------------------
	.byte		N72   , An1 , v080
	.byte		N72   , Dn2 
	.byte		N72   , Fs2 
	.byte	W24
@ 066   ----------------------------------------
	.byte	W24
@ 067   ----------------------------------------
	.byte	W24
@ 068   ----------------------------------------
	.byte	W12
	.byte		N60   , En1 
	.byte		N60   , Bn1 
	.byte		N60   , En2 
	.byte		N60   , Gs2 
	.byte	W12
@ 069   ----------------------------------------
	.byte	W24
@ 070   ----------------------------------------
	.byte	W24
@ 071   ----------------------------------------
	.byte		N08   , En1 
	.byte		N08   , Gs1 
	.byte		N08   , Bn1 
	.byte		N08   , En2 
	.byte	W12
	.byte		        En1 
	.byte		N08   , Gs1 
	.byte		N08   , Bn1 
	.byte		N08   , En2 
	.byte	W12
@ 072   ----------------------------------------
ShopPrep_6_072:
	.byte		N08   , En1 , v080
	.byte		N08   , Bn1 
	.byte		N08   , En2 
	.byte		N08   , Gs2 
	.byte	W12
	.byte		        En1 
	.byte		N08   , Bn1 
	.byte		N08   , En2 
	.byte		N08   , Gs2 
	.byte	W12
	.byte	PEND
@ 073   ----------------------------------------
	.byte	W24
@ 074   ----------------------------------------
	.byte	W24
@ 075   ----------------------------------------
	.byte	W24
@ 076   ----------------------------------------
	.byte	W24
@ 077   ----------------------------------------
	.byte	W24
@ 078   ----------------------------------------
	.byte	W24
@ 079   ----------------------------------------
	.byte	PATT
	 .word	ShopPrep_6_031
@ 080   ----------------------------------------
	.byte	PATT
	 .word	ShopPrep_6_016
@ 081   ----------------------------------------
	.byte	W24
@ 082   ----------------------------------------
	.byte	W24
@ 083   ----------------------------------------
	.byte	W24
@ 084   ----------------------------------------
	.byte	W24
@ 085   ----------------------------------------
	.byte	W24
@ 086   ----------------------------------------
	.byte	W24
@ 087   ----------------------------------------
	.byte	PATT
	 .word	ShopPrep_6_031
@ 088   ----------------------------------------
	.byte	PATT
	 .word	ShopPrep_6_016
@ 089   ----------------------------------------
	.byte	W24
@ 090   ----------------------------------------
	.byte	W24
@ 091   ----------------------------------------
	.byte	W24
@ 092   ----------------------------------------
	.byte	W24
@ 093   ----------------------------------------
	.byte	W24
@ 094   ----------------------------------------
	.byte	W24
@ 095   ----------------------------------------
	.byte	W24
@ 096   ----------------------------------------
	.byte	W24
@ 097   ----------------------------------------
	.byte		N16   , Dn1 , v080
	.byte		N16   , Dn2 
	.byte		N16   , Fs2 
	.byte		N16   , An2 
	.byte	W24
@ 098   ----------------------------------------
	.byte	W12
	.byte		        Dn1 
	.byte		N16   , Dn2 
	.byte		N16   , Fs2 
	.byte		N16   , An2 
	.byte	W12
@ 099   ----------------------------------------
	.byte	W24
@ 100   ----------------------------------------
	.byte		N12   , Dn1 
	.byte		N12   , Dn2 
	.byte		N12   , Fs2 
	.byte		N12   , An2 
	.byte	W12
	.byte		        En1 
	.byte		N12   , En2 
	.byte		N12   , Gs2 
	.byte		N12   , Bn2 
	.byte	W12
@ 101   ----------------------------------------
	.byte	W12
	.byte		N08   , En1 
	.byte		N08   , Bn1 
	.byte		N08   , En2 
	.byte		N08   , Gs2 
	.byte	W12
@ 102   ----------------------------------------
	.byte	PATT
	 .word	ShopPrep_6_072
@ 103   ----------------------------------------
	.byte	PATT
	 .word	ShopPrep_6_072
@ 104   ----------------------------------------
	.byte	PATT
	 .word	ShopPrep_6_072
	.byte	GOTO
	 .word	ShopPrep_6_B1
ShopPrep_6_B2:
@ 105   ----------------------------------------
	.byte	FINE

@**************** Track 7 (Midi-Chn.7) ****************@

ShopPrep_7:
	.byte	KEYSH , ShopPrep_key+0
@ 000   ----------------------------------------
	.byte		VOICE , 123
	.byte		VOL   , 75*ShopPrep_mvl/mxv
	.byte	W09
	.byte		PAN   , c_v+0
	.byte	W15
@ 001   ----------------------------------------
	.byte	W24
@ 002   ----------------------------------------
	.byte	W24
@ 003   ----------------------------------------
	.byte	W24
@ 004   ----------------------------------------
	.byte	W24
@ 005   ----------------------------------------
	.byte	W24
@ 006   ----------------------------------------
	.byte	W24
@ 007   ----------------------------------------
	.byte	W24
@ 008   ----------------------------------------
	.byte	W24
ShopPrep_7_B1:
@ 009   ----------------------------------------
ShopPrep_7_009:
	.byte		N03   , Cn1 , v100
	.byte		N03   , Fs1 , v060
	.byte		N03   , Ds2 , v088
	.byte	W12
	.byte		        Fs1 , v032
	.byte	W06
	.byte		        Fs1 , v044
	.byte	W06
	.byte	PEND
@ 010   ----------------------------------------
ShopPrep_7_010:
	.byte		N03   , Dn1 , v100
	.byte		N03   , Fs1 , v060
	.byte	W12
	.byte		        Fs1 , v032
	.byte	W06
	.byte		        Fs1 , v044
	.byte	W06
	.byte	PEND
@ 011   ----------------------------------------
ShopPrep_7_011:
	.byte		N03   , Cn1 , v100
	.byte		N03   , Fs1 , v060
	.byte	W12
	.byte		        Fs1 , v032
	.byte	W06
	.byte		        Fs1 , v044
	.byte	W06
	.byte	PEND
@ 012   ----------------------------------------
	.byte	PATT
	 .word	ShopPrep_7_010
@ 013   ----------------------------------------
	.byte	PATT
	 .word	ShopPrep_7_011
@ 014   ----------------------------------------
	.byte	PATT
	 .word	ShopPrep_7_010
@ 015   ----------------------------------------
	.byte	PATT
	 .word	ShopPrep_7_011
@ 016   ----------------------------------------
	.byte	PATT
	 .word	ShopPrep_7_010
@ 017   ----------------------------------------
	.byte	PATT
	 .word	ShopPrep_7_011
@ 018   ----------------------------------------
	.byte	PATT
	 .word	ShopPrep_7_010
@ 019   ----------------------------------------
	.byte	PATT
	 .word	ShopPrep_7_011
@ 020   ----------------------------------------
	.byte	PATT
	 .word	ShopPrep_7_010
@ 021   ----------------------------------------
	.byte	PATT
	 .word	ShopPrep_7_011
@ 022   ----------------------------------------
	.byte	PATT
	 .word	ShopPrep_7_010
@ 023   ----------------------------------------
	.byte		N03   , Cn1 , v100
	.byte		N03   , Dn1 
	.byte	W24
@ 024   ----------------------------------------
	.byte	W12
	.byte		N03   
	.byte	W06
	.byte		N03   
	.byte	W06
@ 025   ----------------------------------------
	.byte	PATT
	 .word	ShopPrep_7_009
@ 026   ----------------------------------------
	.byte	PATT
	 .word	ShopPrep_7_010
@ 027   ----------------------------------------
	.byte	PATT
	 .word	ShopPrep_7_011
@ 028   ----------------------------------------
	.byte	PATT
	 .word	ShopPrep_7_010
@ 029   ----------------------------------------
	.byte	PATT
	 .word	ShopPrep_7_011
@ 030   ----------------------------------------
	.byte	PATT
	 .word	ShopPrep_7_010
@ 031   ----------------------------------------
	.byte	PATT
	 .word	ShopPrep_7_011
@ 032   ----------------------------------------
	.byte	PATT
	 .word	ShopPrep_7_010
@ 033   ----------------------------------------
	.byte	PATT
	 .word	ShopPrep_7_011
@ 034   ----------------------------------------
	.byte	PATT
	 .word	ShopPrep_7_010
@ 035   ----------------------------------------
	.byte	PATT
	 .word	ShopPrep_7_011
@ 036   ----------------------------------------
	.byte	PATT
	 .word	ShopPrep_7_010
@ 037   ----------------------------------------
	.byte	PATT
	 .word	ShopPrep_7_011
@ 038   ----------------------------------------
ShopPrep_7_038:
	.byte		N03   , Dn1 , v100
	.byte		N03   , Fs1 , v060
	.byte	W12
	.byte		        Dn1 , v100
	.byte		N03   , Fs1 , v032
	.byte	W06
	.byte		        Dn1 , v100
	.byte		N03   , Fs1 , v044
	.byte	W06
	.byte	PEND
@ 039   ----------------------------------------
	.byte		        Dn1 , v100
	.byte		N03   , Fs1 , v060
	.byte	W06
	.byte		        Dn1 , v100
	.byte	W06
	.byte		        Cn1 
	.byte		N03   , Fs1 , v032
	.byte	W06
	.byte		        Fs1 , v044
	.byte	W06
@ 040   ----------------------------------------
	.byte	PATT
	 .word	ShopPrep_7_010
@ 041   ----------------------------------------
	.byte	PATT
	 .word	ShopPrep_7_011
@ 042   ----------------------------------------
ShopPrep_7_042:
	.byte		N03   , Dn1 , v100
	.byte		N03   , Fs1 , v060
	.byte	W12
	.byte		        Cn1 , v100
	.byte		N03   , Fs1 , v032
	.byte	W06
	.byte		        Fs1 , v044
	.byte	W06
	.byte	PEND
@ 043   ----------------------------------------
	.byte	PATT
	 .word	ShopPrep_7_011
@ 044   ----------------------------------------
	.byte	PATT
	 .word	ShopPrep_7_042
@ 045   ----------------------------------------
	.byte	PATT
	 .word	ShopPrep_7_011
@ 046   ----------------------------------------
	.byte	PATT
	 .word	ShopPrep_7_042
@ 047   ----------------------------------------
	.byte	PATT
	 .word	ShopPrep_7_011
@ 048   ----------------------------------------
	.byte	PATT
	 .word	ShopPrep_7_042
@ 049   ----------------------------------------
	.byte	PATT
	 .word	ShopPrep_7_011
@ 050   ----------------------------------------
	.byte	PATT
	 .word	ShopPrep_7_010
@ 051   ----------------------------------------
	.byte	PATT
	 .word	ShopPrep_7_011
@ 052   ----------------------------------------
	.byte	PATT
	 .word	ShopPrep_7_010
@ 053   ----------------------------------------
	.byte	PATT
	 .word	ShopPrep_7_011
@ 054   ----------------------------------------
	.byte	PATT
	 .word	ShopPrep_7_010
@ 055   ----------------------------------------
	.byte		N03   , Dn1 , v100
	.byte		N03   , Fs1 , v060
	.byte	W06
	.byte		        Dn1 , v100
	.byte	W06
	.byte		N03   
	.byte		N03   , Fs1 , v032
	.byte	W06
	.byte		        Fs1 , v044
	.byte	W06
@ 056   ----------------------------------------
	.byte	PATT
	 .word	ShopPrep_7_038
@ 057   ----------------------------------------
	.byte	PATT
	 .word	ShopPrep_7_011
@ 058   ----------------------------------------
	.byte	PATT
	 .word	ShopPrep_7_042
@ 059   ----------------------------------------
	.byte	PATT
	 .word	ShopPrep_7_011
@ 060   ----------------------------------------
	.byte	PATT
	 .word	ShopPrep_7_042
@ 061   ----------------------------------------
	.byte	PATT
	 .word	ShopPrep_7_011
@ 062   ----------------------------------------
	.byte	PATT
	 .word	ShopPrep_7_042
@ 063   ----------------------------------------
	.byte	PATT
	 .word	ShopPrep_7_011
@ 064   ----------------------------------------
	.byte	PATT
	 .word	ShopPrep_7_042
@ 065   ----------------------------------------
	.byte	PATT
	 .word	ShopPrep_7_011
@ 066   ----------------------------------------
	.byte	PATT
	 .word	ShopPrep_7_010
@ 067   ----------------------------------------
	.byte	PATT
	 .word	ShopPrep_7_011
@ 068   ----------------------------------------
	.byte	PATT
	 .word	ShopPrep_7_042
@ 069   ----------------------------------------
	.byte		N03   , Fs1 , v060
	.byte	W12
	.byte		        Dn1 , v100
	.byte		N03   , Fs1 , v032
	.byte	W06
	.byte		        Dn1 , v100
	.byte		N03   , Fs1 , v044
	.byte	W06
@ 070   ----------------------------------------
ShopPrep_7_070:
	.byte		N03   , Cn1 , v100
	.byte		N03   , Fs1 , v060
	.byte	W12
	.byte		        Dn1 , v100
	.byte		N03   , Fs1 , v032
	.byte	W06
	.byte		        Dn1 , v100
	.byte		N03   , Fs1 , v044
	.byte	W06
	.byte	PEND
@ 071   ----------------------------------------
	.byte	PATT
	 .word	ShopPrep_7_070
@ 072   ----------------------------------------
	.byte	PATT
	 .word	ShopPrep_7_070
@ 073   ----------------------------------------
	.byte	PATT
	 .word	ShopPrep_7_011
@ 074   ----------------------------------------
	.byte	PATT
	 .word	ShopPrep_7_042
@ 075   ----------------------------------------
	.byte	PATT
	 .word	ShopPrep_7_011
@ 076   ----------------------------------------
	.byte	PATT
	 .word	ShopPrep_7_010
@ 077   ----------------------------------------
	.byte	PATT
	 .word	ShopPrep_7_011
@ 078   ----------------------------------------
	.byte	PATT
	 .word	ShopPrep_7_042
@ 079   ----------------------------------------
	.byte	PATT
	 .word	ShopPrep_7_011
@ 080   ----------------------------------------
	.byte	PATT
	 .word	ShopPrep_7_010
@ 081   ----------------------------------------
	.byte	PATT
	 .word	ShopPrep_7_011
@ 082   ----------------------------------------
	.byte	PATT
	 .word	ShopPrep_7_042
@ 083   ----------------------------------------
	.byte	PATT
	 .word	ShopPrep_7_011
@ 084   ----------------------------------------
	.byte	PATT
	 .word	ShopPrep_7_010
@ 085   ----------------------------------------
	.byte	PATT
	 .word	ShopPrep_7_011
@ 086   ----------------------------------------
	.byte	PATT
	 .word	ShopPrep_7_042
@ 087   ----------------------------------------
	.byte		N03   , Cn1 , v100
	.byte		N03   , Fs1 , v060
	.byte	W12
	.byte		        Fn1 , v096
	.byte		N03   , Fs1 , v032
	.byte	W06
	.byte		        Fs1 , v044
	.byte	W06
@ 088   ----------------------------------------
	.byte	PATT
	 .word	ShopPrep_7_010
@ 089   ----------------------------------------
	.byte	PATT
	 .word	ShopPrep_7_011
@ 090   ----------------------------------------
	.byte	PATT
	 .word	ShopPrep_7_042
@ 091   ----------------------------------------
	.byte	PATT
	 .word	ShopPrep_7_011
@ 092   ----------------------------------------
	.byte	PATT
	 .word	ShopPrep_7_010
@ 093   ----------------------------------------
	.byte	PATT
	 .word	ShopPrep_7_011
@ 094   ----------------------------------------
	.byte	PATT
	 .word	ShopPrep_7_042
@ 095   ----------------------------------------
	.byte	PATT
	 .word	ShopPrep_7_011
@ 096   ----------------------------------------
	.byte	PATT
	 .word	ShopPrep_7_010
@ 097   ----------------------------------------
	.byte	PATT
	 .word	ShopPrep_7_042
@ 098   ----------------------------------------
ShopPrep_7_098:
	.byte		N03   , Cn1 , v100
	.byte		N03   , Fs1 , v060
	.byte	W12
	.byte		        Dn1 , v100
	.byte		N03   , Fs1 , v032
	.byte	W06
	.byte		        Fs1 , v044
	.byte	W06
	.byte	PEND
@ 099   ----------------------------------------
	.byte		        Cn1 , v100
	.byte		N03   , Fs1 , v060
	.byte	W12
	.byte		        Cn1 , v100
	.byte		N03   , Fs1 , v032
	.byte	W06
	.byte		        Fs1 , v044
	.byte	W06
@ 100   ----------------------------------------
	.byte	PATT
	 .word	ShopPrep_7_042
@ 101   ----------------------------------------
	.byte	PATT
	 .word	ShopPrep_7_098
@ 102   ----------------------------------------
	.byte	PATT
	 .word	ShopPrep_7_042
@ 103   ----------------------------------------
ShopPrep_7_103:
	.byte		N03   , Cn1 , v100
	.byte		N03   , Dn1 
	.byte		N03   , Fs1 , v060
	.byte	W06
	.byte		        Dn1 , v100
	.byte	W06
	.byte		N03   
	.byte		N03   , Fs1 , v032
	.byte	W06
	.byte		        Dn1 , v100
	.byte		N03   , Fs1 , v044
	.byte	W06
	.byte	PEND
@ 104   ----------------------------------------
	.byte	PATT
	 .word	ShopPrep_7_103
	.byte	GOTO
	 .word	ShopPrep_7_B1
ShopPrep_7_B2:
@ 105   ----------------------------------------
	.byte	FINE

@**************** Track 8 (Midi-Chn.8) ****************@

ShopPrep_8:
	.byte	KEYSH , ShopPrep_key+0
@ 000   ----------------------------------------
	.byte		VOICE , 7
	.byte		VOL   , 39*ShopPrep_mvl/mxv
	.byte	W09
	.byte		PAN   , c_v+0
	.byte	W15
@ 001   ----------------------------------------
ShopPrep_8_001:
	.byte		N02   , An2 , v052
	.byte	W06
	.byte		N02   
	.byte	W06
	.byte		N02   
	.byte	W06
	.byte		N02   
	.byte	W06
	.byte	PEND
@ 002   ----------------------------------------
	.byte	PATT
	 .word	ShopPrep_8_001
@ 003   ----------------------------------------
	.byte	PATT
	 .word	ShopPrep_8_001
@ 004   ----------------------------------------
	.byte	PATT
	 .word	ShopPrep_8_001
@ 005   ----------------------------------------
	.byte	PATT
	 .word	ShopPrep_8_001
@ 006   ----------------------------------------
	.byte	PATT
	 .word	ShopPrep_8_001
@ 007   ----------------------------------------
	.byte	PATT
	 .word	ShopPrep_8_001
@ 008   ----------------------------------------
	.byte	PATT
	 .word	ShopPrep_8_001
ShopPrep_8_B1:
@ 009   ----------------------------------------
	.byte	W24
@ 010   ----------------------------------------
	.byte	W24
@ 011   ----------------------------------------
	.byte	W24
@ 012   ----------------------------------------
	.byte	W24
@ 013   ----------------------------------------
	.byte	W24
@ 014   ----------------------------------------
	.byte	W24
@ 015   ----------------------------------------
	.byte	W24
@ 016   ----------------------------------------
	.byte	W24
@ 017   ----------------------------------------
	.byte	W24
@ 018   ----------------------------------------
	.byte	W24
@ 019   ----------------------------------------
	.byte	W24
@ 020   ----------------------------------------
	.byte	W24
@ 021   ----------------------------------------
	.byte	W24
@ 022   ----------------------------------------
	.byte	W24
@ 023   ----------------------------------------
	.byte	W24
@ 024   ----------------------------------------
	.byte	W24
@ 025   ----------------------------------------
	.byte	W24
@ 026   ----------------------------------------
	.byte	W24
@ 027   ----------------------------------------
	.byte	W24
@ 028   ----------------------------------------
	.byte	W24
@ 029   ----------------------------------------
	.byte	W24
@ 030   ----------------------------------------
	.byte	W24
@ 031   ----------------------------------------
	.byte	W24
@ 032   ----------------------------------------
	.byte	W24
@ 033   ----------------------------------------
	.byte	W24
@ 034   ----------------------------------------
	.byte	W24
@ 035   ----------------------------------------
	.byte	W24
@ 036   ----------------------------------------
	.byte	W24
@ 037   ----------------------------------------
	.byte	W24
@ 038   ----------------------------------------
	.byte	W24
@ 039   ----------------------------------------
	.byte	W24
@ 040   ----------------------------------------
	.byte	W24
@ 041   ----------------------------------------
	.byte	W24
@ 042   ----------------------------------------
	.byte	W24
@ 043   ----------------------------------------
	.byte	W24
@ 044   ----------------------------------------
	.byte	W24
@ 045   ----------------------------------------
	.byte	W24
@ 046   ----------------------------------------
	.byte	W24
@ 047   ----------------------------------------
	.byte	W24
@ 048   ----------------------------------------
	.byte	W24
@ 049   ----------------------------------------
	.byte	W24
@ 050   ----------------------------------------
	.byte	W24
@ 051   ----------------------------------------
	.byte	W24
@ 052   ----------------------------------------
	.byte	W24
@ 053   ----------------------------------------
	.byte	W24
@ 054   ----------------------------------------
	.byte	W24
@ 055   ----------------------------------------
	.byte	W24
@ 056   ----------------------------------------
	.byte	W24
@ 057   ----------------------------------------
	.byte	W24
@ 058   ----------------------------------------
	.byte	W24
@ 059   ----------------------------------------
	.byte	W24
@ 060   ----------------------------------------
	.byte	W24
@ 061   ----------------------------------------
	.byte	W24
@ 062   ----------------------------------------
	.byte	W24
@ 063   ----------------------------------------
	.byte	W24
@ 064   ----------------------------------------
	.byte	W24
@ 065   ----------------------------------------
	.byte	W24
@ 066   ----------------------------------------
	.byte	W24
@ 067   ----------------------------------------
	.byte	W24
@ 068   ----------------------------------------
	.byte	W24
@ 069   ----------------------------------------
	.byte	W24
@ 070   ----------------------------------------
	.byte	W24
@ 071   ----------------------------------------
	.byte	W24
@ 072   ----------------------------------------
	.byte	W24
@ 073   ----------------------------------------
	.byte	W24
@ 074   ----------------------------------------
	.byte	W24
@ 075   ----------------------------------------
	.byte	W24
@ 076   ----------------------------------------
	.byte	W24
@ 077   ----------------------------------------
	.byte	W24
@ 078   ----------------------------------------
	.byte	W24
@ 079   ----------------------------------------
	.byte	W24
@ 080   ----------------------------------------
	.byte	W24
@ 081   ----------------------------------------
	.byte	W24
@ 082   ----------------------------------------
	.byte	W24
@ 083   ----------------------------------------
	.byte	W24
@ 084   ----------------------------------------
	.byte	W24
@ 085   ----------------------------------------
	.byte	W24
@ 086   ----------------------------------------
	.byte	W24
@ 087   ----------------------------------------
	.byte	W24
@ 088   ----------------------------------------
	.byte	W24
@ 089   ----------------------------------------
	.byte	W24
@ 090   ----------------------------------------
	.byte	W24
@ 091   ----------------------------------------
	.byte	W24
@ 092   ----------------------------------------
	.byte	W24
@ 093   ----------------------------------------
	.byte	W24
@ 094   ----------------------------------------
	.byte	W24
@ 095   ----------------------------------------
	.byte	W24
@ 096   ----------------------------------------
	.byte	W24
@ 097   ----------------------------------------
	.byte	W24
@ 098   ----------------------------------------
	.byte	W24
@ 099   ----------------------------------------
	.byte	W24
@ 100   ----------------------------------------
	.byte	W24
@ 101   ----------------------------------------
	.byte	W24
@ 102   ----------------------------------------
	.byte	W24
@ 103   ----------------------------------------
	.byte	W24
@ 104   ----------------------------------------
	.byte	W24
	.byte	GOTO
	 .word	ShopPrep_8_B1
ShopPrep_8_B2:
@ 105   ----------------------------------------
	.byte	FINE

@**************** Track 9 (Midi-Chn.9) ****************@

ShopPrep_9:
	.byte	KEYSH , ShopPrep_key+0
@ 000   ----------------------------------------
	.byte		VOICE , 7
	.byte		VOL   , 16*ShopPrep_mvl/mxv
	.byte	W09
	.byte		PAN   , c_v+0
	.byte	W15
@ 001   ----------------------------------------
ShopPrep_9_001:
	.byte		PAN   , c_v-64
	.byte		N02   , An3 , v072
	.byte	W06
	.byte		PAN   , c_v+0
	.byte		N02   
	.byte	W06
	.byte		PAN   , c_v+63
	.byte		N02   
	.byte	W06
	.byte		PAN   , c_v+0
	.byte		N02   
	.byte	W06
	.byte	PEND
@ 002   ----------------------------------------
	.byte	PATT
	 .word	ShopPrep_9_001
@ 003   ----------------------------------------
	.byte	PATT
	 .word	ShopPrep_9_001
@ 004   ----------------------------------------
	.byte	PATT
	 .word	ShopPrep_9_001
@ 005   ----------------------------------------
	.byte	PATT
	 .word	ShopPrep_9_001
@ 006   ----------------------------------------
	.byte	PATT
	 .word	ShopPrep_9_001
@ 007   ----------------------------------------
	.byte	PATT
	 .word	ShopPrep_9_001
@ 008   ----------------------------------------
	.byte	PATT
	 .word	ShopPrep_9_001
ShopPrep_9_B1:
@ 009   ----------------------------------------
	.byte		PAN   , c_v-64
	.byte		N02   , Gs3 , v072
	.byte	W06
	.byte		PAN   , c_v+0
	.byte		N02   , An3 
	.byte	W06
	.byte		PAN   , c_v+63
	.byte		N02   
	.byte	W06
	.byte		PAN   , c_v+0
	.byte		N02   
	.byte	W06
@ 010   ----------------------------------------
	.byte	PATT
	 .word	ShopPrep_9_001
@ 011   ----------------------------------------
	.byte	PATT
	 .word	ShopPrep_9_001
@ 012   ----------------------------------------
	.byte	PATT
	 .word	ShopPrep_9_001
@ 013   ----------------------------------------
	.byte	PATT
	 .word	ShopPrep_9_001
@ 014   ----------------------------------------
	.byte	PATT
	 .word	ShopPrep_9_001
@ 015   ----------------------------------------
	.byte	PATT
	 .word	ShopPrep_9_001
@ 016   ----------------------------------------
	.byte	PATT
	 .word	ShopPrep_9_001
@ 017   ----------------------------------------
	.byte	PATT
	 .word	ShopPrep_9_001
@ 018   ----------------------------------------
	.byte	PATT
	 .word	ShopPrep_9_001
@ 019   ----------------------------------------
	.byte	PATT
	 .word	ShopPrep_9_001
@ 020   ----------------------------------------
	.byte	PATT
	 .word	ShopPrep_9_001
@ 021   ----------------------------------------
	.byte	PATT
	 .word	ShopPrep_9_001
@ 022   ----------------------------------------
	.byte	PATT
	 .word	ShopPrep_9_001
@ 023   ----------------------------------------
ShopPrep_9_023:
	.byte		PAN   , c_v-64
	.byte	W06
	.byte		        c_v+0
	.byte	W06
	.byte		        c_v+63
	.byte	W06
	.byte		        c_v+0
	.byte	W06
	.byte	PEND
@ 024   ----------------------------------------
	.byte	PATT
	 .word	ShopPrep_9_023
@ 025   ----------------------------------------
	.byte	PATT
	 .word	ShopPrep_9_001
@ 026   ----------------------------------------
	.byte	PATT
	 .word	ShopPrep_9_001
@ 027   ----------------------------------------
	.byte	PATT
	 .word	ShopPrep_9_001
@ 028   ----------------------------------------
	.byte	PATT
	 .word	ShopPrep_9_001
@ 029   ----------------------------------------
	.byte	PATT
	 .word	ShopPrep_9_001
@ 030   ----------------------------------------
	.byte	PATT
	 .word	ShopPrep_9_001
@ 031   ----------------------------------------
	.byte	PATT
	 .word	ShopPrep_9_001
@ 032   ----------------------------------------
	.byte	PATT
	 .word	ShopPrep_9_001
@ 033   ----------------------------------------
	.byte	PATT
	 .word	ShopPrep_9_001
@ 034   ----------------------------------------
	.byte	PATT
	 .word	ShopPrep_9_001
@ 035   ----------------------------------------
	.byte	PATT
	 .word	ShopPrep_9_001
@ 036   ----------------------------------------
	.byte	PATT
	 .word	ShopPrep_9_001
@ 037   ----------------------------------------
	.byte	PATT
	 .word	ShopPrep_9_001
@ 038   ----------------------------------------
	.byte	PATT
	 .word	ShopPrep_9_001
@ 039   ----------------------------------------
	.byte	PATT
	 .word	ShopPrep_9_001
@ 040   ----------------------------------------
	.byte	PATT
	 .word	ShopPrep_9_001
@ 041   ----------------------------------------
ShopPrep_9_041:
	.byte		PAN   , c_v-64
	.byte		N02   , Gn3 , v072
	.byte	W06
	.byte		PAN   , c_v+0
	.byte		N02   
	.byte	W06
	.byte		PAN   , c_v+63
	.byte		N02   
	.byte	W06
	.byte		PAN   , c_v+0
	.byte		N02   
	.byte	W06
	.byte	PEND
@ 042   ----------------------------------------
	.byte	PATT
	 .word	ShopPrep_9_041
@ 043   ----------------------------------------
	.byte	PATT
	 .word	ShopPrep_9_041
@ 044   ----------------------------------------
	.byte	PATT
	 .word	ShopPrep_9_041
@ 045   ----------------------------------------
	.byte	PATT
	 .word	ShopPrep_9_041
@ 046   ----------------------------------------
	.byte	PATT
	 .word	ShopPrep_9_041
@ 047   ----------------------------------------
	.byte	PATT
	 .word	ShopPrep_9_041
@ 048   ----------------------------------------
	.byte	PATT
	 .word	ShopPrep_9_041
@ 049   ----------------------------------------
ShopPrep_9_049:
	.byte		PAN   , c_v-64
	.byte		N02   , Fs3 , v072
	.byte	W06
	.byte		PAN   , c_v+0
	.byte		N02   
	.byte	W06
	.byte		PAN   , c_v+63
	.byte		N02   
	.byte	W06
	.byte		PAN   , c_v+0
	.byte		N02   
	.byte	W06
	.byte	PEND
@ 050   ----------------------------------------
	.byte	PATT
	 .word	ShopPrep_9_049
@ 051   ----------------------------------------
	.byte	PATT
	 .word	ShopPrep_9_049
@ 052   ----------------------------------------
	.byte	PATT
	 .word	ShopPrep_9_049
@ 053   ----------------------------------------
	.byte	PATT
	 .word	ShopPrep_9_049
@ 054   ----------------------------------------
	.byte	PATT
	 .word	ShopPrep_9_049
@ 055   ----------------------------------------
	.byte	PATT
	 .word	ShopPrep_9_049
@ 056   ----------------------------------------
	.byte	PATT
	 .word	ShopPrep_9_049
@ 057   ----------------------------------------
ShopPrep_9_057:
	.byte		PAN   , c_v-64
	.byte		N02   , En3 , v072
	.byte	W06
	.byte		PAN   , c_v+0
	.byte		N02   
	.byte	W06
	.byte		PAN   , c_v+63
	.byte		N02   
	.byte	W06
	.byte		PAN   , c_v+0
	.byte		N02   
	.byte	W06
	.byte	PEND
@ 058   ----------------------------------------
	.byte	PATT
	 .word	ShopPrep_9_057
@ 059   ----------------------------------------
	.byte	PATT
	 .word	ShopPrep_9_057
@ 060   ----------------------------------------
	.byte	PATT
	 .word	ShopPrep_9_057
@ 061   ----------------------------------------
	.byte	PATT
	 .word	ShopPrep_9_057
@ 062   ----------------------------------------
	.byte	PATT
	 .word	ShopPrep_9_057
@ 063   ----------------------------------------
	.byte	PATT
	 .word	ShopPrep_9_057
@ 064   ----------------------------------------
	.byte	PATT
	 .word	ShopPrep_9_057
@ 065   ----------------------------------------
	.byte	PATT
	 .word	ShopPrep_9_049
@ 066   ----------------------------------------
	.byte	PATT
	 .word	ShopPrep_9_049
@ 067   ----------------------------------------
	.byte	PATT
	 .word	ShopPrep_9_049
@ 068   ----------------------------------------
ShopPrep_9_068:
	.byte		PAN   , c_v-64
	.byte		N02   , Fs3 , v072
	.byte	W06
	.byte		PAN   , c_v+0
	.byte		N02   
	.byte	W06
	.byte		PAN   , c_v+63
	.byte		N02   , Gs3 
	.byte	W06
	.byte		PAN   , c_v+0
	.byte		N02   
	.byte	W06
	.byte	PEND
@ 069   ----------------------------------------
ShopPrep_9_069:
	.byte		PAN   , c_v-64
	.byte		N02   , Gs3 , v072
	.byte	W06
	.byte		PAN   , c_v+0
	.byte		N02   
	.byte	W06
	.byte		PAN   , c_v+63
	.byte		N02   
	.byte	W06
	.byte		PAN   , c_v+0
	.byte		N02   
	.byte	W06
	.byte	PEND
@ 070   ----------------------------------------
	.byte	PATT
	 .word	ShopPrep_9_069
@ 071   ----------------------------------------
	.byte	PATT
	 .word	ShopPrep_9_069
@ 072   ----------------------------------------
	.byte	PATT
	 .word	ShopPrep_9_069
@ 073   ----------------------------------------
	.byte	PATT
	 .word	ShopPrep_9_001
@ 074   ----------------------------------------
	.byte	PATT
	 .word	ShopPrep_9_001
@ 075   ----------------------------------------
	.byte	PATT
	 .word	ShopPrep_9_001
@ 076   ----------------------------------------
	.byte	PATT
	 .word	ShopPrep_9_001
@ 077   ----------------------------------------
	.byte	PATT
	 .word	ShopPrep_9_001
@ 078   ----------------------------------------
	.byte	PATT
	 .word	ShopPrep_9_001
@ 079   ----------------------------------------
	.byte	PATT
	 .word	ShopPrep_9_001
@ 080   ----------------------------------------
	.byte	PATT
	 .word	ShopPrep_9_001
@ 081   ----------------------------------------
	.byte	PATT
	 .word	ShopPrep_9_001
@ 082   ----------------------------------------
	.byte	PATT
	 .word	ShopPrep_9_001
@ 083   ----------------------------------------
	.byte	PATT
	 .word	ShopPrep_9_001
@ 084   ----------------------------------------
	.byte	PATT
	 .word	ShopPrep_9_001
@ 085   ----------------------------------------
	.byte	PATT
	 .word	ShopPrep_9_001
@ 086   ----------------------------------------
	.byte	PATT
	 .word	ShopPrep_9_001
@ 087   ----------------------------------------
	.byte	PATT
	 .word	ShopPrep_9_001
@ 088   ----------------------------------------
	.byte	PATT
	 .word	ShopPrep_9_001
@ 089   ----------------------------------------
	.byte	PATT
	 .word	ShopPrep_9_001
@ 090   ----------------------------------------
	.byte	PATT
	 .word	ShopPrep_9_001
@ 091   ----------------------------------------
	.byte	PATT
	 .word	ShopPrep_9_001
@ 092   ----------------------------------------
	.byte	PATT
	 .word	ShopPrep_9_001
@ 093   ----------------------------------------
	.byte	PATT
	 .word	ShopPrep_9_001
@ 094   ----------------------------------------
	.byte	PATT
	 .word	ShopPrep_9_001
@ 095   ----------------------------------------
	.byte	PATT
	 .word	ShopPrep_9_001
@ 096   ----------------------------------------
	.byte	PATT
	 .word	ShopPrep_9_001
@ 097   ----------------------------------------
	.byte	PATT
	 .word	ShopPrep_9_049
@ 098   ----------------------------------------
	.byte	PATT
	 .word	ShopPrep_9_049
@ 099   ----------------------------------------
	.byte	PATT
	 .word	ShopPrep_9_049
@ 100   ----------------------------------------
	.byte	PATT
	 .word	ShopPrep_9_068
@ 101   ----------------------------------------
	.byte	PATT
	 .word	ShopPrep_9_069
@ 102   ----------------------------------------
	.byte	PATT
	 .word	ShopPrep_9_069
@ 103   ----------------------------------------
	.byte	PATT
	 .word	ShopPrep_9_069
@ 104   ----------------------------------------
	.byte	PATT
	 .word	ShopPrep_9_069
	.byte	GOTO
	 .word	ShopPrep_9_B1
ShopPrep_9_B2:
@ 105   ----------------------------------------
	.byte	FINE

@**************** Track 10 (Midi-Chn.11) ****************@

ShopPrep_10:
	.byte	KEYSH , ShopPrep_key+0
@ 000   ----------------------------------------
	.byte		VOICE , 32
	.byte		VOL   , 57*ShopPrep_mvl/mxv
	.byte	W09
	.byte		PAN   , c_v+0
	.byte	W15
@ 001   ----------------------------------------
	.byte	W24
@ 002   ----------------------------------------
	.byte	W24
@ 003   ----------------------------------------
	.byte	W24
@ 004   ----------------------------------------
	.byte	W24
@ 005   ----------------------------------------
	.byte	W24
@ 006   ----------------------------------------
	.byte	W24
@ 007   ----------------------------------------
	.byte	W24
@ 008   ----------------------------------------
	.byte	W24
ShopPrep_10_B1:
@ 009   ----------------------------------------
ShopPrep_10_009:
	.byte		N08   , An3 , v100
	.byte	W12
	.byte		N05   
	.byte	W06
	.byte		N05   
	.byte	W06
	.byte	PEND
@ 010   ----------------------------------------
	.byte	PATT
	 .word	ShopPrep_10_009
@ 011   ----------------------------------------
	.byte	PATT
	 .word	ShopPrep_10_009
@ 012   ----------------------------------------
	.byte	PATT
	 .word	ShopPrep_10_009
@ 013   ----------------------------------------
	.byte	PATT
	 .word	ShopPrep_10_009
@ 014   ----------------------------------------
	.byte	PATT
	 .word	ShopPrep_10_009
@ 015   ----------------------------------------
ShopPrep_10_015:
	.byte		N08   , An3 , v100
	.byte	W12
	.byte		N08   
	.byte	W12
	.byte	PEND
@ 016   ----------------------------------------
	.byte	PATT
	 .word	ShopPrep_10_015
@ 017   ----------------------------------------
	.byte	PATT
	 .word	ShopPrep_10_009
@ 018   ----------------------------------------
	.byte	PATT
	 .word	ShopPrep_10_009
@ 019   ----------------------------------------
	.byte	PATT
	 .word	ShopPrep_10_009
@ 020   ----------------------------------------
	.byte	PATT
	 .word	ShopPrep_10_009
@ 021   ----------------------------------------
	.byte	PATT
	 .word	ShopPrep_10_009
@ 022   ----------------------------------------
	.byte	PATT
	 .word	ShopPrep_10_009
@ 023   ----------------------------------------
	.byte		N06   , Gn4 , v100
	.byte	W06
	.byte		        En4 
	.byte	W06
	.byte		        Gn4 
	.byte	W06
	.byte		        En4 
	.byte	W06
@ 024   ----------------------------------------
	.byte		        Gn4 
	.byte	W06
	.byte		        En4 
	.byte	W06
	.byte		N12   , Gn4 
	.byte	W12
@ 025   ----------------------------------------
	.byte	PATT
	 .word	ShopPrep_10_009
@ 026   ----------------------------------------
	.byte	PATT
	 .word	ShopPrep_10_009
@ 027   ----------------------------------------
	.byte	PATT
	 .word	ShopPrep_10_009
@ 028   ----------------------------------------
	.byte	PATT
	 .word	ShopPrep_10_009
@ 029   ----------------------------------------
	.byte	PATT
	 .word	ShopPrep_10_009
@ 030   ----------------------------------------
	.byte	PATT
	 .word	ShopPrep_10_009
@ 031   ----------------------------------------
	.byte	PATT
	 .word	ShopPrep_10_015
@ 032   ----------------------------------------
	.byte	PATT
	 .word	ShopPrep_10_015
@ 033   ----------------------------------------
	.byte	PATT
	 .word	ShopPrep_10_009
@ 034   ----------------------------------------
	.byte	PATT
	 .word	ShopPrep_10_009
@ 035   ----------------------------------------
	.byte	PATT
	 .word	ShopPrep_10_009
@ 036   ----------------------------------------
	.byte	PATT
	 .word	ShopPrep_10_009
@ 037   ----------------------------------------
	.byte	PATT
	 .word	ShopPrep_10_015
@ 038   ----------------------------------------
	.byte		N08   , En3 , v100
	.byte	W12
	.byte		N08   
	.byte	W12
@ 039   ----------------------------------------
	.byte		N08   
	.byte	W12
	.byte		N08   
	.byte	W12
@ 040   ----------------------------------------
	.byte		N08   
	.byte	W12
	.byte		N08   
	.byte	W12
@ 041   ----------------------------------------
	.byte		N24   , Cn4 
	.byte	W24
@ 042   ----------------------------------------
	.byte	W12
	.byte		N12   
	.byte	W12
@ 043   ----------------------------------------
	.byte		N24   
	.byte	W24
@ 044   ----------------------------------------
	.byte	W12
	.byte		N12   
	.byte	W12
@ 045   ----------------------------------------
	.byte		N24   
	.byte	W24
@ 046   ----------------------------------------
	.byte	W12
	.byte		N08   
	.byte	W12
@ 047   ----------------------------------------
	.byte		N08   
	.byte	W12
	.byte		        Bn3 
	.byte	W12
@ 048   ----------------------------------------
	.byte		        An3 
	.byte	W12
	.byte		N20   , Fs3 
	.byte	W12
@ 049   ----------------------------------------
	.byte	W12
	.byte		N05   
	.byte	W06
	.byte		N05   
	.byte	W06
@ 050   ----------------------------------------
ShopPrep_10_050:
	.byte		N08   , Fs3 , v100
	.byte	W12
	.byte		N05   
	.byte	W06
	.byte		N05   
	.byte	W06
	.byte	PEND
@ 051   ----------------------------------------
	.byte	PATT
	 .word	ShopPrep_10_050
@ 052   ----------------------------------------
	.byte	PATT
	 .word	ShopPrep_10_050
@ 053   ----------------------------------------
ShopPrep_10_053:
	.byte		N08   , Fs3 , v100
	.byte	W12
	.byte		N08   
	.byte	W12
	.byte	PEND
@ 054   ----------------------------------------
	.byte	PATT
	 .word	ShopPrep_10_053
@ 055   ----------------------------------------
	.byte	PATT
	 .word	ShopPrep_10_053
@ 056   ----------------------------------------
	.byte	PATT
	 .word	ShopPrep_10_053
@ 057   ----------------------------------------
	.byte		N24   , Cn4 , v100
	.byte	W24
@ 058   ----------------------------------------
	.byte	W12
	.byte		N12   
	.byte	W12
@ 059   ----------------------------------------
	.byte		N24   
	.byte	W24
@ 060   ----------------------------------------
	.byte	W12
	.byte		N12   
	.byte	W12
@ 061   ----------------------------------------
ShopPrep_10_061:
	.byte		N08   , Cn4 , v100
	.byte	W12
	.byte		N08   
	.byte	W12
	.byte	PEND
@ 062   ----------------------------------------
ShopPrep_10_062:
	.byte		N08   , Cn5 , v100
	.byte	W12
	.byte		        Cn4 
	.byte	W12
	.byte	PEND
@ 063   ----------------------------------------
	.byte	PATT
	 .word	ShopPrep_10_062
@ 064   ----------------------------------------
	.byte	PATT
	 .word	ShopPrep_10_061
@ 065   ----------------------------------------
ShopPrep_10_065:
	.byte		N08   , Dn4 , v100
	.byte	W12
	.byte		N08   
	.byte	W12
	.byte	PEND
@ 066   ----------------------------------------
	.byte	PATT
	 .word	ShopPrep_10_065
@ 067   ----------------------------------------
	.byte		N08   , Dn4 , v100
	.byte	W12
	.byte		N12   
	.byte	W12
@ 068   ----------------------------------------
	.byte	W12
	.byte		N24   , En3 
	.byte	W12
@ 069   ----------------------------------------
	.byte	W12
	.byte		N04   , En4 
	.byte	W12
@ 070   ----------------------------------------
ShopPrep_10_070:
	.byte		N12   , En3 , v100
	.byte	W12
	.byte		N04   , En4 
	.byte	W12
	.byte	PEND
@ 071   ----------------------------------------
	.byte	PATT
	 .word	ShopPrep_10_070
@ 072   ----------------------------------------
	.byte	PATT
	 .word	ShopPrep_10_070
@ 073   ----------------------------------------
	.byte		N16   , An3 , v100
	.byte	W24
@ 074   ----------------------------------------
	.byte	W12
	.byte		N08   
	.byte	W12
@ 075   ----------------------------------------
	.byte		N16   
	.byte	W24
@ 076   ----------------------------------------
	.byte	W24
@ 077   ----------------------------------------
	.byte		N16   
	.byte	W24
@ 078   ----------------------------------------
	.byte	W12
	.byte		N08   
	.byte	W12
@ 079   ----------------------------------------
	.byte		N16   
	.byte	W24
@ 080   ----------------------------------------
	.byte	W24
@ 081   ----------------------------------------
	.byte		N16   
	.byte	W24
@ 082   ----------------------------------------
	.byte	W12
	.byte		N08   
	.byte	W12
@ 083   ----------------------------------------
	.byte		N16   
	.byte	W24
@ 084   ----------------------------------------
	.byte	W24
@ 085   ----------------------------------------
	.byte		N16   
	.byte	W24
@ 086   ----------------------------------------
	.byte	W12
	.byte		N08   
	.byte	W12
@ 087   ----------------------------------------
	.byte		N16   
	.byte	W24
@ 088   ----------------------------------------
	.byte	W24
@ 089   ----------------------------------------
	.byte		N16   
	.byte	W24
@ 090   ----------------------------------------
	.byte	W12
	.byte		N08   
	.byte	W12
@ 091   ----------------------------------------
	.byte		N16   
	.byte	W24
@ 092   ----------------------------------------
	.byte	W24
@ 093   ----------------------------------------
	.byte		N16   
	.byte	W24
@ 094   ----------------------------------------
	.byte	W12
	.byte		N08   
	.byte	W12
@ 095   ----------------------------------------
	.byte		N16   
	.byte	W24
@ 096   ----------------------------------------
	.byte	W24
@ 097   ----------------------------------------
	.byte	W12
	.byte		N08   , Dn4 
	.byte	W12
@ 098   ----------------------------------------
	.byte		N08   
	.byte	W24
@ 099   ----------------------------------------
	.byte	PATT
	 .word	ShopPrep_10_065
@ 100   ----------------------------------------
	.byte	W12
	.byte		N08   , En4 , v100
	.byte	W12
@ 101   ----------------------------------------
	.byte	W12
	.byte		N08   
	.byte	W12
@ 102   ----------------------------------------
ShopPrep_10_102:
	.byte		N08   , En4 , v100
	.byte	W12
	.byte		N08   
	.byte	W12
	.byte	PEND
@ 103   ----------------------------------------
	.byte	PATT
	 .word	ShopPrep_10_102
@ 104   ----------------------------------------
	.byte	PATT
	 .word	ShopPrep_10_102
	.byte	GOTO
	 .word	ShopPrep_10_B1
ShopPrep_10_B2:
@ 105   ----------------------------------------
	.byte	FINE

@******************************************************@
	.align	2

ShopPrep:
	.byte	10	@ NumTrks
	.byte	0	@ NumBlks
	.byte	ShopPrep_pri	@ Priority
	.byte	ShopPrep_rev	@ Reverb.

	.word	ShopPrep_grp

	.word	ShopPrep_1
	.word	ShopPrep_2
	.word	ShopPrep_3
	.word	ShopPrep_4
	.word	ShopPrep_5
	.word	ShopPrep_6
	.word	ShopPrep_7
	.word	ShopPrep_8
	.word	ShopPrep_9
	.word	ShopPrep_10

	.end
