//Event file generated from Sappy .s format.
	#include "MPlayDef.event"

	#define	ShopPrep_grp  voicegroup000
	#define	ShopPrep_pri  0
	#define	ShopPrep_rev  0
	#define	ShopPrep_mvl  50
	#define	ShopPrep_key  0
	#define	ShopPrep_tbs  1
	#define	ShopPrep_exg  0
	#define	ShopPrep_cmp  1

	// .rodata
	//	ShopPrep
	ALIGN 4

//**************** Track 1 (Midi-Chn.1) ****************//

ShopPrep_1:
	BYTE	KEYSH   ShopPrep_key+0
// 000   ----------------------------------------
	BYTE	TEMPO   140*ShopPrep_tbs/2
	BYTE		VOICE   34
	BYTE		PAN     c_v+0
	BYTE		VOL     42*ShopPrep_mvl/mxv
	BYTE	W12
	BYTE		BEND    c_v+0
	BYTE	W12
// 001   ----------------------------------------
	BYTE	W24
// 002   ----------------------------------------
	BYTE	W24
// 003   ----------------------------------------
	BYTE	W24
// 004   ----------------------------------------
	BYTE	W24
// 005   ----------------------------------------
	BYTE	W24
// 006   ----------------------------------------
	BYTE	W24
// 007   ----------------------------------------
	BYTE	W24
// 008   ----------------------------------------
	BYTE	W24
ShopPrep_1_B1:
// 009   ----------------------------------------
	BYTE	W12
	BYTE		N08     An3   v100
	BYTE	W12
// 010   ----------------------------------------
ShopPrep_1_010:
	BYTE		N08     An4   v100
	BYTE	W12
	BYTE		        An3 
	BYTE	W12
	BYTE	PEND
// 011   ----------------------------------------
	BYTE	W12
	BYTE		N08   
	BYTE	W12
// 012   ----------------------------------------
	BYTE	PATT
	 POIN2	ShopPrep_1_010
// 013   ----------------------------------------
	BYTE	W12
	BYTE		N08     An3   v100
	BYTE	W12
// 014   ----------------------------------------
	BYTE	PATT
	 POIN2	ShopPrep_1_010
// 015   ----------------------------------------
ShopPrep_1_015:
	BYTE		N08     Cs5   v100
	BYTE	W12
	BYTE		        An3 
	BYTE	W12
	BYTE	PEND
// 016   ----------------------------------------
ShopPrep_1_016:
	BYTE		N08     Dn5   v100
	BYTE	W12
	BYTE		        An3 
	BYTE	W12
	BYTE	PEND
// 017   ----------------------------------------
	BYTE	W12
	BYTE		N08   
	BYTE	W12
// 018   ----------------------------------------
	BYTE	PATT
	 POIN2	ShopPrep_1_010
// 019   ----------------------------------------
	BYTE	W12
	BYTE		N08     An3   v100
	BYTE	W12
// 020   ----------------------------------------
	BYTE	PATT
	 POIN2	ShopPrep_1_010
// 021   ----------------------------------------
	BYTE	W12
	BYTE		N08     An3   v100
	BYTE	W12
// 022   ----------------------------------------
	BYTE	PATT
	 POIN2	ShopPrep_1_010
// 023   ----------------------------------------
	BYTE	W24
// 024   ----------------------------------------
	BYTE	W24
// 025   ----------------------------------------
	BYTE	W12
	BYTE		N08     An3   v100
	BYTE	W12
// 026   ----------------------------------------
	BYTE	PATT
	 POIN2	ShopPrep_1_010
// 027   ----------------------------------------
	BYTE	W12
	BYTE		N08     An3   v100
	BYTE	W12
// 028   ----------------------------------------
	BYTE	PATT
	 POIN2	ShopPrep_1_010
// 029   ----------------------------------------
	BYTE	W12
	BYTE		N08     An3   v100
	BYTE	W12
// 030   ----------------------------------------
	BYTE	PATT
	 POIN2	ShopPrep_1_010
// 031   ----------------------------------------
	BYTE		N08     Bn4   v100
	BYTE	W12
	BYTE		        An3 
	BYTE	W12
// 032   ----------------------------------------
	BYTE	PATT
	 POIN2	ShopPrep_1_010
// 033   ----------------------------------------
	BYTE	W12
	BYTE		N08     An3   v100
	BYTE	W12
// 034   ----------------------------------------
	BYTE	PATT
	 POIN2	ShopPrep_1_010
// 035   ----------------------------------------
	BYTE	W12
	BYTE		N08     An3   v100
	BYTE	W12
// 036   ----------------------------------------
	BYTE	PATT
	 POIN2	ShopPrep_1_010
// 037   ----------------------------------------
	BYTE		N06     An4   v112
	BYTE	W12
	BYTE		N06   
	BYTE	W12
// 038   ----------------------------------------
	BYTE		        Gn4 
	BYTE	W12
	BYTE		N06   
	BYTE	W12
// 039   ----------------------------------------
	BYTE		        Fs4 
	BYTE	W12
	BYTE		N06   
	BYTE	W12
// 040   ----------------------------------------
	BYTE		        En4 
	BYTE	W12
	BYTE		N06   
	BYTE	W12
// 041   ----------------------------------------
	BYTE	W12
	BYTE		N08     Cn5 
	BYTE	W12
// 042   ----------------------------------------
	BYTE		        Cn4 
	BYTE	W24
// 043   ----------------------------------------
	BYTE	W12
	BYTE		        Cn4   v100
	BYTE	W12
// 044   ----------------------------------------
ShopPrep_1_044:
	BYTE		N08     Cn5   v100
	BYTE	W12
	BYTE		        Cn4 
	BYTE	W12
	BYTE	PEND
// 045   ----------------------------------------
	BYTE	W12
	BYTE		N08   
	BYTE	W12
// 046   ----------------------------------------
	BYTE	PATT
	 POIN2	ShopPrep_1_044
// 047   ----------------------------------------
	BYTE		N08     Cn5   v100
	BYTE	W12
	BYTE		        Bn4 
	BYTE	W12
// 048   ----------------------------------------
	BYTE		        An3 
	BYTE	W12
	BYTE		        Fs4 
	BYTE	W12
// 049   ----------------------------------------
	BYTE	W12
	BYTE		        Fs3 
	BYTE	W12
// 050   ----------------------------------------
ShopPrep_1_050:
	BYTE		N08     Fs4   v100
	BYTE	W12
	BYTE		        Fs3 
	BYTE	W12
	BYTE	PEND
// 051   ----------------------------------------
	BYTE	W12
	BYTE		N08   
	BYTE	W12
// 052   ----------------------------------------
	BYTE	PATT
	 POIN2	ShopPrep_1_050
// 053   ----------------------------------------
	BYTE		N06     An4   v112
	BYTE	W12
	BYTE		        Bn4 
	BYTE	W12
// 054   ----------------------------------------
	BYTE		        Cs5 
	BYTE	W12
	BYTE		        Bn4 
	BYTE	W12
// 055   ----------------------------------------
	BYTE		        An4 
	BYTE	W12
	BYTE		        Gs4 
	BYTE	W12
// 056   ----------------------------------------
	BYTE		        Fs4 
	BYTE	W12
	BYTE		        An4 
	BYTE	W12
// 057   ----------------------------------------
	BYTE	W12
	BYTE		N08     Cn5   v100
	BYTE	W12
// 058   ----------------------------------------
	BYTE		        Cn4 
	BYTE	W24
// 059   ----------------------------------------
	BYTE	W12
	BYTE		N08   
	BYTE	W12
// 060   ----------------------------------------
	BYTE	PATT
	 POIN2	ShopPrep_1_044
// 061   ----------------------------------------
	BYTE	W12
	BYTE		N08     Cn4   v100
	BYTE	W12
// 062   ----------------------------------------
	BYTE	PATT
	 POIN2	ShopPrep_1_044
// 063   ----------------------------------------
	BYTE	PATT
	 POIN2	ShopPrep_1_044
// 064   ----------------------------------------
	BYTE		N08     Bn4   v100
	BYTE	W12
	BYTE		        An4 
	BYTE	W12
// 065   ----------------------------------------
	BYTE		        Fs4 
	BYTE	W12
	BYTE		        Dn4 
	BYTE	W12
// 066   ----------------------------------------
	BYTE		N08   
	BYTE	W12
	BYTE		N08   
	BYTE	W12
// 067   ----------------------------------------
	BYTE		N08   
	BYTE	W12
	BYTE		        Cn4 
	BYTE	W12
// 068   ----------------------------------------
	BYTE	W12
	BYTE		N20     En4 
	BYTE	W12
// 069   ----------------------------------------
	BYTE	W12
	BYTE		N08     En5 
	BYTE	W12
// 070   ----------------------------------------
ShopPrep_1_070:
	BYTE		N08     En4   v100
	BYTE	W12
	BYTE		        En5 
	BYTE	W12
	BYTE	PEND
// 071   ----------------------------------------
	BYTE	PATT
	 POIN2	ShopPrep_1_070
// 072   ----------------------------------------
	BYTE	PATT
	 POIN2	ShopPrep_1_070
// 073   ----------------------------------------
	BYTE	W12
	BYTE		N08     An3   v100
	BYTE	W12
// 074   ----------------------------------------
	BYTE	PATT
	 POIN2	ShopPrep_1_010
// 075   ----------------------------------------
	BYTE	W12
	BYTE		N08     An3   v100
	BYTE	W12
// 076   ----------------------------------------
	BYTE	PATT
	 POIN2	ShopPrep_1_010
// 077   ----------------------------------------
	BYTE	W12
	BYTE		N08     An3   v100
	BYTE	W12
// 078   ----------------------------------------
	BYTE	PATT
	 POIN2	ShopPrep_1_010
// 079   ----------------------------------------
	BYTE	PATT
	 POIN2	ShopPrep_1_015
// 080   ----------------------------------------
	BYTE	PATT
	 POIN2	ShopPrep_1_016
// 081   ----------------------------------------
	BYTE	W12
	BYTE		N08     An3   v100
	BYTE	W12
// 082   ----------------------------------------
	BYTE	PATT
	 POIN2	ShopPrep_1_010
// 083   ----------------------------------------
	BYTE	W12
	BYTE		N08     An3   v100
	BYTE	W12
// 084   ----------------------------------------
	BYTE	PATT
	 POIN2	ShopPrep_1_010
// 085   ----------------------------------------
	BYTE	W12
	BYTE		N08     An3   v100
	BYTE	W12
// 086   ----------------------------------------
	BYTE	PATT
	 POIN2	ShopPrep_1_010
// 087   ----------------------------------------
	BYTE	PATT
	 POIN2	ShopPrep_1_015
// 088   ----------------------------------------
	BYTE		N08     En5   v100
	BYTE	W12
	BYTE		        An3 
	BYTE	W12
// 089   ----------------------------------------
	BYTE	W12
	BYTE		N08   
	BYTE	W12
// 090   ----------------------------------------
	BYTE	PATT
	 POIN2	ShopPrep_1_010
// 091   ----------------------------------------
	BYTE	W12
	BYTE		N08     An3   v100
	BYTE	W12
// 092   ----------------------------------------
	BYTE	PATT
	 POIN2	ShopPrep_1_010
// 093   ----------------------------------------
	BYTE	W12
	BYTE		N08     An3   v100
	BYTE	W12
// 094   ----------------------------------------
	BYTE	PATT
	 POIN2	ShopPrep_1_010
// 095   ----------------------------------------
	BYTE	PATT
	 POIN2	ShopPrep_1_015
// 096   ----------------------------------------
	BYTE	PATT
	 POIN2	ShopPrep_1_016
// 097   ----------------------------------------
	BYTE	W12
	BYTE		N08     An4   v100
	BYTE	W12
// 098   ----------------------------------------
	BYTE		N08   
	BYTE	W24
// 099   ----------------------------------------
	BYTE		N08   
	BYTE	W12
	BYTE		N08   
	BYTE	W12
// 100   ----------------------------------------
	BYTE	W12
	BYTE		        Bn4 
	BYTE	W12
// 101   ----------------------------------------
	BYTE	W12
	BYTE		        En5 
	BYTE	W12
// 102   ----------------------------------------
	BYTE		N08   
	BYTE	W12
	BYTE		N08   
	BYTE	W12
// 103   ----------------------------------------
	BYTE		N08   
	BYTE	W12
	BYTE		        Dn5 
	BYTE	W12
// 104   ----------------------------------------
	BYTE		        Cs5 
	BYTE	W12
	BYTE		        Bn4 
	BYTE	W12
	BYTE	GoTo
	 POIN2	ShopPrep_1_B1
ShopPrep_1_B2:
// 105   ----------------------------------------
	BYTE	FINE

//**************** Track 2 (Midi-Chn.2) ****************//

ShopPrep_2:
	BYTE	KEYSH   ShopPrep_key+0
// 000   ----------------------------------------
	BYTE		VOICE   80
	BYTE		VOL     98*ShopPrep_mvl/mxv
	BYTE	W24
// 001   ----------------------------------------
	BYTE	W24
// 002   ----------------------------------------
	BYTE	W24
// 003   ----------------------------------------
	BYTE	W24
// 004   ----------------------------------------
	BYTE	W24
// 005   ----------------------------------------
	BYTE	W24
// 006   ----------------------------------------
	BYTE	W24
// 007   ----------------------------------------
	BYTE	W24
// 008   ----------------------------------------
	BYTE	W24
ShopPrep_2_B1:
// 009   ----------------------------------------
ShopPrep_2_009:
	BYTE		N06     An2   v088
	BYTE	W12
	BYTE		N06   
	BYTE	W12
	BYTE	PEND
// 010   ----------------------------------------
	BYTE		N11     En2 
	BYTE	W24
// 011   ----------------------------------------
	BYTE	PATT
	 POIN2	ShopPrep_2_009
// 012   ----------------------------------------
	BYTE		N11     En2   v088
	BYTE	W24
// 013   ----------------------------------------
	BYTE	PATT
	 POIN2	ShopPrep_2_009
// 014   ----------------------------------------
	BYTE		N11     En2   v088
	BYTE	W24
// 015   ----------------------------------------
	BYTE	W12
	BYTE		        Fs2 
	BYTE	W12
// 016   ----------------------------------------
	BYTE		        En2 
	BYTE	W12
	BYTE		        Fs2 
	BYTE	W12
// 017   ----------------------------------------
	BYTE	PATT
	 POIN2	ShopPrep_2_009
// 018   ----------------------------------------
	BYTE		N11     En2   v088
	BYTE	W24
// 019   ----------------------------------------
	BYTE	PATT
	 POIN2	ShopPrep_2_009
// 020   ----------------------------------------
	BYTE		N11     En2   v088
	BYTE	W24
// 021   ----------------------------------------
	BYTE	PATT
	 POIN2	ShopPrep_2_009
// 022   ----------------------------------------
	BYTE		N11     En2   v088
	BYTE	W24
// 023   ----------------------------------------
	BYTE	W24
// 024   ----------------------------------------
	BYTE	W24
// 025   ----------------------------------------
	BYTE	W24
// 026   ----------------------------------------
	BYTE	W24
// 027   ----------------------------------------
	BYTE	W24
// 028   ----------------------------------------
	BYTE	W24
// 029   ----------------------------------------
	BYTE	W24
// 030   ----------------------------------------
	BYTE	W24
// 031   ----------------------------------------
	BYTE	W24
// 032   ----------------------------------------
	BYTE	W24
// 033   ----------------------------------------
	BYTE	W24
// 034   ----------------------------------------
	BYTE	W24
// 035   ----------------------------------------
	BYTE	W24
// 036   ----------------------------------------
	BYTE	W24
// 037   ----------------------------------------
	BYTE	W24
// 038   ----------------------------------------
	BYTE	W24
// 039   ----------------------------------------
	BYTE	W24
// 040   ----------------------------------------
	BYTE	W24
// 041   ----------------------------------------
	BYTE	W24
// 042   ----------------------------------------
	BYTE	W24
// 043   ----------------------------------------
	BYTE	W24
// 044   ----------------------------------------
	BYTE	W24
// 045   ----------------------------------------
	BYTE	W24
// 046   ----------------------------------------
	BYTE	W24
// 047   ----------------------------------------
	BYTE	W24
// 048   ----------------------------------------
	BYTE	W24
// 049   ----------------------------------------
	BYTE	W24
// 050   ----------------------------------------
	BYTE	W24
// 051   ----------------------------------------
	BYTE	W24
// 052   ----------------------------------------
	BYTE	W24
// 053   ----------------------------------------
	BYTE	W24
// 054   ----------------------------------------
	BYTE	W24
// 055   ----------------------------------------
	BYTE	W24
// 056   ----------------------------------------
	BYTE	W24
// 057   ----------------------------------------
	BYTE	W24
// 058   ----------------------------------------
	BYTE	W24
// 059   ----------------------------------------
	BYTE	W24
// 060   ----------------------------------------
	BYTE	W24
// 061   ----------------------------------------
	BYTE	W24
// 062   ----------------------------------------
	BYTE	W24
// 063   ----------------------------------------
	BYTE	W24
// 064   ----------------------------------------
	BYTE	W24
// 065   ----------------------------------------
	BYTE	W24
// 066   ----------------------------------------
	BYTE	W24
// 067   ----------------------------------------
	BYTE	W24
// 068   ----------------------------------------
	BYTE	W24
// 069   ----------------------------------------
	BYTE	W24
// 070   ----------------------------------------
	BYTE	W24
// 071   ----------------------------------------
	BYTE	W24
// 072   ----------------------------------------
	BYTE	W24
// 073   ----------------------------------------
	BYTE	W24
// 074   ----------------------------------------
	BYTE	W24
// 075   ----------------------------------------
	BYTE	W24
// 076   ----------------------------------------
	BYTE	W24
// 077   ----------------------------------------
	BYTE	W24
// 078   ----------------------------------------
	BYTE	W24
// 079   ----------------------------------------
	BYTE	W24
// 080   ----------------------------------------
	BYTE	W24
// 081   ----------------------------------------
	BYTE	W24
// 082   ----------------------------------------
	BYTE	W24
// 083   ----------------------------------------
	BYTE	W24
// 084   ----------------------------------------
	BYTE	W24
// 085   ----------------------------------------
	BYTE	W24
// 086   ----------------------------------------
	BYTE	W24
// 087   ----------------------------------------
	BYTE	W24
// 088   ----------------------------------------
	BYTE	W24
// 089   ----------------------------------------
	BYTE	W24
// 090   ----------------------------------------
	BYTE	W24
// 091   ----------------------------------------
	BYTE	W24
// 092   ----------------------------------------
	BYTE	W24
// 093   ----------------------------------------
	BYTE	W24
// 094   ----------------------------------------
	BYTE	W24
// 095   ----------------------------------------
	BYTE	W24
// 096   ----------------------------------------
	BYTE	W24
// 097   ----------------------------------------
	BYTE	W24
// 098   ----------------------------------------
	BYTE	W24
// 099   ----------------------------------------
	BYTE	W24
// 100   ----------------------------------------
	BYTE	W24
// 101   ----------------------------------------
	BYTE	W24
// 102   ----------------------------------------
	BYTE	W24
// 103   ----------------------------------------
	BYTE	W24
// 104   ----------------------------------------
	BYTE	W24
	BYTE	GoTo
	 POIN2	ShopPrep_2_B1
ShopPrep_2_B2:
// 105   ----------------------------------------
	BYTE	FINE

//**************** Track 3 (Midi-Chn.3) ****************//

ShopPrep_3:
	BYTE	KEYSH   ShopPrep_key+0
// 000   ----------------------------------------
	BYTE		VOICE   107
	BYTE		VOL     67*ShopPrep_mvl/mxv
	BYTE		PAN     c_v+0
	BYTE	W15
	BYTE		BEND    c_v+0
	BYTE	W09
// 001   ----------------------------------------
	BYTE	W24
// 002   ----------------------------------------
	BYTE	W24
// 003   ----------------------------------------
	BYTE	W24
// 004   ----------------------------------------
	BYTE	W24
// 005   ----------------------------------------
	BYTE	W24
// 006   ----------------------------------------
	BYTE	W24
// 007   ----------------------------------------
	BYTE	W24
// 008   ----------------------------------------
	BYTE	W24
ShopPrep_3_B1:
// 009   ----------------------------------------
	BYTE	W24
// 010   ----------------------------------------
	BYTE	W24
// 011   ----------------------------------------
	BYTE	W24
// 012   ----------------------------------------
	BYTE	W24
// 013   ----------------------------------------
	BYTE	W24
// 014   ----------------------------------------
	BYTE	W24
// 015   ----------------------------------------
	BYTE	W24
// 016   ----------------------------------------
	BYTE	W24
// 017   ----------------------------------------
	BYTE	W24
// 018   ----------------------------------------
	BYTE	W24
// 019   ----------------------------------------
	BYTE	W24
// 020   ----------------------------------------
	BYTE	W24
// 021   ----------------------------------------
	BYTE	W24
// 022   ----------------------------------------
	BYTE	W24
// 023   ----------------------------------------
	BYTE	W24
// 024   ----------------------------------------
	BYTE	W24
// 025   ----------------------------------------
ShopPrep_3_025:
	BYTE		N05     Cs4   v056
	BYTE	W06
	BYTE		        Cs5 
	BYTE	W06
	BYTE		        Cs4 
	BYTE	W06
	BYTE		        Cs5 
	BYTE	W06
	BYTE	PEND
// 026   ----------------------------------------
	BYTE	PATT
	 POIN2	ShopPrep_3_025
// 027   ----------------------------------------
	BYTE	PATT
	 POIN2	ShopPrep_3_025
// 028   ----------------------------------------
	BYTE	PATT
	 POIN2	ShopPrep_3_025
// 029   ----------------------------------------
	BYTE	W24
// 030   ----------------------------------------
	BYTE	W24
// 031   ----------------------------------------
	BYTE	W24
// 032   ----------------------------------------
	BYTE	W24
// 033   ----------------------------------------
	BYTE	PATT
	 POIN2	ShopPrep_3_025
// 034   ----------------------------------------
	BYTE	PATT
	 POIN2	ShopPrep_3_025
// 035   ----------------------------------------
	BYTE	PATT
	 POIN2	ShopPrep_3_025
// 036   ----------------------------------------
	BYTE	PATT
	 POIN2	ShopPrep_3_025
// 037   ----------------------------------------
	BYTE	W24
// 038   ----------------------------------------
	BYTE	W24
// 039   ----------------------------------------
	BYTE	W24
// 040   ----------------------------------------
	BYTE	W24
// 041   ----------------------------------------
	BYTE	W12
	BYTE		N08     En3   v084
	BYTE	W12
// 042   ----------------------------------------
	BYTE		        En2 
	BYTE	W24
// 043   ----------------------------------------
ShopPrep_3_043:
	BYTE		N03     En3   v060
	BYTE	W06
	BYTE		N03   
	BYTE	W06
	BYTE		N03   
	BYTE	W06
	BYTE		N03   
	BYTE	W06
	BYTE	PEND
// 044   ----------------------------------------
	BYTE	PATT
	 POIN2	ShopPrep_3_043
// 045   ----------------------------------------
	BYTE	W24
// 046   ----------------------------------------
	BYTE	W24
// 047   ----------------------------------------
	BYTE	W24
// 048   ----------------------------------------
	BYTE	W24
// 049   ----------------------------------------
	BYTE	W12
	BYTE		N08     Fs3   v084
	BYTE	W12
// 050   ----------------------------------------
	BYTE		        Fs2 
	BYTE	W24
// 051   ----------------------------------------
ShopPrep_3_051:
	BYTE		N03     Fs3   v060
	BYTE	W06
	BYTE		N03   
	BYTE	W06
	BYTE		N03   
	BYTE	W06
	BYTE		N03   
	BYTE	W06
	BYTE	PEND
// 052   ----------------------------------------
	BYTE	PATT
	 POIN2	ShopPrep_3_051
// 053   ----------------------------------------
	BYTE	W24
// 054   ----------------------------------------
	BYTE	W24
// 055   ----------------------------------------
	BYTE	W24
// 056   ----------------------------------------
	BYTE	W24
// 057   ----------------------------------------
	BYTE	W12
	BYTE		N08     En3   v084
	BYTE	W12
// 058   ----------------------------------------
	BYTE		        En2 
	BYTE	W24
// 059   ----------------------------------------
	BYTE	PATT
	 POIN2	ShopPrep_3_043
// 060   ----------------------------------------
	BYTE	PATT
	 POIN2	ShopPrep_3_043
// 061   ----------------------------------------
	BYTE	W24
// 062   ----------------------------------------
	BYTE	W24
// 063   ----------------------------------------
	BYTE	W24
// 064   ----------------------------------------
	BYTE	W24
// 065   ----------------------------------------
	BYTE	W24
// 066   ----------------------------------------
	BYTE	W24
// 067   ----------------------------------------
	BYTE	W24
// 068   ----------------------------------------
	BYTE	W24
// 069   ----------------------------------------
	BYTE	W24
// 070   ----------------------------------------
	BYTE		N06     En2   v092
	BYTE	W06
	BYTE		        Gs2 
	BYTE	W06
	BYTE		        An2 
	BYTE	W06
	BYTE		        Bn2 
	BYTE	W06
// 071   ----------------------------------------
	BYTE		        Gs2 
	BYTE	W06
	BYTE		        An2 
	BYTE	W06
	BYTE		        Bn2 
	BYTE	W06
	BYTE		        Cs3 
	BYTE	W06
// 072   ----------------------------------------
	BYTE		        An2 
	BYTE	W06
	BYTE		        Bn2 
	BYTE	W06
	BYTE		        Cs3 
	BYTE	W06
	BYTE		        Dn3   v044
	BYTE	W06
// 073   ----------------------------------------
ShopPrep_3_073:
	BYTE		N06     An3   v056
	BYTE	W12
	BYTE		        Gn4 
	BYTE	W12
	BYTE	PEND
// 074   ----------------------------------------
ShopPrep_3_074:
	BYTE		N06     Cs4   v056
	BYTE	W12
	BYTE		        En4 
	BYTE	W06
	BYTE		        Cs4 
	BYTE	W06
	BYTE	PEND
// 075   ----------------------------------------
	BYTE	PATT
	 POIN2	ShopPrep_3_073
// 076   ----------------------------------------
	BYTE	PATT
	 POIN2	ShopPrep_3_074
// 077   ----------------------------------------
	BYTE	PATT
	 POIN2	ShopPrep_3_073
// 078   ----------------------------------------
	BYTE	PATT
	 POIN2	ShopPrep_3_074
// 079   ----------------------------------------
	BYTE	PATT
	 POIN2	ShopPrep_3_073
// 080   ----------------------------------------
	BYTE	PATT
	 POIN2	ShopPrep_3_074
// 081   ----------------------------------------
	BYTE	PATT
	 POIN2	ShopPrep_3_073
// 082   ----------------------------------------
	BYTE	PATT
	 POIN2	ShopPrep_3_074
// 083   ----------------------------------------
	BYTE	PATT
	 POIN2	ShopPrep_3_073
// 084   ----------------------------------------
	BYTE	PATT
	 POIN2	ShopPrep_3_074
// 085   ----------------------------------------
	BYTE	PATT
	 POIN2	ShopPrep_3_073
// 086   ----------------------------------------
	BYTE	PATT
	 POIN2	ShopPrep_3_074
// 087   ----------------------------------------
	BYTE	PATT
	 POIN2	ShopPrep_3_073
// 088   ----------------------------------------
	BYTE	PATT
	 POIN2	ShopPrep_3_074
// 089   ----------------------------------------
	BYTE	PATT
	 POIN2	ShopPrep_3_073
// 090   ----------------------------------------
	BYTE	PATT
	 POIN2	ShopPrep_3_074
// 091   ----------------------------------------
	BYTE	PATT
	 POIN2	ShopPrep_3_073
// 092   ----------------------------------------
	BYTE	PATT
	 POIN2	ShopPrep_3_074
// 093   ----------------------------------------
	BYTE	PATT
	 POIN2	ShopPrep_3_073
// 094   ----------------------------------------
	BYTE	PATT
	 POIN2	ShopPrep_3_074
// 095   ----------------------------------------
	BYTE		N06     An4   v056
	BYTE	W12
	BYTE		        Gn4 
	BYTE	W12
// 096   ----------------------------------------
	BYTE	PATT
	 POIN2	ShopPrep_3_074
// 097   ----------------------------------------
	BYTE	W24
// 098   ----------------------------------------
	BYTE	W24
// 099   ----------------------------------------
	BYTE	W24
// 100   ----------------------------------------
	BYTE	W24
// 101   ----------------------------------------
	BYTE	W24
// 102   ----------------------------------------
	BYTE	W24
// 103   ----------------------------------------
	BYTE	W24
// 104   ----------------------------------------
	BYTE	W24
	BYTE	GoTo
	 POIN2	ShopPrep_3_B1
ShopPrep_3_B2:
// 105   ----------------------------------------
	BYTE	FINE

//**************** Track 4 (Midi-Chn.4) ****************//

ShopPrep_4:
	BYTE	KEYSH   ShopPrep_key+0
// 000   ----------------------------------------
	BYTE		VOICE   62
	BYTE		VOL     113*ShopPrep_mvl/mxv
	BYTE	W09
	BYTE		PAN     c_v+0
	BYTE	W15
// 001   ----------------------------------------
	BYTE	W24
// 002   ----------------------------------------
	BYTE	W24
// 003   ----------------------------------------
	BYTE	W24
// 004   ----------------------------------------
	BYTE	W24
// 005   ----------------------------------------
	BYTE	W24
// 006   ----------------------------------------
	BYTE	W24
// 007   ----------------------------------------
	BYTE	W24
// 008   ----------------------------------------
	BYTE	W24
ShopPrep_4_B1:
// 009   ----------------------------------------
	BYTE	W24
// 010   ----------------------------------------
	BYTE	W24
// 011   ----------------------------------------
	BYTE	W24
// 012   ----------------------------------------
	BYTE	W24
// 013   ----------------------------------------
	BYTE	W24
// 014   ----------------------------------------
	BYTE	W24
// 015   ----------------------------------------
	BYTE	W24
// 016   ----------------------------------------
	BYTE	W24
// 017   ----------------------------------------
	BYTE	W24
// 018   ----------------------------------------
	BYTE	W24
// 019   ----------------------------------------
	BYTE	W24
// 020   ----------------------------------------
	BYTE	W24
// 021   ----------------------------------------
	BYTE	W24
// 022   ----------------------------------------
	BYTE	W24
// 023   ----------------------------------------
	BYTE	W24
// 024   ----------------------------------------
	BYTE	W24
// 025   ----------------------------------------
	BYTE	W24
// 026   ----------------------------------------
	BYTE		N24     Gn2   v076
	BYTE	W24
// 027   ----------------------------------------
ShopPrep_4_027:
	BYTE		N06     Fs2   v076
	BYTE	W12
	BYTE		        En2 
	BYTE	W12
	BYTE	PEND
// 028   ----------------------------------------
	BYTE	W12
	BYTE		        Gn2 
	BYTE	W12
// 029   ----------------------------------------
	BYTE	W12
	BYTE		N06   
	BYTE	W12
// 030   ----------------------------------------
ShopPrep_4_030:
	BYTE		N06     Fs2   v076
	BYTE	W12
	BYTE		N12     En2 
	BYTE	W12
	BYTE	PEND
// 031   ----------------------------------------
	BYTE	W24
// 032   ----------------------------------------
	BYTE	W24
// 033   ----------------------------------------
	BYTE	W24
// 034   ----------------------------------------
	BYTE		N06     Gn2 
	BYTE	W12
	BYTE		N06   
	BYTE	W12
// 035   ----------------------------------------
	BYTE	PATT
	 POIN2	ShopPrep_4_027
// 036   ----------------------------------------
	BYTE	W12
	BYTE		N06     An2   v076
	BYTE	W12
// 037   ----------------------------------------
	BYTE	W24
// 038   ----------------------------------------
	BYTE	W24
// 039   ----------------------------------------
	BYTE	W24
// 040   ----------------------------------------
	BYTE	W24
// 041   ----------------------------------------
	BYTE	W24
// 042   ----------------------------------------
	BYTE		        En2 
	BYTE	W24
// 043   ----------------------------------------
ShopPrep_4_043:
	BYTE		N06     Gn2   v076
	BYTE	W12
	BYTE		        Fs2 
	BYTE	W12
	BYTE	PEND
// 044   ----------------------------------------
	BYTE	W24
// 045   ----------------------------------------
	BYTE		        Cn2 
	BYTE	W12
	BYTE		        En2 
	BYTE	W12
// 046   ----------------------------------------
	BYTE		        Gn2 
	BYTE	W12
	BYTE		N24     Fs2 
	BYTE	W12
// 047   ----------------------------------------
	BYTE	W24
// 048   ----------------------------------------
	BYTE	W24
// 049   ----------------------------------------
	BYTE	W24
// 050   ----------------------------------------
	BYTE		N06   
	BYTE	W24
// 051   ----------------------------------------
	BYTE		        An2 
	BYTE	W12
	BYTE		        Bn2 
	BYTE	W12
// 052   ----------------------------------------
	BYTE	W12
	BYTE		N36     Cs3 
	BYTE	W12
// 053   ----------------------------------------
	BYTE	W24
// 054   ----------------------------------------
	BYTE	W24
// 055   ----------------------------------------
	BYTE	W24
// 056   ----------------------------------------
	BYTE	W24
// 057   ----------------------------------------
	BYTE	W24
// 058   ----------------------------------------
	BYTE		N06     En2 
	BYTE	W24
// 059   ----------------------------------------
	BYTE	PATT
	 POIN2	ShopPrep_4_043
// 060   ----------------------------------------
	BYTE	W24
// 061   ----------------------------------------
	BYTE	PATT
	 POIN2	ShopPrep_4_043
// 062   ----------------------------------------
	BYTE		N06     En2   v076
	BYTE	W12
	BYTE		        An2 
	BYTE	W12
// 063   ----------------------------------------
	BYTE	W24
// 064   ----------------------------------------
	BYTE	W24
// 065   ----------------------------------------
	BYTE		N06   
	BYTE	W12
	BYTE		        Dn2 
	BYTE	W12
// 066   ----------------------------------------
	BYTE		        Bn2 
	BYTE	W12
	BYTE		        Dn2 
	BYTE	W12
// 067   ----------------------------------------
	BYTE		N24     Cn3 
	BYTE	W24
// 068   ----------------------------------------
	BYTE	W24
// 069   ----------------------------------------
	BYTE	W24
// 070   ----------------------------------------
	BYTE	W24
// 071   ----------------------------------------
	BYTE	W24
// 072   ----------------------------------------
	BYTE	W24
// 073   ----------------------------------------
	BYTE	W24
// 074   ----------------------------------------
	BYTE		        Gn2 
	BYTE	W24
// 075   ----------------------------------------
	BYTE	PATT
	 POIN2	ShopPrep_4_027
// 076   ----------------------------------------
	BYTE	W12
	BYTE		N06     Gn2   v076
	BYTE	W12
// 077   ----------------------------------------
	BYTE	W12
	BYTE		N06   
	BYTE	W12
// 078   ----------------------------------------
	BYTE	PATT
	 POIN2	ShopPrep_4_030
// 079   ----------------------------------------
	BYTE	W24
// 080   ----------------------------------------
	BYTE	W24
// 081   ----------------------------------------
	BYTE	W24
// 082   ----------------------------------------
	BYTE		N24     Gn2   v076
	BYTE	W24
// 083   ----------------------------------------
	BYTE	PATT
	 POIN2	ShopPrep_4_027
// 084   ----------------------------------------
	BYTE	W12
	BYTE		N06     An2   v076
	BYTE	W12
// 085   ----------------------------------------
	BYTE	W24
// 086   ----------------------------------------
	BYTE	W24
// 087   ----------------------------------------
	BYTE	W24
// 088   ----------------------------------------
	BYTE	W24
// 089   ----------------------------------------
	BYTE	W24
// 090   ----------------------------------------
	BYTE		N24     Gn2 
	BYTE	W24
// 091   ----------------------------------------
	BYTE	PATT
	 POIN2	ShopPrep_4_027
// 092   ----------------------------------------
	BYTE	W12
	BYTE		N12     Gn2   v076
	BYTE	W12
// 093   ----------------------------------------
	BYTE	W12
	BYTE		N06   
	BYTE	W12
// 094   ----------------------------------------
	BYTE	PATT
	 POIN2	ShopPrep_4_030
// 095   ----------------------------------------
	BYTE	W24
// 096   ----------------------------------------
	BYTE	W24
// 097   ----------------------------------------
	BYTE	W24
// 098   ----------------------------------------
	BYTE		N06     Dn2   v076
	BYTE	W12
	BYTE		        Fs2 
	BYTE	W12
// 099   ----------------------------------------
	BYTE		        An2 
	BYTE	W12
	BYTE		        Fs2 
	BYTE	W12
// 100   ----------------------------------------
	BYTE		        Dn2 
	BYTE	W12
	BYTE		        Bn2 
	BYTE	W12
// 101   ----------------------------------------
	BYTE	W12
	BYTE		N06   
	BYTE	W12
// 102   ----------------------------------------
	BYTE		        Gs2 
	BYTE	W24
// 103   ----------------------------------------
	BYTE	W24
// 104   ----------------------------------------
	BYTE		N24     Gs2   v092
	BYTE	W24
	BYTE	GoTo
	 POIN2	ShopPrep_4_B1
ShopPrep_4_B2:
// 105   ----------------------------------------
	BYTE	FINE

//**************** Track 5 (Midi-Chn.5) ****************//

ShopPrep_5:
	BYTE	KEYSH   ShopPrep_key+0
// 000   ----------------------------------------
	BYTE		VOICE   80
	BYTE		VOL     112*ShopPrep_mvl/mxv
	BYTE	W09
	BYTE		PAN     c_v+0
	BYTE	W15
// 001   ----------------------------------------
	BYTE	W24
// 002   ----------------------------------------
	BYTE	W24
// 003   ----------------------------------------
	BYTE	W24
// 004   ----------------------------------------
	BYTE	W24
// 005   ----------------------------------------
	BYTE	W24
// 006   ----------------------------------------
	BYTE	W24
// 007   ----------------------------------------
	BYTE	W24
// 008   ----------------------------------------
	BYTE	W24
ShopPrep_5_B1:
// 009   ----------------------------------------
	BYTE	W24
// 010   ----------------------------------------
	BYTE	W24
// 011   ----------------------------------------
	BYTE	W24
// 012   ----------------------------------------
	BYTE	W24
// 013   ----------------------------------------
	BYTE	W24
// 014   ----------------------------------------
	BYTE	W24
// 015   ----------------------------------------
	BYTE	W24
// 016   ----------------------------------------
	BYTE	W24
// 017   ----------------------------------------
	BYTE	W24
// 018   ----------------------------------------
	BYTE	W24
// 019   ----------------------------------------
	BYTE	W24
// 020   ----------------------------------------
	BYTE	W24
// 021   ----------------------------------------
	BYTE	W24
// 022   ----------------------------------------
	BYTE	W24
// 023   ----------------------------------------
	BYTE	W24
// 024   ----------------------------------------
	BYTE	W24
// 025   ----------------------------------------
	BYTE	W24
// 026   ----------------------------------------
	BYTE		N24     Gn2   v076
	BYTE	W24
// 027   ----------------------------------------
ShopPrep_5_027:
	BYTE		N06     Fs2   v076
	BYTE	W12
	BYTE		        En2 
	BYTE	W12
	BYTE	PEND
// 028   ----------------------------------------
	BYTE	W12
	BYTE		        Gn2 
	BYTE	W12
// 029   ----------------------------------------
	BYTE	W12
	BYTE		N06   
	BYTE	W12
// 030   ----------------------------------------
ShopPrep_5_030:
	BYTE		N06     Fs2   v076
	BYTE	W12
	BYTE		N12     En2 
	BYTE	W12
	BYTE	PEND
// 031   ----------------------------------------
	BYTE	W24
// 032   ----------------------------------------
	BYTE	W24
// 033   ----------------------------------------
	BYTE	W24
// 034   ----------------------------------------
	BYTE		N06     Gn2 
	BYTE	W12
	BYTE		N06   
	BYTE	W12
// 035   ----------------------------------------
	BYTE	PATT
	 POIN2	ShopPrep_5_027
// 036   ----------------------------------------
	BYTE	W12
	BYTE		N06     An2   v076
	BYTE	W12
// 037   ----------------------------------------
	BYTE	W24
// 038   ----------------------------------------
	BYTE	W24
// 039   ----------------------------------------
	BYTE	W24
// 040   ----------------------------------------
	BYTE	W24
// 041   ----------------------------------------
	BYTE	W24
// 042   ----------------------------------------
	BYTE		        En2 
	BYTE	W24
// 043   ----------------------------------------
ShopPrep_5_043:
	BYTE		N06     Gn2   v076
	BYTE	W12
	BYTE		        Fs2 
	BYTE	W12
	BYTE	PEND
// 044   ----------------------------------------
	BYTE	W24
// 045   ----------------------------------------
	BYTE		        Cn2 
	BYTE	W12
	BYTE		        En2 
	BYTE	W12
// 046   ----------------------------------------
	BYTE		        Gn2 
	BYTE	W12
	BYTE		N24     Fs2 
	BYTE	W12
// 047   ----------------------------------------
	BYTE	W24
// 048   ----------------------------------------
	BYTE	W24
// 049   ----------------------------------------
	BYTE	W24
// 050   ----------------------------------------
	BYTE		N06   
	BYTE	W24
// 051   ----------------------------------------
	BYTE		        An2 
	BYTE	W12
	BYTE		        Bn2 
	BYTE	W12
// 052   ----------------------------------------
	BYTE	W12
	BYTE		N36     Cs3 
	BYTE	W12
// 053   ----------------------------------------
	BYTE	W24
// 054   ----------------------------------------
	BYTE	W24
// 055   ----------------------------------------
	BYTE	W24
// 056   ----------------------------------------
	BYTE	W24
// 057   ----------------------------------------
	BYTE	W24
// 058   ----------------------------------------
	BYTE		N06     En2 
	BYTE	W24
// 059   ----------------------------------------
	BYTE	PATT
	 POIN2	ShopPrep_5_043
// 060   ----------------------------------------
	BYTE	W24
// 061   ----------------------------------------
	BYTE	PATT
	 POIN2	ShopPrep_5_043
// 062   ----------------------------------------
	BYTE		N06     En2   v076
	BYTE	W12
	BYTE		        An2 
	BYTE	W12
// 063   ----------------------------------------
	BYTE	W24
// 064   ----------------------------------------
	BYTE	W24
// 065   ----------------------------------------
	BYTE		N06   
	BYTE	W12
	BYTE		        Dn2 
	BYTE	W12
// 066   ----------------------------------------
	BYTE		        Bn2 
	BYTE	W12
	BYTE		        Dn2 
	BYTE	W12
// 067   ----------------------------------------
	BYTE		N24     Cn3 
	BYTE	W24
// 068   ----------------------------------------
	BYTE	W24
// 069   ----------------------------------------
	BYTE	W24
// 070   ----------------------------------------
	BYTE	W24
// 071   ----------------------------------------
	BYTE	W24
// 072   ----------------------------------------
	BYTE	W24
// 073   ----------------------------------------
	BYTE	W24
// 074   ----------------------------------------
	BYTE		        Gn2 
	BYTE	W24
// 075   ----------------------------------------
	BYTE	PATT
	 POIN2	ShopPrep_5_027
// 076   ----------------------------------------
	BYTE	W12
	BYTE		N06     Gn2   v076
	BYTE	W12
// 077   ----------------------------------------
	BYTE	W12
	BYTE		N06   
	BYTE	W12
// 078   ----------------------------------------
	BYTE	PATT
	 POIN2	ShopPrep_5_030
// 079   ----------------------------------------
	BYTE	W24
// 080   ----------------------------------------
	BYTE	W24
// 081   ----------------------------------------
	BYTE	W24
// 082   ----------------------------------------
	BYTE		N24     Gn2   v076
	BYTE	W24
// 083   ----------------------------------------
	BYTE	PATT
	 POIN2	ShopPrep_5_027
// 084   ----------------------------------------
	BYTE	W12
	BYTE		N06     An2   v076
	BYTE	W12
// 085   ----------------------------------------
	BYTE	W24
// 086   ----------------------------------------
	BYTE	W24
// 087   ----------------------------------------
	BYTE	W24
// 088   ----------------------------------------
	BYTE	W24
// 089   ----------------------------------------
	BYTE	W24
// 090   ----------------------------------------
	BYTE		N24     Gn2 
	BYTE	W24
// 091   ----------------------------------------
	BYTE	PATT
	 POIN2	ShopPrep_5_027
// 092   ----------------------------------------
	BYTE	W12
	BYTE		N12     Gn2   v076
	BYTE	W12
// 093   ----------------------------------------
	BYTE	W12
	BYTE		N06   
	BYTE	W12
// 094   ----------------------------------------
	BYTE	PATT
	 POIN2	ShopPrep_5_030
// 095   ----------------------------------------
	BYTE	W24
// 096   ----------------------------------------
	BYTE	W24
// 097   ----------------------------------------
	BYTE	W24
// 098   ----------------------------------------
	BYTE		N06     Dn2   v076
	BYTE	W12
	BYTE		        Fs2 
	BYTE	W12
// 099   ----------------------------------------
	BYTE		        An2 
	BYTE	W12
	BYTE		        Fs2 
	BYTE	W12
// 100   ----------------------------------------
	BYTE		        Dn2 
	BYTE	W12
	BYTE		        Bn2 
	BYTE	W12
// 101   ----------------------------------------
	BYTE	W12
	BYTE		N06   
	BYTE	W12
// 102   ----------------------------------------
	BYTE		        Gs2 
	BYTE	W24
// 103   ----------------------------------------
	BYTE	W24
// 104   ----------------------------------------
	BYTE	W24
	BYTE	GoTo
	 POIN2	ShopPrep_5_B1
ShopPrep_5_B2:
// 105   ----------------------------------------
	BYTE	FINE

//**************** Track 6 (Midi-Chn.6) ****************//

ShopPrep_6:
	BYTE	KEYSH   ShopPrep_key+0
// 000   ----------------------------------------
	BYTE		VOICE   56
	BYTE		VOL     82*ShopPrep_mvl/mxv
	BYTE	W09
	BYTE		PAN     c_v+0
	BYTE	W15
// 001   ----------------------------------------
	BYTE	W24
// 002   ----------------------------------------
	BYTE	W24
// 003   ----------------------------------------
	BYTE	W24
// 004   ----------------------------------------
	BYTE	W24
// 005   ----------------------------------------
	BYTE	W24
// 006   ----------------------------------------
	BYTE	W24
// 007   ----------------------------------------
	BYTE	W24
// 008   ----------------------------------------
	BYTE	W24
ShopPrep_6_B1:
// 009   ----------------------------------------
ShopPrep_6_009:
	BYTE	W12
	BYTE		BEND    c_v-64
	BYTE		N16     An1   v080
	BYTE		N16     En2 
	BYTE		N16     An2 
	BYTE		N16     Cs3 
	BYTE	W01
	BYTE		BEND    c_v-54
	BYTE	W01
	BYTE		        c_v-43
	BYTE	W01
	BYTE		        c_v-32
	BYTE	W01
	BYTE		        c_v-22
	BYTE	W01
	BYTE		        c_v-11
	BYTE	W01
	BYTE		        c_v+0
	BYTE	W06
	BYTE	PEND
// 010   ----------------------------------------
	BYTE	W24
// 011   ----------------------------------------
	BYTE	PATT
	 POIN2	ShopPrep_6_009
// 012   ----------------------------------------
	BYTE	W24
// 013   ----------------------------------------
	BYTE	PATT
	 POIN2	ShopPrep_6_009
// 014   ----------------------------------------
	BYTE	W24
// 015   ----------------------------------------
	BYTE		N16     An1   v080
	BYTE		N16     Dn2 
	BYTE		N16     Fs2 
	BYTE		N16     An2 
	BYTE	W24
// 016   ----------------------------------------
ShopPrep_6_016:
	BYTE		N16     An1   v080
	BYTE		N16     Fs2 
	BYTE		N16     An2 
	BYTE		N16     Dn3 
	BYTE	W24
	BYTE	PEND
// 017   ----------------------------------------
	BYTE	PATT
	 POIN2	ShopPrep_6_009
// 018   ----------------------------------------
	BYTE	W24
// 019   ----------------------------------------
	BYTE	PATT
	 POIN2	ShopPrep_6_009
// 020   ----------------------------------------
	BYTE	W24
// 021   ----------------------------------------
	BYTE	PATT
	 POIN2	ShopPrep_6_009
// 022   ----------------------------------------
	BYTE	W18
	BYTE		N06     An1   v080
	BYTE		N06     En2 
	BYTE		N06     An2 
	BYTE		N06     En3 
	BYTE	W06
// 023   ----------------------------------------
	BYTE	W24
// 024   ----------------------------------------
	BYTE	W24
// 025   ----------------------------------------
	BYTE	W24
// 026   ----------------------------------------
	BYTE	W24
// 027   ----------------------------------------
	BYTE	W24
// 028   ----------------------------------------
	BYTE	W24
// 029   ----------------------------------------
	BYTE	W24
// 030   ----------------------------------------
	BYTE	W24
// 031   ----------------------------------------
ShopPrep_6_031:
	BYTE		N16     An1   v080
	BYTE		N16     Fs2 
	BYTE		N16     Bn2 
	BYTE		N16     Dn3 
	BYTE	W24
	BYTE	PEND
// 032   ----------------------------------------
	BYTE	PATT
	 POIN2	ShopPrep_6_016
// 033   ----------------------------------------
	BYTE	W24
// 034   ----------------------------------------
	BYTE	W24
// 035   ----------------------------------------
	BYTE	W24
// 036   ----------------------------------------
	BYTE	W24
// 037   ----------------------------------------
	BYTE	W24
// 038   ----------------------------------------
	BYTE	W24
// 039   ----------------------------------------
	BYTE		N16     Fs1   v080
	BYTE		N16     An1 
	BYTE		N16     Dn2 
	BYTE		N16     Fs2 
	BYTE	W24
// 040   ----------------------------------------
	BYTE		        En1 
	BYTE		N16     Cs2 
	BYTE		N16     En2 
	BYTE		N16     An2 
	BYTE	W24
// 041   ----------------------------------------
ShopPrep_6_041:
	BYTE		TIE     Gn1   v080
	BYTE		TIE     Cn2 
	BYTE		TIE     En2 
	BYTE	W24
	BYTE	PEND
// 042   ----------------------------------------
	BYTE	W24
// 043   ----------------------------------------
	BYTE	W24
// 044   ----------------------------------------
	BYTE	W24
// 045   ----------------------------------------
	BYTE	W24
// 046   ----------------------------------------
	BYTE	W24
// 047   ----------------------------------------
	BYTE	W24
// 048   ----------------------------------------
	BYTE	W24
	BYTE		EOT     Gn1 
	BYTE		        Cn2 
	BYTE		        En2 
// 049   ----------------------------------------
	BYTE		TIE     Fs1 
	BYTE		TIE     Cs2 
	BYTE		TIE     Fs2 
	BYTE	W24
// 050   ----------------------------------------
	BYTE	W24
// 051   ----------------------------------------
	BYTE	W24
// 052   ----------------------------------------
	BYTE	W24
// 053   ----------------------------------------
	BYTE	W24
// 054   ----------------------------------------
	BYTE	W24
// 055   ----------------------------------------
	BYTE	W24
// 056   ----------------------------------------
	BYTE	W24
	BYTE		EOT     Fs1 
	BYTE		        Cs2 
	BYTE		        Fs2 
// 057   ----------------------------------------
	BYTE	PATT
	 POIN2	ShopPrep_6_041
// 058   ----------------------------------------
	BYTE	W24
// 059   ----------------------------------------
	BYTE	W24
// 060   ----------------------------------------
	BYTE	W24
// 061   ----------------------------------------
	BYTE	W24
// 062   ----------------------------------------
	BYTE	W24
// 063   ----------------------------------------
	BYTE	W24
// 064   ----------------------------------------
	BYTE	W24
	BYTE		EOT     Gn1 
	BYTE		        Cn2 
	BYTE		        En2 
// 065   ----------------------------------------
	BYTE		N72     An1   v080
	BYTE		N72     Dn2 
	BYTE		N72     Fs2 
	BYTE	W24
// 066   ----------------------------------------
	BYTE	W24
// 067   ----------------------------------------
	BYTE	W24
// 068   ----------------------------------------
	BYTE	W12
	BYTE		N60     En1 
	BYTE		N60     Bn1 
	BYTE		N60     En2 
	BYTE		N60     Gs2 
	BYTE	W12
// 069   ----------------------------------------
	BYTE	W24
// 070   ----------------------------------------
	BYTE	W24
// 071   ----------------------------------------
	BYTE		N08     En1 
	BYTE		N08     Gs1 
	BYTE		N08     Bn1 
	BYTE		N08     En2 
	BYTE	W12
	BYTE		        En1 
	BYTE		N08     Gs1 
	BYTE		N08     Bn1 
	BYTE		N08     En2 
	BYTE	W12
// 072   ----------------------------------------
ShopPrep_6_072:
	BYTE		N08     En1   v080
	BYTE		N08     Bn1 
	BYTE		N08     En2 
	BYTE		N08     Gs2 
	BYTE	W12
	BYTE		        En1 
	BYTE		N08     Bn1 
	BYTE		N08     En2 
	BYTE		N08     Gs2 
	BYTE	W12
	BYTE	PEND
// 073   ----------------------------------------
	BYTE	W24
// 074   ----------------------------------------
	BYTE	W24
// 075   ----------------------------------------
	BYTE	W24
// 076   ----------------------------------------
	BYTE	W24
// 077   ----------------------------------------
	BYTE	W24
// 078   ----------------------------------------
	BYTE	W24
// 079   ----------------------------------------
	BYTE	PATT
	 POIN2	ShopPrep_6_031
// 080   ----------------------------------------
	BYTE	PATT
	 POIN2	ShopPrep_6_016
// 081   ----------------------------------------
	BYTE	W24
// 082   ----------------------------------------
	BYTE	W24
// 083   ----------------------------------------
	BYTE	W24
// 084   ----------------------------------------
	BYTE	W24
// 085   ----------------------------------------
	BYTE	W24
// 086   ----------------------------------------
	BYTE	W24
// 087   ----------------------------------------
	BYTE	PATT
	 POIN2	ShopPrep_6_031
// 088   ----------------------------------------
	BYTE	PATT
	 POIN2	ShopPrep_6_016
// 089   ----------------------------------------
	BYTE	W24
// 090   ----------------------------------------
	BYTE	W24
// 091   ----------------------------------------
	BYTE	W24
// 092   ----------------------------------------
	BYTE	W24
// 093   ----------------------------------------
	BYTE	W24
// 094   ----------------------------------------
	BYTE	W24
// 095   ----------------------------------------
	BYTE	W24
// 096   ----------------------------------------
	BYTE	W24
// 097   ----------------------------------------
	BYTE		N16     Dn1   v080
	BYTE		N16     Dn2 
	BYTE		N16     Fs2 
	BYTE		N16     An2 
	BYTE	W24
// 098   ----------------------------------------
	BYTE	W12
	BYTE		        Dn1 
	BYTE		N16     Dn2 
	BYTE		N16     Fs2 
	BYTE		N16     An2 
	BYTE	W12
// 099   ----------------------------------------
	BYTE	W24
// 100   ----------------------------------------
	BYTE		N12     Dn1 
	BYTE		N12     Dn2 
	BYTE		N12     Fs2 
	BYTE		N12     An2 
	BYTE	W12
	BYTE		        En1 
	BYTE		N12     En2 
	BYTE		N12     Gs2 
	BYTE		N12     Bn2 
	BYTE	W12
// 101   ----------------------------------------
	BYTE	W12
	BYTE		N08     En1 
	BYTE		N08     Bn1 
	BYTE		N08     En2 
	BYTE		N08     Gs2 
	BYTE	W12
// 102   ----------------------------------------
	BYTE	PATT
	 POIN2	ShopPrep_6_072
// 103   ----------------------------------------
	BYTE	PATT
	 POIN2	ShopPrep_6_072
// 104   ----------------------------------------
	BYTE	PATT
	 POIN2	ShopPrep_6_072
	BYTE	GoTo
	 POIN2	ShopPrep_6_B1
ShopPrep_6_B2:
// 105   ----------------------------------------
	BYTE	FINE

//**************** Track 7 (Midi-Chn.7) ****************//

ShopPrep_7:
	BYTE	KEYSH   ShopPrep_key+0
// 000   ----------------------------------------
	BYTE		VOICE   123
	BYTE		VOL     75*ShopPrep_mvl/mxv
	BYTE	W09
	BYTE		PAN     c_v+0
	BYTE	W15
// 001   ----------------------------------------
	BYTE	W24
// 002   ----------------------------------------
	BYTE	W24
// 003   ----------------------------------------
	BYTE	W24
// 004   ----------------------------------------
	BYTE	W24
// 005   ----------------------------------------
	BYTE	W24
// 006   ----------------------------------------
	BYTE	W24
// 007   ----------------------------------------
	BYTE	W24
// 008   ----------------------------------------
	BYTE	W24
ShopPrep_7_B1:
// 009   ----------------------------------------
ShopPrep_7_009:
	BYTE		N03     Cn1   v100
	BYTE		N03     Fs1   v060
	BYTE		N03     Ds2   v088
	BYTE	W12
	BYTE		        Fs1   v032
	BYTE	W06
	BYTE		        Fs1   v044
	BYTE	W06
	BYTE	PEND
// 010   ----------------------------------------
ShopPrep_7_010:
	BYTE		N03     Dn1   v100
	BYTE		N03     Fs1   v060
	BYTE	W12
	BYTE		        Fs1   v032
	BYTE	W06
	BYTE		        Fs1   v044
	BYTE	W06
	BYTE	PEND
// 011   ----------------------------------------
ShopPrep_7_011:
	BYTE		N03     Cn1   v100
	BYTE		N03     Fs1   v060
	BYTE	W12
	BYTE		        Fs1   v032
	BYTE	W06
	BYTE		        Fs1   v044
	BYTE	W06
	BYTE	PEND
// 012   ----------------------------------------
	BYTE	PATT
	 POIN2	ShopPrep_7_010
// 013   ----------------------------------------
	BYTE	PATT
	 POIN2	ShopPrep_7_011
// 014   ----------------------------------------
	BYTE	PATT
	 POIN2	ShopPrep_7_010
// 015   ----------------------------------------
	BYTE	PATT
	 POIN2	ShopPrep_7_011
// 016   ----------------------------------------
	BYTE	PATT
	 POIN2	ShopPrep_7_010
// 017   ----------------------------------------
	BYTE	PATT
	 POIN2	ShopPrep_7_011
// 018   ----------------------------------------
	BYTE	PATT
	 POIN2	ShopPrep_7_010
// 019   ----------------------------------------
	BYTE	PATT
	 POIN2	ShopPrep_7_011
// 020   ----------------------------------------
	BYTE	PATT
	 POIN2	ShopPrep_7_010
// 021   ----------------------------------------
	BYTE	PATT
	 POIN2	ShopPrep_7_011
// 022   ----------------------------------------
	BYTE	PATT
	 POIN2	ShopPrep_7_010
// 023   ----------------------------------------
	BYTE		N03     Cn1   v100
	BYTE		N03     Dn1 
	BYTE	W24
// 024   ----------------------------------------
	BYTE	W12
	BYTE		N03   
	BYTE	W06
	BYTE		N03   
	BYTE	W06
// 025   ----------------------------------------
	BYTE	PATT
	 POIN2	ShopPrep_7_009
// 026   ----------------------------------------
	BYTE	PATT
	 POIN2	ShopPrep_7_010
// 027   ----------------------------------------
	BYTE	PATT
	 POIN2	ShopPrep_7_011
// 028   ----------------------------------------
	BYTE	PATT
	 POIN2	ShopPrep_7_010
// 029   ----------------------------------------
	BYTE	PATT
	 POIN2	ShopPrep_7_011
// 030   ----------------------------------------
	BYTE	PATT
	 POIN2	ShopPrep_7_010
// 031   ----------------------------------------
	BYTE	PATT
	 POIN2	ShopPrep_7_011
// 032   ----------------------------------------
	BYTE	PATT
	 POIN2	ShopPrep_7_010
// 033   ----------------------------------------
	BYTE	PATT
	 POIN2	ShopPrep_7_011
// 034   ----------------------------------------
	BYTE	PATT
	 POIN2	ShopPrep_7_010
// 035   ----------------------------------------
	BYTE	PATT
	 POIN2	ShopPrep_7_011
// 036   ----------------------------------------
	BYTE	PATT
	 POIN2	ShopPrep_7_010
// 037   ----------------------------------------
	BYTE	PATT
	 POIN2	ShopPrep_7_011
// 038   ----------------------------------------
ShopPrep_7_038:
	BYTE		N03     Dn1   v100
	BYTE		N03     Fs1   v060
	BYTE	W12
	BYTE		        Dn1   v100
	BYTE		N03     Fs1   v032
	BYTE	W06
	BYTE		        Dn1   v100
	BYTE		N03     Fs1   v044
	BYTE	W06
	BYTE	PEND
// 039   ----------------------------------------
	BYTE		        Dn1   v100
	BYTE		N03     Fs1   v060
	BYTE	W06
	BYTE		        Dn1   v100
	BYTE	W06
	BYTE		        Cn1 
	BYTE		N03     Fs1   v032
	BYTE	W06
	BYTE		        Fs1   v044
	BYTE	W06
// 040   ----------------------------------------
	BYTE	PATT
	 POIN2	ShopPrep_7_010
// 041   ----------------------------------------
	BYTE	PATT
	 POIN2	ShopPrep_7_011
// 042   ----------------------------------------
ShopPrep_7_042:
	BYTE		N03     Dn1   v100
	BYTE		N03     Fs1   v060
	BYTE	W12
	BYTE		        Cn1   v100
	BYTE		N03     Fs1   v032
	BYTE	W06
	BYTE		        Fs1   v044
	BYTE	W06
	BYTE	PEND
// 043   ----------------------------------------
	BYTE	PATT
	 POIN2	ShopPrep_7_011
// 044   ----------------------------------------
	BYTE	PATT
	 POIN2	ShopPrep_7_042
// 045   ----------------------------------------
	BYTE	PATT
	 POIN2	ShopPrep_7_011
// 046   ----------------------------------------
	BYTE	PATT
	 POIN2	ShopPrep_7_042
// 047   ----------------------------------------
	BYTE	PATT
	 POIN2	ShopPrep_7_011
// 048   ----------------------------------------
	BYTE	PATT
	 POIN2	ShopPrep_7_042
// 049   ----------------------------------------
	BYTE	PATT
	 POIN2	ShopPrep_7_011
// 050   ----------------------------------------
	BYTE	PATT
	 POIN2	ShopPrep_7_010
// 051   ----------------------------------------
	BYTE	PATT
	 POIN2	ShopPrep_7_011
// 052   ----------------------------------------
	BYTE	PATT
	 POIN2	ShopPrep_7_010
// 053   ----------------------------------------
	BYTE	PATT
	 POIN2	ShopPrep_7_011
// 054   ----------------------------------------
	BYTE	PATT
	 POIN2	ShopPrep_7_010
// 055   ----------------------------------------
	BYTE		N03     Dn1   v100
	BYTE		N03     Fs1   v060
	BYTE	W06
	BYTE		        Dn1   v100
	BYTE	W06
	BYTE		N03   
	BYTE		N03     Fs1   v032
	BYTE	W06
	BYTE		        Fs1   v044
	BYTE	W06
// 056   ----------------------------------------
	BYTE	PATT
	 POIN2	ShopPrep_7_038
// 057   ----------------------------------------
	BYTE	PATT
	 POIN2	ShopPrep_7_011
// 058   ----------------------------------------
	BYTE	PATT
	 POIN2	ShopPrep_7_042
// 059   ----------------------------------------
	BYTE	PATT
	 POIN2	ShopPrep_7_011
// 060   ----------------------------------------
	BYTE	PATT
	 POIN2	ShopPrep_7_042
// 061   ----------------------------------------
	BYTE	PATT
	 POIN2	ShopPrep_7_011
// 062   ----------------------------------------
	BYTE	PATT
	 POIN2	ShopPrep_7_042
// 063   ----------------------------------------
	BYTE	PATT
	 POIN2	ShopPrep_7_011
// 064   ----------------------------------------
	BYTE	PATT
	 POIN2	ShopPrep_7_042
// 065   ----------------------------------------
	BYTE	PATT
	 POIN2	ShopPrep_7_011
// 066   ----------------------------------------
	BYTE	PATT
	 POIN2	ShopPrep_7_010
// 067   ----------------------------------------
	BYTE	PATT
	 POIN2	ShopPrep_7_011
// 068   ----------------------------------------
	BYTE	PATT
	 POIN2	ShopPrep_7_042
// 069   ----------------------------------------
	BYTE		N03     Fs1   v060
	BYTE	W12
	BYTE		        Dn1   v100
	BYTE		N03     Fs1   v032
	BYTE	W06
	BYTE		        Dn1   v100
	BYTE		N03     Fs1   v044
	BYTE	W06
// 070   ----------------------------------------
ShopPrep_7_070:
	BYTE		N03     Cn1   v100
	BYTE		N03     Fs1   v060
	BYTE	W12
	BYTE		        Dn1   v100
	BYTE		N03     Fs1   v032
	BYTE	W06
	BYTE		        Dn1   v100
	BYTE		N03     Fs1   v044
	BYTE	W06
	BYTE	PEND
// 071   ----------------------------------------
	BYTE	PATT
	 POIN2	ShopPrep_7_070
// 072   ----------------------------------------
	BYTE	PATT
	 POIN2	ShopPrep_7_070
// 073   ----------------------------------------
	BYTE	PATT
	 POIN2	ShopPrep_7_011
// 074   ----------------------------------------
	BYTE	PATT
	 POIN2	ShopPrep_7_042
// 075   ----------------------------------------
	BYTE	PATT
	 POIN2	ShopPrep_7_011
// 076   ----------------------------------------
	BYTE	PATT
	 POIN2	ShopPrep_7_010
// 077   ----------------------------------------
	BYTE	PATT
	 POIN2	ShopPrep_7_011
// 078   ----------------------------------------
	BYTE	PATT
	 POIN2	ShopPrep_7_042
// 079   ----------------------------------------
	BYTE	PATT
	 POIN2	ShopPrep_7_011
// 080   ----------------------------------------
	BYTE	PATT
	 POIN2	ShopPrep_7_010
// 081   ----------------------------------------
	BYTE	PATT
	 POIN2	ShopPrep_7_011
// 082   ----------------------------------------
	BYTE	PATT
	 POIN2	ShopPrep_7_042
// 083   ----------------------------------------
	BYTE	PATT
	 POIN2	ShopPrep_7_011
// 084   ----------------------------------------
	BYTE	PATT
	 POIN2	ShopPrep_7_010
// 085   ----------------------------------------
	BYTE	PATT
	 POIN2	ShopPrep_7_011
// 086   ----------------------------------------
	BYTE	PATT
	 POIN2	ShopPrep_7_042
// 087   ----------------------------------------
	BYTE		N03     Cn1   v100
	BYTE		N03     Fs1   v060
	BYTE	W12
	BYTE		        Fn1   v096
	BYTE		N03     Fs1   v032
	BYTE	W06
	BYTE		        Fs1   v044
	BYTE	W06
// 088   ----------------------------------------
	BYTE	PATT
	 POIN2	ShopPrep_7_010
// 089   ----------------------------------------
	BYTE	PATT
	 POIN2	ShopPrep_7_011
// 090   ----------------------------------------
	BYTE	PATT
	 POIN2	ShopPrep_7_042
// 091   ----------------------------------------
	BYTE	PATT
	 POIN2	ShopPrep_7_011
// 092   ----------------------------------------
	BYTE	PATT
	 POIN2	ShopPrep_7_010
// 093   ----------------------------------------
	BYTE	PATT
	 POIN2	ShopPrep_7_011
// 094   ----------------------------------------
	BYTE	PATT
	 POIN2	ShopPrep_7_042
// 095   ----------------------------------------
	BYTE	PATT
	 POIN2	ShopPrep_7_011
// 096   ----------------------------------------
	BYTE	PATT
	 POIN2	ShopPrep_7_010
// 097   ----------------------------------------
	BYTE	PATT
	 POIN2	ShopPrep_7_042
// 098   ----------------------------------------
ShopPrep_7_098:
	BYTE		N03     Cn1   v100
	BYTE		N03     Fs1   v060
	BYTE	W12
	BYTE		        Dn1   v100
	BYTE		N03     Fs1   v032
	BYTE	W06
	BYTE		        Fs1   v044
	BYTE	W06
	BYTE	PEND
// 099   ----------------------------------------
	BYTE		        Cn1   v100
	BYTE		N03     Fs1   v060
	BYTE	W12
	BYTE		        Cn1   v100
	BYTE		N03     Fs1   v032
	BYTE	W06
	BYTE		        Fs1   v044
	BYTE	W06
// 100   ----------------------------------------
	BYTE	PATT
	 POIN2	ShopPrep_7_042
// 101   ----------------------------------------
	BYTE	PATT
	 POIN2	ShopPrep_7_098
// 102   ----------------------------------------
	BYTE	PATT
	 POIN2	ShopPrep_7_042
// 103   ----------------------------------------
ShopPrep_7_103:
	BYTE		N03     Cn1   v100
	BYTE		N03     Dn1 
	BYTE		N03     Fs1   v060
	BYTE	W06
	BYTE		        Dn1   v100
	BYTE	W06
	BYTE		N03   
	BYTE		N03     Fs1   v032
	BYTE	W06
	BYTE		        Dn1   v100
	BYTE		N03     Fs1   v044
	BYTE	W06
	BYTE	PEND
// 104   ----------------------------------------
	BYTE	PATT
	 POIN2	ShopPrep_7_103
	BYTE	GoTo
	 POIN2	ShopPrep_7_B1
ShopPrep_7_B2:
// 105   ----------------------------------------
	BYTE	FINE

//**************** Track 8 (Midi-Chn.8) ****************//

ShopPrep_8:
	BYTE	KEYSH   ShopPrep_key+0
// 000   ----------------------------------------
	BYTE		VOICE   7
	BYTE		VOL     39*ShopPrep_mvl/mxv
	BYTE	W09
	BYTE		PAN     c_v+0
	BYTE	W15
// 001   ----------------------------------------
ShopPrep_8_001:
	BYTE		N02     An2   v052
	BYTE	W06
	BYTE		N02   
	BYTE	W06
	BYTE		N02   
	BYTE	W06
	BYTE		N02   
	BYTE	W06
	BYTE	PEND
// 002   ----------------------------------------
	BYTE	PATT
	 POIN2	ShopPrep_8_001
// 003   ----------------------------------------
	BYTE	PATT
	 POIN2	ShopPrep_8_001
// 004   ----------------------------------------
	BYTE	PATT
	 POIN2	ShopPrep_8_001
// 005   ----------------------------------------
	BYTE	PATT
	 POIN2	ShopPrep_8_001
// 006   ----------------------------------------
	BYTE	PATT
	 POIN2	ShopPrep_8_001
// 007   ----------------------------------------
	BYTE	PATT
	 POIN2	ShopPrep_8_001
// 008   ----------------------------------------
	BYTE	PATT
	 POIN2	ShopPrep_8_001
ShopPrep_8_B1:
// 009   ----------------------------------------
	BYTE	W24
// 010   ----------------------------------------
	BYTE	W24
// 011   ----------------------------------------
	BYTE	W24
// 012   ----------------------------------------
	BYTE	W24
// 013   ----------------------------------------
	BYTE	W24
// 014   ----------------------------------------
	BYTE	W24
// 015   ----------------------------------------
	BYTE	W24
// 016   ----------------------------------------
	BYTE	W24
// 017   ----------------------------------------
	BYTE	W24
// 018   ----------------------------------------
	BYTE	W24
// 019   ----------------------------------------
	BYTE	W24
// 020   ----------------------------------------
	BYTE	W24
// 021   ----------------------------------------
	BYTE	W24
// 022   ----------------------------------------
	BYTE	W24
// 023   ----------------------------------------
	BYTE	W24
// 024   ----------------------------------------
	BYTE	W24
// 025   ----------------------------------------
	BYTE	W24
// 026   ----------------------------------------
	BYTE	W24
// 027   ----------------------------------------
	BYTE	W24
// 028   ----------------------------------------
	BYTE	W24
// 029   ----------------------------------------
	BYTE	W24
// 030   ----------------------------------------
	BYTE	W24
// 031   ----------------------------------------
	BYTE	W24
// 032   ----------------------------------------
	BYTE	W24
// 033   ----------------------------------------
	BYTE	W24
// 034   ----------------------------------------
	BYTE	W24
// 035   ----------------------------------------
	BYTE	W24
// 036   ----------------------------------------
	BYTE	W24
// 037   ----------------------------------------
	BYTE	W24
// 038   ----------------------------------------
	BYTE	W24
// 039   ----------------------------------------
	BYTE	W24
// 040   ----------------------------------------
	BYTE	W24
// 041   ----------------------------------------
	BYTE	W24
// 042   ----------------------------------------
	BYTE	W24
// 043   ----------------------------------------
	BYTE	W24
// 044   ----------------------------------------
	BYTE	W24
// 045   ----------------------------------------
	BYTE	W24
// 046   ----------------------------------------
	BYTE	W24
// 047   ----------------------------------------
	BYTE	W24
// 048   ----------------------------------------
	BYTE	W24
// 049   ----------------------------------------
	BYTE	W24
// 050   ----------------------------------------
	BYTE	W24
// 051   ----------------------------------------
	BYTE	W24
// 052   ----------------------------------------
	BYTE	W24
// 053   ----------------------------------------
	BYTE	W24
// 054   ----------------------------------------
	BYTE	W24
// 055   ----------------------------------------
	BYTE	W24
// 056   ----------------------------------------
	BYTE	W24
// 057   ----------------------------------------
	BYTE	W24
// 058   ----------------------------------------
	BYTE	W24
// 059   ----------------------------------------
	BYTE	W24
// 060   ----------------------------------------
	BYTE	W24
// 061   ----------------------------------------
	BYTE	W24
// 062   ----------------------------------------
	BYTE	W24
// 063   ----------------------------------------
	BYTE	W24
// 064   ----------------------------------------
	BYTE	W24
// 065   ----------------------------------------
	BYTE	W24
// 066   ----------------------------------------
	BYTE	W24
// 067   ----------------------------------------
	BYTE	W24
// 068   ----------------------------------------
	BYTE	W24
// 069   ----------------------------------------
	BYTE	W24
// 070   ----------------------------------------
	BYTE	W24
// 071   ----------------------------------------
	BYTE	W24
// 072   ----------------------------------------
	BYTE	W24
// 073   ----------------------------------------
	BYTE	W24
// 074   ----------------------------------------
	BYTE	W24
// 075   ----------------------------------------
	BYTE	W24
// 076   ----------------------------------------
	BYTE	W24
// 077   ----------------------------------------
	BYTE	W24
// 078   ----------------------------------------
	BYTE	W24
// 079   ----------------------------------------
	BYTE	W24
// 080   ----------------------------------------
	BYTE	W24
// 081   ----------------------------------------
	BYTE	W24
// 082   ----------------------------------------
	BYTE	W24
// 083   ----------------------------------------
	BYTE	W24
// 084   ----------------------------------------
	BYTE	W24
// 085   ----------------------------------------
	BYTE	W24
// 086   ----------------------------------------
	BYTE	W24
// 087   ----------------------------------------
	BYTE	W24
// 088   ----------------------------------------
	BYTE	W24
// 089   ----------------------------------------
	BYTE	W24
// 090   ----------------------------------------
	BYTE	W24
// 091   ----------------------------------------
	BYTE	W24
// 092   ----------------------------------------
	BYTE	W24
// 093   ----------------------------------------
	BYTE	W24
// 094   ----------------------------------------
	BYTE	W24
// 095   ----------------------------------------
	BYTE	W24
// 096   ----------------------------------------
	BYTE	W24
// 097   ----------------------------------------
	BYTE	W24
// 098   ----------------------------------------
	BYTE	W24
// 099   ----------------------------------------
	BYTE	W24
// 100   ----------------------------------------
	BYTE	W24
// 101   ----------------------------------------
	BYTE	W24
// 102   ----------------------------------------
	BYTE	W24
// 103   ----------------------------------------
	BYTE	W24
// 104   ----------------------------------------
	BYTE	W24
	BYTE	GoTo
	 POIN2	ShopPrep_8_B1
ShopPrep_8_B2:
// 105   ----------------------------------------
	BYTE	FINE

//**************** Track 9 (Midi-Chn.9) ****************//

ShopPrep_9:
	BYTE	KEYSH   ShopPrep_key+0
// 000   ----------------------------------------
	BYTE		VOICE   7
	BYTE		VOL     16*ShopPrep_mvl/mxv
	BYTE	W09
	BYTE		PAN     c_v+0
	BYTE	W15
// 001   ----------------------------------------
ShopPrep_9_001:
	BYTE		PAN     c_v-64
	BYTE		N02     An3   v072
	BYTE	W06
	BYTE		PAN     c_v+0
	BYTE		N02   
	BYTE	W06
	BYTE		PAN     c_v+63
	BYTE		N02   
	BYTE	W06
	BYTE		PAN     c_v+0
	BYTE		N02   
	BYTE	W06
	BYTE	PEND
// 002   ----------------------------------------
	BYTE	PATT
	 POIN2	ShopPrep_9_001
// 003   ----------------------------------------
	BYTE	PATT
	 POIN2	ShopPrep_9_001
// 004   ----------------------------------------
	BYTE	PATT
	 POIN2	ShopPrep_9_001
// 005   ----------------------------------------
	BYTE	PATT
	 POIN2	ShopPrep_9_001
// 006   ----------------------------------------
	BYTE	PATT
	 POIN2	ShopPrep_9_001
// 007   ----------------------------------------
	BYTE	PATT
	 POIN2	ShopPrep_9_001
// 008   ----------------------------------------
	BYTE	PATT
	 POIN2	ShopPrep_9_001
ShopPrep_9_B1:
// 009   ----------------------------------------
	BYTE		PAN     c_v-64
	BYTE		N02     Gs3   v072
	BYTE	W06
	BYTE		PAN     c_v+0
	BYTE		N02     An3 
	BYTE	W06
	BYTE		PAN     c_v+63
	BYTE		N02   
	BYTE	W06
	BYTE		PAN     c_v+0
	BYTE		N02   
	BYTE	W06
// 010   ----------------------------------------
	BYTE	PATT
	 POIN2	ShopPrep_9_001
// 011   ----------------------------------------
	BYTE	PATT
	 POIN2	ShopPrep_9_001
// 012   ----------------------------------------
	BYTE	PATT
	 POIN2	ShopPrep_9_001
// 013   ----------------------------------------
	BYTE	PATT
	 POIN2	ShopPrep_9_001
// 014   ----------------------------------------
	BYTE	PATT
	 POIN2	ShopPrep_9_001
// 015   ----------------------------------------
	BYTE	PATT
	 POIN2	ShopPrep_9_001
// 016   ----------------------------------------
	BYTE	PATT
	 POIN2	ShopPrep_9_001
// 017   ----------------------------------------
	BYTE	PATT
	 POIN2	ShopPrep_9_001
// 018   ----------------------------------------
	BYTE	PATT
	 POIN2	ShopPrep_9_001
// 019   ----------------------------------------
	BYTE	PATT
	 POIN2	ShopPrep_9_001
// 020   ----------------------------------------
	BYTE	PATT
	 POIN2	ShopPrep_9_001
// 021   ----------------------------------------
	BYTE	PATT
	 POIN2	ShopPrep_9_001
// 022   ----------------------------------------
	BYTE	PATT
	 POIN2	ShopPrep_9_001
// 023   ----------------------------------------
ShopPrep_9_023:
	BYTE		PAN     c_v-64
	BYTE	W06
	BYTE		        c_v+0
	BYTE	W06
	BYTE		        c_v+63
	BYTE	W06
	BYTE		        c_v+0
	BYTE	W06
	BYTE	PEND
// 024   ----------------------------------------
	BYTE	PATT
	 POIN2	ShopPrep_9_023
// 025   ----------------------------------------
	BYTE	PATT
	 POIN2	ShopPrep_9_001
// 026   ----------------------------------------
	BYTE	PATT
	 POIN2	ShopPrep_9_001
// 027   ----------------------------------------
	BYTE	PATT
	 POIN2	ShopPrep_9_001
// 028   ----------------------------------------
	BYTE	PATT
	 POIN2	ShopPrep_9_001
// 029   ----------------------------------------
	BYTE	PATT
	 POIN2	ShopPrep_9_001
// 030   ----------------------------------------
	BYTE	PATT
	 POIN2	ShopPrep_9_001
// 031   ----------------------------------------
	BYTE	PATT
	 POIN2	ShopPrep_9_001
// 032   ----------------------------------------
	BYTE	PATT
	 POIN2	ShopPrep_9_001
// 033   ----------------------------------------
	BYTE	PATT
	 POIN2	ShopPrep_9_001
// 034   ----------------------------------------
	BYTE	PATT
	 POIN2	ShopPrep_9_001
// 035   ----------------------------------------
	BYTE	PATT
	 POIN2	ShopPrep_9_001
// 036   ----------------------------------------
	BYTE	PATT
	 POIN2	ShopPrep_9_001
// 037   ----------------------------------------
	BYTE	PATT
	 POIN2	ShopPrep_9_001
// 038   ----------------------------------------
	BYTE	PATT
	 POIN2	ShopPrep_9_001
// 039   ----------------------------------------
	BYTE	PATT
	 POIN2	ShopPrep_9_001
// 040   ----------------------------------------
	BYTE	PATT
	 POIN2	ShopPrep_9_001
// 041   ----------------------------------------
ShopPrep_9_041:
	BYTE		PAN     c_v-64
	BYTE		N02     Gn3   v072
	BYTE	W06
	BYTE		PAN     c_v+0
	BYTE		N02   
	BYTE	W06
	BYTE		PAN     c_v+63
	BYTE		N02   
	BYTE	W06
	BYTE		PAN     c_v+0
	BYTE		N02   
	BYTE	W06
	BYTE	PEND
// 042   ----------------------------------------
	BYTE	PATT
	 POIN2	ShopPrep_9_041
// 043   ----------------------------------------
	BYTE	PATT
	 POIN2	ShopPrep_9_041
// 044   ----------------------------------------
	BYTE	PATT
	 POIN2	ShopPrep_9_041
// 045   ----------------------------------------
	BYTE	PATT
	 POIN2	ShopPrep_9_041
// 046   ----------------------------------------
	BYTE	PATT
	 POIN2	ShopPrep_9_041
// 047   ----------------------------------------
	BYTE	PATT
	 POIN2	ShopPrep_9_041
// 048   ----------------------------------------
	BYTE	PATT
	 POIN2	ShopPrep_9_041
// 049   ----------------------------------------
ShopPrep_9_049:
	BYTE		PAN     c_v-64
	BYTE		N02     Fs3   v072
	BYTE	W06
	BYTE		PAN     c_v+0
	BYTE		N02   
	BYTE	W06
	BYTE		PAN     c_v+63
	BYTE		N02   
	BYTE	W06
	BYTE		PAN     c_v+0
	BYTE		N02   
	BYTE	W06
	BYTE	PEND
// 050   ----------------------------------------
	BYTE	PATT
	 POIN2	ShopPrep_9_049
// 051   ----------------------------------------
	BYTE	PATT
	 POIN2	ShopPrep_9_049
// 052   ----------------------------------------
	BYTE	PATT
	 POIN2	ShopPrep_9_049
// 053   ----------------------------------------
	BYTE	PATT
	 POIN2	ShopPrep_9_049
// 054   ----------------------------------------
	BYTE	PATT
	 POIN2	ShopPrep_9_049
// 055   ----------------------------------------
	BYTE	PATT
	 POIN2	ShopPrep_9_049
// 056   ----------------------------------------
	BYTE	PATT
	 POIN2	ShopPrep_9_049
// 057   ----------------------------------------
ShopPrep_9_057:
	BYTE		PAN     c_v-64
	BYTE		N02     En3   v072
	BYTE	W06
	BYTE		PAN     c_v+0
	BYTE		N02   
	BYTE	W06
	BYTE		PAN     c_v+63
	BYTE		N02   
	BYTE	W06
	BYTE		PAN     c_v+0
	BYTE		N02   
	BYTE	W06
	BYTE	PEND
// 058   ----------------------------------------
	BYTE	PATT
	 POIN2	ShopPrep_9_057
// 059   ----------------------------------------
	BYTE	PATT
	 POIN2	ShopPrep_9_057
// 060   ----------------------------------------
	BYTE	PATT
	 POIN2	ShopPrep_9_057
// 061   ----------------------------------------
	BYTE	PATT
	 POIN2	ShopPrep_9_057
// 062   ----------------------------------------
	BYTE	PATT
	 POIN2	ShopPrep_9_057
// 063   ----------------------------------------
	BYTE	PATT
	 POIN2	ShopPrep_9_057
// 064   ----------------------------------------
	BYTE	PATT
	 POIN2	ShopPrep_9_057
// 065   ----------------------------------------
	BYTE	PATT
	 POIN2	ShopPrep_9_049
// 066   ----------------------------------------
	BYTE	PATT
	 POIN2	ShopPrep_9_049
// 067   ----------------------------------------
	BYTE	PATT
	 POIN2	ShopPrep_9_049
// 068   ----------------------------------------
ShopPrep_9_068:
	BYTE		PAN     c_v-64
	BYTE		N02     Fs3   v072
	BYTE	W06
	BYTE		PAN     c_v+0
	BYTE		N02   
	BYTE	W06
	BYTE		PAN     c_v+63
	BYTE		N02     Gs3 
	BYTE	W06
	BYTE		PAN     c_v+0
	BYTE		N02   
	BYTE	W06
	BYTE	PEND
// 069   ----------------------------------------
ShopPrep_9_069:
	BYTE		PAN     c_v-64
	BYTE		N02     Gs3   v072
	BYTE	W06
	BYTE		PAN     c_v+0
	BYTE		N02   
	BYTE	W06
	BYTE		PAN     c_v+63
	BYTE		N02   
	BYTE	W06
	BYTE		PAN     c_v+0
	BYTE		N02   
	BYTE	W06
	BYTE	PEND
// 070   ----------------------------------------
	BYTE	PATT
	 POIN2	ShopPrep_9_069
// 071   ----------------------------------------
	BYTE	PATT
	 POIN2	ShopPrep_9_069
// 072   ----------------------------------------
	BYTE	PATT
	 POIN2	ShopPrep_9_069
// 073   ----------------------------------------
	BYTE	PATT
	 POIN2	ShopPrep_9_001
// 074   ----------------------------------------
	BYTE	PATT
	 POIN2	ShopPrep_9_001
// 075   ----------------------------------------
	BYTE	PATT
	 POIN2	ShopPrep_9_001
// 076   ----------------------------------------
	BYTE	PATT
	 POIN2	ShopPrep_9_001
// 077   ----------------------------------------
	BYTE	PATT
	 POIN2	ShopPrep_9_001
// 078   ----------------------------------------
	BYTE	PATT
	 POIN2	ShopPrep_9_001
// 079   ----------------------------------------
	BYTE	PATT
	 POIN2	ShopPrep_9_001
// 080   ----------------------------------------
	BYTE	PATT
	 POIN2	ShopPrep_9_001
// 081   ----------------------------------------
	BYTE	PATT
	 POIN2	ShopPrep_9_001
// 082   ----------------------------------------
	BYTE	PATT
	 POIN2	ShopPrep_9_001
// 083   ----------------------------------------
	BYTE	PATT
	 POIN2	ShopPrep_9_001
// 084   ----------------------------------------
	BYTE	PATT
	 POIN2	ShopPrep_9_001
// 085   ----------------------------------------
	BYTE	PATT
	 POIN2	ShopPrep_9_001
// 086   ----------------------------------------
	BYTE	PATT
	 POIN2	ShopPrep_9_001
// 087   ----------------------------------------
	BYTE	PATT
	 POIN2	ShopPrep_9_001
// 088   ----------------------------------------
	BYTE	PATT
	 POIN2	ShopPrep_9_001
// 089   ----------------------------------------
	BYTE	PATT
	 POIN2	ShopPrep_9_001
// 090   ----------------------------------------
	BYTE	PATT
	 POIN2	ShopPrep_9_001
// 091   ----------------------------------------
	BYTE	PATT
	 POIN2	ShopPrep_9_001
// 092   ----------------------------------------
	BYTE	PATT
	 POIN2	ShopPrep_9_001
// 093   ----------------------------------------
	BYTE	PATT
	 POIN2	ShopPrep_9_001
// 094   ----------------------------------------
	BYTE	PATT
	 POIN2	ShopPrep_9_001
// 095   ----------------------------------------
	BYTE	PATT
	 POIN2	ShopPrep_9_001
// 096   ----------------------------------------
	BYTE	PATT
	 POIN2	ShopPrep_9_001
// 097   ----------------------------------------
	BYTE	PATT
	 POIN2	ShopPrep_9_049
// 098   ----------------------------------------
	BYTE	PATT
	 POIN2	ShopPrep_9_049
// 099   ----------------------------------------
	BYTE	PATT
	 POIN2	ShopPrep_9_049
// 100   ----------------------------------------
	BYTE	PATT
	 POIN2	ShopPrep_9_068
// 101   ----------------------------------------
	BYTE	PATT
	 POIN2	ShopPrep_9_069
// 102   ----------------------------------------
	BYTE	PATT
	 POIN2	ShopPrep_9_069
// 103   ----------------------------------------
	BYTE	PATT
	 POIN2	ShopPrep_9_069
// 104   ----------------------------------------
	BYTE	PATT
	 POIN2	ShopPrep_9_069
	BYTE	GoTo
	 POIN2	ShopPrep_9_B1
ShopPrep_9_B2:
// 105   ----------------------------------------
	BYTE	FINE

//**************** Track 10 (Midi-Chn.11) ****************//

ShopPrep_10:
	BYTE	KEYSH   ShopPrep_key+0
// 000   ----------------------------------------
	BYTE		VOICE   32
	BYTE		VOL     57*ShopPrep_mvl/mxv
	BYTE	W09
	BYTE		PAN     c_v+0
	BYTE	W15
// 001   ----------------------------------------
	BYTE	W24
// 002   ----------------------------------------
	BYTE	W24
// 003   ----------------------------------------
	BYTE	W24
// 004   ----------------------------------------
	BYTE	W24
// 005   ----------------------------------------
	BYTE	W24
// 006   ----------------------------------------
	BYTE	W24
// 007   ----------------------------------------
	BYTE	W24
// 008   ----------------------------------------
	BYTE	W24
ShopPrep_10_B1:
// 009   ----------------------------------------
ShopPrep_10_009:
	BYTE		N08     An3   v100
	BYTE	W12
	BYTE		N05   
	BYTE	W06
	BYTE		N05   
	BYTE	W06
	BYTE	PEND
// 010   ----------------------------------------
	BYTE	PATT
	 POIN2	ShopPrep_10_009
// 011   ----------------------------------------
	BYTE	PATT
	 POIN2	ShopPrep_10_009
// 012   ----------------------------------------
	BYTE	PATT
	 POIN2	ShopPrep_10_009
// 013   ----------------------------------------
	BYTE	PATT
	 POIN2	ShopPrep_10_009
// 014   ----------------------------------------
	BYTE	PATT
	 POIN2	ShopPrep_10_009
// 015   ----------------------------------------
ShopPrep_10_015:
	BYTE		N08     An3   v100
	BYTE	W12
	BYTE		N08   
	BYTE	W12
	BYTE	PEND
// 016   ----------------------------------------
	BYTE	PATT
	 POIN2	ShopPrep_10_015
// 017   ----------------------------------------
	BYTE	PATT
	 POIN2	ShopPrep_10_009
// 018   ----------------------------------------
	BYTE	PATT
	 POIN2	ShopPrep_10_009
// 019   ----------------------------------------
	BYTE	PATT
	 POIN2	ShopPrep_10_009
// 020   ----------------------------------------
	BYTE	PATT
	 POIN2	ShopPrep_10_009
// 021   ----------------------------------------
	BYTE	PATT
	 POIN2	ShopPrep_10_009
// 022   ----------------------------------------
	BYTE	PATT
	 POIN2	ShopPrep_10_009
// 023   ----------------------------------------
	BYTE		N06     Gn4   v100
	BYTE	W06
	BYTE		        En4 
	BYTE	W06
	BYTE		        Gn4 
	BYTE	W06
	BYTE		        En4 
	BYTE	W06
// 024   ----------------------------------------
	BYTE		        Gn4 
	BYTE	W06
	BYTE		        En4 
	BYTE	W06
	BYTE		N12     Gn4 
	BYTE	W12
// 025   ----------------------------------------
	BYTE	PATT
	 POIN2	ShopPrep_10_009
// 026   ----------------------------------------
	BYTE	PATT
	 POIN2	ShopPrep_10_009
// 027   ----------------------------------------
	BYTE	PATT
	 POIN2	ShopPrep_10_009
// 028   ----------------------------------------
	BYTE	PATT
	 POIN2	ShopPrep_10_009
// 029   ----------------------------------------
	BYTE	PATT
	 POIN2	ShopPrep_10_009
// 030   ----------------------------------------
	BYTE	PATT
	 POIN2	ShopPrep_10_009
// 031   ----------------------------------------
	BYTE	PATT
	 POIN2	ShopPrep_10_015
// 032   ----------------------------------------
	BYTE	PATT
	 POIN2	ShopPrep_10_015
// 033   ----------------------------------------
	BYTE	PATT
	 POIN2	ShopPrep_10_009
// 034   ----------------------------------------
	BYTE	PATT
	 POIN2	ShopPrep_10_009
// 035   ----------------------------------------
	BYTE	PATT
	 POIN2	ShopPrep_10_009
// 036   ----------------------------------------
	BYTE	PATT
	 POIN2	ShopPrep_10_009
// 037   ----------------------------------------
	BYTE	PATT
	 POIN2	ShopPrep_10_015
// 038   ----------------------------------------
	BYTE		N08     En3   v100
	BYTE	W12
	BYTE		N08   
	BYTE	W12
// 039   ----------------------------------------
	BYTE		N08   
	BYTE	W12
	BYTE		N08   
	BYTE	W12
// 040   ----------------------------------------
	BYTE		N08   
	BYTE	W12
	BYTE		N08   
	BYTE	W12
// 041   ----------------------------------------
	BYTE		N24     Cn4 
	BYTE	W24
// 042   ----------------------------------------
	BYTE	W12
	BYTE		N12   
	BYTE	W12
// 043   ----------------------------------------
	BYTE		N24   
	BYTE	W24
// 044   ----------------------------------------
	BYTE	W12
	BYTE		N12   
	BYTE	W12
// 045   ----------------------------------------
	BYTE		N24   
	BYTE	W24
// 046   ----------------------------------------
	BYTE	W12
	BYTE		N08   
	BYTE	W12
// 047   ----------------------------------------
	BYTE		N08   
	BYTE	W12
	BYTE		        Bn3 
	BYTE	W12
// 048   ----------------------------------------
	BYTE		        An3 
	BYTE	W12
	BYTE		N20     Fs3 
	BYTE	W12
// 049   ----------------------------------------
	BYTE	W12
	BYTE		N05   
	BYTE	W06
	BYTE		N05   
	BYTE	W06
// 050   ----------------------------------------
ShopPrep_10_050:
	BYTE		N08     Fs3   v100
	BYTE	W12
	BYTE		N05   
	BYTE	W06
	BYTE		N05   
	BYTE	W06
	BYTE	PEND
// 051   ----------------------------------------
	BYTE	PATT
	 POIN2	ShopPrep_10_050
// 052   ----------------------------------------
	BYTE	PATT
	 POIN2	ShopPrep_10_050
// 053   ----------------------------------------
ShopPrep_10_053:
	BYTE		N08     Fs3   v100
	BYTE	W12
	BYTE		N08   
	BYTE	W12
	BYTE	PEND
// 054   ----------------------------------------
	BYTE	PATT
	 POIN2	ShopPrep_10_053
// 055   ----------------------------------------
	BYTE	PATT
	 POIN2	ShopPrep_10_053
// 056   ----------------------------------------
	BYTE	PATT
	 POIN2	ShopPrep_10_053
// 057   ----------------------------------------
	BYTE		N24     Cn4   v100
	BYTE	W24
// 058   ----------------------------------------
	BYTE	W12
	BYTE		N12   
	BYTE	W12
// 059   ----------------------------------------
	BYTE		N24   
	BYTE	W24
// 060   ----------------------------------------
	BYTE	W12
	BYTE		N12   
	BYTE	W12
// 061   ----------------------------------------
ShopPrep_10_061:
	BYTE		N08     Cn4   v100
	BYTE	W12
	BYTE		N08   
	BYTE	W12
	BYTE	PEND
// 062   ----------------------------------------
ShopPrep_10_062:
	BYTE		N08     Cn5   v100
	BYTE	W12
	BYTE		        Cn4 
	BYTE	W12
	BYTE	PEND
// 063   ----------------------------------------
	BYTE	PATT
	 POIN2	ShopPrep_10_062
// 064   ----------------------------------------
	BYTE	PATT
	 POIN2	ShopPrep_10_061
// 065   ----------------------------------------
ShopPrep_10_065:
	BYTE		N08     Dn4   v100
	BYTE	W12
	BYTE		N08   
	BYTE	W12
	BYTE	PEND
// 066   ----------------------------------------
	BYTE	PATT
	 POIN2	ShopPrep_10_065
// 067   ----------------------------------------
	BYTE		N08     Dn4   v100
	BYTE	W12
	BYTE		N12   
	BYTE	W12
// 068   ----------------------------------------
	BYTE	W12
	BYTE		N24     En3 
	BYTE	W12
// 069   ----------------------------------------
	BYTE	W12
	BYTE		N04     En4 
	BYTE	W12
// 070   ----------------------------------------
ShopPrep_10_070:
	BYTE		N12     En3   v100
	BYTE	W12
	BYTE		N04     En4 
	BYTE	W12
	BYTE	PEND
// 071   ----------------------------------------
	BYTE	PATT
	 POIN2	ShopPrep_10_070
// 072   ----------------------------------------
	BYTE	PATT
	 POIN2	ShopPrep_10_070
// 073   ----------------------------------------
	BYTE		N16     An3   v100
	BYTE	W24
// 074   ----------------------------------------
	BYTE	W12
	BYTE		N08   
	BYTE	W12
// 075   ----------------------------------------
	BYTE		N16   
	BYTE	W24
// 076   ----------------------------------------
	BYTE	W24
// 077   ----------------------------------------
	BYTE		N16   
	BYTE	W24
// 078   ----------------------------------------
	BYTE	W12
	BYTE		N08   
	BYTE	W12
// 079   ----------------------------------------
	BYTE		N16   
	BYTE	W24
// 080   ----------------------------------------
	BYTE	W24
// 081   ----------------------------------------
	BYTE		N16   
	BYTE	W24
// 082   ----------------------------------------
	BYTE	W12
	BYTE		N08   
	BYTE	W12
// 083   ----------------------------------------
	BYTE		N16   
	BYTE	W24
// 084   ----------------------------------------
	BYTE	W24
// 085   ----------------------------------------
	BYTE		N16   
	BYTE	W24
// 086   ----------------------------------------
	BYTE	W12
	BYTE		N08   
	BYTE	W12
// 087   ----------------------------------------
	BYTE		N16   
	BYTE	W24
// 088   ----------------------------------------
	BYTE	W24
// 089   ----------------------------------------
	BYTE		N16   
	BYTE	W24
// 090   ----------------------------------------
	BYTE	W12
	BYTE		N08   
	BYTE	W12
// 091   ----------------------------------------
	BYTE		N16   
	BYTE	W24
// 092   ----------------------------------------
	BYTE	W24
// 093   ----------------------------------------
	BYTE		N16   
	BYTE	W24
// 094   ----------------------------------------
	BYTE	W12
	BYTE		N08   
	BYTE	W12
// 095   ----------------------------------------
	BYTE		N16   
	BYTE	W24
// 096   ----------------------------------------
	BYTE	W24
// 097   ----------------------------------------
	BYTE	W12
	BYTE		N08     Dn4 
	BYTE	W12
// 098   ----------------------------------------
	BYTE		N08   
	BYTE	W24
// 099   ----------------------------------------
	BYTE	PATT
	 POIN2	ShopPrep_10_065
// 100   ----------------------------------------
	BYTE	W12
	BYTE		N08     En4   v100
	BYTE	W12
// 101   ----------------------------------------
	BYTE	W12
	BYTE		N08   
	BYTE	W12
// 102   ----------------------------------------
ShopPrep_10_102:
	BYTE		N08     En4   v100
	BYTE	W12
	BYTE		N08   
	BYTE	W12
	BYTE	PEND
// 103   ----------------------------------------
	BYTE	PATT
	 POIN2	ShopPrep_10_102
// 104   ----------------------------------------
	BYTE	PATT
	 POIN2	ShopPrep_10_102
	BYTE	GoTo
	 POIN2	ShopPrep_10_B1
ShopPrep_10_B2:
// 105   ----------------------------------------
	BYTE	FINE

//******************************************************//
	ALIGN 4

ShopPrep:
	BYTE	10	// NumTrks
	BYTE	0	// NumBlks
	BYTE	ShopPrep_pri	// Priority
	BYTE	ShopPrep_rev	// Reverb.

	POIN2	ShopPrep_grp

	POIN2	ShopPrep_1
	POIN2	ShopPrep_2
	POIN2	ShopPrep_3
	POIN2	ShopPrep_4
	POIN2	ShopPrep_5
	POIN2	ShopPrep_6
	POIN2	ShopPrep_7
	POIN2	ShopPrep_8
	POIN2	ShopPrep_9
	POIN2	ShopPrep_10

	
