//Event file generated from Sappy .s format.
	#include "MPlayDef.event"

	#define	SkyEvent_grp  voicegroup000
	#define	SkyEvent_pri  0
	#define	SkyEvent_rev  0
	#define	SkyEvent_mvl  50
	#define	SkyEvent_key  0
	#define	SkyEvent_tbs  1
	#define	SkyEvent_exg  0
	#define	SkyEvent_cmp  1

	// .rodata
	//	SkyEvent
	ALIGN 4

//**************** Track 1 (Midi-Chn.1) ****************//

SkyEvent_1:
	BYTE	KEYSH   SkyEvent_key+0
// 000   ----------------------------------------
	BYTE	TEMPO   170*SkyEvent_tbs/2
	BYTE		VOICE   127
	BYTE		VOL     100*SkyEvent_mvl/mxv
	BYTE		PAN     c_v+0
	BYTE		MOD     0
	BYTE	W24
SkyEvent_1_B1:
	BYTE	TEMPO   170*SkyEvent_tbs/2
	BYTE		N06     Cn1   v112
	BYTE	W48
	BYTE		N06   
	BYTE	W12
	BYTE		N06   
	BYTE	W12
// 001   ----------------------------------------
SkyEvent_1_001:
	BYTE	W24
	BYTE		N06     Cn1   v112
	BYTE	W48
	BYTE		N06   
	BYTE	W12
	BYTE		N06   
	BYTE	W12
	BYTE	PEND
// 002   ----------------------------------------
	BYTE	PATT
	 POIN2	SkyEvent_1_001
// 003   ----------------------------------------
	BYTE	PATT
	 POIN2	SkyEvent_1_001
// 004   ----------------------------------------
	BYTE	PATT
	 POIN2	SkyEvent_1_001
// 005   ----------------------------------------
	BYTE	PATT
	 POIN2	SkyEvent_1_001
// 006   ----------------------------------------
	BYTE	PATT
	 POIN2	SkyEvent_1_001
// 007   ----------------------------------------
	BYTE	PATT
	 POIN2	SkyEvent_1_001
// 008   ----------------------------------------
	BYTE	PATT
	 POIN2	SkyEvent_1_001
// 009   ----------------------------------------
	BYTE	PATT
	 POIN2	SkyEvent_1_001
// 010   ----------------------------------------
	BYTE	PATT
	 POIN2	SkyEvent_1_001
// 011   ----------------------------------------
	BYTE	PATT
	 POIN2	SkyEvent_1_001
// 012   ----------------------------------------
	BYTE	PATT
	 POIN2	SkyEvent_1_001
// 013   ----------------------------------------
	BYTE	PATT
	 POIN2	SkyEvent_1_001
// 014   ----------------------------------------
	BYTE	PATT
	 POIN2	SkyEvent_1_001
// 015   ----------------------------------------
	BYTE	W24
	BYTE		N06     Cn1   v112
	BYTE	W48
	BYTE		N06   
	BYTE	W12
	BYTE		N12     An1   v120
	BYTE	W12
// 016   ----------------------------------------
	BYTE		        Gs1 
	BYTE	W12
	BYTE		        Fn1 
	BYTE	W12
	BYTE	TEMPO   167*SkyEvent_tbs/2
	BYTE		N06     Cn1   v112
	BYTE	W48
	BYTE		N06   
	BYTE	W24
// 017   ----------------------------------------
SkyEvent_1_017:
	BYTE	W12
	BYTE		N06     Cn1   v092
	BYTE	W12
	BYTE		        Cn1   v112
	BYTE	W48
	BYTE		N06   
	BYTE	W12
	BYTE		N06   
	BYTE	W12
	BYTE	PEND
// 018   ----------------------------------------
SkyEvent_1_018:
	BYTE	W24
	BYTE		N06     Cn1   v112
	BYTE	W48
	BYTE		N06   
	BYTE	W24
	BYTE	PEND
// 019   ----------------------------------------
	BYTE	PATT
	 POIN2	SkyEvent_1_017
// 020   ----------------------------------------
	BYTE	PATT
	 POIN2	SkyEvent_1_018
// 021   ----------------------------------------
	BYTE	PATT
	 POIN2	SkyEvent_1_017
// 022   ----------------------------------------
	BYTE	PATT
	 POIN2	SkyEvent_1_018
// 023   ----------------------------------------
	BYTE	PATT
	 POIN2	SkyEvent_1_017
// 024   ----------------------------------------
	BYTE	PATT
	 POIN2	SkyEvent_1_018
// 025   ----------------------------------------
	BYTE	PATT
	 POIN2	SkyEvent_1_017
// 026   ----------------------------------------
	BYTE	PATT
	 POIN2	SkyEvent_1_018
// 027   ----------------------------------------
	BYTE	PATT
	 POIN2	SkyEvent_1_017
// 028   ----------------------------------------
	BYTE	PATT
	 POIN2	SkyEvent_1_018
// 029   ----------------------------------------
	BYTE	PATT
	 POIN2	SkyEvent_1_017
// 030   ----------------------------------------
	BYTE	W24
	BYTE	TEMPO   168*SkyEvent_tbs/2
	BYTE		N06     Cn1   v112
	BYTE	W48
	BYTE		N06   
	BYTE	W24
// 031   ----------------------------------------
	BYTE	W12
	BYTE		        Cn1   v092
	BYTE	W24
	BYTE		        Cn1   v112
	BYTE	W12
	BYTE		N06   
	BYTE	W24
	BYTE		N06   
	BYTE	W12
	BYTE		N06   
	BYTE	W12
// 032   ----------------------------------------
	BYTE	W18
	BYTE		N06   
	BYTE	W06
	BYTE	GoTo
	 POIN2	SkyEvent_1_B1
SkyEvent_1_B2:
	BYTE		VOICE   1
	BYTE		VOL     100*SkyEvent_mvl/mxv
	BYTE		PAN     c_v+0
	BYTE		MOD     0
	BYTE	W24
	BYTE	FINE

//**************** Track 2 (Midi-Chn.2) ****************//

SkyEvent_2:
	BYTE	KEYSH   SkyEvent_key+0
// 000   ----------------------------------------
	BYTE		VOICE   33
	BYTE		VOL     100*SkyEvent_mvl/mxv
	BYTE		PAN     c_v+0
	BYTE		MOD     0
	BYTE	W24
SkyEvent_2_B1:
	BYTE		N11     As1   v120
	BYTE	W12
	BYTE		        As2   v112
	BYTE	W12
	BYTE		        As1   v120
	BYTE	W12
	BYTE		        As2   v112
	BYTE	W12
	BYTE		        As1   v120
	BYTE	W12
	BYTE		        As2   v112
	BYTE	W12
// 001   ----------------------------------------
SkyEvent_2_001:
	BYTE		N11     As1   v120
	BYTE	W12
	BYTE		        As2   v112
	BYTE	W12
	BYTE		        As1   v120
	BYTE	W12
	BYTE		        As2   v112
	BYTE	W12
	BYTE		        As1   v120
	BYTE	W12
	BYTE		        As2   v112
	BYTE	W12
	BYTE		        As1   v120
	BYTE	W12
	BYTE		        As2   v112
	BYTE	W12
	BYTE	PEND
// 002   ----------------------------------------
	BYTE	PATT
	 POIN2	SkyEvent_2_001
// 003   ----------------------------------------
	BYTE		N11     As1   v120
	BYTE	W12
	BYTE		        As2   v112
	BYTE	W12
	BYTE		        As1   v120
	BYTE	W12
	BYTE		        As2   v112
	BYTE	W12
	BYTE		        As1   v120
	BYTE	W12
	BYTE		        As2   v112
	BYTE	W12
	BYTE		        Gs1   v120
	BYTE	W12
	BYTE		        Gs2   v112
	BYTE	W12
// 004   ----------------------------------------
SkyEvent_2_004:
	BYTE		N11     An1   v120
	BYTE	W12
	BYTE		        An2   v112
	BYTE	W12
	BYTE		        As1   v120
	BYTE	W12
	BYTE		        As2   v112
	BYTE	W12
	BYTE		        As1   v120
	BYTE	W12
	BYTE		        As2   v112
	BYTE	W12
	BYTE		        As1   v120
	BYTE	W12
	BYTE		        As2   v112
	BYTE	W12
	BYTE	PEND
// 005   ----------------------------------------
	BYTE	PATT
	 POIN2	SkyEvent_2_001
// 006   ----------------------------------------
SkyEvent_2_006:
	BYTE		N11     Gs1   v120
	BYTE	W12
	BYTE		        Gs2   v112
	BYTE	W12
	BYTE		        Fs1   v120
	BYTE	W12
	BYTE		        Fs2   v112
	BYTE	W12
	BYTE		        Fs1   v120
	BYTE	W12
	BYTE		        Fs2   v112
	BYTE	W12
	BYTE		        Fs1   v120
	BYTE	W12
	BYTE		        Fs2   v112
	BYTE	W12
	BYTE	PEND
// 007   ----------------------------------------
	BYTE	W02
	BYTE		        Fn1   v120
	BYTE	W12
	BYTE		        Fn2   v112
	BYTE	W10
	BYTE		        Fn1   v120
	BYTE	W12
	BYTE		        Fn2   v112
	BYTE	W12
	BYTE		        Fn1   v120
	BYTE	W12
	BYTE		        Fn2   v112
	BYTE	W12
	BYTE		        Fn1   v120
	BYTE	W12
	BYTE		        Fn2   v112
	BYTE	W12
// 008   ----------------------------------------
	BYTE	PATT
	 POIN2	SkyEvent_2_004
// 009   ----------------------------------------
	BYTE	PATT
	 POIN2	SkyEvent_2_001
// 010   ----------------------------------------
	BYTE	PATT
	 POIN2	SkyEvent_2_001
// 011   ----------------------------------------
	BYTE		N11     As1   v120
	BYTE	W12
	BYTE		        As2   v112
	BYTE	W12
	BYTE		        As1   v120
	BYTE	W12
	BYTE		        As2   v112
	BYTE	W12
	BYTE		        Gn1   v120
	BYTE	W12
	BYTE		        Gn2   v112
	BYTE	W12
	BYTE		        Gs1   v120
	BYTE	W12
	BYTE		        Gs2   v112
	BYTE	W12
// 012   ----------------------------------------
	BYTE		        As1   v120
	BYTE	W12
	BYTE		        An2   v112
	BYTE	W12
	BYTE		        As1   v120
	BYTE	W12
	BYTE		        As2   v112
	BYTE	W12
	BYTE		        As1   v120
	BYTE	W12
	BYTE		        As2   v112
	BYTE	W12
	BYTE		        As1   v120
	BYTE	W12
	BYTE		        As2   v112
	BYTE	W12
// 013   ----------------------------------------
	BYTE	PATT
	 POIN2	SkyEvent_2_001
// 014   ----------------------------------------
	BYTE	PATT
	 POIN2	SkyEvent_2_006
// 015   ----------------------------------------
	BYTE	W02
	BYTE		N11     Fn1   v120
	BYTE	W12
	BYTE		        Fn2   v112
	BYTE	W10
	BYTE		        Fn1   v120
	BYTE	W12
	BYTE		        Fn2   v112
	BYTE	W12
	BYTE		        Fn1   v120
	BYTE	W12
	BYTE		        Fn2   v112
	BYTE	W12
	BYTE		        An1   v120
	BYTE	W12
	BYTE		        An2   v112
	BYTE	W12
// 016   ----------------------------------------
	BYTE		        As1   v120
	BYTE	W12
	BYTE		        As2   v112
	BYTE	W12
	BYTE		        Cn2   v120
	BYTE	W12
	BYTE		        Gn1 
	BYTE	W12
	BYTE		        As1 
	BYTE	W12
	BYTE		        Gn1 
	BYTE	W12
	BYTE		        Cn2 
	BYTE	W12
	BYTE		        Gn1 
	BYTE	W12
// 017   ----------------------------------------
	BYTE		        As1 
	BYTE	W12
	BYTE		        Cn2 
	BYTE	W24
	BYTE		        Gn1 
	BYTE	W12
	BYTE		        As1 
	BYTE	W12
	BYTE		        Gn1 
	BYTE	W12
	BYTE		        Cn2 
	BYTE	W12
	BYTE		        Gn1 
	BYTE	W12
// 018   ----------------------------------------
	BYTE		        As1 
	BYTE	W12
	BYTE		        Cn2 
	BYTE	W12
	BYTE		        Gn2   v112
	BYTE	W12
	BYTE		        Dn2   v120
	BYTE	W12
	BYTE		        Fn2   v112
	BYTE	W12
	BYTE		        Dn2   v120
	BYTE	W12
	BYTE		        Gn2   v112
	BYTE	W12
	BYTE		        Dn2   v120
	BYTE	W12
// 019   ----------------------------------------
	BYTE		        Fn2   v112
	BYTE	W12
	BYTE		        Gn2 
	BYTE	W24
	BYTE		        Dn2   v120
	BYTE	W12
	BYTE		        Fn2   v112
	BYTE	W12
	BYTE		        Dn2   v120
	BYTE	W12
	BYTE		        Gn2   v112
	BYTE	W12
	BYTE		        Dn2   v120
	BYTE	W12
// 020   ----------------------------------------
	BYTE		        Fn2   v112
	BYTE	W12
	BYTE		        Gn2 
	BYTE	W12
	BYTE		        Cs2   v120
	BYTE	W12
	BYTE		        Gs1 
	BYTE	W12
	BYTE		        As1 
	BYTE	W12
	BYTE		        Gs1 
	BYTE	W12
	BYTE		        Cs2 
	BYTE	W12
	BYTE		        Gs1 
	BYTE	W12
// 021   ----------------------------------------
	BYTE		        As1 
	BYTE	W12
	BYTE		        Cs2 
	BYTE	W24
	BYTE		        Gs1 
	BYTE	W12
	BYTE		        As1 
	BYTE	W12
	BYTE		        Gs1 
	BYTE	W12
	BYTE		        Cs2 
	BYTE	W12
	BYTE		        Gs1 
	BYTE	W12
// 022   ----------------------------------------
	BYTE		        As1 
	BYTE	W12
	BYTE		        Cs2 
	BYTE	W12
	BYTE		        Cn2 
	BYTE	W12
	BYTE		        Gn1 
	BYTE	W12
	BYTE		        As1 
	BYTE	W12
	BYTE		        Gn1 
	BYTE	W12
	BYTE		        Cn2 
	BYTE	W12
	BYTE		        Gn1 
	BYTE	W12
// 023   ----------------------------------------
	BYTE		        As1 
	BYTE	W12
	BYTE		        Cn2 
	BYTE	W24
	BYTE		        Cn3   v112
	BYTE	W12
	BYTE		        Cn2   v120
	BYTE	W12
	BYTE		        Cn3   v112
	BYTE	W12
	BYTE		        As1   v120
	BYTE	W12
	BYTE		        As2   v112
	BYTE	W12
// 024   ----------------------------------------
	BYTE		        As1   v120
	BYTE	W12
	BYTE		        As2   v112
	BYTE	W12
	BYTE		        Gs1   v120
	BYTE	W12
	BYTE		        Ds2   v112
	BYTE	W12
	BYTE		        Fn2 
	BYTE	W12
	BYTE		        Ds2 
	BYTE	W12
	BYTE		        Gs2 
	BYTE	W12
	BYTE		        Ds2 
	BYTE	W12
// 025   ----------------------------------------
	BYTE		        Fn2 
	BYTE	W12
	BYTE		        Gs2 
	BYTE	W24
	BYTE		        Ds2 
	BYTE	W12
	BYTE		        Fn2 
	BYTE	W12
	BYTE		        Ds2 
	BYTE	W12
	BYTE		        Gs2 
	BYTE	W12
	BYTE		        Ds2 
	BYTE	W12
// 026   ----------------------------------------
	BYTE		        Fn2 
	BYTE	W12
	BYTE		        Gs2 
	BYTE	W12
	BYTE		        Ds2 
	BYTE	W12
	BYTE		        As1   v120
	BYTE	W12
	BYTE		        Cn2 
	BYTE	W12
	BYTE		        As1 
	BYTE	W12
	BYTE		        Ds2   v112
	BYTE	W12
	BYTE		        As1   v120
	BYTE	W12
// 027   ----------------------------------------
	BYTE		        Cn2 
	BYTE	W12
	BYTE		        Ds2   v112
	BYTE	W24
	BYTE		        As1   v120
	BYTE	W12
	BYTE		        Cn2 
	BYTE	W12
	BYTE		        As1 
	BYTE	W12
	BYTE		        Ds2   v112
	BYTE	W12
	BYTE		        As1   v120
	BYTE	W12
// 028   ----------------------------------------
	BYTE		        Cn2 
	BYTE	W12
	BYTE		        Ds2   v112
	BYTE	W12
	BYTE		        Fs2 
	BYTE	W12
	BYTE		        Cs2   v120
	BYTE	W12
	BYTE		        Ds2   v112
	BYTE	W12
	BYTE		        Cs2   v120
	BYTE	W12
	BYTE		        Fs2   v112
	BYTE	W12
	BYTE		        Cs2   v120
	BYTE	W12
// 029   ----------------------------------------
	BYTE		        Ds2   v112
	BYTE	W12
	BYTE		        Fs2 
	BYTE	W24
	BYTE		        Cs2   v120
	BYTE	W12
	BYTE		        Ds2   v112
	BYTE	W12
	BYTE		        Cs2   v120
	BYTE	W12
	BYTE		        Fs2   v112
	BYTE	W12
	BYTE		        Cs2   v120
	BYTE	W12
// 030   ----------------------------------------
	BYTE		        Ds2   v112
	BYTE	W12
	BYTE		        Fs2 
	BYTE	W12
	BYTE		        Fn2 
	BYTE	W12
	BYTE		        Cn2   v120
	BYTE	W12
	BYTE		        Ds2   v112
	BYTE	W12
	BYTE		        Cn2   v120
	BYTE	W12
	BYTE		        Fn2   v112
	BYTE	W12
	BYTE		        Cn2   v120
	BYTE	W12
// 031   ----------------------------------------
	BYTE		        Ds2   v112
	BYTE	W12
	BYTE		        Fn2 
	BYTE	W24
	BYTE		N11   
	BYTE	W12
	BYTE		        Fn1   v120
	BYTE	W12
	BYTE		        Fn2   v112
	BYTE	W12
	BYTE		        Gs1   v120
	BYTE	W12
	BYTE		        Gs2   v112
	BYTE	W12
// 032   ----------------------------------------
	BYTE		        An1   v120
	BYTE	W12
	BYTE		        An2   v112
	BYTE	W12
	BYTE	GoTo
	 POIN2	SkyEvent_2_B1
SkyEvent_2_B2:
	BYTE	W24
	BYTE	FINE

//**************** Track 3 (Midi-Chn.3) ****************//

SkyEvent_3:
	BYTE	KEYSH   SkyEvent_key+0
// 000   ----------------------------------------
	BYTE		VOICE   103
	BYTE		VOL     100*SkyEvent_mvl/mxv
	BYTE	W24
SkyEvent_3_B1:
	BYTE	W72
// 001   ----------------------------------------
	BYTE	W96
// 002   ----------------------------------------
	BYTE	W96
// 003   ----------------------------------------
	BYTE	W96
// 004   ----------------------------------------
	BYTE	W96
// 005   ----------------------------------------
	BYTE	W96
// 006   ----------------------------------------
	BYTE	W96
// 007   ----------------------------------------
	BYTE	W96
// 008   ----------------------------------------
	BYTE	W96
// 009   ----------------------------------------
	BYTE	W96
// 010   ----------------------------------------
	BYTE	W96
// 011   ----------------------------------------
	BYTE	W96
// 012   ----------------------------------------
	BYTE	W96
// 013   ----------------------------------------
	BYTE	W96
// 014   ----------------------------------------
	BYTE	W96
// 015   ----------------------------------------
	BYTE	W80
	BYTE		N04     Fn2   v032
	BYTE	W04
	BYTE		        Gn2   v036
	BYTE	W04
	BYTE		        An2   v040
	BYTE	W04
	BYTE		        As2   v044
	BYTE	W04
// 016   ----------------------------------------
	BYTE		        Cn3   v048
	BYTE	W04
	BYTE		        Dn3   v052
	BYTE	W04
	BYTE		        Ds3 
	BYTE	W04
	BYTE		        Fn3   v056
	BYTE	W04
	BYTE		        Gn3   v060
	BYTE	W04
	BYTE		        An3   v064
	BYTE	W04
	BYTE		N72     As3   v072
	BYTE	W72
// 017   ----------------------------------------
	BYTE		N12     Gn3 
	BYTE	W12
	BYTE		        An3 
	BYTE	W12
	BYTE		N24     As3 
	BYTE	W24
	BYTE		N12     Gn3 
	BYTE	W12
	BYTE		        An3 
	BYTE	W12
	BYTE		        As3 
	BYTE	W12
	BYTE		        An3 
	BYTE	W12
// 018   ----------------------------------------
	BYTE		        As3 
	BYTE	W12
	BYTE		        Cn4 
	BYTE	W12
	BYTE		N24     As3 
	BYTE	W24
	BYTE		N12     Fn3 
	BYTE	W12
	BYTE		N24   
	BYTE	W24
	BYTE		N12     Ds3 
	BYTE	W12
// 019   ----------------------------------------
	BYTE		N72     Dn3 
	BYTE	W72
	BYTE		N12   
	BYTE	W12
	BYTE		        Ds3 
	BYTE	W12
// 020   ----------------------------------------
	BYTE		        Fn3 
	BYTE	W12
	BYTE		        Gn3 
	BYTE	W12
	BYTE		N24     Gs3 
	BYTE	W24
	BYTE		N12     Cs3 
	BYTE	W12
	BYTE		N24   
	BYTE	W24
	BYTE		N12     Ds3 
	BYTE	W12
// 021   ----------------------------------------
	BYTE		N48     Cs3 
	BYTE	W48
	BYTE		N12   
	BYTE	W12
	BYTE		        Ds3 
	BYTE	W12
	BYTE		        Fn3 
	BYTE	W12
	BYTE		        Gn3 
	BYTE	W12
// 022   ----------------------------------------
	BYTE		        Gs3 
	BYTE	W12
	BYTE		        Fn3 
	BYTE	W12
	BYTE		N96     Gn3 
	BYTE	W72
// 023   ----------------------------------------
	BYTE	W24
	BYTE		N12     Cn4 
	BYTE	W12
	BYTE		        Ds3 
	BYTE	W12
	BYTE		        Gn3 
	BYTE	W12
	BYTE		        Cn4 
	BYTE	W12
	BYTE		        Dn4 
	BYTE	W12
	BYTE		        Ds3 
	BYTE	W12
// 024   ----------------------------------------
	BYTE		        Gn3 
	BYTE	W12
	BYTE		        Dn4 
	BYTE	W12
	BYTE		N72     Ds4 
	BYTE	W72
// 025   ----------------------------------------
	BYTE		N12     Cn4 
	BYTE	W12
	BYTE		        Dn4 
	BYTE	W12
	BYTE		N24     Ds4 
	BYTE	W24
	BYTE		N12     Cn4 
	BYTE	W12
	BYTE		        Dn4 
	BYTE	W12
	BYTE		        Ds4 
	BYTE	W12
	BYTE		        Dn4 
	BYTE	W12
// 026   ----------------------------------------
	BYTE		        Ds4 
	BYTE	W12
	BYTE		        Fn4 
	BYTE	W12
	BYTE		N24     Ds4 
	BYTE	W24
	BYTE		N12     As3 
	BYTE	W12
	BYTE		N24   
	BYTE	W24
	BYTE		N12     Gs3 
	BYTE	W12
// 027   ----------------------------------------
	BYTE		N72     Gn3 
	BYTE	W72
	BYTE		N12     Ds3 
	BYTE	W12
	BYTE		        Fn3 
	BYTE	W12
// 028   ----------------------------------------
	BYTE		        Gn3 
	BYTE	W12
	BYTE		        Gs3 
	BYTE	W12
	BYTE		N24     As3 
	BYTE	W24
	BYTE		N12     Cs3 
	BYTE	W12
	BYTE		N24   
	BYTE	W24
	BYTE		N12     Ds3 
	BYTE	W12
// 029   ----------------------------------------
	BYTE		N48     Cs3 
	BYTE	W48
	BYTE		N12     Fs3 
	BYTE	W12
	BYTE		        Gs3 
	BYTE	W12
	BYTE		        As3 
	BYTE	W12
	BYTE		        Cn4 
	BYTE	W12
// 030   ----------------------------------------
	BYTE		        Cs4 
	BYTE	W12
	BYTE		        As3 
	BYTE	W12
	BYTE		N84     Cn4 
	BYTE	W72
// 031   ----------------------------------------
	BYTE	W12
	BYTE		N06     An3 
	BYTE	W06
	BYTE		        Cn4 
	BYTE	W06
	BYTE		N48     Fn4 
	BYTE	W48
	BYTE		        Cn0   v092
	BYTE	W24
// 032   ----------------------------------------
	BYTE	W24
	BYTE	GoTo
	 POIN2	SkyEvent_3_B1
SkyEvent_3_B2:
	BYTE	W24
	BYTE	FINE

//**************** Track 4 (Midi-Chn.4) ****************//

SkyEvent_4:
	BYTE	KEYSH   SkyEvent_key+0
// 000   ----------------------------------------
	BYTE		VOICE   30
	BYTE		VOL     100*SkyEvent_mvl/mxv
	BYTE		PAN     c_v+10
	BYTE		MOD     0
	BYTE	W24
SkyEvent_4_B1:
	BYTE		N12     As2   v060
	BYTE	W36
	BYTE		N12   
	BYTE	W36
// 001   ----------------------------------------
SkyEvent_4_001:
	BYTE		N12     As2   v060
	BYTE	W36
	BYTE		N12   
	BYTE	W36
	BYTE		N12   
	BYTE	W24
	BYTE	PEND
// 002   ----------------------------------------
SkyEvent_4_002:
	BYTE		N12     As2   v060
	BYTE	W24
	BYTE		N12   
	BYTE	W36
	BYTE		N12   
	BYTE	W36
	BYTE	PEND
// 003   ----------------------------------------
	BYTE	PATT
	 POIN2	SkyEvent_4_001
// 004   ----------------------------------------
	BYTE	PATT
	 POIN2	SkyEvent_4_002
// 005   ----------------------------------------
	BYTE	PATT
	 POIN2	SkyEvent_4_001
// 006   ----------------------------------------
	BYTE	PATT
	 POIN2	SkyEvent_4_002
// 007   ----------------------------------------
	BYTE		N12     Ds3   v060
	BYTE	W36
	BYTE		N12   
	BYTE	W36
	BYTE		        Cn3 
	BYTE	W24
// 008   ----------------------------------------
	BYTE		N12   
	BYTE	W24
	BYTE		        As2 
	BYTE	W36
	BYTE		N12   
	BYTE	W36
// 009   ----------------------------------------
	BYTE	PATT
	 POIN2	SkyEvent_4_001
// 010   ----------------------------------------
	BYTE	PATT
	 POIN2	SkyEvent_4_002
// 011   ----------------------------------------
	BYTE	PATT
	 POIN2	SkyEvent_4_001
// 012   ----------------------------------------
	BYTE	PATT
	 POIN2	SkyEvent_4_002
// 013   ----------------------------------------
	BYTE	PATT
	 POIN2	SkyEvent_4_001
// 014   ----------------------------------------
	BYTE	PATT
	 POIN2	SkyEvent_4_002
// 015   ----------------------------------------
	BYTE		N12     As2   v060
	BYTE	W36
	BYTE		N12   
	BYTE	W36
	BYTE		        Ds3 
	BYTE	W24
// 016   ----------------------------------------
	BYTE		N12   
	BYTE	W96
// 017   ----------------------------------------
	BYTE	W96
// 018   ----------------------------------------
	BYTE	W96
// 019   ----------------------------------------
	BYTE	W96
// 020   ----------------------------------------
	BYTE	W96
// 021   ----------------------------------------
	BYTE	W96
// 022   ----------------------------------------
	BYTE	W96
// 023   ----------------------------------------
	BYTE	W96
// 024   ----------------------------------------
	BYTE	W96
// 025   ----------------------------------------
	BYTE	W96
// 026   ----------------------------------------
	BYTE	W96
// 027   ----------------------------------------
	BYTE	W96
// 028   ----------------------------------------
	BYTE	W96
// 029   ----------------------------------------
	BYTE	W96
// 030   ----------------------------------------
	BYTE	W96
// 031   ----------------------------------------
	BYTE	W96
// 032   ----------------------------------------
	BYTE	W24
	BYTE	GoTo
	 POIN2	SkyEvent_4_B1
SkyEvent_4_B2:
	BYTE	W24
	BYTE	FINE

//**************** Track 5 (Midi-Chn.5) ****************//

SkyEvent_5:
	BYTE	KEYSH   SkyEvent_key+0
// 000   ----------------------------------------
	BYTE		VOICE   30
	BYTE		VOL     100*SkyEvent_mvl/mxv
	BYTE		PAN     c_v-10
	BYTE		MOD     0
	BYTE	W24
SkyEvent_5_B1:
	BYTE		N12     Fn2   v060
	BYTE	W12
	BYTE		N03     As1 
	BYTE	W12
	BYTE		N03   
	BYTE	W12
	BYTE		N12     Fn2 
	BYTE	W12
	BYTE		N03     As1 
	BYTE	W12
	BYTE		N03   
	BYTE	W12
// 001   ----------------------------------------
SkyEvent_5_001:
	BYTE		N12     Fn2   v060
	BYTE	W12
	BYTE		N03     As1 
	BYTE	W12
	BYTE		N03   
	BYTE	W12
	BYTE		N12     Ds2 
	BYTE	W12
	BYTE		N03     As1 
	BYTE	W12
	BYTE		N03   
	BYTE	W12
	BYTE		N12     Ds2 
	BYTE	W12
	BYTE		N03     As1 
	BYTE	W12
	BYTE	PEND
// 002   ----------------------------------------
SkyEvent_5_002:
	BYTE		N12     Ds2   v060
	BYTE	W12
	BYTE		N03     As1 
	BYTE	W12
	BYTE		N12     Fn2 
	BYTE	W12
	BYTE		N03     As1 
	BYTE	W12
	BYTE		N03   
	BYTE	W12
	BYTE		N12     Fn2 
	BYTE	W12
	BYTE		N03     As1 
	BYTE	W12
	BYTE		N03   
	BYTE	W12
	BYTE	PEND
// 003   ----------------------------------------
SkyEvent_5_003:
	BYTE		N12     Ds2   v060
	BYTE	W12
	BYTE		N03     Gs1 
	BYTE	W12
	BYTE		N03   
	BYTE	W12
	BYTE		N12     Ds2 
	BYTE	W12
	BYTE		N03     Gs1 
	BYTE	W12
	BYTE		N03   
	BYTE	W12
	BYTE		N12     Ds2 
	BYTE	W12
	BYTE		N03     Gs1 
	BYTE	W12
	BYTE	PEND
// 004   ----------------------------------------
SkyEvent_5_004:
	BYTE		N12     Ds2   v060
	BYTE	W12
	BYTE		N03     Gs1 
	BYTE	W12
	BYTE		N12     Fn2 
	BYTE	W12
	BYTE		N03     As1 
	BYTE	W12
	BYTE		N03   
	BYTE	W12
	BYTE		N12     Fn2 
	BYTE	W12
	BYTE		N03     As1 
	BYTE	W12
	BYTE		N03   
	BYTE	W12
	BYTE	PEND
// 005   ----------------------------------------
	BYTE	PATT
	 POIN2	SkyEvent_5_001
// 006   ----------------------------------------
	BYTE	PATT
	 POIN2	SkyEvent_5_002
// 007   ----------------------------------------
	BYTE		N12     Gn2   v060
	BYTE	W12
	BYTE		N03     Cn2 
	BYTE	W12
	BYTE		N03   
	BYTE	W12
	BYTE		N12     Gn2 
	BYTE	W12
	BYTE		N03     Cn2 
	BYTE	W12
	BYTE		N03   
	BYTE	W12
	BYTE		N12     Fn2 
	BYTE	W12
	BYTE		N03     Cn2 
	BYTE	W12
// 008   ----------------------------------------
	BYTE		N12     Fn2 
	BYTE	W12
	BYTE		N03     Cn2 
	BYTE	W12
	BYTE		N12     Fn2 
	BYTE	W12
	BYTE		N03     As1 
	BYTE	W12
	BYTE		N03   
	BYTE	W12
	BYTE		N12     Fn2 
	BYTE	W12
	BYTE		N03     As1 
	BYTE	W12
	BYTE		N03   
	BYTE	W12
// 009   ----------------------------------------
	BYTE	PATT
	 POIN2	SkyEvent_5_001
// 010   ----------------------------------------
	BYTE	PATT
	 POIN2	SkyEvent_5_002
// 011   ----------------------------------------
	BYTE	PATT
	 POIN2	SkyEvent_5_003
// 012   ----------------------------------------
	BYTE	PATT
	 POIN2	SkyEvent_5_004
// 013   ----------------------------------------
	BYTE	PATT
	 POIN2	SkyEvent_5_001
// 014   ----------------------------------------
	BYTE	PATT
	 POIN2	SkyEvent_5_002
// 015   ----------------------------------------
	BYTE		N12     Fn2   v060
	BYTE	W12
	BYTE		N03     Cn2 
	BYTE	W12
	BYTE		N03   
	BYTE	W12
	BYTE		N12     Fn2 
	BYTE	W12
	BYTE		N03     Cn2 
	BYTE	W12
	BYTE		N03   
	BYTE	W12
	BYTE		N12     An2 
	BYTE	W12
	BYTE		N03     Cn2 
	BYTE	W12
// 016   ----------------------------------------
	BYTE		N12     An2 
	BYTE	W12
	BYTE		N03     Cn2 
	BYTE	W84
// 017   ----------------------------------------
	BYTE	W96
// 018   ----------------------------------------
	BYTE	W96
// 019   ----------------------------------------
	BYTE	W96
// 020   ----------------------------------------
	BYTE	W96
// 021   ----------------------------------------
	BYTE	W96
// 022   ----------------------------------------
	BYTE	W96
// 023   ----------------------------------------
	BYTE	W96
// 024   ----------------------------------------
	BYTE	W96
// 025   ----------------------------------------
	BYTE	W96
// 026   ----------------------------------------
	BYTE	W96
// 027   ----------------------------------------
	BYTE	W96
// 028   ----------------------------------------
	BYTE	W96
// 029   ----------------------------------------
	BYTE	W96
// 030   ----------------------------------------
	BYTE	W96
// 031   ----------------------------------------
	BYTE	W96
// 032   ----------------------------------------
	BYTE	W24
	BYTE	GoTo
	 POIN2	SkyEvent_5_B1
SkyEvent_5_B2:
	BYTE	W24
	BYTE	FINE

//**************** Track 6 (Midi-Chn.6) ****************//

SkyEvent_6:
	BYTE	KEYSH   SkyEvent_key+0
// 000   ----------------------------------------
	BYTE		VOICE   15
	BYTE		VOL     100*SkyEvent_mvl/mxv
	BYTE		PAN     c_v+10
	BYTE		MOD     0
	BYTE	W24
SkyEvent_6_B1:
	BYTE	W72
// 001   ----------------------------------------
	BYTE	W96
// 002   ----------------------------------------
	BYTE	W96
// 003   ----------------------------------------
	BYTE	W96
// 004   ----------------------------------------
	BYTE	W96
// 005   ----------------------------------------
	BYTE	W96
// 006   ----------------------------------------
	BYTE	W96
// 007   ----------------------------------------
	BYTE	W96
// 008   ----------------------------------------
	BYTE	W96
// 009   ----------------------------------------
	BYTE	W96
// 010   ----------------------------------------
	BYTE	W96
// 011   ----------------------------------------
	BYTE	W96
// 012   ----------------------------------------
	BYTE	W96
// 013   ----------------------------------------
	BYTE	W96
// 014   ----------------------------------------
	BYTE	W96
// 015   ----------------------------------------
	BYTE	W96
// 016   ----------------------------------------
	BYTE	W36
	BYTE		N06     Gn3   v076
	BYTE	W36
	BYTE		N06   
	BYTE	W24
// 017   ----------------------------------------
SkyEvent_6_017:
	BYTE	W12
	BYTE		N06     Gn3   v076
	BYTE	W36
	BYTE		N06   
	BYTE	W36
	BYTE		N06   
	BYTE	W12
	BYTE	PEND
// 018   ----------------------------------------
	BYTE		N24     As3   v080
	BYTE	W24
	BYTE		N06     As3   v076
	BYTE	W12
	BYTE		        Fn3 
	BYTE	W36
	BYTE		N06   
	BYTE	W24
// 019   ----------------------------------------
SkyEvent_6_019:
	BYTE	W12
	BYTE		N06     Fn3   v076
	BYTE	W36
	BYTE		N06   
	BYTE	W36
	BYTE		N06   
	BYTE	W12
	BYTE	PEND
// 020   ----------------------------------------
	BYTE		N24     As3   v080
	BYTE	W24
	BYTE		N06     Gs3   v076
	BYTE	W12
	BYTE		        Fn3 
	BYTE	W36
	BYTE		N06   
	BYTE	W24
// 021   ----------------------------------------
	BYTE	PATT
	 POIN2	SkyEvent_6_019
// 022   ----------------------------------------
	BYTE		N24     Cs4   v080
	BYTE	W24
	BYTE		N06     Cn4   v076
	BYTE	W12
	BYTE		        Ds3 
	BYTE	W36
	BYTE		N06   
	BYTE	W24
// 023   ----------------------------------------
	BYTE	W12
	BYTE		N06   
	BYTE	W36
	BYTE		N06   
	BYTE	W36
	BYTE		N06   
	BYTE	W12
// 024   ----------------------------------------
	BYTE		N24     Gn3   v080
	BYTE	W36
	BYTE		N06     Gs3   v076
	BYTE	W36
	BYTE		N06   
	BYTE	W24
// 025   ----------------------------------------
	BYTE	W12
	BYTE		N06   
	BYTE	W36
	BYTE		N06   
	BYTE	W36
	BYTE		N06   
	BYTE	W12
// 026   ----------------------------------------
	BYTE		N24     Cn4   v080
	BYTE	W24
	BYTE		N06     As3   v076
	BYTE	W12
	BYTE		        Gn3 
	BYTE	W36
	BYTE		N06   
	BYTE	W24
// 027   ----------------------------------------
	BYTE	PATT
	 POIN2	SkyEvent_6_017
// 028   ----------------------------------------
	BYTE		N24     Ds4   v080
	BYTE	W24
	BYTE		N06     Cs4   v076
	BYTE	W12
	BYTE		        Fs3 
	BYTE	W36
	BYTE		N06   
	BYTE	W24
// 029   ----------------------------------------
	BYTE	W12
	BYTE		N06   
	BYTE	W36
	BYTE		N06   
	BYTE	W36
	BYTE		N06   
	BYTE	W12
// 030   ----------------------------------------
	BYTE		N24     Cs4   v080
	BYTE	W24
	BYTE		N06     Cn4   v076
	BYTE	W12
	BYTE		        Fn3 
	BYTE	W36
	BYTE		N06   
	BYTE	W24
// 031   ----------------------------------------
	BYTE	PATT
	 POIN2	SkyEvent_6_019
// 032   ----------------------------------------
	BYTE		N24     An3   v080
	BYTE	W24
	BYTE	GoTo
	 POIN2	SkyEvent_6_B1
SkyEvent_6_B2:
	BYTE	W24
	BYTE	FINE

//**************** Track 7 (Midi-Chn.7) ****************//

SkyEvent_7:
	BYTE	KEYSH   SkyEvent_key+0
// 000   ----------------------------------------
	BYTE		VOICE   15
	BYTE		VOL     100*SkyEvent_mvl/mxv
	BYTE		PAN     c_v-10
	BYTE		MOD     0
	BYTE	W24
SkyEvent_7_B1:
	BYTE	W72
// 001   ----------------------------------------
	BYTE	W96
// 002   ----------------------------------------
	BYTE	W96
// 003   ----------------------------------------
	BYTE	W96
// 004   ----------------------------------------
	BYTE	W96
// 005   ----------------------------------------
	BYTE	W96
// 006   ----------------------------------------
	BYTE	W96
// 007   ----------------------------------------
	BYTE	W96
// 008   ----------------------------------------
	BYTE	W96
// 009   ----------------------------------------
	BYTE	W96
// 010   ----------------------------------------
	BYTE	W96
// 011   ----------------------------------------
	BYTE	W96
// 012   ----------------------------------------
	BYTE	W96
// 013   ----------------------------------------
	BYTE	W96
// 014   ----------------------------------------
	BYTE	W96
// 015   ----------------------------------------
	BYTE	W96
// 016   ----------------------------------------
	BYTE	W36
	BYTE		N06     Ds3   v080
	BYTE	W36
	BYTE		N06   
	BYTE	W24
// 017   ----------------------------------------
SkyEvent_7_017:
	BYTE	W12
	BYTE		N06     Ds3   v080
	BYTE	W36
	BYTE		N06   
	BYTE	W36
	BYTE		N06   
	BYTE	W12
	BYTE	PEND
// 018   ----------------------------------------
	BYTE		N24     Gn3   v088
	BYTE	W24
	BYTE		N06     Fn3   v080
	BYTE	W12
	BYTE		        Dn3 
	BYTE	W36
	BYTE		N06   
	BYTE	W24
// 019   ----------------------------------------
	BYTE	W12
	BYTE		N06   
	BYTE	W36
	BYTE		N06   
	BYTE	W36
	BYTE		N06   
	BYTE	W12
// 020   ----------------------------------------
	BYTE		N24     Fn3   v088
	BYTE	W24
	BYTE		N06     Fn3   v080
	BYTE	W12
	BYTE		        Cs3 
	BYTE	W36
	BYTE		N06   
	BYTE	W24
// 021   ----------------------------------------
SkyEvent_7_021:
	BYTE	W12
	BYTE		N06     Cs3   v080
	BYTE	W36
	BYTE		N06   
	BYTE	W36
	BYTE		N06   
	BYTE	W12
	BYTE	PEND
// 022   ----------------------------------------
	BYTE		N24     Fn3   v088
	BYTE	W24
	BYTE		N06     Gn3   v080
	BYTE	W12
	BYTE		        Cn3 
	BYTE	W36
	BYTE		N06   
	BYTE	W24
// 023   ----------------------------------------
SkyEvent_7_023:
	BYTE	W12
	BYTE		N06     Cn3   v080
	BYTE	W36
	BYTE		N06   
	BYTE	W36
	BYTE		N06   
	BYTE	W12
	BYTE	PEND
// 024   ----------------------------------------
	BYTE		N24     Ds3   v088
	BYTE	W36
	BYTE		N06     Ds3   v080
	BYTE	W36
	BYTE		N06   
	BYTE	W24
// 025   ----------------------------------------
	BYTE	PATT
	 POIN2	SkyEvent_7_017
// 026   ----------------------------------------
	BYTE		N24     Gs3   v088
	BYTE	W24
	BYTE		N06     Gn3   v080
	BYTE	W12
	BYTE		        Ds3 
	BYTE	W36
	BYTE		N06   
	BYTE	W24
// 027   ----------------------------------------
	BYTE	PATT
	 POIN2	SkyEvent_7_017
// 028   ----------------------------------------
	BYTE		N24     Gn3   v088
	BYTE	W24
	BYTE		N06     Gs3   v080
	BYTE	W12
	BYTE		        Cs3 
	BYTE	W36
	BYTE		N06   
	BYTE	W24
// 029   ----------------------------------------
	BYTE	PATT
	 POIN2	SkyEvent_7_021
// 030   ----------------------------------------
	BYTE		N24     As3   v088
	BYTE	W24
	BYTE		N06     An3   v080
	BYTE	W12
	BYTE		        Cn3 
	BYTE	W36
	BYTE		N06   
	BYTE	W24
// 031   ----------------------------------------
	BYTE	PATT
	 POIN2	SkyEvent_7_023
// 032   ----------------------------------------
	BYTE		N24     Fn3   v088
	BYTE	W24
	BYTE	GoTo
	 POIN2	SkyEvent_7_B1
SkyEvent_7_B2:
	BYTE	W24
	BYTE	FINE

//**************** Track 8 (Midi-Chn.8) ****************//

SkyEvent_8:
	BYTE	KEYSH   SkyEvent_key+0
// 000   ----------------------------------------
	BYTE		VOICE   48
	BYTE		VOL     76*SkyEvent_mvl/mxv
	BYTE		PAN     c_v-30
	BYTE		MOD     0
	BYTE	W24
SkyEvent_8_B1:
	BYTE		PAN     c_v-30
	BYTE		N96     Cs3   v080
	BYTE	W72
// 001   ----------------------------------------
	BYTE	W24
	BYTE		        Ds3 
	BYTE	W72
// 002   ----------------------------------------
	BYTE	W24
	BYTE		N72     Cs3 
	BYTE	W72
// 003   ----------------------------------------
	BYTE		TIE     Cn3 
	BYTE	W96
// 004   ----------------------------------------
	BYTE	W24
	BYTE		EOT   
	BYTE		N96     Cs3 
	BYTE	W72
// 005   ----------------------------------------
	BYTE	W24
	BYTE		        Ds3 
	BYTE	W72
// 006   ----------------------------------------
	BYTE	W24
	BYTE		N72     Cs3 
	BYTE	W72
// 007   ----------------------------------------
	BYTE		        Cn3 
	BYTE	W72
	BYTE		N24     Fn3 
	BYTE	W24
// 008   ----------------------------------------
	BYTE		        Ds3 
	BYTE	W24
	BYTE		N96     Cs3 
	BYTE	W72
// 009   ----------------------------------------
	BYTE	W24
	BYTE		        Ds3 
	BYTE	W72
// 010   ----------------------------------------
	BYTE	W24
	BYTE		N72     Cs3 
	BYTE	W72
// 011   ----------------------------------------
	BYTE		TIE     Cn3 
	BYTE	W96
// 012   ----------------------------------------
	BYTE	W24
	BYTE		EOT   
	BYTE		N96     Cs3 
	BYTE	W72
// 013   ----------------------------------------
	BYTE	W24
	BYTE		        Ds3 
	BYTE	W72
// 014   ----------------------------------------
	BYTE	W24
	BYTE		N72     Cs3 
	BYTE	W72
// 015   ----------------------------------------
	BYTE		        Cn3 
	BYTE	W72
	BYTE		N48     Fn3 
	BYTE	W24
// 016   ----------------------------------------
	BYTE	W24
	BYTE		PAN     c_v-40
	BYTE		N96     Ds3   v088
	BYTE	W72
// 017   ----------------------------------------
	BYTE	W24
	BYTE		        Gn3 
	BYTE	W72
// 018   ----------------------------------------
	BYTE	W24
	BYTE		        Dn3 
	BYTE	W72
// 019   ----------------------------------------
	BYTE	W24
	BYTE		        As3 
	BYTE	W72
// 020   ----------------------------------------
	BYTE	W24
	BYTE		        Fn3 
	BYTE	W72
// 021   ----------------------------------------
	BYTE	W24
	BYTE		        Gs3 
	BYTE	W72
// 022   ----------------------------------------
	BYTE	W24
	BYTE		        Gn3 
	BYTE	W72
// 023   ----------------------------------------
	BYTE	W24
	BYTE		N48     Cn4 
	BYTE	W48
	BYTE		        As3 
	BYTE	W24
// 024   ----------------------------------------
	BYTE	W24
	BYTE		N96     Gs3 
	BYTE	W72
// 025   ----------------------------------------
	BYTE	W24
	BYTE		        Cn4 
	BYTE	W72
// 026   ----------------------------------------
	BYTE	W24
	BYTE		        As3 
	BYTE	W72
// 027   ----------------------------------------
	BYTE	W24
	BYTE		        Gn3 
	BYTE	W72
// 028   ----------------------------------------
	BYTE	W24
	BYTE		        Fs3 
	BYTE	W72
// 029   ----------------------------------------
	BYTE	W24
	BYTE		        As3 
	BYTE	W72
// 030   ----------------------------------------
	BYTE	W24
	BYTE		        An3 
	BYTE	W72
// 031   ----------------------------------------
	BYTE	W24
	BYTE		        Cn4 
	BYTE	W72
// 032   ----------------------------------------
	BYTE	W24
	BYTE	GoTo
	 POIN2	SkyEvent_8_B1
SkyEvent_8_B2:
	BYTE	W24
	BYTE	FINE

//**************** Track 9 (Midi-Chn.9) ****************//

SkyEvent_9:
	BYTE	KEYSH   SkyEvent_key+0
// 000   ----------------------------------------
	BYTE		VOICE   49
	BYTE		VOL     76*SkyEvent_mvl/mxv
	BYTE		PAN     c_v+0
	BYTE		MOD     0
	BYTE	W24
SkyEvent_9_B1:
	BYTE		N96     As2   v092
	BYTE	W72
// 001   ----------------------------------------
	BYTE	W24
	BYTE		N96   
	BYTE	W72
// 002   ----------------------------------------
	BYTE	W24
	BYTE		N72   
	BYTE	W72
// 003   ----------------------------------------
	BYTE		TIE     Gs2 
	BYTE	W96
// 004   ----------------------------------------
	BYTE	W24
	BYTE		EOT   
	BYTE		N96     As2 
	BYTE	W72
// 005   ----------------------------------------
	BYTE	W24
	BYTE		N96   
	BYTE	W72
// 006   ----------------------------------------
	BYTE	W24
	BYTE		N72   
	BYTE	W72
// 007   ----------------------------------------
	BYTE		N72   
	BYTE	W72
	BYTE		N24     An2 
	BYTE	W24
// 008   ----------------------------------------
	BYTE		        Cn3 
	BYTE	W24
	BYTE		N96     As2 
	BYTE	W72
// 009   ----------------------------------------
	BYTE	W24
	BYTE		N96   
	BYTE	W72
// 010   ----------------------------------------
	BYTE	W24
	BYTE		N72   
	BYTE	W72
// 011   ----------------------------------------
	BYTE		TIE     Gs2 
	BYTE	W96
// 012   ----------------------------------------
	BYTE	W24
	BYTE		EOT   
	BYTE		N96     As2 
	BYTE	W72
// 013   ----------------------------------------
	BYTE	W24
	BYTE		N96   
	BYTE	W72
// 014   ----------------------------------------
	BYTE	W24
	BYTE		N72   
	BYTE	W72
// 015   ----------------------------------------
	BYTE		N72   
	BYTE	W72
	BYTE		N48     An2 
	BYTE	W24
// 016   ----------------------------------------
	BYTE	W24
	BYTE		N96     As2   v096
	BYTE	W72
// 017   ----------------------------------------
	BYTE	W24
	BYTE		N96   
	BYTE	W72
// 018   ----------------------------------------
	BYTE	W24
	BYTE		N96   
	BYTE	W72
// 019   ----------------------------------------
	BYTE	W24
	BYTE		        Dn3 
	BYTE	W72
// 020   ----------------------------------------
	BYTE	W24
	BYTE		        Cs3 
	BYTE	W72
// 021   ----------------------------------------
	BYTE	W24
	BYTE		N96   
	BYTE	W72
// 022   ----------------------------------------
	BYTE	W24
	BYTE		        Cn3 
	BYTE	W72
// 023   ----------------------------------------
	BYTE	W24
	BYTE		N48     Ds3 
	BYTE	W48
	BYTE		        Dn3 
	BYTE	W24
// 024   ----------------------------------------
	BYTE	W24
	BYTE		N96     Cn3 
	BYTE	W72
// 025   ----------------------------------------
	BYTE	W24
	BYTE		        Ds3 
	BYTE	W72
// 026   ----------------------------------------
	BYTE	W24
	BYTE		N96   
	BYTE	W72
// 027   ----------------------------------------
	BYTE	W24
	BYTE		        As2 
	BYTE	W72
// 028   ----------------------------------------
	BYTE	W24
	BYTE		        Cs3 
	BYTE	W72
// 029   ----------------------------------------
	BYTE	W24
	BYTE		N96   
	BYTE	W72
// 030   ----------------------------------------
	BYTE	W24
	BYTE		        Cn3 
	BYTE	W72
// 031   ----------------------------------------
	BYTE	W24
	BYTE		        Fn3 
	BYTE	W72
// 032   ----------------------------------------
	BYTE	W24
	BYTE	GoTo
	 POIN2	SkyEvent_9_B1
SkyEvent_9_B2:
	BYTE	W24
	BYTE	FINE

//**************** Track 10 (Midi-Chn.11) ****************//

SkyEvent_10:
	BYTE	KEYSH   SkyEvent_key+0
// 000   ----------------------------------------
	BYTE		VOICE   41
	BYTE		VOL     76*SkyEvent_mvl/mxv
	BYTE		PAN     c_v+30
	BYTE		MOD     0
	BYTE	W24
SkyEvent_10_B1:
	BYTE		PAN     c_v+30
	BYTE		N96     Fn2   v096
	BYTE	W72
// 001   ----------------------------------------
	BYTE	W24
	BYTE		        Gn2 
	BYTE	W72
// 002   ----------------------------------------
	BYTE	W24
	BYTE		N72     Fn2 
	BYTE	W72
// 003   ----------------------------------------
	BYTE		TIE     Ds2 
	BYTE	W96
// 004   ----------------------------------------
	BYTE	W24
	BYTE		EOT   
	BYTE		N96     Fn2 
	BYTE	W72
// 005   ----------------------------------------
	BYTE	W24
	BYTE		        Gn2 
	BYTE	W72
// 006   ----------------------------------------
	BYTE	W24
	BYTE		N72     Ds2 
	BYTE	W72
// 007   ----------------------------------------
	BYTE		        Fn2 
	BYTE	W72
	BYTE		N48   
	BYTE	W24
// 008   ----------------------------------------
	BYTE	W24
	BYTE		N96   
	BYTE	W72
// 009   ----------------------------------------
	BYTE	W24
	BYTE		        Gn2 
	BYTE	W72
// 010   ----------------------------------------
	BYTE	W24
	BYTE		N72     Fn2 
	BYTE	W72
// 011   ----------------------------------------
	BYTE		TIE     Ds2 
	BYTE	W96
// 012   ----------------------------------------
	BYTE	W24
	BYTE		EOT   
	BYTE		N96     Fn2 
	BYTE	W72
// 013   ----------------------------------------
	BYTE	W24
	BYTE		        Gn2 
	BYTE	W72
// 014   ----------------------------------------
	BYTE	W24
	BYTE		N72     Ds2 
	BYTE	W72
// 015   ----------------------------------------
	BYTE		TIE     Fn2 
	BYTE	W96
// 016   ----------------------------------------
	BYTE	W24
	BYTE		EOT   
	BYTE		PAN     c_v+40
	BYTE		N96     Gn2   v100
	BYTE	W72
// 017   ----------------------------------------
	BYTE	W24
	BYTE		        Ds2 
	BYTE	W72
// 018   ----------------------------------------
	BYTE	W24
	BYTE		        Gn2 
	BYTE	W72
// 019   ----------------------------------------
	BYTE	W24
	BYTE		        Fn2 
	BYTE	W72
// 020   ----------------------------------------
	BYTE	W24
	BYTE		        Gs2 
	BYTE	W72
// 021   ----------------------------------------
	BYTE	W24
	BYTE		        Fn2 
	BYTE	W72
// 022   ----------------------------------------
	BYTE	W24
	BYTE		        Ds2 
	BYTE	W72
// 023   ----------------------------------------
	BYTE	W24
	BYTE		N48     Gn2 
	BYTE	W48
	BYTE		N48   
	BYTE	W24
// 024   ----------------------------------------
	BYTE	W24
	BYTE		N96     Ds2 
	BYTE	W72
// 025   ----------------------------------------
	BYTE	W24
	BYTE		        Gs2 
	BYTE	W72
// 026   ----------------------------------------
	BYTE	W24
	BYTE		        Gn2 
	BYTE	W72
// 027   ----------------------------------------
	BYTE	W24
	BYTE		        Ds2 
	BYTE	W72
// 028   ----------------------------------------
	BYTE	W24
	BYTE		        As2 
	BYTE	W72
// 029   ----------------------------------------
	BYTE	W24
	BYTE		        Fs2 
	BYTE	W72
// 030   ----------------------------------------
	BYTE	W24
	BYTE		        Fn2 
	BYTE	W72
// 031   ----------------------------------------
	BYTE	W24
	BYTE		        An2 
	BYTE	W72
// 032   ----------------------------------------
	BYTE	W24
	BYTE	GoTo
	 POIN2	SkyEvent_10_B1
SkyEvent_10_B2:
	BYTE	W24
	BYTE	FINE

//**************** Track 11 (Midi-Chn.12) ****************//

SkyEvent_11:
	BYTE	KEYSH   SkyEvent_key+0
// 000   ----------------------------------------
	BYTE		VOICE   127
	BYTE		VOL     99*SkyEvent_mvl/mxv
	BYTE		PAN     c_v+0
	BYTE		MOD     0
	BYTE		N12     Dn1   v100
	BYTE	W24
SkyEvent_11_B1:
	BYTE	W24
	BYTE		N12     Dn1   v100
	BYTE	W48
// 001   ----------------------------------------
SkyEvent_11_001:
	BYTE		N12     Dn1   v100
	BYTE	W48
	BYTE		N12   
	BYTE	W48
	BYTE	PEND
// 002   ----------------------------------------
	BYTE	PATT
	 POIN2	SkyEvent_11_001
// 003   ----------------------------------------
	BYTE	PATT
	 POIN2	SkyEvent_11_001
// 004   ----------------------------------------
	BYTE	PATT
	 POIN2	SkyEvent_11_001
// 005   ----------------------------------------
	BYTE	PATT
	 POIN2	SkyEvent_11_001
// 006   ----------------------------------------
	BYTE	PATT
	 POIN2	SkyEvent_11_001
// 007   ----------------------------------------
	BYTE	PATT
	 POIN2	SkyEvent_11_001
// 008   ----------------------------------------
	BYTE	PATT
	 POIN2	SkyEvent_11_001
// 009   ----------------------------------------
	BYTE	PATT
	 POIN2	SkyEvent_11_001
// 010   ----------------------------------------
	BYTE	PATT
	 POIN2	SkyEvent_11_001
// 011   ----------------------------------------
	BYTE	PATT
	 POIN2	SkyEvent_11_001
// 012   ----------------------------------------
	BYTE	PATT
	 POIN2	SkyEvent_11_001
// 013   ----------------------------------------
	BYTE	PATT
	 POIN2	SkyEvent_11_001
// 014   ----------------------------------------
	BYTE	PATT
	 POIN2	SkyEvent_11_001
// 015   ----------------------------------------
	BYTE	PATT
	 POIN2	SkyEvent_11_001
// 016   ----------------------------------------
	BYTE	PATT
	 POIN2	SkyEvent_11_001
// 017   ----------------------------------------
	BYTE	PATT
	 POIN2	SkyEvent_11_001
// 018   ----------------------------------------
	BYTE	PATT
	 POIN2	SkyEvent_11_001
// 019   ----------------------------------------
	BYTE	PATT
	 POIN2	SkyEvent_11_001
// 020   ----------------------------------------
	BYTE	PATT
	 POIN2	SkyEvent_11_001
// 021   ----------------------------------------
	BYTE	PATT
	 POIN2	SkyEvent_11_001
// 022   ----------------------------------------
	BYTE	PATT
	 POIN2	SkyEvent_11_001
// 023   ----------------------------------------
	BYTE	PATT
	 POIN2	SkyEvent_11_001
// 024   ----------------------------------------
	BYTE	PATT
	 POIN2	SkyEvent_11_001
// 025   ----------------------------------------
	BYTE	PATT
	 POIN2	SkyEvent_11_001
// 026   ----------------------------------------
	BYTE	PATT
	 POIN2	SkyEvent_11_001
// 027   ----------------------------------------
	BYTE	PATT
	 POIN2	SkyEvent_11_001
// 028   ----------------------------------------
	BYTE	PATT
	 POIN2	SkyEvent_11_001
// 029   ----------------------------------------
	BYTE	PATT
	 POIN2	SkyEvent_11_001
// 030   ----------------------------------------
	BYTE	PATT
	 POIN2	SkyEvent_11_001
// 031   ----------------------------------------
	BYTE		N12     Dn1   v100
	BYTE	W24
	BYTE		N12   
	BYTE	W36
	BYTE		N12   
	BYTE	W36
// 032   ----------------------------------------
	BYTE		N12   
	BYTE	W24
	BYTE	GoTo
	 POIN2	SkyEvent_11_B1
SkyEvent_11_B2:
	BYTE	W24
	BYTE	FINE

//**************** Track 12 (Midi-Chn.13) ****************//

SkyEvent_12:
	BYTE	KEYSH   SkyEvent_key+0
// 000   ----------------------------------------
	BYTE		VOICE   127
	BYTE		VOL     99*SkyEvent_mvl/mxv
	BYTE		PAN     c_v+0
	BYTE		MOD     0
	BYTE		N24     Gn2   v072
	BYTE	W24
SkyEvent_12_B1:
	BYTE		N24     Cs2   v072
	BYTE	W72
// 001   ----------------------------------------
	BYTE	W96
// 002   ----------------------------------------
	BYTE	W96
// 003   ----------------------------------------
	BYTE		        Gn2 
	BYTE	W96
// 004   ----------------------------------------
	BYTE	W12
	BYTE		N12     As1   v048
	BYTE	W84
// 005   ----------------------------------------
	BYTE	W96
// 006   ----------------------------------------
	BYTE	W12
	BYTE		N12   
	BYTE	W84
// 007   ----------------------------------------
	BYTE		N24     Gn2   v072
	BYTE	W96
// 008   ----------------------------------------
	BYTE	W24
	BYTE		        Cs2 
	BYTE	W72
// 009   ----------------------------------------
	BYTE	W96
// 010   ----------------------------------------
	BYTE	W96
// 011   ----------------------------------------
	BYTE		        Gn2 
	BYTE	W96
// 012   ----------------------------------------
	BYTE	W12
	BYTE		N12     As1   v048
	BYTE	W84
// 013   ----------------------------------------
	BYTE	W96
// 014   ----------------------------------------
	BYTE	W12
	BYTE		N12   
	BYTE	W84
// 015   ----------------------------------------
	BYTE		N24     Gn2   v072
	BYTE	W96
// 016   ----------------------------------------
	BYTE	W24
	BYTE		        Cs2 
	BYTE	W72
// 017   ----------------------------------------
	BYTE	W96
// 018   ----------------------------------------
	BYTE	W96
// 019   ----------------------------------------
	BYTE	W96
// 020   ----------------------------------------
	BYTE	W12
	BYTE		N12     As1   v048
	BYTE	W84
// 021   ----------------------------------------
	BYTE	W96
// 022   ----------------------------------------
	BYTE	W96
// 023   ----------------------------------------
	BYTE	W96
// 024   ----------------------------------------
	BYTE		N24     Gn2   v080
	BYTE	W12
	BYTE		N12     As1   v048
	BYTE	W12
	BYTE		N24     Cs2   v080
	BYTE	W72
// 025   ----------------------------------------
	BYTE	W96
// 026   ----------------------------------------
	BYTE	W96
// 027   ----------------------------------------
	BYTE	W96
// 028   ----------------------------------------
	BYTE	W12
	BYTE		N12     As1   v048
	BYTE	W84
// 029   ----------------------------------------
	BYTE	W96
// 030   ----------------------------------------
	BYTE	W12
	BYTE		N12   
	BYTE	W84
// 031   ----------------------------------------
	BYTE	W24
	BYTE		N24     As1   v060
	BYTE	W36
	BYTE		N24   
	BYTE	W36
// 032   ----------------------------------------
	BYTE		N24   
	BYTE	W24
	BYTE	GoTo
	 POIN2	SkyEvent_12_B1
SkyEvent_12_B2:
	BYTE	W24
	BYTE	FINE

//**************** Track 13 (Midi-Chn.14) ****************//

SkyEvent_13:
	BYTE	KEYSH   SkyEvent_key+0
// 000   ----------------------------------------
	BYTE		VOICE   1
	BYTE		VOL     127*SkyEvent_mvl/mxv
	BYTE		PAN     c_v+20
	BYTE		MOD     0
	BYTE	W24
SkyEvent_13_B1:
	BYTE		N11     Cs3   v108
	BYTE	W12
	BYTE		        Ds3 
	BYTE	W12
	BYTE		        Fn3 
	BYTE	W12
	BYTE		        Cs3   v060
	BYTE		N11     As3   v108
	BYTE	W36
// 001   ----------------------------------------
SkyEvent_13_001:
	BYTE		N23     Fn3   v108
	BYTE	W24
	BYTE		N11     Ds3   v068
	BYTE		N11     Gn3   v108
	BYTE	W44
	BYTE	W02
	BYTE		N02     Fn3 
	BYTE	W02
	BYTE		N11     Gn3 
	BYTE	W12
	BYTE		        Fn3 
	BYTE	W12
	BYTE	PEND
// 002   ----------------------------------------
	BYTE		N23     Ds3 
	BYTE	W24
	BYTE		N11     Cs3 
	BYTE	W12
	BYTE		        Ds3 
	BYTE	W12
	BYTE		        Fn3 
	BYTE	W12
	BYTE		        Cs3   v060
	BYTE		N11     As3   v108
	BYTE	W32
	BYTE	W02
	BYTE		N02     Bn3 
	BYTE	W02
// 003   ----------------------------------------
	BYTE		N68     Gn3   v072
	BYTE		N68     Cn4   v108
	BYTE	W96
// 004   ----------------------------------------
	BYTE	W24
	BYTE		N11     Cs3 
	BYTE	W12
	BYTE		        Ds3 
	BYTE	W12
	BYTE		        Fn3 
	BYTE	W12
	BYTE		        Cs3   v060
	BYTE		N11     As3   v108
	BYTE	W36
// 005   ----------------------------------------
	BYTE	PATT
	 POIN2	SkyEvent_13_001
// 006   ----------------------------------------
	BYTE		N23     Ds3   v108
	BYTE	W24
	BYTE		N11     Cs3 
	BYTE	W12
	BYTE		        Ds3 
	BYTE	W12
	BYTE		        Fn3 
	BYTE	W12
	BYTE		        Cs3   v060
	BYTE		N11     As3   v108
	BYTE	W32
	BYTE	W02
	BYTE		N02     Cs4 
	BYTE	W02
// 007   ----------------------------------------
	BYTE		N68     As3   v072
	BYTE		N68     Ds4   v108
	BYTE	W72
	BYTE		N44     An3   v072
	BYTE		N44     Cn4   v108
	BYTE	W24
// 008   ----------------------------------------
SkyEvent_13_008:
	BYTE	W24
	BYTE		N11     As3   v076
	BYTE		N11     Cs4   v088
	BYTE	W12
	BYTE		        Cn4   v076
	BYTE		N11     Ds4   v088
	BYTE	W12
	BYTE		        Cs4   v076
	BYTE		N11     Fn4   v088
	BYTE	W12
	BYTE		        Fn4   v076
	BYTE		N11     As4   v088
	BYTE	W36
	BYTE	PEND
// 009   ----------------------------------------
SkyEvent_13_009:
	BYTE		N23     Cs4   v076
	BYTE		N23     Fn4   v088
	BYTE	W24
	BYTE		N11     Ds4   v076
	BYTE		N11     Gn4   v088
	BYTE	W44
	BYTE	W02
	BYTE		N02     Fs4 
	BYTE	W02
	BYTE		N11     Ds4   v076
	BYTE		N11     Gn4   v088
	BYTE	W12
	BYTE		        Cs4   v076
	BYTE		N11     Fn4   v088
	BYTE	W12
	BYTE	PEND
// 010   ----------------------------------------
	BYTE		N23     Cn4   v076
	BYTE		N23     Ds4   v088
	BYTE	W24
	BYTE		N11     As3   v076
	BYTE		N11     Cs4   v088
	BYTE	W12
	BYTE		        Cn4   v076
	BYTE		N11     Ds4   v088
	BYTE	W12
	BYTE		        Cs4   v076
	BYTE		N11     Fn4   v088
	BYTE	W12
	BYTE		        Fn4   v076
	BYTE		N11     As4   v088
	BYTE	W32
	BYTE	W02
	BYTE		N02     Bn4 
	BYTE	W02
// 011   ----------------------------------------
	BYTE		N68     Gn4   v076
	BYTE		N68     Cn5   v088
	BYTE	W96
// 012   ----------------------------------------
	BYTE	PATT
	 POIN2	SkyEvent_13_008
// 013   ----------------------------------------
	BYTE	PATT
	 POIN2	SkyEvent_13_009
// 014   ----------------------------------------
	BYTE		N23     Cn4   v076
	BYTE		N23     Ds4   v088
	BYTE	W24
	BYTE		N11     As3   v076
	BYTE		N11     Cs4   v088
	BYTE	W12
	BYTE		        Cn4   v076
	BYTE		N11     Ds4   v088
	BYTE	W12
	BYTE		        Cs4   v076
	BYTE		N11     Fn4   v088
	BYTE	W12
	BYTE		        Fn4   v076
	BYTE		N11     As4   v088
	BYTE	W32
	BYTE	W02
	BYTE		N02     Dn5 
	BYTE	W02
// 015   ----------------------------------------
	BYTE		N68     Gn4   v076
	BYTE		N68     Ds5   v088
	BYTE	W72
	BYTE		N44     Cn5 
	BYTE	W24
// 016   ----------------------------------------
	BYTE	W22
	BYTE		N02     En4   v060
	BYTE	W02
	BYTE		N48     Fn4   v072
	BYTE	W48
	BYTE		N44     Ds4 
	BYTE	W24
// 017   ----------------------------------------
	BYTE	W22
	BYTE		N02     Cs4   v060
	BYTE	W02
	BYTE		N48     Dn4   v072
	BYTE	W48
	BYTE		N42     Cn4 
	BYTE	W24
// 018   ----------------------------------------
	BYTE	W22
	BYTE		N02     Cn4   v060
	BYTE	W02
	BYTE		N24     Dn4   v072
	BYTE	W24
	BYTE		N06     As3 
	BYTE	W12
	BYTE		N12   
	BYTE	W22
	BYTE		N02     Bn3   v060
	BYTE	W02
	BYTE		N12     Cn4   v072
	BYTE	W12
// 019   ----------------------------------------
	BYTE		N36     As3 
	BYTE	W48
	BYTE		N12   
	BYTE	W12
	BYTE		        An3 
	BYTE	W12
	BYTE		        As3 
	BYTE	W12
	BYTE		        Cn4 
	BYTE	W12
// 020   ----------------------------------------
	BYTE		        Dn4 
	BYTE	W12
	BYTE		        Ds4 
	BYTE	W12
	BYTE		N48     Fn4 
	BYTE	W72
// 021   ----------------------------------------
	BYTE		N12   
	BYTE	W12
	BYTE		        Gn4 
	BYTE	W12
	BYTE		N24     Gs4 
	BYTE	W48
	BYTE		N12   
	BYTE	W12
	BYTE		        As4 
	BYTE	W12
// 022   ----------------------------------------
	BYTE		        Cn5 
	BYTE	W12
	BYTE		        Cs5 
	BYTE	W12
	BYTE		N36     Ds5 
	BYTE	W42
	BYTE		N02     Cn5   v060
	BYTE	W03
	BYTE		        Cs5 
	BYTE	W03
	BYTE		N36     Dn5   v072
	BYTE	W24
// 023   ----------------------------------------
	BYTE	W18
	BYTE		N02     As4   v060
	BYTE	W03
	BYTE		        Bn4 
	BYTE	W03
	BYTE		N48     Cn5   v072
	BYTE	W72
// 024   ----------------------------------------
	BYTE	W22
	BYTE		N02     Bn4   v060
	BYTE	W02
	BYTE		N48     Cn5   v072
	BYTE	W48
	BYTE		N44     As4 
	BYTE	W24
// 025   ----------------------------------------
	BYTE	W22
	BYTE		N02     Gn4   v060
	BYTE	W02
	BYTE		N48     Gs4   v072
	BYTE	W48
	BYTE		        Cn5 
	BYTE	W24
// 026   ----------------------------------------
	BYTE	W24
	BYTE		N24     As4 
	BYTE	W24
	BYTE		N12     Ds4 
	BYTE	W12
	BYTE		N12   
	BYTE	W22
	BYTE		N02     Ds4   v060
	BYTE	W02
	BYTE		N12     Fn4   v072
	BYTE	W12
// 027   ----------------------------------------
	BYTE		N42     Ds4 
	BYTE	W48
	BYTE		N12   
	BYTE	W12
	BYTE		        Fn4 
	BYTE	W12
	BYTE		        Gn4 
	BYTE	W12
	BYTE		        Gs4 
	BYTE	W12
// 028   ----------------------------------------
	BYTE		        As4 
	BYTE	W12
	BYTE		        Cn5 
	BYTE	W12
	BYTE		N48     Cs5 
	BYTE	W72
// 029   ----------------------------------------
	BYTE		N12     As4 
	BYTE	W12
	BYTE		        Cn5 
	BYTE	W12
	BYTE		N24     Cs5 
	BYTE	W48
	BYTE		N12     Fs4 
	BYTE	W12
	BYTE		        Gs4 
	BYTE	W12
// 030   ----------------------------------------
	BYTE		        As4 
	BYTE	W12
	BYTE		        Fs4 
	BYTE	W12
	BYTE		N36     Fn4 
	BYTE	W36
	BYTE		N11     Cn4 
	BYTE	W12
	BYTE		N36   
	BYTE	W24
// 031   ----------------------------------------
	BYTE	W12
	BYTE		N11     Cn5 
	BYTE	W12
	BYTE		N48   
	BYTE	W72
// 032   ----------------------------------------
	BYTE	W24
	BYTE	GoTo
	 POIN2	SkyEvent_13_B1
SkyEvent_13_B2:
	BYTE	W24
	BYTE	FINE

//**************** Track 14 (Midi-Chn.15) ****************//

SkyEvent_14:
	BYTE	KEYSH   SkyEvent_key+0
// 000   ----------------------------------------
	BYTE		VOICE   103
	BYTE		VOL     85*SkyEvent_mvl/mxv
	BYTE		PAN     c_v-30
	BYTE		MOD     0
	BYTE	W24
SkyEvent_14_B1:
	BYTE	W72
// 001   ----------------------------------------
	BYTE	W96
// 002   ----------------------------------------
	BYTE	W96
// 003   ----------------------------------------
	BYTE	W96
// 004   ----------------------------------------
	BYTE	W96
// 005   ----------------------------------------
	BYTE	W96
// 006   ----------------------------------------
	BYTE	W96
// 007   ----------------------------------------
	BYTE	W96
// 008   ----------------------------------------
	BYTE	W96
// 009   ----------------------------------------
	BYTE	W96
// 010   ----------------------------------------
	BYTE	W96
// 011   ----------------------------------------
	BYTE	W96
// 012   ----------------------------------------
	BYTE	W96
// 013   ----------------------------------------
	BYTE	W96
// 014   ----------------------------------------
	BYTE	W96
// 015   ----------------------------------------
	BYTE	W92
	BYTE		N04     Fn2   v004
	BYTE	W04
// 016   ----------------------------------------
	BYTE		        Gn2   v008
	BYTE	W04
	BYTE		        An2   v012
	BYTE	W04
	BYTE		        As2   v016
	BYTE	W04
	BYTE		        Cn3   v020
	BYTE	W04
	BYTE		        Dn3   v024
	BYTE	W04
	BYTE		        Ds3 
	BYTE	W04
	BYTE		        Fn3   v028
	BYTE	W04
	BYTE		        Gn3   v032
	BYTE	W04
	BYTE		        An3   v036
	BYTE	W04
	BYTE		BEND    c_v-32
	BYTE		N72     As3 
	BYTE	W03
	BYTE		BEND    c_v+0
	BYTE	W09
	BYTE		MOD     20
	BYTE	W18
	BYTE		        25
	BYTE	W18
	BYTE		        30
	BYTE	W12
// 017   ----------------------------------------
	BYTE	W12
	BYTE		        0
	BYTE		N12     Gn3 
	BYTE	W12
	BYTE		        An3 
	BYTE	W12
	BYTE		BEND    c_v-32
	BYTE		N24     As3 
	BYTE	W03
	BYTE		BEND    c_v+0
	BYTE	W03
	BYTE		MOD     20
	BYTE	W18
	BYTE		        0
	BYTE		N12     Gn3 
	BYTE	W12
	BYTE		        An3 
	BYTE	W12
	BYTE		        As3 
	BYTE	W12
// 018   ----------------------------------------
	BYTE		        An3 
	BYTE	W12
	BYTE		        As3 
	BYTE	W12
	BYTE		        Cn4 
	BYTE	W12
	BYTE		BEND    c_v-32
	BYTE		N24     As3 
	BYTE	W03
	BYTE		BEND    c_v-16
	BYTE	W03
	BYTE		MOD     20
	BYTE		BEND    c_v+0
	BYTE	W18
	BYTE		MOD     0
	BYTE		N12     Fn3 
	BYTE	W12
	BYTE		N24   
	BYTE	W06
	BYTE		MOD     20
	BYTE	W18
// 019   ----------------------------------------
	BYTE		        0
	BYTE		BEND    c_v-32
	BYTE		N12     Ds3 
	BYTE	W03
	BYTE		BEND    c_v+0
	BYTE	W09
	BYTE		N72     Dn3 
	BYTE	W12
	BYTE		MOD     20
	BYTE	W18
	BYTE		        25
	BYTE	W18
	BYTE		        30
	BYTE	W24
	BYTE		        0
	BYTE		N12   
	BYTE	W12
// 020   ----------------------------------------
	BYTE		        Ds3 
	BYTE	W12
	BYTE		        Fn3 
	BYTE	W12
	BYTE		        Gn3 
	BYTE	W12
	BYTE		BEND    c_v-32
	BYTE		N24     Gs3 
	BYTE	W03
	BYTE		BEND    c_v-16
	BYTE	W03
	BYTE		MOD     20
	BYTE		BEND    c_v+0
	BYTE	W18
	BYTE		MOD     0
	BYTE		N12     Cs3 
	BYTE	W12
	BYTE		N24   
	BYTE	W06
	BYTE		MOD     20
	BYTE	W18
// 021   ----------------------------------------
	BYTE		        0
	BYTE		BEND    c_v-32
	BYTE		N12     Ds3 
	BYTE	W03
	BYTE		BEND    c_v+0
	BYTE	W09
	BYTE		N48     Cs3 
	BYTE	W12
	BYTE		MOD     20
	BYTE	W12
	BYTE		        25
	BYTE	W12
	BYTE		        30
	BYTE	W12
	BYTE		        0
	BYTE		N12   
	BYTE	W12
	BYTE		        Ds3 
	BYTE	W12
	BYTE		        Fn3 
	BYTE	W12
// 022   ----------------------------------------
	BYTE		        Gn3 
	BYTE	W12
	BYTE		        Gs3 
	BYTE	W12
	BYTE		        Fn3 
	BYTE	W12
	BYTE		BEND    c_v-32
	BYTE		N96     Gn3 
	BYTE	W03
	BYTE		BEND    c_v-16
	BYTE	W03
	BYTE		        c_v+0
	BYTE	W06
	BYTE		MOD     20
	BYTE	W18
	BYTE		        25
	BYTE	W18
	BYTE		        30
	BYTE	W12
// 023   ----------------------------------------
	BYTE	W12
	BYTE		        35
	BYTE	W24
	BYTE		        0
	BYTE		BEND    c_v-32
	BYTE		N12     Cn4 
	BYTE	W03
	BYTE		BEND    c_v+0
	BYTE	W09
	BYTE		N12     Ds3 
	BYTE	W12
	BYTE		        Gn3 
	BYTE	W12
	BYTE		        Cn4 
	BYTE	W12
	BYTE		BEND    c_v-32
	BYTE		N12     Dn4 
	BYTE	W03
	BYTE		BEND    c_v+0
	BYTE	W09
// 024   ----------------------------------------
	BYTE		N12     Ds3 
	BYTE	W12
	BYTE		        Gn3 
	BYTE	W12
	BYTE		        Dn4 
	BYTE	W12
	BYTE		BEND    c_v-32
	BYTE		N72     Ds4 
	BYTE	W03
	BYTE		BEND    c_v+0
	BYTE	W09
	BYTE		MOD     20
	BYTE	W18
	BYTE		        25
	BYTE	W18
	BYTE		        30
	BYTE	W12
// 025   ----------------------------------------
	BYTE	W12
	BYTE		        0
	BYTE		N12     Cn4 
	BYTE	W12
	BYTE		        Dn4 
	BYTE	W12
	BYTE		BEND    c_v-32
	BYTE		N24     Ds4 
	BYTE	W03
	BYTE		BEND    c_v+0
	BYTE	W03
	BYTE		MOD     20
	BYTE	W18
	BYTE		        0
	BYTE		N12     Cn4 
	BYTE	W12
	BYTE		        Dn4 
	BYTE	W12
	BYTE		        Ds4 
	BYTE	W12
// 026   ----------------------------------------
	BYTE		        Dn4 
	BYTE	W12
	BYTE		        Ds4 
	BYTE	W12
	BYTE		BEND    c_v-32
	BYTE		N12     Fn4 
	BYTE	W03
	BYTE		BEND    c_v-2
	BYTE	W09
	BYTE		N24     Ds4 
	BYTE	W06
	BYTE		MOD     20
	BYTE	W18
	BYTE		        0
	BYTE		N12     As3 
	BYTE	W12
	BYTE		N24   
	BYTE	W24
// 027   ----------------------------------------
	BYTE		BEND    c_v-32
	BYTE		N12     Gs3 
	BYTE	W03
	BYTE		BEND    c_v+0
	BYTE	W09
	BYTE		N72     Gn3 
	BYTE	W12
	BYTE		MOD     20
	BYTE	W18
	BYTE		        25
	BYTE	W18
	BYTE		        30
	BYTE	W24
	BYTE		        0
	BYTE		N12     Ds3 
	BYTE	W12
// 028   ----------------------------------------
	BYTE		        Fn3 
	BYTE	W12
	BYTE		        Gn3 
	BYTE	W12
	BYTE		        Gs3 
	BYTE	W12
	BYTE		BEND    c_v-32
	BYTE		N24     As3 
	BYTE	W03
	BYTE		BEND    c_v-16
	BYTE	W03
	BYTE		MOD     20
	BYTE		BEND    c_v+0
	BYTE	W18
	BYTE		MOD     0
	BYTE		N12     Cs3 
	BYTE	W12
	BYTE		N24   
	BYTE	W06
	BYTE		MOD     20
	BYTE	W18
// 029   ----------------------------------------
	BYTE		        0
	BYTE		BEND    c_v-32
	BYTE		N12     Ds3 
	BYTE	W03
	BYTE		BEND    c_v+0
	BYTE	W09
	BYTE		N48     Cs3 
	BYTE	W12
	BYTE		MOD     20
	BYTE	W12
	BYTE		        25
	BYTE	W12
	BYTE		        30
	BYTE	W12
	BYTE		        0
	BYTE		N12     Fs3 
	BYTE	W12
	BYTE		        Gs3 
	BYTE	W12
	BYTE		        As3 
	BYTE	W12
// 030   ----------------------------------------
	BYTE		        Cn4 
	BYTE	W12
	BYTE		        Cs4 
	BYTE	W12
	BYTE		        As3 
	BYTE	W12
	BYTE		BEND    c_v-32
	BYTE		N84     Cn4 
	BYTE	W03
	BYTE		BEND    c_v-16
	BYTE	W03
	BYTE		        c_v+0
	BYTE	W06
	BYTE		MOD     20
	BYTE	W18
	BYTE		        25
	BYTE	W18
	BYTE		        30
	BYTE	W12
// 031   ----------------------------------------
	BYTE	W06
	BYTE		        35
	BYTE	W18
	BYTE		        0
	BYTE		N06     An3 
	BYTE	W06
	BYTE		        Cn4 
	BYTE	W06
	BYTE		N48     Fn4 
	BYTE	W12
	BYTE		MOD     20
	BYTE	W12
	BYTE		        25
	BYTE	W12
	BYTE		        30
	BYTE	W12
	BYTE		        0
	BYTE	W12
// 032   ----------------------------------------
	BYTE	W24
	BYTE	GoTo
	 POIN2	SkyEvent_14_B1
SkyEvent_14_B2:
	BYTE	W24
	BYTE	FINE

//**************** Track 15 (Midi-Chn.16) ****************//

SkyEvent_15:
	BYTE	KEYSH   SkyEvent_key+0
// 000   ----------------------------------------
	BYTE		VOICE   127
	BYTE		VOL     100*SkyEvent_mvl/mxv
	BYTE		PAN     c_v+0
	BYTE		MOD     0
	BYTE	W24
SkyEvent_15_B1:
	BYTE	W12
	BYTE		N06     Fs1   v060
	BYTE	W12
	BYTE		        Fs1   v040
	BYTE	W12
	BYTE		        Fs1   v060
	BYTE	W12
	BYTE		        Fs1   v040
	BYTE	W12
	BYTE		        Fs1   v060
	BYTE	W12
// 001   ----------------------------------------
SkyEvent_15_001:
	BYTE		N06     Fs1   v040
	BYTE	W12
	BYTE		        Fs1   v060
	BYTE	W12
	BYTE		        Fs1   v040
	BYTE	W12
	BYTE		        Fs1   v060
	BYTE	W12
	BYTE		        Fs1   v040
	BYTE	W12
	BYTE		        Fs1   v060
	BYTE	W12
	BYTE		        Fs1   v040
	BYTE	W12
	BYTE		        Fs1   v060
	BYTE	W12
	BYTE	PEND
// 002   ----------------------------------------
	BYTE	PATT
	 POIN2	SkyEvent_15_001
// 003   ----------------------------------------
SkyEvent_15_003:
	BYTE	W12
	BYTE		N06     Fs1   v060
	BYTE	W12
	BYTE		        Fs1   v040
	BYTE	W12
	BYTE		        Fs1   v060
	BYTE	W12
	BYTE		        Fs1   v040
	BYTE	W12
	BYTE		        Fs1   v060
	BYTE	W12
	BYTE		        Fs1   v040
	BYTE	W12
	BYTE		        Fs1   v060
	BYTE	W12
	BYTE	PEND
// 004   ----------------------------------------
SkyEvent_15_004:
	BYTE		N06     Fs1   v040
	BYTE	W24
	BYTE		N06   
	BYTE	W12
	BYTE		        Fs1   v060
	BYTE	W12
	BYTE		        Fs1   v040
	BYTE	W12
	BYTE		        Fs1   v060
	BYTE	W12
	BYTE		        Fs1   v040
	BYTE	W12
	BYTE		        Fs1   v060
	BYTE	W12
	BYTE	PEND
// 005   ----------------------------------------
	BYTE	PATT
	 POIN2	SkyEvent_15_001
// 006   ----------------------------------------
SkyEvent_15_006:
	BYTE		N06     Fs1   v040
	BYTE	W36
	BYTE		        Fs1   v060
	BYTE	W12
	BYTE		        Fs1   v040
	BYTE	W12
	BYTE		        Fs1   v060
	BYTE	W12
	BYTE		        Fs1   v040
	BYTE	W12
	BYTE		        Fs1   v060
	BYTE	W12
	BYTE	PEND
// 007   ----------------------------------------
	BYTE	PATT
	 POIN2	SkyEvent_15_001
// 008   ----------------------------------------
	BYTE		N06     Fs1   v040
	BYTE	W12
	BYTE		        Fs1   v060
	BYTE	W24
	BYTE		N06   
	BYTE	W12
	BYTE		        Fs1   v040
	BYTE	W12
	BYTE		        Fs1   v060
	BYTE	W12
	BYTE		        Fs1   v040
	BYTE	W12
	BYTE		        Fs1   v060
	BYTE	W12
// 009   ----------------------------------------
	BYTE	PATT
	 POIN2	SkyEvent_15_001
// 010   ----------------------------------------
	BYTE	PATT
	 POIN2	SkyEvent_15_001
// 011   ----------------------------------------
	BYTE	PATT
	 POIN2	SkyEvent_15_003
// 012   ----------------------------------------
	BYTE	PATT
	 POIN2	SkyEvent_15_004
// 013   ----------------------------------------
	BYTE	PATT
	 POIN2	SkyEvent_15_001
// 014   ----------------------------------------
	BYTE	PATT
	 POIN2	SkyEvent_15_006
// 015   ----------------------------------------
	BYTE	W12
	BYTE		N06     Fs1   v060
	BYTE	W12
	BYTE		        Fs1   v040
	BYTE	W12
	BYTE		        Fs1   v060
	BYTE	W12
	BYTE		        Fs1   v040
	BYTE	W12
	BYTE		        Fs1   v060
	BYTE	W12
	BYTE		        Fs1   v040
	BYTE	W24
// 016   ----------------------------------------
SkyEvent_15_016:
	BYTE	W36
	BYTE		N06     Fs1   v060
	BYTE	W12
	BYTE		        Fs1   v040
	BYTE	W12
	BYTE		        Fs1   v060
	BYTE	W12
	BYTE		        Fs1   v040
	BYTE	W12
	BYTE		        Fs1   v060
	BYTE	W12
	BYTE	PEND
// 017   ----------------------------------------
	BYTE	PATT
	 POIN2	SkyEvent_15_001
// 018   ----------------------------------------
	BYTE	PATT
	 POIN2	SkyEvent_15_001
// 019   ----------------------------------------
	BYTE	PATT
	 POIN2	SkyEvent_15_001
// 020   ----------------------------------------
	BYTE	PATT
	 POIN2	SkyEvent_15_004
// 021   ----------------------------------------
	BYTE	PATT
	 POIN2	SkyEvent_15_001
// 022   ----------------------------------------
	BYTE	PATT
	 POIN2	SkyEvent_15_001
// 023   ----------------------------------------
	BYTE	PATT
	 POIN2	SkyEvent_15_001
// 024   ----------------------------------------
	BYTE	PATT
	 POIN2	SkyEvent_15_016
// 025   ----------------------------------------
	BYTE	PATT
	 POIN2	SkyEvent_15_001
// 026   ----------------------------------------
	BYTE	PATT
	 POIN2	SkyEvent_15_001
// 027   ----------------------------------------
	BYTE	PATT
	 POIN2	SkyEvent_15_001
// 028   ----------------------------------------
	BYTE	PATT
	 POIN2	SkyEvent_15_004
// 029   ----------------------------------------
	BYTE	PATT
	 POIN2	SkyEvent_15_001
// 030   ----------------------------------------
	BYTE	PATT
	 POIN2	SkyEvent_15_004
// 031   ----------------------------------------
	BYTE		N06     Fs1   v040
	BYTE	W12
	BYTE		        Fs1   v060
	BYTE	W84
// 032   ----------------------------------------
	BYTE	W24
	BYTE	GoTo
	 POIN2	SkyEvent_15_B1
SkyEvent_15_B2:
	BYTE	W24
	BYTE	FINE

//******************************************************//
	ALIGN 4

SkyEvent:
	BYTE	15	// NumTrks
	BYTE	0	// NumBlks
	BYTE	SkyEvent_pri	// Priority
	BYTE	SkyEvent_rev	// Reverb.

	POIN2	SkyEvent_grp

	POIN2	SkyEvent_1
	POIN2	SkyEvent_2
	POIN2	SkyEvent_3
	POIN2	SkyEvent_4
	POIN2	SkyEvent_5
	POIN2	SkyEvent_6
	POIN2	SkyEvent_7
	POIN2	SkyEvent_8
	POIN2	SkyEvent_9
	POIN2	SkyEvent_10
	POIN2	SkyEvent_11
	POIN2	SkyEvent_12
	POIN2	SkyEvent_13
	POIN2	SkyEvent_14
	POIN2	SkyEvent_15

	
