//Event file generated from Sappy .s format.
	#include "MPlayDef.event"

	#define	StoryLangrisser_grp  voicegroup000
	#define	StoryLangrisser_pri  0
	#define	StoryLangrisser_rev  0
	#define	StoryLangrisser_mvl  70
	#define	StoryLangrisser_key  0
	#define	StoryLangrisser_tbs  1
	#define	StoryLangrisser_exg  0
	#define	StoryLangrisser_cmp  1

	// .rodata
	//	StoryLangrisser
	ALIGN 4

//**************** Track 1 (Midi-Chn.1) ****************//

StoryLangrisser_1:
	BYTE	KEYSH   StoryLangrisser_key+0
// 000   ----------------------------------------
	BYTE	TEMPO   132*StoryLangrisser_tbs/2
	BYTE		VOICE   60
	BYTE		VOL     97*StoryLangrisser_mvl/mxv
	BYTE	W09
	BYTE		PAN     c_v+0
	BYTE	W84
	BYTE	W03
// 001   ----------------------------------------
	BYTE	W12
	BYTE		N06     An2   v080
	BYTE	W06
StoryLangrisser_1_B1:
	BYTE		N06     Bn2   v080
	BYTE	W06
	BYTE		N24     Cn3 
	BYTE	W24
	BYTE		        Dn3 
	BYTE	W24
	BYTE		        En3 
	BYTE	W24
// 002   ----------------------------------------
	BYTE		N04     Gn3 
	BYTE	W12
	BYTE		N48     Fs3 
	BYTE	W48
	BYTE		N12     Dn3 
	BYTE	W12
	BYTE		        Cn3 
	BYTE	W12
	BYTE		        Bn2 
	BYTE	W12
// 003   ----------------------------------------
	BYTE	W12
	BYTE		N12   
	BYTE	W12
	BYTE		N06     Cn3 
	BYTE	W06
	BYTE		        Bn2 
	BYTE	W06
	BYTE		        An2 
	BYTE	W12
	BYTE		N36     En3 
	BYTE	W36
	BYTE		N04     Dn3 
	BYTE	W12
// 004   ----------------------------------------
	BYTE		N12     Bn2 
	BYTE	W12
	BYTE		        Gn2 
	BYTE	W12
	BYTE		N72     An2 
	BYTE	W72
// 005   ----------------------------------------
	BYTE	W96
// 006   ----------------------------------------
	BYTE	W96
// 007   ----------------------------------------
	BYTE		N24     Gn2 
	BYTE	W24
	BYTE		N48     Dn3 
	BYTE	W48
	BYTE		N42     Cn3 
	BYTE	W24
// 008   ----------------------------------------
	BYTE	W18
	BYTE		N03     Dn3   v060
	BYTE	W02
	BYTE		        Ds3 
	BYTE	W04
	BYTE		N48     Fn3   v080
	BYTE	W48
	BYTE		        Ds3 
	BYTE	W24
// 009   ----------------------------------------
StoryLangrisser_1_009:
	BYTE	W24
	BYTE		TIE     Dn3   v080
	BYTE	W72
	BYTE	PEND
// 010   ----------------------------------------
	BYTE	W96
	BYTE		EOT   
// 011   ----------------------------------------
	BYTE		N24     Gn2 
	BYTE	W24
	BYTE		N48     Dn3 
	BYTE	W48
	BYTE		        Cn3 
	BYTE	W24
// 012   ----------------------------------------
	BYTE	W24
	BYTE		        Fn3 
	BYTE	W48
	BYTE		        Ds3 
	BYTE	W24
// 013   ----------------------------------------
	BYTE	PATT
	 POIN2	StoryLangrisser_1_009
// 014   ----------------------------------------
	BYTE	W96
	BYTE		EOT     Dn3 
// 015   ----------------------------------------
	BYTE	W12
	BYTE		N06     An2   v080
	BYTE	W06
	BYTE	GoTo
	 POIN2	StoryLangrisser_1_B1
StoryLangrisser_1_B2:
	BYTE		N05     Bn2   v080
	BYTE	W06
	BYTE	FINE

//**************** Track 2 (Midi-Chn.2) ****************//

StoryLangrisser_2:
	BYTE	KEYSH   StoryLangrisser_key+0
// 000   ----------------------------------------
	BYTE		VOICE   60
	BYTE		VOL     81*StoryLangrisser_mvl/mxv
	BYTE	W09
	BYTE		PAN     c_v+0
	BYTE	W84
	BYTE	W03
// 001   ----------------------------------------
	BYTE	W18
StoryLangrisser_2_B1:
	BYTE	W78
// 002   ----------------------------------------
	BYTE	W96
// 003   ----------------------------------------
	BYTE	W96
// 004   ----------------------------------------
	BYTE	W06
	BYTE		N06     En3   v096
	BYTE	W06
	BYTE		        An3   v088
	BYTE	W06
	BYTE		        Bn3 
	BYTE	W06
	BYTE		N21     Cn3 
	BYTE		N21     Cn4 
	BYTE	W24
	BYTE		        Dn3 
	BYTE		N21     Dn4 
	BYTE	W24
	BYTE		        En3 
	BYTE		N21     En4 
	BYTE	W24
// 005   ----------------------------------------
	BYTE		N04     Gn3   v096
	BYTE		N04     Gn4 
	BYTE	W12
	BYTE		N44     Fs3   v088
	BYTE		N44     Fs4 
	BYTE	W48
	BYTE		N04     Dn3 
	BYTE		N04     Dn4 
	BYTE	W12
	BYTE		N12     Cn3   v096
	BYTE		N12     Cn4 
	BYTE	W12
	BYTE		N06     Bn2   v080
	BYTE		N06     Bn3 
	BYTE	W12
// 006   ----------------------------------------
	BYTE	W12
	BYTE		N08     Bn3   v088
	BYTE	W12
	BYTE		N06     En3   v096
	BYTE		N06     Cn4 
	BYTE	W06
	BYTE		        Dn3   v076
	BYTE		N06     Bn3 
	BYTE	W06
	BYTE		N12     Cn3   v096
	BYTE		N12     An3 
	BYTE	W12
	BYTE		N04     En3   v108
	BYTE		N04     En4 
	BYTE	W12
	BYTE		N24     Dn3   v096
	BYTE		N24     Dn4 
	BYTE	W24
	BYTE		N04     Bn3   v088
	BYTE	W12
// 007   ----------------------------------------
	BYTE		N24     Gn3   v108
	BYTE	W96
// 008   ----------------------------------------
	BYTE	W96
// 009   ----------------------------------------
	BYTE	W48
	BYTE		N04     Dn3   v080
	BYTE		N04     Gn3   v088
	BYTE	W08
	BYTE		        Bn2   v068
	BYTE		N04     Dn3   v080
	BYTE	W08
	BYTE		        Dn3   v088
	BYTE		N04     Gn3 
	BYTE	W08
	BYTE		N04   
	BYTE		N04     Bn3 
	BYTE	W08
	BYTE		        Dn3   v080
	BYTE		N04     Gn3   v068
	BYTE	W08
	BYTE		        Gn3   v088
	BYTE		N04     Bn3 
	BYTE	W08
// 010   ----------------------------------------
	BYTE		N04   
	BYTE		N04     Dn4   v096
	BYTE	W08
	BYTE		        Gn3   v080
	BYTE		N04     Bn3 
	BYTE	W08
	BYTE		        Bn3   v096
	BYTE		N04     Dn4   v104
	BYTE	W08
	BYTE		        Dn4   v088
	BYTE		N04     Fn4   v096
	BYTE	W08
	BYTE		        Cn4   v088
	BYTE		N04     En4   v096
	BYTE	W08
	BYTE		        Dn4 
	BYTE		N04     Fn4 
	BYTE	W08
	BYTE		N72     Bn3 
	BYTE		N72     Dn4   v104
	BYTE	W48
// 011   ----------------------------------------
	BYTE	W96
// 012   ----------------------------------------
	BYTE	W96
// 013   ----------------------------------------
	BYTE	W48
	BYTE		N04     Dn3   v088
	BYTE		N04     Gn3 
	BYTE	W08
	BYTE		        Bn2   v080
	BYTE		N04     Dn3 
	BYTE	W08
	BYTE		        Dn3   v088
	BYTE		N04     Gn3   v096
	BYTE	W08
	BYTE		N04   
	BYTE		N04     Bn3   v088
	BYTE	W08
	BYTE		        Dn3   v096
	BYTE		N04     Gn3   v060
	BYTE	W08
	BYTE		        Gn3   v088
	BYTE		N04     Bn3 
	BYTE	W08
// 014   ----------------------------------------
	BYTE		N04   
	BYTE		N04     Dn4   v104
	BYTE	W08
	BYTE		        Gn3   v088
	BYTE		N04     Bn3   v096
	BYTE	W08
	BYTE		        Bn3   v088
	BYTE		N04     Dn4   v096
	BYTE	W08
	BYTE		N04   
	BYTE		N04     Gn4   v088
	BYTE	W08
	BYTE		        Gn3 
	BYTE		N04     Cn4   v096
	BYTE	W08
	BYTE		        Cn4   v088
	BYTE		N04     Dn4 
	BYTE	W08
	BYTE		        Dn4   v096
	BYTE		N04     Gn4 
	BYTE	W08
	BYTE		        Gn3   v088
	BYTE		N04     Cn4 
	BYTE	W08
	BYTE		        Cn4   v096
	BYTE		N04     Dn4 
	BYTE	W08
	BYTE		N44     Dn3 
	BYTE		N44     Dn4   v104
	BYTE	W24
// 015   ----------------------------------------
	BYTE	W18
	BYTE	GoTo
	 POIN2	StoryLangrisser_2_B1
StoryLangrisser_2_B2:
	BYTE	W06
	BYTE	FINE

//**************** Track 3 (Midi-Chn.3) ****************//

StoryLangrisser_3:
	BYTE	KEYSH   StoryLangrisser_key+0
// 000   ----------------------------------------
	BYTE		VOICE   56
	BYTE		VOL     101*StoryLangrisser_mvl/mxv
	BYTE		PAN     c_v+0
	BYTE	W96
// 001   ----------------------------------------
	BYTE	W18
StoryLangrisser_3_B1:
	BYTE	W78
// 002   ----------------------------------------
	BYTE	W96
// 003   ----------------------------------------
	BYTE	W96
// 004   ----------------------------------------
	BYTE	W24
	BYTE		N48     En2   v072
	BYTE		N48     An2 
	BYTE	W48
	BYTE		N05     En2   v084
	BYTE		N05     An2   v064
	BYTE	W06
	BYTE		        Gn2   v052
	BYTE		N05     Bn2   v064
	BYTE	W06
	BYTE		        An2   v084
	BYTE		N05     Cn3   v064
	BYTE	W12
// 005   ----------------------------------------
	BYTE	W12
	BYTE		N60     An2   v072
	BYTE		N60     Dn3   v084
	BYTE	W60
	BYTE		N06     An2   v072
	BYTE		N06     Dn3 
	BYTE	W06
	BYTE		        Cn3 
	BYTE		N06     En3   v084
	BYTE	W06
	BYTE		        Dn3   v072
	BYTE		N06     Fs3 
	BYTE	W12
// 006   ----------------------------------------
	BYTE	W12
	BYTE		N12     Fs3   v092
	BYTE	W12
	BYTE		N48     An2   v064
	BYTE		N48     En3   v072
	BYTE	W48
	BYTE		        Bn2   v064
	BYTE		N48     Dn3   v072
	BYTE	W24
// 007   ----------------------------------------
	BYTE	W96
// 008   ----------------------------------------
	BYTE	W96
// 009   ----------------------------------------
	BYTE	W48
	BYTE		N07     Gn2 
	BYTE		N07     Bn2   v064
	BYTE	W08
	BYTE		        Dn2 
	BYTE		N07     Gn2   v056
	BYTE	W08
	BYTE		        Gn2   v072
	BYTE		N07     Bn2 
	BYTE	W08
	BYTE		N07   
	BYTE		N07     Dn3 
	BYTE	W08
	BYTE		        Gn2   v056
	BYTE		N07     Bn2   v064
	BYTE	W08
	BYTE		        Bn2   v072
	BYTE		N07     Dn3 
	BYTE	W08
// 010   ----------------------------------------
	BYTE		        Dn3   v084
	BYTE		N07     Gn3   v072
	BYTE	W08
	BYTE		        Bn2   v064
	BYTE		N07     Dn3 
	BYTE	W08
	BYTE		        Dn3   v092
	BYTE		N07     Gn3   v084
	BYTE	W08
	BYTE		        Fn3 
	BYTE		N07     Bn3   v072
	BYTE	W08
	BYTE		        En3   v084
	BYTE		N07     Gn3   v072
	BYTE	W08
	BYTE		        Fn3   v084
	BYTE		N07     Bn3 
	BYTE	W08
	BYTE		N72     Dn3   v092
	BYTE		N72     Gn3   v084
	BYTE	W48
// 011   ----------------------------------------
	BYTE	W96
// 012   ----------------------------------------
	BYTE	W96
// 013   ----------------------------------------
	BYTE	W48
	BYTE		N07     Gn2   v072
	BYTE		N07     Bn2 
	BYTE	W08
	BYTE		        Dn2   v064
	BYTE		N07     Gn2 
	BYTE	W08
	BYTE		        Gn2   v084
	BYTE		N07     Bn2   v072
	BYTE	W08
	BYTE		N07   
	BYTE		N07     Dn3   v084
	BYTE	W08
	BYTE		        Gn2   v048
	BYTE		N07     Bn2   v084
	BYTE	W08
	BYTE		        Bn2   v072
	BYTE		N07     Dn3 
	BYTE	W08
// 014   ----------------------------------------
	BYTE		        Dn3   v092
	BYTE		N07     Gn3   v072
	BYTE	W08
	BYTE		        Bn2   v084
	BYTE		N07     Dn3   v072
	BYTE	W08
	BYTE		        Dn3   v084
	BYTE		N07     Gn3   v072
	BYTE	W08
	BYTE		N07   
	BYTE		N07     Cn4   v084
	BYTE	W08
	BYTE		        Cn3 
	BYTE		N07     Gn3   v072
	BYTE	W08
	BYTE		        Dn3 
	BYTE		N07     Cn4 
	BYTE	W08
	BYTE		        Gn3   v084
	BYTE		N07     Cn4 
	BYTE	W08
	BYTE		        Cn3   v072
	BYTE		N07     Gn3 
	BYTE	W08
	BYTE		        Dn3   v084
	BYTE		N07     Cn4 
	BYTE	W08
	BYTE		N44     Dn3 
	BYTE		N44     An3   v092
	BYTE	W24
// 015   ----------------------------------------
	BYTE	W18
	BYTE	GoTo
	 POIN2	StoryLangrisser_3_B1
StoryLangrisser_3_B2:
	BYTE	W06
	BYTE	FINE

//**************** Track 4 (Midi-Chn.4) ****************//

StoryLangrisser_4:
	BYTE	KEYSH   StoryLangrisser_key+0
// 000   ----------------------------------------
	BYTE		VOICE   33
	BYTE		VOL     84*StoryLangrisser_mvl/mxv
	BYTE	W09
	BYTE		PAN     c_v+40
	BYTE	W84
	BYTE	W03
// 001   ----------------------------------------
	BYTE	W18
StoryLangrisser_4_B1:
	BYTE	W06
	BYTE		N08     An2   v060
	BYTE		N08     En3 
	BYTE		N08     Cn4 
	BYTE	W24
	BYTE		        An2 
	BYTE		N08     En3 
	BYTE		N08     Cn4 
	BYTE	W24
	BYTE		        An2 
	BYTE		N08     En3 
	BYTE		N08     Cn4 
	BYTE	W24
// 002   ----------------------------------------
StoryLangrisser_4_002:
	BYTE		N08     An2   v060
	BYTE		N08     En3 
	BYTE		N08     Cn4 
	BYTE	W24
	BYTE		        Dn3 
	BYTE		N08     An3 
	BYTE		N08     Dn4 
	BYTE	W24
	BYTE		        Dn3 
	BYTE		N08     An3 
	BYTE		N08     Dn4 
	BYTE	W24
	BYTE		        Dn3 
	BYTE		N08     An3 
	BYTE		N08     Dn4 
	BYTE	W24
	BYTE	PEND
// 003   ----------------------------------------
StoryLangrisser_4_003:
	BYTE		N08     Dn3   v060
	BYTE		N08     An3 
	BYTE		N08     Dn4 
	BYTE	W24
	BYTE		        Fn2 
	BYTE		N08     An3 
	BYTE		N08     Cn4 
	BYTE	W24
	BYTE		        Fn2 
	BYTE		N08     An3 
	BYTE		N08     Cn4 
	BYTE	W24
	BYTE		        Gn2 
	BYTE		N08     Gn3 
	BYTE		N08     Bn3 
	BYTE	W24
	BYTE	PEND
// 004   ----------------------------------------
	BYTE		        Gn2 
	BYTE		N08     Gn3 
	BYTE		N08     Bn3 
	BYTE	W24
	BYTE		        An2 
	BYTE		N08     En3 
	BYTE		N08     Cn4 
	BYTE	W24
	BYTE		        An2 
	BYTE		N08     En3 
	BYTE		N08     Cn4 
	BYTE	W24
	BYTE		        An2 
	BYTE		N08     En3 
	BYTE		N08     Cn4 
	BYTE	W24
// 005   ----------------------------------------
	BYTE	PATT
	 POIN2	StoryLangrisser_4_002
// 006   ----------------------------------------
	BYTE	PATT
	 POIN2	StoryLangrisser_4_003
// 007   ----------------------------------------
	BYTE		N08     Gn2   v060
	BYTE		N08     Gn3 
	BYTE		N08     Bn3 
	BYTE	W96
// 008   ----------------------------------------
	BYTE	W96
// 009   ----------------------------------------
StoryLangrisser_4_009:
	BYTE	W24
	BYTE		N96     Gn2   v080
	BYTE		N96     Bn3 
	BYTE		N96     Dn4 
	BYTE	W72
	BYTE	PEND
// 010   ----------------------------------------
	BYTE	W24
	BYTE		N04     Gn2 
	BYTE		N04     Bn3 
	BYTE		N04     Fn4 
	BYTE	W08
	BYTE		        Gn2 
	BYTE		N04     Bn3 
	BYTE		N04     En4 
	BYTE	W08
	BYTE		        Gn2 
	BYTE		N04     Bn3 
	BYTE		N04     Fn4 
	BYTE	W08
	BYTE		N72     Gn2 
	BYTE		N72     Bn3 
	BYTE		N72     Dn4 
	BYTE	W48
// 011   ----------------------------------------
	BYTE	W96
// 012   ----------------------------------------
	BYTE	W96
// 013   ----------------------------------------
	BYTE	PATT
	 POIN2	StoryLangrisser_4_009
// 014   ----------------------------------------
	BYTE	W24
	BYTE		N04     Dn3   v080
	BYTE		N04     An3 
	BYTE		N04     Cn4 
	BYTE	W08
	BYTE		        Dn3 
	BYTE		N04     An3 
	BYTE		N04     Cn4 
	BYTE	W08
	BYTE		        Dn3 
	BYTE		N04     An3 
	BYTE		N04     Cn4 
	BYTE	W08
	BYTE		        Dn3 
	BYTE		N04     An3 
	BYTE		N04     Cn4 
	BYTE	W08
	BYTE		        Dn3 
	BYTE		N04     An3 
	BYTE		N04     Cn4 
	BYTE	W08
	BYTE		        Dn3 
	BYTE		N04     An3 
	BYTE		N04     Cn4 
	BYTE	W08
	BYTE		N44     Dn3 
	BYTE		N44     An3 
	BYTE		N44     Dn4 
	BYTE	W24
// 015   ----------------------------------------
	BYTE	W18
	BYTE	GoTo
	 POIN2	StoryLangrisser_4_B1
StoryLangrisser_4_B2:
	BYTE	W06
	BYTE	FINE

//**************** Track 5 (Midi-Chn.5) ****************//

StoryLangrisser_5:
	BYTE	KEYSH   StoryLangrisser_key+0
// 000   ----------------------------------------
	BYTE		VOICE   34
	BYTE		VOL     47*StoryLangrisser_mvl/mxv
	BYTE	W09
	BYTE		PAN     c_v+0
	BYTE	W68
	BYTE	W01
	BYTE		N06     An4   v100
	BYTE	W06
	BYTE		        Gn4 
	BYTE	W06
	BYTE		        Dn4 
	BYTE	W06
// 001   ----------------------------------------
	BYTE		        En4 
	BYTE	W06
	BYTE		        Gn3 
	BYTE	W06
	BYTE		N06   
	BYTE	W06
StoryLangrisser_5_B1:
	BYTE		N06     Gn3   v100
	BYTE	W06
	BYTE		N08     An3 
	BYTE	W12
	BYTE		N05   
	BYTE	W06
	BYTE		N05   
	BYTE	W06
	BYTE		N08   
	BYTE	W12
	BYTE		N05   
	BYTE	W06
	BYTE		N05   
	BYTE	W06
	BYTE		N08   
	BYTE	W12
	BYTE		N05   
	BYTE	W06
	BYTE		N05   
	BYTE	W06
// 002   ----------------------------------------
StoryLangrisser_5_002:
	BYTE		N08     An3   v100
	BYTE	W12
	BYTE		N05   
	BYTE	W06
	BYTE		N05   
	BYTE	W06
	BYTE		N08     Dn4 
	BYTE	W12
	BYTE		N05   
	BYTE	W06
	BYTE		N05   
	BYTE	W06
	BYTE		N08   
	BYTE	W12
	BYTE		N05   
	BYTE	W06
	BYTE		N05   
	BYTE	W06
	BYTE		N08   
	BYTE	W12
	BYTE		N05   
	BYTE	W06
	BYTE		N05   
	BYTE	W06
	BYTE	PEND
// 003   ----------------------------------------
StoryLangrisser_5_003:
	BYTE		N08     Dn4   v100
	BYTE	W12
	BYTE		N05   
	BYTE	W06
	BYTE		N05   
	BYTE	W06
	BYTE		N08     Fn3 
	BYTE	W12
	BYTE		N05   
	BYTE	W06
	BYTE		N05   
	BYTE	W06
	BYTE		N08   
	BYTE	W12
	BYTE		N05   
	BYTE	W06
	BYTE		N05   
	BYTE	W06
	BYTE		N08     Gn3 
	BYTE	W12
	BYTE		N05   
	BYTE	W06
	BYTE		N05   
	BYTE	W06
	BYTE	PEND
// 004   ----------------------------------------
	BYTE		N08   
	BYTE	W12
	BYTE		N05   
	BYTE	W06
	BYTE		N05   
	BYTE	W06
	BYTE		N08     An3 
	BYTE	W12
	BYTE		N05   
	BYTE	W06
	BYTE		N05   
	BYTE	W06
	BYTE		N08   
	BYTE	W12
	BYTE		N05   
	BYTE	W06
	BYTE		N05   
	BYTE	W06
	BYTE		N08   
	BYTE	W12
	BYTE		N05   
	BYTE	W06
	BYTE		N05   
	BYTE	W06
// 005   ----------------------------------------
	BYTE	PATT
	 POIN2	StoryLangrisser_5_002
// 006   ----------------------------------------
	BYTE	PATT
	 POIN2	StoryLangrisser_5_003
// 007   ----------------------------------------
StoryLangrisser_5_007:
	BYTE		N08     Gn3   v100
	BYTE	W12
	BYTE		N05   
	BYTE	W06
	BYTE		N05   
	BYTE	W06
	BYTE		N08     Gs3 
	BYTE	W12
	BYTE		N05   
	BYTE	W06
	BYTE		N05   
	BYTE	W06
	BYTE		N08   
	BYTE	W12
	BYTE		N05   
	BYTE	W06
	BYTE		N05   
	BYTE	W06
	BYTE		N08   
	BYTE	W12
	BYTE		N05   
	BYTE	W06
	BYTE		N05   
	BYTE	W06
	BYTE	PEND
// 008   ----------------------------------------
StoryLangrisser_5_008:
	BYTE		N08     Gs3   v100
	BYTE	W12
	BYTE		N05   
	BYTE	W06
	BYTE		N05   
	BYTE	W06
	BYTE		N08   
	BYTE	W12
	BYTE		N05   
	BYTE	W06
	BYTE		N05   
	BYTE	W06
	BYTE		N08   
	BYTE	W12
	BYTE		N05   
	BYTE	W06
	BYTE		N05   
	BYTE	W06
	BYTE		N08     Cn4 
	BYTE	W12
	BYTE		N05   
	BYTE	W06
	BYTE		N05   
	BYTE	W06
	BYTE	PEND
// 009   ----------------------------------------
StoryLangrisser_5_009:
	BYTE		N08     Cn4   v100
	BYTE	W12
	BYTE		N05   
	BYTE	W06
	BYTE		N05   
	BYTE	W06
	BYTE		N08     Gn3 
	BYTE	W12
	BYTE		N05   
	BYTE	W06
	BYTE		N05   
	BYTE	W06
	BYTE		N08   
	BYTE	W12
	BYTE		N05   
	BYTE	W06
	BYTE		N05   
	BYTE	W06
	BYTE		N08   
	BYTE	W12
	BYTE		N05   
	BYTE	W06
	BYTE		N05   
	BYTE	W06
	BYTE	PEND
// 010   ----------------------------------------
	BYTE		N08   
	BYTE	W12
	BYTE		N05   
	BYTE	W06
	BYTE		N05   
	BYTE	W06
	BYTE		N08   
	BYTE	W12
	BYTE		N05   
	BYTE	W06
	BYTE		N05   
	BYTE	W06
	BYTE		N08   
	BYTE	W12
	BYTE		N05   
	BYTE	W06
	BYTE		N05   
	BYTE	W06
	BYTE		N08   
	BYTE	W12
	BYTE		N05   
	BYTE	W06
	BYTE		N05   
	BYTE	W06
// 011   ----------------------------------------
	BYTE	PATT
	 POIN2	StoryLangrisser_5_007
// 012   ----------------------------------------
	BYTE	PATT
	 POIN2	StoryLangrisser_5_008
// 013   ----------------------------------------
	BYTE	PATT
	 POIN2	StoryLangrisser_5_009
// 014   ----------------------------------------
	BYTE		N08     Gn3   v100
	BYTE	W12
	BYTE		N05   
	BYTE	W06
	BYTE		N05   
	BYTE	W06
	BYTE		N08     Dn4 
	BYTE	W12
	BYTE		N05   
	BYTE	W06
	BYTE		N05   
	BYTE	W06
	BYTE		N08   
	BYTE	W12
	BYTE		N05   
	BYTE	W06
	BYTE		N05   
	BYTE	W06
	BYTE		N08   
	BYTE	W12
	BYTE		N05   
	BYTE	W06
	BYTE		N05   
	BYTE	W06
// 015   ----------------------------------------
	BYTE		N08   
	BYTE	W12
	BYTE		N05   
	BYTE	W06
	BYTE	GoTo
	 POIN2	StoryLangrisser_5_B1
StoryLangrisser_5_B2:
	BYTE		N05     Dn4   v100
	BYTE	W06
	BYTE	FINE

//**************** Track 6 (Midi-Chn.6) ****************//

StoryLangrisser_6:
	BYTE	KEYSH   StoryLangrisser_key+0
// 000   ----------------------------------------
	BYTE		VOICE   1
	BYTE		VOL     81*StoryLangrisser_mvl/mxv
	BYTE	W09
	BYTE		PAN     c_v+20
	BYTE	W84
	BYTE	W03
// 001   ----------------------------------------
	BYTE	W18
StoryLangrisser_6_B1:
	BYTE	W06
	BYTE		N06     En3   v068
	BYTE	W06
	BYTE		        An3   v056
	BYTE	W06
	BYTE		        En3   v052
	BYTE	W06
	BYTE		        An3 
	BYTE	W06
	BYTE		        En3 
	BYTE	W06
	BYTE		        An3   v056
	BYTE	W06
	BYTE		        En3   v048
	BYTE	W06
	BYTE		        An3 
	BYTE	W06
	BYTE		        En3 
	BYTE	W06
	BYTE		        An3 
	BYTE	W06
	BYTE		        En3   v056
	BYTE	W06
	BYTE		        An3   v052
	BYTE	W06
// 002   ----------------------------------------
	BYTE		        En3   v060
	BYTE	W06
	BYTE		        An3   v052
	BYTE	W06
	BYTE		        En3   v068
	BYTE	W06
	BYTE		        An3   v060
	BYTE	W06
	BYTE		        Fs3   v052
	BYTE	W06
	BYTE		        An3   v056
	BYTE	W06
	BYTE		        Fs3   v052
	BYTE	W06
	BYTE		        An3 
	BYTE	W06
	BYTE		        Fs3   v048
	BYTE	W06
	BYTE		        An3   v052
	BYTE	W06
	BYTE		        Fs3   v056
	BYTE	W06
	BYTE		        An3   v060
	BYTE	W06
	BYTE		        Fs3   v056
	BYTE	W06
	BYTE		        An3 
	BYTE	W06
	BYTE		        Fs3   v052
	BYTE	W06
	BYTE		        An3   v056
	BYTE	W06
// 003   ----------------------------------------
	BYTE		        Fs3   v044
	BYTE	W06
	BYTE		        An3   v056
	BYTE	W06
	BYTE		        Fs3   v048
	BYTE	W06
	BYTE		        An3   v056
	BYTE	W06
	BYTE		        Fn3   v060
	BYTE	W06
	BYTE		        An3 
	BYTE	W06
	BYTE		        Fn3 
	BYTE	W06
	BYTE		        An3   v056
	BYTE	W06
	BYTE		        Fn3   v060
	BYTE	W06
	BYTE		        An3   v056
	BYTE	W06
	BYTE		        Fn3   v060
	BYTE	W06
	BYTE		        An3   v056
	BYTE	W06
	BYTE		        Gn3 
	BYTE	W06
	BYTE		        Bn3   v052
	BYTE	W06
	BYTE		        Gn3 
	BYTE	W06
	BYTE		        Bn3 
	BYTE	W06
// 004   ----------------------------------------
	BYTE		        Gn3   v060
	BYTE	W06
	BYTE		        Bn3   v056
	BYTE	W06
	BYTE		        Gn3 
	BYTE	W06
	BYTE		        Bn3 
	BYTE	W06
	BYTE		        An3 
	BYTE	W06
	BYTE		        Cn4 
	BYTE	W06
	BYTE		        An3   v052
	BYTE	W06
	BYTE		        Cn4 
	BYTE	W06
	BYTE		        An3   v056
	BYTE	W06
	BYTE		        Cn4   v048
	BYTE	W06
	BYTE		        An3   v056
	BYTE	W06
	BYTE		        Cn4   v048
	BYTE	W06
	BYTE		        An3   v052
	BYTE	W06
	BYTE		        Cn4   v056
	BYTE	W06
	BYTE		        An3   v052
	BYTE	W06
	BYTE		        Cn4   v056
	BYTE	W06
// 005   ----------------------------------------
	BYTE		        An3   v052
	BYTE	W06
	BYTE		        Cn4   v056
	BYTE	W06
	BYTE		        An3   v052
	BYTE	W06
	BYTE		        Cn4   v056
	BYTE	W06
	BYTE		        An3   v060
	BYTE	W06
	BYTE		        Dn4   v056
	BYTE	W06
	BYTE		        An3 
	BYTE	W06
	BYTE		        Dn4   v048
	BYTE	W06
	BYTE		        An3   v056
	BYTE	W06
	BYTE		        Dn4 
	BYTE	W06
	BYTE		        An3   v048
	BYTE	W06
	BYTE		        Dn4   v052
	BYTE	W06
	BYTE		        An3 
	BYTE	W06
	BYTE		        Dn4   v044
	BYTE	W06
	BYTE		        An3   v056
	BYTE	W06
	BYTE		        Dn4 
	BYTE	W06
// 006   ----------------------------------------
	BYTE		        An3   v060
	BYTE	W06
	BYTE		        Dn4   v048
	BYTE	W06
	BYTE		        An3   v068
	BYTE	W06
	BYTE		        Dn4   v052
	BYTE	W06
	BYTE		        Cn4   v060
	BYTE	W06
	BYTE		        En4 
	BYTE	W06
	BYTE		        Cn4 
	BYTE	W06
	BYTE		        En4   v052
	BYTE	W06
	BYTE		        Cn4   v060
	BYTE	W06
	BYTE		        En4   v056
	BYTE	W06
	BYTE		        Cn4   v060
	BYTE	W06
	BYTE		        En4 
	BYTE	W06
	BYTE		        Bn3 
	BYTE	W06
	BYTE		        Dn4   v056
	BYTE	W06
	BYTE		        Bn3 
	BYTE	W06
	BYTE		        Dn4   v048
	BYTE	W06
// 007   ----------------------------------------
	BYTE		        Bn3 
	BYTE	W06
	BYTE		        Dn4   v052
	BYTE	W06
	BYTE		        Bn3   v060
	BYTE	W06
	BYTE		        Dn4 
	BYTE	W06
	BYTE		N96     Cn4   v048
	BYTE	W72
// 008   ----------------------------------------
	BYTE	W24
	BYTE		        Gs4   v044
	BYTE	W72
// 009   ----------------------------------------
	BYTE	W24
	BYTE		        Gn4   v068
	BYTE	W72
// 010   ----------------------------------------
	BYTE	W24
	BYTE		N24   
	BYTE	W24
	BYTE		N06     Dn5 
	BYTE	W06
	BYTE		        Bn4 
	BYTE	W06
	BYTE		        Gn4 
	BYTE	W06
	BYTE		        Dn4 
	BYTE	W06
	BYTE		N24     Cn4   v060
	BYTE	W24
// 011   ----------------------------------------
	BYTE		        Bn3 
	BYTE	W24
	BYTE		N96     Cn4   v056
	BYTE	W72
// 012   ----------------------------------------
	BYTE	W24
	BYTE		        Gs4 
	BYTE	W72
// 013   ----------------------------------------
	BYTE	W24
	BYTE		        Gn4   v060
	BYTE	W72
// 014   ----------------------------------------
	BYTE	W24
	BYTE		N48     An3 
	BYTE	W48
	BYTE		N44   
	BYTE	W24
// 015   ----------------------------------------
	BYTE	W18
	BYTE	GoTo
	 POIN2	StoryLangrisser_6_B1
StoryLangrisser_6_B2:
	BYTE	W06
	BYTE	FINE

//**************** Track 7 (Midi-Chn.7) ****************//

StoryLangrisser_7:
	BYTE	KEYSH   StoryLangrisser_key+0
// 000   ----------------------------------------
	BYTE		VOICE   1
	BYTE		VOL     85*StoryLangrisser_mvl/mxv
	BYTE	W09
	BYTE		PAN     c_v-20
	BYTE	W84
	BYTE	W03
// 001   ----------------------------------------
	BYTE	W18
StoryLangrisser_7_B1:
	BYTE	W06
	BYTE		N06     Cn3   v072
	BYTE	W06
	BYTE		        En3 
	BYTE	W06
	BYTE		        Cn3   v068
	BYTE	W06
	BYTE		        En3   v064
	BYTE	W06
	BYTE		        Cn3   v068
	BYTE	W06
	BYTE		        En3   v064
	BYTE	W06
	BYTE		        Cn3 
	BYTE	W06
	BYTE		        En3   v068
	BYTE	W06
	BYTE		        Cn3   v064
	BYTE	W06
	BYTE		        En3   v068
	BYTE	W06
	BYTE		        Cn3   v064
	BYTE	W06
	BYTE		        En3   v068
	BYTE	W06
// 002   ----------------------------------------
	BYTE		        Cn3   v060
	BYTE	W06
	BYTE		        En3   v068
	BYTE	W06
	BYTE		        Cn3   v064
	BYTE	W06
	BYTE		        En3   v076
	BYTE	W06
	BYTE		        Dn3 
	BYTE	W06
	BYTE		        Fs3   v084
	BYTE	W06
	BYTE		        Dn3   v076
	BYTE	W06
	BYTE		        Fs3   v064
	BYTE	W06
	BYTE		        Dn3   v076
	BYTE	W06
	BYTE		        Fs3   v064
	BYTE	W06
	BYTE		        Dn3   v076
	BYTE	W06
	BYTE		        Fs3   v068
	BYTE	W06
	BYTE		        Dn3   v076
	BYTE	W06
	BYTE		        Fs3   v060
	BYTE	W06
	BYTE		        Dn3   v076
	BYTE	W06
	BYTE		        Fs3   v068
	BYTE	W06
// 003   ----------------------------------------
	BYTE		        Dn3   v072
	BYTE	W06
	BYTE		        Fs3   v064
	BYTE	W06
	BYTE		        Dn3   v072
	BYTE	W06
	BYTE		        Fs3   v064
	BYTE	W06
	BYTE		        Cn3   v052
	BYTE	W06
	BYTE		        Fn3   v068
	BYTE	W06
	BYTE		        Cn3   v072
	BYTE	W06
	BYTE		        Fn3   v068
	BYTE	W06
	BYTE		        Cn3   v072
	BYTE	W06
	BYTE		        Fn3   v068
	BYTE	W06
	BYTE		        Cn3 
	BYTE	W06
	BYTE		        Fn3   v064
	BYTE	W06
	BYTE		        Dn3   v076
	BYTE	W06
	BYTE		        Gn3   v068
	BYTE	W06
	BYTE		        Dn3 
	BYTE	W06
	BYTE		        Gn3   v072
	BYTE	W06
// 004   ----------------------------------------
	BYTE		        Dn3   v076
	BYTE	W06
	BYTE		        Gn3   v068
	BYTE	W06
	BYTE		        Dn3   v076
	BYTE	W06
	BYTE		        Gn3 
	BYTE	W06
	BYTE		        En3   v068
	BYTE	W06
	BYTE		        An3   v064
	BYTE	W06
	BYTE		        En3   v076
	BYTE	W06
	BYTE		        An3   v064
	BYTE	W06
	BYTE		        En3   v072
	BYTE	W06
	BYTE		        An3   v064
	BYTE	W06
	BYTE		        En3   v072
	BYTE	W06
	BYTE		        An3 
	BYTE	W06
	BYTE		        En3 
	BYTE	W06
	BYTE		        An3   v068
	BYTE	W06
	BYTE		        En3 
	BYTE	W06
	BYTE		        An3   v060
	BYTE	W06
// 005   ----------------------------------------
	BYTE		        En3   v076
	BYTE	W06
	BYTE		        An3   v072
	BYTE	W06
	BYTE		        En3 
	BYTE	W06
	BYTE		        An3   v056
	BYTE	W06
	BYTE		        Fs3   v068
	BYTE	W06
	BYTE		        An3   v064
	BYTE	W06
	BYTE		        Fs3   v060
	BYTE	W06
	BYTE		        An3   v068
	BYTE	W06
	BYTE		        Fs3   v060
	BYTE	W06
	BYTE		        An3   v064
	BYTE	W06
	BYTE		        Fs3   v068
	BYTE	W06
	BYTE		        An3 
	BYTE	W06
	BYTE		        Fs3   v056
	BYTE	W06
	BYTE		        An3   v068
	BYTE	W06
	BYTE		        Fs3   v060
	BYTE	W06
	BYTE		        An3   v064
	BYTE	W06
// 006   ----------------------------------------
	BYTE		        Fs3 
	BYTE	W06
	BYTE		        An3   v068
	BYTE	W06
	BYTE		        Fs3   v060
	BYTE	W06
	BYTE		        An3 
	BYTE	W06
	BYTE		        Fn3   v076
	BYTE	W06
	BYTE		        An3   v064
	BYTE	W06
	BYTE		        Fn3   v068
	BYTE	W06
	BYTE		        An3   v064
	BYTE	W06
	BYTE		        Fn3   v068
	BYTE	W06
	BYTE		        An3   v064
	BYTE	W06
	BYTE		        Fn3   v072
	BYTE	W06
	BYTE		        An3 
	BYTE	W06
	BYTE		        Dn3   v064
	BYTE	W06
	BYTE		        Gn3   v060
	BYTE	W06
	BYTE		        Dn3   v068
	BYTE	W06
	BYTE		        Gn3 
	BYTE	W06
// 007   ----------------------------------------
	BYTE		        Dn3   v076
	BYTE	W06
	BYTE		        Gn3   v068
	BYTE	W06
	BYTE		        Dn3   v072
	BYTE	W06
	BYTE		        Gn3   v076
	BYTE	W06
	BYTE		N96     Gs3   v068
	BYTE	W72
// 008   ----------------------------------------
	BYTE	W24
	BYTE		        Ds4   v060
	BYTE	W72
// 009   ----------------------------------------
	BYTE	W24
	BYTE		        Dn4   v076
	BYTE	W72
// 010   ----------------------------------------
	BYTE	W24
	BYTE		N24     Dn4   v068
	BYTE	W24
	BYTE		N06     Bn4 
	BYTE	W06
	BYTE		        Gn4 
	BYTE	W06
	BYTE		        Dn4 
	BYTE	W06
	BYTE		        Bn3 
	BYTE	W06
	BYTE		N24     Gn3   v064
	BYTE	W24
// 011   ----------------------------------------
	BYTE		        Gn3   v068
	BYTE	W24
	BYTE		N90     Gs3 
	BYTE	W72
// 012   ----------------------------------------
	BYTE	W18
	BYTE		N02     Bn3 
	BYTE	W02
	BYTE		        Cn4 
	BYTE		N02     Dn4 
	BYTE	W04
	BYTE		N96     Ds4 
	BYTE	W72
// 013   ----------------------------------------
	BYTE	W24
	BYTE		        Dn4   v076
	BYTE	W72
// 014   ----------------------------------------
	BYTE	W24
	BYTE		N48     Gn3 
	BYTE	W48
	BYTE		N44     Fs3   v072
	BYTE	W24
// 015   ----------------------------------------
	BYTE	W18
	BYTE	GoTo
	 POIN2	StoryLangrisser_7_B1
StoryLangrisser_7_B2:
	BYTE	W06
	BYTE	FINE

//**************** Track 8 (Midi-Chn.8) ****************//

StoryLangrisser_8:
	BYTE	KEYSH   StoryLangrisser_key+0
// 000   ----------------------------------------
	BYTE		VOICE   46
	BYTE		VOL     66*StoryLangrisser_mvl/mxv
	BYTE	W09
	BYTE		PAN     c_v+40
	BYTE	W84
	BYTE	W03
// 001   ----------------------------------------
	BYTE	W18
StoryLangrisser_8_B1:
	BYTE	W06
	BYTE		N06     An2   v056
	BYTE		N06     Cn3   v064
	BYTE	W12
	BYTE		        An2 
	BYTE		N06     Cn3 
	BYTE	W12
	BYTE		        An2   v048
	BYTE		N06     Cn3   v064
	BYTE	W12
	BYTE		        An2   v052
	BYTE		N06     Cn3   v064
	BYTE	W12
	BYTE		        An2   v052
	BYTE		N06     Cn3   v056
	BYTE	W12
	BYTE		        An2   v052
	BYTE		N06     Cn3   v064
	BYTE	W12
// 002   ----------------------------------------
	BYTE		        An2   v056
	BYTE		N06     Cn3   v064
	BYTE	W12
	BYTE		        An2 
	BYTE		N06     Cn3   v072
	BYTE	W12
	BYTE		        An2   v056
	BYTE		N06     Dn3 
	BYTE	W12
	BYTE		        An2 
	BYTE		N06     Dn3 
	BYTE	W12
	BYTE		        An2   v048
	BYTE		N06     Dn3   v056
	BYTE	W12
	BYTE		        An2 
	BYTE		N06     Dn3   v064
	BYTE	W12
	BYTE		        An2   v052
	BYTE		N06     Dn3 
	BYTE	W12
	BYTE		        An2 
	BYTE		N06     Dn3   v056
	BYTE	W12
// 003   ----------------------------------------
	BYTE		        An2 
	BYTE		N06     Dn3 
	BYTE	W12
	BYTE		        An2 
	BYTE		N06     Dn3 
	BYTE	W12
	BYTE		        An2 
	BYTE		N06     En3   v072
	BYTE	W12
	BYTE		        An2   v056
	BYTE		N06     En3   v064
	BYTE	W12
	BYTE		        An2 
	BYTE		N06     En3 
	BYTE	W12
	BYTE		        An2 
	BYTE		N06     En3 
	BYTE	W12
	BYTE		        Bn2 
	BYTE		N06     Dn3   v056
	BYTE	W12
	BYTE		        Bn2 
	BYTE		N06     Dn3 
	BYTE	W12
// 004   ----------------------------------------
	BYTE		        Bn2   v064
	BYTE		N06     Dn3   v056
	BYTE	W12
	BYTE		        Bn2   v064
	BYTE		N06     Dn3   v056
	BYTE	W12
	BYTE		        An2   v048
	BYTE		N06     Cn3   v056
	BYTE	W12
	BYTE		        An2   v048
	BYTE		N06     Cn3   v052
	BYTE	W12
	BYTE		        An2   v048
	BYTE		N06     Cn3   v052
	BYTE	W12
	BYTE		        An2   v048
	BYTE		N06     Cn3   v064
	BYTE	W12
	BYTE		        An2   v048
	BYTE		N06     Cn3   v056
	BYTE	W12
	BYTE		        An2   v052
	BYTE		N06     Cn3   v064
	BYTE	W12
// 005   ----------------------------------------
	BYTE		        An2   v052
	BYTE		N06     Cn3   v056
	BYTE	W12
	BYTE		        An2   v052
	BYTE		N06     Cn3   v064
	BYTE	W12
	BYTE		        An2   v056
	BYTE		N06     Dn3   v064
	BYTE	W12
	BYTE		        An2   v048
	BYTE		N06     Dn3   v052
	BYTE	W12
	BYTE		        An2 
	BYTE		N06     Dn3   v056
	BYTE	W12
	BYTE		        An2   v048
	BYTE		N06     Dn3 
	BYTE	W12
	BYTE		        An2 
	BYTE		N06     Dn3   v052
	BYTE	W12
	BYTE		        An2 
	BYTE		N06     Dn3   v056
	BYTE	W12
// 006   ----------------------------------------
	BYTE		        An2 
	BYTE		N06     Dn3   v064
	BYTE	W12
	BYTE		        An2   v056
	BYTE		N06     Dn3 
	BYTE	W12
	BYTE		        An2   v064
	BYTE		N06     En3 
	BYTE	W12
	BYTE		        An2   v052
	BYTE		N06     En3   v056
	BYTE	W12
	BYTE		        An2   v052
	BYTE		N06     En3   v064
	BYTE	W12
	BYTE		        An2   v056
	BYTE		N06     En3   v072
	BYTE	W12
	BYTE		        Bn2   v056
	BYTE		N06     Dn3   v064
	BYTE	W12
	BYTE		        Bn2   v056
	BYTE		N06     Dn3   v052
	BYTE	W12
// 007   ----------------------------------------
	BYTE		        Bn2   v084
	BYTE		N06     Dn3 
	BYTE	W12
	BYTE		        Bn2 
	BYTE		N06     Dn3 
	BYTE	W36
	BYTE		        Cn3   v072
	BYTE	W06
	BYTE		        As2 
	BYTE	W06
	BYTE		        Cn3 
	BYTE	W06
	BYTE		        Ds3   v064
	BYTE	W06
	BYTE		N48     Gs3 
	BYTE	W24
// 008   ----------------------------------------
StoryLangrisser_8_008:
	BYTE	W24
	BYTE		N48     Gs3   v064
	BYTE	W48
	BYTE		N06   
	BYTE	W06
	BYTE		        As3 
	BYTE	W06
	BYTE		N36     Cn4 
	BYTE	W12
	BYTE	PEND
// 009   ----------------------------------------
	BYTE	W24
	BYTE		N96     Bn3   v072
	BYTE	W72
// 010   ----------------------------------------
	BYTE	W24
	BYTE		N48   
	BYTE	W48
	BYTE		        Dn3 
	BYTE	W24
// 011   ----------------------------------------
	BYTE	W48
	BYTE		N06     Cn3 
	BYTE	W06
	BYTE		        As2 
	BYTE	W06
	BYTE		        Cn3 
	BYTE	W06
	BYTE		        Ds3   v064
	BYTE	W06
	BYTE		N48     Gs3 
	BYTE	W24
// 012   ----------------------------------------
	BYTE	PATT
	 POIN2	StoryLangrisser_8_008
// 013   ----------------------------------------
	BYTE	W24
	BYTE		N96     Bn3   v072
	BYTE	W72
// 014   ----------------------------------------
	BYTE	W24
	BYTE		N90     Dn3 
	BYTE	W72
// 015   ----------------------------------------
	BYTE	W18
	BYTE	GoTo
	 POIN2	StoryLangrisser_8_B1
StoryLangrisser_8_B2:
	BYTE	W06
	BYTE	FINE

//**************** Track 9 (Midi-Chn.9) ****************//

StoryLangrisser_9:
	BYTE	KEYSH   StoryLangrisser_key+0
// 000   ----------------------------------------
	BYTE		VOICE   45
	BYTE		VOL     63*StoryLangrisser_mvl/mxv
	BYTE	W09
	BYTE		PAN     c_v-40
	BYTE	W84
	BYTE	W03
// 001   ----------------------------------------
	BYTE	W18
StoryLangrisser_9_B1:
	BYTE	W06
	BYTE		N06     An1   v072
	BYTE		N06     En2   v076
	BYTE	W12
	BYTE		        An1   v068
	BYTE		N06     En2 
	BYTE	W12
	BYTE		        An1 
	BYTE		N06     En2   v076
	BYTE	W12
	BYTE		        An1   v072
	BYTE		N06     En2 
	BYTE	W12
	BYTE		        An1   v068
	BYTE		N06     En2   v076
	BYTE	W12
	BYTE		        An1   v068
	BYTE		N06     En2   v072
	BYTE	W12
// 002   ----------------------------------------
StoryLangrisser_9_002:
	BYTE		N06     An1   v072
	BYTE		N06     En2 
	BYTE	W12
	BYTE		        An1   v084
	BYTE		N06     En2   v076
	BYTE	W12
	BYTE		        Dn2 
	BYTE		N06     Fs2 
	BYTE	W12
	BYTE		        Dn2   v072
	BYTE		N06     Fs2 
	BYTE	W12
	BYTE		        Dn2   v068
	BYTE		N06     Fs2   v076
	BYTE	W12
	BYTE		        Dn2   v068
	BYTE		N06     Fs2   v076
	BYTE	W12
	BYTE		        Dn2   v068
	BYTE		N06     Fs2 
	BYTE	W12
	BYTE		        Dn2 
	BYTE		N06     Fs2   v072
	BYTE	W12
	BYTE	PEND
// 003   ----------------------------------------
StoryLangrisser_9_003:
	BYTE		N06     Dn2   v068
	BYTE		N06     Fs2   v072
	BYTE	W12
	BYTE		        Dn2   v068
	BYTE		N06     Fs2   v084
	BYTE	W12
	BYTE		        Fn1   v076
	BYTE		N06     Cn2 
	BYTE	W12
	BYTE		        Fn1   v064
	BYTE		N06     Cn2   v076
	BYTE	W12
	BYTE		        Fn1   v068
	BYTE		N06     Cn2   v072
	BYTE	W12
	BYTE		        Fn1 
	BYTE		N06     Cn2   v076
	BYTE	W12
	BYTE		        Gn1 
	BYTE		N06     Dn2 
	BYTE	W12
	BYTE		        Gn1   v084
	BYTE		N06     Dn2 
	BYTE	W12
	BYTE	PEND
// 004   ----------------------------------------
	BYTE		        Gn1   v076
	BYTE		N06     Dn2   v084
	BYTE	W12
	BYTE		        Gn1 
	BYTE		N06     Dn2   v092
	BYTE	W12
	BYTE		        An1   v072
	BYTE		N06     En2   v076
	BYTE	W12
	BYTE		        An1   v068
	BYTE		N06     En2 
	BYTE	W12
	BYTE		        An1 
	BYTE		N06     En2   v076
	BYTE	W12
	BYTE		        An1   v072
	BYTE		N06     En2 
	BYTE	W12
	BYTE		        An1   v068
	BYTE		N06     En2   v076
	BYTE	W12
	BYTE		        An1   v068
	BYTE		N06     En2   v072
	BYTE	W12
// 005   ----------------------------------------
	BYTE	PATT
	 POIN2	StoryLangrisser_9_002
// 006   ----------------------------------------
	BYTE	PATT
	 POIN2	StoryLangrisser_9_003
// 007   ----------------------------------------
	BYTE		N24     Gn1   v104
	BYTE	W24
	BYTE		N48     Dn2   v092
	BYTE	W48
	BYTE		        Cn2   v084
	BYTE	W24
// 008   ----------------------------------------
	BYTE	W24
	BYTE		        Fn2 
	BYTE	W48
	BYTE		        Ds2   v092
	BYTE	W24
// 009   ----------------------------------------
	BYTE	W24
	BYTE		N96     Dn2 
	BYTE	W72
// 010   ----------------------------------------
	BYTE	W24
	BYTE		N48   
	BYTE	W72
// 011   ----------------------------------------
	BYTE		N24     Gn1 
	BYTE	W24
	BYTE		N48     Dn2   v104
	BYTE	W48
	BYTE		        Cn2   v084
	BYTE	W24
// 012   ----------------------------------------
	BYTE	W24
	BYTE		        Fn2   v104
	BYTE	W48
	BYTE		        Ds2   v092
	BYTE	W24
// 013   ----------------------------------------
	BYTE	W24
	BYTE		TIE     Dn2 
	BYTE	W72
// 014   ----------------------------------------
	BYTE	W96
// 015   ----------------------------------------
	BYTE	W18
	BYTE		EOT   
	BYTE	GoTo
	 POIN2	StoryLangrisser_9_B1
StoryLangrisser_9_B2:
	BYTE	W06
	BYTE	FINE

//**************** Track 10 (Midi-Chn.11) ****************//

StoryLangrisser_10:
	BYTE	KEYSH   StoryLangrisser_key+0
// 000   ----------------------------------------
	BYTE		VOICE   123
	BYTE		VOL     73*StoryLangrisser_mvl/mxv
	BYTE	W09
	BYTE		PAN     c_v+0
	BYTE	W15
	BYTE		N01     Dn1   v072
	BYTE	W12
	BYTE		        Dn1   v032
	BYTE	W06
	BYTE		        Dn1   v044
	BYTE	W06
	BYTE		        Dn1   v072
	BYTE	W12
	BYTE		        Dn1   v032
	BYTE	W06
	BYTE		        Dn1   v044
	BYTE	W06
	BYTE		        Dn1   v072
	BYTE	W12
	BYTE		        Dn1   v032
	BYTE	W06
	BYTE		        Dn1   v044
	BYTE	W06
// 001   ----------------------------------------
	BYTE		        Dn1   v072
	BYTE	W06
	BYTE		        Dn1   v032
	BYTE	W06
	BYTE		        Dn1   v060
	BYTE	W06
StoryLangrisser_10_B1:
	BYTE		N01     Dn1   v044
	BYTE	W06
	BYTE		        Cn1   v072
	BYTE		N01     Dn1 
	BYTE		N01     Bn2   v100
	BYTE	W12
	BYTE		        Dn1   v032
	BYTE	W06
	BYTE		        Dn1   v044
	BYTE	W06
	BYTE		        Dn1   v072
	BYTE	W12
	BYTE		        Dn1   v032
	BYTE	W06
	BYTE		        Dn1   v044
	BYTE	W06
	BYTE		        Dn1   v072
	BYTE	W12
	BYTE		        Dn1   v032
	BYTE	W06
	BYTE		        Dn1   v044
	BYTE	W06
// 002   ----------------------------------------
StoryLangrisser_10_002:
	BYTE		N01     Dn1   v072
	BYTE	W04
	BYTE		N01   
	BYTE	W02
	BYTE		        Dn1   v032
	BYTE	W02
	BYTE		N01   
	BYTE	W04
	BYTE		        Dn1   v060
	BYTE	W06
	BYTE		        Dn1   v044
	BYTE	W06
	BYTE		        Dn1   v072
	BYTE	W12
	BYTE		        Dn1   v032
	BYTE	W06
	BYTE		        Dn1   v044
	BYTE	W06
	BYTE		        Dn1   v072
	BYTE	W12
	BYTE		        Dn1   v032
	BYTE	W06
	BYTE		        Dn1   v044
	BYTE	W06
	BYTE		        Dn1   v072
	BYTE	W12
	BYTE		        Dn1   v032
	BYTE	W06
	BYTE		        Dn1   v044
	BYTE	W06
	BYTE	PEND
// 003   ----------------------------------------
StoryLangrisser_10_003:
	BYTE		N01     Dn1   v072
	BYTE	W06
	BYTE		        Dn1   v032
	BYTE	W06
	BYTE		        Dn1   v060
	BYTE	W06
	BYTE		        Dn1   v044
	BYTE	W06
	BYTE		        Dn1   v072
	BYTE	W12
	BYTE		        Dn1   v032
	BYTE	W06
	BYTE		        Dn1   v044
	BYTE	W06
	BYTE		        Dn1   v072
	BYTE	W12
	BYTE		        Dn1   v032
	BYTE	W06
	BYTE		        Dn1   v044
	BYTE	W06
	BYTE		        Dn1   v072
	BYTE	W12
	BYTE		        Dn1   v032
	BYTE	W06
	BYTE		        Dn1   v044
	BYTE	W06
	BYTE	PEND
// 004   ----------------------------------------
StoryLangrisser_10_004:
	BYTE		N01     Dn1   v072
	BYTE	W06
	BYTE		        Dn1   v032
	BYTE	W06
	BYTE		        Dn1   v060
	BYTE	W06
	BYTE		        Dn1   v044
	BYTE	W06
	BYTE		        Cn1   v072
	BYTE		N01     Dn1 
	BYTE		N01     Bn2   v100
	BYTE	W12
	BYTE		        Dn1   v032
	BYTE	W06
	BYTE		        Dn1   v044
	BYTE	W06
	BYTE		        Dn1   v072
	BYTE	W12
	BYTE		        Dn1   v032
	BYTE	W06
	BYTE		        Dn1   v044
	BYTE	W06
	BYTE		        Dn1   v072
	BYTE	W12
	BYTE		        Dn1   v032
	BYTE	W06
	BYTE		        Dn1   v044
	BYTE	W06
	BYTE	PEND
// 005   ----------------------------------------
	BYTE	PATT
	 POIN2	StoryLangrisser_10_002
// 006   ----------------------------------------
	BYTE	PATT
	 POIN2	StoryLangrisser_10_003
// 007   ----------------------------------------
	BYTE	PATT
	 POIN2	StoryLangrisser_10_003
// 008   ----------------------------------------
	BYTE	PATT
	 POIN2	StoryLangrisser_10_003
// 009   ----------------------------------------
	BYTE	PATT
	 POIN2	StoryLangrisser_10_004
// 010   ----------------------------------------
	BYTE	PATT
	 POIN2	StoryLangrisser_10_003
// 011   ----------------------------------------
	BYTE	PATT
	 POIN2	StoryLangrisser_10_003
// 012   ----------------------------------------
	BYTE	PATT
	 POIN2	StoryLangrisser_10_003
// 013   ----------------------------------------
	BYTE	PATT
	 POIN2	StoryLangrisser_10_004
// 014   ----------------------------------------
	BYTE	PATT
	 POIN2	StoryLangrisser_10_003
// 015   ----------------------------------------
	BYTE		N01     Dn1   v072
	BYTE	W04
	BYTE		        Dn1   v020
	BYTE	W04
	BYTE		        Dn1   v032
	BYTE	W04
	BYTE		        Dn1   v040
	BYTE	W04
	BYTE		        Dn1   v052
	BYTE	W02
	BYTE	GoTo
	 POIN2	StoryLangrisser_10_B1
StoryLangrisser_10_B2:
	BYTE	W02
	BYTE		N01     Dn1   v060
	BYTE	W04
	BYTE	FINE

//**************** Track 11 (Midi-Chn.13) ****************//

StoryLangrisser_11:
	BYTE	KEYSH   StoryLangrisser_key+0
// 000   ----------------------------------------
	BYTE		VOICE   116
	BYTE		VOL     69*StoryLangrisser_mvl/mxv
	BYTE	W09
	BYTE		PAN     c_v-20
	BYTE	W84
	BYTE	W03
// 001   ----------------------------------------
	BYTE	W12
	BYTE		N12     En2   v100
	BYTE	W06
StoryLangrisser_11_B1:
	BYTE	W06
	BYTE		N96     An1   v100
	BYTE	W72
// 002   ----------------------------------------
	BYTE	W96
// 003   ----------------------------------------
	BYTE	W96
// 004   ----------------------------------------
	BYTE	W12
	BYTE		N12     En2 
	BYTE	W12
	BYTE		N96     An1 
	BYTE	W72
// 005   ----------------------------------------
	BYTE	W96
// 006   ----------------------------------------
	BYTE	W96
// 007   ----------------------------------------
	BYTE	W96
// 008   ----------------------------------------
StoryLangrisser_11_008:
	BYTE	W72
	BYTE		N03     Gs1   v012
	BYTE	W04
	BYTE		N02     Gs1   v016
	BYTE	W02
	BYTE		N01     Gs1   v020
	BYTE	W02
	BYTE		        Gs1   v024
	BYTE	W04
	BYTE		N03     Gs1   v028
	BYTE	W04
	BYTE		N02     Gs1   v036
	BYTE	W02
	BYTE		N01     Gs1   v040
	BYTE	W02
	BYTE		        Gs1   v044
	BYTE	W04
	BYTE	PEND
// 009   ----------------------------------------
StoryLangrisser_11_009:
	BYTE		N03     Gs1   v048
	BYTE	W04
	BYTE		N02     Gs1   v052
	BYTE	W02
	BYTE		N01     Gs1   v056
	BYTE	W02
	BYTE		        Gs1   v064
	BYTE	W04
	BYTE		N03     Gs1   v068
	BYTE	W04
	BYTE		N02     Gs1   v072
	BYTE	W02
	BYTE		N01     Gs1   v076
	BYTE	W02
	BYTE		        Gs1   v080
	BYTE	W04
	BYTE		N96     Gn1   v100
	BYTE	W72
	BYTE	PEND
// 010   ----------------------------------------
	BYTE	W96
// 011   ----------------------------------------
	BYTE	W96
// 012   ----------------------------------------
	BYTE	PATT
	 POIN2	StoryLangrisser_11_008
// 013   ----------------------------------------
	BYTE	PATT
	 POIN2	StoryLangrisser_11_009
// 014   ----------------------------------------
	BYTE	W96
// 015   ----------------------------------------
	BYTE	W12
	BYTE		N11     En2   v100
	BYTE	W06
	BYTE	GoTo
	 POIN2	StoryLangrisser_11_B1
StoryLangrisser_11_B2:
	BYTE	W06
	BYTE	FINE

//******************************************************//
	ALIGN 4

StoryLangrisser:
	BYTE	11	// NumTrks
	BYTE	0	// NumBlks
	BYTE	StoryLangrisser_pri	// Priority
	BYTE	StoryLangrisser_rev	// Reverb.

	POIN2	StoryLangrisser_grp

	POIN2	StoryLangrisser_1
	POIN2	StoryLangrisser_2
	POIN2	StoryLangrisser_3
	POIN2	StoryLangrisser_4
	POIN2	StoryLangrisser_5
	POIN2	StoryLangrisser_6
	POIN2	StoryLangrisser_7
	POIN2	StoryLangrisser_8
	POIN2	StoryLangrisser_9
	POIN2	StoryLangrisser_10
	POIN2	StoryLangrisser_11

	
