//Event file generated from Sappy .s format.
	#include "MPlayDef.event"

	#define	TenseAtmosphere_grp  voicegroup000
	#define	TenseAtmosphere_pri  0
	#define	TenseAtmosphere_rev  0
	#define	TenseAtmosphere_mvl  80
	#define	TenseAtmosphere_key  0
	#define	TenseAtmosphere_tbs  1
	#define	TenseAtmosphere_exg  0
	#define	TenseAtmosphere_cmp  1

	// .rodata
	//	TenseAtmosphere
	ALIGN 4

//**************** Track 1 (Midi-Chn.1) ****************//

TenseAtmosphere_1:
	BYTE	KEYSH   TenseAtmosphere_key+0
// 000   ----------------------------------------
	BYTE	TEMPO   160*TenseAtmosphere_tbs/2
	BYTE		VOICE   68
	BYTE		VOL     58*TenseAtmosphere_mvl/mxv
	BYTE		PAN     c_v-26
	BYTE	W96
TenseAtmosphere_1_B1:
// 001   ----------------------------------------
	BYTE		N60     Bn3   v100
	BYTE	W60
	BYTE		N12   
	BYTE	W12
	BYTE		        An3 
	BYTE		N12     Bn3   v056
	BYTE	W12
	BYTE		        Gn3   v100
	BYTE		N12     An3   v056
	BYTE	W12
// 002   ----------------------------------------
TenseAtmosphere_1_002:
	BYTE		N12     Gn3   v056
	BYTE		N48     An3   v100
	BYTE	W48
	BYTE		N12     An3   v056
	BYTE		N48     Dn4   v100
	BYTE	W48
	BYTE	PEND
// 003   ----------------------------------------
TenseAtmosphere_1_003:
	BYTE		N48     Cn4   v100
	BYTE		N12     Dn4   v056
	BYTE	W48
	BYTE		N18     Bn3   v100
	BYTE		N12     Cn4   v056
	BYTE	W18
	BYTE		N18     Gn3   v100
	BYTE		N12     Bn3   v056
	BYTE	W18
	BYTE		        Gn3 
	BYTE		N12     Bn3   v100
	BYTE	W12
	BYTE	PEND
// 004   ----------------------------------------
TenseAtmosphere_1_004:
	BYTE		N72     An3   v100
	BYTE		N12     Bn3   v056
	BYTE	W72
	BYTE		        An3 
	BYTE		N12     Bn3   v100
	BYTE	W12
	BYTE		        Bn3   v056
	BYTE		N12     Cn4   v100
	BYTE	W12
	BYTE	PEND
// 005   ----------------------------------------
TenseAtmosphere_1_005:
	BYTE		N18     Bn3   v100
	BYTE		N12     Cn4   v056
	BYTE	W18
	BYTE		N18     An3   v100
	BYTE		N12     Bn3   v056
	BYTE	W18
	BYTE		        Gn3   v100
	BYTE		N12     An3   v056
	BYTE	W12
	BYTE		N18     Fs3   v100
	BYTE		N12     Gn3   v056
	BYTE	W18
	BYTE		        Fs3 
	BYTE		N18     Gn3   v100
	BYTE	W18
	BYTE		N12     Gn3   v056
	BYTE		N12     An3   v100
	BYTE	W12
	BYTE	PEND
// 006   ----------------------------------------
TenseAtmosphere_1_006:
	BYTE		N36     En3   v100
	BYTE		N12     An3   v056
	BYTE	W36
	BYTE		        En3 
	BYTE		N06     Cn4   v100
	BYTE	W06
	BYTE		        Bn3 
	BYTE		N06     Cn4   v056
	BYTE	W06
	BYTE		        Bn3 
	BYTE		N48     Cn4   v100
	BYTE	W48
	BYTE	PEND
// 007   ----------------------------------------
TenseAtmosphere_1_007:
	BYTE		N12     Cn4   v056
	BYTE		N36     Dn4   v100
	BYTE	W36
	BYTE		N06     Gn3 
	BYTE		N12     Dn4   v056
	BYTE	W06
	BYTE		N06     Fs3   v100
	BYTE		N06     Gn3   v056
	BYTE	W06
	BYTE		        Fs3 
	BYTE		N48     Gn3   v100
	BYTE	W48
	BYTE	PEND
// 008   ----------------------------------------
	BYTE		N12     Gn3   v056
	BYTE		N36     Dn4   v100
	BYTE	W36
	BYTE		N06     Gn3 
	BYTE		N12     Dn4   v056
	BYTE	W06
	BYTE		N06     Fs3   v100
	BYTE		N06     Gn3   v056
	BYTE	W06
	BYTE		        Fs3 
	BYTE		N48     Gn3   v100
	BYTE	W48
// 009   ----------------------------------------
	BYTE		N12     Gn3   v056
	BYTE		N60     Bn3   v100
	BYTE	W60
	BYTE		N12   
	BYTE	W12
	BYTE		        An3 
	BYTE		N12     Bn3   v056
	BYTE	W12
	BYTE		        Gn3   v100
	BYTE		N12     An3   v056
	BYTE	W12
// 010   ----------------------------------------
	BYTE	PATT
	 POIN2	TenseAtmosphere_1_002
// 011   ----------------------------------------
	BYTE	PATT
	 POIN2	TenseAtmosphere_1_003
// 012   ----------------------------------------
	BYTE	PATT
	 POIN2	TenseAtmosphere_1_004
// 013   ----------------------------------------
	BYTE	PATT
	 POIN2	TenseAtmosphere_1_005
// 014   ----------------------------------------
	BYTE	PATT
	 POIN2	TenseAtmosphere_1_006
// 015   ----------------------------------------
	BYTE	PATT
	 POIN2	TenseAtmosphere_1_007
// 016   ----------------------------------------
	BYTE		N12     Gn3   v056
	BYTE		N36     Dn4   v100
	BYTE	W36
	BYTE		        As3 
	BYTE		N12     Dn4   v056
	BYTE	W36
	BYTE		        As3 
	BYTE		N24     Cn4   v100
	BYTE	W24
// 017   ----------------------------------------
	BYTE		N12     Cn4   v056
	BYTE	W96
// 018   ----------------------------------------
	BYTE	W96
// 019   ----------------------------------------
	BYTE	W96
// 020   ----------------------------------------
	BYTE	W96
// 021   ----------------------------------------
	BYTE	W96
// 022   ----------------------------------------
	BYTE	W96
// 023   ----------------------------------------
	BYTE	W96
// 024   ----------------------------------------
	BYTE	W96
// 025   ----------------------------------------
TenseAtmosphere_1_025:
	BYTE		N84     As3   v127
	BYTE	W84
	BYTE		N06   
	BYTE	W06
	BYTE		        As3   v056
	BYTE		N06     Cs4   v127
	BYTE	W06
	BYTE	PEND
// 026   ----------------------------------------
TenseAtmosphere_1_026:
	BYTE		N06     Cs4   v056
	BYTE		N96     Dn4   v127
	BYTE	W96
	BYTE	PEND
// 027   ----------------------------------------
TenseAtmosphere_1_027:
	BYTE		N36     Cs4   v127
	BYTE		N12     Dn4   v056
	BYTE	W36
	BYTE		N36     An3   v127
	BYTE		N12     Cs4   v056
	BYTE	W36
	BYTE		        An3 
	BYTE		N24     Cs4   v127
	BYTE	W24
	BYTE	PEND
// 028   ----------------------------------------
TenseAtmosphere_1_028:
	BYTE		N96     Cn4   v127
	BYTE		N12     Cs4   v056
	BYTE	W96
	BYTE	PEND
// 029   ----------------------------------------
TenseAtmosphere_1_029:
	BYTE		N84     As3   v127
	BYTE		N12     Cn4   v056
	BYTE	W84
	BYTE		N06     As3   v127
	BYTE	W06
	BYTE		        As3   v056
	BYTE		N06     Cs4   v127
	BYTE	W06
	BYTE	PEND
// 030   ----------------------------------------
TenseAtmosphere_1_030:
	BYTE		N06     Cs4   v056
	BYTE		N48     Dn4   v127
	BYTE	W48
	BYTE		N12     Dn4   v056
	BYTE		N48     Gn4   v127
	BYTE	W48
	BYTE	PEND
// 031   ----------------------------------------
TenseAtmosphere_1_031:
	BYTE		N18     Fn4   v127
	BYTE		N12     Gn4   v056
	BYTE	W18
	BYTE		N18     En4   v127
	BYTE		N12     Fn4   v056
	BYTE	W18
	BYTE		        En4 
	BYTE		N12     Fn4   v127
	BYTE	W12
	BYTE		N18     En4 
	BYTE		N12     Fn4   v056
	BYTE	W18
	BYTE		        En4 
	BYTE		N18     Fn4   v127
	BYTE	W18
	BYTE		N12     En4 
	BYTE		N12     Fn4   v056
	BYTE	W12
	BYTE	PEND
// 032   ----------------------------------------
	BYTE		N48     Ds4   v127
	BYTE		N12     En4   v056
	BYTE	W48
	BYTE		N48     As3   v127
	BYTE		N12     Ds4   v056
	BYTE	W48
// 033   ----------------------------------------
	BYTE	PATT
	 POIN2	TenseAtmosphere_1_025
// 034   ----------------------------------------
	BYTE	PATT
	 POIN2	TenseAtmosphere_1_026
// 035   ----------------------------------------
	BYTE	PATT
	 POIN2	TenseAtmosphere_1_027
// 036   ----------------------------------------
	BYTE	PATT
	 POIN2	TenseAtmosphere_1_028
// 037   ----------------------------------------
	BYTE	PATT
	 POIN2	TenseAtmosphere_1_029
// 038   ----------------------------------------
	BYTE	PATT
	 POIN2	TenseAtmosphere_1_030
// 039   ----------------------------------------
	BYTE	PATT
	 POIN2	TenseAtmosphere_1_031
// 040   ----------------------------------------
	BYTE		N48     Ds4   v127
	BYTE		N12     En4   v056
	BYTE	W48
	BYTE		        Ds4 
	BYTE		N48     Gn4   v127
	BYTE	W48
// 041   ----------------------------------------
	BYTE		N12     Gn4   v056
	BYTE	W96
// 042   ----------------------------------------
	BYTE	W96
// 043   ----------------------------------------
	BYTE	W96
// 044   ----------------------------------------
	BYTE	W96
// 045   ----------------------------------------
	BYTE	W96
// 046   ----------------------------------------
	BYTE	W96
// 047   ----------------------------------------
	BYTE	W96
// 048   ----------------------------------------
	BYTE	W96
// 049   ----------------------------------------
	BYTE	W96
// 050   ----------------------------------------
	BYTE	W96
// 051   ----------------------------------------
	BYTE	W96
// 052   ----------------------------------------
	BYTE	W96
// 053   ----------------------------------------
	BYTE	W96
// 054   ----------------------------------------
	BYTE	W96
// 055   ----------------------------------------
	BYTE	W96
// 056   ----------------------------------------
	BYTE	W96
	BYTE	GoTo
	 POIN2	TenseAtmosphere_1_B1
TenseAtmosphere_1_B2:
// 057   ----------------------------------------
	BYTE	FINE

//**************** Track 2 (Midi-Chn.2) ****************//

TenseAtmosphere_2:
	BYTE	KEYSH   TenseAtmosphere_key+0
// 000   ----------------------------------------
	BYTE		VOICE   42
	BYTE		VOL     58*TenseAtmosphere_mvl/mxv
	BYTE		PAN     c_v+24
	BYTE	W96
TenseAtmosphere_2_B1:
// 001   ----------------------------------------
TenseAtmosphere_2_001:
	BYTE	W06
	BYTE		N60     Bn3   v088
	BYTE	W60
	BYTE		N12   
	BYTE	W12
	BYTE		        An3 
	BYTE	W12
	BYTE		        Gn3 
	BYTE	W06
	BYTE	PEND
// 002   ----------------------------------------
TenseAtmosphere_2_002:
	BYTE	W06
	BYTE		N48     An3   v088
	BYTE	W48
	BYTE		        Dn4 
	BYTE	W42
	BYTE	PEND
// 003   ----------------------------------------
TenseAtmosphere_2_003:
	BYTE	W06
	BYTE		N48     Cn4   v088
	BYTE	W48
	BYTE		N18     Bn3 
	BYTE	W18
	BYTE		        Gn3 
	BYTE	W18
	BYTE		N12     Bn3 
	BYTE	W06
	BYTE	PEND
// 004   ----------------------------------------
TenseAtmosphere_2_004:
	BYTE	W06
	BYTE		N72     An3   v088
	BYTE	W72
	BYTE		N12     Bn3 
	BYTE	W12
	BYTE		        Cn4 
	BYTE	W06
	BYTE	PEND
// 005   ----------------------------------------
TenseAtmosphere_2_005:
	BYTE	W06
	BYTE		N18     Bn3   v088
	BYTE	W18
	BYTE		        An3 
	BYTE	W18
	BYTE		N12     Gn3 
	BYTE	W12
	BYTE		N18     Fs3 
	BYTE	W18
	BYTE		        Gn3 
	BYTE	W18
	BYTE		N12     An3 
	BYTE	W06
	BYTE	PEND
// 006   ----------------------------------------
TenseAtmosphere_2_006:
	BYTE	W06
	BYTE		N36     En3   v088
	BYTE	W36
	BYTE		N06     Cn4 
	BYTE	W06
	BYTE		        Bn3 
	BYTE	W06
	BYTE		N48     Cn4 
	BYTE	W42
	BYTE	PEND
// 007   ----------------------------------------
TenseAtmosphere_2_007:
	BYTE	W06
	BYTE		N36     Dn4   v088
	BYTE	W36
	BYTE		N06     Gn3 
	BYTE	W06
	BYTE		        Fs3 
	BYTE	W06
	BYTE		N48     Gn3 
	BYTE	W42
	BYTE	PEND
// 008   ----------------------------------------
	BYTE	PATT
	 POIN2	TenseAtmosphere_2_007
// 009   ----------------------------------------
	BYTE	PATT
	 POIN2	TenseAtmosphere_2_001
// 010   ----------------------------------------
	BYTE	PATT
	 POIN2	TenseAtmosphere_2_002
// 011   ----------------------------------------
	BYTE	PATT
	 POIN2	TenseAtmosphere_2_003
// 012   ----------------------------------------
	BYTE	PATT
	 POIN2	TenseAtmosphere_2_004
// 013   ----------------------------------------
	BYTE	PATT
	 POIN2	TenseAtmosphere_2_005
// 014   ----------------------------------------
	BYTE	PATT
	 POIN2	TenseAtmosphere_2_006
// 015   ----------------------------------------
	BYTE	PATT
	 POIN2	TenseAtmosphere_2_007
// 016   ----------------------------------------
	BYTE	W06
	BYTE		N36     Dn4   v088
	BYTE	W36
	BYTE		        As3 
	BYTE	W36
	BYTE		N24     Cn4 
	BYTE	W18
// 017   ----------------------------------------
	BYTE	W96
// 018   ----------------------------------------
	BYTE	W96
// 019   ----------------------------------------
	BYTE	W96
// 020   ----------------------------------------
	BYTE	W96
// 021   ----------------------------------------
	BYTE	W96
// 022   ----------------------------------------
	BYTE	W96
// 023   ----------------------------------------
	BYTE	W96
// 024   ----------------------------------------
	BYTE	W96
// 025   ----------------------------------------
	BYTE	W96
// 026   ----------------------------------------
	BYTE	W96
// 027   ----------------------------------------
	BYTE	W96
// 028   ----------------------------------------
	BYTE	W96
// 029   ----------------------------------------
	BYTE	W96
// 030   ----------------------------------------
	BYTE	W96
// 031   ----------------------------------------
	BYTE	W96
// 032   ----------------------------------------
	BYTE	W96
// 033   ----------------------------------------
	BYTE	W96
// 034   ----------------------------------------
	BYTE	W96
// 035   ----------------------------------------
	BYTE	W96
// 036   ----------------------------------------
	BYTE	W96
// 037   ----------------------------------------
	BYTE	W96
// 038   ----------------------------------------
	BYTE	W96
// 039   ----------------------------------------
	BYTE	W96
// 040   ----------------------------------------
	BYTE	W96
// 041   ----------------------------------------
	BYTE	W96
// 042   ----------------------------------------
	BYTE	W96
// 043   ----------------------------------------
	BYTE	W96
// 044   ----------------------------------------
	BYTE	W96
// 045   ----------------------------------------
	BYTE	W96
// 046   ----------------------------------------
	BYTE	W96
// 047   ----------------------------------------
	BYTE	W96
// 048   ----------------------------------------
	BYTE	W96
// 049   ----------------------------------------
	BYTE	W96
// 050   ----------------------------------------
	BYTE	W96
// 051   ----------------------------------------
	BYTE	W96
// 052   ----------------------------------------
	BYTE	W96
// 053   ----------------------------------------
	BYTE	W96
// 054   ----------------------------------------
	BYTE	W96
// 055   ----------------------------------------
	BYTE	W96
// 056   ----------------------------------------
	BYTE	W96
	BYTE	GoTo
	 POIN2	TenseAtmosphere_2_B1
TenseAtmosphere_2_B2:
// 057   ----------------------------------------
	BYTE	FINE

//**************** Track 3 (Midi-Chn.3) ****************//

TenseAtmosphere_3:
	BYTE	KEYSH   TenseAtmosphere_key+0
// 000   ----------------------------------------
	BYTE		VOICE   41
	BYTE		VOL     58*TenseAtmosphere_mvl/mxv
	BYTE		N06     Cs3   v100
	BYTE	W06
	BYTE		        Cs3   v056
	BYTE		N06     En3   v100
	BYTE	W06
	BYTE		        En3   v056
	BYTE		N06     Gn3   v100
	BYTE	W06
	BYTE		        Gn3   v056
	BYTE		N06     As3   v100
	BYTE	W06
	BYTE		        En3 
	BYTE		N06     As3   v056
	BYTE	W06
	BYTE		        En3 
	BYTE		N06     Gn3   v100
	BYTE	W06
	BYTE		        Gn3   v056
	BYTE		N06     As3   v100
	BYTE	W06
	BYTE		        As3   v056
	BYTE		N06     Cs4   v100
	BYTE	W06
	BYTE		        Gn3 
	BYTE		N06     Cs4   v056
	BYTE	W06
	BYTE		        Gn3 
	BYTE		N06     As3   v100
	BYTE	W06
	BYTE		        As3   v056
	BYTE		N06     Cs4   v100
	BYTE	W06
	BYTE		        Cs4   v056
	BYTE		N06     En4   v100
	BYTE	W06
	BYTE		        As3 
	BYTE		N06     En4   v056
	BYTE	W06
	BYTE		        As3 
	BYTE		N06     Cs4   v100
	BYTE	W06
	BYTE		        Cs4   v056
	BYTE		N06     En4   v100
	BYTE	W06
	BYTE		        En4   v056
	BYTE		N06     Gn4   v100
	BYTE	W06
TenseAtmosphere_3_B1:
// 001   ----------------------------------------
	BYTE		N96     Gn2   v072
	BYTE		N96     Gn3   v088
	BYTE		N06     Gn4   v056
	BYTE	W96
// 002   ----------------------------------------
TenseAtmosphere_3_002:
	BYTE		N96     An2   v072
	BYTE		N12     Gn3   v056
	BYTE		N96     An3   v088
	BYTE	W96
	BYTE	PEND
// 003   ----------------------------------------
TenseAtmosphere_3_003:
	BYTE		N96     Cn3   v072
	BYTE		N12     An3   v056
	BYTE		N96     Cn4   v088
	BYTE	W96
	BYTE	PEND
// 004   ----------------------------------------
TenseAtmosphere_3_004:
	BYTE		N96     An2   v072
	BYTE		N96     An3   v088
	BYTE		N12     Cn4   v056
	BYTE	W96
	BYTE	PEND
// 005   ----------------------------------------
TenseAtmosphere_3_005:
	BYTE		N48     Bn2   v072
	BYTE		N12     An3   v056
	BYTE		N48     Bn3   v088
	BYTE	W48
	BYTE		        An2   v072
	BYTE		N48     An3   v088
	BYTE		N12     Bn3   v056
	BYTE	W48
	BYTE	PEND
// 006   ----------------------------------------
TenseAtmosphere_3_006:
	BYTE		N96     Gn2   v072
	BYTE		N96     Gn3   v088
	BYTE		N12     An3   v056
	BYTE	W96
	BYTE	PEND
// 007   ----------------------------------------
TenseAtmosphere_3_007:
	BYTE		N96     Gn2   v072
	BYTE		N96     Gn3   v088
	BYTE	W96
	BYTE	PEND
// 008   ----------------------------------------
	BYTE	PATT
	 POIN2	TenseAtmosphere_3_002
// 009   ----------------------------------------
	BYTE	PATT
	 POIN2	TenseAtmosphere_3_006
// 010   ----------------------------------------
	BYTE	PATT
	 POIN2	TenseAtmosphere_3_002
// 011   ----------------------------------------
	BYTE	PATT
	 POIN2	TenseAtmosphere_3_003
// 012   ----------------------------------------
	BYTE	PATT
	 POIN2	TenseAtmosphere_3_004
// 013   ----------------------------------------
	BYTE	PATT
	 POIN2	TenseAtmosphere_3_005
// 014   ----------------------------------------
	BYTE	PATT
	 POIN2	TenseAtmosphere_3_006
// 015   ----------------------------------------
	BYTE	PATT
	 POIN2	TenseAtmosphere_3_007
// 016   ----------------------------------------
	BYTE	PATT
	 POIN2	TenseAtmosphere_3_002
// 017   ----------------------------------------
	BYTE		N96     Dn3   v072
	BYTE		N12     An3   v056
	BYTE		N96     Dn4   v088
	BYTE	W96
// 018   ----------------------------------------
TenseAtmosphere_3_018:
	BYTE		N96     Cn3   v072
	BYTE		N96     Cn4   v088
	BYTE		N12     Dn4   v056
	BYTE	W96
	BYTE	PEND
// 019   ----------------------------------------
TenseAtmosphere_3_019:
	BYTE		N96     Dn3   v072
	BYTE		N12     Cn4   v056
	BYTE		N96     Dn4   v088
	BYTE	W96
	BYTE	PEND
// 020   ----------------------------------------
TenseAtmosphere_3_020:
	BYTE		N96     Dn3   v072
	BYTE		N96     Dn4   v088
	BYTE	W96
	BYTE	PEND
// 021   ----------------------------------------
	BYTE	PATT
	 POIN2	TenseAtmosphere_3_020
// 022   ----------------------------------------
	BYTE	PATT
	 POIN2	TenseAtmosphere_3_018
// 023   ----------------------------------------
	BYTE	PATT
	 POIN2	TenseAtmosphere_3_019
// 024   ----------------------------------------
	BYTE	PATT
	 POIN2	TenseAtmosphere_3_020
// 025   ----------------------------------------
	BYTE		N12     Dn4   v056
	BYTE	W96
// 026   ----------------------------------------
	BYTE	W96
// 027   ----------------------------------------
	BYTE	W96
// 028   ----------------------------------------
	BYTE	W96
// 029   ----------------------------------------
	BYTE	W96
// 030   ----------------------------------------
	BYTE	W96
// 031   ----------------------------------------
	BYTE	W96
// 032   ----------------------------------------
	BYTE	W96
// 033   ----------------------------------------
	BYTE	W96
// 034   ----------------------------------------
	BYTE	W96
// 035   ----------------------------------------
	BYTE	W96
// 036   ----------------------------------------
	BYTE	W96
// 037   ----------------------------------------
	BYTE	W96
// 038   ----------------------------------------
	BYTE	W96
// 039   ----------------------------------------
	BYTE	W96
// 040   ----------------------------------------
	BYTE	W96
// 041   ----------------------------------------
	BYTE	W96
// 042   ----------------------------------------
	BYTE	W96
// 043   ----------------------------------------
	BYTE	W96
// 044   ----------------------------------------
	BYTE	W96
// 045   ----------------------------------------
	BYTE	W96
// 046   ----------------------------------------
	BYTE	W96
// 047   ----------------------------------------
	BYTE	W96
// 048   ----------------------------------------
	BYTE	W96
// 049   ----------------------------------------
	BYTE	W96
// 050   ----------------------------------------
	BYTE	W96
// 051   ----------------------------------------
	BYTE	W96
// 052   ----------------------------------------
	BYTE	W96
// 053   ----------------------------------------
	BYTE	W96
// 054   ----------------------------------------
	BYTE	W96
// 055   ----------------------------------------
	BYTE	W96
// 056   ----------------------------------------
	BYTE	W96
	BYTE	GoTo
	 POIN2	TenseAtmosphere_3_B1
TenseAtmosphere_3_B2:
// 057   ----------------------------------------
	BYTE	FINE

//**************** Track 4 (Midi-Chn.4) ****************//

TenseAtmosphere_4:
	BYTE	KEYSH   TenseAtmosphere_key+0
// 000   ----------------------------------------
	BYTE		VOICE   67
	BYTE		VOL     58*TenseAtmosphere_mvl/mxv
	BYTE		PAN     c_v+24
	BYTE	W96
TenseAtmosphere_4_B1:
// 001   ----------------------------------------
	BYTE		N60     Gn3   v100
	BYTE	W60
	BYTE		N12   
	BYTE	W12
	BYTE		        Fs3 
	BYTE		N12     Gn3   v056
	BYTE	W12
	BYTE		        En3   v100
	BYTE		N12     Fs3   v056
	BYTE	W12
// 002   ----------------------------------------
TenseAtmosphere_4_002:
	BYTE		N12     En3   v056
	BYTE		N48     Fs3   v100
	BYTE	W48
	BYTE		N12     Fs3   v056
	BYTE		N48     An3   v100
	BYTE	W48
	BYTE	PEND
// 003   ----------------------------------------
TenseAtmosphere_4_003:
	BYTE		N48     An3   v100
	BYTE	W48
	BYTE		N18     Gn3 
	BYTE		N12     An3   v056
	BYTE	W18
	BYTE		N18     Dn3   v100
	BYTE		N12     Gn3   v056
	BYTE	W18
	BYTE		        Dn3 
	BYTE		N12     Gn3   v100
	BYTE	W12
	BYTE	PEND
// 004   ----------------------------------------
TenseAtmosphere_4_004:
	BYTE		N48     Dn3   v100
	BYTE		N12     Gn3   v056
	BYTE	W48
	BYTE		        Dn3 
	BYTE		N24     Ds3   v100
	BYTE	W24
	BYTE		N12     Ds3   v056
	BYTE		N24     Fs3   v100
	BYTE	W24
	BYTE	PEND
// 005   ----------------------------------------
TenseAtmosphere_4_005:
	BYTE		N12     Fs3   v056
	BYTE		N18     Gn3   v100
	BYTE	W18
	BYTE		        Fs3 
	BYTE		N12     Gn3   v056
	BYTE	W18
	BYTE		        En3   v100
	BYTE		N12     Fs3   v056
	BYTE	W12
	BYTE		N18     Dn3   v100
	BYTE		N12     En3   v056
	BYTE	W18
	BYTE		        Dn3 
	BYTE		N18     En3   v100
	BYTE	W18
	BYTE		N12     En3   v056
	BYTE		N12     Fs3   v100
	BYTE	W12
	BYTE	PEND
// 006   ----------------------------------------
TenseAtmosphere_4_006:
	BYTE		N36     En3   v100
	BYTE		N12     Fs3   v056
	BYTE	W36
	BYTE		N06     An3   v100
	BYTE	W06
	BYTE		        Gn3 
	BYTE		N06     An3   v056
	BYTE	W06
	BYTE		        Gn3 
	BYTE		N48     An3   v100
	BYTE	W48
	BYTE	PEND
// 007   ----------------------------------------
TenseAtmosphere_4_007:
	BYTE		N12     An3   v056
	BYTE		N36     As3   v100
	BYTE	W36
	BYTE		N06     Ds3 
	BYTE		N12     As3   v056
	BYTE	W06
	BYTE		N06     Dn3   v100
	BYTE		N06     Ds3   v056
	BYTE	W06
	BYTE		        Dn3 
	BYTE		N48     Ds3   v100
	BYTE	W48
	BYTE	PEND
// 008   ----------------------------------------
	BYTE		N12     Ds3   v056
	BYTE		N48     An3   v100
	BYTE	W48
	BYTE		N24     Fn3 
	BYTE		N12     An3   v056
	BYTE	W24
	BYTE		N06     Dn3   v100
	BYTE		N12     Fn3   v056
	BYTE	W06
	BYTE		N06     Dn3 
	BYTE		N06     En3   v100
	BYTE	W06
	BYTE		        En3   v056
	BYTE		N06     Fn3   v100
	BYTE	W06
	BYTE		        Fn3   v056
	BYTE		N06     Fs3   v100
	BYTE	W06
// 009   ----------------------------------------
	BYTE		        Fs3   v056
	BYTE		N60     Gn3   v100
	BYTE	W60
	BYTE		N12   
	BYTE	W12
	BYTE		        Fs3 
	BYTE		N12     Gn3   v056
	BYTE	W12
	BYTE		        En3   v100
	BYTE		N12     Fs3   v056
	BYTE	W12
// 010   ----------------------------------------
	BYTE	PATT
	 POIN2	TenseAtmosphere_4_002
// 011   ----------------------------------------
	BYTE	PATT
	 POIN2	TenseAtmosphere_4_003
// 012   ----------------------------------------
	BYTE	PATT
	 POIN2	TenseAtmosphere_4_004
// 013   ----------------------------------------
	BYTE	PATT
	 POIN2	TenseAtmosphere_4_005
// 014   ----------------------------------------
	BYTE	PATT
	 POIN2	TenseAtmosphere_4_006
// 015   ----------------------------------------
	BYTE	PATT
	 POIN2	TenseAtmosphere_4_007
// 016   ----------------------------------------
	BYTE		N12     Ds3   v056
	BYTE		N36     An3   v100
	BYTE	W36
	BYTE		N36   
	BYTE	W36
	BYTE		N24     Fn3 
	BYTE		N12     An3   v056
	BYTE	W24
// 017   ----------------------------------------
	BYTE		        Fn3 
	BYTE	W96
// 018   ----------------------------------------
	BYTE	W96
// 019   ----------------------------------------
	BYTE	W96
// 020   ----------------------------------------
	BYTE	W96
// 021   ----------------------------------------
	BYTE	W96
// 022   ----------------------------------------
	BYTE	W96
// 023   ----------------------------------------
	BYTE	W96
// 024   ----------------------------------------
	BYTE	W96
// 025   ----------------------------------------
	BYTE	W96
// 026   ----------------------------------------
	BYTE	W96
// 027   ----------------------------------------
	BYTE	W96
// 028   ----------------------------------------
	BYTE	W96
// 029   ----------------------------------------
	BYTE	W96
// 030   ----------------------------------------
	BYTE	W96
// 031   ----------------------------------------
	BYTE	W96
// 032   ----------------------------------------
	BYTE	W96
// 033   ----------------------------------------
	BYTE	W96
// 034   ----------------------------------------
	BYTE	W96
// 035   ----------------------------------------
	BYTE	W96
// 036   ----------------------------------------
	BYTE	W96
// 037   ----------------------------------------
	BYTE	W96
// 038   ----------------------------------------
	BYTE	W96
// 039   ----------------------------------------
	BYTE	W96
// 040   ----------------------------------------
	BYTE	W96
// 041   ----------------------------------------
	BYTE	W96
// 042   ----------------------------------------
	BYTE	W96
// 043   ----------------------------------------
	BYTE	W96
// 044   ----------------------------------------
	BYTE	W96
// 045   ----------------------------------------
	BYTE	W96
// 046   ----------------------------------------
	BYTE	W96
// 047   ----------------------------------------
	BYTE	W96
// 048   ----------------------------------------
	BYTE	W96
// 049   ----------------------------------------
	BYTE	W96
// 050   ----------------------------------------
	BYTE	W96
// 051   ----------------------------------------
	BYTE	W96
// 052   ----------------------------------------
	BYTE	W96
// 053   ----------------------------------------
	BYTE	W96
// 054   ----------------------------------------
	BYTE	W96
// 055   ----------------------------------------
	BYTE	W96
// 056   ----------------------------------------
	BYTE	W96
	BYTE	GoTo
	 POIN2	TenseAtmosphere_4_B1
TenseAtmosphere_4_B2:
// 057   ----------------------------------------
	BYTE	FINE

//**************** Track 5 (Midi-Chn.5) ****************//

TenseAtmosphere_5:
	BYTE	KEYSH   TenseAtmosphere_key+0
// 000   ----------------------------------------
	BYTE		VOICE   57
	BYTE		VOL     76*TenseAtmosphere_mvl/mxv
	BYTE	W96
TenseAtmosphere_5_B1:
// 001   ----------------------------------------
	BYTE	W96
// 002   ----------------------------------------
	BYTE	W96
// 003   ----------------------------------------
	BYTE	W96
// 004   ----------------------------------------
	BYTE	W96
// 005   ----------------------------------------
	BYTE	W96
// 006   ----------------------------------------
	BYTE	W96
// 007   ----------------------------------------
	BYTE	W96
// 008   ----------------------------------------
	BYTE	W96
// 009   ----------------------------------------
	BYTE	W96
// 010   ----------------------------------------
	BYTE	W96
// 011   ----------------------------------------
	BYTE	W96
// 012   ----------------------------------------
	BYTE	W96
// 013   ----------------------------------------
	BYTE	W96
// 014   ----------------------------------------
	BYTE	W96
// 015   ----------------------------------------
	BYTE	W96
// 016   ----------------------------------------
	BYTE	W96
// 017   ----------------------------------------
	BYTE		N18     As3   v100
	BYTE	W18
	BYTE		        An3 
	BYTE		N12     As3   v056
	BYTE	W18
	BYTE		        An3 
	BYTE		N12     As3   v100
	BYTE	W12
	BYTE		        As3   v056
	BYTE		N18     Fn4   v100
	BYTE	W18
	BYTE		        As3 
	BYTE	W18
	BYTE		N12     An3 
	BYTE		N12     As3   v056
	BYTE	W12
// 018   ----------------------------------------
TenseAtmosphere_5_018:
	BYTE		N12     An3   v056
	BYTE		N18     As3   v100
	BYTE	W18
	BYTE		        An3 
	BYTE		N12     As3   v056
	BYTE	W18
	BYTE		        An3 
	BYTE		N12     As3   v100
	BYTE	W12
	BYTE		        As3   v056
	BYTE		N18     Fn4   v100
	BYTE	W18
	BYTE		        As3 
	BYTE	W18
	BYTE		N12     An3 
	BYTE		N12     As3   v056
	BYTE	W12
	BYTE	PEND
// 019   ----------------------------------------
	BYTE		N36     Gn3   v100
	BYTE		N12     An3   v056
	BYTE	W36
	BYTE		N06     Gn3   v100
	BYTE	W06
	BYTE		        Gn3   v056
	BYTE		N06     An3   v100
	BYTE	W06
	BYTE		        An3   v056
	BYTE		N24     As3   v100
	BYTE	W24
	BYTE		N12     As3   v056
	BYTE		N24     Dn4   v100
	BYTE	W24
// 020   ----------------------------------------
	BYTE		N48     Cn4 
	BYTE		N12     Dn4   v056
	BYTE	W48
	BYTE		        Cn4 
	BYTE		N18     Dn4   v100
	BYTE	W18
	BYTE		        An3 
	BYTE		N12     Dn4   v056
	BYTE	W18
	BYTE		        Dn3   v100
	BYTE		N12     An3   v056
	BYTE	W12
// 021   ----------------------------------------
	BYTE		        Dn3 
	BYTE		N18     As3   v100
	BYTE	W18
	BYTE		        An3 
	BYTE		N12     As3   v056
	BYTE	W18
	BYTE		        An3 
	BYTE		N12     As3   v100
	BYTE	W12
	BYTE		        As3   v056
	BYTE		N18     Fn4   v100
	BYTE	W18
	BYTE		        As3 
	BYTE	W18
	BYTE		N12     An3 
	BYTE		N12     As3   v056
	BYTE	W12
// 022   ----------------------------------------
	BYTE	PATT
	 POIN2	TenseAtmosphere_5_018
// 023   ----------------------------------------
	BYTE		N12     An3   v056
	BYTE		N06     Gn4   v100
	BYTE	W06
	BYTE		        Fn4 
	BYTE		N06     Gn4   v056
	BYTE	W06
	BYTE		        Ds4   v100
	BYTE		N06     Fn4   v056
	BYTE	W06
	BYTE		        Dn4   v100
	BYTE		N06     Ds4   v056
	BYTE	W06
	BYTE		        Cn4   v100
	BYTE		N06     Dn4   v056
	BYTE	W06
	BYTE		        As3   v100
	BYTE		N06     Cn4   v056
	BYTE	W06
	BYTE		        Gs3   v100
	BYTE		N06     As3   v056
	BYTE	W06
	BYTE		        Gn3   v100
	BYTE		N06     Gs3   v056
	BYTE	W06
	BYTE		        Gn3 
	BYTE		N18     An3   v100
	BYTE	W18
	BYTE		N12     An3   v056
	BYTE		N18     As3   v100
	BYTE	W18
	BYTE		N12     As3   v056
	BYTE		N12     Cn4   v100
	BYTE	W12
// 024   ----------------------------------------
	BYTE		N48     Gn3 
	BYTE		N12     Cn4   v056
	BYTE	W48
	BYTE		N48     Fs3   v100
	BYTE		N12     Gn3   v056
	BYTE	W48
// 025   ----------------------------------------
	BYTE		        Fs3 
	BYTE	W96
// 026   ----------------------------------------
	BYTE	W96
// 027   ----------------------------------------
	BYTE	W96
// 028   ----------------------------------------
	BYTE	W96
// 029   ----------------------------------------
	BYTE	W96
// 030   ----------------------------------------
	BYTE	W96
// 031   ----------------------------------------
	BYTE	W96
// 032   ----------------------------------------
	BYTE	W96
// 033   ----------------------------------------
	BYTE	W96
// 034   ----------------------------------------
	BYTE	W96
// 035   ----------------------------------------
	BYTE	W96
// 036   ----------------------------------------
	BYTE	W96
// 037   ----------------------------------------
	BYTE	W96
// 038   ----------------------------------------
	BYTE	W96
// 039   ----------------------------------------
	BYTE	W96
// 040   ----------------------------------------
	BYTE	W96
// 041   ----------------------------------------
	BYTE	W96
// 042   ----------------------------------------
	BYTE	W96
// 043   ----------------------------------------
	BYTE	W96
// 044   ----------------------------------------
	BYTE	W96
// 045   ----------------------------------------
	BYTE	W96
// 046   ----------------------------------------
	BYTE	W96
// 047   ----------------------------------------
	BYTE	W96
// 048   ----------------------------------------
	BYTE	W96
// 049   ----------------------------------------
	BYTE	W96
// 050   ----------------------------------------
	BYTE	W96
// 051   ----------------------------------------
	BYTE	W96
// 052   ----------------------------------------
	BYTE	W96
// 053   ----------------------------------------
	BYTE	W96
// 054   ----------------------------------------
	BYTE	W96
// 055   ----------------------------------------
	BYTE	W96
// 056   ----------------------------------------
	BYTE	W96
	BYTE	GoTo
	 POIN2	TenseAtmosphere_5_B1
TenseAtmosphere_5_B2:
// 057   ----------------------------------------
	BYTE	FINE

//**************** Track 6 (Midi-Chn.6) ****************//

TenseAtmosphere_6:
	BYTE	KEYSH   TenseAtmosphere_key+0
// 000   ----------------------------------------
	BYTE		VOICE   1
	BYTE		VOL     58*TenseAtmosphere_mvl/mxv
	BYTE	W96
TenseAtmosphere_6_B1:
// 001   ----------------------------------------
	BYTE	W96
// 002   ----------------------------------------
	BYTE	W96
// 003   ----------------------------------------
	BYTE	W96
// 004   ----------------------------------------
	BYTE	W96
// 005   ----------------------------------------
	BYTE	W96
// 006   ----------------------------------------
	BYTE	W96
// 007   ----------------------------------------
	BYTE	W96
// 008   ----------------------------------------
	BYTE	W96
// 009   ----------------------------------------
	BYTE	W96
// 010   ----------------------------------------
	BYTE	W96
// 011   ----------------------------------------
	BYTE	W96
// 012   ----------------------------------------
	BYTE	W96
// 013   ----------------------------------------
	BYTE	W96
// 014   ----------------------------------------
	BYTE	W96
// 015   ----------------------------------------
	BYTE	W96
// 016   ----------------------------------------
	BYTE	W96
// 017   ----------------------------------------
	BYTE		N06     Gn3   v100
	BYTE	W06
	BYTE		        Gn3   v056
	BYTE		N06     An3   v100
	BYTE	W06
	BYTE		        An3   v056
	BYTE		N06     As3   v100
	BYTE	W06
	BYTE		        As3   v056
	BYTE		N06     Cn4   v100
	BYTE	W06
	BYTE		        Cn4   v056
	BYTE		N06     Gn4   v100
	BYTE	W06
	BYTE		        Gn4   v056
	BYTE		N06     An4   v100
	BYTE	W06
	BYTE		        An4   v056
	BYTE		N06     As4   v100
	BYTE	W06
	BYTE		        As4   v056
	BYTE		N06     Dn5   v100
	BYTE	W06
	BYTE		        As4 
	BYTE		N06     Dn5   v056
	BYTE	W06
	BYTE		        An4   v100
	BYTE		N06     As4   v056
	BYTE	W06
	BYTE		        Gn4   v100
	BYTE		N06     An4   v056
	BYTE	W06
	BYTE		        Cn4   v100
	BYTE		N06     Gn4   v056
	BYTE	W06
	BYTE		        As3   v100
	BYTE		N06     Cn4   v056
	BYTE	W06
	BYTE		        An3   v100
	BYTE		N06     As3   v056
	BYTE	W06
	BYTE		        Gn3   v100
	BYTE		N06     An3   v056
	BYTE	W06
	BYTE		        Dn3   v100
	BYTE		N06     Gn3   v056
	BYTE	W06
// 018   ----------------------------------------
TenseAtmosphere_6_018:
	BYTE		N06     Cn3   v100
	BYTE		N06     Dn3   v056
	BYTE	W06
	BYTE		        Cn3 
	BYTE		N06     Dn3   v100
	BYTE	W06
	BYTE		        Dn3   v056
	BYTE		N06     Fn3   v100
	BYTE	W06
	BYTE		        Fn3   v056
	BYTE		N06     Gn3   v100
	BYTE	W06
	BYTE		        Gn3   v056
	BYTE		N06     Fn4   v100
	BYTE	W06
	BYTE		        Fn4   v056
	BYTE		N06     Gn4   v100
	BYTE	W06
	BYTE		        Gn4   v056
	BYTE		N06     An4   v100
	BYTE	W06
	BYTE		        An4   v056
	BYTE		N06     Cn5   v100
	BYTE	W06
	BYTE		        An4 
	BYTE		N06     Cn5   v056
	BYTE	W06
	BYTE		        Gn4   v100
	BYTE		N06     An4   v056
	BYTE	W06
	BYTE		        Fn4   v100
	BYTE		N06     Gn4   v056
	BYTE	W06
	BYTE		        Gn3   v100
	BYTE		N06     Fn4   v056
	BYTE	W06
	BYTE		        Fn3   v100
	BYTE		N06     Gn3   v056
	BYTE	W06
	BYTE		        Dn3   v100
	BYTE		N06     Fn3   v056
	BYTE	W06
	BYTE		        Cn3   v100
	BYTE		N06     Dn3   v056
	BYTE	W06
	BYTE		        Fn2   v100
	BYTE		N06     Cn3   v056
	BYTE	W06
	BYTE	PEND
// 019   ----------------------------------------
TenseAtmosphere_6_019:
	BYTE		N06     Fn2   v056
	BYTE		N06     As2   v100
	BYTE	W06
	BYTE		        As2   v056
	BYTE		N06     Ds3   v100
	BYTE	W06
	BYTE		        Ds3   v056
	BYTE		N06     Gn3   v100
	BYTE	W06
	BYTE		        Gn3   v056
	BYTE		N06     An3   v100
	BYTE	W06
	BYTE		        An3   v056
	BYTE		N06     As3   v100
	BYTE	W06
	BYTE		        As3   v056
	BYTE		N06     Dn4   v100
	BYTE	W06
	BYTE		        Dn4   v056
	BYTE		N06     Gn4   v100
	BYTE	W06
	BYTE		        Gn4   v056
	BYTE		N06     An4   v100
	BYTE	W06
	BYTE		        An4   v056
	BYTE		N06     As4   v100
	BYTE	W06
	BYTE		        An4 
	BYTE		N06     As4   v056
	BYTE	W06
	BYTE		        Gn4   v100
	BYTE		N06     An4   v056
	BYTE	W06
	BYTE		        Dn4   v100
	BYTE		N06     Gn4   v056
	BYTE	W06
	BYTE		        As3   v100
	BYTE		N06     Dn4   v056
	BYTE	W06
	BYTE		        An3   v100
	BYTE		N06     As3   v056
	BYTE	W06
	BYTE		        Gn3   v100
	BYTE		N06     An3   v056
	BYTE	W06
	BYTE		        Dn3   v100
	BYTE		N06     Gn3   v056
	BYTE	W06
	BYTE	PEND
// 020   ----------------------------------------
TenseAtmosphere_6_020:
	BYTE		N06     Dn3   v100
	BYTE	W06
	BYTE		        Dn3   v056
	BYTE		N06     En3   v100
	BYTE	W06
	BYTE		        En3   v056
	BYTE		N06     Fs3   v100
	BYTE	W06
	BYTE		        Fs3   v056
	BYTE		N06     Cn4   v100
	BYTE	W06
	BYTE		        Cn4   v056
	BYTE		N06     Dn4   v100
	BYTE	W06
	BYTE		        Dn4   v056
	BYTE		N06     En4   v100
	BYTE	W06
	BYTE		        En4   v056
	BYTE		N06     An4   v100
	BYTE	W06
	BYTE		        Gn4 
	BYTE		N06     An4   v056
	BYTE	W06
	BYTE		        Gn4 
	BYTE		N06     An4   v100
	BYTE	W06
	BYTE		        Gn4 
	BYTE		N06     An4   v056
	BYTE	W06
	BYTE		        Fs4   v100
	BYTE		N06     Gn4   v056
	BYTE	W06
	BYTE		        En4   v100
	BYTE		N06     Fs4   v056
	BYTE	W06
	BYTE		        Dn4   v100
	BYTE		N06     En4   v056
	BYTE	W06
	BYTE		        Cn4   v100
	BYTE		N06     Dn4   v056
	BYTE	W06
	BYTE		        Fs3   v100
	BYTE		N06     Cn4   v056
	BYTE	W06
	BYTE		        Dn3   v100
	BYTE		N06     Fs3   v056
	BYTE	W06
	BYTE	PEND
// 021   ----------------------------------------
	BYTE		        Dn3 
	BYTE		N06     Gn3   v100
	BYTE	W06
	BYTE		        Gn3   v056
	BYTE		N06     An3   v100
	BYTE	W06
	BYTE		        An3   v056
	BYTE		N06     As3   v100
	BYTE	W06
	BYTE		        As3   v056
	BYTE		N06     Cn4   v100
	BYTE	W06
	BYTE		        Cn4   v056
	BYTE		N06     Gn4   v100
	BYTE	W06
	BYTE		        Gn4   v056
	BYTE		N06     An4   v100
	BYTE	W06
	BYTE		        An4   v056
	BYTE		N06     As4   v100
	BYTE	W06
	BYTE		        As4   v056
	BYTE		N06     Dn5   v100
	BYTE	W06
	BYTE		        As4 
	BYTE		N06     Dn5   v056
	BYTE	W06
	BYTE		        An4   v100
	BYTE		N06     As4   v056
	BYTE	W06
	BYTE		        Gn4   v100
	BYTE		N06     An4   v056
	BYTE	W06
	BYTE		        Cn4   v100
	BYTE		N06     Gn4   v056
	BYTE	W06
	BYTE		        As3   v100
	BYTE		N06     Cn4   v056
	BYTE	W06
	BYTE		        An3   v100
	BYTE		N06     As3   v056
	BYTE	W06
	BYTE		        Gn3   v100
	BYTE		N06     An3   v056
	BYTE	W06
	BYTE		        Dn3   v100
	BYTE		N06     Gn3   v056
	BYTE	W06
// 022   ----------------------------------------
	BYTE	PATT
	 POIN2	TenseAtmosphere_6_018
// 023   ----------------------------------------
	BYTE	PATT
	 POIN2	TenseAtmosphere_6_019
// 024   ----------------------------------------
	BYTE	PATT
	 POIN2	TenseAtmosphere_6_020
// 025   ----------------------------------------
	BYTE		N06     Dn3   v056
	BYTE	W96
// 026   ----------------------------------------
	BYTE	W96
// 027   ----------------------------------------
	BYTE	W96
// 028   ----------------------------------------
	BYTE	W96
// 029   ----------------------------------------
	BYTE	W96
// 030   ----------------------------------------
	BYTE	W96
// 031   ----------------------------------------
	BYTE	W96
// 032   ----------------------------------------
	BYTE	W96
// 033   ----------------------------------------
	BYTE		        As3   v100
	BYTE	W06
	BYTE		        As3   v056
	BYTE		N06     Dn4   v100
	BYTE	W06
	BYTE		        Dn4   v056
	BYTE		N06     Fn4   v100
	BYTE	W06
	BYTE		        Fn4   v056
	BYTE		N06     Gn4   v100
	BYTE	W06
	BYTE		        Gn4   v056
	BYTE		N06     As4   v100
	BYTE	W06
	BYTE		        An4 
	BYTE		N06     As4   v056
	BYTE	W06
	BYTE		        An4 
	BYTE		N06     As4   v100
	BYTE	W06
	BYTE		        As4   v056
	BYTE		N06     Dn5   v100
	BYTE	W06
	BYTE		        As4 
	BYTE		N06     Dn5   v056
	BYTE	W06
	BYTE		        An4   v100
	BYTE		N06     As4   v056
	BYTE	W06
	BYTE		        Gn4   v100
	BYTE		N06     An4   v056
	BYTE	W06
	BYTE		        Dn4   v100
	BYTE		N06     Gn4   v056
	BYTE	W06
	BYTE		        As3   v100
	BYTE		N06     Dn4   v056
	BYTE	W06
	BYTE		        An3   v100
	BYTE		N06     As3   v056
	BYTE	W06
	BYTE		        Fn3   v100
	BYTE		N06     An3   v056
	BYTE	W06
	BYTE		        Dn3   v100
	BYTE		N06     Fn3   v056
	BYTE	W06
// 034   ----------------------------------------
TenseAtmosphere_6_034:
	BYTE		N06     Dn3   v056
	BYTE		N06     As3   v100
	BYTE	W06
	BYTE		        Fn3 
	BYTE		N06     As3   v056
	BYTE	W06
	BYTE		        Fn3 
	BYTE		N06     As3   v100
	BYTE	W06
	BYTE		        As3   v056
	BYTE		N06     Dn4   v100
	BYTE	W06
	BYTE		        Dn4   v056
	BYTE		N06     Fn4   v100
	BYTE	W06
	BYTE		        Dn4 
	BYTE		N06     Fn4   v056
	BYTE	W06
	BYTE		        Dn4 
	BYTE		N06     Fn4   v100
	BYTE	W06
	BYTE		        Fn4   v056
	BYTE		N06     As4   v100
	BYTE	W06
	BYTE		        As4   v056
	BYTE		N06     Dn5   v100
	BYTE	W06
	BYTE		        As4 
	BYTE		N06     Dn5   v056
	BYTE	W06
	BYTE		        Fn4   v100
	BYTE		N06     As4   v056
	BYTE	W06
	BYTE		        Dn4   v100
	BYTE		N06     Fn4   v056
	BYTE	W06
	BYTE		        Dn4 
	BYTE		N06     Fn4   v100
	BYTE	W06
	BYTE		        Dn4 
	BYTE		N06     Fn4   v056
	BYTE	W06
	BYTE		        As3   v100
	BYTE		N06     Dn4   v056
	BYTE	W06
	BYTE		        Fn3   v100
	BYTE		N06     As3   v056
	BYTE	W06
	BYTE	PEND
// 035   ----------------------------------------
	BYTE		        Fn3 
	BYTE		N06     Cs5   v100
	BYTE	W06
	BYTE		        Cs5   v056
	BYTE		N06     Dn5   v100
	BYTE	W06
	BYTE		        Cs5 
	BYTE		N06     Dn5   v056
	BYTE	W06
	BYTE		        Cn5   v100
	BYTE		N06     Cs5   v056
	BYTE	W06
	BYTE		        An4   v100
	BYTE		N06     Cn5   v056
	BYTE	W06
	BYTE		        En4   v100
	BYTE		N06     An4   v056
	BYTE	W06
	BYTE		        Dn4   v100
	BYTE		N06     En4   v056
	BYTE	W06
	BYTE		        Cs4   v100
	BYTE		N06     Dn4   v056
	BYTE	W06
	BYTE		        An3   v100
	BYTE		N06     Cs4   v056
	BYTE	W06
	BYTE		        En3   v100
	BYTE		N06     An3   v056
	BYTE	W06
	BYTE		        En3 
	BYTE		N06     An3   v100
	BYTE	W06
	BYTE		        An3   v056
	BYTE		N06     Cs4   v100
	BYTE	W06
	BYTE		        Cs4   v056
	BYTE		N06     En4   v100
	BYTE	W06
	BYTE		        Cs4 
	BYTE		N06     En4   v056
	BYTE	W06
	BYTE		        Cs4 
	BYTE		N06     En4   v100
	BYTE	W06
	BYTE		        En4   v056
	BYTE		N06     An4   v100
	BYTE	W06
// 036   ----------------------------------------
	BYTE		        Ds3 
	BYTE		N06     An4   v056
	BYTE	W06
	BYTE		        Ds3 
	BYTE		N06     Gs3   v100
	BYTE	W06
	BYTE		        Gs3   v056
	BYTE		N06     Cs4   v100
	BYTE	W06
	BYTE		        Cs4   v056
	BYTE		N06     En4   v100
	BYTE	W06
	BYTE		        Cn4 
	BYTE		N06     En4   v056
	BYTE	W06
	BYTE		        Cn4 
	BYTE		N06     Cs4   v100
	BYTE	W06
	BYTE		        Cs4   v056
	BYTE		N06     Ds4   v100
	BYTE	W06
	BYTE		        Ds4   v056
	BYTE		N06     Gs4   v100
	BYTE	W06
	BYTE		        Gs4   v056
	BYTE		N06     Cn5   v100
	BYTE	W06
	BYTE		        Gs4 
	BYTE		N06     Cn5   v056
	BYTE	W06
	BYTE		        Ds4   v100
	BYTE		N06     Gs4   v056
	BYTE	W06
	BYTE		        Cn4   v100
	BYTE		N06     Ds4   v056
	BYTE	W06
	BYTE		        Cn4 
	BYTE		N06     Gs4   v100
	BYTE	W06
	BYTE		        Ds4 
	BYTE		N06     Gs4   v056
	BYTE	W06
	BYTE		        Cn4   v100
	BYTE		N06     Ds4   v056
	BYTE	W06
	BYTE		        Gs3   v100
	BYTE		N06     Cn4   v056
	BYTE	W06
// 037   ----------------------------------------
	BYTE		        Gs3 
	BYTE		N06     As3   v100
	BYTE	W06
	BYTE		        As3   v056
	BYTE		N06     Dn4   v100
	BYTE	W06
	BYTE		        Dn4   v056
	BYTE		N06     Fn4   v100
	BYTE	W06
	BYTE		        Fn4   v056
	BYTE		N06     Gn4   v100
	BYTE	W06
	BYTE		        Gn4   v056
	BYTE		N06     As4   v100
	BYTE	W06
	BYTE		        An4 
	BYTE		N06     As4   v056
	BYTE	W06
	BYTE		        An4 
	BYTE		N06     As4   v100
	BYTE	W06
	BYTE		        As4   v056
	BYTE		N06     Dn5   v100
	BYTE	W06
	BYTE		        As4 
	BYTE		N06     Dn5   v056
	BYTE	W06
	BYTE		        An4   v100
	BYTE		N06     As4   v056
	BYTE	W06
	BYTE		        Gn4   v100
	BYTE		N06     An4   v056
	BYTE	W06
	BYTE		        Dn4   v100
	BYTE		N06     Gn4   v056
	BYTE	W06
	BYTE		        As3   v100
	BYTE		N06     Dn4   v056
	BYTE	W06
	BYTE		        An3   v100
	BYTE		N06     As3   v056
	BYTE	W06
	BYTE		        Fn3   v100
	BYTE		N06     An3   v056
	BYTE	W06
	BYTE		        Dn3   v100
	BYTE		N06     Fn3   v056
	BYTE	W06
// 038   ----------------------------------------
	BYTE	PATT
	 POIN2	TenseAtmosphere_6_034
// 039   ----------------------------------------
	BYTE		N06     Fn3   v056
	BYTE		N06     Cs5   v100
	BYTE	W06
	BYTE		        Cn5 
	BYTE		N06     Cs5   v056
	BYTE	W06
	BYTE		        Bn4   v100
	BYTE		N06     Cn5   v056
	BYTE	W06
	BYTE		        As4   v100
	BYTE		N06     Bn4   v056
	BYTE	W06
	BYTE		        An4   v100
	BYTE		N06     As4   v056
	BYTE	W06
	BYTE		        Gs4   v100
	BYTE		N06     An4   v056
	BYTE	W06
	BYTE		        Gn4   v100
	BYTE		N06     Gs4   v056
	BYTE	W06
	BYTE		        Fs4   v100
	BYTE		N06     Gn4   v056
	BYTE	W06
	BYTE		        Fn4   v100
	BYTE		N06     Fs4   v056
	BYTE	W06
	BYTE		        En4   v100
	BYTE		N06     Fn4   v056
	BYTE	W06
	BYTE		        Ds4   v100
	BYTE		N06     En4   v056
	BYTE	W06
	BYTE		        Dn4   v100
	BYTE		N06     Ds4   v056
	BYTE	W06
	BYTE		        Cs4   v100
	BYTE		N06     Dn4   v056
	BYTE	W06
	BYTE		        Cn4   v100
	BYTE		N06     Cs4   v056
	BYTE	W06
	BYTE		        Bn3   v100
	BYTE		N06     Cn4   v056
	BYTE	W06
	BYTE		        As3   v100
	BYTE		N06     Bn3   v056
	BYTE	W06
// 040   ----------------------------------------
	BYTE		        As3 
	BYTE		N06     As4   v100
	BYTE	W06
	BYTE		        An4 
	BYTE		N06     As4   v056
	BYTE	W06
	BYTE		        Gs4   v100
	BYTE		N06     An4   v056
	BYTE	W06
	BYTE		        Gn4   v100
	BYTE		N06     Gs4   v056
	BYTE	W06
	BYTE		        Fs4   v100
	BYTE		N06     Gn4   v056
	BYTE	W06
	BYTE		        Fn4   v100
	BYTE		N06     Fs4   v056
	BYTE	W06
	BYTE		        En4   v100
	BYTE		N06     Fn4   v056
	BYTE	W06
	BYTE		        Ds4   v100
	BYTE		N06     En4   v056
	BYTE	W06
	BYTE		        Dn4   v100
	BYTE		N06     Ds4   v056
	BYTE	W06
	BYTE		        Cs4   v100
	BYTE		N06     Dn4   v056
	BYTE	W06
	BYTE		        Cn4   v100
	BYTE		N06     Cs4   v056
	BYTE	W06
	BYTE		        Bn3   v100
	BYTE		N06     Cn4   v056
	BYTE	W06
	BYTE		        As3   v100
	BYTE		N06     Bn3   v056
	BYTE	W06
	BYTE		        An3   v100
	BYTE		N06     As3   v056
	BYTE	W06
	BYTE		        Gs3   v100
	BYTE		N06     An3   v056
	BYTE	W06
	BYTE		        Gn3   v100
	BYTE		N06     Gs3   v056
	BYTE	W06
// 041   ----------------------------------------
	BYTE		        Gn3 
	BYTE		N06     An3   v100
	BYTE	W06
	BYTE		        En3 
	BYTE		N06     An3   v056
	BYTE	W06
	BYTE		        En3 
	BYTE		N06     An3   v100
	BYTE	W06
	BYTE		        An3   v056
	BYTE		N06     Bn3   v100
	BYTE	W06
	BYTE		        Bn3   v056
	BYTE		N06     Cn4   v100
	BYTE	W06
	BYTE		        En3 
	BYTE		N06     Cn4   v056
	BYTE	W06
	BYTE		        En3 
	BYTE		N06     An3   v100
	BYTE	W06
	BYTE		        En3 
	BYTE		N06     An3   v056
	BYTE	W06
	BYTE		        En3 
	BYTE		N06     An3   v100
	BYTE	W06
	BYTE		        An3   v056
	BYTE		N06     Dn4   v100
	BYTE	W06
	BYTE		        Dn4   v056
	BYTE		N06     En4   v100
	BYTE	W06
	BYTE		        En3 
	BYTE		N06     En4   v056
	BYTE	W06
	BYTE		        En3 
	BYTE		N06     Cn4   v100
	BYTE	W06
	BYTE		        En3 
	BYTE		N06     Cn4   v056
	BYTE	W06
	BYTE		        En3 
	BYTE		N06     An3   v100
	BYTE	W06
	BYTE		        An3   v056
	BYTE		N06     Bn3   v100
	BYTE	W06
// 042   ----------------------------------------
TenseAtmosphere_6_042:
	BYTE		N06     Gn3   v100
	BYTE		N06     Bn3   v056
	BYTE	W06
	BYTE		        Gn3 
	BYTE		N06     An3   v100
	BYTE	W06
	BYTE		        Gn3 
	BYTE		N06     An3   v056
	BYTE	W06
	BYTE		        Gn3 
	BYTE		N06     An3   v100
	BYTE	W06
	BYTE		        An3   v056
	BYTE		N06     Bn3   v100
	BYTE	W06
	BYTE		        Dn3 
	BYTE		N06     Bn3   v056
	BYTE	W06
	BYTE		        Dn3 
	BYTE		N06     Gn3   v100
	BYTE	W06
	BYTE		        Dn3 
	BYTE		N06     Gn3   v056
	BYTE	W06
	BYTE		        Dn3 
	BYTE		N06     Gn3   v100
	BYTE	W06
	BYTE		        Gn3   v056
	BYTE		N06     An3   v100
	BYTE	W06
	BYTE		        An3   v056
	BYTE		N06     Dn4   v100
	BYTE	W06
	BYTE		        Dn3 
	BYTE		N06     Dn4   v056
	BYTE	W06
	BYTE		        Dn3 
	BYTE		N06     An3   v100
	BYTE	W06
	BYTE		        Dn3 
	BYTE		N06     An3   v056
	BYTE	W06
	BYTE		        Dn3 
	BYTE		N06     Gn3   v100
	BYTE	W06
	BYTE		        Gn3   v056
	BYTE		N06     An3   v100
	BYTE	W06
	BYTE	PEND
// 043   ----------------------------------------
TenseAtmosphere_6_043:
	BYTE		N06     An3   v056
	BYTE	W06
	BYTE		        Fn3   v100
	BYTE		N06     An3   v056
	BYTE	W06
	BYTE		        Fn3 
	BYTE		N06     An3   v100
	BYTE	W06
	BYTE		        An3   v056
	BYTE		N06     Cn4   v100
	BYTE	W06
	BYTE		        Cn4   v056
	BYTE		N06     Fn4   v100
	BYTE	W06
	BYTE		        Fn3 
	BYTE		N06     Fn4   v056
	BYTE	W06
	BYTE		        Fn3 
	BYTE		N06     Cn4   v100
	BYTE	W06
	BYTE		        Fn3 
	BYTE		N06     Cn4   v056
	BYTE	W06
	BYTE		        Fn3 
	BYTE		N06     An3   v100
	BYTE	W06
	BYTE		        An3   v056
	BYTE		N06     Bn3   v100
	BYTE	W06
	BYTE		        Bn3   v056
	BYTE		N06     Cn4   v100
	BYTE	W06
	BYTE		        Fn3 
	BYTE		N06     Cn4   v056
	BYTE	W06
	BYTE		        Fn3 
	BYTE		N06     Fn4   v100
	BYTE	W06
	BYTE		        Fn3 
	BYTE		N06     Fn4   v056
	BYTE	W06
	BYTE		        Fn3 
	BYTE		N06     An3   v100
	BYTE	W06
	BYTE		        An3   v056
	BYTE		N06     Cn4   v100
	BYTE	W06
	BYTE	PEND
// 044   ----------------------------------------
TenseAtmosphere_6_044:
	BYTE		N06     Gn3   v100
	BYTE		N06     Cn4   v056
	BYTE	W06
	BYTE		        Dn3   v100
	BYTE		N06     Gn3   v056
	BYTE	W06
	BYTE		        Dn3 
	BYTE		N06     Gn3   v100
	BYTE	W06
	BYTE		        Gn3   v056
	BYTE		N06     An3   v100
	BYTE	W06
	BYTE		        An3   v056
	BYTE		N06     Bn3   v100
	BYTE	W06
	BYTE		        Dn3 
	BYTE		N06     Bn3   v056
	BYTE	W06
	BYTE		        Dn3 
	BYTE		N06     Gn3   v100
	BYTE	W06
	BYTE		        Dn3 
	BYTE		N06     Gn3   v056
	BYTE	W06
	BYTE		        Dn3 
	BYTE		N06     Gn3   v100
	BYTE	W06
	BYTE		        Gn3   v056
	BYTE		N06     An3   v100
	BYTE	W06
	BYTE		        An3   v056
	BYTE		N06     Bn3   v100
	BYTE	W06
	BYTE		        Dn3 
	BYTE		N06     Bn3   v056
	BYTE	W06
	BYTE		        Dn3 
	BYTE		N06     Dn4   v100
	BYTE	W06
	BYTE		        Dn3 
	BYTE		N06     Dn4   v056
	BYTE	W06
	BYTE		        Dn3 
	BYTE		N06     Bn3   v100
	BYTE	W06
	BYTE		        Dn3 
	BYTE		N06     Bn3   v056
	BYTE	W06
	BYTE	PEND
// 045   ----------------------------------------
TenseAtmosphere_6_045:
	BYTE		N06     Dn3   v056
	BYTE		N06     An3   v100
	BYTE	W06
	BYTE		        En3 
	BYTE		N06     An3   v056
	BYTE	W06
	BYTE		        En3 
	BYTE		N06     An3   v100
	BYTE	W06
	BYTE		        An3   v056
	BYTE		N06     Bn3   v100
	BYTE	W06
	BYTE		        Bn3   v056
	BYTE		N06     Cn4   v100
	BYTE	W06
	BYTE		        En3 
	BYTE		N06     Cn4   v056
	BYTE	W06
	BYTE		        En3 
	BYTE		N06     An3   v100
	BYTE	W06
	BYTE		        En3 
	BYTE		N06     An3   v056
	BYTE	W06
	BYTE		        En3 
	BYTE		N06     An3   v100
	BYTE	W06
	BYTE		        An3   v056
	BYTE		N06     Dn4   v100
	BYTE	W06
	BYTE		        Dn4   v056
	BYTE		N06     En4   v100
	BYTE	W06
	BYTE		        En3 
	BYTE		N06     En4   v056
	BYTE	W06
	BYTE		        En3 
	BYTE		N06     Cn4   v100
	BYTE	W06
	BYTE		        En3 
	BYTE		N06     Cn4   v056
	BYTE	W06
	BYTE		        En3 
	BYTE		N06     An3   v100
	BYTE	W06
	BYTE		        An3   v056
	BYTE		N06     Bn3   v100
	BYTE	W06
	BYTE	PEND
// 046   ----------------------------------------
	BYTE	PATT
	 POIN2	TenseAtmosphere_6_042
// 047   ----------------------------------------
TenseAtmosphere_6_047:
	BYTE		N06     An3   v100
	BYTE	W06
	BYTE		        Fn3 
	BYTE		N06     An3   v056
	BYTE	W06
	BYTE		        Fn3 
	BYTE		N06     An3   v100
	BYTE	W06
	BYTE		        An3   v056
	BYTE		N06     Cn4   v100
	BYTE	W06
	BYTE		        Cn4   v056
	BYTE		N06     Fn4   v100
	BYTE	W06
	BYTE		        Fn3 
	BYTE		N06     Fn4   v056
	BYTE	W06
	BYTE		        Fn3 
	BYTE		N06     Cn4   v100
	BYTE	W06
	BYTE		        Fn3 
	BYTE		N06     Cn4   v056
	BYTE	W06
	BYTE		        Fn3 
	BYTE		N06     An3   v100
	BYTE	W06
	BYTE		        An3   v056
	BYTE		N06     Bn3   v100
	BYTE	W06
	BYTE		        Bn3   v056
	BYTE		N06     Cn4   v100
	BYTE	W06
	BYTE		        Fn3 
	BYTE		N06     Cn4   v056
	BYTE	W06
	BYTE		        Fn3 
	BYTE		N06     Fn4   v100
	BYTE	W06
	BYTE		        Fn3 
	BYTE		N06     Fn4   v056
	BYTE	W06
	BYTE		        Fn3 
	BYTE		N06     An3   v100
	BYTE	W06
	BYTE		        An3   v056
	BYTE		N06     Cn4   v100
	BYTE	W06
	BYTE	PEND
// 048   ----------------------------------------
	BYTE	PATT
	 POIN2	TenseAtmosphere_6_044
// 049   ----------------------------------------
	BYTE	PATT
	 POIN2	TenseAtmosphere_6_045
// 050   ----------------------------------------
	BYTE	PATT
	 POIN2	TenseAtmosphere_6_042
// 051   ----------------------------------------
	BYTE	PATT
	 POIN2	TenseAtmosphere_6_047
// 052   ----------------------------------------
	BYTE	PATT
	 POIN2	TenseAtmosphere_6_044
// 053   ----------------------------------------
	BYTE	PATT
	 POIN2	TenseAtmosphere_6_045
// 054   ----------------------------------------
	BYTE	PATT
	 POIN2	TenseAtmosphere_6_042
// 055   ----------------------------------------
	BYTE	PATT
	 POIN2	TenseAtmosphere_6_043
// 056   ----------------------------------------
	BYTE	PATT
	 POIN2	TenseAtmosphere_6_044
	BYTE	GoTo
	 POIN2	TenseAtmosphere_6_B1
TenseAtmosphere_6_B2:
// 057   ----------------------------------------
	BYTE		N06     Dn3   v056
	BYTE	W06
	BYTE	FINE

//**************** Track 7 (Midi-Chn.7) ****************//

TenseAtmosphere_7:
	BYTE	KEYSH   TenseAtmosphere_key+0
// 000   ----------------------------------------
	BYTE		VOICE   57
	BYTE		VOL     76*TenseAtmosphere_mvl/mxv
	BYTE		PAN     c_v-26
	BYTE	W96
TenseAtmosphere_7_B1:
// 001   ----------------------------------------
	BYTE	W96
// 002   ----------------------------------------
	BYTE	W96
// 003   ----------------------------------------
	BYTE	W96
// 004   ----------------------------------------
	BYTE	W96
// 005   ----------------------------------------
	BYTE	W96
// 006   ----------------------------------------
	BYTE	W96
// 007   ----------------------------------------
	BYTE	W96
// 008   ----------------------------------------
	BYTE	W96
// 009   ----------------------------------------
	BYTE	W96
// 010   ----------------------------------------
	BYTE	W96
// 011   ----------------------------------------
	BYTE	W96
// 012   ----------------------------------------
	BYTE	W96
// 013   ----------------------------------------
	BYTE	W96
// 014   ----------------------------------------
	BYTE	W96
// 015   ----------------------------------------
	BYTE	W96
// 016   ----------------------------------------
	BYTE	W96
// 017   ----------------------------------------
	BYTE	W96
// 018   ----------------------------------------
	BYTE	W96
// 019   ----------------------------------------
	BYTE	W96
// 020   ----------------------------------------
	BYTE	W96
// 021   ----------------------------------------
	BYTE	W96
// 022   ----------------------------------------
	BYTE	W96
// 023   ----------------------------------------
	BYTE	W96
// 024   ----------------------------------------
	BYTE	W96
// 025   ----------------------------------------
	BYTE	W96
// 026   ----------------------------------------
	BYTE	W96
// 027   ----------------------------------------
	BYTE	W96
// 028   ----------------------------------------
	BYTE	W96
// 029   ----------------------------------------
	BYTE	W96
// 030   ----------------------------------------
	BYTE	W96
// 031   ----------------------------------------
	BYTE	W96
// 032   ----------------------------------------
	BYTE	W96
// 033   ----------------------------------------
	BYTE	W96
// 034   ----------------------------------------
	BYTE	W96
// 035   ----------------------------------------
	BYTE	W96
// 036   ----------------------------------------
	BYTE	W96
// 037   ----------------------------------------
	BYTE	W96
// 038   ----------------------------------------
	BYTE	W96
// 039   ----------------------------------------
	BYTE	W96
// 040   ----------------------------------------
	BYTE	W96
// 041   ----------------------------------------
	BYTE		N60     En4   v088
	BYTE	W60
	BYTE		N12     Dn4 
	BYTE	W12
	BYTE		        Cn4 
	BYTE	W12
	BYTE		        Bn3 
	BYTE	W12
// 042   ----------------------------------------
	BYTE		N06     Cn4 
	BYTE	W06
	BYTE		        An3 
	BYTE	W12
	BYTE		        Bn3 
	BYTE	W12
	BYTE		        Dn4 
	BYTE	W06
	BYTE		        En4 
	BYTE	W12
	BYTE		        Fn4 
	BYTE	W12
	BYTE		        Gn4 
	BYTE	W12
	BYTE		        An4 
	BYTE	W12
	BYTE		        Bn4 
	BYTE	W12
// 043   ----------------------------------------
	BYTE		N36     An4 
	BYTE	W36
	BYTE		N12     Gn4 
	BYTE	W12
	BYTE		        Fn4 
	BYTE	W12
	BYTE		        Gn4 
	BYTE	W12
	BYTE		        An4 
	BYTE	W12
	BYTE		        Bn4 
	BYTE	W12
// 044   ----------------------------------------
	BYTE		N18     Cn5 
	BYTE	W18
	BYTE		        Dn5 
	BYTE	W18
	BYTE		N12     Bn4 
	BYTE	W12
	BYTE		N18     Cn5 
	BYTE	W18
	BYTE		        Dn5 
	BYTE	W18
	BYTE		N12     Bn4 
	BYTE	W12
// 045   ----------------------------------------
	BYTE		        Cn5 
	BYTE	W12
	BYTE		        Dn5 
	BYTE	W12
	BYTE		N36     En5 
	BYTE	W36
	BYTE		N12     Dn5 
	BYTE	W12
	BYTE		        Cn5 
	BYTE	W12
	BYTE		        Bn4 
	BYTE	W12
// 046   ----------------------------------------
	BYTE		N06     Cn5 
	BYTE	W06
	BYTE		        Bn4 
	BYTE	W06
	BYTE		        An4 
	BYTE	W12
	BYTE		        Bn4 
	BYTE	W06
	BYTE		        An4 
	BYTE	W06
	BYTE		        Gn4 
	BYTE	W12
	BYTE		        An4 
	BYTE	W06
	BYTE		        Gn4 
	BYTE	W06
	BYTE		        Fn4 
	BYTE	W12
	BYTE		        Gn4 
	BYTE	W06
	BYTE		        Fn4 
	BYTE	W06
	BYTE		        En4 
	BYTE	W12
// 047   ----------------------------------------
	BYTE		        Fn4 
	BYTE	W12
	BYTE		        Gn4 
	BYTE	W12
	BYTE		N12     An4 
	BYTE	W12
	BYTE		N06     Gn4 
	BYTE	W06
	BYTE		        Fn4 
	BYTE	W12
	BYTE		        En4 
	BYTE	W12
	BYTE		N06   
	BYTE	W06
	BYTE		        Dn4 
	BYTE	W12
	BYTE		        En4 
	BYTE	W12
// 048   ----------------------------------------
	BYTE		N12   
	BYTE	W18
	BYTE		N06   
	BYTE	W12
	BYTE		N06   
	BYTE	W06
	BYTE		N12     Dn4 
	BYTE	W12
	BYTE		        Cn4 
	BYTE	W12
	BYTE		        Bn3 
	BYTE	W12
	BYTE		        An3 
	BYTE	W12
	BYTE		        Bn3 
	BYTE	W12
// 049   ----------------------------------------
	BYTE		N18     Cn4 
	BYTE	W18
	BYTE		        Dn4 
	BYTE	W18
	BYTE		N12     Bn3 
	BYTE	W12
	BYTE		N18     Cn4 
	BYTE	W18
	BYTE		        Dn4 
	BYTE	W18
	BYTE		N12     Bn3 
	BYTE	W12
// 050   ----------------------------------------
	BYTE		N18     Cn4 
	BYTE	W18
	BYTE		        Dn4 
	BYTE	W18
	BYTE		N12     Bn3 
	BYTE	W12
	BYTE		N18     Cn4 
	BYTE	W18
	BYTE		        Dn4 
	BYTE	W18
	BYTE		N12     En4 
	BYTE	W12
// 051   ----------------------------------------
	BYTE		N18     Fn4 
	BYTE	W18
	BYTE		        Gn4 
	BYTE	W18
	BYTE		N12     En4 
	BYTE	W12
	BYTE		N18     Fn4 
	BYTE	W18
	BYTE		        Gn4 
	BYTE	W18
	BYTE		N12     An4 
	BYTE	W12
// 052   ----------------------------------------
	BYTE		N18     Bn4 
	BYTE	W18
	BYTE		        Cn5 
	BYTE	W18
	BYTE		N12     An4 
	BYTE	W12
	BYTE		N18     Bn4 
	BYTE	W18
	BYTE		        Cn5 
	BYTE	W18
	BYTE		N12     Dn5 
	BYTE	W12
// 053   ----------------------------------------
	BYTE		N36     En5 
	BYTE	W36
	BYTE		N06     Dn5 
	BYTE	W06
	BYTE		        Cn5 
	BYTE	W06
	BYTE		N36     Dn5 
	BYTE	W36
	BYTE		N06     Cn5 
	BYTE	W06
	BYTE		        Bn4 
	BYTE	W06
// 054   ----------------------------------------
	BYTE		        Cn5 
	BYTE	W12
	BYTE		        An4 
	BYTE	W12
	BYTE		        Bn4 
	BYTE	W06
	BYTE		        Gn4 
	BYTE	W12
	BYTE		        An4 
	BYTE	W12
	BYTE		        Fn4 
	BYTE	W06
	BYTE		        Gn4 
	BYTE	W12
	BYTE		        En4 
	BYTE	W12
	BYTE		        Fn4 
	BYTE	W12
// 055   ----------------------------------------
	BYTE		N06   
	BYTE	W12
	BYTE		N24     An4 
	BYTE	W24
	BYTE		N06     Fn4 
	BYTE	W06
	BYTE		        En4 
	BYTE	W06
	BYTE		        Fn4 
	BYTE	W06
	BYTE		        En4 
	BYTE	W06
	BYTE		        Dn4 
	BYTE	W06
	BYTE		        En4 
	BYTE	W06
	BYTE		        Dn4 
	BYTE	W06
	BYTE		        Cn4 
	BYTE	W06
	BYTE		        Dn4 
	BYTE	W06
	BYTE		        Cn4 
	BYTE	W06
// 056   ----------------------------------------
	BYTE		        Bn3 
	BYTE	W06
	BYTE		        Cn4 
	BYTE	W06
	BYTE		        Bn3 
	BYTE	W06
	BYTE		        An3 
	BYTE	W06
	BYTE		        Bn3 
	BYTE	W06
	BYTE		        An3 
	BYTE	W06
	BYTE		        Gn3 
	BYTE	W06
	BYTE		        An3 
	BYTE	W06
	BYTE		        Gn3 
	BYTE	W06
	BYTE		        Fn3 
	BYTE	W06
	BYTE		        Gn3 
	BYTE	W06
	BYTE		        Fn3 
	BYTE	W06
	BYTE		        Ds3 
	BYTE	W06
	BYTE		        Gn3 
	BYTE	W06
	BYTE		        Fn3 
	BYTE	W06
	BYTE		        En3 
	BYTE	W06
	BYTE	GoTo
	 POIN2	TenseAtmosphere_7_B1
TenseAtmosphere_7_B2:
// 057   ----------------------------------------
	BYTE	FINE

//**************** Track 8 (Midi-Chn.8) ****************//

TenseAtmosphere_8:
	BYTE	KEYSH   TenseAtmosphere_key+0
// 000   ----------------------------------------
	BYTE		VOICE   57
	BYTE		VOL     64*TenseAtmosphere_mvl/mxv
	BYTE		PAN     c_v+24
	BYTE	W96
TenseAtmosphere_8_B1:
// 001   ----------------------------------------
	BYTE	W96
// 002   ----------------------------------------
	BYTE	W96
// 003   ----------------------------------------
	BYTE	W96
// 004   ----------------------------------------
	BYTE	W96
// 005   ----------------------------------------
	BYTE	W96
// 006   ----------------------------------------
	BYTE	W96
// 007   ----------------------------------------
	BYTE	W96
// 008   ----------------------------------------
	BYTE	W96
// 009   ----------------------------------------
	BYTE	W96
// 010   ----------------------------------------
	BYTE	W96
// 011   ----------------------------------------
	BYTE	W96
// 012   ----------------------------------------
	BYTE	W96
// 013   ----------------------------------------
	BYTE	W96
// 014   ----------------------------------------
	BYTE	W96
// 015   ----------------------------------------
	BYTE	W96
// 016   ----------------------------------------
	BYTE	W96
// 017   ----------------------------------------
	BYTE	W96
// 018   ----------------------------------------
	BYTE	W96
// 019   ----------------------------------------
	BYTE	W96
// 020   ----------------------------------------
	BYTE	W96
// 021   ----------------------------------------
	BYTE	W96
// 022   ----------------------------------------
	BYTE	W96
// 023   ----------------------------------------
	BYTE	W96
// 024   ----------------------------------------
	BYTE	W96
// 025   ----------------------------------------
	BYTE	W96
// 026   ----------------------------------------
	BYTE	W96
// 027   ----------------------------------------
	BYTE	W96
// 028   ----------------------------------------
	BYTE	W96
// 029   ----------------------------------------
	BYTE	W96
// 030   ----------------------------------------
	BYTE	W96
// 031   ----------------------------------------
	BYTE	W96
// 032   ----------------------------------------
	BYTE	W96
// 033   ----------------------------------------
	BYTE	W96
// 034   ----------------------------------------
	BYTE	W96
// 035   ----------------------------------------
	BYTE	W96
// 036   ----------------------------------------
	BYTE	W96
// 037   ----------------------------------------
	BYTE	W96
// 038   ----------------------------------------
	BYTE	W96
// 039   ----------------------------------------
	BYTE	W96
// 040   ----------------------------------------
	BYTE	W96
// 041   ----------------------------------------
	BYTE	W12
	BYTE		N60     En4   v056
	BYTE	W60
	BYTE		N12     Dn4 
	BYTE	W12
	BYTE		        Cn4 
	BYTE	W12
// 042   ----------------------------------------
	BYTE		        Bn3 
	BYTE	W12
	BYTE		N06     Cn4 
	BYTE	W06
	BYTE		        An3 
	BYTE	W12
	BYTE		        Bn3 
	BYTE	W12
	BYTE		        Dn4 
	BYTE	W06
	BYTE		        En4 
	BYTE	W12
	BYTE		        Fn4 
	BYTE	W12
	BYTE		        Gn4 
	BYTE	W12
	BYTE		        An4 
	BYTE	W12
// 043   ----------------------------------------
	BYTE		        Bn4 
	BYTE	W12
	BYTE		N36     An4 
	BYTE	W36
	BYTE		N12     Gn4 
	BYTE	W12
	BYTE		        Fn4 
	BYTE	W12
	BYTE		        Gn4 
	BYTE	W12
	BYTE		        An4 
	BYTE	W12
// 044   ----------------------------------------
	BYTE		        Bn4 
	BYTE	W12
	BYTE		N18     Cn5 
	BYTE	W18
	BYTE		        Dn5 
	BYTE	W18
	BYTE		N12     Bn4 
	BYTE	W12
	BYTE		N18     Cn5 
	BYTE	W18
	BYTE		        Dn5 
	BYTE	W18
// 045   ----------------------------------------
	BYTE		N12     Bn4 
	BYTE	W12
	BYTE		        Cn5 
	BYTE	W12
	BYTE		        Dn5 
	BYTE	W12
	BYTE		N36     En5 
	BYTE	W36
	BYTE		N12     Dn5 
	BYTE	W12
	BYTE		        Cn5 
	BYTE	W12
// 046   ----------------------------------------
	BYTE		        Bn4 
	BYTE	W12
	BYTE		N06     Cn5 
	BYTE	W06
	BYTE		        Bn4 
	BYTE	W06
	BYTE		        An4 
	BYTE	W12
	BYTE		        Bn4 
	BYTE	W06
	BYTE		        An4 
	BYTE	W06
	BYTE		        Gn4 
	BYTE	W12
	BYTE		        An4 
	BYTE	W06
	BYTE		        Gn4 
	BYTE	W06
	BYTE		        Fn4 
	BYTE	W12
	BYTE		        Gn4 
	BYTE	W06
	BYTE		        Fn4 
	BYTE	W06
// 047   ----------------------------------------
	BYTE		        En4 
	BYTE	W12
	BYTE		        Fn4 
	BYTE	W12
	BYTE		        Gn4 
	BYTE	W12
	BYTE		N12     An4 
	BYTE	W12
	BYTE		N06     Gn4 
	BYTE	W06
	BYTE		        Fn4 
	BYTE	W12
	BYTE		        En4 
	BYTE	W12
	BYTE		N06   
	BYTE	W06
	BYTE		        Dn4 
	BYTE	W12
// 048   ----------------------------------------
	BYTE		        En4 
	BYTE	W12
	BYTE		N12   
	BYTE	W18
	BYTE		N06   
	BYTE	W12
	BYTE		N06   
	BYTE	W06
	BYTE		N12     Dn4 
	BYTE	W12
	BYTE		        Cn4 
	BYTE	W12
	BYTE		        Bn3 
	BYTE	W12
	BYTE		        An3 
	BYTE	W12
// 049   ----------------------------------------
TenseAtmosphere_8_049:
	BYTE		N12     Bn3   v056
	BYTE	W12
	BYTE		N18     Cn4 
	BYTE	W18
	BYTE		        Dn4 
	BYTE	W18
	BYTE		N12     Bn3 
	BYTE	W12
	BYTE		N18     Cn4 
	BYTE	W18
	BYTE		        Dn4 
	BYTE	W18
	BYTE	PEND
// 050   ----------------------------------------
	BYTE	PATT
	 POIN2	TenseAtmosphere_8_049
// 051   ----------------------------------------
	BYTE		N12     En4   v056
	BYTE	W12
	BYTE		N18     Fn4 
	BYTE	W18
	BYTE		        Gn4 
	BYTE	W18
	BYTE		N12     En4 
	BYTE	W12
	BYTE		N18     Fn4 
	BYTE	W18
	BYTE		        Gn4 
	BYTE	W18
// 052   ----------------------------------------
	BYTE		N12     An4 
	BYTE	W12
	BYTE		N18     Bn4 
	BYTE	W18
	BYTE		        Cn5 
	BYTE	W18
	BYTE		N12     An4 
	BYTE	W12
	BYTE		N18     Bn4 
	BYTE	W18
	BYTE		        Cn5 
	BYTE	W18
// 053   ----------------------------------------
	BYTE		N12     Dn5 
	BYTE	W12
	BYTE		N36     En5 
	BYTE	W36
	BYTE		N06     Dn5 
	BYTE	W06
	BYTE		        Cn5 
	BYTE	W06
	BYTE		N36     Dn5 
	BYTE	W36
// 054   ----------------------------------------
	BYTE		N06     Cn5 
	BYTE	W06
	BYTE		        Bn4 
	BYTE	W06
	BYTE		        Cn5 
	BYTE	W12
	BYTE		        An4 
	BYTE	W12
	BYTE		        Bn4 
	BYTE	W06
	BYTE		        Gn4 
	BYTE	W12
	BYTE		        An4 
	BYTE	W12
	BYTE		        Fn4 
	BYTE	W06
	BYTE		        Gn4 
	BYTE	W12
	BYTE		        En4 
	BYTE	W12
// 055   ----------------------------------------
	BYTE		        Fn4 
	BYTE	W12
	BYTE		N06   
	BYTE	W12
	BYTE		N24     An4 
	BYTE	W24
	BYTE		N06     Fn4 
	BYTE	W06
	BYTE		        En4 
	BYTE	W06
	BYTE		        Fn4 
	BYTE	W06
	BYTE		        En4 
	BYTE	W06
	BYTE		        Dn4 
	BYTE	W06
	BYTE		        En4 
	BYTE	W06
	BYTE		        Dn4 
	BYTE	W06
	BYTE		        Cn4 
	BYTE	W06
// 056   ----------------------------------------
	BYTE		        Dn4 
	BYTE	W06
	BYTE		        Cn4 
	BYTE	W06
	BYTE		        Bn3 
	BYTE	W06
	BYTE		        Cn4 
	BYTE	W06
	BYTE		        Bn3 
	BYTE	W06
	BYTE		        An3 
	BYTE	W06
	BYTE		        Bn3 
	BYTE	W06
	BYTE		        An3 
	BYTE	W06
	BYTE		        Gn3 
	BYTE	W06
	BYTE		        An3 
	BYTE	W06
	BYTE		        Gn3 
	BYTE	W06
	BYTE		        Fn3 
	BYTE	W06
	BYTE		        Gn3 
	BYTE	W06
	BYTE		        Fn3 
	BYTE	W06
	BYTE		        Ds3 
	BYTE	W06
	BYTE		        Gn3 
	BYTE	W06
	BYTE	GoTo
	 POIN2	TenseAtmosphere_8_B1
TenseAtmosphere_8_B2:
// 057   ----------------------------------------
	BYTE		N06     Fn3   v056
	BYTE	W06
	BYTE		        En3 
	BYTE	W06
	BYTE	FINE

//**************** Track 9 (Midi-Chn.9) ****************//

TenseAtmosphere_9:
	BYTE	KEYSH   TenseAtmosphere_key+0
// 000   ----------------------------------------
	BYTE		VOICE   57
	BYTE		VOL     76*TenseAtmosphere_mvl/mxv
	BYTE		PAN     c_v+21
	BYTE	W96
TenseAtmosphere_9_B1:
// 001   ----------------------------------------
	BYTE	W96
// 002   ----------------------------------------
	BYTE	W96
// 003   ----------------------------------------
	BYTE	W96
// 004   ----------------------------------------
	BYTE	W96
// 005   ----------------------------------------
	BYTE	W96
// 006   ----------------------------------------
	BYTE	W96
// 007   ----------------------------------------
	BYTE	W96
// 008   ----------------------------------------
	BYTE	W96
// 009   ----------------------------------------
	BYTE	W96
// 010   ----------------------------------------
	BYTE	W96
// 011   ----------------------------------------
	BYTE	W96
// 012   ----------------------------------------
	BYTE	W96
// 013   ----------------------------------------
	BYTE	W96
// 014   ----------------------------------------
	BYTE	W96
// 015   ----------------------------------------
	BYTE	W96
// 016   ----------------------------------------
	BYTE	W96
// 017   ----------------------------------------
	BYTE	W96
// 018   ----------------------------------------
	BYTE	W96
// 019   ----------------------------------------
	BYTE	W96
// 020   ----------------------------------------
	BYTE	W96
// 021   ----------------------------------------
	BYTE	W96
// 022   ----------------------------------------
	BYTE	W96
// 023   ----------------------------------------
	BYTE	W96
// 024   ----------------------------------------
	BYTE	W96
// 025   ----------------------------------------
TenseAtmosphere_9_025:
	BYTE		N84     Gn3   v127
	BYTE	W84
	BYTE		N06   
	BYTE	W06
	BYTE		        Gn3   v056
	BYTE		N06     An3   v127
	BYTE	W06
	BYTE	PEND
// 026   ----------------------------------------
TenseAtmosphere_9_026:
	BYTE		N06     An3   v056
	BYTE		N96     As3   v127
	BYTE	W96
	BYTE	PEND
// 027   ----------------------------------------
TenseAtmosphere_9_027:
	BYTE		N36     An3   v127
	BYTE		N12     As3   v056
	BYTE	W36
	BYTE		N36     En3   v127
	BYTE		N12     An3   v056
	BYTE	W36
	BYTE		        En3 
	BYTE		N24     An3   v127
	BYTE	W24
	BYTE	PEND
// 028   ----------------------------------------
TenseAtmosphere_9_028:
	BYTE		N96     Gs3   v127
	BYTE		N12     An3   v056
	BYTE	W96
	BYTE	PEND
// 029   ----------------------------------------
TenseAtmosphere_9_029:
	BYTE		N84     Gn3   v127
	BYTE		N12     Gs3   v056
	BYTE	W84
	BYTE		N06     Gn3   v127
	BYTE	W06
	BYTE		        Gn3   v056
	BYTE		N06     An3   v127
	BYTE	W06
	BYTE	PEND
// 030   ----------------------------------------
TenseAtmosphere_9_030:
	BYTE		N06     An3   v056
	BYTE		N48     As3   v127
	BYTE	W48
	BYTE		N12     As3   v056
	BYTE		N48     Dn4   v127
	BYTE	W48
	BYTE	PEND
// 031   ----------------------------------------
TenseAtmosphere_9_031:
	BYTE		N18     Cs4   v127
	BYTE		N12     Dn4   v056
	BYTE	W18
	BYTE		N18     Cs4   v127
	BYTE	W18
	BYTE		N12   
	BYTE	W12
	BYTE		N18   
	BYTE	W18
	BYTE		N18   
	BYTE	W18
	BYTE		N12   
	BYTE	W12
	BYTE	PEND
// 032   ----------------------------------------
	BYTE		N48     As3 
	BYTE		N12     Cs4   v056
	BYTE	W48
	BYTE		N48     Gn3   v127
	BYTE		N12     As3   v056
	BYTE	W48
// 033   ----------------------------------------
	BYTE	PATT
	 POIN2	TenseAtmosphere_9_025
// 034   ----------------------------------------
	BYTE	PATT
	 POIN2	TenseAtmosphere_9_026
// 035   ----------------------------------------
	BYTE	PATT
	 POIN2	TenseAtmosphere_9_027
// 036   ----------------------------------------
	BYTE	PATT
	 POIN2	TenseAtmosphere_9_028
// 037   ----------------------------------------
	BYTE	PATT
	 POIN2	TenseAtmosphere_9_029
// 038   ----------------------------------------
	BYTE	PATT
	 POIN2	TenseAtmosphere_9_030
// 039   ----------------------------------------
	BYTE	PATT
	 POIN2	TenseAtmosphere_9_031
// 040   ----------------------------------------
	BYTE		N48     As3   v127
	BYTE		N12     Cs4   v056
	BYTE	W48
	BYTE		        As3 
	BYTE		N48     Ds4   v127
	BYTE	W48
// 041   ----------------------------------------
	BYTE		N12     Ds4   v056
	BYTE	W96
// 042   ----------------------------------------
	BYTE	W96
// 043   ----------------------------------------
	BYTE	W96
// 044   ----------------------------------------
	BYTE	W96
// 045   ----------------------------------------
	BYTE	W96
// 046   ----------------------------------------
	BYTE	W96
// 047   ----------------------------------------
	BYTE	W96
// 048   ----------------------------------------
	BYTE	W96
// 049   ----------------------------------------
	BYTE	W96
// 050   ----------------------------------------
	BYTE	W96
// 051   ----------------------------------------
	BYTE	W96
// 052   ----------------------------------------
	BYTE	W96
// 053   ----------------------------------------
	BYTE	W96
// 054   ----------------------------------------
	BYTE	W96
// 055   ----------------------------------------
	BYTE	W96
// 056   ----------------------------------------
	BYTE	W96
	BYTE	GoTo
	 POIN2	TenseAtmosphere_9_B1
TenseAtmosphere_9_B2:
// 057   ----------------------------------------
	BYTE	FINE

//**************** Track 10 (Midi-Chn.11) ****************//

TenseAtmosphere_10:
	BYTE	KEYSH   TenseAtmosphere_key+0
// 000   ----------------------------------------
	BYTE		VOICE   11
	BYTE		VOL     51*TenseAtmosphere_mvl/mxv
	BYTE		PAN     c_v-26
	BYTE	W96
TenseAtmosphere_10_B1:
// 001   ----------------------------------------
	BYTE	W96
// 002   ----------------------------------------
	BYTE	W96
// 003   ----------------------------------------
	BYTE	W96
// 004   ----------------------------------------
	BYTE	W96
// 005   ----------------------------------------
	BYTE	W96
// 006   ----------------------------------------
	BYTE	W96
// 007   ----------------------------------------
	BYTE	W96
// 008   ----------------------------------------
	BYTE	W96
// 009   ----------------------------------------
	BYTE	W96
// 010   ----------------------------------------
	BYTE	W96
// 011   ----------------------------------------
	BYTE	W96
// 012   ----------------------------------------
	BYTE	W96
// 013   ----------------------------------------
	BYTE	W96
// 014   ----------------------------------------
	BYTE	W96
// 015   ----------------------------------------
	BYTE	W96
// 016   ----------------------------------------
	BYTE	W96
// 017   ----------------------------------------
	BYTE	W96
// 018   ----------------------------------------
	BYTE	W96
// 019   ----------------------------------------
	BYTE	W96
// 020   ----------------------------------------
	BYTE	W96
// 021   ----------------------------------------
	BYTE	W96
// 022   ----------------------------------------
	BYTE	W96
// 023   ----------------------------------------
	BYTE	W96
// 024   ----------------------------------------
	BYTE	W96
// 025   ----------------------------------------
	BYTE	W12
	BYTE		N12     Gn4   v100
	BYTE	W12
	BYTE		        Gn4   v056
	BYTE	W12
	BYTE		        Gn4   v100
	BYTE	W12
	BYTE		        Gn4   v056
	BYTE	W12
	BYTE		        Gn4   v100
	BYTE	W12
	BYTE		        Gn4   v056
	BYTE	W12
	BYTE		        Gn4   v100
	BYTE	W12
// 026   ----------------------------------------
TenseAtmosphere_10_026:
	BYTE		N12     Gn4   v056
	BYTE	W12
	BYTE		        Gn4   v100
	BYTE	W12
	BYTE		        Gn4   v056
	BYTE	W12
	BYTE		        Gn4   v100
	BYTE	W12
	BYTE		        Gn4   v056
	BYTE	W12
	BYTE		        Gn4   v100
	BYTE	W12
	BYTE		        Gn4   v056
	BYTE	W12
	BYTE		        Gn4   v100
	BYTE	W12
	BYTE	PEND
// 027   ----------------------------------------
	BYTE	PATT
	 POIN2	TenseAtmosphere_10_026
// 028   ----------------------------------------
	BYTE	PATT
	 POIN2	TenseAtmosphere_10_026
// 029   ----------------------------------------
	BYTE	PATT
	 POIN2	TenseAtmosphere_10_026
// 030   ----------------------------------------
	BYTE	PATT
	 POIN2	TenseAtmosphere_10_026
// 031   ----------------------------------------
	BYTE	PATT
	 POIN2	TenseAtmosphere_10_026
// 032   ----------------------------------------
	BYTE	PATT
	 POIN2	TenseAtmosphere_10_026
// 033   ----------------------------------------
	BYTE	PATT
	 POIN2	TenseAtmosphere_10_026
// 034   ----------------------------------------
	BYTE	PATT
	 POIN2	TenseAtmosphere_10_026
// 035   ----------------------------------------
	BYTE	PATT
	 POIN2	TenseAtmosphere_10_026
// 036   ----------------------------------------
	BYTE	PATT
	 POIN2	TenseAtmosphere_10_026
// 037   ----------------------------------------
	BYTE	PATT
	 POIN2	TenseAtmosphere_10_026
// 038   ----------------------------------------
	BYTE	PATT
	 POIN2	TenseAtmosphere_10_026
// 039   ----------------------------------------
	BYTE	PATT
	 POIN2	TenseAtmosphere_10_026
// 040   ----------------------------------------
	BYTE	PATT
	 POIN2	TenseAtmosphere_10_026
// 041   ----------------------------------------
	BYTE		N12     Gn4   v056
	BYTE	W96
// 042   ----------------------------------------
	BYTE	W96
// 043   ----------------------------------------
	BYTE	W96
// 044   ----------------------------------------
	BYTE	W96
// 045   ----------------------------------------
	BYTE	W96
// 046   ----------------------------------------
	BYTE	W96
// 047   ----------------------------------------
	BYTE	W96
// 048   ----------------------------------------
	BYTE	W96
// 049   ----------------------------------------
	BYTE	W96
// 050   ----------------------------------------
	BYTE	W96
// 051   ----------------------------------------
	BYTE	W96
// 052   ----------------------------------------
	BYTE	W96
// 053   ----------------------------------------
	BYTE	W96
// 054   ----------------------------------------
	BYTE	W96
// 055   ----------------------------------------
	BYTE	W96
// 056   ----------------------------------------
	BYTE	W96
	BYTE	GoTo
	 POIN2	TenseAtmosphere_10_B1
TenseAtmosphere_10_B2:
// 057   ----------------------------------------
	BYTE	FINE

//**************** Track 11 (Midi-Chn.12) ****************//

TenseAtmosphere_11:
	BYTE	KEYSH   TenseAtmosphere_key+0
// 000   ----------------------------------------
	BYTE		VOICE   1
	BYTE		VOL     51*TenseAtmosphere_mvl/mxv
	BYTE		PAN     c_v+24
	BYTE	W96
TenseAtmosphere_11_B1:
// 001   ----------------------------------------
	BYTE	W96
// 002   ----------------------------------------
	BYTE	W96
// 003   ----------------------------------------
	BYTE	W96
// 004   ----------------------------------------
	BYTE	W96
// 005   ----------------------------------------
	BYTE	W96
// 006   ----------------------------------------
	BYTE	W96
// 007   ----------------------------------------
	BYTE	W96
// 008   ----------------------------------------
	BYTE	W96
// 009   ----------------------------------------
	BYTE	W96
// 010   ----------------------------------------
	BYTE	W96
// 011   ----------------------------------------
	BYTE	W96
// 012   ----------------------------------------
	BYTE	W96
// 013   ----------------------------------------
	BYTE	W96
// 014   ----------------------------------------
	BYTE	W96
// 015   ----------------------------------------
	BYTE	W96
// 016   ----------------------------------------
	BYTE	W96
// 017   ----------------------------------------
	BYTE	W96
// 018   ----------------------------------------
	BYTE	W96
// 019   ----------------------------------------
	BYTE	W96
// 020   ----------------------------------------
	BYTE	W96
// 021   ----------------------------------------
	BYTE	W96
// 022   ----------------------------------------
	BYTE	W96
// 023   ----------------------------------------
	BYTE	W96
// 024   ----------------------------------------
	BYTE	W96
// 025   ----------------------------------------
TenseAtmosphere_11_025:
	BYTE		N12     Gn5   v100
	BYTE	W12
	BYTE		        Gn5   v056
	BYTE	W12
	BYTE		        Gn5   v100
	BYTE	W12
	BYTE		        Gn5   v056
	BYTE	W12
	BYTE		        Gn5   v100
	BYTE	W12
	BYTE		        Gn5   v056
	BYTE	W12
	BYTE		        Gn5   v100
	BYTE	W12
	BYTE		        Gn5   v056
	BYTE	W12
	BYTE	PEND
// 026   ----------------------------------------
	BYTE	PATT
	 POIN2	TenseAtmosphere_11_025
// 027   ----------------------------------------
	BYTE	PATT
	 POIN2	TenseAtmosphere_11_025
// 028   ----------------------------------------
	BYTE	PATT
	 POIN2	TenseAtmosphere_11_025
// 029   ----------------------------------------
	BYTE	PATT
	 POIN2	TenseAtmosphere_11_025
// 030   ----------------------------------------
	BYTE	PATT
	 POIN2	TenseAtmosphere_11_025
// 031   ----------------------------------------
	BYTE	PATT
	 POIN2	TenseAtmosphere_11_025
// 032   ----------------------------------------
	BYTE	PATT
	 POIN2	TenseAtmosphere_11_025
// 033   ----------------------------------------
	BYTE	PATT
	 POIN2	TenseAtmosphere_11_025
// 034   ----------------------------------------
	BYTE	PATT
	 POIN2	TenseAtmosphere_11_025
// 035   ----------------------------------------
	BYTE	PATT
	 POIN2	TenseAtmosphere_11_025
// 036   ----------------------------------------
	BYTE	PATT
	 POIN2	TenseAtmosphere_11_025
// 037   ----------------------------------------
	BYTE	PATT
	 POIN2	TenseAtmosphere_11_025
// 038   ----------------------------------------
	BYTE	PATT
	 POIN2	TenseAtmosphere_11_025
// 039   ----------------------------------------
	BYTE	PATT
	 POIN2	TenseAtmosphere_11_025
// 040   ----------------------------------------
	BYTE	PATT
	 POIN2	TenseAtmosphere_11_025
// 041   ----------------------------------------
	BYTE	W96
// 042   ----------------------------------------
	BYTE	W96
// 043   ----------------------------------------
	BYTE	W96
// 044   ----------------------------------------
	BYTE	W96
// 045   ----------------------------------------
	BYTE	W96
// 046   ----------------------------------------
	BYTE	W96
// 047   ----------------------------------------
	BYTE	W96
// 048   ----------------------------------------
	BYTE	W96
// 049   ----------------------------------------
	BYTE	W96
// 050   ----------------------------------------
	BYTE	W96
// 051   ----------------------------------------
	BYTE	W96
// 052   ----------------------------------------
	BYTE	W96
// 053   ----------------------------------------
	BYTE	W96
// 054   ----------------------------------------
	BYTE	W96
// 055   ----------------------------------------
	BYTE	W96
// 056   ----------------------------------------
	BYTE	W96
	BYTE	GoTo
	 POIN2	TenseAtmosphere_11_B1
TenseAtmosphere_11_B2:
// 057   ----------------------------------------
	BYTE	FINE

//**************** Track 12 (Midi-Chn.13) ****************//

TenseAtmosphere_12:
	BYTE	KEYSH   TenseAtmosphere_key+0
// 000   ----------------------------------------
	BYTE		VOICE   33
	BYTE		VOL     65*TenseAtmosphere_mvl/mxv
	BYTE		N06     Cs1   v127
	BYTE	W06
	BYTE		        En1 
	BYTE	W06
	BYTE		        Gn1 
	BYTE	W06
	BYTE		        As1 
	BYTE	W06
	BYTE		        En1 
	BYTE	W06
	BYTE		        Gn1 
	BYTE	W06
	BYTE		        As1 
	BYTE	W06
	BYTE		        Cs2 
	BYTE	W06
	BYTE		        Gn1 
	BYTE	W06
	BYTE		        As1 
	BYTE	W06
	BYTE		        Cs2 
	BYTE	W06
	BYTE		        En2 
	BYTE	W06
	BYTE		        As1 
	BYTE	W06
	BYTE		        Cs2 
	BYTE	W06
	BYTE		        En2 
	BYTE	W06
	BYTE		        Gn2 
	BYTE	W06
TenseAtmosphere_12_B1:
// 001   ----------------------------------------
TenseAtmosphere_12_001:
	BYTE		N12     En1   v127
	BYTE	W12
	BYTE		N06   
	BYTE	W12
	BYTE		N12     En2 
	BYTE	W12
	BYTE		N06     Bn1 
	BYTE	W06
	BYTE		N12     Dn2 
	BYTE	W12
	BYTE		N06     Bn1 
	BYTE	W06
	BYTE		N12     En2 
	BYTE	W12
	BYTE		N06     Dn2 
	BYTE	W12
	BYTE		N12     En2 
	BYTE	W12
	BYTE	PEND
// 002   ----------------------------------------
TenseAtmosphere_12_002:
	BYTE		N12     Dn2   v127
	BYTE	W12
	BYTE		N06   
	BYTE	W12
	BYTE		N12     An1 
	BYTE	W12
	BYTE		N06     Dn2 
	BYTE	W06
	BYTE		N12   
	BYTE	W12
	BYTE		N06     An1 
	BYTE	W06
	BYTE		N12     Dn2 
	BYTE	W12
	BYTE		N06     An1 
	BYTE	W12
	BYTE		N12     Dn2 
	BYTE	W12
	BYTE	PEND
// 003   ----------------------------------------
TenseAtmosphere_12_003:
	BYTE		N12     An1   v127
	BYTE	W12
	BYTE		N06   
	BYTE	W12
	BYTE		N12     An2 
	BYTE	W12
	BYTE		N06     En2 
	BYTE	W06
	BYTE		N12     Gn2 
	BYTE	W12
	BYTE		N06     En2 
	BYTE	W06
	BYTE		N12     An2 
	BYTE	W12
	BYTE		N06     An1 
	BYTE	W12
	BYTE		N12     An2 
	BYTE	W12
	BYTE	PEND
// 004   ----------------------------------------
TenseAtmosphere_12_004:
	BYTE		N12     Dn2   v127
	BYTE	W12
	BYTE		N06   
	BYTE	W12
	BYTE		N12     An1 
	BYTE	W12
	BYTE		N06     Dn2 
	BYTE	W06
	BYTE		N12     Ds2 
	BYTE	W12
	BYTE		N06   
	BYTE	W06
	BYTE		N12     Bn1 
	BYTE	W12
	BYTE		N06     Ds2 
	BYTE	W12
	BYTE		N12     Bn1 
	BYTE	W12
	BYTE	PEND
// 005   ----------------------------------------
TenseAtmosphere_12_005:
	BYTE		N12     En1   v127
	BYTE	W12
	BYTE		N06   
	BYTE	W12
	BYTE		N12     En2 
	BYTE	W12
	BYTE		        En1 
	BYTE	W12
	BYTE		N18     Dn2 
	BYTE	W18
	BYTE		        An1 
	BYTE	W18
	BYTE		N12     Dn2 
	BYTE	W12
	BYTE	PEND
// 006   ----------------------------------------
TenseAtmosphere_12_006:
	BYTE		N12     Cn2   v127
	BYTE	W12
	BYTE		N06   
	BYTE	W12
	BYTE		N12     Gn1 
	BYTE	W12
	BYTE		N06     Cn2 
	BYTE	W06
	BYTE		N12   
	BYTE	W12
	BYTE		N06   
	BYTE	W06
	BYTE		N12     Gn1 
	BYTE	W12
	BYTE		N06     Cn2 
	BYTE	W12
	BYTE		N12     Dn2 
	BYTE	W12
	BYTE	PEND
// 007   ----------------------------------------
TenseAtmosphere_12_007:
	BYTE		N12     Ds2   v127
	BYTE	W12
	BYTE		        As1 
	BYTE	W12
	BYTE		        Ds2 
	BYTE	W12
	BYTE		        As1 
	BYTE	W12
	BYTE		        Ds2 
	BYTE	W12
	BYTE		N06     As1 
	BYTE	W12
	BYTE		N12     Ds2 
	BYTE	W12
	BYTE		N06     As1 
	BYTE	W12
	BYTE	PEND
// 008   ----------------------------------------
	BYTE		N12     Fn1 
	BYTE	W12
	BYTE		N06   
	BYTE	W12
	BYTE		N12     Cn2 
	BYTE	W12
	BYTE		N06     Fn1 
	BYTE	W06
	BYTE		N12   
	BYTE	W12
	BYTE		N06   
	BYTE	W06
	BYTE		N12     Cn2 
	BYTE	W12
	BYTE		N06     Fn1 
	BYTE	W12
	BYTE		N12     Fn2 
	BYTE	W12
// 009   ----------------------------------------
	BYTE	PATT
	 POIN2	TenseAtmosphere_12_001
// 010   ----------------------------------------
	BYTE	PATT
	 POIN2	TenseAtmosphere_12_002
// 011   ----------------------------------------
	BYTE	PATT
	 POIN2	TenseAtmosphere_12_003
// 012   ----------------------------------------
	BYTE	PATT
	 POIN2	TenseAtmosphere_12_004
// 013   ----------------------------------------
	BYTE	PATT
	 POIN2	TenseAtmosphere_12_005
// 014   ----------------------------------------
	BYTE	PATT
	 POIN2	TenseAtmosphere_12_006
// 015   ----------------------------------------
	BYTE	PATT
	 POIN2	TenseAtmosphere_12_007
// 016   ----------------------------------------
	BYTE		N12     Fn1   v127
	BYTE	W12
	BYTE		N06     Cn2 
	BYTE	W12
	BYTE		N12     Fn1 
	BYTE	W12
	BYTE		N06     Cn2 
	BYTE	W12
	BYTE		N12     Fn1 
	BYTE	W12
	BYTE		N06     Cn2 
	BYTE	W12
	BYTE		N12     Fn1 
	BYTE	W12
	BYTE		N06     Cn2 
	BYTE	W12
// 017   ----------------------------------------
TenseAtmosphere_12_017:
	BYTE		N12     Gn1   v127
	BYTE	W24
	BYTE		N12   
	BYTE	W24
	BYTE		N12   
	BYTE	W12
	BYTE		        Dn2 
	BYTE	W12
	BYTE		        Gn1 
	BYTE	W12
	BYTE		        Dn2 
	BYTE	W12
	BYTE	PEND
// 018   ----------------------------------------
TenseAtmosphere_12_018:
	BYTE		N12     Fn1   v127
	BYTE	W24
	BYTE		N12   
	BYTE	W24
	BYTE		N12   
	BYTE	W12
	BYTE		        Cn2 
	BYTE	W12
	BYTE		        Fn1 
	BYTE	W12
	BYTE		        Cn2 
	BYTE	W12
	BYTE	PEND
// 019   ----------------------------------------
TenseAtmosphere_12_019:
	BYTE		N12     Ds2   v127
	BYTE	W24
	BYTE		N12   
	BYTE	W24
	BYTE		N12   
	BYTE	W12
	BYTE		        As1 
	BYTE	W12
	BYTE		        Ds2 
	BYTE	W12
	BYTE		        As1 
	BYTE	W12
	BYTE	PEND
// 020   ----------------------------------------
TenseAtmosphere_12_020:
	BYTE		N12     Dn2   v127
	BYTE	W24
	BYTE		N12   
	BYTE	W24
	BYTE		N12   
	BYTE	W12
	BYTE		        An1 
	BYTE	W12
	BYTE		        Dn2 
	BYTE	W12
	BYTE		        An1 
	BYTE	W12
	BYTE	PEND
// 021   ----------------------------------------
	BYTE	PATT
	 POIN2	TenseAtmosphere_12_017
// 022   ----------------------------------------
	BYTE	PATT
	 POIN2	TenseAtmosphere_12_018
// 023   ----------------------------------------
	BYTE	PATT
	 POIN2	TenseAtmosphere_12_019
// 024   ----------------------------------------
	BYTE	PATT
	 POIN2	TenseAtmosphere_12_020
// 025   ----------------------------------------
TenseAtmosphere_12_025:
	BYTE		N12     Gn1   v127
	BYTE	W18
	BYTE		N18     Fn1 
	BYTE	W18
	BYTE		N12     Gn1 
	BYTE	W18
	BYTE		N18     Fn1 
	BYTE	W18
	BYTE		N12     Gn1 
	BYTE	W12
	BYTE		        Fn1 
	BYTE	W12
	BYTE	PEND
// 026   ----------------------------------------
	BYTE	PATT
	 POIN2	TenseAtmosphere_12_025
// 027   ----------------------------------------
	BYTE	PATT
	 POIN2	TenseAtmosphere_12_025
// 028   ----------------------------------------
	BYTE	PATT
	 POIN2	TenseAtmosphere_12_025
// 029   ----------------------------------------
	BYTE	PATT
	 POIN2	TenseAtmosphere_12_025
// 030   ----------------------------------------
	BYTE	PATT
	 POIN2	TenseAtmosphere_12_025
// 031   ----------------------------------------
	BYTE	PATT
	 POIN2	TenseAtmosphere_12_025
// 032   ----------------------------------------
	BYTE	PATT
	 POIN2	TenseAtmosphere_12_025
// 033   ----------------------------------------
	BYTE	PATT
	 POIN2	TenseAtmosphere_12_025
// 034   ----------------------------------------
	BYTE	PATT
	 POIN2	TenseAtmosphere_12_025
// 035   ----------------------------------------
	BYTE	PATT
	 POIN2	TenseAtmosphere_12_025
// 036   ----------------------------------------
	BYTE	PATT
	 POIN2	TenseAtmosphere_12_025
// 037   ----------------------------------------
	BYTE	PATT
	 POIN2	TenseAtmosphere_12_025
// 038   ----------------------------------------
	BYTE	PATT
	 POIN2	TenseAtmosphere_12_025
// 039   ----------------------------------------
	BYTE	PATT
	 POIN2	TenseAtmosphere_12_025
// 040   ----------------------------------------
	BYTE	PATT
	 POIN2	TenseAtmosphere_12_025
// 041   ----------------------------------------
TenseAtmosphere_12_041:
	BYTE		N12     An1   v127
	BYTE	W18
	BYTE		N18     Gn1 
	BYTE	W18
	BYTE		N12     An1 
	BYTE	W18
	BYTE		N06   
	BYTE	W12
	BYTE		N06   
	BYTE	W06
	BYTE		N12   
	BYTE	W12
	BYTE		        Gn1 
	BYTE	W12
	BYTE	PEND
// 042   ----------------------------------------
	BYTE	PATT
	 POIN2	TenseAtmosphere_12_041
// 043   ----------------------------------------
	BYTE	PATT
	 POIN2	TenseAtmosphere_12_041
// 044   ----------------------------------------
	BYTE	PATT
	 POIN2	TenseAtmosphere_12_041
// 045   ----------------------------------------
	BYTE	PATT
	 POIN2	TenseAtmosphere_12_041
// 046   ----------------------------------------
	BYTE	PATT
	 POIN2	TenseAtmosphere_12_041
// 047   ----------------------------------------
	BYTE	PATT
	 POIN2	TenseAtmosphere_12_041
// 048   ----------------------------------------
	BYTE	PATT
	 POIN2	TenseAtmosphere_12_041
// 049   ----------------------------------------
	BYTE	PATT
	 POIN2	TenseAtmosphere_12_041
// 050   ----------------------------------------
	BYTE	PATT
	 POIN2	TenseAtmosphere_12_041
// 051   ----------------------------------------
	BYTE	PATT
	 POIN2	TenseAtmosphere_12_041
// 052   ----------------------------------------
	BYTE	PATT
	 POIN2	TenseAtmosphere_12_041
// 053   ----------------------------------------
	BYTE	PATT
	 POIN2	TenseAtmosphere_12_041
// 054   ----------------------------------------
	BYTE	PATT
	 POIN2	TenseAtmosphere_12_041
// 055   ----------------------------------------
	BYTE	PATT
	 POIN2	TenseAtmosphere_12_041
// 056   ----------------------------------------
	BYTE	PATT
	 POIN2	TenseAtmosphere_12_041
	BYTE	GoTo
	 POIN2	TenseAtmosphere_12_B1
TenseAtmosphere_12_B2:
// 057   ----------------------------------------
	BYTE	FINE

//**************** Track 13 (Midi-Chn.14) ****************//

TenseAtmosphere_13:
	BYTE	KEYSH   TenseAtmosphere_key+0
// 000   ----------------------------------------
	BYTE		VOICE   127
	BYTE		VOL     63*TenseAtmosphere_mvl/mxv
	BYTE		N12     Cn1   v127
	BYTE		N96     Cs2   v100
	BYTE		N96     Gn2 
	BYTE		N96     An2   v072
	BYTE	W48
	BYTE		N06     Dn5   v127
	BYTE	W06
	BYTE		N06   
	BYTE	W06
	BYTE		N06   
	BYTE	W06
	BYTE		N06   
	BYTE	W06
	BYTE		N06   
	BYTE	W06
	BYTE		N06   
	BYTE	W06
	BYTE		N06   
	BYTE	W06
	BYTE		N06   
	BYTE	W06
TenseAtmosphere_13_B1:
// 001   ----------------------------------------
TenseAtmosphere_13_001:
	BYTE		N12     Cn1   v127
	BYTE		N06     Fs1   v100
	BYTE		N96     Cs2 
	BYTE		N96     Gn2 
	BYTE		N96     An2   v072
	BYTE	W12
	BYTE		N06     Fs1   v100
	BYTE	W06
	BYTE		N06   
	BYTE	W06
	BYTE		N06   
	BYTE		N12     Dn5   v127
	BYTE	W12
	BYTE		N06     Fs1   v100
	BYTE	W06
	BYTE		        Cn1   v127
	BYTE		N06     Fs1   v100
	BYTE	W06
	BYTE		N06   
	BYTE	W12
	BYTE		N12     Cn1   v127
	BYTE		N06     Fs1   v100
	BYTE	W06
	BYTE		N06   
	BYTE	W06
	BYTE		N06   
	BYTE		N12     Dn5   v127
	BYTE	W12
	BYTE		N06     Fs1   v100
	BYTE	W06
	BYTE		N06   
	BYTE	W06
	BYTE	PEND
// 002   ----------------------------------------
TenseAtmosphere_13_002:
	BYTE		N12     Cn1   v127
	BYTE		N06     Fs1   v100
	BYTE	W12
	BYTE		N06   
	BYTE	W06
	BYTE		N06   
	BYTE	W06
	BYTE		N06   
	BYTE		N12     Dn5   v127
	BYTE	W12
	BYTE		N06     Fs1   v100
	BYTE	W06
	BYTE		        Cn1   v127
	BYTE		N06     Fs1   v100
	BYTE	W06
	BYTE		N06   
	BYTE	W12
	BYTE		N12     Cn1   v127
	BYTE		N06     Fs1   v100
	BYTE	W06
	BYTE		N06   
	BYTE	W06
	BYTE		N06   
	BYTE		N12     Dn5   v127
	BYTE	W12
	BYTE		        As1   v100
	BYTE		N06     Dn5   v127
	BYTE	W06
	BYTE		N06   
	BYTE	W06
	BYTE	PEND
// 003   ----------------------------------------
TenseAtmosphere_13_003:
	BYTE		N12     Cn1   v127
	BYTE		N06     Fs1   v100
	BYTE	W12
	BYTE		N06   
	BYTE	W06
	BYTE		N06   
	BYTE	W06
	BYTE		N06   
	BYTE		N12     Dn5   v127
	BYTE	W12
	BYTE		N06     Fs1   v100
	BYTE	W06
	BYTE		        Cn1   v127
	BYTE		N06     Fs1   v100
	BYTE	W06
	BYTE		N06   
	BYTE	W12
	BYTE		N12     Cn1   v127
	BYTE		N06     Fs1   v100
	BYTE	W06
	BYTE		N06   
	BYTE	W06
	BYTE		N06   
	BYTE		N12     Dn5   v127
	BYTE	W12
	BYTE		N06     Fs1   v100
	BYTE		N12     Dn5   v127
	BYTE	W06
	BYTE		N06     Fs1   v100
	BYTE	W06
	BYTE	PEND
// 004   ----------------------------------------
TenseAtmosphere_13_004:
	BYTE		N12     Cn1   v127
	BYTE		N06     Fs1   v100
	BYTE	W12
	BYTE		N06   
	BYTE	W06
	BYTE		N06   
	BYTE	W06
	BYTE		N06   
	BYTE		N12     Dn5   v127
	BYTE	W12
	BYTE		N06     Fs1   v100
	BYTE	W06
	BYTE		        Cn1   v127
	BYTE		N06     Fs1   v100
	BYTE	W06
	BYTE		N06   
	BYTE	W12
	BYTE		N12     Cn1   v127
	BYTE		N06     Fs1   v100
	BYTE	W06
	BYTE		N06   
	BYTE	W06
	BYTE		N06   
	BYTE		N06     Dn5   v127
	BYTE	W06
	BYTE		        Fs1   v100
	BYTE		N06     Dn5   v127
	BYTE	W06
	BYTE		N12     As1   v100
	BYTE		N06     Dn5   v127
	BYTE	W06
	BYTE		N06   
	BYTE	W06
	BYTE	PEND
// 005   ----------------------------------------
TenseAtmosphere_13_005:
	BYTE		N06     Fs1   v100
	BYTE		N48     Cs2 
	BYTE		N48     Gn2 
	BYTE		N48     An2   v072
	BYTE	W12
	BYTE		N06     Fs1   v100
	BYTE	W06
	BYTE		N06   
	BYTE	W06
	BYTE		N06   
	BYTE		N12     Dn5   v127
	BYTE	W12
	BYTE		        Cn1 
	BYTE		N06     Fs1   v100
	BYTE	W06
	BYTE		N06   
	BYTE	W06
	BYTE		N12     Cn1   v127
	BYTE		N06     Fs1   v100
	BYTE		N48     Cs2 
	BYTE		N48     Gn2 
	BYTE		N48     An2   v072
	BYTE	W12
	BYTE		N06     Fs1   v100
	BYTE	W06
	BYTE		N12     Cn1   v127
	BYTE		N06     Fs1   v100
	BYTE	W06
	BYTE		N06   
	BYTE	W12
	BYTE		N06   
	BYTE		N12     Dn5   v127
	BYTE	W06
	BYTE		N06     Fs1   v100
	BYTE	W06
	BYTE	PEND
// 006   ----------------------------------------
TenseAtmosphere_13_006:
	BYTE		N12     Cn1   v127
	BYTE		N06     Fs1   v100
	BYTE		N96     Cs2 
	BYTE		N96     Gn2 
	BYTE		N96     An2   v072
	BYTE	W12
	BYTE		N06     Fs1   v100
	BYTE	W06
	BYTE		N06   
	BYTE	W06
	BYTE		N06   
	BYTE		N12     Dn5   v127
	BYTE	W12
	BYTE		N06     Fs1   v100
	BYTE	W06
	BYTE		        Cn1   v127
	BYTE		N06     Fs1   v100
	BYTE	W06
	BYTE		N06   
	BYTE	W06
	BYTE		        Cn1   v127
	BYTE	W06
	BYTE		N12   
	BYTE		N06     Fs1   v100
	BYTE	W06
	BYTE		N06   
	BYTE	W06
	BYTE		N06   
	BYTE		N12     Dn5   v127
	BYTE	W12
	BYTE		        As1   v100
	BYTE		N06     Dn5   v127
	BYTE	W06
	BYTE		N06   
	BYTE	W06
	BYTE	PEND
// 007   ----------------------------------------
TenseAtmosphere_13_007:
	BYTE		N12     Cn1   v127
	BYTE		N06     Fs1   v100
	BYTE	W12
	BYTE		N06   
	BYTE	W06
	BYTE		N06   
	BYTE	W06
	BYTE		N06   
	BYTE		N12     Dn5   v127
	BYTE	W12
	BYTE		N06     Fs1   v100
	BYTE	W06
	BYTE		N06   
	BYTE	W06
	BYTE		N12     Cn1   v127
	BYTE		N06     Fs1   v100
	BYTE	W12
	BYTE		N06   
	BYTE	W06
	BYTE		N06   
	BYTE	W06
	BYTE		N06   
	BYTE		N12     Dn5   v127
	BYTE	W12
	BYTE		N06     Fs1   v100
	BYTE	W06
	BYTE		N06   
	BYTE	W06
	BYTE	PEND
// 008   ----------------------------------------
TenseAtmosphere_13_008:
	BYTE		N12     Cn1   v127
	BYTE		N06     Fs1   v100
	BYTE	W12
	BYTE		N12     Cn1   v127
	BYTE		N06     Fs1   v100
	BYTE	W06
	BYTE		N06   
	BYTE	W06
	BYTE		N06   
	BYTE		N12     Dn5   v127
	BYTE	W12
	BYTE		N06     Fs1   v100
	BYTE	W06
	BYTE		N06   
	BYTE	W06
	BYTE		N12     Cn1   v127
	BYTE		N06     Fs1   v100
	BYTE	W12
	BYTE		N06   
	BYTE	W06
	BYTE		        Cn1   v127
	BYTE		N06     Fs1   v100
	BYTE	W06
	BYTE		N06   
	BYTE		N06     Dn5   v127
	BYTE	W06
	BYTE		        Fs1   v100
	BYTE		N06     Dn5   v127
	BYTE	W06
	BYTE		N12     As1   v100
	BYTE		N06     Dn5   v127
	BYTE	W06
	BYTE		N06   
	BYTE	W06
	BYTE	PEND
// 009   ----------------------------------------
	BYTE	PATT
	 POIN2	TenseAtmosphere_13_001
// 010   ----------------------------------------
	BYTE	PATT
	 POIN2	TenseAtmosphere_13_002
// 011   ----------------------------------------
	BYTE	PATT
	 POIN2	TenseAtmosphere_13_003
// 012   ----------------------------------------
	BYTE	PATT
	 POIN2	TenseAtmosphere_13_004
// 013   ----------------------------------------
	BYTE	PATT
	 POIN2	TenseAtmosphere_13_005
// 014   ----------------------------------------
	BYTE	PATT
	 POIN2	TenseAtmosphere_13_006
// 015   ----------------------------------------
	BYTE	PATT
	 POIN2	TenseAtmosphere_13_007
// 016   ----------------------------------------
	BYTE	PATT
	 POIN2	TenseAtmosphere_13_008
// 017   ----------------------------------------
TenseAtmosphere_13_017:
	BYTE		N12     Cn1   v127
	BYTE		N06     Fs1   v100
	BYTE		N96     Cs2 
	BYTE		N96     Gn2 
	BYTE		N96     An2   v072
	BYTE	W12
	BYTE		N06     Fs1   v100
	BYTE	W06
	BYTE		N06   
	BYTE	W06
	BYTE		N06   
	BYTE		N12     Dn5   v127
	BYTE	W12
	BYTE		N06     Fs1   v100
	BYTE	W06
	BYTE		N06   
	BYTE	W06
	BYTE		N12     Cn1   v127
	BYTE		N06     Fs1   v100
	BYTE	W12
	BYTE		N06   
	BYTE	W06
	BYTE		N06   
	BYTE	W06
	BYTE		N06   
	BYTE		N12     Dn5   v127
	BYTE	W12
	BYTE		N06     Fs1   v100
	BYTE	W06
	BYTE		N06   
	BYTE	W06
	BYTE	PEND
// 018   ----------------------------------------
TenseAtmosphere_13_018:
	BYTE		N12     Cn1   v127
	BYTE		N06     Fs1   v100
	BYTE	W12
	BYTE		N06   
	BYTE	W06
	BYTE		N06   
	BYTE	W06
	BYTE		N06   
	BYTE		N12     Dn5   v127
	BYTE	W12
	BYTE		N06     Fs1   v100
	BYTE	W06
	BYTE		N06   
	BYTE	W06
	BYTE		N12     Cn1   v127
	BYTE		N06     Fs1   v100
	BYTE	W12
	BYTE		N06   
	BYTE	W06
	BYTE		N06   
	BYTE	W06
	BYTE		N06   
	BYTE		N12     Dn5   v127
	BYTE	W12
	BYTE		        As1   v100
	BYTE		N12     Dn5   v127
	BYTE	W12
	BYTE	PEND
// 019   ----------------------------------------
	BYTE	PATT
	 POIN2	TenseAtmosphere_13_007
// 020   ----------------------------------------
	BYTE		N12     Cn1   v127
	BYTE		N06     Fs1   v100
	BYTE	W12
	BYTE		N06   
	BYTE	W06
	BYTE		N06   
	BYTE	W06
	BYTE		N06   
	BYTE		N12     Dn5   v127
	BYTE	W12
	BYTE		N06     Fs1   v100
	BYTE	W06
	BYTE		N06   
	BYTE	W06
	BYTE		N12     Cn1   v127
	BYTE		N06     Fs1   v100
	BYTE	W12
	BYTE		N06   
	BYTE	W06
	BYTE		N06   
	BYTE	W06
	BYTE		N06   
	BYTE		N12     Dn5   v127
	BYTE	W06
	BYTE		N06     Fs1   v100
	BYTE	W06
	BYTE		N12     As1 
	BYTE		N06     Dn5   v127
	BYTE	W06
	BYTE		N06   
	BYTE	W06
// 021   ----------------------------------------
	BYTE	PATT
	 POIN2	TenseAtmosphere_13_017
// 022   ----------------------------------------
	BYTE	PATT
	 POIN2	TenseAtmosphere_13_018
// 023   ----------------------------------------
	BYTE	PATT
	 POIN2	TenseAtmosphere_13_007
// 024   ----------------------------------------
	BYTE		N12     Cn1   v127
	BYTE		N06     Fs1   v100
	BYTE		N48     Cs2 
	BYTE		N48     Gn2 
	BYTE		N48     An2   v072
	BYTE	W12
	BYTE		N06     Fs1   v100
	BYTE	W06
	BYTE		N06   
	BYTE	W06
	BYTE		N06   
	BYTE		N12     Dn5   v127
	BYTE	W12
	BYTE		N06     Fs1   v100
	BYTE	W06
	BYTE		N06   
	BYTE	W06
	BYTE		N12     Cn1   v127
	BYTE		N06     Fs1   v100
	BYTE		N48     Cs2 
	BYTE		N48     Gn2 
	BYTE		N48     An2   v072
	BYTE	W12
	BYTE		N06     Fs1   v100
	BYTE	W06
	BYTE		N06   
	BYTE	W06
	BYTE		N06   
	BYTE		N06     Dn5   v127
	BYTE	W06
	BYTE		        Fs1   v100
	BYTE		N06     Dn5   v127
	BYTE	W06
	BYTE		N12     As1   v100
	BYTE		N06     Dn5   v127
	BYTE	W06
	BYTE		N06   
	BYTE	W06
// 025   ----------------------------------------
TenseAtmosphere_13_025:
	BYTE		N12     Cn1   v127
	BYTE		N06     Fs1   v100
	BYTE		N96     Cs2 
	BYTE		N96     Gn2 
	BYTE		N96     An2   v072
	BYTE	W12
	BYTE		N06     Fs1   v100
	BYTE	W06
	BYTE		N06   
	BYTE	W06
	BYTE		N12     Cn1   v127
	BYTE		N06     Fs1   v100
	BYTE	W12
	BYTE		N06   
	BYTE	W06
	BYTE		N06   
	BYTE	W06
	BYTE		N12     Cn1   v127
	BYTE		N06     Fs1   v100
	BYTE	W12
	BYTE		N06   
	BYTE	W06
	BYTE		N06   
	BYTE	W06
	BYTE		N12     Cn1   v127
	BYTE		N06     Fs1   v100
	BYTE	W12
	BYTE		N06   
	BYTE	W06
	BYTE		N06   
	BYTE	W06
	BYTE	PEND
// 026   ----------------------------------------
TenseAtmosphere_13_026:
	BYTE		N12     Cn1   v127
	BYTE		N06     Fs1   v100
	BYTE	W12
	BYTE		N06   
	BYTE	W06
	BYTE		N06   
	BYTE	W06
	BYTE		N12     Cn1   v127
	BYTE		N06     Fs1   v100
	BYTE	W12
	BYTE		N06   
	BYTE	W06
	BYTE		N06   
	BYTE	W06
	BYTE		N12     Cn1   v127
	BYTE		N06     Fs1   v100
	BYTE	W12
	BYTE		N06   
	BYTE	W06
	BYTE		N06   
	BYTE	W06
	BYTE		N12     Cn1   v127
	BYTE		N06     Fs1   v100
	BYTE	W12
	BYTE		N12     As1 
	BYTE	W12
	BYTE	PEND
// 027   ----------------------------------------
TenseAtmosphere_13_027:
	BYTE		N12     Cn1   v127
	BYTE		N06     Fs1   v100
	BYTE	W12
	BYTE		N06   
	BYTE	W06
	BYTE		N06   
	BYTE	W06
	BYTE		N12     Cn1   v127
	BYTE		N06     Fs1   v100
	BYTE	W12
	BYTE		N06   
	BYTE	W06
	BYTE		N06   
	BYTE	W06
	BYTE		N12     Cn1   v127
	BYTE		N06     Fs1   v100
	BYTE	W12
	BYTE		N06   
	BYTE	W06
	BYTE		N06   
	BYTE	W06
	BYTE		N12     Cn1   v127
	BYTE		N06     Fs1   v100
	BYTE	W12
	BYTE		N06   
	BYTE	W06
	BYTE		N06   
	BYTE	W06
	BYTE	PEND
// 028   ----------------------------------------
	BYTE		N12     Cn1   v127
	BYTE		N06     Fs1   v100
	BYTE	W12
	BYTE		N06   
	BYTE	W06
	BYTE		N06   
	BYTE	W06
	BYTE		N12     Cn1   v127
	BYTE		N06     Fs1   v100
	BYTE	W12
	BYTE		N06   
	BYTE	W06
	BYTE		N06   
	BYTE	W06
	BYTE		N12     Cn1   v127
	BYTE		N06     Fs1   v100
	BYTE	W12
	BYTE		N06   
	BYTE	W06
	BYTE		N06   
	BYTE	W06
	BYTE		N12     Cn1   v127
	BYTE		N06     Fs1   v100
	BYTE	W06
	BYTE		N06   
	BYTE	W06
	BYTE		N12     As1 
	BYTE	W12
// 029   ----------------------------------------
	BYTE	PATT
	 POIN2	TenseAtmosphere_13_025
// 030   ----------------------------------------
	BYTE	PATT
	 POIN2	TenseAtmosphere_13_026
// 031   ----------------------------------------
	BYTE	PATT
	 POIN2	TenseAtmosphere_13_027
// 032   ----------------------------------------
	BYTE		N12     Cn1   v127
	BYTE		N06     Fs1   v100
	BYTE	W12
	BYTE		N06   
	BYTE	W06
	BYTE		N06   
	BYTE	W06
	BYTE		N12     Cn1   v127
	BYTE		N06     Fs1   v100
	BYTE	W12
	BYTE		N06   
	BYTE	W06
	BYTE		N06   
	BYTE	W06
	BYTE		N12     Cn1   v127
	BYTE		N06     Fs1   v100
	BYTE	W12
	BYTE		N06   
	BYTE	W06
	BYTE		N06   
	BYTE	W06
	BYTE		N12     Cn1   v127
	BYTE		N06     Fs1   v100
	BYTE		N06     Dn5   v127
	BYTE	W06
	BYTE		        Fs1   v100
	BYTE		N06     Dn5   v127
	BYTE	W06
	BYTE		N12     As1   v100
	BYTE		N06     Dn5   v127
	BYTE	W06
	BYTE		N06   
	BYTE	W06
// 033   ----------------------------------------
TenseAtmosphere_13_033:
	BYTE		N12     Cn1   v127
	BYTE		N06     Fs1   v100
	BYTE		N96     Cs2 
	BYTE		N96     Gn2 
	BYTE		N96     An2   v072
	BYTE	W12
	BYTE		N06     Fs1   v100
	BYTE	W06
	BYTE		N06   
	BYTE		N12     Dn5   v127
	BYTE	W06
	BYTE		N06     Fs1   v100
	BYTE	W12
	BYTE		N12     Cn1   v127
	BYTE		N06     Fs1   v100
	BYTE	W06
	BYTE		N06   
	BYTE	W06
	BYTE		N06   
	BYTE	W06
	BYTE		N12     Cn1   v127
	BYTE	W06
	BYTE		N06     Fs1   v100
	BYTE	W06
	BYTE		N06   
	BYTE	W06
	BYTE		N06   
	BYTE		N12     Dn5   v127
	BYTE	W12
	BYTE		        Cn1 
	BYTE		N06     Fs1   v100
	BYTE	W06
	BYTE		N06   
	BYTE	W06
	BYTE	PEND
// 034   ----------------------------------------
TenseAtmosphere_13_034:
	BYTE		N12     Cn1   v127
	BYTE		N06     Fs1   v100
	BYTE	W12
	BYTE		N06   
	BYTE	W06
	BYTE		N06   
	BYTE		N12     Dn5   v127
	BYTE	W06
	BYTE		N06     Fs1   v100
	BYTE	W12
	BYTE		N12     Cn1   v127
	BYTE		N06     Fs1   v100
	BYTE	W06
	BYTE		N06   
	BYTE	W06
	BYTE		N06   
	BYTE	W06
	BYTE		N12     Cn1   v127
	BYTE	W06
	BYTE		N06     Fs1   v100
	BYTE	W06
	BYTE		N06   
	BYTE	W06
	BYTE		N06   
	BYTE		N12     Dn5   v127
	BYTE	W12
	BYTE		        As1   v100
	BYTE		N12     Dn5   v127
	BYTE	W12
	BYTE	PEND
// 035   ----------------------------------------
TenseAtmosphere_13_035:
	BYTE		N12     Cn1   v127
	BYTE		N06     Fs1   v100
	BYTE	W12
	BYTE		N06   
	BYTE	W06
	BYTE		N06   
	BYTE		N12     Dn5   v127
	BYTE	W06
	BYTE		N06     Fs1   v100
	BYTE	W12
	BYTE		N12     Cn1   v127
	BYTE		N06     Fs1   v100
	BYTE	W06
	BYTE		N06   
	BYTE	W06
	BYTE		N06   
	BYTE	W06
	BYTE		N12     Cn1   v127
	BYTE	W06
	BYTE		N06     Fs1   v100
	BYTE	W06
	BYTE		N06   
	BYTE	W06
	BYTE		N06   
	BYTE		N12     Dn5   v127
	BYTE	W12
	BYTE		        Cn1 
	BYTE		N06     Fs1   v100
	BYTE	W06
	BYTE		N06   
	BYTE	W06
	BYTE	PEND
// 036   ----------------------------------------
TenseAtmosphere_13_036:
	BYTE		N12     Cn1   v127
	BYTE		N06     Fs1   v100
	BYTE	W12
	BYTE		N06   
	BYTE	W06
	BYTE		N06   
	BYTE		N12     Dn5   v127
	BYTE	W06
	BYTE		N06     Fs1   v100
	BYTE	W12
	BYTE		N12     Cn1   v127
	BYTE		N06     Fs1   v100
	BYTE	W06
	BYTE		N06   
	BYTE	W06
	BYTE		N06   
	BYTE	W06
	BYTE		N12     Cn1   v127
	BYTE	W06
	BYTE		N06     Fs1   v100
	BYTE	W06
	BYTE		N06   
	BYTE	W06
	BYTE		N06   
	BYTE		N06     Dn5   v127
	BYTE	W06
	BYTE		        Fs1   v100
	BYTE		N06     Dn5   v127
	BYTE	W06
	BYTE		N12     As1   v100
	BYTE		N06     Dn5   v127
	BYTE	W06
	BYTE		N06   
	BYTE	W06
	BYTE	PEND
// 037   ----------------------------------------
	BYTE	PATT
	 POIN2	TenseAtmosphere_13_033
// 038   ----------------------------------------
	BYTE	PATT
	 POIN2	TenseAtmosphere_13_034
// 039   ----------------------------------------
	BYTE	PATT
	 POIN2	TenseAtmosphere_13_035
// 040   ----------------------------------------
	BYTE	PATT
	 POIN2	TenseAtmosphere_13_036
// 041   ----------------------------------------
	BYTE		N12     Cn1   v127
	BYTE		N06     Fs1   v100
	BYTE		N96     Cs2 
	BYTE		N96     Gn2 
	BYTE		N96     An2   v072
	BYTE	W12
	BYTE		N06     Fs1   v100
	BYTE	W06
	BYTE		        Cn1   v127
	BYTE		N06     Fs1   v100
	BYTE	W06
	BYTE		N06   
	BYTE		N12     Dn5   v127
	BYTE	W12
	BYTE		N06     Fs1   v100
	BYTE	W06
	BYTE		N06   
	BYTE	W06
	BYTE		N12     Cn1   v127
	BYTE		N06     Fs1   v100
	BYTE	W12
	BYTE		N06   
	BYTE	W06
	BYTE		        Cn1   v127
	BYTE		N06     Fs1   v100
	BYTE	W06
	BYTE		N06   
	BYTE		N12     Dn5   v127
	BYTE	W12
	BYTE		N06     Fs1   v100
	BYTE	W06
	BYTE		N06   
	BYTE	W06
// 042   ----------------------------------------
TenseAtmosphere_13_042:
	BYTE		N12     Cn1   v127
	BYTE		N06     Fs1   v100
	BYTE	W12
	BYTE		N06   
	BYTE	W06
	BYTE		        Cn1   v127
	BYTE		N06     Fs1   v100
	BYTE	W06
	BYTE		N06   
	BYTE		N12     Dn5   v127
	BYTE	W12
	BYTE		N06     Fs1   v100
	BYTE	W06
	BYTE		N06   
	BYTE	W06
	BYTE		N12     Cn1   v127
	BYTE		N06     Fs1   v100
	BYTE	W12
	BYTE		N06   
	BYTE	W06
	BYTE		        Cn1   v127
	BYTE		N06     Fs1   v100
	BYTE	W06
	BYTE		N06   
	BYTE		N12     Dn5   v127
	BYTE	W12
	BYTE		        As1   v100
	BYTE		N12     Dn5   v127
	BYTE	W12
	BYTE	PEND
// 043   ----------------------------------------
TenseAtmosphere_13_043:
	BYTE		N12     Cn1   v127
	BYTE		N06     Fs1   v100
	BYTE	W12
	BYTE		N06   
	BYTE	W06
	BYTE		        Cn1   v127
	BYTE		N06     Fs1   v100
	BYTE	W06
	BYTE		N06   
	BYTE		N12     Dn5   v127
	BYTE	W12
	BYTE		N06     Fs1   v100
	BYTE	W06
	BYTE		N06   
	BYTE	W06
	BYTE		N12     Cn1   v127
	BYTE		N06     Fs1   v100
	BYTE	W12
	BYTE		N06   
	BYTE	W06
	BYTE		        Cn1   v127
	BYTE		N06     Fs1   v100
	BYTE	W06
	BYTE		N06   
	BYTE		N12     Dn5   v127
	BYTE	W12
	BYTE		N06     Fs1   v100
	BYTE	W06
	BYTE		N06   
	BYTE	W06
	BYTE	PEND
// 044   ----------------------------------------
TenseAtmosphere_13_044:
	BYTE		N12     Cn1   v127
	BYTE		N06     Fs1   v100
	BYTE	W12
	BYTE		N06   
	BYTE	W06
	BYTE		        Cn1   v127
	BYTE		N06     Fs1   v100
	BYTE	W06
	BYTE		N06   
	BYTE		N12     Dn5   v127
	BYTE	W12
	BYTE		N06     Fs1   v100
	BYTE	W06
	BYTE		N06   
	BYTE	W06
	BYTE		N12     Cn1   v127
	BYTE		N06     Fs1   v100
	BYTE	W12
	BYTE		N06   
	BYTE	W06
	BYTE		        Cn1   v127
	BYTE		N06     Fs1   v100
	BYTE	W06
	BYTE		N06   
	BYTE		N06     Dn5   v127
	BYTE	W06
	BYTE		        Fs1   v100
	BYTE		N06     Dn5   v127
	BYTE	W06
	BYTE		N12     As1   v100
	BYTE		N06     Dn5   v127
	BYTE	W06
	BYTE		N06   
	BYTE	W06
	BYTE	PEND
// 045   ----------------------------------------
	BYTE		N12     Cn1 
	BYTE		N96     Cs2   v100
	BYTE		N96     Gn2 
	BYTE		N96     An2   v072
	BYTE	W12
	BYTE		N06     Fs1   v100
	BYTE	W06
	BYTE		        Cn1   v127
	BYTE		N06     Fs1   v100
	BYTE	W06
	BYTE		N06   
	BYTE		N12     Dn5   v127
	BYTE	W12
	BYTE		N06     Fs1   v100
	BYTE	W06
	BYTE		N06   
	BYTE	W06
	BYTE		N12     Cn1   v127
	BYTE		N06     Fs1   v100
	BYTE	W12
	BYTE		N06   
	BYTE	W06
	BYTE		        Cn1   v127
	BYTE		N06     Fs1   v100
	BYTE	W06
	BYTE		N06   
	BYTE		N12     Dn5   v127
	BYTE	W12
	BYTE		N06     Fs1   v100
	BYTE	W06
	BYTE		N06   
	BYTE	W06
// 046   ----------------------------------------
	BYTE	PATT
	 POIN2	TenseAtmosphere_13_042
// 047   ----------------------------------------
	BYTE	PATT
	 POIN2	TenseAtmosphere_13_043
// 048   ----------------------------------------
	BYTE	PATT
	 POIN2	TenseAtmosphere_13_044
// 049   ----------------------------------------
TenseAtmosphere_13_049:
	BYTE		N96     Cs2   v100
	BYTE		N96     Gn2 
	BYTE		N96     An2   v072
	BYTE		N12     Dn5   v127
	BYTE	W12
	BYTE		        Cn1 
	BYTE		N06     Fs1   v100
	BYTE	W06
	BYTE		N06   
	BYTE	W06
	BYTE		N06   
	BYTE		N12     Dn5   v127
	BYTE	W12
	BYTE		        Cn1 
	BYTE		N06     Fs1   v100
	BYTE	W06
	BYTE		N06   
	BYTE	W06
	BYTE		N06   
	BYTE		N12     Dn5   v127
	BYTE	W12
	BYTE		        Cn1 
	BYTE		N06     Fs1   v100
	BYTE	W06
	BYTE		N06   
	BYTE	W06
	BYTE		N06   
	BYTE		N12     Dn5   v127
	BYTE	W12
	BYTE		        Cn1 
	BYTE		N06     Fs1   v100
	BYTE	W06
	BYTE		N06   
	BYTE	W06
	BYTE	PEND
// 050   ----------------------------------------
TenseAtmosphere_13_050:
	BYTE		N06     Fs1   v100
	BYTE		N12     Dn5   v127
	BYTE	W12
	BYTE		        Cn1 
	BYTE		N06     Fs1   v100
	BYTE	W06
	BYTE		N06   
	BYTE	W06
	BYTE		N06   
	BYTE		N12     Dn5   v127
	BYTE	W12
	BYTE		        Cn1 
	BYTE		N06     Fs1   v100
	BYTE	W06
	BYTE		N06   
	BYTE	W06
	BYTE		N06   
	BYTE		N12     Dn5   v127
	BYTE	W12
	BYTE		        Cn1 
	BYTE		N06     Fs1   v100
	BYTE	W06
	BYTE		N06   
	BYTE	W06
	BYTE		N06   
	BYTE		N12     Dn5   v127
	BYTE	W12
	BYTE		        Cn1 
	BYTE		N12     As1   v100
	BYTE	W12
	BYTE	PEND
// 051   ----------------------------------------
TenseAtmosphere_13_051:
	BYTE		N06     Fs1   v100
	BYTE		N96     Cs2 
	BYTE		N96     Gn2 
	BYTE		N96     An2   v072
	BYTE		N12     Dn5   v127
	BYTE	W12
	BYTE		        Cn1 
	BYTE		N06     Fs1   v100
	BYTE	W06
	BYTE		N06   
	BYTE	W06
	BYTE		N06   
	BYTE		N12     Dn5   v127
	BYTE	W12
	BYTE		        Cn1 
	BYTE		N06     Fs1   v100
	BYTE	W06
	BYTE		N06   
	BYTE	W06
	BYTE		N06   
	BYTE		N12     Dn5   v127
	BYTE	W12
	BYTE		        Cn1 
	BYTE		N06     Fs1   v100
	BYTE	W06
	BYTE		N06   
	BYTE	W06
	BYTE		N06   
	BYTE		N12     Dn5   v127
	BYTE	W12
	BYTE		        Cn1 
	BYTE		N06     Fs1   v100
	BYTE	W06
	BYTE		N06   
	BYTE	W06
	BYTE	PEND
// 052   ----------------------------------------
	BYTE		N06   
	BYTE		N12     Dn5   v127
	BYTE	W12
	BYTE		        Cn1 
	BYTE		N06     Fs1   v100
	BYTE	W06
	BYTE		N06   
	BYTE	W06
	BYTE		N06   
	BYTE		N12     Dn5   v127
	BYTE	W12
	BYTE		        Cn1 
	BYTE		N06     Fs1   v100
	BYTE	W06
	BYTE		N06   
	BYTE	W06
	BYTE		N06   
	BYTE		N12     Dn5   v127
	BYTE	W12
	BYTE		        Cn1 
	BYTE		N06     Fs1   v100
	BYTE	W06
	BYTE		N06   
	BYTE	W06
	BYTE		N06   
	BYTE		N12     Dn5   v127
	BYTE	W06
	BYTE		N06     Fs1   v100
	BYTE	W06
	BYTE		N12     Cn1   v127
	BYTE		N12     As1   v100
	BYTE	W12
// 053   ----------------------------------------
	BYTE	PATT
	 POIN2	TenseAtmosphere_13_049
// 054   ----------------------------------------
	BYTE	PATT
	 POIN2	TenseAtmosphere_13_050
// 055   ----------------------------------------
	BYTE	PATT
	 POIN2	TenseAtmosphere_13_051
// 056   ----------------------------------------
	BYTE		N06     Fs1   v100
	BYTE		N12     Dn5   v127
	BYTE	W12
	BYTE		        Cn1 
	BYTE		N06     Fs1   v100
	BYTE	W06
	BYTE		N06   
	BYTE	W06
	BYTE		N06   
	BYTE		N12     Dn5   v127
	BYTE	W12
	BYTE		        Cn1 
	BYTE		N06     Fs1   v100
	BYTE	W06
	BYTE		N06   
	BYTE	W06
	BYTE		N06   
	BYTE		N12     Dn5   v127
	BYTE	W12
	BYTE		        Cn1 
	BYTE		N06     Fs1   v100
	BYTE	W06
	BYTE		N06   
	BYTE	W06
	BYTE		N06   
	BYTE		N06     Dn5   v127
	BYTE	W06
	BYTE		        Fs1   v100
	BYTE		N06     Dn5   v127
	BYTE	W06
	BYTE		N12     As1   v100
	BYTE		N06     Dn5   v127
	BYTE	W06
	BYTE		N06   
	BYTE	W06
	BYTE	GoTo
	 POIN2	TenseAtmosphere_13_B1
TenseAtmosphere_13_B2:
// 057   ----------------------------------------
	BYTE	FINE

//******************************************************//
	ALIGN 4

TenseAtmosphere:
	BYTE	13	// NumTrks
	BYTE	0	// NumBlks
	BYTE	TenseAtmosphere_pri	// Priority
	BYTE	TenseAtmosphere_rev	// Reverb.

	POIN2	TenseAtmosphere_grp

	POIN2	TenseAtmosphere_1
	POIN2	TenseAtmosphere_2
	POIN2	TenseAtmosphere_3
	POIN2	TenseAtmosphere_4
	POIN2	TenseAtmosphere_5
	POIN2	TenseAtmosphere_6
	POIN2	TenseAtmosphere_7
	POIN2	TenseAtmosphere_8
	POIN2	TenseAtmosphere_9
	POIN2	TenseAtmosphere_10
	POIN2	TenseAtmosphere_11
	POIN2	TenseAtmosphere_12
	POIN2	TenseAtmosphere_13

	
