//Event file generated from Sappy .s format.
	#include "MPlayDef.event"

	#define	TheRaisingFightingSpirit_grp  voicegroup000
	#define	TheRaisingFightingSpirit_pri  0
	#define	TheRaisingFightingSpirit_rev  0
	#define	TheRaisingFightingSpirit_mvl  127
	#define	TheRaisingFightingSpirit_key  0
	#define	TheRaisingFightingSpirit_tbs  1
	#define	TheRaisingFightingSpirit_exg  0
	#define	TheRaisingFightingSpirit_cmp  1

	// .rodata
	//	TheRaisingFightingSpirit
	ALIGN 4


//**************** Track 1 (Midi-Chn.0) ****************//

TheRaisingFightingSpirit_001:
// 000   ----------------------------------------
 BYTE   KEYSH   TheRaisingFightingSpirit_key+0
Label_0_013666CE:
 BYTE   TEMPO   210*TheRaisingFightingSpirit_tbs/2
 BYTE   VOICE   29
 BYTE   MODT 0
 BYTE   CnM2
 BYTE   LFOS 0
 BYTE   Gs1
 BYTE   VOL   33*TheRaisingFightingSpirit_mvl/mxv
 BYTE   PAN   c_v+0
 BYTE   VOL   33*TheRaisingFightingSpirit_mvl/mxv
 BYTE   PAN   c_v+0
 BYTE   N11  En1  v100
 BYTE   W12
 BYTE   N11
 BYTE   W12
 BYTE   N11
 BYTE   W12
 BYTE   Fs1
 BYTE   W12
 BYTE   En1
 BYTE   W12
 BYTE   N11
 BYTE   W12
 BYTE   N02  An1
 BYTE   W03
 BYTE   N08  Bn1
 BYTE   W09
 BYTE   N11  An1
 BYTE   W12
// 001   ----------------------------------------
 BYTE   Gn1
 BYTE   W12
 BYTE   An1
 BYTE   W12
 BYTE   Gn1
 BYTE   W12
 BYTE   Fs1
 BYTE   W12
Label_0_013666FD:
 BYTE   N11  En1  v100
 BYTE   W12
 BYTE   N11
 BYTE   W12
 BYTE   N11
 BYTE   W12
 BYTE   Fs1
 BYTE   W12
// 002   ----------------------------------------
 BYTE   En1
 BYTE   W12
 BYTE   N11
 BYTE   W12
 BYTE   N36  Dn2
 BYTE   W36
 BYTE   N32  An1
 BYTE   W36
 BYTE   PEND 
// 003   ----------------------------------------
Label_0_01366712:
 BYTE   N11  En1  v100
 BYTE   W12
 BYTE   N11
 BYTE   W12
 BYTE   N11
 BYTE   W12
 BYTE   Fs1
 BYTE   W12
 BYTE   En1
 BYTE   W12
 BYTE   N11
 BYTE   W12
 BYTE   N02  An1
 BYTE   W02
 BYTE   N08  Bn1
 BYTE   W10
 BYTE   N11  An1
 BYTE   W12
// 004   ----------------------------------------
 BYTE   Gn1
 BYTE   W12
 BYTE   An1
 BYTE   W12
 BYTE   Gn1
 BYTE   W12
 BYTE   Fs1
 BYTE   W12
 BYTE   PEND 
Label_0_01366732:
 BYTE   W12
 BYTE   N20  Cn2  v100
 BYTE   W24
 BYTE   N36
 BYTE   W48
// 005   ----------------------------------------
 BYTE   N20  Bn1
 BYTE   W24
 BYTE   N36
 BYTE   W36
 BYTE   PEND 
Label_0_0136673F:
 BYTE   N11  En1  v100
 BYTE   W12
 BYTE   N11
 BYTE   W12
 BYTE   N11
 BYTE   W12
// 006   ----------------------------------------
 BYTE   Fs1
 BYTE   W12
 BYTE   En1
 BYTE   W12
 BYTE   N11
 BYTE   W12
 BYTE   N02  An1
 BYTE   W03
 BYTE   N08  Bn1
 BYTE   W09
 BYTE   N11  An1
 BYTE   W12
 BYTE   Gn1
 BYTE   W12
 BYTE   An1
 BYTE   W12
 BYTE   Gn1
 BYTE   W12
// 007   ----------------------------------------
 BYTE   Fs1
 BYTE   W12
 BYTE   PEND 
 BYTE   PATT
  POIN2 Label_0_013666FD
 BYTE   PATT
  POIN2 Label_0_0136673F
 BYTE   PATT
  POIN2 Label_0_01366732
// 008   ----------------------------------------
Label_0_0136676E:
 BYTE   N36  En2  v056
 BYTE   W48
 BYTE   N11
 BYTE   W12
 BYTE   N11
 BYTE   W12
 BYTE   N36
 BYTE   W48
// 009   ----------------------------------------
 BYTE   N11
 BYTE   W12
 BYTE   N11
 BYTE   W12
 BYTE   PEND 
Label_0_0136677D:
 BYTE   N36  Dn2  v056
 BYTE   W48
 BYTE   N11
 BYTE   W12
 BYTE   N11
 BYTE   W12
// 010   ----------------------------------------
 BYTE   N36
 BYTE   W48
 BYTE   N11
 BYTE   W12
 BYTE   N11
 BYTE   W12
 BYTE   PEND 
 BYTE   PATT
  POIN2 Label_0_0136676E
 BYTE   PATT
  POIN2 Label_0_0136677D
// 011   ----------------------------------------
Label_0_01366796:
 BYTE   N32  Cn2  v056
 BYTE   W48
 BYTE   N11
 BYTE   W12
 BYTE   N11
 BYTE   W12
 BYTE   N32
 BYTE   W48
// 012   ----------------------------------------
 BYTE   N11
 BYTE   W12
 BYTE   N11
 BYTE   W12
 BYTE   PEND 
Label_0_013667A5:
 BYTE   N32  Dn2  v056
 BYTE   W48
 BYTE   N11
 BYTE   W12
 BYTE   N11
 BYTE   W12
// 013   ----------------------------------------
 BYTE   N32
 BYTE   W36
 BYTE   N12
 BYTE   W12
 BYTE   N24
 BYTE   W24
 BYTE   PEND 
 BYTE   PATT
  POIN2 Label_0_01366712
 BYTE   PATT
  POIN2 Label_0_01366732
 BYTE   PATT
  POIN2 Label_0_0136676E
 BYTE   PATT
  POIN2 Label_0_0136677D
 BYTE   PATT
  POIN2 Label_0_0136676E
 BYTE   PATT
  POIN2 Label_0_0136677D
 BYTE   PATT
  POIN2 Label_0_01366796
 BYTE   PATT
  POIN2 Label_0_013667A5
 BYTE   PATT
  POIN2 Label_0_01366712
// 014   ----------------------------------------
 BYTE   W12
 BYTE   N20  Cn2  v100
 BYTE   W24
 BYTE   N36
 BYTE   W48
 BYTE   N20  Dn2
 BYTE   W24
// 015   ----------------------------------------
 BYTE   N36
 BYTE   W36
Label_0_013667ED:
 BYTE   N11  Cn2  v100
 BYTE   W12
 BYTE   N11
 BYTE   W12
 BYTE   N11
 BYTE   W12
 BYTE   N11
 BYTE   W12
 BYTE   N11
 BYTE   W12
// 016   ----------------------------------------
 BYTE   N11
 BYTE   W12
 BYTE   N24
 BYTE   W24
 BYTE   N11
 BYTE   W12
 BYTE   N11
 BYTE   W12
 BYTE   N11
 BYTE   W12
 BYTE   N11
 BYTE   W12
 BYTE   PEND 
 BYTE   PATT
  POIN2 Label_0_013667ED
// 017   ----------------------------------------
 BYTE   N24  Bn1  v100
 BYTE   W24
 BYTE   N11
 BYTE   W12
 BYTE   N11
 BYTE   W12
 BYTE   N11
 BYTE   W12
 BYTE   N11
 BYTE   W12
 BYTE   N24
 BYTE   W24
// 018   ----------------------------------------
 BYTE   N11
 BYTE   W12
 BYTE   N11
 BYTE   W12
 BYTE   N11
 BYTE   W12
 BYTE   N11
 BYTE   W12
 BYTE   N36  En1
 BYTE   W36
 BYTE   Fs1
 BYTE   W36
// 019   ----------------------------------------
 BYTE   Gn1
 BYTE   W36
 BYTE   Gs1
 BYTE   W36
 BYTE   An1
 BYTE   W36
// 020   ----------------------------------------
 BYTE   N11
 BYTE   W12
 BYTE   N11
 BYTE   W12
 BYTE   N11
 BYTE   W12
 BYTE   N36
 BYTE   W36
 BYTE   N11
 BYTE   W12
 BYTE   N11
 BYTE   W12
// 021   ----------------------------------------
 BYTE   N11
 BYTE   W12
 BYTE   N36  Bn1
 BYTE   W36
 BYTE   N11
 BYTE   W12
 BYTE   N11
 BYTE   W12
 BYTE   N11
 BYTE   W12
 BYTE   N36
 BYTE   W36
// 022   ----------------------------------------
 BYTE   N11
 BYTE   W12
 BYTE   N11
 BYTE   W12
 BYTE   N11
 BYTE   W12
 BYTE   N36  Cn2
 BYTE   W36
 BYTE   N11
 BYTE   W12
 BYTE   N11
 BYTE   W12
// 023   ----------------------------------------
 BYTE   N11
 BYTE   W12
 BYTE   N36
 BYTE   W36
 BYTE   N36
 BYTE   W36
 BYTE   N24  Dn2
 BYTE   W24
// 024   ----------------------------------------
 BYTE   N24
 BYTE   W24
 BYTE   N24
 BYTE   W24
 BYTE   N36
 BYTE   W72
// 025   ----------------------------------------
Label_0_01366861:
 BYTE   N72  En1  v127
 BYTE   W72
 BYTE   Fs1
 BYTE   W72
 BYTE   PEND 
// 026   ----------------------------------------
Label_0_01366868:
 BYTE   N72  Gn1  v127
 BYTE   W72
 BYTE   N66  Gn1  v100
 BYTE   W72
 BYTE   PEND 
// 027   ----------------------------------------
 BYTE   N72  Cn2  v127
 BYTE   W72
 BYTE   Gn1
 BYTE   W72
// 028   ----------------------------------------
 BYTE   Dn2
 BYTE   W72
 BYTE   N66  Bn1
 BYTE   W72
 BYTE   PATT
  POIN2 Label_0_01366861
 BYTE   PATT
  POIN2 Label_0_01366868
// 029   ----------------------------------------
 BYTE   N72  Cn2  v127
 BYTE   W72
 BYTE   Dn2
 BYTE   W72
// 030   ----------------------------------------
 BYTE   N20  En2
 BYTE   W24
 BYTE   N20
 BYTE   W24
 BYTE   N20
 BYTE   W24
 BYTE   N32
 BYTE   W72
 BYTE   PATT
  POIN2 Label_0_01366712
 BYTE   PATT
  POIN2 Label_0_013666FD
 BYTE   PATT
  POIN2 Label_0_0136673F
 BYTE   PATT
  POIN2 Label_0_01366732
 BYTE   PATT
  POIN2 Label_0_0136673F
 BYTE   PATT
  POIN2 Label_0_013666FD
 BYTE   PATT
  POIN2 Label_0_01366712
 BYTE   PATT
  POIN2 Label_0_01366732
// 031   ----------------------------------------
 BYTE   N20  En2  v100
 BYTE   W24
 BYTE   N20
 BYTE   W24
 BYTE   N20
 BYTE   W24
 BYTE   N20
 BYTE   W24
// 032   ----------------------------------------
 BYTE   N20
 BYTE   W24
 BYTE   N20
 BYTE   W24
 BYTE   N32
 BYTE   W30
 BYTE   GoTo
  POIN2 Label_0_013666CE
// 033   ----------------------------------------
 BYTE   W96
// 034   ----------------------------------------
 BYTE   W12
 BYTE   FINE

//**************** Track 2 (Midi-Chn.1) ****************//

TheRaisingFightingSpirit_002:
// 000   ----------------------------------------
 BYTE   KEYSH   TheRaisingFightingSpirit_key+0
Label_1_013668DA:
 BYTE   VOICE   28
 BYTE   MODT 0
 BYTE   CnM2
 BYTE   LFOS 0
 BYTE   Gs1
 BYTE   VOL   33*TheRaisingFightingSpirit_mvl/mxv
 BYTE   PAN   c_v+0
 BYTE   VOL   33*TheRaisingFightingSpirit_mvl/mxv
 BYTE   PAN   c_v+0
 BYTE   N11  En1  v100
 BYTE   W12
 BYTE   N11
 BYTE   W12
 BYTE   N11
 BYTE   W12
 BYTE   Fs1
 BYTE   W12
 BYTE   En1
 BYTE   W12
 BYTE   N11
 BYTE   W12
 BYTE   N02  An1
 BYTE   W03
 BYTE   N08  Bn1
 BYTE   W09
 BYTE   N11  An1
 BYTE   W12
// 001   ----------------------------------------
 BYTE   Gn1
 BYTE   W12
 BYTE   An1
 BYTE   W12
 BYTE   Gn1
 BYTE   W12
 BYTE   Fs1
 BYTE   W12
Label_1_01366907:
 BYTE   N11  En1  v100
 BYTE   W12
 BYTE   N11
 BYTE   W12
 BYTE   N11
 BYTE   W12
 BYTE   Fs1
 BYTE   W12
// 002   ----------------------------------------
 BYTE   En1
 BYTE   W12
 BYTE   N11
 BYTE   W84
 BYTE   PEND 
// 003   ----------------------------------------
Label_1_01366916:
 BYTE   N11  En1  v100
 BYTE   W12
 BYTE   N11
 BYTE   W12
 BYTE   N11
 BYTE   W12
 BYTE   Fs1
 BYTE   W12
 BYTE   En1
 BYTE   W12
 BYTE   N11
 BYTE   W12
 BYTE   N02  An1
 BYTE   W02
 BYTE   N08  Bn1
 BYTE   W10
 BYTE   N11  An1
 BYTE   W12
// 004   ----------------------------------------
 BYTE   Gn1
 BYTE   W12
 BYTE   An1
 BYTE   W12
 BYTE   Gn1
 BYTE   W12
 BYTE   Fs1
 BYTE   W12
 BYTE   PEND 
 BYTE   W96
// 005   ----------------------------------------
 BYTE   W48
Label_1_01366938:
 BYTE   N11  En1  v100
 BYTE   W12
 BYTE   N11
 BYTE   W12
 BYTE   N11
 BYTE   W12
 BYTE   Fs1
 BYTE   W12
// 006   ----------------------------------------
 BYTE   En1
 BYTE   W12
 BYTE   N11
 BYTE   W12
 BYTE   N02  An1
 BYTE   W03
 BYTE   N08  Bn1
 BYTE   W09
 BYTE   N11  An1
 BYTE   W12
 BYTE   Gn1
 BYTE   W12
 BYTE   An1
 BYTE   W12
 BYTE   Gn1
 BYTE   W12
 BYTE   Fs1
 BYTE   W12
 BYTE   PEND 
 BYTE   PATT
  POIN2 Label_1_01366907
 BYTE   PATT
  POIN2 Label_1_01366938
// 007   ----------------------------------------
 BYTE   W96
// 008   ----------------------------------------
 BYTE   W48
Label_1_01366964:
 BYTE   N20  En1  v064
 BYTE   W24
 BYTE   N11  En1  v036
 BYTE   W12
 BYTE   N11
 BYTE   W12
// 009   ----------------------------------------
 BYTE   N11
 BYTE   W12
 BYTE   N11
 BYTE   W12
 BYTE   N20  En1  v064
 BYTE   W24
 BYTE   N11  En1  v036
 BYTE   W12
 BYTE   N11
 BYTE   W12
 BYTE   N11
 BYTE   W12
 BYTE   N11
 BYTE   W12
 BYTE   PEND 
// 010   ----------------------------------------
Label_1_01366981:
 BYTE   N20  Dn1  v064
 BYTE   W24
 BYTE   N11  Dn1  v036
 BYTE   W12
 BYTE   N11
 BYTE   W12
 BYTE   N11
 BYTE   W12
 BYTE   N11
 BYTE   W12
 BYTE   N20  Dn1  v064
 BYTE   W24
// 011   ----------------------------------------
 BYTE   N11  Dn1  v036
 BYTE   W12
 BYTE   N11
 BYTE   W12
 BYTE   N11
 BYTE   W12
 BYTE   N11
 BYTE   W12
 BYTE   PEND 
 BYTE   PATT
  POIN2 Label_1_01366964
 BYTE   PATT
  POIN2 Label_1_01366981
// 012   ----------------------------------------
 BYTE   W96
// 013   ----------------------------------------
 BYTE   W48
 BYTE   W96
// 014   ----------------------------------------
 BYTE   W48
Label_1_013669AC:
 BYTE   N11  En1  v076
 BYTE   W12
 BYTE   N11
 BYTE   W12
 BYTE   N11
 BYTE   W12
 BYTE   Fs1
 BYTE   W12
// 015   ----------------------------------------
 BYTE   En1
 BYTE   W12
 BYTE   N11
 BYTE   W12
 BYTE   N02  An1
 BYTE   W02
 BYTE   N08  Bn1
 BYTE   W10
 BYTE   N11  An1
 BYTE   W12
 BYTE   Gn1
 BYTE   W12
 BYTE   An1
 BYTE   W12
 BYTE   Gn1
 BYTE   W12
 BYTE   Fs1
 BYTE   W12
 BYTE   PEND 
// 016   ----------------------------------------
 BYTE   W96
// 017   ----------------------------------------
 BYTE   W48
 BYTE   PATT
  POIN2 Label_1_01366964
 BYTE   PATT
  POIN2 Label_1_01366981
 BYTE   PATT
  POIN2 Label_1_01366964
 BYTE   PATT
  POIN2 Label_1_01366981
// 018   ----------------------------------------
 BYTE   W96
// 019   ----------------------------------------
 BYTE   W48
 BYTE   W96
// 020   ----------------------------------------
 BYTE   W48
 BYTE   PATT
  POIN2 Label_1_01366916
// 021   ----------------------------------------
 BYTE   W96
// 022   ----------------------------------------
 BYTE   W48
Label_1_013669ED:
 BYTE   N11  Cn2  v076
 BYTE   W12
 BYTE   N11
 BYTE   W12
 BYTE   N11
 BYTE   W12
 BYTE   N11
 BYTE   W12
// 023   ----------------------------------------
 BYTE   N11
 BYTE   W12
 BYTE   N11
 BYTE   W12
 BYTE   N24
 BYTE   W24
 BYTE   N11
 BYTE   W12
 BYTE   N11
 BYTE   W12
 BYTE   N11
 BYTE   W12
 BYTE   N11
 BYTE   W12
 BYTE   PEND 
 BYTE   PATT
  POIN2 Label_1_013669ED
// 024   ----------------------------------------
 BYTE   N24  Bn1  v076
 BYTE   W24
 BYTE   N11
 BYTE   W12
 BYTE   N11
 BYTE   W12
 BYTE   N11
 BYTE   W12
 BYTE   N11
 BYTE   W12
 BYTE   N24
 BYTE   W24
// 025   ----------------------------------------
 BYTE   N11
 BYTE   W12
 BYTE   N11
 BYTE   W12
 BYTE   N11
 BYTE   W12
 BYTE   N11
 BYTE   W12
 BYTE   W96
// 026   ----------------------------------------
 BYTE   W48
 BYTE   N36  An1
 BYTE   W36
 BYTE   N11
 BYTE   W12
// 027   ----------------------------------------
 BYTE   N11
 BYTE   W12
 BYTE   N11
 BYTE   W12
 BYTE   N36
 BYTE   W36
 BYTE   N11
 BYTE   W12
 BYTE   N11
 BYTE   W12
 BYTE   N11
 BYTE   W12
// 028   ----------------------------------------
 BYTE   N36  Bn1
 BYTE   W36
 BYTE   N11
 BYTE   W12
 BYTE   N11
 BYTE   W12
 BYTE   N11
 BYTE   W12
 BYTE   N36
 BYTE   W36
// 029   ----------------------------------------
 BYTE   N11
 BYTE   W12
 BYTE   N11
 BYTE   W12
 BYTE   N11
 BYTE   W12
 BYTE   N36  Cn2
 BYTE   W36
 BYTE   N11
 BYTE   W12
 BYTE   N11
 BYTE   W12
// 030   ----------------------------------------
 BYTE   N11
 BYTE   W12
 BYTE   N36
 BYTE   W36
 BYTE   N36
 BYTE   W36
 BYTE   N24  Dn2
 BYTE   W24
// 031   ----------------------------------------
 BYTE   N24
 BYTE   W24
 BYTE   N24
 BYTE   W24
 BYTE   N36
 BYTE   W72
// 032   ----------------------------------------
 BYTE   W96
// 033   ----------------------------------------
 BYTE   W48
 BYTE   W96
// 034   ----------------------------------------
 BYTE   W48
 BYTE   W96
// 035   ----------------------------------------
 BYTE   W48
 BYTE   W96
// 036   ----------------------------------------
 BYTE   W48
 BYTE   W96
// 037   ----------------------------------------
 BYTE   W48
 BYTE   W96
// 038   ----------------------------------------
 BYTE   W48
 BYTE   W96
// 039   ----------------------------------------
 BYTE   W48
 BYTE   W96
// 040   ----------------------------------------
 BYTE   W48
 BYTE   PATT
  POIN2 Label_1_013669AC
// 041   ----------------------------------------
Label_1_01366A70:
 BYTE   N11  En1  v076
 BYTE   W12
 BYTE   N11
 BYTE   W12
 BYTE   N11
 BYTE   W12
 BYTE   Fs1
 BYTE   W12
 BYTE   En1
 BYTE   W12
 BYTE   N11
 BYTE   W84
 BYTE   PEND 
// 042   ----------------------------------------
Label_1_01366A7F:
 BYTE   N11  En1  v076
 BYTE   W12
 BYTE   N11
 BYTE   W12
 BYTE   N11
 BYTE   W12
 BYTE   Fs1
 BYTE   W12
 BYTE   En1
 BYTE   W12
 BYTE   N11
 BYTE   W12
 BYTE   N02  An1
 BYTE   W03
 BYTE   N08  Bn1
 BYTE   W09
 BYTE   N11  An1
 BYTE   W12
// 043   ----------------------------------------
 BYTE   Gn1
 BYTE   W12
 BYTE   An1
 BYTE   W12
 BYTE   Gn1
 BYTE   W12
 BYTE   Fs1
 BYTE   W12
 BYTE   PEND 
 BYTE   W96
// 044   ----------------------------------------
 BYTE   W48
 BYTE   PATT
  POIN2 Label_1_01366A7F
 BYTE   PATT
  POIN2 Label_1_01366A70
 BYTE   PATT
  POIN2 Label_1_013669AC
// 045   ----------------------------------------
 BYTE   W96
// 046   ----------------------------------------
 BYTE   W48
 BYTE   W96
// 047   ----------------------------------------
 BYTE   W48
 BYTE   W30
 BYTE   GoTo
  POIN2 Label_1_013668DA
// 048   ----------------------------------------
 BYTE   W96
// 049   ----------------------------------------
 BYTE   W12
 BYTE   FINE

//**************** Track 3 (Midi-Chn.2) ****************//

TheRaisingFightingSpirit_003:
// 000   ----------------------------------------
 BYTE   KEYSH   TheRaisingFightingSpirit_key+0
Label_2_01366AC2:
 BYTE   VOICE   33
 BYTE   MODT 0
 BYTE   CnM2
 BYTE   LFOS 0
 BYTE   Gs1
 BYTE   VOL   50*TheRaisingFightingSpirit_mvl/mxv
 BYTE   PAN   c_v+0
 BYTE   VOL   50*TheRaisingFightingSpirit_mvl/mxv
 BYTE   PAN   c_v+0
 BYTE   N11  En0  v100
 BYTE   W12
 BYTE   N11
 BYTE   W12
 BYTE   N11
 BYTE   W12
 BYTE   Fs0
 BYTE   W12
 BYTE   En0
 BYTE   W12
 BYTE   N11
 BYTE   W12
 BYTE   Bn0
 BYTE   W12
 BYTE   An0
 BYTE   W12
// 001   ----------------------------------------
 BYTE   Gn0
 BYTE   W12
 BYTE   An0
 BYTE   W12
 BYTE   Gn0
 BYTE   W12
 BYTE   Fs0
 BYTE   W12
Label_2_01366AEA:
 BYTE   N11  En0  v100
 BYTE   W12
 BYTE   N11
 BYTE   W12
 BYTE   N11
 BYTE   W12
 BYTE   Fs0
 BYTE   W12
// 002   ----------------------------------------
 BYTE   En0
 BYTE   W12
 BYTE   N11
 BYTE   W12
 BYTE   N32  Dn1
 BYTE   W36
 BYTE   An0
 BYTE   W36
 BYTE   PEND 
// 003   ----------------------------------------
Label_2_01366AFE:
 BYTE   N11  En0  v100
 BYTE   W12
 BYTE   N11
 BYTE   W12
 BYTE   N11
 BYTE   W12
 BYTE   Fs0
 BYTE   W12
 BYTE   En0
 BYTE   W12
 BYTE   N11
 BYTE   W12
 BYTE   Bn0
 BYTE   W12
 BYTE   An0
 BYTE   W12
// 004   ----------------------------------------
 BYTE   Gn0
 BYTE   W12
 BYTE   An0
 BYTE   W12
 BYTE   Gn0
 BYTE   W12
 BYTE   Fs0
 BYTE   W12
 BYTE   PEND 
Label_2_01366B19:
 BYTE   N03  En0  v100
 BYTE   W12
 BYTE   N20  Cn1
 BYTE   W24
 BYTE   N24
 BYTE   W24
// 005   ----------------------------------------
 BYTE   N03  Dn0
 BYTE   W12
 BYTE   En0
 BYTE   W12
 BYTE   N20  Bn0
 BYTE   W24
 BYTE   N36
 BYTE   W36
 BYTE   PEND 
 BYTE   PATT
  POIN2 Label_2_01366AFE
 BYTE   PATT
  POIN2 Label_2_01366AEA
 BYTE   PATT
  POIN2 Label_2_01366AFE
 BYTE   PATT
  POIN2 Label_2_01366B19
// 006   ----------------------------------------
Label_2_01366B41:
 BYTE   N24  En0  v100
 BYTE   W24
 BYTE   N12
 BYTE   W12
 BYTE   N12
 BYTE   W12
 BYTE   N12
 BYTE   W12
 BYTE   N12
 BYTE   W12
 BYTE   N24
 BYTE   W24
// 007   ----------------------------------------
 BYTE   N12
 BYTE   W12
 BYTE   N12
 BYTE   W12
 BYTE   N12
 BYTE   W12
 BYTE   N12
 BYTE   W12
 BYTE   PEND 
Label_2_01366B58:
 BYTE   N24  Dn0  v100
 BYTE   W24
 BYTE   N12
 BYTE   W12
 BYTE   N12
 BYTE   W12
// 008   ----------------------------------------
 BYTE   N12
 BYTE   W12
 BYTE   N12
 BYTE   W12
 BYTE   N24
 BYTE   W24
 BYTE   N12
 BYTE   W12
 BYTE   N12
 BYTE   W12
 BYTE   N12
 BYTE   W12
 BYTE   N12
 BYTE   W12
 BYTE   PEND 
 BYTE   PATT
  POIN2 Label_2_01366B41
 BYTE   PATT
  POIN2 Label_2_01366B58
// 009   ----------------------------------------
Label_2_01366B79:
 BYTE   N24  Cn1  v100
 BYTE   W24
 BYTE   N12
 BYTE   W12
 BYTE   N12
 BYTE   W12
 BYTE   N12
 BYTE   W12
 BYTE   N12
 BYTE   W12
 BYTE   N24
 BYTE   W24
// 010   ----------------------------------------
 BYTE   N12
 BYTE   W12
 BYTE   N12
 BYTE   W12
 BYTE   N12
 BYTE   W12
 BYTE   N12
 BYTE   W12
 BYTE   PEND 
Label_2_01366B90:
 BYTE   N24  Dn1  v100
 BYTE   W24
 BYTE   N12
 BYTE   W12
 BYTE   N12
 BYTE   W12
// 011   ----------------------------------------
 BYTE   N12
 BYTE   W12
 BYTE   N12
 BYTE   W12
 BYTE   N24
 BYTE   W24
 BYTE   N12
 BYTE   W12
 BYTE   N12
 BYTE   W12
 BYTE   N12
 BYTE   W12
 BYTE   N12
 BYTE   W12
 BYTE   PEND 
 BYTE   PATT
  POIN2 Label_2_01366AFE
 BYTE   PATT
  POIN2 Label_2_01366B19
 BYTE   PATT
  POIN2 Label_2_01366B41
 BYTE   PATT
  POIN2 Label_2_01366B58
 BYTE   PATT
  POIN2 Label_2_01366B41
 BYTE   PATT
  POIN2 Label_2_01366B58
 BYTE   PATT
  POIN2 Label_2_01366B79
 BYTE   PATT
  POIN2 Label_2_01366B90
 BYTE   PATT
  POIN2 Label_2_01366AFE
// 012   ----------------------------------------
 BYTE   N03  En0  v100
 BYTE   W12
 BYTE   N20  Cn1
 BYTE   W24
 BYTE   N24
 BYTE   W24
 BYTE   N03  Dn0
 BYTE   W12
 BYTE   En0
 BYTE   W12
 BYTE   N20  Dn1
 BYTE   W24
// 013   ----------------------------------------
 BYTE   N36
 BYTE   W36
 BYTE   PATT
  POIN2 Label_2_01366B79
// 014   ----------------------------------------
 BYTE   N12  Cn1  v100
 BYTE   W12
 BYTE   N12
 BYTE   W12
 BYTE   N12
 BYTE   W12
 BYTE   N12
 BYTE   W12
 BYTE   N12
 BYTE   W12
 BYTE   N12
 BYTE   W12
 BYTE   N24
 BYTE   W24
// 015   ----------------------------------------
 BYTE   N12
 BYTE   W12
 BYTE   N12
 BYTE   W12
 BYTE   N12
 BYTE   W12
 BYTE   N12
 BYTE   W12
Label_2_01366C04:
 BYTE   N24  Bn0  v100
 BYTE   W24
 BYTE   N12
 BYTE   W12
 BYTE   N12
 BYTE   W12
// 016   ----------------------------------------
 BYTE   N12
 BYTE   W12
 BYTE   N12
 BYTE   W12
 BYTE   N24
 BYTE   W24
 BYTE   N12
 BYTE   W12
 BYTE   N12
 BYTE   W12
 BYTE   N12
 BYTE   W12
 BYTE   N12
 BYTE   W12
 BYTE   PEND 
// 017   ----------------------------------------
 BYTE   N36  En0
 BYTE   W36
 BYTE   Fs0
 BYTE   W36
 BYTE   Gn0
 BYTE   W36
// 018   ----------------------------------------
 BYTE   Gs0
 BYTE   W36
 BYTE   N24  An0
 BYTE   W24
 BYTE   N12
 BYTE   W12
 BYTE   N12
 BYTE   W12
 BYTE   N12
 BYTE   W12
// 019   ----------------------------------------
 BYTE   N12
 BYTE   W12
 BYTE   N24
 BYTE   W24
 BYTE   N12
 BYTE   W12
 BYTE   N12
 BYTE   W12
 BYTE   N12
 BYTE   W12
 BYTE   N12
 BYTE   W12
 BYTE   PATT
  POIN2 Label_2_01366C04
// 020   ----------------------------------------
 BYTE   N11  Cn1  v100
 BYTE   W12
 BYTE   N11
 BYTE   W12
 BYTE   N11
 BYTE   W12
 BYTE   N11
 BYTE   W12
 BYTE   N11
 BYTE   W12
 BYTE   N11
 BYTE   W12
 BYTE   N11
 BYTE   W12
 BYTE   N11
 BYTE   W12
// 021   ----------------------------------------
 BYTE   N11
 BYTE   W12
 BYTE   N11
 BYTE   W12
 BYTE   N11
 BYTE   W12
 BYTE   N11
 BYTE   W12
 BYTE   N20  Dn1
 BYTE   W24
 BYTE   N20
 BYTE   W24
// 022   ----------------------------------------
 BYTE   N20
 BYTE   W24
 BYTE   N32
 BYTE   W72
// 023   ----------------------------------------
Label_2_01366C61:
 BYTE   N12  En0  v100
 BYTE   W12
 BYTE   N12
 BYTE   W12
 BYTE   N12
 BYTE   W12
 BYTE   N12
 BYTE   W12
 BYTE   N12
 BYTE   W12
 BYTE   N12
 BYTE   W12
 BYTE   Fs0
 BYTE   W12
 BYTE   N12
 BYTE   W12
// 024   ----------------------------------------
 BYTE   N12
 BYTE   W12
 BYTE   N12
 BYTE   W12
 BYTE   N12
 BYTE   W12
 BYTE   N12
 BYTE   W12
 BYTE   PEND 
Label_2_01366C7C:
 BYTE   N12  Gn0  v100
 BYTE   W12
 BYTE   N12
 BYTE   W12
 BYTE   N12
 BYTE   W12
 BYTE   N12
 BYTE   W12
// 025   ----------------------------------------
 BYTE   N12
 BYTE   W12
 BYTE   N12
 BYTE   W12
 BYTE   N12
 BYTE   W12
 BYTE   N12
 BYTE   W12
 BYTE   N12
 BYTE   W12
 BYTE   N12
 BYTE   W12
 BYTE   N12
 BYTE   W12
 BYTE   N12
 BYTE   W12
 BYTE   PEND 
// 026   ----------------------------------------
 BYTE   Cn1
 BYTE   W12
 BYTE   N12
 BYTE   W12
 BYTE   N12
 BYTE   W12
 BYTE   N12
 BYTE   W12
 BYTE   N12
 BYTE   W12
 BYTE   N12
 BYTE   W12
 BYTE   Gn0
 BYTE   W12
 BYTE   N12
 BYTE   W12
// 027   ----------------------------------------
 BYTE   N12
 BYTE   W12
 BYTE   N12
 BYTE   W12
 BYTE   N12
 BYTE   W12
 BYTE   N12
 BYTE   W12
 BYTE   Dn1
 BYTE   W12
 BYTE   N12
 BYTE   W12
 BYTE   N12
 BYTE   W12
 BYTE   N12
 BYTE   W12
// 028   ----------------------------------------
 BYTE   N12
 BYTE   W12
 BYTE   N12
 BYTE   W12
 BYTE   Bn0
 BYTE   W12
 BYTE   N12
 BYTE   W12
 BYTE   N12
 BYTE   W12
 BYTE   N12
 BYTE   W12
 BYTE   N12
 BYTE   W12
 BYTE   N12
 BYTE   W12
 BYTE   PATT
  POIN2 Label_2_01366C61
 BYTE   PATT
  POIN2 Label_2_01366C7C
// 029   ----------------------------------------
 BYTE   N12  Cn1  v100
 BYTE   W12
 BYTE   N12
 BYTE   W12
 BYTE   N12
 BYTE   W12
 BYTE   N12
 BYTE   W12
 BYTE   N12
 BYTE   W12
 BYTE   N12
 BYTE   W12
 BYTE   Dn1
 BYTE   W12
 BYTE   N12
 BYTE   W12
// 030   ----------------------------------------
 BYTE   N12
 BYTE   W12
 BYTE   N12
 BYTE   W12
 BYTE   N12
 BYTE   W12
 BYTE   N12
 BYTE   W12
 BYTE   N20  En1
 BYTE   W24
 BYTE   N20
 BYTE   W24
// 031   ----------------------------------------
 BYTE   N20
 BYTE   W24
 BYTE   N36
 BYTE   W72
 BYTE   PATT
  POIN2 Label_2_01366AFE
 BYTE   PATT
  POIN2 Label_2_01366AEA
 BYTE   PATT
  POIN2 Label_2_01366AFE
 BYTE   PATT
  POIN2 Label_2_01366B19
 BYTE   PATT
  POIN2 Label_2_01366AFE
 BYTE   PATT
  POIN2 Label_2_01366AEA
 BYTE   PATT
  POIN2 Label_2_01366AFE
// 032   ----------------------------------------
 BYTE   N03  En0  v100
 BYTE   W12
 BYTE   N20  Cn1
 BYTE   W24
 BYTE   N36
 BYTE   W36
 BYTE   N03  En0
 BYTE   W12
 BYTE   N20  Bn0
 BYTE   W24
// 033   ----------------------------------------
 BYTE   N36
 BYTE   W36
 BYTE   N20  En0
 BYTE   N20  En1
 BYTE   W24
 BYTE   En0
 BYTE   N20  En1
 BYTE   W24
 BYTE   En0
 BYTE   N20  En1
 BYTE   W24
// 034   ----------------------------------------
 BYTE   En0
 BYTE   N20  En1
 BYTE   W24
 BYTE   En0
 BYTE   N20  En1
 BYTE   W24
 BYTE   En0
 BYTE   N20  En1
 BYTE   W24
 BYTE   N36  En0
 BYTE   N36  En1
 BYTE   W30
// 035   ----------------------------------------
 BYTE   GoTo
  POIN2 Label_2_01366AC2
// 036   ----------------------------------------
 BYTE   W96
// 037   ----------------------------------------
 BYTE   W12
 BYTE   FINE

//**************** Track 4 (Midi-Chn.3) ****************//

TheRaisingFightingSpirit_004:
// 000   ----------------------------------------
 BYTE   KEYSH   TheRaisingFightingSpirit_key+0
Label_3_01366D52:
 BYTE   VOICE   30
 BYTE   MODT 0
 BYTE   CnM2
 BYTE   LFOS 0
 BYTE   Gs1
 BYTE   VOL   50*TheRaisingFightingSpirit_mvl/mxv
 BYTE   PAN   c_v+0
 BYTE   VOL   50*TheRaisingFightingSpirit_mvl/mxv
 BYTE   PAN   c_v+0
 BYTE   W96
// 001   ----------------------------------------
 BYTE   W48
Label_3_01366D62:
 BYTE   W72
// 002   ----------------------------------------
 BYTE   N32  Dn3  v100
 BYTE   W36
 BYTE   An2
 BYTE   W36
 BYTE   PEND 
 BYTE   W96
// 003   ----------------------------------------
 BYTE   W48
Label_3_01366D6C:
 BYTE   W12
 BYTE   N20  Cn3  v100
 BYTE   W24
 BYTE   N32
 BYTE   W48
// 004   ----------------------------------------
 BYTE   N20  Bn2
 BYTE   W24
 BYTE   N32
 BYTE   W36
 BYTE   PEND 
 BYTE   W96
// 005   ----------------------------------------
 BYTE   W48
 BYTE   PATT
  POIN2 Label_3_01366D62
// 006   ----------------------------------------
 BYTE   W96
// 007   ----------------------------------------
 BYTE   W48
 BYTE   PATT
  POIN2 Label_3_01366D6C
// 008   ----------------------------------------
 BYTE   W96
// 009   ----------------------------------------
 BYTE   W48
 BYTE   W96
// 010   ----------------------------------------
 BYTE   W48
 BYTE   W96
// 011   ----------------------------------------
 BYTE   W48
 BYTE   W96
// 012   ----------------------------------------
 BYTE   W48
 BYTE   W96
// 013   ----------------------------------------
 BYTE   W48
 BYTE   W96
// 014   ----------------------------------------
 BYTE   W48
 BYTE   W96
// 015   ----------------------------------------
 BYTE   W48
 BYTE   PATT
  POIN2 Label_3_01366D6C
// 016   ----------------------------------------
 BYTE   W96
// 017   ----------------------------------------
 BYTE   W48
 BYTE   W96
// 018   ----------------------------------------
 BYTE   W48
 BYTE   W96
// 019   ----------------------------------------
 BYTE   W48
 BYTE   W96
// 020   ----------------------------------------
 BYTE   W48
 BYTE   W96
// 021   ----------------------------------------
 BYTE   W48
 BYTE   W96
// 022   ----------------------------------------
 BYTE   W48
 BYTE   W96
// 023   ----------------------------------------
 BYTE   W48
 BYTE   W12
 BYTE   N20  Cn3  v100
 BYTE   W24
 BYTE   N32
 BYTE   W48
// 024   ----------------------------------------
 BYTE   N20  Dn3
 BYTE   W24
 BYTE   N36
 BYTE   W36
Label_3_01366DB4:
 BYTE   TIE  En2  v056
 BYTE   W96
// 025   ----------------------------------------
 BYTE   W48
 BYTE   PEND 
 BYTE   W72
// 026   ----------------------------------------
 BYTE   EOT
 BYTE   TIE  Gn2
 BYTE   W72
 BYTE   W72
// 027   ----------------------------------------
 BYTE   EOT
 BYTE   TIE  Fs2
 BYTE   W72
 BYTE   W96
// 028   ----------------------------------------
 BYTE   W48
 BYTE   EOT
 BYTE   PATT
  POIN2 Label_3_01366DB4
// 029   ----------------------------------------
 BYTE   EOT
 BYTE   En2
 BYTE   TIE  Fs2  v056
 BYTE   W96
// 030   ----------------------------------------
 BYTE   W48
 BYTE   EOT
 BYTE   TIE  Gn2
 BYTE   W96
// 031   ----------------------------------------
 BYTE   W48
 BYTE   EOT
 BYTE   N20  Dn3  v100
 BYTE   W24
 BYTE   N20
 BYTE   W24
// 032   ----------------------------------------
 BYTE   N20
 BYTE   W24
 BYTE   N32
 BYTE   W72
// 033   ----------------------------------------
Label_3_01366DE3:
 BYTE   N72  En2  v076
 BYTE   W72
 BYTE   Fs2
 BYTE   W72
 BYTE   PEND 
// 034   ----------------------------------------
Label_3_01366DEA:
 BYTE   TIE  Gn2  v076
 BYTE   W96
// 035   ----------------------------------------
 BYTE   W42
 BYTE   PEND 
 BYTE   EOT
 BYTE   W06
 BYTE   N72  Cn3
 BYTE   W72
// 036   ----------------------------------------
 BYTE   Gn2
 BYTE   W72
 BYTE   Dn3
 BYTE   W72
// 037   ----------------------------------------
 BYTE   N66  Bn2
 BYTE   W72
 BYTE   PATT
  POIN2 Label_3_01366DE3
 BYTE   PATT
  POIN2 Label_3_01366DEA
// 038   ----------------------------------------
 BYTE   EOT
 BYTE   Gn2
 BYTE   W06
 BYTE   N72  Cn3  v076
 BYTE   W72
 BYTE   Dn3
 BYTE   W72
// 039   ----------------------------------------
 BYTE   N20  En3  v100
 BYTE   W24
 BYTE   N20
 BYTE   W24
 BYTE   N20
 BYTE   W24
 BYTE   N32
 BYTE   W72
// 040   ----------------------------------------
 BYTE   W96
// 041   ----------------------------------------
 BYTE   W48
 BYTE   PATT
  POIN2 Label_3_01366D62
// 042   ----------------------------------------
 BYTE   W96
// 043   ----------------------------------------
 BYTE   W48
 BYTE   PATT
  POIN2 Label_3_01366D6C
// 044   ----------------------------------------
 BYTE   W96
// 045   ----------------------------------------
 BYTE   W48
 BYTE   PATT
  POIN2 Label_3_01366D62
// 046   ----------------------------------------
 BYTE   W96
// 047   ----------------------------------------
 BYTE   W48
 BYTE   PATT
  POIN2 Label_3_01366D6C
// 048   ----------------------------------------
 BYTE   N20  Bn2  v100
 BYTE   N20  En3
 BYTE   W24
 BYTE   Bn2
 BYTE   N20  En3
 BYTE   W24
 BYTE   Bn2
 BYTE   N20  En3
 BYTE   W24
 BYTE   Bn2
 BYTE   N20  En3
 BYTE   W24
// 049   ----------------------------------------
 BYTE   Bn2
 BYTE   N20  En3
 BYTE   W24
 BYTE   Bn2
 BYTE   N20  En3
 BYTE   W24
 BYTE   N32  Bn2
 BYTE   N32  En3
 BYTE   W30
 BYTE   GoTo
  POIN2 Label_3_01366D52
// 050   ----------------------------------------
 BYTE   W96
// 051   ----------------------------------------
 BYTE   W12
 BYTE   FINE

//**************** Track 5 (Midi-Chn.4) ****************//

TheRaisingFightingSpirit_005:
// 000   ----------------------------------------
 BYTE   KEYSH   TheRaisingFightingSpirit_key+0
Label_4_01366E5E:
 BYTE   VOICE   73
 BYTE   MODT 0
 BYTE   CnM2
 BYTE   LFOS 0
 BYTE   Gs1
 BYTE   VOL   50*TheRaisingFightingSpirit_mvl/mxv
 BYTE   PAN   c_v+0
 BYTE   VOL   50*TheRaisingFightingSpirit_mvl/mxv
 BYTE   PAN   c_v+0
 BYTE   W96
// 001   ----------------------------------------
 BYTE   W48
 BYTE   W96
// 002   ----------------------------------------
 BYTE   W48
 BYTE   W96
// 003   ----------------------------------------
 BYTE   W48
 BYTE   W96
// 004   ----------------------------------------
 BYTE   W48
 BYTE   W96
// 005   ----------------------------------------
 BYTE   W48
 BYTE   W96
// 006   ----------------------------------------
 BYTE   W48
 BYTE   W96
// 007   ----------------------------------------
 BYTE   W48
Label_4_01366E7A:
 BYTE   W96
// 008   ----------------------------------------
 BYTE   W12
 BYTE   N36  Bn3  v100
 BYTE   W36
 BYTE   PEND 
Label_4_01366E81:
 BYTE   N66  En4  v100
 BYTE   W72
// 009   ----------------------------------------
 BYTE   N24
 BYTE   W24
 BYTE   Fs4
 BYTE   W24
 BYTE   Gn4
 BYTE   W24
 BYTE   PEND 
Label_4_01366E8C:
 BYTE   N72  Fs4  v100
 BYTE   W72
// 010   ----------------------------------------
 BYTE   N66  Dn4
 BYTE   W72
 BYTE   PEND 
 BYTE   PATT
  POIN2 Label_4_01366E81
// 011   ----------------------------------------
Label_4_01366E99:
 BYTE   TIE  An4  v100
 BYTE   W96
// 012   ----------------------------------------
 BYTE   W08
 BYTE   PEND 
 BYTE   EOT
 BYTE   W40
 BYTE   N66  Cn5
 BYTE   W72
// 013   ----------------------------------------
 BYTE   N24
 BYTE   W24
 BYTE   Dn5
 BYTE   W24
 BYTE   Cn5
 BYTE   W24
 BYTE   N48  Bn4
 BYTE   W48
// 014   ----------------------------------------
 BYTE   N12  An4
 BYTE   W12
 BYTE   Gn4
 BYTE   W12
 BYTE   N24  Fs4
 BYTE   W24
 BYTE   Gn4
 BYTE   W24
 BYTE   An4
 BYTE   W24
// 015   ----------------------------------------
Label_4_01366EB9:
 BYTE   TIE  Bn4  v100
 BYTE   W96
// 016   ----------------------------------------
 BYTE   W08
 BYTE   PEND 
 BYTE   EOT
 BYTE   W40
 BYTE   PATT
  POIN2 Label_4_01366E7A
 BYTE   PATT
  POIN2 Label_4_01366E81
 BYTE   PATT
  POIN2 Label_4_01366E8C
 BYTE   PATT
  POIN2 Label_4_01366E81
 BYTE   PATT
  POIN2 Label_4_01366E99
// 017   ----------------------------------------
 BYTE   EOT
 BYTE   An4
 BYTE   W40
 BYTE   N66  Cn5  v100
 BYTE   W72
// 018   ----------------------------------------
 BYTE   N24
 BYTE   W24
 BYTE   Dn5
 BYTE   W24
 BYTE   En5
 BYTE   W24
 BYTE   N48  Dn5
 BYTE   W48
// 019   ----------------------------------------
 BYTE   N12  Cn5
 BYTE   W12
 BYTE   Bn4
 BYTE   W12
 BYTE   N36  An4
 BYTE   W36
 BYTE   Dn5
 BYTE   W36
 BYTE   PATT
  POIN2 Label_4_01366EB9
// 020   ----------------------------------------
 BYTE   EOT
 BYTE   Bn4
 BYTE   W40
 BYTE   W96
// 021   ----------------------------------------
 BYTE   W48
 BYTE   W96
// 022   ----------------------------------------
 BYTE   W48
 BYTE   W96
// 023   ----------------------------------------
 BYTE   W48
 BYTE   W96
// 024   ----------------------------------------
 BYTE   W48
 BYTE   W96
// 025   ----------------------------------------
 BYTE   W48
 BYTE   W96
// 026   ----------------------------------------
 BYTE   W48
 BYTE   W96
// 027   ----------------------------------------
 BYTE   W48
 BYTE   W96
// 028   ----------------------------------------
 BYTE   W48
 BYTE   W96
// 029   ----------------------------------------
 BYTE   W48
 BYTE   N44  Gn4  v100
 BYTE   W48
// 030   ----------------------------------------
 BYTE   N12  Fs4
 BYTE   W12
 BYTE   Gn4
 BYTE   W12
 BYTE   N32  An4
 BYTE   W36
 BYTE   Dn5
 BYTE   W36
// 031   ----------------------------------------
 BYTE   N44  Cn5
 BYTE   W48
 BYTE   N12  Bn4
 BYTE   W12
 BYTE   An4
 BYTE   W12
 BYTE   N66  Bn4
 BYTE   W72
// 032   ----------------------------------------
 BYTE   N44  En5
 BYTE   W48
 BYTE   N12  Dn5
 BYTE   W12
 BYTE   Cn5
 BYTE   W12
 BYTE   N36  Bn4
 BYTE   W36
// 033   ----------------------------------------
 BYTE   Gn4
 BYTE   W36
 BYTE   N48  An4
 BYTE   W48
 BYTE   N12  Gn4
 BYTE   W12
// 034   ----------------------------------------
 BYTE   An4
 BYTE   W12
 BYTE   N66  Bn4
 BYTE   W72
 BYTE   N48  Gn4
 BYTE   W48
// 035   ----------------------------------------
 BYTE   N12  Fs4
 BYTE   W12
 BYTE   Gn4
 BYTE   W12
 BYTE   N36  An4
 BYTE   W36
 BYTE   Dn5
 BYTE   W36
// 036   ----------------------------------------
 BYTE   N48  Cn5
 BYTE   W48
 BYTE   N12  Bn4
 BYTE   W12
 BYTE   An4
 BYTE   W12
 BYTE   N66  Bn4
 BYTE   W72
// 037   ----------------------------------------
 BYTE   N24  En5
 BYTE   W24
 BYTE   Dn5
 BYTE   W24
 BYTE   Cn5
 BYTE   W24
 BYTE   Bn4
 BYTE   W24
// 038   ----------------------------------------
 BYTE   An4
 BYTE   W24
 BYTE   Gn4
 BYTE   W24
 BYTE   TIE  En4
 BYTE   W96
// 039   ----------------------------------------
 BYTE   W08
 BYTE   EOT
 BYTE   W40
 BYTE   W96
// 040   ----------------------------------------
 BYTE   W48
 BYTE   W96
// 041   ----------------------------------------
 BYTE   W48
 BYTE   W96
// 042   ----------------------------------------
 BYTE   W48
 BYTE   W96
// 043   ----------------------------------------
 BYTE   W48
 BYTE   W96
// 044   ----------------------------------------
 BYTE   W48
 BYTE   W96
// 045   ----------------------------------------
 BYTE   W48
 BYTE   W96
// 046   ----------------------------------------
 BYTE   W48
 BYTE   W96
// 047   ----------------------------------------
 BYTE   W48
 BYTE   W96
// 048   ----------------------------------------
 BYTE   W48
 BYTE   W30
 BYTE   GoTo
  POIN2 Label_4_01366E5E
// 049   ----------------------------------------
 BYTE   W96
// 050   ----------------------------------------
 BYTE   W12
 BYTE   FINE

//**************** Track 6 (Midi-Chn.5) ****************//

TheRaisingFightingSpirit_006:
// 000   ----------------------------------------
 BYTE   KEYSH   TheRaisingFightingSpirit_key+0
Label_5_01366F8A:
 BYTE   VOICE   106
 BYTE   MODT 0
 BYTE   CnM2
 BYTE   LFOS 0
 BYTE   Gs1
 BYTE   VOL   50*TheRaisingFightingSpirit_mvl/mxv
 BYTE   PAN   c_v+0
 BYTE   VOL   50*TheRaisingFightingSpirit_mvl/mxv
 BYTE   PAN   c_v+0
 BYTE   W96
// 001   ----------------------------------------
 BYTE   W48
 BYTE   W96
// 002   ----------------------------------------
 BYTE   W48
 BYTE   W96
// 003   ----------------------------------------
 BYTE   W48
 BYTE   W96
// 004   ----------------------------------------
 BYTE   W48
 BYTE   W96
// 005   ----------------------------------------
 BYTE   W48
 BYTE   W96
// 006   ----------------------------------------
 BYTE   W48
 BYTE   W96
// 007   ----------------------------------------
 BYTE   W48
 BYTE   W96
// 008   ----------------------------------------
 BYTE   W48
 BYTE   W96
// 009   ----------------------------------------
 BYTE   W48
 BYTE   W96
// 010   ----------------------------------------
 BYTE   W48
 BYTE   W96
// 011   ----------------------------------------
 BYTE   W48
 BYTE   W96
// 012   ----------------------------------------
 BYTE   W48
 BYTE   W96
// 013   ----------------------------------------
 BYTE   W48
 BYTE   W96
// 014   ----------------------------------------
 BYTE   W48
 BYTE   W96
// 015   ----------------------------------------
 BYTE   W48
 BYTE   W96
// 016   ----------------------------------------
 BYTE   W48
 BYTE   W96
// 017   ----------------------------------------
 BYTE   W48
 BYTE   W96
// 018   ----------------------------------------
 BYTE   W48
 BYTE   W96
// 019   ----------------------------------------
 BYTE   W48
 BYTE   W96
// 020   ----------------------------------------
 BYTE   W48
 BYTE   W96
// 021   ----------------------------------------
 BYTE   W48
 BYTE   W96
// 022   ----------------------------------------
 BYTE   W48
 BYTE   W96
// 023   ----------------------------------------
 BYTE   W48
 BYTE   W96
// 024   ----------------------------------------
 BYTE   W48
 BYTE   N11  En2  v127
 BYTE   W12
 BYTE   Bn2
 BYTE   W12
 BYTE   An2
 BYTE   W12
 BYTE   N20  Bn2
 BYTE   W24
// 025   ----------------------------------------
 BYTE   N11
 BYTE   W12
 BYTE   En2
 BYTE   W12
 BYTE   Bn2
 BYTE   W12
 BYTE   An2
 BYTE   W12
 BYTE   N20  Bn2
 BYTE   W24
 BYTE   N11
 BYTE   W12
 BYTE   En2
 BYTE   W12
// 026   ----------------------------------------
 BYTE   Bn2
 BYTE   W12
 BYTE   An2
 BYTE   W12
 BYTE   N20  Bn2
 BYTE   W24
 BYTE   N11
 BYTE   W12
 BYTE   N20
 BYTE   W24
 BYTE   N11  An2
 BYTE   W12
// 027   ----------------------------------------
 BYTE   N20
 BYTE   W24
 BYTE   N11  En2
 BYTE   W12
 BYTE   N20  Gn2
 BYTE   W24
 BYTE   N11  En2
 BYTE   W12
 BYTE   N20  Gn2
 BYTE   W24
// 028   ----------------------------------------
 BYTE   N11  En2
 BYTE   W12
 BYTE   Gn2
 BYTE   W12
 BYTE   N11
 BYTE   W12
 BYTE   En2
 BYTE   W12
 BYTE   N20  Gn2
 BYTE   W24
 BYTE   N11  Bn2
 BYTE   W12
 BYTE   N20  Dn3
 BYTE   W24
// 029   ----------------------------------------
 BYTE   An2
 BYTE   W24
 BYTE   Bn2
 BYTE   W24
 BYTE   Dn3
 BYTE   W24
 BYTE   En3
 BYTE   W36
// 030   ----------------------------------------
 BYTE   N11
 BYTE   W12
 BYTE   N20
 BYTE   W24
 BYTE   N11
 BYTE   W12
 BYTE   N20  Dn3
 BYTE   W24
 BYTE   N11  En3
 BYTE   W12
 BYTE   N20  Gn3
 BYTE   W24
// 031   ----------------------------------------
 BYTE   N11  En3
 BYTE   W12
 BYTE   N20  An3
 BYTE   W24
 BYTE   N11  En3
 BYTE   W12
 BYTE   N20  Gn3
 BYTE   W24
 BYTE   N11  En3
 BYTE   W24
// 032   ----------------------------------------
 BYTE   Bn3
 BYTE   W12
 BYTE   N11
 BYTE   W12
 BYTE   N20
 BYTE   W24
 BYTE   An3
 BYTE   W24
 BYTE   N20
 BYTE   W24
// 033   ----------------------------------------
 BYTE   N11  Dn4
 BYTE   W12
 BYTE   N11
 BYTE   W12
 BYTE   N11
 BYTE   W12
 BYTE   N11
 BYTE   W12
 BYTE   Bn3
 BYTE   W12
 BYTE   Dn4
 BYTE   W12
 BYTE   Bn3
 BYTE   W12
 BYTE   Dn4
 BYTE   W12
// 034   ----------------------------------------
 BYTE   Bn3
 BYTE   W12
 BYTE   Dn4
 BYTE   W12
 BYTE   Bn3
 BYTE   W12
 BYTE   Dn4
 BYTE   W12
 BYTE   N20
 BYTE   W24
 BYTE   N20
 BYTE   W24
// 035   ----------------------------------------
 BYTE   N20
 BYTE   W24
 BYTE   N32
 BYTE   W72
// 036   ----------------------------------------
 BYTE   W96
// 037   ----------------------------------------
 BYTE   W48
 BYTE   W96
// 038   ----------------------------------------
 BYTE   W48
 BYTE   W96
// 039   ----------------------------------------
 BYTE   W48
 BYTE   W96
// 040   ----------------------------------------
 BYTE   W48
 BYTE   W96
// 041   ----------------------------------------
 BYTE   W48
 BYTE   W96
// 042   ----------------------------------------
 BYTE   W48
 BYTE   W96
// 043   ----------------------------------------
 BYTE   W48
 BYTE   W96
// 044   ----------------------------------------
 BYTE   W48
 BYTE   W96
// 045   ----------------------------------------
 BYTE   W48
 BYTE   W96
// 046   ----------------------------------------
 BYTE   W48
 BYTE   W96
// 047   ----------------------------------------
 BYTE   W48
 BYTE   W96
// 048   ----------------------------------------
 BYTE   W48
 BYTE   W96
// 049   ----------------------------------------
 BYTE   W48
 BYTE   W96
// 050   ----------------------------------------
 BYTE   W48
 BYTE   W96
// 051   ----------------------------------------
 BYTE   W48
 BYTE   W96
// 052   ----------------------------------------
 BYTE   W48
 BYTE   W96
// 053   ----------------------------------------
 BYTE   W48
 BYTE   W30
 BYTE   GoTo
  POIN2 Label_5_01366F8A
// 054   ----------------------------------------
 BYTE   W96
// 055   ----------------------------------------
 BYTE   W12
 BYTE   FINE

//**************** Track 7 (Midi-Chn.6) ****************//

TheRaisingFightingSpirit_007:
// 000   ----------------------------------------
 BYTE   KEYSH   TheRaisingFightingSpirit_key+0
Label_6_0136708E:
 BYTE   VOICE   121
 BYTE   MODT 0
 BYTE   CnM2
 BYTE   LFOS 0
 BYTE   Gs1
 BYTE   VOL   50*TheRaisingFightingSpirit_mvl/mxv
 BYTE   PAN   c_v+0
 BYTE   VOL   50*TheRaisingFightingSpirit_mvl/mxv
 BYTE   PAN   c_v+0
 BYTE   MODT 0
 BYTE   CnM2
 BYTE   LFOS 0
 BYTE   Gs1
 BYTE   VOL   50*TheRaisingFightingSpirit_mvl/mxv
 BYTE   PAN   c_v+0
 BYTE   VOL   50*TheRaisingFightingSpirit_mvl/mxv
 BYTE   PAN   c_v+0
 BYTE   N11  Cn1  v076
 BYTE   N32  An2  v127
 BYTE   W12
 BYTE   N11  Cn1  v076
 BYTE   W12
 BYTE   N11
 BYTE   W12
 BYTE   N11
 BYTE   N32  En1  v127
 BYTE   W12
 BYTE   N11  Cn1  v076
 BYTE   W12
 BYTE   N11
 BYTE   W12
 BYTE   N11
 BYTE   W12
 BYTE   N11
 BYTE   W12
// 001   ----------------------------------------
 BYTE   N11
 BYTE   W12
 BYTE   N11
 BYTE   N32  En1  v127
 BYTE   W12
 BYTE   N11  Cn1  v076
 BYTE   W12
 BYTE   N11
 BYTE   W12
Label_6_013670D1:
 BYTE   N11  Cn1  v076
 BYTE   W12
 BYTE   N11
 BYTE   W12
 BYTE   N11
 BYTE   W12
 BYTE   N11
 BYTE   N32  En1  v127
 BYTE   W12
// 002   ----------------------------------------
 BYTE   N11  Cn1  v076
 BYTE   W12
 BYTE   N11
 BYTE   W12
 BYTE   N11
 BYTE   N32  An2  v127
 BYTE   W12
 BYTE   N11  Cn1  v076
 BYTE   W12
 BYTE   N11
 BYTE   W12
 BYTE   N11
 BYTE   N32  Cs2  v127
 BYTE   W12
 BYTE   N11  Cn1  v076
 BYTE   W12
 BYTE   N11
 BYTE   W12
 BYTE   PEND 
// 003   ----------------------------------------
 BYTE   N11
 BYTE   N32  An2  v127
 BYTE   W12
 BYTE   N11  Cn1  v076
 BYTE   W12
 BYTE   N11
 BYTE   W12
 BYTE   N11
 BYTE   N32  En1  v127
 BYTE   W12
 BYTE   N11  Cn1  v076
 BYTE   W12
 BYTE   N11
 BYTE   W12
 BYTE   N11
 BYTE   W12
 BYTE   N11
 BYTE   W12
// 004   ----------------------------------------
 BYTE   N11
 BYTE   W12
 BYTE   N11
 BYTE   N11  En1  v127
 BYTE   W12
 BYTE   Cn1  v076
 BYTE   N11  En1  v127
 BYTE   W12
 BYTE   Cn1  v076
 BYTE   N11  Fn1  v127
 BYTE   W12
Label_6_01367128:
 BYTE   N11  Cn1  v076
 BYTE   N11  Fn1  v127
 BYTE   W12
 BYTE   Cn1  v076
 BYTE   N20  An2  v127
 BYTE   W12
 BYTE   N11  Cn1  v076
 BYTE   W12
 BYTE   N11
 BYTE   N20  An2  v127
 BYTE   W12
// 005   ----------------------------------------
 BYTE   N11  Cn1  v076
 BYTE   W12
 BYTE   N11
 BYTE   N11  Fn1  v127
 BYTE   W12
 BYTE   Cn1  v076
 BYTE   N11  Fn1  v127
 BYTE   W12
 BYTE   Cn1  v076
 BYTE   N20  Cs2  v127
 BYTE   W12
 BYTE   N11  Cn1  v076
 BYTE   W12
 BYTE   N11
 BYTE   N05  Cs2  v127
 BYTE   W06
 BYTE   An1
 BYTE   W06
 BYTE   N11  Cn1  v076
 BYTE   N11  Gn1  v127
 BYTE   W12
 BYTE   Cn1  v076
 BYTE   N11  Fn1  v127
 BYTE   W12
 BYTE   PEND 
// 006   ----------------------------------------
 BYTE   Cn1  v076
 BYTE   N32  Fn1  v127
 BYTE   N32  An2
 BYTE   W12
 BYTE   N11  Cn1  v076
 BYTE   W12
 BYTE   N11
 BYTE   W12
 BYTE   N11
 BYTE   N32  En1  v127
 BYTE   W12
 BYTE   N11  Cn1  v076
 BYTE   W12
 BYTE   N11
 BYTE   W12
 BYTE   N11
 BYTE   W12
 BYTE   N11
 BYTE   W12
// 007   ----------------------------------------
 BYTE   N11
 BYTE   W12
 BYTE   N11
 BYTE   N32  En1  v127
 BYTE   W12
 BYTE   N11  Cn1  v076
 BYTE   W12
 BYTE   N11
 BYTE   W12
 BYTE   N11
 BYTE   W12
 BYTE   N11
 BYTE   W12
 BYTE   N11
 BYTE   W12
 BYTE   N11
 BYTE   N32  En1  v127
 BYTE   W12
// 008   ----------------------------------------
 BYTE   N11  Cn1  v076
 BYTE   W12
 BYTE   N11
 BYTE   W12
 BYTE   N11
 BYTE   N32  An2  v127
 BYTE   W12
 BYTE   N11  Cn1  v076
 BYTE   W12
 BYTE   N11
 BYTE   W12
 BYTE   N11
 BYTE   N32  En1  v127
 BYTE   N32  Cs2
 BYTE   W12
 BYTE   N11  Cn1  v076
 BYTE   W12
 BYTE   N11
 BYTE   W12
// 009   ----------------------------------------
 BYTE   N11
 BYTE   N32  An2  v127
 BYTE   W12
 BYTE   N11  Cn1  v076
 BYTE   W12
 BYTE   N11
 BYTE   W12
 BYTE   N11
 BYTE   N32  En1  v127
 BYTE   W12
 BYTE   N11  Cn1  v076
 BYTE   W12
 BYTE   N11
 BYTE   W12
 BYTE   N11
 BYTE   W12
 BYTE   N11
 BYTE   W12
// 010   ----------------------------------------
 BYTE   N11
 BYTE   W12
 BYTE   N11
 BYTE   N11  En1  v127
 BYTE   W12
 BYTE   Cn1  v076
 BYTE   N11  En1  v127
 BYTE   W12
 BYTE   Cn1  v076
 BYTE   N11  En1  v127
 BYTE   W12
 BYTE   Cn1  v076
 BYTE   N11  Fn1  v127
 BYTE   W12
 BYTE   Cn1  v076
 BYTE   N20  An2  v127
 BYTE   W12
 BYTE   N11  Cn1  v076
 BYTE   W12
 BYTE   N11
 BYTE   N20  An2  v127
 BYTE   W12
// 011   ----------------------------------------
 BYTE   N11  Cn1  v076
 BYTE   W12
 BYTE   N11
 BYTE   N05  En1  v127
 BYTE   W06
 BYTE   N05
 BYTE   W06
 BYTE   N11  Cn1  v076
 BYTE   N11  En1  v127
 BYTE   W12
 BYTE   Cn1  v076
 BYTE   N11  En1  v127
 BYTE   W12
 BYTE   Cn1  v076
 BYTE   N11  Gn1  v127
 BYTE   W12
 BYTE   Cn1  v076
 BYTE   N05  En1  v127
 BYTE   W06
 BYTE   An1
 BYTE   W06
 BYTE   N11  Cn1  v076
 BYTE   N11  Gn1  v127
 BYTE   W12
 BYTE   Cn1  v076
 BYTE   N11  Fn1  v127
 BYTE   W12
// 012   ----------------------------------------
Label_6_01367234:
 BYTE   N11  Cn1  v076
 BYTE   N32  An2  v127
 BYTE   W12
 BYTE   N11  Cn1  v076
 BYTE   W12
 BYTE   N11
 BYTE   W12
 BYTE   N11
 BYTE   N32  En1  v127
 BYTE   W12
 BYTE   N11  Cn1  v076
 BYTE   W12
 BYTE   N11
 BYTE   W12
 BYTE   N11
 BYTE   W12
 BYTE   N11
 BYTE   W12
// 013   ----------------------------------------
 BYTE   N11
 BYTE   W12
 BYTE   N11
 BYTE   N32  En1  v127
 BYTE   W12
 BYTE   N11  Cn1  v076
 BYTE   W12
 BYTE   N11
 BYTE   W12
 BYTE   PEND 
Label_6_0136725E:
 BYTE   N11  Cn1  v076
 BYTE   W12
 BYTE   N11
 BYTE   W12
 BYTE   N11
 BYTE   W12
 BYTE   N11
 BYTE   N32  En1  v127
 BYTE   W12
// 014   ----------------------------------------
 BYTE   N11  Cn1  v076
 BYTE   W12
 BYTE   N11
 BYTE   W12
 BYTE   N11
 BYTE   W12
 BYTE   N11
 BYTE   W12
 BYTE   N11
 BYTE   W12
 BYTE   N11
 BYTE   N32  En1  v127
 BYTE   W12
 BYTE   N11  Cn1  v076
 BYTE   W12
 BYTE   N11
 BYTE   W12
 BYTE   PEND 
 BYTE   PATT
  POIN2 Label_6_0136725E
// 015   ----------------------------------------
 BYTE   N11  Cn1  v076
 BYTE   W12
 BYTE   N11
 BYTE   W12
 BYTE   N11
 BYTE   W12
 BYTE   N11
 BYTE   N32  En1  v127
 BYTE   W12
 BYTE   N11  Cn1  v076
 BYTE   W12
 BYTE   N11
 BYTE   W12
 BYTE   N11
 BYTE   W12
 BYTE   N11
 BYTE   W12
// 016   ----------------------------------------
 BYTE   N11
 BYTE   W12
 BYTE   N11
 BYTE   N20  En1  v127
 BYTE   W12
 BYTE   N11  Cn1  v076
 BYTE   W12
 BYTE   N11
 BYTE   N11  Cs2  v127
 BYTE   W12
 BYTE   PATT
  POIN2 Label_6_01367234
 BYTE   PATT
  POIN2 Label_6_0136725E
// 017   ----------------------------------------
 BYTE   N11  Cn1  v076
 BYTE   N32  An2  v127
 BYTE   W12
 BYTE   N11  Cn1  v076
 BYTE   W12
 BYTE   N11
 BYTE   W12
 BYTE   N11
 BYTE   N32  En1  v127
 BYTE   W12
 BYTE   N11  Cn1  v076
 BYTE   W12
 BYTE   N11
 BYTE   W12
 BYTE   N11
 BYTE   W12
 BYTE   N11
 BYTE   W12
// 018   ----------------------------------------
 BYTE   N11
 BYTE   N11  En1  v127
 BYTE   W12
 BYTE   Cn1  v076
 BYTE   N11  En1  v127
 BYTE   W12
 BYTE   Cn1  v076
 BYTE   N11  En1  v127
 BYTE   W12
 BYTE   Cn1  v076
 BYTE   N11  Fn1  v127
 BYTE   W12
 BYTE   Cn1  v076
 BYTE   W12
 BYTE   N11
 BYTE   N20  An2  v127
 BYTE   W12
 BYTE   N11  Cn1  v076
 BYTE   W12
 BYTE   N11
 BYTE   N20  An2  v127
 BYTE   W12
// 019   ----------------------------------------
 BYTE   N11  Cn1  v076
 BYTE   W12
 BYTE   N11
 BYTE   N11  Fn1  v127
 BYTE   W12
 BYTE   Cn1  v076
 BYTE   N11  Fn1  v127
 BYTE   W12
 BYTE   Cn1  v076
 BYTE   N20  An2  v127
 BYTE   W12
 BYTE   N11  Cn1  v076
 BYTE   W12
 BYTE   N11
 BYTE   N05  En2  v127
 BYTE   W06
 BYTE   En1
 BYTE   W06
 BYTE   N11  Cn1  v076
 BYTE   N11  Gn1  v127
 BYTE   W12
 BYTE   Cn1  v076
 BYTE   N11  Fn1  v127
 BYTE   W12
 BYTE   PATT
  POIN2 Label_6_01367234
 BYTE   PATT
  POIN2 Label_6_0136725E
 BYTE   PATT
  POIN2 Label_6_0136725E
// 020   ----------------------------------------
 BYTE   N11  Cn1  v076
 BYTE   W12
 BYTE   N11
 BYTE   W12
 BYTE   N11
 BYTE   W12
 BYTE   N11
 BYTE   N32  En1  v127
 BYTE   W12
 BYTE   N11  Cn1  v076
 BYTE   W12
 BYTE   N11
 BYTE   W12
 BYTE   N11
 BYTE   W12
 BYTE   N11
 BYTE   N20  En1  v127
 BYTE   W12
// 021   ----------------------------------------
 BYTE   N11  Cn1  v076
 BYTE   W12
 BYTE   N11
 BYTE   N11  En1  v127
 BYTE   W12
 BYTE   Cn1  v076
 BYTE   N11  Gn1  v127
 BYTE   W12
 BYTE   Cn1  v076
 BYTE   N11  Fn1  v127
 BYTE   W12
 BYTE   PATT
  POIN2 Label_6_01367234
// 022   ----------------------------------------
 BYTE   N11  Cn1  v076
 BYTE   W12
 BYTE   N11
 BYTE   W12
 BYTE   N11
 BYTE   W12
 BYTE   N11
 BYTE   N32  En1  v127
 BYTE   W12
 BYTE   N11  Cn1  v076
 BYTE   W12
 BYTE   N11
 BYTE   W12
 BYTE   N11
 BYTE   W12
 BYTE   N11
 BYTE   W12
// 023   ----------------------------------------
 BYTE   N11
 BYTE   N11  En1  v127
 BYTE   W12
 BYTE   Cn1  v076
 BYTE   N11  En1  v127
 BYTE   W12
 BYTE   Cn1  v076
 BYTE   N11  En1  v127
 BYTE   W12
 BYTE   Cn1  v076
 BYTE   N11  En1  v127
 BYTE   W12
 BYTE   Cn1  v076
 BYTE   N32  An2  v127
 BYTE   W12
 BYTE   N11  Cn1  v076
 BYTE   W12
 BYTE   N11
 BYTE   W12
 BYTE   N11
 BYTE   N32  En1  v127
 BYTE   W12
// 024   ----------------------------------------
 BYTE   N11  Cn1  v076
 BYTE   W12
 BYTE   N11
 BYTE   W12
 BYTE   N11
 BYTE   W12
 BYTE   N11
 BYTE   W12
 BYTE   N11
 BYTE   W12
 BYTE   N11
 BYTE   N05  En1  v127
 BYTE   W06
 BYTE   N05
 BYTE   W06
 BYTE   N11  Cn1  v076
 BYTE   N11  Gn1  v127
 BYTE   W12
 BYTE   Cn1  v076
 BYTE   N11  Fn1  v127
 BYTE   W12
// 025   ----------------------------------------
 BYTE   Cn1  v076
 BYTE   W12
 BYTE   N11
 BYTE   N20  An2  v127
 BYTE   W12
 BYTE   N11  Cn1  v076
 BYTE   W12
 BYTE   N11
 BYTE   N20  An2  v127
 BYTE   W12
 BYTE   N11  Cn1  v076
 BYTE   W12
 BYTE   N11
 BYTE   N11  Fn1  v127
 BYTE   W12
 BYTE   Cn1  v076
 BYTE   N11  Fn1  v127
 BYTE   W12
 BYTE   Cn1  v076
 BYTE   N20  An2  v127
 BYTE   W12
// 026   ----------------------------------------
 BYTE   N11  Cn1  v076
 BYTE   W12
 BYTE   N11
 BYTE   N05  En1  v127
 BYTE   W06
 BYTE   N05
 BYTE   W06
 BYTE   N11  Cn1  v076
 BYTE   N11  Gn1  v127
 BYTE   W12
 BYTE   Cn1  v076
 BYTE   N11  Fn1  v127
 BYTE   W12
Label_6_0136740A:
 BYTE   N11  Cn1  v076
 BYTE   N32  An2  v127
 BYTE   W12
 BYTE   N11  Cn1  v076
 BYTE   W12
 BYTE   N11
 BYTE   W12
 BYTE   N11
 BYTE   N32  Fn2  v127
 BYTE   W12
// 027   ----------------------------------------
 BYTE   N11  Cn1  v076
 BYTE   W12
 BYTE   N11
 BYTE   W12
 BYTE   N11
 BYTE   N32  Fn2  v127
 BYTE   W12
 BYTE   N11  Cn1  v076
 BYTE   W12
 BYTE   N11
 BYTE   W12
 BYTE   N11
 BYTE   N32  Fn2  v127
 BYTE   W12
 BYTE   N11  Cn1  v076
 BYTE   W12
 BYTE   N11
 BYTE   W12
 BYTE   PEND 
// 028   ----------------------------------------
Label_6_01367439:
 BYTE   N11  Cn1  v076
 BYTE   N32  Fn2  v127
 BYTE   W12
 BYTE   N11  Cn1  v076
 BYTE   W12
 BYTE   N11
 BYTE   W12
 BYTE   N11
 BYTE   N32  Fn2  v127
 BYTE   W12
 BYTE   N11  Cn1  v076
 BYTE   W12
 BYTE   N11
 BYTE   W12
 BYTE   N11
 BYTE   N32  Fn2  v127
 BYTE   W12
 BYTE   N11  Cn1  v076
 BYTE   W12
// 029   ----------------------------------------
 BYTE   N11
 BYTE   W12
 BYTE   N11
 BYTE   N32  Fn2  v127
 BYTE   W12
 BYTE   N11  Cn1  v076
 BYTE   W12
 BYTE   N11
 BYTE   W12
 BYTE   PEND 
 BYTE   PATT
  POIN2 Label_6_01367439
 BYTE   PATT
  POIN2 Label_6_01367439
 BYTE   PATT
  POIN2 Label_6_0136740A
 BYTE   PATT
  POIN2 Label_6_01367439
// 030   ----------------------------------------
 BYTE   N11  Cn1  v076
 BYTE   N32  Fn2  v127
 BYTE   W12
 BYTE   N11  Cn1  v076
 BYTE   W12
 BYTE   N11
 BYTE   W12
 BYTE   N11
 BYTE   N32  Fn2  v127
 BYTE   W12
 BYTE   N11  Cn1  v076
 BYTE   W12
 BYTE   N11
 BYTE   W12
 BYTE   N11
 BYTE   N20  Fn2  v127
 BYTE   W12
 BYTE   N11  Cn1  v076
 BYTE   W12
// 031   ----------------------------------------
 BYTE   N11
 BYTE   W12
 BYTE   N11
 BYTE   N11  Fn2  v127
 BYTE   W12
 BYTE   Cn1  v076
 BYTE   N11  En1  v127
 BYTE   W12
 BYTE   Cn1  v076
 BYTE   N11  En1  v127
 BYTE   W12
 BYTE   N20  Cn1  v076
 BYTE   N20  Fn1  v127
 BYTE   W24
 BYTE   Cn1  v076
 BYTE   N20  Fn1  v127
 BYTE   W24
// 032   ----------------------------------------
 BYTE   Cn1  v076
 BYTE   N20  Fn1  v127
 BYTE   W24
 BYTE   N32  Cn1  v076
 BYTE   N32  Fn1  v127
 BYTE   W36
 BYTE   N11  Cn1  v076
 BYTE   N05  En1  v127
 BYTE   W06
 BYTE   N05
 BYTE   W06
 BYTE   N11  Cn1  v076
 BYTE   N11  En1  v127
 BYTE   W12
 BYTE   Cn1  v076
 BYTE   N11  En1  v127
 BYTE   W12
// 033   ----------------------------------------
 BYTE   Cn1  v076
 BYTE   N32  Cs2  v127
 BYTE   W12
 BYTE   N11  Cn1  v076
 BYTE   W12
 BYTE   N11
 BYTE   W12
 BYTE   N11
 BYTE   N32  An2  v127
 BYTE   W12
 BYTE   N11  Cn1  v076
 BYTE   W12
 BYTE   N11
 BYTE   W12
 BYTE   N11
 BYTE   N32  Fn2  v127
 BYTE   W12
 BYTE   N11  Cn1  v076
 BYTE   W12
// 034   ----------------------------------------
 BYTE   N11
 BYTE   W12
 BYTE   N11
 BYTE   N32  Fn2  v127
 BYTE   W12
 BYTE   N11  Cn1  v076
 BYTE   W12
 BYTE   N11
 BYTE   W12
 BYTE   PATT
  POIN2 Label_6_01367439
 BYTE   PATT
  POIN2 Label_6_01367439
// 035   ----------------------------------------
 BYTE   N11  Cn1  v076
 BYTE   N32  Fn2  v127
 BYTE   W12
 BYTE   N11  Cn1  v076
 BYTE   W12
 BYTE   N11
 BYTE   W12
 BYTE   N11
 BYTE   N32  An2  v127
 BYTE   W12
 BYTE   N11  Cn1  v076
 BYTE   W12
 BYTE   N11
 BYTE   W12
 BYTE   N11
 BYTE   N05  Bn1  v127
 BYTE   W06
 BYTE   N05
 BYTE   W06
 BYTE   N11  Cn1  v076
 BYTE   N11  An1  v127
 BYTE   W12
// 036   ----------------------------------------
 BYTE   Cn1  v076
 BYTE   N11  Gn1  v127
 BYTE   W12
 BYTE   Cn1  v076
 BYTE   N11  An1  v127
 BYTE   W12
 BYTE   Cn1  v076
 BYTE   N11  Gn1  v127
 BYTE   W12
 BYTE   Cn1  v076
 BYTE   N11  Fn1  v127
 BYTE   W12
 BYTE   PATT
  POIN2 Label_6_0136740A
 BYTE   PATT
  POIN2 Label_6_01367439
// 037   ----------------------------------------
 BYTE   N11  Cn1  v076
 BYTE   N32  An2  v127
 BYTE   W12
 BYTE   N11  Cn1  v076
 BYTE   W12
 BYTE   N11
 BYTE   W12
 BYTE   N11
 BYTE   N32  Fn2  v127
 BYTE   W12
 BYTE   N11  Cn1  v076
 BYTE   W12
 BYTE   N11
 BYTE   W12
 BYTE   N11
 BYTE   N32  An2  v127
 BYTE   W12
 BYTE   N11  Cn1  v076
 BYTE   W12
// 038   ----------------------------------------
 BYTE   N11
 BYTE   W12
 BYTE   N11
 BYTE   N11  En1  v127
 BYTE   N11  Fn2
 BYTE   W12
 BYTE   Cn1  v076
 BYTE   N20  En1  v127
 BYTE   W12
 BYTE   N11  Cn1  v076
 BYTE   W12
 BYTE   N20
 BYTE   N20  En1  v127
 BYTE   W24
 BYTE   Cn1  v076
 BYTE   N20  En1  v127
 BYTE   W24
// 039   ----------------------------------------
 BYTE   Cn1  v076
 BYTE   N20  En1  v127
 BYTE   W24
 BYTE   N32  Cn1  v076
 BYTE   N32  En1  v127
 BYTE   W36
 BYTE   Cn1  v076
 BYTE   N32  An1  v127
 BYTE   W36
 BYTE   PATT
  POIN2 Label_6_01367234
 BYTE   PATT
  POIN2 Label_6_013670D1
// 040   ----------------------------------------
 BYTE   N11  Cn1  v076
 BYTE   N32  An2  v127
 BYTE   W12
 BYTE   N11  Cn1  v076
 BYTE   W12
 BYTE   N11
 BYTE   W12
 BYTE   N11
 BYTE   N32  En1  v127
 BYTE   W12
 BYTE   N11  Cn1  v076
 BYTE   W12
 BYTE   N11
 BYTE   W12
 BYTE   N11
 BYTE   W12
 BYTE   N11
 BYTE   W12
// 041   ----------------------------------------
 BYTE   N11
 BYTE   W12
 BYTE   N11
 BYTE   N11  En1  v127
 BYTE   W12
 BYTE   Cn1  v076
 BYTE   N11  En1  v127
 BYTE   W12
 BYTE   Cn1  v076
 BYTE   N11  En1  v127
 BYTE   N11  Fn1
 BYTE   W12
 BYTE   Cn1  v076
 BYTE   N11  Fn1  v127
 BYTE   W12
 BYTE   Cn1  v076
 BYTE   N20  An2  v127
 BYTE   W12
 BYTE   N11  Cn1  v076
 BYTE   W12
 BYTE   N11
 BYTE   N20  An2  v127
 BYTE   W12
// 042   ----------------------------------------
 BYTE   N11  Cn1  v076
 BYTE   W12
 BYTE   N11
 BYTE   N11  Fn1  v127
 BYTE   W12
 BYTE   Cn1  v076
 BYTE   N11  Fn1  v127
 BYTE   W12
 BYTE   Cn1  v076
 BYTE   N20  Cs2  v127
 BYTE   W12
 BYTE   N11  Cn1  v076
 BYTE   W12
 BYTE   N11
 BYTE   N11  Cs2  v127
 BYTE   W12
 BYTE   Cn1  v076
 BYTE   W12
 BYTE   N11
 BYTE   W12
// 043   ----------------------------------------
 BYTE   N11
 BYTE   N32  An2  v127
 BYTE   W12
 BYTE   N11  Cn1  v076
 BYTE   W12
 BYTE   N11
 BYTE   W12
 BYTE   N11
 BYTE   N32  En1  v127
 BYTE   W12
 BYTE   N11  Cn1  v076
 BYTE   W12
 BYTE   N11
 BYTE   W12
 BYTE   N11
 BYTE   W12
 BYTE   N11
 BYTE   N20  En1  v127
 BYTE   W12
// 044   ----------------------------------------
 BYTE   N11  Cn1  v076
 BYTE   W12
 BYTE   N11
 BYTE   N32  En1  v127
 BYTE   W12
 BYTE   N11  Cn1  v076
 BYTE   W12
 BYTE   N11
 BYTE   W12
 BYTE   N11
 BYTE   W12
 BYTE   N11
 BYTE   W12
 BYTE   N11
 BYTE   W12
 BYTE   N11
 BYTE   N11  En1  v127
 BYTE   W12
// 045   ----------------------------------------
 BYTE   Cn1  v076
 BYTE   N11  En1  v127
 BYTE   W12
 BYTE   Cn1  v076
 BYTE   N11  En1  v127
 BYTE   W12
 BYTE   Cn1  v076
 BYTE   N32  An2  v127
 BYTE   W12
 BYTE   N11  Cn1  v076
 BYTE   W12
 BYTE   N11
 BYTE   W12
 BYTE   N11
 BYTE   N32  En1  v127
 BYTE   N32  Cs2
 BYTE   W12
 BYTE   N11  Cn1  v076
 BYTE   W12
 BYTE   N11
 BYTE   W12
// 046   ----------------------------------------
 BYTE   N11
 BYTE   N32  An2  v127
 BYTE   W12
 BYTE   N11  Cn1  v076
 BYTE   W12
 BYTE   N11
 BYTE   W12
 BYTE   N11
 BYTE   N32  En1  v127
 BYTE   W12
 BYTE   N11  Cn1  v076
 BYTE   W12
 BYTE   N11
 BYTE   W12
 BYTE   N11
 BYTE   W12
 BYTE   N11
 BYTE   W12
// 047   ----------------------------------------
 BYTE   N11
 BYTE   W12
 BYTE   N11
 BYTE   N05  En1  v127
 BYTE   W06
 BYTE   An1
 BYTE   W06
 BYTE   N11  Cn1  v076
 BYTE   N11  Gn1  v127
 BYTE   W12
 BYTE   Cn1  v076
 BYTE   N11  Fn1  v127
 BYTE   W12
 BYTE   PATT
  POIN2 Label_6_01367128
// 048   ----------------------------------------
 BYTE   N20  Fn1  v127
 BYTE   W24
 BYTE   N20
 BYTE   W24
 BYTE   N20
 BYTE   W24
 BYTE   N20
 BYTE   W24
// 049   ----------------------------------------
 BYTE   N20
 BYTE   W24
 BYTE   N20
 BYTE   W24
 BYTE   TIE
 BYTE   W30
 BYTE   GoTo
  POIN2 Label_6_0136708E
// 050   ----------------------------------------
 BYTE   W96
// 051   ----------------------------------------
 BYTE   W12
 BYTE   EOT
 BYTE   Fn1
 BYTE   FINE

//******************************************************//
	ALIGN 4

TheRaisingFightingSpirit:
	BYTE	7	// NumTrks
	BYTE	0	// NumBlks
	BYTE	TheRaisingFightingSpirit_pri	// Priority
	BYTE	TheRaisingFightingSpirit_rev	// Reverb.
    
	POIN2	TheRaisingFightingSpirit_grp
    
	POIN2	TheRaisingFightingSpirit_001
	POIN2	TheRaisingFightingSpirit_002
	POIN2	TheRaisingFightingSpirit_003
	POIN2	TheRaisingFightingSpirit_004
	POIN2	TheRaisingFightingSpirit_005
	POIN2	TheRaisingFightingSpirit_006
	POIN2	TheRaisingFightingSpirit_007

	
