//Event file generated from Sappy .s format.
	#include "MPlayDef.event"

	#define	TRSPrep_grp  voicegroup000
	#define	TRSPrep_pri  0
	#define	TRSPrep_rev  0
	#define	TRSPrep_mvl  85
	#define	TRSPrep_key  0
	#define	TRSPrep_tbs  1
	#define	TRSPrep_exg  0
	#define	TRSPrep_cmp  1

	// .rodata
	//	TRSPrep
	ALIGN 4

//**************** Track 1 (Midi-Chn.1) ****************//

TRSPrep_1:
	BYTE	KEYSH   TRSPrep_key+0
TRSPrep_1_B1:
// 000   ----------------------------------------
	BYTE	TEMPO   126*TRSPrep_tbs/2
	BYTE		VOICE   127
	BYTE		VOL     62*TRSPrep_mvl/mxv
	BYTE		PAN     c_v+0
	BYTE		BEND    c_v+0
	BYTE	W12
	BYTE		N03     Dn1   v072
	BYTE	W04
	BYTE		        Dn1   v092
	BYTE	W04
	BYTE		        Dn1   v084
	BYTE	W04
	BYTE		N04     Dn1   v096
	BYTE	W24
	BYTE		        Dn1   v100
	BYTE	W36
	BYTE		        Dn1   v092
	BYTE	W12
// 001   ----------------------------------------
	BYTE		        Dn1   v080
	BYTE	W08
	BYTE		        Dn1   v096
	BYTE	W08
	BYTE		N04   
	BYTE	W08
	BYTE		        Dn1   v116
	BYTE	W24
	BYTE		        Dn1   v096
	BYTE	W48
// 002   ----------------------------------------
	BYTE	W12
	BYTE		N03   
	BYTE	W04
	BYTE		        Dn1   v100
	BYTE	W04
	BYTE		        Dn1   v092
	BYTE	W04
	BYTE		N04     Dn1   v096
	BYTE	W24
	BYTE		        Dn1   v100
	BYTE	W36
	BYTE		N12     Dn1   v092
	BYTE	W12
// 003   ----------------------------------------
	BYTE		N03     Dn1   v080
	BYTE	W08
	BYTE		        Dn1   v096
	BYTE	W08
	BYTE		N03   
	BYTE	W08
	BYTE		N04     Dn1   v116
	BYTE	W24
	BYTE		        Dn1   v096
	BYTE	W48
// 004   ----------------------------------------
TRSPrep_1_004:
	BYTE	W10
	BYTE		N03     Dn1   v096
	BYTE	W04
	BYTE		        Dn1   v100
	BYTE	W04
	BYTE		        Dn1   v092
	BYTE	W04
	BYTE		N04     Dn1   v116
	BYTE	W24
	BYTE		        Dn1   v100
	BYTE	W36
	BYTE		        Dn1   v092
	BYTE	W12
	BYTE		        Dn1   v096
	BYTE	W02
	BYTE	PEND
// 005   ----------------------------------------
	BYTE	W06
	BYTE		        Dn1   v100
	BYTE	W08
	BYTE		        Dn1   v096
	BYTE	W08
	BYTE		N03     Dn1   v108
	BYTE	W24
	BYTE		        Dn1   v100
	BYTE	W48
	BYTE	W02
// 006   ----------------------------------------
	BYTE	W10
	BYTE		N04     Dn1   v096
	BYTE	W04
	BYTE		        Dn1   v100
	BYTE	W04
	BYTE		        Dn1   v092
	BYTE	W04
	BYTE		N03     Dn1   v116
	BYTE	W24
	BYTE		        Dn1   v100
	BYTE	W36
	BYTE		        Dn1   v092
	BYTE	W12
	BYTE		N04     Dn1   v096
	BYTE	W02
// 007   ----------------------------------------
	BYTE	W06
	BYTE		        Dn1   v100
	BYTE	W08
	BYTE		        Dn1   v096
	BYTE	W08
	BYTE		        Dn1   v108
	BYTE	W24
	BYTE		        Dn1   v100
	BYTE	W48
	BYTE	W02
// 008   ----------------------------------------
	BYTE	PATT
	 POIN2	TRSPrep_1_004
// 009   ----------------------------------------
TRSPrep_1_009:
	BYTE	W04
	BYTE		N04     Dn1   v100
	BYTE	W08
	BYTE		        Dn1   v096
	BYTE	W08
	BYTE		        Dn1   v108
	BYTE	W24
	BYTE		        Dn1   v100
	BYTE	W52
	BYTE	PEND
// 010   ----------------------------------------
TRSPrep_1_010:
	BYTE	W08
	BYTE		N03     Dn1   v096
	BYTE	W04
	BYTE		        Dn1   v100
	BYTE	W04
	BYTE		        Dn1   v092
	BYTE	W04
	BYTE		N04     Dn1   v116
	BYTE	W24
	BYTE		        Dn1   v100
	BYTE	W36
	BYTE		        Dn1   v092
	BYTE	W12
	BYTE		        Dn1   v096
	BYTE	W04
	BYTE	PEND
// 011   ----------------------------------------
	BYTE	PATT
	 POIN2	TRSPrep_1_009
// 012   ----------------------------------------
	BYTE	PATT
	 POIN2	TRSPrep_1_010
// 013   ----------------------------------------
	BYTE	PATT
	 POIN2	TRSPrep_1_009
// 014   ----------------------------------------
	BYTE	PATT
	 POIN2	TRSPrep_1_010
// 015   ----------------------------------------
	BYTE	W04
	BYTE		N04     Dn1   v100
	BYTE	W07
	BYTE		        Dn1   v096
	BYTE	W08
	BYTE		        Dn1   v108
	BYTE	W24
	BYTE		        Dn1   v100
	BYTE	W52
	BYTE	W01
// 016   ----------------------------------------
	BYTE	W07
	BYTE		N03     Dn1   v096
	BYTE	W06
	BYTE		        Dn1   v100
	BYTE	W06
	BYTE		N04     Dn1   v116
	BYTE	W24
	BYTE		        Dn1   v100
	BYTE	W36
	BYTE		        Dn1   v092
	BYTE	W12
	BYTE		        Dn1   v096
	BYTE	W05
// 017   ----------------------------------------
	BYTE	W03
	BYTE		        Dn1   v100
	BYTE	W08
	BYTE		        Dn1   v096
	BYTE	W08
	BYTE		        Dn1   v108
	BYTE	W24
	BYTE		        Dn1   v100
	BYTE	W52
	BYTE	W01
// 018   ----------------------------------------
	BYTE	W07
	BYTE		N03     Dn1   v096
	BYTE	W04
	BYTE		        Dn1   v100
	BYTE	W04
	BYTE		        Dn1   v092
	BYTE	W04
	BYTE		N04     Dn1   v116
	BYTE	W24
	BYTE		        Dn1   v100
	BYTE	W36
	BYTE		        Dn1   v092
	BYTE	W12
	BYTE		        Dn1   v096
	BYTE	W05
// 019   ----------------------------------------
	BYTE	W03
	BYTE		        Dn1   v100
	BYTE	W08
	BYTE		        Dn1   v096
	BYTE	W08
	BYTE		        Dn1   v116
	BYTE	W24
	BYTE		        Dn1   v096
	BYTE	W48
	BYTE	GoTo
	 POIN2	TRSPrep_1_B1
TRSPrep_1_B2:
	BYTE	W05
// 020   ----------------------------------------
	BYTE	W07
	BYTE		N03     Dn1   v096
	BYTE	W04
	BYTE		        Dn1   v100
	BYTE	W07
	BYTE	FINE

//**************** Track 2 (Midi-Chn.2) ****************//

TRSPrep_2:
	BYTE	KEYSH   TRSPrep_key+0
TRSPrep_2_B1:
// 000   ----------------------------------------
	BYTE		VOICE   41
	BYTE		VOL     88*TRSPrep_mvl/mxv
	BYTE		PAN     c_v-24
	BYTE		BEND    c_v+0
	BYTE	W23
	BYTE		N06     As4   v076
	BYTE	W12
	BYTE		N04   
	BYTE	W36
	BYTE		N06   
	BYTE	W12
	BYTE		N04   
	BYTE	W13
// 001   ----------------------------------------
TRSPrep_2_001:
	BYTE	W23
	BYTE		N06     As4   v076
	BYTE	W12
	BYTE		N04   
	BYTE	W24
	BYTE		N04   
	BYTE	W36
	BYTE	W01
	BYTE	PEND
// 002   ----------------------------------------
	BYTE	W23
	BYTE		N06   
	BYTE	W12
	BYTE		N04   
	BYTE	W36
	BYTE		N06   
	BYTE	W12
	BYTE		N04   
	BYTE	W13
// 003   ----------------------------------------
	BYTE	PATT
	 POIN2	TRSPrep_2_001
// 004   ----------------------------------------
TRSPrep_2_004:
	BYTE	W21
	BYTE		N06     As4   v076
	BYTE	W12
	BYTE		N04   
	BYTE	W36
	BYTE		N06   
	BYTE	W12
	BYTE		N04   
	BYTE	W15
	BYTE	PEND
// 005   ----------------------------------------
	BYTE	W21
	BYTE		N06   
	BYTE	W12
	BYTE		N04   
	BYTE	W24
	BYTE		N04   
	BYTE	W36
	BYTE	W03
// 006   ----------------------------------------
	BYTE	PATT
	 POIN2	TRSPrep_2_004
// 007   ----------------------------------------
	BYTE	W21
	BYTE		N06     As4   v076
	BYTE	W12
	BYTE		N04   
	BYTE	W24
	BYTE		N04   
	BYTE	W36
	BYTE		N08     Fn3 
	BYTE	W03
// 008   ----------------------------------------
	BYTE	W05
	BYTE		        As3 
	BYTE	W08
	BYTE		        Dn4 
	BYTE	W08
	BYTE		N36     Fn4   v072
	BYTE	W36
	BYTE		N06     Ds4 
	BYTE	W06
	BYTE		        Dn4 
	BYTE	W06
	BYTE		N68     As3 
	BYTE	W24
	BYTE	W03
// 009   ----------------------------------------
	BYTE	W42
	BYTE	W01
	BYTE		N24     Cn4 
	BYTE	W24
	BYTE		N16     Dn4 
	BYTE	W16
	BYTE		        Ds4   v076
	BYTE	W13
// 010   ----------------------------------------
	BYTE	W03
	BYTE		        Fn4 
	BYTE	W16
	BYTE		N24     Fs4   v084
	BYTE	W24
	BYTE		N36     Cs5   v080
	BYTE	W36
	BYTE		N12     Cn5   v076
	BYTE	W12
	BYTE		N08     As4 
	BYTE	W05
// 011   ----------------------------------------
	BYTE	W03
	BYTE		        Gs4 
	BYTE	W08
	BYTE		        Fs4   v072
	BYTE	W08
	BYTE		N48     Cs4 
	BYTE	W48
	BYTE		        Ds4 
	BYTE	W28
	BYTE	W01
// 012   ----------------------------------------
	BYTE	W19
	BYTE		N24     Fn4 
	BYTE	W24
	BYTE		N08     Gs3 
	BYTE	W08
	BYTE		        Cs4 
	BYTE	W08
	BYTE		        Fn4 
	BYTE	W08
	BYTE		N24     Ds4 
	BYTE	W24
	BYTE		        Cs4 
	BYTE	W05
// 013   ----------------------------------------
	BYTE	W19
	BYTE		N72     Ds4 
	BYTE	W72
	BYTE		N12     Fn4 
	BYTE	W05
// 014   ----------------------------------------
	BYTE	W07
	BYTE		        Fs4   v076
	BYTE	W12
	BYTE		N24     Gs4 
	BYTE	W24
	BYTE		N08     Bn3 
	BYTE	W08
	BYTE		        En4 
	BYTE	W08
	BYTE		        Gs4   v084
	BYTE	W08
	BYTE		N24     Fs4 
	BYTE	W24
	BYTE		N23     En4   v076
	BYTE	W05
// 015   ----------------------------------------
	BYTE	W18
	BYTE		N88     Fs4   v084
	BYTE	W78
// 016   ----------------------------------------
	BYTE	W18
	BYTE		N08     Fn4   v072
	BYTE	W08
	BYTE		        Ds4 
	BYTE	W08
	BYTE		        Dn4 
	BYTE	W08
	BYTE		N48     As3 
	BYTE	W48
	BYTE		N10     Fn3 
	BYTE	W06
// 017   ----------------------------------------
	BYTE	W10
	BYTE		N04     Gn3 
	BYTE	W08
	BYTE		N60     Gs3 
	BYTE	W60
	BYTE		N12     As3 
	BYTE	W12
	BYTE		        Cn4 
	BYTE	W06
// 018   ----------------------------------------
	BYTE	W06
	BYTE		        Ds4   v080
	BYTE	W12
	BYTE		N10     Dn4   v072
	BYTE	W16
	BYTE		N08     As3 
	BYTE	W08
	BYTE		TIE     Fn3 
	BYTE	W54
// 019   ----------------------------------------
	BYTE	W90
	BYTE		EOT   
	BYTE	W01
	BYTE	GoTo
	 POIN2	TRSPrep_2_B1
TRSPrep_2_B2:
	BYTE	W05
// 020   ----------------------------------------
	BYTE	W18
	BYTE	FINE

//**************** Track 3 (Midi-Chn.3) ****************//

TRSPrep_3:
	BYTE	KEYSH   TRSPrep_key+0
TRSPrep_3_B1:
// 000   ----------------------------------------
	BYTE		VOICE   49
	BYTE		VOL     79*TRSPrep_mvl/mxv
	BYTE		PAN     c_v-7
	BYTE		BEND    c_v+0
	BYTE	W23
	BYTE		TIE     Cn3   v080
	BYTE	W72
	BYTE	W01
// 001   ----------------------------------------
	BYTE	W68
	BYTE	W03
	BYTE		N24     Dn3   v076
	BYTE	W01
	BYTE		EOT     Cn3 
	BYTE	W23
	BYTE		N24     Ds3   v080
	BYTE	W01
// 002   ----------------------------------------
	BYTE	W23
	BYTE		N10     Gn3   v088
	BYTE	W24
	BYTE		TIE     Fn3   v084
	BYTE	W48
	BYTE	W01
// 003   ----------------------------------------
	BYTE	W68
	BYTE	W03
	BYTE		N23     As2   v080
	BYTE	W01
	BYTE		EOT     Fn3 
	BYTE	W23
	BYTE		N23     Dn3 
	BYTE	W01
// 004   ----------------------------------------
	BYTE	W21
	BYTE		TIE     Cn3 
	BYTE	W72
	BYTE	W03
// 005   ----------------------------------------
	BYTE	W68
	BYTE	W01
	BYTE		N24     Dn3 
	BYTE	W01
	BYTE		EOT     Cn3 
	BYTE	W23
	BYTE		N24     Ds3 
	BYTE	W03
// 006   ----------------------------------------
	BYTE	W21
	BYTE		N10     Gs3   v088
	BYTE	W24
	BYTE		TIE     Fn3   v084
	BYTE	W48
	BYTE	W03
// 007   ----------------------------------------
	BYTE	W92
	BYTE	W02
	BYTE		EOT   
	BYTE	W02
// 008   ----------------------------------------
	BYTE	W21
	BYTE		N06     As3   v076
	BYTE	W12
	BYTE		        Dn3 
	BYTE	W12
	BYTE		        Fn3   v080
	BYTE	W12
	BYTE		        As3 
	BYTE	W12
	BYTE		        Dn4   v088
	BYTE	W12
	BYTE		        Fn3   v080
	BYTE	W12
	BYTE		        As3 
	BYTE	W03
// 009   ----------------------------------------
	BYTE	W07
	BYTE		        Dn4   v084
	BYTE	W12
	BYTE		        As3 
	BYTE	W12
	BYTE		        Dn3   v080
	BYTE	W12
	BYTE		        Fn3 
	BYTE	W12
	BYTE		        As3 
	BYTE	W12
	BYTE		        Fn4   v084
	BYTE	W12
	BYTE		        Fn3   v080
	BYTE	W12
	BYTE		        As3 
	BYTE	W05
// 010   ----------------------------------------
	BYTE	W07
	BYTE		        Dn4   v084
	BYTE	W12
	BYTE		        As3   v072
	BYTE	W12
	BYTE		        Cs3 
	BYTE	W12
	BYTE		        Fs3   v076
	BYTE	W12
	BYTE		        As3   v080
	BYTE	W12
	BYTE		        Cn4   v088
	BYTE	W12
	BYTE		        Ds3   v080
	BYTE	W12
	BYTE		        Gs3   v076
	BYTE	W05
// 011   ----------------------------------------
	BYTE	W07
	BYTE		        Cn4   v088
	BYTE	W24
	BYTE		        Fs3   v084
	BYTE	W12
	BYTE		        As3 
	BYTE	W12
	BYTE		        Cs4   v088
	BYTE	W24
	BYTE		        Fs3   v084
	BYTE	W12
	BYTE		        As3 
	BYTE	W05
// 012   ----------------------------------------
	BYTE	W07
	BYTE		        Ds4   v088
	BYTE	W12
	BYTE		N92     Fn3   v084
	BYTE	W76
	BYTE	W01
// 013   ----------------------------------------
	BYTE	W19
	BYTE		        Ds3 
	BYTE	W76
	BYTE	W01
// 014   ----------------------------------------
	BYTE	W19
	BYTE		        Gs3 
	BYTE	W76
	BYTE	W01
// 015   ----------------------------------------
	BYTE	W18
	BYTE		N90     Fs3 
	BYTE	W78
// 016   ----------------------------------------
	BYTE	W18
	BYTE		N08     Dn4 
	BYTE	W08
	BYTE		        Cn4 
	BYTE	W08
	BYTE		        As3 
	BYTE	W08
	BYTE		N48     Fn3 
	BYTE	W48
	BYTE		N10     Dn3 
	BYTE	W06
// 017   ----------------------------------------
	BYTE	W10
	BYTE		N04     Ds3 
	BYTE	W08
	BYTE		N60     Cn3 
	BYTE	W60
	BYTE		N12     Gn3   v088
	BYTE	W12
	BYTE		        Gs3 
	BYTE	W06
// 018   ----------------------------------------
	BYTE	W06
	BYTE		        Cn4 
	BYTE	W12
	BYTE		N10     As3 
	BYTE	W16
	BYTE		N08     Fn3   v084
	BYTE	W08
	BYTE		TIE     Dn3 
	BYTE	W54
// 019   ----------------------------------------
	BYTE	W90
	BYTE		EOT   
	BYTE	W01
	BYTE	GoTo
	 POIN2	TRSPrep_3_B1
TRSPrep_3_B2:
	BYTE	W05
// 020   ----------------------------------------
	BYTE	W18
	BYTE	FINE

//**************** Track 4 (Midi-Chn.4) ****************//

TRSPrep_4:
	BYTE	KEYSH   TRSPrep_key+0
TRSPrep_4_B1:
// 000   ----------------------------------------
	BYTE		VOICE   48
	BYTE		VOL     79*TRSPrep_mvl/mxv
	BYTE		PAN     c_v+30
	BYTE		BEND    c_v+0
	BYTE	W23
	BYTE		TIE     Gs2   v088
	BYTE	W72
	BYTE	W01
// 001   ----------------------------------------
	BYTE	W68
	BYTE	W03
	BYTE		N24     As2   v084
	BYTE	W01
	BYTE		EOT     Gs2 
	BYTE	W23
	BYTE		N24     Cn3   v092
	BYTE	W01
// 002   ----------------------------------------
	BYTE	W23
	BYTE		N10     Ds3 
	BYTE	W24
	BYTE		TIE     Dn3 
	BYTE	W48
	BYTE	W01
// 003   ----------------------------------------
	BYTE	W68
	BYTE	W03
	BYTE		N23     Fn2   v084
	BYTE	W01
	BYTE		EOT     Dn3 
	BYTE	W23
	BYTE		N23     As2   v088
	BYTE	W01
// 004   ----------------------------------------
	BYTE	W21
	BYTE		TIE     Gs2   v084
	BYTE	W72
	BYTE	W03
// 005   ----------------------------------------
	BYTE	W68
	BYTE	W01
	BYTE		N24     As2   v088
	BYTE	W01
	BYTE		EOT     Gs2 
	BYTE	W23
	BYTE		N24     Cn3 
	BYTE	W03
// 006   ----------------------------------------
	BYTE	W21
	BYTE		N10     Ds3   v092
	BYTE	W24
	BYTE		TIE     Dn3 
	BYTE	W48
	BYTE	W03
// 007   ----------------------------------------
	BYTE	W92
	BYTE	W02
	BYTE		EOT   
	BYTE	W02
// 008   ----------------------------------------
	BYTE	W21
	BYTE		TIE     Gs2   v088
	BYTE	W72
	BYTE	W03
// 009   ----------------------------------------
	BYTE	W96
// 010   ----------------------------------------
	BYTE	W17
	BYTE		EOT   
	BYTE	W02
	BYTE		TIE     Fs2   v084
	BYTE	W76
	BYTE	W01
// 011   ----------------------------------------
	BYTE	W96
// 012   ----------------------------------------
	BYTE	W12
	BYTE		EOT   
	BYTE	W07
	BYTE		N92     Cs3 
	BYTE	W76
	BYTE	W01
// 013   ----------------------------------------
	BYTE	W19
	BYTE		        Cn3 
	BYTE	W76
	BYTE	W01
// 014   ----------------------------------------
	BYTE	W19
	BYTE		        En3   v088
	BYTE	W76
	BYTE	W01
// 015   ----------------------------------------
	BYTE	W18
	BYTE		N90     Ds3 
	BYTE	W78
// 016   ----------------------------------------
	BYTE	W18
	BYTE		TIE     Dn2   v084
	BYTE		TIE     As2 
	BYTE	W78
// 017   ----------------------------------------
	BYTE	W18
	BYTE		        Cn2 
	BYTE		TIE     Gs2 
	BYTE	W01
	BYTE		EOT     Dn2 
	BYTE		        As2 
	BYTE	W76
	BYTE	W01
// 018   ----------------------------------------
	BYTE	W18
	BYTE		TIE     Dn2 
	BYTE		TIE     As2 
	BYTE	W01
	BYTE		EOT     Cn2 
	BYTE		        Gs2 
	BYTE	W76
	BYTE	W01
// 019   ----------------------------------------
	BYTE	W90
	BYTE		        Dn2 
	BYTE		        As2 
	BYTE	W01
	BYTE	GoTo
	 POIN2	TRSPrep_4_B1
TRSPrep_4_B2:
	BYTE	W05
// 020   ----------------------------------------
	BYTE	W18
	BYTE	FINE

//**************** Track 5 (Midi-Chn.5) ****************//

TRSPrep_5:
	BYTE	KEYSH   TRSPrep_key+0
TRSPrep_5_B1:
// 000   ----------------------------------------
	BYTE		VOICE   61
	BYTE		VOL     64*TRSPrep_mvl/mxv
	BYTE		PAN     c_v+9
	BYTE		BEND    c_v+0
	BYTE	W23
	BYTE		N06     As1   v112
	BYTE		N06     As2   v104
	BYTE	W24
	BYTE		        As1 
	BYTE		N06     As2   v092
	BYTE	W36
	BYTE		        As1   v104
	BYTE		N06     As2   v092
	BYTE	W12
	BYTE		N04     As1 
	BYTE		N04     As2   v084
	BYTE	W01
// 001   ----------------------------------------
TRSPrep_5_001:
	BYTE	W07
	BYTE		N04     As1   v104
	BYTE		N04     As2   v092
	BYTE	W08
	BYTE		        As1   v112
	BYTE		N04     As2   v104
	BYTE	W08
	BYTE		N06     As1   v112
	BYTE		N06     As2   v104
	BYTE	W24
	BYTE		        As1 
	BYTE		N06     As2   v092
	BYTE	W48
	BYTE	W01
	BYTE	PEND
// 002   ----------------------------------------
	BYTE	W23
	BYTE		        As1   v112
	BYTE		N06     As2   v104
	BYTE	W24
	BYTE		        As1 
	BYTE		N06     As2   v092
	BYTE	W36
	BYTE		        As1   v104
	BYTE		N06     As2   v092
	BYTE	W12
	BYTE		N04     As1 
	BYTE		N04     As2   v084
	BYTE	W01
// 003   ----------------------------------------
	BYTE	PATT
	 POIN2	TRSPrep_5_001
// 004   ----------------------------------------
TRSPrep_5_004:
	BYTE	W21
	BYTE		N06     As1   v112
	BYTE		N06     As2   v104
	BYTE	W24
	BYTE		        As1 
	BYTE		N06     As2   v092
	BYTE	W36
	BYTE		        As1   v104
	BYTE		N06     As2   v092
	BYTE	W12
	BYTE		N04     As1 
	BYTE		N04     As2   v084
	BYTE	W03
	BYTE	PEND
// 005   ----------------------------------------
TRSPrep_5_005:
	BYTE	W05
	BYTE		N04     As1   v104
	BYTE		N04     As2   v092
	BYTE	W08
	BYTE		        As1   v112
	BYTE		N04     As2   v104
	BYTE	W08
	BYTE		N06     As1   v112
	BYTE		N06     As2   v104
	BYTE	W24
	BYTE		        As1 
	BYTE		N06     As2   v092
	BYTE	W48
	BYTE	W03
	BYTE	PEND
// 006   ----------------------------------------
	BYTE	PATT
	 POIN2	TRSPrep_5_004
// 007   ----------------------------------------
	BYTE	PATT
	 POIN2	TRSPrep_5_005
// 008   ----------------------------------------
	BYTE	W21
	BYTE		TIE     Gs1   v100
	BYTE	W72
	BYTE	W03
// 009   ----------------------------------------
	BYTE	W96
// 010   ----------------------------------------
	BYTE	W19
	BYTE		EOT   
	BYTE		TIE     Fs1   v096
	BYTE	W76
	BYTE	W01
// 011   ----------------------------------------
	BYTE	W96
// 012   ----------------------------------------
	BYTE	W12
	BYTE		EOT   
	BYTE	W07
	BYTE		TIE     Gs1   v092
	BYTE		TIE     Gs2   v084
	BYTE	W76
	BYTE	W01
// 013   ----------------------------------------
	BYTE	W96
// 014   ----------------------------------------
	BYTE	W17
	BYTE		EOT     Gs1 
	BYTE		        Gs2 
	BYTE	W02
	BYTE		TIE     Bn1   v100
	BYTE		TIE     Bn2   v084
	BYTE	W76
	BYTE	W01
// 015   ----------------------------------------
	BYTE	W96
// 016   ----------------------------------------
	BYTE	W12
	BYTE		EOT     Bn1 
	BYTE		        Bn2 
	BYTE	W06
	BYTE		N06     As1   v112
	BYTE	W24
	BYTE		        As1   v104
	BYTE	W36
	BYTE		N06   
	BYTE	W12
	BYTE		N04     As1   v092
	BYTE	W06
// 017   ----------------------------------------
	BYTE	W02
	BYTE		        As1   v104
	BYTE	W08
	BYTE		        As1   v112
	BYTE	W08
	BYTE		N06   
	BYTE	W24
	BYTE		        As1   v104
	BYTE	W54
// 018   ----------------------------------------
	BYTE	W18
	BYTE		        As1   v112
	BYTE	W24
	BYTE		        As1   v104
	BYTE	W36
	BYTE		N06   
	BYTE	W12
	BYTE		N04     As1   v092
	BYTE	W06
// 019   ----------------------------------------
	BYTE	W02
	BYTE		        As1   v104
	BYTE	W08
	BYTE		        As1   v112
	BYTE	W08
	BYTE		N06   
	BYTE	W24
	BYTE		        As1   v104
	BYTE	W48
	BYTE	W01
	BYTE	GoTo
	 POIN2	TRSPrep_5_B1
TRSPrep_5_B2:
	BYTE	W05
// 020   ----------------------------------------
	BYTE	W18
	BYTE	FINE

//**************** Track 6 (Midi-Chn.6) ****************//

TRSPrep_6:
	BYTE	KEYSH   TRSPrep_key+0
TRSPrep_6_B1:
// 000   ----------------------------------------
	BYTE		VOICE   46
	BYTE		VOL     66*TRSPrep_mvl/mxv
	BYTE		PAN     c_v-17
	BYTE		BEND    c_v+0
	BYTE	W36
	BYTE		N15     As3   v096
	BYTE	W12
	BYTE		        Fn4   v100
	BYTE	W12
	BYTE		N07     As3   v104
	BYTE	W06
	BYTE		N15     Fn4 
	BYTE	W12
	BYTE		N07     As4   v096
	BYTE	W06
	BYTE		        Fn4   v108
	BYTE	W06
	BYTE		        As4   v096
	BYTE	W06
// 001   ----------------------------------------
	BYTE		        Fn4   v100
	BYTE	W06
	BYTE		        As3   v104
	BYTE	W06
	BYTE		        Fn3   v096
	BYTE	W06
	BYTE		        As3   v104
	BYTE	W18
	BYTE		N15     As3   v096
	BYTE	W12
	BYTE		        Fn4   v100
	BYTE	W12
	BYTE		N07     As3   v104
	BYTE	W06
	BYTE		N15     Fn4 
	BYTE	W12
	BYTE		N07     As4   v096
	BYTE	W06
	BYTE		        Fn4   v108
	BYTE	W06
	BYTE		        As3   v096
	BYTE	W06
// 002   ----------------------------------------
	BYTE	W36
	BYTE		N15   
	BYTE	W12
	BYTE		        Fn4   v100
	BYTE	W12
	BYTE		N07     As3   v104
	BYTE	W06
	BYTE		N15     Fn4 
	BYTE	W12
	BYTE		N07     As4   v096
	BYTE	W06
	BYTE		        Fn4   v108
	BYTE	W06
	BYTE		        As4   v096
	BYTE	W06
// 003   ----------------------------------------
	BYTE		        Fn4   v100
	BYTE	W06
	BYTE		        As3   v104
	BYTE	W06
	BYTE		        Fn3   v096
	BYTE	W06
	BYTE		        As3   v104
	BYTE	W18
	BYTE		N15     As3   v096
	BYTE	W12
	BYTE		        Fn4   v100
	BYTE	W12
	BYTE		N07     As3   v104
	BYTE	W06
	BYTE		N15     Fn4 
	BYTE	W12
	BYTE		N07     As4   v096
	BYTE	W06
	BYTE		        Fn4   v108
	BYTE	W06
	BYTE		N05     As3   v096
	BYTE	W06
// 004   ----------------------------------------
TRSPrep_6_004:
	BYTE	W32
	BYTE	W02
	BYTE		N15     As3   v096
	BYTE	W12
	BYTE		        Fn4   v100
	BYTE	W12
	BYTE		N07     As3   v104
	BYTE	W06
	BYTE		N15     Fn4 
	BYTE	W12
	BYTE		N07     As4   v096
	BYTE	W06
	BYTE		        Fn4   v108
	BYTE	W06
	BYTE		        As4   v096
	BYTE	W06
	BYTE		        Fn4   v100
	BYTE	W02
	BYTE	PEND
// 005   ----------------------------------------
TRSPrep_6_005:
	BYTE	W04
	BYTE		N07     As3   v104
	BYTE	W06
	BYTE		        Fn3   v096
	BYTE	W06
	BYTE		        As3   v104
	BYTE	W18
	BYTE		N15     As3   v096
	BYTE	W12
	BYTE		        Fn4   v100
	BYTE	W12
	BYTE		N07     As3   v104
	BYTE	W06
	BYTE		N15     Fn4 
	BYTE	W12
	BYTE		N07     As4   v096
	BYTE	W06
	BYTE		        Fn4   v108
	BYTE	W06
	BYTE		        As3   v096
	BYTE	W08
	BYTE	PEND
// 006   ----------------------------------------
	BYTE	PATT
	 POIN2	TRSPrep_6_004
// 007   ----------------------------------------
	BYTE	PATT
	 POIN2	TRSPrep_6_005
// 008   ----------------------------------------
	BYTE	W96
// 009   ----------------------------------------
	BYTE	W96
// 010   ----------------------------------------
	BYTE	W20
	BYTE		N15     As3   v096
	BYTE	W12
	BYTE		        Cs3 
	BYTE	W12
	BYTE		        Fs3   v100
	BYTE	W12
	BYTE		        As3   v104
	BYTE	W12
	BYTE		        Cn4   v112
	BYTE	W12
	BYTE		        Ds3   v096
	BYTE	W12
	BYTE		        Gs3   v100
	BYTE	W04
// 011   ----------------------------------------
	BYTE	W08
	BYTE		        Cn4   v112
	BYTE	W12
	BYTE		        Cs4   v100
	BYTE	W12
	BYTE		        Fs3   v108
	BYTE	W12
	BYTE		        As3 
	BYTE	W12
	BYTE		        Cs4   v104
	BYTE	W12
	BYTE		        Ds4   v100
	BYTE	W12
	BYTE		        Fs3   v096
	BYTE	W12
	BYTE		        As3   v104
	BYTE	W04
// 012   ----------------------------------------
	BYTE	W08
	BYTE		        Ds4   v100
	BYTE	W88
// 013   ----------------------------------------
	BYTE	W96
// 014   ----------------------------------------
	BYTE	W96
// 015   ----------------------------------------
	BYTE	W96
// 016   ----------------------------------------
	BYTE	W30
	BYTE	W01
	BYTE		        As3   v096
	BYTE	W12
	BYTE		        Fn4   v100
	BYTE	W12
	BYTE		        As3   v104
	BYTE	W06
	BYTE		        Fn4 
	BYTE	W12
	BYTE		N07     As4   v096
	BYTE	W06
	BYTE		        Fn4   v108
	BYTE	W06
	BYTE		        As4   v096
	BYTE	W06
	BYTE		        Fn4   v100
	BYTE	W05
// 017   ----------------------------------------
	BYTE	W01
	BYTE		        As3   v104
	BYTE	W06
	BYTE		        Fn3   v096
	BYTE	W06
	BYTE		        As3   v104
	BYTE	W18
	BYTE		N15     As3   v096
	BYTE	W12
	BYTE		        Fn4   v100
	BYTE	W12
	BYTE		N07     As3   v104
	BYTE	W06
	BYTE		N15     Fn4 
	BYTE	W12
	BYTE		N07     As4   v096
	BYTE	W06
	BYTE		        Fn4   v108
	BYTE	W06
	BYTE		        As3   v096
	BYTE	W11
// 018   ----------------------------------------
	BYTE	W30
	BYTE	W01
	BYTE		N15   
	BYTE	W12
	BYTE		        Fn4   v100
	BYTE	W12
	BYTE		N07     As3   v104
	BYTE	W06
	BYTE		N15     Fn4 
	BYTE	W12
	BYTE		N07     As4   v096
	BYTE	W06
	BYTE		        Fn4   v108
	BYTE	W06
	BYTE		        As4   v096
	BYTE	W06
	BYTE		        Fn4   v100
	BYTE	W05
// 019   ----------------------------------------
	BYTE	W01
	BYTE		        As3   v104
	BYTE	W06
	BYTE		        Fn3   v096
	BYTE	W06
	BYTE		        As3   v104
	BYTE	W18
	BYTE		N15     As3   v096
	BYTE	W12
	BYTE		        Fn4   v100
	BYTE	W12
	BYTE		N07     As3   v104
	BYTE	W06
	BYTE		N15     Fn4 
	BYTE	W12
	BYTE		N07     As4   v096
	BYTE	W06
	BYTE		        Fn4   v108
	BYTE	W06
	BYTE		        As3   v096
	BYTE	W06
	BYTE	GoTo
	 POIN2	TRSPrep_6_B1
TRSPrep_6_B2:
	BYTE	W05
// 020   ----------------------------------------
	BYTE	W18
	BYTE	FINE

//**************** Track 7 (Midi-Chn.7) ****************//

TRSPrep_7:
	BYTE	KEYSH   TRSPrep_key+0
TRSPrep_7_B1:
// 000   ----------------------------------------
	BYTE		VOICE   60
	BYTE		VOL     81*TRSPrep_mvl/mxv
	BYTE		PAN     c_v+3
	BYTE		BEND    c_v+0
	BYTE		N07     Fn2   v104
	BYTE	W08
	BYTE		        As2 
	BYTE	W08
	BYTE		        Dn3 
	BYTE	W08
	BYTE		TIE     Cn3 
	BYTE		TIE     Ds3 
	BYTE	W72
// 001   ----------------------------------------
	BYTE	W84
	BYTE		EOT     Cn3 
	BYTE		        Ds3 
	BYTE	W12
// 002   ----------------------------------------
	BYTE		N07     Fn2 
	BYTE	W08
	BYTE		        As2 
	BYTE	W08
	BYTE		        Ds3 
	BYTE	W08
	BYTE		N10   
	BYTE		N10     Gn3   v108
	BYTE	W16
	BYTE		N04     Dn3   v104
	BYTE		N04     Fn3 
	BYTE	W08
	BYTE		TIE     Dn3 
	BYTE		TIE     Fn3 
	BYTE	W48
// 003   ----------------------------------------
	BYTE	W84
	BYTE		EOT     Dn3 
	BYTE		        Fn3 
	BYTE	W10
	BYTE		N07     Fn2 
	BYTE	W02
// 004   ----------------------------------------
	BYTE	W06
	BYTE		        As2 
	BYTE	W08
	BYTE		        Dn3 
	BYTE	W08
	BYTE		TIE     Cn3 
	BYTE		TIE     Ds3 
	BYTE	W72
	BYTE	W02
// 005   ----------------------------------------
	BYTE	W80
	BYTE	W02
	BYTE		EOT     Cn3 
	BYTE		        Ds3 
	BYTE	W12
	BYTE		N07     Cn3   v096
	BYTE		N07     Ds3 
	BYTE	W02
// 006   ----------------------------------------
	BYTE	W06
	BYTE		N07   
	BYTE		N07     Gs3   v088
	BYTE	W08
	BYTE		        Gs3   v096
	BYTE		N07     Cn4 
	BYTE	W08
	BYTE		N10     Gs3 
	BYTE		N10     Cn4 
	BYTE	W16
	BYTE		N04     Fn3 
	BYTE		N04     As3 
	BYTE	W08
	BYTE		TIE     Fn3   v104
	BYTE		TIE     As3   v096
	BYTE	W48
	BYTE	W02
// 007   ----------------------------------------
	BYTE	W92
	BYTE	W02
	BYTE		EOT     Fn3 
	BYTE		        As3 
	BYTE	W02
// 008   ----------------------------------------
	BYTE	W22
	BYTE		N72     Dn2   v092
	BYTE	W72
	BYTE		N23     Ds2 
	BYTE	W02
// 009   ----------------------------------------
	BYTE	W20
	BYTE		N48     Fn2 
	BYTE	W48
	BYTE		N44     As2 
	BYTE	W28
// 010   ----------------------------------------
	BYTE	W20
	BYTE		N48   
	BYTE	W48
	BYTE		        Cn3   v096
	BYTE	W28
// 011   ----------------------------------------
	BYTE	W20
	BYTE		        Cs3   v104
	BYTE	W48
	BYTE		N44     Ds3   v108
	BYTE	W28
// 012   ----------------------------------------
	BYTE	W96
// 013   ----------------------------------------
	BYTE	W44
	BYTE		N22     Ds2   v088
	BYTE		N22     Gs2 
	BYTE	W24
	BYTE		        Gs2   v092
	BYTE		N22     Cn3 
	BYTE	W24
	BYTE		N17     Cn3   v096
	BYTE		N17     Ds3 
	BYTE	W04
// 014   ----------------------------------------
	BYTE	W96
// 015   ----------------------------------------
	BYTE	W42
	BYTE	W01
	BYTE		N22     Fs2   v088
	BYTE		N22     Bn2 
	BYTE	W24
	BYTE		        Bn2   v092
	BYTE		N22     Ds3 
	BYTE	W24
	BYTE		N20     Ds3   v096
	BYTE		N20     Fs3 
	BYTE	W05
// 016   ----------------------------------------
	BYTE	W96
// 017   ----------------------------------------
	BYTE	W96
// 018   ----------------------------------------
	BYTE	W96
// 019   ----------------------------------------
	BYTE	W90
	BYTE	W01
	BYTE	GoTo
	 POIN2	TRSPrep_7_B1
TRSPrep_7_B2:
	BYTE		N07     Fn2   v104
	BYTE	W05
// 020   ----------------------------------------
	BYTE	W03
	BYTE		        As2 
	BYTE	W15
	BYTE	FINE

//**************** Track 8 (Midi-Chn.8) ****************//

TRSPrep_8:
	BYTE	KEYSH   TRSPrep_key+0
TRSPrep_8_B1:
// 000   ----------------------------------------
	BYTE		VOICE   41
	BYTE		VOL     98*TRSPrep_mvl/mxv
	BYTE		PAN     c_v-26
	BYTE		BEND    c_v+0
	BYTE	W96
// 001   ----------------------------------------
	BYTE	W96
// 002   ----------------------------------------
	BYTE	W96
// 003   ----------------------------------------
	BYTE	W96
// 004   ----------------------------------------
	BYTE	W96
// 005   ----------------------------------------
	BYTE	W96
// 006   ----------------------------------------
	BYTE	W96
// 007   ----------------------------------------
	BYTE	W96
// 008   ----------------------------------------
	BYTE	W96
// 009   ----------------------------------------
	BYTE	W96
// 010   ----------------------------------------
	BYTE	W96
// 011   ----------------------------------------
	BYTE	W96
// 012   ----------------------------------------
	BYTE	W20
	BYTE		N20     Cs4   v096
	BYTE		N20     Fn4 
	BYTE	W24
	BYTE		N07     Fn3   v088
	BYTE		N07     Gs3 
	BYTE	W08
	BYTE		        Gs3   v092
	BYTE		N07     Cs4 
	BYTE	W08
	BYTE		        Cs4   v096
	BYTE		N07     Fn4 
	BYTE	W08
	BYTE		N24     Cn4 
	BYTE		N24     Ds4 
	BYTE	W24
	BYTE		        Gs3   v092
	BYTE		N24     Cs4 
	BYTE	W04
// 013   ----------------------------------------
	BYTE	W20
	BYTE		N07     Cn4   v096
	BYTE		N07     Ds4 
	BYTE	W16
	BYTE		N04     Ds4   v104
	BYTE		N04     Gs4 
	BYTE	W08
	BYTE		N64     Ds4 
	BYTE		N64     Gs4 
	BYTE	W52
// 014   ----------------------------------------
	BYTE	W20
	BYTE		N22     En4   v096
	BYTE		N22     Gs4 
	BYTE	W24
	BYTE		N07     Gs3   v088
	BYTE		N07     Bn3 
	BYTE	W08
	BYTE		        Bn3   v092
	BYTE		N07     En4 
	BYTE	W08
	BYTE		        En4   v096
	BYTE		N07     Gs4 
	BYTE	W08
	BYTE		N24     Ds4 
	BYTE		N24     Fs4 
	BYTE	W24
	BYTE		N23     Bn3   v092
	BYTE		N23     En4 
	BYTE	W04
// 015   ----------------------------------------
	BYTE	W19
	BYTE		N07     Ds4   v096
	BYTE		N07     Fs4 
	BYTE	W16
	BYTE		N04     Fs4   v104
	BYTE		N04     Bn4 
	BYTE	W08
	BYTE		N48     Fs4 
	BYTE		N36     Bn4 
	BYTE	W36
	BYTE		N12     An4 
	BYTE	W12
	BYTE		N24     Ds4   v096
	BYTE		N10     Gs4 
	BYTE	W05
// 016   ----------------------------------------
	BYTE	W07
	BYTE		        Fs4 
	BYTE	W88
	BYTE	W01
// 017   ----------------------------------------
	BYTE	W96
// 018   ----------------------------------------
	BYTE	W96
// 019   ----------------------------------------
	BYTE	W90
	BYTE	W01
	BYTE	GoTo
	 POIN2	TRSPrep_8_B1
TRSPrep_8_B2:
	BYTE	W05
// 020   ----------------------------------------
	BYTE	W18
	BYTE	FINE

//**************** Track 9 (Midi-Chn.9) ****************//

TRSPrep_9:
	BYTE	KEYSH   TRSPrep_key+0
TRSPrep_9_B1:
// 000   ----------------------------------------
	BYTE		VOICE   68
	BYTE		VOL     94*TRSPrep_mvl/mxv
	BYTE		PAN     c_v+26
	BYTE		BEND    c_v+0
	BYTE	W96
// 001   ----------------------------------------
	BYTE	W96
// 002   ----------------------------------------
	BYTE	W96
// 003   ----------------------------------------
	BYTE	W96
// 004   ----------------------------------------
	BYTE	W96
// 005   ----------------------------------------
	BYTE	W96
// 006   ----------------------------------------
	BYTE	W96
// 007   ----------------------------------------
	BYTE	W96
// 008   ----------------------------------------
	BYTE	W96
// 009   ----------------------------------------
	BYTE	W96
// 010   ----------------------------------------
	BYTE	W96
// 011   ----------------------------------------
	BYTE	W96
// 012   ----------------------------------------
	BYTE	W96
// 013   ----------------------------------------
	BYTE	W96
// 014   ----------------------------------------
	BYTE	W96
// 015   ----------------------------------------
	BYTE	W96
// 016   ----------------------------------------
	BYTE	W19
	BYTE		N08     Fn4   v116
	BYTE	W08
	BYTE		        Ds4 
	BYTE	W08
	BYTE		        Dn4 
	BYTE	W08
	BYTE		N48     As3   v112
	BYTE	W48
	BYTE		N10     Fn3 
	BYTE	W05
// 017   ----------------------------------------
	BYTE	W11
	BYTE		N04     Gn3   v104
	BYTE	W08
	BYTE		N60     Gs3   v112
	BYTE	W60
	BYTE		N12     As3   v108
	BYTE	W12
	BYTE		        Cn4 
	BYTE	W05
// 018   ----------------------------------------
	BYTE	W07
	BYTE		        Ds4   v112
	BYTE	W12
	BYTE		N10     Dn4   v100
	BYTE	W16
	BYTE		N04     As3 
	BYTE	W08
	BYTE		TIE     Fn3 
	BYTE	W52
	BYTE	W01
// 019   ----------------------------------------
	BYTE	W90
	BYTE	W01
	BYTE		EOT   
	BYTE	GoTo
	 POIN2	TRSPrep_9_B1
TRSPrep_9_B2:
	BYTE	W05
// 020   ----------------------------------------
	BYTE	W18
	BYTE	FINE

//**************** Track 10 (Midi-Chn.13) ****************//

TRSPrep_10:
	BYTE	KEYSH   TRSPrep_key+0
TRSPrep_10_B1:
// 000   ----------------------------------------
	BYTE		VOICE   67
	BYTE		VOL     95*TRSPrep_mvl/mxv
	BYTE		PAN     c_v+21
	BYTE		BEND    c_v+0
	BYTE	W96
// 001   ----------------------------------------
	BYTE	W96
// 002   ----------------------------------------
	BYTE	W96
// 003   ----------------------------------------
	BYTE	W96
// 004   ----------------------------------------
	BYTE	W96
// 005   ----------------------------------------
	BYTE	W96
// 006   ----------------------------------------
	BYTE	W96
// 007   ----------------------------------------
	BYTE	W96
// 008   ----------------------------------------
	BYTE	W96
// 009   ----------------------------------------
	BYTE	W96
// 010   ----------------------------------------
	BYTE	W20
	BYTE		N48     Fs2   v096
	BYTE		N48     As2 
	BYTE	W48
	BYTE		        Gs2   v100
	BYTE		N48     Cn3 
	BYTE	W28
// 011   ----------------------------------------
	BYTE	W20
	BYTE		        As2   v104
	BYTE		N48     Cs3 
	BYTE	W48
	BYTE		N44     Cn3   v112
	BYTE		N44     Ds3 
	BYTE	W28
// 012   ----------------------------------------
	BYTE	W96
// 013   ----------------------------------------
	BYTE	W96
// 014   ----------------------------------------
	BYTE	W96
// 015   ----------------------------------------
	BYTE	W96
// 016   ----------------------------------------
	BYTE	W96
// 017   ----------------------------------------
	BYTE	W96
// 018   ----------------------------------------
	BYTE	W96
// 019   ----------------------------------------
	BYTE	W90
	BYTE	W01
	BYTE	GoTo
	 POIN2	TRSPrep_10_B1
TRSPrep_10_B2:
	BYTE	W05
// 020   ----------------------------------------
	BYTE	W18
	BYTE	FINE

//**************** Track 11 (Midi-Chn.14) ****************//

TRSPrep_11:
	BYTE	KEYSH   TRSPrep_key+0
TRSPrep_11_B1:
// 000   ----------------------------------------
	BYTE		VOICE   73
	BYTE		VOL     75*TRSPrep_mvl/mxv
	BYTE		PAN     c_v+16
	BYTE		BEND    c_v+0
	BYTE	W96
// 001   ----------------------------------------
	BYTE	W96
// 002   ----------------------------------------
	BYTE	W96
// 003   ----------------------------------------
	BYTE	W03
	BYTE		N03     As4   v108
	BYTE	W03
	BYTE		        Cn5 
	BYTE	W03
	BYTE		        Dn5   v112
	BYTE	W03
	BYTE		        Ds5 
	BYTE	W03
	BYTE		        Fn5   v116
	BYTE	W03
	BYTE		        Gn5 
	BYTE	W03
	BYTE		        An5   v124
	BYTE	W03
	BYTE		        As5 
	BYTE	W03
	BYTE		        Cn6 
	BYTE	W03
	BYTE		        As5 
	BYTE	W03
	BYTE		        Cn6 
	BYTE	W03
	BYTE		        As5 
	BYTE	W03
	BYTE		        Cn6 
	BYTE	W03
	BYTE		        As5 
	BYTE	W03
	BYTE		        Cn6 
	BYTE	W03
	BYTE		        As5 
	BYTE	W03
	BYTE		        Cn6 
	BYTE	W03
	BYTE		        As5 
	BYTE	W03
	BYTE		        Cn6 
	BYTE	W03
	BYTE		        As5 
	BYTE	W03
	BYTE		        Cn6 
	BYTE	W03
	BYTE		N06     As5 
	BYTE	W30
// 004   ----------------------------------------
	BYTE	W96
// 005   ----------------------------------------
	BYTE	W96
// 006   ----------------------------------------
	BYTE	W96
// 007   ----------------------------------------
	BYTE	W01
	BYTE		N03     As4   v108
	BYTE	W03
	BYTE		        Cn5 
	BYTE	W03
	BYTE		        Dn5   v112
	BYTE	W03
	BYTE		        Ds5 
	BYTE	W03
	BYTE		        Fn5   v116
	BYTE	W03
	BYTE		        Gn5 
	BYTE	W03
	BYTE		        An5   v124
	BYTE	W03
	BYTE		        As5 
	BYTE	W03
	BYTE		        Cn6 
	BYTE	W03
	BYTE		        As5 
	BYTE	W03
	BYTE		        Cn6 
	BYTE	W03
	BYTE		        As5 
	BYTE	W03
	BYTE		        Cn6 
	BYTE	W03
	BYTE		        As5 
	BYTE	W03
	BYTE		        Cn6 
	BYTE	W03
	BYTE		        As5 
	BYTE	W03
	BYTE		        Cn6 
	BYTE	W03
	BYTE		        As5 
	BYTE	W03
	BYTE		        Cn6 
	BYTE	W03
	BYTE		        As5 
	BYTE	W03
	BYTE		        Cn6 
	BYTE	W03
	BYTE		N06     As5 
	BYTE	W32
// 008   ----------------------------------------
	BYTE	W96
// 009   ----------------------------------------
	BYTE	W96
// 010   ----------------------------------------
	BYTE	W96
// 011   ----------------------------------------
	BYTE	W96
// 012   ----------------------------------------
	BYTE	W96
// 013   ----------------------------------------
	BYTE	W44
	BYTE	W03
	BYTE		N03     Gs4   v108
	BYTE	W03
	BYTE		        As4 
	BYTE	W03
	BYTE		        Cn5   v112
	BYTE	W03
	BYTE		        Cs5 
	BYTE	W03
	BYTE		        Ds5   v116
	BYTE	W03
	BYTE		        Fn5 
	BYTE	W03
	BYTE		        Fs5   v124
	BYTE	W03
	BYTE		        Gs5 
	BYTE	W03
	BYTE		        As5 
	BYTE	W03
	BYTE		        Gs5 
	BYTE	W03
	BYTE		        As5 
	BYTE	W03
	BYTE		        Gs5 
	BYTE	W03
	BYTE		        As5 
	BYTE	W03
	BYTE		        Gs5 
	BYTE	W03
	BYTE		        As5 
	BYTE	W03
	BYTE		        Gs5 
	BYTE	W03
	BYTE		        As5 
	BYTE	W01
// 014   ----------------------------------------
	BYTE	W02
	BYTE		        Gs5 
	BYTE	W03
	BYTE		        As5 
	BYTE	W03
	BYTE		        Gs5 
	BYTE	W88
// 015   ----------------------------------------
	BYTE	W44
	BYTE	W02
	BYTE		        Bn4   v108
	BYTE	W03
	BYTE		        Cs5 
	BYTE	W03
	BYTE		        Ds5   v112
	BYTE	W03
	BYTE		        En5 
	BYTE	W03
	BYTE		        Fs5   v116
	BYTE	W03
	BYTE		        Gs5 
	BYTE	W03
	BYTE		        An5   v124
	BYTE	W03
	BYTE		        Bn5 
	BYTE	W03
	BYTE		        An5 
	BYTE	W03
	BYTE		        Gs5 
	BYTE	W03
	BYTE		        Fs5 
	BYTE	W03
	BYTE		        Gs5 
	BYTE	W03
	BYTE		        Fs5 
	BYTE	W03
	BYTE		        En5 
	BYTE	W03
	BYTE		        Ds5 
	BYTE	W03
	BYTE		        En5 
	BYTE	W03
	BYTE		        Ds5 
	BYTE	W02
// 016   ----------------------------------------
	BYTE	W01
	BYTE		        Cs5 
	BYTE	W03
	BYTE		        Bn4 
	BYTE	W03
	BYTE		        An4 
	BYTE	W03
	BYTE		        Gs4 
	BYTE	W03
	BYTE		        Fs4 
	BYTE	W03
	BYTE		        Ds4 
	BYTE	W80
// 017   ----------------------------------------
	BYTE	W96
// 018   ----------------------------------------
	BYTE	W96
// 019   ----------------------------------------
	BYTE	W90
	BYTE	W01
	BYTE	GoTo
	 POIN2	TRSPrep_11_B1
TRSPrep_11_B2:
	BYTE	W05
// 020   ----------------------------------------
	BYTE	W18
	BYTE	FINE

//**************** Track 12 (Midi-Chn.15) ****************//

TRSPrep_12:
	BYTE	KEYSH   TRSPrep_key+0
TRSPrep_12_B1:
// 000   ----------------------------------------
	BYTE		VOICE   33
	BYTE		VOL     88*TRSPrep_mvl/mxv
	BYTE		PAN     c_v+0
	BYTE		BEND    c_v+0
	BYTE	W12
	BYTE		N03     As1   v072
	BYTE	W04
	BYTE		        As2   v084
	BYTE	W04
	BYTE		        As1   v104
	BYTE	W04
	BYTE		N20     As2   v124
	BYTE	W24
	BYTE		        As1   v084
	BYTE	W36
	BYTE		        As2 
	BYTE	W12
// 001   ----------------------------------------
	BYTE		N07     As1   v072
	BYTE	W08
	BYTE		        As2   v084
	BYTE	W08
	BYTE		        As1   v092
	BYTE	W08
	BYTE		N20     As2   v104
	BYTE	W24
	BYTE		        As1   v084
	BYTE	W48
// 002   ----------------------------------------
	BYTE	W12
	BYTE		N03     As2   v072
	BYTE	W04
	BYTE		        As1   v084
	BYTE	W04
	BYTE		        As2   v092
	BYTE	W04
	BYTE		N20     As1   v104
	BYTE	W24
	BYTE		        As2   v124
	BYTE	W36
	BYTE		        As1   v084
	BYTE	W12
// 003   ----------------------------------------
	BYTE		N07     As2   v072
	BYTE	W08
	BYTE		        As1   v084
	BYTE	W08
	BYTE		        As2   v104
	BYTE	W08
	BYTE		N20     As1   v124
	BYTE	W24
	BYTE		        As2   v084
	BYTE	W44
	BYTE	W02
	BYTE		        Fn1 
	BYTE	W02
// 004   ----------------------------------------
	BYTE	W10
	BYTE		        As1   v104
	BYTE	W12
	BYTE		        As2   v124
	BYTE	W24
	BYTE		        As1   v084
	BYTE	W36
	BYTE		        As2 
	BYTE	W12
	BYTE		N07     As1   v072
	BYTE	W02
// 005   ----------------------------------------
	BYTE	W06
	BYTE		        As2   v084
	BYTE	W08
	BYTE		        As1   v092
	BYTE	W08
	BYTE		N20     As2   v104
	BYTE	W24
	BYTE		        As1   v084
	BYTE	W48
	BYTE	W02
// 006   ----------------------------------------
	BYTE	W10
	BYTE		N03     As2   v072
	BYTE	W04
	BYTE		        As1   v084
	BYTE	W04
	BYTE		        As2   v092
	BYTE	W04
	BYTE		N20     As1   v104
	BYTE	W24
	BYTE		        As2   v124
	BYTE	W36
	BYTE		        As1   v084
	BYTE	W12
	BYTE		N07     As2   v072
	BYTE	W02
// 007   ----------------------------------------
	BYTE	W06
	BYTE		        As1   v084
	BYTE	W08
	BYTE		        As2   v104
	BYTE	W08
	BYTE		N20     As1   v124
	BYTE	W24
	BYTE		        As2   v084
	BYTE	W48
	BYTE		        Fn1 
	BYTE	W02
// 008   ----------------------------------------
	BYTE	W10
	BYTE		        As1   v104
	BYTE	W12
	BYTE		        Gs1   v124
	BYTE	W24
	BYTE		        Gs2   v084
	BYTE	W36
	BYTE		N18     Gs1 
	BYTE	W12
	BYTE		N07     Gs2   v072
	BYTE	W02
// 009   ----------------------------------------
	BYTE	W04
	BYTE		N01     Gs1   v084
	BYTE	W08
	BYTE		N07     Gs2   v092
	BYTE	W08
	BYTE		N20     Gs1   v104
	BYTE	W24
	BYTE		        Gs2   v084
	BYTE	W52
// 010   ----------------------------------------
	BYTE	W08
	BYTE		N03     Gs1   v072
	BYTE	W04
	BYTE		        Gs2   v084
	BYTE	W04
	BYTE		        Gs1   v092
	BYTE	W04
	BYTE		N20     Fs2   v104
	BYTE	W24
	BYTE		        Fs1   v084
	BYTE	W36
	BYTE		        Fs2 
	BYTE	W12
	BYTE		N07     Fs1   v072
	BYTE	W04
// 011   ----------------------------------------
	BYTE	W04
	BYTE		        Fs2   v084
	BYTE	W08
	BYTE		        Fs1   v092
	BYTE	W08
	BYTE		N20     Fs2   v104
	BYTE	W24
	BYTE		        Fs1   v084
	BYTE	W52
// 012   ----------------------------------------
	BYTE	W08
	BYTE		N03     Fs2   v072
	BYTE	W04
	BYTE		        Fs1   v084
	BYTE	W04
	BYTE		        Fs2   v092
	BYTE	W04
	BYTE		N20     Gs1   v104
	BYTE	W24
	BYTE		        Gs2   v084
	BYTE	W36
	BYTE		        Gs1 
	BYTE	W12
	BYTE		N07     Gs2   v072
	BYTE	W04
// 013   ----------------------------------------
	BYTE	W04
	BYTE		        Gs1   v084
	BYTE	W08
	BYTE		        Gs2   v092
	BYTE	W08
	BYTE		N20     Gs1   v104
	BYTE	W24
	BYTE		        Gs2   v084
	BYTE	W52
// 014   ----------------------------------------
	BYTE	W08
	BYTE		N03     Gs1   v072
	BYTE	W04
	BYTE		        Gs2   v084
	BYTE	W04
	BYTE		        Gs1   v092
	BYTE	W04
	BYTE		N20     Bn1   v104
	BYTE	W24
	BYTE		        Bn2   v084
	BYTE	W36
	BYTE		        Bn1 
	BYTE	W12
	BYTE		N07     Bn2   v072
	BYTE	W04
// 015   ----------------------------------------
	BYTE	W04
	BYTE		        Bn1   v084
	BYTE	W07
	BYTE		        Bn2   v092
	BYTE	W08
	BYTE		N20     Bn1   v104
	BYTE	W24
	BYTE		        Bn2   v084
	BYTE	W52
	BYTE	W01
// 016   ----------------------------------------
	BYTE	W07
	BYTE		N03     Bn1   v072
	BYTE	W04
	BYTE		        Bn2   v084
	BYTE	W04
	BYTE		        Bn1   v104
	BYTE	W04
	BYTE		N20     As2   v124
	BYTE	W24
	BYTE		        As1   v084
	BYTE	W36
	BYTE		        As2 
	BYTE	W12
	BYTE		N07     As1   v072
	BYTE	W05
// 017   ----------------------------------------
	BYTE	W03
	BYTE		        As2   v084
	BYTE	W08
	BYTE		        As1   v092
	BYTE	W08
	BYTE		N20     As2   v104
	BYTE	W24
	BYTE		        As1   v084
	BYTE	W52
	BYTE	W01
// 018   ----------------------------------------
	BYTE	W07
	BYTE		N07     As2   v072
	BYTE	W04
	BYTE		        As1   v084
	BYTE	W04
	BYTE		        As2   v092
	BYTE	W04
	BYTE		N20     As1   v104
	BYTE	W24
	BYTE		        As2   v124
	BYTE	W36
	BYTE		        As1   v084
	BYTE	W12
	BYTE		N07     As2   v072
	BYTE	W05
// 019   ----------------------------------------
	BYTE	W03
	BYTE		        As1   v084
	BYTE	W08
	BYTE		        As2   v092
	BYTE	W08
	BYTE		N20     As1   v104
	BYTE	W24
	BYTE		        As2   v084
	BYTE	W48
	BYTE	GoTo
	 POIN2	TRSPrep_12_B1
TRSPrep_12_B2:
	BYTE	W05
// 020   ----------------------------------------
	BYTE	W07
	BYTE		N03     As1   v072
	BYTE	W04
	BYTE		        As2   v084
	BYTE	W07
	BYTE	FINE

//**************** Track 13 (Midi-Chn.16) ****************//

TRSPrep_13:
	BYTE	KEYSH   TRSPrep_key+0
TRSPrep_13_B1:
// 000   ----------------------------------------
	BYTE		VOICE   34
	BYTE		VOL     63*TRSPrep_mvl/mxv
	BYTE		PAN     c_v+26
	BYTE		BEND    c_v+0
	BYTE	W24
	BYTE		N06     As1   v096
	BYTE	W24
	BYTE		        As1   v088
	BYTE	W36
	BYTE		N06   
	BYTE	W12
// 001   ----------------------------------------
TRSPrep_13_001:
	BYTE		N04     As1   v076
	BYTE	W08
	BYTE		        As1   v088
	BYTE	W08
	BYTE		        As1   v096
	BYTE	W08
	BYTE		N06   
	BYTE	W24
	BYTE		        As1   v088
	BYTE	W48
	BYTE	PEND
// 002   ----------------------------------------
	BYTE	W24
	BYTE		        As1   v096
	BYTE	W24
	BYTE		        As1   v088
	BYTE	W36
	BYTE		N06   
	BYTE	W12
// 003   ----------------------------------------
	BYTE	PATT
	 POIN2	TRSPrep_13_001
// 004   ----------------------------------------
TRSPrep_13_004:
	BYTE	W22
	BYTE		N06     As1   v096
	BYTE	W24
	BYTE		        As1   v088
	BYTE	W36
	BYTE		N06   
	BYTE	W12
	BYTE		N04     As1   v076
	BYTE	W02
	BYTE	PEND
// 005   ----------------------------------------
TRSPrep_13_005:
	BYTE	W06
	BYTE		N04     As1   v088
	BYTE	W08
	BYTE		        As1   v096
	BYTE	W08
	BYTE		N06   
	BYTE	W24
	BYTE		        As1   v088
	BYTE	W48
	BYTE	W02
	BYTE	PEND
// 006   ----------------------------------------
	BYTE	PATT
	 POIN2	TRSPrep_13_004
// 007   ----------------------------------------
	BYTE	PATT
	 POIN2	TRSPrep_13_005
// 008   ----------------------------------------
	BYTE	W22
	BYTE		N06     Gs1   v096
	BYTE	W24
	BYTE		        Gs1   v088
	BYTE	W36
	BYTE		N06   
	BYTE	W12
	BYTE		N04     Gs1   v076
	BYTE	W02
// 009   ----------------------------------------
	BYTE	W06
	BYTE		N02     Gs1   v088
	BYTE	W06
	BYTE		N04     Gs1   v096
	BYTE	W08
	BYTE		N06   
	BYTE	W24
	BYTE		        Gs1   v088
	BYTE	W52
// 010   ----------------------------------------
	BYTE	W20
	BYTE		        Fs1   v096
	BYTE	W24
	BYTE		        Fs1   v088
	BYTE	W36
	BYTE		N06   
	BYTE	W12
	BYTE		N04     Fs1   v076
	BYTE	W04
// 011   ----------------------------------------
	BYTE	W04
	BYTE		        Fs1   v088
	BYTE	W08
	BYTE		        Fs1   v096
	BYTE	W08
	BYTE		N06   
	BYTE	W24
	BYTE		        Fs1   v088
	BYTE	W52
// 012   ----------------------------------------
	BYTE	W20
	BYTE		        Gs1   v096
	BYTE	W24
	BYTE		        Gs1   v088
	BYTE	W36
	BYTE		N06   
	BYTE	W12
	BYTE		N04     Gs1   v076
	BYTE	W04
// 013   ----------------------------------------
	BYTE	W04
	BYTE		        Gs1   v088
	BYTE	W08
	BYTE		        Gs1   v096
	BYTE	W08
	BYTE		N06   
	BYTE	W24
	BYTE		        Gs1   v088
	BYTE	W52
// 014   ----------------------------------------
	BYTE	W20
	BYTE		        Bn1   v096
	BYTE	W24
	BYTE		        Bn1   v088
	BYTE	W36
	BYTE		N06   
	BYTE	W12
	BYTE		N04     Bn1   v076
	BYTE	W04
// 015   ----------------------------------------
	BYTE	W04
	BYTE		        Bn1   v088
	BYTE	W07
	BYTE		        Bn1   v096
	BYTE	W08
	BYTE		N06   
	BYTE	W24
	BYTE		        Bn1   v088
	BYTE	W52
	BYTE	W01
// 016   ----------------------------------------
TRSPrep_13_016:
	BYTE	W19
	BYTE		N06     As1   v096
	BYTE	W24
	BYTE		        As1   v088
	BYTE	W36
	BYTE		N06   
	BYTE	W12
	BYTE		N04     As1   v076
	BYTE	W05
	BYTE	PEND
// 017   ----------------------------------------
	BYTE	W03
	BYTE		        As1   v088
	BYTE	W08
	BYTE		        As1   v096
	BYTE	W08
	BYTE		N06   
	BYTE	W24
	BYTE		        As1   v088
	BYTE	W52
	BYTE	W01
// 018   ----------------------------------------
	BYTE	PATT
	 POIN2	TRSPrep_13_016
// 019   ----------------------------------------
	BYTE	W03
	BYTE		N04     As1   v088
	BYTE	W08
	BYTE		        As1   v096
	BYTE	W08
	BYTE		N06   
	BYTE	W24
	BYTE		        As1   v088
	BYTE	W48
	BYTE	GoTo
	 POIN2	TRSPrep_13_B1
TRSPrep_13_B2:
	BYTE	W05
// 020   ----------------------------------------
	BYTE	W18
	BYTE	FINE

//******************************************************//
	ALIGN 4

TRSPrep:
	BYTE	13	// NumTrks
	BYTE	0	// NumBlks
	BYTE	TRSPrep_pri	// Priority
	BYTE	TRSPrep_rev	// Reverb.

	POIN2	TRSPrep_grp

	POIN2	TRSPrep_1
	POIN2	TRSPrep_2
	POIN2	TRSPrep_3
	POIN2	TRSPrep_4
	POIN2	TRSPrep_5
	POIN2	TRSPrep_6
	POIN2	TRSPrep_7
	POIN2	TRSPrep_8
	POIN2	TRSPrep_9
	POIN2	TRSPrep_10
	POIN2	TRSPrep_11
	POIN2	TRSPrep_12
	POIN2	TRSPrep_13

	
