//Event file generated from Sappy .s format.
	#include "MPlayDef.event"

	#define	WereRangers_grp  voicegroup000
	#define	WereRangers_pri  0
	#define	WereRangers_rev  0
	#define	WereRangers_mvl  40
	#define	WereRangers_key  0
	#define	WereRangers_tbs  1
	#define	WereRangers_exg  0
	#define	WereRangers_cmp  1

	// .rodata
	//	WereRangers
	ALIGN 4

//**************** Track 1 (Midi-Chn.1) ****************//

WereRangers_1:
	BYTE	KEYSH   WereRangers_key+0
WereRangers_1_B1:
// 000   ----------------------------------------
	BYTE	TEMPO   120*WereRangers_tbs/2
	BYTE		VOICE   32
	BYTE		VOL     127*WereRangers_mvl/mxv
	BYTE		PAN     c_v+0
	BYTE		N12     Fs2   v100
	BYTE	W12
	BYTE		N12   
	BYTE	W24
	BYTE		N06   
	BYTE	W06
	BYTE		N06   
	BYTE	W06
	BYTE		N12   
	BYTE	W12
	BYTE		N12   
	BYTE	W24
	BYTE		N06   
	BYTE	W06
	BYTE		N06   
	BYTE	W06
// 001   ----------------------------------------
	BYTE		N12     Gs2 
	BYTE	W12
	BYTE		N12   
	BYTE	W18
	BYTE		N06     Fs2 
	BYTE	W06
	BYTE		        Fn2 
	BYTE	W06
	BYTE		        Ds2 
	BYTE	W06
	BYTE		N12     Cs2 
	BYTE	W12
	BYTE		N12   
	BYTE	W18
	BYTE		N06   
	BYTE	W06
	BYTE		        Ds2 
	BYTE	W06
	BYTE		        Fn2 
	BYTE	W06
// 002   ----------------------------------------
WereRangers_1_002:
	BYTE		N12     Fs2   v100
	BYTE	W12
	BYTE		N12   
	BYTE	W24
	BYTE		N06   
	BYTE	W06
	BYTE		N06   
	BYTE	W06
	BYTE		N12   
	BYTE	W12
	BYTE		N12   
	BYTE	W24
	BYTE		N06   
	BYTE	W06
	BYTE		N06   
	BYTE	W06
	BYTE	PEND
// 003   ----------------------------------------
	BYTE	PATT
	 POIN2	WereRangers_1_002
// 004   ----------------------------------------
WereRangers_1_004:
	BYTE		N12     Gs2   v100
	BYTE	W12
	BYTE		N12   
	BYTE	W24
	BYTE		N06   
	BYTE	W06
	BYTE		N06   
	BYTE	W06
	BYTE		N12   
	BYTE	W12
	BYTE		N12   
	BYTE	W24
	BYTE		N06   
	BYTE	W06
	BYTE		N06   
	BYTE	W06
	BYTE	PEND
// 005   ----------------------------------------
	BYTE		N12     Cs2 
	BYTE	W12
	BYTE		N12   
	BYTE	W24
	BYTE		N06   
	BYTE	W06
	BYTE		N06   
	BYTE	W06
	BYTE		N12   
	BYTE	W12
	BYTE		N12   
	BYTE	W18
	BYTE		N06   
	BYTE	W06
	BYTE		        Ds2 
	BYTE	W06
	BYTE		        Fn2 
	BYTE	W06
// 006   ----------------------------------------
	BYTE	PATT
	 POIN2	WereRangers_1_002
// 007   ----------------------------------------
	BYTE	PATT
	 POIN2	WereRangers_1_002
// 008   ----------------------------------------
	BYTE	PATT
	 POIN2	WereRangers_1_004
// 009   ----------------------------------------
	BYTE		N12     Cs2   v100
	BYTE	W12
	BYTE		N12   
	BYTE	W24
	BYTE		N06   
	BYTE	W06
	BYTE		N06   
	BYTE	W06
	BYTE		N24   
	BYTE	W24
	BYTE		        Ds2 
	BYTE	W24
// 010   ----------------------------------------
WereRangers_1_010:
	BYTE		N12     En2   v100
	BYTE	W24
	BYTE		N12   
	BYTE	W24
	BYTE		N12   
	BYTE	W24
	BYTE		N12   
	BYTE	W24
	BYTE	PEND
// 011   ----------------------------------------
WereRangers_1_011:
	BYTE		N12     Ds2   v100
	BYTE	W24
	BYTE		N12   
	BYTE	W24
	BYTE		N12   
	BYTE	W24
	BYTE		N12   
	BYTE	W24
	BYTE	PEND
// 012   ----------------------------------------
	BYTE		        Cs2 
	BYTE	W24
	BYTE		N12   
	BYTE	W24
	BYTE		N12   
	BYTE	W24
	BYTE		N12   
	BYTE	W24
// 013   ----------------------------------------
	BYTE	PATT
	 POIN2	WereRangers_1_011
// 014   ----------------------------------------
	BYTE	PATT
	 POIN2	WereRangers_1_010
// 015   ----------------------------------------
	BYTE		N12     Fs2   v100
	BYTE	W24
	BYTE		N12   
	BYTE	W24
	BYTE		N12   
	BYTE	W24
	BYTE		N12   
	BYTE	W24
// 016   ----------------------------------------
	BYTE		        Gs2 
	BYTE	W24
	BYTE		N12   
	BYTE	W24
	BYTE		N12   
	BYTE	W24
	BYTE		N12   
	BYTE	W24
// 017   ----------------------------------------
	BYTE		N12   
	BYTE	W24
	BYTE		N12   
	BYTE	W24
	BYTE		N12   
	BYTE	W24
	BYTE		N06   
	BYTE	W06
	BYTE		        Fs2 
	BYTE	W06
	BYTE		        Fn2 
	BYTE	W06
	BYTE		        Gs2 
	BYTE	W06
// 018   ----------------------------------------
WereRangers_1_018:
	BYTE		N12     An2   v100
	BYTE	W12
	BYTE		N12   
	BYTE	W24
	BYTE		N06   
	BYTE	W06
	BYTE		N06   
	BYTE	W06
	BYTE		N12   
	BYTE	W12
	BYTE		N12   
	BYTE	W24
	BYTE		N06   
	BYTE	W06
	BYTE		N06   
	BYTE	W06
	BYTE	PEND
// 019   ----------------------------------------
WereRangers_1_019:
	BYTE		N12     Bn2   v100
	BYTE	W12
	BYTE		N12   
	BYTE	W24
	BYTE		N06   
	BYTE	W06
	BYTE		N06   
	BYTE	W06
	BYTE		N12   
	BYTE	W12
	BYTE		N12   
	BYTE	W24
	BYTE		N06   
	BYTE	W06
	BYTE		N06   
	BYTE	W06
	BYTE	PEND
// 020   ----------------------------------------
	BYTE	PATT
	 POIN2	WereRangers_1_018
// 021   ----------------------------------------
	BYTE	PATT
	 POIN2	WereRangers_1_019
// 022   ----------------------------------------
	BYTE		N12     Cn3   v100
	BYTE	W12
	BYTE		N12   
	BYTE	W24
	BYTE		N06   
	BYTE	W06
	BYTE		N06   
	BYTE	W06
	BYTE		N12   
	BYTE	W12
	BYTE		N12   
	BYTE	W24
	BYTE		N06   
	BYTE	W06
	BYTE		N06   
	BYTE	W06
// 023   ----------------------------------------
	BYTE		N12     Dn3 
	BYTE	W12
	BYTE		N12   
	BYTE	W24
	BYTE		N06   
	BYTE	W06
	BYTE		N06   
	BYTE	W06
	BYTE		N12   
	BYTE	W12
	BYTE		N12   
	BYTE	W24
	BYTE		N06   
	BYTE	W06
	BYTE		N06   
	BYTE	W06
// 024   ----------------------------------------
	BYTE	PATT
	 POIN2	WereRangers_1_004
// 025   ----------------------------------------
	BYTE		N12     Cs3   v100
	BYTE	W12
	BYTE		N12   
	BYTE	W24
	BYTE		N06   
	BYTE	W06
	BYTE		N06   
	BYTE	W06
	BYTE		N12   
	BYTE	W12
	BYTE		N12   
	BYTE	W18
	BYTE		N06     Bn2 
	BYTE	W06
	BYTE		        As2 
	BYTE	W06
	BYTE		        Gs2 
	BYTE	W06
	BYTE	GoTo
	 POIN2	WereRangers_1_B1
WereRangers_1_B2:
// 026   ----------------------------------------
	BYTE	W06
	BYTE	FINE

//**************** Track 2 (Midi-Chn.2) ****************//

WereRangers_2:
	BYTE	KEYSH   WereRangers_key+0
WereRangers_2_B1:
// 000   ----------------------------------------
	BYTE		VOICE   61
	BYTE		VOL     127*WereRangers_mvl/mxv
	BYTE		PAN     c_v+0
	BYTE		N42     Fs3   v100
	BYTE	W48
	BYTE		        Cs3 
	BYTE	W48
// 001   ----------------------------------------
	BYTE		        Gs3 
	BYTE	W48
	BYTE		        Bn3 
	BYTE	W48
// 002   ----------------------------------------
	BYTE		N30     Fs3 
	BYTE	W36
	BYTE		N06     Gs3 
	BYTE	W06
	BYTE		        As3 
	BYTE	W06
	BYTE		N30     Bn3 
	BYTE	W36
	BYTE		N06     As3 
	BYTE	W06
	BYTE		        Gs3 
	BYTE	W06
// 003   ----------------------------------------
	BYTE		        As3 
	BYTE	W18
	BYTE		        Fs3 
	BYTE	W06
	BYTE		N30     Cs3 
	BYTE	W36
	BYTE		N12   
	BYTE	W12
	BYTE		        Cn3 
	BYTE	W12
	BYTE		        Cs3 
	BYTE	W12
// 004   ----------------------------------------
	BYTE		N54     Ds3 
	BYTE	W60
	BYTE		N12     Fn3 
	BYTE	W12
	BYTE		        Fs3 
	BYTE	W12
	BYTE		        Gs3 
	BYTE	W12
// 005   ----------------------------------------
	BYTE		N24     Fs3 
	BYTE	W24
	BYTE		N66     Fn3 
	BYTE	W72
// 006   ----------------------------------------
	BYTE		N30     Fs3 
	BYTE	W36
	BYTE		N06     Gs3 
	BYTE	W06
	BYTE		        As3 
	BYTE	W06
	BYTE		N30     Bn3 
	BYTE	W36
	BYTE		N06     Cs4 
	BYTE	W06
	BYTE		        Ds4 
	BYTE	W06
// 007   ----------------------------------------
	BYTE		        Cs4 
	BYTE	W18
	BYTE		        As3 
	BYTE	W06
	BYTE		N30     Fs3 
	BYTE	W36
	BYTE		N12   
	BYTE	W12
	BYTE		        Fn3 
	BYTE	W12
	BYTE		        Fs3 
	BYTE	W12
// 008   ----------------------------------------
	BYTE		N54     Gs3 
	BYTE	W60
	BYTE		N12     Fs3 
	BYTE	W12
	BYTE		        Fn3 
	BYTE	W12
	BYTE		        Fs3 
	BYTE	W12
// 009   ----------------------------------------
	BYTE		N72     Gs3 
	BYTE	W72
	BYTE		VOICE   48
	BYTE		N24     As3 
	BYTE		N24     As4 
	BYTE	W24
// 010   ----------------------------------------
	BYTE		N60     Bn3 
	BYTE		N60     Bn4 
	BYTE	W60
	BYTE		N12     Bn3 
	BYTE		N12     Bn4 
	BYTE	W12
	BYTE		        Cs4 
	BYTE		N12     Cs5 
	BYTE	W12
	BYTE		        Bn3 
	BYTE		N12     Bn4 
	BYTE	W12
// 011   ----------------------------------------
	BYTE		N24     As3 
	BYTE		N24     As4 
	BYTE	W24
	BYTE		N12     Fs3 
	BYTE		N12     Fs4 
	BYTE	W12
	BYTE		N24     Ds3 
	BYTE		N24     Ds4 
	BYTE	W24
	BYTE		N12     Ds3 
	BYTE		N12     Ds4 
	BYTE	W12
	BYTE		        Cs3 
	BYTE		N12     Cs4 
	BYTE	W12
	BYTE		        Ds3 
	BYTE		N12     Ds4 
	BYTE	W12
// 012   ----------------------------------------
	BYTE		N60     En3 
	BYTE		N60     En4 
	BYTE	W60
	BYTE		N12     En3 
	BYTE		N12     En4 
	BYTE	W12
	BYTE		        Fs3 
	BYTE		N12     Fs4 
	BYTE	W12
	BYTE		        Gs3 
	BYTE		N12     Gs4 
	BYTE	W12
// 013   ----------------------------------------
	BYTE		        Fs3 
	BYTE		N12     Fs4 
	BYTE	W12
	BYTE		N84     Ds3 
	BYTE		N84     Ds4 
	BYTE	W84
// 014   ----------------------------------------
	BYTE		N60     Gs3 
	BYTE		N60     Gs4 
	BYTE	W60
	BYTE		N12     As3 
	BYTE		N12     As4 
	BYTE	W12
	BYTE		        Bn3 
	BYTE		N12     Bn4 
	BYTE	W12
	BYTE		        Cs4 
	BYTE		N12     Cs5 
	BYTE	W12
// 015   ----------------------------------------
	BYTE		N24     Bn3 
	BYTE		N24     Bn4 
	BYTE	W24
	BYTE		N48     As3 
	BYTE		N48     As4 
	BYTE	W48
	BYTE		N24     Fs3 
	BYTE		N24     Fs4 
	BYTE	W24
// 016   ----------------------------------------
	BYTE		TIE     Gs3 
	BYTE		TIE     Gs4 
	BYTE	W96
// 017   ----------------------------------------
	BYTE	W96
	BYTE		EOT     Gs3 
	BYTE		        Gs4 
// 018   ----------------------------------------
WereRangers_2_018:
	BYTE		N36     An3   v100
	BYTE		N36     An4 
	BYTE	W36
	BYTE		N12     En3 
	BYTE		N12     En4 
	BYTE	W12
	BYTE		N24     Cs3 
	BYTE		N24     Cs4 
	BYTE	W24
	BYTE		N12     En3 
	BYTE		N12     En4 
	BYTE	W12
	BYTE		        An3 
	BYTE		N12     An4 
	BYTE	W12
	BYTE	PEND
// 019   ----------------------------------------
	BYTE		N36     Bn3 
	BYTE		N36     Bn4 
	BYTE	W36
	BYTE		N12     Fs3 
	BYTE		N12     Fs4 
	BYTE	W12
	BYTE		N48     Ds3 
	BYTE		N48     Ds4 
	BYTE	W48
// 020   ----------------------------------------
	BYTE	PATT
	 POIN2	WereRangers_2_018
// 021   ----------------------------------------
	BYTE		N72     Bn3   v100
	BYTE		N72     Bn4 
	BYTE	W72
	BYTE		N24     Bn3 
	BYTE		N24     Bn4 
	BYTE	W24
// 022   ----------------------------------------
	BYTE		N36     Cn4 
	BYTE		N36     Cn5 
	BYTE	W36
	BYTE		N12     Gn3 
	BYTE		N12     Gn4 
	BYTE	W12
	BYTE		N24     En3 
	BYTE		N24     En4 
	BYTE	W24
	BYTE		N12     Gn3 
	BYTE		N12     Gn4 
	BYTE	W12
	BYTE		        Cn4 
	BYTE		N12     Cn5 
	BYTE	W12
// 023   ----------------------------------------
	BYTE		N36     Dn4 
	BYTE		N36     Dn5 
	BYTE	W36
	BYTE		N12     As3 
	BYTE		N12     As4 
	BYTE	W12
	BYTE		N24     Fn3 
	BYTE		N24     Fn4 
	BYTE	W24
	BYTE		N12     As3 
	BYTE		N12     As4 
	BYTE	W12
	BYTE		        Dn4 
	BYTE		N12     Dn5 
	BYTE	W12
// 024   ----------------------------------------
	BYTE		N36     Cn4 
	BYTE		N36     Cn5 
	BYTE	W36
	BYTE		N12     Cs4 
	BYTE		N12     Cs5 
	BYTE	W12
	BYTE		N24     Ds4 
	BYTE		N24     Ds5 
	BYTE	W24
	BYTE		N12     Cs4 
	BYTE		N12     Cs5 
	BYTE	W12
	BYTE		        Cn4 
	BYTE		N12     Cn5 
	BYTE	W12
// 025   ----------------------------------------
	BYTE		N96     Cs4 
	BYTE		N96     Cs5 
	BYTE	W96
	BYTE	GoTo
	 POIN2	WereRangers_2_B1
WereRangers_2_B2:
// 026   ----------------------------------------
	BYTE	W06
	BYTE	FINE

//**************** Track 3 (Midi-Chn.3) ****************//

WereRangers_3:
	BYTE	KEYSH   WereRangers_key+0
WereRangers_3_B1:
// 000   ----------------------------------------
	BYTE		VOICE   61
	BYTE		VOL     127*WereRangers_mvl/mxv
	BYTE		PAN     c_v+0
	BYTE		N42     Cs3   v100
	BYTE	W48
	BYTE		        As2 
	BYTE	W48
// 001   ----------------------------------------
	BYTE		        Ds3 
	BYTE	W48
	BYTE		        Gs3 
	BYTE	W48
// 002   ----------------------------------------
	BYTE		VOICE   60
	BYTE		N48     Cs3 
	BYTE	W48
	BYTE		        Ds3 
	BYTE	W48
// 003   ----------------------------------------
WereRangers_3_003:
	BYTE		N48     Cs3   v100
	BYTE	W48
	BYTE		N24     As2 
	BYTE	W24
	BYTE		        Cs3 
	BYTE	W24
	BYTE	PEND
// 004   ----------------------------------------
	BYTE		N48     Cn3 
	BYTE	W48
	BYTE		N24     Ds3 
	BYTE	W24
	BYTE		        Fs3 
	BYTE	W24
// 005   ----------------------------------------
	BYTE		N60     Cs3 
	BYTE	W60
	BYTE		N12   
	BYTE	W12
	BYTE		        Gs2 
	BYTE	W12
	BYTE		        Cs3 
	BYTE	W12
// 006   ----------------------------------------
	BYTE		N48   
	BYTE	W48
	BYTE		        Ds3 
	BYTE	W48
// 007   ----------------------------------------
	BYTE	PATT
	 POIN2	WereRangers_3_003
// 008   ----------------------------------------
	BYTE		N48     Ds3   v100
	BYTE	W48
	BYTE		N24     Gs3 
	BYTE	W24
	BYTE		        Fs3 
	BYTE	W24
// 009   ----------------------------------------
	BYTE		N48     Fn3 
	BYTE	W48
	BYTE		        Cs3 
	BYTE	W48
// 010   ----------------------------------------
	BYTE		        Ds3 
	BYTE	W48
	BYTE		        Gs2 
	BYTE	W48
// 011   ----------------------------------------
	BYTE		        Fs2 
	BYTE	W48
	BYTE		N24     As2 
	BYTE	W24
	BYTE		        Fs3 
	BYTE	W24
// 012   ----------------------------------------
	BYTE		N48     Gs3 
	BYTE	W48
	BYTE		        Cs3 
	BYTE	W48
// 013   ----------------------------------------
	BYTE		N24     As2 
	BYTE	W24
	BYTE		N48     Ds3 
	BYTE	W48
	BYTE		N24     Fs3 
	BYTE	W24
// 014   ----------------------------------------
	BYTE		N96     En3 
	BYTE	W96
// 015   ----------------------------------------
	BYTE		        Fs3 
	BYTE	W96
// 016   ----------------------------------------
	BYTE		TIE     Ds3 
	BYTE	W96
// 017   ----------------------------------------
	BYTE	W90
	BYTE		EOT   
	BYTE	W06
// 018   ----------------------------------------
	BYTE		VOICE   48
	BYTE		N36     En3 
	BYTE		N36     En4 
	BYTE	W36
	BYTE		N12     Cs3 
	BYTE		N12     Cs4 
	BYTE	W12
	BYTE		N24     An2 
	BYTE		N24     An3 
	BYTE	W24
	BYTE		N12     Cs3 
	BYTE		N12     Cs4 
	BYTE	W12
	BYTE		        En3 
	BYTE		N12     En4 
	BYTE	W12
// 019   ----------------------------------------
	BYTE		N36     Fs3 
	BYTE		N36     Fs4 
	BYTE	W36
	BYTE		N12     Ds3 
	BYTE		N12     Ds4 
	BYTE	W12
	BYTE		N48     Bn2 
	BYTE		N48     Bn3 
	BYTE	W48
// 020   ----------------------------------------
	BYTE		N36     En3 
	BYTE		N36     En4 
	BYTE	W36
	BYTE		N12     Cs3 
	BYTE		N12     Cs4 
	BYTE	W12
	BYTE		N24     An2 
	BYTE		N24     An3 
	BYTE	W24
	BYTE		N12     Cs3 
	BYTE		N12     Cs4 
	BYTE	W12
	BYTE		        En3 
	BYTE		N12     En4 
	BYTE	W12
// 021   ----------------------------------------
	BYTE		N72     Fs3 
	BYTE		N72     Fs4 
	BYTE	W72
	BYTE		N24     Fs3 
	BYTE		N24     Fs4 
	BYTE	W24
// 022   ----------------------------------------
	BYTE		N36     Gn3 
	BYTE		N36     Gn4 
	BYTE	W36
	BYTE		N12     En3 
	BYTE		N12     En4 
	BYTE	W12
	BYTE		N24     Cn3 
	BYTE		N24     Cn4 
	BYTE	W24
	BYTE		N12     En3 
	BYTE		N12     En4 
	BYTE	W12
	BYTE		        Gn3 
	BYTE		N12     Gn4 
	BYTE	W12
// 023   ----------------------------------------
	BYTE		N36     As3 
	BYTE		N36     As4 
	BYTE	W36
	BYTE		N12     Fn3 
	BYTE		N12     Fn4 
	BYTE	W12
	BYTE		N24     Dn3 
	BYTE		N24     Dn4 
	BYTE	W24
	BYTE		N12     Fn3 
	BYTE		N12     Fn4 
	BYTE	W12
	BYTE		        As3 
	BYTE		N12     As4 
	BYTE	W12
// 024   ----------------------------------------
	BYTE		N36     Gs3 
	BYTE		N36     Gs4 
	BYTE	W36
	BYTE		N12     Gs3 
	BYTE		N12     Gs4 
	BYTE	W12
	BYTE		N24     Cn4 
	BYTE		N24     Cn5 
	BYTE	W24
	BYTE		N12     Gs3 
	BYTE		N12     Gs4 
	BYTE	W12
	BYTE		        Fs3 
	BYTE		N12     Fs4 
	BYTE	W12
// 025   ----------------------------------------
	BYTE		N96     Fn3 
	BYTE		N96     Fn4 
	BYTE	W96
	BYTE	GoTo
	 POIN2	WereRangers_3_B1
WereRangers_3_B2:
// 026   ----------------------------------------
	BYTE	W06
	BYTE	FINE

//**************** Track 4 (Midi-Chn.4) ****************//

WereRangers_4:
	BYTE	KEYSH   WereRangers_key+0
WereRangers_4_B1:
// 000   ----------------------------------------
	BYTE		VOICE   61
	BYTE		VOL     127*WereRangers_mvl/mxv
	BYTE		PAN     c_v+0
	BYTE		N42     As2   v100
	BYTE	W48
	BYTE		        Fs2 
	BYTE	W48
// 001   ----------------------------------------
	BYTE		        Bn2 
	BYTE	W48
	BYTE		        Fn3 
	BYTE	W48
// 002   ----------------------------------------
	BYTE		VOICE   60
	BYTE		N48     As2 
	BYTE	W48
	BYTE		        Bn2 
	BYTE	W48
// 003   ----------------------------------------
WereRangers_4_003:
	BYTE		N48     As2   v100
	BYTE	W48
	BYTE		N24     Fs2 
	BYTE	W24
	BYTE		        As2 
	BYTE	W24
	BYTE	PEND
// 004   ----------------------------------------
	BYTE		N48     Gs2 
	BYTE	W48
	BYTE		N24     Cn3 
	BYTE	W24
	BYTE		N24   
	BYTE	W24
// 005   ----------------------------------------
	BYTE		N60     Gs2 
	BYTE	W60
	BYTE		N12   
	BYTE	W12
	BYTE		        Fn2 
	BYTE	W12
	BYTE		        Gs2 
	BYTE	W12
// 006   ----------------------------------------
	BYTE		N48     As2 
	BYTE	W48
	BYTE		        Bn2 
	BYTE	W48
// 007   ----------------------------------------
	BYTE	PATT
	 POIN2	WereRangers_4_003
// 008   ----------------------------------------
	BYTE		N48     Cn3   v100
	BYTE	W48
	BYTE		N24     Ds3 
	BYTE	W24
	BYTE		        Cn3 
	BYTE	W24
// 009   ----------------------------------------
	BYTE		N48     Cs3 
	BYTE	W48
	BYTE		        Gs2 
	BYTE	W48
// 010   ----------------------------------------
	BYTE		VOICE   61
	BYTE	W12
	BYTE		N12     Gs3 
	BYTE	W24
	BYTE		N12   
	BYTE	W24
	BYTE		N12   
	BYTE	W24
	BYTE		N12   
	BYTE	W12
// 011   ----------------------------------------
WereRangers_4_011:
	BYTE	W12
	BYTE		N12     Fs3   v100
	BYTE	W24
	BYTE		N12   
	BYTE	W24
	BYTE		N12   
	BYTE	W24
	BYTE		N12   
	BYTE	W12
	BYTE	PEND
// 012   ----------------------------------------
	BYTE	W12
	BYTE		        En3 
	BYTE	W24
	BYTE		N12   
	BYTE	W24
	BYTE		N12   
	BYTE	W24
	BYTE		N12   
	BYTE	W12
// 013   ----------------------------------------
	BYTE	PATT
	 POIN2	WereRangers_4_011
// 014   ----------------------------------------
	BYTE	W12
	BYTE		N12     Gs3   v100
	BYTE	W24
	BYTE		N12   
	BYTE	W24
	BYTE		N12   
	BYTE	W24
	BYTE		N12   
	BYTE	W12
// 015   ----------------------------------------
	BYTE	W12
	BYTE		        As3 
	BYTE	W24
	BYTE		N12   
	BYTE	W24
	BYTE		N12   
	BYTE	W24
	BYTE		N06   
	BYTE	W12
// 016   ----------------------------------------
	BYTE		VOICE   48
	BYTE		TIE     Ds3 
	BYTE		TIE     Ds4 
	BYTE	W96
// 017   ----------------------------------------
	BYTE	W96
	BYTE		EOT     Ds3 
	BYTE		        Ds4 
// 018   ----------------------------------------
	BYTE		VOICE   72
	BYTE		N96     An4 
	BYTE	W96
// 019   ----------------------------------------
	BYTE		N72     Bn4 
	BYTE	W72
	BYTE		N06     Ds4 
	BYTE	W06
	BYTE		        En4 
	BYTE	W06
	BYTE		        Fs4 
	BYTE	W06
	BYTE		        Gs4 
	BYTE	W06
// 020   ----------------------------------------
	BYTE		N48     An4 
	BYTE	W48
	BYTE		        Cs5 
	BYTE	W48
// 021   ----------------------------------------
	BYTE		N04     Bn4 
	BYTE	W04
	BYTE		        Cs5 
	BYTE	W04
	BYTE		        Bn4 
	BYTE	W04
	BYTE		        Cs5 
	BYTE	W04
	BYTE		        Bn4 
	BYTE	W04
	BYTE		        Cs5 
	BYTE	W04
	BYTE		        Bn4 
	BYTE	W04
	BYTE		        Cs5 
	BYTE	W04
	BYTE		        Bn4 
	BYTE	W04
	BYTE		        Cs5 
	BYTE	W04
	BYTE		        Bn4 
	BYTE	W04
	BYTE		        Cs5 
	BYTE	W04
	BYTE		N48     Bn4 
	BYTE	W48
// 022   ----------------------------------------
	BYTE		N96     Cn5 
	BYTE	W96
// 023   ----------------------------------------
	BYTE		N72     Dn5 
	BYTE	W72
	BYTE		N06     Fn4 
	BYTE	W06
	BYTE		        Gn4 
	BYTE	W06
	BYTE		        Gs4 
	BYTE	W06
	BYTE		        As4 
	BYTE	W06
// 024   ----------------------------------------
	BYTE		N48     Cn5 
	BYTE	W48
	BYTE		        Ds5 
	BYTE	W48
// 025   ----------------------------------------
	BYTE		N04     Cs5 
	BYTE	W04
	BYTE		        Ds5 
	BYTE	W04
	BYTE		        Cs5 
	BYTE	W04
	BYTE		        Ds5 
	BYTE	W04
	BYTE		        Cs5 
	BYTE	W04
	BYTE		        Ds5 
	BYTE	W04
	BYTE		        Cs5 
	BYTE	W04
	BYTE		        Ds5 
	BYTE	W04
	BYTE		        Cs5 
	BYTE	W04
	BYTE		        Ds5 
	BYTE	W04
	BYTE		        Cs5 
	BYTE	W04
	BYTE		        Ds5 
	BYTE	W04
	BYTE		N06     Cs5 
	BYTE	W06
	BYTE		        Bn4 
	BYTE	W06
	BYTE		        As4 
	BYTE	W06
	BYTE		        Gs4 
	BYTE	W06
	BYTE		        Fs4 
	BYTE	W06
	BYTE		        Fn4 
	BYTE	W06
	BYTE		        Ds4 
	BYTE	W06
	BYTE		        Cs4 
	BYTE	W06
	BYTE	GoTo
	 POIN2	WereRangers_4_B1
WereRangers_4_B2:
// 026   ----------------------------------------
	BYTE	W06
	BYTE	FINE

//**************** Track 5 (Midi-Chn.5) ****************//

WereRangers_5:
	BYTE	KEYSH   WereRangers_key+0
WereRangers_5_B1:
// 000   ----------------------------------------
	BYTE		VOICE   48
	BYTE		VOL     127*WereRangers_mvl/mxv
	BYTE		PAN     c_v+0
	BYTE		N48     Fs2   v100
	BYTE		N48     Fs3 
	BYTE	W48
	BYTE		        Cs2 
	BYTE		N48     Cs3 
	BYTE	W48
// 001   ----------------------------------------
	BYTE		        Gs2 
	BYTE		N48     Gs3 
	BYTE	W48
	BYTE		        Bn2 
	BYTE		N48     Bn3 
	BYTE	W48
// 002   ----------------------------------------
	BYTE	W96
// 003   ----------------------------------------
	BYTE	W96
// 004   ----------------------------------------
	BYTE		VOICE   69
	BYTE	W96
// 005   ----------------------------------------
	BYTE		N04     Fn3 
	BYTE	W04
	BYTE		        Gs3 
	BYTE	W04
	BYTE		        Cs4 
	BYTE	W04
	BYTE		        Fn4 
	BYTE	W04
	BYTE		        Cs4 
	BYTE	W04
	BYTE		        Gs3 
	BYTE	W04
	BYTE		        Fn3   v088
	BYTE	W04
	BYTE		        Gs3 
	BYTE	W04
	BYTE		        Cs4 
	BYTE	W04
	BYTE		        Fn4 
	BYTE	W04
	BYTE		        Cs4 
	BYTE	W04
	BYTE		        Gs3 
	BYTE	W04
	BYTE		        Fn3   v072
	BYTE	W04
	BYTE		        Gs3 
	BYTE	W04
	BYTE		        Cs4 
	BYTE	W04
	BYTE		        Fn4 
	BYTE	W04
	BYTE		        Cs4 
	BYTE	W04
	BYTE		        Gs3 
	BYTE	W04
	BYTE		        Fn3   v056
	BYTE	W04
	BYTE		        Gs3 
	BYTE	W04
	BYTE		        Cs4 
	BYTE	W04
	BYTE		        Fn4 
	BYTE	W04
	BYTE		        Cs4 
	BYTE	W04
	BYTE		        Gs3 
	BYTE	W04
// 006   ----------------------------------------
	BYTE	W96
// 007   ----------------------------------------
	BYTE	W96
// 008   ----------------------------------------
	BYTE	W96
// 009   ----------------------------------------
	BYTE		N03     Cs4   v100
	BYTE	W03
	BYTE		        Ds4 
	BYTE	W03
	BYTE		        Cs4 
	BYTE	W03
	BYTE		        Ds4 
	BYTE	W03
	BYTE		        Cs4 
	BYTE	W03
	BYTE		        Ds4 
	BYTE	W03
	BYTE		        Cs4 
	BYTE	W03
	BYTE		        Ds4 
	BYTE	W03
	BYTE		        Cs4   v088
	BYTE	W03
	BYTE		        Ds4 
	BYTE	W03
	BYTE		        Cs4 
	BYTE	W03
	BYTE		        Ds4 
	BYTE	W03
	BYTE		        Cs4 
	BYTE	W03
	BYTE		        Ds4 
	BYTE	W03
	BYTE		        Cs4 
	BYTE	W03
	BYTE		        Ds4 
	BYTE	W03
	BYTE		        Cs4   v072
	BYTE	W03
	BYTE		        Ds4 
	BYTE	W03
	BYTE		        Cs4 
	BYTE	W03
	BYTE		        Ds4 
	BYTE	W03
	BYTE		        Cs4 
	BYTE	W03
	BYTE		        Ds4 
	BYTE	W03
	BYTE		        Cs4 
	BYTE	W03
	BYTE		        Ds4 
	BYTE	W03
	BYTE		        Cs4   v056
	BYTE	W03
	BYTE		        Ds4 
	BYTE	W03
	BYTE		        Cs4 
	BYTE	W03
	BYTE		        Ds4 
	BYTE	W03
	BYTE		        Cs4 
	BYTE	W03
	BYTE		        Ds4 
	BYTE	W03
	BYTE		        Cs4 
	BYTE	W03
	BYTE		        Ds4 
	BYTE	W03
// 010   ----------------------------------------
	BYTE		VOICE   61
	BYTE	W12
	BYTE		N12     En2   v100
	BYTE	W24
	BYTE		N12   
	BYTE	W24
	BYTE		N12   
	BYTE	W24
	BYTE		N12   
	BYTE	W12
// 011   ----------------------------------------
WereRangers_5_011:
	BYTE	W12
	BYTE		N12     Ds2   v100
	BYTE	W24
	BYTE		N12   
	BYTE	W24
	BYTE		N12   
	BYTE	W24
	BYTE		N12   
	BYTE	W12
	BYTE	PEND
// 012   ----------------------------------------
	BYTE	W12
	BYTE		        Cs2 
	BYTE	W24
	BYTE		N12   
	BYTE	W24
	BYTE		N12   
	BYTE	W24
	BYTE		N12   
	BYTE	W12
// 013   ----------------------------------------
	BYTE	PATT
	 POIN2	WereRangers_5_011
// 014   ----------------------------------------
	BYTE	W12
	BYTE		N12     En2   v100
	BYTE	W24
	BYTE		N12   
	BYTE	W24
	BYTE		N12   
	BYTE	W24
	BYTE		N12   
	BYTE	W12
// 015   ----------------------------------------
	BYTE	W12
	BYTE		        Fs2 
	BYTE	W24
	BYTE		N12   
	BYTE	W24
	BYTE		N12   
	BYTE	W24
	BYTE		N06   
	BYTE	W12
// 016   ----------------------------------------
	BYTE	W96
// 017   ----------------------------------------
	BYTE		VOICE   69
	BYTE		N06     Cs4 
	BYTE	W06
	BYTE		        Cn4 
	BYTE	W06
	BYTE		        As3 
	BYTE	W06
	BYTE		        Gs3 
	BYTE	W06
	BYTE		        Fs3 
	BYTE	W06
	BYTE		        Fn3 
	BYTE	W06
	BYTE		        Ds3 
	BYTE	W06
	BYTE		        Cs3 
	BYTE	W06
	BYTE		        Cn3 
	BYTE	W06
	BYTE		        As2 
	BYTE	W06
	BYTE		        Gs2 
	BYTE	W06
	BYTE		        Fs2 
	BYTE	W06
	BYTE		        Fn2 
	BYTE	W06
	BYTE		        Ds2 
	BYTE	W06
	BYTE		        Cs2 
	BYTE	W06
	BYTE		        Cn2 
	BYTE	W06
// 018   ----------------------------------------
	BYTE	W96
// 019   ----------------------------------------
	BYTE	W96
// 020   ----------------------------------------
	BYTE	W96
// 021   ----------------------------------------
	BYTE	W96
// 022   ----------------------------------------
	BYTE	W96
// 023   ----------------------------------------
	BYTE	W96
// 024   ----------------------------------------
	BYTE	W96
// 025   ----------------------------------------
	BYTE	W96
	BYTE	GoTo
	 POIN2	WereRangers_5_B1
WereRangers_5_B2:
// 026   ----------------------------------------
	BYTE	W06
	BYTE	FINE

//**************** Track 6 (Midi-Chn.6) ****************//

WereRangers_6:
	BYTE	KEYSH   WereRangers_key+0
WereRangers_6_B1:
// 000   ----------------------------------------
	BYTE		VOICE   69
	BYTE		VOL     127*WereRangers_mvl/mxv
	BYTE		PAN     c_v+0
	BYTE	W96
// 001   ----------------------------------------
	BYTE	W96
// 002   ----------------------------------------
	BYTE	W96
// 003   ----------------------------------------
	BYTE	W96
// 004   ----------------------------------------
	BYTE	W96
// 005   ----------------------------------------
	BYTE	W96
// 006   ----------------------------------------
	BYTE	W96
// 007   ----------------------------------------
	BYTE	W96
// 008   ----------------------------------------
	BYTE	W96
// 009   ----------------------------------------
	BYTE	W96
// 010   ----------------------------------------
	BYTE	W96
// 011   ----------------------------------------
	BYTE	W96
// 012   ----------------------------------------
	BYTE	W96
// 013   ----------------------------------------
	BYTE		N04     Ds4   v100
	BYTE	W04
	BYTE		        Fs4 
	BYTE	W04
	BYTE		        As4 
	BYTE	W04
	BYTE		        Ds5 
	BYTE	W04
	BYTE		        As4 
	BYTE	W04
	BYTE		        Fs4 
	BYTE	W04
	BYTE		        Ds4   v088
	BYTE	W04
	BYTE		        Fs4 
	BYTE	W04
	BYTE		        As4 
	BYTE	W04
	BYTE		        Ds5 
	BYTE	W04
	BYTE		        As4 
	BYTE	W04
	BYTE		        Fs4 
	BYTE	W04
	BYTE		        Ds4   v072
	BYTE	W04
	BYTE		        Fs4 
	BYTE	W04
	BYTE		        As4 
	BYTE	W04
	BYTE		        Ds5 
	BYTE	W04
	BYTE		        As4 
	BYTE	W04
	BYTE		        Fs4 
	BYTE	W04
	BYTE		        Ds4   v056
	BYTE	W04
	BYTE		        Fs4 
	BYTE	W04
	BYTE		        As4 
	BYTE	W04
	BYTE		        Ds5 
	BYTE	W04
	BYTE		        As4 
	BYTE	W04
	BYTE		        Fs4 
	BYTE	W04
// 014   ----------------------------------------
	BYTE	W96
// 015   ----------------------------------------
	BYTE	W96
// 016   ----------------------------------------
	BYTE	W96
// 017   ----------------------------------------
	BYTE	W96
// 018   ----------------------------------------
	BYTE	W96
// 019   ----------------------------------------
	BYTE	W96
// 020   ----------------------------------------
	BYTE	W96
// 021   ----------------------------------------
	BYTE	W96
// 022   ----------------------------------------
	BYTE	W96
// 023   ----------------------------------------
	BYTE	W96
// 024   ----------------------------------------
	BYTE	W96
// 025   ----------------------------------------
	BYTE	W96
	BYTE	GoTo
	 POIN2	WereRangers_6_B1
WereRangers_6_B2:
// 026   ----------------------------------------
	BYTE	W06
	BYTE	FINE

//**************** Track 7 (Midi-Chn.7) ****************//

WereRangers_7:
	BYTE	KEYSH   WereRangers_key+0
WereRangers_7_B1:
// 000   ----------------------------------------
	BYTE		VOICE   61
	BYTE		VOL     95*WereRangers_mvl/mxv
	BYTE		PAN     c_v+0
	BYTE	W06
	BYTE		N42     Fs3   v100
	BYTE	W48
	BYTE		        Cs3 
	BYTE	W42
// 001   ----------------------------------------
	BYTE	W06
	BYTE		        Gs3 
	BYTE	W48
	BYTE		        Bn3 
	BYTE	W42
// 002   ----------------------------------------
	BYTE	W06
	BYTE		N30     Fs3 
	BYTE	W36
	BYTE		N06     Gs3 
	BYTE	W06
	BYTE		        As3 
	BYTE	W06
	BYTE		N30     Bn3 
	BYTE	W36
	BYTE		N06     As3 
	BYTE	W06
// 003   ----------------------------------------
	BYTE		        Gs3 
	BYTE	W06
	BYTE		        As3 
	BYTE	W18
	BYTE		        Fs3 
	BYTE	W06
	BYTE		N30     Cs3 
	BYTE	W36
	BYTE		N12   
	BYTE	W12
	BYTE		        Cn3 
	BYTE	W12
	BYTE		        Cs3 
	BYTE	W06
// 004   ----------------------------------------
	BYTE	W06
	BYTE		N54     Ds3 
	BYTE	W60
	BYTE		N12     Fn3 
	BYTE	W12
	BYTE		        Fs3 
	BYTE	W12
	BYTE		        Gs3 
	BYTE	W06
// 005   ----------------------------------------
	BYTE	W06
	BYTE		N24     Fs3 
	BYTE	W24
	BYTE		N66     Fn3 
	BYTE	W66
// 006   ----------------------------------------
	BYTE	W06
	BYTE		N30     Fs3 
	BYTE	W36
	BYTE		N06     Gs3 
	BYTE	W06
	BYTE		        As3 
	BYTE	W06
	BYTE		N30     Bn3 
	BYTE	W36
	BYTE		N06     Cs4 
	BYTE	W06
// 007   ----------------------------------------
	BYTE		        Ds4 
	BYTE	W06
	BYTE		        Cs4 
	BYTE	W18
	BYTE		        As3 
	BYTE	W06
	BYTE		N30     Fs3 
	BYTE	W36
	BYTE		N12   
	BYTE	W12
	BYTE		        Fn3 
	BYTE	W12
	BYTE		        Fs3 
	BYTE	W06
// 008   ----------------------------------------
	BYTE	W06
	BYTE		N54     Gs3 
	BYTE	W60
	BYTE		N12     Fs3 
	BYTE	W12
	BYTE		        Fn3 
	BYTE	W12
	BYTE		        Fs3 
	BYTE	W06
// 009   ----------------------------------------
	BYTE	W06
	BYTE		N72     Gs3 
	BYTE	W72
	BYTE		VOICE   48
	BYTE		N24     As3 
	BYTE		N24     As4 
	BYTE	W18
// 010   ----------------------------------------
	BYTE	W06
	BYTE		N60     Bn3 
	BYTE		N60     Bn4 
	BYTE	W60
	BYTE		N12     Bn3 
	BYTE		N12     Bn4 
	BYTE	W12
	BYTE		        Cs4 
	BYTE		N12     Cs5 
	BYTE	W12
	BYTE		        Bn3 
	BYTE		N12     Bn4 
	BYTE	W06
// 011   ----------------------------------------
	BYTE	W06
	BYTE		N24     As3 
	BYTE		N24     As4 
	BYTE	W24
	BYTE		N12     Fs3 
	BYTE		N12     Fs4 
	BYTE	W12
	BYTE		N24     Ds3 
	BYTE		N24     Ds4 
	BYTE	W24
	BYTE		N12     Ds3 
	BYTE		N12     Ds4 
	BYTE	W12
	BYTE		        Cs3 
	BYTE		N12     Cs4 
	BYTE	W12
	BYTE		        Ds3 
	BYTE		N12     Ds4 
	BYTE	W06
// 012   ----------------------------------------
	BYTE	W06
	BYTE		N60     En3 
	BYTE		N60     En4 
	BYTE	W60
	BYTE		N12     En3 
	BYTE		N12     En4 
	BYTE	W12
	BYTE		        Fs3 
	BYTE		N12     Fs4 
	BYTE	W12
	BYTE		        Gs3 
	BYTE		N12     Gs4 
	BYTE	W06
// 013   ----------------------------------------
	BYTE	W06
	BYTE		        Fs3 
	BYTE		N12     Fs4 
	BYTE	W12
	BYTE		N84     Ds3 
	BYTE		N84     Ds4 
	BYTE	W78
// 014   ----------------------------------------
	BYTE	W06
	BYTE		N60     Gs3 
	BYTE		N60     Gs4 
	BYTE	W60
	BYTE		N12     As3 
	BYTE		N12     As4 
	BYTE	W12
	BYTE		        Bn3 
	BYTE		N12     Bn4 
	BYTE	W12
	BYTE		        Cs4 
	BYTE		N12     Cs5 
	BYTE	W06
// 015   ----------------------------------------
	BYTE	W06
	BYTE		N24     Bn3 
	BYTE		N24     Bn4 
	BYTE	W24
	BYTE		N48     As3 
	BYTE		N48     As4 
	BYTE	W48
	BYTE		N24     Fs3 
	BYTE		N24     Fs4 
	BYTE	W18
// 016   ----------------------------------------
	BYTE	W06
	BYTE		TIE     Gs3 
	BYTE		TIE     Gs4 
	BYTE	W90
// 017   ----------------------------------------
	BYTE	W96
// 018   ----------------------------------------
	BYTE	W06
	BYTE		EOT     Gs3 
	BYTE		        Gs4 
	BYTE		N36     An3 
	BYTE		N36     An4 
	BYTE	W36
	BYTE		N12     En3 
	BYTE		N12     En4 
	BYTE	W12
	BYTE		N24     Cs3 
	BYTE		N24     Cs4 
	BYTE	W24
	BYTE		N12     En3 
	BYTE		N12     En4 
	BYTE	W12
	BYTE		        An3 
	BYTE		N12     An4 
	BYTE	W06
// 019   ----------------------------------------
	BYTE	W06
	BYTE		N36     Bn3 
	BYTE		N36     Bn4 
	BYTE	W36
	BYTE		N12     Fs3 
	BYTE		N12     Fs4 
	BYTE	W12
	BYTE		N48     Ds3 
	BYTE		N48     Ds4 
	BYTE	W42
// 020   ----------------------------------------
	BYTE	W06
	BYTE		N36     An3 
	BYTE		N36     An4 
	BYTE	W36
	BYTE		N12     En3 
	BYTE		N12     En4 
	BYTE	W12
	BYTE		N24     Cs3 
	BYTE		N24     Cs4 
	BYTE	W24
	BYTE		N12     En3 
	BYTE		N12     En4 
	BYTE	W12
	BYTE		        An3 
	BYTE		N12     An4 
	BYTE	W06
// 021   ----------------------------------------
	BYTE	W06
	BYTE		N72     Bn3 
	BYTE		N72     Bn4 
	BYTE	W72
	BYTE		N24     Bn3 
	BYTE		N24     Bn4 
	BYTE	W18
// 022   ----------------------------------------
	BYTE	W06
	BYTE		N36     Cn4 
	BYTE		N36     Cn5 
	BYTE	W36
	BYTE		N12     Gn3 
	BYTE		N12     Gn4 
	BYTE	W12
	BYTE		N24     En3 
	BYTE		N24     En4 
	BYTE	W24
	BYTE		N12     Gn3 
	BYTE		N12     Gn4 
	BYTE	W12
	BYTE		        Cn4 
	BYTE		N12     Cn5 
	BYTE	W06
// 023   ----------------------------------------
	BYTE	W06
	BYTE		N36     Dn4 
	BYTE		N36     Dn5 
	BYTE	W36
	BYTE		N12     As3 
	BYTE		N12     As4 
	BYTE	W12
	BYTE		N24     Fn3 
	BYTE		N24     Fn4 
	BYTE	W24
	BYTE		N12     As3 
	BYTE		N12     As4 
	BYTE	W12
	BYTE		        Dn4 
	BYTE		N12     Dn5 
	BYTE	W06
// 024   ----------------------------------------
	BYTE	W06
	BYTE		N36     Cn4 
	BYTE		N36     Cn5 
	BYTE	W36
	BYTE		N12     Cs4 
	BYTE		N12     Cs5 
	BYTE	W12
	BYTE		N24     Ds4 
	BYTE		N24     Ds5 
	BYTE	W24
	BYTE		N12     Cs4 
	BYTE		N12     Cs5 
	BYTE	W12
	BYTE		        Cn4 
	BYTE		N12     Cn5 
	BYTE	W06
// 025   ----------------------------------------
	BYTE	W06
	BYTE		N96     Cs4 
	BYTE		N96     Cs5 
	BYTE	W90
	BYTE	GoTo
	 POIN2	WereRangers_7_B1
WereRangers_7_B2:
// 026   ----------------------------------------
	BYTE	W06
	BYTE	FINE

//**************** Track 8 (Midi-Chn.8) ****************//

WereRangers_8:
	BYTE	KEYSH   WereRangers_key+0
WereRangers_8_B1:
// 000   ----------------------------------------
	BYTE		VOICE   123
	BYTE		VOL     127*WereRangers_mvl/mxv
	BYTE		PAN     c_v+0
	BYTE		N06     Dn1   v100
	BYTE		N06     Cs2 
	BYTE	W12
	BYTE		        Dn1 
	BYTE	W18
	BYTE		N03   
	BYTE	W03
	BYTE		N03   
	BYTE	W03
	BYTE		N03   
	BYTE	W03
	BYTE		N03   
	BYTE	W03
	BYTE		N03   
	BYTE	W03
	BYTE		N03   
	BYTE	W03
	BYTE		N06   
	BYTE	W12
	BYTE		N06   
	BYTE	W18
	BYTE		N06   
	BYTE	W06
	BYTE		N06   
	BYTE	W06
	BYTE		N06   
	BYTE	W06
// 001   ----------------------------------------
	BYTE		N06   
	BYTE		N06     Cs2 
	BYTE	W24
	BYTE		N04     Dn1 
	BYTE	W04
	BYTE		N04   
	BYTE	W04
	BYTE		N04   
	BYTE	W04
	BYTE		N04   
	BYTE	W04
	BYTE		N04   
	BYTE	W04
	BYTE		N04   
	BYTE	W04
	BYTE		N06   
	BYTE		N06     Cs2 
	BYTE	W12
	BYTE		        Dn1 
	BYTE	W12
	BYTE		N03   
	BYTE	W03
	BYTE		N03   
	BYTE	W03
	BYTE		N03   
	BYTE	W03
	BYTE		N03   
	BYTE	W03
	BYTE		N03   
	BYTE	W03
	BYTE		N03   
	BYTE	W03
	BYTE		N03   
	BYTE	W03
	BYTE		N03   
	BYTE	W03
// 002   ----------------------------------------
WereRangers_8_002:
	BYTE		N06     Dn1   v100
	BYTE		N06     Cs2 
	BYTE	W12
	BYTE		        Dn1 
	BYTE	W24
	BYTE		N03   
	BYTE	W03
	BYTE		N03   
	BYTE	W03
	BYTE		N03   
	BYTE	W03
	BYTE		N03   
	BYTE	W03
	BYTE		N06   
	BYTE	W12
	BYTE		N06   
	BYTE	W24
	BYTE		N06   
	BYTE	W06
	BYTE		N06   
	BYTE	W06
	BYTE	PEND
// 003   ----------------------------------------
WereRangers_8_003:
	BYTE		N06     Dn1   v100
	BYTE	W12
	BYTE		N06   
	BYTE	W24
	BYTE		N03   
	BYTE	W03
	BYTE		N03   
	BYTE	W03
	BYTE		N03   
	BYTE	W03
	BYTE		N03   
	BYTE	W03
	BYTE		N06   
	BYTE	W12
	BYTE		N06   
	BYTE	W12
	BYTE		N06   
	BYTE	W06
	BYTE		N06   
	BYTE	W06
	BYTE		N06   
	BYTE	W06
	BYTE		N06   
	BYTE	W06
	BYTE	PEND
// 004   ----------------------------------------
WereRangers_8_004:
	BYTE		N06     Dn1   v100
	BYTE	W12
	BYTE		N06   
	BYTE	W24
	BYTE		N03   
	BYTE	W03
	BYTE		N03   
	BYTE	W03
	BYTE		N03   
	BYTE	W03
	BYTE		N03   
	BYTE	W03
	BYTE		N06   
	BYTE	W12
	BYTE		N06   
	BYTE	W24
	BYTE		N06   
	BYTE	W06
	BYTE		N06   
	BYTE	W06
	BYTE	PEND
// 005   ----------------------------------------
WereRangers_8_005:
	BYTE		N06     Dn1   v100
	BYTE	W12
	BYTE		N06   
	BYTE	W12
	BYTE		        Cs2 
	BYTE	W12
	BYTE		N03     Dn1 
	BYTE	W03
	BYTE		N03   
	BYTE	W03
	BYTE		N03   
	BYTE	W03
	BYTE		N03   
	BYTE	W03
	BYTE		N06   
	BYTE	W12
	BYTE		N06   
	BYTE	W12
	BYTE		N06   
	BYTE		N06     Cs2 
	BYTE	W06
	BYTE		        Dn1 
	BYTE	W06
	BYTE		N06   
	BYTE	W06
	BYTE		N06   
	BYTE	W06
	BYTE	PEND
// 006   ----------------------------------------
	BYTE	PATT
	 POIN2	WereRangers_8_002
// 007   ----------------------------------------
	BYTE	PATT
	 POIN2	WereRangers_8_003
// 008   ----------------------------------------
	BYTE	PATT
	 POIN2	WereRangers_8_004
// 009   ----------------------------------------
	BYTE	PATT
	 POIN2	WereRangers_8_005
// 010   ----------------------------------------
	BYTE		N06     Dn1   v100
	BYTE		N06     Cs2 
	BYTE	W12
	BYTE		        Dn1 
	BYTE	W24
	BYTE		N06   
	BYTE	W24
	BYTE		N06   
	BYTE	W24
	BYTE		N06   
	BYTE	W06
	BYTE		N06   
	BYTE	W06
// 011   ----------------------------------------
	BYTE		N06   
	BYTE	W12
	BYTE		N06   
	BYTE	W24
	BYTE		N06   
	BYTE	W24
	BYTE		N06   
	BYTE	W18
	BYTE		N06   
	BYTE	W06
	BYTE		N06   
	BYTE	W06
	BYTE		N06   
	BYTE	W06
// 012   ----------------------------------------
	BYTE		N06   
	BYTE	W12
	BYTE		N06   
	BYTE	W24
	BYTE		N06   
	BYTE	W24
	BYTE		N06   
	BYTE	W24
	BYTE		N06   
	BYTE	W06
	BYTE		N06   
	BYTE	W06
// 013   ----------------------------------------
	BYTE		N06   
	BYTE	W12
	BYTE		N06   
	BYTE	W18
	BYTE		N06   
	BYTE	W06
	BYTE		N06   
	BYTE	W18
	BYTE		N06   
	BYTE	W06
	BYTE		N06   
	BYTE	W18
	BYTE		N06   
	BYTE	W06
	BYTE		N06   
	BYTE	W06
	BYTE		N06   
	BYTE	W06
// 014   ----------------------------------------
	BYTE		N06   
	BYTE		N06     Cs2 
	BYTE	W12
	BYTE		        Dn1 
	BYTE	W24
	BYTE		N06   
	BYTE	W18
	BYTE		N06   
	BYTE	W06
	BYTE		N06   
	BYTE	W18
	BYTE		N06   
	BYTE	W06
	BYTE		N06   
	BYTE	W06
	BYTE		N06   
	BYTE	W06
// 015   ----------------------------------------
	BYTE		N06   
	BYTE	W12
	BYTE		N06   
	BYTE	W24
	BYTE		N06   
	BYTE	W18
	BYTE		N06   
	BYTE	W06
	BYTE		N06   
	BYTE	W18
	BYTE		N06   
	BYTE	W06
	BYTE		N06   
	BYTE	W06
	BYTE		N06   
	BYTE	W06
// 016   ----------------------------------------
	BYTE		N06   
	BYTE		N06     Cs2 
	BYTE	W06
	BYTE		        Dn1 
	BYTE	W12
	BYTE		N06   
	BYTE	W12
	BYTE		N06   
	BYTE	W06
	BYTE		N06   
	BYTE	W12
	BYTE		        Cs2 
	BYTE	W06
	BYTE		        Dn1 
	BYTE	W06
	BYTE		N06   
	BYTE	W12
	BYTE		N04   
	BYTE	W04
	BYTE		N04   
	BYTE	W04
	BYTE		N04   
	BYTE	W04
	BYTE		N04   
	BYTE	W04
	BYTE		N04   
	BYTE	W04
	BYTE		N04   
	BYTE	W04
// 017   ----------------------------------------
WereRangers_8_017:
	BYTE		N06     Dn1   v100
	BYTE		N06     Cs2 
	BYTE	W06
	BYTE		        Dn1 
	BYTE	W18
	BYTE		N06   
	BYTE		N06     Cs2 
	BYTE	W06
	BYTE		        Dn1 
	BYTE	W18
	BYTE		N06   
	BYTE		N06     Cs2 
	BYTE	W06
	BYTE		        Dn1 
	BYTE	W12
	BYTE		N06   
	BYTE	W06
	BYTE		N04   
	BYTE		N06     Cs2 
	BYTE	W04
	BYTE		N04     Dn1 
	BYTE	W04
	BYTE		N04   
	BYTE	W04
	BYTE		N04   
	BYTE	W04
	BYTE		N04   
	BYTE	W04
	BYTE		N04   
	BYTE	W04
	BYTE	PEND
// 018   ----------------------------------------
WereRangers_8_018:
	BYTE		N06     Dn1   v100
	BYTE		N06     Cs2 
	BYTE	W12
	BYTE		        Dn1 
	BYTE	W72
	BYTE		N06   
	BYTE	W06
	BYTE		N06   
	BYTE	W06
	BYTE	PEND
// 019   ----------------------------------------
WereRangers_8_019:
	BYTE		N06     Dn1   v100
	BYTE		N06     Cs2 
	BYTE	W12
	BYTE		        Dn1 
	BYTE	W60
	BYTE		N04   
	BYTE	W04
	BYTE		N04   
	BYTE	W04
	BYTE		N04   
	BYTE	W04
	BYTE		N04   
	BYTE	W04
	BYTE		N04   
	BYTE	W04
	BYTE		N04   
	BYTE	W04
	BYTE	PEND
// 020   ----------------------------------------
	BYTE	PATT
	 POIN2	WereRangers_8_018
// 021   ----------------------------------------
	BYTE	PATT
	 POIN2	WereRangers_8_019
// 022   ----------------------------------------
	BYTE	PATT
	 POIN2	WereRangers_8_018
// 023   ----------------------------------------
	BYTE	PATT
	 POIN2	WereRangers_8_019
// 024   ----------------------------------------
	BYTE		N06     Dn1   v100
	BYTE		N06     Cs2 
	BYTE	W12
	BYTE		        Dn1 
	BYTE	W24
	BYTE		N06   
	BYTE	W06
	BYTE		N06   
	BYTE	W06
	BYTE		N06   
	BYTE		N06     Cs2 
	BYTE	W12
	BYTE		        Dn1 
	BYTE	W24
	BYTE		N06   
	BYTE	W06
	BYTE		N06   
	BYTE	W06
// 025   ----------------------------------------
	BYTE	PATT
	 POIN2	WereRangers_8_017
	BYTE	GoTo
	 POIN2	WereRangers_8_B1
WereRangers_8_B2:
// 026   ----------------------------------------
	BYTE	W06
	BYTE	FINE

//******************************************************//
	ALIGN 4

WereRangers:
	BYTE	8	// NumTrks
	BYTE	0	// NumBlks
	BYTE	WereRangers_pri	// Priority
	BYTE	WereRangers_rev	// Reverb.

	POIN2	WereRangers_grp

	POIN2	WereRangers_1
	POIN2	WereRangers_2
	POIN2	WereRangers_3
	POIN2	WereRangers_4
	POIN2	WereRangers_5
	POIN2	WereRangers_6
	POIN2	WereRangers_7
	POIN2	WereRangers_8

	
